<?xml version="1.0" encoding="utf-8"?>
<svg xmlns="http://www.w3.org/2000/svg" xmlns:xlink="http://www.w3.org/1999/xlink" width="600" height="400" viewBox="0 0 2400 1600">
<defs>
  <clipPath id="clip100">
    <rect x="0" y="0" width="2400" height="1600"/>
  </clipPath>
</defs>
<path clip-path="url(#clip100)" d="M0 1600 L2400 1600 L2400 0 L0 0  Z" fill="#ffffff" fill-rule="evenodd" fill-opacity="1"/>
<defs>
  <clipPath id="clip101">
    <rect x="480" y="0" width="1681" height="1600"/>
  </clipPath>
</defs>
<path clip-path="url(#clip100)" d="M229.445 1486.45 L2352.76 1486.45 L2352.76 123.472 L229.445 123.472  Z" fill="#ffffff" fill-rule="evenodd" fill-opacity="1"/>
<defs>
  <clipPath id="clip102">
    <rect x="229" y="123" width="2124" height="1364"/>
  </clipPath>
</defs>
<polyline clip-path="url(#clip102)" style="stroke:#000000; stroke-linecap:round; stroke-linejoin:round; stroke-width:2; stroke-opacity:0.1; fill:none" points="346.231,1486.45 346.231,123.472 "/>
<polyline clip-path="url(#clip102)" style="stroke:#000000; stroke-linecap:round; stroke-linejoin:round; stroke-width:2; stroke-opacity:0.1; fill:none" points="768.048,1486.45 768.048,123.472 "/>
<polyline clip-path="url(#clip102)" style="stroke:#000000; stroke-linecap:round; stroke-linejoin:round; stroke-width:2; stroke-opacity:0.1; fill:none" points="1189.86,1486.45 1189.86,123.472 "/>
<polyline clip-path="url(#clip102)" style="stroke:#000000; stroke-linecap:round; stroke-linejoin:round; stroke-width:2; stroke-opacity:0.1; fill:none" points="1611.68,1486.45 1611.68,123.472 "/>
<polyline clip-path="url(#clip102)" style="stroke:#000000; stroke-linecap:round; stroke-linejoin:round; stroke-width:2; stroke-opacity:0.1; fill:none" points="2033.5,1486.45 2033.5,123.472 "/>
<polyline clip-path="url(#clip102)" style="stroke:#000000; stroke-linecap:round; stroke-linejoin:round; stroke-width:2; stroke-opacity:0.1; fill:none" points="229.445,1486.45 2352.76,1486.45 "/>
<polyline clip-path="url(#clip102)" style="stroke:#000000; stroke-linecap:round; stroke-linejoin:round; stroke-width:2; stroke-opacity:0.1; fill:none" points="229.445,1200.44 2352.76,1200.44 "/>
<polyline clip-path="url(#clip102)" style="stroke:#000000; stroke-linecap:round; stroke-linejoin:round; stroke-width:2; stroke-opacity:0.1; fill:none" points="229.445,914.442 2352.76,914.442 "/>
<polyline clip-path="url(#clip102)" style="stroke:#000000; stroke-linecap:round; stroke-linejoin:round; stroke-width:2; stroke-opacity:0.1; fill:none" points="229.445,628.439 2352.76,628.439 "/>
<polyline clip-path="url(#clip102)" style="stroke:#000000; stroke-linecap:round; stroke-linejoin:round; stroke-width:2; stroke-opacity:0.1; fill:none" points="229.445,342.436 2352.76,342.436 "/>
<polyline clip-path="url(#clip100)" style="stroke:#000000; stroke-linecap:round; stroke-linejoin:round; stroke-width:4; stroke-opacity:1; fill:none" points="229.445,1486.45 2352.76,1486.45 "/>
<polyline clip-path="url(#clip100)" style="stroke:#000000; stroke-linecap:round; stroke-linejoin:round; stroke-width:4; stroke-opacity:1; fill:none" points="346.231,1486.45 346.231,1467.55 "/>
<polyline clip-path="url(#clip100)" style="stroke:#000000; stroke-linecap:round; stroke-linejoin:round; stroke-width:4; stroke-opacity:1; fill:none" points="768.048,1486.45 768.048,1467.55 "/>
<polyline clip-path="url(#clip100)" style="stroke:#000000; stroke-linecap:round; stroke-linejoin:round; stroke-width:4; stroke-opacity:1; fill:none" points="1189.86,1486.45 1189.86,1467.55 "/>
<polyline clip-path="url(#clip100)" style="stroke:#000000; stroke-linecap:round; stroke-linejoin:round; stroke-width:4; stroke-opacity:1; fill:none" points="1611.68,1486.45 1611.68,1467.55 "/>
<polyline clip-path="url(#clip100)" style="stroke:#000000; stroke-linecap:round; stroke-linejoin:round; stroke-width:4; stroke-opacity:1; fill:none" points="2033.5,1486.45 2033.5,1467.55 "/>
<path clip-path="url(#clip100)" d="M346.231 1517.37 Q342.62 1517.37 340.791 1520.93 Q338.986 1524.47 338.986 1531.6 Q338.986 1538.71 340.791 1542.27 Q342.62 1545.82 346.231 1545.82 Q349.865 1545.82 351.671 1542.27 Q353.499 1538.71 353.499 1531.6 Q353.499 1524.47 351.671 1520.93 Q349.865 1517.37 346.231 1517.37 M346.231 1513.66 Q352.041 1513.66 355.097 1518.27 Q358.175 1522.85 358.175 1531.6 Q358.175 1540.33 355.097 1544.94 Q352.041 1549.52 346.231 1549.52 Q340.421 1549.52 337.342 1544.94 Q334.287 1540.33 334.287 1531.6 Q334.287 1522.85 337.342 1518.27 Q340.421 1513.66 346.231 1513.66 Z" fill="#000000" fill-rule="nonzero" fill-opacity="1" /><path clip-path="url(#clip100)" d="M742.747 1514.29 L761.103 1514.29 L761.103 1518.22 L747.029 1518.22 L747.029 1526.7 Q748.048 1526.35 749.066 1526.19 Q750.085 1526 751.103 1526 Q756.89 1526 760.27 1529.17 Q763.65 1532.34 763.65 1537.76 Q763.65 1543.34 760.177 1546.44 Q756.705 1549.52 750.386 1549.52 Q748.21 1549.52 745.941 1549.15 Q743.696 1548.78 741.289 1548.04 L741.289 1543.34 Q743.372 1544.47 745.594 1545.03 Q747.816 1545.58 750.293 1545.58 Q754.298 1545.58 756.636 1543.48 Q758.974 1541.37 758.974 1537.76 Q758.974 1534.15 756.636 1532.04 Q754.298 1529.94 750.293 1529.94 Q748.418 1529.94 746.543 1530.35 Q744.691 1530.77 742.747 1531.65 L742.747 1514.29 Z" fill="#000000" fill-rule="nonzero" fill-opacity="1" /><path clip-path="url(#clip100)" d="M782.862 1517.37 Q779.251 1517.37 777.423 1520.93 Q775.617 1524.47 775.617 1531.6 Q775.617 1538.71 777.423 1542.27 Q779.251 1545.82 782.862 1545.82 Q786.497 1545.82 788.302 1542.27 Q790.131 1538.71 790.131 1531.6 Q790.131 1524.47 788.302 1520.93 Q786.497 1517.37 782.862 1517.37 M782.862 1513.66 Q788.673 1513.66 791.728 1518.27 Q794.807 1522.85 794.807 1531.6 Q794.807 1540.33 791.728 1544.94 Q788.673 1549.52 782.862 1549.52 Q777.052 1549.52 773.974 1544.94 Q770.918 1540.33 770.918 1531.6 Q770.918 1522.85 773.974 1518.27 Q777.052 1513.66 782.862 1513.66 Z" fill="#000000" fill-rule="nonzero" fill-opacity="1" /><path clip-path="url(#clip100)" d="M1149.47 1544.91 L1157.11 1544.91 L1157.11 1518.55 L1148.8 1520.21 L1148.8 1515.95 L1157.06 1514.29 L1161.74 1514.29 L1161.74 1544.91 L1169.38 1544.91 L1169.38 1548.85 L1149.47 1548.85 L1149.47 1544.91 Z" fill="#000000" fill-rule="nonzero" fill-opacity="1" /><path clip-path="url(#clip100)" d="M1188.82 1517.37 Q1185.21 1517.37 1183.38 1520.93 Q1181.58 1524.47 1181.58 1531.6 Q1181.58 1538.71 1183.38 1542.27 Q1185.21 1545.82 1188.82 1545.82 Q1192.46 1545.82 1194.26 1542.27 Q1196.09 1538.71 1196.09 1531.6 Q1196.09 1524.47 1194.26 1520.93 Q1192.46 1517.37 1188.82 1517.37 M1188.82 1513.66 Q1194.63 1513.66 1197.69 1518.27 Q1200.77 1522.85 1200.77 1531.6 Q1200.77 1540.33 1197.69 1544.94 Q1194.63 1549.52 1188.82 1549.52 Q1183.01 1549.52 1179.93 1544.94 Q1176.88 1540.33 1176.88 1531.6 Q1176.88 1522.85 1179.93 1518.27 Q1183.01 1513.66 1188.82 1513.66 Z" fill="#000000" fill-rule="nonzero" fill-opacity="1" /><path clip-path="url(#clip100)" d="M1218.98 1517.37 Q1215.37 1517.37 1213.54 1520.93 Q1211.74 1524.47 1211.74 1531.6 Q1211.74 1538.71 1213.54 1542.27 Q1215.37 1545.82 1218.98 1545.82 Q1222.62 1545.82 1224.42 1542.27 Q1226.25 1538.71 1226.25 1531.6 Q1226.25 1524.47 1224.42 1520.93 Q1222.62 1517.37 1218.98 1517.37 M1218.98 1513.66 Q1224.79 1513.66 1227.85 1518.27 Q1230.93 1522.85 1230.93 1531.6 Q1230.93 1540.33 1227.85 1544.94 Q1224.79 1549.52 1218.98 1549.52 Q1213.17 1549.52 1210.1 1544.94 Q1207.04 1540.33 1207.04 1531.6 Q1207.04 1522.85 1210.1 1518.27 Q1213.17 1513.66 1218.98 1513.66 Z" fill="#000000" fill-rule="nonzero" fill-opacity="1" /><path clip-path="url(#clip100)" d="M1571.29 1544.91 L1578.93 1544.91 L1578.93 1518.55 L1570.62 1520.21 L1570.62 1515.95 L1578.88 1514.29 L1583.56 1514.29 L1583.56 1544.91 L1591.2 1544.91 L1591.2 1548.85 L1571.29 1548.85 L1571.29 1544.91 Z" fill="#000000" fill-rule="nonzero" fill-opacity="1" /><path clip-path="url(#clip100)" d="M1600.69 1514.29 L1619.04 1514.29 L1619.04 1518.22 L1604.97 1518.22 L1604.97 1526.7 Q1605.99 1526.35 1607.01 1526.19 Q1608.02 1526 1609.04 1526 Q1614.83 1526 1618.21 1529.17 Q1621.59 1532.34 1621.59 1537.76 Q1621.59 1543.34 1618.12 1546.44 Q1614.64 1549.52 1608.32 1549.52 Q1606.15 1549.52 1603.88 1549.15 Q1601.63 1548.78 1599.23 1548.04 L1599.23 1543.34 Q1601.31 1544.47 1603.53 1545.03 Q1605.76 1545.58 1608.23 1545.58 Q1612.24 1545.58 1614.57 1543.48 Q1616.91 1541.37 1616.91 1537.76 Q1616.91 1534.15 1614.57 1532.04 Q1612.24 1529.94 1608.23 1529.94 Q1606.36 1529.94 1604.48 1530.35 Q1602.63 1530.77 1600.69 1531.65 L1600.69 1514.29 Z" fill="#000000" fill-rule="nonzero" fill-opacity="1" /><path clip-path="url(#clip100)" d="M1640.8 1517.37 Q1637.19 1517.37 1635.36 1520.93 Q1633.56 1524.47 1633.56 1531.6 Q1633.56 1538.71 1635.36 1542.27 Q1637.19 1545.82 1640.8 1545.82 Q1644.44 1545.82 1646.24 1542.27 Q1648.07 1538.71 1648.07 1531.6 Q1648.07 1524.47 1646.24 1520.93 Q1644.44 1517.37 1640.8 1517.37 M1640.8 1513.66 Q1646.61 1513.66 1649.67 1518.27 Q1652.75 1522.85 1652.75 1531.6 Q1652.75 1540.33 1649.67 1544.94 Q1646.61 1549.52 1640.8 1549.52 Q1634.99 1549.52 1631.91 1544.94 Q1628.86 1540.33 1628.86 1531.6 Q1628.86 1522.85 1631.91 1518.27 Q1634.99 1513.66 1640.8 1513.66 Z" fill="#000000" fill-rule="nonzero" fill-opacity="1" /><path clip-path="url(#clip100)" d="M1997.19 1544.91 L2013.51 1544.91 L2013.51 1548.85 L1991.57 1548.85 L1991.57 1544.91 Q1994.23 1542.16 1998.81 1537.53 Q2003.42 1532.88 2004.6 1531.53 Q2006.84 1529.01 2007.72 1527.27 Q2008.63 1525.51 2008.63 1523.82 Q2008.63 1521.07 2006.68 1519.33 Q2004.76 1517.6 2001.66 1517.6 Q1999.46 1517.6 1997.01 1518.36 Q1994.57 1519.13 1991.8 1520.68 L1991.8 1515.95 Q1994.62 1514.82 1997.07 1514.24 Q1999.53 1513.66 2001.57 1513.66 Q2006.94 1513.66 2010.13 1516.35 Q2013.32 1519.03 2013.32 1523.52 Q2013.32 1525.65 2012.51 1527.57 Q2011.73 1529.47 2009.62 1532.07 Q2009.04 1532.74 2005.94 1535.95 Q2002.84 1539.15 1997.19 1544.91 Z" fill="#000000" fill-rule="nonzero" fill-opacity="1" /><path clip-path="url(#clip100)" d="M2033.32 1517.37 Q2029.71 1517.37 2027.88 1520.93 Q2026.08 1524.47 2026.08 1531.6 Q2026.08 1538.71 2027.88 1542.27 Q2029.71 1545.82 2033.32 1545.82 Q2036.96 1545.82 2038.76 1542.27 Q2040.59 1538.71 2040.59 1531.6 Q2040.59 1524.47 2038.76 1520.93 Q2036.96 1517.37 2033.32 1517.37 M2033.32 1513.66 Q2039.13 1513.66 2042.19 1518.27 Q2045.27 1522.85 2045.27 1531.6 Q2045.27 1540.33 2042.19 1544.94 Q2039.13 1549.52 2033.32 1549.52 Q2027.51 1549.52 2024.44 1544.94 Q2021.38 1540.33 2021.38 1531.6 Q2021.38 1522.85 2024.44 1518.27 Q2027.51 1513.66 2033.32 1513.66 Z" fill="#000000" fill-rule="nonzero" fill-opacity="1" /><path clip-path="url(#clip100)" d="M2063.49 1517.37 Q2059.88 1517.37 2058.05 1520.93 Q2056.24 1524.47 2056.24 1531.6 Q2056.24 1538.71 2058.05 1542.27 Q2059.88 1545.82 2063.49 1545.82 Q2067.12 1545.82 2068.93 1542.27 Q2070.75 1538.71 2070.75 1531.6 Q2070.75 1524.47 2068.93 1520.93 Q2067.12 1517.37 2063.49 1517.37 M2063.49 1513.66 Q2069.3 1513.66 2072.35 1518.27 Q2075.43 1522.85 2075.43 1531.6 Q2075.43 1540.33 2072.35 1544.94 Q2069.3 1549.52 2063.49 1549.52 Q2057.68 1549.52 2054.6 1544.94 Q2051.54 1540.33 2051.54 1531.6 Q2051.54 1522.85 2054.6 1518.27 Q2057.68 1513.66 2063.49 1513.66 Z" fill="#000000" fill-rule="nonzero" fill-opacity="1" /><polyline clip-path="url(#clip100)" style="stroke:#000000; stroke-linecap:round; stroke-linejoin:round; stroke-width:4; stroke-opacity:1; fill:none" points="229.445,1486.45 229.445,123.472 "/>
<polyline clip-path="url(#clip100)" style="stroke:#000000; stroke-linecap:round; stroke-linejoin:round; stroke-width:4; stroke-opacity:1; fill:none" points="229.445,1486.45 248.343,1486.45 "/>
<polyline clip-path="url(#clip100)" style="stroke:#000000; stroke-linecap:round; stroke-linejoin:round; stroke-width:4; stroke-opacity:1; fill:none" points="229.445,1200.44 248.343,1200.44 "/>
<polyline clip-path="url(#clip100)" style="stroke:#000000; stroke-linecap:round; stroke-linejoin:round; stroke-width:4; stroke-opacity:1; fill:none" points="229.445,914.442 248.343,914.442 "/>
<polyline clip-path="url(#clip100)" style="stroke:#000000; stroke-linecap:round; stroke-linejoin:round; stroke-width:4; stroke-opacity:1; fill:none" points="229.445,628.439 248.343,628.439 "/>
<polyline clip-path="url(#clip100)" style="stroke:#000000; stroke-linecap:round; stroke-linejoin:round; stroke-width:4; stroke-opacity:1; fill:none" points="229.445,342.436 248.343,342.436 "/>
<path clip-path="url(#clip100)" d="M181.501 1472.25 Q177.89 1472.25 176.061 1475.81 Q174.255 1479.35 174.255 1486.48 Q174.255 1493.59 176.061 1497.15 Q177.89 1500.7 181.501 1500.7 Q185.135 1500.7 186.94 1497.15 Q188.769 1493.59 188.769 1486.48 Q188.769 1479.35 186.94 1475.81 Q185.135 1472.25 181.501 1472.25 M181.501 1468.54 Q187.311 1468.54 190.366 1473.15 Q193.445 1477.73 193.445 1486.48 Q193.445 1495.21 190.366 1499.82 Q187.311 1504.4 181.501 1504.4 Q175.691 1504.4 172.612 1499.82 Q169.556 1495.21 169.556 1486.48 Q169.556 1477.73 172.612 1473.15 Q175.691 1468.54 181.501 1468.54 Z" fill="#000000" fill-rule="nonzero" fill-opacity="1" /><path clip-path="url(#clip100)" d="M85.0429 1213.79 L101.362 1213.79 L101.362 1217.72 L79.4179 1217.72 L79.4179 1213.79 Q82.0799 1211.04 86.6632 1206.41 Q91.2697 1201.75 92.4502 1200.41 Q94.6956 1197.89 95.5752 1196.15 Q96.478 1194.39 96.478 1192.7 Q96.478 1189.95 94.5336 1188.21 Q92.6123 1186.48 89.5104 1186.48 Q87.3114 1186.48 84.8577 1187.24 Q82.4271 1188 79.6494 1189.55 L79.6494 1184.83 Q82.4734 1183.7 84.9271 1183.12 Q87.3808 1182.54 89.4178 1182.54 Q94.7882 1182.54 97.9826 1185.23 Q101.177 1187.91 101.177 1192.4 Q101.177 1194.53 100.367 1196.45 Q99.5798 1198.35 97.4734 1200.94 Q96.8947 1201.61 93.7928 1204.83 Q90.691 1208.03 85.0429 1213.79 Z" fill="#000000" fill-rule="nonzero" fill-opacity="1" /><path clip-path="url(#clip100)" d="M111.223 1183.16 L129.58 1183.16 L129.58 1187.1 L115.506 1187.1 L115.506 1195.57 Q116.524 1195.23 117.543 1195.06 Q118.561 1194.88 119.58 1194.88 Q125.367 1194.88 128.746 1198.05 Q132.126 1201.22 132.126 1206.64 Q132.126 1212.22 128.654 1215.32 Q125.182 1218.4 118.862 1218.4 Q116.686 1218.4 114.418 1218.03 Q112.172 1217.66 109.765 1216.91 L109.765 1212.22 Q111.848 1213.35 114.07 1213.91 Q116.293 1214.46 118.77 1214.46 Q122.774 1214.46 125.112 1212.35 Q127.45 1210.25 127.45 1206.64 Q127.45 1203.03 125.112 1200.92 Q122.774 1198.81 118.77 1198.81 Q116.895 1198.81 115.02 1199.23 Q113.168 1199.65 111.223 1200.53 L111.223 1183.16 Z" fill="#000000" fill-rule="nonzero" fill-opacity="1" /><path clip-path="url(#clip100)" d="M151.339 1186.24 Q147.728 1186.24 145.899 1189.81 Q144.093 1193.35 144.093 1200.48 Q144.093 1207.59 145.899 1211.15 Q147.728 1214.69 151.339 1214.69 Q154.973 1214.69 156.779 1211.15 Q158.607 1207.59 158.607 1200.48 Q158.607 1193.35 156.779 1189.81 Q154.973 1186.24 151.339 1186.24 M151.339 1182.54 Q157.149 1182.54 160.205 1187.15 Q163.283 1191.73 163.283 1200.48 Q163.283 1209.21 160.205 1213.81 Q157.149 1218.4 151.339 1218.4 Q145.529 1218.4 142.45 1213.81 Q139.394 1209.21 139.394 1200.48 Q139.394 1191.73 142.45 1187.15 Q145.529 1182.54 151.339 1182.54 Z" fill="#000000" fill-rule="nonzero" fill-opacity="1" /><path clip-path="url(#clip100)" d="M181.501 1186.24 Q177.89 1186.24 176.061 1189.81 Q174.255 1193.35 174.255 1200.48 Q174.255 1207.59 176.061 1211.15 Q177.89 1214.69 181.501 1214.69 Q185.135 1214.69 186.94 1211.15 Q188.769 1207.59 188.769 1200.48 Q188.769 1193.35 186.94 1189.81 Q185.135 1186.24 181.501 1186.24 M181.501 1182.54 Q187.311 1182.54 190.366 1187.15 Q193.445 1191.73 193.445 1200.48 Q193.445 1209.21 190.366 1213.81 Q187.311 1218.4 181.501 1218.4 Q175.691 1218.4 172.612 1213.81 Q169.556 1209.21 169.556 1200.48 Q169.556 1191.73 172.612 1187.15 Q175.691 1182.54 181.501 1182.54 Z" fill="#000000" fill-rule="nonzero" fill-opacity="1" /><path clip-path="url(#clip100)" d="M81.0614 897.162 L99.4178 897.162 L99.4178 901.097 L85.3438 901.097 L85.3438 909.569 Q86.3623 909.222 87.3808 909.06 Q88.3993 908.875 89.4178 908.875 Q95.2049 908.875 98.5845 912.046 Q101.964 915.217 101.964 920.634 Q101.964 926.213 98.4919 929.315 Q95.0197 932.393 88.7003 932.393 Q86.5243 932.393 84.2558 932.023 Q82.0105 931.652 79.6031 930.912 L79.6031 926.213 Q81.6864 927.347 83.9086 927.903 Q86.1308 928.458 88.6077 928.458 Q92.6123 928.458 94.9502 926.352 Q97.2882 924.245 97.2882 920.634 Q97.2882 917.023 94.9502 914.916 Q92.6123 912.81 88.6077 912.81 Q86.7327 912.81 84.8577 913.227 Q83.0058 913.643 81.0614 914.523 L81.0614 897.162 Z" fill="#000000" fill-rule="nonzero" fill-opacity="1" /><path clip-path="url(#clip100)" d="M121.177 900.241 Q117.566 900.241 115.737 903.805 Q113.932 907.347 113.932 914.477 Q113.932 921.583 115.737 925.148 Q117.566 928.69 121.177 928.69 Q124.811 928.69 126.617 925.148 Q128.445 921.583 128.445 914.477 Q128.445 907.347 126.617 903.805 Q124.811 900.241 121.177 900.241 M121.177 896.537 Q126.987 896.537 130.043 901.143 Q133.121 905.727 133.121 914.477 Q133.121 923.203 130.043 927.81 Q126.987 932.393 121.177 932.393 Q115.367 932.393 112.288 927.81 Q109.233 923.203 109.233 914.477 Q109.233 905.727 112.288 901.143 Q115.367 896.537 121.177 896.537 Z" fill="#000000" fill-rule="nonzero" fill-opacity="1" /><path clip-path="url(#clip100)" d="M151.339 900.241 Q147.728 900.241 145.899 903.805 Q144.093 907.347 144.093 914.477 Q144.093 921.583 145.899 925.148 Q147.728 928.69 151.339 928.69 Q154.973 928.69 156.779 925.148 Q158.607 921.583 158.607 914.477 Q158.607 907.347 156.779 903.805 Q154.973 900.241 151.339 900.241 M151.339 896.537 Q157.149 896.537 160.205 901.143 Q163.283 905.727 163.283 914.477 Q163.283 923.203 160.205 927.81 Q157.149 932.393 151.339 932.393 Q145.529 932.393 142.45 927.81 Q139.394 923.203 139.394 914.477 Q139.394 905.727 142.45 901.143 Q145.529 896.537 151.339 896.537 Z" fill="#000000" fill-rule="nonzero" fill-opacity="1" /><path clip-path="url(#clip100)" d="M181.501 900.241 Q177.89 900.241 176.061 903.805 Q174.255 907.347 174.255 914.477 Q174.255 921.583 176.061 925.148 Q177.89 928.69 181.501 928.69 Q185.135 928.69 186.94 925.148 Q188.769 921.583 188.769 914.477 Q188.769 907.347 186.94 903.805 Q185.135 900.241 181.501 900.241 M181.501 896.537 Q187.311 896.537 190.366 901.143 Q193.445 905.727 193.445 914.477 Q193.445 923.203 190.366 927.81 Q187.311 932.393 181.501 932.393 Q175.691 932.393 172.612 927.81 Q169.556 923.203 169.556 914.477 Q169.556 905.727 172.612 901.143 Q175.691 896.537 181.501 896.537 Z" fill="#000000" fill-rule="nonzero" fill-opacity="1" /><path clip-path="url(#clip100)" d="M79.8346 611.159 L102.057 611.159 L102.057 613.15 L89.5104 645.719 L84.6262 645.719 L96.4317 615.094 L79.8346 615.094 L79.8346 611.159 Z" fill="#000000" fill-rule="nonzero" fill-opacity="1" /><path clip-path="url(#clip100)" d="M111.223 611.159 L129.58 611.159 L129.58 615.094 L115.506 615.094 L115.506 623.566 Q116.524 623.219 117.543 623.057 Q118.561 622.872 119.58 622.872 Q125.367 622.872 128.746 626.043 Q132.126 629.214 132.126 634.631 Q132.126 640.21 128.654 643.312 Q125.182 646.39 118.862 646.39 Q116.686 646.39 114.418 646.02 Q112.172 645.65 109.765 644.909 L109.765 640.21 Q111.848 641.344 114.07 641.9 Q116.293 642.455 118.77 642.455 Q122.774 642.455 125.112 640.349 Q127.45 638.242 127.45 634.631 Q127.45 631.02 125.112 628.914 Q122.774 626.807 118.77 626.807 Q116.895 626.807 115.02 627.224 Q113.168 627.64 111.223 628.52 L111.223 611.159 Z" fill="#000000" fill-rule="nonzero" fill-opacity="1" /><path clip-path="url(#clip100)" d="M151.339 614.238 Q147.728 614.238 145.899 617.802 Q144.093 621.344 144.093 628.474 Q144.093 635.58 145.899 639.145 Q147.728 642.687 151.339 642.687 Q154.973 642.687 156.779 639.145 Q158.607 635.58 158.607 628.474 Q158.607 621.344 156.779 617.802 Q154.973 614.238 151.339 614.238 M151.339 610.534 Q157.149 610.534 160.205 615.14 Q163.283 619.724 163.283 628.474 Q163.283 637.2 160.205 641.807 Q157.149 646.39 151.339 646.39 Q145.529 646.39 142.45 641.807 Q139.394 637.2 139.394 628.474 Q139.394 619.724 142.45 615.14 Q145.529 610.534 151.339 610.534 Z" fill="#000000" fill-rule="nonzero" fill-opacity="1" /><path clip-path="url(#clip100)" d="M181.501 614.238 Q177.89 614.238 176.061 617.802 Q174.255 621.344 174.255 628.474 Q174.255 635.58 176.061 639.145 Q177.89 642.687 181.501 642.687 Q185.135 642.687 186.94 639.145 Q188.769 635.58 188.769 628.474 Q188.769 621.344 186.94 617.802 Q185.135 614.238 181.501 614.238 M181.501 610.534 Q187.311 610.534 190.366 615.14 Q193.445 619.724 193.445 628.474 Q193.445 637.2 190.366 641.807 Q187.311 646.39 181.501 646.39 Q175.691 646.39 172.612 641.807 Q169.556 637.2 169.556 628.474 Q169.556 619.724 172.612 615.14 Q175.691 610.534 181.501 610.534 Z" fill="#000000" fill-rule="nonzero" fill-opacity="1" /><path clip-path="url(#clip100)" d="M51.6634 355.781 L59.3023 355.781 L59.3023 329.415 L50.9921 331.082 L50.9921 326.823 L59.256 325.156 L63.9319 325.156 L63.9319 355.781 L71.5707 355.781 L71.5707 359.716 L51.6634 359.716 L51.6634 355.781 Z" fill="#000000" fill-rule="nonzero" fill-opacity="1" /><path clip-path="url(#clip100)" d="M91.0151 328.235 Q87.404 328.235 85.5753 331.799 Q83.7697 335.341 83.7697 342.471 Q83.7697 349.577 85.5753 353.142 Q87.404 356.684 91.0151 356.684 Q94.6493 356.684 96.4548 353.142 Q98.2835 349.577 98.2835 342.471 Q98.2835 335.341 96.4548 331.799 Q94.6493 328.235 91.0151 328.235 M91.0151 324.531 Q96.8252 324.531 99.8808 329.137 Q102.959 333.721 102.959 342.471 Q102.959 351.198 99.8808 355.804 Q96.8252 360.387 91.0151 360.387 Q85.2049 360.387 82.1262 355.804 Q79.0707 351.198 79.0707 342.471 Q79.0707 333.721 82.1262 329.137 Q85.2049 324.531 91.0151 324.531 Z" fill="#000000" fill-rule="nonzero" fill-opacity="1" /><path clip-path="url(#clip100)" d="M121.177 328.235 Q117.566 328.235 115.737 331.799 Q113.932 335.341 113.932 342.471 Q113.932 349.577 115.737 353.142 Q117.566 356.684 121.177 356.684 Q124.811 356.684 126.617 353.142 Q128.445 349.577 128.445 342.471 Q128.445 335.341 126.617 331.799 Q124.811 328.235 121.177 328.235 M121.177 324.531 Q126.987 324.531 130.043 329.137 Q133.121 333.721 133.121 342.471 Q133.121 351.198 130.043 355.804 Q126.987 360.387 121.177 360.387 Q115.367 360.387 112.288 355.804 Q109.233 351.198 109.233 342.471 Q109.233 333.721 112.288 329.137 Q115.367 324.531 121.177 324.531 Z" fill="#000000" fill-rule="nonzero" fill-opacity="1" /><path clip-path="url(#clip100)" d="M151.339 328.235 Q147.728 328.235 145.899 331.799 Q144.093 335.341 144.093 342.471 Q144.093 349.577 145.899 353.142 Q147.728 356.684 151.339 356.684 Q154.973 356.684 156.779 353.142 Q158.607 349.577 158.607 342.471 Q158.607 335.341 156.779 331.799 Q154.973 328.235 151.339 328.235 M151.339 324.531 Q157.149 324.531 160.205 329.137 Q163.283 333.721 163.283 342.471 Q163.283 351.198 160.205 355.804 Q157.149 360.387 151.339 360.387 Q145.529 360.387 142.45 355.804 Q139.394 351.198 139.394 342.471 Q139.394 333.721 142.45 329.137 Q145.529 324.531 151.339 324.531 Z" fill="#000000" fill-rule="nonzero" fill-opacity="1" /><path clip-path="url(#clip100)" d="M181.501 328.235 Q177.89 328.235 176.061 331.799 Q174.255 335.341 174.255 342.471 Q174.255 349.577 176.061 353.142 Q177.89 356.684 181.501 356.684 Q185.135 356.684 186.94 353.142 Q188.769 349.577 188.769 342.471 Q188.769 335.341 186.94 331.799 Q185.135 328.235 181.501 328.235 M181.501 324.531 Q187.311 324.531 190.366 329.137 Q193.445 333.721 193.445 342.471 Q193.445 351.198 190.366 355.804 Q187.311 360.387 181.501 360.387 Q175.691 360.387 172.612 355.804 Q169.556 351.198 169.556 342.471 Q169.556 333.721 172.612 329.137 Q175.691 324.531 181.501 324.531 Z" fill="#000000" fill-rule="nonzero" fill-opacity="1" /><path clip-path="url(#clip100)" d="M927.532 12.096 L938.55 12.096 L965.367 62.6918 L965.367 12.096 L973.307 12.096 L973.307 72.576 L962.289 72.576 L935.472 21.9802 L935.472 72.576 L927.532 72.576 L927.532 12.096 Z" fill="#000000" fill-rule="nonzero" fill-opacity="1" /><path clip-path="url(#clip100)" d="M1006.85 32.4315 Q1000.85 32.4315 997.369 37.1306 Q993.886 41.7891 993.886 49.9314 Q993.886 58.0738 997.329 62.7728 Q1000.81 67.4314 1006.85 67.4314 Q1012.8 67.4314 1016.29 62.7323 Q1019.77 58.0333 1019.77 49.9314 Q1019.77 41.8701 1016.29 37.1711 Q1012.8 32.4315 1006.85 32.4315 M1006.85 26.1121 Q1016.57 26.1121 1022.12 32.4315 Q1027.67 38.7509 1027.67 49.9314 Q1027.67 61.0714 1022.12 67.4314 Q1016.57 73.7508 1006.85 73.7508 Q997.086 73.7508 991.536 67.4314 Q986.027 61.0714 986.027 49.9314 Q986.027 38.7509 991.536 32.4315 Q997.086 26.1121 1006.85 26.1121 Z" fill="#000000" fill-rule="nonzero" fill-opacity="1" /><path clip-path="url(#clip100)" d="M1077.74 45.1919 L1077.74 72.576 L1070.29 72.576 L1070.29 45.4349 Q1070.29 38.994 1067.77 35.7938 Q1065.26 32.5936 1060.24 32.5936 Q1054.2 32.5936 1050.72 36.4419 Q1047.24 40.2903 1047.24 46.9338 L1047.24 72.576 L1039.74 72.576 L1039.74 27.2059 L1047.24 27.2059 L1047.24 34.2544 Q1049.91 30.163 1053.51 28.1376 Q1057.16 26.1121 1061.9 26.1121 Q1069.72 26.1121 1073.73 30.9732 Q1077.74 35.7938 1077.74 45.1919 Z" fill="#000000" fill-rule="nonzero" fill-opacity="1" /><path clip-path="url(#clip100)" d="M1088.84 46.5287 L1110.67 46.5287 L1110.67 53.1722 L1088.84 53.1722 L1088.84 46.5287 Z" fill="#000000" fill-rule="nonzero" fill-opacity="1" /><path clip-path="url(#clip100)" d="M1122.54 27.2059 L1130 27.2059 L1130 72.576 L1122.54 72.576 L1122.54 27.2059 M1122.54 9.54393 L1130 9.54393 L1130 18.9825 L1122.54 18.9825 L1122.54 9.54393 Z" fill="#000000" fill-rule="nonzero" fill-opacity="1" /><path clip-path="url(#clip100)" d="M1174.52 28.5427 L1174.52 35.5912 Q1171.36 33.9709 1167.95 33.1607 Q1164.55 32.3505 1160.9 32.3505 Q1155.35 32.3505 1152.56 34.0519 Q1149.8 35.7533 1149.8 39.156 Q1149.8 41.7486 1151.79 43.2475 Q1153.77 44.7058 1159.77 46.0426 L1162.32 46.6097 Q1170.26 48.3111 1173.58 51.4303 Q1176.95 54.509 1176.95 60.0587 Q1176.95 66.3781 1171.92 70.0644 Q1166.94 73.7508 1158.19 73.7508 Q1154.54 73.7508 1150.57 73.0216 Q1146.65 72.3329 1142.27 70.9151 L1142.27 63.2184 Q1146.4 65.3654 1150.41 66.4591 Q1154.42 67.5124 1158.35 67.5124 Q1163.62 67.5124 1166.45 65.73 Q1169.29 63.9071 1169.29 60.6258 Q1169.29 57.5877 1167.22 55.9673 Q1165.2 54.3469 1158.27 52.8481 L1155.68 52.2405 Q1148.75 50.7821 1145.67 47.7845 Q1142.59 44.7463 1142.59 39.4801 Q1142.59 33.0797 1147.13 29.5959 Q1151.67 26.1121 1160.01 26.1121 Q1164.15 26.1121 1167.79 26.7198 Q1171.44 27.3274 1174.52 28.5427 Z" fill="#000000" fill-rule="nonzero" fill-opacity="1" /><path clip-path="url(#clip100)" d="M1206.4 32.4315 Q1200.4 32.4315 1196.92 37.1306 Q1193.43 41.7891 1193.43 49.9314 Q1193.43 58.0738 1196.88 62.7728 Q1200.36 67.4314 1206.4 67.4314 Q1212.35 67.4314 1215.83 62.7323 Q1219.32 58.0333 1219.32 49.9314 Q1219.32 41.8701 1215.83 37.1711 Q1212.35 32.4315 1206.4 32.4315 M1206.4 26.1121 Q1216.12 26.1121 1221.67 32.4315 Q1227.22 38.7509 1227.22 49.9314 Q1227.22 61.0714 1221.67 67.4314 Q1216.12 73.7508 1206.4 73.7508 Q1196.63 73.7508 1191.08 67.4314 Q1185.57 61.0714 1185.57 49.9314 Q1185.57 38.7509 1191.08 32.4315 Q1196.63 26.1121 1206.4 26.1121 Z" fill="#000000" fill-rule="nonzero" fill-opacity="1" /><path clip-path="url(#clip100)" d="M1246.95 14.324 L1246.95 27.2059 L1262.3 27.2059 L1262.3 32.9987 L1246.95 32.9987 L1246.95 57.6282 Q1246.95 63.1779 1248.44 64.7578 Q1249.98 66.3376 1254.64 66.3376 L1262.3 66.3376 L1262.3 72.576 L1254.64 72.576 Q1246.01 72.576 1242.73 69.3758 Q1239.45 66.1351 1239.45 57.6282 L1239.45 32.9987 L1233.98 32.9987 L1233.98 27.2059 L1239.45 27.2059 L1239.45 14.324 L1246.95 14.324 Z" fill="#000000" fill-rule="nonzero" fill-opacity="1" /><path clip-path="url(#clip100)" d="M1298.39 34.1734 Q1297.14 33.4443 1295.64 33.1202 Q1294.18 32.7556 1292.4 32.7556 Q1286.08 32.7556 1282.67 36.8875 Q1279.31 40.9789 1279.31 48.6757 L1279.31 72.576 L1271.82 72.576 L1271.82 27.2059 L1279.31 27.2059 L1279.31 34.2544 Q1281.66 30.1225 1285.43 28.1376 Q1289.2 26.1121 1294.58 26.1121 Q1295.35 26.1121 1296.29 26.2337 Q1297.22 26.3147 1298.35 26.5172 L1298.39 34.1734 Z" fill="#000000" fill-rule="nonzero" fill-opacity="1" /><path clip-path="url(#clip100)" d="M1321.97 32.4315 Q1315.97 32.4315 1312.49 37.1306 Q1309.01 41.7891 1309.01 49.9314 Q1309.01 58.0738 1312.45 62.7728 Q1315.93 67.4314 1321.97 67.4314 Q1327.92 67.4314 1331.41 62.7323 Q1334.89 58.0333 1334.89 49.9314 Q1334.89 41.8701 1331.41 37.1711 Q1327.92 32.4315 1321.97 32.4315 M1321.97 26.1121 Q1331.69 26.1121 1337.24 32.4315 Q1342.79 38.7509 1342.79 49.9314 Q1342.79 61.0714 1337.24 67.4314 Q1331.69 73.7508 1321.97 73.7508 Q1312.21 73.7508 1306.66 67.4314 Q1301.15 61.0714 1301.15 49.9314 Q1301.15 38.7509 1306.66 32.4315 Q1312.21 26.1121 1321.97 26.1121 Z" fill="#000000" fill-rule="nonzero" fill-opacity="1" /><path clip-path="url(#clip100)" d="M1362.36 65.7705 L1362.36 89.8329 L1354.86 89.8329 L1354.86 27.2059 L1362.36 27.2059 L1362.36 34.0924 Q1364.71 30.0415 1368.27 28.0971 Q1371.88 26.1121 1376.86 26.1121 Q1385.12 26.1121 1390.27 32.6746 Q1395.45 39.2371 1395.45 49.9314 Q1395.45 60.6258 1390.27 67.1883 Q1385.12 73.7508 1376.86 73.7508 Q1371.88 73.7508 1368.27 71.8063 Q1364.71 69.8214 1362.36 65.7705 M1387.71 49.9314 Q1387.71 41.7081 1384.31 37.0496 Q1380.95 32.3505 1375.04 32.3505 Q1369.12 32.3505 1365.72 37.0496 Q1362.36 41.7081 1362.36 49.9314 Q1362.36 58.1548 1365.72 62.8538 Q1369.12 67.5124 1375.04 67.5124 Q1380.95 67.5124 1384.31 62.8538 Q1387.71 58.1548 1387.71 49.9314 Z" fill="#000000" fill-rule="nonzero" fill-opacity="1" /><path clip-path="url(#clip100)" d="M1407.81 27.2059 L1415.26 27.2059 L1415.26 72.576 L1407.81 72.576 L1407.81 27.2059 M1407.81 9.54393 L1415.26 9.54393 L1415.26 18.9825 L1407.81 18.9825 L1407.81 9.54393 Z" fill="#000000" fill-rule="nonzero" fill-opacity="1" /><path clip-path="url(#clip100)" d="M1463.51 28.9478 L1463.51 35.9153 Q1460.35 34.1734 1457.15 33.3227 Q1453.99 32.4315 1450.75 32.4315 Q1443.5 32.4315 1439.49 37.0496 Q1435.47 41.6271 1435.47 49.9314 Q1435.47 58.2358 1439.49 62.8538 Q1443.5 67.4314 1450.75 67.4314 Q1453.99 67.4314 1457.15 66.5807 Q1460.35 65.6895 1463.51 63.9476 L1463.51 70.8341 Q1460.39 72.2924 1457.03 73.0216 Q1453.7 73.7508 1449.94 73.7508 Q1439.69 73.7508 1433.65 67.3098 Q1427.62 60.8689 1427.62 49.9314 Q1427.62 38.832 1433.69 32.472 Q1439.81 26.1121 1450.42 26.1121 Q1453.87 26.1121 1457.15 26.8413 Q1460.43 27.5299 1463.51 28.9478 Z" fill="#000000" fill-rule="nonzero" fill-opacity="1" /><path clip-path="url(#clip100)" d="M1514.18 45.1919 L1514.18 72.576 L1506.73 72.576 L1506.73 45.4349 Q1506.73 38.994 1504.22 35.7938 Q1501.71 32.5936 1496.68 32.5936 Q1490.65 32.5936 1487.16 36.4419 Q1483.68 40.2903 1483.68 46.9338 L1483.68 72.576 L1476.19 72.576 L1476.19 27.2059 L1483.68 27.2059 L1483.68 34.2544 Q1486.35 30.163 1489.96 28.1376 Q1493.61 26.1121 1498.34 26.1121 Q1506.16 26.1121 1510.17 30.9732 Q1514.18 35.7938 1514.18 45.1919 Z" fill="#000000" fill-rule="nonzero" fill-opacity="1" /><path clip-path="url(#clip100)" d="M1567.86 48.0275 L1567.86 51.6733 L1533.59 51.6733 Q1534.07 59.3701 1538.21 63.421 Q1542.38 67.4314 1549.79 67.4314 Q1554.09 67.4314 1558.1 66.3781 Q1562.15 65.3249 1566.12 63.2184 L1566.12 70.267 Q1562.11 71.9684 1557.89 72.8596 Q1553.68 73.7508 1549.35 73.7508 Q1538.49 73.7508 1532.13 67.4314 Q1525.81 61.1119 1525.81 50.3365 Q1525.81 39.1965 1531.81 32.6746 Q1537.84 26.1121 1548.05 26.1121 Q1557.2 26.1121 1562.51 32.0264 Q1567.86 37.9003 1567.86 48.0275 M1560.4 45.84 Q1560.32 39.7232 1556.96 36.0774 Q1553.64 32.4315 1548.13 32.4315 Q1541.89 32.4315 1538.12 35.9558 Q1534.4 39.4801 1533.83 45.8805 L1560.4 45.84 Z" fill="#000000" fill-rule="nonzero" fill-opacity="1" /><path clip-path="url(#clip100)" d="M1609.02 28.5427 L1609.02 35.5912 Q1605.86 33.9709 1602.45 33.1607 Q1599.05 32.3505 1595.4 32.3505 Q1589.85 32.3505 1587.06 34.0519 Q1584.3 35.7533 1584.3 39.156 Q1584.3 41.7486 1586.29 43.2475 Q1588.27 44.7058 1594.27 46.0426 L1596.82 46.6097 Q1604.76 48.3111 1608.08 51.4303 Q1611.45 54.509 1611.45 60.0587 Q1611.45 66.3781 1606.42 70.0644 Q1601.44 73.7508 1592.69 73.7508 Q1589.04 73.7508 1585.07 73.0216 Q1581.15 72.3329 1576.77 70.9151 L1576.77 63.2184 Q1580.9 65.3654 1584.91 66.4591 Q1588.92 67.5124 1592.85 67.5124 Q1598.12 67.5124 1600.95 65.73 Q1603.79 63.9071 1603.79 60.6258 Q1603.79 57.5877 1601.72 55.9673 Q1599.7 54.3469 1592.77 52.8481 L1590.18 52.2405 Q1583.25 50.7821 1580.17 47.7845 Q1577.09 44.7463 1577.09 39.4801 Q1577.09 33.0797 1581.63 29.5959 Q1586.17 26.1121 1594.51 26.1121 Q1598.65 26.1121 1602.29 26.7198 Q1605.94 27.3274 1609.02 28.5427 Z" fill="#000000" fill-rule="nonzero" fill-opacity="1" /><path clip-path="url(#clip100)" d="M1652.24 28.5427 L1652.24 35.5912 Q1649.08 33.9709 1645.68 33.1607 Q1642.27 32.3505 1638.63 32.3505 Q1633.08 32.3505 1630.28 34.0519 Q1627.53 35.7533 1627.53 39.156 Q1627.53 41.7486 1629.51 43.2475 Q1631.5 44.7058 1637.49 46.0426 L1640.05 46.6097 Q1647.99 48.3111 1651.31 51.4303 Q1654.67 54.509 1654.67 60.0587 Q1654.67 66.3781 1649.65 70.0644 Q1644.66 73.7508 1635.91 73.7508 Q1632.27 73.7508 1628.3 73.0216 Q1624.37 72.3329 1619.99 70.9151 L1619.99 63.2184 Q1624.13 65.3654 1628.14 66.4591 Q1632.15 67.5124 1636.08 67.5124 Q1641.34 67.5124 1644.18 65.73 Q1647.01 63.9071 1647.01 60.6258 Q1647.01 57.5877 1644.95 55.9673 Q1642.92 54.3469 1635.99 52.8481 L1633.4 52.2405 Q1626.47 50.7821 1623.4 47.7845 Q1620.32 44.7463 1620.32 39.4801 Q1620.32 33.0797 1624.85 29.5959 Q1629.39 26.1121 1637.74 26.1121 Q1641.87 26.1121 1645.51 26.7198 Q1649.16 27.3274 1652.24 28.5427 Z" fill="#000000" fill-rule="nonzero" fill-opacity="1" /><path clip-path="url(#clip102)" d="M346.231 123.472 L346.231 1486.45 L363.104 1486.45 L363.104 123.472 L346.231 123.472 L346.231 123.472  Z" fill="#009af9" fill-rule="evenodd" fill-opacity="1"/>
<polyline clip-path="url(#clip102)" style="stroke:#000000; stroke-linecap:round; stroke-linejoin:round; stroke-width:4; stroke-opacity:1; fill:none" points="346.231,123.472 346.231,1486.45 363.104,1486.45 363.104,123.472 346.231,123.472 "/>
<path clip-path="url(#clip102)" d="M363.104 1151.02 L363.104 1486.45 L379.976 1486.45 L379.976 1151.02 L363.104 1151.02 L363.104 1151.02  Z" fill="#009af9" fill-rule="evenodd" fill-opacity="1"/>
<polyline clip-path="url(#clip102)" style="stroke:#000000; stroke-linecap:round; stroke-linejoin:round; stroke-width:4; stroke-opacity:1; fill:none" points="363.104,1151.02 363.104,1486.45 379.976,1486.45 379.976,1151.02 363.104,1151.02 "/>
<path clip-path="url(#clip102)" d="M379.976 1206.74 L379.976 1486.45 L396.849 1486.45 L396.849 1206.74 L379.976 1206.74 L379.976 1206.74  Z" fill="#009af9" fill-rule="evenodd" fill-opacity="1"/>
<polyline clip-path="url(#clip102)" style="stroke:#000000; stroke-linecap:round; stroke-linejoin:round; stroke-width:4; stroke-opacity:1; fill:none" points="379.976,1206.74 379.976,1486.45 396.849,1486.45 396.849,1206.74 379.976,1206.74 "/>
<path clip-path="url(#clip102)" d="M396.849 1259.93 L396.849 1486.45 L413.722 1486.45 L413.722 1259.93 L396.849 1259.93 L396.849 1259.93  Z" fill="#009af9" fill-rule="evenodd" fill-opacity="1"/>
<polyline clip-path="url(#clip102)" style="stroke:#000000; stroke-linecap:round; stroke-linejoin:round; stroke-width:4; stroke-opacity:1; fill:none" points="396.849,1259.93 396.849,1486.45 413.722,1486.45 413.722,1259.93 396.849,1259.93 "/>
<path clip-path="url(#clip102)" d="M413.722 1291.28 L413.722 1486.45 L430.594 1486.45 L430.594 1291.28 L413.722 1291.28 L413.722 1291.28  Z" fill="#009af9" fill-rule="evenodd" fill-opacity="1"/>
<polyline clip-path="url(#clip102)" style="stroke:#000000; stroke-linecap:round; stroke-linejoin:round; stroke-width:4; stroke-opacity:1; fill:none" points="413.722,1291.28 413.722,1486.45 430.594,1486.45 430.594,1291.28 413.722,1291.28 "/>
<path clip-path="url(#clip102)" d="M430.594 1313.82 L430.594 1486.45 L447.467 1486.45 L447.467 1313.82 L430.594 1313.82 L430.594 1313.82  Z" fill="#009af9" fill-rule="evenodd" fill-opacity="1"/>
<polyline clip-path="url(#clip102)" style="stroke:#000000; stroke-linecap:round; stroke-linejoin:round; stroke-width:4; stroke-opacity:1; fill:none" points="430.594,1313.82 430.594,1486.45 447.467,1486.45 447.467,1313.82 430.594,1313.82 "/>
<path clip-path="url(#clip102)" d="M447.467 1323.31 L447.467 1486.45 L464.34 1486.45 L464.34 1323.31 L447.467 1323.31 L447.467 1323.31  Z" fill="#009af9" fill-rule="evenodd" fill-opacity="1"/>
<polyline clip-path="url(#clip102)" style="stroke:#000000; stroke-linecap:round; stroke-linejoin:round; stroke-width:4; stroke-opacity:1; fill:none" points="447.467,1323.31 447.467,1486.45 464.34,1486.45 464.34,1323.31 447.467,1323.31 "/>
<path clip-path="url(#clip102)" d="M464.34 1329.6 L464.34 1486.45 L481.212 1486.45 L481.212 1329.6 L464.34 1329.6 L464.34 1329.6  Z" fill="#009af9" fill-rule="evenodd" fill-opacity="1"/>
<polyline clip-path="url(#clip102)" style="stroke:#000000; stroke-linecap:round; stroke-linejoin:round; stroke-width:4; stroke-opacity:1; fill:none" points="464.34,1329.6 464.34,1486.45 481.212,1486.45 481.212,1329.6 464.34,1329.6 "/>
<path clip-path="url(#clip102)" d="M481.212 1336.93 L481.212 1486.45 L498.085 1486.45 L498.085 1336.93 L481.212 1336.93 L481.212 1336.93  Z" fill="#009af9" fill-rule="evenodd" fill-opacity="1"/>
<polyline clip-path="url(#clip102)" style="stroke:#000000; stroke-linecap:round; stroke-linejoin:round; stroke-width:4; stroke-opacity:1; fill:none" points="481.212,1336.93 481.212,1486.45 498.085,1486.45 498.085,1336.93 481.212,1336.93 "/>
<path clip-path="url(#clip102)" d="M498.085 1341.96 L498.085 1486.45 L514.958 1486.45 L514.958 1341.96 L498.085 1341.96 L498.085 1341.96  Z" fill="#009af9" fill-rule="evenodd" fill-opacity="1"/>
<polyline clip-path="url(#clip102)" style="stroke:#000000; stroke-linecap:round; stroke-linejoin:round; stroke-width:4; stroke-opacity:1; fill:none" points="498.085,1341.96 498.085,1486.45 514.958,1486.45 514.958,1341.96 498.085,1341.96 "/>
<path clip-path="url(#clip102)" d="M514.958 1340.93 L514.958 1486.45 L531.83 1486.45 L531.83 1340.93 L514.958 1340.93 L514.958 1340.93  Z" fill="#009af9" fill-rule="evenodd" fill-opacity="1"/>
<polyline clip-path="url(#clip102)" style="stroke:#000000; stroke-linecap:round; stroke-linejoin:round; stroke-width:4; stroke-opacity:1; fill:none" points="514.958,1340.93 514.958,1486.45 531.83,1486.45 531.83,1340.93 514.958,1340.93 "/>
<path clip-path="url(#clip102)" d="M531.83 1346.54 L531.83 1486.45 L548.703 1486.45 L548.703 1346.54 L531.83 1346.54 L531.83 1346.54  Z" fill="#009af9" fill-rule="evenodd" fill-opacity="1"/>
<polyline clip-path="url(#clip102)" style="stroke:#000000; stroke-linecap:round; stroke-linejoin:round; stroke-width:4; stroke-opacity:1; fill:none" points="531.83,1346.54 531.83,1486.45 548.703,1486.45 548.703,1346.54 531.83,1346.54 "/>
<path clip-path="url(#clip102)" d="M548.703 1345.39 L548.703 1486.45 L565.576 1486.45 L565.576 1345.39 L548.703 1345.39 L548.703 1345.39  Z" fill="#009af9" fill-rule="evenodd" fill-opacity="1"/>
<polyline clip-path="url(#clip102)" style="stroke:#000000; stroke-linecap:round; stroke-linejoin:round; stroke-width:4; stroke-opacity:1; fill:none" points="548.703,1345.39 548.703,1486.45 565.576,1486.45 565.576,1345.39 548.703,1345.39 "/>
<path clip-path="url(#clip102)" d="M565.576 1347.45 L565.576 1486.45 L582.448 1486.45 L582.448 1347.45 L565.576 1347.45 L565.576 1347.45  Z" fill="#009af9" fill-rule="evenodd" fill-opacity="1"/>
<polyline clip-path="url(#clip102)" style="stroke:#000000; stroke-linecap:round; stroke-linejoin:round; stroke-width:4; stroke-opacity:1; fill:none" points="565.576,1347.45 565.576,1486.45 582.448,1486.45 582.448,1347.45 565.576,1347.45 "/>
<path clip-path="url(#clip102)" d="M582.448 1344.02 L582.448 1486.45 L599.321 1486.45 L599.321 1344.02 L582.448 1344.02 L582.448 1344.02  Z" fill="#009af9" fill-rule="evenodd" fill-opacity="1"/>
<polyline clip-path="url(#clip102)" style="stroke:#000000; stroke-linecap:round; stroke-linejoin:round; stroke-width:4; stroke-opacity:1; fill:none" points="582.448,1344.02 582.448,1486.45 599.321,1486.45 599.321,1344.02 582.448,1344.02 "/>
<path clip-path="url(#clip102)" d="M599.321 1346.65 L599.321 1486.45 L616.194 1486.45 L616.194 1346.65 L599.321 1346.65 L599.321 1346.65  Z" fill="#009af9" fill-rule="evenodd" fill-opacity="1"/>
<polyline clip-path="url(#clip102)" style="stroke:#000000; stroke-linecap:round; stroke-linejoin:round; stroke-width:4; stroke-opacity:1; fill:none" points="599.321,1346.65 599.321,1486.45 616.194,1486.45 616.194,1346.65 599.321,1346.65 "/>
<path clip-path="url(#clip102)" d="M616.194 1355.8 L616.194 1486.45 L633.066 1486.45 L633.066 1355.8 L616.194 1355.8 L616.194 1355.8  Z" fill="#009af9" fill-rule="evenodd" fill-opacity="1"/>
<polyline clip-path="url(#clip102)" style="stroke:#000000; stroke-linecap:round; stroke-linejoin:round; stroke-width:4; stroke-opacity:1; fill:none" points="616.194,1355.8 616.194,1486.45 633.066,1486.45 633.066,1355.8 616.194,1355.8 "/>
<path clip-path="url(#clip102)" d="M633.066 1359.12 L633.066 1486.45 L649.939 1486.45 L649.939 1359.12 L633.066 1359.12 L633.066 1359.12  Z" fill="#009af9" fill-rule="evenodd" fill-opacity="1"/>
<polyline clip-path="url(#clip102)" style="stroke:#000000; stroke-linecap:round; stroke-linejoin:round; stroke-width:4; stroke-opacity:1; fill:none" points="633.066,1359.12 633.066,1486.45 649.939,1486.45 649.939,1359.12 633.066,1359.12 "/>
<path clip-path="url(#clip102)" d="M649.939 1359.92 L649.939 1486.45 L666.812 1486.45 L666.812 1359.92 L649.939 1359.92 L649.939 1359.92  Z" fill="#009af9" fill-rule="evenodd" fill-opacity="1"/>
<polyline clip-path="url(#clip102)" style="stroke:#000000; stroke-linecap:round; stroke-linejoin:round; stroke-width:4; stroke-opacity:1; fill:none" points="649.939,1359.92 649.939,1486.45 666.812,1486.45 666.812,1359.92 649.939,1359.92 "/>
<path clip-path="url(#clip102)" d="M666.812 1362.09 L666.812 1486.45 L683.684 1486.45 L683.684 1362.09 L666.812 1362.09 L666.812 1362.09  Z" fill="#009af9" fill-rule="evenodd" fill-opacity="1"/>
<polyline clip-path="url(#clip102)" style="stroke:#000000; stroke-linecap:round; stroke-linejoin:round; stroke-width:4; stroke-opacity:1; fill:none" points="666.812,1362.09 666.812,1486.45 683.684,1486.45 683.684,1362.09 666.812,1362.09 "/>
<path clip-path="url(#clip102)" d="M683.684 1365.07 L683.684 1486.45 L700.557 1486.45 L700.557 1365.07 L683.684 1365.07 L683.684 1365.07  Z" fill="#009af9" fill-rule="evenodd" fill-opacity="1"/>
<polyline clip-path="url(#clip102)" style="stroke:#000000; stroke-linecap:round; stroke-linejoin:round; stroke-width:4; stroke-opacity:1; fill:none" points="683.684,1365.07 683.684,1486.45 700.557,1486.45 700.557,1365.07 683.684,1365.07 "/>
<path clip-path="url(#clip102)" d="M700.557 1371.7 L700.557 1486.45 L717.43 1486.45 L717.43 1371.7 L700.557 1371.7 L700.557 1371.7  Z" fill="#009af9" fill-rule="evenodd" fill-opacity="1"/>
<polyline clip-path="url(#clip102)" style="stroke:#000000; stroke-linecap:round; stroke-linejoin:round; stroke-width:4; stroke-opacity:1; fill:none" points="700.557,1371.7 700.557,1486.45 717.43,1486.45 717.43,1371.7 700.557,1371.7 "/>
<path clip-path="url(#clip102)" d="M717.43 1366.78 L717.43 1486.45 L734.302 1486.45 L734.302 1366.78 L717.43 1366.78 L717.43 1366.78  Z" fill="#009af9" fill-rule="evenodd" fill-opacity="1"/>
<polyline clip-path="url(#clip102)" style="stroke:#000000; stroke-linecap:round; stroke-linejoin:round; stroke-width:4; stroke-opacity:1; fill:none" points="717.43,1366.78 717.43,1486.45 734.302,1486.45 734.302,1366.78 717.43,1366.78 "/>
<path clip-path="url(#clip102)" d="M734.302 1368.73 L734.302 1486.45 L751.175 1486.45 L751.175 1368.73 L734.302 1368.73 L734.302 1368.73  Z" fill="#009af9" fill-rule="evenodd" fill-opacity="1"/>
<polyline clip-path="url(#clip102)" style="stroke:#000000; stroke-linecap:round; stroke-linejoin:round; stroke-width:4; stroke-opacity:1; fill:none" points="734.302,1368.73 734.302,1486.45 751.175,1486.45 751.175,1368.73 734.302,1368.73 "/>
<path clip-path="url(#clip102)" d="M751.175 1372.39 L751.175 1486.45 L768.048 1486.45 L768.048 1372.39 L751.175 1372.39 L751.175 1372.39  Z" fill="#009af9" fill-rule="evenodd" fill-opacity="1"/>
<polyline clip-path="url(#clip102)" style="stroke:#000000; stroke-linecap:round; stroke-linejoin:round; stroke-width:4; stroke-opacity:1; fill:none" points="751.175,1372.39 751.175,1486.45 768.048,1486.45 768.048,1372.39 751.175,1372.39 "/>
<path clip-path="url(#clip102)" d="M768.048 1380.86 L768.048 1486.45 L784.92 1486.45 L784.92 1380.86 L768.048 1380.86 L768.048 1380.86  Z" fill="#009af9" fill-rule="evenodd" fill-opacity="1"/>
<polyline clip-path="url(#clip102)" style="stroke:#000000; stroke-linecap:round; stroke-linejoin:round; stroke-width:4; stroke-opacity:1; fill:none" points="768.048,1380.86 768.048,1486.45 784.92,1486.45 784.92,1380.86 768.048,1380.86 "/>
<path clip-path="url(#clip102)" d="M784.92 1374.56 L784.92 1486.45 L801.793 1486.45 L801.793 1374.56 L784.92 1374.56 L784.92 1374.56  Z" fill="#009af9" fill-rule="evenodd" fill-opacity="1"/>
<polyline clip-path="url(#clip102)" style="stroke:#000000; stroke-linecap:round; stroke-linejoin:round; stroke-width:4; stroke-opacity:1; fill:none" points="784.92,1374.56 784.92,1486.45 801.793,1486.45 801.793,1374.56 784.92,1374.56 "/>
<path clip-path="url(#clip102)" d="M801.793 1380.05 L801.793 1486.45 L818.666 1486.45 L818.666 1380.05 L801.793 1380.05 L801.793 1380.05  Z" fill="#009af9" fill-rule="evenodd" fill-opacity="1"/>
<polyline clip-path="url(#clip102)" style="stroke:#000000; stroke-linecap:round; stroke-linejoin:round; stroke-width:4; stroke-opacity:1; fill:none" points="801.793,1380.05 801.793,1486.45 818.666,1486.45 818.666,1380.05 801.793,1380.05 "/>
<path clip-path="url(#clip102)" d="M818.666 1378.68 L818.666 1486.45 L835.538 1486.45 L835.538 1378.68 L818.666 1378.68 L818.666 1378.68  Z" fill="#009af9" fill-rule="evenodd" fill-opacity="1"/>
<polyline clip-path="url(#clip102)" style="stroke:#000000; stroke-linecap:round; stroke-linejoin:round; stroke-width:4; stroke-opacity:1; fill:none" points="818.666,1378.68 818.666,1486.45 835.538,1486.45 835.538,1378.68 818.666,1378.68 "/>
<path clip-path="url(#clip102)" d="M835.538 1384.17 L835.538 1486.45 L852.411 1486.45 L852.411 1384.17 L835.538 1384.17 L835.538 1384.17  Z" fill="#009af9" fill-rule="evenodd" fill-opacity="1"/>
<polyline clip-path="url(#clip102)" style="stroke:#000000; stroke-linecap:round; stroke-linejoin:round; stroke-width:4; stroke-opacity:1; fill:none" points="835.538,1384.17 835.538,1486.45 852.411,1486.45 852.411,1384.17 835.538,1384.17 "/>
<path clip-path="url(#clip102)" d="M852.411 1381.2 L852.411 1486.45 L869.284 1486.45 L869.284 1381.2 L852.411 1381.2 L852.411 1381.2  Z" fill="#009af9" fill-rule="evenodd" fill-opacity="1"/>
<polyline clip-path="url(#clip102)" style="stroke:#000000; stroke-linecap:round; stroke-linejoin:round; stroke-width:4; stroke-opacity:1; fill:none" points="852.411,1381.2 852.411,1486.45 869.284,1486.45 869.284,1381.2 852.411,1381.2 "/>
<path clip-path="url(#clip102)" d="M869.284 1380.28 L869.284 1486.45 L886.156 1486.45 L886.156 1380.28 L869.284 1380.28 L869.284 1380.28  Z" fill="#009af9" fill-rule="evenodd" fill-opacity="1"/>
<polyline clip-path="url(#clip102)" style="stroke:#000000; stroke-linecap:round; stroke-linejoin:round; stroke-width:4; stroke-opacity:1; fill:none" points="869.284,1380.28 869.284,1486.45 886.156,1486.45 886.156,1380.28 869.284,1380.28 "/>
<path clip-path="url(#clip102)" d="M886.156 1388.63 L886.156 1486.45 L903.029 1486.45 L903.029 1388.63 L886.156 1388.63 L886.156 1388.63  Z" fill="#009af9" fill-rule="evenodd" fill-opacity="1"/>
<polyline clip-path="url(#clip102)" style="stroke:#000000; stroke-linecap:round; stroke-linejoin:round; stroke-width:4; stroke-opacity:1; fill:none" points="886.156,1388.63 886.156,1486.45 903.029,1486.45 903.029,1388.63 886.156,1388.63 "/>
<path clip-path="url(#clip102)" d="M903.029 1382.8 L903.029 1486.45 L919.902 1486.45 L919.902 1382.8 L903.029 1382.8 L903.029 1382.8  Z" fill="#009af9" fill-rule="evenodd" fill-opacity="1"/>
<polyline clip-path="url(#clip102)" style="stroke:#000000; stroke-linecap:round; stroke-linejoin:round; stroke-width:4; stroke-opacity:1; fill:none" points="903.029,1382.8 903.029,1486.45 919.902,1486.45 919.902,1382.8 903.029,1382.8 "/>
<path clip-path="url(#clip102)" d="M919.902 1384.63 L919.902 1486.45 L936.774 1486.45 L936.774 1384.63 L919.902 1384.63 L919.902 1384.63  Z" fill="#009af9" fill-rule="evenodd" fill-opacity="1"/>
<polyline clip-path="url(#clip102)" style="stroke:#000000; stroke-linecap:round; stroke-linejoin:round; stroke-width:4; stroke-opacity:1; fill:none" points="919.902,1384.63 919.902,1486.45 936.774,1486.45 936.774,1384.63 919.902,1384.63 "/>
<path clip-path="url(#clip102)" d="M936.774 1389.44 L936.774 1486.45 L953.647 1486.45 L953.647 1389.44 L936.774 1389.44 L936.774 1389.44  Z" fill="#009af9" fill-rule="evenodd" fill-opacity="1"/>
<polyline clip-path="url(#clip102)" style="stroke:#000000; stroke-linecap:round; stroke-linejoin:round; stroke-width:4; stroke-opacity:1; fill:none" points="936.774,1389.44 936.774,1486.45 953.647,1486.45 953.647,1389.44 936.774,1389.44 "/>
<path clip-path="url(#clip102)" d="M953.647 1391.84 L953.647 1486.45 L970.52 1486.45 L970.52 1391.84 L953.647 1391.84 L953.647 1391.84  Z" fill="#009af9" fill-rule="evenodd" fill-opacity="1"/>
<polyline clip-path="url(#clip102)" style="stroke:#000000; stroke-linecap:round; stroke-linejoin:round; stroke-width:4; stroke-opacity:1; fill:none" points="953.647,1391.84 953.647,1486.45 970.52,1486.45 970.52,1391.84 953.647,1391.84 "/>
<path clip-path="url(#clip102)" d="M970.52 1391.27 L970.52 1486.45 L987.392 1486.45 L987.392 1391.27 L970.52 1391.27 L970.52 1391.27  Z" fill="#009af9" fill-rule="evenodd" fill-opacity="1"/>
<polyline clip-path="url(#clip102)" style="stroke:#000000; stroke-linecap:round; stroke-linejoin:round; stroke-width:4; stroke-opacity:1; fill:none" points="970.52,1391.27 970.52,1486.45 987.392,1486.45 987.392,1391.27 970.52,1391.27 "/>
<path clip-path="url(#clip102)" d="M987.392 1393.21 L987.392 1486.45 L1004.27 1486.45 L1004.27 1393.21 L987.392 1393.21 L987.392 1393.21  Z" fill="#009af9" fill-rule="evenodd" fill-opacity="1"/>
<polyline clip-path="url(#clip102)" style="stroke:#000000; stroke-linecap:round; stroke-linejoin:round; stroke-width:4; stroke-opacity:1; fill:none" points="987.392,1393.21 987.392,1486.45 1004.27,1486.45 1004.27,1393.21 987.392,1393.21 "/>
<path clip-path="url(#clip102)" d="M1004.27 1400.88 L1004.27 1486.45 L1021.14 1486.45 L1021.14 1400.88 L1004.27 1400.88 L1004.27 1400.88  Z" fill="#009af9" fill-rule="evenodd" fill-opacity="1"/>
<polyline clip-path="url(#clip102)" style="stroke:#000000; stroke-linecap:round; stroke-linejoin:round; stroke-width:4; stroke-opacity:1; fill:none" points="1004.27,1400.88 1004.27,1486.45 1021.14,1486.45 1021.14,1400.88 1004.27,1400.88 "/>
<path clip-path="url(#clip102)" d="M1021.14 1401.22 L1021.14 1486.45 L1038.01 1486.45 L1038.01 1401.22 L1021.14 1401.22 L1021.14 1401.22  Z" fill="#009af9" fill-rule="evenodd" fill-opacity="1"/>
<polyline clip-path="url(#clip102)" style="stroke:#000000; stroke-linecap:round; stroke-linejoin:round; stroke-width:4; stroke-opacity:1; fill:none" points="1021.14,1401.22 1021.14,1486.45 1038.01,1486.45 1038.01,1401.22 1021.14,1401.22 "/>
<path clip-path="url(#clip102)" d="M1038.01 1394.47 L1038.01 1486.45 L1054.88 1486.45 L1054.88 1394.47 L1038.01 1394.47 L1038.01 1394.47  Z" fill="#009af9" fill-rule="evenodd" fill-opacity="1"/>
<polyline clip-path="url(#clip102)" style="stroke:#000000; stroke-linecap:round; stroke-linejoin:round; stroke-width:4; stroke-opacity:1; fill:none" points="1038.01,1394.47 1038.01,1486.45 1054.88,1486.45 1054.88,1394.47 1038.01,1394.47 "/>
<path clip-path="url(#clip102)" d="M1054.88 1393.21 L1054.88 1486.45 L1071.76 1486.45 L1071.76 1393.21 L1054.88 1393.21 L1054.88 1393.21  Z" fill="#009af9" fill-rule="evenodd" fill-opacity="1"/>
<polyline clip-path="url(#clip102)" style="stroke:#000000; stroke-linecap:round; stroke-linejoin:round; stroke-width:4; stroke-opacity:1; fill:none" points="1054.88,1393.21 1054.88,1486.45 1071.76,1486.45 1071.76,1393.21 1054.88,1393.21 "/>
<path clip-path="url(#clip102)" d="M1071.76 1397.67 L1071.76 1486.45 L1088.63 1486.45 L1088.63 1397.67 L1071.76 1397.67 L1071.76 1397.67  Z" fill="#009af9" fill-rule="evenodd" fill-opacity="1"/>
<polyline clip-path="url(#clip102)" style="stroke:#000000; stroke-linecap:round; stroke-linejoin:round; stroke-width:4; stroke-opacity:1; fill:none" points="1071.76,1397.67 1071.76,1486.45 1088.63,1486.45 1088.63,1397.67 1071.76,1397.67 "/>
<path clip-path="url(#clip102)" d="M1088.63 1400.76 L1088.63 1486.45 L1105.5 1486.45 L1105.5 1400.76 L1088.63 1400.76 L1088.63 1400.76  Z" fill="#009af9" fill-rule="evenodd" fill-opacity="1"/>
<polyline clip-path="url(#clip102)" style="stroke:#000000; stroke-linecap:round; stroke-linejoin:round; stroke-width:4; stroke-opacity:1; fill:none" points="1088.63,1400.76 1088.63,1486.45 1105.5,1486.45 1105.5,1400.76 1088.63,1400.76 "/>
<path clip-path="url(#clip102)" d="M1105.5 1399.39 L1105.5 1486.45 L1122.37 1486.45 L1122.37 1399.39 L1105.5 1399.39 L1105.5 1399.39  Z" fill="#009af9" fill-rule="evenodd" fill-opacity="1"/>
<polyline clip-path="url(#clip102)" style="stroke:#000000; stroke-linecap:round; stroke-linejoin:round; stroke-width:4; stroke-opacity:1; fill:none" points="1105.5,1399.39 1105.5,1486.45 1122.37,1486.45 1122.37,1399.39 1105.5,1399.39 "/>
<path clip-path="url(#clip102)" d="M1122.37 1390.81 L1122.37 1486.45 L1139.25 1486.45 L1139.25 1390.81 L1122.37 1390.81 L1122.37 1390.81  Z" fill="#009af9" fill-rule="evenodd" fill-opacity="1"/>
<polyline clip-path="url(#clip102)" style="stroke:#000000; stroke-linecap:round; stroke-linejoin:round; stroke-width:4; stroke-opacity:1; fill:none" points="1122.37,1390.81 1122.37,1486.45 1139.25,1486.45 1139.25,1390.81 1122.37,1390.81 "/>
<path clip-path="url(#clip102)" d="M1139.25 1401.68 L1139.25 1486.45 L1156.12 1486.45 L1156.12 1401.68 L1139.25 1401.68 L1139.25 1401.68  Z" fill="#009af9" fill-rule="evenodd" fill-opacity="1"/>
<polyline clip-path="url(#clip102)" style="stroke:#000000; stroke-linecap:round; stroke-linejoin:round; stroke-width:4; stroke-opacity:1; fill:none" points="1139.25,1401.68 1139.25,1486.45 1156.12,1486.45 1156.12,1401.68 1139.25,1401.68 "/>
<path clip-path="url(#clip102)" d="M1156.12 1399.16 L1156.12 1486.45 L1172.99 1486.45 L1172.99 1399.16 L1156.12 1399.16 L1156.12 1399.16  Z" fill="#009af9" fill-rule="evenodd" fill-opacity="1"/>
<polyline clip-path="url(#clip102)" style="stroke:#000000; stroke-linecap:round; stroke-linejoin:round; stroke-width:4; stroke-opacity:1; fill:none" points="1156.12,1399.16 1156.12,1486.45 1172.99,1486.45 1172.99,1399.16 1156.12,1399.16 "/>
<path clip-path="url(#clip102)" d="M1172.99 1408.08 L1172.99 1486.45 L1189.86 1486.45 L1189.86 1408.08 L1172.99 1408.08 L1172.99 1408.08  Z" fill="#009af9" fill-rule="evenodd" fill-opacity="1"/>
<polyline clip-path="url(#clip102)" style="stroke:#000000; stroke-linecap:round; stroke-linejoin:round; stroke-width:4; stroke-opacity:1; fill:none" points="1172.99,1408.08 1172.99,1486.45 1189.86,1486.45 1189.86,1408.08 1172.99,1408.08 "/>
<path clip-path="url(#clip102)" d="M1189.86 1411.52 L1189.86 1486.45 L1206.74 1486.45 L1206.74 1411.52 L1189.86 1411.52 L1189.86 1411.52  Z" fill="#009af9" fill-rule="evenodd" fill-opacity="1"/>
<polyline clip-path="url(#clip102)" style="stroke:#000000; stroke-linecap:round; stroke-linejoin:round; stroke-width:4; stroke-opacity:1; fill:none" points="1189.86,1411.52 1189.86,1486.45 1206.74,1486.45 1206.74,1411.52 1189.86,1411.52 "/>
<path clip-path="url(#clip102)" d="M1206.74 1405.68 L1206.74 1486.45 L1223.61 1486.45 L1223.61 1405.68 L1206.74 1405.68 L1206.74 1405.68  Z" fill="#009af9" fill-rule="evenodd" fill-opacity="1"/>
<polyline clip-path="url(#clip102)" style="stroke:#000000; stroke-linecap:round; stroke-linejoin:round; stroke-width:4; stroke-opacity:1; fill:none" points="1206.74,1405.68 1206.74,1486.45 1223.61,1486.45 1223.61,1405.68 1206.74,1405.68 "/>
<path clip-path="url(#clip102)" d="M1223.61 1414.72 L1223.61 1486.45 L1240.48 1486.45 L1240.48 1414.72 L1223.61 1414.72 L1223.61 1414.72  Z" fill="#009af9" fill-rule="evenodd" fill-opacity="1"/>
<polyline clip-path="url(#clip102)" style="stroke:#000000; stroke-linecap:round; stroke-linejoin:round; stroke-width:4; stroke-opacity:1; fill:none" points="1223.61,1414.72 1223.61,1486.45 1240.48,1486.45 1240.48,1414.72 1223.61,1414.72 "/>
<path clip-path="url(#clip102)" d="M1240.48 1406.71 L1240.48 1486.45 L1257.36 1486.45 L1257.36 1406.71 L1240.48 1406.71 L1240.48 1406.71  Z" fill="#009af9" fill-rule="evenodd" fill-opacity="1"/>
<polyline clip-path="url(#clip102)" style="stroke:#000000; stroke-linecap:round; stroke-linejoin:round; stroke-width:4; stroke-opacity:1; fill:none" points="1240.48,1406.71 1240.48,1486.45 1257.36,1486.45 1257.36,1406.71 1240.48,1406.71 "/>
<path clip-path="url(#clip102)" d="M1257.36 1411.29 L1257.36 1486.45 L1274.23 1486.45 L1274.23 1411.29 L1257.36 1411.29 L1257.36 1411.29  Z" fill="#009af9" fill-rule="evenodd" fill-opacity="1"/>
<polyline clip-path="url(#clip102)" style="stroke:#000000; stroke-linecap:round; stroke-linejoin:round; stroke-width:4; stroke-opacity:1; fill:none" points="1257.36,1411.29 1257.36,1486.45 1274.23,1486.45 1274.23,1411.29 1257.36,1411.29 "/>
<path clip-path="url(#clip102)" d="M1274.23 1408.77 L1274.23 1486.45 L1291.1 1486.45 L1291.1 1408.77 L1274.23 1408.77 L1274.23 1408.77  Z" fill="#009af9" fill-rule="evenodd" fill-opacity="1"/>
<polyline clip-path="url(#clip102)" style="stroke:#000000; stroke-linecap:round; stroke-linejoin:round; stroke-width:4; stroke-opacity:1; fill:none" points="1274.23,1408.77 1274.23,1486.45 1291.1,1486.45 1291.1,1408.77 1274.23,1408.77 "/>
<path clip-path="url(#clip102)" d="M1291.1 1414.72 L1291.1 1486.45 L1307.97 1486.45 L1307.97 1414.72 L1291.1 1414.72 L1291.1 1414.72  Z" fill="#009af9" fill-rule="evenodd" fill-opacity="1"/>
<polyline clip-path="url(#clip102)" style="stroke:#000000; stroke-linecap:round; stroke-linejoin:round; stroke-width:4; stroke-opacity:1; fill:none" points="1291.1,1414.72 1291.1,1486.45 1307.97,1486.45 1307.97,1414.72 1291.1,1414.72 "/>
<path clip-path="url(#clip102)" d="M1307.97 1416.55 L1307.97 1486.45 L1324.85 1486.45 L1324.85 1416.55 L1307.97 1416.55 L1307.97 1416.55  Z" fill="#009af9" fill-rule="evenodd" fill-opacity="1"/>
<polyline clip-path="url(#clip102)" style="stroke:#000000; stroke-linecap:round; stroke-linejoin:round; stroke-width:4; stroke-opacity:1; fill:none" points="1307.97,1416.55 1307.97,1486.45 1324.85,1486.45 1324.85,1416.55 1307.97,1416.55 "/>
<path clip-path="url(#clip102)" d="M1324.85 1411.86 L1324.85 1486.45 L1341.72 1486.45 L1341.72 1411.86 L1324.85 1411.86 L1324.85 1411.86  Z" fill="#009af9" fill-rule="evenodd" fill-opacity="1"/>
<polyline clip-path="url(#clip102)" style="stroke:#000000; stroke-linecap:round; stroke-linejoin:round; stroke-width:4; stroke-opacity:1; fill:none" points="1324.85,1411.86 1324.85,1486.45 1341.72,1486.45 1341.72,1411.86 1324.85,1411.86 "/>
<path clip-path="url(#clip102)" d="M1341.72 1412.32 L1341.72 1486.45 L1358.59 1486.45 L1358.59 1412.32 L1341.72 1412.32 L1341.72 1412.32  Z" fill="#009af9" fill-rule="evenodd" fill-opacity="1"/>
<polyline clip-path="url(#clip102)" style="stroke:#000000; stroke-linecap:round; stroke-linejoin:round; stroke-width:4; stroke-opacity:1; fill:none" points="1341.72,1412.32 1341.72,1486.45 1358.59,1486.45 1358.59,1412.32 1341.72,1412.32 "/>
<path clip-path="url(#clip102)" d="M1358.59 1415.06 L1358.59 1486.45 L1375.46 1486.45 L1375.46 1415.06 L1358.59 1415.06 L1358.59 1415.06  Z" fill="#009af9" fill-rule="evenodd" fill-opacity="1"/>
<polyline clip-path="url(#clip102)" style="stroke:#000000; stroke-linecap:round; stroke-linejoin:round; stroke-width:4; stroke-opacity:1; fill:none" points="1358.59,1415.06 1358.59,1486.45 1375.46,1486.45 1375.46,1415.06 1358.59,1415.06 "/>
<path clip-path="url(#clip102)" d="M1375.46 1413.46 L1375.46 1486.45 L1392.34 1486.45 L1392.34 1413.46 L1375.46 1413.46 L1375.46 1413.46  Z" fill="#009af9" fill-rule="evenodd" fill-opacity="1"/>
<polyline clip-path="url(#clip102)" style="stroke:#000000; stroke-linecap:round; stroke-linejoin:round; stroke-width:4; stroke-opacity:1; fill:none" points="1375.46,1413.46 1375.46,1486.45 1392.34,1486.45 1392.34,1413.46 1375.46,1413.46 "/>
<path clip-path="url(#clip102)" d="M1392.34 1413.12 L1392.34 1486.45 L1409.21 1486.45 L1409.21 1413.12 L1392.34 1413.12 L1392.34 1413.12  Z" fill="#009af9" fill-rule="evenodd" fill-opacity="1"/>
<polyline clip-path="url(#clip102)" style="stroke:#000000; stroke-linecap:round; stroke-linejoin:round; stroke-width:4; stroke-opacity:1; fill:none" points="1392.34,1413.12 1392.34,1486.45 1409.21,1486.45 1409.21,1413.12 1392.34,1413.12 "/>
<path clip-path="url(#clip102)" d="M1409.21 1419.64 L1409.21 1486.45 L1426.08 1486.45 L1426.08 1419.64 L1409.21 1419.64 L1409.21 1419.64  Z" fill="#009af9" fill-rule="evenodd" fill-opacity="1"/>
<polyline clip-path="url(#clip102)" style="stroke:#000000; stroke-linecap:round; stroke-linejoin:round; stroke-width:4; stroke-opacity:1; fill:none" points="1409.21,1419.64 1409.21,1486.45 1426.08,1486.45 1426.08,1419.64 1409.21,1419.64 "/>
<path clip-path="url(#clip102)" d="M1426.08 1422.38 L1426.08 1486.45 L1442.95 1486.45 L1442.95 1422.38 L1426.08 1422.38 L1426.08 1422.38  Z" fill="#009af9" fill-rule="evenodd" fill-opacity="1"/>
<polyline clip-path="url(#clip102)" style="stroke:#000000; stroke-linecap:round; stroke-linejoin:round; stroke-width:4; stroke-opacity:1; fill:none" points="1426.08,1422.38 1426.08,1486.45 1442.95,1486.45 1442.95,1422.38 1426.08,1422.38 "/>
<path clip-path="url(#clip102)" d="M1442.95 1426.04 L1442.95 1486.45 L1459.83 1486.45 L1459.83 1426.04 L1442.95 1426.04 L1442.95 1426.04  Z" fill="#009af9" fill-rule="evenodd" fill-opacity="1"/>
<polyline clip-path="url(#clip102)" style="stroke:#000000; stroke-linecap:round; stroke-linejoin:round; stroke-width:4; stroke-opacity:1; fill:none" points="1442.95,1426.04 1442.95,1486.45 1459.83,1486.45 1459.83,1426.04 1442.95,1426.04 "/>
<path clip-path="url(#clip102)" d="M1459.83 1423.76 L1459.83 1486.45 L1476.7 1486.45 L1476.7 1423.76 L1459.83 1423.76 L1459.83 1423.76  Z" fill="#009af9" fill-rule="evenodd" fill-opacity="1"/>
<polyline clip-path="url(#clip102)" style="stroke:#000000; stroke-linecap:round; stroke-linejoin:round; stroke-width:4; stroke-opacity:1; fill:none" points="1459.83,1423.76 1459.83,1486.45 1476.7,1486.45 1476.7,1423.76 1459.83,1423.76 "/>
<path clip-path="url(#clip102)" d="M1476.7 1424.67 L1476.7 1486.45 L1493.57 1486.45 L1493.57 1424.67 L1476.7 1424.67 L1476.7 1424.67  Z" fill="#009af9" fill-rule="evenodd" fill-opacity="1"/>
<polyline clip-path="url(#clip102)" style="stroke:#000000; stroke-linecap:round; stroke-linejoin:round; stroke-width:4; stroke-opacity:1; fill:none" points="1476.7,1424.67 1476.7,1486.45 1493.57,1486.45 1493.57,1424.67 1476.7,1424.67 "/>
<path clip-path="url(#clip102)" d="M1493.57 1431.99 L1493.57 1486.45 L1510.45 1486.45 L1510.45 1431.99 L1493.57 1431.99 L1493.57 1431.99  Z" fill="#009af9" fill-rule="evenodd" fill-opacity="1"/>
<polyline clip-path="url(#clip102)" style="stroke:#000000; stroke-linecap:round; stroke-linejoin:round; stroke-width:4; stroke-opacity:1; fill:none" points="1493.57,1431.99 1493.57,1486.45 1510.45,1486.45 1510.45,1431.99 1493.57,1431.99 "/>
<path clip-path="url(#clip102)" d="M1510.45 1424.9 L1510.45 1486.45 L1527.32 1486.45 L1527.32 1424.9 L1510.45 1424.9 L1510.45 1424.9  Z" fill="#009af9" fill-rule="evenodd" fill-opacity="1"/>
<polyline clip-path="url(#clip102)" style="stroke:#000000; stroke-linecap:round; stroke-linejoin:round; stroke-width:4; stroke-opacity:1; fill:none" points="1510.45,1424.9 1510.45,1486.45 1527.32,1486.45 1527.32,1424.9 1510.45,1424.9 "/>
<path clip-path="url(#clip102)" d="M1527.32 1431.65 L1527.32 1486.45 L1544.19 1486.45 L1544.19 1431.65 L1527.32 1431.65 L1527.32 1431.65  Z" fill="#009af9" fill-rule="evenodd" fill-opacity="1"/>
<polyline clip-path="url(#clip102)" style="stroke:#000000; stroke-linecap:round; stroke-linejoin:round; stroke-width:4; stroke-opacity:1; fill:none" points="1527.32,1431.65 1527.32,1486.45 1544.19,1486.45 1544.19,1431.65 1527.32,1431.65 "/>
<path clip-path="url(#clip102)" d="M1544.19 1433.02 L1544.19 1486.45 L1561.06 1486.45 L1561.06 1433.02 L1544.19 1433.02 L1544.19 1433.02  Z" fill="#009af9" fill-rule="evenodd" fill-opacity="1"/>
<polyline clip-path="url(#clip102)" style="stroke:#000000; stroke-linecap:round; stroke-linejoin:round; stroke-width:4; stroke-opacity:1; fill:none" points="1544.19,1433.02 1544.19,1486.45 1561.06,1486.45 1561.06,1433.02 1544.19,1433.02 "/>
<path clip-path="url(#clip102)" d="M1561.06 1435.77 L1561.06 1486.45 L1577.94 1486.45 L1577.94 1435.77 L1561.06 1435.77 L1561.06 1435.77  Z" fill="#009af9" fill-rule="evenodd" fill-opacity="1"/>
<polyline clip-path="url(#clip102)" style="stroke:#000000; stroke-linecap:round; stroke-linejoin:round; stroke-width:4; stroke-opacity:1; fill:none" points="1561.06,1435.77 1561.06,1486.45 1577.94,1486.45 1577.94,1435.77 1561.06,1435.77 "/>
<path clip-path="url(#clip102)" d="M1577.94 1433.02 L1577.94 1486.45 L1594.81 1486.45 L1594.81 1433.02 L1577.94 1433.02 L1577.94 1433.02  Z" fill="#009af9" fill-rule="evenodd" fill-opacity="1"/>
<polyline clip-path="url(#clip102)" style="stroke:#000000; stroke-linecap:round; stroke-linejoin:round; stroke-width:4; stroke-opacity:1; fill:none" points="1577.94,1433.02 1577.94,1486.45 1594.81,1486.45 1594.81,1433.02 1577.94,1433.02 "/>
<path clip-path="url(#clip102)" d="M1594.81 1438.74 L1594.81 1486.45 L1611.68 1486.45 L1611.68 1438.74 L1594.81 1438.74 L1594.81 1438.74  Z" fill="#009af9" fill-rule="evenodd" fill-opacity="1"/>
<polyline clip-path="url(#clip102)" style="stroke:#000000; stroke-linecap:round; stroke-linejoin:round; stroke-width:4; stroke-opacity:1; fill:none" points="1594.81,1438.74 1594.81,1486.45 1611.68,1486.45 1611.68,1438.74 1594.81,1438.74 "/>
<path clip-path="url(#clip102)" d="M1611.68 1439.31 L1611.68 1486.45 L1628.55 1486.45 L1628.55 1439.31 L1611.68 1439.31 L1611.68 1439.31  Z" fill="#009af9" fill-rule="evenodd" fill-opacity="1"/>
<polyline clip-path="url(#clip102)" style="stroke:#000000; stroke-linecap:round; stroke-linejoin:round; stroke-width:4; stroke-opacity:1; fill:none" points="1611.68,1439.31 1611.68,1486.45 1628.55,1486.45 1628.55,1439.31 1611.68,1439.31 "/>
<path clip-path="url(#clip102)" d="M1628.55 1438.4 L1628.55 1486.45 L1645.43 1486.45 L1645.43 1438.4 L1628.55 1438.4 L1628.55 1438.4  Z" fill="#009af9" fill-rule="evenodd" fill-opacity="1"/>
<polyline clip-path="url(#clip102)" style="stroke:#000000; stroke-linecap:round; stroke-linejoin:round; stroke-width:4; stroke-opacity:1; fill:none" points="1628.55,1438.4 1628.55,1486.45 1645.43,1486.45 1645.43,1438.4 1628.55,1438.4 "/>
<path clip-path="url(#clip102)" d="M1645.43 1448.35 L1645.43 1486.45 L1662.3 1486.45 L1662.3 1448.35 L1645.43 1448.35 L1645.43 1448.35  Z" fill="#009af9" fill-rule="evenodd" fill-opacity="1"/>
<polyline clip-path="url(#clip102)" style="stroke:#000000; stroke-linecap:round; stroke-linejoin:round; stroke-width:4; stroke-opacity:1; fill:none" points="1645.43,1448.35 1645.43,1486.45 1662.3,1486.45 1662.3,1448.35 1645.43,1448.35 "/>
<path clip-path="url(#clip102)" d="M1662.3 1446.06 L1662.3 1486.45 L1679.17 1486.45 L1679.17 1446.06 L1662.3 1446.06 L1662.3 1446.06  Z" fill="#009af9" fill-rule="evenodd" fill-opacity="1"/>
<polyline clip-path="url(#clip102)" style="stroke:#000000; stroke-linecap:round; stroke-linejoin:round; stroke-width:4; stroke-opacity:1; fill:none" points="1662.3,1446.06 1662.3,1486.45 1679.17,1486.45 1679.17,1446.06 1662.3,1446.06 "/>
<path clip-path="url(#clip102)" d="M1679.17 1447.44 L1679.17 1486.45 L1696.04 1486.45 L1696.04 1447.44 L1679.17 1447.44 L1679.17 1447.44  Z" fill="#009af9" fill-rule="evenodd" fill-opacity="1"/>
<polyline clip-path="url(#clip102)" style="stroke:#000000; stroke-linecap:round; stroke-linejoin:round; stroke-width:4; stroke-opacity:1; fill:none" points="1679.17,1447.44 1679.17,1486.45 1696.04,1486.45 1696.04,1447.44 1679.17,1447.44 "/>
<path clip-path="url(#clip102)" d="M1696.04 1450.07 L1696.04 1486.45 L1712.92 1486.45 L1712.92 1450.07 L1696.04 1450.07 L1696.04 1450.07  Z" fill="#009af9" fill-rule="evenodd" fill-opacity="1"/>
<polyline clip-path="url(#clip102)" style="stroke:#000000; stroke-linecap:round; stroke-linejoin:round; stroke-width:4; stroke-opacity:1; fill:none" points="1696.04,1450.07 1696.04,1486.45 1712.92,1486.45 1712.92,1450.07 1696.04,1450.07 "/>
<path clip-path="url(#clip102)" d="M1712.92 1456.02 L1712.92 1486.45 L1729.79 1486.45 L1729.79 1456.02 L1712.92 1456.02 L1712.92 1456.02  Z" fill="#009af9" fill-rule="evenodd" fill-opacity="1"/>
<polyline clip-path="url(#clip102)" style="stroke:#000000; stroke-linecap:round; stroke-linejoin:round; stroke-width:4; stroke-opacity:1; fill:none" points="1712.92,1456.02 1712.92,1486.45 1729.79,1486.45 1729.79,1456.02 1712.92,1456.02 "/>
<path clip-path="url(#clip102)" d="M1729.79 1458.08 L1729.79 1486.45 L1746.66 1486.45 L1746.66 1458.08 L1729.79 1458.08 L1729.79 1458.08  Z" fill="#009af9" fill-rule="evenodd" fill-opacity="1"/>
<polyline clip-path="url(#clip102)" style="stroke:#000000; stroke-linecap:round; stroke-linejoin:round; stroke-width:4; stroke-opacity:1; fill:none" points="1729.79,1458.08 1729.79,1486.45 1746.66,1486.45 1746.66,1458.08 1729.79,1458.08 "/>
<path clip-path="url(#clip102)" d="M1746.66 1458.19 L1746.66 1486.45 L1763.54 1486.45 L1763.54 1458.19 L1746.66 1458.19 L1746.66 1458.19  Z" fill="#009af9" fill-rule="evenodd" fill-opacity="1"/>
<polyline clip-path="url(#clip102)" style="stroke:#000000; stroke-linecap:round; stroke-linejoin:round; stroke-width:4; stroke-opacity:1; fill:none" points="1746.66,1458.19 1746.66,1486.45 1763.54,1486.45 1763.54,1458.19 1746.66,1458.19 "/>
<path clip-path="url(#clip102)" d="M1763.54 1463.34 L1763.54 1486.45 L1780.41 1486.45 L1780.41 1463.34 L1763.54 1463.34 L1763.54 1463.34  Z" fill="#009af9" fill-rule="evenodd" fill-opacity="1"/>
<polyline clip-path="url(#clip102)" style="stroke:#000000; stroke-linecap:round; stroke-linejoin:round; stroke-width:4; stroke-opacity:1; fill:none" points="1763.54,1463.34 1763.54,1486.45 1780.41,1486.45 1780.41,1463.34 1763.54,1463.34 "/>
<path clip-path="url(#clip102)" d="M1780.41 1463.22 L1780.41 1486.45 L1797.28 1486.45 L1797.28 1463.22 L1780.41 1463.22 L1780.41 1463.22  Z" fill="#009af9" fill-rule="evenodd" fill-opacity="1"/>
<polyline clip-path="url(#clip102)" style="stroke:#000000; stroke-linecap:round; stroke-linejoin:round; stroke-width:4; stroke-opacity:1; fill:none" points="1780.41,1463.22 1780.41,1486.45 1797.28,1486.45 1797.28,1463.22 1780.41,1463.22 "/>
<path clip-path="url(#clip102)" d="M1797.28 1461.62 L1797.28 1486.45 L1814.15 1486.45 L1814.15 1461.62 L1797.28 1461.62 L1797.28 1461.62  Z" fill="#009af9" fill-rule="evenodd" fill-opacity="1"/>
<polyline clip-path="url(#clip102)" style="stroke:#000000; stroke-linecap:round; stroke-linejoin:round; stroke-width:4; stroke-opacity:1; fill:none" points="1797.28,1461.62 1797.28,1486.45 1814.15,1486.45 1814.15,1461.62 1797.28,1461.62 "/>
<path clip-path="url(#clip102)" d="M1814.15 1459.79 L1814.15 1486.45 L1831.03 1486.45 L1831.03 1459.79 L1814.15 1459.79 L1814.15 1459.79  Z" fill="#009af9" fill-rule="evenodd" fill-opacity="1"/>
<polyline clip-path="url(#clip102)" style="stroke:#000000; stroke-linecap:round; stroke-linejoin:round; stroke-width:4; stroke-opacity:1; fill:none" points="1814.15,1459.79 1814.15,1486.45 1831.03,1486.45 1831.03,1459.79 1814.15,1459.79 "/>
<path clip-path="url(#clip102)" d="M1831.03 1465.05 L1831.03 1486.45 L1847.9 1486.45 L1847.9 1465.05 L1831.03 1465.05 L1831.03 1465.05  Z" fill="#009af9" fill-rule="evenodd" fill-opacity="1"/>
<polyline clip-path="url(#clip102)" style="stroke:#000000; stroke-linecap:round; stroke-linejoin:round; stroke-width:4; stroke-opacity:1; fill:none" points="1831.03,1465.05 1831.03,1486.45 1847.9,1486.45 1847.9,1465.05 1831.03,1465.05 "/>
<path clip-path="url(#clip102)" d="M1847.9 1464.14 L1847.9 1486.45 L1864.77 1486.45 L1864.77 1464.14 L1847.9 1464.14 L1847.9 1464.14  Z" fill="#009af9" fill-rule="evenodd" fill-opacity="1"/>
<polyline clip-path="url(#clip102)" style="stroke:#000000; stroke-linecap:round; stroke-linejoin:round; stroke-width:4; stroke-opacity:1; fill:none" points="1847.9,1464.14 1847.9,1486.45 1864.77,1486.45 1864.77,1464.14 1847.9,1464.14 "/>
<path clip-path="url(#clip102)" d="M1864.77 1464.83 L1864.77 1486.45 L1881.64 1486.45 L1881.64 1464.83 L1864.77 1464.83 L1864.77 1464.83  Z" fill="#009af9" fill-rule="evenodd" fill-opacity="1"/>
<polyline clip-path="url(#clip102)" style="stroke:#000000; stroke-linecap:round; stroke-linejoin:round; stroke-width:4; stroke-opacity:1; fill:none" points="1864.77,1464.83 1864.77,1486.45 1881.64,1486.45 1881.64,1464.83 1864.77,1464.83 "/>
<path clip-path="url(#clip102)" d="M1881.64 1465.17 L1881.64 1486.45 L1898.52 1486.45 L1898.52 1465.17 L1881.64 1465.17 L1881.64 1465.17  Z" fill="#009af9" fill-rule="evenodd" fill-opacity="1"/>
<polyline clip-path="url(#clip102)" style="stroke:#000000; stroke-linecap:round; stroke-linejoin:round; stroke-width:4; stroke-opacity:1; fill:none" points="1881.64,1465.17 1881.64,1486.45 1898.52,1486.45 1898.52,1465.17 1881.64,1465.17 "/>
<path clip-path="url(#clip102)" d="M1898.52 1466.66 L1898.52 1486.45 L1915.39 1486.45 L1915.39 1466.66 L1898.52 1466.66 L1898.52 1466.66  Z" fill="#009af9" fill-rule="evenodd" fill-opacity="1"/>
<polyline clip-path="url(#clip102)" style="stroke:#000000; stroke-linecap:round; stroke-linejoin:round; stroke-width:4; stroke-opacity:1; fill:none" points="1898.52,1466.66 1898.52,1486.45 1915.39,1486.45 1915.39,1466.66 1898.52,1466.66 "/>
<path clip-path="url(#clip102)" d="M1915.39 1465.28 L1915.39 1486.45 L1932.26 1486.45 L1932.26 1465.28 L1915.39 1465.28 L1915.39 1465.28  Z" fill="#009af9" fill-rule="evenodd" fill-opacity="1"/>
<polyline clip-path="url(#clip102)" style="stroke:#000000; stroke-linecap:round; stroke-linejoin:round; stroke-width:4; stroke-opacity:1; fill:none" points="1915.39,1465.28 1915.39,1486.45 1932.26,1486.45 1932.26,1465.28 1915.39,1465.28 "/>
<path clip-path="url(#clip102)" d="M1932.26 1467.11 L1932.26 1486.45 L1949.13 1486.45 L1949.13 1467.11 L1932.26 1467.11 L1932.26 1467.11  Z" fill="#009af9" fill-rule="evenodd" fill-opacity="1"/>
<polyline clip-path="url(#clip102)" style="stroke:#000000; stroke-linecap:round; stroke-linejoin:round; stroke-width:4; stroke-opacity:1; fill:none" points="1932.26,1467.11 1932.26,1486.45 1949.13,1486.45 1949.13,1467.11 1932.26,1467.11 "/>
<path clip-path="url(#clip102)" d="M1949.13 1468.49 L1949.13 1486.45 L1966.01 1486.45 L1966.01 1468.49 L1949.13 1468.49 L1949.13 1468.49  Z" fill="#009af9" fill-rule="evenodd" fill-opacity="1"/>
<polyline clip-path="url(#clip102)" style="stroke:#000000; stroke-linecap:round; stroke-linejoin:round; stroke-width:4; stroke-opacity:1; fill:none" points="1949.13,1468.49 1949.13,1486.45 1966.01,1486.45 1966.01,1468.49 1949.13,1468.49 "/>
<path clip-path="url(#clip102)" d="M1966.01 1467.91 L1966.01 1486.45 L1982.88 1486.45 L1982.88 1467.91 L1966.01 1467.91 L1966.01 1467.91  Z" fill="#009af9" fill-rule="evenodd" fill-opacity="1"/>
<polyline clip-path="url(#clip102)" style="stroke:#000000; stroke-linecap:round; stroke-linejoin:round; stroke-width:4; stroke-opacity:1; fill:none" points="1966.01,1467.91 1966.01,1486.45 1982.88,1486.45 1982.88,1467.91 1966.01,1467.91 "/>
<path clip-path="url(#clip102)" d="M1982.88 1464.71 L1982.88 1486.45 L1999.75 1486.45 L1999.75 1464.71 L1982.88 1464.71 L1982.88 1464.71  Z" fill="#009af9" fill-rule="evenodd" fill-opacity="1"/>
<polyline clip-path="url(#clip102)" style="stroke:#000000; stroke-linecap:round; stroke-linejoin:round; stroke-width:4; stroke-opacity:1; fill:none" points="1982.88,1464.71 1982.88,1486.45 1999.75,1486.45 1999.75,1464.71 1982.88,1464.71 "/>
<path clip-path="url(#clip102)" d="M1999.75 1467.91 L1999.75 1486.45 L2016.63 1486.45 L2016.63 1467.91 L1999.75 1467.91 L1999.75 1467.91  Z" fill="#009af9" fill-rule="evenodd" fill-opacity="1"/>
<polyline clip-path="url(#clip102)" style="stroke:#000000; stroke-linecap:round; stroke-linejoin:round; stroke-width:4; stroke-opacity:1; fill:none" points="1999.75,1467.91 1999.75,1486.45 2016.63,1486.45 2016.63,1467.91 1999.75,1467.91 "/>
<path clip-path="url(#clip102)" d="M2016.63 1470.43 L2016.63 1486.45 L2033.5 1486.45 L2033.5 1470.43 L2016.63 1470.43 L2016.63 1470.43  Z" fill="#009af9" fill-rule="evenodd" fill-opacity="1"/>
<polyline clip-path="url(#clip102)" style="stroke:#000000; stroke-linecap:round; stroke-linejoin:round; stroke-width:4; stroke-opacity:1; fill:none" points="2016.63,1470.43 2016.63,1486.45 2033.5,1486.45 2033.5,1470.43 2016.63,1470.43 "/>
<path clip-path="url(#clip102)" d="M2033.5 1472.61 L2033.5 1486.45 L2050.37 1486.45 L2050.37 1472.61 L2033.5 1472.61 L2033.5 1472.61  Z" fill="#009af9" fill-rule="evenodd" fill-opacity="1"/>
<polyline clip-path="url(#clip102)" style="stroke:#000000; stroke-linecap:round; stroke-linejoin:round; stroke-width:4; stroke-opacity:1; fill:none" points="2033.5,1472.61 2033.5,1486.45 2050.37,1486.45 2050.37,1472.61 2033.5,1472.61 "/>
<path clip-path="url(#clip102)" d="M2050.37 1472.95 L2050.37 1486.45 L2067.24 1486.45 L2067.24 1472.95 L2050.37 1472.95 L2050.37 1472.95  Z" fill="#009af9" fill-rule="evenodd" fill-opacity="1"/>
<polyline clip-path="url(#clip102)" style="stroke:#000000; stroke-linecap:round; stroke-linejoin:round; stroke-width:4; stroke-opacity:1; fill:none" points="2050.37,1472.95 2050.37,1486.45 2067.24,1486.45 2067.24,1472.95 2050.37,1472.95 "/>
<path clip-path="url(#clip102)" d="M2067.24 1474.89 L2067.24 1486.45 L2084.12 1486.45 L2084.12 1474.89 L2067.24 1474.89 L2067.24 1474.89  Z" fill="#009af9" fill-rule="evenodd" fill-opacity="1"/>
<polyline clip-path="url(#clip102)" style="stroke:#000000; stroke-linecap:round; stroke-linejoin:round; stroke-width:4; stroke-opacity:1; fill:none" points="2067.24,1474.89 2067.24,1486.45 2084.12,1486.45 2084.12,1474.89 2067.24,1474.89 "/>
<path clip-path="url(#clip102)" d="M2084.12 1475.24 L2084.12 1486.45 L2100.99 1486.45 L2100.99 1475.24 L2084.12 1475.24 L2084.12 1475.24  Z" fill="#009af9" fill-rule="evenodd" fill-opacity="1"/>
<polyline clip-path="url(#clip102)" style="stroke:#000000; stroke-linecap:round; stroke-linejoin:round; stroke-width:4; stroke-opacity:1; fill:none" points="2084.12,1475.24 2084.12,1486.45 2100.99,1486.45 2100.99,1475.24 2084.12,1475.24 "/>
<path clip-path="url(#clip102)" d="M2100.99 1477.75 L2100.99 1486.45 L2117.86 1486.45 L2117.86 1477.75 L2100.99 1477.75 L2100.99 1477.75  Z" fill="#009af9" fill-rule="evenodd" fill-opacity="1"/>
<polyline clip-path="url(#clip102)" style="stroke:#000000; stroke-linecap:round; stroke-linejoin:round; stroke-width:4; stroke-opacity:1; fill:none" points="2100.99,1477.75 2100.99,1486.45 2117.86,1486.45 2117.86,1477.75 2100.99,1477.75 "/>
<path clip-path="url(#clip102)" d="M2117.86 1481.19 L2117.86 1486.45 L2134.73 1486.45 L2134.73 1481.19 L2117.86 1481.19 L2117.86 1481.19  Z" fill="#009af9" fill-rule="evenodd" fill-opacity="1"/>
<polyline clip-path="url(#clip102)" style="stroke:#000000; stroke-linecap:round; stroke-linejoin:round; stroke-width:4; stroke-opacity:1; fill:none" points="2117.86,1481.19 2117.86,1486.45 2134.73,1486.45 2134.73,1481.19 2117.86,1481.19 "/>
<path clip-path="url(#clip102)" d="M2134.73 1482.56 L2134.73 1486.45 L2151.61 1486.45 L2151.61 1482.56 L2134.73 1482.56 L2134.73 1482.56  Z" fill="#009af9" fill-rule="evenodd" fill-opacity="1"/>
<polyline clip-path="url(#clip102)" style="stroke:#000000; stroke-linecap:round; stroke-linejoin:round; stroke-width:4; stroke-opacity:1; fill:none" points="2134.73,1482.56 2134.73,1486.45 2151.61,1486.45 2151.61,1482.56 2134.73,1482.56 "/>
<path clip-path="url(#clip102)" d="M2151.61 1483.36 L2151.61 1486.45 L2168.48 1486.45 L2168.48 1483.36 L2151.61 1483.36 L2151.61 1483.36  Z" fill="#009af9" fill-rule="evenodd" fill-opacity="1"/>
<polyline clip-path="url(#clip102)" style="stroke:#000000; stroke-linecap:round; stroke-linejoin:round; stroke-width:4; stroke-opacity:1; fill:none" points="2151.61,1483.36 2151.61,1486.45 2168.48,1486.45 2168.48,1483.36 2151.61,1483.36 "/>
<path clip-path="url(#clip102)" d="M2168.48 1485.08 L2168.48 1486.45 L2185.35 1486.45 L2185.35 1485.08 L2168.48 1485.08 L2168.48 1485.08  Z" fill="#009af9" fill-rule="evenodd" fill-opacity="1"/>
<polyline clip-path="url(#clip102)" style="stroke:#000000; stroke-linecap:round; stroke-linejoin:round; stroke-width:4; stroke-opacity:1; fill:none" points="2168.48,1485.08 2168.48,1486.45 2185.35,1486.45 2185.35,1485.08 2168.48,1485.08 "/>
<path clip-path="url(#clip102)" d="M2185.35 1484.73 L2185.35 1486.45 L2202.22 1486.45 L2202.22 1484.73 L2185.35 1484.73 L2185.35 1484.73  Z" fill="#009af9" fill-rule="evenodd" fill-opacity="1"/>
<polyline clip-path="url(#clip102)" style="stroke:#000000; stroke-linecap:round; stroke-linejoin:round; stroke-width:4; stroke-opacity:1; fill:none" points="2185.35,1484.73 2185.35,1486.45 2202.22,1486.45 2202.22,1484.73 2185.35,1484.73 "/>
<path clip-path="url(#clip102)" d="M2202.22 1485.88 L2202.22 1486.45 L2219.1 1486.45 L2219.1 1485.88 L2202.22 1485.88 L2202.22 1485.88  Z" fill="#009af9" fill-rule="evenodd" fill-opacity="1"/>
<polyline clip-path="url(#clip102)" style="stroke:#000000; stroke-linecap:round; stroke-linejoin:round; stroke-width:4; stroke-opacity:1; fill:none" points="2202.22,1485.88 2202.22,1486.45 2219.1,1486.45 2219.1,1485.88 2202.22,1485.88 "/>
<path clip-path="url(#clip102)" d="M2219.1 1486.33 L2219.1 1486.45 L2235.97 1486.45 L2235.97 1486.33 L2219.1 1486.33 L2219.1 1486.33  Z" fill="#009af9" fill-rule="evenodd" fill-opacity="1"/>
<polyline clip-path="url(#clip102)" style="stroke:#000000; stroke-linecap:round; stroke-linejoin:round; stroke-width:4; stroke-opacity:1; fill:none" points="2219.1,1486.33 2219.1,1486.45 2235.97,1486.45 2235.97,1486.33 2219.1,1486.33 "/>
<circle clip-path="url(#clip102)" style="fill:#009af9; stroke:none; fill-opacity:0" cx="354.667" cy="123.472" r="2"/>
<circle clip-path="url(#clip102)" style="fill:#009af9; stroke:none; fill-opacity:0" cx="371.54" cy="1151.02" r="2"/>
<circle clip-path="url(#clip102)" style="fill:#009af9; stroke:none; fill-opacity:0" cx="388.413" cy="1206.74" r="2"/>
<circle clip-path="url(#clip102)" style="fill:#009af9; stroke:none; fill-opacity:0" cx="405.285" cy="1259.93" r="2"/>
<circle clip-path="url(#clip102)" style="fill:#009af9; stroke:none; fill-opacity:0" cx="422.158" cy="1291.28" r="2"/>
<circle clip-path="url(#clip102)" style="fill:#009af9; stroke:none; fill-opacity:0" cx="439.031" cy="1313.82" r="2"/>
<circle clip-path="url(#clip102)" style="fill:#009af9; stroke:none; fill-opacity:0" cx="455.903" cy="1323.31" r="2"/>
<circle clip-path="url(#clip102)" style="fill:#009af9; stroke:none; fill-opacity:0" cx="472.776" cy="1329.6" r="2"/>
<circle clip-path="url(#clip102)" style="fill:#009af9; stroke:none; fill-opacity:0" cx="489.649" cy="1336.93" r="2"/>
<circle clip-path="url(#clip102)" style="fill:#009af9; stroke:none; fill-opacity:0" cx="506.521" cy="1341.96" r="2"/>
<circle clip-path="url(#clip102)" style="fill:#009af9; stroke:none; fill-opacity:0" cx="523.394" cy="1340.93" r="2"/>
<circle clip-path="url(#clip102)" style="fill:#009af9; stroke:none; fill-opacity:0" cx="540.267" cy="1346.54" r="2"/>
<circle clip-path="url(#clip102)" style="fill:#009af9; stroke:none; fill-opacity:0" cx="557.139" cy="1345.39" r="2"/>
<circle clip-path="url(#clip102)" style="fill:#009af9; stroke:none; fill-opacity:0" cx="574.012" cy="1347.45" r="2"/>
<circle clip-path="url(#clip102)" style="fill:#009af9; stroke:none; fill-opacity:0" cx="590.885" cy="1344.02" r="2"/>
<circle clip-path="url(#clip102)" style="fill:#009af9; stroke:none; fill-opacity:0" cx="607.757" cy="1346.65" r="2"/>
<circle clip-path="url(#clip102)" style="fill:#009af9; stroke:none; fill-opacity:0" cx="624.63" cy="1355.8" r="2"/>
<circle clip-path="url(#clip102)" style="fill:#009af9; stroke:none; fill-opacity:0" cx="641.503" cy="1359.12" r="2"/>
<circle clip-path="url(#clip102)" style="fill:#009af9; stroke:none; fill-opacity:0" cx="658.375" cy="1359.92" r="2"/>
<circle clip-path="url(#clip102)" style="fill:#009af9; stroke:none; fill-opacity:0" cx="675.248" cy="1362.09" r="2"/>
<circle clip-path="url(#clip102)" style="fill:#009af9; stroke:none; fill-opacity:0" cx="692.121" cy="1365.07" r="2"/>
<circle clip-path="url(#clip102)" style="fill:#009af9; stroke:none; fill-opacity:0" cx="708.993" cy="1371.7" r="2"/>
<circle clip-path="url(#clip102)" style="fill:#009af9; stroke:none; fill-opacity:0" cx="725.866" cy="1366.78" r="2"/>
<circle clip-path="url(#clip102)" style="fill:#009af9; stroke:none; fill-opacity:0" cx="742.739" cy="1368.73" r="2"/>
<circle clip-path="url(#clip102)" style="fill:#009af9; stroke:none; fill-opacity:0" cx="759.611" cy="1372.39" r="2"/>
<circle clip-path="url(#clip102)" style="fill:#009af9; stroke:none; fill-opacity:0" cx="776.484" cy="1380.86" r="2"/>
<circle clip-path="url(#clip102)" style="fill:#009af9; stroke:none; fill-opacity:0" cx="793.357" cy="1374.56" r="2"/>
<circle clip-path="url(#clip102)" style="fill:#009af9; stroke:none; fill-opacity:0" cx="810.229" cy="1380.05" r="2"/>
<circle clip-path="url(#clip102)" style="fill:#009af9; stroke:none; fill-opacity:0" cx="827.102" cy="1378.68" r="2"/>
<circle clip-path="url(#clip102)" style="fill:#009af9; stroke:none; fill-opacity:0" cx="843.975" cy="1384.17" r="2"/>
<circle clip-path="url(#clip102)" style="fill:#009af9; stroke:none; fill-opacity:0" cx="860.847" cy="1381.2" r="2"/>
<circle clip-path="url(#clip102)" style="fill:#009af9; stroke:none; fill-opacity:0" cx="877.72" cy="1380.28" r="2"/>
<circle clip-path="url(#clip102)" style="fill:#009af9; stroke:none; fill-opacity:0" cx="894.593" cy="1388.63" r="2"/>
<circle clip-path="url(#clip102)" style="fill:#009af9; stroke:none; fill-opacity:0" cx="911.465" cy="1382.8" r="2"/>
<circle clip-path="url(#clip102)" style="fill:#009af9; stroke:none; fill-opacity:0" cx="928.338" cy="1384.63" r="2"/>
<circle clip-path="url(#clip102)" style="fill:#009af9; stroke:none; fill-opacity:0" cx="945.211" cy="1389.44" r="2"/>
<circle clip-path="url(#clip102)" style="fill:#009af9; stroke:none; fill-opacity:0" cx="962.083" cy="1391.84" r="2"/>
<circle clip-path="url(#clip102)" style="fill:#009af9; stroke:none; fill-opacity:0" cx="978.956" cy="1391.27" r="2"/>
<circle clip-path="url(#clip102)" style="fill:#009af9; stroke:none; fill-opacity:0" cx="995.829" cy="1393.21" r="2"/>
<circle clip-path="url(#clip102)" style="fill:#009af9; stroke:none; fill-opacity:0" cx="1012.7" cy="1400.88" r="2"/>
<circle clip-path="url(#clip102)" style="fill:#009af9; stroke:none; fill-opacity:0" cx="1029.57" cy="1401.22" r="2"/>
<circle clip-path="url(#clip102)" style="fill:#009af9; stroke:none; fill-opacity:0" cx="1046.45" cy="1394.47" r="2"/>
<circle clip-path="url(#clip102)" style="fill:#009af9; stroke:none; fill-opacity:0" cx="1063.32" cy="1393.21" r="2"/>
<circle clip-path="url(#clip102)" style="fill:#009af9; stroke:none; fill-opacity:0" cx="1080.19" cy="1397.67" r="2"/>
<circle clip-path="url(#clip102)" style="fill:#009af9; stroke:none; fill-opacity:0" cx="1097.06" cy="1400.76" r="2"/>
<circle clip-path="url(#clip102)" style="fill:#009af9; stroke:none; fill-opacity:0" cx="1113.94" cy="1399.39" r="2"/>
<circle clip-path="url(#clip102)" style="fill:#009af9; stroke:none; fill-opacity:0" cx="1130.81" cy="1390.81" r="2"/>
<circle clip-path="url(#clip102)" style="fill:#009af9; stroke:none; fill-opacity:0" cx="1147.68" cy="1401.68" r="2"/>
<circle clip-path="url(#clip102)" style="fill:#009af9; stroke:none; fill-opacity:0" cx="1164.56" cy="1399.16" r="2"/>
<circle clip-path="url(#clip102)" style="fill:#009af9; stroke:none; fill-opacity:0" cx="1181.43" cy="1408.08" r="2"/>
<circle clip-path="url(#clip102)" style="fill:#009af9; stroke:none; fill-opacity:0" cx="1198.3" cy="1411.52" r="2"/>
<circle clip-path="url(#clip102)" style="fill:#009af9; stroke:none; fill-opacity:0" cx="1215.17" cy="1405.68" r="2"/>
<circle clip-path="url(#clip102)" style="fill:#009af9; stroke:none; fill-opacity:0" cx="1232.05" cy="1414.72" r="2"/>
<circle clip-path="url(#clip102)" style="fill:#009af9; stroke:none; fill-opacity:0" cx="1248.92" cy="1406.71" r="2"/>
<circle clip-path="url(#clip102)" style="fill:#009af9; stroke:none; fill-opacity:0" cx="1265.79" cy="1411.29" r="2"/>
<circle clip-path="url(#clip102)" style="fill:#009af9; stroke:none; fill-opacity:0" cx="1282.66" cy="1408.77" r="2"/>
<circle clip-path="url(#clip102)" style="fill:#009af9; stroke:none; fill-opacity:0" cx="1299.54" cy="1414.72" r="2"/>
<circle clip-path="url(#clip102)" style="fill:#009af9; stroke:none; fill-opacity:0" cx="1316.41" cy="1416.55" r="2"/>
<circle clip-path="url(#clip102)" style="fill:#009af9; stroke:none; fill-opacity:0" cx="1333.28" cy="1411.86" r="2"/>
<circle clip-path="url(#clip102)" style="fill:#009af9; stroke:none; fill-opacity:0" cx="1350.15" cy="1412.32" r="2"/>
<circle clip-path="url(#clip102)" style="fill:#009af9; stroke:none; fill-opacity:0" cx="1367.03" cy="1415.06" r="2"/>
<circle clip-path="url(#clip102)" style="fill:#009af9; stroke:none; fill-opacity:0" cx="1383.9" cy="1413.46" r="2"/>
<circle clip-path="url(#clip102)" style="fill:#009af9; stroke:none; fill-opacity:0" cx="1400.77" cy="1413.12" r="2"/>
<circle clip-path="url(#clip102)" style="fill:#009af9; stroke:none; fill-opacity:0" cx="1417.65" cy="1419.64" r="2"/>
<circle clip-path="url(#clip102)" style="fill:#009af9; stroke:none; fill-opacity:0" cx="1434.52" cy="1422.38" r="2"/>
<circle clip-path="url(#clip102)" style="fill:#009af9; stroke:none; fill-opacity:0" cx="1451.39" cy="1426.04" r="2"/>
<circle clip-path="url(#clip102)" style="fill:#009af9; stroke:none; fill-opacity:0" cx="1468.26" cy="1423.76" r="2"/>
<circle clip-path="url(#clip102)" style="fill:#009af9; stroke:none; fill-opacity:0" cx="1485.14" cy="1424.67" r="2"/>
<circle clip-path="url(#clip102)" style="fill:#009af9; stroke:none; fill-opacity:0" cx="1502.01" cy="1431.99" r="2"/>
<circle clip-path="url(#clip102)" style="fill:#009af9; stroke:none; fill-opacity:0" cx="1518.88" cy="1424.9" r="2"/>
<circle clip-path="url(#clip102)" style="fill:#009af9; stroke:none; fill-opacity:0" cx="1535.75" cy="1431.65" r="2"/>
<circle clip-path="url(#clip102)" style="fill:#009af9; stroke:none; fill-opacity:0" cx="1552.63" cy="1433.02" r="2"/>
<circle clip-path="url(#clip102)" style="fill:#009af9; stroke:none; fill-opacity:0" cx="1569.5" cy="1435.77" r="2"/>
<circle clip-path="url(#clip102)" style="fill:#009af9; stroke:none; fill-opacity:0" cx="1586.37" cy="1433.02" r="2"/>
<circle clip-path="url(#clip102)" style="fill:#009af9; stroke:none; fill-opacity:0" cx="1603.24" cy="1438.74" r="2"/>
<circle clip-path="url(#clip102)" style="fill:#009af9; stroke:none; fill-opacity:0" cx="1620.12" cy="1439.31" r="2"/>
<circle clip-path="url(#clip102)" style="fill:#009af9; stroke:none; fill-opacity:0" cx="1636.99" cy="1438.4" r="2"/>
<circle clip-path="url(#clip102)" style="fill:#009af9; stroke:none; fill-opacity:0" cx="1653.86" cy="1448.35" r="2"/>
<circle clip-path="url(#clip102)" style="fill:#009af9; stroke:none; fill-opacity:0" cx="1670.74" cy="1446.06" r="2"/>
<circle clip-path="url(#clip102)" style="fill:#009af9; stroke:none; fill-opacity:0" cx="1687.61" cy="1447.44" r="2"/>
<circle clip-path="url(#clip102)" style="fill:#009af9; stroke:none; fill-opacity:0" cx="1704.48" cy="1450.07" r="2"/>
<circle clip-path="url(#clip102)" style="fill:#009af9; stroke:none; fill-opacity:0" cx="1721.35" cy="1456.02" r="2"/>
<circle clip-path="url(#clip102)" style="fill:#009af9; stroke:none; fill-opacity:0" cx="1738.23" cy="1458.08" r="2"/>
<circle clip-path="url(#clip102)" style="fill:#009af9; stroke:none; fill-opacity:0" cx="1755.1" cy="1458.19" r="2"/>
<circle clip-path="url(#clip102)" style="fill:#009af9; stroke:none; fill-opacity:0" cx="1771.97" cy="1463.34" r="2"/>
<circle clip-path="url(#clip102)" style="fill:#009af9; stroke:none; fill-opacity:0" cx="1788.84" cy="1463.22" r="2"/>
<circle clip-path="url(#clip102)" style="fill:#009af9; stroke:none; fill-opacity:0" cx="1805.72" cy="1461.62" r="2"/>
<circle clip-path="url(#clip102)" style="fill:#009af9; stroke:none; fill-opacity:0" cx="1822.59" cy="1459.79" r="2"/>
<circle clip-path="url(#clip102)" style="fill:#009af9; stroke:none; fill-opacity:0" cx="1839.46" cy="1465.05" r="2"/>
<circle clip-path="url(#clip102)" style="fill:#009af9; stroke:none; fill-opacity:0" cx="1856.33" cy="1464.14" r="2"/>
<circle clip-path="url(#clip102)" style="fill:#009af9; stroke:none; fill-opacity:0" cx="1873.21" cy="1464.83" r="2"/>
<circle clip-path="url(#clip102)" style="fill:#009af9; stroke:none; fill-opacity:0" cx="1890.08" cy="1465.17" r="2"/>
<circle clip-path="url(#clip102)" style="fill:#009af9; stroke:none; fill-opacity:0" cx="1906.95" cy="1466.66" r="2"/>
<circle clip-path="url(#clip102)" style="fill:#009af9; stroke:none; fill-opacity:0" cx="1923.83" cy="1465.28" r="2"/>
<circle clip-path="url(#clip102)" style="fill:#009af9; stroke:none; fill-opacity:0" cx="1940.7" cy="1467.11" r="2"/>
<circle clip-path="url(#clip102)" style="fill:#009af9; stroke:none; fill-opacity:0" cx="1957.57" cy="1468.49" r="2"/>
<circle clip-path="url(#clip102)" style="fill:#009af9; stroke:none; fill-opacity:0" cx="1974.44" cy="1467.91" r="2"/>
<circle clip-path="url(#clip102)" style="fill:#009af9; stroke:none; fill-opacity:0" cx="1991.32" cy="1464.71" r="2"/>
<circle clip-path="url(#clip102)" style="fill:#009af9; stroke:none; fill-opacity:0" cx="2008.19" cy="1467.91" r="2"/>
<circle clip-path="url(#clip102)" style="fill:#009af9; stroke:none; fill-opacity:0" cx="2025.06" cy="1470.43" r="2"/>
<circle clip-path="url(#clip102)" style="fill:#009af9; stroke:none; fill-opacity:0" cx="2041.93" cy="1472.61" r="2"/>
<circle clip-path="url(#clip102)" style="fill:#009af9; stroke:none; fill-opacity:0" cx="2058.81" cy="1472.95" r="2"/>
<circle clip-path="url(#clip102)" style="fill:#009af9; stroke:none; fill-opacity:0" cx="2075.68" cy="1474.89" r="2"/>
<circle clip-path="url(#clip102)" style="fill:#009af9; stroke:none; fill-opacity:0" cx="2092.55" cy="1475.24" r="2"/>
<circle clip-path="url(#clip102)" style="fill:#009af9; stroke:none; fill-opacity:0" cx="2109.43" cy="1477.75" r="2"/>
<circle clip-path="url(#clip102)" style="fill:#009af9; stroke:none; fill-opacity:0" cx="2126.3" cy="1481.19" r="2"/>
<circle clip-path="url(#clip102)" style="fill:#009af9; stroke:none; fill-opacity:0" cx="2143.17" cy="1482.56" r="2"/>
<circle clip-path="url(#clip102)" style="fill:#009af9; stroke:none; fill-opacity:0" cx="2160.04" cy="1483.36" r="2"/>
<circle clip-path="url(#clip102)" style="fill:#009af9; stroke:none; fill-opacity:0" cx="2176.92" cy="1485.08" r="2"/>
<circle clip-path="url(#clip102)" style="fill:#009af9; stroke:none; fill-opacity:0" cx="2193.79" cy="1484.73" r="2"/>
<circle clip-path="url(#clip102)" style="fill:#009af9; stroke:none; fill-opacity:0" cx="2210.66" cy="1485.88" r="2"/>
<circle clip-path="url(#clip102)" style="fill:#009af9; stroke:none; fill-opacity:0" cx="2227.53" cy="1486.33" r="2"/>
<path clip-path="url(#clip100)" d="M2017.22 272.585 L2281.98 272.585 L2281.98 168.905 L2017.22 168.905  Z" fill="#ffffff" fill-rule="evenodd" fill-opacity="1"/>
<polyline clip-path="url(#clip100)" style="stroke:#000000; stroke-linecap:round; stroke-linejoin:round; stroke-width:4; stroke-opacity:1; fill:none" points="2017.22,272.585 2281.98,272.585 2281.98,168.905 2017.22,168.905 2017.22,272.585 "/>
<path clip-path="url(#clip100)" d="M2040.81 241.481 L2182.36 241.481 L2182.36 200.009 L2040.81 200.009 L2040.81 241.481  Z" fill="#009af9" fill-rule="evenodd" fill-opacity="1"/>
<polyline clip-path="url(#clip100)" style="stroke:#000000; stroke-linecap:round; stroke-linejoin:round; stroke-width:4; stroke-opacity:1; fill:none" points="2040.81,241.481 2182.36,241.481 2182.36,200.009 2040.81,200.009 2040.81,241.481 "/>
<path clip-path="url(#clip100)" d="M2219.8 240.432 Q2217.99 245.062 2216.28 246.474 Q2214.57 247.886 2211.7 247.886 L2208.29 247.886 L2208.29 244.321 L2210.79 244.321 Q2212.55 244.321 2213.53 243.488 Q2214.5 242.654 2215.68 239.552 L2216.44 237.608 L2205.96 212.099 L2210.47 212.099 L2218.57 232.377 L2226.67 212.099 L2231.19 212.099 L2219.8 240.432 Z" fill="#000000" fill-rule="nonzero" fill-opacity="1" /><path clip-path="url(#clip100)" d="M2238.48 234.089 L2246.12 234.089 L2246.12 207.724 L2237.81 209.391 L2237.81 205.131 L2246.07 203.465 L2250.75 203.465 L2250.75 234.089 L2258.39 234.089 L2258.39 238.025 L2238.48 238.025 L2238.48 234.089 Z" fill="#000000" fill-rule="nonzero" fill-opacity="1" /></svg>
