<?xml version="1.0" encoding="utf-8"?>
<svg xmlns="http://www.w3.org/2000/svg" xmlns:xlink="http://www.w3.org/1999/xlink" width="600" height="400" viewBox="0 0 2400 1600">
<defs>
  <clipPath id="clip040">
    <rect x="0" y="0" width="2400" height="1600"/>
  </clipPath>
</defs>
<path clip-path="url(#clip040)" d="M0 1600 L2400 1600 L2400 0 L0 0  Z" fill="#ffffff" fill-rule="evenodd" fill-opacity="1"/>
<defs>
  <clipPath id="clip041">
    <rect x="480" y="0" width="1681" height="1600"/>
  </clipPath>
</defs>
<path clip-path="url(#clip040)" d="M201.019 1486.45 L2352.76 1486.45 L2352.76 123.472 L201.019 123.472  Z" fill="#ffffff" fill-rule="evenodd" fill-opacity="1"/>
<defs>
  <clipPath id="clip042">
    <rect x="201" y="123" width="2153" height="1364"/>
  </clipPath>
</defs>
<polyline clip-path="url(#clip042)" style="stroke:#000000; stroke-linecap:round; stroke-linejoin:round; stroke-width:2; stroke-opacity:0.1; fill:none" points="319.369,1486.45 319.369,123.472 "/>
<polyline clip-path="url(#clip042)" style="stroke:#000000; stroke-linecap:round; stroke-linejoin:round; stroke-width:2; stroke-opacity:0.1; fill:none" points="746.832,1486.45 746.832,123.472 "/>
<polyline clip-path="url(#clip042)" style="stroke:#000000; stroke-linecap:round; stroke-linejoin:round; stroke-width:2; stroke-opacity:0.1; fill:none" points="1174.3,1486.45 1174.3,123.472 "/>
<polyline clip-path="url(#clip042)" style="stroke:#000000; stroke-linecap:round; stroke-linejoin:round; stroke-width:2; stroke-opacity:0.1; fill:none" points="1601.76,1486.45 1601.76,123.472 "/>
<polyline clip-path="url(#clip042)" style="stroke:#000000; stroke-linecap:round; stroke-linejoin:round; stroke-width:2; stroke-opacity:0.1; fill:none" points="2029.22,1486.45 2029.22,123.472 "/>
<polyline clip-path="url(#clip042)" style="stroke:#000000; stroke-linecap:round; stroke-linejoin:round; stroke-width:2; stroke-opacity:0.1; fill:none" points="201.019,1486.45 2352.76,1486.45 "/>
<polyline clip-path="url(#clip042)" style="stroke:#000000; stroke-linecap:round; stroke-linejoin:round; stroke-width:2; stroke-opacity:0.1; fill:none" points="201.019,1254.02 2352.76,1254.02 "/>
<polyline clip-path="url(#clip042)" style="stroke:#000000; stroke-linecap:round; stroke-linejoin:round; stroke-width:2; stroke-opacity:0.1; fill:none" points="201.019,1021.59 2352.76,1021.59 "/>
<polyline clip-path="url(#clip042)" style="stroke:#000000; stroke-linecap:round; stroke-linejoin:round; stroke-width:2; stroke-opacity:0.1; fill:none" points="201.019,789.155 2352.76,789.155 "/>
<polyline clip-path="url(#clip042)" style="stroke:#000000; stroke-linecap:round; stroke-linejoin:round; stroke-width:2; stroke-opacity:0.1; fill:none" points="201.019,556.724 2352.76,556.724 "/>
<polyline clip-path="url(#clip042)" style="stroke:#000000; stroke-linecap:round; stroke-linejoin:round; stroke-width:2; stroke-opacity:0.1; fill:none" points="201.019,324.293 2352.76,324.293 "/>
<polyline clip-path="url(#clip040)" style="stroke:#000000; stroke-linecap:round; stroke-linejoin:round; stroke-width:4; stroke-opacity:1; fill:none" points="201.019,1486.45 2352.76,1486.45 "/>
<polyline clip-path="url(#clip040)" style="stroke:#000000; stroke-linecap:round; stroke-linejoin:round; stroke-width:4; stroke-opacity:1; fill:none" points="319.369,1486.45 319.369,1467.55 "/>
<polyline clip-path="url(#clip040)" style="stroke:#000000; stroke-linecap:round; stroke-linejoin:round; stroke-width:4; stroke-opacity:1; fill:none" points="746.832,1486.45 746.832,1467.55 "/>
<polyline clip-path="url(#clip040)" style="stroke:#000000; stroke-linecap:round; stroke-linejoin:round; stroke-width:4; stroke-opacity:1; fill:none" points="1174.3,1486.45 1174.3,1467.55 "/>
<polyline clip-path="url(#clip040)" style="stroke:#000000; stroke-linecap:round; stroke-linejoin:round; stroke-width:4; stroke-opacity:1; fill:none" points="1601.76,1486.45 1601.76,1467.55 "/>
<polyline clip-path="url(#clip040)" style="stroke:#000000; stroke-linecap:round; stroke-linejoin:round; stroke-width:4; stroke-opacity:1; fill:none" points="2029.22,1486.45 2029.22,1467.55 "/>
<path clip-path="url(#clip040)" d="M319.369 1517.37 Q315.758 1517.37 313.929 1520.93 Q312.123 1524.47 312.123 1531.6 Q312.123 1538.71 313.929 1542.27 Q315.758 1545.82 319.369 1545.82 Q323.003 1545.82 324.808 1542.27 Q326.637 1538.71 326.637 1531.6 Q326.637 1524.47 324.808 1520.93 Q323.003 1517.37 319.369 1517.37 M319.369 1513.66 Q325.179 1513.66 328.234 1518.27 Q331.313 1522.85 331.313 1531.6 Q331.313 1540.33 328.234 1544.94 Q325.179 1549.52 319.369 1549.52 Q313.558 1549.52 310.48 1544.94 Q307.424 1540.33 307.424 1531.6 Q307.424 1522.85 310.48 1518.27 Q313.558 1513.66 319.369 1513.66 Z" fill="#000000" fill-rule="nonzero" fill-opacity="1" /><path clip-path="url(#clip040)" d="M721.532 1514.29 L739.888 1514.29 L739.888 1518.22 L725.814 1518.22 L725.814 1526.7 Q726.833 1526.35 727.851 1526.19 Q728.87 1526 729.888 1526 Q735.675 1526 739.055 1529.17 Q742.434 1532.34 742.434 1537.76 Q742.434 1543.34 738.962 1546.44 Q735.49 1549.52 729.171 1549.52 Q726.995 1549.52 724.726 1549.15 Q722.481 1548.78 720.073 1548.04 L720.073 1543.34 Q722.157 1544.47 724.379 1545.03 Q726.601 1545.58 729.078 1545.58 Q733.083 1545.58 735.42 1543.48 Q737.758 1541.37 737.758 1537.76 Q737.758 1534.15 735.42 1532.04 Q733.083 1529.94 729.078 1529.94 Q727.203 1529.94 725.328 1530.35 Q723.476 1530.77 721.532 1531.65 L721.532 1514.29 Z" fill="#000000" fill-rule="nonzero" fill-opacity="1" /><path clip-path="url(#clip040)" d="M761.647 1517.37 Q758.036 1517.37 756.207 1520.93 Q754.402 1524.47 754.402 1531.6 Q754.402 1538.71 756.207 1542.27 Q758.036 1545.82 761.647 1545.82 Q765.281 1545.82 767.087 1542.27 Q768.916 1538.71 768.916 1531.6 Q768.916 1524.47 767.087 1520.93 Q765.281 1517.37 761.647 1517.37 M761.647 1513.66 Q767.457 1513.66 770.513 1518.27 Q773.592 1522.85 773.592 1531.6 Q773.592 1540.33 770.513 1544.94 Q767.457 1549.52 761.647 1549.52 Q755.837 1549.52 752.758 1544.94 Q749.703 1540.33 749.703 1531.6 Q749.703 1522.85 752.758 1518.27 Q755.837 1513.66 761.647 1513.66 Z" fill="#000000" fill-rule="nonzero" fill-opacity="1" /><path clip-path="url(#clip040)" d="M1133.9 1544.91 L1141.54 1544.91 L1141.54 1518.55 L1133.23 1520.21 L1133.23 1515.95 L1141.5 1514.29 L1146.17 1514.29 L1146.17 1544.91 L1153.81 1544.91 L1153.81 1548.85 L1133.9 1548.85 L1133.9 1544.91 Z" fill="#000000" fill-rule="nonzero" fill-opacity="1" /><path clip-path="url(#clip040)" d="M1173.25 1517.37 Q1169.64 1517.37 1167.81 1520.93 Q1166.01 1524.47 1166.01 1531.6 Q1166.01 1538.71 1167.81 1542.27 Q1169.64 1545.82 1173.25 1545.82 Q1176.89 1545.82 1178.69 1542.27 Q1180.52 1538.71 1180.52 1531.6 Q1180.52 1524.47 1178.69 1520.93 Q1176.89 1517.37 1173.25 1517.37 M1173.25 1513.66 Q1179.06 1513.66 1182.12 1518.27 Q1185.2 1522.85 1185.2 1531.6 Q1185.2 1540.33 1182.12 1544.94 Q1179.06 1549.52 1173.25 1549.52 Q1167.44 1549.52 1164.37 1544.94 Q1161.31 1540.33 1161.31 1531.6 Q1161.31 1522.85 1164.37 1518.27 Q1167.44 1513.66 1173.25 1513.66 Z" fill="#000000" fill-rule="nonzero" fill-opacity="1" /><path clip-path="url(#clip040)" d="M1203.42 1517.37 Q1199.81 1517.37 1197.98 1520.93 Q1196.17 1524.47 1196.17 1531.6 Q1196.17 1538.71 1197.98 1542.27 Q1199.81 1545.82 1203.42 1545.82 Q1207.05 1545.82 1208.86 1542.27 Q1210.68 1538.71 1210.68 1531.6 Q1210.68 1524.47 1208.86 1520.93 Q1207.05 1517.37 1203.42 1517.37 M1203.42 1513.66 Q1209.23 1513.66 1212.28 1518.27 Q1215.36 1522.85 1215.36 1531.6 Q1215.36 1540.33 1212.28 1544.94 Q1209.23 1549.52 1203.42 1549.52 Q1197.61 1549.52 1194.53 1544.94 Q1191.47 1540.33 1191.47 1531.6 Q1191.47 1522.85 1194.53 1518.27 Q1197.61 1513.66 1203.42 1513.66 Z" fill="#000000" fill-rule="nonzero" fill-opacity="1" /><path clip-path="url(#clip040)" d="M1561.37 1544.91 L1569.01 1544.91 L1569.01 1518.55 L1560.7 1520.21 L1560.7 1515.95 L1568.96 1514.29 L1573.64 1514.29 L1573.64 1544.91 L1581.27 1544.91 L1581.27 1548.85 L1561.37 1548.85 L1561.37 1544.91 Z" fill="#000000" fill-rule="nonzero" fill-opacity="1" /><path clip-path="url(#clip040)" d="M1590.76 1514.29 L1609.12 1514.29 L1609.12 1518.22 L1595.05 1518.22 L1595.05 1526.7 Q1596.07 1526.35 1597.08 1526.19 Q1598.1 1526 1599.12 1526 Q1604.91 1526 1608.29 1529.17 Q1611.67 1532.34 1611.67 1537.76 Q1611.67 1543.34 1608.2 1546.44 Q1604.72 1549.52 1598.4 1549.52 Q1596.23 1549.52 1593.96 1549.15 Q1591.71 1548.78 1589.31 1548.04 L1589.31 1543.34 Q1591.39 1544.47 1593.61 1545.03 Q1595.83 1545.58 1598.31 1545.58 Q1602.32 1545.58 1604.65 1543.48 Q1606.99 1541.37 1606.99 1537.76 Q1606.99 1534.15 1604.65 1532.04 Q1602.32 1529.94 1598.31 1529.94 Q1596.44 1529.94 1594.56 1530.35 Q1592.71 1530.77 1590.76 1531.65 L1590.76 1514.29 Z" fill="#000000" fill-rule="nonzero" fill-opacity="1" /><path clip-path="url(#clip040)" d="M1630.88 1517.37 Q1627.27 1517.37 1625.44 1520.93 Q1623.63 1524.47 1623.63 1531.6 Q1623.63 1538.71 1625.44 1542.27 Q1627.27 1545.82 1630.88 1545.82 Q1634.51 1545.82 1636.32 1542.27 Q1638.15 1538.71 1638.15 1531.6 Q1638.15 1524.47 1636.32 1520.93 Q1634.51 1517.37 1630.88 1517.37 M1630.88 1513.66 Q1636.69 1513.66 1639.75 1518.27 Q1642.82 1522.85 1642.82 1531.6 Q1642.82 1540.33 1639.75 1544.94 Q1636.69 1549.52 1630.88 1549.52 Q1625.07 1549.52 1621.99 1544.94 Q1618.94 1540.33 1618.94 1531.6 Q1618.94 1522.85 1621.99 1518.27 Q1625.07 1513.66 1630.88 1513.66 Z" fill="#000000" fill-rule="nonzero" fill-opacity="1" /><path clip-path="url(#clip040)" d="M1992.92 1544.91 L2009.24 1544.91 L2009.24 1548.85 L1987.29 1548.85 L1987.29 1544.91 Q1989.95 1542.16 1994.54 1537.53 Q1999.14 1532.88 2000.32 1531.53 Q2002.57 1529.01 2003.45 1527.27 Q2004.35 1525.51 2004.35 1523.82 Q2004.35 1521.07 2002.41 1519.33 Q2000.49 1517.6 1997.38 1517.6 Q1995.18 1517.6 1992.73 1518.36 Q1990.3 1519.13 1987.52 1520.68 L1987.52 1515.95 Q1990.35 1514.82 1992.8 1514.24 Q1995.25 1513.66 1997.29 1513.66 Q2002.66 1513.66 2005.86 1516.35 Q2009.05 1519.03 2009.05 1523.52 Q2009.05 1525.65 2008.24 1527.57 Q2007.45 1529.47 2005.35 1532.07 Q2004.77 1532.74 2001.67 1535.95 Q1998.56 1539.15 1992.92 1544.91 Z" fill="#000000" fill-rule="nonzero" fill-opacity="1" /><path clip-path="url(#clip040)" d="M2029.05 1517.37 Q2025.44 1517.37 2023.61 1520.93 Q2021.8 1524.47 2021.8 1531.6 Q2021.8 1538.71 2023.61 1542.27 Q2025.44 1545.82 2029.05 1545.82 Q2032.68 1545.82 2034.49 1542.27 Q2036.32 1538.71 2036.32 1531.6 Q2036.32 1524.47 2034.49 1520.93 Q2032.68 1517.37 2029.05 1517.37 M2029.05 1513.66 Q2034.86 1513.66 2037.92 1518.27 Q2040.99 1522.85 2040.99 1531.6 Q2040.99 1540.33 2037.92 1544.94 Q2034.86 1549.52 2029.05 1549.52 Q2023.24 1549.52 2020.16 1544.94 Q2017.11 1540.33 2017.11 1531.6 Q2017.11 1522.85 2020.16 1518.27 Q2023.24 1513.66 2029.05 1513.66 Z" fill="#000000" fill-rule="nonzero" fill-opacity="1" /><path clip-path="url(#clip040)" d="M2059.21 1517.37 Q2055.6 1517.37 2053.77 1520.93 Q2051.97 1524.47 2051.97 1531.6 Q2051.97 1538.71 2053.77 1542.27 Q2055.6 1545.82 2059.21 1545.82 Q2062.85 1545.82 2064.65 1542.27 Q2066.48 1538.71 2066.48 1531.6 Q2066.48 1524.47 2064.65 1520.93 Q2062.85 1517.37 2059.21 1517.37 M2059.21 1513.66 Q2065.02 1513.66 2068.08 1518.27 Q2071.16 1522.85 2071.16 1531.6 Q2071.16 1540.33 2068.08 1544.94 Q2065.02 1549.52 2059.21 1549.52 Q2053.4 1549.52 2050.32 1544.94 Q2047.27 1540.33 2047.27 1531.6 Q2047.27 1522.85 2050.32 1518.27 Q2053.4 1513.66 2059.21 1513.66 Z" fill="#000000" fill-rule="nonzero" fill-opacity="1" /><polyline clip-path="url(#clip040)" style="stroke:#000000; stroke-linecap:round; stroke-linejoin:round; stroke-width:4; stroke-opacity:1; fill:none" points="201.019,1486.45 201.019,123.472 "/>
<polyline clip-path="url(#clip040)" style="stroke:#000000; stroke-linecap:round; stroke-linejoin:round; stroke-width:4; stroke-opacity:1; fill:none" points="201.019,1486.45 219.917,1486.45 "/>
<polyline clip-path="url(#clip040)" style="stroke:#000000; stroke-linecap:round; stroke-linejoin:round; stroke-width:4; stroke-opacity:1; fill:none" points="201.019,1254.02 219.917,1254.02 "/>
<polyline clip-path="url(#clip040)" style="stroke:#000000; stroke-linecap:round; stroke-linejoin:round; stroke-width:4; stroke-opacity:1; fill:none" points="201.019,1021.59 219.917,1021.59 "/>
<polyline clip-path="url(#clip040)" style="stroke:#000000; stroke-linecap:round; stroke-linejoin:round; stroke-width:4; stroke-opacity:1; fill:none" points="201.019,789.155 219.917,789.155 "/>
<polyline clip-path="url(#clip040)" style="stroke:#000000; stroke-linecap:round; stroke-linejoin:round; stroke-width:4; stroke-opacity:1; fill:none" points="201.019,556.724 219.917,556.724 "/>
<polyline clip-path="url(#clip040)" style="stroke:#000000; stroke-linecap:round; stroke-linejoin:round; stroke-width:4; stroke-opacity:1; fill:none" points="201.019,324.293 219.917,324.293 "/>
<path clip-path="url(#clip040)" d="M153.075 1472.25 Q149.464 1472.25 147.635 1475.81 Q145.83 1479.35 145.83 1486.48 Q145.83 1493.59 147.635 1497.15 Q149.464 1500.7 153.075 1500.7 Q156.709 1500.7 158.515 1497.15 Q160.343 1493.59 160.343 1486.48 Q160.343 1479.35 158.515 1475.81 Q156.709 1472.25 153.075 1472.25 M153.075 1468.54 Q158.885 1468.54 161.941 1473.15 Q165.019 1477.73 165.019 1486.48 Q165.019 1495.21 161.941 1499.82 Q158.885 1504.4 153.075 1504.4 Q147.265 1504.4 144.186 1499.82 Q141.131 1495.21 141.131 1486.48 Q141.131 1477.73 144.186 1473.15 Q147.265 1468.54 153.075 1468.54 Z" fill="#000000" fill-rule="nonzero" fill-opacity="1" /><path clip-path="url(#clip040)" d="M82.7975 1236.74 L101.154 1236.74 L101.154 1240.67 L87.0799 1240.67 L87.0799 1249.14 Q88.0984 1248.8 89.1169 1248.63 Q90.1354 1248.45 91.1539 1248.45 Q96.941 1248.45 100.321 1251.62 Q103.7 1254.79 103.7 1260.21 Q103.7 1265.79 100.228 1268.89 Q96.7558 1271.97 90.4364 1271.97 Q88.2604 1271.97 85.9919 1271.6 Q83.7466 1271.23 81.3392 1270.49 L81.3392 1265.79 Q83.4225 1266.92 85.6447 1267.48 Q87.8669 1268.03 90.3438 1268.03 Q94.3484 1268.03 96.6863 1265.93 Q99.0243 1263.82 99.0243 1260.21 Q99.0243 1256.6 96.6863 1254.49 Q94.3484 1252.38 90.3438 1252.38 Q88.4688 1252.38 86.5938 1252.8 Q84.7419 1253.22 82.7975 1254.1 L82.7975 1236.74 Z" fill="#000000" fill-rule="nonzero" fill-opacity="1" /><path clip-path="url(#clip040)" d="M122.913 1239.82 Q119.302 1239.82 117.473 1243.38 Q115.668 1246.92 115.668 1254.05 Q115.668 1261.16 117.473 1264.72 Q119.302 1268.26 122.913 1268.26 Q126.547 1268.26 128.353 1264.72 Q130.182 1261.16 130.182 1254.05 Q130.182 1246.92 128.353 1243.38 Q126.547 1239.82 122.913 1239.82 M122.913 1236.11 Q128.723 1236.11 131.779 1240.72 Q134.857 1245.3 134.857 1254.05 Q134.857 1262.78 131.779 1267.38 Q128.723 1271.97 122.913 1271.97 Q117.103 1271.97 114.024 1267.38 Q110.969 1262.78 110.969 1254.05 Q110.969 1245.3 114.024 1240.72 Q117.103 1236.11 122.913 1236.11 Z" fill="#000000" fill-rule="nonzero" fill-opacity="1" /><path clip-path="url(#clip040)" d="M153.075 1239.82 Q149.464 1239.82 147.635 1243.38 Q145.83 1246.92 145.83 1254.05 Q145.83 1261.16 147.635 1264.72 Q149.464 1268.26 153.075 1268.26 Q156.709 1268.26 158.515 1264.72 Q160.343 1261.16 160.343 1254.05 Q160.343 1246.92 158.515 1243.38 Q156.709 1239.82 153.075 1239.82 M153.075 1236.11 Q158.885 1236.11 161.941 1240.72 Q165.019 1245.3 165.019 1254.05 Q165.019 1262.78 161.941 1267.38 Q158.885 1271.97 153.075 1271.97 Q147.265 1271.97 144.186 1267.38 Q141.131 1262.78 141.131 1254.05 Q141.131 1245.3 144.186 1240.72 Q147.265 1236.11 153.075 1236.11 Z" fill="#000000" fill-rule="nonzero" fill-opacity="1" /><path clip-path="url(#clip040)" d="M53.3995 1034.93 L61.0384 1034.93 L61.0384 1008.56 L52.7282 1010.23 L52.7282 1005.97 L60.9921 1004.31 L65.668 1004.31 L65.668 1034.93 L73.3068 1034.93 L73.3068 1038.87 L53.3995 1038.87 L53.3995 1034.93 Z" fill="#000000" fill-rule="nonzero" fill-opacity="1" /><path clip-path="url(#clip040)" d="M92.7512 1007.38 Q89.1401 1007.38 87.3114 1010.95 Q85.5058 1014.49 85.5058 1021.62 Q85.5058 1028.73 87.3114 1032.29 Q89.1401 1035.83 92.7512 1035.83 Q96.3854 1035.83 98.1909 1032.29 Q100.02 1028.73 100.02 1021.62 Q100.02 1014.49 98.1909 1010.95 Q96.3854 1007.38 92.7512 1007.38 M92.7512 1003.68 Q98.5613 1003.68 101.617 1008.29 Q104.696 1012.87 104.696 1021.62 Q104.696 1030.35 101.617 1034.95 Q98.5613 1039.54 92.7512 1039.54 Q86.941 1039.54 83.8623 1034.95 Q80.8068 1030.35 80.8068 1021.62 Q80.8068 1012.87 83.8623 1008.29 Q86.941 1003.68 92.7512 1003.68 Z" fill="#000000" fill-rule="nonzero" fill-opacity="1" /><path clip-path="url(#clip040)" d="M122.913 1007.38 Q119.302 1007.38 117.473 1010.95 Q115.668 1014.49 115.668 1021.62 Q115.668 1028.73 117.473 1032.29 Q119.302 1035.83 122.913 1035.83 Q126.547 1035.83 128.353 1032.29 Q130.182 1028.73 130.182 1021.62 Q130.182 1014.49 128.353 1010.95 Q126.547 1007.38 122.913 1007.38 M122.913 1003.68 Q128.723 1003.68 131.779 1008.29 Q134.857 1012.87 134.857 1021.62 Q134.857 1030.35 131.779 1034.95 Q128.723 1039.54 122.913 1039.54 Q117.103 1039.54 114.024 1034.95 Q110.969 1030.35 110.969 1021.62 Q110.969 1012.87 114.024 1008.29 Q117.103 1003.68 122.913 1003.68 Z" fill="#000000" fill-rule="nonzero" fill-opacity="1" /><path clip-path="url(#clip040)" d="M153.075 1007.38 Q149.464 1007.38 147.635 1010.95 Q145.83 1014.49 145.83 1021.62 Q145.83 1028.73 147.635 1032.29 Q149.464 1035.83 153.075 1035.83 Q156.709 1035.83 158.515 1032.29 Q160.343 1028.73 160.343 1021.62 Q160.343 1014.49 158.515 1010.95 Q156.709 1007.38 153.075 1007.38 M153.075 1003.68 Q158.885 1003.68 161.941 1008.29 Q165.019 1012.87 165.019 1021.62 Q165.019 1030.35 161.941 1034.95 Q158.885 1039.54 153.075 1039.54 Q147.265 1039.54 144.186 1034.95 Q141.131 1030.35 141.131 1021.62 Q141.131 1012.87 144.186 1008.29 Q147.265 1003.68 153.075 1003.68 Z" fill="#000000" fill-rule="nonzero" fill-opacity="1" /><path clip-path="url(#clip040)" d="M53.3995 802.5 L61.0384 802.5 L61.0384 776.134 L52.7282 777.801 L52.7282 773.541 L60.9921 771.875 L65.668 771.875 L65.668 802.5 L73.3068 802.5 L73.3068 806.435 L53.3995 806.435 L53.3995 802.5 Z" fill="#000000" fill-rule="nonzero" fill-opacity="1" /><path clip-path="url(#clip040)" d="M82.7975 771.875 L101.154 771.875 L101.154 775.81 L87.0799 775.81 L87.0799 784.282 Q88.0984 783.935 89.1169 783.773 Q90.1354 783.588 91.1539 783.588 Q96.941 783.588 100.321 786.759 Q103.7 789.93 103.7 795.347 Q103.7 800.925 100.228 804.027 Q96.7558 807.106 90.4364 807.106 Q88.2604 807.106 85.9919 806.736 Q83.7466 806.365 81.3392 805.625 L81.3392 800.925 Q83.4225 802.06 85.6447 802.615 Q87.8669 803.171 90.3438 803.171 Q94.3484 803.171 96.6863 801.064 Q99.0243 798.958 99.0243 795.347 Q99.0243 791.736 96.6863 789.629 Q94.3484 787.523 90.3438 787.523 Q88.4688 787.523 86.5938 787.939 Q84.7419 788.356 82.7975 789.236 L82.7975 771.875 Z" fill="#000000" fill-rule="nonzero" fill-opacity="1" /><path clip-path="url(#clip040)" d="M122.913 774.953 Q119.302 774.953 117.473 778.518 Q115.668 782.06 115.668 789.189 Q115.668 796.296 117.473 799.861 Q119.302 803.402 122.913 803.402 Q126.547 803.402 128.353 799.861 Q130.182 796.296 130.182 789.189 Q130.182 782.06 128.353 778.518 Q126.547 774.953 122.913 774.953 M122.913 771.25 Q128.723 771.25 131.779 775.856 Q134.857 780.439 134.857 789.189 Q134.857 797.916 131.779 802.523 Q128.723 807.106 122.913 807.106 Q117.103 807.106 114.024 802.523 Q110.969 797.916 110.969 789.189 Q110.969 780.439 114.024 775.856 Q117.103 771.25 122.913 771.25 Z" fill="#000000" fill-rule="nonzero" fill-opacity="1" /><path clip-path="url(#clip040)" d="M153.075 774.953 Q149.464 774.953 147.635 778.518 Q145.83 782.06 145.83 789.189 Q145.83 796.296 147.635 799.861 Q149.464 803.402 153.075 803.402 Q156.709 803.402 158.515 799.861 Q160.343 796.296 160.343 789.189 Q160.343 782.06 158.515 778.518 Q156.709 774.953 153.075 774.953 M153.075 771.25 Q158.885 771.25 161.941 775.856 Q165.019 780.439 165.019 789.189 Q165.019 797.916 161.941 802.523 Q158.885 807.106 153.075 807.106 Q147.265 807.106 144.186 802.523 Q141.131 797.916 141.131 789.189 Q141.131 780.439 144.186 775.856 Q147.265 771.25 153.075 771.25 Z" fill="#000000" fill-rule="nonzero" fill-opacity="1" /><path clip-path="url(#clip040)" d="M56.6171 570.068 L72.9365 570.068 L72.9365 574.004 L50.9921 574.004 L50.9921 570.068 Q53.6541 567.314 58.2375 562.684 Q62.8439 558.031 64.0245 556.689 Q66.2698 554.166 67.1494 552.43 Q68.0522 550.67 68.0522 548.981 Q68.0522 546.226 66.1078 544.49 Q64.1865 542.754 61.0847 542.754 Q58.8856 542.754 56.4319 543.518 Q54.0014 544.282 51.2236 545.832 L51.2236 541.11 Q54.0477 539.976 56.5014 539.397 Q58.955 538.819 60.9921 538.819 Q66.3624 538.819 69.5568 541.504 Q72.7513 544.189 72.7513 548.68 Q72.7513 550.809 71.9411 552.731 Q71.1541 554.629 69.0476 557.221 Q68.4689 557.893 65.367 561.11 Q62.2652 564.305 56.6171 570.068 Z" fill="#000000" fill-rule="nonzero" fill-opacity="1" /><path clip-path="url(#clip040)" d="M92.7512 542.522 Q89.1401 542.522 87.3114 546.087 Q85.5058 549.629 85.5058 556.758 Q85.5058 563.865 87.3114 567.43 Q89.1401 570.971 92.7512 570.971 Q96.3854 570.971 98.1909 567.43 Q100.02 563.865 100.02 556.758 Q100.02 549.629 98.1909 546.087 Q96.3854 542.522 92.7512 542.522 M92.7512 538.819 Q98.5613 538.819 101.617 543.425 Q104.696 548.008 104.696 556.758 Q104.696 565.485 101.617 570.092 Q98.5613 574.675 92.7512 574.675 Q86.941 574.675 83.8623 570.092 Q80.8068 565.485 80.8068 556.758 Q80.8068 548.008 83.8623 543.425 Q86.941 538.819 92.7512 538.819 Z" fill="#000000" fill-rule="nonzero" fill-opacity="1" /><path clip-path="url(#clip040)" d="M122.913 542.522 Q119.302 542.522 117.473 546.087 Q115.668 549.629 115.668 556.758 Q115.668 563.865 117.473 567.43 Q119.302 570.971 122.913 570.971 Q126.547 570.971 128.353 567.43 Q130.182 563.865 130.182 556.758 Q130.182 549.629 128.353 546.087 Q126.547 542.522 122.913 542.522 M122.913 538.819 Q128.723 538.819 131.779 543.425 Q134.857 548.008 134.857 556.758 Q134.857 565.485 131.779 570.092 Q128.723 574.675 122.913 574.675 Q117.103 574.675 114.024 570.092 Q110.969 565.485 110.969 556.758 Q110.969 548.008 114.024 543.425 Q117.103 538.819 122.913 538.819 Z" fill="#000000" fill-rule="nonzero" fill-opacity="1" /><path clip-path="url(#clip040)" d="M153.075 542.522 Q149.464 542.522 147.635 546.087 Q145.83 549.629 145.83 556.758 Q145.83 563.865 147.635 567.43 Q149.464 570.971 153.075 570.971 Q156.709 570.971 158.515 567.43 Q160.343 563.865 160.343 556.758 Q160.343 549.629 158.515 546.087 Q156.709 542.522 153.075 542.522 M153.075 538.819 Q158.885 538.819 161.941 543.425 Q165.019 548.008 165.019 556.758 Q165.019 565.485 161.941 570.092 Q158.885 574.675 153.075 574.675 Q147.265 574.675 144.186 570.092 Q141.131 565.485 141.131 556.758 Q141.131 548.008 144.186 543.425 Q147.265 538.819 153.075 538.819 Z" fill="#000000" fill-rule="nonzero" fill-opacity="1" /><path clip-path="url(#clip040)" d="M56.6171 337.637 L72.9365 337.637 L72.9365 341.573 L50.9921 341.573 L50.9921 337.637 Q53.6541 334.883 58.2375 330.253 Q62.8439 325.6 64.0245 324.258 Q66.2698 321.735 67.1494 319.999 Q68.0522 318.239 68.0522 316.55 Q68.0522 313.795 66.1078 312.059 Q64.1865 310.323 61.0847 310.323 Q58.8856 310.323 56.4319 311.087 Q54.0014 311.851 51.2236 313.401 L51.2236 308.679 Q54.0477 307.545 56.5014 306.966 Q58.955 306.388 60.9921 306.388 Q66.3624 306.388 69.5568 309.073 Q72.7513 311.758 72.7513 316.249 Q72.7513 318.378 71.9411 320.3 Q71.1541 322.198 69.0476 324.79 Q68.4689 325.462 65.367 328.679 Q62.2652 331.874 56.6171 337.637 Z" fill="#000000" fill-rule="nonzero" fill-opacity="1" /><path clip-path="url(#clip040)" d="M82.7975 307.013 L101.154 307.013 L101.154 310.948 L87.0799 310.948 L87.0799 319.42 Q88.0984 319.073 89.1169 318.911 Q90.1354 318.725 91.1539 318.725 Q96.941 318.725 100.321 321.897 Q103.7 325.068 103.7 330.485 Q103.7 336.063 100.228 339.165 Q96.7558 342.244 90.4364 342.244 Q88.2604 342.244 85.9919 341.873 Q83.7466 341.503 81.3392 340.762 L81.3392 336.063 Q83.4225 337.198 85.6447 337.753 Q87.8669 338.309 90.3438 338.309 Q94.3484 338.309 96.6863 336.202 Q99.0243 334.096 99.0243 330.485 Q99.0243 326.874 96.6863 324.767 Q94.3484 322.661 90.3438 322.661 Q88.4688 322.661 86.5938 323.077 Q84.7419 323.494 82.7975 324.374 L82.7975 307.013 Z" fill="#000000" fill-rule="nonzero" fill-opacity="1" /><path clip-path="url(#clip040)" d="M122.913 310.091 Q119.302 310.091 117.473 313.656 Q115.668 317.198 115.668 324.327 Q115.668 331.434 117.473 334.999 Q119.302 338.54 122.913 338.54 Q126.547 338.54 128.353 334.999 Q130.182 331.434 130.182 324.327 Q130.182 317.198 128.353 313.656 Q126.547 310.091 122.913 310.091 M122.913 306.388 Q128.723 306.388 131.779 310.994 Q134.857 315.577 134.857 324.327 Q134.857 333.054 131.779 337.661 Q128.723 342.244 122.913 342.244 Q117.103 342.244 114.024 337.661 Q110.969 333.054 110.969 324.327 Q110.969 315.577 114.024 310.994 Q117.103 306.388 122.913 306.388 Z" fill="#000000" fill-rule="nonzero" fill-opacity="1" /><path clip-path="url(#clip040)" d="M153.075 310.091 Q149.464 310.091 147.635 313.656 Q145.83 317.198 145.83 324.327 Q145.83 331.434 147.635 334.999 Q149.464 338.54 153.075 338.54 Q156.709 338.54 158.515 334.999 Q160.343 331.434 160.343 324.327 Q160.343 317.198 158.515 313.656 Q156.709 310.091 153.075 310.091 M153.075 306.388 Q158.885 306.388 161.941 310.994 Q165.019 315.577 165.019 324.327 Q165.019 333.054 161.941 337.661 Q158.885 342.244 153.075 342.244 Q147.265 342.244 144.186 337.661 Q141.131 333.054 141.131 324.327 Q141.131 315.577 144.186 310.994 Q147.265 306.388 153.075 306.388 Z" fill="#000000" fill-rule="nonzero" fill-opacity="1" /><path clip-path="url(#clip040)" d="M913.319 12.096 L924.337 12.096 L951.154 62.6918 L951.154 12.096 L959.094 12.096 L959.094 72.576 L948.076 72.576 L921.259 21.9802 L921.259 72.576 L913.319 72.576 L913.319 12.096 Z" fill="#000000" fill-rule="nonzero" fill-opacity="1" /><path clip-path="url(#clip040)" d="M992.636 32.4315 Q986.64 32.4315 983.157 37.1306 Q979.673 41.7891 979.673 49.9314 Q979.673 58.0738 983.116 62.7728 Q986.6 67.4314 992.636 67.4314 Q998.59 67.4314 1002.07 62.7323 Q1005.56 58.0333 1005.56 49.9314 Q1005.56 41.8701 1002.07 37.1711 Q998.59 32.4315 992.636 32.4315 M992.636 26.1121 Q1002.36 26.1121 1007.91 32.4315 Q1013.46 38.7509 1013.46 49.9314 Q1013.46 61.0714 1007.91 67.4314 Q1002.36 73.7508 992.636 73.7508 Q982.873 73.7508 977.323 67.4314 Q971.814 61.0714 971.814 49.9314 Q971.814 38.7509 977.323 32.4315 Q982.873 26.1121 992.636 26.1121 Z" fill="#000000" fill-rule="nonzero" fill-opacity="1" /><path clip-path="url(#clip040)" d="M1063.53 45.1919 L1063.53 72.576 L1056.07 72.576 L1056.07 45.4349 Q1056.07 38.994 1053.56 35.7938 Q1051.05 32.5936 1046.03 32.5936 Q1039.99 32.5936 1036.51 36.4419 Q1033.02 40.2903 1033.02 46.9338 L1033.02 72.576 L1025.53 72.576 L1025.53 27.2059 L1033.02 27.2059 L1033.02 34.2544 Q1035.7 30.163 1039.3 28.1376 Q1042.95 26.1121 1047.69 26.1121 Q1055.51 26.1121 1059.52 30.9732 Q1063.53 35.7938 1063.53 45.1919 Z" fill="#000000" fill-rule="nonzero" fill-opacity="1" /><path clip-path="url(#clip040)" d="M1074.63 46.5287 L1096.46 46.5287 L1096.46 53.1722 L1074.63 53.1722 L1074.63 46.5287 Z" fill="#000000" fill-rule="nonzero" fill-opacity="1" /><path clip-path="url(#clip040)" d="M1108.33 27.2059 L1115.78 27.2059 L1115.78 72.576 L1108.33 72.576 L1108.33 27.2059 M1108.33 9.54393 L1115.78 9.54393 L1115.78 18.9825 L1108.33 18.9825 L1108.33 9.54393 Z" fill="#000000" fill-rule="nonzero" fill-opacity="1" /><path clip-path="url(#clip040)" d="M1160.3 28.5427 L1160.3 35.5912 Q1157.14 33.9709 1153.74 33.1607 Q1150.34 32.3505 1146.69 32.3505 Q1141.14 32.3505 1138.35 34.0519 Q1135.59 35.7533 1135.59 39.156 Q1135.59 41.7486 1137.58 43.2475 Q1139.56 44.7058 1145.56 46.0426 L1148.11 46.6097 Q1156.05 48.3111 1159.37 51.4303 Q1162.73 54.509 1162.73 60.0587 Q1162.73 66.3781 1157.71 70.0644 Q1152.73 73.7508 1143.98 73.7508 Q1140.33 73.7508 1136.36 73.0216 Q1132.43 72.3329 1128.06 70.9151 L1128.06 63.2184 Q1132.19 65.3654 1136.2 66.4591 Q1140.21 67.5124 1144.14 67.5124 Q1149.41 67.5124 1152.24 65.73 Q1155.08 63.9071 1155.08 60.6258 Q1155.08 57.5877 1153.01 55.9673 Q1150.99 54.3469 1144.06 52.8481 L1141.47 52.2405 Q1134.54 50.7821 1131.46 47.7845 Q1128.38 44.7463 1128.38 39.4801 Q1128.38 33.0797 1132.92 29.5959 Q1137.46 26.1121 1145.8 26.1121 Q1149.93 26.1121 1153.58 26.7198 Q1157.22 27.3274 1160.3 28.5427 Z" fill="#000000" fill-rule="nonzero" fill-opacity="1" /><path clip-path="url(#clip040)" d="M1192.18 32.4315 Q1186.19 32.4315 1182.7 37.1306 Q1179.22 41.7891 1179.22 49.9314 Q1179.22 58.0738 1182.66 62.7728 Q1186.15 67.4314 1192.18 67.4314 Q1198.14 67.4314 1201.62 62.7323 Q1205.11 58.0333 1205.11 49.9314 Q1205.11 41.8701 1201.62 37.1711 Q1198.14 32.4315 1192.18 32.4315 M1192.18 26.1121 Q1201.91 26.1121 1207.46 32.4315 Q1213 38.7509 1213 49.9314 Q1213 61.0714 1207.46 67.4314 Q1201.91 73.7508 1192.18 73.7508 Q1182.42 73.7508 1176.87 67.4314 Q1171.36 61.0714 1171.36 49.9314 Q1171.36 38.7509 1176.87 32.4315 Q1182.42 26.1121 1192.18 26.1121 Z" fill="#000000" fill-rule="nonzero" fill-opacity="1" /><path clip-path="url(#clip040)" d="M1232.73 14.324 L1232.73 27.2059 L1248.09 27.2059 L1248.09 32.9987 L1232.73 32.9987 L1232.73 57.6282 Q1232.73 63.1779 1234.23 64.7578 Q1235.77 66.3376 1240.43 66.3376 L1248.09 66.3376 L1248.09 72.576 L1240.43 72.576 Q1231.8 72.576 1228.52 69.3758 Q1225.24 66.1351 1225.24 57.6282 L1225.24 32.9987 L1219.77 32.9987 L1219.77 27.2059 L1225.24 27.2059 L1225.24 14.324 L1232.73 14.324 Z" fill="#000000" fill-rule="nonzero" fill-opacity="1" /><path clip-path="url(#clip040)" d="M1284.18 34.1734 Q1282.92 33.4443 1281.42 33.1202 Q1279.97 32.7556 1278.18 32.7556 Q1271.86 32.7556 1268.46 36.8875 Q1265.1 40.9789 1265.1 48.6757 L1265.1 72.576 L1257.61 72.576 L1257.61 27.2059 L1265.1 27.2059 L1265.1 34.2544 Q1267.45 30.1225 1271.22 28.1376 Q1274.98 26.1121 1280.37 26.1121 Q1281.14 26.1121 1282.07 26.2337 Q1283 26.3147 1284.14 26.5172 L1284.18 34.1734 Z" fill="#000000" fill-rule="nonzero" fill-opacity="1" /><path clip-path="url(#clip040)" d="M1307.76 32.4315 Q1301.76 32.4315 1298.28 37.1306 Q1294.79 41.7891 1294.79 49.9314 Q1294.79 58.0738 1298.24 62.7728 Q1301.72 67.4314 1307.76 67.4314 Q1313.71 67.4314 1317.19 62.7323 Q1320.68 58.0333 1320.68 49.9314 Q1320.68 41.8701 1317.19 37.1711 Q1313.71 32.4315 1307.76 32.4315 M1307.76 26.1121 Q1317.48 26.1121 1323.03 32.4315 Q1328.58 38.7509 1328.58 49.9314 Q1328.58 61.0714 1323.03 67.4314 Q1317.48 73.7508 1307.76 73.7508 Q1297.99 73.7508 1292.44 67.4314 Q1286.93 61.0714 1286.93 49.9314 Q1286.93 38.7509 1292.44 32.4315 Q1297.99 26.1121 1307.76 26.1121 Z" fill="#000000" fill-rule="nonzero" fill-opacity="1" /><path clip-path="url(#clip040)" d="M1348.14 65.7705 L1348.14 89.8329 L1340.65 89.8329 L1340.65 27.2059 L1348.14 27.2059 L1348.14 34.0924 Q1350.49 30.0415 1354.06 28.0971 Q1357.66 26.1121 1362.65 26.1121 Q1370.91 26.1121 1376.05 32.6746 Q1381.24 39.2371 1381.24 49.9314 Q1381.24 60.6258 1376.05 67.1883 Q1370.91 73.7508 1362.65 73.7508 Q1357.66 73.7508 1354.06 71.8063 Q1350.49 69.8214 1348.14 65.7705 M1373.5 49.9314 Q1373.5 41.7081 1370.1 37.0496 Q1366.74 32.3505 1360.82 32.3505 Q1354.91 32.3505 1351.51 37.0496 Q1348.14 41.7081 1348.14 49.9314 Q1348.14 58.1548 1351.51 62.8538 Q1354.91 67.5124 1360.82 67.5124 Q1366.74 67.5124 1370.1 62.8538 Q1373.5 58.1548 1373.5 49.9314 Z" fill="#000000" fill-rule="nonzero" fill-opacity="1" /><path clip-path="url(#clip040)" d="M1393.59 27.2059 L1401.05 27.2059 L1401.05 72.576 L1393.59 72.576 L1393.59 27.2059 M1393.59 9.54393 L1401.05 9.54393 L1401.05 18.9825 L1393.59 18.9825 L1393.59 9.54393 Z" fill="#000000" fill-rule="nonzero" fill-opacity="1" /><path clip-path="url(#clip040)" d="M1449.29 28.9478 L1449.29 35.9153 Q1446.13 34.1734 1442.93 33.3227 Q1439.77 32.4315 1436.53 32.4315 Q1429.28 32.4315 1425.27 37.0496 Q1421.26 41.6271 1421.26 49.9314 Q1421.26 58.2358 1425.27 62.8538 Q1429.28 67.4314 1436.53 67.4314 Q1439.77 67.4314 1442.93 66.5807 Q1446.13 65.6895 1449.29 63.9476 L1449.29 70.8341 Q1446.17 72.2924 1442.81 73.0216 Q1439.49 73.7508 1435.72 73.7508 Q1425.47 73.7508 1419.44 67.3098 Q1413.4 60.8689 1413.4 49.9314 Q1413.4 38.832 1419.48 32.472 Q1425.6 26.1121 1436.21 26.1121 Q1439.65 26.1121 1442.93 26.8413 Q1446.22 27.5299 1449.29 28.9478 Z" fill="#000000" fill-rule="nonzero" fill-opacity="1" /><path clip-path="url(#clip040)" d="M1499.97 45.1919 L1499.97 72.576 L1492.52 72.576 L1492.52 45.4349 Q1492.52 38.994 1490.01 35.7938 Q1487.49 32.5936 1482.47 32.5936 Q1476.44 32.5936 1472.95 36.4419 Q1469.47 40.2903 1469.47 46.9338 L1469.47 72.576 L1461.97 72.576 L1461.97 27.2059 L1469.47 27.2059 L1469.47 34.2544 Q1472.14 30.163 1475.75 28.1376 Q1479.39 26.1121 1484.13 26.1121 Q1491.95 26.1121 1495.96 30.9732 Q1499.97 35.7938 1499.97 45.1919 Z" fill="#000000" fill-rule="nonzero" fill-opacity="1" /><path clip-path="url(#clip040)" d="M1553.65 48.0275 L1553.65 51.6733 L1519.37 51.6733 Q1519.86 59.3701 1523.99 63.421 Q1528.17 67.4314 1535.58 67.4314 Q1539.87 67.4314 1543.88 66.3781 Q1547.93 65.3249 1551.9 63.2184 L1551.9 70.267 Q1547.89 71.9684 1543.68 72.8596 Q1539.47 73.7508 1535.13 73.7508 Q1524.28 73.7508 1517.92 67.4314 Q1511.6 61.1119 1511.6 50.3365 Q1511.6 39.1965 1517.59 32.6746 Q1523.63 26.1121 1533.84 26.1121 Q1542.99 26.1121 1548.3 32.0264 Q1553.65 37.9003 1553.65 48.0275 M1546.19 45.84 Q1546.11 39.7232 1542.75 36.0774 Q1539.43 32.4315 1533.92 32.4315 Q1527.68 32.4315 1523.91 35.9558 Q1520.18 39.4801 1519.62 45.8805 L1546.19 45.84 Z" fill="#000000" fill-rule="nonzero" fill-opacity="1" /><path clip-path="url(#clip040)" d="M1594.8 28.5427 L1594.8 35.5912 Q1591.64 33.9709 1588.24 33.1607 Q1584.84 32.3505 1581.19 32.3505 Q1575.64 32.3505 1572.85 34.0519 Q1570.09 35.7533 1570.09 39.156 Q1570.09 41.7486 1572.08 43.2475 Q1574.06 44.7058 1580.06 46.0426 L1582.61 46.6097 Q1590.55 48.3111 1593.87 51.4303 Q1597.23 54.509 1597.23 60.0587 Q1597.23 66.3781 1592.21 70.0644 Q1587.23 73.7508 1578.48 73.7508 Q1574.83 73.7508 1570.86 73.0216 Q1566.93 72.3329 1562.56 70.9151 L1562.56 63.2184 Q1566.69 65.3654 1570.7 66.4591 Q1574.71 67.5124 1578.64 67.5124 Q1583.91 67.5124 1586.74 65.73 Q1589.58 63.9071 1589.58 60.6258 Q1589.58 57.5877 1587.51 55.9673 Q1585.49 54.3469 1578.56 52.8481 L1575.97 52.2405 Q1569.04 50.7821 1565.96 47.7845 Q1562.88 44.7463 1562.88 39.4801 Q1562.88 33.0797 1567.42 29.5959 Q1571.96 26.1121 1580.3 26.1121 Q1584.43 26.1121 1588.08 26.7198 Q1591.72 27.3274 1594.8 28.5427 Z" fill="#000000" fill-rule="nonzero" fill-opacity="1" /><path clip-path="url(#clip040)" d="M1638.03 28.5427 L1638.03 35.5912 Q1634.87 33.9709 1631.46 33.1607 Q1628.06 32.3505 1624.41 32.3505 Q1618.86 32.3505 1616.07 34.0519 Q1613.32 35.7533 1613.32 39.156 Q1613.32 41.7486 1615.3 43.2475 Q1617.29 44.7058 1623.28 46.0426 L1625.83 46.6097 Q1633.77 48.3111 1637.09 51.4303 Q1640.46 54.509 1640.46 60.0587 Q1640.46 66.3781 1635.43 70.0644 Q1630.45 73.7508 1621.7 73.7508 Q1618.05 73.7508 1614.08 73.0216 Q1610.16 72.3329 1605.78 70.9151 L1605.78 63.2184 Q1609.91 65.3654 1613.92 66.4591 Q1617.93 67.5124 1621.86 67.5124 Q1627.13 67.5124 1629.96 65.73 Q1632.8 63.9071 1632.8 60.6258 Q1632.8 57.5877 1630.73 55.9673 Q1628.71 54.3469 1621.78 52.8481 L1619.19 52.2405 Q1612.26 50.7821 1609.18 47.7845 Q1606.1 44.7463 1606.1 39.4801 Q1606.1 33.0797 1610.64 29.5959 Q1615.18 26.1121 1623.52 26.1121 Q1627.66 26.1121 1631.3 26.7198 Q1634.95 27.3274 1638.03 28.5427 Z" fill="#000000" fill-rule="nonzero" fill-opacity="1" /><path clip-path="url(#clip042)" d="M319.369 639.004 L319.369 1486.45 L336.467 1486.45 L336.467 639.004 L319.369 639.004 L319.369 639.004  Z" fill="#009af9" fill-rule="evenodd" fill-opacity="1"/>
<polyline clip-path="url(#clip042)" style="stroke:#000000; stroke-linecap:round; stroke-linejoin:round; stroke-width:4; stroke-opacity:1; fill:none" points="319.369,639.004 319.369,1486.45 336.467,1486.45 336.467,639.004 319.369,639.004 "/>
<path clip-path="url(#clip042)" d="M336.467 123.472 L336.467 1486.45 L353.566 1486.45 L353.566 123.472 L336.467 123.472 L336.467 123.472  Z" fill="#009af9" fill-rule="evenodd" fill-opacity="1"/>
<polyline clip-path="url(#clip042)" style="stroke:#000000; stroke-linecap:round; stroke-linejoin:round; stroke-width:4; stroke-opacity:1; fill:none" points="336.467,123.472 336.467,1486.45 353.566,1486.45 353.566,123.472 336.467,123.472 "/>
<path clip-path="url(#clip042)" d="M353.566 349.86 L353.566 1486.45 L370.664 1486.45 L370.664 349.86 L353.566 349.86 L353.566 349.86  Z" fill="#009af9" fill-rule="evenodd" fill-opacity="1"/>
<polyline clip-path="url(#clip042)" style="stroke:#000000; stroke-linecap:round; stroke-linejoin:round; stroke-width:4; stroke-opacity:1; fill:none" points="353.566,349.86 353.566,1486.45 370.664,1486.45 370.664,349.86 353.566,349.86 "/>
<path clip-path="url(#clip042)" d="M370.664 566.021 L370.664 1486.45 L387.763 1486.45 L387.763 566.021 L370.664 566.021 L370.664 566.021  Z" fill="#009af9" fill-rule="evenodd" fill-opacity="1"/>
<polyline clip-path="url(#clip042)" style="stroke:#000000; stroke-linecap:round; stroke-linejoin:round; stroke-width:4; stroke-opacity:1; fill:none" points="370.664,566.021 370.664,1486.45 387.763,1486.45 387.763,566.021 370.664,566.021 "/>
<path clip-path="url(#clip042)" d="M387.763 693.393 L387.763 1486.45 L404.861 1486.45 L404.861 693.393 L387.763 693.393 L387.763 693.393  Z" fill="#009af9" fill-rule="evenodd" fill-opacity="1"/>
<polyline clip-path="url(#clip042)" style="stroke:#000000; stroke-linecap:round; stroke-linejoin:round; stroke-width:4; stroke-opacity:1; fill:none" points="387.763,693.393 387.763,1486.45 404.861,1486.45 404.861,693.393 387.763,693.393 "/>
<path clip-path="url(#clip042)" d="M404.861 784.971 L404.861 1486.45 L421.96 1486.45 L421.96 784.971 L404.861 784.971 L404.861 784.971  Z" fill="#009af9" fill-rule="evenodd" fill-opacity="1"/>
<polyline clip-path="url(#clip042)" style="stroke:#000000; stroke-linecap:round; stroke-linejoin:round; stroke-width:4; stroke-opacity:1; fill:none" points="404.861,784.971 404.861,1486.45 421.96,1486.45 421.96,784.971 404.861,784.971 "/>
<path clip-path="url(#clip042)" d="M421.96 823.554 L421.96 1486.45 L439.059 1486.45 L439.059 823.554 L421.96 823.554 L421.96 823.554  Z" fill="#009af9" fill-rule="evenodd" fill-opacity="1"/>
<polyline clip-path="url(#clip042)" style="stroke:#000000; stroke-linecap:round; stroke-linejoin:round; stroke-width:4; stroke-opacity:1; fill:none" points="421.96,823.554 421.96,1486.45 439.059,1486.45 439.059,823.554 421.96,823.554 "/>
<path clip-path="url(#clip042)" d="M439.059 849.122 L439.059 1486.45 L456.157 1486.45 L456.157 849.122 L439.059 849.122 L439.059 849.122  Z" fill="#009af9" fill-rule="evenodd" fill-opacity="1"/>
<polyline clip-path="url(#clip042)" style="stroke:#000000; stroke-linecap:round; stroke-linejoin:round; stroke-width:4; stroke-opacity:1; fill:none" points="439.059,849.122 439.059,1486.45 456.157,1486.45 456.157,849.122 439.059,849.122 "/>
<path clip-path="url(#clip042)" d="M456.157 878.873 L456.157 1486.45 L473.256 1486.45 L473.256 878.873 L456.157 878.873 L456.157 878.873  Z" fill="#009af9" fill-rule="evenodd" fill-opacity="1"/>
<polyline clip-path="url(#clip042)" style="stroke:#000000; stroke-linecap:round; stroke-linejoin:round; stroke-width:4; stroke-opacity:1; fill:none" points="456.157,878.873 456.157,1486.45 473.256,1486.45 473.256,878.873 456.157,878.873 "/>
<path clip-path="url(#clip042)" d="M473.256 899.327 L473.256 1486.45 L490.354 1486.45 L490.354 899.327 L473.256 899.327 L473.256 899.327  Z" fill="#009af9" fill-rule="evenodd" fill-opacity="1"/>
<polyline clip-path="url(#clip042)" style="stroke:#000000; stroke-linecap:round; stroke-linejoin:round; stroke-width:4; stroke-opacity:1; fill:none" points="473.256,899.327 473.256,1486.45 490.354,1486.45 490.354,899.327 473.256,899.327 "/>
<path clip-path="url(#clip042)" d="M490.354 895.143 L490.354 1486.45 L507.453 1486.45 L507.453 895.143 L490.354 895.143 L490.354 895.143  Z" fill="#009af9" fill-rule="evenodd" fill-opacity="1"/>
<polyline clip-path="url(#clip042)" style="stroke:#000000; stroke-linecap:round; stroke-linejoin:round; stroke-width:4; stroke-opacity:1; fill:none" points="490.354,895.143 490.354,1486.45 507.453,1486.45 507.453,895.143 490.354,895.143 "/>
<path clip-path="url(#clip042)" d="M507.453 917.921 L507.453 1486.45 L524.551 1486.45 L524.551 917.921 L507.453 917.921 L507.453 917.921  Z" fill="#009af9" fill-rule="evenodd" fill-opacity="1"/>
<polyline clip-path="url(#clip042)" style="stroke:#000000; stroke-linecap:round; stroke-linejoin:round; stroke-width:4; stroke-opacity:1; fill:none" points="507.453,917.921 507.453,1486.45 524.551,1486.45 524.551,917.921 507.453,917.921 "/>
<path clip-path="url(#clip042)" d="M524.551 913.273 L524.551 1486.45 L541.65 1486.45 L541.65 913.273 L524.551 913.273 L524.551 913.273  Z" fill="#009af9" fill-rule="evenodd" fill-opacity="1"/>
<polyline clip-path="url(#clip042)" style="stroke:#000000; stroke-linecap:round; stroke-linejoin:round; stroke-width:4; stroke-opacity:1; fill:none" points="524.551,913.273 524.551,1486.45 541.65,1486.45 541.65,913.273 524.551,913.273 "/>
<path clip-path="url(#clip042)" d="M541.65 921.64 L541.65 1486.45 L558.748 1486.45 L558.748 921.64 L541.65 921.64 L541.65 921.64  Z" fill="#009af9" fill-rule="evenodd" fill-opacity="1"/>
<polyline clip-path="url(#clip042)" style="stroke:#000000; stroke-linecap:round; stroke-linejoin:round; stroke-width:4; stroke-opacity:1; fill:none" points="541.65,921.64 541.65,1486.45 558.748,1486.45 558.748,921.64 541.65,921.64 "/>
<path clip-path="url(#clip042)" d="M558.748 907.695 L558.748 1486.45 L575.847 1486.45 L575.847 907.695 L558.748 907.695 L558.748 907.695  Z" fill="#009af9" fill-rule="evenodd" fill-opacity="1"/>
<polyline clip-path="url(#clip042)" style="stroke:#000000; stroke-linecap:round; stroke-linejoin:round; stroke-width:4; stroke-opacity:1; fill:none" points="558.748,907.695 558.748,1486.45 575.847,1486.45 575.847,907.695 558.748,907.695 "/>
<path clip-path="url(#clip042)" d="M575.847 918.386 L575.847 1486.45 L592.945 1486.45 L592.945 918.386 L575.847 918.386 L575.847 918.386  Z" fill="#009af9" fill-rule="evenodd" fill-opacity="1"/>
<polyline clip-path="url(#clip042)" style="stroke:#000000; stroke-linecap:round; stroke-linejoin:round; stroke-width:4; stroke-opacity:1; fill:none" points="575.847,918.386 575.847,1486.45 592.945,1486.45 592.945,918.386 575.847,918.386 "/>
<path clip-path="url(#clip042)" d="M592.945 955.575 L592.945 1486.45 L610.044 1486.45 L610.044 955.575 L592.945 955.575 L592.945 955.575  Z" fill="#009af9" fill-rule="evenodd" fill-opacity="1"/>
<polyline clip-path="url(#clip042)" style="stroke:#000000; stroke-linecap:round; stroke-linejoin:round; stroke-width:4; stroke-opacity:1; fill:none" points="592.945,955.575 592.945,1486.45 610.044,1486.45 610.044,955.575 592.945,955.575 "/>
<path clip-path="url(#clip042)" d="M610.044 969.056 L610.044 1486.45 L627.143 1486.45 L627.143 969.056 L610.044 969.056 L610.044 969.056  Z" fill="#009af9" fill-rule="evenodd" fill-opacity="1"/>
<polyline clip-path="url(#clip042)" style="stroke:#000000; stroke-linecap:round; stroke-linejoin:round; stroke-width:4; stroke-opacity:1; fill:none" points="610.044,969.056 610.044,1486.45 627.143,1486.45 627.143,969.056 610.044,969.056 "/>
<path clip-path="url(#clip042)" d="M627.143 972.31 L627.143 1486.45 L644.241 1486.45 L644.241 972.31 L627.143 972.31 L627.143 972.31  Z" fill="#009af9" fill-rule="evenodd" fill-opacity="1"/>
<polyline clip-path="url(#clip042)" style="stroke:#000000; stroke-linecap:round; stroke-linejoin:round; stroke-width:4; stroke-opacity:1; fill:none" points="627.143,972.31 627.143,1486.45 644.241,1486.45 644.241,972.31 627.143,972.31 "/>
<path clip-path="url(#clip042)" d="M644.241 981.143 L644.241 1486.45 L661.34 1486.45 L661.34 981.143 L644.241 981.143 L644.241 981.143  Z" fill="#009af9" fill-rule="evenodd" fill-opacity="1"/>
<polyline clip-path="url(#clip042)" style="stroke:#000000; stroke-linecap:round; stroke-linejoin:round; stroke-width:4; stroke-opacity:1; fill:none" points="644.241,981.143 644.241,1486.45 661.34,1486.45 661.34,981.143 644.241,981.143 "/>
<path clip-path="url(#clip042)" d="M661.34 993.229 L661.34 1486.45 L678.438 1486.45 L678.438 993.229 L661.34 993.229 L661.34 993.229  Z" fill="#009af9" fill-rule="evenodd" fill-opacity="1"/>
<polyline clip-path="url(#clip042)" style="stroke:#000000; stroke-linecap:round; stroke-linejoin:round; stroke-width:4; stroke-opacity:1; fill:none" points="661.34,993.229 661.34,1486.45 678.438,1486.45 678.438,993.229 661.34,993.229 "/>
<path clip-path="url(#clip042)" d="M678.438 1020.19 L678.438 1486.45 L695.537 1486.45 L695.537 1020.19 L678.438 1020.19 L678.438 1020.19  Z" fill="#009af9" fill-rule="evenodd" fill-opacity="1"/>
<polyline clip-path="url(#clip042)" style="stroke:#000000; stroke-linecap:round; stroke-linejoin:round; stroke-width:4; stroke-opacity:1; fill:none" points="678.438,1020.19 678.438,1486.45 695.537,1486.45 695.537,1020.19 678.438,1020.19 "/>
<path clip-path="url(#clip042)" d="M695.537 1000.2 L695.537 1486.45 L712.635 1486.45 L712.635 1000.2 L695.537 1000.2 L695.537 1000.2  Z" fill="#009af9" fill-rule="evenodd" fill-opacity="1"/>
<polyline clip-path="url(#clip042)" style="stroke:#000000; stroke-linecap:round; stroke-linejoin:round; stroke-width:4; stroke-opacity:1; fill:none" points="695.537,1000.2 695.537,1486.45 712.635,1486.45 712.635,1000.2 695.537,1000.2 "/>
<path clip-path="url(#clip042)" d="M712.635 1008.1 L712.635 1486.45 L729.734 1486.45 L729.734 1008.1 L712.635 1008.1 L712.635 1008.1  Z" fill="#009af9" fill-rule="evenodd" fill-opacity="1"/>
<polyline clip-path="url(#clip042)" style="stroke:#000000; stroke-linecap:round; stroke-linejoin:round; stroke-width:4; stroke-opacity:1; fill:none" points="712.635,1008.1 712.635,1486.45 729.734,1486.45 729.734,1008.1 712.635,1008.1 "/>
<path clip-path="url(#clip042)" d="M729.734 1022.98 L729.734 1486.45 L746.832 1486.45 L746.832 1022.98 L729.734 1022.98 L729.734 1022.98  Z" fill="#009af9" fill-rule="evenodd" fill-opacity="1"/>
<polyline clip-path="url(#clip042)" style="stroke:#000000; stroke-linecap:round; stroke-linejoin:round; stroke-width:4; stroke-opacity:1; fill:none" points="729.734,1022.98 729.734,1486.45 746.832,1486.45 746.832,1022.98 729.734,1022.98 "/>
<path clip-path="url(#clip042)" d="M746.832 1057.38 L746.832 1486.45 L763.931 1486.45 L763.931 1057.38 L746.832 1057.38 L746.832 1057.38  Z" fill="#009af9" fill-rule="evenodd" fill-opacity="1"/>
<polyline clip-path="url(#clip042)" style="stroke:#000000; stroke-linecap:round; stroke-linejoin:round; stroke-width:4; stroke-opacity:1; fill:none" points="746.832,1057.38 746.832,1486.45 763.931,1486.45 763.931,1057.38 746.832,1057.38 "/>
<path clip-path="url(#clip042)" d="M763.931 1031.81 L763.931 1486.45 L781.03 1486.45 L781.03 1031.81 L763.931 1031.81 L763.931 1031.81  Z" fill="#009af9" fill-rule="evenodd" fill-opacity="1"/>
<polyline clip-path="url(#clip042)" style="stroke:#000000; stroke-linecap:round; stroke-linejoin:round; stroke-width:4; stroke-opacity:1; fill:none" points="763.931,1031.81 763.931,1486.45 781.03,1486.45 781.03,1031.81 763.931,1031.81 "/>
<path clip-path="url(#clip042)" d="M781.03 1054.13 L781.03 1486.45 L798.128 1486.45 L798.128 1054.13 L781.03 1054.13 L781.03 1054.13  Z" fill="#009af9" fill-rule="evenodd" fill-opacity="1"/>
<polyline clip-path="url(#clip042)" style="stroke:#000000; stroke-linecap:round; stroke-linejoin:round; stroke-width:4; stroke-opacity:1; fill:none" points="781.03,1054.13 781.03,1486.45 798.128,1486.45 798.128,1054.13 781.03,1054.13 "/>
<path clip-path="url(#clip042)" d="M798.128 1048.55 L798.128 1486.45 L815.227 1486.45 L815.227 1048.55 L798.128 1048.55 L798.128 1048.55  Z" fill="#009af9" fill-rule="evenodd" fill-opacity="1"/>
<polyline clip-path="url(#clip042)" style="stroke:#000000; stroke-linecap:round; stroke-linejoin:round; stroke-width:4; stroke-opacity:1; fill:none" points="798.128,1048.55 798.128,1486.45 815.227,1486.45 815.227,1048.55 798.128,1048.55 "/>
<path clip-path="url(#clip042)" d="M815.227 1070.86 L815.227 1486.45 L832.325 1486.45 L832.325 1070.86 L815.227 1070.86 L815.227 1070.86  Z" fill="#009af9" fill-rule="evenodd" fill-opacity="1"/>
<polyline clip-path="url(#clip042)" style="stroke:#000000; stroke-linecap:round; stroke-linejoin:round; stroke-width:4; stroke-opacity:1; fill:none" points="815.227,1070.86 815.227,1486.45 832.325,1486.45 832.325,1070.86 815.227,1070.86 "/>
<path clip-path="url(#clip042)" d="M832.325 1058.77 L832.325 1486.45 L849.424 1486.45 L849.424 1058.77 L832.325 1058.77 L832.325 1058.77  Z" fill="#009af9" fill-rule="evenodd" fill-opacity="1"/>
<polyline clip-path="url(#clip042)" style="stroke:#000000; stroke-linecap:round; stroke-linejoin:round; stroke-width:4; stroke-opacity:1; fill:none" points="832.325,1058.77 832.325,1486.45 849.424,1486.45 849.424,1058.77 832.325,1058.77 "/>
<path clip-path="url(#clip042)" d="M849.424 1055.06 L849.424 1486.45 L866.522 1486.45 L866.522 1055.06 L849.424 1055.06 L849.424 1055.06  Z" fill="#009af9" fill-rule="evenodd" fill-opacity="1"/>
<polyline clip-path="url(#clip042)" style="stroke:#000000; stroke-linecap:round; stroke-linejoin:round; stroke-width:4; stroke-opacity:1; fill:none" points="849.424,1055.06 849.424,1486.45 866.522,1486.45 866.522,1055.06 849.424,1055.06 "/>
<path clip-path="url(#clip042)" d="M866.522 1088.99 L866.522 1486.45 L883.621 1486.45 L883.621 1088.99 L866.522 1088.99 L866.522 1088.99  Z" fill="#009af9" fill-rule="evenodd" fill-opacity="1"/>
<polyline clip-path="url(#clip042)" style="stroke:#000000; stroke-linecap:round; stroke-linejoin:round; stroke-width:4; stroke-opacity:1; fill:none" points="866.522,1088.99 866.522,1486.45 883.621,1486.45 883.621,1088.99 866.522,1088.99 "/>
<path clip-path="url(#clip042)" d="M883.621 1065.28 L883.621 1486.45 L900.719 1486.45 L900.719 1065.28 L883.621 1065.28 L883.621 1065.28  Z" fill="#009af9" fill-rule="evenodd" fill-opacity="1"/>
<polyline clip-path="url(#clip042)" style="stroke:#000000; stroke-linecap:round; stroke-linejoin:round; stroke-width:4; stroke-opacity:1; fill:none" points="883.621,1065.28 883.621,1486.45 900.719,1486.45 900.719,1065.28 883.621,1065.28 "/>
<path clip-path="url(#clip042)" d="M900.719 1072.72 L900.719 1486.45 L917.818 1486.45 L917.818 1072.72 L900.719 1072.72 L900.719 1072.72  Z" fill="#009af9" fill-rule="evenodd" fill-opacity="1"/>
<polyline clip-path="url(#clip042)" style="stroke:#000000; stroke-linecap:round; stroke-linejoin:round; stroke-width:4; stroke-opacity:1; fill:none" points="900.719,1072.72 900.719,1486.45 917.818,1486.45 917.818,1072.72 900.719,1072.72 "/>
<path clip-path="url(#clip042)" d="M917.818 1092.24 L917.818 1486.45 L934.917 1486.45 L934.917 1092.24 L917.818 1092.24 L917.818 1092.24  Z" fill="#009af9" fill-rule="evenodd" fill-opacity="1"/>
<polyline clip-path="url(#clip042)" style="stroke:#000000; stroke-linecap:round; stroke-linejoin:round; stroke-width:4; stroke-opacity:1; fill:none" points="917.818,1092.24 917.818,1486.45 934.917,1486.45 934.917,1092.24 917.818,1092.24 "/>
<path clip-path="url(#clip042)" d="M934.917 1102.01 L934.917 1486.45 L952.015 1486.45 L952.015 1102.01 L934.917 1102.01 L934.917 1102.01  Z" fill="#009af9" fill-rule="evenodd" fill-opacity="1"/>
<polyline clip-path="url(#clip042)" style="stroke:#000000; stroke-linecap:round; stroke-linejoin:round; stroke-width:4; stroke-opacity:1; fill:none" points="934.917,1102.01 934.917,1486.45 952.015,1486.45 952.015,1102.01 934.917,1102.01 "/>
<path clip-path="url(#clip042)" d="M952.015 1099.68 L952.015 1486.45 L969.114 1486.45 L969.114 1099.68 L952.015 1099.68 L952.015 1099.68  Z" fill="#009af9" fill-rule="evenodd" fill-opacity="1"/>
<polyline clip-path="url(#clip042)" style="stroke:#000000; stroke-linecap:round; stroke-linejoin:round; stroke-width:4; stroke-opacity:1; fill:none" points="952.015,1099.68 952.015,1486.45 969.114,1486.45 969.114,1099.68 952.015,1099.68 "/>
<path clip-path="url(#clip042)" d="M969.114 1107.59 L969.114 1486.45 L986.212 1486.45 L986.212 1107.59 L969.114 1107.59 L969.114 1107.59  Z" fill="#009af9" fill-rule="evenodd" fill-opacity="1"/>
<polyline clip-path="url(#clip042)" style="stroke:#000000; stroke-linecap:round; stroke-linejoin:round; stroke-width:4; stroke-opacity:1; fill:none" points="969.114,1107.59 969.114,1486.45 986.212,1486.45 986.212,1107.59 969.114,1107.59 "/>
<path clip-path="url(#clip042)" d="M986.212 1138.73 L986.212 1486.45 L1003.31 1486.45 L1003.31 1138.73 L986.212 1138.73 L986.212 1138.73  Z" fill="#009af9" fill-rule="evenodd" fill-opacity="1"/>
<polyline clip-path="url(#clip042)" style="stroke:#000000; stroke-linecap:round; stroke-linejoin:round; stroke-width:4; stroke-opacity:1; fill:none" points="986.212,1138.73 986.212,1486.45 1003.31,1486.45 1003.31,1138.73 986.212,1138.73 "/>
<path clip-path="url(#clip042)" d="M1003.31 1140.13 L1003.31 1486.45 L1020.41 1486.45 L1020.41 1140.13 L1003.31 1140.13 L1003.31 1140.13  Z" fill="#009af9" fill-rule="evenodd" fill-opacity="1"/>
<polyline clip-path="url(#clip042)" style="stroke:#000000; stroke-linecap:round; stroke-linejoin:round; stroke-width:4; stroke-opacity:1; fill:none" points="1003.31,1140.13 1003.31,1486.45 1020.41,1486.45 1020.41,1140.13 1003.31,1140.13 "/>
<path clip-path="url(#clip042)" d="M1020.41 1112.7 L1020.41 1486.45 L1037.51 1486.45 L1037.51 1112.7 L1020.41 1112.7 L1020.41 1112.7  Z" fill="#009af9" fill-rule="evenodd" fill-opacity="1"/>
<polyline clip-path="url(#clip042)" style="stroke:#000000; stroke-linecap:round; stroke-linejoin:round; stroke-width:4; stroke-opacity:1; fill:none" points="1020.41,1112.7 1020.41,1486.45 1037.51,1486.45 1037.51,1112.7 1020.41,1112.7 "/>
<path clip-path="url(#clip042)" d="M1037.51 1107.59 L1037.51 1486.45 L1054.61 1486.45 L1054.61 1107.59 L1037.51 1107.59 L1037.51 1107.59  Z" fill="#009af9" fill-rule="evenodd" fill-opacity="1"/>
<polyline clip-path="url(#clip042)" style="stroke:#000000; stroke-linecap:round; stroke-linejoin:round; stroke-width:4; stroke-opacity:1; fill:none" points="1037.51,1107.59 1037.51,1486.45 1054.61,1486.45 1054.61,1107.59 1037.51,1107.59 "/>
<path clip-path="url(#clip042)" d="M1054.61 1125.71 L1054.61 1486.45 L1071.7 1486.45 L1071.7 1125.71 L1054.61 1125.71 L1054.61 1125.71  Z" fill="#009af9" fill-rule="evenodd" fill-opacity="1"/>
<polyline clip-path="url(#clip042)" style="stroke:#000000; stroke-linecap:round; stroke-linejoin:round; stroke-width:4; stroke-opacity:1; fill:none" points="1054.61,1125.71 1054.61,1486.45 1071.7,1486.45 1071.7,1125.71 1054.61,1125.71 "/>
<path clip-path="url(#clip042)" d="M1071.7 1138.27 L1071.7 1486.45 L1088.8 1486.45 L1088.8 1138.27 L1071.7 1138.27 L1071.7 1138.27  Z" fill="#009af9" fill-rule="evenodd" fill-opacity="1"/>
<polyline clip-path="url(#clip042)" style="stroke:#000000; stroke-linecap:round; stroke-linejoin:round; stroke-width:4; stroke-opacity:1; fill:none" points="1071.7,1138.27 1071.7,1486.45 1088.8,1486.45 1088.8,1138.27 1071.7,1138.27 "/>
<path clip-path="url(#clip042)" d="M1088.8 1132.69 L1088.8 1486.45 L1105.9 1486.45 L1105.9 1132.69 L1088.8 1132.69 L1088.8 1132.69  Z" fill="#009af9" fill-rule="evenodd" fill-opacity="1"/>
<polyline clip-path="url(#clip042)" style="stroke:#000000; stroke-linecap:round; stroke-linejoin:round; stroke-width:4; stroke-opacity:1; fill:none" points="1088.8,1132.69 1088.8,1486.45 1105.9,1486.45 1105.9,1132.69 1088.8,1132.69 "/>
<path clip-path="url(#clip042)" d="M1105.9 1097.82 L1105.9 1486.45 L1123 1486.45 L1123 1097.82 L1105.9 1097.82 L1105.9 1097.82  Z" fill="#009af9" fill-rule="evenodd" fill-opacity="1"/>
<polyline clip-path="url(#clip042)" style="stroke:#000000; stroke-linecap:round; stroke-linejoin:round; stroke-width:4; stroke-opacity:1; fill:none" points="1105.9,1097.82 1105.9,1486.45 1123,1486.45 1123,1097.82 1105.9,1097.82 "/>
<path clip-path="url(#clip042)" d="M1123 1141.99 L1123 1486.45 L1140.1 1486.45 L1140.1 1141.99 L1123 1141.99 L1123 1141.99  Z" fill="#009af9" fill-rule="evenodd" fill-opacity="1"/>
<polyline clip-path="url(#clip042)" style="stroke:#000000; stroke-linecap:round; stroke-linejoin:round; stroke-width:4; stroke-opacity:1; fill:none" points="1123,1141.99 1123,1486.45 1140.1,1486.45 1140.1,1141.99 1123,1141.99 "/>
<path clip-path="url(#clip042)" d="M1140.1 1131.76 L1140.1 1486.45 L1157.2 1486.45 L1157.2 1131.76 L1140.1 1131.76 L1140.1 1131.76  Z" fill="#009af9" fill-rule="evenodd" fill-opacity="1"/>
<polyline clip-path="url(#clip042)" style="stroke:#000000; stroke-linecap:round; stroke-linejoin:round; stroke-width:4; stroke-opacity:1; fill:none" points="1140.1,1131.76 1140.1,1486.45 1157.2,1486.45 1157.2,1131.76 1140.1,1131.76 "/>
<path clip-path="url(#clip042)" d="M1157.2 1168.02 L1157.2 1486.45 L1174.3 1486.45 L1174.3 1168.02 L1157.2 1168.02 L1157.2 1168.02  Z" fill="#009af9" fill-rule="evenodd" fill-opacity="1"/>
<polyline clip-path="url(#clip042)" style="stroke:#000000; stroke-linecap:round; stroke-linejoin:round; stroke-width:4; stroke-opacity:1; fill:none" points="1157.2,1168.02 1157.2,1486.45 1174.3,1486.45 1174.3,1168.02 1157.2,1168.02 "/>
<path clip-path="url(#clip042)" d="M1174.3 1181.96 L1174.3 1486.45 L1191.39 1486.45 L1191.39 1181.96 L1174.3 1181.96 L1174.3 1181.96  Z" fill="#009af9" fill-rule="evenodd" fill-opacity="1"/>
<polyline clip-path="url(#clip042)" style="stroke:#000000; stroke-linecap:round; stroke-linejoin:round; stroke-width:4; stroke-opacity:1; fill:none" points="1174.3,1181.96 1174.3,1486.45 1191.39,1486.45 1191.39,1181.96 1174.3,1181.96 "/>
<path clip-path="url(#clip042)" d="M1191.39 1158.26 L1191.39 1486.45 L1208.49 1486.45 L1208.49 1158.26 L1191.39 1158.26 L1191.39 1158.26  Z" fill="#009af9" fill-rule="evenodd" fill-opacity="1"/>
<polyline clip-path="url(#clip042)" style="stroke:#000000; stroke-linecap:round; stroke-linejoin:round; stroke-width:4; stroke-opacity:1; fill:none" points="1191.39,1158.26 1191.39,1486.45 1208.49,1486.45 1208.49,1158.26 1191.39,1158.26 "/>
<path clip-path="url(#clip042)" d="M1208.49 1194.98 L1208.49 1486.45 L1225.59 1486.45 L1225.59 1194.98 L1208.49 1194.98 L1208.49 1194.98  Z" fill="#009af9" fill-rule="evenodd" fill-opacity="1"/>
<polyline clip-path="url(#clip042)" style="stroke:#000000; stroke-linecap:round; stroke-linejoin:round; stroke-width:4; stroke-opacity:1; fill:none" points="1208.49,1194.98 1208.49,1486.45 1225.59,1486.45 1225.59,1194.98 1208.49,1194.98 "/>
<path clip-path="url(#clip042)" d="M1225.59 1162.44 L1225.59 1486.45 L1242.69 1486.45 L1242.69 1162.44 L1225.59 1162.44 L1225.59 1162.44  Z" fill="#009af9" fill-rule="evenodd" fill-opacity="1"/>
<polyline clip-path="url(#clip042)" style="stroke:#000000; stroke-linecap:round; stroke-linejoin:round; stroke-width:4; stroke-opacity:1; fill:none" points="1225.59,1162.44 1225.59,1486.45 1242.69,1486.45 1242.69,1162.44 1225.59,1162.44 "/>
<path clip-path="url(#clip042)" d="M1242.69 1181.03 L1242.69 1486.45 L1259.79 1486.45 L1259.79 1181.03 L1242.69 1181.03 L1242.69 1181.03  Z" fill="#009af9" fill-rule="evenodd" fill-opacity="1"/>
<polyline clip-path="url(#clip042)" style="stroke:#000000; stroke-linecap:round; stroke-linejoin:round; stroke-width:4; stroke-opacity:1; fill:none" points="1242.69,1181.03 1242.69,1486.45 1259.79,1486.45 1259.79,1181.03 1242.69,1181.03 "/>
<path clip-path="url(#clip042)" d="M1259.79 1170.81 L1259.79 1486.45 L1276.89 1486.45 L1276.89 1170.81 L1259.79 1170.81 L1259.79 1170.81  Z" fill="#009af9" fill-rule="evenodd" fill-opacity="1"/>
<polyline clip-path="url(#clip042)" style="stroke:#000000; stroke-linecap:round; stroke-linejoin:round; stroke-width:4; stroke-opacity:1; fill:none" points="1259.79,1170.81 1259.79,1486.45 1276.89,1486.45 1276.89,1170.81 1259.79,1170.81 "/>
<path clip-path="url(#clip042)" d="M1276.89 1194.98 L1276.89 1486.45 L1293.99 1486.45 L1293.99 1194.98 L1276.89 1194.98 L1276.89 1194.98  Z" fill="#009af9" fill-rule="evenodd" fill-opacity="1"/>
<polyline clip-path="url(#clip042)" style="stroke:#000000; stroke-linecap:round; stroke-linejoin:round; stroke-width:4; stroke-opacity:1; fill:none" points="1276.89,1194.98 1276.89,1486.45 1293.99,1486.45 1293.99,1194.98 1276.89,1194.98 "/>
<path clip-path="url(#clip042)" d="M1293.99 1202.42 L1293.99 1486.45 L1311.08 1486.45 L1311.08 1202.42 L1293.99 1202.42 L1293.99 1202.42  Z" fill="#009af9" fill-rule="evenodd" fill-opacity="1"/>
<polyline clip-path="url(#clip042)" style="stroke:#000000; stroke-linecap:round; stroke-linejoin:round; stroke-width:4; stroke-opacity:1; fill:none" points="1293.99,1202.42 1293.99,1486.45 1311.08,1486.45 1311.08,1202.42 1293.99,1202.42 "/>
<path clip-path="url(#clip042)" d="M1311.08 1183.36 L1311.08 1486.45 L1328.18 1486.45 L1328.18 1183.36 L1311.08 1183.36 L1311.08 1183.36  Z" fill="#009af9" fill-rule="evenodd" fill-opacity="1"/>
<polyline clip-path="url(#clip042)" style="stroke:#000000; stroke-linecap:round; stroke-linejoin:round; stroke-width:4; stroke-opacity:1; fill:none" points="1311.08,1183.36 1311.08,1486.45 1328.18,1486.45 1328.18,1183.36 1311.08,1183.36 "/>
<path clip-path="url(#clip042)" d="M1328.18 1185.22 L1328.18 1486.45 L1345.28 1486.45 L1345.28 1185.22 L1328.18 1185.22 L1328.18 1185.22  Z" fill="#009af9" fill-rule="evenodd" fill-opacity="1"/>
<polyline clip-path="url(#clip042)" style="stroke:#000000; stroke-linecap:round; stroke-linejoin:round; stroke-width:4; stroke-opacity:1; fill:none" points="1328.18,1185.22 1328.18,1486.45 1345.28,1486.45 1345.28,1185.22 1328.18,1185.22 "/>
<path clip-path="url(#clip042)" d="M1345.28 1196.37 L1345.28 1486.45 L1362.38 1486.45 L1362.38 1196.37 L1345.28 1196.37 L1345.28 1196.37  Z" fill="#009af9" fill-rule="evenodd" fill-opacity="1"/>
<polyline clip-path="url(#clip042)" style="stroke:#000000; stroke-linecap:round; stroke-linejoin:round; stroke-width:4; stroke-opacity:1; fill:none" points="1345.28,1196.37 1345.28,1486.45 1362.38,1486.45 1362.38,1196.37 1345.28,1196.37 "/>
<path clip-path="url(#clip042)" d="M1362.38 1189.87 L1362.38 1486.45 L1379.48 1486.45 L1379.48 1189.87 L1362.38 1189.87 L1362.38 1189.87  Z" fill="#009af9" fill-rule="evenodd" fill-opacity="1"/>
<polyline clip-path="url(#clip042)" style="stroke:#000000; stroke-linecap:round; stroke-linejoin:round; stroke-width:4; stroke-opacity:1; fill:none" points="1362.38,1189.87 1362.38,1486.45 1379.48,1486.45 1379.48,1189.87 1362.38,1189.87 "/>
<path clip-path="url(#clip042)" d="M1379.48 1188.47 L1379.48 1486.45 L1396.58 1486.45 L1396.58 1188.47 L1379.48 1188.47 L1379.48 1188.47  Z" fill="#009af9" fill-rule="evenodd" fill-opacity="1"/>
<polyline clip-path="url(#clip042)" style="stroke:#000000; stroke-linecap:round; stroke-linejoin:round; stroke-width:4; stroke-opacity:1; fill:none" points="1379.48,1188.47 1379.48,1486.45 1396.58,1486.45 1396.58,1188.47 1379.48,1188.47 "/>
<path clip-path="url(#clip042)" d="M1396.58 1214.97 L1396.58 1486.45 L1413.68 1486.45 L1413.68 1214.97 L1396.58 1214.97 L1396.58 1214.97  Z" fill="#009af9" fill-rule="evenodd" fill-opacity="1"/>
<polyline clip-path="url(#clip042)" style="stroke:#000000; stroke-linecap:round; stroke-linejoin:round; stroke-width:4; stroke-opacity:1; fill:none" points="1396.58,1214.97 1396.58,1486.45 1413.68,1486.45 1413.68,1214.97 1396.58,1214.97 "/>
<path clip-path="url(#clip042)" d="M1413.68 1226.13 L1413.68 1486.45 L1430.77 1486.45 L1430.77 1226.13 L1413.68 1226.13 L1413.68 1226.13  Z" fill="#009af9" fill-rule="evenodd" fill-opacity="1"/>
<polyline clip-path="url(#clip042)" style="stroke:#000000; stroke-linecap:round; stroke-linejoin:round; stroke-width:4; stroke-opacity:1; fill:none" points="1413.68,1226.13 1413.68,1486.45 1430.77,1486.45 1430.77,1226.13 1413.68,1226.13 "/>
<path clip-path="url(#clip042)" d="M1430.77 1241 L1430.77 1486.45 L1447.87 1486.45 L1447.87 1241 L1430.77 1241 L1430.77 1241  Z" fill="#009af9" fill-rule="evenodd" fill-opacity="1"/>
<polyline clip-path="url(#clip042)" style="stroke:#000000; stroke-linecap:round; stroke-linejoin:round; stroke-width:4; stroke-opacity:1; fill:none" points="1430.77,1241 1430.77,1486.45 1447.87,1486.45 1447.87,1241 1430.77,1241 "/>
<path clip-path="url(#clip042)" d="M1447.87 1231.7 L1447.87 1486.45 L1464.97 1486.45 L1464.97 1231.7 L1447.87 1231.7 L1447.87 1231.7  Z" fill="#009af9" fill-rule="evenodd" fill-opacity="1"/>
<polyline clip-path="url(#clip042)" style="stroke:#000000; stroke-linecap:round; stroke-linejoin:round; stroke-width:4; stroke-opacity:1; fill:none" points="1447.87,1231.7 1447.87,1486.45 1464.97,1486.45 1464.97,1231.7 1447.87,1231.7 "/>
<path clip-path="url(#clip042)" d="M1464.97 1235.42 L1464.97 1486.45 L1482.07 1486.45 L1482.07 1235.42 L1464.97 1235.42 L1464.97 1235.42  Z" fill="#009af9" fill-rule="evenodd" fill-opacity="1"/>
<polyline clip-path="url(#clip042)" style="stroke:#000000; stroke-linecap:round; stroke-linejoin:round; stroke-width:4; stroke-opacity:1; fill:none" points="1464.97,1235.42 1464.97,1486.45 1482.07,1486.45 1482.07,1235.42 1464.97,1235.42 "/>
<path clip-path="url(#clip042)" d="M1482.07 1265.17 L1482.07 1486.45 L1499.17 1486.45 L1499.17 1265.17 L1482.07 1265.17 L1482.07 1265.17  Z" fill="#009af9" fill-rule="evenodd" fill-opacity="1"/>
<polyline clip-path="url(#clip042)" style="stroke:#000000; stroke-linecap:round; stroke-linejoin:round; stroke-width:4; stroke-opacity:1; fill:none" points="1482.07,1265.17 1482.07,1486.45 1499.17,1486.45 1499.17,1265.17 1482.07,1265.17 "/>
<path clip-path="url(#clip042)" d="M1499.17 1236.35 L1499.17 1486.45 L1516.27 1486.45 L1516.27 1236.35 L1499.17 1236.35 L1499.17 1236.35  Z" fill="#009af9" fill-rule="evenodd" fill-opacity="1"/>
<polyline clip-path="url(#clip042)" style="stroke:#000000; stroke-linecap:round; stroke-linejoin:round; stroke-width:4; stroke-opacity:1; fill:none" points="1499.17,1236.35 1499.17,1486.45 1516.27,1486.45 1516.27,1236.35 1499.17,1236.35 "/>
<path clip-path="url(#clip042)" d="M1516.27 1263.78 L1516.27 1486.45 L1533.37 1486.45 L1533.37 1263.78 L1516.27 1263.78 L1516.27 1263.78  Z" fill="#009af9" fill-rule="evenodd" fill-opacity="1"/>
<polyline clip-path="url(#clip042)" style="stroke:#000000; stroke-linecap:round; stroke-linejoin:round; stroke-width:4; stroke-opacity:1; fill:none" points="1516.27,1263.78 1516.27,1486.45 1533.37,1486.45 1533.37,1263.78 1516.27,1263.78 "/>
<path clip-path="url(#clip042)" d="M1533.37 1269.36 L1533.37 1486.45 L1550.46 1486.45 L1550.46 1269.36 L1533.37 1269.36 L1533.37 1269.36  Z" fill="#009af9" fill-rule="evenodd" fill-opacity="1"/>
<polyline clip-path="url(#clip042)" style="stroke:#000000; stroke-linecap:round; stroke-linejoin:round; stroke-width:4; stroke-opacity:1; fill:none" points="1533.37,1269.36 1533.37,1486.45 1550.46,1486.45 1550.46,1269.36 1533.37,1269.36 "/>
<path clip-path="url(#clip042)" d="M1550.46 1280.51 L1550.46 1486.45 L1567.56 1486.45 L1567.56 1280.51 L1550.46 1280.51 L1550.46 1280.51  Z" fill="#009af9" fill-rule="evenodd" fill-opacity="1"/>
<polyline clip-path="url(#clip042)" style="stroke:#000000; stroke-linecap:round; stroke-linejoin:round; stroke-width:4; stroke-opacity:1; fill:none" points="1550.46,1280.51 1550.46,1486.45 1567.56,1486.45 1567.56,1280.51 1550.46,1280.51 "/>
<path clip-path="url(#clip042)" d="M1567.56 1269.36 L1567.56 1486.45 L1584.66 1486.45 L1584.66 1269.36 L1567.56 1269.36 L1567.56 1269.36  Z" fill="#009af9" fill-rule="evenodd" fill-opacity="1"/>
<polyline clip-path="url(#clip042)" style="stroke:#000000; stroke-linecap:round; stroke-linejoin:round; stroke-width:4; stroke-opacity:1; fill:none" points="1567.56,1269.36 1567.56,1486.45 1584.66,1486.45 1584.66,1269.36 1567.56,1269.36 "/>
<path clip-path="url(#clip042)" d="M1584.66 1292.6 L1584.66 1486.45 L1601.76 1486.45 L1601.76 1292.6 L1584.66 1292.6 L1584.66 1292.6  Z" fill="#009af9" fill-rule="evenodd" fill-opacity="1"/>
<polyline clip-path="url(#clip042)" style="stroke:#000000; stroke-linecap:round; stroke-linejoin:round; stroke-width:4; stroke-opacity:1; fill:none" points="1584.66,1292.6 1584.66,1486.45 1601.76,1486.45 1601.76,1292.6 1584.66,1292.6 "/>
<path clip-path="url(#clip042)" d="M1601.76 1294.92 L1601.76 1486.45 L1618.86 1486.45 L1618.86 1294.92 L1601.76 1294.92 L1601.76 1294.92  Z" fill="#009af9" fill-rule="evenodd" fill-opacity="1"/>
<polyline clip-path="url(#clip042)" style="stroke:#000000; stroke-linecap:round; stroke-linejoin:round; stroke-width:4; stroke-opacity:1; fill:none" points="1601.76,1294.92 1601.76,1486.45 1618.86,1486.45 1618.86,1294.92 1601.76,1294.92 "/>
<path clip-path="url(#clip042)" d="M1618.86 1291.21 L1618.86 1486.45 L1635.96 1486.45 L1635.96 1291.21 L1618.86 1291.21 L1618.86 1291.21  Z" fill="#009af9" fill-rule="evenodd" fill-opacity="1"/>
<polyline clip-path="url(#clip042)" style="stroke:#000000; stroke-linecap:round; stroke-linejoin:round; stroke-width:4; stroke-opacity:1; fill:none" points="1618.86,1291.21 1618.86,1486.45 1635.96,1486.45 1635.96,1291.21 1618.86,1291.21 "/>
<path clip-path="url(#clip042)" d="M1635.96 1331.65 L1635.96 1486.45 L1653.06 1486.45 L1653.06 1331.65 L1635.96 1331.65 L1635.96 1331.65  Z" fill="#009af9" fill-rule="evenodd" fill-opacity="1"/>
<polyline clip-path="url(#clip042)" style="stroke:#000000; stroke-linecap:round; stroke-linejoin:round; stroke-width:4; stroke-opacity:1; fill:none" points="1635.96,1331.65 1635.96,1486.45 1653.06,1486.45 1653.06,1331.65 1635.96,1331.65 "/>
<path clip-path="url(#clip042)" d="M1653.06 1322.35 L1653.06 1486.45 L1670.15 1486.45 L1670.15 1322.35 L1653.06 1322.35 L1653.06 1322.35  Z" fill="#009af9" fill-rule="evenodd" fill-opacity="1"/>
<polyline clip-path="url(#clip042)" style="stroke:#000000; stroke-linecap:round; stroke-linejoin:round; stroke-width:4; stroke-opacity:1; fill:none" points="1653.06,1322.35 1653.06,1486.45 1670.15,1486.45 1670.15,1322.35 1653.06,1322.35 "/>
<path clip-path="url(#clip042)" d="M1670.15 1327.93 L1670.15 1486.45 L1687.25 1486.45 L1687.25 1327.93 L1670.15 1327.93 L1670.15 1327.93  Z" fill="#009af9" fill-rule="evenodd" fill-opacity="1"/>
<polyline clip-path="url(#clip042)" style="stroke:#000000; stroke-linecap:round; stroke-linejoin:round; stroke-width:4; stroke-opacity:1; fill:none" points="1670.15,1327.93 1670.15,1486.45 1687.25,1486.45 1687.25,1327.93 1670.15,1327.93 "/>
<path clip-path="url(#clip042)" d="M1687.25 1338.62 L1687.25 1486.45 L1704.35 1486.45 L1704.35 1338.62 L1687.25 1338.62 L1687.25 1338.62  Z" fill="#009af9" fill-rule="evenodd" fill-opacity="1"/>
<polyline clip-path="url(#clip042)" style="stroke:#000000; stroke-linecap:round; stroke-linejoin:round; stroke-width:4; stroke-opacity:1; fill:none" points="1687.25,1338.62 1687.25,1486.45 1704.35,1486.45 1704.35,1338.62 1687.25,1338.62 "/>
<path clip-path="url(#clip042)" d="M1704.35 1362.79 L1704.35 1486.45 L1721.45 1486.45 L1721.45 1362.79 L1704.35 1362.79 L1704.35 1362.79  Z" fill="#009af9" fill-rule="evenodd" fill-opacity="1"/>
<polyline clip-path="url(#clip042)" style="stroke:#000000; stroke-linecap:round; stroke-linejoin:round; stroke-width:4; stroke-opacity:1; fill:none" points="1704.35,1362.79 1704.35,1486.45 1721.45,1486.45 1721.45,1362.79 1704.35,1362.79 "/>
<path clip-path="url(#clip042)" d="M1721.45 1371.16 L1721.45 1486.45 L1738.55 1486.45 L1738.55 1371.16 L1721.45 1371.16 L1721.45 1371.16  Z" fill="#009af9" fill-rule="evenodd" fill-opacity="1"/>
<polyline clip-path="url(#clip042)" style="stroke:#000000; stroke-linecap:round; stroke-linejoin:round; stroke-width:4; stroke-opacity:1; fill:none" points="1721.45,1371.16 1721.45,1486.45 1738.55,1486.45 1738.55,1371.16 1721.45,1371.16 "/>
<path clip-path="url(#clip042)" d="M1738.55 1371.63 L1738.55 1486.45 L1755.65 1486.45 L1755.65 1371.63 L1738.55 1371.63 L1738.55 1371.63  Z" fill="#009af9" fill-rule="evenodd" fill-opacity="1"/>
<polyline clip-path="url(#clip042)" style="stroke:#000000; stroke-linecap:round; stroke-linejoin:round; stroke-width:4; stroke-opacity:1; fill:none" points="1738.55,1371.63 1738.55,1486.45 1755.65,1486.45 1755.65,1371.63 1738.55,1371.63 "/>
<path clip-path="url(#clip042)" d="M1755.65 1392.55 L1755.65 1486.45 L1772.75 1486.45 L1772.75 1392.55 L1755.65 1392.55 L1755.65 1392.55  Z" fill="#009af9" fill-rule="evenodd" fill-opacity="1"/>
<polyline clip-path="url(#clip042)" style="stroke:#000000; stroke-linecap:round; stroke-linejoin:round; stroke-width:4; stroke-opacity:1; fill:none" points="1755.65,1392.55 1755.65,1486.45 1772.75,1486.45 1772.75,1392.55 1755.65,1392.55 "/>
<path clip-path="url(#clip042)" d="M1772.75 1392.08 L1772.75 1486.45 L1789.84 1486.45 L1789.84 1392.08 L1772.75 1392.08 L1772.75 1392.08  Z" fill="#009af9" fill-rule="evenodd" fill-opacity="1"/>
<polyline clip-path="url(#clip042)" style="stroke:#000000; stroke-linecap:round; stroke-linejoin:round; stroke-width:4; stroke-opacity:1; fill:none" points="1772.75,1392.08 1772.75,1486.45 1789.84,1486.45 1789.84,1392.08 1772.75,1392.08 "/>
<path clip-path="url(#clip042)" d="M1789.84 1385.57 L1789.84 1486.45 L1806.94 1486.45 L1806.94 1385.57 L1789.84 1385.57 L1789.84 1385.57  Z" fill="#009af9" fill-rule="evenodd" fill-opacity="1"/>
<polyline clip-path="url(#clip042)" style="stroke:#000000; stroke-linecap:round; stroke-linejoin:round; stroke-width:4; stroke-opacity:1; fill:none" points="1789.84,1385.57 1789.84,1486.45 1806.94,1486.45 1806.94,1385.57 1789.84,1385.57 "/>
<path clip-path="url(#clip042)" d="M1806.94 1378.13 L1806.94 1486.45 L1824.04 1486.45 L1824.04 1378.13 L1806.94 1378.13 L1806.94 1378.13  Z" fill="#009af9" fill-rule="evenodd" fill-opacity="1"/>
<polyline clip-path="url(#clip042)" style="stroke:#000000; stroke-linecap:round; stroke-linejoin:round; stroke-width:4; stroke-opacity:1; fill:none" points="1806.94,1378.13 1806.94,1486.45 1824.04,1486.45 1824.04,1378.13 1806.94,1378.13 "/>
<path clip-path="url(#clip042)" d="M1824.04 1399.52 L1824.04 1486.45 L1841.14 1486.45 L1841.14 1399.52 L1824.04 1399.52 L1824.04 1399.52  Z" fill="#009af9" fill-rule="evenodd" fill-opacity="1"/>
<polyline clip-path="url(#clip042)" style="stroke:#000000; stroke-linecap:round; stroke-linejoin:round; stroke-width:4; stroke-opacity:1; fill:none" points="1824.04,1399.52 1824.04,1486.45 1841.14,1486.45 1841.14,1399.52 1824.04,1399.52 "/>
<path clip-path="url(#clip042)" d="M1841.14 1395.8 L1841.14 1486.45 L1858.24 1486.45 L1858.24 1395.8 L1841.14 1395.8 L1841.14 1395.8  Z" fill="#009af9" fill-rule="evenodd" fill-opacity="1"/>
<polyline clip-path="url(#clip042)" style="stroke:#000000; stroke-linecap:round; stroke-linejoin:round; stroke-width:4; stroke-opacity:1; fill:none" points="1841.14,1395.8 1841.14,1486.45 1858.24,1486.45 1858.24,1395.8 1841.14,1395.8 "/>
<path clip-path="url(#clip042)" d="M1858.24 1398.59 L1858.24 1486.45 L1875.34 1486.45 L1875.34 1398.59 L1858.24 1398.59 L1858.24 1398.59  Z" fill="#009af9" fill-rule="evenodd" fill-opacity="1"/>
<polyline clip-path="url(#clip042)" style="stroke:#000000; stroke-linecap:round; stroke-linejoin:round; stroke-width:4; stroke-opacity:1; fill:none" points="1858.24,1398.59 1858.24,1486.45 1875.34,1486.45 1875.34,1398.59 1858.24,1398.59 "/>
<path clip-path="url(#clip042)" d="M1875.34 1399.98 L1875.34 1486.45 L1892.44 1486.45 L1892.44 1399.98 L1875.34 1399.98 L1875.34 1399.98  Z" fill="#009af9" fill-rule="evenodd" fill-opacity="1"/>
<polyline clip-path="url(#clip042)" style="stroke:#000000; stroke-linecap:round; stroke-linejoin:round; stroke-width:4; stroke-opacity:1; fill:none" points="1875.34,1399.98 1875.34,1486.45 1892.44,1486.45 1892.44,1399.98 1875.34,1399.98 "/>
<path clip-path="url(#clip042)" d="M1892.44 1406.03 L1892.44 1486.45 L1909.53 1486.45 L1909.53 1406.03 L1892.44 1406.03 L1892.44 1406.03  Z" fill="#009af9" fill-rule="evenodd" fill-opacity="1"/>
<polyline clip-path="url(#clip042)" style="stroke:#000000; stroke-linecap:round; stroke-linejoin:round; stroke-width:4; stroke-opacity:1; fill:none" points="1892.44,1406.03 1892.44,1486.45 1909.53,1486.45 1909.53,1406.03 1892.44,1406.03 "/>
<path clip-path="url(#clip042)" d="M1909.53 1400.45 L1909.53 1486.45 L1926.63 1486.45 L1926.63 1400.45 L1909.53 1400.45 L1909.53 1400.45  Z" fill="#009af9" fill-rule="evenodd" fill-opacity="1"/>
<polyline clip-path="url(#clip042)" style="stroke:#000000; stroke-linecap:round; stroke-linejoin:round; stroke-width:4; stroke-opacity:1; fill:none" points="1909.53,1400.45 1909.53,1486.45 1926.63,1486.45 1926.63,1400.45 1909.53,1400.45 "/>
<path clip-path="url(#clip042)" d="M1926.63 1407.89 L1926.63 1486.45 L1943.73 1486.45 L1943.73 1407.89 L1926.63 1407.89 L1926.63 1407.89  Z" fill="#009af9" fill-rule="evenodd" fill-opacity="1"/>
<polyline clip-path="url(#clip042)" style="stroke:#000000; stroke-linecap:round; stroke-linejoin:round; stroke-width:4; stroke-opacity:1; fill:none" points="1926.63,1407.89 1926.63,1486.45 1943.73,1486.45 1943.73,1407.89 1926.63,1407.89 "/>
<path clip-path="url(#clip042)" d="M1943.73 1413.46 L1943.73 1486.45 L1960.83 1486.45 L1960.83 1413.46 L1943.73 1413.46 L1943.73 1413.46  Z" fill="#009af9" fill-rule="evenodd" fill-opacity="1"/>
<polyline clip-path="url(#clip042)" style="stroke:#000000; stroke-linecap:round; stroke-linejoin:round; stroke-width:4; stroke-opacity:1; fill:none" points="1943.73,1413.46 1943.73,1486.45 1960.83,1486.45 1960.83,1413.46 1943.73,1413.46 "/>
<path clip-path="url(#clip042)" d="M1960.83 1411.14 L1960.83 1486.45 L1977.93 1486.45 L1977.93 1411.14 L1960.83 1411.14 L1960.83 1411.14  Z" fill="#009af9" fill-rule="evenodd" fill-opacity="1"/>
<polyline clip-path="url(#clip042)" style="stroke:#000000; stroke-linecap:round; stroke-linejoin:round; stroke-width:4; stroke-opacity:1; fill:none" points="1960.83,1411.14 1960.83,1486.45 1977.93,1486.45 1977.93,1411.14 1960.83,1411.14 "/>
<path clip-path="url(#clip042)" d="M1977.93 1398.12 L1977.93 1486.45 L1995.03 1486.45 L1995.03 1398.12 L1977.93 1398.12 L1977.93 1398.12  Z" fill="#009af9" fill-rule="evenodd" fill-opacity="1"/>
<polyline clip-path="url(#clip042)" style="stroke:#000000; stroke-linecap:round; stroke-linejoin:round; stroke-width:4; stroke-opacity:1; fill:none" points="1977.93,1398.12 1977.93,1486.45 1995.03,1486.45 1995.03,1398.12 1977.93,1398.12 "/>
<path clip-path="url(#clip042)" d="M1995.03 1411.14 L1995.03 1486.45 L2012.13 1486.45 L2012.13 1411.14 L1995.03 1411.14 L1995.03 1411.14  Z" fill="#009af9" fill-rule="evenodd" fill-opacity="1"/>
<polyline clip-path="url(#clip042)" style="stroke:#000000; stroke-linecap:round; stroke-linejoin:round; stroke-width:4; stroke-opacity:1; fill:none" points="1995.03,1411.14 1995.03,1486.45 2012.13,1486.45 2012.13,1411.14 1995.03,1411.14 "/>
<path clip-path="url(#clip042)" d="M2012.13 1421.37 L2012.13 1486.45 L2029.22 1486.45 L2029.22 1421.37 L2012.13 1421.37 L2012.13 1421.37  Z" fill="#009af9" fill-rule="evenodd" fill-opacity="1"/>
<polyline clip-path="url(#clip042)" style="stroke:#000000; stroke-linecap:round; stroke-linejoin:round; stroke-width:4; stroke-opacity:1; fill:none" points="2012.13,1421.37 2012.13,1486.45 2029.22,1486.45 2029.22,1421.37 2012.13,1421.37 "/>
<path clip-path="url(#clip042)" d="M2029.22 1430.2 L2029.22 1486.45 L2046.32 1486.45 L2046.32 1430.2 L2029.22 1430.2 L2029.22 1430.2  Z" fill="#009af9" fill-rule="evenodd" fill-opacity="1"/>
<polyline clip-path="url(#clip042)" style="stroke:#000000; stroke-linecap:round; stroke-linejoin:round; stroke-width:4; stroke-opacity:1; fill:none" points="2029.22,1430.2 2029.22,1486.45 2046.32,1486.45 2046.32,1430.2 2029.22,1430.2 "/>
<path clip-path="url(#clip042)" d="M2046.32 1431.59 L2046.32 1486.45 L2063.42 1486.45 L2063.42 1431.59 L2046.32 1431.59 L2046.32 1431.59  Z" fill="#009af9" fill-rule="evenodd" fill-opacity="1"/>
<polyline clip-path="url(#clip042)" style="stroke:#000000; stroke-linecap:round; stroke-linejoin:round; stroke-width:4; stroke-opacity:1; fill:none" points="2046.32,1431.59 2046.32,1486.45 2063.42,1486.45 2063.42,1431.59 2046.32,1431.59 "/>
<path clip-path="url(#clip042)" d="M2063.42 1439.5 L2063.42 1486.45 L2080.52 1486.45 L2080.52 1439.5 L2063.42 1439.5 L2063.42 1439.5  Z" fill="#009af9" fill-rule="evenodd" fill-opacity="1"/>
<polyline clip-path="url(#clip042)" style="stroke:#000000; stroke-linecap:round; stroke-linejoin:round; stroke-width:4; stroke-opacity:1; fill:none" points="2063.42,1439.5 2063.42,1486.45 2080.52,1486.45 2080.52,1439.5 2063.42,1439.5 "/>
<path clip-path="url(#clip042)" d="M2080.52 1440.89 L2080.52 1486.45 L2097.62 1486.45 L2097.62 1440.89 L2080.52 1440.89 L2080.52 1440.89  Z" fill="#009af9" fill-rule="evenodd" fill-opacity="1"/>
<polyline clip-path="url(#clip042)" style="stroke:#000000; stroke-linecap:round; stroke-linejoin:round; stroke-width:4; stroke-opacity:1; fill:none" points="2080.52,1440.89 2080.52,1486.45 2097.62,1486.45 2097.62,1440.89 2080.52,1440.89 "/>
<path clip-path="url(#clip042)" d="M2097.62 1451.12 L2097.62 1486.45 L2114.72 1486.45 L2114.72 1451.12 L2097.62 1451.12 L2097.62 1451.12  Z" fill="#009af9" fill-rule="evenodd" fill-opacity="1"/>
<polyline clip-path="url(#clip042)" style="stroke:#000000; stroke-linecap:round; stroke-linejoin:round; stroke-width:4; stroke-opacity:1; fill:none" points="2097.62,1451.12 2097.62,1486.45 2114.72,1486.45 2114.72,1451.12 2097.62,1451.12 "/>
<path clip-path="url(#clip042)" d="M2114.72 1465.06 L2114.72 1486.45 L2131.82 1486.45 L2131.82 1465.06 L2114.72 1465.06 L2114.72 1465.06  Z" fill="#009af9" fill-rule="evenodd" fill-opacity="1"/>
<polyline clip-path="url(#clip042)" style="stroke:#000000; stroke-linecap:round; stroke-linejoin:round; stroke-width:4; stroke-opacity:1; fill:none" points="2114.72,1465.06 2114.72,1486.45 2131.82,1486.45 2131.82,1465.06 2114.72,1465.06 "/>
<path clip-path="url(#clip042)" d="M2131.82 1470.64 L2131.82 1486.45 L2148.91 1486.45 L2148.91 1470.64 L2131.82 1470.64 L2131.82 1470.64  Z" fill="#009af9" fill-rule="evenodd" fill-opacity="1"/>
<polyline clip-path="url(#clip042)" style="stroke:#000000; stroke-linecap:round; stroke-linejoin:round; stroke-width:4; stroke-opacity:1; fill:none" points="2131.82,1470.64 2131.82,1486.45 2148.91,1486.45 2148.91,1470.64 2131.82,1470.64 "/>
<path clip-path="url(#clip042)" d="M2148.91 1473.9 L2148.91 1486.45 L2166.01 1486.45 L2166.01 1473.9 L2148.91 1473.9 L2148.91 1473.9  Z" fill="#009af9" fill-rule="evenodd" fill-opacity="1"/>
<polyline clip-path="url(#clip042)" style="stroke:#000000; stroke-linecap:round; stroke-linejoin:round; stroke-width:4; stroke-opacity:1; fill:none" points="2148.91,1473.9 2148.91,1486.45 2166.01,1486.45 2166.01,1473.9 2148.91,1473.9 "/>
<path clip-path="url(#clip042)" d="M2166.01 1480.87 L2166.01 1486.45 L2183.11 1486.45 L2183.11 1480.87 L2166.01 1480.87 L2166.01 1480.87  Z" fill="#009af9" fill-rule="evenodd" fill-opacity="1"/>
<polyline clip-path="url(#clip042)" style="stroke:#000000; stroke-linecap:round; stroke-linejoin:round; stroke-width:4; stroke-opacity:1; fill:none" points="2166.01,1480.87 2166.01,1486.45 2183.11,1486.45 2183.11,1480.87 2166.01,1480.87 "/>
<path clip-path="url(#clip042)" d="M2183.11 1479.47 L2183.11 1486.45 L2200.21 1486.45 L2200.21 1479.47 L2183.11 1479.47 L2183.11 1479.47  Z" fill="#009af9" fill-rule="evenodd" fill-opacity="1"/>
<polyline clip-path="url(#clip042)" style="stroke:#000000; stroke-linecap:round; stroke-linejoin:round; stroke-width:4; stroke-opacity:1; fill:none" points="2183.11,1479.47 2183.11,1486.45 2200.21,1486.45 2200.21,1479.47 2183.11,1479.47 "/>
<path clip-path="url(#clip042)" d="M2200.21 1484.12 L2200.21 1486.45 L2217.31 1486.45 L2217.31 1484.12 L2200.21 1484.12 L2200.21 1484.12  Z" fill="#009af9" fill-rule="evenodd" fill-opacity="1"/>
<polyline clip-path="url(#clip042)" style="stroke:#000000; stroke-linecap:round; stroke-linejoin:round; stroke-width:4; stroke-opacity:1; fill:none" points="2200.21,1484.12 2200.21,1486.45 2217.31,1486.45 2217.31,1484.12 2200.21,1484.12 "/>
<path clip-path="url(#clip042)" d="M2217.31 1485.98 L2217.31 1486.45 L2234.41 1486.45 L2234.41 1485.98 L2217.31 1485.98 L2217.31 1485.98  Z" fill="#009af9" fill-rule="evenodd" fill-opacity="1"/>
<polyline clip-path="url(#clip042)" style="stroke:#000000; stroke-linecap:round; stroke-linejoin:round; stroke-width:4; stroke-opacity:1; fill:none" points="2217.31,1485.98 2217.31,1486.45 2234.41,1486.45 2234.41,1485.98 2217.31,1485.98 "/>
<circle clip-path="url(#clip042)" style="fill:#009af9; stroke:none; fill-opacity:0" cx="327.918" cy="639.004" r="2"/>
<circle clip-path="url(#clip042)" style="fill:#009af9; stroke:none; fill-opacity:0" cx="345.016" cy="123.472" r="2"/>
<circle clip-path="url(#clip042)" style="fill:#009af9; stroke:none; fill-opacity:0" cx="362.115" cy="349.86" r="2"/>
<circle clip-path="url(#clip042)" style="fill:#009af9; stroke:none; fill-opacity:0" cx="379.214" cy="566.021" r="2"/>
<circle clip-path="url(#clip042)" style="fill:#009af9; stroke:none; fill-opacity:0" cx="396.312" cy="693.393" r="2"/>
<circle clip-path="url(#clip042)" style="fill:#009af9; stroke:none; fill-opacity:0" cx="413.411" cy="784.971" r="2"/>
<circle clip-path="url(#clip042)" style="fill:#009af9; stroke:none; fill-opacity:0" cx="430.509" cy="823.554" r="2"/>
<circle clip-path="url(#clip042)" style="fill:#009af9; stroke:none; fill-opacity:0" cx="447.608" cy="849.122" r="2"/>
<circle clip-path="url(#clip042)" style="fill:#009af9; stroke:none; fill-opacity:0" cx="464.706" cy="878.873" r="2"/>
<circle clip-path="url(#clip042)" style="fill:#009af9; stroke:none; fill-opacity:0" cx="481.805" cy="899.327" r="2"/>
<circle clip-path="url(#clip042)" style="fill:#009af9; stroke:none; fill-opacity:0" cx="498.903" cy="895.143" r="2"/>
<circle clip-path="url(#clip042)" style="fill:#009af9; stroke:none; fill-opacity:0" cx="516.002" cy="917.921" r="2"/>
<circle clip-path="url(#clip042)" style="fill:#009af9; stroke:none; fill-opacity:0" cx="533.101" cy="913.273" r="2"/>
<circle clip-path="url(#clip042)" style="fill:#009af9; stroke:none; fill-opacity:0" cx="550.199" cy="921.64" r="2"/>
<circle clip-path="url(#clip042)" style="fill:#009af9; stroke:none; fill-opacity:0" cx="567.298" cy="907.695" r="2"/>
<circle clip-path="url(#clip042)" style="fill:#009af9; stroke:none; fill-opacity:0" cx="584.396" cy="918.386" r="2"/>
<circle clip-path="url(#clip042)" style="fill:#009af9; stroke:none; fill-opacity:0" cx="601.495" cy="955.575" r="2"/>
<circle clip-path="url(#clip042)" style="fill:#009af9; stroke:none; fill-opacity:0" cx="618.593" cy="969.056" r="2"/>
<circle clip-path="url(#clip042)" style="fill:#009af9; stroke:none; fill-opacity:0" cx="635.692" cy="972.31" r="2"/>
<circle clip-path="url(#clip042)" style="fill:#009af9; stroke:none; fill-opacity:0" cx="652.79" cy="981.143" r="2"/>
<circle clip-path="url(#clip042)" style="fill:#009af9; stroke:none; fill-opacity:0" cx="669.889" cy="993.229" r="2"/>
<circle clip-path="url(#clip042)" style="fill:#009af9; stroke:none; fill-opacity:0" cx="686.988" cy="1020.19" r="2"/>
<circle clip-path="url(#clip042)" style="fill:#009af9; stroke:none; fill-opacity:0" cx="704.086" cy="1000.2" r="2"/>
<circle clip-path="url(#clip042)" style="fill:#009af9; stroke:none; fill-opacity:0" cx="721.185" cy="1008.1" r="2"/>
<circle clip-path="url(#clip042)" style="fill:#009af9; stroke:none; fill-opacity:0" cx="738.283" cy="1022.98" r="2"/>
<circle clip-path="url(#clip042)" style="fill:#009af9; stroke:none; fill-opacity:0" cx="755.382" cy="1057.38" r="2"/>
<circle clip-path="url(#clip042)" style="fill:#009af9; stroke:none; fill-opacity:0" cx="772.48" cy="1031.81" r="2"/>
<circle clip-path="url(#clip042)" style="fill:#009af9; stroke:none; fill-opacity:0" cx="789.579" cy="1054.13" r="2"/>
<circle clip-path="url(#clip042)" style="fill:#009af9; stroke:none; fill-opacity:0" cx="806.677" cy="1048.55" r="2"/>
<circle clip-path="url(#clip042)" style="fill:#009af9; stroke:none; fill-opacity:0" cx="823.776" cy="1070.86" r="2"/>
<circle clip-path="url(#clip042)" style="fill:#009af9; stroke:none; fill-opacity:0" cx="840.875" cy="1058.77" r="2"/>
<circle clip-path="url(#clip042)" style="fill:#009af9; stroke:none; fill-opacity:0" cx="857.973" cy="1055.06" r="2"/>
<circle clip-path="url(#clip042)" style="fill:#009af9; stroke:none; fill-opacity:0" cx="875.072" cy="1088.99" r="2"/>
<circle clip-path="url(#clip042)" style="fill:#009af9; stroke:none; fill-opacity:0" cx="892.17" cy="1065.28" r="2"/>
<circle clip-path="url(#clip042)" style="fill:#009af9; stroke:none; fill-opacity:0" cx="909.269" cy="1072.72" r="2"/>
<circle clip-path="url(#clip042)" style="fill:#009af9; stroke:none; fill-opacity:0" cx="926.367" cy="1092.24" r="2"/>
<circle clip-path="url(#clip042)" style="fill:#009af9; stroke:none; fill-opacity:0" cx="943.466" cy="1102.01" r="2"/>
<circle clip-path="url(#clip042)" style="fill:#009af9; stroke:none; fill-opacity:0" cx="960.564" cy="1099.68" r="2"/>
<circle clip-path="url(#clip042)" style="fill:#009af9; stroke:none; fill-opacity:0" cx="977.663" cy="1107.59" r="2"/>
<circle clip-path="url(#clip042)" style="fill:#009af9; stroke:none; fill-opacity:0" cx="994.761" cy="1138.73" r="2"/>
<circle clip-path="url(#clip042)" style="fill:#009af9; stroke:none; fill-opacity:0" cx="1011.86" cy="1140.13" r="2"/>
<circle clip-path="url(#clip042)" style="fill:#009af9; stroke:none; fill-opacity:0" cx="1028.96" cy="1112.7" r="2"/>
<circle clip-path="url(#clip042)" style="fill:#009af9; stroke:none; fill-opacity:0" cx="1046.06" cy="1107.59" r="2"/>
<circle clip-path="url(#clip042)" style="fill:#009af9; stroke:none; fill-opacity:0" cx="1063.16" cy="1125.71" r="2"/>
<circle clip-path="url(#clip042)" style="fill:#009af9; stroke:none; fill-opacity:0" cx="1080.25" cy="1138.27" r="2"/>
<circle clip-path="url(#clip042)" style="fill:#009af9; stroke:none; fill-opacity:0" cx="1097.35" cy="1132.69" r="2"/>
<circle clip-path="url(#clip042)" style="fill:#009af9; stroke:none; fill-opacity:0" cx="1114.45" cy="1097.82" r="2"/>
<circle clip-path="url(#clip042)" style="fill:#009af9; stroke:none; fill-opacity:0" cx="1131.55" cy="1141.99" r="2"/>
<circle clip-path="url(#clip042)" style="fill:#009af9; stroke:none; fill-opacity:0" cx="1148.65" cy="1131.76" r="2"/>
<circle clip-path="url(#clip042)" style="fill:#009af9; stroke:none; fill-opacity:0" cx="1165.75" cy="1168.02" r="2"/>
<circle clip-path="url(#clip042)" style="fill:#009af9; stroke:none; fill-opacity:0" cx="1182.85" cy="1181.96" r="2"/>
<circle clip-path="url(#clip042)" style="fill:#009af9; stroke:none; fill-opacity:0" cx="1199.94" cy="1158.26" r="2"/>
<circle clip-path="url(#clip042)" style="fill:#009af9; stroke:none; fill-opacity:0" cx="1217.04" cy="1194.98" r="2"/>
<circle clip-path="url(#clip042)" style="fill:#009af9; stroke:none; fill-opacity:0" cx="1234.14" cy="1162.44" r="2"/>
<circle clip-path="url(#clip042)" style="fill:#009af9; stroke:none; fill-opacity:0" cx="1251.24" cy="1181.03" r="2"/>
<circle clip-path="url(#clip042)" style="fill:#009af9; stroke:none; fill-opacity:0" cx="1268.34" cy="1170.81" r="2"/>
<circle clip-path="url(#clip042)" style="fill:#009af9; stroke:none; fill-opacity:0" cx="1285.44" cy="1194.98" r="2"/>
<circle clip-path="url(#clip042)" style="fill:#009af9; stroke:none; fill-opacity:0" cx="1302.54" cy="1202.42" r="2"/>
<circle clip-path="url(#clip042)" style="fill:#009af9; stroke:none; fill-opacity:0" cx="1319.63" cy="1183.36" r="2"/>
<circle clip-path="url(#clip042)" style="fill:#009af9; stroke:none; fill-opacity:0" cx="1336.73" cy="1185.22" r="2"/>
<circle clip-path="url(#clip042)" style="fill:#009af9; stroke:none; fill-opacity:0" cx="1353.83" cy="1196.37" r="2"/>
<circle clip-path="url(#clip042)" style="fill:#009af9; stroke:none; fill-opacity:0" cx="1370.93" cy="1189.87" r="2"/>
<circle clip-path="url(#clip042)" style="fill:#009af9; stroke:none; fill-opacity:0" cx="1388.03" cy="1188.47" r="2"/>
<circle clip-path="url(#clip042)" style="fill:#009af9; stroke:none; fill-opacity:0" cx="1405.13" cy="1214.97" r="2"/>
<circle clip-path="url(#clip042)" style="fill:#009af9; stroke:none; fill-opacity:0" cx="1422.23" cy="1226.13" r="2"/>
<circle clip-path="url(#clip042)" style="fill:#009af9; stroke:none; fill-opacity:0" cx="1439.32" cy="1241" r="2"/>
<circle clip-path="url(#clip042)" style="fill:#009af9; stroke:none; fill-opacity:0" cx="1456.42" cy="1231.7" r="2"/>
<circle clip-path="url(#clip042)" style="fill:#009af9; stroke:none; fill-opacity:0" cx="1473.52" cy="1235.42" r="2"/>
<circle clip-path="url(#clip042)" style="fill:#009af9; stroke:none; fill-opacity:0" cx="1490.62" cy="1265.17" r="2"/>
<circle clip-path="url(#clip042)" style="fill:#009af9; stroke:none; fill-opacity:0" cx="1507.72" cy="1236.35" r="2"/>
<circle clip-path="url(#clip042)" style="fill:#009af9; stroke:none; fill-opacity:0" cx="1524.82" cy="1263.78" r="2"/>
<circle clip-path="url(#clip042)" style="fill:#009af9; stroke:none; fill-opacity:0" cx="1541.92" cy="1269.36" r="2"/>
<circle clip-path="url(#clip042)" style="fill:#009af9; stroke:none; fill-opacity:0" cx="1559.01" cy="1280.51" r="2"/>
<circle clip-path="url(#clip042)" style="fill:#009af9; stroke:none; fill-opacity:0" cx="1576.11" cy="1269.36" r="2"/>
<circle clip-path="url(#clip042)" style="fill:#009af9; stroke:none; fill-opacity:0" cx="1593.21" cy="1292.6" r="2"/>
<circle clip-path="url(#clip042)" style="fill:#009af9; stroke:none; fill-opacity:0" cx="1610.31" cy="1294.92" r="2"/>
<circle clip-path="url(#clip042)" style="fill:#009af9; stroke:none; fill-opacity:0" cx="1627.41" cy="1291.21" r="2"/>
<circle clip-path="url(#clip042)" style="fill:#009af9; stroke:none; fill-opacity:0" cx="1644.51" cy="1331.65" r="2"/>
<circle clip-path="url(#clip042)" style="fill:#009af9; stroke:none; fill-opacity:0" cx="1661.61" cy="1322.35" r="2"/>
<circle clip-path="url(#clip042)" style="fill:#009af9; stroke:none; fill-opacity:0" cx="1678.7" cy="1327.93" r="2"/>
<circle clip-path="url(#clip042)" style="fill:#009af9; stroke:none; fill-opacity:0" cx="1695.8" cy="1338.62" r="2"/>
<circle clip-path="url(#clip042)" style="fill:#009af9; stroke:none; fill-opacity:0" cx="1712.9" cy="1362.79" r="2"/>
<circle clip-path="url(#clip042)" style="fill:#009af9; stroke:none; fill-opacity:0" cx="1730" cy="1371.16" r="2"/>
<circle clip-path="url(#clip042)" style="fill:#009af9; stroke:none; fill-opacity:0" cx="1747.1" cy="1371.63" r="2"/>
<circle clip-path="url(#clip042)" style="fill:#009af9; stroke:none; fill-opacity:0" cx="1764.2" cy="1392.55" r="2"/>
<circle clip-path="url(#clip042)" style="fill:#009af9; stroke:none; fill-opacity:0" cx="1781.29" cy="1392.08" r="2"/>
<circle clip-path="url(#clip042)" style="fill:#009af9; stroke:none; fill-opacity:0" cx="1798.39" cy="1385.57" r="2"/>
<circle clip-path="url(#clip042)" style="fill:#009af9; stroke:none; fill-opacity:0" cx="1815.49" cy="1378.13" r="2"/>
<circle clip-path="url(#clip042)" style="fill:#009af9; stroke:none; fill-opacity:0" cx="1832.59" cy="1399.52" r="2"/>
<circle clip-path="url(#clip042)" style="fill:#009af9; stroke:none; fill-opacity:0" cx="1849.69" cy="1395.8" r="2"/>
<circle clip-path="url(#clip042)" style="fill:#009af9; stroke:none; fill-opacity:0" cx="1866.79" cy="1398.59" r="2"/>
<circle clip-path="url(#clip042)" style="fill:#009af9; stroke:none; fill-opacity:0" cx="1883.89" cy="1399.98" r="2"/>
<circle clip-path="url(#clip042)" style="fill:#009af9; stroke:none; fill-opacity:0" cx="1900.98" cy="1406.03" r="2"/>
<circle clip-path="url(#clip042)" style="fill:#009af9; stroke:none; fill-opacity:0" cx="1918.08" cy="1400.45" r="2"/>
<circle clip-path="url(#clip042)" style="fill:#009af9; stroke:none; fill-opacity:0" cx="1935.18" cy="1407.89" r="2"/>
<circle clip-path="url(#clip042)" style="fill:#009af9; stroke:none; fill-opacity:0" cx="1952.28" cy="1413.46" r="2"/>
<circle clip-path="url(#clip042)" style="fill:#009af9; stroke:none; fill-opacity:0" cx="1969.38" cy="1411.14" r="2"/>
<circle clip-path="url(#clip042)" style="fill:#009af9; stroke:none; fill-opacity:0" cx="1986.48" cy="1398.12" r="2"/>
<circle clip-path="url(#clip042)" style="fill:#009af9; stroke:none; fill-opacity:0" cx="2003.58" cy="1411.14" r="2"/>
<circle clip-path="url(#clip042)" style="fill:#009af9; stroke:none; fill-opacity:0" cx="2020.67" cy="1421.37" r="2"/>
<circle clip-path="url(#clip042)" style="fill:#009af9; stroke:none; fill-opacity:0" cx="2037.77" cy="1430.2" r="2"/>
<circle clip-path="url(#clip042)" style="fill:#009af9; stroke:none; fill-opacity:0" cx="2054.87" cy="1431.59" r="2"/>
<circle clip-path="url(#clip042)" style="fill:#009af9; stroke:none; fill-opacity:0" cx="2071.97" cy="1439.5" r="2"/>
<circle clip-path="url(#clip042)" style="fill:#009af9; stroke:none; fill-opacity:0" cx="2089.07" cy="1440.89" r="2"/>
<circle clip-path="url(#clip042)" style="fill:#009af9; stroke:none; fill-opacity:0" cx="2106.17" cy="1451.12" r="2"/>
<circle clip-path="url(#clip042)" style="fill:#009af9; stroke:none; fill-opacity:0" cx="2123.27" cy="1465.06" r="2"/>
<circle clip-path="url(#clip042)" style="fill:#009af9; stroke:none; fill-opacity:0" cx="2140.36" cy="1470.64" r="2"/>
<circle clip-path="url(#clip042)" style="fill:#009af9; stroke:none; fill-opacity:0" cx="2157.46" cy="1473.9" r="2"/>
<circle clip-path="url(#clip042)" style="fill:#009af9; stroke:none; fill-opacity:0" cx="2174.56" cy="1480.87" r="2"/>
<circle clip-path="url(#clip042)" style="fill:#009af9; stroke:none; fill-opacity:0" cx="2191.66" cy="1479.47" r="2"/>
<circle clip-path="url(#clip042)" style="fill:#009af9; stroke:none; fill-opacity:0" cx="2208.76" cy="1484.12" r="2"/>
<circle clip-path="url(#clip042)" style="fill:#009af9; stroke:none; fill-opacity:0" cx="2225.86" cy="1485.98" r="2"/>
<path clip-path="url(#clip040)" d="M2013.43 272.585 L2281.03 272.585 L2281.03 168.905 L2013.43 168.905  Z" fill="#ffffff" fill-rule="evenodd" fill-opacity="1"/>
<polyline clip-path="url(#clip040)" style="stroke:#000000; stroke-linecap:round; stroke-linejoin:round; stroke-width:4; stroke-opacity:1; fill:none" points="2013.43,272.585 2281.03,272.585 2281.03,168.905 2013.43,168.905 2013.43,272.585 "/>
<path clip-path="url(#clip040)" d="M2037.34 241.481 L2180.78 241.481 L2180.78 200.009 L2037.34 200.009 L2037.34 241.481  Z" fill="#009af9" fill-rule="evenodd" fill-opacity="1"/>
<polyline clip-path="url(#clip040)" style="stroke:#000000; stroke-linecap:round; stroke-linejoin:round; stroke-width:4; stroke-opacity:1; fill:none" points="2037.34,241.481 2180.78,241.481 2180.78,200.009 2037.34,200.009 2037.34,241.481 "/>
<path clip-path="url(#clip040)" d="M2218.54 240.432 Q2216.73 245.062 2215.02 246.474 Q2213.3 247.886 2210.43 247.886 L2207.03 247.886 L2207.03 244.321 L2209.53 244.321 Q2211.29 244.321 2212.26 243.488 Q2213.23 242.654 2214.42 239.552 L2215.18 237.608 L2204.69 212.099 L2209.21 212.099 L2217.31 232.377 L2225.41 212.099 L2229.92 212.099 L2218.54 240.432 Z" fill="#000000" fill-rule="nonzero" fill-opacity="1" /><path clip-path="url(#clip040)" d="M2237.22 234.089 L2244.85 234.089 L2244.85 207.724 L2236.54 209.391 L2236.54 205.131 L2244.81 203.465 L2249.48 203.465 L2249.48 234.089 L2257.12 234.089 L2257.12 238.025 L2237.22 238.025 L2237.22 234.089 Z" fill="#000000" fill-rule="nonzero" fill-opacity="1" /></svg>
