<?xml version="1.0" encoding="utf-8"?>
<svg xmlns="http://www.w3.org/2000/svg" xmlns:xlink="http://www.w3.org/1999/xlink" width="600" height="400" viewBox="0 0 2400 1600">
<defs>
  <clipPath id="clip800">
    <rect x="0" y="0" width="2400" height="1600"/>
  </clipPath>
</defs>
<path clip-path="url(#clip800)" d="M0 1600 L2400 1600 L2400 0 L0 0  Z" fill="#ffffff" fill-rule="evenodd" fill-opacity="1"/>
<defs>
  <clipPath id="clip801">
    <rect x="480" y="0" width="1681" height="1600"/>
  </clipPath>
</defs>
<path clip-path="url(#clip800)" d="M202.177 1486.45 L2352.76 1486.45 L2352.76 123.472 L202.177 123.472  Z" fill="#ffffff" fill-rule="evenodd" fill-opacity="1"/>
<defs>
  <clipPath id="clip802">
    <rect x="202" y="123" width="2152" height="1364"/>
  </clipPath>
</defs>
<polyline clip-path="url(#clip802)" style="stroke:#000000; stroke-linecap:round; stroke-linejoin:round; stroke-width:2; stroke-opacity:0.1; fill:none" points="320.462,1486.45 320.462,123.472 "/>
<polyline clip-path="url(#clip802)" style="stroke:#000000; stroke-linecap:round; stroke-linejoin:round; stroke-width:2; stroke-opacity:0.1; fill:none" points="745.797,1486.45 745.797,123.472 "/>
<polyline clip-path="url(#clip802)" style="stroke:#000000; stroke-linecap:round; stroke-linejoin:round; stroke-width:2; stroke-opacity:0.1; fill:none" points="1171.13,1486.45 1171.13,123.472 "/>
<polyline clip-path="url(#clip802)" style="stroke:#000000; stroke-linecap:round; stroke-linejoin:round; stroke-width:2; stroke-opacity:0.1; fill:none" points="1596.47,1486.45 1596.47,123.472 "/>
<polyline clip-path="url(#clip802)" style="stroke:#000000; stroke-linecap:round; stroke-linejoin:round; stroke-width:2; stroke-opacity:0.1; fill:none" points="2021.8,1486.45 2021.8,123.472 "/>
<polyline clip-path="url(#clip802)" style="stroke:#000000; stroke-linecap:round; stroke-linejoin:round; stroke-width:2; stroke-opacity:0.1; fill:none" points="202.177,1486.45 2352.76,1486.45 "/>
<polyline clip-path="url(#clip802)" style="stroke:#000000; stroke-linecap:round; stroke-linejoin:round; stroke-width:2; stroke-opacity:0.1; fill:none" points="202.177,1259.44 2352.76,1259.44 "/>
<polyline clip-path="url(#clip802)" style="stroke:#000000; stroke-linecap:round; stroke-linejoin:round; stroke-width:2; stroke-opacity:0.1; fill:none" points="202.177,1032.43 2352.76,1032.43 "/>
<polyline clip-path="url(#clip802)" style="stroke:#000000; stroke-linecap:round; stroke-linejoin:round; stroke-width:2; stroke-opacity:0.1; fill:none" points="202.177,805.414 2352.76,805.414 "/>
<polyline clip-path="url(#clip802)" style="stroke:#000000; stroke-linecap:round; stroke-linejoin:round; stroke-width:2; stroke-opacity:0.1; fill:none" points="202.177,578.403 2352.76,578.403 "/>
<polyline clip-path="url(#clip802)" style="stroke:#000000; stroke-linecap:round; stroke-linejoin:round; stroke-width:2; stroke-opacity:0.1; fill:none" points="202.177,351.391 2352.76,351.391 "/>
<polyline clip-path="url(#clip802)" style="stroke:#000000; stroke-linecap:round; stroke-linejoin:round; stroke-width:2; stroke-opacity:0.1; fill:none" points="202.177,124.38 2352.76,124.38 "/>
<polyline clip-path="url(#clip800)" style="stroke:#000000; stroke-linecap:round; stroke-linejoin:round; stroke-width:4; stroke-opacity:1; fill:none" points="202.177,1486.45 2352.76,1486.45 "/>
<polyline clip-path="url(#clip800)" style="stroke:#000000; stroke-linecap:round; stroke-linejoin:round; stroke-width:4; stroke-opacity:1; fill:none" points="320.462,1486.45 320.462,1467.55 "/>
<polyline clip-path="url(#clip800)" style="stroke:#000000; stroke-linecap:round; stroke-linejoin:round; stroke-width:4; stroke-opacity:1; fill:none" points="745.797,1486.45 745.797,1467.55 "/>
<polyline clip-path="url(#clip800)" style="stroke:#000000; stroke-linecap:round; stroke-linejoin:round; stroke-width:4; stroke-opacity:1; fill:none" points="1171.13,1486.45 1171.13,1467.55 "/>
<polyline clip-path="url(#clip800)" style="stroke:#000000; stroke-linecap:round; stroke-linejoin:round; stroke-width:4; stroke-opacity:1; fill:none" points="1596.47,1486.45 1596.47,1467.55 "/>
<polyline clip-path="url(#clip800)" style="stroke:#000000; stroke-linecap:round; stroke-linejoin:round; stroke-width:4; stroke-opacity:1; fill:none" points="2021.8,1486.45 2021.8,1467.55 "/>
<path clip-path="url(#clip800)" d="M320.462 1517.37 Q316.851 1517.37 315.023 1520.93 Q313.217 1524.47 313.217 1531.6 Q313.217 1538.71 315.023 1542.27 Q316.851 1545.82 320.462 1545.82 Q324.097 1545.82 325.902 1542.27 Q327.731 1538.71 327.731 1531.6 Q327.731 1524.47 325.902 1520.93 Q324.097 1517.37 320.462 1517.37 M320.462 1513.66 Q326.273 1513.66 329.328 1518.27 Q332.407 1522.85 332.407 1531.6 Q332.407 1540.33 329.328 1544.94 Q326.273 1549.52 320.462 1549.52 Q314.652 1549.52 311.574 1544.94 Q308.518 1540.33 308.518 1531.6 Q308.518 1522.85 311.574 1518.27 Q314.652 1513.66 320.462 1513.66 Z" fill="#000000" fill-rule="nonzero" fill-opacity="1" /><path clip-path="url(#clip800)" d="M720.497 1514.29 L738.853 1514.29 L738.853 1518.22 L724.779 1518.22 L724.779 1526.7 Q725.798 1526.35 726.816 1526.19 Q727.835 1526 728.853 1526 Q734.64 1526 738.02 1529.17 Q741.399 1532.34 741.399 1537.76 Q741.399 1543.34 737.927 1546.44 Q734.455 1549.52 728.136 1549.52 Q725.96 1549.52 723.691 1549.15 Q721.446 1548.78 719.038 1548.04 L719.038 1543.34 Q721.122 1544.47 723.344 1545.03 Q725.566 1545.58 728.043 1545.58 Q732.048 1545.58 734.385 1543.48 Q736.723 1541.37 736.723 1537.76 Q736.723 1534.15 734.385 1532.04 Q732.048 1529.94 728.043 1529.94 Q726.168 1529.94 724.293 1530.35 Q722.441 1530.77 720.497 1531.65 L720.497 1514.29 Z" fill="#000000" fill-rule="nonzero" fill-opacity="1" /><path clip-path="url(#clip800)" d="M760.612 1517.37 Q757.001 1517.37 755.172 1520.93 Q753.367 1524.47 753.367 1531.6 Q753.367 1538.71 755.172 1542.27 Q757.001 1545.82 760.612 1545.82 Q764.246 1545.82 766.052 1542.27 Q767.881 1538.71 767.881 1531.6 Q767.881 1524.47 766.052 1520.93 Q764.246 1517.37 760.612 1517.37 M760.612 1513.66 Q766.422 1513.66 769.478 1518.27 Q772.557 1522.85 772.557 1531.6 Q772.557 1540.33 769.478 1544.94 Q766.422 1549.52 760.612 1549.52 Q754.802 1549.52 751.723 1544.94 Q748.668 1540.33 748.668 1531.6 Q748.668 1522.85 751.723 1518.27 Q754.802 1513.66 760.612 1513.66 Z" fill="#000000" fill-rule="nonzero" fill-opacity="1" /><path clip-path="url(#clip800)" d="M1130.74 1544.91 L1138.38 1544.91 L1138.38 1518.55 L1130.07 1520.21 L1130.07 1515.95 L1138.33 1514.29 L1143.01 1514.29 L1143.01 1544.91 L1150.65 1544.91 L1150.65 1548.85 L1130.74 1548.85 L1130.74 1544.91 Z" fill="#000000" fill-rule="nonzero" fill-opacity="1" /><path clip-path="url(#clip800)" d="M1170.09 1517.37 Q1166.48 1517.37 1164.65 1520.93 Q1162.85 1524.47 1162.85 1531.6 Q1162.85 1538.71 1164.65 1542.27 Q1166.48 1545.82 1170.09 1545.82 Q1173.73 1545.82 1175.53 1542.27 Q1177.36 1538.71 1177.36 1531.6 Q1177.36 1524.47 1175.53 1520.93 Q1173.73 1517.37 1170.09 1517.37 M1170.09 1513.66 Q1175.9 1513.66 1178.96 1518.27 Q1182.04 1522.85 1182.04 1531.6 Q1182.04 1540.33 1178.96 1544.94 Q1175.9 1549.52 1170.09 1549.52 Q1164.28 1549.52 1161.2 1544.94 Q1158.15 1540.33 1158.15 1531.6 Q1158.15 1522.85 1161.2 1518.27 Q1164.28 1513.66 1170.09 1513.66 Z" fill="#000000" fill-rule="nonzero" fill-opacity="1" /><path clip-path="url(#clip800)" d="M1200.25 1517.37 Q1196.64 1517.37 1194.81 1520.93 Q1193.01 1524.47 1193.01 1531.6 Q1193.01 1538.71 1194.81 1542.27 Q1196.64 1545.82 1200.25 1545.82 Q1203.89 1545.82 1205.69 1542.27 Q1207.52 1538.71 1207.52 1531.6 Q1207.52 1524.47 1205.69 1520.93 Q1203.89 1517.37 1200.25 1517.37 M1200.25 1513.66 Q1206.06 1513.66 1209.12 1518.27 Q1212.2 1522.85 1212.2 1531.6 Q1212.2 1540.33 1209.12 1544.94 Q1206.06 1549.52 1200.25 1549.52 Q1194.44 1549.52 1191.36 1544.94 Q1188.31 1540.33 1188.31 1531.6 Q1188.31 1522.85 1191.36 1518.27 Q1194.44 1513.66 1200.25 1513.66 Z" fill="#000000" fill-rule="nonzero" fill-opacity="1" /><path clip-path="url(#clip800)" d="M1556.07 1544.91 L1563.71 1544.91 L1563.71 1518.55 L1555.4 1520.21 L1555.4 1515.95 L1563.67 1514.29 L1568.34 1514.29 L1568.34 1544.91 L1575.98 1544.91 L1575.98 1548.85 L1556.07 1548.85 L1556.07 1544.91 Z" fill="#000000" fill-rule="nonzero" fill-opacity="1" /><path clip-path="url(#clip800)" d="M1585.47 1514.29 L1603.83 1514.29 L1603.83 1518.22 L1589.75 1518.22 L1589.75 1526.7 Q1590.77 1526.35 1591.79 1526.19 Q1592.81 1526 1593.83 1526 Q1599.62 1526 1603 1529.17 Q1606.37 1532.34 1606.37 1537.76 Q1606.37 1543.34 1602.9 1546.44 Q1599.43 1549.52 1593.11 1549.52 Q1590.94 1549.52 1588.67 1549.15 Q1586.42 1548.78 1584.01 1548.04 L1584.01 1543.34 Q1586.1 1544.47 1588.32 1545.03 Q1590.54 1545.58 1593.02 1545.58 Q1597.02 1545.58 1599.36 1543.48 Q1601.7 1541.37 1601.7 1537.76 Q1601.7 1534.15 1599.36 1532.04 Q1597.02 1529.94 1593.02 1529.94 Q1591.14 1529.94 1589.27 1530.35 Q1587.42 1530.77 1585.47 1531.65 L1585.47 1514.29 Z" fill="#000000" fill-rule="nonzero" fill-opacity="1" /><path clip-path="url(#clip800)" d="M1625.59 1517.37 Q1621.98 1517.37 1620.15 1520.93 Q1618.34 1524.47 1618.34 1531.6 Q1618.34 1538.71 1620.15 1542.27 Q1621.98 1545.82 1625.59 1545.82 Q1629.22 1545.82 1631.03 1542.27 Q1632.86 1538.71 1632.86 1531.6 Q1632.86 1524.47 1631.03 1520.93 Q1629.22 1517.37 1625.59 1517.37 M1625.59 1513.66 Q1631.4 1513.66 1634.45 1518.27 Q1637.53 1522.85 1637.53 1531.6 Q1637.53 1540.33 1634.45 1544.94 Q1631.4 1549.52 1625.59 1549.52 Q1619.78 1549.52 1616.7 1544.94 Q1613.64 1540.33 1613.64 1531.6 Q1613.64 1522.85 1616.7 1518.27 Q1619.78 1513.66 1625.59 1513.66 Z" fill="#000000" fill-rule="nonzero" fill-opacity="1" /><path clip-path="url(#clip800)" d="M1985.5 1544.91 L2001.81 1544.91 L2001.81 1548.85 L1979.87 1548.85 L1979.87 1544.91 Q1982.53 1542.16 1987.12 1537.53 Q1991.72 1532.88 1992.9 1531.53 Q1995.15 1529.01 1996.03 1527.27 Q1996.93 1525.51 1996.93 1523.82 Q1996.93 1521.07 1994.99 1519.33 Q1993.06 1517.6 1989.96 1517.6 Q1987.76 1517.6 1985.31 1518.36 Q1982.88 1519.13 1980.1 1520.68 L1980.1 1515.95 Q1982.93 1514.82 1985.38 1514.24 Q1987.83 1513.66 1989.87 1513.66 Q1995.24 1513.66 1998.43 1516.35 Q2001.63 1519.03 2001.63 1523.52 Q2001.63 1525.65 2000.82 1527.57 Q2000.03 1529.47 1997.93 1532.07 Q1997.35 1532.74 1994.24 1535.95 Q1991.14 1539.15 1985.5 1544.91 Z" fill="#000000" fill-rule="nonzero" fill-opacity="1" /><path clip-path="url(#clip800)" d="M2021.63 1517.37 Q2018.02 1517.37 2016.19 1520.93 Q2014.38 1524.47 2014.38 1531.6 Q2014.38 1538.71 2016.19 1542.27 Q2018.02 1545.82 2021.63 1545.82 Q2025.26 1545.82 2027.07 1542.27 Q2028.9 1538.71 2028.9 1531.6 Q2028.9 1524.47 2027.07 1520.93 Q2025.26 1517.37 2021.63 1517.37 M2021.63 1513.66 Q2027.44 1513.66 2030.49 1518.27 Q2033.57 1522.85 2033.57 1531.6 Q2033.57 1540.33 2030.49 1544.94 Q2027.44 1549.52 2021.63 1549.52 Q2015.82 1549.52 2012.74 1544.94 Q2009.68 1540.33 2009.68 1531.6 Q2009.68 1522.85 2012.74 1518.27 Q2015.82 1513.66 2021.63 1513.66 Z" fill="#000000" fill-rule="nonzero" fill-opacity="1" /><path clip-path="url(#clip800)" d="M2051.79 1517.37 Q2048.18 1517.37 2046.35 1520.93 Q2044.55 1524.47 2044.55 1531.6 Q2044.55 1538.71 2046.35 1542.27 Q2048.18 1545.82 2051.79 1545.82 Q2055.43 1545.82 2057.23 1542.27 Q2059.06 1538.71 2059.06 1531.6 Q2059.06 1524.47 2057.23 1520.93 Q2055.43 1517.37 2051.79 1517.37 M2051.79 1513.66 Q2057.6 1513.66 2060.66 1518.27 Q2063.74 1522.85 2063.74 1531.6 Q2063.74 1540.33 2060.66 1544.94 Q2057.6 1549.52 2051.79 1549.52 Q2045.98 1549.52 2042.9 1544.94 Q2039.85 1540.33 2039.85 1531.6 Q2039.85 1522.85 2042.9 1518.27 Q2045.98 1513.66 2051.79 1513.66 Z" fill="#000000" fill-rule="nonzero" fill-opacity="1" /><polyline clip-path="url(#clip800)" style="stroke:#000000; stroke-linecap:round; stroke-linejoin:round; stroke-width:4; stroke-opacity:1; fill:none" points="202.177,1486.45 202.177,123.472 "/>
<polyline clip-path="url(#clip800)" style="stroke:#000000; stroke-linecap:round; stroke-linejoin:round; stroke-width:4; stroke-opacity:1; fill:none" points="202.177,1486.45 221.074,1486.45 "/>
<polyline clip-path="url(#clip800)" style="stroke:#000000; stroke-linecap:round; stroke-linejoin:round; stroke-width:4; stroke-opacity:1; fill:none" points="202.177,1259.44 221.074,1259.44 "/>
<polyline clip-path="url(#clip800)" style="stroke:#000000; stroke-linecap:round; stroke-linejoin:round; stroke-width:4; stroke-opacity:1; fill:none" points="202.177,1032.43 221.074,1032.43 "/>
<polyline clip-path="url(#clip800)" style="stroke:#000000; stroke-linecap:round; stroke-linejoin:round; stroke-width:4; stroke-opacity:1; fill:none" points="202.177,805.414 221.074,805.414 "/>
<polyline clip-path="url(#clip800)" style="stroke:#000000; stroke-linecap:round; stroke-linejoin:round; stroke-width:4; stroke-opacity:1; fill:none" points="202.177,578.403 221.074,578.403 "/>
<polyline clip-path="url(#clip800)" style="stroke:#000000; stroke-linecap:round; stroke-linejoin:round; stroke-width:4; stroke-opacity:1; fill:none" points="202.177,351.391 221.074,351.391 "/>
<polyline clip-path="url(#clip800)" style="stroke:#000000; stroke-linecap:round; stroke-linejoin:round; stroke-width:4; stroke-opacity:1; fill:none" points="202.177,124.38 221.074,124.38 "/>
<path clip-path="url(#clip800)" d="M154.232 1472.25 Q150.621 1472.25 148.793 1475.81 Q146.987 1479.35 146.987 1486.48 Q146.987 1493.59 148.793 1497.15 Q150.621 1500.7 154.232 1500.7 Q157.867 1500.7 159.672 1497.15 Q161.501 1493.59 161.501 1486.48 Q161.501 1479.35 159.672 1475.81 Q157.867 1472.25 154.232 1472.25 M154.232 1468.54 Q160.042 1468.54 163.098 1473.15 Q166.177 1477.73 166.177 1486.48 Q166.177 1495.21 163.098 1499.82 Q160.042 1504.4 154.232 1504.4 Q148.422 1504.4 145.343 1499.82 Q142.288 1495.21 142.288 1486.48 Q142.288 1477.73 145.343 1473.15 Q148.422 1468.54 154.232 1468.54 Z" fill="#000000" fill-rule="nonzero" fill-opacity="1" /><path clip-path="url(#clip800)" d="M54.5569 1272.78 L62.1958 1272.78 L62.1958 1246.42 L53.8856 1248.08 L53.8856 1243.82 L62.1495 1242.16 L66.8254 1242.16 L66.8254 1272.78 L74.4642 1272.78 L74.4642 1276.72 L54.5569 1276.72 L54.5569 1272.78 Z" fill="#000000" fill-rule="nonzero" fill-opacity="1" /><path clip-path="url(#clip800)" d="M93.9086 1245.24 Q90.2975 1245.24 88.4688 1248.8 Q86.6632 1252.34 86.6632 1259.47 Q86.6632 1266.58 88.4688 1270.14 Q90.2975 1273.68 93.9086 1273.68 Q97.5428 1273.68 99.3483 1270.14 Q101.177 1266.58 101.177 1259.47 Q101.177 1252.34 99.3483 1248.8 Q97.5428 1245.24 93.9086 1245.24 M93.9086 1241.53 Q99.7187 1241.53 102.774 1246.14 Q105.853 1250.72 105.853 1259.47 Q105.853 1268.2 102.774 1272.8 Q99.7187 1277.39 93.9086 1277.39 Q88.0984 1277.39 85.0197 1272.8 Q81.9642 1268.2 81.9642 1259.47 Q81.9642 1250.72 85.0197 1246.14 Q88.0984 1241.53 93.9086 1241.53 Z" fill="#000000" fill-rule="nonzero" fill-opacity="1" /><path clip-path="url(#clip800)" d="M124.07 1245.24 Q120.459 1245.24 118.631 1248.8 Q116.825 1252.34 116.825 1259.47 Q116.825 1266.58 118.631 1270.14 Q120.459 1273.68 124.07 1273.68 Q127.705 1273.68 129.51 1270.14 Q131.339 1266.58 131.339 1259.47 Q131.339 1252.34 129.51 1248.8 Q127.705 1245.24 124.07 1245.24 M124.07 1241.53 Q129.881 1241.53 132.936 1246.14 Q136.015 1250.72 136.015 1259.47 Q136.015 1268.2 132.936 1272.8 Q129.881 1277.39 124.07 1277.39 Q118.26 1277.39 115.182 1272.8 Q112.126 1268.2 112.126 1259.47 Q112.126 1250.72 115.182 1246.14 Q118.26 1241.53 124.07 1241.53 Z" fill="#000000" fill-rule="nonzero" fill-opacity="1" /><path clip-path="url(#clip800)" d="M154.232 1245.24 Q150.621 1245.24 148.793 1248.8 Q146.987 1252.34 146.987 1259.47 Q146.987 1266.58 148.793 1270.14 Q150.621 1273.68 154.232 1273.68 Q157.867 1273.68 159.672 1270.14 Q161.501 1266.58 161.501 1259.47 Q161.501 1252.34 159.672 1248.8 Q157.867 1245.24 154.232 1245.24 M154.232 1241.53 Q160.042 1241.53 163.098 1246.14 Q166.177 1250.72 166.177 1259.47 Q166.177 1268.2 163.098 1272.8 Q160.042 1277.39 154.232 1277.39 Q148.422 1277.39 145.343 1272.8 Q142.288 1268.2 142.288 1259.47 Q142.288 1250.72 145.343 1246.14 Q148.422 1241.53 154.232 1241.53 Z" fill="#000000" fill-rule="nonzero" fill-opacity="1" /><path clip-path="url(#clip800)" d="M57.7745 1045.77 L74.0939 1045.77 L74.0939 1049.71 L52.1495 1049.71 L52.1495 1045.77 Q54.8115 1043.02 59.3949 1038.39 Q64.0013 1033.73 65.1819 1032.39 Q67.4272 1029.87 68.3068 1028.13 Q69.2096 1026.37 69.2096 1024.68 Q69.2096 1021.93 67.2652 1020.19 Q65.3439 1018.46 62.2421 1018.46 Q60.043 1018.46 57.5893 1019.22 Q55.1588 1019.98 52.381 1021.53 L52.381 1016.81 Q55.2051 1015.68 57.6588 1015.1 Q60.1124 1014.52 62.1495 1014.52 Q67.5198 1014.52 70.7142 1017.21 Q73.9087 1019.89 73.9087 1024.38 Q73.9087 1026.51 73.0985 1028.43 Q72.3115 1030.33 70.205 1032.92 Q69.6263 1033.59 66.5245 1036.81 Q63.4226 1040.01 57.7745 1045.77 Z" fill="#000000" fill-rule="nonzero" fill-opacity="1" /><path clip-path="url(#clip800)" d="M93.9086 1018.22 Q90.2975 1018.22 88.4688 1021.79 Q86.6632 1025.33 86.6632 1032.46 Q86.6632 1039.57 88.4688 1043.13 Q90.2975 1046.67 93.9086 1046.67 Q97.5428 1046.67 99.3483 1043.13 Q101.177 1039.57 101.177 1032.46 Q101.177 1025.33 99.3483 1021.79 Q97.5428 1018.22 93.9086 1018.22 M93.9086 1014.52 Q99.7187 1014.52 102.774 1019.13 Q105.853 1023.71 105.853 1032.46 Q105.853 1041.19 102.774 1045.79 Q99.7187 1050.38 93.9086 1050.38 Q88.0984 1050.38 85.0197 1045.79 Q81.9642 1041.19 81.9642 1032.46 Q81.9642 1023.71 85.0197 1019.13 Q88.0984 1014.52 93.9086 1014.52 Z" fill="#000000" fill-rule="nonzero" fill-opacity="1" /><path clip-path="url(#clip800)" d="M124.07 1018.22 Q120.459 1018.22 118.631 1021.79 Q116.825 1025.33 116.825 1032.46 Q116.825 1039.57 118.631 1043.13 Q120.459 1046.67 124.07 1046.67 Q127.705 1046.67 129.51 1043.13 Q131.339 1039.57 131.339 1032.46 Q131.339 1025.33 129.51 1021.79 Q127.705 1018.22 124.07 1018.22 M124.07 1014.52 Q129.881 1014.52 132.936 1019.13 Q136.015 1023.71 136.015 1032.46 Q136.015 1041.19 132.936 1045.79 Q129.881 1050.38 124.07 1050.38 Q118.26 1050.38 115.182 1045.79 Q112.126 1041.19 112.126 1032.46 Q112.126 1023.71 115.182 1019.13 Q118.26 1014.52 124.07 1014.52 Z" fill="#000000" fill-rule="nonzero" fill-opacity="1" /><path clip-path="url(#clip800)" d="M154.232 1018.22 Q150.621 1018.22 148.793 1021.79 Q146.987 1025.33 146.987 1032.46 Q146.987 1039.57 148.793 1043.13 Q150.621 1046.67 154.232 1046.67 Q157.867 1046.67 159.672 1043.13 Q161.501 1039.57 161.501 1032.46 Q161.501 1025.33 159.672 1021.79 Q157.867 1018.22 154.232 1018.22 M154.232 1014.52 Q160.042 1014.52 163.098 1019.13 Q166.177 1023.71 166.177 1032.46 Q166.177 1041.19 163.098 1045.79 Q160.042 1050.38 154.232 1050.38 Q148.422 1050.38 145.343 1045.79 Q142.288 1041.19 142.288 1032.46 Q142.288 1023.71 145.343 1019.13 Q148.422 1014.52 154.232 1014.52 Z" fill="#000000" fill-rule="nonzero" fill-opacity="1" /><path clip-path="url(#clip800)" d="M67.9133 804.06 Q71.2698 804.777 73.1448 807.046 Q75.0429 809.314 75.0429 812.648 Q75.0429 817.763 71.5244 820.564 Q68.0059 823.365 61.5245 823.365 Q59.3486 823.365 57.0338 822.926 Q54.7421 822.509 52.2884 821.652 L52.2884 817.138 Q54.2328 818.273 56.5477 818.851 Q58.8625 819.43 61.3856 819.43 Q65.7837 819.43 68.0754 817.694 Q70.3902 815.958 70.3902 812.648 Q70.3902 809.592 68.2374 807.879 Q66.1078 806.143 62.2884 806.143 L58.2606 806.143 L58.2606 802.301 L62.4735 802.301 Q65.9226 802.301 67.7513 800.935 Q69.58 799.546 69.58 796.953 Q69.58 794.291 67.6819 792.879 Q65.8069 791.444 62.2884 791.444 Q60.3671 791.444 58.168 791.861 Q55.969 792.278 53.3301 793.157 L53.3301 788.99 Q55.9921 788.25 58.3069 787.879 Q60.6449 787.509 62.705 787.509 Q68.0291 787.509 71.1309 789.94 Q74.2327 792.347 74.2327 796.467 Q74.2327 799.338 72.5892 801.328 Q70.9457 803.296 67.9133 804.06 Z" fill="#000000" fill-rule="nonzero" fill-opacity="1" /><path clip-path="url(#clip800)" d="M93.9086 791.213 Q90.2975 791.213 88.4688 794.778 Q86.6632 798.319 86.6632 805.449 Q86.6632 812.555 88.4688 816.12 Q90.2975 819.662 93.9086 819.662 Q97.5428 819.662 99.3483 816.12 Q101.177 812.555 101.177 805.449 Q101.177 798.319 99.3483 794.778 Q97.5428 791.213 93.9086 791.213 M93.9086 787.509 Q99.7187 787.509 102.774 792.115 Q105.853 796.699 105.853 805.449 Q105.853 814.176 102.774 818.782 Q99.7187 823.365 93.9086 823.365 Q88.0984 823.365 85.0197 818.782 Q81.9642 814.176 81.9642 805.449 Q81.9642 796.699 85.0197 792.115 Q88.0984 787.509 93.9086 787.509 Z" fill="#000000" fill-rule="nonzero" fill-opacity="1" /><path clip-path="url(#clip800)" d="M124.07 791.213 Q120.459 791.213 118.631 794.778 Q116.825 798.319 116.825 805.449 Q116.825 812.555 118.631 816.12 Q120.459 819.662 124.07 819.662 Q127.705 819.662 129.51 816.12 Q131.339 812.555 131.339 805.449 Q131.339 798.319 129.51 794.778 Q127.705 791.213 124.07 791.213 M124.07 787.509 Q129.881 787.509 132.936 792.115 Q136.015 796.699 136.015 805.449 Q136.015 814.176 132.936 818.782 Q129.881 823.365 124.07 823.365 Q118.26 823.365 115.182 818.782 Q112.126 814.176 112.126 805.449 Q112.126 796.699 115.182 792.115 Q118.26 787.509 124.07 787.509 Z" fill="#000000" fill-rule="nonzero" fill-opacity="1" /><path clip-path="url(#clip800)" d="M154.232 791.213 Q150.621 791.213 148.793 794.778 Q146.987 798.319 146.987 805.449 Q146.987 812.555 148.793 816.12 Q150.621 819.662 154.232 819.662 Q157.867 819.662 159.672 816.12 Q161.501 812.555 161.501 805.449 Q161.501 798.319 159.672 794.778 Q157.867 791.213 154.232 791.213 M154.232 787.509 Q160.042 787.509 163.098 792.115 Q166.177 796.699 166.177 805.449 Q166.177 814.176 163.098 818.782 Q160.042 823.365 154.232 823.365 Q148.422 823.365 145.343 818.782 Q142.288 814.176 142.288 805.449 Q142.288 796.699 145.343 792.115 Q148.422 787.509 154.232 787.509 Z" fill="#000000" fill-rule="nonzero" fill-opacity="1" /><path clip-path="url(#clip800)" d="M66.5939 565.197 L54.7884 583.646 L66.5939 583.646 L66.5939 565.197 M65.367 561.123 L71.2466 561.123 L71.2466 583.646 L76.1772 583.646 L76.1772 587.535 L71.2466 587.535 L71.2466 595.683 L66.5939 595.683 L66.5939 587.535 L50.9921 587.535 L50.9921 583.021 L65.367 561.123 Z" fill="#000000" fill-rule="nonzero" fill-opacity="1" /><path clip-path="url(#clip800)" d="M93.9086 564.201 Q90.2975 564.201 88.4688 567.766 Q86.6632 571.308 86.6632 578.437 Q86.6632 585.544 88.4688 589.109 Q90.2975 592.65 93.9086 592.65 Q97.5428 592.65 99.3483 589.109 Q101.177 585.544 101.177 578.437 Q101.177 571.308 99.3483 567.766 Q97.5428 564.201 93.9086 564.201 M93.9086 560.498 Q99.7187 560.498 102.774 565.104 Q105.853 569.688 105.853 578.437 Q105.853 587.164 102.774 591.771 Q99.7187 596.354 93.9086 596.354 Q88.0984 596.354 85.0197 591.771 Q81.9642 587.164 81.9642 578.437 Q81.9642 569.688 85.0197 565.104 Q88.0984 560.498 93.9086 560.498 Z" fill="#000000" fill-rule="nonzero" fill-opacity="1" /><path clip-path="url(#clip800)" d="M124.07 564.201 Q120.459 564.201 118.631 567.766 Q116.825 571.308 116.825 578.437 Q116.825 585.544 118.631 589.109 Q120.459 592.65 124.07 592.65 Q127.705 592.65 129.51 589.109 Q131.339 585.544 131.339 578.437 Q131.339 571.308 129.51 567.766 Q127.705 564.201 124.07 564.201 M124.07 560.498 Q129.881 560.498 132.936 565.104 Q136.015 569.688 136.015 578.437 Q136.015 587.164 132.936 591.771 Q129.881 596.354 124.07 596.354 Q118.26 596.354 115.182 591.771 Q112.126 587.164 112.126 578.437 Q112.126 569.688 115.182 565.104 Q118.26 560.498 124.07 560.498 Z" fill="#000000" fill-rule="nonzero" fill-opacity="1" /><path clip-path="url(#clip800)" d="M154.232 564.201 Q150.621 564.201 148.793 567.766 Q146.987 571.308 146.987 578.437 Q146.987 585.544 148.793 589.109 Q150.621 592.65 154.232 592.65 Q157.867 592.65 159.672 589.109 Q161.501 585.544 161.501 578.437 Q161.501 571.308 159.672 567.766 Q157.867 564.201 154.232 564.201 M154.232 560.498 Q160.042 560.498 163.098 565.104 Q166.177 569.688 166.177 578.437 Q166.177 587.164 163.098 591.771 Q160.042 596.354 154.232 596.354 Q148.422 596.354 145.343 591.771 Q142.288 587.164 142.288 578.437 Q142.288 569.688 145.343 565.104 Q148.422 560.498 154.232 560.498 Z" fill="#000000" fill-rule="nonzero" fill-opacity="1" /><path clip-path="url(#clip800)" d="M53.793 334.111 L72.1494 334.111 L72.1494 338.047 L58.0754 338.047 L58.0754 346.519 Q59.0939 346.172 60.1124 346.01 Q61.131 345.824 62.1495 345.824 Q67.9365 345.824 71.3161 348.996 Q74.6957 352.167 74.6957 357.584 Q74.6957 363.162 71.2235 366.264 Q67.7513 369.343 61.4319 369.343 Q59.256 369.343 56.9875 368.972 Q54.7421 368.602 52.3347 367.861 L52.3347 363.162 Q54.418 364.296 56.6402 364.852 Q58.8625 365.408 61.3393 365.408 Q65.3439 365.408 67.6819 363.301 Q70.0198 361.195 70.0198 357.584 Q70.0198 353.972 67.6819 351.866 Q65.3439 349.76 61.3393 349.76 Q59.4643 349.76 57.5893 350.176 Q55.7375 350.593 53.793 351.472 L53.793 334.111 Z" fill="#000000" fill-rule="nonzero" fill-opacity="1" /><path clip-path="url(#clip800)" d="M93.9086 337.19 Q90.2975 337.19 88.4688 340.755 Q86.6632 344.297 86.6632 351.426 Q86.6632 358.533 88.4688 362.097 Q90.2975 365.639 93.9086 365.639 Q97.5428 365.639 99.3483 362.097 Q101.177 358.533 101.177 351.426 Q101.177 344.297 99.3483 340.755 Q97.5428 337.19 93.9086 337.19 M93.9086 333.486 Q99.7187 333.486 102.774 338.093 Q105.853 342.676 105.853 351.426 Q105.853 360.153 102.774 364.759 Q99.7187 369.343 93.9086 369.343 Q88.0984 369.343 85.0197 364.759 Q81.9642 360.153 81.9642 351.426 Q81.9642 342.676 85.0197 338.093 Q88.0984 333.486 93.9086 333.486 Z" fill="#000000" fill-rule="nonzero" fill-opacity="1" /><path clip-path="url(#clip800)" d="M124.07 337.19 Q120.459 337.19 118.631 340.755 Q116.825 344.297 116.825 351.426 Q116.825 358.533 118.631 362.097 Q120.459 365.639 124.07 365.639 Q127.705 365.639 129.51 362.097 Q131.339 358.533 131.339 351.426 Q131.339 344.297 129.51 340.755 Q127.705 337.19 124.07 337.19 M124.07 333.486 Q129.881 333.486 132.936 338.093 Q136.015 342.676 136.015 351.426 Q136.015 360.153 132.936 364.759 Q129.881 369.343 124.07 369.343 Q118.26 369.343 115.182 364.759 Q112.126 360.153 112.126 351.426 Q112.126 342.676 115.182 338.093 Q118.26 333.486 124.07 333.486 Z" fill="#000000" fill-rule="nonzero" fill-opacity="1" /><path clip-path="url(#clip800)" d="M154.232 337.19 Q150.621 337.19 148.793 340.755 Q146.987 344.297 146.987 351.426 Q146.987 358.533 148.793 362.097 Q150.621 365.639 154.232 365.639 Q157.867 365.639 159.672 362.097 Q161.501 358.533 161.501 351.426 Q161.501 344.297 159.672 340.755 Q157.867 337.19 154.232 337.19 M154.232 333.486 Q160.042 333.486 163.098 338.093 Q166.177 342.676 166.177 351.426 Q166.177 360.153 163.098 364.759 Q160.042 369.343 154.232 369.343 Q148.422 369.343 145.343 364.759 Q142.288 360.153 142.288 351.426 Q142.288 342.676 145.343 338.093 Q148.422 333.486 154.232 333.486 Z" fill="#000000" fill-rule="nonzero" fill-opacity="1" /><path clip-path="url(#clip800)" d="M64.3254 122.517 Q61.1773 122.517 59.3254 124.67 Q57.4967 126.822 57.4967 130.572 Q57.4967 134.299 59.3254 136.475 Q61.1773 138.628 64.3254 138.628 Q67.4735 138.628 69.3022 136.475 Q71.1541 134.299 71.1541 130.572 Q71.1541 126.822 69.3022 124.67 Q67.4735 122.517 64.3254 122.517 M73.6077 107.864 L73.6077 112.123 Q71.8485 111.29 70.0429 110.85 Q68.2606 110.41 66.5013 110.41 Q61.8717 110.41 59.418 113.535 Q56.9875 116.66 56.6402 122.98 Q58.006 120.966 60.0662 119.901 Q62.1263 118.813 64.6032 118.813 Q69.8115 118.813 72.8207 121.984 Q75.8531 125.132 75.8531 130.572 Q75.8531 135.896 72.705 139.114 Q69.5568 142.331 64.3254 142.331 Q58.33 142.331 55.1588 137.748 Q51.9875 133.142 51.9875 124.415 Q51.9875 116.22 55.8764 111.359 Q59.7652 106.475 66.3161 106.475 Q68.0754 106.475 69.8578 106.822 Q71.6633 107.17 73.6077 107.864 Z" fill="#000000" fill-rule="nonzero" fill-opacity="1" /><path clip-path="url(#clip800)" d="M93.9086 110.179 Q90.2975 110.179 88.4688 113.744 Q86.6632 117.285 86.6632 124.415 Q86.6632 131.521 88.4688 135.086 Q90.2975 138.628 93.9086 138.628 Q97.5428 138.628 99.3483 135.086 Q101.177 131.521 101.177 124.415 Q101.177 117.285 99.3483 113.744 Q97.5428 110.179 93.9086 110.179 M93.9086 106.475 Q99.7187 106.475 102.774 111.082 Q105.853 115.665 105.853 124.415 Q105.853 133.142 102.774 137.748 Q99.7187 142.331 93.9086 142.331 Q88.0984 142.331 85.0197 137.748 Q81.9642 133.142 81.9642 124.415 Q81.9642 115.665 85.0197 111.082 Q88.0984 106.475 93.9086 106.475 Z" fill="#000000" fill-rule="nonzero" fill-opacity="1" /><path clip-path="url(#clip800)" d="M124.07 110.179 Q120.459 110.179 118.631 113.744 Q116.825 117.285 116.825 124.415 Q116.825 131.521 118.631 135.086 Q120.459 138.628 124.07 138.628 Q127.705 138.628 129.51 135.086 Q131.339 131.521 131.339 124.415 Q131.339 117.285 129.51 113.744 Q127.705 110.179 124.07 110.179 M124.07 106.475 Q129.881 106.475 132.936 111.082 Q136.015 115.665 136.015 124.415 Q136.015 133.142 132.936 137.748 Q129.881 142.331 124.07 142.331 Q118.26 142.331 115.182 137.748 Q112.126 133.142 112.126 124.415 Q112.126 115.665 115.182 111.082 Q118.26 106.475 124.07 106.475 Z" fill="#000000" fill-rule="nonzero" fill-opacity="1" /><path clip-path="url(#clip800)" d="M154.232 110.179 Q150.621 110.179 148.793 113.744 Q146.987 117.285 146.987 124.415 Q146.987 131.521 148.793 135.086 Q150.621 138.628 154.232 138.628 Q157.867 138.628 159.672 135.086 Q161.501 131.521 161.501 124.415 Q161.501 117.285 159.672 113.744 Q157.867 110.179 154.232 110.179 M154.232 106.475 Q160.042 106.475 163.098 111.082 Q166.177 115.665 166.177 124.415 Q166.177 133.142 163.098 137.748 Q160.042 142.331 154.232 142.331 Q148.422 142.331 145.343 137.748 Q142.288 133.142 142.288 124.415 Q142.288 115.665 145.343 111.082 Q148.422 106.475 154.232 106.475 Z" fill="#000000" fill-rule="nonzero" fill-opacity="1" /><path clip-path="url(#clip800)" d="M913.898 12.096 L924.916 12.096 L951.733 62.6918 L951.733 12.096 L959.673 12.096 L959.673 72.576 L948.654 72.576 L921.837 21.9802 L921.837 72.576 L913.898 72.576 L913.898 12.096 Z" fill="#000000" fill-rule="nonzero" fill-opacity="1" /><path clip-path="url(#clip800)" d="M993.214 32.4315 Q987.219 32.4315 983.735 37.1306 Q980.251 41.7891 980.251 49.9314 Q980.251 58.0738 983.695 62.7728 Q987.179 67.4314 993.214 67.4314 Q999.169 67.4314 1002.65 62.7323 Q1006.14 58.0333 1006.14 49.9314 Q1006.14 41.8701 1002.65 37.1711 Q999.169 32.4315 993.214 32.4315 M993.214 26.1121 Q1002.94 26.1121 1008.49 32.4315 Q1014.04 38.7509 1014.04 49.9314 Q1014.04 61.0714 1008.49 67.4314 Q1002.94 73.7508 993.214 73.7508 Q983.452 73.7508 977.902 67.4314 Q972.393 61.0714 972.393 49.9314 Q972.393 38.7509 977.902 32.4315 Q983.452 26.1121 993.214 26.1121 Z" fill="#000000" fill-rule="nonzero" fill-opacity="1" /><path clip-path="url(#clip800)" d="M1064.11 45.1919 L1064.11 72.576 L1056.65 72.576 L1056.65 45.4349 Q1056.65 38.994 1054.14 35.7938 Q1051.63 32.5936 1046.61 32.5936 Q1040.57 32.5936 1037.09 36.4419 Q1033.6 40.2903 1033.6 46.9338 L1033.6 72.576 L1026.11 72.576 L1026.11 27.2059 L1033.6 27.2059 L1033.6 34.2544 Q1036.28 30.163 1039.88 28.1376 Q1043.53 26.1121 1048.27 26.1121 Q1056.08 26.1121 1060.09 30.9732 Q1064.11 35.7938 1064.11 45.1919 Z" fill="#000000" fill-rule="nonzero" fill-opacity="1" /><path clip-path="url(#clip800)" d="M1075.2 46.5287 L1097.04 46.5287 L1097.04 53.1722 L1075.2 53.1722 L1075.2 46.5287 Z" fill="#000000" fill-rule="nonzero" fill-opacity="1" /><path clip-path="url(#clip800)" d="M1108.91 27.2059 L1116.36 27.2059 L1116.36 72.576 L1108.91 72.576 L1108.91 27.2059 M1108.91 9.54393 L1116.36 9.54393 L1116.36 18.9825 L1108.91 18.9825 L1108.91 9.54393 Z" fill="#000000" fill-rule="nonzero" fill-opacity="1" /><path clip-path="url(#clip800)" d="M1160.88 28.5427 L1160.88 35.5912 Q1157.72 33.9709 1154.32 33.1607 Q1150.92 32.3505 1147.27 32.3505 Q1141.72 32.3505 1138.93 34.0519 Q1136.17 35.7533 1136.17 39.156 Q1136.17 41.7486 1138.16 43.2475 Q1140.14 44.7058 1146.14 46.0426 L1148.69 46.6097 Q1156.63 48.3111 1159.95 51.4303 Q1163.31 54.509 1163.31 60.0587 Q1163.31 66.3781 1158.29 70.0644 Q1153.31 73.7508 1144.56 73.7508 Q1140.91 73.7508 1136.94 73.0216 Q1133.01 72.3329 1128.64 70.9151 L1128.64 63.2184 Q1132.77 65.3654 1136.78 66.4591 Q1140.79 67.5124 1144.72 67.5124 Q1149.98 67.5124 1152.82 65.73 Q1155.66 63.9071 1155.66 60.6258 Q1155.66 57.5877 1153.59 55.9673 Q1151.56 54.3469 1144.64 52.8481 L1142.04 52.2405 Q1135.12 50.7821 1132.04 47.7845 Q1128.96 44.7463 1128.96 39.4801 Q1128.96 33.0797 1133.5 29.5959 Q1138.03 26.1121 1146.38 26.1121 Q1150.51 26.1121 1154.16 26.7198 Q1157.8 27.3274 1160.88 28.5427 Z" fill="#000000" fill-rule="nonzero" fill-opacity="1" /><path clip-path="url(#clip800)" d="M1192.76 32.4315 Q1186.77 32.4315 1183.28 37.1306 Q1179.8 41.7891 1179.8 49.9314 Q1179.8 58.0738 1183.24 62.7728 Q1186.73 67.4314 1192.76 67.4314 Q1198.72 67.4314 1202.2 62.7323 Q1205.68 58.0333 1205.68 49.9314 Q1205.68 41.8701 1202.2 37.1711 Q1198.72 32.4315 1192.76 32.4315 M1192.76 26.1121 Q1202.48 26.1121 1208.03 32.4315 Q1213.58 38.7509 1213.58 49.9314 Q1213.58 61.0714 1208.03 67.4314 Q1202.48 73.7508 1192.76 73.7508 Q1183 73.7508 1177.45 67.4314 Q1171.94 61.0714 1171.94 49.9314 Q1171.94 38.7509 1177.45 32.4315 Q1183 26.1121 1192.76 26.1121 Z" fill="#000000" fill-rule="nonzero" fill-opacity="1" /><path clip-path="url(#clip800)" d="M1233.31 14.324 L1233.31 27.2059 L1248.66 27.2059 L1248.66 32.9987 L1233.31 32.9987 L1233.31 57.6282 Q1233.31 63.1779 1234.81 64.7578 Q1236.35 66.3376 1241.01 66.3376 L1248.66 66.3376 L1248.66 72.576 L1241.01 72.576 Q1232.38 72.576 1229.1 69.3758 Q1225.82 66.1351 1225.82 57.6282 L1225.82 32.9987 L1220.35 32.9987 L1220.35 27.2059 L1225.82 27.2059 L1225.82 14.324 L1233.31 14.324 Z" fill="#000000" fill-rule="nonzero" fill-opacity="1" /><path clip-path="url(#clip800)" d="M1284.76 34.1734 Q1283.5 33.4443 1282 33.1202 Q1280.54 32.7556 1278.76 32.7556 Q1272.44 32.7556 1269.04 36.8875 Q1265.68 40.9789 1265.68 48.6757 L1265.68 72.576 L1258.18 72.576 L1258.18 27.2059 L1265.68 27.2059 L1265.68 34.2544 Q1268.03 30.1225 1271.8 28.1376 Q1275.56 26.1121 1280.95 26.1121 Q1281.72 26.1121 1282.65 26.2337 Q1283.58 26.3147 1284.72 26.5172 L1284.76 34.1734 Z" fill="#000000" fill-rule="nonzero" fill-opacity="1" /><path clip-path="url(#clip800)" d="M1308.33 32.4315 Q1302.34 32.4315 1298.86 37.1306 Q1295.37 41.7891 1295.37 49.9314 Q1295.37 58.0738 1298.81 62.7728 Q1302.3 67.4314 1308.33 67.4314 Q1314.29 67.4314 1317.77 62.7323 Q1321.26 58.0333 1321.26 49.9314 Q1321.26 41.8701 1317.77 37.1711 Q1314.29 32.4315 1308.33 32.4315 M1308.33 26.1121 Q1318.06 26.1121 1323.61 32.4315 Q1329.16 38.7509 1329.16 49.9314 Q1329.16 61.0714 1323.61 67.4314 Q1318.06 73.7508 1308.33 73.7508 Q1298.57 73.7508 1293.02 67.4314 Q1287.51 61.0714 1287.51 49.9314 Q1287.51 38.7509 1293.02 32.4315 Q1298.57 26.1121 1308.33 26.1121 Z" fill="#000000" fill-rule="nonzero" fill-opacity="1" /><path clip-path="url(#clip800)" d="M1348.72 65.7705 L1348.72 89.8329 L1341.23 89.8329 L1341.23 27.2059 L1348.72 27.2059 L1348.72 34.0924 Q1351.07 30.0415 1354.64 28.0971 Q1358.24 26.1121 1363.22 26.1121 Q1371.49 26.1121 1376.63 32.6746 Q1381.82 39.2371 1381.82 49.9314 Q1381.82 60.6258 1376.63 67.1883 Q1371.49 73.7508 1363.22 73.7508 Q1358.24 73.7508 1354.64 71.8063 Q1351.07 69.8214 1348.72 65.7705 M1374.08 49.9314 Q1374.08 41.7081 1370.68 37.0496 Q1367.32 32.3505 1361.4 32.3505 Q1355.49 32.3505 1352.08 37.0496 Q1348.72 41.7081 1348.72 49.9314 Q1348.72 58.1548 1352.08 62.8538 Q1355.49 67.5124 1361.4 67.5124 Q1367.32 67.5124 1370.68 62.8538 Q1374.08 58.1548 1374.08 49.9314 Z" fill="#000000" fill-rule="nonzero" fill-opacity="1" /><path clip-path="url(#clip800)" d="M1394.17 27.2059 L1401.63 27.2059 L1401.63 72.576 L1394.17 72.576 L1394.17 27.2059 M1394.17 9.54393 L1401.63 9.54393 L1401.63 18.9825 L1394.17 18.9825 L1394.17 9.54393 Z" fill="#000000" fill-rule="nonzero" fill-opacity="1" /><path clip-path="url(#clip800)" d="M1449.87 28.9478 L1449.87 35.9153 Q1446.71 34.1734 1443.51 33.3227 Q1440.35 32.4315 1437.11 32.4315 Q1429.86 32.4315 1425.85 37.0496 Q1421.84 41.6271 1421.84 49.9314 Q1421.84 58.2358 1425.85 62.8538 Q1429.86 67.4314 1437.11 67.4314 Q1440.35 67.4314 1443.51 66.5807 Q1446.71 65.6895 1449.87 63.9476 L1449.87 70.8341 Q1446.75 72.2924 1443.39 73.0216 Q1440.07 73.7508 1436.3 73.7508 Q1426.05 73.7508 1420.02 67.3098 Q1413.98 60.8689 1413.98 49.9314 Q1413.98 38.832 1420.06 32.472 Q1426.17 26.1121 1436.79 26.1121 Q1440.23 26.1121 1443.51 26.8413 Q1446.79 27.5299 1449.87 28.9478 Z" fill="#000000" fill-rule="nonzero" fill-opacity="1" /><path clip-path="url(#clip800)" d="M1500.55 45.1919 L1500.55 72.576 L1493.1 72.576 L1493.1 45.4349 Q1493.1 38.994 1490.58 35.7938 Q1488.07 32.5936 1483.05 32.5936 Q1477.01 32.5936 1473.53 36.4419 Q1470.05 40.2903 1470.05 46.9338 L1470.05 72.576 L1462.55 72.576 L1462.55 27.2059 L1470.05 27.2059 L1470.05 34.2544 Q1472.72 30.163 1476.33 28.1376 Q1479.97 26.1121 1484.71 26.1121 Q1492.53 26.1121 1496.54 30.9732 Q1500.55 35.7938 1500.55 45.1919 Z" fill="#000000" fill-rule="nonzero" fill-opacity="1" /><path clip-path="url(#clip800)" d="M1554.22 48.0275 L1554.22 51.6733 L1519.95 51.6733 Q1520.44 59.3701 1524.57 63.421 Q1528.74 67.4314 1536.16 67.4314 Q1540.45 67.4314 1544.46 66.3781 Q1548.51 65.3249 1552.48 63.2184 L1552.48 70.267 Q1548.47 71.9684 1544.26 72.8596 Q1540.05 73.7508 1535.71 73.7508 Q1524.86 73.7508 1518.5 67.4314 Q1512.18 61.1119 1512.18 50.3365 Q1512.18 39.1965 1518.17 32.6746 Q1524.21 26.1121 1534.42 26.1121 Q1543.57 26.1121 1548.88 32.0264 Q1554.22 37.9003 1554.22 48.0275 M1546.77 45.84 Q1546.69 39.7232 1543.33 36.0774 Q1540.01 32.4315 1534.5 32.4315 Q1528.26 32.4315 1524.49 35.9558 Q1520.76 39.4801 1520.2 45.8805 L1546.77 45.84 Z" fill="#000000" fill-rule="nonzero" fill-opacity="1" /><path clip-path="url(#clip800)" d="M1595.38 28.5427 L1595.38 35.5912 Q1592.22 33.9709 1588.82 33.1607 Q1585.42 32.3505 1581.77 32.3505 Q1576.22 32.3505 1573.43 34.0519 Q1570.67 35.7533 1570.67 39.156 Q1570.67 41.7486 1572.66 43.2475 Q1574.64 44.7058 1580.64 46.0426 L1583.19 46.6097 Q1591.13 48.3111 1594.45 51.4303 Q1597.81 54.509 1597.81 60.0587 Q1597.81 66.3781 1592.79 70.0644 Q1587.81 73.7508 1579.06 73.7508 Q1575.41 73.7508 1571.44 73.0216 Q1567.51 72.3329 1563.14 70.9151 L1563.14 63.2184 Q1567.27 65.3654 1571.28 66.4591 Q1575.29 67.5124 1579.22 67.5124 Q1584.48 67.5124 1587.32 65.73 Q1590.16 63.9071 1590.16 60.6258 Q1590.16 57.5877 1588.09 55.9673 Q1586.06 54.3469 1579.14 52.8481 L1576.54 52.2405 Q1569.62 50.7821 1566.54 47.7845 Q1563.46 44.7463 1563.46 39.4801 Q1563.46 33.0797 1568 29.5959 Q1572.53 26.1121 1580.88 26.1121 Q1585.01 26.1121 1588.66 26.7198 Q1592.3 27.3274 1595.38 28.5427 Z" fill="#000000" fill-rule="nonzero" fill-opacity="1" /><path clip-path="url(#clip800)" d="M1638.6 28.5427 L1638.6 35.5912 Q1635.44 33.9709 1632.04 33.1607 Q1628.64 32.3505 1624.99 32.3505 Q1619.44 32.3505 1616.65 34.0519 Q1613.89 35.7533 1613.89 39.156 Q1613.89 41.7486 1615.88 43.2475 Q1617.86 44.7058 1623.86 46.0426 L1626.41 46.6097 Q1634.35 48.3111 1637.67 51.4303 Q1641.03 54.509 1641.03 60.0587 Q1641.03 66.3781 1636.01 70.0644 Q1631.03 73.7508 1622.28 73.7508 Q1618.63 73.7508 1614.66 73.0216 Q1610.73 72.3329 1606.36 70.9151 L1606.36 63.2184 Q1610.49 65.3654 1614.5 66.4591 Q1618.51 67.5124 1622.44 67.5124 Q1627.71 67.5124 1630.54 65.73 Q1633.38 63.9071 1633.38 60.6258 Q1633.38 57.5877 1631.31 55.9673 Q1629.29 54.3469 1622.36 52.8481 L1619.77 52.2405 Q1612.84 50.7821 1609.76 47.7845 Q1606.68 44.7463 1606.68 39.4801 Q1606.68 33.0797 1611.22 29.5959 Q1615.76 26.1121 1624.1 26.1121 Q1628.23 26.1121 1631.88 26.7198 Q1635.53 27.3274 1638.6 28.5427 Z" fill="#000000" fill-rule="nonzero" fill-opacity="1" /><path clip-path="url(#clip802)" d="M320.462 123.472 L320.462 1486.45 L362.996 1486.45 L362.996 123.472 L320.462 123.472 L320.462 123.472  Z" fill="#009af9" fill-rule="evenodd" fill-opacity="1"/>
<polyline clip-path="url(#clip802)" style="stroke:#000000; stroke-linecap:round; stroke-linejoin:round; stroke-width:4; stroke-opacity:1; fill:none" points="320.462,123.472 320.462,1486.45 362.996,1486.45 362.996,123.472 320.462,123.472 "/>
<path clip-path="url(#clip802)" d="M362.996 378.179 L362.996 1486.45 L405.529 1486.45 L405.529 378.179 L362.996 378.179 L362.996 378.179  Z" fill="#009af9" fill-rule="evenodd" fill-opacity="1"/>
<polyline clip-path="url(#clip802)" style="stroke:#000000; stroke-linecap:round; stroke-linejoin:round; stroke-width:4; stroke-opacity:1; fill:none" points="362.996,378.179 362.996,1486.45 405.529,1486.45 405.529,378.179 362.996,378.179 "/>
<path clip-path="url(#clip802)" d="M405.529 664.667 L405.529 1486.45 L448.063 1486.45 L448.063 664.667 L405.529 664.667 L405.529 664.667  Z" fill="#009af9" fill-rule="evenodd" fill-opacity="1"/>
<polyline clip-path="url(#clip802)" style="stroke:#000000; stroke-linecap:round; stroke-linejoin:round; stroke-width:4; stroke-opacity:1; fill:none" points="405.529,664.667 405.529,1486.45 448.063,1486.45 448.063,664.667 405.529,664.667 "/>
<path clip-path="url(#clip802)" d="M448.063 747.299 L448.063 1486.45 L490.596 1486.45 L490.596 747.299 L448.063 747.299 L448.063 747.299  Z" fill="#009af9" fill-rule="evenodd" fill-opacity="1"/>
<polyline clip-path="url(#clip802)" style="stroke:#000000; stroke-linecap:round; stroke-linejoin:round; stroke-width:4; stroke-opacity:1; fill:none" points="448.063,747.299 448.063,1486.45 490.596,1486.45 490.596,747.299 448.063,747.299 "/>
<path clip-path="url(#clip802)" d="M490.596 782.032 L490.596 1486.45 L533.13 1486.45 L533.13 782.032 L490.596 782.032 L490.596 782.032  Z" fill="#009af9" fill-rule="evenodd" fill-opacity="1"/>
<polyline clip-path="url(#clip802)" style="stroke:#000000; stroke-linecap:round; stroke-linejoin:round; stroke-width:4; stroke-opacity:1; fill:none" points="490.596,782.032 490.596,1486.45 533.13,1486.45 533.13,782.032 490.596,782.032 "/>
<path clip-path="url(#clip802)" d="M533.13 786.118 L533.13 1486.45 L575.663 1486.45 L575.663 786.118 L533.13 786.118 L533.13 786.118  Z" fill="#009af9" fill-rule="evenodd" fill-opacity="1"/>
<polyline clip-path="url(#clip802)" style="stroke:#000000; stroke-linecap:round; stroke-linejoin:round; stroke-width:4; stroke-opacity:1; fill:none" points="533.13,786.118 533.13,1486.45 575.663,1486.45 575.663,786.118 533.13,786.118 "/>
<path clip-path="url(#clip802)" d="M575.663 825.845 L575.663 1486.45 L618.197 1486.45 L618.197 825.845 L575.663 825.845 L575.663 825.845  Z" fill="#009af9" fill-rule="evenodd" fill-opacity="1"/>
<polyline clip-path="url(#clip802)" style="stroke:#000000; stroke-linecap:round; stroke-linejoin:round; stroke-width:4; stroke-opacity:1; fill:none" points="575.663,825.845 575.663,1486.45 618.197,1486.45 618.197,825.845 575.663,825.845 "/>
<path clip-path="url(#clip802)" d="M618.197 859.897 L618.197 1486.45 L660.73 1486.45 L660.73 859.897 L618.197 859.897 L618.197 859.897  Z" fill="#009af9" fill-rule="evenodd" fill-opacity="1"/>
<polyline clip-path="url(#clip802)" style="stroke:#000000; stroke-linecap:round; stroke-linejoin:round; stroke-width:4; stroke-opacity:1; fill:none" points="618.197,859.897 618.197,1486.45 660.73,1486.45 660.73,859.897 618.197,859.897 "/>
<path clip-path="url(#clip802)" d="M660.73 900.305 L660.73 1486.45 L703.264 1486.45 L703.264 900.305 L660.73 900.305 L660.73 900.305  Z" fill="#009af9" fill-rule="evenodd" fill-opacity="1"/>
<polyline clip-path="url(#clip802)" style="stroke:#000000; stroke-linecap:round; stroke-linejoin:round; stroke-width:4; stroke-opacity:1; fill:none" points="660.73,900.305 660.73,1486.45 703.264,1486.45 703.264,900.305 660.73,900.305 "/>
<path clip-path="url(#clip802)" d="M703.264 906.661 L703.264 1486.45 L745.797 1486.45 L745.797 906.661 L703.264 906.661 L703.264 906.661  Z" fill="#009af9" fill-rule="evenodd" fill-opacity="1"/>
<polyline clip-path="url(#clip802)" style="stroke:#000000; stroke-linecap:round; stroke-linejoin:round; stroke-width:4; stroke-opacity:1; fill:none" points="703.264,906.661 703.264,1486.45 745.797,1486.45 745.797,906.661 703.264,906.661 "/>
<path clip-path="url(#clip802)" d="M745.797 950.928 L745.797 1486.45 L788.331 1486.45 L788.331 950.928 L745.797 950.928 L745.797 950.928  Z" fill="#009af9" fill-rule="evenodd" fill-opacity="1"/>
<polyline clip-path="url(#clip802)" style="stroke:#000000; stroke-linecap:round; stroke-linejoin:round; stroke-width:4; stroke-opacity:1; fill:none" points="745.797,950.928 745.797,1486.45 788.331,1486.45 788.331,950.928 745.797,950.928 "/>
<path clip-path="url(#clip802)" d="M788.331 962.506 L788.331 1486.45 L830.864 1486.45 L830.864 962.506 L788.331 962.506 L788.331 962.506  Z" fill="#009af9" fill-rule="evenodd" fill-opacity="1"/>
<polyline clip-path="url(#clip802)" style="stroke:#000000; stroke-linecap:round; stroke-linejoin:round; stroke-width:4; stroke-opacity:1; fill:none" points="788.331,962.506 788.331,1486.45 830.864,1486.45 830.864,962.506 788.331,962.506 "/>
<path clip-path="url(#clip802)" d="M830.864 969.77 L830.864 1486.45 L873.398 1486.45 L873.398 969.77 L830.864 969.77 L830.864 969.77  Z" fill="#009af9" fill-rule="evenodd" fill-opacity="1"/>
<polyline clip-path="url(#clip802)" style="stroke:#000000; stroke-linecap:round; stroke-linejoin:round; stroke-width:4; stroke-opacity:1; fill:none" points="830.864,969.77 830.864,1486.45 873.398,1486.45 873.398,969.77 830.864,969.77 "/>
<path clip-path="url(#clip802)" d="M873.398 981.802 L873.398 1486.45 L915.931 1486.45 L915.931 981.802 L873.398 981.802 L873.398 981.802  Z" fill="#009af9" fill-rule="evenodd" fill-opacity="1"/>
<polyline clip-path="url(#clip802)" style="stroke:#000000; stroke-linecap:round; stroke-linejoin:round; stroke-width:4; stroke-opacity:1; fill:none" points="873.398,981.802 873.398,1486.45 915.931,1486.45 915.931,981.802 873.398,981.802 "/>
<path clip-path="url(#clip802)" d="M915.931 1015.17 L915.931 1486.45 L958.465 1486.45 L958.465 1015.17 L915.931 1015.17 L915.931 1015.17  Z" fill="#009af9" fill-rule="evenodd" fill-opacity="1"/>
<polyline clip-path="url(#clip802)" style="stroke:#000000; stroke-linecap:round; stroke-linejoin:round; stroke-width:4; stroke-opacity:1; fill:none" points="915.931,1015.17 915.931,1486.45 958.465,1486.45 958.465,1015.17 915.931,1015.17 "/>
<path clip-path="url(#clip802)" d="M958.465 1033.79 L958.465 1486.45 L1001 1486.45 L1001 1033.79 L958.465 1033.79 L958.465 1033.79  Z" fill="#009af9" fill-rule="evenodd" fill-opacity="1"/>
<polyline clip-path="url(#clip802)" style="stroke:#000000; stroke-linecap:round; stroke-linejoin:round; stroke-width:4; stroke-opacity:1; fill:none" points="958.465,1033.79 958.465,1486.45 1001,1486.45 1001,1033.79 958.465,1033.79 "/>
<path clip-path="url(#clip802)" d="M1001 1043.78 L1001 1486.45 L1043.53 1486.45 L1043.53 1043.78 L1001 1043.78 L1001 1043.78  Z" fill="#009af9" fill-rule="evenodd" fill-opacity="1"/>
<polyline clip-path="url(#clip802)" style="stroke:#000000; stroke-linecap:round; stroke-linejoin:round; stroke-width:4; stroke-opacity:1; fill:none" points="1001,1043.78 1001,1486.45 1043.53,1486.45 1043.53,1043.78 1001,1043.78 "/>
<path clip-path="url(#clip802)" d="M1043.53 1046.27 L1043.53 1486.45 L1086.07 1486.45 L1086.07 1046.27 L1043.53 1046.27 L1043.53 1046.27  Z" fill="#009af9" fill-rule="evenodd" fill-opacity="1"/>
<polyline clip-path="url(#clip802)" style="stroke:#000000; stroke-linecap:round; stroke-linejoin:round; stroke-width:4; stroke-opacity:1; fill:none" points="1043.53,1046.27 1043.53,1486.45 1086.07,1486.45 1086.07,1046.27 1043.53,1046.27 "/>
<path clip-path="url(#clip802)" d="M1086.07 1042.19 L1086.07 1486.45 L1128.6 1486.45 L1128.6 1042.19 L1086.07 1042.19 L1086.07 1042.19  Z" fill="#009af9" fill-rule="evenodd" fill-opacity="1"/>
<polyline clip-path="url(#clip802)" style="stroke:#000000; stroke-linecap:round; stroke-linejoin:round; stroke-width:4; stroke-opacity:1; fill:none" points="1086.07,1042.19 1086.07,1486.45 1128.6,1486.45 1128.6,1042.19 1086.07,1042.19 "/>
<path clip-path="url(#clip802)" d="M1128.6 1071.24 L1128.6 1486.45 L1171.13 1486.45 L1171.13 1071.24 L1128.6 1071.24 L1128.6 1071.24  Z" fill="#009af9" fill-rule="evenodd" fill-opacity="1"/>
<polyline clip-path="url(#clip802)" style="stroke:#000000; stroke-linecap:round; stroke-linejoin:round; stroke-width:4; stroke-opacity:1; fill:none" points="1128.6,1071.24 1128.6,1486.45 1171.13,1486.45 1171.13,1071.24 1128.6,1071.24 "/>
<path clip-path="url(#clip802)" d="M1171.13 1103.71 L1171.13 1486.45 L1213.67 1486.45 L1213.67 1103.71 L1171.13 1103.71 L1171.13 1103.71  Z" fill="#009af9" fill-rule="evenodd" fill-opacity="1"/>
<polyline clip-path="url(#clip802)" style="stroke:#000000; stroke-linecap:round; stroke-linejoin:round; stroke-width:4; stroke-opacity:1; fill:none" points="1171.13,1103.71 1171.13,1486.45 1213.67,1486.45 1213.67,1103.71 1171.13,1103.71 "/>
<path clip-path="url(#clip802)" d="M1213.67 1110.52 L1213.67 1486.45 L1256.2 1486.45 L1256.2 1110.52 L1213.67 1110.52 L1213.67 1110.52  Z" fill="#009af9" fill-rule="evenodd" fill-opacity="1"/>
<polyline clip-path="url(#clip802)" style="stroke:#000000; stroke-linecap:round; stroke-linejoin:round; stroke-width:4; stroke-opacity:1; fill:none" points="1213.67,1110.52 1213.67,1486.45 1256.2,1486.45 1256.2,1110.52 1213.67,1110.52 "/>
<path clip-path="url(#clip802)" d="M1256.2 1121.41 L1256.2 1486.45 L1298.73 1486.45 L1298.73 1121.41 L1256.2 1121.41 L1256.2 1121.41  Z" fill="#009af9" fill-rule="evenodd" fill-opacity="1"/>
<polyline clip-path="url(#clip802)" style="stroke:#000000; stroke-linecap:round; stroke-linejoin:round; stroke-width:4; stroke-opacity:1; fill:none" points="1256.2,1121.41 1256.2,1486.45 1298.73,1486.45 1298.73,1121.41 1256.2,1121.41 "/>
<path clip-path="url(#clip802)" d="M1298.73 1121.19 L1298.73 1486.45 L1341.27 1486.45 L1341.27 1121.19 L1298.73 1121.19 L1298.73 1121.19  Z" fill="#009af9" fill-rule="evenodd" fill-opacity="1"/>
<polyline clip-path="url(#clip802)" style="stroke:#000000; stroke-linecap:round; stroke-linejoin:round; stroke-width:4; stroke-opacity:1; fill:none" points="1298.73,1121.19 1298.73,1486.45 1341.27,1486.45 1341.27,1121.19 1298.73,1121.19 "/>
<path clip-path="url(#clip802)" d="M1341.27 1130.04 L1341.27 1486.45 L1383.8 1486.45 L1383.8 1130.04 L1341.27 1130.04 L1341.27 1130.04  Z" fill="#009af9" fill-rule="evenodd" fill-opacity="1"/>
<polyline clip-path="url(#clip802)" style="stroke:#000000; stroke-linecap:round; stroke-linejoin:round; stroke-width:4; stroke-opacity:1; fill:none" points="1341.27,1130.04 1341.27,1486.45 1383.8,1486.45 1383.8,1130.04 1341.27,1130.04 "/>
<path clip-path="url(#clip802)" d="M1383.8 1151.15 L1383.8 1486.45 L1426.33 1486.45 L1426.33 1151.15 L1383.8 1151.15 L1383.8 1151.15  Z" fill="#009af9" fill-rule="evenodd" fill-opacity="1"/>
<polyline clip-path="url(#clip802)" style="stroke:#000000; stroke-linecap:round; stroke-linejoin:round; stroke-width:4; stroke-opacity:1; fill:none" points="1383.8,1151.15 1383.8,1486.45 1426.33,1486.45 1426.33,1151.15 1383.8,1151.15 "/>
<path clip-path="url(#clip802)" d="M1426.33 1181.8 L1426.33 1486.45 L1468.87 1486.45 L1468.87 1181.8 L1426.33 1181.8 L1426.33 1181.8  Z" fill="#009af9" fill-rule="evenodd" fill-opacity="1"/>
<polyline clip-path="url(#clip802)" style="stroke:#000000; stroke-linecap:round; stroke-linejoin:round; stroke-width:4; stroke-opacity:1; fill:none" points="1426.33,1181.8 1426.33,1486.45 1468.87,1486.45 1468.87,1181.8 1426.33,1181.8 "/>
<path clip-path="url(#clip802)" d="M1468.87 1194.06 L1468.87 1486.45 L1511.4 1486.45 L1511.4 1194.06 L1468.87 1194.06 L1468.87 1194.06  Z" fill="#009af9" fill-rule="evenodd" fill-opacity="1"/>
<polyline clip-path="url(#clip802)" style="stroke:#000000; stroke-linecap:round; stroke-linejoin:round; stroke-width:4; stroke-opacity:1; fill:none" points="1468.87,1194.06 1468.87,1486.45 1511.4,1486.45 1511.4,1194.06 1468.87,1194.06 "/>
<path clip-path="url(#clip802)" d="M1511.4 1222.89 L1511.4 1486.45 L1553.93 1486.45 L1553.93 1222.89 L1511.4 1222.89 L1511.4 1222.89  Z" fill="#009af9" fill-rule="evenodd" fill-opacity="1"/>
<polyline clip-path="url(#clip802)" style="stroke:#000000; stroke-linecap:round; stroke-linejoin:round; stroke-width:4; stroke-opacity:1; fill:none" points="1511.4,1222.89 1511.4,1486.45 1553.93,1486.45 1553.93,1222.89 1511.4,1222.89 "/>
<path clip-path="url(#clip802)" d="M1553.93 1234.01 L1553.93 1486.45 L1596.47 1486.45 L1596.47 1234.01 L1553.93 1234.01 L1553.93 1234.01  Z" fill="#009af9" fill-rule="evenodd" fill-opacity="1"/>
<polyline clip-path="url(#clip802)" style="stroke:#000000; stroke-linecap:round; stroke-linejoin:round; stroke-width:4; stroke-opacity:1; fill:none" points="1553.93,1234.01 1553.93,1486.45 1596.47,1486.45 1596.47,1234.01 1553.93,1234.01 "/>
<path clip-path="url(#clip802)" d="M1596.47 1257.17 L1596.47 1486.45 L1639 1486.45 L1639 1257.17 L1596.47 1257.17 L1596.47 1257.17  Z" fill="#009af9" fill-rule="evenodd" fill-opacity="1"/>
<polyline clip-path="url(#clip802)" style="stroke:#000000; stroke-linecap:round; stroke-linejoin:round; stroke-width:4; stroke-opacity:1; fill:none" points="1596.47,1257.17 1596.47,1486.45 1639,1486.45 1639,1257.17 1596.47,1257.17 "/>
<path clip-path="url(#clip802)" d="M1639 1293.72 L1639 1486.45 L1681.53 1486.45 L1681.53 1293.72 L1639 1293.72 L1639 1293.72  Z" fill="#009af9" fill-rule="evenodd" fill-opacity="1"/>
<polyline clip-path="url(#clip802)" style="stroke:#000000; stroke-linecap:round; stroke-linejoin:round; stroke-width:4; stroke-opacity:1; fill:none" points="1639,1293.72 1639,1486.45 1681.53,1486.45 1681.53,1293.72 1639,1293.72 "/>
<path clip-path="url(#clip802)" d="M1681.53 1325.72 L1681.53 1486.45 L1724.07 1486.45 L1724.07 1325.72 L1681.53 1325.72 L1681.53 1325.72  Z" fill="#009af9" fill-rule="evenodd" fill-opacity="1"/>
<polyline clip-path="url(#clip802)" style="stroke:#000000; stroke-linecap:round; stroke-linejoin:round; stroke-width:4; stroke-opacity:1; fill:none" points="1681.53,1325.72 1681.53,1486.45 1724.07,1486.45 1724.07,1325.72 1681.53,1325.72 "/>
<path clip-path="url(#clip802)" d="M1724.07 1356.37 L1724.07 1486.45 L1766.6 1486.45 L1766.6 1356.37 L1724.07 1356.37 L1724.07 1356.37  Z" fill="#009af9" fill-rule="evenodd" fill-opacity="1"/>
<polyline clip-path="url(#clip802)" style="stroke:#000000; stroke-linecap:round; stroke-linejoin:round; stroke-width:4; stroke-opacity:1; fill:none" points="1724.07,1356.37 1724.07,1486.45 1766.6,1486.45 1766.6,1356.37 1724.07,1356.37 "/>
<path clip-path="url(#clip802)" d="M1766.6 1367.49 L1766.6 1486.45 L1809.14 1486.45 L1809.14 1367.49 L1766.6 1367.49 L1766.6 1367.49  Z" fill="#009af9" fill-rule="evenodd" fill-opacity="1"/>
<polyline clip-path="url(#clip802)" style="stroke:#000000; stroke-linecap:round; stroke-linejoin:round; stroke-width:4; stroke-opacity:1; fill:none" points="1766.6,1367.49 1766.6,1486.45 1809.14,1486.45 1809.14,1367.49 1766.6,1367.49 "/>
<path clip-path="url(#clip802)" d="M1809.14 1370.45 L1809.14 1486.45 L1851.67 1486.45 L1851.67 1370.45 L1809.14 1370.45 L1809.14 1370.45  Z" fill="#009af9" fill-rule="evenodd" fill-opacity="1"/>
<polyline clip-path="url(#clip802)" style="stroke:#000000; stroke-linecap:round; stroke-linejoin:round; stroke-width:4; stroke-opacity:1; fill:none" points="1809.14,1370.45 1809.14,1486.45 1851.67,1486.45 1851.67,1370.45 1809.14,1370.45 "/>
<path clip-path="url(#clip802)" d="M1851.67 1382.93 L1851.67 1486.45 L1894.2 1486.45 L1894.2 1382.93 L1851.67 1382.93 L1851.67 1382.93  Z" fill="#009af9" fill-rule="evenodd" fill-opacity="1"/>
<polyline clip-path="url(#clip802)" style="stroke:#000000; stroke-linecap:round; stroke-linejoin:round; stroke-width:4; stroke-opacity:1; fill:none" points="1851.67,1382.93 1851.67,1486.45 1894.2,1486.45 1894.2,1382.93 1851.67,1382.93 "/>
<path clip-path="url(#clip802)" d="M1894.2 1385.2 L1894.2 1486.45 L1936.74 1486.45 L1936.74 1385.2 L1894.2 1385.2 L1894.2 1385.2  Z" fill="#009af9" fill-rule="evenodd" fill-opacity="1"/>
<polyline clip-path="url(#clip802)" style="stroke:#000000; stroke-linecap:round; stroke-linejoin:round; stroke-width:4; stroke-opacity:1; fill:none" points="1894.2,1385.2 1894.2,1486.45 1936.74,1486.45 1936.74,1385.2 1894.2,1385.2 "/>
<path clip-path="url(#clip802)" d="M1936.74 1389.97 L1936.74 1486.45 L1979.27 1486.45 L1979.27 1389.97 L1936.74 1389.97 L1936.74 1389.97  Z" fill="#009af9" fill-rule="evenodd" fill-opacity="1"/>
<polyline clip-path="url(#clip802)" style="stroke:#000000; stroke-linecap:round; stroke-linejoin:round; stroke-width:4; stroke-opacity:1; fill:none" points="1936.74,1389.97 1936.74,1486.45 1979.27,1486.45 1979.27,1389.97 1936.74,1389.97 "/>
<path clip-path="url(#clip802)" d="M1979.27 1398.82 L1979.27 1486.45 L2021.8 1486.45 L2021.8 1398.82 L1979.27 1398.82 L1979.27 1398.82  Z" fill="#009af9" fill-rule="evenodd" fill-opacity="1"/>
<polyline clip-path="url(#clip802)" style="stroke:#000000; stroke-linecap:round; stroke-linejoin:round; stroke-width:4; stroke-opacity:1; fill:none" points="1979.27,1398.82 1979.27,1486.45 2021.8,1486.45 2021.8,1398.82 1979.27,1398.82 "/>
<path clip-path="url(#clip802)" d="M2021.8 1421.3 L2021.8 1486.45 L2064.34 1486.45 L2064.34 1421.3 L2021.8 1421.3 L2021.8 1421.3  Z" fill="#009af9" fill-rule="evenodd" fill-opacity="1"/>
<polyline clip-path="url(#clip802)" style="stroke:#000000; stroke-linecap:round; stroke-linejoin:round; stroke-width:4; stroke-opacity:1; fill:none" points="2021.8,1421.3 2021.8,1486.45 2064.34,1486.45 2064.34,1421.3 2021.8,1421.3 "/>
<path clip-path="url(#clip802)" d="M2064.34 1434.92 L2064.34 1486.45 L2106.87 1486.45 L2106.87 1434.92 L2064.34 1434.92 L2064.34 1434.92  Z" fill="#009af9" fill-rule="evenodd" fill-opacity="1"/>
<polyline clip-path="url(#clip802)" style="stroke:#000000; stroke-linecap:round; stroke-linejoin:round; stroke-width:4; stroke-opacity:1; fill:none" points="2064.34,1434.92 2064.34,1486.45 2106.87,1486.45 2106.87,1434.92 2064.34,1434.92 "/>
<path clip-path="url(#clip802)" d="M2106.87 1463.97 L2106.87 1486.45 L2149.4 1486.45 L2149.4 1463.97 L2106.87 1463.97 L2106.87 1463.97  Z" fill="#009af9" fill-rule="evenodd" fill-opacity="1"/>
<polyline clip-path="url(#clip802)" style="stroke:#000000; stroke-linecap:round; stroke-linejoin:round; stroke-width:4; stroke-opacity:1; fill:none" points="2106.87,1463.97 2106.87,1486.45 2149.4,1486.45 2149.4,1463.97 2106.87,1463.97 "/>
<path clip-path="url(#clip802)" d="M2149.4 1478.5 L2149.4 1486.45 L2191.94 1486.45 L2191.94 1478.5 L2149.4 1478.5 L2149.4 1478.5  Z" fill="#009af9" fill-rule="evenodd" fill-opacity="1"/>
<polyline clip-path="url(#clip802)" style="stroke:#000000; stroke-linecap:round; stroke-linejoin:round; stroke-width:4; stroke-opacity:1; fill:none" points="2149.4,1478.5 2149.4,1486.45 2191.94,1486.45 2191.94,1478.5 2149.4,1478.5 "/>
<path clip-path="url(#clip802)" d="M2191.94 1485.09 L2191.94 1486.45 L2234.47 1486.45 L2234.47 1485.09 L2191.94 1485.09 L2191.94 1485.09  Z" fill="#009af9" fill-rule="evenodd" fill-opacity="1"/>
<polyline clip-path="url(#clip802)" style="stroke:#000000; stroke-linecap:round; stroke-linejoin:round; stroke-width:4; stroke-opacity:1; fill:none" points="2191.94,1485.09 2191.94,1486.45 2234.47,1486.45 2234.47,1485.09 2191.94,1485.09 "/>
<circle clip-path="url(#clip802)" style="fill:#009af9; stroke:none; fill-opacity:0" cx="341.729" cy="123.472" r="2"/>
<circle clip-path="url(#clip802)" style="fill:#009af9; stroke:none; fill-opacity:0" cx="384.263" cy="378.179" r="2"/>
<circle clip-path="url(#clip802)" style="fill:#009af9; stroke:none; fill-opacity:0" cx="426.796" cy="664.667" r="2"/>
<circle clip-path="url(#clip802)" style="fill:#009af9; stroke:none; fill-opacity:0" cx="469.33" cy="747.299" r="2"/>
<circle clip-path="url(#clip802)" style="fill:#009af9; stroke:none; fill-opacity:0" cx="511.863" cy="782.032" r="2"/>
<circle clip-path="url(#clip802)" style="fill:#009af9; stroke:none; fill-opacity:0" cx="554.397" cy="786.118" r="2"/>
<circle clip-path="url(#clip802)" style="fill:#009af9; stroke:none; fill-opacity:0" cx="596.93" cy="825.845" r="2"/>
<circle clip-path="url(#clip802)" style="fill:#009af9; stroke:none; fill-opacity:0" cx="639.464" cy="859.897" r="2"/>
<circle clip-path="url(#clip802)" style="fill:#009af9; stroke:none; fill-opacity:0" cx="681.997" cy="900.305" r="2"/>
<circle clip-path="url(#clip802)" style="fill:#009af9; stroke:none; fill-opacity:0" cx="724.531" cy="906.661" r="2"/>
<circle clip-path="url(#clip802)" style="fill:#009af9; stroke:none; fill-opacity:0" cx="767.064" cy="950.928" r="2"/>
<circle clip-path="url(#clip802)" style="fill:#009af9; stroke:none; fill-opacity:0" cx="809.598" cy="962.506" r="2"/>
<circle clip-path="url(#clip802)" style="fill:#009af9; stroke:none; fill-opacity:0" cx="852.131" cy="969.77" r="2"/>
<circle clip-path="url(#clip802)" style="fill:#009af9; stroke:none; fill-opacity:0" cx="894.665" cy="981.802" r="2"/>
<circle clip-path="url(#clip802)" style="fill:#009af9; stroke:none; fill-opacity:0" cx="937.198" cy="1015.17" r="2"/>
<circle clip-path="url(#clip802)" style="fill:#009af9; stroke:none; fill-opacity:0" cx="979.732" cy="1033.79" r="2"/>
<circle clip-path="url(#clip802)" style="fill:#009af9; stroke:none; fill-opacity:0" cx="1022.27" cy="1043.78" r="2"/>
<circle clip-path="url(#clip802)" style="fill:#009af9; stroke:none; fill-opacity:0" cx="1064.8" cy="1046.27" r="2"/>
<circle clip-path="url(#clip802)" style="fill:#009af9; stroke:none; fill-opacity:0" cx="1107.33" cy="1042.19" r="2"/>
<circle clip-path="url(#clip802)" style="fill:#009af9; stroke:none; fill-opacity:0" cx="1149.87" cy="1071.24" r="2"/>
<circle clip-path="url(#clip802)" style="fill:#009af9; stroke:none; fill-opacity:0" cx="1192.4" cy="1103.71" r="2"/>
<circle clip-path="url(#clip802)" style="fill:#009af9; stroke:none; fill-opacity:0" cx="1234.93" cy="1110.52" r="2"/>
<circle clip-path="url(#clip802)" style="fill:#009af9; stroke:none; fill-opacity:0" cx="1277.47" cy="1121.41" r="2"/>
<circle clip-path="url(#clip802)" style="fill:#009af9; stroke:none; fill-opacity:0" cx="1320" cy="1121.19" r="2"/>
<circle clip-path="url(#clip802)" style="fill:#009af9; stroke:none; fill-opacity:0" cx="1362.53" cy="1130.04" r="2"/>
<circle clip-path="url(#clip802)" style="fill:#009af9; stroke:none; fill-opacity:0" cx="1405.07" cy="1151.15" r="2"/>
<circle clip-path="url(#clip802)" style="fill:#009af9; stroke:none; fill-opacity:0" cx="1447.6" cy="1181.8" r="2"/>
<circle clip-path="url(#clip802)" style="fill:#009af9; stroke:none; fill-opacity:0" cx="1490.13" cy="1194.06" r="2"/>
<circle clip-path="url(#clip802)" style="fill:#009af9; stroke:none; fill-opacity:0" cx="1532.67" cy="1222.89" r="2"/>
<circle clip-path="url(#clip802)" style="fill:#009af9; stroke:none; fill-opacity:0" cx="1575.2" cy="1234.01" r="2"/>
<circle clip-path="url(#clip802)" style="fill:#009af9; stroke:none; fill-opacity:0" cx="1617.73" cy="1257.17" r="2"/>
<circle clip-path="url(#clip802)" style="fill:#009af9; stroke:none; fill-opacity:0" cx="1660.27" cy="1293.72" r="2"/>
<circle clip-path="url(#clip802)" style="fill:#009af9; stroke:none; fill-opacity:0" cx="1702.8" cy="1325.72" r="2"/>
<circle clip-path="url(#clip802)" style="fill:#009af9; stroke:none; fill-opacity:0" cx="1745.33" cy="1356.37" r="2"/>
<circle clip-path="url(#clip802)" style="fill:#009af9; stroke:none; fill-opacity:0" cx="1787.87" cy="1367.49" r="2"/>
<circle clip-path="url(#clip802)" style="fill:#009af9; stroke:none; fill-opacity:0" cx="1830.4" cy="1370.45" r="2"/>
<circle clip-path="url(#clip802)" style="fill:#009af9; stroke:none; fill-opacity:0" cx="1872.94" cy="1382.93" r="2"/>
<circle clip-path="url(#clip802)" style="fill:#009af9; stroke:none; fill-opacity:0" cx="1915.47" cy="1385.2" r="2"/>
<circle clip-path="url(#clip802)" style="fill:#009af9; stroke:none; fill-opacity:0" cx="1958" cy="1389.97" r="2"/>
<circle clip-path="url(#clip802)" style="fill:#009af9; stroke:none; fill-opacity:0" cx="2000.54" cy="1398.82" r="2"/>
<circle clip-path="url(#clip802)" style="fill:#009af9; stroke:none; fill-opacity:0" cx="2043.07" cy="1421.3" r="2"/>
<circle clip-path="url(#clip802)" style="fill:#009af9; stroke:none; fill-opacity:0" cx="2085.6" cy="1434.92" r="2"/>
<circle clip-path="url(#clip802)" style="fill:#009af9; stroke:none; fill-opacity:0" cx="2128.14" cy="1463.97" r="2"/>
<circle clip-path="url(#clip802)" style="fill:#009af9; stroke:none; fill-opacity:0" cx="2170.67" cy="1478.5" r="2"/>
<circle clip-path="url(#clip802)" style="fill:#009af9; stroke:none; fill-opacity:0" cx="2213.2" cy="1485.09" r="2"/>
<path clip-path="url(#clip800)" d="M2013.58 272.585 L2281.07 272.585 L2281.07 168.905 L2013.58 168.905  Z" fill="#ffffff" fill-rule="evenodd" fill-opacity="1"/>
<polyline clip-path="url(#clip800)" style="stroke:#000000; stroke-linecap:round; stroke-linejoin:round; stroke-width:4; stroke-opacity:1; fill:none" points="2013.58,272.585 2281.07,272.585 2281.07,168.905 2013.58,168.905 2013.58,272.585 "/>
<path clip-path="url(#clip800)" d="M2037.48 241.481 L2180.85 241.481 L2180.85 200.009 L2037.48 200.009 L2037.48 241.481  Z" fill="#009af9" fill-rule="evenodd" fill-opacity="1"/>
<polyline clip-path="url(#clip800)" style="stroke:#000000; stroke-linecap:round; stroke-linejoin:round; stroke-width:4; stroke-opacity:1; fill:none" points="2037.48,241.481 2180.85,241.481 2180.85,200.009 2037.48,200.009 2037.48,241.481 "/>
<path clip-path="url(#clip800)" d="M2218.59 240.432 Q2216.78 245.062 2215.07 246.474 Q2213.36 247.886 2210.49 247.886 L2207.08 247.886 L2207.08 244.321 L2209.58 244.321 Q2211.34 244.321 2212.31 243.488 Q2213.29 242.654 2214.47 239.552 L2215.23 237.608 L2204.74 212.099 L2209.26 212.099 L2217.36 232.377 L2225.46 212.099 L2229.98 212.099 L2218.59 240.432 Z" fill="#000000" fill-rule="nonzero" fill-opacity="1" /><path clip-path="url(#clip800)" d="M2237.27 234.089 L2244.91 234.089 L2244.91 207.724 L2236.6 209.391 L2236.6 205.131 L2244.86 203.465 L2249.54 203.465 L2249.54 234.089 L2257.17 234.089 L2257.17 238.025 L2237.27 238.025 L2237.27 234.089 Z" fill="#000000" fill-rule="nonzero" fill-opacity="1" /></svg>
