<?xml version="1.0" encoding="utf-8"?>
<svg xmlns="http://www.w3.org/2000/svg" xmlns:xlink="http://www.w3.org/1999/xlink" width="600" height="400" viewBox="0 0 2400 1600">
<defs>
  <clipPath id="clip040">
    <rect x="0" y="0" width="2400" height="1600"/>
  </clipPath>
</defs>
<path clip-path="url(#clip040)" d="M0 1600 L2400 1600 L2400 0 L0 0  Z" fill="#ffffff" fill-rule="evenodd" fill-opacity="1"/>
<defs>
  <clipPath id="clip041">
    <rect x="480" y="0" width="1681" height="1600"/>
  </clipPath>
</defs>
<path clip-path="url(#clip040)" d="M234.125 1423.18 L2352.76 1423.18 L2352.76 123.472 L234.125 123.472  Z" fill="#ffffff" fill-rule="evenodd" fill-opacity="1"/>
<defs>
  <clipPath id="clip042">
    <rect x="234" y="123" width="2120" height="1301"/>
  </clipPath>
</defs>
<polyline clip-path="url(#clip042)" style="stroke:#000000; stroke-linecap:round; stroke-linejoin:round; stroke-width:2; stroke-opacity:0.1; fill:none" points="294.087,1423.18 294.087,123.472 "/>
<polyline clip-path="url(#clip042)" style="stroke:#000000; stroke-linecap:round; stroke-linejoin:round; stroke-width:2; stroke-opacity:0.1; fill:none" points="627.205,1423.18 627.205,123.472 "/>
<polyline clip-path="url(#clip042)" style="stroke:#000000; stroke-linecap:round; stroke-linejoin:round; stroke-width:2; stroke-opacity:0.1; fill:none" points="960.323,1423.18 960.323,123.472 "/>
<polyline clip-path="url(#clip042)" style="stroke:#000000; stroke-linecap:round; stroke-linejoin:round; stroke-width:2; stroke-opacity:0.1; fill:none" points="1293.44,1423.18 1293.44,123.472 "/>
<polyline clip-path="url(#clip042)" style="stroke:#000000; stroke-linecap:round; stroke-linejoin:round; stroke-width:2; stroke-opacity:0.1; fill:none" points="1626.56,1423.18 1626.56,123.472 "/>
<polyline clip-path="url(#clip042)" style="stroke:#000000; stroke-linecap:round; stroke-linejoin:round; stroke-width:2; stroke-opacity:0.1; fill:none" points="1959.68,1423.18 1959.68,123.472 "/>
<polyline clip-path="url(#clip042)" style="stroke:#000000; stroke-linecap:round; stroke-linejoin:round; stroke-width:2; stroke-opacity:0.1; fill:none" points="2292.79,1423.18 2292.79,123.472 "/>
<polyline clip-path="url(#clip042)" style="stroke:#000000; stroke-linecap:round; stroke-linejoin:round; stroke-width:2; stroke-opacity:0.1; fill:none" points="234.125,1386.4 2352.76,1386.4 "/>
<polyline clip-path="url(#clip042)" style="stroke:#000000; stroke-linecap:round; stroke-linejoin:round; stroke-width:2; stroke-opacity:0.1; fill:none" points="234.125,1172.04 2352.76,1172.04 "/>
<polyline clip-path="url(#clip042)" style="stroke:#000000; stroke-linecap:round; stroke-linejoin:round; stroke-width:2; stroke-opacity:0.1; fill:none" points="234.125,957.676 2352.76,957.676 "/>
<polyline clip-path="url(#clip042)" style="stroke:#000000; stroke-linecap:round; stroke-linejoin:round; stroke-width:2; stroke-opacity:0.1; fill:none" points="234.125,743.316 2352.76,743.316 "/>
<polyline clip-path="url(#clip042)" style="stroke:#000000; stroke-linecap:round; stroke-linejoin:round; stroke-width:2; stroke-opacity:0.1; fill:none" points="234.125,528.956 2352.76,528.956 "/>
<polyline clip-path="url(#clip042)" style="stroke:#000000; stroke-linecap:round; stroke-linejoin:round; stroke-width:2; stroke-opacity:0.1; fill:none" points="234.125,314.596 2352.76,314.596 "/>
<polyline clip-path="url(#clip040)" style="stroke:#000000; stroke-linecap:round; stroke-linejoin:round; stroke-width:4; stroke-opacity:1; fill:none" points="234.125,1423.18 2352.76,1423.18 "/>
<polyline clip-path="url(#clip040)" style="stroke:#000000; stroke-linecap:round; stroke-linejoin:round; stroke-width:4; stroke-opacity:1; fill:none" points="294.087,1423.18 294.087,1404.28 "/>
<polyline clip-path="url(#clip040)" style="stroke:#000000; stroke-linecap:round; stroke-linejoin:round; stroke-width:4; stroke-opacity:1; fill:none" points="627.205,1423.18 627.205,1404.28 "/>
<polyline clip-path="url(#clip040)" style="stroke:#000000; stroke-linecap:round; stroke-linejoin:round; stroke-width:4; stroke-opacity:1; fill:none" points="960.323,1423.18 960.323,1404.28 "/>
<polyline clip-path="url(#clip040)" style="stroke:#000000; stroke-linecap:round; stroke-linejoin:round; stroke-width:4; stroke-opacity:1; fill:none" points="1293.44,1423.18 1293.44,1404.28 "/>
<polyline clip-path="url(#clip040)" style="stroke:#000000; stroke-linecap:round; stroke-linejoin:round; stroke-width:4; stroke-opacity:1; fill:none" points="1626.56,1423.18 1626.56,1404.28 "/>
<polyline clip-path="url(#clip040)" style="stroke:#000000; stroke-linecap:round; stroke-linejoin:round; stroke-width:4; stroke-opacity:1; fill:none" points="1959.68,1423.18 1959.68,1404.28 "/>
<polyline clip-path="url(#clip040)" style="stroke:#000000; stroke-linecap:round; stroke-linejoin:round; stroke-width:4; stroke-opacity:1; fill:none" points="2292.79,1423.18 2292.79,1404.28 "/>
<path clip-path="url(#clip040)" d="M248.647 1468.75 L278.323 1468.75 L278.323 1472.69 L248.647 1472.69 L248.647 1468.75 Z" fill="#000000" fill-rule="nonzero" fill-opacity="1" /><path clip-path="url(#clip040)" d="M289.226 1481.64 L296.864 1481.64 L296.864 1455.28 L288.554 1456.95 L288.554 1452.69 L296.818 1451.02 L301.494 1451.02 L301.494 1481.64 L309.133 1481.64 L309.133 1485.58 L289.226 1485.58 L289.226 1481.64 Z" fill="#000000" fill-rule="nonzero" fill-opacity="1" /><path clip-path="url(#clip040)" d="M318.624 1451.02 L336.98 1451.02 L336.98 1454.96 L322.906 1454.96 L322.906 1463.43 Q323.924 1463.08 324.943 1462.92 Q325.962 1462.73 326.98 1462.73 Q332.767 1462.73 336.147 1465.9 Q339.526 1469.08 339.526 1474.49 Q339.526 1480.07 336.054 1483.17 Q332.582 1486.25 326.262 1486.25 Q324.087 1486.25 321.818 1485.88 Q319.573 1485.51 317.165 1484.77 L317.165 1480.07 Q319.249 1481.2 321.471 1481.76 Q323.693 1482.32 326.17 1482.32 Q330.174 1482.32 332.512 1480.21 Q334.85 1478.1 334.85 1474.49 Q334.85 1470.88 332.512 1468.77 Q330.174 1466.67 326.17 1466.67 Q324.295 1466.67 322.42 1467.08 Q320.568 1467.5 318.624 1468.38 L318.624 1451.02 Z" fill="#000000" fill-rule="nonzero" fill-opacity="1" /><path clip-path="url(#clip040)" d="M581.267 1468.75 L610.943 1468.75 L610.943 1472.69 L581.267 1472.69 L581.267 1468.75 Z" fill="#000000" fill-rule="nonzero" fill-opacity="1" /><path clip-path="url(#clip040)" d="M621.846 1481.64 L629.485 1481.64 L629.485 1455.28 L621.175 1456.95 L621.175 1452.69 L629.438 1451.02 L634.114 1451.02 L634.114 1481.64 L641.753 1481.64 L641.753 1485.58 L621.846 1485.58 L621.846 1481.64 Z" fill="#000000" fill-rule="nonzero" fill-opacity="1" /><path clip-path="url(#clip040)" d="M661.198 1454.1 Q657.586 1454.1 655.758 1457.66 Q653.952 1461.2 653.952 1468.33 Q653.952 1475.44 655.758 1479.01 Q657.586 1482.55 661.198 1482.55 Q664.832 1482.55 666.637 1479.01 Q668.466 1475.44 668.466 1468.33 Q668.466 1461.2 666.637 1457.66 Q664.832 1454.1 661.198 1454.1 M661.198 1450.39 Q667.008 1450.39 670.063 1455 Q673.142 1459.58 673.142 1468.33 Q673.142 1477.06 670.063 1481.67 Q667.008 1486.25 661.198 1486.25 Q655.387 1486.25 652.309 1481.67 Q649.253 1477.06 649.253 1468.33 Q649.253 1459.58 652.309 1455 Q655.387 1450.39 661.198 1450.39 Z" fill="#000000" fill-rule="nonzero" fill-opacity="1" /><path clip-path="url(#clip040)" d="M929.964 1468.75 L959.64 1468.75 L959.64 1472.69 L929.964 1472.69 L929.964 1468.75 Z" fill="#000000" fill-rule="nonzero" fill-opacity="1" /><path clip-path="url(#clip040)" d="M969.779 1451.02 L988.135 1451.02 L988.135 1454.96 L974.061 1454.96 L974.061 1463.43 Q975.08 1463.08 976.098 1462.92 Q977.117 1462.73 978.135 1462.73 Q983.922 1462.73 987.302 1465.9 Q990.681 1469.08 990.681 1474.49 Q990.681 1480.07 987.209 1483.17 Q983.737 1486.25 977.417 1486.25 Q975.242 1486.25 972.973 1485.88 Q970.728 1485.51 968.32 1484.77 L968.32 1480.07 Q970.404 1481.2 972.626 1481.76 Q974.848 1482.32 977.325 1482.32 Q981.33 1482.32 983.667 1480.21 Q986.005 1478.1 986.005 1474.49 Q986.005 1470.88 983.667 1468.77 Q981.33 1466.67 977.325 1466.67 Q975.45 1466.67 973.575 1467.08 Q971.723 1467.5 969.779 1468.38 L969.779 1451.02 Z" fill="#000000" fill-rule="nonzero" fill-opacity="1" /><path clip-path="url(#clip040)" d="M1293.44 1454.1 Q1289.83 1454.1 1288 1457.66 Q1286.2 1461.2 1286.2 1468.33 Q1286.2 1475.44 1288 1479.01 Q1289.83 1482.55 1293.44 1482.55 Q1297.07 1482.55 1298.88 1479.01 Q1300.71 1475.44 1300.71 1468.33 Q1300.71 1461.2 1298.88 1457.66 Q1297.07 1454.1 1293.44 1454.1 M1293.44 1450.39 Q1299.25 1450.39 1302.31 1455 Q1305.39 1459.58 1305.39 1468.33 Q1305.39 1477.06 1302.31 1481.67 Q1299.25 1486.25 1293.44 1486.25 Q1287.63 1486.25 1284.55 1481.67 Q1281.5 1477.06 1281.5 1468.33 Q1281.5 1459.58 1284.55 1455 Q1287.63 1450.39 1293.44 1450.39 Z" fill="#000000" fill-rule="nonzero" fill-opacity="1" /><path clip-path="url(#clip040)" d="M1616.84 1451.02 L1635.19 1451.02 L1635.19 1454.96 L1621.12 1454.96 L1621.12 1463.43 Q1622.14 1463.08 1623.16 1462.92 Q1624.17 1462.73 1625.19 1462.73 Q1630.98 1462.73 1634.36 1465.9 Q1637.74 1469.08 1637.74 1474.49 Q1637.74 1480.07 1634.27 1483.17 Q1630.79 1486.25 1624.48 1486.25 Q1622.3 1486.25 1620.03 1485.88 Q1617.79 1485.51 1615.38 1484.77 L1615.38 1480.07 Q1617.46 1481.2 1619.68 1481.76 Q1621.91 1482.32 1624.38 1482.32 Q1628.39 1482.32 1630.73 1480.21 Q1633.06 1478.1 1633.06 1474.49 Q1633.06 1470.88 1630.73 1468.77 Q1628.39 1466.67 1624.38 1466.67 Q1622.51 1466.67 1620.63 1467.08 Q1618.78 1467.5 1616.84 1468.38 L1616.84 1451.02 Z" fill="#000000" fill-rule="nonzero" fill-opacity="1" /><path clip-path="url(#clip040)" d="M1934.36 1481.64 L1942 1481.64 L1942 1455.28 L1933.69 1456.95 L1933.69 1452.69 L1941.96 1451.02 L1946.63 1451.02 L1946.63 1481.64 L1954.27 1481.64 L1954.27 1485.58 L1934.36 1485.58 L1934.36 1481.64 Z" fill="#000000" fill-rule="nonzero" fill-opacity="1" /><path clip-path="url(#clip040)" d="M1973.72 1454.1 Q1970.1 1454.1 1968.28 1457.66 Q1966.47 1461.2 1966.47 1468.33 Q1966.47 1475.44 1968.28 1479.01 Q1970.1 1482.55 1973.72 1482.55 Q1977.35 1482.55 1979.16 1479.01 Q1980.98 1475.44 1980.98 1468.33 Q1980.98 1461.2 1979.16 1457.66 Q1977.35 1454.1 1973.72 1454.1 M1973.72 1450.39 Q1979.53 1450.39 1982.58 1455 Q1985.66 1459.58 1985.66 1468.33 Q1985.66 1477.06 1982.58 1481.67 Q1979.53 1486.25 1973.72 1486.25 Q1967.91 1486.25 1964.83 1481.67 Q1961.77 1477.06 1961.77 1468.33 Q1961.77 1459.58 1964.83 1455 Q1967.91 1450.39 1973.72 1450.39 Z" fill="#000000" fill-rule="nonzero" fill-opacity="1" /><path clip-path="url(#clip040)" d="M2267.98 1481.64 L2275.62 1481.64 L2275.62 1455.28 L2267.31 1456.95 L2267.31 1452.69 L2275.57 1451.02 L2280.25 1451.02 L2280.25 1481.64 L2287.89 1481.64 L2287.89 1485.58 L2267.98 1485.58 L2267.98 1481.64 Z" fill="#000000" fill-rule="nonzero" fill-opacity="1" /><path clip-path="url(#clip040)" d="M2297.38 1451.02 L2315.73 1451.02 L2315.73 1454.96 L2301.66 1454.96 L2301.66 1463.43 Q2302.68 1463.08 2303.7 1462.92 Q2304.72 1462.73 2305.73 1462.73 Q2311.52 1462.73 2314.9 1465.9 Q2318.28 1469.08 2318.28 1474.49 Q2318.28 1480.07 2314.81 1483.17 Q2311.34 1486.25 2305.02 1486.25 Q2302.84 1486.25 2300.57 1485.88 Q2298.33 1485.51 2295.92 1484.77 L2295.92 1480.07 Q2298 1481.2 2300.23 1481.76 Q2302.45 1482.32 2304.92 1482.32 Q2308.93 1482.32 2311.27 1480.21 Q2313.6 1478.1 2313.6 1474.49 Q2313.6 1470.88 2311.27 1468.77 Q2308.93 1466.67 2304.92 1466.67 Q2303.05 1466.67 2301.17 1467.08 Q2299.32 1467.5 2297.38 1468.38 L2297.38 1451.02 Z" fill="#000000" fill-rule="nonzero" fill-opacity="1" /><path clip-path="url(#clip040)" d="M1093.51 1525.81 L1093.51 1543.66 L1101.59 1543.66 Q1106.08 1543.66 1108.53 1541.34 Q1110.98 1539.02 1110.98 1534.72 Q1110.98 1530.45 1108.53 1528.13 Q1106.08 1525.81 1101.59 1525.81 L1093.51 1525.81 M1087.08 1520.52 L1101.59 1520.52 Q1109.58 1520.52 1113.66 1524.15 Q1117.76 1527.75 1117.76 1534.72 Q1117.76 1541.75 1113.66 1545.35 Q1109.58 1548.95 1101.59 1548.95 L1093.51 1548.95 L1093.51 1568.04 L1087.08 1568.04 L1087.08 1520.52 Z" fill="#000000" fill-rule="nonzero" fill-opacity="1" /><path clip-path="url(#clip040)" d="M1137.62 1536.5 Q1132.91 1536.5 1130.18 1540.19 Q1127.44 1543.85 1127.44 1550.25 Q1127.44 1556.65 1130.14 1560.34 Q1132.88 1564 1137.62 1564 Q1142.3 1564 1145.04 1560.31 Q1147.78 1556.62 1147.78 1550.25 Q1147.78 1543.92 1145.04 1540.23 Q1142.3 1536.5 1137.62 1536.5 M1137.62 1531.54 Q1145.26 1531.54 1149.62 1536.5 Q1153.98 1541.47 1153.98 1550.25 Q1153.98 1559 1149.62 1564 Q1145.26 1568.97 1137.62 1568.97 Q1129.95 1568.97 1125.59 1564 Q1121.26 1559 1121.26 1550.25 Q1121.26 1541.47 1125.59 1536.5 Q1129.95 1531.54 1137.62 1531.54 Z" fill="#000000" fill-rule="nonzero" fill-opacity="1" /><path clip-path="url(#clip040)" d="M1186.42 1533.45 L1186.42 1538.98 Q1183.93 1537.71 1181.26 1537.07 Q1178.59 1536.44 1175.72 1536.44 Q1171.36 1536.44 1169.17 1537.77 Q1167 1539.11 1167 1541.79 Q1167 1543.82 1168.56 1545 Q1170.12 1546.15 1174.83 1547.2 L1176.84 1547.64 Q1183.08 1548.98 1185.69 1551.43 Q1188.33 1553.85 1188.33 1558.21 Q1188.33 1563.17 1184.38 1566.07 Q1180.47 1568.97 1173.59 1568.97 Q1170.73 1568.97 1167.61 1568.39 Q1164.52 1567.85 1161.08 1566.74 L1161.08 1560.69 Q1164.33 1562.38 1167.48 1563.24 Q1170.63 1564.07 1173.72 1564.07 Q1177.86 1564.07 1180.08 1562.66 Q1182.31 1561.23 1182.31 1558.65 Q1182.31 1556.27 1180.69 1554.99 Q1179.1 1553.72 1173.65 1552.54 L1171.62 1552.07 Q1166.17 1550.92 1163.76 1548.56 Q1161.34 1546.18 1161.34 1542.04 Q1161.34 1537.01 1164.9 1534.27 Q1168.47 1531.54 1175.02 1531.54 Q1178.27 1531.54 1181.13 1532.01 Q1184 1532.49 1186.42 1533.45 Z" fill="#000000" fill-rule="nonzero" fill-opacity="1" /><path clip-path="url(#clip040)" d="M1197.65 1532.4 L1203.51 1532.4 L1203.51 1568.04 L1197.65 1568.04 L1197.65 1532.4 M1197.65 1518.52 L1203.51 1518.52 L1203.51 1525.93 L1197.65 1525.93 L1197.65 1518.52 Z" fill="#000000" fill-rule="nonzero" fill-opacity="1" /><path clip-path="url(#clip040)" d="M1221.56 1522.27 L1221.56 1532.4 L1233.62 1532.4 L1233.62 1536.95 L1221.56 1536.95 L1221.56 1556.3 Q1221.56 1560.66 1222.73 1561.9 Q1223.94 1563.14 1227.6 1563.14 L1233.62 1563.14 L1233.62 1568.04 L1227.6 1568.04 Q1220.82 1568.04 1218.25 1565.53 Q1215.67 1562.98 1215.67 1556.3 L1215.67 1536.95 L1211.37 1536.95 L1211.37 1532.4 L1215.67 1532.4 L1215.67 1522.27 L1221.56 1522.27 Z" fill="#000000" fill-rule="nonzero" fill-opacity="1" /><path clip-path="url(#clip040)" d="M1241.32 1532.4 L1247.18 1532.4 L1247.18 1568.04 L1241.32 1568.04 L1241.32 1532.4 M1241.32 1518.52 L1247.18 1518.52 L1247.18 1525.93 L1241.32 1525.93 L1241.32 1518.52 Z" fill="#000000" fill-rule="nonzero" fill-opacity="1" /><path clip-path="url(#clip040)" d="M1273.25 1536.5 Q1268.53 1536.5 1265.8 1540.19 Q1263.06 1543.85 1263.06 1550.25 Q1263.06 1556.65 1265.77 1560.34 Q1268.5 1564 1273.25 1564 Q1277.92 1564 1280.66 1560.31 Q1283.4 1556.62 1283.4 1550.25 Q1283.4 1543.92 1280.66 1540.23 Q1277.92 1536.5 1273.25 1536.5 M1273.25 1531.54 Q1280.88 1531.54 1285.24 1536.5 Q1289.61 1541.47 1289.61 1550.25 Q1289.61 1559 1285.24 1564 Q1280.88 1568.97 1273.25 1568.97 Q1265.57 1568.97 1261.21 1564 Q1256.89 1559 1256.89 1550.25 Q1256.89 1541.47 1261.21 1536.5 Q1265.57 1531.54 1273.25 1531.54 Z" fill="#000000" fill-rule="nonzero" fill-opacity="1" /><path clip-path="url(#clip040)" d="M1328.95 1546.53 L1328.95 1568.04 L1323.09 1568.04 L1323.09 1546.72 Q1323.09 1541.66 1321.12 1539.14 Q1319.14 1536.63 1315.2 1536.63 Q1310.45 1536.63 1307.72 1539.65 Q1304.98 1542.68 1304.98 1547.9 L1304.98 1568.04 L1299.09 1568.04 L1299.09 1532.4 L1304.98 1532.4 L1304.98 1537.93 Q1307.08 1534.72 1309.91 1533.13 Q1312.78 1531.54 1316.5 1531.54 Q1322.64 1531.54 1325.79 1535.36 Q1328.95 1539.14 1328.95 1546.53 Z" fill="#000000" fill-rule="nonzero" fill-opacity="1" /><path clip-path="url(#clip040)" d="M1375.42 1518.58 Q1371.15 1525.9 1369.08 1533.06 Q1367.01 1540.23 1367.01 1547.58 Q1367.01 1554.93 1369.08 1562.16 Q1371.18 1569.35 1375.42 1576.64 L1370.32 1576.64 Q1365.55 1569.16 1363.16 1561.93 Q1360.81 1554.71 1360.81 1547.58 Q1360.81 1540.48 1363.16 1533.29 Q1365.52 1526.09 1370.32 1518.58 L1375.42 1518.58 Z" fill="#000000" fill-rule="nonzero" fill-opacity="1" /><path clip-path="url(#clip040)" d="M1412.43 1533.76 L1412.43 1539.24 Q1409.95 1537.87 1407.43 1537.2 Q1404.95 1536.5 1402.41 1536.5 Q1396.71 1536.5 1393.56 1540.13 Q1390.41 1543.73 1390.41 1550.25 Q1390.41 1556.78 1393.56 1560.4 Q1396.71 1564 1402.41 1564 Q1404.95 1564 1407.43 1563.33 Q1409.95 1562.63 1412.43 1561.26 L1412.43 1566.68 Q1409.98 1567.82 1407.34 1568.39 Q1404.73 1568.97 1401.77 1568.97 Q1393.72 1568.97 1388.97 1563.91 Q1384.23 1558.85 1384.23 1550.25 Q1384.23 1541.53 1389.01 1536.53 Q1393.81 1531.54 1402.15 1531.54 Q1404.86 1531.54 1407.43 1532.11 Q1410.01 1532.65 1412.43 1533.76 Z" fill="#000000" fill-rule="nonzero" fill-opacity="1" /><path clip-path="url(#clip040)" d="M1450.37 1539.24 Q1452.57 1535.29 1455.62 1533.41 Q1458.68 1531.54 1462.82 1531.54 Q1468.39 1531.54 1471.41 1535.45 Q1474.43 1539.33 1474.43 1546.53 L1474.43 1568.04 L1468.55 1568.04 L1468.55 1546.72 Q1468.55 1541.59 1466.73 1539.11 Q1464.92 1536.63 1461.19 1536.63 Q1456.64 1536.63 1454 1539.65 Q1451.36 1542.68 1451.36 1547.9 L1451.36 1568.04 L1445.47 1568.04 L1445.47 1546.72 Q1445.47 1541.56 1443.66 1539.11 Q1441.84 1536.63 1438.05 1536.63 Q1433.57 1536.63 1430.92 1539.68 Q1428.28 1542.71 1428.28 1547.9 L1428.28 1568.04 L1422.39 1568.04 L1422.39 1532.4 L1428.28 1532.4 L1428.28 1537.93 Q1430.29 1534.66 1433.09 1533.1 Q1435.89 1531.54 1439.74 1531.54 Q1443.62 1531.54 1446.33 1533.51 Q1449.07 1535.48 1450.37 1539.24 Z" fill="#000000" fill-rule="nonzero" fill-opacity="1" /><path clip-path="url(#clip040)" d="M1485.19 1518.58 L1490.28 1518.58 Q1495.06 1526.09 1497.41 1533.29 Q1499.8 1540.48 1499.8 1547.58 Q1499.8 1554.71 1497.41 1561.93 Q1495.06 1569.16 1490.28 1576.64 L1485.19 1576.64 Q1489.42 1569.35 1491.49 1562.16 Q1493.59 1554.93 1493.59 1547.58 Q1493.59 1540.23 1491.49 1533.06 Q1489.42 1525.9 1485.19 1518.58 Z" fill="#000000" fill-rule="nonzero" fill-opacity="1" /><polyline clip-path="url(#clip040)" style="stroke:#000000; stroke-linecap:round; stroke-linejoin:round; stroke-width:4; stroke-opacity:1; fill:none" points="234.125,1423.18 234.125,123.472 "/>
<polyline clip-path="url(#clip040)" style="stroke:#000000; stroke-linecap:round; stroke-linejoin:round; stroke-width:4; stroke-opacity:1; fill:none" points="234.125,1386.4 253.023,1386.4 "/>
<polyline clip-path="url(#clip040)" style="stroke:#000000; stroke-linecap:round; stroke-linejoin:round; stroke-width:4; stroke-opacity:1; fill:none" points="234.125,1172.04 253.023,1172.04 "/>
<polyline clip-path="url(#clip040)" style="stroke:#000000; stroke-linecap:round; stroke-linejoin:round; stroke-width:4; stroke-opacity:1; fill:none" points="234.125,957.676 253.023,957.676 "/>
<polyline clip-path="url(#clip040)" style="stroke:#000000; stroke-linecap:round; stroke-linejoin:round; stroke-width:4; stroke-opacity:1; fill:none" points="234.125,743.316 253.023,743.316 "/>
<polyline clip-path="url(#clip040)" style="stroke:#000000; stroke-linecap:round; stroke-linejoin:round; stroke-width:4; stroke-opacity:1; fill:none" points="234.125,528.956 253.023,528.956 "/>
<polyline clip-path="url(#clip040)" style="stroke:#000000; stroke-linecap:round; stroke-linejoin:round; stroke-width:4; stroke-opacity:1; fill:none" points="234.125,314.596 253.023,314.596 "/>
<path clip-path="url(#clip040)" d="M186.181 1372.19 Q182.57 1372.19 180.741 1375.76 Q178.936 1379.3 178.936 1386.43 Q178.936 1393.54 180.741 1397.1 Q182.57 1400.64 186.181 1400.64 Q189.815 1400.64 191.621 1397.1 Q193.45 1393.54 193.45 1386.43 Q193.45 1379.3 191.621 1375.76 Q189.815 1372.19 186.181 1372.19 M186.181 1368.49 Q191.991 1368.49 195.047 1373.1 Q198.125 1377.68 198.125 1386.43 Q198.125 1395.16 195.047 1399.76 Q191.991 1404.35 186.181 1404.35 Q180.371 1404.35 177.292 1399.76 Q174.237 1395.16 174.237 1386.43 Q174.237 1377.68 177.292 1373.1 Q180.371 1368.49 186.181 1368.49 Z" fill="#000000" fill-rule="nonzero" fill-opacity="1" /><path clip-path="url(#clip040)" d="M146.066 1154.76 L164.422 1154.76 L164.422 1158.69 L150.348 1158.69 L150.348 1167.16 Q151.366 1166.82 152.385 1166.65 Q153.403 1166.47 154.422 1166.47 Q160.209 1166.47 163.589 1169.64 Q166.968 1172.81 166.968 1178.23 Q166.968 1183.81 163.496 1186.91 Q160.024 1189.99 153.704 1189.99 Q151.528 1189.99 149.26 1189.62 Q147.015 1189.25 144.607 1188.51 L144.607 1183.81 Q146.691 1184.94 148.913 1185.5 Q151.135 1186.05 153.612 1186.05 Q157.616 1186.05 159.954 1183.95 Q162.292 1181.84 162.292 1178.23 Q162.292 1174.62 159.954 1172.51 Q157.616 1170.4 153.612 1170.4 Q151.737 1170.4 149.862 1170.82 Q148.01 1171.24 146.066 1172.12 L146.066 1154.76 Z" fill="#000000" fill-rule="nonzero" fill-opacity="1" /><path clip-path="url(#clip040)" d="M186.181 1157.83 Q182.57 1157.83 180.741 1161.4 Q178.936 1164.94 178.936 1172.07 Q178.936 1179.18 180.741 1182.74 Q182.57 1186.28 186.181 1186.28 Q189.815 1186.28 191.621 1182.74 Q193.45 1179.18 193.45 1172.07 Q193.45 1164.94 191.621 1161.4 Q189.815 1157.83 186.181 1157.83 M186.181 1154.13 Q191.991 1154.13 195.047 1158.74 Q198.125 1163.32 198.125 1172.07 Q198.125 1180.8 195.047 1185.4 Q191.991 1189.99 186.181 1189.99 Q180.371 1189.99 177.292 1185.4 Q174.237 1180.8 174.237 1172.07 Q174.237 1163.32 177.292 1158.74 Q180.371 1154.13 186.181 1154.13 Z" fill="#000000" fill-rule="nonzero" fill-opacity="1" /><path clip-path="url(#clip040)" d="M116.668 971.02 L124.306 971.02 L124.306 944.655 L115.996 946.322 L115.996 942.062 L124.26 940.396 L128.936 940.396 L128.936 971.02 L136.575 971.02 L136.575 974.956 L116.668 974.956 L116.668 971.02 Z" fill="#000000" fill-rule="nonzero" fill-opacity="1" /><path clip-path="url(#clip040)" d="M156.019 943.474 Q152.408 943.474 150.579 947.039 Q148.774 950.581 148.774 957.71 Q148.774 964.817 150.579 968.382 Q152.408 971.923 156.019 971.923 Q159.653 971.923 161.459 968.382 Q163.288 964.817 163.288 957.71 Q163.288 950.581 161.459 947.039 Q159.653 943.474 156.019 943.474 M156.019 939.771 Q161.829 939.771 164.885 944.377 Q167.964 948.96 167.964 957.71 Q167.964 966.437 164.885 971.044 Q161.829 975.627 156.019 975.627 Q150.209 975.627 147.13 971.044 Q144.075 966.437 144.075 957.71 Q144.075 948.96 147.13 944.377 Q150.209 939.771 156.019 939.771 Z" fill="#000000" fill-rule="nonzero" fill-opacity="1" /><path clip-path="url(#clip040)" d="M186.181 943.474 Q182.57 943.474 180.741 947.039 Q178.936 950.581 178.936 957.71 Q178.936 964.817 180.741 968.382 Q182.57 971.923 186.181 971.923 Q189.815 971.923 191.621 968.382 Q193.45 964.817 193.45 957.71 Q193.45 950.581 191.621 947.039 Q189.815 943.474 186.181 943.474 M186.181 939.771 Q191.991 939.771 195.047 944.377 Q198.125 948.96 198.125 957.71 Q198.125 966.437 195.047 971.044 Q191.991 975.627 186.181 975.627 Q180.371 975.627 177.292 971.044 Q174.237 966.437 174.237 957.71 Q174.237 948.96 177.292 944.377 Q180.371 939.771 186.181 939.771 Z" fill="#000000" fill-rule="nonzero" fill-opacity="1" /><path clip-path="url(#clip040)" d="M116.668 756.66 L124.306 756.66 L124.306 730.295 L115.996 731.961 L115.996 727.702 L124.26 726.036 L128.936 726.036 L128.936 756.66 L136.575 756.66 L136.575 760.596 L116.668 760.596 L116.668 756.66 Z" fill="#000000" fill-rule="nonzero" fill-opacity="1" /><path clip-path="url(#clip040)" d="M146.066 726.036 L164.422 726.036 L164.422 729.971 L150.348 729.971 L150.348 738.443 Q151.366 738.096 152.385 737.934 Q153.403 737.748 154.422 737.748 Q160.209 737.748 163.589 740.92 Q166.968 744.091 166.968 749.508 Q166.968 755.086 163.496 758.188 Q160.024 761.267 153.704 761.267 Q151.528 761.267 149.26 760.897 Q147.015 760.526 144.607 759.785 L144.607 755.086 Q146.691 756.221 148.913 756.776 Q151.135 757.332 153.612 757.332 Q157.616 757.332 159.954 755.225 Q162.292 753.119 162.292 749.508 Q162.292 745.897 159.954 743.79 Q157.616 741.684 153.612 741.684 Q151.737 741.684 149.862 742.1 Q148.01 742.517 146.066 743.397 L146.066 726.036 Z" fill="#000000" fill-rule="nonzero" fill-opacity="1" /><path clip-path="url(#clip040)" d="M186.181 729.114 Q182.57 729.114 180.741 732.679 Q178.936 736.221 178.936 743.35 Q178.936 750.457 180.741 754.022 Q182.57 757.563 186.181 757.563 Q189.815 757.563 191.621 754.022 Q193.45 750.457 193.45 743.35 Q193.45 736.221 191.621 732.679 Q189.815 729.114 186.181 729.114 M186.181 725.411 Q191.991 725.411 195.047 730.017 Q198.125 734.6 198.125 743.35 Q198.125 752.077 195.047 756.684 Q191.991 761.267 186.181 761.267 Q180.371 761.267 177.292 756.684 Q174.237 752.077 174.237 743.35 Q174.237 734.6 177.292 730.017 Q180.371 725.411 186.181 725.411 Z" fill="#000000" fill-rule="nonzero" fill-opacity="1" /><path clip-path="url(#clip040)" d="M119.885 542.3 L136.204 542.3 L136.204 546.236 L114.26 546.236 L114.26 542.3 Q116.922 539.546 121.505 534.916 Q126.112 530.263 127.292 528.921 Q129.538 526.398 130.417 524.662 Q131.32 522.902 131.32 521.213 Q131.32 518.458 129.376 516.722 Q127.455 514.986 124.353 514.986 Q122.154 514.986 119.7 515.75 Q117.269 516.513 114.492 518.064 L114.492 513.342 Q117.316 512.208 119.769 511.629 Q122.223 511.051 124.26 511.051 Q129.63 511.051 132.825 513.736 Q136.019 516.421 136.019 520.912 Q136.019 523.041 135.209 524.963 Q134.422 526.861 132.316 529.453 Q131.737 530.125 128.635 533.342 Q125.533 536.537 119.885 542.3 Z" fill="#000000" fill-rule="nonzero" fill-opacity="1" /><path clip-path="url(#clip040)" d="M156.019 514.754 Q152.408 514.754 150.579 518.319 Q148.774 521.861 148.774 528.99 Q148.774 536.097 150.579 539.662 Q152.408 543.203 156.019 543.203 Q159.653 543.203 161.459 539.662 Q163.288 536.097 163.288 528.99 Q163.288 521.861 161.459 518.319 Q159.653 514.754 156.019 514.754 M156.019 511.051 Q161.829 511.051 164.885 515.657 Q167.964 520.24 167.964 528.99 Q167.964 537.717 164.885 542.324 Q161.829 546.907 156.019 546.907 Q150.209 546.907 147.13 542.324 Q144.075 537.717 144.075 528.99 Q144.075 520.24 147.13 515.657 Q150.209 511.051 156.019 511.051 Z" fill="#000000" fill-rule="nonzero" fill-opacity="1" /><path clip-path="url(#clip040)" d="M186.181 514.754 Q182.57 514.754 180.741 518.319 Q178.936 521.861 178.936 528.99 Q178.936 536.097 180.741 539.662 Q182.57 543.203 186.181 543.203 Q189.815 543.203 191.621 539.662 Q193.45 536.097 193.45 528.99 Q193.45 521.861 191.621 518.319 Q189.815 514.754 186.181 514.754 M186.181 511.051 Q191.991 511.051 195.047 515.657 Q198.125 520.24 198.125 528.99 Q198.125 537.717 195.047 542.324 Q191.991 546.907 186.181 546.907 Q180.371 546.907 177.292 542.324 Q174.237 537.717 174.237 528.99 Q174.237 520.24 177.292 515.657 Q180.371 511.051 186.181 511.051 Z" fill="#000000" fill-rule="nonzero" fill-opacity="1" /><path clip-path="url(#clip040)" d="M119.885 327.94 L136.204 327.94 L136.204 331.876 L114.26 331.876 L114.26 327.94 Q116.922 325.186 121.505 320.556 Q126.112 315.903 127.292 314.561 Q129.538 312.038 130.417 310.302 Q131.32 308.542 131.32 306.853 Q131.32 304.098 129.376 302.362 Q127.455 300.626 124.353 300.626 Q122.154 300.626 119.7 301.39 Q117.269 302.153 114.492 303.704 L114.492 298.982 Q117.316 297.848 119.769 297.269 Q122.223 296.691 124.26 296.691 Q129.63 296.691 132.825 299.376 Q136.019 302.061 136.019 306.552 Q136.019 308.681 135.209 310.602 Q134.422 312.501 132.316 315.093 Q131.737 315.765 128.635 318.982 Q125.533 322.177 119.885 327.94 Z" fill="#000000" fill-rule="nonzero" fill-opacity="1" /><path clip-path="url(#clip040)" d="M146.066 297.316 L164.422 297.316 L164.422 301.251 L150.348 301.251 L150.348 309.723 Q151.366 309.376 152.385 309.214 Q153.403 309.028 154.422 309.028 Q160.209 309.028 163.589 312.2 Q166.968 315.371 166.968 320.788 Q166.968 326.366 163.496 329.468 Q160.024 332.547 153.704 332.547 Q151.528 332.547 149.26 332.176 Q147.015 331.806 144.607 331.065 L144.607 326.366 Q146.691 327.501 148.913 328.056 Q151.135 328.612 153.612 328.612 Q157.616 328.612 159.954 326.505 Q162.292 324.399 162.292 320.788 Q162.292 317.177 159.954 315.07 Q157.616 312.964 153.612 312.964 Q151.737 312.964 149.862 313.38 Q148.01 313.797 146.066 314.677 L146.066 297.316 Z" fill="#000000" fill-rule="nonzero" fill-opacity="1" /><path clip-path="url(#clip040)" d="M186.181 300.394 Q182.57 300.394 180.741 303.959 Q178.936 307.501 178.936 314.63 Q178.936 321.737 180.741 325.301 Q182.57 328.843 186.181 328.843 Q189.815 328.843 191.621 325.301 Q193.45 321.737 193.45 314.63 Q193.45 307.501 191.621 303.959 Q189.815 300.394 186.181 300.394 M186.181 296.691 Q191.991 296.691 195.047 301.297 Q198.125 305.88 198.125 314.63 Q198.125 323.357 195.047 327.964 Q191.991 332.547 186.181 332.547 Q180.371 332.547 177.292 327.964 Q174.237 323.357 174.237 314.63 Q174.237 305.88 177.292 301.297 Q180.371 296.691 186.181 296.691 Z" fill="#000000" fill-rule="nonzero" fill-opacity="1" /><path clip-path="url(#clip040)" d="M20.1444 945.009 L26.9239 945.009 Q23.9002 948.256 22.4043 951.948 Q20.9083 955.608 20.9083 959.746 Q20.9083 967.894 25.9054 972.222 Q30.8707 976.551 40.2919 976.551 Q49.6813 976.551 54.6784 972.222 Q59.6436 967.894 59.6436 959.746 Q59.6436 955.608 58.1477 951.948 Q56.6518 948.256 53.6281 945.009 L60.3439 945.009 Q62.6355 948.383 63.7814 952.171 Q64.9272 955.926 64.9272 960.128 Q64.9272 970.918 58.3387 977.124 Q51.7183 983.331 40.2919 983.331 Q28.8336 983.331 22.2451 977.124 Q15.6248 970.918 15.6248 960.128 Q15.6248 955.863 16.7706 952.107 Q17.8846 948.319 20.1444 945.009 Z" fill="#000000" fill-rule="nonzero" fill-opacity="1" /><path clip-path="url(#clip040)" d="M32.4621 921.52 Q32.4621 926.23 36.1542 928.968 Q39.8145 931.705 46.212 931.705 Q52.6095 931.705 56.3017 928.999 Q59.9619 926.262 59.9619 921.52 Q59.9619 916.841 56.2698 914.104 Q52.5777 911.366 46.212 911.366 Q39.8781 911.366 36.186 914.104 Q32.4621 916.841 32.4621 921.52 M27.4968 921.52 Q27.4968 913.881 32.4621 909.52 Q37.4273 905.16 46.212 905.16 Q54.9649 905.16 59.9619 909.52 Q64.9272 913.881 64.9272 921.52 Q64.9272 929.19 59.9619 933.551 Q54.9649 937.88 46.212 937.88 Q37.4273 937.88 32.4621 933.551 Q27.4968 929.19 27.4968 921.52 Z" fill="#000000" fill-rule="nonzero" fill-opacity="1" /><path clip-path="url(#clip040)" d="M49.9359 896.057 L28.3562 896.057 L28.3562 890.2 L49.7131 890.2 Q54.7739 890.2 57.3202 888.227 Q59.8346 886.254 59.8346 882.307 Q59.8346 877.564 56.8109 874.827 Q53.7872 872.058 48.5673 872.058 L28.3562 872.058 L28.3562 866.202 L64.0042 866.202 L64.0042 872.058 L58.5296 872.058 Q61.7762 874.191 63.3676 877.023 Q64.9272 879.824 64.9272 883.548 Q64.9272 889.691 61.1078 892.874 Q57.2883 896.057 49.9359 896.057 M27.4968 881.32 L27.4968 881.32 Z" fill="#000000" fill-rule="nonzero" fill-opacity="1" /><path clip-path="url(#clip040)" d="M42.4881 824.506 L64.0042 824.506 L64.0042 830.363 L42.679 830.363 Q37.6183 830.363 35.1038 832.336 Q32.5894 834.309 32.5894 838.256 Q32.5894 842.999 35.6131 845.736 Q38.6368 848.473 43.8567 848.473 L64.0042 848.473 L64.0042 854.361 L28.3562 854.361 L28.3562 848.473 L33.8944 848.473 Q30.6797 846.372 29.0883 843.54 Q27.4968 840.675 27.4968 836.951 Q27.4968 830.808 31.3163 827.657 Q35.1038 824.506 42.4881 824.506 Z" fill="#000000" fill-rule="nonzero" fill-opacity="1" /><path clip-path="url(#clip040)" d="M18.2347 807.032 L28.3562 807.032 L28.3562 794.969 L32.9077 794.969 L32.9077 807.032 L52.2594 807.032 Q56.6199 807.032 57.8613 805.855 Q59.1026 804.645 59.1026 800.985 L59.1026 794.969 L64.0042 794.969 L64.0042 800.985 Q64.0042 807.764 61.4897 810.343 Q58.9434 812.921 52.2594 812.921 L32.9077 812.921 L32.9077 817.218 L28.3562 817.218 L28.3562 812.921 L18.2347 812.921 L18.2347 807.032 Z" fill="#000000" fill-rule="nonzero" fill-opacity="1" /><path clip-path="url(#clip040)" d="M29.4065 764.541 L34.9447 764.541 Q33.6716 767.024 33.035 769.698 Q32.3984 772.371 32.3984 775.236 Q32.3984 779.596 33.7352 781.792 Q35.072 783.957 37.7456 783.957 Q39.7826 783.957 40.9603 782.397 Q42.1061 780.838 43.1565 776.127 L43.6021 774.122 Q44.9389 767.883 47.3897 765.273 Q49.8086 762.632 54.1691 762.632 Q59.1344 762.632 62.0308 766.578 Q64.9272 770.493 64.9272 777.368 Q64.9272 780.233 64.3543 783.352 Q63.8132 786.439 62.6992 789.877 L56.6518 789.877 Q58.3387 786.63 59.198 783.479 Q60.0256 780.328 60.0256 777.241 Q60.0256 773.103 58.6251 770.875 Q57.1929 768.647 54.6147 768.647 Q52.2276 768.647 50.9545 770.27 Q49.6813 771.862 48.5037 777.305 L48.0262 779.342 Q46.8804 784.784 44.5251 787.203 Q42.138 789.622 38.0002 789.622 Q32.9713 789.622 30.2341 786.057 Q27.4968 782.493 27.4968 775.936 Q27.4968 772.689 27.9743 769.825 Q28.4517 766.96 29.4065 764.541 Z" fill="#000000" fill-rule="nonzero" fill-opacity="1" /><path clip-path="url(#clip040)" d="M28.3562 732.585 L28.3562 726.729 L64.0042 726.729 L64.0042 732.585 L28.3562 732.585 M14.479 732.585 L14.479 726.729 L21.895 726.729 L21.895 732.585 L14.479 732.585 Z" fill="#000000" fill-rule="nonzero" fill-opacity="1" /><path clip-path="url(#clip040)" d="M42.4881 684.843 L64.0042 684.843 L64.0042 690.699 L42.679 690.699 Q37.6183 690.699 35.1038 692.672 Q32.5894 694.646 32.5894 698.593 Q32.5894 703.335 35.6131 706.072 Q38.6368 708.81 43.8567 708.81 L64.0042 708.81 L64.0042 714.698 L28.3562 714.698 L28.3562 708.81 L33.8944 708.81 Q30.6797 706.709 29.0883 703.876 Q27.4968 701.012 27.4968 697.288 Q27.4968 691.145 31.3163 687.994 Q35.1038 684.843 42.4881 684.843 Z" fill="#000000" fill-rule="nonzero" fill-opacity="1" /><path clip-path="url(#clip040)" d="M46.212 626.851 Q39.7508 626.851 36.0905 629.525 Q32.3984 632.166 32.3984 636.813 Q32.3984 641.46 36.0905 644.134 Q39.7508 646.776 46.212 646.776 Q52.6732 646.776 56.3653 644.134 Q60.0256 641.46 60.0256 636.813 Q60.0256 632.166 56.3653 629.525 Q52.6732 626.851 46.212 626.851 M33.7671 646.776 Q30.5842 644.93 29.0564 642.129 Q27.4968 639.296 27.4968 635.381 Q27.4968 628.888 32.6531 624.846 Q37.8093 620.772 46.212 620.772 Q54.6147 620.772 59.771 624.846 Q64.9272 628.888 64.9272 635.381 Q64.9272 639.296 63.3994 642.129 Q61.8398 644.93 58.657 646.776 L64.0042 646.776 L64.0042 652.664 L14.479 652.664 L14.479 646.776 L33.7671 646.776 Z" fill="#000000" fill-rule="nonzero" fill-opacity="1" /><path clip-path="url(#clip040)" d="M28.3562 611.064 L28.3562 605.208 L64.0042 605.208 L64.0042 611.064 L28.3562 611.064 M14.479 611.064 L14.479 605.208 L21.895 605.208 L21.895 611.064 L14.479 611.064 Z" fill="#000000" fill-rule="nonzero" fill-opacity="1" /><path clip-path="url(#clip040)" d="M42.4881 563.321 L64.0042 563.321 L64.0042 569.178 L42.679 569.178 Q37.6183 569.178 35.1038 571.151 Q32.5894 573.125 32.5894 577.071 Q32.5894 581.814 35.6131 584.551 Q38.6368 587.288 43.8567 587.288 L64.0042 587.288 L64.0042 593.176 L28.3562 593.176 L28.3562 587.288 L33.8944 587.288 Q30.6797 585.188 29.0883 582.355 Q27.4968 579.49 27.4968 575.766 Q27.4968 569.623 31.3163 566.472 Q35.1038 563.321 42.4881 563.321 Z" fill="#000000" fill-rule="nonzero" fill-opacity="1" /><path clip-path="url(#clip040)" d="M896.209 12.096 L904.999 12.096 L920.028 34.5785 L935.138 12.096 L943.929 12.096 L924.484 41.141 L945.225 72.576 L936.434 72.576 L919.421 46.8528 L902.285 72.576 L893.454 72.576 L915.046 40.2903 L896.209 12.096 Z" fill="#000000" fill-rule="nonzero" fill-opacity="1" /><path clip-path="url(#clip040)" d="M1002.63 49.7694 Q993.593 49.7694 990.109 51.8354 Q986.625 53.9013 986.625 58.8839 Q986.625 62.8538 989.218 65.2034 Q991.851 67.5124 996.347 67.5124 Q1002.55 67.5124 1006.27 63.1374 Q1010.04 58.7219 1010.04 51.4303 L1010.04 49.7694 L1002.63 49.7694 M1017.49 46.6907 L1017.49 72.576 L1010.04 72.576 L1010.04 65.6895 Q1007.49 69.8214 1003.68 71.8063 Q999.872 73.7508 994.362 73.7508 Q987.395 73.7508 983.263 69.8619 Q979.172 65.9325 979.172 59.3701 Q979.172 51.7138 984.276 47.825 Q989.42 43.9361 999.588 43.9361 L1010.04 43.9361 L1010.04 43.2069 Q1010.04 38.0623 1006.64 35.2672 Q1003.27 32.4315 997.158 32.4315 Q993.269 32.4315 989.582 33.3632 Q985.896 34.295 982.493 36.1584 L982.493 29.2718 Q986.585 27.692 990.433 26.9223 Q994.281 26.1121 997.927 26.1121 Q1007.77 26.1121 1012.63 31.2163 Q1017.49 36.3204 1017.49 46.6907 Z" fill="#000000" fill-rule="nonzero" fill-opacity="1" /><path clip-path="url(#clip040)" d="M1070.56 45.1919 L1070.56 72.576 L1063.11 72.576 L1063.11 45.4349 Q1063.11 38.994 1060.59 35.7938 Q1058.08 32.5936 1053.06 32.5936 Q1047.02 32.5936 1043.54 36.4419 Q1040.06 40.2903 1040.06 46.9338 L1040.06 72.576 L1032.56 72.576 L1032.56 27.2059 L1040.06 27.2059 L1040.06 34.2544 Q1042.73 30.163 1046.34 28.1376 Q1049.98 26.1121 1054.72 26.1121 Q1062.54 26.1121 1066.55 30.9732 Q1070.56 35.7938 1070.56 45.1919 Z" fill="#000000" fill-rule="nonzero" fill-opacity="1" /><path clip-path="url(#clip040)" d="M1115.28 34.0924 L1115.28 9.54393 L1122.74 9.54393 L1122.74 72.576 L1115.28 72.576 L1115.28 65.7705 Q1112.93 69.8214 1109.33 71.8063 Q1105.76 73.7508 1100.74 73.7508 Q1092.52 73.7508 1087.33 67.1883 Q1082.19 60.6258 1082.19 49.9314 Q1082.19 39.2371 1087.33 32.6746 Q1092.52 26.1121 1100.74 26.1121 Q1105.76 26.1121 1109.33 28.0971 Q1112.93 30.0415 1115.28 34.0924 M1089.88 49.9314 Q1089.88 58.1548 1093.24 62.8538 Q1096.65 67.5124 1102.56 67.5124 Q1108.48 67.5124 1111.88 62.8538 Q1115.28 58.1548 1115.28 49.9314 Q1115.28 41.7081 1111.88 37.0496 Q1108.48 32.3505 1102.56 32.3505 Q1096.65 32.3505 1093.24 37.0496 Q1089.88 41.7081 1089.88 49.9314 Z" fill="#000000" fill-rule="nonzero" fill-opacity="1" /><path clip-path="url(#clip040)" d="M1156.48 12.096 L1165.27 12.096 L1182.04 36.9686 L1198.69 12.096 L1207.48 12.096 L1186.09 43.7741 L1186.09 72.576 L1177.87 72.576 L1177.87 43.7741 L1156.48 12.096 Z" fill="#000000" fill-rule="nonzero" fill-opacity="1" /><path clip-path="url(#clip040)" d="M1279.22 45.1919 L1279.22 72.576 L1271.77 72.576 L1271.77 45.4349 Q1271.77 38.994 1269.26 35.7938 Q1266.75 32.5936 1261.72 32.5936 Q1255.69 32.5936 1252.2 36.4419 Q1248.72 40.2903 1248.72 46.9338 L1248.72 72.576 L1241.22 72.576 L1241.22 9.54393 L1248.72 9.54393 L1248.72 34.2544 Q1251.39 30.163 1255 28.1376 Q1258.64 26.1121 1263.38 26.1121 Q1271.2 26.1121 1275.21 30.9732 Q1279.22 35.7938 1279.22 45.1919 Z" fill="#000000" fill-rule="nonzero" fill-opacity="1" /><path clip-path="url(#clip040)" d="M1294.09 27.2059 L1301.54 27.2059 L1301.54 72.576 L1294.09 72.576 L1294.09 27.2059 M1294.09 9.54393 L1301.54 9.54393 L1301.54 18.9825 L1294.09 18.9825 L1294.09 9.54393 Z" fill="#000000" fill-rule="nonzero" fill-opacity="1" /><path clip-path="url(#clip040)" d="M1346.06 28.5427 L1346.06 35.5912 Q1342.9 33.9709 1339.5 33.1607 Q1336.1 32.3505 1332.45 32.3505 Q1326.9 32.3505 1324.11 34.0519 Q1321.35 35.7533 1321.35 39.156 Q1321.35 41.7486 1323.34 43.2475 Q1325.32 44.7058 1331.32 46.0426 L1333.87 46.6097 Q1341.81 48.3111 1345.13 51.4303 Q1348.49 54.509 1348.49 60.0587 Q1348.49 66.3781 1343.47 70.0644 Q1338.49 73.7508 1329.74 73.7508 Q1326.09 73.7508 1322.12 73.0216 Q1318.19 72.3329 1313.82 70.9151 L1313.82 63.2184 Q1317.95 65.3654 1321.96 66.4591 Q1325.97 67.5124 1329.9 67.5124 Q1335.16 67.5124 1338 65.73 Q1340.84 63.9071 1340.84 60.6258 Q1340.84 57.5877 1338.77 55.9673 Q1336.74 54.3469 1329.82 52.8481 L1327.23 52.2405 Q1320.3 50.7821 1317.22 47.7845 Q1314.14 44.7463 1314.14 39.4801 Q1314.14 33.0797 1318.68 29.5959 Q1323.21 26.1121 1331.56 26.1121 Q1335.69 26.1121 1339.34 26.7198 Q1342.98 27.3274 1346.06 28.5427 Z" fill="#000000" fill-rule="nonzero" fill-opacity="1" /><path clip-path="url(#clip040)" d="M1367.73 14.324 L1367.73 27.2059 L1383.09 27.2059 L1383.09 32.9987 L1367.73 32.9987 L1367.73 57.6282 Q1367.73 63.1779 1369.23 64.7578 Q1370.77 66.3376 1375.43 66.3376 L1383.09 66.3376 L1383.09 72.576 L1375.43 72.576 Q1366.8 72.576 1363.52 69.3758 Q1360.24 66.1351 1360.24 57.6282 L1360.24 32.9987 L1354.77 32.9987 L1354.77 27.2059 L1360.24 27.2059 L1360.24 14.324 L1367.73 14.324 Z" fill="#000000" fill-rule="nonzero" fill-opacity="1" /><path clip-path="url(#clip040)" d="M1410.47 32.4315 Q1404.48 32.4315 1400.99 37.1306 Q1397.51 41.7891 1397.51 49.9314 Q1397.51 58.0738 1400.95 62.7728 Q1404.44 67.4314 1410.47 67.4314 Q1416.43 67.4314 1419.91 62.7323 Q1423.39 58.0333 1423.39 49.9314 Q1423.39 41.8701 1419.91 37.1711 Q1416.43 32.4315 1410.47 32.4315 M1410.47 26.1121 Q1420.19 26.1121 1425.74 32.4315 Q1431.29 38.7509 1431.29 49.9314 Q1431.29 61.0714 1425.74 67.4314 Q1420.19 73.7508 1410.47 73.7508 Q1400.71 73.7508 1395.16 67.4314 Q1389.65 61.0714 1389.65 49.9314 Q1389.65 38.7509 1395.16 32.4315 Q1400.71 26.1121 1410.47 26.1121 Z" fill="#000000" fill-rule="nonzero" fill-opacity="1" /><path clip-path="url(#clip040)" d="M1473.5 49.3643 Q1473.5 41.2625 1470.14 36.8065 Q1466.82 32.3505 1460.78 32.3505 Q1454.79 32.3505 1451.43 36.8065 Q1448.1 41.2625 1448.1 49.3643 Q1448.1 57.4256 1451.43 61.8816 Q1454.79 66.3376 1460.78 66.3376 Q1466.82 66.3376 1470.14 61.8816 Q1473.5 57.4256 1473.5 49.3643 M1480.96 66.9452 Q1480.96 78.5308 1475.81 84.1616 Q1470.67 89.8329 1460.05 89.8329 Q1456.12 89.8329 1452.64 89.2252 Q1449.16 88.6581 1445.88 87.4428 L1445.88 80.1917 Q1449.16 81.9741 1452.36 82.8248 Q1455.56 83.6755 1458.88 83.6755 Q1466.21 83.6755 1469.86 79.8271 Q1473.5 76.0193 1473.5 68.282 L1473.5 64.5957 Q1471.19 68.6061 1467.59 70.5911 Q1463.98 72.576 1458.96 72.576 Q1450.62 72.576 1445.51 66.2161 Q1440.41 59.8562 1440.41 49.3643 Q1440.41 38.832 1445.51 32.472 Q1450.62 26.1121 1458.96 26.1121 Q1463.98 26.1121 1467.59 28.0971 Q1471.19 30.082 1473.5 34.0924 L1473.5 27.2059 L1480.96 27.2059 L1480.96 66.9452 Z" fill="#000000" fill-rule="nonzero" fill-opacity="1" /><path clip-path="url(#clip040)" d="M1522.6 34.1734 Q1521.34 33.4443 1519.85 33.1202 Q1518.39 32.7556 1516.6 32.7556 Q1510.29 32.7556 1506.88 36.8875 Q1503.52 40.9789 1503.52 48.6757 L1503.52 72.576 L1496.03 72.576 L1496.03 27.2059 L1503.52 27.2059 L1503.52 34.2544 Q1505.87 30.1225 1509.64 28.1376 Q1513.4 26.1121 1518.79 26.1121 Q1519.56 26.1121 1520.49 26.2337 Q1521.43 26.3147 1522.56 26.5172 L1522.6 34.1734 Z" fill="#000000" fill-rule="nonzero" fill-opacity="1" /><path clip-path="url(#clip040)" d="M1551.04 49.7694 Q1542 49.7694 1538.52 51.8354 Q1535.04 53.9013 1535.04 58.8839 Q1535.04 62.8538 1537.63 65.2034 Q1540.26 67.5124 1544.76 67.5124 Q1550.96 67.5124 1554.68 63.1374 Q1558.45 58.7219 1558.45 51.4303 L1558.45 49.7694 L1551.04 49.7694 M1565.9 46.6907 L1565.9 72.576 L1558.45 72.576 L1558.45 65.6895 Q1555.9 69.8214 1552.09 71.8063 Q1548.28 73.7508 1542.77 73.7508 Q1535.81 73.7508 1531.67 69.8619 Q1527.58 65.9325 1527.58 59.3701 Q1527.58 51.7138 1532.69 47.825 Q1537.83 43.9361 1548 43.9361 L1558.45 43.9361 L1558.45 43.2069 Q1558.45 38.0623 1555.05 35.2672 Q1551.69 32.4315 1545.57 32.4315 Q1541.68 32.4315 1537.99 33.3632 Q1534.31 34.295 1530.9 36.1584 L1530.9 29.2718 Q1535 27.692 1538.84 26.9223 Q1542.69 26.1121 1546.34 26.1121 Q1556.18 26.1121 1561.04 31.2163 Q1565.9 36.3204 1565.9 46.6907 Z" fill="#000000" fill-rule="nonzero" fill-opacity="1" /><path clip-path="url(#clip040)" d="M1616.58 35.9153 Q1619.38 30.8922 1623.27 28.5022 Q1627.15 26.1121 1632.42 26.1121 Q1639.51 26.1121 1643.36 31.0947 Q1647.21 36.0368 1647.21 45.1919 L1647.21 72.576 L1639.71 72.576 L1639.71 45.4349 Q1639.71 38.913 1637.4 35.7533 Q1635.09 32.5936 1630.35 32.5936 Q1624.56 32.5936 1621.2 36.4419 Q1617.84 40.2903 1617.84 46.9338 L1617.84 72.576 L1610.34 72.576 L1610.34 45.4349 Q1610.34 38.8725 1608.03 35.7533 Q1605.72 32.5936 1600.9 32.5936 Q1595.19 32.5936 1591.83 36.4824 Q1588.47 40.3308 1588.47 46.9338 L1588.47 72.576 L1580.97 72.576 L1580.97 27.2059 L1588.47 27.2059 L1588.47 34.2544 Q1591.02 30.082 1594.58 28.0971 Q1598.15 26.1121 1603.05 26.1121 Q1607.99 26.1121 1611.44 28.6237 Q1614.92 31.1352 1616.58 35.9153 Z" fill="#000000" fill-rule="nonzero" fill-opacity="1" /><path clip-path="url(#clip040)" d="M1691 28.5427 L1691 35.5912 Q1687.84 33.9709 1684.43 33.1607 Q1681.03 32.3505 1677.39 32.3505 Q1671.84 32.3505 1669.04 34.0519 Q1666.29 35.7533 1666.29 39.156 Q1666.29 41.7486 1668.27 43.2475 Q1670.26 44.7058 1676.25 46.0426 L1678.8 46.6097 Q1686.74 48.3111 1690.06 51.4303 Q1693.43 54.509 1693.43 60.0587 Q1693.43 66.3781 1688.4 70.0644 Q1683.42 73.7508 1674.67 73.7508 Q1671.03 73.7508 1667.06 73.0216 Q1663.13 72.3329 1658.75 70.9151 L1658.75 63.2184 Q1662.88 65.3654 1666.89 66.4591 Q1670.9 67.5124 1674.83 67.5124 Q1680.1 67.5124 1682.94 65.73 Q1685.77 63.9071 1685.77 60.6258 Q1685.77 57.5877 1683.7 55.9673 Q1681.68 54.3469 1674.75 52.8481 L1672.16 52.2405 Q1665.23 50.7821 1662.15 47.7845 Q1659.08 44.7463 1659.08 39.4801 Q1659.08 33.0797 1663.61 29.5959 Q1668.15 26.1121 1676.49 26.1121 Q1680.63 26.1121 1684.27 26.7198 Q1687.92 27.3274 1691 28.5427 Z" fill="#000000" fill-rule="nonzero" fill-opacity="1" /><polyline clip-path="url(#clip042)" style="stroke:#009af9; stroke-linecap:round; stroke-linejoin:round; stroke-width:4; stroke-opacity:1; fill:none" points="294.087,1386.4 294.087,456.073 327.398,456.073 327.398,503.232 360.71,503.232 360.71,434.637 394.022,434.637 394.022,498.945 427.334,498.945 427.334,511.807 460.646,511.807 460.646,391.765 493.957,391.765 493.957,297.447 527.269,297.447 527.269,293.16 560.581,293.16 560.581,378.904 593.893,378.904 593.893,486.084 627.205,486.084 627.205,387.478 660.516,387.478 660.516,366.042 693.828,366.042 727.14,366.042 760.452,366.042 760.452,301.734 793.764,301.734 793.764,344.606 827.075,344.606 827.075,314.596 860.387,314.596 860.387,271.724 893.699,271.724 893.699,348.893 927.011,348.893 927.011,361.755 960.323,361.755 960.323,430.35 993.634,430.35 993.634,344.606 1026.95,344.606 1026.95,404.627 1060.26,404.627 1060.26,383.191 1093.57,383.191 1093.57,301.734 1126.88,301.734 1126.88,211.703 1160.19,211.703 1160.19,361.755 1193.51,361.755 1193.51,306.021 1226.82,306.021 1226.82,297.447 1260.13,297.447 1260.13,387.478 1293.44,387.478 1293.44,288.872 1326.75,288.872 1326.75,306.021 1360.06,306.021 1360.06,207.416 1393.38,207.416 1393.38,310.308 1426.69,310.308 1426.69,353.18 1460,353.18 1460,323.17 1493.31,323.17 1493.31,280.298 1526.62,280.298 1526.62,336.032 1559.94,336.032 1559.94,233.139 1593.25,233.139 1593.25,258.862 1626.56,258.862 1626.56,314.596 1659.87,314.596 1659.87,310.308 1693.18,310.308 1693.18,284.585 1726.49,284.585 1726.49,357.468 1759.81,357.468 1759.81,194.554 1793.12,194.554 1793.12,331.744 1826.43,331.744 1826.43,378.904 1859.74,378.904 1893.05,378.904 1893.05,327.457 1926.36,327.457 1926.36,468.935 1959.68,468.935 1959.68,340.319 1992.99,340.319 1992.99,451.786 2026.3,451.786 2026.3,438.924 2059.61,438.924 2059.61,211.703 2092.92,211.703 2092.92,314.596 2126.24,314.596 2126.24,426.063 2159.55,426.063 2159.55,456.073 2192.86,456.073 2192.86,408.914 2226.17,408.914 2226.17,533.243 2259.48,533.243 2259.48,400.34 2292.79,400.34 2292.79,1386.4 "/>
<polyline clip-path="url(#clip042)" style="stroke:#e26f46; stroke-linecap:round; stroke-linejoin:round; stroke-width:4; stroke-opacity:1; fill:none" points="294.087,1386.4 294.087,430.35 327.398,430.35 327.398,507.52 360.71,507.52 360.71,426.063 394.022,426.063 394.022,421.776 427.334,421.776 427.334,353.18 460.646,353.18 460.646,417.488 493.957,417.488 493.957,490.371 527.269,490.371 527.269,486.084 560.581,486.084 560.581,327.457 593.893,327.457 593.893,477.509 627.205,477.509 627.205,426.063 660.516,426.063 660.516,314.596 693.828,314.596 727.14,314.596 727.14,528.956 760.452,528.956 760.452,421.776 793.764,421.776 793.764,331.744 827.075,331.744 827.075,348.893 860.387,348.893 860.387,413.201 893.699,413.201 893.699,254.575 927.011,254.575 927.011,357.468 960.323,357.468 960.323,173.118 993.634,173.118 993.634,323.17 1026.95,323.17 1026.95,271.724 1060.26,271.724 1060.26,353.18 1093.57,353.18 1093.57,297.447 1126.88,297.447 1126.88,228.852 1160.19,228.852 1160.19,417.488 1193.51,417.488 1193.51,160.256 1226.82,160.256 1226.82,323.17 1260.13,323.17 1260.13,220.277 1293.44,220.277 1293.44,327.457 1326.75,327.457 1326.75,280.298 1360.06,280.298 1360.06,361.755 1393.38,361.755 1393.38,426.063 1426.69,426.063 1426.69,233.139 1460,233.139 1460,361.755 1493.31,361.755 1493.31,220.277 1526.62,220.277 1526.62,297.447 1559.94,297.447 1559.94,254.575 1593.25,254.575 1593.25,387.478 1626.56,387.478 1626.56,215.99 1659.87,215.99 1659.87,301.734 1693.18,301.734 1693.18,396.052 1726.49,396.052 1726.49,366.042 1759.81,366.042 1759.81,284.585 1793.12,284.585 1793.12,383.191 1826.43,383.191 1826.43,258.862 1859.74,258.862 1859.74,404.627 1893.05,404.627 1893.05,306.021 1926.36,306.021 1926.36,340.319 1959.68,340.319 1959.68,357.468 1992.99,357.468 1992.99,404.627 2026.3,404.627 2026.3,314.596 2059.61,314.596 2059.61,417.488 2092.92,417.488 2092.92,511.807 2126.24,511.807 2126.24,426.063 2159.55,426.063 2159.55,451.786 2192.86,451.786 2192.86,417.488 2226.17,417.488 2226.17,408.914 2259.48,408.914 2259.48,400.34 2292.79,400.34 2292.79,1386.4 "/>
<path clip-path="url(#clip040)" d="M2040.69 1379.86 L2282.13 1379.86 L2282.13 1224.34 L2040.69 1224.34  Z" fill="#ffffff" fill-rule="evenodd" fill-opacity="1"/>
<polyline clip-path="url(#clip040)" style="stroke:#000000; stroke-linecap:round; stroke-linejoin:round; stroke-width:4; stroke-opacity:1; fill:none" points="2040.69,1379.86 2282.13,1379.86 2282.13,1224.34 2040.69,1224.34 2040.69,1379.86 "/>
<polyline clip-path="url(#clip040)" style="stroke:#009af9; stroke-linecap:round; stroke-linejoin:round; stroke-width:4; stroke-opacity:1; fill:none" points="2064.23,1276.18 2205.47,1276.18 "/>
<path clip-path="url(#clip040)" d="M2230.59 1258.9 L2235.61 1258.9 L2244.2 1271.74 L2252.83 1258.9 L2257.85 1258.9 L2246.74 1275.49 L2258.59 1293.46 L2253.57 1293.46 L2243.85 1278.76 L2234.06 1293.46 L2229.01 1293.46 L2241.35 1275.01 L2230.59 1258.9 Z" fill="#000000" fill-rule="nonzero" fill-opacity="1" /><polyline clip-path="url(#clip040)" style="stroke:#e26f46; stroke-linecap:round; stroke-linejoin:round; stroke-width:4; stroke-opacity:1; fill:none" points="2064.23,1328.02 2205.47,1328.02 "/>
<path clip-path="url(#clip040)" d="M2229.01 1310.74 L2234.03 1310.74 L2243.62 1324.95 L2253.13 1310.74 L2258.15 1310.74 L2245.93 1328.84 L2245.93 1345.3 L2241.23 1345.3 L2241.23 1328.84 L2229.01 1310.74 Z" fill="#000000" fill-rule="nonzero" fill-opacity="1" /></svg>
