<?xml version="1.0" encoding="utf-8"?>
<svg xmlns="http://www.w3.org/2000/svg" xmlns:xlink="http://www.w3.org/1999/xlink" width="600" height="400" viewBox="0 0 2400 1600">
<defs>
  <clipPath id="clip190">
    <rect x="0" y="0" width="2400" height="1600"/>
  </clipPath>
</defs>
<path clip-path="url(#clip190)" d="M0 1600 L2400 1600 L2400 0 L0 0  Z" fill="#ffffff" fill-rule="evenodd" fill-opacity="1"/>
<defs>
  <clipPath id="clip191">
    <rect x="480" y="0" width="1681" height="1600"/>
  </clipPath>
</defs>
<path clip-path="url(#clip190)" d="M262.551 1423.18 L2352.76 1423.18 L2352.76 123.472 L262.551 123.472  Z" fill="#ffffff" fill-rule="evenodd" fill-opacity="1"/>
<defs>
  <clipPath id="clip192">
    <rect x="262" y="123" width="2091" height="1301"/>
  </clipPath>
</defs>
<polyline clip-path="url(#clip192)" style="stroke:#000000; stroke-linecap:round; stroke-linejoin:round; stroke-width:2; stroke-opacity:0.1; fill:none" points="321.708,1423.18 321.708,123.472 "/>
<polyline clip-path="url(#clip192)" style="stroke:#000000; stroke-linecap:round; stroke-linejoin:round; stroke-width:2; stroke-opacity:0.1; fill:none" points="644.969,1423.18 644.969,123.472 "/>
<polyline clip-path="url(#clip192)" style="stroke:#000000; stroke-linecap:round; stroke-linejoin:round; stroke-width:2; stroke-opacity:0.1; fill:none" points="968.23,1423.18 968.23,123.472 "/>
<polyline clip-path="url(#clip192)" style="stroke:#000000; stroke-linecap:round; stroke-linejoin:round; stroke-width:2; stroke-opacity:0.1; fill:none" points="1291.49,1423.18 1291.49,123.472 "/>
<polyline clip-path="url(#clip192)" style="stroke:#000000; stroke-linecap:round; stroke-linejoin:round; stroke-width:2; stroke-opacity:0.1; fill:none" points="1614.75,1423.18 1614.75,123.472 "/>
<polyline clip-path="url(#clip192)" style="stroke:#000000; stroke-linecap:round; stroke-linejoin:round; stroke-width:2; stroke-opacity:0.1; fill:none" points="1938.01,1423.18 1938.01,123.472 "/>
<polyline clip-path="url(#clip192)" style="stroke:#000000; stroke-linecap:round; stroke-linejoin:round; stroke-width:2; stroke-opacity:0.1; fill:none" points="2261.27,1423.18 2261.27,123.472 "/>
<polyline clip-path="url(#clip192)" style="stroke:#000000; stroke-linecap:round; stroke-linejoin:round; stroke-width:2; stroke-opacity:0.1; fill:none" points="262.551,1386.4 2352.76,1386.4 "/>
<polyline clip-path="url(#clip192)" style="stroke:#000000; stroke-linecap:round; stroke-linejoin:round; stroke-width:2; stroke-opacity:0.1; fill:none" points="262.551,992.645 2352.76,992.645 "/>
<polyline clip-path="url(#clip192)" style="stroke:#000000; stroke-linecap:round; stroke-linejoin:round; stroke-width:2; stroke-opacity:0.1; fill:none" points="262.551,598.894 2352.76,598.894 "/>
<polyline clip-path="url(#clip192)" style="stroke:#000000; stroke-linecap:round; stroke-linejoin:round; stroke-width:2; stroke-opacity:0.1; fill:none" points="262.551,205.144 2352.76,205.144 "/>
<polyline clip-path="url(#clip190)" style="stroke:#000000; stroke-linecap:round; stroke-linejoin:round; stroke-width:4; stroke-opacity:1; fill:none" points="262.551,1423.18 2352.76,1423.18 "/>
<polyline clip-path="url(#clip190)" style="stroke:#000000; stroke-linecap:round; stroke-linejoin:round; stroke-width:4; stroke-opacity:1; fill:none" points="321.708,1423.18 321.708,1404.28 "/>
<polyline clip-path="url(#clip190)" style="stroke:#000000; stroke-linecap:round; stroke-linejoin:round; stroke-width:4; stroke-opacity:1; fill:none" points="644.969,1423.18 644.969,1404.28 "/>
<polyline clip-path="url(#clip190)" style="stroke:#000000; stroke-linecap:round; stroke-linejoin:round; stroke-width:4; stroke-opacity:1; fill:none" points="968.23,1423.18 968.23,1404.28 "/>
<polyline clip-path="url(#clip190)" style="stroke:#000000; stroke-linecap:round; stroke-linejoin:round; stroke-width:4; stroke-opacity:1; fill:none" points="1291.49,1423.18 1291.49,1404.28 "/>
<polyline clip-path="url(#clip190)" style="stroke:#000000; stroke-linecap:round; stroke-linejoin:round; stroke-width:4; stroke-opacity:1; fill:none" points="1614.75,1423.18 1614.75,1404.28 "/>
<polyline clip-path="url(#clip190)" style="stroke:#000000; stroke-linecap:round; stroke-linejoin:round; stroke-width:4; stroke-opacity:1; fill:none" points="1938.01,1423.18 1938.01,1404.28 "/>
<polyline clip-path="url(#clip190)" style="stroke:#000000; stroke-linecap:round; stroke-linejoin:round; stroke-width:4; stroke-opacity:1; fill:none" points="2261.27,1423.18 2261.27,1404.28 "/>
<path clip-path="url(#clip190)" d="M276.268 1468.75 L305.944 1468.75 L305.944 1472.69 L276.268 1472.69 L276.268 1468.75 Z" fill="#000000" fill-rule="nonzero" fill-opacity="1" /><path clip-path="url(#clip190)" d="M316.847 1481.64 L324.486 1481.64 L324.486 1455.28 L316.176 1456.95 L316.176 1452.69 L324.439 1451.02 L329.115 1451.02 L329.115 1481.64 L336.754 1481.64 L336.754 1485.58 L316.847 1485.58 L316.847 1481.64 Z" fill="#000000" fill-rule="nonzero" fill-opacity="1" /><path clip-path="url(#clip190)" d="M346.245 1451.02 L364.601 1451.02 L364.601 1454.96 L350.527 1454.96 L350.527 1463.43 Q351.546 1463.08 352.564 1462.92 Q353.583 1462.73 354.601 1462.73 Q360.388 1462.73 363.768 1465.9 Q367.148 1469.08 367.148 1474.49 Q367.148 1480.07 363.675 1483.17 Q360.203 1486.25 353.884 1486.25 Q351.708 1486.25 349.439 1485.88 Q347.194 1485.51 344.787 1484.77 L344.787 1480.07 Q346.87 1481.2 349.092 1481.76 Q351.314 1482.32 353.791 1482.32 Q357.796 1482.32 360.134 1480.21 Q362.472 1478.1 362.472 1474.49 Q362.472 1470.88 360.134 1468.77 Q357.796 1466.67 353.791 1466.67 Q351.916 1466.67 350.041 1467.08 Q348.189 1467.5 346.245 1468.38 L346.245 1451.02 Z" fill="#000000" fill-rule="nonzero" fill-opacity="1" /><path clip-path="url(#clip190)" d="M599.032 1468.75 L628.707 1468.75 L628.707 1472.69 L599.032 1472.69 L599.032 1468.75 Z" fill="#000000" fill-rule="nonzero" fill-opacity="1" /><path clip-path="url(#clip190)" d="M639.61 1481.64 L647.249 1481.64 L647.249 1455.28 L638.939 1456.95 L638.939 1452.69 L647.203 1451.02 L651.878 1451.02 L651.878 1481.64 L659.517 1481.64 L659.517 1485.58 L639.61 1485.58 L639.61 1481.64 Z" fill="#000000" fill-rule="nonzero" fill-opacity="1" /><path clip-path="url(#clip190)" d="M678.962 1454.1 Q675.351 1454.1 673.522 1457.66 Q671.716 1461.2 671.716 1468.33 Q671.716 1475.44 673.522 1479.01 Q675.351 1482.55 678.962 1482.55 Q682.596 1482.55 684.401 1479.01 Q686.23 1475.44 686.23 1468.33 Q686.23 1461.2 684.401 1457.66 Q682.596 1454.1 678.962 1454.1 M678.962 1450.39 Q684.772 1450.39 687.827 1455 Q690.906 1459.58 690.906 1468.33 Q690.906 1477.06 687.827 1481.67 Q684.772 1486.25 678.962 1486.25 Q673.152 1486.25 670.073 1481.67 Q667.017 1477.06 667.017 1468.33 Q667.017 1459.58 670.073 1455 Q673.152 1450.39 678.962 1450.39 Z" fill="#000000" fill-rule="nonzero" fill-opacity="1" /><path clip-path="url(#clip190)" d="M937.871 1468.75 L967.547 1468.75 L967.547 1472.69 L937.871 1472.69 L937.871 1468.75 Z" fill="#000000" fill-rule="nonzero" fill-opacity="1" /><path clip-path="url(#clip190)" d="M977.686 1451.02 L996.042 1451.02 L996.042 1454.96 L981.968 1454.96 L981.968 1463.43 Q982.987 1463.08 984.005 1462.92 Q985.024 1462.73 986.042 1462.73 Q991.829 1462.73 995.209 1465.9 Q998.588 1469.08 998.588 1474.49 Q998.588 1480.07 995.116 1483.17 Q991.644 1486.25 985.324 1486.25 Q983.149 1486.25 980.88 1485.88 Q978.635 1485.51 976.227 1484.77 L976.227 1480.07 Q978.311 1481.2 980.533 1481.76 Q982.755 1482.32 985.232 1482.32 Q989.236 1482.32 991.574 1480.21 Q993.912 1478.1 993.912 1474.49 Q993.912 1470.88 991.574 1468.77 Q989.236 1466.67 985.232 1466.67 Q983.357 1466.67 981.482 1467.08 Q979.63 1467.5 977.686 1468.38 L977.686 1451.02 Z" fill="#000000" fill-rule="nonzero" fill-opacity="1" /><path clip-path="url(#clip190)" d="M1291.49 1454.1 Q1287.88 1454.1 1286.05 1457.66 Q1284.25 1461.2 1284.25 1468.33 Q1284.25 1475.44 1286.05 1479.01 Q1287.88 1482.55 1291.49 1482.55 Q1295.12 1482.55 1296.93 1479.01 Q1298.76 1475.44 1298.76 1468.33 Q1298.76 1461.2 1296.93 1457.66 Q1295.12 1454.1 1291.49 1454.1 M1291.49 1450.39 Q1297.3 1450.39 1300.36 1455 Q1303.43 1459.58 1303.43 1468.33 Q1303.43 1477.06 1300.36 1481.67 Q1297.3 1486.25 1291.49 1486.25 Q1285.68 1486.25 1282.6 1481.67 Q1279.55 1477.06 1279.55 1468.33 Q1279.55 1459.58 1282.6 1455 Q1285.68 1450.39 1291.49 1450.39 Z" fill="#000000" fill-rule="nonzero" fill-opacity="1" /><path clip-path="url(#clip190)" d="M1605.03 1451.02 L1623.39 1451.02 L1623.39 1454.96 L1609.31 1454.96 L1609.31 1463.43 Q1610.33 1463.08 1611.35 1462.92 Q1612.37 1462.73 1613.39 1462.73 Q1619.17 1462.73 1622.55 1465.9 Q1625.93 1469.08 1625.93 1474.49 Q1625.93 1480.07 1622.46 1483.17 Q1618.99 1486.25 1612.67 1486.25 Q1610.49 1486.25 1608.22 1485.88 Q1605.98 1485.51 1603.57 1484.77 L1603.57 1480.07 Q1605.65 1481.2 1607.88 1481.76 Q1610.1 1482.32 1612.58 1482.32 Q1616.58 1482.32 1618.92 1480.21 Q1621.26 1478.1 1621.26 1474.49 Q1621.26 1470.88 1618.92 1468.77 Q1616.58 1466.67 1612.58 1466.67 Q1610.7 1466.67 1608.83 1467.08 Q1606.97 1467.5 1605.03 1468.38 L1605.03 1451.02 Z" fill="#000000" fill-rule="nonzero" fill-opacity="1" /><path clip-path="url(#clip190)" d="M1912.7 1481.64 L1920.34 1481.64 L1920.34 1455.28 L1912.03 1456.95 L1912.03 1452.69 L1920.29 1451.02 L1924.97 1451.02 L1924.97 1481.64 L1932.61 1481.64 L1932.61 1485.58 L1912.7 1485.58 L1912.7 1481.64 Z" fill="#000000" fill-rule="nonzero" fill-opacity="1" /><path clip-path="url(#clip190)" d="M1952.05 1454.1 Q1948.44 1454.1 1946.61 1457.66 Q1944.81 1461.2 1944.81 1468.33 Q1944.81 1475.44 1946.61 1479.01 Q1948.44 1482.55 1952.05 1482.55 Q1955.69 1482.55 1957.49 1479.01 Q1959.32 1475.44 1959.32 1468.33 Q1959.32 1461.2 1957.49 1457.66 Q1955.69 1454.1 1952.05 1454.1 M1952.05 1450.39 Q1957.86 1450.39 1960.92 1455 Q1964 1459.58 1964 1468.33 Q1964 1477.06 1960.92 1481.67 Q1957.86 1486.25 1952.05 1486.25 Q1946.24 1486.25 1943.16 1481.67 Q1940.11 1477.06 1940.11 1468.33 Q1940.11 1459.58 1943.16 1455 Q1946.24 1450.39 1952.05 1450.39 Z" fill="#000000" fill-rule="nonzero" fill-opacity="1" /><path clip-path="url(#clip190)" d="M2236.46 1481.64 L2244.1 1481.64 L2244.1 1455.28 L2235.79 1456.95 L2235.79 1452.69 L2244.05 1451.02 L2248.73 1451.02 L2248.73 1481.64 L2256.37 1481.64 L2256.37 1485.58 L2236.46 1485.58 L2236.46 1481.64 Z" fill="#000000" fill-rule="nonzero" fill-opacity="1" /><path clip-path="url(#clip190)" d="M2265.86 1451.02 L2284.21 1451.02 L2284.21 1454.96 L2270.14 1454.96 L2270.14 1463.43 Q2271.16 1463.08 2272.18 1462.92 Q2273.19 1462.73 2274.21 1462.73 Q2280 1462.73 2283.38 1465.9 Q2286.76 1469.08 2286.76 1474.49 Q2286.76 1480.07 2283.29 1483.17 Q2279.81 1486.25 2273.5 1486.25 Q2271.32 1486.25 2269.05 1485.88 Q2266.81 1485.51 2264.4 1484.77 L2264.4 1480.07 Q2266.48 1481.2 2268.7 1481.76 Q2270.93 1482.32 2273.4 1482.32 Q2277.41 1482.32 2279.75 1480.21 Q2282.08 1478.1 2282.08 1474.49 Q2282.08 1470.88 2279.75 1468.77 Q2277.41 1466.67 2273.4 1466.67 Q2271.53 1466.67 2269.65 1467.08 Q2267.8 1467.5 2265.86 1468.38 L2265.86 1451.02 Z" fill="#000000" fill-rule="nonzero" fill-opacity="1" /><path clip-path="url(#clip190)" d="M1107.72 1525.81 L1107.72 1543.66 L1115.81 1543.66 Q1120.29 1543.66 1122.75 1541.34 Q1125.2 1539.02 1125.2 1534.72 Q1125.2 1530.45 1122.75 1528.13 Q1120.29 1525.81 1115.81 1525.81 L1107.72 1525.81 M1101.29 1520.52 L1115.81 1520.52 Q1123.8 1520.52 1127.87 1524.15 Q1131.98 1527.75 1131.98 1534.72 Q1131.98 1541.75 1127.87 1545.35 Q1123.8 1548.95 1115.81 1548.95 L1107.72 1548.95 L1107.72 1568.04 L1101.29 1568.04 L1101.29 1520.52 Z" fill="#000000" fill-rule="nonzero" fill-opacity="1" /><path clip-path="url(#clip190)" d="M1151.84 1536.5 Q1147.13 1536.5 1144.39 1540.19 Q1141.65 1543.85 1141.65 1550.25 Q1141.65 1556.65 1144.36 1560.34 Q1147.09 1564 1151.84 1564 Q1156.52 1564 1159.25 1560.31 Q1161.99 1556.62 1161.99 1550.25 Q1161.99 1543.92 1159.25 1540.23 Q1156.52 1536.5 1151.84 1536.5 M1151.84 1531.54 Q1159.48 1531.54 1163.84 1536.5 Q1168.2 1541.47 1168.2 1550.25 Q1168.2 1559 1163.84 1564 Q1159.48 1568.97 1151.84 1568.97 Q1144.17 1568.97 1139.81 1564 Q1135.48 1559 1135.48 1550.25 Q1135.48 1541.47 1139.81 1536.5 Q1144.17 1531.54 1151.84 1531.54 Z" fill="#000000" fill-rule="nonzero" fill-opacity="1" /><path clip-path="url(#clip190)" d="M1200.63 1533.45 L1200.63 1538.98 Q1198.15 1537.71 1195.47 1537.07 Q1192.8 1536.44 1189.94 1536.44 Q1185.58 1536.44 1183.38 1537.77 Q1181.21 1539.11 1181.21 1541.79 Q1181.21 1543.82 1182.77 1545 Q1184.33 1546.15 1189.04 1547.2 L1191.05 1547.64 Q1197.29 1548.98 1199.9 1551.43 Q1202.54 1553.85 1202.54 1558.21 Q1202.54 1563.17 1198.59 1566.07 Q1194.68 1568.97 1187.8 1568.97 Q1184.94 1568.97 1181.82 1568.39 Q1178.73 1567.85 1175.29 1566.74 L1175.29 1560.69 Q1178.54 1562.38 1181.69 1563.24 Q1184.84 1564.07 1187.93 1564.07 Q1192.07 1564.07 1194.3 1562.66 Q1196.52 1561.23 1196.52 1558.65 Q1196.52 1556.27 1194.9 1554.99 Q1193.31 1553.72 1187.87 1552.54 L1185.83 1552.07 Q1180.39 1550.92 1177.97 1548.56 Q1175.55 1546.18 1175.55 1542.04 Q1175.55 1537.01 1179.11 1534.27 Q1182.68 1531.54 1189.24 1531.54 Q1192.48 1531.54 1195.35 1532.01 Q1198.21 1532.49 1200.63 1533.45 Z" fill="#000000" fill-rule="nonzero" fill-opacity="1" /><path clip-path="url(#clip190)" d="M1211.87 1532.4 L1217.72 1532.4 L1217.72 1568.04 L1211.87 1568.04 L1211.87 1532.4 M1211.87 1518.52 L1217.72 1518.52 L1217.72 1525.93 L1211.87 1525.93 L1211.87 1518.52 Z" fill="#000000" fill-rule="nonzero" fill-opacity="1" /><path clip-path="url(#clip190)" d="M1235.77 1522.27 L1235.77 1532.4 L1247.83 1532.4 L1247.83 1536.95 L1235.77 1536.95 L1235.77 1556.3 Q1235.77 1560.66 1236.95 1561.9 Q1238.16 1563.14 1241.82 1563.14 L1247.83 1563.14 L1247.83 1568.04 L1241.82 1568.04 Q1235.04 1568.04 1232.46 1565.53 Q1229.88 1562.98 1229.88 1556.3 L1229.88 1536.95 L1225.58 1536.95 L1225.58 1532.4 L1229.88 1532.4 L1229.88 1522.27 L1235.77 1522.27 Z" fill="#000000" fill-rule="nonzero" fill-opacity="1" /><path clip-path="url(#clip190)" d="M1255.53 1532.4 L1261.39 1532.4 L1261.39 1568.04 L1255.53 1568.04 L1255.53 1532.4 M1255.53 1518.52 L1261.39 1518.52 L1261.39 1525.93 L1255.53 1525.93 L1255.53 1518.52 Z" fill="#000000" fill-rule="nonzero" fill-opacity="1" /><path clip-path="url(#clip190)" d="M1287.46 1536.5 Q1282.75 1536.5 1280.01 1540.19 Q1277.27 1543.85 1277.27 1550.25 Q1277.27 1556.65 1279.98 1560.34 Q1282.72 1564 1287.46 1564 Q1292.14 1564 1294.87 1560.31 Q1297.61 1556.62 1297.61 1550.25 Q1297.61 1543.92 1294.87 1540.23 Q1292.14 1536.5 1287.46 1536.5 M1287.46 1531.54 Q1295.1 1531.54 1299.46 1536.5 Q1303.82 1541.47 1303.82 1550.25 Q1303.82 1559 1299.46 1564 Q1295.1 1568.97 1287.46 1568.97 Q1279.79 1568.97 1275.43 1564 Q1271.1 1559 1271.1 1550.25 Q1271.1 1541.47 1275.43 1536.5 Q1279.79 1531.54 1287.46 1531.54 Z" fill="#000000" fill-rule="nonzero" fill-opacity="1" /><path clip-path="url(#clip190)" d="M1343.16 1546.53 L1343.16 1568.04 L1337.3 1568.04 L1337.3 1546.72 Q1337.3 1541.66 1335.33 1539.14 Q1333.36 1536.63 1329.41 1536.63 Q1324.67 1536.63 1321.93 1539.65 Q1319.19 1542.68 1319.19 1547.9 L1319.19 1568.04 L1313.3 1568.04 L1313.3 1532.4 L1319.19 1532.4 L1319.19 1537.93 Q1321.29 1534.72 1324.12 1533.13 Q1326.99 1531.54 1330.71 1531.54 Q1336.86 1531.54 1340.01 1535.36 Q1343.16 1539.14 1343.16 1546.53 Z" fill="#000000" fill-rule="nonzero" fill-opacity="1" /><path clip-path="url(#clip190)" d="M1389.63 1518.58 Q1385.36 1525.9 1383.29 1533.06 Q1381.23 1540.23 1381.23 1547.58 Q1381.23 1554.93 1383.29 1562.16 Q1385.39 1569.35 1389.63 1576.64 L1384.54 1576.64 Q1379.76 1569.16 1377.37 1561.93 Q1375.02 1554.71 1375.02 1547.58 Q1375.02 1540.48 1377.37 1533.29 Q1379.73 1526.09 1384.54 1518.58 L1389.63 1518.58 Z" fill="#000000" fill-rule="nonzero" fill-opacity="1" /><path clip-path="url(#clip190)" d="M1426.64 1533.76 L1426.64 1539.24 Q1424.16 1537.87 1421.65 1537.2 Q1419.16 1536.5 1416.62 1536.5 Q1410.92 1536.5 1407.77 1540.13 Q1404.62 1543.73 1404.62 1550.25 Q1404.62 1556.78 1407.77 1560.4 Q1410.92 1564 1416.62 1564 Q1419.16 1564 1421.65 1563.33 Q1424.16 1562.63 1426.64 1561.26 L1426.64 1566.68 Q1424.19 1567.82 1421.55 1568.39 Q1418.94 1568.97 1415.98 1568.97 Q1407.93 1568.97 1403.19 1563.91 Q1398.44 1558.85 1398.44 1550.25 Q1398.44 1541.53 1403.22 1536.53 Q1408.02 1531.54 1416.36 1531.54 Q1419.07 1531.54 1421.65 1532.11 Q1424.23 1532.65 1426.64 1533.76 Z" fill="#000000" fill-rule="nonzero" fill-opacity="1" /><path clip-path="url(#clip190)" d="M1464.58 1539.24 Q1466.78 1535.29 1469.84 1533.41 Q1472.89 1531.54 1477.03 1531.54 Q1482.6 1531.54 1485.62 1535.45 Q1488.65 1539.33 1488.65 1546.53 L1488.65 1568.04 L1482.76 1568.04 L1482.76 1546.72 Q1482.76 1541.59 1480.94 1539.11 Q1479.13 1536.63 1475.41 1536.63 Q1470.85 1536.63 1468.21 1539.65 Q1465.57 1542.68 1465.57 1547.9 L1465.57 1568.04 L1459.68 1568.04 L1459.68 1546.72 Q1459.68 1541.56 1457.87 1539.11 Q1456.05 1536.63 1452.27 1536.63 Q1447.78 1536.63 1445.14 1539.68 Q1442.5 1542.71 1442.5 1547.9 L1442.5 1568.04 L1436.61 1568.04 L1436.61 1532.4 L1442.5 1532.4 L1442.5 1537.93 Q1444.5 1534.66 1447.3 1533.1 Q1450.1 1531.54 1453.95 1531.54 Q1457.84 1531.54 1460.54 1533.51 Q1463.28 1535.48 1464.58 1539.24 Z" fill="#000000" fill-rule="nonzero" fill-opacity="1" /><path clip-path="url(#clip190)" d="M1499.4 1518.58 L1504.5 1518.58 Q1509.27 1526.09 1511.63 1533.29 Q1514.01 1540.48 1514.01 1547.58 Q1514.01 1554.71 1511.63 1561.93 Q1509.27 1569.16 1504.5 1576.64 L1499.4 1576.64 Q1503.64 1569.35 1505.71 1562.16 Q1507.81 1554.93 1507.81 1547.58 Q1507.81 1540.23 1505.71 1533.06 Q1503.64 1525.9 1499.4 1518.58 Z" fill="#000000" fill-rule="nonzero" fill-opacity="1" /><polyline clip-path="url(#clip190)" style="stroke:#000000; stroke-linecap:round; stroke-linejoin:round; stroke-width:4; stroke-opacity:1; fill:none" points="262.551,1423.18 262.551,123.472 "/>
<polyline clip-path="url(#clip190)" style="stroke:#000000; stroke-linecap:round; stroke-linejoin:round; stroke-width:4; stroke-opacity:1; fill:none" points="262.551,1386.4 281.449,1386.4 "/>
<polyline clip-path="url(#clip190)" style="stroke:#000000; stroke-linecap:round; stroke-linejoin:round; stroke-width:4; stroke-opacity:1; fill:none" points="262.551,992.645 281.449,992.645 "/>
<polyline clip-path="url(#clip190)" style="stroke:#000000; stroke-linecap:round; stroke-linejoin:round; stroke-width:4; stroke-opacity:1; fill:none" points="262.551,598.894 281.449,598.894 "/>
<polyline clip-path="url(#clip190)" style="stroke:#000000; stroke-linecap:round; stroke-linejoin:round; stroke-width:4; stroke-opacity:1; fill:none" points="262.551,205.144 281.449,205.144 "/>
<path clip-path="url(#clip190)" d="M214.607 1372.19 Q210.996 1372.19 209.167 1375.76 Q207.362 1379.3 207.362 1386.43 Q207.362 1393.54 209.167 1397.1 Q210.996 1400.64 214.607 1400.64 Q218.241 1400.64 220.047 1397.1 Q221.875 1393.54 221.875 1386.43 Q221.875 1379.3 220.047 1375.76 Q218.241 1372.19 214.607 1372.19 M214.607 1368.49 Q220.417 1368.49 223.473 1373.1 Q226.551 1377.68 226.551 1386.43 Q226.551 1395.16 223.473 1399.76 Q220.417 1404.35 214.607 1404.35 Q208.797 1404.35 205.718 1399.76 Q202.662 1395.16 202.662 1386.43 Q202.662 1377.68 205.718 1373.1 Q208.797 1368.49 214.607 1368.49 Z" fill="#000000" fill-rule="nonzero" fill-opacity="1" /><path clip-path="url(#clip190)" d="M144.329 975.365 L162.686 975.365 L162.686 979.3 L148.612 979.3 L148.612 987.772 Q149.63 987.425 150.649 987.263 Q151.667 987.078 152.686 987.078 Q158.473 987.078 161.852 990.249 Q165.232 993.421 165.232 998.837 Q165.232 1004.42 161.76 1007.52 Q158.288 1010.6 151.968 1010.6 Q149.792 1010.6 147.524 1010.23 Q145.279 1009.86 142.871 1009.11 L142.871 1004.42 Q144.954 1005.55 147.177 1006.11 Q149.399 1006.66 151.876 1006.66 Q155.88 1006.66 158.218 1004.55 Q160.556 1002.45 160.556 998.837 Q160.556 995.226 158.218 993.12 Q155.88 991.013 151.876 991.013 Q150.001 991.013 148.126 991.43 Q146.274 991.846 144.329 992.726 L144.329 975.365 Z" fill="#000000" fill-rule="nonzero" fill-opacity="1" /><path clip-path="url(#clip190)" d="M184.445 978.444 Q180.834 978.444 179.005 982.009 Q177.2 985.55 177.2 992.68 Q177.2 999.786 179.005 1003.35 Q180.834 1006.89 184.445 1006.89 Q188.079 1006.89 189.885 1003.35 Q191.713 999.786 191.713 992.68 Q191.713 985.55 189.885 982.009 Q188.079 978.444 184.445 978.444 M184.445 974.74 Q190.255 974.74 193.311 979.347 Q196.389 983.93 196.389 992.68 Q196.389 1001.41 193.311 1006.01 Q190.255 1010.6 184.445 1010.6 Q178.635 1010.6 175.556 1006.01 Q172.501 1001.41 172.501 992.68 Q172.501 983.93 175.556 979.347 Q178.635 974.74 184.445 974.74 Z" fill="#000000" fill-rule="nonzero" fill-opacity="1" /><path clip-path="url(#clip190)" d="M214.607 978.444 Q210.996 978.444 209.167 982.009 Q207.362 985.55 207.362 992.68 Q207.362 999.786 209.167 1003.35 Q210.996 1006.89 214.607 1006.89 Q218.241 1006.89 220.047 1003.35 Q221.875 999.786 221.875 992.68 Q221.875 985.55 220.047 982.009 Q218.241 978.444 214.607 978.444 M214.607 974.74 Q220.417 974.74 223.473 979.347 Q226.551 983.93 226.551 992.68 Q226.551 1001.41 223.473 1006.01 Q220.417 1010.6 214.607 1010.6 Q208.797 1010.6 205.718 1006.01 Q202.662 1001.41 202.662 992.68 Q202.662 983.93 205.718 979.347 Q208.797 974.74 214.607 974.74 Z" fill="#000000" fill-rule="nonzero" fill-opacity="1" /><path clip-path="url(#clip190)" d="M114.931 612.239 L122.57 612.239 L122.57 585.874 L114.26 587.54 L114.26 583.281 L122.524 581.614 L127.2 581.614 L127.2 612.239 L134.839 612.239 L134.839 616.174 L114.931 616.174 L114.931 612.239 Z" fill="#000000" fill-rule="nonzero" fill-opacity="1" /><path clip-path="url(#clip190)" d="M154.283 584.693 Q150.672 584.693 148.843 588.258 Q147.038 591.8 147.038 598.929 Q147.038 606.036 148.843 609.6 Q150.672 613.142 154.283 613.142 Q157.917 613.142 159.723 609.6 Q161.552 606.036 161.552 598.929 Q161.552 591.8 159.723 588.258 Q157.917 584.693 154.283 584.693 M154.283 580.989 Q160.093 580.989 163.149 585.596 Q166.227 590.179 166.227 598.929 Q166.227 607.656 163.149 612.262 Q160.093 616.846 154.283 616.846 Q148.473 616.846 145.394 612.262 Q142.339 607.656 142.339 598.929 Q142.339 590.179 145.394 585.596 Q148.473 580.989 154.283 580.989 Z" fill="#000000" fill-rule="nonzero" fill-opacity="1" /><path clip-path="url(#clip190)" d="M184.445 584.693 Q180.834 584.693 179.005 588.258 Q177.2 591.8 177.2 598.929 Q177.2 606.036 179.005 609.6 Q180.834 613.142 184.445 613.142 Q188.079 613.142 189.885 609.6 Q191.713 606.036 191.713 598.929 Q191.713 591.8 189.885 588.258 Q188.079 584.693 184.445 584.693 M184.445 580.989 Q190.255 580.989 193.311 585.596 Q196.389 590.179 196.389 598.929 Q196.389 607.656 193.311 612.262 Q190.255 616.846 184.445 616.846 Q178.635 616.846 175.556 612.262 Q172.501 607.656 172.501 598.929 Q172.501 590.179 175.556 585.596 Q178.635 580.989 184.445 580.989 Z" fill="#000000" fill-rule="nonzero" fill-opacity="1" /><path clip-path="url(#clip190)" d="M214.607 584.693 Q210.996 584.693 209.167 588.258 Q207.362 591.8 207.362 598.929 Q207.362 606.036 209.167 609.6 Q210.996 613.142 214.607 613.142 Q218.241 613.142 220.047 609.6 Q221.875 606.036 221.875 598.929 Q221.875 591.8 220.047 588.258 Q218.241 584.693 214.607 584.693 M214.607 580.989 Q220.417 580.989 223.473 585.596 Q226.551 590.179 226.551 598.929 Q226.551 607.656 223.473 612.262 Q220.417 616.846 214.607 616.846 Q208.797 616.846 205.718 612.262 Q202.662 607.656 202.662 598.929 Q202.662 590.179 205.718 585.596 Q208.797 580.989 214.607 580.989 Z" fill="#000000" fill-rule="nonzero" fill-opacity="1" /><path clip-path="url(#clip190)" d="M114.931 218.489 L122.57 218.489 L122.57 192.123 L114.26 193.79 L114.26 189.531 L122.524 187.864 L127.2 187.864 L127.2 218.489 L134.839 218.489 L134.839 222.424 L114.931 222.424 L114.931 218.489 Z" fill="#000000" fill-rule="nonzero" fill-opacity="1" /><path clip-path="url(#clip190)" d="M144.329 187.864 L162.686 187.864 L162.686 191.799 L148.612 191.799 L148.612 200.271 Q149.63 199.924 150.649 199.762 Q151.667 199.577 152.686 199.577 Q158.473 199.577 161.852 202.748 Q165.232 205.919 165.232 211.336 Q165.232 216.915 161.76 220.016 Q158.288 223.095 151.968 223.095 Q149.792 223.095 147.524 222.725 Q145.279 222.354 142.871 221.614 L142.871 216.915 Q144.954 218.049 147.177 218.604 Q149.399 219.16 151.876 219.16 Q155.88 219.16 158.218 217.054 Q160.556 214.947 160.556 211.336 Q160.556 207.725 158.218 205.618 Q155.88 203.512 151.876 203.512 Q150.001 203.512 148.126 203.929 Q146.274 204.345 144.329 205.225 L144.329 187.864 Z" fill="#000000" fill-rule="nonzero" fill-opacity="1" /><path clip-path="url(#clip190)" d="M184.445 190.943 Q180.834 190.943 179.005 194.507 Q177.2 198.049 177.2 205.179 Q177.2 212.285 179.005 215.85 Q180.834 219.391 184.445 219.391 Q188.079 219.391 189.885 215.85 Q191.713 212.285 191.713 205.179 Q191.713 198.049 189.885 194.507 Q188.079 190.943 184.445 190.943 M184.445 187.239 Q190.255 187.239 193.311 191.845 Q196.389 196.429 196.389 205.179 Q196.389 213.905 193.311 218.512 Q190.255 223.095 184.445 223.095 Q178.635 223.095 175.556 218.512 Q172.501 213.905 172.501 205.179 Q172.501 196.429 175.556 191.845 Q178.635 187.239 184.445 187.239 Z" fill="#000000" fill-rule="nonzero" fill-opacity="1" /><path clip-path="url(#clip190)" d="M214.607 190.943 Q210.996 190.943 209.167 194.507 Q207.362 198.049 207.362 205.179 Q207.362 212.285 209.167 215.85 Q210.996 219.391 214.607 219.391 Q218.241 219.391 220.047 215.85 Q221.875 212.285 221.875 205.179 Q221.875 198.049 220.047 194.507 Q218.241 190.943 214.607 190.943 M214.607 187.239 Q220.417 187.239 223.473 191.845 Q226.551 196.429 226.551 205.179 Q226.551 213.905 223.473 218.512 Q220.417 223.095 214.607 223.095 Q208.797 223.095 205.718 218.512 Q202.662 213.905 202.662 205.179 Q202.662 196.429 205.718 191.845 Q208.797 187.239 214.607 187.239 Z" fill="#000000" fill-rule="nonzero" fill-opacity="1" /><path clip-path="url(#clip190)" d="M20.1444 945.009 L26.9239 945.009 Q23.9002 948.256 22.4043 951.948 Q20.9083 955.608 20.9083 959.746 Q20.9083 967.894 25.9054 972.222 Q30.8707 976.551 40.2919 976.551 Q49.6813 976.551 54.6784 972.222 Q59.6436 967.894 59.6436 959.746 Q59.6436 955.608 58.1477 951.948 Q56.6518 948.256 53.6281 945.009 L60.3439 945.009 Q62.6355 948.383 63.7814 952.171 Q64.9272 955.926 64.9272 960.128 Q64.9272 970.918 58.3387 977.124 Q51.7183 983.331 40.2919 983.331 Q28.8336 983.331 22.2451 977.124 Q15.6248 970.918 15.6248 960.128 Q15.6248 955.863 16.7706 952.107 Q17.8846 948.319 20.1444 945.009 Z" fill="#000000" fill-rule="nonzero" fill-opacity="1" /><path clip-path="url(#clip190)" d="M32.4621 921.52 Q32.4621 926.23 36.1542 928.968 Q39.8145 931.705 46.212 931.705 Q52.6095 931.705 56.3017 928.999 Q59.9619 926.262 59.9619 921.52 Q59.9619 916.841 56.2698 914.104 Q52.5777 911.366 46.212 911.366 Q39.8781 911.366 36.186 914.104 Q32.4621 916.841 32.4621 921.52 M27.4968 921.52 Q27.4968 913.881 32.4621 909.52 Q37.4273 905.16 46.212 905.16 Q54.9649 905.16 59.9619 909.52 Q64.9272 913.881 64.9272 921.52 Q64.9272 929.19 59.9619 933.551 Q54.9649 937.88 46.212 937.88 Q37.4273 937.88 32.4621 933.551 Q27.4968 929.19 27.4968 921.52 Z" fill="#000000" fill-rule="nonzero" fill-opacity="1" /><path clip-path="url(#clip190)" d="M49.9359 896.057 L28.3562 896.057 L28.3562 890.2 L49.7131 890.2 Q54.7739 890.2 57.3202 888.227 Q59.8346 886.254 59.8346 882.307 Q59.8346 877.564 56.8109 874.827 Q53.7872 872.058 48.5673 872.058 L28.3562 872.058 L28.3562 866.202 L64.0042 866.202 L64.0042 872.058 L58.5296 872.058 Q61.7762 874.191 63.3676 877.023 Q64.9272 879.824 64.9272 883.548 Q64.9272 889.691 61.1078 892.874 Q57.2883 896.057 49.9359 896.057 M27.4968 881.32 L27.4968 881.32 Z" fill="#000000" fill-rule="nonzero" fill-opacity="1" /><path clip-path="url(#clip190)" d="M42.4881 824.506 L64.0042 824.506 L64.0042 830.363 L42.679 830.363 Q37.6183 830.363 35.1038 832.336 Q32.5894 834.309 32.5894 838.256 Q32.5894 842.999 35.6131 845.736 Q38.6368 848.473 43.8567 848.473 L64.0042 848.473 L64.0042 854.361 L28.3562 854.361 L28.3562 848.473 L33.8944 848.473 Q30.6797 846.372 29.0883 843.54 Q27.4968 840.675 27.4968 836.951 Q27.4968 830.808 31.3163 827.657 Q35.1038 824.506 42.4881 824.506 Z" fill="#000000" fill-rule="nonzero" fill-opacity="1" /><path clip-path="url(#clip190)" d="M18.2347 807.032 L28.3562 807.032 L28.3562 794.969 L32.9077 794.969 L32.9077 807.032 L52.2594 807.032 Q56.6199 807.032 57.8613 805.855 Q59.1026 804.645 59.1026 800.985 L59.1026 794.969 L64.0042 794.969 L64.0042 800.985 Q64.0042 807.764 61.4897 810.343 Q58.9434 812.921 52.2594 812.921 L32.9077 812.921 L32.9077 817.218 L28.3562 817.218 L28.3562 812.921 L18.2347 812.921 L18.2347 807.032 Z" fill="#000000" fill-rule="nonzero" fill-opacity="1" /><path clip-path="url(#clip190)" d="M29.4065 764.541 L34.9447 764.541 Q33.6716 767.024 33.035 769.698 Q32.3984 772.371 32.3984 775.236 Q32.3984 779.596 33.7352 781.792 Q35.072 783.957 37.7456 783.957 Q39.7826 783.957 40.9603 782.397 Q42.1061 780.838 43.1565 776.127 L43.6021 774.122 Q44.9389 767.883 47.3897 765.273 Q49.8086 762.632 54.1691 762.632 Q59.1344 762.632 62.0308 766.578 Q64.9272 770.493 64.9272 777.368 Q64.9272 780.233 64.3543 783.352 Q63.8132 786.439 62.6992 789.877 L56.6518 789.877 Q58.3387 786.63 59.198 783.479 Q60.0256 780.328 60.0256 777.241 Q60.0256 773.103 58.6251 770.875 Q57.1929 768.647 54.6147 768.647 Q52.2276 768.647 50.9545 770.27 Q49.6813 771.862 48.5037 777.305 L48.0262 779.342 Q46.8804 784.784 44.5251 787.203 Q42.138 789.622 38.0002 789.622 Q32.9713 789.622 30.2341 786.057 Q27.4968 782.493 27.4968 775.936 Q27.4968 772.689 27.9743 769.825 Q28.4517 766.96 29.4065 764.541 Z" fill="#000000" fill-rule="nonzero" fill-opacity="1" /><path clip-path="url(#clip190)" d="M28.3562 732.585 L28.3562 726.729 L64.0042 726.729 L64.0042 732.585 L28.3562 732.585 M14.479 732.585 L14.479 726.729 L21.895 726.729 L21.895 732.585 L14.479 732.585 Z" fill="#000000" fill-rule="nonzero" fill-opacity="1" /><path clip-path="url(#clip190)" d="M42.4881 684.843 L64.0042 684.843 L64.0042 690.699 L42.679 690.699 Q37.6183 690.699 35.1038 692.672 Q32.5894 694.646 32.5894 698.593 Q32.5894 703.335 35.6131 706.072 Q38.6368 708.81 43.8567 708.81 L64.0042 708.81 L64.0042 714.698 L28.3562 714.698 L28.3562 708.81 L33.8944 708.81 Q30.6797 706.709 29.0883 703.876 Q27.4968 701.012 27.4968 697.288 Q27.4968 691.145 31.3163 687.994 Q35.1038 684.843 42.4881 684.843 Z" fill="#000000" fill-rule="nonzero" fill-opacity="1" /><path clip-path="url(#clip190)" d="M46.212 626.851 Q39.7508 626.851 36.0905 629.525 Q32.3984 632.166 32.3984 636.813 Q32.3984 641.46 36.0905 644.134 Q39.7508 646.776 46.212 646.776 Q52.6732 646.776 56.3653 644.134 Q60.0256 641.46 60.0256 636.813 Q60.0256 632.166 56.3653 629.525 Q52.6732 626.851 46.212 626.851 M33.7671 646.776 Q30.5842 644.93 29.0564 642.129 Q27.4968 639.296 27.4968 635.381 Q27.4968 628.888 32.6531 624.846 Q37.8093 620.772 46.212 620.772 Q54.6147 620.772 59.771 624.846 Q64.9272 628.888 64.9272 635.381 Q64.9272 639.296 63.3994 642.129 Q61.8398 644.93 58.657 646.776 L64.0042 646.776 L64.0042 652.664 L14.479 652.664 L14.479 646.776 L33.7671 646.776 Z" fill="#000000" fill-rule="nonzero" fill-opacity="1" /><path clip-path="url(#clip190)" d="M28.3562 611.064 L28.3562 605.208 L64.0042 605.208 L64.0042 611.064 L28.3562 611.064 M14.479 611.064 L14.479 605.208 L21.895 605.208 L21.895 611.064 L14.479 611.064 Z" fill="#000000" fill-rule="nonzero" fill-opacity="1" /><path clip-path="url(#clip190)" d="M42.4881 563.321 L64.0042 563.321 L64.0042 569.178 L42.679 569.178 Q37.6183 569.178 35.1038 571.151 Q32.5894 573.125 32.5894 577.071 Q32.5894 581.814 35.6131 584.551 Q38.6368 587.288 43.8567 587.288 L64.0042 587.288 L64.0042 593.176 L28.3562 593.176 L28.3562 587.288 L33.8944 587.288 Q30.6797 585.188 29.0883 582.355 Q27.4968 579.49 27.4968 575.766 Q27.4968 569.623 31.3163 566.472 Q35.1038 563.321 42.4881 563.321 Z" fill="#000000" fill-rule="nonzero" fill-opacity="1" /><path clip-path="url(#clip190)" d="M910.422 12.096 L919.212 12.096 L934.241 34.5785 L949.351 12.096 L958.142 12.096 L938.697 41.141 L959.438 72.576 L950.647 72.576 L933.634 46.8528 L916.498 72.576 L907.667 72.576 L929.259 40.2903 L910.422 12.096 Z" fill="#000000" fill-rule="nonzero" fill-opacity="1" /><path clip-path="url(#clip190)" d="M1016.84 49.7694 Q1007.81 49.7694 1004.32 51.8354 Q1000.84 53.9013 1000.84 58.8839 Q1000.84 62.8538 1003.43 65.2034 Q1006.06 67.5124 1010.56 67.5124 Q1016.76 67.5124 1020.48 63.1374 Q1024.25 58.7219 1024.25 51.4303 L1024.25 49.7694 L1016.84 49.7694 M1031.71 46.6907 L1031.71 72.576 L1024.25 72.576 L1024.25 65.6895 Q1021.7 69.8214 1017.89 71.8063 Q1014.08 73.7508 1008.58 73.7508 Q1001.61 73.7508 997.476 69.8619 Q993.384 65.9325 993.384 59.3701 Q993.384 51.7138 998.489 47.825 Q1003.63 43.9361 1013.8 43.9361 L1024.25 43.9361 L1024.25 43.2069 Q1024.25 38.0623 1020.85 35.2672 Q1017.49 32.4315 1011.37 32.4315 Q1007.48 32.4315 1003.8 33.3632 Q1000.11 34.295 996.706 36.1584 L996.706 29.2718 Q1000.8 27.692 1004.65 26.9223 Q1008.49 26.1121 1012.14 26.1121 Q1021.98 26.1121 1026.84 31.2163 Q1031.71 36.3204 1031.71 46.6907 Z" fill="#000000" fill-rule="nonzero" fill-opacity="1" /><path clip-path="url(#clip190)" d="M1084.77 45.1919 L1084.77 72.576 L1077.32 72.576 L1077.32 45.4349 Q1077.32 38.994 1074.81 35.7938 Q1072.3 32.5936 1067.27 32.5936 Q1061.24 32.5936 1057.75 36.4419 Q1054.27 40.2903 1054.27 46.9338 L1054.27 72.576 L1046.78 72.576 L1046.78 27.2059 L1054.27 27.2059 L1054.27 34.2544 Q1056.94 30.163 1060.55 28.1376 Q1064.19 26.1121 1068.93 26.1121 Q1076.75 26.1121 1080.76 30.9732 Q1084.77 35.7938 1084.77 45.1919 Z" fill="#000000" fill-rule="nonzero" fill-opacity="1" /><path clip-path="url(#clip190)" d="M1129.49 34.0924 L1129.49 9.54393 L1136.95 9.54393 L1136.95 72.576 L1129.49 72.576 L1129.49 65.7705 Q1127.15 69.8214 1123.54 71.8063 Q1119.98 73.7508 1114.95 73.7508 Q1106.73 73.7508 1101.54 67.1883 Q1096.4 60.6258 1096.4 49.9314 Q1096.4 39.2371 1101.54 32.6746 Q1106.73 26.1121 1114.95 26.1121 Q1119.98 26.1121 1123.54 28.0971 Q1127.15 30.0415 1129.49 34.0924 M1104.1 49.9314 Q1104.1 58.1548 1107.46 62.8538 Q1110.86 67.5124 1116.77 67.5124 Q1122.69 67.5124 1126.09 62.8538 Q1129.49 58.1548 1129.49 49.9314 Q1129.49 41.7081 1126.09 37.0496 Q1122.69 32.3505 1116.77 32.3505 Q1110.86 32.3505 1107.46 37.0496 Q1104.1 41.7081 1104.1 49.9314 Z" fill="#000000" fill-rule="nonzero" fill-opacity="1" /><path clip-path="url(#clip190)" d="M1170.69 12.096 L1179.48 12.096 L1196.25 36.9686 L1212.9 12.096 L1221.69 12.096 L1200.3 43.7741 L1200.3 72.576 L1192.08 72.576 L1192.08 43.7741 L1170.69 12.096 Z" fill="#000000" fill-rule="nonzero" fill-opacity="1" /><path clip-path="url(#clip190)" d="M1293.43 45.1919 L1293.43 72.576 L1285.98 72.576 L1285.98 45.4349 Q1285.98 38.994 1283.47 35.7938 Q1280.96 32.5936 1275.93 32.5936 Q1269.9 32.5936 1266.42 36.4419 Q1262.93 40.2903 1262.93 46.9338 L1262.93 72.576 L1255.44 72.576 L1255.44 9.54393 L1262.93 9.54393 L1262.93 34.2544 Q1265.61 30.163 1269.21 28.1376 Q1272.86 26.1121 1277.6 26.1121 Q1285.41 26.1121 1289.42 30.9732 Q1293.43 35.7938 1293.43 45.1919 Z" fill="#000000" fill-rule="nonzero" fill-opacity="1" /><path clip-path="url(#clip190)" d="M1308.3 27.2059 L1315.76 27.2059 L1315.76 72.576 L1308.3 72.576 L1308.3 27.2059 M1308.3 9.54393 L1315.76 9.54393 L1315.76 18.9825 L1308.3 18.9825 L1308.3 9.54393 Z" fill="#000000" fill-rule="nonzero" fill-opacity="1" /><path clip-path="url(#clip190)" d="M1360.27 28.5427 L1360.27 35.5912 Q1357.12 33.9709 1353.71 33.1607 Q1350.31 32.3505 1346.66 32.3505 Q1341.11 32.3505 1338.32 34.0519 Q1335.56 35.7533 1335.56 39.156 Q1335.56 41.7486 1337.55 43.2475 Q1339.53 44.7058 1345.53 46.0426 L1348.08 46.6097 Q1356.02 48.3111 1359.34 51.4303 Q1362.71 54.509 1362.71 60.0587 Q1362.71 66.3781 1357.68 70.0644 Q1352.7 73.7508 1343.95 73.7508 Q1340.3 73.7508 1336.33 73.0216 Q1332.4 72.3329 1328.03 70.9151 L1328.03 63.2184 Q1332.16 65.3654 1336.17 66.4591 Q1340.18 67.5124 1344.11 67.5124 Q1349.38 67.5124 1352.21 65.73 Q1355.05 63.9071 1355.05 60.6258 Q1355.05 57.5877 1352.98 55.9673 Q1350.96 54.3469 1344.03 52.8481 L1341.44 52.2405 Q1334.51 50.7821 1331.43 47.7845 Q1328.35 44.7463 1328.35 39.4801 Q1328.35 33.0797 1332.89 29.5959 Q1337.43 26.1121 1345.77 26.1121 Q1349.9 26.1121 1353.55 26.7198 Q1357.2 27.3274 1360.27 28.5427 Z" fill="#000000" fill-rule="nonzero" fill-opacity="1" /><path clip-path="url(#clip190)" d="M1381.95 14.324 L1381.95 27.2059 L1397.3 27.2059 L1397.3 32.9987 L1381.95 32.9987 L1381.95 57.6282 Q1381.95 63.1779 1383.45 64.7578 Q1384.99 66.3376 1389.64 66.3376 L1397.3 66.3376 L1397.3 72.576 L1389.64 72.576 Q1381.02 72.576 1377.73 69.3758 Q1374.45 66.1351 1374.45 57.6282 L1374.45 32.9987 L1368.98 32.9987 L1368.98 27.2059 L1374.45 27.2059 L1374.45 14.324 L1381.95 14.324 Z" fill="#000000" fill-rule="nonzero" fill-opacity="1" /><path clip-path="url(#clip190)" d="M1424.68 32.4315 Q1418.69 32.4315 1415.21 37.1306 Q1411.72 41.7891 1411.72 49.9314 Q1411.72 58.0738 1415.16 62.7728 Q1418.65 67.4314 1424.68 67.4314 Q1430.64 67.4314 1434.12 62.7323 Q1437.61 58.0333 1437.61 49.9314 Q1437.61 41.8701 1434.12 37.1711 Q1430.64 32.4315 1424.68 32.4315 M1424.68 26.1121 Q1434.41 26.1121 1439.96 32.4315 Q1445.51 38.7509 1445.51 49.9314 Q1445.51 61.0714 1439.96 67.4314 Q1434.41 73.7508 1424.68 73.7508 Q1414.92 73.7508 1409.37 67.4314 Q1403.86 61.0714 1403.86 49.9314 Q1403.86 38.7509 1409.37 32.4315 Q1414.92 26.1121 1424.68 26.1121 Z" fill="#000000" fill-rule="nonzero" fill-opacity="1" /><path clip-path="url(#clip190)" d="M1487.72 49.3643 Q1487.72 41.2625 1484.35 36.8065 Q1481.03 32.3505 1475 32.3505 Q1469 32.3505 1465.64 36.8065 Q1462.32 41.2625 1462.32 49.3643 Q1462.32 57.4256 1465.64 61.8816 Q1469 66.3376 1475 66.3376 Q1481.03 66.3376 1484.35 61.8816 Q1487.72 57.4256 1487.72 49.3643 M1495.17 66.9452 Q1495.17 78.5308 1490.03 84.1616 Q1484.88 89.8329 1474.27 89.8329 Q1470.34 89.8329 1466.85 89.2252 Q1463.37 88.6581 1460.09 87.4428 L1460.09 80.1917 Q1463.37 81.9741 1466.57 82.8248 Q1469.77 83.6755 1473.09 83.6755 Q1480.42 83.6755 1484.07 79.8271 Q1487.72 76.0193 1487.72 68.282 L1487.72 64.5957 Q1485.41 68.6061 1481.8 70.5911 Q1478.2 72.576 1473.17 72.576 Q1464.83 72.576 1459.72 66.2161 Q1454.62 59.8562 1454.62 49.3643 Q1454.62 38.832 1459.72 32.472 Q1464.83 26.1121 1473.17 26.1121 Q1478.2 26.1121 1481.8 28.0971 Q1485.41 30.082 1487.72 34.0924 L1487.72 27.2059 L1495.17 27.2059 L1495.17 66.9452 Z" fill="#000000" fill-rule="nonzero" fill-opacity="1" /><path clip-path="url(#clip190)" d="M1536.81 34.1734 Q1535.56 33.4443 1534.06 33.1202 Q1532.6 32.7556 1530.82 32.7556 Q1524.5 32.7556 1521.1 36.8875 Q1517.73 40.9789 1517.73 48.6757 L1517.73 72.576 L1510.24 72.576 L1510.24 27.2059 L1517.73 27.2059 L1517.73 34.2544 Q1520.08 30.1225 1523.85 28.1376 Q1527.62 26.1121 1533.01 26.1121 Q1533.78 26.1121 1534.71 26.2337 Q1535.64 26.3147 1536.77 26.5172 L1536.81 34.1734 Z" fill="#000000" fill-rule="nonzero" fill-opacity="1" /><path clip-path="url(#clip190)" d="M1565.25 49.7694 Q1556.22 49.7694 1552.73 51.8354 Q1549.25 53.9013 1549.25 58.8839 Q1549.25 62.8538 1551.84 65.2034 Q1554.48 67.5124 1558.97 67.5124 Q1565.17 67.5124 1568.9 63.1374 Q1572.66 58.7219 1572.66 51.4303 L1572.66 49.7694 L1565.25 49.7694 M1580.12 46.6907 L1580.12 72.576 L1572.66 72.576 L1572.66 65.6895 Q1570.11 69.8214 1566.3 71.8063 Q1562.5 73.7508 1556.99 73.7508 Q1550.02 73.7508 1545.89 69.8619 Q1541.8 65.9325 1541.8 59.3701 Q1541.8 51.7138 1546.9 47.825 Q1552.04 43.9361 1562.21 43.9361 L1572.66 43.9361 L1572.66 43.2069 Q1572.66 38.0623 1569.26 35.2672 Q1565.9 32.4315 1559.78 32.4315 Q1555.89 32.4315 1552.21 33.3632 Q1548.52 34.295 1545.12 36.1584 L1545.12 29.2718 Q1549.21 27.692 1553.06 26.9223 Q1556.91 26.1121 1560.55 26.1121 Q1570.4 26.1121 1575.26 31.2163 Q1580.12 36.3204 1580.12 46.6907 Z" fill="#000000" fill-rule="nonzero" fill-opacity="1" /><path clip-path="url(#clip190)" d="M1630.79 35.9153 Q1633.59 30.8922 1637.48 28.5022 Q1641.37 26.1121 1646.63 26.1121 Q1653.72 26.1121 1657.57 31.0947 Q1661.42 36.0368 1661.42 45.1919 L1661.42 72.576 L1653.92 72.576 L1653.92 45.4349 Q1653.92 38.913 1651.62 35.7533 Q1649.31 32.5936 1644.57 32.5936 Q1638.77 32.5936 1635.41 36.4419 Q1632.05 40.2903 1632.05 46.9338 L1632.05 72.576 L1624.56 72.576 L1624.56 45.4349 Q1624.56 38.8725 1622.25 35.7533 Q1619.94 32.5936 1615.12 32.5936 Q1609.41 32.5936 1606.04 36.4824 Q1602.68 40.3308 1602.68 46.9338 L1602.68 72.576 L1595.19 72.576 L1595.19 27.2059 L1602.68 27.2059 L1602.68 34.2544 Q1605.23 30.082 1608.8 28.0971 Q1612.36 26.1121 1617.26 26.1121 Q1622.21 26.1121 1625.65 28.6237 Q1629.13 31.1352 1630.79 35.9153 Z" fill="#000000" fill-rule="nonzero" fill-opacity="1" /><path clip-path="url(#clip190)" d="M1705.21 28.5427 L1705.21 35.5912 Q1702.05 33.9709 1698.65 33.1607 Q1695.24 32.3505 1691.6 32.3505 Q1686.05 32.3505 1683.25 34.0519 Q1680.5 35.7533 1680.5 39.156 Q1680.5 41.7486 1682.48 43.2475 Q1684.47 44.7058 1690.46 46.0426 L1693.02 46.6097 Q1700.96 48.3111 1704.28 51.4303 Q1707.64 54.509 1707.64 60.0587 Q1707.64 66.3781 1702.62 70.0644 Q1697.63 73.7508 1688.88 73.7508 Q1685.24 73.7508 1681.27 73.0216 Q1677.34 72.3329 1672.96 70.9151 L1672.96 63.2184 Q1677.1 65.3654 1681.11 66.4591 Q1685.12 67.5124 1689.05 67.5124 Q1694.31 67.5124 1697.15 65.73 Q1699.98 63.9071 1699.98 60.6258 Q1699.98 57.5877 1697.92 55.9673 Q1695.89 54.3469 1688.97 52.8481 L1686.37 52.2405 Q1679.45 50.7821 1676.37 47.7845 Q1673.29 44.7463 1673.29 39.4801 Q1673.29 33.0797 1677.83 29.5959 Q1682.36 26.1121 1690.71 26.1121 Q1694.84 26.1121 1698.48 26.7198 Q1702.13 27.3274 1705.21 28.5427 Z" fill="#000000" fill-rule="nonzero" fill-opacity="1" /><polyline clip-path="url(#clip192)" style="stroke:#009af9; stroke-linecap:round; stroke-linejoin:round; stroke-width:4; stroke-opacity:1; fill:none" points="321.708,1386.4 321.708,286.256 354.034,286.256 354.034,321.694 386.36,321.694 386.36,349.257 418.686,349.257 418.686,339.807 451.012,339.807 451.012,283.894 483.338,283.894 483.338,290.982 515.664,290.982 515.664,291.769 547.991,291.769 547.991,241.369 580.317,241.369 580.317,250.819 612.643,250.819 612.643,294.919 644.969,294.919 644.969,287.044 677.295,287.044 677.295,235.069 709.621,235.069 709.621,254.756 741.947,254.756 741.947,242.156 774.273,242.156 774.273,199.631 806.599,199.631 806.599,293.344 838.925,293.344 838.925,227.194 871.251,227.194 871.251,283.894 903.577,283.894 903.577,246.881 935.904,246.881 935.904,223.256 968.23,223.256 968.23,257.906 1000.56,257.906 1000.56,224.044 1032.88,224.044 1032.88,193.331 1065.21,193.331 1065.21,231.919 1097.53,231.919 1097.53,205.144 1129.86,205.144 1129.86,216.956 1162.19,216.956 1162.19,223.256 1194.51,223.256 1194.51,269.719 1226.84,269.719 1226.84,192.544 1259.16,192.544 1259.16,234.281 1291.49,234.281 1291.49,255.544 1323.82,255.544 1323.82,232.706 1356.14,232.706 1356.14,160.256 1388.47,160.256 1388.47,161.831 1420.79,161.831 1420.79,236.644 1453.12,236.644 1453.12,204.356 1485.45,204.356 1485.45,194.119 1517.77,194.119 1517.77,239.006 1550.1,239.006 1550.1,206.719 1582.43,206.719 1582.43,231.919 1614.75,231.919 1614.75,203.569 1647.08,203.569 1647.08,246.881 1679.4,246.881 1679.4,194.119 1711.73,194.119 1711.73,182.306 1744.06,182.306 1744.06,255.544 1776.38,255.544 1776.38,228.769 1808.71,228.769 1808.71,238.219 1841.03,238.219 1841.03,274.444 1873.36,274.444 1873.36,197.269 1905.69,197.269 1905.69,264.206 1938.01,264.206 1938.01,209.869 1970.34,209.869 1970.34,176.006 2002.66,176.006 2002.66,290.982 2034.99,290.982 2034.99,327.207 2067.32,327.207 2067.32,242.156 2099.64,242.156 2099.64,265.781 2131.97,265.781 2131.97,261.056 2164.29,261.056 2164.29,303.582 2196.62,303.582 2196.62,291.769 2228.95,291.769 2228.95,352.407 2261.27,352.407 2261.27,1385.61 2293.6,1385.61 2293.6,1386.4 "/>
<polyline clip-path="url(#clip192)" style="stroke:#e26f46; stroke-linecap:round; stroke-linejoin:round; stroke-width:4; stroke-opacity:1; fill:none" points="321.708,1386.4 321.708,342.957 354.034,342.957 354.034,294.919 386.36,294.919 386.36,286.256 418.686,286.256 418.686,314.607 451.012,314.607 451.012,297.282 483.338,297.282 483.338,287.044 515.664,287.044 515.664,231.919 547.991,231.919 547.991,257.119 580.317,257.119 580.317,253.181 612.643,253.181 612.643,209.081 644.969,209.081 644.969,247.669 677.295,247.669 677.295,301.219 709.621,301.219 709.621,278.381 741.947,278.381 741.947,231.919 774.273,231.919 774.273,207.506 806.599,207.506 806.599,227.194 838.925,227.194 838.925,239.006 871.251,239.006 871.251,167.344 903.577,167.344 903.577,206.719 935.904,206.719 935.904,223.256 968.23,223.256 968.23,231.919 1000.56,231.919 1000.56,245.306 1032.88,245.306 1032.88,201.206 1065.21,201.206 1065.21,214.594 1097.53,214.594 1097.53,227.981 1129.86,227.981 1129.86,179.156 1162.19,179.156 1162.19,213.019 1194.51,213.019 1194.51,213.806 1226.84,213.806 1226.84,181.519 1259.16,181.519 1259.16,221.681 1291.49,221.681 1291.49,167.344 1323.82,167.344 1323.82,228.769 1356.14,228.769 1356.14,266.569 1388.47,266.569 1388.47,254.756 1420.79,254.756 1420.79,243.731 1453.12,243.731 1453.12,239.006 1485.45,239.006 1485.45,213.019 1517.77,213.019 1517.77,200.419 1550.1,200.419 1550.1,251.606 1582.43,251.606 1582.43,237.431 1614.75,237.431 1614.75,215.381 1647.08,215.381 1647.08,216.956 1679.4,216.956 1679.4,247.669 1711.73,247.669 1711.73,228.769 1744.06,228.769 1744.06,254.756 1776.38,254.756 1776.38,244.519 1808.71,244.519 1808.71,198.844 1841.03,198.844 1841.03,232.706 1873.36,232.706 1873.36,276.019 1905.69,276.019 1905.69,278.381 1938.01,278.381 1938.01,256.331 1970.34,256.331 1970.34,198.844 2002.66,198.844 2002.66,283.894 2034.99,283.894 2034.99,287.044 2067.32,287.044 2067.32,321.694 2099.64,321.694 2099.64,249.244 2131.97,249.244 2131.97,280.744 2164.29,280.744 2164.29,354.769 2196.62,354.769 2196.62,337.444 2228.95,337.444 2228.95,320.119 2261.27,320.119 2261.27,1386.4 "/>
<path clip-path="url(#clip190)" d="M332.225 1379.86 L570.828 1379.86 L570.828 1224.34 L332.225 1224.34  Z" fill="#ffffff" fill-rule="evenodd" fill-opacity="1"/>
<polyline clip-path="url(#clip190)" style="stroke:#000000; stroke-linecap:round; stroke-linejoin:round; stroke-width:4; stroke-opacity:1; fill:none" points="332.225,1379.86 570.828,1379.86 570.828,1224.34 332.225,1224.34 332.225,1379.86 "/>
<polyline clip-path="url(#clip190)" style="stroke:#009af9; stroke-linecap:round; stroke-linejoin:round; stroke-width:4; stroke-opacity:1; fill:none" points="355.449,1276.18 494.796,1276.18 "/>
<path clip-path="url(#clip190)" d="M519.595 1258.9 L524.618 1258.9 L533.206 1271.74 L541.84 1258.9 L546.863 1258.9 L535.752 1275.49 L547.604 1293.46 L542.581 1293.46 L532.859 1278.76 L523.067 1293.46 L518.021 1293.46 L530.359 1275.01 L519.595 1258.9 Z" fill="#000000" fill-rule="nonzero" fill-opacity="1" /><polyline clip-path="url(#clip190)" style="stroke:#e26f46; stroke-linecap:round; stroke-linejoin:round; stroke-width:4; stroke-opacity:1; fill:none" points="355.449,1328.02 494.796,1328.02 "/>
<path clip-path="url(#clip190)" d="M518.021 1310.74 L523.044 1310.74 L532.627 1324.95 L542.141 1310.74 L547.164 1310.74 L534.942 1328.84 L534.942 1345.3 L530.243 1345.3 L530.243 1328.84 L518.021 1310.74 Z" fill="#000000" fill-rule="nonzero" fill-opacity="1" /></svg>
