<?xml version="1.0" encoding="utf-8"?>
<svg xmlns="http://www.w3.org/2000/svg" xmlns:xlink="http://www.w3.org/1999/xlink" width="600" height="400" viewBox="0 0 2400 1600">
<defs>
  <clipPath id="clip450">
    <rect x="0" y="0" width="2400" height="1600"/>
  </clipPath>
</defs>
<path clip-path="url(#clip450)" d="M0 1600 L2400 1600 L2400 0 L0 0  Z" fill="#ffffff" fill-rule="evenodd" fill-opacity="1"/>
<defs>
  <clipPath id="clip451">
    <rect x="480" y="0" width="1681" height="1600"/>
  </clipPath>
</defs>
<path clip-path="url(#clip450)" d="M232.389 1423.18 L2352.76 1423.18 L2352.76 123.472 L232.389 123.472  Z" fill="#ffffff" fill-rule="evenodd" fill-opacity="1"/>
<defs>
  <clipPath id="clip452">
    <rect x="232" y="123" width="2121" height="1301"/>
  </clipPath>
</defs>
<polyline clip-path="url(#clip452)" style="stroke:#000000; stroke-linecap:round; stroke-linejoin:round; stroke-width:2; stroke-opacity:0.1; fill:none" points="292.4,1423.18 292.4,123.472 "/>
<polyline clip-path="url(#clip452)" style="stroke:#000000; stroke-linecap:round; stroke-linejoin:round; stroke-width:2; stroke-opacity:0.1; fill:none" points="625.791,1423.18 625.791,123.472 "/>
<polyline clip-path="url(#clip452)" style="stroke:#000000; stroke-linecap:round; stroke-linejoin:round; stroke-width:2; stroke-opacity:0.1; fill:none" points="959.182,1423.18 959.182,123.472 "/>
<polyline clip-path="url(#clip452)" style="stroke:#000000; stroke-linecap:round; stroke-linejoin:round; stroke-width:2; stroke-opacity:0.1; fill:none" points="1292.57,1423.18 1292.57,123.472 "/>
<polyline clip-path="url(#clip452)" style="stroke:#000000; stroke-linecap:round; stroke-linejoin:round; stroke-width:2; stroke-opacity:0.1; fill:none" points="1625.96,1423.18 1625.96,123.472 "/>
<polyline clip-path="url(#clip452)" style="stroke:#000000; stroke-linecap:round; stroke-linejoin:round; stroke-width:2; stroke-opacity:0.1; fill:none" points="1959.35,1423.18 1959.35,123.472 "/>
<polyline clip-path="url(#clip452)" style="stroke:#000000; stroke-linecap:round; stroke-linejoin:round; stroke-width:2; stroke-opacity:0.1; fill:none" points="2292.75,1423.18 2292.75,123.472 "/>
<polyline clip-path="url(#clip452)" style="stroke:#000000; stroke-linecap:round; stroke-linejoin:round; stroke-width:2; stroke-opacity:0.1; fill:none" points="232.389,1386.4 2352.76,1386.4 "/>
<polyline clip-path="url(#clip452)" style="stroke:#000000; stroke-linecap:round; stroke-linejoin:round; stroke-width:2; stroke-opacity:0.1; fill:none" points="232.389,1010.28 2352.76,1010.28 "/>
<polyline clip-path="url(#clip452)" style="stroke:#000000; stroke-linecap:round; stroke-linejoin:round; stroke-width:2; stroke-opacity:0.1; fill:none" points="232.389,634.163 2352.76,634.163 "/>
<polyline clip-path="url(#clip452)" style="stroke:#000000; stroke-linecap:round; stroke-linejoin:round; stroke-width:2; stroke-opacity:0.1; fill:none" points="232.389,258.047 2352.76,258.047 "/>
<polyline clip-path="url(#clip450)" style="stroke:#000000; stroke-linecap:round; stroke-linejoin:round; stroke-width:4; stroke-opacity:1; fill:none" points="232.389,1423.18 2352.76,1423.18 "/>
<polyline clip-path="url(#clip450)" style="stroke:#000000; stroke-linecap:round; stroke-linejoin:round; stroke-width:4; stroke-opacity:1; fill:none" points="292.4,1423.18 292.4,1404.28 "/>
<polyline clip-path="url(#clip450)" style="stroke:#000000; stroke-linecap:round; stroke-linejoin:round; stroke-width:4; stroke-opacity:1; fill:none" points="625.791,1423.18 625.791,1404.28 "/>
<polyline clip-path="url(#clip450)" style="stroke:#000000; stroke-linecap:round; stroke-linejoin:round; stroke-width:4; stroke-opacity:1; fill:none" points="959.182,1423.18 959.182,1404.28 "/>
<polyline clip-path="url(#clip450)" style="stroke:#000000; stroke-linecap:round; stroke-linejoin:round; stroke-width:4; stroke-opacity:1; fill:none" points="1292.57,1423.18 1292.57,1404.28 "/>
<polyline clip-path="url(#clip450)" style="stroke:#000000; stroke-linecap:round; stroke-linejoin:round; stroke-width:4; stroke-opacity:1; fill:none" points="1625.96,1423.18 1625.96,1404.28 "/>
<polyline clip-path="url(#clip450)" style="stroke:#000000; stroke-linecap:round; stroke-linejoin:round; stroke-width:4; stroke-opacity:1; fill:none" points="1959.35,1423.18 1959.35,1404.28 "/>
<polyline clip-path="url(#clip450)" style="stroke:#000000; stroke-linecap:round; stroke-linejoin:round; stroke-width:4; stroke-opacity:1; fill:none" points="2292.75,1423.18 2292.75,1404.28 "/>
<path clip-path="url(#clip450)" d="M246.96 1468.75 L276.636 1468.75 L276.636 1472.69 L246.96 1472.69 L246.96 1468.75 Z" fill="#000000" fill-rule="nonzero" fill-opacity="1" /><path clip-path="url(#clip450)" d="M287.539 1481.64 L295.177 1481.64 L295.177 1455.28 L286.867 1456.95 L286.867 1452.69 L295.131 1451.02 L299.807 1451.02 L299.807 1481.64 L307.446 1481.64 L307.446 1485.58 L287.539 1485.58 L287.539 1481.64 Z" fill="#000000" fill-rule="nonzero" fill-opacity="1" /><path clip-path="url(#clip450)" d="M316.937 1451.02 L335.293 1451.02 L335.293 1454.96 L321.219 1454.96 L321.219 1463.43 Q322.238 1463.08 323.256 1462.92 Q324.275 1462.73 325.293 1462.73 Q331.08 1462.73 334.46 1465.9 Q337.839 1469.08 337.839 1474.49 Q337.839 1480.07 334.367 1483.17 Q330.895 1486.25 324.575 1486.25 Q322.4 1486.25 320.131 1485.88 Q317.886 1485.51 315.478 1484.77 L315.478 1480.07 Q317.562 1481.2 319.784 1481.76 Q322.006 1482.32 324.483 1482.32 Q328.487 1482.32 330.825 1480.21 Q333.163 1478.1 333.163 1474.49 Q333.163 1470.88 330.825 1468.77 Q328.487 1466.67 324.483 1466.67 Q322.608 1466.67 320.733 1467.08 Q318.881 1467.5 316.937 1468.38 L316.937 1451.02 Z" fill="#000000" fill-rule="nonzero" fill-opacity="1" /><path clip-path="url(#clip450)" d="M579.853 1468.75 L609.529 1468.75 L609.529 1472.69 L579.853 1472.69 L579.853 1468.75 Z" fill="#000000" fill-rule="nonzero" fill-opacity="1" /><path clip-path="url(#clip450)" d="M620.432 1481.64 L628.071 1481.64 L628.071 1455.28 L619.761 1456.95 L619.761 1452.69 L628.024 1451.02 L632.7 1451.02 L632.7 1481.64 L640.339 1481.64 L640.339 1485.58 L620.432 1485.58 L620.432 1481.64 Z" fill="#000000" fill-rule="nonzero" fill-opacity="1" /><path clip-path="url(#clip450)" d="M659.784 1454.1 Q656.172 1454.1 654.344 1457.66 Q652.538 1461.2 652.538 1468.33 Q652.538 1475.44 654.344 1479.01 Q656.172 1482.55 659.784 1482.55 Q663.418 1482.55 665.223 1479.01 Q667.052 1475.44 667.052 1468.33 Q667.052 1461.2 665.223 1457.66 Q663.418 1454.1 659.784 1454.1 M659.784 1450.39 Q665.594 1450.39 668.649 1455 Q671.728 1459.58 671.728 1468.33 Q671.728 1477.06 668.649 1481.67 Q665.594 1486.25 659.784 1486.25 Q653.973 1486.25 650.895 1481.67 Q647.839 1477.06 647.839 1468.33 Q647.839 1459.58 650.895 1455 Q653.973 1450.39 659.784 1450.39 Z" fill="#000000" fill-rule="nonzero" fill-opacity="1" /><path clip-path="url(#clip450)" d="M928.823 1468.75 L958.499 1468.75 L958.499 1472.69 L928.823 1472.69 L928.823 1468.75 Z" fill="#000000" fill-rule="nonzero" fill-opacity="1" /><path clip-path="url(#clip450)" d="M968.638 1451.02 L986.994 1451.02 L986.994 1454.96 L972.92 1454.96 L972.92 1463.43 Q973.939 1463.08 974.957 1462.92 Q975.976 1462.73 976.994 1462.73 Q982.781 1462.73 986.161 1465.9 Q989.54 1469.08 989.54 1474.49 Q989.54 1480.07 986.068 1483.17 Q982.596 1486.25 976.276 1486.25 Q974.101 1486.25 971.832 1485.88 Q969.587 1485.51 967.179 1484.77 L967.179 1480.07 Q969.263 1481.2 971.485 1481.76 Q973.707 1482.32 976.184 1482.32 Q980.188 1482.32 982.526 1480.21 Q984.864 1478.1 984.864 1474.49 Q984.864 1470.88 982.526 1468.77 Q980.188 1466.67 976.184 1466.67 Q974.309 1466.67 972.434 1467.08 Q970.582 1467.5 968.638 1468.38 L968.638 1451.02 Z" fill="#000000" fill-rule="nonzero" fill-opacity="1" /><path clip-path="url(#clip450)" d="M1292.57 1454.1 Q1288.96 1454.1 1287.13 1457.66 Q1285.33 1461.2 1285.33 1468.33 Q1285.33 1475.44 1287.13 1479.01 Q1288.96 1482.55 1292.57 1482.55 Q1296.21 1482.55 1298.01 1479.01 Q1299.84 1475.44 1299.84 1468.33 Q1299.84 1461.2 1298.01 1457.66 Q1296.21 1454.1 1292.57 1454.1 M1292.57 1450.39 Q1298.38 1450.39 1301.44 1455 Q1304.52 1459.58 1304.52 1468.33 Q1304.52 1477.06 1301.44 1481.67 Q1298.38 1486.25 1292.57 1486.25 Q1286.76 1486.25 1283.68 1481.67 Q1280.63 1477.06 1280.63 1468.33 Q1280.63 1459.58 1283.68 1455 Q1286.76 1450.39 1292.57 1450.39 Z" fill="#000000" fill-rule="nonzero" fill-opacity="1" /><path clip-path="url(#clip450)" d="M1616.24 1451.02 L1634.6 1451.02 L1634.6 1454.96 L1620.52 1454.96 L1620.52 1463.43 Q1621.54 1463.08 1622.56 1462.92 Q1623.58 1462.73 1624.6 1462.73 Q1630.38 1462.73 1633.76 1465.9 Q1637.14 1469.08 1637.14 1474.49 Q1637.14 1480.07 1633.67 1483.17 Q1630.2 1486.25 1623.88 1486.25 Q1621.7 1486.25 1619.44 1485.88 Q1617.19 1485.51 1614.78 1484.77 L1614.78 1480.07 Q1616.87 1481.2 1619.09 1481.76 Q1621.31 1482.32 1623.79 1482.32 Q1627.79 1482.32 1630.13 1480.21 Q1632.47 1478.1 1632.47 1474.49 Q1632.47 1470.88 1630.13 1468.77 Q1627.79 1466.67 1623.79 1466.67 Q1621.91 1466.67 1620.04 1467.08 Q1618.19 1467.5 1616.24 1468.38 L1616.24 1451.02 Z" fill="#000000" fill-rule="nonzero" fill-opacity="1" /><path clip-path="url(#clip450)" d="M1934.04 1481.64 L1941.68 1481.64 L1941.68 1455.28 L1933.37 1456.95 L1933.37 1452.69 L1941.63 1451.02 L1946.31 1451.02 L1946.31 1481.64 L1953.95 1481.64 L1953.95 1485.58 L1934.04 1485.58 L1934.04 1481.64 Z" fill="#000000" fill-rule="nonzero" fill-opacity="1" /><path clip-path="url(#clip450)" d="M1973.39 1454.1 Q1969.78 1454.1 1967.95 1457.66 Q1966.15 1461.2 1966.15 1468.33 Q1966.15 1475.44 1967.95 1479.01 Q1969.78 1482.55 1973.39 1482.55 Q1977.03 1482.55 1978.83 1479.01 Q1980.66 1475.44 1980.66 1468.33 Q1980.66 1461.2 1978.83 1457.66 Q1977.03 1454.1 1973.39 1454.1 M1973.39 1450.39 Q1979.2 1450.39 1982.26 1455 Q1985.34 1459.58 1985.34 1468.33 Q1985.34 1477.06 1982.26 1481.67 Q1979.2 1486.25 1973.39 1486.25 Q1967.58 1486.25 1964.5 1481.67 Q1961.45 1477.06 1961.45 1468.33 Q1961.45 1459.58 1964.5 1455 Q1967.58 1450.39 1973.39 1450.39 Z" fill="#000000" fill-rule="nonzero" fill-opacity="1" /><path clip-path="url(#clip450)" d="M2267.93 1481.64 L2275.57 1481.64 L2275.57 1455.28 L2267.26 1456.95 L2267.26 1452.69 L2275.52 1451.02 L2280.2 1451.02 L2280.2 1481.64 L2287.84 1481.64 L2287.84 1485.58 L2267.93 1485.58 L2267.93 1481.64 Z" fill="#000000" fill-rule="nonzero" fill-opacity="1" /><path clip-path="url(#clip450)" d="M2297.33 1451.02 L2315.69 1451.02 L2315.69 1454.96 L2301.61 1454.96 L2301.61 1463.43 Q2302.63 1463.08 2303.65 1462.92 Q2304.67 1462.73 2305.69 1462.73 Q2311.47 1462.73 2314.85 1465.9 Q2318.23 1469.08 2318.23 1474.49 Q2318.23 1480.07 2314.76 1483.17 Q2311.29 1486.25 2304.97 1486.25 Q2302.79 1486.25 2300.52 1485.88 Q2298.28 1485.51 2295.87 1484.77 L2295.87 1480.07 Q2297.95 1481.2 2300.18 1481.76 Q2302.4 1482.32 2304.88 1482.32 Q2308.88 1482.32 2311.22 1480.21 Q2313.56 1478.1 2313.56 1474.49 Q2313.56 1470.88 2311.22 1468.77 Q2308.88 1466.67 2304.88 1466.67 Q2303 1466.67 2301.13 1467.08 Q2299.27 1467.5 2297.33 1468.38 L2297.33 1451.02 Z" fill="#000000" fill-rule="nonzero" fill-opacity="1" /><path clip-path="url(#clip450)" d="M1092.64 1525.81 L1092.64 1543.66 L1100.73 1543.66 Q1105.21 1543.66 1107.66 1541.34 Q1110.12 1539.02 1110.12 1534.72 Q1110.12 1530.45 1107.66 1528.13 Q1105.21 1525.81 1100.73 1525.81 L1092.64 1525.81 M1086.21 1520.52 L1100.73 1520.52 Q1108.72 1520.52 1112.79 1524.15 Q1116.9 1527.75 1116.9 1534.72 Q1116.9 1541.75 1112.79 1545.35 Q1108.72 1548.95 1100.73 1548.95 L1092.64 1548.95 L1092.64 1568.04 L1086.21 1568.04 L1086.21 1520.52 Z" fill="#000000" fill-rule="nonzero" fill-opacity="1" /><path clip-path="url(#clip450)" d="M1136.76 1536.5 Q1132.05 1536.5 1129.31 1540.19 Q1126.57 1543.85 1126.57 1550.25 Q1126.57 1556.65 1129.28 1560.34 Q1132.01 1564 1136.76 1564 Q1141.43 1564 1144.17 1560.31 Q1146.91 1556.62 1146.91 1550.25 Q1146.91 1543.92 1144.17 1540.23 Q1141.43 1536.5 1136.76 1536.5 M1136.76 1531.54 Q1144.39 1531.54 1148.76 1536.5 Q1153.12 1541.47 1153.12 1550.25 Q1153.12 1559 1148.76 1564 Q1144.39 1568.97 1136.76 1568.97 Q1129.09 1568.97 1124.72 1564 Q1120.4 1559 1120.4 1550.25 Q1120.4 1541.47 1124.72 1536.5 Q1129.09 1531.54 1136.76 1531.54 Z" fill="#000000" fill-rule="nonzero" fill-opacity="1" /><path clip-path="url(#clip450)" d="M1185.55 1533.45 L1185.55 1538.98 Q1183.07 1537.71 1180.39 1537.07 Q1177.72 1536.44 1174.85 1536.44 Q1170.49 1536.44 1168.3 1537.77 Q1166.13 1539.11 1166.13 1541.79 Q1166.13 1543.82 1167.69 1545 Q1169.25 1546.15 1173.96 1547.2 L1175.97 1547.64 Q1182.21 1548.98 1184.82 1551.43 Q1187.46 1553.85 1187.46 1558.21 Q1187.46 1563.17 1183.51 1566.07 Q1179.6 1568.97 1172.72 1568.97 Q1169.86 1568.97 1166.74 1568.39 Q1163.65 1567.85 1160.21 1566.74 L1160.21 1560.69 Q1163.46 1562.38 1166.61 1563.24 Q1169.76 1564.07 1172.85 1564.07 Q1176.99 1564.07 1179.22 1562.66 Q1181.44 1561.23 1181.44 1558.65 Q1181.44 1556.27 1179.82 1554.99 Q1178.23 1553.72 1172.79 1552.54 L1170.75 1552.07 Q1165.31 1550.92 1162.89 1548.56 Q1160.47 1546.18 1160.47 1542.04 Q1160.47 1537.01 1164.03 1534.27 Q1167.6 1531.54 1174.15 1531.54 Q1177.4 1531.54 1180.27 1532.01 Q1183.13 1532.49 1185.55 1533.45 Z" fill="#000000" fill-rule="nonzero" fill-opacity="1" /><path clip-path="url(#clip450)" d="M1196.78 1532.4 L1202.64 1532.4 L1202.64 1568.04 L1196.78 1568.04 L1196.78 1532.4 M1196.78 1518.52 L1202.64 1518.52 L1202.64 1525.93 L1196.78 1525.93 L1196.78 1518.52 Z" fill="#000000" fill-rule="nonzero" fill-opacity="1" /><path clip-path="url(#clip450)" d="M1220.69 1522.27 L1220.69 1532.4 L1232.75 1532.4 L1232.75 1536.95 L1220.69 1536.95 L1220.69 1556.3 Q1220.69 1560.66 1221.87 1561.9 Q1223.08 1563.14 1226.74 1563.14 L1232.75 1563.14 L1232.75 1568.04 L1226.74 1568.04 Q1219.96 1568.04 1217.38 1565.53 Q1214.8 1562.98 1214.8 1556.3 L1214.8 1536.95 L1210.5 1536.95 L1210.5 1532.4 L1214.8 1532.4 L1214.8 1522.27 L1220.69 1522.27 Z" fill="#000000" fill-rule="nonzero" fill-opacity="1" /><path clip-path="url(#clip450)" d="M1240.45 1532.4 L1246.31 1532.4 L1246.31 1568.04 L1240.45 1568.04 L1240.45 1532.4 M1240.45 1518.52 L1246.31 1518.52 L1246.31 1525.93 L1240.45 1525.93 L1240.45 1518.52 Z" fill="#000000" fill-rule="nonzero" fill-opacity="1" /><path clip-path="url(#clip450)" d="M1272.38 1536.5 Q1267.67 1536.5 1264.93 1540.19 Q1262.19 1543.85 1262.19 1550.25 Q1262.19 1556.65 1264.9 1560.34 Q1267.63 1564 1272.38 1564 Q1277.06 1564 1279.79 1560.31 Q1282.53 1556.62 1282.53 1550.25 Q1282.53 1543.92 1279.79 1540.23 Q1277.06 1536.5 1272.38 1536.5 M1272.38 1531.54 Q1280.02 1531.54 1284.38 1536.5 Q1288.74 1541.47 1288.74 1550.25 Q1288.74 1559 1284.38 1564 Q1280.02 1568.97 1272.38 1568.97 Q1264.71 1568.97 1260.35 1564 Q1256.02 1559 1256.02 1550.25 Q1256.02 1541.47 1260.35 1536.5 Q1264.71 1531.54 1272.38 1531.54 Z" fill="#000000" fill-rule="nonzero" fill-opacity="1" /><path clip-path="url(#clip450)" d="M1328.08 1546.53 L1328.08 1568.04 L1322.22 1568.04 L1322.22 1546.72 Q1322.22 1541.66 1320.25 1539.14 Q1318.27 1536.63 1314.33 1536.63 Q1309.58 1536.63 1306.85 1539.65 Q1304.11 1542.68 1304.11 1547.9 L1304.11 1568.04 L1298.22 1568.04 L1298.22 1532.4 L1304.11 1532.4 L1304.11 1537.93 Q1306.21 1534.72 1309.04 1533.13 Q1311.91 1531.54 1315.63 1531.54 Q1321.78 1531.54 1324.93 1535.36 Q1328.08 1539.14 1328.08 1546.53 Z" fill="#000000" fill-rule="nonzero" fill-opacity="1" /><path clip-path="url(#clip450)" d="M1374.55 1518.58 Q1370.28 1525.9 1368.21 1533.06 Q1366.14 1540.23 1366.14 1547.58 Q1366.14 1554.93 1368.21 1562.16 Q1370.31 1569.35 1374.55 1576.64 L1369.45 1576.64 Q1364.68 1569.16 1362.29 1561.93 Q1359.94 1554.71 1359.94 1547.58 Q1359.94 1540.48 1362.29 1533.29 Q1364.65 1526.09 1369.45 1518.58 L1374.55 1518.58 Z" fill="#000000" fill-rule="nonzero" fill-opacity="1" /><path clip-path="url(#clip450)" d="M1411.56 1533.76 L1411.56 1539.24 Q1409.08 1537.87 1406.57 1537.2 Q1404.08 1536.5 1401.54 1536.5 Q1395.84 1536.5 1392.69 1540.13 Q1389.54 1543.73 1389.54 1550.25 Q1389.54 1556.78 1392.69 1560.4 Q1395.84 1564 1401.54 1564 Q1404.08 1564 1406.57 1563.33 Q1409.08 1562.63 1411.56 1561.26 L1411.56 1566.68 Q1409.11 1567.82 1406.47 1568.39 Q1403.86 1568.97 1400.9 1568.97 Q1392.85 1568.97 1388.11 1563.91 Q1383.36 1558.85 1383.36 1550.25 Q1383.36 1541.53 1388.14 1536.53 Q1392.94 1531.54 1401.28 1531.54 Q1403.99 1531.54 1406.57 1532.11 Q1409.14 1532.65 1411.56 1533.76 Z" fill="#000000" fill-rule="nonzero" fill-opacity="1" /><path clip-path="url(#clip450)" d="M1449.5 1539.24 Q1451.7 1535.29 1454.75 1533.41 Q1457.81 1531.54 1461.95 1531.54 Q1467.52 1531.54 1470.54 1535.45 Q1473.57 1539.33 1473.57 1546.53 L1473.57 1568.04 L1467.68 1568.04 L1467.68 1546.72 Q1467.68 1541.59 1465.86 1539.11 Q1464.05 1536.63 1460.32 1536.63 Q1455.77 1536.63 1453.13 1539.65 Q1450.49 1542.68 1450.49 1547.9 L1450.49 1568.04 L1444.6 1568.04 L1444.6 1546.72 Q1444.6 1541.56 1442.79 1539.11 Q1440.97 1536.63 1437.19 1536.63 Q1432.7 1536.63 1430.06 1539.68 Q1427.41 1542.71 1427.41 1547.9 L1427.41 1568.04 L1421.53 1568.04 L1421.53 1532.4 L1427.41 1532.4 L1427.41 1537.93 Q1429.42 1534.66 1432.22 1533.1 Q1435.02 1531.54 1438.87 1531.54 Q1442.76 1531.54 1445.46 1533.51 Q1448.2 1535.48 1449.5 1539.24 Z" fill="#000000" fill-rule="nonzero" fill-opacity="1" /><path clip-path="url(#clip450)" d="M1484.32 1518.58 L1489.42 1518.58 Q1494.19 1526.09 1496.55 1533.29 Q1498.93 1540.48 1498.93 1547.58 Q1498.93 1554.71 1496.55 1561.93 Q1494.19 1569.16 1489.42 1576.64 L1484.32 1576.64 Q1488.56 1569.35 1490.63 1562.16 Q1492.73 1554.93 1492.73 1547.58 Q1492.73 1540.23 1490.63 1533.06 Q1488.56 1525.9 1484.32 1518.58 Z" fill="#000000" fill-rule="nonzero" fill-opacity="1" /><polyline clip-path="url(#clip450)" style="stroke:#000000; stroke-linecap:round; stroke-linejoin:round; stroke-width:4; stroke-opacity:1; fill:none" points="232.389,1423.18 232.389,123.472 "/>
<polyline clip-path="url(#clip450)" style="stroke:#000000; stroke-linecap:round; stroke-linejoin:round; stroke-width:4; stroke-opacity:1; fill:none" points="232.389,1386.4 251.287,1386.4 "/>
<polyline clip-path="url(#clip450)" style="stroke:#000000; stroke-linecap:round; stroke-linejoin:round; stroke-width:4; stroke-opacity:1; fill:none" points="232.389,1010.28 251.287,1010.28 "/>
<polyline clip-path="url(#clip450)" style="stroke:#000000; stroke-linecap:round; stroke-linejoin:round; stroke-width:4; stroke-opacity:1; fill:none" points="232.389,634.163 251.287,634.163 "/>
<polyline clip-path="url(#clip450)" style="stroke:#000000; stroke-linecap:round; stroke-linejoin:round; stroke-width:4; stroke-opacity:1; fill:none" points="232.389,258.047 251.287,258.047 "/>
<path clip-path="url(#clip450)" d="M184.445 1372.19 Q180.834 1372.19 179.005 1375.76 Q177.2 1379.3 177.2 1386.43 Q177.2 1393.54 179.005 1397.1 Q180.834 1400.64 184.445 1400.64 Q188.079 1400.64 189.885 1397.1 Q191.713 1393.54 191.713 1386.43 Q191.713 1379.3 189.885 1375.76 Q188.079 1372.19 184.445 1372.19 M184.445 1368.49 Q190.255 1368.49 193.311 1373.1 Q196.389 1377.68 196.389 1386.43 Q196.389 1395.16 193.311 1399.76 Q190.255 1404.35 184.445 1404.35 Q178.635 1404.35 175.556 1399.76 Q172.501 1395.16 172.501 1386.43 Q172.501 1377.68 175.556 1373.1 Q178.635 1368.49 184.445 1368.49 Z" fill="#000000" fill-rule="nonzero" fill-opacity="1" /><path clip-path="url(#clip450)" d="M144.329 992.999 L162.686 992.999 L162.686 996.934 L148.612 996.934 L148.612 1005.41 Q149.63 1005.06 150.649 1004.9 Q151.667 1004.71 152.686 1004.71 Q158.473 1004.71 161.852 1007.88 Q165.232 1011.05 165.232 1016.47 Q165.232 1022.05 161.76 1025.15 Q158.288 1028.23 151.968 1028.23 Q149.792 1028.23 147.524 1027.86 Q145.279 1027.49 142.871 1026.75 L142.871 1022.05 Q144.954 1023.18 147.177 1023.74 Q149.399 1024.3 151.876 1024.3 Q155.88 1024.3 158.218 1022.19 Q160.556 1020.08 160.556 1016.47 Q160.556 1012.86 158.218 1010.75 Q155.88 1008.65 151.876 1008.65 Q150.001 1008.65 148.126 1009.06 Q146.274 1009.48 144.329 1010.36 L144.329 992.999 Z" fill="#000000" fill-rule="nonzero" fill-opacity="1" /><path clip-path="url(#clip450)" d="M184.445 996.078 Q180.834 996.078 179.005 999.643 Q177.2 1003.18 177.2 1010.31 Q177.2 1017.42 179.005 1020.99 Q180.834 1024.53 184.445 1024.53 Q188.079 1024.53 189.885 1020.99 Q191.713 1017.42 191.713 1010.31 Q191.713 1003.18 189.885 999.643 Q188.079 996.078 184.445 996.078 M184.445 992.374 Q190.255 992.374 193.311 996.981 Q196.389 1001.56 196.389 1010.31 Q196.389 1019.04 193.311 1023.65 Q190.255 1028.23 184.445 1028.23 Q178.635 1028.23 175.556 1023.65 Q172.501 1019.04 172.501 1010.31 Q172.501 1001.56 175.556 996.981 Q178.635 992.374 184.445 992.374 Z" fill="#000000" fill-rule="nonzero" fill-opacity="1" /><path clip-path="url(#clip450)" d="M114.931 647.508 L122.57 647.508 L122.57 621.142 L114.26 622.809 L114.26 618.55 L122.524 616.883 L127.2 616.883 L127.2 647.508 L134.839 647.508 L134.839 651.443 L114.931 651.443 L114.931 647.508 Z" fill="#000000" fill-rule="nonzero" fill-opacity="1" /><path clip-path="url(#clip450)" d="M154.283 619.962 Q150.672 619.962 148.843 623.526 Q147.038 627.068 147.038 634.198 Q147.038 641.304 148.843 644.869 Q150.672 648.411 154.283 648.411 Q157.917 648.411 159.723 644.869 Q161.552 641.304 161.552 634.198 Q161.552 627.068 159.723 623.526 Q157.917 619.962 154.283 619.962 M154.283 616.258 Q160.093 616.258 163.149 620.864 Q166.227 625.448 166.227 634.198 Q166.227 642.924 163.149 647.531 Q160.093 652.114 154.283 652.114 Q148.473 652.114 145.394 647.531 Q142.339 642.924 142.339 634.198 Q142.339 625.448 145.394 620.864 Q148.473 616.258 154.283 616.258 Z" fill="#000000" fill-rule="nonzero" fill-opacity="1" /><path clip-path="url(#clip450)" d="M184.445 619.962 Q180.834 619.962 179.005 623.526 Q177.2 627.068 177.2 634.198 Q177.2 641.304 179.005 644.869 Q180.834 648.411 184.445 648.411 Q188.079 648.411 189.885 644.869 Q191.713 641.304 191.713 634.198 Q191.713 627.068 189.885 623.526 Q188.079 619.962 184.445 619.962 M184.445 616.258 Q190.255 616.258 193.311 620.864 Q196.389 625.448 196.389 634.198 Q196.389 642.924 193.311 647.531 Q190.255 652.114 184.445 652.114 Q178.635 652.114 175.556 647.531 Q172.501 642.924 172.501 634.198 Q172.501 625.448 175.556 620.864 Q178.635 616.258 184.445 616.258 Z" fill="#000000" fill-rule="nonzero" fill-opacity="1" /><path clip-path="url(#clip450)" d="M114.931 271.391 L122.57 271.391 L122.57 245.026 L114.26 246.692 L114.26 242.433 L122.524 240.767 L127.2 240.767 L127.2 271.391 L134.839 271.391 L134.839 275.327 L114.931 275.327 L114.931 271.391 Z" fill="#000000" fill-rule="nonzero" fill-opacity="1" /><path clip-path="url(#clip450)" d="M144.329 240.767 L162.686 240.767 L162.686 244.702 L148.612 244.702 L148.612 253.174 Q149.63 252.827 150.649 252.665 Q151.667 252.479 152.686 252.479 Q158.473 252.479 161.852 255.651 Q165.232 258.822 165.232 264.239 Q165.232 269.817 161.76 272.919 Q158.288 275.998 151.968 275.998 Q149.792 275.998 147.524 275.627 Q145.279 275.257 142.871 274.516 L142.871 269.817 Q144.954 270.952 147.177 271.507 Q149.399 272.063 151.876 272.063 Q155.88 272.063 158.218 269.956 Q160.556 267.85 160.556 264.239 Q160.556 260.628 158.218 258.521 Q155.88 256.415 151.876 256.415 Q150.001 256.415 148.126 256.831 Q146.274 257.248 144.329 258.128 L144.329 240.767 Z" fill="#000000" fill-rule="nonzero" fill-opacity="1" /><path clip-path="url(#clip450)" d="M184.445 243.845 Q180.834 243.845 179.005 247.41 Q177.2 250.952 177.2 258.081 Q177.2 265.188 179.005 268.753 Q180.834 272.294 184.445 272.294 Q188.079 272.294 189.885 268.753 Q191.713 265.188 191.713 258.081 Q191.713 250.952 189.885 247.41 Q188.079 243.845 184.445 243.845 M184.445 240.142 Q190.255 240.142 193.311 244.748 Q196.389 249.331 196.389 258.081 Q196.389 266.808 193.311 271.415 Q190.255 275.998 184.445 275.998 Q178.635 275.998 175.556 271.415 Q172.501 266.808 172.501 258.081 Q172.501 249.331 175.556 244.748 Q178.635 240.142 184.445 240.142 Z" fill="#000000" fill-rule="nonzero" fill-opacity="1" /><path clip-path="url(#clip450)" d="M20.1444 945.009 L26.9239 945.009 Q23.9002 948.256 22.4043 951.948 Q20.9083 955.608 20.9083 959.746 Q20.9083 967.894 25.9054 972.222 Q30.8707 976.551 40.2919 976.551 Q49.6813 976.551 54.6784 972.222 Q59.6436 967.894 59.6436 959.746 Q59.6436 955.608 58.1477 951.948 Q56.6518 948.256 53.6281 945.009 L60.3439 945.009 Q62.6355 948.383 63.7814 952.171 Q64.9272 955.926 64.9272 960.128 Q64.9272 970.918 58.3387 977.124 Q51.7183 983.331 40.2919 983.331 Q28.8336 983.331 22.2451 977.124 Q15.6248 970.918 15.6248 960.128 Q15.6248 955.863 16.7706 952.107 Q17.8846 948.319 20.1444 945.009 Z" fill="#000000" fill-rule="nonzero" fill-opacity="1" /><path clip-path="url(#clip450)" d="M32.4621 921.52 Q32.4621 926.23 36.1542 928.968 Q39.8145 931.705 46.212 931.705 Q52.6095 931.705 56.3017 928.999 Q59.9619 926.262 59.9619 921.52 Q59.9619 916.841 56.2698 914.104 Q52.5777 911.366 46.212 911.366 Q39.8781 911.366 36.186 914.104 Q32.4621 916.841 32.4621 921.52 M27.4968 921.52 Q27.4968 913.881 32.4621 909.52 Q37.4273 905.16 46.212 905.16 Q54.9649 905.16 59.9619 909.52 Q64.9272 913.881 64.9272 921.52 Q64.9272 929.19 59.9619 933.551 Q54.9649 937.88 46.212 937.88 Q37.4273 937.88 32.4621 933.551 Q27.4968 929.19 27.4968 921.52 Z" fill="#000000" fill-rule="nonzero" fill-opacity="1" /><path clip-path="url(#clip450)" d="M49.9359 896.057 L28.3562 896.057 L28.3562 890.2 L49.7131 890.2 Q54.7739 890.2 57.3202 888.227 Q59.8346 886.254 59.8346 882.307 Q59.8346 877.564 56.8109 874.827 Q53.7872 872.058 48.5673 872.058 L28.3562 872.058 L28.3562 866.202 L64.0042 866.202 L64.0042 872.058 L58.5296 872.058 Q61.7762 874.191 63.3676 877.023 Q64.9272 879.824 64.9272 883.548 Q64.9272 889.691 61.1078 892.874 Q57.2883 896.057 49.9359 896.057 M27.4968 881.32 L27.4968 881.32 Z" fill="#000000" fill-rule="nonzero" fill-opacity="1" /><path clip-path="url(#clip450)" d="M42.4881 824.506 L64.0042 824.506 L64.0042 830.363 L42.679 830.363 Q37.6183 830.363 35.1038 832.336 Q32.5894 834.309 32.5894 838.256 Q32.5894 842.999 35.6131 845.736 Q38.6368 848.473 43.8567 848.473 L64.0042 848.473 L64.0042 854.361 L28.3562 854.361 L28.3562 848.473 L33.8944 848.473 Q30.6797 846.372 29.0883 843.54 Q27.4968 840.675 27.4968 836.951 Q27.4968 830.808 31.3163 827.657 Q35.1038 824.506 42.4881 824.506 Z" fill="#000000" fill-rule="nonzero" fill-opacity="1" /><path clip-path="url(#clip450)" d="M18.2347 807.032 L28.3562 807.032 L28.3562 794.969 L32.9077 794.969 L32.9077 807.032 L52.2594 807.032 Q56.6199 807.032 57.8613 805.855 Q59.1026 804.645 59.1026 800.985 L59.1026 794.969 L64.0042 794.969 L64.0042 800.985 Q64.0042 807.764 61.4897 810.343 Q58.9434 812.921 52.2594 812.921 L32.9077 812.921 L32.9077 817.218 L28.3562 817.218 L28.3562 812.921 L18.2347 812.921 L18.2347 807.032 Z" fill="#000000" fill-rule="nonzero" fill-opacity="1" /><path clip-path="url(#clip450)" d="M29.4065 764.541 L34.9447 764.541 Q33.6716 767.024 33.035 769.698 Q32.3984 772.371 32.3984 775.236 Q32.3984 779.596 33.7352 781.792 Q35.072 783.957 37.7456 783.957 Q39.7826 783.957 40.9603 782.397 Q42.1061 780.838 43.1565 776.127 L43.6021 774.122 Q44.9389 767.883 47.3897 765.273 Q49.8086 762.632 54.1691 762.632 Q59.1344 762.632 62.0308 766.578 Q64.9272 770.493 64.9272 777.368 Q64.9272 780.233 64.3543 783.352 Q63.8132 786.439 62.6992 789.877 L56.6518 789.877 Q58.3387 786.63 59.198 783.479 Q60.0256 780.328 60.0256 777.241 Q60.0256 773.103 58.6251 770.875 Q57.1929 768.647 54.6147 768.647 Q52.2276 768.647 50.9545 770.27 Q49.6813 771.862 48.5037 777.305 L48.0262 779.342 Q46.8804 784.784 44.5251 787.203 Q42.138 789.622 38.0002 789.622 Q32.9713 789.622 30.2341 786.057 Q27.4968 782.493 27.4968 775.936 Q27.4968 772.689 27.9743 769.825 Q28.4517 766.96 29.4065 764.541 Z" fill="#000000" fill-rule="nonzero" fill-opacity="1" /><path clip-path="url(#clip450)" d="M28.3562 732.585 L28.3562 726.729 L64.0042 726.729 L64.0042 732.585 L28.3562 732.585 M14.479 732.585 L14.479 726.729 L21.895 726.729 L21.895 732.585 L14.479 732.585 Z" fill="#000000" fill-rule="nonzero" fill-opacity="1" /><path clip-path="url(#clip450)" d="M42.4881 684.843 L64.0042 684.843 L64.0042 690.699 L42.679 690.699 Q37.6183 690.699 35.1038 692.672 Q32.5894 694.646 32.5894 698.593 Q32.5894 703.335 35.6131 706.072 Q38.6368 708.81 43.8567 708.81 L64.0042 708.81 L64.0042 714.698 L28.3562 714.698 L28.3562 708.81 L33.8944 708.81 Q30.6797 706.709 29.0883 703.876 Q27.4968 701.012 27.4968 697.288 Q27.4968 691.145 31.3163 687.994 Q35.1038 684.843 42.4881 684.843 Z" fill="#000000" fill-rule="nonzero" fill-opacity="1" /><path clip-path="url(#clip450)" d="M46.212 626.851 Q39.7508 626.851 36.0905 629.525 Q32.3984 632.166 32.3984 636.813 Q32.3984 641.46 36.0905 644.134 Q39.7508 646.776 46.212 646.776 Q52.6732 646.776 56.3653 644.134 Q60.0256 641.46 60.0256 636.813 Q60.0256 632.166 56.3653 629.525 Q52.6732 626.851 46.212 626.851 M33.7671 646.776 Q30.5842 644.93 29.0564 642.129 Q27.4968 639.296 27.4968 635.381 Q27.4968 628.888 32.6531 624.846 Q37.8093 620.772 46.212 620.772 Q54.6147 620.772 59.771 624.846 Q64.9272 628.888 64.9272 635.381 Q64.9272 639.296 63.3994 642.129 Q61.8398 644.93 58.657 646.776 L64.0042 646.776 L64.0042 652.664 L14.479 652.664 L14.479 646.776 L33.7671 646.776 Z" fill="#000000" fill-rule="nonzero" fill-opacity="1" /><path clip-path="url(#clip450)" d="M28.3562 611.064 L28.3562 605.208 L64.0042 605.208 L64.0042 611.064 L28.3562 611.064 M14.479 611.064 L14.479 605.208 L21.895 605.208 L21.895 611.064 L14.479 611.064 Z" fill="#000000" fill-rule="nonzero" fill-opacity="1" /><path clip-path="url(#clip450)" d="M42.4881 563.321 L64.0042 563.321 L64.0042 569.178 L42.679 569.178 Q37.6183 569.178 35.1038 571.151 Q32.5894 573.125 32.5894 577.071 Q32.5894 581.814 35.6131 584.551 Q38.6368 587.288 43.8567 587.288 L64.0042 587.288 L64.0042 593.176 L28.3562 593.176 L28.3562 587.288 L33.8944 587.288 Q30.6797 585.188 29.0883 582.355 Q27.4968 579.49 27.4968 575.766 Q27.4968 569.623 31.3163 566.472 Q35.1038 563.321 42.4881 563.321 Z" fill="#000000" fill-rule="nonzero" fill-opacity="1" /><path clip-path="url(#clip450)" d="M895.341 12.096 L904.131 12.096 L919.16 34.5785 L934.27 12.096 L943.061 12.096 L923.616 41.141 L944.357 72.576 L935.566 72.576 L918.553 46.8528 L901.417 72.576 L892.586 72.576 L914.178 40.2903 L895.341 12.096 Z" fill="#000000" fill-rule="nonzero" fill-opacity="1" /><path clip-path="url(#clip450)" d="M1001.76 49.7694 Q992.725 49.7694 989.241 51.8354 Q985.757 53.9013 985.757 58.8839 Q985.757 62.8538 988.35 65.2034 Q990.983 67.5124 995.479 67.5124 Q1001.68 67.5124 1005.4 63.1374 Q1009.17 58.7219 1009.17 51.4303 L1009.17 49.7694 L1001.76 49.7694 M1016.63 46.6907 L1016.63 72.576 L1009.17 72.576 L1009.17 65.6895 Q1006.62 69.8214 1002.81 71.8063 Q999.004 73.7508 993.494 73.7508 Q986.527 73.7508 982.395 69.8619 Q978.303 65.9325 978.303 59.3701 Q978.303 51.7138 983.408 47.825 Q988.552 43.9361 998.72 43.9361 L1009.17 43.9361 L1009.17 43.2069 Q1009.17 38.0623 1005.77 35.2672 Q1002.41 32.4315 996.289 32.4315 Q992.401 32.4315 988.714 33.3632 Q985.028 34.295 981.625 36.1584 L981.625 29.2718 Q985.717 27.692 989.565 26.9223 Q993.413 26.1121 997.059 26.1121 Q1006.9 26.1121 1011.76 31.2163 Q1016.63 36.3204 1016.63 46.6907 Z" fill="#000000" fill-rule="nonzero" fill-opacity="1" /><path clip-path="url(#clip450)" d="M1069.69 45.1919 L1069.69 72.576 L1062.24 72.576 L1062.24 45.4349 Q1062.24 38.994 1059.73 35.7938 Q1057.22 32.5936 1052.19 32.5936 Q1046.16 32.5936 1042.67 36.4419 Q1039.19 40.2903 1039.19 46.9338 L1039.19 72.576 L1031.69 72.576 L1031.69 27.2059 L1039.19 27.2059 L1039.19 34.2544 Q1041.86 30.163 1045.47 28.1376 Q1049.11 26.1121 1053.85 26.1121 Q1061.67 26.1121 1065.68 30.9732 Q1069.69 35.7938 1069.69 45.1919 Z" fill="#000000" fill-rule="nonzero" fill-opacity="1" /><path clip-path="url(#clip450)" d="M1114.41 34.0924 L1114.41 9.54393 L1121.87 9.54393 L1121.87 72.576 L1114.41 72.576 L1114.41 65.7705 Q1112.06 69.8214 1108.46 71.8063 Q1104.89 73.7508 1099.87 73.7508 Q1091.65 73.7508 1086.46 67.1883 Q1081.32 60.6258 1081.32 49.9314 Q1081.32 39.2371 1086.46 32.6746 Q1091.65 26.1121 1099.87 26.1121 Q1104.89 26.1121 1108.46 28.0971 Q1112.06 30.0415 1114.41 34.0924 M1089.01 49.9314 Q1089.01 58.1548 1092.38 62.8538 Q1095.78 67.5124 1101.69 67.5124 Q1107.61 67.5124 1111.01 62.8538 Q1114.41 58.1548 1114.41 49.9314 Q1114.41 41.7081 1111.01 37.0496 Q1107.61 32.3505 1101.69 32.3505 Q1095.78 32.3505 1092.38 37.0496 Q1089.01 41.7081 1089.01 49.9314 Z" fill="#000000" fill-rule="nonzero" fill-opacity="1" /><path clip-path="url(#clip450)" d="M1155.61 12.096 L1164.4 12.096 L1181.17 36.9686 L1197.82 12.096 L1206.61 12.096 L1185.22 43.7741 L1185.22 72.576 L1177 72.576 L1177 43.7741 L1155.61 12.096 Z" fill="#000000" fill-rule="nonzero" fill-opacity="1" /><path clip-path="url(#clip450)" d="M1278.35 45.1919 L1278.35 72.576 L1270.9 72.576 L1270.9 45.4349 Q1270.9 38.994 1268.39 35.7938 Q1265.88 32.5936 1260.85 32.5936 Q1254.82 32.5936 1251.33 36.4419 Q1247.85 40.2903 1247.85 46.9338 L1247.85 72.576 L1240.36 72.576 L1240.36 9.54393 L1247.85 9.54393 L1247.85 34.2544 Q1250.52 30.163 1254.13 28.1376 Q1257.78 26.1121 1262.51 26.1121 Q1270.33 26.1121 1274.34 30.9732 Q1278.35 35.7938 1278.35 45.1919 Z" fill="#000000" fill-rule="nonzero" fill-opacity="1" /><path clip-path="url(#clip450)" d="M1293.22 27.2059 L1300.67 27.2059 L1300.67 72.576 L1293.22 72.576 L1293.22 27.2059 M1293.22 9.54393 L1300.67 9.54393 L1300.67 18.9825 L1293.22 18.9825 L1293.22 9.54393 Z" fill="#000000" fill-rule="nonzero" fill-opacity="1" /><path clip-path="url(#clip450)" d="M1345.19 28.5427 L1345.19 35.5912 Q1342.03 33.9709 1338.63 33.1607 Q1335.23 32.3505 1331.58 32.3505 Q1326.03 32.3505 1323.24 34.0519 Q1320.48 35.7533 1320.48 39.156 Q1320.48 41.7486 1322.47 43.2475 Q1324.45 44.7058 1330.45 46.0426 L1333 46.6097 Q1340.94 48.3111 1344.26 51.4303 Q1347.62 54.509 1347.62 60.0587 Q1347.62 66.3781 1342.6 70.0644 Q1337.62 73.7508 1328.87 73.7508 Q1325.22 73.7508 1321.25 73.0216 Q1317.32 72.3329 1312.95 70.9151 L1312.95 63.2184 Q1317.08 65.3654 1321.09 66.4591 Q1325.1 67.5124 1329.03 67.5124 Q1334.3 67.5124 1337.13 65.73 Q1339.97 63.9071 1339.97 60.6258 Q1339.97 57.5877 1337.9 55.9673 Q1335.88 54.3469 1328.95 52.8481 L1326.36 52.2405 Q1319.43 50.7821 1316.35 47.7845 Q1313.27 44.7463 1313.27 39.4801 Q1313.27 33.0797 1317.81 29.5959 Q1322.35 26.1121 1330.69 26.1121 Q1334.82 26.1121 1338.47 26.7198 Q1342.12 27.3274 1345.19 28.5427 Z" fill="#000000" fill-rule="nonzero" fill-opacity="1" /><path clip-path="url(#clip450)" d="M1366.87 14.324 L1366.87 27.2059 L1382.22 27.2059 L1382.22 32.9987 L1366.87 32.9987 L1366.87 57.6282 Q1366.87 63.1779 1368.37 64.7578 Q1369.9 66.3376 1374.56 66.3376 L1382.22 66.3376 L1382.22 72.576 L1374.56 72.576 Q1365.93 72.576 1362.65 69.3758 Q1359.37 66.1351 1359.37 57.6282 L1359.37 32.9987 L1353.9 32.9987 L1353.9 27.2059 L1359.37 27.2059 L1359.37 14.324 L1366.87 14.324 Z" fill="#000000" fill-rule="nonzero" fill-opacity="1" /><path clip-path="url(#clip450)" d="M1409.6 32.4315 Q1403.61 32.4315 1400.12 37.1306 Q1396.64 41.7891 1396.64 49.9314 Q1396.64 58.0738 1400.08 62.7728 Q1403.57 67.4314 1409.6 67.4314 Q1415.56 67.4314 1419.04 62.7323 Q1422.53 58.0333 1422.53 49.9314 Q1422.53 41.8701 1419.04 37.1711 Q1415.56 32.4315 1409.6 32.4315 M1409.6 26.1121 Q1419.33 26.1121 1424.88 32.4315 Q1430.42 38.7509 1430.42 49.9314 Q1430.42 61.0714 1424.88 67.4314 Q1419.33 73.7508 1409.6 73.7508 Q1399.84 73.7508 1394.29 67.4314 Q1388.78 61.0714 1388.78 49.9314 Q1388.78 38.7509 1394.29 32.4315 Q1399.84 26.1121 1409.6 26.1121 Z" fill="#000000" fill-rule="nonzero" fill-opacity="1" /><path clip-path="url(#clip450)" d="M1472.64 49.3643 Q1472.64 41.2625 1469.27 36.8065 Q1465.95 32.3505 1459.92 32.3505 Q1453.92 32.3505 1450.56 36.8065 Q1447.24 41.2625 1447.24 49.3643 Q1447.24 57.4256 1450.56 61.8816 Q1453.92 66.3376 1459.92 66.3376 Q1465.95 66.3376 1469.27 61.8816 Q1472.64 57.4256 1472.64 49.3643 M1480.09 66.9452 Q1480.09 78.5308 1474.94 84.1616 Q1469.8 89.8329 1459.19 89.8329 Q1455.26 89.8329 1451.77 89.2252 Q1448.29 88.6581 1445.01 87.4428 L1445.01 80.1917 Q1448.29 81.9741 1451.49 82.8248 Q1454.69 83.6755 1458.01 83.6755 Q1465.34 83.6755 1468.99 79.8271 Q1472.64 76.0193 1472.64 68.282 L1472.64 64.5957 Q1470.33 68.6061 1466.72 70.5911 Q1463.12 72.576 1458.09 72.576 Q1449.75 72.576 1444.64 66.2161 Q1439.54 59.8562 1439.54 49.3643 Q1439.54 38.832 1444.64 32.472 Q1449.75 26.1121 1458.09 26.1121 Q1463.12 26.1121 1466.72 28.0971 Q1470.33 30.082 1472.64 34.0924 L1472.64 27.2059 L1480.09 27.2059 L1480.09 66.9452 Z" fill="#000000" fill-rule="nonzero" fill-opacity="1" /><path clip-path="url(#clip450)" d="M1521.73 34.1734 Q1520.48 33.4443 1518.98 33.1202 Q1517.52 32.7556 1515.74 32.7556 Q1509.42 32.7556 1506.01 36.8875 Q1502.65 40.9789 1502.65 48.6757 L1502.65 72.576 L1495.16 72.576 L1495.16 27.2059 L1502.65 27.2059 L1502.65 34.2544 Q1505 30.1225 1508.77 28.1376 Q1512.54 26.1121 1517.92 26.1121 Q1518.69 26.1121 1519.63 26.2337 Q1520.56 26.3147 1521.69 26.5172 L1521.73 34.1734 Z" fill="#000000" fill-rule="nonzero" fill-opacity="1" /><path clip-path="url(#clip450)" d="M1550.17 49.7694 Q1541.14 49.7694 1537.65 51.8354 Q1534.17 53.9013 1534.17 58.8839 Q1534.17 62.8538 1536.76 65.2034 Q1539.39 67.5124 1543.89 67.5124 Q1550.09 67.5124 1553.82 63.1374 Q1557.58 58.7219 1557.58 51.4303 L1557.58 49.7694 L1550.17 49.7694 M1565.04 46.6907 L1565.04 72.576 L1557.58 72.576 L1557.58 65.6895 Q1555.03 69.8214 1551.22 71.8063 Q1547.42 73.7508 1541.91 73.7508 Q1534.94 73.7508 1530.81 69.8619 Q1526.71 65.9325 1526.71 59.3701 Q1526.71 51.7138 1531.82 47.825 Q1536.96 43.9361 1547.13 43.9361 L1557.58 43.9361 L1557.58 43.2069 Q1557.58 38.0623 1554.18 35.2672 Q1550.82 32.4315 1544.7 32.4315 Q1540.81 32.4315 1537.13 33.3632 Q1533.44 34.295 1530.04 36.1584 L1530.04 29.2718 Q1534.13 27.692 1537.98 26.9223 Q1541.82 26.1121 1545.47 26.1121 Q1555.31 26.1121 1560.18 31.2163 Q1565.04 36.3204 1565.04 46.6907 Z" fill="#000000" fill-rule="nonzero" fill-opacity="1" /><path clip-path="url(#clip450)" d="M1615.71 35.9153 Q1618.51 30.8922 1622.4 28.5022 Q1626.29 26.1121 1631.55 26.1121 Q1638.64 26.1121 1642.49 31.0947 Q1646.34 36.0368 1646.34 45.1919 L1646.34 72.576 L1638.84 72.576 L1638.84 45.4349 Q1638.84 38.913 1636.53 35.7533 Q1634.23 32.5936 1629.49 32.5936 Q1623.69 32.5936 1620.33 36.4419 Q1616.97 40.2903 1616.97 46.9338 L1616.97 72.576 L1609.47 72.576 L1609.47 45.4349 Q1609.47 38.8725 1607.17 35.7533 Q1604.86 32.5936 1600.04 32.5936 Q1594.32 32.5936 1590.96 36.4824 Q1587.6 40.3308 1587.6 46.9338 L1587.6 72.576 L1580.11 72.576 L1580.11 27.2059 L1587.6 27.2059 L1587.6 34.2544 Q1590.15 30.082 1593.72 28.0971 Q1597.28 26.1121 1602.18 26.1121 Q1607.13 26.1121 1610.57 28.6237 Q1614.05 31.1352 1615.71 35.9153 Z" fill="#000000" fill-rule="nonzero" fill-opacity="1" /><path clip-path="url(#clip450)" d="M1690.13 28.5427 L1690.13 35.5912 Q1686.97 33.9709 1683.57 33.1607 Q1680.16 32.3505 1676.52 32.3505 Q1670.97 32.3505 1668.17 34.0519 Q1665.42 35.7533 1665.42 39.156 Q1665.42 41.7486 1667.4 43.2475 Q1669.39 44.7058 1675.38 46.0426 L1677.94 46.6097 Q1685.87 48.3111 1689.2 51.4303 Q1692.56 54.509 1692.56 60.0587 Q1692.56 66.3781 1687.54 70.0644 Q1682.55 73.7508 1673.8 73.7508 Q1670.16 73.7508 1666.19 73.0216 Q1662.26 72.3329 1657.88 70.9151 L1657.88 63.2184 Q1662.02 65.3654 1666.03 66.4591 Q1670.04 67.5124 1673.97 67.5124 Q1679.23 67.5124 1682.07 65.73 Q1684.9 63.9071 1684.9 60.6258 Q1684.9 57.5877 1682.84 55.9673 Q1680.81 54.3469 1673.88 52.8481 L1671.29 52.2405 Q1664.36 50.7821 1661.29 47.7845 Q1658.21 44.7463 1658.21 39.4801 Q1658.21 33.0797 1662.74 29.5959 Q1667.28 26.1121 1675.63 26.1121 Q1679.76 26.1121 1683.4 26.7198 Q1687.05 27.3274 1690.13 28.5427 Z" fill="#000000" fill-rule="nonzero" fill-opacity="1" /><polyline clip-path="url(#clip452)" style="stroke:#009af9; stroke-linecap:round; stroke-linejoin:round; stroke-width:4; stroke-opacity:1; fill:none" points="292.4,1386.4 292.4,363.359 325.739,363.359 325.739,506.283 359.078,506.283 359.078,273.091 392.417,273.091 392.417,408.493 425.756,408.493 425.756,340.792 459.095,340.792 459.095,378.404 492.434,378.404 492.434,438.582 525.773,438.582 525.773,258.047 559.112,258.047 559.112,446.105 592.452,446.105 592.452,498.761 625.791,498.761 625.791,446.105 659.13,446.105 659.13,310.703 692.469,310.703 692.469,408.493 725.808,408.493 725.808,258.047 759.147,258.047 759.147,400.971 792.486,400.971 792.486,370.881 825.825,370.881 859.164,370.881 859.164,566.462 892.503,566.462 892.503,468.672 925.843,468.672 925.843,363.359 959.182,363.359 959.182,400.971 992.521,400.971 992.521,355.837 1025.86,355.837 1025.86,310.703 1059.2,310.703 1059.2,400.971 1092.54,400.971 1092.54,385.926 1125.88,385.926 1125.88,280.614 1159.22,280.614 1159.22,265.569 1192.56,265.569 1192.56,416.015 1225.89,416.015 1225.89,400.971 1259.23,400.971 1259.23,393.448 1292.57,393.448 1292.57,385.926 1325.91,385.926 1325.91,167.779 1359.25,167.779 1359.25,355.837 1392.59,355.837 1392.59,212.913 1425.93,212.913 1425.93,318.225 1459.27,318.225 1459.27,227.957 1492.61,227.957 1492.61,370.881 1525.95,370.881 1525.95,340.792 1559.29,340.792 1559.29,438.582 1592.62,438.582 1592.62,235.48 1625.96,235.48 1625.96,288.136 1659.3,288.136 1659.3,220.435 1692.64,220.435 1725.98,220.435 1725.98,385.926 1759.32,385.926 1759.32,280.614 1792.66,280.614 1792.66,273.091 1826,273.091 1826,468.672 1859.34,468.672 1859.34,416.015 1892.68,416.015 1892.68,468.672 1926.02,468.672 1926.02,310.703 1959.35,310.703 1959.35,258.047 1992.69,258.047 1992.69,348.314 2026.03,348.314 2026.03,536.373 2059.37,536.373 2059.37,265.569 2092.71,265.569 2092.71,348.314 2126.05,348.314 2126.05,611.596 2159.39,611.596 2159.39,265.569 2192.73,265.569 2192.73,408.493 2226.07,408.493 2226.07,491.239 2259.41,491.239 2259.41,423.538 2292.75,423.538 2292.75,1386.4 "/>
<polyline clip-path="url(#clip452)" style="stroke:#e26f46; stroke-linecap:round; stroke-linejoin:round; stroke-width:4; stroke-opacity:1; fill:none" points="292.4,1386.4 292.4,468.672 325.739,468.672 325.739,506.283 359.078,506.283 359.078,318.225 392.417,318.225 392.417,589.029 425.756,589.029 425.756,393.448 459.095,393.448 459.095,468.672 492.434,468.672 492.434,400.971 525.773,400.971 525.773,243.002 559.112,243.002 559.112,513.806 592.452,513.806 592.452,318.225 625.791,318.225 625.791,461.149 659.13,461.149 659.13,400.971 692.469,400.971 692.469,551.417 725.808,551.417 725.808,355.837 759.147,355.837 759.147,160.256 792.486,160.256 792.486,333.27 825.825,333.27 825.825,348.314 859.164,348.314 859.164,167.779 892.503,167.779 892.503,340.792 925.843,340.792 925.843,378.404 959.182,378.404 959.182,363.359 992.521,363.359 992.521,370.881 1025.86,370.881 1025.86,295.658 1059.2,295.658 1059.2,190.346 1092.54,190.346 1092.54,363.359 1125.88,363.359 1125.88,333.27 1159.22,333.27 1159.22,212.913 1192.56,212.913 1192.56,310.703 1225.89,310.703 1225.89,280.614 1259.23,280.614 1259.23,303.181 1292.57,303.181 1292.57,212.913 1325.91,212.913 1325.91,303.181 1359.25,303.181 1359.25,453.627 1392.59,453.627 1392.59,423.538 1425.93,423.538 1425.93,483.716 1459.27,483.716 1459.27,468.672 1492.61,468.672 1492.61,340.792 1525.95,340.792 1525.95,318.225 1559.29,318.225 1559.29,235.48 1592.62,235.48 1592.62,160.256 1625.96,160.256 1625.96,265.569 1659.3,265.569 1659.3,423.538 1692.64,423.538 1692.64,393.448 1725.98,393.448 1725.98,340.792 1759.32,340.792 1792.66,340.792 1792.66,325.748 1826,325.748 1826,280.614 1859.34,280.614 1859.34,453.627 1892.68,453.627 1892.68,400.971 1926.02,400.971 1926.02,446.105 1959.35,446.105 1959.35,385.926 1992.69,385.926 1992.69,423.538 2026.03,423.538 2026.03,258.047 2059.37,258.047 2059.37,483.716 2092.71,483.716 2092.71,363.359 2126.05,363.359 2159.39,363.359 2159.39,431.06 2192.73,431.06 2192.73,355.837 2226.07,355.837 2226.07,483.716 2259.41,483.716 2259.41,468.672 2292.75,468.672 2292.75,1386.4 "/>
<path clip-path="url(#clip450)" d="M2040.46 1379.86 L2282.08 1379.86 L2282.08 1224.34 L2040.46 1224.34  Z" fill="#ffffff" fill-rule="evenodd" fill-opacity="1"/>
<polyline clip-path="url(#clip450)" style="stroke:#000000; stroke-linecap:round; stroke-linejoin:round; stroke-width:4; stroke-opacity:1; fill:none" points="2040.46,1379.86 2282.08,1379.86 2282.08,1224.34 2040.46,1224.34 2040.46,1379.86 "/>
<polyline clip-path="url(#clip450)" style="stroke:#009af9; stroke-linecap:round; stroke-linejoin:round; stroke-width:4; stroke-opacity:1; fill:none" points="2064.02,1276.18 2205.37,1276.18 "/>
<path clip-path="url(#clip450)" d="M2230.51 1258.9 L2235.53 1258.9 L2244.12 1271.74 L2252.75 1258.9 L2257.78 1258.9 L2246.67 1275.49 L2258.52 1293.46 L2253.49 1293.46 L2243.77 1278.76 L2233.98 1293.46 L2228.93 1293.46 L2241.27 1275.01 L2230.51 1258.9 Z" fill="#000000" fill-rule="nonzero" fill-opacity="1" /><polyline clip-path="url(#clip450)" style="stroke:#e26f46; stroke-linecap:round; stroke-linejoin:round; stroke-width:4; stroke-opacity:1; fill:none" points="2064.02,1328.02 2205.37,1328.02 "/>
<path clip-path="url(#clip450)" d="M2228.93 1310.74 L2233.96 1310.74 L2243.54 1324.95 L2253.05 1310.74 L2258.08 1310.74 L2245.86 1328.84 L2245.86 1345.3 L2241.16 1345.3 L2241.16 1328.84 L2228.93 1310.74 Z" fill="#000000" fill-rule="nonzero" fill-opacity="1" /></svg>
