<?xml version="1.0" encoding="utf-8"?>
<svg xmlns="http://www.w3.org/2000/svg" xmlns:xlink="http://www.w3.org/1999/xlink" width="600" height="400" viewBox="0 0 2400 1600">
<defs>
  <clipPath id="clip930">
    <rect x="0" y="0" width="2400" height="1600"/>
  </clipPath>
</defs>
<path clip-path="url(#clip930)" d="M0 1600 L2400 1600 L2400 0 L0 0  Z" fill="#ffffff" fill-rule="evenodd" fill-opacity="1"/>
<defs>
  <clipPath id="clip931">
    <rect x="480" y="0" width="1681" height="1600"/>
  </clipPath>
</defs>
<path clip-path="url(#clip930)" d="M367.967 1423.18 L2352.76 1423.18 L2352.76 123.472 L367.967 123.472  Z" fill="#ffffff" fill-rule="evenodd" fill-opacity="1"/>
<defs>
  <clipPath id="clip932">
    <rect x="367" y="123" width="1986" height="1301"/>
  </clipPath>
</defs>
<polyline clip-path="url(#clip932)" style="stroke:#000000; stroke-linecap:round; stroke-linejoin:round; stroke-width:2; stroke-opacity:0.1; fill:none" points="424.141,1423.18 424.141,123.472 "/>
<polyline clip-path="url(#clip932)" style="stroke:#000000; stroke-linecap:round; stroke-linejoin:round; stroke-width:2; stroke-opacity:0.1; fill:none" points="731.098,1423.18 731.098,123.472 "/>
<polyline clip-path="url(#clip932)" style="stroke:#000000; stroke-linecap:round; stroke-linejoin:round; stroke-width:2; stroke-opacity:0.1; fill:none" points="1038.06,1423.18 1038.06,123.472 "/>
<polyline clip-path="url(#clip932)" style="stroke:#000000; stroke-linecap:round; stroke-linejoin:round; stroke-width:2; stroke-opacity:0.1; fill:none" points="1345.01,1423.18 1345.01,123.472 "/>
<polyline clip-path="url(#clip932)" style="stroke:#000000; stroke-linecap:round; stroke-linejoin:round; stroke-width:2; stroke-opacity:0.1; fill:none" points="1651.97,1423.18 1651.97,123.472 "/>
<polyline clip-path="url(#clip932)" style="stroke:#000000; stroke-linecap:round; stroke-linejoin:round; stroke-width:2; stroke-opacity:0.1; fill:none" points="1958.93,1423.18 1958.93,123.472 "/>
<polyline clip-path="url(#clip932)" style="stroke:#000000; stroke-linecap:round; stroke-linejoin:round; stroke-width:2; stroke-opacity:0.1; fill:none" points="2265.89,1423.18 2265.89,123.472 "/>
<polyline clip-path="url(#clip932)" style="stroke:#000000; stroke-linecap:round; stroke-linejoin:round; stroke-width:2; stroke-opacity:0.1; fill:none" points="367.967,1386.4 2352.76,1386.4 "/>
<polyline clip-path="url(#clip932)" style="stroke:#000000; stroke-linecap:round; stroke-linejoin:round; stroke-width:2; stroke-opacity:0.1; fill:none" points="367.967,986.924 2352.76,986.924 "/>
<polyline clip-path="url(#clip932)" style="stroke:#000000; stroke-linecap:round; stroke-linejoin:round; stroke-width:2; stroke-opacity:0.1; fill:none" points="367.967,587.452 2352.76,587.452 "/>
<polyline clip-path="url(#clip932)" style="stroke:#000000; stroke-linecap:round; stroke-linejoin:round; stroke-width:2; stroke-opacity:0.1; fill:none" points="367.967,187.98 2352.76,187.98 "/>
<polyline clip-path="url(#clip930)" style="stroke:#000000; stroke-linecap:round; stroke-linejoin:round; stroke-width:4; stroke-opacity:1; fill:none" points="367.967,1423.18 2352.76,1423.18 "/>
<polyline clip-path="url(#clip930)" style="stroke:#000000; stroke-linecap:round; stroke-linejoin:round; stroke-width:4; stroke-opacity:1; fill:none" points="424.141,1423.18 424.141,1404.28 "/>
<polyline clip-path="url(#clip930)" style="stroke:#000000; stroke-linecap:round; stroke-linejoin:round; stroke-width:4; stroke-opacity:1; fill:none" points="731.098,1423.18 731.098,1404.28 "/>
<polyline clip-path="url(#clip930)" style="stroke:#000000; stroke-linecap:round; stroke-linejoin:round; stroke-width:4; stroke-opacity:1; fill:none" points="1038.06,1423.18 1038.06,1404.28 "/>
<polyline clip-path="url(#clip930)" style="stroke:#000000; stroke-linecap:round; stroke-linejoin:round; stroke-width:4; stroke-opacity:1; fill:none" points="1345.01,1423.18 1345.01,1404.28 "/>
<polyline clip-path="url(#clip930)" style="stroke:#000000; stroke-linecap:round; stroke-linejoin:round; stroke-width:4; stroke-opacity:1; fill:none" points="1651.97,1423.18 1651.97,1404.28 "/>
<polyline clip-path="url(#clip930)" style="stroke:#000000; stroke-linecap:round; stroke-linejoin:round; stroke-width:4; stroke-opacity:1; fill:none" points="1958.93,1423.18 1958.93,1404.28 "/>
<polyline clip-path="url(#clip930)" style="stroke:#000000; stroke-linecap:round; stroke-linejoin:round; stroke-width:4; stroke-opacity:1; fill:none" points="2265.89,1423.18 2265.89,1404.28 "/>
<path clip-path="url(#clip930)" d="M378.701 1468.75 L408.377 1468.75 L408.377 1472.69 L378.701 1472.69 L378.701 1468.75 Z" fill="#000000" fill-rule="nonzero" fill-opacity="1" /><path clip-path="url(#clip930)" d="M419.28 1481.64 L426.918 1481.64 L426.918 1455.28 L418.608 1456.95 L418.608 1452.69 L426.872 1451.02 L431.548 1451.02 L431.548 1481.64 L439.187 1481.64 L439.187 1485.58 L419.28 1485.58 L419.28 1481.64 Z" fill="#000000" fill-rule="nonzero" fill-opacity="1" /><path clip-path="url(#clip930)" d="M448.677 1451.02 L467.034 1451.02 L467.034 1454.96 L452.96 1454.96 L452.96 1463.43 Q453.978 1463.08 454.997 1462.92 Q456.015 1462.73 457.034 1462.73 Q462.821 1462.73 466.201 1465.9 Q469.58 1469.08 469.58 1474.49 Q469.58 1480.07 466.108 1483.17 Q462.636 1486.25 456.316 1486.25 Q454.14 1486.25 451.872 1485.88 Q449.627 1485.51 447.219 1484.77 L447.219 1480.07 Q449.302 1481.2 451.525 1481.76 Q453.747 1482.32 456.224 1482.32 Q460.228 1482.32 462.566 1480.21 Q464.904 1478.1 464.904 1474.49 Q464.904 1470.88 462.566 1468.77 Q460.228 1466.67 456.224 1466.67 Q454.349 1466.67 452.474 1467.08 Q450.622 1467.5 448.677 1468.38 L448.677 1451.02 Z" fill="#000000" fill-rule="nonzero" fill-opacity="1" /><path clip-path="url(#clip930)" d="M685.161 1468.75 L714.837 1468.75 L714.837 1472.69 L685.161 1472.69 L685.161 1468.75 Z" fill="#000000" fill-rule="nonzero" fill-opacity="1" /><path clip-path="url(#clip930)" d="M725.74 1481.64 L733.378 1481.64 L733.378 1455.28 L725.068 1456.95 L725.068 1452.69 L733.332 1451.02 L738.008 1451.02 L738.008 1481.64 L745.647 1481.64 L745.647 1485.58 L725.74 1485.58 L725.74 1481.64 Z" fill="#000000" fill-rule="nonzero" fill-opacity="1" /><path clip-path="url(#clip930)" d="M765.091 1454.1 Q761.48 1454.1 759.651 1457.66 Q757.846 1461.2 757.846 1468.33 Q757.846 1475.44 759.651 1479.01 Q761.48 1482.55 765.091 1482.55 Q768.725 1482.55 770.531 1479.01 Q772.36 1475.44 772.36 1468.33 Q772.36 1461.2 770.531 1457.66 Q768.725 1454.1 765.091 1454.1 M765.091 1450.39 Q770.901 1450.39 773.957 1455 Q777.036 1459.58 777.036 1468.33 Q777.036 1477.06 773.957 1481.67 Q770.901 1486.25 765.091 1486.25 Q759.281 1486.25 756.202 1481.67 Q753.147 1477.06 753.147 1468.33 Q753.147 1459.58 756.202 1455 Q759.281 1450.39 765.091 1450.39 Z" fill="#000000" fill-rule="nonzero" fill-opacity="1" /><path clip-path="url(#clip930)" d="M1007.7 1468.75 L1037.37 1468.75 L1037.37 1472.69 L1007.7 1472.69 L1007.7 1468.75 Z" fill="#000000" fill-rule="nonzero" fill-opacity="1" /><path clip-path="url(#clip930)" d="M1047.51 1451.02 L1065.87 1451.02 L1065.87 1454.96 L1051.79 1454.96 L1051.79 1463.43 Q1052.81 1463.08 1053.83 1462.92 Q1054.85 1462.73 1055.87 1462.73 Q1061.66 1462.73 1065.04 1465.9 Q1068.41 1469.08 1068.41 1474.49 Q1068.41 1480.07 1064.94 1483.17 Q1061.47 1486.25 1055.15 1486.25 Q1052.97 1486.25 1050.71 1485.88 Q1048.46 1485.51 1046.05 1484.77 L1046.05 1480.07 Q1048.14 1481.2 1050.36 1481.76 Q1052.58 1482.32 1055.06 1482.32 Q1059.06 1482.32 1061.4 1480.21 Q1063.74 1478.1 1063.74 1474.49 Q1063.74 1470.88 1061.4 1468.77 Q1059.06 1466.67 1055.06 1466.67 Q1053.18 1466.67 1051.31 1467.08 Q1049.46 1467.5 1047.51 1468.38 L1047.51 1451.02 Z" fill="#000000" fill-rule="nonzero" fill-opacity="1" /><path clip-path="url(#clip930)" d="M1345.01 1454.1 Q1341.4 1454.1 1339.57 1457.66 Q1337.77 1461.2 1337.77 1468.33 Q1337.77 1475.44 1339.57 1479.01 Q1341.4 1482.55 1345.01 1482.55 Q1348.65 1482.55 1350.45 1479.01 Q1352.28 1475.44 1352.28 1468.33 Q1352.28 1461.2 1350.45 1457.66 Q1348.65 1454.1 1345.01 1454.1 M1345.01 1450.39 Q1350.82 1450.39 1353.88 1455 Q1356.96 1459.58 1356.96 1468.33 Q1356.96 1477.06 1353.88 1481.67 Q1350.82 1486.25 1345.01 1486.25 Q1339.2 1486.25 1336.12 1481.67 Q1333.07 1477.06 1333.07 1468.33 Q1333.07 1459.58 1336.12 1455 Q1339.2 1450.39 1345.01 1450.39 Z" fill="#000000" fill-rule="nonzero" fill-opacity="1" /><path clip-path="url(#clip930)" d="M1642.25 1451.02 L1660.61 1451.02 L1660.61 1454.96 L1646.53 1454.96 L1646.53 1463.43 Q1647.55 1463.08 1648.57 1462.92 Q1649.59 1462.73 1650.61 1462.73 Q1656.39 1462.73 1659.77 1465.9 Q1663.15 1469.08 1663.15 1474.49 Q1663.15 1480.07 1659.68 1483.17 Q1656.21 1486.25 1649.89 1486.25 Q1647.71 1486.25 1645.44 1485.88 Q1643.2 1485.51 1640.79 1484.77 L1640.79 1480.07 Q1642.87 1481.2 1645.1 1481.76 Q1647.32 1482.32 1649.8 1482.32 Q1653.8 1482.32 1656.14 1480.21 Q1658.48 1478.1 1658.48 1474.49 Q1658.48 1470.88 1656.14 1468.77 Q1653.8 1466.67 1649.8 1466.67 Q1647.92 1466.67 1646.05 1467.08 Q1644.19 1467.5 1642.25 1468.38 L1642.25 1451.02 Z" fill="#000000" fill-rule="nonzero" fill-opacity="1" /><path clip-path="url(#clip930)" d="M1933.62 1481.64 L1941.26 1481.64 L1941.26 1455.28 L1932.95 1456.95 L1932.95 1452.69 L1941.21 1451.02 L1945.89 1451.02 L1945.89 1481.64 L1953.52 1481.64 L1953.52 1485.58 L1933.62 1485.58 L1933.62 1481.64 Z" fill="#000000" fill-rule="nonzero" fill-opacity="1" /><path clip-path="url(#clip930)" d="M1972.97 1454.1 Q1969.36 1454.1 1967.53 1457.66 Q1965.72 1461.2 1965.72 1468.33 Q1965.72 1475.44 1967.53 1479.01 Q1969.36 1482.55 1972.97 1482.55 Q1976.6 1482.55 1978.41 1479.01 Q1980.24 1475.44 1980.24 1468.33 Q1980.24 1461.2 1978.41 1457.66 Q1976.6 1454.1 1972.97 1454.1 M1972.97 1450.39 Q1978.78 1450.39 1981.83 1455 Q1984.91 1459.58 1984.91 1468.33 Q1984.91 1477.06 1981.83 1481.67 Q1978.78 1486.25 1972.97 1486.25 Q1967.16 1486.25 1964.08 1481.67 Q1961.02 1477.06 1961.02 1468.33 Q1961.02 1459.58 1964.08 1455 Q1967.16 1450.39 1972.97 1450.39 Z" fill="#000000" fill-rule="nonzero" fill-opacity="1" /><path clip-path="url(#clip930)" d="M2241.07 1481.64 L2248.71 1481.64 L2248.71 1455.28 L2240.4 1456.95 L2240.4 1452.69 L2248.66 1451.02 L2253.34 1451.02 L2253.34 1481.64 L2260.98 1481.64 L2260.98 1485.58 L2241.07 1485.58 L2241.07 1481.64 Z" fill="#000000" fill-rule="nonzero" fill-opacity="1" /><path clip-path="url(#clip930)" d="M2270.47 1451.02 L2288.83 1451.02 L2288.83 1454.96 L2274.75 1454.96 L2274.75 1463.43 Q2275.77 1463.08 2276.79 1462.92 Q2277.81 1462.73 2278.83 1462.73 Q2284.61 1462.73 2287.99 1465.9 Q2291.37 1469.08 2291.37 1474.49 Q2291.37 1480.07 2287.9 1483.17 Q2284.43 1486.25 2278.11 1486.25 Q2275.93 1486.25 2273.66 1485.88 Q2271.42 1485.51 2269.01 1484.77 L2269.01 1480.07 Q2271.1 1481.2 2273.32 1481.76 Q2275.54 1482.32 2278.02 1482.32 Q2282.02 1482.32 2284.36 1480.21 Q2286.7 1478.1 2286.7 1474.49 Q2286.7 1470.88 2284.36 1468.77 Q2282.02 1466.67 2278.02 1466.67 Q2276.14 1466.67 2274.27 1467.08 Q2272.41 1467.5 2270.47 1468.38 L2270.47 1451.02 Z" fill="#000000" fill-rule="nonzero" fill-opacity="1" /><path clip-path="url(#clip930)" d="M1160.43 1525.81 L1160.43 1543.66 L1168.52 1543.66 Q1173 1543.66 1175.45 1541.34 Q1177.9 1539.02 1177.9 1534.72 Q1177.9 1530.45 1175.45 1528.13 Q1173 1525.81 1168.52 1525.81 L1160.43 1525.81 M1154 1520.52 L1168.52 1520.52 Q1176.5 1520.52 1180.58 1524.15 Q1184.68 1527.75 1184.68 1534.72 Q1184.68 1541.75 1180.58 1545.35 Q1176.5 1548.95 1168.52 1548.95 L1160.43 1548.95 L1160.43 1568.04 L1154 1568.04 L1154 1520.52 Z" fill="#000000" fill-rule="nonzero" fill-opacity="1" /><path clip-path="url(#clip930)" d="M1204.55 1536.5 Q1199.83 1536.5 1197.1 1540.19 Q1194.36 1543.85 1194.36 1550.25 Q1194.36 1556.65 1197.07 1560.34 Q1199.8 1564 1204.55 1564 Q1209.22 1564 1211.96 1560.31 Q1214.7 1556.62 1214.7 1550.25 Q1214.7 1543.92 1211.96 1540.23 Q1209.22 1536.5 1204.55 1536.5 M1204.55 1531.54 Q1212.18 1531.54 1216.54 1536.5 Q1220.9 1541.47 1220.9 1550.25 Q1220.9 1559 1216.54 1564 Q1212.18 1568.97 1204.55 1568.97 Q1196.87 1568.97 1192.51 1564 Q1188.19 1559 1188.19 1550.25 Q1188.19 1541.47 1192.51 1536.5 Q1196.87 1531.54 1204.55 1531.54 Z" fill="#000000" fill-rule="nonzero" fill-opacity="1" /><path clip-path="url(#clip930)" d="M1253.34 1533.45 L1253.34 1538.98 Q1250.86 1537.71 1248.18 1537.07 Q1245.51 1536.44 1242.64 1536.44 Q1238.28 1536.44 1236.09 1537.77 Q1233.92 1539.11 1233.92 1541.79 Q1233.92 1543.82 1235.48 1545 Q1237.04 1546.15 1241.75 1547.2 L1243.76 1547.64 Q1250 1548.98 1252.61 1551.43 Q1255.25 1553.85 1255.25 1558.21 Q1255.25 1563.17 1251.3 1566.07 Q1247.39 1568.97 1240.51 1568.97 Q1237.65 1568.97 1234.53 1568.39 Q1231.44 1567.85 1228 1566.74 L1228 1560.69 Q1231.25 1562.38 1234.4 1563.24 Q1237.55 1564.07 1240.64 1564.07 Q1244.78 1564.07 1247 1562.66 Q1249.23 1561.23 1249.23 1558.65 Q1249.23 1556.27 1247.61 1554.99 Q1246.02 1553.72 1240.57 1552.54 L1238.54 1552.07 Q1233.1 1550.92 1230.68 1548.56 Q1228.26 1546.18 1228.26 1542.04 Q1228.26 1537.01 1231.82 1534.27 Q1235.39 1531.54 1241.94 1531.54 Q1245.19 1531.54 1248.05 1532.01 Q1250.92 1532.49 1253.34 1533.45 Z" fill="#000000" fill-rule="nonzero" fill-opacity="1" /><path clip-path="url(#clip930)" d="M1264.57 1532.4 L1270.43 1532.4 L1270.43 1568.04 L1264.57 1568.04 L1264.57 1532.4 M1264.57 1518.52 L1270.43 1518.52 L1270.43 1525.93 L1264.57 1525.93 L1264.57 1518.52 Z" fill="#000000" fill-rule="nonzero" fill-opacity="1" /><path clip-path="url(#clip930)" d="M1288.48 1522.27 L1288.48 1532.4 L1300.54 1532.4 L1300.54 1536.95 L1288.48 1536.95 L1288.48 1556.3 Q1288.48 1560.66 1289.65 1561.9 Q1290.86 1563.14 1294.52 1563.14 L1300.54 1563.14 L1300.54 1568.04 L1294.52 1568.04 Q1287.74 1568.04 1285.17 1565.53 Q1282.59 1562.98 1282.59 1556.3 L1282.59 1536.95 L1278.29 1536.95 L1278.29 1532.4 L1282.59 1532.4 L1282.59 1522.27 L1288.48 1522.27 Z" fill="#000000" fill-rule="nonzero" fill-opacity="1" /><path clip-path="url(#clip930)" d="M1308.24 1532.4 L1314.1 1532.4 L1314.1 1568.04 L1308.24 1568.04 L1308.24 1532.4 M1308.24 1518.52 L1314.1 1518.52 L1314.1 1525.93 L1308.24 1525.93 L1308.24 1518.52 Z" fill="#000000" fill-rule="nonzero" fill-opacity="1" /><path clip-path="url(#clip930)" d="M1340.17 1536.5 Q1335.46 1536.5 1332.72 1540.19 Q1329.98 1543.85 1329.98 1550.25 Q1329.98 1556.65 1332.69 1560.34 Q1335.42 1564 1340.17 1564 Q1344.85 1564 1347.58 1560.31 Q1350.32 1556.62 1350.32 1550.25 Q1350.32 1543.92 1347.58 1540.23 Q1344.85 1536.5 1340.17 1536.5 M1340.17 1531.54 Q1347.81 1531.54 1352.17 1536.5 Q1356.53 1541.47 1356.53 1550.25 Q1356.53 1559 1352.17 1564 Q1347.81 1568.97 1340.17 1568.97 Q1332.5 1568.97 1328.14 1564 Q1323.81 1559 1323.81 1550.25 Q1323.81 1541.47 1328.14 1536.5 Q1332.5 1531.54 1340.17 1531.54 Z" fill="#000000" fill-rule="nonzero" fill-opacity="1" /><path clip-path="url(#clip930)" d="M1395.87 1546.53 L1395.87 1568.04 L1390.01 1568.04 L1390.01 1546.72 Q1390.01 1541.66 1388.04 1539.14 Q1386.06 1536.63 1382.12 1536.63 Q1377.37 1536.63 1374.64 1539.65 Q1371.9 1542.68 1371.9 1547.9 L1371.9 1568.04 L1366.01 1568.04 L1366.01 1532.4 L1371.9 1532.4 L1371.9 1537.93 Q1374 1534.72 1376.83 1533.13 Q1379.7 1531.54 1383.42 1531.54 Q1389.56 1531.54 1392.72 1535.36 Q1395.87 1539.14 1395.87 1546.53 Z" fill="#000000" fill-rule="nonzero" fill-opacity="1" /><path clip-path="url(#clip930)" d="M1442.34 1518.58 Q1438.07 1525.9 1436 1533.06 Q1433.93 1540.23 1433.93 1547.58 Q1433.93 1554.93 1436 1562.16 Q1438.1 1569.35 1442.34 1576.64 L1437.24 1576.64 Q1432.47 1569.16 1430.08 1561.93 Q1427.73 1554.71 1427.73 1547.58 Q1427.73 1540.48 1430.08 1533.29 Q1432.44 1526.09 1437.24 1518.58 L1442.34 1518.58 Z" fill="#000000" fill-rule="nonzero" fill-opacity="1" /><path clip-path="url(#clip930)" d="M1479.35 1533.76 L1479.35 1539.24 Q1476.87 1537.87 1474.36 1537.2 Q1471.87 1536.5 1469.33 1536.5 Q1463.63 1536.5 1460.48 1540.13 Q1457.33 1543.73 1457.33 1550.25 Q1457.33 1556.78 1460.48 1560.4 Q1463.63 1564 1469.33 1564 Q1471.87 1564 1474.36 1563.33 Q1476.87 1562.63 1479.35 1561.26 L1479.35 1566.68 Q1476.9 1567.82 1474.26 1568.39 Q1471.65 1568.97 1468.69 1568.97 Q1460.64 1568.97 1455.89 1563.91 Q1451.15 1558.85 1451.15 1550.25 Q1451.15 1541.53 1455.93 1536.53 Q1460.73 1531.54 1469.07 1531.54 Q1471.78 1531.54 1474.36 1532.11 Q1476.93 1532.65 1479.35 1533.76 Z" fill="#000000" fill-rule="nonzero" fill-opacity="1" /><path clip-path="url(#clip930)" d="M1517.29 1539.24 Q1519.49 1535.29 1522.54 1533.41 Q1525.6 1531.54 1529.74 1531.54 Q1535.31 1531.54 1538.33 1535.45 Q1541.35 1539.33 1541.35 1546.53 L1541.35 1568.04 L1535.47 1568.04 L1535.47 1546.72 Q1535.47 1541.59 1533.65 1539.11 Q1531.84 1536.63 1528.11 1536.63 Q1523.56 1536.63 1520.92 1539.65 Q1518.28 1542.68 1518.28 1547.9 L1518.28 1568.04 L1512.39 1568.04 L1512.39 1546.72 Q1512.39 1541.56 1510.58 1539.11 Q1508.76 1536.63 1504.97 1536.63 Q1500.49 1536.63 1497.84 1539.68 Q1495.2 1542.71 1495.2 1547.9 L1495.2 1568.04 L1489.31 1568.04 L1489.31 1532.4 L1495.2 1532.4 L1495.2 1537.93 Q1497.21 1534.66 1500.01 1533.1 Q1502.81 1531.54 1506.66 1531.54 Q1510.54 1531.54 1513.25 1533.51 Q1515.99 1535.48 1517.29 1539.24 Z" fill="#000000" fill-rule="nonzero" fill-opacity="1" /><path clip-path="url(#clip930)" d="M1552.11 1518.58 L1557.21 1518.58 Q1561.98 1526.09 1564.33 1533.29 Q1566.72 1540.48 1566.72 1547.58 Q1566.72 1554.71 1564.33 1561.93 Q1561.98 1569.16 1557.21 1576.64 L1552.11 1576.64 Q1556.35 1569.35 1558.41 1562.16 Q1560.52 1554.93 1560.52 1547.58 Q1560.52 1540.23 1558.41 1533.06 Q1556.35 1525.9 1552.11 1518.58 Z" fill="#000000" fill-rule="nonzero" fill-opacity="1" /><polyline clip-path="url(#clip930)" style="stroke:#000000; stroke-linecap:round; stroke-linejoin:round; stroke-width:4; stroke-opacity:1; fill:none" points="367.967,1423.18 367.967,123.472 "/>
<polyline clip-path="url(#clip930)" style="stroke:#000000; stroke-linecap:round; stroke-linejoin:round; stroke-width:4; stroke-opacity:1; fill:none" points="367.967,1386.4 386.865,1386.4 "/>
<polyline clip-path="url(#clip930)" style="stroke:#000000; stroke-linecap:round; stroke-linejoin:round; stroke-width:4; stroke-opacity:1; fill:none" points="367.967,986.924 386.865,986.924 "/>
<polyline clip-path="url(#clip930)" style="stroke:#000000; stroke-linecap:round; stroke-linejoin:round; stroke-width:4; stroke-opacity:1; fill:none" points="367.967,587.452 386.865,587.452 "/>
<polyline clip-path="url(#clip930)" style="stroke:#000000; stroke-linecap:round; stroke-linejoin:round; stroke-width:4; stroke-opacity:1; fill:none" points="367.967,187.98 386.865,187.98 "/>
<path clip-path="url(#clip930)" d="M320.023 1372.19 Q316.412 1372.19 314.583 1375.76 Q312.778 1379.3 312.778 1386.43 Q312.778 1393.54 314.583 1397.1 Q316.412 1400.64 320.023 1400.64 Q323.657 1400.64 325.463 1397.1 Q327.291 1393.54 327.291 1386.43 Q327.291 1379.3 325.463 1375.76 Q323.657 1372.19 320.023 1372.19 M320.023 1368.49 Q325.833 1368.49 328.889 1373.1 Q331.967 1377.68 331.967 1386.43 Q331.967 1395.16 328.889 1399.76 Q325.833 1404.35 320.023 1404.35 Q314.213 1404.35 311.134 1399.76 Q308.079 1395.16 308.079 1386.43 Q308.079 1377.68 311.134 1373.1 Q314.213 1368.49 320.023 1368.49 Z" fill="#000000" fill-rule="nonzero" fill-opacity="1" /><path clip-path="url(#clip930)" d="M116.142 976.091 L134.499 976.091 L134.499 980.026 L120.425 980.026 L120.425 988.499 Q121.443 988.151 122.462 987.989 Q123.48 987.804 124.499 987.804 Q130.286 987.804 133.665 990.975 Q137.045 994.147 137.045 999.563 Q137.045 1005.14 133.573 1008.24 Q130.101 1011.32 123.781 1011.32 Q121.605 1011.32 119.337 1010.95 Q117.091 1010.58 114.684 1009.84 L114.684 1005.14 Q116.767 1006.28 118.99 1006.83 Q121.212 1007.39 123.689 1007.39 Q127.693 1007.39 130.031 1005.28 Q132.369 1003.17 132.369 999.563 Q132.369 995.952 130.031 993.846 Q127.693 991.739 123.689 991.739 Q121.814 991.739 119.939 992.156 Q118.087 992.573 116.142 993.452 L116.142 976.091 Z" fill="#000000" fill-rule="nonzero" fill-opacity="1" /><path clip-path="url(#clip930)" d="M146.258 1004.77 L151.142 1004.77 L151.142 1010.65 L146.258 1010.65 L146.258 1004.77 Z" fill="#000000" fill-rule="nonzero" fill-opacity="1" /><path clip-path="url(#clip930)" d="M171.327 979.17 Q167.716 979.17 165.887 982.735 Q164.082 986.276 164.082 993.406 Q164.082 1000.51 165.887 1004.08 Q167.716 1007.62 171.327 1007.62 Q174.962 1007.62 176.767 1004.08 Q178.596 1000.51 178.596 993.406 Q178.596 986.276 176.767 982.735 Q174.962 979.17 171.327 979.17 M171.327 975.466 Q177.137 975.466 180.193 980.073 Q183.272 984.656 183.272 993.406 Q183.272 1002.13 180.193 1006.74 Q177.137 1011.32 171.327 1011.32 Q165.517 1011.32 162.438 1006.74 Q159.383 1002.13 159.383 993.406 Q159.383 984.656 162.438 980.073 Q165.517 975.466 171.327 975.466 Z" fill="#000000" fill-rule="nonzero" fill-opacity="1" /><path clip-path="url(#clip930)" d="M201.489 979.17 Q197.878 979.17 196.049 982.735 Q194.244 986.276 194.244 993.406 Q194.244 1000.51 196.049 1004.08 Q197.878 1007.62 201.489 1007.62 Q205.123 1007.62 206.929 1004.08 Q208.758 1000.51 208.758 993.406 Q208.758 986.276 206.929 982.735 Q205.123 979.17 201.489 979.17 M201.489 975.466 Q207.299 975.466 210.355 980.073 Q213.434 984.656 213.434 993.406 Q213.434 1002.13 210.355 1006.74 Q207.299 1011.32 201.489 1011.32 Q195.679 1011.32 192.6 1006.74 Q189.545 1002.13 189.545 993.406 Q189.545 984.656 192.6 980.073 Q195.679 975.466 201.489 975.466 Z" fill="#000000" fill-rule="nonzero" fill-opacity="1" /><path clip-path="url(#clip930)" d="M249.822 985.188 L239.244 995.813 L249.822 1006.39 L247.068 1009.19 L236.443 998.568 L225.818 1009.19 L223.086 1006.39 L233.642 995.813 L223.086 985.188 L225.818 982.388 L236.443 993.012 L247.068 982.388 L249.822 985.188 Z" fill="#000000" fill-rule="nonzero" fill-opacity="1" /><path clip-path="url(#clip930)" d="M262.183 1006.72 L269.822 1006.72 L269.822 980.35 L261.512 982.017 L261.512 977.758 L269.776 976.091 L274.452 976.091 L274.452 1006.72 L282.091 1006.72 L282.091 1010.65 L262.183 1010.65 L262.183 1006.72 Z" fill="#000000" fill-rule="nonzero" fill-opacity="1" /><path clip-path="url(#clip930)" d="M301.535 979.17 Q297.924 979.17 296.095 982.735 Q294.29 986.276 294.29 993.406 Q294.29 1000.51 296.095 1004.08 Q297.924 1007.62 301.535 1007.62 Q305.169 1007.62 306.975 1004.08 Q308.803 1000.51 308.803 993.406 Q308.803 986.276 306.975 982.735 Q305.169 979.17 301.535 979.17 M301.535 975.466 Q307.345 975.466 310.401 980.073 Q313.479 984.656 313.479 993.406 Q313.479 1002.13 310.401 1006.74 Q307.345 1011.32 301.535 1011.32 Q295.725 1011.32 292.646 1006.74 Q289.591 1002.13 289.591 993.406 Q289.591 984.656 292.646 980.073 Q295.725 975.466 301.535 975.466 Z" fill="#000000" fill-rule="nonzero" fill-opacity="1" /><path clip-path="url(#clip930)" d="M326.175 968.101 Q328.902 968.684 330.425 970.527 Q331.967 972.37 331.967 975.078 Q331.967 979.235 329.109 981.511 Q326.25 983.786 320.984 983.786 Q319.216 983.786 317.335 983.429 Q315.473 983.09 313.479 982.395 L313.479 978.727 Q315.059 979.649 316.94 980.119 Q318.821 980.589 320.871 980.589 Q324.444 980.589 326.306 979.178 Q328.187 977.768 328.187 975.078 Q328.187 972.596 326.438 971.204 Q324.708 969.793 321.604 969.793 L318.332 969.793 L318.332 966.671 L321.755 966.671 Q324.557 966.671 326.043 965.562 Q327.529 964.433 327.529 962.327 Q327.529 960.164 325.986 959.016 Q324.463 957.85 321.604 957.85 Q320.043 957.85 318.256 958.189 Q316.47 958.527 314.326 959.242 L314.326 955.857 Q316.489 955.255 318.369 954.954 Q320.269 954.653 321.943 954.653 Q326.269 954.653 328.789 956.628 Q331.309 958.584 331.309 961.932 Q331.309 964.264 329.974 965.881 Q328.638 967.48 326.175 968.101 Z" fill="#000000" fill-rule="nonzero" fill-opacity="1" /><path clip-path="url(#clip930)" d="M114.931 607.244 L122.57 607.244 L122.57 580.878 L114.26 582.545 L114.26 578.286 L122.524 576.619 L127.2 576.619 L127.2 607.244 L134.839 607.244 L134.839 611.179 L114.931 611.179 L114.931 607.244 Z" fill="#000000" fill-rule="nonzero" fill-opacity="1" /><path clip-path="url(#clip930)" d="M144.283 605.3 L149.167 605.3 L149.167 611.179 L144.283 611.179 L144.283 605.3 Z" fill="#000000" fill-rule="nonzero" fill-opacity="1" /><path clip-path="url(#clip930)" d="M169.352 579.698 Q165.741 579.698 163.913 583.263 Q162.107 586.804 162.107 593.934 Q162.107 601.04 163.913 604.605 Q165.741 608.147 169.352 608.147 Q172.987 608.147 174.792 604.605 Q176.621 601.04 176.621 593.934 Q176.621 586.804 174.792 583.263 Q172.987 579.698 169.352 579.698 M169.352 575.994 Q175.163 575.994 178.218 580.601 Q181.297 585.184 181.297 593.934 Q181.297 602.661 178.218 607.267 Q175.163 611.851 169.352 611.851 Q163.542 611.851 160.464 607.267 Q157.408 602.661 157.408 593.934 Q157.408 585.184 160.464 580.601 Q163.542 575.994 169.352 575.994 Z" fill="#000000" fill-rule="nonzero" fill-opacity="1" /><path clip-path="url(#clip930)" d="M199.514 579.698 Q195.903 579.698 194.075 583.263 Q192.269 586.804 192.269 593.934 Q192.269 601.04 194.075 604.605 Q195.903 608.147 199.514 608.147 Q203.149 608.147 204.954 604.605 Q206.783 601.04 206.783 593.934 Q206.783 586.804 204.954 583.263 Q203.149 579.698 199.514 579.698 M199.514 575.994 Q205.324 575.994 208.38 580.601 Q211.459 585.184 211.459 593.934 Q211.459 602.661 208.38 607.267 Q205.324 611.851 199.514 611.851 Q193.704 611.851 190.625 607.267 Q187.57 602.661 187.57 593.934 Q187.57 585.184 190.625 580.601 Q193.704 575.994 199.514 575.994 Z" fill="#000000" fill-rule="nonzero" fill-opacity="1" /><path clip-path="url(#clip930)" d="M247.847 585.716 L237.269 596.341 L247.847 606.92 L245.093 609.721 L234.468 599.096 L223.843 609.721 L221.111 606.92 L231.667 596.341 L221.111 585.716 L223.843 582.916 L234.468 593.54 L245.093 582.916 L247.847 585.716 Z" fill="#000000" fill-rule="nonzero" fill-opacity="1" /><path clip-path="url(#clip930)" d="M260.208 607.244 L267.847 607.244 L267.847 580.878 L259.537 582.545 L259.537 578.286 L267.801 576.619 L272.477 576.619 L272.477 607.244 L280.116 607.244 L280.116 611.179 L260.208 611.179 L260.208 607.244 Z" fill="#000000" fill-rule="nonzero" fill-opacity="1" /><path clip-path="url(#clip930)" d="M299.56 579.698 Q295.949 579.698 294.12 583.263 Q292.315 586.804 292.315 593.934 Q292.315 601.04 294.12 604.605 Q295.949 608.147 299.56 608.147 Q303.194 608.147 305 604.605 Q306.829 601.04 306.829 593.934 Q306.829 586.804 305 583.263 Q303.194 579.698 299.56 579.698 M299.56 575.994 Q305.37 575.994 308.426 580.601 Q311.504 585.184 311.504 593.934 Q311.504 602.661 308.426 607.267 Q305.37 611.851 299.56 611.851 Q293.75 611.851 290.671 607.267 Q287.616 602.661 287.616 593.934 Q287.616 585.184 290.671 580.601 Q293.75 575.994 299.56 575.994 Z" fill="#000000" fill-rule="nonzero" fill-opacity="1" /><path clip-path="url(#clip930)" d="M324.181 558.999 L314.589 573.989 L324.181 573.989 L324.181 558.999 M323.184 555.689 L327.961 555.689 L327.961 573.989 L331.967 573.989 L331.967 577.149 L327.961 577.149 L327.961 583.769 L324.181 583.769 L324.181 577.149 L311.504 577.149 L311.504 573.481 L323.184 555.689 Z" fill="#000000" fill-rule="nonzero" fill-opacity="1" /><path clip-path="url(#clip930)" d="M114.931 207.772 L122.57 207.772 L122.57 181.406 L114.26 183.073 L114.26 178.814 L122.524 177.147 L127.2 177.147 L127.2 207.772 L134.839 207.772 L134.839 211.707 L114.931 211.707 L114.931 207.772 Z" fill="#000000" fill-rule="nonzero" fill-opacity="1" /><path clip-path="url(#clip930)" d="M144.283 205.828 L149.167 205.828 L149.167 211.707 L144.283 211.707 L144.283 205.828 Z" fill="#000000" fill-rule="nonzero" fill-opacity="1" /><path clip-path="url(#clip930)" d="M159.399 177.147 L177.755 177.147 L177.755 181.082 L163.681 181.082 L163.681 189.555 Q164.7 189.207 165.718 189.045 Q166.737 188.86 167.755 188.86 Q173.542 188.86 176.922 192.031 Q180.301 195.203 180.301 200.619 Q180.301 206.198 176.829 209.3 Q173.357 212.379 167.038 212.379 Q164.862 212.379 162.593 212.008 Q160.348 211.638 157.94 210.897 L157.94 206.198 Q160.024 207.332 162.246 207.888 Q164.468 208.443 166.945 208.443 Q170.95 208.443 173.288 206.337 Q175.626 204.23 175.626 200.619 Q175.626 197.008 173.288 194.902 Q170.95 192.795 166.945 192.795 Q165.07 192.795 163.195 193.212 Q161.343 193.629 159.399 194.508 L159.399 177.147 Z" fill="#000000" fill-rule="nonzero" fill-opacity="1" /><path clip-path="url(#clip930)" d="M199.514 180.226 Q195.903 180.226 194.075 183.791 Q192.269 187.332 192.269 194.462 Q192.269 201.568 194.075 205.133 Q195.903 208.675 199.514 208.675 Q203.149 208.675 204.954 205.133 Q206.783 201.568 206.783 194.462 Q206.783 187.332 204.954 183.791 Q203.149 180.226 199.514 180.226 M199.514 176.522 Q205.324 176.522 208.38 181.129 Q211.459 185.712 211.459 194.462 Q211.459 203.189 208.38 207.795 Q205.324 212.379 199.514 212.379 Q193.704 212.379 190.625 207.795 Q187.57 203.189 187.57 194.462 Q187.57 185.712 190.625 181.129 Q193.704 176.522 199.514 176.522 Z" fill="#000000" fill-rule="nonzero" fill-opacity="1" /><path clip-path="url(#clip930)" d="M247.847 186.244 L237.269 196.869 L247.847 207.448 L245.093 210.249 L234.468 199.624 L223.843 210.249 L221.111 207.448 L231.667 196.869 L221.111 186.244 L223.843 183.444 L234.468 194.068 L245.093 183.444 L247.847 186.244 Z" fill="#000000" fill-rule="nonzero" fill-opacity="1" /><path clip-path="url(#clip930)" d="M260.208 207.772 L267.847 207.772 L267.847 181.406 L259.537 183.073 L259.537 178.814 L267.801 177.147 L272.477 177.147 L272.477 207.772 L280.116 207.772 L280.116 211.707 L260.208 211.707 L260.208 207.772 Z" fill="#000000" fill-rule="nonzero" fill-opacity="1" /><path clip-path="url(#clip930)" d="M299.56 180.226 Q295.949 180.226 294.12 183.791 Q292.315 187.332 292.315 194.462 Q292.315 201.568 294.12 205.133 Q295.949 208.675 299.56 208.675 Q303.194 208.675 305 205.133 Q306.829 201.568 306.829 194.462 Q306.829 187.332 305 183.791 Q303.194 180.226 299.56 180.226 M299.56 176.522 Q305.37 176.522 308.426 181.129 Q311.504 185.712 311.504 194.462 Q311.504 203.189 308.426 207.795 Q305.37 212.379 299.56 212.379 Q293.75 212.379 290.671 207.795 Q287.616 203.189 287.616 194.462 Q287.616 185.712 290.671 181.129 Q293.75 176.522 299.56 176.522 Z" fill="#000000" fill-rule="nonzero" fill-opacity="1" /><path clip-path="url(#clip930)" d="M324.181 159.527 L314.589 174.517 L324.181 174.517 L324.181 159.527 M323.184 156.217 L327.961 156.217 L327.961 174.517 L331.967 174.517 L331.967 177.677 L327.961 177.677 L327.961 184.297 L324.181 184.297 L324.181 177.677 L311.504 177.677 L311.504 174.009 L323.184 156.217 Z" fill="#000000" fill-rule="nonzero" fill-opacity="1" /><path clip-path="url(#clip930)" d="M20.1444 945.009 L26.9239 945.009 Q23.9002 948.256 22.4043 951.948 Q20.9083 955.608 20.9083 959.746 Q20.9083 967.894 25.9054 972.222 Q30.8707 976.551 40.2919 976.551 Q49.6813 976.551 54.6784 972.222 Q59.6436 967.894 59.6436 959.746 Q59.6436 955.608 58.1477 951.948 Q56.6518 948.256 53.6281 945.009 L60.3439 945.009 Q62.6355 948.383 63.7814 952.171 Q64.9272 955.926 64.9272 960.128 Q64.9272 970.918 58.3387 977.124 Q51.7183 983.331 40.2919 983.331 Q28.8336 983.331 22.2451 977.124 Q15.6248 970.918 15.6248 960.128 Q15.6248 955.863 16.7706 952.107 Q17.8846 948.319 20.1444 945.009 Z" fill="#000000" fill-rule="nonzero" fill-opacity="1" /><path clip-path="url(#clip930)" d="M32.4621 921.52 Q32.4621 926.23 36.1542 928.968 Q39.8145 931.705 46.212 931.705 Q52.6095 931.705 56.3017 928.999 Q59.9619 926.262 59.9619 921.52 Q59.9619 916.841 56.2698 914.104 Q52.5777 911.366 46.212 911.366 Q39.8781 911.366 36.186 914.104 Q32.4621 916.841 32.4621 921.52 M27.4968 921.52 Q27.4968 913.881 32.4621 909.52 Q37.4273 905.16 46.212 905.16 Q54.9649 905.16 59.9619 909.52 Q64.9272 913.881 64.9272 921.52 Q64.9272 929.19 59.9619 933.551 Q54.9649 937.88 46.212 937.88 Q37.4273 937.88 32.4621 933.551 Q27.4968 929.19 27.4968 921.52 Z" fill="#000000" fill-rule="nonzero" fill-opacity="1" /><path clip-path="url(#clip930)" d="M49.9359 896.057 L28.3562 896.057 L28.3562 890.2 L49.7131 890.2 Q54.7739 890.2 57.3202 888.227 Q59.8346 886.254 59.8346 882.307 Q59.8346 877.564 56.8109 874.827 Q53.7872 872.058 48.5673 872.058 L28.3562 872.058 L28.3562 866.202 L64.0042 866.202 L64.0042 872.058 L58.5296 872.058 Q61.7762 874.191 63.3676 877.023 Q64.9272 879.824 64.9272 883.548 Q64.9272 889.691 61.1078 892.874 Q57.2883 896.057 49.9359 896.057 M27.4968 881.32 L27.4968 881.32 Z" fill="#000000" fill-rule="nonzero" fill-opacity="1" /><path clip-path="url(#clip930)" d="M42.4881 824.506 L64.0042 824.506 L64.0042 830.363 L42.679 830.363 Q37.6183 830.363 35.1038 832.336 Q32.5894 834.309 32.5894 838.256 Q32.5894 842.999 35.6131 845.736 Q38.6368 848.473 43.8567 848.473 L64.0042 848.473 L64.0042 854.361 L28.3562 854.361 L28.3562 848.473 L33.8944 848.473 Q30.6797 846.372 29.0883 843.54 Q27.4968 840.675 27.4968 836.951 Q27.4968 830.808 31.3163 827.657 Q35.1038 824.506 42.4881 824.506 Z" fill="#000000" fill-rule="nonzero" fill-opacity="1" /><path clip-path="url(#clip930)" d="M18.2347 807.032 L28.3562 807.032 L28.3562 794.969 L32.9077 794.969 L32.9077 807.032 L52.2594 807.032 Q56.6199 807.032 57.8613 805.855 Q59.1026 804.645 59.1026 800.985 L59.1026 794.969 L64.0042 794.969 L64.0042 800.985 Q64.0042 807.764 61.4897 810.343 Q58.9434 812.921 52.2594 812.921 L32.9077 812.921 L32.9077 817.218 L28.3562 817.218 L28.3562 812.921 L18.2347 812.921 L18.2347 807.032 Z" fill="#000000" fill-rule="nonzero" fill-opacity="1" /><path clip-path="url(#clip930)" d="M29.4065 764.541 L34.9447 764.541 Q33.6716 767.024 33.035 769.698 Q32.3984 772.371 32.3984 775.236 Q32.3984 779.596 33.7352 781.792 Q35.072 783.957 37.7456 783.957 Q39.7826 783.957 40.9603 782.397 Q42.1061 780.838 43.1565 776.127 L43.6021 774.122 Q44.9389 767.883 47.3897 765.273 Q49.8086 762.632 54.1691 762.632 Q59.1344 762.632 62.0308 766.578 Q64.9272 770.493 64.9272 777.368 Q64.9272 780.233 64.3543 783.352 Q63.8132 786.439 62.6992 789.877 L56.6518 789.877 Q58.3387 786.63 59.198 783.479 Q60.0256 780.328 60.0256 777.241 Q60.0256 773.103 58.6251 770.875 Q57.1929 768.647 54.6147 768.647 Q52.2276 768.647 50.9545 770.27 Q49.6813 771.862 48.5037 777.305 L48.0262 779.342 Q46.8804 784.784 44.5251 787.203 Q42.138 789.622 38.0002 789.622 Q32.9713 789.622 30.2341 786.057 Q27.4968 782.493 27.4968 775.936 Q27.4968 772.689 27.9743 769.825 Q28.4517 766.96 29.4065 764.541 Z" fill="#000000" fill-rule="nonzero" fill-opacity="1" /><path clip-path="url(#clip930)" d="M28.3562 732.585 L28.3562 726.729 L64.0042 726.729 L64.0042 732.585 L28.3562 732.585 M14.479 732.585 L14.479 726.729 L21.895 726.729 L21.895 732.585 L14.479 732.585 Z" fill="#000000" fill-rule="nonzero" fill-opacity="1" /><path clip-path="url(#clip930)" d="M42.4881 684.843 L64.0042 684.843 L64.0042 690.699 L42.679 690.699 Q37.6183 690.699 35.1038 692.672 Q32.5894 694.646 32.5894 698.593 Q32.5894 703.335 35.6131 706.072 Q38.6368 708.81 43.8567 708.81 L64.0042 708.81 L64.0042 714.698 L28.3562 714.698 L28.3562 708.81 L33.8944 708.81 Q30.6797 706.709 29.0883 703.876 Q27.4968 701.012 27.4968 697.288 Q27.4968 691.145 31.3163 687.994 Q35.1038 684.843 42.4881 684.843 Z" fill="#000000" fill-rule="nonzero" fill-opacity="1" /><path clip-path="url(#clip930)" d="M46.212 626.851 Q39.7508 626.851 36.0905 629.525 Q32.3984 632.166 32.3984 636.813 Q32.3984 641.46 36.0905 644.134 Q39.7508 646.776 46.212 646.776 Q52.6732 646.776 56.3653 644.134 Q60.0256 641.46 60.0256 636.813 Q60.0256 632.166 56.3653 629.525 Q52.6732 626.851 46.212 626.851 M33.7671 646.776 Q30.5842 644.93 29.0564 642.129 Q27.4968 639.296 27.4968 635.381 Q27.4968 628.888 32.6531 624.846 Q37.8093 620.772 46.212 620.772 Q54.6147 620.772 59.771 624.846 Q64.9272 628.888 64.9272 635.381 Q64.9272 639.296 63.3994 642.129 Q61.8398 644.93 58.657 646.776 L64.0042 646.776 L64.0042 652.664 L14.479 652.664 L14.479 646.776 L33.7671 646.776 Z" fill="#000000" fill-rule="nonzero" fill-opacity="1" /><path clip-path="url(#clip930)" d="M28.3562 611.064 L28.3562 605.208 L64.0042 605.208 L64.0042 611.064 L28.3562 611.064 M14.479 611.064 L14.479 605.208 L21.895 605.208 L21.895 611.064 L14.479 611.064 Z" fill="#000000" fill-rule="nonzero" fill-opacity="1" /><path clip-path="url(#clip930)" d="M42.4881 563.321 L64.0042 563.321 L64.0042 569.178 L42.679 569.178 Q37.6183 569.178 35.1038 571.151 Q32.5894 573.125 32.5894 577.071 Q32.5894 581.814 35.6131 584.551 Q38.6368 587.288 43.8567 587.288 L64.0042 587.288 L64.0042 593.176 L28.3562 593.176 L28.3562 587.288 L33.8944 587.288 Q30.6797 585.188 29.0883 582.355 Q27.4968 579.49 27.4968 575.766 Q27.4968 569.623 31.3163 566.472 Q35.1038 563.321 42.4881 563.321 Z" fill="#000000" fill-rule="nonzero" fill-opacity="1" /><path clip-path="url(#clip930)" d="M963.13 12.096 L971.92 12.096 L986.949 34.5785 L1002.06 12.096 L1010.85 12.096 L991.405 41.141 L1012.15 72.576 L1003.36 72.576 L986.342 46.8528 L969.206 72.576 L960.375 72.576 L981.967 40.2903 L963.13 12.096 Z" fill="#000000" fill-rule="nonzero" fill-opacity="1" /><path clip-path="url(#clip930)" d="M1069.55 49.7694 Q1060.51 49.7694 1057.03 51.8354 Q1053.55 53.9013 1053.55 58.8839 Q1053.55 62.8538 1056.14 65.2034 Q1058.77 67.5124 1063.27 67.5124 Q1069.47 67.5124 1073.19 63.1374 Q1076.96 58.7219 1076.96 51.4303 L1076.96 49.7694 L1069.55 49.7694 M1084.41 46.6907 L1084.41 72.576 L1076.96 72.576 L1076.96 65.6895 Q1074.41 69.8214 1070.6 71.8063 Q1066.79 73.7508 1061.28 73.7508 Q1054.32 73.7508 1050.18 69.8619 Q1046.09 65.9325 1046.09 59.3701 Q1046.09 51.7138 1051.2 47.825 Q1056.34 43.9361 1066.51 43.9361 L1076.96 43.9361 L1076.96 43.2069 Q1076.96 38.0623 1073.56 35.2672 Q1070.2 32.4315 1064.08 32.4315 Q1060.19 32.4315 1056.5 33.3632 Q1052.82 34.295 1049.41 36.1584 L1049.41 29.2718 Q1053.51 27.692 1057.35 26.9223 Q1061.2 26.1121 1064.85 26.1121 Q1074.69 26.1121 1079.55 31.2163 Q1084.41 36.3204 1084.41 46.6907 Z" fill="#000000" fill-rule="nonzero" fill-opacity="1" /><path clip-path="url(#clip930)" d="M1137.48 45.1919 L1137.48 72.576 L1130.03 72.576 L1130.03 45.4349 Q1130.03 38.994 1127.52 35.7938 Q1125 32.5936 1119.98 32.5936 Q1113.95 32.5936 1110.46 36.4419 Q1106.98 40.2903 1106.98 46.9338 L1106.98 72.576 L1099.48 72.576 L1099.48 27.2059 L1106.98 27.2059 L1106.98 34.2544 Q1109.65 30.163 1113.26 28.1376 Q1116.9 26.1121 1121.64 26.1121 Q1129.46 26.1121 1133.47 30.9732 Q1137.48 35.7938 1137.48 45.1919 Z" fill="#000000" fill-rule="nonzero" fill-opacity="1" /><path clip-path="url(#clip930)" d="M1182.2 34.0924 L1182.2 9.54393 L1189.66 9.54393 L1189.66 72.576 L1182.2 72.576 L1182.2 65.7705 Q1179.85 69.8214 1176.25 71.8063 Q1172.68 73.7508 1167.66 73.7508 Q1159.44 73.7508 1154.25 67.1883 Q1149.11 60.6258 1149.11 49.9314 Q1149.11 39.2371 1154.25 32.6746 Q1159.44 26.1121 1167.66 26.1121 Q1172.68 26.1121 1176.25 28.0971 Q1179.85 30.0415 1182.2 34.0924 M1156.8 49.9314 Q1156.8 58.1548 1160.17 62.8538 Q1163.57 67.5124 1169.48 67.5124 Q1175.4 67.5124 1178.8 62.8538 Q1182.2 58.1548 1182.2 49.9314 Q1182.2 41.7081 1178.8 37.0496 Q1175.4 32.3505 1169.48 32.3505 Q1163.57 32.3505 1160.17 37.0496 Q1156.8 41.7081 1156.8 49.9314 Z" fill="#000000" fill-rule="nonzero" fill-opacity="1" /><path clip-path="url(#clip930)" d="M1223.4 12.096 L1232.19 12.096 L1248.96 36.9686 L1265.61 12.096 L1274.4 12.096 L1253.01 43.7741 L1253.01 72.576 L1244.79 72.576 L1244.79 43.7741 L1223.4 12.096 Z" fill="#000000" fill-rule="nonzero" fill-opacity="1" /><path clip-path="url(#clip930)" d="M1346.14 45.1919 L1346.14 72.576 L1338.69 72.576 L1338.69 45.4349 Q1338.69 38.994 1336.18 35.7938 Q1333.67 32.5936 1328.64 32.5936 Q1322.61 32.5936 1319.12 36.4419 Q1315.64 40.2903 1315.64 46.9338 L1315.64 72.576 L1308.15 72.576 L1308.15 9.54393 L1315.64 9.54393 L1315.64 34.2544 Q1318.31 30.163 1321.92 28.1376 Q1325.56 26.1121 1330.3 26.1121 Q1338.12 26.1121 1342.13 30.9732 Q1346.14 35.7938 1346.14 45.1919 Z" fill="#000000" fill-rule="nonzero" fill-opacity="1" /><path clip-path="url(#clip930)" d="M1361.01 27.2059 L1368.46 27.2059 L1368.46 72.576 L1361.01 72.576 L1361.01 27.2059 M1361.01 9.54393 L1368.46 9.54393 L1368.46 18.9825 L1361.01 18.9825 L1361.01 9.54393 Z" fill="#000000" fill-rule="nonzero" fill-opacity="1" /><path clip-path="url(#clip930)" d="M1412.98 28.5427 L1412.98 35.5912 Q1409.82 33.9709 1406.42 33.1607 Q1403.02 32.3505 1399.37 32.3505 Q1393.82 32.3505 1391.03 34.0519 Q1388.27 35.7533 1388.27 39.156 Q1388.27 41.7486 1390.26 43.2475 Q1392.24 44.7058 1398.24 46.0426 L1400.79 46.6097 Q1408.73 48.3111 1412.05 51.4303 Q1415.41 54.509 1415.41 60.0587 Q1415.41 66.3781 1410.39 70.0644 Q1405.41 73.7508 1396.66 73.7508 Q1393.01 73.7508 1389.04 73.0216 Q1385.11 72.3329 1380.74 70.9151 L1380.74 63.2184 Q1384.87 65.3654 1388.88 66.4591 Q1392.89 67.5124 1396.82 67.5124 Q1402.09 67.5124 1404.92 65.73 Q1407.76 63.9071 1407.76 60.6258 Q1407.76 57.5877 1405.69 55.9673 Q1403.67 54.3469 1396.74 52.8481 L1394.15 52.2405 Q1387.22 50.7821 1384.14 47.7845 Q1381.06 44.7463 1381.06 39.4801 Q1381.06 33.0797 1385.6 29.5959 Q1390.14 26.1121 1398.48 26.1121 Q1402.61 26.1121 1406.26 26.7198 Q1409.9 27.3274 1412.98 28.5427 Z" fill="#000000" fill-rule="nonzero" fill-opacity="1" /><path clip-path="url(#clip930)" d="M1434.66 14.324 L1434.66 27.2059 L1450.01 27.2059 L1450.01 32.9987 L1434.66 32.9987 L1434.66 57.6282 Q1434.66 63.1779 1436.15 64.7578 Q1437.69 66.3376 1442.35 66.3376 L1450.01 66.3376 L1450.01 72.576 L1442.35 72.576 Q1433.72 72.576 1430.44 69.3758 Q1427.16 66.1351 1427.16 57.6282 L1427.16 32.9987 L1421.69 32.9987 L1421.69 27.2059 L1427.16 27.2059 L1427.16 14.324 L1434.66 14.324 Z" fill="#000000" fill-rule="nonzero" fill-opacity="1" /><path clip-path="url(#clip930)" d="M1477.39 32.4315 Q1471.4 32.4315 1467.91 37.1306 Q1464.43 41.7891 1464.43 49.9314 Q1464.43 58.0738 1467.87 62.7728 Q1471.36 67.4314 1477.39 67.4314 Q1483.35 67.4314 1486.83 62.7323 Q1490.31 58.0333 1490.31 49.9314 Q1490.31 41.8701 1486.83 37.1711 Q1483.35 32.4315 1477.39 32.4315 M1477.39 26.1121 Q1487.11 26.1121 1492.66 32.4315 Q1498.21 38.7509 1498.21 49.9314 Q1498.21 61.0714 1492.66 67.4314 Q1487.11 73.7508 1477.39 73.7508 Q1467.63 73.7508 1462.08 67.4314 Q1456.57 61.0714 1456.57 49.9314 Q1456.57 38.7509 1462.08 32.4315 Q1467.63 26.1121 1477.39 26.1121 Z" fill="#000000" fill-rule="nonzero" fill-opacity="1" /><path clip-path="url(#clip930)" d="M1540.42 49.3643 Q1540.42 41.2625 1537.06 36.8065 Q1533.74 32.3505 1527.7 32.3505 Q1521.71 32.3505 1518.35 36.8065 Q1515.03 41.2625 1515.03 49.3643 Q1515.03 57.4256 1518.35 61.8816 Q1521.71 66.3376 1527.7 66.3376 Q1533.74 66.3376 1537.06 61.8816 Q1540.42 57.4256 1540.42 49.3643 M1547.88 66.9452 Q1547.88 78.5308 1542.73 84.1616 Q1537.59 89.8329 1526.98 89.8329 Q1523.05 89.8329 1519.56 89.2252 Q1516.08 88.6581 1512.8 87.4428 L1512.8 80.1917 Q1516.08 81.9741 1519.28 82.8248 Q1522.48 83.6755 1525.8 83.6755 Q1533.13 83.6755 1536.78 79.8271 Q1540.42 76.0193 1540.42 68.282 L1540.42 64.5957 Q1538.12 68.6061 1534.51 70.5911 Q1530.9 72.576 1525.88 72.576 Q1517.54 72.576 1512.43 66.2161 Q1507.33 59.8562 1507.33 49.3643 Q1507.33 38.832 1512.43 32.472 Q1517.54 26.1121 1525.88 26.1121 Q1530.9 26.1121 1534.51 28.0971 Q1538.12 30.082 1540.42 34.0924 L1540.42 27.2059 L1547.88 27.2059 L1547.88 66.9452 Z" fill="#000000" fill-rule="nonzero" fill-opacity="1" /><path clip-path="url(#clip930)" d="M1589.52 34.1734 Q1588.27 33.4443 1586.77 33.1202 Q1585.31 32.7556 1583.53 32.7556 Q1577.21 32.7556 1573.8 36.8875 Q1570.44 40.9789 1570.44 48.6757 L1570.44 72.576 L1562.95 72.576 L1562.95 27.2059 L1570.44 27.2059 L1570.44 34.2544 Q1572.79 30.1225 1576.56 28.1376 Q1580.33 26.1121 1585.71 26.1121 Q1586.48 26.1121 1587.41 26.2337 Q1588.35 26.3147 1589.48 26.5172 L1589.52 34.1734 Z" fill="#000000" fill-rule="nonzero" fill-opacity="1" /><path clip-path="url(#clip930)" d="M1617.96 49.7694 Q1608.93 49.7694 1605.44 51.8354 Q1601.96 53.9013 1601.96 58.8839 Q1601.96 62.8538 1604.55 65.2034 Q1607.18 67.5124 1611.68 67.5124 Q1617.88 67.5124 1621.6 63.1374 Q1625.37 58.7219 1625.37 51.4303 L1625.37 49.7694 L1617.96 49.7694 M1632.83 46.6907 L1632.83 72.576 L1625.37 72.576 L1625.37 65.6895 Q1622.82 69.8214 1619.01 71.8063 Q1615.2 73.7508 1609.69 73.7508 Q1602.73 73.7508 1598.6 69.8619 Q1594.5 65.9325 1594.5 59.3701 Q1594.5 51.7138 1599.61 47.825 Q1604.75 43.9361 1614.92 43.9361 L1625.37 43.9361 L1625.37 43.2069 Q1625.37 38.0623 1621.97 35.2672 Q1618.61 32.4315 1612.49 32.4315 Q1608.6 32.4315 1604.91 33.3632 Q1601.23 34.295 1597.83 36.1584 L1597.83 29.2718 Q1601.92 27.692 1605.77 26.9223 Q1609.61 26.1121 1613.26 26.1121 Q1623.1 26.1121 1627.96 31.2163 Q1632.83 36.3204 1632.83 46.6907 Z" fill="#000000" fill-rule="nonzero" fill-opacity="1" /><path clip-path="url(#clip930)" d="M1683.5 35.9153 Q1686.3 30.8922 1690.19 28.5022 Q1694.08 26.1121 1699.34 26.1121 Q1706.43 26.1121 1710.28 31.0947 Q1714.13 36.0368 1714.13 45.1919 L1714.13 72.576 L1706.63 72.576 L1706.63 45.4349 Q1706.63 38.913 1704.32 35.7533 Q1702.01 32.5936 1697.28 32.5936 Q1691.48 32.5936 1688.12 36.4419 Q1684.76 40.2903 1684.76 46.9338 L1684.76 72.576 L1677.26 72.576 L1677.26 45.4349 Q1677.26 38.8725 1674.95 35.7533 Q1672.65 32.5936 1667.83 32.5936 Q1662.11 32.5936 1658.75 36.4824 Q1655.39 40.3308 1655.39 46.9338 L1655.39 72.576 L1647.89 72.576 L1647.89 27.2059 L1655.39 27.2059 L1655.39 34.2544 Q1657.94 30.082 1661.51 28.0971 Q1665.07 26.1121 1669.97 26.1121 Q1674.91 26.1121 1678.36 28.6237 Q1681.84 31.1352 1683.5 35.9153 Z" fill="#000000" fill-rule="nonzero" fill-opacity="1" /><path clip-path="url(#clip930)" d="M1757.92 28.5427 L1757.92 35.5912 Q1754.76 33.9709 1751.35 33.1607 Q1747.95 32.3505 1744.31 32.3505 Q1738.76 32.3505 1735.96 34.0519 Q1733.21 35.7533 1733.21 39.156 Q1733.21 41.7486 1735.19 43.2475 Q1737.18 44.7058 1743.17 46.0426 L1745.72 46.6097 Q1753.66 48.3111 1756.99 51.4303 Q1760.35 54.509 1760.35 60.0587 Q1760.35 66.3781 1755.32 70.0644 Q1750.34 73.7508 1741.59 73.7508 Q1737.95 73.7508 1733.98 73.0216 Q1730.05 72.3329 1725.67 70.9151 L1725.67 63.2184 Q1729.8 65.3654 1733.81 66.4591 Q1737.82 67.5124 1741.75 67.5124 Q1747.02 67.5124 1749.86 65.73 Q1752.69 63.9071 1752.69 60.6258 Q1752.69 57.5877 1750.63 55.9673 Q1748.6 54.3469 1741.67 52.8481 L1739.08 52.2405 Q1732.15 50.7821 1729.07 47.7845 Q1726 44.7463 1726 39.4801 Q1726 33.0797 1730.53 29.5959 Q1735.07 26.1121 1743.42 26.1121 Q1747.55 26.1121 1751.19 26.7198 Q1754.84 27.3274 1757.92 28.5427 Z" fill="#000000" fill-rule="nonzero" fill-opacity="1" /><polyline clip-path="url(#clip932)" style="stroke:#009af9; stroke-linecap:round; stroke-linejoin:round; stroke-width:4; stroke-opacity:1; fill:none" points="424.141,1386.4 424.141,308.54 454.836,308.54 454.836,301.27 485.532,301.27 485.532,294.878 516.228,294.878 516.228,295.837 546.924,295.837 546.924,267.395 577.619,267.395 577.619,274.106 608.315,274.106 608.315,271.07 639.011,271.07 639.011,253.733 669.707,253.733 669.707,243.426 700.403,243.426 700.403,239.112 731.098,239.112 731.098,234.798 761.794,234.798 761.794,230.244 792.49,230.244 792.49,234.878 823.186,234.878 823.186,222.494 853.881,222.494 853.881,205.716 884.577,205.716 884.577,203 915.273,203 915.273,208.912 945.969,208.912 945.969,210.43 976.664,210.43 976.664,220.577 1007.36,220.577 1007.36,181.668 1038.06,181.668 1038.06,200.683 1068.75,200.683 1068.75,200.923 1099.45,200.923 1099.45,179.031 1130.14,179.031 1130.14,182.467 1160.84,182.467 1160.84,168.246 1191.53,168.246 1191.53,201.242 1222.23,201.242 1222.23,191.335 1252.93,191.335 1252.93,190.456 1283.62,190.456 1283.62,186.781 1314.32,186.781 1314.32,184.305 1345.01,184.305 1345.01,174.318 1375.71,174.318 1375.71,172.24 1406.41,172.24 1406.41,176.874 1437.1,176.874 1437.1,160.256 1467.8,160.256 1467.8,186.941 1498.49,186.941 1498.49,176.235 1529.19,176.235 1529.19,190.137 1559.88,190.137 1559.88,195.969 1590.58,195.969 1590.58,190.856 1621.28,190.856 1621.28,181.988 1651.97,181.988 1651.97,204.198 1682.67,204.198 1682.67,204.598 1713.36,204.598 1713.36,205.636 1744.06,205.636 1744.06,206.995 1774.75,206.995 1774.75,199.165 1805.45,199.165 1805.45,199.804 1836.15,199.804 1836.15,213.865 1866.84,213.865 1866.84,219.937 1897.54,219.937 1897.54,232.321 1928.23,232.321 1928.23,248.38 1958.93,248.38 1958.93,235.197 1989.62,235.197 1989.62,246.782 2020.32,246.782 2020.32,252.614 2051.02,252.614 2051.02,281.376 2081.71,281.376 2081.71,259.965 2112.41,259.965 2112.41,279.938 2143.1,279.938 2143.1,281.137 2173.8,281.137 2173.8,293.6 2204.5,293.6 2204.5,306.303 2235.19,306.303 2235.19,296.316 2265.89,296.316 2265.89,1386.24 2296.58,1386.24 2296.58,1386.4 "/>
<polyline clip-path="url(#clip932)" style="stroke:#e26f46; stroke-linecap:round; stroke-linejoin:round; stroke-width:4; stroke-opacity:1; fill:none" points="424.141,1386.4 424.141,303.267 454.836,303.267 454.836,294.798 485.532,294.798 485.532,288.087 516.228,288.087 516.228,284.892 546.924,284.892 546.924,259.325 577.619,259.325 577.619,267.554 608.315,267.554 608.315,252.375 639.011,252.375 639.011,251.975 669.707,251.975 669.707,251.496 700.403,251.496 700.403,240.071 731.098,240.071 731.098,227.128 761.794,227.128 761.794,224.891 792.49,224.891 792.49,225.37 823.186,225.37 823.186,224.811 853.881,224.811 853.881,198.606 884.577,198.606 884.577,211.389 915.273,211.389 915.273,216.502 945.969,216.502 945.969,206.515 976.664,206.515 976.664,191.655 1007.36,191.655 1007.36,198.126 1038.06,198.126 1038.06,199.964 1068.75,199.964 1068.75,201.002 1099.45,201.002 1099.45,182.227 1130.14,182.227 1130.14,186.142 1160.84,186.142 1160.84,184.864 1191.53,184.864 1191.53,182.307 1222.23,182.307 1222.23,179.83 1252.93,179.83 1252.93,185.902 1283.62,185.902 1283.62,181.908 1314.32,181.908 1314.32,179.671 1345.01,179.671 1345.01,185.823 1375.71,185.823 1375.71,163.372 1406.41,163.372 1406.41,190.616 1437.1,190.616 1437.1,180.31 1467.8,180.31 1467.8,185.982 1498.49,185.982 1498.49,191.735 1529.19,191.735 1529.19,194.052 1559.88,194.052 1559.88,212.907 1590.58,212.907 1590.58,198.606 1621.28,198.606 1621.28,202.68 1651.97,202.68 1651.97,197.727 1682.67,197.727 1682.67,191.894 1713.36,191.894 1713.36,205.876 1744.06,205.876 1744.06,206.435 1774.75,206.435 1774.75,227.767 1805.45,227.767 1805.45,227.847 1836.15,227.847 1836.15,212.507 1866.84,212.507 1866.84,235.037 1897.54,235.037 1897.54,235.757 1928.23,235.757 1928.23,237.115 1958.93,237.115 1958.93,245.184 1989.62,245.184 1989.62,234.398 2020.32,234.398 2020.32,256.689 2051.02,256.689 2051.02,258.846 2081.71,258.846 2081.71,261.403 2112.41,261.403 2112.41,264.838 2143.1,264.838 2143.1,273.387 2173.8,273.387 2173.8,280.657 2204.5,280.657 2204.5,312.615 2235.19,312.615 2235.19,306.703 2265.89,306.703 2265.89,1386.32 2296.58,1386.32 2296.58,1386.4 "/>
<path clip-path="url(#clip930)" d="M434.127 1379.86 L662.189 1379.86 L662.189 1224.34 L434.127 1224.34  Z" fill="#ffffff" fill-rule="evenodd" fill-opacity="1"/>
<polyline clip-path="url(#clip930)" style="stroke:#000000; stroke-linecap:round; stroke-linejoin:round; stroke-width:4; stroke-opacity:1; fill:none" points="434.127,1379.86 662.189,1379.86 662.189,1224.34 434.127,1224.34 434.127,1379.86 "/>
<polyline clip-path="url(#clip930)" style="stroke:#009af9; stroke-linecap:round; stroke-linejoin:round; stroke-width:4; stroke-opacity:1; fill:none" points="456.18,1276.18 588.499,1276.18 "/>
<path clip-path="url(#clip930)" d="M612.127 1258.9 L617.15 1258.9 L625.738 1271.74 L634.372 1258.9 L639.395 1258.9 L628.284 1275.49 L640.136 1293.46 L635.113 1293.46 L625.39 1278.76 L615.599 1293.46 L610.553 1293.46 L622.89 1275.01 L612.127 1258.9 Z" fill="#000000" fill-rule="nonzero" fill-opacity="1" /><polyline clip-path="url(#clip930)" style="stroke:#e26f46; stroke-linecap:round; stroke-linejoin:round; stroke-width:4; stroke-opacity:1; fill:none" points="456.18,1328.02 588.499,1328.02 "/>
<path clip-path="url(#clip930)" d="M610.553 1310.74 L615.576 1310.74 L625.159 1324.95 L634.673 1310.74 L639.696 1310.74 L627.474 1328.84 L627.474 1345.3 L622.775 1345.3 L622.775 1328.84 L610.553 1310.74 Z" fill="#000000" fill-rule="nonzero" fill-opacity="1" /></svg>
