<?xml version="1.0" encoding="utf-8"?>
<svg xmlns="http://www.w3.org/2000/svg" xmlns:xlink="http://www.w3.org/1999/xlink" width="600" height="400" viewBox="0 0 2400 1600">
<defs>
  <clipPath id="clip560">
    <rect x="0" y="0" width="2400" height="1600"/>
  </clipPath>
</defs>
<path clip-path="url(#clip560)" d="M0 1600 L2400 1600 L2400 0 L0 0  Z" fill="#ffffff" fill-rule="evenodd" fill-opacity="1"/>
<defs>
  <clipPath id="clip561">
    <rect x="480" y="0" width="1681" height="1600"/>
  </clipPath>
</defs>
<path clip-path="url(#clip560)" d="M367.967 1423.18 L2352.76 1423.18 L2352.76 123.472 L367.967 123.472  Z" fill="#ffffff" fill-rule="evenodd" fill-opacity="1"/>
<defs>
  <clipPath id="clip562">
    <rect x="367" y="123" width="1986" height="1301"/>
  </clipPath>
</defs>
<polyline clip-path="url(#clip562)" style="stroke:#000000; stroke-linecap:round; stroke-linejoin:round; stroke-width:2; stroke-opacity:0.1; fill:none" points="424.141,1423.18 424.141,123.472 "/>
<polyline clip-path="url(#clip562)" style="stroke:#000000; stroke-linecap:round; stroke-linejoin:round; stroke-width:2; stroke-opacity:0.1; fill:none" points="731.098,1423.18 731.098,123.472 "/>
<polyline clip-path="url(#clip562)" style="stroke:#000000; stroke-linecap:round; stroke-linejoin:round; stroke-width:2; stroke-opacity:0.1; fill:none" points="1038.06,1423.18 1038.06,123.472 "/>
<polyline clip-path="url(#clip562)" style="stroke:#000000; stroke-linecap:round; stroke-linejoin:round; stroke-width:2; stroke-opacity:0.1; fill:none" points="1345.01,1423.18 1345.01,123.472 "/>
<polyline clip-path="url(#clip562)" style="stroke:#000000; stroke-linecap:round; stroke-linejoin:round; stroke-width:2; stroke-opacity:0.1; fill:none" points="1651.97,1423.18 1651.97,123.472 "/>
<polyline clip-path="url(#clip562)" style="stroke:#000000; stroke-linecap:round; stroke-linejoin:round; stroke-width:2; stroke-opacity:0.1; fill:none" points="1958.93,1423.18 1958.93,123.472 "/>
<polyline clip-path="url(#clip562)" style="stroke:#000000; stroke-linecap:round; stroke-linejoin:round; stroke-width:2; stroke-opacity:0.1; fill:none" points="2265.89,1423.18 2265.89,123.472 "/>
<polyline clip-path="url(#clip562)" style="stroke:#000000; stroke-linecap:round; stroke-linejoin:round; stroke-width:2; stroke-opacity:0.1; fill:none" points="367.967,1386.4 2352.76,1386.4 "/>
<polyline clip-path="url(#clip562)" style="stroke:#000000; stroke-linecap:round; stroke-linejoin:round; stroke-width:2; stroke-opacity:0.1; fill:none" points="367.967,984.594 2352.76,984.594 "/>
<polyline clip-path="url(#clip562)" style="stroke:#000000; stroke-linecap:round; stroke-linejoin:round; stroke-width:2; stroke-opacity:0.1; fill:none" points="367.967,582.791 2352.76,582.791 "/>
<polyline clip-path="url(#clip562)" style="stroke:#000000; stroke-linecap:round; stroke-linejoin:round; stroke-width:2; stroke-opacity:0.1; fill:none" points="367.967,180.989 2352.76,180.989 "/>
<polyline clip-path="url(#clip560)" style="stroke:#000000; stroke-linecap:round; stroke-linejoin:round; stroke-width:4; stroke-opacity:1; fill:none" points="367.967,1423.18 2352.76,1423.18 "/>
<polyline clip-path="url(#clip560)" style="stroke:#000000; stroke-linecap:round; stroke-linejoin:round; stroke-width:4; stroke-opacity:1; fill:none" points="424.141,1423.18 424.141,1404.28 "/>
<polyline clip-path="url(#clip560)" style="stroke:#000000; stroke-linecap:round; stroke-linejoin:round; stroke-width:4; stroke-opacity:1; fill:none" points="731.098,1423.18 731.098,1404.28 "/>
<polyline clip-path="url(#clip560)" style="stroke:#000000; stroke-linecap:round; stroke-linejoin:round; stroke-width:4; stroke-opacity:1; fill:none" points="1038.06,1423.18 1038.06,1404.28 "/>
<polyline clip-path="url(#clip560)" style="stroke:#000000; stroke-linecap:round; stroke-linejoin:round; stroke-width:4; stroke-opacity:1; fill:none" points="1345.01,1423.18 1345.01,1404.28 "/>
<polyline clip-path="url(#clip560)" style="stroke:#000000; stroke-linecap:round; stroke-linejoin:round; stroke-width:4; stroke-opacity:1; fill:none" points="1651.97,1423.18 1651.97,1404.28 "/>
<polyline clip-path="url(#clip560)" style="stroke:#000000; stroke-linecap:round; stroke-linejoin:round; stroke-width:4; stroke-opacity:1; fill:none" points="1958.93,1423.18 1958.93,1404.28 "/>
<polyline clip-path="url(#clip560)" style="stroke:#000000; stroke-linecap:round; stroke-linejoin:round; stroke-width:4; stroke-opacity:1; fill:none" points="2265.89,1423.18 2265.89,1404.28 "/>
<path clip-path="url(#clip560)" d="M378.701 1468.75 L408.377 1468.75 L408.377 1472.69 L378.701 1472.69 L378.701 1468.75 Z" fill="#000000" fill-rule="nonzero" fill-opacity="1" /><path clip-path="url(#clip560)" d="M419.28 1481.64 L426.918 1481.64 L426.918 1455.28 L418.608 1456.95 L418.608 1452.69 L426.872 1451.02 L431.548 1451.02 L431.548 1481.64 L439.187 1481.64 L439.187 1485.58 L419.28 1485.58 L419.28 1481.64 Z" fill="#000000" fill-rule="nonzero" fill-opacity="1" /><path clip-path="url(#clip560)" d="M448.677 1451.02 L467.034 1451.02 L467.034 1454.96 L452.96 1454.96 L452.96 1463.43 Q453.978 1463.08 454.997 1462.92 Q456.015 1462.73 457.034 1462.73 Q462.821 1462.73 466.201 1465.9 Q469.58 1469.08 469.58 1474.49 Q469.58 1480.07 466.108 1483.17 Q462.636 1486.25 456.316 1486.25 Q454.14 1486.25 451.872 1485.88 Q449.627 1485.51 447.219 1484.77 L447.219 1480.07 Q449.302 1481.2 451.525 1481.76 Q453.747 1482.32 456.224 1482.32 Q460.228 1482.32 462.566 1480.21 Q464.904 1478.1 464.904 1474.49 Q464.904 1470.88 462.566 1468.77 Q460.228 1466.67 456.224 1466.67 Q454.349 1466.67 452.474 1467.08 Q450.622 1467.5 448.677 1468.38 L448.677 1451.02 Z" fill="#000000" fill-rule="nonzero" fill-opacity="1" /><path clip-path="url(#clip560)" d="M685.161 1468.75 L714.837 1468.75 L714.837 1472.69 L685.161 1472.69 L685.161 1468.75 Z" fill="#000000" fill-rule="nonzero" fill-opacity="1" /><path clip-path="url(#clip560)" d="M725.74 1481.64 L733.378 1481.64 L733.378 1455.28 L725.068 1456.95 L725.068 1452.69 L733.332 1451.02 L738.008 1451.02 L738.008 1481.64 L745.647 1481.64 L745.647 1485.58 L725.74 1485.58 L725.74 1481.64 Z" fill="#000000" fill-rule="nonzero" fill-opacity="1" /><path clip-path="url(#clip560)" d="M765.091 1454.1 Q761.48 1454.1 759.651 1457.66 Q757.846 1461.2 757.846 1468.33 Q757.846 1475.44 759.651 1479.01 Q761.48 1482.55 765.091 1482.55 Q768.725 1482.55 770.531 1479.01 Q772.36 1475.44 772.36 1468.33 Q772.36 1461.2 770.531 1457.66 Q768.725 1454.1 765.091 1454.1 M765.091 1450.39 Q770.901 1450.39 773.957 1455 Q777.036 1459.58 777.036 1468.33 Q777.036 1477.06 773.957 1481.67 Q770.901 1486.25 765.091 1486.25 Q759.281 1486.25 756.202 1481.67 Q753.147 1477.06 753.147 1468.33 Q753.147 1459.58 756.202 1455 Q759.281 1450.39 765.091 1450.39 Z" fill="#000000" fill-rule="nonzero" fill-opacity="1" /><path clip-path="url(#clip560)" d="M1007.7 1468.75 L1037.37 1468.75 L1037.37 1472.69 L1007.7 1472.69 L1007.7 1468.75 Z" fill="#000000" fill-rule="nonzero" fill-opacity="1" /><path clip-path="url(#clip560)" d="M1047.51 1451.02 L1065.87 1451.02 L1065.87 1454.96 L1051.79 1454.96 L1051.79 1463.43 Q1052.81 1463.08 1053.83 1462.92 Q1054.85 1462.73 1055.87 1462.73 Q1061.66 1462.73 1065.04 1465.9 Q1068.41 1469.08 1068.41 1474.49 Q1068.41 1480.07 1064.94 1483.17 Q1061.47 1486.25 1055.15 1486.25 Q1052.97 1486.25 1050.71 1485.88 Q1048.46 1485.51 1046.05 1484.77 L1046.05 1480.07 Q1048.14 1481.2 1050.36 1481.76 Q1052.58 1482.32 1055.06 1482.32 Q1059.06 1482.32 1061.4 1480.21 Q1063.74 1478.1 1063.74 1474.49 Q1063.74 1470.88 1061.4 1468.77 Q1059.06 1466.67 1055.06 1466.67 Q1053.18 1466.67 1051.31 1467.08 Q1049.46 1467.5 1047.51 1468.38 L1047.51 1451.02 Z" fill="#000000" fill-rule="nonzero" fill-opacity="1" /><path clip-path="url(#clip560)" d="M1345.01 1454.1 Q1341.4 1454.1 1339.57 1457.66 Q1337.77 1461.2 1337.77 1468.33 Q1337.77 1475.44 1339.57 1479.01 Q1341.4 1482.55 1345.01 1482.55 Q1348.65 1482.55 1350.45 1479.01 Q1352.28 1475.44 1352.28 1468.33 Q1352.28 1461.2 1350.45 1457.66 Q1348.65 1454.1 1345.01 1454.1 M1345.01 1450.39 Q1350.82 1450.39 1353.88 1455 Q1356.96 1459.58 1356.96 1468.33 Q1356.96 1477.06 1353.88 1481.67 Q1350.82 1486.25 1345.01 1486.25 Q1339.2 1486.25 1336.12 1481.67 Q1333.07 1477.06 1333.07 1468.33 Q1333.07 1459.58 1336.12 1455 Q1339.2 1450.39 1345.01 1450.39 Z" fill="#000000" fill-rule="nonzero" fill-opacity="1" /><path clip-path="url(#clip560)" d="M1642.25 1451.02 L1660.61 1451.02 L1660.61 1454.96 L1646.53 1454.96 L1646.53 1463.43 Q1647.55 1463.08 1648.57 1462.92 Q1649.59 1462.73 1650.61 1462.73 Q1656.39 1462.73 1659.77 1465.9 Q1663.15 1469.08 1663.15 1474.49 Q1663.15 1480.07 1659.68 1483.17 Q1656.21 1486.25 1649.89 1486.25 Q1647.71 1486.25 1645.44 1485.88 Q1643.2 1485.51 1640.79 1484.77 L1640.79 1480.07 Q1642.87 1481.2 1645.1 1481.76 Q1647.32 1482.32 1649.8 1482.32 Q1653.8 1482.32 1656.14 1480.21 Q1658.48 1478.1 1658.48 1474.49 Q1658.48 1470.88 1656.14 1468.77 Q1653.8 1466.67 1649.8 1466.67 Q1647.92 1466.67 1646.05 1467.08 Q1644.19 1467.5 1642.25 1468.38 L1642.25 1451.02 Z" fill="#000000" fill-rule="nonzero" fill-opacity="1" /><path clip-path="url(#clip560)" d="M1933.62 1481.64 L1941.26 1481.64 L1941.26 1455.28 L1932.95 1456.95 L1932.95 1452.69 L1941.21 1451.02 L1945.89 1451.02 L1945.89 1481.64 L1953.52 1481.64 L1953.52 1485.58 L1933.62 1485.58 L1933.62 1481.64 Z" fill="#000000" fill-rule="nonzero" fill-opacity="1" /><path clip-path="url(#clip560)" d="M1972.97 1454.1 Q1969.36 1454.1 1967.53 1457.66 Q1965.72 1461.2 1965.72 1468.33 Q1965.72 1475.44 1967.53 1479.01 Q1969.36 1482.55 1972.97 1482.55 Q1976.6 1482.55 1978.41 1479.01 Q1980.24 1475.44 1980.24 1468.33 Q1980.24 1461.2 1978.41 1457.66 Q1976.6 1454.1 1972.97 1454.1 M1972.97 1450.39 Q1978.78 1450.39 1981.83 1455 Q1984.91 1459.58 1984.91 1468.33 Q1984.91 1477.06 1981.83 1481.67 Q1978.78 1486.25 1972.97 1486.25 Q1967.16 1486.25 1964.08 1481.67 Q1961.02 1477.06 1961.02 1468.33 Q1961.02 1459.58 1964.08 1455 Q1967.16 1450.39 1972.97 1450.39 Z" fill="#000000" fill-rule="nonzero" fill-opacity="1" /><path clip-path="url(#clip560)" d="M2241.07 1481.64 L2248.71 1481.64 L2248.71 1455.28 L2240.4 1456.95 L2240.4 1452.69 L2248.66 1451.02 L2253.34 1451.02 L2253.34 1481.64 L2260.98 1481.64 L2260.98 1485.58 L2241.07 1485.58 L2241.07 1481.64 Z" fill="#000000" fill-rule="nonzero" fill-opacity="1" /><path clip-path="url(#clip560)" d="M2270.47 1451.02 L2288.83 1451.02 L2288.83 1454.96 L2274.75 1454.96 L2274.75 1463.43 Q2275.77 1463.08 2276.79 1462.92 Q2277.81 1462.73 2278.83 1462.73 Q2284.61 1462.73 2287.99 1465.9 Q2291.37 1469.08 2291.37 1474.49 Q2291.37 1480.07 2287.9 1483.17 Q2284.43 1486.25 2278.11 1486.25 Q2275.93 1486.25 2273.66 1485.88 Q2271.42 1485.51 2269.01 1484.77 L2269.01 1480.07 Q2271.1 1481.2 2273.32 1481.76 Q2275.54 1482.32 2278.02 1482.32 Q2282.02 1482.32 2284.36 1480.21 Q2286.7 1478.1 2286.7 1474.49 Q2286.7 1470.88 2284.36 1468.77 Q2282.02 1466.67 2278.02 1466.67 Q2276.14 1466.67 2274.27 1467.08 Q2272.41 1467.5 2270.47 1468.38 L2270.47 1451.02 Z" fill="#000000" fill-rule="nonzero" fill-opacity="1" /><path clip-path="url(#clip560)" d="M1160.43 1525.81 L1160.43 1543.66 L1168.52 1543.66 Q1173 1543.66 1175.45 1541.34 Q1177.9 1539.02 1177.9 1534.72 Q1177.9 1530.45 1175.45 1528.13 Q1173 1525.81 1168.52 1525.81 L1160.43 1525.81 M1154 1520.52 L1168.52 1520.52 Q1176.5 1520.52 1180.58 1524.15 Q1184.68 1527.75 1184.68 1534.72 Q1184.68 1541.75 1180.58 1545.35 Q1176.5 1548.95 1168.52 1548.95 L1160.43 1548.95 L1160.43 1568.04 L1154 1568.04 L1154 1520.52 Z" fill="#000000" fill-rule="nonzero" fill-opacity="1" /><path clip-path="url(#clip560)" d="M1204.55 1536.5 Q1199.83 1536.5 1197.1 1540.19 Q1194.36 1543.85 1194.36 1550.25 Q1194.36 1556.65 1197.07 1560.34 Q1199.8 1564 1204.55 1564 Q1209.22 1564 1211.96 1560.31 Q1214.7 1556.62 1214.7 1550.25 Q1214.7 1543.92 1211.96 1540.23 Q1209.22 1536.5 1204.55 1536.5 M1204.55 1531.54 Q1212.18 1531.54 1216.54 1536.5 Q1220.9 1541.47 1220.9 1550.25 Q1220.9 1559 1216.54 1564 Q1212.18 1568.97 1204.55 1568.97 Q1196.87 1568.97 1192.51 1564 Q1188.19 1559 1188.19 1550.25 Q1188.19 1541.47 1192.51 1536.5 Q1196.87 1531.54 1204.55 1531.54 Z" fill="#000000" fill-rule="nonzero" fill-opacity="1" /><path clip-path="url(#clip560)" d="M1253.34 1533.45 L1253.34 1538.98 Q1250.86 1537.71 1248.18 1537.07 Q1245.51 1536.44 1242.64 1536.44 Q1238.28 1536.44 1236.09 1537.77 Q1233.92 1539.11 1233.92 1541.79 Q1233.92 1543.82 1235.48 1545 Q1237.04 1546.15 1241.75 1547.2 L1243.76 1547.64 Q1250 1548.98 1252.61 1551.43 Q1255.25 1553.85 1255.25 1558.21 Q1255.25 1563.17 1251.3 1566.07 Q1247.39 1568.97 1240.51 1568.97 Q1237.65 1568.97 1234.53 1568.39 Q1231.44 1567.85 1228 1566.74 L1228 1560.69 Q1231.25 1562.38 1234.4 1563.24 Q1237.55 1564.07 1240.64 1564.07 Q1244.78 1564.07 1247 1562.66 Q1249.23 1561.23 1249.23 1558.65 Q1249.23 1556.27 1247.61 1554.99 Q1246.02 1553.72 1240.57 1552.54 L1238.54 1552.07 Q1233.1 1550.92 1230.68 1548.56 Q1228.26 1546.18 1228.26 1542.04 Q1228.26 1537.01 1231.82 1534.27 Q1235.39 1531.54 1241.94 1531.54 Q1245.19 1531.54 1248.05 1532.01 Q1250.92 1532.49 1253.34 1533.45 Z" fill="#000000" fill-rule="nonzero" fill-opacity="1" /><path clip-path="url(#clip560)" d="M1264.57 1532.4 L1270.43 1532.4 L1270.43 1568.04 L1264.57 1568.04 L1264.57 1532.4 M1264.57 1518.52 L1270.43 1518.52 L1270.43 1525.93 L1264.57 1525.93 L1264.57 1518.52 Z" fill="#000000" fill-rule="nonzero" fill-opacity="1" /><path clip-path="url(#clip560)" d="M1288.48 1522.27 L1288.48 1532.4 L1300.54 1532.4 L1300.54 1536.95 L1288.48 1536.95 L1288.48 1556.3 Q1288.48 1560.66 1289.65 1561.9 Q1290.86 1563.14 1294.52 1563.14 L1300.54 1563.14 L1300.54 1568.04 L1294.52 1568.04 Q1287.74 1568.04 1285.17 1565.53 Q1282.59 1562.98 1282.59 1556.3 L1282.59 1536.95 L1278.29 1536.95 L1278.29 1532.4 L1282.59 1532.4 L1282.59 1522.27 L1288.48 1522.27 Z" fill="#000000" fill-rule="nonzero" fill-opacity="1" /><path clip-path="url(#clip560)" d="M1308.24 1532.4 L1314.1 1532.4 L1314.1 1568.04 L1308.24 1568.04 L1308.24 1532.4 M1308.24 1518.52 L1314.1 1518.52 L1314.1 1525.93 L1308.24 1525.93 L1308.24 1518.52 Z" fill="#000000" fill-rule="nonzero" fill-opacity="1" /><path clip-path="url(#clip560)" d="M1340.17 1536.5 Q1335.46 1536.5 1332.72 1540.19 Q1329.98 1543.85 1329.98 1550.25 Q1329.98 1556.65 1332.69 1560.34 Q1335.42 1564 1340.17 1564 Q1344.85 1564 1347.58 1560.31 Q1350.32 1556.62 1350.32 1550.25 Q1350.32 1543.92 1347.58 1540.23 Q1344.85 1536.5 1340.17 1536.5 M1340.17 1531.54 Q1347.81 1531.54 1352.17 1536.5 Q1356.53 1541.47 1356.53 1550.25 Q1356.53 1559 1352.17 1564 Q1347.81 1568.97 1340.17 1568.97 Q1332.5 1568.97 1328.14 1564 Q1323.81 1559 1323.81 1550.25 Q1323.81 1541.47 1328.14 1536.5 Q1332.5 1531.54 1340.17 1531.54 Z" fill="#000000" fill-rule="nonzero" fill-opacity="1" /><path clip-path="url(#clip560)" d="M1395.87 1546.53 L1395.87 1568.04 L1390.01 1568.04 L1390.01 1546.72 Q1390.01 1541.66 1388.04 1539.14 Q1386.06 1536.63 1382.12 1536.63 Q1377.37 1536.63 1374.64 1539.65 Q1371.9 1542.68 1371.9 1547.9 L1371.9 1568.04 L1366.01 1568.04 L1366.01 1532.4 L1371.9 1532.4 L1371.9 1537.93 Q1374 1534.72 1376.83 1533.13 Q1379.7 1531.54 1383.42 1531.54 Q1389.56 1531.54 1392.72 1535.36 Q1395.87 1539.14 1395.87 1546.53 Z" fill="#000000" fill-rule="nonzero" fill-opacity="1" /><path clip-path="url(#clip560)" d="M1442.34 1518.58 Q1438.07 1525.9 1436 1533.06 Q1433.93 1540.23 1433.93 1547.58 Q1433.93 1554.93 1436 1562.16 Q1438.1 1569.35 1442.34 1576.64 L1437.24 1576.64 Q1432.47 1569.16 1430.08 1561.93 Q1427.73 1554.71 1427.73 1547.58 Q1427.73 1540.48 1430.08 1533.29 Q1432.44 1526.09 1437.24 1518.58 L1442.34 1518.58 Z" fill="#000000" fill-rule="nonzero" fill-opacity="1" /><path clip-path="url(#clip560)" d="M1479.35 1533.76 L1479.35 1539.24 Q1476.87 1537.87 1474.36 1537.2 Q1471.87 1536.5 1469.33 1536.5 Q1463.63 1536.5 1460.48 1540.13 Q1457.33 1543.73 1457.33 1550.25 Q1457.33 1556.78 1460.48 1560.4 Q1463.63 1564 1469.33 1564 Q1471.87 1564 1474.36 1563.33 Q1476.87 1562.63 1479.35 1561.26 L1479.35 1566.68 Q1476.9 1567.82 1474.26 1568.39 Q1471.65 1568.97 1468.69 1568.97 Q1460.64 1568.97 1455.89 1563.91 Q1451.15 1558.85 1451.15 1550.25 Q1451.15 1541.53 1455.93 1536.53 Q1460.73 1531.54 1469.07 1531.54 Q1471.78 1531.54 1474.36 1532.11 Q1476.93 1532.65 1479.35 1533.76 Z" fill="#000000" fill-rule="nonzero" fill-opacity="1" /><path clip-path="url(#clip560)" d="M1517.29 1539.24 Q1519.49 1535.29 1522.54 1533.41 Q1525.6 1531.54 1529.74 1531.54 Q1535.31 1531.54 1538.33 1535.45 Q1541.35 1539.33 1541.35 1546.53 L1541.35 1568.04 L1535.47 1568.04 L1535.47 1546.72 Q1535.47 1541.59 1533.65 1539.11 Q1531.84 1536.63 1528.11 1536.63 Q1523.56 1536.63 1520.92 1539.65 Q1518.28 1542.68 1518.28 1547.9 L1518.28 1568.04 L1512.39 1568.04 L1512.39 1546.72 Q1512.39 1541.56 1510.58 1539.11 Q1508.76 1536.63 1504.97 1536.63 Q1500.49 1536.63 1497.84 1539.68 Q1495.2 1542.71 1495.2 1547.9 L1495.2 1568.04 L1489.31 1568.04 L1489.31 1532.4 L1495.2 1532.4 L1495.2 1537.93 Q1497.21 1534.66 1500.01 1533.1 Q1502.81 1531.54 1506.66 1531.54 Q1510.54 1531.54 1513.25 1533.51 Q1515.99 1535.48 1517.29 1539.24 Z" fill="#000000" fill-rule="nonzero" fill-opacity="1" /><path clip-path="url(#clip560)" d="M1552.11 1518.58 L1557.21 1518.58 Q1561.98 1526.09 1564.33 1533.29 Q1566.72 1540.48 1566.72 1547.58 Q1566.72 1554.71 1564.33 1561.93 Q1561.98 1569.16 1557.21 1576.64 L1552.11 1576.64 Q1556.35 1569.35 1558.41 1562.16 Q1560.52 1554.93 1560.52 1547.58 Q1560.52 1540.23 1558.41 1533.06 Q1556.35 1525.9 1552.11 1518.58 Z" fill="#000000" fill-rule="nonzero" fill-opacity="1" /><polyline clip-path="url(#clip560)" style="stroke:#000000; stroke-linecap:round; stroke-linejoin:round; stroke-width:4; stroke-opacity:1; fill:none" points="367.967,1423.18 367.967,123.472 "/>
<polyline clip-path="url(#clip560)" style="stroke:#000000; stroke-linecap:round; stroke-linejoin:round; stroke-width:4; stroke-opacity:1; fill:none" points="367.967,1386.4 386.865,1386.4 "/>
<polyline clip-path="url(#clip560)" style="stroke:#000000; stroke-linecap:round; stroke-linejoin:round; stroke-width:4; stroke-opacity:1; fill:none" points="367.967,984.594 386.865,984.594 "/>
<polyline clip-path="url(#clip560)" style="stroke:#000000; stroke-linecap:round; stroke-linejoin:round; stroke-width:4; stroke-opacity:1; fill:none" points="367.967,582.791 386.865,582.791 "/>
<polyline clip-path="url(#clip560)" style="stroke:#000000; stroke-linecap:round; stroke-linejoin:round; stroke-width:4; stroke-opacity:1; fill:none" points="367.967,180.989 386.865,180.989 "/>
<path clip-path="url(#clip560)" d="M320.023 1372.19 Q316.412 1372.19 314.583 1375.76 Q312.778 1379.3 312.778 1386.43 Q312.778 1393.54 314.583 1397.1 Q316.412 1400.64 320.023 1400.64 Q323.657 1400.64 325.463 1397.1 Q327.291 1393.54 327.291 1386.43 Q327.291 1379.3 325.463 1375.76 Q323.657 1372.19 320.023 1372.19 M320.023 1368.49 Q325.833 1368.49 328.889 1373.1 Q331.967 1377.68 331.967 1386.43 Q331.967 1395.16 328.889 1399.76 Q325.833 1404.35 320.023 1404.35 Q314.213 1404.35 311.134 1399.76 Q308.079 1395.16 308.079 1386.43 Q308.079 1377.68 311.134 1373.1 Q314.213 1368.49 320.023 1368.49 Z" fill="#000000" fill-rule="nonzero" fill-opacity="1" /><path clip-path="url(#clip560)" d="M116.142 973.761 L134.499 973.761 L134.499 977.696 L120.425 977.696 L120.425 986.168 Q121.443 985.821 122.462 985.659 Q123.48 985.474 124.499 985.474 Q130.286 985.474 133.665 988.645 Q137.045 991.817 137.045 997.233 Q137.045 1002.81 133.573 1005.91 Q130.101 1008.99 123.781 1008.99 Q121.605 1008.99 119.337 1008.62 Q117.091 1008.25 114.684 1007.51 L114.684 1002.81 Q116.767 1003.95 118.99 1004.5 Q121.212 1005.06 123.689 1005.06 Q127.693 1005.06 130.031 1002.95 Q132.369 1000.84 132.369 997.233 Q132.369 993.622 130.031 991.516 Q127.693 989.409 123.689 989.409 Q121.814 989.409 119.939 989.826 Q118.087 990.243 116.142 991.122 L116.142 973.761 Z" fill="#000000" fill-rule="nonzero" fill-opacity="1" /><path clip-path="url(#clip560)" d="M146.258 1002.44 L151.142 1002.44 L151.142 1008.32 L146.258 1008.32 L146.258 1002.44 Z" fill="#000000" fill-rule="nonzero" fill-opacity="1" /><path clip-path="url(#clip560)" d="M171.327 976.84 Q167.716 976.84 165.887 980.405 Q164.082 983.946 164.082 991.076 Q164.082 998.182 165.887 1001.75 Q167.716 1005.29 171.327 1005.29 Q174.962 1005.29 176.767 1001.75 Q178.596 998.182 178.596 991.076 Q178.596 983.946 176.767 980.405 Q174.962 976.84 171.327 976.84 M171.327 973.136 Q177.137 973.136 180.193 977.743 Q183.272 982.326 183.272 991.076 Q183.272 999.803 180.193 1004.41 Q177.137 1008.99 171.327 1008.99 Q165.517 1008.99 162.438 1004.41 Q159.383 999.803 159.383 991.076 Q159.383 982.326 162.438 977.743 Q165.517 973.136 171.327 973.136 Z" fill="#000000" fill-rule="nonzero" fill-opacity="1" /><path clip-path="url(#clip560)" d="M201.489 976.84 Q197.878 976.84 196.049 980.405 Q194.244 983.946 194.244 991.076 Q194.244 998.182 196.049 1001.75 Q197.878 1005.29 201.489 1005.29 Q205.123 1005.29 206.929 1001.75 Q208.758 998.182 208.758 991.076 Q208.758 983.946 206.929 980.405 Q205.123 976.84 201.489 976.84 M201.489 973.136 Q207.299 973.136 210.355 977.743 Q213.434 982.326 213.434 991.076 Q213.434 999.803 210.355 1004.41 Q207.299 1008.99 201.489 1008.99 Q195.679 1008.99 192.6 1004.41 Q189.545 999.803 189.545 991.076 Q189.545 982.326 192.6 977.743 Q195.679 973.136 201.489 973.136 Z" fill="#000000" fill-rule="nonzero" fill-opacity="1" /><path clip-path="url(#clip560)" d="M249.822 982.858 L239.244 993.483 L249.822 1004.06 L247.068 1006.86 L236.443 996.238 L225.818 1006.86 L223.086 1004.06 L233.642 993.483 L223.086 982.858 L225.818 980.057 L236.443 990.682 L247.068 980.057 L249.822 982.858 Z" fill="#000000" fill-rule="nonzero" fill-opacity="1" /><path clip-path="url(#clip560)" d="M262.183 1004.39 L269.822 1004.39 L269.822 978.02 L261.512 979.687 L261.512 975.428 L269.776 973.761 L274.452 973.761 L274.452 1004.39 L282.091 1004.39 L282.091 1008.32 L262.183 1008.32 L262.183 1004.39 Z" fill="#000000" fill-rule="nonzero" fill-opacity="1" /><path clip-path="url(#clip560)" d="M301.535 976.84 Q297.924 976.84 296.095 980.405 Q294.29 983.946 294.29 991.076 Q294.29 998.182 296.095 1001.75 Q297.924 1005.29 301.535 1005.29 Q305.169 1005.29 306.975 1001.75 Q308.803 998.182 308.803 991.076 Q308.803 983.946 306.975 980.405 Q305.169 976.84 301.535 976.84 M301.535 973.136 Q307.345 973.136 310.401 977.743 Q313.479 982.326 313.479 991.076 Q313.479 999.803 310.401 1004.41 Q307.345 1008.99 301.535 1008.99 Q295.725 1008.99 292.646 1004.41 Q289.591 999.803 289.591 991.076 Q289.591 982.326 292.646 977.743 Q295.725 973.136 301.535 973.136 Z" fill="#000000" fill-rule="nonzero" fill-opacity="1" /><path clip-path="url(#clip560)" d="M326.175 965.77 Q328.902 966.354 330.425 968.197 Q331.967 970.04 331.967 972.748 Q331.967 976.905 329.109 979.18 Q326.25 981.456 320.984 981.456 Q319.216 981.456 317.335 981.099 Q315.473 980.76 313.479 980.064 L313.479 976.397 Q315.059 977.318 316.94 977.789 Q318.821 978.259 320.871 978.259 Q324.444 978.259 326.306 976.848 Q328.187 975.438 328.187 972.748 Q328.187 970.266 326.438 968.874 Q324.708 967.463 321.604 967.463 L318.332 967.463 L318.332 964.341 L321.755 964.341 Q324.557 964.341 326.043 963.231 Q327.529 962.103 327.529 959.997 Q327.529 957.834 325.986 956.686 Q324.463 955.52 321.604 955.52 Q320.043 955.52 318.256 955.859 Q316.47 956.197 314.326 956.912 L314.326 953.527 Q316.489 952.925 318.369 952.624 Q320.269 952.323 321.943 952.323 Q326.269 952.323 328.789 954.298 Q331.309 956.254 331.309 959.602 Q331.309 961.934 329.974 963.551 Q328.638 965.15 326.175 965.77 Z" fill="#000000" fill-rule="nonzero" fill-opacity="1" /><path clip-path="url(#clip560)" d="M114.931 602.584 L122.57 602.584 L122.57 576.218 L114.26 577.885 L114.26 573.626 L122.524 571.959 L127.2 571.959 L127.2 602.584 L134.839 602.584 L134.839 606.519 L114.931 606.519 L114.931 602.584 Z" fill="#000000" fill-rule="nonzero" fill-opacity="1" /><path clip-path="url(#clip560)" d="M144.283 600.639 L149.167 600.639 L149.167 606.519 L144.283 606.519 L144.283 600.639 Z" fill="#000000" fill-rule="nonzero" fill-opacity="1" /><path clip-path="url(#clip560)" d="M169.352 575.038 Q165.741 575.038 163.913 578.603 Q162.107 582.144 162.107 589.274 Q162.107 596.38 163.913 599.945 Q165.741 603.487 169.352 603.487 Q172.987 603.487 174.792 599.945 Q176.621 596.38 176.621 589.274 Q176.621 582.144 174.792 578.603 Q172.987 575.038 169.352 575.038 M169.352 571.334 Q175.163 571.334 178.218 575.94 Q181.297 580.524 181.297 589.274 Q181.297 598.001 178.218 602.607 Q175.163 607.19 169.352 607.19 Q163.542 607.19 160.464 602.607 Q157.408 598.001 157.408 589.274 Q157.408 580.524 160.464 575.94 Q163.542 571.334 169.352 571.334 Z" fill="#000000" fill-rule="nonzero" fill-opacity="1" /><path clip-path="url(#clip560)" d="M199.514 575.038 Q195.903 575.038 194.075 578.603 Q192.269 582.144 192.269 589.274 Q192.269 596.38 194.075 599.945 Q195.903 603.487 199.514 603.487 Q203.149 603.487 204.954 599.945 Q206.783 596.38 206.783 589.274 Q206.783 582.144 204.954 578.603 Q203.149 575.038 199.514 575.038 M199.514 571.334 Q205.324 571.334 208.38 575.94 Q211.459 580.524 211.459 589.274 Q211.459 598.001 208.38 602.607 Q205.324 607.19 199.514 607.19 Q193.704 607.19 190.625 602.607 Q187.57 598.001 187.57 589.274 Q187.57 580.524 190.625 575.94 Q193.704 571.334 199.514 571.334 Z" fill="#000000" fill-rule="nonzero" fill-opacity="1" /><path clip-path="url(#clip560)" d="M247.847 581.056 L237.269 591.681 L247.847 602.26 L245.093 605.061 L234.468 594.436 L223.843 605.061 L221.111 602.26 L231.667 591.681 L221.111 581.056 L223.843 578.255 L234.468 588.88 L245.093 578.255 L247.847 581.056 Z" fill="#000000" fill-rule="nonzero" fill-opacity="1" /><path clip-path="url(#clip560)" d="M260.208 602.584 L267.847 602.584 L267.847 576.218 L259.537 577.885 L259.537 573.626 L267.801 571.959 L272.477 571.959 L272.477 602.584 L280.116 602.584 L280.116 606.519 L260.208 606.519 L260.208 602.584 Z" fill="#000000" fill-rule="nonzero" fill-opacity="1" /><path clip-path="url(#clip560)" d="M299.56 575.038 Q295.949 575.038 294.12 578.603 Q292.315 582.144 292.315 589.274 Q292.315 596.38 294.12 599.945 Q295.949 603.487 299.56 603.487 Q303.194 603.487 305 599.945 Q306.829 596.38 306.829 589.274 Q306.829 582.144 305 578.603 Q303.194 575.038 299.56 575.038 M299.56 571.334 Q305.37 571.334 308.426 575.94 Q311.504 580.524 311.504 589.274 Q311.504 598.001 308.426 602.607 Q305.37 607.19 299.56 607.19 Q293.75 607.19 290.671 602.607 Q287.616 598.001 287.616 589.274 Q287.616 580.524 290.671 575.94 Q293.75 571.334 299.56 571.334 Z" fill="#000000" fill-rule="nonzero" fill-opacity="1" /><path clip-path="url(#clip560)" d="M324.181 554.339 L314.589 569.329 L324.181 569.329 L324.181 554.339 M323.184 551.029 L327.961 551.029 L327.961 569.329 L331.967 569.329 L331.967 572.488 L327.961 572.488 L327.961 579.109 L324.181 579.109 L324.181 572.488 L311.504 572.488 L311.504 568.821 L323.184 551.029 Z" fill="#000000" fill-rule="nonzero" fill-opacity="1" /><path clip-path="url(#clip560)" d="M114.931 200.782 L122.57 200.782 L122.57 174.416 L114.26 176.083 L114.26 171.824 L122.524 170.157 L127.2 170.157 L127.2 200.782 L134.839 200.782 L134.839 204.717 L114.931 204.717 L114.931 200.782 Z" fill="#000000" fill-rule="nonzero" fill-opacity="1" /><path clip-path="url(#clip560)" d="M144.283 198.837 L149.167 198.837 L149.167 204.717 L144.283 204.717 L144.283 198.837 Z" fill="#000000" fill-rule="nonzero" fill-opacity="1" /><path clip-path="url(#clip560)" d="M159.399 170.157 L177.755 170.157 L177.755 174.092 L163.681 174.092 L163.681 182.564 Q164.7 182.217 165.718 182.055 Q166.737 181.87 167.755 181.87 Q173.542 181.87 176.922 185.041 Q180.301 188.212 180.301 193.629 Q180.301 199.208 176.829 202.31 Q173.357 205.388 167.038 205.388 Q164.862 205.388 162.593 205.018 Q160.348 204.647 157.94 203.907 L157.94 199.208 Q160.024 200.342 162.246 200.897 Q164.468 201.453 166.945 201.453 Q170.95 201.453 173.288 199.347 Q175.626 197.24 175.626 193.629 Q175.626 190.018 173.288 187.911 Q170.95 185.805 166.945 185.805 Q165.07 185.805 163.195 186.222 Q161.343 186.638 159.399 187.518 L159.399 170.157 Z" fill="#000000" fill-rule="nonzero" fill-opacity="1" /><path clip-path="url(#clip560)" d="M199.514 173.236 Q195.903 173.236 194.075 176.8 Q192.269 180.342 192.269 187.472 Q192.269 194.578 194.075 198.143 Q195.903 201.685 199.514 201.685 Q203.149 201.685 204.954 198.143 Q206.783 194.578 206.783 187.472 Q206.783 180.342 204.954 176.8 Q203.149 173.236 199.514 173.236 M199.514 169.532 Q205.324 169.532 208.38 174.138 Q211.459 178.722 211.459 187.472 Q211.459 196.198 208.38 200.805 Q205.324 205.388 199.514 205.388 Q193.704 205.388 190.625 200.805 Q187.57 196.198 187.57 187.472 Q187.57 178.722 190.625 174.138 Q193.704 169.532 199.514 169.532 Z" fill="#000000" fill-rule="nonzero" fill-opacity="1" /><path clip-path="url(#clip560)" d="M247.847 179.254 L237.269 189.879 L247.847 200.458 L245.093 203.259 L234.468 192.634 L223.843 203.259 L221.111 200.458 L231.667 189.879 L221.111 179.254 L223.843 176.453 L234.468 187.078 L245.093 176.453 L247.847 179.254 Z" fill="#000000" fill-rule="nonzero" fill-opacity="1" /><path clip-path="url(#clip560)" d="M260.208 200.782 L267.847 200.782 L267.847 174.416 L259.537 176.083 L259.537 171.824 L267.801 170.157 L272.477 170.157 L272.477 200.782 L280.116 200.782 L280.116 204.717 L260.208 204.717 L260.208 200.782 Z" fill="#000000" fill-rule="nonzero" fill-opacity="1" /><path clip-path="url(#clip560)" d="M299.56 173.236 Q295.949 173.236 294.12 176.8 Q292.315 180.342 292.315 187.472 Q292.315 194.578 294.12 198.143 Q295.949 201.685 299.56 201.685 Q303.194 201.685 305 198.143 Q306.829 194.578 306.829 187.472 Q306.829 180.342 305 176.8 Q303.194 173.236 299.56 173.236 M299.56 169.532 Q305.37 169.532 308.426 174.138 Q311.504 178.722 311.504 187.472 Q311.504 196.198 308.426 200.805 Q305.37 205.388 299.56 205.388 Q293.75 205.388 290.671 200.805 Q287.616 196.198 287.616 187.472 Q287.616 178.722 290.671 174.138 Q293.75 169.532 299.56 169.532 Z" fill="#000000" fill-rule="nonzero" fill-opacity="1" /><path clip-path="url(#clip560)" d="M324.181 152.537 L314.589 167.526 L324.181 167.526 L324.181 152.537 M323.184 149.226 L327.961 149.226 L327.961 167.526 L331.967 167.526 L331.967 170.686 L327.961 170.686 L327.961 177.306 L324.181 177.306 L324.181 170.686 L311.504 170.686 L311.504 167.019 L323.184 149.226 Z" fill="#000000" fill-rule="nonzero" fill-opacity="1" /><path clip-path="url(#clip560)" d="M20.1444 945.009 L26.9239 945.009 Q23.9002 948.256 22.4043 951.948 Q20.9083 955.608 20.9083 959.746 Q20.9083 967.894 25.9054 972.222 Q30.8707 976.551 40.2919 976.551 Q49.6813 976.551 54.6784 972.222 Q59.6436 967.894 59.6436 959.746 Q59.6436 955.608 58.1477 951.948 Q56.6518 948.256 53.6281 945.009 L60.3439 945.009 Q62.6355 948.383 63.7814 952.171 Q64.9272 955.926 64.9272 960.128 Q64.9272 970.918 58.3387 977.124 Q51.7183 983.331 40.2919 983.331 Q28.8336 983.331 22.2451 977.124 Q15.6248 970.918 15.6248 960.128 Q15.6248 955.863 16.7706 952.107 Q17.8846 948.319 20.1444 945.009 Z" fill="#000000" fill-rule="nonzero" fill-opacity="1" /><path clip-path="url(#clip560)" d="M32.4621 921.52 Q32.4621 926.23 36.1542 928.968 Q39.8145 931.705 46.212 931.705 Q52.6095 931.705 56.3017 928.999 Q59.9619 926.262 59.9619 921.52 Q59.9619 916.841 56.2698 914.104 Q52.5777 911.366 46.212 911.366 Q39.8781 911.366 36.186 914.104 Q32.4621 916.841 32.4621 921.52 M27.4968 921.52 Q27.4968 913.881 32.4621 909.52 Q37.4273 905.16 46.212 905.16 Q54.9649 905.16 59.9619 909.52 Q64.9272 913.881 64.9272 921.52 Q64.9272 929.19 59.9619 933.551 Q54.9649 937.88 46.212 937.88 Q37.4273 937.88 32.4621 933.551 Q27.4968 929.19 27.4968 921.52 Z" fill="#000000" fill-rule="nonzero" fill-opacity="1" /><path clip-path="url(#clip560)" d="M49.9359 896.057 L28.3562 896.057 L28.3562 890.2 L49.7131 890.2 Q54.7739 890.2 57.3202 888.227 Q59.8346 886.254 59.8346 882.307 Q59.8346 877.564 56.8109 874.827 Q53.7872 872.058 48.5673 872.058 L28.3562 872.058 L28.3562 866.202 L64.0042 866.202 L64.0042 872.058 L58.5296 872.058 Q61.7762 874.191 63.3676 877.023 Q64.9272 879.824 64.9272 883.548 Q64.9272 889.691 61.1078 892.874 Q57.2883 896.057 49.9359 896.057 M27.4968 881.32 L27.4968 881.32 Z" fill="#000000" fill-rule="nonzero" fill-opacity="1" /><path clip-path="url(#clip560)" d="M42.4881 824.506 L64.0042 824.506 L64.0042 830.363 L42.679 830.363 Q37.6183 830.363 35.1038 832.336 Q32.5894 834.309 32.5894 838.256 Q32.5894 842.999 35.6131 845.736 Q38.6368 848.473 43.8567 848.473 L64.0042 848.473 L64.0042 854.361 L28.3562 854.361 L28.3562 848.473 L33.8944 848.473 Q30.6797 846.372 29.0883 843.54 Q27.4968 840.675 27.4968 836.951 Q27.4968 830.808 31.3163 827.657 Q35.1038 824.506 42.4881 824.506 Z" fill="#000000" fill-rule="nonzero" fill-opacity="1" /><path clip-path="url(#clip560)" d="M18.2347 807.032 L28.3562 807.032 L28.3562 794.969 L32.9077 794.969 L32.9077 807.032 L52.2594 807.032 Q56.6199 807.032 57.8613 805.855 Q59.1026 804.645 59.1026 800.985 L59.1026 794.969 L64.0042 794.969 L64.0042 800.985 Q64.0042 807.764 61.4897 810.343 Q58.9434 812.921 52.2594 812.921 L32.9077 812.921 L32.9077 817.218 L28.3562 817.218 L28.3562 812.921 L18.2347 812.921 L18.2347 807.032 Z" fill="#000000" fill-rule="nonzero" fill-opacity="1" /><path clip-path="url(#clip560)" d="M29.4065 764.541 L34.9447 764.541 Q33.6716 767.024 33.035 769.698 Q32.3984 772.371 32.3984 775.236 Q32.3984 779.596 33.7352 781.792 Q35.072 783.957 37.7456 783.957 Q39.7826 783.957 40.9603 782.397 Q42.1061 780.838 43.1565 776.127 L43.6021 774.122 Q44.9389 767.883 47.3897 765.273 Q49.8086 762.632 54.1691 762.632 Q59.1344 762.632 62.0308 766.578 Q64.9272 770.493 64.9272 777.368 Q64.9272 780.233 64.3543 783.352 Q63.8132 786.439 62.6992 789.877 L56.6518 789.877 Q58.3387 786.63 59.198 783.479 Q60.0256 780.328 60.0256 777.241 Q60.0256 773.103 58.6251 770.875 Q57.1929 768.647 54.6147 768.647 Q52.2276 768.647 50.9545 770.27 Q49.6813 771.862 48.5037 777.305 L48.0262 779.342 Q46.8804 784.784 44.5251 787.203 Q42.138 789.622 38.0002 789.622 Q32.9713 789.622 30.2341 786.057 Q27.4968 782.493 27.4968 775.936 Q27.4968 772.689 27.9743 769.825 Q28.4517 766.96 29.4065 764.541 Z" fill="#000000" fill-rule="nonzero" fill-opacity="1" /><path clip-path="url(#clip560)" d="M28.3562 732.585 L28.3562 726.729 L64.0042 726.729 L64.0042 732.585 L28.3562 732.585 M14.479 732.585 L14.479 726.729 L21.895 726.729 L21.895 732.585 L14.479 732.585 Z" fill="#000000" fill-rule="nonzero" fill-opacity="1" /><path clip-path="url(#clip560)" d="M42.4881 684.843 L64.0042 684.843 L64.0042 690.699 L42.679 690.699 Q37.6183 690.699 35.1038 692.672 Q32.5894 694.646 32.5894 698.593 Q32.5894 703.335 35.6131 706.072 Q38.6368 708.81 43.8567 708.81 L64.0042 708.81 L64.0042 714.698 L28.3562 714.698 L28.3562 708.81 L33.8944 708.81 Q30.6797 706.709 29.0883 703.876 Q27.4968 701.012 27.4968 697.288 Q27.4968 691.145 31.3163 687.994 Q35.1038 684.843 42.4881 684.843 Z" fill="#000000" fill-rule="nonzero" fill-opacity="1" /><path clip-path="url(#clip560)" d="M46.212 626.851 Q39.7508 626.851 36.0905 629.525 Q32.3984 632.166 32.3984 636.813 Q32.3984 641.46 36.0905 644.134 Q39.7508 646.776 46.212 646.776 Q52.6732 646.776 56.3653 644.134 Q60.0256 641.46 60.0256 636.813 Q60.0256 632.166 56.3653 629.525 Q52.6732 626.851 46.212 626.851 M33.7671 646.776 Q30.5842 644.93 29.0564 642.129 Q27.4968 639.296 27.4968 635.381 Q27.4968 628.888 32.6531 624.846 Q37.8093 620.772 46.212 620.772 Q54.6147 620.772 59.771 624.846 Q64.9272 628.888 64.9272 635.381 Q64.9272 639.296 63.3994 642.129 Q61.8398 644.93 58.657 646.776 L64.0042 646.776 L64.0042 652.664 L14.479 652.664 L14.479 646.776 L33.7671 646.776 Z" fill="#000000" fill-rule="nonzero" fill-opacity="1" /><path clip-path="url(#clip560)" d="M28.3562 611.064 L28.3562 605.208 L64.0042 605.208 L64.0042 611.064 L28.3562 611.064 M14.479 611.064 L14.479 605.208 L21.895 605.208 L21.895 611.064 L14.479 611.064 Z" fill="#000000" fill-rule="nonzero" fill-opacity="1" /><path clip-path="url(#clip560)" d="M42.4881 563.321 L64.0042 563.321 L64.0042 569.178 L42.679 569.178 Q37.6183 569.178 35.1038 571.151 Q32.5894 573.125 32.5894 577.071 Q32.5894 581.814 35.6131 584.551 Q38.6368 587.288 43.8567 587.288 L64.0042 587.288 L64.0042 593.176 L28.3562 593.176 L28.3562 587.288 L33.8944 587.288 Q30.6797 585.188 29.0883 582.355 Q27.4968 579.49 27.4968 575.766 Q27.4968 569.623 31.3163 566.472 Q35.1038 563.321 42.4881 563.321 Z" fill="#000000" fill-rule="nonzero" fill-opacity="1" /><path clip-path="url(#clip560)" d="M963.13 12.096 L971.92 12.096 L986.949 34.5785 L1002.06 12.096 L1010.85 12.096 L991.405 41.141 L1012.15 72.576 L1003.36 72.576 L986.342 46.8528 L969.206 72.576 L960.375 72.576 L981.967 40.2903 L963.13 12.096 Z" fill="#000000" fill-rule="nonzero" fill-opacity="1" /><path clip-path="url(#clip560)" d="M1069.55 49.7694 Q1060.51 49.7694 1057.03 51.8354 Q1053.55 53.9013 1053.55 58.8839 Q1053.55 62.8538 1056.14 65.2034 Q1058.77 67.5124 1063.27 67.5124 Q1069.47 67.5124 1073.19 63.1374 Q1076.96 58.7219 1076.96 51.4303 L1076.96 49.7694 L1069.55 49.7694 M1084.41 46.6907 L1084.41 72.576 L1076.96 72.576 L1076.96 65.6895 Q1074.41 69.8214 1070.6 71.8063 Q1066.79 73.7508 1061.28 73.7508 Q1054.32 73.7508 1050.18 69.8619 Q1046.09 65.9325 1046.09 59.3701 Q1046.09 51.7138 1051.2 47.825 Q1056.34 43.9361 1066.51 43.9361 L1076.96 43.9361 L1076.96 43.2069 Q1076.96 38.0623 1073.56 35.2672 Q1070.2 32.4315 1064.08 32.4315 Q1060.19 32.4315 1056.5 33.3632 Q1052.82 34.295 1049.41 36.1584 L1049.41 29.2718 Q1053.51 27.692 1057.35 26.9223 Q1061.2 26.1121 1064.85 26.1121 Q1074.69 26.1121 1079.55 31.2163 Q1084.41 36.3204 1084.41 46.6907 Z" fill="#000000" fill-rule="nonzero" fill-opacity="1" /><path clip-path="url(#clip560)" d="M1137.48 45.1919 L1137.48 72.576 L1130.03 72.576 L1130.03 45.4349 Q1130.03 38.994 1127.52 35.7938 Q1125 32.5936 1119.98 32.5936 Q1113.95 32.5936 1110.46 36.4419 Q1106.98 40.2903 1106.98 46.9338 L1106.98 72.576 L1099.48 72.576 L1099.48 27.2059 L1106.98 27.2059 L1106.98 34.2544 Q1109.65 30.163 1113.26 28.1376 Q1116.9 26.1121 1121.64 26.1121 Q1129.46 26.1121 1133.47 30.9732 Q1137.48 35.7938 1137.48 45.1919 Z" fill="#000000" fill-rule="nonzero" fill-opacity="1" /><path clip-path="url(#clip560)" d="M1182.2 34.0924 L1182.2 9.54393 L1189.66 9.54393 L1189.66 72.576 L1182.2 72.576 L1182.2 65.7705 Q1179.85 69.8214 1176.25 71.8063 Q1172.68 73.7508 1167.66 73.7508 Q1159.44 73.7508 1154.25 67.1883 Q1149.11 60.6258 1149.11 49.9314 Q1149.11 39.2371 1154.25 32.6746 Q1159.44 26.1121 1167.66 26.1121 Q1172.68 26.1121 1176.25 28.0971 Q1179.85 30.0415 1182.2 34.0924 M1156.8 49.9314 Q1156.8 58.1548 1160.17 62.8538 Q1163.57 67.5124 1169.48 67.5124 Q1175.4 67.5124 1178.8 62.8538 Q1182.2 58.1548 1182.2 49.9314 Q1182.2 41.7081 1178.8 37.0496 Q1175.4 32.3505 1169.48 32.3505 Q1163.57 32.3505 1160.17 37.0496 Q1156.8 41.7081 1156.8 49.9314 Z" fill="#000000" fill-rule="nonzero" fill-opacity="1" /><path clip-path="url(#clip560)" d="M1223.4 12.096 L1232.19 12.096 L1248.96 36.9686 L1265.61 12.096 L1274.4 12.096 L1253.01 43.7741 L1253.01 72.576 L1244.79 72.576 L1244.79 43.7741 L1223.4 12.096 Z" fill="#000000" fill-rule="nonzero" fill-opacity="1" /><path clip-path="url(#clip560)" d="M1346.14 45.1919 L1346.14 72.576 L1338.69 72.576 L1338.69 45.4349 Q1338.69 38.994 1336.18 35.7938 Q1333.67 32.5936 1328.64 32.5936 Q1322.61 32.5936 1319.12 36.4419 Q1315.64 40.2903 1315.64 46.9338 L1315.64 72.576 L1308.15 72.576 L1308.15 9.54393 L1315.64 9.54393 L1315.64 34.2544 Q1318.31 30.163 1321.92 28.1376 Q1325.56 26.1121 1330.3 26.1121 Q1338.12 26.1121 1342.13 30.9732 Q1346.14 35.7938 1346.14 45.1919 Z" fill="#000000" fill-rule="nonzero" fill-opacity="1" /><path clip-path="url(#clip560)" d="M1361.01 27.2059 L1368.46 27.2059 L1368.46 72.576 L1361.01 72.576 L1361.01 27.2059 M1361.01 9.54393 L1368.46 9.54393 L1368.46 18.9825 L1361.01 18.9825 L1361.01 9.54393 Z" fill="#000000" fill-rule="nonzero" fill-opacity="1" /><path clip-path="url(#clip560)" d="M1412.98 28.5427 L1412.98 35.5912 Q1409.82 33.9709 1406.42 33.1607 Q1403.02 32.3505 1399.37 32.3505 Q1393.82 32.3505 1391.03 34.0519 Q1388.27 35.7533 1388.27 39.156 Q1388.27 41.7486 1390.26 43.2475 Q1392.24 44.7058 1398.24 46.0426 L1400.79 46.6097 Q1408.73 48.3111 1412.05 51.4303 Q1415.41 54.509 1415.41 60.0587 Q1415.41 66.3781 1410.39 70.0644 Q1405.41 73.7508 1396.66 73.7508 Q1393.01 73.7508 1389.04 73.0216 Q1385.11 72.3329 1380.74 70.9151 L1380.74 63.2184 Q1384.87 65.3654 1388.88 66.4591 Q1392.89 67.5124 1396.82 67.5124 Q1402.09 67.5124 1404.92 65.73 Q1407.76 63.9071 1407.76 60.6258 Q1407.76 57.5877 1405.69 55.9673 Q1403.67 54.3469 1396.74 52.8481 L1394.15 52.2405 Q1387.22 50.7821 1384.14 47.7845 Q1381.06 44.7463 1381.06 39.4801 Q1381.06 33.0797 1385.6 29.5959 Q1390.14 26.1121 1398.48 26.1121 Q1402.61 26.1121 1406.26 26.7198 Q1409.9 27.3274 1412.98 28.5427 Z" fill="#000000" fill-rule="nonzero" fill-opacity="1" /><path clip-path="url(#clip560)" d="M1434.66 14.324 L1434.66 27.2059 L1450.01 27.2059 L1450.01 32.9987 L1434.66 32.9987 L1434.66 57.6282 Q1434.66 63.1779 1436.15 64.7578 Q1437.69 66.3376 1442.35 66.3376 L1450.01 66.3376 L1450.01 72.576 L1442.35 72.576 Q1433.72 72.576 1430.44 69.3758 Q1427.16 66.1351 1427.16 57.6282 L1427.16 32.9987 L1421.69 32.9987 L1421.69 27.2059 L1427.16 27.2059 L1427.16 14.324 L1434.66 14.324 Z" fill="#000000" fill-rule="nonzero" fill-opacity="1" /><path clip-path="url(#clip560)" d="M1477.39 32.4315 Q1471.4 32.4315 1467.91 37.1306 Q1464.43 41.7891 1464.43 49.9314 Q1464.43 58.0738 1467.87 62.7728 Q1471.36 67.4314 1477.39 67.4314 Q1483.35 67.4314 1486.83 62.7323 Q1490.31 58.0333 1490.31 49.9314 Q1490.31 41.8701 1486.83 37.1711 Q1483.35 32.4315 1477.39 32.4315 M1477.39 26.1121 Q1487.11 26.1121 1492.66 32.4315 Q1498.21 38.7509 1498.21 49.9314 Q1498.21 61.0714 1492.66 67.4314 Q1487.11 73.7508 1477.39 73.7508 Q1467.63 73.7508 1462.08 67.4314 Q1456.57 61.0714 1456.57 49.9314 Q1456.57 38.7509 1462.08 32.4315 Q1467.63 26.1121 1477.39 26.1121 Z" fill="#000000" fill-rule="nonzero" fill-opacity="1" /><path clip-path="url(#clip560)" d="M1540.42 49.3643 Q1540.42 41.2625 1537.06 36.8065 Q1533.74 32.3505 1527.7 32.3505 Q1521.71 32.3505 1518.35 36.8065 Q1515.03 41.2625 1515.03 49.3643 Q1515.03 57.4256 1518.35 61.8816 Q1521.71 66.3376 1527.7 66.3376 Q1533.74 66.3376 1537.06 61.8816 Q1540.42 57.4256 1540.42 49.3643 M1547.88 66.9452 Q1547.88 78.5308 1542.73 84.1616 Q1537.59 89.8329 1526.98 89.8329 Q1523.05 89.8329 1519.56 89.2252 Q1516.08 88.6581 1512.8 87.4428 L1512.8 80.1917 Q1516.08 81.9741 1519.28 82.8248 Q1522.48 83.6755 1525.8 83.6755 Q1533.13 83.6755 1536.78 79.8271 Q1540.42 76.0193 1540.42 68.282 L1540.42 64.5957 Q1538.12 68.6061 1534.51 70.5911 Q1530.9 72.576 1525.88 72.576 Q1517.54 72.576 1512.43 66.2161 Q1507.33 59.8562 1507.33 49.3643 Q1507.33 38.832 1512.43 32.472 Q1517.54 26.1121 1525.88 26.1121 Q1530.9 26.1121 1534.51 28.0971 Q1538.12 30.082 1540.42 34.0924 L1540.42 27.2059 L1547.88 27.2059 L1547.88 66.9452 Z" fill="#000000" fill-rule="nonzero" fill-opacity="1" /><path clip-path="url(#clip560)" d="M1589.52 34.1734 Q1588.27 33.4443 1586.77 33.1202 Q1585.31 32.7556 1583.53 32.7556 Q1577.21 32.7556 1573.8 36.8875 Q1570.44 40.9789 1570.44 48.6757 L1570.44 72.576 L1562.95 72.576 L1562.95 27.2059 L1570.44 27.2059 L1570.44 34.2544 Q1572.79 30.1225 1576.56 28.1376 Q1580.33 26.1121 1585.71 26.1121 Q1586.48 26.1121 1587.41 26.2337 Q1588.35 26.3147 1589.48 26.5172 L1589.52 34.1734 Z" fill="#000000" fill-rule="nonzero" fill-opacity="1" /><path clip-path="url(#clip560)" d="M1617.96 49.7694 Q1608.93 49.7694 1605.44 51.8354 Q1601.96 53.9013 1601.96 58.8839 Q1601.96 62.8538 1604.55 65.2034 Q1607.18 67.5124 1611.68 67.5124 Q1617.88 67.5124 1621.6 63.1374 Q1625.37 58.7219 1625.37 51.4303 L1625.37 49.7694 L1617.96 49.7694 M1632.83 46.6907 L1632.83 72.576 L1625.37 72.576 L1625.37 65.6895 Q1622.82 69.8214 1619.01 71.8063 Q1615.2 73.7508 1609.69 73.7508 Q1602.73 73.7508 1598.6 69.8619 Q1594.5 65.9325 1594.5 59.3701 Q1594.5 51.7138 1599.61 47.825 Q1604.75 43.9361 1614.92 43.9361 L1625.37 43.9361 L1625.37 43.2069 Q1625.37 38.0623 1621.97 35.2672 Q1618.61 32.4315 1612.49 32.4315 Q1608.6 32.4315 1604.91 33.3632 Q1601.23 34.295 1597.83 36.1584 L1597.83 29.2718 Q1601.92 27.692 1605.77 26.9223 Q1609.61 26.1121 1613.26 26.1121 Q1623.1 26.1121 1627.96 31.2163 Q1632.83 36.3204 1632.83 46.6907 Z" fill="#000000" fill-rule="nonzero" fill-opacity="1" /><path clip-path="url(#clip560)" d="M1683.5 35.9153 Q1686.3 30.8922 1690.19 28.5022 Q1694.08 26.1121 1699.34 26.1121 Q1706.43 26.1121 1710.28 31.0947 Q1714.13 36.0368 1714.13 45.1919 L1714.13 72.576 L1706.63 72.576 L1706.63 45.4349 Q1706.63 38.913 1704.32 35.7533 Q1702.01 32.5936 1697.28 32.5936 Q1691.48 32.5936 1688.12 36.4419 Q1684.76 40.2903 1684.76 46.9338 L1684.76 72.576 L1677.26 72.576 L1677.26 45.4349 Q1677.26 38.8725 1674.95 35.7533 Q1672.65 32.5936 1667.83 32.5936 Q1662.11 32.5936 1658.75 36.4824 Q1655.39 40.3308 1655.39 46.9338 L1655.39 72.576 L1647.89 72.576 L1647.89 27.2059 L1655.39 27.2059 L1655.39 34.2544 Q1657.94 30.082 1661.51 28.0971 Q1665.07 26.1121 1669.97 26.1121 Q1674.91 26.1121 1678.36 28.6237 Q1681.84 31.1352 1683.5 35.9153 Z" fill="#000000" fill-rule="nonzero" fill-opacity="1" /><path clip-path="url(#clip560)" d="M1757.92 28.5427 L1757.92 35.5912 Q1754.76 33.9709 1751.35 33.1607 Q1747.95 32.3505 1744.31 32.3505 Q1738.76 32.3505 1735.96 34.0519 Q1733.21 35.7533 1733.21 39.156 Q1733.21 41.7486 1735.19 43.2475 Q1737.18 44.7058 1743.17 46.0426 L1745.72 46.6097 Q1753.66 48.3111 1756.99 51.4303 Q1760.35 54.509 1760.35 60.0587 Q1760.35 66.3781 1755.32 70.0644 Q1750.34 73.7508 1741.59 73.7508 Q1737.95 73.7508 1733.98 73.0216 Q1730.05 72.3329 1725.67 70.9151 L1725.67 63.2184 Q1729.8 65.3654 1733.81 66.4591 Q1737.82 67.5124 1741.75 67.5124 Q1747.02 67.5124 1749.86 65.73 Q1752.69 63.9071 1752.69 60.6258 Q1752.69 57.5877 1750.63 55.9673 Q1748.6 54.3469 1741.67 52.8481 L1739.08 52.2405 Q1732.15 50.7821 1729.07 47.7845 Q1726 44.7463 1726 39.4801 Q1726 33.0797 1730.53 29.5959 Q1735.07 26.1121 1743.42 26.1121 Q1747.55 26.1121 1751.19 26.7198 Q1754.84 27.3274 1757.92 28.5427 Z" fill="#000000" fill-rule="nonzero" fill-opacity="1" /><polyline clip-path="url(#clip562)" style="stroke:#009af9; stroke-linecap:round; stroke-linejoin:round; stroke-width:4; stroke-opacity:1; fill:none" points="424.141,1386.4 424.141,302.012 454.836,302.012 454.836,312.539 485.532,312.539 485.532,277.984 516.228,277.984 516.228,283.449 546.924,283.449 546.924,283.368 577.619,283.368 577.619,279.19 608.315,279.19 608.315,273.886 639.011,273.886 639.011,263.439 669.707,263.439 669.707,250.099 700.403,250.099 700.403,237.001 731.098,237.001 731.098,250.099 761.794,250.099 761.794,231.536 792.49,231.536 792.49,219.08 823.186,219.08 823.186,220.205 853.881,220.205 853.881,212.169 884.577,212.169 884.577,226.955 915.273,226.955 915.273,206.624 945.969,206.624 945.969,210.803 976.664,210.803 976.664,205.821 1007.36,205.821 1007.36,206.544 1038.06,206.544 1038.06,179.784 1068.75,179.784 1068.75,190.874 1099.45,190.874 1099.45,175.444 1130.14,175.444 1130.14,196.66 1160.84,196.66 1160.84,177.453 1191.53,177.453 1191.53,185.168 1222.23,185.168 1222.23,160.256 1252.93,160.256 1252.93,180.829 1283.62,180.829 1283.62,175.444 1314.32,175.444 1314.32,171.426 1345.01,171.426 1345.01,193.043 1375.71,193.043 1375.71,184.364 1406.41,184.364 1406.41,184.204 1437.1,184.204 1437.1,174.721 1467.8,174.721 1467.8,186.775 1498.49,186.775 1498.49,196.981 1529.19,196.981 1529.19,169.658 1559.88,169.658 1559.88,182.677 1590.58,182.677 1590.58,199.633 1621.28,199.633 1621.28,184.123 1651.97,184.123 1651.97,197.624 1682.67,197.624 1682.67,186.775 1713.36,186.775 1713.36,194.409 1744.06,194.409 1744.06,207.99 1774.75,207.99 1774.75,218.759 1805.45,218.759 1805.45,209.437 1836.15,209.437 1836.15,228.884 1866.84,228.884 1866.84,235.233 1897.54,235.233 1897.54,233.786 1928.23,233.786 1928.23,247.769 1958.93,247.769 1958.93,254.198 1989.62,254.198 1989.62,251.385 2020.32,251.385 2020.32,259.1 2051.02,259.1 2051.02,257.091 2081.71,257.091 2081.71,271.475 2112.41,271.475 2112.41,282.565 2143.1,282.565 2143.1,297.592 2173.8,297.592 2173.8,291.726 2204.5,291.726 2204.5,293.253 2235.19,293.253 2235.19,305.307 2265.89,305.307 2265.89,1386.4 "/>
<polyline clip-path="url(#clip562)" style="stroke:#e26f46; stroke-linecap:round; stroke-linejoin:round; stroke-width:4; stroke-opacity:1; fill:none" points="424.141,1386.4 424.141,306.753 454.836,306.753 454.836,288.913 485.532,288.913 485.532,288.672 516.228,288.672 516.228,284.494 546.924,284.494 546.924,257.734 577.619,257.734 577.619,258.939 608.315,258.939 608.315,255.323 639.011,255.323 639.011,268.984 669.707,268.984 669.707,260.466 700.403,260.466 700.403,252.832 731.098,252.832 731.098,241.742 761.794,241.742 761.794,228.402 792.49,228.402 792.49,227.598 823.186,227.598 823.186,215.464 853.881,215.464 853.881,218.277 884.577,218.277 884.577,217.312 915.273,217.312 915.273,215.142 945.969,215.142 945.969,195.374 976.664,195.374 976.664,210.803 1007.36,210.803 1007.36,199.633 1038.06,199.633 1038.06,192.159 1068.75,192.159 1068.75,175.605 1099.45,175.605 1099.45,191.677 1130.14,191.677 1130.14,184.445 1160.84,184.445 1160.84,186.213 1191.53,186.213 1191.53,192.883 1222.23,192.883 1222.23,196.579 1252.93,196.579 1252.93,180.909 1283.62,180.909 1283.62,167.489 1314.32,167.489 1314.32,177.614 1345.01,177.614 1345.01,183.32 1375.71,183.32 1375.71,187.82 1406.41,187.82 1406.41,184.847 1437.1,184.847 1437.1,201.562 1467.8,201.562 1467.8,163.471 1498.49,163.471 1498.49,191.115 1529.19,191.115 1529.19,193.204 1559.88,193.204 1559.88,187.82 1590.58,187.82 1590.58,195.052 1621.28,195.052 1621.28,195.374 1651.97,195.374 1651.97,198.106 1682.67,198.106 1682.67,202.767 1713.36,202.767 1713.36,212.008 1744.06,212.008 1744.06,188.624 1774.75,188.624 1774.75,205.66 1805.45,205.66 1805.45,234.108 1836.15,234.108 1836.15,214.259 1866.84,214.259 1866.84,239.733 1897.54,239.733 1897.54,219.723 1928.23,219.723 1928.23,238.768 1958.93,238.768 1958.93,246.804 1989.62,246.804 1989.62,261.35 2020.32,261.35 2020.32,257.251 2051.02,257.251 2051.02,256.528 2081.71,256.528 2081.71,256.769 2112.41,256.769 2112.41,280.315 2143.1,280.315 2143.1,297.11 2173.8,297.11 2173.8,286.904 2204.5,286.904 2204.5,287.869 2235.19,287.869 2235.19,320.093 2265.89,320.093 2265.89,1386.32 2296.58,1386.32 2296.58,1386.4 "/>
<path clip-path="url(#clip560)" d="M434.127 1379.86 L662.189 1379.86 L662.189 1224.34 L434.127 1224.34  Z" fill="#ffffff" fill-rule="evenodd" fill-opacity="1"/>
<polyline clip-path="url(#clip560)" style="stroke:#000000; stroke-linecap:round; stroke-linejoin:round; stroke-width:4; stroke-opacity:1; fill:none" points="434.127,1379.86 662.189,1379.86 662.189,1224.34 434.127,1224.34 434.127,1379.86 "/>
<polyline clip-path="url(#clip560)" style="stroke:#009af9; stroke-linecap:round; stroke-linejoin:round; stroke-width:4; stroke-opacity:1; fill:none" points="456.18,1276.18 588.499,1276.18 "/>
<path clip-path="url(#clip560)" d="M612.127 1258.9 L617.15 1258.9 L625.738 1271.74 L634.372 1258.9 L639.395 1258.9 L628.284 1275.49 L640.136 1293.46 L635.113 1293.46 L625.39 1278.76 L615.599 1293.46 L610.553 1293.46 L622.89 1275.01 L612.127 1258.9 Z" fill="#000000" fill-rule="nonzero" fill-opacity="1" /><polyline clip-path="url(#clip560)" style="stroke:#e26f46; stroke-linecap:round; stroke-linejoin:round; stroke-width:4; stroke-opacity:1; fill:none" points="456.18,1328.02 588.499,1328.02 "/>
<path clip-path="url(#clip560)" d="M610.553 1310.74 L615.576 1310.74 L625.159 1324.95 L634.673 1310.74 L639.696 1310.74 L627.474 1328.84 L627.474 1345.3 L622.775 1345.3 L622.775 1328.84 L610.553 1310.74 Z" fill="#000000" fill-rule="nonzero" fill-opacity="1" /></svg>
