<?xml version="1.0" encoding="utf-8"?>
<svg xmlns="http://www.w3.org/2000/svg" xmlns:xlink="http://www.w3.org/1999/xlink" width="600" height="400" viewBox="0 0 2400 1600">
<defs>
  <clipPath id="clip150">
    <rect x="0" y="0" width="2400" height="1600"/>
  </clipPath>
</defs>
<path clip-path="url(#clip150)" d="M0 1600 L2400 1600 L2400 0 L0 0  Z" fill="#ffffff" fill-rule="evenodd" fill-opacity="1"/>
<defs>
  <clipPath id="clip151">
    <rect x="480" y="0" width="1681" height="1600"/>
  </clipPath>
</defs>
<path clip-path="url(#clip150)" d="M203.964 1423.18 L2352.76 1423.18 L2352.76 123.472 L203.964 123.472  Z" fill="#ffffff" fill-rule="evenodd" fill-opacity="1"/>
<defs>
  <clipPath id="clip152">
    <rect x="203" y="123" width="2150" height="1301"/>
  </clipPath>
</defs>
<polyline clip-path="url(#clip152)" style="stroke:#000000; stroke-linecap:round; stroke-linejoin:round; stroke-width:2; stroke-opacity:0.1; fill:none" points="264.778,1423.18 264.778,123.472 "/>
<polyline clip-path="url(#clip152)" style="stroke:#000000; stroke-linecap:round; stroke-linejoin:round; stroke-width:2; stroke-opacity:0.1; fill:none" points="771.569,1423.18 771.569,123.472 "/>
<polyline clip-path="url(#clip152)" style="stroke:#000000; stroke-linecap:round; stroke-linejoin:round; stroke-width:2; stroke-opacity:0.1; fill:none" points="1278.36,1423.18 1278.36,123.472 "/>
<polyline clip-path="url(#clip152)" style="stroke:#000000; stroke-linecap:round; stroke-linejoin:round; stroke-width:2; stroke-opacity:0.1; fill:none" points="1785.15,1423.18 1785.15,123.472 "/>
<polyline clip-path="url(#clip152)" style="stroke:#000000; stroke-linecap:round; stroke-linejoin:round; stroke-width:2; stroke-opacity:0.1; fill:none" points="2291.94,1423.18 2291.94,123.472 "/>
<polyline clip-path="url(#clip152)" style="stroke:#000000; stroke-linecap:round; stroke-linejoin:round; stroke-width:2; stroke-opacity:0.1; fill:none" points="203.964,1239.16 2352.76,1239.16 "/>
<polyline clip-path="url(#clip152)" style="stroke:#000000; stroke-linecap:round; stroke-linejoin:round; stroke-width:2; stroke-opacity:0.1; fill:none" points="203.964,975.85 2352.76,975.85 "/>
<polyline clip-path="url(#clip152)" style="stroke:#000000; stroke-linecap:round; stroke-linejoin:round; stroke-width:2; stroke-opacity:0.1; fill:none" points="203.964,712.537 2352.76,712.537 "/>
<polyline clip-path="url(#clip152)" style="stroke:#000000; stroke-linecap:round; stroke-linejoin:round; stroke-width:2; stroke-opacity:0.1; fill:none" points="203.964,449.224 2352.76,449.224 "/>
<polyline clip-path="url(#clip152)" style="stroke:#000000; stroke-linecap:round; stroke-linejoin:round; stroke-width:2; stroke-opacity:0.1; fill:none" points="203.964,185.911 2352.76,185.911 "/>
<polyline clip-path="url(#clip150)" style="stroke:#000000; stroke-linecap:round; stroke-linejoin:round; stroke-width:4; stroke-opacity:1; fill:none" points="203.964,1423.18 2352.76,1423.18 "/>
<polyline clip-path="url(#clip150)" style="stroke:#000000; stroke-linecap:round; stroke-linejoin:round; stroke-width:4; stroke-opacity:1; fill:none" points="264.778,1423.18 264.778,1404.28 "/>
<polyline clip-path="url(#clip150)" style="stroke:#000000; stroke-linecap:round; stroke-linejoin:round; stroke-width:4; stroke-opacity:1; fill:none" points="771.569,1423.18 771.569,1404.28 "/>
<polyline clip-path="url(#clip150)" style="stroke:#000000; stroke-linecap:round; stroke-linejoin:round; stroke-width:4; stroke-opacity:1; fill:none" points="1278.36,1423.18 1278.36,1404.28 "/>
<polyline clip-path="url(#clip150)" style="stroke:#000000; stroke-linecap:round; stroke-linejoin:round; stroke-width:4; stroke-opacity:1; fill:none" points="1785.15,1423.18 1785.15,1404.28 "/>
<polyline clip-path="url(#clip150)" style="stroke:#000000; stroke-linecap:round; stroke-linejoin:round; stroke-width:4; stroke-opacity:1; fill:none" points="2291.94,1423.18 2291.94,1404.28 "/>
<path clip-path="url(#clip150)" d="M227.082 1454.1 Q223.471 1454.1 221.642 1457.66 Q219.837 1461.2 219.837 1468.33 Q219.837 1475.44 221.642 1479.01 Q223.471 1482.55 227.082 1482.55 Q230.716 1482.55 232.522 1479.01 Q234.35 1475.44 234.35 1468.33 Q234.35 1461.2 232.522 1457.66 Q230.716 1454.1 227.082 1454.1 M227.082 1450.39 Q232.892 1450.39 235.948 1455 Q239.026 1459.58 239.026 1468.33 Q239.026 1477.06 235.948 1481.67 Q232.892 1486.25 227.082 1486.25 Q221.272 1486.25 218.193 1481.67 Q215.138 1477.06 215.138 1468.33 Q215.138 1459.58 218.193 1455 Q221.272 1450.39 227.082 1450.39 Z" fill="#000000" fill-rule="nonzero" fill-opacity="1" /><path clip-path="url(#clip150)" d="M247.244 1479.7 L252.128 1479.7 L252.128 1485.58 L247.244 1485.58 L247.244 1479.7 Z" fill="#000000" fill-rule="nonzero" fill-opacity="1" /><path clip-path="url(#clip150)" d="M272.313 1454.1 Q268.702 1454.1 266.873 1457.66 Q265.068 1461.2 265.068 1468.33 Q265.068 1475.44 266.873 1479.01 Q268.702 1482.55 272.313 1482.55 Q275.947 1482.55 277.753 1479.01 Q279.582 1475.44 279.582 1468.33 Q279.582 1461.2 277.753 1457.66 Q275.947 1454.1 272.313 1454.1 M272.313 1450.39 Q278.123 1450.39 281.179 1455 Q284.258 1459.58 284.258 1468.33 Q284.258 1477.06 281.179 1481.67 Q278.123 1486.25 272.313 1486.25 Q266.503 1486.25 263.424 1481.67 Q260.369 1477.06 260.369 1468.33 Q260.369 1459.58 263.424 1455 Q266.503 1450.39 272.313 1450.39 Z" fill="#000000" fill-rule="nonzero" fill-opacity="1" /><path clip-path="url(#clip150)" d="M302.475 1454.1 Q298.864 1454.1 297.035 1457.66 Q295.23 1461.2 295.23 1468.33 Q295.23 1475.44 297.035 1479.01 Q298.864 1482.55 302.475 1482.55 Q306.109 1482.55 307.915 1479.01 Q309.743 1475.44 309.743 1468.33 Q309.743 1461.2 307.915 1457.66 Q306.109 1454.1 302.475 1454.1 M302.475 1450.39 Q308.285 1450.39 311.341 1455 Q314.419 1459.58 314.419 1468.33 Q314.419 1477.06 311.341 1481.67 Q308.285 1486.25 302.475 1486.25 Q296.665 1486.25 293.586 1481.67 Q290.531 1477.06 290.531 1468.33 Q290.531 1459.58 293.586 1455 Q296.665 1450.39 302.475 1450.39 Z" fill="#000000" fill-rule="nonzero" fill-opacity="1" /><path clip-path="url(#clip150)" d="M734.37 1454.1 Q730.759 1454.1 728.93 1457.66 Q727.125 1461.2 727.125 1468.33 Q727.125 1475.44 728.93 1479.01 Q730.759 1482.55 734.37 1482.55 Q738.004 1482.55 739.81 1479.01 Q741.639 1475.44 741.639 1468.33 Q741.639 1461.2 739.81 1457.66 Q738.004 1454.1 734.37 1454.1 M734.37 1450.39 Q740.18 1450.39 743.236 1455 Q746.315 1459.58 746.315 1468.33 Q746.315 1477.06 743.236 1481.67 Q740.18 1486.25 734.37 1486.25 Q728.56 1486.25 725.481 1481.67 Q722.426 1477.06 722.426 1468.33 Q722.426 1459.58 725.481 1455 Q728.56 1450.39 734.37 1450.39 Z" fill="#000000" fill-rule="nonzero" fill-opacity="1" /><path clip-path="url(#clip150)" d="M754.532 1479.7 L759.416 1479.7 L759.416 1485.58 L754.532 1485.58 L754.532 1479.7 Z" fill="#000000" fill-rule="nonzero" fill-opacity="1" /><path clip-path="url(#clip150)" d="M779.601 1454.1 Q775.99 1454.1 774.162 1457.66 Q772.356 1461.2 772.356 1468.33 Q772.356 1475.44 774.162 1479.01 Q775.99 1482.55 779.601 1482.55 Q783.236 1482.55 785.041 1479.01 Q786.87 1475.44 786.87 1468.33 Q786.87 1461.2 785.041 1457.66 Q783.236 1454.1 779.601 1454.1 M779.601 1450.39 Q785.412 1450.39 788.467 1455 Q791.546 1459.58 791.546 1468.33 Q791.546 1477.06 788.467 1481.67 Q785.412 1486.25 779.601 1486.25 Q773.791 1486.25 770.713 1481.67 Q767.657 1477.06 767.657 1468.33 Q767.657 1459.58 770.713 1455 Q773.791 1450.39 779.601 1450.39 Z" fill="#000000" fill-rule="nonzero" fill-opacity="1" /><path clip-path="url(#clip150)" d="M799.81 1451.02 L818.166 1451.02 L818.166 1454.96 L804.092 1454.96 L804.092 1463.43 Q805.111 1463.08 806.129 1462.92 Q807.148 1462.73 808.166 1462.73 Q813.953 1462.73 817.333 1465.9 Q820.712 1469.08 820.712 1474.49 Q820.712 1480.07 817.24 1483.17 Q813.768 1486.25 807.449 1486.25 Q805.273 1486.25 803.004 1485.88 Q800.759 1485.51 798.351 1484.77 L798.351 1480.07 Q800.435 1481.2 802.657 1481.76 Q804.879 1482.32 807.356 1482.32 Q811.361 1482.32 813.698 1480.21 Q816.036 1478.1 816.036 1474.49 Q816.036 1470.88 813.698 1468.77 Q811.361 1466.67 807.356 1466.67 Q805.481 1466.67 803.606 1467.08 Q801.754 1467.5 799.81 1468.38 L799.81 1451.02 Z" fill="#000000" fill-rule="nonzero" fill-opacity="1" /><path clip-path="url(#clip150)" d="M1240.66 1454.1 Q1237.05 1454.1 1235.22 1457.66 Q1233.42 1461.2 1233.42 1468.33 Q1233.42 1475.44 1235.22 1479.01 Q1237.05 1482.55 1240.66 1482.55 Q1244.3 1482.55 1246.1 1479.01 Q1247.93 1475.44 1247.93 1468.33 Q1247.93 1461.2 1246.1 1457.66 Q1244.3 1454.1 1240.66 1454.1 M1240.66 1450.39 Q1246.47 1450.39 1249.53 1455 Q1252.61 1459.58 1252.61 1468.33 Q1252.61 1477.06 1249.53 1481.67 Q1246.47 1486.25 1240.66 1486.25 Q1234.85 1486.25 1231.77 1481.67 Q1228.72 1477.06 1228.72 1468.33 Q1228.72 1459.58 1231.77 1455 Q1234.85 1450.39 1240.66 1450.39 Z" fill="#000000" fill-rule="nonzero" fill-opacity="1" /><path clip-path="url(#clip150)" d="M1260.83 1479.7 L1265.71 1479.7 L1265.71 1485.58 L1260.83 1485.58 L1260.83 1479.7 Z" fill="#000000" fill-rule="nonzero" fill-opacity="1" /><path clip-path="url(#clip150)" d="M1276.7 1481.64 L1284.34 1481.64 L1284.34 1455.28 L1276.03 1456.95 L1276.03 1452.69 L1284.3 1451.02 L1288.97 1451.02 L1288.97 1481.64 L1296.61 1481.64 L1296.61 1485.58 L1276.7 1485.58 L1276.7 1481.64 Z" fill="#000000" fill-rule="nonzero" fill-opacity="1" /><path clip-path="url(#clip150)" d="M1316.06 1454.1 Q1312.45 1454.1 1310.62 1457.66 Q1308.81 1461.2 1308.81 1468.33 Q1308.81 1475.44 1310.62 1479.01 Q1312.45 1482.55 1316.06 1482.55 Q1319.69 1482.55 1321.5 1479.01 Q1323.32 1475.44 1323.32 1468.33 Q1323.32 1461.2 1321.5 1457.66 Q1319.69 1454.1 1316.06 1454.1 M1316.06 1450.39 Q1321.87 1450.39 1324.92 1455 Q1328 1459.58 1328 1468.33 Q1328 1477.06 1324.92 1481.67 Q1321.87 1486.25 1316.06 1486.25 Q1310.25 1486.25 1307.17 1481.67 Q1304.11 1477.06 1304.11 1468.33 Q1304.11 1459.58 1307.17 1455 Q1310.25 1450.39 1316.06 1450.39 Z" fill="#000000" fill-rule="nonzero" fill-opacity="1" /><path clip-path="url(#clip150)" d="M1747.95 1454.1 Q1744.34 1454.1 1742.51 1457.66 Q1740.71 1461.2 1740.71 1468.33 Q1740.71 1475.44 1742.51 1479.01 Q1744.34 1482.55 1747.95 1482.55 Q1751.59 1482.55 1753.39 1479.01 Q1755.22 1475.44 1755.22 1468.33 Q1755.22 1461.2 1753.39 1457.66 Q1751.59 1454.1 1747.95 1454.1 M1747.95 1450.39 Q1753.76 1450.39 1756.82 1455 Q1759.9 1459.58 1759.9 1468.33 Q1759.9 1477.06 1756.82 1481.67 Q1753.76 1486.25 1747.95 1486.25 Q1742.14 1486.25 1739.06 1481.67 Q1736.01 1477.06 1736.01 1468.33 Q1736.01 1459.58 1739.06 1455 Q1742.14 1450.39 1747.95 1450.39 Z" fill="#000000" fill-rule="nonzero" fill-opacity="1" /><path clip-path="url(#clip150)" d="M1768.11 1479.7 L1773 1479.7 L1773 1485.58 L1768.11 1485.58 L1768.11 1479.7 Z" fill="#000000" fill-rule="nonzero" fill-opacity="1" /><path clip-path="url(#clip150)" d="M1783.99 1481.64 L1791.63 1481.64 L1791.63 1455.28 L1783.32 1456.95 L1783.32 1452.69 L1791.59 1451.02 L1796.26 1451.02 L1796.26 1481.64 L1803.9 1481.64 L1803.9 1485.58 L1783.99 1485.58 L1783.99 1481.64 Z" fill="#000000" fill-rule="nonzero" fill-opacity="1" /><path clip-path="url(#clip150)" d="M1813.39 1451.02 L1831.75 1451.02 L1831.75 1454.96 L1817.67 1454.96 L1817.67 1463.43 Q1818.69 1463.08 1819.71 1462.92 Q1820.73 1462.73 1821.75 1462.73 Q1827.53 1462.73 1830.91 1465.9 Q1834.29 1469.08 1834.29 1474.49 Q1834.29 1480.07 1830.82 1483.17 Q1827.35 1486.25 1821.03 1486.25 Q1818.85 1486.25 1816.59 1485.88 Q1814.34 1485.51 1811.93 1484.77 L1811.93 1480.07 Q1814.02 1481.2 1816.24 1481.76 Q1818.46 1482.32 1820.94 1482.32 Q1824.94 1482.32 1827.28 1480.21 Q1829.62 1478.1 1829.62 1474.49 Q1829.62 1470.88 1827.28 1468.77 Q1824.94 1466.67 1820.94 1466.67 Q1819.06 1466.67 1817.19 1467.08 Q1815.34 1467.5 1813.39 1468.38 L1813.39 1451.02 Z" fill="#000000" fill-rule="nonzero" fill-opacity="1" /><path clip-path="url(#clip150)" d="M2254.24 1454.1 Q2250.63 1454.1 2248.8 1457.66 Q2247 1461.2 2247 1468.33 Q2247 1475.44 2248.8 1479.01 Q2250.63 1482.55 2254.24 1482.55 Q2257.88 1482.55 2259.68 1479.01 Q2261.51 1475.44 2261.51 1468.33 Q2261.51 1461.2 2259.68 1457.66 Q2257.88 1454.1 2254.24 1454.1 M2254.24 1450.39 Q2260.05 1450.39 2263.11 1455 Q2266.19 1459.58 2266.19 1468.33 Q2266.19 1477.06 2263.11 1481.67 Q2260.05 1486.25 2254.24 1486.25 Q2248.43 1486.25 2245.36 1481.67 Q2242.3 1477.06 2242.3 1468.33 Q2242.3 1459.58 2245.36 1455 Q2248.43 1450.39 2254.24 1450.39 Z" fill="#000000" fill-rule="nonzero" fill-opacity="1" /><path clip-path="url(#clip150)" d="M2274.41 1479.7 L2279.29 1479.7 L2279.29 1485.58 L2274.41 1485.58 L2274.41 1479.7 Z" fill="#000000" fill-rule="nonzero" fill-opacity="1" /><path clip-path="url(#clip150)" d="M2293.5 1481.64 L2309.82 1481.64 L2309.82 1485.58 L2287.88 1485.58 L2287.88 1481.64 Q2290.54 1478.89 2295.12 1474.26 Q2299.73 1469.61 2300.91 1468.27 Q2303.16 1465.74 2304.04 1464.01 Q2304.94 1462.25 2304.94 1460.56 Q2304.94 1457.8 2302.99 1456.07 Q2301.07 1454.33 2297.97 1454.33 Q2295.77 1454.33 2293.32 1455.09 Q2290.89 1455.86 2288.11 1457.41 L2288.11 1452.69 Q2290.93 1451.55 2293.39 1450.97 Q2295.84 1450.39 2297.88 1450.39 Q2303.25 1450.39 2306.44 1453.08 Q2309.64 1455.77 2309.64 1460.26 Q2309.64 1462.39 2308.83 1464.31 Q2308.04 1466.2 2305.93 1468.8 Q2305.36 1469.47 2302.25 1472.69 Q2299.15 1475.88 2293.5 1481.64 Z" fill="#000000" fill-rule="nonzero" fill-opacity="1" /><path clip-path="url(#clip150)" d="M2329.64 1454.1 Q2326.03 1454.1 2324.2 1457.66 Q2322.39 1461.2 2322.39 1468.33 Q2322.39 1475.44 2324.2 1479.01 Q2326.03 1482.55 2329.64 1482.55 Q2333.27 1482.55 2335.08 1479.01 Q2336.91 1475.44 2336.91 1468.33 Q2336.91 1461.2 2335.08 1457.66 Q2333.27 1454.1 2329.64 1454.1 M2329.64 1450.39 Q2335.45 1450.39 2338.5 1455 Q2341.58 1459.58 2341.58 1468.33 Q2341.58 1477.06 2338.5 1481.67 Q2335.45 1486.25 2329.64 1486.25 Q2323.83 1486.25 2320.75 1481.67 Q2317.69 1477.06 2317.69 1468.33 Q2317.69 1459.58 2320.75 1455 Q2323.83 1450.39 2329.64 1450.39 Z" fill="#000000" fill-rule="nonzero" fill-opacity="1" /><path clip-path="url(#clip150)" d="M918.204 1520.52 L958.403 1520.52 L958.403 1525.93 L941.534 1525.93 L941.534 1568.04 L935.073 1568.04 L935.073 1525.93 L918.204 1525.93 L918.204 1520.52 Z" fill="#000000" fill-rule="nonzero" fill-opacity="1" /><path clip-path="url(#clip150)" d="M993.988 1546.53 L993.988 1568.04 L988.131 1568.04 L988.131 1546.72 Q988.131 1541.66 986.158 1539.14 Q984.185 1536.63 980.238 1536.63 Q975.495 1536.63 972.758 1539.65 Q970.021 1542.68 970.021 1547.9 L970.021 1568.04 L964.133 1568.04 L964.133 1518.52 L970.021 1518.52 L970.021 1537.93 Q972.122 1534.72 974.954 1533.13 Q977.819 1531.54 981.543 1531.54 Q987.686 1531.54 990.837 1535.36 Q993.988 1539.14 993.988 1546.53 Z" fill="#000000" fill-rule="nonzero" fill-opacity="1" /><path clip-path="url(#clip150)" d="M1026.33 1537.87 Q1025.34 1537.3 1024.16 1537.04 Q1023.02 1536.76 1021.61 1536.76 Q1016.65 1536.76 1013.98 1540 Q1011.33 1543.22 1011.33 1549.27 L1011.33 1568.04 L1005.45 1568.04 L1005.45 1532.4 L1011.33 1532.4 L1011.33 1537.93 Q1013.18 1534.69 1016.14 1533.13 Q1019.1 1531.54 1023.33 1531.54 Q1023.94 1531.54 1024.67 1531.63 Q1025.4 1531.7 1026.29 1531.85 L1026.33 1537.87 Z" fill="#000000" fill-rule="nonzero" fill-opacity="1" /><path clip-path="url(#clip150)" d="M1061.53 1548.76 L1061.53 1551.62 L1034.6 1551.62 Q1034.98 1557.67 1038.23 1560.85 Q1041.51 1564 1047.33 1564 Q1050.71 1564 1053.86 1563.17 Q1057.04 1562.35 1060.16 1560.69 L1060.16 1566.23 Q1057.01 1567.57 1053.7 1568.27 Q1050.39 1568.97 1046.98 1568.97 Q1038.45 1568.97 1033.46 1564 Q1028.49 1559.04 1028.49 1550.57 Q1028.49 1541.82 1033.2 1536.69 Q1037.94 1531.54 1045.96 1531.54 Q1053.16 1531.54 1057.33 1536.18 Q1061.53 1540.8 1061.53 1548.76 M1055.67 1547.04 Q1055.61 1542.23 1052.97 1539.37 Q1050.36 1536.5 1046.03 1536.5 Q1041.13 1536.5 1038.17 1539.27 Q1035.24 1542.04 1034.79 1547.07 L1055.67 1547.04 Z" fill="#000000" fill-rule="nonzero" fill-opacity="1" /><path clip-path="url(#clip150)" d="M1093.87 1533.45 L1093.87 1538.98 Q1091.38 1537.71 1088.71 1537.07 Q1086.04 1536.44 1083.17 1536.44 Q1078.81 1536.44 1076.61 1537.77 Q1074.45 1539.11 1074.45 1541.79 Q1074.45 1543.82 1076.01 1545 Q1077.57 1546.15 1082.28 1547.2 L1084.29 1547.64 Q1090.52 1548.98 1093.13 1551.43 Q1095.78 1553.85 1095.78 1558.21 Q1095.78 1563.17 1091.83 1566.07 Q1087.91 1568.97 1081.04 1568.97 Q1078.17 1568.97 1075.05 1568.39 Q1071.97 1567.85 1068.53 1566.74 L1068.53 1560.69 Q1071.78 1562.38 1074.93 1563.24 Q1078.08 1564.07 1081.17 1564.07 Q1085.3 1564.07 1087.53 1562.66 Q1089.76 1561.23 1089.76 1558.65 Q1089.76 1556.27 1088.14 1554.99 Q1086.55 1553.72 1081.1 1552.54 L1079.07 1552.07 Q1073.62 1550.92 1071.2 1548.56 Q1068.78 1546.18 1068.78 1542.04 Q1068.78 1537.01 1072.35 1534.27 Q1075.91 1531.54 1082.47 1531.54 Q1085.72 1531.54 1088.58 1532.01 Q1091.45 1532.49 1093.87 1533.45 Z" fill="#000000" fill-rule="nonzero" fill-opacity="1" /><path clip-path="url(#clip150)" d="M1134.73 1546.53 L1134.73 1568.04 L1128.88 1568.04 L1128.88 1546.72 Q1128.88 1541.66 1126.9 1539.14 Q1124.93 1536.63 1120.98 1536.63 Q1116.24 1536.63 1113.5 1539.65 Q1110.77 1542.68 1110.77 1547.9 L1110.77 1568.04 L1104.88 1568.04 L1104.88 1518.52 L1110.77 1518.52 L1110.77 1537.93 Q1112.87 1534.72 1115.7 1533.13 Q1118.56 1531.54 1122.29 1531.54 Q1128.43 1531.54 1131.58 1535.36 Q1134.73 1539.14 1134.73 1546.53 Z" fill="#000000" fill-rule="nonzero" fill-opacity="1" /><path clip-path="url(#clip150)" d="M1160.23 1536.5 Q1155.52 1536.5 1152.78 1540.19 Q1150.04 1543.85 1150.04 1550.25 Q1150.04 1556.65 1152.75 1560.34 Q1155.49 1564 1160.23 1564 Q1164.91 1564 1167.64 1560.31 Q1170.38 1556.62 1170.38 1550.25 Q1170.38 1543.92 1167.64 1540.23 Q1164.91 1536.5 1160.23 1536.5 M1160.23 1531.54 Q1167.87 1531.54 1172.23 1536.5 Q1176.59 1541.47 1176.59 1550.25 Q1176.59 1559 1172.23 1564 Q1167.87 1568.97 1160.23 1568.97 Q1152.56 1568.97 1148.2 1564 Q1143.87 1559 1143.87 1550.25 Q1143.87 1541.47 1148.2 1536.5 Q1152.56 1531.54 1160.23 1531.54 Z" fill="#000000" fill-rule="nonzero" fill-opacity="1" /><path clip-path="url(#clip150)" d="M1186.3 1518.52 L1192.15 1518.52 L1192.15 1568.04 L1186.3 1568.04 L1186.3 1518.52 Z" fill="#000000" fill-rule="nonzero" fill-opacity="1" /><path clip-path="url(#clip150)" d="M1227.86 1537.81 L1227.86 1518.52 L1233.72 1518.52 L1233.72 1568.04 L1227.86 1568.04 L1227.86 1562.7 Q1226.02 1565.88 1223.18 1567.44 Q1220.38 1568.97 1216.44 1568.97 Q1209.98 1568.97 1205.9 1563.81 Q1201.86 1558.65 1201.86 1550.25 Q1201.86 1541.85 1205.9 1536.69 Q1209.98 1531.54 1216.44 1531.54 Q1220.38 1531.54 1223.18 1533.1 Q1226.02 1534.62 1227.86 1537.81 M1207.91 1550.25 Q1207.91 1556.71 1210.55 1560.4 Q1213.22 1564.07 1217.87 1564.07 Q1222.52 1564.07 1225.19 1560.4 Q1227.86 1556.71 1227.86 1550.25 Q1227.86 1543.79 1225.19 1540.13 Q1222.52 1536.44 1217.87 1536.44 Q1213.22 1536.44 1210.55 1540.13 Q1207.91 1543.79 1207.91 1550.25 Z" fill="#000000" fill-rule="nonzero" fill-opacity="1" /><path clip-path="url(#clip150)" d="M1276.91 1520.52 L1282.32 1520.52 L1265.77 1574.09 L1260.36 1574.09 L1276.91 1520.52 Z" fill="#000000" fill-rule="nonzero" fill-opacity="1" /><path clip-path="url(#clip150)" d="M1314.85 1562.7 L1314.85 1581.6 L1308.96 1581.6 L1308.96 1532.4 L1314.85 1532.4 L1314.85 1537.81 Q1316.7 1534.62 1319.5 1533.1 Q1322.33 1531.54 1326.25 1531.54 Q1332.74 1531.54 1336.78 1536.69 Q1340.86 1541.85 1340.86 1550.25 Q1340.86 1558.65 1336.78 1563.81 Q1332.74 1568.97 1326.25 1568.97 Q1322.33 1568.97 1319.5 1567.44 Q1316.7 1565.88 1314.85 1562.7 M1334.78 1550.25 Q1334.78 1543.79 1332.1 1540.13 Q1329.46 1536.44 1324.81 1536.44 Q1320.17 1536.44 1317.49 1540.13 Q1314.85 1543.79 1314.85 1550.25 Q1314.85 1556.71 1317.49 1560.4 Q1320.17 1564.07 1324.81 1564.07 Q1329.46 1564.07 1332.1 1560.4 Q1334.78 1556.71 1334.78 1550.25 Z" fill="#000000" fill-rule="nonzero" fill-opacity="1" /><path clip-path="url(#clip150)" d="M1349.96 1553.98 L1349.96 1532.4 L1355.81 1532.4 L1355.81 1553.75 Q1355.81 1558.81 1357.79 1561.36 Q1359.76 1563.87 1363.71 1563.87 Q1368.45 1563.87 1371.19 1560.85 Q1373.96 1557.83 1373.96 1552.61 L1373.96 1532.4 L1379.81 1532.4 L1379.81 1568.04 L1373.96 1568.04 L1373.96 1562.57 Q1371.82 1565.82 1368.99 1567.41 Q1366.19 1568.97 1362.47 1568.97 Q1356.32 1568.97 1353.14 1565.15 Q1349.96 1561.33 1349.96 1553.98 M1364.69 1531.54 L1364.69 1531.54 Z" fill="#000000" fill-rule="nonzero" fill-opacity="1" /><path clip-path="url(#clip150)" d="M1391.88 1518.52 L1397.73 1518.52 L1397.73 1568.04 L1391.88 1568.04 L1391.88 1518.52 Z" fill="#000000" fill-rule="nonzero" fill-opacity="1" /><path clip-path="url(#clip150)" d="M1432.71 1533.45 L1432.71 1538.98 Q1430.23 1537.71 1427.56 1537.07 Q1424.88 1536.44 1422.02 1536.44 Q1417.66 1536.44 1415.46 1537.77 Q1413.3 1539.11 1413.3 1541.79 Q1413.3 1543.82 1414.86 1545 Q1416.42 1546.15 1421.13 1547.2 L1423.13 1547.64 Q1429.37 1548.98 1431.98 1551.43 Q1434.62 1553.85 1434.62 1558.21 Q1434.62 1563.17 1430.68 1566.07 Q1426.76 1568.97 1419.89 1568.97 Q1417.02 1568.97 1413.9 1568.39 Q1410.81 1567.85 1407.38 1566.74 L1407.38 1560.69 Q1410.62 1562.38 1413.77 1563.24 Q1416.93 1564.07 1420.01 1564.07 Q1424.15 1564.07 1426.38 1562.66 Q1428.61 1561.23 1428.61 1558.65 Q1428.61 1556.27 1426.98 1554.99 Q1425.39 1553.72 1419.95 1552.54 L1417.91 1552.07 Q1412.47 1550.92 1410.05 1548.56 Q1407.63 1546.18 1407.63 1542.04 Q1407.63 1537.01 1411.2 1534.27 Q1414.76 1531.54 1421.32 1531.54 Q1424.56 1531.54 1427.43 1532.01 Q1430.29 1532.49 1432.71 1533.45 Z" fill="#000000" fill-rule="nonzero" fill-opacity="1" /><path clip-path="url(#clip150)" d="M1474.44 1548.76 L1474.44 1551.62 L1447.51 1551.62 Q1447.89 1557.67 1451.14 1560.85 Q1454.42 1564 1460.24 1564 Q1463.62 1564 1466.77 1563.17 Q1469.95 1562.35 1473.07 1560.69 L1473.07 1566.23 Q1469.92 1567.57 1466.61 1568.27 Q1463.3 1568.97 1459.89 1568.97 Q1451.36 1568.97 1446.37 1564 Q1441.4 1559.04 1441.4 1550.57 Q1441.4 1541.82 1446.11 1536.69 Q1450.85 1531.54 1458.88 1531.54 Q1466.07 1531.54 1470.24 1536.18 Q1474.44 1540.8 1474.44 1548.76 M1468.58 1547.04 Q1468.52 1542.23 1465.88 1539.37 Q1463.27 1536.5 1458.94 1536.5 Q1454.04 1536.5 1451.08 1539.27 Q1448.15 1542.04 1447.7 1547.07 L1468.58 1547.04 Z" fill="#000000" fill-rule="nonzero" fill-opacity="1" /><path clip-path="url(#clip150)" d="M1532.53 1539.24 Q1534.72 1535.29 1537.78 1533.41 Q1540.83 1531.54 1544.97 1531.54 Q1550.54 1531.54 1553.57 1535.45 Q1556.59 1539.33 1556.59 1546.53 L1556.59 1568.04 L1550.7 1568.04 L1550.7 1546.72 Q1550.7 1541.59 1548.89 1539.11 Q1547.07 1536.63 1543.35 1536.63 Q1538.8 1536.63 1536.15 1539.65 Q1533.51 1542.68 1533.51 1547.9 L1533.51 1568.04 L1527.62 1568.04 L1527.62 1546.72 Q1527.62 1541.56 1525.81 1539.11 Q1524 1536.63 1520.21 1536.63 Q1515.72 1536.63 1513.08 1539.68 Q1510.44 1542.71 1510.44 1547.9 L1510.44 1568.04 L1504.55 1568.04 L1504.55 1532.4 L1510.44 1532.4 L1510.44 1537.93 Q1512.44 1534.66 1515.24 1533.1 Q1518.04 1531.54 1521.9 1531.54 Q1525.78 1531.54 1528.48 1533.51 Q1531.22 1535.48 1532.53 1539.24 Z" fill="#000000" fill-rule="nonzero" fill-opacity="1" /><path clip-path="url(#clip150)" d="M1584.47 1550.12 Q1577.37 1550.12 1574.64 1551.75 Q1571.9 1553.37 1571.9 1557.29 Q1571.9 1560.4 1573.94 1562.25 Q1576 1564.07 1579.54 1564.07 Q1584.41 1564.07 1587.34 1560.63 Q1590.3 1557.16 1590.3 1551.43 L1590.3 1550.12 L1584.47 1550.12 M1596.15 1547.71 L1596.15 1568.04 L1590.3 1568.04 L1590.3 1562.63 Q1588.29 1565.88 1585.3 1567.44 Q1582.31 1568.97 1577.98 1568.97 Q1572.5 1568.97 1569.26 1565.91 Q1566.04 1562.82 1566.04 1557.67 Q1566.04 1551.65 1570.05 1548.6 Q1574.09 1545.54 1582.08 1545.54 L1590.3 1545.54 L1590.3 1544.97 Q1590.3 1540.93 1587.62 1538.73 Q1584.98 1536.5 1580.17 1536.5 Q1577.12 1536.5 1574.22 1537.23 Q1571.33 1537.97 1568.65 1539.43 L1568.65 1534.02 Q1571.87 1532.78 1574.89 1532.17 Q1577.91 1531.54 1580.78 1531.54 Q1588.51 1531.54 1592.33 1535.55 Q1596.15 1539.56 1596.15 1547.71 Z" fill="#000000" fill-rule="nonzero" fill-opacity="1" /><path clip-path="url(#clip150)" d="M1637.85 1532.4 L1624.96 1549.74 L1638.52 1568.04 L1631.61 1568.04 L1621.23 1554.04 L1610.86 1568.04 L1603.95 1568.04 L1617.8 1549.39 L1605.13 1532.4 L1612.03 1532.4 L1621.49 1545.1 L1630.94 1532.4 L1637.85 1532.4 Z" fill="#000000" fill-rule="nonzero" fill-opacity="1" /><polyline clip-path="url(#clip150)" style="stroke:#000000; stroke-linecap:round; stroke-linejoin:round; stroke-width:4; stroke-opacity:1; fill:none" points="203.964,1423.18 203.964,123.472 "/>
<polyline clip-path="url(#clip150)" style="stroke:#000000; stroke-linecap:round; stroke-linejoin:round; stroke-width:4; stroke-opacity:1; fill:none" points="203.964,1239.16 222.861,1239.16 "/>
<polyline clip-path="url(#clip150)" style="stroke:#000000; stroke-linecap:round; stroke-linejoin:round; stroke-width:4; stroke-opacity:1; fill:none" points="203.964,975.85 222.861,975.85 "/>
<polyline clip-path="url(#clip150)" style="stroke:#000000; stroke-linecap:round; stroke-linejoin:round; stroke-width:4; stroke-opacity:1; fill:none" points="203.964,712.537 222.861,712.537 "/>
<polyline clip-path="url(#clip150)" style="stroke:#000000; stroke-linecap:round; stroke-linejoin:round; stroke-width:4; stroke-opacity:1; fill:none" points="203.964,449.224 222.861,449.224 "/>
<polyline clip-path="url(#clip150)" style="stroke:#000000; stroke-linecap:round; stroke-linejoin:round; stroke-width:4; stroke-opacity:1; fill:none" points="203.964,185.911 222.861,185.911 "/>
<path clip-path="url(#clip150)" d="M116.668 1252.51 L124.306 1252.51 L124.306 1226.14 L115.996 1227.81 L115.996 1223.55 L124.26 1221.88 L128.936 1221.88 L128.936 1252.51 L136.575 1252.51 L136.575 1256.44 L116.668 1256.44 L116.668 1252.51 Z" fill="#000000" fill-rule="nonzero" fill-opacity="1" /><path clip-path="url(#clip150)" d="M156.019 1224.96 Q152.408 1224.96 150.579 1228.53 Q148.774 1232.07 148.774 1239.2 Q148.774 1246.3 150.579 1249.87 Q152.408 1253.41 156.019 1253.41 Q159.653 1253.41 161.459 1249.87 Q163.288 1246.3 163.288 1239.2 Q163.288 1232.07 161.459 1228.53 Q159.653 1224.96 156.019 1224.96 M156.019 1221.26 Q161.829 1221.26 164.885 1225.86 Q167.964 1230.45 167.964 1239.2 Q167.964 1247.92 164.885 1252.53 Q161.829 1257.11 156.019 1257.11 Q150.209 1257.11 147.13 1252.53 Q144.075 1247.92 144.075 1239.2 Q144.075 1230.45 147.13 1225.86 Q150.209 1221.26 156.019 1221.26 Z" fill="#000000" fill-rule="nonzero" fill-opacity="1" /><path clip-path="url(#clip150)" d="M117.663 989.195 L125.302 989.195 L125.302 962.829 L116.992 964.496 L116.992 960.237 L125.255 958.57 L129.931 958.57 L129.931 989.195 L137.57 989.195 L137.57 993.13 L117.663 993.13 L117.663 989.195 Z" fill="#000000" fill-rule="nonzero" fill-opacity="1" /><path clip-path="url(#clip150)" d="M147.061 958.57 L165.417 958.57 L165.417 962.505 L151.343 962.505 L151.343 970.978 Q152.362 970.63 153.38 970.468 Q154.399 970.283 155.417 970.283 Q161.204 970.283 164.584 973.454 Q167.964 976.626 167.964 982.042 Q167.964 987.621 164.491 990.723 Q161.019 993.802 154.7 993.802 Q152.524 993.802 150.255 993.431 Q148.01 993.061 145.603 992.32 L145.603 987.621 Q147.686 988.755 149.908 989.311 Q152.13 989.866 154.607 989.866 Q158.612 989.866 160.95 987.76 Q163.288 985.653 163.288 982.042 Q163.288 978.431 160.95 976.325 Q158.612 974.218 154.607 974.218 Q152.732 974.218 150.857 974.635 Q149.005 975.052 147.061 975.931 L147.061 958.57 Z" fill="#000000" fill-rule="nonzero" fill-opacity="1" /><path clip-path="url(#clip150)" d="M119.885 725.882 L136.204 725.882 L136.204 729.817 L114.26 729.817 L114.26 725.882 Q116.922 723.127 121.505 718.498 Q126.112 713.845 127.292 712.502 Q129.538 709.979 130.417 708.243 Q131.32 706.484 131.32 704.794 Q131.32 702.04 129.376 700.303 Q127.455 698.567 124.353 698.567 Q122.154 698.567 119.7 699.331 Q117.269 700.095 114.492 701.646 L114.492 696.924 Q117.316 695.79 119.769 695.211 Q122.223 694.632 124.26 694.632 Q129.63 694.632 132.825 697.317 Q136.019 700.003 136.019 704.493 Q136.019 706.623 135.209 708.544 Q134.422 710.442 132.316 713.035 Q131.737 713.706 128.635 716.924 Q125.533 720.118 119.885 725.882 Z" fill="#000000" fill-rule="nonzero" fill-opacity="1" /><path clip-path="url(#clip150)" d="M156.019 698.336 Q152.408 698.336 150.579 701.901 Q148.774 705.442 148.774 712.572 Q148.774 719.678 150.579 723.243 Q152.408 726.785 156.019 726.785 Q159.653 726.785 161.459 723.243 Q163.288 719.678 163.288 712.572 Q163.288 705.442 161.459 701.901 Q159.653 698.336 156.019 698.336 M156.019 694.632 Q161.829 694.632 164.885 699.239 Q167.964 703.822 167.964 712.572 Q167.964 721.299 164.885 725.905 Q161.829 730.488 156.019 730.488 Q150.209 730.488 147.13 725.905 Q144.075 721.299 144.075 712.572 Q144.075 703.822 147.13 699.239 Q150.209 694.632 156.019 694.632 Z" fill="#000000" fill-rule="nonzero" fill-opacity="1" /><path clip-path="url(#clip150)" d="M120.88 462.569 L137.2 462.569 L137.2 466.504 L115.256 466.504 L115.256 462.569 Q117.918 459.814 122.501 455.185 Q127.107 450.532 128.288 449.189 Q130.533 446.666 131.413 444.93 Q132.316 443.171 132.316 441.481 Q132.316 438.727 130.371 436.99 Q128.45 435.254 125.348 435.254 Q123.149 435.254 120.695 436.018 Q118.265 436.782 115.487 438.333 L115.487 433.611 Q118.311 432.477 120.765 431.898 Q123.218 431.319 125.255 431.319 Q130.626 431.319 133.82 434.004 Q137.015 436.689 137.015 441.18 Q137.015 443.31 136.204 445.231 Q135.417 447.129 133.311 449.722 Q132.732 450.393 129.63 453.611 Q126.529 456.805 120.88 462.569 Z" fill="#000000" fill-rule="nonzero" fill-opacity="1" /><path clip-path="url(#clip150)" d="M147.061 431.944 L165.417 431.944 L165.417 435.879 L151.343 435.879 L151.343 444.351 Q152.362 444.004 153.38 443.842 Q154.399 443.657 155.417 443.657 Q161.204 443.657 164.584 446.828 Q167.964 450 167.964 455.416 Q167.964 460.995 164.491 464.097 Q161.019 467.175 154.7 467.175 Q152.524 467.175 150.255 466.805 Q148.01 466.435 145.603 465.694 L145.603 460.995 Q147.686 462.129 149.908 462.685 Q152.13 463.24 154.607 463.24 Q158.612 463.24 160.95 461.134 Q163.288 459.027 163.288 455.416 Q163.288 451.805 160.95 449.699 Q158.612 447.592 154.607 447.592 Q152.732 447.592 150.857 448.009 Q149.005 448.426 147.061 449.305 L147.061 431.944 Z" fill="#000000" fill-rule="nonzero" fill-opacity="1" /><path clip-path="url(#clip150)" d="M130.024 184.557 Q133.38 185.275 135.255 187.543 Q137.154 189.812 137.154 193.145 Q137.154 198.261 133.635 201.061 Q130.117 203.862 123.635 203.862 Q121.459 203.862 119.144 203.423 Q116.853 203.006 114.399 202.149 L114.399 197.636 Q116.343 198.77 118.658 199.349 Q120.973 199.927 123.496 199.927 Q127.894 199.927 130.186 198.191 Q132.501 196.455 132.501 193.145 Q132.501 190.089 130.348 188.376 Q128.218 186.64 124.399 186.64 L120.371 186.64 L120.371 182.798 L124.584 182.798 Q128.033 182.798 129.862 181.432 Q131.691 180.043 131.691 177.45 Q131.691 174.788 129.792 173.376 Q127.917 171.941 124.399 171.941 Q122.478 171.941 120.279 172.358 Q118.08 172.775 115.441 173.654 L115.441 169.488 Q118.103 168.747 120.418 168.376 Q122.755 168.006 124.816 168.006 Q130.14 168.006 133.242 170.437 Q136.343 172.844 136.343 176.964 Q136.343 179.835 134.7 181.825 Q133.056 183.793 130.024 184.557 Z" fill="#000000" fill-rule="nonzero" fill-opacity="1" /><path clip-path="url(#clip150)" d="M156.019 171.71 Q152.408 171.71 150.579 175.275 Q148.774 178.816 148.774 185.946 Q148.774 193.052 150.579 196.617 Q152.408 200.159 156.019 200.159 Q159.653 200.159 161.459 196.617 Q163.288 193.052 163.288 185.946 Q163.288 178.816 161.459 175.275 Q159.653 171.71 156.019 171.71 M156.019 168.006 Q161.829 168.006 164.885 172.613 Q167.964 177.196 167.964 185.946 Q167.964 194.673 164.885 199.279 Q161.829 203.862 156.019 203.862 Q150.209 203.862 147.13 199.279 Q144.075 194.673 144.075 185.946 Q144.075 177.196 147.13 172.613 Q150.209 168.006 156.019 168.006 Z" fill="#000000" fill-rule="nonzero" fill-opacity="1" /><path clip-path="url(#clip150)" d="M16.4842 1145.77 L16.4842 1115.72 L21.895 1115.72 L21.895 1139.34 L35.9632 1139.34 L35.9632 1116.71 L41.3741 1116.71 L41.3741 1139.34 L58.5933 1139.34 L58.5933 1115.15 L64.0042 1115.15 L64.0042 1145.77 L16.4842 1145.77 Z" fill="#000000" fill-rule="nonzero" fill-opacity="1" /><path clip-path="url(#clip150)" d="M42.4881 1075.2 L64.0042 1075.2 L64.0042 1081.06 L42.679 1081.06 Q37.6183 1081.06 35.1038 1083.03 Q32.5894 1085.01 32.5894 1088.95 Q32.5894 1093.7 35.6131 1096.43 Q38.6368 1099.17 43.8567 1099.17 L64.0042 1099.17 L64.0042 1105.06 L28.3562 1105.06 L28.3562 1099.17 L33.8944 1099.17 Q30.6797 1097.07 29.0883 1094.24 Q27.4968 1091.37 27.4968 1087.65 Q27.4968 1081.51 31.3163 1078.35 Q35.1038 1075.2 42.4881 1075.2 Z" fill="#000000" fill-rule="nonzero" fill-opacity="1" /><path clip-path="url(#clip150)" d="M44.7161 1033.03 L47.5806 1033.03 L47.5806 1059.96 Q53.6281 1059.58 56.8109 1056.33 Q59.9619 1053.05 59.9619 1047.23 Q59.9619 1043.85 59.1344 1040.7 Q58.3069 1037.52 56.6518 1034.4 L62.1899 1034.4 Q63.5267 1037.55 64.227 1040.86 Q64.9272 1044.17 64.9272 1047.58 Q64.9272 1056.11 59.9619 1061.1 Q54.9967 1066.07 46.5303 1066.07 Q37.7774 1066.07 32.6531 1061.36 Q27.4968 1056.62 27.4968 1048.6 Q27.4968 1041.4 32.1438 1037.23 Q36.7589 1033.03 44.7161 1033.03 M42.9973 1038.89 Q38.1912 1038.95 35.3266 1041.59 Q32.4621 1044.2 32.4621 1048.53 Q32.4621 1053.43 35.2312 1056.39 Q38.0002 1059.32 43.0292 1059.77 L42.9973 1038.89 Z" fill="#000000" fill-rule="nonzero" fill-opacity="1" /><path clip-path="url(#clip150)" d="M33.8307 1002.76 Q33.2578 1003.75 33.0032 1004.93 Q32.7167 1006.07 32.7167 1007.47 Q32.7167 1012.44 35.9632 1015.11 Q39.1779 1017.75 45.2253 1017.75 L64.0042 1017.75 L64.0042 1023.64 L28.3562 1023.64 L28.3562 1017.75 L33.8944 1017.75 Q30.6479 1015.91 29.0883 1012.95 Q27.4968 1009.99 27.4968 1005.75 Q27.4968 1005.15 27.5923 1004.42 Q27.656 1003.68 27.8151 1002.79 L33.8307 1002.76 Z" fill="#000000" fill-rule="nonzero" fill-opacity="1" /><path clip-path="url(#clip150)" d="M45.7664 974.307 Q39.4007 974.307 35.8996 976.949 Q32.3984 979.559 32.3984 984.301 Q32.3984 989.012 35.8996 991.654 Q39.4007 994.264 45.7664 994.264 Q52.1003 994.264 55.6014 991.654 Q59.1026 989.012 59.1026 984.301 Q59.1026 979.559 55.6014 976.949 Q52.1003 974.307 45.7664 974.307 M59.58 968.451 Q68.683 968.451 73.1071 972.493 Q77.5631 976.535 77.5631 984.874 Q77.5631 987.962 77.0857 990.699 Q76.6401 993.436 75.6852 996.014 L69.9879 996.014 Q71.3884 993.436 72.0568 990.922 Q72.7252 988.407 72.7252 985.797 Q72.7252 980.036 69.7015 977.172 Q66.7096 974.307 60.6303 974.307 L57.7339 974.307 Q60.885 976.121 62.4446 978.954 Q64.0042 981.787 64.0042 985.734 Q64.0042 992.29 59.0071 996.301 Q54.01 1000.31 45.7664 1000.31 Q37.491 1000.31 32.4939 996.301 Q27.4968 992.29 27.4968 985.734 Q27.4968 981.787 29.0564 978.954 Q30.616 976.121 33.7671 974.307 L28.3562 974.307 L28.3562 968.451 L59.58 968.451 Z" fill="#000000" fill-rule="nonzero" fill-opacity="1" /><path clip-path="url(#clip150)" d="M67.3143 941.556 Q73.68 944.038 75.6216 946.394 Q77.5631 948.749 77.5631 952.696 L77.5631 957.374 L72.6615 957.374 L72.6615 953.937 Q72.6615 951.518 71.5157 950.181 Q70.3699 948.844 66.1048 947.221 L63.4312 946.171 L28.3562 960.589 L28.3562 954.383 L56.238 943.243 L28.3562 932.103 L28.3562 925.896 L67.3143 941.556 Z" fill="#000000" fill-rule="nonzero" fill-opacity="1" /><path clip-path="url(#clip150)" d="M49.9359 897.696 L28.3562 897.696 L28.3562 891.84 L49.7131 891.84 Q54.7739 891.84 57.3202 889.866 Q59.8346 887.893 59.8346 883.946 Q59.8346 879.204 56.8109 876.466 Q53.7872 873.697 48.5673 873.697 L28.3562 873.697 L28.3562 867.841 L64.0042 867.841 L64.0042 873.697 L58.5296 873.697 Q61.7762 875.83 63.3676 878.663 Q64.9272 881.463 64.9272 885.187 Q64.9272 891.33 61.1078 894.513 Q57.2883 897.696 49.9359 897.696 M27.4968 882.959 L27.4968 882.959 Z" fill="#000000" fill-rule="nonzero" fill-opacity="1" /><path clip-path="url(#clip150)" d="M42.4881 826.145 L64.0042 826.145 L64.0042 832.002 L42.679 832.002 Q37.6183 832.002 35.1038 833.975 Q32.5894 835.949 32.5894 839.895 Q32.5894 844.638 35.6131 847.375 Q38.6368 850.112 43.8567 850.112 L64.0042 850.112 L64.0042 856.001 L28.3562 856.001 L28.3562 850.112 L33.8944 850.112 Q30.6797 848.012 29.0883 845.179 Q27.4968 842.314 27.4968 838.59 Q27.4968 832.447 31.3163 829.296 Q35.1038 826.145 42.4881 826.145 Z" fill="#000000" fill-rule="nonzero" fill-opacity="1" /><path clip-path="url(#clip150)" d="M29.7248 788.811 L35.1993 788.811 Q33.8307 791.293 33.1623 793.808 Q32.4621 796.29 32.4621 798.837 Q32.4621 804.534 36.0905 807.685 Q39.6872 810.836 46.212 810.836 Q52.7369 810.836 56.3653 807.685 Q59.9619 804.534 59.9619 798.837 Q59.9619 796.29 59.2935 793.808 Q58.5933 791.293 57.2247 788.811 L62.6355 788.811 Q63.7814 791.261 64.3543 793.903 Q64.9272 796.513 64.9272 799.473 Q64.9272 807.526 59.8664 812.268 Q54.8057 817.011 46.212 817.011 Q37.491 817.011 32.4939 812.236 Q27.4968 807.43 27.4968 799.091 Q27.4968 796.386 28.0697 793.808 Q28.6108 791.23 29.7248 788.811 Z" fill="#000000" fill-rule="nonzero" fill-opacity="1" /><path clip-path="url(#clip150)" d="M44.7161 748.134 L47.5806 748.134 L47.5806 775.061 Q53.6281 774.679 56.8109 771.432 Q59.9619 768.154 59.9619 762.329 Q59.9619 758.955 59.1344 755.804 Q58.3069 752.622 56.6518 749.502 L62.1899 749.502 Q63.5267 752.653 64.227 755.964 Q64.9272 759.274 64.9272 762.679 Q64.9272 771.209 59.9619 776.206 Q54.9967 781.172 46.5303 781.172 Q37.7774 781.172 32.6531 776.461 Q27.4968 771.719 27.4968 763.698 Q27.4968 756.505 32.1438 752.335 Q36.7589 748.134 44.7161 748.134 M42.9973 753.99 Q38.1912 754.054 35.3266 756.696 Q32.4621 759.306 32.4621 763.634 Q32.4621 768.536 35.2312 771.496 Q38.0002 774.424 43.0292 774.87 L42.9973 753.99 Z" fill="#000000" fill-rule="nonzero" fill-opacity="1" /><path clip-path="url(#clip150)" d="M33.8307 717.865 Q33.2578 718.851 33.0032 720.029 Q32.7167 721.175 32.7167 722.575 Q32.7167 727.541 35.9632 730.214 Q39.1779 732.856 45.2253 732.856 L64.0042 732.856 L64.0042 738.744 L28.3562 738.744 L28.3562 732.856 L33.8944 732.856 Q30.6479 731.01 29.0883 728.05 Q27.4968 725.09 27.4968 720.857 Q27.4968 720.252 27.5923 719.52 Q27.656 718.788 27.8151 717.897 L33.8307 717.865 Z" fill="#000000" fill-rule="nonzero" fill-opacity="1" /><path clip-path="url(#clip150)" d="M18.2347 705.929 L28.3562 705.929 L28.3562 693.866 L32.9077 693.866 L32.9077 705.929 L52.2594 705.929 Q56.6199 705.929 57.8613 704.751 Q59.1026 703.542 59.1026 699.882 L59.1026 693.866 L64.0042 693.866 L64.0042 699.882 Q64.0042 706.661 61.4897 709.239 Q58.9434 711.817 52.2594 711.817 L32.9077 711.817 L32.9077 716.114 L28.3562 716.114 L28.3562 711.817 L18.2347 711.817 L18.2347 705.929 Z" fill="#000000" fill-rule="nonzero" fill-opacity="1" /><path clip-path="url(#clip150)" d="M46.0847 669.963 Q46.0847 677.061 47.7079 679.798 Q49.3312 682.535 53.2461 682.535 Q56.3653 682.535 58.2114 680.498 Q60.0256 678.429 60.0256 674.896 Q60.0256 670.026 56.5881 667.098 Q53.1188 664.138 47.3897 664.138 L46.0847 664.138 L46.0847 669.963 M43.6657 658.282 L64.0042 658.282 L64.0042 664.138 L58.5933 664.138 Q61.8398 666.143 63.3994 669.135 Q64.9272 672.127 64.9272 676.456 Q64.9272 681.93 61.8716 685.177 Q58.7843 688.392 53.6281 688.392 Q47.6125 688.392 44.5569 684.381 Q41.5014 680.339 41.5014 672.35 L41.5014 664.138 L40.9285 664.138 Q36.8862 664.138 34.6901 666.812 Q32.4621 669.454 32.4621 674.26 Q32.4621 677.315 33.1941 680.212 Q33.9262 683.108 35.3903 685.782 L29.9795 685.782 Q28.7381 682.567 28.1334 679.543 Q27.4968 676.52 27.4968 673.655 Q27.4968 665.921 31.5072 662.101 Q35.5176 658.282 43.6657 658.282 Z" fill="#000000" fill-rule="nonzero" fill-opacity="1" /><path clip-path="url(#clip150)" d="M28.3562 646.219 L28.3562 640.362 L64.0042 640.362 L64.0042 646.219 L28.3562 646.219 M14.479 646.219 L14.479 640.362 L21.895 640.362 L21.895 646.219 L14.479 646.219 Z" fill="#000000" fill-rule="nonzero" fill-opacity="1" /><path clip-path="url(#clip150)" d="M42.4881 598.476 L64.0042 598.476 L64.0042 604.332 L42.679 604.332 Q37.6183 604.332 35.1038 606.306 Q32.5894 608.279 32.5894 612.226 Q32.5894 616.968 35.6131 619.706 Q38.6368 622.443 43.8567 622.443 L64.0042 622.443 L64.0042 628.331 L28.3562 628.331 L28.3562 622.443 L33.8944 622.443 Q30.6797 620.342 29.0883 617.509 Q27.4968 614.645 27.4968 610.921 Q27.4968 604.778 31.3163 601.627 Q35.1038 598.476 42.4881 598.476 Z" fill="#000000" fill-rule="nonzero" fill-opacity="1" /><path clip-path="url(#clip150)" d="M18.2347 581.002 L28.3562 581.002 L28.3562 568.939 L32.9077 568.939 L32.9077 581.002 L52.2594 581.002 Q56.6199 581.002 57.8613 579.824 Q59.1026 578.615 59.1026 574.955 L59.1026 568.939 L64.0042 568.939 L64.0042 574.955 Q64.0042 581.734 61.4897 584.312 Q58.9434 586.89 52.2594 586.89 L32.9077 586.89 L32.9077 591.187 L28.3562 591.187 L28.3562 586.89 L18.2347 586.89 L18.2347 581.002 Z" fill="#000000" fill-rule="nonzero" fill-opacity="1" /><path clip-path="url(#clip150)" d="M67.3143 546.404 Q73.68 548.887 75.6216 551.242 Q77.5631 553.598 77.5631 557.544 L77.5631 562.223 L72.6615 562.223 L72.6615 558.786 Q72.6615 556.367 71.5157 555.03 Q70.3699 553.693 66.1048 552.07 L63.4312 551.02 L28.3562 565.438 L28.3562 559.231 L56.238 548.091 L28.3562 536.951 L28.3562 530.745 L67.3143 546.404 Z" fill="#000000" fill-rule="nonzero" fill-opacity="1" /><path clip-path="url(#clip150)" d="M14.5426 487.872 Q21.8632 492.137 29.0246 494.206 Q36.186 496.275 43.5384 496.275 Q50.8908 496.275 58.1159 494.206 Q65.3091 492.105 72.5979 487.872 L72.5979 492.964 Q65.1182 497.739 57.8931 500.126 Q50.668 502.481 43.5384 502.481 Q36.4406 502.481 29.2474 500.126 Q22.0542 497.77 14.5426 492.964 L14.5426 487.872 Z" fill="#000000" fill-rule="nonzero" fill-opacity="1" /><path clip-path="url(#clip150)" d="M43.0928 435.259 Q43.0928 438.028 45.4481 439.62 Q47.8034 441.179 52.0048 441.179 Q56.1425 441.179 58.5296 439.62 Q60.885 438.028 60.885 435.259 Q60.885 432.554 58.5296 430.994 Q56.1425 429.403 52.0048 429.403 Q47.8353 429.403 45.48 430.994 Q43.0928 432.554 43.0928 435.259 M39.0506 435.259 Q39.0506 430.23 42.5517 427.27 Q46.0529 424.31 52.0048 424.31 Q57.9567 424.31 61.4579 427.302 Q64.9272 430.262 64.9272 435.259 Q64.9272 440.352 61.4579 443.312 Q57.9567 446.272 52.0048 446.272 Q46.021 446.272 42.5517 443.312 Q39.0506 440.32 39.0506 435.259 M19.667 468.106 Q19.667 470.844 22.0542 472.435 Q24.4095 473.995 28.5472 473.995 Q32.7485 473.995 35.1038 472.435 Q37.4592 470.875 37.4592 468.106 Q37.4592 465.337 35.1038 463.778 Q32.7485 462.186 28.5472 462.186 Q24.4413 462.186 22.0542 463.778 Q19.667 465.369 19.667 468.106 M15.6248 439.365 L15.6248 434.273 L64.9272 464 L64.9272 469.093 L15.6248 439.365 M15.6248 468.106 Q15.6248 463.077 19.1259 460.085 Q22.5952 457.094 28.5472 457.094 Q34.5628 457.094 38.0321 460.085 Q41.5014 463.046 41.5014 468.106 Q41.5014 473.167 38.0321 476.127 Q34.5309 479.055 28.5472 479.055 Q22.6271 479.055 19.1259 476.095 Q15.6248 473.135 15.6248 468.106 Z" fill="#000000" fill-rule="nonzero" fill-opacity="1" /><path clip-path="url(#clip150)" d="M14.5426 415.494 L14.5426 410.401 Q22.0542 405.627 29.2474 403.272 Q36.4406 400.884 43.5384 400.884 Q50.668 400.884 57.8931 403.272 Q65.1182 405.627 72.5979 410.401 L72.5979 415.494 Q65.3091 411.261 58.1159 409.192 Q50.8908 407.091 43.5384 407.091 Q36.186 407.091 29.0246 409.192 Q21.8632 411.261 14.5426 415.494 Z" fill="#000000" fill-rule="nonzero" fill-opacity="1" /><path clip-path="url(#clip150)" d="M772.746 18.8205 L772.746 41.5461 L783.035 41.5461 Q788.747 41.5461 791.866 38.5889 Q794.986 35.6318 794.986 30.163 Q794.986 24.7348 791.866 21.7777 Q788.747 18.8205 783.035 18.8205 L772.746 18.8205 M764.563 12.096 L783.035 12.096 Q793.203 12.096 798.388 16.714 Q803.614 21.2916 803.614 30.163 Q803.614 39.1155 798.388 43.6931 Q793.203 48.2706 783.035 48.2706 L772.746 48.2706 L772.746 72.576 L764.563 72.576 L764.563 12.096 Z" fill="#000000" fill-rule="nonzero" fill-opacity="1" /><path clip-path="url(#clip150)" d="M812.04 54.671 L812.04 27.2059 L819.494 27.2059 L819.494 54.3874 Q819.494 60.8284 822.005 64.0691 Q824.517 67.2693 829.54 67.2693 Q835.576 67.2693 839.059 63.421 Q842.584 59.5726 842.584 52.9291 L842.584 27.2059 L850.037 27.2059 L850.037 72.576 L842.584 72.576 L842.584 65.6084 Q839.87 69.7404 836.264 71.7658 Q832.7 73.7508 827.96 73.7508 Q820.142 73.7508 816.091 68.8897 Q812.04 64.0286 812.04 54.671 M830.796 26.1121 L830.796 26.1121 Z" fill="#000000" fill-rule="nonzero" fill-opacity="1" /><path clip-path="url(#clip150)" d="M865.39 9.54393 L872.844 9.54393 L872.844 72.576 L865.39 72.576 L865.39 9.54393 Z" fill="#000000" fill-rule="nonzero" fill-opacity="1" /><path clip-path="url(#clip150)" d="M917.363 28.5427 L917.363 35.5912 Q914.204 33.9709 910.801 33.1607 Q907.398 32.3505 903.752 32.3505 Q898.203 32.3505 895.408 34.0519 Q892.653 35.7533 892.653 39.156 Q892.653 41.7486 894.638 43.2475 Q896.623 44.7058 902.618 46.0426 L905.17 46.6097 Q913.11 48.3111 916.432 51.4303 Q919.794 54.509 919.794 60.0587 Q919.794 66.3781 914.771 70.0644 Q909.788 73.7508 901.038 73.7508 Q897.392 73.7508 893.423 73.0216 Q889.493 72.3329 885.118 70.9151 L885.118 63.2184 Q889.25 65.3654 893.261 66.4591 Q897.271 67.5124 901.2 67.5124 Q906.466 67.5124 909.302 65.73 Q912.138 63.9071 912.138 60.6258 Q912.138 57.5877 910.072 55.9673 Q908.046 54.3469 901.119 52.8481 L898.527 52.2405 Q891.6 50.7821 888.521 47.7845 Q885.442 44.7463 885.442 39.4801 Q885.442 33.0797 889.979 29.5959 Q894.516 26.1121 902.861 26.1121 Q906.993 26.1121 910.639 26.7198 Q914.285 27.3274 917.363 28.5427 Z" fill="#000000" fill-rule="nonzero" fill-opacity="1" /><path clip-path="url(#clip150)" d="M970.471 48.0275 L970.471 51.6733 L936.2 51.6733 Q936.686 59.3701 940.818 63.421 Q944.991 67.4314 952.404 67.4314 Q956.698 67.4314 960.708 66.3781 Q964.759 65.3249 968.729 63.2184 L968.729 70.267 Q964.718 71.9684 960.506 72.8596 Q956.293 73.7508 951.958 73.7508 Q941.102 73.7508 934.742 67.4314 Q928.422 61.1119 928.422 50.3365 Q928.422 39.1965 934.418 32.6746 Q940.454 26.1121 950.662 26.1121 Q959.817 26.1121 965.124 32.0264 Q970.471 37.9003 970.471 48.0275 M963.017 45.84 Q962.936 39.7232 959.574 36.0774 Q956.252 32.4315 950.743 32.4315 Q944.504 32.4315 940.737 35.9558 Q937.01 39.4801 936.443 45.8805 L963.017 45.84 Z" fill="#000000" fill-rule="nonzero" fill-opacity="1" /><path clip-path="url(#clip150)" d="M1009.4 12.096 L1047.64 12.096 L1047.64 18.9825 L1017.58 18.9825 L1017.58 36.8875 L1046.38 36.8875 L1046.38 43.7741 L1017.58 43.7741 L1017.58 65.6895 L1048.37 65.6895 L1048.37 72.576 L1009.4 72.576 L1009.4 12.096 Z" fill="#000000" fill-rule="nonzero" fill-opacity="1" /><path clip-path="url(#clip150)" d="M1099.21 45.1919 L1099.21 72.576 L1091.75 72.576 L1091.75 45.4349 Q1091.75 38.994 1089.24 35.7938 Q1086.73 32.5936 1081.71 32.5936 Q1075.67 32.5936 1072.19 36.4419 Q1068.71 40.2903 1068.71 46.9338 L1068.71 72.576 L1061.21 72.576 L1061.21 27.2059 L1068.71 27.2059 L1068.71 34.2544 Q1071.38 30.163 1074.98 28.1376 Q1078.63 26.1121 1083.37 26.1121 Q1091.19 26.1121 1095.2 30.9732 Q1099.21 35.7938 1099.21 45.1919 Z" fill="#000000" fill-rule="nonzero" fill-opacity="1" /><path clip-path="url(#clip150)" d="M1152.88 48.0275 L1152.88 51.6733 L1118.61 51.6733 Q1119.1 59.3701 1123.23 63.421 Q1127.4 67.4314 1134.82 67.4314 Q1139.11 67.4314 1143.12 66.3781 Q1147.17 65.3249 1151.14 63.2184 L1151.14 70.267 Q1147.13 71.9684 1142.92 72.8596 Q1138.7 73.7508 1134.37 73.7508 Q1123.51 73.7508 1117.15 67.4314 Q1110.83 61.1119 1110.83 50.3365 Q1110.83 39.1965 1116.83 32.6746 Q1122.87 26.1121 1133.07 26.1121 Q1142.23 26.1121 1147.54 32.0264 Q1152.88 37.9003 1152.88 48.0275 M1145.43 45.84 Q1145.35 39.7232 1141.99 36.0774 Q1138.66 32.4315 1133.16 32.4315 Q1126.92 32.4315 1123.15 35.9558 Q1119.42 39.4801 1118.86 45.8805 L1145.43 45.84 Z" fill="#000000" fill-rule="nonzero" fill-opacity="1" /><path clip-path="url(#clip150)" d="M1191.41 34.1734 Q1190.15 33.4443 1188.65 33.1202 Q1187.19 32.7556 1185.41 32.7556 Q1179.09 32.7556 1175.69 36.8875 Q1172.33 40.9789 1172.33 48.6757 L1172.33 72.576 L1164.83 72.576 L1164.83 27.2059 L1172.33 27.2059 L1172.33 34.2544 Q1174.68 30.1225 1178.44 28.1376 Q1182.21 26.1121 1187.6 26.1121 Q1188.37 26.1121 1189.3 26.2337 Q1190.23 26.3147 1191.37 26.5172 L1191.41 34.1734 Z" fill="#000000" fill-rule="nonzero" fill-opacity="1" /><path clip-path="url(#clip150)" d="M1227.62 49.3643 Q1227.62 41.2625 1224.26 36.8065 Q1220.94 32.3505 1214.9 32.3505 Q1208.91 32.3505 1205.54 36.8065 Q1202.22 41.2625 1202.22 49.3643 Q1202.22 57.4256 1205.54 61.8816 Q1208.91 66.3376 1214.9 66.3376 Q1220.94 66.3376 1224.26 61.8816 Q1227.62 57.4256 1227.62 49.3643 M1235.08 66.9452 Q1235.08 78.5308 1229.93 84.1616 Q1224.79 89.8329 1214.17 89.8329 Q1210.24 89.8329 1206.76 89.2252 Q1203.28 88.6581 1199.99 87.4428 L1199.99 80.1917 Q1203.28 81.9741 1206.48 82.8248 Q1209.68 83.6755 1213 83.6755 Q1220.33 83.6755 1223.98 79.8271 Q1227.62 76.0193 1227.62 68.282 L1227.62 64.5957 Q1225.31 68.6061 1221.71 70.5911 Q1218.1 72.576 1213.08 72.576 Q1204.73 72.576 1199.63 66.2161 Q1194.53 59.8562 1194.53 49.3643 Q1194.53 38.832 1199.63 32.472 Q1204.73 26.1121 1213.08 26.1121 Q1218.1 26.1121 1221.71 28.0971 Q1225.31 30.082 1227.62 34.0924 L1227.62 27.2059 L1235.08 27.2059 L1235.08 66.9452 Z" fill="#000000" fill-rule="nonzero" fill-opacity="1" /><path clip-path="url(#clip150)" d="M1269.31 76.7889 Q1266.15 84.8907 1263.15 87.3618 Q1260.15 89.8329 1255.13 89.8329 L1249.17 89.8329 L1249.17 83.5945 L1253.55 83.5945 Q1256.63 83.5945 1258.33 82.1361 Q1260.03 80.6778 1262.1 75.2496 L1263.43 71.8468 L1245.08 27.2059 L1252.98 27.2059 L1267.16 62.6918 L1281.34 27.2059 L1289.24 27.2059 L1269.31 76.7889 Z" fill="#000000" fill-rule="nonzero" fill-opacity="1" /><path clip-path="url(#clip150)" d="M1325.13 54.671 L1325.13 27.2059 L1332.58 27.2059 L1332.58 54.3874 Q1332.58 60.8284 1335.09 64.0691 Q1337.6 67.2693 1342.63 67.2693 Q1348.66 67.2693 1352.15 63.421 Q1355.67 59.5726 1355.67 52.9291 L1355.67 27.2059 L1363.12 27.2059 L1363.12 72.576 L1355.67 72.576 L1355.67 65.6084 Q1352.96 69.7404 1349.35 71.7658 Q1345.79 73.7508 1341.05 73.7508 Q1333.23 73.7508 1329.18 68.8897 Q1325.13 64.0286 1325.13 54.671 M1343.88 26.1121 L1343.88 26.1121 Z" fill="#000000" fill-rule="nonzero" fill-opacity="1" /><path clip-path="url(#clip150)" d="M1416.19 45.1919 L1416.19 72.576 L1408.74 72.576 L1408.74 45.4349 Q1408.74 38.994 1406.23 35.7938 Q1403.71 32.5936 1398.69 32.5936 Q1392.66 32.5936 1389.17 36.4419 Q1385.69 40.2903 1385.69 46.9338 L1385.69 72.576 L1378.19 72.576 L1378.19 27.2059 L1385.69 27.2059 L1385.69 34.2544 Q1388.36 30.163 1391.97 28.1376 Q1395.61 26.1121 1400.35 26.1121 Q1408.17 26.1121 1412.18 30.9732 Q1416.19 35.7938 1416.19 45.1919 Z" fill="#000000" fill-rule="nonzero" fill-opacity="1" /><path clip-path="url(#clip150)" d="M1463.71 28.9478 L1463.71 35.9153 Q1460.55 34.1734 1457.35 33.3227 Q1454.19 32.4315 1450.95 32.4315 Q1443.7 32.4315 1439.69 37.0496 Q1435.68 41.6271 1435.68 49.9314 Q1435.68 58.2358 1439.69 62.8538 Q1443.7 67.4314 1450.95 67.4314 Q1454.19 67.4314 1457.35 66.5807 Q1460.55 65.6895 1463.71 63.9476 L1463.71 70.8341 Q1460.59 72.2924 1457.23 73.0216 Q1453.91 73.7508 1450.14 73.7508 Q1439.89 73.7508 1433.85 67.3098 Q1427.82 60.8689 1427.82 49.9314 Q1427.82 38.832 1433.89 32.472 Q1440.01 26.1121 1450.62 26.1121 Q1454.07 26.1121 1457.35 26.8413 Q1460.63 27.5299 1463.71 28.9478 Z" fill="#000000" fill-rule="nonzero" fill-opacity="1" /><path clip-path="url(#clip150)" d="M1515.48 48.0275 L1515.48 51.6733 L1481.21 51.6733 Q1481.69 59.3701 1485.83 63.421 Q1490 67.4314 1497.41 67.4314 Q1501.71 67.4314 1505.72 66.3781 Q1509.77 65.3249 1513.74 63.2184 L1513.74 70.267 Q1509.73 71.9684 1505.51 72.8596 Q1501.3 73.7508 1496.97 73.7508 Q1486.11 73.7508 1479.75 67.4314 Q1473.43 61.1119 1473.43 50.3365 Q1473.43 39.1965 1479.43 32.6746 Q1485.46 26.1121 1495.67 26.1121 Q1504.83 26.1121 1510.13 32.0264 Q1515.48 37.9003 1515.48 48.0275 M1508.03 45.84 Q1507.94 39.7232 1504.58 36.0774 Q1501.26 32.4315 1495.75 32.4315 Q1489.51 32.4315 1485.75 35.9558 Q1482.02 39.4801 1481.45 45.8805 L1508.03 45.84 Z" fill="#000000" fill-rule="nonzero" fill-opacity="1" /><path clip-path="url(#clip150)" d="M1554 34.1734 Q1552.75 33.4443 1551.25 33.1202 Q1549.79 32.7556 1548.01 32.7556 Q1541.69 32.7556 1538.29 36.8875 Q1534.92 40.9789 1534.92 48.6757 L1534.92 72.576 L1527.43 72.576 L1527.43 27.2059 L1534.92 27.2059 L1534.92 34.2544 Q1537.27 30.1225 1541.04 28.1376 Q1544.81 26.1121 1550.2 26.1121 Q1550.97 26.1121 1551.9 26.2337 Q1552.83 26.3147 1553.96 26.5172 L1554 34.1734 Z" fill="#000000" fill-rule="nonzero" fill-opacity="1" /><path clip-path="url(#clip150)" d="M1569.19 14.324 L1569.19 27.2059 L1584.55 27.2059 L1584.55 32.9987 L1569.19 32.9987 L1569.19 57.6282 Q1569.19 63.1779 1570.69 64.7578 Q1572.23 66.3376 1576.89 66.3376 L1584.55 66.3376 L1584.55 72.576 L1576.89 72.576 Q1568.26 72.576 1564.98 69.3758 Q1561.7 66.1351 1561.7 57.6282 L1561.7 32.9987 L1556.23 32.9987 L1556.23 27.2059 L1561.7 27.2059 L1561.7 14.324 L1569.19 14.324 Z" fill="#000000" fill-rule="nonzero" fill-opacity="1" /><path clip-path="url(#clip150)" d="M1614.97 49.7694 Q1605.94 49.7694 1602.45 51.8354 Q1598.97 53.9013 1598.97 58.8839 Q1598.97 62.8538 1601.56 65.2034 Q1604.19 67.5124 1608.69 67.5124 Q1614.89 67.5124 1618.62 63.1374 Q1622.38 58.7219 1622.38 51.4303 L1622.38 49.7694 L1614.97 49.7694 M1629.84 46.6907 L1629.84 72.576 L1622.38 72.576 L1622.38 65.6895 Q1619.83 69.8214 1616.02 71.8063 Q1612.22 73.7508 1606.71 73.7508 Q1599.74 73.7508 1595.61 69.8619 Q1591.51 65.9325 1591.51 59.3701 Q1591.51 51.7138 1596.62 47.825 Q1601.76 43.9361 1611.93 43.9361 L1622.38 43.9361 L1622.38 43.2069 Q1622.38 38.0623 1618.98 35.2672 Q1615.62 32.4315 1609.5 32.4315 Q1605.61 32.4315 1601.93 33.3632 Q1598.24 34.295 1594.84 36.1584 L1594.84 29.2718 Q1598.93 27.692 1602.78 26.9223 Q1606.62 26.1121 1610.27 26.1121 Q1620.11 26.1121 1624.98 31.2163 Q1629.84 36.3204 1629.84 46.6907 Z" fill="#000000" fill-rule="nonzero" fill-opacity="1" /><path clip-path="url(#clip150)" d="M1645.19 27.2059 L1652.64 27.2059 L1652.64 72.576 L1645.19 72.576 L1645.19 27.2059 M1645.19 9.54393 L1652.64 9.54393 L1652.64 18.9825 L1645.19 18.9825 L1645.19 9.54393 Z" fill="#000000" fill-rule="nonzero" fill-opacity="1" /><path clip-path="url(#clip150)" d="M1705.95 45.1919 L1705.95 72.576 L1698.5 72.576 L1698.5 45.4349 Q1698.5 38.994 1695.99 35.7938 Q1693.48 32.5936 1688.45 32.5936 Q1682.42 32.5936 1678.93 36.4419 Q1675.45 40.2903 1675.45 46.9338 L1675.45 72.576 L1667.96 72.576 L1667.96 27.2059 L1675.45 27.2059 L1675.45 34.2544 Q1678.12 30.163 1681.73 28.1376 Q1685.37 26.1121 1690.11 26.1121 Q1697.93 26.1121 1701.94 30.9732 Q1705.95 35.7938 1705.95 45.1919 Z" fill="#000000" fill-rule="nonzero" fill-opacity="1" /><path clip-path="url(#clip150)" d="M1728.19 14.324 L1728.19 27.2059 L1743.55 27.2059 L1743.55 32.9987 L1728.19 32.9987 L1728.19 57.6282 Q1728.19 63.1779 1729.69 64.7578 Q1731.23 66.3376 1735.89 66.3376 L1743.55 66.3376 L1743.55 72.576 L1735.89 72.576 Q1727.26 72.576 1723.98 69.3758 Q1720.7 66.1351 1720.7 57.6282 L1720.7 32.9987 L1715.23 32.9987 L1715.23 27.2059 L1720.7 27.2059 L1720.7 14.324 L1728.19 14.324 Z" fill="#000000" fill-rule="nonzero" fill-opacity="1" /><path clip-path="url(#clip150)" d="M1772.23 76.7889 Q1769.07 84.8907 1766.07 87.3618 Q1763.07 89.8329 1758.05 89.8329 L1752.09 89.8329 L1752.09 83.5945 L1756.47 83.5945 Q1759.55 83.5945 1761.25 82.1361 Q1762.95 80.6778 1765.02 75.2496 L1766.35 71.8468 L1748 27.2059 L1755.9 27.2059 L1770.08 62.6918 L1784.26 27.2059 L1792.16 27.2059 L1772.23 76.7889 Z" fill="#000000" fill-rule="nonzero" fill-opacity="1" /><polyline clip-path="url(#clip152)" style="stroke:#009af9; stroke-linecap:round; stroke-linejoin:round; stroke-width:12; stroke-opacity:1; fill:none" points="274.914,160.256 285.05,321.081 295.186,415.141 305.322,481.869 315.458,533.621 325.593,575.901 335.729,611.645 345.865,642.604 356.001,669.91 366.137,694.334 376.272,716.427 386.408,736.594 396.544,755.145 406.68,772.319 416.816,788.306 426.951,803.261 437.087,817.307 447.223,830.549 457.359,843.075 467.495,854.956 477.631,866.258 487.766,877.033 497.902,887.328 508.038,897.184 518.174,906.637 528.31,915.719 538.445,924.458 548.581,932.878 558.717,941.002 568.853,948.85 578.989,956.441 589.124,963.79 599.26,970.912 609.396,977.822 619.532,984.53 629.668,991.05 639.804,997.39 649.939,1003.56 660.075,1009.57 670.211,1015.43 680.347,1021.14 690.483,1026.72 700.618,1032.16 710.754,1037.48 720.89,1042.67 731.026,1047.76 741.162,1052.73 751.297,1057.6 761.433,1062.37 771.569,1067.04 781.705,1071.62 791.841,1076.11 801.977,1080.51 812.112,1084.83 822.248,1089.07 832.384,1093.24 842.52,1097.33 852.656,1101.35 862.791,1105.3 872.927,1109.19 883.063,1113 893.199,1116.76 903.335,1120.46 913.47,1124.1 923.606,1127.68 933.742,1131.21 943.878,1134.68 954.014,1138.1 964.15,1141.47 974.285,1144.8 984.421,1148.07 994.557,1151.3 1004.69,1154.49 1014.83,1157.63 1024.96,1160.73 1035.1,1163.79 1045.24,1166.81 1055.37,1169.78 1065.51,1172.72 1075.64,1175.63 1085.78,1178.5 1095.92,1181.33 1106.05,1184.12 1116.19,1186.89 1126.32,1189.62 1136.46,1192.32 1146.59,1194.99 1156.73,1197.62 1166.87,1200.23 1177,1202.81 1187.14,1205.36 1197.27,1207.88 1207.41,1210.37 1217.54,1212.84 1227.68,1215.28 1237.82,1217.69 1247.95,1220.08 1258.09,1222.45 1268.22,1224.79 1278.36,1227.1 1288.5,1229.4 1298.63,1231.67 1308.77,1233.92 1318.9,1236.14 1329.04,1238.35 1339.17,1240.53 1349.31,1242.7 1359.45,1244.84 1369.58,1246.96 1379.72,1249.07 1389.85,1251.15 1399.99,1253.22 1410.13,1255.27 1420.26,1257.3 1430.4,1259.31 1440.53,1261.3 1450.67,1263.28 1460.8,1265.24 1470.94,1267.18 1481.08,1269.11 1491.21,1271.02 1501.35,1272.91 1511.48,1274.79 1521.62,1276.66 1531.76,1278.5 1541.89,1280.34 1552.03,1282.16 1562.16,1283.96 1572.3,1285.75 1582.43,1287.53 1592.57,1289.29 1602.71,1291.04 1612.84,1292.78 1622.98,1294.5 1633.11,1296.21 1643.25,1297.91 1653.38,1299.59 1663.52,1301.27 1673.66,1302.93 1683.79,1304.57 1693.93,1306.21 1704.06,1307.83 1714.2,1309.45 1724.34,1311.05 1734.47,1312.64 1744.61,1314.22 1754.74,1315.79 1764.88,1317.35 1775.01,1318.89 1785.15,1320.43 1795.29,1321.96 1805.42,1323.47 1815.56,1324.98 1825.69,1326.47 1835.83,1327.96 1845.97,1329.44 1856.1,1330.91 1866.24,1332.36 1876.37,1333.81 1886.51,1335.25 1896.64,1336.68 1906.78,1338.1 1916.92,1339.52 1927.05,1340.92 1937.19,1342.31 1947.32,1343.7 1957.46,1345.08 1967.6,1346.45 1977.73,1347.81 1987.87,1349.16 1998,1350.51 2008.14,1351.85 2018.27,1353.17 2028.41,1354.5 2038.55,1355.81 2048.68,1357.12 2058.82,1358.42 2068.95,1359.71 2079.09,1360.99 2089.22,1362.27 2099.36,1363.54 2109.5,1364.8 2119.63,1366.06 2129.77,1367.31 2139.9,1368.55 2150.04,1369.78 2160.18,1371.01 2170.31,1372.23 2180.45,1373.45 2190.58,1374.66 2200.72,1375.86 2210.85,1377.05 2220.99,1378.24 2231.13,1379.43 2241.26,1380.6 2251.4,1381.77 2261.53,1382.94 2271.67,1384.1 2281.81,1385.25 2291.94,1386.4 "/>
</svg>
