<?xml version="1.0" encoding="utf-8"?>
<svg xmlns="http://www.w3.org/2000/svg" xmlns:xlink="http://www.w3.org/1999/xlink" width="600" height="400" viewBox="0 0 2400 1600">
<defs>
  <clipPath id="clip700">
    <rect x="0" y="0" width="2400" height="1600"/>
  </clipPath>
</defs>
<path clip-path="url(#clip700)" d="M0 1600 L2400 1600 L2400 0 L0 0  Z" fill="#ffffff" fill-rule="evenodd" fill-opacity="1"/>
<defs>
  <clipPath id="clip701">
    <rect x="480" y="0" width="1681" height="1600"/>
  </clipPath>
</defs>
<path clip-path="url(#clip700)" d="M247.459 1423.18 L2352.76 1423.18 L2352.76 123.472 L247.459 123.472  Z" fill="#ffffff" fill-rule="evenodd" fill-opacity="1"/>
<defs>
  <clipPath id="clip702">
    <rect x="247" y="123" width="2106" height="1301"/>
  </clipPath>
</defs>
<polyline clip-path="url(#clip702)" style="stroke:#000000; stroke-linecap:round; stroke-linejoin:round; stroke-width:2; stroke-opacity:0.1; fill:none" points="531.605,1423.18 531.605,123.472 "/>
<polyline clip-path="url(#clip702)" style="stroke:#000000; stroke-linecap:round; stroke-linejoin:round; stroke-width:2; stroke-opacity:0.1; fill:none" points="970.912,1423.18 970.912,123.472 "/>
<polyline clip-path="url(#clip702)" style="stroke:#000000; stroke-linecap:round; stroke-linejoin:round; stroke-width:2; stroke-opacity:0.1; fill:none" points="1410.22,1423.18 1410.22,123.472 "/>
<polyline clip-path="url(#clip702)" style="stroke:#000000; stroke-linecap:round; stroke-linejoin:round; stroke-width:2; stroke-opacity:0.1; fill:none" points="1849.53,1423.18 1849.53,123.472 "/>
<polyline clip-path="url(#clip702)" style="stroke:#000000; stroke-linecap:round; stroke-linejoin:round; stroke-width:2; stroke-opacity:0.1; fill:none" points="2288.84,1423.18 2288.84,123.472 "/>
<polyline clip-path="url(#clip702)" style="stroke:#000000; stroke-linecap:round; stroke-linejoin:round; stroke-width:2; stroke-opacity:0.1; fill:none" points="247.459,1211.55 2352.76,1211.55 "/>
<polyline clip-path="url(#clip702)" style="stroke:#000000; stroke-linecap:round; stroke-linejoin:round; stroke-width:2; stroke-opacity:0.1; fill:none" points="247.459,964.055 2352.76,964.055 "/>
<polyline clip-path="url(#clip702)" style="stroke:#000000; stroke-linecap:round; stroke-linejoin:round; stroke-width:2; stroke-opacity:0.1; fill:none" points="247.459,716.562 2352.76,716.562 "/>
<polyline clip-path="url(#clip702)" style="stroke:#000000; stroke-linecap:round; stroke-linejoin:round; stroke-width:2; stroke-opacity:0.1; fill:none" points="247.459,469.069 2352.76,469.069 "/>
<polyline clip-path="url(#clip702)" style="stroke:#000000; stroke-linecap:round; stroke-linejoin:round; stroke-width:2; stroke-opacity:0.1; fill:none" points="247.459,221.576 2352.76,221.576 "/>
<polyline clip-path="url(#clip700)" style="stroke:#000000; stroke-linecap:round; stroke-linejoin:round; stroke-width:4; stroke-opacity:1; fill:none" points="247.459,1423.18 2352.76,1423.18 "/>
<polyline clip-path="url(#clip700)" style="stroke:#000000; stroke-linecap:round; stroke-linejoin:round; stroke-width:4; stroke-opacity:1; fill:none" points="531.605,1423.18 531.605,1404.28 "/>
<polyline clip-path="url(#clip700)" style="stroke:#000000; stroke-linecap:round; stroke-linejoin:round; stroke-width:4; stroke-opacity:1; fill:none" points="970.912,1423.18 970.912,1404.28 "/>
<polyline clip-path="url(#clip700)" style="stroke:#000000; stroke-linecap:round; stroke-linejoin:round; stroke-width:4; stroke-opacity:1; fill:none" points="1410.22,1423.18 1410.22,1404.28 "/>
<polyline clip-path="url(#clip700)" style="stroke:#000000; stroke-linecap:round; stroke-linejoin:round; stroke-width:4; stroke-opacity:1; fill:none" points="1849.53,1423.18 1849.53,1404.28 "/>
<polyline clip-path="url(#clip700)" style="stroke:#000000; stroke-linecap:round; stroke-linejoin:round; stroke-width:4; stroke-opacity:1; fill:none" points="2288.84,1423.18 2288.84,1404.28 "/>
<path clip-path="url(#clip700)" d="M506.304 1451.02 L524.66 1451.02 L524.66 1454.96 L510.586 1454.96 L510.586 1463.43 Q511.605 1463.08 512.623 1462.92 Q513.642 1462.73 514.66 1462.73 Q520.447 1462.73 523.827 1465.9 Q527.207 1469.08 527.207 1474.49 Q527.207 1480.07 523.734 1483.17 Q520.262 1486.25 513.943 1486.25 Q511.767 1486.25 509.498 1485.88 Q507.253 1485.51 504.846 1484.77 L504.846 1480.07 Q506.929 1481.2 509.151 1481.76 Q511.373 1482.32 513.85 1482.32 Q517.855 1482.32 520.193 1480.21 Q522.531 1478.1 522.531 1474.49 Q522.531 1470.88 520.193 1468.77 Q517.855 1466.67 513.85 1466.67 Q511.975 1466.67 510.1 1467.08 Q508.248 1467.5 506.304 1468.38 L506.304 1451.02 Z" fill="#000000" fill-rule="nonzero" fill-opacity="1" /><path clip-path="url(#clip700)" d="M546.42 1454.1 Q542.808 1454.1 540.98 1457.66 Q539.174 1461.2 539.174 1468.33 Q539.174 1475.44 540.98 1479.01 Q542.808 1482.55 546.42 1482.55 Q550.054 1482.55 551.859 1479.01 Q553.688 1475.44 553.688 1468.33 Q553.688 1461.2 551.859 1457.66 Q550.054 1454.1 546.42 1454.1 M546.42 1450.39 Q552.23 1450.39 555.285 1455 Q558.364 1459.58 558.364 1468.33 Q558.364 1477.06 555.285 1481.67 Q552.23 1486.25 546.42 1486.25 Q540.609 1486.25 537.531 1481.67 Q534.475 1477.06 534.475 1468.33 Q534.475 1459.58 537.531 1455 Q540.609 1450.39 546.42 1450.39 Z" fill="#000000" fill-rule="nonzero" fill-opacity="1" /><path clip-path="url(#clip700)" d="M930.519 1481.64 L938.158 1481.64 L938.158 1455.28 L929.848 1456.95 L929.848 1452.69 L938.112 1451.02 L942.788 1451.02 L942.788 1481.64 L950.426 1481.64 L950.426 1485.58 L930.519 1485.58 L930.519 1481.64 Z" fill="#000000" fill-rule="nonzero" fill-opacity="1" /><path clip-path="url(#clip700)" d="M969.871 1454.1 Q966.26 1454.1 964.431 1457.66 Q962.625 1461.2 962.625 1468.33 Q962.625 1475.44 964.431 1479.01 Q966.26 1482.55 969.871 1482.55 Q973.505 1482.55 975.311 1479.01 Q977.139 1475.44 977.139 1468.33 Q977.139 1461.2 975.311 1457.66 Q973.505 1454.1 969.871 1454.1 M969.871 1450.39 Q975.681 1450.39 978.736 1455 Q981.815 1459.58 981.815 1468.33 Q981.815 1477.06 978.736 1481.67 Q975.681 1486.25 969.871 1486.25 Q964.061 1486.25 960.982 1481.67 Q957.926 1477.06 957.926 1468.33 Q957.926 1459.58 960.982 1455 Q964.061 1450.39 969.871 1450.39 Z" fill="#000000" fill-rule="nonzero" fill-opacity="1" /><path clip-path="url(#clip700)" d="M1000.03 1454.1 Q996.422 1454.1 994.593 1457.66 Q992.787 1461.2 992.787 1468.33 Q992.787 1475.44 994.593 1479.01 Q996.422 1482.55 1000.03 1482.55 Q1003.67 1482.55 1005.47 1479.01 Q1007.3 1475.44 1007.3 1468.33 Q1007.3 1461.2 1005.47 1457.66 Q1003.67 1454.1 1000.03 1454.1 M1000.03 1450.39 Q1005.84 1450.39 1008.9 1455 Q1011.98 1459.58 1011.98 1468.33 Q1011.98 1477.06 1008.9 1481.67 Q1005.84 1486.25 1000.03 1486.25 Q994.222 1486.25 991.144 1481.67 Q988.088 1477.06 988.088 1468.33 Q988.088 1459.58 991.144 1455 Q994.222 1450.39 1000.03 1450.39 Z" fill="#000000" fill-rule="nonzero" fill-opacity="1" /><path clip-path="url(#clip700)" d="M1369.83 1481.64 L1377.47 1481.64 L1377.47 1455.28 L1369.16 1456.95 L1369.16 1452.69 L1377.42 1451.02 L1382.1 1451.02 L1382.1 1481.64 L1389.73 1481.64 L1389.73 1485.58 L1369.83 1485.58 L1369.83 1481.64 Z" fill="#000000" fill-rule="nonzero" fill-opacity="1" /><path clip-path="url(#clip700)" d="M1399.22 1451.02 L1417.58 1451.02 L1417.58 1454.96 L1403.51 1454.96 L1403.51 1463.43 Q1404.53 1463.08 1405.54 1462.92 Q1406.56 1462.73 1407.58 1462.73 Q1413.37 1462.73 1416.75 1465.9 Q1420.13 1469.08 1420.13 1474.49 Q1420.13 1480.07 1416.66 1483.17 Q1413.18 1486.25 1406.86 1486.25 Q1404.69 1486.25 1402.42 1485.88 Q1400.17 1485.51 1397.77 1484.77 L1397.77 1480.07 Q1399.85 1481.2 1402.07 1481.76 Q1404.29 1482.32 1406.77 1482.32 Q1410.78 1482.32 1413.11 1480.21 Q1415.45 1478.1 1415.45 1474.49 Q1415.45 1470.88 1413.11 1468.77 Q1410.78 1466.67 1406.77 1466.67 Q1404.9 1466.67 1403.02 1467.08 Q1401.17 1467.5 1399.22 1468.38 L1399.22 1451.02 Z" fill="#000000" fill-rule="nonzero" fill-opacity="1" /><path clip-path="url(#clip700)" d="M1439.34 1454.1 Q1435.73 1454.1 1433.9 1457.66 Q1432.09 1461.2 1432.09 1468.33 Q1432.09 1475.44 1433.9 1479.01 Q1435.73 1482.55 1439.34 1482.55 Q1442.97 1482.55 1444.78 1479.01 Q1446.61 1475.44 1446.61 1468.33 Q1446.61 1461.2 1444.78 1457.66 Q1442.97 1454.1 1439.34 1454.1 M1439.34 1450.39 Q1445.15 1450.39 1448.21 1455 Q1451.28 1459.58 1451.28 1468.33 Q1451.28 1477.06 1448.21 1481.67 Q1445.15 1486.25 1439.34 1486.25 Q1433.53 1486.25 1430.45 1481.67 Q1427.4 1477.06 1427.4 1468.33 Q1427.4 1459.58 1430.45 1455 Q1433.53 1450.39 1439.34 1450.39 Z" fill="#000000" fill-rule="nonzero" fill-opacity="1" /><path clip-path="url(#clip700)" d="M1813.22 1481.64 L1829.54 1481.64 L1829.54 1485.58 L1807.6 1485.58 L1807.6 1481.64 Q1810.26 1478.89 1814.84 1474.26 Q1819.45 1469.61 1820.63 1468.27 Q1822.87 1465.74 1823.75 1464.01 Q1824.66 1462.25 1824.66 1460.56 Q1824.66 1457.8 1822.71 1456.07 Q1820.79 1454.33 1817.69 1454.33 Q1815.49 1454.33 1813.03 1455.09 Q1810.6 1455.86 1807.83 1457.41 L1807.83 1452.69 Q1810.65 1451.55 1813.1 1450.97 Q1815.56 1450.39 1817.59 1450.39 Q1822.97 1450.39 1826.16 1453.08 Q1829.35 1455.77 1829.35 1460.26 Q1829.35 1462.39 1828.54 1464.31 Q1827.76 1466.2 1825.65 1468.8 Q1825.07 1469.47 1821.97 1472.69 Q1818.87 1475.88 1813.22 1481.64 Z" fill="#000000" fill-rule="nonzero" fill-opacity="1" /><path clip-path="url(#clip700)" d="M1849.35 1454.1 Q1845.74 1454.1 1843.91 1457.66 Q1842.11 1461.2 1842.11 1468.33 Q1842.11 1475.44 1843.91 1479.01 Q1845.74 1482.55 1849.35 1482.55 Q1852.99 1482.55 1854.79 1479.01 Q1856.62 1475.44 1856.62 1468.33 Q1856.62 1461.2 1854.79 1457.66 Q1852.99 1454.1 1849.35 1454.1 M1849.35 1450.39 Q1855.16 1450.39 1858.22 1455 Q1861.3 1459.58 1861.3 1468.33 Q1861.3 1477.06 1858.22 1481.67 Q1855.16 1486.25 1849.35 1486.25 Q1843.54 1486.25 1840.47 1481.67 Q1837.41 1477.06 1837.41 1468.33 Q1837.41 1459.58 1840.47 1455 Q1843.54 1450.39 1849.35 1450.39 Z" fill="#000000" fill-rule="nonzero" fill-opacity="1" /><path clip-path="url(#clip700)" d="M1879.52 1454.1 Q1875.9 1454.1 1874.08 1457.66 Q1872.27 1461.2 1872.27 1468.33 Q1872.27 1475.44 1874.08 1479.01 Q1875.9 1482.55 1879.52 1482.55 Q1883.15 1482.55 1884.96 1479.01 Q1886.78 1475.44 1886.78 1468.33 Q1886.78 1461.2 1884.96 1457.66 Q1883.15 1454.1 1879.52 1454.1 M1879.52 1450.39 Q1885.33 1450.39 1888.38 1455 Q1891.46 1459.58 1891.46 1468.33 Q1891.46 1477.06 1888.38 1481.67 Q1885.33 1486.25 1879.52 1486.25 Q1873.71 1486.25 1870.63 1481.67 Q1867.57 1477.06 1867.57 1468.33 Q1867.57 1459.58 1870.63 1455 Q1873.71 1450.39 1879.52 1450.39 Z" fill="#000000" fill-rule="nonzero" fill-opacity="1" /><path clip-path="url(#clip700)" d="M2252.53 1481.64 L2268.85 1481.64 L2268.85 1485.58 L2246.9 1485.58 L2246.9 1481.64 Q2249.56 1478.89 2254.15 1474.26 Q2258.75 1469.61 2259.93 1468.27 Q2262.18 1465.74 2263.06 1464.01 Q2263.96 1462.25 2263.96 1460.56 Q2263.96 1457.8 2262.02 1456.07 Q2260.1 1454.33 2257 1454.33 Q2254.8 1454.33 2252.34 1455.09 Q2249.91 1455.86 2247.13 1457.41 L2247.13 1452.69 Q2249.96 1451.55 2252.41 1450.97 Q2254.87 1450.39 2256.9 1450.39 Q2262.27 1450.39 2265.47 1453.08 Q2268.66 1455.77 2268.66 1460.26 Q2268.66 1462.39 2267.85 1464.31 Q2267.06 1466.2 2264.96 1468.8 Q2264.38 1469.47 2261.28 1472.69 Q2258.18 1475.88 2252.53 1481.64 Z" fill="#000000" fill-rule="nonzero" fill-opacity="1" /><path clip-path="url(#clip700)" d="M2278.71 1451.02 L2297.06 1451.02 L2297.06 1454.96 L2282.99 1454.96 L2282.99 1463.43 Q2284.01 1463.08 2285.03 1462.92 Q2286.05 1462.73 2287.06 1462.73 Q2292.85 1462.73 2296.23 1465.9 Q2299.61 1469.08 2299.61 1474.49 Q2299.61 1480.07 2296.14 1483.17 Q2292.67 1486.25 2286.35 1486.25 Q2284.17 1486.25 2281.9 1485.88 Q2279.66 1485.51 2277.25 1484.77 L2277.25 1480.07 Q2279.33 1481.2 2281.56 1481.76 Q2283.78 1482.32 2286.25 1482.32 Q2290.26 1482.32 2292.6 1480.21 Q2294.93 1478.1 2294.93 1474.49 Q2294.93 1470.88 2292.6 1468.77 Q2290.26 1466.67 2286.25 1466.67 Q2284.38 1466.67 2282.5 1467.08 Q2280.65 1467.5 2278.71 1468.38 L2278.71 1451.02 Z" fill="#000000" fill-rule="nonzero" fill-opacity="1" /><path clip-path="url(#clip700)" d="M2318.82 1454.1 Q2315.21 1454.1 2313.38 1457.66 Q2311.58 1461.2 2311.58 1468.33 Q2311.58 1475.44 2313.38 1479.01 Q2315.21 1482.55 2318.82 1482.55 Q2322.46 1482.55 2324.26 1479.01 Q2326.09 1475.44 2326.09 1468.33 Q2326.09 1461.2 2324.26 1457.66 Q2322.46 1454.1 2318.82 1454.1 M2318.82 1450.39 Q2324.63 1450.39 2327.69 1455 Q2330.77 1459.58 2330.77 1468.33 Q2330.77 1477.06 2327.69 1481.67 Q2324.63 1486.25 2318.82 1486.25 Q2313.01 1486.25 2309.93 1481.67 Q2306.88 1477.06 2306.88 1468.33 Q2306.88 1459.58 2309.93 1455 Q2313.01 1450.39 2318.82 1450.39 Z" fill="#000000" fill-rule="nonzero" fill-opacity="1" /><path clip-path="url(#clip700)" d="M944.774 1520.52 L953.431 1520.52 L974.501 1560.28 L974.501 1520.52 L980.74 1520.52 L980.74 1568.04 L972.082 1568.04 L951.012 1528.29 L951.012 1568.04 L944.774 1568.04 L944.774 1520.52 Z" fill="#000000" fill-rule="nonzero" fill-opacity="1" /><path clip-path="url(#clip700)" d="M1023.77 1548.76 L1023.77 1551.62 L996.845 1551.62 Q997.227 1557.67 1000.47 1560.85 Q1003.75 1564 1009.58 1564 Q1012.95 1564 1016.1 1563.17 Q1019.28 1562.35 1022.4 1560.69 L1022.4 1566.23 Q1019.25 1567.57 1015.94 1568.27 Q1012.63 1568.97 1009.23 1568.97 Q1000.7 1568.97 995.699 1564 Q990.734 1559.04 990.734 1550.57 Q990.734 1541.82 995.445 1536.69 Q1000.19 1531.54 1008.21 1531.54 Q1015.4 1531.54 1019.57 1536.18 Q1023.77 1540.8 1023.77 1548.76 M1017.92 1547.04 Q1017.85 1542.23 1015.21 1539.37 Q1012.6 1536.5 1008.27 1536.5 Q1003.37 1536.5 1000.41 1539.27 Q997.482 1542.04 997.036 1547.07 L1017.92 1547.04 Z" fill="#000000" fill-rule="nonzero" fill-opacity="1" /><path clip-path="url(#clip700)" d="M1032.78 1553.98 L1032.78 1532.4 L1038.64 1532.4 L1038.64 1553.75 Q1038.64 1558.81 1040.61 1561.36 Q1042.58 1563.87 1046.53 1563.87 Q1051.27 1563.87 1054.01 1560.85 Q1056.78 1557.83 1056.78 1552.61 L1056.78 1532.4 L1062.63 1532.4 L1062.63 1568.04 L1056.78 1568.04 L1056.78 1562.57 Q1054.65 1565.82 1051.81 1567.41 Q1049.01 1568.97 1045.29 1568.97 Q1039.15 1568.97 1035.96 1565.15 Q1032.78 1561.33 1032.78 1553.98 M1047.52 1531.54 L1047.52 1531.54 Z" fill="#000000" fill-rule="nonzero" fill-opacity="1" /><path clip-path="url(#clip700)" d="M1080.49 1522.27 L1080.49 1532.4 L1092.55 1532.4 L1092.55 1536.95 L1080.49 1536.95 L1080.49 1556.3 Q1080.49 1560.66 1081.67 1561.9 Q1082.88 1563.14 1086.54 1563.14 L1092.55 1563.14 L1092.55 1568.04 L1086.54 1568.04 Q1079.76 1568.04 1077.18 1565.53 Q1074.6 1562.98 1074.6 1556.3 L1074.6 1536.95 L1070.31 1536.95 L1070.31 1532.4 L1074.6 1532.4 L1074.6 1522.27 L1080.49 1522.27 Z" fill="#000000" fill-rule="nonzero" fill-opacity="1" /><path clip-path="url(#clip700)" d="M1120.91 1537.87 Q1119.93 1537.3 1118.75 1537.04 Q1117.6 1536.76 1116.2 1536.76 Q1111.24 1536.76 1108.56 1540 Q1105.92 1543.22 1105.92 1549.27 L1105.92 1568.04 L1100.03 1568.04 L1100.03 1532.4 L1105.92 1532.4 L1105.92 1537.93 Q1107.77 1534.69 1110.73 1533.13 Q1113.69 1531.54 1117.92 1531.54 Q1118.53 1531.54 1119.26 1531.63 Q1119.99 1531.7 1120.88 1531.85 L1120.91 1537.87 Z" fill="#000000" fill-rule="nonzero" fill-opacity="1" /><path clip-path="url(#clip700)" d="M1139.44 1536.5 Q1134.73 1536.5 1131.99 1540.19 Q1129.25 1543.85 1129.25 1550.25 Q1129.25 1556.65 1131.96 1560.34 Q1134.69 1564 1139.44 1564 Q1144.12 1564 1146.85 1560.31 Q1149.59 1556.62 1149.59 1550.25 Q1149.59 1543.92 1146.85 1540.23 Q1144.12 1536.5 1139.44 1536.5 M1139.44 1531.54 Q1147.08 1531.54 1151.44 1536.5 Q1155.8 1541.47 1155.8 1550.25 Q1155.8 1559 1151.44 1564 Q1147.08 1568.97 1139.44 1568.97 Q1131.77 1568.97 1127.41 1564 Q1123.08 1559 1123.08 1550.25 Q1123.08 1541.47 1127.41 1536.5 Q1131.77 1531.54 1139.44 1531.54 Z" fill="#000000" fill-rule="nonzero" fill-opacity="1" /><path clip-path="url(#clip700)" d="M1195.14 1546.53 L1195.14 1568.04 L1189.28 1568.04 L1189.28 1546.72 Q1189.28 1541.66 1187.31 1539.14 Q1185.33 1536.63 1181.39 1536.63 Q1176.64 1536.63 1173.91 1539.65 Q1171.17 1542.68 1171.17 1547.9 L1171.17 1568.04 L1165.28 1568.04 L1165.28 1532.4 L1171.17 1532.4 L1171.17 1537.93 Q1173.27 1534.72 1176.1 1533.13 Q1178.97 1531.54 1182.69 1531.54 Q1188.83 1531.54 1191.99 1535.36 Q1195.14 1539.14 1195.14 1546.53 Z" fill="#000000" fill-rule="nonzero" fill-opacity="1" /><path clip-path="url(#clip700)" d="M1258.03 1548.76 L1258.03 1551.62 L1231.1 1551.62 Q1231.48 1557.67 1234.73 1560.85 Q1238.01 1564 1243.83 1564 Q1247.21 1564 1250.36 1563.17 Q1253.54 1562.35 1256.66 1560.69 L1256.66 1566.23 Q1253.51 1567.57 1250.2 1568.27 Q1246.89 1568.97 1243.48 1568.97 Q1234.95 1568.97 1229.96 1564 Q1224.99 1559.04 1224.99 1550.57 Q1224.99 1541.82 1229.7 1536.69 Q1234.45 1531.54 1242.47 1531.54 Q1249.66 1531.54 1253.83 1536.18 Q1258.03 1540.8 1258.03 1548.76 M1252.17 1547.04 Q1252.11 1542.23 1249.47 1539.37 Q1246.86 1536.5 1242.53 1536.5 Q1237.63 1536.5 1234.67 1539.27 Q1231.74 1542.04 1231.29 1547.07 L1252.17 1547.04 Z" fill="#000000" fill-rule="nonzero" fill-opacity="1" /><path clip-path="url(#clip700)" d="M1297.27 1546.53 L1297.27 1568.04 L1291.42 1568.04 L1291.42 1546.72 Q1291.42 1541.66 1289.44 1539.14 Q1287.47 1536.63 1283.52 1536.63 Q1278.78 1536.63 1276.04 1539.65 Q1273.31 1542.68 1273.31 1547.9 L1273.31 1568.04 L1267.42 1568.04 L1267.42 1532.4 L1273.31 1532.4 L1273.31 1537.93 Q1275.41 1534.72 1278.24 1533.13 Q1281.11 1531.54 1284.83 1531.54 Q1290.97 1531.54 1294.12 1535.36 Q1297.27 1539.14 1297.27 1546.53 Z" fill="#000000" fill-rule="nonzero" fill-opacity="1" /><path clip-path="url(#clip700)" d="M1339.45 1548.76 L1339.45 1551.62 L1312.52 1551.62 Q1312.9 1557.67 1316.15 1560.85 Q1319.43 1564 1325.25 1564 Q1328.63 1564 1331.78 1563.17 Q1334.96 1562.35 1338.08 1560.69 L1338.08 1566.23 Q1334.93 1567.57 1331.62 1568.27 Q1328.31 1568.97 1324.9 1568.97 Q1316.37 1568.97 1311.37 1564 Q1306.41 1559.04 1306.41 1550.57 Q1306.41 1541.82 1311.12 1536.69 Q1315.86 1531.54 1323.88 1531.54 Q1331.08 1531.54 1335.25 1536.18 Q1339.45 1540.8 1339.45 1548.76 M1333.59 1547.04 Q1333.53 1542.23 1330.89 1539.37 Q1328.28 1536.5 1323.95 1536.5 Q1319.05 1536.5 1316.09 1539.27 Q1313.16 1542.04 1312.71 1547.07 L1333.59 1547.04 Z" fill="#000000" fill-rule="nonzero" fill-opacity="1" /><path clip-path="url(#clip700)" d="M1369.72 1537.87 Q1368.73 1537.3 1367.55 1537.04 Q1366.41 1536.76 1365.01 1536.76 Q1360.04 1536.76 1357.37 1540 Q1354.73 1543.22 1354.73 1549.27 L1354.73 1568.04 L1348.84 1568.04 L1348.84 1532.4 L1354.73 1532.4 L1354.73 1537.93 Q1356.57 1534.69 1359.53 1533.13 Q1362.49 1531.54 1366.72 1531.54 Q1367.33 1531.54 1368.06 1531.63 Q1368.79 1531.7 1369.68 1531.85 L1369.72 1537.87 Z" fill="#000000" fill-rule="nonzero" fill-opacity="1" /><path clip-path="url(#clip700)" d="M1398.17 1549.81 Q1398.17 1543.44 1395.53 1539.94 Q1392.92 1536.44 1388.18 1536.44 Q1383.47 1536.44 1380.82 1539.94 Q1378.21 1543.44 1378.21 1549.81 Q1378.21 1556.14 1380.82 1559.64 Q1383.47 1563.14 1388.18 1563.14 Q1392.92 1563.14 1395.53 1559.64 Q1398.17 1556.14 1398.17 1549.81 M1404.03 1563.62 Q1404.03 1572.72 1399.99 1577.15 Q1395.94 1581.6 1387.6 1581.6 Q1384.52 1581.6 1381.78 1581.13 Q1379.04 1580.68 1376.46 1579.72 L1376.46 1574.03 Q1379.04 1575.43 1381.56 1576.1 Q1384.07 1576.76 1386.68 1576.76 Q1392.44 1576.76 1395.31 1573.74 Q1398.17 1570.75 1398.17 1564.67 L1398.17 1561.77 Q1396.36 1564.92 1393.52 1566.48 Q1390.69 1568.04 1386.74 1568.04 Q1380.19 1568.04 1376.18 1563.05 Q1372.17 1558.05 1372.17 1549.81 Q1372.17 1541.53 1376.18 1536.53 Q1380.19 1531.54 1386.74 1531.54 Q1390.69 1531.54 1393.52 1533.1 Q1396.36 1534.66 1398.17 1537.81 L1398.17 1532.4 L1404.03 1532.4 L1404.03 1563.62 Z" fill="#000000" fill-rule="nonzero" fill-opacity="1" /><path clip-path="url(#clip700)" d="M1430.92 1571.35 Q1428.44 1577.72 1426.08 1579.66 Q1423.73 1581.6 1419.78 1581.6 L1415.1 1581.6 L1415.1 1576.7 L1418.54 1576.7 Q1420.96 1576.7 1422.3 1575.56 Q1423.63 1574.41 1425.26 1570.14 L1426.31 1567.47 L1411.89 1532.4 L1418.1 1532.4 L1429.24 1560.28 L1440.38 1532.4 L1446.58 1532.4 L1430.92 1571.35 Z" fill="#000000" fill-rule="nonzero" fill-opacity="1" /><path clip-path="url(#clip700)" d="M1489.46 1518.58 Q1485.19 1525.9 1483.12 1533.06 Q1481.05 1540.23 1481.05 1547.58 Q1481.05 1554.93 1483.12 1562.16 Q1485.22 1569.35 1489.46 1576.64 L1484.36 1576.64 Q1479.59 1569.16 1477.2 1561.93 Q1474.85 1554.71 1474.85 1547.58 Q1474.85 1540.48 1477.2 1533.29 Q1479.56 1526.09 1484.36 1518.58 L1489.46 1518.58 Z" fill="#000000" fill-rule="nonzero" fill-opacity="1" /><path clip-path="url(#clip700)" d="M1501.07 1520.52 L1510.65 1520.52 L1522.78 1552.86 L1534.97 1520.52 L1544.55 1520.52 L1544.55 1568.04 L1538.28 1568.04 L1538.28 1526.32 L1526.03 1558.91 L1519.57 1558.91 L1507.31 1526.32 L1507.31 1568.04 L1501.07 1568.04 L1501.07 1520.52 Z" fill="#000000" fill-rule="nonzero" fill-opacity="1" /><path clip-path="url(#clip700)" d="M1587.55 1548.76 L1587.55 1551.62 L1560.62 1551.62 Q1561.01 1557.67 1564.25 1560.85 Q1567.53 1564 1573.36 1564 Q1576.73 1564 1579.88 1563.17 Q1583.06 1562.35 1586.18 1560.69 L1586.18 1566.23 Q1583.03 1567.57 1579.72 1568.27 Q1576.41 1568.97 1573.01 1568.97 Q1564.48 1568.97 1559.48 1564 Q1554.51 1559.04 1554.51 1550.57 Q1554.51 1541.82 1559.22 1536.69 Q1563.97 1531.54 1571.99 1531.54 Q1579.18 1531.54 1583.35 1536.18 Q1587.55 1540.8 1587.55 1548.76 M1581.69 1547.04 Q1581.63 1542.23 1578.99 1539.37 Q1576.38 1536.5 1572.05 1536.5 Q1567.15 1536.5 1564.19 1539.27 Q1561.26 1542.04 1560.81 1547.07 L1581.69 1547.04 Z" fill="#000000" fill-rule="nonzero" fill-opacity="1" /><path clip-path="url(#clip700)" d="M1609.67 1568.04 L1591.53 1520.52 L1598.25 1520.52 L1613.3 1560.53 L1628.39 1520.52 L1635.07 1520.52 L1616.96 1568.04 L1609.67 1568.04 Z" fill="#000000" fill-rule="nonzero" fill-opacity="1" /><path clip-path="url(#clip700)" d="M1640.83 1518.58 L1645.92 1518.58 Q1650.7 1526.09 1653.05 1533.29 Q1655.44 1540.48 1655.44 1547.58 Q1655.44 1554.71 1653.05 1561.93 Q1650.7 1569.16 1645.92 1576.64 L1640.83 1576.64 Q1645.06 1569.35 1647.13 1562.16 Q1649.23 1554.93 1649.23 1547.58 Q1649.23 1540.23 1647.13 1533.06 Q1645.06 1525.9 1640.83 1518.58 Z" fill="#000000" fill-rule="nonzero" fill-opacity="1" /><polyline clip-path="url(#clip700)" style="stroke:#000000; stroke-linecap:round; stroke-linejoin:round; stroke-width:4; stroke-opacity:1; fill:none" points="247.459,1423.18 247.459,123.472 "/>
<polyline clip-path="url(#clip700)" style="stroke:#000000; stroke-linecap:round; stroke-linejoin:round; stroke-width:4; stroke-opacity:1; fill:none" points="247.459,1211.55 266.356,1211.55 "/>
<polyline clip-path="url(#clip700)" style="stroke:#000000; stroke-linecap:round; stroke-linejoin:round; stroke-width:4; stroke-opacity:1; fill:none" points="247.459,964.055 266.356,964.055 "/>
<polyline clip-path="url(#clip700)" style="stroke:#000000; stroke-linecap:round; stroke-linejoin:round; stroke-width:4; stroke-opacity:1; fill:none" points="247.459,716.562 266.356,716.562 "/>
<polyline clip-path="url(#clip700)" style="stroke:#000000; stroke-linecap:round; stroke-linejoin:round; stroke-width:4; stroke-opacity:1; fill:none" points="247.459,469.069 266.356,469.069 "/>
<polyline clip-path="url(#clip700)" style="stroke:#000000; stroke-linecap:round; stroke-linejoin:round; stroke-width:4; stroke-opacity:1; fill:none" points="247.459,221.576 266.356,221.576 "/>
<path clip-path="url(#clip700)" d="M149.306 1224.89 L165.626 1224.89 L165.626 1228.83 L143.681 1228.83 L143.681 1224.89 Q146.343 1222.14 150.927 1217.51 Q155.533 1212.86 156.714 1211.51 Q158.959 1208.99 159.839 1207.25 Q160.741 1205.49 160.741 1203.8 Q160.741 1201.05 158.797 1199.31 Q156.876 1197.58 153.774 1197.58 Q151.575 1197.58 149.121 1198.34 Q146.691 1199.11 143.913 1200.66 L143.913 1195.93 Q146.737 1194.8 149.191 1194.22 Q151.644 1193.64 153.681 1193.64 Q159.052 1193.64 162.246 1196.33 Q165.44 1199.01 165.44 1203.5 Q165.44 1205.63 164.63 1207.55 Q163.843 1209.45 161.737 1212.05 Q161.158 1212.72 158.056 1215.93 Q154.954 1219.13 149.306 1224.89 Z" fill="#000000" fill-rule="nonzero" fill-opacity="1" /><path clip-path="url(#clip700)" d="M175.44 1222.95 L180.325 1222.95 L180.325 1228.83 L175.44 1228.83 L175.44 1222.95 Z" fill="#000000" fill-rule="nonzero" fill-opacity="1" /><path clip-path="url(#clip700)" d="M190.556 1194.27 L208.912 1194.27 L208.912 1198.2 L194.838 1198.2 L194.838 1206.68 Q195.857 1206.33 196.875 1206.17 Q197.894 1205.98 198.912 1205.98 Q204.699 1205.98 208.079 1209.15 Q211.459 1212.32 211.459 1217.74 Q211.459 1223.32 207.987 1226.42 Q204.514 1229.5 198.195 1229.5 Q196.019 1229.5 193.75 1229.13 Q191.505 1228.76 189.098 1228.02 L189.098 1223.32 Q191.181 1224.45 193.403 1225.01 Q195.625 1225.56 198.102 1225.56 Q202.107 1225.56 204.445 1223.46 Q206.783 1221.35 206.783 1217.74 Q206.783 1214.13 204.445 1212.02 Q202.107 1209.92 198.102 1209.92 Q196.227 1209.92 194.352 1210.33 Q192.5 1210.75 190.556 1211.63 L190.556 1194.27 Z" fill="#000000" fill-rule="nonzero" fill-opacity="1" /><path clip-path="url(#clip700)" d="M144.329 946.775 L162.686 946.775 L162.686 950.71 L148.612 950.71 L148.612 959.182 Q149.63 958.835 150.649 958.673 Q151.667 958.488 152.686 958.488 Q158.473 958.488 161.852 961.659 Q165.232 964.831 165.232 970.247 Q165.232 975.826 161.76 978.928 Q158.288 982.006 151.968 982.006 Q149.792 982.006 147.524 981.636 Q145.279 981.266 142.871 980.525 L142.871 975.826 Q144.954 976.96 147.177 977.516 Q149.399 978.071 151.876 978.071 Q155.88 978.071 158.218 975.965 Q160.556 973.858 160.556 970.247 Q160.556 966.636 158.218 964.53 Q155.88 962.423 151.876 962.423 Q150.001 962.423 148.126 962.84 Q146.274 963.256 144.329 964.136 L144.329 946.775 Z" fill="#000000" fill-rule="nonzero" fill-opacity="1" /><path clip-path="url(#clip700)" d="M174.445 975.455 L179.329 975.455 L179.329 981.335 L174.445 981.335 L174.445 975.455 Z" fill="#000000" fill-rule="nonzero" fill-opacity="1" /><path clip-path="url(#clip700)" d="M199.514 949.854 Q195.903 949.854 194.075 953.419 Q192.269 956.96 192.269 964.09 Q192.269 971.196 194.075 974.761 Q195.903 978.303 199.514 978.303 Q203.149 978.303 204.954 974.761 Q206.783 971.196 206.783 964.09 Q206.783 956.96 204.954 953.419 Q203.149 949.854 199.514 949.854 M199.514 946.15 Q205.324 946.15 208.38 950.757 Q211.459 955.34 211.459 964.09 Q211.459 972.817 208.38 977.423 Q205.324 982.006 199.514 982.006 Q193.704 982.006 190.625 977.423 Q187.57 972.817 187.57 964.09 Q187.57 955.34 190.625 950.757 Q193.704 946.15 199.514 946.15 Z" fill="#000000" fill-rule="nonzero" fill-opacity="1" /><path clip-path="url(#clip700)" d="M144.098 699.282 L166.32 699.282 L166.32 701.273 L153.774 733.842 L148.89 733.842 L160.695 703.217 L144.098 703.217 L144.098 699.282 Z" fill="#000000" fill-rule="nonzero" fill-opacity="1" /><path clip-path="url(#clip700)" d="M175.44 727.963 L180.325 727.963 L180.325 733.842 L175.44 733.842 L175.44 727.963 Z" fill="#000000" fill-rule="nonzero" fill-opacity="1" /><path clip-path="url(#clip700)" d="M190.556 699.282 L208.912 699.282 L208.912 703.217 L194.838 703.217 L194.838 711.69 Q195.857 711.342 196.875 711.18 Q197.894 710.995 198.912 710.995 Q204.699 710.995 208.079 714.166 Q211.459 717.338 211.459 722.754 Q211.459 728.333 207.987 731.435 Q204.514 734.514 198.195 734.514 Q196.019 734.514 193.75 734.143 Q191.505 733.773 189.098 733.032 L189.098 728.333 Q191.181 729.467 193.403 730.023 Q195.625 730.578 198.102 730.578 Q202.107 730.578 204.445 728.472 Q206.783 726.365 206.783 722.754 Q206.783 719.143 204.445 717.037 Q202.107 714.93 198.102 714.93 Q196.227 714.93 194.352 715.347 Q192.5 715.764 190.556 716.643 L190.556 699.282 Z" fill="#000000" fill-rule="nonzero" fill-opacity="1" /><path clip-path="url(#clip700)" d="M114.931 482.414 L122.57 482.414 L122.57 456.049 L114.26 457.715 L114.26 453.456 L122.524 451.789 L127.2 451.789 L127.2 482.414 L134.839 482.414 L134.839 486.349 L114.931 486.349 L114.931 482.414 Z" fill="#000000" fill-rule="nonzero" fill-opacity="1" /><path clip-path="url(#clip700)" d="M154.283 454.868 Q150.672 454.868 148.843 458.433 Q147.038 461.974 147.038 469.104 Q147.038 476.211 148.843 479.775 Q150.672 483.317 154.283 483.317 Q157.917 483.317 159.723 479.775 Q161.552 476.211 161.552 469.104 Q161.552 461.974 159.723 458.433 Q157.917 454.868 154.283 454.868 M154.283 451.164 Q160.093 451.164 163.149 455.771 Q166.227 460.354 166.227 469.104 Q166.227 477.831 163.149 482.437 Q160.093 487.021 154.283 487.021 Q148.473 487.021 145.394 482.437 Q142.339 477.831 142.339 469.104 Q142.339 460.354 145.394 455.771 Q148.473 451.164 154.283 451.164 Z" fill="#000000" fill-rule="nonzero" fill-opacity="1" /><path clip-path="url(#clip700)" d="M174.445 480.47 L179.329 480.47 L179.329 486.349 L174.445 486.349 L174.445 480.47 Z" fill="#000000" fill-rule="nonzero" fill-opacity="1" /><path clip-path="url(#clip700)" d="M199.514 454.868 Q195.903 454.868 194.075 458.433 Q192.269 461.974 192.269 469.104 Q192.269 476.211 194.075 479.775 Q195.903 483.317 199.514 483.317 Q203.149 483.317 204.954 479.775 Q206.783 476.211 206.783 469.104 Q206.783 461.974 204.954 458.433 Q203.149 454.868 199.514 454.868 M199.514 451.164 Q205.324 451.164 208.38 455.771 Q211.459 460.354 211.459 469.104 Q211.459 477.831 208.38 482.437 Q205.324 487.021 199.514 487.021 Q193.704 487.021 190.625 482.437 Q187.57 477.831 187.57 469.104 Q187.57 460.354 190.625 455.771 Q193.704 451.164 199.514 451.164 Z" fill="#000000" fill-rule="nonzero" fill-opacity="1" /><path clip-path="url(#clip700)" d="M115.927 234.921 L123.566 234.921 L123.566 208.556 L115.256 210.222 L115.256 205.963 L123.519 204.296 L128.195 204.296 L128.195 234.921 L135.834 234.921 L135.834 238.856 L115.927 238.856 L115.927 234.921 Z" fill="#000000" fill-rule="nonzero" fill-opacity="1" /><path clip-path="url(#clip700)" d="M149.306 234.921 L165.626 234.921 L165.626 238.856 L143.681 238.856 L143.681 234.921 Q146.343 232.167 150.927 227.537 Q155.533 222.884 156.714 221.542 Q158.959 219.019 159.839 217.283 Q160.741 215.523 160.741 213.833 Q160.741 211.079 158.797 209.343 Q156.876 207.607 153.774 207.607 Q151.575 207.607 149.121 208.371 Q146.691 209.134 143.913 210.685 L143.913 205.963 Q146.737 204.829 149.191 204.25 Q151.644 203.671 153.681 203.671 Q159.052 203.671 162.246 206.357 Q165.44 209.042 165.44 213.533 Q165.44 215.662 164.63 217.583 Q163.843 219.482 161.737 222.074 Q161.158 222.745 158.056 225.963 Q154.954 229.157 149.306 234.921 Z" fill="#000000" fill-rule="nonzero" fill-opacity="1" /><path clip-path="url(#clip700)" d="M175.44 232.977 L180.325 232.977 L180.325 238.856 L175.44 238.856 L175.44 232.977 Z" fill="#000000" fill-rule="nonzero" fill-opacity="1" /><path clip-path="url(#clip700)" d="M190.556 204.296 L208.912 204.296 L208.912 208.232 L194.838 208.232 L194.838 216.704 Q195.857 216.357 196.875 216.195 Q197.894 216.009 198.912 216.009 Q204.699 216.009 208.079 219.181 Q211.459 222.352 211.459 227.769 Q211.459 233.347 207.987 236.449 Q204.514 239.528 198.195 239.528 Q196.019 239.528 193.75 239.157 Q191.505 238.787 189.098 238.046 L189.098 233.347 Q191.181 234.482 193.403 235.037 Q195.625 235.593 198.102 235.593 Q202.107 235.593 204.445 233.486 Q206.783 231.38 206.783 227.769 Q206.783 224.157 204.445 222.051 Q202.107 219.945 198.102 219.945 Q196.227 219.945 194.352 220.361 Q192.5 220.778 190.556 221.658 L190.556 204.296 Z" fill="#000000" fill-rule="nonzero" fill-opacity="1" /><path clip-path="url(#clip700)" d="M16.4842 1024.87 L16.4842 1018.41 L45.3526 1018.41 Q52.9915 1018.41 56.3653 1015.64 Q59.7073 1012.87 59.7073 1006.66 Q59.7073 1000.49 56.3653 997.717 Q52.9915 994.948 45.3526 994.948 L16.4842 994.948 L16.4842 988.487 L46.1484 988.487 Q55.4423 988.487 60.1847 993.102 Q64.9272 997.685 64.9272 1006.66 Q64.9272 1015.67 60.1847 1020.28 Q55.4423 1024.87 46.1484 1024.87 L16.4842 1024.87 Z" fill="#000000" fill-rule="nonzero" fill-opacity="1" /><path clip-path="url(#clip700)" d="M42.4881 947.046 L64.0042 947.046 L64.0042 952.903 L42.679 952.903 Q37.6183 952.903 35.1038 954.876 Q32.5894 956.849 32.5894 960.796 Q32.5894 965.538 35.6131 968.276 Q38.6368 971.013 43.8567 971.013 L64.0042 971.013 L64.0042 976.901 L28.3562 976.901 L28.3562 971.013 L33.8944 971.013 Q30.6797 968.912 29.0883 966.08 Q27.4968 963.215 27.4968 959.491 Q27.4968 953.348 31.3163 950.197 Q35.1038 947.046 42.4881 947.046 Z" fill="#000000" fill-rule="nonzero" fill-opacity="1" /><path clip-path="url(#clip700)" d="M29.7248 909.711 L35.1993 909.711 Q33.8307 912.194 33.1623 914.708 Q32.4621 917.191 32.4621 919.737 Q32.4621 925.435 36.0905 928.586 Q39.6872 931.737 46.212 931.737 Q52.7369 931.737 56.3653 928.586 Q59.9619 925.435 59.9619 919.737 Q59.9619 917.191 59.2935 914.708 Q58.5933 912.194 57.2247 909.711 L62.6355 909.711 Q63.7814 912.162 64.3543 914.804 Q64.9272 917.414 64.9272 920.374 Q64.9272 928.426 59.8664 933.169 Q54.8057 937.911 46.212 937.911 Q37.491 937.911 32.4939 933.137 Q27.4968 928.331 27.4968 919.992 Q27.4968 917.286 28.0697 914.708 Q28.6108 912.13 29.7248 909.711 Z" fill="#000000" fill-rule="nonzero" fill-opacity="1" /><path clip-path="url(#clip700)" d="M44.7161 869.034 L47.5806 869.034 L47.5806 895.961 Q53.6281 895.579 56.8109 892.333 Q59.9619 889.055 59.9619 883.23 Q59.9619 879.856 59.1344 876.705 Q58.3069 873.522 56.6518 870.403 L62.1899 870.403 Q63.5267 873.554 64.227 876.864 Q64.9272 880.174 64.9272 883.58 Q64.9272 892.11 59.9619 897.107 Q54.9967 902.072 46.5303 902.072 Q37.7774 902.072 32.6531 897.362 Q27.4968 892.619 27.4968 884.599 Q27.4968 877.405 32.1438 873.236 Q36.7589 869.034 44.7161 869.034 M42.9973 874.891 Q38.1912 874.954 35.3266 877.596 Q32.4621 880.206 32.4621 884.535 Q32.4621 889.436 35.2312 892.397 Q38.0002 895.325 43.0292 895.77 L42.9973 874.891 Z" fill="#000000" fill-rule="nonzero" fill-opacity="1" /><path clip-path="url(#clip700)" d="M33.8307 838.765 Q33.2578 839.752 33.0032 840.93 Q32.7167 842.076 32.7167 843.476 Q32.7167 848.441 35.9632 851.115 Q39.1779 853.757 45.2253 853.757 L64.0042 853.757 L64.0042 859.645 L28.3562 859.645 L28.3562 853.757 L33.8944 853.757 Q30.6479 851.911 29.0883 848.951 Q27.4968 845.991 27.4968 841.757 Q27.4968 841.153 27.5923 840.421 Q27.656 839.688 27.8151 838.797 L33.8307 838.765 Z" fill="#000000" fill-rule="nonzero" fill-opacity="1" /><path clip-path="url(#clip700)" d="M18.2347 826.83 L28.3562 826.83 L28.3562 814.767 L32.9077 814.767 L32.9077 826.83 L52.2594 826.83 Q56.6199 826.83 57.8613 825.652 Q59.1026 824.443 59.1026 820.782 L59.1026 814.767 L64.0042 814.767 L64.0042 820.782 Q64.0042 827.562 61.4897 830.14 Q58.9434 832.718 52.2594 832.718 L32.9077 832.718 L32.9077 837.015 L28.3562 837.015 L28.3562 832.718 L18.2347 832.718 L18.2347 826.83 Z" fill="#000000" fill-rule="nonzero" fill-opacity="1" /><path clip-path="url(#clip700)" d="M46.0847 790.864 Q46.0847 797.961 47.7079 800.699 Q49.3312 803.436 53.2461 803.436 Q56.3653 803.436 58.2114 801.399 Q60.0256 799.33 60.0256 795.797 Q60.0256 790.927 56.5881 787.999 Q53.1188 785.039 47.3897 785.039 L46.0847 785.039 L46.0847 790.864 M43.6657 779.182 L64.0042 779.182 L64.0042 785.039 L58.5933 785.039 Q61.8398 787.044 63.3994 790.036 Q64.9272 793.028 64.9272 797.357 Q64.9272 802.831 61.8716 806.078 Q58.7843 809.292 53.6281 809.292 Q47.6125 809.292 44.5569 805.282 Q41.5014 801.24 41.5014 793.251 L41.5014 785.039 L40.9285 785.039 Q36.8862 785.039 34.6901 787.712 Q32.4621 790.354 32.4621 795.16 Q32.4621 798.216 33.1941 801.112 Q33.9262 804.009 35.3903 806.682 L29.9795 806.682 Q28.7381 803.468 28.1334 800.444 Q27.4968 797.42 27.4968 794.556 Q27.4968 786.821 31.5072 783.002 Q35.5176 779.182 43.6657 779.182 Z" fill="#000000" fill-rule="nonzero" fill-opacity="1" /><path clip-path="url(#clip700)" d="M28.3562 767.119 L28.3562 761.263 L64.0042 761.263 L64.0042 767.119 L28.3562 767.119 M14.479 767.119 L14.479 761.263 L21.895 761.263 L21.895 767.119 L14.479 767.119 Z" fill="#000000" fill-rule="nonzero" fill-opacity="1" /><path clip-path="url(#clip700)" d="M42.4881 719.377 L64.0042 719.377 L64.0042 725.233 L42.679 725.233 Q37.6183 725.233 35.1038 727.206 Q32.5894 729.18 32.5894 733.127 Q32.5894 737.869 35.6131 740.606 Q38.6368 743.344 43.8567 743.344 L64.0042 743.344 L64.0042 749.232 L28.3562 749.232 L28.3562 743.344 L33.8944 743.344 Q30.6797 741.243 29.0883 738.41 Q27.4968 735.546 27.4968 731.822 Q27.4968 725.679 31.3163 722.528 Q35.1038 719.377 42.4881 719.377 Z" fill="#000000" fill-rule="nonzero" fill-opacity="1" /><path clip-path="url(#clip700)" d="M18.2347 701.903 L28.3562 701.903 L28.3562 689.84 L32.9077 689.84 L32.9077 701.903 L52.2594 701.903 Q56.6199 701.903 57.8613 700.725 Q59.1026 699.516 59.1026 695.855 L59.1026 689.84 L64.0042 689.84 L64.0042 695.855 Q64.0042 702.635 61.4897 705.213 Q58.9434 707.791 52.2594 707.791 L32.9077 707.791 L32.9077 712.088 L28.3562 712.088 L28.3562 707.791 L18.2347 707.791 L18.2347 701.903 Z" fill="#000000" fill-rule="nonzero" fill-opacity="1" /><path clip-path="url(#clip700)" d="M67.3143 667.305 Q73.68 669.788 75.6216 672.143 Q77.5631 674.498 77.5631 678.445 L77.5631 683.124 L72.6615 683.124 L72.6615 679.686 Q72.6615 677.267 71.5157 675.931 Q70.3699 674.594 66.1048 672.971 L63.4312 671.92 L28.3562 686.339 L28.3562 680.132 L56.238 668.992 L28.3562 657.852 L28.3562 651.646 L67.3143 667.305 Z" fill="#000000" fill-rule="nonzero" fill-opacity="1" /><path clip-path="url(#clip700)" d="M14.5426 608.772 Q21.8632 613.037 29.0246 615.106 Q36.186 617.175 43.5384 617.175 Q50.8908 617.175 58.1159 615.106 Q65.3091 613.006 72.5979 608.772 L72.5979 613.865 Q65.1182 618.639 57.8931 621.026 Q50.668 623.382 43.5384 623.382 Q36.4406 623.382 29.2474 621.026 Q22.0542 618.671 14.5426 613.865 L14.5426 608.772 Z" fill="#000000" fill-rule="nonzero" fill-opacity="1" /><path clip-path="url(#clip700)" d="M43.0928 556.16 Q43.0928 558.929 45.4481 560.52 Q47.8034 562.08 52.0048 562.08 Q56.1425 562.08 58.5296 560.52 Q60.885 558.929 60.885 556.16 Q60.885 553.454 58.5296 551.895 Q56.1425 550.303 52.0048 550.303 Q47.8353 550.303 45.48 551.895 Q43.0928 553.454 43.0928 556.16 M39.0506 556.16 Q39.0506 551.131 42.5517 548.171 Q46.0529 545.211 52.0048 545.211 Q57.9567 545.211 61.4579 548.203 Q64.9272 551.163 64.9272 556.16 Q64.9272 561.252 61.4579 564.213 Q57.9567 567.173 52.0048 567.173 Q46.021 567.173 42.5517 564.213 Q39.0506 561.221 39.0506 556.16 M19.667 589.007 Q19.667 591.744 22.0542 593.336 Q24.4095 594.895 28.5472 594.895 Q32.7485 594.895 35.1038 593.336 Q37.4592 591.776 37.4592 589.007 Q37.4592 586.238 35.1038 584.678 Q32.7485 583.087 28.5472 583.087 Q24.4413 583.087 22.0542 584.678 Q19.667 586.27 19.667 589.007 M15.6248 560.266 L15.6248 555.173 L64.9272 584.901 L64.9272 589.994 L15.6248 560.266 M15.6248 589.007 Q15.6248 583.978 19.1259 580.986 Q22.5952 577.994 28.5472 577.994 Q34.5628 577.994 38.0321 580.986 Q41.5014 583.946 41.5014 589.007 Q41.5014 594.068 38.0321 597.028 Q34.5309 599.956 28.5472 599.956 Q22.6271 599.956 19.1259 596.996 Q15.6248 594.036 15.6248 589.007 Z" fill="#000000" fill-rule="nonzero" fill-opacity="1" /><path clip-path="url(#clip700)" d="M14.5426 536.394 L14.5426 531.302 Q22.0542 526.528 29.2474 524.172 Q36.4406 521.785 43.5384 521.785 Q50.668 521.785 57.8931 524.172 Q65.1182 526.528 72.5979 531.302 L72.5979 536.394 Q65.3091 532.161 58.1159 530.092 Q50.8908 527.992 43.5384 527.992 Q36.186 527.992 29.0246 530.092 Q21.8632 532.161 14.5426 536.394 Z" fill="#000000" fill-rule="nonzero" fill-opacity="1" /><path clip-path="url(#clip700)" d="M871.339 12.096 L909.58 12.096 L909.58 18.9825 L879.522 18.9825 L879.522 36.8875 L908.324 36.8875 L908.324 43.7741 L879.522 43.7741 L879.522 65.6895 L910.309 65.6895 L910.309 72.576 L871.339 72.576 L871.339 12.096 Z" fill="#000000" fill-rule="nonzero" fill-opacity="1" /><path clip-path="url(#clip700)" d="M961.148 45.1919 L961.148 72.576 L953.694 72.576 L953.694 45.4349 Q953.694 38.994 951.183 35.7938 Q948.671 32.5936 943.648 32.5936 Q937.612 32.5936 934.128 36.4419 Q930.645 40.2903 930.645 46.9338 L930.645 72.576 L923.15 72.576 L923.15 27.2059 L930.645 27.2059 L930.645 34.2544 Q933.318 30.163 936.923 28.1376 Q940.569 26.1121 945.309 26.1121 Q953.127 26.1121 957.138 30.9732 Q961.148 35.7938 961.148 45.1919 Z" fill="#000000" fill-rule="nonzero" fill-opacity="1" /><path clip-path="url(#clip700)" d="M1014.82 48.0275 L1014.82 51.6733 L980.552 51.6733 Q981.038 59.3701 985.17 63.421 Q989.342 67.4314 996.755 67.4314 Q1001.05 67.4314 1005.06 66.3781 Q1009.11 65.3249 1013.08 63.2184 L1013.08 70.267 Q1009.07 71.9684 1004.86 72.8596 Q1000.64 73.7508 996.31 73.7508 Q985.453 73.7508 979.093 67.4314 Q972.774 61.1119 972.774 50.3365 Q972.774 39.1965 978.769 32.6746 Q984.805 26.1121 995.013 26.1121 Q1004.17 26.1121 1009.48 32.0264 Q1014.82 37.9003 1014.82 48.0275 M1007.37 45.84 Q1007.29 39.7232 1003.93 36.0774 Q1000.6 32.4315 995.094 32.4315 Q988.856 32.4315 985.089 35.9558 Q981.362 39.4801 980.795 45.8805 L1007.37 45.84 Z" fill="#000000" fill-rule="nonzero" fill-opacity="1" /><path clip-path="url(#clip700)" d="M1053.35 34.1734 Q1052.09 33.4443 1050.59 33.1202 Q1049.13 32.7556 1047.35 32.7556 Q1041.03 32.7556 1037.63 36.8875 Q1034.27 40.9789 1034.27 48.6757 L1034.27 72.576 L1026.77 72.576 L1026.77 27.2059 L1034.27 27.2059 L1034.27 34.2544 Q1036.62 30.1225 1040.38 28.1376 Q1044.15 26.1121 1049.54 26.1121 Q1050.31 26.1121 1051.24 26.2337 Q1052.17 26.3147 1053.31 26.5172 L1053.35 34.1734 Z" fill="#000000" fill-rule="nonzero" fill-opacity="1" /><path clip-path="url(#clip700)" d="M1089.56 49.3643 Q1089.56 41.2625 1086.2 36.8065 Q1082.88 32.3505 1076.84 32.3505 Q1070.85 32.3505 1067.48 36.8065 Q1064.16 41.2625 1064.16 49.3643 Q1064.16 57.4256 1067.48 61.8816 Q1070.85 66.3376 1076.84 66.3376 Q1082.88 66.3376 1086.2 61.8816 Q1089.56 57.4256 1089.56 49.3643 M1097.02 66.9452 Q1097.02 78.5308 1091.87 84.1616 Q1086.73 89.8329 1076.11 89.8329 Q1072.18 89.8329 1068.7 89.2252 Q1065.22 88.6581 1061.93 87.4428 L1061.93 80.1917 Q1065.22 81.9741 1068.42 82.8248 Q1071.62 83.6755 1074.94 83.6755 Q1082.27 83.6755 1085.92 79.8271 Q1089.56 76.0193 1089.56 68.282 L1089.56 64.5957 Q1087.25 68.6061 1083.65 70.5911 Q1080.04 72.576 1075.02 72.576 Q1066.67 72.576 1061.57 66.2161 Q1056.47 59.8562 1056.47 49.3643 Q1056.47 38.832 1061.57 32.472 Q1066.67 26.1121 1075.02 26.1121 Q1080.04 26.1121 1083.65 28.0971 Q1087.25 30.082 1089.56 34.0924 L1089.56 27.2059 L1097.02 27.2059 L1097.02 66.9452 Z" fill="#000000" fill-rule="nonzero" fill-opacity="1" /><path clip-path="url(#clip700)" d="M1131.25 76.7889 Q1128.09 84.8907 1125.09 87.3618 Q1122.09 89.8329 1117.07 89.8329 L1111.11 89.8329 L1111.11 83.5945 L1115.49 83.5945 Q1118.57 83.5945 1120.27 82.1361 Q1121.97 80.6778 1124.03 75.2496 L1125.37 71.8468 L1107.02 27.2059 L1114.92 27.2059 L1129.1 62.6918 L1143.28 27.2059 L1151.18 27.2059 L1131.25 76.7889 Z" fill="#000000" fill-rule="nonzero" fill-opacity="1" /><path clip-path="url(#clip700)" d="M1187.23 12.096 L1195.45 12.096 L1195.45 48.8377 Q1195.45 58.5599 1198.98 62.8538 Q1202.5 67.1073 1210.4 67.1073 Q1218.26 67.1073 1221.78 62.8538 Q1225.31 58.5599 1225.31 48.8377 L1225.31 12.096 L1233.53 12.096 L1233.53 49.8504 Q1233.53 61.6791 1227.66 67.7149 Q1221.82 73.7508 1210.4 73.7508 Q1198.94 73.7508 1193.06 67.7149 Q1187.23 61.6791 1187.23 49.8504 L1187.23 12.096 Z" fill="#000000" fill-rule="nonzero" fill-opacity="1" /><path clip-path="url(#clip700)" d="M1286.27 45.1919 L1286.27 72.576 L1278.82 72.576 L1278.82 45.4349 Q1278.82 38.994 1276.31 35.7938 Q1273.8 32.5936 1268.77 32.5936 Q1262.74 32.5936 1259.25 36.4419 Q1255.77 40.2903 1255.77 46.9338 L1255.77 72.576 L1248.28 72.576 L1248.28 27.2059 L1255.77 27.2059 L1255.77 34.2544 Q1258.44 30.163 1262.05 28.1376 Q1265.69 26.1121 1270.43 26.1121 Q1278.25 26.1121 1282.26 30.9732 Q1286.27 35.7938 1286.27 45.1919 Z" fill="#000000" fill-rule="nonzero" fill-opacity="1" /><path clip-path="url(#clip700)" d="M1333.79 28.9478 L1333.79 35.9153 Q1330.63 34.1734 1327.43 33.3227 Q1324.27 32.4315 1321.03 32.4315 Q1313.78 32.4315 1309.77 37.0496 Q1305.76 41.6271 1305.76 49.9314 Q1305.76 58.2358 1309.77 62.8538 Q1313.78 67.4314 1321.03 67.4314 Q1324.27 67.4314 1327.43 66.5807 Q1330.63 65.6895 1333.79 63.9476 L1333.79 70.8341 Q1330.67 72.2924 1327.31 73.0216 Q1323.99 73.7508 1320.22 73.7508 Q1309.97 73.7508 1303.94 67.3098 Q1297.9 60.8689 1297.9 49.9314 Q1297.9 38.832 1303.98 32.472 Q1310.09 26.1121 1320.71 26.1121 Q1324.15 26.1121 1327.43 26.8413 Q1330.71 27.5299 1333.79 28.9478 Z" fill="#000000" fill-rule="nonzero" fill-opacity="1" /><path clip-path="url(#clip700)" d="M1385.56 48.0275 L1385.56 51.6733 L1351.29 51.6733 Q1351.78 59.3701 1355.91 63.421 Q1360.08 67.4314 1367.49 67.4314 Q1371.79 67.4314 1375.8 66.3781 Q1379.85 65.3249 1383.82 63.2184 L1383.82 70.267 Q1379.81 71.9684 1375.6 72.8596 Q1371.38 73.7508 1367.05 73.7508 Q1356.19 73.7508 1349.83 67.4314 Q1343.51 61.1119 1343.51 50.3365 Q1343.51 39.1965 1349.51 32.6746 Q1355.54 26.1121 1365.75 26.1121 Q1374.91 26.1121 1380.21 32.0264 Q1385.56 37.9003 1385.56 48.0275 M1378.11 45.84 Q1378.03 39.7232 1374.66 36.0774 Q1371.34 32.4315 1365.83 32.4315 Q1359.59 32.4315 1355.83 35.9558 Q1352.1 39.4801 1351.53 45.8805 L1378.11 45.84 Z" fill="#000000" fill-rule="nonzero" fill-opacity="1" /><path clip-path="url(#clip700)" d="M1424.09 34.1734 Q1422.83 33.4443 1421.33 33.1202 Q1419.87 32.7556 1418.09 32.7556 Q1411.77 32.7556 1408.37 36.8875 Q1405.01 40.9789 1405.01 48.6757 L1405.01 72.576 L1397.51 72.576 L1397.51 27.2059 L1405.01 27.2059 L1405.01 34.2544 Q1407.35 30.1225 1411.12 28.1376 Q1414.89 26.1121 1420.28 26.1121 Q1421.05 26.1121 1421.98 26.2337 Q1422.91 26.3147 1424.04 26.5172 L1424.09 34.1734 Z" fill="#000000" fill-rule="nonzero" fill-opacity="1" /><path clip-path="url(#clip700)" d="M1439.28 14.324 L1439.28 27.2059 L1454.63 27.2059 L1454.63 32.9987 L1439.28 32.9987 L1439.28 57.6282 Q1439.28 63.1779 1440.77 64.7578 Q1442.31 66.3376 1446.97 66.3376 L1454.63 66.3376 L1454.63 72.576 L1446.97 72.576 Q1438.34 72.576 1435.06 69.3758 Q1431.78 66.1351 1431.78 57.6282 L1431.78 32.9987 L1426.31 32.9987 L1426.31 27.2059 L1431.78 27.2059 L1431.78 14.324 L1439.28 14.324 Z" fill="#000000" fill-rule="nonzero" fill-opacity="1" /><path clip-path="url(#clip700)" d="M1485.05 49.7694 Q1476.02 49.7694 1472.53 51.8354 Q1469.05 53.9013 1469.05 58.8839 Q1469.05 62.8538 1471.64 65.2034 Q1474.28 67.5124 1478.77 67.5124 Q1484.97 67.5124 1488.7 63.1374 Q1492.46 58.7219 1492.46 51.4303 L1492.46 49.7694 L1485.05 49.7694 M1499.92 46.6907 L1499.92 72.576 L1492.46 72.576 L1492.46 65.6895 Q1489.91 69.8214 1486.1 71.8063 Q1482.3 73.7508 1476.79 73.7508 Q1469.82 73.7508 1465.69 69.8619 Q1461.6 65.9325 1461.6 59.3701 Q1461.6 51.7138 1466.7 47.825 Q1471.85 43.9361 1482.01 43.9361 L1492.46 43.9361 L1492.46 43.2069 Q1492.46 38.0623 1489.06 35.2672 Q1485.7 32.4315 1479.58 32.4315 Q1475.69 32.4315 1472.01 33.3632 Q1468.32 34.295 1464.92 36.1584 L1464.92 29.2718 Q1469.01 27.692 1472.86 26.9223 Q1476.71 26.1121 1480.35 26.1121 Q1490.2 26.1121 1495.06 31.2163 Q1499.92 36.3204 1499.92 46.6907 Z" fill="#000000" fill-rule="nonzero" fill-opacity="1" /><path clip-path="url(#clip700)" d="M1515.27 27.2059 L1522.72 27.2059 L1522.72 72.576 L1515.27 72.576 L1515.27 27.2059 M1515.27 9.54393 L1522.72 9.54393 L1522.72 18.9825 L1515.27 18.9825 L1515.27 9.54393 Z" fill="#000000" fill-rule="nonzero" fill-opacity="1" /><path clip-path="url(#clip700)" d="M1576.03 45.1919 L1576.03 72.576 L1568.58 72.576 L1568.58 45.4349 Q1568.58 38.994 1566.07 35.7938 Q1563.56 32.5936 1558.53 32.5936 Q1552.5 32.5936 1549.02 36.4419 Q1545.53 40.2903 1545.53 46.9338 L1545.53 72.576 L1538.04 72.576 L1538.04 27.2059 L1545.53 27.2059 L1545.53 34.2544 Q1548.2 30.163 1551.81 28.1376 Q1555.46 26.1121 1560.2 26.1121 Q1568.01 26.1121 1572.02 30.9732 Q1576.03 35.7938 1576.03 45.1919 Z" fill="#000000" fill-rule="nonzero" fill-opacity="1" /><path clip-path="url(#clip700)" d="M1598.27 14.324 L1598.27 27.2059 L1613.63 27.2059 L1613.63 32.9987 L1598.27 32.9987 L1598.27 57.6282 Q1598.27 63.1779 1599.77 64.7578 Q1601.31 66.3376 1605.97 66.3376 L1613.63 66.3376 L1613.63 72.576 L1605.97 72.576 Q1597.34 72.576 1594.06 69.3758 Q1590.78 66.1351 1590.78 57.6282 L1590.78 32.9987 L1585.31 32.9987 L1585.31 27.2059 L1590.78 27.2059 L1590.78 14.324 L1598.27 14.324 Z" fill="#000000" fill-rule="nonzero" fill-opacity="1" /><path clip-path="url(#clip700)" d="M1623.43 27.2059 L1630.88 27.2059 L1630.88 72.576 L1623.43 72.576 L1623.43 27.2059 M1623.43 9.54393 L1630.88 9.54393 L1630.88 18.9825 L1623.43 18.9825 L1623.43 9.54393 Z" fill="#000000" fill-rule="nonzero" fill-opacity="1" /><path clip-path="url(#clip700)" d="M1685.29 48.0275 L1685.29 51.6733 L1651.02 51.6733 Q1651.5 59.3701 1655.63 63.421 Q1659.81 67.4314 1667.22 67.4314 Q1671.51 67.4314 1675.52 66.3781 Q1679.58 65.3249 1683.55 63.2184 L1683.55 70.267 Q1679.54 71.9684 1675.32 72.8596 Q1671.11 73.7508 1666.77 73.7508 Q1655.92 73.7508 1649.56 67.4314 Q1643.24 61.1119 1643.24 50.3365 Q1643.24 39.1965 1649.23 32.6746 Q1655.27 26.1121 1665.48 26.1121 Q1674.63 26.1121 1679.94 32.0264 Q1685.29 37.9003 1685.29 48.0275 M1677.83 45.84 Q1677.75 39.7232 1674.39 36.0774 Q1671.07 32.4315 1665.56 32.4315 Q1659.32 32.4315 1655.55 35.9558 Q1651.83 39.4801 1651.26 45.8805 L1677.83 45.84 Z" fill="#000000" fill-rule="nonzero" fill-opacity="1" /><path clip-path="url(#clip700)" d="M1726.44 28.5427 L1726.44 35.5912 Q1723.29 33.9709 1719.88 33.1607 Q1716.48 32.3505 1712.83 32.3505 Q1707.28 32.3505 1704.49 34.0519 Q1701.73 35.7533 1701.73 39.156 Q1701.73 41.7486 1703.72 43.2475 Q1705.7 44.7058 1711.7 46.0426 L1714.25 46.6097 Q1722.19 48.3111 1725.51 51.4303 Q1728.88 54.509 1728.88 60.0587 Q1728.88 66.3781 1723.85 70.0644 Q1718.87 73.7508 1710.12 73.7508 Q1706.47 73.7508 1702.5 73.0216 Q1698.57 72.3329 1694.2 70.9151 L1694.2 63.2184 Q1698.33 65.3654 1702.34 66.4591 Q1706.35 67.5124 1710.28 67.5124 Q1715.55 67.5124 1718.38 65.73 Q1721.22 63.9071 1721.22 60.6258 Q1721.22 57.5877 1719.15 55.9673 Q1717.13 54.3469 1710.2 52.8481 L1707.61 52.2405 Q1700.68 50.7821 1697.6 47.7845 Q1694.52 44.7463 1694.52 39.4801 Q1694.52 33.0797 1699.06 29.5959 Q1703.6 26.1121 1711.94 26.1121 Q1716.07 26.1121 1719.72 26.7198 Q1723.37 27.3274 1726.44 28.5427 Z" fill="#000000" fill-rule="nonzero" fill-opacity="1" /><polyline clip-path="url(#clip702)" style="stroke:#000000; stroke-linecap:round; stroke-linejoin:round; stroke-width:4; stroke-opacity:1; fill:none" points="307.896,1354.41 530.604,1385.3 751.823,1373.06 972.201,1357.75 1191.25,1344.47 1412.17,1332.09 1633.36,1336.93 1851.08,1330.53 2077.74,1335.77 2293.17,1307.61 "/>
<polyline clip-path="url(#clip702)" style="stroke:#000000; stroke-linecap:round; stroke-linejoin:round; stroke-width:4; stroke-opacity:1; fill:none" points="307.896,1359.73 307.896,1349.08 "/>
<polyline clip-path="url(#clip702)" style="stroke:#000000; stroke-linecap:round; stroke-linejoin:round; stroke-width:4; stroke-opacity:1; fill:none" points="530.604,1386.4 530.604,1384.2 "/>
<polyline clip-path="url(#clip702)" style="stroke:#000000; stroke-linecap:round; stroke-linejoin:round; stroke-width:4; stroke-opacity:1; fill:none" points="751.823,1377.83 751.823,1368.3 "/>
<polyline clip-path="url(#clip702)" style="stroke:#000000; stroke-linecap:round; stroke-linejoin:round; stroke-width:4; stroke-opacity:1; fill:none" points="972.201,1361.6 972.201,1353.89 "/>
<polyline clip-path="url(#clip702)" style="stroke:#000000; stroke-linecap:round; stroke-linejoin:round; stroke-width:4; stroke-opacity:1; fill:none" points="1191.25,1349.07 1191.25,1339.87 "/>
<polyline clip-path="url(#clip702)" style="stroke:#000000; stroke-linecap:round; stroke-linejoin:round; stroke-width:4; stroke-opacity:1; fill:none" points="1412.17,1340.62 1412.17,1323.55 "/>
<polyline clip-path="url(#clip702)" style="stroke:#000000; stroke-linecap:round; stroke-linejoin:round; stroke-width:4; stroke-opacity:1; fill:none" points="1633.36,1343.45 1633.36,1330.41 "/>
<polyline clip-path="url(#clip702)" style="stroke:#000000; stroke-linecap:round; stroke-linejoin:round; stroke-width:4; stroke-opacity:1; fill:none" points="1851.08,1341.59 1851.08,1319.47 "/>
<polyline clip-path="url(#clip702)" style="stroke:#000000; stroke-linecap:round; stroke-linejoin:round; stroke-width:4; stroke-opacity:1; fill:none" points="2077.74,1339.94 2077.74,1331.59 "/>
<polyline clip-path="url(#clip702)" style="stroke:#000000; stroke-linecap:round; stroke-linejoin:round; stroke-width:4; stroke-opacity:1; fill:none" points="2293.17,1317.44 2293.17,1297.77 "/>
<line clip-path="url(#clip702)" x1="323.896" y1="1359.73" x2="291.896" y2="1359.73" style="stroke:#000000; stroke-width:4; stroke-opacity:1"/>
<line clip-path="url(#clip702)" x1="323.896" y1="1349.08" x2="291.896" y2="1349.08" style="stroke:#000000; stroke-width:4; stroke-opacity:1"/>
<line clip-path="url(#clip702)" x1="546.604" y1="1386.4" x2="514.604" y2="1386.4" style="stroke:#000000; stroke-width:4; stroke-opacity:1"/>
<line clip-path="url(#clip702)" x1="546.604" y1="1384.2" x2="514.604" y2="1384.2" style="stroke:#000000; stroke-width:4; stroke-opacity:1"/>
<line clip-path="url(#clip702)" x1="767.823" y1="1377.83" x2="735.823" y2="1377.83" style="stroke:#000000; stroke-width:4; stroke-opacity:1"/>
<line clip-path="url(#clip702)" x1="767.823" y1="1368.3" x2="735.823" y2="1368.3" style="stroke:#000000; stroke-width:4; stroke-opacity:1"/>
<line clip-path="url(#clip702)" x1="988.201" y1="1361.6" x2="956.201" y2="1361.6" style="stroke:#000000; stroke-width:4; stroke-opacity:1"/>
<line clip-path="url(#clip702)" x1="988.201" y1="1353.89" x2="956.201" y2="1353.89" style="stroke:#000000; stroke-width:4; stroke-opacity:1"/>
<line clip-path="url(#clip702)" x1="1207.25" y1="1349.07" x2="1175.25" y2="1349.07" style="stroke:#000000; stroke-width:4; stroke-opacity:1"/>
<line clip-path="url(#clip702)" x1="1207.25" y1="1339.87" x2="1175.25" y2="1339.87" style="stroke:#000000; stroke-width:4; stroke-opacity:1"/>
<line clip-path="url(#clip702)" x1="1428.17" y1="1340.62" x2="1396.17" y2="1340.62" style="stroke:#000000; stroke-width:4; stroke-opacity:1"/>
<line clip-path="url(#clip702)" x1="1428.17" y1="1323.55" x2="1396.17" y2="1323.55" style="stroke:#000000; stroke-width:4; stroke-opacity:1"/>
<line clip-path="url(#clip702)" x1="1649.36" y1="1343.45" x2="1617.36" y2="1343.45" style="stroke:#000000; stroke-width:4; stroke-opacity:1"/>
<line clip-path="url(#clip702)" x1="1649.36" y1="1330.41" x2="1617.36" y2="1330.41" style="stroke:#000000; stroke-width:4; stroke-opacity:1"/>
<line clip-path="url(#clip702)" x1="1867.08" y1="1341.59" x2="1835.08" y2="1341.59" style="stroke:#000000; stroke-width:4; stroke-opacity:1"/>
<line clip-path="url(#clip702)" x1="1867.08" y1="1319.47" x2="1835.08" y2="1319.47" style="stroke:#000000; stroke-width:4; stroke-opacity:1"/>
<line clip-path="url(#clip702)" x1="2093.74" y1="1339.94" x2="2061.74" y2="1339.94" style="stroke:#000000; stroke-width:4; stroke-opacity:1"/>
<line clip-path="url(#clip702)" x1="2093.74" y1="1331.59" x2="2061.74" y2="1331.59" style="stroke:#000000; stroke-width:4; stroke-opacity:1"/>
<line clip-path="url(#clip702)" x1="2309.17" y1="1317.44" x2="2277.17" y2="1317.44" style="stroke:#000000; stroke-width:4; stroke-opacity:1"/>
<line clip-path="url(#clip702)" x1="2309.17" y1="1297.77" x2="2277.17" y2="1297.77" style="stroke:#000000; stroke-width:4; stroke-opacity:1"/>
<polyline clip-path="url(#clip702)" style="stroke:#0000ff; stroke-linecap:round; stroke-linejoin:round; stroke-width:4; stroke-opacity:1; fill:none" points="307.22,1296.91 529.632,1225.99 749.733,1146.32 969.309,1078.91 1187.9,1010.71 1403.32,923.974 1632.14,866.134 1832.37,883.544 2062.03,804.119 2280.51,712.029 "/>
<polyline clip-path="url(#clip702)" style="stroke:#0000ff; stroke-linecap:round; stroke-linejoin:round; stroke-width:4; stroke-opacity:1; fill:none" points="307.22,1303.59 307.22,1290.23 "/>
<polyline clip-path="url(#clip702)" style="stroke:#0000ff; stroke-linecap:round; stroke-linejoin:round; stroke-width:4; stroke-opacity:1; fill:none" points="529.632,1230.95 529.632,1221.03 "/>
<polyline clip-path="url(#clip702)" style="stroke:#0000ff; stroke-linecap:round; stroke-linejoin:round; stroke-width:4; stroke-opacity:1; fill:none" points="749.733,1149.78 749.733,1142.85 "/>
<polyline clip-path="url(#clip702)" style="stroke:#0000ff; stroke-linecap:round; stroke-linejoin:round; stroke-width:4; stroke-opacity:1; fill:none" points="969.309,1093.67 969.309,1064.14 "/>
<polyline clip-path="url(#clip702)" style="stroke:#0000ff; stroke-linecap:round; stroke-linejoin:round; stroke-width:4; stroke-opacity:1; fill:none" points="1187.9,1025.55 1187.9,995.863 "/>
<polyline clip-path="url(#clip702)" style="stroke:#0000ff; stroke-linecap:round; stroke-linejoin:round; stroke-width:4; stroke-opacity:1; fill:none" points="1403.32,937.503 1403.32,910.445 "/>
<polyline clip-path="url(#clip702)" style="stroke:#0000ff; stroke-linecap:round; stroke-linejoin:round; stroke-width:4; stroke-opacity:1; fill:none" points="1632.14,889.57 1632.14,842.699 "/>
<polyline clip-path="url(#clip702)" style="stroke:#0000ff; stroke-linecap:round; stroke-linejoin:round; stroke-width:4; stroke-opacity:1; fill:none" points="1832.37,906.908 1832.37,860.18 "/>
<polyline clip-path="url(#clip702)" style="stroke:#0000ff; stroke-linecap:round; stroke-linejoin:round; stroke-width:4; stroke-opacity:1; fill:none" points="2062.03,860.94 2062.03,747.297 "/>
<polyline clip-path="url(#clip702)" style="stroke:#0000ff; stroke-linecap:round; stroke-linejoin:round; stroke-width:4; stroke-opacity:1; fill:none" points="2280.51,746.047 2280.51,678.01 "/>
<line clip-path="url(#clip702)" x1="323.22" y1="1303.59" x2="291.22" y2="1303.59" style="stroke:#0000ff; stroke-width:4; stroke-opacity:1"/>
<line clip-path="url(#clip702)" x1="323.22" y1="1290.23" x2="291.22" y2="1290.23" style="stroke:#0000ff; stroke-width:4; stroke-opacity:1"/>
<line clip-path="url(#clip702)" x1="545.632" y1="1230.95" x2="513.632" y2="1230.95" style="stroke:#0000ff; stroke-width:4; stroke-opacity:1"/>
<line clip-path="url(#clip702)" x1="545.632" y1="1221.03" x2="513.632" y2="1221.03" style="stroke:#0000ff; stroke-width:4; stroke-opacity:1"/>
<line clip-path="url(#clip702)" x1="765.733" y1="1149.78" x2="733.733" y2="1149.78" style="stroke:#0000ff; stroke-width:4; stroke-opacity:1"/>
<line clip-path="url(#clip702)" x1="765.733" y1="1142.85" x2="733.733" y2="1142.85" style="stroke:#0000ff; stroke-width:4; stroke-opacity:1"/>
<line clip-path="url(#clip702)" x1="985.309" y1="1093.67" x2="953.309" y2="1093.67" style="stroke:#0000ff; stroke-width:4; stroke-opacity:1"/>
<line clip-path="url(#clip702)" x1="985.309" y1="1064.14" x2="953.309" y2="1064.14" style="stroke:#0000ff; stroke-width:4; stroke-opacity:1"/>
<line clip-path="url(#clip702)" x1="1203.9" y1="1025.55" x2="1171.9" y2="1025.55" style="stroke:#0000ff; stroke-width:4; stroke-opacity:1"/>
<line clip-path="url(#clip702)" x1="1203.9" y1="995.863" x2="1171.9" y2="995.863" style="stroke:#0000ff; stroke-width:4; stroke-opacity:1"/>
<line clip-path="url(#clip702)" x1="1419.32" y1="937.503" x2="1387.32" y2="937.503" style="stroke:#0000ff; stroke-width:4; stroke-opacity:1"/>
<line clip-path="url(#clip702)" x1="1419.32" y1="910.445" x2="1387.32" y2="910.445" style="stroke:#0000ff; stroke-width:4; stroke-opacity:1"/>
<line clip-path="url(#clip702)" x1="1648.14" y1="889.57" x2="1616.14" y2="889.57" style="stroke:#0000ff; stroke-width:4; stroke-opacity:1"/>
<line clip-path="url(#clip702)" x1="1648.14" y1="842.699" x2="1616.14" y2="842.699" style="stroke:#0000ff; stroke-width:4; stroke-opacity:1"/>
<line clip-path="url(#clip702)" x1="1848.37" y1="906.908" x2="1816.37" y2="906.908" style="stroke:#0000ff; stroke-width:4; stroke-opacity:1"/>
<line clip-path="url(#clip702)" x1="1848.37" y1="860.18" x2="1816.37" y2="860.18" style="stroke:#0000ff; stroke-width:4; stroke-opacity:1"/>
<line clip-path="url(#clip702)" x1="2078.03" y1="860.94" x2="2046.03" y2="860.94" style="stroke:#0000ff; stroke-width:4; stroke-opacity:1"/>
<line clip-path="url(#clip702)" x1="2078.03" y1="747.297" x2="2046.03" y2="747.297" style="stroke:#0000ff; stroke-width:4; stroke-opacity:1"/>
<line clip-path="url(#clip702)" x1="2296.51" y1="746.047" x2="2264.51" y2="746.047" style="stroke:#0000ff; stroke-width:4; stroke-opacity:1"/>
<line clip-path="url(#clip702)" x1="2296.51" y1="678.01" x2="2264.51" y2="678.01" style="stroke:#0000ff; stroke-width:4; stroke-opacity:1"/>
<polyline clip-path="url(#clip702)" style="stroke:#ff0000; stroke-linecap:round; stroke-linejoin:round; stroke-width:4; stroke-opacity:1; fill:none" points="307.043,1235.6 527.951,1035.38 749.858,887.226 968.32,754.658 1183.83,571.455 1387.54,524.326 1634.57,394.437 1824.38,315.588 2049.75,284.901 2249.67,272.747 "/>
<polyline clip-path="url(#clip702)" style="stroke:#ff0000; stroke-linecap:round; stroke-linejoin:round; stroke-width:4; stroke-opacity:1; fill:none" points="307.043,1239.12 307.043,1232.08 "/>
<polyline clip-path="url(#clip702)" style="stroke:#ff0000; stroke-linecap:round; stroke-linejoin:round; stroke-width:4; stroke-opacity:1; fill:none" points="527.951,1042.74 527.951,1028.01 "/>
<polyline clip-path="url(#clip702)" style="stroke:#ff0000; stroke-linecap:round; stroke-linejoin:round; stroke-width:4; stroke-opacity:1; fill:none" points="749.858,928.697 749.858,845.754 "/>
<polyline clip-path="url(#clip702)" style="stroke:#ff0000; stroke-linecap:round; stroke-linejoin:round; stroke-width:4; stroke-opacity:1; fill:none" points="968.32,776.109 968.32,733.207 "/>
<polyline clip-path="url(#clip702)" style="stroke:#ff0000; stroke-linecap:round; stroke-linejoin:round; stroke-width:4; stroke-opacity:1; fill:none" points="1183.83,611.472 1183.83,531.437 "/>
<polyline clip-path="url(#clip702)" style="stroke:#ff0000; stroke-linecap:round; stroke-linejoin:round; stroke-width:4; stroke-opacity:1; fill:none" points="1387.54,590.802 1387.54,457.851 "/>
<polyline clip-path="url(#clip702)" style="stroke:#ff0000; stroke-linecap:round; stroke-linejoin:round; stroke-width:4; stroke-opacity:1; fill:none" points="1634.57,474.929 1634.57,313.945 "/>
<polyline clip-path="url(#clip702)" style="stroke:#ff0000; stroke-linecap:round; stroke-linejoin:round; stroke-width:4; stroke-opacity:1; fill:none" points="1824.38,423.556 1824.38,207.621 "/>
<polyline clip-path="url(#clip702)" style="stroke:#ff0000; stroke-linecap:round; stroke-linejoin:round; stroke-width:4; stroke-opacity:1; fill:none" points="2049.75,371.862 2049.75,197.94 "/>
<polyline clip-path="url(#clip702)" style="stroke:#ff0000; stroke-linecap:round; stroke-linejoin:round; stroke-width:4; stroke-opacity:1; fill:none" points="2249.67,385.239 2249.67,160.256 "/>
<line clip-path="url(#clip702)" x1="323.043" y1="1239.12" x2="291.043" y2="1239.12" style="stroke:#ff0000; stroke-width:4; stroke-opacity:1"/>
<line clip-path="url(#clip702)" x1="323.043" y1="1232.08" x2="291.043" y2="1232.08" style="stroke:#ff0000; stroke-width:4; stroke-opacity:1"/>
<line clip-path="url(#clip702)" x1="543.951" y1="1042.74" x2="511.951" y2="1042.74" style="stroke:#ff0000; stroke-width:4; stroke-opacity:1"/>
<line clip-path="url(#clip702)" x1="543.951" y1="1028.01" x2="511.951" y2="1028.01" style="stroke:#ff0000; stroke-width:4; stroke-opacity:1"/>
<line clip-path="url(#clip702)" x1="765.858" y1="928.697" x2="733.858" y2="928.697" style="stroke:#ff0000; stroke-width:4; stroke-opacity:1"/>
<line clip-path="url(#clip702)" x1="765.858" y1="845.754" x2="733.858" y2="845.754" style="stroke:#ff0000; stroke-width:4; stroke-opacity:1"/>
<line clip-path="url(#clip702)" x1="984.32" y1="776.109" x2="952.32" y2="776.109" style="stroke:#ff0000; stroke-width:4; stroke-opacity:1"/>
<line clip-path="url(#clip702)" x1="984.32" y1="733.207" x2="952.32" y2="733.207" style="stroke:#ff0000; stroke-width:4; stroke-opacity:1"/>
<line clip-path="url(#clip702)" x1="1199.83" y1="611.472" x2="1167.83" y2="611.472" style="stroke:#ff0000; stroke-width:4; stroke-opacity:1"/>
<line clip-path="url(#clip702)" x1="1199.83" y1="531.437" x2="1167.83" y2="531.437" style="stroke:#ff0000; stroke-width:4; stroke-opacity:1"/>
<line clip-path="url(#clip702)" x1="1403.54" y1="590.802" x2="1371.54" y2="590.802" style="stroke:#ff0000; stroke-width:4; stroke-opacity:1"/>
<line clip-path="url(#clip702)" x1="1403.54" y1="457.851" x2="1371.54" y2="457.851" style="stroke:#ff0000; stroke-width:4; stroke-opacity:1"/>
<line clip-path="url(#clip702)" x1="1650.57" y1="474.929" x2="1618.57" y2="474.929" style="stroke:#ff0000; stroke-width:4; stroke-opacity:1"/>
<line clip-path="url(#clip702)" x1="1650.57" y1="313.945" x2="1618.57" y2="313.945" style="stroke:#ff0000; stroke-width:4; stroke-opacity:1"/>
<line clip-path="url(#clip702)" x1="1840.38" y1="423.556" x2="1808.38" y2="423.556" style="stroke:#ff0000; stroke-width:4; stroke-opacity:1"/>
<line clip-path="url(#clip702)" x1="1840.38" y1="207.621" x2="1808.38" y2="207.621" style="stroke:#ff0000; stroke-width:4; stroke-opacity:1"/>
<line clip-path="url(#clip702)" x1="2065.75" y1="371.862" x2="2033.75" y2="371.862" style="stroke:#ff0000; stroke-width:4; stroke-opacity:1"/>
<line clip-path="url(#clip702)" x1="2065.75" y1="197.94" x2="2033.75" y2="197.94" style="stroke:#ff0000; stroke-width:4; stroke-opacity:1"/>
<line clip-path="url(#clip702)" x1="2265.67" y1="385.239" x2="2233.67" y2="385.239" style="stroke:#ff0000; stroke-width:4; stroke-opacity:1"/>
<line clip-path="url(#clip702)" x1="2265.67" y1="160.256" x2="2233.67" y2="160.256" style="stroke:#ff0000; stroke-width:4; stroke-opacity:1"/>
<path clip-path="url(#clip700)" d="M317.635 374.156 L665.919 374.156 L665.919 166.796 L317.635 166.796  Z" fill="#ffffff" fill-rule="evenodd" fill-opacity="1"/>
<polyline clip-path="url(#clip700)" style="stroke:#000000; stroke-linecap:round; stroke-linejoin:round; stroke-width:4; stroke-opacity:1; fill:none" points="317.635,374.156 665.919,374.156 665.919,166.796 317.635,166.796 317.635,374.156 "/>
<polyline clip-path="url(#clip700)" style="stroke:#000000; stroke-linecap:round; stroke-linejoin:round; stroke-width:4; stroke-opacity:1; fill:none" points="341.027,218.636 481.381,218.636 "/>
<path clip-path="url(#clip700)" d="M504.773 201.356 L509.449 201.356 L509.449 235.916 L504.773 235.916 L504.773 201.356 Z" fill="#000000" fill-rule="nonzero" fill-opacity="1" /><path clip-path="url(#clip700)" d="M535.629 213.925 L535.629 199.897 L539.888 199.897 L539.888 235.916 L535.629 235.916 L535.629 232.027 Q534.287 234.342 532.226 235.476 Q530.189 236.587 527.319 236.587 Q522.62 236.587 519.657 232.837 Q516.717 229.087 516.717 222.976 Q516.717 216.865 519.657 213.115 Q522.62 209.365 527.319 209.365 Q530.189 209.365 532.226 210.499 Q534.287 211.61 535.629 213.925 M521.115 222.976 Q521.115 227.675 523.037 230.36 Q524.981 233.022 528.361 233.022 Q531.74 233.022 533.685 230.36 Q535.629 227.675 535.629 222.976 Q535.629 218.277 533.685 215.615 Q531.74 212.93 528.361 212.93 Q524.981 212.93 523.037 215.615 Q521.115 218.277 521.115 222.976 Z" fill="#000000" fill-rule="nonzero" fill-opacity="1" /><path clip-path="url(#clip700)" d="M570.837 221.888 L570.837 223.971 L551.254 223.971 Q551.532 228.369 553.893 230.684 Q556.277 232.976 560.513 232.976 Q562.967 232.976 565.259 232.374 Q567.573 231.772 569.842 230.569 L569.842 234.596 Q567.55 235.568 565.143 236.078 Q562.735 236.587 560.259 236.587 Q554.055 236.587 550.421 232.976 Q546.81 229.365 546.81 223.207 Q546.81 216.842 550.236 213.115 Q553.685 209.365 559.518 209.365 Q564.749 209.365 567.782 212.745 Q570.837 216.101 570.837 221.888 M566.578 220.638 Q566.532 217.143 564.61 215.059 Q562.712 212.976 559.564 212.976 Q555.999 212.976 553.847 214.99 Q551.717 217.004 551.393 220.661 L566.578 220.638 Z" fill="#000000" fill-rule="nonzero" fill-opacity="1" /><path clip-path="url(#clip700)" d="M589.61 222.883 Q584.448 222.883 582.458 224.064 Q580.467 225.244 580.467 228.092 Q580.467 230.36 581.948 231.703 Q583.453 233.022 586.022 233.022 Q589.564 233.022 591.694 230.522 Q593.846 227.999 593.846 223.832 L593.846 222.883 L589.61 222.883 M598.106 221.124 L598.106 235.916 L593.846 235.916 L593.846 231.981 Q592.388 234.342 590.212 235.476 Q588.036 236.587 584.888 236.587 Q580.907 236.587 578.546 234.365 Q576.208 232.119 576.208 228.369 Q576.208 223.994 579.124 221.772 Q582.064 219.55 587.874 219.55 L593.846 219.55 L593.846 219.133 Q593.846 216.194 591.902 214.596 Q589.981 212.976 586.485 212.976 Q584.263 212.976 582.157 213.508 Q580.05 214.041 578.106 215.106 L578.106 211.17 Q580.444 210.268 582.643 209.828 Q584.842 209.365 586.925 209.365 Q592.55 209.365 595.328 212.282 Q598.106 215.198 598.106 221.124 Z" fill="#000000" fill-rule="nonzero" fill-opacity="1" /><path clip-path="url(#clip700)" d="M606.879 199.897 L611.138 199.897 L611.138 235.916 L606.879 235.916 L606.879 199.897 Z" fill="#000000" fill-rule="nonzero" fill-opacity="1" /><polyline clip-path="url(#clip700)" style="stroke:#0000ff; stroke-linecap:round; stroke-linejoin:round; stroke-width:4; stroke-opacity:1; fill:none" points="341.027,270.476 481.381,270.476 "/>
<path clip-path="url(#clip700)" d="M506.231 253.196 L524.588 253.196 L524.588 257.131 L510.514 257.131 L510.514 265.603 Q511.532 265.256 512.551 265.094 Q513.569 264.909 514.588 264.909 Q520.375 264.909 523.754 268.08 Q527.134 271.251 527.134 276.668 Q527.134 282.246 523.662 285.348 Q520.189 288.427 513.87 288.427 Q511.694 288.427 509.426 288.057 Q507.18 287.686 504.773 286.946 L504.773 282.246 Q506.856 283.381 509.078 283.936 Q511.301 284.492 513.777 284.492 Q517.782 284.492 520.12 282.385 Q522.458 280.279 522.458 276.668 Q522.458 273.057 520.12 270.95 Q517.782 268.844 513.777 268.844 Q511.902 268.844 510.027 269.26 Q508.176 269.677 506.231 270.557 L506.231 253.196 Z" fill="#000000" fill-rule="nonzero" fill-opacity="1" /><path clip-path="url(#clip700)" d="M546.347 256.274 Q542.736 256.274 540.907 259.839 Q539.101 263.381 539.101 270.51 Q539.101 277.617 540.907 281.182 Q542.736 284.723 546.347 284.723 Q549.981 284.723 551.786 281.182 Q553.615 277.617 553.615 270.51 Q553.615 263.381 551.786 259.839 Q549.981 256.274 546.347 256.274 M546.347 252.571 Q552.157 252.571 555.212 257.177 Q558.291 261.76 558.291 270.51 Q558.291 279.237 555.212 283.844 Q552.157 288.427 546.347 288.427 Q540.537 288.427 537.458 283.844 Q534.402 279.237 534.402 270.51 Q534.402 261.76 537.458 257.177 Q540.537 252.571 546.347 252.571 Z" fill="#000000" fill-rule="nonzero" fill-opacity="1" /><path clip-path="url(#clip700)" d="M570.027 283.867 L570.027 297.617 L565.745 297.617 L565.745 261.83 L570.027 261.83 L570.027 265.765 Q571.37 263.45 573.407 262.339 Q575.467 261.205 578.314 261.205 Q583.036 261.205 585.976 264.955 Q588.939 268.705 588.939 274.816 Q588.939 280.927 585.976 284.677 Q583.036 288.427 578.314 288.427 Q575.467 288.427 573.407 287.316 Q571.37 286.182 570.027 283.867 M584.518 274.816 Q584.518 270.117 582.573 267.455 Q580.652 264.77 577.272 264.77 Q573.893 264.77 571.948 267.455 Q570.027 270.117 570.027 274.816 Q570.027 279.515 571.948 282.2 Q573.893 284.862 577.272 284.862 Q580.652 284.862 582.573 282.2 Q584.518 279.515 584.518 274.816 Z" fill="#000000" fill-rule="nonzero" fill-opacity="1" /><path clip-path="url(#clip700)" d="M612.527 262.594 L612.527 266.622 Q610.721 265.696 608.777 265.233 Q606.832 264.77 604.749 264.77 Q601.578 264.77 599.981 265.742 Q598.407 266.714 598.407 268.659 Q598.407 270.14 599.541 270.997 Q600.675 271.83 604.101 272.594 L605.559 272.918 Q610.096 273.89 611.994 275.672 Q613.916 277.432 613.916 280.603 Q613.916 284.214 611.045 286.321 Q608.198 288.427 603.198 288.427 Q601.115 288.427 598.846 288.01 Q596.601 287.617 594.101 286.807 L594.101 282.409 Q596.462 283.635 598.754 284.26 Q601.045 284.862 603.291 284.862 Q606.3 284.862 607.92 283.844 Q609.541 282.802 609.541 280.927 Q609.541 279.191 608.36 278.265 Q607.203 277.339 603.245 276.483 L601.763 276.135 Q597.805 275.302 596.045 273.589 Q594.286 271.853 594.286 268.844 Q594.286 265.186 596.879 263.196 Q599.471 261.205 604.24 261.205 Q606.601 261.205 608.684 261.552 Q610.768 261.899 612.527 262.594 Z" fill="#000000" fill-rule="nonzero" fill-opacity="1" /><polyline clip-path="url(#clip700)" style="stroke:#ff0000; stroke-linecap:round; stroke-linejoin:round; stroke-width:4; stroke-opacity:1; fill:none" points="341.027,322.316 481.381,322.316 "/>
<path clip-path="url(#clip700)" d="M505.444 335.661 L513.083 335.661 L513.083 309.295 L504.773 310.962 L504.773 306.702 L513.037 305.036 L517.713 305.036 L517.713 335.661 L525.351 335.661 L525.351 339.596 L505.444 339.596 L505.444 335.661 Z" fill="#000000" fill-rule="nonzero" fill-opacity="1" /><path clip-path="url(#clip700)" d="M544.796 308.114 Q541.185 308.114 539.356 311.679 Q537.55 315.221 537.55 322.35 Q537.55 329.457 539.356 333.022 Q541.185 336.563 544.796 336.563 Q548.43 336.563 550.236 333.022 Q552.064 329.457 552.064 322.35 Q552.064 315.221 550.236 311.679 Q548.43 308.114 544.796 308.114 M544.796 304.411 Q550.606 304.411 553.661 309.017 Q556.74 313.6 556.74 322.35 Q556.74 331.077 553.661 335.684 Q550.606 340.267 544.796 340.267 Q538.986 340.267 535.907 335.684 Q532.851 331.077 532.851 322.35 Q532.851 313.6 535.907 309.017 Q538.986 304.411 544.796 304.411 Z" fill="#000000" fill-rule="nonzero" fill-opacity="1" /><path clip-path="url(#clip700)" d="M574.958 308.114 Q571.347 308.114 569.518 311.679 Q567.712 315.221 567.712 322.35 Q567.712 329.457 569.518 333.022 Q571.347 336.563 574.958 336.563 Q578.592 336.563 580.397 333.022 Q582.226 329.457 582.226 322.35 Q582.226 315.221 580.397 311.679 Q578.592 308.114 574.958 308.114 M574.958 304.411 Q580.768 304.411 583.823 309.017 Q586.902 313.6 586.902 322.35 Q586.902 331.077 583.823 335.684 Q580.768 340.267 574.958 340.267 Q569.147 340.267 566.069 335.684 Q563.013 331.077 563.013 322.35 Q563.013 313.6 566.069 309.017 Q569.147 304.411 574.958 304.411 Z" fill="#000000" fill-rule="nonzero" fill-opacity="1" /><path clip-path="url(#clip700)" d="M598.638 335.707 L598.638 349.457 L594.356 349.457 L594.356 313.67 L598.638 313.67 L598.638 317.605 Q599.981 315.29 602.018 314.179 Q604.078 313.045 606.925 313.045 Q611.647 313.045 614.587 316.795 Q617.55 320.545 617.55 326.656 Q617.55 332.767 614.587 336.517 Q611.647 340.267 606.925 340.267 Q604.078 340.267 602.018 339.156 Q599.981 338.022 598.638 335.707 M613.129 326.656 Q613.129 321.957 611.184 319.295 Q609.263 316.61 605.883 316.61 Q602.504 316.61 600.559 319.295 Q598.638 321.957 598.638 326.656 Q598.638 331.355 600.559 334.04 Q602.504 336.702 605.883 336.702 Q609.263 336.702 611.184 334.04 Q613.129 331.355 613.129 326.656 Z" fill="#000000" fill-rule="nonzero" fill-opacity="1" /><path clip-path="url(#clip700)" d="M641.138 314.434 L641.138 318.462 Q639.332 317.536 637.388 317.073 Q635.443 316.61 633.36 316.61 Q630.189 316.61 628.592 317.582 Q627.018 318.554 627.018 320.499 Q627.018 321.98 628.152 322.837 Q629.286 323.67 632.712 324.434 L634.17 324.758 Q638.707 325.73 640.605 327.512 Q642.527 329.272 642.527 332.443 Q642.527 336.054 639.656 338.161 Q636.809 340.267 631.809 340.267 Q629.726 340.267 627.457 339.85 Q625.212 339.457 622.712 338.647 L622.712 334.249 Q625.073 335.475 627.365 336.1 Q629.656 336.702 631.902 336.702 Q634.911 336.702 636.531 335.684 Q638.152 334.642 638.152 332.767 Q638.152 331.031 636.971 330.105 Q635.814 329.179 631.855 328.323 L630.374 327.975 Q626.416 327.142 624.656 325.429 Q622.897 323.693 622.897 320.684 Q622.897 317.026 625.49 315.036 Q628.082 313.045 632.851 313.045 Q635.212 313.045 637.295 313.392 Q639.379 313.739 641.138 314.434 Z" fill="#000000" fill-rule="nonzero" fill-opacity="1" /></svg>
