<?xml version="1.0" encoding="utf-8"?>
<svg xmlns="http://www.w3.org/2000/svg" xmlns:xlink="http://www.w3.org/1999/xlink" width="600" height="400" viewBox="0 0 2400 1600">
<defs>
  <clipPath id="clip460">
    <rect x="0" y="0" width="2400" height="1600"/>
  </clipPath>
</defs>
<path clip-path="url(#clip460)" d="M0 1600 L2400 1600 L2400 0 L0 0  Z" fill="#ffffff" fill-rule="evenodd" fill-opacity="1"/>
<defs>
  <clipPath id="clip461">
    <rect x="480" y="0" width="1681" height="1600"/>
  </clipPath>
</defs>
<path clip-path="url(#clip460)" d="M202.227 1423.18 L2352.76 1423.18 L2352.76 123.472 L202.227 123.472  Z" fill="#ffffff" fill-rule="evenodd" fill-opacity="1"/>
<defs>
  <clipPath id="clip462">
    <rect x="202" y="123" width="2152" height="1301"/>
  </clipPath>
</defs>
<polyline clip-path="url(#clip462)" style="stroke:#000000; stroke-linecap:round; stroke-linejoin:round; stroke-width:2; stroke-opacity:0.1; fill:none" points="320.51,1423.18 320.51,123.472 "/>
<polyline clip-path="url(#clip462)" style="stroke:#000000; stroke-linecap:round; stroke-linejoin:round; stroke-width:2; stroke-opacity:0.1; fill:none" points="975.977,1423.18 975.977,123.472 "/>
<polyline clip-path="url(#clip462)" style="stroke:#000000; stroke-linecap:round; stroke-linejoin:round; stroke-width:2; stroke-opacity:0.1; fill:none" points="1631.44,1423.18 1631.44,123.472 "/>
<polyline clip-path="url(#clip462)" style="stroke:#000000; stroke-linecap:round; stroke-linejoin:round; stroke-width:2; stroke-opacity:0.1; fill:none" points="2286.91,1423.18 2286.91,123.472 "/>
<polyline clip-path="url(#clip462)" style="stroke:#000000; stroke-linecap:round; stroke-linejoin:round; stroke-width:2; stroke-opacity:0.1; fill:none" points="202.227,1423.18 2352.76,1423.18 "/>
<polyline clip-path="url(#clip462)" style="stroke:#000000; stroke-linecap:round; stroke-linejoin:round; stroke-width:2; stroke-opacity:0.1; fill:none" points="202.227,1206.56 2352.76,1206.56 "/>
<polyline clip-path="url(#clip462)" style="stroke:#000000; stroke-linecap:round; stroke-linejoin:round; stroke-width:2; stroke-opacity:0.1; fill:none" points="202.227,989.944 2352.76,989.944 "/>
<polyline clip-path="url(#clip462)" style="stroke:#000000; stroke-linecap:round; stroke-linejoin:round; stroke-width:2; stroke-opacity:0.1; fill:none" points="202.227,773.326 2352.76,773.326 "/>
<polyline clip-path="url(#clip462)" style="stroke:#000000; stroke-linecap:round; stroke-linejoin:round; stroke-width:2; stroke-opacity:0.1; fill:none" points="202.227,556.708 2352.76,556.708 "/>
<polyline clip-path="url(#clip462)" style="stroke:#000000; stroke-linecap:round; stroke-linejoin:round; stroke-width:2; stroke-opacity:0.1; fill:none" points="202.227,340.09 2352.76,340.09 "/>
<polyline clip-path="url(#clip462)" style="stroke:#000000; stroke-linecap:round; stroke-linejoin:round; stroke-width:2; stroke-opacity:0.1; fill:none" points="202.227,123.472 2352.76,123.472 "/>
<polyline clip-path="url(#clip460)" style="stroke:#000000; stroke-linecap:round; stroke-linejoin:round; stroke-width:4; stroke-opacity:1; fill:none" points="202.227,1423.18 2352.76,1423.18 "/>
<polyline clip-path="url(#clip460)" style="stroke:#000000; stroke-linecap:round; stroke-linejoin:round; stroke-width:4; stroke-opacity:1; fill:none" points="320.51,1423.18 320.51,1404.28 "/>
<polyline clip-path="url(#clip460)" style="stroke:#000000; stroke-linecap:round; stroke-linejoin:round; stroke-width:4; stroke-opacity:1; fill:none" points="975.977,1423.18 975.977,1404.28 "/>
<polyline clip-path="url(#clip460)" style="stroke:#000000; stroke-linecap:round; stroke-linejoin:round; stroke-width:4; stroke-opacity:1; fill:none" points="1631.44,1423.18 1631.44,1404.28 "/>
<polyline clip-path="url(#clip460)" style="stroke:#000000; stroke-linecap:round; stroke-linejoin:round; stroke-width:4; stroke-opacity:1; fill:none" points="2286.91,1423.18 2286.91,1404.28 "/>
<path clip-path="url(#clip460)" d="M320.51 1454.1 Q316.899 1454.1 315.071 1457.66 Q313.265 1461.2 313.265 1468.33 Q313.265 1475.44 315.071 1479.01 Q316.899 1482.55 320.51 1482.55 Q324.145 1482.55 325.95 1479.01 Q327.779 1475.44 327.779 1468.33 Q327.779 1461.2 325.95 1457.66 Q324.145 1454.1 320.51 1454.1 M320.51 1450.39 Q326.321 1450.39 329.376 1455 Q332.455 1459.58 332.455 1468.33 Q332.455 1477.06 329.376 1481.67 Q326.321 1486.25 320.51 1486.25 Q314.7 1486.25 311.622 1481.67 Q308.566 1477.06 308.566 1468.33 Q308.566 1459.58 311.622 1455 Q314.7 1450.39 320.51 1450.39 Z" fill="#000000" fill-rule="nonzero" fill-opacity="1" /><path clip-path="url(#clip460)" d="M950.676 1451.02 L969.033 1451.02 L969.033 1454.96 L954.959 1454.96 L954.959 1463.43 Q955.977 1463.08 956.996 1462.92 Q958.014 1462.73 959.033 1462.73 Q964.82 1462.73 968.199 1465.9 Q971.579 1469.08 971.579 1474.49 Q971.579 1480.07 968.107 1483.17 Q964.634 1486.25 958.315 1486.25 Q956.139 1486.25 953.871 1485.88 Q951.625 1485.51 949.218 1484.77 L949.218 1480.07 Q951.301 1481.2 953.523 1481.76 Q955.746 1482.32 958.222 1482.32 Q962.227 1482.32 964.565 1480.21 Q966.903 1478.1 966.903 1474.49 Q966.903 1470.88 964.565 1468.77 Q962.227 1466.67 958.222 1466.67 Q956.348 1466.67 954.473 1467.08 Q952.621 1467.5 950.676 1468.38 L950.676 1451.02 Z" fill="#000000" fill-rule="nonzero" fill-opacity="1" /><path clip-path="url(#clip460)" d="M990.792 1454.1 Q987.181 1454.1 985.352 1457.66 Q983.546 1461.2 983.546 1468.33 Q983.546 1475.44 985.352 1479.01 Q987.181 1482.55 990.792 1482.55 Q994.426 1482.55 996.232 1479.01 Q998.06 1475.44 998.06 1468.33 Q998.06 1461.2 996.232 1457.66 Q994.426 1454.1 990.792 1454.1 M990.792 1450.39 Q996.602 1450.39 999.657 1455 Q1002.74 1459.58 1002.74 1468.33 Q1002.74 1477.06 999.657 1481.67 Q996.602 1486.25 990.792 1486.25 Q984.982 1486.25 981.903 1481.67 Q978.847 1477.06 978.847 1468.33 Q978.847 1459.58 981.903 1455 Q984.982 1450.39 990.792 1450.39 Z" fill="#000000" fill-rule="nonzero" fill-opacity="1" /><path clip-path="url(#clip460)" d="M1591.05 1481.64 L1598.69 1481.64 L1598.69 1455.28 L1590.38 1456.95 L1590.38 1452.69 L1598.64 1451.02 L1603.32 1451.02 L1603.32 1481.64 L1610.96 1481.64 L1610.96 1485.58 L1591.05 1485.58 L1591.05 1481.64 Z" fill="#000000" fill-rule="nonzero" fill-opacity="1" /><path clip-path="url(#clip460)" d="M1630.4 1454.1 Q1626.79 1454.1 1624.96 1457.66 Q1623.16 1461.2 1623.16 1468.33 Q1623.16 1475.44 1624.96 1479.01 Q1626.79 1482.55 1630.4 1482.55 Q1634.04 1482.55 1635.84 1479.01 Q1637.67 1475.44 1637.67 1468.33 Q1637.67 1461.2 1635.84 1457.66 Q1634.04 1454.1 1630.4 1454.1 M1630.4 1450.39 Q1636.21 1450.39 1639.27 1455 Q1642.35 1459.58 1642.35 1468.33 Q1642.35 1477.06 1639.27 1481.67 Q1636.21 1486.25 1630.4 1486.25 Q1624.59 1486.25 1621.51 1481.67 Q1618.46 1477.06 1618.46 1468.33 Q1618.46 1459.58 1621.51 1455 Q1624.59 1450.39 1630.4 1450.39 Z" fill="#000000" fill-rule="nonzero" fill-opacity="1" /><path clip-path="url(#clip460)" d="M1660.56 1454.1 Q1656.95 1454.1 1655.12 1457.66 Q1653.32 1461.2 1653.32 1468.33 Q1653.32 1475.44 1655.12 1479.01 Q1656.95 1482.55 1660.56 1482.55 Q1664.2 1482.55 1666 1479.01 Q1667.83 1475.44 1667.83 1468.33 Q1667.83 1461.2 1666 1457.66 Q1664.2 1454.1 1660.56 1454.1 M1660.56 1450.39 Q1666.37 1450.39 1669.43 1455 Q1672.51 1459.58 1672.51 1468.33 Q1672.51 1477.06 1669.43 1481.67 Q1666.37 1486.25 1660.56 1486.25 Q1654.75 1486.25 1651.68 1481.67 Q1648.62 1477.06 1648.62 1468.33 Q1648.62 1459.58 1651.68 1455 Q1654.75 1450.39 1660.56 1450.39 Z" fill="#000000" fill-rule="nonzero" fill-opacity="1" /><path clip-path="url(#clip460)" d="M2246.52 1481.64 L2254.16 1481.64 L2254.16 1455.28 L2245.85 1456.95 L2245.85 1452.69 L2254.11 1451.02 L2258.79 1451.02 L2258.79 1481.64 L2266.42 1481.64 L2266.42 1485.58 L2246.52 1485.58 L2246.52 1481.64 Z" fill="#000000" fill-rule="nonzero" fill-opacity="1" /><path clip-path="url(#clip460)" d="M2275.92 1451.02 L2294.27 1451.02 L2294.27 1454.96 L2280.2 1454.96 L2280.2 1463.43 Q2281.22 1463.08 2282.23 1462.92 Q2283.25 1462.73 2284.27 1462.73 Q2290.06 1462.73 2293.44 1465.9 Q2296.82 1469.08 2296.82 1474.49 Q2296.82 1480.07 2293.35 1483.17 Q2289.87 1486.25 2283.55 1486.25 Q2281.38 1486.25 2279.11 1485.88 Q2276.86 1485.51 2274.46 1484.77 L2274.46 1480.07 Q2276.54 1481.2 2278.76 1481.76 Q2280.98 1482.32 2283.46 1482.32 Q2287.47 1482.32 2289.8 1480.21 Q2292.14 1478.1 2292.14 1474.49 Q2292.14 1470.88 2289.8 1468.77 Q2287.47 1466.67 2283.46 1466.67 Q2281.59 1466.67 2279.71 1467.08 Q2277.86 1467.5 2275.92 1468.38 L2275.92 1451.02 Z" fill="#000000" fill-rule="nonzero" fill-opacity="1" /><path clip-path="url(#clip460)" d="M2316.03 1454.1 Q2312.42 1454.1 2310.59 1457.66 Q2308.79 1461.2 2308.79 1468.33 Q2308.79 1475.44 2310.59 1479.01 Q2312.42 1482.55 2316.03 1482.55 Q2319.66 1482.55 2321.47 1479.01 Q2323.3 1475.44 2323.3 1468.33 Q2323.3 1461.2 2321.47 1457.66 Q2319.66 1454.1 2316.03 1454.1 M2316.03 1450.39 Q2321.84 1450.39 2324.9 1455 Q2327.97 1459.58 2327.97 1468.33 Q2327.97 1477.06 2324.9 1481.67 Q2321.84 1486.25 2316.03 1486.25 Q2310.22 1486.25 2307.14 1481.67 Q2304.09 1477.06 2304.09 1468.33 Q2304.09 1459.58 2307.14 1455 Q2310.22 1450.39 2316.03 1450.39 Z" fill="#000000" fill-rule="nonzero" fill-opacity="1" /><path clip-path="url(#clip460)" d="M1063.13 1520.52 L1093.17 1520.52 L1093.17 1525.93 L1069.56 1525.93 L1069.56 1540 L1092.19 1540 L1092.19 1545.41 L1069.56 1545.41 L1069.56 1562.63 L1093.75 1562.63 L1093.75 1568.04 L1063.13 1568.04 L1063.13 1520.52 Z" fill="#000000" fill-rule="nonzero" fill-opacity="1" /><path clip-path="url(#clip460)" d="M1133.69 1546.53 L1133.69 1568.04 L1127.83 1568.04 L1127.83 1546.72 Q1127.83 1541.66 1125.86 1539.14 Q1123.89 1536.63 1119.94 1536.63 Q1115.2 1536.63 1112.46 1539.65 Q1109.72 1542.68 1109.72 1547.9 L1109.72 1568.04 L1103.84 1568.04 L1103.84 1532.4 L1109.72 1532.4 L1109.72 1537.93 Q1111.82 1534.72 1114.66 1533.13 Q1117.52 1531.54 1121.25 1531.54 Q1127.39 1531.54 1130.54 1535.36 Q1133.69 1539.14 1133.69 1546.53 Z" fill="#000000" fill-rule="nonzero" fill-opacity="1" /><path clip-path="url(#clip460)" d="M1175.86 1548.76 L1175.86 1551.62 L1148.94 1551.62 Q1149.32 1557.67 1152.56 1560.85 Q1155.84 1564 1161.67 1564 Q1165.04 1564 1168.19 1563.17 Q1171.38 1562.35 1174.49 1560.69 L1174.49 1566.23 Q1171.34 1567.57 1168.03 1568.27 Q1164.72 1568.97 1161.32 1568.97 Q1152.79 1568.97 1147.79 1564 Q1142.83 1559.04 1142.83 1550.57 Q1142.83 1541.82 1147.54 1536.69 Q1152.28 1531.54 1160.3 1531.54 Q1167.49 1531.54 1171.66 1536.18 Q1175.86 1540.8 1175.86 1548.76 M1170.01 1547.04 Q1169.94 1542.23 1167.3 1539.37 Q1164.69 1536.5 1160.36 1536.5 Q1155.46 1536.5 1152.5 1539.27 Q1149.57 1542.04 1149.13 1547.07 L1170.01 1547.04 Z" fill="#000000" fill-rule="nonzero" fill-opacity="1" /><path clip-path="url(#clip460)" d="M1206.13 1537.87 Q1205.15 1537.3 1203.97 1537.04 Q1202.82 1536.76 1201.42 1536.76 Q1196.46 1536.76 1193.78 1540 Q1191.14 1543.22 1191.14 1549.27 L1191.14 1568.04 L1185.25 1568.04 L1185.25 1532.4 L1191.14 1532.4 L1191.14 1537.93 Q1192.99 1534.69 1195.95 1533.13 Q1198.91 1531.54 1203.14 1531.54 Q1203.74 1531.54 1204.48 1531.63 Q1205.21 1531.7 1206.1 1531.85 L1206.13 1537.87 Z" fill="#000000" fill-rule="nonzero" fill-opacity="1" /><path clip-path="url(#clip460)" d="M1234.59 1549.81 Q1234.59 1543.44 1231.95 1539.94 Q1229.34 1536.44 1224.59 1536.44 Q1219.88 1536.44 1217.24 1539.94 Q1214.63 1543.44 1214.63 1549.81 Q1214.63 1556.14 1217.24 1559.64 Q1219.88 1563.14 1224.59 1563.14 Q1229.34 1563.14 1231.95 1559.64 Q1234.59 1556.14 1234.59 1549.81 M1240.44 1563.62 Q1240.44 1572.72 1236.4 1577.15 Q1232.36 1581.6 1224.02 1581.6 Q1220.93 1581.6 1218.2 1581.13 Q1215.46 1580.68 1212.88 1579.72 L1212.88 1574.03 Q1215.46 1575.43 1217.97 1576.1 Q1220.49 1576.76 1223.1 1576.76 Q1228.86 1576.76 1231.72 1573.74 Q1234.59 1570.75 1234.59 1564.67 L1234.59 1561.77 Q1232.77 1564.92 1229.94 1566.48 Q1227.11 1568.04 1223.16 1568.04 Q1216.6 1568.04 1212.59 1563.05 Q1208.58 1558.05 1208.58 1549.81 Q1208.58 1541.53 1212.59 1536.53 Q1216.6 1531.54 1223.16 1531.54 Q1227.11 1531.54 1229.94 1533.1 Q1232.77 1534.66 1234.59 1537.81 L1234.59 1532.4 L1240.44 1532.4 L1240.44 1563.62 Z" fill="#000000" fill-rule="nonzero" fill-opacity="1" /><path clip-path="url(#clip460)" d="M1267.34 1571.35 Q1264.86 1577.72 1262.5 1579.66 Q1260.15 1581.6 1256.2 1581.6 L1251.52 1581.6 L1251.52 1576.7 L1254.96 1576.7 Q1257.38 1576.7 1258.71 1575.56 Q1260.05 1574.41 1261.67 1570.14 L1262.72 1567.47 L1248.3 1532.4 L1254.51 1532.4 L1265.65 1560.28 L1276.79 1532.4 L1283 1532.4 L1267.34 1571.35 Z" fill="#000000" fill-rule="nonzero" fill-opacity="1" /><path clip-path="url(#clip460)" d="M1325.87 1518.58 Q1321.61 1525.9 1319.54 1533.06 Q1317.47 1540.23 1317.47 1547.58 Q1317.47 1554.93 1319.54 1562.16 Q1321.64 1569.35 1325.87 1576.64 L1320.78 1576.64 Q1316 1569.16 1313.62 1561.93 Q1311.26 1554.71 1311.26 1547.58 Q1311.26 1540.48 1313.62 1533.29 Q1315.97 1526.09 1320.78 1518.58 L1325.87 1518.58 Z" fill="#000000" fill-rule="nonzero" fill-opacity="1" /><path clip-path="url(#clip460)" d="M1337.49 1520.52 L1347.07 1520.52 L1359.2 1552.86 L1371.39 1520.52 L1380.97 1520.52 L1380.97 1568.04 L1374.7 1568.04 L1374.7 1526.32 L1362.44 1558.91 L1355.98 1558.91 L1343.73 1526.32 L1343.73 1568.04 L1337.49 1568.04 L1337.49 1520.52 Z" fill="#000000" fill-rule="nonzero" fill-opacity="1" /><path clip-path="url(#clip460)" d="M1423.97 1548.76 L1423.97 1551.62 L1397.04 1551.62 Q1397.42 1557.67 1400.67 1560.85 Q1403.95 1564 1409.77 1564 Q1413.14 1564 1416.3 1563.17 Q1419.48 1562.35 1422.6 1560.69 L1422.6 1566.23 Q1419.45 1567.57 1416.14 1568.27 Q1412.83 1568.97 1409.42 1568.97 Q1400.89 1568.97 1395.89 1564 Q1390.93 1559.04 1390.93 1550.57 Q1390.93 1541.82 1395.64 1536.69 Q1400.38 1531.54 1408.4 1531.54 Q1415.6 1531.54 1419.77 1536.18 Q1423.97 1540.8 1423.97 1548.76 M1418.11 1547.04 Q1418.05 1542.23 1415.4 1539.37 Q1412.79 1536.5 1408.47 1536.5 Q1403.56 1536.5 1400.6 1539.27 Q1397.68 1542.04 1397.23 1547.07 L1418.11 1547.04 Z" fill="#000000" fill-rule="nonzero" fill-opacity="1" /><path clip-path="url(#clip460)" d="M1446.09 1568.04 L1427.95 1520.52 L1434.66 1520.52 L1449.72 1560.53 L1464.8 1520.52 L1471.49 1520.52 L1453.38 1568.04 L1446.09 1568.04 Z" fill="#000000" fill-rule="nonzero" fill-opacity="1" /><path clip-path="url(#clip460)" d="M1477.25 1518.58 L1482.34 1518.58 Q1487.11 1526.09 1489.47 1533.29 Q1491.86 1540.48 1491.86 1547.58 Q1491.86 1554.71 1489.47 1561.93 Q1487.11 1569.16 1482.34 1576.64 L1477.25 1576.64 Q1481.48 1569.35 1483.55 1562.16 Q1485.65 1554.93 1485.65 1547.58 Q1485.65 1540.23 1483.55 1533.06 Q1481.48 1525.9 1477.25 1518.58 Z" fill="#000000" fill-rule="nonzero" fill-opacity="1" /><polyline clip-path="url(#clip460)" style="stroke:#000000; stroke-linecap:round; stroke-linejoin:round; stroke-width:4; stroke-opacity:1; fill:none" points="202.227,1423.18 202.227,123.472 "/>
<polyline clip-path="url(#clip460)" style="stroke:#000000; stroke-linecap:round; stroke-linejoin:round; stroke-width:4; stroke-opacity:1; fill:none" points="202.227,1423.18 221.125,1423.18 "/>
<polyline clip-path="url(#clip460)" style="stroke:#000000; stroke-linecap:round; stroke-linejoin:round; stroke-width:4; stroke-opacity:1; fill:none" points="202.227,1206.56 221.125,1206.56 "/>
<polyline clip-path="url(#clip460)" style="stroke:#000000; stroke-linecap:round; stroke-linejoin:round; stroke-width:4; stroke-opacity:1; fill:none" points="202.227,989.944 221.125,989.944 "/>
<polyline clip-path="url(#clip460)" style="stroke:#000000; stroke-linecap:round; stroke-linejoin:round; stroke-width:4; stroke-opacity:1; fill:none" points="202.227,773.326 221.125,773.326 "/>
<polyline clip-path="url(#clip460)" style="stroke:#000000; stroke-linecap:round; stroke-linejoin:round; stroke-width:4; stroke-opacity:1; fill:none" points="202.227,556.708 221.125,556.708 "/>
<polyline clip-path="url(#clip460)" style="stroke:#000000; stroke-linecap:round; stroke-linejoin:round; stroke-width:4; stroke-opacity:1; fill:none" points="202.227,340.09 221.125,340.09 "/>
<polyline clip-path="url(#clip460)" style="stroke:#000000; stroke-linecap:round; stroke-linejoin:round; stroke-width:4; stroke-opacity:1; fill:none" points="202.227,123.472 221.125,123.472 "/>
<path clip-path="url(#clip460)" d="M154.283 1408.98 Q150.672 1408.98 148.843 1412.54 Q147.038 1416.08 147.038 1423.21 Q147.038 1430.32 148.843 1433.89 Q150.672 1437.43 154.283 1437.43 Q157.917 1437.43 159.723 1433.89 Q161.552 1430.32 161.552 1423.21 Q161.552 1416.08 159.723 1412.54 Q157.917 1408.98 154.283 1408.98 M154.283 1405.27 Q160.093 1405.27 163.149 1409.88 Q166.227 1414.46 166.227 1423.21 Q166.227 1431.94 163.149 1436.55 Q160.093 1441.13 154.283 1441.13 Q148.473 1441.13 145.394 1436.55 Q142.339 1431.94 142.339 1423.21 Q142.339 1414.46 145.394 1409.88 Q148.473 1405.27 154.283 1405.27 Z" fill="#000000" fill-rule="nonzero" fill-opacity="1" /><path clip-path="url(#clip460)" d="M149.908 1219.91 L166.227 1219.91 L166.227 1223.84 L144.283 1223.84 L144.283 1219.91 Q146.945 1217.15 151.528 1212.52 Q156.135 1207.87 157.315 1206.53 Q159.561 1204 160.44 1202.27 Q161.343 1200.51 161.343 1198.82 Q161.343 1196.06 159.399 1194.33 Q157.478 1192.59 154.376 1192.59 Q152.177 1192.59 149.723 1193.36 Q147.292 1194.12 144.515 1195.67 L144.515 1190.95 Q147.339 1189.81 149.792 1189.24 Q152.246 1188.66 154.283 1188.66 Q159.653 1188.66 162.848 1191.34 Q166.042 1194.03 166.042 1198.52 Q166.042 1200.65 165.232 1202.57 Q164.445 1204.47 162.339 1207.06 Q161.76 1207.73 158.658 1210.95 Q155.556 1214.14 149.908 1219.91 Z" fill="#000000" fill-rule="nonzero" fill-opacity="1" /><path clip-path="url(#clip460)" d="M156.644 976.738 L144.839 995.187 L156.644 995.187 L156.644 976.738 M155.417 972.664 L161.297 972.664 L161.297 995.187 L166.227 995.187 L166.227 999.076 L161.297 999.076 L161.297 1007.22 L156.644 1007.22 L156.644 999.076 L141.042 999.076 L141.042 994.562 L155.417 972.664 Z" fill="#000000" fill-rule="nonzero" fill-opacity="1" /><path clip-path="url(#clip460)" d="M154.7 771.463 Q151.552 771.463 149.7 773.615 Q147.871 775.768 147.871 779.518 Q147.871 783.245 149.7 785.421 Q151.552 787.574 154.7 787.574 Q157.848 787.574 159.677 785.421 Q161.528 783.245 161.528 779.518 Q161.528 775.768 159.677 773.615 Q157.848 771.463 154.7 771.463 M163.982 756.81 L163.982 761.069 Q162.223 760.236 160.417 759.796 Q158.635 759.356 156.876 759.356 Q152.246 759.356 149.792 762.481 Q147.362 765.606 147.015 771.926 Q148.38 769.912 150.441 768.847 Q152.501 767.759 154.978 767.759 Q160.186 767.759 163.195 770.93 Q166.227 774.078 166.227 779.518 Q166.227 784.842 163.079 788.06 Q159.931 791.277 154.7 791.277 Q148.704 791.277 145.533 786.694 Q142.362 782.088 142.362 773.361 Q142.362 765.166 146.251 760.305 Q150.14 755.421 156.69 755.421 Q158.45 755.421 160.232 755.768 Q162.038 756.115 163.982 756.81 Z" fill="#000000" fill-rule="nonzero" fill-opacity="1" /><path clip-path="url(#clip460)" d="M154.376 557.576 Q151.042 557.576 149.121 559.358 Q147.223 561.141 147.223 564.266 Q147.223 567.391 149.121 569.173 Q151.042 570.956 154.376 570.956 Q157.709 570.956 159.63 569.173 Q161.552 567.368 161.552 564.266 Q161.552 561.141 159.63 559.358 Q157.732 557.576 154.376 557.576 M149.7 555.585 Q146.691 554.845 145.001 552.784 Q143.334 550.724 143.334 547.761 Q143.334 543.618 146.274 541.21 Q149.237 538.803 154.376 538.803 Q159.538 538.803 162.477 541.21 Q165.417 543.618 165.417 547.761 Q165.417 550.724 163.727 552.784 Q162.061 554.845 159.075 555.585 Q162.454 556.372 164.329 558.664 Q166.227 560.956 166.227 564.266 Q166.227 569.289 163.149 571.974 Q160.093 574.659 154.376 574.659 Q148.658 574.659 145.579 571.974 Q142.524 569.289 142.524 564.266 Q142.524 560.956 144.422 558.664 Q146.32 556.372 149.7 555.585 M147.987 548.201 Q147.987 550.886 149.653 552.391 Q151.343 553.896 154.376 553.896 Q157.385 553.896 159.075 552.391 Q160.788 550.886 160.788 548.201 Q160.788 545.516 159.075 544.011 Q157.385 542.507 154.376 542.507 Q151.343 542.507 149.653 544.011 Q147.987 545.516 147.987 548.201 Z" fill="#000000" fill-rule="nonzero" fill-opacity="1" /><path clip-path="url(#clip460)" d="M114.931 353.435 L122.57 353.435 L122.57 327.069 L114.26 328.736 L114.26 324.477 L122.524 322.81 L127.2 322.81 L127.2 353.435 L134.839 353.435 L134.839 357.37 L114.931 357.37 L114.931 353.435 Z" fill="#000000" fill-rule="nonzero" fill-opacity="1" /><path clip-path="url(#clip460)" d="M154.283 325.889 Q150.672 325.889 148.843 329.454 Q147.038 332.995 147.038 340.125 Q147.038 347.231 148.843 350.796 Q150.672 354.338 154.283 354.338 Q157.917 354.338 159.723 350.796 Q161.552 347.231 161.552 340.125 Q161.552 332.995 159.723 329.454 Q157.917 325.889 154.283 325.889 M154.283 322.185 Q160.093 322.185 163.149 326.792 Q166.227 331.375 166.227 340.125 Q166.227 348.852 163.149 353.458 Q160.093 358.041 154.283 358.041 Q148.473 358.041 145.394 353.458 Q142.339 348.852 142.339 340.125 Q142.339 331.375 145.394 326.792 Q148.473 322.185 154.283 322.185 Z" fill="#000000" fill-rule="nonzero" fill-opacity="1" /><path clip-path="url(#clip460)" d="M116.529 136.817 L124.168 136.817 L124.168 110.451 L115.857 112.118 L115.857 107.859 L124.121 106.192 L128.797 106.192 L128.797 136.817 L136.436 136.817 L136.436 140.752 L116.529 140.752 L116.529 136.817 Z" fill="#000000" fill-rule="nonzero" fill-opacity="1" /><path clip-path="url(#clip460)" d="M149.908 136.817 L166.227 136.817 L166.227 140.752 L144.283 140.752 L144.283 136.817 Q146.945 134.062 151.528 129.433 Q156.135 124.78 157.315 123.437 Q159.561 120.914 160.44 119.178 Q161.343 117.419 161.343 115.729 Q161.343 112.974 159.399 111.238 Q157.478 109.502 154.376 109.502 Q152.177 109.502 149.723 110.266 Q147.292 111.03 144.515 112.581 L144.515 107.859 Q147.339 106.725 149.792 106.146 Q152.246 105.567 154.283 105.567 Q159.653 105.567 162.848 108.252 Q166.042 110.937 166.042 115.428 Q166.042 117.558 165.232 119.479 Q164.445 121.377 162.339 123.97 Q161.76 124.641 158.658 127.859 Q155.556 131.053 149.908 136.817 Z" fill="#000000" fill-rule="nonzero" fill-opacity="1" /><path clip-path="url(#clip460)" d="M20.1444 845.354 L26.9239 845.354 Q23.9002 848.6 22.4043 852.293 Q20.9083 855.953 20.9083 860.091 Q20.9083 868.239 25.9054 872.567 Q30.8707 876.896 40.2919 876.896 Q49.6813 876.896 54.6784 872.567 Q59.6436 868.239 59.6436 860.091 Q59.6436 855.953 58.1477 852.293 Q56.6518 848.6 53.6281 845.354 L60.3439 845.354 Q62.6355 848.728 63.7814 852.515 Q64.9272 856.271 64.9272 860.473 Q64.9272 871.262 58.3387 877.469 Q51.7183 883.676 40.2919 883.676 Q28.8336 883.676 22.2451 877.469 Q15.6248 871.262 15.6248 860.473 Q15.6248 856.207 16.7706 852.452 Q17.8846 848.664 20.1444 845.354 Z" fill="#000000" fill-rule="nonzero" fill-opacity="1" /><path clip-path="url(#clip460)" d="M32.4621 821.864 Q32.4621 826.575 36.1542 829.312 Q39.8145 832.05 46.212 832.05 Q52.6095 832.05 56.3017 829.344 Q59.9619 826.607 59.9619 821.864 Q59.9619 817.186 56.2698 814.448 Q52.5777 811.711 46.212 811.711 Q39.8781 811.711 36.186 814.448 Q32.4621 817.186 32.4621 821.864 M27.4968 821.864 Q27.4968 814.226 32.4621 809.865 Q37.4273 805.505 46.212 805.505 Q54.9649 805.505 59.9619 809.865 Q64.9272 814.226 64.9272 821.864 Q64.9272 829.535 59.9619 833.896 Q54.9649 838.224 46.212 838.224 Q37.4273 838.224 32.4621 833.896 Q27.4968 829.535 27.4968 821.864 Z" fill="#000000" fill-rule="nonzero" fill-opacity="1" /><path clip-path="url(#clip460)" d="M49.9359 796.402 L28.3562 796.402 L28.3562 790.545 L49.7131 790.545 Q54.7739 790.545 57.3202 788.572 Q59.8346 786.598 59.8346 782.652 Q59.8346 777.909 56.8109 775.172 Q53.7872 772.403 48.5673 772.403 L28.3562 772.403 L28.3562 766.547 L64.0042 766.547 L64.0042 772.403 L58.5296 772.403 Q61.7762 774.535 63.3676 777.368 Q64.9272 780.169 64.9272 783.893 Q64.9272 790.036 61.1078 793.219 Q57.2883 796.402 49.9359 796.402 M27.4968 781.665 L27.4968 781.665 Z" fill="#000000" fill-rule="nonzero" fill-opacity="1" /><path clip-path="url(#clip460)" d="M42.4881 724.851 L64.0042 724.851 L64.0042 730.708 L42.679 730.708 Q37.6183 730.708 35.1038 732.681 Q32.5894 734.654 32.5894 738.601 Q32.5894 743.344 35.6131 746.081 Q38.6368 748.818 43.8567 748.818 L64.0042 748.818 L64.0042 754.706 L28.3562 754.706 L28.3562 748.818 L33.8944 748.818 Q30.6797 746.717 29.0883 743.885 Q27.4968 741.02 27.4968 737.296 Q27.4968 731.153 31.3163 728.002 Q35.1038 724.851 42.4881 724.851 Z" fill="#000000" fill-rule="nonzero" fill-opacity="1" /><path clip-path="url(#clip460)" d="M18.2347 707.377 L28.3562 707.377 L28.3562 695.314 L32.9077 695.314 L32.9077 707.377 L52.2594 707.377 Q56.6199 707.377 57.8613 706.2 Q59.1026 704.99 59.1026 701.33 L59.1026 695.314 L64.0042 695.314 L64.0042 701.33 Q64.0042 708.109 61.4897 710.687 Q58.9434 713.266 52.2594 713.266 L32.9077 713.266 L32.9077 717.562 L28.3562 717.562 L28.3562 713.266 L18.2347 713.266 L18.2347 707.377 Z" fill="#000000" fill-rule="nonzero" fill-opacity="1" /><path clip-path="url(#clip460)" d="M29.4065 664.886 L34.9447 664.886 Q33.6716 667.369 33.035 670.042 Q32.3984 672.716 32.3984 675.581 Q32.3984 679.941 33.7352 682.137 Q35.072 684.302 37.7456 684.302 Q39.7826 684.302 40.9603 682.742 Q42.1061 681.182 43.1565 676.472 L43.6021 674.467 Q44.9389 668.228 47.3897 665.618 Q49.8086 662.976 54.1691 662.976 Q59.1344 662.976 62.0308 666.923 Q64.9272 670.838 64.9272 677.713 Q64.9272 680.578 64.3543 683.697 Q63.8132 686.784 62.6992 690.222 L56.6518 690.222 Q58.3387 686.975 59.198 683.824 Q60.0256 680.673 60.0256 677.586 Q60.0256 673.448 58.6251 671.22 Q57.1929 668.992 54.6147 668.992 Q52.2276 668.992 50.9545 670.615 Q49.6813 672.207 48.5037 677.649 L48.0262 679.686 Q46.8804 685.129 44.5251 687.548 Q42.138 689.967 38.0002 689.967 Q32.9713 689.967 30.2341 686.402 Q27.4968 682.837 27.4968 676.281 Q27.4968 673.034 27.9743 670.17 Q28.4517 667.305 29.4065 664.886 Z" fill="#000000" fill-rule="nonzero" fill-opacity="1" /><path clip-path="url(#clip460)" d="M816.823 12.096 L867.986 12.096 L867.986 18.9825 L846.516 18.9825 L846.516 72.576 L838.293 72.576 L838.293 18.9825 L816.823 18.9825 L816.823 12.096 Z" fill="#000000" fill-rule="nonzero" fill-opacity="1" /><path clip-path="url(#clip460)" d="M879.045 32.4315 Q873.049 32.4315 869.566 37.1306 Q866.082 41.7891 866.082 49.9314 Q866.082 58.0738 869.525 62.7728 Q873.009 67.4314 879.045 67.4314 Q885 67.4314 888.483 62.7323 Q891.967 58.0333 891.967 49.9314 Q891.967 41.8701 888.483 37.1711 Q885 32.4315 879.045 32.4315 M879.045 26.1121 Q888.767 26.1121 894.317 32.4315 Q899.866 38.7509 899.866 49.9314 Q899.866 61.0714 894.317 67.4314 Q888.767 73.7508 879.045 73.7508 Q869.282 73.7508 863.732 67.4314 Q858.223 61.0714 858.223 49.9314 Q858.223 38.7509 863.732 32.4315 Q869.282 26.1121 879.045 26.1121 Z" fill="#000000" fill-rule="nonzero" fill-opacity="1" /><path clip-path="url(#clip460)" d="M919.594 14.324 L919.594 27.2059 L934.947 27.2059 L934.947 32.9987 L919.594 32.9987 L919.594 57.6282 Q919.594 63.1779 921.093 64.7578 Q922.632 66.3376 927.291 66.3376 L934.947 66.3376 L934.947 72.576 L927.291 72.576 Q918.663 72.576 915.381 69.3758 Q912.1 66.1351 912.1 57.6282 L912.1 32.9987 L906.631 32.9987 L906.631 27.2059 L912.1 27.2059 L912.1 14.324 L919.594 14.324 Z" fill="#000000" fill-rule="nonzero" fill-opacity="1" /><path clip-path="url(#clip460)" d="M965.37 49.7694 Q956.336 49.7694 952.852 51.8354 Q949.368 53.9013 949.368 58.8839 Q949.368 62.8538 951.961 65.2034 Q954.594 67.5124 959.091 67.5124 Q965.289 67.5124 969.015 63.1374 Q972.783 58.7219 972.783 51.4303 L972.783 49.7694 L965.37 49.7694 M980.236 46.6907 L980.236 72.576 L972.783 72.576 L972.783 65.6895 Q970.231 69.8214 966.423 71.8063 Q962.615 73.7508 957.106 73.7508 Q950.138 73.7508 946.006 69.8619 Q941.915 65.9325 941.915 59.3701 Q941.915 51.7138 947.019 47.825 Q952.164 43.9361 962.331 43.9361 L972.783 43.9361 L972.783 43.2069 Q972.783 38.0623 969.38 35.2672 Q966.018 32.4315 959.901 32.4315 Q956.012 32.4315 952.326 33.3632 Q948.639 34.295 945.237 36.1584 L945.237 29.2718 Q949.328 27.692 953.176 26.9223 Q957.025 26.1121 960.67 26.1121 Q970.514 26.1121 975.375 31.2163 Q980.236 36.3204 980.236 46.6907 Z" fill="#000000" fill-rule="nonzero" fill-opacity="1" /><path clip-path="url(#clip460)" d="M995.589 9.54393 L1003.04 9.54393 L1003.04 72.576 L995.589 72.576 L995.589 9.54393 Z" fill="#000000" fill-rule="nonzero" fill-opacity="1" /><path clip-path="url(#clip460)" d="M1083.82 48.0275 L1083.82 51.6733 L1049.55 51.6733 Q1050.03 59.3701 1054.17 63.421 Q1058.34 67.4314 1065.75 67.4314 Q1070.04 67.4314 1074.06 66.3781 Q1078.11 65.3249 1082.08 63.2184 L1082.08 70.267 Q1078.07 71.9684 1073.85 72.8596 Q1069.64 73.7508 1065.31 73.7508 Q1054.45 73.7508 1048.09 67.4314 Q1041.77 61.1119 1041.77 50.3365 Q1041.77 39.1965 1047.76 32.6746 Q1053.8 26.1121 1064.01 26.1121 Q1073.16 26.1121 1078.47 32.0264 Q1083.82 37.9003 1083.82 48.0275 M1076.36 45.84 Q1076.28 39.7232 1072.92 36.0774 Q1069.6 32.4315 1064.09 32.4315 Q1057.85 32.4315 1054.08 35.9558 Q1050.36 39.4801 1049.79 45.8805 L1076.36 45.84 Z" fill="#000000" fill-rule="nonzero" fill-opacity="1" /><path clip-path="url(#clip460)" d="M1133.77 45.1919 L1133.77 72.576 L1126.31 72.576 L1126.31 45.4349 Q1126.31 38.994 1123.8 35.7938 Q1121.29 32.5936 1116.27 32.5936 Q1110.23 32.5936 1106.75 36.4419 Q1103.26 40.2903 1103.26 46.9338 L1103.26 72.576 L1095.77 72.576 L1095.77 27.2059 L1103.26 27.2059 L1103.26 34.2544 Q1105.94 30.163 1109.54 28.1376 Q1113.19 26.1121 1117.93 26.1121 Q1125.74 26.1121 1129.76 30.9732 Q1133.77 35.7938 1133.77 45.1919 Z" fill="#000000" fill-rule="nonzero" fill-opacity="1" /><path clip-path="url(#clip460)" d="M1187.44 48.0275 L1187.44 51.6733 L1153.17 51.6733 Q1153.66 59.3701 1157.79 63.421 Q1161.96 67.4314 1169.37 67.4314 Q1173.67 67.4314 1177.68 66.3781 Q1181.73 65.3249 1185.7 63.2184 L1185.7 70.267 Q1181.69 71.9684 1177.47 72.8596 Q1173.26 73.7508 1168.93 73.7508 Q1158.07 73.7508 1151.71 67.4314 Q1145.39 61.1119 1145.39 50.3365 Q1145.39 39.1965 1151.39 32.6746 Q1157.42 26.1121 1167.63 26.1121 Q1176.79 26.1121 1182.09 32.0264 Q1187.44 37.9003 1187.44 48.0275 M1179.99 45.84 Q1179.91 39.7232 1176.54 36.0774 Q1173.22 32.4315 1167.71 32.4315 Q1161.47 32.4315 1157.71 35.9558 Q1153.98 39.4801 1153.41 45.8805 L1179.99 45.84 Z" fill="#000000" fill-rule="nonzero" fill-opacity="1" /><path clip-path="url(#clip460)" d="M1225.96 34.1734 Q1224.71 33.4443 1223.21 33.1202 Q1221.75 32.7556 1219.97 32.7556 Q1213.65 32.7556 1210.25 36.8875 Q1206.88 40.9789 1206.88 48.6757 L1206.88 72.576 L1199.39 72.576 L1199.39 27.2059 L1206.88 27.2059 L1206.88 34.2544 Q1209.23 30.1225 1213 28.1376 Q1216.77 26.1121 1222.16 26.1121 Q1222.93 26.1121 1223.86 26.2337 Q1224.79 26.3147 1225.92 26.5172 L1225.96 34.1734 Z" fill="#000000" fill-rule="nonzero" fill-opacity="1" /><path clip-path="url(#clip460)" d="M1262.18 49.3643 Q1262.18 41.2625 1258.82 36.8065 Q1255.5 32.3505 1249.46 32.3505 Q1243.46 32.3505 1240.1 36.8065 Q1236.78 41.2625 1236.78 49.3643 Q1236.78 57.4256 1240.1 61.8816 Q1243.46 66.3376 1249.46 66.3376 Q1255.5 66.3376 1258.82 61.8816 Q1262.18 57.4256 1262.18 49.3643 M1269.63 66.9452 Q1269.63 78.5308 1264.49 84.1616 Q1259.34 89.8329 1248.73 89.8329 Q1244.8 89.8329 1241.32 89.2252 Q1237.83 88.6581 1234.55 87.4428 L1234.55 80.1917 Q1237.83 81.9741 1241.03 82.8248 Q1244.23 83.6755 1247.56 83.6755 Q1254.89 83.6755 1258.53 79.8271 Q1262.18 76.0193 1262.18 68.282 L1262.18 64.5957 Q1259.87 68.6061 1256.26 70.5911 Q1252.66 72.576 1247.64 72.576 Q1239.29 72.576 1234.19 66.2161 Q1229.08 59.8562 1229.08 49.3643 Q1229.08 38.832 1234.19 32.472 Q1239.29 26.1121 1247.64 26.1121 Q1252.66 26.1121 1256.26 28.0971 Q1259.87 30.082 1262.18 34.0924 L1262.18 27.2059 L1269.63 27.2059 L1269.63 66.9452 Z" fill="#000000" fill-rule="nonzero" fill-opacity="1" /><path clip-path="url(#clip460)" d="M1303.86 76.7889 Q1300.7 84.8907 1297.71 87.3618 Q1294.71 89.8329 1289.68 89.8329 L1283.73 89.8329 L1283.73 83.5945 L1288.11 83.5945 Q1291.18 83.5945 1292.89 82.1361 Q1294.59 80.6778 1296.65 75.2496 L1297.99 71.8468 L1279.64 27.2059 L1287.54 27.2059 L1301.72 62.6918 L1315.89 27.2059 L1323.79 27.2059 L1303.86 76.7889 Z" fill="#000000" fill-rule="nonzero" fill-opacity="1" /><path clip-path="url(#clip460)" d="M1389.38 28.5427 L1389.38 35.5912 Q1386.22 33.9709 1382.82 33.1607 Q1379.41 32.3505 1375.77 32.3505 Q1370.22 32.3505 1367.42 34.0519 Q1364.67 35.7533 1364.67 39.156 Q1364.67 41.7486 1366.65 43.2475 Q1368.64 44.7058 1374.63 46.0426 L1377.18 46.6097 Q1385.12 48.3111 1388.45 51.4303 Q1391.81 54.509 1391.81 60.0587 Q1391.81 66.3781 1386.79 70.0644 Q1381.8 73.7508 1373.05 73.7508 Q1369.41 73.7508 1365.44 73.0216 Q1361.51 72.3329 1357.13 70.9151 L1357.13 63.2184 Q1361.26 65.3654 1365.27 66.4591 Q1369.29 67.5124 1373.21 67.5124 Q1378.48 67.5124 1381.32 65.73 Q1384.15 63.9071 1384.15 60.6258 Q1384.15 57.5877 1382.09 55.9673 Q1380.06 54.3469 1373.13 52.8481 L1370.54 52.2405 Q1363.61 50.7821 1360.54 47.7845 Q1357.46 44.7463 1357.46 39.4801 Q1357.46 33.0797 1361.99 29.5959 Q1366.53 26.1121 1374.88 26.1121 Q1379.01 26.1121 1382.65 26.7198 Q1386.3 27.3274 1389.38 28.5427 Z" fill="#000000" fill-rule="nonzero" fill-opacity="1" /><path clip-path="url(#clip460)" d="M1410.89 65.7705 L1410.89 89.8329 L1403.39 89.8329 L1403.39 27.2059 L1410.89 27.2059 L1410.89 34.0924 Q1413.24 30.0415 1416.8 28.0971 Q1420.41 26.1121 1425.39 26.1121 Q1433.65 26.1121 1438.8 32.6746 Q1443.98 39.2371 1443.98 49.9314 Q1443.98 60.6258 1438.8 67.1883 Q1433.65 73.7508 1425.39 73.7508 Q1420.41 73.7508 1416.8 71.8063 Q1413.24 69.8214 1410.89 65.7705 M1436.25 49.9314 Q1436.25 41.7081 1432.84 37.0496 Q1429.48 32.3505 1423.57 32.3505 Q1417.65 32.3505 1414.25 37.0496 Q1410.89 41.7081 1410.89 49.9314 Q1410.89 58.1548 1414.25 62.8538 Q1417.65 67.5124 1423.57 67.5124 Q1429.48 67.5124 1432.84 62.8538 Q1436.25 58.1548 1436.25 49.9314 Z" fill="#000000" fill-rule="nonzero" fill-opacity="1" /><path clip-path="url(#clip460)" d="M1495.15 48.0275 L1495.15 51.6733 L1460.88 51.6733 Q1461.36 59.3701 1465.49 63.421 Q1469.67 67.4314 1477.08 67.4314 Q1481.37 67.4314 1485.38 66.3781 Q1489.43 65.3249 1493.4 63.2184 L1493.4 70.267 Q1489.39 71.9684 1485.18 72.8596 Q1480.97 73.7508 1476.63 73.7508 Q1465.78 73.7508 1459.42 67.4314 Q1453.1 61.1119 1453.1 50.3365 Q1453.1 39.1965 1459.09 32.6746 Q1465.13 26.1121 1475.34 26.1121 Q1484.49 26.1121 1489.8 32.0264 Q1495.15 37.9003 1495.15 48.0275 M1487.69 45.84 Q1487.61 39.7232 1484.25 36.0774 Q1480.93 32.4315 1475.42 32.4315 Q1469.18 32.4315 1465.41 35.9558 Q1461.69 39.4801 1461.12 45.8805 L1487.69 45.84 Z" fill="#000000" fill-rule="nonzero" fill-opacity="1" /><path clip-path="url(#clip460)" d="M1540.03 28.9478 L1540.03 35.9153 Q1536.87 34.1734 1533.67 33.3227 Q1530.51 32.4315 1527.27 32.4315 Q1520.02 32.4315 1516.01 37.0496 Q1512 41.6271 1512 49.9314 Q1512 58.2358 1516.01 62.8538 Q1520.02 67.4314 1527.27 67.4314 Q1530.51 67.4314 1533.67 66.5807 Q1536.87 65.6895 1540.03 63.9476 L1540.03 70.8341 Q1536.91 72.2924 1533.55 73.0216 Q1530.23 73.7508 1526.46 73.7508 Q1516.21 73.7508 1510.18 67.3098 Q1504.14 60.8689 1504.14 49.9314 Q1504.14 38.832 1510.22 32.472 Q1516.33 26.1121 1526.95 26.1121 Q1530.39 26.1121 1533.67 26.8413 Q1536.95 27.5299 1540.03 28.9478 Z" fill="#000000" fill-rule="nonzero" fill-opacity="1" /><path clip-path="url(#clip460)" d="M1560.37 14.324 L1560.37 27.2059 L1575.72 27.2059 L1575.72 32.9987 L1560.37 32.9987 L1560.37 57.6282 Q1560.37 63.1779 1561.87 64.7578 Q1563.4 66.3376 1568.06 66.3376 L1575.72 66.3376 L1575.72 72.576 L1568.06 72.576 Q1559.43 72.576 1556.15 69.3758 Q1552.87 66.1351 1552.87 57.6282 L1552.87 32.9987 L1547.4 32.9987 L1547.4 27.2059 L1552.87 27.2059 L1552.87 14.324 L1560.37 14.324 Z" fill="#000000" fill-rule="nonzero" fill-opacity="1" /><path clip-path="url(#clip460)" d="M1611.81 34.1734 Q1610.56 33.4443 1609.06 33.1202 Q1607.6 32.7556 1605.82 32.7556 Q1599.5 32.7556 1596.1 36.8875 Q1592.73 40.9789 1592.73 48.6757 L1592.73 72.576 L1585.24 72.576 L1585.24 27.2059 L1592.73 27.2059 L1592.73 34.2544 Q1595.08 30.1225 1598.85 28.1376 Q1602.62 26.1121 1608 26.1121 Q1608.77 26.1121 1609.71 26.2337 Q1610.64 26.3147 1611.77 26.5172 L1611.81 34.1734 Z" fill="#000000" fill-rule="nonzero" fill-opacity="1" /><path clip-path="url(#clip460)" d="M1618.86 54.671 L1618.86 27.2059 L1626.32 27.2059 L1626.32 54.3874 Q1626.32 60.8284 1628.83 64.0691 Q1631.34 67.2693 1636.36 67.2693 Q1642.4 67.2693 1645.88 63.421 Q1649.41 59.5726 1649.41 52.9291 L1649.41 27.2059 L1656.86 27.2059 L1656.86 72.576 L1649.41 72.576 L1649.41 65.6084 Q1646.69 69.7404 1643.09 71.7658 Q1639.52 73.7508 1634.78 73.7508 Q1626.96 73.7508 1622.91 68.8897 Q1618.86 64.0286 1618.86 54.671 M1637.62 26.1121 L1637.62 26.1121 Z" fill="#000000" fill-rule="nonzero" fill-opacity="1" /><path clip-path="url(#clip460)" d="M1707.54 35.9153 Q1710.33 30.8922 1714.22 28.5022 Q1718.11 26.1121 1723.37 26.1121 Q1730.46 26.1121 1734.31 31.0947 Q1738.16 36.0368 1738.16 45.1919 L1738.16 72.576 L1730.67 72.576 L1730.67 45.4349 Q1730.67 38.913 1728.36 35.7533 Q1726.05 32.5936 1721.31 32.5936 Q1715.52 32.5936 1712.15 36.4419 Q1708.79 40.2903 1708.79 46.9338 L1708.79 72.576 L1701.3 72.576 L1701.3 45.4349 Q1701.3 38.8725 1698.99 35.7533 Q1696.68 32.5936 1691.86 32.5936 Q1686.15 32.5936 1682.78 36.4824 Q1679.42 40.3308 1679.42 46.9338 L1679.42 72.576 L1671.93 72.576 L1671.93 27.2059 L1679.42 27.2059 L1679.42 34.2544 Q1681.97 30.082 1685.54 28.0971 Q1689.1 26.1121 1694.01 26.1121 Q1698.95 26.1121 1702.39 28.6237 Q1705.87 31.1352 1707.54 35.9153 Z" fill="#000000" fill-rule="nonzero" fill-opacity="1" /><path clip-path="url(#clip462)" d="M320.51 1314.87 L320.51 1423.18 L346.729 1423.18 L346.729 1314.87 L320.51 1314.87 L320.51 1314.87  Z" fill="#009af9" fill-rule="evenodd" fill-opacity="1"/>
<polyline clip-path="url(#clip462)" style="stroke:#000000; stroke-linecap:round; stroke-linejoin:round; stroke-width:4; stroke-opacity:1; fill:none" points="320.51,1314.87 320.51,1423.18 346.729,1423.18 346.729,1314.87 320.51,1314.87 "/>
<path clip-path="url(#clip462)" d="M346.729 665.017 L346.729 1423.18 L372.948 1423.18 L372.948 665.017 L346.729 665.017 L346.729 665.017  Z" fill="#009af9" fill-rule="evenodd" fill-opacity="1"/>
<polyline clip-path="url(#clip462)" style="stroke:#000000; stroke-linecap:round; stroke-linejoin:round; stroke-width:4; stroke-opacity:1; fill:none" points="346.729,665.017 346.729,1423.18 372.948,1423.18 372.948,665.017 346.729,665.017 "/>
<path clip-path="url(#clip462)" d="M372.948 123.472 L372.948 1423.18 L399.166 1423.18 L399.166 123.472 L372.948 123.472 L372.948 123.472  Z" fill="#009af9" fill-rule="evenodd" fill-opacity="1"/>
<polyline clip-path="url(#clip462)" style="stroke:#000000; stroke-linecap:round; stroke-linejoin:round; stroke-width:4; stroke-opacity:1; fill:none" points="372.948,123.472 372.948,1423.18 399.166,1423.18 399.166,123.472 372.948,123.472 "/>
<path clip-path="url(#clip462)" d="M399.166 881.635 L399.166 1423.18 L425.385 1423.18 L425.385 881.635 L399.166 881.635 L399.166 881.635  Z" fill="#009af9" fill-rule="evenodd" fill-opacity="1"/>
<polyline clip-path="url(#clip462)" style="stroke:#000000; stroke-linecap:round; stroke-linejoin:round; stroke-width:4; stroke-opacity:1; fill:none" points="399.166,881.635 399.166,1423.18 425.385,1423.18 425.385,881.635 399.166,881.635 "/>
<path clip-path="url(#clip462)" d="M425.385 881.635 L425.385 1423.18 L451.604 1423.18 L451.604 881.635 L425.385 881.635 L425.385 881.635  Z" fill="#009af9" fill-rule="evenodd" fill-opacity="1"/>
<polyline clip-path="url(#clip462)" style="stroke:#000000; stroke-linecap:round; stroke-linejoin:round; stroke-width:4; stroke-opacity:1; fill:none" points="425.385,881.635 425.385,1423.18 451.604,1423.18 451.604,881.635 425.385,881.635 "/>
<path clip-path="url(#clip462)" d="M451.604 665.017 L451.604 1423.18 L477.822 1423.18 L477.822 665.017 L451.604 665.017 L451.604 665.017  Z" fill="#009af9" fill-rule="evenodd" fill-opacity="1"/>
<polyline clip-path="url(#clip462)" style="stroke:#000000; stroke-linecap:round; stroke-linejoin:round; stroke-width:4; stroke-opacity:1; fill:none" points="451.604,665.017 451.604,1423.18 477.822,1423.18 477.822,665.017 451.604,665.017 "/>
<path clip-path="url(#clip462)" d="M477.822 773.326 L477.822 1423.18 L504.041 1423.18 L504.041 773.326 L477.822 773.326 L477.822 773.326  Z" fill="#009af9" fill-rule="evenodd" fill-opacity="1"/>
<polyline clip-path="url(#clip462)" style="stroke:#000000; stroke-linecap:round; stroke-linejoin:round; stroke-width:4; stroke-opacity:1; fill:none" points="477.822,773.326 477.822,1423.18 504.041,1423.18 504.041,773.326 477.822,773.326 "/>
<path clip-path="url(#clip462)" d="M504.041 1314.87 L504.041 1423.18 L530.26 1423.18 L530.26 1314.87 L504.041 1314.87 L504.041 1314.87  Z" fill="#009af9" fill-rule="evenodd" fill-opacity="1"/>
<polyline clip-path="url(#clip462)" style="stroke:#000000; stroke-linecap:round; stroke-linejoin:round; stroke-width:4; stroke-opacity:1; fill:none" points="504.041,1314.87 504.041,1423.18 530.26,1423.18 530.26,1314.87 504.041,1314.87 "/>
<path clip-path="url(#clip462)" d="M530.26 1206.56 L530.26 1423.18 L556.478 1423.18 L556.478 1206.56 L530.26 1206.56 L530.26 1206.56  Z" fill="#009af9" fill-rule="evenodd" fill-opacity="1"/>
<polyline clip-path="url(#clip462)" style="stroke:#000000; stroke-linecap:round; stroke-linejoin:round; stroke-width:4; stroke-opacity:1; fill:none" points="530.26,1206.56 530.26,1423.18 556.478,1423.18 556.478,1206.56 530.26,1206.56 "/>
<path clip-path="url(#clip462)" d="M556.478 989.944 L556.478 1423.18 L582.697 1423.18 L582.697 989.944 L556.478 989.944 L556.478 989.944  Z" fill="#009af9" fill-rule="evenodd" fill-opacity="1"/>
<polyline clip-path="url(#clip462)" style="stroke:#000000; stroke-linecap:round; stroke-linejoin:round; stroke-width:4; stroke-opacity:1; fill:none" points="556.478,989.944 556.478,1423.18 582.697,1423.18 582.697,989.944 556.478,989.944 "/>
<path clip-path="url(#clip462)" d="M582.697 1206.56 L582.697 1423.18 L608.916 1423.18 L608.916 1206.56 L582.697 1206.56 L582.697 1206.56  Z" fill="#009af9" fill-rule="evenodd" fill-opacity="1"/>
<polyline clip-path="url(#clip462)" style="stroke:#000000; stroke-linecap:round; stroke-linejoin:round; stroke-width:4; stroke-opacity:1; fill:none" points="582.697,1206.56 582.697,1423.18 608.916,1423.18 608.916,1206.56 582.697,1206.56 "/>
<path clip-path="url(#clip462)" d="M608.916 1098.25 L608.916 1423.18 L635.134 1423.18 L635.134 1098.25 L608.916 1098.25 L608.916 1098.25  Z" fill="#009af9" fill-rule="evenodd" fill-opacity="1"/>
<polyline clip-path="url(#clip462)" style="stroke:#000000; stroke-linecap:round; stroke-linejoin:round; stroke-width:4; stroke-opacity:1; fill:none" points="608.916,1098.25 608.916,1423.18 635.134,1423.18 635.134,1098.25 608.916,1098.25 "/>
<path clip-path="url(#clip462)" d="M635.134 1206.56 L635.134 1423.18 L661.353 1423.18 L661.353 1206.56 L635.134 1206.56 L635.134 1206.56  Z" fill="#009af9" fill-rule="evenodd" fill-opacity="1"/>
<polyline clip-path="url(#clip462)" style="stroke:#000000; stroke-linecap:round; stroke-linejoin:round; stroke-width:4; stroke-opacity:1; fill:none" points="635.134,1206.56 635.134,1423.18 661.353,1423.18 661.353,1206.56 635.134,1206.56 "/>
<path clip-path="url(#clip462)" d="M661.353 1206.56 L661.353 1423.18 L687.572 1423.18 L687.572 1206.56 L661.353 1206.56 L661.353 1206.56  Z" fill="#009af9" fill-rule="evenodd" fill-opacity="1"/>
<polyline clip-path="url(#clip462)" style="stroke:#000000; stroke-linecap:round; stroke-linejoin:round; stroke-width:4; stroke-opacity:1; fill:none" points="661.353,1206.56 661.353,1423.18 687.572,1423.18 687.572,1206.56 661.353,1206.56 "/>
<path clip-path="url(#clip462)" d="M687.572 989.944 L687.572 1423.18 L713.79 1423.18 L713.79 989.944 L687.572 989.944 L687.572 989.944  Z" fill="#009af9" fill-rule="evenodd" fill-opacity="1"/>
<polyline clip-path="url(#clip462)" style="stroke:#000000; stroke-linecap:round; stroke-linejoin:round; stroke-width:4; stroke-opacity:1; fill:none" points="687.572,989.944 687.572,1423.18 713.79,1423.18 713.79,989.944 687.572,989.944 "/>
<path clip-path="url(#clip462)" d="M713.79 1206.56 L713.79 1423.18 L740.009 1423.18 L740.009 1206.56 L713.79 1206.56 L713.79 1206.56  Z" fill="#009af9" fill-rule="evenodd" fill-opacity="1"/>
<polyline clip-path="url(#clip462)" style="stroke:#000000; stroke-linecap:round; stroke-linejoin:round; stroke-width:4; stroke-opacity:1; fill:none" points="713.79,1206.56 713.79,1423.18 740.009,1423.18 740.009,1206.56 713.79,1206.56 "/>
<path clip-path="url(#clip462)" d="M740.009 1098.25 L740.009 1423.18 L766.228 1423.18 L766.228 1098.25 L740.009 1098.25 L740.009 1098.25  Z" fill="#009af9" fill-rule="evenodd" fill-opacity="1"/>
<polyline clip-path="url(#clip462)" style="stroke:#000000; stroke-linecap:round; stroke-linejoin:round; stroke-width:4; stroke-opacity:1; fill:none" points="740.009,1098.25 740.009,1423.18 766.228,1423.18 766.228,1098.25 740.009,1098.25 "/>
<path clip-path="url(#clip462)" d="M766.228 1206.56 L766.228 1423.18 L792.446 1423.18 L792.446 1206.56 L766.228 1206.56 L766.228 1206.56  Z" fill="#009af9" fill-rule="evenodd" fill-opacity="1"/>
<polyline clip-path="url(#clip462)" style="stroke:#000000; stroke-linecap:round; stroke-linejoin:round; stroke-width:4; stroke-opacity:1; fill:none" points="766.228,1206.56 766.228,1423.18 792.446,1423.18 792.446,1206.56 766.228,1206.56 "/>
<path clip-path="url(#clip462)" d="M792.446 1314.87 L792.446 1423.18 L818.665 1423.18 L818.665 1314.87 L792.446 1314.87 L792.446 1314.87  Z" fill="#009af9" fill-rule="evenodd" fill-opacity="1"/>
<polyline clip-path="url(#clip462)" style="stroke:#000000; stroke-linecap:round; stroke-linejoin:round; stroke-width:4; stroke-opacity:1; fill:none" points="792.446,1314.87 792.446,1423.18 818.665,1423.18 818.665,1314.87 792.446,1314.87 "/>
<path clip-path="url(#clip462)" d="M818.665 989.944 L818.665 1423.18 L844.884 1423.18 L844.884 989.944 L818.665 989.944 L818.665 989.944  Z" fill="#009af9" fill-rule="evenodd" fill-opacity="1"/>
<polyline clip-path="url(#clip462)" style="stroke:#000000; stroke-linecap:round; stroke-linejoin:round; stroke-width:4; stroke-opacity:1; fill:none" points="818.665,989.944 818.665,1423.18 844.884,1423.18 844.884,989.944 818.665,989.944 "/>
<path clip-path="url(#clip462)" d="M844.884 1423.18 L844.884 1423.18 L871.102 1423.18 L871.102 1423.18 L844.884 1423.18 L844.884 1423.18  Z" fill="#009af9" fill-rule="evenodd" fill-opacity="1"/>
<polyline clip-path="url(#clip462)" style="stroke:#000000; stroke-linecap:round; stroke-linejoin:round; stroke-width:4; stroke-opacity:1; fill:none" points="844.884,1423.18 844.884,1423.18 871.102,1423.18 844.884,1423.18 "/>
<path clip-path="url(#clip462)" d="M871.102 1098.25 L871.102 1423.18 L897.321 1423.18 L897.321 1098.25 L871.102 1098.25 L871.102 1098.25  Z" fill="#009af9" fill-rule="evenodd" fill-opacity="1"/>
<polyline clip-path="url(#clip462)" style="stroke:#000000; stroke-linecap:round; stroke-linejoin:round; stroke-width:4; stroke-opacity:1; fill:none" points="871.102,1098.25 871.102,1423.18 897.321,1423.18 897.321,1098.25 871.102,1098.25 "/>
<path clip-path="url(#clip462)" d="M897.321 556.708 L897.321 1423.18 L923.54 1423.18 L923.54 556.708 L897.321 556.708 L897.321 556.708  Z" fill="#009af9" fill-rule="evenodd" fill-opacity="1"/>
<polyline clip-path="url(#clip462)" style="stroke:#000000; stroke-linecap:round; stroke-linejoin:round; stroke-width:4; stroke-opacity:1; fill:none" points="897.321,556.708 897.321,1423.18 923.54,1423.18 923.54,556.708 897.321,556.708 "/>
<path clip-path="url(#clip462)" d="M923.54 556.708 L923.54 1423.18 L949.758 1423.18 L949.758 556.708 L923.54 556.708 L923.54 556.708  Z" fill="#009af9" fill-rule="evenodd" fill-opacity="1"/>
<polyline clip-path="url(#clip462)" style="stroke:#000000; stroke-linecap:round; stroke-linejoin:round; stroke-width:4; stroke-opacity:1; fill:none" points="923.54,556.708 923.54,1423.18 949.758,1423.18 949.758,556.708 923.54,556.708 "/>
<path clip-path="url(#clip462)" d="M949.758 1206.56 L949.758 1423.18 L975.977 1423.18 L975.977 1206.56 L949.758 1206.56 L949.758 1206.56  Z" fill="#009af9" fill-rule="evenodd" fill-opacity="1"/>
<polyline clip-path="url(#clip462)" style="stroke:#000000; stroke-linecap:round; stroke-linejoin:round; stroke-width:4; stroke-opacity:1; fill:none" points="949.758,1206.56 949.758,1423.18 975.977,1423.18 975.977,1206.56 949.758,1206.56 "/>
<path clip-path="url(#clip462)" d="M975.977 1098.25 L975.977 1423.18 L1002.2 1423.18 L1002.2 1098.25 L975.977 1098.25 L975.977 1098.25  Z" fill="#009af9" fill-rule="evenodd" fill-opacity="1"/>
<polyline clip-path="url(#clip462)" style="stroke:#000000; stroke-linecap:round; stroke-linejoin:round; stroke-width:4; stroke-opacity:1; fill:none" points="975.977,1098.25 975.977,1423.18 1002.2,1423.18 1002.2,1098.25 975.977,1098.25 "/>
<path clip-path="url(#clip462)" d="M1002.2 989.944 L1002.2 1423.18 L1028.41 1423.18 L1028.41 989.944 L1002.2 989.944 L1002.2 989.944  Z" fill="#009af9" fill-rule="evenodd" fill-opacity="1"/>
<polyline clip-path="url(#clip462)" style="stroke:#000000; stroke-linecap:round; stroke-linejoin:round; stroke-width:4; stroke-opacity:1; fill:none" points="1002.2,989.944 1002.2,1423.18 1028.41,1423.18 1028.41,989.944 1002.2,989.944 "/>
<path clip-path="url(#clip462)" d="M1028.41 989.944 L1028.41 1423.18 L1054.63 1423.18 L1054.63 989.944 L1028.41 989.944 L1028.41 989.944  Z" fill="#009af9" fill-rule="evenodd" fill-opacity="1"/>
<polyline clip-path="url(#clip462)" style="stroke:#000000; stroke-linecap:round; stroke-linejoin:round; stroke-width:4; stroke-opacity:1; fill:none" points="1028.41,989.944 1028.41,1423.18 1054.63,1423.18 1054.63,989.944 1028.41,989.944 "/>
<path clip-path="url(#clip462)" d="M1054.63 1098.25 L1054.63 1423.18 L1080.85 1423.18 L1080.85 1098.25 L1054.63 1098.25 L1054.63 1098.25  Z" fill="#009af9" fill-rule="evenodd" fill-opacity="1"/>
<polyline clip-path="url(#clip462)" style="stroke:#000000; stroke-linecap:round; stroke-linejoin:round; stroke-width:4; stroke-opacity:1; fill:none" points="1054.63,1098.25 1054.63,1423.18 1080.85,1423.18 1080.85,1098.25 1054.63,1098.25 "/>
<path clip-path="url(#clip462)" d="M1080.85 1314.87 L1080.85 1423.18 L1107.07 1423.18 L1107.07 1314.87 L1080.85 1314.87 L1080.85 1314.87  Z" fill="#009af9" fill-rule="evenodd" fill-opacity="1"/>
<polyline clip-path="url(#clip462)" style="stroke:#000000; stroke-linecap:round; stroke-linejoin:round; stroke-width:4; stroke-opacity:1; fill:none" points="1080.85,1314.87 1080.85,1423.18 1107.07,1423.18 1107.07,1314.87 1080.85,1314.87 "/>
<path clip-path="url(#clip462)" d="M1107.07 989.944 L1107.07 1423.18 L1133.29 1423.18 L1133.29 989.944 L1107.07 989.944 L1107.07 989.944  Z" fill="#009af9" fill-rule="evenodd" fill-opacity="1"/>
<polyline clip-path="url(#clip462)" style="stroke:#000000; stroke-linecap:round; stroke-linejoin:round; stroke-width:4; stroke-opacity:1; fill:none" points="1107.07,989.944 1107.07,1423.18 1133.29,1423.18 1133.29,989.944 1107.07,989.944 "/>
<path clip-path="url(#clip462)" d="M1133.29 665.017 L1133.29 1423.18 L1159.51 1423.18 L1159.51 665.017 L1133.29 665.017 L1133.29 665.017  Z" fill="#009af9" fill-rule="evenodd" fill-opacity="1"/>
<polyline clip-path="url(#clip462)" style="stroke:#000000; stroke-linecap:round; stroke-linejoin:round; stroke-width:4; stroke-opacity:1; fill:none" points="1133.29,665.017 1133.29,1423.18 1159.51,1423.18 1159.51,665.017 1133.29,665.017 "/>
<path clip-path="url(#clip462)" d="M1159.51 1098.25 L1159.51 1423.18 L1185.73 1423.18 L1185.73 1098.25 L1159.51 1098.25 L1159.51 1098.25  Z" fill="#009af9" fill-rule="evenodd" fill-opacity="1"/>
<polyline clip-path="url(#clip462)" style="stroke:#000000; stroke-linecap:round; stroke-linejoin:round; stroke-width:4; stroke-opacity:1; fill:none" points="1159.51,1098.25 1159.51,1423.18 1185.73,1423.18 1185.73,1098.25 1159.51,1098.25 "/>
<path clip-path="url(#clip462)" d="M1185.73 989.944 L1185.73 1423.18 L1211.95 1423.18 L1211.95 989.944 L1185.73 989.944 L1185.73 989.944  Z" fill="#009af9" fill-rule="evenodd" fill-opacity="1"/>
<polyline clip-path="url(#clip462)" style="stroke:#000000; stroke-linecap:round; stroke-linejoin:round; stroke-width:4; stroke-opacity:1; fill:none" points="1185.73,989.944 1185.73,1423.18 1211.95,1423.18 1211.95,989.944 1185.73,989.944 "/>
<path clip-path="url(#clip462)" d="M1211.95 989.944 L1211.95 1423.18 L1238.16 1423.18 L1238.16 989.944 L1211.95 989.944 L1211.95 989.944  Z" fill="#009af9" fill-rule="evenodd" fill-opacity="1"/>
<polyline clip-path="url(#clip462)" style="stroke:#000000; stroke-linecap:round; stroke-linejoin:round; stroke-width:4; stroke-opacity:1; fill:none" points="1211.95,989.944 1211.95,1423.18 1238.16,1423.18 1238.16,989.944 1211.95,989.944 "/>
<path clip-path="url(#clip462)" d="M1238.16 881.635 L1238.16 1423.18 L1264.38 1423.18 L1264.38 881.635 L1238.16 881.635 L1238.16 881.635  Z" fill="#009af9" fill-rule="evenodd" fill-opacity="1"/>
<polyline clip-path="url(#clip462)" style="stroke:#000000; stroke-linecap:round; stroke-linejoin:round; stroke-width:4; stroke-opacity:1; fill:none" points="1238.16,881.635 1238.16,1423.18 1264.38,1423.18 1264.38,881.635 1238.16,881.635 "/>
<path clip-path="url(#clip462)" d="M1264.38 1098.25 L1264.38 1423.18 L1290.6 1423.18 L1290.6 1098.25 L1264.38 1098.25 L1264.38 1098.25  Z" fill="#009af9" fill-rule="evenodd" fill-opacity="1"/>
<polyline clip-path="url(#clip462)" style="stroke:#000000; stroke-linecap:round; stroke-linejoin:round; stroke-width:4; stroke-opacity:1; fill:none" points="1264.38,1098.25 1264.38,1423.18 1290.6,1423.18 1290.6,1098.25 1264.38,1098.25 "/>
<path clip-path="url(#clip462)" d="M1290.6 773.326 L1290.6 1423.18 L1316.82 1423.18 L1316.82 773.326 L1290.6 773.326 L1290.6 773.326  Z" fill="#009af9" fill-rule="evenodd" fill-opacity="1"/>
<polyline clip-path="url(#clip462)" style="stroke:#000000; stroke-linecap:round; stroke-linejoin:round; stroke-width:4; stroke-opacity:1; fill:none" points="1290.6,773.326 1290.6,1423.18 1316.82,1423.18 1316.82,773.326 1290.6,773.326 "/>
<path clip-path="url(#clip462)" d="M1316.82 881.635 L1316.82 1423.18 L1343.04 1423.18 L1343.04 881.635 L1316.82 881.635 L1316.82 881.635  Z" fill="#009af9" fill-rule="evenodd" fill-opacity="1"/>
<polyline clip-path="url(#clip462)" style="stroke:#000000; stroke-linecap:round; stroke-linejoin:round; stroke-width:4; stroke-opacity:1; fill:none" points="1316.82,881.635 1316.82,1423.18 1343.04,1423.18 1343.04,881.635 1316.82,881.635 "/>
<path clip-path="url(#clip462)" d="M1343.04 881.635 L1343.04 1423.18 L1369.26 1423.18 L1369.26 881.635 L1343.04 881.635 L1343.04 881.635  Z" fill="#009af9" fill-rule="evenodd" fill-opacity="1"/>
<polyline clip-path="url(#clip462)" style="stroke:#000000; stroke-linecap:round; stroke-linejoin:round; stroke-width:4; stroke-opacity:1; fill:none" points="1343.04,881.635 1343.04,1423.18 1369.26,1423.18 1369.26,881.635 1343.04,881.635 "/>
<path clip-path="url(#clip462)" d="M1369.26 1098.25 L1369.26 1423.18 L1395.48 1423.18 L1395.48 1098.25 L1369.26 1098.25 L1369.26 1098.25  Z" fill="#009af9" fill-rule="evenodd" fill-opacity="1"/>
<polyline clip-path="url(#clip462)" style="stroke:#000000; stroke-linecap:round; stroke-linejoin:round; stroke-width:4; stroke-opacity:1; fill:none" points="1369.26,1098.25 1369.26,1423.18 1395.48,1423.18 1395.48,1098.25 1369.26,1098.25 "/>
<path clip-path="url(#clip462)" d="M1395.48 1206.56 L1395.48 1423.18 L1421.69 1423.18 L1421.69 1206.56 L1395.48 1206.56 L1395.48 1206.56  Z" fill="#009af9" fill-rule="evenodd" fill-opacity="1"/>
<polyline clip-path="url(#clip462)" style="stroke:#000000; stroke-linecap:round; stroke-linejoin:round; stroke-width:4; stroke-opacity:1; fill:none" points="1395.48,1206.56 1395.48,1423.18 1421.69,1423.18 1421.69,1206.56 1395.48,1206.56 "/>
<path clip-path="url(#clip462)" d="M1421.69 556.708 L1421.69 1423.18 L1447.91 1423.18 L1447.91 556.708 L1421.69 556.708 L1421.69 556.708  Z" fill="#009af9" fill-rule="evenodd" fill-opacity="1"/>
<polyline clip-path="url(#clip462)" style="stroke:#000000; stroke-linecap:round; stroke-linejoin:round; stroke-width:4; stroke-opacity:1; fill:none" points="1421.69,556.708 1421.69,1423.18 1447.91,1423.18 1447.91,556.708 1421.69,556.708 "/>
<path clip-path="url(#clip462)" d="M1447.91 556.708 L1447.91 1423.18 L1474.13 1423.18 L1474.13 556.708 L1447.91 556.708 L1447.91 556.708  Z" fill="#009af9" fill-rule="evenodd" fill-opacity="1"/>
<polyline clip-path="url(#clip462)" style="stroke:#000000; stroke-linecap:round; stroke-linejoin:round; stroke-width:4; stroke-opacity:1; fill:none" points="1447.91,556.708 1447.91,1423.18 1474.13,1423.18 1474.13,556.708 1447.91,556.708 "/>
<path clip-path="url(#clip462)" d="M1474.13 773.326 L1474.13 1423.18 L1500.35 1423.18 L1500.35 773.326 L1474.13 773.326 L1474.13 773.326  Z" fill="#009af9" fill-rule="evenodd" fill-opacity="1"/>
<polyline clip-path="url(#clip462)" style="stroke:#000000; stroke-linecap:round; stroke-linejoin:round; stroke-width:4; stroke-opacity:1; fill:none" points="1474.13,773.326 1474.13,1423.18 1500.35,1423.18 1500.35,773.326 1474.13,773.326 "/>
<path clip-path="url(#clip462)" d="M1500.35 1314.87 L1500.35 1423.18 L1526.57 1423.18 L1526.57 1314.87 L1500.35 1314.87 L1500.35 1314.87  Z" fill="#009af9" fill-rule="evenodd" fill-opacity="1"/>
<polyline clip-path="url(#clip462)" style="stroke:#000000; stroke-linecap:round; stroke-linejoin:round; stroke-width:4; stroke-opacity:1; fill:none" points="1500.35,1314.87 1500.35,1423.18 1526.57,1423.18 1526.57,1314.87 1500.35,1314.87 "/>
<path clip-path="url(#clip462)" d="M1526.57 881.635 L1526.57 1423.18 L1552.79 1423.18 L1552.79 881.635 L1526.57 881.635 L1526.57 881.635  Z" fill="#009af9" fill-rule="evenodd" fill-opacity="1"/>
<polyline clip-path="url(#clip462)" style="stroke:#000000; stroke-linecap:round; stroke-linejoin:round; stroke-width:4; stroke-opacity:1; fill:none" points="1526.57,881.635 1526.57,1423.18 1552.79,1423.18 1552.79,881.635 1526.57,881.635 "/>
<path clip-path="url(#clip462)" d="M1552.79 1098.25 L1552.79 1423.18 L1579.01 1423.18 L1579.01 1098.25 L1552.79 1098.25 L1552.79 1098.25  Z" fill="#009af9" fill-rule="evenodd" fill-opacity="1"/>
<polyline clip-path="url(#clip462)" style="stroke:#000000; stroke-linecap:round; stroke-linejoin:round; stroke-width:4; stroke-opacity:1; fill:none" points="1552.79,1098.25 1552.79,1423.18 1579.01,1423.18 1579.01,1098.25 1552.79,1098.25 "/>
<path clip-path="url(#clip462)" d="M1579.01 665.017 L1579.01 1423.18 L1605.23 1423.18 L1605.23 665.017 L1579.01 665.017 L1579.01 665.017  Z" fill="#009af9" fill-rule="evenodd" fill-opacity="1"/>
<polyline clip-path="url(#clip462)" style="stroke:#000000; stroke-linecap:round; stroke-linejoin:round; stroke-width:4; stroke-opacity:1; fill:none" points="1579.01,665.017 1579.01,1423.18 1605.23,1423.18 1605.23,665.017 1579.01,665.017 "/>
<path clip-path="url(#clip462)" d="M1605.23 989.944 L1605.23 1423.18 L1631.44 1423.18 L1631.44 989.944 L1605.23 989.944 L1605.23 989.944  Z" fill="#009af9" fill-rule="evenodd" fill-opacity="1"/>
<polyline clip-path="url(#clip462)" style="stroke:#000000; stroke-linecap:round; stroke-linejoin:round; stroke-width:4; stroke-opacity:1; fill:none" points="1605.23,989.944 1605.23,1423.18 1631.44,1423.18 1631.44,989.944 1605.23,989.944 "/>
<path clip-path="url(#clip462)" d="M1631.44 989.944 L1631.44 1423.18 L1657.66 1423.18 L1657.66 989.944 L1631.44 989.944 L1631.44 989.944  Z" fill="#009af9" fill-rule="evenodd" fill-opacity="1"/>
<polyline clip-path="url(#clip462)" style="stroke:#000000; stroke-linecap:round; stroke-linejoin:round; stroke-width:4; stroke-opacity:1; fill:none" points="1631.44,989.944 1631.44,1423.18 1657.66,1423.18 1657.66,989.944 1631.44,989.944 "/>
<path clip-path="url(#clip462)" d="M1657.66 665.017 L1657.66 1423.18 L1683.88 1423.18 L1683.88 665.017 L1657.66 665.017 L1657.66 665.017  Z" fill="#009af9" fill-rule="evenodd" fill-opacity="1"/>
<polyline clip-path="url(#clip462)" style="stroke:#000000; stroke-linecap:round; stroke-linejoin:round; stroke-width:4; stroke-opacity:1; fill:none" points="1657.66,665.017 1657.66,1423.18 1683.88,1423.18 1683.88,665.017 1657.66,665.017 "/>
<path clip-path="url(#clip462)" d="M1683.88 1206.56 L1683.88 1423.18 L1710.1 1423.18 L1710.1 1206.56 L1683.88 1206.56 L1683.88 1206.56  Z" fill="#009af9" fill-rule="evenodd" fill-opacity="1"/>
<polyline clip-path="url(#clip462)" style="stroke:#000000; stroke-linecap:round; stroke-linejoin:round; stroke-width:4; stroke-opacity:1; fill:none" points="1683.88,1206.56 1683.88,1423.18 1710.1,1423.18 1710.1,1206.56 1683.88,1206.56 "/>
<path clip-path="url(#clip462)" d="M1710.1 556.708 L1710.1 1423.18 L1736.32 1423.18 L1736.32 556.708 L1710.1 556.708 L1710.1 556.708  Z" fill="#009af9" fill-rule="evenodd" fill-opacity="1"/>
<polyline clip-path="url(#clip462)" style="stroke:#000000; stroke-linecap:round; stroke-linejoin:round; stroke-width:4; stroke-opacity:1; fill:none" points="1710.1,556.708 1710.1,1423.18 1736.32,1423.18 1736.32,556.708 1710.1,556.708 "/>
<path clip-path="url(#clip462)" d="M1736.32 1206.56 L1736.32 1423.18 L1762.54 1423.18 L1762.54 1206.56 L1736.32 1206.56 L1736.32 1206.56  Z" fill="#009af9" fill-rule="evenodd" fill-opacity="1"/>
<polyline clip-path="url(#clip462)" style="stroke:#000000; stroke-linecap:round; stroke-linejoin:round; stroke-width:4; stroke-opacity:1; fill:none" points="1736.32,1206.56 1736.32,1423.18 1762.54,1423.18 1762.54,1206.56 1736.32,1206.56 "/>
<path clip-path="url(#clip462)" d="M1762.54 881.635 L1762.54 1423.18 L1788.76 1423.18 L1788.76 881.635 L1762.54 881.635 L1762.54 881.635  Z" fill="#009af9" fill-rule="evenodd" fill-opacity="1"/>
<polyline clip-path="url(#clip462)" style="stroke:#000000; stroke-linecap:round; stroke-linejoin:round; stroke-width:4; stroke-opacity:1; fill:none" points="1762.54,881.635 1762.54,1423.18 1788.76,1423.18 1788.76,881.635 1762.54,881.635 "/>
<path clip-path="url(#clip462)" d="M1788.76 448.399 L1788.76 1423.18 L1814.97 1423.18 L1814.97 448.399 L1788.76 448.399 L1788.76 448.399  Z" fill="#009af9" fill-rule="evenodd" fill-opacity="1"/>
<polyline clip-path="url(#clip462)" style="stroke:#000000; stroke-linecap:round; stroke-linejoin:round; stroke-width:4; stroke-opacity:1; fill:none" points="1788.76,448.399 1788.76,1423.18 1814.97,1423.18 1814.97,448.399 1788.76,448.399 "/>
<path clip-path="url(#clip462)" d="M1814.97 1098.25 L1814.97 1423.18 L1841.19 1423.18 L1841.19 1098.25 L1814.97 1098.25 L1814.97 1098.25  Z" fill="#009af9" fill-rule="evenodd" fill-opacity="1"/>
<polyline clip-path="url(#clip462)" style="stroke:#000000; stroke-linecap:round; stroke-linejoin:round; stroke-width:4; stroke-opacity:1; fill:none" points="1814.97,1098.25 1814.97,1423.18 1841.19,1423.18 1841.19,1098.25 1814.97,1098.25 "/>
<path clip-path="url(#clip462)" d="M1841.19 773.326 L1841.19 1423.18 L1867.41 1423.18 L1867.41 773.326 L1841.19 773.326 L1841.19 773.326  Z" fill="#009af9" fill-rule="evenodd" fill-opacity="1"/>
<polyline clip-path="url(#clip462)" style="stroke:#000000; stroke-linecap:round; stroke-linejoin:round; stroke-width:4; stroke-opacity:1; fill:none" points="1841.19,773.326 1841.19,1423.18 1867.41,1423.18 1867.41,773.326 1841.19,773.326 "/>
<path clip-path="url(#clip462)" d="M1867.41 665.017 L1867.41 1423.18 L1893.63 1423.18 L1893.63 665.017 L1867.41 665.017 L1867.41 665.017  Z" fill="#009af9" fill-rule="evenodd" fill-opacity="1"/>
<polyline clip-path="url(#clip462)" style="stroke:#000000; stroke-linecap:round; stroke-linejoin:round; stroke-width:4; stroke-opacity:1; fill:none" points="1867.41,665.017 1867.41,1423.18 1893.63,1423.18 1893.63,665.017 1867.41,665.017 "/>
<path clip-path="url(#clip462)" d="M1893.63 1098.25 L1893.63 1423.18 L1919.85 1423.18 L1919.85 1098.25 L1893.63 1098.25 L1893.63 1098.25  Z" fill="#009af9" fill-rule="evenodd" fill-opacity="1"/>
<polyline clip-path="url(#clip462)" style="stroke:#000000; stroke-linecap:round; stroke-linejoin:round; stroke-width:4; stroke-opacity:1; fill:none" points="1893.63,1098.25 1893.63,1423.18 1919.85,1423.18 1919.85,1098.25 1893.63,1098.25 "/>
<path clip-path="url(#clip462)" d="M1919.85 1098.25 L1919.85 1423.18 L1946.07 1423.18 L1946.07 1098.25 L1919.85 1098.25 L1919.85 1098.25  Z" fill="#009af9" fill-rule="evenodd" fill-opacity="1"/>
<polyline clip-path="url(#clip462)" style="stroke:#000000; stroke-linecap:round; stroke-linejoin:round; stroke-width:4; stroke-opacity:1; fill:none" points="1919.85,1098.25 1919.85,1423.18 1946.07,1423.18 1946.07,1098.25 1919.85,1098.25 "/>
<path clip-path="url(#clip462)" d="M1946.07 989.944 L1946.07 1423.18 L1972.29 1423.18 L1972.29 989.944 L1946.07 989.944 L1946.07 989.944  Z" fill="#009af9" fill-rule="evenodd" fill-opacity="1"/>
<polyline clip-path="url(#clip462)" style="stroke:#000000; stroke-linecap:round; stroke-linejoin:round; stroke-width:4; stroke-opacity:1; fill:none" points="1946.07,989.944 1946.07,1423.18 1972.29,1423.18 1972.29,989.944 1946.07,989.944 "/>
<path clip-path="url(#clip462)" d="M1972.29 1206.56 L1972.29 1423.18 L1998.51 1423.18 L1998.51 1206.56 L1972.29 1206.56 L1972.29 1206.56  Z" fill="#009af9" fill-rule="evenodd" fill-opacity="1"/>
<polyline clip-path="url(#clip462)" style="stroke:#000000; stroke-linecap:round; stroke-linejoin:round; stroke-width:4; stroke-opacity:1; fill:none" points="1972.29,1206.56 1972.29,1423.18 1998.51,1423.18 1998.51,1206.56 1972.29,1206.56 "/>
<path clip-path="url(#clip462)" d="M1998.51 989.944 L1998.51 1423.18 L2024.72 1423.18 L2024.72 989.944 L1998.51 989.944 L1998.51 989.944  Z" fill="#009af9" fill-rule="evenodd" fill-opacity="1"/>
<polyline clip-path="url(#clip462)" style="stroke:#000000; stroke-linecap:round; stroke-linejoin:round; stroke-width:4; stroke-opacity:1; fill:none" points="1998.51,989.944 1998.51,1423.18 2024.72,1423.18 2024.72,989.944 1998.51,989.944 "/>
<path clip-path="url(#clip462)" d="M2024.72 1206.56 L2024.72 1423.18 L2050.94 1423.18 L2050.94 1206.56 L2024.72 1206.56 L2024.72 1206.56  Z" fill="#009af9" fill-rule="evenodd" fill-opacity="1"/>
<polyline clip-path="url(#clip462)" style="stroke:#000000; stroke-linecap:round; stroke-linejoin:round; stroke-width:4; stroke-opacity:1; fill:none" points="2024.72,1206.56 2024.72,1423.18 2050.94,1423.18 2050.94,1206.56 2024.72,1206.56 "/>
<path clip-path="url(#clip462)" d="M2050.94 1423.18 L2050.94 1423.18 L2077.16 1423.18 L2077.16 1423.18 L2050.94 1423.18 L2050.94 1423.18  Z" fill="#009af9" fill-rule="evenodd" fill-opacity="1"/>
<polyline clip-path="url(#clip462)" style="stroke:#000000; stroke-linecap:round; stroke-linejoin:round; stroke-width:4; stroke-opacity:1; fill:none" points="2050.94,1423.18 2050.94,1423.18 2077.16,1423.18 2050.94,1423.18 "/>
<path clip-path="url(#clip462)" d="M2077.16 1098.25 L2077.16 1423.18 L2103.38 1423.18 L2103.38 1098.25 L2077.16 1098.25 L2077.16 1098.25  Z" fill="#009af9" fill-rule="evenodd" fill-opacity="1"/>
<polyline clip-path="url(#clip462)" style="stroke:#000000; stroke-linecap:round; stroke-linejoin:round; stroke-width:4; stroke-opacity:1; fill:none" points="2077.16,1098.25 2077.16,1423.18 2103.38,1423.18 2103.38,1098.25 2077.16,1098.25 "/>
<path clip-path="url(#clip462)" d="M2103.38 989.944 L2103.38 1423.18 L2129.6 1423.18 L2129.6 989.944 L2103.38 989.944 L2103.38 989.944  Z" fill="#009af9" fill-rule="evenodd" fill-opacity="1"/>
<polyline clip-path="url(#clip462)" style="stroke:#000000; stroke-linecap:round; stroke-linejoin:round; stroke-width:4; stroke-opacity:1; fill:none" points="2103.38,989.944 2103.38,1423.18 2129.6,1423.18 2129.6,989.944 2103.38,989.944 "/>
<path clip-path="url(#clip462)" d="M2129.6 1314.87 L2129.6 1423.18 L2155.82 1423.18 L2155.82 1314.87 L2129.6 1314.87 L2129.6 1314.87  Z" fill="#009af9" fill-rule="evenodd" fill-opacity="1"/>
<polyline clip-path="url(#clip462)" style="stroke:#000000; stroke-linecap:round; stroke-linejoin:round; stroke-width:4; stroke-opacity:1; fill:none" points="2129.6,1314.87 2129.6,1423.18 2155.82,1423.18 2155.82,1314.87 2129.6,1314.87 "/>
<path clip-path="url(#clip462)" d="M2155.82 1098.25 L2155.82 1423.18 L2182.04 1423.18 L2182.04 1098.25 L2155.82 1098.25 L2155.82 1098.25  Z" fill="#009af9" fill-rule="evenodd" fill-opacity="1"/>
<polyline clip-path="url(#clip462)" style="stroke:#000000; stroke-linecap:round; stroke-linejoin:round; stroke-width:4; stroke-opacity:1; fill:none" points="2155.82,1098.25 2155.82,1423.18 2182.04,1423.18 2182.04,1098.25 2155.82,1098.25 "/>
<path clip-path="url(#clip462)" d="M2182.04 1098.25 L2182.04 1423.18 L2208.25 1423.18 L2208.25 1098.25 L2182.04 1098.25 L2182.04 1098.25  Z" fill="#009af9" fill-rule="evenodd" fill-opacity="1"/>
<polyline clip-path="url(#clip462)" style="stroke:#000000; stroke-linecap:round; stroke-linejoin:round; stroke-width:4; stroke-opacity:1; fill:none" points="2182.04,1098.25 2182.04,1423.18 2208.25,1423.18 2208.25,1098.25 2182.04,1098.25 "/>
<path clip-path="url(#clip462)" d="M2208.25 1314.87 L2208.25 1423.18 L2234.47 1423.18 L2234.47 1314.87 L2208.25 1314.87 L2208.25 1314.87  Z" fill="#009af9" fill-rule="evenodd" fill-opacity="1"/>
<polyline clip-path="url(#clip462)" style="stroke:#000000; stroke-linecap:round; stroke-linejoin:round; stroke-width:4; stroke-opacity:1; fill:none" points="2208.25,1314.87 2208.25,1423.18 2234.47,1423.18 2234.47,1314.87 2208.25,1314.87 "/>
<circle clip-path="url(#clip462)" style="fill:#009af9; stroke:none; fill-opacity:0" cx="333.62" cy="1314.87" r="2"/>
<circle clip-path="url(#clip462)" style="fill:#009af9; stroke:none; fill-opacity:0" cx="359.838" cy="665.017" r="2"/>
<circle clip-path="url(#clip462)" style="fill:#009af9; stroke:none; fill-opacity:0" cx="386.057" cy="123.472" r="2"/>
<circle clip-path="url(#clip462)" style="fill:#009af9; stroke:none; fill-opacity:0" cx="412.276" cy="881.635" r="2"/>
<circle clip-path="url(#clip462)" style="fill:#009af9; stroke:none; fill-opacity:0" cx="438.494" cy="881.635" r="2"/>
<circle clip-path="url(#clip462)" style="fill:#009af9; stroke:none; fill-opacity:0" cx="464.713" cy="665.017" r="2"/>
<circle clip-path="url(#clip462)" style="fill:#009af9; stroke:none; fill-opacity:0" cx="490.932" cy="773.326" r="2"/>
<circle clip-path="url(#clip462)" style="fill:#009af9; stroke:none; fill-opacity:0" cx="517.15" cy="1314.87" r="2"/>
<circle clip-path="url(#clip462)" style="fill:#009af9; stroke:none; fill-opacity:0" cx="543.369" cy="1206.56" r="2"/>
<circle clip-path="url(#clip462)" style="fill:#009af9; stroke:none; fill-opacity:0" cx="569.588" cy="989.944" r="2"/>
<circle clip-path="url(#clip462)" style="fill:#009af9; stroke:none; fill-opacity:0" cx="595.806" cy="1206.56" r="2"/>
<circle clip-path="url(#clip462)" style="fill:#009af9; stroke:none; fill-opacity:0" cx="622.025" cy="1098.25" r="2"/>
<circle clip-path="url(#clip462)" style="fill:#009af9; stroke:none; fill-opacity:0" cx="648.244" cy="1206.56" r="2"/>
<circle clip-path="url(#clip462)" style="fill:#009af9; stroke:none; fill-opacity:0" cx="674.462" cy="1206.56" r="2"/>
<circle clip-path="url(#clip462)" style="fill:#009af9; stroke:none; fill-opacity:0" cx="700.681" cy="989.944" r="2"/>
<circle clip-path="url(#clip462)" style="fill:#009af9; stroke:none; fill-opacity:0" cx="726.9" cy="1206.56" r="2"/>
<circle clip-path="url(#clip462)" style="fill:#009af9; stroke:none; fill-opacity:0" cx="753.118" cy="1098.25" r="2"/>
<circle clip-path="url(#clip462)" style="fill:#009af9; stroke:none; fill-opacity:0" cx="779.337" cy="1206.56" r="2"/>
<circle clip-path="url(#clip462)" style="fill:#009af9; stroke:none; fill-opacity:0" cx="805.556" cy="1314.87" r="2"/>
<circle clip-path="url(#clip462)" style="fill:#009af9; stroke:none; fill-opacity:0" cx="831.774" cy="989.944" r="2"/>
<circle clip-path="url(#clip462)" style="fill:#009af9; stroke:none; fill-opacity:0" cx="857.993" cy="1423.18" r="2"/>
<circle clip-path="url(#clip462)" style="fill:#009af9; stroke:none; fill-opacity:0" cx="884.212" cy="1098.25" r="2"/>
<circle clip-path="url(#clip462)" style="fill:#009af9; stroke:none; fill-opacity:0" cx="910.43" cy="556.708" r="2"/>
<circle clip-path="url(#clip462)" style="fill:#009af9; stroke:none; fill-opacity:0" cx="936.649" cy="556.708" r="2"/>
<circle clip-path="url(#clip462)" style="fill:#009af9; stroke:none; fill-opacity:0" cx="962.868" cy="1206.56" r="2"/>
<circle clip-path="url(#clip462)" style="fill:#009af9; stroke:none; fill-opacity:0" cx="989.086" cy="1098.25" r="2"/>
<circle clip-path="url(#clip462)" style="fill:#009af9; stroke:none; fill-opacity:0" cx="1015.31" cy="989.944" r="2"/>
<circle clip-path="url(#clip462)" style="fill:#009af9; stroke:none; fill-opacity:0" cx="1041.52" cy="989.944" r="2"/>
<circle clip-path="url(#clip462)" style="fill:#009af9; stroke:none; fill-opacity:0" cx="1067.74" cy="1098.25" r="2"/>
<circle clip-path="url(#clip462)" style="fill:#009af9; stroke:none; fill-opacity:0" cx="1093.96" cy="1314.87" r="2"/>
<circle clip-path="url(#clip462)" style="fill:#009af9; stroke:none; fill-opacity:0" cx="1120.18" cy="989.944" r="2"/>
<circle clip-path="url(#clip462)" style="fill:#009af9; stroke:none; fill-opacity:0" cx="1146.4" cy="665.017" r="2"/>
<circle clip-path="url(#clip462)" style="fill:#009af9; stroke:none; fill-opacity:0" cx="1172.62" cy="1098.25" r="2"/>
<circle clip-path="url(#clip462)" style="fill:#009af9; stroke:none; fill-opacity:0" cx="1198.84" cy="989.944" r="2"/>
<circle clip-path="url(#clip462)" style="fill:#009af9; stroke:none; fill-opacity:0" cx="1225.05" cy="989.944" r="2"/>
<circle clip-path="url(#clip462)" style="fill:#009af9; stroke:none; fill-opacity:0" cx="1251.27" cy="881.635" r="2"/>
<circle clip-path="url(#clip462)" style="fill:#009af9; stroke:none; fill-opacity:0" cx="1277.49" cy="1098.25" r="2"/>
<circle clip-path="url(#clip462)" style="fill:#009af9; stroke:none; fill-opacity:0" cx="1303.71" cy="773.326" r="2"/>
<circle clip-path="url(#clip462)" style="fill:#009af9; stroke:none; fill-opacity:0" cx="1329.93" cy="881.635" r="2"/>
<circle clip-path="url(#clip462)" style="fill:#009af9; stroke:none; fill-opacity:0" cx="1356.15" cy="881.635" r="2"/>
<circle clip-path="url(#clip462)" style="fill:#009af9; stroke:none; fill-opacity:0" cx="1382.37" cy="1098.25" r="2"/>
<circle clip-path="url(#clip462)" style="fill:#009af9; stroke:none; fill-opacity:0" cx="1408.59" cy="1206.56" r="2"/>
<circle clip-path="url(#clip462)" style="fill:#009af9; stroke:none; fill-opacity:0" cx="1434.8" cy="556.708" r="2"/>
<circle clip-path="url(#clip462)" style="fill:#009af9; stroke:none; fill-opacity:0" cx="1461.02" cy="556.708" r="2"/>
<circle clip-path="url(#clip462)" style="fill:#009af9; stroke:none; fill-opacity:0" cx="1487.24" cy="773.326" r="2"/>
<circle clip-path="url(#clip462)" style="fill:#009af9; stroke:none; fill-opacity:0" cx="1513.46" cy="1314.87" r="2"/>
<circle clip-path="url(#clip462)" style="fill:#009af9; stroke:none; fill-opacity:0" cx="1539.68" cy="881.635" r="2"/>
<circle clip-path="url(#clip462)" style="fill:#009af9; stroke:none; fill-opacity:0" cx="1565.9" cy="1098.25" r="2"/>
<circle clip-path="url(#clip462)" style="fill:#009af9; stroke:none; fill-opacity:0" cx="1592.12" cy="665.017" r="2"/>
<circle clip-path="url(#clip462)" style="fill:#009af9; stroke:none; fill-opacity:0" cx="1618.33" cy="989.944" r="2"/>
<circle clip-path="url(#clip462)" style="fill:#009af9; stroke:none; fill-opacity:0" cx="1644.55" cy="989.944" r="2"/>
<circle clip-path="url(#clip462)" style="fill:#009af9; stroke:none; fill-opacity:0" cx="1670.77" cy="665.017" r="2"/>
<circle clip-path="url(#clip462)" style="fill:#009af9; stroke:none; fill-opacity:0" cx="1696.99" cy="1206.56" r="2"/>
<circle clip-path="url(#clip462)" style="fill:#009af9; stroke:none; fill-opacity:0" cx="1723.21" cy="556.708" r="2"/>
<circle clip-path="url(#clip462)" style="fill:#009af9; stroke:none; fill-opacity:0" cx="1749.43" cy="1206.56" r="2"/>
<circle clip-path="url(#clip462)" style="fill:#009af9; stroke:none; fill-opacity:0" cx="1775.65" cy="881.635" r="2"/>
<circle clip-path="url(#clip462)" style="fill:#009af9; stroke:none; fill-opacity:0" cx="1801.87" cy="448.399" r="2"/>
<circle clip-path="url(#clip462)" style="fill:#009af9; stroke:none; fill-opacity:0" cx="1828.08" cy="1098.25" r="2"/>
<circle clip-path="url(#clip462)" style="fill:#009af9; stroke:none; fill-opacity:0" cx="1854.3" cy="773.326" r="2"/>
<circle clip-path="url(#clip462)" style="fill:#009af9; stroke:none; fill-opacity:0" cx="1880.52" cy="665.017" r="2"/>
<circle clip-path="url(#clip462)" style="fill:#009af9; stroke:none; fill-opacity:0" cx="1906.74" cy="1098.25" r="2"/>
<circle clip-path="url(#clip462)" style="fill:#009af9; stroke:none; fill-opacity:0" cx="1932.96" cy="1098.25" r="2"/>
<circle clip-path="url(#clip462)" style="fill:#009af9; stroke:none; fill-opacity:0" cx="1959.18" cy="989.944" r="2"/>
<circle clip-path="url(#clip462)" style="fill:#009af9; stroke:none; fill-opacity:0" cx="1985.4" cy="1206.56" r="2"/>
<circle clip-path="url(#clip462)" style="fill:#009af9; stroke:none; fill-opacity:0" cx="2011.61" cy="989.944" r="2"/>
<circle clip-path="url(#clip462)" style="fill:#009af9; stroke:none; fill-opacity:0" cx="2037.83" cy="1206.56" r="2"/>
<circle clip-path="url(#clip462)" style="fill:#009af9; stroke:none; fill-opacity:0" cx="2064.05" cy="1423.18" r="2"/>
<circle clip-path="url(#clip462)" style="fill:#009af9; stroke:none; fill-opacity:0" cx="2090.27" cy="1098.25" r="2"/>
<circle clip-path="url(#clip462)" style="fill:#009af9; stroke:none; fill-opacity:0" cx="2116.49" cy="989.944" r="2"/>
<circle clip-path="url(#clip462)" style="fill:#009af9; stroke:none; fill-opacity:0" cx="2142.71" cy="1314.87" r="2"/>
<circle clip-path="url(#clip462)" style="fill:#009af9; stroke:none; fill-opacity:0" cx="2168.93" cy="1098.25" r="2"/>
<circle clip-path="url(#clip462)" style="fill:#009af9; stroke:none; fill-opacity:0" cx="2195.15" cy="1098.25" r="2"/>
<circle clip-path="url(#clip462)" style="fill:#009af9; stroke:none; fill-opacity:0" cx="2221.36" cy="1314.87" r="2"/>
<path clip-path="url(#clip460)" d="M2013.59 270.476 L2281.07 270.476 L2281.07 166.796 L2013.59 166.796  Z" fill="#ffffff" fill-rule="evenodd" fill-opacity="1"/>
<polyline clip-path="url(#clip460)" style="stroke:#000000; stroke-linecap:round; stroke-linejoin:round; stroke-width:4; stroke-opacity:1; fill:none" points="2013.59,270.476 2281.07,270.476 2281.07,166.796 2013.59,166.796 2013.59,270.476 "/>
<path clip-path="url(#clip460)" d="M2037.48 239.372 L2180.85 239.372 L2180.85 197.9 L2037.48 197.9 L2037.48 239.372  Z" fill="#009af9" fill-rule="evenodd" fill-opacity="1"/>
<polyline clip-path="url(#clip460)" style="stroke:#000000; stroke-linecap:round; stroke-linejoin:round; stroke-width:4; stroke-opacity:1; fill:none" points="2037.48,239.372 2180.85,239.372 2180.85,197.9 2037.48,197.9 2037.48,239.372 "/>
<path clip-path="url(#clip460)" d="M2218.59 238.323 Q2216.78 242.953 2215.07 244.365 Q2213.36 245.777 2210.49 245.777 L2207.08 245.777 L2207.08 242.212 L2209.58 242.212 Q2211.34 242.212 2212.32 241.379 Q2213.29 240.545 2214.47 237.443 L2215.23 235.499 L2204.75 209.99 L2209.26 209.99 L2217.36 230.268 L2225.46 209.99 L2229.98 209.99 L2218.59 238.323 Z" fill="#000000" fill-rule="nonzero" fill-opacity="1" /><path clip-path="url(#clip460)" d="M2237.27 231.981 L2244.91 231.981 L2244.91 205.615 L2236.6 207.282 L2236.6 203.022 L2244.86 201.356 L2249.54 201.356 L2249.54 231.981 L2257.18 231.981 L2257.18 235.916 L2237.27 235.916 L2237.27 231.981 Z" fill="#000000" fill-rule="nonzero" fill-opacity="1" /></svg>
