<?xml version="1.0" encoding="utf-8"?>
<svg xmlns="http://www.w3.org/2000/svg" xmlns:xlink="http://www.w3.org/1999/xlink" width="600" height="400" viewBox="0 0 2400 1600">
<defs>
  <clipPath id="clip890">
    <rect x="0" y="0" width="2400" height="1600"/>
  </clipPath>
</defs>
<path clip-path="url(#clip890)" d="M0 1600 L2400 1600 L2400 0 L0 0  Z" fill="#ffffff" fill-rule="evenodd" fill-opacity="1"/>
<defs>
  <clipPath id="clip891">
    <rect x="480" y="0" width="1681" height="1600"/>
  </clipPath>
</defs>
<path clip-path="url(#clip890)" d="M175.445 1423.18 L2352.76 1423.18 L2352.76 123.472 L175.445 123.472  Z" fill="#ffffff" fill-rule="evenodd" fill-opacity="1"/>
<defs>
  <clipPath id="clip892">
    <rect x="175" y="123" width="2178" height="1301"/>
  </clipPath>
</defs>
<polyline clip-path="url(#clip892)" style="stroke:#000000; stroke-linecap:round; stroke-linejoin:round; stroke-width:2; stroke-opacity:0.1; fill:none" points="228.818,1423.18 228.818,123.472 "/>
<polyline clip-path="url(#clip892)" style="stroke:#000000; stroke-linecap:round; stroke-linejoin:round; stroke-width:2; stroke-opacity:0.1; fill:none" points="641.281,1423.18 641.281,123.472 "/>
<polyline clip-path="url(#clip892)" style="stroke:#000000; stroke-linecap:round; stroke-linejoin:round; stroke-width:2; stroke-opacity:0.1; fill:none" points="1053.74,1423.18 1053.74,123.472 "/>
<polyline clip-path="url(#clip892)" style="stroke:#000000; stroke-linecap:round; stroke-linejoin:round; stroke-width:2; stroke-opacity:0.1; fill:none" points="1466.21,1423.18 1466.21,123.472 "/>
<polyline clip-path="url(#clip892)" style="stroke:#000000; stroke-linecap:round; stroke-linejoin:round; stroke-width:2; stroke-opacity:0.1; fill:none" points="1878.67,1423.18 1878.67,123.472 "/>
<polyline clip-path="url(#clip892)" style="stroke:#000000; stroke-linecap:round; stroke-linejoin:round; stroke-width:2; stroke-opacity:0.1; fill:none" points="2291.13,1423.18 2291.13,123.472 "/>
<polyline clip-path="url(#clip892)" style="stroke:#000000; stroke-linecap:round; stroke-linejoin:round; stroke-width:2; stroke-opacity:0.1; fill:none" points="175.445,1386.4 2352.76,1386.4 "/>
<polyline clip-path="url(#clip892)" style="stroke:#000000; stroke-linecap:round; stroke-linejoin:round; stroke-width:2; stroke-opacity:0.1; fill:none" points="175.445,1141.17 2352.76,1141.17 "/>
<polyline clip-path="url(#clip892)" style="stroke:#000000; stroke-linecap:round; stroke-linejoin:round; stroke-width:2; stroke-opacity:0.1; fill:none" points="175.445,895.94 2352.76,895.94 "/>
<polyline clip-path="url(#clip892)" style="stroke:#000000; stroke-linecap:round; stroke-linejoin:round; stroke-width:2; stroke-opacity:0.1; fill:none" points="175.445,650.712 2352.76,650.712 "/>
<polyline clip-path="url(#clip892)" style="stroke:#000000; stroke-linecap:round; stroke-linejoin:round; stroke-width:2; stroke-opacity:0.1; fill:none" points="175.445,405.484 2352.76,405.484 "/>
<polyline clip-path="url(#clip892)" style="stroke:#000000; stroke-linecap:round; stroke-linejoin:round; stroke-width:2; stroke-opacity:0.1; fill:none" points="175.445,160.256 2352.76,160.256 "/>
<polyline clip-path="url(#clip890)" style="stroke:#000000; stroke-linecap:round; stroke-linejoin:round; stroke-width:4; stroke-opacity:1; fill:none" points="175.445,1423.18 2352.76,1423.18 "/>
<polyline clip-path="url(#clip890)" style="stroke:#000000; stroke-linecap:round; stroke-linejoin:round; stroke-width:4; stroke-opacity:1; fill:none" points="228.818,1423.18 228.818,1404.28 "/>
<polyline clip-path="url(#clip890)" style="stroke:#000000; stroke-linecap:round; stroke-linejoin:round; stroke-width:4; stroke-opacity:1; fill:none" points="641.281,1423.18 641.281,1404.28 "/>
<polyline clip-path="url(#clip890)" style="stroke:#000000; stroke-linecap:round; stroke-linejoin:round; stroke-width:4; stroke-opacity:1; fill:none" points="1053.74,1423.18 1053.74,1404.28 "/>
<polyline clip-path="url(#clip890)" style="stroke:#000000; stroke-linecap:round; stroke-linejoin:round; stroke-width:4; stroke-opacity:1; fill:none" points="1466.21,1423.18 1466.21,1404.28 "/>
<polyline clip-path="url(#clip890)" style="stroke:#000000; stroke-linecap:round; stroke-linejoin:round; stroke-width:4; stroke-opacity:1; fill:none" points="1878.67,1423.18 1878.67,1404.28 "/>
<polyline clip-path="url(#clip890)" style="stroke:#000000; stroke-linecap:round; stroke-linejoin:round; stroke-width:4; stroke-opacity:1; fill:none" points="2291.13,1423.18 2291.13,1404.28 "/>
<path clip-path="url(#clip890)" d="M228.818 1454.1 Q225.207 1454.1 223.378 1457.66 Q221.573 1461.2 221.573 1468.33 Q221.573 1475.44 223.378 1479.01 Q225.207 1482.55 228.818 1482.55 Q232.452 1482.55 234.258 1479.01 Q236.086 1475.44 236.086 1468.33 Q236.086 1461.2 234.258 1457.66 Q232.452 1454.1 228.818 1454.1 M228.818 1450.39 Q234.628 1450.39 237.684 1455 Q240.762 1459.58 240.762 1468.33 Q240.762 1477.06 237.684 1481.67 Q234.628 1486.25 228.818 1486.25 Q223.008 1486.25 219.929 1481.67 Q216.874 1477.06 216.874 1468.33 Q216.874 1459.58 219.929 1455 Q223.008 1450.39 228.818 1450.39 Z" fill="#000000" fill-rule="nonzero" fill-opacity="1" /><path clip-path="url(#clip890)" d="M615.98 1451.02 L634.337 1451.02 L634.337 1454.96 L620.263 1454.96 L620.263 1463.43 Q621.281 1463.08 622.3 1462.92 Q623.318 1462.73 624.337 1462.73 Q630.124 1462.73 633.503 1465.9 Q636.883 1469.08 636.883 1474.49 Q636.883 1480.07 633.411 1483.17 Q629.939 1486.25 623.619 1486.25 Q621.443 1486.25 619.175 1485.88 Q616.929 1485.51 614.522 1484.77 L614.522 1480.07 Q616.605 1481.2 618.828 1481.76 Q621.05 1482.32 623.527 1482.32 Q627.531 1482.32 629.869 1480.21 Q632.207 1478.1 632.207 1474.49 Q632.207 1470.88 629.869 1468.77 Q627.531 1466.67 623.527 1466.67 Q621.652 1466.67 619.777 1467.08 Q617.925 1467.5 615.98 1468.38 L615.98 1451.02 Z" fill="#000000" fill-rule="nonzero" fill-opacity="1" /><path clip-path="url(#clip890)" d="M656.096 1454.1 Q652.485 1454.1 650.656 1457.66 Q648.851 1461.2 648.851 1468.33 Q648.851 1475.44 650.656 1479.01 Q652.485 1482.55 656.096 1482.55 Q659.73 1482.55 661.536 1479.01 Q663.364 1475.44 663.364 1468.33 Q663.364 1461.2 661.536 1457.66 Q659.73 1454.1 656.096 1454.1 M656.096 1450.39 Q661.906 1450.39 664.962 1455 Q668.04 1459.58 668.04 1468.33 Q668.04 1477.06 664.962 1481.67 Q661.906 1486.25 656.096 1486.25 Q650.286 1486.25 647.207 1481.67 Q644.151 1477.06 644.151 1468.33 Q644.151 1459.58 647.207 1455 Q650.286 1450.39 656.096 1450.39 Z" fill="#000000" fill-rule="nonzero" fill-opacity="1" /><path clip-path="url(#clip890)" d="M1013.35 1481.64 L1020.99 1481.64 L1020.99 1455.28 L1012.68 1456.95 L1012.68 1452.69 L1020.94 1451.02 L1025.62 1451.02 L1025.62 1481.64 L1033.26 1481.64 L1033.26 1485.58 L1013.35 1485.58 L1013.35 1481.64 Z" fill="#000000" fill-rule="nonzero" fill-opacity="1" /><path clip-path="url(#clip890)" d="M1052.7 1454.1 Q1049.09 1454.1 1047.26 1457.66 Q1045.46 1461.2 1045.46 1468.33 Q1045.46 1475.44 1047.26 1479.01 Q1049.09 1482.55 1052.7 1482.55 Q1056.34 1482.55 1058.14 1479.01 Q1059.97 1475.44 1059.97 1468.33 Q1059.97 1461.2 1058.14 1457.66 Q1056.34 1454.1 1052.7 1454.1 M1052.7 1450.39 Q1058.51 1450.39 1061.57 1455 Q1064.65 1459.58 1064.65 1468.33 Q1064.65 1477.06 1061.57 1481.67 Q1058.51 1486.25 1052.7 1486.25 Q1046.89 1486.25 1043.81 1481.67 Q1040.76 1477.06 1040.76 1468.33 Q1040.76 1459.58 1043.81 1455 Q1046.89 1450.39 1052.7 1450.39 Z" fill="#000000" fill-rule="nonzero" fill-opacity="1" /><path clip-path="url(#clip890)" d="M1082.86 1454.1 Q1079.25 1454.1 1077.42 1457.66 Q1075.62 1461.2 1075.62 1468.33 Q1075.62 1475.44 1077.42 1479.01 Q1079.25 1482.55 1082.86 1482.55 Q1086.5 1482.55 1088.3 1479.01 Q1090.13 1475.44 1090.13 1468.33 Q1090.13 1461.2 1088.3 1457.66 Q1086.5 1454.1 1082.86 1454.1 M1082.86 1450.39 Q1088.67 1450.39 1091.73 1455 Q1094.81 1459.58 1094.81 1468.33 Q1094.81 1477.06 1091.73 1481.67 Q1088.67 1486.25 1082.86 1486.25 Q1077.05 1486.25 1073.98 1481.67 Q1070.92 1477.06 1070.92 1468.33 Q1070.92 1459.58 1073.98 1455 Q1077.05 1450.39 1082.86 1450.39 Z" fill="#000000" fill-rule="nonzero" fill-opacity="1" /><path clip-path="url(#clip890)" d="M1425.81 1481.64 L1433.45 1481.64 L1433.45 1455.28 L1425.14 1456.95 L1425.14 1452.69 L1433.41 1451.02 L1438.08 1451.02 L1438.08 1481.64 L1445.72 1481.64 L1445.72 1485.58 L1425.81 1485.58 L1425.81 1481.64 Z" fill="#000000" fill-rule="nonzero" fill-opacity="1" /><path clip-path="url(#clip890)" d="M1455.21 1451.02 L1473.57 1451.02 L1473.57 1454.96 L1459.49 1454.96 L1459.49 1463.43 Q1460.51 1463.08 1461.53 1462.92 Q1462.55 1462.73 1463.57 1462.73 Q1469.36 1462.73 1472.74 1465.9 Q1476.11 1469.08 1476.11 1474.49 Q1476.11 1480.07 1472.64 1483.17 Q1469.17 1486.25 1462.85 1486.25 Q1460.68 1486.25 1458.41 1485.88 Q1456.16 1485.51 1453.75 1484.77 L1453.75 1480.07 Q1455.84 1481.2 1458.06 1481.76 Q1460.28 1482.32 1462.76 1482.32 Q1466.76 1482.32 1469.1 1480.21 Q1471.44 1478.1 1471.44 1474.49 Q1471.44 1470.88 1469.1 1468.77 Q1466.76 1466.67 1462.76 1466.67 Q1460.88 1466.67 1459.01 1467.08 Q1457.16 1467.5 1455.21 1468.38 L1455.21 1451.02 Z" fill="#000000" fill-rule="nonzero" fill-opacity="1" /><path clip-path="url(#clip890)" d="M1495.33 1454.1 Q1491.72 1454.1 1489.89 1457.66 Q1488.08 1461.2 1488.08 1468.33 Q1488.08 1475.44 1489.89 1479.01 Q1491.72 1482.55 1495.33 1482.55 Q1498.96 1482.55 1500.77 1479.01 Q1502.6 1475.44 1502.6 1468.33 Q1502.6 1461.2 1500.77 1457.66 Q1498.96 1454.1 1495.33 1454.1 M1495.33 1450.39 Q1501.14 1450.39 1504.19 1455 Q1507.27 1459.58 1507.27 1468.33 Q1507.27 1477.06 1504.19 1481.67 Q1501.14 1486.25 1495.33 1486.25 Q1489.52 1486.25 1486.44 1481.67 Q1483.38 1477.06 1483.38 1468.33 Q1483.38 1459.58 1486.44 1455 Q1489.52 1450.39 1495.33 1450.39 Z" fill="#000000" fill-rule="nonzero" fill-opacity="1" /><path clip-path="url(#clip890)" d="M1842.36 1481.64 L1858.68 1481.64 L1858.68 1485.58 L1836.74 1485.58 L1836.74 1481.64 Q1839.4 1478.89 1843.98 1474.26 Q1848.59 1469.61 1849.77 1468.27 Q1852.02 1465.74 1852.9 1464.01 Q1853.8 1462.25 1853.8 1460.56 Q1853.8 1457.8 1851.85 1456.07 Q1849.93 1454.33 1846.83 1454.33 Q1844.63 1454.33 1842.18 1455.09 Q1839.75 1455.86 1836.97 1457.41 L1836.97 1452.69 Q1839.79 1451.55 1842.25 1450.97 Q1844.7 1450.39 1846.74 1450.39 Q1852.11 1450.39 1855.3 1453.08 Q1858.5 1455.77 1858.5 1460.26 Q1858.5 1462.39 1857.69 1464.31 Q1856.9 1466.2 1854.79 1468.8 Q1854.21 1469.47 1851.11 1472.69 Q1848.01 1475.88 1842.36 1481.64 Z" fill="#000000" fill-rule="nonzero" fill-opacity="1" /><path clip-path="url(#clip890)" d="M1878.5 1454.1 Q1874.89 1454.1 1873.06 1457.66 Q1871.25 1461.2 1871.25 1468.33 Q1871.25 1475.44 1873.06 1479.01 Q1874.89 1482.55 1878.5 1482.55 Q1882.13 1482.55 1883.94 1479.01 Q1885.77 1475.44 1885.77 1468.33 Q1885.77 1461.2 1883.94 1457.66 Q1882.13 1454.1 1878.5 1454.1 M1878.5 1450.39 Q1884.31 1450.39 1887.36 1455 Q1890.44 1459.58 1890.44 1468.33 Q1890.44 1477.06 1887.36 1481.67 Q1884.31 1486.25 1878.5 1486.25 Q1872.69 1486.25 1869.61 1481.67 Q1866.55 1477.06 1866.55 1468.33 Q1866.55 1459.58 1869.61 1455 Q1872.69 1450.39 1878.5 1450.39 Z" fill="#000000" fill-rule="nonzero" fill-opacity="1" /><path clip-path="url(#clip890)" d="M1908.66 1454.1 Q1905.05 1454.1 1903.22 1457.66 Q1901.41 1461.2 1901.41 1468.33 Q1901.41 1475.44 1903.22 1479.01 Q1905.05 1482.55 1908.66 1482.55 Q1912.29 1482.55 1914.1 1479.01 Q1915.93 1475.44 1915.93 1468.33 Q1915.93 1461.2 1914.1 1457.66 Q1912.29 1454.1 1908.66 1454.1 M1908.66 1450.39 Q1914.47 1450.39 1917.52 1455 Q1920.6 1459.58 1920.6 1468.33 Q1920.6 1477.06 1917.52 1481.67 Q1914.47 1486.25 1908.66 1486.25 Q1902.85 1486.25 1899.77 1481.67 Q1896.71 1477.06 1896.71 1468.33 Q1896.71 1459.58 1899.77 1455 Q1902.85 1450.39 1908.66 1450.39 Z" fill="#000000" fill-rule="nonzero" fill-opacity="1" /><path clip-path="url(#clip890)" d="M2254.83 1481.64 L2271.15 1481.64 L2271.15 1485.58 L2249.2 1485.58 L2249.2 1481.64 Q2251.86 1478.89 2256.45 1474.26 Q2261.05 1469.61 2262.23 1468.27 Q2264.48 1465.74 2265.36 1464.01 Q2266.26 1462.25 2266.26 1460.56 Q2266.26 1457.8 2264.32 1456.07 Q2262.4 1454.33 2259.29 1454.33 Q2257.09 1454.33 2254.64 1455.09 Q2252.21 1455.86 2249.43 1457.41 L2249.43 1452.69 Q2252.26 1451.55 2254.71 1450.97 Q2257.16 1450.39 2259.2 1450.39 Q2264.57 1450.39 2267.77 1453.08 Q2270.96 1455.77 2270.96 1460.26 Q2270.96 1462.39 2270.15 1464.31 Q2269.36 1466.2 2267.26 1468.8 Q2266.68 1469.47 2263.58 1472.69 Q2260.47 1475.88 2254.83 1481.64 Z" fill="#000000" fill-rule="nonzero" fill-opacity="1" /><path clip-path="url(#clip890)" d="M2281.01 1451.02 L2299.36 1451.02 L2299.36 1454.96 L2285.29 1454.96 L2285.29 1463.43 Q2286.31 1463.08 2287.33 1462.92 Q2288.34 1462.73 2289.36 1462.73 Q2295.15 1462.73 2298.53 1465.9 Q2301.91 1469.08 2301.91 1474.49 Q2301.91 1480.07 2298.44 1483.17 Q2294.96 1486.25 2288.65 1486.25 Q2286.47 1486.25 2284.2 1485.88 Q2281.96 1485.51 2279.55 1484.77 L2279.55 1480.07 Q2281.63 1481.2 2283.85 1481.76 Q2286.08 1482.32 2288.55 1482.32 Q2292.56 1482.32 2294.9 1480.21 Q2297.23 1478.1 2297.23 1474.49 Q2297.23 1470.88 2294.9 1468.77 Q2292.56 1466.67 2288.55 1466.67 Q2286.68 1466.67 2284.8 1467.08 Q2282.95 1467.5 2281.01 1468.38 L2281.01 1451.02 Z" fill="#000000" fill-rule="nonzero" fill-opacity="1" /><path clip-path="url(#clip890)" d="M2321.12 1454.1 Q2317.51 1454.1 2315.68 1457.66 Q2313.88 1461.2 2313.88 1468.33 Q2313.88 1475.44 2315.68 1479.01 Q2317.51 1482.55 2321.12 1482.55 Q2324.76 1482.55 2326.56 1479.01 Q2328.39 1475.44 2328.39 1468.33 Q2328.39 1461.2 2326.56 1457.66 Q2324.76 1454.1 2321.12 1454.1 M2321.12 1450.39 Q2326.93 1450.39 2329.99 1455 Q2333.07 1459.58 2333.07 1468.33 Q2333.07 1477.06 2329.99 1481.67 Q2326.93 1486.25 2321.12 1486.25 Q2315.31 1486.25 2312.23 1481.67 Q2309.18 1477.06 2309.18 1468.33 Q2309.18 1459.58 2312.23 1455 Q2315.31 1450.39 2321.12 1450.39 Z" fill="#000000" fill-rule="nonzero" fill-opacity="1" /><path clip-path="url(#clip890)" d="M1049.74 1520.52 L1079.78 1520.52 L1079.78 1525.93 L1056.16 1525.93 L1056.16 1540 L1078.79 1540 L1078.79 1545.41 L1056.16 1545.41 L1056.16 1562.63 L1080.35 1562.63 L1080.35 1568.04 L1049.74 1568.04 L1049.74 1520.52 Z" fill="#000000" fill-rule="nonzero" fill-opacity="1" /><path clip-path="url(#clip890)" d="M1120.3 1546.53 L1120.3 1568.04 L1114.44 1568.04 L1114.44 1546.72 Q1114.44 1541.66 1112.47 1539.14 Q1110.5 1536.63 1106.55 1536.63 Q1101.81 1536.63 1099.07 1539.65 Q1096.33 1542.68 1096.33 1547.9 L1096.33 1568.04 L1090.44 1568.04 L1090.44 1532.4 L1096.33 1532.4 L1096.33 1537.93 Q1098.43 1534.72 1101.27 1533.13 Q1104.13 1531.54 1107.85 1531.54 Q1114 1531.54 1117.15 1535.36 Q1120.3 1539.14 1120.3 1546.53 Z" fill="#000000" fill-rule="nonzero" fill-opacity="1" /><path clip-path="url(#clip890)" d="M1162.47 1548.76 L1162.47 1551.62 L1135.55 1551.62 Q1135.93 1557.67 1139.17 1560.85 Q1142.45 1564 1148.28 1564 Q1151.65 1564 1154.8 1563.17 Q1157.98 1562.35 1161.1 1560.69 L1161.1 1566.23 Q1157.95 1567.57 1154.64 1568.27 Q1151.33 1568.97 1147.93 1568.97 Q1139.4 1568.97 1134.4 1564 Q1129.43 1559.04 1129.43 1550.57 Q1129.43 1541.82 1134.14 1536.69 Q1138.89 1531.54 1146.91 1531.54 Q1154.1 1531.54 1158.27 1536.18 Q1162.47 1540.8 1162.47 1548.76 M1156.62 1547.04 Q1156.55 1542.23 1153.91 1539.37 Q1151.3 1536.5 1146.97 1536.5 Q1142.07 1536.5 1139.11 1539.27 Q1136.18 1542.04 1135.74 1547.07 L1156.62 1547.04 Z" fill="#000000" fill-rule="nonzero" fill-opacity="1" /><path clip-path="url(#clip890)" d="M1192.74 1537.87 Q1191.75 1537.3 1190.58 1537.04 Q1189.43 1536.76 1188.03 1536.76 Q1183.07 1536.76 1180.39 1540 Q1177.75 1543.22 1177.75 1549.27 L1177.75 1568.04 L1171.86 1568.04 L1171.86 1532.4 L1177.75 1532.4 L1177.75 1537.93 Q1179.6 1534.69 1182.56 1533.13 Q1185.52 1531.54 1189.75 1531.54 Q1190.35 1531.54 1191.09 1531.63 Q1191.82 1531.7 1192.71 1531.85 L1192.74 1537.87 Z" fill="#000000" fill-rule="nonzero" fill-opacity="1" /><path clip-path="url(#clip890)" d="M1221.2 1549.81 Q1221.2 1543.44 1218.55 1539.94 Q1215.94 1536.44 1211.2 1536.44 Q1206.49 1536.44 1203.85 1539.94 Q1201.24 1543.44 1201.24 1549.81 Q1201.24 1556.14 1203.85 1559.64 Q1206.49 1563.14 1211.2 1563.14 Q1215.94 1563.14 1218.55 1559.64 Q1221.2 1556.14 1221.2 1549.81 M1227.05 1563.62 Q1227.05 1572.72 1223.01 1577.15 Q1218.97 1581.6 1210.63 1581.6 Q1207.54 1581.6 1204.8 1581.13 Q1202.07 1580.68 1199.49 1579.72 L1199.49 1574.03 Q1202.07 1575.43 1204.58 1576.1 Q1207.1 1576.76 1209.71 1576.76 Q1215.47 1576.76 1218.33 1573.74 Q1221.2 1570.75 1221.2 1564.67 L1221.2 1561.77 Q1219.38 1564.92 1216.55 1566.48 Q1213.72 1568.04 1209.77 1568.04 Q1203.21 1568.04 1199.2 1563.05 Q1195.19 1558.05 1195.19 1549.81 Q1195.19 1541.53 1199.2 1536.53 Q1203.21 1531.54 1209.77 1531.54 Q1213.72 1531.54 1216.55 1533.1 Q1219.38 1534.66 1221.2 1537.81 L1221.2 1532.4 L1227.05 1532.4 L1227.05 1563.62 Z" fill="#000000" fill-rule="nonzero" fill-opacity="1" /><path clip-path="url(#clip890)" d="M1253.95 1571.35 Q1251.46 1577.72 1249.11 1579.66 Q1246.75 1581.6 1242.81 1581.6 L1238.13 1581.6 L1238.13 1576.7 L1241.57 1576.7 Q1243.98 1576.7 1245.32 1575.56 Q1246.66 1574.41 1248.28 1570.14 L1249.33 1567.47 L1234.91 1532.4 L1241.12 1532.4 L1252.26 1560.28 L1263.4 1532.4 L1269.61 1532.4 L1253.95 1571.35 Z" fill="#000000" fill-rule="nonzero" fill-opacity="1" /><path clip-path="url(#clip890)" d="M1312.48 1518.58 Q1308.21 1525.9 1306.15 1533.06 Q1304.08 1540.23 1304.08 1547.58 Q1304.08 1554.93 1306.15 1562.16 Q1308.25 1569.35 1312.48 1576.64 L1307.39 1576.64 Q1302.61 1569.16 1300.23 1561.93 Q1297.87 1554.71 1297.87 1547.58 Q1297.87 1540.48 1300.23 1533.29 Q1302.58 1526.09 1307.39 1518.58 L1312.48 1518.58 Z" fill="#000000" fill-rule="nonzero" fill-opacity="1" /><path clip-path="url(#clip890)" d="M1324.1 1520.52 L1333.68 1520.52 L1345.8 1552.86 L1357.99 1520.52 L1367.58 1520.52 L1367.58 1568.04 L1361.3 1568.04 L1361.3 1526.32 L1349.05 1558.91 L1342.59 1558.91 L1330.34 1526.32 L1330.34 1568.04 L1324.1 1568.04 L1324.1 1520.52 Z" fill="#000000" fill-rule="nonzero" fill-opacity="1" /><path clip-path="url(#clip890)" d="M1410.58 1548.76 L1410.58 1551.62 L1383.65 1551.62 Q1384.03 1557.67 1387.28 1560.85 Q1390.56 1564 1396.38 1564 Q1399.75 1564 1402.9 1563.17 Q1406.09 1562.35 1409.21 1560.69 L1409.21 1566.23 Q1406.06 1567.57 1402.75 1568.27 Q1399.44 1568.97 1396.03 1568.97 Q1387.5 1568.97 1382.5 1564 Q1377.54 1559.04 1377.54 1550.57 Q1377.54 1541.82 1382.25 1536.69 Q1386.99 1531.54 1395.01 1531.54 Q1402.2 1531.54 1406.37 1536.18 Q1410.58 1540.8 1410.58 1548.76 M1404.72 1547.04 Q1404.66 1542.23 1402.01 1539.37 Q1399.4 1536.5 1395.07 1536.5 Q1390.17 1536.5 1387.21 1539.27 Q1384.29 1542.04 1383.84 1547.07 L1404.72 1547.04 Z" fill="#000000" fill-rule="nonzero" fill-opacity="1" /><path clip-path="url(#clip890)" d="M1432.7 1568.04 L1414.55 1520.52 L1421.27 1520.52 L1436.32 1560.53 L1451.41 1520.52 L1458.1 1520.52 L1439.99 1568.04 L1432.7 1568.04 Z" fill="#000000" fill-rule="nonzero" fill-opacity="1" /><path clip-path="url(#clip890)" d="M1463.86 1518.58 L1468.95 1518.58 Q1473.72 1526.09 1476.08 1533.29 Q1478.47 1540.48 1478.47 1547.58 Q1478.47 1554.71 1476.08 1561.93 Q1473.72 1569.16 1468.95 1576.64 L1463.86 1576.64 Q1468.09 1569.35 1470.16 1562.16 Q1472.26 1554.93 1472.26 1547.58 Q1472.26 1540.23 1470.16 1533.06 Q1468.09 1525.9 1463.86 1518.58 Z" fill="#000000" fill-rule="nonzero" fill-opacity="1" /><polyline clip-path="url(#clip890)" style="stroke:#000000; stroke-linecap:round; stroke-linejoin:round; stroke-width:4; stroke-opacity:1; fill:none" points="175.445,1423.18 175.445,123.472 "/>
<polyline clip-path="url(#clip890)" style="stroke:#000000; stroke-linecap:round; stroke-linejoin:round; stroke-width:4; stroke-opacity:1; fill:none" points="175.445,1386.4 194.343,1386.4 "/>
<polyline clip-path="url(#clip890)" style="stroke:#000000; stroke-linecap:round; stroke-linejoin:round; stroke-width:4; stroke-opacity:1; fill:none" points="175.445,1141.17 194.343,1141.17 "/>
<polyline clip-path="url(#clip890)" style="stroke:#000000; stroke-linecap:round; stroke-linejoin:round; stroke-width:4; stroke-opacity:1; fill:none" points="175.445,895.94 194.343,895.94 "/>
<polyline clip-path="url(#clip890)" style="stroke:#000000; stroke-linecap:round; stroke-linejoin:round; stroke-width:4; stroke-opacity:1; fill:none" points="175.445,650.712 194.343,650.712 "/>
<polyline clip-path="url(#clip890)" style="stroke:#000000; stroke-linecap:round; stroke-linejoin:round; stroke-width:4; stroke-opacity:1; fill:none" points="175.445,405.484 194.343,405.484 "/>
<polyline clip-path="url(#clip890)" style="stroke:#000000; stroke-linecap:round; stroke-linejoin:round; stroke-width:4; stroke-opacity:1; fill:none" points="175.445,160.256 194.343,160.256 "/>
<path clip-path="url(#clip890)" d="M127.501 1372.19 Q123.89 1372.19 122.061 1375.76 Q120.255 1379.3 120.255 1386.43 Q120.255 1393.54 122.061 1397.1 Q123.89 1400.64 127.501 1400.64 Q131.135 1400.64 132.941 1397.1 Q134.769 1393.54 134.769 1386.43 Q134.769 1379.3 132.941 1375.76 Q131.135 1372.19 127.501 1372.19 M127.501 1368.49 Q133.311 1368.49 136.367 1373.1 Q139.445 1377.68 139.445 1386.43 Q139.445 1395.16 136.367 1399.76 Q133.311 1404.35 127.501 1404.35 Q121.691 1404.35 118.612 1399.76 Q115.556 1395.16 115.556 1386.43 Q115.556 1377.68 118.612 1373.1 Q121.691 1368.49 127.501 1368.49 Z" fill="#000000" fill-rule="nonzero" fill-opacity="1" /><path clip-path="url(#clip890)" d="M119.538 1154.51 L127.177 1154.51 L127.177 1128.15 L118.867 1129.81 L118.867 1125.55 L127.13 1123.89 L131.806 1123.89 L131.806 1154.51 L139.445 1154.51 L139.445 1158.45 L119.538 1158.45 L119.538 1154.51 Z" fill="#000000" fill-rule="nonzero" fill-opacity="1" /><path clip-path="url(#clip890)" d="M123.126 909.285 L139.445 909.285 L139.445 913.22 L117.501 913.22 L117.501 909.285 Q120.163 906.53 124.746 901.901 Q129.353 897.248 130.533 895.905 Q132.779 893.382 133.658 891.646 Q134.561 889.887 134.561 888.197 Q134.561 885.442 132.617 883.706 Q130.695 881.97 127.593 881.97 Q125.394 881.97 122.941 882.734 Q120.51 883.498 117.732 885.049 L117.732 880.327 Q120.556 879.192 123.01 878.614 Q125.464 878.035 127.501 878.035 Q132.871 878.035 136.066 880.72 Q139.26 883.405 139.26 887.896 Q139.26 890.026 138.45 891.947 Q137.663 893.845 135.556 896.438 Q134.978 897.109 131.876 900.326 Q128.774 903.521 123.126 909.285 Z" fill="#000000" fill-rule="nonzero" fill-opacity="1" /><path clip-path="url(#clip890)" d="M132.316 649.358 Q135.672 650.075 137.547 652.344 Q139.445 654.612 139.445 657.946 Q139.445 663.062 135.927 665.862 Q132.408 668.663 125.927 668.663 Q123.751 668.663 121.436 668.224 Q119.144 667.807 116.691 666.95 L116.691 662.437 Q118.635 663.571 120.95 664.149 Q123.265 664.728 125.788 664.728 Q130.186 664.728 132.478 662.992 Q134.792 661.256 134.792 657.946 Q134.792 654.89 132.64 653.177 Q130.51 651.441 126.691 651.441 L122.663 651.441 L122.663 647.599 L126.876 647.599 Q130.325 647.599 132.154 646.233 Q133.982 644.844 133.982 642.251 Q133.982 639.589 132.084 638.177 Q130.209 636.742 126.691 636.742 Q124.769 636.742 122.57 637.159 Q120.371 637.576 117.732 638.455 L117.732 634.289 Q120.394 633.548 122.709 633.177 Q125.047 632.807 127.107 632.807 Q132.431 632.807 135.533 635.238 Q138.635 637.645 138.635 641.765 Q138.635 644.636 136.992 646.626 Q135.348 648.594 132.316 649.358 Z" fill="#000000" fill-rule="nonzero" fill-opacity="1" /><path clip-path="url(#clip890)" d="M129.862 392.278 L118.056 410.727 L129.862 410.727 L129.862 392.278 M128.635 388.204 L134.515 388.204 L134.515 410.727 L139.445 410.727 L139.445 414.616 L134.515 414.616 L134.515 422.764 L129.862 422.764 L129.862 414.616 L114.26 414.616 L114.26 410.102 L128.635 388.204 Z" fill="#000000" fill-rule="nonzero" fill-opacity="1" /><path clip-path="url(#clip890)" d="M118.543 142.976 L136.899 142.976 L136.899 146.911 L122.825 146.911 L122.825 155.384 Q123.843 155.036 124.862 154.874 Q125.88 154.689 126.899 154.689 Q132.686 154.689 136.066 157.86 Q139.445 161.032 139.445 166.448 Q139.445 172.027 135.973 175.129 Q132.501 178.208 126.181 178.208 Q124.005 178.208 121.737 177.837 Q119.492 177.467 117.084 176.726 L117.084 172.027 Q119.168 173.161 121.39 173.717 Q123.612 174.272 126.089 174.272 Q130.093 174.272 132.431 172.166 Q134.769 170.059 134.769 166.448 Q134.769 162.837 132.431 160.731 Q130.093 158.624 126.089 158.624 Q124.214 158.624 122.339 159.041 Q120.487 159.458 118.543 160.337 L118.543 142.976 Z" fill="#000000" fill-rule="nonzero" fill-opacity="1" /><path clip-path="url(#clip890)" d="M20.1444 845.354 L26.9239 845.354 Q23.9002 848.6 22.4043 852.293 Q20.9083 855.953 20.9083 860.091 Q20.9083 868.239 25.9054 872.567 Q30.8707 876.896 40.2919 876.896 Q49.6813 876.896 54.6784 872.567 Q59.6436 868.239 59.6436 860.091 Q59.6436 855.953 58.1477 852.293 Q56.6518 848.6 53.6281 845.354 L60.3439 845.354 Q62.6355 848.728 63.7814 852.515 Q64.9272 856.271 64.9272 860.473 Q64.9272 871.262 58.3387 877.469 Q51.7183 883.676 40.2919 883.676 Q28.8336 883.676 22.2451 877.469 Q15.6248 871.262 15.6248 860.473 Q15.6248 856.207 16.7706 852.452 Q17.8846 848.664 20.1444 845.354 Z" fill="#000000" fill-rule="nonzero" fill-opacity="1" /><path clip-path="url(#clip890)" d="M32.4621 821.864 Q32.4621 826.575 36.1542 829.312 Q39.8145 832.05 46.212 832.05 Q52.6095 832.05 56.3017 829.344 Q59.9619 826.607 59.9619 821.864 Q59.9619 817.186 56.2698 814.448 Q52.5777 811.711 46.212 811.711 Q39.8781 811.711 36.186 814.448 Q32.4621 817.186 32.4621 821.864 M27.4968 821.864 Q27.4968 814.226 32.4621 809.865 Q37.4273 805.505 46.212 805.505 Q54.9649 805.505 59.9619 809.865 Q64.9272 814.226 64.9272 821.864 Q64.9272 829.535 59.9619 833.896 Q54.9649 838.224 46.212 838.224 Q37.4273 838.224 32.4621 833.896 Q27.4968 829.535 27.4968 821.864 Z" fill="#000000" fill-rule="nonzero" fill-opacity="1" /><path clip-path="url(#clip890)" d="M49.9359 796.402 L28.3562 796.402 L28.3562 790.545 L49.7131 790.545 Q54.7739 790.545 57.3202 788.572 Q59.8346 786.598 59.8346 782.652 Q59.8346 777.909 56.8109 775.172 Q53.7872 772.403 48.5673 772.403 L28.3562 772.403 L28.3562 766.547 L64.0042 766.547 L64.0042 772.403 L58.5296 772.403 Q61.7762 774.535 63.3676 777.368 Q64.9272 780.169 64.9272 783.893 Q64.9272 790.036 61.1078 793.219 Q57.2883 796.402 49.9359 796.402 M27.4968 781.665 L27.4968 781.665 Z" fill="#000000" fill-rule="nonzero" fill-opacity="1" /><path clip-path="url(#clip890)" d="M42.4881 724.851 L64.0042 724.851 L64.0042 730.708 L42.679 730.708 Q37.6183 730.708 35.1038 732.681 Q32.5894 734.654 32.5894 738.601 Q32.5894 743.344 35.6131 746.081 Q38.6368 748.818 43.8567 748.818 L64.0042 748.818 L64.0042 754.706 L28.3562 754.706 L28.3562 748.818 L33.8944 748.818 Q30.6797 746.717 29.0883 743.885 Q27.4968 741.02 27.4968 737.296 Q27.4968 731.153 31.3163 728.002 Q35.1038 724.851 42.4881 724.851 Z" fill="#000000" fill-rule="nonzero" fill-opacity="1" /><path clip-path="url(#clip890)" d="M18.2347 707.377 L28.3562 707.377 L28.3562 695.314 L32.9077 695.314 L32.9077 707.377 L52.2594 707.377 Q56.6199 707.377 57.8613 706.2 Q59.1026 704.99 59.1026 701.33 L59.1026 695.314 L64.0042 695.314 L64.0042 701.33 Q64.0042 708.109 61.4897 710.687 Q58.9434 713.266 52.2594 713.266 L32.9077 713.266 L32.9077 717.562 L28.3562 717.562 L28.3562 713.266 L18.2347 713.266 L18.2347 707.377 Z" fill="#000000" fill-rule="nonzero" fill-opacity="1" /><path clip-path="url(#clip890)" d="M29.4065 664.886 L34.9447 664.886 Q33.6716 667.369 33.035 670.042 Q32.3984 672.716 32.3984 675.581 Q32.3984 679.941 33.7352 682.137 Q35.072 684.302 37.7456 684.302 Q39.7826 684.302 40.9603 682.742 Q42.1061 681.182 43.1565 676.472 L43.6021 674.467 Q44.9389 668.228 47.3897 665.618 Q49.8086 662.976 54.1691 662.976 Q59.1344 662.976 62.0308 666.923 Q64.9272 670.838 64.9272 677.713 Q64.9272 680.578 64.3543 683.697 Q63.8132 686.784 62.6992 690.222 L56.6518 690.222 Q58.3387 686.975 59.198 683.824 Q60.0256 680.673 60.0256 677.586 Q60.0256 673.448 58.6251 671.22 Q57.1929 668.992 54.6147 668.992 Q52.2276 668.992 50.9545 670.615 Q49.6813 672.207 48.5037 677.649 L48.0262 679.686 Q46.8804 685.129 44.5251 687.548 Q42.138 689.967 38.0002 689.967 Q32.9713 689.967 30.2341 686.402 Q27.4968 682.837 27.4968 676.281 Q27.4968 673.034 27.9743 670.17 Q28.4517 667.305 29.4065 664.886 Z" fill="#000000" fill-rule="nonzero" fill-opacity="1" /><path clip-path="url(#clip890)" d="M858.281 18.8205 L858.281 41.5461 L868.57 41.5461 Q874.282 41.5461 877.401 38.5889 Q880.52 35.6318 880.52 30.163 Q880.52 24.7348 877.401 21.7777 Q874.282 18.8205 868.57 18.8205 L858.281 18.8205 M850.098 12.096 L868.57 12.096 Q878.738 12.096 883.923 16.714 Q889.149 21.2916 889.149 30.163 Q889.149 39.1155 883.923 43.6931 Q878.738 48.2706 868.57 48.2706 L858.281 48.2706 L858.281 72.576 L850.098 72.576 L850.098 12.096 Z" fill="#000000" fill-rule="nonzero" fill-opacity="1" /><path clip-path="url(#clip890)" d="M916.695 49.7694 Q907.661 49.7694 904.178 51.8354 Q900.694 53.9013 900.694 58.8839 Q900.694 62.8538 903.287 65.2034 Q905.92 67.5124 910.416 67.5124 Q916.614 67.5124 920.341 63.1374 Q924.108 58.7219 924.108 51.4303 L924.108 49.7694 L916.695 49.7694 M931.562 46.6907 L931.562 72.576 L924.108 72.576 L924.108 65.6895 Q921.556 69.8214 917.748 71.8063 Q913.94 73.7508 908.431 73.7508 Q901.464 73.7508 897.332 69.8619 Q893.24 65.9325 893.24 59.3701 Q893.24 51.7138 898.344 47.825 Q903.489 43.9361 913.657 43.9361 L924.108 43.9361 L924.108 43.2069 Q924.108 38.0623 920.705 35.2672 Q917.343 32.4315 911.226 32.4315 Q907.337 32.4315 903.651 33.3632 Q899.965 34.295 896.562 36.1584 L896.562 29.2718 Q900.653 27.692 904.502 26.9223 Q908.35 26.1121 911.996 26.1121 Q921.84 26.1121 926.701 31.2163 Q931.562 36.3204 931.562 46.6907 Z" fill="#000000" fill-rule="nonzero" fill-opacity="1" /><path clip-path="url(#clip890)" d="M973.205 34.1734 Q971.949 33.4443 970.451 33.1202 Q968.992 32.7556 967.21 32.7556 Q960.89 32.7556 957.488 36.8875 Q954.125 40.9789 954.125 48.6757 L954.125 72.576 L946.631 72.576 L946.631 27.2059 L954.125 27.2059 L954.125 34.2544 Q956.475 30.1225 960.242 28.1376 Q964.01 26.1121 969.397 26.1121 Q970.167 26.1121 971.099 26.2337 Q972.03 26.3147 973.165 26.5172 L973.205 34.1734 Z" fill="#000000" fill-rule="nonzero" fill-opacity="1" /><path clip-path="url(#clip890)" d="M988.396 14.324 L988.396 27.2059 L1003.75 27.2059 L1003.75 32.9987 L988.396 32.9987 L988.396 57.6282 Q988.396 63.1779 989.895 64.7578 Q991.434 66.3376 996.093 66.3376 L1003.75 66.3376 L1003.75 72.576 L996.093 72.576 Q987.464 72.576 984.183 69.3758 Q980.902 66.1351 980.902 57.6282 L980.902 32.9987 L975.433 32.9987 L975.433 27.2059 L980.902 27.2059 L980.902 14.324 L988.396 14.324 Z" fill="#000000" fill-rule="nonzero" fill-opacity="1" /><path clip-path="url(#clip890)" d="M1013.55 27.2059 L1021.01 27.2059 L1021.01 72.576 L1013.55 72.576 L1013.55 27.2059 M1013.55 9.54393 L1021.01 9.54393 L1021.01 18.9825 L1013.55 18.9825 L1013.55 9.54393 Z" fill="#000000" fill-rule="nonzero" fill-opacity="1" /><path clip-path="url(#clip890)" d="M1069.25 28.9478 L1069.25 35.9153 Q1066.09 34.1734 1062.89 33.3227 Q1059.73 32.4315 1056.49 32.4315 Q1049.24 32.4315 1045.23 37.0496 Q1041.22 41.6271 1041.22 49.9314 Q1041.22 58.2358 1045.23 62.8538 Q1049.24 67.4314 1056.49 67.4314 Q1059.73 67.4314 1062.89 66.5807 Q1066.09 65.6895 1069.25 63.9476 L1069.25 70.8341 Q1066.13 72.2924 1062.77 73.0216 Q1059.45 73.7508 1055.68 73.7508 Q1045.43 73.7508 1039.4 67.3098 Q1033.36 60.8689 1033.36 49.9314 Q1033.36 38.832 1039.44 32.472 Q1045.55 26.1121 1056.17 26.1121 Q1059.61 26.1121 1062.89 26.8413 Q1066.17 27.5299 1069.25 28.9478 Z" fill="#000000" fill-rule="nonzero" fill-opacity="1" /><path clip-path="url(#clip890)" d="M1082.21 9.54393 L1089.67 9.54393 L1089.67 72.576 L1082.21 72.576 L1082.21 9.54393 Z" fill="#000000" fill-rule="nonzero" fill-opacity="1" /><path clip-path="url(#clip890)" d="M1144.07 48.0275 L1144.07 51.6733 L1109.8 51.6733 Q1110.29 59.3701 1114.42 63.421 Q1118.59 67.4314 1126.01 67.4314 Q1130.3 67.4314 1134.31 66.3781 Q1138.36 65.3249 1142.33 63.2184 L1142.33 70.267 Q1138.32 71.9684 1134.11 72.8596 Q1129.89 73.7508 1125.56 73.7508 Q1114.7 73.7508 1108.34 67.4314 Q1102.02 61.1119 1102.02 50.3365 Q1102.02 39.1965 1108.02 32.6746 Q1114.06 26.1121 1124.26 26.1121 Q1133.42 26.1121 1138.73 32.0264 Q1144.07 37.9003 1144.07 48.0275 M1136.62 45.84 Q1136.54 39.7232 1133.18 36.0774 Q1129.85 32.4315 1124.34 32.4315 Q1118.11 32.4315 1114.34 35.9558 Q1110.61 39.4801 1110.04 45.8805 L1136.62 45.84 Z" fill="#000000" fill-rule="nonzero" fill-opacity="1" /><path clip-path="url(#clip890)" d="M1185.23 28.5427 L1185.23 35.5912 Q1182.07 33.9709 1178.67 33.1607 Q1175.26 32.3505 1171.62 32.3505 Q1166.07 32.3505 1163.27 34.0519 Q1160.52 35.7533 1160.52 39.156 Q1160.52 41.7486 1162.5 43.2475 Q1164.49 44.7058 1170.48 46.0426 L1173.04 46.6097 Q1180.98 48.3111 1184.3 51.4303 Q1187.66 54.509 1187.66 60.0587 Q1187.66 66.3781 1182.64 70.0644 Q1177.65 73.7508 1168.9 73.7508 Q1165.26 73.7508 1161.29 73.0216 Q1157.36 72.3329 1152.98 70.9151 L1152.98 63.2184 Q1157.12 65.3654 1161.13 66.4591 Q1165.14 67.5124 1169.07 67.5124 Q1174.33 67.5124 1177.17 65.73 Q1180 63.9071 1180 60.6258 Q1180 57.5877 1177.94 55.9673 Q1175.91 54.3469 1168.99 52.8481 L1166.39 52.2405 Q1159.47 50.7821 1156.39 47.7845 Q1153.31 44.7463 1153.31 39.4801 Q1153.31 33.0797 1157.85 29.5959 Q1162.38 26.1121 1170.73 26.1121 Q1174.86 26.1121 1178.5 26.7198 Q1182.15 27.3274 1185.23 28.5427 Z" fill="#000000" fill-rule="nonzero" fill-opacity="1" /><path clip-path="url(#clip890)" d="M1246.52 49.7694 Q1237.49 49.7694 1234 51.8354 Q1230.52 53.9013 1230.52 58.8839 Q1230.52 62.8538 1233.11 65.2034 Q1235.74 67.5124 1240.24 67.5124 Q1246.44 67.5124 1250.17 63.1374 Q1253.93 58.7219 1253.93 51.4303 L1253.93 49.7694 L1246.52 49.7694 M1261.39 46.6907 L1261.39 72.576 L1253.93 72.576 L1253.93 65.6895 Q1251.38 69.8214 1247.57 71.8063 Q1243.77 73.7508 1238.26 73.7508 Q1231.29 73.7508 1227.16 69.8619 Q1223.06 65.9325 1223.06 59.3701 Q1223.06 51.7138 1228.17 47.825 Q1233.31 43.9361 1243.48 43.9361 L1253.93 43.9361 L1253.93 43.2069 Q1253.93 38.0623 1250.53 35.2672 Q1247.17 32.4315 1241.05 32.4315 Q1237.16 32.4315 1233.48 33.3632 Q1229.79 34.295 1226.39 36.1584 L1226.39 29.2718 Q1230.48 27.692 1234.33 26.9223 Q1238.17 26.1121 1241.82 26.1121 Q1251.66 26.1121 1256.53 31.2163 Q1261.39 36.3204 1261.39 46.6907 Z" fill="#000000" fill-rule="nonzero" fill-opacity="1" /><path clip-path="url(#clip890)" d="M1284.11 14.324 L1284.11 27.2059 L1299.46 27.2059 L1299.46 32.9987 L1284.11 32.9987 L1284.11 57.6282 Q1284.11 63.1779 1285.61 64.7578 Q1287.15 66.3376 1291.81 66.3376 L1299.46 66.3376 L1299.46 72.576 L1291.81 72.576 Q1283.18 72.576 1279.9 69.3758 Q1276.62 66.1351 1276.62 57.6282 L1276.62 32.9987 L1271.15 32.9987 L1271.15 27.2059 L1276.62 27.2059 L1276.62 14.324 L1284.11 14.324 Z" fill="#000000" fill-rule="nonzero" fill-opacity="1" /><path clip-path="url(#clip890)" d="M1365.49 34.0924 L1365.49 9.54393 L1372.95 9.54393 L1372.95 72.576 L1365.49 72.576 L1365.49 65.7705 Q1363.15 69.8214 1359.54 71.8063 Q1355.98 73.7508 1350.95 73.7508 Q1342.73 73.7508 1337.54 67.1883 Q1332.4 60.6258 1332.4 49.9314 Q1332.4 39.2371 1337.54 32.6746 Q1342.73 26.1121 1350.95 26.1121 Q1355.98 26.1121 1359.54 28.0971 Q1363.15 30.0415 1365.49 34.0924 M1340.1 49.9314 Q1340.1 58.1548 1343.46 62.8538 Q1346.86 67.5124 1352.77 67.5124 Q1358.69 67.5124 1362.09 62.8538 Q1365.49 58.1548 1365.49 49.9314 Q1365.49 41.7081 1362.09 37.0496 Q1358.69 32.3505 1352.77 32.3505 Q1346.86 32.3505 1343.46 37.0496 Q1340.1 41.7081 1340.1 49.9314 Z" fill="#000000" fill-rule="nonzero" fill-opacity="1" /><path clip-path="url(#clip890)" d="M1427.11 48.0275 L1427.11 51.6733 L1392.84 51.6733 Q1393.32 59.3701 1397.46 63.421 Q1401.63 67.4314 1409.04 67.4314 Q1413.34 67.4314 1417.35 66.3781 Q1421.4 65.3249 1425.37 63.2184 L1425.37 70.267 Q1421.36 71.9684 1417.14 72.8596 Q1412.93 73.7508 1408.6 73.7508 Q1397.74 73.7508 1391.38 67.4314 Q1385.06 61.1119 1385.06 50.3365 Q1385.06 39.1965 1391.06 32.6746 Q1397.09 26.1121 1407.3 26.1121 Q1416.46 26.1121 1421.76 32.0264 Q1427.11 37.9003 1427.11 48.0275 M1419.66 45.84 Q1419.57 39.7232 1416.21 36.0774 Q1412.89 32.4315 1407.38 32.4315 Q1401.14 32.4315 1397.38 35.9558 Q1393.65 39.4801 1393.08 45.8805 L1419.66 45.84 Z" fill="#000000" fill-rule="nonzero" fill-opacity="1" /><path clip-path="url(#clip890)" d="M1446.72 14.324 L1446.72 27.2059 L1462.07 27.2059 L1462.07 32.9987 L1446.72 32.9987 L1446.72 57.6282 Q1446.72 63.1779 1448.21 64.7578 Q1449.75 66.3376 1454.41 66.3376 L1462.07 66.3376 L1462.07 72.576 L1454.41 72.576 Q1445.78 72.576 1442.5 69.3758 Q1439.22 66.1351 1439.22 57.6282 L1439.22 32.9987 L1433.75 32.9987 L1433.75 27.2059 L1439.22 27.2059 L1439.22 14.324 L1446.72 14.324 Z" fill="#000000" fill-rule="nonzero" fill-opacity="1" /><path clip-path="url(#clip890)" d="M1510.68 48.0275 L1510.68 51.6733 L1476.41 51.6733 Q1476.89 59.3701 1481.03 63.421 Q1485.2 67.4314 1492.61 67.4314 Q1496.91 67.4314 1500.92 66.3781 Q1504.97 65.3249 1508.94 63.2184 L1508.94 70.267 Q1504.93 71.9684 1500.71 72.8596 Q1496.5 73.7508 1492.17 73.7508 Q1481.31 73.7508 1474.95 67.4314 Q1468.63 61.1119 1468.63 50.3365 Q1468.63 39.1965 1474.63 32.6746 Q1480.66 26.1121 1490.87 26.1121 Q1500.03 26.1121 1505.33 32.0264 Q1510.68 37.9003 1510.68 48.0275 M1503.23 45.84 Q1503.14 39.7232 1499.78 36.0774 Q1496.46 32.4315 1490.95 32.4315 Q1484.71 32.4315 1480.95 35.9558 Q1477.22 39.4801 1476.65 45.8805 L1503.23 45.84 Z" fill="#000000" fill-rule="nonzero" fill-opacity="1" /><path clip-path="url(#clip890)" d="M1555.56 28.9478 L1555.56 35.9153 Q1552.4 34.1734 1549.2 33.3227 Q1546.04 32.4315 1542.8 32.4315 Q1535.55 32.4315 1531.54 37.0496 Q1527.53 41.6271 1527.53 49.9314 Q1527.53 58.2358 1531.54 62.8538 Q1535.55 67.4314 1542.8 67.4314 Q1546.04 67.4314 1549.2 66.5807 Q1552.4 65.6895 1555.56 63.9476 L1555.56 70.8341 Q1552.44 72.2924 1549.08 73.0216 Q1545.76 73.7508 1541.99 73.7508 Q1531.74 73.7508 1525.71 67.3098 Q1519.67 60.8689 1519.67 49.9314 Q1519.67 38.832 1525.75 32.472 Q1531.87 26.1121 1542.48 26.1121 Q1545.92 26.1121 1549.2 26.8413 Q1552.48 27.5299 1555.56 28.9478 Z" fill="#000000" fill-rule="nonzero" fill-opacity="1" /><path clip-path="url(#clip890)" d="M1575.9 14.324 L1575.9 27.2059 L1591.25 27.2059 L1591.25 32.9987 L1575.9 32.9987 L1575.9 57.6282 Q1575.9 63.1779 1577.4 64.7578 Q1578.94 66.3376 1583.6 66.3376 L1591.25 66.3376 L1591.25 72.576 L1583.6 72.576 Q1574.97 72.576 1571.69 69.3758 Q1568.4 66.1351 1568.4 57.6282 L1568.4 32.9987 L1562.94 32.9987 L1562.94 27.2059 L1568.4 27.2059 L1568.4 14.324 L1575.9 14.324 Z" fill="#000000" fill-rule="nonzero" fill-opacity="1" /><path clip-path="url(#clip890)" d="M1618.64 32.4315 Q1612.64 32.4315 1609.16 37.1306 Q1605.67 41.7891 1605.67 49.9314 Q1605.67 58.0738 1609.12 62.7728 Q1612.6 67.4314 1618.64 67.4314 Q1624.59 67.4314 1628.07 62.7323 Q1631.56 58.0333 1631.56 49.9314 Q1631.56 41.8701 1628.07 37.1711 Q1624.59 32.4315 1618.64 32.4315 M1618.64 26.1121 Q1628.36 26.1121 1633.91 32.4315 Q1639.46 38.7509 1639.46 49.9314 Q1639.46 61.0714 1633.91 67.4314 Q1628.36 73.7508 1618.64 73.7508 Q1608.87 73.7508 1603.32 67.4314 Q1597.81 61.0714 1597.81 49.9314 Q1597.81 38.7509 1603.32 32.4315 Q1608.87 26.1121 1618.64 26.1121 Z" fill="#000000" fill-rule="nonzero" fill-opacity="1" /><path clip-path="url(#clip890)" d="M1678.1 34.1734 Q1676.85 33.4443 1675.35 33.1202 Q1673.89 32.7556 1672.11 32.7556 Q1665.79 32.7556 1662.39 36.8875 Q1659.02 40.9789 1659.02 48.6757 L1659.02 72.576 L1651.53 72.576 L1651.53 27.2059 L1659.02 27.2059 L1659.02 34.2544 Q1661.37 30.1225 1665.14 28.1376 Q1668.91 26.1121 1674.3 26.1121 Q1675.06 26.1121 1676 26.2337 Q1676.93 26.3147 1678.06 26.5172 L1678.1 34.1734 Z" fill="#000000" fill-rule="nonzero" fill-opacity="1" /><polyline clip-path="url(#clip892)" style="stroke:#000000; stroke-linecap:round; stroke-linejoin:round; stroke-width:4; stroke-opacity:1; fill:none" points="237.067,1386.4 237.067,1386.4 245.316,1386.4 253.566,1386.4 261.815,1386.4 270.064,1386.4 278.314,1386.4 286.563,1386.4 294.812,1386.4 303.061,1386.4 311.311,1386.4 319.56,1386.4 327.809,1386.4 336.058,1386.4 344.308,1386.4 352.557,1386.4 360.806,1386.4 369.055,1386.4 377.305,1386.4 385.554,1386.4 393.803,1386.4 402.052,1386.4 410.302,1386.4 418.551,1386.4 426.8,1386.4 435.05,1386.4 443.299,1386.4 451.548,1386.4 459.797,1386.4 468.047,1386.4 476.296,1386.4 484.545,1386.4 492.794,1386.4 501.044,1386.4 509.293,1386.4 517.542,1386.4 525.791,1386.4 534.041,1386.4 542.29,1386.4 550.539,1386.4 558.788,1386.4 558.788,1141.17 567.038,1141.17 567.038,1386.4 575.287,1386.4 583.536,1386.4 591.786,1386.4 600.035,1386.4 608.284,1386.4 616.533,1386.4 616.533,1141.17 624.783,1141.17 624.783,1386.4 633.032,1386.4 641.281,1386.4 649.53,1386.4 657.78,1386.4 666.029,1386.4 674.278,1386.4 682.527,1386.4 690.777,1386.4 690.777,1141.17 699.026,1141.17 699.026,1386.4 707.275,1386.4 715.525,1386.4 723.774,1386.4 732.023,1386.4 740.272,1386.4 748.522,1386.4 756.771,1386.4 765.02,1386.4 773.269,1386.4 781.519,1386.4 789.768,1386.4 798.017,1386.4 806.266,1386.4 814.516,1386.4 822.765,1386.4 831.014,1386.4 839.263,1386.4 839.263,1141.17 847.513,1141.17 847.513,1386.4 855.762,1386.4 864.011,1386.4 872.261,1386.4 880.51,1386.4 888.759,1386.4 897.008,1386.4 905.258,1386.4 913.507,1386.4 921.756,1386.4 930.005,1386.4 938.255,1386.4 946.504,1386.4 954.753,1386.4 963.002,1386.4 971.252,1386.4 979.501,1386.4 987.75,1386.4 995.999,1386.4 1004.25,1386.4 1012.5,1386.4 1020.75,1386.4 1029,1386.4 1037.25,1386.4 1045.5,1386.4 1053.74,1386.4 1061.99,1386.4 1070.24,1386.4 1078.49,1386.4 1086.74,1386.4 1094.99,1386.4 1103.24,1386.4 1111.49,1386.4 1119.74,1386.4 1127.99,1386.4 1136.24,1386.4 1144.49,1386.4 1152.74,1386.4 1160.98,1386.4 1169.23,1386.4 1177.48,1386.4 1185.73,1386.4 1193.98,1386.4 1202.23,1386.4 1210.48,1386.4 1218.73,1386.4 1226.98,1386.4 1235.23,1386.4 1243.48,1386.4 1251.73,1386.4 1259.98,1386.4 1268.23,1386.4 1276.47,1386.4 1284.72,1386.4 1292.97,1386.4 1301.22,1386.4 1309.47,1386.4 1317.72,1386.4 1325.97,1386.4 1334.22,1386.4 1342.47,1386.4 1350.72,1386.4 1358.97,1386.4 1367.22,1386.4 1375.47,1386.4 1383.71,1386.4 1391.96,1386.4 1400.21,1386.4 1408.46,1386.4 1416.71,1386.4 1424.96,1386.4 1433.21,1386.4 1441.46,1386.4 1449.71,1386.4 1457.96,1386.4 1466.21,1386.4 1474.46,1386.4 1482.71,1386.4 1490.96,1386.4 1499.2,1386.4 1507.45,1386.4 1515.7,1386.4 1523.95,1386.4 1532.2,1386.4 1540.45,1386.4 1548.7,1386.4 1556.95,1386.4 1565.2,1386.4 1573.45,1386.4 1581.7,1386.4 1589.95,1386.4 1598.2,1386.4 1606.45,1386.4 1614.69,1386.4 1622.94,1386.4 1631.19,1386.4 1639.44,1386.4 1647.69,1386.4 1655.94,1386.4 1664.19,1386.4 1672.44,1386.4 1680.69,1386.4 1688.94,1386.4 1697.19,1386.4 1705.44,1386.4 1713.69,1386.4 1721.93,1386.4 1730.18,1386.4 1738.43,1386.4 1746.68,1386.4 1754.93,1386.4 1763.18,1386.4 1771.43,1386.4 1779.68,1386.4 1787.93,1386.4 1796.18,1386.4 1804.43,1386.4 1812.68,1386.4 1820.93,1386.4 1829.18,1386.4 1837.42,1386.4 1845.67,1386.4 1853.92,1386.4 1862.17,1386.4 1870.42,1386.4 1878.67,1386.4 1886.92,1386.4 1895.17,1386.4 1903.42,1386.4 1911.67,1386.4 1919.92,1386.4 1928.17,1386.4 1936.42,1386.4 1944.66,1386.4 1952.91,1386.4 1961.16,1386.4 1969.41,1386.4 1977.66,1386.4 1985.91,1386.4 1994.16,1386.4 2002.41,1386.4 2010.66,1386.4 2018.91,1386.4 2027.16,1386.4 2035.41,1386.4 2043.66,1386.4 2051.91,1386.4 2060.15,1386.4 2068.4,1386.4 2076.65,1386.4 2084.9,1386.4 2093.15,1386.4 2101.4,1386.4 2109.65,1386.4 2117.9,1386.4 2126.15,1386.4 2134.4,1386.4 2142.65,1386.4 2150.9,1386.4 2159.15,1386.4 2167.39,1386.4 2175.64,1386.4 2183.89,1386.4 2192.14,1386.4 2200.39,1386.4 2208.64,1386.4 2216.89,1386.4 2225.14,1386.4 2233.39,1386.4 2241.64,1386.4 2249.89,1386.4 2258.14,1386.4 2266.39,1386.4 2274.64,1386.4 2282.88,1386.4 2291.13,1386.4 "/>
<polyline clip-path="url(#clip892)" style="stroke:#ff0000; stroke-linecap:round; stroke-linejoin:round; stroke-width:4; stroke-opacity:1; fill:none" points="237.067,1386.4 237.067,1386.4 245.316,1386.4 253.566,1386.4 261.815,1386.4 270.064,1386.4 278.314,1386.4 286.563,1386.4 294.812,1386.4 303.061,1386.4 311.311,1386.4 319.56,1386.4 327.809,1386.4 336.058,1386.4 344.308,1386.4 352.557,1386.4 360.806,1386.4 369.055,1386.4 377.305,1386.4 385.554,1386.4 393.803,1386.4 402.052,1386.4 410.302,1386.4 418.551,1386.4 426.8,1386.4 435.05,1386.4 443.299,1386.4 451.548,1386.4 459.797,1386.4 468.047,1386.4 476.296,1386.4 484.545,1386.4 492.794,1386.4 501.044,1386.4 509.293,1386.4 517.542,1386.4 525.791,1386.4 534.041,1386.4 542.29,1386.4 550.539,1386.4 558.788,1386.4 567.038,1386.4 575.287,1386.4 583.536,1386.4 591.786,1386.4 600.035,1386.4 608.284,1386.4 616.533,1386.4 624.783,1386.4 633.032,1386.4 641.281,1386.4 649.53,1386.4 657.78,1386.4 666.029,1386.4 674.278,1386.4 682.527,1386.4 690.777,1386.4 699.026,1386.4 707.275,1386.4 715.525,1386.4 723.774,1386.4 732.023,1386.4 740.272,1386.4 748.522,1386.4 756.771,1386.4 765.02,1386.4 773.269,1386.4 781.519,1386.4 789.768,1386.4 798.017,1386.4 806.266,1386.4 814.516,1386.4 822.765,1386.4 831.014,1386.4 839.263,1386.4 847.513,1386.4 855.762,1386.4 864.011,1386.4 872.261,1386.4 880.51,1386.4 888.759,1386.4 897.008,1386.4 905.258,1386.4 913.507,1386.4 921.756,1386.4 930.005,1386.4 938.255,1386.4 946.504,1386.4 954.753,1386.4 963.002,1386.4 971.252,1386.4 979.501,1386.4 987.75,1386.4 995.999,1386.4 1004.25,1386.4 1012.5,1386.4 1020.75,1386.4 1029,1386.4 1037.25,1386.4 1045.5,1386.4 1053.74,1386.4 1061.99,1386.4 1070.24,1386.4 1078.49,1386.4 1086.74,1386.4 1094.99,1386.4 1103.24,1386.4 1111.49,1386.4 1119.74,1386.4 1127.99,1386.4 1136.24,1386.4 1144.49,1386.4 1152.74,1386.4 1160.98,1386.4 1169.23,1386.4 1177.48,1386.4 1185.73,1386.4 1193.98,1386.4 1202.23,1386.4 1210.48,1386.4 1218.73,1386.4 1226.98,1386.4 1235.23,1386.4 1243.48,1386.4 1251.73,1386.4 1259.98,1386.4 1268.23,1386.4 1276.47,1386.4 1284.72,1386.4 1292.97,1386.4 1301.22,1386.4 1309.47,1386.4 1317.72,1386.4 1325.97,1386.4 1334.22,1386.4 1342.47,1386.4 1350.72,1386.4 1358.97,1386.4 1367.22,1386.4 1375.47,1386.4 1383.71,1386.4 1391.96,1386.4 1400.21,1386.4 1408.46,1386.4 1416.71,1386.4 1424.96,1386.4 1433.21,1386.4 1441.46,1386.4 1449.71,1386.4 1457.96,1386.4 1466.21,1386.4 1474.46,1386.4 1482.71,1386.4 1490.96,1386.4 1499.2,1386.4 1507.45,1386.4 1515.7,1386.4 1523.95,1386.4 1532.2,1386.4 1540.45,1386.4 1548.7,1386.4 1556.95,1386.4 1565.2,1386.4 1573.45,1386.4 1581.7,1386.4 1589.95,1386.4 1598.2,1386.4 1606.45,1386.4 1614.69,1386.4 1622.94,1386.4 1631.19,1386.4 1639.44,1386.4 1647.69,1386.4 1655.94,1386.4 1664.19,1386.4 1672.44,1386.4 1680.69,1386.4 1688.94,1386.4 1697.19,1386.4 1705.44,1386.4 1713.69,1386.4 1721.93,1386.4 1730.18,1386.4 1738.43,1386.4 1746.68,1386.4 1754.93,1386.4 1763.18,1386.4 1771.43,1386.4 1779.68,1386.4 1787.93,1386.4 1796.18,1386.4 1804.43,1386.4 1812.68,1386.4 1820.93,1386.4 1829.18,1386.4 1837.42,1386.4 1845.67,1386.4 1853.92,1386.4 1862.17,1386.4 1870.42,1386.4 1878.67,1386.4 1886.92,1386.4 1895.17,1386.4 1903.42,1386.4 1911.67,1386.4 1919.92,1386.4 1928.17,1386.4 1936.42,1386.4 1944.66,1386.4 1952.91,1386.4 1961.16,1386.4 1969.41,1386.4 1977.66,1386.4 1985.91,1386.4 1994.16,1386.4 2002.41,1386.4 2010.66,1386.4 2018.91,1386.4 2027.16,1386.4 2035.41,1386.4 2043.66,1386.4 2051.91,1386.4 2060.15,1386.4 2068.4,1386.4 2076.65,1386.4 2084.9,1386.4 2093.15,1386.4 2101.4,1386.4 2109.65,1386.4 2117.9,1386.4 2126.15,1386.4 2134.4,1386.4 2142.65,1386.4 2150.9,1386.4 2159.15,1386.4 2167.39,1386.4 2175.64,1386.4 2183.89,1386.4 2192.14,1386.4 2200.39,1386.4 2208.64,1386.4 2216.89,1386.4 2225.14,1386.4 2233.39,1386.4 2241.64,1386.4 2249.89,1386.4 2258.14,1386.4 2266.39,1386.4 2274.64,1386.4 2282.88,1386.4 2291.13,1386.4 "/>
<polyline clip-path="url(#clip892)" style="stroke:#0000ff; stroke-linecap:round; stroke-linejoin:round; stroke-width:4; stroke-opacity:1; fill:none" points="237.067,1386.4 237.067,1386.4 245.316,1386.4 253.566,1386.4 261.815,1386.4 270.064,1386.4 278.314,1386.4 286.563,1386.4 294.812,1386.4 303.061,1386.4 311.311,1386.4 319.56,1386.4 327.809,1386.4 336.058,1386.4 344.308,1386.4 352.557,1386.4 360.806,1386.4 369.055,1386.4 377.305,1386.4 385.554,1386.4 393.803,1386.4 402.052,1386.4 410.302,1386.4 418.551,1386.4 426.8,1386.4 435.05,1386.4 443.299,1386.4 451.548,1386.4 459.797,1386.4 468.047,1386.4 476.296,1386.4 484.545,1386.4 492.794,1386.4 501.044,1386.4 509.293,1386.4 517.542,1386.4 525.791,1386.4 534.041,1386.4 542.29,1386.4 550.539,1386.4 558.788,1386.4 567.038,1386.4 575.287,1386.4 583.536,1386.4 591.786,1386.4 600.035,1386.4 608.284,1386.4 616.533,1386.4 624.783,1386.4 633.032,1386.4 641.281,1386.4 649.53,1386.4 657.78,1386.4 666.029,1386.4 674.278,1386.4 682.527,1386.4 690.777,1386.4 699.026,1386.4 707.275,1386.4 715.525,1386.4 723.774,1386.4 732.023,1386.4 740.272,1386.4 748.522,1386.4 756.771,1386.4 765.02,1386.4 773.269,1386.4 781.519,1386.4 789.768,1386.4 798.017,1386.4 806.266,1386.4 814.516,1386.4 822.765,1386.4 831.014,1386.4 839.263,1386.4 847.513,1386.4 855.762,1386.4 864.011,1386.4 872.261,1386.4 880.51,1386.4 888.759,1386.4 897.008,1386.4 905.258,1386.4 913.507,1386.4 921.756,1386.4 930.005,1386.4 938.255,1386.4 946.504,1386.4 954.753,1386.4 963.002,1386.4 971.252,1386.4 979.501,1386.4 987.75,1386.4 995.999,1386.4 1004.25,1386.4 1012.5,1386.4 1020.75,1386.4 1029,1386.4 1037.25,1386.4 1045.5,1386.4 1053.74,1386.4 1061.99,1386.4 1070.24,1386.4 1078.49,1386.4 1086.74,1386.4 1094.99,1386.4 1103.24,1386.4 1111.49,1386.4 1119.74,1386.4 1127.99,1386.4 1136.24,1386.4 1144.49,1386.4 1152.74,1386.4 1160.98,1386.4 1169.23,1386.4 1177.48,1386.4 1185.73,1386.4 1193.98,1386.4 1202.23,1386.4 1210.48,1386.4 1218.73,1386.4 1226.98,1386.4 1235.23,1386.4 1243.48,1386.4 1251.73,1386.4 1259.98,1386.4 1268.23,1386.4 1276.47,1386.4 1284.72,1386.4 1292.97,1386.4 1301.22,1386.4 1309.47,1386.4 1317.72,1386.4 1325.97,1386.4 1334.22,1386.4 1342.47,1386.4 1350.72,1386.4 1358.97,1386.4 1367.22,1386.4 1375.47,1386.4 1383.71,1386.4 1391.96,1386.4 1400.21,1386.4 1408.46,1386.4 1416.71,1386.4 1424.96,1386.4 1433.21,1386.4 1441.46,1386.4 1449.71,1386.4 1457.96,1386.4 1466.21,1386.4 1474.46,1386.4 1482.71,1386.4 1490.96,1386.4 1499.2,1386.4 1507.45,1386.4 1515.7,1386.4 1523.95,1386.4 1532.2,1386.4 1540.45,1386.4 1548.7,1386.4 1556.95,1386.4 1565.2,1386.4 1573.45,1386.4 1581.7,1386.4 1589.95,1386.4 1598.2,1386.4 1606.45,1386.4 1614.69,1386.4 1622.94,1386.4 1631.19,1386.4 1639.44,1386.4 1647.69,1386.4 1655.94,1386.4 1664.19,1386.4 1672.44,1386.4 1680.69,1386.4 1688.94,1386.4 1697.19,1386.4 1705.44,1386.4 1713.69,1386.4 1721.93,1386.4 1730.18,1386.4 1738.43,1386.4 1746.68,1386.4 1754.93,1386.4 1763.18,1386.4 1771.43,1386.4 1779.68,1386.4 1787.93,1386.4 1796.18,1386.4 1804.43,1386.4 1812.68,1386.4 1820.93,1386.4 1829.18,1386.4 1837.42,1386.4 1845.67,1386.4 1853.92,1386.4 1862.17,1386.4 1870.42,1386.4 1878.67,1386.4 1886.92,1386.4 1895.17,1386.4 1903.42,1386.4 1911.67,1386.4 1919.92,1386.4 1928.17,1386.4 1936.42,1386.4 1944.66,1386.4 1952.91,1386.4 1961.16,1386.4 1969.41,1386.4 1977.66,1386.4 1985.91,1386.4 1994.16,1386.4 2002.41,1386.4 2010.66,1386.4 2018.91,1386.4 2027.16,1386.4 2035.41,1386.4 2043.66,1386.4 2051.91,1386.4 2060.15,1386.4 2068.4,1386.4 2076.65,1386.4 2084.9,1386.4 2093.15,1386.4 2101.4,1386.4 2109.65,1386.4 2117.9,1386.4 2126.15,1386.4 2134.4,1386.4 2142.65,1386.4 2150.9,1386.4 2159.15,1386.4 2167.39,1386.4 2175.64,1386.4 2183.89,1386.4 2192.14,1386.4 2200.39,1386.4 2208.64,1386.4 2216.89,1386.4 2225.14,1386.4 2233.39,1386.4 2241.64,1386.4 2249.89,1386.4 2258.14,1386.4 2266.39,1386.4 2274.64,1386.4 2282.88,1386.4 2291.13,1386.4 "/>
<polyline clip-path="url(#clip892)" style="stroke:#008000; stroke-linecap:round; stroke-linejoin:round; stroke-width:4; stroke-opacity:1; fill:none" points="237.067,1386.4 237.067,1386.4 245.316,1386.4 253.566,1386.4 253.566,1141.17 261.815,1141.17 261.815,895.94 270.064,895.94 270.064,1141.17 278.314,1141.17 278.314,160.256 286.563,160.256 286.563,1141.17 294.812,1141.17 294.812,1386.4 303.061,1386.4 303.061,1141.17 311.311,1141.17 311.311,1386.4 319.56,1386.4 327.809,1386.4 336.058,1386.4 344.308,1386.4 352.557,1386.4 360.806,1386.4 369.055,1386.4 377.305,1386.4 385.554,1386.4 393.803,1386.4 402.052,1386.4 410.302,1386.4 418.551,1386.4 426.8,1386.4 435.05,1386.4 443.299,1386.4 451.548,1386.4 459.797,1386.4 468.047,1386.4 476.296,1386.4 484.545,1386.4 492.794,1386.4 501.044,1386.4 509.293,1386.4 517.542,1386.4 525.791,1386.4 534.041,1386.4 542.29,1386.4 550.539,1386.4 558.788,1386.4 567.038,1386.4 575.287,1386.4 583.536,1386.4 591.786,1386.4 600.035,1386.4 608.284,1386.4 616.533,1386.4 624.783,1386.4 633.032,1386.4 641.281,1386.4 649.53,1386.4 657.78,1386.4 666.029,1386.4 674.278,1386.4 682.527,1386.4 690.777,1386.4 699.026,1386.4 707.275,1386.4 715.525,1386.4 723.774,1386.4 732.023,1386.4 740.272,1386.4 748.522,1386.4 756.771,1386.4 765.02,1386.4 773.269,1386.4 781.519,1386.4 789.768,1386.4 798.017,1386.4 806.266,1386.4 814.516,1386.4 822.765,1386.4 831.014,1386.4 839.263,1386.4 847.513,1386.4 855.762,1386.4 864.011,1386.4 872.261,1386.4 880.51,1386.4 888.759,1386.4 897.008,1386.4 905.258,1386.4 913.507,1386.4 921.756,1386.4 930.005,1386.4 938.255,1386.4 946.504,1386.4 954.753,1386.4 963.002,1386.4 971.252,1386.4 979.501,1386.4 987.75,1386.4 995.999,1386.4 1004.25,1386.4 1012.5,1386.4 1020.75,1386.4 1029,1386.4 1037.25,1386.4 1045.5,1386.4 1053.74,1386.4 1061.99,1386.4 1070.24,1386.4 1078.49,1386.4 1086.74,1386.4 1094.99,1386.4 1103.24,1386.4 1111.49,1386.4 1119.74,1386.4 1127.99,1386.4 1136.24,1386.4 1144.49,1386.4 1152.74,1386.4 1160.98,1386.4 1169.23,1386.4 1177.48,1386.4 1185.73,1386.4 1193.98,1386.4 1202.23,1386.4 1210.48,1386.4 1218.73,1386.4 1226.98,1386.4 1235.23,1386.4 1243.48,1386.4 1251.73,1386.4 1259.98,1386.4 1268.23,1386.4 1276.47,1386.4 1284.72,1386.4 1292.97,1386.4 1301.22,1386.4 1309.47,1386.4 1317.72,1386.4 1325.97,1386.4 1334.22,1386.4 1342.47,1386.4 1350.72,1386.4 1358.97,1386.4 1367.22,1386.4 1375.47,1386.4 1383.71,1386.4 1391.96,1386.4 1400.21,1386.4 1408.46,1386.4 1416.71,1386.4 1424.96,1386.4 1433.21,1386.4 1441.46,1386.4 1449.71,1386.4 1457.96,1386.4 1466.21,1386.4 1474.46,1386.4 1482.71,1386.4 1490.96,1386.4 1499.2,1386.4 1507.45,1386.4 1515.7,1386.4 1523.95,1386.4 1532.2,1386.4 1540.45,1386.4 1548.7,1386.4 1556.95,1386.4 1565.2,1386.4 1573.45,1386.4 1581.7,1386.4 1589.95,1386.4 1598.2,1386.4 1606.45,1386.4 1614.69,1386.4 1622.94,1386.4 1631.19,1386.4 1639.44,1386.4 1647.69,1386.4 1655.94,1386.4 1664.19,1386.4 1672.44,1386.4 1680.69,1386.4 1688.94,1386.4 1697.19,1386.4 1705.44,1386.4 1713.69,1386.4 1721.93,1386.4 1730.18,1386.4 1738.43,1386.4 1746.68,1386.4 1754.93,1386.4 1763.18,1386.4 1771.43,1386.4 1779.68,1386.4 1787.93,1386.4 1796.18,1386.4 1804.43,1386.4 1812.68,1386.4 1820.93,1386.4 1829.18,1386.4 1837.42,1386.4 1845.67,1386.4 1853.92,1386.4 1862.17,1386.4 1870.42,1386.4 1878.67,1386.4 1886.92,1386.4 1895.17,1386.4 1903.42,1386.4 1911.67,1386.4 1919.92,1386.4 1928.17,1386.4 1936.42,1386.4 1944.66,1386.4 1952.91,1386.4 1961.16,1386.4 1969.41,1386.4 1977.66,1386.4 1985.91,1386.4 1994.16,1386.4 2002.41,1386.4 2010.66,1386.4 2018.91,1386.4 2027.16,1386.4 2035.41,1386.4 2043.66,1386.4 2051.91,1386.4 2060.15,1386.4 2068.4,1386.4 2076.65,1386.4 2084.9,1386.4 2093.15,1386.4 2101.4,1386.4 2109.65,1386.4 2117.9,1386.4 2126.15,1386.4 2134.4,1386.4 2142.65,1386.4 2150.9,1386.4 2159.15,1386.4 2167.39,1386.4 2175.64,1386.4 2183.89,1386.4 2192.14,1386.4 2200.39,1386.4 2208.64,1386.4 2216.89,1386.4 2225.14,1386.4 2233.39,1386.4 2241.64,1386.4 2249.89,1386.4 2258.14,1386.4 2266.39,1386.4 2274.64,1386.4 2282.88,1386.4 2291.13,1386.4 "/>
<path clip-path="url(#clip890)" d="M1850.27 425.996 L2280.18 425.996 L2280.18 166.796 L1850.27 166.796  Z" fill="#ffffff" fill-rule="evenodd" fill-opacity="1"/>
<polyline clip-path="url(#clip890)" style="stroke:#000000; stroke-linecap:round; stroke-linejoin:round; stroke-width:4; stroke-opacity:1; fill:none" points="1850.27,425.996 2280.18,425.996 2280.18,166.796 1850.27,166.796 1850.27,425.996 "/>
<polyline clip-path="url(#clip890)" style="stroke:#000000; stroke-linecap:round; stroke-linejoin:round; stroke-width:4; stroke-opacity:1; fill:none" points="1874.47,218.636 2019.62,218.636 "/>
<path clip-path="url(#clip890)" d="M2043.81 201.356 L2050.11 201.356 L2065.43 230.268 L2065.43 201.356 L2069.97 201.356 L2069.97 235.916 L2063.67 235.916 L2048.35 207.004 L2048.35 235.916 L2043.81 235.916 L2043.81 201.356 Z" fill="#000000" fill-rule="nonzero" fill-opacity="1" /><path clip-path="url(#clip890)" d="M2101.27 221.888 L2101.27 223.971 L2081.68 223.971 Q2081.96 228.369 2084.32 230.684 Q2086.71 232.976 2090.94 232.976 Q2093.39 232.976 2095.69 232.374 Q2098 231.772 2100.27 230.569 L2100.27 234.596 Q2097.98 235.568 2095.57 236.078 Q2093.16 236.587 2090.69 236.587 Q2084.48 236.587 2080.85 232.976 Q2077.24 229.365 2077.24 223.207 Q2077.24 216.842 2080.66 213.115 Q2084.11 209.365 2089.95 209.365 Q2095.18 209.365 2098.21 212.745 Q2101.27 216.101 2101.27 221.888 M2097.01 220.638 Q2096.96 217.143 2095.04 215.059 Q2093.14 212.976 2089.99 212.976 Q2086.43 212.976 2084.27 214.99 Q2082.14 217.004 2081.82 220.661 L2097.01 220.638 Z" fill="#000000" fill-rule="nonzero" fill-opacity="1" /><path clip-path="url(#clip890)" d="M2107.82 225.684 L2107.82 209.99 L2112.08 209.99 L2112.08 225.522 Q2112.08 229.203 2113.51 231.055 Q2114.95 232.883 2117.82 232.883 Q2121.27 232.883 2123.26 230.684 Q2125.27 228.485 2125.27 224.689 L2125.27 209.99 L2129.53 209.99 L2129.53 235.916 L2125.27 235.916 L2125.27 231.934 Q2123.72 234.295 2121.66 235.453 Q2119.62 236.587 2116.91 236.587 Q2112.45 236.587 2110.13 233.809 Q2107.82 231.031 2107.82 225.684 M2118.53 209.365 L2118.53 209.365 Z" fill="#000000" fill-rule="nonzero" fill-opacity="1" /><path clip-path="url(#clip890)" d="M2142.51 202.629 L2142.51 209.99 L2151.29 209.99 L2151.29 213.3 L2142.51 213.3 L2142.51 227.374 Q2142.51 230.545 2143.37 231.448 Q2144.25 232.351 2146.91 232.351 L2151.29 232.351 L2151.29 235.916 L2146.91 235.916 Q2141.98 235.916 2140.11 234.087 Q2138.23 232.235 2138.23 227.374 L2138.23 213.3 L2135.11 213.3 L2135.11 209.99 L2138.23 209.99 L2138.23 202.629 L2142.51 202.629 Z" fill="#000000" fill-rule="nonzero" fill-opacity="1" /><path clip-path="url(#clip890)" d="M2171.91 213.971 Q2171.2 213.555 2170.34 213.37 Q2169.51 213.161 2168.49 213.161 Q2164.88 213.161 2162.93 215.522 Q2161.01 217.86 2161.01 222.258 L2161.01 235.916 L2156.73 235.916 L2156.73 209.99 L2161.01 209.99 L2161.01 214.018 Q2162.35 211.657 2164.51 210.522 Q2166.66 209.365 2169.74 209.365 Q2170.18 209.365 2170.71 209.434 Q2171.24 209.481 2171.89 209.596 L2171.91 213.971 Z" fill="#000000" fill-rule="nonzero" fill-opacity="1" /><path clip-path="url(#clip890)" d="M2185.39 212.976 Q2181.96 212.976 2179.97 215.661 Q2177.98 218.323 2177.98 222.976 Q2177.98 227.629 2179.95 230.314 Q2181.94 232.976 2185.39 232.976 Q2188.79 232.976 2190.78 230.291 Q2192.77 227.606 2192.77 222.976 Q2192.77 218.37 2190.78 215.684 Q2188.79 212.976 2185.39 212.976 M2185.39 209.365 Q2190.94 209.365 2194.11 212.976 Q2197.28 216.587 2197.28 222.976 Q2197.28 229.342 2194.11 232.976 Q2190.94 236.587 2185.39 236.587 Q2179.81 236.587 2176.64 232.976 Q2173.49 229.342 2173.49 222.976 Q2173.49 216.587 2176.64 212.976 Q2179.81 209.365 2185.39 209.365 Z" fill="#000000" fill-rule="nonzero" fill-opacity="1" /><path clip-path="url(#clip890)" d="M2225.89 220.268 L2225.89 235.916 L2221.63 235.916 L2221.63 220.407 Q2221.63 216.726 2220.2 214.897 Q2218.76 213.069 2215.89 213.069 Q2212.45 213.069 2210.45 215.268 Q2208.46 217.467 2208.46 221.263 L2208.46 235.916 L2204.18 235.916 L2204.18 209.99 L2208.46 209.99 L2208.46 214.018 Q2209.99 211.68 2212.05 210.522 Q2214.13 209.365 2216.84 209.365 Q2221.31 209.365 2223.6 212.143 Q2225.89 214.897 2225.89 220.268 Z" fill="#000000" fill-rule="nonzero" fill-opacity="1" /><path clip-path="url(#clip890)" d="M2250.92 210.754 L2250.92 214.782 Q2249.11 213.856 2247.17 213.393 Q2245.22 212.93 2243.14 212.93 Q2239.97 212.93 2238.37 213.902 Q2236.8 214.874 2236.8 216.819 Q2236.8 218.3 2237.93 219.157 Q2239.07 219.99 2242.49 220.754 L2243.95 221.078 Q2248.49 222.05 2250.38 223.832 Q2252.31 225.592 2252.31 228.763 Q2252.31 232.374 2249.44 234.481 Q2246.59 236.587 2241.59 236.587 Q2239.51 236.587 2237.24 236.17 Q2234.99 235.777 2232.49 234.967 L2232.49 230.569 Q2234.85 231.795 2237.14 232.42 Q2239.44 233.022 2241.68 233.022 Q2244.69 233.022 2246.31 232.004 Q2247.93 230.962 2247.93 229.087 Q2247.93 227.351 2246.75 226.425 Q2245.59 225.499 2241.63 224.643 L2240.15 224.295 Q2236.19 223.462 2234.44 221.749 Q2232.68 220.013 2232.68 217.004 Q2232.68 213.346 2235.27 211.356 Q2237.86 209.365 2242.63 209.365 Q2244.99 209.365 2247.07 209.712 Q2249.16 210.059 2250.92 210.754 Z" fill="#000000" fill-rule="nonzero" fill-opacity="1" /><polyline clip-path="url(#clip890)" style="stroke:#ff0000; stroke-linecap:round; stroke-linejoin:round; stroke-width:4; stroke-opacity:1; fill:none" points="1874.47,270.476 2019.62,270.476 "/>
<path clip-path="url(#clip890)" d="M2048.49 257.038 L2048.49 270.024 L2054.37 270.024 Q2057.63 270.024 2059.41 268.335 Q2061.2 266.645 2061.2 263.52 Q2061.2 260.418 2059.41 258.728 Q2057.63 257.038 2054.37 257.038 L2048.49 257.038 M2043.81 253.196 L2054.37 253.196 Q2060.18 253.196 2063.14 255.835 Q2066.13 258.45 2066.13 263.52 Q2066.13 268.635 2063.14 271.251 Q2060.18 273.867 2054.37 273.867 L2048.49 273.867 L2048.49 287.756 L2043.81 287.756 L2043.81 253.196 Z" fill="#000000" fill-rule="nonzero" fill-opacity="1" /><path clip-path="url(#clip890)" d="M2086.4 265.811 Q2085.69 265.395 2084.83 265.21 Q2084 265.001 2082.98 265.001 Q2079.37 265.001 2077.42 267.362 Q2075.5 269.7 2075.5 274.098 L2075.5 287.756 L2071.22 287.756 L2071.22 261.83 L2075.5 261.83 L2075.5 265.858 Q2076.84 263.497 2079 262.362 Q2081.15 261.205 2084.23 261.205 Q2084.67 261.205 2085.2 261.274 Q2085.73 261.321 2086.38 261.436 L2086.4 265.811 Z" fill="#000000" fill-rule="nonzero" fill-opacity="1" /><path clip-path="url(#clip890)" d="M2099.88 264.816 Q2096.45 264.816 2094.46 267.501 Q2092.47 270.163 2092.47 274.816 Q2092.47 279.469 2094.44 282.154 Q2096.43 284.816 2099.88 284.816 Q2103.28 284.816 2105.27 282.131 Q2107.26 279.446 2107.26 274.816 Q2107.26 270.21 2105.27 267.524 Q2103.28 264.816 2099.88 264.816 M2099.88 261.205 Q2105.43 261.205 2108.6 264.816 Q2111.77 268.427 2111.77 274.816 Q2111.77 281.182 2108.6 284.816 Q2105.43 288.427 2099.88 288.427 Q2094.3 288.427 2091.13 284.816 Q2087.98 281.182 2087.98 274.816 Q2087.98 268.427 2091.13 264.816 Q2094.3 261.205 2099.88 261.205 Z" fill="#000000" fill-rule="nonzero" fill-opacity="1" /><path clip-path="url(#clip890)" d="M2123.05 254.469 L2123.05 261.83 L2131.82 261.83 L2131.82 265.14 L2123.05 265.14 L2123.05 279.214 Q2123.05 282.385 2123.9 283.288 Q2124.78 284.191 2127.45 284.191 L2131.82 284.191 L2131.82 287.756 L2127.45 287.756 Q2122.52 287.756 2120.64 285.927 Q2118.77 284.075 2118.77 279.214 L2118.77 265.14 L2115.64 265.14 L2115.64 261.83 L2118.77 261.83 L2118.77 254.469 L2123.05 254.469 Z" fill="#000000" fill-rule="nonzero" fill-opacity="1" /><path clip-path="url(#clip890)" d="M2147.47 264.816 Q2144.04 264.816 2142.05 267.501 Q2140.06 270.163 2140.06 274.816 Q2140.06 279.469 2142.03 282.154 Q2144.02 284.816 2147.47 284.816 Q2150.87 284.816 2152.86 282.131 Q2154.85 279.446 2154.85 274.816 Q2154.85 270.21 2152.86 267.524 Q2150.87 264.816 2147.47 264.816 M2147.47 261.205 Q2153.02 261.205 2156.2 264.816 Q2159.37 268.427 2159.37 274.816 Q2159.37 281.182 2156.2 284.816 Q2153.02 288.427 2147.47 288.427 Q2141.89 288.427 2138.72 284.816 Q2135.57 281.182 2135.57 274.816 Q2135.57 268.427 2138.72 264.816 Q2141.89 261.205 2147.47 261.205 Z" fill="#000000" fill-rule="nonzero" fill-opacity="1" /><path clip-path="url(#clip890)" d="M2187.98 272.108 L2187.98 287.756 L2183.72 287.756 L2183.72 272.247 Q2183.72 268.566 2182.28 266.737 Q2180.85 264.909 2177.98 264.909 Q2174.53 264.909 2172.54 267.108 Q2170.55 269.307 2170.55 273.103 L2170.55 287.756 L2166.26 287.756 L2166.26 261.83 L2170.55 261.83 L2170.55 265.858 Q2172.07 263.52 2174.14 262.362 Q2176.22 261.205 2178.93 261.205 Q2183.39 261.205 2185.69 263.983 Q2187.98 266.737 2187.98 272.108 Z" fill="#000000" fill-rule="nonzero" fill-opacity="1" /><path clip-path="url(#clip890)" d="M2213 262.594 L2213 266.622 Q2211.2 265.696 2209.25 265.233 Q2207.31 264.77 2205.22 264.77 Q2202.05 264.77 2200.45 265.742 Q2198.88 266.714 2198.88 268.659 Q2198.88 270.14 2200.01 270.997 Q2201.15 271.83 2204.57 272.594 L2206.03 272.918 Q2210.57 273.89 2212.47 275.672 Q2214.39 277.432 2214.39 280.603 Q2214.39 284.214 2211.52 286.321 Q2208.67 288.427 2203.67 288.427 Q2201.59 288.427 2199.32 288.01 Q2197.07 287.617 2194.57 286.807 L2194.57 282.409 Q2196.94 283.635 2199.23 284.26 Q2201.52 284.862 2203.76 284.862 Q2206.77 284.862 2208.39 283.844 Q2210.01 282.802 2210.01 280.927 Q2210.01 279.191 2208.83 278.265 Q2207.68 277.339 2203.72 276.483 L2202.24 276.135 Q2198.28 275.302 2196.52 273.589 Q2194.76 271.853 2194.76 268.844 Q2194.76 265.186 2197.35 263.196 Q2199.95 261.205 2204.71 261.205 Q2207.07 261.205 2209.16 261.552 Q2211.24 261.899 2213 262.594 Z" fill="#000000" fill-rule="nonzero" fill-opacity="1" /><polyline clip-path="url(#clip890)" style="stroke:#0000ff; stroke-linecap:round; stroke-linejoin:round; stroke-width:4; stroke-opacity:1; fill:none" points="1874.47,322.316 2019.62,322.316 "/>
<path clip-path="url(#clip890)" d="M2043.81 305.036 L2065.66 305.036 L2065.66 308.971 L2048.49 308.971 L2048.49 319.202 L2064.95 319.202 L2064.95 323.137 L2048.49 323.137 L2048.49 335.661 L2066.08 335.661 L2066.08 339.596 L2043.81 339.596 L2043.81 305.036 Z" fill="#000000" fill-rule="nonzero" fill-opacity="1" /><path clip-path="url(#clip890)" d="M2073.58 303.577 L2077.84 303.577 L2077.84 339.596 L2073.58 339.596 L2073.58 303.577 Z" fill="#000000" fill-rule="nonzero" fill-opacity="1" /><path clip-path="url(#clip890)" d="M2108.93 325.568 L2108.93 327.651 L2089.34 327.651 Q2089.62 332.049 2091.98 334.364 Q2094.37 336.656 2098.6 336.656 Q2101.06 336.656 2103.35 336.054 Q2105.66 335.452 2107.93 334.249 L2107.93 338.276 Q2105.64 339.248 2103.23 339.758 Q2100.83 340.267 2098.35 340.267 Q2092.14 340.267 2088.51 336.656 Q2084.9 333.045 2084.9 326.887 Q2084.9 320.522 2088.33 316.795 Q2091.77 313.045 2097.61 313.045 Q2102.84 313.045 2105.87 316.425 Q2108.93 319.781 2108.93 325.568 M2104.67 324.318 Q2104.62 320.823 2102.7 318.739 Q2100.8 316.656 2097.65 316.656 Q2094.09 316.656 2091.94 318.67 Q2089.81 320.684 2089.48 324.341 L2104.67 324.318 Z" fill="#000000" fill-rule="nonzero" fill-opacity="1" /><path clip-path="url(#clip890)" d="M2134.58 314.665 L2134.58 318.647 Q2132.77 317.651 2130.94 317.165 Q2129.14 316.656 2127.28 316.656 Q2123.14 316.656 2120.85 319.295 Q2118.56 321.911 2118.56 326.656 Q2118.56 331.401 2120.85 334.04 Q2123.14 336.656 2127.28 336.656 Q2129.14 336.656 2130.94 336.17 Q2132.77 335.661 2134.58 334.665 L2134.58 338.6 Q2132.79 339.434 2130.87 339.85 Q2128.97 340.267 2126.82 340.267 Q2120.96 340.267 2117.52 336.586 Q2114.07 332.906 2114.07 326.656 Q2114.07 320.313 2117.54 316.679 Q2121.03 313.045 2127.1 313.045 Q2129.07 313.045 2130.94 313.462 Q2132.82 313.855 2134.58 314.665 Z" fill="#000000" fill-rule="nonzero" fill-opacity="1" /><path clip-path="url(#clip890)" d="M2146.2 306.309 L2146.2 313.67 L2154.97 313.67 L2154.97 316.98 L2146.2 316.98 L2146.2 331.054 Q2146.2 334.225 2147.05 335.128 Q2147.93 336.031 2150.59 336.031 L2154.97 336.031 L2154.97 339.596 L2150.59 339.596 Q2145.66 339.596 2143.79 337.767 Q2141.91 335.915 2141.91 331.054 L2141.91 316.98 L2138.79 316.98 L2138.79 313.67 L2141.91 313.67 L2141.91 306.309 L2146.2 306.309 Z" fill="#000000" fill-rule="nonzero" fill-opacity="1" /><path clip-path="url(#clip890)" d="M2175.59 317.651 Q2174.88 317.235 2174.02 317.05 Q2173.19 316.841 2172.17 316.841 Q2168.56 316.841 2166.61 319.202 Q2164.69 321.54 2164.69 325.938 L2164.69 339.596 L2160.41 339.596 L2160.41 313.67 L2164.69 313.67 L2164.69 317.698 Q2166.03 315.337 2168.19 314.202 Q2170.34 313.045 2173.42 313.045 Q2173.86 313.045 2174.39 313.114 Q2174.92 313.161 2175.57 313.276 L2175.59 317.651 Z" fill="#000000" fill-rule="nonzero" fill-opacity="1" /><path clip-path="url(#clip890)" d="M2189.07 316.656 Q2185.64 316.656 2183.65 319.341 Q2181.66 322.003 2181.66 326.656 Q2181.66 331.309 2183.63 333.994 Q2185.62 336.656 2189.07 336.656 Q2192.47 336.656 2194.46 333.971 Q2196.45 331.286 2196.45 326.656 Q2196.45 322.05 2194.46 319.364 Q2192.47 316.656 2189.07 316.656 M2189.07 313.045 Q2194.62 313.045 2197.79 316.656 Q2200.96 320.267 2200.96 326.656 Q2200.96 333.022 2197.79 336.656 Q2194.62 340.267 2189.07 340.267 Q2183.49 340.267 2180.32 336.656 Q2177.17 333.022 2177.17 326.656 Q2177.17 320.267 2180.32 316.656 Q2183.49 313.045 2189.07 313.045 Z" fill="#000000" fill-rule="nonzero" fill-opacity="1" /><path clip-path="url(#clip890)" d="M2229.57 323.948 L2229.57 339.596 L2225.32 339.596 L2225.32 324.087 Q2225.32 320.406 2223.88 318.577 Q2222.45 316.749 2219.57 316.749 Q2216.13 316.749 2214.13 318.948 Q2212.14 321.147 2212.14 324.943 L2212.14 339.596 L2207.86 339.596 L2207.86 313.67 L2212.14 313.67 L2212.14 317.698 Q2213.67 315.36 2215.73 314.202 Q2217.82 313.045 2220.52 313.045 Q2224.99 313.045 2227.28 315.823 Q2229.57 318.577 2229.57 323.948 Z" fill="#000000" fill-rule="nonzero" fill-opacity="1" /><path clip-path="url(#clip890)" d="M2254.6 314.434 L2254.6 318.462 Q2252.79 317.536 2250.85 317.073 Q2248.9 316.61 2246.82 316.61 Q2243.65 316.61 2242.05 317.582 Q2240.48 318.554 2240.48 320.499 Q2240.48 321.98 2241.61 322.837 Q2242.75 323.67 2246.17 324.434 L2247.63 324.758 Q2252.17 325.73 2254.07 327.512 Q2255.99 329.272 2255.99 332.443 Q2255.99 336.054 2253.12 338.161 Q2250.27 340.267 2245.27 340.267 Q2243.19 340.267 2240.92 339.85 Q2238.67 339.457 2236.17 338.647 L2236.17 334.249 Q2238.53 335.475 2240.82 336.1 Q2243.12 336.702 2245.36 336.702 Q2248.37 336.702 2249.99 335.684 Q2251.61 334.642 2251.61 332.767 Q2251.61 331.031 2250.43 330.105 Q2249.27 329.179 2245.32 328.323 L2243.83 327.975 Q2239.88 327.142 2238.12 325.429 Q2236.36 323.693 2236.36 320.684 Q2236.36 317.026 2238.95 315.036 Q2241.54 313.045 2246.31 313.045 Q2248.67 313.045 2250.76 313.392 Q2252.84 313.739 2254.6 314.434 Z" fill="#000000" fill-rule="nonzero" fill-opacity="1" /><polyline clip-path="url(#clip890)" style="stroke:#008000; stroke-linecap:round; stroke-linejoin:round; stroke-width:4; stroke-opacity:1; fill:none" points="1874.47,374.156 2019.62,374.156 "/>
<path clip-path="url(#clip890)" d="M2069.37 386.505 L2069.37 377.223 L2061.73 377.223 L2061.73 373.38 L2074 373.38 L2074 388.218 Q2071.29 390.139 2068.02 391.135 Q2064.76 392.107 2061.06 392.107 Q2052.96 392.107 2048.37 387.385 Q2043.81 382.639 2043.81 374.19 Q2043.81 365.718 2048.37 360.996 Q2052.96 356.251 2061.06 356.251 Q2064.44 356.251 2067.47 357.084 Q2070.52 357.917 2073.09 359.538 L2073.09 364.515 Q2070.5 362.316 2067.58 361.204 Q2064.67 360.093 2061.45 360.093 Q2055.11 360.093 2051.91 363.635 Q2048.74 367.177 2048.74 374.19 Q2048.74 381.181 2051.91 384.723 Q2055.11 388.264 2061.45 388.264 Q2063.93 388.264 2065.87 387.848 Q2067.82 387.408 2069.37 386.505 Z" fill="#000000" fill-rule="nonzero" fill-opacity="1" /><path clip-path="url(#clip890)" d="M2094.14 378.403 Q2088.97 378.403 2086.98 379.584 Q2084.99 380.764 2084.99 383.612 Q2084.99 385.88 2086.47 387.223 Q2087.98 388.542 2090.55 388.542 Q2094.09 388.542 2096.22 386.042 Q2098.37 383.519 2098.37 379.352 L2098.37 378.403 L2094.14 378.403 M2102.63 376.644 L2102.63 391.436 L2098.37 391.436 L2098.37 387.501 Q2096.91 389.862 2094.74 390.996 Q2092.56 392.107 2089.41 392.107 Q2085.43 392.107 2083.07 389.885 Q2080.73 387.639 2080.73 383.889 Q2080.73 379.514 2083.65 377.292 Q2086.59 375.07 2092.4 375.07 L2098.37 375.07 L2098.37 374.653 Q2098.37 371.714 2096.43 370.116 Q2094.51 368.496 2091.01 368.496 Q2088.79 368.496 2086.68 369.028 Q2084.58 369.561 2082.63 370.626 L2082.63 366.69 Q2084.97 365.788 2087.17 365.348 Q2089.37 364.885 2091.45 364.885 Q2097.08 364.885 2099.85 367.802 Q2102.63 370.718 2102.63 376.644 Z" fill="#000000" fill-rule="nonzero" fill-opacity="1" /><path clip-path="url(#clip890)" d="M2131.59 370.487 Q2133.19 367.616 2135.41 366.251 Q2137.63 364.885 2140.64 364.885 Q2144.69 364.885 2146.89 367.732 Q2149.09 370.556 2149.09 375.788 L2149.09 391.436 L2144.81 391.436 L2144.81 375.927 Q2144.81 372.2 2143.49 370.394 Q2142.17 368.589 2139.46 368.589 Q2136.15 368.589 2134.23 370.788 Q2132.31 372.987 2132.31 376.783 L2132.31 391.436 L2128.02 391.436 L2128.02 375.927 Q2128.02 372.177 2126.7 370.394 Q2125.39 368.589 2122.63 368.589 Q2119.37 368.589 2117.45 370.811 Q2115.52 373.01 2115.52 376.783 L2115.52 391.436 L2111.24 391.436 L2111.24 365.51 L2115.52 365.51 L2115.52 369.538 Q2116.98 367.153 2119.02 366.019 Q2121.06 364.885 2123.86 364.885 Q2126.68 364.885 2128.65 366.32 Q2130.64 367.755 2131.59 370.487 Z" fill="#000000" fill-rule="nonzero" fill-opacity="1" /><path clip-path="url(#clip890)" d="M2177.77 370.487 Q2179.37 367.616 2181.59 366.251 Q2183.81 364.885 2186.82 364.885 Q2190.87 364.885 2193.07 367.732 Q2195.27 370.556 2195.27 375.788 L2195.27 391.436 L2190.99 391.436 L2190.99 375.927 Q2190.99 372.2 2189.67 370.394 Q2188.35 368.589 2185.64 368.589 Q2182.33 368.589 2180.41 370.788 Q2178.49 372.987 2178.49 376.783 L2178.49 391.436 L2174.2 391.436 L2174.2 375.927 Q2174.2 372.177 2172.89 370.394 Q2171.57 368.589 2168.81 368.589 Q2165.55 368.589 2163.63 370.811 Q2161.7 373.01 2161.7 376.783 L2161.7 391.436 L2157.42 391.436 L2157.42 365.51 L2161.7 365.51 L2161.7 369.538 Q2163.16 367.153 2165.2 366.019 Q2167.24 364.885 2170.04 364.885 Q2172.86 364.885 2174.83 366.32 Q2176.82 367.755 2177.77 370.487 Z" fill="#000000" fill-rule="nonzero" fill-opacity="1" /><path clip-path="url(#clip890)" d="M2215.55 378.403 Q2210.38 378.403 2208.39 379.584 Q2206.4 380.764 2206.4 383.612 Q2206.4 385.88 2207.88 387.223 Q2209.39 388.542 2211.96 388.542 Q2215.5 388.542 2217.63 386.042 Q2219.78 383.519 2219.78 379.352 L2219.78 378.403 L2215.55 378.403 M2224.04 376.644 L2224.04 391.436 L2219.78 391.436 L2219.78 387.501 Q2218.32 389.862 2216.15 390.996 Q2213.97 392.107 2210.82 392.107 Q2206.84 392.107 2204.48 389.885 Q2202.14 387.639 2202.14 383.889 Q2202.14 379.514 2205.06 377.292 Q2208 375.07 2213.81 375.07 L2219.78 375.07 L2219.78 374.653 Q2219.78 371.714 2217.84 370.116 Q2215.92 368.496 2212.42 368.496 Q2210.2 368.496 2208.09 369.028 Q2205.99 369.561 2204.04 370.626 L2204.04 366.69 Q2206.38 365.788 2208.58 365.348 Q2210.78 364.885 2212.86 364.885 Q2218.49 364.885 2221.26 367.802 Q2224.04 370.718 2224.04 376.644 Z" fill="#000000" fill-rule="nonzero" fill-opacity="1" /><path clip-path="url(#clip890)" d="M2249.34 366.274 L2249.34 370.302 Q2247.54 369.376 2245.59 368.913 Q2243.65 368.45 2241.57 368.45 Q2238.39 368.45 2236.8 369.422 Q2235.22 370.394 2235.22 372.339 Q2235.22 373.82 2236.36 374.677 Q2237.49 375.51 2240.92 376.274 L2242.38 376.598 Q2246.91 377.57 2248.81 379.352 Q2250.73 381.112 2250.73 384.283 Q2250.73 387.894 2247.86 390.001 Q2245.01 392.107 2240.01 392.107 Q2237.93 392.107 2235.66 391.69 Q2233.42 391.297 2230.92 390.487 L2230.92 386.089 Q2233.28 387.315 2235.57 387.94 Q2237.86 388.542 2240.11 388.542 Q2243.12 388.542 2244.74 387.524 Q2246.36 386.482 2246.36 384.607 Q2246.36 382.871 2245.18 381.945 Q2244.02 381.019 2240.06 380.163 L2238.58 379.815 Q2234.62 378.982 2232.86 377.269 Q2231.1 375.533 2231.1 372.524 Q2231.1 368.866 2233.69 366.876 Q2236.29 364.885 2241.06 364.885 Q2243.42 364.885 2245.5 365.232 Q2247.58 365.579 2249.34 366.274 Z" fill="#000000" fill-rule="nonzero" fill-opacity="1" /></svg>
