<?xml version="1.0" encoding="utf-8"?>
<svg xmlns="http://www.w3.org/2000/svg" xmlns:xlink="http://www.w3.org/1999/xlink" width="600" height="400" viewBox="0 0 2400 1600">
<defs>
  <clipPath id="clip150">
    <rect x="0" y="0" width="2400" height="1600"/>
  </clipPath>
</defs>
<path clip-path="url(#clip150)" d="M0 1600 L2400 1600 L2400 0 L0 0  Z" fill="#ffffff" fill-rule="evenodd" fill-opacity="1"/>
<defs>
  <clipPath id="clip151">
    <rect x="480" y="0" width="1681" height="1600"/>
  </clipPath>
</defs>
<path clip-path="url(#clip150)" d="M234.125 1423.18 L2352.76 1423.18 L2352.76 123.472 L234.125 123.472  Z" fill="#ffffff" fill-rule="evenodd" fill-opacity="1"/>
<defs>
  <clipPath id="clip152">
    <rect x="234" y="123" width="2120" height="1301"/>
  </clipPath>
</defs>
<polyline clip-path="url(#clip152)" style="stroke:#000000; stroke-linecap:round; stroke-linejoin:round; stroke-width:2; stroke-opacity:0.1; fill:none" points="286.06,1423.18 286.06,123.472 "/>
<polyline clip-path="url(#clip152)" style="stroke:#000000; stroke-linecap:round; stroke-linejoin:round; stroke-width:2; stroke-opacity:0.1; fill:none" points="687.407,1423.18 687.407,123.472 "/>
<polyline clip-path="url(#clip152)" style="stroke:#000000; stroke-linecap:round; stroke-linejoin:round; stroke-width:2; stroke-opacity:0.1; fill:none" points="1088.75,1423.18 1088.75,123.472 "/>
<polyline clip-path="url(#clip152)" style="stroke:#000000; stroke-linecap:round; stroke-linejoin:round; stroke-width:2; stroke-opacity:0.1; fill:none" points="1490.1,1423.18 1490.1,123.472 "/>
<polyline clip-path="url(#clip152)" style="stroke:#000000; stroke-linecap:round; stroke-linejoin:round; stroke-width:2; stroke-opacity:0.1; fill:none" points="1891.45,1423.18 1891.45,123.472 "/>
<polyline clip-path="url(#clip152)" style="stroke:#000000; stroke-linecap:round; stroke-linejoin:round; stroke-width:2; stroke-opacity:0.1; fill:none" points="2292.79,1423.18 2292.79,123.472 "/>
<polyline clip-path="url(#clip152)" style="stroke:#000000; stroke-linecap:round; stroke-linejoin:round; stroke-width:2; stroke-opacity:0.1; fill:none" points="234.125,1386.4 2352.76,1386.4 "/>
<polyline clip-path="url(#clip152)" style="stroke:#000000; stroke-linecap:round; stroke-linejoin:round; stroke-width:2; stroke-opacity:0.1; fill:none" points="234.125,1173.52 2352.76,1173.52 "/>
<polyline clip-path="url(#clip152)" style="stroke:#000000; stroke-linecap:round; stroke-linejoin:round; stroke-width:2; stroke-opacity:0.1; fill:none" points="234.125,960.653 2352.76,960.653 "/>
<polyline clip-path="url(#clip152)" style="stroke:#000000; stroke-linecap:round; stroke-linejoin:round; stroke-width:2; stroke-opacity:0.1; fill:none" points="234.125,747.781 2352.76,747.781 "/>
<polyline clip-path="url(#clip152)" style="stroke:#000000; stroke-linecap:round; stroke-linejoin:round; stroke-width:2; stroke-opacity:0.1; fill:none" points="234.125,534.91 2352.76,534.91 "/>
<polyline clip-path="url(#clip152)" style="stroke:#000000; stroke-linecap:round; stroke-linejoin:round; stroke-width:2; stroke-opacity:0.1; fill:none" points="234.125,322.039 2352.76,322.039 "/>
<polyline clip-path="url(#clip150)" style="stroke:#000000; stroke-linecap:round; stroke-linejoin:round; stroke-width:4; stroke-opacity:1; fill:none" points="234.125,1423.18 2352.76,1423.18 "/>
<polyline clip-path="url(#clip150)" style="stroke:#000000; stroke-linecap:round; stroke-linejoin:round; stroke-width:4; stroke-opacity:1; fill:none" points="286.06,1423.18 286.06,1404.28 "/>
<polyline clip-path="url(#clip150)" style="stroke:#000000; stroke-linecap:round; stroke-linejoin:round; stroke-width:4; stroke-opacity:1; fill:none" points="687.407,1423.18 687.407,1404.28 "/>
<polyline clip-path="url(#clip150)" style="stroke:#000000; stroke-linecap:round; stroke-linejoin:round; stroke-width:4; stroke-opacity:1; fill:none" points="1088.75,1423.18 1088.75,1404.28 "/>
<polyline clip-path="url(#clip150)" style="stroke:#000000; stroke-linecap:round; stroke-linejoin:round; stroke-width:4; stroke-opacity:1; fill:none" points="1490.1,1423.18 1490.1,1404.28 "/>
<polyline clip-path="url(#clip150)" style="stroke:#000000; stroke-linecap:round; stroke-linejoin:round; stroke-width:4; stroke-opacity:1; fill:none" points="1891.45,1423.18 1891.45,1404.28 "/>
<polyline clip-path="url(#clip150)" style="stroke:#000000; stroke-linecap:round; stroke-linejoin:round; stroke-width:4; stroke-opacity:1; fill:none" points="2292.79,1423.18 2292.79,1404.28 "/>
<path clip-path="url(#clip150)" d="M286.06 1454.1 Q282.449 1454.1 280.62 1457.66 Q278.814 1461.2 278.814 1468.33 Q278.814 1475.44 280.62 1479.01 Q282.449 1482.55 286.06 1482.55 Q289.694 1482.55 291.5 1479.01 Q293.328 1475.44 293.328 1468.33 Q293.328 1461.2 291.5 1457.66 Q289.694 1454.1 286.06 1454.1 M286.06 1450.39 Q291.87 1450.39 294.925 1455 Q298.004 1459.58 298.004 1468.33 Q298.004 1477.06 294.925 1481.67 Q291.87 1486.25 286.06 1486.25 Q280.25 1486.25 277.171 1481.67 Q274.115 1477.06 274.115 1468.33 Q274.115 1459.58 277.171 1455 Q280.25 1450.39 286.06 1450.39 Z" fill="#000000" fill-rule="nonzero" fill-opacity="1" /><path clip-path="url(#clip150)" d="M662.106 1451.02 L680.462 1451.02 L680.462 1454.96 L666.388 1454.96 L666.388 1463.43 Q667.407 1463.08 668.425 1462.92 Q669.444 1462.73 670.462 1462.73 Q676.249 1462.73 679.629 1465.9 Q683.009 1469.08 683.009 1474.49 Q683.009 1480.07 679.536 1483.17 Q676.064 1486.25 669.745 1486.25 Q667.569 1486.25 665.3 1485.88 Q663.055 1485.51 660.648 1484.77 L660.648 1480.07 Q662.731 1481.2 664.953 1481.76 Q667.175 1482.32 669.652 1482.32 Q673.657 1482.32 675.995 1480.21 Q678.333 1478.1 678.333 1474.49 Q678.333 1470.88 675.995 1468.77 Q673.657 1466.67 669.652 1466.67 Q667.777 1466.67 665.902 1467.08 Q664.05 1467.5 662.106 1468.38 L662.106 1451.02 Z" fill="#000000" fill-rule="nonzero" fill-opacity="1" /><path clip-path="url(#clip150)" d="M702.221 1454.1 Q698.61 1454.1 696.782 1457.66 Q694.976 1461.2 694.976 1468.33 Q694.976 1475.44 696.782 1479.01 Q698.61 1482.55 702.221 1482.55 Q705.856 1482.55 707.661 1479.01 Q709.49 1475.44 709.49 1468.33 Q709.49 1461.2 707.661 1457.66 Q705.856 1454.1 702.221 1454.1 M702.221 1450.39 Q708.032 1450.39 711.087 1455 Q714.166 1459.58 714.166 1468.33 Q714.166 1477.06 711.087 1481.67 Q708.032 1486.25 702.221 1486.25 Q696.411 1486.25 693.333 1481.67 Q690.277 1477.06 690.277 1468.33 Q690.277 1459.58 693.333 1455 Q696.411 1450.39 702.221 1450.39 Z" fill="#000000" fill-rule="nonzero" fill-opacity="1" /><path clip-path="url(#clip150)" d="M1048.36 1481.64 L1056 1481.64 L1056 1455.28 L1047.69 1456.95 L1047.69 1452.69 L1055.95 1451.02 L1060.63 1451.02 L1060.63 1481.64 L1068.27 1481.64 L1068.27 1485.58 L1048.36 1485.58 L1048.36 1481.64 Z" fill="#000000" fill-rule="nonzero" fill-opacity="1" /><path clip-path="url(#clip150)" d="M1087.71 1454.1 Q1084.1 1454.1 1082.27 1457.66 Q1080.47 1461.2 1080.47 1468.33 Q1080.47 1475.44 1082.27 1479.01 Q1084.1 1482.55 1087.71 1482.55 Q1091.35 1482.55 1093.15 1479.01 Q1094.98 1475.44 1094.98 1468.33 Q1094.98 1461.2 1093.15 1457.66 Q1091.35 1454.1 1087.71 1454.1 M1087.71 1450.39 Q1093.52 1450.39 1096.58 1455 Q1099.66 1459.58 1099.66 1468.33 Q1099.66 1477.06 1096.58 1481.67 Q1093.52 1486.25 1087.71 1486.25 Q1081.9 1486.25 1078.82 1481.67 Q1075.77 1477.06 1075.77 1468.33 Q1075.77 1459.58 1078.82 1455 Q1081.9 1450.39 1087.71 1450.39 Z" fill="#000000" fill-rule="nonzero" fill-opacity="1" /><path clip-path="url(#clip150)" d="M1117.87 1454.1 Q1114.26 1454.1 1112.43 1457.66 Q1110.63 1461.2 1110.63 1468.33 Q1110.63 1475.44 1112.43 1479.01 Q1114.26 1482.55 1117.87 1482.55 Q1121.51 1482.55 1123.31 1479.01 Q1125.14 1475.44 1125.14 1468.33 Q1125.14 1461.2 1123.31 1457.66 Q1121.51 1454.1 1117.87 1454.1 M1117.87 1450.39 Q1123.68 1450.39 1126.74 1455 Q1129.82 1459.58 1129.82 1468.33 Q1129.82 1477.06 1126.74 1481.67 Q1123.68 1486.25 1117.87 1486.25 Q1112.06 1486.25 1108.99 1481.67 Q1105.93 1477.06 1105.93 1468.33 Q1105.93 1459.58 1108.99 1455 Q1112.06 1450.39 1117.87 1450.39 Z" fill="#000000" fill-rule="nonzero" fill-opacity="1" /><path clip-path="url(#clip150)" d="M1449.71 1481.64 L1457.35 1481.64 L1457.35 1455.28 L1449.04 1456.95 L1449.04 1452.69 L1457.3 1451.02 L1461.98 1451.02 L1461.98 1481.64 L1469.61 1481.64 L1469.61 1485.58 L1449.71 1485.58 L1449.71 1481.64 Z" fill="#000000" fill-rule="nonzero" fill-opacity="1" /><path clip-path="url(#clip150)" d="M1479.11 1451.02 L1497.46 1451.02 L1497.46 1454.96 L1483.39 1454.96 L1483.39 1463.43 Q1484.41 1463.08 1485.42 1462.92 Q1486.44 1462.73 1487.46 1462.73 Q1493.25 1462.73 1496.63 1465.9 Q1500.01 1469.08 1500.01 1474.49 Q1500.01 1480.07 1496.54 1483.17 Q1493.06 1486.25 1486.74 1486.25 Q1484.57 1486.25 1482.3 1485.88 Q1480.05 1485.51 1477.65 1484.77 L1477.65 1480.07 Q1479.73 1481.2 1481.95 1481.76 Q1484.17 1482.32 1486.65 1482.32 Q1490.66 1482.32 1492.99 1480.21 Q1495.33 1478.1 1495.33 1474.49 Q1495.33 1470.88 1492.99 1468.77 Q1490.66 1466.67 1486.65 1466.67 Q1484.78 1466.67 1482.9 1467.08 Q1481.05 1467.5 1479.11 1468.38 L1479.11 1451.02 Z" fill="#000000" fill-rule="nonzero" fill-opacity="1" /><path clip-path="url(#clip150)" d="M1519.22 1454.1 Q1515.61 1454.1 1513.78 1457.66 Q1511.98 1461.2 1511.98 1468.33 Q1511.98 1475.44 1513.78 1479.01 Q1515.61 1482.55 1519.22 1482.55 Q1522.86 1482.55 1524.66 1479.01 Q1526.49 1475.44 1526.49 1468.33 Q1526.49 1461.2 1524.66 1457.66 Q1522.86 1454.1 1519.22 1454.1 M1519.22 1450.39 Q1525.03 1450.39 1528.09 1455 Q1531.17 1459.58 1531.17 1468.33 Q1531.17 1477.06 1528.09 1481.67 Q1525.03 1486.25 1519.22 1486.25 Q1513.41 1486.25 1510.33 1481.67 Q1507.28 1477.06 1507.28 1468.33 Q1507.28 1459.58 1510.33 1455 Q1513.41 1450.39 1519.22 1450.39 Z" fill="#000000" fill-rule="nonzero" fill-opacity="1" /><path clip-path="url(#clip150)" d="M1855.14 1481.64 L1871.46 1481.64 L1871.46 1485.58 L1849.52 1485.58 L1849.52 1481.64 Q1852.18 1478.89 1856.76 1474.26 Q1861.37 1469.61 1862.55 1468.27 Q1864.79 1465.74 1865.67 1464.01 Q1866.58 1462.25 1866.58 1460.56 Q1866.58 1457.8 1864.63 1456.07 Q1862.71 1454.33 1859.61 1454.33 Q1857.41 1454.33 1854.95 1455.09 Q1852.52 1455.86 1849.75 1457.41 L1849.75 1452.69 Q1852.57 1451.55 1855.02 1450.97 Q1857.48 1450.39 1859.51 1450.39 Q1864.89 1450.39 1868.08 1453.08 Q1871.27 1455.77 1871.27 1460.26 Q1871.27 1462.39 1870.46 1464.31 Q1869.68 1466.2 1867.57 1468.8 Q1866.99 1469.47 1863.89 1472.69 Q1860.79 1475.88 1855.14 1481.64 Z" fill="#000000" fill-rule="nonzero" fill-opacity="1" /><path clip-path="url(#clip150)" d="M1891.27 1454.1 Q1887.66 1454.1 1885.83 1457.66 Q1884.03 1461.2 1884.03 1468.33 Q1884.03 1475.44 1885.83 1479.01 Q1887.66 1482.55 1891.27 1482.55 Q1894.91 1482.55 1896.71 1479.01 Q1898.54 1475.44 1898.54 1468.33 Q1898.54 1461.2 1896.71 1457.66 Q1894.91 1454.1 1891.27 1454.1 M1891.27 1450.39 Q1897.08 1450.39 1900.14 1455 Q1903.22 1459.58 1903.22 1468.33 Q1903.22 1477.06 1900.14 1481.67 Q1897.08 1486.25 1891.27 1486.25 Q1885.46 1486.25 1882.39 1481.67 Q1879.33 1477.06 1879.33 1468.33 Q1879.33 1459.58 1882.39 1455 Q1885.46 1450.39 1891.27 1450.39 Z" fill="#000000" fill-rule="nonzero" fill-opacity="1" /><path clip-path="url(#clip150)" d="M1921.44 1454.1 Q1917.82 1454.1 1916 1457.66 Q1914.19 1461.2 1914.19 1468.33 Q1914.19 1475.44 1916 1479.01 Q1917.82 1482.55 1921.44 1482.55 Q1925.07 1482.55 1926.88 1479.01 Q1928.7 1475.44 1928.7 1468.33 Q1928.7 1461.2 1926.88 1457.66 Q1925.07 1454.1 1921.44 1454.1 M1921.44 1450.39 Q1927.25 1450.39 1930.3 1455 Q1933.38 1459.58 1933.38 1468.33 Q1933.38 1477.06 1930.3 1481.67 Q1927.25 1486.25 1921.44 1486.25 Q1915.63 1486.25 1912.55 1481.67 Q1909.49 1477.06 1909.49 1468.33 Q1909.49 1459.58 1912.55 1455 Q1915.63 1450.39 1921.44 1450.39 Z" fill="#000000" fill-rule="nonzero" fill-opacity="1" /><path clip-path="url(#clip150)" d="M2256.49 1481.64 L2272.81 1481.64 L2272.81 1485.58 L2250.86 1485.58 L2250.86 1481.64 Q2253.52 1478.89 2258.11 1474.26 Q2262.71 1469.61 2263.89 1468.27 Q2266.14 1465.74 2267.02 1464.01 Q2267.92 1462.25 2267.92 1460.56 Q2267.92 1457.8 2265.98 1456.07 Q2264.06 1454.33 2260.95 1454.33 Q2258.76 1454.33 2256.3 1455.09 Q2253.87 1455.86 2251.09 1457.41 L2251.09 1452.69 Q2253.92 1451.55 2256.37 1450.97 Q2258.82 1450.39 2260.86 1450.39 Q2266.23 1450.39 2269.43 1453.08 Q2272.62 1455.77 2272.62 1460.26 Q2272.62 1462.39 2271.81 1464.31 Q2271.02 1466.2 2268.92 1468.8 Q2268.34 1469.47 2265.24 1472.69 Q2262.14 1475.88 2256.49 1481.64 Z" fill="#000000" fill-rule="nonzero" fill-opacity="1" /><path clip-path="url(#clip150)" d="M2282.67 1451.02 L2301.02 1451.02 L2301.02 1454.96 L2286.95 1454.96 L2286.95 1463.43 Q2287.97 1463.08 2288.99 1462.92 Q2290.01 1462.73 2291.02 1462.73 Q2296.81 1462.73 2300.19 1465.9 Q2303.57 1469.08 2303.57 1474.49 Q2303.57 1480.07 2300.1 1483.17 Q2296.63 1486.25 2290.31 1486.25 Q2288.13 1486.25 2285.86 1485.88 Q2283.62 1485.51 2281.21 1484.77 L2281.21 1480.07 Q2283.29 1481.2 2285.51 1481.76 Q2287.74 1482.32 2290.21 1482.32 Q2294.22 1482.32 2296.56 1480.21 Q2298.89 1478.1 2298.89 1474.49 Q2298.89 1470.88 2296.56 1468.77 Q2294.22 1466.67 2290.21 1466.67 Q2288.34 1466.67 2286.46 1467.08 Q2284.61 1467.5 2282.67 1468.38 L2282.67 1451.02 Z" fill="#000000" fill-rule="nonzero" fill-opacity="1" /><path clip-path="url(#clip150)" d="M2322.78 1454.1 Q2319.17 1454.1 2317.34 1457.66 Q2315.54 1461.2 2315.54 1468.33 Q2315.54 1475.44 2317.34 1479.01 Q2319.17 1482.55 2322.78 1482.55 Q2326.42 1482.55 2328.22 1479.01 Q2330.05 1475.44 2330.05 1468.33 Q2330.05 1461.2 2328.22 1457.66 Q2326.42 1454.1 2322.78 1454.1 M2322.78 1450.39 Q2328.59 1450.39 2331.65 1455 Q2334.73 1459.58 2334.73 1468.33 Q2334.73 1477.06 2331.65 1481.67 Q2328.59 1486.25 2322.78 1486.25 Q2316.97 1486.25 2313.89 1481.67 Q2310.84 1477.06 2310.84 1468.33 Q2310.84 1459.58 2313.89 1455 Q2316.97 1450.39 2322.78 1450.39 Z" fill="#000000" fill-rule="nonzero" fill-opacity="1" /><path clip-path="url(#clip150)" d="M1079.08 1520.52 L1109.12 1520.52 L1109.12 1525.93 L1085.5 1525.93 L1085.5 1540 L1108.13 1540 L1108.13 1545.41 L1085.5 1545.41 L1085.5 1562.63 L1109.69 1562.63 L1109.69 1568.04 L1079.08 1568.04 L1079.08 1520.52 Z" fill="#000000" fill-rule="nonzero" fill-opacity="1" /><path clip-path="url(#clip150)" d="M1149.64 1546.53 L1149.64 1568.04 L1143.78 1568.04 L1143.78 1546.72 Q1143.78 1541.66 1141.81 1539.14 Q1139.84 1536.63 1135.89 1536.63 Q1131.15 1536.63 1128.41 1539.65 Q1125.67 1542.68 1125.67 1547.9 L1125.67 1568.04 L1119.78 1568.04 L1119.78 1532.4 L1125.67 1532.4 L1125.67 1537.93 Q1127.77 1534.72 1130.61 1533.13 Q1133.47 1531.54 1137.19 1531.54 Q1143.34 1531.54 1146.49 1535.36 Q1149.64 1539.14 1149.64 1546.53 Z" fill="#000000" fill-rule="nonzero" fill-opacity="1" /><path clip-path="url(#clip150)" d="M1191.81 1548.76 L1191.81 1551.62 L1164.89 1551.62 Q1165.27 1557.67 1168.51 1560.85 Q1171.79 1564 1177.62 1564 Q1180.99 1564 1184.14 1563.17 Q1187.32 1562.35 1190.44 1560.69 L1190.44 1566.23 Q1187.29 1567.57 1183.98 1568.27 Q1180.67 1568.97 1177.27 1568.97 Q1168.74 1568.97 1163.74 1564 Q1158.77 1559.04 1158.77 1550.57 Q1158.77 1541.82 1163.48 1536.69 Q1168.23 1531.54 1176.25 1531.54 Q1183.44 1531.54 1187.61 1536.18 Q1191.81 1540.8 1191.81 1548.76 M1185.96 1547.04 Q1185.89 1542.23 1183.25 1539.37 Q1180.64 1536.5 1176.31 1536.5 Q1171.41 1536.5 1168.45 1539.27 Q1165.52 1542.04 1165.08 1547.07 L1185.96 1547.04 Z" fill="#000000" fill-rule="nonzero" fill-opacity="1" /><path clip-path="url(#clip150)" d="M1222.08 1537.87 Q1221.09 1537.3 1219.92 1537.04 Q1218.77 1536.76 1217.37 1536.76 Q1212.41 1536.76 1209.73 1540 Q1207.09 1543.22 1207.09 1549.27 L1207.09 1568.04 L1201.2 1568.04 L1201.2 1532.4 L1207.09 1532.4 L1207.09 1537.93 Q1208.94 1534.69 1211.9 1533.13 Q1214.86 1531.54 1219.09 1531.54 Q1219.69 1531.54 1220.43 1531.63 Q1221.16 1531.7 1222.05 1531.85 L1222.08 1537.87 Z" fill="#000000" fill-rule="nonzero" fill-opacity="1" /><path clip-path="url(#clip150)" d="M1250.54 1549.81 Q1250.54 1543.44 1247.89 1539.94 Q1245.28 1536.44 1240.54 1536.44 Q1235.83 1536.44 1233.19 1539.94 Q1230.58 1543.44 1230.58 1549.81 Q1230.58 1556.14 1233.19 1559.64 Q1235.83 1563.14 1240.54 1563.14 Q1245.28 1563.14 1247.89 1559.64 Q1250.54 1556.14 1250.54 1549.81 M1256.39 1563.62 Q1256.39 1572.72 1252.35 1577.15 Q1248.31 1581.6 1239.97 1581.6 Q1236.88 1581.6 1234.14 1581.13 Q1231.41 1580.68 1228.83 1579.72 L1228.83 1574.03 Q1231.41 1575.43 1233.92 1576.1 Q1236.44 1576.76 1239.05 1576.76 Q1244.81 1576.76 1247.67 1573.74 Q1250.54 1570.75 1250.54 1564.67 L1250.54 1561.77 Q1248.72 1564.92 1245.89 1566.48 Q1243.06 1568.04 1239.11 1568.04 Q1232.55 1568.04 1228.54 1563.05 Q1224.53 1558.05 1224.53 1549.81 Q1224.53 1541.53 1228.54 1536.53 Q1232.55 1531.54 1239.11 1531.54 Q1243.06 1531.54 1245.89 1533.1 Q1248.72 1534.66 1250.54 1537.81 L1250.54 1532.4 L1256.39 1532.4 L1256.39 1563.62 Z" fill="#000000" fill-rule="nonzero" fill-opacity="1" /><path clip-path="url(#clip150)" d="M1283.29 1571.35 Q1280.8 1577.72 1278.45 1579.66 Q1276.09 1581.6 1272.15 1581.6 L1267.47 1581.6 L1267.47 1576.7 L1270.91 1576.7 Q1273.33 1576.7 1274.66 1575.56 Q1276 1574.41 1277.62 1570.14 L1278.67 1567.47 L1264.25 1532.4 L1270.46 1532.4 L1281.6 1560.28 L1292.74 1532.4 L1298.95 1532.4 L1283.29 1571.35 Z" fill="#000000" fill-rule="nonzero" fill-opacity="1" /><path clip-path="url(#clip150)" d="M1341.82 1518.58 Q1337.56 1525.9 1335.49 1533.06 Q1333.42 1540.23 1333.42 1547.58 Q1333.42 1554.93 1335.49 1562.16 Q1337.59 1569.35 1341.82 1576.64 L1336.73 1576.64 Q1331.95 1569.16 1329.57 1561.93 Q1327.21 1554.71 1327.21 1547.58 Q1327.21 1540.48 1329.57 1533.29 Q1331.92 1526.09 1336.73 1518.58 L1341.82 1518.58 Z" fill="#000000" fill-rule="nonzero" fill-opacity="1" /><path clip-path="url(#clip150)" d="M1353.44 1520.52 L1363.02 1520.52 L1375.14 1552.86 L1387.33 1520.52 L1396.92 1520.52 L1396.92 1568.04 L1390.65 1568.04 L1390.65 1526.32 L1378.39 1558.91 L1371.93 1558.91 L1359.68 1526.32 L1359.68 1568.04 L1353.44 1568.04 L1353.44 1520.52 Z" fill="#000000" fill-rule="nonzero" fill-opacity="1" /><path clip-path="url(#clip150)" d="M1439.92 1548.76 L1439.92 1551.62 L1412.99 1551.62 Q1413.37 1557.67 1416.62 1560.85 Q1419.9 1564 1425.72 1564 Q1429.09 1564 1432.24 1563.17 Q1435.43 1562.35 1438.55 1560.69 L1438.55 1566.23 Q1435.4 1567.57 1432.09 1568.27 Q1428.78 1568.97 1425.37 1568.97 Q1416.84 1568.97 1411.84 1564 Q1406.88 1559.04 1406.88 1550.57 Q1406.88 1541.82 1411.59 1536.69 Q1416.33 1531.54 1424.35 1531.54 Q1431.54 1531.54 1435.71 1536.18 Q1439.92 1540.8 1439.92 1548.76 M1434.06 1547.04 Q1434 1542.23 1431.35 1539.37 Q1428.74 1536.5 1424.42 1536.5 Q1419.51 1536.5 1416.55 1539.27 Q1413.63 1542.04 1413.18 1547.07 L1434.06 1547.04 Z" fill="#000000" fill-rule="nonzero" fill-opacity="1" /><path clip-path="url(#clip150)" d="M1462.04 1568.04 L1443.89 1520.52 L1450.61 1520.52 L1465.66 1560.53 L1480.75 1520.52 L1487.44 1520.52 L1469.33 1568.04 L1462.04 1568.04 Z" fill="#000000" fill-rule="nonzero" fill-opacity="1" /><path clip-path="url(#clip150)" d="M1493.2 1518.58 L1498.29 1518.58 Q1503.06 1526.09 1505.42 1533.29 Q1507.81 1540.48 1507.81 1547.58 Q1507.81 1554.71 1505.42 1561.93 Q1503.06 1569.16 1498.29 1576.64 L1493.2 1576.64 Q1497.43 1569.35 1499.5 1562.16 Q1501.6 1554.93 1501.6 1547.58 Q1501.6 1540.23 1499.5 1533.06 Q1497.43 1525.9 1493.2 1518.58 Z" fill="#000000" fill-rule="nonzero" fill-opacity="1" /><polyline clip-path="url(#clip150)" style="stroke:#000000; stroke-linecap:round; stroke-linejoin:round; stroke-width:4; stroke-opacity:1; fill:none" points="234.125,1423.18 234.125,123.472 "/>
<polyline clip-path="url(#clip150)" style="stroke:#000000; stroke-linecap:round; stroke-linejoin:round; stroke-width:4; stroke-opacity:1; fill:none" points="234.125,1386.4 253.023,1386.4 "/>
<polyline clip-path="url(#clip150)" style="stroke:#000000; stroke-linecap:round; stroke-linejoin:round; stroke-width:4; stroke-opacity:1; fill:none" points="234.125,1173.52 253.023,1173.52 "/>
<polyline clip-path="url(#clip150)" style="stroke:#000000; stroke-linecap:round; stroke-linejoin:round; stroke-width:4; stroke-opacity:1; fill:none" points="234.125,960.653 253.023,960.653 "/>
<polyline clip-path="url(#clip150)" style="stroke:#000000; stroke-linecap:round; stroke-linejoin:round; stroke-width:4; stroke-opacity:1; fill:none" points="234.125,747.781 253.023,747.781 "/>
<polyline clip-path="url(#clip150)" style="stroke:#000000; stroke-linecap:round; stroke-linejoin:round; stroke-width:4; stroke-opacity:1; fill:none" points="234.125,534.91 253.023,534.91 "/>
<polyline clip-path="url(#clip150)" style="stroke:#000000; stroke-linecap:round; stroke-linejoin:round; stroke-width:4; stroke-opacity:1; fill:none" points="234.125,322.039 253.023,322.039 "/>
<path clip-path="url(#clip150)" d="M186.181 1372.19 Q182.57 1372.19 180.741 1375.76 Q178.936 1379.3 178.936 1386.43 Q178.936 1393.54 180.741 1397.1 Q182.57 1400.64 186.181 1400.64 Q189.815 1400.64 191.621 1397.1 Q193.45 1393.54 193.45 1386.43 Q193.45 1379.3 191.621 1375.76 Q189.815 1372.19 186.181 1372.19 M186.181 1368.49 Q191.991 1368.49 195.047 1373.1 Q198.125 1377.68 198.125 1386.43 Q198.125 1395.16 195.047 1399.76 Q191.991 1404.35 186.181 1404.35 Q180.371 1404.35 177.292 1399.76 Q174.237 1395.16 174.237 1386.43 Q174.237 1377.68 177.292 1373.1 Q180.371 1368.49 186.181 1368.49 Z" fill="#000000" fill-rule="nonzero" fill-opacity="1" /><path clip-path="url(#clip150)" d="M146.066 1156.24 L164.422 1156.24 L164.422 1160.18 L150.348 1160.18 L150.348 1168.65 Q151.366 1168.3 152.385 1168.14 Q153.403 1167.96 154.422 1167.96 Q160.209 1167.96 163.589 1171.13 Q166.968 1174.3 166.968 1179.72 Q166.968 1185.3 163.496 1188.4 Q160.024 1191.48 153.704 1191.48 Q151.528 1191.48 149.26 1191.11 Q147.015 1190.73 144.607 1189.99 L144.607 1185.3 Q146.691 1186.43 148.913 1186.98 Q151.135 1187.54 153.612 1187.54 Q157.616 1187.54 159.954 1185.43 Q162.292 1183.33 162.292 1179.72 Q162.292 1176.11 159.954 1174 Q157.616 1171.89 153.612 1171.89 Q151.737 1171.89 149.862 1172.31 Q148.01 1172.73 146.066 1173.61 L146.066 1156.24 Z" fill="#000000" fill-rule="nonzero" fill-opacity="1" /><path clip-path="url(#clip150)" d="M186.181 1159.32 Q182.57 1159.32 180.741 1162.89 Q178.936 1166.43 178.936 1173.56 Q178.936 1180.67 180.741 1184.23 Q182.57 1187.77 186.181 1187.77 Q189.815 1187.77 191.621 1184.23 Q193.45 1180.67 193.45 1173.56 Q193.45 1166.43 191.621 1162.89 Q189.815 1159.32 186.181 1159.32 M186.181 1155.62 Q191.991 1155.62 195.047 1160.23 Q198.125 1164.81 198.125 1173.56 Q198.125 1182.29 195.047 1186.89 Q191.991 1191.48 186.181 1191.48 Q180.371 1191.48 177.292 1186.89 Q174.237 1182.29 174.237 1173.56 Q174.237 1164.81 177.292 1160.23 Q180.371 1155.62 186.181 1155.62 Z" fill="#000000" fill-rule="nonzero" fill-opacity="1" /><path clip-path="url(#clip150)" d="M116.668 973.998 L124.306 973.998 L124.306 947.632 L115.996 949.299 L115.996 945.039 L124.26 943.373 L128.936 943.373 L128.936 973.998 L136.575 973.998 L136.575 977.933 L116.668 977.933 L116.668 973.998 Z" fill="#000000" fill-rule="nonzero" fill-opacity="1" /><path clip-path="url(#clip150)" d="M156.019 946.452 Q152.408 946.452 150.579 950.016 Q148.774 953.558 148.774 960.688 Q148.774 967.794 150.579 971.359 Q152.408 974.9 156.019 974.9 Q159.653 974.9 161.459 971.359 Q163.288 967.794 163.288 960.688 Q163.288 953.558 161.459 950.016 Q159.653 946.452 156.019 946.452 M156.019 942.748 Q161.829 942.748 164.885 947.354 Q167.964 951.938 167.964 960.688 Q167.964 969.414 164.885 974.021 Q161.829 978.604 156.019 978.604 Q150.209 978.604 147.13 974.021 Q144.075 969.414 144.075 960.688 Q144.075 951.938 147.13 947.354 Q150.209 942.748 156.019 942.748 Z" fill="#000000" fill-rule="nonzero" fill-opacity="1" /><path clip-path="url(#clip150)" d="M186.181 946.452 Q182.57 946.452 180.741 950.016 Q178.936 953.558 178.936 960.688 Q178.936 967.794 180.741 971.359 Q182.57 974.9 186.181 974.9 Q189.815 974.9 191.621 971.359 Q193.45 967.794 193.45 960.688 Q193.45 953.558 191.621 950.016 Q189.815 946.452 186.181 946.452 M186.181 942.748 Q191.991 942.748 195.047 947.354 Q198.125 951.938 198.125 960.688 Q198.125 969.414 195.047 974.021 Q191.991 978.604 186.181 978.604 Q180.371 978.604 177.292 974.021 Q174.237 969.414 174.237 960.688 Q174.237 951.938 177.292 947.354 Q180.371 942.748 186.181 942.748 Z" fill="#000000" fill-rule="nonzero" fill-opacity="1" /><path clip-path="url(#clip150)" d="M116.668 761.126 L124.306 761.126 L124.306 734.761 L115.996 736.427 L115.996 732.168 L124.26 730.501 L128.936 730.501 L128.936 761.126 L136.575 761.126 L136.575 765.061 L116.668 765.061 L116.668 761.126 Z" fill="#000000" fill-rule="nonzero" fill-opacity="1" /><path clip-path="url(#clip150)" d="M146.066 730.501 L164.422 730.501 L164.422 734.437 L150.348 734.437 L150.348 742.909 Q151.366 742.562 152.385 742.399 Q153.403 742.214 154.422 742.214 Q160.209 742.214 163.589 745.386 Q166.968 748.557 166.968 753.974 Q166.968 759.552 163.496 762.654 Q160.024 765.733 153.704 765.733 Q151.528 765.733 149.26 765.362 Q147.015 764.992 144.607 764.251 L144.607 759.552 Q146.691 760.686 148.913 761.242 Q151.135 761.798 153.612 761.798 Q157.616 761.798 159.954 759.691 Q162.292 757.585 162.292 753.974 Q162.292 750.362 159.954 748.256 Q157.616 746.149 153.612 746.149 Q151.737 746.149 149.862 746.566 Q148.01 746.983 146.066 747.862 L146.066 730.501 Z" fill="#000000" fill-rule="nonzero" fill-opacity="1" /><path clip-path="url(#clip150)" d="M186.181 733.58 Q182.57 733.58 180.741 737.145 Q178.936 740.687 178.936 747.816 Q178.936 754.923 180.741 758.487 Q182.57 762.029 186.181 762.029 Q189.815 762.029 191.621 758.487 Q193.45 754.923 193.45 747.816 Q193.45 740.687 191.621 737.145 Q189.815 733.58 186.181 733.58 M186.181 729.876 Q191.991 729.876 195.047 734.483 Q198.125 739.066 198.125 747.816 Q198.125 756.543 195.047 761.149 Q191.991 765.733 186.181 765.733 Q180.371 765.733 177.292 761.149 Q174.237 756.543 174.237 747.816 Q174.237 739.066 177.292 734.483 Q180.371 729.876 186.181 729.876 Z" fill="#000000" fill-rule="nonzero" fill-opacity="1" /><path clip-path="url(#clip150)" d="M119.885 548.255 L136.204 548.255 L136.204 552.19 L114.26 552.19 L114.26 548.255 Q116.922 545.5 121.505 540.871 Q126.112 536.218 127.292 534.875 Q129.538 532.352 130.417 530.616 Q131.32 528.857 131.32 527.167 Q131.32 524.412 129.376 522.676 Q127.455 520.94 124.353 520.94 Q122.154 520.94 119.7 521.704 Q117.269 522.468 114.492 524.019 L114.492 519.297 Q117.316 518.162 119.769 517.584 Q122.223 517.005 124.26 517.005 Q129.63 517.005 132.825 519.69 Q136.019 522.375 136.019 526.866 Q136.019 528.996 135.209 530.917 Q134.422 532.815 132.316 535.408 Q131.737 536.079 128.635 539.297 Q125.533 542.491 119.885 548.255 Z" fill="#000000" fill-rule="nonzero" fill-opacity="1" /><path clip-path="url(#clip150)" d="M156.019 520.709 Q152.408 520.709 150.579 524.273 Q148.774 527.815 148.774 534.945 Q148.774 542.051 150.579 545.616 Q152.408 549.158 156.019 549.158 Q159.653 549.158 161.459 545.616 Q163.288 542.051 163.288 534.945 Q163.288 527.815 161.459 524.273 Q159.653 520.709 156.019 520.709 M156.019 517.005 Q161.829 517.005 164.885 521.611 Q167.964 526.195 167.964 534.945 Q167.964 543.672 164.885 548.278 Q161.829 552.861 156.019 552.861 Q150.209 552.861 147.13 548.278 Q144.075 543.672 144.075 534.945 Q144.075 526.195 147.13 521.611 Q150.209 517.005 156.019 517.005 Z" fill="#000000" fill-rule="nonzero" fill-opacity="1" /><path clip-path="url(#clip150)" d="M186.181 520.709 Q182.57 520.709 180.741 524.273 Q178.936 527.815 178.936 534.945 Q178.936 542.051 180.741 545.616 Q182.57 549.158 186.181 549.158 Q189.815 549.158 191.621 545.616 Q193.45 542.051 193.45 534.945 Q193.45 527.815 191.621 524.273 Q189.815 520.709 186.181 520.709 M186.181 517.005 Q191.991 517.005 195.047 521.611 Q198.125 526.195 198.125 534.945 Q198.125 543.672 195.047 548.278 Q191.991 552.861 186.181 552.861 Q180.371 552.861 177.292 548.278 Q174.237 543.672 174.237 534.945 Q174.237 526.195 177.292 521.611 Q180.371 517.005 186.181 517.005 Z" fill="#000000" fill-rule="nonzero" fill-opacity="1" /><path clip-path="url(#clip150)" d="M119.885 335.383 L136.204 335.383 L136.204 339.319 L114.26 339.319 L114.26 335.383 Q116.922 332.629 121.505 327.999 Q126.112 323.346 127.292 322.004 Q129.538 319.481 130.417 317.745 Q131.32 315.985 131.32 314.296 Q131.32 311.541 129.376 309.805 Q127.455 308.069 124.353 308.069 Q122.154 308.069 119.7 308.833 Q117.269 309.597 114.492 311.147 L114.492 306.425 Q117.316 305.291 119.769 304.712 Q122.223 304.134 124.26 304.134 Q129.63 304.134 132.825 306.819 Q136.019 309.504 136.019 313.995 Q136.019 316.124 135.209 318.046 Q134.422 319.944 132.316 322.536 Q131.737 323.208 128.635 326.425 Q125.533 329.62 119.885 335.383 Z" fill="#000000" fill-rule="nonzero" fill-opacity="1" /><path clip-path="url(#clip150)" d="M146.066 304.759 L164.422 304.759 L164.422 308.694 L150.348 308.694 L150.348 317.166 Q151.366 316.819 152.385 316.657 Q153.403 316.471 154.422 316.471 Q160.209 316.471 163.589 319.643 Q166.968 322.814 166.968 328.231 Q166.968 333.809 163.496 336.911 Q160.024 339.99 153.704 339.99 Q151.528 339.99 149.26 339.62 Q147.015 339.249 144.607 338.508 L144.607 333.809 Q146.691 334.944 148.913 335.499 Q151.135 336.055 153.612 336.055 Q157.616 336.055 159.954 333.948 Q162.292 331.842 162.292 328.231 Q162.292 324.62 159.954 322.513 Q157.616 320.407 153.612 320.407 Q151.737 320.407 149.862 320.823 Q148.01 321.24 146.066 322.12 L146.066 304.759 Z" fill="#000000" fill-rule="nonzero" fill-opacity="1" /><path clip-path="url(#clip150)" d="M186.181 307.837 Q182.57 307.837 180.741 311.402 Q178.936 314.944 178.936 322.073 Q178.936 329.18 180.741 332.745 Q182.57 336.286 186.181 336.286 Q189.815 336.286 191.621 332.745 Q193.45 329.18 193.45 322.073 Q193.45 314.944 191.621 311.402 Q189.815 307.837 186.181 307.837 M186.181 304.134 Q191.991 304.134 195.047 308.74 Q198.125 313.323 198.125 322.073 Q198.125 330.8 195.047 335.407 Q191.991 339.99 186.181 339.99 Q180.371 339.99 177.292 335.407 Q174.237 330.8 174.237 322.073 Q174.237 313.323 177.292 308.74 Q180.371 304.134 186.181 304.134 Z" fill="#000000" fill-rule="nonzero" fill-opacity="1" /><path clip-path="url(#clip150)" d="M20.1444 845.354 L26.9239 845.354 Q23.9002 848.6 22.4043 852.293 Q20.9083 855.953 20.9083 860.091 Q20.9083 868.239 25.9054 872.567 Q30.8707 876.896 40.2919 876.896 Q49.6813 876.896 54.6784 872.567 Q59.6436 868.239 59.6436 860.091 Q59.6436 855.953 58.1477 852.293 Q56.6518 848.6 53.6281 845.354 L60.3439 845.354 Q62.6355 848.728 63.7814 852.515 Q64.9272 856.271 64.9272 860.473 Q64.9272 871.262 58.3387 877.469 Q51.7183 883.676 40.2919 883.676 Q28.8336 883.676 22.2451 877.469 Q15.6248 871.262 15.6248 860.473 Q15.6248 856.207 16.7706 852.452 Q17.8846 848.664 20.1444 845.354 Z" fill="#000000" fill-rule="nonzero" fill-opacity="1" /><path clip-path="url(#clip150)" d="M32.4621 821.864 Q32.4621 826.575 36.1542 829.312 Q39.8145 832.05 46.212 832.05 Q52.6095 832.05 56.3017 829.344 Q59.9619 826.607 59.9619 821.864 Q59.9619 817.186 56.2698 814.448 Q52.5777 811.711 46.212 811.711 Q39.8781 811.711 36.186 814.448 Q32.4621 817.186 32.4621 821.864 M27.4968 821.864 Q27.4968 814.226 32.4621 809.865 Q37.4273 805.505 46.212 805.505 Q54.9649 805.505 59.9619 809.865 Q64.9272 814.226 64.9272 821.864 Q64.9272 829.535 59.9619 833.896 Q54.9649 838.224 46.212 838.224 Q37.4273 838.224 32.4621 833.896 Q27.4968 829.535 27.4968 821.864 Z" fill="#000000" fill-rule="nonzero" fill-opacity="1" /><path clip-path="url(#clip150)" d="M49.9359 796.402 L28.3562 796.402 L28.3562 790.545 L49.7131 790.545 Q54.7739 790.545 57.3202 788.572 Q59.8346 786.598 59.8346 782.652 Q59.8346 777.909 56.8109 775.172 Q53.7872 772.403 48.5673 772.403 L28.3562 772.403 L28.3562 766.547 L64.0042 766.547 L64.0042 772.403 L58.5296 772.403 Q61.7762 774.535 63.3676 777.368 Q64.9272 780.169 64.9272 783.893 Q64.9272 790.036 61.1078 793.219 Q57.2883 796.402 49.9359 796.402 M27.4968 781.665 L27.4968 781.665 Z" fill="#000000" fill-rule="nonzero" fill-opacity="1" /><path clip-path="url(#clip150)" d="M42.4881 724.851 L64.0042 724.851 L64.0042 730.708 L42.679 730.708 Q37.6183 730.708 35.1038 732.681 Q32.5894 734.654 32.5894 738.601 Q32.5894 743.344 35.6131 746.081 Q38.6368 748.818 43.8567 748.818 L64.0042 748.818 L64.0042 754.706 L28.3562 754.706 L28.3562 748.818 L33.8944 748.818 Q30.6797 746.717 29.0883 743.885 Q27.4968 741.02 27.4968 737.296 Q27.4968 731.153 31.3163 728.002 Q35.1038 724.851 42.4881 724.851 Z" fill="#000000" fill-rule="nonzero" fill-opacity="1" /><path clip-path="url(#clip150)" d="M18.2347 707.377 L28.3562 707.377 L28.3562 695.314 L32.9077 695.314 L32.9077 707.377 L52.2594 707.377 Q56.6199 707.377 57.8613 706.2 Q59.1026 704.99 59.1026 701.33 L59.1026 695.314 L64.0042 695.314 L64.0042 701.33 Q64.0042 708.109 61.4897 710.687 Q58.9434 713.266 52.2594 713.266 L32.9077 713.266 L32.9077 717.562 L28.3562 717.562 L28.3562 713.266 L18.2347 713.266 L18.2347 707.377 Z" fill="#000000" fill-rule="nonzero" fill-opacity="1" /><path clip-path="url(#clip150)" d="M29.4065 664.886 L34.9447 664.886 Q33.6716 667.369 33.035 670.042 Q32.3984 672.716 32.3984 675.581 Q32.3984 679.941 33.7352 682.137 Q35.072 684.302 37.7456 684.302 Q39.7826 684.302 40.9603 682.742 Q42.1061 681.182 43.1565 676.472 L43.6021 674.467 Q44.9389 668.228 47.3897 665.618 Q49.8086 662.976 54.1691 662.976 Q59.1344 662.976 62.0308 666.923 Q64.9272 670.838 64.9272 677.713 Q64.9272 680.578 64.3543 683.697 Q63.8132 686.784 62.6992 690.222 L56.6518 690.222 Q58.3387 686.975 59.198 683.824 Q60.0256 680.673 60.0256 677.586 Q60.0256 673.448 58.6251 671.22 Q57.1929 668.992 54.6147 668.992 Q52.2276 668.992 50.9545 670.615 Q49.6813 672.207 48.5037 677.649 L48.0262 679.686 Q46.8804 685.129 44.5251 687.548 Q42.138 689.967 38.0002 689.967 Q32.9713 689.967 30.2341 686.402 Q27.4968 682.837 27.4968 676.281 Q27.4968 673.034 27.9743 670.17 Q28.4517 667.305 29.4065 664.886 Z" fill="#000000" fill-rule="nonzero" fill-opacity="1" /><path clip-path="url(#clip150)" d="M887.621 18.8205 L887.621 41.5461 L897.91 41.5461 Q903.622 41.5461 906.741 38.5889 Q909.861 35.6318 909.861 30.163 Q909.861 24.7348 906.741 21.7777 Q903.622 18.8205 897.91 18.8205 L887.621 18.8205 M879.438 12.096 L897.91 12.096 Q908.078 12.096 913.263 16.714 Q918.489 21.2916 918.489 30.163 Q918.489 39.1155 913.263 43.6931 Q908.078 48.2706 897.91 48.2706 L887.621 48.2706 L887.621 72.576 L879.438 72.576 L879.438 12.096 Z" fill="#000000" fill-rule="nonzero" fill-opacity="1" /><path clip-path="url(#clip150)" d="M946.035 49.7694 Q937.002 49.7694 933.518 51.8354 Q930.034 53.9013 930.034 58.8839 Q930.034 62.8538 932.627 65.2034 Q935.26 67.5124 939.756 67.5124 Q945.954 67.5124 949.681 63.1374 Q953.448 58.7219 953.448 51.4303 L953.448 49.7694 L946.035 49.7694 M960.902 46.6907 L960.902 72.576 L953.448 72.576 L953.448 65.6895 Q950.896 69.8214 947.088 71.8063 Q943.281 73.7508 937.771 73.7508 Q930.804 73.7508 926.672 69.8619 Q922.58 65.9325 922.58 59.3701 Q922.58 51.7138 927.685 47.825 Q932.829 43.9361 942.997 43.9361 L953.448 43.9361 L953.448 43.2069 Q953.448 38.0623 950.046 35.2672 Q946.683 32.4315 940.566 32.4315 Q936.678 32.4315 932.991 33.3632 Q929.305 34.295 925.902 36.1584 L925.902 29.2718 Q929.994 27.692 933.842 26.9223 Q937.69 26.1121 941.336 26.1121 Q951.18 26.1121 956.041 31.2163 Q960.902 36.3204 960.902 46.6907 Z" fill="#000000" fill-rule="nonzero" fill-opacity="1" /><path clip-path="url(#clip150)" d="M1002.55 34.1734 Q1001.29 33.4443 999.791 33.1202 Q998.332 32.7556 996.55 32.7556 Q990.23 32.7556 986.828 36.8875 Q983.465 40.9789 983.465 48.6757 L983.465 72.576 L975.971 72.576 L975.971 27.2059 L983.465 27.2059 L983.465 34.2544 Q985.815 30.1225 989.582 28.1376 Q993.35 26.1121 998.737 26.1121 Q999.507 26.1121 1000.44 26.2337 Q1001.37 26.3147 1002.5 26.5172 L1002.55 34.1734 Z" fill="#000000" fill-rule="nonzero" fill-opacity="1" /><path clip-path="url(#clip150)" d="M1017.74 14.324 L1017.74 27.2059 L1033.09 27.2059 L1033.09 32.9987 L1017.74 32.9987 L1017.74 57.6282 Q1017.74 63.1779 1019.23 64.7578 Q1020.77 66.3376 1025.43 66.3376 L1033.09 66.3376 L1033.09 72.576 L1025.43 72.576 Q1016.8 72.576 1013.52 69.3758 Q1010.24 66.1351 1010.24 57.6282 L1010.24 32.9987 L1004.77 32.9987 L1004.77 27.2059 L1010.24 27.2059 L1010.24 14.324 L1017.74 14.324 Z" fill="#000000" fill-rule="nonzero" fill-opacity="1" /><path clip-path="url(#clip150)" d="M1042.89 27.2059 L1050.35 27.2059 L1050.35 72.576 L1042.89 72.576 L1042.89 27.2059 M1042.89 9.54393 L1050.35 9.54393 L1050.35 18.9825 L1042.89 18.9825 L1042.89 9.54393 Z" fill="#000000" fill-rule="nonzero" fill-opacity="1" /><path clip-path="url(#clip150)" d="M1098.59 28.9478 L1098.59 35.9153 Q1095.43 34.1734 1092.23 33.3227 Q1089.07 32.4315 1085.83 32.4315 Q1078.58 32.4315 1074.57 37.0496 Q1070.56 41.6271 1070.56 49.9314 Q1070.56 58.2358 1074.57 62.8538 Q1078.58 67.4314 1085.83 67.4314 Q1089.07 67.4314 1092.23 66.5807 Q1095.43 65.6895 1098.59 63.9476 L1098.59 70.8341 Q1095.47 72.2924 1092.11 73.0216 Q1088.79 73.7508 1085.02 73.7508 Q1074.77 73.7508 1068.74 67.3098 Q1062.7 60.8689 1062.7 49.9314 Q1062.7 38.832 1068.78 32.472 Q1074.89 26.1121 1085.51 26.1121 Q1088.95 26.1121 1092.23 26.8413 Q1095.51 27.5299 1098.59 28.9478 Z" fill="#000000" fill-rule="nonzero" fill-opacity="1" /><path clip-path="url(#clip150)" d="M1111.56 9.54393 L1119.01 9.54393 L1119.01 72.576 L1111.56 72.576 L1111.56 9.54393 Z" fill="#000000" fill-rule="nonzero" fill-opacity="1" /><path clip-path="url(#clip150)" d="M1173.41 48.0275 L1173.41 51.6733 L1139.14 51.6733 Q1139.63 59.3701 1143.76 63.421 Q1147.93 67.4314 1155.35 67.4314 Q1159.64 67.4314 1163.65 66.3781 Q1167.7 65.3249 1171.67 63.2184 L1171.67 70.267 Q1167.66 71.9684 1163.45 72.8596 Q1159.23 73.7508 1154.9 73.7508 Q1144.04 73.7508 1137.68 67.4314 Q1131.36 61.1119 1131.36 50.3365 Q1131.36 39.1965 1137.36 32.6746 Q1143.4 26.1121 1153.6 26.1121 Q1162.76 26.1121 1168.07 32.0264 Q1173.41 37.9003 1173.41 48.0275 M1165.96 45.84 Q1165.88 39.7232 1162.52 36.0774 Q1159.19 32.4315 1153.68 32.4315 Q1147.45 32.4315 1143.68 35.9558 Q1139.95 39.4801 1139.38 45.8805 L1165.96 45.84 Z" fill="#000000" fill-rule="nonzero" fill-opacity="1" /><path clip-path="url(#clip150)" d="M1214.57 28.5427 L1214.57 35.5912 Q1211.41 33.9709 1208.01 33.1607 Q1204.6 32.3505 1200.96 32.3505 Q1195.41 32.3505 1192.61 34.0519 Q1189.86 35.7533 1189.86 39.156 Q1189.86 41.7486 1191.84 43.2475 Q1193.83 44.7058 1199.82 46.0426 L1202.38 46.6097 Q1210.32 48.3111 1213.64 51.4303 Q1217 54.509 1217 60.0587 Q1217 66.3781 1211.98 70.0644 Q1206.99 73.7508 1198.24 73.7508 Q1194.6 73.7508 1190.63 73.0216 Q1186.7 72.3329 1182.32 70.9151 L1182.32 63.2184 Q1186.46 65.3654 1190.47 66.4591 Q1194.48 67.5124 1198.41 67.5124 Q1203.67 67.5124 1206.51 65.73 Q1209.34 63.9071 1209.34 60.6258 Q1209.34 57.5877 1207.28 55.9673 Q1205.25 54.3469 1198.33 52.8481 L1195.73 52.2405 Q1188.81 50.7821 1185.73 47.7845 Q1182.65 44.7463 1182.65 39.4801 Q1182.65 33.0797 1187.19 29.5959 Q1191.72 26.1121 1200.07 26.1121 Q1204.2 26.1121 1207.85 26.7198 Q1211.49 27.3274 1214.57 28.5427 Z" fill="#000000" fill-rule="nonzero" fill-opacity="1" /><path clip-path="url(#clip150)" d="M1275.86 49.7694 Q1266.83 49.7694 1263.34 51.8354 Q1259.86 53.9013 1259.86 58.8839 Q1259.86 62.8538 1262.45 65.2034 Q1265.08 67.5124 1269.58 67.5124 Q1275.78 67.5124 1279.51 63.1374 Q1283.27 58.7219 1283.27 51.4303 L1283.27 49.7694 L1275.86 49.7694 M1290.73 46.6907 L1290.73 72.576 L1283.27 72.576 L1283.27 65.6895 Q1280.72 69.8214 1276.91 71.8063 Q1273.11 73.7508 1267.6 73.7508 Q1260.63 73.7508 1256.5 69.8619 Q1252.41 65.9325 1252.41 59.3701 Q1252.41 51.7138 1257.51 47.825 Q1262.65 43.9361 1272.82 43.9361 L1283.27 43.9361 L1283.27 43.2069 Q1283.27 38.0623 1279.87 35.2672 Q1276.51 32.4315 1270.39 32.4315 Q1266.5 32.4315 1262.82 33.3632 Q1259.13 34.295 1255.73 36.1584 L1255.73 29.2718 Q1259.82 27.692 1263.67 26.9223 Q1267.51 26.1121 1271.16 26.1121 Q1281 26.1121 1285.87 31.2163 Q1290.73 36.3204 1290.73 46.6907 Z" fill="#000000" fill-rule="nonzero" fill-opacity="1" /><path clip-path="url(#clip150)" d="M1313.45 14.324 L1313.45 27.2059 L1328.81 27.2059 L1328.81 32.9987 L1313.45 32.9987 L1313.45 57.6282 Q1313.45 63.1779 1314.95 64.7578 Q1316.49 66.3376 1321.15 66.3376 L1328.81 66.3376 L1328.81 72.576 L1321.15 72.576 Q1312.52 72.576 1309.24 69.3758 Q1305.96 66.1351 1305.96 57.6282 L1305.96 32.9987 L1300.49 32.9987 L1300.49 27.2059 L1305.96 27.2059 L1305.96 14.324 L1313.45 14.324 Z" fill="#000000" fill-rule="nonzero" fill-opacity="1" /><path clip-path="url(#clip150)" d="M1394.83 34.0924 L1394.83 9.54393 L1402.29 9.54393 L1402.29 72.576 L1394.83 72.576 L1394.83 65.7705 Q1392.49 69.8214 1388.88 71.8063 Q1385.32 73.7508 1380.29 73.7508 Q1372.07 73.7508 1366.88 67.1883 Q1361.74 60.6258 1361.74 49.9314 Q1361.74 39.2371 1366.88 32.6746 Q1372.07 26.1121 1380.29 26.1121 Q1385.32 26.1121 1388.88 28.0971 Q1392.49 30.0415 1394.83 34.0924 M1369.44 49.9314 Q1369.44 58.1548 1372.8 62.8538 Q1376.2 67.5124 1382.11 67.5124 Q1388.03 67.5124 1391.43 62.8538 Q1394.83 58.1548 1394.83 49.9314 Q1394.83 41.7081 1391.43 37.0496 Q1388.03 32.3505 1382.11 32.3505 Q1376.2 32.3505 1372.8 37.0496 Q1369.44 41.7081 1369.44 49.9314 Z" fill="#000000" fill-rule="nonzero" fill-opacity="1" /><path clip-path="url(#clip150)" d="M1456.45 48.0275 L1456.45 51.6733 L1422.18 51.6733 Q1422.66 59.3701 1426.8 63.421 Q1430.97 67.4314 1438.38 67.4314 Q1442.68 67.4314 1446.69 66.3781 Q1450.74 65.3249 1454.71 63.2184 L1454.71 70.267 Q1450.7 71.9684 1446.48 72.8596 Q1442.27 73.7508 1437.94 73.7508 Q1427.08 73.7508 1420.72 67.4314 Q1414.4 61.1119 1414.4 50.3365 Q1414.4 39.1965 1420.4 32.6746 Q1426.43 26.1121 1436.64 26.1121 Q1445.8 26.1121 1451.1 32.0264 Q1456.45 37.9003 1456.45 48.0275 M1449 45.84 Q1448.91 39.7232 1445.55 36.0774 Q1442.23 32.4315 1436.72 32.4315 Q1430.48 32.4315 1426.72 35.9558 Q1422.99 39.4801 1422.42 45.8805 L1449 45.84 Z" fill="#000000" fill-rule="nonzero" fill-opacity="1" /><path clip-path="url(#clip150)" d="M1476.06 14.324 L1476.06 27.2059 L1491.41 27.2059 L1491.41 32.9987 L1476.06 32.9987 L1476.06 57.6282 Q1476.06 63.1779 1477.55 64.7578 Q1479.09 66.3376 1483.75 66.3376 L1491.41 66.3376 L1491.41 72.576 L1483.75 72.576 Q1475.12 72.576 1471.84 69.3758 Q1468.56 66.1351 1468.56 57.6282 L1468.56 32.9987 L1463.09 32.9987 L1463.09 27.2059 L1468.56 27.2059 L1468.56 14.324 L1476.06 14.324 Z" fill="#000000" fill-rule="nonzero" fill-opacity="1" /><path clip-path="url(#clip150)" d="M1540.02 48.0275 L1540.02 51.6733 L1505.75 51.6733 Q1506.23 59.3701 1510.37 63.421 Q1514.54 67.4314 1521.95 67.4314 Q1526.25 67.4314 1530.26 66.3781 Q1534.31 65.3249 1538.28 63.2184 L1538.28 70.267 Q1534.27 71.9684 1530.05 72.8596 Q1525.84 73.7508 1521.51 73.7508 Q1510.65 73.7508 1504.29 67.4314 Q1497.97 61.1119 1497.97 50.3365 Q1497.97 39.1965 1503.97 32.6746 Q1510 26.1121 1520.21 26.1121 Q1529.37 26.1121 1534.67 32.0264 Q1540.02 37.9003 1540.02 48.0275 M1532.57 45.84 Q1532.48 39.7232 1529.12 36.0774 Q1525.8 32.4315 1520.29 32.4315 Q1514.05 32.4315 1510.29 35.9558 Q1506.56 39.4801 1505.99 45.8805 L1532.57 45.84 Z" fill="#000000" fill-rule="nonzero" fill-opacity="1" /><path clip-path="url(#clip150)" d="M1584.9 28.9478 L1584.9 35.9153 Q1581.74 34.1734 1578.54 33.3227 Q1575.38 32.4315 1572.14 32.4315 Q1564.89 32.4315 1560.88 37.0496 Q1556.87 41.6271 1556.87 49.9314 Q1556.87 58.2358 1560.88 62.8538 Q1564.89 67.4314 1572.14 67.4314 Q1575.38 67.4314 1578.54 66.5807 Q1581.74 65.6895 1584.9 63.9476 L1584.9 70.8341 Q1581.78 72.2924 1578.42 73.0216 Q1575.1 73.7508 1571.33 73.7508 Q1561.08 73.7508 1555.05 67.3098 Q1549.01 60.8689 1549.01 49.9314 Q1549.01 38.832 1555.09 32.472 Q1561.21 26.1121 1571.82 26.1121 Q1575.26 26.1121 1578.54 26.8413 Q1581.82 27.5299 1584.9 28.9478 Z" fill="#000000" fill-rule="nonzero" fill-opacity="1" /><path clip-path="url(#clip150)" d="M1605.24 14.324 L1605.24 27.2059 L1620.59 27.2059 L1620.59 32.9987 L1605.24 32.9987 L1605.24 57.6282 Q1605.24 63.1779 1606.74 64.7578 Q1608.28 66.3376 1612.94 66.3376 L1620.59 66.3376 L1620.59 72.576 L1612.94 72.576 Q1604.31 72.576 1601.03 69.3758 Q1597.74 66.1351 1597.74 57.6282 L1597.74 32.9987 L1592.28 32.9987 L1592.28 27.2059 L1597.74 27.2059 L1597.74 14.324 L1605.24 14.324 Z" fill="#000000" fill-rule="nonzero" fill-opacity="1" /><path clip-path="url(#clip150)" d="M1647.98 32.4315 Q1641.98 32.4315 1638.5 37.1306 Q1635.01 41.7891 1635.01 49.9314 Q1635.01 58.0738 1638.46 62.7728 Q1641.94 67.4314 1647.98 67.4314 Q1653.93 67.4314 1657.41 62.7323 Q1660.9 58.0333 1660.9 49.9314 Q1660.9 41.8701 1657.41 37.1711 Q1653.93 32.4315 1647.98 32.4315 M1647.98 26.1121 Q1657.7 26.1121 1663.25 32.4315 Q1668.8 38.7509 1668.8 49.9314 Q1668.8 61.0714 1663.25 67.4314 Q1657.7 73.7508 1647.98 73.7508 Q1638.21 73.7508 1632.66 67.4314 Q1627.15 61.0714 1627.15 49.9314 Q1627.15 38.7509 1632.66 32.4315 Q1638.21 26.1121 1647.98 26.1121 Z" fill="#000000" fill-rule="nonzero" fill-opacity="1" /><path clip-path="url(#clip150)" d="M1707.44 34.1734 Q1706.19 33.4443 1704.69 33.1202 Q1703.23 32.7556 1701.45 32.7556 Q1695.13 32.7556 1691.73 36.8875 Q1688.36 40.9789 1688.36 48.6757 L1688.36 72.576 L1680.87 72.576 L1680.87 27.2059 L1688.36 27.2059 L1688.36 34.2544 Q1690.71 30.1225 1694.48 28.1376 Q1698.25 26.1121 1703.64 26.1121 Q1704.4 26.1121 1705.34 26.2337 Q1706.27 26.3147 1707.4 26.5172 L1707.44 34.1734 Z" fill="#000000" fill-rule="nonzero" fill-opacity="1" /><polyline clip-path="url(#clip152)" style="stroke:#000000; stroke-linecap:round; stroke-linejoin:round; stroke-width:4; stroke-opacity:1; fill:none" points="294.087,1386.4 294.087,1369.37 302.114,1369.37 310.141,1369.37 310.141,1373.62 318.168,1373.62 318.168,1365.11 326.194,1365.11 326.194,1356.59 334.221,1356.59 334.221,1352.34 342.248,1352.34 342.248,1322.53 350.275,1322.53 350.275,1356.59 358.302,1356.59 358.302,1360.85 366.329,1360.85 366.329,1331.05 374.356,1331.05 374.356,1377.88 382.383,1377.88 382.383,1369.37 390.41,1369.37 390.41,1343.82 398.437,1343.82 398.437,1352.34 406.464,1352.34 406.464,1356.59 414.491,1356.59 414.491,1360.85 422.518,1360.85 422.518,1352.34 430.545,1352.34 430.545,1343.82 438.572,1343.82 438.572,1356.59 446.599,1356.59 446.599,1343.82 454.625,1343.82 454.625,1356.59 462.652,1356.59 462.652,1343.82 470.679,1343.82 470.679,1322.53 478.706,1322.53 478.706,1331.05 486.733,1331.05 486.733,1343.82 494.76,1343.82 494.76,1326.79 502.787,1326.79 510.814,1326.79 510.814,1339.56 518.841,1339.56 518.841,1301.25 526.868,1301.25 526.868,1348.08 534.895,1348.08 534.895,1331.05 542.922,1331.05 550.949,1331.05 550.949,1314.02 558.976,1314.02 558.976,1301.25 567.003,1301.25 567.003,1335.31 575.03,1335.31 575.03,1331.05 583.057,1331.05 583.057,1335.31 591.083,1335.31 591.083,1292.73 599.11,1292.73 607.137,1292.73 607.137,1335.31 615.164,1335.31 615.164,1288.47 623.191,1288.47 623.191,1314.02 631.218,1314.02 631.218,1360.85 639.245,1360.85 639.245,1339.56 647.272,1339.56 647.272,1314.02 655.299,1314.02 655.299,1305.5 663.326,1305.5 663.326,1296.99 671.353,1296.99 671.353,1335.31 679.38,1335.31 679.38,1331.05 687.407,1331.05 687.407,1305.5 695.434,1305.5 695.434,1343.82 703.461,1343.82 703.461,1326.79 711.488,1326.79 711.488,1318.28 719.514,1318.28 719.514,1335.31 727.541,1335.31 727.541,1339.56 735.568,1339.56 743.595,1339.56 743.595,1343.82 751.622,1343.82 751.622,1335.31 759.649,1335.31 767.676,1335.31 767.676,1322.53 775.703,1322.53 775.703,1301.25 783.73,1301.25 783.73,1335.31 791.757,1335.31 791.757,1314.02 799.784,1314.02 799.784,1356.59 807.811,1356.59 807.811,1335.31 815.838,1335.31 815.838,1348.08 823.865,1348.08 823.865,1352.34 831.892,1352.34 831.892,1356.59 839.919,1356.59 839.919,1322.53 847.946,1322.53 847.946,1356.59 855.972,1356.59 855.972,1348.08 863.999,1348.08 863.999,1360.85 872.026,1360.85 872.026,1365.11 880.053,1365.11 880.053,1360.85 888.08,1360.85 888.08,1365.11 896.107,1365.11 896.107,1377.88 904.134,1377.88 904.134,1369.37 912.161,1369.37 912.161,1382.14 920.188,1382.14 920.188,1386.4 928.215,1386.4 936.242,1386.4 944.269,1386.4 952.296,1386.4 960.323,1386.4 968.35,1386.4 976.377,1386.4 984.403,1386.4 992.43,1386.4 1000.46,1386.4 1008.48,1386.4 1016.51,1386.4 1024.54,1386.4 1032.57,1386.4 1040.59,1386.4 1048.62,1386.4 1056.65,1386.4 1064.67,1386.4 1072.7,1386.4 1080.73,1386.4 1088.75,1386.4 1096.78,1386.4 1104.81,1386.4 1112.83,1386.4 1120.86,1386.4 1128.89,1386.4 1136.92,1386.4 1144.94,1386.4 1152.97,1386.4 1161,1386.4 1169.02,1386.4 1177.05,1386.4 1185.08,1386.4 1193.1,1386.4 1201.13,1386.4 1209.16,1386.4 1217.18,1386.4 1225.21,1386.4 1233.24,1386.4 1241.27,1386.4 1249.29,1386.4 1257.32,1386.4 1265.35,1386.4 1273.37,1386.4 1281.4,1386.4 1289.43,1386.4 1297.45,1386.4 1305.48,1386.4 1313.51,1386.4 1321.53,1386.4 1329.56,1386.4 1337.59,1386.4 1345.62,1386.4 1353.64,1386.4 1361.67,1386.4 1369.7,1386.4 1377.72,1386.4 1385.75,1386.4 1393.78,1386.4 1401.8,1386.4 1409.83,1386.4 1417.86,1386.4 1425.89,1386.4 1433.91,1386.4 1441.94,1386.4 1449.97,1386.4 1457.99,1386.4 1466.02,1386.4 1474.05,1386.4 1482.07,1386.4 1490.1,1386.4 1498.13,1386.4 1506.15,1386.4 1514.18,1386.4 1522.21,1386.4 1530.24,1386.4 1538.26,1386.4 1546.29,1386.4 1554.32,1386.4 1562.34,1386.4 1570.37,1386.4 1578.4,1386.4 1586.42,1386.4 1594.45,1386.4 1602.48,1386.4 1610.5,1386.4 1618.53,1386.4 1626.56,1386.4 1634.59,1386.4 1642.61,1386.4 1650.64,1386.4 1658.67,1386.4 1666.69,1386.4 1674.72,1386.4 1682.75,1386.4 1690.77,1386.4 1698.8,1386.4 1706.83,1386.4 1714.86,1386.4 1722.88,1386.4 1730.91,1386.4 1738.94,1386.4 1746.96,1386.4 1754.99,1386.4 1763.02,1386.4 1771.04,1386.4 1779.07,1386.4 1787.1,1386.4 1795.12,1386.4 1803.15,1386.4 1811.18,1386.4 1819.21,1386.4 1827.23,1386.4 1835.26,1386.4 1843.29,1386.4 1851.31,1386.4 1859.34,1386.4 1867.37,1386.4 1875.39,1386.4 1883.42,1386.4 1891.45,1386.4 1899.47,1386.4 1907.5,1386.4 1915.53,1386.4 1923.56,1386.4 1931.58,1386.4 1939.61,1386.4 1947.64,1386.4 1955.66,1386.4 1963.69,1386.4 1971.72,1386.4 1979.74,1386.4 1987.77,1386.4 1995.8,1386.4 2003.82,1386.4 2011.85,1386.4 2019.88,1386.4 2027.91,1386.4 2035.93,1386.4 2043.96,1386.4 2051.99,1386.4 2060.01,1386.4 2068.04,1386.4 2076.07,1386.4 2084.09,1386.4 2092.12,1386.4 2100.15,1386.4 2108.18,1386.4 2116.2,1386.4 2124.23,1386.4 2132.26,1386.4 2140.28,1386.4 2148.31,1386.4 2156.34,1386.4 2164.36,1386.4 2172.39,1386.4 2180.42,1386.4 2188.44,1386.4 2196.47,1386.4 2204.5,1386.4 2212.53,1386.4 2220.55,1386.4 2228.58,1386.4 2236.61,1386.4 2244.63,1386.4 2252.66,1386.4 2260.69,1386.4 2268.71,1386.4 2276.74,1386.4 2284.77,1386.4 2292.79,1386.4 "/>
<polyline clip-path="url(#clip152)" style="stroke:#ff0000; stroke-linecap:round; stroke-linejoin:round; stroke-width:4; stroke-opacity:1; fill:none" points="294.087,1386.4 294.087,1386.4 302.114,1386.4 310.141,1386.4 318.168,1386.4 326.194,1386.4 334.221,1386.4 342.248,1386.4 350.275,1386.4 358.302,1386.4 366.329,1386.4 374.356,1386.4 382.383,1386.4 390.41,1386.4 398.437,1386.4 406.464,1386.4 414.491,1386.4 422.518,1386.4 430.545,1386.4 430.545,1382.14 438.572,1382.14 438.572,1386.4 446.599,1386.4 454.625,1386.4 462.652,1386.4 470.679,1386.4 478.706,1386.4 486.733,1386.4 494.76,1386.4 502.787,1386.4 510.814,1386.4 510.814,1382.14 518.841,1382.14 518.841,1386.4 526.868,1386.4 534.895,1386.4 542.922,1386.4 550.949,1386.4 558.976,1386.4 567.003,1386.4 575.03,1386.4 575.03,1382.14 583.057,1382.14 583.057,1386.4 591.083,1386.4 599.11,1386.4 607.137,1386.4 615.164,1386.4 623.191,1386.4 631.218,1386.4 639.245,1386.4 647.272,1386.4 655.299,1386.4 663.326,1386.4 671.353,1386.4 679.38,1386.4 687.407,1386.4 695.434,1386.4 703.461,1386.4 711.488,1386.4 719.514,1386.4 727.541,1386.4 735.568,1386.4 743.595,1386.4 751.622,1386.4 759.649,1386.4 767.676,1386.4 775.703,1386.4 783.73,1386.4 791.757,1386.4 799.784,1386.4 807.811,1386.4 815.838,1386.4 823.865,1386.4 831.892,1386.4 839.919,1386.4 847.946,1386.4 855.972,1386.4 863.999,1386.4 872.026,1386.4 880.053,1386.4 888.08,1386.4 896.107,1386.4 904.134,1386.4 912.161,1386.4 920.188,1386.4 928.215,1386.4 936.242,1386.4 944.269,1386.4 952.296,1386.4 960.323,1386.4 968.35,1386.4 976.377,1386.4 984.403,1386.4 992.43,1386.4 1000.46,1386.4 1008.48,1386.4 1016.51,1386.4 1024.54,1386.4 1032.57,1386.4 1040.59,1386.4 1048.62,1386.4 1056.65,1386.4 1064.67,1386.4 1072.7,1386.4 1080.73,1386.4 1088.75,1386.4 1096.78,1386.4 1104.81,1386.4 1112.83,1386.4 1120.86,1386.4 1128.89,1386.4 1136.92,1386.4 1144.94,1386.4 1152.97,1386.4 1161,1386.4 1169.02,1386.4 1177.05,1386.4 1185.08,1386.4 1193.1,1386.4 1201.13,1386.4 1209.16,1386.4 1217.18,1386.4 1225.21,1386.4 1233.24,1386.4 1241.27,1386.4 1249.29,1386.4 1257.32,1386.4 1265.35,1386.4 1273.37,1386.4 1281.4,1386.4 1289.43,1386.4 1297.45,1386.4 1305.48,1386.4 1313.51,1386.4 1321.53,1386.4 1329.56,1386.4 1337.59,1386.4 1345.62,1386.4 1353.64,1386.4 1361.67,1386.4 1369.7,1386.4 1377.72,1386.4 1385.75,1386.4 1393.78,1386.4 1401.8,1386.4 1409.83,1386.4 1417.86,1386.4 1425.89,1386.4 1433.91,1386.4 1441.94,1386.4 1449.97,1386.4 1457.99,1386.4 1466.02,1386.4 1474.05,1386.4 1482.07,1386.4 1490.1,1386.4 1498.13,1386.4 1506.15,1386.4 1514.18,1386.4 1522.21,1386.4 1530.24,1386.4 1538.26,1386.4 1546.29,1386.4 1554.32,1386.4 1562.34,1386.4 1570.37,1386.4 1578.4,1386.4 1586.42,1386.4 1594.45,1386.4 1602.48,1386.4 1610.5,1386.4 1618.53,1386.4 1626.56,1386.4 1634.59,1386.4 1642.61,1386.4 1650.64,1386.4 1658.67,1386.4 1666.69,1386.4 1674.72,1386.4 1682.75,1386.4 1690.77,1386.4 1698.8,1386.4 1706.83,1386.4 1714.86,1386.4 1722.88,1386.4 1730.91,1386.4 1738.94,1386.4 1746.96,1386.4 1754.99,1386.4 1763.02,1386.4 1771.04,1386.4 1779.07,1386.4 1787.1,1386.4 1795.12,1386.4 1803.15,1386.4 1811.18,1386.4 1819.21,1386.4 1827.23,1386.4 1835.26,1386.4 1843.29,1386.4 1851.31,1386.4 1859.34,1386.4 1867.37,1386.4 1875.39,1386.4 1883.42,1386.4 1891.45,1386.4 1899.47,1386.4 1907.5,1386.4 1915.53,1386.4 1923.56,1386.4 1931.58,1386.4 1939.61,1386.4 1947.64,1386.4 1955.66,1386.4 1963.69,1386.4 1971.72,1386.4 1979.74,1386.4 1987.77,1386.4 1995.8,1386.4 2003.82,1386.4 2011.85,1386.4 2019.88,1386.4 2027.91,1386.4 2035.93,1386.4 2043.96,1386.4 2051.99,1386.4 2060.01,1386.4 2068.04,1386.4 2076.07,1386.4 2084.09,1386.4 2092.12,1386.4 2100.15,1386.4 2108.18,1386.4 2116.2,1386.4 2124.23,1386.4 2132.26,1386.4 2140.28,1386.4 2148.31,1386.4 2156.34,1386.4 2164.36,1386.4 2172.39,1386.4 2180.42,1386.4 2188.44,1386.4 2196.47,1386.4 2204.5,1386.4 2212.53,1386.4 2220.55,1386.4 2228.58,1386.4 2236.61,1386.4 2244.63,1386.4 2252.66,1386.4 2260.69,1386.4 2268.71,1386.4 2276.74,1386.4 2284.77,1386.4 2292.79,1386.4 "/>
<polyline clip-path="url(#clip152)" style="stroke:#0000ff; stroke-linecap:round; stroke-linejoin:round; stroke-width:4; stroke-opacity:1; fill:none" points="294.087,1386.4 294.087,1369.37 302.114,1369.37 310.141,1369.37 318.168,1369.37 326.194,1369.37 326.194,1382.14 334.221,1382.14 334.221,1386.4 342.248,1386.4 350.275,1386.4 358.302,1386.4 366.329,1386.4 374.356,1386.4 382.383,1386.4 390.41,1386.4 398.437,1386.4 406.464,1386.4 414.491,1386.4 422.518,1386.4 430.545,1386.4 438.572,1386.4 446.599,1386.4 454.625,1386.4 462.652,1386.4 470.679,1386.4 478.706,1386.4 486.733,1386.4 494.76,1386.4 502.787,1386.4 510.814,1386.4 518.841,1386.4 526.868,1386.4 534.895,1386.4 542.922,1386.4 550.949,1386.4 558.976,1386.4 567.003,1386.4 575.03,1386.4 583.057,1386.4 591.083,1386.4 599.11,1386.4 607.137,1386.4 615.164,1386.4 623.191,1386.4 631.218,1386.4 639.245,1386.4 647.272,1386.4 655.299,1386.4 663.326,1386.4 671.353,1386.4 679.38,1386.4 687.407,1386.4 695.434,1386.4 703.461,1386.4 711.488,1386.4 719.514,1386.4 727.541,1386.4 735.568,1386.4 743.595,1386.4 751.622,1386.4 759.649,1386.4 767.676,1386.4 775.703,1386.4 783.73,1386.4 791.757,1386.4 799.784,1386.4 807.811,1386.4 815.838,1386.4 823.865,1386.4 831.892,1386.4 839.919,1386.4 847.946,1386.4 855.972,1386.4 863.999,1386.4 872.026,1386.4 880.053,1386.4 888.08,1386.4 896.107,1386.4 904.134,1386.4 912.161,1386.4 920.188,1386.4 928.215,1386.4 936.242,1386.4 944.269,1386.4 952.296,1386.4 960.323,1386.4 968.35,1386.4 976.377,1386.4 984.403,1386.4 992.43,1386.4 1000.46,1386.4 1008.48,1386.4 1016.51,1386.4 1024.54,1386.4 1032.57,1386.4 1040.59,1386.4 1048.62,1386.4 1056.65,1386.4 1064.67,1386.4 1072.7,1386.4 1080.73,1386.4 1088.75,1386.4 1096.78,1386.4 1104.81,1386.4 1112.83,1386.4 1120.86,1386.4 1128.89,1386.4 1136.92,1386.4 1144.94,1386.4 1152.97,1386.4 1161,1386.4 1169.02,1386.4 1177.05,1386.4 1185.08,1386.4 1193.1,1386.4 1201.13,1386.4 1209.16,1386.4 1217.18,1386.4 1225.21,1386.4 1233.24,1386.4 1241.27,1386.4 1249.29,1386.4 1257.32,1386.4 1265.35,1386.4 1273.37,1386.4 1281.4,1386.4 1289.43,1386.4 1297.45,1386.4 1305.48,1386.4 1313.51,1386.4 1321.53,1386.4 1329.56,1386.4 1337.59,1386.4 1345.62,1386.4 1353.64,1386.4 1361.67,1386.4 1369.7,1386.4 1377.72,1386.4 1385.75,1386.4 1393.78,1386.4 1401.8,1386.4 1409.83,1386.4 1417.86,1386.4 1425.89,1386.4 1433.91,1386.4 1441.94,1386.4 1449.97,1386.4 1457.99,1386.4 1466.02,1386.4 1474.05,1386.4 1482.07,1386.4 1490.1,1386.4 1498.13,1386.4 1506.15,1386.4 1514.18,1386.4 1522.21,1386.4 1530.24,1386.4 1538.26,1386.4 1546.29,1386.4 1554.32,1386.4 1562.34,1386.4 1570.37,1386.4 1578.4,1386.4 1586.42,1386.4 1594.45,1386.4 1602.48,1386.4 1610.5,1386.4 1618.53,1386.4 1626.56,1386.4 1634.59,1386.4 1642.61,1386.4 1650.64,1386.4 1658.67,1386.4 1666.69,1386.4 1674.72,1386.4 1682.75,1386.4 1690.77,1386.4 1698.8,1386.4 1706.83,1386.4 1714.86,1386.4 1722.88,1386.4 1730.91,1386.4 1738.94,1386.4 1746.96,1386.4 1754.99,1386.4 1763.02,1386.4 1771.04,1386.4 1779.07,1386.4 1787.1,1386.4 1795.12,1386.4 1803.15,1386.4 1811.18,1386.4 1819.21,1386.4 1827.23,1386.4 1835.26,1386.4 1843.29,1386.4 1851.31,1386.4 1859.34,1386.4 1867.37,1386.4 1875.39,1386.4 1883.42,1386.4 1891.45,1386.4 1899.47,1386.4 1907.5,1386.4 1915.53,1386.4 1923.56,1386.4 1931.58,1386.4 1939.61,1386.4 1947.64,1386.4 1955.66,1386.4 1963.69,1386.4 1971.72,1386.4 1979.74,1386.4 1987.77,1386.4 1995.8,1386.4 2003.82,1386.4 2011.85,1386.4 2019.88,1386.4 2027.91,1386.4 2035.93,1386.4 2043.96,1386.4 2051.99,1386.4 2060.01,1386.4 2068.04,1386.4 2076.07,1386.4 2084.09,1386.4 2092.12,1386.4 2100.15,1386.4 2108.18,1386.4 2116.2,1386.4 2124.23,1386.4 2132.26,1386.4 2140.28,1386.4 2148.31,1386.4 2156.34,1386.4 2164.36,1386.4 2172.39,1386.4 2180.42,1386.4 2188.44,1386.4 2196.47,1386.4 2204.5,1386.4 2212.53,1386.4 2220.55,1386.4 2228.58,1386.4 2236.61,1386.4 2244.63,1386.4 2252.66,1386.4 2260.69,1386.4 2268.71,1386.4 2276.74,1386.4 2284.77,1386.4 2292.79,1386.4 "/>
<polyline clip-path="url(#clip152)" style="stroke:#008000; stroke-linecap:round; stroke-linejoin:round; stroke-width:4; stroke-opacity:1; fill:none" points="294.087,1386.4 294.087,1071.35 302.114,1071.35 302.114,845.702 310.141,845.702 310.141,998.97 318.168,998.97 318.168,185.801 326.194,185.801 326.194,160.256 334.221,160.256 334.221,513.623 342.248,513.623 342.248,943.623 350.275,943.623 350.275,1309.76 358.302,1309.76 358.302,1356.59 366.329,1356.59 366.329,1365.11 374.356,1365.11 374.356,1377.88 382.383,1377.88 382.383,1382.14 390.41,1382.14 398.437,1382.14 406.464,1382.14 406.464,1373.62 414.491,1373.62 414.491,1386.4 422.518,1386.4 430.545,1386.4 438.572,1386.4 446.599,1386.4 454.625,1386.4 462.652,1386.4 470.679,1386.4 478.706,1386.4 478.706,1382.14 486.733,1382.14 486.733,1386.4 494.76,1386.4 502.787,1386.4 510.814,1386.4 518.841,1386.4 526.868,1386.4 526.868,1382.14 534.895,1382.14 534.895,1386.4 542.922,1386.4 550.949,1386.4 558.976,1386.4 567.003,1386.4 575.03,1386.4 583.057,1386.4 591.083,1386.4 599.11,1386.4 607.137,1386.4 615.164,1386.4 623.191,1386.4 631.218,1386.4 639.245,1386.4 647.272,1386.4 655.299,1386.4 663.326,1386.4 671.353,1386.4 679.38,1386.4 687.407,1386.4 695.434,1386.4 703.461,1386.4 711.488,1386.4 719.514,1386.4 727.541,1386.4 735.568,1386.4 743.595,1386.4 751.622,1386.4 759.649,1386.4 767.676,1386.4 775.703,1386.4 783.73,1386.4 791.757,1386.4 799.784,1386.4 807.811,1386.4 815.838,1386.4 823.865,1386.4 831.892,1386.4 839.919,1386.4 847.946,1386.4 855.972,1386.4 863.999,1386.4 872.026,1386.4 880.053,1386.4 888.08,1386.4 896.107,1386.4 904.134,1386.4 912.161,1386.4 920.188,1386.4 928.215,1386.4 936.242,1386.4 944.269,1386.4 952.296,1386.4 960.323,1386.4 968.35,1386.4 976.377,1386.4 984.403,1386.4 992.43,1386.4 1000.46,1386.4 1008.48,1386.4 1016.51,1386.4 1024.54,1386.4 1032.57,1386.4 1040.59,1386.4 1048.62,1386.4 1056.65,1386.4 1064.67,1386.4 1072.7,1386.4 1080.73,1386.4 1088.75,1386.4 1096.78,1386.4 1104.81,1386.4 1112.83,1386.4 1120.86,1386.4 1128.89,1386.4 1136.92,1386.4 1144.94,1386.4 1152.97,1386.4 1161,1386.4 1169.02,1386.4 1177.05,1386.4 1185.08,1386.4 1193.1,1386.4 1201.13,1386.4 1209.16,1386.4 1217.18,1386.4 1225.21,1386.4 1233.24,1386.4 1241.27,1386.4 1249.29,1386.4 1257.32,1386.4 1265.35,1386.4 1273.37,1386.4 1281.4,1386.4 1289.43,1386.4 1297.45,1386.4 1305.48,1386.4 1313.51,1386.4 1321.53,1386.4 1329.56,1386.4 1337.59,1386.4 1345.62,1386.4 1353.64,1386.4 1361.67,1386.4 1369.7,1386.4 1377.72,1386.4 1385.75,1386.4 1393.78,1386.4 1401.8,1386.4 1409.83,1386.4 1417.86,1386.4 1425.89,1386.4 1433.91,1386.4 1441.94,1386.4 1449.97,1386.4 1457.99,1386.4 1466.02,1386.4 1474.05,1386.4 1482.07,1386.4 1490.1,1386.4 1498.13,1386.4 1506.15,1386.4 1514.18,1386.4 1522.21,1386.4 1530.24,1386.4 1538.26,1386.4 1546.29,1386.4 1554.32,1386.4 1562.34,1386.4 1570.37,1386.4 1578.4,1386.4 1586.42,1386.4 1594.45,1386.4 1602.48,1386.4 1610.5,1386.4 1618.53,1386.4 1626.56,1386.4 1634.59,1386.4 1642.61,1386.4 1650.64,1386.4 1658.67,1386.4 1666.69,1386.4 1674.72,1386.4 1682.75,1386.4 1690.77,1386.4 1698.8,1386.4 1706.83,1386.4 1714.86,1386.4 1722.88,1386.4 1730.91,1386.4 1738.94,1386.4 1746.96,1386.4 1754.99,1386.4 1763.02,1386.4 1771.04,1386.4 1779.07,1386.4 1787.1,1386.4 1795.12,1386.4 1803.15,1386.4 1811.18,1386.4 1819.21,1386.4 1827.23,1386.4 1835.26,1386.4 1843.29,1386.4 1851.31,1386.4 1859.34,1386.4 1867.37,1386.4 1875.39,1386.4 1883.42,1386.4 1891.45,1386.4 1899.47,1386.4 1907.5,1386.4 1915.53,1386.4 1923.56,1386.4 1931.58,1386.4 1939.61,1386.4 1947.64,1386.4 1955.66,1386.4 1963.69,1386.4 1971.72,1386.4 1979.74,1386.4 1987.77,1386.4 1995.8,1386.4 2003.82,1386.4 2011.85,1386.4 2019.88,1386.4 2027.91,1386.4 2035.93,1386.4 2043.96,1386.4 2051.99,1386.4 2060.01,1386.4 2068.04,1386.4 2076.07,1386.4 2084.09,1386.4 2092.12,1386.4 2100.15,1386.4 2108.18,1386.4 2116.2,1386.4 2124.23,1386.4 2132.26,1386.4 2140.28,1386.4 2148.31,1386.4 2156.34,1386.4 2164.36,1386.4 2172.39,1386.4 2180.42,1386.4 2188.44,1386.4 2196.47,1386.4 2204.5,1386.4 2212.53,1386.4 2220.55,1386.4 2228.58,1386.4 2236.61,1386.4 2244.63,1386.4 2252.66,1386.4 2260.69,1386.4 2268.71,1386.4 2276.74,1386.4 2284.77,1386.4 2292.79,1386.4 "/>
<path clip-path="url(#clip150)" d="M1687.64 425.996 L2282.13 425.996 L2282.13 166.796 L1687.64 166.796  Z" fill="#ffffff" fill-rule="evenodd" fill-opacity="1"/>
<polyline clip-path="url(#clip150)" style="stroke:#000000; stroke-linecap:round; stroke-linejoin:round; stroke-width:4; stroke-opacity:1; fill:none" points="1687.64,425.996 2282.13,425.996 2282.13,166.796 1687.64,166.796 1687.64,425.996 "/>
<polyline clip-path="url(#clip150)" style="stroke:#000000; stroke-linecap:round; stroke-linejoin:round; stroke-width:4; stroke-opacity:1; fill:none" points="1711.18,218.636 1852.42,218.636 "/>
<path clip-path="url(#clip150)" d="M1875.96 201.356 L1882.25 201.356 L1897.58 230.268 L1897.58 201.356 L1902.11 201.356 L1902.11 235.916 L1895.82 235.916 L1880.49 207.004 L1880.49 235.916 L1875.96 235.916 L1875.96 201.356 Z" fill="#000000" fill-rule="nonzero" fill-opacity="1" /><path clip-path="url(#clip150)" d="M1933.41 221.888 L1933.41 223.971 L1913.83 223.971 Q1914.11 228.369 1916.47 230.684 Q1918.85 232.976 1923.09 232.976 Q1925.54 232.976 1927.83 232.374 Q1930.15 231.772 1932.42 230.569 L1932.42 234.596 Q1930.12 235.568 1927.72 236.078 Q1925.31 236.587 1922.83 236.587 Q1916.63 236.587 1912.99 232.976 Q1909.38 229.365 1909.38 223.207 Q1909.38 216.842 1912.81 213.115 Q1916.26 209.365 1922.09 209.365 Q1927.32 209.365 1930.36 212.745 Q1933.41 216.101 1933.41 221.888 M1929.15 220.638 Q1929.11 217.143 1927.18 215.059 Q1925.29 212.976 1922.14 212.976 Q1918.57 212.976 1916.42 214.99 Q1914.29 217.004 1913.97 220.661 L1929.15 220.638 Z" fill="#000000" fill-rule="nonzero" fill-opacity="1" /><path clip-path="url(#clip150)" d="M1939.96 225.684 L1939.96 209.99 L1944.22 209.99 L1944.22 225.522 Q1944.22 229.203 1945.66 231.055 Q1947.09 232.883 1949.96 232.883 Q1953.41 232.883 1955.4 230.684 Q1957.42 228.485 1957.42 224.689 L1957.42 209.99 L1961.67 209.99 L1961.67 235.916 L1957.42 235.916 L1957.42 231.934 Q1955.86 234.295 1953.8 235.453 Q1951.77 236.587 1949.06 236.587 Q1944.59 236.587 1942.28 233.809 Q1939.96 231.031 1939.96 225.684 M1950.68 209.365 L1950.68 209.365 Z" fill="#000000" fill-rule="nonzero" fill-opacity="1" /><path clip-path="url(#clip150)" d="M1974.66 202.629 L1974.66 209.99 L1983.43 209.99 L1983.43 213.3 L1974.66 213.3 L1974.66 227.374 Q1974.66 230.545 1975.52 231.448 Q1976.4 232.351 1979.06 232.351 L1983.43 232.351 L1983.43 235.916 L1979.06 235.916 Q1974.13 235.916 1972.25 234.087 Q1970.38 232.235 1970.38 227.374 L1970.38 213.3 L1967.25 213.3 L1967.25 209.99 L1970.38 209.99 L1970.38 202.629 L1974.66 202.629 Z" fill="#000000" fill-rule="nonzero" fill-opacity="1" /><path clip-path="url(#clip150)" d="M2004.06 213.971 Q2003.34 213.555 2002.48 213.37 Q2001.65 213.161 2000.63 213.161 Q1997.02 213.161 1995.08 215.522 Q1993.16 217.86 1993.16 222.258 L1993.16 235.916 L1988.87 235.916 L1988.87 209.99 L1993.16 209.99 L1993.16 214.018 Q1994.5 211.657 1996.65 210.522 Q1998.8 209.365 2001.88 209.365 Q2002.32 209.365 2002.86 209.434 Q2003.39 209.481 2004.04 209.596 L2004.06 213.971 Z" fill="#000000" fill-rule="nonzero" fill-opacity="1" /><path clip-path="url(#clip150)" d="M2017.53 212.976 Q2014.11 212.976 2012.11 215.661 Q2010.12 218.323 2010.12 222.976 Q2010.12 227.629 2012.09 230.314 Q2014.08 232.976 2017.53 232.976 Q2020.93 232.976 2022.92 230.291 Q2024.92 227.606 2024.92 222.976 Q2024.92 218.37 2022.92 215.684 Q2020.93 212.976 2017.53 212.976 M2017.53 209.365 Q2023.09 209.365 2026.26 212.976 Q2029.43 216.587 2029.43 222.976 Q2029.43 229.342 2026.26 232.976 Q2023.09 236.587 2017.53 236.587 Q2011.95 236.587 2008.78 232.976 Q2005.63 229.342 2005.63 222.976 Q2005.63 216.587 2008.78 212.976 Q2011.95 209.365 2017.53 209.365 Z" fill="#000000" fill-rule="nonzero" fill-opacity="1" /><path clip-path="url(#clip150)" d="M2058.04 220.268 L2058.04 235.916 L2053.78 235.916 L2053.78 220.407 Q2053.78 216.726 2052.35 214.897 Q2050.91 213.069 2048.04 213.069 Q2044.59 213.069 2042.6 215.268 Q2040.61 217.467 2040.61 221.263 L2040.61 235.916 L2036.33 235.916 L2036.33 209.99 L2040.61 209.99 L2040.61 214.018 Q2042.14 211.68 2044.2 210.522 Q2046.28 209.365 2048.99 209.365 Q2053.46 209.365 2055.75 212.143 Q2058.04 214.897 2058.04 220.268 Z" fill="#000000" fill-rule="nonzero" fill-opacity="1" /><path clip-path="url(#clip150)" d="M2083.06 210.754 L2083.06 214.782 Q2081.26 213.856 2079.31 213.393 Q2077.37 212.93 2075.29 212.93 Q2072.11 212.93 2070.52 213.902 Q2068.94 214.874 2068.94 216.819 Q2068.94 218.3 2070.08 219.157 Q2071.21 219.99 2074.64 220.754 L2076.1 221.078 Q2080.63 222.05 2082.53 223.832 Q2084.45 225.592 2084.45 228.763 Q2084.45 232.374 2081.58 234.481 Q2078.73 236.587 2073.73 236.587 Q2071.65 236.587 2069.38 236.17 Q2067.14 235.777 2064.64 234.967 L2064.64 230.569 Q2067 231.795 2069.29 232.42 Q2071.58 233.022 2073.83 233.022 Q2076.84 233.022 2078.46 232.004 Q2080.08 230.962 2080.08 229.087 Q2080.08 227.351 2078.9 226.425 Q2077.74 225.499 2073.78 224.643 L2072.3 224.295 Q2068.34 223.462 2066.58 221.749 Q2064.82 220.013 2064.82 217.004 Q2064.82 213.346 2067.42 211.356 Q2070.01 209.365 2074.78 209.365 Q2077.14 209.365 2079.22 209.712 Q2081.3 210.059 2083.06 210.754 Z" fill="#000000" fill-rule="nonzero" fill-opacity="1" /><path clip-path="url(#clip150)" d="M2092.32 230.036 L2097.21 230.036 L2097.21 235.916 L2092.32 235.916 L2092.32 230.036 M2092.32 211.402 L2097.21 211.402 L2097.21 217.282 L2092.32 217.282 L2092.32 211.402 Z" fill="#000000" fill-rule="nonzero" fill-opacity="1" /><path clip-path="url(#clip150)" d="M2132.88 219.504 Q2129.54 219.504 2127.62 221.286 Q2125.72 223.069 2125.72 226.194 Q2125.72 229.319 2127.62 231.101 Q2129.54 232.883 2132.88 232.883 Q2136.21 232.883 2138.13 231.101 Q2140.05 229.295 2140.05 226.194 Q2140.05 223.069 2138.13 221.286 Q2136.23 219.504 2132.88 219.504 M2128.2 217.513 Q2125.19 216.772 2123.5 214.712 Q2121.84 212.652 2121.84 209.689 Q2121.84 205.546 2124.78 203.138 Q2127.74 200.731 2132.88 200.731 Q2138.04 200.731 2140.98 203.138 Q2143.92 205.546 2143.92 209.689 Q2143.92 212.652 2142.23 214.712 Q2140.56 216.772 2137.58 217.513 Q2140.96 218.3 2142.83 220.592 Q2144.73 222.883 2144.73 226.194 Q2144.73 231.217 2141.65 233.902 Q2138.6 236.587 2132.88 236.587 Q2127.16 236.587 2124.08 233.902 Q2121.03 231.217 2121.03 226.194 Q2121.03 222.883 2122.92 220.592 Q2124.82 218.3 2128.2 217.513 M2126.49 210.129 Q2126.49 212.814 2128.16 214.319 Q2129.85 215.823 2132.88 215.823 Q2135.89 215.823 2137.58 214.319 Q2139.29 212.814 2139.29 210.129 Q2139.29 207.444 2137.58 205.939 Q2135.89 204.434 2132.88 204.434 Q2129.85 204.434 2128.16 205.939 Q2126.49 207.444 2126.49 210.129 Z" fill="#000000" fill-rule="nonzero" fill-opacity="1" /><path clip-path="url(#clip150)" d="M2163.62 216.772 Q2160.47 216.772 2158.62 218.925 Q2156.79 221.078 2156.79 224.828 Q2156.79 228.555 2158.62 230.731 Q2160.47 232.883 2163.62 232.883 Q2166.77 232.883 2168.6 230.731 Q2170.45 228.555 2170.45 224.828 Q2170.45 221.078 2168.6 218.925 Q2166.77 216.772 2163.62 216.772 M2172.9 202.12 L2172.9 206.379 Q2171.14 205.546 2169.34 205.106 Q2167.55 204.666 2165.79 204.666 Q2161.16 204.666 2158.71 207.791 Q2156.28 210.916 2155.93 217.235 Q2157.3 215.221 2159.36 214.157 Q2161.42 213.069 2163.9 213.069 Q2169.1 213.069 2172.11 216.24 Q2175.15 219.388 2175.15 224.828 Q2175.15 230.152 2172 233.369 Q2168.85 236.587 2163.62 236.587 Q2157.62 236.587 2154.45 232.004 Q2151.28 227.397 2151.28 218.67 Q2151.28 210.476 2155.17 205.615 Q2159.06 200.731 2165.61 200.731 Q2167.37 200.731 2169.15 201.078 Q2170.96 201.425 2172.9 202.12 Z" fill="#000000" fill-rule="nonzero" fill-opacity="1" /><path clip-path="url(#clip150)" d="M2184.01 231.981 L2191.65 231.981 L2191.65 205.615 L2183.34 207.282 L2183.34 203.022 L2191.6 201.356 L2196.28 201.356 L2196.28 231.981 L2203.92 231.981 L2203.92 235.916 L2184.01 235.916 L2184.01 231.981 Z" fill="#000000" fill-rule="nonzero" fill-opacity="1" /><polyline clip-path="url(#clip150)" style="stroke:#ff0000; stroke-linecap:round; stroke-linejoin:round; stroke-width:4; stroke-opacity:1; fill:none" points="1711.18,270.476 1852.42,270.476 "/>
<path clip-path="url(#clip150)" d="M1880.63 257.038 L1880.63 270.024 L1886.51 270.024 Q1889.78 270.024 1891.56 268.335 Q1893.34 266.645 1893.34 263.52 Q1893.34 260.418 1891.56 258.728 Q1889.78 257.038 1886.51 257.038 L1880.63 257.038 M1875.96 253.196 L1886.51 253.196 Q1892.32 253.196 1895.29 255.835 Q1898.27 258.45 1898.27 263.52 Q1898.27 268.635 1895.29 271.251 Q1892.32 273.867 1886.51 273.867 L1880.63 273.867 L1880.63 287.756 L1875.96 287.756 L1875.96 253.196 Z" fill="#000000" fill-rule="nonzero" fill-opacity="1" /><path clip-path="url(#clip150)" d="M1918.55 265.811 Q1917.83 265.395 1916.98 265.21 Q1916.14 265.001 1915.12 265.001 Q1911.51 265.001 1909.57 267.362 Q1907.65 269.7 1907.65 274.098 L1907.65 287.756 L1903.36 287.756 L1903.36 261.83 L1907.65 261.83 L1907.65 265.858 Q1908.99 263.497 1911.14 262.362 Q1913.3 261.205 1916.37 261.205 Q1916.81 261.205 1917.35 261.274 Q1917.88 261.321 1918.53 261.436 L1918.55 265.811 Z" fill="#000000" fill-rule="nonzero" fill-opacity="1" /><path clip-path="url(#clip150)" d="M1932.02 264.816 Q1928.6 264.816 1926.61 267.501 Q1924.61 270.163 1924.61 274.816 Q1924.61 279.469 1926.58 282.154 Q1928.57 284.816 1932.02 284.816 Q1935.42 284.816 1937.42 282.131 Q1939.41 279.446 1939.41 274.816 Q1939.41 270.21 1937.42 267.524 Q1935.42 264.816 1932.02 264.816 M1932.02 261.205 Q1937.58 261.205 1940.75 264.816 Q1943.92 268.427 1943.92 274.816 Q1943.92 281.182 1940.75 284.816 Q1937.58 288.427 1932.02 288.427 Q1926.44 288.427 1923.27 284.816 Q1920.12 281.182 1920.12 274.816 Q1920.12 268.427 1923.27 264.816 Q1926.44 261.205 1932.02 261.205 Z" fill="#000000" fill-rule="nonzero" fill-opacity="1" /><path clip-path="url(#clip150)" d="M1955.19 254.469 L1955.19 261.83 L1963.97 261.83 L1963.97 265.14 L1955.19 265.14 L1955.19 279.214 Q1955.19 282.385 1956.05 283.288 Q1956.93 284.191 1959.59 284.191 L1963.97 284.191 L1963.97 287.756 L1959.59 287.756 Q1954.66 287.756 1952.79 285.927 Q1950.91 284.075 1950.91 279.214 L1950.91 265.14 L1947.79 265.14 L1947.79 261.83 L1950.91 261.83 L1950.91 254.469 L1955.19 254.469 Z" fill="#000000" fill-rule="nonzero" fill-opacity="1" /><path clip-path="url(#clip150)" d="M1979.61 264.816 Q1976.19 264.816 1974.2 267.501 Q1972.21 270.163 1972.21 274.816 Q1972.21 279.469 1974.17 282.154 Q1976.17 284.816 1979.61 284.816 Q1983.02 284.816 1985.01 282.131 Q1987 279.446 1987 274.816 Q1987 270.21 1985.01 267.524 Q1983.02 264.816 1979.61 264.816 M1979.61 261.205 Q1985.17 261.205 1988.34 264.816 Q1991.51 268.427 1991.51 274.816 Q1991.51 281.182 1988.34 284.816 Q1985.17 288.427 1979.61 288.427 Q1974.04 288.427 1970.86 284.816 Q1967.72 281.182 1967.72 274.816 Q1967.72 268.427 1970.86 264.816 Q1974.04 261.205 1979.61 261.205 Z" fill="#000000" fill-rule="nonzero" fill-opacity="1" /><path clip-path="url(#clip150)" d="M2020.12 272.108 L2020.12 287.756 L2015.86 287.756 L2015.86 272.247 Q2015.86 268.566 2014.43 266.737 Q2012.99 264.909 2010.12 264.909 Q2006.67 264.909 2004.68 267.108 Q2002.69 269.307 2002.69 273.103 L2002.69 287.756 L1998.41 287.756 L1998.41 261.83 L2002.69 261.83 L2002.69 265.858 Q2004.22 263.52 2006.28 262.362 Q2008.36 261.205 2011.07 261.205 Q2015.54 261.205 2017.83 263.983 Q2020.12 266.737 2020.12 272.108 Z" fill="#000000" fill-rule="nonzero" fill-opacity="1" /><path clip-path="url(#clip150)" d="M2045.15 262.594 L2045.15 266.622 Q2043.34 265.696 2041.4 265.233 Q2039.45 264.77 2037.37 264.77 Q2034.2 264.77 2032.6 265.742 Q2031.03 266.714 2031.03 268.659 Q2031.03 270.14 2032.16 270.997 Q2033.29 271.83 2036.72 272.594 L2038.18 272.918 Q2042.72 273.89 2044.61 275.672 Q2046.54 277.432 2046.54 280.603 Q2046.54 284.214 2043.67 286.321 Q2040.82 288.427 2035.82 288.427 Q2033.73 288.427 2031.47 288.01 Q2029.22 287.617 2026.72 286.807 L2026.72 282.409 Q2029.08 283.635 2031.37 284.26 Q2033.67 284.862 2035.91 284.862 Q2038.92 284.862 2040.54 283.844 Q2042.16 282.802 2042.16 280.927 Q2042.16 279.191 2040.98 278.265 Q2039.82 277.339 2035.86 276.483 L2034.38 276.135 Q2030.42 275.302 2028.67 273.589 Q2026.91 271.853 2026.91 268.844 Q2026.91 265.186 2029.5 263.196 Q2032.09 261.205 2036.86 261.205 Q2039.22 261.205 2041.3 261.552 Q2043.39 261.899 2045.15 262.594 Z" fill="#000000" fill-rule="nonzero" fill-opacity="1" /><path clip-path="url(#clip150)" d="M2069.85 262.594 L2069.85 266.622 Q2068.04 265.696 2066.1 265.233 Q2064.15 264.77 2062.07 264.77 Q2058.9 264.77 2057.3 265.742 Q2055.73 266.714 2055.73 268.659 Q2055.73 270.14 2056.86 270.997 Q2057.99 271.83 2061.42 272.594 L2062.88 272.918 Q2067.42 273.89 2069.31 275.672 Q2071.23 277.432 2071.23 280.603 Q2071.23 284.214 2068.36 286.321 Q2065.52 288.427 2060.52 288.427 Q2058.43 288.427 2056.17 288.01 Q2053.92 287.617 2051.42 286.807 L2051.42 282.409 Q2053.78 283.635 2056.07 284.26 Q2058.36 284.862 2060.61 284.862 Q2063.62 284.862 2065.24 283.844 Q2066.86 282.802 2066.86 280.927 Q2066.86 279.191 2065.68 278.265 Q2064.52 277.339 2060.56 276.483 L2059.08 276.135 Q2055.12 275.302 2053.36 273.589 Q2051.6 271.853 2051.6 268.844 Q2051.6 265.186 2054.2 263.196 Q2056.79 261.205 2061.56 261.205 Q2063.92 261.205 2066 261.552 Q2068.09 261.899 2069.85 262.594 Z" fill="#000000" fill-rule="nonzero" fill-opacity="1" /><path clip-path="url(#clip150)" d="M2079.1 281.876 L2083.99 281.876 L2083.99 287.756 L2079.1 287.756 L2079.1 281.876 M2079.1 263.242 L2083.99 263.242 L2083.99 269.122 L2079.1 269.122 L2079.1 263.242 Z" fill="#000000" fill-rule="nonzero" fill-opacity="1" /><path clip-path="url(#clip150)" d="M2123.83 269.122 Q2127.18 269.839 2129.06 272.108 Q2130.96 274.376 2130.96 277.709 Q2130.96 282.825 2127.44 285.626 Q2123.92 288.427 2117.44 288.427 Q2115.26 288.427 2112.95 287.987 Q2110.66 287.571 2108.2 286.714 L2108.2 282.2 Q2110.15 283.334 2112.46 283.913 Q2114.78 284.492 2117.3 284.492 Q2121.7 284.492 2123.99 282.756 Q2126.3 281.02 2126.3 277.709 Q2126.3 274.654 2124.15 272.941 Q2122.02 271.205 2118.2 271.205 L2114.17 271.205 L2114.17 267.362 L2118.39 267.362 Q2121.84 267.362 2123.66 265.997 Q2125.49 264.608 2125.49 262.015 Q2125.49 259.353 2123.6 257.941 Q2121.72 256.506 2118.2 256.506 Q2116.28 256.506 2114.08 256.923 Q2111.88 257.339 2109.24 258.219 L2109.24 254.052 Q2111.91 253.311 2114.22 252.941 Q2116.56 252.571 2118.62 252.571 Q2123.94 252.571 2127.04 255.001 Q2130.15 257.409 2130.15 261.529 Q2130.15 264.399 2128.5 266.39 Q2126.86 268.358 2123.83 269.122 Z" fill="#000000" fill-rule="nonzero" fill-opacity="1" /><polyline clip-path="url(#clip150)" style="stroke:#0000ff; stroke-linecap:round; stroke-linejoin:round; stroke-width:4; stroke-opacity:1; fill:none" points="1711.18,322.316 1852.42,322.316 "/>
<path clip-path="url(#clip150)" d="M1875.96 305.036 L1897.81 305.036 L1897.81 308.971 L1880.63 308.971 L1880.63 319.202 L1897.09 319.202 L1897.09 323.137 L1880.63 323.137 L1880.63 335.661 L1898.23 335.661 L1898.23 339.596 L1875.96 339.596 L1875.96 305.036 Z" fill="#000000" fill-rule="nonzero" fill-opacity="1" /><path clip-path="url(#clip150)" d="M1905.73 303.577 L1909.99 303.577 L1909.99 339.596 L1905.73 339.596 L1905.73 303.577 Z" fill="#000000" fill-rule="nonzero" fill-opacity="1" /><path clip-path="url(#clip150)" d="M1941.07 325.568 L1941.07 327.651 L1921.49 327.651 Q1921.77 332.049 1924.13 334.364 Q1926.51 336.656 1930.75 336.656 Q1933.2 336.656 1935.49 336.054 Q1937.81 335.452 1940.08 334.249 L1940.08 338.276 Q1937.79 339.248 1935.38 339.758 Q1932.97 340.267 1930.49 340.267 Q1924.29 340.267 1920.66 336.656 Q1917.05 333.045 1917.05 326.887 Q1917.05 320.522 1920.47 316.795 Q1923.92 313.045 1929.75 313.045 Q1934.99 313.045 1938.02 316.425 Q1941.07 319.781 1941.07 325.568 M1936.81 324.318 Q1936.77 320.823 1934.85 318.739 Q1932.95 316.656 1929.8 316.656 Q1926.24 316.656 1924.08 318.67 Q1921.95 320.684 1921.63 324.341 L1936.81 324.318 Z" fill="#000000" fill-rule="nonzero" fill-opacity="1" /><path clip-path="url(#clip150)" d="M1966.72 314.665 L1966.72 318.647 Q1964.92 317.651 1963.09 317.165 Q1961.28 316.656 1959.43 316.656 Q1955.29 316.656 1952.99 319.295 Q1950.7 321.911 1950.7 326.656 Q1950.7 331.401 1952.99 334.04 Q1955.29 336.656 1959.43 336.656 Q1961.28 336.656 1963.09 336.17 Q1964.92 335.661 1966.72 334.665 L1966.72 338.6 Q1964.94 339.434 1963.02 339.85 Q1961.12 340.267 1958.97 340.267 Q1953.11 340.267 1949.66 336.586 Q1946.21 332.906 1946.21 326.656 Q1946.21 320.313 1949.68 316.679 Q1953.18 313.045 1959.24 313.045 Q1961.21 313.045 1963.09 313.462 Q1964.96 313.855 1966.72 314.665 Z" fill="#000000" fill-rule="nonzero" fill-opacity="1" /><path clip-path="url(#clip150)" d="M1978.34 306.309 L1978.34 313.67 L1987.11 313.67 L1987.11 316.98 L1978.34 316.98 L1978.34 331.054 Q1978.34 334.225 1979.2 335.128 Q1980.08 336.031 1982.74 336.031 L1987.11 336.031 L1987.11 339.596 L1982.74 339.596 Q1977.81 339.596 1975.93 337.767 Q1974.06 335.915 1974.06 331.054 L1974.06 316.98 L1970.93 316.98 L1970.93 313.67 L1974.06 313.67 L1974.06 306.309 L1978.34 306.309 Z" fill="#000000" fill-rule="nonzero" fill-opacity="1" /><path clip-path="url(#clip150)" d="M2007.74 317.651 Q2007.02 317.235 2006.17 317.05 Q2005.33 316.841 2004.31 316.841 Q2000.7 316.841 1998.76 319.202 Q1996.84 321.54 1996.84 325.938 L1996.84 339.596 L1992.55 339.596 L1992.55 313.67 L1996.84 313.67 L1996.84 317.698 Q1998.18 315.337 2000.33 314.202 Q2002.48 313.045 2005.56 313.045 Q2006 313.045 2006.54 313.114 Q2007.07 313.161 2007.72 313.276 L2007.74 317.651 Z" fill="#000000" fill-rule="nonzero" fill-opacity="1" /><path clip-path="url(#clip150)" d="M2021.21 316.656 Q2017.79 316.656 2015.79 319.341 Q2013.8 322.003 2013.8 326.656 Q2013.8 331.309 2015.77 333.994 Q2017.76 336.656 2021.21 336.656 Q2024.61 336.656 2026.61 333.971 Q2028.6 331.286 2028.6 326.656 Q2028.6 322.05 2026.61 319.364 Q2024.61 316.656 2021.21 316.656 M2021.21 313.045 Q2026.77 313.045 2029.94 316.656 Q2033.11 320.267 2033.11 326.656 Q2033.11 333.022 2029.94 336.656 Q2026.77 340.267 2021.21 340.267 Q2015.63 340.267 2012.46 336.656 Q2009.31 333.022 2009.31 326.656 Q2009.31 320.267 2012.46 316.656 Q2015.63 313.045 2021.21 313.045 Z" fill="#000000" fill-rule="nonzero" fill-opacity="1" /><path clip-path="url(#clip150)" d="M2061.72 323.948 L2061.72 339.596 L2057.46 339.596 L2057.46 324.087 Q2057.46 320.406 2056.03 318.577 Q2054.59 316.749 2051.72 316.749 Q2048.27 316.749 2046.28 318.948 Q2044.29 321.147 2044.29 324.943 L2044.29 339.596 L2040.01 339.596 L2040.01 313.67 L2044.29 313.67 L2044.29 317.698 Q2045.82 315.36 2047.88 314.202 Q2049.96 313.045 2052.67 313.045 Q2057.14 313.045 2059.43 315.823 Q2061.72 318.577 2061.72 323.948 Z" fill="#000000" fill-rule="nonzero" fill-opacity="1" /><path clip-path="url(#clip150)" d="M2086.74 314.434 L2086.74 318.462 Q2084.94 317.536 2082.99 317.073 Q2081.05 316.61 2078.97 316.61 Q2075.79 316.61 2074.2 317.582 Q2072.62 318.554 2072.62 320.499 Q2072.62 321.98 2073.76 322.837 Q2074.89 323.67 2078.32 324.434 L2079.78 324.758 Q2084.31 325.73 2086.21 327.512 Q2088.13 329.272 2088.13 332.443 Q2088.13 336.054 2085.26 338.161 Q2082.41 340.267 2077.41 340.267 Q2075.33 340.267 2073.06 339.85 Q2070.82 339.457 2068.32 338.647 L2068.32 334.249 Q2070.68 335.475 2072.97 336.1 Q2075.26 336.702 2077.51 336.702 Q2080.52 336.702 2082.14 335.684 Q2083.76 334.642 2083.76 332.767 Q2083.76 331.031 2082.58 330.105 Q2081.42 329.179 2077.46 328.323 L2075.98 327.975 Q2072.02 327.142 2070.26 325.429 Q2068.5 323.693 2068.5 320.684 Q2068.5 317.026 2071.1 315.036 Q2073.69 313.045 2078.46 313.045 Q2080.82 313.045 2082.9 313.392 Q2084.98 313.739 2086.74 314.434 Z" fill="#000000" fill-rule="nonzero" fill-opacity="1" /><path clip-path="url(#clip150)" d="M2111.44 314.434 L2111.44 318.462 Q2109.64 317.536 2107.69 317.073 Q2105.75 316.61 2103.66 316.61 Q2100.49 316.61 2098.9 317.582 Q2097.32 318.554 2097.32 320.499 Q2097.32 321.98 2098.46 322.837 Q2099.59 323.67 2103.02 324.434 L2104.48 324.758 Q2109.01 325.73 2110.91 327.512 Q2112.83 329.272 2112.83 332.443 Q2112.83 336.054 2109.96 338.161 Q2107.11 340.267 2102.11 340.267 Q2100.03 340.267 2097.76 339.85 Q2095.52 339.457 2093.02 338.647 L2093.02 334.249 Q2095.38 335.475 2097.67 336.1 Q2099.96 336.702 2102.21 336.702 Q2105.22 336.702 2106.84 335.684 Q2108.46 334.642 2108.46 332.767 Q2108.46 331.031 2107.28 330.105 Q2106.12 329.179 2102.16 328.323 L2100.68 327.975 Q2096.72 327.142 2094.96 325.429 Q2093.2 323.693 2093.2 320.684 Q2093.2 317.026 2095.79 315.036 Q2098.39 313.045 2103.16 313.045 Q2105.52 313.045 2107.6 313.392 Q2109.68 313.739 2111.44 314.434 Z" fill="#000000" fill-rule="nonzero" fill-opacity="1" /><path clip-path="url(#clip150)" d="M2120.7 333.716 L2125.59 333.716 L2125.59 339.596 L2120.7 339.596 L2120.7 333.716 M2120.7 315.082 L2125.59 315.082 L2125.59 320.962 L2120.7 320.962 L2120.7 315.082 Z" fill="#000000" fill-rule="nonzero" fill-opacity="1" /><path clip-path="url(#clip150)" d="M2152.07 335.661 L2159.71 335.661 L2159.71 309.295 L2151.4 310.962 L2151.4 306.702 L2159.66 305.036 L2164.34 305.036 L2164.34 335.661 L2171.97 335.661 L2171.97 339.596 L2152.07 339.596 L2152.07 335.661 Z" fill="#000000" fill-rule="nonzero" fill-opacity="1" /><path clip-path="url(#clip150)" d="M2181.56 338.878 L2181.56 334.619 Q2183.32 335.452 2185.12 335.892 Q2186.93 336.332 2188.66 336.332 Q2193.29 336.332 2195.72 333.23 Q2198.18 330.105 2198.53 323.762 Q2197.18 325.753 2195.12 326.818 Q2193.06 327.883 2190.56 327.883 Q2185.38 327.883 2182.34 324.758 Q2179.34 321.61 2179.34 316.17 Q2179.34 310.846 2182.48 307.628 Q2185.63 304.411 2190.86 304.411 Q2196.86 304.411 2200.01 309.017 Q2203.18 313.6 2203.18 322.35 Q2203.18 330.522 2199.29 335.406 Q2195.42 340.267 2188.87 340.267 Q2187.11 340.267 2185.31 339.92 Q2183.5 339.573 2181.56 338.878 M2190.86 324.225 Q2194.01 324.225 2195.84 322.073 Q2197.69 319.92 2197.69 316.17 Q2197.69 312.443 2195.84 310.29 Q2194.01 308.114 2190.86 308.114 Q2187.72 308.114 2185.86 310.29 Q2184.03 312.443 2184.03 316.17 Q2184.03 319.92 2185.86 322.073 Q2187.72 324.225 2190.86 324.225 Z" fill="#000000" fill-rule="nonzero" fill-opacity="1" /><polyline clip-path="url(#clip150)" style="stroke:#008000; stroke-linecap:round; stroke-linejoin:round; stroke-width:4; stroke-opacity:1; fill:none" points="1711.18,374.156 1852.42,374.156 "/>
<path clip-path="url(#clip150)" d="M1901.51 386.505 L1901.51 377.223 L1893.87 377.223 L1893.87 373.38 L1906.14 373.38 L1906.14 388.218 Q1903.43 390.139 1900.17 391.135 Q1896.91 392.107 1893.2 392.107 Q1885.1 392.107 1880.52 387.385 Q1875.96 382.639 1875.96 374.19 Q1875.96 365.718 1880.52 360.996 Q1885.1 356.251 1893.2 356.251 Q1896.58 356.251 1899.61 357.084 Q1902.67 357.917 1905.24 359.538 L1905.24 364.515 Q1902.65 362.316 1899.73 361.204 Q1896.81 360.093 1893.6 360.093 Q1887.25 360.093 1884.06 363.635 Q1880.89 367.177 1880.89 374.19 Q1880.89 381.181 1884.06 384.723 Q1887.25 388.264 1893.6 388.264 Q1896.07 388.264 1898.02 387.848 Q1899.96 387.408 1901.51 386.505 Z" fill="#000000" fill-rule="nonzero" fill-opacity="1" /><path clip-path="url(#clip150)" d="M1926.28 378.403 Q1921.12 378.403 1919.13 379.584 Q1917.14 380.764 1917.14 383.612 Q1917.14 385.88 1918.62 387.223 Q1920.12 388.542 1922.69 388.542 Q1926.24 388.542 1928.36 386.042 Q1930.52 383.519 1930.52 379.352 L1930.52 378.403 L1926.28 378.403 M1934.78 376.644 L1934.78 391.436 L1930.52 391.436 L1930.52 387.501 Q1929.06 389.862 1926.88 390.996 Q1924.71 392.107 1921.56 392.107 Q1917.58 392.107 1915.22 389.885 Q1912.88 387.639 1912.88 383.889 Q1912.88 379.514 1915.8 377.292 Q1918.74 375.07 1924.55 375.07 L1930.52 375.07 L1930.52 374.653 Q1930.52 371.714 1928.57 370.116 Q1926.65 368.496 1923.16 368.496 Q1920.93 368.496 1918.83 369.028 Q1916.72 369.561 1914.78 370.626 L1914.78 366.69 Q1917.11 365.788 1919.31 365.348 Q1921.51 364.885 1923.6 364.885 Q1929.22 364.885 1932 367.802 Q1934.78 370.718 1934.78 376.644 Z" fill="#000000" fill-rule="nonzero" fill-opacity="1" /><path clip-path="url(#clip150)" d="M1963.74 370.487 Q1965.33 367.616 1967.55 366.251 Q1969.78 364.885 1972.79 364.885 Q1976.84 364.885 1979.04 367.732 Q1981.23 370.556 1981.23 375.788 L1981.23 391.436 L1976.95 391.436 L1976.95 375.927 Q1976.95 372.2 1975.63 370.394 Q1974.31 368.589 1971.61 368.589 Q1968.3 368.589 1966.37 370.788 Q1964.45 372.987 1964.45 376.783 L1964.45 391.436 L1960.17 391.436 L1960.17 375.927 Q1960.17 372.177 1958.85 370.394 Q1957.53 368.589 1954.78 368.589 Q1951.51 368.589 1949.59 370.811 Q1947.67 373.01 1947.67 376.783 L1947.67 391.436 L1943.39 391.436 L1943.39 365.51 L1947.67 365.51 L1947.67 369.538 Q1949.13 367.153 1951.17 366.019 Q1953.2 364.885 1956 364.885 Q1958.83 364.885 1960.8 366.32 Q1962.79 367.755 1963.74 370.487 Z" fill="#000000" fill-rule="nonzero" fill-opacity="1" /><path clip-path="url(#clip150)" d="M2009.92 370.487 Q2011.51 367.616 2013.73 366.251 Q2015.96 364.885 2018.97 364.885 Q2023.02 364.885 2025.22 367.732 Q2027.42 370.556 2027.42 375.788 L2027.42 391.436 L2023.13 391.436 L2023.13 375.927 Q2023.13 372.2 2021.81 370.394 Q2020.49 368.589 2017.79 368.589 Q2014.48 368.589 2012.55 370.788 Q2010.63 372.987 2010.63 376.783 L2010.63 391.436 L2006.35 391.436 L2006.35 375.927 Q2006.35 372.177 2005.03 370.394 Q2003.71 368.589 2000.96 368.589 Q1997.69 368.589 1995.77 370.811 Q1993.85 373.01 1993.85 376.783 L1993.85 391.436 L1989.57 391.436 L1989.57 365.51 L1993.85 365.51 L1993.85 369.538 Q1995.31 367.153 1997.35 366.019 Q1999.38 364.885 2002.18 364.885 Q2005.01 364.885 2006.98 366.32 Q2008.97 367.755 2009.92 370.487 Z" fill="#000000" fill-rule="nonzero" fill-opacity="1" /><path clip-path="url(#clip150)" d="M2047.69 378.403 Q2042.53 378.403 2040.54 379.584 Q2038.55 380.764 2038.55 383.612 Q2038.55 385.88 2040.03 387.223 Q2041.54 388.542 2044.1 388.542 Q2047.65 388.542 2049.78 386.042 Q2051.93 383.519 2051.93 379.352 L2051.93 378.403 L2047.69 378.403 M2056.19 376.644 L2056.19 391.436 L2051.93 391.436 L2051.93 387.501 Q2050.47 389.862 2048.29 390.996 Q2046.12 392.107 2042.97 392.107 Q2038.99 392.107 2036.63 389.885 Q2034.29 387.639 2034.29 383.889 Q2034.29 379.514 2037.21 377.292 Q2040.15 375.07 2045.96 375.07 L2051.93 375.07 L2051.93 374.653 Q2051.93 371.714 2049.98 370.116 Q2048.06 368.496 2044.57 368.496 Q2042.35 368.496 2040.24 369.028 Q2038.13 369.561 2036.19 370.626 L2036.19 366.69 Q2038.53 365.788 2040.73 365.348 Q2042.92 364.885 2045.01 364.885 Q2050.63 364.885 2053.41 367.802 Q2056.19 370.718 2056.19 376.644 Z" fill="#000000" fill-rule="nonzero" fill-opacity="1" /><path clip-path="url(#clip150)" d="M2081.49 366.274 L2081.49 370.302 Q2079.68 369.376 2077.74 368.913 Q2075.79 368.45 2073.71 368.45 Q2070.54 368.45 2068.94 369.422 Q2067.37 370.394 2067.37 372.339 Q2067.37 373.82 2068.5 374.677 Q2069.64 375.51 2073.06 376.274 L2074.52 376.598 Q2079.06 377.57 2080.96 379.352 Q2082.88 381.112 2082.88 384.283 Q2082.88 387.894 2080.01 390.001 Q2077.16 392.107 2072.16 392.107 Q2070.08 392.107 2067.81 391.69 Q2065.56 391.297 2063.06 390.487 L2063.06 386.089 Q2065.42 387.315 2067.72 387.94 Q2070.01 388.542 2072.25 388.542 Q2075.26 388.542 2076.88 387.524 Q2078.5 386.482 2078.5 384.607 Q2078.5 382.871 2077.32 381.945 Q2076.16 381.019 2072.21 380.163 L2070.73 379.815 Q2066.77 378.982 2065.01 377.269 Q2063.25 375.533 2063.25 372.524 Q2063.25 368.866 2065.84 366.876 Q2068.43 364.885 2073.2 364.885 Q2075.56 364.885 2077.65 365.232 Q2079.73 365.579 2081.49 366.274 Z" fill="#000000" fill-rule="nonzero" fill-opacity="1" /><path clip-path="url(#clip150)" d="M2106.19 366.274 L2106.19 370.302 Q2104.38 369.376 2102.44 368.913 Q2100.49 368.45 2098.41 368.45 Q2095.24 368.45 2093.64 369.422 Q2092.07 370.394 2092.07 372.339 Q2092.07 373.82 2093.2 374.677 Q2094.34 375.51 2097.76 376.274 L2099.22 376.598 Q2103.76 377.57 2105.66 379.352 Q2107.58 381.112 2107.58 384.283 Q2107.58 387.894 2104.71 390.001 Q2101.86 392.107 2096.86 392.107 Q2094.78 392.107 2092.51 391.69 Q2090.26 391.297 2087.76 390.487 L2087.76 386.089 Q2090.12 387.315 2092.41 387.94 Q2094.71 388.542 2096.95 388.542 Q2099.96 388.542 2101.58 387.524 Q2103.2 386.482 2103.2 384.607 Q2103.2 382.871 2102.02 381.945 Q2100.86 381.019 2096.91 380.163 L2095.42 379.815 Q2091.47 378.982 2089.71 377.269 Q2087.95 375.533 2087.95 372.524 Q2087.95 368.866 2090.54 366.876 Q2093.13 364.885 2097.9 364.885 Q2100.26 364.885 2102.35 365.232 Q2104.43 365.579 2106.19 366.274 Z" fill="#000000" fill-rule="nonzero" fill-opacity="1" /><path clip-path="url(#clip150)" d="M2115.45 385.556 L2120.33 385.556 L2120.33 391.436 L2115.45 391.436 L2115.45 385.556 M2115.45 366.922 L2120.33 366.922 L2120.33 372.802 L2115.45 372.802 L2115.45 366.922 Z" fill="#000000" fill-rule="nonzero" fill-opacity="1" /><path clip-path="url(#clip150)" d="M2146.81 387.501 L2154.45 387.501 L2154.45 361.135 L2146.14 362.802 L2146.14 358.542 L2154.41 356.876 L2159.08 356.876 L2159.08 387.501 L2166.72 387.501 L2166.72 391.436 L2146.81 391.436 L2146.81 387.501 Z" fill="#000000" fill-rule="nonzero" fill-opacity="1" /><path clip-path="url(#clip150)" d="M2190.33 372.802 Q2193.69 373.519 2195.56 375.788 Q2197.46 378.056 2197.46 381.389 Q2197.46 386.505 2193.94 389.306 Q2190.42 392.107 2183.94 392.107 Q2181.77 392.107 2179.45 391.667 Q2177.16 391.251 2174.71 390.394 L2174.71 385.88 Q2176.65 387.014 2178.97 387.593 Q2181.28 388.172 2183.8 388.172 Q2188.2 388.172 2190.49 386.436 Q2192.81 384.7 2192.81 381.389 Q2192.81 378.334 2190.66 376.621 Q2188.53 374.885 2184.71 374.885 L2180.68 374.885 L2180.68 371.042 L2184.89 371.042 Q2188.34 371.042 2190.17 369.677 Q2192 368.288 2192 365.695 Q2192 363.033 2190.1 361.621 Q2188.22 360.186 2184.71 360.186 Q2182.78 360.186 2180.59 360.603 Q2178.39 361.019 2175.75 361.899 L2175.75 357.732 Q2178.41 356.991 2180.72 356.621 Q2183.06 356.251 2185.12 356.251 Q2190.45 356.251 2193.55 358.681 Q2196.65 361.089 2196.65 365.209 Q2196.65 368.079 2195.01 370.07 Q2193.36 372.038 2190.33 372.802 Z" fill="#000000" fill-rule="nonzero" fill-opacity="1" /><path clip-path="url(#clip150)" d="M2216.33 375.024 Q2212.99 375.024 2211.07 376.806 Q2209.17 378.589 2209.17 381.714 Q2209.17 384.839 2211.07 386.621 Q2212.99 388.403 2216.33 388.403 Q2219.66 388.403 2221.58 386.621 Q2223.5 384.815 2223.5 381.714 Q2223.5 378.589 2221.58 376.806 Q2219.68 375.024 2216.33 375.024 M2211.65 373.033 Q2208.64 372.292 2206.95 370.232 Q2205.28 368.172 2205.28 365.209 Q2205.28 361.066 2208.22 358.658 Q2211.19 356.251 2216.33 356.251 Q2221.49 356.251 2224.43 358.658 Q2227.37 361.066 2227.37 365.209 Q2227.37 368.172 2225.68 370.232 Q2224.01 372.292 2221.03 373.033 Q2224.4 373.82 2226.28 376.112 Q2228.18 378.403 2228.18 381.714 Q2228.18 386.737 2225.1 389.422 Q2222.04 392.107 2216.33 392.107 Q2210.61 392.107 2207.53 389.422 Q2204.47 386.737 2204.47 381.714 Q2204.47 378.403 2206.37 376.112 Q2208.27 373.82 2211.65 373.033 M2209.94 365.649 Q2209.94 368.334 2211.6 369.839 Q2213.29 371.343 2216.33 371.343 Q2219.34 371.343 2221.03 369.839 Q2222.74 368.334 2222.74 365.649 Q2222.74 362.964 2221.03 361.459 Q2219.34 359.954 2216.33 359.954 Q2213.29 359.954 2211.6 361.459 Q2209.94 362.964 2209.94 365.649 Z" fill="#000000" fill-rule="nonzero" fill-opacity="1" /><path clip-path="url(#clip150)" d="M2247.07 372.292 Q2243.92 372.292 2242.07 374.445 Q2240.24 376.598 2240.24 380.348 Q2240.24 384.075 2242.07 386.251 Q2243.92 388.403 2247.07 388.403 Q2250.21 388.403 2252.04 386.251 Q2253.9 384.075 2253.9 380.348 Q2253.9 376.598 2252.04 374.445 Q2250.21 372.292 2247.07 372.292 M2256.35 357.64 L2256.35 361.899 Q2254.59 361.066 2252.78 360.626 Q2251 360.186 2249.24 360.186 Q2244.61 360.186 2242.16 363.311 Q2239.73 366.436 2239.38 372.755 Q2240.75 370.741 2242.81 369.677 Q2244.87 368.589 2247.34 368.589 Q2252.55 368.589 2255.56 371.76 Q2258.59 374.908 2258.59 380.348 Q2258.59 385.672 2255.45 388.889 Q2252.3 392.107 2247.07 392.107 Q2241.07 392.107 2237.9 387.524 Q2234.73 382.917 2234.73 374.19 Q2234.73 365.996 2238.62 361.135 Q2242.51 356.251 2249.06 356.251 Q2250.82 356.251 2252.6 356.598 Q2254.4 356.945 2256.35 357.64 Z" fill="#000000" fill-rule="nonzero" fill-opacity="1" /></svg>
