<?xml version="1.0" encoding="utf-8"?>
<svg xmlns="http://www.w3.org/2000/svg" xmlns:xlink="http://www.w3.org/1999/xlink" width="600" height="400" viewBox="0 0 2400 1600">
<defs>
  <clipPath id="clip090">
    <rect x="0" y="0" width="2400" height="1600"/>
  </clipPath>
</defs>
<path clip-path="url(#clip090)" d="M0 1600 L2400 1600 L2400 0 L0 0  Z" fill="#ffffff" fill-rule="evenodd" fill-opacity="1"/>
<defs>
  <clipPath id="clip091">
    <rect x="480" y="0" width="1681" height="1600"/>
  </clipPath>
</defs>
<path clip-path="url(#clip090)" d="M247.459 1423.18 L2352.76 1423.18 L2352.76 123.472 L247.459 123.472  Z" fill="#ffffff" fill-rule="evenodd" fill-opacity="1"/>
<defs>
  <clipPath id="clip092">
    <rect x="247" y="123" width="2106" height="1301"/>
  </clipPath>
</defs>
<polyline clip-path="url(#clip092)" style="stroke:#000000; stroke-linecap:round; stroke-linejoin:round; stroke-width:2; stroke-opacity:0.1; fill:none" points="298.936,1423.18 298.936,123.472 "/>
<polyline clip-path="url(#clip092)" style="stroke:#000000; stroke-linecap:round; stroke-linejoin:round; stroke-width:2; stroke-opacity:0.1; fill:none" points="704.268,1423.18 704.268,123.472 "/>
<polyline clip-path="url(#clip092)" style="stroke:#000000; stroke-linecap:round; stroke-linejoin:round; stroke-width:2; stroke-opacity:0.1; fill:none" points="1109.6,1423.18 1109.6,123.472 "/>
<polyline clip-path="url(#clip092)" style="stroke:#000000; stroke-linecap:round; stroke-linejoin:round; stroke-width:2; stroke-opacity:0.1; fill:none" points="1514.93,1423.18 1514.93,123.472 "/>
<polyline clip-path="url(#clip092)" style="stroke:#000000; stroke-linecap:round; stroke-linejoin:round; stroke-width:2; stroke-opacity:0.1; fill:none" points="1920.27,1423.18 1920.27,123.472 "/>
<polyline clip-path="url(#clip092)" style="stroke:#000000; stroke-linecap:round; stroke-linejoin:round; stroke-width:2; stroke-opacity:0.1; fill:none" points="2325.6,1423.18 2325.6,123.472 "/>
<polyline clip-path="url(#clip092)" style="stroke:#000000; stroke-linecap:round; stroke-linejoin:round; stroke-width:2; stroke-opacity:0.1; fill:none" points="247.459,1386.4 2352.76,1386.4 "/>
<polyline clip-path="url(#clip092)" style="stroke:#000000; stroke-linecap:round; stroke-linejoin:round; stroke-width:2; stroke-opacity:0.1; fill:none" points="247.459,1167.44 2352.76,1167.44 "/>
<polyline clip-path="url(#clip092)" style="stroke:#000000; stroke-linecap:round; stroke-linejoin:round; stroke-width:2; stroke-opacity:0.1; fill:none" points="247.459,948.489 2352.76,948.489 "/>
<polyline clip-path="url(#clip092)" style="stroke:#000000; stroke-linecap:round; stroke-linejoin:round; stroke-width:2; stroke-opacity:0.1; fill:none" points="247.459,729.535 2352.76,729.535 "/>
<polyline clip-path="url(#clip092)" style="stroke:#000000; stroke-linecap:round; stroke-linejoin:round; stroke-width:2; stroke-opacity:0.1; fill:none" points="247.459,510.582 2352.76,510.582 "/>
<polyline clip-path="url(#clip092)" style="stroke:#000000; stroke-linecap:round; stroke-linejoin:round; stroke-width:2; stroke-opacity:0.1; fill:none" points="247.459,291.628 2352.76,291.628 "/>
<polyline clip-path="url(#clip090)" style="stroke:#000000; stroke-linecap:round; stroke-linejoin:round; stroke-width:4; stroke-opacity:1; fill:none" points="247.459,1423.18 2352.76,1423.18 "/>
<polyline clip-path="url(#clip090)" style="stroke:#000000; stroke-linecap:round; stroke-linejoin:round; stroke-width:4; stroke-opacity:1; fill:none" points="298.936,1423.18 298.936,1404.28 "/>
<polyline clip-path="url(#clip090)" style="stroke:#000000; stroke-linecap:round; stroke-linejoin:round; stroke-width:4; stroke-opacity:1; fill:none" points="704.268,1423.18 704.268,1404.28 "/>
<polyline clip-path="url(#clip090)" style="stroke:#000000; stroke-linecap:round; stroke-linejoin:round; stroke-width:4; stroke-opacity:1; fill:none" points="1109.6,1423.18 1109.6,1404.28 "/>
<polyline clip-path="url(#clip090)" style="stroke:#000000; stroke-linecap:round; stroke-linejoin:round; stroke-width:4; stroke-opacity:1; fill:none" points="1514.93,1423.18 1514.93,1404.28 "/>
<polyline clip-path="url(#clip090)" style="stroke:#000000; stroke-linecap:round; stroke-linejoin:round; stroke-width:4; stroke-opacity:1; fill:none" points="1920.27,1423.18 1920.27,1404.28 "/>
<polyline clip-path="url(#clip090)" style="stroke:#000000; stroke-linecap:round; stroke-linejoin:round; stroke-width:4; stroke-opacity:1; fill:none" points="2325.6,1423.18 2325.6,1404.28 "/>
<path clip-path="url(#clip090)" d="M298.936 1454.1 Q295.325 1454.1 293.496 1457.66 Q291.691 1461.2 291.691 1468.33 Q291.691 1475.44 293.496 1479.01 Q295.325 1482.55 298.936 1482.55 Q302.57 1482.55 304.376 1479.01 Q306.204 1475.44 306.204 1468.33 Q306.204 1461.2 304.376 1457.66 Q302.57 1454.1 298.936 1454.1 M298.936 1450.39 Q304.746 1450.39 307.802 1455 Q310.88 1459.58 310.88 1468.33 Q310.88 1477.06 307.802 1481.67 Q304.746 1486.25 298.936 1486.25 Q293.126 1486.25 290.047 1481.67 Q286.992 1477.06 286.992 1468.33 Q286.992 1459.58 290.047 1455 Q293.126 1450.39 298.936 1450.39 Z" fill="#000000" fill-rule="nonzero" fill-opacity="1" /><path clip-path="url(#clip090)" d="M678.968 1451.02 L697.324 1451.02 L697.324 1454.96 L683.25 1454.96 L683.25 1463.43 Q684.269 1463.08 685.287 1462.92 Q686.306 1462.73 687.324 1462.73 Q693.111 1462.73 696.491 1465.9 Q699.87 1469.08 699.87 1474.49 Q699.87 1480.07 696.398 1483.17 Q692.926 1486.25 686.607 1486.25 Q684.431 1486.25 682.162 1485.88 Q679.917 1485.51 677.509 1484.77 L677.509 1480.07 Q679.593 1481.2 681.815 1481.76 Q684.037 1482.32 686.514 1482.32 Q690.519 1482.32 692.857 1480.21 Q695.194 1478.1 695.194 1474.49 Q695.194 1470.88 692.857 1468.77 Q690.519 1466.67 686.514 1466.67 Q684.639 1466.67 682.764 1467.08 Q680.912 1467.5 678.968 1468.38 L678.968 1451.02 Z" fill="#000000" fill-rule="nonzero" fill-opacity="1" /><path clip-path="url(#clip090)" d="M719.083 1454.1 Q715.472 1454.1 713.643 1457.66 Q711.838 1461.2 711.838 1468.33 Q711.838 1475.44 713.643 1479.01 Q715.472 1482.55 719.083 1482.55 Q722.717 1482.55 724.523 1479.01 Q726.352 1475.44 726.352 1468.33 Q726.352 1461.2 724.523 1457.66 Q722.717 1454.1 719.083 1454.1 M719.083 1450.39 Q724.893 1450.39 727.949 1455 Q731.028 1459.58 731.028 1468.33 Q731.028 1477.06 727.949 1481.67 Q724.893 1486.25 719.083 1486.25 Q713.273 1486.25 710.194 1481.67 Q707.139 1477.06 707.139 1468.33 Q707.139 1459.58 710.194 1455 Q713.273 1450.39 719.083 1450.39 Z" fill="#000000" fill-rule="nonzero" fill-opacity="1" /><path clip-path="url(#clip090)" d="M1069.21 1481.64 L1076.85 1481.64 L1076.85 1455.28 L1068.54 1456.95 L1068.54 1452.69 L1076.8 1451.02 L1081.48 1451.02 L1081.48 1481.64 L1089.12 1481.64 L1089.12 1485.58 L1069.21 1485.58 L1069.21 1481.64 Z" fill="#000000" fill-rule="nonzero" fill-opacity="1" /><path clip-path="url(#clip090)" d="M1108.56 1454.1 Q1104.95 1454.1 1103.12 1457.66 Q1101.31 1461.2 1101.31 1468.33 Q1101.31 1475.44 1103.12 1479.01 Q1104.95 1482.55 1108.56 1482.55 Q1112.19 1482.55 1114 1479.01 Q1115.83 1475.44 1115.83 1468.33 Q1115.83 1461.2 1114 1457.66 Q1112.19 1454.1 1108.56 1454.1 M1108.56 1450.39 Q1114.37 1450.39 1117.43 1455 Q1120.5 1459.58 1120.5 1468.33 Q1120.5 1477.06 1117.43 1481.67 Q1114.37 1486.25 1108.56 1486.25 Q1102.75 1486.25 1099.67 1481.67 Q1096.61 1477.06 1096.61 1468.33 Q1096.61 1459.58 1099.67 1455 Q1102.75 1450.39 1108.56 1450.39 Z" fill="#000000" fill-rule="nonzero" fill-opacity="1" /><path clip-path="url(#clip090)" d="M1138.72 1454.1 Q1135.11 1454.1 1133.28 1457.66 Q1131.48 1461.2 1131.48 1468.33 Q1131.48 1475.44 1133.28 1479.01 Q1135.11 1482.55 1138.72 1482.55 Q1142.36 1482.55 1144.16 1479.01 Q1145.99 1475.44 1145.99 1468.33 Q1145.99 1461.2 1144.16 1457.66 Q1142.36 1454.1 1138.72 1454.1 M1138.72 1450.39 Q1144.53 1450.39 1147.59 1455 Q1150.67 1459.58 1150.67 1468.33 Q1150.67 1477.06 1147.59 1481.67 Q1144.53 1486.25 1138.72 1486.25 Q1132.91 1486.25 1129.83 1481.67 Q1126.78 1477.06 1126.78 1468.33 Q1126.78 1459.58 1129.83 1455 Q1132.91 1450.39 1138.72 1450.39 Z" fill="#000000" fill-rule="nonzero" fill-opacity="1" /><path clip-path="url(#clip090)" d="M1474.54 1481.64 L1482.18 1481.64 L1482.18 1455.28 L1473.87 1456.95 L1473.87 1452.69 L1482.13 1451.02 L1486.81 1451.02 L1486.81 1481.64 L1494.45 1481.64 L1494.45 1485.58 L1474.54 1485.58 L1474.54 1481.64 Z" fill="#000000" fill-rule="nonzero" fill-opacity="1" /><path clip-path="url(#clip090)" d="M1503.94 1451.02 L1522.29 1451.02 L1522.29 1454.96 L1508.22 1454.96 L1508.22 1463.43 Q1509.24 1463.08 1510.26 1462.92 Q1511.28 1462.73 1512.29 1462.73 Q1518.08 1462.73 1521.46 1465.9 Q1524.84 1469.08 1524.84 1474.49 Q1524.84 1480.07 1521.37 1483.17 Q1517.9 1486.25 1511.58 1486.25 Q1509.4 1486.25 1507.13 1485.88 Q1504.89 1485.51 1502.48 1484.77 L1502.48 1480.07 Q1504.56 1481.2 1506.79 1481.76 Q1509.01 1482.32 1511.48 1482.32 Q1515.49 1482.32 1517.83 1480.21 Q1520.17 1478.1 1520.17 1474.49 Q1520.17 1470.88 1517.83 1468.77 Q1515.49 1466.67 1511.48 1466.67 Q1509.61 1466.67 1507.73 1467.08 Q1505.88 1467.5 1503.94 1468.38 L1503.94 1451.02 Z" fill="#000000" fill-rule="nonzero" fill-opacity="1" /><path clip-path="url(#clip090)" d="M1544.05 1454.1 Q1540.44 1454.1 1538.61 1457.66 Q1536.81 1461.2 1536.81 1468.33 Q1536.81 1475.44 1538.61 1479.01 Q1540.44 1482.55 1544.05 1482.55 Q1547.69 1482.55 1549.49 1479.01 Q1551.32 1475.44 1551.32 1468.33 Q1551.32 1461.2 1549.49 1457.66 Q1547.69 1454.1 1544.05 1454.1 M1544.05 1450.39 Q1549.86 1450.39 1552.92 1455 Q1556 1459.58 1556 1468.33 Q1556 1477.06 1552.92 1481.67 Q1549.86 1486.25 1544.05 1486.25 Q1538.24 1486.25 1535.16 1481.67 Q1532.11 1477.06 1532.11 1468.33 Q1532.11 1459.58 1535.16 1455 Q1538.24 1450.39 1544.05 1450.39 Z" fill="#000000" fill-rule="nonzero" fill-opacity="1" /><path clip-path="url(#clip090)" d="M1883.96 1481.64 L1900.28 1481.64 L1900.28 1485.58 L1878.33 1485.58 L1878.33 1481.64 Q1881 1478.89 1885.58 1474.26 Q1890.19 1469.61 1891.37 1468.27 Q1893.61 1465.74 1894.49 1464.01 Q1895.39 1462.25 1895.39 1460.56 Q1895.39 1457.8 1893.45 1456.07 Q1891.53 1454.33 1888.43 1454.33 Q1886.23 1454.33 1883.77 1455.09 Q1881.34 1455.86 1878.56 1457.41 L1878.56 1452.69 Q1881.39 1451.55 1883.84 1450.97 Q1886.3 1450.39 1888.33 1450.39 Q1893.7 1450.39 1896.9 1453.08 Q1900.09 1455.77 1900.09 1460.26 Q1900.09 1462.39 1899.28 1464.31 Q1898.5 1466.2 1896.39 1468.8 Q1895.81 1469.47 1892.71 1472.69 Q1889.61 1475.88 1883.96 1481.64 Z" fill="#000000" fill-rule="nonzero" fill-opacity="1" /><path clip-path="url(#clip090)" d="M1920.09 1454.1 Q1916.48 1454.1 1914.65 1457.66 Q1912.85 1461.2 1912.85 1468.33 Q1912.85 1475.44 1914.65 1479.01 Q1916.48 1482.55 1920.09 1482.55 Q1923.73 1482.55 1925.53 1479.01 Q1927.36 1475.44 1927.36 1468.33 Q1927.36 1461.2 1925.53 1457.66 Q1923.73 1454.1 1920.09 1454.1 M1920.09 1450.39 Q1925.9 1450.39 1928.96 1455 Q1932.04 1459.58 1932.04 1468.33 Q1932.04 1477.06 1928.96 1481.67 Q1925.9 1486.25 1920.09 1486.25 Q1914.28 1486.25 1911.2 1481.67 Q1908.15 1477.06 1908.15 1468.33 Q1908.15 1459.58 1911.2 1455 Q1914.28 1450.39 1920.09 1450.39 Z" fill="#000000" fill-rule="nonzero" fill-opacity="1" /><path clip-path="url(#clip090)" d="M1950.25 1454.1 Q1946.64 1454.1 1944.81 1457.66 Q1943.01 1461.2 1943.01 1468.33 Q1943.01 1475.44 1944.81 1479.01 Q1946.64 1482.55 1950.25 1482.55 Q1953.89 1482.55 1955.69 1479.01 Q1957.52 1475.44 1957.52 1468.33 Q1957.52 1461.2 1955.69 1457.66 Q1953.89 1454.1 1950.25 1454.1 M1950.25 1450.39 Q1956.06 1450.39 1959.12 1455 Q1962.2 1459.58 1962.2 1468.33 Q1962.2 1477.06 1959.12 1481.67 Q1956.06 1486.25 1950.25 1486.25 Q1944.44 1486.25 1941.37 1481.67 Q1938.31 1477.06 1938.31 1468.33 Q1938.31 1459.58 1941.37 1455 Q1944.44 1450.39 1950.25 1450.39 Z" fill="#000000" fill-rule="nonzero" fill-opacity="1" /><path clip-path="url(#clip090)" d="M2289.29 1481.64 L2305.61 1481.64 L2305.61 1485.58 L2283.67 1485.58 L2283.67 1481.64 Q2286.33 1478.89 2290.91 1474.26 Q2295.52 1469.61 2296.7 1468.27 Q2298.94 1465.74 2299.82 1464.01 Q2300.73 1462.25 2300.73 1460.56 Q2300.73 1457.8 2298.78 1456.07 Q2296.86 1454.33 2293.76 1454.33 Q2291.56 1454.33 2289.11 1455.09 Q2286.68 1455.86 2283.9 1457.41 L2283.9 1452.69 Q2286.72 1451.55 2289.18 1450.97 Q2291.63 1450.39 2293.67 1450.39 Q2299.04 1450.39 2302.23 1453.08 Q2305.43 1455.77 2305.43 1460.26 Q2305.43 1462.39 2304.61 1464.31 Q2303.83 1466.2 2301.72 1468.8 Q2301.14 1469.47 2298.04 1472.69 Q2294.94 1475.88 2289.29 1481.64 Z" fill="#000000" fill-rule="nonzero" fill-opacity="1" /><path clip-path="url(#clip090)" d="M2315.47 1451.02 L2333.83 1451.02 L2333.83 1454.96 L2319.75 1454.96 L2319.75 1463.43 Q2320.77 1463.08 2321.79 1462.92 Q2322.81 1462.73 2323.83 1462.73 Q2329.61 1462.73 2332.99 1465.9 Q2336.37 1469.08 2336.37 1474.49 Q2336.37 1480.07 2332.9 1483.17 Q2329.43 1486.25 2323.11 1486.25 Q2320.93 1486.25 2318.67 1485.88 Q2316.42 1485.51 2314.01 1484.77 L2314.01 1480.07 Q2316.1 1481.2 2318.32 1481.76 Q2320.54 1482.32 2323.02 1482.32 Q2327.02 1482.32 2329.36 1480.21 Q2331.7 1478.1 2331.7 1474.49 Q2331.7 1470.88 2329.36 1468.77 Q2327.02 1466.67 2323.02 1466.67 Q2321.14 1466.67 2319.27 1467.08 Q2317.42 1467.5 2315.47 1468.38 L2315.47 1451.02 Z" fill="#000000" fill-rule="nonzero" fill-opacity="1" /><path clip-path="url(#clip090)" d="M2355.59 1454.1 Q2351.98 1454.1 2350.15 1457.66 Q2348.34 1461.2 2348.34 1468.33 Q2348.34 1475.44 2350.15 1479.01 Q2351.98 1482.55 2355.59 1482.55 Q2359.22 1482.55 2361.03 1479.01 Q2362.86 1475.44 2362.86 1468.33 Q2362.86 1461.2 2361.03 1457.66 Q2359.22 1454.1 2355.59 1454.1 M2355.59 1450.39 Q2361.4 1450.39 2364.45 1455 Q2367.53 1459.58 2367.53 1468.33 Q2367.53 1477.06 2364.45 1481.67 Q2361.4 1486.25 2355.59 1486.25 Q2349.78 1486.25 2346.7 1481.67 Q2343.64 1477.06 2343.64 1468.33 Q2343.64 1459.58 2346.7 1455 Q2349.78 1450.39 2355.59 1450.39 Z" fill="#000000" fill-rule="nonzero" fill-opacity="1" /><path clip-path="url(#clip090)" d="M1085.74 1520.52 L1115.79 1520.52 L1115.79 1525.93 L1092.17 1525.93 L1092.17 1540 L1114.8 1540 L1114.8 1545.41 L1092.17 1545.41 L1092.17 1562.63 L1116.36 1562.63 L1116.36 1568.04 L1085.74 1568.04 L1085.74 1520.52 Z" fill="#000000" fill-rule="nonzero" fill-opacity="1" /><path clip-path="url(#clip090)" d="M1156.31 1546.53 L1156.31 1568.04 L1150.45 1568.04 L1150.45 1546.72 Q1150.45 1541.66 1148.48 1539.14 Q1146.5 1536.63 1142.56 1536.63 Q1137.81 1536.63 1135.08 1539.65 Q1132.34 1542.68 1132.34 1547.9 L1132.34 1568.04 L1126.45 1568.04 L1126.45 1532.4 L1132.34 1532.4 L1132.34 1537.93 Q1134.44 1534.72 1137.27 1533.13 Q1140.14 1531.54 1143.86 1531.54 Q1150 1531.54 1153.15 1535.36 Q1156.31 1539.14 1156.31 1546.53 Z" fill="#000000" fill-rule="nonzero" fill-opacity="1" /><path clip-path="url(#clip090)" d="M1198.48 1548.76 L1198.48 1551.62 L1171.55 1551.62 Q1171.93 1557.67 1175.18 1560.85 Q1178.46 1564 1184.28 1564 Q1187.66 1564 1190.81 1563.17 Q1193.99 1562.35 1197.11 1560.69 L1197.11 1566.23 Q1193.96 1567.57 1190.65 1568.27 Q1187.34 1568.97 1183.93 1568.97 Q1175.4 1568.97 1170.41 1564 Q1165.44 1559.04 1165.44 1550.57 Q1165.44 1541.82 1170.15 1536.69 Q1174.89 1531.54 1182.91 1531.54 Q1190.11 1531.54 1194.28 1536.18 Q1198.48 1540.8 1198.48 1548.76 M1192.62 1547.04 Q1192.56 1542.23 1189.92 1539.37 Q1187.31 1536.5 1182.98 1536.5 Q1178.08 1536.5 1175.12 1539.27 Q1172.19 1542.04 1171.74 1547.07 L1192.62 1547.04 Z" fill="#000000" fill-rule="nonzero" fill-opacity="1" /><path clip-path="url(#clip090)" d="M1228.75 1537.87 Q1227.76 1537.3 1226.58 1537.04 Q1225.44 1536.76 1224.04 1536.76 Q1219.07 1536.76 1216.4 1540 Q1213.76 1543.22 1213.76 1549.27 L1213.76 1568.04 L1207.87 1568.04 L1207.87 1532.4 L1213.76 1532.4 L1213.76 1537.93 Q1215.6 1534.69 1218.56 1533.13 Q1221.52 1531.54 1225.76 1531.54 Q1226.36 1531.54 1227.09 1531.63 Q1227.82 1531.7 1228.72 1531.85 L1228.75 1537.87 Z" fill="#000000" fill-rule="nonzero" fill-opacity="1" /><path clip-path="url(#clip090)" d="M1257.2 1549.81 Q1257.2 1543.44 1254.56 1539.94 Q1251.95 1536.44 1247.21 1536.44 Q1242.5 1536.44 1239.86 1539.94 Q1237.25 1543.44 1237.25 1549.81 Q1237.25 1556.14 1239.86 1559.64 Q1242.5 1563.14 1247.21 1563.14 Q1251.95 1563.14 1254.56 1559.64 Q1257.2 1556.14 1257.2 1549.81 M1263.06 1563.62 Q1263.06 1572.72 1259.02 1577.15 Q1254.97 1581.6 1246.64 1581.6 Q1243.55 1581.6 1240.81 1581.13 Q1238.07 1580.68 1235.5 1579.72 L1235.5 1574.03 Q1238.07 1575.43 1240.59 1576.1 Q1243.1 1576.76 1245.71 1576.76 Q1251.47 1576.76 1254.34 1573.74 Q1257.2 1570.75 1257.2 1564.67 L1257.2 1561.77 Q1255.39 1564.92 1252.56 1566.48 Q1249.72 1568.04 1245.78 1568.04 Q1239.22 1568.04 1235.21 1563.05 Q1231.2 1558.05 1231.2 1549.81 Q1231.2 1541.53 1235.21 1536.53 Q1239.22 1531.54 1245.78 1531.54 Q1249.72 1531.54 1252.56 1533.1 Q1255.39 1534.66 1257.2 1537.81 L1257.2 1532.4 L1263.06 1532.4 L1263.06 1563.62 Z" fill="#000000" fill-rule="nonzero" fill-opacity="1" /><path clip-path="url(#clip090)" d="M1289.95 1571.35 Q1287.47 1577.72 1285.12 1579.66 Q1282.76 1581.6 1278.81 1581.6 L1274.14 1581.6 L1274.14 1576.7 L1277.57 1576.7 Q1279.99 1576.7 1281.33 1575.56 Q1282.67 1574.41 1284.29 1570.14 L1285.34 1567.47 L1270.92 1532.4 L1277.13 1532.4 L1288.27 1560.28 L1299.41 1532.4 L1305.61 1532.4 L1289.95 1571.35 Z" fill="#000000" fill-rule="nonzero" fill-opacity="1" /><path clip-path="url(#clip090)" d="M1348.49 1518.58 Q1344.22 1525.9 1342.15 1533.06 Q1340.08 1540.23 1340.08 1547.58 Q1340.08 1554.93 1342.15 1562.16 Q1344.25 1569.35 1348.49 1576.64 L1343.39 1576.64 Q1338.62 1569.16 1336.23 1561.93 Q1333.88 1554.71 1333.88 1547.58 Q1333.88 1540.48 1336.23 1533.29 Q1338.59 1526.09 1343.39 1518.58 L1348.49 1518.58 Z" fill="#000000" fill-rule="nonzero" fill-opacity="1" /><path clip-path="url(#clip090)" d="M1360.1 1520.52 L1369.68 1520.52 L1381.81 1552.86 L1394 1520.52 L1403.58 1520.52 L1403.58 1568.04 L1397.31 1568.04 L1397.31 1526.32 L1385.06 1558.91 L1378.6 1558.91 L1366.34 1526.32 L1366.34 1568.04 L1360.1 1568.04 L1360.1 1520.52 Z" fill="#000000" fill-rule="nonzero" fill-opacity="1" /><path clip-path="url(#clip090)" d="M1446.58 1548.76 L1446.58 1551.62 L1419.66 1551.62 Q1420.04 1557.67 1423.28 1560.85 Q1426.56 1564 1432.39 1564 Q1435.76 1564 1438.91 1563.17 Q1442.09 1562.35 1445.21 1560.69 L1445.21 1566.23 Q1442.06 1567.57 1438.75 1568.27 Q1435.44 1568.97 1432.04 1568.97 Q1423.51 1568.97 1418.51 1564 Q1413.54 1559.04 1413.54 1550.57 Q1413.54 1541.82 1418.25 1536.69 Q1423 1531.54 1431.02 1531.54 Q1438.21 1531.54 1442.38 1536.18 Q1446.58 1540.8 1446.58 1548.76 M1440.73 1547.04 Q1440.66 1542.23 1438.02 1539.37 Q1435.41 1536.5 1431.08 1536.5 Q1426.18 1536.5 1423.22 1539.27 Q1420.29 1542.04 1419.85 1547.07 L1440.73 1547.04 Z" fill="#000000" fill-rule="nonzero" fill-opacity="1" /><path clip-path="url(#clip090)" d="M1468.7 1568.04 L1450.56 1520.52 L1457.28 1520.52 L1472.33 1560.53 L1487.42 1520.52 L1494.1 1520.52 L1475.99 1568.04 L1468.7 1568.04 Z" fill="#000000" fill-rule="nonzero" fill-opacity="1" /><path clip-path="url(#clip090)" d="M1499.86 1518.58 L1504.96 1518.58 Q1509.73 1526.09 1512.09 1533.29 Q1514.47 1540.48 1514.47 1547.58 Q1514.47 1554.71 1512.09 1561.93 Q1509.73 1569.16 1504.96 1576.64 L1499.86 1576.64 Q1504.1 1569.35 1506.17 1562.16 Q1508.27 1554.93 1508.27 1547.58 Q1508.27 1540.23 1506.17 1533.06 Q1504.1 1525.9 1499.86 1518.58 Z" fill="#000000" fill-rule="nonzero" fill-opacity="1" /><polyline clip-path="url(#clip090)" style="stroke:#000000; stroke-linecap:round; stroke-linejoin:round; stroke-width:4; stroke-opacity:1; fill:none" points="247.459,1423.18 247.459,123.472 "/>
<polyline clip-path="url(#clip090)" style="stroke:#000000; stroke-linecap:round; stroke-linejoin:round; stroke-width:4; stroke-opacity:1; fill:none" points="247.459,1386.4 266.356,1386.4 "/>
<polyline clip-path="url(#clip090)" style="stroke:#000000; stroke-linecap:round; stroke-linejoin:round; stroke-width:4; stroke-opacity:1; fill:none" points="247.459,1167.44 266.356,1167.44 "/>
<polyline clip-path="url(#clip090)" style="stroke:#000000; stroke-linecap:round; stroke-linejoin:round; stroke-width:4; stroke-opacity:1; fill:none" points="247.459,948.489 266.356,948.489 "/>
<polyline clip-path="url(#clip090)" style="stroke:#000000; stroke-linecap:round; stroke-linejoin:round; stroke-width:4; stroke-opacity:1; fill:none" points="247.459,729.535 266.356,729.535 "/>
<polyline clip-path="url(#clip090)" style="stroke:#000000; stroke-linecap:round; stroke-linejoin:round; stroke-width:4; stroke-opacity:1; fill:none" points="247.459,510.582 266.356,510.582 "/>
<polyline clip-path="url(#clip090)" style="stroke:#000000; stroke-linecap:round; stroke-linejoin:round; stroke-width:4; stroke-opacity:1; fill:none" points="247.459,291.628 266.356,291.628 "/>
<path clip-path="url(#clip090)" d="M154.283 1372.19 Q150.672 1372.19 148.843 1375.76 Q147.038 1379.3 147.038 1386.43 Q147.038 1393.54 148.843 1397.1 Q150.672 1400.64 154.283 1400.64 Q157.917 1400.64 159.723 1397.1 Q161.552 1393.54 161.552 1386.43 Q161.552 1379.3 159.723 1375.76 Q157.917 1372.19 154.283 1372.19 M154.283 1368.49 Q160.093 1368.49 163.149 1373.1 Q166.227 1377.68 166.227 1386.43 Q166.227 1395.16 163.149 1399.76 Q160.093 1404.35 154.283 1404.35 Q148.473 1404.35 145.394 1399.76 Q142.339 1395.16 142.339 1386.43 Q142.339 1377.68 145.394 1373.1 Q148.473 1368.49 154.283 1368.49 Z" fill="#000000" fill-rule="nonzero" fill-opacity="1" /><path clip-path="url(#clip090)" d="M174.445 1397.8 L179.329 1397.8 L179.329 1403.68 L174.445 1403.68 L174.445 1397.8 Z" fill="#000000" fill-rule="nonzero" fill-opacity="1" /><path clip-path="url(#clip090)" d="M199.514 1372.19 Q195.903 1372.19 194.075 1375.76 Q192.269 1379.3 192.269 1386.43 Q192.269 1393.54 194.075 1397.1 Q195.903 1400.64 199.514 1400.64 Q203.149 1400.64 204.954 1397.1 Q206.783 1393.54 206.783 1386.43 Q206.783 1379.3 204.954 1375.76 Q203.149 1372.19 199.514 1372.19 M199.514 1368.49 Q205.324 1368.49 208.38 1373.1 Q211.459 1377.68 211.459 1386.43 Q211.459 1395.16 208.38 1399.76 Q205.324 1404.35 199.514 1404.35 Q193.704 1404.35 190.625 1399.76 Q187.57 1395.16 187.57 1386.43 Q187.57 1377.68 190.625 1373.1 Q193.704 1368.49 199.514 1368.49 Z" fill="#000000" fill-rule="nonzero" fill-opacity="1" /><path clip-path="url(#clip090)" d="M149.306 1180.79 L165.626 1180.79 L165.626 1184.72 L143.681 1184.72 L143.681 1180.79 Q146.343 1178.03 150.927 1173.4 Q155.533 1168.75 156.714 1167.41 Q158.959 1164.88 159.839 1163.15 Q160.741 1161.39 160.741 1159.7 Q160.741 1156.94 158.797 1155.21 Q156.876 1153.47 153.774 1153.47 Q151.575 1153.47 149.121 1154.24 Q146.691 1155 143.913 1156.55 L143.913 1151.83 Q146.737 1150.69 149.191 1150.12 Q151.644 1149.54 153.681 1149.54 Q159.052 1149.54 162.246 1152.22 Q165.44 1154.91 165.44 1159.4 Q165.44 1161.53 164.63 1163.45 Q163.843 1165.35 161.737 1167.94 Q161.158 1168.61 158.056 1171.83 Q154.954 1175.02 149.306 1180.79 Z" fill="#000000" fill-rule="nonzero" fill-opacity="1" /><path clip-path="url(#clip090)" d="M175.44 1178.84 L180.325 1178.84 L180.325 1184.72 L175.44 1184.72 L175.44 1178.84 Z" fill="#000000" fill-rule="nonzero" fill-opacity="1" /><path clip-path="url(#clip090)" d="M190.556 1150.16 L208.912 1150.16 L208.912 1154.1 L194.838 1154.1 L194.838 1162.57 Q195.857 1162.22 196.875 1162.06 Q197.894 1161.88 198.912 1161.88 Q204.699 1161.88 208.079 1165.05 Q211.459 1168.22 211.459 1173.63 Q211.459 1179.21 207.987 1182.31 Q204.514 1185.39 198.195 1185.39 Q196.019 1185.39 193.75 1185.02 Q191.505 1184.65 189.098 1183.91 L189.098 1179.21 Q191.181 1180.35 193.403 1180.9 Q195.625 1181.46 198.102 1181.46 Q202.107 1181.46 204.445 1179.35 Q206.783 1177.25 206.783 1173.63 Q206.783 1170.02 204.445 1167.92 Q202.107 1165.81 198.102 1165.81 Q196.227 1165.81 194.352 1166.23 Q192.5 1166.64 190.556 1167.52 L190.556 1150.16 Z" fill="#000000" fill-rule="nonzero" fill-opacity="1" /><path clip-path="url(#clip090)" d="M144.329 931.209 L162.686 931.209 L162.686 935.144 L148.612 935.144 L148.612 943.616 Q149.63 943.269 150.649 943.107 Q151.667 942.922 152.686 942.922 Q158.473 942.922 161.852 946.093 Q165.232 949.264 165.232 954.681 Q165.232 960.26 161.76 963.361 Q158.288 966.44 151.968 966.44 Q149.792 966.44 147.524 966.07 Q145.279 965.699 142.871 964.959 L142.871 960.26 Q144.954 961.394 147.177 961.949 Q149.399 962.505 151.876 962.505 Q155.88 962.505 158.218 960.398 Q160.556 958.292 160.556 954.681 Q160.556 951.07 158.218 948.963 Q155.88 946.857 151.876 946.857 Q150.001 946.857 148.126 947.273 Q146.274 947.69 144.329 948.57 L144.329 931.209 Z" fill="#000000" fill-rule="nonzero" fill-opacity="1" /><path clip-path="url(#clip090)" d="M174.445 959.889 L179.329 959.889 L179.329 965.769 L174.445 965.769 L174.445 959.889 Z" fill="#000000" fill-rule="nonzero" fill-opacity="1" /><path clip-path="url(#clip090)" d="M199.514 934.287 Q195.903 934.287 194.075 937.852 Q192.269 941.394 192.269 948.523 Q192.269 955.63 194.075 959.195 Q195.903 962.736 199.514 962.736 Q203.149 962.736 204.954 959.195 Q206.783 955.63 206.783 948.523 Q206.783 941.394 204.954 937.852 Q203.149 934.287 199.514 934.287 M199.514 930.584 Q205.324 930.584 208.38 935.19 Q211.459 939.774 211.459 948.523 Q211.459 957.25 208.38 961.857 Q205.324 966.44 199.514 966.44 Q193.704 966.44 190.625 961.857 Q187.57 957.25 187.57 948.523 Q187.57 939.774 190.625 935.19 Q193.704 930.584 199.514 930.584 Z" fill="#000000" fill-rule="nonzero" fill-opacity="1" /><path clip-path="url(#clip090)" d="M144.098 712.255 L166.32 712.255 L166.32 714.246 L153.774 746.815 L148.89 746.815 L160.695 716.19 L144.098 716.19 L144.098 712.255 Z" fill="#000000" fill-rule="nonzero" fill-opacity="1" /><path clip-path="url(#clip090)" d="M175.44 740.936 L180.325 740.936 L180.325 746.815 L175.44 746.815 L175.44 740.936 Z" fill="#000000" fill-rule="nonzero" fill-opacity="1" /><path clip-path="url(#clip090)" d="M190.556 712.255 L208.912 712.255 L208.912 716.19 L194.838 716.19 L194.838 724.663 Q195.857 724.315 196.875 724.153 Q197.894 723.968 198.912 723.968 Q204.699 723.968 208.079 727.139 Q211.459 730.311 211.459 735.727 Q211.459 741.306 207.987 744.408 Q204.514 747.487 198.195 747.487 Q196.019 747.487 193.75 747.116 Q191.505 746.746 189.098 746.005 L189.098 741.306 Q191.181 742.44 193.403 742.996 Q195.625 743.551 198.102 743.551 Q202.107 743.551 204.445 741.445 Q206.783 739.338 206.783 735.727 Q206.783 732.116 204.445 730.01 Q202.107 727.903 198.102 727.903 Q196.227 727.903 194.352 728.32 Q192.5 728.737 190.556 729.616 L190.556 712.255 Z" fill="#000000" fill-rule="nonzero" fill-opacity="1" /><path clip-path="url(#clip090)" d="M114.931 523.927 L122.57 523.927 L122.57 497.561 L114.26 499.228 L114.26 494.968 L122.524 493.302 L127.2 493.302 L127.2 523.927 L134.839 523.927 L134.839 527.862 L114.931 527.862 L114.931 523.927 Z" fill="#000000" fill-rule="nonzero" fill-opacity="1" /><path clip-path="url(#clip090)" d="M154.283 496.381 Q150.672 496.381 148.843 499.945 Q147.038 503.487 147.038 510.617 Q147.038 517.723 148.843 521.288 Q150.672 524.829 154.283 524.829 Q157.917 524.829 159.723 521.288 Q161.552 517.723 161.552 510.617 Q161.552 503.487 159.723 499.945 Q157.917 496.381 154.283 496.381 M154.283 492.677 Q160.093 492.677 163.149 497.283 Q166.227 501.867 166.227 510.617 Q166.227 519.343 163.149 523.95 Q160.093 528.533 154.283 528.533 Q148.473 528.533 145.394 523.95 Q142.339 519.343 142.339 510.617 Q142.339 501.867 145.394 497.283 Q148.473 492.677 154.283 492.677 Z" fill="#000000" fill-rule="nonzero" fill-opacity="1" /><path clip-path="url(#clip090)" d="M174.445 521.982 L179.329 521.982 L179.329 527.862 L174.445 527.862 L174.445 521.982 Z" fill="#000000" fill-rule="nonzero" fill-opacity="1" /><path clip-path="url(#clip090)" d="M199.514 496.381 Q195.903 496.381 194.075 499.945 Q192.269 503.487 192.269 510.617 Q192.269 517.723 194.075 521.288 Q195.903 524.829 199.514 524.829 Q203.149 524.829 204.954 521.288 Q206.783 517.723 206.783 510.617 Q206.783 503.487 204.954 499.945 Q203.149 496.381 199.514 496.381 M199.514 492.677 Q205.324 492.677 208.38 497.283 Q211.459 501.867 211.459 510.617 Q211.459 519.343 208.38 523.95 Q205.324 528.533 199.514 528.533 Q193.704 528.533 190.625 523.95 Q187.57 519.343 187.57 510.617 Q187.57 501.867 190.625 497.283 Q193.704 492.677 199.514 492.677 Z" fill="#000000" fill-rule="nonzero" fill-opacity="1" /><path clip-path="url(#clip090)" d="M115.927 304.973 L123.566 304.973 L123.566 278.608 L115.256 280.274 L115.256 276.015 L123.519 274.348 L128.195 274.348 L128.195 304.973 L135.834 304.973 L135.834 308.908 L115.927 308.908 L115.927 304.973 Z" fill="#000000" fill-rule="nonzero" fill-opacity="1" /><path clip-path="url(#clip090)" d="M149.306 304.973 L165.626 304.973 L165.626 308.908 L143.681 308.908 L143.681 304.973 Q146.343 302.219 150.927 297.589 Q155.533 292.936 156.714 291.594 Q158.959 289.071 159.839 287.334 Q160.741 285.575 160.741 283.885 Q160.741 281.131 158.797 279.395 Q156.876 277.659 153.774 277.659 Q151.575 277.659 149.121 278.422 Q146.691 279.186 143.913 280.737 L143.913 276.015 Q146.737 274.881 149.191 274.302 Q151.644 273.723 153.681 273.723 Q159.052 273.723 162.246 276.409 Q165.44 279.094 165.44 283.584 Q165.44 285.714 164.63 287.635 Q163.843 289.533 161.737 292.126 Q161.158 292.797 158.056 296.015 Q154.954 299.209 149.306 304.973 Z" fill="#000000" fill-rule="nonzero" fill-opacity="1" /><path clip-path="url(#clip090)" d="M175.44 303.029 L180.325 303.029 L180.325 308.908 L175.44 308.908 L175.44 303.029 Z" fill="#000000" fill-rule="nonzero" fill-opacity="1" /><path clip-path="url(#clip090)" d="M190.556 274.348 L208.912 274.348 L208.912 278.284 L194.838 278.284 L194.838 286.756 Q195.857 286.409 196.875 286.246 Q197.894 286.061 198.912 286.061 Q204.699 286.061 208.079 289.233 Q211.459 292.404 211.459 297.82 Q211.459 303.399 207.987 306.501 Q204.514 309.58 198.195 309.58 Q196.019 309.58 193.75 309.209 Q191.505 308.839 189.098 308.098 L189.098 303.399 Q191.181 304.533 193.403 305.089 Q195.625 305.645 198.102 305.645 Q202.107 305.645 204.445 303.538 Q206.783 301.432 206.783 297.82 Q206.783 294.209 204.445 292.103 Q202.107 289.996 198.102 289.996 Q196.227 289.996 194.352 290.413 Q192.5 290.83 190.556 291.709 L190.556 274.348 Z" fill="#000000" fill-rule="nonzero" fill-opacity="1" /><path clip-path="url(#clip090)" d="M20.1444 845.354 L26.9239 845.354 Q23.9002 848.6 22.4043 852.293 Q20.9083 855.953 20.9083 860.091 Q20.9083 868.239 25.9054 872.567 Q30.8707 876.896 40.2919 876.896 Q49.6813 876.896 54.6784 872.567 Q59.6436 868.239 59.6436 860.091 Q59.6436 855.953 58.1477 852.293 Q56.6518 848.6 53.6281 845.354 L60.3439 845.354 Q62.6355 848.728 63.7814 852.515 Q64.9272 856.271 64.9272 860.473 Q64.9272 871.262 58.3387 877.469 Q51.7183 883.676 40.2919 883.676 Q28.8336 883.676 22.2451 877.469 Q15.6248 871.262 15.6248 860.473 Q15.6248 856.207 16.7706 852.452 Q17.8846 848.664 20.1444 845.354 Z" fill="#000000" fill-rule="nonzero" fill-opacity="1" /><path clip-path="url(#clip090)" d="M32.4621 821.864 Q32.4621 826.575 36.1542 829.312 Q39.8145 832.05 46.212 832.05 Q52.6095 832.05 56.3017 829.344 Q59.9619 826.607 59.9619 821.864 Q59.9619 817.186 56.2698 814.448 Q52.5777 811.711 46.212 811.711 Q39.8781 811.711 36.186 814.448 Q32.4621 817.186 32.4621 821.864 M27.4968 821.864 Q27.4968 814.226 32.4621 809.865 Q37.4273 805.505 46.212 805.505 Q54.9649 805.505 59.9619 809.865 Q64.9272 814.226 64.9272 821.864 Q64.9272 829.535 59.9619 833.896 Q54.9649 838.224 46.212 838.224 Q37.4273 838.224 32.4621 833.896 Q27.4968 829.535 27.4968 821.864 Z" fill="#000000" fill-rule="nonzero" fill-opacity="1" /><path clip-path="url(#clip090)" d="M49.9359 796.402 L28.3562 796.402 L28.3562 790.545 L49.7131 790.545 Q54.7739 790.545 57.3202 788.572 Q59.8346 786.598 59.8346 782.652 Q59.8346 777.909 56.8109 775.172 Q53.7872 772.403 48.5673 772.403 L28.3562 772.403 L28.3562 766.547 L64.0042 766.547 L64.0042 772.403 L58.5296 772.403 Q61.7762 774.535 63.3676 777.368 Q64.9272 780.169 64.9272 783.893 Q64.9272 790.036 61.1078 793.219 Q57.2883 796.402 49.9359 796.402 M27.4968 781.665 L27.4968 781.665 Z" fill="#000000" fill-rule="nonzero" fill-opacity="1" /><path clip-path="url(#clip090)" d="M42.4881 724.851 L64.0042 724.851 L64.0042 730.708 L42.679 730.708 Q37.6183 730.708 35.1038 732.681 Q32.5894 734.654 32.5894 738.601 Q32.5894 743.344 35.6131 746.081 Q38.6368 748.818 43.8567 748.818 L64.0042 748.818 L64.0042 754.706 L28.3562 754.706 L28.3562 748.818 L33.8944 748.818 Q30.6797 746.717 29.0883 743.885 Q27.4968 741.02 27.4968 737.296 Q27.4968 731.153 31.3163 728.002 Q35.1038 724.851 42.4881 724.851 Z" fill="#000000" fill-rule="nonzero" fill-opacity="1" /><path clip-path="url(#clip090)" d="M18.2347 707.377 L28.3562 707.377 L28.3562 695.314 L32.9077 695.314 L32.9077 707.377 L52.2594 707.377 Q56.6199 707.377 57.8613 706.2 Q59.1026 704.99 59.1026 701.33 L59.1026 695.314 L64.0042 695.314 L64.0042 701.33 Q64.0042 708.109 61.4897 710.687 Q58.9434 713.266 52.2594 713.266 L32.9077 713.266 L32.9077 717.562 L28.3562 717.562 L28.3562 713.266 L18.2347 713.266 L18.2347 707.377 Z" fill="#000000" fill-rule="nonzero" fill-opacity="1" /><path clip-path="url(#clip090)" d="M29.4065 664.886 L34.9447 664.886 Q33.6716 667.369 33.035 670.042 Q32.3984 672.716 32.3984 675.581 Q32.3984 679.941 33.7352 682.137 Q35.072 684.302 37.7456 684.302 Q39.7826 684.302 40.9603 682.742 Q42.1061 681.182 43.1565 676.472 L43.6021 674.467 Q44.9389 668.228 47.3897 665.618 Q49.8086 662.976 54.1691 662.976 Q59.1344 662.976 62.0308 666.923 Q64.9272 670.838 64.9272 677.713 Q64.9272 680.578 64.3543 683.697 Q63.8132 686.784 62.6992 690.222 L56.6518 690.222 Q58.3387 686.975 59.198 683.824 Q60.0256 680.673 60.0256 677.586 Q60.0256 673.448 58.6251 671.22 Q57.1929 668.992 54.6147 668.992 Q52.2276 668.992 50.9545 670.615 Q49.6813 672.207 48.5037 677.649 L48.0262 679.686 Q46.8804 685.129 44.5251 687.548 Q42.138 689.967 38.0002 689.967 Q32.9713 689.967 30.2341 686.402 Q27.4968 682.837 27.4968 676.281 Q27.4968 673.034 27.9743 670.17 Q28.4517 667.305 29.4065 664.886 Z" fill="#000000" fill-rule="nonzero" fill-opacity="1" /><path clip-path="url(#clip090)" d="M898.804 18.8205 L898.804 65.8515 L908.689 65.8515 Q921.206 65.8515 926.999 60.1802 Q932.832 54.509 932.832 42.2752 Q932.832 30.1225 926.999 24.4918 Q921.206 18.8205 908.689 18.8205 L898.804 18.8205 M890.622 12.096 L907.433 12.096 Q925.014 12.096 933.237 19.4281 Q941.461 26.7198 941.461 42.2752 Q941.461 57.9117 933.197 65.2439 Q924.933 72.576 907.433 72.576 L890.622 72.576 L890.622 12.096 Z" fill="#000000" fill-rule="nonzero" fill-opacity="1" /><path clip-path="url(#clip090)" d="M999.794 16.7545 L999.794 25.383 Q995.662 21.5346 990.963 19.6307 Q986.304 17.7268 981.038 17.7268 Q970.668 17.7268 965.158 24.0867 Q959.649 30.4061 959.649 42.3968 Q959.649 54.3469 965.158 60.7069 Q970.668 67.0263 981.038 67.0263 Q986.304 67.0263 990.963 65.1223 Q995.662 63.2184 999.794 59.3701 L999.794 67.9175 Q995.5 70.8341 990.679 72.2924 Q985.899 73.7508 980.552 73.7508 Q966.819 73.7508 958.92 65.3654 Q951.021 56.9395 951.021 42.3968 Q951.021 27.8135 958.92 19.4281 Q966.819 11.0023 980.552 11.0023 Q985.98 11.0023 990.76 12.4606 Q995.581 13.8784 999.794 16.7545 Z" fill="#000000" fill-rule="nonzero" fill-opacity="1" /><path clip-path="url(#clip090)" d="M1020.62 18.8205 L1020.62 41.5461 L1030.9 41.5461 Q1036.62 41.5461 1039.74 38.5889 Q1042.85 35.6318 1042.85 30.163 Q1042.85 24.7348 1039.74 21.7777 Q1036.62 18.8205 1030.9 18.8205 L1020.62 18.8205 M1012.43 12.096 L1030.9 12.096 Q1041.07 12.096 1046.26 16.714 Q1051.48 21.2916 1051.48 30.163 Q1051.48 39.1155 1046.26 43.6931 Q1041.07 48.2706 1030.9 48.2706 L1020.62 48.2706 L1020.62 72.576 L1012.43 72.576 L1012.43 12.096 Z" fill="#000000" fill-rule="nonzero" fill-opacity="1" /><path clip-path="url(#clip090)" d="M1054.08 12.096 L1105.24 12.096 L1105.24 18.9825 L1083.77 18.9825 L1083.77 72.576 L1075.55 72.576 L1075.55 18.9825 L1054.08 18.9825 L1054.08 12.096 Z" fill="#000000" fill-rule="nonzero" fill-opacity="1" /><path clip-path="url(#clip090)" d="M1176.9 45.1919 L1176.9 72.576 L1169.45 72.576 L1169.45 45.4349 Q1169.45 38.994 1166.93 35.7938 Q1164.42 32.5936 1159.4 32.5936 Q1153.36 32.5936 1149.88 36.4419 Q1146.4 40.2903 1146.4 46.9338 L1146.4 72.576 L1138.9 72.576 L1138.9 27.2059 L1146.4 27.2059 L1146.4 34.2544 Q1149.07 30.163 1152.67 28.1376 Q1156.32 26.1121 1161.06 26.1121 Q1168.88 26.1121 1172.89 30.9732 Q1176.9 35.7938 1176.9 45.1919 Z" fill="#000000" fill-rule="nonzero" fill-opacity="1" /><path clip-path="url(#clip090)" d="M1230.57 48.0275 L1230.57 51.6733 L1196.3 51.6733 Q1196.79 59.3701 1200.92 63.421 Q1205.09 67.4314 1212.51 67.4314 Q1216.8 67.4314 1220.81 66.3781 Q1224.86 65.3249 1228.83 63.2184 L1228.83 70.267 Q1224.82 71.9684 1220.61 72.8596 Q1216.4 73.7508 1212.06 73.7508 Q1201.2 73.7508 1194.84 67.4314 Q1188.53 61.1119 1188.53 50.3365 Q1188.53 39.1965 1194.52 32.6746 Q1200.56 26.1121 1210.76 26.1121 Q1219.92 26.1121 1225.23 32.0264 Q1230.57 37.9003 1230.57 48.0275 M1223.12 45.84 Q1223.04 39.7232 1219.68 36.0774 Q1216.35 32.4315 1210.85 32.4315 Q1204.61 32.4315 1200.84 35.9558 Q1197.11 39.4801 1196.55 45.8805 L1223.12 45.84 Z" fill="#000000" fill-rule="nonzero" fill-opacity="1" /><path clip-path="url(#clip090)" d="M1242.04 54.671 L1242.04 27.2059 L1249.49 27.2059 L1249.49 54.3874 Q1249.49 60.8284 1252 64.0691 Q1254.51 67.2693 1259.54 67.2693 Q1265.57 67.2693 1269.06 63.421 Q1272.58 59.5726 1272.58 52.9291 L1272.58 27.2059 L1280.04 27.2059 L1280.04 72.576 L1272.58 72.576 L1272.58 65.6084 Q1269.87 69.7404 1266.26 71.7658 Q1262.7 73.7508 1257.96 73.7508 Q1250.14 73.7508 1246.09 68.8897 Q1242.04 64.0286 1242.04 54.671 M1260.79 26.1121 L1260.79 26.1121 Z" fill="#000000" fill-rule="nonzero" fill-opacity="1" /><path clip-path="url(#clip090)" d="M1302.76 14.324 L1302.76 27.2059 L1318.11 27.2059 L1318.11 32.9987 L1302.76 32.9987 L1302.76 57.6282 Q1302.76 63.1779 1304.26 64.7578 Q1305.8 66.3376 1310.46 66.3376 L1318.11 66.3376 L1318.11 72.576 L1310.46 72.576 Q1301.83 72.576 1298.55 69.3758 Q1295.27 66.1351 1295.27 57.6282 L1295.27 32.9987 L1289.8 32.9987 L1289.8 27.2059 L1295.27 27.2059 L1295.27 14.324 L1302.76 14.324 Z" fill="#000000" fill-rule="nonzero" fill-opacity="1" /><path clip-path="url(#clip090)" d="M1354.21 34.1734 Q1352.95 33.4443 1351.45 33.1202 Q1349.99 32.7556 1348.21 32.7556 Q1341.89 32.7556 1338.49 36.8875 Q1335.13 40.9789 1335.13 48.6757 L1335.13 72.576 L1327.63 72.576 L1327.63 27.2059 L1335.13 27.2059 L1335.13 34.2544 Q1337.48 30.1225 1341.24 28.1376 Q1345.01 26.1121 1350.4 26.1121 Q1351.17 26.1121 1352.1 26.2337 Q1353.03 26.3147 1354.17 26.5172 L1354.21 34.1734 Z" fill="#000000" fill-rule="nonzero" fill-opacity="1" /><path clip-path="url(#clip090)" d="M1377.78 32.4315 Q1371.79 32.4315 1368.3 37.1306 Q1364.82 41.7891 1364.82 49.9314 Q1364.82 58.0738 1368.26 62.7728 Q1371.75 67.4314 1377.78 67.4314 Q1383.74 67.4314 1387.22 62.7323 Q1390.71 58.0333 1390.71 49.9314 Q1390.71 41.8701 1387.22 37.1711 Q1383.74 32.4315 1377.78 32.4315 M1377.78 26.1121 Q1387.51 26.1121 1393.06 32.4315 Q1398.61 38.7509 1398.61 49.9314 Q1398.61 61.0714 1393.06 67.4314 Q1387.51 73.7508 1377.78 73.7508 Q1368.02 73.7508 1362.47 67.4314 Q1356.96 61.0714 1356.96 49.9314 Q1356.96 38.7509 1362.47 32.4315 Q1368.02 26.1121 1377.78 26.1121 Z" fill="#000000" fill-rule="nonzero" fill-opacity="1" /><path clip-path="url(#clip090)" d="M1448.67 45.1919 L1448.67 72.576 L1441.22 72.576 L1441.22 45.4349 Q1441.22 38.994 1438.71 35.7938 Q1436.2 32.5936 1431.17 32.5936 Q1425.14 32.5936 1421.65 36.4419 Q1418.17 40.2903 1418.17 46.9338 L1418.17 72.576 L1410.68 72.576 L1410.68 27.2059 L1418.17 27.2059 L1418.17 34.2544 Q1420.84 30.163 1424.45 28.1376 Q1428.1 26.1121 1432.84 26.1121 Q1440.65 26.1121 1444.66 30.9732 Q1448.67 35.7938 1448.67 45.1919 Z" fill="#000000" fill-rule="nonzero" fill-opacity="1" /><path clip-path="url(#clip090)" d="M1518.84 28.5427 L1518.84 35.5912 Q1515.68 33.9709 1512.27 33.1607 Q1508.87 32.3505 1505.22 32.3505 Q1499.68 32.3505 1496.88 34.0519 Q1494.13 35.7533 1494.13 39.156 Q1494.13 41.7486 1496.11 43.2475 Q1498.1 44.7058 1504.09 46.0426 L1506.64 46.6097 Q1514.58 48.3111 1517.9 51.4303 Q1521.27 54.509 1521.27 60.0587 Q1521.27 66.3781 1516.24 70.0644 Q1511.26 73.7508 1502.51 73.7508 Q1498.86 73.7508 1494.9 73.0216 Q1490.97 72.3329 1486.59 70.9151 L1486.59 63.2184 Q1490.72 65.3654 1494.73 66.4591 Q1498.74 67.5124 1502.67 67.5124 Q1507.94 67.5124 1510.77 65.73 Q1513.61 63.9071 1513.61 60.6258 Q1513.61 57.5877 1511.54 55.9673 Q1509.52 54.3469 1502.59 52.8481 L1500 52.2405 Q1493.07 50.7821 1489.99 47.7845 Q1486.91 44.7463 1486.91 39.4801 Q1486.91 33.0797 1491.45 29.5959 Q1495.99 26.1121 1504.33 26.1121 Q1508.47 26.1121 1512.11 26.7198 Q1515.76 27.3274 1518.84 28.5427 Z" fill="#000000" fill-rule="nonzero" fill-opacity="1" /><path clip-path="url(#clip090)" d="M1571.94 48.0275 L1571.94 51.6733 L1537.67 51.6733 Q1538.16 59.3701 1542.29 63.421 Q1546.46 67.4314 1553.88 67.4314 Q1558.17 67.4314 1562.18 66.3781 Q1566.23 65.3249 1570.2 63.2184 L1570.2 70.267 Q1566.19 71.9684 1561.98 72.8596 Q1557.77 73.7508 1553.43 73.7508 Q1542.57 73.7508 1536.21 67.4314 Q1529.89 61.1119 1529.89 50.3365 Q1529.89 39.1965 1535.89 32.6746 Q1541.93 26.1121 1552.13 26.1121 Q1561.29 26.1121 1566.6 32.0264 Q1571.94 37.9003 1571.94 48.0275 M1564.49 45.84 Q1564.41 39.7232 1561.05 36.0774 Q1557.72 32.4315 1552.22 32.4315 Q1545.98 32.4315 1542.21 35.9558 Q1538.48 39.4801 1537.92 45.8805 L1564.49 45.84 Z" fill="#000000" fill-rule="nonzero" fill-opacity="1" /><path clip-path="url(#clip090)" d="M1591.55 14.324 L1591.55 27.2059 L1606.9 27.2059 L1606.9 32.9987 L1591.55 32.9987 L1591.55 57.6282 Q1591.55 63.1779 1593.05 64.7578 Q1594.59 66.3376 1599.25 66.3376 L1606.9 66.3376 L1606.9 72.576 L1599.25 72.576 Q1590.62 72.576 1587.34 69.3758 Q1584.06 66.1351 1584.06 57.6282 L1584.06 32.9987 L1578.59 32.9987 L1578.59 27.2059 L1584.06 27.2059 L1584.06 14.324 L1591.55 14.324 Z" fill="#000000" fill-rule="nonzero" fill-opacity="1" /><path clip-path="url(#clip090)" d="M1615.94 54.671 L1615.94 27.2059 L1623.39 27.2059 L1623.39 54.3874 Q1623.39 60.8284 1625.9 64.0691 Q1628.41 67.2693 1633.44 67.2693 Q1639.47 67.2693 1642.96 63.421 Q1646.48 59.5726 1646.48 52.9291 L1646.48 27.2059 L1653.93 27.2059 L1653.93 72.576 L1646.48 72.576 L1646.48 65.6084 Q1643.77 69.7404 1640.16 71.7658 Q1636.6 73.7508 1631.86 73.7508 Q1624.04 73.7508 1619.99 68.8897 Q1615.94 64.0286 1615.94 54.671 M1634.69 26.1121 L1634.69 26.1121 Z" fill="#000000" fill-rule="nonzero" fill-opacity="1" /><path clip-path="url(#clip090)" d="M1676.5 65.7705 L1676.5 89.8329 L1669 89.8329 L1669 27.2059 L1676.5 27.2059 L1676.5 34.0924 Q1678.85 30.0415 1682.41 28.0971 Q1686.02 26.1121 1691 26.1121 Q1699.26 26.1121 1704.41 32.6746 Q1709.59 39.2371 1709.59 49.9314 Q1709.59 60.6258 1704.41 67.1883 Q1699.26 73.7508 1691 73.7508 Q1686.02 73.7508 1682.41 71.8063 Q1678.85 69.8214 1676.5 65.7705 M1701.86 49.9314 Q1701.86 41.7081 1698.45 37.0496 Q1695.09 32.3505 1689.18 32.3505 Q1683.26 32.3505 1679.86 37.0496 Q1676.5 41.7081 1676.5 49.9314 Q1676.5 58.1548 1679.86 62.8538 Q1683.26 67.5124 1689.18 67.5124 Q1695.09 67.5124 1698.45 62.8538 Q1701.86 58.1548 1701.86 49.9314 Z" fill="#000000" fill-rule="nonzero" fill-opacity="1" /><polyline clip-path="url(#clip092)" style="stroke:#000000; stroke-linecap:round; stroke-linejoin:round; stroke-width:4; stroke-opacity:1; fill:none" points="307.043,1386.4 307.043,1386.4 347.576,1386.4 347.576,1211.23 388.109,1211.23 388.109,1386.4 428.642,1386.4 428.642,1211.23 469.176,1211.23 509.709,1211.23 509.709,335.419 550.242,335.419 550.242,1211.23 590.775,1211.23 590.775,1298.81 631.309,1298.81 631.309,860.907 671.842,860.907 671.842,1123.65 712.375,1123.65 712.375,335.419 752.908,335.419 752.908,948.489 793.442,948.489 833.975,948.489 833.975,1036.07 874.508,1036.07 874.508,860.907 915.041,860.907 915.041,1298.81 955.575,1298.81 955.575,1211.23 996.108,1211.23 996.108,773.326 1036.64,773.326 1036.64,948.489 1077.17,948.489 1077.17,1036.07 1117.71,1036.07 1117.71,1386.4 1158.24,1386.4 1158.24,1298.81 1198.77,1298.81 1198.77,1386.4 1239.31,1386.4 1239.31,1298.81 1279.84,1298.81 1279.84,948.489 1320.37,948.489 1320.37,1036.07 1360.91,1036.07 1360.91,1123.65 1401.44,1123.65 1401.44,1036.07 1441.97,1036.07 1441.97,1386.4 1482.51,1386.4 1482.51,1298.81 1523.04,1298.81 1563.57,1298.81 1563.57,1386.4 1604.11,1386.4 1644.64,1386.4 1685.17,1386.4 1725.71,1386.4 1766.24,1386.4 1806.77,1386.4 1806.77,1298.81 1847.31,1298.81 1847.31,1386.4 1887.84,1386.4 1887.84,1298.81 1928.37,1298.81 1928.37,1386.4 1968.91,1386.4 2009.44,1386.4 2049.97,1386.4 2090.51,1386.4 2131.04,1386.4 2171.57,1386.4 2212.11,1386.4 2252.64,1386.4 2293.17,1386.4 "/>
<polyline clip-path="url(#clip092)" style="stroke:#ff0000; stroke-linecap:round; stroke-linejoin:round; stroke-width:4; stroke-opacity:1; fill:none" points="307.043,1386.4 307.043,160.256 347.576,160.256 347.576,423 388.109,423 428.642,423 428.642,1036.07 469.176,1036.07 469.176,1123.65 509.709,1123.65 509.709,1298.81 550.242,1298.81 550.242,1386.4 590.775,1386.4 631.309,1386.4 631.309,1298.81 671.842,1298.81 671.842,1386.4 712.375,1386.4 752.908,1386.4 793.442,1386.4 833.975,1386.4 874.508,1386.4 915.041,1386.4 955.575,1386.4 996.108,1386.4 1036.64,1386.4 1077.17,1386.4 1117.71,1386.4 1158.24,1386.4 1198.77,1386.4 1239.31,1386.4 1279.84,1386.4 1320.37,1386.4 1360.91,1386.4 1401.44,1386.4 1441.97,1386.4 1482.51,1386.4 1523.04,1386.4 1563.57,1386.4 1604.11,1386.4 1644.64,1386.4 1685.17,1386.4 1725.71,1386.4 1766.24,1386.4 1806.77,1386.4 1847.31,1386.4 1887.84,1386.4 1928.37,1386.4 1968.91,1386.4 2009.44,1386.4 2049.97,1386.4 2090.51,1386.4 2131.04,1386.4 2171.57,1386.4 2212.11,1386.4 2252.64,1386.4 2293.17,1386.4 "/>
<path clip-path="url(#clip090)" d="M1742.58 322.316 L2282.58 322.316 L2282.58 166.796 L1742.58 166.796  Z" fill="#ffffff" fill-rule="evenodd" fill-opacity="1"/>
<polyline clip-path="url(#clip090)" style="stroke:#000000; stroke-linecap:round; stroke-linejoin:round; stroke-width:4; stroke-opacity:1; fill:none" points="1742.58,322.316 2282.58,322.316 2282.58,166.796 1742.58,166.796 1742.58,322.316 "/>
<polyline clip-path="url(#clip090)" style="stroke:#000000; stroke-linecap:round; stroke-linejoin:round; stroke-width:4; stroke-opacity:1; fill:none" points="1765.98,218.636 1906.33,218.636 "/>
<path clip-path="url(#clip090)" d="M1929.72 201.356 L1936.69 201.356 L1945.51 224.874 L1954.37 201.356 L1961.34 201.356 L1961.34 235.916 L1956.78 235.916 L1956.78 205.569 L1947.87 229.272 L1943.17 229.272 L1934.26 205.569 L1934.26 235.916 L1929.72 235.916 L1929.72 201.356 Z" fill="#000000" fill-rule="nonzero" fill-opacity="1" /><path clip-path="url(#clip090)" d="M1982.22 222.883 Q1977.06 222.883 1975.07 224.064 Q1973.08 225.244 1973.08 228.092 Q1973.08 230.36 1974.56 231.703 Q1976.06 233.022 1978.63 233.022 Q1982.17 233.022 1984.3 230.522 Q1986.46 227.999 1986.46 223.832 L1986.46 222.883 L1982.22 222.883 M1990.72 221.124 L1990.72 235.916 L1986.46 235.916 L1986.46 231.981 Q1985 234.342 1982.82 235.476 Q1980.65 236.587 1977.5 236.587 Q1973.52 236.587 1971.16 234.365 Q1968.82 232.119 1968.82 228.369 Q1968.82 223.994 1971.73 221.772 Q1974.67 219.55 1980.48 219.55 L1986.46 219.55 L1986.46 219.133 Q1986.46 216.194 1984.51 214.596 Q1982.59 212.976 1979.1 212.976 Q1976.87 212.976 1974.77 213.508 Q1972.66 214.041 1970.72 215.106 L1970.72 211.17 Q1973.05 210.268 1975.25 209.828 Q1977.45 209.365 1979.54 209.365 Q1985.16 209.365 1987.94 212.282 Q1990.72 215.198 1990.72 221.124 Z" fill="#000000" fill-rule="nonzero" fill-opacity="1" /><path clip-path="url(#clip090)" d="M2003.7 202.629 L2003.7 209.99 L2012.48 209.99 L2012.48 213.3 L2003.7 213.3 L2003.7 227.374 Q2003.7 230.545 2004.56 231.448 Q2005.44 232.351 2008.1 232.351 L2012.48 232.351 L2012.48 235.916 L2008.1 235.916 Q2003.17 235.916 2001.3 234.087 Q1999.42 232.235 1999.42 227.374 L1999.42 213.3 L1996.3 213.3 L1996.3 209.99 L1999.42 209.99 L1999.42 202.629 L2003.7 202.629 Z" fill="#000000" fill-rule="nonzero" fill-opacity="1" /><path clip-path="url(#clip090)" d="M2036.73 210.985 L2036.73 214.967 Q2034.93 213.971 2033.1 213.485 Q2031.29 212.976 2029.44 212.976 Q2025.3 212.976 2023.01 215.615 Q2020.72 218.231 2020.72 222.976 Q2020.72 227.721 2023.01 230.36 Q2025.3 232.976 2029.44 232.976 Q2031.29 232.976 2033.1 232.49 Q2034.93 231.981 2036.73 230.985 L2036.73 234.92 Q2034.95 235.754 2033.03 236.17 Q2031.13 236.587 2028.98 236.587 Q2023.12 236.587 2019.67 232.906 Q2016.23 229.226 2016.23 222.976 Q2016.23 216.633 2019.7 212.999 Q2023.19 209.365 2029.26 209.365 Q2031.23 209.365 2033.1 209.782 Q2034.98 210.175 2036.73 210.985 Z" fill="#000000" fill-rule="nonzero" fill-opacity="1" /><path clip-path="url(#clip090)" d="M2065.69 220.268 L2065.69 235.916 L2061.43 235.916 L2061.43 220.407 Q2061.43 216.726 2060 214.897 Q2058.56 213.069 2055.69 213.069 Q2052.24 213.069 2050.25 215.268 Q2048.26 217.467 2048.26 221.263 L2048.26 235.916 L2043.98 235.916 L2043.98 199.897 L2048.26 199.897 L2048.26 214.018 Q2049.79 211.68 2051.85 210.522 Q2053.93 209.365 2056.64 209.365 Q2061.11 209.365 2063.4 212.143 Q2065.69 214.897 2065.69 220.268 Z" fill="#000000" fill-rule="nonzero" fill-opacity="1" /><path clip-path="url(#clip090)" d="M2096.36 221.888 L2096.36 223.971 L2076.78 223.971 Q2077.06 228.369 2079.42 230.684 Q2081.8 232.976 2086.04 232.976 Q2088.49 232.976 2090.79 232.374 Q2093.1 231.772 2095.37 230.569 L2095.37 234.596 Q2093.08 235.568 2090.67 236.078 Q2088.26 236.587 2085.79 236.587 Q2079.58 236.587 2075.95 232.976 Q2072.34 229.365 2072.34 223.207 Q2072.34 216.842 2075.76 213.115 Q2079.21 209.365 2085.04 209.365 Q2090.28 209.365 2093.31 212.745 Q2096.36 216.101 2096.36 221.888 M2092.1 220.638 Q2092.06 217.143 2090.14 215.059 Q2088.24 212.976 2085.09 212.976 Q2081.53 212.976 2079.37 214.99 Q2077.24 217.004 2076.92 220.661 L2092.1 220.638 Z" fill="#000000" fill-rule="nonzero" fill-opacity="1" /><path clip-path="url(#clip090)" d="M2119.88 210.754 L2119.88 214.782 Q2118.08 213.856 2116.13 213.393 Q2114.19 212.93 2112.1 212.93 Q2108.93 212.93 2107.34 213.902 Q2105.76 214.874 2105.76 216.819 Q2105.76 218.3 2106.9 219.157 Q2108.03 219.99 2111.46 220.754 L2112.91 221.078 Q2117.45 222.05 2119.35 223.832 Q2121.27 225.592 2121.27 228.763 Q2121.27 232.374 2118.4 234.481 Q2115.55 236.587 2110.55 236.587 Q2108.47 236.587 2106.2 236.17 Q2103.96 235.777 2101.46 234.967 L2101.46 230.569 Q2103.82 231.795 2106.11 232.42 Q2108.4 233.022 2110.65 233.022 Q2113.66 233.022 2115.28 232.004 Q2116.9 230.962 2116.9 229.087 Q2116.9 227.351 2115.72 226.425 Q2114.56 225.499 2110.6 224.643 L2109.12 224.295 Q2105.16 223.462 2103.4 221.749 Q2101.64 220.013 2101.64 217.004 Q2101.64 213.346 2104.23 211.356 Q2106.83 209.365 2111.6 209.365 Q2113.96 209.365 2116.04 209.712 Q2118.12 210.059 2119.88 210.754 Z" fill="#000000" fill-rule="nonzero" fill-opacity="1" /><path clip-path="url(#clip090)" d="M2129.14 230.036 L2134.03 230.036 L2134.03 235.916 L2129.14 235.916 L2129.14 230.036 M2129.14 211.402 L2134.03 211.402 L2134.03 217.282 L2129.14 217.282 L2129.14 211.402 Z" fill="#000000" fill-rule="nonzero" fill-opacity="1" /><path clip-path="url(#clip090)" d="M2160.51 231.981 L2168.15 231.981 L2168.15 205.615 L2159.84 207.282 L2159.84 203.022 L2168.1 201.356 L2172.78 201.356 L2172.78 231.981 L2180.41 231.981 L2180.41 235.916 L2160.51 235.916 L2160.51 231.981 Z" fill="#000000" fill-rule="nonzero" fill-opacity="1" /><path clip-path="url(#clip090)" d="M2190.67 231.981 L2198.31 231.981 L2198.31 205.615 L2190 207.282 L2190 203.022 L2198.26 201.356 L2202.94 201.356 L2202.94 231.981 L2210.58 231.981 L2210.58 235.916 L2190.67 235.916 L2190.67 231.981 Z" fill="#000000" fill-rule="nonzero" fill-opacity="1" /><path clip-path="url(#clip090)" d="M2224.05 231.981 L2240.37 231.981 L2240.37 235.916 L2218.42 235.916 L2218.42 231.981 Q2221.09 229.226 2225.67 224.596 Q2230.28 219.944 2231.46 218.601 Q2233.7 216.078 2234.58 214.342 Q2235.48 212.583 2235.48 210.893 Q2235.48 208.138 2233.54 206.402 Q2231.62 204.666 2228.52 204.666 Q2226.32 204.666 2223.86 205.43 Q2221.43 206.194 2218.65 207.745 L2218.65 203.022 Q2221.48 201.888 2223.93 201.309 Q2226.39 200.731 2228.42 200.731 Q2233.79 200.731 2236.99 203.416 Q2240.18 206.101 2240.18 210.592 Q2240.18 212.721 2239.37 214.643 Q2238.59 216.541 2236.48 219.133 Q2235.9 219.805 2232.8 223.022 Q2229.7 226.217 2224.05 231.981 Z" fill="#000000" fill-rule="nonzero" fill-opacity="1" /><polyline clip-path="url(#clip090)" style="stroke:#ff0000; stroke-linecap:round; stroke-linejoin:round; stroke-width:4; stroke-opacity:1; fill:none" points="1765.98,270.476 1906.33,270.476 "/>
<path clip-path="url(#clip090)" d="M1951.97 254.33 L1951.97 258.89 Q1949.3 257.617 1946.94 256.992 Q1944.58 256.367 1942.38 256.367 Q1938.56 256.367 1936.48 257.848 Q1934.42 259.33 1934.42 262.061 Q1934.42 264.353 1935.79 265.534 Q1937.17 266.691 1941.02 267.409 L1943.84 267.987 Q1949.07 268.983 1951.55 271.506 Q1954.05 274.006 1954.05 278.219 Q1954.05 283.242 1950.67 285.834 Q1947.31 288.427 1940.81 288.427 Q1938.36 288.427 1935.58 287.871 Q1932.82 287.316 1929.86 286.228 L1929.86 281.413 Q1932.71 283.01 1935.44 283.821 Q1938.17 284.631 1940.81 284.631 Q1944.81 284.631 1946.99 283.057 Q1949.17 281.483 1949.17 278.566 Q1949.17 276.02 1947.59 274.584 Q1946.04 273.149 1942.48 272.432 L1939.63 271.876 Q1934.4 270.835 1932.06 268.612 Q1929.72 266.39 1929.72 262.432 Q1929.72 257.848 1932.94 255.21 Q1936.18 252.571 1941.85 252.571 Q1944.28 252.571 1946.8 253.011 Q1949.33 253.45 1951.97 254.33 Z" fill="#000000" fill-rule="nonzero" fill-opacity="1" /><path clip-path="url(#clip090)" d="M1965.37 254.469 L1965.37 261.83 L1974.14 261.83 L1974.14 265.14 L1965.37 265.14 L1965.37 279.214 Q1965.37 282.385 1966.23 283.288 Q1967.11 284.191 1969.77 284.191 L1974.14 284.191 L1974.14 287.756 L1969.77 287.756 Q1964.84 287.756 1962.96 285.927 Q1961.09 284.075 1961.09 279.214 L1961.09 265.14 L1957.96 265.14 L1957.96 261.83 L1961.09 261.83 L1961.09 254.469 L1965.37 254.469 Z" fill="#000000" fill-rule="nonzero" fill-opacity="1" /><path clip-path="url(#clip090)" d="M1989.79 264.816 Q1986.36 264.816 1984.37 267.501 Q1982.38 270.163 1982.38 274.816 Q1982.38 279.469 1984.35 282.154 Q1986.34 284.816 1989.79 284.816 Q1993.19 284.816 1995.18 282.131 Q1997.17 279.446 1997.17 274.816 Q1997.17 270.21 1995.18 267.524 Q1993.19 264.816 1989.79 264.816 M1989.79 261.205 Q1995.35 261.205 1998.52 264.816 Q2001.69 268.427 2001.69 274.816 Q2001.69 281.182 1998.52 284.816 Q1995.35 288.427 1989.79 288.427 Q1984.21 288.427 1981.04 284.816 Q1977.89 281.182 1977.89 274.816 Q1977.89 268.427 1981.04 264.816 Q1984.21 261.205 1989.79 261.205 Z" fill="#000000" fill-rule="nonzero" fill-opacity="1" /><path clip-path="url(#clip090)" d="M2027.41 262.825 L2027.41 266.807 Q2025.6 265.811 2023.77 265.325 Q2021.97 264.816 2020.11 264.816 Q2015.97 264.816 2013.68 267.455 Q2011.39 270.071 2011.39 274.816 Q2011.39 279.561 2013.68 282.2 Q2015.97 284.816 2020.11 284.816 Q2021.97 284.816 2023.77 284.33 Q2025.6 283.821 2027.41 282.825 L2027.41 286.76 Q2025.62 287.594 2023.7 288.01 Q2021.8 288.427 2019.65 288.427 Q2013.79 288.427 2010.35 284.746 Q2006.9 281.066 2006.9 274.816 Q2006.9 268.473 2010.37 264.839 Q2013.86 261.205 2019.93 261.205 Q2021.9 261.205 2023.77 261.622 Q2025.65 262.015 2027.41 262.825 Z" fill="#000000" fill-rule="nonzero" fill-opacity="1" /><path clip-path="url(#clip090)" d="M2056.36 272.108 L2056.36 287.756 L2052.1 287.756 L2052.1 272.247 Q2052.1 268.566 2050.67 266.737 Q2049.23 264.909 2046.36 264.909 Q2042.92 264.909 2040.92 267.108 Q2038.93 269.307 2038.93 273.103 L2038.93 287.756 L2034.65 287.756 L2034.65 251.737 L2038.93 251.737 L2038.93 265.858 Q2040.46 263.52 2042.52 262.362 Q2044.6 261.205 2047.31 261.205 Q2051.78 261.205 2054.07 263.983 Q2056.36 266.737 2056.36 272.108 Z" fill="#000000" fill-rule="nonzero" fill-opacity="1" /><path clip-path="url(#clip090)" d="M2076.64 274.723 Q2071.48 274.723 2069.49 275.904 Q2067.5 277.084 2067.5 279.932 Q2067.5 282.2 2068.98 283.543 Q2070.48 284.862 2073.05 284.862 Q2076.6 284.862 2078.73 282.362 Q2080.88 279.839 2080.88 275.672 L2080.88 274.723 L2076.64 274.723 M2085.14 272.964 L2085.14 287.756 L2080.88 287.756 L2080.88 283.821 Q2079.42 286.182 2077.24 287.316 Q2075.07 288.427 2071.92 288.427 Q2067.94 288.427 2065.58 286.205 Q2063.24 283.959 2063.24 280.209 Q2063.24 275.834 2066.16 273.612 Q2069.1 271.39 2074.91 271.39 L2080.88 271.39 L2080.88 270.973 Q2080.88 268.034 2078.93 266.436 Q2077.01 264.816 2073.52 264.816 Q2071.29 264.816 2069.19 265.348 Q2067.08 265.881 2065.14 266.946 L2065.14 263.01 Q2067.48 262.108 2069.67 261.668 Q2071.87 261.205 2073.96 261.205 Q2079.58 261.205 2082.36 264.122 Q2085.14 267.038 2085.14 272.964 Z" fill="#000000" fill-rule="nonzero" fill-opacity="1" /><path clip-path="url(#clip090)" d="M2110.44 262.594 L2110.44 266.622 Q2108.63 265.696 2106.69 265.233 Q2104.74 264.77 2102.66 264.77 Q2099.49 264.77 2097.89 265.742 Q2096.32 266.714 2096.32 268.659 Q2096.32 270.14 2097.45 270.997 Q2098.59 271.83 2102.01 272.594 L2103.47 272.918 Q2108.01 273.89 2109.91 275.672 Q2111.83 277.432 2111.83 280.603 Q2111.83 284.214 2108.96 286.321 Q2106.11 288.427 2101.11 288.427 Q2099.03 288.427 2096.76 288.01 Q2094.51 287.617 2092.01 286.807 L2092.01 282.409 Q2094.37 283.635 2096.66 284.26 Q2098.96 284.862 2101.2 284.862 Q2104.21 284.862 2105.83 283.844 Q2107.45 282.802 2107.45 280.927 Q2107.45 279.191 2106.27 278.265 Q2105.11 277.339 2101.16 276.483 L2099.67 276.135 Q2095.72 275.302 2093.96 273.589 Q2092.2 271.853 2092.2 268.844 Q2092.2 265.186 2094.79 263.196 Q2097.38 261.205 2102.15 261.205 Q2104.51 261.205 2106.6 261.552 Q2108.68 261.899 2110.44 262.594 Z" fill="#000000" fill-rule="nonzero" fill-opacity="1" /><path clip-path="url(#clip090)" d="M2122.82 254.469 L2122.82 261.83 L2131.6 261.83 L2131.6 265.14 L2122.82 265.14 L2122.82 279.214 Q2122.82 282.385 2123.68 283.288 Q2124.56 284.191 2127.22 284.191 L2131.6 284.191 L2131.6 287.756 L2127.22 287.756 Q2122.29 287.756 2120.41 285.927 Q2118.54 284.075 2118.54 279.214 L2118.54 265.14 L2115.41 265.14 L2115.41 261.83 L2118.54 261.83 L2118.54 254.469 L2122.82 254.469 Z" fill="#000000" fill-rule="nonzero" fill-opacity="1" /><path clip-path="url(#clip090)" d="M2137.2 261.83 L2141.46 261.83 L2141.46 287.756 L2137.2 287.756 L2137.2 261.83 M2137.2 251.737 L2141.46 251.737 L2141.46 257.131 L2137.2 257.131 L2137.2 251.737 Z" fill="#000000" fill-rule="nonzero" fill-opacity="1" /><path clip-path="url(#clip090)" d="M2169.03 262.825 L2169.03 266.807 Q2167.22 265.811 2165.39 265.325 Q2163.59 264.816 2161.73 264.816 Q2157.59 264.816 2155.3 267.455 Q2153.01 270.071 2153.01 274.816 Q2153.01 279.561 2155.3 282.2 Q2157.59 284.816 2161.73 284.816 Q2163.59 284.816 2165.39 284.33 Q2167.22 283.821 2169.03 282.825 L2169.03 286.76 Q2167.24 287.594 2165.32 288.01 Q2163.42 288.427 2161.27 288.427 Q2155.41 288.427 2151.97 284.746 Q2148.52 281.066 2148.52 274.816 Q2148.52 268.473 2151.99 264.839 Q2155.48 261.205 2161.55 261.205 Q2163.52 261.205 2165.39 261.622 Q2167.27 262.015 2169.03 262.825 Z" fill="#000000" fill-rule="nonzero" fill-opacity="1" /><path clip-path="url(#clip090)" d="M2177.52 281.876 L2182.41 281.876 L2182.41 287.756 L2177.52 287.756 L2177.52 281.876 M2177.52 263.242 L2182.41 263.242 L2182.41 269.122 L2177.52 269.122 L2177.52 263.242 Z" fill="#000000" fill-rule="nonzero" fill-opacity="1" /><path clip-path="url(#clip090)" d="M2220.92 257.27 L2209.12 275.719 L2220.92 275.719 L2220.92 257.27 M2219.7 253.196 L2225.58 253.196 L2225.58 275.719 L2230.51 275.719 L2230.51 279.608 L2225.58 279.608 L2225.58 287.756 L2220.92 287.756 L2220.92 279.608 L2205.32 279.608 L2205.32 275.094 L2219.7 253.196 Z" fill="#000000" fill-rule="nonzero" fill-opacity="1" /><path clip-path="url(#clip090)" d="M2238.28 253.196 L2256.64 253.196 L2256.64 257.131 L2242.57 257.131 L2242.57 265.603 Q2243.59 265.256 2244.6 265.094 Q2245.62 264.909 2246.64 264.909 Q2252.43 264.909 2255.81 268.08 Q2259.19 271.251 2259.19 276.668 Q2259.19 282.246 2255.71 285.348 Q2252.24 288.427 2245.92 288.427 Q2243.75 288.427 2241.48 288.057 Q2239.23 287.686 2236.83 286.946 L2236.83 282.246 Q2238.91 283.381 2241.13 283.936 Q2243.35 284.492 2245.83 284.492 Q2249.84 284.492 2252.17 282.385 Q2254.51 280.279 2254.51 276.668 Q2254.51 273.057 2252.17 270.95 Q2249.84 268.844 2245.83 268.844 Q2243.96 268.844 2242.08 269.26 Q2240.23 269.677 2238.28 270.557 L2238.28 253.196 Z" fill="#000000" fill-rule="nonzero" fill-opacity="1" /></svg>
