<?xml version="1.0" encoding="utf-8"?>
<svg xmlns="http://www.w3.org/2000/svg" xmlns:xlink="http://www.w3.org/1999/xlink" width="500" height="300" viewBox="0 0 2000 1200">
<defs>
  <clipPath id="clip400">
    <rect x="0" y="0" width="2000" height="1200"/>
  </clipPath>
</defs>
<path clip-path="url(#clip400)" d="M0 1200 L2000 1200 L2000 0 L0 0  Z" fill="#ffffff" fill-rule="evenodd" fill-opacity="1"/>
<defs>
  <clipPath id="clip401">
    <rect x="400" y="0" width="1401" height="1200"/>
  </clipPath>
</defs>
<path clip-path="url(#clip400)" d="M210.628 1035.39 L1952.76 1035.39 L1952.76 117.424 L210.628 117.424  Z" fill="#ffffff" fill-rule="evenodd" fill-opacity="1"/>
<defs>
  <clipPath id="clip402">
    <rect x="210" y="117" width="1743" height="919"/>
  </clipPath>
</defs>
<polyline clip-path="url(#clip402)" style="stroke:#000000; stroke-linecap:round; stroke-linejoin:round; stroke-width:2; stroke-opacity:0.1; fill:none" points="253.333,1035.39 253.333,117.424 "/>
<polyline clip-path="url(#clip402)" style="stroke:#000000; stroke-linecap:round; stroke-linejoin:round; stroke-width:2; stroke-opacity:0.1; fill:none" points="583.357,1035.39 583.357,117.424 "/>
<polyline clip-path="url(#clip402)" style="stroke:#000000; stroke-linecap:round; stroke-linejoin:round; stroke-width:2; stroke-opacity:0.1; fill:none" points="913.38,1035.39 913.38,117.424 "/>
<polyline clip-path="url(#clip402)" style="stroke:#000000; stroke-linecap:round; stroke-linejoin:round; stroke-width:2; stroke-opacity:0.1; fill:none" points="1243.4,1035.39 1243.4,117.424 "/>
<polyline clip-path="url(#clip402)" style="stroke:#000000; stroke-linecap:round; stroke-linejoin:round; stroke-width:2; stroke-opacity:0.1; fill:none" points="1573.43,1035.39 1573.43,117.424 "/>
<polyline clip-path="url(#clip402)" style="stroke:#000000; stroke-linecap:round; stroke-linejoin:round; stroke-width:2; stroke-opacity:0.1; fill:none" points="1903.45,1035.39 1903.45,117.424 "/>
<polyline clip-path="url(#clip402)" style="stroke:#000000; stroke-linecap:round; stroke-linejoin:round; stroke-width:2; stroke-opacity:0.1; fill:none" points="210.628,1009.41 1952.76,1009.41 "/>
<polyline clip-path="url(#clip402)" style="stroke:#000000; stroke-linecap:round; stroke-linejoin:round; stroke-width:2; stroke-opacity:0.1; fill:none" points="210.628,792.907 1952.76,792.907 "/>
<polyline clip-path="url(#clip402)" style="stroke:#000000; stroke-linecap:round; stroke-linejoin:round; stroke-width:2; stroke-opacity:0.1; fill:none" points="210.628,576.406 1952.76,576.406 "/>
<polyline clip-path="url(#clip402)" style="stroke:#000000; stroke-linecap:round; stroke-linejoin:round; stroke-width:2; stroke-opacity:0.1; fill:none" points="210.628,359.905 1952.76,359.905 "/>
<polyline clip-path="url(#clip402)" style="stroke:#000000; stroke-linecap:round; stroke-linejoin:round; stroke-width:2; stroke-opacity:0.1; fill:none" points="210.628,143.404 1952.76,143.404 "/>
<polyline clip-path="url(#clip400)" style="stroke:#000000; stroke-linecap:round; stroke-linejoin:round; stroke-width:4; stroke-opacity:1; fill:none" points="210.628,1035.39 1952.76,1035.39 "/>
<polyline clip-path="url(#clip400)" style="stroke:#000000; stroke-linecap:round; stroke-linejoin:round; stroke-width:4; stroke-opacity:1; fill:none" points="253.333,1035.39 253.333,1016.49 "/>
<polyline clip-path="url(#clip400)" style="stroke:#000000; stroke-linecap:round; stroke-linejoin:round; stroke-width:4; stroke-opacity:1; fill:none" points="583.357,1035.39 583.357,1016.49 "/>
<polyline clip-path="url(#clip400)" style="stroke:#000000; stroke-linecap:round; stroke-linejoin:round; stroke-width:4; stroke-opacity:1; fill:none" points="913.38,1035.39 913.38,1016.49 "/>
<polyline clip-path="url(#clip400)" style="stroke:#000000; stroke-linecap:round; stroke-linejoin:round; stroke-width:4; stroke-opacity:1; fill:none" points="1243.4,1035.39 1243.4,1016.49 "/>
<polyline clip-path="url(#clip400)" style="stroke:#000000; stroke-linecap:round; stroke-linejoin:round; stroke-width:4; stroke-opacity:1; fill:none" points="1573.43,1035.39 1573.43,1016.49 "/>
<polyline clip-path="url(#clip400)" style="stroke:#000000; stroke-linecap:round; stroke-linejoin:round; stroke-width:4; stroke-opacity:1; fill:none" points="1903.45,1035.39 1903.45,1016.49 "/>
<path clip-path="url(#clip400)" d="M253.333 1063.11 Q249.722 1063.11 247.893 1066.67 Q246.088 1070.21 246.088 1077.34 Q246.088 1084.45 247.893 1088.01 Q249.722 1091.56 253.333 1091.56 Q256.967 1091.56 258.773 1088.01 Q260.602 1084.45 260.602 1077.34 Q260.602 1070.21 258.773 1066.67 Q256.967 1063.11 253.333 1063.11 M253.333 1059.4 Q259.143 1059.4 262.199 1064.01 Q265.278 1068.59 265.278 1077.34 Q265.278 1086.07 262.199 1090.68 Q259.143 1095.26 253.333 1095.26 Q247.523 1095.26 244.444 1090.68 Q241.389 1086.07 241.389 1077.34 Q241.389 1068.59 244.444 1064.01 Q247.523 1059.4 253.333 1059.4 Z" fill="#000000" fill-rule="nonzero" fill-opacity="1" /><path clip-path="url(#clip400)" d="M558.056 1060.03 L576.412 1060.03 L576.412 1063.96 L562.338 1063.96 L562.338 1072.44 Q563.357 1072.09 564.375 1071.93 Q565.394 1071.74 566.412 1071.74 Q572.199 1071.74 575.579 1074.91 Q578.959 1078.08 578.959 1083.5 Q578.959 1089.08 575.486 1092.18 Q572.014 1095.26 565.695 1095.26 Q563.519 1095.26 561.25 1094.89 Q559.005 1094.52 556.598 1093.78 L556.598 1089.08 Q558.681 1090.21 560.903 1090.77 Q563.125 1091.32 565.602 1091.32 Q569.607 1091.32 571.945 1089.22 Q574.283 1087.11 574.283 1083.5 Q574.283 1079.89 571.945 1077.78 Q569.607 1075.68 565.602 1075.68 Q563.727 1075.68 561.852 1076.09 Q560 1076.51 558.056 1077.39 L558.056 1060.03 Z" fill="#000000" fill-rule="nonzero" fill-opacity="1" /><path clip-path="url(#clip400)" d="M598.171 1063.11 Q594.56 1063.11 592.732 1066.67 Q590.926 1070.21 590.926 1077.34 Q590.926 1084.45 592.732 1088.01 Q594.56 1091.56 598.171 1091.56 Q601.806 1091.56 603.611 1088.01 Q605.44 1084.45 605.44 1077.34 Q605.44 1070.21 603.611 1066.67 Q601.806 1063.11 598.171 1063.11 M598.171 1059.4 Q603.982 1059.4 607.037 1064.01 Q610.116 1068.59 610.116 1077.34 Q610.116 1086.07 607.037 1090.68 Q603.982 1095.26 598.171 1095.26 Q592.361 1095.26 589.283 1090.68 Q586.227 1086.07 586.227 1077.34 Q586.227 1068.59 589.283 1064.01 Q592.361 1059.4 598.171 1059.4 Z" fill="#000000" fill-rule="nonzero" fill-opacity="1" /><path clip-path="url(#clip400)" d="M872.987 1090.65 L880.626 1090.65 L880.626 1064.29 L872.315 1065.95 L872.315 1061.69 L880.579 1060.03 L885.255 1060.03 L885.255 1090.65 L892.894 1090.65 L892.894 1094.59 L872.987 1094.59 L872.987 1090.65 Z" fill="#000000" fill-rule="nonzero" fill-opacity="1" /><path clip-path="url(#clip400)" d="M912.338 1063.11 Q908.727 1063.11 906.899 1066.67 Q905.093 1070.21 905.093 1077.34 Q905.093 1084.45 906.899 1088.01 Q908.727 1091.56 912.338 1091.56 Q915.973 1091.56 917.778 1088.01 Q919.607 1084.45 919.607 1077.34 Q919.607 1070.21 917.778 1066.67 Q915.973 1063.11 912.338 1063.11 M912.338 1059.4 Q918.149 1059.4 921.204 1064.01 Q924.283 1068.59 924.283 1077.34 Q924.283 1086.07 921.204 1090.68 Q918.149 1095.26 912.338 1095.26 Q906.528 1095.26 903.45 1090.68 Q900.394 1086.07 900.394 1077.34 Q900.394 1068.59 903.45 1064.01 Q906.528 1059.4 912.338 1059.4 Z" fill="#000000" fill-rule="nonzero" fill-opacity="1" /><path clip-path="url(#clip400)" d="M942.5 1063.11 Q938.889 1063.11 937.061 1066.67 Q935.255 1070.21 935.255 1077.34 Q935.255 1084.45 937.061 1088.01 Q938.889 1091.56 942.5 1091.56 Q946.135 1091.56 947.94 1088.01 Q949.769 1084.45 949.769 1077.34 Q949.769 1070.21 947.94 1066.67 Q946.135 1063.11 942.5 1063.11 M942.5 1059.4 Q948.31 1059.4 951.366 1064.01 Q954.445 1068.59 954.445 1077.34 Q954.445 1086.07 951.366 1090.68 Q948.31 1095.26 942.5 1095.26 Q936.69 1095.26 933.611 1090.68 Q930.556 1086.07 930.556 1077.34 Q930.556 1068.59 933.611 1064.01 Q936.69 1059.4 942.5 1059.4 Z" fill="#000000" fill-rule="nonzero" fill-opacity="1" /><path clip-path="url(#clip400)" d="M1203.01 1090.65 L1210.65 1090.65 L1210.65 1064.29 L1202.34 1065.95 L1202.34 1061.69 L1210.6 1060.03 L1215.28 1060.03 L1215.28 1090.65 L1222.92 1090.65 L1222.92 1094.59 L1203.01 1094.59 L1203.01 1090.65 Z" fill="#000000" fill-rule="nonzero" fill-opacity="1" /><path clip-path="url(#clip400)" d="M1232.41 1060.03 L1250.76 1060.03 L1250.76 1063.96 L1236.69 1063.96 L1236.69 1072.44 Q1237.71 1072.09 1238.73 1071.93 Q1239.75 1071.74 1240.76 1071.74 Q1246.55 1071.74 1249.93 1074.91 Q1253.31 1078.08 1253.31 1083.5 Q1253.31 1089.08 1249.84 1092.18 Q1246.37 1095.26 1240.05 1095.26 Q1237.87 1095.26 1235.6 1094.89 Q1233.36 1094.52 1230.95 1093.78 L1230.95 1089.08 Q1233.03 1090.21 1235.26 1090.77 Q1237.48 1091.32 1239.95 1091.32 Q1243.96 1091.32 1246.3 1089.22 Q1248.63 1087.11 1248.63 1083.5 Q1248.63 1079.89 1246.3 1077.78 Q1243.96 1075.68 1239.95 1075.68 Q1238.08 1075.68 1236.2 1076.09 Q1234.35 1076.51 1232.41 1077.39 L1232.41 1060.03 Z" fill="#000000" fill-rule="nonzero" fill-opacity="1" /><path clip-path="url(#clip400)" d="M1272.52 1063.11 Q1268.91 1063.11 1267.08 1066.67 Q1265.28 1070.21 1265.28 1077.34 Q1265.28 1084.45 1267.08 1088.01 Q1268.91 1091.56 1272.52 1091.56 Q1276.16 1091.56 1277.96 1088.01 Q1279.79 1084.45 1279.79 1077.34 Q1279.79 1070.21 1277.96 1066.67 Q1276.16 1063.11 1272.52 1063.11 M1272.52 1059.4 Q1278.33 1059.4 1281.39 1064.01 Q1284.47 1068.59 1284.47 1077.34 Q1284.47 1086.07 1281.39 1090.68 Q1278.33 1095.26 1272.52 1095.26 Q1266.71 1095.26 1263.63 1090.68 Q1260.58 1086.07 1260.58 1077.34 Q1260.58 1068.59 1263.63 1064.01 Q1266.71 1059.4 1272.52 1059.4 Z" fill="#000000" fill-rule="nonzero" fill-opacity="1" /><path clip-path="url(#clip400)" d="M1537.12 1090.65 L1553.44 1090.65 L1553.44 1094.59 L1531.49 1094.59 L1531.49 1090.65 Q1534.16 1087.9 1538.74 1083.27 Q1543.35 1078.62 1544.53 1077.27 Q1546.77 1074.75 1547.65 1073.01 Q1548.55 1071.25 1548.55 1069.56 Q1548.55 1066.81 1546.61 1065.07 Q1544.69 1063.34 1541.59 1063.34 Q1539.39 1063.34 1536.93 1064.1 Q1534.5 1064.87 1531.73 1066.42 L1531.73 1061.69 Q1534.55 1060.56 1537 1059.98 Q1539.46 1059.4 1541.49 1059.4 Q1546.86 1059.4 1550.06 1062.09 Q1553.25 1064.77 1553.25 1069.26 Q1553.25 1071.39 1552.44 1073.31 Q1551.66 1075.21 1549.55 1077.81 Q1548.97 1078.48 1545.87 1081.69 Q1542.77 1084.89 1537.12 1090.65 Z" fill="#000000" fill-rule="nonzero" fill-opacity="1" /><path clip-path="url(#clip400)" d="M1573.25 1063.11 Q1569.64 1063.11 1567.81 1066.67 Q1566.01 1070.21 1566.01 1077.34 Q1566.01 1084.45 1567.81 1088.01 Q1569.64 1091.56 1573.25 1091.56 Q1576.89 1091.56 1578.69 1088.01 Q1580.52 1084.45 1580.52 1077.34 Q1580.52 1070.21 1578.69 1066.67 Q1576.89 1063.11 1573.25 1063.11 M1573.25 1059.4 Q1579.06 1059.4 1582.12 1064.01 Q1585.2 1068.59 1585.2 1077.34 Q1585.2 1086.07 1582.12 1090.68 Q1579.06 1095.26 1573.25 1095.26 Q1567.44 1095.26 1564.36 1090.68 Q1561.31 1086.07 1561.31 1077.34 Q1561.31 1068.59 1564.36 1064.01 Q1567.44 1059.4 1573.25 1059.4 Z" fill="#000000" fill-rule="nonzero" fill-opacity="1" /><path clip-path="url(#clip400)" d="M1603.42 1063.11 Q1599.8 1063.11 1597.98 1066.67 Q1596.17 1070.21 1596.17 1077.34 Q1596.17 1084.45 1597.98 1088.01 Q1599.8 1091.56 1603.42 1091.56 Q1607.05 1091.56 1608.86 1088.01 Q1610.68 1084.45 1610.68 1077.34 Q1610.68 1070.21 1608.86 1066.67 Q1607.05 1063.11 1603.42 1063.11 M1603.42 1059.4 Q1609.23 1059.4 1612.28 1064.01 Q1615.36 1068.59 1615.36 1077.34 Q1615.36 1086.07 1612.28 1090.68 Q1609.23 1095.26 1603.42 1095.26 Q1597.61 1095.26 1594.53 1090.68 Q1591.47 1086.07 1591.47 1077.34 Q1591.47 1068.59 1594.53 1064.01 Q1597.61 1059.4 1603.42 1059.4 Z" fill="#000000" fill-rule="nonzero" fill-opacity="1" /><path clip-path="url(#clip400)" d="M1867.14 1090.65 L1883.46 1090.65 L1883.46 1094.59 L1861.52 1094.59 L1861.52 1090.65 Q1864.18 1087.9 1868.76 1083.27 Q1873.37 1078.62 1874.55 1077.27 Q1876.8 1074.75 1877.68 1073.01 Q1878.58 1071.25 1878.58 1069.56 Q1878.58 1066.81 1876.63 1065.07 Q1874.71 1063.34 1871.61 1063.34 Q1869.41 1063.34 1866.96 1064.1 Q1864.53 1064.87 1861.75 1066.42 L1861.75 1061.69 Q1864.57 1060.56 1867.03 1059.98 Q1869.48 1059.4 1871.52 1059.4 Q1876.89 1059.4 1880.08 1062.09 Q1883.28 1064.77 1883.28 1069.26 Q1883.28 1071.39 1882.47 1073.31 Q1881.68 1075.21 1879.57 1077.81 Q1878.99 1078.48 1875.89 1081.69 Q1872.79 1084.89 1867.14 1090.65 Z" fill="#000000" fill-rule="nonzero" fill-opacity="1" /><path clip-path="url(#clip400)" d="M1893.32 1060.03 L1911.68 1060.03 L1911.68 1063.96 L1897.61 1063.96 L1897.61 1072.44 Q1898.62 1072.09 1899.64 1071.93 Q1900.66 1071.74 1901.68 1071.74 Q1907.47 1071.74 1910.85 1074.91 Q1914.23 1078.08 1914.23 1083.5 Q1914.23 1089.08 1910.75 1092.18 Q1907.28 1095.26 1900.96 1095.26 Q1898.79 1095.26 1896.52 1094.89 Q1894.27 1094.52 1891.86 1093.78 L1891.86 1089.08 Q1893.95 1090.21 1896.17 1090.77 Q1898.39 1091.32 1900.87 1091.32 Q1904.87 1091.32 1907.21 1089.22 Q1909.55 1087.11 1909.55 1083.5 Q1909.55 1079.89 1907.21 1077.78 Q1904.87 1075.68 1900.87 1075.68 Q1898.99 1075.68 1897.12 1076.09 Q1895.27 1076.51 1893.32 1077.39 L1893.32 1060.03 Z" fill="#000000" fill-rule="nonzero" fill-opacity="1" /><path clip-path="url(#clip400)" d="M1933.44 1063.11 Q1929.83 1063.11 1928 1066.67 Q1926.19 1070.21 1926.19 1077.34 Q1926.19 1084.45 1928 1088.01 Q1929.83 1091.56 1933.44 1091.56 Q1937.07 1091.56 1938.88 1088.01 Q1940.71 1084.45 1940.71 1077.34 Q1940.71 1070.21 1938.88 1066.67 Q1937.07 1063.11 1933.44 1063.11 M1933.44 1059.4 Q1939.25 1059.4 1942.3 1064.01 Q1945.38 1068.59 1945.38 1077.34 Q1945.38 1086.07 1942.3 1090.68 Q1939.25 1095.26 1933.44 1095.26 Q1927.63 1095.26 1924.55 1090.68 Q1921.49 1086.07 1921.49 1077.34 Q1921.49 1068.59 1924.55 1064.01 Q1927.63 1059.4 1933.44 1059.4 Z" fill="#000000" fill-rule="nonzero" fill-opacity="1" /><path clip-path="url(#clip400)" d="M867.327 1126.73 L897.373 1126.73 L897.373 1132.14 L873.756 1132.14 L873.756 1146.21 L896.386 1146.21 L896.386 1151.62 L873.756 1151.62 L873.756 1168.84 L897.946 1168.84 L897.946 1174.25 L867.327 1174.25 L867.327 1126.73 Z" fill="#000000" fill-rule="nonzero" fill-opacity="1" /><path clip-path="url(#clip400)" d="M937.891 1152.74 L937.891 1174.25 L932.034 1174.25 L932.034 1152.93 Q932.034 1147.87 930.061 1145.35 Q928.088 1142.84 924.141 1142.84 Q919.398 1142.84 916.661 1145.86 Q913.924 1148.88 913.924 1154.1 L913.924 1174.25 L908.036 1174.25 L908.036 1138.6 L913.924 1138.6 L913.924 1144.14 Q916.025 1140.93 918.857 1139.34 Q921.722 1137.74 925.446 1137.74 Q931.589 1137.74 934.74 1141.56 Q937.891 1145.35 937.891 1152.74 Z" fill="#000000" fill-rule="nonzero" fill-opacity="1" /><path clip-path="url(#clip400)" d="M980.064 1154.96 L980.064 1157.83 L953.137 1157.83 Q953.519 1163.88 956.765 1167.06 Q960.043 1170.21 965.868 1170.21 Q969.242 1170.21 972.393 1169.38 Q975.576 1168.55 978.695 1166.9 L978.695 1172.44 Q975.544 1173.77 972.234 1174.47 Q968.924 1175.17 965.518 1175.17 Q956.988 1175.17 951.991 1170.21 Q947.026 1165.24 947.026 1156.78 Q947.026 1148.03 951.736 1142.9 Q956.479 1137.74 964.499 1137.74 Q971.693 1137.74 975.862 1142.39 Q980.064 1147.01 980.064 1154.96 M974.207 1153.25 Q974.143 1148.44 971.502 1145.57 Q968.892 1142.71 964.563 1142.71 Q959.661 1142.71 956.701 1145.48 Q953.773 1148.25 953.328 1153.28 L974.207 1153.25 Z" fill="#000000" fill-rule="nonzero" fill-opacity="1" /><path clip-path="url(#clip400)" d="M1010.33 1144.08 Q1009.35 1143.51 1008.17 1143.25 Q1007.02 1142.96 1005.62 1142.96 Q1000.66 1142.96 997.983 1146.21 Q995.341 1149.43 995.341 1155.47 L995.341 1174.25 L989.453 1174.25 L989.453 1138.6 L995.341 1138.6 L995.341 1144.14 Q997.187 1140.9 1000.15 1139.34 Q1003.11 1137.74 1007.34 1137.74 Q1007.95 1137.74 1008.68 1137.84 Q1009.41 1137.9 1010.3 1138.06 L1010.33 1144.08 Z" fill="#000000" fill-rule="nonzero" fill-opacity="1" /><path clip-path="url(#clip400)" d="M1038.79 1156.01 Q1038.79 1149.65 1036.15 1146.15 Q1033.54 1142.65 1028.79 1142.65 Q1024.08 1142.65 1021.44 1146.15 Q1018.83 1149.65 1018.83 1156.01 Q1018.83 1162.35 1021.44 1165.85 Q1024.08 1169.35 1028.79 1169.35 Q1033.54 1169.35 1036.15 1165.85 Q1038.79 1162.35 1038.79 1156.01 M1044.64 1169.83 Q1044.64 1178.93 1040.6 1183.35 Q1036.56 1187.81 1028.22 1187.81 Q1025.13 1187.81 1022.4 1187.33 Q1019.66 1186.89 1017.08 1185.93 L1017.08 1180.24 Q1019.66 1181.64 1022.17 1182.3 Q1024.69 1182.97 1027.3 1182.97 Q1033.06 1182.97 1035.92 1179.95 Q1038.79 1176.96 1038.79 1170.88 L1038.79 1167.98 Q1036.97 1171.13 1034.14 1172.69 Q1031.31 1174.25 1027.36 1174.25 Q1020.8 1174.25 1016.79 1169.25 Q1012.78 1164.26 1012.78 1156.01 Q1012.78 1147.74 1016.79 1142.74 Q1020.8 1137.74 1027.36 1137.74 Q1031.31 1137.74 1034.14 1139.3 Q1036.97 1140.86 1038.79 1144.01 L1038.79 1138.6 L1044.64 1138.6 L1044.64 1169.83 Z" fill="#000000" fill-rule="nonzero" fill-opacity="1" /><path clip-path="url(#clip400)" d="M1071.54 1177.56 Q1069.06 1183.93 1066.7 1185.87 Q1064.35 1187.81 1060.4 1187.81 L1055.72 1187.81 L1055.72 1182.91 L1059.16 1182.91 Q1061.58 1182.91 1062.91 1181.76 Q1064.25 1180.62 1065.87 1176.35 L1066.92 1173.68 L1052.51 1138.6 L1058.71 1138.6 L1069.85 1166.49 L1080.99 1138.6 L1087.2 1138.6 L1071.54 1177.56 Z" fill="#000000" fill-rule="nonzero" fill-opacity="1" /><path clip-path="url(#clip400)" d="M1130.07 1124.79 Q1125.81 1132.11 1123.74 1139.27 Q1121.67 1146.43 1121.67 1153.79 Q1121.67 1161.14 1123.74 1168.36 Q1125.84 1175.56 1130.07 1182.85 L1124.98 1182.85 Q1120.2 1175.37 1117.82 1168.14 Q1115.46 1160.92 1115.46 1153.79 Q1115.46 1146.69 1117.82 1139.5 Q1120.17 1132.3 1124.98 1124.79 L1130.07 1124.79 Z" fill="#000000" fill-rule="nonzero" fill-opacity="1" /><path clip-path="url(#clip400)" d="M1141.69 1126.73 L1151.27 1126.73 L1163.4 1159.07 L1175.59 1126.73 L1185.17 1126.73 L1185.17 1174.25 L1178.9 1174.25 L1178.9 1132.52 L1166.64 1165.12 L1160.18 1165.12 L1147.93 1132.52 L1147.93 1174.25 L1141.69 1174.25 L1141.69 1126.73 Z" fill="#000000" fill-rule="nonzero" fill-opacity="1" /><path clip-path="url(#clip400)" d="M1228.17 1154.96 L1228.17 1157.83 L1201.24 1157.83 Q1201.62 1163.88 1204.87 1167.06 Q1208.15 1170.21 1213.97 1170.21 Q1217.35 1170.21 1220.5 1169.38 Q1223.68 1168.55 1226.8 1166.9 L1226.8 1172.44 Q1223.65 1173.77 1220.34 1174.47 Q1217.03 1175.17 1213.62 1175.17 Q1205.09 1175.17 1200.09 1170.21 Q1195.13 1165.24 1195.13 1156.78 Q1195.13 1148.03 1199.84 1142.9 Q1204.58 1137.74 1212.6 1137.74 Q1219.8 1137.74 1223.97 1142.39 Q1228.17 1147.01 1228.17 1154.96 M1222.31 1153.25 Q1222.25 1148.44 1219.61 1145.57 Q1217 1142.71 1212.67 1142.71 Q1207.76 1142.71 1204.8 1145.48 Q1201.88 1148.25 1201.43 1153.28 L1222.31 1153.25 Z" fill="#000000" fill-rule="nonzero" fill-opacity="1" /><path clip-path="url(#clip400)" d="M1250.29 1174.25 L1232.15 1126.73 L1238.86 1126.73 L1253.92 1166.74 L1269 1126.73 L1275.69 1126.73 L1257.58 1174.25 L1250.29 1174.25 Z" fill="#000000" fill-rule="nonzero" fill-opacity="1" /><path clip-path="url(#clip400)" d="M1281.45 1124.79 L1286.54 1124.79 Q1291.31 1132.3 1293.67 1139.5 Q1296.06 1146.69 1296.06 1153.79 Q1296.06 1160.92 1293.67 1168.14 Q1291.31 1175.37 1286.54 1182.85 L1281.45 1182.85 Q1285.68 1175.56 1287.75 1168.36 Q1289.85 1161.14 1289.85 1153.79 Q1289.85 1146.43 1287.75 1139.27 Q1285.68 1132.11 1281.45 1124.79 Z" fill="#000000" fill-rule="nonzero" fill-opacity="1" /><polyline clip-path="url(#clip400)" style="stroke:#000000; stroke-linecap:round; stroke-linejoin:round; stroke-width:4; stroke-opacity:1; fill:none" points="210.628,1035.39 210.628,117.424 "/>
<polyline clip-path="url(#clip400)" style="stroke:#000000; stroke-linecap:round; stroke-linejoin:round; stroke-width:4; stroke-opacity:1; fill:none" points="210.628,1009.41 229.526,1009.41 "/>
<polyline clip-path="url(#clip400)" style="stroke:#000000; stroke-linecap:round; stroke-linejoin:round; stroke-width:4; stroke-opacity:1; fill:none" points="210.628,792.907 229.526,792.907 "/>
<polyline clip-path="url(#clip400)" style="stroke:#000000; stroke-linecap:round; stroke-linejoin:round; stroke-width:4; stroke-opacity:1; fill:none" points="210.628,576.406 229.526,576.406 "/>
<polyline clip-path="url(#clip400)" style="stroke:#000000; stroke-linecap:round; stroke-linejoin:round; stroke-width:4; stroke-opacity:1; fill:none" points="210.628,359.905 229.526,359.905 "/>
<polyline clip-path="url(#clip400)" style="stroke:#000000; stroke-linecap:round; stroke-linejoin:round; stroke-width:4; stroke-opacity:1; fill:none" points="210.628,143.404 229.526,143.404 "/>
<path clip-path="url(#clip400)" d="M123.453 995.206 Q119.841 995.206 118.013 998.771 Q116.207 1002.31 116.207 1009.44 Q116.207 1016.55 118.013 1020.11 Q119.841 1023.66 123.453 1023.66 Q127.087 1023.66 128.892 1020.11 Q130.721 1016.55 130.721 1009.44 Q130.721 1002.31 128.892 998.771 Q127.087 995.206 123.453 995.206 M123.453 991.503 Q129.263 991.503 132.318 996.109 Q135.397 1000.69 135.397 1009.44 Q135.397 1018.17 132.318 1022.78 Q129.263 1027.36 123.453 1027.36 Q117.642 1027.36 114.564 1022.78 Q111.508 1018.17 111.508 1009.44 Q111.508 1000.69 114.564 996.109 Q117.642 991.503 123.453 991.503 Z" fill="#000000" fill-rule="nonzero" fill-opacity="1" /><path clip-path="url(#clip400)" d="M143.614 1020.81 L148.499 1020.81 L148.499 1026.69 L143.614 1026.69 L143.614 1020.81 Z" fill="#000000" fill-rule="nonzero" fill-opacity="1" /><path clip-path="url(#clip400)" d="M168.684 995.206 Q165.073 995.206 163.244 998.771 Q161.438 1002.31 161.438 1009.44 Q161.438 1016.55 163.244 1020.11 Q165.073 1023.66 168.684 1023.66 Q172.318 1023.66 174.124 1020.11 Q175.952 1016.55 175.952 1009.44 Q175.952 1002.31 174.124 998.771 Q172.318 995.206 168.684 995.206 M168.684 991.503 Q174.494 991.503 177.549 996.109 Q180.628 1000.69 180.628 1009.44 Q180.628 1018.17 177.549 1022.78 Q174.494 1027.36 168.684 1027.36 Q162.874 1027.36 159.795 1022.78 Q156.739 1018.17 156.739 1009.44 Q156.739 1000.69 159.795 996.109 Q162.874 991.503 168.684 991.503 Z" fill="#000000" fill-rule="nonzero" fill-opacity="1" /><path clip-path="url(#clip400)" d="M124.448 778.706 Q120.837 778.706 119.008 782.27 Q117.203 785.812 117.203 792.942 Q117.203 800.048 119.008 803.613 Q120.837 807.154 124.448 807.154 Q128.082 807.154 129.888 803.613 Q131.716 800.048 131.716 792.942 Q131.716 785.812 129.888 782.27 Q128.082 778.706 124.448 778.706 M124.448 775.002 Q130.258 775.002 133.314 779.608 Q136.392 784.192 136.392 792.942 Q136.392 801.668 133.314 806.275 Q130.258 810.858 124.448 810.858 Q118.638 810.858 115.559 806.275 Q112.504 801.668 112.504 792.942 Q112.504 784.192 115.559 779.608 Q118.638 775.002 124.448 775.002 Z" fill="#000000" fill-rule="nonzero" fill-opacity="1" /><path clip-path="url(#clip400)" d="M144.61 804.307 L149.494 804.307 L149.494 810.187 L144.61 810.187 L144.61 804.307 Z" fill="#000000" fill-rule="nonzero" fill-opacity="1" /><path clip-path="url(#clip400)" d="M159.725 775.627 L178.082 775.627 L178.082 779.562 L164.008 779.562 L164.008 788.034 Q165.026 787.687 166.045 787.525 Q167.063 787.34 168.082 787.34 Q173.869 787.34 177.249 790.511 Q180.628 793.682 180.628 799.099 Q180.628 804.678 177.156 807.779 Q173.684 810.858 167.364 810.858 Q165.188 810.858 162.92 810.488 Q160.675 810.117 158.267 809.377 L158.267 804.678 Q160.35 805.812 162.573 806.367 Q164.795 806.923 167.272 806.923 Q171.276 806.923 173.614 804.817 Q175.952 802.71 175.952 799.099 Q175.952 795.488 173.614 793.381 Q171.276 791.275 167.272 791.275 Q165.397 791.275 163.522 791.692 Q161.67 792.108 159.725 792.988 L159.725 775.627 Z" fill="#000000" fill-rule="nonzero" fill-opacity="1" /><path clip-path="url(#clip400)" d="M114.263 589.751 L121.902 589.751 L121.902 563.385 L113.591 565.052 L113.591 560.793 L121.855 559.126 L126.531 559.126 L126.531 589.751 L134.17 589.751 L134.17 593.686 L114.263 593.686 L114.263 589.751 Z" fill="#000000" fill-rule="nonzero" fill-opacity="1" /><path clip-path="url(#clip400)" d="M143.614 587.806 L148.499 587.806 L148.499 593.686 L143.614 593.686 L143.614 587.806 Z" fill="#000000" fill-rule="nonzero" fill-opacity="1" /><path clip-path="url(#clip400)" d="M168.684 562.205 Q165.073 562.205 163.244 565.769 Q161.438 569.311 161.438 576.441 Q161.438 583.547 163.244 587.112 Q165.073 590.654 168.684 590.654 Q172.318 590.654 174.124 587.112 Q175.952 583.547 175.952 576.441 Q175.952 569.311 174.124 565.769 Q172.318 562.205 168.684 562.205 M168.684 558.501 Q174.494 558.501 177.549 563.107 Q180.628 567.691 180.628 576.441 Q180.628 585.168 177.549 589.774 Q174.494 594.357 168.684 594.357 Q162.874 594.357 159.795 589.774 Q156.739 585.168 156.739 576.441 Q156.739 567.691 159.795 563.107 Q162.874 558.501 168.684 558.501 Z" fill="#000000" fill-rule="nonzero" fill-opacity="1" /><path clip-path="url(#clip400)" d="M115.258 373.25 L122.897 373.25 L122.897 346.884 L114.587 348.551 L114.587 344.292 L122.851 342.625 L127.527 342.625 L127.527 373.25 L135.165 373.25 L135.165 377.185 L115.258 377.185 L115.258 373.25 Z" fill="#000000" fill-rule="nonzero" fill-opacity="1" /><path clip-path="url(#clip400)" d="M144.61 371.306 L149.494 371.306 L149.494 377.185 L144.61 377.185 L144.61 371.306 Z" fill="#000000" fill-rule="nonzero" fill-opacity="1" /><path clip-path="url(#clip400)" d="M159.725 342.625 L178.082 342.625 L178.082 346.56 L164.008 346.56 L164.008 355.032 Q165.026 354.685 166.045 354.523 Q167.063 354.338 168.082 354.338 Q173.869 354.338 177.249 357.509 Q180.628 360.681 180.628 366.097 Q180.628 371.676 177.156 374.778 Q173.684 377.856 167.364 377.856 Q165.188 377.856 162.92 377.486 Q160.675 377.116 158.267 376.375 L158.267 371.676 Q160.35 372.81 162.573 373.366 Q164.795 373.921 167.272 373.921 Q171.276 373.921 173.614 371.815 Q175.952 369.708 175.952 366.097 Q175.952 362.486 173.614 360.38 Q171.276 358.273 167.272 358.273 Q165.397 358.273 163.522 358.69 Q161.67 359.107 159.725 359.986 L159.725 342.625 Z" fill="#000000" fill-rule="nonzero" fill-opacity="1" /><path clip-path="url(#clip400)" d="M117.48 156.749 L133.8 156.749 L133.8 160.684 L111.855 160.684 L111.855 156.749 Q114.517 153.994 119.101 149.365 Q123.707 144.712 124.888 143.37 Q127.133 140.846 128.013 139.11 Q128.915 137.351 128.915 135.661 Q128.915 132.907 126.971 131.171 Q125.05 129.434 121.948 129.434 Q119.749 129.434 117.295 130.198 Q114.865 130.962 112.087 132.513 L112.087 127.791 Q114.911 126.657 117.365 126.078 Q119.818 125.499 121.855 125.499 Q127.226 125.499 130.42 128.184 Q133.615 130.87 133.615 135.36 Q133.615 137.49 132.804 139.411 Q132.017 141.309 129.911 143.902 Q129.332 144.573 126.23 147.791 Q123.128 150.985 117.48 156.749 Z" fill="#000000" fill-rule="nonzero" fill-opacity="1" /><path clip-path="url(#clip400)" d="M143.614 154.805 L148.499 154.805 L148.499 160.684 L143.614 160.684 L143.614 154.805 Z" fill="#000000" fill-rule="nonzero" fill-opacity="1" /><path clip-path="url(#clip400)" d="M168.684 129.203 Q165.073 129.203 163.244 132.768 Q161.438 136.309 161.438 143.439 Q161.438 150.545 163.244 154.11 Q165.073 157.652 168.684 157.652 Q172.318 157.652 174.124 154.11 Q175.952 150.545 175.952 143.439 Q175.952 136.309 174.124 132.768 Q172.318 129.203 168.684 129.203 M168.684 125.499 Q174.494 125.499 177.549 130.106 Q180.628 134.689 180.628 143.439 Q180.628 152.166 177.549 156.772 Q174.494 161.356 168.684 161.356 Q162.874 161.356 159.795 156.772 Q156.739 152.166 156.739 143.439 Q156.739 134.689 159.795 130.106 Q162.874 125.499 168.684 125.499 Z" fill="#000000" fill-rule="nonzero" fill-opacity="1" /><path clip-path="url(#clip400)" d="M23.3924 648.434 L30.1719 648.434 Q27.1482 651.68 25.6523 655.373 Q24.1563 659.033 24.1563 663.171 Q24.1563 671.319 29.1534 675.647 Q34.1187 679.976 43.5399 679.976 Q52.9293 679.976 57.9264 675.647 Q62.8916 671.319 62.8916 663.171 Q62.8916 659.033 61.3957 655.373 Q59.8998 651.68 56.8761 648.434 L63.5919 648.434 Q65.8835 651.808 67.0294 655.595 Q68.1752 659.351 68.1752 663.553 Q68.1752 674.342 61.5867 680.549 Q54.9663 686.756 43.5399 686.756 Q32.0816 686.756 25.4931 680.549 Q18.8728 674.342 18.8728 663.553 Q18.8728 659.287 20.0186 655.532 Q21.1326 651.744 23.3924 648.434 Z" fill="#000000" fill-rule="nonzero" fill-opacity="1" /><path clip-path="url(#clip400)" d="M35.7101 624.944 Q35.7101 629.655 39.4022 632.392 Q43.0625 635.13 49.46 635.13 Q55.8575 635.13 59.5497 632.424 Q63.2099 629.687 63.2099 624.944 Q63.2099 620.266 59.5178 617.528 Q55.8257 614.791 49.46 614.791 Q43.1261 614.791 39.434 617.528 Q35.7101 620.266 35.7101 624.944 M30.7448 624.944 Q30.7448 617.306 35.7101 612.945 Q40.6753 608.585 49.46 608.585 Q58.2129 608.585 63.2099 612.945 Q68.1752 617.306 68.1752 624.944 Q68.1752 632.615 63.2099 636.976 Q58.2129 641.304 49.46 641.304 Q40.6753 641.304 35.7101 636.976 Q30.7448 632.615 30.7448 624.944 Z" fill="#000000" fill-rule="nonzero" fill-opacity="1" /><path clip-path="url(#clip400)" d="M53.1839 599.482 L31.6042 599.482 L31.6042 593.625 L52.9611 593.625 Q58.0219 593.625 60.5682 591.652 Q63.0826 589.678 63.0826 585.732 Q63.0826 580.989 60.0589 578.252 Q57.0352 575.483 51.8153 575.483 L31.6042 575.483 L31.6042 569.627 L67.2522 569.627 L67.2522 575.483 L61.7776 575.483 Q65.0242 577.615 66.6156 580.448 Q68.1752 583.249 68.1752 586.973 Q68.1752 593.116 64.3558 596.299 Q60.5363 599.482 53.1839 599.482 M30.7448 584.745 L30.7448 584.745 Z" fill="#000000" fill-rule="nonzero" fill-opacity="1" /><path clip-path="url(#clip400)" d="M45.7361 527.931 L67.2522 527.931 L67.2522 533.788 L45.927 533.788 Q40.8663 533.788 38.3518 535.761 Q35.8374 537.734 35.8374 541.681 Q35.8374 546.424 38.8611 549.161 Q41.8848 551.898 47.1047 551.898 L67.2522 551.898 L67.2522 557.786 L31.6042 557.786 L31.6042 551.898 L37.1424 551.898 Q33.9277 549.797 32.3363 546.965 Q30.7448 544.1 30.7448 540.376 Q30.7448 534.233 34.5643 531.082 Q38.3518 527.931 45.7361 527.931 Z" fill="#000000" fill-rule="nonzero" fill-opacity="1" /><path clip-path="url(#clip400)" d="M21.4827 510.457 L31.6042 510.457 L31.6042 498.394 L36.1557 498.394 L36.1557 510.457 L55.5074 510.457 Q59.8679 510.457 61.1093 509.28 Q62.3506 508.07 62.3506 504.41 L62.3506 498.394 L67.2522 498.394 L67.2522 504.41 Q67.2522 511.189 64.7377 513.767 Q62.1914 516.346 55.5074 516.346 L36.1557 516.346 L36.1557 520.642 L31.6042 520.642 L31.6042 516.346 L21.4827 516.346 L21.4827 510.457 Z" fill="#000000" fill-rule="nonzero" fill-opacity="1" /><path clip-path="url(#clip400)" d="M32.6545 467.966 L38.1927 467.966 Q36.9196 470.449 36.283 473.122 Q35.6464 475.796 35.6464 478.661 Q35.6464 483.021 36.9832 485.217 Q38.32 487.382 40.9936 487.382 Q43.0306 487.382 44.2083 485.822 Q45.3541 484.262 46.4045 479.552 L46.8501 477.547 Q48.1869 471.308 50.6377 468.698 Q53.0566 466.056 57.4171 466.056 Q62.3824 466.056 65.2788 470.003 Q68.1752 473.918 68.1752 480.793 Q68.1752 483.658 67.6023 486.777 Q67.0612 489.864 65.9472 493.302 L59.8998 493.302 Q61.5867 490.055 62.446 486.904 Q63.2736 483.753 63.2736 480.666 Q63.2736 476.528 61.8731 474.3 Q60.4409 472.072 57.8627 472.072 Q55.4756 472.072 54.2025 473.695 Q52.9293 475.287 51.7517 480.729 L51.2742 482.766 Q50.1284 488.209 47.7731 490.628 Q45.386 493.047 41.2482 493.047 Q36.2193 493.047 33.4821 489.482 Q30.7448 485.917 30.7448 479.361 Q30.7448 476.114 31.2223 473.25 Q31.6997 470.385 32.6545 467.966 Z" fill="#000000" fill-rule="nonzero" fill-opacity="1" /><path clip-path="url(#clip400)" d="M386.051 12.096 L398.244 12.096 L413.678 53.2532 L429.193 12.096 L441.386 12.096 L441.386 72.576 L433.406 72.576 L433.406 19.4686 L417.81 60.9499 L409.586 60.9499 L393.99 19.4686 L393.99 72.576 L386.051 72.576 L386.051 12.096 Z" fill="#000000" fill-rule="nonzero" fill-opacity="1" /><path clip-path="url(#clip400)" d="M474.887 32.4315 Q468.891 32.4315 465.408 37.1306 Q461.924 41.7891 461.924 49.9314 Q461.924 58.0738 465.367 62.7728 Q468.851 67.4314 474.887 67.4314 Q480.842 67.4314 484.325 62.7323 Q487.809 58.0333 487.809 49.9314 Q487.809 41.8701 484.325 37.1711 Q480.842 32.4315 474.887 32.4315 M474.887 26.1121 Q484.609 26.1121 490.159 32.4315 Q495.708 38.7509 495.708 49.9314 Q495.708 61.0714 490.159 67.4314 Q484.609 73.7508 474.887 73.7508 Q465.124 73.7508 459.574 67.4314 Q454.065 61.0714 454.065 49.9314 Q454.065 38.7509 459.574 32.4315 Q465.124 26.1121 474.887 26.1121 Z" fill="#000000" fill-rule="nonzero" fill-opacity="1" /><path clip-path="url(#clip400)" d="M545.778 45.1919 L545.778 72.576 L538.324 72.576 L538.324 45.4349 Q538.324 38.994 535.812 35.7938 Q533.301 32.5936 528.278 32.5936 Q522.242 32.5936 518.758 36.4419 Q515.274 40.2903 515.274 46.9338 L515.274 72.576 L507.78 72.576 L507.78 27.2059 L515.274 27.2059 L515.274 34.2544 Q517.948 30.163 521.553 28.1376 Q525.199 26.1121 529.939 26.1121 Q537.757 26.1121 541.767 30.9732 Q545.778 35.7938 545.778 45.1919 Z" fill="#000000" fill-rule="nonzero" fill-opacity="1" /><path clip-path="url(#clip400)" d="M578.225 32.4315 Q572.23 32.4315 568.746 37.1306 Q565.263 41.7891 565.263 49.9314 Q565.263 58.0738 568.706 62.7728 Q572.19 67.4314 578.225 67.4314 Q584.18 67.4314 587.664 62.7323 Q591.148 58.0333 591.148 49.9314 Q591.148 41.8701 587.664 37.1711 Q584.18 32.4315 578.225 32.4315 M578.225 26.1121 Q587.948 26.1121 593.497 32.4315 Q599.047 38.7509 599.047 49.9314 Q599.047 61.0714 593.497 67.4314 Q587.948 73.7508 578.225 73.7508 Q568.463 73.7508 562.913 67.4314 Q557.404 61.0714 557.404 49.9314 Q557.404 38.7509 562.913 32.4315 Q568.463 26.1121 578.225 26.1121 Z" fill="#000000" fill-rule="nonzero" fill-opacity="1" /><path clip-path="url(#clip400)" d="M650.21 48.0275 L650.21 51.6733 L615.939 51.6733 Q616.425 59.3701 620.557 63.421 Q624.73 67.4314 632.143 67.4314 Q636.437 67.4314 640.447 66.3781 Q644.498 65.3249 648.468 63.2184 L648.468 70.267 Q644.458 71.9684 640.245 72.8596 Q636.032 73.7508 631.697 73.7508 Q620.841 73.7508 614.481 67.4314 Q608.162 61.1119 608.162 50.3365 Q608.162 39.1965 614.157 32.6746 Q620.193 26.1121 630.401 26.1121 Q639.556 26.1121 644.863 32.0264 Q650.21 37.9003 650.21 48.0275 M642.756 45.84 Q642.675 39.7232 639.313 36.0774 Q635.991 32.4315 630.482 32.4315 Q624.244 32.4315 620.476 35.9558 Q616.749 39.4801 616.182 45.8805 L642.756 45.84 Z" fill="#000000" fill-rule="nonzero" fill-opacity="1" /><path clip-path="url(#clip400)" d="M700.158 45.1919 L700.158 72.576 L692.704 72.576 L692.704 45.4349 Q692.704 38.994 690.192 35.7938 Q687.681 32.5936 682.658 32.5936 Q676.622 32.5936 673.138 36.4419 Q669.654 40.2903 669.654 46.9338 L669.654 72.576 L662.16 72.576 L662.16 27.2059 L669.654 27.2059 L669.654 34.2544 Q672.328 30.163 675.933 28.1376 Q679.579 26.1121 684.319 26.1121 Q692.137 26.1121 696.147 30.9732 Q700.158 35.7938 700.158 45.1919 Z" fill="#000000" fill-rule="nonzero" fill-opacity="1" /><path clip-path="url(#clip400)" d="M753.832 48.0275 L753.832 51.6733 L719.561 51.6733 Q720.048 59.3701 724.179 63.421 Q728.352 67.4314 735.765 67.4314 Q740.059 67.4314 744.069 66.3781 Q748.12 65.3249 752.09 63.2184 L752.09 70.267 Q748.08 71.9684 743.867 72.8596 Q739.654 73.7508 735.319 73.7508 Q724.463 73.7508 718.103 67.4314 Q711.784 61.1119 711.784 50.3365 Q711.784 39.1965 717.779 32.6746 Q723.815 26.1121 734.023 26.1121 Q743.178 26.1121 748.485 32.0264 Q753.832 37.9003 753.832 48.0275 M746.378 45.84 Q746.297 39.7232 742.935 36.0774 Q739.613 32.4315 734.104 32.4315 Q727.866 32.4315 724.098 35.9558 Q720.372 39.4801 719.805 45.8805 L746.378 45.84 Z" fill="#000000" fill-rule="nonzero" fill-opacity="1" /><path clip-path="url(#clip400)" d="M792.356 34.1734 Q791.1 33.4443 789.602 33.1202 Q788.143 32.7556 786.361 32.7556 Q780.041 32.7556 776.639 36.8875 Q773.276 40.9789 773.276 48.6757 L773.276 72.576 L765.782 72.576 L765.782 27.2059 L773.276 27.2059 L773.276 34.2544 Q775.626 30.1225 779.393 28.1376 Q783.161 26.1121 788.548 26.1121 Q789.318 26.1121 790.25 26.2337 Q791.181 26.3147 792.316 26.5172 L792.356 34.1734 Z" fill="#000000" fill-rule="nonzero" fill-opacity="1" /><path clip-path="url(#clip400)" d="M828.571 49.3643 Q828.571 41.2625 825.209 36.8065 Q821.887 32.3505 815.851 32.3505 Q809.856 32.3505 806.494 36.8065 Q803.172 41.2625 803.172 49.3643 Q803.172 57.4256 806.494 61.8816 Q809.856 66.3376 815.851 66.3376 Q821.887 66.3376 825.209 61.8816 Q828.571 57.4256 828.571 49.3643 M836.025 66.9452 Q836.025 78.5308 830.88 84.1616 Q825.736 89.8329 815.122 89.8329 Q811.193 89.8329 807.709 89.2252 Q804.225 88.6581 800.944 87.4428 L800.944 80.1917 Q804.225 81.9741 807.426 82.8248 Q810.626 83.6755 813.948 83.6755 Q821.28 83.6755 824.925 79.8271 Q828.571 76.0193 828.571 68.282 L828.571 64.5957 Q826.262 68.6061 822.657 70.5911 Q819.052 72.576 814.029 72.576 Q805.684 72.576 800.58 66.2161 Q795.475 59.8562 795.475 49.3643 Q795.475 38.832 800.58 32.472 Q805.684 26.1121 814.029 26.1121 Q819.052 26.1121 822.657 28.0971 Q826.262 30.082 828.571 34.0924 L828.571 27.2059 L836.025 27.2059 L836.025 66.9452 Z" fill="#000000" fill-rule="nonzero" fill-opacity="1" /><path clip-path="url(#clip400)" d="M890.186 48.0275 L890.186 51.6733 L855.915 51.6733 Q856.401 59.3701 860.533 63.421 Q864.705 67.4314 872.119 67.4314 Q876.412 67.4314 880.423 66.3781 Q884.474 65.3249 888.444 63.2184 L888.444 70.267 Q884.433 71.9684 880.22 72.8596 Q876.007 73.7508 871.673 73.7508 Q860.816 73.7508 854.457 67.4314 Q848.137 61.1119 848.137 50.3365 Q848.137 39.1965 854.132 32.6746 Q860.168 26.1121 870.377 26.1121 Q879.532 26.1121 884.838 32.0264 Q890.186 37.9003 890.186 48.0275 M882.732 45.84 Q882.651 39.7232 879.289 36.0774 Q875.967 32.4315 870.458 32.4315 Q864.219 32.4315 860.452 35.9558 Q856.725 39.4801 856.158 45.8805 L882.732 45.84 Z" fill="#000000" fill-rule="nonzero" fill-opacity="1" /><path clip-path="url(#clip400)" d="M909.792 14.324 L909.792 27.2059 L925.145 27.2059 L925.145 32.9987 L909.792 32.9987 L909.792 57.6282 Q909.792 63.1779 911.291 64.7578 Q912.83 66.3376 917.489 66.3376 L925.145 66.3376 L925.145 72.576 L917.489 72.576 Q908.86 72.576 905.579 69.3758 Q902.298 66.1351 902.298 57.6282 L902.298 32.9987 L896.829 32.9987 L896.829 27.2059 L902.298 27.2059 L902.298 14.324 L909.792 14.324 Z" fill="#000000" fill-rule="nonzero" fill-opacity="1" /><path clip-path="url(#clip400)" d="M934.948 27.2059 L942.402 27.2059 L942.402 72.576 L934.948 72.576 L934.948 27.2059 M934.948 9.54393 L942.402 9.54393 L942.402 18.9825 L934.948 18.9825 L934.948 9.54393 Z" fill="#000000" fill-rule="nonzero" fill-opacity="1" /><path clip-path="url(#clip400)" d="M990.648 28.9478 L990.648 35.9153 Q987.488 34.1734 984.288 33.3227 Q981.128 32.4315 977.888 32.4315 Q970.636 32.4315 966.626 37.0496 Q962.616 41.6271 962.616 49.9314 Q962.616 58.2358 966.626 62.8538 Q970.636 67.4314 977.888 67.4314 Q981.128 67.4314 984.288 66.5807 Q987.488 65.6895 990.648 63.9476 L990.648 70.8341 Q987.529 72.2924 984.167 73.0216 Q980.845 73.7508 977.077 73.7508 Q966.829 73.7508 960.793 67.3098 Q954.757 60.8689 954.757 49.9314 Q954.757 38.832 960.833 32.472 Q966.95 26.1121 977.564 26.1121 Q981.007 26.1121 984.288 26.8413 Q987.569 27.5299 990.648 28.9478 Z" fill="#000000" fill-rule="nonzero" fill-opacity="1" /><path clip-path="url(#clip400)" d="M1030.31 12.096 L1041.32 12.096 L1068.14 62.6918 L1068.14 12.096 L1076.08 12.096 L1076.08 72.576 L1065.06 72.576 L1038.25 21.9802 L1038.25 72.576 L1030.31 72.576 L1030.31 12.096 Z" fill="#000000" fill-rule="nonzero" fill-opacity="1" /><path clip-path="url(#clip400)" d="M1130.85 48.0275 L1130.85 51.6733 L1096.58 51.6733 Q1097.07 59.3701 1101.2 63.421 Q1105.37 67.4314 1112.78 67.4314 Q1117.08 67.4314 1121.09 66.3781 Q1125.14 65.3249 1129.11 63.2184 L1129.11 70.267 Q1125.1 71.9684 1120.88 72.8596 Q1116.67 73.7508 1112.34 73.7508 Q1101.48 73.7508 1095.12 67.4314 Q1088.8 61.1119 1088.8 50.3365 Q1088.8 39.1965 1094.8 32.6746 Q1100.83 26.1121 1111.04 26.1121 Q1120.2 26.1121 1125.5 32.0264 Q1130.85 37.9003 1130.85 48.0275 M1123.4 45.84 Q1123.32 39.7232 1119.95 36.0774 Q1116.63 32.4315 1111.12 32.4315 Q1104.88 32.4315 1101.12 35.9558 Q1097.39 39.4801 1096.82 45.8805 L1123.4 45.84 Z" fill="#000000" fill-rule="nonzero" fill-opacity="1" /><path clip-path="url(#clip400)" d="M1142.31 54.671 L1142.31 27.2059 L1149.77 27.2059 L1149.77 54.3874 Q1149.77 60.8284 1152.28 64.0691 Q1154.79 67.2693 1159.81 67.2693 Q1165.85 67.2693 1169.33 63.421 Q1172.86 59.5726 1172.86 52.9291 L1172.86 27.2059 L1180.31 27.2059 L1180.31 72.576 L1172.86 72.576 L1172.86 65.6084 Q1170.14 69.7404 1166.54 71.7658 Q1162.97 73.7508 1158.23 73.7508 Q1150.42 73.7508 1146.36 68.8897 Q1142.31 64.0286 1142.31 54.671 M1161.07 26.1121 L1161.07 26.1121 Z" fill="#000000" fill-rule="nonzero" fill-opacity="1" /><path clip-path="url(#clip400)" d="M1203.04 14.324 L1203.04 27.2059 L1218.39 27.2059 L1218.39 32.9987 L1203.04 32.9987 L1203.04 57.6282 Q1203.04 63.1779 1204.54 64.7578 Q1206.08 66.3376 1210.73 66.3376 L1218.39 66.3376 L1218.39 72.576 L1210.73 72.576 Q1202.11 72.576 1198.82 69.3758 Q1195.54 66.1351 1195.54 57.6282 L1195.54 32.9987 L1190.07 32.9987 L1190.07 27.2059 L1195.54 27.2059 L1195.54 14.324 L1203.04 14.324 Z" fill="#000000" fill-rule="nonzero" fill-opacity="1" /><path clip-path="url(#clip400)" d="M1254.48 34.1734 Q1253.23 33.4443 1251.73 33.1202 Q1250.27 32.7556 1248.49 32.7556 Q1242.17 32.7556 1238.77 36.8875 Q1235.4 40.9789 1235.4 48.6757 L1235.4 72.576 L1227.91 72.576 L1227.91 27.2059 L1235.4 27.2059 L1235.4 34.2544 Q1237.75 30.1225 1241.52 28.1376 Q1245.29 26.1121 1250.68 26.1121 Q1251.45 26.1121 1252.38 26.2337 Q1253.31 26.3147 1254.44 26.5172 L1254.48 34.1734 Z" fill="#000000" fill-rule="nonzero" fill-opacity="1" /><path clip-path="url(#clip400)" d="M1278.06 32.4315 Q1272.06 32.4315 1268.58 37.1306 Q1265.1 41.7891 1265.1 49.9314 Q1265.1 58.0738 1268.54 62.7728 Q1272.02 67.4314 1278.06 67.4314 Q1284.01 67.4314 1287.5 62.7323 Q1290.98 58.0333 1290.98 49.9314 Q1290.98 41.8701 1287.5 37.1711 Q1284.01 32.4315 1278.06 32.4315 M1278.06 26.1121 Q1287.78 26.1121 1293.33 32.4315 Q1298.88 38.7509 1298.88 49.9314 Q1298.88 61.0714 1293.33 67.4314 Q1287.78 73.7508 1278.06 73.7508 Q1268.3 73.7508 1262.75 67.4314 Q1257.24 61.0714 1257.24 49.9314 Q1257.24 38.7509 1262.75 32.4315 Q1268.3 26.1121 1278.06 26.1121 Z" fill="#000000" fill-rule="nonzero" fill-opacity="1" /><path clip-path="url(#clip400)" d="M1348.95 45.1919 L1348.95 72.576 L1341.5 72.576 L1341.5 45.4349 Q1341.5 38.994 1338.99 35.7938 Q1336.47 32.5936 1331.45 32.5936 Q1325.41 32.5936 1321.93 36.4419 Q1318.45 40.2903 1318.45 46.9338 L1318.45 72.576 L1310.95 72.576 L1310.95 27.2059 L1318.45 27.2059 L1318.45 34.2544 Q1321.12 30.163 1324.73 28.1376 Q1328.37 26.1121 1333.11 26.1121 Q1340.93 26.1121 1344.94 30.9732 Q1348.95 35.7938 1348.95 45.1919 Z" fill="#000000" fill-rule="nonzero" fill-opacity="1" /><path clip-path="url(#clip400)" d="M1426.77 14.0809 L1426.77 22.0612 Q1422.11 19.8332 1417.98 18.7395 Q1413.85 17.6457 1410 17.6457 Q1403.31 17.6457 1399.67 20.2383 Q1396.06 22.8309 1396.06 27.611 Q1396.06 31.6214 1398.45 33.6873 Q1400.88 35.7128 1407.61 36.9686 L1412.55 37.9813 Q1421.7 39.7232 1426.04 44.1387 Q1430.41 48.5136 1430.41 55.8863 Q1430.41 64.6767 1424.5 69.2137 Q1418.63 73.7508 1407.24 73.7508 Q1402.95 73.7508 1398.09 72.7785 Q1393.27 71.8063 1388.08 69.9024 L1388.08 61.4765 Q1393.06 64.2716 1397.84 65.6895 Q1402.62 67.1073 1407.24 67.1073 Q1414.25 67.1073 1418.06 64.3527 Q1421.87 61.598 1421.87 56.4939 Q1421.87 52.0379 1419.11 49.5264 Q1416.4 47.0148 1410.16 45.759 L1405.18 44.7868 Q1396.02 42.9639 1391.93 39.075 Q1387.84 35.1862 1387.84 28.2591 Q1387.84 20.2383 1393.47 15.6203 Q1399.14 11.0023 1409.07 11.0023 Q1413.32 11.0023 1417.73 11.7719 Q1422.15 12.5416 1426.77 14.0809 Z" fill="#000000" fill-rule="nonzero" fill-opacity="1" /><path clip-path="url(#clip400)" d="M1450.06 65.7705 L1450.06 89.8329 L1442.57 89.8329 L1442.57 27.2059 L1450.06 27.2059 L1450.06 34.0924 Q1452.41 30.0415 1455.98 28.0971 Q1459.58 26.1121 1464.56 26.1121 Q1472.83 26.1121 1477.97 32.6746 Q1483.16 39.2371 1483.16 49.9314 Q1483.16 60.6258 1477.97 67.1883 Q1472.83 73.7508 1464.56 73.7508 Q1459.58 73.7508 1455.98 71.8063 Q1452.41 69.8214 1450.06 65.7705 M1475.42 49.9314 Q1475.42 41.7081 1472.02 37.0496 Q1468.65 32.3505 1462.74 32.3505 Q1456.83 32.3505 1453.42 37.0496 Q1450.06 41.7081 1450.06 49.9314 Q1450.06 58.1548 1453.42 62.8538 Q1456.83 67.5124 1462.74 67.5124 Q1468.65 67.5124 1472.02 62.8538 Q1475.42 58.1548 1475.42 49.9314 Z" fill="#000000" fill-rule="nonzero" fill-opacity="1" /><path clip-path="url(#clip400)" d="M1534.32 48.0275 L1534.32 51.6733 L1500.05 51.6733 Q1500.54 59.3701 1504.67 63.421 Q1508.84 67.4314 1516.25 67.4314 Q1520.55 67.4314 1524.56 66.3781 Q1528.61 65.3249 1532.58 63.2184 L1532.58 70.267 Q1528.57 71.9684 1524.35 72.8596 Q1520.14 73.7508 1515.81 73.7508 Q1504.95 73.7508 1498.59 67.4314 Q1492.27 61.1119 1492.27 50.3365 Q1492.27 39.1965 1498.27 32.6746 Q1504.3 26.1121 1514.51 26.1121 Q1523.67 26.1121 1528.97 32.0264 Q1534.32 37.9003 1534.32 48.0275 M1526.87 45.84 Q1526.79 39.7232 1523.42 36.0774 Q1520.1 32.4315 1514.59 32.4315 Q1508.35 32.4315 1504.59 35.9558 Q1500.86 39.4801 1500.29 45.8805 L1526.87 45.84 Z" fill="#000000" fill-rule="nonzero" fill-opacity="1" /><path clip-path="url(#clip400)" d="M1579.2 28.9478 L1579.2 35.9153 Q1576.04 34.1734 1572.84 33.3227 Q1569.68 32.4315 1566.44 32.4315 Q1559.19 32.4315 1555.18 37.0496 Q1551.17 41.6271 1551.17 49.9314 Q1551.17 58.2358 1555.18 62.8538 Q1559.19 67.4314 1566.44 67.4314 Q1569.68 67.4314 1572.84 66.5807 Q1576.04 65.6895 1579.2 63.9476 L1579.2 70.8341 Q1576.08 72.2924 1572.72 73.0216 Q1569.4 73.7508 1565.63 73.7508 Q1555.38 73.7508 1549.35 67.3098 Q1543.31 60.8689 1543.31 49.9314 Q1543.31 38.832 1549.39 32.472 Q1555.51 26.1121 1566.12 26.1121 Q1569.56 26.1121 1572.84 26.8413 Q1576.13 27.5299 1579.2 28.9478 Z" fill="#000000" fill-rule="nonzero" fill-opacity="1" /><path clip-path="url(#clip400)" d="M1599.54 14.324 L1599.54 27.2059 L1614.89 27.2059 L1614.89 32.9987 L1599.54 32.9987 L1599.54 57.6282 Q1599.54 63.1779 1601.04 64.7578 Q1602.58 66.3376 1607.24 66.3376 L1614.89 66.3376 L1614.89 72.576 L1607.24 72.576 Q1598.61 72.576 1595.33 69.3758 Q1592.05 66.1351 1592.05 57.6282 L1592.05 32.9987 L1586.58 32.9987 L1586.58 27.2059 L1592.05 27.2059 L1592.05 14.324 L1599.54 14.324 Z" fill="#000000" fill-rule="nonzero" fill-opacity="1" /><path clip-path="url(#clip400)" d="M1650.99 34.1734 Q1649.73 33.4443 1648.23 33.1202 Q1646.77 32.7556 1644.99 32.7556 Q1638.67 32.7556 1635.27 36.8875 Q1631.91 40.9789 1631.91 48.6757 L1631.91 72.576 L1624.41 72.576 L1624.41 27.2059 L1631.91 27.2059 L1631.91 34.2544 Q1634.26 30.1225 1638.02 28.1376 Q1641.79 26.1121 1647.18 26.1121 Q1647.95 26.1121 1648.88 26.2337 Q1649.81 26.3147 1650.95 26.5172 L1650.99 34.1734 Z" fill="#000000" fill-rule="nonzero" fill-opacity="1" /><path clip-path="url(#clip400)" d="M1658.03 54.671 L1658.03 27.2059 L1665.49 27.2059 L1665.49 54.3874 Q1665.49 60.8284 1668 64.0691 Q1670.51 67.2693 1675.53 67.2693 Q1681.57 67.2693 1685.05 63.421 Q1688.58 59.5726 1688.58 52.9291 L1688.58 27.2059 L1696.03 27.2059 L1696.03 72.576 L1688.58 72.576 L1688.58 65.6084 Q1685.86 69.7404 1682.26 71.7658 Q1678.69 73.7508 1673.95 73.7508 Q1666.14 73.7508 1662.09 68.8897 Q1658.03 64.0286 1658.03 54.671 M1676.79 26.1121 L1676.79 26.1121 Z" fill="#000000" fill-rule="nonzero" fill-opacity="1" /><path clip-path="url(#clip400)" d="M1746.71 35.9153 Q1749.5 30.8922 1753.39 28.5022 Q1757.28 26.1121 1762.55 26.1121 Q1769.64 26.1121 1773.49 31.0947 Q1777.33 36.0368 1777.33 45.1919 L1777.33 72.576 L1769.84 72.576 L1769.84 45.4349 Q1769.84 38.913 1767.53 35.7533 Q1765.22 32.5936 1760.48 32.5936 Q1754.69 32.5936 1751.33 36.4419 Q1747.96 40.2903 1747.96 46.9338 L1747.96 72.576 L1740.47 72.576 L1740.47 45.4349 Q1740.47 38.8725 1738.16 35.7533 Q1735.85 32.5936 1731.03 32.5936 Q1725.32 32.5936 1721.96 36.4824 Q1718.6 40.3308 1718.6 46.9338 L1718.6 72.576 L1711.1 72.576 L1711.1 27.2059 L1718.6 27.2059 L1718.6 34.2544 Q1721.15 30.082 1724.71 28.0971 Q1728.28 26.1121 1733.18 26.1121 Q1738.12 26.1121 1741.56 28.6237 Q1745.05 31.1352 1746.71 35.9153 Z" fill="#000000" fill-rule="nonzero" fill-opacity="1" /><polyline clip-path="url(#clip402)" style="stroke:#000000; stroke-linecap:round; stroke-linejoin:round; stroke-width:4; stroke-opacity:1; fill:none" points="259.934,1009.41 259.934,1009.41 266.534,1009.41 273.135,1009.41 279.735,1009.41 286.336,1009.41 292.936,1009.41 299.536,1009.41 306.137,1009.41 312.737,1009.41 319.338,1009.41 325.938,1009.41 332.539,1009.41 339.139,1009.41 345.74,1009.41 352.34,1009.41 358.941,1009.41 365.541,1009.41 372.142,1009.41 378.742,1009.41 385.343,1009.41 391.943,1009.41 398.544,1009.41 405.144,1009.41 411.744,1009.41 418.345,1009.41 424.945,1009.41 431.546,1009.41 438.146,1009.41 444.747,1009.41 451.347,1009.41 457.948,1009.41 464.548,1009.41 471.149,1009.41 477.749,1009.41 484.35,1009.41 490.95,1009.41 497.551,1009.41 497.551,576.406 504.151,576.406 504.151,1009.41 510.751,1009.41 517.352,1009.41 523.952,1009.41 530.553,1009.41 537.153,1009.41 543.754,1009.41 543.754,576.406 550.354,576.406 550.354,1009.41 556.955,1009.41 563.555,1009.41 570.156,1009.41 576.756,1009.41 583.357,1009.41 589.957,1009.41 596.558,1009.41 603.158,1009.41 609.759,1009.41 609.759,576.406 616.359,576.406 616.359,1009.41 622.959,1009.41 629.56,1009.41 636.16,1009.41 642.761,1009.41 649.361,1009.41 655.962,1009.41 662.562,1009.41 669.163,1009.41 675.763,1009.41 682.364,1009.41 688.964,1009.41 688.964,143.404 695.565,143.404 695.565,1009.41 702.165,1009.41 702.165,576.406 708.766,576.406 715.366,576.406 721.966,576.406 728.567,576.406 728.567,1009.41 735.167,1009.41 741.768,1009.41 748.368,1009.41 754.969,1009.41 761.569,1009.41 768.17,1009.41 774.77,1009.41 781.371,1009.41 787.971,1009.41 794.572,1009.41 801.172,1009.41 807.773,1009.41 814.373,1009.41 820.974,1009.41 820.974,576.406 827.574,576.406 827.574,1009.41 834.174,1009.41 840.775,1009.41 847.375,1009.41 853.976,1009.41 860.576,1009.41 867.177,1009.41 873.777,1009.41 880.378,1009.41 886.978,1009.41 893.579,1009.41 900.179,1009.41 906.78,1009.41 913.38,1009.41 919.981,1009.41 926.581,1009.41 933.181,1009.41 939.782,1009.41 946.382,1009.41 952.983,1009.41 959.583,1009.41 966.184,1009.41 972.784,1009.41 979.385,1009.41 985.985,1009.41 992.586,1009.41 999.186,1009.41 1005.79,1009.41 1012.39,1009.41 1012.39,576.406 1018.99,576.406 1018.99,1009.41 1025.59,1009.41 1032.19,1009.41 1038.79,1009.41 1045.39,1009.41 1051.99,1009.41 1058.59,1009.41 1065.19,1009.41 1071.79,1009.41 1078.39,1009.41 1084.99,1009.41 1091.59,1009.41 1098.19,1009.41 1104.79,1009.41 1111.39,1009.41 1117.99,1009.41 1124.6,1009.41 1131.2,1009.41 1137.8,1009.41 1144.4,1009.41 1151,1009.41 1157.6,1009.41 1164.2,1009.41 1170.8,1009.41 1177.4,1009.41 1184,1009.41 1190.6,1009.41 1197.2,1009.41 1203.8,1009.41 1210.4,1009.41 1217,1009.41 1223.6,1009.41 1230.2,1009.41 1236.8,1009.41 1243.4,1009.41 1250,1009.41 1256.6,1009.41 1263.2,1009.41 1269.81,1009.41 1276.41,1009.41 1283.01,1009.41 1289.61,1009.41 1296.21,1009.41 1302.81,1009.41 1309.41,1009.41 1316.01,1009.41 1322.61,1009.41 1329.21,1009.41 1335.81,1009.41 1342.41,1009.41 1349.01,1009.41 1355.61,1009.41 1362.21,1009.41 1368.81,1009.41 1375.41,1009.41 1382.01,1009.41 1388.61,1009.41 1395.21,1009.41 1401.81,1009.41 1408.42,1009.41 1415.02,1009.41 1421.62,1009.41 1428.22,1009.41 1434.82,1009.41 1441.42,1009.41 1448.02,1009.41 1454.62,1009.41 1454.62,576.406 1461.22,576.406 1461.22,1009.41 1467.82,1009.41 1474.42,1009.41 1481.02,1009.41 1487.62,1009.41 1494.22,1009.41 1500.82,1009.41 1507.42,1009.41 1514.02,1009.41 1520.62,1009.41 1527.22,1009.41 1533.82,1009.41 1540.42,1009.41 1547.03,1009.41 1553.63,1009.41 1560.23,1009.41 1566.83,1009.41 1573.43,1009.41 1580.03,1009.41 1586.63,1009.41 1593.23,1009.41 1599.83,1009.41 1606.43,1009.41 1613.03,1009.41 1619.63,1009.41 1626.23,1009.41 1632.83,1009.41 1639.43,1009.41 1646.03,1009.41 1652.63,1009.41 1659.23,1009.41 1665.83,1009.41 1672.43,1009.41 1679.03,1009.41 1685.63,1009.41 1692.24,1009.41 1698.84,1009.41 1705.44,1009.41 1712.04,1009.41 1718.64,1009.41 1725.24,1009.41 1731.84,1009.41 1738.44,1009.41 1745.04,1009.41 1751.64,1009.41 1758.24,1009.41 1764.84,1009.41 1771.44,1009.41 1778.04,1009.41 1784.64,1009.41 1791.24,1009.41 1797.84,1009.41 1804.44,1009.41 1811.04,1009.41 1817.64,1009.41 1824.24,1009.41 1830.85,1009.41 1837.45,1009.41 1844.05,1009.41 1850.65,1009.41 1857.25,1009.41 1863.85,1009.41 1870.45,1009.41 1877.05,1009.41 1883.65,1009.41 1890.25,1009.41 1896.85,1009.41 1903.45,1009.41 "/>
<path clip-path="url(#clip400)" d="M1439.99 251.703 L1894.68 251.703 L1894.68 148.023 L1439.99 148.023  Z" fill="#ffffff" fill-rule="evenodd" fill-opacity="1"/>
<polyline clip-path="url(#clip400)" style="stroke:#000000; stroke-linecap:round; stroke-linejoin:round; stroke-width:4; stroke-opacity:1; fill:none" points="1439.99,251.703 1894.68,251.703 1894.68,148.023 1439.99,148.023 1439.99,251.703 "/>
<polyline clip-path="url(#clip400)" style="stroke:#000000; stroke-linecap:round; stroke-linejoin:round; stroke-width:4; stroke-opacity:1; fill:none" points="1459.34,199.863 1575.49,199.863 "/>
<path clip-path="url(#clip400)" d="M1594.84 182.583 L1601.81 182.583 L1610.63 206.101 L1619.5 182.583 L1626.46 182.583 L1626.46 217.143 L1621.9 217.143 L1621.9 186.796 L1612.99 210.499 L1608.29 210.499 L1599.38 186.796 L1599.38 217.143 L1594.84 217.143 L1594.84 182.583 Z" fill="#000000" fill-rule="nonzero" fill-opacity="1" /><path clip-path="url(#clip400)" d="M1647.34 204.111 Q1642.18 204.111 1640.19 205.291 Q1638.2 206.472 1638.2 209.319 Q1638.2 211.587 1639.68 212.93 Q1641.19 214.249 1643.76 214.249 Q1647.3 214.249 1649.43 211.749 Q1651.58 209.226 1651.58 205.06 L1651.58 204.111 L1647.34 204.111 M1655.84 202.351 L1655.84 217.143 L1651.58 217.143 L1651.58 213.208 Q1650.12 215.569 1647.94 216.703 Q1645.77 217.814 1642.62 217.814 Q1638.64 217.814 1636.28 215.592 Q1633.94 213.347 1633.94 209.597 Q1633.94 205.222 1636.86 202.999 Q1639.8 200.777 1645.61 200.777 L1651.58 200.777 L1651.58 200.361 Q1651.58 197.421 1649.63 195.824 Q1647.71 194.203 1644.22 194.203 Q1642 194.203 1639.89 194.736 Q1637.78 195.268 1635.84 196.333 L1635.84 192.398 Q1638.18 191.495 1640.38 191.055 Q1642.57 190.592 1644.66 190.592 Q1650.28 190.592 1653.06 193.509 Q1655.84 196.425 1655.84 202.351 Z" fill="#000000" fill-rule="nonzero" fill-opacity="1" /><path clip-path="url(#clip400)" d="M1668.82 183.856 L1668.82 191.217 L1677.6 191.217 L1677.6 194.527 L1668.82 194.527 L1668.82 208.601 Q1668.82 211.773 1669.68 212.675 Q1670.56 213.578 1673.22 213.578 L1677.6 213.578 L1677.6 217.143 L1673.22 217.143 Q1668.29 217.143 1666.42 215.314 Q1664.54 213.462 1664.54 208.601 L1664.54 194.527 L1661.42 194.527 L1661.42 191.217 L1664.54 191.217 L1664.54 183.856 L1668.82 183.856 Z" fill="#000000" fill-rule="nonzero" fill-opacity="1" /><path clip-path="url(#clip400)" d="M1701.86 192.212 L1701.86 196.194 Q1700.05 195.199 1698.22 194.712 Q1696.42 194.203 1694.57 194.203 Q1690.42 194.203 1688.13 196.842 Q1685.84 199.458 1685.84 204.203 Q1685.84 208.949 1688.13 211.587 Q1690.42 214.203 1694.57 214.203 Q1696.42 214.203 1698.22 213.717 Q1700.05 213.208 1701.86 212.212 L1701.86 216.148 Q1700.07 216.981 1698.15 217.398 Q1696.25 217.814 1694.1 217.814 Q1688.25 217.814 1684.8 214.134 Q1681.35 210.453 1681.35 204.203 Q1681.35 197.861 1684.82 194.226 Q1688.32 190.592 1694.38 190.592 Q1696.35 190.592 1698.22 191.009 Q1700.1 191.402 1701.86 192.212 Z" fill="#000000" fill-rule="nonzero" fill-opacity="1" /><path clip-path="url(#clip400)" d="M1730.81 201.495 L1730.81 217.143 L1726.56 217.143 L1726.56 201.634 Q1726.56 197.953 1725.12 196.125 Q1723.69 194.296 1720.81 194.296 Q1717.37 194.296 1715.38 196.495 Q1713.38 198.694 1713.38 202.49 L1713.38 217.143 L1709.1 217.143 L1709.1 181.125 L1713.38 181.125 L1713.38 195.245 Q1714.91 192.907 1716.97 191.75 Q1719.06 190.592 1721.76 190.592 Q1726.23 190.592 1728.52 193.37 Q1730.81 196.125 1730.81 201.495 Z" fill="#000000" fill-rule="nonzero" fill-opacity="1" /><path clip-path="url(#clip400)" d="M1761.49 203.115 L1761.49 205.199 L1741.9 205.199 Q1742.18 209.597 1744.54 211.911 Q1746.93 214.203 1751.16 214.203 Q1753.62 214.203 1755.91 213.601 Q1758.22 212.999 1760.49 211.796 L1760.49 215.823 Q1758.2 216.796 1755.79 217.305 Q1753.38 217.814 1750.91 217.814 Q1744.7 217.814 1741.07 214.203 Q1737.46 210.592 1737.46 204.435 Q1737.46 198.069 1740.88 194.342 Q1744.33 190.592 1750.17 190.592 Q1755.4 190.592 1758.43 193.972 Q1761.49 197.328 1761.49 203.115 M1757.23 201.865 Q1757.18 198.37 1755.26 196.287 Q1753.36 194.203 1750.21 194.203 Q1746.65 194.203 1744.5 196.217 Q1742.37 198.231 1742.04 201.888 L1757.23 201.865 Z" fill="#000000" fill-rule="nonzero" fill-opacity="1" /><path clip-path="url(#clip400)" d="M1785 191.981 L1785 196.009 Q1783.2 195.083 1781.25 194.62 Q1779.31 194.157 1777.23 194.157 Q1774.06 194.157 1772.46 195.129 Q1770.88 196.101 1770.88 198.046 Q1770.88 199.527 1772.02 200.384 Q1773.15 201.217 1776.58 201.981 L1778.04 202.305 Q1782.57 203.277 1784.47 205.06 Q1786.39 206.819 1786.39 209.99 Q1786.39 213.601 1783.52 215.708 Q1780.68 217.814 1775.68 217.814 Q1773.59 217.814 1771.32 217.398 Q1769.08 217.004 1766.58 216.194 L1766.58 211.796 Q1768.94 213.023 1771.23 213.648 Q1773.52 214.249 1775.77 214.249 Q1778.78 214.249 1780.4 213.231 Q1782.02 212.189 1782.02 210.314 Q1782.02 208.578 1780.84 207.652 Q1779.68 206.726 1775.72 205.87 L1774.24 205.523 Q1770.28 204.689 1768.52 202.976 Q1766.76 201.24 1766.76 198.231 Q1766.76 194.574 1769.36 192.583 Q1771.95 190.592 1776.72 190.592 Q1779.08 190.592 1781.16 190.939 Q1783.25 191.287 1785 191.981 Z" fill="#000000" fill-rule="nonzero" fill-opacity="1" /><path clip-path="url(#clip400)" d="M1794.26 211.263 L1799.15 211.263 L1799.15 217.143 L1794.26 217.143 L1794.26 211.263 M1794.26 192.629 L1799.15 192.629 L1799.15 198.509 L1794.26 198.509 L1794.26 192.629 Z" fill="#000000" fill-rule="nonzero" fill-opacity="1" /><path clip-path="url(#clip400)" d="M1825.63 213.208 L1833.27 213.208 L1833.27 186.842 L1824.96 188.509 L1824.96 184.25 L1833.22 182.583 L1837.9 182.583 L1837.9 213.208 L1845.54 213.208 L1845.54 217.143 L1825.63 217.143 L1825.63 213.208 Z" fill="#000000" fill-rule="nonzero" fill-opacity="1" /><path clip-path="url(#clip400)" d="M1859.01 213.208 L1875.33 213.208 L1875.33 217.143 L1853.38 217.143 L1853.38 213.208 Q1856.05 210.453 1860.63 205.824 Q1865.24 201.171 1866.42 199.828 Q1868.66 197.305 1869.54 195.569 Q1870.44 193.81 1870.44 192.12 Q1870.44 189.365 1868.5 187.629 Q1866.58 185.893 1863.48 185.893 Q1861.28 185.893 1858.82 186.657 Q1856.39 187.421 1853.62 188.972 L1853.62 184.25 Q1856.44 183.115 1858.89 182.537 Q1861.35 181.958 1863.38 181.958 Q1868.75 181.958 1871.95 184.643 Q1875.14 187.328 1875.14 191.819 Q1875.14 193.949 1874.33 195.87 Q1873.55 197.768 1871.44 200.361 Q1870.86 201.032 1867.76 204.249 Q1864.66 207.444 1859.01 213.208 Z" fill="#000000" fill-rule="nonzero" fill-opacity="1" /></svg>
