<?xml version="1.0" encoding="utf-8"?>
<svg xmlns="http://www.w3.org/2000/svg" xmlns:xlink="http://www.w3.org/1999/xlink" width="600" height="400" viewBox="0 0 2400 1600">
<defs>
  <clipPath id="clip610">
    <rect x="0" y="0" width="2400" height="1600"/>
  </clipPath>
</defs>
<path clip-path="url(#clip610)" d="M0 1600 L2400 1600 L2400 0 L0 0  Z" fill="#ffffff" fill-rule="evenodd" fill-opacity="1"/>
<defs>
  <clipPath id="clip611">
    <rect x="480" y="0" width="1681" height="1600"/>
  </clipPath>
</defs>
<path clip-path="url(#clip610)" d="M175.445 1423.18 L2352.76 1423.18 L2352.76 123.472 L175.445 123.472  Z" fill="#ffffff" fill-rule="evenodd" fill-opacity="1"/>
<defs>
  <clipPath id="clip612">
    <rect x="175" y="123" width="2178" height="1301"/>
  </clipPath>
</defs>
<polyline clip-path="url(#clip612)" style="stroke:#000000; stroke-linecap:round; stroke-linejoin:round; stroke-width:2; stroke-opacity:0.1; fill:none" points="228.818,1423.18 228.818,123.472 "/>
<polyline clip-path="url(#clip612)" style="stroke:#000000; stroke-linecap:round; stroke-linejoin:round; stroke-width:2; stroke-opacity:0.1; fill:none" points="641.281,1423.18 641.281,123.472 "/>
<polyline clip-path="url(#clip612)" style="stroke:#000000; stroke-linecap:round; stroke-linejoin:round; stroke-width:2; stroke-opacity:0.1; fill:none" points="1053.74,1423.18 1053.74,123.472 "/>
<polyline clip-path="url(#clip612)" style="stroke:#000000; stroke-linecap:round; stroke-linejoin:round; stroke-width:2; stroke-opacity:0.1; fill:none" points="1466.21,1423.18 1466.21,123.472 "/>
<polyline clip-path="url(#clip612)" style="stroke:#000000; stroke-linecap:round; stroke-linejoin:round; stroke-width:2; stroke-opacity:0.1; fill:none" points="1878.67,1423.18 1878.67,123.472 "/>
<polyline clip-path="url(#clip612)" style="stroke:#000000; stroke-linecap:round; stroke-linejoin:round; stroke-width:2; stroke-opacity:0.1; fill:none" points="2291.13,1423.18 2291.13,123.472 "/>
<polyline clip-path="url(#clip612)" style="stroke:#000000; stroke-linecap:round; stroke-linejoin:round; stroke-width:2; stroke-opacity:0.1; fill:none" points="175.445,1386.4 2352.76,1386.4 "/>
<polyline clip-path="url(#clip612)" style="stroke:#000000; stroke-linecap:round; stroke-linejoin:round; stroke-width:2; stroke-opacity:0.1; fill:none" points="175.445,1141.17 2352.76,1141.17 "/>
<polyline clip-path="url(#clip612)" style="stroke:#000000; stroke-linecap:round; stroke-linejoin:round; stroke-width:2; stroke-opacity:0.1; fill:none" points="175.445,895.94 2352.76,895.94 "/>
<polyline clip-path="url(#clip612)" style="stroke:#000000; stroke-linecap:round; stroke-linejoin:round; stroke-width:2; stroke-opacity:0.1; fill:none" points="175.445,650.712 2352.76,650.712 "/>
<polyline clip-path="url(#clip612)" style="stroke:#000000; stroke-linecap:round; stroke-linejoin:round; stroke-width:2; stroke-opacity:0.1; fill:none" points="175.445,405.484 2352.76,405.484 "/>
<polyline clip-path="url(#clip612)" style="stroke:#000000; stroke-linecap:round; stroke-linejoin:round; stroke-width:2; stroke-opacity:0.1; fill:none" points="175.445,160.256 2352.76,160.256 "/>
<polyline clip-path="url(#clip610)" style="stroke:#000000; stroke-linecap:round; stroke-linejoin:round; stroke-width:4; stroke-opacity:1; fill:none" points="175.445,1423.18 2352.76,1423.18 "/>
<polyline clip-path="url(#clip610)" style="stroke:#000000; stroke-linecap:round; stroke-linejoin:round; stroke-width:4; stroke-opacity:1; fill:none" points="228.818,1423.18 228.818,1404.28 "/>
<polyline clip-path="url(#clip610)" style="stroke:#000000; stroke-linecap:round; stroke-linejoin:round; stroke-width:4; stroke-opacity:1; fill:none" points="641.281,1423.18 641.281,1404.28 "/>
<polyline clip-path="url(#clip610)" style="stroke:#000000; stroke-linecap:round; stroke-linejoin:round; stroke-width:4; stroke-opacity:1; fill:none" points="1053.74,1423.18 1053.74,1404.28 "/>
<polyline clip-path="url(#clip610)" style="stroke:#000000; stroke-linecap:round; stroke-linejoin:round; stroke-width:4; stroke-opacity:1; fill:none" points="1466.21,1423.18 1466.21,1404.28 "/>
<polyline clip-path="url(#clip610)" style="stroke:#000000; stroke-linecap:round; stroke-linejoin:round; stroke-width:4; stroke-opacity:1; fill:none" points="1878.67,1423.18 1878.67,1404.28 "/>
<polyline clip-path="url(#clip610)" style="stroke:#000000; stroke-linecap:round; stroke-linejoin:round; stroke-width:4; stroke-opacity:1; fill:none" points="2291.13,1423.18 2291.13,1404.28 "/>
<path clip-path="url(#clip610)" d="M228.818 1454.1 Q225.207 1454.1 223.378 1457.66 Q221.573 1461.2 221.573 1468.33 Q221.573 1475.44 223.378 1479.01 Q225.207 1482.55 228.818 1482.55 Q232.452 1482.55 234.258 1479.01 Q236.086 1475.44 236.086 1468.33 Q236.086 1461.2 234.258 1457.66 Q232.452 1454.1 228.818 1454.1 M228.818 1450.39 Q234.628 1450.39 237.684 1455 Q240.762 1459.58 240.762 1468.33 Q240.762 1477.06 237.684 1481.67 Q234.628 1486.25 228.818 1486.25 Q223.008 1486.25 219.929 1481.67 Q216.874 1477.06 216.874 1468.33 Q216.874 1459.58 219.929 1455 Q223.008 1450.39 228.818 1450.39 Z" fill="#000000" fill-rule="nonzero" fill-opacity="1" /><path clip-path="url(#clip610)" d="M615.98 1451.02 L634.337 1451.02 L634.337 1454.96 L620.263 1454.96 L620.263 1463.43 Q621.281 1463.08 622.3 1462.92 Q623.318 1462.73 624.337 1462.73 Q630.124 1462.73 633.503 1465.9 Q636.883 1469.08 636.883 1474.49 Q636.883 1480.07 633.411 1483.17 Q629.939 1486.25 623.619 1486.25 Q621.443 1486.25 619.175 1485.88 Q616.929 1485.51 614.522 1484.77 L614.522 1480.07 Q616.605 1481.2 618.828 1481.76 Q621.05 1482.32 623.527 1482.32 Q627.531 1482.32 629.869 1480.21 Q632.207 1478.1 632.207 1474.49 Q632.207 1470.88 629.869 1468.77 Q627.531 1466.67 623.527 1466.67 Q621.652 1466.67 619.777 1467.08 Q617.925 1467.5 615.98 1468.38 L615.98 1451.02 Z" fill="#000000" fill-rule="nonzero" fill-opacity="1" /><path clip-path="url(#clip610)" d="M656.096 1454.1 Q652.485 1454.1 650.656 1457.66 Q648.851 1461.2 648.851 1468.33 Q648.851 1475.44 650.656 1479.01 Q652.485 1482.55 656.096 1482.55 Q659.73 1482.55 661.536 1479.01 Q663.364 1475.44 663.364 1468.33 Q663.364 1461.2 661.536 1457.66 Q659.73 1454.1 656.096 1454.1 M656.096 1450.39 Q661.906 1450.39 664.962 1455 Q668.04 1459.58 668.04 1468.33 Q668.04 1477.06 664.962 1481.67 Q661.906 1486.25 656.096 1486.25 Q650.286 1486.25 647.207 1481.67 Q644.151 1477.06 644.151 1468.33 Q644.151 1459.58 647.207 1455 Q650.286 1450.39 656.096 1450.39 Z" fill="#000000" fill-rule="nonzero" fill-opacity="1" /><path clip-path="url(#clip610)" d="M1013.35 1481.64 L1020.99 1481.64 L1020.99 1455.28 L1012.68 1456.95 L1012.68 1452.69 L1020.94 1451.02 L1025.62 1451.02 L1025.62 1481.64 L1033.26 1481.64 L1033.26 1485.58 L1013.35 1485.58 L1013.35 1481.64 Z" fill="#000000" fill-rule="nonzero" fill-opacity="1" /><path clip-path="url(#clip610)" d="M1052.7 1454.1 Q1049.09 1454.1 1047.26 1457.66 Q1045.46 1461.2 1045.46 1468.33 Q1045.46 1475.44 1047.26 1479.01 Q1049.09 1482.55 1052.7 1482.55 Q1056.34 1482.55 1058.14 1479.01 Q1059.97 1475.44 1059.97 1468.33 Q1059.97 1461.2 1058.14 1457.66 Q1056.34 1454.1 1052.7 1454.1 M1052.7 1450.39 Q1058.51 1450.39 1061.57 1455 Q1064.65 1459.58 1064.65 1468.33 Q1064.65 1477.06 1061.57 1481.67 Q1058.51 1486.25 1052.7 1486.25 Q1046.89 1486.25 1043.81 1481.67 Q1040.76 1477.06 1040.76 1468.33 Q1040.76 1459.58 1043.81 1455 Q1046.89 1450.39 1052.7 1450.39 Z" fill="#000000" fill-rule="nonzero" fill-opacity="1" /><path clip-path="url(#clip610)" d="M1082.86 1454.1 Q1079.25 1454.1 1077.42 1457.66 Q1075.62 1461.2 1075.62 1468.33 Q1075.62 1475.44 1077.42 1479.01 Q1079.25 1482.55 1082.86 1482.55 Q1086.5 1482.55 1088.3 1479.01 Q1090.13 1475.44 1090.13 1468.33 Q1090.13 1461.2 1088.3 1457.66 Q1086.5 1454.1 1082.86 1454.1 M1082.86 1450.39 Q1088.67 1450.39 1091.73 1455 Q1094.81 1459.58 1094.81 1468.33 Q1094.81 1477.06 1091.73 1481.67 Q1088.67 1486.25 1082.86 1486.25 Q1077.05 1486.25 1073.98 1481.67 Q1070.92 1477.06 1070.92 1468.33 Q1070.92 1459.58 1073.98 1455 Q1077.05 1450.39 1082.86 1450.39 Z" fill="#000000" fill-rule="nonzero" fill-opacity="1" /><path clip-path="url(#clip610)" d="M1425.81 1481.64 L1433.45 1481.64 L1433.45 1455.28 L1425.14 1456.95 L1425.14 1452.69 L1433.41 1451.02 L1438.08 1451.02 L1438.08 1481.64 L1445.72 1481.64 L1445.72 1485.58 L1425.81 1485.58 L1425.81 1481.64 Z" fill="#000000" fill-rule="nonzero" fill-opacity="1" /><path clip-path="url(#clip610)" d="M1455.21 1451.02 L1473.57 1451.02 L1473.57 1454.96 L1459.49 1454.96 L1459.49 1463.43 Q1460.51 1463.08 1461.53 1462.92 Q1462.55 1462.73 1463.57 1462.73 Q1469.36 1462.73 1472.74 1465.9 Q1476.11 1469.08 1476.11 1474.49 Q1476.11 1480.07 1472.64 1483.17 Q1469.17 1486.25 1462.85 1486.25 Q1460.68 1486.25 1458.41 1485.88 Q1456.16 1485.51 1453.75 1484.77 L1453.75 1480.07 Q1455.84 1481.2 1458.06 1481.76 Q1460.28 1482.32 1462.76 1482.32 Q1466.76 1482.32 1469.1 1480.21 Q1471.44 1478.1 1471.44 1474.49 Q1471.44 1470.88 1469.1 1468.77 Q1466.76 1466.67 1462.76 1466.67 Q1460.88 1466.67 1459.01 1467.08 Q1457.16 1467.5 1455.21 1468.38 L1455.21 1451.02 Z" fill="#000000" fill-rule="nonzero" fill-opacity="1" /><path clip-path="url(#clip610)" d="M1495.33 1454.1 Q1491.72 1454.1 1489.89 1457.66 Q1488.08 1461.2 1488.08 1468.33 Q1488.08 1475.44 1489.89 1479.01 Q1491.72 1482.55 1495.33 1482.55 Q1498.96 1482.55 1500.77 1479.01 Q1502.6 1475.44 1502.6 1468.33 Q1502.6 1461.2 1500.77 1457.66 Q1498.96 1454.1 1495.33 1454.1 M1495.33 1450.39 Q1501.14 1450.39 1504.19 1455 Q1507.27 1459.58 1507.27 1468.33 Q1507.27 1477.06 1504.19 1481.67 Q1501.14 1486.25 1495.33 1486.25 Q1489.52 1486.25 1486.44 1481.67 Q1483.38 1477.06 1483.38 1468.33 Q1483.38 1459.58 1486.44 1455 Q1489.52 1450.39 1495.33 1450.39 Z" fill="#000000" fill-rule="nonzero" fill-opacity="1" /><path clip-path="url(#clip610)" d="M1842.36 1481.64 L1858.68 1481.64 L1858.68 1485.58 L1836.74 1485.58 L1836.74 1481.64 Q1839.4 1478.89 1843.98 1474.26 Q1848.59 1469.61 1849.77 1468.27 Q1852.02 1465.74 1852.9 1464.01 Q1853.8 1462.25 1853.8 1460.56 Q1853.8 1457.8 1851.85 1456.07 Q1849.93 1454.33 1846.83 1454.33 Q1844.63 1454.33 1842.18 1455.09 Q1839.75 1455.86 1836.97 1457.41 L1836.97 1452.69 Q1839.79 1451.55 1842.25 1450.97 Q1844.7 1450.39 1846.74 1450.39 Q1852.11 1450.39 1855.3 1453.08 Q1858.5 1455.77 1858.5 1460.26 Q1858.5 1462.39 1857.69 1464.31 Q1856.9 1466.2 1854.79 1468.8 Q1854.21 1469.47 1851.11 1472.69 Q1848.01 1475.88 1842.36 1481.64 Z" fill="#000000" fill-rule="nonzero" fill-opacity="1" /><path clip-path="url(#clip610)" d="M1878.5 1454.1 Q1874.89 1454.1 1873.06 1457.66 Q1871.25 1461.2 1871.25 1468.33 Q1871.25 1475.44 1873.06 1479.01 Q1874.89 1482.55 1878.5 1482.55 Q1882.13 1482.55 1883.94 1479.01 Q1885.77 1475.44 1885.77 1468.33 Q1885.77 1461.2 1883.94 1457.66 Q1882.13 1454.1 1878.5 1454.1 M1878.5 1450.39 Q1884.31 1450.39 1887.36 1455 Q1890.44 1459.58 1890.44 1468.33 Q1890.44 1477.06 1887.36 1481.67 Q1884.31 1486.25 1878.5 1486.25 Q1872.69 1486.25 1869.61 1481.67 Q1866.55 1477.06 1866.55 1468.33 Q1866.55 1459.58 1869.61 1455 Q1872.69 1450.39 1878.5 1450.39 Z" fill="#000000" fill-rule="nonzero" fill-opacity="1" /><path clip-path="url(#clip610)" d="M1908.66 1454.1 Q1905.05 1454.1 1903.22 1457.66 Q1901.41 1461.2 1901.41 1468.33 Q1901.41 1475.44 1903.22 1479.01 Q1905.05 1482.55 1908.66 1482.55 Q1912.29 1482.55 1914.1 1479.01 Q1915.93 1475.44 1915.93 1468.33 Q1915.93 1461.2 1914.1 1457.66 Q1912.29 1454.1 1908.66 1454.1 M1908.66 1450.39 Q1914.47 1450.39 1917.52 1455 Q1920.6 1459.58 1920.6 1468.33 Q1920.6 1477.06 1917.52 1481.67 Q1914.47 1486.25 1908.66 1486.25 Q1902.85 1486.25 1899.77 1481.67 Q1896.71 1477.06 1896.71 1468.33 Q1896.71 1459.58 1899.77 1455 Q1902.85 1450.39 1908.66 1450.39 Z" fill="#000000" fill-rule="nonzero" fill-opacity="1" /><path clip-path="url(#clip610)" d="M2254.83 1481.64 L2271.15 1481.64 L2271.15 1485.58 L2249.2 1485.58 L2249.2 1481.64 Q2251.86 1478.89 2256.45 1474.26 Q2261.05 1469.61 2262.23 1468.27 Q2264.48 1465.74 2265.36 1464.01 Q2266.26 1462.25 2266.26 1460.56 Q2266.26 1457.8 2264.32 1456.07 Q2262.4 1454.33 2259.29 1454.33 Q2257.09 1454.33 2254.64 1455.09 Q2252.21 1455.86 2249.43 1457.41 L2249.43 1452.69 Q2252.26 1451.55 2254.71 1450.97 Q2257.16 1450.39 2259.2 1450.39 Q2264.57 1450.39 2267.77 1453.08 Q2270.96 1455.77 2270.96 1460.26 Q2270.96 1462.39 2270.15 1464.31 Q2269.36 1466.2 2267.26 1468.8 Q2266.68 1469.47 2263.58 1472.69 Q2260.47 1475.88 2254.83 1481.64 Z" fill="#000000" fill-rule="nonzero" fill-opacity="1" /><path clip-path="url(#clip610)" d="M2281.01 1451.02 L2299.36 1451.02 L2299.36 1454.96 L2285.29 1454.96 L2285.29 1463.43 Q2286.31 1463.08 2287.33 1462.92 Q2288.34 1462.73 2289.36 1462.73 Q2295.15 1462.73 2298.53 1465.9 Q2301.91 1469.08 2301.91 1474.49 Q2301.91 1480.07 2298.44 1483.17 Q2294.96 1486.25 2288.65 1486.25 Q2286.47 1486.25 2284.2 1485.88 Q2281.96 1485.51 2279.55 1484.77 L2279.55 1480.07 Q2281.63 1481.2 2283.85 1481.76 Q2286.08 1482.32 2288.55 1482.32 Q2292.56 1482.32 2294.9 1480.21 Q2297.23 1478.1 2297.23 1474.49 Q2297.23 1470.88 2294.9 1468.77 Q2292.56 1466.67 2288.55 1466.67 Q2286.68 1466.67 2284.8 1467.08 Q2282.95 1467.5 2281.01 1468.38 L2281.01 1451.02 Z" fill="#000000" fill-rule="nonzero" fill-opacity="1" /><path clip-path="url(#clip610)" d="M2321.12 1454.1 Q2317.51 1454.1 2315.68 1457.66 Q2313.88 1461.2 2313.88 1468.33 Q2313.88 1475.44 2315.68 1479.01 Q2317.51 1482.55 2321.12 1482.55 Q2324.76 1482.55 2326.56 1479.01 Q2328.39 1475.44 2328.39 1468.33 Q2328.39 1461.2 2326.56 1457.66 Q2324.76 1454.1 2321.12 1454.1 M2321.12 1450.39 Q2326.93 1450.39 2329.99 1455 Q2333.07 1459.58 2333.07 1468.33 Q2333.07 1477.06 2329.99 1481.67 Q2326.93 1486.25 2321.12 1486.25 Q2315.31 1486.25 2312.23 1481.67 Q2309.18 1477.06 2309.18 1468.33 Q2309.18 1459.58 2312.23 1455 Q2315.31 1450.39 2321.12 1450.39 Z" fill="#000000" fill-rule="nonzero" fill-opacity="1" /><path clip-path="url(#clip610)" d="M1049.74 1520.52 L1079.78 1520.52 L1079.78 1525.93 L1056.16 1525.93 L1056.16 1540 L1078.79 1540 L1078.79 1545.41 L1056.16 1545.41 L1056.16 1562.63 L1080.35 1562.63 L1080.35 1568.04 L1049.74 1568.04 L1049.74 1520.52 Z" fill="#000000" fill-rule="nonzero" fill-opacity="1" /><path clip-path="url(#clip610)" d="M1120.3 1546.53 L1120.3 1568.04 L1114.44 1568.04 L1114.44 1546.72 Q1114.44 1541.66 1112.47 1539.14 Q1110.5 1536.63 1106.55 1536.63 Q1101.81 1536.63 1099.07 1539.65 Q1096.33 1542.68 1096.33 1547.9 L1096.33 1568.04 L1090.44 1568.04 L1090.44 1532.4 L1096.33 1532.4 L1096.33 1537.93 Q1098.43 1534.72 1101.27 1533.13 Q1104.13 1531.54 1107.85 1531.54 Q1114 1531.54 1117.15 1535.36 Q1120.3 1539.14 1120.3 1546.53 Z" fill="#000000" fill-rule="nonzero" fill-opacity="1" /><path clip-path="url(#clip610)" d="M1162.47 1548.76 L1162.47 1551.62 L1135.55 1551.62 Q1135.93 1557.67 1139.17 1560.85 Q1142.45 1564 1148.28 1564 Q1151.65 1564 1154.8 1563.17 Q1157.98 1562.35 1161.1 1560.69 L1161.1 1566.23 Q1157.95 1567.57 1154.64 1568.27 Q1151.33 1568.97 1147.93 1568.97 Q1139.4 1568.97 1134.4 1564 Q1129.43 1559.04 1129.43 1550.57 Q1129.43 1541.82 1134.14 1536.69 Q1138.89 1531.54 1146.91 1531.54 Q1154.1 1531.54 1158.27 1536.18 Q1162.47 1540.8 1162.47 1548.76 M1156.62 1547.04 Q1156.55 1542.23 1153.91 1539.37 Q1151.3 1536.5 1146.97 1536.5 Q1142.07 1536.5 1139.11 1539.27 Q1136.18 1542.04 1135.74 1547.07 L1156.62 1547.04 Z" fill="#000000" fill-rule="nonzero" fill-opacity="1" /><path clip-path="url(#clip610)" d="M1192.74 1537.87 Q1191.75 1537.3 1190.58 1537.04 Q1189.43 1536.76 1188.03 1536.76 Q1183.07 1536.76 1180.39 1540 Q1177.75 1543.22 1177.75 1549.27 L1177.75 1568.04 L1171.86 1568.04 L1171.86 1532.4 L1177.75 1532.4 L1177.75 1537.93 Q1179.6 1534.69 1182.56 1533.13 Q1185.52 1531.54 1189.75 1531.54 Q1190.35 1531.54 1191.09 1531.63 Q1191.82 1531.7 1192.71 1531.85 L1192.74 1537.87 Z" fill="#000000" fill-rule="nonzero" fill-opacity="1" /><path clip-path="url(#clip610)" d="M1221.2 1549.81 Q1221.2 1543.44 1218.55 1539.94 Q1215.94 1536.44 1211.2 1536.44 Q1206.49 1536.44 1203.85 1539.94 Q1201.24 1543.44 1201.24 1549.81 Q1201.24 1556.14 1203.85 1559.64 Q1206.49 1563.14 1211.2 1563.14 Q1215.94 1563.14 1218.55 1559.64 Q1221.2 1556.14 1221.2 1549.81 M1227.05 1563.62 Q1227.05 1572.72 1223.01 1577.15 Q1218.97 1581.6 1210.63 1581.6 Q1207.54 1581.6 1204.8 1581.13 Q1202.07 1580.68 1199.49 1579.72 L1199.49 1574.03 Q1202.07 1575.43 1204.58 1576.1 Q1207.1 1576.76 1209.71 1576.76 Q1215.47 1576.76 1218.33 1573.74 Q1221.2 1570.75 1221.2 1564.67 L1221.2 1561.77 Q1219.38 1564.92 1216.55 1566.48 Q1213.72 1568.04 1209.77 1568.04 Q1203.21 1568.04 1199.2 1563.05 Q1195.19 1558.05 1195.19 1549.81 Q1195.19 1541.53 1199.2 1536.53 Q1203.21 1531.54 1209.77 1531.54 Q1213.72 1531.54 1216.55 1533.1 Q1219.38 1534.66 1221.2 1537.81 L1221.2 1532.4 L1227.05 1532.4 L1227.05 1563.62 Z" fill="#000000" fill-rule="nonzero" fill-opacity="1" /><path clip-path="url(#clip610)" d="M1253.95 1571.35 Q1251.46 1577.72 1249.11 1579.66 Q1246.75 1581.6 1242.81 1581.6 L1238.13 1581.6 L1238.13 1576.7 L1241.57 1576.7 Q1243.98 1576.7 1245.32 1575.56 Q1246.66 1574.41 1248.28 1570.14 L1249.33 1567.47 L1234.91 1532.4 L1241.12 1532.4 L1252.26 1560.28 L1263.4 1532.4 L1269.61 1532.4 L1253.95 1571.35 Z" fill="#000000" fill-rule="nonzero" fill-opacity="1" /><path clip-path="url(#clip610)" d="M1312.48 1518.58 Q1308.21 1525.9 1306.15 1533.06 Q1304.08 1540.23 1304.08 1547.58 Q1304.08 1554.93 1306.15 1562.16 Q1308.25 1569.35 1312.48 1576.64 L1307.39 1576.64 Q1302.61 1569.16 1300.23 1561.93 Q1297.87 1554.71 1297.87 1547.58 Q1297.87 1540.48 1300.23 1533.29 Q1302.58 1526.09 1307.39 1518.58 L1312.48 1518.58 Z" fill="#000000" fill-rule="nonzero" fill-opacity="1" /><path clip-path="url(#clip610)" d="M1324.1 1520.52 L1333.68 1520.52 L1345.8 1552.86 L1357.99 1520.52 L1367.58 1520.52 L1367.58 1568.04 L1361.3 1568.04 L1361.3 1526.32 L1349.05 1558.91 L1342.59 1558.91 L1330.34 1526.32 L1330.34 1568.04 L1324.1 1568.04 L1324.1 1520.52 Z" fill="#000000" fill-rule="nonzero" fill-opacity="1" /><path clip-path="url(#clip610)" d="M1410.58 1548.76 L1410.58 1551.62 L1383.65 1551.62 Q1384.03 1557.67 1387.28 1560.85 Q1390.56 1564 1396.38 1564 Q1399.75 1564 1402.9 1563.17 Q1406.09 1562.35 1409.21 1560.69 L1409.21 1566.23 Q1406.06 1567.57 1402.75 1568.27 Q1399.44 1568.97 1396.03 1568.97 Q1387.5 1568.97 1382.5 1564 Q1377.54 1559.04 1377.54 1550.57 Q1377.54 1541.82 1382.25 1536.69 Q1386.99 1531.54 1395.01 1531.54 Q1402.2 1531.54 1406.37 1536.18 Q1410.58 1540.8 1410.58 1548.76 M1404.72 1547.04 Q1404.66 1542.23 1402.01 1539.37 Q1399.4 1536.5 1395.07 1536.5 Q1390.17 1536.5 1387.21 1539.27 Q1384.29 1542.04 1383.84 1547.07 L1404.72 1547.04 Z" fill="#000000" fill-rule="nonzero" fill-opacity="1" /><path clip-path="url(#clip610)" d="M1432.7 1568.04 L1414.55 1520.52 L1421.27 1520.52 L1436.32 1560.53 L1451.41 1520.52 L1458.1 1520.52 L1439.99 1568.04 L1432.7 1568.04 Z" fill="#000000" fill-rule="nonzero" fill-opacity="1" /><path clip-path="url(#clip610)" d="M1463.86 1518.58 L1468.95 1518.58 Q1473.72 1526.09 1476.08 1533.29 Q1478.47 1540.48 1478.47 1547.58 Q1478.47 1554.71 1476.08 1561.93 Q1473.72 1569.16 1468.95 1576.64 L1463.86 1576.64 Q1468.09 1569.35 1470.16 1562.16 Q1472.26 1554.93 1472.26 1547.58 Q1472.26 1540.23 1470.16 1533.06 Q1468.09 1525.9 1463.86 1518.58 Z" fill="#000000" fill-rule="nonzero" fill-opacity="1" /><polyline clip-path="url(#clip610)" style="stroke:#000000; stroke-linecap:round; stroke-linejoin:round; stroke-width:4; stroke-opacity:1; fill:none" points="175.445,1423.18 175.445,123.472 "/>
<polyline clip-path="url(#clip610)" style="stroke:#000000; stroke-linecap:round; stroke-linejoin:round; stroke-width:4; stroke-opacity:1; fill:none" points="175.445,1386.4 194.343,1386.4 "/>
<polyline clip-path="url(#clip610)" style="stroke:#000000; stroke-linecap:round; stroke-linejoin:round; stroke-width:4; stroke-opacity:1; fill:none" points="175.445,1141.17 194.343,1141.17 "/>
<polyline clip-path="url(#clip610)" style="stroke:#000000; stroke-linecap:round; stroke-linejoin:round; stroke-width:4; stroke-opacity:1; fill:none" points="175.445,895.94 194.343,895.94 "/>
<polyline clip-path="url(#clip610)" style="stroke:#000000; stroke-linecap:round; stroke-linejoin:round; stroke-width:4; stroke-opacity:1; fill:none" points="175.445,650.712 194.343,650.712 "/>
<polyline clip-path="url(#clip610)" style="stroke:#000000; stroke-linecap:round; stroke-linejoin:round; stroke-width:4; stroke-opacity:1; fill:none" points="175.445,405.484 194.343,405.484 "/>
<polyline clip-path="url(#clip610)" style="stroke:#000000; stroke-linecap:round; stroke-linejoin:round; stroke-width:4; stroke-opacity:1; fill:none" points="175.445,160.256 194.343,160.256 "/>
<path clip-path="url(#clip610)" d="M127.501 1372.19 Q123.89 1372.19 122.061 1375.76 Q120.255 1379.3 120.255 1386.43 Q120.255 1393.54 122.061 1397.1 Q123.89 1400.64 127.501 1400.64 Q131.135 1400.64 132.941 1397.1 Q134.769 1393.54 134.769 1386.43 Q134.769 1379.3 132.941 1375.76 Q131.135 1372.19 127.501 1372.19 M127.501 1368.49 Q133.311 1368.49 136.367 1373.1 Q139.445 1377.68 139.445 1386.43 Q139.445 1395.16 136.367 1399.76 Q133.311 1404.35 127.501 1404.35 Q121.691 1404.35 118.612 1399.76 Q115.556 1395.16 115.556 1386.43 Q115.556 1377.68 118.612 1373.1 Q121.691 1368.49 127.501 1368.49 Z" fill="#000000" fill-rule="nonzero" fill-opacity="1" /><path clip-path="url(#clip610)" d="M119.538 1154.51 L127.177 1154.51 L127.177 1128.15 L118.867 1129.81 L118.867 1125.55 L127.13 1123.89 L131.806 1123.89 L131.806 1154.51 L139.445 1154.51 L139.445 1158.45 L119.538 1158.45 L119.538 1154.51 Z" fill="#000000" fill-rule="nonzero" fill-opacity="1" /><path clip-path="url(#clip610)" d="M123.126 909.285 L139.445 909.285 L139.445 913.22 L117.501 913.22 L117.501 909.285 Q120.163 906.53 124.746 901.901 Q129.353 897.248 130.533 895.905 Q132.779 893.382 133.658 891.646 Q134.561 889.887 134.561 888.197 Q134.561 885.442 132.617 883.706 Q130.695 881.97 127.593 881.97 Q125.394 881.97 122.941 882.734 Q120.51 883.498 117.732 885.049 L117.732 880.327 Q120.556 879.192 123.01 878.614 Q125.464 878.035 127.501 878.035 Q132.871 878.035 136.066 880.72 Q139.26 883.405 139.26 887.896 Q139.26 890.026 138.45 891.947 Q137.663 893.845 135.556 896.438 Q134.978 897.109 131.876 900.326 Q128.774 903.521 123.126 909.285 Z" fill="#000000" fill-rule="nonzero" fill-opacity="1" /><path clip-path="url(#clip610)" d="M132.316 649.358 Q135.672 650.075 137.547 652.344 Q139.445 654.612 139.445 657.946 Q139.445 663.062 135.927 665.862 Q132.408 668.663 125.927 668.663 Q123.751 668.663 121.436 668.224 Q119.144 667.807 116.691 666.95 L116.691 662.437 Q118.635 663.571 120.95 664.149 Q123.265 664.728 125.788 664.728 Q130.186 664.728 132.478 662.992 Q134.792 661.256 134.792 657.946 Q134.792 654.89 132.64 653.177 Q130.51 651.441 126.691 651.441 L122.663 651.441 L122.663 647.599 L126.876 647.599 Q130.325 647.599 132.154 646.233 Q133.982 644.844 133.982 642.251 Q133.982 639.589 132.084 638.177 Q130.209 636.742 126.691 636.742 Q124.769 636.742 122.57 637.159 Q120.371 637.576 117.732 638.455 L117.732 634.289 Q120.394 633.548 122.709 633.177 Q125.047 632.807 127.107 632.807 Q132.431 632.807 135.533 635.238 Q138.635 637.645 138.635 641.765 Q138.635 644.636 136.992 646.626 Q135.348 648.594 132.316 649.358 Z" fill="#000000" fill-rule="nonzero" fill-opacity="1" /><path clip-path="url(#clip610)" d="M129.862 392.278 L118.056 410.727 L129.862 410.727 L129.862 392.278 M128.635 388.204 L134.515 388.204 L134.515 410.727 L139.445 410.727 L139.445 414.616 L134.515 414.616 L134.515 422.764 L129.862 422.764 L129.862 414.616 L114.26 414.616 L114.26 410.102 L128.635 388.204 Z" fill="#000000" fill-rule="nonzero" fill-opacity="1" /><path clip-path="url(#clip610)" d="M118.543 142.976 L136.899 142.976 L136.899 146.911 L122.825 146.911 L122.825 155.384 Q123.843 155.036 124.862 154.874 Q125.88 154.689 126.899 154.689 Q132.686 154.689 136.066 157.86 Q139.445 161.032 139.445 166.448 Q139.445 172.027 135.973 175.129 Q132.501 178.208 126.181 178.208 Q124.005 178.208 121.737 177.837 Q119.492 177.467 117.084 176.726 L117.084 172.027 Q119.168 173.161 121.39 173.717 Q123.612 174.272 126.089 174.272 Q130.093 174.272 132.431 172.166 Q134.769 170.059 134.769 166.448 Q134.769 162.837 132.431 160.731 Q130.093 158.624 126.089 158.624 Q124.214 158.624 122.339 159.041 Q120.487 159.458 118.543 160.337 L118.543 142.976 Z" fill="#000000" fill-rule="nonzero" fill-opacity="1" /><path clip-path="url(#clip610)" d="M20.1444 845.354 L26.9239 845.354 Q23.9002 848.6 22.4043 852.293 Q20.9083 855.953 20.9083 860.091 Q20.9083 868.239 25.9054 872.567 Q30.8707 876.896 40.2919 876.896 Q49.6813 876.896 54.6784 872.567 Q59.6436 868.239 59.6436 860.091 Q59.6436 855.953 58.1477 852.293 Q56.6518 848.6 53.6281 845.354 L60.3439 845.354 Q62.6355 848.728 63.7814 852.515 Q64.9272 856.271 64.9272 860.473 Q64.9272 871.262 58.3387 877.469 Q51.7183 883.676 40.2919 883.676 Q28.8336 883.676 22.2451 877.469 Q15.6248 871.262 15.6248 860.473 Q15.6248 856.207 16.7706 852.452 Q17.8846 848.664 20.1444 845.354 Z" fill="#000000" fill-rule="nonzero" fill-opacity="1" /><path clip-path="url(#clip610)" d="M32.4621 821.864 Q32.4621 826.575 36.1542 829.312 Q39.8145 832.05 46.212 832.05 Q52.6095 832.05 56.3017 829.344 Q59.9619 826.607 59.9619 821.864 Q59.9619 817.186 56.2698 814.448 Q52.5777 811.711 46.212 811.711 Q39.8781 811.711 36.186 814.448 Q32.4621 817.186 32.4621 821.864 M27.4968 821.864 Q27.4968 814.226 32.4621 809.865 Q37.4273 805.505 46.212 805.505 Q54.9649 805.505 59.9619 809.865 Q64.9272 814.226 64.9272 821.864 Q64.9272 829.535 59.9619 833.896 Q54.9649 838.224 46.212 838.224 Q37.4273 838.224 32.4621 833.896 Q27.4968 829.535 27.4968 821.864 Z" fill="#000000" fill-rule="nonzero" fill-opacity="1" /><path clip-path="url(#clip610)" d="M49.9359 796.402 L28.3562 796.402 L28.3562 790.545 L49.7131 790.545 Q54.7739 790.545 57.3202 788.572 Q59.8346 786.598 59.8346 782.652 Q59.8346 777.909 56.8109 775.172 Q53.7872 772.403 48.5673 772.403 L28.3562 772.403 L28.3562 766.547 L64.0042 766.547 L64.0042 772.403 L58.5296 772.403 Q61.7762 774.535 63.3676 777.368 Q64.9272 780.169 64.9272 783.893 Q64.9272 790.036 61.1078 793.219 Q57.2883 796.402 49.9359 796.402 M27.4968 781.665 L27.4968 781.665 Z" fill="#000000" fill-rule="nonzero" fill-opacity="1" /><path clip-path="url(#clip610)" d="M42.4881 724.851 L64.0042 724.851 L64.0042 730.708 L42.679 730.708 Q37.6183 730.708 35.1038 732.681 Q32.5894 734.654 32.5894 738.601 Q32.5894 743.344 35.6131 746.081 Q38.6368 748.818 43.8567 748.818 L64.0042 748.818 L64.0042 754.706 L28.3562 754.706 L28.3562 748.818 L33.8944 748.818 Q30.6797 746.717 29.0883 743.885 Q27.4968 741.02 27.4968 737.296 Q27.4968 731.153 31.3163 728.002 Q35.1038 724.851 42.4881 724.851 Z" fill="#000000" fill-rule="nonzero" fill-opacity="1" /><path clip-path="url(#clip610)" d="M18.2347 707.377 L28.3562 707.377 L28.3562 695.314 L32.9077 695.314 L32.9077 707.377 L52.2594 707.377 Q56.6199 707.377 57.8613 706.2 Q59.1026 704.99 59.1026 701.33 L59.1026 695.314 L64.0042 695.314 L64.0042 701.33 Q64.0042 708.109 61.4897 710.687 Q58.9434 713.266 52.2594 713.266 L32.9077 713.266 L32.9077 717.562 L28.3562 717.562 L28.3562 713.266 L18.2347 713.266 L18.2347 707.377 Z" fill="#000000" fill-rule="nonzero" fill-opacity="1" /><path clip-path="url(#clip610)" d="M29.4065 664.886 L34.9447 664.886 Q33.6716 667.369 33.035 670.042 Q32.3984 672.716 32.3984 675.581 Q32.3984 679.941 33.7352 682.137 Q35.072 684.302 37.7456 684.302 Q39.7826 684.302 40.9603 682.742 Q42.1061 681.182 43.1565 676.472 L43.6021 674.467 Q44.9389 668.228 47.3897 665.618 Q49.8086 662.976 54.1691 662.976 Q59.1344 662.976 62.0308 666.923 Q64.9272 670.838 64.9272 677.713 Q64.9272 680.578 64.3543 683.697 Q63.8132 686.784 62.6992 690.222 L56.6518 690.222 Q58.3387 686.975 59.198 683.824 Q60.0256 680.673 60.0256 677.586 Q60.0256 673.448 58.6251 671.22 Q57.1929 668.992 54.6147 668.992 Q52.2276 668.992 50.9545 670.615 Q49.6813 672.207 48.5037 677.649 L48.0262 679.686 Q46.8804 685.129 44.5251 687.548 Q42.138 689.967 38.0002 689.967 Q32.9713 689.967 30.2341 686.402 Q27.4968 682.837 27.4968 676.281 Q27.4968 673.034 27.9743 670.17 Q28.4517 667.305 29.4065 664.886 Z" fill="#000000" fill-rule="nonzero" fill-opacity="1" /><path clip-path="url(#clip610)" d="M862.798 18.8205 L862.798 65.8515 L872.682 65.8515 Q885.199 65.8515 890.992 60.1802 Q896.825 54.509 896.825 42.2752 Q896.825 30.1225 890.992 24.4918 Q885.199 18.8205 872.682 18.8205 L862.798 18.8205 M854.615 12.096 L871.426 12.096 Q889.007 12.096 897.23 19.4281 Q905.454 26.7198 905.454 42.2752 Q905.454 57.9117 897.19 65.2439 Q888.926 72.576 871.426 72.576 L854.615 72.576 L854.615 12.096 Z" fill="#000000" fill-rule="nonzero" fill-opacity="1" /><path clip-path="url(#clip610)" d="M963.787 16.7545 L963.787 25.383 Q959.655 21.5346 954.956 19.6307 Q950.297 17.7268 945.031 17.7268 Q934.661 17.7268 929.152 24.0867 Q923.642 30.4061 923.642 42.3968 Q923.642 54.3469 929.152 60.7069 Q934.661 67.0263 945.031 67.0263 Q950.297 67.0263 954.956 65.1223 Q959.655 63.2184 963.787 59.3701 L963.787 67.9175 Q959.493 70.8341 954.672 72.2924 Q949.892 73.7508 944.545 73.7508 Q930.812 73.7508 922.913 65.3654 Q915.014 56.9395 915.014 42.3968 Q915.014 27.8135 922.913 19.4281 Q930.812 11.0023 944.545 11.0023 Q949.973 11.0023 954.753 12.4606 Q959.574 13.8784 963.787 16.7545 Z" fill="#000000" fill-rule="nonzero" fill-opacity="1" /><path clip-path="url(#clip610)" d="M984.608 18.8205 L984.608 41.5461 L994.898 41.5461 Q1000.61 41.5461 1003.73 38.5889 Q1006.85 35.6318 1006.85 30.163 Q1006.85 24.7348 1003.73 21.7777 Q1000.61 18.8205 994.898 18.8205 L984.608 18.8205 M976.426 12.096 L994.898 12.096 Q1005.07 12.096 1010.25 16.714 Q1015.48 21.2916 1015.48 30.163 Q1015.48 39.1155 1010.25 43.6931 Q1005.07 48.2706 994.898 48.2706 L984.608 48.2706 L984.608 72.576 L976.426 72.576 L976.426 12.096 Z" fill="#000000" fill-rule="nonzero" fill-opacity="1" /><path clip-path="url(#clip610)" d="M1018.07 12.096 L1069.23 12.096 L1069.23 18.9825 L1047.76 18.9825 L1047.76 72.576 L1039.54 72.576 L1039.54 18.9825 L1018.07 18.9825 L1018.07 12.096 Z" fill="#000000" fill-rule="nonzero" fill-opacity="1" /><path clip-path="url(#clip610)" d="M1140.89 45.1919 L1140.89 72.576 L1133.44 72.576 L1133.44 45.4349 Q1133.44 38.994 1130.93 35.7938 Q1128.42 32.5936 1123.39 32.5936 Q1117.36 32.5936 1113.87 36.4419 Q1110.39 40.2903 1110.39 46.9338 L1110.39 72.576 L1102.89 72.576 L1102.89 27.2059 L1110.39 27.2059 L1110.39 34.2544 Q1113.06 30.163 1116.67 28.1376 Q1120.31 26.1121 1125.05 26.1121 Q1132.87 26.1121 1136.88 30.9732 Q1140.89 35.7938 1140.89 45.1919 Z" fill="#000000" fill-rule="nonzero" fill-opacity="1" /><path clip-path="url(#clip610)" d="M1194.57 48.0275 L1194.57 51.6733 L1160.3 51.6733 Q1160.78 59.3701 1164.91 63.421 Q1169.09 67.4314 1176.5 67.4314 Q1180.79 67.4314 1184.8 66.3781 Q1188.86 65.3249 1192.82 63.2184 L1192.82 70.267 Q1188.81 71.9684 1184.6 72.8596 Q1180.39 73.7508 1176.05 73.7508 Q1165.2 73.7508 1158.84 67.4314 Q1152.52 61.1119 1152.52 50.3365 Q1152.52 39.1965 1158.51 32.6746 Q1164.55 26.1121 1174.76 26.1121 Q1183.91 26.1121 1189.22 32.0264 Q1194.57 37.9003 1194.57 48.0275 M1187.11 45.84 Q1187.03 39.7232 1183.67 36.0774 Q1180.35 32.4315 1174.84 32.4315 Q1168.6 32.4315 1164.83 35.9558 Q1161.11 39.4801 1160.54 45.8805 L1187.11 45.84 Z" fill="#000000" fill-rule="nonzero" fill-opacity="1" /><path clip-path="url(#clip610)" d="M1206.03 54.671 L1206.03 27.2059 L1213.48 27.2059 L1213.48 54.3874 Q1213.48 60.8284 1216 64.0691 Q1218.51 67.2693 1223.53 67.2693 Q1229.57 67.2693 1233.05 63.421 Q1236.57 59.5726 1236.57 52.9291 L1236.57 27.2059 L1244.03 27.2059 L1244.03 72.576 L1236.57 72.576 L1236.57 65.6084 Q1233.86 69.7404 1230.26 71.7658 Q1226.69 73.7508 1221.95 73.7508 Q1214.13 73.7508 1210.08 68.8897 Q1206.03 64.0286 1206.03 54.671 M1224.79 26.1121 L1224.79 26.1121 Z" fill="#000000" fill-rule="nonzero" fill-opacity="1" /><path clip-path="url(#clip610)" d="M1266.75 14.324 L1266.75 27.2059 L1282.11 27.2059 L1282.11 32.9987 L1266.75 32.9987 L1266.75 57.6282 Q1266.75 63.1779 1268.25 64.7578 Q1269.79 66.3376 1274.45 66.3376 L1282.11 66.3376 L1282.11 72.576 L1274.45 72.576 Q1265.82 72.576 1262.54 69.3758 Q1259.26 66.1351 1259.26 57.6282 L1259.26 32.9987 L1253.79 32.9987 L1253.79 27.2059 L1259.26 27.2059 L1259.26 14.324 L1266.75 14.324 Z" fill="#000000" fill-rule="nonzero" fill-opacity="1" /><path clip-path="url(#clip610)" d="M1318.2 34.1734 Q1316.94 33.4443 1315.45 33.1202 Q1313.99 32.7556 1312.21 32.7556 Q1305.89 32.7556 1302.48 36.8875 Q1299.12 40.9789 1299.12 48.6757 L1299.12 72.576 L1291.63 72.576 L1291.63 27.2059 L1299.12 27.2059 L1299.12 34.2544 Q1301.47 30.1225 1305.24 28.1376 Q1309 26.1121 1314.39 26.1121 Q1315.16 26.1121 1316.09 26.2337 Q1317.03 26.3147 1318.16 26.5172 L1318.2 34.1734 Z" fill="#000000" fill-rule="nonzero" fill-opacity="1" /><path clip-path="url(#clip610)" d="M1341.78 32.4315 Q1335.78 32.4315 1332.3 37.1306 Q1328.81 41.7891 1328.81 49.9314 Q1328.81 58.0738 1332.26 62.7728 Q1335.74 67.4314 1341.78 67.4314 Q1347.73 67.4314 1351.22 62.7323 Q1354.7 58.0333 1354.7 49.9314 Q1354.7 41.8701 1351.22 37.1711 Q1347.73 32.4315 1341.78 32.4315 M1341.78 26.1121 Q1351.5 26.1121 1357.05 32.4315 Q1362.6 38.7509 1362.6 49.9314 Q1362.6 61.0714 1357.05 67.4314 Q1351.5 73.7508 1341.78 73.7508 Q1332.01 73.7508 1326.46 67.4314 Q1320.95 61.0714 1320.95 49.9314 Q1320.95 38.7509 1326.46 32.4315 Q1332.01 26.1121 1341.78 26.1121 Z" fill="#000000" fill-rule="nonzero" fill-opacity="1" /><path clip-path="url(#clip610)" d="M1412.67 45.1919 L1412.67 72.576 L1405.21 72.576 L1405.21 45.4349 Q1405.21 38.994 1402.7 35.7938 Q1400.19 32.5936 1395.17 32.5936 Q1389.13 32.5936 1385.65 36.4419 Q1382.16 40.2903 1382.16 46.9338 L1382.16 72.576 L1374.67 72.576 L1374.67 27.2059 L1382.16 27.2059 L1382.16 34.2544 Q1384.84 30.163 1388.44 28.1376 Q1392.09 26.1121 1396.83 26.1121 Q1404.65 26.1121 1408.66 30.9732 Q1412.67 35.7938 1412.67 45.1919 Z" fill="#000000" fill-rule="nonzero" fill-opacity="1" /><path clip-path="url(#clip610)" d="M1482.83 28.5427 L1482.83 35.5912 Q1479.67 33.9709 1476.27 33.1607 Q1472.86 32.3505 1469.22 32.3505 Q1463.67 32.3505 1460.87 34.0519 Q1458.12 35.7533 1458.12 39.156 Q1458.12 41.7486 1460.1 43.2475 Q1462.09 44.7058 1468.08 46.0426 L1470.64 46.6097 Q1478.58 48.3111 1481.9 51.4303 Q1485.26 54.509 1485.26 60.0587 Q1485.26 66.3781 1480.24 70.0644 Q1475.25 73.7508 1466.5 73.7508 Q1462.86 73.7508 1458.89 73.0216 Q1454.96 72.3329 1450.58 70.9151 L1450.58 63.2184 Q1454.72 65.3654 1458.73 66.4591 Q1462.74 67.5124 1466.67 67.5124 Q1471.93 67.5124 1474.77 65.73 Q1477.6 63.9071 1477.6 60.6258 Q1477.6 57.5877 1475.54 55.9673 Q1473.51 54.3469 1466.59 52.8481 L1463.99 52.2405 Q1457.07 50.7821 1453.99 47.7845 Q1450.91 44.7463 1450.91 39.4801 Q1450.91 33.0797 1455.45 29.5959 Q1459.98 26.1121 1468.33 26.1121 Q1472.46 26.1121 1476.1 26.7198 Q1479.75 27.3274 1482.83 28.5427 Z" fill="#000000" fill-rule="nonzero" fill-opacity="1" /><path clip-path="url(#clip610)" d="M1535.94 48.0275 L1535.94 51.6733 L1501.67 51.6733 Q1502.15 59.3701 1506.28 63.421 Q1510.46 67.4314 1517.87 67.4314 Q1522.16 67.4314 1526.17 66.3781 Q1530.22 65.3249 1534.19 63.2184 L1534.19 70.267 Q1530.18 71.9684 1525.97 72.8596 Q1521.76 73.7508 1517.42 73.7508 Q1506.57 73.7508 1500.21 67.4314 Q1493.89 61.1119 1493.89 50.3365 Q1493.89 39.1965 1499.88 32.6746 Q1505.92 26.1121 1516.13 26.1121 Q1525.28 26.1121 1530.59 32.0264 Q1535.94 37.9003 1535.94 48.0275 M1528.48 45.84 Q1528.4 39.7232 1525.04 36.0774 Q1521.72 32.4315 1516.21 32.4315 Q1509.97 32.4315 1506.2 35.9558 Q1502.48 39.4801 1501.91 45.8805 L1528.48 45.84 Z" fill="#000000" fill-rule="nonzero" fill-opacity="1" /><path clip-path="url(#clip610)" d="M1555.54 14.324 L1555.54 27.2059 L1570.9 27.2059 L1570.9 32.9987 L1555.54 32.9987 L1555.54 57.6282 Q1555.54 63.1779 1557.04 64.7578 Q1558.58 66.3376 1563.24 66.3376 L1570.9 66.3376 L1570.9 72.576 L1563.24 72.576 Q1554.61 72.576 1551.33 69.3758 Q1548.05 66.1351 1548.05 57.6282 L1548.05 32.9987 L1542.58 32.9987 L1542.58 27.2059 L1548.05 27.2059 L1548.05 14.324 L1555.54 14.324 Z" fill="#000000" fill-rule="nonzero" fill-opacity="1" /><path clip-path="url(#clip610)" d="M1579.93 54.671 L1579.93 27.2059 L1587.38 27.2059 L1587.38 54.3874 Q1587.38 60.8284 1589.89 64.0691 Q1592.41 67.2693 1597.43 67.2693 Q1603.47 67.2693 1606.95 63.421 Q1610.47 59.5726 1610.47 52.9291 L1610.47 27.2059 L1617.93 27.2059 L1617.93 72.576 L1610.47 72.576 L1610.47 65.6084 Q1607.76 69.7404 1604.15 71.7658 Q1600.59 73.7508 1595.85 73.7508 Q1588.03 73.7508 1583.98 68.8897 Q1579.93 64.0286 1579.93 54.671 M1598.68 26.1121 L1598.68 26.1121 Z" fill="#000000" fill-rule="nonzero" fill-opacity="1" /><path clip-path="url(#clip610)" d="M1640.49 65.7705 L1640.49 89.8329 L1633 89.8329 L1633 27.2059 L1640.49 27.2059 L1640.49 34.0924 Q1642.84 30.0415 1646.4 28.0971 Q1650.01 26.1121 1654.99 26.1121 Q1663.26 26.1121 1668.4 32.6746 Q1673.59 39.2371 1673.59 49.9314 Q1673.59 60.6258 1668.4 67.1883 Q1663.26 73.7508 1654.99 73.7508 Q1650.01 73.7508 1646.4 71.8063 Q1642.84 69.8214 1640.49 65.7705 M1665.85 49.9314 Q1665.85 41.7081 1662.45 37.0496 Q1659.08 32.3505 1653.17 32.3505 Q1647.26 32.3505 1643.85 37.0496 Q1640.49 41.7081 1640.49 49.9314 Q1640.49 58.1548 1643.85 62.8538 Q1647.26 67.5124 1653.17 67.5124 Q1659.08 67.5124 1662.45 62.8538 Q1665.85 58.1548 1665.85 49.9314 Z" fill="#000000" fill-rule="nonzero" fill-opacity="1" /><polyline clip-path="url(#clip612)" style="stroke:#000000; stroke-linecap:round; stroke-linejoin:round; stroke-width:4; stroke-opacity:1; fill:none" points="237.067,1386.4 237.067,1386.4 245.316,1386.4 253.566,1386.4 261.815,1386.4 270.064,1386.4 278.314,1386.4 286.563,1386.4 294.812,1386.4 303.061,1386.4 303.061,1141.17 311.311,1141.17 319.56,1141.17 319.56,1386.4 327.809,1386.4 336.058,1386.4 344.308,1386.4 352.557,1386.4 360.806,1386.4 360.806,1141.17 369.055,1141.17 369.055,1386.4 377.305,1386.4 385.554,1386.4 385.554,1141.17 393.803,1141.17 393.803,1386.4 402.052,1386.4 410.302,1386.4 418.551,1386.4 426.8,1386.4 435.05,1386.4 435.05,895.94 443.299,895.94 451.548,895.94 451.548,405.484 459.797,405.484 459.797,895.94 468.047,895.94 468.047,650.712 476.296,650.712 476.296,1141.17 484.545,1141.17 484.545,895.94 492.794,895.94 492.794,1386.4 501.044,1386.4 509.293,1386.4 517.542,1386.4 525.791,1386.4 534.041,1386.4 542.29,1386.4 550.539,1386.4 558.788,1386.4 558.788,1141.17 567.038,1141.17 567.038,895.94 575.287,895.94 575.287,1386.4 583.536,1386.4 583.536,1141.17 591.786,1141.17 591.786,895.94 600.035,895.94 600.035,1141.17 608.284,1141.17 608.284,1386.4 616.533,1386.4 616.533,895.94 624.783,895.94 624.783,1386.4 633.032,1386.4 633.032,1141.17 641.281,1141.17 641.281,1386.4 649.53,1386.4 649.53,650.712 657.78,650.712 657.78,895.94 666.029,895.94 666.029,1386.4 674.278,1386.4 674.278,895.94 682.527,895.94 682.527,160.256 690.777,160.256 690.777,1386.4 699.026,1386.4 699.026,1141.17 707.275,1141.17 707.275,1386.4 715.525,1386.4 715.525,650.712 723.774,650.712 723.774,1141.17 732.023,1141.17 732.023,1386.4 740.272,1386.4 748.522,1386.4 748.522,1141.17 756.771,1141.17 756.771,895.94 765.02,895.94 773.269,895.94 773.269,1386.4 781.519,1386.4 781.519,895.94 789.768,895.94 798.017,895.94 798.017,1386.4 806.266,1386.4 814.516,1386.4 822.765,1386.4 822.765,1141.17 831.014,1141.17 831.014,650.712 839.263,650.712 839.263,895.94 847.513,895.94 847.513,1386.4 855.762,1386.4 864.011,1386.4 872.261,1386.4 880.51,1386.4 888.759,1386.4 888.759,1141.17 897.008,1141.17 897.008,1386.4 905.258,1386.4 905.258,1141.17 913.507,1141.17 913.507,1386.4 921.756,1386.4 930.005,1386.4 930.005,1141.17 938.255,1141.17 938.255,1386.4 946.504,1386.4 946.504,405.484 954.753,405.484 954.753,1141.17 963.002,1141.17 963.002,895.94 971.252,895.94 971.252,1386.4 979.501,1386.4 987.75,1386.4 987.75,650.712 995.999,650.712 995.999,1386.4 1004.25,1386.4 1012.5,1386.4 1012.5,895.94 1020.75,895.94 1020.75,1386.4 1029,1386.4 1029,1141.17 1037.25,1141.17 1037.25,895.94 1045.5,895.94 1045.5,1386.4 1053.74,1386.4 1053.74,1141.17 1061.99,1141.17 1061.99,1386.4 1070.24,1386.4 1078.49,1386.4 1086.74,1386.4 1094.99,1386.4 1103.24,1386.4 1111.49,1386.4 1119.74,1386.4 1127.99,1386.4 1136.24,1386.4 1136.24,1141.17 1144.49,1141.17 1144.49,1386.4 1152.74,1386.4 1160.98,1386.4 1169.23,1386.4 1177.48,1386.4 1185.73,1386.4 1193.98,1386.4 1202.23,1386.4 1202.23,1141.17 1210.48,1141.17 1210.48,1386.4 1218.73,1386.4 1226.98,1386.4 1226.98,1141.17 1235.23,1141.17 1243.48,1141.17 1251.73,1141.17 1251.73,1386.4 1259.98,1386.4 1259.98,895.94 1268.23,895.94 1268.23,1141.17 1276.47,1141.17 1276.47,895.94 1284.72,895.94 1284.72,1386.4 1292.97,1386.4 1301.22,1386.4 1301.22,1141.17 1309.47,1141.17 1309.47,1386.4 1317.72,1386.4 1325.97,1386.4 1325.97,1141.17 1334.22,1141.17 1342.47,1141.17 1350.72,1141.17 1358.97,1141.17 1367.22,1141.17 1375.47,1141.17 1375.47,1386.4 1383.71,1386.4 1383.71,1141.17 1391.96,1141.17 1391.96,1386.4 1400.21,1386.4 1408.46,1386.4 1416.71,1386.4 1424.96,1386.4 1433.21,1386.4 1433.21,1141.17 1441.46,1141.17 1441.46,1386.4 1449.71,1386.4 1457.96,1386.4 1466.21,1386.4 1474.46,1386.4 1474.46,1141.17 1482.71,1141.17 1482.71,1386.4 1490.96,1386.4 1499.2,1386.4 1507.45,1386.4 1515.7,1386.4 1523.95,1386.4 1532.2,1386.4 1540.45,1386.4 1548.7,1386.4 1556.95,1386.4 1565.2,1386.4 1573.45,1386.4 1581.7,1386.4 1589.95,1386.4 1598.2,1386.4 1606.45,1386.4 1614.69,1386.4 1622.94,1386.4 1631.19,1386.4 1639.44,1386.4 1647.69,1386.4 1655.94,1386.4 1664.19,1386.4 1672.44,1386.4 1680.69,1386.4 1688.94,1386.4 1697.19,1386.4 1705.44,1386.4 1713.69,1386.4 1721.93,1386.4 1730.18,1386.4 1738.43,1386.4 1746.68,1386.4 1754.93,1386.4 1763.18,1386.4 1771.43,1386.4 1779.68,1386.4 1787.93,1386.4 1796.18,1386.4 1796.18,1141.17 1804.43,1141.17 1804.43,1386.4 1812.68,1386.4 1820.93,1386.4 1829.18,1386.4 1837.42,1386.4 1845.67,1386.4 1853.92,1386.4 1862.17,1386.4 1870.42,1386.4 1870.42,1141.17 1878.67,1141.17 1878.67,1386.4 1886.92,1386.4 1895.17,1386.4 1903.42,1386.4 1911.67,1386.4 1919.92,1386.4 1928.17,1386.4 1936.42,1386.4 1944.66,1386.4 1952.91,1386.4 1961.16,1386.4 1969.41,1386.4 1977.66,1386.4 1985.91,1386.4 1994.16,1386.4 2002.41,1386.4 2010.66,1386.4 2018.91,1386.4 2027.16,1386.4 2035.41,1386.4 2043.66,1386.4 2051.91,1386.4 2060.15,1386.4 2068.4,1386.4 2076.65,1386.4 2084.9,1386.4 2093.15,1386.4 2101.4,1386.4 2109.65,1386.4 2117.9,1386.4 2126.15,1386.4 2134.4,1386.4 2142.65,1386.4 2150.9,1386.4 2159.15,1386.4 2167.39,1386.4 2175.64,1386.4 2183.89,1386.4 2192.14,1386.4 2200.39,1386.4 2208.64,1386.4 2216.89,1386.4 2225.14,1386.4 2233.39,1386.4 2241.64,1386.4 2249.89,1386.4 2258.14,1386.4 2266.39,1386.4 2274.64,1386.4 2282.88,1386.4 2291.13,1386.4 "/>
<polyline clip-path="url(#clip612)" style="stroke:#ff0000; stroke-linecap:round; stroke-linejoin:round; stroke-width:4; stroke-opacity:1; fill:none" points="237.067,1386.4 237.067,160.256 245.316,160.256 253.566,160.256 253.566,1386.4 261.815,1386.4 261.815,1141.17 270.064,1141.17 270.064,650.712 278.314,650.712 278.314,405.484 286.563,405.484 294.812,405.484 294.812,895.94 303.061,895.94 303.061,1386.4 311.311,1386.4 311.311,1141.17 319.56,1141.17 319.56,405.484 327.809,405.484 327.809,650.712 336.058,650.712 336.058,1141.17 344.308,1141.17 344.308,895.94 352.557,895.94 352.557,1141.17 360.806,1141.17 360.806,1386.4 369.055,1386.4 369.055,895.94 377.305,895.94 377.305,1386.4 385.554,1386.4 385.554,1141.17 393.803,1141.17 402.052,1141.17 402.052,1386.4 410.302,1386.4 410.302,895.94 418.551,895.94 418.551,1386.4 426.8,1386.4 426.8,1141.17 435.05,1141.17 435.05,1386.4 443.299,1386.4 451.548,1386.4 459.797,1386.4 468.047,1386.4 468.047,1141.17 476.296,1141.17 476.296,1386.4 484.545,1386.4 492.794,1386.4 501.044,1386.4 509.293,1386.4 517.542,1386.4 525.791,1386.4 534.041,1386.4 542.29,1386.4 550.539,1386.4 558.788,1386.4 567.038,1386.4 567.038,1141.17 575.287,1141.17 575.287,1386.4 583.536,1386.4 591.786,1386.4 600.035,1386.4 608.284,1386.4 616.533,1386.4 624.783,1386.4 633.032,1386.4 641.281,1386.4 649.53,1386.4 657.78,1386.4 666.029,1386.4 674.278,1386.4 682.527,1386.4 690.777,1386.4 699.026,1386.4 707.275,1386.4 715.525,1386.4 723.774,1386.4 732.023,1386.4 740.272,1386.4 748.522,1386.4 756.771,1386.4 765.02,1386.4 773.269,1386.4 781.519,1386.4 789.768,1386.4 798.017,1386.4 806.266,1386.4 814.516,1386.4 822.765,1386.4 831.014,1386.4 839.263,1386.4 847.513,1386.4 855.762,1386.4 864.011,1386.4 872.261,1386.4 880.51,1386.4 888.759,1386.4 897.008,1386.4 905.258,1386.4 913.507,1386.4 921.756,1386.4 930.005,1386.4 938.255,1386.4 946.504,1386.4 954.753,1386.4 963.002,1386.4 971.252,1386.4 979.501,1386.4 987.75,1386.4 995.999,1386.4 1004.25,1386.4 1012.5,1386.4 1020.75,1386.4 1029,1386.4 1037.25,1386.4 1045.5,1386.4 1053.74,1386.4 1061.99,1386.4 1070.24,1386.4 1078.49,1386.4 1086.74,1386.4 1094.99,1386.4 1103.24,1386.4 1111.49,1386.4 1119.74,1386.4 1127.99,1386.4 1136.24,1386.4 1144.49,1386.4 1152.74,1386.4 1160.98,1386.4 1169.23,1386.4 1177.48,1386.4 1185.73,1386.4 1193.98,1386.4 1202.23,1386.4 1210.48,1386.4 1218.73,1386.4 1226.98,1386.4 1235.23,1386.4 1243.48,1386.4 1251.73,1386.4 1259.98,1386.4 1268.23,1386.4 1276.47,1386.4 1284.72,1386.4 1292.97,1386.4 1301.22,1386.4 1309.47,1386.4 1317.72,1386.4 1325.97,1386.4 1334.22,1386.4 1342.47,1386.4 1350.72,1386.4 1358.97,1386.4 1367.22,1386.4 1375.47,1386.4 1383.71,1386.4 1391.96,1386.4 1400.21,1386.4 1408.46,1386.4 1416.71,1386.4 1424.96,1386.4 1433.21,1386.4 1441.46,1386.4 1449.71,1386.4 1457.96,1386.4 1466.21,1386.4 1474.46,1386.4 1482.71,1386.4 1490.96,1386.4 1499.2,1386.4 1507.45,1386.4 1515.7,1386.4 1523.95,1386.4 1532.2,1386.4 1540.45,1386.4 1548.7,1386.4 1556.95,1386.4 1565.2,1386.4 1573.45,1386.4 1581.7,1386.4 1589.95,1386.4 1598.2,1386.4 1606.45,1386.4 1614.69,1386.4 1622.94,1386.4 1631.19,1386.4 1639.44,1386.4 1647.69,1386.4 1655.94,1386.4 1664.19,1386.4 1672.44,1386.4 1680.69,1386.4 1688.94,1386.4 1697.19,1386.4 1705.44,1386.4 1713.69,1386.4 1721.93,1386.4 1730.18,1386.4 1738.43,1386.4 1746.68,1386.4 1754.93,1386.4 1763.18,1386.4 1771.43,1386.4 1779.68,1386.4 1787.93,1386.4 1796.18,1386.4 1804.43,1386.4 1812.68,1386.4 1820.93,1386.4 1829.18,1386.4 1837.42,1386.4 1845.67,1386.4 1853.92,1386.4 1862.17,1386.4 1870.42,1386.4 1878.67,1386.4 1886.92,1386.4 1895.17,1386.4 1903.42,1386.4 1911.67,1386.4 1919.92,1386.4 1928.17,1386.4 1936.42,1386.4 1944.66,1386.4 1952.91,1386.4 1961.16,1386.4 1969.41,1386.4 1977.66,1386.4 1985.91,1386.4 1994.16,1386.4 2002.41,1386.4 2010.66,1386.4 2018.91,1386.4 2027.16,1386.4 2035.41,1386.4 2043.66,1386.4 2051.91,1386.4 2060.15,1386.4 2068.4,1386.4 2076.65,1386.4 2084.9,1386.4 2093.15,1386.4 2101.4,1386.4 2109.65,1386.4 2117.9,1386.4 2126.15,1386.4 2134.4,1386.4 2142.65,1386.4 2150.9,1386.4 2159.15,1386.4 2167.39,1386.4 2175.64,1386.4 2183.89,1386.4 2192.14,1386.4 2200.39,1386.4 2208.64,1386.4 2216.89,1386.4 2225.14,1386.4 2233.39,1386.4 2241.64,1386.4 2249.89,1386.4 2258.14,1386.4 2266.39,1386.4 2274.64,1386.4 2282.88,1386.4 2291.13,1386.4 "/>
<path clip-path="url(#clip610)" d="M1732.98 322.316 L2280.18 322.316 L2280.18 166.796 L1732.98 166.796  Z" fill="#ffffff" fill-rule="evenodd" fill-opacity="1"/>
<polyline clip-path="url(#clip610)" style="stroke:#000000; stroke-linecap:round; stroke-linejoin:round; stroke-width:4; stroke-opacity:1; fill:none" points="1732.98,322.316 2280.18,322.316 2280.18,166.796 1732.98,166.796 1732.98,322.316 "/>
<polyline clip-path="url(#clip610)" style="stroke:#000000; stroke-linecap:round; stroke-linejoin:round; stroke-width:4; stroke-opacity:1; fill:none" points="1757.17,218.636 1902.33,218.636 "/>
<path clip-path="url(#clip610)" d="M1926.52 201.356 L1933.49 201.356 L1942.31 224.874 L1951.17 201.356 L1958.14 201.356 L1958.14 235.916 L1953.58 235.916 L1953.58 205.569 L1944.67 229.272 L1939.97 229.272 L1931.06 205.569 L1931.06 235.916 L1926.52 235.916 L1926.52 201.356 Z" fill="#000000" fill-rule="nonzero" fill-opacity="1" /><path clip-path="url(#clip610)" d="M1979.02 222.883 Q1973.86 222.883 1971.87 224.064 Q1969.88 225.244 1969.88 228.092 Q1969.88 230.36 1971.36 231.703 Q1972.86 233.022 1975.43 233.022 Q1978.97 233.022 1981.1 230.522 Q1983.26 227.999 1983.26 223.832 L1983.26 222.883 L1979.02 222.883 M1987.52 221.124 L1987.52 235.916 L1983.26 235.916 L1983.26 231.981 Q1981.8 234.342 1979.62 235.476 Q1977.45 236.587 1974.3 236.587 Q1970.32 236.587 1967.96 234.365 Q1965.62 232.119 1965.62 228.369 Q1965.62 223.994 1968.53 221.772 Q1971.47 219.55 1977.28 219.55 L1983.26 219.55 L1983.26 219.133 Q1983.26 216.194 1981.31 214.596 Q1979.39 212.976 1975.9 212.976 Q1973.67 212.976 1971.57 213.508 Q1969.46 214.041 1967.52 215.106 L1967.52 211.17 Q1969.85 210.268 1972.05 209.828 Q1974.25 209.365 1976.34 209.365 Q1981.96 209.365 1984.74 212.282 Q1987.52 215.198 1987.52 221.124 Z" fill="#000000" fill-rule="nonzero" fill-opacity="1" /><path clip-path="url(#clip610)" d="M2000.5 202.629 L2000.5 209.99 L2009.27 209.99 L2009.27 213.3 L2000.5 213.3 L2000.5 227.374 Q2000.5 230.545 2001.36 231.448 Q2002.24 232.351 2004.9 232.351 L2009.27 232.351 L2009.27 235.916 L2004.9 235.916 Q1999.97 235.916 1998.09 234.087 Q1996.22 232.235 1996.22 227.374 L1996.22 213.3 L1993.09 213.3 L1993.09 209.99 L1996.22 209.99 L1996.22 202.629 L2000.5 202.629 Z" fill="#000000" fill-rule="nonzero" fill-opacity="1" /><path clip-path="url(#clip610)" d="M2033.53 210.985 L2033.53 214.967 Q2031.73 213.971 2029.9 213.485 Q2028.09 212.976 2026.24 212.976 Q2022.1 212.976 2019.81 215.615 Q2017.52 218.231 2017.52 222.976 Q2017.52 227.721 2019.81 230.36 Q2022.1 232.976 2026.24 232.976 Q2028.09 232.976 2029.9 232.49 Q2031.73 231.981 2033.53 230.985 L2033.53 234.92 Q2031.75 235.754 2029.83 236.17 Q2027.93 236.587 2025.78 236.587 Q2019.92 236.587 2016.47 232.906 Q2013.02 229.226 2013.02 222.976 Q2013.02 216.633 2016.5 212.999 Q2019.99 209.365 2026.06 209.365 Q2028.02 209.365 2029.9 209.782 Q2031.77 210.175 2033.53 210.985 Z" fill="#000000" fill-rule="nonzero" fill-opacity="1" /><path clip-path="url(#clip610)" d="M2062.49 220.268 L2062.49 235.916 L2058.23 235.916 L2058.23 220.407 Q2058.23 216.726 2056.8 214.897 Q2055.36 213.069 2052.49 213.069 Q2049.04 213.069 2047.05 215.268 Q2045.06 217.467 2045.06 221.263 L2045.06 235.916 L2040.78 235.916 L2040.78 199.897 L2045.06 199.897 L2045.06 214.018 Q2046.59 211.68 2048.65 210.522 Q2050.73 209.365 2053.44 209.365 Q2057.91 209.365 2060.2 212.143 Q2062.49 214.897 2062.49 220.268 Z" fill="#000000" fill-rule="nonzero" fill-opacity="1" /><path clip-path="url(#clip610)" d="M2093.16 221.888 L2093.16 223.971 L2073.58 223.971 Q2073.86 228.369 2076.22 230.684 Q2078.6 232.976 2082.84 232.976 Q2085.29 232.976 2087.58 232.374 Q2089.9 231.772 2092.17 230.569 L2092.17 234.596 Q2089.88 235.568 2087.47 236.078 Q2085.06 236.587 2082.58 236.587 Q2076.38 236.587 2072.75 232.976 Q2069.14 229.365 2069.14 223.207 Q2069.14 216.842 2072.56 213.115 Q2076.01 209.365 2081.84 209.365 Q2087.08 209.365 2090.11 212.745 Q2093.16 216.101 2093.16 221.888 M2088.9 220.638 Q2088.86 217.143 2086.94 215.059 Q2085.04 212.976 2081.89 212.976 Q2078.33 212.976 2076.17 214.99 Q2074.04 217.004 2073.72 220.661 L2088.9 220.638 Z" fill="#000000" fill-rule="nonzero" fill-opacity="1" /><path clip-path="url(#clip610)" d="M2116.68 210.754 L2116.68 214.782 Q2114.88 213.856 2112.93 213.393 Q2110.99 212.93 2108.9 212.93 Q2105.73 212.93 2104.14 213.902 Q2102.56 214.874 2102.56 216.819 Q2102.56 218.3 2103.7 219.157 Q2104.83 219.99 2108.26 220.754 L2109.71 221.078 Q2114.25 222.05 2116.15 223.832 Q2118.07 225.592 2118.07 228.763 Q2118.07 232.374 2115.2 234.481 Q2112.35 236.587 2107.35 236.587 Q2105.27 236.587 2103 236.17 Q2100.76 235.777 2098.26 234.967 L2098.26 230.569 Q2100.62 231.795 2102.91 232.42 Q2105.2 233.022 2107.45 233.022 Q2110.45 233.022 2112.08 232.004 Q2113.7 230.962 2113.7 229.087 Q2113.7 227.351 2112.52 226.425 Q2111.36 225.499 2107.4 224.643 L2105.92 224.295 Q2101.96 223.462 2100.2 221.749 Q2098.44 220.013 2098.44 217.004 Q2098.44 213.346 2101.03 211.356 Q2103.63 209.365 2108.39 209.365 Q2110.76 209.365 2112.84 209.712 Q2114.92 210.059 2116.68 210.754 Z" fill="#000000" fill-rule="nonzero" fill-opacity="1" /><path clip-path="url(#clip610)" d="M2125.94 230.036 L2130.83 230.036 L2130.83 235.916 L2125.94 235.916 L2125.94 230.036 M2125.94 211.402 L2130.83 211.402 L2130.83 217.282 L2125.94 217.282 L2125.94 211.402 Z" fill="#000000" fill-rule="nonzero" fill-opacity="1" /><path clip-path="url(#clip610)" d="M2157.31 231.981 L2164.95 231.981 L2164.95 205.615 L2156.64 207.282 L2156.64 203.022 L2164.9 201.356 L2169.57 201.356 L2169.57 231.981 L2177.21 231.981 L2177.21 235.916 L2157.31 235.916 L2157.31 231.981 Z" fill="#000000" fill-rule="nonzero" fill-opacity="1" /><path clip-path="url(#clip610)" d="M2186.7 201.356 L2205.06 201.356 L2205.06 205.291 L2190.99 205.291 L2190.99 213.763 Q2192.01 213.416 2193.02 213.254 Q2194.04 213.069 2195.06 213.069 Q2200.85 213.069 2204.23 216.24 Q2207.61 219.411 2207.61 224.828 Q2207.61 230.406 2204.13 233.508 Q2200.66 236.587 2194.34 236.587 Q2192.17 236.587 2189.9 236.217 Q2187.65 235.846 2185.25 235.106 L2185.25 230.406 Q2187.33 231.541 2189.55 232.096 Q2191.77 232.652 2194.25 232.652 Q2198.26 232.652 2200.59 230.545 Q2202.93 228.439 2202.93 224.828 Q2202.93 221.217 2200.59 219.11 Q2198.26 217.004 2194.25 217.004 Q2192.38 217.004 2190.5 217.42 Q2188.65 217.837 2186.7 218.717 L2186.7 201.356 Z" fill="#000000" fill-rule="nonzero" fill-opacity="1" /><path clip-path="url(#clip610)" d="M2215.64 201.356 L2237.86 201.356 L2237.86 203.346 L2225.32 235.916 L2220.43 235.916 L2232.24 205.291 L2215.64 205.291 L2215.64 201.356 Z" fill="#000000" fill-rule="nonzero" fill-opacity="1" /><polyline clip-path="url(#clip610)" style="stroke:#ff0000; stroke-linecap:round; stroke-linejoin:round; stroke-width:4; stroke-opacity:1; fill:none" points="1757.17,270.476 1902.33,270.476 "/>
<path clip-path="url(#clip610)" d="M1948.77 254.33 L1948.77 258.89 Q1946.1 257.617 1943.74 256.992 Q1941.38 256.367 1939.18 256.367 Q1935.36 256.367 1933.28 257.848 Q1931.22 259.33 1931.22 262.061 Q1931.22 264.353 1932.59 265.534 Q1933.97 266.691 1937.82 267.409 L1940.64 267.987 Q1945.87 268.983 1948.35 271.506 Q1950.85 274.006 1950.85 278.219 Q1950.85 283.242 1947.47 285.834 Q1944.11 288.427 1937.61 288.427 Q1935.15 288.427 1932.38 287.871 Q1929.62 287.316 1926.66 286.228 L1926.66 281.413 Q1929.51 283.01 1932.24 283.821 Q1934.97 284.631 1937.61 284.631 Q1941.61 284.631 1943.79 283.057 Q1945.97 281.483 1945.97 278.566 Q1945.97 276.02 1944.39 274.584 Q1942.84 273.149 1939.28 272.432 L1936.43 271.876 Q1931.2 270.835 1928.86 268.612 Q1926.52 266.39 1926.52 262.432 Q1926.52 257.848 1929.74 255.21 Q1932.98 252.571 1938.65 252.571 Q1941.08 252.571 1943.6 253.011 Q1946.13 253.45 1948.77 254.33 Z" fill="#000000" fill-rule="nonzero" fill-opacity="1" /><path clip-path="url(#clip610)" d="M1962.17 254.469 L1962.17 261.83 L1970.94 261.83 L1970.94 265.14 L1962.17 265.14 L1962.17 279.214 Q1962.17 282.385 1963.03 283.288 Q1963.9 284.191 1966.57 284.191 L1970.94 284.191 L1970.94 287.756 L1966.57 287.756 Q1961.64 287.756 1959.76 285.927 Q1957.89 284.075 1957.89 279.214 L1957.89 265.14 L1954.76 265.14 L1954.76 261.83 L1957.89 261.83 L1957.89 254.469 L1962.17 254.469 Z" fill="#000000" fill-rule="nonzero" fill-opacity="1" /><path clip-path="url(#clip610)" d="M1986.59 264.816 Q1983.16 264.816 1981.17 267.501 Q1979.18 270.163 1979.18 274.816 Q1979.18 279.469 1981.15 282.154 Q1983.14 284.816 1986.59 284.816 Q1989.99 284.816 1991.98 282.131 Q1993.97 279.446 1993.97 274.816 Q1993.97 270.21 1991.98 267.524 Q1989.99 264.816 1986.59 264.816 M1986.59 261.205 Q1992.15 261.205 1995.32 264.816 Q1998.49 268.427 1998.49 274.816 Q1998.49 281.182 1995.32 284.816 Q1992.15 288.427 1986.59 288.427 Q1981.01 288.427 1977.84 284.816 Q1974.69 281.182 1974.69 274.816 Q1974.69 268.427 1977.84 264.816 Q1981.01 261.205 1986.59 261.205 Z" fill="#000000" fill-rule="nonzero" fill-opacity="1" /><path clip-path="url(#clip610)" d="M2024.21 262.825 L2024.21 266.807 Q2022.4 265.811 2020.57 265.325 Q2018.77 264.816 2016.91 264.816 Q2012.77 264.816 2010.48 267.455 Q2008.19 270.071 2008.19 274.816 Q2008.19 279.561 2010.48 282.2 Q2012.77 284.816 2016.91 284.816 Q2018.77 284.816 2020.57 284.33 Q2022.4 283.821 2024.21 282.825 L2024.21 286.76 Q2022.42 287.594 2020.5 288.01 Q2018.6 288.427 2016.45 288.427 Q2010.59 288.427 2007.15 284.746 Q2003.7 281.066 2003.7 274.816 Q2003.7 268.473 2007.17 264.839 Q2010.66 261.205 2016.73 261.205 Q2018.7 261.205 2020.57 261.622 Q2022.45 262.015 2024.21 262.825 Z" fill="#000000" fill-rule="nonzero" fill-opacity="1" /><path clip-path="url(#clip610)" d="M2053.16 272.108 L2053.16 287.756 L2048.9 287.756 L2048.9 272.247 Q2048.9 268.566 2047.47 266.737 Q2046.03 264.909 2043.16 264.909 Q2039.71 264.909 2037.72 267.108 Q2035.73 269.307 2035.73 273.103 L2035.73 287.756 L2031.45 287.756 L2031.45 251.737 L2035.73 251.737 L2035.73 265.858 Q2037.26 263.52 2039.32 262.362 Q2041.4 261.205 2044.11 261.205 Q2048.58 261.205 2050.87 263.983 Q2053.16 266.737 2053.16 272.108 Z" fill="#000000" fill-rule="nonzero" fill-opacity="1" /><path clip-path="url(#clip610)" d="M2073.44 274.723 Q2068.28 274.723 2066.29 275.904 Q2064.3 277.084 2064.3 279.932 Q2064.3 282.2 2065.78 283.543 Q2067.28 284.862 2069.85 284.862 Q2073.39 284.862 2075.52 282.362 Q2077.68 279.839 2077.68 275.672 L2077.68 274.723 L2073.44 274.723 M2081.94 272.964 L2081.94 287.756 L2077.68 287.756 L2077.68 283.821 Q2076.22 286.182 2074.04 287.316 Q2071.87 288.427 2068.72 288.427 Q2064.74 288.427 2062.38 286.205 Q2060.04 283.959 2060.04 280.209 Q2060.04 275.834 2062.96 273.612 Q2065.89 271.39 2071.71 271.39 L2077.68 271.39 L2077.68 270.973 Q2077.68 268.034 2075.73 266.436 Q2073.81 264.816 2070.32 264.816 Q2068.09 264.816 2065.99 265.348 Q2063.88 265.881 2061.94 266.946 L2061.94 263.01 Q2064.27 262.108 2066.47 261.668 Q2068.67 261.205 2070.76 261.205 Q2076.38 261.205 2079.16 264.122 Q2081.94 267.038 2081.94 272.964 Z" fill="#000000" fill-rule="nonzero" fill-opacity="1" /><path clip-path="url(#clip610)" d="M2107.24 262.594 L2107.24 266.622 Q2105.43 265.696 2103.49 265.233 Q2101.54 264.77 2099.46 264.77 Q2096.29 264.77 2094.69 265.742 Q2093.12 266.714 2093.12 268.659 Q2093.12 270.14 2094.25 270.997 Q2095.39 271.83 2098.81 272.594 L2100.27 272.918 Q2104.81 273.89 2106.7 275.672 Q2108.63 277.432 2108.63 280.603 Q2108.63 284.214 2105.76 286.321 Q2102.91 288.427 2097.91 288.427 Q2095.83 288.427 2093.56 288.01 Q2091.31 287.617 2088.81 286.807 L2088.81 282.409 Q2091.17 283.635 2093.46 284.26 Q2095.76 284.862 2098 284.862 Q2101.01 284.862 2102.63 283.844 Q2104.25 282.802 2104.25 280.927 Q2104.25 279.191 2103.07 278.265 Q2101.91 277.339 2097.95 276.483 L2096.47 276.135 Q2092.52 275.302 2090.76 273.589 Q2089 271.853 2089 268.844 Q2089 265.186 2091.59 263.196 Q2094.18 261.205 2098.95 261.205 Q2101.31 261.205 2103.39 261.552 Q2105.48 261.899 2107.24 262.594 Z" fill="#000000" fill-rule="nonzero" fill-opacity="1" /><path clip-path="url(#clip610)" d="M2119.62 254.469 L2119.62 261.83 L2128.39 261.83 L2128.39 265.14 L2119.62 265.14 L2119.62 279.214 Q2119.62 282.385 2120.48 283.288 Q2121.36 284.191 2124.02 284.191 L2128.39 284.191 L2128.39 287.756 L2124.02 287.756 Q2119.09 287.756 2117.21 285.927 Q2115.34 284.075 2115.34 279.214 L2115.34 265.14 L2112.21 265.14 L2112.21 261.83 L2115.34 261.83 L2115.34 254.469 L2119.62 254.469 Z" fill="#000000" fill-rule="nonzero" fill-opacity="1" /><path clip-path="url(#clip610)" d="M2134 261.83 L2138.26 261.83 L2138.26 287.756 L2134 287.756 L2134 261.83 M2134 251.737 L2138.26 251.737 L2138.26 257.131 L2134 257.131 L2134 251.737 Z" fill="#000000" fill-rule="nonzero" fill-opacity="1" /><path clip-path="url(#clip610)" d="M2165.82 262.825 L2165.82 266.807 Q2164.02 265.811 2162.19 265.325 Q2160.39 264.816 2158.53 264.816 Q2154.39 264.816 2152.1 267.455 Q2149.81 270.071 2149.81 274.816 Q2149.81 279.561 2152.1 282.2 Q2154.39 284.816 2158.53 284.816 Q2160.39 284.816 2162.19 284.33 Q2164.02 283.821 2165.82 282.825 L2165.82 286.76 Q2164.04 287.594 2162.12 288.01 Q2160.22 288.427 2158.07 288.427 Q2152.21 288.427 2148.76 284.746 Q2145.32 281.066 2145.32 274.816 Q2145.32 268.473 2148.79 264.839 Q2152.28 261.205 2158.35 261.205 Q2160.32 261.205 2162.19 261.622 Q2164.07 262.015 2165.82 262.825 Z" fill="#000000" fill-rule="nonzero" fill-opacity="1" /><path clip-path="url(#clip610)" d="M2174.32 281.876 L2179.2 281.876 L2179.2 287.756 L2174.32 287.756 L2174.32 281.876 M2174.32 263.242 L2179.2 263.242 L2179.2 269.122 L2174.32 269.122 L2174.32 263.242 Z" fill="#000000" fill-rule="nonzero" fill-opacity="1" /><path clip-path="url(#clip610)" d="M2217.72 257.27 L2205.92 275.719 L2217.72 275.719 L2217.72 257.27 M2216.5 253.196 L2222.38 253.196 L2222.38 275.719 L2227.31 275.719 L2227.31 279.608 L2222.38 279.608 L2222.38 287.756 L2217.72 287.756 L2217.72 279.608 L2202.12 279.608 L2202.12 275.094 L2216.5 253.196 Z" fill="#000000" fill-rule="nonzero" fill-opacity="1" /><path clip-path="url(#clip610)" d="M2235.08 253.196 L2253.44 253.196 L2253.44 257.131 L2239.37 257.131 L2239.37 265.603 Q2240.38 265.256 2241.4 265.094 Q2242.42 264.909 2243.44 264.909 Q2249.23 264.909 2252.61 268.08 Q2255.99 271.251 2255.99 276.668 Q2255.99 282.246 2252.51 285.348 Q2249.04 288.427 2242.72 288.427 Q2240.55 288.427 2238.28 288.057 Q2236.03 287.686 2233.63 286.946 L2233.63 282.246 Q2235.71 283.381 2237.93 283.936 Q2240.15 284.492 2242.63 284.492 Q2246.63 284.492 2248.97 282.385 Q2251.31 280.279 2251.31 276.668 Q2251.31 273.057 2248.97 270.95 Q2246.63 268.844 2242.63 268.844 Q2240.76 268.844 2238.88 269.26 Q2237.03 269.677 2235.08 270.557 L2235.08 253.196 Z" fill="#000000" fill-rule="nonzero" fill-opacity="1" /></svg>
