<?xml version="1.0" encoding="utf-8"?>
<svg xmlns="http://www.w3.org/2000/svg" xmlns:xlink="http://www.w3.org/1999/xlink" width="500" height="300" viewBox="0 0 2000 1200">
<defs>
  <clipPath id="clip750">
    <rect x="0" y="0" width="2000" height="1200"/>
  </clipPath>
</defs>
<path clip-path="url(#clip750)" d="M0 1200 L2000 1200 L2000 0 L0 0  Z" fill="#ffffff" fill-rule="evenodd" fill-opacity="1"/>
<defs>
  <clipPath id="clip751">
    <rect x="400" y="0" width="1401" height="1200"/>
  </clipPath>
</defs>
<path clip-path="url(#clip750)" d="M240.79 1035.39 L1952.76 1035.39 L1952.76 117.424 L240.79 117.424  Z" fill="#ffffff" fill-rule="evenodd" fill-opacity="1"/>
<defs>
  <clipPath id="clip752">
    <rect x="240" y="117" width="1713" height="919"/>
  </clipPath>
</defs>
<polyline clip-path="url(#clip752)" style="stroke:#000000; stroke-linecap:round; stroke-linejoin:round; stroke-width:2; stroke-opacity:0.1; fill:none" points="282.756,1035.39 282.756,117.424 "/>
<polyline clip-path="url(#clip752)" style="stroke:#000000; stroke-linecap:round; stroke-linejoin:round; stroke-width:2; stroke-opacity:0.1; fill:none" points="607.065,1035.39 607.065,117.424 "/>
<polyline clip-path="url(#clip752)" style="stroke:#000000; stroke-linecap:round; stroke-linejoin:round; stroke-width:2; stroke-opacity:0.1; fill:none" points="931.375,1035.39 931.375,117.424 "/>
<polyline clip-path="url(#clip752)" style="stroke:#000000; stroke-linecap:round; stroke-linejoin:round; stroke-width:2; stroke-opacity:0.1; fill:none" points="1255.68,1035.39 1255.68,117.424 "/>
<polyline clip-path="url(#clip752)" style="stroke:#000000; stroke-linecap:round; stroke-linejoin:round; stroke-width:2; stroke-opacity:0.1; fill:none" points="1579.99,1035.39 1579.99,117.424 "/>
<polyline clip-path="url(#clip752)" style="stroke:#000000; stroke-linecap:round; stroke-linejoin:round; stroke-width:2; stroke-opacity:0.1; fill:none" points="1904.3,1035.39 1904.3,117.424 "/>
<polyline clip-path="url(#clip752)" style="stroke:#000000; stroke-linecap:round; stroke-linejoin:round; stroke-width:2; stroke-opacity:0.1; fill:none" points="240.79,1009.41 1952.76,1009.41 "/>
<polyline clip-path="url(#clip752)" style="stroke:#000000; stroke-linecap:round; stroke-linejoin:round; stroke-width:2; stroke-opacity:0.1; fill:none" points="240.79,792.907 1952.76,792.907 "/>
<polyline clip-path="url(#clip752)" style="stroke:#000000; stroke-linecap:round; stroke-linejoin:round; stroke-width:2; stroke-opacity:0.1; fill:none" points="240.79,576.406 1952.76,576.406 "/>
<polyline clip-path="url(#clip752)" style="stroke:#000000; stroke-linecap:round; stroke-linejoin:round; stroke-width:2; stroke-opacity:0.1; fill:none" points="240.79,359.905 1952.76,359.905 "/>
<polyline clip-path="url(#clip752)" style="stroke:#000000; stroke-linecap:round; stroke-linejoin:round; stroke-width:2; stroke-opacity:0.1; fill:none" points="240.79,143.404 1952.76,143.404 "/>
<polyline clip-path="url(#clip750)" style="stroke:#000000; stroke-linecap:round; stroke-linejoin:round; stroke-width:4; stroke-opacity:1; fill:none" points="240.79,1035.39 1952.76,1035.39 "/>
<polyline clip-path="url(#clip750)" style="stroke:#000000; stroke-linecap:round; stroke-linejoin:round; stroke-width:4; stroke-opacity:1; fill:none" points="282.756,1035.39 282.756,1016.49 "/>
<polyline clip-path="url(#clip750)" style="stroke:#000000; stroke-linecap:round; stroke-linejoin:round; stroke-width:4; stroke-opacity:1; fill:none" points="607.065,1035.39 607.065,1016.49 "/>
<polyline clip-path="url(#clip750)" style="stroke:#000000; stroke-linecap:round; stroke-linejoin:round; stroke-width:4; stroke-opacity:1; fill:none" points="931.375,1035.39 931.375,1016.49 "/>
<polyline clip-path="url(#clip750)" style="stroke:#000000; stroke-linecap:round; stroke-linejoin:round; stroke-width:4; stroke-opacity:1; fill:none" points="1255.68,1035.39 1255.68,1016.49 "/>
<polyline clip-path="url(#clip750)" style="stroke:#000000; stroke-linecap:round; stroke-linejoin:round; stroke-width:4; stroke-opacity:1; fill:none" points="1579.99,1035.39 1579.99,1016.49 "/>
<polyline clip-path="url(#clip750)" style="stroke:#000000; stroke-linecap:round; stroke-linejoin:round; stroke-width:4; stroke-opacity:1; fill:none" points="1904.3,1035.39 1904.3,1016.49 "/>
<path clip-path="url(#clip750)" d="M282.756 1063.11 Q279.145 1063.11 277.316 1066.67 Q275.51 1070.21 275.51 1077.34 Q275.51 1084.45 277.316 1088.01 Q279.145 1091.56 282.756 1091.56 Q286.39 1091.56 288.195 1088.01 Q290.024 1084.45 290.024 1077.34 Q290.024 1070.21 288.195 1066.67 Q286.39 1063.11 282.756 1063.11 M282.756 1059.4 Q288.566 1059.4 291.621 1064.01 Q294.7 1068.59 294.7 1077.34 Q294.7 1086.07 291.621 1090.68 Q288.566 1095.26 282.756 1095.26 Q276.946 1095.26 273.867 1090.68 Q270.811 1086.07 270.811 1077.34 Q270.811 1068.59 273.867 1064.01 Q276.946 1059.4 282.756 1059.4 Z" fill="#000000" fill-rule="nonzero" fill-opacity="1" /><path clip-path="url(#clip750)" d="M581.765 1060.03 L600.121 1060.03 L600.121 1063.96 L586.047 1063.96 L586.047 1072.44 Q587.065 1072.09 588.084 1071.93 Q589.103 1071.74 590.121 1071.74 Q595.908 1071.74 599.288 1074.91 Q602.667 1078.08 602.667 1083.5 Q602.667 1089.08 599.195 1092.18 Q595.723 1095.26 589.403 1095.26 Q587.228 1095.26 584.959 1094.89 Q582.714 1094.52 580.306 1093.78 L580.306 1089.08 Q582.39 1090.21 584.612 1090.77 Q586.834 1091.32 589.311 1091.32 Q593.315 1091.32 595.653 1089.22 Q597.991 1087.11 597.991 1083.5 Q597.991 1079.89 595.653 1077.78 Q593.315 1075.68 589.311 1075.68 Q587.436 1075.68 585.561 1076.09 Q583.709 1076.51 581.765 1077.39 L581.765 1060.03 Z" fill="#000000" fill-rule="nonzero" fill-opacity="1" /><path clip-path="url(#clip750)" d="M621.88 1063.11 Q618.269 1063.11 616.44 1066.67 Q614.635 1070.21 614.635 1077.34 Q614.635 1084.45 616.44 1088.01 Q618.269 1091.56 621.88 1091.56 Q625.514 1091.56 627.32 1088.01 Q629.149 1084.45 629.149 1077.34 Q629.149 1070.21 627.32 1066.67 Q625.514 1063.11 621.88 1063.11 M621.88 1059.4 Q627.69 1059.4 630.746 1064.01 Q633.824 1068.59 633.824 1077.34 Q633.824 1086.07 630.746 1090.68 Q627.69 1095.26 621.88 1095.26 Q616.07 1095.26 612.991 1090.68 Q609.936 1086.07 609.936 1077.34 Q609.936 1068.59 612.991 1064.01 Q616.07 1059.4 621.88 1059.4 Z" fill="#000000" fill-rule="nonzero" fill-opacity="1" /><path clip-path="url(#clip750)" d="M890.982 1090.65 L898.621 1090.65 L898.621 1064.29 L890.31 1065.95 L890.31 1061.69 L898.574 1060.03 L903.25 1060.03 L903.25 1090.65 L910.889 1090.65 L910.889 1094.59 L890.982 1094.59 L890.982 1090.65 Z" fill="#000000" fill-rule="nonzero" fill-opacity="1" /><path clip-path="url(#clip750)" d="M930.333 1063.11 Q926.722 1063.11 924.894 1066.67 Q923.088 1070.21 923.088 1077.34 Q923.088 1084.45 924.894 1088.01 Q926.722 1091.56 930.333 1091.56 Q933.968 1091.56 935.773 1088.01 Q937.602 1084.45 937.602 1077.34 Q937.602 1070.21 935.773 1066.67 Q933.968 1063.11 930.333 1063.11 M930.333 1059.4 Q936.144 1059.4 939.199 1064.01 Q942.278 1068.59 942.278 1077.34 Q942.278 1086.07 939.199 1090.68 Q936.144 1095.26 930.333 1095.26 Q924.523 1095.26 921.445 1090.68 Q918.389 1086.07 918.389 1077.34 Q918.389 1068.59 921.445 1064.01 Q924.523 1059.4 930.333 1059.4 Z" fill="#000000" fill-rule="nonzero" fill-opacity="1" /><path clip-path="url(#clip750)" d="M960.495 1063.11 Q956.884 1063.11 955.055 1066.67 Q953.25 1070.21 953.25 1077.34 Q953.25 1084.45 955.055 1088.01 Q956.884 1091.56 960.495 1091.56 Q964.129 1091.56 965.935 1088.01 Q967.764 1084.45 967.764 1077.34 Q967.764 1070.21 965.935 1066.67 Q964.129 1063.11 960.495 1063.11 M960.495 1059.4 Q966.305 1059.4 969.361 1064.01 Q972.44 1068.59 972.44 1077.34 Q972.44 1086.07 969.361 1090.68 Q966.305 1095.26 960.495 1095.26 Q954.685 1095.26 951.606 1090.68 Q948.551 1086.07 948.551 1077.34 Q948.551 1068.59 951.606 1064.01 Q954.685 1059.4 960.495 1059.4 Z" fill="#000000" fill-rule="nonzero" fill-opacity="1" /><path clip-path="url(#clip750)" d="M1215.29 1090.65 L1222.93 1090.65 L1222.93 1064.29 L1214.62 1065.95 L1214.62 1061.69 L1222.88 1060.03 L1227.56 1060.03 L1227.56 1090.65 L1235.2 1090.65 L1235.2 1094.59 L1215.29 1094.59 L1215.29 1090.65 Z" fill="#000000" fill-rule="nonzero" fill-opacity="1" /><path clip-path="url(#clip750)" d="M1244.69 1060.03 L1263.05 1060.03 L1263.05 1063.96 L1248.97 1063.96 L1248.97 1072.44 Q1249.99 1072.09 1251.01 1071.93 Q1252.03 1071.74 1253.05 1071.74 Q1258.83 1071.74 1262.21 1074.91 Q1265.59 1078.08 1265.59 1083.5 Q1265.59 1089.08 1262.12 1092.18 Q1258.65 1095.26 1252.33 1095.26 Q1250.15 1095.26 1247.88 1094.89 Q1245.64 1094.52 1243.23 1093.78 L1243.23 1089.08 Q1245.31 1090.21 1247.54 1090.77 Q1249.76 1091.32 1252.24 1091.32 Q1256.24 1091.32 1258.58 1089.22 Q1260.92 1087.11 1260.92 1083.5 Q1260.92 1079.89 1258.58 1077.78 Q1256.24 1075.68 1252.24 1075.68 Q1250.36 1075.68 1248.49 1076.09 Q1246.63 1076.51 1244.69 1077.39 L1244.69 1060.03 Z" fill="#000000" fill-rule="nonzero" fill-opacity="1" /><path clip-path="url(#clip750)" d="M1284.8 1063.11 Q1281.19 1063.11 1279.37 1066.67 Q1277.56 1070.21 1277.56 1077.34 Q1277.56 1084.45 1279.37 1088.01 Q1281.19 1091.56 1284.8 1091.56 Q1288.44 1091.56 1290.24 1088.01 Q1292.07 1084.45 1292.07 1077.34 Q1292.07 1070.21 1290.24 1066.67 Q1288.44 1063.11 1284.8 1063.11 M1284.8 1059.4 Q1290.62 1059.4 1293.67 1064.01 Q1296.75 1068.59 1296.75 1077.34 Q1296.75 1086.07 1293.67 1090.68 Q1290.62 1095.26 1284.8 1095.26 Q1278.99 1095.26 1275.92 1090.68 Q1272.86 1086.07 1272.86 1077.34 Q1272.86 1068.59 1275.92 1064.01 Q1278.99 1059.4 1284.8 1059.4 Z" fill="#000000" fill-rule="nonzero" fill-opacity="1" /><path clip-path="url(#clip750)" d="M1543.69 1090.65 L1560.01 1090.65 L1560.01 1094.59 L1538.06 1094.59 L1538.06 1090.65 Q1540.72 1087.9 1545.31 1083.27 Q1549.91 1078.62 1551.09 1077.27 Q1553.34 1074.75 1554.22 1073.01 Q1555.12 1071.25 1555.12 1069.56 Q1555.12 1066.81 1553.18 1065.07 Q1551.26 1063.34 1548.15 1063.34 Q1545.96 1063.34 1543.5 1064.1 Q1541.07 1064.87 1538.29 1066.42 L1538.29 1061.69 Q1541.12 1060.56 1543.57 1059.98 Q1546.02 1059.4 1548.06 1059.4 Q1553.43 1059.4 1556.63 1062.09 Q1559.82 1064.77 1559.82 1069.26 Q1559.82 1071.39 1559.01 1073.31 Q1558.22 1075.21 1556.12 1077.81 Q1555.54 1078.48 1552.44 1081.69 Q1549.33 1084.89 1543.69 1090.65 Z" fill="#000000" fill-rule="nonzero" fill-opacity="1" /><path clip-path="url(#clip750)" d="M1579.82 1063.11 Q1576.21 1063.11 1574.38 1066.67 Q1572.58 1070.21 1572.58 1077.34 Q1572.58 1084.45 1574.38 1088.01 Q1576.21 1091.56 1579.82 1091.56 Q1583.46 1091.56 1585.26 1088.01 Q1587.09 1084.45 1587.09 1077.34 Q1587.09 1070.21 1585.26 1066.67 Q1583.46 1063.11 1579.82 1063.11 M1579.82 1059.4 Q1585.63 1059.4 1588.69 1064.01 Q1591.77 1068.59 1591.77 1077.34 Q1591.77 1086.07 1588.69 1090.68 Q1585.63 1095.26 1579.82 1095.26 Q1574.01 1095.26 1570.93 1090.68 Q1567.88 1086.07 1567.88 1077.34 Q1567.88 1068.59 1570.93 1064.01 Q1574.01 1059.4 1579.82 1059.4 Z" fill="#000000" fill-rule="nonzero" fill-opacity="1" /><path clip-path="url(#clip750)" d="M1609.98 1063.11 Q1606.37 1063.11 1604.54 1066.67 Q1602.74 1070.21 1602.74 1077.34 Q1602.74 1084.45 1604.54 1088.01 Q1606.37 1091.56 1609.98 1091.56 Q1613.62 1091.56 1615.42 1088.01 Q1617.25 1084.45 1617.25 1077.34 Q1617.25 1070.21 1615.42 1066.67 Q1613.62 1063.11 1609.98 1063.11 M1609.98 1059.4 Q1615.79 1059.4 1618.85 1064.01 Q1621.93 1068.59 1621.93 1077.34 Q1621.93 1086.07 1618.85 1090.68 Q1615.79 1095.26 1609.98 1095.26 Q1604.17 1095.26 1601.09 1090.68 Q1598.04 1086.07 1598.04 1077.34 Q1598.04 1068.59 1601.09 1064.01 Q1604.17 1059.4 1609.98 1059.4 Z" fill="#000000" fill-rule="nonzero" fill-opacity="1" /><path clip-path="url(#clip750)" d="M1868 1090.65 L1884.32 1090.65 L1884.32 1094.59 L1862.37 1094.59 L1862.37 1090.65 Q1865.03 1087.9 1869.62 1083.27 Q1874.22 1078.62 1875.4 1077.27 Q1877.65 1074.75 1878.53 1073.01 Q1879.43 1071.25 1879.43 1069.56 Q1879.43 1066.81 1877.49 1065.07 Q1875.57 1063.34 1872.46 1063.34 Q1870.26 1063.34 1867.81 1064.1 Q1865.38 1064.87 1862.6 1066.42 L1862.6 1061.69 Q1865.43 1060.56 1867.88 1059.98 Q1870.33 1059.4 1872.37 1059.4 Q1877.74 1059.4 1880.94 1062.09 Q1884.13 1064.77 1884.13 1069.26 Q1884.13 1071.39 1883.32 1073.31 Q1882.53 1075.21 1880.43 1077.81 Q1879.85 1078.48 1876.75 1081.69 Q1873.64 1084.89 1868 1090.65 Z" fill="#000000" fill-rule="nonzero" fill-opacity="1" /><path clip-path="url(#clip750)" d="M1894.18 1060.03 L1912.53 1060.03 L1912.53 1063.96 L1898.46 1063.96 L1898.46 1072.44 Q1899.48 1072.09 1900.5 1071.93 Q1901.51 1071.74 1902.53 1071.74 Q1908.32 1071.74 1911.7 1074.91 Q1915.08 1078.08 1915.08 1083.5 Q1915.08 1089.08 1911.61 1092.18 Q1908.14 1095.26 1901.82 1095.26 Q1899.64 1095.26 1897.37 1094.89 Q1895.13 1094.52 1892.72 1093.78 L1892.72 1089.08 Q1894.8 1090.21 1897.02 1090.77 Q1899.25 1091.32 1901.72 1091.32 Q1905.73 1091.32 1908.07 1089.22 Q1910.4 1087.11 1910.4 1083.5 Q1910.4 1079.89 1908.07 1077.78 Q1905.73 1075.68 1901.72 1075.68 Q1899.85 1075.68 1897.97 1076.09 Q1896.12 1076.51 1894.18 1077.39 L1894.18 1060.03 Z" fill="#000000" fill-rule="nonzero" fill-opacity="1" /><path clip-path="url(#clip750)" d="M1934.29 1063.11 Q1930.68 1063.11 1928.85 1066.67 Q1927.05 1070.21 1927.05 1077.34 Q1927.05 1084.45 1928.85 1088.01 Q1930.68 1091.56 1934.29 1091.56 Q1937.93 1091.56 1939.73 1088.01 Q1941.56 1084.45 1941.56 1077.34 Q1941.56 1070.21 1939.73 1066.67 Q1937.93 1063.11 1934.29 1063.11 M1934.29 1059.4 Q1940.1 1059.4 1943.16 1064.01 Q1946.24 1068.59 1946.24 1077.34 Q1946.24 1086.07 1943.16 1090.68 Q1940.1 1095.26 1934.29 1095.26 Q1928.48 1095.26 1925.4 1090.68 Q1922.35 1086.07 1922.35 1077.34 Q1922.35 1068.59 1925.4 1064.01 Q1928.48 1059.4 1934.29 1059.4 Z" fill="#000000" fill-rule="nonzero" fill-opacity="1" /><path clip-path="url(#clip750)" d="M882.408 1126.73 L912.454 1126.73 L912.454 1132.14 L888.837 1132.14 L888.837 1146.21 L911.467 1146.21 L911.467 1151.62 L888.837 1151.62 L888.837 1168.84 L913.027 1168.84 L913.027 1174.25 L882.408 1174.25 L882.408 1126.73 Z" fill="#000000" fill-rule="nonzero" fill-opacity="1" /><path clip-path="url(#clip750)" d="M952.972 1152.74 L952.972 1174.25 L947.115 1174.25 L947.115 1152.93 Q947.115 1147.87 945.142 1145.35 Q943.168 1142.84 939.222 1142.84 Q934.479 1142.84 931.742 1145.86 Q929.005 1148.88 929.005 1154.1 L929.005 1174.25 L923.116 1174.25 L923.116 1138.6 L929.005 1138.6 L929.005 1144.14 Q931.105 1140.93 933.938 1139.34 Q936.803 1137.74 940.527 1137.74 Q946.67 1137.74 949.821 1141.56 Q952.972 1145.35 952.972 1152.74 Z" fill="#000000" fill-rule="nonzero" fill-opacity="1" /><path clip-path="url(#clip750)" d="M995.144 1154.96 L995.144 1157.83 L968.218 1157.83 Q968.599 1163.88 971.846 1167.06 Q975.124 1170.21 980.949 1170.21 Q984.323 1170.21 987.474 1169.38 Q990.657 1168.55 993.776 1166.9 L993.776 1172.44 Q990.625 1173.77 987.315 1174.47 Q984.004 1175.17 980.599 1175.17 Q972.069 1175.17 967.072 1170.21 Q962.106 1165.24 962.106 1156.78 Q962.106 1148.03 966.817 1142.9 Q971.56 1137.74 979.58 1137.74 Q986.774 1137.74 990.943 1142.39 Q995.144 1147.01 995.144 1154.96 M989.288 1153.25 Q989.224 1148.44 986.583 1145.57 Q983.973 1142.71 979.644 1142.71 Q974.742 1142.71 971.782 1145.48 Q968.854 1148.25 968.408 1153.28 L989.288 1153.25 Z" fill="#000000" fill-rule="nonzero" fill-opacity="1" /><path clip-path="url(#clip750)" d="M1025.41 1144.08 Q1024.43 1143.51 1023.25 1143.25 Q1022.1 1142.96 1020.7 1142.96 Q1015.74 1142.96 1013.06 1146.21 Q1010.42 1149.43 1010.42 1155.47 L1010.42 1174.25 L1004.53 1174.25 L1004.53 1138.6 L1010.42 1138.6 L1010.42 1144.14 Q1012.27 1140.9 1015.23 1139.34 Q1018.19 1137.74 1022.42 1137.74 Q1023.03 1137.74 1023.76 1137.84 Q1024.49 1137.9 1025.38 1138.06 L1025.41 1144.08 Z" fill="#000000" fill-rule="nonzero" fill-opacity="1" /><path clip-path="url(#clip750)" d="M1053.87 1156.01 Q1053.87 1149.65 1051.23 1146.15 Q1048.62 1142.65 1043.87 1142.65 Q1039.16 1142.65 1036.52 1146.15 Q1033.91 1149.65 1033.91 1156.01 Q1033.91 1162.35 1036.52 1165.85 Q1039.16 1169.35 1043.87 1169.35 Q1048.62 1169.35 1051.23 1165.85 Q1053.87 1162.35 1053.87 1156.01 M1059.72 1169.83 Q1059.72 1178.93 1055.68 1183.35 Q1051.64 1187.81 1043.3 1187.81 Q1040.21 1187.81 1037.48 1187.33 Q1034.74 1186.89 1032.16 1185.93 L1032.16 1180.24 Q1034.74 1181.64 1037.25 1182.3 Q1039.77 1182.97 1042.38 1182.97 Q1048.14 1182.97 1051 1179.95 Q1053.87 1176.96 1053.87 1170.88 L1053.87 1167.98 Q1052.05 1171.13 1049.22 1172.69 Q1046.39 1174.25 1042.44 1174.25 Q1035.88 1174.25 1031.87 1169.25 Q1027.86 1164.26 1027.86 1156.01 Q1027.86 1147.74 1031.87 1142.74 Q1035.88 1137.74 1042.44 1137.74 Q1046.39 1137.74 1049.22 1139.3 Q1052.05 1140.86 1053.87 1144.01 L1053.87 1138.6 L1059.72 1138.6 L1059.72 1169.83 Z" fill="#000000" fill-rule="nonzero" fill-opacity="1" /><path clip-path="url(#clip750)" d="M1086.62 1177.56 Q1084.14 1183.93 1081.78 1185.87 Q1079.43 1187.81 1075.48 1187.81 L1070.8 1187.81 L1070.8 1182.91 L1074.24 1182.91 Q1076.66 1182.91 1077.99 1181.76 Q1079.33 1180.62 1080.95 1176.35 L1082 1173.68 L1067.59 1138.6 L1073.79 1138.6 L1084.93 1166.49 L1096.07 1138.6 L1102.28 1138.6 L1086.62 1177.56 Z" fill="#000000" fill-rule="nonzero" fill-opacity="1" /><path clip-path="url(#clip750)" d="M1145.15 1124.79 Q1140.89 1132.11 1138.82 1139.27 Q1136.75 1146.43 1136.75 1153.79 Q1136.75 1161.14 1138.82 1168.36 Q1140.92 1175.56 1145.15 1182.85 L1140.06 1182.85 Q1135.29 1175.37 1132.9 1168.14 Q1130.54 1160.92 1130.54 1153.79 Q1130.54 1146.69 1132.9 1139.5 Q1135.25 1132.3 1140.06 1124.79 L1145.15 1124.79 Z" fill="#000000" fill-rule="nonzero" fill-opacity="1" /><path clip-path="url(#clip750)" d="M1156.77 1126.73 L1166.35 1126.73 L1178.48 1159.07 L1190.67 1126.73 L1200.25 1126.73 L1200.25 1174.25 L1193.98 1174.25 L1193.98 1132.52 L1181.72 1165.12 L1175.26 1165.12 L1163.01 1132.52 L1163.01 1174.25 L1156.77 1174.25 L1156.77 1126.73 Z" fill="#000000" fill-rule="nonzero" fill-opacity="1" /><path clip-path="url(#clip750)" d="M1243.25 1154.96 L1243.25 1157.83 L1216.32 1157.83 Q1216.7 1163.88 1219.95 1167.06 Q1223.23 1170.21 1229.05 1170.21 Q1232.43 1170.21 1235.58 1169.38 Q1238.76 1168.55 1241.88 1166.9 L1241.88 1172.44 Q1238.73 1173.77 1235.42 1174.47 Q1232.11 1175.17 1228.7 1175.17 Q1220.17 1175.17 1215.18 1170.21 Q1210.21 1165.24 1210.21 1156.78 Q1210.21 1148.03 1214.92 1142.9 Q1219.66 1137.74 1227.68 1137.74 Q1234.88 1137.74 1239.05 1142.39 Q1243.25 1147.01 1243.25 1154.96 M1237.39 1153.25 Q1237.33 1148.44 1234.69 1145.57 Q1232.08 1142.71 1227.75 1142.71 Q1222.85 1142.71 1219.89 1145.48 Q1216.96 1148.25 1216.51 1153.28 L1237.39 1153.25 Z" fill="#000000" fill-rule="nonzero" fill-opacity="1" /><path clip-path="url(#clip750)" d="M1265.37 1174.25 L1247.23 1126.73 L1253.94 1126.73 L1269 1166.74 L1284.08 1126.73 L1290.77 1126.73 L1272.66 1174.25 L1265.37 1174.25 Z" fill="#000000" fill-rule="nonzero" fill-opacity="1" /><path clip-path="url(#clip750)" d="M1296.53 1124.79 L1301.62 1124.79 Q1306.4 1132.3 1308.75 1139.5 Q1311.14 1146.69 1311.14 1153.79 Q1311.14 1160.92 1308.75 1168.14 Q1306.4 1175.37 1301.62 1182.85 L1296.53 1182.85 Q1300.76 1175.56 1302.83 1168.36 Q1304.93 1161.14 1304.93 1153.79 Q1304.93 1146.43 1302.83 1139.27 Q1300.76 1132.11 1296.53 1124.79 Z" fill="#000000" fill-rule="nonzero" fill-opacity="1" /><polyline clip-path="url(#clip750)" style="stroke:#000000; stroke-linecap:round; stroke-linejoin:round; stroke-width:4; stroke-opacity:1; fill:none" points="240.79,1035.39 240.79,117.424 "/>
<polyline clip-path="url(#clip750)" style="stroke:#000000; stroke-linecap:round; stroke-linejoin:round; stroke-width:4; stroke-opacity:1; fill:none" points="240.79,1009.41 259.688,1009.41 "/>
<polyline clip-path="url(#clip750)" style="stroke:#000000; stroke-linecap:round; stroke-linejoin:round; stroke-width:4; stroke-opacity:1; fill:none" points="240.79,792.907 259.688,792.907 "/>
<polyline clip-path="url(#clip750)" style="stroke:#000000; stroke-linecap:round; stroke-linejoin:round; stroke-width:4; stroke-opacity:1; fill:none" points="240.79,576.406 259.688,576.406 "/>
<polyline clip-path="url(#clip750)" style="stroke:#000000; stroke-linecap:round; stroke-linejoin:round; stroke-width:4; stroke-opacity:1; fill:none" points="240.79,359.905 259.688,359.905 "/>
<polyline clip-path="url(#clip750)" style="stroke:#000000; stroke-linecap:round; stroke-linejoin:round; stroke-width:4; stroke-opacity:1; fill:none" points="240.79,143.404 259.688,143.404 "/>
<path clip-path="url(#clip750)" d="M123.453 995.206 Q119.841 995.206 118.013 998.771 Q116.207 1002.31 116.207 1009.44 Q116.207 1016.55 118.013 1020.11 Q119.841 1023.66 123.453 1023.66 Q127.087 1023.66 128.892 1020.11 Q130.721 1016.55 130.721 1009.44 Q130.721 1002.31 128.892 998.771 Q127.087 995.206 123.453 995.206 M123.453 991.503 Q129.263 991.503 132.318 996.109 Q135.397 1000.69 135.397 1009.44 Q135.397 1018.17 132.318 1022.78 Q129.263 1027.36 123.453 1027.36 Q117.642 1027.36 114.564 1022.78 Q111.508 1018.17 111.508 1009.44 Q111.508 1000.69 114.564 996.109 Q117.642 991.503 123.453 991.503 Z" fill="#000000" fill-rule="nonzero" fill-opacity="1" /><path clip-path="url(#clip750)" d="M143.614 1020.81 L148.499 1020.81 L148.499 1026.69 L143.614 1026.69 L143.614 1020.81 Z" fill="#000000" fill-rule="nonzero" fill-opacity="1" /><path clip-path="url(#clip750)" d="M168.684 995.206 Q165.073 995.206 163.244 998.771 Q161.438 1002.31 161.438 1009.44 Q161.438 1016.55 163.244 1020.11 Q165.073 1023.66 168.684 1023.66 Q172.318 1023.66 174.124 1020.11 Q175.952 1016.55 175.952 1009.44 Q175.952 1002.31 174.124 998.771 Q172.318 995.206 168.684 995.206 M168.684 991.503 Q174.494 991.503 177.549 996.109 Q180.628 1000.69 180.628 1009.44 Q180.628 1018.17 177.549 1022.78 Q174.494 1027.36 168.684 1027.36 Q162.874 1027.36 159.795 1022.78 Q156.739 1018.17 156.739 1009.44 Q156.739 1000.69 159.795 996.109 Q162.874 991.503 168.684 991.503 Z" fill="#000000" fill-rule="nonzero" fill-opacity="1" /><path clip-path="url(#clip750)" d="M198.846 995.206 Q195.235 995.206 193.406 998.771 Q191.6 1002.31 191.6 1009.44 Q191.6 1016.55 193.406 1020.11 Q195.235 1023.66 198.846 1023.66 Q202.48 1023.66 204.285 1020.11 Q206.114 1016.55 206.114 1009.44 Q206.114 1002.31 204.285 998.771 Q202.48 995.206 198.846 995.206 M198.846 991.503 Q204.656 991.503 207.711 996.109 Q210.79 1000.69 210.79 1009.44 Q210.79 1018.17 207.711 1022.78 Q204.656 1027.36 198.846 1027.36 Q193.035 1027.36 189.957 1022.78 Q186.901 1018.17 186.901 1009.44 Q186.901 1000.69 189.957 996.109 Q193.035 991.503 198.846 991.503 Z" fill="#000000" fill-rule="nonzero" fill-opacity="1" /><path clip-path="url(#clip750)" d="M124.448 778.706 Q120.837 778.706 119.008 782.27 Q117.203 785.812 117.203 792.942 Q117.203 800.048 119.008 803.613 Q120.837 807.154 124.448 807.154 Q128.082 807.154 129.888 803.613 Q131.716 800.048 131.716 792.942 Q131.716 785.812 129.888 782.27 Q128.082 778.706 124.448 778.706 M124.448 775.002 Q130.258 775.002 133.314 779.608 Q136.392 784.192 136.392 792.942 Q136.392 801.668 133.314 806.275 Q130.258 810.858 124.448 810.858 Q118.638 810.858 115.559 806.275 Q112.504 801.668 112.504 792.942 Q112.504 784.192 115.559 779.608 Q118.638 775.002 124.448 775.002 Z" fill="#000000" fill-rule="nonzero" fill-opacity="1" /><path clip-path="url(#clip750)" d="M144.61 804.307 L149.494 804.307 L149.494 810.187 L144.61 810.187 L144.61 804.307 Z" fill="#000000" fill-rule="nonzero" fill-opacity="1" /><path clip-path="url(#clip750)" d="M163.707 806.252 L180.026 806.252 L180.026 810.187 L158.082 810.187 L158.082 806.252 Q160.744 803.497 165.327 798.867 Q169.934 794.215 171.114 792.872 Q173.36 790.349 174.239 788.613 Q175.142 786.854 175.142 785.164 Q175.142 782.409 173.198 780.673 Q171.276 778.937 168.175 778.937 Q165.975 778.937 163.522 779.701 Q161.091 780.465 158.313 782.016 L158.313 777.294 Q161.138 776.159 163.591 775.581 Q166.045 775.002 168.082 775.002 Q173.452 775.002 176.647 777.687 Q179.841 780.372 179.841 784.863 Q179.841 786.993 179.031 788.914 Q178.244 790.812 176.137 793.405 Q175.559 794.076 172.457 797.293 Q169.355 800.488 163.707 806.252 Z" fill="#000000" fill-rule="nonzero" fill-opacity="1" /><path clip-path="url(#clip750)" d="M189.887 775.627 L208.244 775.627 L208.244 779.562 L194.17 779.562 L194.17 788.034 Q195.188 787.687 196.207 787.525 Q197.225 787.34 198.244 787.34 Q204.031 787.34 207.41 790.511 Q210.79 793.682 210.79 799.099 Q210.79 804.678 207.318 807.779 Q203.846 810.858 197.526 810.858 Q195.35 810.858 193.082 810.488 Q190.836 810.117 188.429 809.377 L188.429 804.678 Q190.512 805.812 192.735 806.367 Q194.957 806.923 197.434 806.923 Q201.438 806.923 203.776 804.817 Q206.114 802.71 206.114 799.099 Q206.114 795.488 203.776 793.381 Q201.438 791.275 197.434 791.275 Q195.559 791.275 193.684 791.692 Q191.832 792.108 189.887 792.988 L189.887 775.627 Z" fill="#000000" fill-rule="nonzero" fill-opacity="1" /><path clip-path="url(#clip750)" d="M123.453 562.205 Q119.841 562.205 118.013 565.769 Q116.207 569.311 116.207 576.441 Q116.207 583.547 118.013 587.112 Q119.841 590.654 123.453 590.654 Q127.087 590.654 128.892 587.112 Q130.721 583.547 130.721 576.441 Q130.721 569.311 128.892 565.769 Q127.087 562.205 123.453 562.205 M123.453 558.501 Q129.263 558.501 132.318 563.107 Q135.397 567.691 135.397 576.441 Q135.397 585.168 132.318 589.774 Q129.263 594.357 123.453 594.357 Q117.642 594.357 114.564 589.774 Q111.508 585.168 111.508 576.441 Q111.508 567.691 114.564 563.107 Q117.642 558.501 123.453 558.501 Z" fill="#000000" fill-rule="nonzero" fill-opacity="1" /><path clip-path="url(#clip750)" d="M143.614 587.806 L148.499 587.806 L148.499 593.686 L143.614 593.686 L143.614 587.806 Z" fill="#000000" fill-rule="nonzero" fill-opacity="1" /><path clip-path="url(#clip750)" d="M158.73 559.126 L177.087 559.126 L177.087 563.061 L163.013 563.061 L163.013 571.533 Q164.031 571.186 165.05 571.024 Q166.068 570.839 167.087 570.839 Q172.874 570.839 176.253 574.01 Q179.633 577.181 179.633 582.598 Q179.633 588.177 176.161 591.279 Q172.688 594.357 166.369 594.357 Q164.193 594.357 161.925 593.987 Q159.679 593.617 157.272 592.876 L157.272 588.177 Q159.355 589.311 161.577 589.867 Q163.8 590.422 166.276 590.422 Q170.281 590.422 172.619 588.316 Q174.957 586.209 174.957 582.598 Q174.957 578.987 172.619 576.881 Q170.281 574.774 166.276 574.774 Q164.401 574.774 162.526 575.191 Q160.675 575.607 158.73 576.487 L158.73 559.126 Z" fill="#000000" fill-rule="nonzero" fill-opacity="1" /><path clip-path="url(#clip750)" d="M198.846 562.205 Q195.235 562.205 193.406 565.769 Q191.6 569.311 191.6 576.441 Q191.6 583.547 193.406 587.112 Q195.235 590.654 198.846 590.654 Q202.48 590.654 204.285 587.112 Q206.114 583.547 206.114 576.441 Q206.114 569.311 204.285 565.769 Q202.48 562.205 198.846 562.205 M198.846 558.501 Q204.656 558.501 207.711 563.107 Q210.79 567.691 210.79 576.441 Q210.79 585.168 207.711 589.774 Q204.656 594.357 198.846 594.357 Q193.035 594.357 189.957 589.774 Q186.901 585.168 186.901 576.441 Q186.901 567.691 189.957 563.107 Q193.035 558.501 198.846 558.501 Z" fill="#000000" fill-rule="nonzero" fill-opacity="1" /><path clip-path="url(#clip750)" d="M124.448 345.704 Q120.837 345.704 119.008 349.269 Q117.203 352.81 117.203 359.94 Q117.203 367.046 119.008 370.611 Q120.837 374.153 124.448 374.153 Q128.082 374.153 129.888 370.611 Q131.716 367.046 131.716 359.94 Q131.716 352.81 129.888 349.269 Q128.082 345.704 124.448 345.704 M124.448 342 Q130.258 342 133.314 346.607 Q136.392 351.19 136.392 359.94 Q136.392 368.667 133.314 373.273 Q130.258 377.856 124.448 377.856 Q118.638 377.856 115.559 373.273 Q112.504 368.667 112.504 359.94 Q112.504 351.19 115.559 346.607 Q118.638 342 124.448 342 Z" fill="#000000" fill-rule="nonzero" fill-opacity="1" /><path clip-path="url(#clip750)" d="M144.61 371.306 L149.494 371.306 L149.494 377.185 L144.61 377.185 L144.61 371.306 Z" fill="#000000" fill-rule="nonzero" fill-opacity="1" /><path clip-path="url(#clip750)" d="M158.499 342.625 L180.721 342.625 L180.721 344.616 L168.175 377.185 L163.29 377.185 L175.096 346.56 L158.499 346.56 L158.499 342.625 Z" fill="#000000" fill-rule="nonzero" fill-opacity="1" /><path clip-path="url(#clip750)" d="M189.887 342.625 L208.244 342.625 L208.244 346.56 L194.17 346.56 L194.17 355.032 Q195.188 354.685 196.207 354.523 Q197.225 354.338 198.244 354.338 Q204.031 354.338 207.41 357.509 Q210.79 360.681 210.79 366.097 Q210.79 371.676 207.318 374.778 Q203.846 377.856 197.526 377.856 Q195.35 377.856 193.082 377.486 Q190.836 377.116 188.429 376.375 L188.429 371.676 Q190.512 372.81 192.735 373.366 Q194.957 373.921 197.434 373.921 Q201.438 373.921 203.776 371.815 Q206.114 369.708 206.114 366.097 Q206.114 362.486 203.776 360.38 Q201.438 358.273 197.434 358.273 Q195.559 358.273 193.684 358.69 Q191.832 359.107 189.887 359.986 L189.887 342.625 Z" fill="#000000" fill-rule="nonzero" fill-opacity="1" /><path clip-path="url(#clip750)" d="M114.263 156.749 L121.902 156.749 L121.902 130.383 L113.591 132.05 L113.591 127.791 L121.855 126.124 L126.531 126.124 L126.531 156.749 L134.17 156.749 L134.17 160.684 L114.263 160.684 L114.263 156.749 Z" fill="#000000" fill-rule="nonzero" fill-opacity="1" /><path clip-path="url(#clip750)" d="M143.614 154.805 L148.499 154.805 L148.499 160.684 L143.614 160.684 L143.614 154.805 Z" fill="#000000" fill-rule="nonzero" fill-opacity="1" /><path clip-path="url(#clip750)" d="M168.684 129.203 Q165.073 129.203 163.244 132.768 Q161.438 136.309 161.438 143.439 Q161.438 150.545 163.244 154.11 Q165.073 157.652 168.684 157.652 Q172.318 157.652 174.124 154.11 Q175.952 150.545 175.952 143.439 Q175.952 136.309 174.124 132.768 Q172.318 129.203 168.684 129.203 M168.684 125.499 Q174.494 125.499 177.549 130.106 Q180.628 134.689 180.628 143.439 Q180.628 152.166 177.549 156.772 Q174.494 161.356 168.684 161.356 Q162.874 161.356 159.795 156.772 Q156.739 152.166 156.739 143.439 Q156.739 134.689 159.795 130.106 Q162.874 125.499 168.684 125.499 Z" fill="#000000" fill-rule="nonzero" fill-opacity="1" /><path clip-path="url(#clip750)" d="M198.846 129.203 Q195.235 129.203 193.406 132.768 Q191.6 136.309 191.6 143.439 Q191.6 150.545 193.406 154.11 Q195.235 157.652 198.846 157.652 Q202.48 157.652 204.285 154.11 Q206.114 150.545 206.114 143.439 Q206.114 136.309 204.285 132.768 Q202.48 129.203 198.846 129.203 M198.846 125.499 Q204.656 125.499 207.711 130.106 Q210.79 134.689 210.79 143.439 Q210.79 152.166 207.711 156.772 Q204.656 161.356 198.846 161.356 Q193.035 161.356 189.957 156.772 Q186.901 152.166 186.901 143.439 Q186.901 134.689 189.957 130.106 Q193.035 125.499 198.846 125.499 Z" fill="#000000" fill-rule="nonzero" fill-opacity="1" /><path clip-path="url(#clip750)" d="M23.3924 648.434 L30.1719 648.434 Q27.1482 651.68 25.6523 655.373 Q24.1563 659.033 24.1563 663.171 Q24.1563 671.319 29.1534 675.647 Q34.1187 679.976 43.5399 679.976 Q52.9293 679.976 57.9264 675.647 Q62.8916 671.319 62.8916 663.171 Q62.8916 659.033 61.3957 655.373 Q59.8998 651.68 56.8761 648.434 L63.5919 648.434 Q65.8835 651.808 67.0294 655.595 Q68.1752 659.351 68.1752 663.553 Q68.1752 674.342 61.5867 680.549 Q54.9663 686.756 43.5399 686.756 Q32.0816 686.756 25.4931 680.549 Q18.8728 674.342 18.8728 663.553 Q18.8728 659.287 20.0186 655.532 Q21.1326 651.744 23.3924 648.434 Z" fill="#000000" fill-rule="nonzero" fill-opacity="1" /><path clip-path="url(#clip750)" d="M35.7101 624.944 Q35.7101 629.655 39.4022 632.392 Q43.0625 635.13 49.46 635.13 Q55.8575 635.13 59.5497 632.424 Q63.2099 629.687 63.2099 624.944 Q63.2099 620.266 59.5178 617.528 Q55.8257 614.791 49.46 614.791 Q43.1261 614.791 39.434 617.528 Q35.7101 620.266 35.7101 624.944 M30.7448 624.944 Q30.7448 617.306 35.7101 612.945 Q40.6753 608.585 49.46 608.585 Q58.2129 608.585 63.2099 612.945 Q68.1752 617.306 68.1752 624.944 Q68.1752 632.615 63.2099 636.976 Q58.2129 641.304 49.46 641.304 Q40.6753 641.304 35.7101 636.976 Q30.7448 632.615 30.7448 624.944 Z" fill="#000000" fill-rule="nonzero" fill-opacity="1" /><path clip-path="url(#clip750)" d="M53.1839 599.482 L31.6042 599.482 L31.6042 593.625 L52.9611 593.625 Q58.0219 593.625 60.5682 591.652 Q63.0826 589.678 63.0826 585.732 Q63.0826 580.989 60.0589 578.252 Q57.0352 575.483 51.8153 575.483 L31.6042 575.483 L31.6042 569.627 L67.2522 569.627 L67.2522 575.483 L61.7776 575.483 Q65.0242 577.615 66.6156 580.448 Q68.1752 583.249 68.1752 586.973 Q68.1752 593.116 64.3558 596.299 Q60.5363 599.482 53.1839 599.482 M30.7448 584.745 L30.7448 584.745 Z" fill="#000000" fill-rule="nonzero" fill-opacity="1" /><path clip-path="url(#clip750)" d="M45.7361 527.931 L67.2522 527.931 L67.2522 533.788 L45.927 533.788 Q40.8663 533.788 38.3518 535.761 Q35.8374 537.734 35.8374 541.681 Q35.8374 546.424 38.8611 549.161 Q41.8848 551.898 47.1047 551.898 L67.2522 551.898 L67.2522 557.786 L31.6042 557.786 L31.6042 551.898 L37.1424 551.898 Q33.9277 549.797 32.3363 546.965 Q30.7448 544.1 30.7448 540.376 Q30.7448 534.233 34.5643 531.082 Q38.3518 527.931 45.7361 527.931 Z" fill="#000000" fill-rule="nonzero" fill-opacity="1" /><path clip-path="url(#clip750)" d="M21.4827 510.457 L31.6042 510.457 L31.6042 498.394 L36.1557 498.394 L36.1557 510.457 L55.5074 510.457 Q59.8679 510.457 61.1093 509.28 Q62.3506 508.07 62.3506 504.41 L62.3506 498.394 L67.2522 498.394 L67.2522 504.41 Q67.2522 511.189 64.7377 513.767 Q62.1914 516.346 55.5074 516.346 L36.1557 516.346 L36.1557 520.642 L31.6042 520.642 L31.6042 516.346 L21.4827 516.346 L21.4827 510.457 Z" fill="#000000" fill-rule="nonzero" fill-opacity="1" /><path clip-path="url(#clip750)" d="M32.6545 467.966 L38.1927 467.966 Q36.9196 470.449 36.283 473.122 Q35.6464 475.796 35.6464 478.661 Q35.6464 483.021 36.9832 485.217 Q38.32 487.382 40.9936 487.382 Q43.0306 487.382 44.2083 485.822 Q45.3541 484.262 46.4045 479.552 L46.8501 477.547 Q48.1869 471.308 50.6377 468.698 Q53.0566 466.056 57.4171 466.056 Q62.3824 466.056 65.2788 470.003 Q68.1752 473.918 68.1752 480.793 Q68.1752 483.658 67.6023 486.777 Q67.0612 489.864 65.9472 493.302 L59.8998 493.302 Q61.5867 490.055 62.446 486.904 Q63.2736 483.753 63.2736 480.666 Q63.2736 476.528 61.8731 474.3 Q60.4409 472.072 57.8627 472.072 Q55.4756 472.072 54.2025 473.695 Q52.9293 475.287 51.7517 480.729 L51.2742 482.766 Q50.1284 488.209 47.7731 490.628 Q45.386 493.047 41.2482 493.047 Q36.2193 493.047 33.4821 489.482 Q30.7448 485.917 30.7448 479.361 Q30.7448 476.114 31.2223 473.25 Q31.6997 470.385 32.6545 467.966 Z" fill="#000000" fill-rule="nonzero" fill-opacity="1" /><path clip-path="url(#clip750)" d="M401.131 12.096 L413.325 12.096 L428.759 53.2532 L444.274 12.096 L456.467 12.096 L456.467 72.576 L448.487 72.576 L448.487 19.4686 L432.891 60.9499 L424.667 60.9499 L409.071 19.4686 L409.071 72.576 L401.131 72.576 L401.131 12.096 Z" fill="#000000" fill-rule="nonzero" fill-opacity="1" /><path clip-path="url(#clip750)" d="M489.968 32.4315 Q483.972 32.4315 480.489 37.1306 Q477.005 41.7891 477.005 49.9314 Q477.005 58.0738 480.448 62.7728 Q483.932 67.4314 489.968 67.4314 Q495.923 67.4314 499.406 62.7323 Q502.89 58.0333 502.89 49.9314 Q502.89 41.8701 499.406 37.1711 Q495.923 32.4315 489.968 32.4315 M489.968 26.1121 Q499.69 26.1121 505.24 32.4315 Q510.789 38.7509 510.789 49.9314 Q510.789 61.0714 505.24 67.4314 Q499.69 73.7508 489.968 73.7508 Q480.205 73.7508 474.655 67.4314 Q469.146 61.0714 469.146 49.9314 Q469.146 38.7509 474.655 32.4315 Q480.205 26.1121 489.968 26.1121 Z" fill="#000000" fill-rule="nonzero" fill-opacity="1" /><path clip-path="url(#clip750)" d="M560.859 45.1919 L560.859 72.576 L553.405 72.576 L553.405 45.4349 Q553.405 38.994 550.893 35.7938 Q548.382 32.5936 543.359 32.5936 Q537.323 32.5936 533.839 36.4419 Q530.355 40.2903 530.355 46.9338 L530.355 72.576 L522.861 72.576 L522.861 27.2059 L530.355 27.2059 L530.355 34.2544 Q533.029 30.163 536.634 28.1376 Q540.28 26.1121 545.02 26.1121 Q552.838 26.1121 556.848 30.9732 Q560.859 35.7938 560.859 45.1919 Z" fill="#000000" fill-rule="nonzero" fill-opacity="1" /><path clip-path="url(#clip750)" d="M593.306 32.4315 Q587.311 32.4315 583.827 37.1306 Q580.343 41.7891 580.343 49.9314 Q580.343 58.0738 583.787 62.7728 Q587.27 67.4314 593.306 67.4314 Q599.261 67.4314 602.745 62.7323 Q606.229 58.0333 606.229 49.9314 Q606.229 41.8701 602.745 37.1711 Q599.261 32.4315 593.306 32.4315 M593.306 26.1121 Q603.029 26.1121 608.578 32.4315 Q614.128 38.7509 614.128 49.9314 Q614.128 61.0714 608.578 67.4314 Q603.029 73.7508 593.306 73.7508 Q583.544 73.7508 577.994 67.4314 Q572.485 61.0714 572.485 49.9314 Q572.485 38.7509 577.994 32.4315 Q583.544 26.1121 593.306 26.1121 Z" fill="#000000" fill-rule="nonzero" fill-opacity="1" /><path clip-path="url(#clip750)" d="M665.291 48.0275 L665.291 51.6733 L631.02 51.6733 Q631.506 59.3701 635.638 63.421 Q639.811 67.4314 647.224 67.4314 Q651.518 67.4314 655.528 66.3781 Q659.579 65.3249 663.549 63.2184 L663.549 70.267 Q659.539 71.9684 655.326 72.8596 Q651.113 73.7508 646.778 73.7508 Q635.922 73.7508 629.562 67.4314 Q623.243 61.1119 623.243 50.3365 Q623.243 39.1965 629.238 32.6746 Q635.274 26.1121 645.482 26.1121 Q654.637 26.1121 659.944 32.0264 Q665.291 37.9003 665.291 48.0275 M657.837 45.84 Q657.756 39.7232 654.394 36.0774 Q651.072 32.4315 645.563 32.4315 Q639.325 32.4315 635.557 35.9558 Q631.83 39.4801 631.263 45.8805 L657.837 45.84 Z" fill="#000000" fill-rule="nonzero" fill-opacity="1" /><path clip-path="url(#clip750)" d="M715.239 45.1919 L715.239 72.576 L707.785 72.576 L707.785 45.4349 Q707.785 38.994 705.273 35.7938 Q702.762 32.5936 697.739 32.5936 Q691.703 32.5936 688.219 36.4419 Q684.735 40.2903 684.735 46.9338 L684.735 72.576 L677.241 72.576 L677.241 27.2059 L684.735 27.2059 L684.735 34.2544 Q687.409 30.163 691.014 28.1376 Q694.66 26.1121 699.4 26.1121 Q707.218 26.1121 711.228 30.9732 Q715.239 35.7938 715.239 45.1919 Z" fill="#000000" fill-rule="nonzero" fill-opacity="1" /><path clip-path="url(#clip750)" d="M768.913 48.0275 L768.913 51.6733 L734.642 51.6733 Q735.128 59.3701 739.26 63.421 Q743.433 67.4314 750.846 67.4314 Q755.14 67.4314 759.15 66.3781 Q763.201 65.3249 767.171 63.2184 L767.171 70.267 Q763.161 71.9684 758.948 72.8596 Q754.735 73.7508 750.4 73.7508 Q739.544 73.7508 733.184 67.4314 Q726.865 61.1119 726.865 50.3365 Q726.865 39.1965 732.86 32.6746 Q738.896 26.1121 749.104 26.1121 Q758.259 26.1121 763.566 32.0264 Q768.913 37.9003 768.913 48.0275 M761.459 45.84 Q761.378 39.7232 758.016 36.0774 Q754.694 32.4315 749.185 32.4315 Q742.947 32.4315 739.179 35.9558 Q735.453 39.4801 734.885 45.8805 L761.459 45.84 Z" fill="#000000" fill-rule="nonzero" fill-opacity="1" /><path clip-path="url(#clip750)" d="M807.437 34.1734 Q806.181 33.4443 804.683 33.1202 Q803.224 32.7556 801.442 32.7556 Q795.122 32.7556 791.72 36.8875 Q788.357 40.9789 788.357 48.6757 L788.357 72.576 L780.863 72.576 L780.863 27.2059 L788.357 27.2059 L788.357 34.2544 Q790.707 30.1225 794.474 28.1376 Q798.242 26.1121 803.629 26.1121 Q804.399 26.1121 805.331 26.2337 Q806.262 26.3147 807.397 26.5172 L807.437 34.1734 Z" fill="#000000" fill-rule="nonzero" fill-opacity="1" /><path clip-path="url(#clip750)" d="M843.652 49.3643 Q843.652 41.2625 840.29 36.8065 Q836.968 32.3505 830.932 32.3505 Q824.937 32.3505 821.575 36.8065 Q818.253 41.2625 818.253 49.3643 Q818.253 57.4256 821.575 61.8816 Q824.937 66.3376 830.932 66.3376 Q836.968 66.3376 840.29 61.8816 Q843.652 57.4256 843.652 49.3643 M851.106 66.9452 Q851.106 78.5308 845.961 84.1616 Q840.817 89.8329 830.203 89.8329 Q826.274 89.8329 822.79 89.2252 Q819.306 88.6581 816.025 87.4428 L816.025 80.1917 Q819.306 81.9741 822.506 82.8248 Q825.707 83.6755 829.028 83.6755 Q836.361 83.6755 840.006 79.8271 Q843.652 76.0193 843.652 68.282 L843.652 64.5957 Q841.343 68.6061 837.738 70.5911 Q834.133 72.576 829.109 72.576 Q820.765 72.576 815.66 66.2161 Q810.556 59.8562 810.556 49.3643 Q810.556 38.832 815.66 32.472 Q820.765 26.1121 829.109 26.1121 Q834.133 26.1121 837.738 28.0971 Q841.343 30.082 843.652 34.0924 L843.652 27.2059 L851.106 27.2059 L851.106 66.9452 Z" fill="#000000" fill-rule="nonzero" fill-opacity="1" /><path clip-path="url(#clip750)" d="M905.266 48.0275 L905.266 51.6733 L870.996 51.6733 Q871.482 59.3701 875.614 63.421 Q879.786 67.4314 887.199 67.4314 Q891.493 67.4314 895.504 66.3781 Q899.555 65.3249 903.525 63.2184 L903.525 70.267 Q899.514 71.9684 895.301 72.8596 Q891.088 73.7508 886.754 73.7508 Q875.897 73.7508 869.537 67.4314 Q863.218 61.1119 863.218 50.3365 Q863.218 39.1965 869.213 32.6746 Q875.249 26.1121 885.458 26.1121 Q894.613 26.1121 899.919 32.0264 Q905.266 37.9003 905.266 48.0275 M897.813 45.84 Q897.732 39.7232 894.37 36.0774 Q891.048 32.4315 885.539 32.4315 Q879.3 32.4315 875.533 35.9558 Q871.806 39.4801 871.239 45.8805 L897.813 45.84 Z" fill="#000000" fill-rule="nonzero" fill-opacity="1" /><path clip-path="url(#clip750)" d="M924.873 14.324 L924.873 27.2059 L940.226 27.2059 L940.226 32.9987 L924.873 32.9987 L924.873 57.6282 Q924.873 63.1779 926.372 64.7578 Q927.911 66.3376 932.57 66.3376 L940.226 66.3376 L940.226 72.576 L932.57 72.576 Q923.941 72.576 920.66 69.3758 Q917.379 66.1351 917.379 57.6282 L917.379 32.9987 L911.91 32.9987 L911.91 27.2059 L917.379 27.2059 L917.379 14.324 L924.873 14.324 Z" fill="#000000" fill-rule="nonzero" fill-opacity="1" /><path clip-path="url(#clip750)" d="M950.029 27.2059 L957.483 27.2059 L957.483 72.576 L950.029 72.576 L950.029 27.2059 M950.029 9.54393 L957.483 9.54393 L957.483 18.9825 L950.029 18.9825 L950.029 9.54393 Z" fill="#000000" fill-rule="nonzero" fill-opacity="1" /><path clip-path="url(#clip750)" d="M1005.73 28.9478 L1005.73 35.9153 Q1002.57 34.1734 999.369 33.3227 Q996.209 32.4315 992.969 32.4315 Q985.717 32.4315 981.707 37.0496 Q977.697 41.6271 977.697 49.9314 Q977.697 58.2358 981.707 62.8538 Q985.717 67.4314 992.969 67.4314 Q996.209 67.4314 999.369 66.5807 Q1002.57 65.6895 1005.73 63.9476 L1005.73 70.8341 Q1002.61 72.2924 999.247 73.0216 Q995.926 73.7508 992.158 73.7508 Q981.91 73.7508 975.874 67.3098 Q969.838 60.8689 969.838 49.9314 Q969.838 38.832 975.914 32.472 Q982.031 26.1121 992.644 26.1121 Q996.088 26.1121 999.369 26.8413 Q1002.65 27.5299 1005.73 28.9478 Z" fill="#000000" fill-rule="nonzero" fill-opacity="1" /><path clip-path="url(#clip750)" d="M1045.39 12.096 L1056.41 12.096 L1083.22 62.6918 L1083.22 12.096 L1091.16 12.096 L1091.16 72.576 L1080.14 72.576 L1053.33 21.9802 L1053.33 72.576 L1045.39 72.576 L1045.39 12.096 Z" fill="#000000" fill-rule="nonzero" fill-opacity="1" /><path clip-path="url(#clip750)" d="M1145.93 48.0275 L1145.93 51.6733 L1111.66 51.6733 Q1112.15 59.3701 1116.28 63.421 Q1120.45 67.4314 1127.86 67.4314 Q1132.16 67.4314 1136.17 66.3781 Q1140.22 65.3249 1144.19 63.2184 L1144.19 70.267 Q1140.18 71.9684 1135.97 72.8596 Q1131.75 73.7508 1127.42 73.7508 Q1116.56 73.7508 1110.2 67.4314 Q1103.88 61.1119 1103.88 50.3365 Q1103.88 39.1965 1109.88 32.6746 Q1115.91 26.1121 1126.12 26.1121 Q1135.28 26.1121 1140.58 32.0264 Q1145.93 37.9003 1145.93 48.0275 M1138.48 45.84 Q1138.4 39.7232 1135.03 36.0774 Q1131.71 32.4315 1126.2 32.4315 Q1119.96 32.4315 1116.2 35.9558 Q1112.47 39.4801 1111.9 45.8805 L1138.48 45.84 Z" fill="#000000" fill-rule="nonzero" fill-opacity="1" /><path clip-path="url(#clip750)" d="M1157.39 54.671 L1157.39 27.2059 L1164.85 27.2059 L1164.85 54.3874 Q1164.85 60.8284 1167.36 64.0691 Q1169.87 67.2693 1174.89 67.2693 Q1180.93 67.2693 1184.41 63.421 Q1187.94 59.5726 1187.94 52.9291 L1187.94 27.2059 L1195.39 27.2059 L1195.39 72.576 L1187.94 72.576 L1187.94 65.6084 Q1185.22 69.7404 1181.62 71.7658 Q1178.05 73.7508 1173.31 73.7508 Q1165.5 73.7508 1161.45 68.8897 Q1157.39 64.0286 1157.39 54.671 M1176.15 26.1121 L1176.15 26.1121 Z" fill="#000000" fill-rule="nonzero" fill-opacity="1" /><path clip-path="url(#clip750)" d="M1218.12 14.324 L1218.12 27.2059 L1233.47 27.2059 L1233.47 32.9987 L1218.12 32.9987 L1218.12 57.6282 Q1218.12 63.1779 1219.62 64.7578 Q1221.16 66.3376 1225.81 66.3376 L1233.47 66.3376 L1233.47 72.576 L1225.81 72.576 Q1217.19 72.576 1213.9 69.3758 Q1210.62 66.1351 1210.62 57.6282 L1210.62 32.9987 L1205.15 32.9987 L1205.15 27.2059 L1210.62 27.2059 L1210.62 14.324 L1218.12 14.324 Z" fill="#000000" fill-rule="nonzero" fill-opacity="1" /><path clip-path="url(#clip750)" d="M1269.56 34.1734 Q1268.31 33.4443 1266.81 33.1202 Q1265.35 32.7556 1263.57 32.7556 Q1257.25 32.7556 1253.85 36.8875 Q1250.48 40.9789 1250.48 48.6757 L1250.48 72.576 L1242.99 72.576 L1242.99 27.2059 L1250.48 27.2059 L1250.48 34.2544 Q1252.83 30.1225 1256.6 28.1376 Q1260.37 26.1121 1265.76 26.1121 Q1266.53 26.1121 1267.46 26.2337 Q1268.39 26.3147 1269.52 26.5172 L1269.56 34.1734 Z" fill="#000000" fill-rule="nonzero" fill-opacity="1" /><path clip-path="url(#clip750)" d="M1293.14 32.4315 Q1287.15 32.4315 1283.66 37.1306 Q1280.18 41.7891 1280.18 49.9314 Q1280.18 58.0738 1283.62 62.7728 Q1287.1 67.4314 1293.14 67.4314 Q1299.1 67.4314 1302.58 62.7323 Q1306.06 58.0333 1306.06 49.9314 Q1306.06 41.8701 1302.58 37.1711 Q1299.1 32.4315 1293.14 32.4315 M1293.14 26.1121 Q1302.86 26.1121 1308.41 32.4315 Q1313.96 38.7509 1313.96 49.9314 Q1313.96 61.0714 1308.41 67.4314 Q1302.86 73.7508 1293.14 73.7508 Q1283.38 73.7508 1277.83 67.4314 Q1272.32 61.0714 1272.32 49.9314 Q1272.32 38.7509 1277.83 32.4315 Q1283.38 26.1121 1293.14 26.1121 Z" fill="#000000" fill-rule="nonzero" fill-opacity="1" /><path clip-path="url(#clip750)" d="M1364.03 45.1919 L1364.03 72.576 L1356.58 72.576 L1356.58 45.4349 Q1356.58 38.994 1354.07 35.7938 Q1351.55 32.5936 1346.53 32.5936 Q1340.5 32.5936 1337.01 36.4419 Q1333.53 40.2903 1333.53 46.9338 L1333.53 72.576 L1326.03 72.576 L1326.03 27.2059 L1333.53 27.2059 L1333.53 34.2544 Q1336.2 30.163 1339.81 28.1376 Q1343.45 26.1121 1348.19 26.1121 Q1356.01 26.1121 1360.02 30.9732 Q1364.03 35.7938 1364.03 45.1919 Z" fill="#000000" fill-rule="nonzero" fill-opacity="1" /><path clip-path="url(#clip750)" d="M1441.85 14.0809 L1441.85 22.0612 Q1437.19 19.8332 1433.06 18.7395 Q1428.93 17.6457 1425.08 17.6457 Q1418.39 17.6457 1414.75 20.2383 Q1411.14 22.8309 1411.14 27.611 Q1411.14 31.6214 1413.53 33.6873 Q1415.96 35.7128 1422.69 36.9686 L1427.63 37.9813 Q1436.79 39.7232 1441.12 44.1387 Q1445.5 48.5136 1445.5 55.8863 Q1445.5 64.6767 1439.58 69.2137 Q1433.71 73.7508 1422.32 73.7508 Q1418.03 73.7508 1413.17 72.7785 Q1408.35 71.8063 1403.16 69.9024 L1403.16 61.4765 Q1408.15 64.2716 1412.93 65.6895 Q1417.71 67.1073 1422.32 67.1073 Q1429.33 67.1073 1433.14 64.3527 Q1436.95 61.598 1436.95 56.4939 Q1436.95 52.0379 1434.19 49.5264 Q1431.48 47.0148 1425.24 45.759 L1420.26 44.7868 Q1411.1 42.9639 1407.01 39.075 Q1402.92 35.1862 1402.92 28.2591 Q1402.92 20.2383 1408.55 15.6203 Q1414.22 11.0023 1424.15 11.0023 Q1428.4 11.0023 1432.82 11.7719 Q1437.23 12.5416 1441.85 14.0809 Z" fill="#000000" fill-rule="nonzero" fill-opacity="1" /><path clip-path="url(#clip750)" d="M1465.14 65.7705 L1465.14 89.8329 L1457.65 89.8329 L1457.65 27.2059 L1465.14 27.2059 L1465.14 34.0924 Q1467.49 30.0415 1471.06 28.0971 Q1474.66 26.1121 1479.64 26.1121 Q1487.91 26.1121 1493.05 32.6746 Q1498.24 39.2371 1498.24 49.9314 Q1498.24 60.6258 1493.05 67.1883 Q1487.91 73.7508 1479.64 73.7508 Q1474.66 73.7508 1471.06 71.8063 Q1467.49 69.8214 1465.14 65.7705 M1490.5 49.9314 Q1490.5 41.7081 1487.1 37.0496 Q1483.74 32.3505 1477.82 32.3505 Q1471.91 32.3505 1468.5 37.0496 Q1465.14 41.7081 1465.14 49.9314 Q1465.14 58.1548 1468.5 62.8538 Q1471.91 67.5124 1477.82 67.5124 Q1483.74 67.5124 1487.1 62.8538 Q1490.5 58.1548 1490.5 49.9314 Z" fill="#000000" fill-rule="nonzero" fill-opacity="1" /><path clip-path="url(#clip750)" d="M1549.4 48.0275 L1549.4 51.6733 L1515.13 51.6733 Q1515.62 59.3701 1519.75 63.421 Q1523.92 67.4314 1531.33 67.4314 Q1535.63 67.4314 1539.64 66.3781 Q1543.69 65.3249 1547.66 63.2184 L1547.66 70.267 Q1543.65 71.9684 1539.44 72.8596 Q1535.22 73.7508 1530.89 73.7508 Q1520.03 73.7508 1513.67 67.4314 Q1507.35 61.1119 1507.35 50.3365 Q1507.35 39.1965 1513.35 32.6746 Q1519.38 26.1121 1529.59 26.1121 Q1538.75 26.1121 1544.05 32.0264 Q1549.4 37.9003 1549.4 48.0275 M1541.95 45.84 Q1541.87 39.7232 1538.5 36.0774 Q1535.18 32.4315 1529.67 32.4315 Q1523.43 32.4315 1519.67 35.9558 Q1515.94 39.4801 1515.37 45.8805 L1541.95 45.84 Z" fill="#000000" fill-rule="nonzero" fill-opacity="1" /><path clip-path="url(#clip750)" d="M1594.28 28.9478 L1594.28 35.9153 Q1591.13 34.1734 1587.92 33.3227 Q1584.77 32.4315 1581.52 32.4315 Q1574.27 32.4315 1570.26 37.0496 Q1566.25 41.6271 1566.25 49.9314 Q1566.25 58.2358 1570.26 62.8538 Q1574.27 67.4314 1581.52 67.4314 Q1584.77 67.4314 1587.92 66.5807 Q1591.13 65.6895 1594.28 63.9476 L1594.28 70.8341 Q1591.17 72.2924 1587.8 73.0216 Q1584.48 73.7508 1580.71 73.7508 Q1570.47 73.7508 1564.43 67.3098 Q1558.39 60.8689 1558.39 49.9314 Q1558.39 38.832 1564.47 32.472 Q1570.59 26.1121 1581.2 26.1121 Q1584.64 26.1121 1587.92 26.8413 Q1591.21 27.5299 1594.28 28.9478 Z" fill="#000000" fill-rule="nonzero" fill-opacity="1" /><path clip-path="url(#clip750)" d="M1614.62 14.324 L1614.62 27.2059 L1629.97 27.2059 L1629.97 32.9987 L1614.62 32.9987 L1614.62 57.6282 Q1614.62 63.1779 1616.12 64.7578 Q1617.66 66.3376 1622.32 66.3376 L1629.97 66.3376 L1629.97 72.576 L1622.32 72.576 Q1613.69 72.576 1610.41 69.3758 Q1607.13 66.1351 1607.13 57.6282 L1607.13 32.9987 L1601.66 32.9987 L1601.66 27.2059 L1607.13 27.2059 L1607.13 14.324 L1614.62 14.324 Z" fill="#000000" fill-rule="nonzero" fill-opacity="1" /><path clip-path="url(#clip750)" d="M1666.07 34.1734 Q1664.81 33.4443 1663.31 33.1202 Q1661.85 32.7556 1660.07 32.7556 Q1653.75 32.7556 1650.35 36.8875 Q1646.99 40.9789 1646.99 48.6757 L1646.99 72.576 L1639.49 72.576 L1639.49 27.2059 L1646.99 27.2059 L1646.99 34.2544 Q1649.34 30.1225 1653.1 28.1376 Q1656.87 26.1121 1662.26 26.1121 Q1663.03 26.1121 1663.96 26.2337 Q1664.89 26.3147 1666.03 26.5172 L1666.07 34.1734 Z" fill="#000000" fill-rule="nonzero" fill-opacity="1" /><path clip-path="url(#clip750)" d="M1673.12 54.671 L1673.12 27.2059 L1680.57 27.2059 L1680.57 54.3874 Q1680.57 60.8284 1683.08 64.0691 Q1685.59 67.2693 1690.62 67.2693 Q1696.65 67.2693 1700.13 63.421 Q1703.66 59.5726 1703.66 52.9291 L1703.66 27.2059 L1711.11 27.2059 L1711.11 72.576 L1703.66 72.576 L1703.66 65.6084 Q1700.95 69.7404 1697.34 71.7658 Q1693.77 73.7508 1689.04 73.7508 Q1681.22 73.7508 1677.17 68.8897 Q1673.12 64.0286 1673.12 54.671 M1691.87 26.1121 L1691.87 26.1121 Z" fill="#000000" fill-rule="nonzero" fill-opacity="1" /><path clip-path="url(#clip750)" d="M1761.79 35.9153 Q1764.58 30.8922 1768.47 28.5022 Q1772.36 26.1121 1777.63 26.1121 Q1784.72 26.1121 1788.57 31.0947 Q1792.41 36.0368 1792.41 45.1919 L1792.41 72.576 L1784.92 72.576 L1784.92 45.4349 Q1784.92 38.913 1782.61 35.7533 Q1780.3 32.5936 1775.56 32.5936 Q1769.77 32.5936 1766.41 36.4419 Q1763.05 40.2903 1763.05 46.9338 L1763.05 72.576 L1755.55 72.576 L1755.55 45.4349 Q1755.55 38.8725 1753.24 35.7533 Q1750.93 32.5936 1746.11 32.5936 Q1740.4 32.5936 1737.04 36.4824 Q1733.68 40.3308 1733.68 46.9338 L1733.68 72.576 L1726.18 72.576 L1726.18 27.2059 L1733.68 27.2059 L1733.68 34.2544 Q1736.23 30.082 1739.79 28.0971 Q1743.36 26.1121 1748.26 26.1121 Q1753.2 26.1121 1756.65 28.6237 Q1760.13 31.1352 1761.79 35.9153 Z" fill="#000000" fill-rule="nonzero" fill-opacity="1" /><polyline clip-path="url(#clip752)" style="stroke:#000000; stroke-linecap:round; stroke-linejoin:round; stroke-width:4; stroke-opacity:1; fill:none" points="289.242,1009.41 289.242,1009.41 295.728,1009.41 302.214,1009.41 308.7,1009.41 315.187,1009.41 321.673,1009.41 328.159,1009.41 334.645,1009.41 341.131,1009.41 347.618,1009.41 354.104,1009.41 360.59,1009.41 367.076,1009.41 373.562,1009.41 380.049,1009.41 386.535,1009.41 393.021,1009.41 399.507,1009.41 405.993,1009.41 412.48,1009.41 418.966,1009.41 425.452,1009.41 431.938,1009.41 438.424,1009.41 444.911,1009.41 451.397,1009.41 457.883,1009.41 464.369,1009.41 470.855,1009.41 477.342,1009.41 483.828,1009.41 490.314,1009.41 496.8,1009.41 503.286,1009.41 509.772,1009.41 516.259,1009.41 522.745,1009.41 529.231,1009.41 535.717,1009.41 542.203,1009.41 548.69,1009.41 555.176,1009.41 561.662,1009.41 568.148,1009.41 574.634,1009.41 581.121,1009.41 587.607,1009.41 594.093,1009.41 600.579,1009.41 607.065,1009.41 613.552,1009.41 620.038,1009.41 626.524,1009.41 633.01,1009.41 639.496,1009.41 645.983,1009.41 652.469,1009.41 658.955,1009.41 665.441,1009.41 671.927,1009.41 678.413,1009.41 684.9,1009.41 691.386,1009.41 697.872,1009.41 704.358,1009.41 710.844,1009.41 717.331,1009.41 723.817,1009.41 730.303,1009.41 736.789,1009.41 743.275,1009.41 749.762,1009.41 756.248,1009.41 762.734,1009.41 769.22,1009.41 775.706,1009.41 782.193,1009.41 788.679,1009.41 795.165,1009.41 801.651,1009.41 808.137,1009.41 814.624,1009.41 821.11,1009.41 827.596,1009.41 834.082,1009.41 840.568,1009.41 847.055,1009.41 853.541,1009.41 860.027,1009.41 866.513,1009.41 872.999,1009.41 879.485,1009.41 885.972,1009.41 892.458,1009.41 898.944,1009.41 905.43,1009.41 911.916,1009.41 918.403,1009.41 924.889,1009.41 931.375,1009.41 937.861,1009.41 944.347,1009.41 950.834,1009.41 957.32,1009.41 963.806,1009.41 970.292,1009.41 976.778,1009.41 983.265,1009.41 989.751,1009.41 996.237,1009.41 1002.72,1009.41 1009.21,1009.41 1015.7,1009.41 1022.18,1009.41 1028.67,1009.41 1035.15,1009.41 1041.64,1009.41 1048.13,1009.41 1054.61,1009.41 1061.1,1009.41 1067.59,1009.41 1074.07,1009.41 1080.56,1009.41 1087.04,1009.41 1093.53,1009.41 1100.02,1009.41 1106.5,1009.41 1112.99,1009.41 1119.47,1009.41 1125.96,1009.41 1132.45,1009.41 1138.93,1009.41 1145.42,1009.41 1151.91,1009.41 1158.39,1009.41 1164.88,1009.41 1171.36,1009.41 1177.85,1009.41 1184.34,1009.41 1190.82,1009.41 1197.31,1009.41 1203.8,1009.41 1210.28,1009.41 1216.77,1009.41 1223.25,1009.41 1229.74,1009.41 1236.23,1009.41 1242.71,1009.41 1249.2,1009.41 1255.68,1009.41 1262.17,1009.41 1268.66,1009.41 1275.14,1009.41 1281.63,1009.41 1288.12,1009.41 1294.6,1009.41 1301.09,1009.41 1307.57,1009.41 1314.06,1009.41 1320.55,1009.41 1327.03,1009.41 1333.52,1009.41 1340.01,1009.41 1346.49,1009.41 1352.98,1009.41 1359.46,1009.41 1365.95,1009.41 1372.44,1009.41 1378.92,1009.41 1385.41,1009.41 1391.89,1009.41 1398.38,1009.41 1404.87,1009.41 1411.35,1009.41 1417.84,1009.41 1424.33,1009.41 1430.81,1009.41 1437.3,1009.41 1443.78,1009.41 1450.27,1009.41 1456.76,1009.41 1463.24,1009.41 1469.73,1009.41 1476.22,1009.41 1482.7,1009.41 1489.19,1009.41 1495.67,1009.41 1502.16,1009.41 1508.65,1009.41 1515.13,1009.41 1521.62,1009.41 1528.1,1009.41 1534.59,1009.41 1541.08,1009.41 1547.56,1009.41 1554.05,1009.41 1560.54,1009.41 1567.02,1009.41 1573.51,1009.41 1579.99,1009.41 1586.48,1009.41 1592.97,1009.41 1599.45,1009.41 1605.94,1009.41 1612.43,1009.41 1618.91,1009.41 1625.4,1009.41 1631.88,1009.41 1638.37,1009.41 1644.86,1009.41 1651.34,1009.41 1657.83,1009.41 1664.31,1009.41 1670.8,1009.41 1677.29,1009.41 1683.77,1009.41 1690.26,1009.41 1696.75,1009.41 1703.23,1009.41 1709.72,1009.41 1716.2,1009.41 1722.69,1009.41 1729.18,1009.41 1735.66,1009.41 1742.15,1009.41 1748.64,1009.41 1755.12,1009.41 1761.61,1009.41 1768.09,1009.41 1774.58,1009.41 1781.07,1009.41 1787.55,1009.41 1794.04,1009.41 1800.52,1009.41 1807.01,1009.41 1813.5,1009.41 1819.98,1009.41 1826.47,1009.41 1832.96,1009.41 1839.44,1009.41 1845.93,1009.41 1852.41,1009.41 1858.9,1009.41 1865.39,1009.41 1871.87,1009.41 1878.36,1009.41 1884.85,1009.41 1891.33,1009.41 1897.82,1009.41 1904.3,1009.41 "/>
<path clip-path="url(#clip750)" d="M1620.26 251.703 L1895.69 251.703 L1895.69 148.023 L1620.26 148.023  Z" fill="#ffffff" fill-rule="evenodd" fill-opacity="1"/>
<polyline clip-path="url(#clip750)" style="stroke:#000000; stroke-linecap:round; stroke-linejoin:round; stroke-width:4; stroke-opacity:1; fill:none" points="1620.26,251.703 1895.69,251.703 1895.69,148.023 1620.26,148.023 1620.26,251.703 "/>
<polyline clip-path="url(#clip750)" style="stroke:#000000; stroke-linecap:round; stroke-linejoin:round; stroke-width:4; stroke-opacity:1; fill:none" points="1639.28,199.863 1753.41,199.863 "/>
<path clip-path="url(#clip750)" d="M1777.11 186.425 L1777.11 213.3 L1782.76 213.3 Q1789.91 213.3 1793.22 210.06 Q1796.55 206.819 1796.55 199.828 Q1796.55 192.884 1793.22 189.666 Q1789.91 186.425 1782.76 186.425 L1777.11 186.425 M1772.43 182.583 L1782.04 182.583 Q1792.09 182.583 1796.78 186.773 Q1801.48 190.939 1801.48 199.828 Q1801.48 208.763 1796.76 212.953 Q1792.04 217.143 1782.04 217.143 L1772.43 217.143 L1772.43 182.583 Z" fill="#000000" fill-rule="nonzero" fill-opacity="1" /><path clip-path="url(#clip750)" d="M1820.53 204.111 Q1815.37 204.111 1813.38 205.291 Q1811.39 206.472 1811.39 209.319 Q1811.39 211.587 1812.87 212.93 Q1814.38 214.249 1816.95 214.249 Q1820.49 214.249 1822.62 211.749 Q1824.77 209.226 1824.77 205.06 L1824.77 204.111 L1820.53 204.111 M1829.03 202.351 L1829.03 217.143 L1824.77 217.143 L1824.77 213.208 Q1823.31 215.569 1821.14 216.703 Q1818.96 217.814 1815.81 217.814 Q1811.83 217.814 1809.47 215.592 Q1807.13 213.347 1807.13 209.597 Q1807.13 205.222 1810.05 202.999 Q1812.99 200.777 1818.8 200.777 L1824.77 200.777 L1824.77 200.361 Q1824.77 197.421 1822.83 195.824 Q1820.9 194.203 1817.41 194.203 Q1815.19 194.203 1813.08 194.736 Q1810.97 195.268 1809.03 196.333 L1809.03 192.398 Q1811.37 191.495 1813.57 191.055 Q1815.77 190.592 1817.85 190.592 Q1823.47 190.592 1826.25 193.509 Q1829.03 196.425 1829.03 202.351 Z" fill="#000000" fill-rule="nonzero" fill-opacity="1" /><path clip-path="url(#clip750)" d="M1842.02 183.856 L1842.02 191.217 L1850.79 191.217 L1850.79 194.527 L1842.02 194.527 L1842.02 208.601 Q1842.02 211.773 1842.87 212.675 Q1843.75 213.578 1846.41 213.578 L1850.79 213.578 L1850.79 217.143 L1846.41 217.143 Q1841.48 217.143 1839.61 215.314 Q1837.73 213.462 1837.73 208.601 L1837.73 194.527 L1834.61 194.527 L1834.61 191.217 L1837.73 191.217 L1837.73 183.856 L1842.02 183.856 Z" fill="#000000" fill-rule="nonzero" fill-opacity="1" /><path clip-path="url(#clip750)" d="M1868.17 204.111 Q1863.01 204.111 1861.02 205.291 Q1859.03 206.472 1859.03 209.319 Q1859.03 211.587 1860.51 212.93 Q1862.02 214.249 1864.59 214.249 Q1868.13 214.249 1870.26 211.749 Q1872.41 209.226 1872.41 205.06 L1872.41 204.111 L1868.17 204.111 M1876.67 202.351 L1876.67 217.143 L1872.41 217.143 L1872.41 213.208 Q1870.95 215.569 1868.78 216.703 Q1866.6 217.814 1863.45 217.814 Q1859.47 217.814 1857.11 215.592 Q1854.77 213.347 1854.77 209.597 Q1854.77 205.222 1857.69 202.999 Q1860.63 200.777 1866.44 200.777 L1872.41 200.777 L1872.41 200.361 Q1872.41 197.421 1870.46 195.824 Q1868.54 194.203 1865.05 194.203 Q1862.83 194.203 1860.72 194.736 Q1858.61 195.268 1856.67 196.333 L1856.67 192.398 Q1859.01 191.495 1861.21 191.055 Q1863.4 190.592 1865.49 190.592 Q1871.11 190.592 1873.89 193.509 Q1876.67 196.425 1876.67 202.351 Z" fill="#000000" fill-rule="nonzero" fill-opacity="1" /></svg>
