<?xml version="1.0" encoding="utf-8"?>
<svg xmlns="http://www.w3.org/2000/svg" xmlns:xlink="http://www.w3.org/1999/xlink" width="600" height="400" viewBox="0 0 2400 1600">
<defs>
  <clipPath id="clip190">
    <rect x="0" y="0" width="2400" height="1600"/>
  </clipPath>
</defs>
<path clip-path="url(#clip190)" d="M0 1600 L2400 1600 L2400 0 L0 0  Z" fill="#ffffff" fill-rule="evenodd" fill-opacity="1"/>
<defs>
  <clipPath id="clip191">
    <rect x="480" y="0" width="1681" height="1600"/>
  </clipPath>
</defs>
<path clip-path="url(#clip190)" d="M369.569 1423.18 L2352.76 1423.18 L2352.76 123.472 L369.569 123.472  Z" fill="#ffffff" fill-rule="evenodd" fill-opacity="1"/>
<defs>
  <clipPath id="clip192">
    <rect x="369" y="123" width="1984" height="1301"/>
  </clipPath>
</defs>
<polyline clip-path="url(#clip192)" style="stroke:#000000; stroke-linecap:round; stroke-linejoin:round; stroke-width:2; stroke-opacity:0.1; fill:none" points="667.107,1423.18 667.107,123.472 "/>
<polyline clip-path="url(#clip192)" style="stroke:#000000; stroke-linecap:round; stroke-linejoin:round; stroke-width:2; stroke-opacity:0.1; fill:none" points="968.87,1423.18 968.87,123.472 "/>
<polyline clip-path="url(#clip192)" style="stroke:#000000; stroke-linecap:round; stroke-linejoin:round; stroke-width:2; stroke-opacity:0.1; fill:none" points="1270.63,1423.18 1270.63,123.472 "/>
<polyline clip-path="url(#clip192)" style="stroke:#000000; stroke-linecap:round; stroke-linejoin:round; stroke-width:2; stroke-opacity:0.1; fill:none" points="1572.4,1423.18 1572.4,123.472 "/>
<polyline clip-path="url(#clip192)" style="stroke:#000000; stroke-linecap:round; stroke-linejoin:round; stroke-width:2; stroke-opacity:0.1; fill:none" points="1874.16,1423.18 1874.16,123.472 "/>
<polyline clip-path="url(#clip192)" style="stroke:#000000; stroke-linecap:round; stroke-linejoin:round; stroke-width:2; stroke-opacity:0.1; fill:none" points="2175.92,1423.18 2175.92,123.472 "/>
<polyline clip-path="url(#clip192)" style="stroke:#000000; stroke-linecap:round; stroke-linejoin:round; stroke-width:2; stroke-opacity:0.1; fill:none" points="369.569,1387.9 2352.76,1387.9 "/>
<polyline clip-path="url(#clip192)" style="stroke:#000000; stroke-linecap:round; stroke-linejoin:round; stroke-width:2; stroke-opacity:0.1; fill:none" points="369.569,1031.89 2352.76,1031.89 "/>
<polyline clip-path="url(#clip192)" style="stroke:#000000; stroke-linecap:round; stroke-linejoin:round; stroke-width:2; stroke-opacity:0.1; fill:none" points="369.569,675.889 2352.76,675.889 "/>
<polyline clip-path="url(#clip192)" style="stroke:#000000; stroke-linecap:round; stroke-linejoin:round; stroke-width:2; stroke-opacity:0.1; fill:none" points="369.569,319.884 2352.76,319.884 "/>
<polyline clip-path="url(#clip190)" style="stroke:#000000; stroke-linecap:round; stroke-linejoin:round; stroke-width:4; stroke-opacity:1; fill:none" points="369.569,1423.18 2352.76,1423.18 "/>
<polyline clip-path="url(#clip190)" style="stroke:#000000; stroke-linecap:round; stroke-linejoin:round; stroke-width:4; stroke-opacity:1; fill:none" points="667.107,1423.18 667.107,1404.28 "/>
<polyline clip-path="url(#clip190)" style="stroke:#000000; stroke-linecap:round; stroke-linejoin:round; stroke-width:4; stroke-opacity:1; fill:none" points="968.87,1423.18 968.87,1404.28 "/>
<polyline clip-path="url(#clip190)" style="stroke:#000000; stroke-linecap:round; stroke-linejoin:round; stroke-width:4; stroke-opacity:1; fill:none" points="1270.63,1423.18 1270.63,1404.28 "/>
<polyline clip-path="url(#clip190)" style="stroke:#000000; stroke-linecap:round; stroke-linejoin:round; stroke-width:4; stroke-opacity:1; fill:none" points="1572.4,1423.18 1572.4,1404.28 "/>
<polyline clip-path="url(#clip190)" style="stroke:#000000; stroke-linecap:round; stroke-linejoin:round; stroke-width:4; stroke-opacity:1; fill:none" points="1874.16,1423.18 1874.16,1404.28 "/>
<polyline clip-path="url(#clip190)" style="stroke:#000000; stroke-linecap:round; stroke-linejoin:round; stroke-width:4; stroke-opacity:1; fill:none" points="2175.92,1423.18 2175.92,1404.28 "/>
<path clip-path="url(#clip190)" d="M657.385 1451.02 L675.741 1451.02 L675.741 1454.96 L661.667 1454.96 L661.667 1463.43 Q662.686 1463.08 663.705 1462.92 Q664.723 1462.73 665.742 1462.73 Q671.529 1462.73 674.908 1465.9 Q678.288 1469.08 678.288 1474.49 Q678.288 1480.07 674.816 1483.17 Q671.343 1486.25 665.024 1486.25 Q662.848 1486.25 660.58 1485.88 Q658.334 1485.51 655.927 1484.77 L655.927 1480.07 Q658.01 1481.2 660.232 1481.76 Q662.455 1482.32 664.931 1482.32 Q668.936 1482.32 671.274 1480.21 Q673.612 1478.1 673.612 1474.49 Q673.612 1470.88 671.274 1468.77 Q668.936 1466.67 664.931 1466.67 Q663.056 1466.67 661.181 1467.08 Q659.33 1467.5 657.385 1468.38 L657.385 1451.02 Z" fill="#000000" fill-rule="nonzero" fill-opacity="1" /><path clip-path="url(#clip190)" d="M943.558 1481.64 L951.197 1481.64 L951.197 1455.28 L942.887 1456.95 L942.887 1452.69 L951.151 1451.02 L955.826 1451.02 L955.826 1481.64 L963.465 1481.64 L963.465 1485.58 L943.558 1485.58 L943.558 1481.64 Z" fill="#000000" fill-rule="nonzero" fill-opacity="1" /><path clip-path="url(#clip190)" d="M982.91 1454.1 Q979.299 1454.1 977.47 1457.66 Q975.664 1461.2 975.664 1468.33 Q975.664 1475.44 977.47 1479.01 Q979.299 1482.55 982.91 1482.55 Q986.544 1482.55 988.349 1479.01 Q990.178 1475.44 990.178 1468.33 Q990.178 1461.2 988.349 1457.66 Q986.544 1454.1 982.91 1454.1 M982.91 1450.39 Q988.72 1450.39 991.775 1455 Q994.854 1459.58 994.854 1468.33 Q994.854 1477.06 991.775 1481.67 Q988.72 1486.25 982.91 1486.25 Q977.099 1486.25 974.021 1481.67 Q970.965 1477.06 970.965 1468.33 Q970.965 1459.58 974.021 1455 Q977.099 1450.39 982.91 1450.39 Z" fill="#000000" fill-rule="nonzero" fill-opacity="1" /><path clip-path="url(#clip190)" d="M1245.82 1481.64 L1253.46 1481.64 L1253.46 1455.28 L1245.15 1456.95 L1245.15 1452.69 L1253.41 1451.02 L1258.09 1451.02 L1258.09 1481.64 L1265.73 1481.64 L1265.73 1485.58 L1245.82 1485.58 L1245.82 1481.64 Z" fill="#000000" fill-rule="nonzero" fill-opacity="1" /><path clip-path="url(#clip190)" d="M1275.22 1451.02 L1293.57 1451.02 L1293.57 1454.96 L1279.5 1454.96 L1279.5 1463.43 Q1280.52 1463.08 1281.54 1462.92 Q1282.55 1462.73 1283.57 1462.73 Q1289.36 1462.73 1292.74 1465.9 Q1296.12 1469.08 1296.12 1474.49 Q1296.12 1480.07 1292.65 1483.17 Q1289.18 1486.25 1282.86 1486.25 Q1280.68 1486.25 1278.41 1485.88 Q1276.17 1485.51 1273.76 1484.77 L1273.76 1480.07 Q1275.84 1481.2 1278.06 1481.76 Q1280.29 1482.32 1282.76 1482.32 Q1286.77 1482.32 1289.11 1480.21 Q1291.44 1478.1 1291.44 1474.49 Q1291.44 1470.88 1289.11 1468.77 Q1286.77 1466.67 1282.76 1466.67 Q1280.89 1466.67 1279.01 1467.08 Q1277.16 1467.5 1275.22 1468.38 L1275.22 1451.02 Z" fill="#000000" fill-rule="nonzero" fill-opacity="1" /><path clip-path="url(#clip190)" d="M1551.17 1481.64 L1567.49 1481.64 L1567.49 1485.58 L1545.54 1485.58 L1545.54 1481.64 Q1548.21 1478.89 1552.79 1474.26 Q1557.4 1469.61 1558.58 1468.27 Q1560.82 1465.74 1561.7 1464.01 Q1562.6 1462.25 1562.6 1460.56 Q1562.6 1457.8 1560.66 1456.07 Q1558.74 1454.33 1555.64 1454.33 Q1553.44 1454.33 1550.98 1455.09 Q1548.55 1455.86 1545.78 1457.41 L1545.78 1452.69 Q1548.6 1451.55 1551.05 1450.97 Q1553.51 1450.39 1555.54 1450.39 Q1560.92 1450.39 1564.11 1453.08 Q1567.3 1455.77 1567.3 1460.26 Q1567.3 1462.39 1566.49 1464.31 Q1565.71 1466.2 1563.6 1468.8 Q1563.02 1469.47 1559.92 1472.69 Q1556.82 1475.88 1551.17 1481.64 Z" fill="#000000" fill-rule="nonzero" fill-opacity="1" /><path clip-path="url(#clip190)" d="M1587.3 1454.1 Q1583.69 1454.1 1581.86 1457.66 Q1580.06 1461.2 1580.06 1468.33 Q1580.06 1475.44 1581.86 1479.01 Q1583.69 1482.55 1587.3 1482.55 Q1590.94 1482.55 1592.74 1479.01 Q1594.57 1475.44 1594.57 1468.33 Q1594.57 1461.2 1592.74 1457.66 Q1590.94 1454.1 1587.3 1454.1 M1587.3 1450.39 Q1593.11 1450.39 1596.17 1455 Q1599.25 1459.58 1599.25 1468.33 Q1599.25 1477.06 1596.17 1481.67 Q1593.11 1486.25 1587.3 1486.25 Q1581.49 1486.25 1578.42 1481.67 Q1575.36 1477.06 1575.36 1468.33 Q1575.36 1459.58 1578.42 1455 Q1581.49 1450.39 1587.3 1450.39 Z" fill="#000000" fill-rule="nonzero" fill-opacity="1" /><path clip-path="url(#clip190)" d="M1853.43 1481.64 L1869.75 1481.64 L1869.75 1485.58 L1847.81 1485.58 L1847.81 1481.64 Q1850.47 1478.89 1855.05 1474.26 Q1859.66 1469.61 1860.84 1468.27 Q1863.08 1465.74 1863.96 1464.01 Q1864.87 1462.25 1864.87 1460.56 Q1864.87 1457.8 1862.92 1456.07 Q1861 1454.33 1857.9 1454.33 Q1855.7 1454.33 1853.25 1455.09 Q1850.81 1455.86 1848.04 1457.41 L1848.04 1452.69 Q1850.86 1451.55 1853.31 1450.97 Q1855.77 1450.39 1857.81 1450.39 Q1863.18 1450.39 1866.37 1453.08 Q1869.56 1455.77 1869.56 1460.26 Q1869.56 1462.39 1868.75 1464.31 Q1867.97 1466.2 1865.86 1468.8 Q1865.28 1469.47 1862.18 1472.69 Q1859.08 1475.88 1853.43 1481.64 Z" fill="#000000" fill-rule="nonzero" fill-opacity="1" /><path clip-path="url(#clip190)" d="M1879.61 1451.02 L1897.97 1451.02 L1897.97 1454.96 L1883.89 1454.96 L1883.89 1463.43 Q1884.91 1463.08 1885.93 1462.92 Q1886.95 1462.73 1887.97 1462.73 Q1893.75 1462.73 1897.13 1465.9 Q1900.51 1469.08 1900.51 1474.49 Q1900.51 1480.07 1897.04 1483.17 Q1893.57 1486.25 1887.25 1486.25 Q1885.07 1486.25 1882.81 1485.88 Q1880.56 1485.51 1878.15 1484.77 L1878.15 1480.07 Q1880.24 1481.2 1882.46 1481.76 Q1884.68 1482.32 1887.16 1482.32 Q1891.16 1482.32 1893.5 1480.21 Q1895.84 1478.1 1895.84 1474.49 Q1895.84 1470.88 1893.5 1468.77 Q1891.16 1466.67 1887.16 1466.67 Q1885.28 1466.67 1883.41 1467.08 Q1881.56 1467.5 1879.61 1468.38 L1879.61 1451.02 Z" fill="#000000" fill-rule="nonzero" fill-opacity="1" /><path clip-path="url(#clip190)" d="M2164.77 1466.95 Q2168.12 1467.66 2170 1469.93 Q2171.89 1472.2 2171.89 1475.53 Q2171.89 1480.65 2168.38 1483.45 Q2164.86 1486.25 2158.38 1486.25 Q2156.2 1486.25 2153.89 1485.81 Q2151.59 1485.39 2149.14 1484.54 L2149.14 1480.02 Q2151.08 1481.16 2153.4 1481.74 Q2155.71 1482.32 2158.24 1482.32 Q2162.64 1482.32 2164.93 1480.58 Q2167.24 1478.84 2167.24 1475.53 Q2167.24 1472.48 2165.09 1470.77 Q2162.96 1469.03 2159.14 1469.03 L2155.11 1469.03 L2155.11 1465.19 L2159.33 1465.19 Q2162.77 1465.19 2164.6 1463.82 Q2166.43 1462.43 2166.43 1459.84 Q2166.43 1457.18 2164.53 1455.77 Q2162.66 1454.33 2159.14 1454.33 Q2157.22 1454.33 2155.02 1454.75 Q2152.82 1455.16 2150.18 1456.04 L2150.18 1451.88 Q2152.84 1451.14 2155.16 1450.77 Q2157.5 1450.39 2159.56 1450.39 Q2164.88 1450.39 2167.98 1452.83 Q2171.08 1455.23 2171.08 1459.35 Q2171.08 1462.22 2169.44 1464.21 Q2167.8 1466.18 2164.77 1466.95 Z" fill="#000000" fill-rule="nonzero" fill-opacity="1" /><path clip-path="url(#clip190)" d="M2190.76 1454.1 Q2187.15 1454.1 2185.32 1457.66 Q2183.52 1461.2 2183.52 1468.33 Q2183.52 1475.44 2185.32 1479.01 Q2187.15 1482.55 2190.76 1482.55 Q2194.39 1482.55 2196.2 1479.01 Q2198.03 1475.44 2198.03 1468.33 Q2198.03 1461.2 2196.2 1457.66 Q2194.39 1454.1 2190.76 1454.1 M2190.76 1450.39 Q2196.57 1450.39 2199.63 1455 Q2202.7 1459.58 2202.7 1468.33 Q2202.7 1477.06 2199.63 1481.67 Q2196.57 1486.25 2190.76 1486.25 Q2184.95 1486.25 2181.87 1481.67 Q2178.82 1477.06 2178.82 1468.33 Q2178.82 1459.58 2181.87 1455 Q2184.95 1450.39 2190.76 1450.39 Z" fill="#000000" fill-rule="nonzero" fill-opacity="1" /><path clip-path="url(#clip190)" d="M1130.68 1522.08 L1130.68 1528.35 Q1127.02 1526.6 1123.77 1525.74 Q1120.52 1524.88 1117.5 1524.88 Q1112.25 1524.88 1109.38 1526.92 Q1106.55 1528.96 1106.55 1532.71 Q1106.55 1535.87 1108.43 1537.49 Q1110.34 1539.08 1115.62 1540.07 L1119.5 1540.86 Q1126.7 1542.23 1130.1 1545.7 Q1133.54 1549.14 1133.54 1554.93 Q1133.54 1561.84 1128.89 1565.4 Q1124.28 1568.97 1115.33 1568.97 Q1111.96 1568.97 1108.14 1568.2 Q1104.35 1567.44 1100.28 1565.94 L1100.28 1559.32 Q1104.19 1561.52 1107.95 1562.63 Q1111.71 1563.75 1115.33 1563.75 Q1120.84 1563.75 1123.83 1561.58 Q1126.82 1559.42 1126.82 1555.41 Q1126.82 1551.91 1124.66 1549.93 Q1122.53 1547.96 1117.63 1546.97 L1113.71 1546.21 Q1106.52 1544.78 1103.3 1541.72 Q1100.09 1538.67 1100.09 1533.22 Q1100.09 1526.92 1104.51 1523.29 Q1108.97 1519.66 1116.77 1519.66 Q1120.11 1519.66 1123.58 1520.27 Q1127.05 1520.87 1130.68 1522.08 Z" fill="#000000" fill-rule="nonzero" fill-opacity="1" /><path clip-path="url(#clip190)" d="M1168.97 1533.76 L1168.97 1539.24 Q1166.48 1537.87 1163.97 1537.2 Q1161.49 1536.5 1158.94 1536.5 Q1153.24 1536.5 1150.09 1540.13 Q1146.94 1543.73 1146.94 1550.25 Q1146.94 1556.78 1150.09 1560.4 Q1153.24 1564 1158.94 1564 Q1161.49 1564 1163.97 1563.33 Q1166.48 1562.63 1168.97 1561.26 L1168.97 1566.68 Q1166.51 1567.82 1163.87 1568.39 Q1161.26 1568.97 1158.3 1568.97 Q1150.25 1568.97 1145.51 1563.91 Q1140.77 1558.85 1140.77 1550.25 Q1140.77 1541.53 1145.54 1536.53 Q1150.35 1531.54 1158.69 1531.54 Q1161.39 1531.54 1163.97 1532.11 Q1166.55 1532.65 1168.97 1533.76 Z" fill="#000000" fill-rule="nonzero" fill-opacity="1" /><path clip-path="url(#clip190)" d="M1179.15 1532.4 L1185.01 1532.4 L1185.01 1568.04 L1179.15 1568.04 L1179.15 1532.4 M1179.15 1518.52 L1185.01 1518.52 L1185.01 1525.93 L1179.15 1525.93 L1179.15 1518.52 Z" fill="#000000" fill-rule="nonzero" fill-opacity="1" /><path clip-path="url(#clip190)" d="M1226.89 1546.53 L1226.89 1568.04 L1221.04 1568.04 L1221.04 1546.72 Q1221.04 1541.66 1219.06 1539.14 Q1217.09 1536.63 1213.14 1536.63 Q1208.4 1536.63 1205.66 1539.65 Q1202.93 1542.68 1202.93 1547.9 L1202.93 1568.04 L1197.04 1568.04 L1197.04 1532.4 L1202.93 1532.4 L1202.93 1537.93 Q1205.03 1534.72 1207.86 1533.13 Q1210.72 1531.54 1214.45 1531.54 Q1220.59 1531.54 1223.74 1535.36 Q1226.89 1539.14 1226.89 1546.53 Z" fill="#000000" fill-rule="nonzero" fill-opacity="1" /><path clip-path="url(#clip190)" d="M1244.37 1522.27 L1244.37 1532.4 L1256.43 1532.4 L1256.43 1536.95 L1244.37 1536.95 L1244.37 1556.3 Q1244.37 1560.66 1245.55 1561.9 Q1246.75 1563.14 1250.42 1563.14 L1256.43 1563.14 L1256.43 1568.04 L1250.42 1568.04 Q1243.64 1568.04 1241.06 1565.53 Q1238.48 1562.98 1238.48 1556.3 L1238.48 1536.95 L1234.18 1536.95 L1234.18 1532.4 L1238.48 1532.4 L1238.48 1522.27 L1244.37 1522.27 Z" fill="#000000" fill-rule="nonzero" fill-opacity="1" /><path clip-path="url(#clip190)" d="M1264.13 1532.4 L1269.99 1532.4 L1269.99 1568.04 L1264.13 1568.04 L1264.13 1532.4 M1264.13 1518.52 L1269.99 1518.52 L1269.99 1525.93 L1264.13 1525.93 L1264.13 1518.52 Z" fill="#000000" fill-rule="nonzero" fill-opacity="1" /><path clip-path="url(#clip190)" d="M1282.24 1518.52 L1288.1 1518.52 L1288.1 1568.04 L1282.24 1568.04 L1282.24 1518.52 Z" fill="#000000" fill-rule="nonzero" fill-opacity="1" /><path clip-path="url(#clip190)" d="M1300.35 1518.52 L1306.21 1518.52 L1306.21 1568.04 L1300.35 1568.04 L1300.35 1518.52 Z" fill="#000000" fill-rule="nonzero" fill-opacity="1" /><path clip-path="url(#clip190)" d="M1334.67 1550.12 Q1327.57 1550.12 1324.83 1551.75 Q1322.09 1553.37 1322.09 1557.29 Q1322.09 1560.4 1324.13 1562.25 Q1326.2 1564.07 1329.73 1564.07 Q1334.6 1564.07 1337.53 1560.63 Q1340.49 1557.16 1340.49 1551.43 L1340.49 1550.12 L1334.67 1550.12 M1346.35 1547.71 L1346.35 1568.04 L1340.49 1568.04 L1340.49 1562.63 Q1338.48 1565.88 1335.49 1567.44 Q1332.5 1568.97 1328.17 1568.97 Q1322.7 1568.97 1319.45 1565.91 Q1316.24 1562.82 1316.24 1557.67 Q1316.24 1551.65 1320.25 1548.6 Q1324.29 1545.54 1332.28 1545.54 L1340.49 1545.54 L1340.49 1544.97 Q1340.49 1540.93 1337.82 1538.73 Q1335.17 1536.5 1330.37 1536.5 Q1327.31 1536.5 1324.42 1537.23 Q1321.52 1537.97 1318.85 1539.43 L1318.85 1534.02 Q1322.06 1532.78 1325.08 1532.17 Q1328.11 1531.54 1330.97 1531.54 Q1338.71 1531.54 1342.53 1535.55 Q1346.35 1539.56 1346.35 1547.71 Z" fill="#000000" fill-rule="nonzero" fill-opacity="1" /><path clip-path="url(#clip190)" d="M1364.2 1522.27 L1364.2 1532.4 L1376.27 1532.4 L1376.27 1536.95 L1364.2 1536.95 L1364.2 1556.3 Q1364.2 1560.66 1365.38 1561.9 Q1366.59 1563.14 1370.25 1563.14 L1376.27 1563.14 L1376.27 1568.04 L1370.25 1568.04 Q1363.47 1568.04 1360.89 1565.53 Q1358.31 1562.98 1358.31 1556.3 L1358.31 1536.95 L1354.02 1536.95 L1354.02 1532.4 L1358.31 1532.4 L1358.31 1522.27 L1364.2 1522.27 Z" fill="#000000" fill-rule="nonzero" fill-opacity="1" /><path clip-path="url(#clip190)" d="M1397.78 1536.5 Q1393.07 1536.5 1390.33 1540.19 Q1387.6 1543.85 1387.6 1550.25 Q1387.6 1556.65 1390.3 1560.34 Q1393.04 1564 1397.78 1564 Q1402.46 1564 1405.2 1560.31 Q1407.93 1556.62 1407.93 1550.25 Q1407.93 1543.92 1405.2 1540.23 Q1402.46 1536.5 1397.78 1536.5 M1397.78 1531.54 Q1405.42 1531.54 1409.78 1536.5 Q1414.14 1541.47 1414.14 1550.25 Q1414.14 1559 1409.78 1564 Q1405.42 1568.97 1397.78 1568.97 Q1390.11 1568.97 1385.75 1564 Q1381.42 1559 1381.42 1550.25 Q1381.42 1541.47 1385.75 1536.5 Q1390.11 1531.54 1397.78 1531.54 Z" fill="#000000" fill-rule="nonzero" fill-opacity="1" /><path clip-path="url(#clip190)" d="M1444.51 1537.87 Q1443.52 1537.3 1442.34 1537.04 Q1441.2 1536.76 1439.79 1536.76 Q1434.83 1536.76 1432.16 1540 Q1429.51 1543.22 1429.51 1549.27 L1429.51 1568.04 L1423.63 1568.04 L1423.63 1532.4 L1429.51 1532.4 L1429.51 1537.93 Q1431.36 1534.69 1434.32 1533.13 Q1437.28 1531.54 1441.51 1531.54 Q1442.12 1531.54 1442.85 1531.63 Q1443.58 1531.7 1444.47 1531.85 L1444.51 1537.87 Z" fill="#000000" fill-rule="nonzero" fill-opacity="1" /><path clip-path="url(#clip190)" d="M1477.03 1562.7 L1477.03 1581.6 L1471.15 1581.6 L1471.15 1532.4 L1477.03 1532.4 L1477.03 1537.81 Q1478.88 1534.62 1481.68 1533.1 Q1484.51 1531.54 1488.43 1531.54 Q1494.92 1531.54 1498.96 1536.69 Q1503.04 1541.85 1503.04 1550.25 Q1503.04 1558.65 1498.96 1563.81 Q1494.92 1568.97 1488.43 1568.97 Q1484.51 1568.97 1481.68 1567.44 Q1478.88 1565.88 1477.03 1562.7 M1496.96 1550.25 Q1496.96 1543.79 1494.29 1540.13 Q1491.64 1536.44 1487 1536.44 Q1482.35 1536.44 1479.68 1540.13 Q1477.03 1543.79 1477.03 1550.25 Q1477.03 1556.71 1479.68 1560.4 Q1482.35 1564.07 1487 1564.07 Q1491.64 1564.07 1494.29 1560.4 Q1496.96 1556.71 1496.96 1550.25 Z" fill="#000000" fill-rule="nonzero" fill-opacity="1" /><path clip-path="url(#clip190)" d="M1528.95 1550.12 Q1521.85 1550.12 1519.11 1551.75 Q1516.37 1553.37 1516.37 1557.29 Q1516.37 1560.4 1518.41 1562.25 Q1520.48 1564.07 1524.01 1564.07 Q1528.88 1564.07 1531.81 1560.63 Q1534.77 1557.16 1534.77 1551.43 L1534.77 1550.12 L1528.95 1550.12 M1540.63 1547.71 L1540.63 1568.04 L1534.77 1568.04 L1534.77 1562.63 Q1532.77 1565.88 1529.77 1567.44 Q1526.78 1568.97 1522.45 1568.97 Q1516.98 1568.97 1513.73 1565.91 Q1510.52 1562.82 1510.52 1557.67 Q1510.52 1551.65 1514.53 1548.6 Q1518.57 1545.54 1526.56 1545.54 L1534.77 1545.54 L1534.77 1544.97 Q1534.77 1540.93 1532.1 1538.73 Q1529.46 1536.5 1524.65 1536.5 Q1521.59 1536.5 1518.7 1537.23 Q1515.8 1537.97 1513.13 1539.43 L1513.13 1534.02 Q1516.34 1532.78 1519.37 1532.17 Q1522.39 1531.54 1525.25 1531.54 Q1532.99 1531.54 1536.81 1535.55 Q1540.63 1539.56 1540.63 1547.71 Z" fill="#000000" fill-rule="nonzero" fill-opacity="1" /><path clip-path="url(#clip190)" d="M1552.69 1532.4 L1558.55 1532.4 L1558.55 1568.04 L1552.69 1568.04 L1552.69 1532.4 M1552.69 1518.52 L1558.55 1518.52 L1558.55 1525.93 L1552.69 1525.93 L1552.69 1518.52 Z" fill="#000000" fill-rule="nonzero" fill-opacity="1" /><path clip-path="url(#clip190)" d="M1591.46 1537.87 Q1590.47 1537.3 1589.29 1537.04 Q1588.15 1536.76 1586.75 1536.76 Q1581.78 1536.76 1579.11 1540 Q1576.47 1543.22 1576.47 1549.27 L1576.47 1568.04 L1570.58 1568.04 L1570.58 1532.4 L1576.47 1532.4 L1576.47 1537.93 Q1578.31 1534.69 1581.27 1533.13 Q1584.23 1531.54 1588.47 1531.54 Q1589.07 1531.54 1589.8 1531.63 Q1590.53 1531.7 1591.43 1531.85 L1591.46 1537.87 Z" fill="#000000" fill-rule="nonzero" fill-opacity="1" /><path clip-path="url(#clip190)" d="M1620.33 1533.45 L1620.33 1538.98 Q1617.84 1537.71 1615.17 1537.07 Q1612.5 1536.44 1609.63 1536.44 Q1605.27 1536.44 1603.08 1537.77 Q1600.91 1539.11 1600.91 1541.79 Q1600.91 1543.82 1602.47 1545 Q1604.03 1546.15 1608.74 1547.2 L1610.75 1547.64 Q1616.98 1548.98 1619.59 1551.43 Q1622.24 1553.85 1622.24 1558.21 Q1622.24 1563.17 1618.29 1566.07 Q1614.37 1568.97 1607.5 1568.97 Q1604.63 1568.97 1601.52 1568.39 Q1598.43 1567.85 1594.99 1566.74 L1594.99 1560.69 Q1598.24 1562.38 1601.39 1563.24 Q1604.54 1564.07 1607.63 1564.07 Q1611.76 1564.07 1613.99 1562.66 Q1616.22 1561.23 1616.22 1558.65 Q1616.22 1556.27 1614.6 1554.99 Q1613.01 1553.72 1607.56 1552.54 L1605.53 1552.07 Q1600.08 1550.92 1597.66 1548.56 Q1595.25 1546.18 1595.25 1542.04 Q1595.25 1537.01 1598.81 1534.27 Q1602.37 1531.54 1608.93 1531.54 Q1612.18 1531.54 1615.04 1532.01 Q1617.91 1532.49 1620.33 1533.45 Z" fill="#000000" fill-rule="nonzero" fill-opacity="1" /><polyline clip-path="url(#clip190)" style="stroke:#000000; stroke-linecap:round; stroke-linejoin:round; stroke-width:4; stroke-opacity:1; fill:none" points="369.569,1423.18 369.569,123.472 "/>
<polyline clip-path="url(#clip190)" style="stroke:#000000; stroke-linecap:round; stroke-linejoin:round; stroke-width:4; stroke-opacity:1; fill:none" points="369.569,1387.9 388.467,1387.9 "/>
<polyline clip-path="url(#clip190)" style="stroke:#000000; stroke-linecap:round; stroke-linejoin:round; stroke-width:4; stroke-opacity:1; fill:none" points="369.569,1031.89 388.467,1031.89 "/>
<polyline clip-path="url(#clip190)" style="stroke:#000000; stroke-linecap:round; stroke-linejoin:round; stroke-width:4; stroke-opacity:1; fill:none" points="369.569,675.889 388.467,675.889 "/>
<polyline clip-path="url(#clip190)" style="stroke:#000000; stroke-linecap:round; stroke-linejoin:round; stroke-width:4; stroke-opacity:1; fill:none" points="369.569,319.884 388.467,319.884 "/>
<path clip-path="url(#clip190)" d="M321.624 1373.7 Q318.013 1373.7 316.185 1377.26 Q314.379 1380.8 314.379 1387.93 Q314.379 1395.04 316.185 1398.61 Q318.013 1402.15 321.624 1402.15 Q325.259 1402.15 327.064 1398.61 Q328.893 1395.04 328.893 1387.93 Q328.893 1380.8 327.064 1377.26 Q325.259 1373.7 321.624 1373.7 M321.624 1369.99 Q327.435 1369.99 330.49 1374.6 Q333.569 1379.18 333.569 1387.93 Q333.569 1396.66 330.49 1401.27 Q327.435 1405.85 321.624 1405.85 Q315.814 1405.85 312.736 1401.27 Q309.68 1396.66 309.68 1387.93 Q309.68 1379.18 312.736 1374.6 Q315.814 1369.99 321.624 1369.99 Z" fill="#000000" fill-rule="nonzero" fill-opacity="1" /><path clip-path="url(#clip190)" d="M121.043 1051.69 L137.362 1051.69 L137.362 1055.62 L115.418 1055.62 L115.418 1051.69 Q118.08 1048.93 122.663 1044.3 Q127.269 1039.65 128.45 1038.31 Q130.695 1035.78 131.575 1034.05 Q132.478 1032.29 132.478 1030.6 Q132.478 1027.84 130.533 1026.11 Q128.612 1024.37 125.51 1024.37 Q123.311 1024.37 120.857 1025.14 Q118.427 1025.9 115.649 1027.45 L115.649 1022.73 Q118.473 1021.59 120.927 1021.02 Q123.38 1020.44 125.418 1020.44 Q130.788 1020.44 133.982 1023.12 Q137.177 1025.81 137.177 1030.3 Q137.177 1032.43 136.367 1034.35 Q135.579 1036.25 133.473 1038.84 Q132.894 1039.51 129.792 1042.73 Q126.691 1045.92 121.043 1051.69 Z" fill="#000000" fill-rule="nonzero" fill-opacity="1" /><path clip-path="url(#clip190)" d="M147.177 1049.74 L152.061 1049.74 L152.061 1055.62 L147.177 1055.62 L147.177 1049.74 Z" fill="#000000" fill-rule="nonzero" fill-opacity="1" /><path clip-path="url(#clip190)" d="M172.246 1024.14 Q168.635 1024.14 166.806 1027.71 Q165.001 1031.25 165.001 1038.38 Q165.001 1045.48 166.806 1049.05 Q168.635 1052.59 172.246 1052.59 Q175.88 1052.59 177.686 1049.05 Q179.514 1045.48 179.514 1038.38 Q179.514 1031.25 177.686 1027.71 Q175.88 1024.14 172.246 1024.14 M172.246 1020.44 Q178.056 1020.44 181.112 1025.04 Q184.19 1029.63 184.19 1038.38 Q184.19 1047.1 181.112 1051.71 Q178.056 1056.29 172.246 1056.29 Q166.436 1056.29 163.357 1051.71 Q160.302 1047.1 160.302 1038.38 Q160.302 1029.63 163.357 1025.04 Q166.436 1020.44 172.246 1020.44 Z" fill="#000000" fill-rule="nonzero" fill-opacity="1" /><path clip-path="url(#clip190)" d="M220.579 1030.16 L210 1040.78 L220.579 1051.36 L217.824 1054.16 L207.199 1043.54 L196.575 1054.16 L193.843 1051.36 L204.399 1040.78 L193.843 1030.16 L196.575 1027.36 L207.199 1037.98 L217.824 1027.36 L220.579 1030.16 Z" fill="#000000" fill-rule="nonzero" fill-opacity="1" /><path clip-path="url(#clip190)" d="M232.94 1051.69 L240.579 1051.69 L240.579 1025.32 L232.269 1026.99 L232.269 1022.73 L240.533 1021.06 L245.209 1021.06 L245.209 1051.69 L252.847 1051.69 L252.847 1055.62 L232.94 1055.62 L232.94 1051.69 Z" fill="#000000" fill-rule="nonzero" fill-opacity="1" /><path clip-path="url(#clip190)" d="M272.292 1024.14 Q268.681 1024.14 266.852 1027.71 Q265.046 1031.25 265.046 1038.38 Q265.046 1045.48 266.852 1049.05 Q268.681 1052.59 272.292 1052.59 Q275.926 1052.59 277.732 1049.05 Q279.56 1045.48 279.56 1038.38 Q279.56 1031.25 277.732 1027.71 Q275.926 1024.14 272.292 1024.14 M272.292 1020.44 Q278.102 1020.44 281.157 1025.04 Q284.236 1029.63 284.236 1038.38 Q284.236 1047.1 281.157 1051.71 Q278.102 1056.29 272.292 1056.29 Q266.482 1056.29 263.403 1051.71 Q260.347 1047.1 260.347 1038.38 Q260.347 1029.63 263.403 1025.04 Q266.482 1020.44 272.292 1020.44 Z" fill="#000000" fill-rule="nonzero" fill-opacity="1" /><path clip-path="url(#clip190)" d="M284.236 1014.54 L308.348 1014.54 L308.348 1017.74 L284.236 1017.74 L284.236 1014.54 Z" fill="#000000" fill-rule="nonzero" fill-opacity="1" /><path clip-path="url(#clip190)" d="M316.585 1000.13 L331.5 1000.13 L331.5 1003.33 L320.065 1003.33 L320.065 1010.21 Q320.892 1009.93 321.72 1009.8 Q322.548 1009.65 323.375 1009.65 Q328.077 1009.65 330.823 1012.23 Q333.569 1014.8 333.569 1019.2 Q333.569 1023.74 330.748 1026.26 Q327.927 1028.76 322.792 1028.76 Q321.024 1028.76 319.181 1028.46 Q317.357 1028.16 315.401 1027.55 L315.401 1023.74 Q317.093 1024.66 318.899 1025.11 Q320.704 1025.56 322.717 1025.56 Q325.971 1025.56 327.87 1023.85 Q329.77 1022.14 329.77 1019.2 Q329.77 1016.27 327.87 1014.56 Q325.971 1012.85 322.717 1012.85 Q321.193 1012.85 319.67 1013.18 Q318.165 1013.52 316.585 1014.24 L316.585 1000.13 Z" fill="#000000" fill-rule="nonzero" fill-opacity="1" /><path clip-path="url(#clip190)" d="M129.862 669.131 L118.056 687.58 L129.862 687.58 L129.862 669.131 M128.635 665.057 L134.515 665.057 L134.515 687.58 L139.445 687.58 L139.445 691.469 L134.515 691.469 L134.515 699.617 L129.862 699.617 L129.862 691.469 L114.26 691.469 L114.26 686.955 L128.635 665.057 Z" fill="#000000" fill-rule="nonzero" fill-opacity="1" /><path clip-path="url(#clip190)" d="M147.177 693.737 L152.061 693.737 L152.061 699.617 L147.177 699.617 L147.177 693.737 Z" fill="#000000" fill-rule="nonzero" fill-opacity="1" /><path clip-path="url(#clip190)" d="M172.246 668.135 Q168.635 668.135 166.806 671.7 Q165.001 675.242 165.001 682.371 Q165.001 689.478 166.806 693.043 Q168.635 696.584 172.246 696.584 Q175.88 696.584 177.686 693.043 Q179.514 689.478 179.514 682.371 Q179.514 675.242 177.686 671.7 Q175.88 668.135 172.246 668.135 M172.246 664.432 Q178.056 664.432 181.112 669.038 Q184.19 673.621 184.19 682.371 Q184.19 691.098 181.112 695.705 Q178.056 700.288 172.246 700.288 Q166.436 700.288 163.357 695.705 Q160.302 691.098 160.302 682.371 Q160.302 673.621 163.357 669.038 Q166.436 664.432 172.246 664.432 Z" fill="#000000" fill-rule="nonzero" fill-opacity="1" /><path clip-path="url(#clip190)" d="M220.579 674.154 L210 684.779 L220.579 695.357 L217.824 698.158 L207.199 687.533 L196.575 698.158 L193.843 695.357 L204.399 684.779 L193.843 674.154 L196.575 671.353 L207.199 681.978 L217.824 671.353 L220.579 674.154 Z" fill="#000000" fill-rule="nonzero" fill-opacity="1" /><path clip-path="url(#clip190)" d="M232.94 695.682 L240.579 695.682 L240.579 669.316 L232.269 670.983 L232.269 666.723 L240.533 665.057 L245.209 665.057 L245.209 695.682 L252.847 695.682 L252.847 699.617 L232.94 699.617 L232.94 695.682 Z" fill="#000000" fill-rule="nonzero" fill-opacity="1" /><path clip-path="url(#clip190)" d="M272.292 668.135 Q268.681 668.135 266.852 671.7 Q265.046 675.242 265.046 682.371 Q265.046 689.478 266.852 693.043 Q268.681 696.584 272.292 696.584 Q275.926 696.584 277.732 693.043 Q279.56 689.478 279.56 682.371 Q279.56 675.242 277.732 671.7 Q275.926 668.135 272.292 668.135 M272.292 664.432 Q278.102 664.432 281.157 669.038 Q284.236 673.621 284.236 682.371 Q284.236 691.098 281.157 695.705 Q278.102 700.288 272.292 700.288 Q266.482 700.288 263.403 695.705 Q260.347 691.098 260.347 682.371 Q260.347 673.621 263.403 669.038 Q266.482 664.432 272.292 664.432 Z" fill="#000000" fill-rule="nonzero" fill-opacity="1" /><path clip-path="url(#clip190)" d="M284.236 658.533 L308.348 658.533 L308.348 661.73 L284.236 661.73 L284.236 658.533 Z" fill="#000000" fill-rule="nonzero" fill-opacity="1" /><path clip-path="url(#clip190)" d="M316.585 644.126 L331.5 644.126 L331.5 647.324 L320.065 647.324 L320.065 654.207 Q320.892 653.925 321.72 653.793 Q322.548 653.643 323.375 653.643 Q328.077 653.643 330.823 656.22 Q333.569 658.796 333.569 663.197 Q333.569 667.73 330.748 670.25 Q327.927 672.752 322.792 672.752 Q321.024 672.752 319.181 672.451 Q317.357 672.15 315.401 671.548 L315.401 667.73 Q317.093 668.652 318.899 669.103 Q320.704 669.554 322.717 669.554 Q325.971 669.554 327.87 667.843 Q329.77 666.131 329.77 663.197 Q329.77 660.263 327.87 658.552 Q325.971 656.84 322.717 656.84 Q321.193 656.84 319.67 657.179 Q318.165 657.517 316.585 658.232 L316.585 644.126 Z" fill="#000000" fill-rule="nonzero" fill-opacity="1" /><path clip-path="url(#clip190)" d="M127.593 324.468 Q124.445 324.468 122.593 326.621 Q120.765 328.773 120.765 332.523 Q120.765 336.25 122.593 338.426 Q124.445 340.579 127.593 340.579 Q130.742 340.579 132.57 338.426 Q134.422 336.25 134.422 332.523 Q134.422 328.773 132.57 326.621 Q130.742 324.468 127.593 324.468 M136.876 309.815 L136.876 314.074 Q135.117 313.241 133.311 312.801 Q131.529 312.362 129.769 312.362 Q125.14 312.362 122.686 315.487 Q120.255 318.611 119.908 324.931 Q121.274 322.917 123.334 321.852 Q125.394 320.764 127.871 320.764 Q133.08 320.764 136.089 323.936 Q139.121 327.084 139.121 332.523 Q139.121 337.848 135.973 341.065 Q132.825 344.283 127.593 344.283 Q121.598 344.283 118.427 339.699 Q115.256 335.093 115.256 326.366 Q115.256 318.172 119.144 313.311 Q123.033 308.426 129.584 308.426 Q131.343 308.426 133.126 308.774 Q134.931 309.121 136.876 309.815 Z" fill="#000000" fill-rule="nonzero" fill-opacity="1" /><path clip-path="url(#clip190)" d="M147.177 337.732 L152.061 337.732 L152.061 343.611 L147.177 343.611 L147.177 337.732 Z" fill="#000000" fill-rule="nonzero" fill-opacity="1" /><path clip-path="url(#clip190)" d="M172.246 312.13 Q168.635 312.13 166.806 315.695 Q165.001 319.236 165.001 326.366 Q165.001 333.473 166.806 337.037 Q168.635 340.579 172.246 340.579 Q175.88 340.579 177.686 337.037 Q179.514 333.473 179.514 326.366 Q179.514 319.236 177.686 315.695 Q175.88 312.13 172.246 312.13 M172.246 308.426 Q178.056 308.426 181.112 313.033 Q184.19 317.616 184.19 326.366 Q184.19 335.093 181.112 339.699 Q178.056 344.283 172.246 344.283 Q166.436 344.283 163.357 339.699 Q160.302 335.093 160.302 326.366 Q160.302 317.616 163.357 313.033 Q166.436 308.426 172.246 308.426 Z" fill="#000000" fill-rule="nonzero" fill-opacity="1" /><path clip-path="url(#clip190)" d="M220.579 318.149 L210 328.773 L220.579 339.352 L217.824 342.153 L207.199 331.528 L196.575 342.153 L193.843 339.352 L204.399 328.773 L193.843 318.149 L196.575 315.348 L207.199 325.973 L217.824 315.348 L220.579 318.149 Z" fill="#000000" fill-rule="nonzero" fill-opacity="1" /><path clip-path="url(#clip190)" d="M232.94 339.676 L240.579 339.676 L240.579 313.311 L232.269 314.977 L232.269 310.718 L240.533 309.051 L245.209 309.051 L245.209 339.676 L252.847 339.676 L252.847 343.611 L232.94 343.611 L232.94 339.676 Z" fill="#000000" fill-rule="nonzero" fill-opacity="1" /><path clip-path="url(#clip190)" d="M272.292 312.13 Q268.681 312.13 266.852 315.695 Q265.046 319.236 265.046 326.366 Q265.046 333.473 266.852 337.037 Q268.681 340.579 272.292 340.579 Q275.926 340.579 277.732 337.037 Q279.56 333.473 279.56 326.366 Q279.56 319.236 277.732 315.695 Q275.926 312.13 272.292 312.13 M272.292 308.426 Q278.102 308.426 281.157 313.033 Q284.236 317.616 284.236 326.366 Q284.236 335.093 281.157 339.699 Q278.102 344.283 272.292 344.283 Q266.482 344.283 263.403 339.699 Q260.347 335.093 260.347 326.366 Q260.347 317.616 263.403 313.033 Q266.482 308.426 272.292 308.426 Z" fill="#000000" fill-rule="nonzero" fill-opacity="1" /><path clip-path="url(#clip190)" d="M284.236 302.528 L308.348 302.528 L308.348 305.725 L284.236 305.725 L284.236 302.528 Z" fill="#000000" fill-rule="nonzero" fill-opacity="1" /><path clip-path="url(#clip190)" d="M316.585 288.121 L331.5 288.121 L331.5 291.318 L320.065 291.318 L320.065 298.202 Q320.892 297.92 321.72 297.788 Q322.548 297.638 323.375 297.638 Q328.077 297.638 330.823 300.214 Q333.569 302.791 333.569 307.192 Q333.569 311.725 330.748 314.245 Q327.927 316.746 322.792 316.746 Q321.024 316.746 319.181 316.445 Q317.357 316.145 315.401 315.543 L315.401 311.725 Q317.093 312.646 318.899 313.098 Q320.704 313.549 322.717 313.549 Q325.971 313.549 327.87 311.838 Q329.77 310.126 329.77 307.192 Q329.77 304.258 327.87 302.547 Q325.971 300.835 322.717 300.835 Q321.193 300.835 319.67 301.174 Q318.165 301.512 316.585 302.227 L316.585 288.121 Z" fill="#000000" fill-rule="nonzero" fill-opacity="1" /><path clip-path="url(#clip190)" d="M16.4842 1275.45 L16.4842 1265.87 L48.8219 1253.75 L16.4842 1241.56 L16.4842 1231.98 L64.0042 1231.98 L64.0042 1238.25 L22.277 1238.25 L54.8694 1250.5 L54.8694 1256.96 L22.277 1269.21 L64.0042 1269.21 L64.0042 1275.45 L16.4842 1275.45 Z" fill="#000000" fill-rule="nonzero" fill-opacity="1" /><path clip-path="url(#clip190)" d="M46.0847 1203.27 Q46.0847 1210.36 47.7079 1213.1 Q49.3312 1215.84 53.2461 1215.84 Q56.3653 1215.84 58.2114 1213.8 Q60.0256 1211.73 60.0256 1208.2 Q60.0256 1203.33 56.5881 1200.4 Q53.1188 1197.44 47.3897 1197.44 L46.0847 1197.44 L46.0847 1203.27 M43.6657 1191.58 L64.0042 1191.58 L64.0042 1197.44 L58.5933 1197.44 Q61.8398 1199.45 63.3994 1202.44 Q64.9272 1205.43 64.9272 1209.76 Q64.9272 1215.23 61.8716 1218.48 Q58.7843 1221.69 53.6281 1221.69 Q47.6125 1221.69 44.5569 1217.68 Q41.5014 1213.64 41.5014 1205.65 L41.5014 1197.44 L40.9285 1197.44 Q36.8862 1197.44 34.6901 1200.11 Q32.4621 1202.76 32.4621 1207.56 Q32.4621 1210.62 33.1941 1213.51 Q33.9262 1216.41 35.3903 1219.08 L29.9795 1219.08 Q28.7381 1215.87 28.1334 1212.85 Q27.4968 1209.82 27.4968 1206.96 Q27.4968 1199.22 31.5072 1195.4 Q35.5176 1191.58 43.6657 1191.58 Z" fill="#000000" fill-rule="nonzero" fill-opacity="1" /><path clip-path="url(#clip190)" d="M18.2347 1173.73 L28.3562 1173.73 L28.3562 1161.67 L32.9077 1161.67 L32.9077 1173.73 L52.2594 1173.73 Q56.6199 1173.73 57.8613 1172.55 Q59.1026 1171.34 59.1026 1167.68 L59.1026 1161.67 L64.0042 1161.67 L64.0042 1167.68 Q64.0042 1174.46 61.4897 1177.04 Q58.9434 1179.62 52.2594 1179.62 L32.9077 1179.62 L32.9077 1183.91 L28.3562 1183.91 L28.3562 1179.62 L18.2347 1179.62 L18.2347 1173.73 Z" fill="#000000" fill-rule="nonzero" fill-opacity="1" /><path clip-path="url(#clip190)" d="M29.7248 1128.31 L35.1993 1128.31 Q33.8307 1130.79 33.1623 1133.31 Q32.4621 1135.79 32.4621 1138.34 Q32.4621 1144.03 36.0905 1147.18 Q39.6872 1150.33 46.212 1150.33 Q52.7369 1150.33 56.3653 1147.18 Q59.9619 1144.03 59.9619 1138.34 Q59.9619 1135.79 59.2935 1133.31 Q58.5933 1130.79 57.2247 1128.31 L62.6355 1128.31 Q63.7814 1130.76 64.3543 1133.4 Q64.9272 1136.01 64.9272 1138.97 Q64.9272 1147.02 59.8664 1151.77 Q54.8057 1156.51 46.212 1156.51 Q37.491 1156.51 32.4939 1151.74 Q27.4968 1146.93 27.4968 1138.59 Q27.4968 1135.88 28.0697 1133.31 Q28.6108 1130.73 29.7248 1128.31 Z" fill="#000000" fill-rule="nonzero" fill-opacity="1" /><path clip-path="url(#clip190)" d="M42.4881 1088.49 L64.0042 1088.49 L64.0042 1094.35 L42.679 1094.35 Q37.6183 1094.35 35.1038 1096.32 Q32.5894 1098.3 32.5894 1102.24 Q32.5894 1106.98 35.6131 1109.72 Q38.6368 1112.46 43.8567 1112.46 L64.0042 1112.46 L64.0042 1118.35 L14.479 1118.35 L14.479 1112.46 L33.8944 1112.46 Q30.6797 1110.36 29.0883 1107.53 Q27.4968 1104.66 27.4968 1100.94 Q27.4968 1094.79 31.3163 1091.64 Q35.1038 1088.49 42.4881 1088.49 Z" fill="#000000" fill-rule="nonzero" fill-opacity="1" /><path clip-path="url(#clip190)" d="M44.7161 1046.32 L47.5806 1046.32 L47.5806 1073.25 Q53.6281 1072.86 56.8109 1069.62 Q59.9619 1066.34 59.9619 1060.51 Q59.9619 1057.14 59.1344 1053.99 Q58.3069 1050.81 56.6518 1047.69 L62.1899 1047.69 Q63.5267 1050.84 64.227 1054.15 Q64.9272 1057.46 64.9272 1060.86 Q64.9272 1069.39 59.9619 1074.39 Q54.9967 1079.36 46.5303 1079.36 Q37.7774 1079.36 32.6531 1074.65 Q27.4968 1069.9 27.4968 1061.88 Q27.4968 1054.69 32.1438 1050.52 Q36.7589 1046.32 44.7161 1046.32 M42.9973 1052.18 Q38.1912 1052.24 35.3266 1054.88 Q32.4621 1057.49 32.4621 1061.82 Q32.4621 1066.72 35.2312 1069.68 Q38.0002 1072.61 43.0292 1073.06 L42.9973 1052.18 Z" fill="#000000" fill-rule="nonzero" fill-opacity="1" /><path clip-path="url(#clip190)" d="M29.4065 1013.98 L34.9447 1013.98 Q33.6716 1016.46 33.035 1019.14 Q32.3984 1021.81 32.3984 1024.68 Q32.3984 1029.04 33.7352 1031.23 Q35.072 1033.4 37.7456 1033.4 Q39.7826 1033.4 40.9603 1031.84 Q42.1061 1030.28 43.1565 1025.57 L43.6021 1023.56 Q44.9389 1017.32 47.3897 1014.71 Q49.8086 1012.07 54.1691 1012.07 Q59.1344 1012.07 62.0308 1016.02 Q64.9272 1019.93 64.9272 1026.81 Q64.9272 1029.67 64.3543 1032.79 Q63.8132 1035.88 62.6992 1039.32 L56.6518 1039.32 Q58.3387 1036.07 59.198 1032.92 Q60.0256 1029.77 60.0256 1026.68 Q60.0256 1022.54 58.6251 1020.32 Q57.1929 1018.09 54.6147 1018.09 Q52.2276 1018.09 50.9545 1019.71 Q49.6813 1021.3 48.5037 1026.74 L48.0262 1028.78 Q46.8804 1034.22 44.5251 1036.64 Q42.138 1039.06 38.0002 1039.06 Q32.9713 1039.06 30.2341 1035.5 Q27.4968 1031.93 27.4968 1025.38 Q27.4968 1022.13 27.9743 1019.27 Q28.4517 1016.4 29.4065 1013.98 Z" fill="#000000" fill-rule="nonzero" fill-opacity="1" /><path clip-path="url(#clip190)" d="M58.657 976.36 L77.5631 976.36 L77.5631 982.248 L28.3562 982.248 L28.3562 976.36 L33.7671 976.36 Q30.5842 974.514 29.0564 971.713 Q27.4968 968.88 27.4968 964.966 Q27.4968 958.473 32.6531 954.43 Q37.8093 950.356 46.212 950.356 Q54.6147 950.356 59.771 954.43 Q64.9272 958.473 64.9272 964.966 Q64.9272 968.88 63.3994 971.713 Q61.8398 974.514 58.657 976.36 M46.212 956.436 Q39.7508 956.436 36.0905 959.109 Q32.3984 961.751 32.3984 966.398 Q32.3984 971.045 36.0905 973.718 Q39.7508 976.36 46.212 976.36 Q52.6732 976.36 56.3653 973.718 Q60.0256 971.045 60.0256 966.398 Q60.0256 961.751 56.3653 959.109 Q52.6732 956.436 46.212 956.436 Z" fill="#000000" fill-rule="nonzero" fill-opacity="1" /><path clip-path="url(#clip190)" d="M44.7161 910.157 L47.5806 910.157 L47.5806 937.084 Q53.6281 936.702 56.8109 933.455 Q59.9619 930.177 59.9619 924.352 Q59.9619 920.979 59.1344 917.828 Q58.3069 914.645 56.6518 911.525 L62.1899 911.525 Q63.5267 914.676 64.227 917.987 Q64.9272 921.297 64.9272 924.702 Q64.9272 933.233 59.9619 938.23 Q54.9967 943.195 46.5303 943.195 Q37.7774 943.195 32.6531 938.484 Q27.4968 933.742 27.4968 925.721 Q27.4968 918.528 32.1438 914.358 Q36.7589 910.157 44.7161 910.157 M42.9973 916.013 Q38.1912 916.077 35.3266 918.719 Q32.4621 921.329 32.4621 925.657 Q32.4621 930.559 35.2312 933.519 Q38.0002 936.447 43.0292 936.893 L42.9973 916.013 Z" fill="#000000" fill-rule="nonzero" fill-opacity="1" /><path clip-path="url(#clip190)" d="M33.8307 879.888 Q33.2578 880.875 33.0032 882.052 Q32.7167 883.198 32.7167 884.599 Q32.7167 889.564 35.9632 892.237 Q39.1779 894.879 45.2253 894.879 L64.0042 894.879 L64.0042 900.767 L28.3562 900.767 L28.3562 894.879 L33.8944 894.879 Q30.6479 893.033 29.0883 890.073 Q27.4968 887.113 27.4968 882.88 Q27.4968 882.275 27.5923 881.543 Q27.656 880.811 27.8151 879.92 L33.8307 879.888 Z" fill="#000000" fill-rule="nonzero" fill-opacity="1" /><path clip-path="url(#clip190)" d="M42.4881 823.392 L64.0042 823.392 L64.0042 829.249 L42.679 829.249 Q37.6183 829.249 35.1038 831.222 Q32.5894 833.195 32.5894 837.142 Q32.5894 841.885 35.6131 844.622 Q38.6368 847.359 43.8567 847.359 L64.0042 847.359 L64.0042 853.247 L28.3562 853.247 L28.3562 847.359 L33.8944 847.359 Q30.6797 845.258 29.0883 842.426 Q27.4968 839.561 27.4968 835.837 Q27.4968 829.694 31.3163 826.543 Q35.1038 823.392 42.4881 823.392 Z" fill="#000000" fill-rule="nonzero" fill-opacity="1" /><path clip-path="url(#clip190)" d="M44.7161 781.219 L47.5806 781.219 L47.5806 808.146 Q53.6281 807.764 56.8109 804.518 Q59.9619 801.24 59.9619 795.415 Q59.9619 792.041 59.1344 788.89 Q58.3069 785.707 56.6518 782.588 L62.1899 782.588 Q63.5267 785.739 64.227 789.049 Q64.9272 792.359 64.9272 795.765 Q64.9272 804.295 59.9619 809.292 Q54.9967 814.257 46.5303 814.257 Q37.7774 814.257 32.6531 809.547 Q27.4968 804.804 27.4968 796.784 Q27.4968 789.59 32.1438 785.421 Q36.7589 781.219 44.7161 781.219 M42.9973 787.076 Q38.1912 787.14 35.3266 789.781 Q32.4621 792.391 32.4621 796.72 Q32.4621 801.622 35.2312 804.582 Q38.0002 807.51 43.0292 807.955 L42.9973 787.076 Z" fill="#000000" fill-rule="nonzero" fill-opacity="1" /><path clip-path="url(#clip190)" d="M49.9359 772.212 L28.3562 772.212 L28.3562 766.356 L49.7131 766.356 Q54.7739 766.356 57.3202 764.382 Q59.8346 762.409 59.8346 758.462 Q59.8346 753.72 56.8109 750.982 Q53.7872 748.213 48.5673 748.213 L28.3562 748.213 L28.3562 742.357 L64.0042 742.357 L64.0042 748.213 L58.5296 748.213 Q61.7762 750.346 63.3676 753.179 Q64.9272 755.979 64.9272 759.703 Q64.9272 765.846 61.1078 769.029 Q57.2883 772.212 49.9359 772.212 M27.4968 757.475 L27.4968 757.475 Z" fill="#000000" fill-rule="nonzero" fill-opacity="1" /><path clip-path="url(#clip190)" d="M18.2347 724.501 L28.3562 724.501 L28.3562 712.438 L32.9077 712.438 L32.9077 724.501 L52.2594 724.501 Q56.6199 724.501 57.8613 723.323 Q59.1026 722.114 59.1026 718.454 L59.1026 712.438 L64.0042 712.438 L64.0042 718.454 Q64.0042 725.233 61.4897 727.811 Q58.9434 730.389 52.2594 730.389 L32.9077 730.389 L32.9077 734.686 L28.3562 734.686 L28.3562 730.389 L18.2347 730.389 L18.2347 724.501 Z" fill="#000000" fill-rule="nonzero" fill-opacity="1" /><path clip-path="url(#clip190)" d="M33.8307 684.079 Q33.2578 685.065 33.0032 686.243 Q32.7167 687.389 32.7167 688.789 Q32.7167 693.755 35.9632 696.428 Q39.1779 699.07 45.2253 699.07 L64.0042 699.07 L64.0042 704.958 L28.3562 704.958 L28.3562 699.07 L33.8944 699.07 Q30.6479 697.224 29.0883 694.264 Q27.4968 691.304 27.4968 687.071 Q27.4968 686.466 27.5923 685.734 Q27.656 685.002 27.8151 684.111 L33.8307 684.079 Z" fill="#000000" fill-rule="nonzero" fill-opacity="1" /><path clip-path="url(#clip190)" d="M32.4621 665.555 Q32.4621 670.265 36.1542 673.002 Q39.8145 675.74 46.212 675.74 Q52.6095 675.74 56.3017 673.034 Q59.9619 670.297 59.9619 665.555 Q59.9619 660.876 56.2698 658.139 Q52.5777 655.401 46.212 655.401 Q39.8781 655.401 36.186 658.139 Q32.4621 660.876 32.4621 665.555 M27.4968 665.555 Q27.4968 657.916 32.4621 653.555 Q37.4273 649.195 46.212 649.195 Q54.9649 649.195 59.9619 653.555 Q64.9272 657.916 64.9272 665.555 Q64.9272 673.225 59.9619 677.586 Q54.9649 681.914 46.212 681.914 Q37.4273 681.914 32.4621 677.586 Q27.4968 673.225 27.4968 665.555 Z" fill="#000000" fill-rule="nonzero" fill-opacity="1" /><path clip-path="url(#clip190)" d="M42.4881 609.855 L64.0042 609.855 L64.0042 615.711 L42.679 615.711 Q37.6183 615.711 35.1038 617.684 Q32.5894 619.658 32.5894 623.605 Q32.5894 628.347 35.6131 631.084 Q38.6368 633.822 43.8567 633.822 L64.0042 633.822 L64.0042 639.71 L28.3562 639.71 L28.3562 633.822 L33.8944 633.822 Q30.6797 631.721 29.0883 628.888 Q27.4968 626.024 27.4968 622.3 Q27.4968 616.157 31.3163 613.006 Q35.1038 609.855 42.4881 609.855 Z" fill="#000000" fill-rule="nonzero" fill-opacity="1" /><path clip-path="url(#clip190)" d="M14.479 559.406 L19.3487 559.406 L19.3487 565.008 Q19.3487 568.159 20.6219 569.401 Q21.895 570.61 25.2052 570.61 L28.3562 570.61 L28.3562 560.966 L32.9077 560.966 L32.9077 570.61 L64.0042 570.61 L64.0042 576.498 L32.9077 576.498 L32.9077 582.1 L28.3562 582.1 L28.3562 576.498 L25.8736 576.498 Q19.9216 576.498 17.2162 573.729 Q14.479 570.96 14.479 564.945 L14.479 559.406 Z" fill="#000000" fill-rule="nonzero" fill-opacity="1" /><path clip-path="url(#clip190)" d="M14.479 554.505 L14.479 548.648 L64.0042 548.648 L64.0042 554.505 L14.479 554.505 Z" fill="#000000" fill-rule="nonzero" fill-opacity="1" /><path clip-path="url(#clip190)" d="M49.9359 536.999 L28.3562 536.999 L28.3562 531.143 L49.7131 531.143 Q54.7739 531.143 57.3202 529.169 Q59.8346 527.196 59.8346 523.249 Q59.8346 518.507 56.8109 515.769 Q53.7872 513 48.5673 513 L28.3562 513 L28.3562 507.144 L64.0042 507.144 L64.0042 513 L58.5296 513 Q61.7762 515.133 63.3676 517.966 Q64.9272 520.767 64.9272 524.491 Q64.9272 530.633 61.1078 533.816 Q57.2883 536.999 49.9359 536.999 M27.4968 522.263 L27.4968 522.263 Z" fill="#000000" fill-rule="nonzero" fill-opacity="1" /><path clip-path="url(#clip190)" d="M28.3562 465.449 L45.7028 478.339 L64.0042 464.78 L64.0042 471.687 L49.9996 482.063 L64.0042 492.439 L64.0042 499.346 L45.3526 485.501 L28.3562 498.168 L28.3562 491.262 L41.0558 481.808 L28.3562 472.355 L28.3562 465.449 Z" fill="#000000" fill-rule="nonzero" fill-opacity="1" /><path clip-path="url(#clip190)" d="M14.5426 421.716 Q21.8632 425.981 29.0246 428.05 Q36.186 430.119 43.5384 430.119 Q50.8908 430.119 58.1159 428.05 Q65.3091 425.949 72.5979 421.716 L72.5979 426.809 Q65.1182 431.583 57.8931 433.97 Q50.668 436.325 43.5384 436.325 Q36.4406 436.325 29.2474 433.97 Q22.0542 431.615 14.5426 426.809 L14.5426 421.716 Z" fill="#000000" fill-rule="nonzero" fill-opacity="1" /><path clip-path="url(#clip190)" d="M29.7248 384.7 L35.1993 384.7 Q33.8307 387.182 33.1623 389.697 Q32.4621 392.179 32.4621 394.726 Q32.4621 400.423 36.0905 403.574 Q39.6872 406.725 46.212 406.725 Q52.7369 406.725 56.3653 403.574 Q59.9619 400.423 59.9619 394.726 Q59.9619 392.179 59.2935 389.697 Q58.5933 387.182 57.2247 384.7 L62.6355 384.7 Q63.7814 387.15 64.3543 389.792 Q64.9272 392.402 64.9272 395.362 Q64.9272 403.415 59.8664 408.157 Q54.8057 412.9 46.212 412.9 Q37.491 412.9 32.4939 408.125 Q27.4968 403.319 27.4968 394.98 Q27.4968 392.275 28.0697 389.697 Q28.6108 387.119 29.7248 384.7 Z" fill="#000000" fill-rule="nonzero" fill-opacity="1" /><path clip-path="url(#clip190)" d="M35.1993 346.76 Q31.2526 344.564 29.3747 341.508 Q27.4968 338.453 27.4968 334.315 Q27.4968 328.745 31.4117 325.721 Q35.2948 322.698 42.4881 322.698 L64.0042 322.698 L64.0042 328.586 L42.679 328.586 Q37.5546 328.586 35.072 330.4 Q32.5894 332.214 32.5894 335.938 Q32.5894 340.49 35.6131 343.132 Q38.6368 345.773 43.8567 345.773 L64.0042 345.773 L64.0042 351.662 L42.679 351.662 Q37.5228 351.662 35.072 353.476 Q32.5894 355.29 32.5894 359.078 Q32.5894 363.565 35.6449 366.207 Q38.6686 368.849 43.8567 368.849 L64.0042 368.849 L64.0042 374.737 L28.3562 374.737 L28.3562 368.849 L33.8944 368.849 Q30.616 366.844 29.0564 364.043 Q27.4968 361.242 27.4968 357.391 Q27.4968 353.508 29.4702 350.802 Q31.4436 348.065 35.1993 346.76 Z" fill="#000000" fill-rule="nonzero" fill-opacity="1" /><path clip-path="url(#clip190)" d="M39.1142 308.629 L39.1142 295.134 L42.7427 295.134 L42.7427 314.168 L39.2416 314.168 Q38.2549 313.085 36.4725 311.08 Q26.7648 300.131 23.7729 300.131 Q21.6722 300.131 20.3991 301.786 Q19.0941 303.441 19.0941 306.147 Q19.0941 307.802 19.667 309.743 Q20.2081 311.685 21.3221 313.977 L17.4072 313.977 Q16.516 311.526 16.0704 309.425 Q15.6248 307.293 15.6248 305.478 Q15.6248 300.863 17.7255 298.094 Q19.8262 295.325 23.2636 295.325 Q27.6878 295.325 36.7271 305.86 Q38.2549 307.643 39.1142 308.629 Z" fill="#000000" fill-rule="nonzero" fill-opacity="1" /><path clip-path="url(#clip190)" d="M14.5426 285.808 L14.5426 280.716 Q22.0542 275.941 29.2474 273.586 Q36.4406 271.199 43.5384 271.199 Q50.668 271.199 57.8931 273.586 Q65.1182 275.941 72.5979 280.716 L72.5979 285.808 Q65.3091 281.575 58.1159 279.506 Q50.8908 277.406 43.5384 277.406 Q36.186 277.406 29.0246 279.506 Q21.8632 281.575 14.5426 285.808 Z" fill="#000000" fill-rule="nonzero" fill-opacity="1" /><path clip-path="url(#clip190)" d="M1166.03 12.096 L1204.27 12.096 L1204.27 18.9825 L1174.21 18.9825 L1174.21 36.8875 L1203.02 36.8875 L1203.02 43.7741 L1174.21 43.7741 L1174.21 65.6895 L1205 65.6895 L1205 72.576 L1166.03 72.576 L1166.03 12.096 Z" fill="#000000" fill-rule="nonzero" fill-opacity="1" /><path clip-path="url(#clip190)" d="M1241.09 9.54393 L1241.09 15.7418 L1233.96 15.7418 Q1229.95 15.7418 1228.37 17.3622 Q1226.83 18.9825 1226.83 23.1955 L1226.83 27.2059 L1239.11 27.2059 L1239.11 32.9987 L1226.83 32.9987 L1226.83 72.576 L1219.34 72.576 L1219.34 32.9987 L1212.21 32.9987 L1212.21 27.2059 L1219.34 27.2059 L1219.34 24.0462 Q1219.34 16.471 1222.86 13.0277 Q1226.39 9.54393 1234.05 9.54393 L1241.09 9.54393 Z" fill="#000000" fill-rule="nonzero" fill-opacity="1" /><path clip-path="url(#clip190)" d="M1270.3 9.54393 L1270.3 15.7418 L1263.17 15.7418 Q1259.16 15.7418 1257.58 17.3622 Q1256.04 18.9825 1256.04 23.1955 L1256.04 27.2059 L1268.32 27.2059 L1268.32 32.9987 L1256.04 32.9987 L1256.04 72.576 L1248.55 72.576 L1248.55 32.9987 L1241.42 32.9987 L1241.42 27.2059 L1248.55 27.2059 L1248.55 24.0462 Q1248.55 16.471 1252.07 13.0277 Q1255.6 9.54393 1263.25 9.54393 L1270.3 9.54393 Z" fill="#000000" fill-rule="nonzero" fill-opacity="1" /><path clip-path="url(#clip190)" d="M1276.54 27.2059 L1283.99 27.2059 L1283.99 72.576 L1276.54 72.576 L1276.54 27.2059 M1276.54 9.54393 L1283.99 9.54393 L1283.99 18.9825 L1276.54 18.9825 L1276.54 9.54393 Z" fill="#000000" fill-rule="nonzero" fill-opacity="1" /><path clip-path="url(#clip190)" d="M1332.24 28.9478 L1332.24 35.9153 Q1329.08 34.1734 1325.88 33.3227 Q1322.72 32.4315 1319.48 32.4315 Q1312.23 32.4315 1308.22 37.0496 Q1304.21 41.6271 1304.21 49.9314 Q1304.21 58.2358 1308.22 62.8538 Q1312.23 67.4314 1319.48 67.4314 Q1322.72 67.4314 1325.88 66.5807 Q1329.08 65.6895 1332.24 63.9476 L1332.24 70.8341 Q1329.12 72.2924 1325.76 73.0216 Q1322.44 73.7508 1318.67 73.7508 Q1308.42 73.7508 1302.38 67.3098 Q1296.35 60.8689 1296.35 49.9314 Q1296.35 38.832 1302.42 32.472 Q1308.54 26.1121 1319.15 26.1121 Q1322.6 26.1121 1325.88 26.8413 Q1329.16 27.5299 1332.24 28.9478 Z" fill="#000000" fill-rule="nonzero" fill-opacity="1" /><path clip-path="url(#clip190)" d="M1345.2 27.2059 L1352.66 27.2059 L1352.66 72.576 L1345.2 72.576 L1345.2 27.2059 M1345.2 9.54393 L1352.66 9.54393 L1352.66 18.9825 L1345.2 18.9825 L1345.2 9.54393 Z" fill="#000000" fill-rule="nonzero" fill-opacity="1" /><path clip-path="url(#clip190)" d="M1407.06 48.0275 L1407.06 51.6733 L1372.79 51.6733 Q1373.27 59.3701 1377.41 63.421 Q1381.58 67.4314 1388.99 67.4314 Q1393.29 67.4314 1397.3 66.3781 Q1401.35 65.3249 1405.32 63.2184 L1405.32 70.267 Q1401.31 71.9684 1397.09 72.8596 Q1392.88 73.7508 1388.55 73.7508 Q1377.69 73.7508 1371.33 67.4314 Q1365.01 61.1119 1365.01 50.3365 Q1365.01 39.1965 1371.01 32.6746 Q1377.04 26.1121 1387.25 26.1121 Q1396.41 26.1121 1401.71 32.0264 Q1407.06 37.9003 1407.06 48.0275 M1399.61 45.84 Q1399.52 39.7232 1396.16 36.0774 Q1392.84 32.4315 1387.33 32.4315 Q1381.09 32.4315 1377.33 35.9558 Q1373.6 39.4801 1373.03 45.8805 L1399.61 45.84 Z" fill="#000000" fill-rule="nonzero" fill-opacity="1" /><path clip-path="url(#clip190)" d="M1457.01 45.1919 L1457.01 72.576 L1449.55 72.576 L1449.55 45.4349 Q1449.55 38.994 1447.04 35.7938 Q1444.53 32.5936 1439.51 32.5936 Q1433.47 32.5936 1429.99 36.4419 Q1426.5 40.2903 1426.5 46.9338 L1426.5 72.576 L1419.01 72.576 L1419.01 27.2059 L1426.5 27.2059 L1426.5 34.2544 Q1429.18 30.163 1432.78 28.1376 Q1436.43 26.1121 1441.17 26.1121 Q1448.99 26.1121 1453 30.9732 Q1457.01 35.7938 1457.01 45.1919 Z" fill="#000000" fill-rule="nonzero" fill-opacity="1" /><path clip-path="url(#clip190)" d="M1504.52 28.9478 L1504.52 35.9153 Q1501.36 34.1734 1498.16 33.3227 Q1495 32.4315 1491.76 32.4315 Q1484.51 32.4315 1480.5 37.0496 Q1476.49 41.6271 1476.49 49.9314 Q1476.49 58.2358 1480.5 62.8538 Q1484.51 67.4314 1491.76 67.4314 Q1495 67.4314 1498.16 66.5807 Q1501.36 65.6895 1504.52 63.9476 L1504.52 70.8341 Q1501.4 72.2924 1498.04 73.0216 Q1494.72 73.7508 1490.95 73.7508 Q1480.7 73.7508 1474.67 67.3098 Q1468.63 60.8689 1468.63 49.9314 Q1468.63 38.832 1474.71 32.472 Q1480.83 26.1121 1491.44 26.1121 Q1494.88 26.1121 1498.16 26.8413 Q1501.45 27.5299 1504.52 28.9478 Z" fill="#000000" fill-rule="nonzero" fill-opacity="1" /><path clip-path="url(#clip190)" d="M1536.36 76.7889 Q1533.2 84.8907 1530.21 87.3618 Q1527.21 89.8329 1522.19 89.8329 L1516.23 89.8329 L1516.23 83.5945 L1520.61 83.5945 Q1523.68 83.5945 1525.39 82.1361 Q1527.09 80.6778 1529.15 75.2496 L1530.49 71.8468 L1512.14 27.2059 L1520.04 27.2059 L1534.22 62.6918 L1548.4 27.2059 L1556.29 27.2059 L1536.36 76.7889 Z" fill="#000000" fill-rule="nonzero" fill-opacity="1" /><polyline clip-path="url(#clip192)" style="stroke:#009af9; stroke-linecap:round; stroke-linejoin:round; stroke-width:12; stroke-opacity:1; fill:none" points="425.697,1386.4 486.049,1381.88 546.402,1378.27 606.755,1371.35 667.107,1363.42 727.46,1347.41 787.813,1337.05 848.165,1331.4 908.518,1304.09 968.87,1275.85 1029.22,1268.31 1089.58,1213.7 1149.93,1194.05 1210.28,1164.98 1270.63,1159.16 1330.99,1093.26 1391.34,1048.67 1451.69,1031.23 1512.04,934.303 1572.4,914.918 1632.75,876.149 1693.1,754.027 1753.45,800.55 1813.81,655.166 1874.16,723.063 1934.51,660.529 1994.86,578.248 2055.22,522.296 2115.57,377.48 2175.92,393.936 2236.28,318.237 2296.63,160.256 "/>
<path clip-path="url(#clip190)" d="M435.675 270.476 L686.424 270.476 L686.424 166.796 L435.675 166.796  Z" fill="#ffffff" fill-rule="evenodd" fill-opacity="1"/>
<polyline clip-path="url(#clip190)" style="stroke:#000000; stroke-linecap:round; stroke-linejoin:round; stroke-width:4; stroke-opacity:1; fill:none" points="435.675,270.476 686.424,270.476 686.424,166.796 435.675,166.796 435.675,270.476 "/>
<polyline clip-path="url(#clip190)" style="stroke:#009af9; stroke-linecap:round; stroke-linejoin:round; stroke-width:12; stroke-opacity:1; fill:none" points="457.711,218.636 589.923,218.636 "/>
<path clip-path="url(#clip190)" d="M625.801 238.323 Q623.995 242.953 622.282 244.365 Q620.569 245.777 617.699 245.777 L614.296 245.777 L614.296 242.212 L616.796 242.212 Q618.556 242.212 619.528 241.379 Q620.5 240.545 621.681 237.443 L622.444 235.499 L611.958 209.99 L616.472 209.99 L624.574 230.268 L632.676 209.99 L637.19 209.99 L625.801 238.323 Z" fill="#000000" fill-rule="nonzero" fill-opacity="1" /><path clip-path="url(#clip190)" d="M644.481 231.981 L652.12 231.981 L652.12 205.615 L643.81 207.282 L643.81 203.022 L652.074 201.356 L656.75 201.356 L656.75 231.981 L664.389 231.981 L664.389 235.916 L644.481 235.916 L644.481 231.981 Z" fill="#000000" fill-rule="nonzero" fill-opacity="1" /></svg>
