<?xml version="1.0" encoding="utf-8"?>
<svg xmlns="http://www.w3.org/2000/svg" xmlns:xlink="http://www.w3.org/1999/xlink" width="600" height="400" viewBox="0 0 2400 1600">
<defs>
  <clipPath id="clip770">
    <rect x="0" y="0" width="2400" height="1600"/>
  </clipPath>
</defs>
<path clip-path="url(#clip770)" d="M0 1600 L2400 1600 L2400 0 L0 0  Z" fill="#ffffff" fill-rule="evenodd" fill-opacity="1"/>
<defs>
  <clipPath id="clip771">
    <rect x="480" y="0" width="1681" height="1600"/>
  </clipPath>
</defs>
<path clip-path="url(#clip770)" d="M251.071 1410.9 L2352.76 1410.9 L2352.76 123.472 L251.071 123.472  Z" fill="#ffffff" fill-rule="evenodd" fill-opacity="1"/>
<defs>
  <clipPath id="clip772">
    <rect x="251" y="123" width="2103" height="1288"/>
  </clipPath>
</defs>
<polyline clip-path="url(#clip772)" style="stroke:#000000; stroke-linecap:round; stroke-linejoin:round; stroke-width:2; stroke-opacity:0.05; fill:none" points="735.516,1410.9 735.516,123.472 "/>
<polyline clip-path="url(#clip772)" style="stroke:#000000; stroke-linecap:round; stroke-linejoin:round; stroke-width:2; stroke-opacity:0.05; fill:none" points="822.801,1410.9 822.801,123.472 "/>
<polyline clip-path="url(#clip772)" style="stroke:#000000; stroke-linecap:round; stroke-linejoin:round; stroke-width:2; stroke-opacity:0.05; fill:none" points="884.73,1410.9 884.73,123.472 "/>
<polyline clip-path="url(#clip772)" style="stroke:#000000; stroke-linecap:round; stroke-linejoin:round; stroke-width:2; stroke-opacity:0.05; fill:none" points="932.767,1410.9 932.767,123.472 "/>
<polyline clip-path="url(#clip772)" style="stroke:#000000; stroke-linecap:round; stroke-linejoin:round; stroke-width:2; stroke-opacity:0.05; fill:none" points="972.015,1410.9 972.015,123.472 "/>
<polyline clip-path="url(#clip772)" style="stroke:#000000; stroke-linecap:round; stroke-linejoin:round; stroke-width:2; stroke-opacity:0.05; fill:none" points="1005.2,1410.9 1005.2,123.472 "/>
<polyline clip-path="url(#clip772)" style="stroke:#000000; stroke-linecap:round; stroke-linejoin:round; stroke-width:2; stroke-opacity:0.05; fill:none" points="1033.95,1410.9 1033.95,123.472 "/>
<polyline clip-path="url(#clip772)" style="stroke:#000000; stroke-linecap:round; stroke-linejoin:round; stroke-width:2; stroke-opacity:0.05; fill:none" points="1059.3,1410.9 1059.3,123.472 "/>
<polyline clip-path="url(#clip772)" style="stroke:#000000; stroke-linecap:round; stroke-linejoin:round; stroke-width:2; stroke-opacity:0.05; fill:none" points="1081.98,1410.9 1081.98,123.472 "/>
<polyline clip-path="url(#clip772)" style="stroke:#000000; stroke-linecap:round; stroke-linejoin:round; stroke-width:2; stroke-opacity:0.05; fill:none" points="1081.98,1410.9 1081.98,123.472 "/>
<polyline clip-path="url(#clip772)" style="stroke:#000000; stroke-linecap:round; stroke-linejoin:round; stroke-width:2; stroke-opacity:0.05; fill:none" points="1231.2,1410.9 1231.2,123.472 "/>
<polyline clip-path="url(#clip772)" style="stroke:#000000; stroke-linecap:round; stroke-linejoin:round; stroke-width:2; stroke-opacity:0.05; fill:none" points="1318.48,1410.9 1318.48,123.472 "/>
<polyline clip-path="url(#clip772)" style="stroke:#000000; stroke-linecap:round; stroke-linejoin:round; stroke-width:2; stroke-opacity:0.05; fill:none" points="1380.41,1410.9 1380.41,123.472 "/>
<polyline clip-path="url(#clip772)" style="stroke:#000000; stroke-linecap:round; stroke-linejoin:round; stroke-width:2; stroke-opacity:0.05; fill:none" points="1428.45,1410.9 1428.45,123.472 "/>
<polyline clip-path="url(#clip772)" style="stroke:#000000; stroke-linecap:round; stroke-linejoin:round; stroke-width:2; stroke-opacity:0.05; fill:none" points="1467.7,1410.9 1467.7,123.472 "/>
<polyline clip-path="url(#clip772)" style="stroke:#000000; stroke-linecap:round; stroke-linejoin:round; stroke-width:2; stroke-opacity:0.05; fill:none" points="1500.88,1410.9 1500.88,123.472 "/>
<polyline clip-path="url(#clip772)" style="stroke:#000000; stroke-linecap:round; stroke-linejoin:round; stroke-width:2; stroke-opacity:0.05; fill:none" points="1529.63,1410.9 1529.63,123.472 "/>
<polyline clip-path="url(#clip772)" style="stroke:#000000; stroke-linecap:round; stroke-linejoin:round; stroke-width:2; stroke-opacity:0.05; fill:none" points="1554.98,1410.9 1554.98,123.472 "/>
<polyline clip-path="url(#clip772)" style="stroke:#000000; stroke-linecap:round; stroke-linejoin:round; stroke-width:2; stroke-opacity:0.05; fill:none" points="1231.2,1410.9 1231.2,123.472 "/>
<polyline clip-path="url(#clip772)" style="stroke:#000000; stroke-linecap:round; stroke-linejoin:round; stroke-width:2; stroke-opacity:0.05; fill:none" points="1318.48,1410.9 1318.48,123.472 "/>
<polyline clip-path="url(#clip772)" style="stroke:#000000; stroke-linecap:round; stroke-linejoin:round; stroke-width:2; stroke-opacity:0.05; fill:none" points="1380.41,1410.9 1380.41,123.472 "/>
<polyline clip-path="url(#clip772)" style="stroke:#000000; stroke-linecap:round; stroke-linejoin:round; stroke-width:2; stroke-opacity:0.05; fill:none" points="1428.45,1410.9 1428.45,123.472 "/>
<polyline clip-path="url(#clip772)" style="stroke:#000000; stroke-linecap:round; stroke-linejoin:round; stroke-width:2; stroke-opacity:0.05; fill:none" points="1467.7,1410.9 1467.7,123.472 "/>
<polyline clip-path="url(#clip772)" style="stroke:#000000; stroke-linecap:round; stroke-linejoin:round; stroke-width:2; stroke-opacity:0.05; fill:none" points="1500.88,1410.9 1500.88,123.472 "/>
<polyline clip-path="url(#clip772)" style="stroke:#000000; stroke-linecap:round; stroke-linejoin:round; stroke-width:2; stroke-opacity:0.05; fill:none" points="1529.63,1410.9 1529.63,123.472 "/>
<polyline clip-path="url(#clip772)" style="stroke:#000000; stroke-linecap:round; stroke-linejoin:round; stroke-width:2; stroke-opacity:0.05; fill:none" points="1554.98,1410.9 1554.98,123.472 "/>
<polyline clip-path="url(#clip772)" style="stroke:#000000; stroke-linecap:round; stroke-linejoin:round; stroke-width:2; stroke-opacity:0.05; fill:none" points="1577.66,1410.9 1577.66,123.472 "/>
<polyline clip-path="url(#clip772)" style="stroke:#000000; stroke-linecap:round; stroke-linejoin:round; stroke-width:2; stroke-opacity:0.05; fill:none" points="1577.66,1410.9 1577.66,123.472 "/>
<polyline clip-path="url(#clip772)" style="stroke:#000000; stroke-linecap:round; stroke-linejoin:round; stroke-width:2; stroke-opacity:0.05; fill:none" points="1726.88,1410.9 1726.88,123.472 "/>
<polyline clip-path="url(#clip772)" style="stroke:#000000; stroke-linecap:round; stroke-linejoin:round; stroke-width:2; stroke-opacity:0.05; fill:none" points="1814.16,1410.9 1814.16,123.472 "/>
<polyline clip-path="url(#clip772)" style="stroke:#000000; stroke-linecap:round; stroke-linejoin:round; stroke-width:2; stroke-opacity:0.05; fill:none" points="1876.09,1410.9 1876.09,123.472 "/>
<polyline clip-path="url(#clip772)" style="stroke:#000000; stroke-linecap:round; stroke-linejoin:round; stroke-width:2; stroke-opacity:0.05; fill:none" points="1924.13,1410.9 1924.13,123.472 "/>
<polyline clip-path="url(#clip772)" style="stroke:#000000; stroke-linecap:round; stroke-linejoin:round; stroke-width:2; stroke-opacity:0.05; fill:none" points="1963.38,1410.9 1963.38,123.472 "/>
<polyline clip-path="url(#clip772)" style="stroke:#000000; stroke-linecap:round; stroke-linejoin:round; stroke-width:2; stroke-opacity:0.05; fill:none" points="1996.56,1410.9 1996.56,123.472 "/>
<polyline clip-path="url(#clip772)" style="stroke:#000000; stroke-linecap:round; stroke-linejoin:round; stroke-width:2; stroke-opacity:0.05; fill:none" points="2025.31,1410.9 2025.31,123.472 "/>
<polyline clip-path="url(#clip772)" style="stroke:#000000; stroke-linecap:round; stroke-linejoin:round; stroke-width:2; stroke-opacity:0.05; fill:none" points="2050.66,1410.9 2050.66,123.472 "/>
<polyline clip-path="url(#clip772)" style="stroke:#000000; stroke-linecap:round; stroke-linejoin:round; stroke-width:2; stroke-opacity:0.05; fill:none" points="2222.56,1410.9 2222.56,123.472 "/>
<polyline clip-path="url(#clip772)" style="stroke:#000000; stroke-linecap:round; stroke-linejoin:round; stroke-width:2; stroke-opacity:0.05; fill:none" points="2309.84,1410.9 2309.84,123.472 "/>
<polyline clip-path="url(#clip772)" style="stroke:#000000; stroke-linecap:round; stroke-linejoin:round; stroke-width:2; stroke-opacity:0.05; fill:none" points="251.071,1393.5 2352.76,1393.5 "/>
<polyline clip-path="url(#clip772)" style="stroke:#000000; stroke-linecap:round; stroke-linejoin:round; stroke-width:2; stroke-opacity:0.05; fill:none" points="251.071,1356.25 2352.76,1356.25 "/>
<polyline clip-path="url(#clip772)" style="stroke:#000000; stroke-linecap:round; stroke-linejoin:round; stroke-width:2; stroke-opacity:0.05; fill:none" points="251.071,1327.37 2352.76,1327.37 "/>
<polyline clip-path="url(#clip772)" style="stroke:#000000; stroke-linecap:round; stroke-linejoin:round; stroke-width:2; stroke-opacity:0.05; fill:none" points="251.071,1303.76 2352.76,1303.76 "/>
<polyline clip-path="url(#clip772)" style="stroke:#000000; stroke-linecap:round; stroke-linejoin:round; stroke-width:2; stroke-opacity:0.05; fill:none" points="251.071,1283.8 2352.76,1283.8 "/>
<polyline clip-path="url(#clip772)" style="stroke:#000000; stroke-linecap:round; stroke-linejoin:round; stroke-width:2; stroke-opacity:0.05; fill:none" points="251.071,1266.52 2352.76,1266.52 "/>
<polyline clip-path="url(#clip772)" style="stroke:#000000; stroke-linecap:round; stroke-linejoin:round; stroke-width:2; stroke-opacity:0.05; fill:none" points="251.071,1251.27 2352.76,1251.27 "/>
<polyline clip-path="url(#clip772)" style="stroke:#000000; stroke-linecap:round; stroke-linejoin:round; stroke-width:2; stroke-opacity:0.05; fill:none" points="251.071,1237.63 2352.76,1237.63 "/>
<polyline clip-path="url(#clip772)" style="stroke:#000000; stroke-linecap:round; stroke-linejoin:round; stroke-width:2; stroke-opacity:0.05; fill:none" points="251.071,1237.63 2352.76,1237.63 "/>
<polyline clip-path="url(#clip772)" style="stroke:#000000; stroke-linecap:round; stroke-linejoin:round; stroke-width:2; stroke-opacity:0.05; fill:none" points="251.071,1147.89 2352.76,1147.89 "/>
<polyline clip-path="url(#clip772)" style="stroke:#000000; stroke-linecap:round; stroke-linejoin:round; stroke-width:2; stroke-opacity:0.05; fill:none" points="251.071,1095.4 2352.76,1095.4 "/>
<polyline clip-path="url(#clip772)" style="stroke:#000000; stroke-linecap:round; stroke-linejoin:round; stroke-width:2; stroke-opacity:0.05; fill:none" points="251.071,1058.16 2352.76,1058.16 "/>
<polyline clip-path="url(#clip772)" style="stroke:#000000; stroke-linecap:round; stroke-linejoin:round; stroke-width:2; stroke-opacity:0.05; fill:none" points="251.071,1029.27 2352.76,1029.27 "/>
<polyline clip-path="url(#clip772)" style="stroke:#000000; stroke-linecap:round; stroke-linejoin:round; stroke-width:2; stroke-opacity:0.05; fill:none" points="251.071,1005.66 2352.76,1005.66 "/>
<polyline clip-path="url(#clip772)" style="stroke:#000000; stroke-linecap:round; stroke-linejoin:round; stroke-width:2; stroke-opacity:0.05; fill:none" points="251.071,985.708 2352.76,985.708 "/>
<polyline clip-path="url(#clip772)" style="stroke:#000000; stroke-linecap:round; stroke-linejoin:round; stroke-width:2; stroke-opacity:0.05; fill:none" points="251.071,968.42 2352.76,968.42 "/>
<polyline clip-path="url(#clip772)" style="stroke:#000000; stroke-linecap:round; stroke-linejoin:round; stroke-width:2; stroke-opacity:0.05; fill:none" points="251.071,953.172 2352.76,953.172 "/>
<polyline clip-path="url(#clip772)" style="stroke:#000000; stroke-linecap:round; stroke-linejoin:round; stroke-width:2; stroke-opacity:0.05; fill:none" points="251.071,1147.89 2352.76,1147.89 "/>
<polyline clip-path="url(#clip772)" style="stroke:#000000; stroke-linecap:round; stroke-linejoin:round; stroke-width:2; stroke-opacity:0.05; fill:none" points="251.071,1095.4 2352.76,1095.4 "/>
<polyline clip-path="url(#clip772)" style="stroke:#000000; stroke-linecap:round; stroke-linejoin:round; stroke-width:2; stroke-opacity:0.05; fill:none" points="251.071,1058.16 2352.76,1058.16 "/>
<polyline clip-path="url(#clip772)" style="stroke:#000000; stroke-linecap:round; stroke-linejoin:round; stroke-width:2; stroke-opacity:0.05; fill:none" points="251.071,1029.27 2352.76,1029.27 "/>
<polyline clip-path="url(#clip772)" style="stroke:#000000; stroke-linecap:round; stroke-linejoin:round; stroke-width:2; stroke-opacity:0.05; fill:none" points="251.071,1005.66 2352.76,1005.66 "/>
<polyline clip-path="url(#clip772)" style="stroke:#000000; stroke-linecap:round; stroke-linejoin:round; stroke-width:2; stroke-opacity:0.05; fill:none" points="251.071,985.708 2352.76,985.708 "/>
<polyline clip-path="url(#clip772)" style="stroke:#000000; stroke-linecap:round; stroke-linejoin:round; stroke-width:2; stroke-opacity:0.05; fill:none" points="251.071,968.42 2352.76,968.42 "/>
<polyline clip-path="url(#clip772)" style="stroke:#000000; stroke-linecap:round; stroke-linejoin:round; stroke-width:2; stroke-opacity:0.05; fill:none" points="251.071,953.172 2352.76,953.172 "/>
<polyline clip-path="url(#clip772)" style="stroke:#000000; stroke-linecap:round; stroke-linejoin:round; stroke-width:2; stroke-opacity:0.05; fill:none" points="251.071,939.532 2352.76,939.532 "/>
<polyline clip-path="url(#clip772)" style="stroke:#000000; stroke-linecap:round; stroke-linejoin:round; stroke-width:2; stroke-opacity:0.05; fill:none" points="251.071,849.796 2352.76,849.796 "/>
<polyline clip-path="url(#clip772)" style="stroke:#000000; stroke-linecap:round; stroke-linejoin:round; stroke-width:2; stroke-opacity:0.05; fill:none" points="251.071,797.303 2352.76,797.303 "/>
<polyline clip-path="url(#clip772)" style="stroke:#000000; stroke-linecap:round; stroke-linejoin:round; stroke-width:2; stroke-opacity:0.05; fill:none" points="251.071,760.06 2352.76,760.06 "/>
<polyline clip-path="url(#clip772)" style="stroke:#000000; stroke-linecap:round; stroke-linejoin:round; stroke-width:2; stroke-opacity:0.05; fill:none" points="251.071,731.171 2352.76,731.171 "/>
<polyline clip-path="url(#clip772)" style="stroke:#000000; stroke-linecap:round; stroke-linejoin:round; stroke-width:2; stroke-opacity:0.05; fill:none" points="251.071,707.567 2352.76,707.567 "/>
<polyline clip-path="url(#clip772)" style="stroke:#000000; stroke-linecap:round; stroke-linejoin:round; stroke-width:2; stroke-opacity:0.05; fill:none" points="251.071,687.611 2352.76,687.611 "/>
<polyline clip-path="url(#clip772)" style="stroke:#000000; stroke-linecap:round; stroke-linejoin:round; stroke-width:2; stroke-opacity:0.05; fill:none" points="251.071,670.323 2352.76,670.323 "/>
<polyline clip-path="url(#clip772)" style="stroke:#000000; stroke-linecap:round; stroke-linejoin:round; stroke-width:2; stroke-opacity:0.05; fill:none" points="251.071,655.075 2352.76,655.075 "/>
<polyline clip-path="url(#clip772)" style="stroke:#000000; stroke-linecap:round; stroke-linejoin:round; stroke-width:2; stroke-opacity:0.05; fill:none" points="251.071,551.699 2352.76,551.699 "/>
<polyline clip-path="url(#clip772)" style="stroke:#000000; stroke-linecap:round; stroke-linejoin:round; stroke-width:2; stroke-opacity:0.05; fill:none" points="251.071,499.206 2352.76,499.206 "/>
<polyline clip-path="url(#clip772)" style="stroke:#000000; stroke-linecap:round; stroke-linejoin:round; stroke-width:2; stroke-opacity:0.05; fill:none" points="251.071,461.962 2352.76,461.962 "/>
<polyline clip-path="url(#clip772)" style="stroke:#000000; stroke-linecap:round; stroke-linejoin:round; stroke-width:2; stroke-opacity:0.05; fill:none" points="251.071,433.074 2352.76,433.074 "/>
<polyline clip-path="url(#clip772)" style="stroke:#000000; stroke-linecap:round; stroke-linejoin:round; stroke-width:2; stroke-opacity:0.05; fill:none" points="251.071,409.47 2352.76,409.47 "/>
<polyline clip-path="url(#clip772)" style="stroke:#000000; stroke-linecap:round; stroke-linejoin:round; stroke-width:2; stroke-opacity:0.05; fill:none" points="251.071,389.514 2352.76,389.514 "/>
<polyline clip-path="url(#clip772)" style="stroke:#000000; stroke-linecap:round; stroke-linejoin:round; stroke-width:2; stroke-opacity:0.05; fill:none" points="251.071,372.226 2352.76,372.226 "/>
<polyline clip-path="url(#clip772)" style="stroke:#000000; stroke-linecap:round; stroke-linejoin:round; stroke-width:2; stroke-opacity:0.05; fill:none" points="251.071,356.978 2352.76,356.978 "/>
<polyline clip-path="url(#clip772)" style="stroke:#000000; stroke-linecap:round; stroke-linejoin:round; stroke-width:2; stroke-opacity:0.05; fill:none" points="251.071,343.338 2352.76,343.338 "/>
<polyline clip-path="url(#clip772)" style="stroke:#000000; stroke-linecap:round; stroke-linejoin:round; stroke-width:2; stroke-opacity:0.05; fill:none" points="251.071,343.338 2352.76,343.338 "/>
<polyline clip-path="url(#clip772)" style="stroke:#000000; stroke-linecap:round; stroke-linejoin:round; stroke-width:2; stroke-opacity:0.05; fill:none" points="251.071,253.602 2352.76,253.602 "/>
<polyline clip-path="url(#clip772)" style="stroke:#000000; stroke-linecap:round; stroke-linejoin:round; stroke-width:2; stroke-opacity:0.05; fill:none" points="251.071,201.109 2352.76,201.109 "/>
<polyline clip-path="url(#clip772)" style="stroke:#000000; stroke-linecap:round; stroke-linejoin:round; stroke-width:2; stroke-opacity:0.05; fill:none" points="251.071,163.865 2352.76,163.865 "/>
<polyline clip-path="url(#clip772)" style="stroke:#000000; stroke-linecap:round; stroke-linejoin:round; stroke-width:2; stroke-opacity:0.05; fill:none" points="251.071,134.977 2352.76,134.977 "/>
<polyline clip-path="url(#clip772)" style="stroke:#000000; stroke-linecap:round; stroke-linejoin:round; stroke-width:2; stroke-opacity:0.1; fill:none" points="1081.98,1410.9 1081.98,123.472 "/>
<polyline clip-path="url(#clip772)" style="stroke:#000000; stroke-linecap:round; stroke-linejoin:round; stroke-width:2; stroke-opacity:0.1; fill:none" points="2073.34,1410.9 2073.34,123.472 "/>
<polyline clip-path="url(#clip772)" style="stroke:#000000; stroke-linecap:round; stroke-linejoin:round; stroke-width:2; stroke-opacity:0.1; fill:none" points="251.071,1237.63 2352.76,1237.63 "/>
<polyline clip-path="url(#clip772)" style="stroke:#000000; stroke-linecap:round; stroke-linejoin:round; stroke-width:2; stroke-opacity:0.1; fill:none" points="251.071,641.435 2352.76,641.435 "/>
<polyline clip-path="url(#clip770)" style="stroke:#000000; stroke-linecap:round; stroke-linejoin:round; stroke-width:4; stroke-opacity:1; fill:none" points="251.071,1410.9 2352.76,1410.9 "/>
<polyline clip-path="url(#clip770)" style="stroke:#000000; stroke-linecap:round; stroke-linejoin:round; stroke-width:4; stroke-opacity:1; fill:none" points="1081.98,1410.9 1081.98,1392 "/>
<polyline clip-path="url(#clip770)" style="stroke:#000000; stroke-linecap:round; stroke-linejoin:round; stroke-width:4; stroke-opacity:1; fill:none" points="2073.34,1410.9 2073.34,1392 "/>
<polyline clip-path="url(#clip770)" style="stroke:#000000; stroke-linecap:round; stroke-linejoin:round; stroke-width:4; stroke-opacity:1; fill:none" points="735.516,1410.9 735.516,1401.45 "/>
<polyline clip-path="url(#clip770)" style="stroke:#000000; stroke-linecap:round; stroke-linejoin:round; stroke-width:4; stroke-opacity:1; fill:none" points="822.801,1410.9 822.801,1401.45 "/>
<polyline clip-path="url(#clip770)" style="stroke:#000000; stroke-linecap:round; stroke-linejoin:round; stroke-width:4; stroke-opacity:1; fill:none" points="884.73,1410.9 884.73,1401.45 "/>
<polyline clip-path="url(#clip770)" style="stroke:#000000; stroke-linecap:round; stroke-linejoin:round; stroke-width:4; stroke-opacity:1; fill:none" points="932.767,1410.9 932.767,1401.45 "/>
<polyline clip-path="url(#clip770)" style="stroke:#000000; stroke-linecap:round; stroke-linejoin:round; stroke-width:4; stroke-opacity:1; fill:none" points="972.015,1410.9 972.015,1401.45 "/>
<polyline clip-path="url(#clip770)" style="stroke:#000000; stroke-linecap:round; stroke-linejoin:round; stroke-width:4; stroke-opacity:1; fill:none" points="1005.2,1410.9 1005.2,1401.45 "/>
<polyline clip-path="url(#clip770)" style="stroke:#000000; stroke-linecap:round; stroke-linejoin:round; stroke-width:4; stroke-opacity:1; fill:none" points="1033.95,1410.9 1033.95,1401.45 "/>
<polyline clip-path="url(#clip770)" style="stroke:#000000; stroke-linecap:round; stroke-linejoin:round; stroke-width:4; stroke-opacity:1; fill:none" points="1059.3,1410.9 1059.3,1401.45 "/>
<polyline clip-path="url(#clip770)" style="stroke:#000000; stroke-linecap:round; stroke-linejoin:round; stroke-width:4; stroke-opacity:1; fill:none" points="1081.98,1410.9 1081.98,1401.45 "/>
<polyline clip-path="url(#clip770)" style="stroke:#000000; stroke-linecap:round; stroke-linejoin:round; stroke-width:4; stroke-opacity:1; fill:none" points="1081.98,1410.9 1081.98,1401.45 "/>
<polyline clip-path="url(#clip770)" style="stroke:#000000; stroke-linecap:round; stroke-linejoin:round; stroke-width:4; stroke-opacity:1; fill:none" points="1231.2,1410.9 1231.2,1401.45 "/>
<polyline clip-path="url(#clip770)" style="stroke:#000000; stroke-linecap:round; stroke-linejoin:round; stroke-width:4; stroke-opacity:1; fill:none" points="1318.48,1410.9 1318.48,1401.45 "/>
<polyline clip-path="url(#clip770)" style="stroke:#000000; stroke-linecap:round; stroke-linejoin:round; stroke-width:4; stroke-opacity:1; fill:none" points="1380.41,1410.9 1380.41,1401.45 "/>
<polyline clip-path="url(#clip770)" style="stroke:#000000; stroke-linecap:round; stroke-linejoin:round; stroke-width:4; stroke-opacity:1; fill:none" points="1428.45,1410.9 1428.45,1401.45 "/>
<polyline clip-path="url(#clip770)" style="stroke:#000000; stroke-linecap:round; stroke-linejoin:round; stroke-width:4; stroke-opacity:1; fill:none" points="1467.7,1410.9 1467.7,1401.45 "/>
<polyline clip-path="url(#clip770)" style="stroke:#000000; stroke-linecap:round; stroke-linejoin:round; stroke-width:4; stroke-opacity:1; fill:none" points="1500.88,1410.9 1500.88,1401.45 "/>
<polyline clip-path="url(#clip770)" style="stroke:#000000; stroke-linecap:round; stroke-linejoin:round; stroke-width:4; stroke-opacity:1; fill:none" points="1529.63,1410.9 1529.63,1401.45 "/>
<polyline clip-path="url(#clip770)" style="stroke:#000000; stroke-linecap:round; stroke-linejoin:round; stroke-width:4; stroke-opacity:1; fill:none" points="1554.98,1410.9 1554.98,1401.45 "/>
<polyline clip-path="url(#clip770)" style="stroke:#000000; stroke-linecap:round; stroke-linejoin:round; stroke-width:4; stroke-opacity:1; fill:none" points="1231.2,1410.9 1231.2,1401.45 "/>
<polyline clip-path="url(#clip770)" style="stroke:#000000; stroke-linecap:round; stroke-linejoin:round; stroke-width:4; stroke-opacity:1; fill:none" points="1318.48,1410.9 1318.48,1401.45 "/>
<polyline clip-path="url(#clip770)" style="stroke:#000000; stroke-linecap:round; stroke-linejoin:round; stroke-width:4; stroke-opacity:1; fill:none" points="1380.41,1410.9 1380.41,1401.45 "/>
<polyline clip-path="url(#clip770)" style="stroke:#000000; stroke-linecap:round; stroke-linejoin:round; stroke-width:4; stroke-opacity:1; fill:none" points="1428.45,1410.9 1428.45,1401.45 "/>
<polyline clip-path="url(#clip770)" style="stroke:#000000; stroke-linecap:round; stroke-linejoin:round; stroke-width:4; stroke-opacity:1; fill:none" points="1467.7,1410.9 1467.7,1401.45 "/>
<polyline clip-path="url(#clip770)" style="stroke:#000000; stroke-linecap:round; stroke-linejoin:round; stroke-width:4; stroke-opacity:1; fill:none" points="1500.88,1410.9 1500.88,1401.45 "/>
<polyline clip-path="url(#clip770)" style="stroke:#000000; stroke-linecap:round; stroke-linejoin:round; stroke-width:4; stroke-opacity:1; fill:none" points="1529.63,1410.9 1529.63,1401.45 "/>
<polyline clip-path="url(#clip770)" style="stroke:#000000; stroke-linecap:round; stroke-linejoin:round; stroke-width:4; stroke-opacity:1; fill:none" points="1554.98,1410.9 1554.98,1401.45 "/>
<polyline clip-path="url(#clip770)" style="stroke:#000000; stroke-linecap:round; stroke-linejoin:round; stroke-width:4; stroke-opacity:1; fill:none" points="1577.66,1410.9 1577.66,1401.45 "/>
<polyline clip-path="url(#clip770)" style="stroke:#000000; stroke-linecap:round; stroke-linejoin:round; stroke-width:4; stroke-opacity:1; fill:none" points="1577.66,1410.9 1577.66,1401.45 "/>
<polyline clip-path="url(#clip770)" style="stroke:#000000; stroke-linecap:round; stroke-linejoin:round; stroke-width:4; stroke-opacity:1; fill:none" points="1726.88,1410.9 1726.88,1401.45 "/>
<polyline clip-path="url(#clip770)" style="stroke:#000000; stroke-linecap:round; stroke-linejoin:round; stroke-width:4; stroke-opacity:1; fill:none" points="1814.16,1410.9 1814.16,1401.45 "/>
<polyline clip-path="url(#clip770)" style="stroke:#000000; stroke-linecap:round; stroke-linejoin:round; stroke-width:4; stroke-opacity:1; fill:none" points="1876.09,1410.9 1876.09,1401.45 "/>
<polyline clip-path="url(#clip770)" style="stroke:#000000; stroke-linecap:round; stroke-linejoin:round; stroke-width:4; stroke-opacity:1; fill:none" points="1924.13,1410.9 1924.13,1401.45 "/>
<polyline clip-path="url(#clip770)" style="stroke:#000000; stroke-linecap:round; stroke-linejoin:round; stroke-width:4; stroke-opacity:1; fill:none" points="1963.38,1410.9 1963.38,1401.45 "/>
<polyline clip-path="url(#clip770)" style="stroke:#000000; stroke-linecap:round; stroke-linejoin:round; stroke-width:4; stroke-opacity:1; fill:none" points="1996.56,1410.9 1996.56,1401.45 "/>
<polyline clip-path="url(#clip770)" style="stroke:#000000; stroke-linecap:round; stroke-linejoin:round; stroke-width:4; stroke-opacity:1; fill:none" points="2025.31,1410.9 2025.31,1401.45 "/>
<polyline clip-path="url(#clip770)" style="stroke:#000000; stroke-linecap:round; stroke-linejoin:round; stroke-width:4; stroke-opacity:1; fill:none" points="2050.66,1410.9 2050.66,1401.45 "/>
<polyline clip-path="url(#clip770)" style="stroke:#000000; stroke-linecap:round; stroke-linejoin:round; stroke-width:4; stroke-opacity:1; fill:none" points="2222.56,1410.9 2222.56,1401.45 "/>
<polyline clip-path="url(#clip770)" style="stroke:#000000; stroke-linecap:round; stroke-linejoin:round; stroke-width:4; stroke-opacity:1; fill:none" points="2309.84,1410.9 2309.84,1401.45 "/>
<path clip-path="url(#clip770)" d="M1046.97 1485.02 L1054.61 1485.02 L1054.61 1458.66 L1046.3 1460.32 L1046.3 1456.06 L1054.57 1454.4 L1059.24 1454.4 L1059.24 1485.02 L1066.88 1485.02 L1066.88 1488.96 L1046.97 1488.96 L1046.97 1485.02 Z" fill="#000000" fill-rule="nonzero" fill-opacity="1" /><path clip-path="url(#clip770)" d="M1086.33 1457.48 Q1082.71 1457.48 1080.89 1461.04 Q1079.08 1464.58 1079.08 1471.71 Q1079.08 1478.82 1080.89 1482.38 Q1082.71 1485.92 1086.33 1485.92 Q1089.96 1485.92 1091.77 1482.38 Q1093.59 1478.82 1093.59 1471.71 Q1093.59 1464.58 1091.77 1461.04 Q1089.96 1457.48 1086.33 1457.48 M1086.33 1453.77 Q1092.14 1453.77 1095.19 1458.38 Q1098.27 1462.96 1098.27 1471.71 Q1098.27 1480.44 1095.19 1485.04 Q1092.14 1489.63 1086.33 1489.63 Q1080.52 1489.63 1077.44 1485.04 Q1074.38 1480.44 1074.38 1471.71 Q1074.38 1462.96 1077.44 1458.38 Q1080.52 1453.77 1086.33 1453.77 Z" fill="#000000" fill-rule="nonzero" fill-opacity="1" /><path clip-path="url(#clip770)" d="M1108.29 1445.99 Q1105.74 1445.99 1104.23 1447.74 Q1102.75 1449.49 1102.75 1452.54 Q1102.75 1455.57 1104.23 1457.33 Q1105.74 1459.08 1108.29 1459.08 Q1110.85 1459.08 1112.34 1457.33 Q1113.84 1455.57 1113.84 1452.54 Q1113.84 1449.49 1112.34 1447.74 Q1110.85 1445.99 1108.29 1445.99 M1115.84 1434.09 L1115.84 1437.55 Q1114.41 1436.87 1112.94 1436.51 Q1111.49 1436.16 1110.06 1436.16 Q1106.3 1436.16 1104.31 1438.69 Q1102.33 1441.23 1102.05 1446.37 Q1103.16 1444.73 1104.83 1443.87 Q1106.51 1442.98 1108.52 1442.98 Q1112.75 1442.98 1115.2 1445.56 Q1117.66 1448.12 1117.66 1452.54 Q1117.66 1456.86 1115.1 1459.48 Q1112.54 1462.09 1108.29 1462.09 Q1103.42 1462.09 1100.85 1458.37 Q1098.27 1454.62 1098.27 1447.53 Q1098.27 1440.88 1101.43 1436.93 Q1104.59 1432.96 1109.91 1432.96 Q1111.34 1432.96 1112.79 1433.24 Q1114.26 1433.52 1115.84 1434.09 Z" fill="#000000" fill-rule="nonzero" fill-opacity="1" /><path clip-path="url(#clip770)" d="M2038.4 1485.02 L2046.04 1485.02 L2046.04 1458.66 L2037.73 1460.32 L2037.73 1456.06 L2045.99 1454.4 L2050.67 1454.4 L2050.67 1485.02 L2058.31 1485.02 L2058.31 1488.96 L2038.4 1488.96 L2038.4 1485.02 Z" fill="#000000" fill-rule="nonzero" fill-opacity="1" /><path clip-path="url(#clip770)" d="M2077.75 1457.48 Q2074.14 1457.48 2072.31 1461.04 Q2070.51 1464.58 2070.51 1471.71 Q2070.51 1478.82 2072.31 1482.38 Q2074.14 1485.92 2077.75 1485.92 Q2081.39 1485.92 2083.19 1482.38 Q2085.02 1478.82 2085.02 1471.71 Q2085.02 1464.58 2083.19 1461.04 Q2081.39 1457.48 2077.75 1457.48 M2077.75 1453.77 Q2083.56 1453.77 2086.62 1458.38 Q2089.7 1462.96 2089.7 1471.71 Q2089.7 1480.44 2086.62 1485.04 Q2083.56 1489.63 2077.75 1489.63 Q2071.94 1489.63 2068.86 1485.04 Q2065.81 1480.44 2065.81 1471.71 Q2065.81 1462.96 2068.86 1458.38 Q2071.94 1453.77 2077.75 1453.77 Z" fill="#000000" fill-rule="nonzero" fill-opacity="1" /><path clip-path="url(#clip770)" d="M2099.33 1448.21 Q2096.62 1448.21 2095.06 1449.66 Q2093.51 1451.11 2093.51 1453.65 Q2093.51 1456.19 2095.06 1457.63 Q2096.62 1459.08 2099.33 1459.08 Q2102.03 1459.08 2103.6 1457.63 Q2105.16 1456.17 2105.16 1453.65 Q2105.16 1451.11 2103.6 1449.66 Q2102.05 1448.21 2099.33 1448.21 M2095.53 1446.59 Q2093.08 1445.99 2091.71 1444.32 Q2090.35 1442.64 2090.35 1440.24 Q2090.35 1436.87 2092.74 1434.91 Q2095.15 1432.96 2099.33 1432.96 Q2103.52 1432.96 2105.91 1434.91 Q2108.3 1436.87 2108.3 1440.24 Q2108.3 1442.64 2106.92 1444.32 Q2105.57 1445.99 2103.14 1446.59 Q2105.89 1447.23 2107.41 1449.1 Q2108.96 1450.96 2108.96 1453.65 Q2108.96 1457.73 2106.45 1459.91 Q2103.97 1462.09 2099.33 1462.09 Q2094.68 1462.09 2092.18 1459.91 Q2089.7 1457.73 2089.7 1453.65 Q2089.7 1450.96 2091.24 1449.1 Q2092.78 1447.23 2095.53 1446.59 M2094.13 1440.59 Q2094.13 1442.78 2095.49 1444 Q2096.86 1445.22 2099.33 1445.22 Q2101.77 1445.22 2103.14 1444 Q2104.54 1442.78 2104.54 1440.59 Q2104.54 1438.41 2103.14 1437.19 Q2101.77 1435.97 2099.33 1435.97 Q2096.86 1435.97 2095.49 1437.19 Q2094.13 1438.41 2094.13 1440.59 Z" fill="#000000" fill-rule="nonzero" fill-opacity="1" /><path clip-path="url(#clip770)" d="M932.591 1526.67 L941.249 1526.67 L962.319 1566.42 L962.319 1526.67 L968.557 1526.67 L968.557 1574.19 L959.9 1574.19 L938.83 1534.43 L938.83 1574.19 L932.591 1574.19 L932.591 1526.67 Z" fill="#000000" fill-rule="nonzero" fill-opacity="1" /><path clip-path="url(#clip770)" d="M1011.59 1554.9 L1011.59 1557.76 L984.663 1557.76 Q985.045 1563.81 988.291 1566.99 Q991.569 1570.14 997.394 1570.14 Q1000.77 1570.14 1003.92 1569.32 Q1007.1 1568.49 1010.22 1566.83 L1010.22 1572.37 Q1007.07 1573.71 1003.76 1574.41 Q1000.45 1575.11 997.044 1575.11 Q988.514 1575.11 983.517 1570.14 Q978.552 1565.18 978.552 1556.71 Q978.552 1547.96 983.262 1542.83 Q988.005 1537.68 996.025 1537.68 Q1003.22 1537.68 1007.39 1542.33 Q1011.59 1546.94 1011.59 1554.9 M1005.73 1553.18 Q1005.67 1548.37 1003.03 1545.51 Q1000.42 1542.64 996.089 1542.64 Q991.188 1542.64 988.227 1545.41 Q985.299 1548.18 984.854 1553.21 L1005.73 1553.18 Z" fill="#000000" fill-rule="nonzero" fill-opacity="1" /><path clip-path="url(#clip770)" d="M1020.6 1560.12 L1020.6 1538.54 L1026.45 1538.54 L1026.45 1559.89 Q1026.45 1564.96 1028.43 1567.5 Q1030.4 1570.02 1034.35 1570.02 Q1039.09 1570.02 1041.83 1566.99 Q1044.6 1563.97 1044.6 1558.75 L1044.6 1538.54 L1050.45 1538.54 L1050.45 1574.19 L1044.6 1574.19 L1044.6 1568.71 Q1042.46 1571.96 1039.63 1573.55 Q1036.83 1575.11 1033.11 1575.11 Q1026.96 1575.11 1023.78 1571.29 Q1020.6 1567.47 1020.6 1560.12 M1035.33 1537.68 L1035.33 1537.68 Z" fill="#000000" fill-rule="nonzero" fill-opacity="1" /><path clip-path="url(#clip770)" d="M1068.31 1528.42 L1068.31 1538.54 L1080.37 1538.54 L1080.37 1543.09 L1068.31 1543.09 L1068.31 1562.44 Q1068.31 1566.8 1069.49 1568.04 Q1070.7 1569.28 1074.36 1569.28 L1080.37 1569.28 L1080.37 1574.19 L1074.36 1574.19 Q1067.58 1574.19 1065 1571.67 Q1062.42 1569.12 1062.42 1562.44 L1062.42 1543.09 L1058.12 1543.09 L1058.12 1538.54 L1062.42 1538.54 L1062.42 1528.42 L1068.31 1528.42 Z" fill="#000000" fill-rule="nonzero" fill-opacity="1" /><path clip-path="url(#clip770)" d="M1108.73 1544.01 Q1107.74 1543.44 1106.57 1543.18 Q1105.42 1542.9 1104.02 1542.9 Q1099.05 1542.9 1096.38 1546.14 Q1093.74 1549.36 1093.74 1555.41 L1093.74 1574.19 L1087.85 1574.19 L1087.85 1538.54 L1093.74 1538.54 L1093.74 1544.08 Q1095.59 1540.83 1098.55 1539.27 Q1101.51 1537.68 1105.74 1537.68 Q1106.34 1537.68 1107.08 1537.77 Q1107.81 1537.84 1108.7 1538 L1108.73 1544.01 Z" fill="#000000" fill-rule="nonzero" fill-opacity="1" /><path clip-path="url(#clip770)" d="M1127.25 1542.64 Q1122.54 1542.64 1119.81 1546.34 Q1117.07 1550 1117.07 1556.39 Q1117.07 1562.79 1119.77 1566.48 Q1122.51 1570.14 1127.25 1570.14 Q1131.93 1570.14 1134.67 1566.45 Q1137.41 1562.76 1137.41 1556.39 Q1137.41 1550.06 1134.67 1546.37 Q1131.93 1542.64 1127.25 1542.64 M1127.25 1537.68 Q1134.89 1537.68 1139.25 1542.64 Q1143.61 1547.61 1143.61 1556.39 Q1143.61 1565.15 1139.25 1570.14 Q1134.89 1575.11 1127.25 1575.11 Q1119.58 1575.11 1115.22 1570.14 Q1110.89 1565.15 1110.89 1556.39 Q1110.89 1547.61 1115.22 1542.64 Q1119.58 1537.68 1127.25 1537.68 Z" fill="#000000" fill-rule="nonzero" fill-opacity="1" /><path clip-path="url(#clip770)" d="M1182.95 1552.67 L1182.95 1574.19 L1177.1 1574.19 L1177.1 1552.86 Q1177.1 1547.8 1175.12 1545.29 Q1173.15 1542.77 1169.2 1542.77 Q1164.46 1542.77 1161.72 1545.79 Q1158.99 1548.82 1158.99 1554.04 L1158.99 1574.19 L1153.1 1574.19 L1153.1 1538.54 L1158.99 1538.54 L1158.99 1544.08 Q1161.09 1540.86 1163.92 1539.27 Q1166.79 1537.68 1170.51 1537.68 Q1176.65 1537.68 1179.8 1541.5 Q1182.95 1545.29 1182.95 1552.67 Z" fill="#000000" fill-rule="nonzero" fill-opacity="1" /><path clip-path="url(#clip770)" d="M1233.4 1524.66 L1233.4 1529.53 L1227.8 1529.53 Q1224.65 1529.53 1223.41 1530.8 Q1222.2 1532.08 1222.2 1535.39 L1222.2 1538.54 L1231.84 1538.54 L1231.84 1543.09 L1222.2 1543.09 L1222.2 1574.19 L1216.31 1574.19 L1216.31 1543.09 L1210.71 1543.09 L1210.71 1538.54 L1216.31 1538.54 L1216.31 1536.05 Q1216.31 1530.1 1219.08 1527.4 Q1221.85 1524.66 1227.86 1524.66 L1233.4 1524.66 Z" fill="#000000" fill-rule="nonzero" fill-opacity="1" /><path clip-path="url(#clip770)" d="M1238.3 1524.66 L1244.16 1524.66 L1244.16 1574.19 L1238.3 1574.19 L1238.3 1524.66 Z" fill="#000000" fill-rule="nonzero" fill-opacity="1" /><path clip-path="url(#clip770)" d="M1255.81 1560.12 L1255.81 1538.54 L1261.67 1538.54 L1261.67 1559.89 Q1261.67 1564.96 1263.64 1567.5 Q1265.61 1570.02 1269.56 1570.02 Q1274.3 1570.02 1277.04 1566.99 Q1279.81 1563.97 1279.81 1558.75 L1279.81 1538.54 L1285.67 1538.54 L1285.67 1574.19 L1279.81 1574.19 L1279.81 1568.71 Q1277.68 1571.96 1274.84 1573.55 Q1272.04 1575.11 1268.32 1575.11 Q1262.18 1575.11 1258.99 1571.29 Q1255.81 1567.47 1255.81 1560.12 M1270.55 1537.68 L1270.55 1537.68 Z" fill="#000000" fill-rule="nonzero" fill-opacity="1" /><path clip-path="url(#clip770)" d="M1327.36 1538.54 L1314.47 1555.88 L1328.03 1574.19 L1321.12 1574.19 L1310.75 1560.18 L1300.37 1574.19 L1293.46 1574.19 L1307.31 1555.53 L1294.64 1538.54 L1301.55 1538.54 L1311 1551.24 L1320.45 1538.54 L1327.36 1538.54 Z" fill="#000000" fill-rule="nonzero" fill-opacity="1" /><path clip-path="url(#clip770)" d="M1371.09 1524.72 Q1366.83 1532.04 1364.76 1539.21 Q1362.69 1546.37 1362.69 1553.72 Q1362.69 1561.07 1364.76 1568.3 Q1366.86 1575.49 1371.09 1582.78 L1366 1582.78 Q1361.23 1575.3 1358.84 1568.07 Q1356.48 1560.85 1356.48 1553.72 Q1356.48 1546.62 1358.84 1539.43 Q1361.19 1532.24 1366 1524.72 L1371.09 1524.72 Z" fill="#000000" fill-rule="nonzero" fill-opacity="1" /><path clip-path="url(#clip770)" d="M1405.18 1539.59 L1405.18 1545.13 Q1402.7 1543.85 1400.03 1543.22 Q1397.35 1542.58 1394.49 1542.58 Q1390.13 1542.58 1387.93 1543.92 Q1385.77 1545.25 1385.77 1547.93 Q1385.77 1549.96 1387.33 1551.14 Q1388.89 1552.29 1393.6 1553.34 L1395.6 1553.78 Q1401.84 1555.12 1404.45 1557.57 Q1407.09 1559.99 1407.09 1564.35 Q1407.09 1569.32 1403.14 1572.21 Q1399.23 1575.11 1392.35 1575.11 Q1389.49 1575.11 1386.37 1574.54 Q1383.28 1573.99 1379.85 1572.88 L1379.85 1566.83 Q1383.09 1568.52 1386.24 1569.38 Q1389.39 1570.21 1392.48 1570.21 Q1396.62 1570.21 1398.85 1568.81 Q1401.08 1567.37 1401.08 1564.8 Q1401.08 1562.41 1399.45 1561.14 Q1397.86 1559.86 1392.42 1558.68 L1390.38 1558.21 Q1384.94 1557.06 1382.52 1554.71 Q1380.1 1552.32 1380.1 1548.18 Q1380.1 1543.15 1383.67 1540.42 Q1387.23 1537.68 1393.79 1537.68 Q1397.03 1537.68 1399.9 1538.16 Q1402.76 1538.63 1405.18 1539.59 Z" fill="#000000" fill-rule="nonzero" fill-opacity="1" /><path clip-path="url(#clip770)" d="M1414.63 1539.97 L1440.32 1539.97 L1440.32 1542.99 L1414.63 1542.99 L1414.63 1539.97 Z" fill="#000000" fill-rule="nonzero" fill-opacity="1" /><path clip-path="url(#clip770)" d="M1449.65 1549.42 L1456.14 1549.42 L1456.14 1529.98 L1449.04 1531.28 L1449.04 1527.59 L1456.36 1526.35 L1460.72 1526.35 L1460.72 1549.42 L1467.25 1549.42 L1467.25 1552.92 L1449.65 1552.92 L1449.65 1549.42 Z" fill="#000000" fill-rule="nonzero" fill-opacity="1" /><path clip-path="url(#clip770)" d="M1523.33 1539.91 L1523.33 1545.38 Q1520.85 1544.01 1518.33 1543.34 Q1515.85 1542.64 1513.3 1542.64 Q1507.61 1542.64 1504.45 1546.27 Q1501.3 1549.87 1501.3 1556.39 Q1501.3 1562.92 1504.45 1566.55 Q1507.61 1570.14 1513.3 1570.14 Q1515.85 1570.14 1518.33 1569.47 Q1520.85 1568.77 1523.33 1567.41 L1523.33 1572.82 Q1520.88 1573.96 1518.24 1574.54 Q1515.63 1575.11 1512.67 1575.11 Q1504.61 1575.11 1499.87 1570.05 Q1495.13 1564.99 1495.13 1556.39 Q1495.13 1547.67 1499.9 1542.68 Q1504.71 1537.68 1513.05 1537.68 Q1515.75 1537.68 1518.33 1538.25 Q1520.91 1538.79 1523.33 1539.91 Z" fill="#000000" fill-rule="nonzero" fill-opacity="1" /><path clip-path="url(#clip770)" d="M1561.27 1545.38 Q1563.46 1541.43 1566.52 1539.56 Q1569.58 1537.68 1573.71 1537.68 Q1579.28 1537.68 1582.31 1541.59 Q1585.33 1545.48 1585.33 1552.67 L1585.33 1574.19 L1579.44 1574.19 L1579.44 1552.86 Q1579.44 1547.74 1577.63 1545.25 Q1575.81 1542.77 1572.09 1542.77 Q1567.54 1542.77 1564.9 1545.79 Q1562.26 1548.82 1562.26 1554.04 L1562.26 1574.19 L1556.37 1574.19 L1556.37 1552.86 Q1556.37 1547.7 1554.55 1545.25 Q1552.74 1542.77 1548.95 1542.77 Q1544.46 1542.77 1541.82 1545.83 Q1539.18 1548.85 1539.18 1554.04 L1539.18 1574.19 L1533.29 1574.19 L1533.29 1538.54 L1539.18 1538.54 L1539.18 1544.08 Q1541.18 1540.8 1543.99 1539.24 Q1546.79 1537.68 1550.64 1537.68 Q1554.52 1537.68 1557.23 1539.65 Q1559.96 1541.62 1561.27 1545.38 Z" fill="#000000" fill-rule="nonzero" fill-opacity="1" /><path clip-path="url(#clip770)" d="M1595.23 1539.97 L1620.92 1539.97 L1620.92 1542.99 L1595.23 1542.99 L1595.23 1539.97 Z" fill="#000000" fill-rule="nonzero" fill-opacity="1" /><path clip-path="url(#clip770)" d="M1633.81 1549.3 L1647.3 1549.3 L1647.3 1552.92 L1628.27 1552.92 L1628.27 1549.42 Q1629.35 1548.44 1631.35 1546.65 Q1642.3 1536.95 1642.3 1533.95 Q1642.3 1531.85 1640.65 1530.58 Q1638.99 1529.28 1636.29 1529.28 Q1634.63 1529.28 1632.69 1529.85 Q1630.75 1530.39 1628.46 1531.5 L1628.46 1527.59 Q1630.91 1526.7 1633.01 1526.25 Q1635.14 1525.81 1636.96 1525.81 Q1641.57 1525.81 1644.34 1527.91 Q1647.11 1530.01 1647.11 1533.44 Q1647.11 1537.87 1636.57 1546.91 Q1634.79 1548.44 1633.81 1549.3 Z" fill="#000000" fill-rule="nonzero" fill-opacity="1" /><path clip-path="url(#clip770)" d="M1656.63 1524.72 L1661.72 1524.72 Q1666.49 1532.24 1668.85 1539.43 Q1671.24 1546.62 1671.24 1553.72 Q1671.24 1560.85 1668.85 1568.07 Q1666.49 1575.3 1661.72 1582.78 L1656.63 1582.78 Q1660.86 1575.49 1662.93 1568.3 Q1665.03 1561.07 1665.03 1553.72 Q1665.03 1546.37 1662.93 1539.21 Q1660.86 1532.04 1656.63 1524.72 Z" fill="#000000" fill-rule="nonzero" fill-opacity="1" /><polyline clip-path="url(#clip770)" style="stroke:#000000; stroke-linecap:round; stroke-linejoin:round; stroke-width:4; stroke-opacity:1; fill:none" points="251.071,1410.9 251.071,123.472 "/>
<polyline clip-path="url(#clip770)" style="stroke:#000000; stroke-linecap:round; stroke-linejoin:round; stroke-width:4; stroke-opacity:1; fill:none" points="251.071,1237.63 269.969,1237.63 "/>
<polyline clip-path="url(#clip770)" style="stroke:#000000; stroke-linecap:round; stroke-linejoin:round; stroke-width:4; stroke-opacity:1; fill:none" points="251.071,641.435 269.969,641.435 "/>
<polyline clip-path="url(#clip770)" style="stroke:#000000; stroke-linecap:round; stroke-linejoin:round; stroke-width:4; stroke-opacity:1; fill:none" points="251.071,1393.5 260.52,1393.5 "/>
<polyline clip-path="url(#clip770)" style="stroke:#000000; stroke-linecap:round; stroke-linejoin:round; stroke-width:4; stroke-opacity:1; fill:none" points="251.071,1356.25 260.52,1356.25 "/>
<polyline clip-path="url(#clip770)" style="stroke:#000000; stroke-linecap:round; stroke-linejoin:round; stroke-width:4; stroke-opacity:1; fill:none" points="251.071,1327.37 260.52,1327.37 "/>
<polyline clip-path="url(#clip770)" style="stroke:#000000; stroke-linecap:round; stroke-linejoin:round; stroke-width:4; stroke-opacity:1; fill:none" points="251.071,1303.76 260.52,1303.76 "/>
<polyline clip-path="url(#clip770)" style="stroke:#000000; stroke-linecap:round; stroke-linejoin:round; stroke-width:4; stroke-opacity:1; fill:none" points="251.071,1283.8 260.52,1283.8 "/>
<polyline clip-path="url(#clip770)" style="stroke:#000000; stroke-linecap:round; stroke-linejoin:round; stroke-width:4; stroke-opacity:1; fill:none" points="251.071,1266.52 260.52,1266.52 "/>
<polyline clip-path="url(#clip770)" style="stroke:#000000; stroke-linecap:round; stroke-linejoin:round; stroke-width:4; stroke-opacity:1; fill:none" points="251.071,1251.27 260.52,1251.27 "/>
<polyline clip-path="url(#clip770)" style="stroke:#000000; stroke-linecap:round; stroke-linejoin:round; stroke-width:4; stroke-opacity:1; fill:none" points="251.071,1237.63 260.52,1237.63 "/>
<polyline clip-path="url(#clip770)" style="stroke:#000000; stroke-linecap:round; stroke-linejoin:round; stroke-width:4; stroke-opacity:1; fill:none" points="251.071,1237.63 260.52,1237.63 "/>
<polyline clip-path="url(#clip770)" style="stroke:#000000; stroke-linecap:round; stroke-linejoin:round; stroke-width:4; stroke-opacity:1; fill:none" points="251.071,1147.89 260.52,1147.89 "/>
<polyline clip-path="url(#clip770)" style="stroke:#000000; stroke-linecap:round; stroke-linejoin:round; stroke-width:4; stroke-opacity:1; fill:none" points="251.071,1095.4 260.52,1095.4 "/>
<polyline clip-path="url(#clip770)" style="stroke:#000000; stroke-linecap:round; stroke-linejoin:round; stroke-width:4; stroke-opacity:1; fill:none" points="251.071,1058.16 260.52,1058.16 "/>
<polyline clip-path="url(#clip770)" style="stroke:#000000; stroke-linecap:round; stroke-linejoin:round; stroke-width:4; stroke-opacity:1; fill:none" points="251.071,1029.27 260.52,1029.27 "/>
<polyline clip-path="url(#clip770)" style="stroke:#000000; stroke-linecap:round; stroke-linejoin:round; stroke-width:4; stroke-opacity:1; fill:none" points="251.071,1005.66 260.52,1005.66 "/>
<polyline clip-path="url(#clip770)" style="stroke:#000000; stroke-linecap:round; stroke-linejoin:round; stroke-width:4; stroke-opacity:1; fill:none" points="251.071,985.708 260.52,985.708 "/>
<polyline clip-path="url(#clip770)" style="stroke:#000000; stroke-linecap:round; stroke-linejoin:round; stroke-width:4; stroke-opacity:1; fill:none" points="251.071,968.42 260.52,968.42 "/>
<polyline clip-path="url(#clip770)" style="stroke:#000000; stroke-linecap:round; stroke-linejoin:round; stroke-width:4; stroke-opacity:1; fill:none" points="251.071,953.172 260.52,953.172 "/>
<polyline clip-path="url(#clip770)" style="stroke:#000000; stroke-linecap:round; stroke-linejoin:round; stroke-width:4; stroke-opacity:1; fill:none" points="251.071,1147.89 260.52,1147.89 "/>
<polyline clip-path="url(#clip770)" style="stroke:#000000; stroke-linecap:round; stroke-linejoin:round; stroke-width:4; stroke-opacity:1; fill:none" points="251.071,1095.4 260.52,1095.4 "/>
<polyline clip-path="url(#clip770)" style="stroke:#000000; stroke-linecap:round; stroke-linejoin:round; stroke-width:4; stroke-opacity:1; fill:none" points="251.071,1058.16 260.52,1058.16 "/>
<polyline clip-path="url(#clip770)" style="stroke:#000000; stroke-linecap:round; stroke-linejoin:round; stroke-width:4; stroke-opacity:1; fill:none" points="251.071,1029.27 260.52,1029.27 "/>
<polyline clip-path="url(#clip770)" style="stroke:#000000; stroke-linecap:round; stroke-linejoin:round; stroke-width:4; stroke-opacity:1; fill:none" points="251.071,1005.66 260.52,1005.66 "/>
<polyline clip-path="url(#clip770)" style="stroke:#000000; stroke-linecap:round; stroke-linejoin:round; stroke-width:4; stroke-opacity:1; fill:none" points="251.071,985.708 260.52,985.708 "/>
<polyline clip-path="url(#clip770)" style="stroke:#000000; stroke-linecap:round; stroke-linejoin:round; stroke-width:4; stroke-opacity:1; fill:none" points="251.071,968.42 260.52,968.42 "/>
<polyline clip-path="url(#clip770)" style="stroke:#000000; stroke-linecap:round; stroke-linejoin:round; stroke-width:4; stroke-opacity:1; fill:none" points="251.071,953.172 260.52,953.172 "/>
<polyline clip-path="url(#clip770)" style="stroke:#000000; stroke-linecap:round; stroke-linejoin:round; stroke-width:4; stroke-opacity:1; fill:none" points="251.071,939.532 260.52,939.532 "/>
<polyline clip-path="url(#clip770)" style="stroke:#000000; stroke-linecap:round; stroke-linejoin:round; stroke-width:4; stroke-opacity:1; fill:none" points="251.071,849.796 260.52,849.796 "/>
<polyline clip-path="url(#clip770)" style="stroke:#000000; stroke-linecap:round; stroke-linejoin:round; stroke-width:4; stroke-opacity:1; fill:none" points="251.071,797.303 260.52,797.303 "/>
<polyline clip-path="url(#clip770)" style="stroke:#000000; stroke-linecap:round; stroke-linejoin:round; stroke-width:4; stroke-opacity:1; fill:none" points="251.071,760.06 260.52,760.06 "/>
<polyline clip-path="url(#clip770)" style="stroke:#000000; stroke-linecap:round; stroke-linejoin:round; stroke-width:4; stroke-opacity:1; fill:none" points="251.071,731.171 260.52,731.171 "/>
<polyline clip-path="url(#clip770)" style="stroke:#000000; stroke-linecap:round; stroke-linejoin:round; stroke-width:4; stroke-opacity:1; fill:none" points="251.071,707.567 260.52,707.567 "/>
<polyline clip-path="url(#clip770)" style="stroke:#000000; stroke-linecap:round; stroke-linejoin:round; stroke-width:4; stroke-opacity:1; fill:none" points="251.071,687.611 260.52,687.611 "/>
<polyline clip-path="url(#clip770)" style="stroke:#000000; stroke-linecap:round; stroke-linejoin:round; stroke-width:4; stroke-opacity:1; fill:none" points="251.071,670.323 260.52,670.323 "/>
<polyline clip-path="url(#clip770)" style="stroke:#000000; stroke-linecap:round; stroke-linejoin:round; stroke-width:4; stroke-opacity:1; fill:none" points="251.071,655.075 260.52,655.075 "/>
<polyline clip-path="url(#clip770)" style="stroke:#000000; stroke-linecap:round; stroke-linejoin:round; stroke-width:4; stroke-opacity:1; fill:none" points="251.071,551.699 260.52,551.699 "/>
<polyline clip-path="url(#clip770)" style="stroke:#000000; stroke-linecap:round; stroke-linejoin:round; stroke-width:4; stroke-opacity:1; fill:none" points="251.071,499.206 260.52,499.206 "/>
<polyline clip-path="url(#clip770)" style="stroke:#000000; stroke-linecap:round; stroke-linejoin:round; stroke-width:4; stroke-opacity:1; fill:none" points="251.071,461.962 260.52,461.962 "/>
<polyline clip-path="url(#clip770)" style="stroke:#000000; stroke-linecap:round; stroke-linejoin:round; stroke-width:4; stroke-opacity:1; fill:none" points="251.071,433.074 260.52,433.074 "/>
<polyline clip-path="url(#clip770)" style="stroke:#000000; stroke-linecap:round; stroke-linejoin:round; stroke-width:4; stroke-opacity:1; fill:none" points="251.071,409.47 260.52,409.47 "/>
<polyline clip-path="url(#clip770)" style="stroke:#000000; stroke-linecap:round; stroke-linejoin:round; stroke-width:4; stroke-opacity:1; fill:none" points="251.071,389.514 260.52,389.514 "/>
<polyline clip-path="url(#clip770)" style="stroke:#000000; stroke-linecap:round; stroke-linejoin:round; stroke-width:4; stroke-opacity:1; fill:none" points="251.071,372.226 260.52,372.226 "/>
<polyline clip-path="url(#clip770)" style="stroke:#000000; stroke-linecap:round; stroke-linejoin:round; stroke-width:4; stroke-opacity:1; fill:none" points="251.071,356.978 260.52,356.978 "/>
<polyline clip-path="url(#clip770)" style="stroke:#000000; stroke-linecap:round; stroke-linejoin:round; stroke-width:4; stroke-opacity:1; fill:none" points="251.071,343.338 260.52,343.338 "/>
<polyline clip-path="url(#clip770)" style="stroke:#000000; stroke-linecap:round; stroke-linejoin:round; stroke-width:4; stroke-opacity:1; fill:none" points="251.071,343.338 260.52,343.338 "/>
<polyline clip-path="url(#clip770)" style="stroke:#000000; stroke-linecap:round; stroke-linejoin:round; stroke-width:4; stroke-opacity:1; fill:none" points="251.071,253.602 260.52,253.602 "/>
<polyline clip-path="url(#clip770)" style="stroke:#000000; stroke-linecap:round; stroke-linejoin:round; stroke-width:4; stroke-opacity:1; fill:none" points="251.071,201.109 260.52,201.109 "/>
<polyline clip-path="url(#clip770)" style="stroke:#000000; stroke-linecap:round; stroke-linejoin:round; stroke-width:4; stroke-opacity:1; fill:none" points="251.071,163.865 260.52,163.865 "/>
<polyline clip-path="url(#clip770)" style="stroke:#000000; stroke-linecap:round; stroke-linejoin:round; stroke-width:4; stroke-opacity:1; fill:none" points="251.071,134.977 260.52,134.977 "/>
<path clip-path="url(#clip770)" d="M114.931 1257.42 L122.57 1257.42 L122.57 1231.06 L114.26 1232.72 L114.26 1228.46 L122.524 1226.8 L127.2 1226.8 L127.2 1257.42 L134.839 1257.42 L134.839 1261.36 L114.931 1261.36 L114.931 1257.42 Z" fill="#000000" fill-rule="nonzero" fill-opacity="1" /><path clip-path="url(#clip770)" d="M154.283 1229.88 Q150.672 1229.88 148.843 1233.44 Q147.038 1236.98 147.038 1244.11 Q147.038 1251.22 148.843 1254.78 Q150.672 1258.32 154.283 1258.32 Q157.917 1258.32 159.723 1254.78 Q161.552 1251.22 161.552 1244.11 Q161.552 1236.98 159.723 1233.44 Q157.917 1229.88 154.283 1229.88 M154.283 1226.17 Q160.093 1226.17 163.149 1230.78 Q166.227 1235.36 166.227 1244.11 Q166.227 1252.84 163.149 1257.44 Q160.093 1262.03 154.283 1262.03 Q148.473 1262.03 145.394 1257.44 Q142.339 1252.84 142.339 1244.11 Q142.339 1235.36 145.394 1230.78 Q148.473 1226.17 154.283 1226.17 Z" fill="#000000" fill-rule="nonzero" fill-opacity="1" /><path clip-path="url(#clip770)" d="M166.227 1220.27 L190.339 1220.27 L190.339 1223.47 L166.227 1223.47 L166.227 1220.27 Z" fill="#000000" fill-rule="nonzero" fill-opacity="1" /><path clip-path="url(#clip770)" d="M201.812 1230.75 L215.071 1230.75 L215.071 1233.95 L197.241 1233.95 L197.241 1230.75 Q199.404 1228.51 203.128 1224.75 Q206.871 1220.97 207.83 1219.88 Q209.655 1217.83 210.369 1216.42 Q211.103 1214.99 211.103 1213.61 Q211.103 1211.38 209.523 1209.97 Q207.962 1208.56 205.442 1208.56 Q203.655 1208.56 201.661 1209.18 Q199.686 1209.8 197.43 1211.06 L197.43 1207.22 Q199.724 1206.3 201.718 1205.83 Q203.711 1205.36 205.366 1205.36 Q209.73 1205.36 212.325 1207.54 Q214.921 1209.72 214.921 1213.37 Q214.921 1215.1 214.263 1216.66 Q213.623 1218.2 211.912 1220.31 Q211.441 1220.86 208.921 1223.47 Q206.401 1226.07 201.812 1230.75 Z" fill="#000000" fill-rule="nonzero" fill-opacity="1" /><path clip-path="url(#clip770)" d="M144.366 661.227 L152.004 661.227 L152.004 634.862 L143.694 636.528 L143.694 632.269 L151.958 630.602 L156.634 630.602 L156.634 661.227 L164.273 661.227 L164.273 665.162 L144.366 665.162 L144.366 661.227 Z" fill="#000000" fill-rule="nonzero" fill-opacity="1" /><path clip-path="url(#clip770)" d="M183.717 633.681 Q180.106 633.681 178.277 637.246 Q176.472 640.788 176.472 647.917 Q176.472 655.024 178.277 658.588 Q180.106 662.13 183.717 662.13 Q187.351 662.13 189.157 658.588 Q190.986 655.024 190.986 647.917 Q190.986 640.788 189.157 637.246 Q187.351 633.681 183.717 633.681 M183.717 629.977 Q189.527 629.977 192.583 634.584 Q195.662 639.167 195.662 647.917 Q195.662 656.644 192.583 661.25 Q189.527 665.834 183.717 665.834 Q177.907 665.834 174.828 661.25 Q171.773 656.644 171.773 647.917 Q171.773 639.167 174.828 634.584 Q177.907 629.977 183.717 629.977 Z" fill="#000000" fill-rule="nonzero" fill-opacity="1" /><path clip-path="url(#clip770)" d="M205.366 612.173 Q202.432 612.173 200.947 615.07 Q199.48 617.947 199.48 623.74 Q199.48 629.514 200.947 632.411 Q202.432 635.288 205.366 635.288 Q208.319 635.288 209.786 632.411 Q211.272 629.514 211.272 623.74 Q211.272 617.947 209.786 615.07 Q208.319 612.173 205.366 612.173 M205.366 609.164 Q210.087 609.164 212.57 612.907 Q215.071 616.631 215.071 623.74 Q215.071 630.831 212.57 634.573 Q210.087 638.297 205.366 638.297 Q200.646 638.297 198.144 634.573 Q195.662 630.831 195.662 623.74 Q195.662 616.631 198.144 612.907 Q200.646 609.164 205.366 609.164 Z" fill="#000000" fill-rule="nonzero" fill-opacity="1" /><path clip-path="url(#clip770)" d="M18.0438 787.3 L24.314 787.3 Q22.5634 790.96 21.704 794.207 Q20.8447 797.453 20.8447 800.477 Q20.8447 805.729 22.8817 808.593 Q24.9187 811.426 28.6745 811.426 Q31.8255 811.426 33.4488 809.548 Q35.0402 807.638 36.0269 802.355 L36.8226 798.472 Q38.1912 791.279 41.6605 787.873 Q45.098 784.435 50.8908 784.435 Q57.7976 784.435 61.3624 789.082 Q64.9272 793.698 64.9272 802.641 Q64.9272 806.015 64.1633 809.835 Q63.3994 813.622 61.9035 817.696 L55.2831 817.696 Q57.4793 813.781 58.5933 810.026 Q59.7073 806.27 59.7073 802.641 Q59.7073 797.135 57.543 794.143 Q55.3786 791.151 51.3682 791.151 Q47.8671 791.151 45.8937 793.316 Q43.9204 795.448 42.9337 800.35 L42.1698 804.265 Q40.7375 811.458 37.682 814.673 Q34.6264 817.887 29.1837 817.887 Q22.8817 817.887 19.2532 813.463 Q15.6248 809.007 15.6248 801.209 Q15.6248 797.867 16.2295 794.398 Q16.8343 790.928 18.0438 787.3 Z" fill="#000000" fill-rule="nonzero" fill-opacity="1" /><path clip-path="url(#clip770)" d="M16.4842 764.256 L16.4842 758.845 L70.0516 775.396 L70.0516 780.807 L16.4842 764.256 Z" fill="#000000" fill-rule="nonzero" fill-opacity="1" /><path clip-path="url(#clip770)" d="M16.4842 752.448 L16.4842 743.79 L56.238 722.72 L16.4842 722.72 L16.4842 716.482 L64.0042 716.482 L64.0042 725.139 L24.2503 746.209 L64.0042 746.209 L64.0042 752.448 L16.4842 752.448 Z" fill="#000000" fill-rule="nonzero" fill-opacity="1" /><path clip-path="url(#clip770)" d="M778.233 14.0809 L778.233 22.0612 Q773.574 19.8332 769.442 18.7395 Q765.311 17.6457 761.462 17.6457 Q754.778 17.6457 751.132 20.2383 Q747.527 22.8309 747.527 27.611 Q747.527 31.6214 749.917 33.6873 Q752.348 35.7128 759.072 36.9686 L764.014 37.9813 Q773.169 39.7232 777.504 44.1387 Q781.879 48.5136 781.879 55.8863 Q781.879 64.6767 775.964 69.2137 Q770.091 73.7508 758.708 73.7508 Q754.414 73.7508 749.553 72.7785 Q744.732 71.8063 739.547 69.9024 L739.547 61.4765 Q744.529 64.2716 749.309 65.6895 Q754.09 67.1073 758.708 67.1073 Q765.716 67.1073 769.523 64.3527 Q773.331 61.598 773.331 56.4939 Q773.331 52.0379 770.577 49.5264 Q767.863 47.0148 761.624 45.759 L756.642 44.7868 Q747.487 42.9639 743.395 39.075 Q739.304 35.1862 739.304 28.2591 Q739.304 20.2383 744.935 15.6203 Q750.606 11.0023 760.53 11.0023 Q764.784 11.0023 769.199 11.7719 Q773.615 12.5416 778.233 14.0809 Z" fill="#000000" fill-rule="nonzero" fill-opacity="1" /><path clip-path="url(#clip770)" d="M794.315 27.2059 L801.769 27.2059 L801.769 72.576 L794.315 72.576 L794.315 27.2059 M794.315 9.54393 L801.769 9.54393 L801.769 18.9825 L794.315 18.9825 L794.315 9.54393 Z" fill="#000000" fill-rule="nonzero" fill-opacity="1" /><path clip-path="url(#clip770)" d="M847.22 49.3643 Q847.22 41.2625 843.858 36.8065 Q840.536 32.3505 834.5 32.3505 Q828.505 32.3505 825.142 36.8065 Q821.821 41.2625 821.821 49.3643 Q821.821 57.4256 825.142 61.8816 Q828.505 66.3376 834.5 66.3376 Q840.536 66.3376 843.858 61.8816 Q847.22 57.4256 847.22 49.3643 M854.673 66.9452 Q854.673 78.5308 849.529 84.1616 Q844.384 89.8329 833.771 89.8329 Q829.841 89.8329 826.358 89.2252 Q822.874 88.6581 819.593 87.4428 L819.593 80.1917 Q822.874 81.9741 826.074 82.8248 Q829.274 83.6755 832.596 83.6755 Q839.928 83.6755 843.574 79.8271 Q847.22 76.0193 847.22 68.282 L847.22 64.5957 Q844.911 68.6061 841.306 70.5911 Q837.7 72.576 832.677 72.576 Q824.332 72.576 819.228 66.2161 Q814.124 59.8562 814.124 49.3643 Q814.124 38.832 819.228 32.472 Q824.332 26.1121 832.677 26.1121 Q837.7 26.1121 841.306 28.0971 Q844.911 30.082 847.22 34.0924 L847.22 27.2059 L854.673 27.2059 L854.673 66.9452 Z" fill="#000000" fill-rule="nonzero" fill-opacity="1" /><path clip-path="url(#clip770)" d="M907.74 45.1919 L907.74 72.576 L900.287 72.576 L900.287 45.4349 Q900.287 38.994 897.775 35.7938 Q895.264 32.5936 890.24 32.5936 Q884.205 32.5936 880.721 36.4419 Q877.237 40.2903 877.237 46.9338 L877.237 72.576 L869.743 72.576 L869.743 27.2059 L877.237 27.2059 L877.237 34.2544 Q879.911 30.163 883.516 28.1376 Q887.162 26.1121 891.901 26.1121 Q899.72 26.1121 903.73 30.9732 Q907.74 35.7938 907.74 45.1919 Z" fill="#000000" fill-rule="nonzero" fill-opacity="1" /><path clip-path="url(#clip770)" d="M943.226 49.7694 Q934.193 49.7694 930.709 51.8354 Q927.225 53.9013 927.225 58.8839 Q927.225 62.8538 929.818 65.2034 Q932.451 67.5124 936.947 67.5124 Q943.145 67.5124 946.872 63.1374 Q950.639 58.7219 950.639 51.4303 L950.639 49.7694 L943.226 49.7694 M958.093 46.6907 L958.093 72.576 L950.639 72.576 L950.639 65.6895 Q948.087 69.8214 944.279 71.8063 Q940.472 73.7508 934.962 73.7508 Q927.995 73.7508 923.863 69.8619 Q919.772 65.9325 919.772 59.3701 Q919.772 51.7138 924.876 47.825 Q930.02 43.9361 940.188 43.9361 L950.639 43.9361 L950.639 43.2069 Q950.639 38.0623 947.237 35.2672 Q943.874 32.4315 937.758 32.4315 Q933.869 32.4315 930.182 33.3632 Q926.496 34.295 923.093 36.1584 L923.093 29.2718 Q927.185 27.692 931.033 26.9223 Q934.881 26.1121 938.527 26.1121 Q948.371 26.1121 953.232 31.2163 Q958.093 36.3204 958.093 46.6907 Z" fill="#000000" fill-rule="nonzero" fill-opacity="1" /><path clip-path="url(#clip770)" d="M973.446 9.54393 L980.9 9.54393 L980.9 72.576 L973.446 72.576 L973.446 9.54393 Z" fill="#000000" fill-rule="nonzero" fill-opacity="1" /><path clip-path="url(#clip770)" d="M1009.74 12.096 L1016.63 12.096 L995.564 80.2727 L988.677 80.2727 L1009.74 12.096 Z" fill="#000000" fill-rule="nonzero" fill-opacity="1" /><path clip-path="url(#clip770)" d="M1024.77 12.096 L1035.79 12.096 L1062.61 62.6918 L1062.61 12.096 L1070.55 12.096 L1070.55 72.576 L1059.53 72.576 L1032.71 21.9802 L1032.71 72.576 L1024.77 72.576 L1024.77 12.096 Z" fill="#000000" fill-rule="nonzero" fill-opacity="1" /><path clip-path="url(#clip770)" d="M1104.09 32.4315 Q1098.09 32.4315 1094.61 37.1306 Q1091.12 41.7891 1091.12 49.9314 Q1091.12 58.0738 1094.57 62.7728 Q1098.05 67.4314 1104.09 67.4314 Q1110.04 67.4314 1113.53 62.7323 Q1117.01 58.0333 1117.01 49.9314 Q1117.01 41.8701 1113.53 37.1711 Q1110.04 32.4315 1104.09 32.4315 M1104.09 26.1121 Q1113.81 26.1121 1119.36 32.4315 Q1124.91 38.7509 1124.91 49.9314 Q1124.91 61.0714 1119.36 67.4314 Q1113.81 73.7508 1104.09 73.7508 Q1094.32 73.7508 1088.78 67.4314 Q1083.27 61.0714 1083.27 49.9314 Q1083.27 38.7509 1088.78 32.4315 Q1094.32 26.1121 1104.09 26.1121 Z" fill="#000000" fill-rule="nonzero" fill-opacity="1" /><path clip-path="url(#clip770)" d="M1137.26 27.2059 L1144.72 27.2059 L1144.72 72.576 L1137.26 72.576 L1137.26 27.2059 M1137.26 9.54393 L1144.72 9.54393 L1144.72 18.9825 L1137.26 18.9825 L1137.26 9.54393 Z" fill="#000000" fill-rule="nonzero" fill-opacity="1" /><path clip-path="url(#clip770)" d="M1189.24 28.5427 L1189.24 35.5912 Q1186.08 33.9709 1182.68 33.1607 Q1179.27 32.3505 1175.63 32.3505 Q1170.08 32.3505 1167.28 34.0519 Q1164.53 35.7533 1164.53 39.156 Q1164.53 41.7486 1166.51 43.2475 Q1168.5 44.7058 1174.49 46.0426 L1177.04 46.6097 Q1184.98 48.3111 1188.31 51.4303 Q1191.67 54.509 1191.67 60.0587 Q1191.67 66.3781 1186.65 70.0644 Q1181.66 73.7508 1172.91 73.7508 Q1169.27 73.7508 1165.3 73.0216 Q1161.37 72.3329 1156.99 70.9151 L1156.99 63.2184 Q1161.12 65.3654 1165.13 66.4591 Q1169.15 67.5124 1173.07 67.5124 Q1178.34 67.5124 1181.18 65.73 Q1184.01 63.9071 1184.01 60.6258 Q1184.01 57.5877 1181.95 55.9673 Q1179.92 54.3469 1172.99 52.8481 L1170.4 52.2405 Q1163.47 50.7821 1160.4 47.7845 Q1157.32 44.7463 1157.32 39.4801 Q1157.32 33.0797 1161.85 29.5959 Q1166.39 26.1121 1174.74 26.1121 Q1178.87 26.1121 1182.51 26.7198 Q1186.16 27.3274 1189.24 28.5427 Z" fill="#000000" fill-rule="nonzero" fill-opacity="1" /><path clip-path="url(#clip770)" d="M1242.35 48.0275 L1242.35 51.6733 L1208.07 51.6733 Q1208.56 59.3701 1212.69 63.421 Q1216.86 67.4314 1224.28 67.4314 Q1228.57 67.4314 1232.58 66.3781 Q1236.63 65.3249 1240.6 63.2184 L1240.6 70.267 Q1236.59 71.9684 1232.38 72.8596 Q1228.17 73.7508 1223.83 73.7508 Q1212.98 73.7508 1206.62 67.4314 Q1200.3 61.1119 1200.3 50.3365 Q1200.3 39.1965 1206.29 32.6746 Q1212.33 26.1121 1222.54 26.1121 Q1231.69 26.1121 1237 32.0264 Q1242.35 37.9003 1242.35 48.0275 M1234.89 45.84 Q1234.81 39.7232 1231.45 36.0774 Q1228.13 32.4315 1222.62 32.4315 Q1216.38 32.4315 1212.61 35.9558 Q1208.88 39.4801 1208.32 45.8805 L1234.89 45.84 Z" fill="#000000" fill-rule="nonzero" fill-opacity="1" /><path clip-path="url(#clip770)" d="M1301.57 49.7694 Q1292.54 49.7694 1289.05 51.8354 Q1285.57 53.9013 1285.57 58.8839 Q1285.57 62.8538 1288.16 65.2034 Q1290.79 67.5124 1295.29 67.5124 Q1301.49 67.5124 1305.22 63.1374 Q1308.98 58.7219 1308.98 51.4303 L1308.98 49.7694 L1301.57 49.7694 M1316.44 46.6907 L1316.44 72.576 L1308.98 72.576 L1308.98 65.6895 Q1306.43 69.8214 1302.62 71.8063 Q1298.81 73.7508 1293.31 73.7508 Q1286.34 73.7508 1282.21 69.8619 Q1278.11 65.9325 1278.11 59.3701 Q1278.11 51.7138 1283.22 47.825 Q1288.36 43.9361 1298.53 43.9361 L1308.98 43.9361 L1308.98 43.2069 Q1308.98 38.0623 1305.58 35.2672 Q1302.22 32.4315 1296.1 32.4315 Q1292.21 32.4315 1288.53 33.3632 Q1284.84 34.295 1281.44 36.1584 L1281.44 29.2718 Q1285.53 27.692 1289.38 26.9223 Q1293.22 26.1121 1296.87 26.1121 Q1306.71 26.1121 1311.57 31.2163 Q1316.44 36.3204 1316.44 46.6907 Z" fill="#000000" fill-rule="nonzero" fill-opacity="1" /><path clip-path="url(#clip770)" d="M1364.36 49.9314 Q1364.36 41.7081 1360.96 37.0496 Q1357.59 32.3505 1351.68 32.3505 Q1345.76 32.3505 1342.36 37.0496 Q1339 41.7081 1339 49.9314 Q1339 58.1548 1342.36 62.8538 Q1345.76 67.5124 1351.68 67.5124 Q1357.59 67.5124 1360.96 62.8538 Q1364.36 58.1548 1364.36 49.9314 M1339 34.0924 Q1341.35 30.0415 1344.91 28.0971 Q1348.52 26.1121 1353.5 26.1121 Q1361.77 26.1121 1366.91 32.6746 Q1372.1 39.2371 1372.1 49.9314 Q1372.1 60.6258 1366.91 67.1883 Q1361.77 73.7508 1353.5 73.7508 Q1348.52 73.7508 1344.91 71.8063 Q1341.35 69.8214 1339 65.7705 L1339 72.576 L1331.51 72.576 L1331.51 9.54393 L1339 9.54393 L1339 34.0924 Z" fill="#000000" fill-rule="nonzero" fill-opacity="1" /><path clip-path="url(#clip770)" d="M1402.03 32.4315 Q1396.04 32.4315 1392.55 37.1306 Q1389.07 41.7891 1389.07 49.9314 Q1389.07 58.0738 1392.51 62.7728 Q1396 67.4314 1402.03 67.4314 Q1407.99 67.4314 1411.47 62.7323 Q1414.95 58.0333 1414.95 49.9314 Q1414.95 41.8701 1411.47 37.1711 Q1407.99 32.4315 1402.03 32.4315 M1402.03 26.1121 Q1411.75 26.1121 1417.3 32.4315 Q1422.85 38.7509 1422.85 49.9314 Q1422.85 61.0714 1417.3 67.4314 Q1411.75 73.7508 1402.03 73.7508 Q1392.27 73.7508 1386.72 67.4314 Q1381.21 61.0714 1381.21 49.9314 Q1381.21 38.7509 1386.72 32.4315 Q1392.27 26.1121 1402.03 26.1121 Z" fill="#000000" fill-rule="nonzero" fill-opacity="1" /><path clip-path="url(#clip770)" d="M1429.86 27.2059 L1437.76 27.2059 L1451.94 65.2844 L1466.12 27.2059 L1474.02 27.2059 L1457 72.576 L1446.88 72.576 L1429.86 27.2059 Z" fill="#000000" fill-rule="nonzero" fill-opacity="1" /><path clip-path="url(#clip770)" d="M1523.11 48.0275 L1523.11 51.6733 L1488.84 51.6733 Q1489.33 59.3701 1493.46 63.421 Q1497.63 67.4314 1505.05 67.4314 Q1509.34 67.4314 1513.35 66.3781 Q1517.4 65.3249 1521.37 63.2184 L1521.37 70.267 Q1517.36 71.9684 1513.15 72.8596 Q1508.94 73.7508 1504.6 73.7508 Q1493.74 73.7508 1487.38 67.4314 Q1481.06 61.1119 1481.06 50.3365 Q1481.06 39.1965 1487.06 32.6746 Q1493.1 26.1121 1503.3 26.1121 Q1512.46 26.1121 1517.77 32.0264 Q1523.11 37.9003 1523.11 48.0275 M1515.66 45.84 Q1515.58 39.7232 1512.22 36.0774 Q1508.89 32.4315 1503.39 32.4315 Q1497.15 32.4315 1493.38 35.9558 Q1489.65 39.4801 1489.09 45.8805 L1515.66 45.84 Z" fill="#000000" fill-rule="nonzero" fill-opacity="1" /><path clip-path="url(#clip770)" d="M1569.82 65.6895 L1598.38 65.6895 L1598.38 72.576 L1559.98 72.576 L1559.98 65.6895 Q1564.63 60.8689 1572.66 52.7671 Q1580.72 44.6248 1582.78 42.2752 Q1586.71 37.8598 1588.25 34.8216 Q1589.83 31.7429 1589.83 28.7857 Q1589.83 23.9651 1586.43 20.927 Q1583.07 17.8888 1577.64 17.8888 Q1573.79 17.8888 1569.5 19.2256 Q1565.24 20.5624 1560.38 23.2765 L1560.38 15.0127 Q1565.32 13.0277 1569.62 12.015 Q1573.91 11.0023 1577.48 11.0023 Q1586.87 11.0023 1592.46 15.7013 Q1598.05 20.4004 1598.05 28.2591 Q1598.05 31.9859 1596.64 35.3482 Q1595.26 38.6699 1591.57 43.2069 Q1590.56 44.3817 1585.13 50.0125 Q1579.7 55.6027 1569.82 65.6895 Z" fill="#000000" fill-rule="nonzero" fill-opacity="1" /><path clip-path="url(#clip770)" d="M1615.64 12.096 L1647.76 12.096 L1647.76 18.9825 L1623.13 18.9825 L1623.13 33.8088 Q1624.91 33.2012 1626.69 32.9176 Q1628.48 32.5936 1630.26 32.5936 Q1640.39 32.5936 1646.3 38.1433 Q1652.22 43.6931 1652.22 53.1722 Q1652.22 62.9348 1646.14 68.3631 Q1640.06 73.7508 1629 73.7508 Q1625.2 73.7508 1621.23 73.1026 Q1617.3 72.4545 1613.08 71.1582 L1613.08 62.9348 Q1616.73 64.9198 1620.62 65.892 Q1624.51 66.8642 1628.84 66.8642 Q1635.85 66.8642 1639.94 63.1779 Q1644.03 59.4916 1644.03 53.1722 Q1644.03 46.8528 1639.94 43.1664 Q1635.85 39.4801 1628.84 39.4801 Q1625.56 39.4801 1622.28 40.2093 Q1619.04 40.9384 1615.64 42.4778 L1615.64 12.096 Z" fill="#000000" fill-rule="nonzero" fill-opacity="1" /><path clip-path="url(#clip770)" d="M1693.98 12.096 L1706.17 12.096 L1721.61 53.2532 L1737.12 12.096 L1749.32 12.096 L1749.32 72.576 L1741.34 72.576 L1741.34 19.4686 L1725.74 60.9499 L1717.52 60.9499 L1701.92 19.4686 L1701.92 72.576 L1693.98 72.576 L1693.98 12.096 Z" fill="#000000" fill-rule="nonzero" fill-opacity="1" /><path clip-path="url(#clip770)" d="M1804.04 48.0275 L1804.04 51.6733 L1769.77 51.6733 Q1770.26 59.3701 1774.39 63.421 Q1778.56 67.4314 1785.98 67.4314 Q1790.27 67.4314 1794.28 66.3781 Q1798.33 65.3249 1802.3 63.2184 L1802.3 70.267 Q1798.29 71.9684 1794.08 72.8596 Q1789.87 73.7508 1785.53 73.7508 Q1774.67 73.7508 1768.31 67.4314 Q1762 61.1119 1762 50.3365 Q1762 39.1965 1767.99 32.6746 Q1774.03 26.1121 1784.23 26.1121 Q1793.39 26.1121 1798.7 32.0264 Q1804.04 37.9003 1804.04 48.0275 M1796.59 45.84 Q1796.51 39.7232 1793.15 36.0774 Q1789.82 32.4315 1784.32 32.4315 Q1778.08 32.4315 1774.31 35.9558 Q1770.58 39.4801 1770.02 45.8805 L1796.59 45.84 Z" fill="#000000" fill-rule="nonzero" fill-opacity="1" /><path clip-path="url(#clip770)" d="M1832.2 72.576 L1809.11 12.096 L1817.65 12.096 L1836.82 63.0159 L1856.02 12.096 L1864.52 12.096 L1841.47 72.576 L1832.2 72.576 Z" fill="#000000" fill-rule="nonzero" fill-opacity="1" /><polyline clip-path="url(#clip772)" style="stroke:#009af9; stroke-linecap:round; stroke-linejoin:round; stroke-width:12; stroke-opacity:1; fill:none" points="2293.27,1374.46 2034.31,1212.45 1797.59,1063.13 1538.43,892.503 1301.91,739.958 1042.74,574.106 806.233,432.966 547.053,306.526 310.553,159.909 "/>
</svg>
