<?xml version="1.0" encoding="utf-8"?>
<svg xmlns="http://www.w3.org/2000/svg" xmlns:xlink="http://www.w3.org/1999/xlink" width="500" height="300" viewBox="0 0 2000 1200">
<defs>
  <clipPath id="clip030">
    <rect x="0" y="0" width="2000" height="1200"/>
  </clipPath>
</defs>
<path clip-path="url(#clip030)" d="M0 1200 L2000 1200 L2000 0 L0 0  Z" fill="#ffffff" fill-rule="evenodd" fill-opacity="1"/>
<defs>
  <clipPath id="clip031">
    <rect x="400" y="0" width="1401" height="1200"/>
  </clipPath>
</defs>
<path clip-path="url(#clip030)" d="M223.637 1035.39 L1952.76 1035.39 L1952.76 117.424 L223.637 117.424  Z" fill="#ffffff" fill-rule="evenodd" fill-opacity="1"/>
<defs>
  <clipPath id="clip032">
    <rect x="223" y="117" width="1730" height="919"/>
  </clipPath>
</defs>
<polyline clip-path="url(#clip032)" style="stroke:#000000; stroke-linecap:round; stroke-linejoin:round; stroke-width:2; stroke-opacity:0.1; fill:none" points="318.742,1035.39 318.742,117.424 "/>
<polyline clip-path="url(#clip032)" style="stroke:#000000; stroke-linecap:round; stroke-linejoin:round; stroke-width:2; stroke-opacity:0.1; fill:none" points="639.348,1035.39 639.348,117.424 "/>
<polyline clip-path="url(#clip032)" style="stroke:#000000; stroke-linecap:round; stroke-linejoin:round; stroke-width:2; stroke-opacity:0.1; fill:none" points="959.954,1035.39 959.954,117.424 "/>
<polyline clip-path="url(#clip032)" style="stroke:#000000; stroke-linecap:round; stroke-linejoin:round; stroke-width:2; stroke-opacity:0.1; fill:none" points="1280.56,1035.39 1280.56,117.424 "/>
<polyline clip-path="url(#clip032)" style="stroke:#000000; stroke-linecap:round; stroke-linejoin:round; stroke-width:2; stroke-opacity:0.1; fill:none" points="1601.17,1035.39 1601.17,117.424 "/>
<polyline clip-path="url(#clip032)" style="stroke:#000000; stroke-linecap:round; stroke-linejoin:round; stroke-width:2; stroke-opacity:0.1; fill:none" points="1921.77,1035.39 1921.77,117.424 "/>
<polyline clip-path="url(#clip032)" style="stroke:#000000; stroke-linecap:round; stroke-linejoin:round; stroke-width:2; stroke-opacity:0.1; fill:none" points="223.637,1035.39 1952.76,1035.39 "/>
<polyline clip-path="url(#clip032)" style="stroke:#000000; stroke-linecap:round; stroke-linejoin:round; stroke-width:2; stroke-opacity:0.1; fill:none" points="223.637,812.581 1952.76,812.581 "/>
<polyline clip-path="url(#clip032)" style="stroke:#000000; stroke-linecap:round; stroke-linejoin:round; stroke-width:2; stroke-opacity:0.1; fill:none" points="223.637,589.774 1952.76,589.774 "/>
<polyline clip-path="url(#clip032)" style="stroke:#000000; stroke-linecap:round; stroke-linejoin:round; stroke-width:2; stroke-opacity:0.1; fill:none" points="223.637,366.968 1952.76,366.968 "/>
<polyline clip-path="url(#clip032)" style="stroke:#000000; stroke-linecap:round; stroke-linejoin:round; stroke-width:2; stroke-opacity:0.1; fill:none" points="223.637,144.161 1952.76,144.161 "/>
<polyline clip-path="url(#clip030)" style="stroke:#000000; stroke-linecap:round; stroke-linejoin:round; stroke-width:4; stroke-opacity:1; fill:none" points="223.637,1035.39 1952.76,1035.39 "/>
<polyline clip-path="url(#clip030)" style="stroke:#000000; stroke-linecap:round; stroke-linejoin:round; stroke-width:4; stroke-opacity:1; fill:none" points="318.742,1035.39 318.742,1016.49 "/>
<polyline clip-path="url(#clip030)" style="stroke:#000000; stroke-linecap:round; stroke-linejoin:round; stroke-width:4; stroke-opacity:1; fill:none" points="639.348,1035.39 639.348,1016.49 "/>
<polyline clip-path="url(#clip030)" style="stroke:#000000; stroke-linecap:round; stroke-linejoin:round; stroke-width:4; stroke-opacity:1; fill:none" points="959.954,1035.39 959.954,1016.49 "/>
<polyline clip-path="url(#clip030)" style="stroke:#000000; stroke-linecap:round; stroke-linejoin:round; stroke-width:4; stroke-opacity:1; fill:none" points="1280.56,1035.39 1280.56,1016.49 "/>
<polyline clip-path="url(#clip030)" style="stroke:#000000; stroke-linecap:round; stroke-linejoin:round; stroke-width:4; stroke-opacity:1; fill:none" points="1601.17,1035.39 1601.17,1016.49 "/>
<polyline clip-path="url(#clip030)" style="stroke:#000000; stroke-linecap:round; stroke-linejoin:round; stroke-width:4; stroke-opacity:1; fill:none" points="1921.77,1035.39 1921.77,1016.49 "/>
<path clip-path="url(#clip030)" d="M318.742 1063.11 Q315.131 1063.11 313.302 1066.67 Q311.497 1070.21 311.497 1077.34 Q311.497 1084.45 313.302 1088.01 Q315.131 1091.56 318.742 1091.56 Q322.376 1091.56 324.182 1088.01 Q326.01 1084.45 326.01 1077.34 Q326.01 1070.21 324.182 1066.67 Q322.376 1063.11 318.742 1063.11 M318.742 1059.4 Q324.552 1059.4 327.608 1064.01 Q330.686 1068.59 330.686 1077.34 Q330.686 1086.07 327.608 1090.68 Q324.552 1095.26 318.742 1095.26 Q312.932 1095.26 309.853 1090.68 Q306.798 1086.07 306.798 1077.34 Q306.798 1068.59 309.853 1064.01 Q312.932 1059.4 318.742 1059.4 Z" fill="#000000" fill-rule="nonzero" fill-opacity="1" /><path clip-path="url(#clip030)" d="M614.047 1060.03 L632.404 1060.03 L632.404 1063.96 L618.33 1063.96 L618.33 1072.44 Q619.348 1072.09 620.367 1071.93 Q621.385 1071.74 622.404 1071.74 Q628.191 1071.74 631.57 1074.91 Q634.95 1078.08 634.95 1083.5 Q634.95 1089.08 631.478 1092.18 Q628.006 1095.26 621.686 1095.26 Q619.51 1095.26 617.242 1094.89 Q614.996 1094.52 612.589 1093.78 L612.589 1089.08 Q614.672 1090.21 616.894 1090.77 Q619.117 1091.32 621.594 1091.32 Q625.598 1091.32 627.936 1089.22 Q630.274 1087.11 630.274 1083.5 Q630.274 1079.89 627.936 1077.78 Q625.598 1075.68 621.594 1075.68 Q619.719 1075.68 617.844 1076.09 Q615.992 1076.51 614.047 1077.39 L614.047 1060.03 Z" fill="#000000" fill-rule="nonzero" fill-opacity="1" /><path clip-path="url(#clip030)" d="M654.163 1063.11 Q650.552 1063.11 648.723 1066.67 Q646.917 1070.21 646.917 1077.34 Q646.917 1084.45 648.723 1088.01 Q650.552 1091.56 654.163 1091.56 Q657.797 1091.56 659.603 1088.01 Q661.431 1084.45 661.431 1077.34 Q661.431 1070.21 659.603 1066.67 Q657.797 1063.11 654.163 1063.11 M654.163 1059.4 Q659.973 1059.4 663.028 1064.01 Q666.107 1068.59 666.107 1077.34 Q666.107 1086.07 663.028 1090.68 Q659.973 1095.26 654.163 1095.26 Q648.353 1095.26 645.274 1090.68 Q642.218 1086.07 642.218 1077.34 Q642.218 1068.59 645.274 1064.01 Q648.353 1059.4 654.163 1059.4 Z" fill="#000000" fill-rule="nonzero" fill-opacity="1" /><path clip-path="url(#clip030)" d="M919.561 1090.65 L927.2 1090.65 L927.2 1064.29 L918.89 1065.95 L918.89 1061.69 L927.153 1060.03 L931.829 1060.03 L931.829 1090.65 L939.468 1090.65 L939.468 1094.59 L919.561 1094.59 L919.561 1090.65 Z" fill="#000000" fill-rule="nonzero" fill-opacity="1" /><path clip-path="url(#clip030)" d="M958.913 1063.11 Q955.301 1063.11 953.473 1066.67 Q951.667 1070.21 951.667 1077.34 Q951.667 1084.45 953.473 1088.01 Q955.301 1091.56 958.913 1091.56 Q962.547 1091.56 964.352 1088.01 Q966.181 1084.45 966.181 1077.34 Q966.181 1070.21 964.352 1066.67 Q962.547 1063.11 958.913 1063.11 M958.913 1059.4 Q964.723 1059.4 967.778 1064.01 Q970.857 1068.59 970.857 1077.34 Q970.857 1086.07 967.778 1090.68 Q964.723 1095.26 958.913 1095.26 Q953.102 1095.26 950.024 1090.68 Q946.968 1086.07 946.968 1077.34 Q946.968 1068.59 950.024 1064.01 Q953.102 1059.4 958.913 1059.4 Z" fill="#000000" fill-rule="nonzero" fill-opacity="1" /><path clip-path="url(#clip030)" d="M989.074 1063.11 Q985.463 1063.11 983.635 1066.67 Q981.829 1070.21 981.829 1077.34 Q981.829 1084.45 983.635 1088.01 Q985.463 1091.56 989.074 1091.56 Q992.709 1091.56 994.514 1088.01 Q996.343 1084.45 996.343 1077.34 Q996.343 1070.21 994.514 1066.67 Q992.709 1063.11 989.074 1063.11 M989.074 1059.4 Q994.885 1059.4 997.94 1064.01 Q1001.02 1068.59 1001.02 1077.34 Q1001.02 1086.07 997.94 1090.68 Q994.885 1095.26 989.074 1095.26 Q983.264 1095.26 980.186 1090.68 Q977.13 1086.07 977.13 1077.34 Q977.13 1068.59 980.186 1064.01 Q983.264 1059.4 989.074 1059.4 Z" fill="#000000" fill-rule="nonzero" fill-opacity="1" /><path clip-path="url(#clip030)" d="M1240.17 1090.65 L1247.81 1090.65 L1247.81 1064.29 L1239.5 1065.95 L1239.5 1061.69 L1247.76 1060.03 L1252.44 1060.03 L1252.44 1090.65 L1260.07 1090.65 L1260.07 1094.59 L1240.17 1094.59 L1240.17 1090.65 Z" fill="#000000" fill-rule="nonzero" fill-opacity="1" /><path clip-path="url(#clip030)" d="M1269.56 1060.03 L1287.92 1060.03 L1287.92 1063.96 L1273.85 1063.96 L1273.85 1072.44 Q1274.87 1072.09 1275.88 1071.93 Q1276.9 1071.74 1277.92 1071.74 Q1283.71 1071.74 1287.09 1074.91 Q1290.47 1078.08 1290.47 1083.5 Q1290.47 1089.08 1287 1092.18 Q1283.52 1095.26 1277.2 1095.26 Q1275.03 1095.26 1272.76 1094.89 Q1270.51 1094.52 1268.11 1093.78 L1268.11 1089.08 Q1270.19 1090.21 1272.41 1090.77 Q1274.63 1091.32 1277.11 1091.32 Q1281.12 1091.32 1283.45 1089.22 Q1285.79 1087.11 1285.79 1083.5 Q1285.79 1079.89 1283.45 1077.78 Q1281.12 1075.68 1277.11 1075.68 Q1275.24 1075.68 1273.36 1076.09 Q1271.51 1076.51 1269.56 1077.39 L1269.56 1060.03 Z" fill="#000000" fill-rule="nonzero" fill-opacity="1" /><path clip-path="url(#clip030)" d="M1309.68 1063.11 Q1306.07 1063.11 1304.24 1066.67 Q1302.44 1070.21 1302.44 1077.34 Q1302.44 1084.45 1304.24 1088.01 Q1306.07 1091.56 1309.68 1091.56 Q1313.31 1091.56 1315.12 1088.01 Q1316.95 1084.45 1316.95 1077.34 Q1316.95 1070.21 1315.12 1066.67 Q1313.31 1063.11 1309.68 1063.11 M1309.68 1059.4 Q1315.49 1059.4 1318.55 1064.01 Q1321.62 1068.59 1321.62 1077.34 Q1321.62 1086.07 1318.55 1090.68 Q1315.49 1095.26 1309.68 1095.26 Q1303.87 1095.26 1300.79 1090.68 Q1297.74 1086.07 1297.74 1077.34 Q1297.74 1068.59 1300.79 1064.01 Q1303.87 1059.4 1309.68 1059.4 Z" fill="#000000" fill-rule="nonzero" fill-opacity="1" /><path clip-path="url(#clip030)" d="M1564.86 1090.65 L1581.18 1090.65 L1581.18 1094.59 L1559.23 1094.59 L1559.23 1090.65 Q1561.9 1087.9 1566.48 1083.27 Q1571.09 1078.62 1572.27 1077.27 Q1574.51 1074.75 1575.39 1073.01 Q1576.29 1071.25 1576.29 1069.56 Q1576.29 1066.81 1574.35 1065.07 Q1572.43 1063.34 1569.33 1063.34 Q1567.13 1063.34 1564.67 1064.1 Q1562.24 1064.87 1559.47 1066.42 L1559.47 1061.69 Q1562.29 1060.56 1564.74 1059.98 Q1567.2 1059.4 1569.23 1059.4 Q1574.6 1059.4 1577.8 1062.09 Q1580.99 1064.77 1580.99 1069.26 Q1580.99 1071.39 1580.18 1073.31 Q1579.4 1075.21 1577.29 1077.81 Q1576.71 1078.48 1573.61 1081.69 Q1570.51 1084.89 1564.86 1090.65 Z" fill="#000000" fill-rule="nonzero" fill-opacity="1" /><path clip-path="url(#clip030)" d="M1600.99 1063.11 Q1597.38 1063.11 1595.55 1066.67 Q1593.75 1070.21 1593.75 1077.34 Q1593.75 1084.45 1595.55 1088.01 Q1597.38 1091.56 1600.99 1091.56 Q1604.63 1091.56 1606.43 1088.01 Q1608.26 1084.45 1608.26 1077.34 Q1608.26 1070.21 1606.43 1066.67 Q1604.63 1063.11 1600.99 1063.11 M1600.99 1059.4 Q1606.8 1059.4 1609.86 1064.01 Q1612.94 1068.59 1612.94 1077.34 Q1612.94 1086.07 1609.86 1090.68 Q1606.8 1095.26 1600.99 1095.26 Q1595.18 1095.26 1592.1 1090.68 Q1589.05 1086.07 1589.05 1077.34 Q1589.05 1068.59 1592.1 1064.01 Q1595.18 1059.4 1600.99 1059.4 Z" fill="#000000" fill-rule="nonzero" fill-opacity="1" /><path clip-path="url(#clip030)" d="M1631.15 1063.11 Q1627.54 1063.11 1625.71 1066.67 Q1623.91 1070.21 1623.91 1077.34 Q1623.91 1084.45 1625.71 1088.01 Q1627.54 1091.56 1631.15 1091.56 Q1634.79 1091.56 1636.59 1088.01 Q1638.42 1084.45 1638.42 1077.34 Q1638.42 1070.21 1636.59 1066.67 Q1634.79 1063.11 1631.15 1063.11 M1631.15 1059.4 Q1636.96 1059.4 1640.02 1064.01 Q1643.1 1068.59 1643.1 1077.34 Q1643.1 1086.07 1640.02 1090.68 Q1636.96 1095.26 1631.15 1095.26 Q1625.34 1095.26 1622.27 1090.68 Q1619.21 1086.07 1619.21 1077.34 Q1619.21 1068.59 1622.27 1064.01 Q1625.34 1059.4 1631.15 1059.4 Z" fill="#000000" fill-rule="nonzero" fill-opacity="1" /><path clip-path="url(#clip030)" d="M1885.46 1090.65 L1901.78 1090.65 L1901.78 1094.59 L1879.84 1094.59 L1879.84 1090.65 Q1882.5 1087.9 1887.09 1083.27 Q1891.69 1078.62 1892.87 1077.27 Q1895.12 1074.75 1896 1073.01 Q1896.9 1071.25 1896.9 1069.56 Q1896.9 1066.81 1894.96 1065.07 Q1893.03 1063.34 1889.93 1063.34 Q1887.73 1063.34 1885.28 1064.1 Q1882.85 1064.87 1880.07 1066.42 L1880.07 1061.69 Q1882.9 1060.56 1885.35 1059.98 Q1887.8 1059.4 1889.84 1059.4 Q1895.21 1059.4 1898.4 1062.09 Q1901.6 1064.77 1901.6 1069.26 Q1901.6 1071.39 1900.79 1073.31 Q1900 1075.21 1897.9 1077.81 Q1897.32 1078.48 1894.21 1081.69 Q1891.11 1084.89 1885.46 1090.65 Z" fill="#000000" fill-rule="nonzero" fill-opacity="1" /><path clip-path="url(#clip030)" d="M1911.65 1060.03 L1930 1060.03 L1930 1063.96 L1915.93 1063.96 L1915.93 1072.44 Q1916.95 1072.09 1917.96 1071.93 Q1918.98 1071.74 1920 1071.74 Q1925.79 1071.74 1929.17 1074.91 Q1932.55 1078.08 1932.55 1083.5 Q1932.55 1089.08 1929.08 1092.18 Q1925.6 1095.26 1919.28 1095.26 Q1917.11 1095.26 1914.84 1094.89 Q1912.59 1094.52 1910.19 1093.78 L1910.19 1089.08 Q1912.27 1090.21 1914.49 1090.77 Q1916.71 1091.32 1919.19 1091.32 Q1923.2 1091.32 1925.53 1089.22 Q1927.87 1087.11 1927.87 1083.5 Q1927.87 1079.89 1925.53 1077.78 Q1923.2 1075.68 1919.19 1075.68 Q1917.32 1075.68 1915.44 1076.09 Q1913.59 1076.51 1911.65 1077.39 L1911.65 1060.03 Z" fill="#000000" fill-rule="nonzero" fill-opacity="1" /><path clip-path="url(#clip030)" d="M1951.76 1063.11 Q1948.15 1063.11 1946.32 1066.67 Q1944.52 1070.21 1944.52 1077.34 Q1944.52 1084.45 1946.32 1088.01 Q1948.15 1091.56 1951.76 1091.56 Q1955.4 1091.56 1957.2 1088.01 Q1959.03 1084.45 1959.03 1077.34 Q1959.03 1070.21 1957.2 1066.67 Q1955.4 1063.11 1951.76 1063.11 M1951.76 1059.4 Q1957.57 1059.4 1960.63 1064.01 Q1963.71 1068.59 1963.71 1077.34 Q1963.71 1086.07 1960.63 1090.68 Q1957.57 1095.26 1951.76 1095.26 Q1945.95 1095.26 1942.87 1090.68 Q1939.82 1086.07 1939.82 1077.34 Q1939.82 1068.59 1942.87 1064.01 Q1945.95 1059.4 1951.76 1059.4 Z" fill="#000000" fill-rule="nonzero" fill-opacity="1" /><path clip-path="url(#clip030)" d="M873.831 1126.73 L903.878 1126.73 L903.878 1132.14 L880.261 1132.14 L880.261 1146.21 L902.891 1146.21 L902.891 1151.62 L880.261 1151.62 L880.261 1168.84 L904.451 1168.84 L904.451 1174.25 L873.831 1174.25 L873.831 1126.73 Z" fill="#000000" fill-rule="nonzero" fill-opacity="1" /><path clip-path="url(#clip030)" d="M944.395 1152.74 L944.395 1174.25 L938.539 1174.25 L938.539 1152.93 Q938.539 1147.87 936.565 1145.35 Q934.592 1142.84 930.645 1142.84 Q925.903 1142.84 923.166 1145.86 Q920.428 1148.88 920.428 1154.1 L920.428 1174.25 L914.54 1174.25 L914.54 1138.6 L920.428 1138.6 L920.428 1144.14 Q922.529 1140.93 925.362 1139.34 Q928.226 1137.74 931.95 1137.74 Q938.093 1137.74 941.244 1141.56 Q944.395 1145.35 944.395 1152.74 Z" fill="#000000" fill-rule="nonzero" fill-opacity="1" /><path clip-path="url(#clip030)" d="M986.568 1154.96 L986.568 1157.83 L959.641 1157.83 Q960.023 1163.88 963.27 1167.06 Q966.548 1170.21 972.373 1170.21 Q975.746 1170.21 978.897 1169.38 Q982.08 1168.55 985.199 1166.9 L985.199 1172.44 Q982.048 1173.77 978.738 1174.47 Q975.428 1175.17 972.022 1175.17 Q963.492 1175.17 958.495 1170.21 Q953.53 1165.24 953.53 1156.78 Q953.53 1148.03 958.241 1142.9 Q962.983 1137.74 971.004 1137.74 Q978.197 1137.74 982.367 1142.39 Q986.568 1147.01 986.568 1154.96 M980.712 1153.25 Q980.648 1148.44 978.006 1145.57 Q975.396 1142.71 971.068 1142.71 Q966.166 1142.71 963.206 1145.48 Q960.278 1148.25 959.832 1153.28 L980.712 1153.25 Z" fill="#000000" fill-rule="nonzero" fill-opacity="1" /><path clip-path="url(#clip030)" d="M1016.84 1144.08 Q1015.85 1143.51 1014.67 1143.25 Q1013.53 1142.96 1012.13 1142.96 Q1007.16 1142.96 1004.49 1146.21 Q1001.85 1149.43 1001.85 1155.47 L1001.85 1174.25 L995.958 1174.25 L995.958 1138.6 L1001.85 1138.6 L1001.85 1144.14 Q1003.69 1140.9 1006.65 1139.34 Q1009.61 1137.74 1013.85 1137.74 Q1014.45 1137.74 1015.18 1137.84 Q1015.91 1137.9 1016.81 1138.06 L1016.84 1144.08 Z" fill="#000000" fill-rule="nonzero" fill-opacity="1" /><path clip-path="url(#clip030)" d="M1045.29 1156.01 Q1045.29 1149.65 1042.65 1146.15 Q1040.04 1142.65 1035.3 1142.65 Q1030.59 1142.65 1027.95 1146.15 Q1025.34 1149.65 1025.34 1156.01 Q1025.34 1162.35 1027.95 1165.85 Q1030.59 1169.35 1035.3 1169.35 Q1040.04 1169.35 1042.65 1165.85 Q1045.29 1162.35 1045.29 1156.01 M1051.15 1169.83 Q1051.15 1178.93 1047.11 1183.35 Q1043.06 1187.81 1034.72 1187.81 Q1031.64 1187.81 1028.9 1187.33 Q1026.16 1186.89 1023.58 1185.93 L1023.58 1180.24 Q1026.16 1181.64 1028.68 1182.3 Q1031.19 1182.97 1033.8 1182.97 Q1039.56 1182.97 1042.43 1179.95 Q1045.29 1176.96 1045.29 1170.88 L1045.29 1167.98 Q1043.48 1171.13 1040.64 1172.69 Q1037.81 1174.25 1033.87 1174.25 Q1027.31 1174.25 1023.3 1169.25 Q1019.29 1164.26 1019.29 1156.01 Q1019.29 1147.74 1023.3 1142.74 Q1027.31 1137.74 1033.87 1137.74 Q1037.81 1137.74 1040.64 1139.3 Q1043.48 1140.86 1045.29 1144.01 L1045.29 1138.6 L1051.15 1138.6 L1051.15 1169.83 Z" fill="#000000" fill-rule="nonzero" fill-opacity="1" /><path clip-path="url(#clip030)" d="M1078.04 1177.56 Q1075.56 1183.93 1073.21 1185.87 Q1070.85 1187.81 1066.9 1187.81 L1062.22 1187.81 L1062.22 1182.91 L1065.66 1182.91 Q1068.08 1182.91 1069.42 1181.76 Q1070.75 1180.62 1072.38 1176.35 L1073.43 1173.68 L1059.01 1138.6 L1065.22 1138.6 L1076.36 1166.49 L1087.5 1138.6 L1093.7 1138.6 L1078.04 1177.56 Z" fill="#000000" fill-rule="nonzero" fill-opacity="1" /><path clip-path="url(#clip030)" d="M1136.58 1124.79 Q1132.31 1132.11 1130.24 1139.27 Q1128.17 1146.43 1128.17 1153.79 Q1128.17 1161.14 1130.24 1168.36 Q1132.34 1175.56 1136.58 1182.85 L1131.48 1182.85 Q1126.71 1175.37 1124.32 1168.14 Q1121.97 1160.92 1121.97 1153.79 Q1121.97 1146.69 1124.32 1139.5 Q1126.68 1132.3 1131.48 1124.79 L1136.58 1124.79 Z" fill="#000000" fill-rule="nonzero" fill-opacity="1" /><path clip-path="url(#clip030)" d="M1148.19 1126.73 L1157.77 1126.73 L1169.9 1159.07 L1182.09 1126.73 L1191.67 1126.73 L1191.67 1174.25 L1185.4 1174.25 L1185.4 1132.52 L1173.15 1165.12 L1166.69 1165.12 L1154.43 1132.52 L1154.43 1174.25 L1148.19 1174.25 L1148.19 1126.73 Z" fill="#000000" fill-rule="nonzero" fill-opacity="1" /><path clip-path="url(#clip030)" d="M1234.67 1154.96 L1234.67 1157.83 L1207.74 1157.83 Q1208.13 1163.88 1211.37 1167.06 Q1214.65 1170.21 1220.48 1170.21 Q1223.85 1170.21 1227 1169.38 Q1230.18 1168.55 1233.3 1166.9 L1233.3 1172.44 Q1230.15 1173.77 1226.84 1174.47 Q1223.53 1175.17 1220.13 1175.17 Q1211.6 1175.17 1206.6 1170.21 Q1201.63 1165.24 1201.63 1156.78 Q1201.63 1148.03 1206.34 1142.9 Q1211.09 1137.74 1219.11 1137.74 Q1226.3 1137.74 1230.47 1142.39 Q1234.67 1147.01 1234.67 1154.96 M1228.82 1153.25 Q1228.75 1148.44 1226.11 1145.57 Q1223.5 1142.71 1219.17 1142.71 Q1214.27 1142.71 1211.31 1145.48 Q1208.38 1148.25 1207.94 1153.28 L1228.82 1153.25 Z" fill="#000000" fill-rule="nonzero" fill-opacity="1" /><path clip-path="url(#clip030)" d="M1256.79 1174.25 L1238.65 1126.73 L1245.37 1126.73 L1260.42 1166.74 L1275.51 1126.73 L1282.19 1126.73 L1264.08 1174.25 L1256.79 1174.25 Z" fill="#000000" fill-rule="nonzero" fill-opacity="1" /><path clip-path="url(#clip030)" d="M1287.95 1124.79 L1293.05 1124.79 Q1297.82 1132.3 1300.17 1139.5 Q1302.56 1146.69 1302.56 1153.79 Q1302.56 1160.92 1300.17 1168.14 Q1297.82 1175.37 1293.05 1182.85 L1287.95 1182.85 Q1292.19 1175.56 1294.25 1168.36 Q1296.36 1161.14 1296.36 1153.79 Q1296.36 1146.43 1294.25 1139.27 Q1292.19 1132.11 1287.95 1124.79 Z" fill="#000000" fill-rule="nonzero" fill-opacity="1" /><polyline clip-path="url(#clip030)" style="stroke:#000000; stroke-linecap:round; stroke-linejoin:round; stroke-width:4; stroke-opacity:1; fill:none" points="223.637,1035.39 223.637,117.424 "/>
<polyline clip-path="url(#clip030)" style="stroke:#000000; stroke-linecap:round; stroke-linejoin:round; stroke-width:4; stroke-opacity:1; fill:none" points="223.637,1035.39 242.535,1035.39 "/>
<polyline clip-path="url(#clip030)" style="stroke:#000000; stroke-linecap:round; stroke-linejoin:round; stroke-width:4; stroke-opacity:1; fill:none" points="223.637,812.581 242.535,812.581 "/>
<polyline clip-path="url(#clip030)" style="stroke:#000000; stroke-linecap:round; stroke-linejoin:round; stroke-width:4; stroke-opacity:1; fill:none" points="223.637,589.774 242.535,589.774 "/>
<polyline clip-path="url(#clip030)" style="stroke:#000000; stroke-linecap:round; stroke-linejoin:round; stroke-width:4; stroke-opacity:1; fill:none" points="223.637,366.968 242.535,366.968 "/>
<polyline clip-path="url(#clip030)" style="stroke:#000000; stroke-linecap:round; stroke-linejoin:round; stroke-width:4; stroke-opacity:1; fill:none" points="223.637,144.161 242.535,144.161 "/>
<path clip-path="url(#clip030)" d="M181.693 1021.19 Q178.082 1021.19 176.253 1024.75 Q174.448 1028.29 174.448 1035.42 Q174.448 1042.53 176.253 1046.09 Q178.082 1049.64 181.693 1049.64 Q185.327 1049.64 187.133 1046.09 Q188.961 1042.53 188.961 1035.42 Q188.961 1028.29 187.133 1024.75 Q185.327 1021.19 181.693 1021.19 M181.693 1017.48 Q187.503 1017.48 190.559 1022.09 Q193.637 1026.67 193.637 1035.42 Q193.637 1044.15 190.559 1048.76 Q187.503 1053.34 181.693 1053.34 Q175.883 1053.34 172.804 1048.76 Q169.749 1044.15 169.749 1035.42 Q169.749 1026.67 172.804 1022.09 Q175.883 1017.48 181.693 1017.48 Z" fill="#000000" fill-rule="nonzero" fill-opacity="1" /><path clip-path="url(#clip030)" d="M146.554 825.926 L162.874 825.926 L162.874 829.861 L140.929 829.861 L140.929 825.926 Q143.591 823.171 148.175 818.542 Q152.781 813.889 153.962 812.546 Q156.207 810.023 157.087 808.287 Q157.989 806.528 157.989 804.838 Q157.989 802.083 156.045 800.347 Q154.124 798.611 151.022 798.611 Q148.823 798.611 146.369 799.375 Q143.939 800.139 141.161 801.69 L141.161 796.968 Q143.985 795.834 146.439 795.255 Q148.892 794.676 150.929 794.676 Q156.3 794.676 159.494 797.361 Q162.688 800.046 162.688 804.537 Q162.688 806.667 161.878 808.588 Q161.091 810.486 158.985 813.079 Q158.406 813.75 155.304 816.968 Q152.202 820.162 146.554 825.926 Z" fill="#000000" fill-rule="nonzero" fill-opacity="1" /><path clip-path="url(#clip030)" d="M172.735 795.301 L191.091 795.301 L191.091 799.236 L177.017 799.236 L177.017 807.708 Q178.036 807.361 179.054 807.199 Q180.073 807.014 181.091 807.014 Q186.878 807.014 190.258 810.185 Q193.637 813.357 193.637 818.773 Q193.637 824.352 190.165 827.454 Q186.693 830.532 180.374 830.532 Q178.198 830.532 175.929 830.162 Q173.684 829.792 171.276 829.051 L171.276 824.352 Q173.36 825.486 175.582 826.042 Q177.804 826.597 180.281 826.597 Q184.286 826.597 186.623 824.491 Q188.961 822.384 188.961 818.773 Q188.961 815.162 186.623 813.056 Q184.286 810.949 180.281 810.949 Q178.406 810.949 176.531 811.366 Q174.679 811.783 172.735 812.662 L172.735 795.301 Z" fill="#000000" fill-rule="nonzero" fill-opacity="1" /><path clip-path="url(#clip030)" d="M141.577 572.494 L159.934 572.494 L159.934 576.43 L145.86 576.43 L145.86 584.902 Q146.878 584.555 147.897 584.392 Q148.915 584.207 149.934 584.207 Q155.721 584.207 159.1 587.379 Q162.48 590.55 162.48 595.966 Q162.48 601.545 159.008 604.647 Q155.536 607.726 149.216 607.726 Q147.04 607.726 144.772 607.355 Q142.527 606.985 140.119 606.244 L140.119 601.545 Q142.202 602.679 144.425 603.235 Q146.647 603.791 149.124 603.791 Q153.128 603.791 155.466 601.684 Q157.804 599.578 157.804 595.966 Q157.804 592.355 155.466 590.249 Q153.128 588.142 149.124 588.142 Q147.249 588.142 145.374 588.559 Q143.522 588.976 141.577 589.855 L141.577 572.494 Z" fill="#000000" fill-rule="nonzero" fill-opacity="1" /><path clip-path="url(#clip030)" d="M181.693 575.573 Q178.082 575.573 176.253 579.138 Q174.448 582.68 174.448 589.809 Q174.448 596.916 176.253 600.48 Q178.082 604.022 181.693 604.022 Q185.327 604.022 187.133 600.48 Q188.961 596.916 188.961 589.809 Q188.961 582.68 187.133 579.138 Q185.327 575.573 181.693 575.573 M181.693 571.869 Q187.503 571.869 190.559 576.476 Q193.637 581.059 193.637 589.809 Q193.637 598.536 190.559 603.142 Q187.503 607.726 181.693 607.726 Q175.883 607.726 172.804 603.142 Q169.749 598.536 169.749 589.809 Q169.749 581.059 172.804 576.476 Q175.883 571.869 181.693 571.869 Z" fill="#000000" fill-rule="nonzero" fill-opacity="1" /><path clip-path="url(#clip030)" d="M141.346 349.688 L163.568 349.688 L163.568 351.678 L151.022 384.248 L146.138 384.248 L157.943 353.623 L141.346 353.623 L141.346 349.688 Z" fill="#000000" fill-rule="nonzero" fill-opacity="1" /><path clip-path="url(#clip030)" d="M172.735 349.688 L191.091 349.688 L191.091 353.623 L177.017 353.623 L177.017 362.095 Q178.036 361.748 179.054 361.586 Q180.073 361.401 181.091 361.401 Q186.878 361.401 190.258 364.572 Q193.637 367.743 193.637 373.16 Q193.637 378.738 190.165 381.84 Q186.693 384.919 180.374 384.919 Q178.198 384.919 175.929 384.549 Q173.684 384.178 171.276 383.437 L171.276 378.738 Q173.36 379.873 175.582 380.428 Q177.804 380.984 180.281 380.984 Q184.286 380.984 186.623 378.877 Q188.961 376.771 188.961 373.16 Q188.961 369.549 186.623 367.442 Q184.286 365.336 180.281 365.336 Q178.406 365.336 176.531 365.752 Q174.679 366.169 172.735 367.049 L172.735 349.688 Z" fill="#000000" fill-rule="nonzero" fill-opacity="1" /><path clip-path="url(#clip030)" d="M112.179 157.506 L119.818 157.506 L119.818 131.14 L111.508 132.807 L111.508 128.548 L119.772 126.881 L124.448 126.881 L124.448 157.506 L132.087 157.506 L132.087 161.441 L112.179 161.441 L112.179 157.506 Z" fill="#000000" fill-rule="nonzero" fill-opacity="1" /><path clip-path="url(#clip030)" d="M151.531 129.96 Q147.92 129.96 146.091 133.524 Q144.286 137.066 144.286 144.196 Q144.286 151.302 146.091 154.867 Q147.92 158.409 151.531 158.409 Q155.165 158.409 156.971 154.867 Q158.8 151.302 158.8 144.196 Q158.8 137.066 156.971 133.524 Q155.165 129.96 151.531 129.96 M151.531 126.256 Q157.341 126.256 160.397 130.862 Q163.475 135.446 163.475 144.196 Q163.475 152.922 160.397 157.529 Q157.341 162.112 151.531 162.112 Q145.721 162.112 142.642 157.529 Q139.587 152.922 139.587 144.196 Q139.587 135.446 142.642 130.862 Q145.721 126.256 151.531 126.256 Z" fill="#000000" fill-rule="nonzero" fill-opacity="1" /><path clip-path="url(#clip030)" d="M181.693 129.96 Q178.082 129.96 176.253 133.524 Q174.448 137.066 174.448 144.196 Q174.448 151.302 176.253 154.867 Q178.082 158.409 181.693 158.409 Q185.327 158.409 187.133 154.867 Q188.961 151.302 188.961 144.196 Q188.961 137.066 187.133 133.524 Q185.327 129.96 181.693 129.96 M181.693 126.256 Q187.503 126.256 190.559 130.862 Q193.637 135.446 193.637 144.196 Q193.637 152.922 190.559 157.529 Q187.503 162.112 181.693 162.112 Q175.883 162.112 172.804 157.529 Q169.749 152.922 169.749 144.196 Q169.749 135.446 172.804 130.862 Q175.883 126.256 181.693 126.256 Z" fill="#000000" fill-rule="nonzero" fill-opacity="1" /><path clip-path="url(#clip030)" d="M23.3924 648.434 L30.1719 648.434 Q27.1482 651.68 25.6523 655.373 Q24.1563 659.033 24.1563 663.171 Q24.1563 671.319 29.1534 675.647 Q34.1187 679.976 43.5399 679.976 Q52.9293 679.976 57.9264 675.647 Q62.8916 671.319 62.8916 663.171 Q62.8916 659.033 61.3957 655.373 Q59.8998 651.68 56.8761 648.434 L63.5919 648.434 Q65.8835 651.808 67.0294 655.595 Q68.1752 659.351 68.1752 663.553 Q68.1752 674.342 61.5867 680.549 Q54.9663 686.756 43.5399 686.756 Q32.0816 686.756 25.4931 680.549 Q18.8728 674.342 18.8728 663.553 Q18.8728 659.287 20.0186 655.532 Q21.1326 651.744 23.3924 648.434 Z" fill="#000000" fill-rule="nonzero" fill-opacity="1" /><path clip-path="url(#clip030)" d="M35.7101 624.944 Q35.7101 629.655 39.4022 632.392 Q43.0625 635.13 49.46 635.13 Q55.8575 635.13 59.5497 632.424 Q63.2099 629.687 63.2099 624.944 Q63.2099 620.266 59.5178 617.528 Q55.8257 614.791 49.46 614.791 Q43.1261 614.791 39.434 617.528 Q35.7101 620.266 35.7101 624.944 M30.7448 624.944 Q30.7448 617.306 35.7101 612.945 Q40.6753 608.585 49.46 608.585 Q58.2129 608.585 63.2099 612.945 Q68.1752 617.306 68.1752 624.944 Q68.1752 632.615 63.2099 636.976 Q58.2129 641.304 49.46 641.304 Q40.6753 641.304 35.7101 636.976 Q30.7448 632.615 30.7448 624.944 Z" fill="#000000" fill-rule="nonzero" fill-opacity="1" /><path clip-path="url(#clip030)" d="M53.1839 599.482 L31.6042 599.482 L31.6042 593.625 L52.9611 593.625 Q58.0219 593.625 60.5682 591.652 Q63.0826 589.678 63.0826 585.732 Q63.0826 580.989 60.0589 578.252 Q57.0352 575.483 51.8153 575.483 L31.6042 575.483 L31.6042 569.627 L67.2522 569.627 L67.2522 575.483 L61.7776 575.483 Q65.0242 577.615 66.6156 580.448 Q68.1752 583.249 68.1752 586.973 Q68.1752 593.116 64.3558 596.299 Q60.5363 599.482 53.1839 599.482 M30.7448 584.745 L30.7448 584.745 Z" fill="#000000" fill-rule="nonzero" fill-opacity="1" /><path clip-path="url(#clip030)" d="M45.7361 527.931 L67.2522 527.931 L67.2522 533.788 L45.927 533.788 Q40.8663 533.788 38.3518 535.761 Q35.8374 537.734 35.8374 541.681 Q35.8374 546.424 38.8611 549.161 Q41.8848 551.898 47.1047 551.898 L67.2522 551.898 L67.2522 557.786 L31.6042 557.786 L31.6042 551.898 L37.1424 551.898 Q33.9277 549.797 32.3363 546.965 Q30.7448 544.1 30.7448 540.376 Q30.7448 534.233 34.5643 531.082 Q38.3518 527.931 45.7361 527.931 Z" fill="#000000" fill-rule="nonzero" fill-opacity="1" /><path clip-path="url(#clip030)" d="M21.4827 510.457 L31.6042 510.457 L31.6042 498.394 L36.1557 498.394 L36.1557 510.457 L55.5074 510.457 Q59.8679 510.457 61.1093 509.28 Q62.3506 508.07 62.3506 504.41 L62.3506 498.394 L67.2522 498.394 L67.2522 504.41 Q67.2522 511.189 64.7377 513.767 Q62.1914 516.346 55.5074 516.346 L36.1557 516.346 L36.1557 520.642 L31.6042 520.642 L31.6042 516.346 L21.4827 516.346 L21.4827 510.457 Z" fill="#000000" fill-rule="nonzero" fill-opacity="1" /><path clip-path="url(#clip030)" d="M32.6545 467.966 L38.1927 467.966 Q36.9196 470.449 36.283 473.122 Q35.6464 475.796 35.6464 478.661 Q35.6464 483.021 36.9832 485.217 Q38.32 487.382 40.9936 487.382 Q43.0306 487.382 44.2083 485.822 Q45.3541 484.262 46.4045 479.552 L46.8501 477.547 Q48.1869 471.308 50.6377 468.698 Q53.0566 466.056 57.4171 466.056 Q62.3824 466.056 65.2788 470.003 Q68.1752 473.918 68.1752 480.793 Q68.1752 483.658 67.6023 486.777 Q67.0612 489.864 65.9472 493.302 L59.8998 493.302 Q61.5867 490.055 62.446 486.904 Q63.2736 483.753 63.2736 480.666 Q63.2736 476.528 61.8731 474.3 Q60.4409 472.072 57.8627 472.072 Q55.4756 472.072 54.2025 473.695 Q52.9293 475.287 51.7517 480.729 L51.2742 482.766 Q50.1284 488.209 47.7731 490.628 Q45.386 493.047 41.2482 493.047 Q36.2193 493.047 33.4821 489.482 Q30.7448 485.917 30.7448 479.361 Q30.7448 476.114 31.2223 473.25 Q31.6997 470.385 32.6545 467.966 Z" fill="#000000" fill-rule="nonzero" fill-opacity="1" /><path clip-path="url(#clip030)" d="M714.683 12.096 L725.701 12.096 L752.518 62.6918 L752.518 12.096 L760.458 12.096 L760.458 72.576 L749.44 72.576 L722.623 21.9802 L722.623 72.576 L714.683 72.576 L714.683 12.096 Z" fill="#000000" fill-rule="nonzero" fill-opacity="1" /><path clip-path="url(#clip030)" d="M815.226 48.0275 L815.226 51.6733 L780.956 51.6733 Q781.442 59.3701 785.574 63.421 Q789.746 67.4314 797.159 67.4314 Q801.453 67.4314 805.464 66.3781 Q809.515 65.3249 813.485 63.2184 L813.485 70.267 Q809.474 71.9684 805.261 72.8596 Q801.048 73.7508 796.714 73.7508 Q785.857 73.7508 779.497 67.4314 Q773.178 61.1119 773.178 50.3365 Q773.178 39.1965 779.173 32.6746 Q785.209 26.1121 795.418 26.1121 Q804.573 26.1121 809.879 32.0264 Q815.226 37.9003 815.226 48.0275 M807.773 45.84 Q807.692 39.7232 804.33 36.0774 Q801.008 32.4315 795.499 32.4315 Q789.26 32.4315 785.493 35.9558 Q781.766 39.4801 781.199 45.8805 L807.773 45.84 Z" fill="#000000" fill-rule="nonzero" fill-opacity="1" /><path clip-path="url(#clip030)" d="M826.691 54.671 L826.691 27.2059 L834.144 27.2059 L834.144 54.3874 Q834.144 60.8284 836.656 64.0691 Q839.167 67.2693 844.19 67.2693 Q850.226 67.2693 853.71 63.421 Q857.234 59.5726 857.234 52.9291 L857.234 27.2059 L864.688 27.2059 L864.688 72.576 L857.234 72.576 L857.234 65.6084 Q854.52 69.7404 850.915 71.7658 Q847.35 73.7508 842.611 73.7508 Q834.792 73.7508 830.741 68.8897 Q826.691 64.0286 826.691 54.671 M845.446 26.1121 L845.446 26.1121 Z" fill="#000000" fill-rule="nonzero" fill-opacity="1" /><path clip-path="url(#clip030)" d="M887.414 14.324 L887.414 27.2059 L902.766 27.2059 L902.766 32.9987 L887.414 32.9987 L887.414 57.6282 Q887.414 63.1779 888.912 64.7578 Q890.452 66.3376 895.11 66.3376 L902.766 66.3376 L902.766 72.576 L895.11 72.576 Q886.482 72.576 883.201 69.3758 Q879.919 66.1351 879.919 57.6282 L879.919 32.9987 L874.451 32.9987 L874.451 27.2059 L879.919 27.2059 L879.919 14.324 L887.414 14.324 Z" fill="#000000" fill-rule="nonzero" fill-opacity="1" /><path clip-path="url(#clip030)" d="M938.86 34.1734 Q937.604 33.4443 936.105 33.1202 Q934.647 32.7556 932.865 32.7556 Q926.545 32.7556 923.143 36.8875 Q919.78 40.9789 919.78 48.6757 L919.78 72.576 L912.286 72.576 L912.286 27.2059 L919.78 27.2059 L919.78 34.2544 Q922.13 30.1225 925.897 28.1376 Q929.664 26.1121 935.052 26.1121 Q935.822 26.1121 936.754 26.2337 Q937.685 26.3147 938.82 26.5172 L938.86 34.1734 Z" fill="#000000" fill-rule="nonzero" fill-opacity="1" /><path clip-path="url(#clip030)" d="M962.436 32.4315 Q956.441 32.4315 952.957 37.1306 Q949.473 41.7891 949.473 49.9314 Q949.473 58.0738 952.917 62.7728 Q956.4 67.4314 962.436 67.4314 Q968.391 67.4314 971.875 62.7323 Q975.359 58.0333 975.359 49.9314 Q975.359 41.8701 971.875 37.1711 Q968.391 32.4315 962.436 32.4315 M962.436 26.1121 Q972.158 26.1121 977.708 32.4315 Q983.258 38.7509 983.258 49.9314 Q983.258 61.0714 977.708 67.4314 Q972.158 73.7508 962.436 73.7508 Q952.674 73.7508 947.124 67.4314 Q941.615 61.0714 941.615 49.9314 Q941.615 38.7509 947.124 32.4315 Q952.674 26.1121 962.436 26.1121 Z" fill="#000000" fill-rule="nonzero" fill-opacity="1" /><path clip-path="url(#clip030)" d="M1033.33 45.1919 L1033.33 72.576 L1025.87 72.576 L1025.87 45.4349 Q1025.87 38.994 1023.36 35.7938 Q1020.85 32.5936 1015.83 32.5936 Q1009.79 32.5936 1006.31 36.4419 Q1002.82 40.2903 1002.82 46.9338 L1002.82 72.576 L995.33 72.576 L995.33 27.2059 L1002.82 27.2059 L1002.82 34.2544 Q1005.5 30.163 1009.1 28.1376 Q1012.75 26.1121 1017.49 26.1121 Q1025.31 26.1121 1029.32 30.9732 Q1033.33 35.7938 1033.33 45.1919 Z" fill="#000000" fill-rule="nonzero" fill-opacity="1" /><path clip-path="url(#clip030)" d="M1111.14 14.0809 L1111.14 22.0612 Q1106.49 19.8332 1102.35 18.7395 Q1098.22 17.6457 1094.37 17.6457 Q1087.69 17.6457 1084.04 20.2383 Q1080.44 22.8309 1080.44 27.611 Q1080.44 31.6214 1082.83 33.6873 Q1085.26 35.7128 1091.98 36.9686 L1096.93 37.9813 Q1106.08 39.7232 1110.42 44.1387 Q1114.79 48.5136 1114.79 55.8863 Q1114.79 64.6767 1108.88 69.2137 Q1103 73.7508 1091.62 73.7508 Q1087.33 73.7508 1082.46 72.7785 Q1077.64 71.8063 1072.46 69.9024 L1072.46 61.4765 Q1077.44 64.2716 1082.22 65.6895 Q1087 67.1073 1091.62 67.1073 Q1098.63 67.1073 1102.44 64.3527 Q1106.24 61.598 1106.24 56.4939 Q1106.24 52.0379 1103.49 49.5264 Q1100.77 47.0148 1094.54 45.759 L1089.55 44.7868 Q1080.4 42.9639 1076.31 39.075 Q1072.22 35.1862 1072.22 28.2591 Q1072.22 20.2383 1077.85 15.6203 Q1083.52 11.0023 1093.44 11.0023 Q1097.7 11.0023 1102.11 11.7719 Q1106.53 12.5416 1111.14 14.0809 Z" fill="#000000" fill-rule="nonzero" fill-opacity="1" /><path clip-path="url(#clip030)" d="M1134.44 65.7705 L1134.44 89.8329 L1126.94 89.8329 L1126.94 27.2059 L1134.44 27.2059 L1134.44 34.0924 Q1136.79 30.0415 1140.35 28.0971 Q1143.96 26.1121 1148.94 26.1121 Q1157.2 26.1121 1162.35 32.6746 Q1167.53 39.2371 1167.53 49.9314 Q1167.53 60.6258 1162.35 67.1883 Q1157.2 73.7508 1148.94 73.7508 Q1143.96 73.7508 1140.35 71.8063 Q1136.79 69.8214 1134.44 65.7705 M1159.8 49.9314 Q1159.8 41.7081 1156.39 37.0496 Q1153.03 32.3505 1147.12 32.3505 Q1141.2 32.3505 1137.8 37.0496 Q1134.44 41.7081 1134.44 49.9314 Q1134.44 58.1548 1137.8 62.8538 Q1141.2 67.5124 1147.12 67.5124 Q1153.03 67.5124 1156.39 62.8538 Q1159.8 58.1548 1159.8 49.9314 Z" fill="#000000" fill-rule="nonzero" fill-opacity="1" /><path clip-path="url(#clip030)" d="M1218.7 48.0275 L1218.7 51.6733 L1184.43 51.6733 Q1184.91 59.3701 1189.04 63.421 Q1193.22 67.4314 1200.63 67.4314 Q1204.92 67.4314 1208.93 66.3781 Q1212.98 65.3249 1216.95 63.2184 L1216.95 70.267 Q1212.94 71.9684 1208.73 72.8596 Q1204.52 73.7508 1200.18 73.7508 Q1189.33 73.7508 1182.97 67.4314 Q1176.65 61.1119 1176.65 50.3365 Q1176.65 39.1965 1182.64 32.6746 Q1188.68 26.1121 1198.89 26.1121 Q1208.04 26.1121 1213.35 32.0264 Q1218.7 37.9003 1218.7 48.0275 M1211.24 45.84 Q1211.16 39.7232 1207.8 36.0774 Q1204.48 32.4315 1198.97 32.4315 Q1192.73 32.4315 1188.96 35.9558 Q1185.24 39.4801 1184.67 45.8805 L1211.24 45.84 Z" fill="#000000" fill-rule="nonzero" fill-opacity="1" /><path clip-path="url(#clip030)" d="M1263.58 28.9478 L1263.58 35.9153 Q1260.42 34.1734 1257.22 33.3227 Q1254.06 32.4315 1250.82 32.4315 Q1243.57 32.4315 1239.56 37.0496 Q1235.55 41.6271 1235.55 49.9314 Q1235.55 58.2358 1239.56 62.8538 Q1243.57 67.4314 1250.82 67.4314 Q1254.06 67.4314 1257.22 66.5807 Q1260.42 65.6895 1263.58 63.9476 L1263.58 70.8341 Q1260.46 72.2924 1257.1 73.0216 Q1253.78 73.7508 1250.01 73.7508 Q1239.76 73.7508 1233.73 67.3098 Q1227.69 60.8689 1227.69 49.9314 Q1227.69 38.832 1233.77 32.472 Q1239.88 26.1121 1250.5 26.1121 Q1253.94 26.1121 1257.22 26.8413 Q1260.5 27.5299 1263.58 28.9478 Z" fill="#000000" fill-rule="nonzero" fill-opacity="1" /><path clip-path="url(#clip030)" d="M1283.92 14.324 L1283.92 27.2059 L1299.27 27.2059 L1299.27 32.9987 L1283.92 32.9987 L1283.92 57.6282 Q1283.92 63.1779 1285.41 64.7578 Q1286.95 66.3376 1291.61 66.3376 L1299.27 66.3376 L1299.27 72.576 L1291.61 72.576 Q1282.98 72.576 1279.7 69.3758 Q1276.42 66.1351 1276.42 57.6282 L1276.42 32.9987 L1270.95 32.9987 L1270.95 27.2059 L1276.42 27.2059 L1276.42 14.324 L1283.92 14.324 Z" fill="#000000" fill-rule="nonzero" fill-opacity="1" /><path clip-path="url(#clip030)" d="M1335.36 34.1734 Q1334.11 33.4443 1332.61 33.1202 Q1331.15 32.7556 1329.37 32.7556 Q1323.05 32.7556 1319.65 36.8875 Q1316.28 40.9789 1316.28 48.6757 L1316.28 72.576 L1308.79 72.576 L1308.79 27.2059 L1316.28 27.2059 L1316.28 34.2544 Q1318.63 30.1225 1322.4 28.1376 Q1326.17 26.1121 1331.55 26.1121 Q1332.32 26.1121 1333.26 26.2337 Q1334.19 26.3147 1335.32 26.5172 L1335.36 34.1734 Z" fill="#000000" fill-rule="nonzero" fill-opacity="1" /><path clip-path="url(#clip030)" d="M1342.41 54.671 L1342.41 27.2059 L1349.86 27.2059 L1349.86 54.3874 Q1349.86 60.8284 1352.38 64.0691 Q1354.89 67.2693 1359.91 67.2693 Q1365.95 67.2693 1369.43 63.421 Q1372.95 59.5726 1372.95 52.9291 L1372.95 27.2059 L1380.41 27.2059 L1380.41 72.576 L1372.95 72.576 L1372.95 65.6084 Q1370.24 69.7404 1366.64 71.7658 Q1363.07 73.7508 1358.33 73.7508 Q1350.51 73.7508 1346.46 68.8897 Q1342.41 64.0286 1342.41 54.671 M1361.17 26.1121 L1361.17 26.1121 Z" fill="#000000" fill-rule="nonzero" fill-opacity="1" /><path clip-path="url(#clip030)" d="M1431.09 35.9153 Q1433.88 30.8922 1437.77 28.5022 Q1441.66 26.1121 1446.92 26.1121 Q1454.01 26.1121 1457.86 31.0947 Q1461.71 36.0368 1461.71 45.1919 L1461.71 72.576 L1454.22 72.576 L1454.22 45.4349 Q1454.22 38.913 1451.91 35.7533 Q1449.6 32.5936 1444.86 32.5936 Q1439.07 32.5936 1435.7 36.4419 Q1432.34 40.2903 1432.34 46.9338 L1432.34 72.576 L1424.85 72.576 L1424.85 45.4349 Q1424.85 38.8725 1422.54 35.7533 Q1420.23 32.5936 1415.41 32.5936 Q1409.7 32.5936 1406.33 36.4824 Q1402.97 40.3308 1402.97 46.9338 L1402.97 72.576 L1395.48 72.576 L1395.48 27.2059 L1402.97 27.2059 L1402.97 34.2544 Q1405.52 30.082 1409.09 28.0971 Q1412.65 26.1121 1417.56 26.1121 Q1422.5 26.1121 1425.94 28.6237 Q1429.42 31.1352 1431.09 35.9153 Z" fill="#000000" fill-rule="nonzero" fill-opacity="1" /><path clip-path="url(#clip032)" d="M318.742 678.897 L318.742 1035.39 L350.803 1035.39 L350.803 678.897 L318.742 678.897 L318.742 678.897  Z" fill="#000000" fill-rule="evenodd" fill-opacity="1"/>
<polyline clip-path="url(#clip032)" style="stroke:#000000; stroke-linecap:round; stroke-linejoin:round; stroke-width:4; stroke-opacity:1; fill:none" points="318.742,678.897 318.742,1035.39 350.803,1035.39 350.803,678.897 318.742,678.897 "/>
<path clip-path="url(#clip032)" d="M350.803 634.336 L350.803 1035.39 L382.863 1035.39 L382.863 634.336 L350.803 634.336 L350.803 634.336  Z" fill="#000000" fill-rule="evenodd" fill-opacity="1"/>
<polyline clip-path="url(#clip032)" style="stroke:#000000; stroke-linecap:round; stroke-linejoin:round; stroke-width:4; stroke-opacity:1; fill:none" points="350.803,634.336 350.803,1035.39 382.863,1035.39 382.863,634.336 350.803,634.336 "/>
<path clip-path="url(#clip032)" d="M382.863 625.423 L382.863 1035.39 L414.924 1035.39 L414.924 625.423 L382.863 625.423 L382.863 625.423  Z" fill="#000000" fill-rule="evenodd" fill-opacity="1"/>
<polyline clip-path="url(#clip032)" style="stroke:#000000; stroke-linecap:round; stroke-linejoin:round; stroke-width:4; stroke-opacity:1; fill:none" points="382.863,625.423 382.863,1035.39 414.924,1035.39 414.924,625.423 382.863,625.423 "/>
<path clip-path="url(#clip032)" d="M414.924 393.704 L414.924 1035.39 L446.984 1035.39 L446.984 393.704 L414.924 393.704 L414.924 393.704  Z" fill="#000000" fill-rule="evenodd" fill-opacity="1"/>
<polyline clip-path="url(#clip032)" style="stroke:#000000; stroke-linecap:round; stroke-linejoin:round; stroke-width:4; stroke-opacity:1; fill:none" points="414.924,393.704 414.924,1035.39 446.984,1035.39 446.984,393.704 414.924,393.704 "/>
<path clip-path="url(#clip032)" d="M446.984 375.88 L446.984 1035.39 L479.045 1035.39 L479.045 375.88 L446.984 375.88 L446.984 375.88  Z" fill="#000000" fill-rule="evenodd" fill-opacity="1"/>
<polyline clip-path="url(#clip032)" style="stroke:#000000; stroke-linecap:round; stroke-linejoin:round; stroke-width:4; stroke-opacity:1; fill:none" points="446.984,375.88 446.984,1035.39 479.045,1035.39 479.045,375.88 446.984,375.88 "/>
<path clip-path="url(#clip032)" d="M479.045 224.371 L479.045 1035.39 L511.106 1035.39 L511.106 224.371 L479.045 224.371 L479.045 224.371  Z" fill="#000000" fill-rule="evenodd" fill-opacity="1"/>
<polyline clip-path="url(#clip032)" style="stroke:#000000; stroke-linecap:round; stroke-linejoin:round; stroke-width:4; stroke-opacity:1; fill:none" points="479.045,224.371 479.045,1035.39 511.106,1035.39 511.106,224.371 479.045,224.371 "/>
<path clip-path="url(#clip032)" d="M511.106 117.424 L511.106 1035.39 L543.166 1035.39 L543.166 117.424 L511.106 117.424 L511.106 117.424  Z" fill="#000000" fill-rule="evenodd" fill-opacity="1"/>
<polyline clip-path="url(#clip032)" style="stroke:#000000; stroke-linecap:round; stroke-linejoin:round; stroke-width:4; stroke-opacity:1; fill:none" points="511.106,117.424 511.106,1035.39 543.166,1035.39 543.166,117.424 511.106,117.424 "/>
<path clip-path="url(#clip032)" d="M543.166 358.055 L543.166 1035.39 L575.227 1035.39 L575.227 358.055 L543.166 358.055 L543.166 358.055  Z" fill="#000000" fill-rule="evenodd" fill-opacity="1"/>
<polyline clip-path="url(#clip032)" style="stroke:#000000; stroke-linecap:round; stroke-linejoin:round; stroke-width:4; stroke-opacity:1; fill:none" points="543.166,358.055 543.166,1035.39 575.227,1035.39 575.227,358.055 543.166,358.055 "/>
<path clip-path="url(#clip032)" d="M575.227 206.547 L575.227 1035.39 L607.287 1035.39 L607.287 206.547 L575.227 206.547 L575.227 206.547  Z" fill="#000000" fill-rule="evenodd" fill-opacity="1"/>
<polyline clip-path="url(#clip032)" style="stroke:#000000; stroke-linecap:round; stroke-linejoin:round; stroke-width:4; stroke-opacity:1; fill:none" points="575.227,206.547 575.227,1035.39 607.287,1035.39 607.287,206.547 575.227,206.547 "/>
<path clip-path="url(#clip032)" d="M607.287 304.582 L607.287 1035.39 L639.348 1035.39 L639.348 304.582 L607.287 304.582 L607.287 304.582  Z" fill="#000000" fill-rule="evenodd" fill-opacity="1"/>
<polyline clip-path="url(#clip032)" style="stroke:#000000; stroke-linecap:round; stroke-linejoin:round; stroke-width:4; stroke-opacity:1; fill:none" points="607.287,304.582 607.287,1035.39 639.348,1035.39 639.348,304.582 607.287,304.582 "/>
<path clip-path="url(#clip032)" d="M639.348 304.582 L639.348 1035.39 L671.409 1035.39 L671.409 304.582 L639.348 304.582 L639.348 304.582  Z" fill="#000000" fill-rule="evenodd" fill-opacity="1"/>
<polyline clip-path="url(#clip032)" style="stroke:#000000; stroke-linecap:round; stroke-linejoin:round; stroke-width:4; stroke-opacity:1; fill:none" points="639.348,304.582 639.348,1035.39 671.409,1035.39 671.409,304.582 639.348,304.582 "/>
<path clip-path="url(#clip032)" d="M671.409 366.968 L671.409 1035.39 L703.469 1035.39 L703.469 366.968 L671.409 366.968 L671.409 366.968  Z" fill="#000000" fill-rule="evenodd" fill-opacity="1"/>
<polyline clip-path="url(#clip032)" style="stroke:#000000; stroke-linecap:round; stroke-linejoin:round; stroke-width:4; stroke-opacity:1; fill:none" points="671.409,366.968 671.409,1035.39 703.469,1035.39 703.469,366.968 671.409,366.968 "/>
<path clip-path="url(#clip032)" d="M703.469 411.529 L703.469 1035.39 L735.53 1035.39 L735.53 411.529 L703.469 411.529 L703.469 411.529  Z" fill="#000000" fill-rule="evenodd" fill-opacity="1"/>
<polyline clip-path="url(#clip032)" style="stroke:#000000; stroke-linecap:round; stroke-linejoin:round; stroke-width:4; stroke-opacity:1; fill:none" points="703.469,411.529 703.469,1035.39 735.53,1035.39 735.53,411.529 703.469,411.529 "/>
<path clip-path="url(#clip032)" d="M735.53 322.406 L735.53 1035.39 L767.591 1035.39 L767.591 322.406 L735.53 322.406 L735.53 322.406  Z" fill="#000000" fill-rule="evenodd" fill-opacity="1"/>
<polyline clip-path="url(#clip032)" style="stroke:#000000; stroke-linecap:round; stroke-linejoin:round; stroke-width:4; stroke-opacity:1; fill:none" points="735.53,322.406 735.53,1035.39 767.591,1035.39 767.591,322.406 735.53,322.406 "/>
<path clip-path="url(#clip032)" d="M767.591 625.423 L767.591 1035.39 L799.651 1035.39 L799.651 625.423 L767.591 625.423 L767.591 625.423  Z" fill="#000000" fill-rule="evenodd" fill-opacity="1"/>
<polyline clip-path="url(#clip032)" style="stroke:#000000; stroke-linecap:round; stroke-linejoin:round; stroke-width:4; stroke-opacity:1; fill:none" points="767.591,625.423 767.591,1035.39 799.651,1035.39 799.651,625.423 767.591,625.423 "/>
<path clip-path="url(#clip032)" d="M799.651 518.476 L799.651 1035.39 L831.712 1035.39 L831.712 518.476 L799.651 518.476 L799.651 518.476  Z" fill="#000000" fill-rule="evenodd" fill-opacity="1"/>
<polyline clip-path="url(#clip032)" style="stroke:#000000; stroke-linecap:round; stroke-linejoin:round; stroke-width:4; stroke-opacity:1; fill:none" points="799.651,518.476 799.651,1035.39 831.712,1035.39 831.712,518.476 799.651,518.476 "/>
<path clip-path="url(#clip032)" d="M831.712 402.617 L831.712 1035.39 L863.772 1035.39 L863.772 402.617 L831.712 402.617 L831.712 402.617  Z" fill="#000000" fill-rule="evenodd" fill-opacity="1"/>
<polyline clip-path="url(#clip032)" style="stroke:#000000; stroke-linecap:round; stroke-linejoin:round; stroke-width:4; stroke-opacity:1; fill:none" points="831.712,402.617 831.712,1035.39 863.772,1035.39 863.772,402.617 831.712,402.617 "/>
<path clip-path="url(#clip032)" d="M863.772 571.95 L863.772 1035.39 L895.833 1035.39 L895.833 571.95 L863.772 571.95 L863.772 571.95  Z" fill="#000000" fill-rule="evenodd" fill-opacity="1"/>
<polyline clip-path="url(#clip032)" style="stroke:#000000; stroke-linecap:round; stroke-linejoin:round; stroke-width:4; stroke-opacity:1; fill:none" points="863.772,571.95 863.772,1035.39 895.833,1035.39 895.833,571.95 863.772,571.95 "/>
<path clip-path="url(#clip032)" d="M895.833 420.441 L895.833 1035.39 L927.894 1035.39 L927.894 420.441 L895.833 420.441 L895.833 420.441  Z" fill="#000000" fill-rule="evenodd" fill-opacity="1"/>
<polyline clip-path="url(#clip032)" style="stroke:#000000; stroke-linecap:round; stroke-linejoin:round; stroke-width:4; stroke-opacity:1; fill:none" points="895.833,420.441 895.833,1035.39 927.894,1035.39 927.894,420.441 895.833,420.441 "/>
<path clip-path="url(#clip032)" d="M927.894 438.266 L927.894 1035.39 L959.954 1035.39 L959.954 438.266 L927.894 438.266 L927.894 438.266  Z" fill="#000000" fill-rule="evenodd" fill-opacity="1"/>
<polyline clip-path="url(#clip032)" style="stroke:#000000; stroke-linecap:round; stroke-linejoin:round; stroke-width:4; stroke-opacity:1; fill:none" points="927.894,438.266 927.894,1035.39 959.954,1035.39 959.954,438.266 927.894,438.266 "/>
<path clip-path="url(#clip032)" d="M959.954 554.125 L959.954 1035.39 L992.015 1035.39 L992.015 554.125 L959.954 554.125 L959.954 554.125  Z" fill="#000000" fill-rule="evenodd" fill-opacity="1"/>
<polyline clip-path="url(#clip032)" style="stroke:#000000; stroke-linecap:round; stroke-linejoin:round; stroke-width:4; stroke-opacity:1; fill:none" points="959.954,554.125 959.954,1035.39 992.015,1035.39 992.015,554.125 959.954,554.125 "/>
<path clip-path="url(#clip032)" d="M992.015 563.038 L992.015 1035.39 L1024.08 1035.39 L1024.08 563.038 L992.015 563.038 L992.015 563.038  Z" fill="#000000" fill-rule="evenodd" fill-opacity="1"/>
<polyline clip-path="url(#clip032)" style="stroke:#000000; stroke-linecap:round; stroke-linejoin:round; stroke-width:4; stroke-opacity:1; fill:none" points="992.015,563.038 992.015,1035.39 1024.08,1035.39 1024.08,563.038 992.015,563.038 "/>
<path clip-path="url(#clip032)" d="M1024.08 714.546 L1024.08 1035.39 L1056.14 1035.39 L1056.14 714.546 L1024.08 714.546 L1024.08 714.546  Z" fill="#000000" fill-rule="evenodd" fill-opacity="1"/>
<polyline clip-path="url(#clip032)" style="stroke:#000000; stroke-linecap:round; stroke-linejoin:round; stroke-width:4; stroke-opacity:1; fill:none" points="1024.08,714.546 1024.08,1035.39 1056.14,1035.39 1056.14,714.546 1024.08,714.546 "/>
<path clip-path="url(#clip032)" d="M1056.14 652.16 L1056.14 1035.39 L1088.2 1035.39 L1088.2 652.16 L1056.14 652.16 L1056.14 652.16  Z" fill="#000000" fill-rule="evenodd" fill-opacity="1"/>
<polyline clip-path="url(#clip032)" style="stroke:#000000; stroke-linecap:round; stroke-linejoin:round; stroke-width:4; stroke-opacity:1; fill:none" points="1056.14,652.16 1056.14,1035.39 1088.2,1035.39 1088.2,652.16 1056.14,652.16 "/>
<path clip-path="url(#clip032)" d="M1088.2 625.423 L1088.2 1035.39 L1120.26 1035.39 L1120.26 625.423 L1088.2 625.423 L1088.2 625.423  Z" fill="#000000" fill-rule="evenodd" fill-opacity="1"/>
<polyline clip-path="url(#clip032)" style="stroke:#000000; stroke-linecap:round; stroke-linejoin:round; stroke-width:4; stroke-opacity:1; fill:none" points="1088.2,625.423 1088.2,1035.39 1120.26,1035.39 1120.26,625.423 1088.2,625.423 "/>
<path clip-path="url(#clip032)" d="M1120.26 616.511 L1120.26 1035.39 L1152.32 1035.39 L1152.32 616.511 L1120.26 616.511 L1120.26 616.511  Z" fill="#000000" fill-rule="evenodd" fill-opacity="1"/>
<polyline clip-path="url(#clip032)" style="stroke:#000000; stroke-linecap:round; stroke-linejoin:round; stroke-width:4; stroke-opacity:1; fill:none" points="1120.26,616.511 1120.26,1035.39 1152.32,1035.39 1152.32,616.511 1120.26,616.511 "/>
<path clip-path="url(#clip032)" d="M1152.32 741.283 L1152.32 1035.39 L1184.38 1035.39 L1184.38 741.283 L1152.32 741.283 L1152.32 741.283  Z" fill="#000000" fill-rule="evenodd" fill-opacity="1"/>
<polyline clip-path="url(#clip032)" style="stroke:#000000; stroke-linecap:round; stroke-linejoin:round; stroke-width:4; stroke-opacity:1; fill:none" points="1152.32,741.283 1152.32,1035.39 1184.38,1035.39 1184.38,741.283 1152.32,741.283 "/>
<path clip-path="url(#clip032)" d="M1184.38 732.371 L1184.38 1035.39 L1216.44 1035.39 L1216.44 732.371 L1184.38 732.371 L1184.38 732.371  Z" fill="#000000" fill-rule="evenodd" fill-opacity="1"/>
<polyline clip-path="url(#clip032)" style="stroke:#000000; stroke-linecap:round; stroke-linejoin:round; stroke-width:4; stroke-opacity:1; fill:none" points="1184.38,732.371 1184.38,1035.39 1216.44,1035.39 1216.44,732.371 1184.38,732.371 "/>
<path clip-path="url(#clip032)" d="M1216.44 750.195 L1216.44 1035.39 L1248.5 1035.39 L1248.5 750.195 L1216.44 750.195 L1216.44 750.195  Z" fill="#000000" fill-rule="evenodd" fill-opacity="1"/>
<polyline clip-path="url(#clip032)" style="stroke:#000000; stroke-linecap:round; stroke-linejoin:round; stroke-width:4; stroke-opacity:1; fill:none" points="1216.44,750.195 1216.44,1035.39 1248.5,1035.39 1248.5,750.195 1216.44,750.195 "/>
<path clip-path="url(#clip032)" d="M1248.5 696.722 L1248.5 1035.39 L1280.56 1035.39 L1280.56 696.722 L1248.5 696.722 L1248.5 696.722  Z" fill="#000000" fill-rule="evenodd" fill-opacity="1"/>
<polyline clip-path="url(#clip032)" style="stroke:#000000; stroke-linecap:round; stroke-linejoin:round; stroke-width:4; stroke-opacity:1; fill:none" points="1248.5,696.722 1248.5,1035.39 1280.56,1035.39 1280.56,696.722 1248.5,696.722 "/>
<path clip-path="url(#clip032)" d="M1280.56 723.458 L1280.56 1035.39 L1312.62 1035.39 L1312.62 723.458 L1280.56 723.458 L1280.56 723.458  Z" fill="#000000" fill-rule="evenodd" fill-opacity="1"/>
<polyline clip-path="url(#clip032)" style="stroke:#000000; stroke-linecap:round; stroke-linejoin:round; stroke-width:4; stroke-opacity:1; fill:none" points="1280.56,723.458 1280.56,1035.39 1312.62,1035.39 1312.62,723.458 1280.56,723.458 "/>
<path clip-path="url(#clip032)" d="M1312.62 785.844 L1312.62 1035.39 L1344.68 1035.39 L1344.68 785.844 L1312.62 785.844 L1312.62 785.844  Z" fill="#000000" fill-rule="evenodd" fill-opacity="1"/>
<polyline clip-path="url(#clip032)" style="stroke:#000000; stroke-linecap:round; stroke-linejoin:round; stroke-width:4; stroke-opacity:1; fill:none" points="1312.62,785.844 1312.62,1035.39 1344.68,1035.39 1344.68,785.844 1312.62,785.844 "/>
<path clip-path="url(#clip032)" d="M1344.68 776.932 L1344.68 1035.39 L1376.74 1035.39 L1376.74 776.932 L1344.68 776.932 L1344.68 776.932  Z" fill="#000000" fill-rule="evenodd" fill-opacity="1"/>
<polyline clip-path="url(#clip032)" style="stroke:#000000; stroke-linecap:round; stroke-linejoin:round; stroke-width:4; stroke-opacity:1; fill:none" points="1344.68,776.932 1344.68,1035.39 1376.74,1035.39 1376.74,776.932 1344.68,776.932 "/>
<path clip-path="url(#clip032)" d="M1376.74 812.581 L1376.74 1035.39 L1408.8 1035.39 L1408.8 812.581 L1376.74 812.581 L1376.74 812.581  Z" fill="#000000" fill-rule="evenodd" fill-opacity="1"/>
<polyline clip-path="url(#clip032)" style="stroke:#000000; stroke-linecap:round; stroke-linejoin:round; stroke-width:4; stroke-opacity:1; fill:none" points="1376.74,812.581 1376.74,1035.39 1408.8,1035.39 1408.8,812.581 1376.74,812.581 "/>
<path clip-path="url(#clip032)" d="M1408.8 830.406 L1408.8 1035.39 L1440.86 1035.39 L1440.86 830.406 L1408.8 830.406 L1408.8 830.406  Z" fill="#000000" fill-rule="evenodd" fill-opacity="1"/>
<polyline clip-path="url(#clip032)" style="stroke:#000000; stroke-linecap:round; stroke-linejoin:round; stroke-width:4; stroke-opacity:1; fill:none" points="1408.8,830.406 1408.8,1035.39 1440.86,1035.39 1440.86,830.406 1408.8,830.406 "/>
<path clip-path="url(#clip032)" d="M1440.86 803.669 L1440.86 1035.39 L1472.92 1035.39 L1472.92 803.669 L1440.86 803.669 L1440.86 803.669  Z" fill="#000000" fill-rule="evenodd" fill-opacity="1"/>
<polyline clip-path="url(#clip032)" style="stroke:#000000; stroke-linecap:round; stroke-linejoin:round; stroke-width:4; stroke-opacity:1; fill:none" points="1440.86,803.669 1440.86,1035.39 1472.92,1035.39 1472.92,803.669 1440.86,803.669 "/>
<path clip-path="url(#clip032)" d="M1472.92 857.142 L1472.92 1035.39 L1504.98 1035.39 L1504.98 857.142 L1472.92 857.142 L1472.92 857.142  Z" fill="#000000" fill-rule="evenodd" fill-opacity="1"/>
<polyline clip-path="url(#clip032)" style="stroke:#000000; stroke-linecap:round; stroke-linejoin:round; stroke-width:4; stroke-opacity:1; fill:none" points="1472.92,857.142 1472.92,1035.39 1504.98,1035.39 1504.98,857.142 1472.92,857.142 "/>
<path clip-path="url(#clip032)" d="M1504.98 803.669 L1504.98 1035.39 L1537.05 1035.39 L1537.05 803.669 L1504.98 803.669 L1504.98 803.669  Z" fill="#000000" fill-rule="evenodd" fill-opacity="1"/>
<polyline clip-path="url(#clip032)" style="stroke:#000000; stroke-linecap:round; stroke-linejoin:round; stroke-width:4; stroke-opacity:1; fill:none" points="1504.98,803.669 1504.98,1035.39 1537.05,1035.39 1537.05,803.669 1504.98,803.669 "/>
<path clip-path="url(#clip032)" d="M1537.05 803.669 L1537.05 1035.39 L1569.11 1035.39 L1569.11 803.669 L1537.05 803.669 L1537.05 803.669  Z" fill="#000000" fill-rule="evenodd" fill-opacity="1"/>
<polyline clip-path="url(#clip032)" style="stroke:#000000; stroke-linecap:round; stroke-linejoin:round; stroke-width:4; stroke-opacity:1; fill:none" points="1537.05,803.669 1537.05,1035.39 1569.11,1035.39 1569.11,803.669 1537.05,803.669 "/>
<path clip-path="url(#clip032)" d="M1569.11 883.879 L1569.11 1035.39 L1601.17 1035.39 L1601.17 883.879 L1569.11 883.879 L1569.11 883.879  Z" fill="#000000" fill-rule="evenodd" fill-opacity="1"/>
<polyline clip-path="url(#clip032)" style="stroke:#000000; stroke-linecap:round; stroke-linejoin:round; stroke-width:4; stroke-opacity:1; fill:none" points="1569.11,883.879 1569.11,1035.39 1601.17,1035.39 1601.17,883.879 1569.11,883.879 "/>
<path clip-path="url(#clip032)" d="M1601.17 892.792 L1601.17 1035.39 L1633.23 1035.39 L1633.23 892.792 L1601.17 892.792 L1601.17 892.792  Z" fill="#000000" fill-rule="evenodd" fill-opacity="1"/>
<polyline clip-path="url(#clip032)" style="stroke:#000000; stroke-linecap:round; stroke-linejoin:round; stroke-width:4; stroke-opacity:1; fill:none" points="1601.17,892.792 1601.17,1035.39 1633.23,1035.39 1633.23,892.792 1601.17,892.792 "/>
<path clip-path="url(#clip032)" d="M1633.23 928.441 L1633.23 1035.39 L1665.29 1035.39 L1665.29 928.441 L1633.23 928.441 L1633.23 928.441  Z" fill="#000000" fill-rule="evenodd" fill-opacity="1"/>
<polyline clip-path="url(#clip032)" style="stroke:#000000; stroke-linecap:round; stroke-linejoin:round; stroke-width:4; stroke-opacity:1; fill:none" points="1633.23,928.441 1633.23,1035.39 1665.29,1035.39 1665.29,928.441 1633.23,928.441 "/>
<path clip-path="url(#clip032)" d="M1665.29 892.792 L1665.29 1035.39 L1697.35 1035.39 L1697.35 892.792 L1665.29 892.792 L1665.29 892.792  Z" fill="#000000" fill-rule="evenodd" fill-opacity="1"/>
<polyline clip-path="url(#clip032)" style="stroke:#000000; stroke-linecap:round; stroke-linejoin:round; stroke-width:4; stroke-opacity:1; fill:none" points="1665.29,892.792 1665.29,1035.39 1697.35,1035.39 1697.35,892.792 1665.29,892.792 "/>
<path clip-path="url(#clip032)" d="M1697.35 928.441 L1697.35 1035.39 L1729.41 1035.39 L1729.41 928.441 L1697.35 928.441 L1697.35 928.441  Z" fill="#000000" fill-rule="evenodd" fill-opacity="1"/>
<polyline clip-path="url(#clip032)" style="stroke:#000000; stroke-linecap:round; stroke-linejoin:round; stroke-width:4; stroke-opacity:1; fill:none" points="1697.35,928.441 1697.35,1035.39 1729.41,1035.39 1729.41,928.441 1697.35,928.441 "/>
<path clip-path="url(#clip032)" d="M1729.41 937.353 L1729.41 1035.39 L1761.47 1035.39 L1761.47 937.353 L1729.41 937.353 L1729.41 937.353  Z" fill="#000000" fill-rule="evenodd" fill-opacity="1"/>
<polyline clip-path="url(#clip032)" style="stroke:#000000; stroke-linecap:round; stroke-linejoin:round; stroke-width:4; stroke-opacity:1; fill:none" points="1729.41,937.353 1729.41,1035.39 1761.47,1035.39 1761.47,937.353 1729.41,937.353 "/>
<path clip-path="url(#clip032)" d="M1761.47 1017.56 L1761.47 1035.39 L1793.53 1035.39 L1793.53 1017.56 L1761.47 1017.56 L1761.47 1017.56  Z" fill="#000000" fill-rule="evenodd" fill-opacity="1"/>
<polyline clip-path="url(#clip032)" style="stroke:#000000; stroke-linecap:round; stroke-linejoin:round; stroke-width:4; stroke-opacity:1; fill:none" points="1761.47,1017.56 1761.47,1035.39 1793.53,1035.39 1793.53,1017.56 1761.47,1017.56 "/>
<path clip-path="url(#clip032)" d="M1793.53 1035.39 L1793.53 1035.39 L1825.59 1035.39 L1825.59 1035.39 L1793.53 1035.39 L1793.53 1035.39  Z" fill="#000000" fill-rule="evenodd" fill-opacity="1"/>
<polyline clip-path="url(#clip032)" style="stroke:#000000; stroke-linecap:round; stroke-linejoin:round; stroke-width:4; stroke-opacity:1; fill:none" points="1793.53,1035.39 1793.53,1035.39 1825.59,1035.39 1793.53,1035.39 "/>
<path clip-path="url(#clip032)" d="M1825.59 1026.48 L1825.59 1035.39 L1857.65 1035.39 L1857.65 1026.48 L1825.59 1026.48 L1825.59 1026.48  Z" fill="#000000" fill-rule="evenodd" fill-opacity="1"/>
<polyline clip-path="url(#clip032)" style="stroke:#000000; stroke-linecap:round; stroke-linejoin:round; stroke-width:4; stroke-opacity:1; fill:none" points="1825.59,1026.48 1825.59,1035.39 1857.65,1035.39 1857.65,1026.48 1825.59,1026.48 "/>
<circle clip-path="url(#clip032)" style="fill:#000000; stroke:none; fill-opacity:0" cx="334.772" cy="678.897" r="2"/>
<circle clip-path="url(#clip032)" style="fill:#000000; stroke:none; fill-opacity:0" cx="366.833" cy="634.336" r="2"/>
<circle clip-path="url(#clip032)" style="fill:#000000; stroke:none; fill-opacity:0" cx="398.893" cy="625.423" r="2"/>
<circle clip-path="url(#clip032)" style="fill:#000000; stroke:none; fill-opacity:0" cx="430.954" cy="393.704" r="2"/>
<circle clip-path="url(#clip032)" style="fill:#000000; stroke:none; fill-opacity:0" cx="463.015" cy="375.88" r="2"/>
<circle clip-path="url(#clip032)" style="fill:#000000; stroke:none; fill-opacity:0" cx="495.075" cy="224.371" r="2"/>
<circle clip-path="url(#clip032)" style="fill:#000000; stroke:none; fill-opacity:0" cx="527.136" cy="117.424" r="2"/>
<circle clip-path="url(#clip032)" style="fill:#000000; stroke:none; fill-opacity:0" cx="559.197" cy="358.055" r="2"/>
<circle clip-path="url(#clip032)" style="fill:#000000; stroke:none; fill-opacity:0" cx="591.257" cy="206.547" r="2"/>
<circle clip-path="url(#clip032)" style="fill:#000000; stroke:none; fill-opacity:0" cx="623.318" cy="304.582" r="2"/>
<circle clip-path="url(#clip032)" style="fill:#000000; stroke:none; fill-opacity:0" cx="655.378" cy="304.582" r="2"/>
<circle clip-path="url(#clip032)" style="fill:#000000; stroke:none; fill-opacity:0" cx="687.439" cy="366.968" r="2"/>
<circle clip-path="url(#clip032)" style="fill:#000000; stroke:none; fill-opacity:0" cx="719.5" cy="411.529" r="2"/>
<circle clip-path="url(#clip032)" style="fill:#000000; stroke:none; fill-opacity:0" cx="751.56" cy="322.406" r="2"/>
<circle clip-path="url(#clip032)" style="fill:#000000; stroke:none; fill-opacity:0" cx="783.621" cy="625.423" r="2"/>
<circle clip-path="url(#clip032)" style="fill:#000000; stroke:none; fill-opacity:0" cx="815.681" cy="518.476" r="2"/>
<circle clip-path="url(#clip032)" style="fill:#000000; stroke:none; fill-opacity:0" cx="847.742" cy="402.617" r="2"/>
<circle clip-path="url(#clip032)" style="fill:#000000; stroke:none; fill-opacity:0" cx="879.803" cy="571.95" r="2"/>
<circle clip-path="url(#clip032)" style="fill:#000000; stroke:none; fill-opacity:0" cx="911.863" cy="420.441" r="2"/>
<circle clip-path="url(#clip032)" style="fill:#000000; stroke:none; fill-opacity:0" cx="943.924" cy="438.266" r="2"/>
<circle clip-path="url(#clip032)" style="fill:#000000; stroke:none; fill-opacity:0" cx="975.984" cy="554.125" r="2"/>
<circle clip-path="url(#clip032)" style="fill:#000000; stroke:none; fill-opacity:0" cx="1008.05" cy="563.038" r="2"/>
<circle clip-path="url(#clip032)" style="fill:#000000; stroke:none; fill-opacity:0" cx="1040.11" cy="714.546" r="2"/>
<circle clip-path="url(#clip032)" style="fill:#000000; stroke:none; fill-opacity:0" cx="1072.17" cy="652.16" r="2"/>
<circle clip-path="url(#clip032)" style="fill:#000000; stroke:none; fill-opacity:0" cx="1104.23" cy="625.423" r="2"/>
<circle clip-path="url(#clip032)" style="fill:#000000; stroke:none; fill-opacity:0" cx="1136.29" cy="616.511" r="2"/>
<circle clip-path="url(#clip032)" style="fill:#000000; stroke:none; fill-opacity:0" cx="1168.35" cy="741.283" r="2"/>
<circle clip-path="url(#clip032)" style="fill:#000000; stroke:none; fill-opacity:0" cx="1200.41" cy="732.371" r="2"/>
<circle clip-path="url(#clip032)" style="fill:#000000; stroke:none; fill-opacity:0" cx="1232.47" cy="750.195" r="2"/>
<circle clip-path="url(#clip032)" style="fill:#000000; stroke:none; fill-opacity:0" cx="1264.53" cy="696.722" r="2"/>
<circle clip-path="url(#clip032)" style="fill:#000000; stroke:none; fill-opacity:0" cx="1296.59" cy="723.458" r="2"/>
<circle clip-path="url(#clip032)" style="fill:#000000; stroke:none; fill-opacity:0" cx="1328.65" cy="785.844" r="2"/>
<circle clip-path="url(#clip032)" style="fill:#000000; stroke:none; fill-opacity:0" cx="1360.71" cy="776.932" r="2"/>
<circle clip-path="url(#clip032)" style="fill:#000000; stroke:none; fill-opacity:0" cx="1392.77" cy="812.581" r="2"/>
<circle clip-path="url(#clip032)" style="fill:#000000; stroke:none; fill-opacity:0" cx="1424.83" cy="830.406" r="2"/>
<circle clip-path="url(#clip032)" style="fill:#000000; stroke:none; fill-opacity:0" cx="1456.89" cy="803.669" r="2"/>
<circle clip-path="url(#clip032)" style="fill:#000000; stroke:none; fill-opacity:0" cx="1488.95" cy="857.142" r="2"/>
<circle clip-path="url(#clip032)" style="fill:#000000; stroke:none; fill-opacity:0" cx="1521.01" cy="803.669" r="2"/>
<circle clip-path="url(#clip032)" style="fill:#000000; stroke:none; fill-opacity:0" cx="1553.08" cy="803.669" r="2"/>
<circle clip-path="url(#clip032)" style="fill:#000000; stroke:none; fill-opacity:0" cx="1585.14" cy="883.879" r="2"/>
<circle clip-path="url(#clip032)" style="fill:#000000; stroke:none; fill-opacity:0" cx="1617.2" cy="892.792" r="2"/>
<circle clip-path="url(#clip032)" style="fill:#000000; stroke:none; fill-opacity:0" cx="1649.26" cy="928.441" r="2"/>
<circle clip-path="url(#clip032)" style="fill:#000000; stroke:none; fill-opacity:0" cx="1681.32" cy="892.792" r="2"/>
<circle clip-path="url(#clip032)" style="fill:#000000; stroke:none; fill-opacity:0" cx="1713.38" cy="928.441" r="2"/>
<circle clip-path="url(#clip032)" style="fill:#000000; stroke:none; fill-opacity:0" cx="1745.44" cy="937.353" r="2"/>
<circle clip-path="url(#clip032)" style="fill:#000000; stroke:none; fill-opacity:0" cx="1777.5" cy="1017.56" r="2"/>
<circle clip-path="url(#clip032)" style="fill:#000000; stroke:none; fill-opacity:0" cx="1809.56" cy="1035.39" r="2"/>
<circle clip-path="url(#clip032)" style="fill:#000000; stroke:none; fill-opacity:0" cx="1841.62" cy="1026.48" r="2"/>
<path clip-path="url(#clip032)" d="M318.742 678.897 L318.742 1035.39 L350.803 1035.39 L350.803 678.897 L318.742 678.897 L318.742 678.897  Z" fill="#0000ff" fill-rule="evenodd" fill-opacity="0.8"/>
<polyline clip-path="url(#clip032)" style="stroke:#000000; stroke-linecap:round; stroke-linejoin:round; stroke-width:4; stroke-opacity:0.8; fill:none" points="318.742,678.897 318.742,1035.39 350.803,1035.39 350.803,678.897 318.742,678.897 "/>
<path clip-path="url(#clip032)" d="M350.803 634.336 L350.803 1035.39 L382.863 1035.39 L382.863 634.336 L350.803 634.336 L350.803 634.336  Z" fill="#0000ff" fill-rule="evenodd" fill-opacity="0.8"/>
<polyline clip-path="url(#clip032)" style="stroke:#000000; stroke-linecap:round; stroke-linejoin:round; stroke-width:4; stroke-opacity:0.8; fill:none" points="350.803,634.336 350.803,1035.39 382.863,1035.39 382.863,634.336 350.803,634.336 "/>
<path clip-path="url(#clip032)" d="M382.863 625.423 L382.863 1035.39 L414.924 1035.39 L414.924 625.423 L382.863 625.423 L382.863 625.423  Z" fill="#0000ff" fill-rule="evenodd" fill-opacity="0.8"/>
<polyline clip-path="url(#clip032)" style="stroke:#000000; stroke-linecap:round; stroke-linejoin:round; stroke-width:4; stroke-opacity:0.8; fill:none" points="382.863,625.423 382.863,1035.39 414.924,1035.39 414.924,625.423 382.863,625.423 "/>
<path clip-path="url(#clip032)" d="M414.924 393.704 L414.924 1035.39 L446.984 1035.39 L446.984 393.704 L414.924 393.704 L414.924 393.704  Z" fill="#0000ff" fill-rule="evenodd" fill-opacity="0.8"/>
<polyline clip-path="url(#clip032)" style="stroke:#000000; stroke-linecap:round; stroke-linejoin:round; stroke-width:4; stroke-opacity:0.8; fill:none" points="414.924,393.704 414.924,1035.39 446.984,1035.39 446.984,393.704 414.924,393.704 "/>
<path clip-path="url(#clip032)" d="M446.984 375.88 L446.984 1035.39 L479.045 1035.39 L479.045 375.88 L446.984 375.88 L446.984 375.88  Z" fill="#0000ff" fill-rule="evenodd" fill-opacity="0.8"/>
<polyline clip-path="url(#clip032)" style="stroke:#000000; stroke-linecap:round; stroke-linejoin:round; stroke-width:4; stroke-opacity:0.8; fill:none" points="446.984,375.88 446.984,1035.39 479.045,1035.39 479.045,375.88 446.984,375.88 "/>
<path clip-path="url(#clip032)" d="M479.045 473.915 L479.045 1035.39 L511.106 1035.39 L511.106 473.915 L479.045 473.915 L479.045 473.915  Z" fill="#0000ff" fill-rule="evenodd" fill-opacity="0.8"/>
<polyline clip-path="url(#clip032)" style="stroke:#000000; stroke-linecap:round; stroke-linejoin:round; stroke-width:4; stroke-opacity:0.8; fill:none" points="479.045,473.915 479.045,1035.39 511.106,1035.39 511.106,473.915 479.045,473.915 "/>
<path clip-path="url(#clip032)" d="M511.106 678.897 L511.106 1035.39 L543.166 1035.39 L543.166 678.897 L511.106 678.897 L511.106 678.897  Z" fill="#0000ff" fill-rule="evenodd" fill-opacity="0.8"/>
<polyline clip-path="url(#clip032)" style="stroke:#000000; stroke-linecap:round; stroke-linejoin:round; stroke-width:4; stroke-opacity:0.8; fill:none" points="511.106,678.897 511.106,1035.39 543.166,1035.39 543.166,678.897 511.106,678.897 "/>
<path clip-path="url(#clip032)" d="M543.166 750.195 L543.166 1035.39 L575.227 1035.39 L575.227 750.195 L543.166 750.195 L543.166 750.195  Z" fill="#0000ff" fill-rule="evenodd" fill-opacity="0.8"/>
<polyline clip-path="url(#clip032)" style="stroke:#000000; stroke-linecap:round; stroke-linejoin:round; stroke-width:4; stroke-opacity:0.8; fill:none" points="543.166,750.195 543.166,1035.39 575.227,1035.39 575.227,750.195 543.166,750.195 "/>
<path clip-path="url(#clip032)" d="M575.227 741.283 L575.227 1035.39 L607.287 1035.39 L607.287 741.283 L575.227 741.283 L575.227 741.283  Z" fill="#0000ff" fill-rule="evenodd" fill-opacity="0.8"/>
<polyline clip-path="url(#clip032)" style="stroke:#000000; stroke-linecap:round; stroke-linejoin:round; stroke-width:4; stroke-opacity:0.8; fill:none" points="575.227,741.283 575.227,1035.39 607.287,1035.39 607.287,741.283 575.227,741.283 "/>
<path clip-path="url(#clip032)" d="M607.287 714.546 L607.287 1035.39 L639.348 1035.39 L639.348 714.546 L607.287 714.546 L607.287 714.546  Z" fill="#0000ff" fill-rule="evenodd" fill-opacity="0.8"/>
<polyline clip-path="url(#clip032)" style="stroke:#000000; stroke-linecap:round; stroke-linejoin:round; stroke-width:4; stroke-opacity:0.8; fill:none" points="607.287,714.546 607.287,1035.39 639.348,1035.39 639.348,714.546 607.287,714.546 "/>
<path clip-path="url(#clip032)" d="M639.348 723.458 L639.348 1035.39 L671.409 1035.39 L671.409 723.458 L639.348 723.458 L639.348 723.458  Z" fill="#0000ff" fill-rule="evenodd" fill-opacity="0.8"/>
<polyline clip-path="url(#clip032)" style="stroke:#000000; stroke-linecap:round; stroke-linejoin:round; stroke-width:4; stroke-opacity:0.8; fill:none" points="639.348,723.458 639.348,1035.39 671.409,1035.39 671.409,723.458 639.348,723.458 "/>
<path clip-path="url(#clip032)" d="M671.409 732.371 L671.409 1035.39 L703.469 1035.39 L703.469 732.371 L671.409 732.371 L671.409 732.371  Z" fill="#0000ff" fill-rule="evenodd" fill-opacity="0.8"/>
<polyline clip-path="url(#clip032)" style="stroke:#000000; stroke-linecap:round; stroke-linejoin:round; stroke-width:4; stroke-opacity:0.8; fill:none" points="671.409,732.371 671.409,1035.39 703.469,1035.39 703.469,732.371 671.409,732.371 "/>
<path clip-path="url(#clip032)" d="M703.469 821.493 L703.469 1035.39 L735.53 1035.39 L735.53 821.493 L703.469 821.493 L703.469 821.493  Z" fill="#0000ff" fill-rule="evenodd" fill-opacity="0.8"/>
<polyline clip-path="url(#clip032)" style="stroke:#000000; stroke-linecap:round; stroke-linejoin:round; stroke-width:4; stroke-opacity:0.8; fill:none" points="703.469,821.493 703.469,1035.39 735.53,1035.39 735.53,821.493 703.469,821.493 "/>
<path clip-path="url(#clip032)" d="M735.53 714.546 L735.53 1035.39 L767.591 1035.39 L767.591 714.546 L735.53 714.546 L735.53 714.546  Z" fill="#0000ff" fill-rule="evenodd" fill-opacity="0.8"/>
<polyline clip-path="url(#clip032)" style="stroke:#000000; stroke-linecap:round; stroke-linejoin:round; stroke-width:4; stroke-opacity:0.8; fill:none" points="735.53,714.546 735.53,1035.39 767.591,1035.39 767.591,714.546 735.53,714.546 "/>
<path clip-path="url(#clip032)" d="M767.591 892.792 L767.591 1035.39 L799.651 1035.39 L799.651 892.792 L767.591 892.792 L767.591 892.792  Z" fill="#0000ff" fill-rule="evenodd" fill-opacity="0.8"/>
<polyline clip-path="url(#clip032)" style="stroke:#000000; stroke-linecap:round; stroke-linejoin:round; stroke-width:4; stroke-opacity:0.8; fill:none" points="767.591,892.792 767.591,1035.39 799.651,1035.39 799.651,892.792 767.591,892.792 "/>
<path clip-path="url(#clip032)" d="M799.651 768.02 L799.651 1035.39 L831.712 1035.39 L831.712 768.02 L799.651 768.02 L799.651 768.02  Z" fill="#0000ff" fill-rule="evenodd" fill-opacity="0.8"/>
<polyline clip-path="url(#clip032)" style="stroke:#000000; stroke-linecap:round; stroke-linejoin:round; stroke-width:4; stroke-opacity:0.8; fill:none" points="799.651,768.02 799.651,1035.39 831.712,1035.39 831.712,768.02 799.651,768.02 "/>
<path clip-path="url(#clip032)" d="M831.712 723.458 L831.712 1035.39 L863.772 1035.39 L863.772 723.458 L831.712 723.458 L831.712 723.458  Z" fill="#0000ff" fill-rule="evenodd" fill-opacity="0.8"/>
<polyline clip-path="url(#clip032)" style="stroke:#000000; stroke-linecap:round; stroke-linejoin:round; stroke-width:4; stroke-opacity:0.8; fill:none" points="831.712,723.458 831.712,1035.39 863.772,1035.39 863.772,723.458 831.712,723.458 "/>
<path clip-path="url(#clip032)" d="M863.772 866.055 L863.772 1035.39 L895.833 1035.39 L895.833 866.055 L863.772 866.055 L863.772 866.055  Z" fill="#0000ff" fill-rule="evenodd" fill-opacity="0.8"/>
<polyline clip-path="url(#clip032)" style="stroke:#000000; stroke-linecap:round; stroke-linejoin:round; stroke-width:4; stroke-opacity:0.8; fill:none" points="863.772,866.055 863.772,1035.39 895.833,1035.39 895.833,866.055 863.772,866.055 "/>
<path clip-path="url(#clip032)" d="M895.833 821.493 L895.833 1035.39 L927.894 1035.39 L927.894 821.493 L895.833 821.493 L895.833 821.493  Z" fill="#0000ff" fill-rule="evenodd" fill-opacity="0.8"/>
<polyline clip-path="url(#clip032)" style="stroke:#000000; stroke-linecap:round; stroke-linejoin:round; stroke-width:4; stroke-opacity:0.8; fill:none" points="895.833,821.493 895.833,1035.39 927.894,1035.39 927.894,821.493 895.833,821.493 "/>
<path clip-path="url(#clip032)" d="M927.894 794.757 L927.894 1035.39 L959.954 1035.39 L959.954 794.757 L927.894 794.757 L927.894 794.757  Z" fill="#0000ff" fill-rule="evenodd" fill-opacity="0.8"/>
<polyline clip-path="url(#clip032)" style="stroke:#000000; stroke-linecap:round; stroke-linejoin:round; stroke-width:4; stroke-opacity:0.8; fill:none" points="927.894,794.757 927.894,1035.39 959.954,1035.39 959.954,794.757 927.894,794.757 "/>
<path clip-path="url(#clip032)" d="M959.954 803.669 L959.954 1035.39 L992.015 1035.39 L992.015 803.669 L959.954 803.669 L959.954 803.669  Z" fill="#0000ff" fill-rule="evenodd" fill-opacity="0.8"/>
<polyline clip-path="url(#clip032)" style="stroke:#000000; stroke-linecap:round; stroke-linejoin:round; stroke-width:4; stroke-opacity:0.8; fill:none" points="959.954,803.669 959.954,1035.39 992.015,1035.39 992.015,803.669 959.954,803.669 "/>
<path clip-path="url(#clip032)" d="M992.015 839.318 L992.015 1035.39 L1024.08 1035.39 L1024.08 839.318 L992.015 839.318 L992.015 839.318  Z" fill="#0000ff" fill-rule="evenodd" fill-opacity="0.8"/>
<polyline clip-path="url(#clip032)" style="stroke:#000000; stroke-linecap:round; stroke-linejoin:round; stroke-width:4; stroke-opacity:0.8; fill:none" points="992.015,839.318 992.015,1035.39 1024.08,1035.39 1024.08,839.318 992.015,839.318 "/>
<path clip-path="url(#clip032)" d="M1024.08 866.055 L1024.08 1035.39 L1056.14 1035.39 L1056.14 866.055 L1024.08 866.055 L1024.08 866.055  Z" fill="#0000ff" fill-rule="evenodd" fill-opacity="0.8"/>
<polyline clip-path="url(#clip032)" style="stroke:#000000; stroke-linecap:round; stroke-linejoin:round; stroke-width:4; stroke-opacity:0.8; fill:none" points="1024.08,866.055 1024.08,1035.39 1056.14,1035.39 1056.14,866.055 1024.08,866.055 "/>
<path clip-path="url(#clip032)" d="M1056.14 830.406 L1056.14 1035.39 L1088.2 1035.39 L1088.2 830.406 L1056.14 830.406 L1056.14 830.406  Z" fill="#0000ff" fill-rule="evenodd" fill-opacity="0.8"/>
<polyline clip-path="url(#clip032)" style="stroke:#000000; stroke-linecap:round; stroke-linejoin:round; stroke-width:4; stroke-opacity:0.8; fill:none" points="1056.14,830.406 1056.14,1035.39 1088.2,1035.39 1088.2,830.406 1056.14,830.406 "/>
<path clip-path="url(#clip032)" d="M1088.2 839.318 L1088.2 1035.39 L1120.26 1035.39 L1120.26 839.318 L1088.2 839.318 L1088.2 839.318  Z" fill="#0000ff" fill-rule="evenodd" fill-opacity="0.8"/>
<polyline clip-path="url(#clip032)" style="stroke:#000000; stroke-linecap:round; stroke-linejoin:round; stroke-width:4; stroke-opacity:0.8; fill:none" points="1088.2,839.318 1088.2,1035.39 1120.26,1035.39 1120.26,839.318 1088.2,839.318 "/>
<path clip-path="url(#clip032)" d="M1120.26 830.406 L1120.26 1035.39 L1152.32 1035.39 L1152.32 830.406 L1120.26 830.406 L1120.26 830.406  Z" fill="#0000ff" fill-rule="evenodd" fill-opacity="0.8"/>
<polyline clip-path="url(#clip032)" style="stroke:#000000; stroke-linecap:round; stroke-linejoin:round; stroke-width:4; stroke-opacity:0.8; fill:none" points="1120.26,830.406 1120.26,1035.39 1152.32,1035.39 1152.32,830.406 1120.26,830.406 "/>
<path clip-path="url(#clip032)" d="M1152.32 874.967 L1152.32 1035.39 L1184.38 1035.39 L1184.38 874.967 L1152.32 874.967 L1152.32 874.967  Z" fill="#0000ff" fill-rule="evenodd" fill-opacity="0.8"/>
<polyline clip-path="url(#clip032)" style="stroke:#000000; stroke-linecap:round; stroke-linejoin:round; stroke-width:4; stroke-opacity:0.8; fill:none" points="1152.32,874.967 1152.32,1035.39 1184.38,1035.39 1184.38,874.967 1152.32,874.967 "/>
<path clip-path="url(#clip032)" d="M1184.38 928.441 L1184.38 1035.39 L1216.44 1035.39 L1216.44 928.441 L1184.38 928.441 L1184.38 928.441  Z" fill="#0000ff" fill-rule="evenodd" fill-opacity="0.8"/>
<polyline clip-path="url(#clip032)" style="stroke:#000000; stroke-linecap:round; stroke-linejoin:round; stroke-width:4; stroke-opacity:0.8; fill:none" points="1184.38,928.441 1184.38,1035.39 1216.44,1035.39 1216.44,928.441 1184.38,928.441 "/>
<path clip-path="url(#clip032)" d="M1216.44 883.879 L1216.44 1035.39 L1248.5 1035.39 L1248.5 883.879 L1216.44 883.879 L1216.44 883.879  Z" fill="#0000ff" fill-rule="evenodd" fill-opacity="0.8"/>
<polyline clip-path="url(#clip032)" style="stroke:#000000; stroke-linecap:round; stroke-linejoin:round; stroke-width:4; stroke-opacity:0.8; fill:none" points="1216.44,883.879 1216.44,1035.39 1248.5,1035.39 1248.5,883.879 1216.44,883.879 "/>
<path clip-path="url(#clip032)" d="M1248.5 839.318 L1248.5 1035.39 L1280.56 1035.39 L1280.56 839.318 L1248.5 839.318 L1248.5 839.318  Z" fill="#0000ff" fill-rule="evenodd" fill-opacity="0.8"/>
<polyline clip-path="url(#clip032)" style="stroke:#000000; stroke-linecap:round; stroke-linejoin:round; stroke-width:4; stroke-opacity:0.8; fill:none" points="1248.5,839.318 1248.5,1035.39 1280.56,1035.39 1280.56,839.318 1248.5,839.318 "/>
<path clip-path="url(#clip032)" d="M1280.56 812.581 L1280.56 1035.39 L1312.62 1035.39 L1312.62 812.581 L1280.56 812.581 L1280.56 812.581  Z" fill="#0000ff" fill-rule="evenodd" fill-opacity="0.8"/>
<polyline clip-path="url(#clip032)" style="stroke:#000000; stroke-linecap:round; stroke-linejoin:round; stroke-width:4; stroke-opacity:0.8; fill:none" points="1280.56,812.581 1280.56,1035.39 1312.62,1035.39 1312.62,812.581 1280.56,812.581 "/>
<path clip-path="url(#clip032)" d="M1312.62 866.055 L1312.62 1035.39 L1344.68 1035.39 L1344.68 866.055 L1312.62 866.055 L1312.62 866.055  Z" fill="#0000ff" fill-rule="evenodd" fill-opacity="0.8"/>
<polyline clip-path="url(#clip032)" style="stroke:#000000; stroke-linecap:round; stroke-linejoin:round; stroke-width:4; stroke-opacity:0.8; fill:none" points="1312.62,866.055 1312.62,1035.39 1344.68,1035.39 1344.68,866.055 1312.62,866.055 "/>
<path clip-path="url(#clip032)" d="M1344.68 892.792 L1344.68 1035.39 L1376.74 1035.39 L1376.74 892.792 L1344.68 892.792 L1344.68 892.792  Z" fill="#0000ff" fill-rule="evenodd" fill-opacity="0.8"/>
<polyline clip-path="url(#clip032)" style="stroke:#000000; stroke-linecap:round; stroke-linejoin:round; stroke-width:4; stroke-opacity:0.8; fill:none" points="1344.68,892.792 1344.68,1035.39 1376.74,1035.39 1376.74,892.792 1344.68,892.792 "/>
<path clip-path="url(#clip032)" d="M1376.74 910.616 L1376.74 1035.39 L1408.8 1035.39 L1408.8 910.616 L1376.74 910.616 L1376.74 910.616  Z" fill="#0000ff" fill-rule="evenodd" fill-opacity="0.8"/>
<polyline clip-path="url(#clip032)" style="stroke:#000000; stroke-linecap:round; stroke-linejoin:round; stroke-width:4; stroke-opacity:0.8; fill:none" points="1376.74,910.616 1376.74,1035.39 1408.8,1035.39 1408.8,910.616 1376.74,910.616 "/>
<path clip-path="url(#clip032)" d="M1408.8 892.792 L1408.8 1035.39 L1440.86 1035.39 L1440.86 892.792 L1408.8 892.792 L1408.8 892.792  Z" fill="#0000ff" fill-rule="evenodd" fill-opacity="0.8"/>
<polyline clip-path="url(#clip032)" style="stroke:#000000; stroke-linecap:round; stroke-linejoin:round; stroke-width:4; stroke-opacity:0.8; fill:none" points="1408.8,892.792 1408.8,1035.39 1440.86,1035.39 1440.86,892.792 1408.8,892.792 "/>
<path clip-path="url(#clip032)" d="M1440.86 901.704 L1440.86 1035.39 L1472.92 1035.39 L1472.92 901.704 L1440.86 901.704 L1440.86 901.704  Z" fill="#0000ff" fill-rule="evenodd" fill-opacity="0.8"/>
<polyline clip-path="url(#clip032)" style="stroke:#000000; stroke-linecap:round; stroke-linejoin:round; stroke-width:4; stroke-opacity:0.8; fill:none" points="1440.86,901.704 1440.86,1035.39 1472.92,1035.39 1472.92,901.704 1440.86,901.704 "/>
<path clip-path="url(#clip032)" d="M1472.92 919.528 L1472.92 1035.39 L1504.98 1035.39 L1504.98 919.528 L1472.92 919.528 L1472.92 919.528  Z" fill="#0000ff" fill-rule="evenodd" fill-opacity="0.8"/>
<polyline clip-path="url(#clip032)" style="stroke:#000000; stroke-linecap:round; stroke-linejoin:round; stroke-width:4; stroke-opacity:0.8; fill:none" points="1472.92,919.528 1472.92,1035.39 1504.98,1035.39 1504.98,919.528 1472.92,919.528 "/>
<path clip-path="url(#clip032)" d="M1504.98 910.616 L1504.98 1035.39 L1537.05 1035.39 L1537.05 910.616 L1504.98 910.616 L1504.98 910.616  Z" fill="#0000ff" fill-rule="evenodd" fill-opacity="0.8"/>
<polyline clip-path="url(#clip032)" style="stroke:#000000; stroke-linecap:round; stroke-linejoin:round; stroke-width:4; stroke-opacity:0.8; fill:none" points="1504.98,910.616 1504.98,1035.39 1537.05,1035.39 1537.05,910.616 1504.98,910.616 "/>
<path clip-path="url(#clip032)" d="M1537.05 892.792 L1537.05 1035.39 L1569.11 1035.39 L1569.11 892.792 L1537.05 892.792 L1537.05 892.792  Z" fill="#0000ff" fill-rule="evenodd" fill-opacity="0.8"/>
<polyline clip-path="url(#clip032)" style="stroke:#000000; stroke-linecap:round; stroke-linejoin:round; stroke-width:4; stroke-opacity:0.8; fill:none" points="1537.05,892.792 1537.05,1035.39 1569.11,1035.39 1569.11,892.792 1537.05,892.792 "/>
<path clip-path="url(#clip032)" d="M1569.11 955.177 L1569.11 1035.39 L1601.17 1035.39 L1601.17 955.177 L1569.11 955.177 L1569.11 955.177  Z" fill="#0000ff" fill-rule="evenodd" fill-opacity="0.8"/>
<polyline clip-path="url(#clip032)" style="stroke:#000000; stroke-linecap:round; stroke-linejoin:round; stroke-width:4; stroke-opacity:0.8; fill:none" points="1569.11,955.177 1569.11,1035.39 1601.17,1035.39 1601.17,955.177 1569.11,955.177 "/>
<path clip-path="url(#clip032)" d="M1601.17 928.441 L1601.17 1035.39 L1633.23 1035.39 L1633.23 928.441 L1601.17 928.441 L1601.17 928.441  Z" fill="#0000ff" fill-rule="evenodd" fill-opacity="0.8"/>
<polyline clip-path="url(#clip032)" style="stroke:#000000; stroke-linecap:round; stroke-linejoin:round; stroke-width:4; stroke-opacity:0.8; fill:none" points="1601.17,928.441 1601.17,1035.39 1633.23,1035.39 1633.23,928.441 1601.17,928.441 "/>
<path clip-path="url(#clip032)" d="M1633.23 981.914 L1633.23 1035.39 L1665.29 1035.39 L1665.29 981.914 L1633.23 981.914 L1633.23 981.914  Z" fill="#0000ff" fill-rule="evenodd" fill-opacity="0.8"/>
<polyline clip-path="url(#clip032)" style="stroke:#000000; stroke-linecap:round; stroke-linejoin:round; stroke-width:4; stroke-opacity:0.8; fill:none" points="1633.23,981.914 1633.23,1035.39 1665.29,1035.39 1665.29,981.914 1633.23,981.914 "/>
<path clip-path="url(#clip032)" d="M1665.29 937.353 L1665.29 1035.39 L1697.35 1035.39 L1697.35 937.353 L1665.29 937.353 L1665.29 937.353  Z" fill="#0000ff" fill-rule="evenodd" fill-opacity="0.8"/>
<polyline clip-path="url(#clip032)" style="stroke:#000000; stroke-linecap:round; stroke-linejoin:round; stroke-width:4; stroke-opacity:0.8; fill:none" points="1665.29,937.353 1665.29,1035.39 1697.35,1035.39 1697.35,937.353 1665.29,937.353 "/>
<path clip-path="url(#clip032)" d="M1697.35 973.002 L1697.35 1035.39 L1729.41 1035.39 L1729.41 973.002 L1697.35 973.002 L1697.35 973.002  Z" fill="#0000ff" fill-rule="evenodd" fill-opacity="0.8"/>
<polyline clip-path="url(#clip032)" style="stroke:#000000; stroke-linecap:round; stroke-linejoin:round; stroke-width:4; stroke-opacity:0.8; fill:none" points="1697.35,973.002 1697.35,1035.39 1729.41,1035.39 1729.41,973.002 1697.35,973.002 "/>
<path clip-path="url(#clip032)" d="M1729.41 981.914 L1729.41 1035.39 L1761.47 1035.39 L1761.47 981.914 L1729.41 981.914 L1729.41 981.914  Z" fill="#0000ff" fill-rule="evenodd" fill-opacity="0.8"/>
<polyline clip-path="url(#clip032)" style="stroke:#000000; stroke-linecap:round; stroke-linejoin:round; stroke-width:4; stroke-opacity:0.8; fill:none" points="1729.41,981.914 1729.41,1035.39 1761.47,1035.39 1761.47,981.914 1729.41,981.914 "/>
<circle clip-path="url(#clip032)" style="fill:#0000ff; stroke:none; fill-opacity:0" cx="334.772" cy="678.897" r="2"/>
<circle clip-path="url(#clip032)" style="fill:#0000ff; stroke:none; fill-opacity:0" cx="366.833" cy="634.336" r="2"/>
<circle clip-path="url(#clip032)" style="fill:#0000ff; stroke:none; fill-opacity:0" cx="398.893" cy="625.423" r="2"/>
<circle clip-path="url(#clip032)" style="fill:#0000ff; stroke:none; fill-opacity:0" cx="430.954" cy="393.704" r="2"/>
<circle clip-path="url(#clip032)" style="fill:#0000ff; stroke:none; fill-opacity:0" cx="463.015" cy="375.88" r="2"/>
<circle clip-path="url(#clip032)" style="fill:#0000ff; stroke:none; fill-opacity:0" cx="495.075" cy="473.915" r="2"/>
<circle clip-path="url(#clip032)" style="fill:#0000ff; stroke:none; fill-opacity:0" cx="527.136" cy="678.897" r="2"/>
<circle clip-path="url(#clip032)" style="fill:#0000ff; stroke:none; fill-opacity:0" cx="559.197" cy="750.195" r="2"/>
<circle clip-path="url(#clip032)" style="fill:#0000ff; stroke:none; fill-opacity:0" cx="591.257" cy="741.283" r="2"/>
<circle clip-path="url(#clip032)" style="fill:#0000ff; stroke:none; fill-opacity:0" cx="623.318" cy="714.546" r="2"/>
<circle clip-path="url(#clip032)" style="fill:#0000ff; stroke:none; fill-opacity:0" cx="655.378" cy="723.458" r="2"/>
<circle clip-path="url(#clip032)" style="fill:#0000ff; stroke:none; fill-opacity:0" cx="687.439" cy="732.371" r="2"/>
<circle clip-path="url(#clip032)" style="fill:#0000ff; stroke:none; fill-opacity:0" cx="719.5" cy="821.493" r="2"/>
<circle clip-path="url(#clip032)" style="fill:#0000ff; stroke:none; fill-opacity:0" cx="751.56" cy="714.546" r="2"/>
<circle clip-path="url(#clip032)" style="fill:#0000ff; stroke:none; fill-opacity:0" cx="783.621" cy="892.792" r="2"/>
<circle clip-path="url(#clip032)" style="fill:#0000ff; stroke:none; fill-opacity:0" cx="815.681" cy="768.02" r="2"/>
<circle clip-path="url(#clip032)" style="fill:#0000ff; stroke:none; fill-opacity:0" cx="847.742" cy="723.458" r="2"/>
<circle clip-path="url(#clip032)" style="fill:#0000ff; stroke:none; fill-opacity:0" cx="879.803" cy="866.055" r="2"/>
<circle clip-path="url(#clip032)" style="fill:#0000ff; stroke:none; fill-opacity:0" cx="911.863" cy="821.493" r="2"/>
<circle clip-path="url(#clip032)" style="fill:#0000ff; stroke:none; fill-opacity:0" cx="943.924" cy="794.757" r="2"/>
<circle clip-path="url(#clip032)" style="fill:#0000ff; stroke:none; fill-opacity:0" cx="975.984" cy="803.669" r="2"/>
<circle clip-path="url(#clip032)" style="fill:#0000ff; stroke:none; fill-opacity:0" cx="1008.05" cy="839.318" r="2"/>
<circle clip-path="url(#clip032)" style="fill:#0000ff; stroke:none; fill-opacity:0" cx="1040.11" cy="866.055" r="2"/>
<circle clip-path="url(#clip032)" style="fill:#0000ff; stroke:none; fill-opacity:0" cx="1072.17" cy="830.406" r="2"/>
<circle clip-path="url(#clip032)" style="fill:#0000ff; stroke:none; fill-opacity:0" cx="1104.23" cy="839.318" r="2"/>
<circle clip-path="url(#clip032)" style="fill:#0000ff; stroke:none; fill-opacity:0" cx="1136.29" cy="830.406" r="2"/>
<circle clip-path="url(#clip032)" style="fill:#0000ff; stroke:none; fill-opacity:0" cx="1168.35" cy="874.967" r="2"/>
<circle clip-path="url(#clip032)" style="fill:#0000ff; stroke:none; fill-opacity:0" cx="1200.41" cy="928.441" r="2"/>
<circle clip-path="url(#clip032)" style="fill:#0000ff; stroke:none; fill-opacity:0" cx="1232.47" cy="883.879" r="2"/>
<circle clip-path="url(#clip032)" style="fill:#0000ff; stroke:none; fill-opacity:0" cx="1264.53" cy="839.318" r="2"/>
<circle clip-path="url(#clip032)" style="fill:#0000ff; stroke:none; fill-opacity:0" cx="1296.59" cy="812.581" r="2"/>
<circle clip-path="url(#clip032)" style="fill:#0000ff; stroke:none; fill-opacity:0" cx="1328.65" cy="866.055" r="2"/>
<circle clip-path="url(#clip032)" style="fill:#0000ff; stroke:none; fill-opacity:0" cx="1360.71" cy="892.792" r="2"/>
<circle clip-path="url(#clip032)" style="fill:#0000ff; stroke:none; fill-opacity:0" cx="1392.77" cy="910.616" r="2"/>
<circle clip-path="url(#clip032)" style="fill:#0000ff; stroke:none; fill-opacity:0" cx="1424.83" cy="892.792" r="2"/>
<circle clip-path="url(#clip032)" style="fill:#0000ff; stroke:none; fill-opacity:0" cx="1456.89" cy="901.704" r="2"/>
<circle clip-path="url(#clip032)" style="fill:#0000ff; stroke:none; fill-opacity:0" cx="1488.95" cy="919.528" r="2"/>
<circle clip-path="url(#clip032)" style="fill:#0000ff; stroke:none; fill-opacity:0" cx="1521.01" cy="910.616" r="2"/>
<circle clip-path="url(#clip032)" style="fill:#0000ff; stroke:none; fill-opacity:0" cx="1553.08" cy="892.792" r="2"/>
<circle clip-path="url(#clip032)" style="fill:#0000ff; stroke:none; fill-opacity:0" cx="1585.14" cy="955.177" r="2"/>
<circle clip-path="url(#clip032)" style="fill:#0000ff; stroke:none; fill-opacity:0" cx="1617.2" cy="928.441" r="2"/>
<circle clip-path="url(#clip032)" style="fill:#0000ff; stroke:none; fill-opacity:0" cx="1649.26" cy="981.914" r="2"/>
<circle clip-path="url(#clip032)" style="fill:#0000ff; stroke:none; fill-opacity:0" cx="1681.32" cy="937.353" r="2"/>
<circle clip-path="url(#clip032)" style="fill:#0000ff; stroke:none; fill-opacity:0" cx="1713.38" cy="973.002" r="2"/>
<circle clip-path="url(#clip032)" style="fill:#0000ff; stroke:none; fill-opacity:0" cx="1745.44" cy="981.914" r="2"/>
<path clip-path="url(#clip030)" d="M1525.59 303.543 L1895.12 303.543 L1895.12 148.023 L1525.59 148.023  Z" fill="#ffffff" fill-rule="evenodd" fill-opacity="1"/>
<polyline clip-path="url(#clip030)" style="stroke:#000000; stroke-linecap:round; stroke-linejoin:round; stroke-width:4; stroke-opacity:1; fill:none" points="1525.59,303.543 1895.12,303.543 1895.12,148.023 1525.59,148.023 1525.59,303.543 "/>
<path clip-path="url(#clip030)" d="M1544.8 220.599 L1660.07 220.599 L1660.07 179.127 L1544.8 179.127 L1544.8 220.599  Z" fill="#000000" fill-rule="evenodd" fill-opacity="1"/>
<polyline clip-path="url(#clip030)" style="stroke:#000000; stroke-linecap:round; stroke-linejoin:round; stroke-width:4; stroke-opacity:1; fill:none" points="1544.8,220.599 1660.07,220.599 1660.07,179.127 1544.8,179.127 1544.8,220.599 "/>
<path clip-path="url(#clip030)" d="M1679.29 182.583 L1685.58 182.583 L1700.91 211.495 L1700.91 182.583 L1705.44 182.583 L1705.44 217.143 L1699.15 217.143 L1683.82 188.231 L1683.82 217.143 L1679.29 217.143 L1679.29 182.583 Z" fill="#000000" fill-rule="nonzero" fill-opacity="1" /><path clip-path="url(#clip030)" d="M1724.61 194.203 Q1721.18 194.203 1719.19 196.888 Q1717.2 199.55 1717.2 204.203 Q1717.2 208.856 1719.17 211.541 Q1721.16 214.203 1724.61 214.203 Q1728.01 214.203 1730 211.518 Q1731.99 208.833 1731.99 204.203 Q1731.99 199.597 1730 196.912 Q1728.01 194.203 1724.61 194.203 M1724.61 190.592 Q1730.17 190.592 1733.34 194.203 Q1736.51 197.814 1736.51 204.203 Q1736.51 210.569 1733.34 214.203 Q1730.17 217.814 1724.61 217.814 Q1719.03 217.814 1715.86 214.203 Q1712.71 210.569 1712.71 204.203 Q1712.71 197.814 1715.86 194.203 Q1719.03 190.592 1724.61 190.592 Z" fill="#000000" fill-rule="nonzero" fill-opacity="1" /><path clip-path="url(#clip030)" d="M1777.3 192.212 L1777.3 196.194 Q1775.49 195.199 1773.66 194.712 Q1771.86 194.203 1770 194.203 Q1765.86 194.203 1763.57 196.842 Q1761.28 199.458 1761.28 204.203 Q1761.28 208.949 1763.57 211.587 Q1765.86 214.203 1770 214.203 Q1771.86 214.203 1773.66 213.717 Q1775.49 213.208 1777.3 212.212 L1777.3 216.148 Q1775.51 216.981 1773.59 217.398 Q1771.69 217.814 1769.54 217.814 Q1763.68 217.814 1760.24 214.134 Q1756.79 210.453 1756.79 204.203 Q1756.79 197.861 1760.26 194.226 Q1763.75 190.592 1769.82 190.592 Q1771.79 190.592 1773.66 191.009 Q1775.54 191.402 1777.3 192.212 Z" fill="#000000" fill-rule="nonzero" fill-opacity="1" /><path clip-path="url(#clip030)" d="M1784.26 206.911 L1784.26 191.217 L1788.52 191.217 L1788.52 206.749 Q1788.52 210.43 1789.96 212.282 Q1791.39 214.111 1794.26 214.111 Q1797.71 214.111 1799.7 211.911 Q1801.72 209.712 1801.72 205.916 L1801.72 191.217 L1805.98 191.217 L1805.98 217.143 L1801.72 217.143 L1801.72 213.161 Q1800.17 215.523 1798.11 216.68 Q1796.07 217.814 1793.36 217.814 Q1788.89 217.814 1786.58 215.036 Q1784.26 212.259 1784.26 206.911 M1794.98 190.592 L1794.98 190.592 Z" fill="#000000" fill-rule="nonzero" fill-opacity="1" /><path clip-path="url(#clip030)" d="M1818.96 183.856 L1818.96 191.217 L1827.74 191.217 L1827.74 194.527 L1818.96 194.527 L1818.96 208.601 Q1818.96 211.773 1819.82 212.675 Q1820.7 213.578 1823.36 213.578 L1827.74 213.578 L1827.74 217.143 L1823.36 217.143 Q1818.43 217.143 1816.55 215.314 Q1814.68 213.462 1814.68 208.601 L1814.68 194.527 L1811.55 194.527 L1811.55 191.217 L1814.68 191.217 L1814.68 183.856 L1818.96 183.856 Z" fill="#000000" fill-rule="nonzero" fill-opacity="1" /><path clip-path="url(#clip030)" d="M1544.8 272.439 L1660.07 272.439 L1660.07 230.967 L1544.8 230.967 L1544.8 272.439  Z" fill="#0000ff" fill-rule="evenodd" fill-opacity="0.8"/>
<polyline clip-path="url(#clip030)" style="stroke:#000000; stroke-linecap:round; stroke-linejoin:round; stroke-width:4; stroke-opacity:1; fill:none" points="1544.8,272.439 1660.07,272.439 1660.07,230.967 1544.8,230.967 1544.8,272.439 "/>
<path clip-path="url(#clip030)" d="M1707.16 237.085 L1707.16 242.015 Q1704.8 239.816 1702.11 238.728 Q1699.45 237.64 1696.44 237.64 Q1690.51 237.64 1687.37 241.275 Q1684.22 244.886 1684.22 251.738 Q1684.22 258.566 1687.37 262.201 Q1690.51 265.812 1696.44 265.812 Q1699.45 265.812 1702.11 264.724 Q1704.8 263.636 1707.16 261.437 L1707.16 266.321 Q1704.7 267.988 1701.95 268.821 Q1699.22 269.654 1696.16 269.654 Q1688.31 269.654 1683.8 264.863 Q1679.29 260.048 1679.29 251.738 Q1679.29 243.404 1683.8 238.613 Q1688.31 233.798 1696.16 233.798 Q1699.26 233.798 1702 234.631 Q1704.75 235.441 1707.16 237.085 Z" fill="#000000" fill-rule="nonzero" fill-opacity="1" /><path clip-path="url(#clip030)" d="M1713.75 258.751 L1713.75 243.057 L1718.01 243.057 L1718.01 258.589 Q1718.01 262.27 1719.45 264.122 Q1720.88 265.951 1723.75 265.951 Q1727.2 265.951 1729.19 263.751 Q1731.21 261.552 1731.21 257.756 L1731.21 243.057 L1735.47 243.057 L1735.47 268.983 L1731.21 268.983 L1731.21 265.001 Q1729.66 267.363 1727.6 268.52 Q1725.56 269.654 1722.85 269.654 Q1718.38 269.654 1716.07 266.876 Q1713.75 264.099 1713.75 258.751 M1724.47 242.432 L1724.47 242.432 Z" fill="#000000" fill-rule="nonzero" fill-opacity="1" /><path clip-path="url(#clip030)" d="M1748.45 235.696 L1748.45 243.057 L1757.23 243.057 L1757.23 246.367 L1748.45 246.367 L1748.45 260.441 Q1748.45 263.613 1749.31 264.515 Q1750.19 265.418 1752.85 265.418 L1757.23 265.418 L1757.23 268.983 L1752.85 268.983 Q1747.92 268.983 1746.05 267.154 Q1744.17 265.302 1744.17 260.441 L1744.17 246.367 L1741.05 246.367 L1741.05 243.057 L1744.17 243.057 L1744.17 235.696 L1748.45 235.696 Z" fill="#000000" fill-rule="nonzero" fill-opacity="1" /><path clip-path="url(#clip030)" d="M1794.96 246.992 L1794.96 232.965 L1799.22 232.965 L1799.22 268.983 L1794.96 268.983 L1794.96 265.094 Q1793.61 267.409 1791.55 268.543 Q1789.52 269.654 1786.65 269.654 Q1781.95 269.654 1778.99 265.904 Q1776.05 262.154 1776.05 256.043 Q1776.05 249.932 1778.99 246.182 Q1781.95 242.432 1786.65 242.432 Q1789.52 242.432 1791.55 243.566 Q1793.61 244.677 1794.96 246.992 M1780.44 256.043 Q1780.44 260.742 1782.37 263.427 Q1784.31 266.089 1787.69 266.089 Q1791.07 266.089 1793.01 263.427 Q1794.96 260.742 1794.96 256.043 Q1794.96 251.344 1793.01 248.682 Q1791.07 245.997 1787.69 245.997 Q1784.31 245.997 1782.37 248.682 Q1780.44 251.344 1780.44 256.043 Z" fill="#000000" fill-rule="nonzero" fill-opacity="1" /><path clip-path="url(#clip030)" d="M1819.77 255.951 Q1814.61 255.951 1812.62 257.131 Q1810.63 258.312 1810.63 261.159 Q1810.63 263.427 1812.11 264.77 Q1813.61 266.089 1816.18 266.089 Q1819.73 266.089 1821.86 263.589 Q1824.01 261.066 1824.01 256.9 L1824.01 255.951 L1819.77 255.951 M1828.27 254.191 L1828.27 268.983 L1824.01 268.983 L1824.01 265.048 Q1822.55 267.409 1820.37 268.543 Q1818.2 269.654 1815.05 269.654 Q1811.07 269.654 1808.71 267.432 Q1806.37 265.187 1806.37 261.437 Q1806.37 257.062 1809.29 254.839 Q1812.23 252.617 1818.04 252.617 L1824.01 252.617 L1824.01 252.201 Q1824.01 249.261 1822.06 247.664 Q1820.14 246.043 1816.65 246.043 Q1814.43 246.043 1812.32 246.576 Q1810.21 247.108 1808.27 248.173 L1808.27 244.238 Q1810.61 243.335 1812.8 242.895 Q1815 242.432 1817.09 242.432 Q1822.71 242.432 1825.49 245.349 Q1828.27 248.265 1828.27 254.191 Z" fill="#000000" fill-rule="nonzero" fill-opacity="1" /><path clip-path="url(#clip030)" d="M1841.25 235.696 L1841.25 243.057 L1850.03 243.057 L1850.03 246.367 L1841.25 246.367 L1841.25 260.441 Q1841.25 263.613 1842.11 264.515 Q1842.99 265.418 1845.65 265.418 L1850.03 265.418 L1850.03 268.983 L1845.65 268.983 Q1840.72 268.983 1838.85 267.154 Q1836.97 265.302 1836.97 260.441 L1836.97 246.367 L1833.85 246.367 L1833.85 243.057 L1836.97 243.057 L1836.97 235.696 L1841.25 235.696 Z" fill="#000000" fill-rule="nonzero" fill-opacity="1" /><path clip-path="url(#clip030)" d="M1867.41 255.951 Q1862.25 255.951 1860.26 257.131 Q1858.27 258.312 1858.27 261.159 Q1858.27 263.427 1859.75 264.77 Q1861.25 266.089 1863.82 266.089 Q1867.36 266.089 1869.49 263.589 Q1871.65 261.066 1871.65 256.9 L1871.65 255.951 L1867.41 255.951 M1875.91 254.191 L1875.91 268.983 L1871.65 268.983 L1871.65 265.048 Q1870.19 267.409 1868.01 268.543 Q1865.84 269.654 1862.69 269.654 Q1858.71 269.654 1856.35 267.432 Q1854.01 265.187 1854.01 261.437 Q1854.01 257.062 1856.92 254.839 Q1859.86 252.617 1865.67 252.617 L1871.65 252.617 L1871.65 252.201 Q1871.65 249.261 1869.7 247.664 Q1867.78 246.043 1864.29 246.043 Q1862.06 246.043 1859.96 246.576 Q1857.85 247.108 1855.91 248.173 L1855.91 244.238 Q1858.24 243.335 1860.44 242.895 Q1862.64 242.432 1864.73 242.432 Q1870.35 242.432 1873.13 245.349 Q1875.91 248.265 1875.91 254.191 Z" fill="#000000" fill-rule="nonzero" fill-opacity="1" /></svg>
