<?xml version="1.0" encoding="utf-8"?>
<svg xmlns="http://www.w3.org/2000/svg" xmlns:xlink="http://www.w3.org/1999/xlink" width="500" height="300" viewBox="0 0 2000 1200">
<defs>
  <clipPath id="clip970">
    <rect x="0" y="0" width="2000" height="1200"/>
  </clipPath>
</defs>
<path clip-path="url(#clip970)" d="M0 1200 L2000 1200 L2000 0 L0 0  Z" fill="#ffffff" fill-rule="evenodd" fill-opacity="1"/>
<defs>
  <clipPath id="clip971">
    <rect x="400" y="0" width="1401" height="1200"/>
  </clipPath>
</defs>
<path clip-path="url(#clip970)" d="M196.369 1035.39 L1952.76 1035.39 L1952.76 117.424 L196.369 117.424  Z" fill="#ffffff" fill-rule="evenodd" fill-opacity="1"/>
<defs>
  <clipPath id="clip972">
    <rect x="196" y="117" width="1757" height="919"/>
  </clipPath>
</defs>
<polyline clip-path="url(#clip972)" style="stroke:#000000; stroke-linecap:round; stroke-linejoin:round; stroke-width:2; stroke-opacity:0.1; fill:none" points="239.424,1035.39 239.424,117.424 "/>
<polyline clip-path="url(#clip972)" style="stroke:#000000; stroke-linecap:round; stroke-linejoin:round; stroke-width:2; stroke-opacity:0.1; fill:none" points="572.148,1035.39 572.148,117.424 "/>
<polyline clip-path="url(#clip972)" style="stroke:#000000; stroke-linecap:round; stroke-linejoin:round; stroke-width:2; stroke-opacity:0.1; fill:none" points="904.873,1035.39 904.873,117.424 "/>
<polyline clip-path="url(#clip972)" style="stroke:#000000; stroke-linecap:round; stroke-linejoin:round; stroke-width:2; stroke-opacity:0.1; fill:none" points="1237.6,1035.39 1237.6,117.424 "/>
<polyline clip-path="url(#clip972)" style="stroke:#000000; stroke-linecap:round; stroke-linejoin:round; stroke-width:2; stroke-opacity:0.1; fill:none" points="1570.32,1035.39 1570.32,117.424 "/>
<polyline clip-path="url(#clip972)" style="stroke:#000000; stroke-linecap:round; stroke-linejoin:round; stroke-width:2; stroke-opacity:0.1; fill:none" points="1903.05,1035.39 1903.05,117.424 "/>
<polyline clip-path="url(#clip972)" style="stroke:#000000; stroke-linecap:round; stroke-linejoin:round; stroke-width:2; stroke-opacity:0.1; fill:none" points="196.369,1009.41 1952.76,1009.41 "/>
<polyline clip-path="url(#clip972)" style="stroke:#000000; stroke-linecap:round; stroke-linejoin:round; stroke-width:2; stroke-opacity:0.1; fill:none" points="196.369,874.095 1952.76,874.095 "/>
<polyline clip-path="url(#clip972)" style="stroke:#000000; stroke-linecap:round; stroke-linejoin:round; stroke-width:2; stroke-opacity:0.1; fill:none" points="196.369,738.782 1952.76,738.782 "/>
<polyline clip-path="url(#clip972)" style="stroke:#000000; stroke-linecap:round; stroke-linejoin:round; stroke-width:2; stroke-opacity:0.1; fill:none" points="196.369,603.469 1952.76,603.469 "/>
<polyline clip-path="url(#clip972)" style="stroke:#000000; stroke-linecap:round; stroke-linejoin:round; stroke-width:2; stroke-opacity:0.1; fill:none" points="196.369,468.156 1952.76,468.156 "/>
<polyline clip-path="url(#clip972)" style="stroke:#000000; stroke-linecap:round; stroke-linejoin:round; stroke-width:2; stroke-opacity:0.1; fill:none" points="196.369,332.842 1952.76,332.842 "/>
<polyline clip-path="url(#clip972)" style="stroke:#000000; stroke-linecap:round; stroke-linejoin:round; stroke-width:2; stroke-opacity:0.1; fill:none" points="196.369,197.529 1952.76,197.529 "/>
<polyline clip-path="url(#clip970)" style="stroke:#000000; stroke-linecap:round; stroke-linejoin:round; stroke-width:4; stroke-opacity:1; fill:none" points="196.369,1035.39 1952.76,1035.39 "/>
<polyline clip-path="url(#clip970)" style="stroke:#000000; stroke-linecap:round; stroke-linejoin:round; stroke-width:4; stroke-opacity:1; fill:none" points="239.424,1035.39 239.424,1016.49 "/>
<polyline clip-path="url(#clip970)" style="stroke:#000000; stroke-linecap:round; stroke-linejoin:round; stroke-width:4; stroke-opacity:1; fill:none" points="572.148,1035.39 572.148,1016.49 "/>
<polyline clip-path="url(#clip970)" style="stroke:#000000; stroke-linecap:round; stroke-linejoin:round; stroke-width:4; stroke-opacity:1; fill:none" points="904.873,1035.39 904.873,1016.49 "/>
<polyline clip-path="url(#clip970)" style="stroke:#000000; stroke-linecap:round; stroke-linejoin:round; stroke-width:4; stroke-opacity:1; fill:none" points="1237.6,1035.39 1237.6,1016.49 "/>
<polyline clip-path="url(#clip970)" style="stroke:#000000; stroke-linecap:round; stroke-linejoin:round; stroke-width:4; stroke-opacity:1; fill:none" points="1570.32,1035.39 1570.32,1016.49 "/>
<polyline clip-path="url(#clip970)" style="stroke:#000000; stroke-linecap:round; stroke-linejoin:round; stroke-width:4; stroke-opacity:1; fill:none" points="1903.05,1035.39 1903.05,1016.49 "/>
<path clip-path="url(#clip970)" d="M239.424 1063.11 Q235.812 1063.11 233.984 1066.67 Q232.178 1070.21 232.178 1077.34 Q232.178 1084.45 233.984 1088.01 Q235.812 1091.56 239.424 1091.56 Q243.058 1091.56 244.863 1088.01 Q246.692 1084.45 246.692 1077.34 Q246.692 1070.21 244.863 1066.67 Q243.058 1063.11 239.424 1063.11 M239.424 1059.4 Q245.234 1059.4 248.289 1064.01 Q251.368 1068.59 251.368 1077.34 Q251.368 1086.07 248.289 1090.68 Q245.234 1095.26 239.424 1095.26 Q233.613 1095.26 230.535 1090.68 Q227.479 1086.07 227.479 1077.34 Q227.479 1068.59 230.535 1064.01 Q233.613 1059.4 239.424 1059.4 Z" fill="#000000" fill-rule="nonzero" fill-opacity="1" /><path clip-path="url(#clip970)" d="M546.847 1060.03 L565.204 1060.03 L565.204 1063.96 L551.13 1063.96 L551.13 1072.44 Q552.148 1072.09 553.167 1071.93 Q554.185 1071.74 555.204 1071.74 Q560.991 1071.74 564.37 1074.91 Q567.75 1078.08 567.75 1083.5 Q567.75 1089.08 564.278 1092.18 Q560.806 1095.26 554.486 1095.26 Q552.31 1095.26 550.042 1094.89 Q547.796 1094.52 545.389 1093.78 L545.389 1089.08 Q547.472 1090.21 549.695 1090.77 Q551.917 1091.32 554.394 1091.32 Q558.398 1091.32 560.736 1089.22 Q563.074 1087.11 563.074 1083.5 Q563.074 1079.89 560.736 1077.78 Q558.398 1075.68 554.394 1075.68 Q552.519 1075.68 550.644 1076.09 Q548.792 1076.51 546.847 1077.39 L546.847 1060.03 Z" fill="#000000" fill-rule="nonzero" fill-opacity="1" /><path clip-path="url(#clip970)" d="M586.963 1063.11 Q583.352 1063.11 581.523 1066.67 Q579.718 1070.21 579.718 1077.34 Q579.718 1084.45 581.523 1088.01 Q583.352 1091.56 586.963 1091.56 Q590.597 1091.56 592.403 1088.01 Q594.231 1084.45 594.231 1077.34 Q594.231 1070.21 592.403 1066.67 Q590.597 1063.11 586.963 1063.11 M586.963 1059.4 Q592.773 1059.4 595.829 1064.01 Q598.907 1068.59 598.907 1077.34 Q598.907 1086.07 595.829 1090.68 Q592.773 1095.26 586.963 1095.26 Q581.153 1095.26 578.074 1090.68 Q575.019 1086.07 575.019 1077.34 Q575.019 1068.59 578.074 1064.01 Q581.153 1059.4 586.963 1059.4 Z" fill="#000000" fill-rule="nonzero" fill-opacity="1" /><path clip-path="url(#clip970)" d="M864.48 1090.65 L872.118 1090.65 L872.118 1064.29 L863.808 1065.95 L863.808 1061.69 L872.072 1060.03 L876.748 1060.03 L876.748 1090.65 L884.387 1090.65 L884.387 1094.59 L864.48 1094.59 L864.48 1090.65 Z" fill="#000000" fill-rule="nonzero" fill-opacity="1" /><path clip-path="url(#clip970)" d="M903.831 1063.11 Q900.22 1063.11 898.391 1066.67 Q896.586 1070.21 896.586 1077.34 Q896.586 1084.45 898.391 1088.01 Q900.22 1091.56 903.831 1091.56 Q907.465 1091.56 909.271 1088.01 Q911.1 1084.45 911.1 1077.34 Q911.1 1070.21 909.271 1066.67 Q907.465 1063.11 903.831 1063.11 M903.831 1059.4 Q909.641 1059.4 912.697 1064.01 Q915.776 1068.59 915.776 1077.34 Q915.776 1086.07 912.697 1090.68 Q909.641 1095.26 903.831 1095.26 Q898.021 1095.26 894.942 1090.68 Q891.887 1086.07 891.887 1077.34 Q891.887 1068.59 894.942 1064.01 Q898.021 1059.4 903.831 1059.4 Z" fill="#000000" fill-rule="nonzero" fill-opacity="1" /><path clip-path="url(#clip970)" d="M933.993 1063.11 Q930.382 1063.11 928.553 1066.67 Q926.748 1070.21 926.748 1077.34 Q926.748 1084.45 928.553 1088.01 Q930.382 1091.56 933.993 1091.56 Q937.627 1091.56 939.433 1088.01 Q941.262 1084.45 941.262 1077.34 Q941.262 1070.21 939.433 1066.67 Q937.627 1063.11 933.993 1063.11 M933.993 1059.4 Q939.803 1059.4 942.859 1064.01 Q945.937 1068.59 945.937 1077.34 Q945.937 1086.07 942.859 1090.68 Q939.803 1095.26 933.993 1095.26 Q928.183 1095.26 925.104 1090.68 Q922.049 1086.07 922.049 1077.34 Q922.049 1068.59 925.104 1064.01 Q928.183 1059.4 933.993 1059.4 Z" fill="#000000" fill-rule="nonzero" fill-opacity="1" /><path clip-path="url(#clip970)" d="M1197.2 1090.65 L1204.84 1090.65 L1204.84 1064.29 L1196.53 1065.95 L1196.53 1061.69 L1204.8 1060.03 L1209.47 1060.03 L1209.47 1090.65 L1217.11 1090.65 L1217.11 1094.59 L1197.2 1094.59 L1197.2 1090.65 Z" fill="#000000" fill-rule="nonzero" fill-opacity="1" /><path clip-path="url(#clip970)" d="M1226.6 1060.03 L1244.96 1060.03 L1244.96 1063.96 L1230.88 1063.96 L1230.88 1072.44 Q1231.9 1072.09 1232.92 1071.93 Q1233.94 1071.74 1234.96 1071.74 Q1240.75 1071.74 1244.13 1074.91 Q1247.5 1078.08 1247.5 1083.5 Q1247.5 1089.08 1244.03 1092.18 Q1240.56 1095.26 1234.24 1095.26 Q1232.07 1095.26 1229.8 1094.89 Q1227.55 1094.52 1225.14 1093.78 L1225.14 1089.08 Q1227.23 1090.21 1229.45 1090.77 Q1231.67 1091.32 1234.15 1091.32 Q1238.15 1091.32 1240.49 1089.22 Q1242.83 1087.11 1242.83 1083.5 Q1242.83 1079.89 1240.49 1077.78 Q1238.15 1075.68 1234.15 1075.68 Q1232.27 1075.68 1230.4 1076.09 Q1228.55 1076.51 1226.6 1077.39 L1226.6 1060.03 Z" fill="#000000" fill-rule="nonzero" fill-opacity="1" /><path clip-path="url(#clip970)" d="M1266.72 1063.11 Q1263.11 1063.11 1261.28 1066.67 Q1259.47 1070.21 1259.47 1077.34 Q1259.47 1084.45 1261.28 1088.01 Q1263.11 1091.56 1266.72 1091.56 Q1270.35 1091.56 1272.16 1088.01 Q1273.99 1084.45 1273.99 1077.34 Q1273.99 1070.21 1272.16 1066.67 Q1270.35 1063.11 1266.72 1063.11 M1266.72 1059.4 Q1272.53 1059.4 1275.58 1064.01 Q1278.66 1068.59 1278.66 1077.34 Q1278.66 1086.07 1275.58 1090.68 Q1272.53 1095.26 1266.72 1095.26 Q1260.91 1095.26 1257.83 1090.68 Q1254.77 1086.07 1254.77 1077.34 Q1254.77 1068.59 1257.83 1064.01 Q1260.91 1059.4 1266.72 1059.4 Z" fill="#000000" fill-rule="nonzero" fill-opacity="1" /><path clip-path="url(#clip970)" d="M1534.01 1090.65 L1550.33 1090.65 L1550.33 1094.59 L1528.39 1094.59 L1528.39 1090.65 Q1531.05 1087.9 1535.63 1083.27 Q1540.24 1078.62 1541.42 1077.27 Q1543.67 1074.75 1544.55 1073.01 Q1545.45 1071.25 1545.45 1069.56 Q1545.45 1066.81 1543.51 1065.07 Q1541.58 1063.34 1538.48 1063.34 Q1536.28 1063.34 1533.83 1064.1 Q1531.4 1064.87 1528.62 1066.42 L1528.62 1061.69 Q1531.45 1060.56 1533.9 1059.98 Q1536.35 1059.4 1538.39 1059.4 Q1543.76 1059.4 1546.95 1062.09 Q1550.15 1064.77 1550.15 1069.26 Q1550.15 1071.39 1549.34 1073.31 Q1548.55 1075.21 1546.44 1077.81 Q1545.87 1078.48 1542.76 1081.69 Q1539.66 1084.89 1534.01 1090.65 Z" fill="#000000" fill-rule="nonzero" fill-opacity="1" /><path clip-path="url(#clip970)" d="M1570.15 1063.11 Q1566.54 1063.11 1564.71 1066.67 Q1562.9 1070.21 1562.9 1077.34 Q1562.9 1084.45 1564.71 1088.01 Q1566.54 1091.56 1570.15 1091.56 Q1573.78 1091.56 1575.59 1088.01 Q1577.42 1084.45 1577.42 1077.34 Q1577.42 1070.21 1575.59 1066.67 Q1573.78 1063.11 1570.15 1063.11 M1570.15 1059.4 Q1575.96 1059.4 1579.01 1064.01 Q1582.09 1068.59 1582.09 1077.34 Q1582.09 1086.07 1579.01 1090.68 Q1575.96 1095.26 1570.15 1095.26 Q1564.34 1095.26 1561.26 1090.68 Q1558.2 1086.07 1558.2 1077.34 Q1558.2 1068.59 1561.26 1064.01 Q1564.34 1059.4 1570.15 1059.4 Z" fill="#000000" fill-rule="nonzero" fill-opacity="1" /><path clip-path="url(#clip970)" d="M1600.31 1063.11 Q1596.7 1063.11 1594.87 1066.67 Q1593.07 1070.21 1593.07 1077.34 Q1593.07 1084.45 1594.87 1088.01 Q1596.7 1091.56 1600.31 1091.56 Q1603.94 1091.56 1605.75 1088.01 Q1607.58 1084.45 1607.58 1077.34 Q1607.58 1070.21 1605.75 1066.67 Q1603.94 1063.11 1600.31 1063.11 M1600.31 1059.4 Q1606.12 1059.4 1609.18 1064.01 Q1612.25 1068.59 1612.25 1077.34 Q1612.25 1086.07 1609.18 1090.68 Q1606.12 1095.26 1600.31 1095.26 Q1594.5 1095.26 1591.42 1090.68 Q1588.37 1086.07 1588.37 1077.34 Q1588.37 1068.59 1591.42 1064.01 Q1594.5 1059.4 1600.31 1059.4 Z" fill="#000000" fill-rule="nonzero" fill-opacity="1" /><path clip-path="url(#clip970)" d="M1866.74 1090.65 L1883.06 1090.65 L1883.06 1094.59 L1861.11 1094.59 L1861.11 1090.65 Q1863.78 1087.9 1868.36 1083.27 Q1872.97 1078.62 1874.15 1077.27 Q1876.39 1074.75 1877.27 1073.01 Q1878.17 1071.25 1878.17 1069.56 Q1878.17 1066.81 1876.23 1065.07 Q1874.31 1063.34 1871.21 1063.34 Q1869.01 1063.34 1866.55 1064.1 Q1864.12 1064.87 1861.35 1066.42 L1861.35 1061.69 Q1864.17 1060.56 1866.62 1059.98 Q1869.08 1059.4 1871.11 1059.4 Q1876.48 1059.4 1879.68 1062.09 Q1882.87 1064.77 1882.87 1069.26 Q1882.87 1071.39 1882.06 1073.31 Q1881.28 1075.21 1879.17 1077.81 Q1878.59 1078.48 1875.49 1081.69 Q1872.39 1084.89 1866.74 1090.65 Z" fill="#000000" fill-rule="nonzero" fill-opacity="1" /><path clip-path="url(#clip970)" d="M1892.92 1060.03 L1911.28 1060.03 L1911.28 1063.96 L1897.2 1063.96 L1897.2 1072.44 Q1898.22 1072.09 1899.24 1071.93 Q1900.26 1071.74 1901.28 1071.74 Q1907.06 1071.74 1910.44 1074.91 Q1913.82 1078.08 1913.82 1083.5 Q1913.82 1089.08 1910.35 1092.18 Q1906.88 1095.26 1900.56 1095.26 Q1898.38 1095.26 1896.11 1094.89 Q1893.87 1094.52 1891.46 1093.78 L1891.46 1089.08 Q1893.54 1090.21 1895.77 1090.77 Q1897.99 1091.32 1900.47 1091.32 Q1904.47 1091.32 1906.81 1089.22 Q1909.15 1087.11 1909.15 1083.5 Q1909.15 1079.89 1906.81 1077.78 Q1904.47 1075.68 1900.47 1075.68 Q1898.59 1075.68 1896.72 1076.09 Q1894.86 1076.51 1892.92 1077.39 L1892.92 1060.03 Z" fill="#000000" fill-rule="nonzero" fill-opacity="1" /><path clip-path="url(#clip970)" d="M1933.04 1063.11 Q1929.42 1063.11 1927.6 1066.67 Q1925.79 1070.21 1925.79 1077.34 Q1925.79 1084.45 1927.6 1088.01 Q1929.42 1091.56 1933.04 1091.56 Q1936.67 1091.56 1938.47 1088.01 Q1940.3 1084.45 1940.3 1077.34 Q1940.3 1070.21 1938.47 1066.67 Q1936.67 1063.11 1933.04 1063.11 M1933.04 1059.4 Q1938.85 1059.4 1941.9 1064.01 Q1944.98 1068.59 1944.98 1077.34 Q1944.98 1086.07 1941.9 1090.68 Q1938.85 1095.26 1933.04 1095.26 Q1927.22 1095.26 1924.15 1090.68 Q1921.09 1086.07 1921.09 1077.34 Q1921.09 1068.59 1924.15 1064.01 Q1927.22 1059.4 1933.04 1059.4 Z" fill="#000000" fill-rule="nonzero" fill-opacity="1" /><path clip-path="url(#clip970)" d="M860.197 1126.73 L890.243 1126.73 L890.243 1132.14 L866.627 1132.14 L866.627 1146.21 L889.257 1146.21 L889.257 1151.62 L866.627 1151.62 L866.627 1168.84 L890.816 1168.84 L890.816 1174.25 L860.197 1174.25 L860.197 1126.73 Z" fill="#000000" fill-rule="nonzero" fill-opacity="1" /><path clip-path="url(#clip970)" d="M930.761 1152.74 L930.761 1174.25 L924.905 1174.25 L924.905 1152.93 Q924.905 1147.87 922.931 1145.35 Q920.958 1142.84 917.011 1142.84 Q912.269 1142.84 909.531 1145.86 Q906.794 1148.88 906.794 1154.1 L906.794 1174.25 L900.906 1174.25 L900.906 1138.6 L906.794 1138.6 L906.794 1144.14 Q908.895 1140.93 911.728 1139.34 Q914.592 1137.74 918.316 1137.74 Q924.459 1137.74 927.61 1141.56 Q930.761 1145.35 930.761 1152.74 Z" fill="#000000" fill-rule="nonzero" fill-opacity="1" /><path clip-path="url(#clip970)" d="M972.934 1154.96 L972.934 1157.83 L946.007 1157.83 Q946.389 1163.88 949.635 1167.06 Q952.914 1170.21 958.738 1170.21 Q962.112 1170.21 965.263 1169.38 Q968.446 1168.55 971.565 1166.9 L971.565 1172.44 Q968.414 1173.77 965.104 1174.47 Q961.794 1175.17 958.388 1175.17 Q949.858 1175.17 944.861 1170.21 Q939.896 1165.24 939.896 1156.78 Q939.896 1148.03 944.607 1142.9 Q949.349 1137.74 957.37 1137.74 Q964.563 1137.74 968.733 1142.39 Q972.934 1147.01 972.934 1154.96 M967.077 1153.25 Q967.014 1148.44 964.372 1145.57 Q961.762 1142.71 957.433 1142.71 Q952.532 1142.71 949.572 1145.48 Q946.644 1148.25 946.198 1153.28 L967.077 1153.25 Z" fill="#000000" fill-rule="nonzero" fill-opacity="1" /><path clip-path="url(#clip970)" d="M1003.2 1144.08 Q1002.22 1143.51 1001.04 1143.25 Q999.893 1142.96 998.492 1142.96 Q993.527 1142.96 990.853 1146.21 Q988.212 1149.43 988.212 1155.47 L988.212 1174.25 L982.323 1174.25 L982.323 1138.6 L988.212 1138.6 L988.212 1144.14 Q990.058 1140.9 993.018 1139.34 Q995.978 1137.74 1000.21 1137.74 Q1000.82 1137.74 1001.55 1137.84 Q1002.28 1137.9 1003.17 1138.06 L1003.2 1144.08 Z" fill="#000000" fill-rule="nonzero" fill-opacity="1" /><path clip-path="url(#clip970)" d="M1031.66 1156.01 Q1031.66 1149.65 1029.02 1146.15 Q1026.41 1142.65 1021.66 1142.65 Q1016.95 1142.65 1014.31 1146.15 Q1011.7 1149.65 1011.7 1156.01 Q1011.7 1162.35 1014.31 1165.85 Q1016.95 1169.35 1021.66 1169.35 Q1026.41 1169.35 1029.02 1165.85 Q1031.66 1162.35 1031.66 1156.01 M1037.51 1169.83 Q1037.51 1178.93 1033.47 1183.35 Q1029.43 1187.81 1021.09 1187.81 Q1018 1187.81 1015.27 1187.33 Q1012.53 1186.89 1009.95 1185.93 L1009.95 1180.24 Q1012.53 1181.64 1015.04 1182.3 Q1017.56 1182.97 1020.17 1182.97 Q1025.93 1182.97 1028.79 1179.95 Q1031.66 1176.96 1031.66 1170.88 L1031.66 1167.98 Q1029.84 1171.13 1027.01 1172.69 Q1024.18 1174.25 1020.23 1174.25 Q1013.67 1174.25 1009.66 1169.25 Q1005.65 1164.26 1005.65 1156.01 Q1005.65 1147.74 1009.66 1142.74 Q1013.67 1137.74 1020.23 1137.74 Q1024.18 1137.74 1027.01 1139.3 Q1029.84 1140.86 1031.66 1144.01 L1031.66 1138.6 L1037.51 1138.6 L1037.51 1169.83 Z" fill="#000000" fill-rule="nonzero" fill-opacity="1" /><path clip-path="url(#clip970)" d="M1064.41 1177.56 Q1061.93 1183.93 1059.57 1185.87 Q1057.22 1187.81 1053.27 1187.81 L1048.59 1187.81 L1048.59 1182.91 L1052.03 1182.91 Q1054.45 1182.91 1055.78 1181.76 Q1057.12 1180.62 1058.74 1176.35 L1059.79 1173.68 L1045.38 1138.6 L1051.58 1138.6 L1062.72 1166.49 L1073.86 1138.6 L1080.07 1138.6 L1064.41 1177.56 Z" fill="#000000" fill-rule="nonzero" fill-opacity="1" /><path clip-path="url(#clip970)" d="M1122.94 1124.79 Q1118.68 1132.11 1116.61 1139.27 Q1114.54 1146.43 1114.54 1153.79 Q1114.54 1161.14 1116.61 1168.36 Q1118.71 1175.56 1122.94 1182.85 L1117.85 1182.85 Q1113.07 1175.37 1110.69 1168.14 Q1108.33 1160.92 1108.33 1153.79 Q1108.33 1146.69 1110.69 1139.5 Q1113.04 1132.3 1117.85 1124.79 L1122.94 1124.79 Z" fill="#000000" fill-rule="nonzero" fill-opacity="1" /><path clip-path="url(#clip970)" d="M1134.56 1126.73 L1144.14 1126.73 L1156.27 1159.07 L1168.46 1126.73 L1178.04 1126.73 L1178.04 1174.25 L1171.77 1174.25 L1171.77 1132.52 L1159.51 1165.12 L1153.05 1165.12 L1140.8 1132.52 L1140.8 1174.25 L1134.56 1174.25 L1134.56 1126.73 Z" fill="#000000" fill-rule="nonzero" fill-opacity="1" /><path clip-path="url(#clip970)" d="M1221.04 1154.96 L1221.04 1157.83 L1194.11 1157.83 Q1194.49 1163.88 1197.74 1167.06 Q1201.02 1170.21 1206.84 1170.21 Q1210.22 1170.21 1213.37 1169.38 Q1216.55 1168.55 1219.67 1166.9 L1219.67 1172.44 Q1216.52 1173.77 1213.21 1174.47 Q1209.9 1175.17 1206.49 1175.17 Q1197.96 1175.17 1192.96 1170.21 Q1188 1165.24 1188 1156.78 Q1188 1148.03 1192.71 1142.9 Q1197.45 1137.74 1205.47 1137.74 Q1212.67 1137.74 1216.84 1142.39 Q1221.04 1147.01 1221.04 1154.96 M1215.18 1153.25 Q1215.12 1148.44 1212.48 1145.57 Q1209.87 1142.71 1205.54 1142.71 Q1200.64 1142.71 1197.68 1145.48 Q1194.75 1148.25 1194.3 1153.28 L1215.18 1153.25 Z" fill="#000000" fill-rule="nonzero" fill-opacity="1" /><path clip-path="url(#clip970)" d="M1243.16 1174.25 L1225.02 1126.73 L1231.73 1126.73 L1246.79 1166.74 L1261.87 1126.73 L1268.56 1126.73 L1250.45 1174.25 L1243.16 1174.25 Z" fill="#000000" fill-rule="nonzero" fill-opacity="1" /><path clip-path="url(#clip970)" d="M1274.32 1124.79 L1279.41 1124.79 Q1284.19 1132.3 1286.54 1139.5 Q1288.93 1146.69 1288.93 1153.79 Q1288.93 1160.92 1286.54 1168.14 Q1284.19 1175.37 1279.41 1182.85 L1274.32 1182.85 Q1278.55 1175.56 1280.62 1168.36 Q1282.72 1161.14 1282.72 1153.79 Q1282.72 1146.43 1280.62 1139.27 Q1278.55 1132.11 1274.32 1124.79 Z" fill="#000000" fill-rule="nonzero" fill-opacity="1" /><polyline clip-path="url(#clip970)" style="stroke:#000000; stroke-linecap:round; stroke-linejoin:round; stroke-width:4; stroke-opacity:1; fill:none" points="196.369,1035.39 196.369,117.424 "/>
<polyline clip-path="url(#clip970)" style="stroke:#000000; stroke-linecap:round; stroke-linejoin:round; stroke-width:4; stroke-opacity:1; fill:none" points="196.369,1009.41 215.267,1009.41 "/>
<polyline clip-path="url(#clip970)" style="stroke:#000000; stroke-linecap:round; stroke-linejoin:round; stroke-width:4; stroke-opacity:1; fill:none" points="196.369,874.095 215.267,874.095 "/>
<polyline clip-path="url(#clip970)" style="stroke:#000000; stroke-linecap:round; stroke-linejoin:round; stroke-width:4; stroke-opacity:1; fill:none" points="196.369,738.782 215.267,738.782 "/>
<polyline clip-path="url(#clip970)" style="stroke:#000000; stroke-linecap:round; stroke-linejoin:round; stroke-width:4; stroke-opacity:1; fill:none" points="196.369,603.469 215.267,603.469 "/>
<polyline clip-path="url(#clip970)" style="stroke:#000000; stroke-linecap:round; stroke-linejoin:round; stroke-width:4; stroke-opacity:1; fill:none" points="196.369,468.156 215.267,468.156 "/>
<polyline clip-path="url(#clip970)" style="stroke:#000000; stroke-linecap:round; stroke-linejoin:round; stroke-width:4; stroke-opacity:1; fill:none" points="196.369,332.842 215.267,332.842 "/>
<polyline clip-path="url(#clip970)" style="stroke:#000000; stroke-linecap:round; stroke-linejoin:round; stroke-width:4; stroke-opacity:1; fill:none" points="196.369,197.529 215.267,197.529 "/>
<path clip-path="url(#clip970)" d="M154.425 995.206 Q150.814 995.206 148.985 998.771 Q147.179 1002.31 147.179 1009.44 Q147.179 1016.55 148.985 1020.11 Q150.814 1023.66 154.425 1023.66 Q158.059 1023.66 159.864 1020.11 Q161.693 1016.55 161.693 1009.44 Q161.693 1002.31 159.864 998.771 Q158.059 995.206 154.425 995.206 M154.425 991.503 Q160.235 991.503 163.29 996.109 Q166.369 1000.69 166.369 1009.44 Q166.369 1018.17 163.29 1022.78 Q160.235 1027.36 154.425 1027.36 Q148.614 1027.36 145.536 1022.78 Q142.48 1018.17 142.48 1009.44 Q142.48 1000.69 145.536 996.109 Q148.614 991.503 154.425 991.503 Z" fill="#000000" fill-rule="nonzero" fill-opacity="1" /><path clip-path="url(#clip970)" d="M115.073 887.44 L122.712 887.44 L122.712 861.074 L114.402 862.741 L114.402 858.481 L122.666 856.815 L127.341 856.815 L127.341 887.44 L134.98 887.44 L134.98 891.375 L115.073 891.375 L115.073 887.44 Z" fill="#000000" fill-rule="nonzero" fill-opacity="1" /><path clip-path="url(#clip970)" d="M154.425 859.893 Q150.814 859.893 148.985 863.458 Q147.179 867 147.179 874.129 Q147.179 881.236 148.985 884.801 Q150.814 888.342 154.425 888.342 Q158.059 888.342 159.864 884.801 Q161.693 881.236 161.693 874.129 Q161.693 867 159.864 863.458 Q158.059 859.893 154.425 859.893 M154.425 856.19 Q160.235 856.19 163.29 860.796 Q166.369 865.379 166.369 874.129 Q166.369 882.856 163.29 887.463 Q160.235 892.046 154.425 892.046 Q148.614 892.046 145.536 887.463 Q142.48 882.856 142.48 874.129 Q142.48 865.379 145.536 860.796 Q148.614 856.19 154.425 856.19 Z" fill="#000000" fill-rule="nonzero" fill-opacity="1" /><path clip-path="url(#clip970)" d="M118.291 752.126 L134.61 752.126 L134.61 756.062 L112.666 756.062 L112.666 752.126 Q115.328 749.372 119.911 744.742 Q124.517 740.09 125.698 738.747 Q127.943 736.224 128.823 734.488 Q129.726 732.728 129.726 731.039 Q129.726 728.284 127.781 726.548 Q125.86 724.812 122.758 724.812 Q120.559 724.812 118.105 725.576 Q115.675 726.34 112.897 727.89 L112.897 723.168 Q115.721 722.034 118.175 721.455 Q120.628 720.877 122.666 720.877 Q128.036 720.877 131.23 723.562 Q134.425 726.247 134.425 730.738 Q134.425 732.867 133.615 734.789 Q132.827 736.687 130.721 739.279 Q130.142 739.951 127.04 743.168 Q123.939 746.363 118.291 752.126 Z" fill="#000000" fill-rule="nonzero" fill-opacity="1" /><path clip-path="url(#clip970)" d="M154.425 724.58 Q150.814 724.58 148.985 728.145 Q147.179 731.687 147.179 738.816 Q147.179 745.923 148.985 749.488 Q150.814 753.029 154.425 753.029 Q158.059 753.029 159.864 749.488 Q161.693 745.923 161.693 738.816 Q161.693 731.687 159.864 728.145 Q158.059 724.58 154.425 724.58 M154.425 720.877 Q160.235 720.877 163.29 725.483 Q166.369 730.066 166.369 738.816 Q166.369 747.543 163.29 752.15 Q160.235 756.733 154.425 756.733 Q148.614 756.733 145.536 752.15 Q142.48 747.543 142.48 738.816 Q142.48 730.066 145.536 725.483 Q148.614 720.877 154.425 720.877 Z" fill="#000000" fill-rule="nonzero" fill-opacity="1" /><path clip-path="url(#clip970)" d="M128.429 602.114 Q131.786 602.832 133.661 605.101 Q135.559 607.369 135.559 610.702 Q135.559 615.818 132.04 618.619 Q128.522 621.42 122.041 621.42 Q119.865 621.42 117.55 620.98 Q115.258 620.563 112.804 619.707 L112.804 615.193 Q114.749 616.327 117.064 616.906 Q119.378 617.485 121.902 617.485 Q126.3 617.485 128.591 615.749 Q130.906 614.013 130.906 610.702 Q130.906 607.647 128.753 605.934 Q126.624 604.198 122.804 604.198 L118.777 604.198 L118.777 600.355 L122.99 600.355 Q126.439 600.355 128.267 598.989 Q130.096 597.601 130.096 595.008 Q130.096 592.346 128.198 590.934 Q126.323 589.499 122.804 589.499 Q120.883 589.499 118.684 589.915 Q116.485 590.332 113.846 591.212 L113.846 587.045 Q116.508 586.304 118.823 585.934 Q121.161 585.564 123.221 585.564 Q128.545 585.564 131.647 587.994 Q134.749 590.402 134.749 594.522 Q134.749 597.392 133.105 599.383 Q131.462 601.351 128.429 602.114 Z" fill="#000000" fill-rule="nonzero" fill-opacity="1" /><path clip-path="url(#clip970)" d="M154.425 589.267 Q150.814 589.267 148.985 592.832 Q147.179 596.374 147.179 603.503 Q147.179 610.61 148.985 614.175 Q150.814 617.716 154.425 617.716 Q158.059 617.716 159.864 614.175 Q161.693 610.61 161.693 603.503 Q161.693 596.374 159.864 592.832 Q158.059 589.267 154.425 589.267 M154.425 585.564 Q160.235 585.564 163.29 590.17 Q166.369 594.753 166.369 603.503 Q166.369 612.23 163.29 616.837 Q160.235 621.42 154.425 621.42 Q148.614 621.42 145.536 616.837 Q142.48 612.23 142.48 603.503 Q142.48 594.753 145.536 590.17 Q148.614 585.564 154.425 585.564 Z" fill="#000000" fill-rule="nonzero" fill-opacity="1" /><path clip-path="url(#clip970)" d="M127.11 454.95 L115.304 473.399 L127.11 473.399 L127.11 454.95 M125.883 450.876 L131.763 450.876 L131.763 473.399 L136.693 473.399 L136.693 477.287 L131.763 477.287 L131.763 485.436 L127.11 485.436 L127.11 477.287 L111.508 477.287 L111.508 472.774 L125.883 450.876 Z" fill="#000000" fill-rule="nonzero" fill-opacity="1" /><path clip-path="url(#clip970)" d="M154.425 453.954 Q150.814 453.954 148.985 457.519 Q147.179 461.061 147.179 468.19 Q147.179 475.297 148.985 478.862 Q150.814 482.403 154.425 482.403 Q158.059 482.403 159.864 478.862 Q161.693 475.297 161.693 468.19 Q161.693 461.061 159.864 457.519 Q158.059 453.954 154.425 453.954 M154.425 450.251 Q160.235 450.251 163.29 454.857 Q166.369 459.44 166.369 468.19 Q166.369 476.917 163.29 481.524 Q160.235 486.107 154.425 486.107 Q148.614 486.107 145.536 481.524 Q142.48 476.917 142.48 468.19 Q142.48 459.44 145.536 454.857 Q148.614 450.251 154.425 450.251 Z" fill="#000000" fill-rule="nonzero" fill-opacity="1" /><path clip-path="url(#clip970)" d="M114.309 315.562 L132.665 315.562 L132.665 319.498 L118.591 319.498 L118.591 327.97 Q119.61 327.623 120.628 327.461 Q121.647 327.275 122.666 327.275 Q128.453 327.275 131.832 330.447 Q135.212 333.618 135.212 339.035 Q135.212 344.613 131.74 347.715 Q128.267 350.794 121.948 350.794 Q119.772 350.794 117.503 350.423 Q115.258 350.053 112.851 349.312 L112.851 344.613 Q114.934 345.748 117.156 346.303 Q119.378 346.859 121.855 346.859 Q125.86 346.859 128.198 344.752 Q130.536 342.646 130.536 339.035 Q130.536 335.424 128.198 333.317 Q125.86 331.211 121.855 331.211 Q119.98 331.211 118.105 331.627 Q116.254 332.044 114.309 332.924 L114.309 315.562 Z" fill="#000000" fill-rule="nonzero" fill-opacity="1" /><path clip-path="url(#clip970)" d="M154.425 318.641 Q150.814 318.641 148.985 322.206 Q147.179 325.748 147.179 332.877 Q147.179 339.984 148.985 343.548 Q150.814 347.09 154.425 347.09 Q158.059 347.09 159.864 343.548 Q161.693 339.984 161.693 332.877 Q161.693 325.748 159.864 322.206 Q158.059 318.641 154.425 318.641 M154.425 314.938 Q160.235 314.938 163.29 319.544 Q166.369 324.127 166.369 332.877 Q166.369 341.604 163.29 346.21 Q160.235 350.794 154.425 350.794 Q148.614 350.794 145.536 346.21 Q142.48 341.604 142.48 332.877 Q142.48 324.127 145.536 319.544 Q148.614 314.938 154.425 314.938 Z" fill="#000000" fill-rule="nonzero" fill-opacity="1" /><path clip-path="url(#clip970)" d="M124.841 195.666 Q121.693 195.666 119.841 197.819 Q118.013 199.972 118.013 203.722 Q118.013 207.448 119.841 209.624 Q121.693 211.777 124.841 211.777 Q127.99 211.777 129.818 209.624 Q131.67 207.448 131.67 203.722 Q131.67 199.972 129.818 197.819 Q127.99 195.666 124.841 195.666 M134.124 181.013 L134.124 185.273 Q132.365 184.439 130.559 183.999 Q128.777 183.56 127.017 183.56 Q122.388 183.56 119.934 186.685 Q117.503 189.81 117.156 196.129 Q118.522 194.115 120.582 193.05 Q122.642 191.962 125.119 191.962 Q130.328 191.962 133.337 195.134 Q136.369 198.282 136.369 203.722 Q136.369 209.046 133.221 212.263 Q130.073 215.481 124.841 215.481 Q118.846 215.481 115.675 210.897 Q112.504 206.291 112.504 197.564 Q112.504 189.37 116.392 184.509 Q120.281 179.624 126.832 179.624 Q128.591 179.624 130.374 179.972 Q132.179 180.319 134.124 181.013 Z" fill="#000000" fill-rule="nonzero" fill-opacity="1" /><path clip-path="url(#clip970)" d="M154.425 183.328 Q150.814 183.328 148.985 186.893 Q147.179 190.435 147.179 197.564 Q147.179 204.671 148.985 208.235 Q150.814 211.777 154.425 211.777 Q158.059 211.777 159.864 208.235 Q161.693 204.671 161.693 197.564 Q161.693 190.435 159.864 186.893 Q158.059 183.328 154.425 183.328 M154.425 179.624 Q160.235 179.624 163.29 184.231 Q166.369 188.814 166.369 197.564 Q166.369 206.291 163.29 210.897 Q160.235 215.481 154.425 215.481 Q148.614 215.481 145.536 210.897 Q142.48 206.291 142.48 197.564 Q142.48 188.814 145.536 184.231 Q148.614 179.624 154.425 179.624 Z" fill="#000000" fill-rule="nonzero" fill-opacity="1" /><path clip-path="url(#clip970)" d="M23.3924 648.434 L30.1719 648.434 Q27.1482 651.68 25.6523 655.373 Q24.1563 659.033 24.1563 663.171 Q24.1563 671.319 29.1534 675.647 Q34.1187 679.976 43.5399 679.976 Q52.9293 679.976 57.9264 675.647 Q62.8916 671.319 62.8916 663.171 Q62.8916 659.033 61.3957 655.373 Q59.8998 651.68 56.8761 648.434 L63.5919 648.434 Q65.8835 651.808 67.0294 655.595 Q68.1752 659.351 68.1752 663.553 Q68.1752 674.342 61.5867 680.549 Q54.9663 686.756 43.5399 686.756 Q32.0816 686.756 25.4931 680.549 Q18.8728 674.342 18.8728 663.553 Q18.8728 659.287 20.0186 655.532 Q21.1326 651.744 23.3924 648.434 Z" fill="#000000" fill-rule="nonzero" fill-opacity="1" /><path clip-path="url(#clip970)" d="M35.7101 624.944 Q35.7101 629.655 39.4022 632.392 Q43.0625 635.13 49.46 635.13 Q55.8575 635.13 59.5497 632.424 Q63.2099 629.687 63.2099 624.944 Q63.2099 620.266 59.5178 617.528 Q55.8257 614.791 49.46 614.791 Q43.1261 614.791 39.434 617.528 Q35.7101 620.266 35.7101 624.944 M30.7448 624.944 Q30.7448 617.306 35.7101 612.945 Q40.6753 608.585 49.46 608.585 Q58.2129 608.585 63.2099 612.945 Q68.1752 617.306 68.1752 624.944 Q68.1752 632.615 63.2099 636.976 Q58.2129 641.304 49.46 641.304 Q40.6753 641.304 35.7101 636.976 Q30.7448 632.615 30.7448 624.944 Z" fill="#000000" fill-rule="nonzero" fill-opacity="1" /><path clip-path="url(#clip970)" d="M53.1839 599.482 L31.6042 599.482 L31.6042 593.625 L52.9611 593.625 Q58.0219 593.625 60.5682 591.652 Q63.0826 589.678 63.0826 585.732 Q63.0826 580.989 60.0589 578.252 Q57.0352 575.483 51.8153 575.483 L31.6042 575.483 L31.6042 569.627 L67.2522 569.627 L67.2522 575.483 L61.7776 575.483 Q65.0242 577.615 66.6156 580.448 Q68.1752 583.249 68.1752 586.973 Q68.1752 593.116 64.3558 596.299 Q60.5363 599.482 53.1839 599.482 M30.7448 584.745 L30.7448 584.745 Z" fill="#000000" fill-rule="nonzero" fill-opacity="1" /><path clip-path="url(#clip970)" d="M45.7361 527.931 L67.2522 527.931 L67.2522 533.788 L45.927 533.788 Q40.8663 533.788 38.3518 535.761 Q35.8374 537.734 35.8374 541.681 Q35.8374 546.424 38.8611 549.161 Q41.8848 551.898 47.1047 551.898 L67.2522 551.898 L67.2522 557.786 L31.6042 557.786 L31.6042 551.898 L37.1424 551.898 Q33.9277 549.797 32.3363 546.965 Q30.7448 544.1 30.7448 540.376 Q30.7448 534.233 34.5643 531.082 Q38.3518 527.931 45.7361 527.931 Z" fill="#000000" fill-rule="nonzero" fill-opacity="1" /><path clip-path="url(#clip970)" d="M21.4827 510.457 L31.6042 510.457 L31.6042 498.394 L36.1557 498.394 L36.1557 510.457 L55.5074 510.457 Q59.8679 510.457 61.1093 509.28 Q62.3506 508.07 62.3506 504.41 L62.3506 498.394 L67.2522 498.394 L67.2522 504.41 Q67.2522 511.189 64.7377 513.767 Q62.1914 516.346 55.5074 516.346 L36.1557 516.346 L36.1557 520.642 L31.6042 520.642 L31.6042 516.346 L21.4827 516.346 L21.4827 510.457 Z" fill="#000000" fill-rule="nonzero" fill-opacity="1" /><path clip-path="url(#clip970)" d="M32.6545 467.966 L38.1927 467.966 Q36.9196 470.449 36.283 473.122 Q35.6464 475.796 35.6464 478.661 Q35.6464 483.021 36.9832 485.217 Q38.32 487.382 40.9936 487.382 Q43.0306 487.382 44.2083 485.822 Q45.3541 484.262 46.4045 479.552 L46.8501 477.547 Q48.1869 471.308 50.6377 468.698 Q53.0566 466.056 57.4171 466.056 Q62.3824 466.056 65.2788 470.003 Q68.1752 473.918 68.1752 480.793 Q68.1752 483.658 67.6023 486.777 Q67.0612 489.864 65.9472 493.302 L59.8998 493.302 Q61.5867 490.055 62.446 486.904 Q63.2736 483.753 63.2736 480.666 Q63.2736 476.528 61.8731 474.3 Q60.4409 472.072 57.8627 472.072 Q55.4756 472.072 54.2025 473.695 Q52.9293 475.287 51.7517 480.729 L51.2742 482.766 Q50.1284 488.209 47.7731 490.628 Q45.386 493.047 41.2482 493.047 Q36.2193 493.047 33.4821 489.482 Q30.7448 485.917 30.7448 479.361 Q30.7448 476.114 31.2223 473.25 Q31.6997 470.385 32.6545 467.966 Z" fill="#000000" fill-rule="nonzero" fill-opacity="1" /><path clip-path="url(#clip970)" d="M701.049 12.096 L712.067 12.096 L738.884 62.6918 L738.884 12.096 L746.824 12.096 L746.824 72.576 L735.806 72.576 L708.989 21.9802 L708.989 72.576 L701.049 72.576 L701.049 12.096 Z" fill="#000000" fill-rule="nonzero" fill-opacity="1" /><path clip-path="url(#clip970)" d="M801.592 48.0275 L801.592 51.6733 L767.322 51.6733 Q767.808 59.3701 771.94 63.421 Q776.112 67.4314 783.525 67.4314 Q787.819 67.4314 791.83 66.3781 Q795.88 65.3249 799.85 63.2184 L799.85 70.267 Q795.84 71.9684 791.627 72.8596 Q787.414 73.7508 783.08 73.7508 Q772.223 73.7508 765.863 67.4314 Q759.544 61.1119 759.544 50.3365 Q759.544 39.1965 765.539 32.6746 Q771.575 26.1121 781.783 26.1121 Q790.938 26.1121 796.245 32.0264 Q801.592 37.9003 801.592 48.0275 M794.139 45.84 Q794.058 39.7232 790.695 36.0774 Q787.374 32.4315 781.864 32.4315 Q775.626 32.4315 771.859 35.9558 Q768.132 39.4801 767.565 45.8805 L794.139 45.84 Z" fill="#000000" fill-rule="nonzero" fill-opacity="1" /><path clip-path="url(#clip970)" d="M813.056 54.671 L813.056 27.2059 L820.51 27.2059 L820.51 54.3874 Q820.51 60.8284 823.022 64.0691 Q825.533 67.2693 830.556 67.2693 Q836.592 67.2693 840.076 63.421 Q843.6 59.5726 843.6 52.9291 L843.6 27.2059 L851.054 27.2059 L851.054 72.576 L843.6 72.576 L843.6 65.6084 Q840.886 69.7404 837.281 71.7658 Q833.716 73.7508 828.976 73.7508 Q821.158 73.7508 817.107 68.8897 Q813.056 64.0286 813.056 54.671 M831.812 26.1121 L831.812 26.1121 Z" fill="#000000" fill-rule="nonzero" fill-opacity="1" /><path clip-path="url(#clip970)" d="M873.779 14.324 L873.779 27.2059 L889.132 27.2059 L889.132 32.9987 L873.779 32.9987 L873.779 57.6282 Q873.779 63.1779 875.278 64.7578 Q876.818 66.3376 881.476 66.3376 L889.132 66.3376 L889.132 72.576 L881.476 72.576 Q872.848 72.576 869.566 69.3758 Q866.285 66.1351 866.285 57.6282 L866.285 32.9987 L860.816 32.9987 L860.816 27.2059 L866.285 27.2059 L866.285 14.324 L873.779 14.324 Z" fill="#000000" fill-rule="nonzero" fill-opacity="1" /><path clip-path="url(#clip970)" d="M925.226 34.1734 Q923.97 33.4443 922.471 33.1202 Q921.013 32.7556 919.231 32.7556 Q912.911 32.7556 909.508 36.8875 Q906.146 40.9789 906.146 48.6757 L906.146 72.576 L898.652 72.576 L898.652 27.2059 L906.146 27.2059 L906.146 34.2544 Q908.496 30.1225 912.263 28.1376 Q916.03 26.1121 921.418 26.1121 Q922.188 26.1121 923.119 26.2337 Q924.051 26.3147 925.185 26.5172 L925.226 34.1734 Z" fill="#000000" fill-rule="nonzero" fill-opacity="1" /><path clip-path="url(#clip970)" d="M948.802 32.4315 Q942.807 32.4315 939.323 37.1306 Q935.839 41.7891 935.839 49.9314 Q935.839 58.0738 939.282 62.7728 Q942.766 67.4314 948.802 67.4314 Q954.757 67.4314 958.241 62.7323 Q961.725 58.0333 961.725 49.9314 Q961.725 41.8701 958.241 37.1711 Q954.757 32.4315 948.802 32.4315 M948.802 26.1121 Q958.524 26.1121 964.074 32.4315 Q969.624 38.7509 969.624 49.9314 Q969.624 61.0714 964.074 67.4314 Q958.524 73.7508 948.802 73.7508 Q939.039 73.7508 933.49 67.4314 Q927.98 61.0714 927.98 49.9314 Q927.98 38.7509 933.49 32.4315 Q939.039 26.1121 948.802 26.1121 Z" fill="#000000" fill-rule="nonzero" fill-opacity="1" /><path clip-path="url(#clip970)" d="M1019.69 45.1919 L1019.69 72.576 L1012.24 72.576 L1012.24 45.4349 Q1012.24 38.994 1009.73 35.7938 Q1007.22 32.5936 1002.19 32.5936 Q996.157 32.5936 992.673 36.4419 Q989.19 40.2903 989.19 46.9338 L989.19 72.576 L981.695 72.576 L981.695 27.2059 L989.19 27.2059 L989.19 34.2544 Q991.863 30.163 995.469 28.1376 Q999.114 26.1121 1003.85 26.1121 Q1011.67 26.1121 1015.68 30.9732 Q1019.69 35.7938 1019.69 45.1919 Z" fill="#000000" fill-rule="nonzero" fill-opacity="1" /><path clip-path="url(#clip970)" d="M1097.51 14.0809 L1097.51 22.0612 Q1092.85 19.8332 1088.72 18.7395 Q1084.59 17.6457 1080.74 17.6457 Q1074.06 17.6457 1070.41 20.2383 Q1066.8 22.8309 1066.8 27.611 Q1066.8 31.6214 1069.19 33.6873 Q1071.63 35.7128 1078.35 36.9686 L1083.29 37.9813 Q1092.45 39.7232 1096.78 44.1387 Q1101.16 48.5136 1101.16 55.8863 Q1101.16 64.6767 1095.24 69.2137 Q1089.37 73.7508 1077.99 73.7508 Q1073.69 73.7508 1068.83 72.7785 Q1064.01 71.8063 1058.82 69.9024 L1058.82 61.4765 Q1063.81 64.2716 1068.59 65.6895 Q1073.37 67.1073 1077.99 67.1073 Q1084.99 67.1073 1088.8 64.3527 Q1092.61 61.598 1092.61 56.4939 Q1092.61 52.0379 1089.85 49.5264 Q1087.14 47.0148 1080.9 45.759 L1075.92 44.7868 Q1066.76 42.9639 1062.67 39.075 Q1058.58 35.1862 1058.58 28.2591 Q1058.58 20.2383 1064.21 15.6203 Q1069.88 11.0023 1079.81 11.0023 Q1084.06 11.0023 1088.48 11.7719 Q1092.89 12.5416 1097.51 14.0809 Z" fill="#000000" fill-rule="nonzero" fill-opacity="1" /><path clip-path="url(#clip970)" d="M1120.8 65.7705 L1120.8 89.8329 L1113.31 89.8329 L1113.31 27.2059 L1120.8 27.2059 L1120.8 34.0924 Q1123.15 30.0415 1126.72 28.0971 Q1130.32 26.1121 1135.31 26.1121 Q1143.57 26.1121 1148.71 32.6746 Q1153.9 39.2371 1153.9 49.9314 Q1153.9 60.6258 1148.71 67.1883 Q1143.57 73.7508 1135.31 73.7508 Q1130.32 73.7508 1126.72 71.8063 Q1123.15 69.8214 1120.8 65.7705 M1146.16 49.9314 Q1146.16 41.7081 1142.76 37.0496 Q1139.4 32.3505 1133.48 32.3505 Q1127.57 32.3505 1124.17 37.0496 Q1120.8 41.7081 1120.8 49.9314 Q1120.8 58.1548 1124.17 62.8538 Q1127.57 67.5124 1133.48 67.5124 Q1139.4 67.5124 1142.76 62.8538 Q1146.16 58.1548 1146.16 49.9314 Z" fill="#000000" fill-rule="nonzero" fill-opacity="1" /><path clip-path="url(#clip970)" d="M1205.06 48.0275 L1205.06 51.6733 L1170.79 51.6733 Q1171.28 59.3701 1175.41 63.421 Q1179.58 67.4314 1187 67.4314 Q1191.29 67.4314 1195.3 66.3781 Q1199.35 65.3249 1203.32 63.2184 L1203.32 70.267 Q1199.31 71.9684 1195.1 72.8596 Q1190.88 73.7508 1186.55 73.7508 Q1175.69 73.7508 1169.33 67.4314 Q1163.01 61.1119 1163.01 50.3365 Q1163.01 39.1965 1169.01 32.6746 Q1175.05 26.1121 1185.25 26.1121 Q1194.41 26.1121 1199.72 32.0264 Q1205.06 37.9003 1205.06 48.0275 M1197.61 45.84 Q1197.53 39.7232 1194.17 36.0774 Q1190.84 32.4315 1185.33 32.4315 Q1179.1 32.4315 1175.33 35.9558 Q1171.6 39.4801 1171.03 45.8805 L1197.61 45.84 Z" fill="#000000" fill-rule="nonzero" fill-opacity="1" /><path clip-path="url(#clip970)" d="M1249.95 28.9478 L1249.95 35.9153 Q1246.79 34.1734 1243.59 33.3227 Q1240.43 32.4315 1237.19 32.4315 Q1229.93 32.4315 1225.92 37.0496 Q1221.91 41.6271 1221.91 49.9314 Q1221.91 58.2358 1225.92 62.8538 Q1229.93 67.4314 1237.19 67.4314 Q1240.43 67.4314 1243.59 66.5807 Q1246.79 65.6895 1249.95 63.9476 L1249.95 70.8341 Q1246.83 72.2924 1243.46 73.0216 Q1240.14 73.7508 1236.38 73.7508 Q1226.13 73.7508 1220.09 67.3098 Q1214.06 60.8689 1214.06 49.9314 Q1214.06 38.832 1220.13 32.472 Q1226.25 26.1121 1236.86 26.1121 Q1240.31 26.1121 1243.59 26.8413 Q1246.87 27.5299 1249.95 28.9478 Z" fill="#000000" fill-rule="nonzero" fill-opacity="1" /><path clip-path="url(#clip970)" d="M1270.28 14.324 L1270.28 27.2059 L1285.63 27.2059 L1285.63 32.9987 L1270.28 32.9987 L1270.28 57.6282 Q1270.28 63.1779 1271.78 64.7578 Q1273.32 66.3376 1277.98 66.3376 L1285.63 66.3376 L1285.63 72.576 L1277.98 72.576 Q1269.35 72.576 1266.07 69.3758 Q1262.79 66.1351 1262.79 57.6282 L1262.79 32.9987 L1257.32 32.9987 L1257.32 27.2059 L1262.79 27.2059 L1262.79 14.324 L1270.28 14.324 Z" fill="#000000" fill-rule="nonzero" fill-opacity="1" /><path clip-path="url(#clip970)" d="M1321.73 34.1734 Q1320.47 33.4443 1318.97 33.1202 Q1317.52 32.7556 1315.73 32.7556 Q1309.41 32.7556 1306.01 36.8875 Q1302.65 40.9789 1302.65 48.6757 L1302.65 72.576 L1295.15 72.576 L1295.15 27.2059 L1302.65 27.2059 L1302.65 34.2544 Q1305 30.1225 1308.77 28.1376 Q1312.53 26.1121 1317.92 26.1121 Q1318.69 26.1121 1319.62 26.2337 Q1320.55 26.3147 1321.69 26.5172 L1321.73 34.1734 Z" fill="#000000" fill-rule="nonzero" fill-opacity="1" /><path clip-path="url(#clip970)" d="M1328.78 54.671 L1328.78 27.2059 L1336.23 27.2059 L1336.23 54.3874 Q1336.23 60.8284 1338.74 64.0691 Q1341.25 67.2693 1346.28 67.2693 Q1352.31 67.2693 1355.8 63.421 Q1359.32 59.5726 1359.32 52.9291 L1359.32 27.2059 L1366.77 27.2059 L1366.77 72.576 L1359.32 72.576 L1359.32 65.6084 Q1356.61 69.7404 1353 71.7658 Q1349.44 73.7508 1344.7 73.7508 Q1336.88 73.7508 1332.83 68.8897 Q1328.78 64.0286 1328.78 54.671 M1347.53 26.1121 L1347.53 26.1121 Z" fill="#000000" fill-rule="nonzero" fill-opacity="1" /><path clip-path="url(#clip970)" d="M1417.45 35.9153 Q1420.25 30.8922 1424.14 28.5022 Q1428.02 26.1121 1433.29 26.1121 Q1440.38 26.1121 1444.23 31.0947 Q1448.08 36.0368 1448.08 45.1919 L1448.08 72.576 L1440.58 72.576 L1440.58 45.4349 Q1440.58 38.913 1438.27 35.7533 Q1435.96 32.5936 1431.22 32.5936 Q1425.43 32.5936 1422.07 36.4419 Q1418.71 40.2903 1418.71 46.9338 L1418.71 72.576 L1411.21 72.576 L1411.21 45.4349 Q1411.21 38.8725 1408.9 35.7533 Q1406.59 32.5936 1401.77 32.5936 Q1396.06 32.5936 1392.7 36.4824 Q1389.34 40.3308 1389.34 46.9338 L1389.34 72.576 L1381.84 72.576 L1381.84 27.2059 L1389.34 27.2059 L1389.34 34.2544 Q1391.89 30.082 1395.45 28.0971 Q1399.02 26.1121 1403.92 26.1121 Q1408.86 26.1121 1412.31 28.6237 Q1415.79 31.1352 1417.45 35.9153 Z" fill="#000000" fill-rule="nonzero" fill-opacity="1" /><polyline clip-path="url(#clip972)" style="stroke:#000000; stroke-linecap:round; stroke-linejoin:round; stroke-width:4; stroke-opacity:1; fill:none" points="246.078,1009.41 246.078,143.404 252.733,143.404 259.387,143.404 259.387,400.499 266.042,400.499 266.042,481.687 272.696,481.687 272.696,657.594 279.351,657.594 279.351,589.937 286.005,589.937 286.005,684.656 292.659,684.656 292.659,725.25 299.314,725.25 299.314,684.656 305.968,684.656 305.968,860.563 312.623,860.563 312.623,738.782 319.277,738.782 319.277,657.594 325.932,657.594 325.932,630.531 332.586,630.531 332.586,792.907 339.241,792.907 339.241,765.844 345.895,765.844 345.895,684.656 352.55,684.656 352.55,711.719 359.204,711.719 359.204,698.188 365.859,698.188 365.859,806.438 372.513,806.438 372.513,698.188 379.168,698.188 379.168,833.501 385.822,833.501 385.822,725.25 392.477,725.25 399.131,725.25 399.131,833.501 405.786,833.501 405.786,725.25 412.44,725.25 419.095,725.25 419.095,847.032 425.749,847.032 425.749,698.188 432.404,698.188 439.058,698.188 439.058,792.907 445.713,792.907 445.713,752.313 452.367,752.313 452.367,792.907 459.022,792.907 459.022,711.719 465.676,711.719 465.676,657.594 472.331,657.594 472.331,779.376 478.985,779.376 478.985,765.844 485.64,765.844 485.64,779.376 492.294,779.376 492.294,752.313 498.949,752.313 498.949,738.782 505.603,738.782 505.603,887.626 512.258,887.626 512.258,847.032 518.912,847.032 518.912,819.969 525.567,819.969 525.567,738.782 532.221,738.782 532.221,874.095 538.876,874.095 538.876,847.032 545.53,847.032 545.53,819.969 552.185,819.969 558.839,819.969 558.839,752.313 565.494,752.313 565.494,765.844 572.148,765.844 572.148,698.188 578.803,698.188 578.803,792.907 585.457,792.907 585.457,887.626 592.112,887.626 592.112,792.907 598.766,792.907 598.766,833.501 605.421,833.501 605.421,874.095 612.075,874.095 612.075,819.969 618.73,819.969 618.73,901.157 625.384,901.157 632.039,901.157 632.039,779.376 638.693,779.376 638.693,847.032 645.348,847.032 645.348,887.626 652.002,887.626 652.002,941.751 658.657,941.751 658.657,779.376 665.311,779.376 665.311,752.313 671.966,752.313 671.966,833.501 678.62,833.501 678.62,928.22 685.275,928.22 685.275,901.157 691.929,901.157 691.929,792.907 698.584,792.907 698.584,901.157 705.238,901.157 705.238,806.438 711.893,806.438 711.893,901.157 718.547,901.157 718.547,860.563 725.202,860.563 725.202,928.22 731.856,928.22 731.856,914.689 738.511,914.689 738.511,901.157 745.165,901.157 745.165,968.814 751.82,968.814 751.82,874.095 758.474,874.095 758.474,779.376 765.129,779.376 765.129,819.969 771.783,819.969 771.783,914.689 778.437,914.689 778.437,887.626 785.092,887.626 785.092,874.095 791.746,874.095 791.746,819.969 798.401,819.969 798.401,928.22 805.055,928.22 805.055,914.689 811.71,914.689 811.71,901.157 818.364,901.157 825.019,901.157 825.019,914.689 831.673,914.689 831.673,847.032 838.328,847.032 838.328,928.22 844.982,928.22 844.982,847.032 851.637,847.032 851.637,887.626 858.291,887.626 864.946,887.626 864.946,901.157 871.6,901.157 871.6,941.751 878.255,941.751 878.255,901.157 884.909,901.157 884.909,887.626 891.564,887.626 891.564,874.095 898.218,874.095 898.218,928.22 904.873,928.22 911.527,928.22 911.527,914.689 918.182,914.689 918.182,941.751 924.836,941.751 924.836,928.22 931.491,928.22 931.491,874.095 938.145,874.095 938.145,914.689 944.8,914.689 944.8,887.626 951.454,887.626 951.454,901.157 958.109,901.157 958.109,955.283 964.763,955.283 964.763,914.689 971.418,914.689 971.418,901.157 978.072,901.157 978.072,874.095 984.727,874.095 991.381,874.095 991.381,901.157 998.036,901.157 998.036,833.501 1004.69,833.501 1004.69,928.22 1011.34,928.22 1011.34,833.501 1018,833.501 1018,941.751 1024.65,941.751 1024.65,901.157 1031.31,901.157 1031.31,982.345 1037.96,982.345 1037.96,860.563 1044.62,860.563 1044.62,941.751 1051.27,941.751 1051.27,914.689 1057.93,914.689 1064.58,914.689 1064.58,941.751 1071.24,941.751 1071.24,928.22 1077.89,928.22 1077.89,901.157 1084.54,901.157 1084.54,874.095 1091.2,874.095 1091.2,968.814 1097.85,968.814 1097.85,901.157 1104.51,901.157 1104.51,874.095 1111.16,874.095 1117.82,874.095 1117.82,941.751 1124.47,941.751 1124.47,928.22 1131.13,928.22 1131.13,914.689 1137.78,914.689 1137.78,955.283 1144.43,955.283 1144.43,968.814 1151.09,968.814 1151.09,914.689 1157.74,914.689 1157.74,982.345 1164.4,982.345 1164.4,928.22 1171.05,928.22 1171.05,968.814 1177.71,968.814 1177.71,982.345 1184.36,982.345 1184.36,928.22 1191.02,928.22 1191.02,941.751 1197.67,941.751 1204.33,941.751 1210.98,941.751 1210.98,1009.41 1217.63,1009.41 1217.63,928.22 1224.29,928.22 1230.94,928.22 1230.94,968.814 1237.6,968.814 1237.6,941.751 1244.25,941.751 1244.25,887.626 1250.91,887.626 1250.91,955.283 1257.56,955.283 1257.56,941.751 1264.22,941.751 1264.22,968.814 1270.87,968.814 1270.87,941.751 1277.52,941.751 1277.52,887.626 1284.18,887.626 1284.18,982.345 1290.83,982.345 1290.83,968.814 1297.49,968.814 1297.49,928.22 1304.14,928.22 1310.8,928.22 1310.8,968.814 1317.45,968.814 1317.45,928.22 1324.11,928.22 1330.76,928.22 1330.76,887.626 1337.41,887.626 1337.41,941.751 1344.07,941.751 1344.07,955.283 1350.72,955.283 1357.38,955.283 1357.38,941.751 1364.03,941.751 1364.03,914.689 1370.69,914.689 1370.69,928.22 1377.34,928.22 1377.34,914.689 1384,914.689 1384,955.283 1390.65,955.283 1397.31,955.283 1397.31,968.814 1403.96,968.814 1410.61,968.814 1410.61,982.345 1417.27,982.345 1417.27,955.283 1423.92,955.283 1423.92,968.814 1430.58,968.814 1430.58,928.22 1437.23,928.22 1437.23,941.751 1443.89,941.751 1443.89,914.689 1450.54,914.689 1450.54,982.345 1457.2,982.345 1463.85,982.345 1463.85,941.751 1470.5,941.751 1470.5,955.283 1477.16,955.283 1477.16,968.814 1483.81,968.814 1483.81,914.689 1490.47,914.689 1490.47,968.814 1497.12,968.814 1497.12,982.345 1503.78,982.345 1503.78,968.814 1510.43,968.814 1517.09,968.814 1517.09,955.283 1523.74,955.283 1523.74,928.22 1530.4,928.22 1530.4,955.283 1537.05,955.283 1537.05,1009.41 1543.7,1009.41 1543.7,860.563 1550.36,860.563 1550.36,941.751 1557.01,941.751 1563.67,941.751 1563.67,995.876 1570.32,995.876 1570.32,928.22 1576.98,928.22 1576.98,941.751 1583.63,941.751 1583.63,928.22 1590.29,928.22 1590.29,955.283 1596.94,955.283 1596.94,941.751 1603.59,941.751 1603.59,955.283 1610.25,955.283 1616.9,955.283 1616.9,928.22 1623.56,928.22 1623.56,941.751 1630.21,941.751 1636.87,941.751 1636.87,968.814 1643.52,968.814 1643.52,941.751 1650.18,941.751 1650.18,914.689 1656.83,914.689 1656.83,995.876 1663.49,995.876 1663.49,955.283 1670.14,955.283 1670.14,914.689 1676.79,914.689 1676.79,982.345 1683.45,982.345 1683.45,955.283 1690.1,955.283 1690.1,968.814 1696.76,968.814 1696.76,982.345 1703.41,982.345 1703.41,941.751 1710.07,941.751 1710.07,1009.41 1716.72,1009.41 1716.72,928.22 1723.38,928.22 1723.38,941.751 1730.03,941.751 1730.03,982.345 1736.68,982.345 1736.68,955.283 1743.34,955.283 1743.34,995.876 1749.99,995.876 1756.65,995.876 1756.65,955.283 1763.3,955.283 1763.3,995.876 1769.96,995.876 1769.96,968.814 1776.61,968.814 1776.61,982.345 1783.27,982.345 1783.27,955.283 1789.92,955.283 1789.92,968.814 1796.57,968.814 1796.57,982.345 1803.23,982.345 1803.23,968.814 1809.88,968.814 1816.54,968.814 1816.54,995.876 1823.19,995.876 1829.85,995.876 1829.85,982.345 1836.5,982.345 1836.5,914.689 1843.16,914.689 1843.16,1009.41 1849.81,1009.41 1849.81,982.345 1856.47,982.345 1863.12,982.345 1863.12,968.814 1869.77,968.814 1869.77,982.345 1876.43,982.345 1883.08,982.345 1883.08,1009.41 1889.74,1009.41 1896.39,1009.41 1896.39,982.345 1903.05,982.345 1903.05,1009.41 "/>
<path clip-path="url(#clip970)" d="M1570.12 251.703 L1894.21 251.703 L1894.21 148.023 L1570.12 148.023  Z" fill="#ffffff" fill-rule="evenodd" fill-opacity="1"/>
<polyline clip-path="url(#clip970)" style="stroke:#000000; stroke-linecap:round; stroke-linejoin:round; stroke-width:4; stroke-opacity:1; fill:none" points="1570.12,251.703 1894.21,251.703 1894.21,148.023 1570.12,148.023 1570.12,251.703 "/>
<polyline clip-path="url(#clip970)" style="stroke:#000000; stroke-linecap:round; stroke-linejoin:round; stroke-width:4; stroke-opacity:1; fill:none" points="1589.64,199.863 1706.73,199.863 "/>
<path clip-path="url(#clip970)" d="M1726.25 182.583 L1732.54 182.583 L1747.87 211.495 L1747.87 182.583 L1752.4 182.583 L1752.4 217.143 L1746.11 217.143 L1730.78 188.231 L1730.78 217.143 L1726.25 217.143 L1726.25 182.583 Z" fill="#000000" fill-rule="nonzero" fill-opacity="1" /><path clip-path="url(#clip970)" d="M1771.57 194.203 Q1768.14 194.203 1766.15 196.888 Q1764.16 199.55 1764.16 204.203 Q1764.16 208.856 1766.13 211.541 Q1768.12 214.203 1771.57 214.203 Q1774.97 214.203 1776.96 211.518 Q1778.95 208.833 1778.95 204.203 Q1778.95 199.597 1776.96 196.912 Q1774.97 194.203 1771.57 194.203 M1771.57 190.592 Q1777.13 190.592 1780.3 194.203 Q1783.47 197.814 1783.47 204.203 Q1783.47 210.569 1780.3 214.203 Q1777.13 217.814 1771.57 217.814 Q1765.99 217.814 1762.82 214.203 Q1759.67 210.569 1759.67 204.203 Q1759.67 197.814 1762.82 194.203 Q1765.99 190.592 1771.57 190.592 Z" fill="#000000" fill-rule="nonzero" fill-opacity="1" /><path clip-path="url(#clip970)" d="M1824.25 192.212 L1824.25 196.194 Q1822.45 195.199 1820.62 194.712 Q1818.81 194.203 1816.96 194.203 Q1812.82 194.203 1810.53 196.842 Q1808.24 199.458 1808.24 204.203 Q1808.24 208.949 1810.53 211.587 Q1812.82 214.203 1816.96 214.203 Q1818.81 214.203 1820.62 213.717 Q1822.45 213.208 1824.25 212.212 L1824.25 216.148 Q1822.47 216.981 1820.55 217.398 Q1818.65 217.814 1816.5 217.814 Q1810.64 217.814 1807.19 214.134 Q1803.75 210.453 1803.75 204.203 Q1803.75 197.861 1807.22 194.226 Q1810.71 190.592 1816.78 190.592 Q1818.75 190.592 1820.62 191.009 Q1822.5 191.402 1824.25 192.212 Z" fill="#000000" fill-rule="nonzero" fill-opacity="1" /><path clip-path="url(#clip970)" d="M1831.22 206.911 L1831.22 191.217 L1835.48 191.217 L1835.48 206.749 Q1835.48 210.43 1836.92 212.282 Q1838.35 214.111 1841.22 214.111 Q1844.67 214.111 1846.66 211.911 Q1848.68 209.712 1848.68 205.916 L1848.68 191.217 L1852.94 191.217 L1852.94 217.143 L1848.68 217.143 L1848.68 213.161 Q1847.12 215.523 1845.06 216.68 Q1843.03 217.814 1840.32 217.814 Q1835.85 217.814 1833.54 215.036 Q1831.22 212.259 1831.22 206.911 M1841.94 190.592 L1841.94 190.592 Z" fill="#000000" fill-rule="nonzero" fill-opacity="1" /><path clip-path="url(#clip970)" d="M1865.92 183.856 L1865.92 191.217 L1874.69 191.217 L1874.69 194.527 L1865.92 194.527 L1865.92 208.601 Q1865.92 211.773 1866.78 212.675 Q1867.66 213.578 1870.32 213.578 L1874.69 213.578 L1874.69 217.143 L1870.32 217.143 Q1865.39 217.143 1863.51 215.314 Q1861.64 213.462 1861.64 208.601 L1861.64 194.527 L1858.51 194.527 L1858.51 191.217 L1861.64 191.217 L1861.64 183.856 L1865.92 183.856 Z" fill="#000000" fill-rule="nonzero" fill-opacity="1" /></svg>
