<?xml version="1.0" encoding="utf-8"?>
<svg xmlns="http://www.w3.org/2000/svg" xmlns:xlink="http://www.w3.org/1999/xlink" width="500" height="300" viewBox="0 0 2000 1200">
<defs>
  <clipPath id="clip560">
    <rect x="0" y="0" width="2000" height="1200"/>
  </clipPath>
</defs>
<path clip-path="url(#clip560)" d="M0 1200 L2000 1200 L2000 0 L0 0  Z" fill="#ffffff" fill-rule="evenodd" fill-opacity="1"/>
<defs>
  <clipPath id="clip561">
    <rect x="400" y="0" width="1401" height="1200"/>
  </clipPath>
</defs>
<path clip-path="url(#clip560)" d="M166.693 1035.39 L1952.76 1035.39 L1952.76 117.424 L166.693 117.424  Z" fill="#ffffff" fill-rule="evenodd" fill-opacity="1"/>
<defs>
  <clipPath id="clip562">
    <rect x="166" y="117" width="1787" height="919"/>
  </clipPath>
</defs>
<polyline clip-path="url(#clip562)" style="stroke:#000000; stroke-linecap:round; stroke-linejoin:round; stroke-width:2; stroke-opacity:0.1; fill:none" points="264.93,1035.39 264.93,117.424 "/>
<polyline clip-path="url(#clip562)" style="stroke:#000000; stroke-linecap:round; stroke-linejoin:round; stroke-width:2; stroke-opacity:0.1; fill:none" points="618.172,1035.39 618.172,117.424 "/>
<polyline clip-path="url(#clip562)" style="stroke:#000000; stroke-linecap:round; stroke-linejoin:round; stroke-width:2; stroke-opacity:0.1; fill:none" points="971.414,1035.39 971.414,117.424 "/>
<polyline clip-path="url(#clip562)" style="stroke:#000000; stroke-linecap:round; stroke-linejoin:round; stroke-width:2; stroke-opacity:0.1; fill:none" points="1324.66,1035.39 1324.66,117.424 "/>
<polyline clip-path="url(#clip562)" style="stroke:#000000; stroke-linecap:round; stroke-linejoin:round; stroke-width:2; stroke-opacity:0.1; fill:none" points="1677.9,1035.39 1677.9,117.424 "/>
<polyline clip-path="url(#clip562)" style="stroke:#000000; stroke-linecap:round; stroke-linejoin:round; stroke-width:2; stroke-opacity:0.1; fill:none" points="166.693,1035.39 1952.76,1035.39 "/>
<polyline clip-path="url(#clip562)" style="stroke:#000000; stroke-linecap:round; stroke-linejoin:round; stroke-width:2; stroke-opacity:0.1; fill:none" points="166.693,851.795 1952.76,851.795 "/>
<polyline clip-path="url(#clip562)" style="stroke:#000000; stroke-linecap:round; stroke-linejoin:round; stroke-width:2; stroke-opacity:0.1; fill:none" points="166.693,668.202 1952.76,668.202 "/>
<polyline clip-path="url(#clip562)" style="stroke:#000000; stroke-linecap:round; stroke-linejoin:round; stroke-width:2; stroke-opacity:0.1; fill:none" points="166.693,484.61 1952.76,484.61 "/>
<polyline clip-path="url(#clip562)" style="stroke:#000000; stroke-linecap:round; stroke-linejoin:round; stroke-width:2; stroke-opacity:0.1; fill:none" points="166.693,301.017 1952.76,301.017 "/>
<polyline clip-path="url(#clip562)" style="stroke:#000000; stroke-linecap:round; stroke-linejoin:round; stroke-width:2; stroke-opacity:0.1; fill:none" points="166.693,117.424 1952.76,117.424 "/>
<polyline clip-path="url(#clip560)" style="stroke:#000000; stroke-linecap:round; stroke-linejoin:round; stroke-width:4; stroke-opacity:1; fill:none" points="166.693,1035.39 1952.76,1035.39 "/>
<polyline clip-path="url(#clip560)" style="stroke:#000000; stroke-linecap:round; stroke-linejoin:round; stroke-width:4; stroke-opacity:1; fill:none" points="264.93,1035.39 264.93,1016.49 "/>
<polyline clip-path="url(#clip560)" style="stroke:#000000; stroke-linecap:round; stroke-linejoin:round; stroke-width:4; stroke-opacity:1; fill:none" points="618.172,1035.39 618.172,1016.49 "/>
<polyline clip-path="url(#clip560)" style="stroke:#000000; stroke-linecap:round; stroke-linejoin:round; stroke-width:4; stroke-opacity:1; fill:none" points="971.414,1035.39 971.414,1016.49 "/>
<polyline clip-path="url(#clip560)" style="stroke:#000000; stroke-linecap:round; stroke-linejoin:round; stroke-width:4; stroke-opacity:1; fill:none" points="1324.66,1035.39 1324.66,1016.49 "/>
<polyline clip-path="url(#clip560)" style="stroke:#000000; stroke-linecap:round; stroke-linejoin:round; stroke-width:4; stroke-opacity:1; fill:none" points="1677.9,1035.39 1677.9,1016.49 "/>
<path clip-path="url(#clip560)" d="M264.93 1063.11 Q261.319 1063.11 259.49 1066.67 Q257.685 1070.21 257.685 1077.34 Q257.685 1084.45 259.49 1088.01 Q261.319 1091.56 264.93 1091.56 Q268.564 1091.56 270.37 1088.01 Q272.198 1084.45 272.198 1077.34 Q272.198 1070.21 270.37 1066.67 Q268.564 1063.11 264.93 1063.11 M264.93 1059.4 Q270.74 1059.4 273.796 1064.01 Q276.874 1068.59 276.874 1077.34 Q276.874 1086.07 273.796 1090.68 Q270.74 1095.26 264.93 1095.26 Q259.12 1095.26 256.041 1090.68 Q252.985 1086.07 252.985 1077.34 Q252.985 1068.59 256.041 1064.01 Q259.12 1059.4 264.93 1059.4 Z" fill="#000000" fill-rule="nonzero" fill-opacity="1" /><path clip-path="url(#clip560)" d="M592.871 1060.03 L611.228 1060.03 L611.228 1063.96 L597.154 1063.96 L597.154 1072.44 Q598.172 1072.09 599.191 1071.93 Q600.209 1071.74 601.228 1071.74 Q607.015 1071.74 610.394 1074.91 Q613.774 1078.08 613.774 1083.5 Q613.774 1089.08 610.302 1092.18 Q606.829 1095.26 600.51 1095.26 Q598.334 1095.26 596.066 1094.89 Q593.82 1094.52 591.413 1093.78 L591.413 1089.08 Q593.496 1090.21 595.718 1090.77 Q597.941 1091.32 600.417 1091.32 Q604.422 1091.32 606.76 1089.22 Q609.098 1087.11 609.098 1083.5 Q609.098 1079.89 606.76 1077.78 Q604.422 1075.68 600.417 1075.68 Q598.542 1075.68 596.667 1076.09 Q594.816 1076.51 592.871 1077.39 L592.871 1060.03 Z" fill="#000000" fill-rule="nonzero" fill-opacity="1" /><path clip-path="url(#clip560)" d="M632.987 1063.11 Q629.376 1063.11 627.547 1066.67 Q625.741 1070.21 625.741 1077.34 Q625.741 1084.45 627.547 1088.01 Q629.376 1091.56 632.987 1091.56 Q636.621 1091.56 638.426 1088.01 Q640.255 1084.45 640.255 1077.34 Q640.255 1070.21 638.426 1066.67 Q636.621 1063.11 632.987 1063.11 M632.987 1059.4 Q638.797 1059.4 641.852 1064.01 Q644.931 1068.59 644.931 1077.34 Q644.931 1086.07 641.852 1090.68 Q638.797 1095.26 632.987 1095.26 Q627.177 1095.26 624.098 1090.68 Q621.042 1086.07 621.042 1077.34 Q621.042 1068.59 624.098 1064.01 Q627.177 1059.4 632.987 1059.4 Z" fill="#000000" fill-rule="nonzero" fill-opacity="1" /><path clip-path="url(#clip560)" d="M931.021 1090.65 L938.66 1090.65 L938.66 1064.29 L930.349 1065.95 L930.349 1061.69 L938.613 1060.03 L943.289 1060.03 L943.289 1090.65 L950.928 1090.65 L950.928 1094.59 L931.021 1094.59 L931.021 1090.65 Z" fill="#000000" fill-rule="nonzero" fill-opacity="1" /><path clip-path="url(#clip560)" d="M970.372 1063.11 Q966.761 1063.11 964.933 1066.67 Q963.127 1070.21 963.127 1077.34 Q963.127 1084.45 964.933 1088.01 Q966.761 1091.56 970.372 1091.56 Q974.007 1091.56 975.812 1088.01 Q977.641 1084.45 977.641 1077.34 Q977.641 1070.21 975.812 1066.67 Q974.007 1063.11 970.372 1063.11 M970.372 1059.4 Q976.183 1059.4 979.238 1064.01 Q982.317 1068.59 982.317 1077.34 Q982.317 1086.07 979.238 1090.68 Q976.183 1095.26 970.372 1095.26 Q964.562 1095.26 961.484 1090.68 Q958.428 1086.07 958.428 1077.34 Q958.428 1068.59 961.484 1064.01 Q964.562 1059.4 970.372 1059.4 Z" fill="#000000" fill-rule="nonzero" fill-opacity="1" /><path clip-path="url(#clip560)" d="M1000.53 1063.11 Q996.923 1063.11 995.094 1066.67 Q993.289 1070.21 993.289 1077.34 Q993.289 1084.45 995.094 1088.01 Q996.923 1091.56 1000.53 1091.56 Q1004.17 1091.56 1005.97 1088.01 Q1007.8 1084.45 1007.8 1077.34 Q1007.8 1070.21 1005.97 1066.67 Q1004.17 1063.11 1000.53 1063.11 M1000.53 1059.4 Q1006.34 1059.4 1009.4 1064.01 Q1012.48 1068.59 1012.48 1077.34 Q1012.48 1086.07 1009.4 1090.68 Q1006.34 1095.26 1000.53 1095.26 Q994.724 1095.26 991.645 1090.68 Q988.59 1086.07 988.59 1077.34 Q988.59 1068.59 991.645 1064.01 Q994.724 1059.4 1000.53 1059.4 Z" fill="#000000" fill-rule="nonzero" fill-opacity="1" /><path clip-path="url(#clip560)" d="M1284.26 1090.65 L1291.9 1090.65 L1291.9 1064.29 L1283.59 1065.95 L1283.59 1061.69 L1291.86 1060.03 L1296.53 1060.03 L1296.53 1090.65 L1304.17 1090.65 L1304.17 1094.59 L1284.26 1094.59 L1284.26 1090.65 Z" fill="#000000" fill-rule="nonzero" fill-opacity="1" /><path clip-path="url(#clip560)" d="M1313.66 1060.03 L1332.02 1060.03 L1332.02 1063.96 L1317.94 1063.96 L1317.94 1072.44 Q1318.96 1072.09 1319.98 1071.93 Q1321 1071.74 1322.02 1071.74 Q1327.8 1071.74 1331.18 1074.91 Q1334.56 1078.08 1334.56 1083.5 Q1334.56 1089.08 1331.09 1092.18 Q1327.62 1095.26 1321.3 1095.26 Q1319.12 1095.26 1316.86 1094.89 Q1314.61 1094.52 1312.2 1093.78 L1312.2 1089.08 Q1314.29 1090.21 1316.51 1090.77 Q1318.73 1091.32 1321.21 1091.32 Q1325.21 1091.32 1327.55 1089.22 Q1329.89 1087.11 1329.89 1083.5 Q1329.89 1079.89 1327.55 1077.78 Q1325.21 1075.68 1321.21 1075.68 Q1319.33 1075.68 1317.46 1076.09 Q1315.61 1076.51 1313.66 1077.39 L1313.66 1060.03 Z" fill="#000000" fill-rule="nonzero" fill-opacity="1" /><path clip-path="url(#clip560)" d="M1353.78 1063.11 Q1350.17 1063.11 1348.34 1066.67 Q1346.53 1070.21 1346.53 1077.34 Q1346.53 1084.45 1348.34 1088.01 Q1350.17 1091.56 1353.78 1091.56 Q1357.41 1091.56 1359.22 1088.01 Q1361.04 1084.45 1361.04 1077.34 Q1361.04 1070.21 1359.22 1066.67 Q1357.41 1063.11 1353.78 1063.11 M1353.78 1059.4 Q1359.59 1059.4 1362.64 1064.01 Q1365.72 1068.59 1365.72 1077.34 Q1365.72 1086.07 1362.64 1090.68 Q1359.59 1095.26 1353.78 1095.26 Q1347.97 1095.26 1344.89 1090.68 Q1341.83 1086.07 1341.83 1077.34 Q1341.83 1068.59 1344.89 1064.01 Q1347.97 1059.4 1353.78 1059.4 Z" fill="#000000" fill-rule="nonzero" fill-opacity="1" /><path clip-path="url(#clip560)" d="M1641.59 1090.65 L1657.91 1090.65 L1657.91 1094.59 L1635.97 1094.59 L1635.97 1090.65 Q1638.63 1087.9 1643.21 1083.27 Q1647.82 1078.62 1649 1077.27 Q1651.24 1074.75 1652.12 1073.01 Q1653.03 1071.25 1653.03 1069.56 Q1653.03 1066.81 1651.08 1065.07 Q1649.16 1063.34 1646.06 1063.34 Q1643.86 1063.34 1641.41 1064.1 Q1638.97 1064.87 1636.2 1066.42 L1636.2 1061.69 Q1639.02 1060.56 1641.47 1059.98 Q1643.93 1059.4 1645.97 1059.4 Q1651.34 1059.4 1654.53 1062.09 Q1657.72 1064.77 1657.72 1069.26 Q1657.72 1071.39 1656.91 1073.31 Q1656.13 1075.21 1654.02 1077.81 Q1653.44 1078.48 1650.34 1081.69 Q1647.24 1084.89 1641.59 1090.65 Z" fill="#000000" fill-rule="nonzero" fill-opacity="1" /><path clip-path="url(#clip560)" d="M1677.72 1063.11 Q1674.11 1063.11 1672.28 1066.67 Q1670.48 1070.21 1670.48 1077.34 Q1670.48 1084.45 1672.28 1088.01 Q1674.11 1091.56 1677.72 1091.56 Q1681.36 1091.56 1683.16 1088.01 Q1684.99 1084.45 1684.99 1077.34 Q1684.99 1070.21 1683.16 1066.67 Q1681.36 1063.11 1677.72 1063.11 M1677.72 1059.4 Q1683.53 1059.4 1686.59 1064.01 Q1689.67 1068.59 1689.67 1077.34 Q1689.67 1086.07 1686.59 1090.68 Q1683.53 1095.26 1677.72 1095.26 Q1671.91 1095.26 1668.84 1090.68 Q1665.78 1086.07 1665.78 1077.34 Q1665.78 1068.59 1668.84 1064.01 Q1671.91 1059.4 1677.72 1059.4 Z" fill="#000000" fill-rule="nonzero" fill-opacity="1" /><path clip-path="url(#clip560)" d="M1707.89 1063.11 Q1704.28 1063.11 1702.45 1066.67 Q1700.64 1070.21 1700.64 1077.34 Q1700.64 1084.45 1702.45 1088.01 Q1704.28 1091.56 1707.89 1091.56 Q1711.52 1091.56 1713.33 1088.01 Q1715.15 1084.45 1715.15 1077.34 Q1715.15 1070.21 1713.33 1066.67 Q1711.52 1063.11 1707.89 1063.11 M1707.89 1059.4 Q1713.7 1059.4 1716.75 1064.01 Q1719.83 1068.59 1719.83 1077.34 Q1719.83 1086.07 1716.75 1090.68 Q1713.7 1095.26 1707.89 1095.26 Q1702.08 1095.26 1699 1090.68 Q1695.94 1086.07 1695.94 1077.34 Q1695.94 1068.59 1699 1064.01 Q1702.08 1059.4 1707.89 1059.4 Z" fill="#000000" fill-rule="nonzero" fill-opacity="1" /><path clip-path="url(#clip560)" d="M845.359 1126.73 L875.406 1126.73 L875.406 1132.14 L851.789 1132.14 L851.789 1146.21 L874.419 1146.21 L874.419 1151.62 L851.789 1151.62 L851.789 1168.84 L875.978 1168.84 L875.978 1174.25 L845.359 1174.25 L845.359 1126.73 Z" fill="#000000" fill-rule="nonzero" fill-opacity="1" /><path clip-path="url(#clip560)" d="M915.923 1152.74 L915.923 1174.25 L910.067 1174.25 L910.067 1152.93 Q910.067 1147.87 908.093 1145.35 Q906.12 1142.84 902.173 1142.84 Q897.431 1142.84 894.694 1145.86 Q891.956 1148.88 891.956 1154.1 L891.956 1174.25 L886.068 1174.25 L886.068 1138.6 L891.956 1138.6 L891.956 1144.14 Q894.057 1140.93 896.89 1139.34 Q899.754 1137.74 903.478 1137.74 Q909.621 1137.74 912.772 1141.56 Q915.923 1145.35 915.923 1152.74 Z" fill="#000000" fill-rule="nonzero" fill-opacity="1" /><path clip-path="url(#clip560)" d="M958.096 1154.96 L958.096 1157.83 L931.169 1157.83 Q931.551 1163.88 934.798 1167.06 Q938.076 1170.21 943.901 1170.21 Q947.274 1170.21 950.425 1169.38 Q953.608 1168.55 956.727 1166.9 L956.727 1172.44 Q953.576 1173.77 950.266 1174.47 Q946.956 1175.17 943.55 1175.17 Q935.02 1175.17 930.023 1170.21 Q925.058 1165.24 925.058 1156.78 Q925.058 1148.03 929.769 1142.9 Q934.511 1137.74 942.532 1137.74 Q949.725 1137.74 953.895 1142.39 Q958.096 1147.01 958.096 1154.96 M952.24 1153.25 Q952.176 1148.44 949.534 1145.57 Q946.924 1142.71 942.596 1142.71 Q937.694 1142.71 934.734 1145.48 Q931.806 1148.25 931.36 1153.28 L952.24 1153.25 Z" fill="#000000" fill-rule="nonzero" fill-opacity="1" /><path clip-path="url(#clip560)" d="M988.365 1144.08 Q987.378 1143.51 986.201 1143.25 Q985.055 1142.96 983.654 1142.96 Q978.689 1142.96 976.016 1146.21 Q973.374 1149.43 973.374 1155.47 L973.374 1174.25 L967.485 1174.25 L967.485 1138.6 L973.374 1138.6 L973.374 1144.14 Q975.22 1140.9 978.18 1139.34 Q981.14 1137.74 985.373 1137.74 Q985.978 1137.74 986.71 1137.84 Q987.442 1137.9 988.333 1138.06 L988.365 1144.08 Z" fill="#000000" fill-rule="nonzero" fill-opacity="1" /><path clip-path="url(#clip560)" d="M1016.82 1156.01 Q1016.82 1149.65 1014.18 1146.15 Q1011.57 1142.65 1006.83 1142.65 Q1002.11 1142.65 999.473 1146.15 Q996.863 1149.65 996.863 1156.01 Q996.863 1162.35 999.473 1165.85 Q1002.11 1169.35 1006.83 1169.35 Q1011.57 1169.35 1014.18 1165.85 Q1016.82 1162.35 1016.82 1156.01 M1022.68 1169.83 Q1022.68 1178.93 1018.63 1183.35 Q1014.59 1187.81 1006.25 1187.81 Q1003.17 1187.81 1000.43 1187.33 Q997.691 1186.89 995.113 1185.93 L995.113 1180.24 Q997.691 1181.64 1000.21 1182.3 Q1002.72 1182.97 1005.33 1182.97 Q1011.09 1182.97 1013.96 1179.95 Q1016.82 1176.96 1016.82 1170.88 L1016.82 1167.98 Q1015.01 1171.13 1012.17 1172.69 Q1009.34 1174.25 1005.39 1174.25 Q998.837 1174.25 994.826 1169.25 Q990.816 1164.26 990.816 1156.01 Q990.816 1147.74 994.826 1142.74 Q998.837 1137.74 1005.39 1137.74 Q1009.34 1137.74 1012.17 1139.3 Q1015.01 1140.86 1016.82 1144.01 L1016.82 1138.6 L1022.68 1138.6 L1022.68 1169.83 Z" fill="#000000" fill-rule="nonzero" fill-opacity="1" /><path clip-path="url(#clip560)" d="M1049.57 1177.56 Q1047.09 1183.93 1044.73 1185.87 Q1042.38 1187.81 1038.43 1187.81 L1033.75 1187.81 L1033.75 1182.91 L1037.19 1182.91 Q1039.61 1182.91 1040.95 1181.76 Q1042.28 1180.62 1043.91 1176.35 L1044.96 1173.68 L1030.54 1138.6 L1036.74 1138.6 L1047.88 1166.49 L1059.02 1138.6 L1065.23 1138.6 L1049.57 1177.56 Z" fill="#000000" fill-rule="nonzero" fill-opacity="1" /><path clip-path="url(#clip560)" d="M1108.1 1124.79 Q1103.84 1132.11 1101.77 1139.27 Q1099.7 1146.43 1099.7 1153.79 Q1099.7 1161.14 1101.77 1168.36 Q1103.87 1175.56 1108.1 1182.85 L1103.01 1182.85 Q1098.24 1175.37 1095.85 1168.14 Q1093.49 1160.92 1093.49 1153.79 Q1093.49 1146.69 1095.85 1139.5 Q1098.21 1132.3 1103.01 1124.79 L1108.1 1124.79 Z" fill="#000000" fill-rule="nonzero" fill-opacity="1" /><path clip-path="url(#clip560)" d="M1119.72 1126.73 L1129.3 1126.73 L1141.43 1159.07 L1153.62 1126.73 L1163.2 1126.73 L1163.2 1174.25 L1156.93 1174.25 L1156.93 1132.52 L1144.67 1165.12 L1138.21 1165.12 L1125.96 1132.52 L1125.96 1174.25 L1119.72 1174.25 L1119.72 1126.73 Z" fill="#000000" fill-rule="nonzero" fill-opacity="1" /><path clip-path="url(#clip560)" d="M1206.2 1154.96 L1206.2 1157.83 L1179.27 1157.83 Q1179.65 1163.88 1182.9 1167.06 Q1186.18 1170.21 1192 1170.21 Q1195.38 1170.21 1198.53 1169.38 Q1201.71 1168.55 1204.83 1166.9 L1204.83 1172.44 Q1201.68 1173.77 1198.37 1174.47 Q1195.06 1175.17 1191.65 1175.17 Q1183.12 1175.17 1178.13 1170.21 Q1173.16 1165.24 1173.16 1156.78 Q1173.16 1148.03 1177.87 1142.9 Q1182.61 1137.74 1190.64 1137.74 Q1197.83 1137.74 1202 1142.39 Q1206.2 1147.01 1206.2 1154.96 M1200.34 1153.25 Q1200.28 1148.44 1197.64 1145.57 Q1195.03 1142.71 1190.7 1142.71 Q1185.8 1142.71 1182.84 1145.48 Q1179.91 1148.25 1179.46 1153.28 L1200.34 1153.25 Z" fill="#000000" fill-rule="nonzero" fill-opacity="1" /><path clip-path="url(#clip560)" d="M1228.32 1174.25 L1210.18 1126.73 L1216.89 1126.73 L1231.95 1166.74 L1247.04 1126.73 L1253.72 1126.73 L1235.61 1174.25 L1228.32 1174.25 Z" fill="#000000" fill-rule="nonzero" fill-opacity="1" /><path clip-path="url(#clip560)" d="M1259.48 1124.79 L1264.57 1124.79 Q1269.35 1132.3 1271.7 1139.5 Q1274.09 1146.69 1274.09 1153.79 Q1274.09 1160.92 1271.7 1168.14 Q1269.35 1175.37 1264.57 1182.85 L1259.48 1182.85 Q1263.71 1175.56 1265.78 1168.36 Q1267.88 1161.14 1267.88 1153.79 Q1267.88 1146.43 1265.78 1139.27 Q1263.71 1132.11 1259.48 1124.79 Z" fill="#000000" fill-rule="nonzero" fill-opacity="1" /><polyline clip-path="url(#clip560)" style="stroke:#000000; stroke-linecap:round; stroke-linejoin:round; stroke-width:4; stroke-opacity:1; fill:none" points="166.693,1035.39 166.693,117.424 "/>
<polyline clip-path="url(#clip560)" style="stroke:#000000; stroke-linecap:round; stroke-linejoin:round; stroke-width:4; stroke-opacity:1; fill:none" points="166.693,1035.39 185.591,1035.39 "/>
<polyline clip-path="url(#clip560)" style="stroke:#000000; stroke-linecap:round; stroke-linejoin:round; stroke-width:4; stroke-opacity:1; fill:none" points="166.693,851.795 185.591,851.795 "/>
<polyline clip-path="url(#clip560)" style="stroke:#000000; stroke-linecap:round; stroke-linejoin:round; stroke-width:4; stroke-opacity:1; fill:none" points="166.693,668.202 185.591,668.202 "/>
<polyline clip-path="url(#clip560)" style="stroke:#000000; stroke-linecap:round; stroke-linejoin:round; stroke-width:4; stroke-opacity:1; fill:none" points="166.693,484.61 185.591,484.61 "/>
<polyline clip-path="url(#clip560)" style="stroke:#000000; stroke-linecap:round; stroke-linejoin:round; stroke-width:4; stroke-opacity:1; fill:none" points="166.693,301.017 185.591,301.017 "/>
<polyline clip-path="url(#clip560)" style="stroke:#000000; stroke-linecap:round; stroke-linejoin:round; stroke-width:4; stroke-opacity:1; fill:none" points="166.693,117.424 185.591,117.424 "/>
<path clip-path="url(#clip560)" d="M124.749 1021.19 Q121.138 1021.19 119.309 1024.75 Q117.503 1028.29 117.503 1035.42 Q117.503 1042.53 119.309 1046.09 Q121.138 1049.64 124.749 1049.64 Q128.383 1049.64 130.189 1046.09 Q132.017 1042.53 132.017 1035.42 Q132.017 1028.29 130.189 1024.75 Q128.383 1021.19 124.749 1021.19 M124.749 1017.48 Q130.559 1017.48 133.615 1022.09 Q136.693 1026.67 136.693 1035.42 Q136.693 1044.15 133.615 1048.76 Q130.559 1053.34 124.749 1053.34 Q118.939 1053.34 115.86 1048.76 Q112.804 1044.15 112.804 1035.42 Q112.804 1026.67 115.86 1022.09 Q118.939 1017.48 124.749 1017.48 Z" fill="#000000" fill-rule="nonzero" fill-opacity="1" /><path clip-path="url(#clip560)" d="M116.786 865.14 L124.425 865.14 L124.425 838.774 L116.115 840.441 L116.115 836.182 L124.378 834.515 L129.054 834.515 L129.054 865.14 L136.693 865.14 L136.693 869.075 L116.786 869.075 L116.786 865.14 Z" fill="#000000" fill-rule="nonzero" fill-opacity="1" /><path clip-path="url(#clip560)" d="M120.374 681.547 L136.693 681.547 L136.693 685.482 L114.749 685.482 L114.749 681.547 Q117.411 678.793 121.994 674.163 Q126.601 669.51 127.781 668.168 Q130.027 665.644 130.906 663.908 Q131.809 662.149 131.809 660.459 Q131.809 657.705 129.865 655.969 Q127.943 654.233 124.841 654.233 Q122.642 654.233 120.189 654.996 Q117.758 655.76 114.98 657.311 L114.98 652.589 Q117.804 651.455 120.258 650.876 Q122.712 650.297 124.749 650.297 Q130.119 650.297 133.314 652.983 Q136.508 655.668 136.508 660.158 Q136.508 662.288 135.698 664.209 Q134.911 666.107 132.804 668.7 Q132.226 669.371 129.124 672.589 Q126.022 675.783 120.374 681.547 Z" fill="#000000" fill-rule="nonzero" fill-opacity="1" /><path clip-path="url(#clip560)" d="M129.564 483.255 Q132.92 483.973 134.795 486.242 Q136.693 488.51 136.693 491.843 Q136.693 496.959 133.175 499.76 Q129.656 502.561 123.175 502.561 Q120.999 502.561 118.684 502.121 Q116.392 501.704 113.939 500.848 L113.939 496.334 Q115.883 497.468 118.198 498.047 Q120.513 498.626 123.036 498.626 Q127.434 498.626 129.726 496.89 Q132.04 495.154 132.04 491.843 Q132.04 488.788 129.888 487.075 Q127.758 485.339 123.939 485.339 L119.911 485.339 L119.911 481.496 L124.124 481.496 Q127.573 481.496 129.402 480.13 Q131.23 478.742 131.23 476.149 Q131.23 473.487 129.332 472.075 Q127.457 470.64 123.939 470.64 Q122.017 470.64 119.818 471.056 Q117.619 471.473 114.98 472.353 L114.98 468.186 Q117.642 467.445 119.957 467.075 Q122.295 466.705 124.355 466.705 Q129.679 466.705 132.781 469.135 Q135.883 471.543 135.883 475.663 Q135.883 478.533 134.24 480.524 Q132.596 482.492 129.564 483.255 Z" fill="#000000" fill-rule="nonzero" fill-opacity="1" /><path clip-path="url(#clip560)" d="M127.11 287.811 L115.304 306.26 L127.11 306.26 L127.11 287.811 M125.883 283.737 L131.763 283.737 L131.763 306.26 L136.693 306.26 L136.693 310.149 L131.763 310.149 L131.763 318.297 L127.11 318.297 L127.11 310.149 L111.508 310.149 L111.508 305.635 L125.883 283.737 Z" fill="#000000" fill-rule="nonzero" fill-opacity="1" /><path clip-path="url(#clip560)" d="M115.791 100.144 L134.147 100.144 L134.147 104.079 L120.073 104.079 L120.073 112.551 Q121.091 112.204 122.11 112.042 Q123.128 111.857 124.147 111.857 Q129.934 111.857 133.314 115.028 Q136.693 118.2 136.693 123.616 Q136.693 129.195 133.221 132.297 Q129.749 135.375 123.429 135.375 Q121.253 135.375 118.985 135.005 Q116.74 134.635 114.332 133.894 L114.332 129.195 Q116.416 130.329 118.638 130.885 Q120.86 131.44 123.337 131.44 Q127.341 131.44 129.679 129.334 Q132.017 127.227 132.017 123.616 Q132.017 120.005 129.679 117.899 Q127.341 115.792 123.337 115.792 Q121.462 115.792 119.587 116.209 Q117.735 116.626 115.791 117.505 L115.791 100.144 Z" fill="#000000" fill-rule="nonzero" fill-opacity="1" /><path clip-path="url(#clip560)" d="M23.3924 648.434 L30.1719 648.434 Q27.1482 651.68 25.6523 655.373 Q24.1563 659.033 24.1563 663.171 Q24.1563 671.319 29.1534 675.647 Q34.1187 679.976 43.5399 679.976 Q52.9293 679.976 57.9264 675.647 Q62.8916 671.319 62.8916 663.171 Q62.8916 659.033 61.3957 655.373 Q59.8998 651.68 56.8761 648.434 L63.5919 648.434 Q65.8835 651.808 67.0294 655.595 Q68.1752 659.351 68.1752 663.553 Q68.1752 674.342 61.5867 680.549 Q54.9663 686.756 43.5399 686.756 Q32.0816 686.756 25.4931 680.549 Q18.8728 674.342 18.8728 663.553 Q18.8728 659.287 20.0186 655.532 Q21.1326 651.744 23.3924 648.434 Z" fill="#000000" fill-rule="nonzero" fill-opacity="1" /><path clip-path="url(#clip560)" d="M35.7101 624.944 Q35.7101 629.655 39.4022 632.392 Q43.0625 635.13 49.46 635.13 Q55.8575 635.13 59.5497 632.424 Q63.2099 629.687 63.2099 624.944 Q63.2099 620.266 59.5178 617.528 Q55.8257 614.791 49.46 614.791 Q43.1261 614.791 39.434 617.528 Q35.7101 620.266 35.7101 624.944 M30.7448 624.944 Q30.7448 617.306 35.7101 612.945 Q40.6753 608.585 49.46 608.585 Q58.2129 608.585 63.2099 612.945 Q68.1752 617.306 68.1752 624.944 Q68.1752 632.615 63.2099 636.976 Q58.2129 641.304 49.46 641.304 Q40.6753 641.304 35.7101 636.976 Q30.7448 632.615 30.7448 624.944 Z" fill="#000000" fill-rule="nonzero" fill-opacity="1" /><path clip-path="url(#clip560)" d="M53.1839 599.482 L31.6042 599.482 L31.6042 593.625 L52.9611 593.625 Q58.0219 593.625 60.5682 591.652 Q63.0826 589.678 63.0826 585.732 Q63.0826 580.989 60.0589 578.252 Q57.0352 575.483 51.8153 575.483 L31.6042 575.483 L31.6042 569.627 L67.2522 569.627 L67.2522 575.483 L61.7776 575.483 Q65.0242 577.615 66.6156 580.448 Q68.1752 583.249 68.1752 586.973 Q68.1752 593.116 64.3558 596.299 Q60.5363 599.482 53.1839 599.482 M30.7448 584.745 L30.7448 584.745 Z" fill="#000000" fill-rule="nonzero" fill-opacity="1" /><path clip-path="url(#clip560)" d="M45.7361 527.931 L67.2522 527.931 L67.2522 533.788 L45.927 533.788 Q40.8663 533.788 38.3518 535.761 Q35.8374 537.734 35.8374 541.681 Q35.8374 546.424 38.8611 549.161 Q41.8848 551.898 47.1047 551.898 L67.2522 551.898 L67.2522 557.786 L31.6042 557.786 L31.6042 551.898 L37.1424 551.898 Q33.9277 549.797 32.3363 546.965 Q30.7448 544.1 30.7448 540.376 Q30.7448 534.233 34.5643 531.082 Q38.3518 527.931 45.7361 527.931 Z" fill="#000000" fill-rule="nonzero" fill-opacity="1" /><path clip-path="url(#clip560)" d="M21.4827 510.457 L31.6042 510.457 L31.6042 498.394 L36.1557 498.394 L36.1557 510.457 L55.5074 510.457 Q59.8679 510.457 61.1093 509.28 Q62.3506 508.07 62.3506 504.41 L62.3506 498.394 L67.2522 498.394 L67.2522 504.41 Q67.2522 511.189 64.7377 513.767 Q62.1914 516.346 55.5074 516.346 L36.1557 516.346 L36.1557 520.642 L31.6042 520.642 L31.6042 516.346 L21.4827 516.346 L21.4827 510.457 Z" fill="#000000" fill-rule="nonzero" fill-opacity="1" /><path clip-path="url(#clip560)" d="M32.6545 467.966 L38.1927 467.966 Q36.9196 470.449 36.283 473.122 Q35.6464 475.796 35.6464 478.661 Q35.6464 483.021 36.9832 485.217 Q38.32 487.382 40.9936 487.382 Q43.0306 487.382 44.2083 485.822 Q45.3541 484.262 46.4045 479.552 L46.8501 477.547 Q48.1869 471.308 50.6377 468.698 Q53.0566 466.056 57.4171 466.056 Q62.3824 466.056 65.2788 470.003 Q68.1752 473.918 68.1752 480.793 Q68.1752 483.658 67.6023 486.777 Q67.0612 489.864 65.9472 493.302 L59.8998 493.302 Q61.5867 490.055 62.446 486.904 Q63.2736 483.753 63.2736 480.666 Q63.2736 476.528 61.8731 474.3 Q60.4409 472.072 57.8627 472.072 Q55.4756 472.072 54.2025 473.695 Q52.9293 475.287 51.7517 480.729 L51.2742 482.766 Q50.1284 488.209 47.7731 490.628 Q45.386 493.047 41.2482 493.047 Q36.2193 493.047 33.4821 489.482 Q30.7448 485.917 30.7448 479.361 Q30.7448 476.114 31.2223 473.25 Q31.6997 470.385 32.6545 467.966 Z" fill="#000000" fill-rule="nonzero" fill-opacity="1" /><path clip-path="url(#clip560)" d="M686.211 12.096 L697.229 12.096 L724.046 62.6918 L724.046 12.096 L731.986 12.096 L731.986 72.576 L720.968 72.576 L694.151 21.9802 L694.151 72.576 L686.211 72.576 L686.211 12.096 Z" fill="#000000" fill-rule="nonzero" fill-opacity="1" /><path clip-path="url(#clip560)" d="M786.754 48.0275 L786.754 51.6733 L752.484 51.6733 Q752.97 59.3701 757.102 63.421 Q761.274 67.4314 768.687 67.4314 Q772.981 67.4314 776.992 66.3781 Q781.043 65.3249 785.012 63.2184 L785.012 70.267 Q781.002 71.9684 776.789 72.8596 Q772.576 73.7508 768.242 73.7508 Q757.385 73.7508 751.025 67.4314 Q744.706 61.1119 744.706 50.3365 Q744.706 39.1965 750.701 32.6746 Q756.737 26.1121 766.945 26.1121 Q776.1 26.1121 781.407 32.0264 Q786.754 37.9003 786.754 48.0275 M779.301 45.84 Q779.22 39.7232 775.857 36.0774 Q772.536 32.4315 767.026 32.4315 Q760.788 32.4315 757.021 35.9558 Q753.294 39.4801 752.727 45.8805 L779.301 45.84 Z" fill="#000000" fill-rule="nonzero" fill-opacity="1" /><path clip-path="url(#clip560)" d="M798.218 54.671 L798.218 27.2059 L805.672 27.2059 L805.672 54.3874 Q805.672 60.8284 808.184 64.0691 Q810.695 67.2693 815.718 67.2693 Q821.754 67.2693 825.238 63.421 Q828.762 59.5726 828.762 52.9291 L828.762 27.2059 L836.216 27.2059 L836.216 72.576 L828.762 72.576 L828.762 65.6084 Q826.048 69.7404 822.443 71.7658 Q818.878 73.7508 814.138 73.7508 Q806.32 73.7508 802.269 68.8897 Q798.218 64.0286 798.218 54.671 M816.974 26.1121 L816.974 26.1121 Z" fill="#000000" fill-rule="nonzero" fill-opacity="1" /><path clip-path="url(#clip560)" d="M858.941 14.324 L858.941 27.2059 L874.294 27.2059 L874.294 32.9987 L858.941 32.9987 L858.941 57.6282 Q858.941 63.1779 860.44 64.7578 Q861.98 66.3376 866.638 66.3376 L874.294 66.3376 L874.294 72.576 L866.638 72.576 Q858.01 72.576 854.729 69.3758 Q851.447 66.1351 851.447 57.6282 L851.447 32.9987 L845.979 32.9987 L845.979 27.2059 L851.447 27.2059 L851.447 14.324 L858.941 14.324 Z" fill="#000000" fill-rule="nonzero" fill-opacity="1" /><path clip-path="url(#clip560)" d="M910.388 34.1734 Q909.132 33.4443 907.633 33.1202 Q906.175 32.7556 904.393 32.7556 Q898.073 32.7556 894.67 36.8875 Q891.308 40.9789 891.308 48.6757 L891.308 72.576 L883.814 72.576 L883.814 27.2059 L891.308 27.2059 L891.308 34.2544 Q893.658 30.1225 897.425 28.1376 Q901.192 26.1121 906.58 26.1121 Q907.35 26.1121 908.282 26.2337 Q909.213 26.3147 910.347 26.5172 L910.388 34.1734 Z" fill="#000000" fill-rule="nonzero" fill-opacity="1" /><path clip-path="url(#clip560)" d="M933.964 32.4315 Q927.969 32.4315 924.485 37.1306 Q921.001 41.7891 921.001 49.9314 Q921.001 58.0738 924.445 62.7728 Q927.928 67.4314 933.964 67.4314 Q939.919 67.4314 943.403 62.7323 Q946.887 58.0333 946.887 49.9314 Q946.887 41.8701 943.403 37.1711 Q939.919 32.4315 933.964 32.4315 M933.964 26.1121 Q943.686 26.1121 949.236 32.4315 Q954.786 38.7509 954.786 49.9314 Q954.786 61.0714 949.236 67.4314 Q943.686 73.7508 933.964 73.7508 Q924.202 73.7508 918.652 67.4314 Q913.143 61.0714 913.143 49.9314 Q913.143 38.7509 918.652 32.4315 Q924.202 26.1121 933.964 26.1121 Z" fill="#000000" fill-rule="nonzero" fill-opacity="1" /><path clip-path="url(#clip560)" d="M1004.86 45.1919 L1004.86 72.576 L997.401 72.576 L997.401 45.4349 Q997.401 38.994 994.89 35.7938 Q992.378 32.5936 987.355 32.5936 Q981.319 32.5936 977.836 36.4419 Q974.352 40.2903 974.352 46.9338 L974.352 72.576 L966.858 72.576 L966.858 27.2059 L974.352 27.2059 L974.352 34.2544 Q977.025 30.163 980.631 28.1376 Q984.276 26.1121 989.016 26.1121 Q996.834 26.1121 1000.84 30.9732 Q1004.86 35.7938 1004.86 45.1919 Z" fill="#000000" fill-rule="nonzero" fill-opacity="1" /><path clip-path="url(#clip560)" d="M1082.67 14.0809 L1082.67 22.0612 Q1078.01 19.8332 1073.88 18.7395 Q1069.75 17.6457 1065.9 17.6457 Q1059.22 17.6457 1055.57 20.2383 Q1051.97 22.8309 1051.97 27.611 Q1051.97 31.6214 1054.36 33.6873 Q1056.79 35.7128 1063.51 36.9686 L1068.45 37.9813 Q1077.61 39.7232 1081.94 44.1387 Q1086.32 48.5136 1086.32 55.8863 Q1086.32 64.6767 1080.4 69.2137 Q1074.53 73.7508 1063.15 73.7508 Q1058.85 73.7508 1053.99 72.7785 Q1049.17 71.8063 1043.99 69.9024 L1043.99 61.4765 Q1048.97 64.2716 1053.75 65.6895 Q1058.53 67.1073 1063.15 67.1073 Q1070.16 67.1073 1073.96 64.3527 Q1077.77 61.598 1077.77 56.4939 Q1077.77 52.0379 1075.02 49.5264 Q1072.3 47.0148 1066.06 45.759 L1061.08 44.7868 Q1051.93 42.9639 1047.84 39.075 Q1043.74 35.1862 1043.74 28.2591 Q1043.74 20.2383 1049.37 15.6203 Q1055.05 11.0023 1064.97 11.0023 Q1069.22 11.0023 1073.64 11.7719 Q1078.05 12.5416 1082.67 14.0809 Z" fill="#000000" fill-rule="nonzero" fill-opacity="1" /><path clip-path="url(#clip560)" d="M1105.97 65.7705 L1105.97 89.8329 L1098.47 89.8329 L1098.47 27.2059 L1105.97 27.2059 L1105.97 34.0924 Q1108.32 30.0415 1111.88 28.0971 Q1115.49 26.1121 1120.47 26.1121 Q1128.73 26.1121 1133.88 32.6746 Q1139.06 39.2371 1139.06 49.9314 Q1139.06 60.6258 1133.88 67.1883 Q1128.73 73.7508 1120.47 73.7508 Q1115.49 73.7508 1111.88 71.8063 Q1108.32 69.8214 1105.97 65.7705 M1131.32 49.9314 Q1131.32 41.7081 1127.92 37.0496 Q1124.56 32.3505 1118.64 32.3505 Q1112.73 32.3505 1109.33 37.0496 Q1105.97 41.7081 1105.97 49.9314 Q1105.97 58.1548 1109.33 62.8538 Q1112.73 67.5124 1118.64 67.5124 Q1124.56 67.5124 1127.92 62.8538 Q1131.32 58.1548 1131.32 49.9314 Z" fill="#000000" fill-rule="nonzero" fill-opacity="1" /><path clip-path="url(#clip560)" d="M1190.22 48.0275 L1190.22 51.6733 L1155.95 51.6733 Q1156.44 59.3701 1160.57 63.421 Q1164.74 67.4314 1172.16 67.4314 Q1176.45 67.4314 1180.46 66.3781 Q1184.51 65.3249 1188.48 63.2184 L1188.48 70.267 Q1184.47 71.9684 1180.26 72.8596 Q1176.05 73.7508 1171.71 73.7508 Q1160.86 73.7508 1154.5 67.4314 Q1148.18 61.1119 1148.18 50.3365 Q1148.18 39.1965 1154.17 32.6746 Q1160.21 26.1121 1170.42 26.1121 Q1179.57 26.1121 1184.88 32.0264 Q1190.22 37.9003 1190.22 48.0275 M1182.77 45.84 Q1182.69 39.7232 1179.33 36.0774 Q1176.01 32.4315 1170.5 32.4315 Q1164.26 32.4315 1160.49 35.9558 Q1156.76 39.4801 1156.2 45.8805 L1182.77 45.84 Z" fill="#000000" fill-rule="nonzero" fill-opacity="1" /><path clip-path="url(#clip560)" d="M1235.11 28.9478 L1235.11 35.9153 Q1231.95 34.1734 1228.75 33.3227 Q1225.59 32.4315 1222.35 32.4315 Q1215.1 32.4315 1211.09 37.0496 Q1207.08 41.6271 1207.08 49.9314 Q1207.08 58.2358 1211.09 62.8538 Q1215.1 67.4314 1222.35 67.4314 Q1225.59 67.4314 1228.75 66.5807 Q1231.95 65.6895 1235.11 63.9476 L1235.11 70.8341 Q1231.99 72.2924 1228.63 73.0216 Q1225.31 73.7508 1221.54 73.7508 Q1211.29 73.7508 1205.25 67.3098 Q1199.22 60.8689 1199.22 49.9314 Q1199.22 38.832 1205.29 32.472 Q1211.41 26.1121 1222.02 26.1121 Q1225.47 26.1121 1228.75 26.8413 Q1232.03 27.5299 1235.11 28.9478 Z" fill="#000000" fill-rule="nonzero" fill-opacity="1" /><path clip-path="url(#clip560)" d="M1255.44 14.324 L1255.44 27.2059 L1270.8 27.2059 L1270.8 32.9987 L1255.44 32.9987 L1255.44 57.6282 Q1255.44 63.1779 1256.94 64.7578 Q1258.48 66.3376 1263.14 66.3376 L1270.8 66.3376 L1270.8 72.576 L1263.14 72.576 Q1254.51 72.576 1251.23 69.3758 Q1247.95 66.1351 1247.95 57.6282 L1247.95 32.9987 L1242.48 32.9987 L1242.48 27.2059 L1247.95 27.2059 L1247.95 14.324 L1255.44 14.324 Z" fill="#000000" fill-rule="nonzero" fill-opacity="1" /><path clip-path="url(#clip560)" d="M1306.89 34.1734 Q1305.63 33.4443 1304.14 33.1202 Q1302.68 32.7556 1300.9 32.7556 Q1294.58 32.7556 1291.17 36.8875 Q1287.81 40.9789 1287.81 48.6757 L1287.81 72.576 L1280.32 72.576 L1280.32 27.2059 L1287.81 27.2059 L1287.81 34.2544 Q1290.16 30.1225 1293.93 28.1376 Q1297.69 26.1121 1303.08 26.1121 Q1303.85 26.1121 1304.78 26.2337 Q1305.72 26.3147 1306.85 26.5172 L1306.89 34.1734 Z" fill="#000000" fill-rule="nonzero" fill-opacity="1" /><path clip-path="url(#clip560)" d="M1313.94 54.671 L1313.94 27.2059 L1321.39 27.2059 L1321.39 54.3874 Q1321.39 60.8284 1323.9 64.0691 Q1326.42 67.2693 1331.44 67.2693 Q1337.47 67.2693 1340.96 63.421 Q1344.48 59.5726 1344.48 52.9291 L1344.48 27.2059 L1351.94 27.2059 L1351.94 72.576 L1344.48 72.576 L1344.48 65.6084 Q1341.77 69.7404 1338.16 71.7658 Q1334.6 73.7508 1329.86 73.7508 Q1322.04 73.7508 1317.99 68.8897 Q1313.94 64.0286 1313.94 54.671 M1332.69 26.1121 L1332.69 26.1121 Z" fill="#000000" fill-rule="nonzero" fill-opacity="1" /><path clip-path="url(#clip560)" d="M1402.61 35.9153 Q1405.41 30.8922 1409.3 28.5022 Q1413.19 26.1121 1418.45 26.1121 Q1425.54 26.1121 1429.39 31.0947 Q1433.24 36.0368 1433.24 45.1919 L1433.24 72.576 L1425.74 72.576 L1425.74 45.4349 Q1425.74 38.913 1423.43 35.7533 Q1421.13 32.5936 1416.39 32.5936 Q1410.59 32.5936 1407.23 36.4419 Q1403.87 40.2903 1403.87 46.9338 L1403.87 72.576 L1396.37 72.576 L1396.37 45.4349 Q1396.37 38.8725 1394.07 35.7533 Q1391.76 32.5936 1386.94 32.5936 Q1381.22 32.5936 1377.86 36.4824 Q1374.5 40.3308 1374.5 46.9338 L1374.5 72.576 L1367.01 72.576 L1367.01 27.2059 L1374.5 27.2059 L1374.5 34.2544 Q1377.05 30.082 1380.62 28.0971 Q1384.18 26.1121 1389.08 26.1121 Q1394.03 26.1121 1397.47 28.6237 Q1400.95 31.1352 1402.61 35.9153 Z" fill="#000000" fill-rule="nonzero" fill-opacity="1" /><path clip-path="url(#clip562)" d="M264.93 117.424 L264.93 1035.39 L300.254 1035.39 L300.254 117.424 L264.93 117.424 L264.93 117.424  Z" fill="#000000" fill-rule="evenodd" fill-opacity="1"/>
<polyline clip-path="url(#clip562)" style="stroke:#000000; stroke-linecap:round; stroke-linejoin:round; stroke-width:4; stroke-opacity:1; fill:none" points="264.93,117.424 264.93,1035.39 300.254,1035.39 300.254,117.424 264.93,117.424 "/>
<path clip-path="url(#clip562)" d="M300.254 668.202 L300.254 1035.39 L335.578 1035.39 L335.578 668.202 L300.254 668.202 L300.254 668.202  Z" fill="#000000" fill-rule="evenodd" fill-opacity="1"/>
<polyline clip-path="url(#clip562)" style="stroke:#000000; stroke-linecap:round; stroke-linejoin:round; stroke-width:4; stroke-opacity:1; fill:none" points="300.254,668.202 300.254,1035.39 335.578,1035.39 335.578,668.202 300.254,668.202 "/>
<path clip-path="url(#clip562)" d="M335.578 668.202 L335.578 1035.39 L370.902 1035.39 L370.902 668.202 L335.578 668.202 L335.578 668.202  Z" fill="#000000" fill-rule="evenodd" fill-opacity="1"/>
<polyline clip-path="url(#clip562)" style="stroke:#000000; stroke-linecap:round; stroke-linejoin:round; stroke-width:4; stroke-opacity:1; fill:none" points="335.578,668.202 335.578,1035.39 370.902,1035.39 370.902,668.202 335.578,668.202 "/>
<path clip-path="url(#clip562)" d="M370.902 668.202 L370.902 1035.39 L406.227 1035.39 L406.227 668.202 L370.902 668.202 L370.902 668.202  Z" fill="#000000" fill-rule="evenodd" fill-opacity="1"/>
<polyline clip-path="url(#clip562)" style="stroke:#000000; stroke-linecap:round; stroke-linejoin:round; stroke-width:4; stroke-opacity:1; fill:none" points="370.902,668.202 370.902,1035.39 406.227,1035.39 406.227,668.202 370.902,668.202 "/>
<path clip-path="url(#clip562)" d="M406.227 1035.39 L406.227 1035.39 L441.551 1035.39 L441.551 1035.39 L406.227 1035.39 L406.227 1035.39  Z" fill="#000000" fill-rule="evenodd" fill-opacity="1"/>
<polyline clip-path="url(#clip562)" style="stroke:#000000; stroke-linecap:round; stroke-linejoin:round; stroke-width:4; stroke-opacity:1; fill:none" points="406.227,1035.39 406.227,1035.39 441.551,1035.39 406.227,1035.39 "/>
<path clip-path="url(#clip562)" d="M441.551 484.61 L441.551 1035.39 L476.875 1035.39 L476.875 484.61 L441.551 484.61 L441.551 484.61  Z" fill="#000000" fill-rule="evenodd" fill-opacity="1"/>
<polyline clip-path="url(#clip562)" style="stroke:#000000; stroke-linecap:round; stroke-linejoin:round; stroke-width:4; stroke-opacity:1; fill:none" points="441.551,484.61 441.551,1035.39 476.875,1035.39 476.875,484.61 441.551,484.61 "/>
<path clip-path="url(#clip562)" d="M476.875 851.795 L476.875 1035.39 L512.199 1035.39 L512.199 851.795 L476.875 851.795 L476.875 851.795  Z" fill="#000000" fill-rule="evenodd" fill-opacity="1"/>
<polyline clip-path="url(#clip562)" style="stroke:#000000; stroke-linecap:round; stroke-linejoin:round; stroke-width:4; stroke-opacity:1; fill:none" points="476.875,851.795 476.875,1035.39 512.199,1035.39 512.199,851.795 476.875,851.795 "/>
<path clip-path="url(#clip562)" d="M512.199 484.61 L512.199 1035.39 L547.524 1035.39 L547.524 484.61 L512.199 484.61 L512.199 484.61  Z" fill="#000000" fill-rule="evenodd" fill-opacity="1"/>
<polyline clip-path="url(#clip562)" style="stroke:#000000; stroke-linecap:round; stroke-linejoin:round; stroke-width:4; stroke-opacity:1; fill:none" points="512.199,484.61 512.199,1035.39 547.524,1035.39 547.524,484.61 512.199,484.61 "/>
<path clip-path="url(#clip562)" d="M547.524 484.61 L547.524 1035.39 L582.848 1035.39 L582.848 484.61 L547.524 484.61 L547.524 484.61  Z" fill="#000000" fill-rule="evenodd" fill-opacity="1"/>
<polyline clip-path="url(#clip562)" style="stroke:#000000; stroke-linecap:round; stroke-linejoin:round; stroke-width:4; stroke-opacity:1; fill:none" points="547.524,484.61 547.524,1035.39 582.848,1035.39 582.848,484.61 547.524,484.61 "/>
<path clip-path="url(#clip562)" d="M582.848 851.795 L582.848 1035.39 L618.172 1035.39 L618.172 851.795 L582.848 851.795 L582.848 851.795  Z" fill="#000000" fill-rule="evenodd" fill-opacity="1"/>
<polyline clip-path="url(#clip562)" style="stroke:#000000; stroke-linecap:round; stroke-linejoin:round; stroke-width:4; stroke-opacity:1; fill:none" points="582.848,851.795 582.848,1035.39 618.172,1035.39 618.172,851.795 582.848,851.795 "/>
<path clip-path="url(#clip562)" d="M618.172 851.795 L618.172 1035.39 L653.496 1035.39 L653.496 851.795 L618.172 851.795 L618.172 851.795  Z" fill="#000000" fill-rule="evenodd" fill-opacity="1"/>
<polyline clip-path="url(#clip562)" style="stroke:#000000; stroke-linecap:round; stroke-linejoin:round; stroke-width:4; stroke-opacity:1; fill:none" points="618.172,851.795 618.172,1035.39 653.496,1035.39 653.496,851.795 618.172,851.795 "/>
<path clip-path="url(#clip562)" d="M653.496 851.795 L653.496 1035.39 L688.82 1035.39 L688.82 851.795 L653.496 851.795 L653.496 851.795  Z" fill="#000000" fill-rule="evenodd" fill-opacity="1"/>
<polyline clip-path="url(#clip562)" style="stroke:#000000; stroke-linecap:round; stroke-linejoin:round; stroke-width:4; stroke-opacity:1; fill:none" points="653.496,851.795 653.496,1035.39 688.82,1035.39 688.82,851.795 653.496,851.795 "/>
<path clip-path="url(#clip562)" d="M688.82 851.795 L688.82 1035.39 L724.145 1035.39 L724.145 851.795 L688.82 851.795 L688.82 851.795  Z" fill="#000000" fill-rule="evenodd" fill-opacity="1"/>
<polyline clip-path="url(#clip562)" style="stroke:#000000; stroke-linecap:round; stroke-linejoin:round; stroke-width:4; stroke-opacity:1; fill:none" points="688.82,851.795 688.82,1035.39 724.145,1035.39 724.145,851.795 688.82,851.795 "/>
<path clip-path="url(#clip562)" d="M724.145 1035.39 L724.145 1035.39 L759.469 1035.39 L759.469 1035.39 L724.145 1035.39 L724.145 1035.39  Z" fill="#000000" fill-rule="evenodd" fill-opacity="1"/>
<polyline clip-path="url(#clip562)" style="stroke:#000000; stroke-linecap:round; stroke-linejoin:round; stroke-width:4; stroke-opacity:1; fill:none" points="724.145,1035.39 724.145,1035.39 759.469,1035.39 724.145,1035.39 "/>
<path clip-path="url(#clip562)" d="M759.469 668.202 L759.469 1035.39 L794.793 1035.39 L794.793 668.202 L759.469 668.202 L759.469 668.202  Z" fill="#000000" fill-rule="evenodd" fill-opacity="1"/>
<polyline clip-path="url(#clip562)" style="stroke:#000000; stroke-linecap:round; stroke-linejoin:round; stroke-width:4; stroke-opacity:1; fill:none" points="759.469,668.202 759.469,1035.39 794.793,1035.39 794.793,668.202 759.469,668.202 "/>
<path clip-path="url(#clip562)" d="M794.793 668.202 L794.793 1035.39 L830.117 1035.39 L830.117 668.202 L794.793 668.202 L794.793 668.202  Z" fill="#000000" fill-rule="evenodd" fill-opacity="1"/>
<polyline clip-path="url(#clip562)" style="stroke:#000000; stroke-linecap:round; stroke-linejoin:round; stroke-width:4; stroke-opacity:1; fill:none" points="794.793,668.202 794.793,1035.39 830.117,1035.39 830.117,668.202 794.793,668.202 "/>
<path clip-path="url(#clip562)" d="M830.117 851.795 L830.117 1035.39 L865.441 1035.39 L865.441 851.795 L830.117 851.795 L830.117 851.795  Z" fill="#000000" fill-rule="evenodd" fill-opacity="1"/>
<polyline clip-path="url(#clip562)" style="stroke:#000000; stroke-linecap:round; stroke-linejoin:round; stroke-width:4; stroke-opacity:1; fill:none" points="830.117,851.795 830.117,1035.39 865.441,1035.39 865.441,851.795 830.117,851.795 "/>
<path clip-path="url(#clip562)" d="M865.441 1035.39 L865.441 1035.39 L900.766 1035.39 L900.766 1035.39 L865.441 1035.39 L865.441 1035.39  Z" fill="#000000" fill-rule="evenodd" fill-opacity="1"/>
<polyline clip-path="url(#clip562)" style="stroke:#000000; stroke-linecap:round; stroke-linejoin:round; stroke-width:4; stroke-opacity:1; fill:none" points="865.441,1035.39 865.441,1035.39 900.766,1035.39 865.441,1035.39 "/>
<path clip-path="url(#clip562)" d="M900.766 1035.39 L900.766 1035.39 L936.09 1035.39 L936.09 1035.39 L900.766 1035.39 L900.766 1035.39  Z" fill="#000000" fill-rule="evenodd" fill-opacity="1"/>
<polyline clip-path="url(#clip562)" style="stroke:#000000; stroke-linecap:round; stroke-linejoin:round; stroke-width:4; stroke-opacity:1; fill:none" points="900.766,1035.39 900.766,1035.39 936.09,1035.39 900.766,1035.39 "/>
<path clip-path="url(#clip562)" d="M936.09 1035.39 L936.09 1035.39 L971.414 1035.39 L971.414 1035.39 L936.09 1035.39 L936.09 1035.39  Z" fill="#000000" fill-rule="evenodd" fill-opacity="1"/>
<polyline clip-path="url(#clip562)" style="stroke:#000000; stroke-linecap:round; stroke-linejoin:round; stroke-width:4; stroke-opacity:1; fill:none" points="936.09,1035.39 936.09,1035.39 971.414,1035.39 936.09,1035.39 "/>
<path clip-path="url(#clip562)" d="M971.414 851.795 L971.414 1035.39 L1006.74 1035.39 L1006.74 851.795 L971.414 851.795 L971.414 851.795  Z" fill="#000000" fill-rule="evenodd" fill-opacity="1"/>
<polyline clip-path="url(#clip562)" style="stroke:#000000; stroke-linecap:round; stroke-linejoin:round; stroke-width:4; stroke-opacity:1; fill:none" points="971.414,851.795 971.414,1035.39 1006.74,1035.39 1006.74,851.795 971.414,851.795 "/>
<path clip-path="url(#clip562)" d="M1006.74 851.795 L1006.74 1035.39 L1042.06 1035.39 L1042.06 851.795 L1006.74 851.795 L1006.74 851.795  Z" fill="#000000" fill-rule="evenodd" fill-opacity="1"/>
<polyline clip-path="url(#clip562)" style="stroke:#000000; stroke-linecap:round; stroke-linejoin:round; stroke-width:4; stroke-opacity:1; fill:none" points="1006.74,851.795 1006.74,1035.39 1042.06,1035.39 1042.06,851.795 1006.74,851.795 "/>
<path clip-path="url(#clip562)" d="M1042.06 851.795 L1042.06 1035.39 L1077.39 1035.39 L1077.39 851.795 L1042.06 851.795 L1042.06 851.795  Z" fill="#000000" fill-rule="evenodd" fill-opacity="1"/>
<polyline clip-path="url(#clip562)" style="stroke:#000000; stroke-linecap:round; stroke-linejoin:round; stroke-width:4; stroke-opacity:1; fill:none" points="1042.06,851.795 1042.06,1035.39 1077.39,1035.39 1077.39,851.795 1042.06,851.795 "/>
<path clip-path="url(#clip562)" d="M1077.39 851.795 L1077.39 1035.39 L1112.71 1035.39 L1112.71 851.795 L1077.39 851.795 L1077.39 851.795  Z" fill="#000000" fill-rule="evenodd" fill-opacity="1"/>
<polyline clip-path="url(#clip562)" style="stroke:#000000; stroke-linecap:round; stroke-linejoin:round; stroke-width:4; stroke-opacity:1; fill:none" points="1077.39,851.795 1077.39,1035.39 1112.71,1035.39 1112.71,851.795 1077.39,851.795 "/>
<path clip-path="url(#clip562)" d="M1112.71 1035.39 L1112.71 1035.39 L1148.04 1035.39 L1148.04 1035.39 L1112.71 1035.39 L1112.71 1035.39  Z" fill="#000000" fill-rule="evenodd" fill-opacity="1"/>
<polyline clip-path="url(#clip562)" style="stroke:#000000; stroke-linecap:round; stroke-linejoin:round; stroke-width:4; stroke-opacity:1; fill:none" points="1112.71,1035.39 1112.71,1035.39 1148.04,1035.39 1112.71,1035.39 "/>
<path clip-path="url(#clip562)" d="M1148.04 1035.39 L1148.04 1035.39 L1183.36 1035.39 L1183.36 1035.39 L1148.04 1035.39 L1148.04 1035.39  Z" fill="#000000" fill-rule="evenodd" fill-opacity="1"/>
<polyline clip-path="url(#clip562)" style="stroke:#000000; stroke-linecap:round; stroke-linejoin:round; stroke-width:4; stroke-opacity:1; fill:none" points="1148.04,1035.39 1148.04,1035.39 1183.36,1035.39 1148.04,1035.39 "/>
<path clip-path="url(#clip562)" d="M1183.36 851.795 L1183.36 1035.39 L1218.68 1035.39 L1218.68 851.795 L1183.36 851.795 L1183.36 851.795  Z" fill="#000000" fill-rule="evenodd" fill-opacity="1"/>
<polyline clip-path="url(#clip562)" style="stroke:#000000; stroke-linecap:round; stroke-linejoin:round; stroke-width:4; stroke-opacity:1; fill:none" points="1183.36,851.795 1183.36,1035.39 1218.68,1035.39 1218.68,851.795 1183.36,851.795 "/>
<path clip-path="url(#clip562)" d="M1218.68 851.795 L1218.68 1035.39 L1254.01 1035.39 L1254.01 851.795 L1218.68 851.795 L1218.68 851.795  Z" fill="#000000" fill-rule="evenodd" fill-opacity="1"/>
<polyline clip-path="url(#clip562)" style="stroke:#000000; stroke-linecap:round; stroke-linejoin:round; stroke-width:4; stroke-opacity:1; fill:none" points="1218.68,851.795 1218.68,1035.39 1254.01,1035.39 1254.01,851.795 1218.68,851.795 "/>
<path clip-path="url(#clip562)" d="M1254.01 851.795 L1254.01 1035.39 L1289.33 1035.39 L1289.33 851.795 L1254.01 851.795 L1254.01 851.795  Z" fill="#000000" fill-rule="evenodd" fill-opacity="1"/>
<polyline clip-path="url(#clip562)" style="stroke:#000000; stroke-linecap:round; stroke-linejoin:round; stroke-width:4; stroke-opacity:1; fill:none" points="1254.01,851.795 1254.01,1035.39 1289.33,1035.39 1289.33,851.795 1254.01,851.795 "/>
<path clip-path="url(#clip562)" d="M1289.33 1035.39 L1289.33 1035.39 L1324.66 1035.39 L1324.66 1035.39 L1289.33 1035.39 L1289.33 1035.39  Z" fill="#000000" fill-rule="evenodd" fill-opacity="1"/>
<polyline clip-path="url(#clip562)" style="stroke:#000000; stroke-linecap:round; stroke-linejoin:round; stroke-width:4; stroke-opacity:1; fill:none" points="1289.33,1035.39 1289.33,1035.39 1324.66,1035.39 1289.33,1035.39 "/>
<path clip-path="url(#clip562)" d="M1324.66 1035.39 L1324.66 1035.39 L1359.98 1035.39 L1359.98 1035.39 L1324.66 1035.39 L1324.66 1035.39  Z" fill="#000000" fill-rule="evenodd" fill-opacity="1"/>
<polyline clip-path="url(#clip562)" style="stroke:#000000; stroke-linecap:round; stroke-linejoin:round; stroke-width:4; stroke-opacity:1; fill:none" points="1324.66,1035.39 1324.66,1035.39 1359.98,1035.39 1324.66,1035.39 "/>
<path clip-path="url(#clip562)" d="M1359.98 851.795 L1359.98 1035.39 L1395.3 1035.39 L1395.3 851.795 L1359.98 851.795 L1359.98 851.795  Z" fill="#000000" fill-rule="evenodd" fill-opacity="1"/>
<polyline clip-path="url(#clip562)" style="stroke:#000000; stroke-linecap:round; stroke-linejoin:round; stroke-width:4; stroke-opacity:1; fill:none" points="1359.98,851.795 1359.98,1035.39 1395.3,1035.39 1395.3,851.795 1359.98,851.795 "/>
<path clip-path="url(#clip562)" d="M1395.3 1035.39 L1395.3 1035.39 L1430.63 1035.39 L1430.63 1035.39 L1395.3 1035.39 L1395.3 1035.39  Z" fill="#000000" fill-rule="evenodd" fill-opacity="1"/>
<polyline clip-path="url(#clip562)" style="stroke:#000000; stroke-linecap:round; stroke-linejoin:round; stroke-width:4; stroke-opacity:1; fill:none" points="1395.3,1035.39 1395.3,1035.39 1430.63,1035.39 1395.3,1035.39 "/>
<path clip-path="url(#clip562)" d="M1430.63 1035.39 L1430.63 1035.39 L1465.95 1035.39 L1465.95 1035.39 L1430.63 1035.39 L1430.63 1035.39  Z" fill="#000000" fill-rule="evenodd" fill-opacity="1"/>
<polyline clip-path="url(#clip562)" style="stroke:#000000; stroke-linecap:round; stroke-linejoin:round; stroke-width:4; stroke-opacity:1; fill:none" points="1430.63,1035.39 1430.63,1035.39 1465.95,1035.39 1430.63,1035.39 "/>
<path clip-path="url(#clip562)" d="M1465.95 851.795 L1465.95 1035.39 L1501.28 1035.39 L1501.28 851.795 L1465.95 851.795 L1465.95 851.795  Z" fill="#000000" fill-rule="evenodd" fill-opacity="1"/>
<polyline clip-path="url(#clip562)" style="stroke:#000000; stroke-linecap:round; stroke-linejoin:round; stroke-width:4; stroke-opacity:1; fill:none" points="1465.95,851.795 1465.95,1035.39 1501.28,1035.39 1501.28,851.795 1465.95,851.795 "/>
<path clip-path="url(#clip562)" d="M1501.28 1035.39 L1501.28 1035.39 L1536.6 1035.39 L1536.6 1035.39 L1501.28 1035.39 L1501.28 1035.39  Z" fill="#000000" fill-rule="evenodd" fill-opacity="1"/>
<polyline clip-path="url(#clip562)" style="stroke:#000000; stroke-linecap:round; stroke-linejoin:round; stroke-width:4; stroke-opacity:1; fill:none" points="1501.28,1035.39 1501.28,1035.39 1536.6,1035.39 1501.28,1035.39 "/>
<path clip-path="url(#clip562)" d="M1536.6 1035.39 L1536.6 1035.39 L1571.93 1035.39 L1571.93 1035.39 L1536.6 1035.39 L1536.6 1035.39  Z" fill="#000000" fill-rule="evenodd" fill-opacity="1"/>
<polyline clip-path="url(#clip562)" style="stroke:#000000; stroke-linecap:round; stroke-linejoin:round; stroke-width:4; stroke-opacity:1; fill:none" points="1536.6,1035.39 1536.6,1035.39 1571.93,1035.39 1536.6,1035.39 "/>
<path clip-path="url(#clip562)" d="M1571.93 1035.39 L1571.93 1035.39 L1607.25 1035.39 L1607.25 1035.39 L1571.93 1035.39 L1571.93 1035.39  Z" fill="#000000" fill-rule="evenodd" fill-opacity="1"/>
<polyline clip-path="url(#clip562)" style="stroke:#000000; stroke-linecap:round; stroke-linejoin:round; stroke-width:4; stroke-opacity:1; fill:none" points="1571.93,1035.39 1571.93,1035.39 1607.25,1035.39 1571.93,1035.39 "/>
<path clip-path="url(#clip562)" d="M1607.25 1035.39 L1607.25 1035.39 L1642.57 1035.39 L1642.57 1035.39 L1607.25 1035.39 L1607.25 1035.39  Z" fill="#000000" fill-rule="evenodd" fill-opacity="1"/>
<polyline clip-path="url(#clip562)" style="stroke:#000000; stroke-linecap:round; stroke-linejoin:round; stroke-width:4; stroke-opacity:1; fill:none" points="1607.25,1035.39 1607.25,1035.39 1642.57,1035.39 1607.25,1035.39 "/>
<path clip-path="url(#clip562)" d="M1642.57 1035.39 L1642.57 1035.39 L1677.9 1035.39 L1677.9 1035.39 L1642.57 1035.39 L1642.57 1035.39  Z" fill="#000000" fill-rule="evenodd" fill-opacity="1"/>
<polyline clip-path="url(#clip562)" style="stroke:#000000; stroke-linecap:round; stroke-linejoin:round; stroke-width:4; stroke-opacity:1; fill:none" points="1642.57,1035.39 1642.57,1035.39 1677.9,1035.39 1642.57,1035.39 "/>
<path clip-path="url(#clip562)" d="M1677.9 1035.39 L1677.9 1035.39 L1713.22 1035.39 L1713.22 1035.39 L1677.9 1035.39 L1677.9 1035.39  Z" fill="#000000" fill-rule="evenodd" fill-opacity="1"/>
<polyline clip-path="url(#clip562)" style="stroke:#000000; stroke-linecap:round; stroke-linejoin:round; stroke-width:4; stroke-opacity:1; fill:none" points="1677.9,1035.39 1677.9,1035.39 1713.22,1035.39 1677.9,1035.39 "/>
<path clip-path="url(#clip562)" d="M1713.22 1035.39 L1713.22 1035.39 L1748.55 1035.39 L1748.55 1035.39 L1713.22 1035.39 L1713.22 1035.39  Z" fill="#000000" fill-rule="evenodd" fill-opacity="1"/>
<polyline clip-path="url(#clip562)" style="stroke:#000000; stroke-linecap:round; stroke-linejoin:round; stroke-width:4; stroke-opacity:1; fill:none" points="1713.22,1035.39 1713.22,1035.39 1748.55,1035.39 1713.22,1035.39 "/>
<path clip-path="url(#clip562)" d="M1748.55 1035.39 L1748.55 1035.39 L1783.87 1035.39 L1783.87 1035.39 L1748.55 1035.39 L1748.55 1035.39  Z" fill="#000000" fill-rule="evenodd" fill-opacity="1"/>
<polyline clip-path="url(#clip562)" style="stroke:#000000; stroke-linecap:round; stroke-linejoin:round; stroke-width:4; stroke-opacity:1; fill:none" points="1748.55,1035.39 1748.55,1035.39 1783.87,1035.39 1748.55,1035.39 "/>
<path clip-path="url(#clip562)" d="M1783.87 1035.39 L1783.87 1035.39 L1819.2 1035.39 L1819.2 1035.39 L1783.87 1035.39 L1783.87 1035.39  Z" fill="#000000" fill-rule="evenodd" fill-opacity="1"/>
<polyline clip-path="url(#clip562)" style="stroke:#000000; stroke-linecap:round; stroke-linejoin:round; stroke-width:4; stroke-opacity:1; fill:none" points="1783.87,1035.39 1783.87,1035.39 1819.2,1035.39 1783.87,1035.39 "/>
<path clip-path="url(#clip562)" d="M1819.2 851.795 L1819.2 1035.39 L1854.52 1035.39 L1854.52 851.795 L1819.2 851.795 L1819.2 851.795  Z" fill="#000000" fill-rule="evenodd" fill-opacity="1"/>
<polyline clip-path="url(#clip562)" style="stroke:#000000; stroke-linecap:round; stroke-linejoin:round; stroke-width:4; stroke-opacity:1; fill:none" points="1819.2,851.795 1819.2,1035.39 1854.52,1035.39 1854.52,851.795 1819.2,851.795 "/>
<circle clip-path="url(#clip562)" style="fill:#000000; stroke:none; fill-opacity:0" cx="282.592" cy="117.424" r="2"/>
<circle clip-path="url(#clip562)" style="fill:#000000; stroke:none; fill-opacity:0" cx="317.916" cy="668.202" r="2"/>
<circle clip-path="url(#clip562)" style="fill:#000000; stroke:none; fill-opacity:0" cx="353.24" cy="668.202" r="2"/>
<circle clip-path="url(#clip562)" style="fill:#000000; stroke:none; fill-opacity:0" cx="388.565" cy="668.202" r="2"/>
<circle clip-path="url(#clip562)" style="fill:#000000; stroke:none; fill-opacity:0" cx="423.889" cy="1035.39" r="2"/>
<circle clip-path="url(#clip562)" style="fill:#000000; stroke:none; fill-opacity:0" cx="459.213" cy="484.61" r="2"/>
<circle clip-path="url(#clip562)" style="fill:#000000; stroke:none; fill-opacity:0" cx="494.537" cy="851.795" r="2"/>
<circle clip-path="url(#clip562)" style="fill:#000000; stroke:none; fill-opacity:0" cx="529.861" cy="484.61" r="2"/>
<circle clip-path="url(#clip562)" style="fill:#000000; stroke:none; fill-opacity:0" cx="565.186" cy="484.61" r="2"/>
<circle clip-path="url(#clip562)" style="fill:#000000; stroke:none; fill-opacity:0" cx="600.51" cy="851.795" r="2"/>
<circle clip-path="url(#clip562)" style="fill:#000000; stroke:none; fill-opacity:0" cx="635.834" cy="851.795" r="2"/>
<circle clip-path="url(#clip562)" style="fill:#000000; stroke:none; fill-opacity:0" cx="671.158" cy="851.795" r="2"/>
<circle clip-path="url(#clip562)" style="fill:#000000; stroke:none; fill-opacity:0" cx="706.482" cy="851.795" r="2"/>
<circle clip-path="url(#clip562)" style="fill:#000000; stroke:none; fill-opacity:0" cx="741.807" cy="1035.39" r="2"/>
<circle clip-path="url(#clip562)" style="fill:#000000; stroke:none; fill-opacity:0" cx="777.131" cy="668.202" r="2"/>
<circle clip-path="url(#clip562)" style="fill:#000000; stroke:none; fill-opacity:0" cx="812.455" cy="668.202" r="2"/>
<circle clip-path="url(#clip562)" style="fill:#000000; stroke:none; fill-opacity:0" cx="847.779" cy="851.795" r="2"/>
<circle clip-path="url(#clip562)" style="fill:#000000; stroke:none; fill-opacity:0" cx="883.104" cy="1035.39" r="2"/>
<circle clip-path="url(#clip562)" style="fill:#000000; stroke:none; fill-opacity:0" cx="918.428" cy="1035.39" r="2"/>
<circle clip-path="url(#clip562)" style="fill:#000000; stroke:none; fill-opacity:0" cx="953.752" cy="1035.39" r="2"/>
<circle clip-path="url(#clip562)" style="fill:#000000; stroke:none; fill-opacity:0" cx="989.076" cy="851.795" r="2"/>
<circle clip-path="url(#clip562)" style="fill:#000000; stroke:none; fill-opacity:0" cx="1024.4" cy="851.795" r="2"/>
<circle clip-path="url(#clip562)" style="fill:#000000; stroke:none; fill-opacity:0" cx="1059.72" cy="851.795" r="2"/>
<circle clip-path="url(#clip562)" style="fill:#000000; stroke:none; fill-opacity:0" cx="1095.05" cy="851.795" r="2"/>
<circle clip-path="url(#clip562)" style="fill:#000000; stroke:none; fill-opacity:0" cx="1130.37" cy="1035.39" r="2"/>
<circle clip-path="url(#clip562)" style="fill:#000000; stroke:none; fill-opacity:0" cx="1165.7" cy="1035.39" r="2"/>
<circle clip-path="url(#clip562)" style="fill:#000000; stroke:none; fill-opacity:0" cx="1201.02" cy="851.795" r="2"/>
<circle clip-path="url(#clip562)" style="fill:#000000; stroke:none; fill-opacity:0" cx="1236.35" cy="851.795" r="2"/>
<circle clip-path="url(#clip562)" style="fill:#000000; stroke:none; fill-opacity:0" cx="1271.67" cy="851.795" r="2"/>
<circle clip-path="url(#clip562)" style="fill:#000000; stroke:none; fill-opacity:0" cx="1306.99" cy="1035.39" r="2"/>
<circle clip-path="url(#clip562)" style="fill:#000000; stroke:none; fill-opacity:0" cx="1342.32" cy="1035.39" r="2"/>
<circle clip-path="url(#clip562)" style="fill:#000000; stroke:none; fill-opacity:0" cx="1377.64" cy="851.795" r="2"/>
<circle clip-path="url(#clip562)" style="fill:#000000; stroke:none; fill-opacity:0" cx="1412.97" cy="1035.39" r="2"/>
<circle clip-path="url(#clip562)" style="fill:#000000; stroke:none; fill-opacity:0" cx="1448.29" cy="1035.39" r="2"/>
<circle clip-path="url(#clip562)" style="fill:#000000; stroke:none; fill-opacity:0" cx="1483.62" cy="851.795" r="2"/>
<circle clip-path="url(#clip562)" style="fill:#000000; stroke:none; fill-opacity:0" cx="1518.94" cy="1035.39" r="2"/>
<circle clip-path="url(#clip562)" style="fill:#000000; stroke:none; fill-opacity:0" cx="1554.26" cy="1035.39" r="2"/>
<circle clip-path="url(#clip562)" style="fill:#000000; stroke:none; fill-opacity:0" cx="1589.59" cy="1035.39" r="2"/>
<circle clip-path="url(#clip562)" style="fill:#000000; stroke:none; fill-opacity:0" cx="1624.91" cy="1035.39" r="2"/>
<circle clip-path="url(#clip562)" style="fill:#000000; stroke:none; fill-opacity:0" cx="1660.24" cy="1035.39" r="2"/>
<circle clip-path="url(#clip562)" style="fill:#000000; stroke:none; fill-opacity:0" cx="1695.56" cy="1035.39" r="2"/>
<circle clip-path="url(#clip562)" style="fill:#000000; stroke:none; fill-opacity:0" cx="1730.88" cy="1035.39" r="2"/>
<circle clip-path="url(#clip562)" style="fill:#000000; stroke:none; fill-opacity:0" cx="1766.21" cy="1035.39" r="2"/>
<circle clip-path="url(#clip562)" style="fill:#000000; stroke:none; fill-opacity:0" cx="1801.53" cy="1035.39" r="2"/>
<circle clip-path="url(#clip562)" style="fill:#000000; stroke:none; fill-opacity:0" cx="1836.86" cy="851.795" r="2"/>
<path clip-path="url(#clip562)" d="M264.93 117.424 L264.93 1035.39 L300.254 1035.39 L300.254 117.424 L264.93 117.424 L264.93 117.424  Z" fill="#0000ff" fill-rule="evenodd" fill-opacity="0.8"/>
<polyline clip-path="url(#clip562)" style="stroke:#000000; stroke-linecap:round; stroke-linejoin:round; stroke-width:4; stroke-opacity:0.8; fill:none" points="264.93,117.424 264.93,1035.39 300.254,1035.39 300.254,117.424 264.93,117.424 "/>
<path clip-path="url(#clip562)" d="M300.254 668.202 L300.254 1035.39 L335.578 1035.39 L335.578 668.202 L300.254 668.202 L300.254 668.202  Z" fill="#0000ff" fill-rule="evenodd" fill-opacity="0.8"/>
<polyline clip-path="url(#clip562)" style="stroke:#000000; stroke-linecap:round; stroke-linejoin:round; stroke-width:4; stroke-opacity:0.8; fill:none" points="300.254,668.202 300.254,1035.39 335.578,1035.39 335.578,668.202 300.254,668.202 "/>
<path clip-path="url(#clip562)" d="M335.578 668.202 L335.578 1035.39 L370.902 1035.39 L370.902 668.202 L335.578 668.202 L335.578 668.202  Z" fill="#0000ff" fill-rule="evenodd" fill-opacity="0.8"/>
<polyline clip-path="url(#clip562)" style="stroke:#000000; stroke-linecap:round; stroke-linejoin:round; stroke-width:4; stroke-opacity:0.8; fill:none" points="335.578,668.202 335.578,1035.39 370.902,1035.39 370.902,668.202 335.578,668.202 "/>
<path clip-path="url(#clip562)" d="M370.902 668.202 L370.902 1035.39 L406.227 1035.39 L406.227 668.202 L370.902 668.202 L370.902 668.202  Z" fill="#0000ff" fill-rule="evenodd" fill-opacity="0.8"/>
<polyline clip-path="url(#clip562)" style="stroke:#000000; stroke-linecap:round; stroke-linejoin:round; stroke-width:4; stroke-opacity:0.8; fill:none" points="370.902,668.202 370.902,1035.39 406.227,1035.39 406.227,668.202 370.902,668.202 "/>
<path clip-path="url(#clip562)" d="M406.227 1035.39 L406.227 1035.39 L441.551 1035.39 L441.551 1035.39 L406.227 1035.39 L406.227 1035.39  Z" fill="#0000ff" fill-rule="evenodd" fill-opacity="0.8"/>
<polyline clip-path="url(#clip562)" style="stroke:#000000; stroke-linecap:round; stroke-linejoin:round; stroke-width:4; stroke-opacity:0.8; fill:none" points="406.227,1035.39 406.227,1035.39 441.551,1035.39 406.227,1035.39 "/>
<path clip-path="url(#clip562)" d="M441.551 668.202 L441.551 1035.39 L476.875 1035.39 L476.875 668.202 L441.551 668.202 L441.551 668.202  Z" fill="#0000ff" fill-rule="evenodd" fill-opacity="0.8"/>
<polyline clip-path="url(#clip562)" style="stroke:#000000; stroke-linecap:round; stroke-linejoin:round; stroke-width:4; stroke-opacity:0.8; fill:none" points="441.551,668.202 441.551,1035.39 476.875,1035.39 476.875,668.202 441.551,668.202 "/>
<path clip-path="url(#clip562)" d="M476.875 1035.39 L476.875 1035.39 L512.199 1035.39 L512.199 1035.39 L476.875 1035.39 L476.875 1035.39  Z" fill="#0000ff" fill-rule="evenodd" fill-opacity="0.8"/>
<polyline clip-path="url(#clip562)" style="stroke:#000000; stroke-linecap:round; stroke-linejoin:round; stroke-width:4; stroke-opacity:0.8; fill:none" points="476.875,1035.39 476.875,1035.39 512.199,1035.39 476.875,1035.39 "/>
<path clip-path="url(#clip562)" d="M512.199 851.795 L512.199 1035.39 L547.524 1035.39 L547.524 851.795 L512.199 851.795 L512.199 851.795  Z" fill="#0000ff" fill-rule="evenodd" fill-opacity="0.8"/>
<polyline clip-path="url(#clip562)" style="stroke:#000000; stroke-linecap:round; stroke-linejoin:round; stroke-width:4; stroke-opacity:0.8; fill:none" points="512.199,851.795 512.199,1035.39 547.524,1035.39 547.524,851.795 512.199,851.795 "/>
<path clip-path="url(#clip562)" d="M547.524 851.795 L547.524 1035.39 L582.848 1035.39 L582.848 851.795 L547.524 851.795 L547.524 851.795  Z" fill="#0000ff" fill-rule="evenodd" fill-opacity="0.8"/>
<polyline clip-path="url(#clip562)" style="stroke:#000000; stroke-linecap:round; stroke-linejoin:round; stroke-width:4; stroke-opacity:0.8; fill:none" points="547.524,851.795 547.524,1035.39 582.848,1035.39 582.848,851.795 547.524,851.795 "/>
<path clip-path="url(#clip562)" d="M582.848 1035.39 L582.848 1035.39 L618.172 1035.39 L618.172 1035.39 L582.848 1035.39 L582.848 1035.39  Z" fill="#0000ff" fill-rule="evenodd" fill-opacity="0.8"/>
<polyline clip-path="url(#clip562)" style="stroke:#000000; stroke-linecap:round; stroke-linejoin:round; stroke-width:4; stroke-opacity:0.8; fill:none" points="582.848,1035.39 582.848,1035.39 618.172,1035.39 582.848,1035.39 "/>
<path clip-path="url(#clip562)" d="M618.172 1035.39 L618.172 1035.39 L653.496 1035.39 L653.496 1035.39 L618.172 1035.39 L618.172 1035.39  Z" fill="#0000ff" fill-rule="evenodd" fill-opacity="0.8"/>
<polyline clip-path="url(#clip562)" style="stroke:#000000; stroke-linecap:round; stroke-linejoin:round; stroke-width:4; stroke-opacity:0.8; fill:none" points="618.172,1035.39 618.172,1035.39 653.496,1035.39 618.172,1035.39 "/>
<path clip-path="url(#clip562)" d="M653.496 1035.39 L653.496 1035.39 L688.82 1035.39 L688.82 1035.39 L653.496 1035.39 L653.496 1035.39  Z" fill="#0000ff" fill-rule="evenodd" fill-opacity="0.8"/>
<polyline clip-path="url(#clip562)" style="stroke:#000000; stroke-linecap:round; stroke-linejoin:round; stroke-width:4; stroke-opacity:0.8; fill:none" points="653.496,1035.39 653.496,1035.39 688.82,1035.39 653.496,1035.39 "/>
<path clip-path="url(#clip562)" d="M688.82 851.795 L688.82 1035.39 L724.145 1035.39 L724.145 851.795 L688.82 851.795 L688.82 851.795  Z" fill="#0000ff" fill-rule="evenodd" fill-opacity="0.8"/>
<polyline clip-path="url(#clip562)" style="stroke:#000000; stroke-linecap:round; stroke-linejoin:round; stroke-width:4; stroke-opacity:0.8; fill:none" points="688.82,851.795 688.82,1035.39 724.145,1035.39 724.145,851.795 688.82,851.795 "/>
<path clip-path="url(#clip562)" d="M724.145 1035.39 L724.145 1035.39 L759.469 1035.39 L759.469 1035.39 L724.145 1035.39 L724.145 1035.39  Z" fill="#0000ff" fill-rule="evenodd" fill-opacity="0.8"/>
<polyline clip-path="url(#clip562)" style="stroke:#000000; stroke-linecap:round; stroke-linejoin:round; stroke-width:4; stroke-opacity:0.8; fill:none" points="724.145,1035.39 724.145,1035.39 759.469,1035.39 724.145,1035.39 "/>
<path clip-path="url(#clip562)" d="M759.469 851.795 L759.469 1035.39 L794.793 1035.39 L794.793 851.795 L759.469 851.795 L759.469 851.795  Z" fill="#0000ff" fill-rule="evenodd" fill-opacity="0.8"/>
<polyline clip-path="url(#clip562)" style="stroke:#000000; stroke-linecap:round; stroke-linejoin:round; stroke-width:4; stroke-opacity:0.8; fill:none" points="759.469,851.795 759.469,1035.39 794.793,1035.39 794.793,851.795 759.469,851.795 "/>
<path clip-path="url(#clip562)" d="M794.793 851.795 L794.793 1035.39 L830.117 1035.39 L830.117 851.795 L794.793 851.795 L794.793 851.795  Z" fill="#0000ff" fill-rule="evenodd" fill-opacity="0.8"/>
<polyline clip-path="url(#clip562)" style="stroke:#000000; stroke-linecap:round; stroke-linejoin:round; stroke-width:4; stroke-opacity:0.8; fill:none" points="794.793,851.795 794.793,1035.39 830.117,1035.39 830.117,851.795 794.793,851.795 "/>
<path clip-path="url(#clip562)" d="M830.117 1035.39 L830.117 1035.39 L865.441 1035.39 L865.441 1035.39 L830.117 1035.39 L830.117 1035.39  Z" fill="#0000ff" fill-rule="evenodd" fill-opacity="0.8"/>
<polyline clip-path="url(#clip562)" style="stroke:#000000; stroke-linecap:round; stroke-linejoin:round; stroke-width:4; stroke-opacity:0.8; fill:none" points="830.117,1035.39 830.117,1035.39 865.441,1035.39 830.117,1035.39 "/>
<path clip-path="url(#clip562)" d="M865.441 1035.39 L865.441 1035.39 L900.766 1035.39 L900.766 1035.39 L865.441 1035.39 L865.441 1035.39  Z" fill="#0000ff" fill-rule="evenodd" fill-opacity="0.8"/>
<polyline clip-path="url(#clip562)" style="stroke:#000000; stroke-linecap:round; stroke-linejoin:round; stroke-width:4; stroke-opacity:0.8; fill:none" points="865.441,1035.39 865.441,1035.39 900.766,1035.39 865.441,1035.39 "/>
<path clip-path="url(#clip562)" d="M900.766 1035.39 L900.766 1035.39 L936.09 1035.39 L936.09 1035.39 L900.766 1035.39 L900.766 1035.39  Z" fill="#0000ff" fill-rule="evenodd" fill-opacity="0.8"/>
<polyline clip-path="url(#clip562)" style="stroke:#000000; stroke-linecap:round; stroke-linejoin:round; stroke-width:4; stroke-opacity:0.8; fill:none" points="900.766,1035.39 900.766,1035.39 936.09,1035.39 900.766,1035.39 "/>
<path clip-path="url(#clip562)" d="M936.09 1035.39 L936.09 1035.39 L971.414 1035.39 L971.414 1035.39 L936.09 1035.39 L936.09 1035.39  Z" fill="#0000ff" fill-rule="evenodd" fill-opacity="0.8"/>
<polyline clip-path="url(#clip562)" style="stroke:#000000; stroke-linecap:round; stroke-linejoin:round; stroke-width:4; stroke-opacity:0.8; fill:none" points="936.09,1035.39 936.09,1035.39 971.414,1035.39 936.09,1035.39 "/>
<path clip-path="url(#clip562)" d="M971.414 851.795 L971.414 1035.39 L1006.74 1035.39 L1006.74 851.795 L971.414 851.795 L971.414 851.795  Z" fill="#0000ff" fill-rule="evenodd" fill-opacity="0.8"/>
<polyline clip-path="url(#clip562)" style="stroke:#000000; stroke-linecap:round; stroke-linejoin:round; stroke-width:4; stroke-opacity:0.8; fill:none" points="971.414,851.795 971.414,1035.39 1006.74,1035.39 1006.74,851.795 971.414,851.795 "/>
<path clip-path="url(#clip562)" d="M1006.74 1035.39 L1006.74 1035.39 L1042.06 1035.39 L1042.06 1035.39 L1006.74 1035.39 L1006.74 1035.39  Z" fill="#0000ff" fill-rule="evenodd" fill-opacity="0.8"/>
<polyline clip-path="url(#clip562)" style="stroke:#000000; stroke-linecap:round; stroke-linejoin:round; stroke-width:4; stroke-opacity:0.8; fill:none" points="1006.74,1035.39 1006.74,1035.39 1042.06,1035.39 1006.74,1035.39 "/>
<path clip-path="url(#clip562)" d="M1042.06 1035.39 L1042.06 1035.39 L1077.39 1035.39 L1077.39 1035.39 L1042.06 1035.39 L1042.06 1035.39  Z" fill="#0000ff" fill-rule="evenodd" fill-opacity="0.8"/>
<polyline clip-path="url(#clip562)" style="stroke:#000000; stroke-linecap:round; stroke-linejoin:round; stroke-width:4; stroke-opacity:0.8; fill:none" points="1042.06,1035.39 1042.06,1035.39 1077.39,1035.39 1042.06,1035.39 "/>
<path clip-path="url(#clip562)" d="M1077.39 851.795 L1077.39 1035.39 L1112.71 1035.39 L1112.71 851.795 L1077.39 851.795 L1077.39 851.795  Z" fill="#0000ff" fill-rule="evenodd" fill-opacity="0.8"/>
<polyline clip-path="url(#clip562)" style="stroke:#000000; stroke-linecap:round; stroke-linejoin:round; stroke-width:4; stroke-opacity:0.8; fill:none" points="1077.39,851.795 1077.39,1035.39 1112.71,1035.39 1112.71,851.795 1077.39,851.795 "/>
<path clip-path="url(#clip562)" d="M1112.71 1035.39 L1112.71 1035.39 L1148.04 1035.39 L1148.04 1035.39 L1112.71 1035.39 L1112.71 1035.39  Z" fill="#0000ff" fill-rule="evenodd" fill-opacity="0.8"/>
<polyline clip-path="url(#clip562)" style="stroke:#000000; stroke-linecap:round; stroke-linejoin:round; stroke-width:4; stroke-opacity:0.8; fill:none" points="1112.71,1035.39 1112.71,1035.39 1148.04,1035.39 1112.71,1035.39 "/>
<path clip-path="url(#clip562)" d="M1148.04 1035.39 L1148.04 1035.39 L1183.36 1035.39 L1183.36 1035.39 L1148.04 1035.39 L1148.04 1035.39  Z" fill="#0000ff" fill-rule="evenodd" fill-opacity="0.8"/>
<polyline clip-path="url(#clip562)" style="stroke:#000000; stroke-linecap:round; stroke-linejoin:round; stroke-width:4; stroke-opacity:0.8; fill:none" points="1148.04,1035.39 1148.04,1035.39 1183.36,1035.39 1148.04,1035.39 "/>
<path clip-path="url(#clip562)" d="M1183.36 851.795 L1183.36 1035.39 L1218.68 1035.39 L1218.68 851.795 L1183.36 851.795 L1183.36 851.795  Z" fill="#0000ff" fill-rule="evenodd" fill-opacity="0.8"/>
<polyline clip-path="url(#clip562)" style="stroke:#000000; stroke-linecap:round; stroke-linejoin:round; stroke-width:4; stroke-opacity:0.8; fill:none" points="1183.36,851.795 1183.36,1035.39 1218.68,1035.39 1218.68,851.795 1183.36,851.795 "/>
<path clip-path="url(#clip562)" d="M1218.68 851.795 L1218.68 1035.39 L1254.01 1035.39 L1254.01 851.795 L1218.68 851.795 L1218.68 851.795  Z" fill="#0000ff" fill-rule="evenodd" fill-opacity="0.8"/>
<polyline clip-path="url(#clip562)" style="stroke:#000000; stroke-linecap:round; stroke-linejoin:round; stroke-width:4; stroke-opacity:0.8; fill:none" points="1218.68,851.795 1218.68,1035.39 1254.01,1035.39 1254.01,851.795 1218.68,851.795 "/>
<path clip-path="url(#clip562)" d="M1254.01 1035.39 L1254.01 1035.39 L1289.33 1035.39 L1289.33 1035.39 L1254.01 1035.39 L1254.01 1035.39  Z" fill="#0000ff" fill-rule="evenodd" fill-opacity="0.8"/>
<polyline clip-path="url(#clip562)" style="stroke:#000000; stroke-linecap:round; stroke-linejoin:round; stroke-width:4; stroke-opacity:0.8; fill:none" points="1254.01,1035.39 1254.01,1035.39 1289.33,1035.39 1254.01,1035.39 "/>
<path clip-path="url(#clip562)" d="M1289.33 1035.39 L1289.33 1035.39 L1324.66 1035.39 L1324.66 1035.39 L1289.33 1035.39 L1289.33 1035.39  Z" fill="#0000ff" fill-rule="evenodd" fill-opacity="0.8"/>
<polyline clip-path="url(#clip562)" style="stroke:#000000; stroke-linecap:round; stroke-linejoin:round; stroke-width:4; stroke-opacity:0.8; fill:none" points="1289.33,1035.39 1289.33,1035.39 1324.66,1035.39 1289.33,1035.39 "/>
<path clip-path="url(#clip562)" d="M1324.66 1035.39 L1324.66 1035.39 L1359.98 1035.39 L1359.98 1035.39 L1324.66 1035.39 L1324.66 1035.39  Z" fill="#0000ff" fill-rule="evenodd" fill-opacity="0.8"/>
<polyline clip-path="url(#clip562)" style="stroke:#000000; stroke-linecap:round; stroke-linejoin:round; stroke-width:4; stroke-opacity:0.8; fill:none" points="1324.66,1035.39 1324.66,1035.39 1359.98,1035.39 1324.66,1035.39 "/>
<path clip-path="url(#clip562)" d="M1359.98 851.795 L1359.98 1035.39 L1395.3 1035.39 L1395.3 851.795 L1359.98 851.795 L1359.98 851.795  Z" fill="#0000ff" fill-rule="evenodd" fill-opacity="0.8"/>
<polyline clip-path="url(#clip562)" style="stroke:#000000; stroke-linecap:round; stroke-linejoin:round; stroke-width:4; stroke-opacity:0.8; fill:none" points="1359.98,851.795 1359.98,1035.39 1395.3,1035.39 1395.3,851.795 1359.98,851.795 "/>
<path clip-path="url(#clip562)" d="M1395.3 1035.39 L1395.3 1035.39 L1430.63 1035.39 L1430.63 1035.39 L1395.3 1035.39 L1395.3 1035.39  Z" fill="#0000ff" fill-rule="evenodd" fill-opacity="0.8"/>
<polyline clip-path="url(#clip562)" style="stroke:#000000; stroke-linecap:round; stroke-linejoin:round; stroke-width:4; stroke-opacity:0.8; fill:none" points="1395.3,1035.39 1395.3,1035.39 1430.63,1035.39 1395.3,1035.39 "/>
<path clip-path="url(#clip562)" d="M1430.63 1035.39 L1430.63 1035.39 L1465.95 1035.39 L1465.95 1035.39 L1430.63 1035.39 L1430.63 1035.39  Z" fill="#0000ff" fill-rule="evenodd" fill-opacity="0.8"/>
<polyline clip-path="url(#clip562)" style="stroke:#000000; stroke-linecap:round; stroke-linejoin:round; stroke-width:4; stroke-opacity:0.8; fill:none" points="1430.63,1035.39 1430.63,1035.39 1465.95,1035.39 1430.63,1035.39 "/>
<path clip-path="url(#clip562)" d="M1465.95 851.795 L1465.95 1035.39 L1501.28 1035.39 L1501.28 851.795 L1465.95 851.795 L1465.95 851.795  Z" fill="#0000ff" fill-rule="evenodd" fill-opacity="0.8"/>
<polyline clip-path="url(#clip562)" style="stroke:#000000; stroke-linecap:round; stroke-linejoin:round; stroke-width:4; stroke-opacity:0.8; fill:none" points="1465.95,851.795 1465.95,1035.39 1501.28,1035.39 1501.28,851.795 1465.95,851.795 "/>
<path clip-path="url(#clip562)" d="M1501.28 1035.39 L1501.28 1035.39 L1536.6 1035.39 L1536.6 1035.39 L1501.28 1035.39 L1501.28 1035.39  Z" fill="#0000ff" fill-rule="evenodd" fill-opacity="0.8"/>
<polyline clip-path="url(#clip562)" style="stroke:#000000; stroke-linecap:round; stroke-linejoin:round; stroke-width:4; stroke-opacity:0.8; fill:none" points="1501.28,1035.39 1501.28,1035.39 1536.6,1035.39 1501.28,1035.39 "/>
<path clip-path="url(#clip562)" d="M1536.6 1035.39 L1536.6 1035.39 L1571.93 1035.39 L1571.93 1035.39 L1536.6 1035.39 L1536.6 1035.39  Z" fill="#0000ff" fill-rule="evenodd" fill-opacity="0.8"/>
<polyline clip-path="url(#clip562)" style="stroke:#000000; stroke-linecap:round; stroke-linejoin:round; stroke-width:4; stroke-opacity:0.8; fill:none" points="1536.6,1035.39 1536.6,1035.39 1571.93,1035.39 1536.6,1035.39 "/>
<path clip-path="url(#clip562)" d="M1571.93 1035.39 L1571.93 1035.39 L1607.25 1035.39 L1607.25 1035.39 L1571.93 1035.39 L1571.93 1035.39  Z" fill="#0000ff" fill-rule="evenodd" fill-opacity="0.8"/>
<polyline clip-path="url(#clip562)" style="stroke:#000000; stroke-linecap:round; stroke-linejoin:round; stroke-width:4; stroke-opacity:0.8; fill:none" points="1571.93,1035.39 1571.93,1035.39 1607.25,1035.39 1571.93,1035.39 "/>
<path clip-path="url(#clip562)" d="M1607.25 1035.39 L1607.25 1035.39 L1642.57 1035.39 L1642.57 1035.39 L1607.25 1035.39 L1607.25 1035.39  Z" fill="#0000ff" fill-rule="evenodd" fill-opacity="0.8"/>
<polyline clip-path="url(#clip562)" style="stroke:#000000; stroke-linecap:round; stroke-linejoin:round; stroke-width:4; stroke-opacity:0.8; fill:none" points="1607.25,1035.39 1607.25,1035.39 1642.57,1035.39 1607.25,1035.39 "/>
<path clip-path="url(#clip562)" d="M1642.57 1035.39 L1642.57 1035.39 L1677.9 1035.39 L1677.9 1035.39 L1642.57 1035.39 L1642.57 1035.39  Z" fill="#0000ff" fill-rule="evenodd" fill-opacity="0.8"/>
<polyline clip-path="url(#clip562)" style="stroke:#000000; stroke-linecap:round; stroke-linejoin:round; stroke-width:4; stroke-opacity:0.8; fill:none" points="1642.57,1035.39 1642.57,1035.39 1677.9,1035.39 1642.57,1035.39 "/>
<path clip-path="url(#clip562)" d="M1677.9 1035.39 L1677.9 1035.39 L1713.22 1035.39 L1713.22 1035.39 L1677.9 1035.39 L1677.9 1035.39  Z" fill="#0000ff" fill-rule="evenodd" fill-opacity="0.8"/>
<polyline clip-path="url(#clip562)" style="stroke:#000000; stroke-linecap:round; stroke-linejoin:round; stroke-width:4; stroke-opacity:0.8; fill:none" points="1677.9,1035.39 1677.9,1035.39 1713.22,1035.39 1677.9,1035.39 "/>
<path clip-path="url(#clip562)" d="M1713.22 1035.39 L1713.22 1035.39 L1748.55 1035.39 L1748.55 1035.39 L1713.22 1035.39 L1713.22 1035.39  Z" fill="#0000ff" fill-rule="evenodd" fill-opacity="0.8"/>
<polyline clip-path="url(#clip562)" style="stroke:#000000; stroke-linecap:round; stroke-linejoin:round; stroke-width:4; stroke-opacity:0.8; fill:none" points="1713.22,1035.39 1713.22,1035.39 1748.55,1035.39 1713.22,1035.39 "/>
<path clip-path="url(#clip562)" d="M1748.55 1035.39 L1748.55 1035.39 L1783.87 1035.39 L1783.87 1035.39 L1748.55 1035.39 L1748.55 1035.39  Z" fill="#0000ff" fill-rule="evenodd" fill-opacity="0.8"/>
<polyline clip-path="url(#clip562)" style="stroke:#000000; stroke-linecap:round; stroke-linejoin:round; stroke-width:4; stroke-opacity:0.8; fill:none" points="1748.55,1035.39 1748.55,1035.39 1783.87,1035.39 1748.55,1035.39 "/>
<path clip-path="url(#clip562)" d="M1783.87 1035.39 L1783.87 1035.39 L1819.2 1035.39 L1819.2 1035.39 L1783.87 1035.39 L1783.87 1035.39  Z" fill="#0000ff" fill-rule="evenodd" fill-opacity="0.8"/>
<polyline clip-path="url(#clip562)" style="stroke:#000000; stroke-linecap:round; stroke-linejoin:round; stroke-width:4; stroke-opacity:0.8; fill:none" points="1783.87,1035.39 1783.87,1035.39 1819.2,1035.39 1783.87,1035.39 "/>
<path clip-path="url(#clip562)" d="M1819.2 851.795 L1819.2 1035.39 L1854.52 1035.39 L1854.52 851.795 L1819.2 851.795 L1819.2 851.795  Z" fill="#0000ff" fill-rule="evenodd" fill-opacity="0.8"/>
<polyline clip-path="url(#clip562)" style="stroke:#000000; stroke-linecap:round; stroke-linejoin:round; stroke-width:4; stroke-opacity:0.8; fill:none" points="1819.2,851.795 1819.2,1035.39 1854.52,1035.39 1854.52,851.795 1819.2,851.795 "/>
<circle clip-path="url(#clip562)" style="fill:#0000ff; stroke:none; fill-opacity:0" cx="282.592" cy="117.424" r="2"/>
<circle clip-path="url(#clip562)" style="fill:#0000ff; stroke:none; fill-opacity:0" cx="317.916" cy="668.202" r="2"/>
<circle clip-path="url(#clip562)" style="fill:#0000ff; stroke:none; fill-opacity:0" cx="353.24" cy="668.202" r="2"/>
<circle clip-path="url(#clip562)" style="fill:#0000ff; stroke:none; fill-opacity:0" cx="388.565" cy="668.202" r="2"/>
<circle clip-path="url(#clip562)" style="fill:#0000ff; stroke:none; fill-opacity:0" cx="423.889" cy="1035.39" r="2"/>
<circle clip-path="url(#clip562)" style="fill:#0000ff; stroke:none; fill-opacity:0" cx="459.213" cy="668.202" r="2"/>
<circle clip-path="url(#clip562)" style="fill:#0000ff; stroke:none; fill-opacity:0" cx="494.537" cy="1035.39" r="2"/>
<circle clip-path="url(#clip562)" style="fill:#0000ff; stroke:none; fill-opacity:0" cx="529.861" cy="851.795" r="2"/>
<circle clip-path="url(#clip562)" style="fill:#0000ff; stroke:none; fill-opacity:0" cx="565.186" cy="851.795" r="2"/>
<circle clip-path="url(#clip562)" style="fill:#0000ff; stroke:none; fill-opacity:0" cx="600.51" cy="1035.39" r="2"/>
<circle clip-path="url(#clip562)" style="fill:#0000ff; stroke:none; fill-opacity:0" cx="635.834" cy="1035.39" r="2"/>
<circle clip-path="url(#clip562)" style="fill:#0000ff; stroke:none; fill-opacity:0" cx="671.158" cy="1035.39" r="2"/>
<circle clip-path="url(#clip562)" style="fill:#0000ff; stroke:none; fill-opacity:0" cx="706.482" cy="851.795" r="2"/>
<circle clip-path="url(#clip562)" style="fill:#0000ff; stroke:none; fill-opacity:0" cx="741.807" cy="1035.39" r="2"/>
<circle clip-path="url(#clip562)" style="fill:#0000ff; stroke:none; fill-opacity:0" cx="777.131" cy="851.795" r="2"/>
<circle clip-path="url(#clip562)" style="fill:#0000ff; stroke:none; fill-opacity:0" cx="812.455" cy="851.795" r="2"/>
<circle clip-path="url(#clip562)" style="fill:#0000ff; stroke:none; fill-opacity:0" cx="847.779" cy="1035.39" r="2"/>
<circle clip-path="url(#clip562)" style="fill:#0000ff; stroke:none; fill-opacity:0" cx="883.104" cy="1035.39" r="2"/>
<circle clip-path="url(#clip562)" style="fill:#0000ff; stroke:none; fill-opacity:0" cx="918.428" cy="1035.39" r="2"/>
<circle clip-path="url(#clip562)" style="fill:#0000ff; stroke:none; fill-opacity:0" cx="953.752" cy="1035.39" r="2"/>
<circle clip-path="url(#clip562)" style="fill:#0000ff; stroke:none; fill-opacity:0" cx="989.076" cy="851.795" r="2"/>
<circle clip-path="url(#clip562)" style="fill:#0000ff; stroke:none; fill-opacity:0" cx="1024.4" cy="1035.39" r="2"/>
<circle clip-path="url(#clip562)" style="fill:#0000ff; stroke:none; fill-opacity:0" cx="1059.72" cy="1035.39" r="2"/>
<circle clip-path="url(#clip562)" style="fill:#0000ff; stroke:none; fill-opacity:0" cx="1095.05" cy="851.795" r="2"/>
<circle clip-path="url(#clip562)" style="fill:#0000ff; stroke:none; fill-opacity:0" cx="1130.37" cy="1035.39" r="2"/>
<circle clip-path="url(#clip562)" style="fill:#0000ff; stroke:none; fill-opacity:0" cx="1165.7" cy="1035.39" r="2"/>
<circle clip-path="url(#clip562)" style="fill:#0000ff; stroke:none; fill-opacity:0" cx="1201.02" cy="851.795" r="2"/>
<circle clip-path="url(#clip562)" style="fill:#0000ff; stroke:none; fill-opacity:0" cx="1236.35" cy="851.795" r="2"/>
<circle clip-path="url(#clip562)" style="fill:#0000ff; stroke:none; fill-opacity:0" cx="1271.67" cy="1035.39" r="2"/>
<circle clip-path="url(#clip562)" style="fill:#0000ff; stroke:none; fill-opacity:0" cx="1306.99" cy="1035.39" r="2"/>
<circle clip-path="url(#clip562)" style="fill:#0000ff; stroke:none; fill-opacity:0" cx="1342.32" cy="1035.39" r="2"/>
<circle clip-path="url(#clip562)" style="fill:#0000ff; stroke:none; fill-opacity:0" cx="1377.64" cy="851.795" r="2"/>
<circle clip-path="url(#clip562)" style="fill:#0000ff; stroke:none; fill-opacity:0" cx="1412.97" cy="1035.39" r="2"/>
<circle clip-path="url(#clip562)" style="fill:#0000ff; stroke:none; fill-opacity:0" cx="1448.29" cy="1035.39" r="2"/>
<circle clip-path="url(#clip562)" style="fill:#0000ff; stroke:none; fill-opacity:0" cx="1483.62" cy="851.795" r="2"/>
<circle clip-path="url(#clip562)" style="fill:#0000ff; stroke:none; fill-opacity:0" cx="1518.94" cy="1035.39" r="2"/>
<circle clip-path="url(#clip562)" style="fill:#0000ff; stroke:none; fill-opacity:0" cx="1554.26" cy="1035.39" r="2"/>
<circle clip-path="url(#clip562)" style="fill:#0000ff; stroke:none; fill-opacity:0" cx="1589.59" cy="1035.39" r="2"/>
<circle clip-path="url(#clip562)" style="fill:#0000ff; stroke:none; fill-opacity:0" cx="1624.91" cy="1035.39" r="2"/>
<circle clip-path="url(#clip562)" style="fill:#0000ff; stroke:none; fill-opacity:0" cx="1660.24" cy="1035.39" r="2"/>
<circle clip-path="url(#clip562)" style="fill:#0000ff; stroke:none; fill-opacity:0" cx="1695.56" cy="1035.39" r="2"/>
<circle clip-path="url(#clip562)" style="fill:#0000ff; stroke:none; fill-opacity:0" cx="1730.88" cy="1035.39" r="2"/>
<circle clip-path="url(#clip562)" style="fill:#0000ff; stroke:none; fill-opacity:0" cx="1766.21" cy="1035.39" r="2"/>
<circle clip-path="url(#clip562)" style="fill:#0000ff; stroke:none; fill-opacity:0" cx="1801.53" cy="1035.39" r="2"/>
<circle clip-path="url(#clip562)" style="fill:#0000ff; stroke:none; fill-opacity:0" cx="1836.86" cy="851.795" r="2"/>
<path clip-path="url(#clip560)" d="M1517.99 303.543 L1893.22 303.543 L1893.22 148.023 L1517.99 148.023  Z" fill="#ffffff" fill-rule="evenodd" fill-opacity="1"/>
<polyline clip-path="url(#clip560)" style="stroke:#000000; stroke-linecap:round; stroke-linejoin:round; stroke-width:4; stroke-opacity:1; fill:none" points="1517.99,303.543 1893.22,303.543 1893.22,148.023 1517.99,148.023 1517.99,303.543 "/>
<path clip-path="url(#clip560)" d="M1537.84 220.599 L1656.91 220.599 L1656.91 179.127 L1537.84 179.127 L1537.84 220.599  Z" fill="#000000" fill-rule="evenodd" fill-opacity="1"/>
<polyline clip-path="url(#clip560)" style="stroke:#000000; stroke-linecap:round; stroke-linejoin:round; stroke-width:4; stroke-opacity:1; fill:none" points="1537.84,220.599 1656.91,220.599 1656.91,179.127 1537.84,179.127 1537.84,220.599 "/>
<path clip-path="url(#clip560)" d="M1676.76 182.583 L1683.05 182.583 L1698.38 211.495 L1698.38 182.583 L1702.91 182.583 L1702.91 217.143 L1696.62 217.143 L1681.29 188.231 L1681.29 217.143 L1676.76 217.143 L1676.76 182.583 Z" fill="#000000" fill-rule="nonzero" fill-opacity="1" /><path clip-path="url(#clip560)" d="M1722.08 194.203 Q1718.65 194.203 1716.66 196.888 Q1714.67 199.55 1714.67 204.203 Q1714.67 208.856 1716.64 211.541 Q1718.63 214.203 1722.08 214.203 Q1725.48 214.203 1727.47 211.518 Q1729.46 208.833 1729.46 204.203 Q1729.46 199.597 1727.47 196.912 Q1725.48 194.203 1722.08 194.203 M1722.08 190.592 Q1727.64 190.592 1730.81 194.203 Q1733.98 197.814 1733.98 204.203 Q1733.98 210.569 1730.81 214.203 Q1727.64 217.814 1722.08 217.814 Q1716.5 217.814 1713.33 214.203 Q1710.18 210.569 1710.18 204.203 Q1710.18 197.814 1713.33 194.203 Q1716.5 190.592 1722.08 190.592 Z" fill="#000000" fill-rule="nonzero" fill-opacity="1" /><path clip-path="url(#clip560)" d="M1774.76 192.212 L1774.76 196.194 Q1772.96 195.199 1771.13 194.712 Q1769.32 194.203 1767.47 194.203 Q1763.33 194.203 1761.04 196.842 Q1758.75 199.458 1758.75 204.203 Q1758.75 208.949 1761.04 211.587 Q1763.33 214.203 1767.47 214.203 Q1769.32 214.203 1771.13 213.717 Q1772.96 213.208 1774.76 212.212 L1774.76 216.148 Q1772.98 216.981 1771.06 217.398 Q1769.16 217.814 1767.01 217.814 Q1761.15 217.814 1757.7 214.134 Q1754.26 210.453 1754.26 204.203 Q1754.26 197.861 1757.73 194.226 Q1761.22 190.592 1767.29 190.592 Q1769.26 190.592 1771.13 191.009 Q1773.01 191.402 1774.76 192.212 Z" fill="#000000" fill-rule="nonzero" fill-opacity="1" /><path clip-path="url(#clip560)" d="M1781.73 206.911 L1781.73 191.217 L1785.99 191.217 L1785.99 206.749 Q1785.99 210.43 1787.43 212.282 Q1788.86 214.111 1791.73 214.111 Q1795.18 214.111 1797.17 211.911 Q1799.19 209.712 1799.19 205.916 L1799.19 191.217 L1803.45 191.217 L1803.45 217.143 L1799.19 217.143 L1799.19 213.161 Q1797.64 215.523 1795.57 216.68 Q1793.54 217.814 1790.83 217.814 Q1786.36 217.814 1784.05 215.036 Q1781.73 212.259 1781.73 206.911 M1792.45 190.592 L1792.45 190.592 Z" fill="#000000" fill-rule="nonzero" fill-opacity="1" /><path clip-path="url(#clip560)" d="M1816.43 183.856 L1816.43 191.217 L1825.2 191.217 L1825.2 194.527 L1816.43 194.527 L1816.43 208.601 Q1816.43 211.773 1817.29 212.675 Q1818.17 213.578 1820.83 213.578 L1825.2 213.578 L1825.2 217.143 L1820.83 217.143 Q1815.9 217.143 1814.02 215.314 Q1812.15 213.462 1812.15 208.601 L1812.15 194.527 L1809.02 194.527 L1809.02 191.217 L1812.15 191.217 L1812.15 183.856 L1816.43 183.856 Z" fill="#000000" fill-rule="nonzero" fill-opacity="1" /><path clip-path="url(#clip560)" d="M1537.84 272.439 L1656.91 272.439 L1656.91 230.967 L1537.84 230.967 L1537.84 272.439  Z" fill="#0000ff" fill-rule="evenodd" fill-opacity="0.8"/>
<polyline clip-path="url(#clip560)" style="stroke:#000000; stroke-linecap:round; stroke-linejoin:round; stroke-width:4; stroke-opacity:1; fill:none" points="1537.84,272.439 1656.91,272.439 1656.91,230.967 1537.84,230.967 1537.84,272.439 "/>
<path clip-path="url(#clip560)" d="M1704.63 237.085 L1704.63 242.015 Q1702.27 239.816 1699.58 238.728 Q1696.92 237.64 1693.91 237.64 Q1687.98 237.64 1684.83 241.275 Q1681.69 244.886 1681.69 251.738 Q1681.69 258.566 1684.83 262.201 Q1687.98 265.812 1693.91 265.812 Q1696.92 265.812 1699.58 264.724 Q1702.27 263.636 1704.63 261.437 L1704.63 266.321 Q1702.17 267.988 1699.42 268.821 Q1696.69 269.654 1693.63 269.654 Q1685.78 269.654 1681.27 264.863 Q1676.76 260.048 1676.76 251.738 Q1676.76 243.404 1681.27 238.613 Q1685.78 233.798 1693.63 233.798 Q1696.73 233.798 1699.46 234.631 Q1702.22 235.441 1704.63 237.085 Z" fill="#000000" fill-rule="nonzero" fill-opacity="1" /><path clip-path="url(#clip560)" d="M1711.22 258.751 L1711.22 243.057 L1715.48 243.057 L1715.48 258.589 Q1715.48 262.27 1716.92 264.122 Q1718.35 265.951 1721.22 265.951 Q1724.67 265.951 1726.66 263.751 Q1728.68 261.552 1728.68 257.756 L1728.68 243.057 L1732.94 243.057 L1732.94 268.983 L1728.68 268.983 L1728.68 265.001 Q1727.13 267.363 1725.07 268.52 Q1723.03 269.654 1720.32 269.654 Q1715.85 269.654 1713.54 266.876 Q1711.22 264.099 1711.22 258.751 M1721.94 242.432 L1721.94 242.432 Z" fill="#000000" fill-rule="nonzero" fill-opacity="1" /><path clip-path="url(#clip560)" d="M1745.92 235.696 L1745.92 243.057 L1754.7 243.057 L1754.7 246.367 L1745.92 246.367 L1745.92 260.441 Q1745.92 263.613 1746.78 264.515 Q1747.66 265.418 1750.32 265.418 L1754.7 265.418 L1754.7 268.983 L1750.32 268.983 Q1745.39 268.983 1743.51 267.154 Q1741.64 265.302 1741.64 260.441 L1741.64 246.367 L1738.51 246.367 L1738.51 243.057 L1741.64 243.057 L1741.64 235.696 L1745.92 235.696 Z" fill="#000000" fill-rule="nonzero" fill-opacity="1" /><path clip-path="url(#clip560)" d="M1792.43 246.992 L1792.43 232.965 L1796.69 232.965 L1796.69 268.983 L1792.43 268.983 L1792.43 265.094 Q1791.08 267.409 1789.02 268.543 Q1786.99 269.654 1784.12 269.654 Q1779.42 269.654 1776.45 265.904 Q1773.51 262.154 1773.51 256.043 Q1773.51 249.932 1776.45 246.182 Q1779.42 242.432 1784.12 242.432 Q1786.99 242.432 1789.02 243.566 Q1791.08 244.677 1792.43 246.992 M1777.91 256.043 Q1777.91 260.742 1779.83 263.427 Q1781.78 266.089 1785.16 266.089 Q1788.54 266.089 1790.48 263.427 Q1792.43 260.742 1792.43 256.043 Q1792.43 251.344 1790.48 248.682 Q1788.54 245.997 1785.16 245.997 Q1781.78 245.997 1779.83 248.682 Q1777.91 251.344 1777.91 256.043 Z" fill="#000000" fill-rule="nonzero" fill-opacity="1" /><path clip-path="url(#clip560)" d="M1817.24 255.951 Q1812.08 255.951 1810.09 257.131 Q1808.1 258.312 1808.1 261.159 Q1808.1 263.427 1809.58 264.77 Q1811.08 266.089 1813.65 266.089 Q1817.2 266.089 1819.32 263.589 Q1821.48 261.066 1821.48 256.9 L1821.48 255.951 L1817.24 255.951 M1825.74 254.191 L1825.74 268.983 L1821.48 268.983 L1821.48 265.048 Q1820.02 267.409 1817.84 268.543 Q1815.67 269.654 1812.52 269.654 Q1808.54 269.654 1806.18 267.432 Q1803.84 265.187 1803.84 261.437 Q1803.84 257.062 1806.76 254.839 Q1809.7 252.617 1815.51 252.617 L1821.48 252.617 L1821.48 252.201 Q1821.48 249.261 1819.53 247.664 Q1817.61 246.043 1814.12 246.043 Q1811.89 246.043 1809.79 246.576 Q1807.68 247.108 1805.74 248.173 L1805.74 244.238 Q1808.07 243.335 1810.27 242.895 Q1812.47 242.432 1814.56 242.432 Q1820.18 242.432 1822.96 245.349 Q1825.74 248.265 1825.74 254.191 Z" fill="#000000" fill-rule="nonzero" fill-opacity="1" /><path clip-path="url(#clip560)" d="M1838.72 235.696 L1838.72 243.057 L1847.5 243.057 L1847.5 246.367 L1838.72 246.367 L1838.72 260.441 Q1838.72 263.613 1839.58 264.515 Q1840.46 265.418 1843.12 265.418 L1847.5 265.418 L1847.5 268.983 L1843.12 268.983 Q1838.19 268.983 1836.32 267.154 Q1834.44 265.302 1834.44 260.441 L1834.44 246.367 L1831.32 246.367 L1831.32 243.057 L1834.44 243.057 L1834.44 235.696 L1838.72 235.696 Z" fill="#000000" fill-rule="nonzero" fill-opacity="1" /><path clip-path="url(#clip560)" d="M1864.88 255.951 Q1859.72 255.951 1857.73 257.131 Q1855.74 258.312 1855.74 261.159 Q1855.74 263.427 1857.22 264.77 Q1858.72 266.089 1861.29 266.089 Q1864.83 266.089 1866.96 263.589 Q1869.12 261.066 1869.12 256.9 L1869.12 255.951 L1864.88 255.951 M1873.38 254.191 L1873.38 268.983 L1869.12 268.983 L1869.12 265.048 Q1867.66 267.409 1865.48 268.543 Q1863.31 269.654 1860.16 269.654 Q1856.18 269.654 1853.82 267.432 Q1851.48 265.187 1851.48 261.437 Q1851.48 257.062 1854.39 254.839 Q1857.33 252.617 1863.14 252.617 L1869.12 252.617 L1869.12 252.201 Q1869.12 249.261 1867.17 247.664 Q1865.25 246.043 1861.76 246.043 Q1859.53 246.043 1857.43 246.576 Q1855.32 247.108 1853.38 248.173 L1853.38 244.238 Q1855.71 243.335 1857.91 242.895 Q1860.11 242.432 1862.19 242.432 Q1867.82 242.432 1870.6 245.349 Q1873.38 248.265 1873.38 254.191 Z" fill="#000000" fill-rule="nonzero" fill-opacity="1" /></svg>
