<?xml version="1.0" encoding="utf-8"?>
<svg xmlns="http://www.w3.org/2000/svg" xmlns:xlink="http://www.w3.org/1999/xlink" width="500" height="300" viewBox="0 0 2000 1200">
<defs>
  <clipPath id="clip440">
    <rect x="0" y="0" width="2000" height="1200"/>
  </clipPath>
</defs>
<path clip-path="url(#clip440)" d="M0 1200 L2000 1200 L2000 0 L0 0  Z" fill="#ffffff" fill-rule="evenodd" fill-opacity="1"/>
<defs>
  <clipPath id="clip441">
    <rect x="400" y="0" width="1401" height="1200"/>
  </clipPath>
</defs>
<path clip-path="url(#clip440)" d="M223.637 1035.39 L1952.76 1035.39 L1952.76 117.424 L223.637 117.424  Z" fill="#ffffff" fill-rule="evenodd" fill-opacity="1"/>
<defs>
  <clipPath id="clip442">
    <rect x="223" y="117" width="1730" height="919"/>
  </clipPath>
</defs>
<polyline clip-path="url(#clip442)" style="stroke:#000000; stroke-linecap:round; stroke-linejoin:round; stroke-width:2; stroke-opacity:0.1; fill:none" points="266.023,1035.39 266.023,117.424 "/>
<polyline clip-path="url(#clip442)" style="stroke:#000000; stroke-linecap:round; stroke-linejoin:round; stroke-width:2; stroke-opacity:0.1; fill:none" points="593.583,1035.39 593.583,117.424 "/>
<polyline clip-path="url(#clip442)" style="stroke:#000000; stroke-linecap:round; stroke-linejoin:round; stroke-width:2; stroke-opacity:0.1; fill:none" points="921.142,1035.39 921.142,117.424 "/>
<polyline clip-path="url(#clip442)" style="stroke:#000000; stroke-linecap:round; stroke-linejoin:round; stroke-width:2; stroke-opacity:0.1; fill:none" points="1248.7,1035.39 1248.7,117.424 "/>
<polyline clip-path="url(#clip442)" style="stroke:#000000; stroke-linecap:round; stroke-linejoin:round; stroke-width:2; stroke-opacity:0.1; fill:none" points="1576.26,1035.39 1576.26,117.424 "/>
<polyline clip-path="url(#clip442)" style="stroke:#000000; stroke-linecap:round; stroke-linejoin:round; stroke-width:2; stroke-opacity:0.1; fill:none" points="1903.82,1035.39 1903.82,117.424 "/>
<polyline clip-path="url(#clip442)" style="stroke:#000000; stroke-linecap:round; stroke-linejoin:round; stroke-width:2; stroke-opacity:0.1; fill:none" points="223.637,1009.41 1952.76,1009.41 "/>
<polyline clip-path="url(#clip442)" style="stroke:#000000; stroke-linecap:round; stroke-linejoin:round; stroke-width:2; stroke-opacity:0.1; fill:none" points="223.637,746.982 1952.76,746.982 "/>
<polyline clip-path="url(#clip442)" style="stroke:#000000; stroke-linecap:round; stroke-linejoin:round; stroke-width:2; stroke-opacity:0.1; fill:none" points="223.637,484.557 1952.76,484.557 "/>
<polyline clip-path="url(#clip442)" style="stroke:#000000; stroke-linecap:round; stroke-linejoin:round; stroke-width:2; stroke-opacity:0.1; fill:none" points="223.637,222.132 1952.76,222.132 "/>
<polyline clip-path="url(#clip440)" style="stroke:#000000; stroke-linecap:round; stroke-linejoin:round; stroke-width:4; stroke-opacity:1; fill:none" points="223.637,1035.39 1952.76,1035.39 "/>
<polyline clip-path="url(#clip440)" style="stroke:#000000; stroke-linecap:round; stroke-linejoin:round; stroke-width:4; stroke-opacity:1; fill:none" points="266.023,1035.39 266.023,1016.49 "/>
<polyline clip-path="url(#clip440)" style="stroke:#000000; stroke-linecap:round; stroke-linejoin:round; stroke-width:4; stroke-opacity:1; fill:none" points="593.583,1035.39 593.583,1016.49 "/>
<polyline clip-path="url(#clip440)" style="stroke:#000000; stroke-linecap:round; stroke-linejoin:round; stroke-width:4; stroke-opacity:1; fill:none" points="921.142,1035.39 921.142,1016.49 "/>
<polyline clip-path="url(#clip440)" style="stroke:#000000; stroke-linecap:round; stroke-linejoin:round; stroke-width:4; stroke-opacity:1; fill:none" points="1248.7,1035.39 1248.7,1016.49 "/>
<polyline clip-path="url(#clip440)" style="stroke:#000000; stroke-linecap:round; stroke-linejoin:round; stroke-width:4; stroke-opacity:1; fill:none" points="1576.26,1035.39 1576.26,1016.49 "/>
<polyline clip-path="url(#clip440)" style="stroke:#000000; stroke-linecap:round; stroke-linejoin:round; stroke-width:4; stroke-opacity:1; fill:none" points="1903.82,1035.39 1903.82,1016.49 "/>
<path clip-path="url(#clip440)" d="M266.023 1063.11 Q262.412 1063.11 260.584 1066.67 Q258.778 1070.21 258.778 1077.34 Q258.778 1084.45 260.584 1088.01 Q262.412 1091.56 266.023 1091.56 Q269.658 1091.56 271.463 1088.01 Q273.292 1084.45 273.292 1077.34 Q273.292 1070.21 271.463 1066.67 Q269.658 1063.11 266.023 1063.11 M266.023 1059.4 Q271.834 1059.4 274.889 1064.01 Q277.968 1068.59 277.968 1077.34 Q277.968 1086.07 274.889 1090.68 Q271.834 1095.26 266.023 1095.26 Q260.213 1095.26 257.135 1090.68 Q254.079 1086.07 254.079 1077.34 Q254.079 1068.59 257.135 1064.01 Q260.213 1059.4 266.023 1059.4 Z" fill="#000000" fill-rule="nonzero" fill-opacity="1" /><path clip-path="url(#clip440)" d="M568.282 1060.03 L586.638 1060.03 L586.638 1063.96 L572.564 1063.96 L572.564 1072.44 Q573.583 1072.09 574.601 1071.93 Q575.62 1071.74 576.638 1071.74 Q582.425 1071.74 585.805 1074.91 Q589.184 1078.08 589.184 1083.5 Q589.184 1089.08 585.712 1092.18 Q582.24 1095.26 575.921 1095.26 Q573.745 1095.26 571.476 1094.89 Q569.231 1094.52 566.823 1093.78 L566.823 1089.08 Q568.907 1090.21 571.129 1090.77 Q573.351 1091.32 575.828 1091.32 Q579.833 1091.32 582.171 1089.22 Q584.508 1087.11 584.508 1083.5 Q584.508 1079.89 582.171 1077.78 Q579.833 1075.68 575.828 1075.68 Q573.953 1075.68 572.078 1076.09 Q570.226 1076.51 568.282 1077.39 L568.282 1060.03 Z" fill="#000000" fill-rule="nonzero" fill-opacity="1" /><path clip-path="url(#clip440)" d="M608.397 1063.11 Q604.786 1063.11 602.957 1066.67 Q601.152 1070.21 601.152 1077.34 Q601.152 1084.45 602.957 1088.01 Q604.786 1091.56 608.397 1091.56 Q612.031 1091.56 613.837 1088.01 Q615.666 1084.45 615.666 1077.34 Q615.666 1070.21 613.837 1066.67 Q612.031 1063.11 608.397 1063.11 M608.397 1059.4 Q614.207 1059.4 617.263 1064.01 Q620.342 1068.59 620.342 1077.34 Q620.342 1086.07 617.263 1090.68 Q614.207 1095.26 608.397 1095.26 Q602.587 1095.26 599.508 1090.68 Q596.453 1086.07 596.453 1077.34 Q596.453 1068.59 599.508 1064.01 Q602.587 1059.4 608.397 1059.4 Z" fill="#000000" fill-rule="nonzero" fill-opacity="1" /><path clip-path="url(#clip440)" d="M880.748 1090.65 L888.387 1090.65 L888.387 1064.29 L880.077 1065.95 L880.077 1061.69 L888.341 1060.03 L893.017 1060.03 L893.017 1090.65 L900.656 1090.65 L900.656 1094.59 L880.748 1094.59 L880.748 1090.65 Z" fill="#000000" fill-rule="nonzero" fill-opacity="1" /><path clip-path="url(#clip440)" d="M920.1 1063.11 Q916.489 1063.11 914.66 1066.67 Q912.855 1070.21 912.855 1077.34 Q912.855 1084.45 914.66 1088.01 Q916.489 1091.56 920.1 1091.56 Q923.734 1091.56 925.54 1088.01 Q927.368 1084.45 927.368 1077.34 Q927.368 1070.21 925.54 1066.67 Q923.734 1063.11 920.1 1063.11 M920.1 1059.4 Q925.91 1059.4 928.966 1064.01 Q932.044 1068.59 932.044 1077.34 Q932.044 1086.07 928.966 1090.68 Q925.91 1095.26 920.1 1095.26 Q914.29 1095.26 911.211 1090.68 Q908.155 1086.07 908.155 1077.34 Q908.155 1068.59 911.211 1064.01 Q914.29 1059.4 920.1 1059.4 Z" fill="#000000" fill-rule="nonzero" fill-opacity="1" /><path clip-path="url(#clip440)" d="M950.262 1063.11 Q946.651 1063.11 944.822 1066.67 Q943.016 1070.21 943.016 1077.34 Q943.016 1084.45 944.822 1088.01 Q946.651 1091.56 950.262 1091.56 Q953.896 1091.56 955.702 1088.01 Q957.53 1084.45 957.53 1077.34 Q957.53 1070.21 955.702 1066.67 Q953.896 1063.11 950.262 1063.11 M950.262 1059.4 Q956.072 1059.4 959.127 1064.01 Q962.206 1068.59 962.206 1077.34 Q962.206 1086.07 959.127 1090.68 Q956.072 1095.26 950.262 1095.26 Q944.452 1095.26 941.373 1090.68 Q938.317 1086.07 938.317 1077.34 Q938.317 1068.59 941.373 1064.01 Q944.452 1059.4 950.262 1059.4 Z" fill="#000000" fill-rule="nonzero" fill-opacity="1" /><path clip-path="url(#clip440)" d="M1208.31 1090.65 L1215.95 1090.65 L1215.95 1064.29 L1207.64 1065.95 L1207.64 1061.69 L1215.9 1060.03 L1220.58 1060.03 L1220.58 1090.65 L1228.21 1090.65 L1228.21 1094.59 L1208.31 1094.59 L1208.31 1090.65 Z" fill="#000000" fill-rule="nonzero" fill-opacity="1" /><path clip-path="url(#clip440)" d="M1237.71 1060.03 L1256.06 1060.03 L1256.06 1063.96 L1241.99 1063.96 L1241.99 1072.44 Q1243.01 1072.09 1244.02 1071.93 Q1245.04 1071.74 1246.06 1071.74 Q1251.85 1071.74 1255.23 1074.91 Q1258.61 1078.08 1258.61 1083.5 Q1258.61 1089.08 1255.14 1092.18 Q1251.66 1095.26 1245.34 1095.26 Q1243.17 1095.26 1240.9 1094.89 Q1238.65 1094.52 1236.25 1093.78 L1236.25 1089.08 Q1238.33 1090.21 1240.55 1090.77 Q1242.77 1091.32 1245.25 1091.32 Q1249.26 1091.32 1251.59 1089.22 Q1253.93 1087.11 1253.93 1083.5 Q1253.93 1079.89 1251.59 1077.78 Q1249.26 1075.68 1245.25 1075.68 Q1243.38 1075.68 1241.5 1076.09 Q1239.65 1076.51 1237.71 1077.39 L1237.71 1060.03 Z" fill="#000000" fill-rule="nonzero" fill-opacity="1" /><path clip-path="url(#clip440)" d="M1277.82 1063.11 Q1274.21 1063.11 1272.38 1066.67 Q1270.58 1070.21 1270.58 1077.34 Q1270.58 1084.45 1272.38 1088.01 Q1274.21 1091.56 1277.82 1091.56 Q1281.46 1091.56 1283.26 1088.01 Q1285.09 1084.45 1285.09 1077.34 Q1285.09 1070.21 1283.26 1066.67 Q1281.46 1063.11 1277.82 1063.11 M1277.82 1059.4 Q1283.63 1059.4 1286.69 1064.01 Q1289.77 1068.59 1289.77 1077.34 Q1289.77 1086.07 1286.69 1090.68 Q1283.63 1095.26 1277.82 1095.26 Q1272.01 1095.26 1268.93 1090.68 Q1265.88 1086.07 1265.88 1077.34 Q1265.88 1068.59 1268.93 1064.01 Q1272.01 1059.4 1277.82 1059.4 Z" fill="#000000" fill-rule="nonzero" fill-opacity="1" /><path clip-path="url(#clip440)" d="M1539.95 1090.65 L1556.27 1090.65 L1556.27 1094.59 L1534.33 1094.59 L1534.33 1090.65 Q1536.99 1087.9 1541.57 1083.27 Q1546.18 1078.62 1547.36 1077.27 Q1549.6 1074.75 1550.48 1073.01 Q1551.39 1071.25 1551.39 1069.56 Q1551.39 1066.81 1549.44 1065.07 Q1547.52 1063.34 1544.42 1063.34 Q1542.22 1063.34 1539.77 1064.1 Q1537.34 1064.87 1534.56 1066.42 L1534.56 1061.69 Q1537.38 1060.56 1539.84 1059.98 Q1542.29 1059.4 1544.33 1059.4 Q1549.7 1059.4 1552.89 1062.09 Q1556.09 1064.77 1556.09 1069.26 Q1556.09 1071.39 1555.28 1073.31 Q1554.49 1075.21 1552.38 1077.81 Q1551.8 1078.48 1548.7 1081.69 Q1545.6 1084.89 1539.95 1090.65 Z" fill="#000000" fill-rule="nonzero" fill-opacity="1" /><path clip-path="url(#clip440)" d="M1576.09 1063.11 Q1572.47 1063.11 1570.65 1066.67 Q1568.84 1070.21 1568.84 1077.34 Q1568.84 1084.45 1570.65 1088.01 Q1572.47 1091.56 1576.09 1091.56 Q1579.72 1091.56 1581.53 1088.01 Q1583.35 1084.45 1583.35 1077.34 Q1583.35 1070.21 1581.53 1066.67 Q1579.72 1063.11 1576.09 1063.11 M1576.09 1059.4 Q1581.9 1059.4 1584.95 1064.01 Q1588.03 1068.59 1588.03 1077.34 Q1588.03 1086.07 1584.95 1090.68 Q1581.9 1095.26 1576.09 1095.26 Q1570.28 1095.26 1567.2 1090.68 Q1564.14 1086.07 1564.14 1077.34 Q1564.14 1068.59 1567.2 1064.01 Q1570.28 1059.4 1576.09 1059.4 Z" fill="#000000" fill-rule="nonzero" fill-opacity="1" /><path clip-path="url(#clip440)" d="M1606.25 1063.11 Q1602.64 1063.11 1600.81 1066.67 Q1599 1070.21 1599 1077.34 Q1599 1084.45 1600.81 1088.01 Q1602.64 1091.56 1606.25 1091.56 Q1609.88 1091.56 1611.69 1088.01 Q1613.52 1084.45 1613.52 1077.34 Q1613.52 1070.21 1611.69 1066.67 Q1609.88 1063.11 1606.25 1063.11 M1606.25 1059.4 Q1612.06 1059.4 1615.11 1064.01 Q1618.19 1068.59 1618.19 1077.34 Q1618.19 1086.07 1615.11 1090.68 Q1612.06 1095.26 1606.25 1095.26 Q1600.44 1095.26 1597.36 1090.68 Q1594.3 1086.07 1594.3 1077.34 Q1594.3 1068.59 1597.36 1064.01 Q1600.44 1059.4 1606.25 1059.4 Z" fill="#000000" fill-rule="nonzero" fill-opacity="1" /><path clip-path="url(#clip440)" d="M1867.51 1090.65 L1883.83 1090.65 L1883.83 1094.59 L1861.89 1094.59 L1861.89 1090.65 Q1864.55 1087.9 1869.13 1083.27 Q1873.74 1078.62 1874.92 1077.27 Q1877.16 1074.75 1878.04 1073.01 Q1878.95 1071.25 1878.95 1069.56 Q1878.95 1066.81 1877 1065.07 Q1875.08 1063.34 1871.98 1063.34 Q1869.78 1063.34 1867.33 1064.1 Q1864.9 1064.87 1862.12 1066.42 L1862.12 1061.69 Q1864.94 1060.56 1867.4 1059.98 Q1869.85 1059.4 1871.89 1059.4 Q1877.26 1059.4 1880.45 1062.09 Q1883.65 1064.77 1883.65 1069.26 Q1883.65 1071.39 1882.83 1073.31 Q1882.05 1075.21 1879.94 1077.81 Q1879.36 1078.48 1876.26 1081.69 Q1873.16 1084.89 1867.51 1090.65 Z" fill="#000000" fill-rule="nonzero" fill-opacity="1" /><path clip-path="url(#clip440)" d="M1893.69 1060.03 L1912.05 1060.03 L1912.05 1063.96 L1897.97 1063.96 L1897.97 1072.44 Q1898.99 1072.09 1900.01 1071.93 Q1901.03 1071.74 1902.05 1071.74 Q1907.83 1071.74 1911.21 1074.91 Q1914.59 1078.08 1914.59 1083.5 Q1914.59 1089.08 1911.12 1092.18 Q1907.65 1095.26 1901.33 1095.26 Q1899.15 1095.26 1896.89 1094.89 Q1894.64 1094.52 1892.23 1093.78 L1892.23 1089.08 Q1894.32 1090.21 1896.54 1090.77 Q1898.76 1091.32 1901.24 1091.32 Q1905.24 1091.32 1907.58 1089.22 Q1909.92 1087.11 1909.92 1083.5 Q1909.92 1079.89 1907.58 1077.78 Q1905.24 1075.68 1901.24 1075.68 Q1899.36 1075.68 1897.49 1076.09 Q1895.64 1076.51 1893.69 1077.39 L1893.69 1060.03 Z" fill="#000000" fill-rule="nonzero" fill-opacity="1" /><path clip-path="url(#clip440)" d="M1933.81 1063.11 Q1930.2 1063.11 1928.37 1066.67 Q1926.56 1070.21 1926.56 1077.34 Q1926.56 1084.45 1928.37 1088.01 Q1930.2 1091.56 1933.81 1091.56 Q1937.44 1091.56 1939.25 1088.01 Q1941.08 1084.45 1941.08 1077.34 Q1941.08 1070.21 1939.25 1066.67 Q1937.44 1063.11 1933.81 1063.11 M1933.81 1059.4 Q1939.62 1059.4 1942.67 1064.01 Q1945.75 1068.59 1945.75 1077.34 Q1945.75 1086.07 1942.67 1090.68 Q1939.62 1095.26 1933.81 1095.26 Q1928 1095.26 1924.92 1090.68 Q1921.86 1086.07 1921.86 1077.34 Q1921.86 1068.59 1924.92 1064.01 Q1928 1059.4 1933.81 1059.4 Z" fill="#000000" fill-rule="nonzero" fill-opacity="1" /><path clip-path="url(#clip440)" d="M873.831 1126.73 L903.878 1126.73 L903.878 1132.14 L880.261 1132.14 L880.261 1146.21 L902.891 1146.21 L902.891 1151.62 L880.261 1151.62 L880.261 1168.84 L904.451 1168.84 L904.451 1174.25 L873.831 1174.25 L873.831 1126.73 Z" fill="#000000" fill-rule="nonzero" fill-opacity="1" /><path clip-path="url(#clip440)" d="M944.395 1152.74 L944.395 1174.25 L938.539 1174.25 L938.539 1152.93 Q938.539 1147.87 936.565 1145.35 Q934.592 1142.84 930.645 1142.84 Q925.903 1142.84 923.166 1145.86 Q920.428 1148.88 920.428 1154.1 L920.428 1174.25 L914.54 1174.25 L914.54 1138.6 L920.428 1138.6 L920.428 1144.14 Q922.529 1140.93 925.362 1139.34 Q928.226 1137.74 931.95 1137.74 Q938.093 1137.74 941.244 1141.56 Q944.395 1145.35 944.395 1152.74 Z" fill="#000000" fill-rule="nonzero" fill-opacity="1" /><path clip-path="url(#clip440)" d="M986.568 1154.96 L986.568 1157.83 L959.641 1157.83 Q960.023 1163.88 963.27 1167.06 Q966.548 1170.21 972.373 1170.21 Q975.746 1170.21 978.897 1169.38 Q982.08 1168.55 985.199 1166.9 L985.199 1172.44 Q982.048 1173.77 978.738 1174.47 Q975.428 1175.17 972.022 1175.17 Q963.492 1175.17 958.495 1170.21 Q953.53 1165.24 953.53 1156.78 Q953.53 1148.03 958.241 1142.9 Q962.983 1137.74 971.004 1137.74 Q978.197 1137.74 982.367 1142.39 Q986.568 1147.01 986.568 1154.96 M980.712 1153.25 Q980.648 1148.44 978.006 1145.57 Q975.396 1142.71 971.068 1142.71 Q966.166 1142.71 963.206 1145.48 Q960.278 1148.25 959.832 1153.28 L980.712 1153.25 Z" fill="#000000" fill-rule="nonzero" fill-opacity="1" /><path clip-path="url(#clip440)" d="M1016.84 1144.08 Q1015.85 1143.51 1014.67 1143.25 Q1013.53 1142.96 1012.13 1142.96 Q1007.16 1142.96 1004.49 1146.21 Q1001.85 1149.43 1001.85 1155.47 L1001.85 1174.25 L995.958 1174.25 L995.958 1138.6 L1001.85 1138.6 L1001.85 1144.14 Q1003.69 1140.9 1006.65 1139.34 Q1009.61 1137.74 1013.85 1137.74 Q1014.45 1137.74 1015.18 1137.84 Q1015.91 1137.9 1016.81 1138.06 L1016.84 1144.08 Z" fill="#000000" fill-rule="nonzero" fill-opacity="1" /><path clip-path="url(#clip440)" d="M1045.29 1156.01 Q1045.29 1149.65 1042.65 1146.15 Q1040.04 1142.65 1035.3 1142.65 Q1030.59 1142.65 1027.95 1146.15 Q1025.34 1149.65 1025.34 1156.01 Q1025.34 1162.35 1027.95 1165.85 Q1030.59 1169.35 1035.3 1169.35 Q1040.04 1169.35 1042.65 1165.85 Q1045.29 1162.35 1045.29 1156.01 M1051.15 1169.83 Q1051.15 1178.93 1047.11 1183.35 Q1043.06 1187.81 1034.72 1187.81 Q1031.64 1187.81 1028.9 1187.33 Q1026.16 1186.89 1023.58 1185.93 L1023.58 1180.24 Q1026.16 1181.64 1028.68 1182.3 Q1031.19 1182.97 1033.8 1182.97 Q1039.56 1182.97 1042.43 1179.95 Q1045.29 1176.96 1045.29 1170.88 L1045.29 1167.98 Q1043.48 1171.13 1040.64 1172.69 Q1037.81 1174.25 1033.87 1174.25 Q1027.31 1174.25 1023.3 1169.25 Q1019.29 1164.26 1019.29 1156.01 Q1019.29 1147.74 1023.3 1142.74 Q1027.31 1137.74 1033.87 1137.74 Q1037.81 1137.74 1040.64 1139.3 Q1043.48 1140.86 1045.29 1144.01 L1045.29 1138.6 L1051.15 1138.6 L1051.15 1169.83 Z" fill="#000000" fill-rule="nonzero" fill-opacity="1" /><path clip-path="url(#clip440)" d="M1078.04 1177.56 Q1075.56 1183.93 1073.21 1185.87 Q1070.85 1187.81 1066.9 1187.81 L1062.22 1187.81 L1062.22 1182.91 L1065.66 1182.91 Q1068.08 1182.91 1069.42 1181.76 Q1070.75 1180.62 1072.38 1176.35 L1073.43 1173.68 L1059.01 1138.6 L1065.22 1138.6 L1076.36 1166.49 L1087.5 1138.6 L1093.7 1138.6 L1078.04 1177.56 Z" fill="#000000" fill-rule="nonzero" fill-opacity="1" /><path clip-path="url(#clip440)" d="M1136.58 1124.79 Q1132.31 1132.11 1130.24 1139.27 Q1128.17 1146.43 1128.17 1153.79 Q1128.17 1161.14 1130.24 1168.36 Q1132.34 1175.56 1136.58 1182.85 L1131.48 1182.85 Q1126.71 1175.37 1124.32 1168.14 Q1121.97 1160.92 1121.97 1153.79 Q1121.97 1146.69 1124.32 1139.5 Q1126.68 1132.3 1131.48 1124.79 L1136.58 1124.79 Z" fill="#000000" fill-rule="nonzero" fill-opacity="1" /><path clip-path="url(#clip440)" d="M1148.19 1126.73 L1157.77 1126.73 L1169.9 1159.07 L1182.09 1126.73 L1191.67 1126.73 L1191.67 1174.25 L1185.4 1174.25 L1185.4 1132.52 L1173.15 1165.12 L1166.69 1165.12 L1154.43 1132.52 L1154.43 1174.25 L1148.19 1174.25 L1148.19 1126.73 Z" fill="#000000" fill-rule="nonzero" fill-opacity="1" /><path clip-path="url(#clip440)" d="M1234.67 1154.96 L1234.67 1157.83 L1207.74 1157.83 Q1208.13 1163.88 1211.37 1167.06 Q1214.65 1170.21 1220.48 1170.21 Q1223.85 1170.21 1227 1169.38 Q1230.18 1168.55 1233.3 1166.9 L1233.3 1172.44 Q1230.15 1173.77 1226.84 1174.47 Q1223.53 1175.17 1220.13 1175.17 Q1211.6 1175.17 1206.6 1170.21 Q1201.63 1165.24 1201.63 1156.78 Q1201.63 1148.03 1206.34 1142.9 Q1211.09 1137.74 1219.11 1137.74 Q1226.3 1137.74 1230.47 1142.39 Q1234.67 1147.01 1234.67 1154.96 M1228.82 1153.25 Q1228.75 1148.44 1226.11 1145.57 Q1223.5 1142.71 1219.17 1142.71 Q1214.27 1142.71 1211.31 1145.48 Q1208.38 1148.25 1207.94 1153.28 L1228.82 1153.25 Z" fill="#000000" fill-rule="nonzero" fill-opacity="1" /><path clip-path="url(#clip440)" d="M1256.79 1174.25 L1238.65 1126.73 L1245.37 1126.73 L1260.42 1166.74 L1275.51 1126.73 L1282.19 1126.73 L1264.08 1174.25 L1256.79 1174.25 Z" fill="#000000" fill-rule="nonzero" fill-opacity="1" /><path clip-path="url(#clip440)" d="M1287.95 1124.79 L1293.05 1124.79 Q1297.82 1132.3 1300.17 1139.5 Q1302.56 1146.69 1302.56 1153.79 Q1302.56 1160.92 1300.17 1168.14 Q1297.82 1175.37 1293.05 1182.85 L1287.95 1182.85 Q1292.19 1175.56 1294.25 1168.36 Q1296.36 1161.14 1296.36 1153.79 Q1296.36 1146.43 1294.25 1139.27 Q1292.19 1132.11 1287.95 1124.79 Z" fill="#000000" fill-rule="nonzero" fill-opacity="1" /><polyline clip-path="url(#clip440)" style="stroke:#000000; stroke-linecap:round; stroke-linejoin:round; stroke-width:4; stroke-opacity:1; fill:none" points="223.637,1035.39 223.637,117.424 "/>
<polyline clip-path="url(#clip440)" style="stroke:#000000; stroke-linecap:round; stroke-linejoin:round; stroke-width:4; stroke-opacity:1; fill:none" points="223.637,1009.41 242.535,1009.41 "/>
<polyline clip-path="url(#clip440)" style="stroke:#000000; stroke-linecap:round; stroke-linejoin:round; stroke-width:4; stroke-opacity:1; fill:none" points="223.637,746.982 242.535,746.982 "/>
<polyline clip-path="url(#clip440)" style="stroke:#000000; stroke-linecap:round; stroke-linejoin:round; stroke-width:4; stroke-opacity:1; fill:none" points="223.637,484.557 242.535,484.557 "/>
<polyline clip-path="url(#clip440)" style="stroke:#000000; stroke-linecap:round; stroke-linejoin:round; stroke-width:4; stroke-opacity:1; fill:none" points="223.637,222.132 242.535,222.132 "/>
<path clip-path="url(#clip440)" d="M181.693 995.206 Q178.082 995.206 176.253 998.771 Q174.448 1002.31 174.448 1009.44 Q174.448 1016.55 176.253 1020.11 Q178.082 1023.66 181.693 1023.66 Q185.327 1023.66 187.133 1020.11 Q188.961 1016.55 188.961 1009.44 Q188.961 1002.31 187.133 998.771 Q185.327 995.206 181.693 995.206 M181.693 991.503 Q187.503 991.503 190.559 996.109 Q193.637 1000.69 193.637 1009.44 Q193.637 1018.17 190.559 1022.78 Q187.503 1027.36 181.693 1027.36 Q175.883 1027.36 172.804 1022.78 Q169.749 1018.17 169.749 1009.44 Q169.749 1000.69 172.804 996.109 Q175.883 991.503 181.693 991.503 Z" fill="#000000" fill-rule="nonzero" fill-opacity="1" /><path clip-path="url(#clip440)" d="M141.577 729.702 L159.934 729.702 L159.934 733.638 L145.86 733.638 L145.86 742.11 Q146.878 741.763 147.897 741.601 Q148.915 741.415 149.934 741.415 Q155.721 741.415 159.1 744.587 Q162.48 747.758 162.48 753.175 Q162.48 758.753 159.008 761.855 Q155.536 764.934 149.216 764.934 Q147.04 764.934 144.772 764.563 Q142.527 764.193 140.119 763.452 L140.119 758.753 Q142.202 759.887 144.425 760.443 Q146.647 760.999 149.124 760.999 Q153.128 760.999 155.466 758.892 Q157.804 756.786 157.804 753.175 Q157.804 749.563 155.466 747.457 Q153.128 745.35 149.124 745.35 Q147.249 745.35 145.374 745.767 Q143.522 746.184 141.577 747.063 L141.577 729.702 Z" fill="#000000" fill-rule="nonzero" fill-opacity="1" /><path clip-path="url(#clip440)" d="M181.693 732.781 Q178.082 732.781 176.253 736.346 Q174.448 739.888 174.448 747.017 Q174.448 754.124 176.253 757.688 Q178.082 761.23 181.693 761.23 Q185.327 761.23 187.133 757.688 Q188.961 754.124 188.961 747.017 Q188.961 739.888 187.133 736.346 Q185.327 732.781 181.693 732.781 M181.693 729.077 Q187.503 729.077 190.559 733.684 Q193.637 738.267 193.637 747.017 Q193.637 755.744 190.559 760.35 Q187.503 764.934 181.693 764.934 Q175.883 764.934 172.804 760.35 Q169.749 755.744 169.749 747.017 Q169.749 738.267 172.804 733.684 Q175.883 729.077 181.693 729.077 Z" fill="#000000" fill-rule="nonzero" fill-opacity="1" /><path clip-path="url(#clip440)" d="M112.179 497.902 L119.818 497.902 L119.818 471.536 L111.508 473.203 L111.508 468.944 L119.772 467.277 L124.448 467.277 L124.448 497.902 L132.087 497.902 L132.087 501.837 L112.179 501.837 L112.179 497.902 Z" fill="#000000" fill-rule="nonzero" fill-opacity="1" /><path clip-path="url(#clip440)" d="M151.531 470.356 Q147.92 470.356 146.091 473.921 Q144.286 477.462 144.286 484.592 Q144.286 491.698 146.091 495.263 Q147.92 498.805 151.531 498.805 Q155.165 498.805 156.971 495.263 Q158.8 491.698 158.8 484.592 Q158.8 477.462 156.971 473.921 Q155.165 470.356 151.531 470.356 M151.531 466.652 Q157.341 466.652 160.397 471.259 Q163.475 475.842 163.475 484.592 Q163.475 493.319 160.397 497.925 Q157.341 502.508 151.531 502.508 Q145.721 502.508 142.642 497.925 Q139.587 493.319 139.587 484.592 Q139.587 475.842 142.642 471.259 Q145.721 466.652 151.531 466.652 Z" fill="#000000" fill-rule="nonzero" fill-opacity="1" /><path clip-path="url(#clip440)" d="M181.693 470.356 Q178.082 470.356 176.253 473.921 Q174.448 477.462 174.448 484.592 Q174.448 491.698 176.253 495.263 Q178.082 498.805 181.693 498.805 Q185.327 498.805 187.133 495.263 Q188.961 491.698 188.961 484.592 Q188.961 477.462 187.133 473.921 Q185.327 470.356 181.693 470.356 M181.693 466.652 Q187.503 466.652 190.559 471.259 Q193.637 475.842 193.637 484.592 Q193.637 493.319 190.559 497.925 Q187.503 502.508 181.693 502.508 Q175.883 502.508 172.804 497.925 Q169.749 493.319 169.749 484.592 Q169.749 475.842 172.804 471.259 Q175.883 466.652 181.693 466.652 Z" fill="#000000" fill-rule="nonzero" fill-opacity="1" /><path clip-path="url(#clip440)" d="M112.179 235.477 L119.818 235.477 L119.818 209.111 L111.508 210.778 L111.508 206.518 L119.772 204.852 L124.448 204.852 L124.448 235.477 L132.087 235.477 L132.087 239.412 L112.179 239.412 L112.179 235.477 Z" fill="#000000" fill-rule="nonzero" fill-opacity="1" /><path clip-path="url(#clip440)" d="M141.577 204.852 L159.934 204.852 L159.934 208.787 L145.86 208.787 L145.86 217.259 Q146.878 216.912 147.897 216.75 Q148.915 216.565 149.934 216.565 Q155.721 216.565 159.1 219.736 Q162.48 222.907 162.48 228.324 Q162.48 233.903 159.008 237.004 Q155.536 240.083 149.216 240.083 Q147.04 240.083 144.772 239.713 Q142.527 239.342 140.119 238.602 L140.119 233.903 Q142.202 235.037 144.425 235.592 Q146.647 236.148 149.124 236.148 Q153.128 236.148 155.466 234.041 Q157.804 231.935 157.804 228.324 Q157.804 224.713 155.466 222.606 Q153.128 220.5 149.124 220.5 Q147.249 220.5 145.374 220.917 Q143.522 221.333 141.577 222.213 L141.577 204.852 Z" fill="#000000" fill-rule="nonzero" fill-opacity="1" /><path clip-path="url(#clip440)" d="M181.693 207.931 Q178.082 207.931 176.253 211.495 Q174.448 215.037 174.448 222.167 Q174.448 229.273 176.253 232.838 Q178.082 236.379 181.693 236.379 Q185.327 236.379 187.133 232.838 Q188.961 229.273 188.961 222.167 Q188.961 215.037 187.133 211.495 Q185.327 207.931 181.693 207.931 M181.693 204.227 Q187.503 204.227 190.559 208.833 Q193.637 213.417 193.637 222.167 Q193.637 230.893 190.559 235.5 Q187.503 240.083 181.693 240.083 Q175.883 240.083 172.804 235.5 Q169.749 230.893 169.749 222.167 Q169.749 213.417 172.804 208.833 Q175.883 204.227 181.693 204.227 Z" fill="#000000" fill-rule="nonzero" fill-opacity="1" /><path clip-path="url(#clip440)" d="M23.3924 648.434 L30.1719 648.434 Q27.1482 651.68 25.6523 655.373 Q24.1563 659.033 24.1563 663.171 Q24.1563 671.319 29.1534 675.647 Q34.1187 679.976 43.5399 679.976 Q52.9293 679.976 57.9264 675.647 Q62.8916 671.319 62.8916 663.171 Q62.8916 659.033 61.3957 655.373 Q59.8998 651.68 56.8761 648.434 L63.5919 648.434 Q65.8835 651.808 67.0294 655.595 Q68.1752 659.351 68.1752 663.553 Q68.1752 674.342 61.5867 680.549 Q54.9663 686.756 43.5399 686.756 Q32.0816 686.756 25.4931 680.549 Q18.8728 674.342 18.8728 663.553 Q18.8728 659.287 20.0186 655.532 Q21.1326 651.744 23.3924 648.434 Z" fill="#000000" fill-rule="nonzero" fill-opacity="1" /><path clip-path="url(#clip440)" d="M35.7101 624.944 Q35.7101 629.655 39.4022 632.392 Q43.0625 635.13 49.46 635.13 Q55.8575 635.13 59.5497 632.424 Q63.2099 629.687 63.2099 624.944 Q63.2099 620.266 59.5178 617.528 Q55.8257 614.791 49.46 614.791 Q43.1261 614.791 39.434 617.528 Q35.7101 620.266 35.7101 624.944 M30.7448 624.944 Q30.7448 617.306 35.7101 612.945 Q40.6753 608.585 49.46 608.585 Q58.2129 608.585 63.2099 612.945 Q68.1752 617.306 68.1752 624.944 Q68.1752 632.615 63.2099 636.976 Q58.2129 641.304 49.46 641.304 Q40.6753 641.304 35.7101 636.976 Q30.7448 632.615 30.7448 624.944 Z" fill="#000000" fill-rule="nonzero" fill-opacity="1" /><path clip-path="url(#clip440)" d="M53.1839 599.482 L31.6042 599.482 L31.6042 593.625 L52.9611 593.625 Q58.0219 593.625 60.5682 591.652 Q63.0826 589.678 63.0826 585.732 Q63.0826 580.989 60.0589 578.252 Q57.0352 575.483 51.8153 575.483 L31.6042 575.483 L31.6042 569.627 L67.2522 569.627 L67.2522 575.483 L61.7776 575.483 Q65.0242 577.615 66.6156 580.448 Q68.1752 583.249 68.1752 586.973 Q68.1752 593.116 64.3558 596.299 Q60.5363 599.482 53.1839 599.482 M30.7448 584.745 L30.7448 584.745 Z" fill="#000000" fill-rule="nonzero" fill-opacity="1" /><path clip-path="url(#clip440)" d="M45.7361 527.931 L67.2522 527.931 L67.2522 533.788 L45.927 533.788 Q40.8663 533.788 38.3518 535.761 Q35.8374 537.734 35.8374 541.681 Q35.8374 546.424 38.8611 549.161 Q41.8848 551.898 47.1047 551.898 L67.2522 551.898 L67.2522 557.786 L31.6042 557.786 L31.6042 551.898 L37.1424 551.898 Q33.9277 549.797 32.3363 546.965 Q30.7448 544.1 30.7448 540.376 Q30.7448 534.233 34.5643 531.082 Q38.3518 527.931 45.7361 527.931 Z" fill="#000000" fill-rule="nonzero" fill-opacity="1" /><path clip-path="url(#clip440)" d="M21.4827 510.457 L31.6042 510.457 L31.6042 498.394 L36.1557 498.394 L36.1557 510.457 L55.5074 510.457 Q59.8679 510.457 61.1093 509.28 Q62.3506 508.07 62.3506 504.41 L62.3506 498.394 L67.2522 498.394 L67.2522 504.41 Q67.2522 511.189 64.7377 513.767 Q62.1914 516.346 55.5074 516.346 L36.1557 516.346 L36.1557 520.642 L31.6042 520.642 L31.6042 516.346 L21.4827 516.346 L21.4827 510.457 Z" fill="#000000" fill-rule="nonzero" fill-opacity="1" /><path clip-path="url(#clip440)" d="M32.6545 467.966 L38.1927 467.966 Q36.9196 470.449 36.283 473.122 Q35.6464 475.796 35.6464 478.661 Q35.6464 483.021 36.9832 485.217 Q38.32 487.382 40.9936 487.382 Q43.0306 487.382 44.2083 485.822 Q45.3541 484.262 46.4045 479.552 L46.8501 477.547 Q48.1869 471.308 50.6377 468.698 Q53.0566 466.056 57.4171 466.056 Q62.3824 466.056 65.2788 470.003 Q68.1752 473.918 68.1752 480.793 Q68.1752 483.658 67.6023 486.777 Q67.0612 489.864 65.9472 493.302 L59.8998 493.302 Q61.5867 490.055 62.446 486.904 Q63.2736 483.753 63.2736 480.666 Q63.2736 476.528 61.8731 474.3 Q60.4409 472.072 57.8627 472.072 Q55.4756 472.072 54.2025 473.695 Q52.9293 475.287 51.7517 480.729 L51.2742 482.766 Q50.1284 488.209 47.7731 490.628 Q45.386 493.047 41.2482 493.047 Q36.2193 493.047 33.4821 489.482 Q30.7448 485.917 30.7448 479.361 Q30.7448 476.114 31.2223 473.25 Q31.6997 470.385 32.6545 467.966 Z" fill="#000000" fill-rule="nonzero" fill-opacity="1" /><path clip-path="url(#clip440)" d="M714.683 12.096 L725.701 12.096 L752.518 62.6918 L752.518 12.096 L760.458 12.096 L760.458 72.576 L749.44 72.576 L722.623 21.9802 L722.623 72.576 L714.683 72.576 L714.683 12.096 Z" fill="#000000" fill-rule="nonzero" fill-opacity="1" /><path clip-path="url(#clip440)" d="M815.226 48.0275 L815.226 51.6733 L780.956 51.6733 Q781.442 59.3701 785.574 63.421 Q789.746 67.4314 797.159 67.4314 Q801.453 67.4314 805.464 66.3781 Q809.515 65.3249 813.485 63.2184 L813.485 70.267 Q809.474 71.9684 805.261 72.8596 Q801.048 73.7508 796.714 73.7508 Q785.857 73.7508 779.497 67.4314 Q773.178 61.1119 773.178 50.3365 Q773.178 39.1965 779.173 32.6746 Q785.209 26.1121 795.418 26.1121 Q804.573 26.1121 809.879 32.0264 Q815.226 37.9003 815.226 48.0275 M807.773 45.84 Q807.692 39.7232 804.33 36.0774 Q801.008 32.4315 795.499 32.4315 Q789.26 32.4315 785.493 35.9558 Q781.766 39.4801 781.199 45.8805 L807.773 45.84 Z" fill="#000000" fill-rule="nonzero" fill-opacity="1" /><path clip-path="url(#clip440)" d="M826.691 54.671 L826.691 27.2059 L834.144 27.2059 L834.144 54.3874 Q834.144 60.8284 836.656 64.0691 Q839.167 67.2693 844.19 67.2693 Q850.226 67.2693 853.71 63.421 Q857.234 59.5726 857.234 52.9291 L857.234 27.2059 L864.688 27.2059 L864.688 72.576 L857.234 72.576 L857.234 65.6084 Q854.52 69.7404 850.915 71.7658 Q847.35 73.7508 842.611 73.7508 Q834.792 73.7508 830.741 68.8897 Q826.691 64.0286 826.691 54.671 M845.446 26.1121 L845.446 26.1121 Z" fill="#000000" fill-rule="nonzero" fill-opacity="1" /><path clip-path="url(#clip440)" d="M887.414 14.324 L887.414 27.2059 L902.766 27.2059 L902.766 32.9987 L887.414 32.9987 L887.414 57.6282 Q887.414 63.1779 888.912 64.7578 Q890.452 66.3376 895.11 66.3376 L902.766 66.3376 L902.766 72.576 L895.11 72.576 Q886.482 72.576 883.201 69.3758 Q879.919 66.1351 879.919 57.6282 L879.919 32.9987 L874.451 32.9987 L874.451 27.2059 L879.919 27.2059 L879.919 14.324 L887.414 14.324 Z" fill="#000000" fill-rule="nonzero" fill-opacity="1" /><path clip-path="url(#clip440)" d="M938.86 34.1734 Q937.604 33.4443 936.105 33.1202 Q934.647 32.7556 932.865 32.7556 Q926.545 32.7556 923.143 36.8875 Q919.78 40.9789 919.78 48.6757 L919.78 72.576 L912.286 72.576 L912.286 27.2059 L919.78 27.2059 L919.78 34.2544 Q922.13 30.1225 925.897 28.1376 Q929.664 26.1121 935.052 26.1121 Q935.822 26.1121 936.754 26.2337 Q937.685 26.3147 938.82 26.5172 L938.86 34.1734 Z" fill="#000000" fill-rule="nonzero" fill-opacity="1" /><path clip-path="url(#clip440)" d="M962.436 32.4315 Q956.441 32.4315 952.957 37.1306 Q949.473 41.7891 949.473 49.9314 Q949.473 58.0738 952.917 62.7728 Q956.4 67.4314 962.436 67.4314 Q968.391 67.4314 971.875 62.7323 Q975.359 58.0333 975.359 49.9314 Q975.359 41.8701 971.875 37.1711 Q968.391 32.4315 962.436 32.4315 M962.436 26.1121 Q972.158 26.1121 977.708 32.4315 Q983.258 38.7509 983.258 49.9314 Q983.258 61.0714 977.708 67.4314 Q972.158 73.7508 962.436 73.7508 Q952.674 73.7508 947.124 67.4314 Q941.615 61.0714 941.615 49.9314 Q941.615 38.7509 947.124 32.4315 Q952.674 26.1121 962.436 26.1121 Z" fill="#000000" fill-rule="nonzero" fill-opacity="1" /><path clip-path="url(#clip440)" d="M1033.33 45.1919 L1033.33 72.576 L1025.87 72.576 L1025.87 45.4349 Q1025.87 38.994 1023.36 35.7938 Q1020.85 32.5936 1015.83 32.5936 Q1009.79 32.5936 1006.31 36.4419 Q1002.82 40.2903 1002.82 46.9338 L1002.82 72.576 L995.33 72.576 L995.33 27.2059 L1002.82 27.2059 L1002.82 34.2544 Q1005.5 30.163 1009.1 28.1376 Q1012.75 26.1121 1017.49 26.1121 Q1025.31 26.1121 1029.32 30.9732 Q1033.33 35.7938 1033.33 45.1919 Z" fill="#000000" fill-rule="nonzero" fill-opacity="1" /><path clip-path="url(#clip440)" d="M1111.14 14.0809 L1111.14 22.0612 Q1106.49 19.8332 1102.35 18.7395 Q1098.22 17.6457 1094.37 17.6457 Q1087.69 17.6457 1084.04 20.2383 Q1080.44 22.8309 1080.44 27.611 Q1080.44 31.6214 1082.83 33.6873 Q1085.26 35.7128 1091.98 36.9686 L1096.93 37.9813 Q1106.08 39.7232 1110.42 44.1387 Q1114.79 48.5136 1114.79 55.8863 Q1114.79 64.6767 1108.88 69.2137 Q1103 73.7508 1091.62 73.7508 Q1087.33 73.7508 1082.46 72.7785 Q1077.64 71.8063 1072.46 69.9024 L1072.46 61.4765 Q1077.44 64.2716 1082.22 65.6895 Q1087 67.1073 1091.62 67.1073 Q1098.63 67.1073 1102.44 64.3527 Q1106.24 61.598 1106.24 56.4939 Q1106.24 52.0379 1103.49 49.5264 Q1100.77 47.0148 1094.54 45.759 L1089.55 44.7868 Q1080.4 42.9639 1076.31 39.075 Q1072.22 35.1862 1072.22 28.2591 Q1072.22 20.2383 1077.85 15.6203 Q1083.52 11.0023 1093.44 11.0023 Q1097.7 11.0023 1102.11 11.7719 Q1106.53 12.5416 1111.14 14.0809 Z" fill="#000000" fill-rule="nonzero" fill-opacity="1" /><path clip-path="url(#clip440)" d="M1134.44 65.7705 L1134.44 89.8329 L1126.94 89.8329 L1126.94 27.2059 L1134.44 27.2059 L1134.44 34.0924 Q1136.79 30.0415 1140.35 28.0971 Q1143.96 26.1121 1148.94 26.1121 Q1157.2 26.1121 1162.35 32.6746 Q1167.53 39.2371 1167.53 49.9314 Q1167.53 60.6258 1162.35 67.1883 Q1157.2 73.7508 1148.94 73.7508 Q1143.96 73.7508 1140.35 71.8063 Q1136.79 69.8214 1134.44 65.7705 M1159.8 49.9314 Q1159.8 41.7081 1156.39 37.0496 Q1153.03 32.3505 1147.12 32.3505 Q1141.2 32.3505 1137.8 37.0496 Q1134.44 41.7081 1134.44 49.9314 Q1134.44 58.1548 1137.8 62.8538 Q1141.2 67.5124 1147.12 67.5124 Q1153.03 67.5124 1156.39 62.8538 Q1159.8 58.1548 1159.8 49.9314 Z" fill="#000000" fill-rule="nonzero" fill-opacity="1" /><path clip-path="url(#clip440)" d="M1218.7 48.0275 L1218.7 51.6733 L1184.43 51.6733 Q1184.91 59.3701 1189.04 63.421 Q1193.22 67.4314 1200.63 67.4314 Q1204.92 67.4314 1208.93 66.3781 Q1212.98 65.3249 1216.95 63.2184 L1216.95 70.267 Q1212.94 71.9684 1208.73 72.8596 Q1204.52 73.7508 1200.18 73.7508 Q1189.33 73.7508 1182.97 67.4314 Q1176.65 61.1119 1176.65 50.3365 Q1176.65 39.1965 1182.64 32.6746 Q1188.68 26.1121 1198.89 26.1121 Q1208.04 26.1121 1213.35 32.0264 Q1218.7 37.9003 1218.7 48.0275 M1211.24 45.84 Q1211.16 39.7232 1207.8 36.0774 Q1204.48 32.4315 1198.97 32.4315 Q1192.73 32.4315 1188.96 35.9558 Q1185.24 39.4801 1184.67 45.8805 L1211.24 45.84 Z" fill="#000000" fill-rule="nonzero" fill-opacity="1" /><path clip-path="url(#clip440)" d="M1263.58 28.9478 L1263.58 35.9153 Q1260.42 34.1734 1257.22 33.3227 Q1254.06 32.4315 1250.82 32.4315 Q1243.57 32.4315 1239.56 37.0496 Q1235.55 41.6271 1235.55 49.9314 Q1235.55 58.2358 1239.56 62.8538 Q1243.57 67.4314 1250.82 67.4314 Q1254.06 67.4314 1257.22 66.5807 Q1260.42 65.6895 1263.58 63.9476 L1263.58 70.8341 Q1260.46 72.2924 1257.1 73.0216 Q1253.78 73.7508 1250.01 73.7508 Q1239.76 73.7508 1233.73 67.3098 Q1227.69 60.8689 1227.69 49.9314 Q1227.69 38.832 1233.77 32.472 Q1239.88 26.1121 1250.5 26.1121 Q1253.94 26.1121 1257.22 26.8413 Q1260.5 27.5299 1263.58 28.9478 Z" fill="#000000" fill-rule="nonzero" fill-opacity="1" /><path clip-path="url(#clip440)" d="M1283.92 14.324 L1283.92 27.2059 L1299.27 27.2059 L1299.27 32.9987 L1283.92 32.9987 L1283.92 57.6282 Q1283.92 63.1779 1285.41 64.7578 Q1286.95 66.3376 1291.61 66.3376 L1299.27 66.3376 L1299.27 72.576 L1291.61 72.576 Q1282.98 72.576 1279.7 69.3758 Q1276.42 66.1351 1276.42 57.6282 L1276.42 32.9987 L1270.95 32.9987 L1270.95 27.2059 L1276.42 27.2059 L1276.42 14.324 L1283.92 14.324 Z" fill="#000000" fill-rule="nonzero" fill-opacity="1" /><path clip-path="url(#clip440)" d="M1335.36 34.1734 Q1334.11 33.4443 1332.61 33.1202 Q1331.15 32.7556 1329.37 32.7556 Q1323.05 32.7556 1319.65 36.8875 Q1316.28 40.9789 1316.28 48.6757 L1316.28 72.576 L1308.79 72.576 L1308.79 27.2059 L1316.28 27.2059 L1316.28 34.2544 Q1318.63 30.1225 1322.4 28.1376 Q1326.17 26.1121 1331.55 26.1121 Q1332.32 26.1121 1333.26 26.2337 Q1334.19 26.3147 1335.32 26.5172 L1335.36 34.1734 Z" fill="#000000" fill-rule="nonzero" fill-opacity="1" /><path clip-path="url(#clip440)" d="M1342.41 54.671 L1342.41 27.2059 L1349.86 27.2059 L1349.86 54.3874 Q1349.86 60.8284 1352.38 64.0691 Q1354.89 67.2693 1359.91 67.2693 Q1365.95 67.2693 1369.43 63.421 Q1372.95 59.5726 1372.95 52.9291 L1372.95 27.2059 L1380.41 27.2059 L1380.41 72.576 L1372.95 72.576 L1372.95 65.6084 Q1370.24 69.7404 1366.64 71.7658 Q1363.07 73.7508 1358.33 73.7508 Q1350.51 73.7508 1346.46 68.8897 Q1342.41 64.0286 1342.41 54.671 M1361.17 26.1121 L1361.17 26.1121 Z" fill="#000000" fill-rule="nonzero" fill-opacity="1" /><path clip-path="url(#clip440)" d="M1431.09 35.9153 Q1433.88 30.8922 1437.77 28.5022 Q1441.66 26.1121 1446.92 26.1121 Q1454.01 26.1121 1457.86 31.0947 Q1461.71 36.0368 1461.71 45.1919 L1461.71 72.576 L1454.22 72.576 L1454.22 45.4349 Q1454.22 38.913 1451.91 35.7533 Q1449.6 32.5936 1444.86 32.5936 Q1439.07 32.5936 1435.7 36.4419 Q1432.34 40.2903 1432.34 46.9338 L1432.34 72.576 L1424.85 72.576 L1424.85 45.4349 Q1424.85 38.8725 1422.54 35.7533 Q1420.23 32.5936 1415.41 32.5936 Q1409.7 32.5936 1406.33 36.4824 Q1402.97 40.3308 1402.97 46.9338 L1402.97 72.576 L1395.48 72.576 L1395.48 27.2059 L1402.97 27.2059 L1402.97 34.2544 Q1405.52 30.082 1409.09 28.0971 Q1412.65 26.1121 1417.56 26.1121 Q1422.5 26.1121 1425.94 28.6237 Q1429.42 31.1352 1431.09 35.9153 Z" fill="#000000" fill-rule="nonzero" fill-opacity="1" /><polyline clip-path="url(#clip442)" style="stroke:#000000; stroke-linecap:round; stroke-linejoin:round; stroke-width:4; stroke-opacity:1; fill:none" points="272.575,1009.41 272.575,206.386 279.126,206.386 279.126,143.404 285.677,143.404 285.677,432.072 292.228,432.072 292.228,547.539 298.779,547.539 298.779,725.988 305.331,725.988 311.882,725.988 311.882,657.758 318.433,657.758 318.433,762.728 324.984,762.728 324.984,736.485 331.535,736.485 331.535,689.249 338.086,689.249 338.086,799.467 344.638,799.467 344.638,689.249 351.189,689.249 351.189,720.74 357.74,720.74 357.74,736.485 364.291,736.485 364.291,794.219 370.842,794.219 370.842,689.249 377.394,689.249 377.394,767.976 383.945,767.976 383.945,762.728 390.496,762.728 390.496,804.716 397.047,804.716 397.047,746.982 403.598,746.982 403.598,773.225 410.149,773.225 410.149,757.479 416.701,757.479 416.701,773.225 423.252,773.225 423.252,741.734 429.803,741.734 429.803,731.237 436.354,731.237 436.354,757.479 442.905,757.479 442.905,773.225 449.457,773.225 449.457,731.237 456.008,731.237 456.008,773.225 462.559,773.225 462.559,731.237 469.11,731.237 469.11,815.213 475.661,815.213 475.661,746.982 482.212,746.982 482.212,862.45 488.764,862.45 488.764,799.467 495.315,799.467 495.315,815.213 501.866,815.213 501.866,804.716 508.417,804.716 508.417,815.213 514.968,815.213 514.968,809.965 521.52,809.965 521.52,888.692 528.071,888.692 528.071,825.71 534.622,825.71 534.622,783.722 541.173,783.722 541.173,773.225 547.724,773.225 554.275,773.225 554.275,809.965 560.827,809.965 560.827,867.698 567.378,867.698 567.378,794.219 573.929,794.219 573.929,825.71 580.48,825.71 580.48,815.213 587.031,815.213 587.031,820.462 593.583,820.462 593.583,825.71 600.134,825.71 600.134,783.722 606.685,783.722 606.685,825.71 613.236,825.71 613.236,830.959 619.787,830.959 619.787,820.462 626.338,820.462 626.338,799.467 632.89,799.467 632.89,820.462 639.441,820.462 639.441,872.947 645.992,872.947 645.992,862.45 652.543,862.45 652.543,878.195 659.094,878.195 659.094,841.456 665.645,841.456 665.645,815.213 672.197,815.213 672.197,857.201 678.748,857.201 685.299,857.201 685.299,909.686 691.85,909.686 691.85,825.71 698.401,825.71 698.401,846.704 704.953,846.704 711.504,846.704 711.504,867.698 718.055,867.698 718.055,888.692 724.606,888.692 724.606,841.456 731.157,841.456 731.157,867.698 737.708,867.698 737.708,815.213 744.26,815.213 744.26,888.692 750.811,888.692 750.811,862.45 757.362,862.45 757.362,904.438 763.913,904.438 763.913,857.201 770.464,857.201 770.464,909.686 777.016,909.686 777.016,867.698 783.567,867.698 783.567,872.947 790.118,872.947 796.669,872.947 796.669,878.195 803.22,878.195 803.22,867.698 809.771,867.698 809.771,888.692 816.323,888.692 822.874,888.692 822.874,867.698 829.425,867.698 829.425,935.929 835.976,935.929 835.976,914.935 842.527,914.935 842.527,888.692 849.079,888.692 849.079,872.947 855.63,872.947 855.63,935.929 862.181,935.929 862.181,909.686 868.732,909.686 868.732,867.698 875.283,867.698 875.283,925.432 881.834,925.432 881.834,914.935 888.386,914.935 888.386,888.692 894.937,888.692 894.937,920.183 901.488,920.183 901.488,930.68 908.039,930.68 908.039,893.941 914.59,893.941 914.59,899.189 921.142,899.189 921.142,920.183 927.693,920.183 927.693,878.195 934.244,878.195 934.244,914.935 940.795,914.935 940.795,888.692 947.346,888.692 953.897,888.692 953.897,914.935 960.449,914.935 960.449,909.686 967,909.686 967,893.941 973.551,893.941 973.551,904.438 980.102,904.438 980.102,909.686 986.653,909.686 986.653,914.935 993.205,914.935 993.205,920.183 999.756,920.183 999.756,914.935 1006.31,914.935 1006.31,909.686 1012.86,909.686 1012.86,956.923 1019.41,956.923 1019.41,920.183 1025.96,920.183 1025.96,893.941 1032.51,893.941 1032.51,920.183 1039.06,920.183 1039.06,935.929 1045.61,935.929 1045.61,951.674 1052.17,951.674 1052.17,899.189 1058.72,899.189 1065.27,899.189 1065.27,914.935 1071.82,914.935 1071.82,941.177 1078.37,941.177 1078.37,935.929 1084.92,935.929 1084.92,893.941 1091.47,893.941 1091.47,941.177 1098.02,941.177 1104.57,941.177 1104.57,935.929 1111.13,935.929 1111.13,909.686 1117.68,909.686 1124.23,909.686 1124.23,920.183 1130.78,920.183 1137.33,920.183 1137.33,935.929 1143.88,935.929 1143.88,956.923 1150.43,956.923 1150.43,914.935 1156.98,914.935 1156.98,883.444 1163.54,883.444 1163.54,941.177 1170.09,941.177 1170.09,946.426 1176.64,946.426 1176.64,920.183 1183.19,920.183 1183.19,930.68 1189.74,930.68 1189.74,941.177 1196.29,941.177 1196.29,935.929 1202.84,935.929 1202.84,899.189 1209.39,899.189 1209.39,956.923 1215.94,956.923 1215.94,935.929 1222.5,935.929 1222.5,941.177 1229.05,941.177 1235.6,941.177 1235.6,930.68 1242.15,930.68 1242.15,946.426 1248.7,946.426 1248.7,941.177 1255.25,941.177 1255.25,930.68 1261.8,930.68 1261.8,946.426 1268.35,946.426 1268.35,983.165 1274.91,983.165 1274.91,946.426 1281.46,946.426 1281.46,941.177 1288.01,941.177 1288.01,935.929 1294.56,935.929 1294.56,972.668 1301.11,972.668 1301.11,956.923 1307.66,956.923 1307.66,951.674 1314.21,951.674 1314.21,941.177 1320.76,941.177 1320.76,930.68 1327.31,930.68 1327.31,951.674 1333.87,951.674 1340.42,951.674 1340.42,972.668 1346.97,972.668 1346.97,967.42 1353.52,967.42 1353.52,914.935 1360.07,914.935 1360.07,935.929 1366.62,935.929 1366.62,967.42 1373.17,967.42 1373.17,920.183 1379.72,920.183 1379.72,946.426 1386.28,946.426 1386.28,935.929 1392.83,935.929 1392.83,956.923 1399.38,956.923 1399.38,914.935 1405.93,914.935 1405.93,946.426 1412.48,946.426 1412.48,920.183 1419.03,920.183 1419.03,946.426 1425.58,946.426 1425.58,930.68 1432.13,930.68 1432.13,967.42 1438.68,967.42 1438.68,972.668 1445.24,972.668 1445.24,962.171 1451.79,962.171 1451.79,951.674 1458.34,951.674 1458.34,962.171 1464.89,962.171 1464.89,941.177 1471.44,941.177 1471.44,946.426 1477.99,946.426 1477.99,941.177 1484.54,941.177 1484.54,935.929 1491.09,935.929 1491.09,983.165 1497.65,983.165 1497.65,972.668 1504.2,972.668 1504.2,930.68 1510.75,930.68 1510.75,962.171 1517.3,962.171 1517.3,935.929 1523.85,935.929 1523.85,941.177 1530.4,941.177 1530.4,935.929 1536.95,935.929 1536.95,972.668 1543.5,972.668 1543.5,946.426 1550.05,946.426 1550.05,951.674 1556.61,951.674 1563.16,951.674 1569.71,951.674 1569.71,977.917 1576.26,977.917 1576.26,967.42 1582.81,967.42 1589.36,967.42 1589.36,930.68 1595.91,930.68 1595.91,941.177 1602.46,941.177 1602.46,993.662 1609.02,993.662 1609.02,946.426 1615.57,946.426 1615.57,972.668 1622.12,972.668 1622.12,977.917 1628.67,977.917 1628.67,967.42 1635.22,967.42 1635.22,983.165 1641.77,983.165 1641.77,946.426 1648.32,946.426 1648.32,977.917 1654.87,977.917 1654.87,967.42 1661.42,967.42 1661.42,962.171 1667.98,962.171 1667.98,972.668 1674.53,972.668 1674.53,962.171 1681.08,962.171 1681.08,956.923 1687.63,956.923 1687.63,983.165 1694.18,983.165 1694.18,956.923 1700.73,956.923 1700.73,962.171 1707.28,962.171 1707.28,977.917 1713.83,977.917 1713.83,983.165 1720.39,983.165 1720.39,977.917 1726.94,977.917 1733.49,977.917 1733.49,988.414 1740.04,988.414 1740.04,972.668 1746.59,972.668 1746.59,983.165 1753.14,983.165 1753.14,988.414 1759.69,988.414 1759.69,946.426 1766.24,946.426 1766.24,972.668 1772.79,972.668 1772.79,956.923 1779.35,956.923 1779.35,977.917 1785.9,977.917 1785.9,962.171 1792.45,962.171 1792.45,998.911 1799,998.911 1799,993.662 1805.55,993.662 1805.55,983.165 1812.1,983.165 1812.1,998.911 1818.65,998.911 1825.2,998.911 1825.2,935.929 1831.76,935.929 1831.76,977.917 1838.31,977.917 1838.31,988.414 1844.86,988.414 1844.86,998.911 1851.41,998.911 1851.41,988.414 1857.96,988.414 1857.96,977.917 1864.51,977.917 1864.51,988.414 1871.06,988.414 1871.06,1004.16 1877.61,1004.16 1877.61,993.662 1884.17,993.662 1884.17,1004.16 1890.72,1004.16 1890.72,998.911 1897.27,998.911 1897.27,977.917 1903.82,977.917 1903.82,1009.41 "/>
<path clip-path="url(#clip440)" d="M1573.76 251.703 L1895.12 251.703 L1895.12 148.023 L1573.76 148.023  Z" fill="#ffffff" fill-rule="evenodd" fill-opacity="1"/>
<polyline clip-path="url(#clip440)" style="stroke:#000000; stroke-linecap:round; stroke-linejoin:round; stroke-width:4; stroke-opacity:1; fill:none" points="1573.76,251.703 1895.12,251.703 1895.12,148.023 1573.76,148.023 1573.76,251.703 "/>
<polyline clip-path="url(#clip440)" style="stroke:#000000; stroke-linecap:round; stroke-linejoin:round; stroke-width:4; stroke-opacity:1; fill:none" points="1592.97,199.863 1708.25,199.863 "/>
<path clip-path="url(#clip440)" d="M1727.46 182.583 L1733.75 182.583 L1749.08 211.495 L1749.08 182.583 L1753.62 182.583 L1753.62 217.143 L1747.32 217.143 L1731.99 188.231 L1731.99 217.143 L1727.46 217.143 L1727.46 182.583 Z" fill="#000000" fill-rule="nonzero" fill-opacity="1" /><path clip-path="url(#clip440)" d="M1772.78 194.203 Q1769.36 194.203 1767.37 196.888 Q1765.37 199.55 1765.37 204.203 Q1765.37 208.856 1767.34 211.541 Q1769.33 214.203 1772.78 214.203 Q1776.18 214.203 1778.18 211.518 Q1780.17 208.833 1780.17 204.203 Q1780.17 199.597 1778.18 196.912 Q1776.18 194.203 1772.78 194.203 M1772.78 190.592 Q1778.34 190.592 1781.51 194.203 Q1784.68 197.814 1784.68 204.203 Q1784.68 210.569 1781.51 214.203 Q1778.34 217.814 1772.78 217.814 Q1767.2 217.814 1764.03 214.203 Q1760.88 210.569 1760.88 204.203 Q1760.88 197.814 1764.03 194.203 Q1767.2 190.592 1772.78 190.592 Z" fill="#000000" fill-rule="nonzero" fill-opacity="1" /><path clip-path="url(#clip440)" d="M1825.47 192.212 L1825.47 196.194 Q1823.66 195.199 1821.83 194.712 Q1820.03 194.203 1818.18 194.203 Q1814.03 194.203 1811.74 196.842 Q1809.45 199.458 1809.45 204.203 Q1809.45 208.949 1811.74 211.587 Q1814.03 214.203 1818.18 214.203 Q1820.03 214.203 1821.83 213.717 Q1823.66 213.208 1825.47 212.212 L1825.47 216.148 Q1823.68 216.981 1821.76 217.398 Q1819.86 217.814 1817.71 217.814 Q1811.86 217.814 1808.41 214.134 Q1804.96 210.453 1804.96 204.203 Q1804.96 197.861 1808.43 194.226 Q1811.93 190.592 1817.99 190.592 Q1819.96 190.592 1821.83 191.009 Q1823.71 191.402 1825.47 192.212 Z" fill="#000000" fill-rule="nonzero" fill-opacity="1" /><path clip-path="url(#clip440)" d="M1832.43 206.911 L1832.43 191.217 L1836.69 191.217 L1836.69 206.749 Q1836.69 210.43 1838.13 212.282 Q1839.56 214.111 1842.43 214.111 Q1845.88 214.111 1847.87 211.911 Q1849.89 209.712 1849.89 205.916 L1849.89 191.217 L1854.15 191.217 L1854.15 217.143 L1849.89 217.143 L1849.89 213.161 Q1848.34 215.523 1846.28 216.68 Q1844.24 217.814 1841.53 217.814 Q1837.06 217.814 1834.75 215.036 Q1832.43 212.259 1832.43 206.911 M1843.15 190.592 L1843.15 190.592 Z" fill="#000000" fill-rule="nonzero" fill-opacity="1" /><path clip-path="url(#clip440)" d="M1867.13 183.856 L1867.13 191.217 L1875.91 191.217 L1875.91 194.527 L1867.13 194.527 L1867.13 208.601 Q1867.13 211.773 1867.99 212.675 Q1868.87 213.578 1871.53 213.578 L1875.91 213.578 L1875.91 217.143 L1871.53 217.143 Q1866.6 217.143 1864.73 215.314 Q1862.85 213.462 1862.85 208.601 L1862.85 194.527 L1859.73 194.527 L1859.73 191.217 L1862.85 191.217 L1862.85 183.856 L1867.13 183.856 Z" fill="#000000" fill-rule="nonzero" fill-opacity="1" /></svg>
