<?xml version="1.0" encoding="utf-8"?>
<svg xmlns="http://www.w3.org/2000/svg" xmlns:xlink="http://www.w3.org/1999/xlink" width="600" height="400" viewBox="0 0 2400 1600">
<defs>
  <clipPath id="clip370">
    <rect x="0" y="0" width="2400" height="1600"/>
  </clipPath>
</defs>
<path clip-path="url(#clip370)" d="M0 1600 L2400 1600 L2400 0 L0 0  Z" fill="#ffffff" fill-rule="evenodd" fill-opacity="1"/>
<defs>
  <clipPath id="clip371">
    <rect x="480" y="0" width="1681" height="1600"/>
  </clipPath>
</defs>
<path clip-path="url(#clip370)" d="M203.964 1423.18 L2352.76 1423.18 L2352.76 123.472 L203.964 123.472  Z" fill="#ffffff" fill-rule="evenodd" fill-opacity="1"/>
<defs>
  <clipPath id="clip372">
    <rect x="203" y="123" width="2150" height="1301"/>
  </clipPath>
</defs>
<polyline clip-path="url(#clip372)" style="stroke:#000000; stroke-linecap:round; stroke-linejoin:round; stroke-width:2; stroke-opacity:0.1; fill:none" points="322.151,1423.18 322.151,123.472 "/>
<polyline clip-path="url(#clip372)" style="stroke:#000000; stroke-linecap:round; stroke-linejoin:round; stroke-width:2; stroke-opacity:0.1; fill:none" points="951.236,1423.18 951.236,123.472 "/>
<polyline clip-path="url(#clip372)" style="stroke:#000000; stroke-linecap:round; stroke-linejoin:round; stroke-width:2; stroke-opacity:0.1; fill:none" points="1580.32,1423.18 1580.32,123.472 "/>
<polyline clip-path="url(#clip372)" style="stroke:#000000; stroke-linecap:round; stroke-linejoin:round; stroke-width:2; stroke-opacity:0.1; fill:none" points="2209.41,1423.18 2209.41,123.472 "/>
<polyline clip-path="url(#clip372)" style="stroke:#000000; stroke-linecap:round; stroke-linejoin:round; stroke-width:2; stroke-opacity:0.1; fill:none" points="203.964,1423.18 2352.76,1423.18 "/>
<polyline clip-path="url(#clip372)" style="stroke:#000000; stroke-linecap:round; stroke-linejoin:round; stroke-width:2; stroke-opacity:0.1; fill:none" points="203.964,1081.15 2352.76,1081.15 "/>
<polyline clip-path="url(#clip372)" style="stroke:#000000; stroke-linecap:round; stroke-linejoin:round; stroke-width:2; stroke-opacity:0.1; fill:none" points="203.964,739.123 2352.76,739.123 "/>
<polyline clip-path="url(#clip372)" style="stroke:#000000; stroke-linecap:round; stroke-linejoin:round; stroke-width:2; stroke-opacity:0.1; fill:none" points="203.964,397.095 2352.76,397.095 "/>
<polyline clip-path="url(#clip370)" style="stroke:#000000; stroke-linecap:round; stroke-linejoin:round; stroke-width:4; stroke-opacity:1; fill:none" points="203.964,1423.18 2352.76,1423.18 "/>
<polyline clip-path="url(#clip370)" style="stroke:#000000; stroke-linecap:round; stroke-linejoin:round; stroke-width:4; stroke-opacity:1; fill:none" points="322.151,1423.18 322.151,1404.28 "/>
<polyline clip-path="url(#clip370)" style="stroke:#000000; stroke-linecap:round; stroke-linejoin:round; stroke-width:4; stroke-opacity:1; fill:none" points="951.236,1423.18 951.236,1404.28 "/>
<polyline clip-path="url(#clip370)" style="stroke:#000000; stroke-linecap:round; stroke-linejoin:round; stroke-width:4; stroke-opacity:1; fill:none" points="1580.32,1423.18 1580.32,1404.28 "/>
<polyline clip-path="url(#clip370)" style="stroke:#000000; stroke-linecap:round; stroke-linejoin:round; stroke-width:4; stroke-opacity:1; fill:none" points="2209.41,1423.18 2209.41,1404.28 "/>
<path clip-path="url(#clip370)" d="M322.151 1454.1 Q318.54 1454.1 316.711 1457.66 Q314.906 1461.2 314.906 1468.33 Q314.906 1475.44 316.711 1479.01 Q318.54 1482.55 322.151 1482.55 Q325.785 1482.55 327.591 1479.01 Q329.419 1475.44 329.419 1468.33 Q329.419 1461.2 327.591 1457.66 Q325.785 1454.1 322.151 1454.1 M322.151 1450.39 Q327.961 1450.39 331.017 1455 Q334.095 1459.58 334.095 1468.33 Q334.095 1477.06 331.017 1481.67 Q327.961 1486.25 322.151 1486.25 Q316.341 1486.25 313.262 1481.67 Q310.207 1477.06 310.207 1468.33 Q310.207 1459.58 313.262 1455 Q316.341 1450.39 322.151 1450.39 Z" fill="#000000" fill-rule="nonzero" fill-opacity="1" /><path clip-path="url(#clip370)" d="M925.935 1451.02 L944.291 1451.02 L944.291 1454.96 L930.217 1454.96 L930.217 1463.43 Q931.236 1463.08 932.254 1462.92 Q933.273 1462.73 934.291 1462.73 Q940.078 1462.73 943.458 1465.9 Q946.838 1469.08 946.838 1474.49 Q946.838 1480.07 943.365 1483.17 Q939.893 1486.25 933.574 1486.25 Q931.398 1486.25 929.129 1485.88 Q926.884 1485.51 924.477 1484.77 L924.477 1480.07 Q926.56 1481.2 928.782 1481.76 Q931.004 1482.32 933.481 1482.32 Q937.486 1482.32 939.824 1480.21 Q942.162 1478.1 942.162 1474.49 Q942.162 1470.88 939.824 1468.77 Q937.486 1466.67 933.481 1466.67 Q931.606 1466.67 929.731 1467.08 Q927.879 1467.5 925.935 1468.38 L925.935 1451.02 Z" fill="#000000" fill-rule="nonzero" fill-opacity="1" /><path clip-path="url(#clip370)" d="M966.05 1454.1 Q962.439 1454.1 960.611 1457.66 Q958.805 1461.2 958.805 1468.33 Q958.805 1475.44 960.611 1479.01 Q962.439 1482.55 966.05 1482.55 Q969.685 1482.55 971.49 1479.01 Q973.319 1475.44 973.319 1468.33 Q973.319 1461.2 971.49 1457.66 Q969.685 1454.1 966.05 1454.1 M966.05 1450.39 Q971.861 1450.39 974.916 1455 Q977.995 1459.58 977.995 1468.33 Q977.995 1477.06 974.916 1481.67 Q971.861 1486.25 966.05 1486.25 Q960.24 1486.25 957.162 1481.67 Q954.106 1477.06 954.106 1468.33 Q954.106 1459.58 957.162 1455 Q960.24 1450.39 966.05 1450.39 Z" fill="#000000" fill-rule="nonzero" fill-opacity="1" /><path clip-path="url(#clip370)" d="M1539.93 1481.64 L1547.57 1481.64 L1547.57 1455.28 L1539.26 1456.95 L1539.26 1452.69 L1547.52 1451.02 L1552.2 1451.02 L1552.2 1481.64 L1559.83 1481.64 L1559.83 1485.58 L1539.93 1485.58 L1539.93 1481.64 Z" fill="#000000" fill-rule="nonzero" fill-opacity="1" /><path clip-path="url(#clip370)" d="M1579.28 1454.1 Q1575.67 1454.1 1573.84 1457.66 Q1572.03 1461.2 1572.03 1468.33 Q1572.03 1475.44 1573.84 1479.01 Q1575.67 1482.55 1579.28 1482.55 Q1582.91 1482.55 1584.72 1479.01 Q1586.55 1475.44 1586.55 1468.33 Q1586.55 1461.2 1584.72 1457.66 Q1582.91 1454.1 1579.28 1454.1 M1579.28 1450.39 Q1585.09 1450.39 1588.14 1455 Q1591.22 1459.58 1591.22 1468.33 Q1591.22 1477.06 1588.14 1481.67 Q1585.09 1486.25 1579.28 1486.25 Q1573.47 1486.25 1570.39 1481.67 Q1567.33 1477.06 1567.33 1468.33 Q1567.33 1459.58 1570.39 1455 Q1573.47 1450.39 1579.28 1450.39 Z" fill="#000000" fill-rule="nonzero" fill-opacity="1" /><path clip-path="url(#clip370)" d="M1609.44 1454.1 Q1605.83 1454.1 1604 1457.66 Q1602.2 1461.2 1602.2 1468.33 Q1602.2 1475.44 1604 1479.01 Q1605.83 1482.55 1609.44 1482.55 Q1613.07 1482.55 1614.88 1479.01 Q1616.71 1475.44 1616.71 1468.33 Q1616.71 1461.2 1614.88 1457.66 Q1613.07 1454.1 1609.44 1454.1 M1609.44 1450.39 Q1615.25 1450.39 1618.31 1455 Q1621.38 1459.58 1621.38 1468.33 Q1621.38 1477.06 1618.31 1481.67 Q1615.25 1486.25 1609.44 1486.25 Q1603.63 1486.25 1600.55 1481.67 Q1597.5 1477.06 1597.5 1468.33 Q1597.5 1459.58 1600.55 1455 Q1603.63 1450.39 1609.44 1450.39 Z" fill="#000000" fill-rule="nonzero" fill-opacity="1" /><path clip-path="url(#clip370)" d="M2169.01 1481.64 L2176.65 1481.64 L2176.65 1455.28 L2168.34 1456.95 L2168.34 1452.69 L2176.6 1451.02 L2181.28 1451.02 L2181.28 1481.64 L2188.92 1481.64 L2188.92 1485.58 L2169.01 1485.58 L2169.01 1481.64 Z" fill="#000000" fill-rule="nonzero" fill-opacity="1" /><path clip-path="url(#clip370)" d="M2198.41 1451.02 L2216.77 1451.02 L2216.77 1454.96 L2202.69 1454.96 L2202.69 1463.43 Q2203.71 1463.08 2204.73 1462.92 Q2205.75 1462.73 2206.77 1462.73 Q2212.55 1462.73 2215.93 1465.9 Q2219.31 1469.08 2219.31 1474.49 Q2219.31 1480.07 2215.84 1483.17 Q2212.37 1486.25 2206.05 1486.25 Q2203.87 1486.25 2201.6 1485.88 Q2199.36 1485.51 2196.95 1484.77 L2196.95 1480.07 Q2199.03 1481.2 2201.26 1481.76 Q2203.48 1482.32 2205.96 1482.32 Q2209.96 1482.32 2212.3 1480.21 Q2214.64 1478.1 2214.64 1474.49 Q2214.64 1470.88 2212.3 1468.77 Q2209.96 1466.67 2205.96 1466.67 Q2204.08 1466.67 2202.21 1467.08 Q2200.35 1467.5 2198.41 1468.38 L2198.41 1451.02 Z" fill="#000000" fill-rule="nonzero" fill-opacity="1" /><path clip-path="url(#clip370)" d="M2238.53 1454.1 Q2234.91 1454.1 2233.09 1457.66 Q2231.28 1461.2 2231.28 1468.33 Q2231.28 1475.44 2233.09 1479.01 Q2234.91 1482.55 2238.53 1482.55 Q2242.16 1482.55 2243.97 1479.01 Q2245.79 1475.44 2245.79 1468.33 Q2245.79 1461.2 2243.97 1457.66 Q2242.16 1454.1 2238.53 1454.1 M2238.53 1450.39 Q2244.34 1450.39 2247.39 1455 Q2250.47 1459.58 2250.47 1468.33 Q2250.47 1477.06 2247.39 1481.67 Q2244.34 1486.25 2238.53 1486.25 Q2232.72 1486.25 2229.64 1481.67 Q2226.58 1477.06 2226.58 1468.33 Q2226.58 1459.58 2229.64 1455 Q2232.72 1450.39 2238.53 1450.39 Z" fill="#000000" fill-rule="nonzero" fill-opacity="1" /><path clip-path="url(#clip370)" d="M1063.99 1520.52 L1094.04 1520.52 L1094.04 1525.93 L1070.42 1525.93 L1070.42 1540 L1093.05 1540 L1093.05 1545.41 L1070.42 1545.41 L1070.42 1562.63 L1094.61 1562.63 L1094.61 1568.04 L1063.99 1568.04 L1063.99 1520.52 Z" fill="#000000" fill-rule="nonzero" fill-opacity="1" /><path clip-path="url(#clip370)" d="M1134.56 1546.53 L1134.56 1568.04 L1128.7 1568.04 L1128.7 1546.72 Q1128.7 1541.66 1126.73 1539.14 Q1124.76 1536.63 1120.81 1536.63 Q1116.07 1536.63 1113.33 1539.65 Q1110.59 1542.68 1110.59 1547.9 L1110.59 1568.04 L1104.7 1568.04 L1104.7 1532.4 L1110.59 1532.4 L1110.59 1537.93 Q1112.69 1534.72 1115.52 1533.13 Q1118.39 1531.54 1122.11 1531.54 Q1128.26 1531.54 1131.41 1535.36 Q1134.56 1539.14 1134.56 1546.53 Z" fill="#000000" fill-rule="nonzero" fill-opacity="1" /><path clip-path="url(#clip370)" d="M1176.73 1548.76 L1176.73 1551.62 L1149.8 1551.62 Q1150.19 1557.67 1153.43 1560.85 Q1156.71 1564 1162.54 1564 Q1165.91 1564 1169.06 1563.17 Q1172.24 1562.35 1175.36 1560.69 L1175.36 1566.23 Q1172.21 1567.57 1168.9 1568.27 Q1165.59 1568.97 1162.19 1568.97 Q1153.66 1568.97 1148.66 1564 Q1143.69 1559.04 1143.69 1550.57 Q1143.69 1541.82 1148.4 1536.69 Q1153.15 1531.54 1161.17 1531.54 Q1168.36 1531.54 1172.53 1536.18 Q1176.73 1540.8 1176.73 1548.76 M1170.87 1547.04 Q1170.81 1542.23 1168.17 1539.37 Q1165.56 1536.5 1161.23 1536.5 Q1156.33 1536.5 1153.37 1539.27 Q1150.44 1542.04 1150 1547.07 L1170.87 1547.04 Z" fill="#000000" fill-rule="nonzero" fill-opacity="1" /><path clip-path="url(#clip370)" d="M1207 1537.87 Q1206.01 1537.3 1204.84 1537.04 Q1203.69 1536.76 1202.29 1536.76 Q1197.32 1536.76 1194.65 1540 Q1192.01 1543.22 1192.01 1549.27 L1192.01 1568.04 L1186.12 1568.04 L1186.12 1532.4 L1192.01 1532.4 L1192.01 1537.93 Q1193.85 1534.69 1196.82 1533.13 Q1199.78 1531.54 1204.01 1531.54 Q1204.61 1531.54 1205.35 1531.63 Q1206.08 1531.7 1206.97 1531.85 L1207 1537.87 Z" fill="#000000" fill-rule="nonzero" fill-opacity="1" /><path clip-path="url(#clip370)" d="M1235.45 1549.81 Q1235.45 1543.44 1232.81 1539.94 Q1230.2 1536.44 1225.46 1536.44 Q1220.75 1536.44 1218.11 1539.94 Q1215.5 1543.44 1215.5 1549.81 Q1215.5 1556.14 1218.11 1559.64 Q1220.75 1563.14 1225.46 1563.14 Q1230.2 1563.14 1232.81 1559.64 Q1235.45 1556.14 1235.45 1549.81 M1241.31 1563.62 Q1241.31 1572.72 1237.27 1577.15 Q1233.23 1581.6 1224.89 1581.6 Q1221.8 1581.6 1219.06 1581.13 Q1216.33 1580.68 1213.75 1579.72 L1213.75 1574.03 Q1216.33 1575.43 1218.84 1576.1 Q1221.35 1576.76 1223.96 1576.76 Q1229.73 1576.76 1232.59 1573.74 Q1235.45 1570.75 1235.45 1564.67 L1235.45 1561.77 Q1233.64 1564.92 1230.81 1566.48 Q1227.98 1568.04 1224.03 1568.04 Q1217.47 1568.04 1213.46 1563.05 Q1209.45 1558.05 1209.45 1549.81 Q1209.45 1541.53 1213.46 1536.53 Q1217.47 1531.54 1224.03 1531.54 Q1227.98 1531.54 1230.81 1533.1 Q1233.64 1534.66 1235.45 1537.81 L1235.45 1532.4 L1241.31 1532.4 L1241.31 1563.62 Z" fill="#000000" fill-rule="nonzero" fill-opacity="1" /><path clip-path="url(#clip370)" d="M1268.21 1571.35 Q1265.72 1577.72 1263.37 1579.66 Q1261.01 1581.6 1257.07 1581.6 L1252.39 1581.6 L1252.39 1576.7 L1255.83 1576.7 Q1258.24 1576.7 1259.58 1575.56 Q1260.92 1574.41 1262.54 1570.14 L1263.59 1567.47 L1249.17 1532.4 L1255.38 1532.4 L1266.52 1560.28 L1277.66 1532.4 L1283.87 1532.4 L1268.21 1571.35 Z" fill="#000000" fill-rule="nonzero" fill-opacity="1" /><path clip-path="url(#clip370)" d="M1326.74 1518.58 Q1322.47 1525.9 1320.41 1533.06 Q1318.34 1540.23 1318.34 1547.58 Q1318.34 1554.93 1320.41 1562.16 Q1322.51 1569.35 1326.74 1576.64 L1321.65 1576.64 Q1316.87 1569.16 1314.49 1561.93 Q1312.13 1554.71 1312.13 1547.58 Q1312.13 1540.48 1314.49 1533.29 Q1316.84 1526.09 1321.65 1518.58 L1326.74 1518.58 Z" fill="#000000" fill-rule="nonzero" fill-opacity="1" /><path clip-path="url(#clip370)" d="M1338.36 1520.52 L1347.94 1520.52 L1360.06 1552.86 L1372.25 1520.52 L1381.83 1520.52 L1381.83 1568.04 L1375.56 1568.04 L1375.56 1526.32 L1363.31 1558.91 L1356.85 1558.91 L1344.59 1526.32 L1344.59 1568.04 L1338.36 1568.04 L1338.36 1520.52 Z" fill="#000000" fill-rule="nonzero" fill-opacity="1" /><path clip-path="url(#clip370)" d="M1424.83 1548.76 L1424.83 1551.62 L1397.91 1551.62 Q1398.29 1557.67 1401.54 1560.85 Q1404.81 1564 1410.64 1564 Q1414.01 1564 1417.16 1563.17 Q1420.35 1562.35 1423.47 1560.69 L1423.47 1566.23 Q1420.31 1567.57 1417 1568.27 Q1413.69 1568.97 1410.29 1568.97 Q1401.76 1568.97 1396.76 1564 Q1391.8 1559.04 1391.8 1550.57 Q1391.8 1541.82 1396.51 1536.69 Q1401.25 1531.54 1409.27 1531.54 Q1416.46 1531.54 1420.63 1536.18 Q1424.83 1540.8 1424.83 1548.76 M1418.98 1547.04 Q1418.91 1542.23 1416.27 1539.37 Q1413.66 1536.5 1409.33 1536.5 Q1404.43 1536.5 1401.47 1539.27 Q1398.54 1542.04 1398.1 1547.07 L1418.98 1547.04 Z" fill="#000000" fill-rule="nonzero" fill-opacity="1" /><path clip-path="url(#clip370)" d="M1446.96 1568.04 L1428.81 1520.52 L1435.53 1520.52 L1450.58 1560.53 L1465.67 1520.52 L1472.35 1520.52 L1454.24 1568.04 L1446.96 1568.04 Z" fill="#000000" fill-rule="nonzero" fill-opacity="1" /><path clip-path="url(#clip370)" d="M1478.12 1518.58 L1483.21 1518.58 Q1487.98 1526.09 1490.34 1533.29 Q1492.72 1540.48 1492.72 1547.58 Q1492.72 1554.71 1490.34 1561.93 Q1487.98 1569.16 1483.21 1576.64 L1478.12 1576.64 Q1482.35 1569.35 1484.42 1562.16 Q1486.52 1554.93 1486.52 1547.58 Q1486.52 1540.23 1484.42 1533.06 Q1482.35 1525.9 1478.12 1518.58 Z" fill="#000000" fill-rule="nonzero" fill-opacity="1" /><polyline clip-path="url(#clip370)" style="stroke:#000000; stroke-linecap:round; stroke-linejoin:round; stroke-width:4; stroke-opacity:1; fill:none" points="203.964,1423.18 203.964,123.472 "/>
<polyline clip-path="url(#clip370)" style="stroke:#000000; stroke-linecap:round; stroke-linejoin:round; stroke-width:4; stroke-opacity:1; fill:none" points="203.964,1423.18 222.861,1423.18 "/>
<polyline clip-path="url(#clip370)" style="stroke:#000000; stroke-linecap:round; stroke-linejoin:round; stroke-width:4; stroke-opacity:1; fill:none" points="203.964,1081.15 222.861,1081.15 "/>
<polyline clip-path="url(#clip370)" style="stroke:#000000; stroke-linecap:round; stroke-linejoin:round; stroke-width:4; stroke-opacity:1; fill:none" points="203.964,739.123 222.861,739.123 "/>
<polyline clip-path="url(#clip370)" style="stroke:#000000; stroke-linecap:round; stroke-linejoin:round; stroke-width:4; stroke-opacity:1; fill:none" points="203.964,397.095 222.861,397.095 "/>
<path clip-path="url(#clip370)" d="M156.019 1408.98 Q152.408 1408.98 150.579 1412.54 Q148.774 1416.08 148.774 1423.21 Q148.774 1430.32 150.579 1433.89 Q152.408 1437.43 156.019 1437.43 Q159.653 1437.43 161.459 1433.89 Q163.288 1430.32 163.288 1423.21 Q163.288 1416.08 161.459 1412.54 Q159.653 1408.98 156.019 1408.98 M156.019 1405.27 Q161.829 1405.27 164.885 1409.88 Q167.964 1414.46 167.964 1423.21 Q167.964 1431.94 164.885 1436.55 Q161.829 1441.13 156.019 1441.13 Q150.209 1441.13 147.13 1436.55 Q144.075 1431.94 144.075 1423.21 Q144.075 1414.46 147.13 1409.88 Q150.209 1405.27 156.019 1405.27 Z" fill="#000000" fill-rule="nonzero" fill-opacity="1" /><path clip-path="url(#clip370)" d="M116.668 1094.5 L124.306 1094.5 L124.306 1068.13 L115.996 1069.8 L115.996 1065.54 L124.26 1063.87 L128.936 1063.87 L128.936 1094.5 L136.575 1094.5 L136.575 1098.43 L116.668 1098.43 L116.668 1094.5 Z" fill="#000000" fill-rule="nonzero" fill-opacity="1" /><path clip-path="url(#clip370)" d="M156.019 1066.95 Q152.408 1066.95 150.579 1070.51 Q148.774 1074.06 148.774 1081.19 Q148.774 1088.29 150.579 1091.86 Q152.408 1095.4 156.019 1095.4 Q159.653 1095.4 161.459 1091.86 Q163.288 1088.29 163.288 1081.19 Q163.288 1074.06 161.459 1070.51 Q159.653 1066.95 156.019 1066.95 M156.019 1063.25 Q161.829 1063.25 164.885 1067.85 Q167.964 1072.44 167.964 1081.19 Q167.964 1089.91 164.885 1094.52 Q161.829 1099.1 156.019 1099.1 Q150.209 1099.1 147.13 1094.52 Q144.075 1089.91 144.075 1081.19 Q144.075 1072.44 147.13 1067.85 Q150.209 1063.25 156.019 1063.25 Z" fill="#000000" fill-rule="nonzero" fill-opacity="1" /><path clip-path="url(#clip370)" d="M119.885 752.468 L136.204 752.468 L136.204 756.403 L114.26 756.403 L114.26 752.468 Q116.922 749.713 121.505 745.084 Q126.112 740.431 127.292 739.088 Q129.538 736.565 130.417 734.829 Q131.32 733.07 131.32 731.38 Q131.32 728.626 129.376 726.889 Q127.455 725.153 124.353 725.153 Q122.154 725.153 119.7 725.917 Q117.269 726.681 114.492 728.232 L114.492 723.51 Q117.316 722.376 119.769 721.797 Q122.223 721.218 124.26 721.218 Q129.63 721.218 132.825 723.903 Q136.019 726.588 136.019 731.079 Q136.019 733.209 135.209 735.13 Q134.422 737.028 132.316 739.621 Q131.737 740.292 128.635 743.51 Q125.533 746.704 119.885 752.468 Z" fill="#000000" fill-rule="nonzero" fill-opacity="1" /><path clip-path="url(#clip370)" d="M156.019 724.922 Q152.408 724.922 150.579 728.487 Q148.774 732.028 148.774 739.158 Q148.774 746.264 150.579 749.829 Q152.408 753.371 156.019 753.371 Q159.653 753.371 161.459 749.829 Q163.288 746.264 163.288 739.158 Q163.288 732.028 161.459 728.487 Q159.653 724.922 156.019 724.922 M156.019 721.218 Q161.829 721.218 164.885 725.825 Q167.964 730.408 167.964 739.158 Q167.964 747.885 164.885 752.491 Q161.829 757.074 156.019 757.074 Q150.209 757.074 147.13 752.491 Q144.075 747.885 144.075 739.158 Q144.075 730.408 147.13 725.825 Q150.209 721.218 156.019 721.218 Z" fill="#000000" fill-rule="nonzero" fill-opacity="1" /><path clip-path="url(#clip370)" d="M130.024 395.741 Q133.38 396.458 135.255 398.727 Q137.154 400.995 137.154 404.329 Q137.154 409.444 133.635 412.245 Q130.117 415.046 123.635 415.046 Q121.459 415.046 119.144 414.606 Q116.853 414.19 114.399 413.333 L114.399 408.819 Q116.343 409.954 118.658 410.532 Q120.973 411.111 123.496 411.111 Q127.894 411.111 130.186 409.375 Q132.501 407.639 132.501 404.329 Q132.501 401.273 130.348 399.56 Q128.218 397.824 124.399 397.824 L120.371 397.824 L120.371 393.981 L124.584 393.981 Q128.033 393.981 129.862 392.616 Q131.691 391.227 131.691 388.634 Q131.691 385.972 129.792 384.56 Q127.917 383.125 124.399 383.125 Q122.478 383.125 120.279 383.542 Q118.08 383.958 115.441 384.838 L115.441 380.671 Q118.103 379.931 120.418 379.56 Q122.755 379.19 124.816 379.19 Q130.14 379.19 133.242 381.62 Q136.343 384.028 136.343 388.148 Q136.343 391.018 134.7 393.009 Q133.056 394.977 130.024 395.741 Z" fill="#000000" fill-rule="nonzero" fill-opacity="1" /><path clip-path="url(#clip370)" d="M156.019 382.893 Q152.408 382.893 150.579 386.458 Q148.774 390 148.774 397.13 Q148.774 404.236 150.579 407.801 Q152.408 411.342 156.019 411.342 Q159.653 411.342 161.459 407.801 Q163.288 404.236 163.288 397.13 Q163.288 390 161.459 386.458 Q159.653 382.893 156.019 382.893 M156.019 379.19 Q161.829 379.19 164.885 383.796 Q167.964 388.38 167.964 397.13 Q167.964 405.856 164.885 410.463 Q161.829 415.046 156.019 415.046 Q150.209 415.046 147.13 410.463 Q144.075 405.856 144.075 397.13 Q144.075 388.38 147.13 383.796 Q150.209 379.19 156.019 379.19 Z" fill="#000000" fill-rule="nonzero" fill-opacity="1" /><path clip-path="url(#clip370)" d="M20.1444 845.354 L26.9239 845.354 Q23.9002 848.6 22.4043 852.293 Q20.9083 855.953 20.9083 860.091 Q20.9083 868.239 25.9054 872.567 Q30.8707 876.896 40.2919 876.896 Q49.6813 876.896 54.6784 872.567 Q59.6436 868.239 59.6436 860.091 Q59.6436 855.953 58.1477 852.293 Q56.6518 848.6 53.6281 845.354 L60.3439 845.354 Q62.6355 848.728 63.7814 852.515 Q64.9272 856.271 64.9272 860.473 Q64.9272 871.262 58.3387 877.469 Q51.7183 883.676 40.2919 883.676 Q28.8336 883.676 22.2451 877.469 Q15.6248 871.262 15.6248 860.473 Q15.6248 856.207 16.7706 852.452 Q17.8846 848.664 20.1444 845.354 Z" fill="#000000" fill-rule="nonzero" fill-opacity="1" /><path clip-path="url(#clip370)" d="M32.4621 821.864 Q32.4621 826.575 36.1542 829.312 Q39.8145 832.05 46.212 832.05 Q52.6095 832.05 56.3017 829.344 Q59.9619 826.607 59.9619 821.864 Q59.9619 817.186 56.2698 814.448 Q52.5777 811.711 46.212 811.711 Q39.8781 811.711 36.186 814.448 Q32.4621 817.186 32.4621 821.864 M27.4968 821.864 Q27.4968 814.226 32.4621 809.865 Q37.4273 805.505 46.212 805.505 Q54.9649 805.505 59.9619 809.865 Q64.9272 814.226 64.9272 821.864 Q64.9272 829.535 59.9619 833.896 Q54.9649 838.224 46.212 838.224 Q37.4273 838.224 32.4621 833.896 Q27.4968 829.535 27.4968 821.864 Z" fill="#000000" fill-rule="nonzero" fill-opacity="1" /><path clip-path="url(#clip370)" d="M49.9359 796.402 L28.3562 796.402 L28.3562 790.545 L49.7131 790.545 Q54.7739 790.545 57.3202 788.572 Q59.8346 786.598 59.8346 782.652 Q59.8346 777.909 56.8109 775.172 Q53.7872 772.403 48.5673 772.403 L28.3562 772.403 L28.3562 766.547 L64.0042 766.547 L64.0042 772.403 L58.5296 772.403 Q61.7762 774.535 63.3676 777.368 Q64.9272 780.169 64.9272 783.893 Q64.9272 790.036 61.1078 793.219 Q57.2883 796.402 49.9359 796.402 M27.4968 781.665 L27.4968 781.665 Z" fill="#000000" fill-rule="nonzero" fill-opacity="1" /><path clip-path="url(#clip370)" d="M42.4881 724.851 L64.0042 724.851 L64.0042 730.708 L42.679 730.708 Q37.6183 730.708 35.1038 732.681 Q32.5894 734.654 32.5894 738.601 Q32.5894 743.344 35.6131 746.081 Q38.6368 748.818 43.8567 748.818 L64.0042 748.818 L64.0042 754.706 L28.3562 754.706 L28.3562 748.818 L33.8944 748.818 Q30.6797 746.717 29.0883 743.885 Q27.4968 741.02 27.4968 737.296 Q27.4968 731.153 31.3163 728.002 Q35.1038 724.851 42.4881 724.851 Z" fill="#000000" fill-rule="nonzero" fill-opacity="1" /><path clip-path="url(#clip370)" d="M18.2347 707.377 L28.3562 707.377 L28.3562 695.314 L32.9077 695.314 L32.9077 707.377 L52.2594 707.377 Q56.6199 707.377 57.8613 706.2 Q59.1026 704.99 59.1026 701.33 L59.1026 695.314 L64.0042 695.314 L64.0042 701.33 Q64.0042 708.109 61.4897 710.687 Q58.9434 713.266 52.2594 713.266 L32.9077 713.266 L32.9077 717.562 L28.3562 717.562 L28.3562 713.266 L18.2347 713.266 L18.2347 707.377 Z" fill="#000000" fill-rule="nonzero" fill-opacity="1" /><path clip-path="url(#clip370)" d="M29.4065 664.886 L34.9447 664.886 Q33.6716 667.369 33.035 670.042 Q32.3984 672.716 32.3984 675.581 Q32.3984 679.941 33.7352 682.137 Q35.072 684.302 37.7456 684.302 Q39.7826 684.302 40.9603 682.742 Q42.1061 681.182 43.1565 676.472 L43.6021 674.467 Q44.9389 668.228 47.3897 665.618 Q49.8086 662.976 54.1691 662.976 Q59.1344 662.976 62.0308 666.923 Q64.9272 670.838 64.9272 677.713 Q64.9272 680.578 64.3543 683.697 Q63.8132 686.784 62.6992 690.222 L56.6518 690.222 Q58.3387 686.975 59.198 683.824 Q60.0256 680.673 60.0256 677.586 Q60.0256 673.448 58.6251 671.22 Q57.1929 668.992 54.6147 668.992 Q52.2276 668.992 50.9545 670.615 Q49.6813 672.207 48.5037 677.649 L48.0262 679.686 Q46.8804 685.129 44.5251 687.548 Q42.138 689.967 38.0002 689.967 Q32.9713 689.967 30.2341 686.402 Q27.4968 682.837 27.4968 676.281 Q27.4968 673.034 27.9743 670.17 Q28.4517 667.305 29.4065 664.886 Z" fill="#000000" fill-rule="nonzero" fill-opacity="1" /><path clip-path="url(#clip370)" d="M817.691 12.096 L868.854 12.096 L868.854 18.9825 L847.384 18.9825 L847.384 72.576 L839.161 72.576 L839.161 18.9825 L817.691 18.9825 L817.691 12.096 Z" fill="#000000" fill-rule="nonzero" fill-opacity="1" /><path clip-path="url(#clip370)" d="M879.913 32.4315 Q873.917 32.4315 870.434 37.1306 Q866.95 41.7891 866.95 49.9314 Q866.95 58.0738 870.393 62.7728 Q873.877 67.4314 879.913 67.4314 Q885.868 67.4314 889.351 62.7323 Q892.835 58.0333 892.835 49.9314 Q892.835 41.8701 889.351 37.1711 Q885.868 32.4315 879.913 32.4315 M879.913 26.1121 Q889.635 26.1121 895.185 32.4315 Q900.734 38.7509 900.734 49.9314 Q900.734 61.0714 895.185 67.4314 Q889.635 73.7508 879.913 73.7508 Q870.15 73.7508 864.6 67.4314 Q859.091 61.0714 859.091 49.9314 Q859.091 38.7509 864.6 32.4315 Q870.15 26.1121 879.913 26.1121 Z" fill="#000000" fill-rule="nonzero" fill-opacity="1" /><path clip-path="url(#clip370)" d="M920.462 14.324 L920.462 27.2059 L935.815 27.2059 L935.815 32.9987 L920.462 32.9987 L920.462 57.6282 Q920.462 63.1779 921.961 64.7578 Q923.501 66.3376 928.159 66.3376 L935.815 66.3376 L935.815 72.576 L928.159 72.576 Q919.531 72.576 916.249 69.3758 Q912.968 66.1351 912.968 57.6282 L912.968 32.9987 L907.499 32.9987 L907.499 27.2059 L912.968 27.2059 L912.968 14.324 L920.462 14.324 Z" fill="#000000" fill-rule="nonzero" fill-opacity="1" /><path clip-path="url(#clip370)" d="M966.238 49.7694 Q957.204 49.7694 953.72 51.8354 Q950.236 53.9013 950.236 58.8839 Q950.236 62.8538 952.829 65.2034 Q955.462 67.5124 959.959 67.5124 Q966.157 67.5124 969.883 63.1374 Q973.651 58.7219 973.651 51.4303 L973.651 49.7694 L966.238 49.7694 M981.104 46.6907 L981.104 72.576 L973.651 72.576 L973.651 65.6895 Q971.099 69.8214 967.291 71.8063 Q963.483 73.7508 957.974 73.7508 Q951.006 73.7508 946.874 69.8619 Q942.783 65.9325 942.783 59.3701 Q942.783 51.7138 947.887 47.825 Q953.032 43.9361 963.199 43.9361 L973.651 43.9361 L973.651 43.2069 Q973.651 38.0623 970.248 35.2672 Q966.886 32.4315 960.769 32.4315 Q956.88 32.4315 953.194 33.3632 Q949.507 34.295 946.105 36.1584 L946.105 29.2718 Q950.196 27.692 954.044 26.9223 Q957.893 26.1121 961.539 26.1121 Q971.382 26.1121 976.243 31.2163 Q981.104 36.3204 981.104 46.6907 Z" fill="#000000" fill-rule="nonzero" fill-opacity="1" /><path clip-path="url(#clip370)" d="M996.457 9.54393 L1003.91 9.54393 L1003.91 72.576 L996.457 72.576 L996.457 9.54393 Z" fill="#000000" fill-rule="nonzero" fill-opacity="1" /><path clip-path="url(#clip370)" d="M1084.69 48.0275 L1084.69 51.6733 L1050.42 51.6733 Q1050.9 59.3701 1055.03 63.421 Q1059.21 67.4314 1066.62 67.4314 Q1070.91 67.4314 1074.92 66.3781 Q1078.97 65.3249 1082.94 63.2184 L1082.94 70.267 Q1078.93 71.9684 1074.72 72.8596 Q1070.51 73.7508 1066.17 73.7508 Q1055.32 73.7508 1048.96 67.4314 Q1042.64 61.1119 1042.64 50.3365 Q1042.64 39.1965 1048.63 32.6746 Q1054.67 26.1121 1064.88 26.1121 Q1074.03 26.1121 1079.34 32.0264 Q1084.69 37.9003 1084.69 48.0275 M1077.23 45.84 Q1077.15 39.7232 1073.79 36.0774 Q1070.47 32.4315 1064.96 32.4315 Q1058.72 32.4315 1054.95 35.9558 Q1051.23 39.4801 1050.66 45.8805 L1077.23 45.84 Z" fill="#000000" fill-rule="nonzero" fill-opacity="1" /><path clip-path="url(#clip370)" d="M1134.63 45.1919 L1134.63 72.576 L1127.18 72.576 L1127.18 45.4349 Q1127.18 38.994 1124.67 35.7938 Q1122.16 32.5936 1117.13 32.5936 Q1111.1 32.5936 1107.61 36.4419 Q1104.13 40.2903 1104.13 46.9338 L1104.13 72.576 L1096.64 72.576 L1096.64 27.2059 L1104.13 27.2059 L1104.13 34.2544 Q1106.8 30.163 1110.41 28.1376 Q1114.06 26.1121 1118.79 26.1121 Q1126.61 26.1121 1130.62 30.9732 Q1134.63 35.7938 1134.63 45.1919 Z" fill="#000000" fill-rule="nonzero" fill-opacity="1" /><path clip-path="url(#clip370)" d="M1188.31 48.0275 L1188.31 51.6733 L1154.04 51.6733 Q1154.52 59.3701 1158.66 63.421 Q1162.83 67.4314 1170.24 67.4314 Q1174.54 67.4314 1178.55 66.3781 Q1182.6 65.3249 1186.57 63.2184 L1186.57 70.267 Q1182.56 71.9684 1178.34 72.8596 Q1174.13 73.7508 1169.8 73.7508 Q1158.94 73.7508 1152.58 67.4314 Q1146.26 61.1119 1146.26 50.3365 Q1146.26 39.1965 1152.26 32.6746 Q1158.29 26.1121 1168.5 26.1121 Q1177.65 26.1121 1182.96 32.0264 Q1188.31 37.9003 1188.31 48.0275 M1180.85 45.84 Q1180.77 39.7232 1177.41 36.0774 Q1174.09 32.4315 1168.58 32.4315 Q1162.34 32.4315 1158.57 35.9558 Q1154.85 39.4801 1154.28 45.8805 L1180.85 45.84 Z" fill="#000000" fill-rule="nonzero" fill-opacity="1" /><path clip-path="url(#clip370)" d="M1226.83 34.1734 Q1225.58 33.4443 1224.08 33.1202 Q1222.62 32.7556 1220.84 32.7556 Q1214.52 32.7556 1211.11 36.8875 Q1207.75 40.9789 1207.75 48.6757 L1207.75 72.576 L1200.26 72.576 L1200.26 27.2059 L1207.75 27.2059 L1207.75 34.2544 Q1210.1 30.1225 1213.87 28.1376 Q1217.64 26.1121 1223.02 26.1121 Q1223.79 26.1121 1224.73 26.2337 Q1225.66 26.3147 1226.79 26.5172 L1226.83 34.1734 Z" fill="#000000" fill-rule="nonzero" fill-opacity="1" /><path clip-path="url(#clip370)" d="M1263.05 49.3643 Q1263.05 41.2625 1259.69 36.8065 Q1256.36 32.3505 1250.33 32.3505 Q1244.33 32.3505 1240.97 36.8065 Q1237.65 41.2625 1237.65 49.3643 Q1237.65 57.4256 1240.97 61.8816 Q1244.33 66.3376 1250.33 66.3376 Q1256.36 66.3376 1259.69 61.8816 Q1263.05 57.4256 1263.05 49.3643 M1270.5 66.9452 Q1270.5 78.5308 1265.36 84.1616 Q1260.21 89.8329 1249.6 89.8329 Q1245.67 89.8329 1242.19 89.2252 Q1238.7 88.6581 1235.42 87.4428 L1235.42 80.1917 Q1238.7 81.9741 1241.9 82.8248 Q1245.1 83.6755 1248.42 83.6755 Q1255.76 83.6755 1259.4 79.8271 Q1263.05 76.0193 1263.05 68.282 L1263.05 64.5957 Q1260.74 68.6061 1257.13 70.5911 Q1253.53 72.576 1248.5 72.576 Q1240.16 72.576 1235.06 66.2161 Q1229.95 59.8562 1229.95 49.3643 Q1229.95 38.832 1235.06 32.472 Q1240.16 26.1121 1248.5 26.1121 Q1253.53 26.1121 1257.13 28.0971 Q1260.74 30.082 1263.05 34.0924 L1263.05 27.2059 L1270.5 27.2059 L1270.5 66.9452 Z" fill="#000000" fill-rule="nonzero" fill-opacity="1" /><path clip-path="url(#clip370)" d="M1304.73 76.7889 Q1301.57 84.8907 1298.57 87.3618 Q1295.58 89.8329 1290.55 89.8329 L1284.6 89.8329 L1284.6 83.5945 L1288.97 83.5945 Q1292.05 83.5945 1293.75 82.1361 Q1295.45 80.6778 1297.52 75.2496 L1298.86 71.8468 L1280.51 27.2059 L1288.41 27.2059 L1302.58 62.6918 L1316.76 27.2059 L1324.66 27.2059 L1304.73 76.7889 Z" fill="#000000" fill-rule="nonzero" fill-opacity="1" /><path clip-path="url(#clip370)" d="M1390.25 28.5427 L1390.25 35.5912 Q1387.09 33.9709 1383.68 33.1607 Q1380.28 32.3505 1376.63 32.3505 Q1371.08 32.3505 1368.29 34.0519 Q1365.54 35.7533 1365.54 39.156 Q1365.54 41.7486 1367.52 43.2475 Q1369.51 44.7058 1375.5 46.0426 L1378.05 46.6097 Q1385.99 48.3111 1389.31 51.4303 Q1392.68 54.509 1392.68 60.0587 Q1392.68 66.3781 1387.65 70.0644 Q1382.67 73.7508 1373.92 73.7508 Q1370.27 73.7508 1366.3 73.0216 Q1362.38 72.3329 1358 70.9151 L1358 63.2184 Q1362.13 65.3654 1366.14 66.4591 Q1370.15 67.5124 1374.08 67.5124 Q1379.35 67.5124 1382.18 65.73 Q1385.02 63.9071 1385.02 60.6258 Q1385.02 57.5877 1382.95 55.9673 Q1380.93 54.3469 1374 52.8481 L1371.41 52.2405 Q1364.48 50.7821 1361.4 47.7845 Q1358.32 44.7463 1358.32 39.4801 Q1358.32 33.0797 1362.86 29.5959 Q1367.4 26.1121 1375.74 26.1121 Q1379.88 26.1121 1383.52 26.7198 Q1387.17 27.3274 1390.25 28.5427 Z" fill="#000000" fill-rule="nonzero" fill-opacity="1" /><path clip-path="url(#clip370)" d="M1411.76 65.7705 L1411.76 89.8329 L1404.26 89.8329 L1404.26 27.2059 L1411.76 27.2059 L1411.76 34.0924 Q1414.11 30.0415 1417.67 28.0971 Q1421.28 26.1121 1426.26 26.1121 Q1434.52 26.1121 1439.67 32.6746 Q1444.85 39.2371 1444.85 49.9314 Q1444.85 60.6258 1439.67 67.1883 Q1434.52 73.7508 1426.26 73.7508 Q1421.28 73.7508 1417.67 71.8063 Q1414.11 69.8214 1411.76 65.7705 M1437.11 49.9314 Q1437.11 41.7081 1433.71 37.0496 Q1430.35 32.3505 1424.44 32.3505 Q1418.52 32.3505 1415.12 37.0496 Q1411.76 41.7081 1411.76 49.9314 Q1411.76 58.1548 1415.12 62.8538 Q1418.52 67.5124 1424.44 67.5124 Q1430.35 67.5124 1433.71 62.8538 Q1437.11 58.1548 1437.11 49.9314 Z" fill="#000000" fill-rule="nonzero" fill-opacity="1" /><path clip-path="url(#clip370)" d="M1496.01 48.0275 L1496.01 51.6733 L1461.74 51.6733 Q1462.23 59.3701 1466.36 63.421 Q1470.53 67.4314 1477.95 67.4314 Q1482.24 67.4314 1486.25 66.3781 Q1490.3 65.3249 1494.27 63.2184 L1494.27 70.267 Q1490.26 71.9684 1486.05 72.8596 Q1481.84 73.7508 1477.5 73.7508 Q1466.65 73.7508 1460.29 67.4314 Q1453.97 61.1119 1453.97 50.3365 Q1453.97 39.1965 1459.96 32.6746 Q1466 26.1121 1476.21 26.1121 Q1485.36 26.1121 1490.67 32.0264 Q1496.01 37.9003 1496.01 48.0275 M1488.56 45.84 Q1488.48 39.7232 1485.12 36.0774 Q1481.8 32.4315 1476.29 32.4315 Q1470.05 32.4315 1466.28 35.9558 Q1462.55 39.4801 1461.99 45.8805 L1488.56 45.84 Z" fill="#000000" fill-rule="nonzero" fill-opacity="1" /><path clip-path="url(#clip370)" d="M1540.9 28.9478 L1540.9 35.9153 Q1537.74 34.1734 1534.54 33.3227 Q1531.38 32.4315 1528.14 32.4315 Q1520.89 32.4315 1516.88 37.0496 Q1512.87 41.6271 1512.87 49.9314 Q1512.87 58.2358 1516.88 62.8538 Q1520.89 67.4314 1528.14 67.4314 Q1531.38 67.4314 1534.54 66.5807 Q1537.74 65.6895 1540.9 63.9476 L1540.9 70.8341 Q1537.78 72.2924 1534.42 73.0216 Q1531.1 73.7508 1527.33 73.7508 Q1517.08 73.7508 1511.04 67.3098 Q1505.01 60.8689 1505.01 49.9314 Q1505.01 38.832 1511.08 32.472 Q1517.2 26.1121 1527.81 26.1121 Q1531.26 26.1121 1534.54 26.8413 Q1537.82 27.5299 1540.9 28.9478 Z" fill="#000000" fill-rule="nonzero" fill-opacity="1" /><path clip-path="url(#clip370)" d="M1561.23 14.324 L1561.23 27.2059 L1576.59 27.2059 L1576.59 32.9987 L1561.23 32.9987 L1561.23 57.6282 Q1561.23 63.1779 1562.73 64.7578 Q1564.27 66.3376 1568.93 66.3376 L1576.59 66.3376 L1576.59 72.576 L1568.93 72.576 Q1560.3 72.576 1557.02 69.3758 Q1553.74 66.1351 1553.74 57.6282 L1553.74 32.9987 L1548.27 32.9987 L1548.27 27.2059 L1553.74 27.2059 L1553.74 14.324 L1561.23 14.324 Z" fill="#000000" fill-rule="nonzero" fill-opacity="1" /><path clip-path="url(#clip370)" d="M1612.68 34.1734 Q1611.43 33.4443 1609.93 33.1202 Q1608.47 32.7556 1606.69 32.7556 Q1600.37 32.7556 1596.96 36.8875 Q1593.6 40.9789 1593.6 48.6757 L1593.6 72.576 L1586.11 72.576 L1586.11 27.2059 L1593.6 27.2059 L1593.6 34.2544 Q1595.95 30.1225 1599.72 28.1376 Q1603.49 26.1121 1608.87 26.1121 Q1609.64 26.1121 1610.57 26.2337 Q1611.51 26.3147 1612.64 26.5172 L1612.68 34.1734 Z" fill="#000000" fill-rule="nonzero" fill-opacity="1" /><path clip-path="url(#clip370)" d="M1619.73 54.671 L1619.73 27.2059 L1627.18 27.2059 L1627.18 54.3874 Q1627.18 60.8284 1629.69 64.0691 Q1632.21 67.2693 1637.23 67.2693 Q1643.27 67.2693 1646.75 63.421 Q1650.27 59.5726 1650.27 52.9291 L1650.27 27.2059 L1657.73 27.2059 L1657.73 72.576 L1650.27 72.576 L1650.27 65.6084 Q1647.56 69.7404 1643.95 71.7658 Q1640.39 73.7508 1635.65 73.7508 Q1627.83 73.7508 1623.78 68.8897 Q1619.73 64.0286 1619.73 54.671 M1638.49 26.1121 L1638.49 26.1121 Z" fill="#000000" fill-rule="nonzero" fill-opacity="1" /><path clip-path="url(#clip370)" d="M1708.4 35.9153 Q1711.2 30.8922 1715.09 28.5022 Q1718.98 26.1121 1724.24 26.1121 Q1731.33 26.1121 1735.18 31.0947 Q1739.03 36.0368 1739.03 45.1919 L1739.03 72.576 L1731.53 72.576 L1731.53 45.4349 Q1731.53 38.913 1729.23 35.7533 Q1726.92 32.5936 1722.18 32.5936 Q1716.38 32.5936 1713.02 36.4419 Q1709.66 40.2903 1709.66 46.9338 L1709.66 72.576 L1702.17 72.576 L1702.17 45.4349 Q1702.17 38.8725 1699.86 35.7533 Q1697.55 32.5936 1692.73 32.5936 Q1687.01 32.5936 1683.65 36.4824 Q1680.29 40.3308 1680.29 46.9338 L1680.29 72.576 L1672.8 72.576 L1672.8 27.2059 L1680.29 27.2059 L1680.29 34.2544 Q1682.84 30.082 1686.41 28.0971 Q1689.97 26.1121 1694.87 26.1121 Q1699.82 26.1121 1703.26 28.6237 Q1706.74 31.1352 1708.4 35.9153 Z" fill="#000000" fill-rule="nonzero" fill-opacity="1" /><path clip-path="url(#clip372)" d="M322.151 739.123 L322.151 1423.18 L347.314 1423.18 L347.314 739.123 L322.151 739.123 L322.151 739.123  Z" fill="#009af9" fill-rule="evenodd" fill-opacity="1"/>
<polyline clip-path="url(#clip372)" style="stroke:#000000; stroke-linecap:round; stroke-linejoin:round; stroke-width:4; stroke-opacity:1; fill:none" points="322.151,739.123 322.151,1423.18 347.314,1423.18 347.314,739.123 322.151,739.123 "/>
<path clip-path="url(#clip372)" d="M347.314 294.486 L347.314 1423.18 L372.478 1423.18 L372.478 294.486 L347.314 294.486 L347.314 294.486  Z" fill="#009af9" fill-rule="evenodd" fill-opacity="1"/>
<polyline clip-path="url(#clip372)" style="stroke:#000000; stroke-linecap:round; stroke-linejoin:round; stroke-width:4; stroke-opacity:1; fill:none" points="347.314,294.486 347.314,1423.18 372.478,1423.18 372.478,294.486 347.314,294.486 "/>
<path clip-path="url(#clip372)" d="M372.478 328.689 L372.478 1423.18 L397.641 1423.18 L397.641 328.689 L372.478 328.689 L372.478 328.689  Z" fill="#009af9" fill-rule="evenodd" fill-opacity="1"/>
<polyline clip-path="url(#clip372)" style="stroke:#000000; stroke-linecap:round; stroke-linejoin:round; stroke-width:4; stroke-opacity:1; fill:none" points="372.478,328.689 372.478,1423.18 397.641,1423.18 397.641,328.689 372.478,328.689 "/>
<path clip-path="url(#clip372)" d="M397.641 260.283 L397.641 1423.18 L422.805 1423.18 L422.805 260.283 L397.641 260.283 L397.641 260.283  Z" fill="#009af9" fill-rule="evenodd" fill-opacity="1"/>
<polyline clip-path="url(#clip372)" style="stroke:#000000; stroke-linecap:round; stroke-linejoin:round; stroke-width:4; stroke-opacity:1; fill:none" points="397.641,260.283 397.641,1423.18 422.805,1423.18 422.805,260.283 397.641,260.283 "/>
<path clip-path="url(#clip372)" d="M422.805 431.298 L422.805 1423.18 L447.968 1423.18 L447.968 431.298 L422.805 431.298 L422.805 431.298  Z" fill="#009af9" fill-rule="evenodd" fill-opacity="1"/>
<polyline clip-path="url(#clip372)" style="stroke:#000000; stroke-linecap:round; stroke-linejoin:round; stroke-width:4; stroke-opacity:1; fill:none" points="422.805,431.298 422.805,1423.18 447.968,1423.18 447.968,431.298 422.805,431.298 "/>
<path clip-path="url(#clip372)" d="M447.968 123.472 L447.968 1423.18 L473.131 1423.18 L473.131 123.472 L447.968 123.472 L447.968 123.472  Z" fill="#009af9" fill-rule="evenodd" fill-opacity="1"/>
<polyline clip-path="url(#clip372)" style="stroke:#000000; stroke-linecap:round; stroke-linejoin:round; stroke-width:4; stroke-opacity:1; fill:none" points="447.968,123.472 447.968,1423.18 473.131,1423.18 473.131,123.472 447.968,123.472 "/>
<path clip-path="url(#clip372)" d="M473.131 533.906 L473.131 1423.18 L498.295 1423.18 L498.295 533.906 L473.131 533.906 L473.131 533.906  Z" fill="#009af9" fill-rule="evenodd" fill-opacity="1"/>
<polyline clip-path="url(#clip372)" style="stroke:#000000; stroke-linecap:round; stroke-linejoin:round; stroke-width:4; stroke-opacity:1; fill:none" points="473.131,533.906 473.131,1423.18 498.295,1423.18 498.295,533.906 473.131,533.906 "/>
<path clip-path="url(#clip372)" d="M498.295 499.703 L498.295 1423.18 L523.458 1423.18 L523.458 499.703 L498.295 499.703 L498.295 499.703  Z" fill="#009af9" fill-rule="evenodd" fill-opacity="1"/>
<polyline clip-path="url(#clip372)" style="stroke:#000000; stroke-linecap:round; stroke-linejoin:round; stroke-width:4; stroke-opacity:1; fill:none" points="498.295,499.703 498.295,1423.18 523.458,1423.18 523.458,499.703 498.295,499.703 "/>
<path clip-path="url(#clip372)" d="M523.458 807.529 L523.458 1423.18 L548.621 1423.18 L548.621 807.529 L523.458 807.529 L523.458 807.529  Z" fill="#009af9" fill-rule="evenodd" fill-opacity="1"/>
<polyline clip-path="url(#clip372)" style="stroke:#000000; stroke-linecap:round; stroke-linejoin:round; stroke-width:4; stroke-opacity:1; fill:none" points="523.458,807.529 523.458,1423.18 548.621,1423.18 548.621,807.529 523.458,807.529 "/>
<path clip-path="url(#clip372)" d="M548.621 362.892 L548.621 1423.18 L573.785 1423.18 L573.785 362.892 L548.621 362.892 L548.621 362.892  Z" fill="#009af9" fill-rule="evenodd" fill-opacity="1"/>
<polyline clip-path="url(#clip372)" style="stroke:#000000; stroke-linecap:round; stroke-linejoin:round; stroke-width:4; stroke-opacity:1; fill:none" points="548.621,362.892 548.621,1423.18 573.785,1423.18 573.785,362.892 548.621,362.892 "/>
<path clip-path="url(#clip372)" d="M573.785 533.906 L573.785 1423.18 L598.948 1423.18 L598.948 533.906 L573.785 533.906 L573.785 533.906  Z" fill="#009af9" fill-rule="evenodd" fill-opacity="1"/>
<polyline clip-path="url(#clip372)" style="stroke:#000000; stroke-linecap:round; stroke-linejoin:round; stroke-width:4; stroke-opacity:1; fill:none" points="573.785,533.906 573.785,1423.18 598.948,1423.18 598.948,533.906 573.785,533.906 "/>
<path clip-path="url(#clip372)" d="M598.948 636.515 L598.948 1423.18 L624.112 1423.18 L624.112 636.515 L598.948 636.515 L598.948 636.515  Z" fill="#009af9" fill-rule="evenodd" fill-opacity="1"/>
<polyline clip-path="url(#clip372)" style="stroke:#000000; stroke-linecap:round; stroke-linejoin:round; stroke-width:4; stroke-opacity:1; fill:none" points="598.948,636.515 598.948,1423.18 624.112,1423.18 624.112,636.515 598.948,636.515 "/>
<path clip-path="url(#clip372)" d="M624.112 397.095 L624.112 1423.18 L649.275 1423.18 L649.275 397.095 L624.112 397.095 L624.112 397.095  Z" fill="#009af9" fill-rule="evenodd" fill-opacity="1"/>
<polyline clip-path="url(#clip372)" style="stroke:#000000; stroke-linecap:round; stroke-linejoin:round; stroke-width:4; stroke-opacity:1; fill:none" points="624.112,397.095 624.112,1423.18 649.275,1423.18 649.275,397.095 624.112,397.095 "/>
<path clip-path="url(#clip372)" d="M649.275 533.906 L649.275 1423.18 L674.438 1423.18 L674.438 533.906 L649.275 533.906 L649.275 533.906  Z" fill="#009af9" fill-rule="evenodd" fill-opacity="1"/>
<polyline clip-path="url(#clip372)" style="stroke:#000000; stroke-linecap:round; stroke-linejoin:round; stroke-width:4; stroke-opacity:1; fill:none" points="649.275,533.906 649.275,1423.18 674.438,1423.18 674.438,533.906 649.275,533.906 "/>
<path clip-path="url(#clip372)" d="M674.438 773.326 L674.438 1423.18 L699.602 1423.18 L699.602 773.326 L674.438 773.326 L674.438 773.326  Z" fill="#009af9" fill-rule="evenodd" fill-opacity="1"/>
<polyline clip-path="url(#clip372)" style="stroke:#000000; stroke-linecap:round; stroke-linejoin:round; stroke-width:4; stroke-opacity:1; fill:none" points="674.438,773.326 674.438,1423.18 699.602,1423.18 699.602,773.326 674.438,773.326 "/>
<path clip-path="url(#clip372)" d="M699.602 431.298 L699.602 1423.18 L724.765 1423.18 L724.765 431.298 L699.602 431.298 L699.602 431.298  Z" fill="#009af9" fill-rule="evenodd" fill-opacity="1"/>
<polyline clip-path="url(#clip372)" style="stroke:#000000; stroke-linecap:round; stroke-linejoin:round; stroke-width:4; stroke-opacity:1; fill:none" points="699.602,431.298 699.602,1423.18 724.765,1423.18 724.765,431.298 699.602,431.298 "/>
<path clip-path="url(#clip372)" d="M724.765 568.109 L724.765 1423.18 L749.929 1423.18 L749.929 568.109 L724.765 568.109 L724.765 568.109  Z" fill="#009af9" fill-rule="evenodd" fill-opacity="1"/>
<polyline clip-path="url(#clip372)" style="stroke:#000000; stroke-linecap:round; stroke-linejoin:round; stroke-width:4; stroke-opacity:1; fill:none" points="724.765,568.109 724.765,1423.18 749.929,1423.18 749.929,568.109 724.765,568.109 "/>
<path clip-path="url(#clip372)" d="M749.929 568.109 L749.929 1423.18 L775.092 1423.18 L775.092 568.109 L749.929 568.109 L749.929 568.109  Z" fill="#009af9" fill-rule="evenodd" fill-opacity="1"/>
<polyline clip-path="url(#clip372)" style="stroke:#000000; stroke-linecap:round; stroke-linejoin:round; stroke-width:4; stroke-opacity:1; fill:none" points="749.929,568.109 749.929,1423.18 775.092,1423.18 775.092,568.109 749.929,568.109 "/>
<path clip-path="url(#clip372)" d="M775.092 602.312 L775.092 1423.18 L800.255 1423.18 L800.255 602.312 L775.092 602.312 L775.092 602.312  Z" fill="#009af9" fill-rule="evenodd" fill-opacity="1"/>
<polyline clip-path="url(#clip372)" style="stroke:#000000; stroke-linecap:round; stroke-linejoin:round; stroke-width:4; stroke-opacity:1; fill:none" points="775.092,602.312 775.092,1423.18 800.255,1423.18 800.255,602.312 775.092,602.312 "/>
<path clip-path="url(#clip372)" d="M800.255 636.515 L800.255 1423.18 L825.419 1423.18 L825.419 636.515 L800.255 636.515 L800.255 636.515  Z" fill="#009af9" fill-rule="evenodd" fill-opacity="1"/>
<polyline clip-path="url(#clip372)" style="stroke:#000000; stroke-linecap:round; stroke-linejoin:round; stroke-width:4; stroke-opacity:1; fill:none" points="800.255,636.515 800.255,1423.18 825.419,1423.18 825.419,636.515 800.255,636.515 "/>
<path clip-path="url(#clip372)" d="M825.419 328.689 L825.419 1423.18 L850.582 1423.18 L850.582 328.689 L825.419 328.689 L825.419 328.689  Z" fill="#009af9" fill-rule="evenodd" fill-opacity="1"/>
<polyline clip-path="url(#clip372)" style="stroke:#000000; stroke-linecap:round; stroke-linejoin:round; stroke-width:4; stroke-opacity:1; fill:none" points="825.419,328.689 825.419,1423.18 850.582,1423.18 850.582,328.689 825.419,328.689 "/>
<path clip-path="url(#clip372)" d="M850.582 602.312 L850.582 1423.18 L875.746 1423.18 L875.746 602.312 L850.582 602.312 L850.582 602.312  Z" fill="#009af9" fill-rule="evenodd" fill-opacity="1"/>
<polyline clip-path="url(#clip372)" style="stroke:#000000; stroke-linecap:round; stroke-linejoin:round; stroke-width:4; stroke-opacity:1; fill:none" points="850.582,602.312 850.582,1423.18 875.746,1423.18 875.746,602.312 850.582,602.312 "/>
<path clip-path="url(#clip372)" d="M875.746 568.109 L875.746 1423.18 L900.909 1423.18 L900.909 568.109 L875.746 568.109 L875.746 568.109  Z" fill="#009af9" fill-rule="evenodd" fill-opacity="1"/>
<polyline clip-path="url(#clip372)" style="stroke:#000000; stroke-linecap:round; stroke-linejoin:round; stroke-width:4; stroke-opacity:1; fill:none" points="875.746,568.109 875.746,1423.18 900.909,1423.18 900.909,568.109 875.746,568.109 "/>
<path clip-path="url(#clip372)" d="M900.909 568.109 L900.909 1423.18 L926.072 1423.18 L926.072 568.109 L900.909 568.109 L900.909 568.109  Z" fill="#009af9" fill-rule="evenodd" fill-opacity="1"/>
<polyline clip-path="url(#clip372)" style="stroke:#000000; stroke-linecap:round; stroke-linejoin:round; stroke-width:4; stroke-opacity:1; fill:none" points="900.909,568.109 900.909,1423.18 926.072,1423.18 926.072,568.109 900.909,568.109 "/>
<path clip-path="url(#clip372)" d="M926.072 739.123 L926.072 1423.18 L951.236 1423.18 L951.236 739.123 L926.072 739.123 L926.072 739.123  Z" fill="#009af9" fill-rule="evenodd" fill-opacity="1"/>
<polyline clip-path="url(#clip372)" style="stroke:#000000; stroke-linecap:round; stroke-linejoin:round; stroke-width:4; stroke-opacity:1; fill:none" points="926.072,739.123 926.072,1423.18 951.236,1423.18 951.236,739.123 926.072,739.123 "/>
<path clip-path="url(#clip372)" d="M951.236 499.703 L951.236 1423.18 L976.399 1423.18 L976.399 499.703 L951.236 499.703 L951.236 499.703  Z" fill="#009af9" fill-rule="evenodd" fill-opacity="1"/>
<polyline clip-path="url(#clip372)" style="stroke:#000000; stroke-linecap:round; stroke-linejoin:round; stroke-width:4; stroke-opacity:1; fill:none" points="951.236,499.703 951.236,1423.18 976.399,1423.18 976.399,499.703 951.236,499.703 "/>
<path clip-path="url(#clip372)" d="M976.399 568.109 L976.399 1423.18 L1001.56 1423.18 L1001.56 568.109 L976.399 568.109 L976.399 568.109  Z" fill="#009af9" fill-rule="evenodd" fill-opacity="1"/>
<polyline clip-path="url(#clip372)" style="stroke:#000000; stroke-linecap:round; stroke-linejoin:round; stroke-width:4; stroke-opacity:1; fill:none" points="976.399,568.109 976.399,1423.18 1001.56,1423.18 1001.56,568.109 976.399,568.109 "/>
<path clip-path="url(#clip372)" d="M1001.56 533.906 L1001.56 1423.18 L1026.73 1423.18 L1026.73 533.906 L1001.56 533.906 L1001.56 533.906  Z" fill="#009af9" fill-rule="evenodd" fill-opacity="1"/>
<polyline clip-path="url(#clip372)" style="stroke:#000000; stroke-linecap:round; stroke-linejoin:round; stroke-width:4; stroke-opacity:1; fill:none" points="1001.56,533.906 1001.56,1423.18 1026.73,1423.18 1026.73,533.906 1001.56,533.906 "/>
<path clip-path="url(#clip372)" d="M1026.73 431.298 L1026.73 1423.18 L1051.89 1423.18 L1051.89 431.298 L1026.73 431.298 L1026.73 431.298  Z" fill="#009af9" fill-rule="evenodd" fill-opacity="1"/>
<polyline clip-path="url(#clip372)" style="stroke:#000000; stroke-linecap:round; stroke-linejoin:round; stroke-width:4; stroke-opacity:1; fill:none" points="1026.73,431.298 1026.73,1423.18 1051.89,1423.18 1051.89,431.298 1026.73,431.298 "/>
<path clip-path="url(#clip372)" d="M1051.89 499.703 L1051.89 1423.18 L1077.05 1423.18 L1077.05 499.703 L1051.89 499.703 L1051.89 499.703  Z" fill="#009af9" fill-rule="evenodd" fill-opacity="1"/>
<polyline clip-path="url(#clip372)" style="stroke:#000000; stroke-linecap:round; stroke-linejoin:round; stroke-width:4; stroke-opacity:1; fill:none" points="1051.89,499.703 1051.89,1423.18 1077.05,1423.18 1077.05,499.703 1051.89,499.703 "/>
<path clip-path="url(#clip372)" d="M1077.05 602.312 L1077.05 1423.18 L1102.22 1423.18 L1102.22 602.312 L1077.05 602.312 L1077.05 602.312  Z" fill="#009af9" fill-rule="evenodd" fill-opacity="1"/>
<polyline clip-path="url(#clip372)" style="stroke:#000000; stroke-linecap:round; stroke-linejoin:round; stroke-width:4; stroke-opacity:1; fill:none" points="1077.05,602.312 1077.05,1423.18 1102.22,1423.18 1102.22,602.312 1077.05,602.312 "/>
<path clip-path="url(#clip372)" d="M1102.22 670.717 L1102.22 1423.18 L1127.38 1423.18 L1127.38 670.717 L1102.22 670.717 L1102.22 670.717  Z" fill="#009af9" fill-rule="evenodd" fill-opacity="1"/>
<polyline clip-path="url(#clip372)" style="stroke:#000000; stroke-linecap:round; stroke-linejoin:round; stroke-width:4; stroke-opacity:1; fill:none" points="1102.22,670.717 1102.22,1423.18 1127.38,1423.18 1127.38,670.717 1102.22,670.717 "/>
<path clip-path="url(#clip372)" d="M1127.38 431.298 L1127.38 1423.18 L1152.54 1423.18 L1152.54 431.298 L1127.38 431.298 L1127.38 431.298  Z" fill="#009af9" fill-rule="evenodd" fill-opacity="1"/>
<polyline clip-path="url(#clip372)" style="stroke:#000000; stroke-linecap:round; stroke-linejoin:round; stroke-width:4; stroke-opacity:1; fill:none" points="1127.38,431.298 1127.38,1423.18 1152.54,1423.18 1152.54,431.298 1127.38,431.298 "/>
<path clip-path="url(#clip372)" d="M1152.54 533.906 L1152.54 1423.18 L1177.71 1423.18 L1177.71 533.906 L1152.54 533.906 L1152.54 533.906  Z" fill="#009af9" fill-rule="evenodd" fill-opacity="1"/>
<polyline clip-path="url(#clip372)" style="stroke:#000000; stroke-linecap:round; stroke-linejoin:round; stroke-width:4; stroke-opacity:1; fill:none" points="1152.54,533.906 1152.54,1423.18 1177.71,1423.18 1177.71,533.906 1152.54,533.906 "/>
<path clip-path="url(#clip372)" d="M1177.71 704.92 L1177.71 1423.18 L1202.87 1423.18 L1202.87 704.92 L1177.71 704.92 L1177.71 704.92  Z" fill="#009af9" fill-rule="evenodd" fill-opacity="1"/>
<polyline clip-path="url(#clip372)" style="stroke:#000000; stroke-linecap:round; stroke-linejoin:round; stroke-width:4; stroke-opacity:1; fill:none" points="1177.71,704.92 1177.71,1423.18 1202.87,1423.18 1202.87,704.92 1177.71,704.92 "/>
<path clip-path="url(#clip372)" d="M1202.87 636.515 L1202.87 1423.18 L1228.03 1423.18 L1228.03 636.515 L1202.87 636.515 L1202.87 636.515  Z" fill="#009af9" fill-rule="evenodd" fill-opacity="1"/>
<polyline clip-path="url(#clip372)" style="stroke:#000000; stroke-linecap:round; stroke-linejoin:round; stroke-width:4; stroke-opacity:1; fill:none" points="1202.87,636.515 1202.87,1423.18 1228.03,1423.18 1228.03,636.515 1202.87,636.515 "/>
<path clip-path="url(#clip372)" d="M1228.03 704.92 L1228.03 1423.18 L1253.2 1423.18 L1253.2 704.92 L1228.03 704.92 L1228.03 704.92  Z" fill="#009af9" fill-rule="evenodd" fill-opacity="1"/>
<polyline clip-path="url(#clip372)" style="stroke:#000000; stroke-linecap:round; stroke-linejoin:round; stroke-width:4; stroke-opacity:1; fill:none" points="1228.03,704.92 1228.03,1423.18 1253.2,1423.18 1253.2,704.92 1228.03,704.92 "/>
<path clip-path="url(#clip372)" d="M1253.2 704.92 L1253.2 1423.18 L1278.36 1423.18 L1278.36 704.92 L1253.2 704.92 L1253.2 704.92  Z" fill="#009af9" fill-rule="evenodd" fill-opacity="1"/>
<polyline clip-path="url(#clip372)" style="stroke:#000000; stroke-linecap:round; stroke-linejoin:round; stroke-width:4; stroke-opacity:1; fill:none" points="1253.2,704.92 1253.2,1423.18 1278.36,1423.18 1278.36,704.92 1253.2,704.92 "/>
<path clip-path="url(#clip372)" d="M1278.36 636.515 L1278.36 1423.18 L1303.52 1423.18 L1303.52 636.515 L1278.36 636.515 L1278.36 636.515  Z" fill="#009af9" fill-rule="evenodd" fill-opacity="1"/>
<polyline clip-path="url(#clip372)" style="stroke:#000000; stroke-linecap:round; stroke-linejoin:round; stroke-width:4; stroke-opacity:1; fill:none" points="1278.36,636.515 1278.36,1423.18 1303.52,1423.18 1303.52,636.515 1278.36,636.515 "/>
<path clip-path="url(#clip372)" d="M1303.52 602.312 L1303.52 1423.18 L1328.69 1423.18 L1328.69 602.312 L1303.52 602.312 L1303.52 602.312  Z" fill="#009af9" fill-rule="evenodd" fill-opacity="1"/>
<polyline clip-path="url(#clip372)" style="stroke:#000000; stroke-linecap:round; stroke-linejoin:round; stroke-width:4; stroke-opacity:1; fill:none" points="1303.52,602.312 1303.52,1423.18 1328.69,1423.18 1328.69,602.312 1303.52,602.312 "/>
<path clip-path="url(#clip372)" d="M1328.69 499.703 L1328.69 1423.18 L1353.85 1423.18 L1353.85 499.703 L1328.69 499.703 L1328.69 499.703  Z" fill="#009af9" fill-rule="evenodd" fill-opacity="1"/>
<polyline clip-path="url(#clip372)" style="stroke:#000000; stroke-linecap:round; stroke-linejoin:round; stroke-width:4; stroke-opacity:1; fill:none" points="1328.69,499.703 1328.69,1423.18 1353.85,1423.18 1353.85,499.703 1328.69,499.703 "/>
<path clip-path="url(#clip372)" d="M1353.85 670.717 L1353.85 1423.18 L1379.01 1423.18 L1379.01 670.717 L1353.85 670.717 L1353.85 670.717  Z" fill="#009af9" fill-rule="evenodd" fill-opacity="1"/>
<polyline clip-path="url(#clip372)" style="stroke:#000000; stroke-linecap:round; stroke-linejoin:round; stroke-width:4; stroke-opacity:1; fill:none" points="1353.85,670.717 1353.85,1423.18 1379.01,1423.18 1379.01,670.717 1353.85,670.717 "/>
<path clip-path="url(#clip372)" d="M1379.01 773.326 L1379.01 1423.18 L1404.18 1423.18 L1404.18 773.326 L1379.01 773.326 L1379.01 773.326  Z" fill="#009af9" fill-rule="evenodd" fill-opacity="1"/>
<polyline clip-path="url(#clip372)" style="stroke:#000000; stroke-linecap:round; stroke-linejoin:round; stroke-width:4; stroke-opacity:1; fill:none" points="1379.01,773.326 1379.01,1423.18 1404.18,1423.18 1404.18,773.326 1379.01,773.326 "/>
<path clip-path="url(#clip372)" d="M1404.18 636.515 L1404.18 1423.18 L1429.34 1423.18 L1429.34 636.515 L1404.18 636.515 L1404.18 636.515  Z" fill="#009af9" fill-rule="evenodd" fill-opacity="1"/>
<polyline clip-path="url(#clip372)" style="stroke:#000000; stroke-linecap:round; stroke-linejoin:round; stroke-width:4; stroke-opacity:1; fill:none" points="1404.18,636.515 1404.18,1423.18 1429.34,1423.18 1429.34,636.515 1404.18,636.515 "/>
<path clip-path="url(#clip372)" d="M1429.34 773.326 L1429.34 1423.18 L1454.5 1423.18 L1454.5 773.326 L1429.34 773.326 L1429.34 773.326  Z" fill="#009af9" fill-rule="evenodd" fill-opacity="1"/>
<polyline clip-path="url(#clip372)" style="stroke:#000000; stroke-linecap:round; stroke-linejoin:round; stroke-width:4; stroke-opacity:1; fill:none" points="1429.34,773.326 1429.34,1423.18 1454.5,1423.18 1454.5,773.326 1429.34,773.326 "/>
<path clip-path="url(#clip372)" d="M1454.5 910.137 L1454.5 1423.18 L1479.67 1423.18 L1479.67 910.137 L1454.5 910.137 L1454.5 910.137  Z" fill="#009af9" fill-rule="evenodd" fill-opacity="1"/>
<polyline clip-path="url(#clip372)" style="stroke:#000000; stroke-linecap:round; stroke-linejoin:round; stroke-width:4; stroke-opacity:1; fill:none" points="1454.5,910.137 1454.5,1423.18 1479.67,1423.18 1479.67,910.137 1454.5,910.137 "/>
<path clip-path="url(#clip372)" d="M1479.67 841.732 L1479.67 1423.18 L1504.83 1423.18 L1504.83 841.732 L1479.67 841.732 L1479.67 841.732  Z" fill="#009af9" fill-rule="evenodd" fill-opacity="1"/>
<polyline clip-path="url(#clip372)" style="stroke:#000000; stroke-linecap:round; stroke-linejoin:round; stroke-width:4; stroke-opacity:1; fill:none" points="1479.67,841.732 1479.67,1423.18 1504.83,1423.18 1504.83,841.732 1479.67,841.732 "/>
<path clip-path="url(#clip372)" d="M1504.83 875.934 L1504.83 1423.18 L1529.99 1423.18 L1529.99 875.934 L1504.83 875.934 L1504.83 875.934  Z" fill="#009af9" fill-rule="evenodd" fill-opacity="1"/>
<polyline clip-path="url(#clip372)" style="stroke:#000000; stroke-linecap:round; stroke-linejoin:round; stroke-width:4; stroke-opacity:1; fill:none" points="1504.83,875.934 1504.83,1423.18 1529.99,1423.18 1529.99,875.934 1504.83,875.934 "/>
<path clip-path="url(#clip372)" d="M1529.99 636.515 L1529.99 1423.18 L1555.16 1423.18 L1555.16 636.515 L1529.99 636.515 L1529.99 636.515  Z" fill="#009af9" fill-rule="evenodd" fill-opacity="1"/>
<polyline clip-path="url(#clip372)" style="stroke:#000000; stroke-linecap:round; stroke-linejoin:round; stroke-width:4; stroke-opacity:1; fill:none" points="1529.99,636.515 1529.99,1423.18 1555.16,1423.18 1555.16,636.515 1529.99,636.515 "/>
<path clip-path="url(#clip372)" d="M1555.16 704.92 L1555.16 1423.18 L1580.32 1423.18 L1580.32 704.92 L1555.16 704.92 L1555.16 704.92  Z" fill="#009af9" fill-rule="evenodd" fill-opacity="1"/>
<polyline clip-path="url(#clip372)" style="stroke:#000000; stroke-linecap:round; stroke-linejoin:round; stroke-width:4; stroke-opacity:1; fill:none" points="1555.16,704.92 1555.16,1423.18 1580.32,1423.18 1580.32,704.92 1555.16,704.92 "/>
<path clip-path="url(#clip372)" d="M1580.32 1012.75 L1580.32 1423.18 L1605.48 1423.18 L1605.48 1012.75 L1580.32 1012.75 L1580.32 1012.75  Z" fill="#009af9" fill-rule="evenodd" fill-opacity="1"/>
<polyline clip-path="url(#clip372)" style="stroke:#000000; stroke-linecap:round; stroke-linejoin:round; stroke-width:4; stroke-opacity:1; fill:none" points="1580.32,1012.75 1580.32,1423.18 1605.48,1423.18 1605.48,1012.75 1580.32,1012.75 "/>
<path clip-path="url(#clip372)" d="M1605.48 875.934 L1605.48 1423.18 L1630.65 1423.18 L1630.65 875.934 L1605.48 875.934 L1605.48 875.934  Z" fill="#009af9" fill-rule="evenodd" fill-opacity="1"/>
<polyline clip-path="url(#clip372)" style="stroke:#000000; stroke-linecap:round; stroke-linejoin:round; stroke-width:4; stroke-opacity:1; fill:none" points="1605.48,875.934 1605.48,1423.18 1630.65,1423.18 1630.65,875.934 1605.48,875.934 "/>
<path clip-path="url(#clip372)" d="M1630.65 807.529 L1630.65 1423.18 L1655.81 1423.18 L1655.81 807.529 L1630.65 807.529 L1630.65 807.529  Z" fill="#009af9" fill-rule="evenodd" fill-opacity="1"/>
<polyline clip-path="url(#clip372)" style="stroke:#000000; stroke-linecap:round; stroke-linejoin:round; stroke-width:4; stroke-opacity:1; fill:none" points="1630.65,807.529 1630.65,1423.18 1655.81,1423.18 1655.81,807.529 1630.65,807.529 "/>
<path clip-path="url(#clip372)" d="M1655.81 568.109 L1655.81 1423.18 L1680.97 1423.18 L1680.97 568.109 L1655.81 568.109 L1655.81 568.109  Z" fill="#009af9" fill-rule="evenodd" fill-opacity="1"/>
<polyline clip-path="url(#clip372)" style="stroke:#000000; stroke-linecap:round; stroke-linejoin:round; stroke-width:4; stroke-opacity:1; fill:none" points="1655.81,568.109 1655.81,1423.18 1680.97,1423.18 1680.97,568.109 1655.81,568.109 "/>
<path clip-path="url(#clip372)" d="M1680.97 807.529 L1680.97 1423.18 L1706.14 1423.18 L1706.14 807.529 L1680.97 807.529 L1680.97 807.529  Z" fill="#009af9" fill-rule="evenodd" fill-opacity="1"/>
<polyline clip-path="url(#clip372)" style="stroke:#000000; stroke-linecap:round; stroke-linejoin:round; stroke-width:4; stroke-opacity:1; fill:none" points="1680.97,807.529 1680.97,1423.18 1706.14,1423.18 1706.14,807.529 1680.97,807.529 "/>
<path clip-path="url(#clip372)" d="M1706.14 841.732 L1706.14 1423.18 L1731.3 1423.18 L1731.3 841.732 L1706.14 841.732 L1706.14 841.732  Z" fill="#009af9" fill-rule="evenodd" fill-opacity="1"/>
<polyline clip-path="url(#clip372)" style="stroke:#000000; stroke-linecap:round; stroke-linejoin:round; stroke-width:4; stroke-opacity:1; fill:none" points="1706.14,841.732 1706.14,1423.18 1731.3,1423.18 1731.3,841.732 1706.14,841.732 "/>
<path clip-path="url(#clip372)" d="M1731.3 841.732 L1731.3 1423.18 L1756.46 1423.18 L1756.46 841.732 L1731.3 841.732 L1731.3 841.732  Z" fill="#009af9" fill-rule="evenodd" fill-opacity="1"/>
<polyline clip-path="url(#clip372)" style="stroke:#000000; stroke-linecap:round; stroke-linejoin:round; stroke-width:4; stroke-opacity:1; fill:none" points="1731.3,841.732 1731.3,1423.18 1756.46,1423.18 1756.46,841.732 1731.3,841.732 "/>
<path clip-path="url(#clip372)" d="M1756.46 704.92 L1756.46 1423.18 L1781.63 1423.18 L1781.63 704.92 L1756.46 704.92 L1756.46 704.92  Z" fill="#009af9" fill-rule="evenodd" fill-opacity="1"/>
<polyline clip-path="url(#clip372)" style="stroke:#000000; stroke-linecap:round; stroke-linejoin:round; stroke-width:4; stroke-opacity:1; fill:none" points="1756.46,704.92 1756.46,1423.18 1781.63,1423.18 1781.63,704.92 1756.46,704.92 "/>
<path clip-path="url(#clip372)" d="M1781.63 910.137 L1781.63 1423.18 L1806.79 1423.18 L1806.79 910.137 L1781.63 910.137 L1781.63 910.137  Z" fill="#009af9" fill-rule="evenodd" fill-opacity="1"/>
<polyline clip-path="url(#clip372)" style="stroke:#000000; stroke-linecap:round; stroke-linejoin:round; stroke-width:4; stroke-opacity:1; fill:none" points="1781.63,910.137 1781.63,1423.18 1806.79,1423.18 1806.79,910.137 1781.63,910.137 "/>
<path clip-path="url(#clip372)" d="M1806.79 944.34 L1806.79 1423.18 L1831.95 1423.18 L1831.95 944.34 L1806.79 944.34 L1806.79 944.34  Z" fill="#009af9" fill-rule="evenodd" fill-opacity="1"/>
<polyline clip-path="url(#clip372)" style="stroke:#000000; stroke-linecap:round; stroke-linejoin:round; stroke-width:4; stroke-opacity:1; fill:none" points="1806.79,944.34 1806.79,1423.18 1831.95,1423.18 1831.95,944.34 1806.79,944.34 "/>
<path clip-path="url(#clip372)" d="M1831.95 1081.15 L1831.95 1423.18 L1857.12 1423.18 L1857.12 1081.15 L1831.95 1081.15 L1831.95 1081.15  Z" fill="#009af9" fill-rule="evenodd" fill-opacity="1"/>
<polyline clip-path="url(#clip372)" style="stroke:#000000; stroke-linecap:round; stroke-linejoin:round; stroke-width:4; stroke-opacity:1; fill:none" points="1831.95,1081.15 1831.95,1423.18 1857.12,1423.18 1857.12,1081.15 1831.95,1081.15 "/>
<path clip-path="url(#clip372)" d="M1857.12 841.732 L1857.12 1423.18 L1882.28 1423.18 L1882.28 841.732 L1857.12 841.732 L1857.12 841.732  Z" fill="#009af9" fill-rule="evenodd" fill-opacity="1"/>
<polyline clip-path="url(#clip372)" style="stroke:#000000; stroke-linecap:round; stroke-linejoin:round; stroke-width:4; stroke-opacity:1; fill:none" points="1857.12,841.732 1857.12,1423.18 1882.28,1423.18 1882.28,841.732 1857.12,841.732 "/>
<path clip-path="url(#clip372)" d="M1882.28 1046.95 L1882.28 1423.18 L1907.44 1423.18 L1907.44 1046.95 L1882.28 1046.95 L1882.28 1046.95  Z" fill="#009af9" fill-rule="evenodd" fill-opacity="1"/>
<polyline clip-path="url(#clip372)" style="stroke:#000000; stroke-linecap:round; stroke-linejoin:round; stroke-width:4; stroke-opacity:1; fill:none" points="1882.28,1046.95 1882.28,1423.18 1907.44,1423.18 1907.44,1046.95 1882.28,1046.95 "/>
<path clip-path="url(#clip372)" d="M1907.44 875.934 L1907.44 1423.18 L1932.61 1423.18 L1932.61 875.934 L1907.44 875.934 L1907.44 875.934  Z" fill="#009af9" fill-rule="evenodd" fill-opacity="1"/>
<polyline clip-path="url(#clip372)" style="stroke:#000000; stroke-linecap:round; stroke-linejoin:round; stroke-width:4; stroke-opacity:1; fill:none" points="1907.44,875.934 1907.44,1423.18 1932.61,1423.18 1932.61,875.934 1907.44,875.934 "/>
<path clip-path="url(#clip372)" d="M1932.61 944.34 L1932.61 1423.18 L1957.77 1423.18 L1957.77 944.34 L1932.61 944.34 L1932.61 944.34  Z" fill="#009af9" fill-rule="evenodd" fill-opacity="1"/>
<polyline clip-path="url(#clip372)" style="stroke:#000000; stroke-linecap:round; stroke-linejoin:round; stroke-width:4; stroke-opacity:1; fill:none" points="1932.61,944.34 1932.61,1423.18 1957.77,1423.18 1957.77,944.34 1932.61,944.34 "/>
<path clip-path="url(#clip372)" d="M1957.77 1012.75 L1957.77 1423.18 L1982.93 1423.18 L1982.93 1012.75 L1957.77 1012.75 L1957.77 1012.75  Z" fill="#009af9" fill-rule="evenodd" fill-opacity="1"/>
<polyline clip-path="url(#clip372)" style="stroke:#000000; stroke-linecap:round; stroke-linejoin:round; stroke-width:4; stroke-opacity:1; fill:none" points="1957.77,1012.75 1957.77,1423.18 1982.93,1423.18 1982.93,1012.75 1957.77,1012.75 "/>
<path clip-path="url(#clip372)" d="M1982.93 978.543 L1982.93 1423.18 L2008.1 1423.18 L2008.1 978.543 L1982.93 978.543 L1982.93 978.543  Z" fill="#009af9" fill-rule="evenodd" fill-opacity="1"/>
<polyline clip-path="url(#clip372)" style="stroke:#000000; stroke-linecap:round; stroke-linejoin:round; stroke-width:4; stroke-opacity:1; fill:none" points="1982.93,978.543 1982.93,1423.18 2008.1,1423.18 2008.1,978.543 1982.93,978.543 "/>
<path clip-path="url(#clip372)" d="M2008.1 841.732 L2008.1 1423.18 L2033.26 1423.18 L2033.26 841.732 L2008.1 841.732 L2008.1 841.732  Z" fill="#009af9" fill-rule="evenodd" fill-opacity="1"/>
<polyline clip-path="url(#clip372)" style="stroke:#000000; stroke-linecap:round; stroke-linejoin:round; stroke-width:4; stroke-opacity:1; fill:none" points="2008.1,841.732 2008.1,1423.18 2033.26,1423.18 2033.26,841.732 2008.1,841.732 "/>
<path clip-path="url(#clip372)" d="M2033.26 670.717 L2033.26 1423.18 L2058.42 1423.18 L2058.42 670.717 L2033.26 670.717 L2033.26 670.717  Z" fill="#009af9" fill-rule="evenodd" fill-opacity="1"/>
<polyline clip-path="url(#clip372)" style="stroke:#000000; stroke-linecap:round; stroke-linejoin:round; stroke-width:4; stroke-opacity:1; fill:none" points="2033.26,670.717 2033.26,1423.18 2058.42,1423.18 2058.42,670.717 2033.26,670.717 "/>
<path clip-path="url(#clip372)" d="M2058.42 807.529 L2058.42 1423.18 L2083.59 1423.18 L2083.59 807.529 L2058.42 807.529 L2058.42 807.529  Z" fill="#009af9" fill-rule="evenodd" fill-opacity="1"/>
<polyline clip-path="url(#clip372)" style="stroke:#000000; stroke-linecap:round; stroke-linejoin:round; stroke-width:4; stroke-opacity:1; fill:none" points="2058.42,807.529 2058.42,1423.18 2083.59,1423.18 2083.59,807.529 2058.42,807.529 "/>
<path clip-path="url(#clip372)" d="M2083.59 704.92 L2083.59 1423.18 L2108.75 1423.18 L2108.75 704.92 L2083.59 704.92 L2083.59 704.92  Z" fill="#009af9" fill-rule="evenodd" fill-opacity="1"/>
<polyline clip-path="url(#clip372)" style="stroke:#000000; stroke-linecap:round; stroke-linejoin:round; stroke-width:4; stroke-opacity:1; fill:none" points="2083.59,704.92 2083.59,1423.18 2108.75,1423.18 2108.75,704.92 2083.59,704.92 "/>
<path clip-path="url(#clip372)" d="M2108.75 875.934 L2108.75 1423.18 L2133.91 1423.18 L2133.91 875.934 L2108.75 875.934 L2108.75 875.934  Z" fill="#009af9" fill-rule="evenodd" fill-opacity="1"/>
<polyline clip-path="url(#clip372)" style="stroke:#000000; stroke-linecap:round; stroke-linejoin:round; stroke-width:4; stroke-opacity:1; fill:none" points="2108.75,875.934 2108.75,1423.18 2133.91,1423.18 2133.91,875.934 2108.75,875.934 "/>
<path clip-path="url(#clip372)" d="M2133.91 841.732 L2133.91 1423.18 L2159.08 1423.18 L2159.08 841.732 L2133.91 841.732 L2133.91 841.732  Z" fill="#009af9" fill-rule="evenodd" fill-opacity="1"/>
<polyline clip-path="url(#clip372)" style="stroke:#000000; stroke-linecap:round; stroke-linejoin:round; stroke-width:4; stroke-opacity:1; fill:none" points="2133.91,841.732 2133.91,1423.18 2159.08,1423.18 2159.08,841.732 2133.91,841.732 "/>
<path clip-path="url(#clip372)" d="M2159.08 1046.95 L2159.08 1423.18 L2184.24 1423.18 L2184.24 1046.95 L2159.08 1046.95 L2159.08 1046.95  Z" fill="#009af9" fill-rule="evenodd" fill-opacity="1"/>
<polyline clip-path="url(#clip372)" style="stroke:#000000; stroke-linecap:round; stroke-linejoin:round; stroke-width:4; stroke-opacity:1; fill:none" points="2159.08,1046.95 2159.08,1423.18 2184.24,1423.18 2184.24,1046.95 2159.08,1046.95 "/>
<path clip-path="url(#clip372)" d="M2184.24 704.92 L2184.24 1423.18 L2209.41 1423.18 L2209.41 704.92 L2184.24 704.92 L2184.24 704.92  Z" fill="#009af9" fill-rule="evenodd" fill-opacity="1"/>
<polyline clip-path="url(#clip372)" style="stroke:#000000; stroke-linecap:round; stroke-linejoin:round; stroke-width:4; stroke-opacity:1; fill:none" points="2184.24,704.92 2184.24,1423.18 2209.41,1423.18 2209.41,704.92 2184.24,704.92 "/>
<path clip-path="url(#clip372)" d="M2209.41 1149.56 L2209.41 1423.18 L2234.57 1423.18 L2234.57 1149.56 L2209.41 1149.56 L2209.41 1149.56  Z" fill="#009af9" fill-rule="evenodd" fill-opacity="1"/>
<polyline clip-path="url(#clip372)" style="stroke:#000000; stroke-linecap:round; stroke-linejoin:round; stroke-width:4; stroke-opacity:1; fill:none" points="2209.41,1149.56 2209.41,1423.18 2234.57,1423.18 2234.57,1149.56 2209.41,1149.56 "/>
<circle clip-path="url(#clip372)" style="fill:#009af9; stroke:none; fill-opacity:0" cx="334.733" cy="739.123" r="2"/>
<circle clip-path="url(#clip372)" style="fill:#009af9; stroke:none; fill-opacity:0" cx="359.896" cy="294.486" r="2"/>
<circle clip-path="url(#clip372)" style="fill:#009af9; stroke:none; fill-opacity:0" cx="385.059" cy="328.689" r="2"/>
<circle clip-path="url(#clip372)" style="fill:#009af9; stroke:none; fill-opacity:0" cx="410.223" cy="260.283" r="2"/>
<circle clip-path="url(#clip372)" style="fill:#009af9; stroke:none; fill-opacity:0" cx="435.386" cy="431.298" r="2"/>
<circle clip-path="url(#clip372)" style="fill:#009af9; stroke:none; fill-opacity:0" cx="460.55" cy="123.472" r="2"/>
<circle clip-path="url(#clip372)" style="fill:#009af9; stroke:none; fill-opacity:0" cx="485.713" cy="533.906" r="2"/>
<circle clip-path="url(#clip372)" style="fill:#009af9; stroke:none; fill-opacity:0" cx="510.876" cy="499.703" r="2"/>
<circle clip-path="url(#clip372)" style="fill:#009af9; stroke:none; fill-opacity:0" cx="536.04" cy="807.529" r="2"/>
<circle clip-path="url(#clip372)" style="fill:#009af9; stroke:none; fill-opacity:0" cx="561.203" cy="362.892" r="2"/>
<circle clip-path="url(#clip372)" style="fill:#009af9; stroke:none; fill-opacity:0" cx="586.367" cy="533.906" r="2"/>
<circle clip-path="url(#clip372)" style="fill:#009af9; stroke:none; fill-opacity:0" cx="611.53" cy="636.515" r="2"/>
<circle clip-path="url(#clip372)" style="fill:#009af9; stroke:none; fill-opacity:0" cx="636.693" cy="397.095" r="2"/>
<circle clip-path="url(#clip372)" style="fill:#009af9; stroke:none; fill-opacity:0" cx="661.857" cy="533.906" r="2"/>
<circle clip-path="url(#clip372)" style="fill:#009af9; stroke:none; fill-opacity:0" cx="687.02" cy="773.326" r="2"/>
<circle clip-path="url(#clip372)" style="fill:#009af9; stroke:none; fill-opacity:0" cx="712.183" cy="431.298" r="2"/>
<circle clip-path="url(#clip372)" style="fill:#009af9; stroke:none; fill-opacity:0" cx="737.347" cy="568.109" r="2"/>
<circle clip-path="url(#clip372)" style="fill:#009af9; stroke:none; fill-opacity:0" cx="762.51" cy="568.109" r="2"/>
<circle clip-path="url(#clip372)" style="fill:#009af9; stroke:none; fill-opacity:0" cx="787.674" cy="602.312" r="2"/>
<circle clip-path="url(#clip372)" style="fill:#009af9; stroke:none; fill-opacity:0" cx="812.837" cy="636.515" r="2"/>
<circle clip-path="url(#clip372)" style="fill:#009af9; stroke:none; fill-opacity:0" cx="838" cy="328.689" r="2"/>
<circle clip-path="url(#clip372)" style="fill:#009af9; stroke:none; fill-opacity:0" cx="863.164" cy="602.312" r="2"/>
<circle clip-path="url(#clip372)" style="fill:#009af9; stroke:none; fill-opacity:0" cx="888.327" cy="568.109" r="2"/>
<circle clip-path="url(#clip372)" style="fill:#009af9; stroke:none; fill-opacity:0" cx="913.491" cy="568.109" r="2"/>
<circle clip-path="url(#clip372)" style="fill:#009af9; stroke:none; fill-opacity:0" cx="938.654" cy="739.123" r="2"/>
<circle clip-path="url(#clip372)" style="fill:#009af9; stroke:none; fill-opacity:0" cx="963.817" cy="499.703" r="2"/>
<circle clip-path="url(#clip372)" style="fill:#009af9; stroke:none; fill-opacity:0" cx="988.981" cy="568.109" r="2"/>
<circle clip-path="url(#clip372)" style="fill:#009af9; stroke:none; fill-opacity:0" cx="1014.14" cy="533.906" r="2"/>
<circle clip-path="url(#clip372)" style="fill:#009af9; stroke:none; fill-opacity:0" cx="1039.31" cy="431.298" r="2"/>
<circle clip-path="url(#clip372)" style="fill:#009af9; stroke:none; fill-opacity:0" cx="1064.47" cy="499.703" r="2"/>
<circle clip-path="url(#clip372)" style="fill:#009af9; stroke:none; fill-opacity:0" cx="1089.63" cy="602.312" r="2"/>
<circle clip-path="url(#clip372)" style="fill:#009af9; stroke:none; fill-opacity:0" cx="1114.8" cy="670.717" r="2"/>
<circle clip-path="url(#clip372)" style="fill:#009af9; stroke:none; fill-opacity:0" cx="1139.96" cy="431.298" r="2"/>
<circle clip-path="url(#clip372)" style="fill:#009af9; stroke:none; fill-opacity:0" cx="1165.12" cy="533.906" r="2"/>
<circle clip-path="url(#clip372)" style="fill:#009af9; stroke:none; fill-opacity:0" cx="1190.29" cy="704.92" r="2"/>
<circle clip-path="url(#clip372)" style="fill:#009af9; stroke:none; fill-opacity:0" cx="1215.45" cy="636.515" r="2"/>
<circle clip-path="url(#clip372)" style="fill:#009af9; stroke:none; fill-opacity:0" cx="1240.61" cy="704.92" r="2"/>
<circle clip-path="url(#clip372)" style="fill:#009af9; stroke:none; fill-opacity:0" cx="1265.78" cy="704.92" r="2"/>
<circle clip-path="url(#clip372)" style="fill:#009af9; stroke:none; fill-opacity:0" cx="1290.94" cy="636.515" r="2"/>
<circle clip-path="url(#clip372)" style="fill:#009af9; stroke:none; fill-opacity:0" cx="1316.1" cy="602.312" r="2"/>
<circle clip-path="url(#clip372)" style="fill:#009af9; stroke:none; fill-opacity:0" cx="1341.27" cy="499.703" r="2"/>
<circle clip-path="url(#clip372)" style="fill:#009af9; stroke:none; fill-opacity:0" cx="1366.43" cy="670.717" r="2"/>
<circle clip-path="url(#clip372)" style="fill:#009af9; stroke:none; fill-opacity:0" cx="1391.59" cy="773.326" r="2"/>
<circle clip-path="url(#clip372)" style="fill:#009af9; stroke:none; fill-opacity:0" cx="1416.76" cy="636.515" r="2"/>
<circle clip-path="url(#clip372)" style="fill:#009af9; stroke:none; fill-opacity:0" cx="1441.92" cy="773.326" r="2"/>
<circle clip-path="url(#clip372)" style="fill:#009af9; stroke:none; fill-opacity:0" cx="1467.09" cy="910.137" r="2"/>
<circle clip-path="url(#clip372)" style="fill:#009af9; stroke:none; fill-opacity:0" cx="1492.25" cy="841.732" r="2"/>
<circle clip-path="url(#clip372)" style="fill:#009af9; stroke:none; fill-opacity:0" cx="1517.41" cy="875.934" r="2"/>
<circle clip-path="url(#clip372)" style="fill:#009af9; stroke:none; fill-opacity:0" cx="1542.58" cy="636.515" r="2"/>
<circle clip-path="url(#clip372)" style="fill:#009af9; stroke:none; fill-opacity:0" cx="1567.74" cy="704.92" r="2"/>
<circle clip-path="url(#clip372)" style="fill:#009af9; stroke:none; fill-opacity:0" cx="1592.9" cy="1012.75" r="2"/>
<circle clip-path="url(#clip372)" style="fill:#009af9; stroke:none; fill-opacity:0" cx="1618.07" cy="875.934" r="2"/>
<circle clip-path="url(#clip372)" style="fill:#009af9; stroke:none; fill-opacity:0" cx="1643.23" cy="807.529" r="2"/>
<circle clip-path="url(#clip372)" style="fill:#009af9; stroke:none; fill-opacity:0" cx="1668.39" cy="568.109" r="2"/>
<circle clip-path="url(#clip372)" style="fill:#009af9; stroke:none; fill-opacity:0" cx="1693.56" cy="807.529" r="2"/>
<circle clip-path="url(#clip372)" style="fill:#009af9; stroke:none; fill-opacity:0" cx="1718.72" cy="841.732" r="2"/>
<circle clip-path="url(#clip372)" style="fill:#009af9; stroke:none; fill-opacity:0" cx="1743.88" cy="841.732" r="2"/>
<circle clip-path="url(#clip372)" style="fill:#009af9; stroke:none; fill-opacity:0" cx="1769.05" cy="704.92" r="2"/>
<circle clip-path="url(#clip372)" style="fill:#009af9; stroke:none; fill-opacity:0" cx="1794.21" cy="910.137" r="2"/>
<circle clip-path="url(#clip372)" style="fill:#009af9; stroke:none; fill-opacity:0" cx="1819.37" cy="944.34" r="2"/>
<circle clip-path="url(#clip372)" style="fill:#009af9; stroke:none; fill-opacity:0" cx="1844.54" cy="1081.15" r="2"/>
<circle clip-path="url(#clip372)" style="fill:#009af9; stroke:none; fill-opacity:0" cx="1869.7" cy="841.732" r="2"/>
<circle clip-path="url(#clip372)" style="fill:#009af9; stroke:none; fill-opacity:0" cx="1894.86" cy="1046.95" r="2"/>
<circle clip-path="url(#clip372)" style="fill:#009af9; stroke:none; fill-opacity:0" cx="1920.03" cy="875.934" r="2"/>
<circle clip-path="url(#clip372)" style="fill:#009af9; stroke:none; fill-opacity:0" cx="1945.19" cy="944.34" r="2"/>
<circle clip-path="url(#clip372)" style="fill:#009af9; stroke:none; fill-opacity:0" cx="1970.35" cy="1012.75" r="2"/>
<circle clip-path="url(#clip372)" style="fill:#009af9; stroke:none; fill-opacity:0" cx="1995.52" cy="978.543" r="2"/>
<circle clip-path="url(#clip372)" style="fill:#009af9; stroke:none; fill-opacity:0" cx="2020.68" cy="841.732" r="2"/>
<circle clip-path="url(#clip372)" style="fill:#009af9; stroke:none; fill-opacity:0" cx="2045.84" cy="670.717" r="2"/>
<circle clip-path="url(#clip372)" style="fill:#009af9; stroke:none; fill-opacity:0" cx="2071.01" cy="807.529" r="2"/>
<circle clip-path="url(#clip372)" style="fill:#009af9; stroke:none; fill-opacity:0" cx="2096.17" cy="704.92" r="2"/>
<circle clip-path="url(#clip372)" style="fill:#009af9; stroke:none; fill-opacity:0" cx="2121.33" cy="875.934" r="2"/>
<circle clip-path="url(#clip372)" style="fill:#009af9; stroke:none; fill-opacity:0" cx="2146.5" cy="841.732" r="2"/>
<circle clip-path="url(#clip372)" style="fill:#009af9; stroke:none; fill-opacity:0" cx="2171.66" cy="1046.95" r="2"/>
<circle clip-path="url(#clip372)" style="fill:#009af9; stroke:none; fill-opacity:0" cx="2196.82" cy="704.92" r="2"/>
<circle clip-path="url(#clip372)" style="fill:#009af9; stroke:none; fill-opacity:0" cx="2221.99" cy="1149.56" r="2"/>
<path clip-path="url(#clip370)" d="M2013.82 270.476 L2281.13 270.476 L2281.13 166.796 L2013.82 166.796  Z" fill="#ffffff" fill-rule="evenodd" fill-opacity="1"/>
<polyline clip-path="url(#clip370)" style="stroke:#000000; stroke-linecap:round; stroke-linejoin:round; stroke-width:4; stroke-opacity:1; fill:none" points="2013.82,270.476 2281.13,270.476 2281.13,166.796 2013.82,166.796 2013.82,270.476 "/>
<path clip-path="url(#clip370)" d="M2037.7 239.372 L2180.95 239.372 L2180.95 197.9 L2037.7 197.9 L2037.7 239.372  Z" fill="#009af9" fill-rule="evenodd" fill-opacity="1"/>
<polyline clip-path="url(#clip370)" style="stroke:#000000; stroke-linecap:round; stroke-linejoin:round; stroke-width:4; stroke-opacity:1; fill:none" points="2037.7,239.372 2180.95,239.372 2180.95,197.9 2037.7,197.9 2037.7,239.372 "/>
<path clip-path="url(#clip370)" d="M2218.67 238.323 Q2216.86 242.953 2215.15 244.365 Q2213.43 245.777 2210.56 245.777 L2207.16 245.777 L2207.16 242.212 L2209.66 242.212 Q2211.42 242.212 2212.39 241.379 Q2213.37 240.545 2214.55 237.443 L2215.31 235.499 L2204.82 209.99 L2209.34 209.99 L2217.44 230.268 L2225.54 209.99 L2230.06 209.99 L2218.67 238.323 Z" fill="#000000" fill-rule="nonzero" fill-opacity="1" /><path clip-path="url(#clip370)" d="M2237.35 231.981 L2244.99 231.981 L2244.99 205.615 L2236.68 207.282 L2236.68 203.022 L2244.94 201.356 L2249.62 201.356 L2249.62 231.981 L2257.25 231.981 L2257.25 235.916 L2237.35 235.916 L2237.35 231.981 Z" fill="#000000" fill-rule="nonzero" fill-opacity="1" /></svg>
