<?xml version="1.0" encoding="utf-8"?>
<svg xmlns="http://www.w3.org/2000/svg" xmlns:xlink="http://www.w3.org/1999/xlink" width="600" height="400" viewBox="0 0 2400 1600">
<defs>
  <clipPath id="clip040">
    <rect x="0" y="0" width="2400" height="1600"/>
  </clipPath>
</defs>
<path clip-path="url(#clip040)" d="M0 1600 L2400 1600 L2400 0 L0 0  Z" fill="#ffffff" fill-rule="evenodd" fill-opacity="1"/>
<defs>
  <clipPath id="clip041">
    <rect x="480" y="0" width="1681" height="1600"/>
  </clipPath>
</defs>
<path clip-path="url(#clip040)" d="M399.777 1423.18 L2352.76 1423.18 L2352.76 123.472 L399.777 123.472  Z" fill="#ffffff" fill-rule="evenodd" fill-opacity="1"/>
<defs>
  <clipPath id="clip042">
    <rect x="399" y="123" width="1954" height="1301"/>
  </clipPath>
</defs>
<polyline clip-path="url(#clip042)" style="stroke:#000000; stroke-linecap:round; stroke-linejoin:round; stroke-width:2; stroke-opacity:0.1; fill:none" points="455.05,1423.18 455.05,123.472 "/>
<polyline clip-path="url(#clip042)" style="stroke:#000000; stroke-linecap:round; stroke-linejoin:round; stroke-width:2; stroke-opacity:0.1; fill:none" points="915.658,1423.18 915.658,123.472 "/>
<polyline clip-path="url(#clip042)" style="stroke:#000000; stroke-linecap:round; stroke-linejoin:round; stroke-width:2; stroke-opacity:0.1; fill:none" points="1376.27,1423.18 1376.27,123.472 "/>
<polyline clip-path="url(#clip042)" style="stroke:#000000; stroke-linecap:round; stroke-linejoin:round; stroke-width:2; stroke-opacity:0.1; fill:none" points="1836.87,1423.18 1836.87,123.472 "/>
<polyline clip-path="url(#clip042)" style="stroke:#000000; stroke-linecap:round; stroke-linejoin:round; stroke-width:2; stroke-opacity:0.1; fill:none" points="2297.48,1423.18 2297.48,123.472 "/>
<polyline clip-path="url(#clip042)" style="stroke:#000000; stroke-linecap:round; stroke-linejoin:round; stroke-width:2; stroke-opacity:0.1; fill:none" points="399.777,1354.64 2352.76,1354.64 "/>
<polyline clip-path="url(#clip042)" style="stroke:#000000; stroke-linecap:round; stroke-linejoin:round; stroke-width:2; stroke-opacity:0.1; fill:none" points="399.777,1165.41 2352.76,1165.41 "/>
<polyline clip-path="url(#clip042)" style="stroke:#000000; stroke-linecap:round; stroke-linejoin:round; stroke-width:2; stroke-opacity:0.1; fill:none" points="399.777,976.174 2352.76,976.174 "/>
<polyline clip-path="url(#clip042)" style="stroke:#000000; stroke-linecap:round; stroke-linejoin:round; stroke-width:2; stroke-opacity:0.1; fill:none" points="399.777,786.942 2352.76,786.942 "/>
<polyline clip-path="url(#clip042)" style="stroke:#000000; stroke-linecap:round; stroke-linejoin:round; stroke-width:2; stroke-opacity:0.1; fill:none" points="399.777,597.71 2352.76,597.71 "/>
<polyline clip-path="url(#clip042)" style="stroke:#000000; stroke-linecap:round; stroke-linejoin:round; stroke-width:2; stroke-opacity:0.1; fill:none" points="399.777,408.478 2352.76,408.478 "/>
<polyline clip-path="url(#clip042)" style="stroke:#000000; stroke-linecap:round; stroke-linejoin:round; stroke-width:2; stroke-opacity:0.1; fill:none" points="399.777,219.246 2352.76,219.246 "/>
<polyline clip-path="url(#clip040)" style="stroke:#000000; stroke-linecap:round; stroke-linejoin:round; stroke-width:4; stroke-opacity:1; fill:none" points="399.777,1423.18 2352.76,1423.18 "/>
<polyline clip-path="url(#clip040)" style="stroke:#000000; stroke-linecap:round; stroke-linejoin:round; stroke-width:4; stroke-opacity:1; fill:none" points="455.05,1423.18 455.05,1404.28 "/>
<polyline clip-path="url(#clip040)" style="stroke:#000000; stroke-linecap:round; stroke-linejoin:round; stroke-width:4; stroke-opacity:1; fill:none" points="915.658,1423.18 915.658,1404.28 "/>
<polyline clip-path="url(#clip040)" style="stroke:#000000; stroke-linecap:round; stroke-linejoin:round; stroke-width:4; stroke-opacity:1; fill:none" points="1376.27,1423.18 1376.27,1404.28 "/>
<polyline clip-path="url(#clip040)" style="stroke:#000000; stroke-linecap:round; stroke-linejoin:round; stroke-width:4; stroke-opacity:1; fill:none" points="1836.87,1423.18 1836.87,1404.28 "/>
<polyline clip-path="url(#clip040)" style="stroke:#000000; stroke-linecap:round; stroke-linejoin:round; stroke-width:4; stroke-opacity:1; fill:none" points="2297.48,1423.18 2297.48,1404.28 "/>
<path clip-path="url(#clip040)" d="M407.122 1481.64 L414.761 1481.64 L414.761 1455.28 L406.451 1456.95 L406.451 1452.69 L414.715 1451.02 L419.391 1451.02 L419.391 1481.64 L427.029 1481.64 L427.029 1485.58 L407.122 1485.58 L407.122 1481.64 Z" fill="#000000" fill-rule="nonzero" fill-opacity="1" /><path clip-path="url(#clip040)" d="M446.474 1454.1 Q442.863 1454.1 441.034 1457.66 Q439.228 1461.2 439.228 1468.33 Q439.228 1475.44 441.034 1479.01 Q442.863 1482.55 446.474 1482.55 Q450.108 1482.55 451.913 1479.01 Q453.742 1475.44 453.742 1468.33 Q453.742 1461.2 451.913 1457.66 Q450.108 1454.1 446.474 1454.1 M446.474 1450.39 Q452.284 1450.39 455.339 1455 Q458.418 1459.58 458.418 1468.33 Q458.418 1477.06 455.339 1481.67 Q452.284 1486.25 446.474 1486.25 Q440.664 1486.25 437.585 1481.67 Q434.529 1477.06 434.529 1468.33 Q434.529 1459.58 437.585 1455 Q440.664 1450.39 446.474 1450.39 Z" fill="#000000" fill-rule="nonzero" fill-opacity="1" /><path clip-path="url(#clip040)" d="M466.636 1479.7 L471.52 1479.7 L471.52 1485.58 L466.636 1485.58 L466.636 1479.7 Z" fill="#000000" fill-rule="nonzero" fill-opacity="1" /><path clip-path="url(#clip040)" d="M491.705 1454.1 Q488.094 1454.1 486.265 1457.66 Q484.46 1461.2 484.46 1468.33 Q484.46 1475.44 486.265 1479.01 Q488.094 1482.55 491.705 1482.55 Q495.339 1482.55 497.145 1479.01 Q498.973 1475.44 498.973 1468.33 Q498.973 1461.2 497.145 1457.66 Q495.339 1454.1 491.705 1454.1 M491.705 1450.39 Q497.515 1450.39 500.571 1455 Q503.649 1459.58 503.649 1468.33 Q503.649 1477.06 500.571 1481.67 Q497.515 1486.25 491.705 1486.25 Q485.895 1486.25 482.816 1481.67 Q479.761 1477.06 479.761 1468.33 Q479.761 1459.58 482.816 1455 Q485.895 1450.39 491.705 1450.39 Z" fill="#000000" fill-rule="nonzero" fill-opacity="1" /><path clip-path="url(#clip040)" d="M868.228 1481.64 L875.867 1481.64 L875.867 1455.28 L867.557 1456.95 L867.557 1452.69 L875.821 1451.02 L880.496 1451.02 L880.496 1481.64 L888.135 1481.64 L888.135 1485.58 L868.228 1485.58 L868.228 1481.64 Z" fill="#000000" fill-rule="nonzero" fill-opacity="1" /><path clip-path="url(#clip040)" d="M907.58 1454.1 Q903.969 1454.1 902.14 1457.66 Q900.334 1461.2 900.334 1468.33 Q900.334 1475.44 902.14 1479.01 Q903.969 1482.55 907.58 1482.55 Q911.214 1482.55 913.019 1479.01 Q914.848 1475.44 914.848 1468.33 Q914.848 1461.2 913.019 1457.66 Q911.214 1454.1 907.58 1454.1 M907.58 1450.39 Q913.39 1450.39 916.445 1455 Q919.524 1459.58 919.524 1468.33 Q919.524 1477.06 916.445 1481.67 Q913.39 1486.25 907.58 1486.25 Q901.769 1486.25 898.691 1481.67 Q895.635 1477.06 895.635 1468.33 Q895.635 1459.58 898.691 1455 Q901.769 1450.39 907.58 1450.39 Z" fill="#000000" fill-rule="nonzero" fill-opacity="1" /><path clip-path="url(#clip040)" d="M927.742 1479.7 L932.626 1479.7 L932.626 1485.58 L927.742 1485.58 L927.742 1479.7 Z" fill="#000000" fill-rule="nonzero" fill-opacity="1" /><path clip-path="url(#clip040)" d="M942.857 1451.02 L961.214 1451.02 L961.214 1454.96 L947.14 1454.96 L947.14 1463.43 Q948.158 1463.08 949.177 1462.92 Q950.195 1462.73 951.214 1462.73 Q957.001 1462.73 960.38 1465.9 Q963.76 1469.08 963.76 1474.49 Q963.76 1480.07 960.288 1483.17 Q956.815 1486.25 950.496 1486.25 Q948.32 1486.25 946.052 1485.88 Q943.806 1485.51 941.399 1484.77 L941.399 1480.07 Q943.482 1481.2 945.704 1481.76 Q947.927 1482.32 950.403 1482.32 Q954.408 1482.32 956.746 1480.21 Q959.084 1478.1 959.084 1474.49 Q959.084 1470.88 956.746 1468.77 Q954.408 1466.67 950.403 1466.67 Q948.528 1466.67 946.653 1467.08 Q944.802 1467.5 942.857 1468.38 L942.857 1451.02 Z" fill="#000000" fill-rule="nonzero" fill-opacity="1" /><path clip-path="url(#clip040)" d="M1328.34 1481.64 L1335.98 1481.64 L1335.98 1455.28 L1327.67 1456.95 L1327.67 1452.69 L1335.93 1451.02 L1340.61 1451.02 L1340.61 1481.64 L1348.25 1481.64 L1348.25 1485.58 L1328.34 1485.58 L1328.34 1481.64 Z" fill="#000000" fill-rule="nonzero" fill-opacity="1" /><path clip-path="url(#clip040)" d="M1358.5 1481.64 L1366.14 1481.64 L1366.14 1455.28 L1357.83 1456.95 L1357.83 1452.69 L1366.09 1451.02 L1370.77 1451.02 L1370.77 1481.64 L1378.41 1481.64 L1378.41 1485.58 L1358.5 1485.58 L1358.5 1481.64 Z" fill="#000000" fill-rule="nonzero" fill-opacity="1" /><path clip-path="url(#clip040)" d="M1387.85 1479.7 L1392.74 1479.7 L1392.74 1485.58 L1387.85 1485.58 L1387.85 1479.7 Z" fill="#000000" fill-rule="nonzero" fill-opacity="1" /><path clip-path="url(#clip040)" d="M1412.92 1454.1 Q1409.31 1454.1 1407.48 1457.66 Q1405.68 1461.2 1405.68 1468.33 Q1405.68 1475.44 1407.48 1479.01 Q1409.31 1482.55 1412.92 1482.55 Q1416.56 1482.55 1418.36 1479.01 Q1420.19 1475.44 1420.19 1468.33 Q1420.19 1461.2 1418.36 1457.66 Q1416.56 1454.1 1412.92 1454.1 M1412.92 1450.39 Q1418.73 1450.39 1421.79 1455 Q1424.87 1459.58 1424.87 1468.33 Q1424.87 1477.06 1421.79 1481.67 Q1418.73 1486.25 1412.92 1486.25 Q1407.11 1486.25 1404.03 1481.67 Q1400.98 1477.06 1400.98 1468.33 Q1400.98 1459.58 1404.03 1455 Q1407.11 1450.39 1412.92 1450.39 Z" fill="#000000" fill-rule="nonzero" fill-opacity="1" /><path clip-path="url(#clip040)" d="M1789.44 1481.64 L1797.08 1481.64 L1797.08 1455.28 L1788.77 1456.95 L1788.77 1452.69 L1797.04 1451.02 L1801.71 1451.02 L1801.71 1481.64 L1809.35 1481.64 L1809.35 1485.58 L1789.44 1485.58 L1789.44 1481.64 Z" fill="#000000" fill-rule="nonzero" fill-opacity="1" /><path clip-path="url(#clip040)" d="M1819.61 1481.64 L1827.25 1481.64 L1827.25 1455.28 L1818.93 1456.95 L1818.93 1452.69 L1827.2 1451.02 L1831.87 1451.02 L1831.87 1481.64 L1839.51 1481.64 L1839.51 1485.58 L1819.61 1485.58 L1819.61 1481.64 Z" fill="#000000" fill-rule="nonzero" fill-opacity="1" /><path clip-path="url(#clip040)" d="M1848.96 1479.7 L1853.84 1479.7 L1853.84 1485.58 L1848.96 1485.58 L1848.96 1479.7 Z" fill="#000000" fill-rule="nonzero" fill-opacity="1" /><path clip-path="url(#clip040)" d="M1864.07 1451.02 L1882.43 1451.02 L1882.43 1454.96 L1868.36 1454.96 L1868.36 1463.43 Q1869.37 1463.08 1870.39 1462.92 Q1871.41 1462.73 1872.43 1462.73 Q1878.22 1462.73 1881.6 1465.9 Q1884.98 1469.08 1884.98 1474.49 Q1884.98 1480.07 1881.5 1483.17 Q1878.03 1486.25 1871.71 1486.25 Q1869.54 1486.25 1867.27 1485.88 Q1865.02 1485.51 1862.62 1484.77 L1862.62 1480.07 Q1864.7 1481.2 1866.92 1481.76 Q1869.14 1482.32 1871.62 1482.32 Q1875.62 1482.32 1877.96 1480.21 Q1880.3 1478.1 1880.3 1474.49 Q1880.3 1470.88 1877.96 1468.77 Q1875.62 1466.67 1871.62 1466.67 Q1869.74 1466.67 1867.87 1467.08 Q1866.02 1467.5 1864.07 1468.38 L1864.07 1451.02 Z" fill="#000000" fill-rule="nonzero" fill-opacity="1" /><path clip-path="url(#clip040)" d="M2249.55 1481.64 L2257.19 1481.64 L2257.19 1455.28 L2248.88 1456.95 L2248.88 1452.69 L2257.15 1451.02 L2261.82 1451.02 L2261.82 1481.64 L2269.46 1481.64 L2269.46 1485.58 L2249.55 1485.58 L2249.55 1481.64 Z" fill="#000000" fill-rule="nonzero" fill-opacity="1" /><path clip-path="url(#clip040)" d="M2282.93 1481.64 L2299.25 1481.64 L2299.25 1485.58 L2277.31 1485.58 L2277.31 1481.64 Q2279.97 1478.89 2284.55 1474.26 Q2289.16 1469.61 2290.34 1468.27 Q2292.59 1465.74 2293.47 1464.01 Q2294.37 1462.25 2294.37 1460.56 Q2294.37 1457.8 2292.43 1456.07 Q2290.5 1454.33 2287.4 1454.33 Q2285.2 1454.33 2282.75 1455.09 Q2280.32 1455.86 2277.54 1457.41 L2277.54 1452.69 Q2280.36 1451.55 2282.82 1450.97 Q2285.27 1450.39 2287.31 1450.39 Q2292.68 1450.39 2295.87 1453.08 Q2299.07 1455.77 2299.07 1460.26 Q2299.07 1462.39 2298.26 1464.31 Q2297.47 1466.2 2295.36 1468.8 Q2294.79 1469.47 2291.68 1472.69 Q2288.58 1475.88 2282.93 1481.64 Z" fill="#000000" fill-rule="nonzero" fill-opacity="1" /><path clip-path="url(#clip040)" d="M2309.07 1479.7 L2313.95 1479.7 L2313.95 1485.58 L2309.07 1485.58 L2309.07 1479.7 Z" fill="#000000" fill-rule="nonzero" fill-opacity="1" /><path clip-path="url(#clip040)" d="M2334.14 1454.1 Q2330.53 1454.1 2328.7 1457.66 Q2326.89 1461.2 2326.89 1468.33 Q2326.89 1475.44 2328.7 1479.01 Q2330.53 1482.55 2334.14 1482.55 Q2337.77 1482.55 2339.58 1479.01 Q2341.41 1475.44 2341.41 1468.33 Q2341.41 1461.2 2339.58 1457.66 Q2337.77 1454.1 2334.14 1454.1 M2334.14 1450.39 Q2339.95 1450.39 2343 1455 Q2346.08 1459.58 2346.08 1468.33 Q2346.08 1477.06 2343 1481.67 Q2339.95 1486.25 2334.14 1486.25 Q2328.33 1486.25 2325.25 1481.67 Q2322.19 1477.06 2322.19 1468.33 Q2322.19 1459.58 2325.25 1455 Q2328.33 1450.39 2334.14 1450.39 Z" fill="#000000" fill-rule="nonzero" fill-opacity="1" /><path clip-path="url(#clip040)" d="M896.626 1525.81 L896.626 1562.76 L904.393 1562.76 Q914.228 1562.76 918.779 1558.3 Q923.362 1553.85 923.362 1544.24 Q923.362 1534.69 918.779 1530.26 Q914.228 1525.81 904.393 1525.81 L896.626 1525.81 M890.197 1520.52 L903.406 1520.52 Q917.219 1520.52 923.681 1526.28 Q930.142 1532.01 930.142 1544.24 Q930.142 1556.52 923.649 1562.28 Q917.156 1568.04 903.406 1568.04 L890.197 1568.04 L890.197 1520.52 Z" fill="#000000" fill-rule="nonzero" fill-opacity="1" /><path clip-path="url(#clip040)" d="M940.136 1532.4 L945.992 1532.4 L945.992 1568.04 L940.136 1568.04 L940.136 1532.4 M940.136 1518.52 L945.992 1518.52 L945.992 1525.93 L940.136 1525.93 L940.136 1518.52 Z" fill="#000000" fill-rule="nonzero" fill-opacity="1" /><path clip-path="url(#clip040)" d="M980.972 1533.45 L980.972 1538.98 Q978.489 1537.71 975.816 1537.07 Q973.142 1536.44 970.278 1536.44 Q965.917 1536.44 963.721 1537.77 Q961.557 1539.11 961.557 1541.79 Q961.557 1543.82 963.116 1545 Q964.676 1546.15 969.386 1547.2 L971.392 1547.64 Q977.63 1548.98 980.24 1551.43 Q982.882 1553.85 982.882 1558.21 Q982.882 1563.17 978.935 1566.07 Q975.02 1568.97 968.145 1568.97 Q965.281 1568.97 962.161 1568.39 Q959.074 1567.85 955.636 1566.74 L955.636 1560.69 Q958.883 1562.38 962.034 1563.24 Q965.185 1564.07 968.272 1564.07 Q972.41 1564.07 974.638 1562.66 Q976.866 1561.23 976.866 1558.65 Q976.866 1556.27 975.243 1554.99 Q973.651 1553.72 968.209 1552.54 L966.172 1552.07 Q960.729 1550.92 958.31 1548.56 Q955.891 1546.18 955.891 1542.04 Q955.891 1537.01 959.456 1534.27 Q963.021 1531.54 969.577 1531.54 Q972.824 1531.54 975.688 1532.01 Q978.553 1532.49 980.972 1533.45 Z" fill="#000000" fill-rule="nonzero" fill-opacity="1" /><path clip-path="url(#clip040)" d="M998 1522.27 L998 1532.4 L1010.06 1532.4 L1010.06 1536.95 L998 1536.95 L998 1556.3 Q998 1560.66 999.178 1561.9 Q1000.39 1563.14 1004.05 1563.14 L1010.06 1563.14 L1010.06 1568.04 L1004.05 1568.04 Q997.268 1568.04 994.69 1565.53 Q992.112 1562.98 992.112 1556.3 L992.112 1536.95 L987.815 1536.95 L987.815 1532.4 L992.112 1532.4 L992.112 1522.27 L998 1522.27 Z" fill="#000000" fill-rule="nonzero" fill-opacity="1" /><path clip-path="url(#clip040)" d="M1033.97 1550.12 Q1026.87 1550.12 1024.13 1551.75 Q1021.39 1553.37 1021.39 1557.29 Q1021.39 1560.4 1023.43 1562.25 Q1025.5 1564.07 1029.03 1564.07 Q1033.9 1564.07 1036.83 1560.63 Q1039.79 1557.16 1039.79 1551.43 L1039.79 1550.12 L1033.97 1550.12 M1045.65 1547.71 L1045.65 1568.04 L1039.79 1568.04 L1039.79 1562.63 Q1037.79 1565.88 1034.79 1567.44 Q1031.8 1568.97 1027.47 1568.97 Q1022 1568.97 1018.75 1565.91 Q1015.54 1562.82 1015.54 1557.67 Q1015.54 1551.65 1019.55 1548.6 Q1023.59 1545.54 1031.58 1545.54 L1039.79 1545.54 L1039.79 1544.97 Q1039.79 1540.93 1037.12 1538.73 Q1034.48 1536.5 1029.67 1536.5 Q1026.61 1536.5 1023.72 1537.23 Q1020.82 1537.97 1018.15 1539.43 L1018.15 1534.02 Q1021.36 1532.78 1024.39 1532.17 Q1027.41 1531.54 1030.27 1531.54 Q1038.01 1531.54 1041.83 1535.55 Q1045.65 1539.56 1045.65 1547.71 Z" fill="#000000" fill-rule="nonzero" fill-opacity="1" /><path clip-path="url(#clip040)" d="M1087.34 1546.53 L1087.34 1568.04 L1081.49 1568.04 L1081.49 1546.72 Q1081.49 1541.66 1079.51 1539.14 Q1077.54 1536.63 1073.59 1536.63 Q1068.85 1536.63 1066.11 1539.65 Q1063.38 1542.68 1063.38 1547.9 L1063.38 1568.04 L1057.49 1568.04 L1057.49 1532.4 L1063.38 1532.4 L1063.38 1537.93 Q1065.48 1534.72 1068.31 1533.13 Q1071.17 1531.54 1074.9 1531.54 Q1081.04 1531.54 1084.19 1535.36 Q1087.34 1539.14 1087.34 1546.53 Z" fill="#000000" fill-rule="nonzero" fill-opacity="1" /><path clip-path="url(#clip040)" d="M1124.68 1533.76 L1124.68 1539.24 Q1122.2 1537.87 1119.68 1537.2 Q1117.2 1536.5 1114.65 1536.5 Q1108.95 1536.5 1105.8 1540.13 Q1102.65 1543.73 1102.65 1550.25 Q1102.65 1556.78 1105.8 1560.4 Q1108.95 1564 1114.65 1564 Q1117.2 1564 1119.68 1563.33 Q1122.2 1562.63 1124.68 1561.26 L1124.68 1566.68 Q1122.23 1567.82 1119.59 1568.39 Q1116.98 1568.97 1114.02 1568.97 Q1105.96 1568.97 1101.22 1563.91 Q1096.48 1558.85 1096.48 1550.25 Q1096.48 1541.53 1101.25 1536.53 Q1106.06 1531.54 1114.4 1531.54 Q1117.1 1531.54 1119.68 1532.11 Q1122.26 1532.65 1124.68 1533.76 Z" fill="#000000" fill-rule="nonzero" fill-opacity="1" /><path clip-path="url(#clip040)" d="M1165.35 1548.76 L1165.35 1551.62 L1138.43 1551.62 Q1138.81 1557.67 1142.06 1560.85 Q1145.33 1564 1151.16 1564 Q1154.53 1564 1157.68 1563.17 Q1160.87 1562.35 1163.99 1560.69 L1163.99 1566.23 Q1160.84 1567.57 1157.52 1568.27 Q1154.21 1568.97 1150.81 1568.97 Q1142.28 1568.97 1137.28 1564 Q1132.32 1559.04 1132.32 1550.57 Q1132.32 1541.82 1137.03 1536.69 Q1141.77 1531.54 1149.79 1531.54 Q1156.98 1531.54 1161.15 1536.18 Q1165.35 1540.8 1165.35 1548.76 M1159.5 1547.04 Q1159.43 1542.23 1156.79 1539.37 Q1154.18 1536.5 1149.85 1536.5 Q1144.95 1536.5 1141.99 1539.27 Q1139.06 1542.04 1138.62 1547.07 L1159.5 1547.04 Z" fill="#000000" fill-rule="nonzero" fill-opacity="1" /><path clip-path="url(#clip040)" d="M1221.28 1550.25 Q1221.28 1543.79 1218.6 1540.13 Q1215.96 1536.44 1211.32 1536.44 Q1206.67 1536.44 1203.99 1540.13 Q1201.35 1543.79 1201.35 1550.25 Q1201.35 1556.71 1203.99 1560.4 Q1206.67 1564.07 1211.32 1564.07 Q1215.96 1564.07 1218.6 1560.4 Q1221.28 1556.71 1221.28 1550.25 M1201.35 1537.81 Q1203.2 1534.62 1206 1533.1 Q1208.83 1531.54 1212.75 1531.54 Q1219.24 1531.54 1223.28 1536.69 Q1227.36 1541.85 1227.36 1550.25 Q1227.36 1558.65 1223.28 1563.81 Q1219.24 1568.97 1212.75 1568.97 Q1208.83 1568.97 1206 1567.44 Q1203.2 1565.88 1201.35 1562.7 L1201.35 1568.04 L1195.46 1568.04 L1195.46 1518.52 L1201.35 1518.52 L1201.35 1537.81 Z" fill="#000000" fill-rule="nonzero" fill-opacity="1" /><path clip-path="url(#clip040)" d="M1267.56 1548.76 L1267.56 1551.62 L1240.63 1551.62 Q1241.01 1557.67 1244.26 1560.85 Q1247.54 1564 1253.36 1564 Q1256.73 1564 1259.89 1563.17 Q1263.07 1562.35 1266.19 1560.69 L1266.19 1566.23 Q1263.04 1567.57 1259.73 1568.27 Q1256.42 1568.97 1253.01 1568.97 Q1244.48 1568.97 1239.48 1564 Q1234.52 1559.04 1234.52 1550.57 Q1234.52 1541.82 1239.23 1536.69 Q1243.97 1531.54 1251.99 1531.54 Q1259.19 1531.54 1263.35 1536.18 Q1267.56 1540.8 1267.56 1548.76 M1261.7 1547.04 Q1261.64 1542.23 1258.99 1539.37 Q1256.38 1536.5 1252.06 1536.5 Q1247.15 1536.5 1244.19 1539.27 Q1241.27 1542.04 1240.82 1547.07 L1261.7 1547.04 Z" fill="#000000" fill-rule="nonzero" fill-opacity="1" /><path clip-path="url(#clip040)" d="M1282.96 1522.27 L1282.96 1532.4 L1295.02 1532.4 L1295.02 1536.95 L1282.96 1536.95 L1282.96 1556.3 Q1282.96 1560.66 1284.14 1561.9 Q1285.35 1563.14 1289.01 1563.14 L1295.02 1563.14 L1295.02 1568.04 L1289.01 1568.04 Q1282.23 1568.04 1279.65 1565.53 Q1277.07 1562.98 1277.07 1556.3 L1277.07 1536.95 L1272.78 1536.95 L1272.78 1532.4 L1277.07 1532.4 L1277.07 1522.27 L1282.96 1522.27 Z" fill="#000000" fill-rule="nonzero" fill-opacity="1" /><path clip-path="url(#clip040)" d="M1299.32 1532.4 L1305.18 1532.4 L1312.5 1560.21 L1319.79 1532.4 L1326.69 1532.4 L1334.01 1560.21 L1341.3 1532.4 L1347.16 1532.4 L1337.83 1568.04 L1330.93 1568.04 L1323.26 1538.83 L1315.55 1568.04 L1308.65 1568.04 L1299.32 1532.4 Z" fill="#000000" fill-rule="nonzero" fill-opacity="1" /><path clip-path="url(#clip040)" d="M1386.53 1548.76 L1386.53 1551.62 L1359.6 1551.62 Q1359.99 1557.67 1363.23 1560.85 Q1366.51 1564 1372.34 1564 Q1375.71 1564 1378.86 1563.17 Q1382.04 1562.35 1385.16 1560.69 L1385.16 1566.23 Q1382.01 1567.57 1378.7 1568.27 Q1375.39 1568.97 1371.99 1568.97 Q1363.46 1568.97 1358.46 1564 Q1353.49 1559.04 1353.49 1550.57 Q1353.49 1541.82 1358.2 1536.69 Q1362.95 1531.54 1370.97 1531.54 Q1378.16 1531.54 1382.33 1536.18 Q1386.53 1540.8 1386.53 1548.76 M1380.67 1547.04 Q1380.61 1542.23 1377.97 1539.37 Q1375.36 1536.5 1371.03 1536.5 Q1366.13 1536.5 1363.17 1539.27 Q1360.24 1542.04 1359.8 1547.07 L1380.67 1547.04 Z" fill="#000000" fill-rule="nonzero" fill-opacity="1" /><path clip-path="url(#clip040)" d="M1426.64 1548.76 L1426.64 1551.62 L1399.71 1551.62 Q1400.09 1557.67 1403.34 1560.85 Q1406.61 1564 1412.44 1564 Q1415.81 1564 1418.96 1563.17 Q1422.15 1562.35 1425.27 1560.69 L1425.27 1566.23 Q1422.12 1567.57 1418.81 1568.27 Q1415.5 1568.97 1412.09 1568.97 Q1403.56 1568.97 1398.56 1564 Q1393.6 1559.04 1393.6 1550.57 Q1393.6 1541.82 1398.31 1536.69 Q1403.05 1531.54 1411.07 1531.54 Q1418.26 1531.54 1422.43 1536.18 Q1426.64 1540.8 1426.64 1548.76 M1420.78 1547.04 Q1420.72 1542.23 1418.07 1539.37 Q1415.46 1536.5 1411.13 1536.5 Q1406.23 1536.5 1403.27 1539.27 Q1400.34 1542.04 1399.9 1547.07 L1420.78 1547.04 Z" fill="#000000" fill-rule="nonzero" fill-opacity="1" /><path clip-path="url(#clip040)" d="M1465.88 1546.53 L1465.88 1568.04 L1460.02 1568.04 L1460.02 1546.72 Q1460.02 1541.66 1458.05 1539.14 Q1456.08 1536.63 1452.13 1536.63 Q1447.39 1536.63 1444.65 1539.65 Q1441.91 1542.68 1441.91 1547.9 L1441.91 1568.04 L1436.02 1568.04 L1436.02 1532.4 L1441.91 1532.4 L1441.91 1537.93 Q1444.01 1534.72 1446.85 1533.13 Q1449.71 1531.54 1453.43 1531.54 Q1459.58 1531.54 1462.73 1535.36 Q1465.88 1539.14 1465.88 1546.53 Z" fill="#000000" fill-rule="nonzero" fill-opacity="1" /><path clip-path="url(#clip040)" d="M1514.48 1550.12 Q1507.38 1550.12 1504.65 1551.75 Q1501.91 1553.37 1501.91 1557.29 Q1501.91 1560.4 1503.95 1562.25 Q1506.02 1564.07 1509.55 1564.07 Q1514.42 1564.07 1517.35 1560.63 Q1520.31 1557.16 1520.31 1551.43 L1520.31 1550.12 L1514.48 1550.12 M1526.16 1547.71 L1526.16 1568.04 L1520.31 1568.04 L1520.31 1562.63 Q1518.3 1565.88 1515.31 1567.44 Q1512.32 1568.97 1507.99 1568.97 Q1502.51 1568.97 1499.27 1565.91 Q1496.05 1562.82 1496.05 1557.67 Q1496.05 1551.65 1500.06 1548.6 Q1504.11 1545.54 1512.09 1545.54 L1520.31 1545.54 L1520.31 1544.97 Q1520.31 1540.93 1517.63 1538.73 Q1514.99 1536.5 1510.19 1536.5 Q1507.13 1536.5 1504.23 1537.23 Q1501.34 1537.97 1498.66 1539.43 L1498.66 1534.02 Q1501.88 1532.78 1504.9 1532.17 Q1507.93 1531.54 1510.79 1531.54 Q1518.52 1531.54 1522.34 1535.55 Q1526.16 1539.56 1526.16 1547.71 Z" fill="#000000" fill-rule="nonzero" fill-opacity="1" /><path clip-path="url(#clip040)" d="M1558.88 1537.87 Q1557.9 1537.3 1556.72 1537.04 Q1555.57 1536.76 1554.17 1536.76 Q1549.21 1536.76 1546.53 1540 Q1543.89 1543.22 1543.89 1549.27 L1543.89 1568.04 L1538 1568.04 L1538 1532.4 L1543.89 1532.4 L1543.89 1537.93 Q1545.74 1534.69 1548.7 1533.13 Q1551.66 1531.54 1555.89 1531.54 Q1556.5 1531.54 1557.23 1531.63 Q1557.96 1531.7 1558.85 1531.85 L1558.88 1537.87 Z" fill="#000000" fill-rule="nonzero" fill-opacity="1" /><path clip-path="url(#clip040)" d="M1584.54 1537.87 Q1583.55 1537.3 1582.37 1537.04 Q1581.23 1536.76 1579.83 1536.76 Q1574.86 1536.76 1572.19 1540 Q1569.55 1543.22 1569.55 1549.27 L1569.55 1568.04 L1563.66 1568.04 L1563.66 1532.4 L1569.55 1532.4 L1569.55 1537.93 Q1571.39 1534.69 1574.35 1533.13 Q1577.31 1531.54 1581.54 1531.54 Q1582.15 1531.54 1582.88 1531.63 Q1583.61 1531.7 1584.5 1531.85 L1584.54 1537.87 Z" fill="#000000" fill-rule="nonzero" fill-opacity="1" /><path clip-path="url(#clip040)" d="M1606.88 1550.12 Q1599.78 1550.12 1597.05 1551.75 Q1594.31 1553.37 1594.31 1557.29 Q1594.31 1560.4 1596.34 1562.25 Q1598.41 1564.07 1601.95 1564.07 Q1606.82 1564.07 1609.74 1560.63 Q1612.7 1557.16 1612.7 1551.43 L1612.7 1550.12 L1606.88 1550.12 M1618.56 1547.71 L1618.56 1568.04 L1612.7 1568.04 L1612.7 1562.63 Q1610.7 1565.88 1607.71 1567.44 Q1604.72 1568.97 1600.39 1568.97 Q1594.91 1568.97 1591.67 1565.91 Q1588.45 1562.82 1588.45 1557.67 Q1588.45 1551.65 1592.46 1548.6 Q1596.5 1545.54 1604.49 1545.54 L1612.7 1545.54 L1612.7 1544.97 Q1612.7 1540.93 1610.03 1538.73 Q1607.39 1536.5 1602.58 1536.5 Q1599.53 1536.5 1596.63 1537.23 Q1593.73 1537.97 1591.06 1539.43 L1591.06 1534.02 Q1594.28 1532.78 1597.3 1532.17 Q1600.32 1531.54 1603.19 1531.54 Q1610.92 1531.54 1614.74 1535.55 Q1618.56 1539.56 1618.56 1547.71 Z" fill="#000000" fill-rule="nonzero" fill-opacity="1" /><path clip-path="url(#clip040)" d="M1645.46 1571.35 Q1642.97 1577.72 1640.62 1579.66 Q1638.26 1581.6 1634.32 1581.6 L1629.64 1581.6 L1629.64 1576.7 L1633.07 1576.7 Q1635.49 1576.7 1636.83 1575.56 Q1638.17 1574.41 1639.79 1570.14 L1640.84 1567.47 L1626.42 1532.4 L1632.63 1532.4 L1643.77 1560.28 L1654.91 1532.4 L1661.12 1532.4 L1645.46 1571.35 Z" fill="#000000" fill-rule="nonzero" fill-opacity="1" /><path clip-path="url(#clip040)" d="M1691.93 1533.45 L1691.93 1538.98 Q1689.44 1537.71 1686.77 1537.07 Q1684.1 1536.44 1681.23 1536.44 Q1676.87 1536.44 1674.67 1537.77 Q1672.51 1539.11 1672.51 1541.79 Q1672.51 1543.82 1674.07 1545 Q1675.63 1546.15 1680.34 1547.2 L1682.35 1547.64 Q1688.58 1548.98 1691.19 1551.43 Q1693.84 1553.85 1693.84 1558.21 Q1693.84 1563.17 1689.89 1566.07 Q1685.97 1568.97 1679.1 1568.97 Q1676.23 1568.97 1673.12 1568.39 Q1670.03 1567.85 1666.59 1566.74 L1666.59 1560.69 Q1669.84 1562.38 1672.99 1563.24 Q1676.14 1564.07 1679.23 1564.07 Q1683.36 1564.07 1685.59 1562.66 Q1687.82 1561.23 1687.82 1558.65 Q1687.82 1556.27 1686.2 1554.99 Q1684.61 1553.72 1679.16 1552.54 L1677.13 1552.07 Q1671.68 1550.92 1669.26 1548.56 Q1666.85 1546.18 1666.85 1542.04 Q1666.85 1537.01 1670.41 1534.27 Q1673.97 1531.54 1680.53 1531.54 Q1683.78 1531.54 1686.64 1532.01 Q1689.51 1532.49 1691.93 1533.45 Z" fill="#000000" fill-rule="nonzero" fill-opacity="1" /><path clip-path="url(#clip040)" d="M1737.95 1518.58 Q1733.68 1525.9 1731.62 1533.06 Q1729.55 1540.23 1729.55 1547.58 Q1729.55 1554.93 1731.62 1562.16 Q1733.72 1569.35 1737.95 1576.64 L1732.86 1576.64 Q1728.08 1569.16 1725.7 1561.93 Q1723.34 1554.71 1723.34 1547.58 Q1723.34 1540.48 1725.7 1533.29 Q1728.05 1526.09 1732.86 1518.58 L1737.95 1518.58 Z" fill="#000000" fill-rule="nonzero" fill-opacity="1" /><path clip-path="url(#clip040)" d="M1774.97 1533.76 L1774.97 1539.24 Q1772.48 1537.87 1769.97 1537.2 Q1767.49 1536.5 1764.94 1536.5 Q1759.24 1536.5 1756.09 1540.13 Q1752.94 1543.73 1752.94 1550.25 Q1752.94 1556.78 1756.09 1560.4 Q1759.24 1564 1764.94 1564 Q1767.49 1564 1769.97 1563.33 Q1772.48 1562.63 1774.97 1561.26 L1774.97 1566.68 Q1772.52 1567.82 1769.87 1568.39 Q1767.26 1568.97 1764.3 1568.97 Q1756.25 1568.97 1751.51 1563.91 Q1746.77 1558.85 1746.77 1550.25 Q1746.77 1541.53 1751.54 1536.53 Q1756.35 1531.54 1764.69 1531.54 Q1767.39 1531.54 1769.97 1532.11 Q1772.55 1532.65 1774.97 1533.76 Z" fill="#000000" fill-rule="nonzero" fill-opacity="1" /><path clip-path="url(#clip040)" d="M1812.91 1539.24 Q1815.1 1535.29 1818.16 1533.41 Q1821.21 1531.54 1825.35 1531.54 Q1830.92 1531.54 1833.94 1535.45 Q1836.97 1539.33 1836.97 1546.53 L1836.97 1568.04 L1831.08 1568.04 L1831.08 1546.72 Q1831.08 1541.59 1829.27 1539.11 Q1827.45 1536.63 1823.73 1536.63 Q1819.18 1536.63 1816.53 1539.65 Q1813.89 1542.68 1813.89 1547.9 L1813.89 1568.04 L1808 1568.04 L1808 1546.72 Q1808 1541.56 1806.19 1539.11 Q1804.38 1536.63 1800.59 1536.63 Q1796.1 1536.63 1793.46 1539.68 Q1790.82 1542.71 1790.82 1547.9 L1790.82 1568.04 L1784.93 1568.04 L1784.93 1532.4 L1790.82 1532.4 L1790.82 1537.93 Q1792.82 1534.66 1795.62 1533.1 Q1798.42 1531.54 1802.28 1531.54 Q1806.16 1531.54 1808.86 1533.51 Q1811.6 1535.48 1812.91 1539.24 Z" fill="#000000" fill-rule="nonzero" fill-opacity="1" /><path clip-path="url(#clip040)" d="M1847.73 1518.58 L1852.82 1518.58 Q1857.59 1526.09 1859.95 1533.29 Q1862.34 1540.48 1862.34 1547.58 Q1862.34 1554.71 1859.95 1561.93 Q1857.59 1569.16 1852.82 1576.64 L1847.73 1576.64 Q1851.96 1569.35 1854.03 1562.16 Q1856.13 1554.93 1856.13 1547.58 Q1856.13 1540.23 1854.03 1533.06 Q1851.96 1525.9 1847.73 1518.58 Z" fill="#000000" fill-rule="nonzero" fill-opacity="1" /><polyline clip-path="url(#clip040)" style="stroke:#000000; stroke-linecap:round; stroke-linejoin:round; stroke-width:4; stroke-opacity:1; fill:none" points="399.777,1423.18 399.777,123.472 "/>
<polyline clip-path="url(#clip040)" style="stroke:#000000; stroke-linecap:round; stroke-linejoin:round; stroke-width:4; stroke-opacity:1; fill:none" points="399.777,1354.64 418.675,1354.64 "/>
<polyline clip-path="url(#clip040)" style="stroke:#000000; stroke-linecap:round; stroke-linejoin:round; stroke-width:4; stroke-opacity:1; fill:none" points="399.777,1165.41 418.675,1165.41 "/>
<polyline clip-path="url(#clip040)" style="stroke:#000000; stroke-linecap:round; stroke-linejoin:round; stroke-width:4; stroke-opacity:1; fill:none" points="399.777,976.174 418.675,976.174 "/>
<polyline clip-path="url(#clip040)" style="stroke:#000000; stroke-linecap:round; stroke-linejoin:round; stroke-width:4; stroke-opacity:1; fill:none" points="399.777,786.942 418.675,786.942 "/>
<polyline clip-path="url(#clip040)" style="stroke:#000000; stroke-linecap:round; stroke-linejoin:round; stroke-width:4; stroke-opacity:1; fill:none" points="399.777,597.71 418.675,597.71 "/>
<polyline clip-path="url(#clip040)" style="stroke:#000000; stroke-linecap:round; stroke-linejoin:round; stroke-width:4; stroke-opacity:1; fill:none" points="399.777,408.478 418.675,408.478 "/>
<polyline clip-path="url(#clip040)" style="stroke:#000000; stroke-linecap:round; stroke-linejoin:round; stroke-width:4; stroke-opacity:1; fill:none" points="399.777,219.246 418.675,219.246 "/>
<path clip-path="url(#clip040)" d="M116.668 1374.43 L124.306 1374.43 L124.306 1348.07 L115.996 1349.73 L115.996 1345.47 L124.26 1343.81 L128.936 1343.81 L128.936 1374.43 L136.575 1374.43 L136.575 1378.37 L116.668 1378.37 L116.668 1374.43 Z" fill="#000000" fill-rule="nonzero" fill-opacity="1" /><path clip-path="url(#clip040)" d="M146.019 1372.49 L150.903 1372.49 L150.903 1378.37 L146.019 1378.37 L146.019 1372.49 Z" fill="#000000" fill-rule="nonzero" fill-opacity="1" /><path clip-path="url(#clip040)" d="M161.135 1343.81 L179.491 1343.81 L179.491 1347.74 L165.417 1347.74 L165.417 1356.21 Q166.436 1355.87 167.454 1355.7 Q168.473 1355.52 169.491 1355.52 Q175.278 1355.52 178.658 1358.69 Q182.038 1361.86 182.038 1367.28 Q182.038 1372.86 178.565 1375.96 Q175.093 1379.04 168.774 1379.04 Q166.598 1379.04 164.329 1378.67 Q162.084 1378.3 159.677 1377.56 L159.677 1372.86 Q161.76 1373.99 163.982 1374.55 Q166.204 1375.1 168.681 1375.1 Q172.686 1375.1 175.024 1373 Q177.362 1370.89 177.362 1367.28 Q177.362 1363.67 175.024 1361.56 Q172.686 1359.45 168.681 1359.45 Q166.806 1359.45 164.931 1359.87 Q163.079 1360.29 161.135 1361.17 L161.135 1343.81 Z" fill="#000000" fill-rule="nonzero" fill-opacity="1" /><path clip-path="url(#clip040)" d="M201.25 1346.89 Q197.639 1346.89 195.811 1350.45 Q194.005 1353.99 194.005 1361.12 Q194.005 1368.23 195.811 1371.79 Q197.639 1375.33 201.25 1375.33 Q204.885 1375.33 206.69 1371.79 Q208.519 1368.23 208.519 1361.12 Q208.519 1353.99 206.69 1350.45 Q204.885 1346.89 201.25 1346.89 M201.25 1343.18 Q207.061 1343.18 210.116 1347.79 Q213.195 1352.37 213.195 1361.12 Q213.195 1369.85 210.116 1374.45 Q207.061 1379.04 201.25 1379.04 Q195.44 1379.04 192.362 1374.45 Q189.306 1369.85 189.306 1361.12 Q189.306 1352.37 192.362 1347.79 Q195.44 1343.18 201.25 1343.18 Z" fill="#000000" fill-rule="nonzero" fill-opacity="1" /><path clip-path="url(#clip040)" d="M249.584 1352.9 L239.005 1363.53 L249.584 1374.11 L246.829 1376.91 L236.204 1366.28 L225.579 1376.91 L222.848 1374.11 L233.403 1363.53 L222.848 1352.9 L225.579 1350.1 L236.204 1360.73 L246.829 1350.1 L249.584 1352.9 Z" fill="#000000" fill-rule="nonzero" fill-opacity="1" /><path clip-path="url(#clip040)" d="M261.945 1374.43 L269.583 1374.43 L269.583 1348.07 L261.273 1349.73 L261.273 1345.47 L269.537 1343.81 L274.213 1343.81 L274.213 1374.43 L281.852 1374.43 L281.852 1378.37 L261.945 1378.37 L261.945 1374.43 Z" fill="#000000" fill-rule="nonzero" fill-opacity="1" /><path clip-path="url(#clip040)" d="M301.296 1346.89 Q297.685 1346.89 295.856 1350.45 Q294.051 1353.99 294.051 1361.12 Q294.051 1368.23 295.856 1371.79 Q297.685 1375.33 301.296 1375.33 Q304.93 1375.33 306.736 1371.79 Q308.565 1368.23 308.565 1361.12 Q308.565 1353.99 306.736 1350.45 Q304.93 1346.89 301.296 1346.89 M301.296 1343.18 Q307.106 1343.18 310.162 1347.79 Q313.241 1352.37 313.241 1361.12 Q313.241 1369.85 310.162 1374.45 Q307.106 1379.04 301.296 1379.04 Q295.486 1379.04 292.407 1374.45 Q289.352 1369.85 289.352 1361.12 Q289.352 1352.37 292.407 1347.79 Q295.486 1343.18 301.296 1343.18 Z" fill="#000000" fill-rule="nonzero" fill-opacity="1" /><path clip-path="url(#clip040)" d="M313.241 1337.28 L337.352 1337.28 L337.352 1340.48 L313.241 1340.48 L313.241 1337.28 Z" fill="#000000" fill-rule="nonzero" fill-opacity="1" /><path clip-path="url(#clip040)" d="M355.991 1326.19 L346.399 1341.18 L355.991 1341.18 L355.991 1326.19 M354.994 1322.88 L359.771 1322.88 L359.771 1341.18 L363.777 1341.18 L363.777 1344.34 L359.771 1344.34 L359.771 1350.96 L355.991 1350.96 L355.991 1344.34 L343.314 1344.34 L343.314 1340.67 L354.994 1322.88 Z" fill="#000000" fill-rule="nonzero" fill-opacity="1" /><path clip-path="url(#clip040)" d="M116.668 1185.2 L124.306 1185.2 L124.306 1158.83 L115.996 1160.5 L115.996 1156.24 L124.26 1154.57 L128.936 1154.57 L128.936 1185.2 L136.575 1185.2 L136.575 1189.13 L116.668 1189.13 L116.668 1185.2 Z" fill="#000000" fill-rule="nonzero" fill-opacity="1" /><path clip-path="url(#clip040)" d="M146.019 1183.25 L150.903 1183.25 L150.903 1189.13 L146.019 1189.13 L146.019 1183.25 Z" fill="#000000" fill-rule="nonzero" fill-opacity="1" /><path clip-path="url(#clip040)" d="M171.667 1169.99 Q168.519 1169.99 166.667 1172.14 Q164.839 1174.3 164.839 1178.05 Q164.839 1181.77 166.667 1183.95 Q168.519 1186.1 171.667 1186.1 Q174.815 1186.1 176.644 1183.95 Q178.496 1181.77 178.496 1178.05 Q178.496 1174.3 176.644 1172.14 Q174.815 1169.99 171.667 1169.99 M180.95 1155.34 L180.95 1159.6 Q179.19 1158.76 177.385 1158.32 Q175.602 1157.88 173.843 1157.88 Q169.214 1157.88 166.76 1161.01 Q164.329 1164.13 163.982 1170.45 Q165.348 1168.44 167.408 1167.37 Q169.468 1166.29 171.945 1166.29 Q177.153 1166.29 180.163 1169.46 Q183.195 1172.61 183.195 1178.05 Q183.195 1183.37 180.047 1186.59 Q176.899 1189.81 171.667 1189.81 Q165.672 1189.81 162.501 1185.22 Q159.329 1180.62 159.329 1171.89 Q159.329 1163.69 163.218 1158.83 Q167.107 1153.95 173.658 1153.95 Q175.417 1153.95 177.2 1154.3 Q179.005 1154.64 180.95 1155.34 Z" fill="#000000" fill-rule="nonzero" fill-opacity="1" /><path clip-path="url(#clip040)" d="M201.25 1157.65 Q197.639 1157.65 195.811 1161.22 Q194.005 1164.76 194.005 1171.89 Q194.005 1179 195.811 1182.56 Q197.639 1186.1 201.25 1186.1 Q204.885 1186.1 206.69 1182.56 Q208.519 1179 208.519 1171.89 Q208.519 1164.76 206.69 1161.22 Q204.885 1157.65 201.25 1157.65 M201.25 1153.95 Q207.061 1153.95 210.116 1158.56 Q213.195 1163.14 213.195 1171.89 Q213.195 1180.62 210.116 1185.22 Q207.061 1189.81 201.25 1189.81 Q195.44 1189.81 192.362 1185.22 Q189.306 1180.62 189.306 1171.89 Q189.306 1163.14 192.362 1158.56 Q195.44 1153.95 201.25 1153.95 Z" fill="#000000" fill-rule="nonzero" fill-opacity="1" /><path clip-path="url(#clip040)" d="M249.584 1163.67 L239.005 1174.3 L249.584 1184.87 L246.829 1187.68 L236.204 1177.05 L225.579 1187.68 L222.848 1184.87 L233.403 1174.3 L222.848 1163.67 L225.579 1160.87 L236.204 1171.5 L246.829 1160.87 L249.584 1163.67 Z" fill="#000000" fill-rule="nonzero" fill-opacity="1" /><path clip-path="url(#clip040)" d="M261.945 1185.2 L269.583 1185.2 L269.583 1158.83 L261.273 1160.5 L261.273 1156.24 L269.537 1154.57 L274.213 1154.57 L274.213 1185.2 L281.852 1185.2 L281.852 1189.13 L261.945 1189.13 L261.945 1185.2 Z" fill="#000000" fill-rule="nonzero" fill-opacity="1" /><path clip-path="url(#clip040)" d="M301.296 1157.65 Q297.685 1157.65 295.856 1161.22 Q294.051 1164.76 294.051 1171.89 Q294.051 1179 295.856 1182.56 Q297.685 1186.1 301.296 1186.1 Q304.93 1186.1 306.736 1182.56 Q308.565 1179 308.565 1171.89 Q308.565 1164.76 306.736 1161.22 Q304.93 1157.65 301.296 1157.65 M301.296 1153.95 Q307.106 1153.95 310.162 1158.56 Q313.241 1163.14 313.241 1171.89 Q313.241 1180.62 310.162 1185.22 Q307.106 1189.81 301.296 1189.81 Q295.486 1189.81 292.407 1185.22 Q289.352 1180.62 289.352 1171.89 Q289.352 1163.14 292.407 1158.56 Q295.486 1153.95 301.296 1153.95 Z" fill="#000000" fill-rule="nonzero" fill-opacity="1" /><path clip-path="url(#clip040)" d="M313.241 1148.05 L337.352 1148.05 L337.352 1151.25 L313.241 1151.25 L313.241 1148.05 Z" fill="#000000" fill-rule="nonzero" fill-opacity="1" /><path clip-path="url(#clip040)" d="M355.991 1136.95 L346.399 1151.94 L355.991 1151.94 L355.991 1136.95 M354.994 1133.64 L359.771 1133.64 L359.771 1151.94 L363.777 1151.94 L363.777 1155.1 L359.771 1155.1 L359.771 1161.72 L355.991 1161.72 L355.991 1155.1 L343.314 1155.1 L343.314 1151.44 L354.994 1133.64 Z" fill="#000000" fill-rule="nonzero" fill-opacity="1" /><path clip-path="url(#clip040)" d="M116.668 995.967 L124.306 995.967 L124.306 969.601 L115.996 971.268 L115.996 967.009 L124.26 965.342 L128.936 965.342 L128.936 995.967 L136.575 995.967 L136.575 999.902 L116.668 999.902 L116.668 995.967 Z" fill="#000000" fill-rule="nonzero" fill-opacity="1" /><path clip-path="url(#clip040)" d="M146.019 994.022 L150.903 994.022 L150.903 999.902 L146.019 999.902 L146.019 994.022 Z" fill="#000000" fill-rule="nonzero" fill-opacity="1" /><path clip-path="url(#clip040)" d="M159.908 965.342 L182.13 965.342 L182.13 967.333 L169.584 999.902 L164.7 999.902 L176.505 969.277 L159.908 969.277 L159.908 965.342 Z" fill="#000000" fill-rule="nonzero" fill-opacity="1" /><path clip-path="url(#clip040)" d="M201.25 968.421 Q197.639 968.421 195.811 971.985 Q194.005 975.527 194.005 982.657 Q194.005 989.763 195.811 993.328 Q197.639 996.87 201.25 996.87 Q204.885 996.87 206.69 993.328 Q208.519 989.763 208.519 982.657 Q208.519 975.527 206.69 971.985 Q204.885 968.421 201.25 968.421 M201.25 964.717 Q207.061 964.717 210.116 969.323 Q213.195 973.907 213.195 982.657 Q213.195 991.383 210.116 995.99 Q207.061 1000.57 201.25 1000.57 Q195.44 1000.57 192.362 995.99 Q189.306 991.383 189.306 982.657 Q189.306 973.907 192.362 969.323 Q195.44 964.717 201.25 964.717 Z" fill="#000000" fill-rule="nonzero" fill-opacity="1" /><path clip-path="url(#clip040)" d="M249.584 974.439 L239.005 985.064 L249.584 995.643 L246.829 998.444 L236.204 987.819 L225.579 998.444 L222.848 995.643 L233.403 985.064 L222.848 974.439 L225.579 971.638 L236.204 982.263 L246.829 971.638 L249.584 974.439 Z" fill="#000000" fill-rule="nonzero" fill-opacity="1" /><path clip-path="url(#clip040)" d="M261.945 995.967 L269.583 995.967 L269.583 969.601 L261.273 971.268 L261.273 967.009 L269.537 965.342 L274.213 965.342 L274.213 995.967 L281.852 995.967 L281.852 999.902 L261.945 999.902 L261.945 995.967 Z" fill="#000000" fill-rule="nonzero" fill-opacity="1" /><path clip-path="url(#clip040)" d="M301.296 968.421 Q297.685 968.421 295.856 971.985 Q294.051 975.527 294.051 982.657 Q294.051 989.763 295.856 993.328 Q297.685 996.87 301.296 996.87 Q304.93 996.87 306.736 993.328 Q308.565 989.763 308.565 982.657 Q308.565 975.527 306.736 971.985 Q304.93 968.421 301.296 968.421 M301.296 964.717 Q307.106 964.717 310.162 969.323 Q313.241 973.907 313.241 982.657 Q313.241 991.383 310.162 995.99 Q307.106 1000.57 301.296 1000.57 Q295.486 1000.57 292.407 995.99 Q289.352 991.383 289.352 982.657 Q289.352 973.907 292.407 969.323 Q295.486 964.717 301.296 964.717 Z" fill="#000000" fill-rule="nonzero" fill-opacity="1" /><path clip-path="url(#clip040)" d="M313.241 958.818 L337.352 958.818 L337.352 962.016 L313.241 962.016 L313.241 958.818 Z" fill="#000000" fill-rule="nonzero" fill-opacity="1" /><path clip-path="url(#clip040)" d="M355.991 947.722 L346.399 962.712 L355.991 962.712 L355.991 947.722 M354.994 944.412 L359.771 944.412 L359.771 962.712 L363.777 962.712 L363.777 965.871 L359.771 965.871 L359.771 972.492 L355.991 972.492 L355.991 965.871 L343.314 965.871 L343.314 962.204 L354.994 944.412 Z" fill="#000000" fill-rule="nonzero" fill-opacity="1" /><path clip-path="url(#clip040)" d="M116.668 806.735 L124.306 806.735 L124.306 780.369 L115.996 782.036 L115.996 777.776 L124.26 776.11 L128.936 776.11 L128.936 806.735 L136.575 806.735 L136.575 810.67 L116.668 810.67 L116.668 806.735 Z" fill="#000000" fill-rule="nonzero" fill-opacity="1" /><path clip-path="url(#clip040)" d="M146.019 804.79 L150.903 804.79 L150.903 810.67 L146.019 810.67 L146.019 804.79 Z" fill="#000000" fill-rule="nonzero" fill-opacity="1" /><path clip-path="url(#clip040)" d="M171.089 794.258 Q167.755 794.258 165.834 796.04 Q163.936 797.823 163.936 800.948 Q163.936 804.073 165.834 805.855 Q167.755 807.637 171.089 807.637 Q174.422 807.637 176.343 805.855 Q178.264 804.049 178.264 800.948 Q178.264 797.823 176.343 796.04 Q174.445 794.258 171.089 794.258 M166.413 792.267 Q163.403 791.526 161.714 789.466 Q160.047 787.406 160.047 784.443 Q160.047 780.3 162.987 777.892 Q165.95 775.485 171.089 775.485 Q176.251 775.485 179.19 777.892 Q182.13 780.3 182.13 784.443 Q182.13 787.406 180.44 789.466 Q178.774 791.526 175.788 792.267 Q179.167 793.054 181.042 795.346 Q182.94 797.637 182.94 800.948 Q182.94 805.971 179.862 808.656 Q176.806 811.341 171.089 811.341 Q165.371 811.341 162.292 808.656 Q159.237 805.971 159.237 800.948 Q159.237 797.637 161.135 795.346 Q163.033 793.054 166.413 792.267 M164.7 784.883 Q164.7 787.568 166.366 789.073 Q168.056 790.577 171.089 790.577 Q174.098 790.577 175.788 789.073 Q177.501 787.568 177.501 784.883 Q177.501 782.198 175.788 780.693 Q174.098 779.188 171.089 779.188 Q168.056 779.188 166.366 780.693 Q164.7 782.198 164.7 784.883 Z" fill="#000000" fill-rule="nonzero" fill-opacity="1" /><path clip-path="url(#clip040)" d="M201.25 779.188 Q197.639 779.188 195.811 782.753 Q194.005 786.295 194.005 793.425 Q194.005 800.531 195.811 804.096 Q197.639 807.637 201.25 807.637 Q204.885 807.637 206.69 804.096 Q208.519 800.531 208.519 793.425 Q208.519 786.295 206.69 782.753 Q204.885 779.188 201.25 779.188 M201.25 775.485 Q207.061 775.485 210.116 780.091 Q213.195 784.675 213.195 793.425 Q213.195 802.151 210.116 806.758 Q207.061 811.341 201.25 811.341 Q195.44 811.341 192.362 806.758 Q189.306 802.151 189.306 793.425 Q189.306 784.675 192.362 780.091 Q195.44 775.485 201.25 775.485 Z" fill="#000000" fill-rule="nonzero" fill-opacity="1" /><path clip-path="url(#clip040)" d="M249.584 785.207 L239.005 795.832 L249.584 806.411 L246.829 809.211 L236.204 798.587 L225.579 809.211 L222.848 806.411 L233.403 795.832 L222.848 785.207 L225.579 782.406 L236.204 793.031 L246.829 782.406 L249.584 785.207 Z" fill="#000000" fill-rule="nonzero" fill-opacity="1" /><path clip-path="url(#clip040)" d="M261.945 806.735 L269.583 806.735 L269.583 780.369 L261.273 782.036 L261.273 777.776 L269.537 776.11 L274.213 776.11 L274.213 806.735 L281.852 806.735 L281.852 810.67 L261.945 810.67 L261.945 806.735 Z" fill="#000000" fill-rule="nonzero" fill-opacity="1" /><path clip-path="url(#clip040)" d="M301.296 779.188 Q297.685 779.188 295.856 782.753 Q294.051 786.295 294.051 793.425 Q294.051 800.531 295.856 804.096 Q297.685 807.637 301.296 807.637 Q304.93 807.637 306.736 804.096 Q308.565 800.531 308.565 793.425 Q308.565 786.295 306.736 782.753 Q304.93 779.188 301.296 779.188 M301.296 775.485 Q307.106 775.485 310.162 780.091 Q313.241 784.675 313.241 793.425 Q313.241 802.151 310.162 806.758 Q307.106 811.341 301.296 811.341 Q295.486 811.341 292.407 806.758 Q289.352 802.151 289.352 793.425 Q289.352 784.675 292.407 780.091 Q295.486 775.485 301.296 775.485 Z" fill="#000000" fill-rule="nonzero" fill-opacity="1" /><path clip-path="url(#clip040)" d="M313.241 769.586 L337.352 769.586 L337.352 772.783 L313.241 772.783 L313.241 769.586 Z" fill="#000000" fill-rule="nonzero" fill-opacity="1" /><path clip-path="url(#clip040)" d="M355.991 758.49 L346.399 773.479 L355.991 773.479 L355.991 758.49 M354.994 755.179 L359.771 755.179 L359.771 773.479 L363.777 773.479 L363.777 776.639 L359.771 776.639 L359.771 783.259 L355.991 783.259 L355.991 776.639 L343.314 776.639 L343.314 772.972 L354.994 755.179 Z" fill="#000000" fill-rule="nonzero" fill-opacity="1" /><path clip-path="url(#clip040)" d="M116.668 617.502 L124.306 617.502 L124.306 591.137 L115.996 592.804 L115.996 588.544 L124.26 586.878 L128.936 586.878 L128.936 617.502 L136.575 617.502 L136.575 621.438 L116.668 621.438 L116.668 617.502 Z" fill="#000000" fill-rule="nonzero" fill-opacity="1" /><path clip-path="url(#clip040)" d="M146.019 615.558 L150.903 615.558 L150.903 621.438 L146.019 621.438 L146.019 615.558 Z" fill="#000000" fill-rule="nonzero" fill-opacity="1" /><path clip-path="url(#clip040)" d="M161.227 620.72 L161.227 616.461 Q162.987 617.294 164.792 617.734 Q166.598 618.174 168.334 618.174 Q172.964 618.174 175.394 615.072 Q177.848 611.947 178.195 605.604 Q176.852 607.595 174.792 608.66 Q172.732 609.725 170.232 609.725 Q165.047 609.725 162.015 606.6 Q159.005 603.452 159.005 598.012 Q159.005 592.688 162.153 589.47 Q165.302 586.253 170.533 586.253 Q176.528 586.253 179.676 590.859 Q182.848 595.442 182.848 604.192 Q182.848 612.364 178.959 617.248 Q175.093 622.109 168.542 622.109 Q166.783 622.109 164.977 621.762 Q163.172 621.414 161.227 620.72 M170.533 606.067 Q173.681 606.067 175.51 603.915 Q177.362 601.762 177.362 598.012 Q177.362 594.285 175.51 592.132 Q173.681 589.956 170.533 589.956 Q167.385 589.956 165.533 592.132 Q163.704 594.285 163.704 598.012 Q163.704 601.762 165.533 603.915 Q167.385 606.067 170.533 606.067 Z" fill="#000000" fill-rule="nonzero" fill-opacity="1" /><path clip-path="url(#clip040)" d="M201.25 589.956 Q197.639 589.956 195.811 593.521 Q194.005 597.063 194.005 604.192 Q194.005 611.299 195.811 614.864 Q197.639 618.405 201.25 618.405 Q204.885 618.405 206.69 614.864 Q208.519 611.299 208.519 604.192 Q208.519 597.063 206.69 593.521 Q204.885 589.956 201.25 589.956 M201.25 586.253 Q207.061 586.253 210.116 590.859 Q213.195 595.442 213.195 604.192 Q213.195 612.919 210.116 617.526 Q207.061 622.109 201.25 622.109 Q195.44 622.109 192.362 617.526 Q189.306 612.919 189.306 604.192 Q189.306 595.442 192.362 590.859 Q195.44 586.253 201.25 586.253 Z" fill="#000000" fill-rule="nonzero" fill-opacity="1" /><path clip-path="url(#clip040)" d="M249.584 595.975 L239.005 606.6 L249.584 617.178 L246.829 619.979 L236.204 609.354 L225.579 619.979 L222.848 617.178 L233.403 606.6 L222.848 595.975 L225.579 593.174 L236.204 603.799 L246.829 593.174 L249.584 595.975 Z" fill="#000000" fill-rule="nonzero" fill-opacity="1" /><path clip-path="url(#clip040)" d="M261.945 617.502 L269.583 617.502 L269.583 591.137 L261.273 592.804 L261.273 588.544 L269.537 586.878 L274.213 586.878 L274.213 617.502 L281.852 617.502 L281.852 621.438 L261.945 621.438 L261.945 617.502 Z" fill="#000000" fill-rule="nonzero" fill-opacity="1" /><path clip-path="url(#clip040)" d="M301.296 589.956 Q297.685 589.956 295.856 593.521 Q294.051 597.063 294.051 604.192 Q294.051 611.299 295.856 614.864 Q297.685 618.405 301.296 618.405 Q304.93 618.405 306.736 614.864 Q308.565 611.299 308.565 604.192 Q308.565 597.063 306.736 593.521 Q304.93 589.956 301.296 589.956 M301.296 586.253 Q307.106 586.253 310.162 590.859 Q313.241 595.442 313.241 604.192 Q313.241 612.919 310.162 617.526 Q307.106 622.109 301.296 622.109 Q295.486 622.109 292.407 617.526 Q289.352 612.919 289.352 604.192 Q289.352 595.442 292.407 590.859 Q295.486 586.253 301.296 586.253 Z" fill="#000000" fill-rule="nonzero" fill-opacity="1" /><path clip-path="url(#clip040)" d="M313.241 580.354 L337.352 580.354 L337.352 583.551 L313.241 583.551 L313.241 580.354 Z" fill="#000000" fill-rule="nonzero" fill-opacity="1" /><path clip-path="url(#clip040)" d="M355.991 569.257 L346.399 584.247 L355.991 584.247 L355.991 569.257 M354.994 565.947 L359.771 565.947 L359.771 584.247 L363.777 584.247 L363.777 587.407 L359.771 587.407 L359.771 594.027 L355.991 594.027 L355.991 587.407 L343.314 587.407 L343.314 583.739 L354.994 565.947 Z" fill="#000000" fill-rule="nonzero" fill-opacity="1" /><path clip-path="url(#clip040)" d="M119.885 428.27 L136.204 428.27 L136.204 432.205 L114.26 432.205 L114.26 428.27 Q116.922 425.516 121.505 420.886 Q126.112 416.233 127.292 414.891 Q129.538 412.368 130.417 410.631 Q131.32 408.872 131.32 407.182 Q131.32 404.428 129.376 402.692 Q127.455 400.956 124.353 400.956 Q122.154 400.956 119.7 401.719 Q117.269 402.483 114.492 404.034 L114.492 399.312 Q117.316 398.178 119.769 397.599 Q122.223 397.02 124.26 397.02 Q129.63 397.02 132.825 399.706 Q136.019 402.391 136.019 406.881 Q136.019 409.011 135.209 410.932 Q134.422 412.831 132.316 415.423 Q131.737 416.094 128.635 419.312 Q125.533 422.506 119.885 428.27 Z" fill="#000000" fill-rule="nonzero" fill-opacity="1" /><path clip-path="url(#clip040)" d="M146.019 426.326 L150.903 426.326 L150.903 432.205 L146.019 432.205 L146.019 426.326 Z" fill="#000000" fill-rule="nonzero" fill-opacity="1" /><path clip-path="url(#clip040)" d="M171.089 400.724 Q167.477 400.724 165.649 404.289 Q163.843 407.831 163.843 414.96 Q163.843 422.067 165.649 425.631 Q167.477 429.173 171.089 429.173 Q174.723 429.173 176.528 425.631 Q178.357 422.067 178.357 414.96 Q178.357 407.831 176.528 404.289 Q174.723 400.724 171.089 400.724 M171.089 397.02 Q176.899 397.02 179.954 401.627 Q183.033 406.21 183.033 414.96 Q183.033 423.687 179.954 428.293 Q176.899 432.877 171.089 432.877 Q165.278 432.877 162.2 428.293 Q159.144 423.687 159.144 414.96 Q159.144 406.21 162.2 401.627 Q165.278 397.02 171.089 397.02 Z" fill="#000000" fill-rule="nonzero" fill-opacity="1" /><path clip-path="url(#clip040)" d="M201.25 400.724 Q197.639 400.724 195.811 404.289 Q194.005 407.831 194.005 414.96 Q194.005 422.067 195.811 425.631 Q197.639 429.173 201.25 429.173 Q204.885 429.173 206.69 425.631 Q208.519 422.067 208.519 414.96 Q208.519 407.831 206.69 404.289 Q204.885 400.724 201.25 400.724 M201.25 397.02 Q207.061 397.02 210.116 401.627 Q213.195 406.21 213.195 414.96 Q213.195 423.687 210.116 428.293 Q207.061 432.877 201.25 432.877 Q195.44 432.877 192.362 428.293 Q189.306 423.687 189.306 414.96 Q189.306 406.21 192.362 401.627 Q195.44 397.02 201.25 397.02 Z" fill="#000000" fill-rule="nonzero" fill-opacity="1" /><path clip-path="url(#clip040)" d="M249.584 406.743 L239.005 417.368 L249.584 427.946 L246.829 430.747 L236.204 420.122 L225.579 430.747 L222.848 427.946 L233.403 417.368 L222.848 406.743 L225.579 403.942 L236.204 414.567 L246.829 403.942 L249.584 406.743 Z" fill="#000000" fill-rule="nonzero" fill-opacity="1" /><path clip-path="url(#clip040)" d="M261.945 428.27 L269.583 428.27 L269.583 401.905 L261.273 403.571 L261.273 399.312 L269.537 397.645 L274.213 397.645 L274.213 428.27 L281.852 428.27 L281.852 432.205 L261.945 432.205 L261.945 428.27 Z" fill="#000000" fill-rule="nonzero" fill-opacity="1" /><path clip-path="url(#clip040)" d="M301.296 400.724 Q297.685 400.724 295.856 404.289 Q294.051 407.831 294.051 414.96 Q294.051 422.067 295.856 425.631 Q297.685 429.173 301.296 429.173 Q304.93 429.173 306.736 425.631 Q308.565 422.067 308.565 414.96 Q308.565 407.831 306.736 404.289 Q304.93 400.724 301.296 400.724 M301.296 397.02 Q307.106 397.02 310.162 401.627 Q313.241 406.21 313.241 414.96 Q313.241 423.687 310.162 428.293 Q307.106 432.877 301.296 432.877 Q295.486 432.877 292.407 428.293 Q289.352 423.687 289.352 414.96 Q289.352 406.21 292.407 401.627 Q295.486 397.02 301.296 397.02 Z" fill="#000000" fill-rule="nonzero" fill-opacity="1" /><path clip-path="url(#clip040)" d="M313.241 391.122 L337.352 391.122 L337.352 394.319 L313.241 394.319 L313.241 391.122 Z" fill="#000000" fill-rule="nonzero" fill-opacity="1" /><path clip-path="url(#clip040)" d="M355.991 380.025 L346.399 395.015 L355.991 395.015 L355.991 380.025 M354.994 376.715 L359.771 376.715 L359.771 395.015 L363.777 395.015 L363.777 398.175 L359.771 398.175 L359.771 404.795 L355.991 404.795 L355.991 398.175 L343.314 398.175 L343.314 394.507 L354.994 376.715 Z" fill="#000000" fill-rule="nonzero" fill-opacity="1" /><path clip-path="url(#clip040)" d="M119.885 239.038 L136.204 239.038 L136.204 242.973 L114.26 242.973 L114.26 239.038 Q116.922 236.283 121.505 231.654 Q126.112 227.001 127.292 225.659 Q129.538 223.135 130.417 221.399 Q131.32 219.64 131.32 217.95 Q131.32 215.196 129.376 213.46 Q127.455 211.723 124.353 211.723 Q122.154 211.723 119.7 212.487 Q117.269 213.251 114.492 214.802 L114.492 210.08 Q117.316 208.946 119.769 208.367 Q122.223 207.788 124.26 207.788 Q129.63 207.788 132.825 210.473 Q136.019 213.159 136.019 217.649 Q136.019 219.779 135.209 221.7 Q134.422 223.598 132.316 226.191 Q131.737 226.862 128.635 230.08 Q125.533 233.274 119.885 239.038 Z" fill="#000000" fill-rule="nonzero" fill-opacity="1" /><path clip-path="url(#clip040)" d="M146.019 237.094 L150.903 237.094 L150.903 242.973 L146.019 242.973 L146.019 237.094 Z" fill="#000000" fill-rule="nonzero" fill-opacity="1" /><path clip-path="url(#clip040)" d="M161.899 239.038 L169.538 239.038 L169.538 212.672 L161.227 214.339 L161.227 210.08 L169.491 208.413 L174.167 208.413 L174.167 239.038 L181.806 239.038 L181.806 242.973 L161.899 242.973 L161.899 239.038 Z" fill="#000000" fill-rule="nonzero" fill-opacity="1" /><path clip-path="url(#clip040)" d="M201.25 211.492 Q197.639 211.492 195.811 215.057 Q194.005 218.598 194.005 225.728 Q194.005 232.834 195.811 236.399 Q197.639 239.941 201.25 239.941 Q204.885 239.941 206.69 236.399 Q208.519 232.834 208.519 225.728 Q208.519 218.598 206.69 215.057 Q204.885 211.492 201.25 211.492 M201.25 207.788 Q207.061 207.788 210.116 212.395 Q213.195 216.978 213.195 225.728 Q213.195 234.455 210.116 239.061 Q207.061 243.645 201.25 243.645 Q195.44 243.645 192.362 239.061 Q189.306 234.455 189.306 225.728 Q189.306 216.978 192.362 212.395 Q195.44 207.788 201.25 207.788 Z" fill="#000000" fill-rule="nonzero" fill-opacity="1" /><path clip-path="url(#clip040)" d="M249.584 217.51 L239.005 228.135 L249.584 238.714 L246.829 241.515 L236.204 230.89 L225.579 241.515 L222.848 238.714 L233.403 228.135 L222.848 217.51 L225.579 214.71 L236.204 225.334 L246.829 214.71 L249.584 217.51 Z" fill="#000000" fill-rule="nonzero" fill-opacity="1" /><path clip-path="url(#clip040)" d="M261.945 239.038 L269.583 239.038 L269.583 212.672 L261.273 214.339 L261.273 210.08 L269.537 208.413 L274.213 208.413 L274.213 239.038 L281.852 239.038 L281.852 242.973 L261.945 242.973 L261.945 239.038 Z" fill="#000000" fill-rule="nonzero" fill-opacity="1" /><path clip-path="url(#clip040)" d="M301.296 211.492 Q297.685 211.492 295.856 215.057 Q294.051 218.598 294.051 225.728 Q294.051 232.834 295.856 236.399 Q297.685 239.941 301.296 239.941 Q304.93 239.941 306.736 236.399 Q308.565 232.834 308.565 225.728 Q308.565 218.598 306.736 215.057 Q304.93 211.492 301.296 211.492 M301.296 207.788 Q307.106 207.788 310.162 212.395 Q313.241 216.978 313.241 225.728 Q313.241 234.455 310.162 239.061 Q307.106 243.645 301.296 243.645 Q295.486 243.645 292.407 239.061 Q289.352 234.455 289.352 225.728 Q289.352 216.978 292.407 212.395 Q295.486 207.788 301.296 207.788 Z" fill="#000000" fill-rule="nonzero" fill-opacity="1" /><path clip-path="url(#clip040)" d="M313.241 201.89 L337.352 201.89 L337.352 205.087 L313.241 205.087 L313.241 201.89 Z" fill="#000000" fill-rule="nonzero" fill-opacity="1" /><path clip-path="url(#clip040)" d="M355.991 190.793 L346.399 205.783 L355.991 205.783 L355.991 190.793 M354.994 187.483 L359.771 187.483 L359.771 205.783 L363.777 205.783 L363.777 208.943 L359.771 208.943 L359.771 215.563 L355.991 215.563 L355.991 208.943 L343.314 208.943 L343.314 205.275 L354.994 187.483 Z" fill="#000000" fill-rule="nonzero" fill-opacity="1" /><path clip-path="url(#clip040)" d="M16.4842 1275.45 L16.4842 1265.87 L48.8219 1253.75 L16.4842 1241.56 L16.4842 1231.98 L64.0042 1231.98 L64.0042 1238.25 L22.277 1238.25 L54.8694 1250.5 L54.8694 1256.96 L22.277 1269.21 L64.0042 1269.21 L64.0042 1275.45 L16.4842 1275.45 Z" fill="#000000" fill-rule="nonzero" fill-opacity="1" /><path clip-path="url(#clip040)" d="M46.0847 1203.27 Q46.0847 1210.36 47.7079 1213.1 Q49.3312 1215.84 53.2461 1215.84 Q56.3653 1215.84 58.2114 1213.8 Q60.0256 1211.73 60.0256 1208.2 Q60.0256 1203.33 56.5881 1200.4 Q53.1188 1197.44 47.3897 1197.44 L46.0847 1197.44 L46.0847 1203.27 M43.6657 1191.58 L64.0042 1191.58 L64.0042 1197.44 L58.5933 1197.44 Q61.8398 1199.45 63.3994 1202.44 Q64.9272 1205.43 64.9272 1209.76 Q64.9272 1215.23 61.8716 1218.48 Q58.7843 1221.69 53.6281 1221.69 Q47.6125 1221.69 44.5569 1217.68 Q41.5014 1213.64 41.5014 1205.65 L41.5014 1197.44 L40.9285 1197.44 Q36.8862 1197.44 34.6901 1200.11 Q32.4621 1202.76 32.4621 1207.56 Q32.4621 1210.62 33.1941 1213.51 Q33.9262 1216.41 35.3903 1219.08 L29.9795 1219.08 Q28.7381 1215.87 28.1334 1212.85 Q27.4968 1209.82 27.4968 1206.96 Q27.4968 1199.22 31.5072 1195.4 Q35.5176 1191.58 43.6657 1191.58 Z" fill="#000000" fill-rule="nonzero" fill-opacity="1" /><path clip-path="url(#clip040)" d="M18.2347 1173.73 L28.3562 1173.73 L28.3562 1161.67 L32.9077 1161.67 L32.9077 1173.73 L52.2594 1173.73 Q56.6199 1173.73 57.8613 1172.55 Q59.1026 1171.34 59.1026 1167.68 L59.1026 1161.67 L64.0042 1161.67 L64.0042 1167.68 Q64.0042 1174.46 61.4897 1177.04 Q58.9434 1179.62 52.2594 1179.62 L32.9077 1179.62 L32.9077 1183.91 L28.3562 1183.91 L28.3562 1179.62 L18.2347 1179.62 L18.2347 1173.73 Z" fill="#000000" fill-rule="nonzero" fill-opacity="1" /><path clip-path="url(#clip040)" d="M29.7248 1128.31 L35.1993 1128.31 Q33.8307 1130.79 33.1623 1133.31 Q32.4621 1135.79 32.4621 1138.34 Q32.4621 1144.03 36.0905 1147.18 Q39.6872 1150.33 46.212 1150.33 Q52.7369 1150.33 56.3653 1147.18 Q59.9619 1144.03 59.9619 1138.34 Q59.9619 1135.79 59.2935 1133.31 Q58.5933 1130.79 57.2247 1128.31 L62.6355 1128.31 Q63.7814 1130.76 64.3543 1133.4 Q64.9272 1136.01 64.9272 1138.97 Q64.9272 1147.02 59.8664 1151.77 Q54.8057 1156.51 46.212 1156.51 Q37.491 1156.51 32.4939 1151.74 Q27.4968 1146.93 27.4968 1138.59 Q27.4968 1135.88 28.0697 1133.31 Q28.6108 1130.73 29.7248 1128.31 Z" fill="#000000" fill-rule="nonzero" fill-opacity="1" /><path clip-path="url(#clip040)" d="M42.4881 1088.49 L64.0042 1088.49 L64.0042 1094.35 L42.679 1094.35 Q37.6183 1094.35 35.1038 1096.32 Q32.5894 1098.3 32.5894 1102.24 Q32.5894 1106.98 35.6131 1109.72 Q38.6368 1112.46 43.8567 1112.46 L64.0042 1112.46 L64.0042 1118.35 L14.479 1118.35 L14.479 1112.46 L33.8944 1112.46 Q30.6797 1110.36 29.0883 1107.53 Q27.4968 1104.66 27.4968 1100.94 Q27.4968 1094.79 31.3163 1091.64 Q35.1038 1088.49 42.4881 1088.49 Z" fill="#000000" fill-rule="nonzero" fill-opacity="1" /><path clip-path="url(#clip040)" d="M44.7161 1046.32 L47.5806 1046.32 L47.5806 1073.25 Q53.6281 1072.86 56.8109 1069.62 Q59.9619 1066.34 59.9619 1060.51 Q59.9619 1057.14 59.1344 1053.99 Q58.3069 1050.81 56.6518 1047.69 L62.1899 1047.69 Q63.5267 1050.84 64.227 1054.15 Q64.9272 1057.46 64.9272 1060.86 Q64.9272 1069.39 59.9619 1074.39 Q54.9967 1079.36 46.5303 1079.36 Q37.7774 1079.36 32.6531 1074.65 Q27.4968 1069.9 27.4968 1061.88 Q27.4968 1054.69 32.1438 1050.52 Q36.7589 1046.32 44.7161 1046.32 M42.9973 1052.18 Q38.1912 1052.24 35.3266 1054.88 Q32.4621 1057.49 32.4621 1061.82 Q32.4621 1066.72 35.2312 1069.68 Q38.0002 1072.61 43.0292 1073.06 L42.9973 1052.18 Z" fill="#000000" fill-rule="nonzero" fill-opacity="1" /><path clip-path="url(#clip040)" d="M29.4065 1013.98 L34.9447 1013.98 Q33.6716 1016.46 33.035 1019.14 Q32.3984 1021.81 32.3984 1024.68 Q32.3984 1029.04 33.7352 1031.23 Q35.072 1033.4 37.7456 1033.4 Q39.7826 1033.4 40.9603 1031.84 Q42.1061 1030.28 43.1565 1025.57 L43.6021 1023.56 Q44.9389 1017.32 47.3897 1014.71 Q49.8086 1012.07 54.1691 1012.07 Q59.1344 1012.07 62.0308 1016.02 Q64.9272 1019.93 64.9272 1026.81 Q64.9272 1029.67 64.3543 1032.79 Q63.8132 1035.88 62.6992 1039.32 L56.6518 1039.32 Q58.3387 1036.07 59.198 1032.92 Q60.0256 1029.77 60.0256 1026.68 Q60.0256 1022.54 58.6251 1020.32 Q57.1929 1018.09 54.6147 1018.09 Q52.2276 1018.09 50.9545 1019.71 Q49.6813 1021.3 48.5037 1026.74 L48.0262 1028.78 Q46.8804 1034.22 44.5251 1036.64 Q42.138 1039.06 38.0002 1039.06 Q32.9713 1039.06 30.2341 1035.5 Q27.4968 1031.93 27.4968 1025.38 Q27.4968 1022.13 27.9743 1019.27 Q28.4517 1016.4 29.4065 1013.98 Z" fill="#000000" fill-rule="nonzero" fill-opacity="1" /><path clip-path="url(#clip040)" d="M58.657 976.36 L77.5631 976.36 L77.5631 982.248 L28.3562 982.248 L28.3562 976.36 L33.7671 976.36 Q30.5842 974.514 29.0564 971.713 Q27.4968 968.88 27.4968 964.966 Q27.4968 958.473 32.6531 954.43 Q37.8093 950.356 46.212 950.356 Q54.6147 950.356 59.771 954.43 Q64.9272 958.473 64.9272 964.966 Q64.9272 968.88 63.3994 971.713 Q61.8398 974.514 58.657 976.36 M46.212 956.436 Q39.7508 956.436 36.0905 959.109 Q32.3984 961.751 32.3984 966.398 Q32.3984 971.045 36.0905 973.718 Q39.7508 976.36 46.212 976.36 Q52.6732 976.36 56.3653 973.718 Q60.0256 971.045 60.0256 966.398 Q60.0256 961.751 56.3653 959.109 Q52.6732 956.436 46.212 956.436 Z" fill="#000000" fill-rule="nonzero" fill-opacity="1" /><path clip-path="url(#clip040)" d="M44.7161 910.157 L47.5806 910.157 L47.5806 937.084 Q53.6281 936.702 56.8109 933.455 Q59.9619 930.177 59.9619 924.352 Q59.9619 920.979 59.1344 917.828 Q58.3069 914.645 56.6518 911.525 L62.1899 911.525 Q63.5267 914.676 64.227 917.987 Q64.9272 921.297 64.9272 924.702 Q64.9272 933.233 59.9619 938.23 Q54.9967 943.195 46.5303 943.195 Q37.7774 943.195 32.6531 938.484 Q27.4968 933.742 27.4968 925.721 Q27.4968 918.528 32.1438 914.358 Q36.7589 910.157 44.7161 910.157 M42.9973 916.013 Q38.1912 916.077 35.3266 918.719 Q32.4621 921.329 32.4621 925.657 Q32.4621 930.559 35.2312 933.519 Q38.0002 936.447 43.0292 936.893 L42.9973 916.013 Z" fill="#000000" fill-rule="nonzero" fill-opacity="1" /><path clip-path="url(#clip040)" d="M33.8307 879.888 Q33.2578 880.875 33.0032 882.052 Q32.7167 883.198 32.7167 884.599 Q32.7167 889.564 35.9632 892.237 Q39.1779 894.879 45.2253 894.879 L64.0042 894.879 L64.0042 900.767 L28.3562 900.767 L28.3562 894.879 L33.8944 894.879 Q30.6479 893.033 29.0883 890.073 Q27.4968 887.113 27.4968 882.88 Q27.4968 882.275 27.5923 881.543 Q27.656 880.811 27.8151 879.92 L33.8307 879.888 Z" fill="#000000" fill-rule="nonzero" fill-opacity="1" /><path clip-path="url(#clip040)" d="M42.4881 823.392 L64.0042 823.392 L64.0042 829.249 L42.679 829.249 Q37.6183 829.249 35.1038 831.222 Q32.5894 833.195 32.5894 837.142 Q32.5894 841.885 35.6131 844.622 Q38.6368 847.359 43.8567 847.359 L64.0042 847.359 L64.0042 853.247 L28.3562 853.247 L28.3562 847.359 L33.8944 847.359 Q30.6797 845.258 29.0883 842.426 Q27.4968 839.561 27.4968 835.837 Q27.4968 829.694 31.3163 826.543 Q35.1038 823.392 42.4881 823.392 Z" fill="#000000" fill-rule="nonzero" fill-opacity="1" /><path clip-path="url(#clip040)" d="M44.7161 781.219 L47.5806 781.219 L47.5806 808.146 Q53.6281 807.764 56.8109 804.518 Q59.9619 801.24 59.9619 795.415 Q59.9619 792.041 59.1344 788.89 Q58.3069 785.707 56.6518 782.588 L62.1899 782.588 Q63.5267 785.739 64.227 789.049 Q64.9272 792.359 64.9272 795.765 Q64.9272 804.295 59.9619 809.292 Q54.9967 814.257 46.5303 814.257 Q37.7774 814.257 32.6531 809.547 Q27.4968 804.804 27.4968 796.784 Q27.4968 789.59 32.1438 785.421 Q36.7589 781.219 44.7161 781.219 M42.9973 787.076 Q38.1912 787.14 35.3266 789.781 Q32.4621 792.391 32.4621 796.72 Q32.4621 801.622 35.2312 804.582 Q38.0002 807.51 43.0292 807.955 L42.9973 787.076 Z" fill="#000000" fill-rule="nonzero" fill-opacity="1" /><path clip-path="url(#clip040)" d="M49.9359 772.212 L28.3562 772.212 L28.3562 766.356 L49.7131 766.356 Q54.7739 766.356 57.3202 764.382 Q59.8346 762.409 59.8346 758.462 Q59.8346 753.72 56.8109 750.982 Q53.7872 748.213 48.5673 748.213 L28.3562 748.213 L28.3562 742.357 L64.0042 742.357 L64.0042 748.213 L58.5296 748.213 Q61.7762 750.346 63.3676 753.179 Q64.9272 755.979 64.9272 759.703 Q64.9272 765.846 61.1078 769.029 Q57.2883 772.212 49.9359 772.212 M27.4968 757.475 L27.4968 757.475 Z" fill="#000000" fill-rule="nonzero" fill-opacity="1" /><path clip-path="url(#clip040)" d="M18.2347 724.501 L28.3562 724.501 L28.3562 712.438 L32.9077 712.438 L32.9077 724.501 L52.2594 724.501 Q56.6199 724.501 57.8613 723.323 Q59.1026 722.114 59.1026 718.454 L59.1026 712.438 L64.0042 712.438 L64.0042 718.454 Q64.0042 725.233 61.4897 727.811 Q58.9434 730.389 52.2594 730.389 L32.9077 730.389 L32.9077 734.686 L28.3562 734.686 L28.3562 730.389 L18.2347 730.389 L18.2347 724.501 Z" fill="#000000" fill-rule="nonzero" fill-opacity="1" /><path clip-path="url(#clip040)" d="M33.8307 684.079 Q33.2578 685.065 33.0032 686.243 Q32.7167 687.389 32.7167 688.789 Q32.7167 693.755 35.9632 696.428 Q39.1779 699.07 45.2253 699.07 L64.0042 699.07 L64.0042 704.958 L28.3562 704.958 L28.3562 699.07 L33.8944 699.07 Q30.6479 697.224 29.0883 694.264 Q27.4968 691.304 27.4968 687.071 Q27.4968 686.466 27.5923 685.734 Q27.656 685.002 27.8151 684.111 L33.8307 684.079 Z" fill="#000000" fill-rule="nonzero" fill-opacity="1" /><path clip-path="url(#clip040)" d="M32.4621 665.555 Q32.4621 670.265 36.1542 673.002 Q39.8145 675.74 46.212 675.74 Q52.6095 675.74 56.3017 673.034 Q59.9619 670.297 59.9619 665.555 Q59.9619 660.876 56.2698 658.139 Q52.5777 655.401 46.212 655.401 Q39.8781 655.401 36.186 658.139 Q32.4621 660.876 32.4621 665.555 M27.4968 665.555 Q27.4968 657.916 32.4621 653.555 Q37.4273 649.195 46.212 649.195 Q54.9649 649.195 59.9619 653.555 Q64.9272 657.916 64.9272 665.555 Q64.9272 673.225 59.9619 677.586 Q54.9649 681.914 46.212 681.914 Q37.4273 681.914 32.4621 677.586 Q27.4968 673.225 27.4968 665.555 Z" fill="#000000" fill-rule="nonzero" fill-opacity="1" /><path clip-path="url(#clip040)" d="M42.4881 609.855 L64.0042 609.855 L64.0042 615.711 L42.679 615.711 Q37.6183 615.711 35.1038 617.684 Q32.5894 619.658 32.5894 623.605 Q32.5894 628.347 35.6131 631.084 Q38.6368 633.822 43.8567 633.822 L64.0042 633.822 L64.0042 639.71 L28.3562 639.71 L28.3562 633.822 L33.8944 633.822 Q30.6797 631.721 29.0883 628.888 Q27.4968 626.024 27.4968 622.3 Q27.4968 616.157 31.3163 613.006 Q35.1038 609.855 42.4881 609.855 Z" fill="#000000" fill-rule="nonzero" fill-opacity="1" /><path clip-path="url(#clip040)" d="M14.479 559.406 L19.3487 559.406 L19.3487 565.008 Q19.3487 568.159 20.6219 569.401 Q21.895 570.61 25.2052 570.61 L28.3562 570.61 L28.3562 560.966 L32.9077 560.966 L32.9077 570.61 L64.0042 570.61 L64.0042 576.498 L32.9077 576.498 L32.9077 582.1 L28.3562 582.1 L28.3562 576.498 L25.8736 576.498 Q19.9216 576.498 17.2162 573.729 Q14.479 570.96 14.479 564.945 L14.479 559.406 Z" fill="#000000" fill-rule="nonzero" fill-opacity="1" /><path clip-path="url(#clip040)" d="M14.479 554.505 L14.479 548.648 L64.0042 548.648 L64.0042 554.505 L14.479 554.505 Z" fill="#000000" fill-rule="nonzero" fill-opacity="1" /><path clip-path="url(#clip040)" d="M49.9359 536.999 L28.3562 536.999 L28.3562 531.143 L49.7131 531.143 Q54.7739 531.143 57.3202 529.169 Q59.8346 527.196 59.8346 523.249 Q59.8346 518.507 56.8109 515.769 Q53.7872 513 48.5673 513 L28.3562 513 L28.3562 507.144 L64.0042 507.144 L64.0042 513 L58.5296 513 Q61.7762 515.133 63.3676 517.966 Q64.9272 520.767 64.9272 524.491 Q64.9272 530.633 61.1078 533.816 Q57.2883 536.999 49.9359 536.999 M27.4968 522.263 L27.4968 522.263 Z" fill="#000000" fill-rule="nonzero" fill-opacity="1" /><path clip-path="url(#clip040)" d="M28.3562 465.449 L45.7028 478.339 L64.0042 464.78 L64.0042 471.687 L49.9996 482.063 L64.0042 492.439 L64.0042 499.346 L45.3526 485.501 L28.3562 498.168 L28.3562 491.262 L41.0558 481.808 L28.3562 472.355 L28.3562 465.449 Z" fill="#000000" fill-rule="nonzero" fill-opacity="1" /><path clip-path="url(#clip040)" d="M14.5426 421.716 Q21.8632 425.981 29.0246 428.05 Q36.186 430.119 43.5384 430.119 Q50.8908 430.119 58.1159 428.05 Q65.3091 425.949 72.5979 421.716 L72.5979 426.809 Q65.1182 431.583 57.8931 433.97 Q50.668 436.325 43.5384 436.325 Q36.4406 436.325 29.2474 433.97 Q22.0542 431.615 14.5426 426.809 L14.5426 421.716 Z" fill="#000000" fill-rule="nonzero" fill-opacity="1" /><path clip-path="url(#clip040)" d="M29.7248 384.7 L35.1993 384.7 Q33.8307 387.182 33.1623 389.697 Q32.4621 392.179 32.4621 394.726 Q32.4621 400.423 36.0905 403.574 Q39.6872 406.725 46.212 406.725 Q52.7369 406.725 56.3653 403.574 Q59.9619 400.423 59.9619 394.726 Q59.9619 392.179 59.2935 389.697 Q58.5933 387.182 57.2247 384.7 L62.6355 384.7 Q63.7814 387.15 64.3543 389.792 Q64.9272 392.402 64.9272 395.362 Q64.9272 403.415 59.8664 408.157 Q54.8057 412.9 46.212 412.9 Q37.491 412.9 32.4939 408.125 Q27.4968 403.319 27.4968 394.98 Q27.4968 392.275 28.0697 389.697 Q28.6108 387.119 29.7248 384.7 Z" fill="#000000" fill-rule="nonzero" fill-opacity="1" /><path clip-path="url(#clip040)" d="M35.1993 346.76 Q31.2526 344.564 29.3747 341.508 Q27.4968 338.453 27.4968 334.315 Q27.4968 328.745 31.4117 325.721 Q35.2948 322.698 42.4881 322.698 L64.0042 322.698 L64.0042 328.586 L42.679 328.586 Q37.5546 328.586 35.072 330.4 Q32.5894 332.214 32.5894 335.938 Q32.5894 340.49 35.6131 343.132 Q38.6368 345.773 43.8567 345.773 L64.0042 345.773 L64.0042 351.662 L42.679 351.662 Q37.5228 351.662 35.072 353.476 Q32.5894 355.29 32.5894 359.078 Q32.5894 363.565 35.6449 366.207 Q38.6686 368.849 43.8567 368.849 L64.0042 368.849 L64.0042 374.737 L28.3562 374.737 L28.3562 368.849 L33.8944 368.849 Q30.616 366.844 29.0564 364.043 Q27.4968 361.242 27.4968 357.391 Q27.4968 353.508 29.4702 350.802 Q31.4436 348.065 35.1993 346.76 Z" fill="#000000" fill-rule="nonzero" fill-opacity="1" /><path clip-path="url(#clip040)" d="M39.1142 308.629 L39.1142 295.134 L42.7427 295.134 L42.7427 314.168 L39.2416 314.168 Q38.2549 313.085 36.4725 311.08 Q26.7648 300.131 23.7729 300.131 Q21.6722 300.131 20.3991 301.786 Q19.0941 303.441 19.0941 306.147 Q19.0941 307.802 19.667 309.743 Q20.2081 311.685 21.3221 313.977 L17.4072 313.977 Q16.516 311.526 16.0704 309.425 Q15.6248 307.293 15.6248 305.478 Q15.6248 300.863 17.7255 298.094 Q19.8262 295.325 23.2636 295.325 Q27.6878 295.325 36.7271 305.86 Q38.2549 307.643 39.1142 308.629 Z" fill="#000000" fill-rule="nonzero" fill-opacity="1" /><path clip-path="url(#clip040)" d="M14.5426 285.808 L14.5426 280.716 Q22.0542 275.941 29.2474 273.586 Q36.4406 271.199 43.5384 271.199 Q50.668 271.199 57.8931 273.586 Q65.1182 275.941 72.5979 280.716 L72.5979 285.808 Q65.3091 281.575 58.1159 279.506 Q50.8908 277.406 43.5384 277.406 Q36.186 277.406 29.0246 279.506 Q21.8632 281.575 14.5426 285.808 Z" fill="#000000" fill-rule="nonzero" fill-opacity="1" /><path clip-path="url(#clip040)" d="M1181.13 12.096 L1219.37 12.096 L1219.37 18.9825 L1189.32 18.9825 L1189.32 36.8875 L1218.12 36.8875 L1218.12 43.7741 L1189.32 43.7741 L1189.32 65.6895 L1220.1 65.6895 L1220.1 72.576 L1181.13 72.576 L1181.13 12.096 Z" fill="#000000" fill-rule="nonzero" fill-opacity="1" /><path clip-path="url(#clip040)" d="M1256.2 9.54393 L1256.2 15.7418 L1249.07 15.7418 Q1245.06 15.7418 1243.48 17.3622 Q1241.94 18.9825 1241.94 23.1955 L1241.94 27.2059 L1254.21 27.2059 L1254.21 32.9987 L1241.94 32.9987 L1241.94 72.576 L1234.44 72.576 L1234.44 32.9987 L1227.31 32.9987 L1227.31 27.2059 L1234.44 27.2059 L1234.44 24.0462 Q1234.44 16.471 1237.97 13.0277 Q1241.49 9.54393 1249.15 9.54393 L1256.2 9.54393 Z" fill="#000000" fill-rule="nonzero" fill-opacity="1" /><path clip-path="url(#clip040)" d="M1285.4 9.54393 L1285.4 15.7418 L1278.28 15.7418 Q1274.26 15.7418 1272.68 17.3622 Q1271.15 18.9825 1271.15 23.1955 L1271.15 27.2059 L1283.42 27.2059 L1283.42 32.9987 L1271.15 32.9987 L1271.15 72.576 L1263.65 72.576 L1263.65 32.9987 L1256.52 32.9987 L1256.52 27.2059 L1263.65 27.2059 L1263.65 24.0462 Q1263.65 16.471 1267.18 13.0277 Q1270.7 9.54393 1278.36 9.54393 L1285.4 9.54393 Z" fill="#000000" fill-rule="nonzero" fill-opacity="1" /><path clip-path="url(#clip040)" d="M1291.64 27.2059 L1299.1 27.2059 L1299.1 72.576 L1291.64 72.576 L1291.64 27.2059 M1291.64 9.54393 L1299.1 9.54393 L1299.1 18.9825 L1291.64 18.9825 L1291.64 9.54393 Z" fill="#000000" fill-rule="nonzero" fill-opacity="1" /><path clip-path="url(#clip040)" d="M1347.34 28.9478 L1347.34 35.9153 Q1344.18 34.1734 1340.98 33.3227 Q1337.82 32.4315 1334.58 32.4315 Q1327.33 32.4315 1323.32 37.0496 Q1319.31 41.6271 1319.31 49.9314 Q1319.31 58.2358 1323.32 62.8538 Q1327.33 67.4314 1334.58 67.4314 Q1337.82 67.4314 1340.98 66.5807 Q1344.18 65.6895 1347.34 63.9476 L1347.34 70.8341 Q1344.22 72.2924 1340.86 73.0216 Q1337.54 73.7508 1333.77 73.7508 Q1323.52 73.7508 1317.49 67.3098 Q1311.45 60.8689 1311.45 49.9314 Q1311.45 38.832 1317.53 32.472 Q1323.65 26.1121 1334.26 26.1121 Q1337.7 26.1121 1340.98 26.8413 Q1344.26 27.5299 1347.34 28.9478 Z" fill="#000000" fill-rule="nonzero" fill-opacity="1" /><path clip-path="url(#clip040)" d="M1360.31 27.2059 L1367.76 27.2059 L1367.76 72.576 L1360.31 72.576 L1360.31 27.2059 M1360.31 9.54393 L1367.76 9.54393 L1367.76 18.9825 L1360.31 18.9825 L1360.31 9.54393 Z" fill="#000000" fill-rule="nonzero" fill-opacity="1" /><path clip-path="url(#clip040)" d="M1422.16 48.0275 L1422.16 51.6733 L1387.89 51.6733 Q1388.38 59.3701 1392.51 63.421 Q1396.68 67.4314 1404.1 67.4314 Q1408.39 67.4314 1412.4 66.3781 Q1416.45 65.3249 1420.42 63.2184 L1420.42 70.267 Q1416.41 71.9684 1412.2 72.8596 Q1407.99 73.7508 1403.65 73.7508 Q1392.79 73.7508 1386.43 67.4314 Q1380.11 61.1119 1380.11 50.3365 Q1380.11 39.1965 1386.11 32.6746 Q1392.15 26.1121 1402.35 26.1121 Q1411.51 26.1121 1416.82 32.0264 Q1422.16 37.9003 1422.16 48.0275 M1414.71 45.84 Q1414.63 39.7232 1411.27 36.0774 Q1407.94 32.4315 1402.44 32.4315 Q1396.2 32.4315 1392.43 35.9558 Q1388.7 39.4801 1388.14 45.8805 L1414.71 45.84 Z" fill="#000000" fill-rule="nonzero" fill-opacity="1" /><path clip-path="url(#clip040)" d="M1472.11 45.1919 L1472.11 72.576 L1464.66 72.576 L1464.66 45.4349 Q1464.66 38.994 1462.15 35.7938 Q1459.63 32.5936 1454.61 32.5936 Q1448.58 32.5936 1445.09 36.4419 Q1441.61 40.2903 1441.61 46.9338 L1441.61 72.576 L1434.11 72.576 L1434.11 27.2059 L1441.61 27.2059 L1441.61 34.2544 Q1444.28 30.163 1447.89 28.1376 Q1451.53 26.1121 1456.27 26.1121 Q1464.09 26.1121 1468.1 30.9732 Q1472.11 35.7938 1472.11 45.1919 Z" fill="#000000" fill-rule="nonzero" fill-opacity="1" /><path clip-path="url(#clip040)" d="M1519.63 28.9478 L1519.63 35.9153 Q1516.47 34.1734 1513.27 33.3227 Q1510.11 32.4315 1506.87 32.4315 Q1499.62 32.4315 1495.61 37.0496 Q1491.6 41.6271 1491.6 49.9314 Q1491.6 58.2358 1495.61 62.8538 Q1499.62 67.4314 1506.87 67.4314 Q1510.11 67.4314 1513.27 66.5807 Q1516.47 65.6895 1519.63 63.9476 L1519.63 70.8341 Q1516.51 72.2924 1513.15 73.0216 Q1509.82 73.7508 1506.06 73.7508 Q1495.81 73.7508 1489.77 67.3098 Q1483.74 60.8689 1483.74 49.9314 Q1483.74 38.832 1489.81 32.472 Q1495.93 26.1121 1506.54 26.1121 Q1509.99 26.1121 1513.27 26.8413 Q1516.55 27.5299 1519.63 28.9478 Z" fill="#000000" fill-rule="nonzero" fill-opacity="1" /><path clip-path="url(#clip040)" d="M1551.47 76.7889 Q1548.31 84.8907 1545.31 87.3618 Q1542.31 89.8329 1537.29 89.8329 L1531.34 89.8329 L1531.34 83.5945 L1535.71 83.5945 Q1538.79 83.5945 1540.49 82.1361 Q1542.19 80.6778 1544.26 75.2496 L1545.59 71.8468 L1527.24 27.2059 L1535.14 27.2059 L1549.32 62.6918 L1563.5 27.2059 L1571.4 27.2059 L1551.47 76.7889 Z" fill="#000000" fill-rule="nonzero" fill-opacity="1" /><polyline clip-path="url(#clip042)" style="stroke:#009af9; stroke-linecap:round; stroke-linejoin:round; stroke-width:12; stroke-opacity:1; fill:none" points="455.05,160.256 1376.27,601.254 2297.48,1386.4 "/>
</svg>
