<?xml version="1.0" encoding="utf-8"?>
<svg xmlns="http://www.w3.org/2000/svg" xmlns:xlink="http://www.w3.org/1999/xlink" width="600" height="400" viewBox="0 0 2400 1600">
<defs>
  <clipPath id="clip830">
    <rect x="0" y="0" width="2400" height="1600"/>
  </clipPath>
</defs>
<path clip-path="url(#clip830)" d="M0 1600 L2400 1600 L2400 0 L0 0  Z" fill="#ffffff" fill-rule="evenodd" fill-opacity="1"/>
<defs>
  <clipPath id="clip831">
    <rect x="480" y="0" width="1681" height="1600"/>
  </clipPath>
</defs>
<path clip-path="url(#clip830)" d="M398.735 1423.18 L2352.76 1423.18 L2352.76 123.472 L398.735 123.472  Z" fill="#ffffff" fill-rule="evenodd" fill-opacity="1"/>
<defs>
  <clipPath id="clip832">
    <rect x="398" y="123" width="1955" height="1301"/>
  </clipPath>
</defs>
<polyline clip-path="url(#clip832)" style="stroke:#000000; stroke-linecap:round; stroke-linejoin:round; stroke-width:2; stroke-opacity:0.1; fill:none" points="454.038,1423.18 454.038,123.472 "/>
<polyline clip-path="url(#clip832)" style="stroke:#000000; stroke-linecap:round; stroke-linejoin:round; stroke-width:2; stroke-opacity:0.1; fill:none" points="914.892,1423.18 914.892,123.472 "/>
<polyline clip-path="url(#clip832)" style="stroke:#000000; stroke-linecap:round; stroke-linejoin:round; stroke-width:2; stroke-opacity:0.1; fill:none" points="1375.75,1423.18 1375.75,123.472 "/>
<polyline clip-path="url(#clip832)" style="stroke:#000000; stroke-linecap:round; stroke-linejoin:round; stroke-width:2; stroke-opacity:0.1; fill:none" points="1836.6,1423.18 1836.6,123.472 "/>
<polyline clip-path="url(#clip832)" style="stroke:#000000; stroke-linecap:round; stroke-linejoin:round; stroke-width:2; stroke-opacity:0.1; fill:none" points="2297.45,1423.18 2297.45,123.472 "/>
<polyline clip-path="url(#clip832)" style="stroke:#000000; stroke-linecap:round; stroke-linejoin:round; stroke-width:2; stroke-opacity:0.1; fill:none" points="398.735,1354.64 2352.76,1354.64 "/>
<polyline clip-path="url(#clip832)" style="stroke:#000000; stroke-linecap:round; stroke-linejoin:round; stroke-width:2; stroke-opacity:0.1; fill:none" points="398.735,1070.79 2352.76,1070.79 "/>
<polyline clip-path="url(#clip832)" style="stroke:#000000; stroke-linecap:round; stroke-linejoin:round; stroke-width:2; stroke-opacity:0.1; fill:none" points="398.735,786.942 2352.76,786.942 "/>
<polyline clip-path="url(#clip832)" style="stroke:#000000; stroke-linecap:round; stroke-linejoin:round; stroke-width:2; stroke-opacity:0.1; fill:none" points="398.735,503.094 2352.76,503.094 "/>
<polyline clip-path="url(#clip832)" style="stroke:#000000; stroke-linecap:round; stroke-linejoin:round; stroke-width:2; stroke-opacity:0.1; fill:none" points="398.735,219.246 2352.76,219.246 "/>
<polyline clip-path="url(#clip830)" style="stroke:#000000; stroke-linecap:round; stroke-linejoin:round; stroke-width:4; stroke-opacity:1; fill:none" points="398.735,1423.18 2352.76,1423.18 "/>
<polyline clip-path="url(#clip830)" style="stroke:#000000; stroke-linecap:round; stroke-linejoin:round; stroke-width:4; stroke-opacity:1; fill:none" points="454.038,1423.18 454.038,1404.28 "/>
<polyline clip-path="url(#clip830)" style="stroke:#000000; stroke-linecap:round; stroke-linejoin:round; stroke-width:4; stroke-opacity:1; fill:none" points="914.892,1423.18 914.892,1404.28 "/>
<polyline clip-path="url(#clip830)" style="stroke:#000000; stroke-linecap:round; stroke-linejoin:round; stroke-width:4; stroke-opacity:1; fill:none" points="1375.75,1423.18 1375.75,1404.28 "/>
<polyline clip-path="url(#clip830)" style="stroke:#000000; stroke-linecap:round; stroke-linejoin:round; stroke-width:4; stroke-opacity:1; fill:none" points="1836.6,1423.18 1836.6,1404.28 "/>
<polyline clip-path="url(#clip830)" style="stroke:#000000; stroke-linecap:round; stroke-linejoin:round; stroke-width:4; stroke-opacity:1; fill:none" points="2297.45,1423.18 2297.45,1404.28 "/>
<path clip-path="url(#clip830)" d="M406.11 1481.64 L413.749 1481.64 L413.749 1455.28 L405.439 1456.95 L405.439 1452.69 L413.702 1451.02 L418.378 1451.02 L418.378 1481.64 L426.017 1481.64 L426.017 1485.58 L406.11 1485.58 L406.11 1481.64 Z" fill="#000000" fill-rule="nonzero" fill-opacity="1" /><path clip-path="url(#clip830)" d="M445.462 1454.1 Q441.85 1454.1 440.022 1457.66 Q438.216 1461.2 438.216 1468.33 Q438.216 1475.44 440.022 1479.01 Q441.85 1482.55 445.462 1482.55 Q449.096 1482.55 450.901 1479.01 Q452.73 1475.44 452.73 1468.33 Q452.73 1461.2 450.901 1457.66 Q449.096 1454.1 445.462 1454.1 M445.462 1450.39 Q451.272 1450.39 454.327 1455 Q457.406 1459.58 457.406 1468.33 Q457.406 1477.06 454.327 1481.67 Q451.272 1486.25 445.462 1486.25 Q439.651 1486.25 436.573 1481.67 Q433.517 1477.06 433.517 1468.33 Q433.517 1459.58 436.573 1455 Q439.651 1450.39 445.462 1450.39 Z" fill="#000000" fill-rule="nonzero" fill-opacity="1" /><path clip-path="url(#clip830)" d="M465.623 1479.7 L470.508 1479.7 L470.508 1485.58 L465.623 1485.58 L465.623 1479.7 Z" fill="#000000" fill-rule="nonzero" fill-opacity="1" /><path clip-path="url(#clip830)" d="M490.693 1454.1 Q487.082 1454.1 485.253 1457.66 Q483.447 1461.2 483.447 1468.33 Q483.447 1475.44 485.253 1479.01 Q487.082 1482.55 490.693 1482.55 Q494.327 1482.55 496.133 1479.01 Q497.961 1475.44 497.961 1468.33 Q497.961 1461.2 496.133 1457.66 Q494.327 1454.1 490.693 1454.1 M490.693 1450.39 Q496.503 1450.39 499.558 1455 Q502.637 1459.58 502.637 1468.33 Q502.637 1477.06 499.558 1481.67 Q496.503 1486.25 490.693 1486.25 Q484.883 1486.25 481.804 1481.67 Q478.748 1477.06 478.748 1468.33 Q478.748 1459.58 481.804 1455 Q484.883 1450.39 490.693 1450.39 Z" fill="#000000" fill-rule="nonzero" fill-opacity="1" /><path clip-path="url(#clip830)" d="M867.461 1481.64 L875.1 1481.64 L875.1 1455.28 L866.79 1456.95 L866.79 1452.69 L875.054 1451.02 L879.73 1451.02 L879.73 1481.64 L887.369 1481.64 L887.369 1485.58 L867.461 1485.58 L867.461 1481.64 Z" fill="#000000" fill-rule="nonzero" fill-opacity="1" /><path clip-path="url(#clip830)" d="M906.813 1454.1 Q903.202 1454.1 901.373 1457.66 Q899.568 1461.2 899.568 1468.33 Q899.568 1475.44 901.373 1479.01 Q903.202 1482.55 906.813 1482.55 Q910.447 1482.55 912.253 1479.01 Q914.082 1475.44 914.082 1468.33 Q914.082 1461.2 912.253 1457.66 Q910.447 1454.1 906.813 1454.1 M906.813 1450.39 Q912.623 1450.39 915.679 1455 Q918.757 1459.58 918.757 1468.33 Q918.757 1477.06 915.679 1481.67 Q912.623 1486.25 906.813 1486.25 Q901.003 1486.25 897.924 1481.67 Q894.869 1477.06 894.869 1468.33 Q894.869 1459.58 897.924 1455 Q901.003 1450.39 906.813 1450.39 Z" fill="#000000" fill-rule="nonzero" fill-opacity="1" /><path clip-path="url(#clip830)" d="M926.975 1479.7 L931.859 1479.7 L931.859 1485.58 L926.975 1485.58 L926.975 1479.7 Z" fill="#000000" fill-rule="nonzero" fill-opacity="1" /><path clip-path="url(#clip830)" d="M942.091 1451.02 L960.447 1451.02 L960.447 1454.96 L946.373 1454.96 L946.373 1463.43 Q947.392 1463.08 948.41 1462.92 Q949.429 1462.73 950.447 1462.73 Q956.234 1462.73 959.614 1465.9 Q962.993 1469.08 962.993 1474.49 Q962.993 1480.07 959.521 1483.17 Q956.049 1486.25 949.73 1486.25 Q947.554 1486.25 945.285 1485.88 Q943.04 1485.51 940.632 1484.77 L940.632 1480.07 Q942.716 1481.2 944.938 1481.76 Q947.16 1482.32 949.637 1482.32 Q953.642 1482.32 955.979 1480.21 Q958.317 1478.1 958.317 1474.49 Q958.317 1470.88 955.979 1468.77 Q953.642 1466.67 949.637 1466.67 Q947.762 1466.67 945.887 1467.08 Q944.035 1467.5 942.091 1468.38 L942.091 1451.02 Z" fill="#000000" fill-rule="nonzero" fill-opacity="1" /><path clip-path="url(#clip830)" d="M1327.82 1481.64 L1335.46 1481.64 L1335.46 1455.28 L1327.15 1456.95 L1327.15 1452.69 L1335.41 1451.02 L1340.09 1451.02 L1340.09 1481.64 L1347.72 1481.64 L1347.72 1485.58 L1327.82 1485.58 L1327.82 1481.64 Z" fill="#000000" fill-rule="nonzero" fill-opacity="1" /><path clip-path="url(#clip830)" d="M1357.98 1481.64 L1365.62 1481.64 L1365.62 1455.28 L1357.31 1456.95 L1357.31 1452.69 L1365.57 1451.02 L1370.25 1451.02 L1370.25 1481.64 L1377.89 1481.64 L1377.89 1485.58 L1357.98 1485.58 L1357.98 1481.64 Z" fill="#000000" fill-rule="nonzero" fill-opacity="1" /><path clip-path="url(#clip830)" d="M1387.33 1479.7 L1392.22 1479.7 L1392.22 1485.58 L1387.33 1485.58 L1387.33 1479.7 Z" fill="#000000" fill-rule="nonzero" fill-opacity="1" /><path clip-path="url(#clip830)" d="M1412.4 1454.1 Q1408.79 1454.1 1406.96 1457.66 Q1405.16 1461.2 1405.16 1468.33 Q1405.16 1475.44 1406.96 1479.01 Q1408.79 1482.55 1412.4 1482.55 Q1416.03 1482.55 1417.84 1479.01 Q1419.67 1475.44 1419.67 1468.33 Q1419.67 1461.2 1417.84 1457.66 Q1416.03 1454.1 1412.4 1454.1 M1412.4 1450.39 Q1418.21 1450.39 1421.27 1455 Q1424.34 1459.58 1424.34 1468.33 Q1424.34 1477.06 1421.27 1481.67 Q1418.21 1486.25 1412.4 1486.25 Q1406.59 1486.25 1403.51 1481.67 Q1400.46 1477.06 1400.46 1468.33 Q1400.46 1459.58 1403.51 1455 Q1406.59 1450.39 1412.4 1450.39 Z" fill="#000000" fill-rule="nonzero" fill-opacity="1" /><path clip-path="url(#clip830)" d="M1789.17 1481.64 L1796.81 1481.64 L1796.81 1455.28 L1788.5 1456.95 L1788.5 1452.69 L1796.76 1451.02 L1801.44 1451.02 L1801.44 1481.64 L1809.08 1481.64 L1809.08 1485.58 L1789.17 1485.58 L1789.17 1481.64 Z" fill="#000000" fill-rule="nonzero" fill-opacity="1" /><path clip-path="url(#clip830)" d="M1819.33 1481.64 L1826.97 1481.64 L1826.97 1455.28 L1818.66 1456.95 L1818.66 1452.69 L1826.92 1451.02 L1831.6 1451.02 L1831.6 1481.64 L1839.24 1481.64 L1839.24 1485.58 L1819.33 1485.58 L1819.33 1481.64 Z" fill="#000000" fill-rule="nonzero" fill-opacity="1" /><path clip-path="url(#clip830)" d="M1848.68 1479.7 L1853.57 1479.7 L1853.57 1485.58 L1848.68 1485.58 L1848.68 1479.7 Z" fill="#000000" fill-rule="nonzero" fill-opacity="1" /><path clip-path="url(#clip830)" d="M1863.8 1451.02 L1882.15 1451.02 L1882.15 1454.96 L1868.08 1454.96 L1868.08 1463.43 Q1869.1 1463.08 1870.12 1462.92 Q1871.14 1462.73 1872.15 1462.73 Q1877.94 1462.73 1881.32 1465.9 Q1884.7 1469.08 1884.7 1474.49 Q1884.7 1480.07 1881.23 1483.17 Q1877.76 1486.25 1871.44 1486.25 Q1869.26 1486.25 1866.99 1485.88 Q1864.75 1485.51 1862.34 1484.77 L1862.34 1480.07 Q1864.42 1481.2 1866.65 1481.76 Q1868.87 1482.32 1871.34 1482.32 Q1875.35 1482.32 1877.69 1480.21 Q1880.03 1478.1 1880.03 1474.49 Q1880.03 1470.88 1877.69 1468.77 Q1875.35 1466.67 1871.34 1466.67 Q1869.47 1466.67 1867.59 1467.08 Q1865.74 1467.5 1863.8 1468.38 L1863.8 1451.02 Z" fill="#000000" fill-rule="nonzero" fill-opacity="1" /><path clip-path="url(#clip830)" d="M2249.53 1481.64 L2257.16 1481.64 L2257.16 1455.28 L2248.85 1456.95 L2248.85 1452.69 L2257.12 1451.02 L2261.79 1451.02 L2261.79 1481.64 L2269.43 1481.64 L2269.43 1485.58 L2249.53 1485.58 L2249.53 1481.64 Z" fill="#000000" fill-rule="nonzero" fill-opacity="1" /><path clip-path="url(#clip830)" d="M2282.9 1481.64 L2299.22 1481.64 L2299.22 1485.58 L2277.28 1485.58 L2277.28 1481.64 Q2279.94 1478.89 2284.53 1474.26 Q2289.13 1469.61 2290.31 1468.27 Q2292.56 1465.74 2293.44 1464.01 Q2294.34 1462.25 2294.34 1460.56 Q2294.34 1457.8 2292.4 1456.07 Q2290.47 1454.33 2287.37 1454.33 Q2285.17 1454.33 2282.72 1455.09 Q2280.29 1455.86 2277.51 1457.41 L2277.51 1452.69 Q2280.34 1451.55 2282.79 1450.97 Q2285.24 1450.39 2287.28 1450.39 Q2292.65 1450.39 2295.84 1453.08 Q2299.04 1455.77 2299.04 1460.26 Q2299.04 1462.39 2298.23 1464.31 Q2297.44 1466.2 2295.34 1468.8 Q2294.76 1469.47 2291.65 1472.69 Q2288.55 1475.88 2282.9 1481.64 Z" fill="#000000" fill-rule="nonzero" fill-opacity="1" /><path clip-path="url(#clip830)" d="M2309.04 1479.7 L2313.92 1479.7 L2313.92 1485.58 L2309.04 1485.58 L2309.04 1479.7 Z" fill="#000000" fill-rule="nonzero" fill-opacity="1" /><path clip-path="url(#clip830)" d="M2334.11 1454.1 Q2330.5 1454.1 2328.67 1457.66 Q2326.86 1461.2 2326.86 1468.33 Q2326.86 1475.44 2328.67 1479.01 Q2330.5 1482.55 2334.11 1482.55 Q2337.74 1482.55 2339.55 1479.01 Q2341.38 1475.44 2341.38 1468.33 Q2341.38 1461.2 2339.55 1457.66 Q2337.74 1454.1 2334.11 1454.1 M2334.11 1450.39 Q2339.92 1450.39 2342.97 1455 Q2346.05 1459.58 2346.05 1468.33 Q2346.05 1477.06 2342.97 1481.67 Q2339.92 1486.25 2334.11 1486.25 Q2328.3 1486.25 2325.22 1481.67 Q2322.16 1477.06 2322.16 1468.33 Q2322.16 1459.58 2325.22 1455 Q2328.3 1450.39 2334.11 1450.39 Z" fill="#000000" fill-rule="nonzero" fill-opacity="1" /><path clip-path="url(#clip830)" d="M896.106 1525.81 L896.106 1562.76 L903.872 1562.76 Q913.707 1562.76 918.258 1558.3 Q922.842 1553.85 922.842 1544.24 Q922.842 1534.69 918.258 1530.26 Q913.707 1525.81 903.872 1525.81 L896.106 1525.81 M889.676 1520.52 L902.885 1520.52 Q916.699 1520.52 923.16 1526.28 Q929.621 1532.01 929.621 1544.24 Q929.621 1556.52 923.128 1562.28 Q916.635 1568.04 902.885 1568.04 L889.676 1568.04 L889.676 1520.52 Z" fill="#000000" fill-rule="nonzero" fill-opacity="1" /><path clip-path="url(#clip830)" d="M939.615 1532.4 L945.472 1532.4 L945.472 1568.04 L939.615 1568.04 L939.615 1532.4 M939.615 1518.52 L945.472 1518.52 L945.472 1525.93 L939.615 1525.93 L939.615 1518.52 Z" fill="#000000" fill-rule="nonzero" fill-opacity="1" /><path clip-path="url(#clip830)" d="M980.451 1533.45 L980.451 1538.98 Q977.969 1537.71 975.295 1537.07 Q972.621 1536.44 969.757 1536.44 Q965.396 1536.44 963.2 1537.77 Q961.036 1539.11 961.036 1541.79 Q961.036 1543.82 962.595 1545 Q964.155 1546.15 968.866 1547.2 L970.871 1547.64 Q977.109 1548.98 979.719 1551.43 Q982.361 1553.85 982.361 1558.21 Q982.361 1563.17 978.414 1566.07 Q974.499 1568.97 967.624 1568.97 Q964.76 1568.97 961.641 1568.39 Q958.553 1567.85 955.116 1566.74 L955.116 1560.69 Q958.362 1562.38 961.513 1563.24 Q964.664 1564.07 967.752 1564.07 Q971.889 1564.07 974.117 1562.66 Q976.345 1561.23 976.345 1558.65 Q976.345 1556.27 974.722 1554.99 Q973.131 1553.72 967.688 1552.54 L965.651 1552.07 Q960.208 1550.92 957.789 1548.56 Q955.37 1546.18 955.37 1542.04 Q955.37 1537.01 958.935 1534.27 Q962.5 1531.54 969.057 1531.54 Q972.303 1531.54 975.168 1532.01 Q978.032 1532.49 980.451 1533.45 Z" fill="#000000" fill-rule="nonzero" fill-opacity="1" /><path clip-path="url(#clip830)" d="M997.479 1522.27 L997.479 1532.4 L1009.54 1532.4 L1009.54 1536.95 L997.479 1536.95 L997.479 1556.3 Q997.479 1560.66 998.657 1561.9 Q999.867 1563.14 1003.53 1563.14 L1009.54 1563.14 L1009.54 1568.04 L1003.53 1568.04 Q996.747 1568.04 994.169 1565.53 Q991.591 1562.98 991.591 1556.3 L991.591 1536.95 L987.294 1536.95 L987.294 1532.4 L991.591 1532.4 L991.591 1522.27 L997.479 1522.27 Z" fill="#000000" fill-rule="nonzero" fill-opacity="1" /><path clip-path="url(#clip830)" d="M1033.45 1550.12 Q1026.35 1550.12 1023.61 1551.75 Q1020.87 1553.37 1020.87 1557.29 Q1020.87 1560.4 1022.91 1562.25 Q1024.98 1564.07 1028.51 1564.07 Q1033.38 1564.07 1036.31 1560.63 Q1039.27 1557.16 1039.27 1551.43 L1039.27 1550.12 L1033.45 1550.12 M1045.13 1547.71 L1045.13 1568.04 L1039.27 1568.04 L1039.27 1562.63 Q1037.27 1565.88 1034.27 1567.44 Q1031.28 1568.97 1026.95 1568.97 Q1021.48 1568.97 1018.23 1565.91 Q1015.02 1562.82 1015.02 1557.67 Q1015.02 1551.65 1019.03 1548.6 Q1023.07 1545.54 1031.06 1545.54 L1039.27 1545.54 L1039.27 1544.97 Q1039.27 1540.93 1036.6 1538.73 Q1033.95 1536.5 1029.15 1536.5 Q1026.09 1536.5 1023.2 1537.23 Q1020.3 1537.97 1017.63 1539.43 L1017.63 1534.02 Q1020.84 1532.78 1023.87 1532.17 Q1026.89 1531.54 1029.75 1531.54 Q1037.49 1531.54 1041.31 1535.55 Q1045.13 1539.56 1045.13 1547.71 Z" fill="#000000" fill-rule="nonzero" fill-opacity="1" /><path clip-path="url(#clip830)" d="M1086.82 1546.53 L1086.82 1568.04 L1080.97 1568.04 L1080.97 1546.72 Q1080.97 1541.66 1078.99 1539.14 Q1077.02 1536.63 1073.07 1536.63 Q1068.33 1536.63 1065.59 1539.65 Q1062.86 1542.68 1062.86 1547.9 L1062.86 1568.04 L1056.97 1568.04 L1056.97 1532.4 L1062.86 1532.4 L1062.86 1537.93 Q1064.96 1534.72 1067.79 1533.13 Q1070.65 1531.54 1074.38 1531.54 Q1080.52 1531.54 1083.67 1535.36 Q1086.82 1539.14 1086.82 1546.53 Z" fill="#000000" fill-rule="nonzero" fill-opacity="1" /><path clip-path="url(#clip830)" d="M1124.16 1533.76 L1124.16 1539.24 Q1121.67 1537.87 1119.16 1537.2 Q1116.68 1536.5 1114.13 1536.5 Q1108.43 1536.5 1105.28 1540.13 Q1102.13 1543.73 1102.13 1550.25 Q1102.13 1556.78 1105.28 1560.4 Q1108.43 1564 1114.13 1564 Q1116.68 1564 1119.16 1563.33 Q1121.67 1562.63 1124.16 1561.26 L1124.16 1566.68 Q1121.71 1567.82 1119.06 1568.39 Q1116.45 1568.97 1113.49 1568.97 Q1105.44 1568.97 1100.7 1563.91 Q1095.96 1558.85 1095.96 1550.25 Q1095.96 1541.53 1100.73 1536.53 Q1105.54 1531.54 1113.88 1531.54 Q1116.58 1531.54 1119.16 1532.11 Q1121.74 1532.65 1124.16 1533.76 Z" fill="#000000" fill-rule="nonzero" fill-opacity="1" /><path clip-path="url(#clip830)" d="M1164.83 1548.76 L1164.83 1551.62 L1137.91 1551.62 Q1138.29 1557.67 1141.54 1560.85 Q1144.81 1564 1150.64 1564 Q1154.01 1564 1157.16 1563.17 Q1160.35 1562.35 1163.47 1560.69 L1163.47 1566.23 Q1160.31 1567.57 1157 1568.27 Q1153.69 1568.97 1150.29 1568.97 Q1141.76 1568.97 1136.76 1564 Q1131.8 1559.04 1131.8 1550.57 Q1131.8 1541.82 1136.51 1536.69 Q1141.25 1531.54 1149.27 1531.54 Q1156.46 1531.54 1160.63 1536.18 Q1164.83 1540.8 1164.83 1548.76 M1158.98 1547.04 Q1158.91 1542.23 1156.27 1539.37 Q1153.66 1536.5 1149.33 1536.5 Q1144.43 1536.5 1141.47 1539.27 Q1138.54 1542.04 1138.1 1547.07 L1158.98 1547.04 Z" fill="#000000" fill-rule="nonzero" fill-opacity="1" /><path clip-path="url(#clip830)" d="M1220.76 1550.25 Q1220.76 1543.79 1218.08 1540.13 Q1215.44 1536.44 1210.79 1536.44 Q1206.15 1536.44 1203.47 1540.13 Q1200.83 1543.79 1200.83 1550.25 Q1200.83 1556.71 1203.47 1560.4 Q1206.15 1564.07 1210.79 1564.07 Q1215.44 1564.07 1218.08 1560.4 Q1220.76 1556.71 1220.76 1550.25 M1200.83 1537.81 Q1202.68 1534.62 1205.48 1533.1 Q1208.31 1531.54 1212.23 1531.54 Q1218.72 1531.54 1222.76 1536.69 Q1226.84 1541.85 1226.84 1550.25 Q1226.84 1558.65 1222.76 1563.81 Q1218.72 1568.97 1212.23 1568.97 Q1208.31 1568.97 1205.48 1567.44 Q1202.68 1565.88 1200.83 1562.7 L1200.83 1568.04 L1194.94 1568.04 L1194.94 1518.52 L1200.83 1518.52 L1200.83 1537.81 Z" fill="#000000" fill-rule="nonzero" fill-opacity="1" /><path clip-path="url(#clip830)" d="M1267.04 1548.76 L1267.04 1551.62 L1240.11 1551.62 Q1240.49 1557.67 1243.74 1560.85 Q1247.02 1564 1252.84 1564 Q1256.21 1564 1259.36 1563.17 Q1262.55 1562.35 1265.67 1560.69 L1265.67 1566.23 Q1262.52 1567.57 1259.21 1568.27 Q1255.9 1568.97 1252.49 1568.97 Q1243.96 1568.97 1238.96 1564 Q1234 1559.04 1234 1550.57 Q1234 1541.82 1238.71 1536.69 Q1243.45 1531.54 1251.47 1531.54 Q1258.66 1531.54 1262.83 1536.18 Q1267.04 1540.8 1267.04 1548.76 M1261.18 1547.04 Q1261.12 1542.23 1258.47 1539.37 Q1255.86 1536.5 1251.53 1536.5 Q1246.63 1536.5 1243.67 1539.27 Q1240.74 1542.04 1240.3 1547.07 L1261.18 1547.04 Z" fill="#000000" fill-rule="nonzero" fill-opacity="1" /><path clip-path="url(#clip830)" d="M1282.44 1522.27 L1282.44 1532.4 L1294.5 1532.4 L1294.5 1536.95 L1282.44 1536.95 L1282.44 1556.3 Q1282.44 1560.66 1283.62 1561.9 Q1284.83 1563.14 1288.49 1563.14 L1294.5 1563.14 L1294.5 1568.04 L1288.49 1568.04 Q1281.71 1568.04 1279.13 1565.53 Q1276.55 1562.98 1276.55 1556.3 L1276.55 1536.95 L1272.26 1536.95 L1272.26 1532.4 L1276.55 1532.4 L1276.55 1522.27 L1282.44 1522.27 Z" fill="#000000" fill-rule="nonzero" fill-opacity="1" /><path clip-path="url(#clip830)" d="M1298.8 1532.4 L1304.66 1532.4 L1311.98 1560.21 L1319.27 1532.4 L1326.17 1532.4 L1333.49 1560.21 L1340.78 1532.4 L1346.64 1532.4 L1337.31 1568.04 L1330.41 1568.04 L1322.74 1538.83 L1315.03 1568.04 L1308.13 1568.04 L1298.8 1532.4 Z" fill="#000000" fill-rule="nonzero" fill-opacity="1" /><path clip-path="url(#clip830)" d="M1386.01 1548.76 L1386.01 1551.62 L1359.08 1551.62 Q1359.47 1557.67 1362.71 1560.85 Q1365.99 1564 1371.81 1564 Q1375.19 1564 1378.34 1563.17 Q1381.52 1562.35 1384.64 1560.69 L1384.64 1566.23 Q1381.49 1567.57 1378.18 1568.27 Q1374.87 1568.97 1371.46 1568.97 Q1362.93 1568.97 1357.94 1564 Q1352.97 1559.04 1352.97 1550.57 Q1352.97 1541.82 1357.68 1536.69 Q1362.43 1531.54 1370.45 1531.54 Q1377.64 1531.54 1381.81 1536.18 Q1386.01 1540.8 1386.01 1548.76 M1380.15 1547.04 Q1380.09 1542.23 1377.45 1539.37 Q1374.84 1536.5 1370.51 1536.5 Q1365.61 1536.5 1362.65 1539.27 Q1359.72 1542.04 1359.27 1547.07 L1380.15 1547.04 Z" fill="#000000" fill-rule="nonzero" fill-opacity="1" /><path clip-path="url(#clip830)" d="M1426.11 1548.76 L1426.11 1551.62 L1399.19 1551.62 Q1399.57 1557.67 1402.82 1560.85 Q1406.09 1564 1411.92 1564 Q1415.29 1564 1418.44 1563.17 Q1421.63 1562.35 1424.75 1560.69 L1424.75 1566.23 Q1421.59 1567.57 1418.28 1568.27 Q1414.97 1568.97 1411.57 1568.97 Q1403.04 1568.97 1398.04 1564 Q1393.08 1559.04 1393.08 1550.57 Q1393.08 1541.82 1397.79 1536.69 Q1402.53 1531.54 1410.55 1531.54 Q1417.74 1531.54 1421.91 1536.18 Q1426.11 1540.8 1426.11 1548.76 M1420.26 1547.04 Q1420.19 1542.23 1417.55 1539.37 Q1414.94 1536.5 1410.61 1536.5 Q1405.71 1536.5 1402.75 1539.27 Q1399.82 1542.04 1399.38 1547.07 L1420.26 1547.04 Z" fill="#000000" fill-rule="nonzero" fill-opacity="1" /><path clip-path="url(#clip830)" d="M1465.36 1546.53 L1465.36 1568.04 L1459.5 1568.04 L1459.5 1546.72 Q1459.5 1541.66 1457.53 1539.14 Q1455.56 1536.63 1451.61 1536.63 Q1446.87 1536.63 1444.13 1539.65 Q1441.39 1542.68 1441.39 1547.9 L1441.39 1568.04 L1435.5 1568.04 L1435.5 1532.4 L1441.39 1532.4 L1441.39 1537.93 Q1443.49 1534.72 1446.33 1533.13 Q1449.19 1531.54 1452.91 1531.54 Q1459.06 1531.54 1462.21 1535.36 Q1465.36 1539.14 1465.36 1546.53 Z" fill="#000000" fill-rule="nonzero" fill-opacity="1" /><path clip-path="url(#clip830)" d="M1513.96 1550.12 Q1506.86 1550.12 1504.13 1551.75 Q1501.39 1553.37 1501.39 1557.29 Q1501.39 1560.4 1503.43 1562.25 Q1505.49 1564.07 1509.03 1564.07 Q1513.9 1564.07 1516.83 1560.63 Q1519.79 1557.16 1519.79 1551.43 L1519.79 1550.12 L1513.96 1550.12 M1525.64 1547.71 L1525.64 1568.04 L1519.79 1568.04 L1519.79 1562.63 Q1517.78 1565.88 1514.79 1567.44 Q1511.8 1568.97 1507.47 1568.97 Q1501.99 1568.97 1498.75 1565.91 Q1495.53 1562.82 1495.53 1557.67 Q1495.53 1551.65 1499.54 1548.6 Q1503.58 1545.54 1511.57 1545.54 L1519.79 1545.54 L1519.79 1544.97 Q1519.79 1540.93 1517.11 1538.73 Q1514.47 1536.5 1509.66 1536.5 Q1506.61 1536.5 1503.71 1537.23 Q1500.82 1537.97 1498.14 1539.43 L1498.14 1534.02 Q1501.36 1532.78 1504.38 1532.17 Q1507.4 1531.54 1510.27 1531.54 Q1518 1531.54 1521.82 1535.55 Q1525.64 1539.56 1525.64 1547.71 Z" fill="#000000" fill-rule="nonzero" fill-opacity="1" /><path clip-path="url(#clip830)" d="M1558.36 1537.87 Q1557.38 1537.3 1556.2 1537.04 Q1555.05 1536.76 1553.65 1536.76 Q1548.69 1536.76 1546.01 1540 Q1543.37 1543.22 1543.37 1549.27 L1543.37 1568.04 L1537.48 1568.04 L1537.48 1532.4 L1543.37 1532.4 L1543.37 1537.93 Q1545.22 1534.69 1548.18 1533.13 Q1551.14 1531.54 1555.37 1531.54 Q1555.97 1531.54 1556.71 1531.63 Q1557.44 1531.7 1558.33 1531.85 L1558.36 1537.87 Z" fill="#000000" fill-rule="nonzero" fill-opacity="1" /><path clip-path="url(#clip830)" d="M1584.02 1537.87 Q1583.03 1537.3 1581.85 1537.04 Q1580.71 1536.76 1579.31 1536.76 Q1574.34 1536.76 1571.67 1540 Q1569.02 1543.22 1569.02 1549.27 L1569.02 1568.04 L1563.14 1568.04 L1563.14 1532.4 L1569.02 1532.4 L1569.02 1537.93 Q1570.87 1534.69 1573.83 1533.13 Q1576.79 1531.54 1581.02 1531.54 Q1581.63 1531.54 1582.36 1531.63 Q1583.09 1531.7 1583.98 1531.85 L1584.02 1537.87 Z" fill="#000000" fill-rule="nonzero" fill-opacity="1" /><path clip-path="url(#clip830)" d="M1606.36 1550.12 Q1599.26 1550.12 1596.52 1551.75 Q1593.79 1553.37 1593.79 1557.29 Q1593.79 1560.4 1595.82 1562.25 Q1597.89 1564.07 1601.43 1564.07 Q1606.3 1564.07 1609.22 1560.63 Q1612.18 1557.16 1612.18 1551.43 L1612.18 1550.12 L1606.36 1550.12 M1618.04 1547.71 L1618.04 1568.04 L1612.18 1568.04 L1612.18 1562.63 Q1610.18 1565.88 1607.19 1567.44 Q1604.19 1568.97 1599.87 1568.97 Q1594.39 1568.97 1591.15 1565.91 Q1587.93 1562.82 1587.93 1557.67 Q1587.93 1551.65 1591.94 1548.6 Q1595.98 1545.54 1603.97 1545.54 L1612.18 1545.54 L1612.18 1544.97 Q1612.18 1540.93 1609.51 1538.73 Q1606.87 1536.5 1602.06 1536.5 Q1599.01 1536.5 1596.11 1537.23 Q1593.21 1537.97 1590.54 1539.43 L1590.54 1534.02 Q1593.76 1532.78 1596.78 1532.17 Q1599.8 1531.54 1602.67 1531.54 Q1610.4 1531.54 1614.22 1535.55 Q1618.04 1539.56 1618.04 1547.71 Z" fill="#000000" fill-rule="nonzero" fill-opacity="1" /><path clip-path="url(#clip830)" d="M1644.94 1571.35 Q1642.45 1577.72 1640.1 1579.66 Q1637.74 1581.6 1633.8 1581.6 L1629.12 1581.6 L1629.12 1576.7 L1632.55 1576.7 Q1634.97 1576.7 1636.31 1575.56 Q1637.65 1574.41 1639.27 1570.14 L1640.32 1567.47 L1625.9 1532.4 L1632.11 1532.4 L1643.25 1560.28 L1654.39 1532.4 L1660.6 1532.4 L1644.94 1571.35 Z" fill="#000000" fill-rule="nonzero" fill-opacity="1" /><path clip-path="url(#clip830)" d="M1691.41 1533.45 L1691.41 1538.98 Q1688.92 1537.71 1686.25 1537.07 Q1683.58 1536.44 1680.71 1536.44 Q1676.35 1536.44 1674.15 1537.77 Q1671.99 1539.11 1671.99 1541.79 Q1671.99 1543.82 1673.55 1545 Q1675.11 1546.15 1679.82 1547.2 L1681.82 1547.64 Q1688.06 1548.98 1690.67 1551.43 Q1693.31 1553.85 1693.31 1558.21 Q1693.31 1563.17 1689.37 1566.07 Q1685.45 1568.97 1678.58 1568.97 Q1675.71 1568.97 1672.59 1568.39 Q1669.51 1567.85 1666.07 1566.74 L1666.07 1560.69 Q1669.32 1562.38 1672.47 1563.24 Q1675.62 1564.07 1678.71 1564.07 Q1682.84 1564.07 1685.07 1562.66 Q1687.3 1561.23 1687.3 1558.65 Q1687.3 1556.27 1685.68 1554.99 Q1684.08 1553.72 1678.64 1552.54 L1676.6 1552.07 Q1671.16 1550.92 1668.74 1548.56 Q1666.32 1546.18 1666.32 1542.04 Q1666.32 1537.01 1669.89 1534.27 Q1673.45 1531.54 1680.01 1531.54 Q1683.26 1531.54 1686.12 1532.01 Q1688.99 1532.49 1691.41 1533.45 Z" fill="#000000" fill-rule="nonzero" fill-opacity="1" /><path clip-path="url(#clip830)" d="M1737.43 1518.58 Q1733.16 1525.9 1731.1 1533.06 Q1729.03 1540.23 1729.03 1547.58 Q1729.03 1554.93 1731.1 1562.16 Q1733.2 1569.35 1737.43 1576.64 L1732.34 1576.64 Q1727.56 1569.16 1725.18 1561.93 Q1722.82 1554.71 1722.82 1547.58 Q1722.82 1540.48 1725.18 1533.29 Q1727.53 1526.09 1732.34 1518.58 L1737.43 1518.58 Z" fill="#000000" fill-rule="nonzero" fill-opacity="1" /><path clip-path="url(#clip830)" d="M1774.45 1533.76 L1774.45 1539.24 Q1771.96 1537.87 1769.45 1537.2 Q1766.97 1536.5 1764.42 1536.5 Q1758.72 1536.5 1755.57 1540.13 Q1752.42 1543.73 1752.42 1550.25 Q1752.42 1556.78 1755.57 1560.4 Q1758.72 1564 1764.42 1564 Q1766.97 1564 1769.45 1563.33 Q1771.96 1562.63 1774.45 1561.26 L1774.45 1566.68 Q1771.99 1567.82 1769.35 1568.39 Q1766.74 1568.97 1763.78 1568.97 Q1755.73 1568.97 1750.99 1563.91 Q1746.25 1558.85 1746.25 1550.25 Q1746.25 1541.53 1751.02 1536.53 Q1755.83 1531.54 1764.17 1531.54 Q1766.87 1531.54 1769.45 1532.11 Q1772.03 1532.65 1774.45 1533.76 Z" fill="#000000" fill-rule="nonzero" fill-opacity="1" /><path clip-path="url(#clip830)" d="M1812.39 1539.24 Q1814.58 1535.29 1817.64 1533.41 Q1820.69 1531.54 1824.83 1531.54 Q1830.4 1531.54 1833.42 1535.45 Q1836.45 1539.33 1836.45 1546.53 L1836.45 1568.04 L1830.56 1568.04 L1830.56 1546.72 Q1830.56 1541.59 1828.75 1539.11 Q1826.93 1536.63 1823.21 1536.63 Q1818.66 1536.63 1816.01 1539.65 Q1813.37 1542.68 1813.37 1547.9 L1813.37 1568.04 L1807.48 1568.04 L1807.48 1546.72 Q1807.48 1541.56 1805.67 1539.11 Q1803.86 1536.63 1800.07 1536.63 Q1795.58 1536.63 1792.94 1539.68 Q1790.3 1542.71 1790.3 1547.9 L1790.3 1568.04 L1784.41 1568.04 L1784.41 1532.4 L1790.3 1532.4 L1790.3 1537.93 Q1792.3 1534.66 1795.1 1533.1 Q1797.9 1531.54 1801.75 1531.54 Q1805.64 1531.54 1808.34 1533.51 Q1811.08 1535.48 1812.39 1539.24 Z" fill="#000000" fill-rule="nonzero" fill-opacity="1" /><path clip-path="url(#clip830)" d="M1847.21 1518.58 L1852.3 1518.58 Q1857.07 1526.09 1859.43 1533.29 Q1861.82 1540.48 1861.82 1547.58 Q1861.82 1554.71 1859.43 1561.93 Q1857.07 1569.16 1852.3 1576.64 L1847.21 1576.64 Q1851.44 1569.35 1853.51 1562.16 Q1855.61 1554.93 1855.61 1547.58 Q1855.61 1540.23 1853.51 1533.06 Q1851.44 1525.9 1847.21 1518.58 Z" fill="#000000" fill-rule="nonzero" fill-opacity="1" /><polyline clip-path="url(#clip830)" style="stroke:#000000; stroke-linecap:round; stroke-linejoin:round; stroke-width:4; stroke-opacity:1; fill:none" points="398.735,1423.18 398.735,123.472 "/>
<polyline clip-path="url(#clip830)" style="stroke:#000000; stroke-linecap:round; stroke-linejoin:round; stroke-width:4; stroke-opacity:1; fill:none" points="398.735,1354.64 417.633,1354.64 "/>
<polyline clip-path="url(#clip830)" style="stroke:#000000; stroke-linecap:round; stroke-linejoin:round; stroke-width:4; stroke-opacity:1; fill:none" points="398.735,1070.79 417.633,1070.79 "/>
<polyline clip-path="url(#clip830)" style="stroke:#000000; stroke-linecap:round; stroke-linejoin:round; stroke-width:4; stroke-opacity:1; fill:none" points="398.735,786.942 417.633,786.942 "/>
<polyline clip-path="url(#clip830)" style="stroke:#000000; stroke-linecap:round; stroke-linejoin:round; stroke-width:4; stroke-opacity:1; fill:none" points="398.735,503.094 417.633,503.094 "/>
<polyline clip-path="url(#clip830)" style="stroke:#000000; stroke-linecap:round; stroke-linejoin:round; stroke-width:4; stroke-opacity:1; fill:none" points="398.735,219.246 417.633,219.246 "/>
<path clip-path="url(#clip830)" d="M116.066 1343.81 L134.422 1343.81 L134.422 1347.74 L120.348 1347.74 L120.348 1356.21 Q121.367 1355.87 122.385 1355.7 Q123.404 1355.52 124.422 1355.52 Q130.209 1355.52 133.589 1358.69 Q136.968 1361.86 136.968 1367.28 Q136.968 1372.86 133.496 1375.96 Q130.024 1379.04 123.705 1379.04 Q121.529 1379.04 119.26 1378.67 Q117.015 1378.3 114.607 1377.56 L114.607 1372.86 Q116.691 1373.99 118.913 1374.55 Q121.135 1375.1 123.612 1375.1 Q127.617 1375.1 129.955 1373 Q132.292 1370.89 132.292 1367.28 Q132.292 1363.67 129.955 1361.56 Q127.617 1359.45 123.612 1359.45 Q121.737 1359.45 119.862 1359.87 Q118.01 1360.29 116.066 1361.17 L116.066 1343.81 Z" fill="#000000" fill-rule="nonzero" fill-opacity="1" /><path clip-path="url(#clip830)" d="M146.181 1372.49 L151.066 1372.49 L151.066 1378.37 L146.181 1378.37 L146.181 1372.49 Z" fill="#000000" fill-rule="nonzero" fill-opacity="1" /><path clip-path="url(#clip830)" d="M171.251 1346.89 Q167.64 1346.89 165.811 1350.45 Q164.005 1353.99 164.005 1361.12 Q164.005 1368.23 165.811 1371.79 Q167.64 1375.33 171.251 1375.33 Q174.885 1375.33 176.69 1371.79 Q178.519 1368.23 178.519 1361.12 Q178.519 1353.99 176.69 1350.45 Q174.885 1346.89 171.251 1346.89 M171.251 1343.18 Q177.061 1343.18 180.116 1347.79 Q183.195 1352.37 183.195 1361.12 Q183.195 1369.85 180.116 1374.45 Q177.061 1379.04 171.251 1379.04 Q165.44 1379.04 162.362 1374.45 Q159.306 1369.85 159.306 1361.12 Q159.306 1352.37 162.362 1347.79 Q165.44 1343.18 171.251 1343.18 Z" fill="#000000" fill-rule="nonzero" fill-opacity="1" /><path clip-path="url(#clip830)" d="M201.412 1346.89 Q197.801 1346.89 195.973 1350.45 Q194.167 1353.99 194.167 1361.12 Q194.167 1368.23 195.973 1371.79 Q197.801 1375.33 201.412 1375.33 Q205.047 1375.33 206.852 1371.79 Q208.681 1368.23 208.681 1361.12 Q208.681 1353.99 206.852 1350.45 Q205.047 1346.89 201.412 1346.89 M201.412 1343.18 Q207.223 1343.18 210.278 1347.79 Q213.357 1352.37 213.357 1361.12 Q213.357 1369.85 210.278 1374.45 Q207.223 1379.04 201.412 1379.04 Q195.602 1379.04 192.524 1374.45 Q189.468 1369.85 189.468 1361.12 Q189.468 1352.37 192.524 1347.79 Q195.602 1343.18 201.412 1343.18 Z" fill="#000000" fill-rule="nonzero" fill-opacity="1" /><path clip-path="url(#clip830)" d="M249.746 1352.9 L239.167 1363.53 L249.746 1374.11 L246.991 1376.91 L236.366 1366.28 L225.741 1376.91 L223.01 1374.11 L233.565 1363.53 L223.01 1352.9 L225.741 1350.1 L236.366 1360.73 L246.991 1350.1 L249.746 1352.9 Z" fill="#000000" fill-rule="nonzero" fill-opacity="1" /><path clip-path="url(#clip830)" d="M262.107 1374.43 L269.745 1374.43 L269.745 1348.07 L261.435 1349.73 L261.435 1345.47 L269.699 1343.81 L274.375 1343.81 L274.375 1374.43 L282.014 1374.43 L282.014 1378.37 L262.107 1378.37 L262.107 1374.43 Z" fill="#000000" fill-rule="nonzero" fill-opacity="1" /><path clip-path="url(#clip830)" d="M301.458 1346.89 Q297.847 1346.89 296.018 1350.45 Q294.213 1353.99 294.213 1361.12 Q294.213 1368.23 296.018 1371.79 Q297.847 1375.33 301.458 1375.33 Q305.092 1375.33 306.898 1371.79 Q308.727 1368.23 308.727 1361.12 Q308.727 1353.99 306.898 1350.45 Q305.092 1346.89 301.458 1346.89 M301.458 1343.18 Q307.268 1343.18 310.324 1347.79 Q313.403 1352.37 313.403 1361.12 Q313.403 1369.85 310.324 1374.45 Q307.268 1379.04 301.458 1379.04 Q295.648 1379.04 292.569 1374.45 Q289.514 1369.85 289.514 1361.12 Q289.514 1352.37 292.569 1347.79 Q295.648 1343.18 301.458 1343.18 Z" fill="#000000" fill-rule="nonzero" fill-opacity="1" /><path clip-path="url(#clip830)" d="M313.403 1337.28 L337.514 1337.28 L337.514 1340.48 L313.403 1340.48 L313.403 1337.28 Z" fill="#000000" fill-rule="nonzero" fill-opacity="1" /><path clip-path="url(#clip830)" d="M345.752 1322.88 L360.667 1322.88 L360.667 1326.07 L349.231 1326.07 L349.231 1332.96 Q350.059 1332.67 350.886 1332.54 Q351.714 1332.39 352.542 1332.39 Q357.244 1332.39 359.989 1334.97 Q362.735 1337.55 362.735 1341.95 Q362.735 1346.48 359.914 1349 Q357.093 1351.5 351.959 1351.5 Q350.191 1351.5 348.347 1351.2 Q346.523 1350.9 344.567 1350.3 L344.567 1346.48 Q346.26 1347.4 348.065 1347.85 Q349.871 1348.3 351.883 1348.3 Q355.137 1348.3 357.037 1346.59 Q358.936 1344.88 358.936 1341.95 Q358.936 1339.01 357.037 1337.3 Q355.137 1335.59 351.883 1335.59 Q350.36 1335.59 348.836 1335.93 Q347.332 1336.27 345.752 1336.98 L345.752 1322.88 Z" fill="#000000" fill-rule="nonzero" fill-opacity="1" /><path clip-path="url(#clip830)" d="M116.066 1059.96 L134.422 1059.96 L134.422 1063.89 L120.348 1063.89 L120.348 1072.37 Q121.367 1072.02 122.385 1071.86 Q123.404 1071.67 124.422 1071.67 Q130.209 1071.67 133.589 1074.84 Q136.968 1078.01 136.968 1083.43 Q136.968 1089.01 133.496 1092.11 Q130.024 1095.19 123.705 1095.19 Q121.529 1095.19 119.26 1094.82 Q117.015 1094.45 114.607 1093.71 L114.607 1089.01 Q116.691 1090.14 118.913 1090.7 Q121.135 1091.25 123.612 1091.25 Q127.617 1091.25 129.955 1089.15 Q132.292 1087.04 132.292 1083.43 Q132.292 1079.82 129.955 1077.71 Q127.617 1075.61 123.612 1075.61 Q121.737 1075.61 119.862 1076.02 Q118.01 1076.44 116.066 1077.32 L116.066 1059.96 Z" fill="#000000" fill-rule="nonzero" fill-opacity="1" /><path clip-path="url(#clip830)" d="M146.181 1088.64 L151.066 1088.64 L151.066 1094.52 L146.181 1094.52 L146.181 1088.64 Z" fill="#000000" fill-rule="nonzero" fill-opacity="1" /><path clip-path="url(#clip830)" d="M161.297 1059.96 L179.653 1059.96 L179.653 1063.89 L165.579 1063.89 L165.579 1072.37 Q166.598 1072.02 167.616 1071.86 Q168.635 1071.67 169.653 1071.67 Q175.44 1071.67 178.82 1074.84 Q182.2 1078.01 182.2 1083.43 Q182.2 1089.01 178.727 1092.11 Q175.255 1095.19 168.936 1095.19 Q166.76 1095.19 164.491 1094.82 Q162.246 1094.45 159.839 1093.71 L159.839 1089.01 Q161.922 1090.14 164.144 1090.7 Q166.366 1091.25 168.843 1091.25 Q172.848 1091.25 175.186 1089.15 Q177.524 1087.04 177.524 1083.43 Q177.524 1079.82 175.186 1077.71 Q172.848 1075.61 168.843 1075.61 Q166.968 1075.61 165.093 1076.02 Q163.241 1076.44 161.297 1077.32 L161.297 1059.96 Z" fill="#000000" fill-rule="nonzero" fill-opacity="1" /><path clip-path="url(#clip830)" d="M201.412 1063.04 Q197.801 1063.04 195.973 1066.6 Q194.167 1070.14 194.167 1077.27 Q194.167 1084.38 195.973 1087.94 Q197.801 1091.49 201.412 1091.49 Q205.047 1091.49 206.852 1087.94 Q208.681 1084.38 208.681 1077.27 Q208.681 1070.14 206.852 1066.6 Q205.047 1063.04 201.412 1063.04 M201.412 1059.33 Q207.223 1059.33 210.278 1063.94 Q213.357 1068.52 213.357 1077.27 Q213.357 1086 210.278 1090.61 Q207.223 1095.19 201.412 1095.19 Q195.602 1095.19 192.524 1090.61 Q189.468 1086 189.468 1077.27 Q189.468 1068.52 192.524 1063.94 Q195.602 1059.33 201.412 1059.33 Z" fill="#000000" fill-rule="nonzero" fill-opacity="1" /><path clip-path="url(#clip830)" d="M249.746 1069.06 L239.167 1079.68 L249.746 1090.26 L246.991 1093.06 L236.366 1082.43 L225.741 1093.06 L223.01 1090.26 L233.565 1079.68 L223.01 1069.06 L225.741 1066.25 L236.366 1076.88 L246.991 1066.25 L249.746 1069.06 Z" fill="#000000" fill-rule="nonzero" fill-opacity="1" /><path clip-path="url(#clip830)" d="M262.107 1090.58 L269.745 1090.58 L269.745 1064.22 L261.435 1065.88 L261.435 1061.62 L269.699 1059.96 L274.375 1059.96 L274.375 1090.58 L282.014 1090.58 L282.014 1094.52 L262.107 1094.52 L262.107 1090.58 Z" fill="#000000" fill-rule="nonzero" fill-opacity="1" /><path clip-path="url(#clip830)" d="M301.458 1063.04 Q297.847 1063.04 296.018 1066.6 Q294.213 1070.14 294.213 1077.27 Q294.213 1084.38 296.018 1087.94 Q297.847 1091.49 301.458 1091.49 Q305.092 1091.49 306.898 1087.94 Q308.727 1084.38 308.727 1077.27 Q308.727 1070.14 306.898 1066.6 Q305.092 1063.04 301.458 1063.04 M301.458 1059.33 Q307.268 1059.33 310.324 1063.94 Q313.403 1068.52 313.403 1077.27 Q313.403 1086 310.324 1090.61 Q307.268 1095.19 301.458 1095.19 Q295.648 1095.19 292.569 1090.61 Q289.514 1086 289.514 1077.27 Q289.514 1068.52 292.569 1063.94 Q295.648 1059.33 301.458 1059.33 Z" fill="#000000" fill-rule="nonzero" fill-opacity="1" /><path clip-path="url(#clip830)" d="M313.403 1053.43 L337.514 1053.43 L337.514 1056.63 L313.403 1056.63 L313.403 1053.43 Z" fill="#000000" fill-rule="nonzero" fill-opacity="1" /><path clip-path="url(#clip830)" d="M345.752 1039.03 L360.667 1039.03 L360.667 1042.22 L349.231 1042.22 L349.231 1049.11 Q350.059 1048.83 350.886 1048.69 Q351.714 1048.54 352.542 1048.54 Q357.244 1048.54 359.989 1051.12 Q362.735 1053.7 362.735 1058.1 Q362.735 1062.63 359.914 1065.15 Q357.093 1067.65 351.959 1067.65 Q350.191 1067.65 348.347 1067.35 Q346.523 1067.05 344.567 1066.45 L344.567 1062.63 Q346.26 1063.55 348.065 1064 Q349.871 1064.46 351.883 1064.46 Q355.137 1064.46 357.037 1062.74 Q358.936 1061.03 358.936 1058.1 Q358.936 1055.16 357.037 1053.45 Q355.137 1051.74 351.883 1051.74 Q350.36 1051.74 348.836 1052.08 Q347.332 1052.42 345.752 1053.13 L345.752 1039.03 Z" fill="#000000" fill-rule="nonzero" fill-opacity="1" /><path clip-path="url(#clip830)" d="M126.598 791.526 Q123.45 791.526 121.598 793.679 Q119.769 795.832 119.769 799.582 Q119.769 803.309 121.598 805.485 Q123.45 807.637 126.598 807.637 Q129.746 807.637 131.575 805.485 Q133.427 803.309 133.427 799.582 Q133.427 795.832 131.575 793.679 Q129.746 791.526 126.598 791.526 M135.88 776.874 L135.88 781.133 Q134.121 780.3 132.316 779.86 Q130.533 779.42 128.774 779.42 Q124.144 779.42 121.691 782.545 Q119.26 785.67 118.913 791.989 Q120.279 789.975 122.339 788.911 Q124.399 787.823 126.876 787.823 Q132.084 787.823 135.093 790.994 Q138.126 794.142 138.126 799.582 Q138.126 804.906 134.978 808.124 Q131.83 811.341 126.598 811.341 Q120.603 811.341 117.431 806.758 Q114.26 802.151 114.26 793.425 Q114.26 785.23 118.149 780.369 Q122.038 775.485 128.589 775.485 Q130.348 775.485 132.13 775.832 Q133.936 776.179 135.88 776.874 Z" fill="#000000" fill-rule="nonzero" fill-opacity="1" /><path clip-path="url(#clip830)" d="M146.181 804.79 L151.066 804.79 L151.066 810.67 L146.181 810.67 L146.181 804.79 Z" fill="#000000" fill-rule="nonzero" fill-opacity="1" /><path clip-path="url(#clip830)" d="M171.251 779.188 Q167.64 779.188 165.811 782.753 Q164.005 786.295 164.005 793.425 Q164.005 800.531 165.811 804.096 Q167.64 807.637 171.251 807.637 Q174.885 807.637 176.69 804.096 Q178.519 800.531 178.519 793.425 Q178.519 786.295 176.69 782.753 Q174.885 779.188 171.251 779.188 M171.251 775.485 Q177.061 775.485 180.116 780.091 Q183.195 784.675 183.195 793.425 Q183.195 802.151 180.116 806.758 Q177.061 811.341 171.251 811.341 Q165.44 811.341 162.362 806.758 Q159.306 802.151 159.306 793.425 Q159.306 784.675 162.362 780.091 Q165.44 775.485 171.251 775.485 Z" fill="#000000" fill-rule="nonzero" fill-opacity="1" /><path clip-path="url(#clip830)" d="M201.412 779.188 Q197.801 779.188 195.973 782.753 Q194.167 786.295 194.167 793.425 Q194.167 800.531 195.973 804.096 Q197.801 807.637 201.412 807.637 Q205.047 807.637 206.852 804.096 Q208.681 800.531 208.681 793.425 Q208.681 786.295 206.852 782.753 Q205.047 779.188 201.412 779.188 M201.412 775.485 Q207.223 775.485 210.278 780.091 Q213.357 784.675 213.357 793.425 Q213.357 802.151 210.278 806.758 Q207.223 811.341 201.412 811.341 Q195.602 811.341 192.524 806.758 Q189.468 802.151 189.468 793.425 Q189.468 784.675 192.524 780.091 Q195.602 775.485 201.412 775.485 Z" fill="#000000" fill-rule="nonzero" fill-opacity="1" /><path clip-path="url(#clip830)" d="M249.746 785.207 L239.167 795.832 L249.746 806.411 L246.991 809.211 L236.366 798.587 L225.741 809.211 L223.01 806.411 L233.565 795.832 L223.01 785.207 L225.741 782.406 L236.366 793.031 L246.991 782.406 L249.746 785.207 Z" fill="#000000" fill-rule="nonzero" fill-opacity="1" /><path clip-path="url(#clip830)" d="M262.107 806.735 L269.745 806.735 L269.745 780.369 L261.435 782.036 L261.435 777.776 L269.699 776.11 L274.375 776.11 L274.375 806.735 L282.014 806.735 L282.014 810.67 L262.107 810.67 L262.107 806.735 Z" fill="#000000" fill-rule="nonzero" fill-opacity="1" /><path clip-path="url(#clip830)" d="M301.458 779.188 Q297.847 779.188 296.018 782.753 Q294.213 786.295 294.213 793.425 Q294.213 800.531 296.018 804.096 Q297.847 807.637 301.458 807.637 Q305.092 807.637 306.898 804.096 Q308.727 800.531 308.727 793.425 Q308.727 786.295 306.898 782.753 Q305.092 779.188 301.458 779.188 M301.458 775.485 Q307.268 775.485 310.324 780.091 Q313.403 784.675 313.403 793.425 Q313.403 802.151 310.324 806.758 Q307.268 811.341 301.458 811.341 Q295.648 811.341 292.569 806.758 Q289.514 802.151 289.514 793.425 Q289.514 784.675 292.569 780.091 Q295.648 775.485 301.458 775.485 Z" fill="#000000" fill-rule="nonzero" fill-opacity="1" /><path clip-path="url(#clip830)" d="M313.403 769.586 L337.514 769.586 L337.514 772.783 L313.403 772.783 L313.403 769.586 Z" fill="#000000" fill-rule="nonzero" fill-opacity="1" /><path clip-path="url(#clip830)" d="M345.752 755.179 L360.667 755.179 L360.667 758.377 L349.231 758.377 L349.231 765.26 Q350.059 764.978 350.886 764.847 Q351.714 764.696 352.542 764.696 Q357.244 764.696 359.989 767.273 Q362.735 769.849 362.735 774.25 Q362.735 778.783 359.914 781.303 Q357.093 783.805 351.959 783.805 Q350.191 783.805 348.347 783.504 Q346.523 783.203 344.567 782.601 L344.567 778.783 Q346.26 779.705 348.065 780.156 Q349.871 780.607 351.883 780.607 Q355.137 780.607 357.037 778.896 Q358.936 777.184 358.936 774.25 Q358.936 771.316 357.037 769.605 Q355.137 767.893 351.883 767.893 Q350.36 767.893 348.836 768.232 Q347.332 768.571 345.752 769.285 L345.752 755.179 Z" fill="#000000" fill-rule="nonzero" fill-opacity="1" /><path clip-path="url(#clip830)" d="M126.598 507.678 Q123.45 507.678 121.598 509.831 Q119.769 511.984 119.769 515.734 Q119.769 519.46 121.598 521.636 Q123.45 523.789 126.598 523.789 Q129.746 523.789 131.575 521.636 Q133.427 519.46 133.427 515.734 Q133.427 511.984 131.575 509.831 Q129.746 507.678 126.598 507.678 M135.88 493.025 L135.88 497.285 Q134.121 496.451 132.316 496.011 Q130.533 495.572 128.774 495.572 Q124.144 495.572 121.691 498.697 Q119.26 501.822 118.913 508.141 Q120.279 506.127 122.339 505.062 Q124.399 503.974 126.876 503.974 Q132.084 503.974 135.093 507.146 Q138.126 510.294 138.126 515.734 Q138.126 521.058 134.978 524.275 Q131.83 527.493 126.598 527.493 Q120.603 527.493 117.431 522.91 Q114.26 518.303 114.26 509.576 Q114.26 501.382 118.149 496.521 Q122.038 491.637 128.589 491.637 Q130.348 491.637 132.13 491.984 Q133.936 492.331 135.88 493.025 Z" fill="#000000" fill-rule="nonzero" fill-opacity="1" /><path clip-path="url(#clip830)" d="M146.181 520.942 L151.066 520.942 L151.066 526.822 L146.181 526.822 L146.181 520.942 Z" fill="#000000" fill-rule="nonzero" fill-opacity="1" /><path clip-path="url(#clip830)" d="M161.297 492.262 L179.653 492.262 L179.653 496.197 L165.579 496.197 L165.579 504.669 Q166.598 504.322 167.616 504.16 Q168.635 503.974 169.653 503.974 Q175.44 503.974 178.82 507.146 Q182.2 510.317 182.2 515.734 Q182.2 521.312 178.727 524.414 Q175.255 527.493 168.936 527.493 Q166.76 527.493 164.491 527.122 Q162.246 526.752 159.839 526.011 L159.839 521.312 Q161.922 522.447 164.144 523.002 Q166.366 523.558 168.843 523.558 Q172.848 523.558 175.186 521.451 Q177.524 519.345 177.524 515.734 Q177.524 512.123 175.186 510.016 Q172.848 507.91 168.843 507.91 Q166.968 507.91 165.093 508.326 Q163.241 508.743 161.297 509.623 L161.297 492.262 Z" fill="#000000" fill-rule="nonzero" fill-opacity="1" /><path clip-path="url(#clip830)" d="M201.412 495.34 Q197.801 495.34 195.973 498.905 Q194.167 502.447 194.167 509.576 Q194.167 516.683 195.973 520.247 Q197.801 523.789 201.412 523.789 Q205.047 523.789 206.852 520.247 Q208.681 516.683 208.681 509.576 Q208.681 502.447 206.852 498.905 Q205.047 495.34 201.412 495.34 M201.412 491.637 Q207.223 491.637 210.278 496.243 Q213.357 500.826 213.357 509.576 Q213.357 518.303 210.278 522.91 Q207.223 527.493 201.412 527.493 Q195.602 527.493 192.524 522.91 Q189.468 518.303 189.468 509.576 Q189.468 500.826 192.524 496.243 Q195.602 491.637 201.412 491.637 Z" fill="#000000" fill-rule="nonzero" fill-opacity="1" /><path clip-path="url(#clip830)" d="M249.746 501.359 L239.167 511.984 L249.746 522.562 L246.991 525.363 L236.366 514.738 L225.741 525.363 L223.01 522.562 L233.565 511.984 L223.01 501.359 L225.741 498.558 L236.366 509.183 L246.991 498.558 L249.746 501.359 Z" fill="#000000" fill-rule="nonzero" fill-opacity="1" /><path clip-path="url(#clip830)" d="M262.107 522.886 L269.745 522.886 L269.745 496.521 L261.435 498.187 L261.435 493.928 L269.699 492.262 L274.375 492.262 L274.375 522.886 L282.014 522.886 L282.014 526.822 L262.107 526.822 L262.107 522.886 Z" fill="#000000" fill-rule="nonzero" fill-opacity="1" /><path clip-path="url(#clip830)" d="M301.458 495.34 Q297.847 495.34 296.018 498.905 Q294.213 502.447 294.213 509.576 Q294.213 516.683 296.018 520.247 Q297.847 523.789 301.458 523.789 Q305.092 523.789 306.898 520.247 Q308.727 516.683 308.727 509.576 Q308.727 502.447 306.898 498.905 Q305.092 495.34 301.458 495.34 M301.458 491.637 Q307.268 491.637 310.324 496.243 Q313.403 500.826 313.403 509.576 Q313.403 518.303 310.324 522.91 Q307.268 527.493 301.458 527.493 Q295.648 527.493 292.569 522.91 Q289.514 518.303 289.514 509.576 Q289.514 500.826 292.569 496.243 Q295.648 491.637 301.458 491.637 Z" fill="#000000" fill-rule="nonzero" fill-opacity="1" /><path clip-path="url(#clip830)" d="M313.403 485.738 L337.514 485.738 L337.514 488.935 L313.403 488.935 L313.403 485.738 Z" fill="#000000" fill-rule="nonzero" fill-opacity="1" /><path clip-path="url(#clip830)" d="M345.752 471.331 L360.667 471.331 L360.667 474.528 L349.231 474.528 L349.231 481.412 Q350.059 481.13 350.886 480.998 Q351.714 480.848 352.542 480.848 Q357.244 480.848 359.989 483.425 Q362.735 486.001 362.735 490.402 Q362.735 494.935 359.914 497.455 Q357.093 499.957 351.959 499.957 Q350.191 499.957 348.347 499.656 Q346.523 499.355 344.567 498.753 L344.567 494.935 Q346.26 495.856 348.065 496.308 Q349.871 496.759 351.883 496.759 Q355.137 496.759 357.037 495.048 Q358.936 493.336 358.936 490.402 Q358.936 487.468 357.037 485.757 Q355.137 484.045 351.883 484.045 Q350.36 484.045 348.836 484.384 Q347.332 484.722 345.752 485.437 L345.752 471.331 Z" fill="#000000" fill-rule="nonzero" fill-opacity="1" /><path clip-path="url(#clip830)" d="M114.839 208.413 L137.061 208.413 L137.061 210.404 L124.515 242.973 L119.63 242.973 L131.436 212.348 L114.839 212.348 L114.839 208.413 Z" fill="#000000" fill-rule="nonzero" fill-opacity="1" /><path clip-path="url(#clip830)" d="M146.181 237.094 L151.066 237.094 L151.066 242.973 L146.181 242.973 L146.181 237.094 Z" fill="#000000" fill-rule="nonzero" fill-opacity="1" /><path clip-path="url(#clip830)" d="M171.251 211.492 Q167.64 211.492 165.811 215.057 Q164.005 218.598 164.005 225.728 Q164.005 232.834 165.811 236.399 Q167.64 239.941 171.251 239.941 Q174.885 239.941 176.69 236.399 Q178.519 232.834 178.519 225.728 Q178.519 218.598 176.69 215.057 Q174.885 211.492 171.251 211.492 M171.251 207.788 Q177.061 207.788 180.116 212.395 Q183.195 216.978 183.195 225.728 Q183.195 234.455 180.116 239.061 Q177.061 243.645 171.251 243.645 Q165.44 243.645 162.362 239.061 Q159.306 234.455 159.306 225.728 Q159.306 216.978 162.362 212.395 Q165.44 207.788 171.251 207.788 Z" fill="#000000" fill-rule="nonzero" fill-opacity="1" /><path clip-path="url(#clip830)" d="M201.412 211.492 Q197.801 211.492 195.973 215.057 Q194.167 218.598 194.167 225.728 Q194.167 232.834 195.973 236.399 Q197.801 239.941 201.412 239.941 Q205.047 239.941 206.852 236.399 Q208.681 232.834 208.681 225.728 Q208.681 218.598 206.852 215.057 Q205.047 211.492 201.412 211.492 M201.412 207.788 Q207.223 207.788 210.278 212.395 Q213.357 216.978 213.357 225.728 Q213.357 234.455 210.278 239.061 Q207.223 243.645 201.412 243.645 Q195.602 243.645 192.524 239.061 Q189.468 234.455 189.468 225.728 Q189.468 216.978 192.524 212.395 Q195.602 207.788 201.412 207.788 Z" fill="#000000" fill-rule="nonzero" fill-opacity="1" /><path clip-path="url(#clip830)" d="M249.746 217.51 L239.167 228.135 L249.746 238.714 L246.991 241.515 L236.366 230.89 L225.741 241.515 L223.01 238.714 L233.565 228.135 L223.01 217.51 L225.741 214.71 L236.366 225.334 L246.991 214.71 L249.746 217.51 Z" fill="#000000" fill-rule="nonzero" fill-opacity="1" /><path clip-path="url(#clip830)" d="M262.107 239.038 L269.745 239.038 L269.745 212.672 L261.435 214.339 L261.435 210.08 L269.699 208.413 L274.375 208.413 L274.375 239.038 L282.014 239.038 L282.014 242.973 L262.107 242.973 L262.107 239.038 Z" fill="#000000" fill-rule="nonzero" fill-opacity="1" /><path clip-path="url(#clip830)" d="M301.458 211.492 Q297.847 211.492 296.018 215.057 Q294.213 218.598 294.213 225.728 Q294.213 232.834 296.018 236.399 Q297.847 239.941 301.458 239.941 Q305.092 239.941 306.898 236.399 Q308.727 232.834 308.727 225.728 Q308.727 218.598 306.898 215.057 Q305.092 211.492 301.458 211.492 M301.458 207.788 Q307.268 207.788 310.324 212.395 Q313.403 216.978 313.403 225.728 Q313.403 234.455 310.324 239.061 Q307.268 243.645 301.458 243.645 Q295.648 243.645 292.569 239.061 Q289.514 234.455 289.514 225.728 Q289.514 216.978 292.569 212.395 Q295.648 207.788 301.458 207.788 Z" fill="#000000" fill-rule="nonzero" fill-opacity="1" /><path clip-path="url(#clip830)" d="M313.403 201.89 L337.514 201.89 L337.514 205.087 L313.403 205.087 L313.403 201.89 Z" fill="#000000" fill-rule="nonzero" fill-opacity="1" /><path clip-path="url(#clip830)" d="M345.752 187.483 L360.667 187.483 L360.667 190.68 L349.231 190.68 L349.231 197.564 Q350.059 197.282 350.886 197.15 Q351.714 197 352.542 197 Q357.244 197 359.989 199.576 Q362.735 202.153 362.735 206.554 Q362.735 211.087 359.914 213.607 Q357.093 216.108 351.959 216.108 Q350.191 216.108 348.347 215.807 Q346.523 215.506 344.567 214.905 L344.567 211.087 Q346.26 212.008 348.065 212.46 Q349.871 212.911 351.883 212.911 Q355.137 212.911 357.037 211.199 Q358.936 209.488 358.936 206.554 Q358.936 203.62 357.037 201.908 Q355.137 200.197 351.883 200.197 Q350.36 200.197 348.836 200.535 Q347.332 200.874 345.752 201.589 L345.752 187.483 Z" fill="#000000" fill-rule="nonzero" fill-opacity="1" /><path clip-path="url(#clip830)" d="M16.4842 1275.45 L16.4842 1265.87 L48.8219 1253.75 L16.4842 1241.56 L16.4842 1231.98 L64.0042 1231.98 L64.0042 1238.25 L22.277 1238.25 L54.8694 1250.5 L54.8694 1256.96 L22.277 1269.21 L64.0042 1269.21 L64.0042 1275.45 L16.4842 1275.45 Z" fill="#000000" fill-rule="nonzero" fill-opacity="1" /><path clip-path="url(#clip830)" d="M46.0847 1203.27 Q46.0847 1210.36 47.7079 1213.1 Q49.3312 1215.84 53.2461 1215.84 Q56.3653 1215.84 58.2114 1213.8 Q60.0256 1211.73 60.0256 1208.2 Q60.0256 1203.33 56.5881 1200.4 Q53.1188 1197.44 47.3897 1197.44 L46.0847 1197.44 L46.0847 1203.27 M43.6657 1191.58 L64.0042 1191.58 L64.0042 1197.44 L58.5933 1197.44 Q61.8398 1199.45 63.3994 1202.44 Q64.9272 1205.43 64.9272 1209.76 Q64.9272 1215.23 61.8716 1218.48 Q58.7843 1221.69 53.6281 1221.69 Q47.6125 1221.69 44.5569 1217.68 Q41.5014 1213.64 41.5014 1205.65 L41.5014 1197.44 L40.9285 1197.44 Q36.8862 1197.44 34.6901 1200.11 Q32.4621 1202.76 32.4621 1207.56 Q32.4621 1210.62 33.1941 1213.51 Q33.9262 1216.41 35.3903 1219.08 L29.9795 1219.08 Q28.7381 1215.87 28.1334 1212.85 Q27.4968 1209.82 27.4968 1206.96 Q27.4968 1199.22 31.5072 1195.4 Q35.5176 1191.58 43.6657 1191.58 Z" fill="#000000" fill-rule="nonzero" fill-opacity="1" /><path clip-path="url(#clip830)" d="M18.2347 1173.73 L28.3562 1173.73 L28.3562 1161.67 L32.9077 1161.67 L32.9077 1173.73 L52.2594 1173.73 Q56.6199 1173.73 57.8613 1172.55 Q59.1026 1171.34 59.1026 1167.68 L59.1026 1161.67 L64.0042 1161.67 L64.0042 1167.68 Q64.0042 1174.46 61.4897 1177.04 Q58.9434 1179.62 52.2594 1179.62 L32.9077 1179.62 L32.9077 1183.91 L28.3562 1183.91 L28.3562 1179.62 L18.2347 1179.62 L18.2347 1173.73 Z" fill="#000000" fill-rule="nonzero" fill-opacity="1" /><path clip-path="url(#clip830)" d="M29.7248 1128.31 L35.1993 1128.31 Q33.8307 1130.79 33.1623 1133.31 Q32.4621 1135.79 32.4621 1138.34 Q32.4621 1144.03 36.0905 1147.18 Q39.6872 1150.33 46.212 1150.33 Q52.7369 1150.33 56.3653 1147.18 Q59.9619 1144.03 59.9619 1138.34 Q59.9619 1135.79 59.2935 1133.31 Q58.5933 1130.79 57.2247 1128.31 L62.6355 1128.31 Q63.7814 1130.76 64.3543 1133.4 Q64.9272 1136.01 64.9272 1138.97 Q64.9272 1147.02 59.8664 1151.77 Q54.8057 1156.51 46.212 1156.51 Q37.491 1156.51 32.4939 1151.74 Q27.4968 1146.93 27.4968 1138.59 Q27.4968 1135.88 28.0697 1133.31 Q28.6108 1130.73 29.7248 1128.31 Z" fill="#000000" fill-rule="nonzero" fill-opacity="1" /><path clip-path="url(#clip830)" d="M42.4881 1088.49 L64.0042 1088.49 L64.0042 1094.35 L42.679 1094.35 Q37.6183 1094.35 35.1038 1096.32 Q32.5894 1098.3 32.5894 1102.24 Q32.5894 1106.98 35.6131 1109.72 Q38.6368 1112.46 43.8567 1112.46 L64.0042 1112.46 L64.0042 1118.35 L14.479 1118.35 L14.479 1112.46 L33.8944 1112.46 Q30.6797 1110.36 29.0883 1107.53 Q27.4968 1104.66 27.4968 1100.94 Q27.4968 1094.79 31.3163 1091.64 Q35.1038 1088.49 42.4881 1088.49 Z" fill="#000000" fill-rule="nonzero" fill-opacity="1" /><path clip-path="url(#clip830)" d="M44.7161 1046.32 L47.5806 1046.32 L47.5806 1073.25 Q53.6281 1072.86 56.8109 1069.62 Q59.9619 1066.34 59.9619 1060.51 Q59.9619 1057.14 59.1344 1053.99 Q58.3069 1050.81 56.6518 1047.69 L62.1899 1047.69 Q63.5267 1050.84 64.227 1054.15 Q64.9272 1057.46 64.9272 1060.86 Q64.9272 1069.39 59.9619 1074.39 Q54.9967 1079.36 46.5303 1079.36 Q37.7774 1079.36 32.6531 1074.65 Q27.4968 1069.9 27.4968 1061.88 Q27.4968 1054.69 32.1438 1050.52 Q36.7589 1046.32 44.7161 1046.32 M42.9973 1052.18 Q38.1912 1052.24 35.3266 1054.88 Q32.4621 1057.49 32.4621 1061.82 Q32.4621 1066.72 35.2312 1069.68 Q38.0002 1072.61 43.0292 1073.06 L42.9973 1052.18 Z" fill="#000000" fill-rule="nonzero" fill-opacity="1" /><path clip-path="url(#clip830)" d="M29.4065 1013.98 L34.9447 1013.98 Q33.6716 1016.46 33.035 1019.14 Q32.3984 1021.81 32.3984 1024.68 Q32.3984 1029.04 33.7352 1031.23 Q35.072 1033.4 37.7456 1033.4 Q39.7826 1033.4 40.9603 1031.84 Q42.1061 1030.28 43.1565 1025.57 L43.6021 1023.56 Q44.9389 1017.32 47.3897 1014.71 Q49.8086 1012.07 54.1691 1012.07 Q59.1344 1012.07 62.0308 1016.02 Q64.9272 1019.93 64.9272 1026.81 Q64.9272 1029.67 64.3543 1032.79 Q63.8132 1035.88 62.6992 1039.32 L56.6518 1039.32 Q58.3387 1036.07 59.198 1032.92 Q60.0256 1029.77 60.0256 1026.68 Q60.0256 1022.54 58.6251 1020.32 Q57.1929 1018.09 54.6147 1018.09 Q52.2276 1018.09 50.9545 1019.71 Q49.6813 1021.3 48.5037 1026.74 L48.0262 1028.78 Q46.8804 1034.22 44.5251 1036.64 Q42.138 1039.06 38.0002 1039.06 Q32.9713 1039.06 30.2341 1035.5 Q27.4968 1031.93 27.4968 1025.38 Q27.4968 1022.13 27.9743 1019.27 Q28.4517 1016.4 29.4065 1013.98 Z" fill="#000000" fill-rule="nonzero" fill-opacity="1" /><path clip-path="url(#clip830)" d="M58.657 976.36 L77.5631 976.36 L77.5631 982.248 L28.3562 982.248 L28.3562 976.36 L33.7671 976.36 Q30.5842 974.514 29.0564 971.713 Q27.4968 968.88 27.4968 964.966 Q27.4968 958.473 32.6531 954.43 Q37.8093 950.356 46.212 950.356 Q54.6147 950.356 59.771 954.43 Q64.9272 958.473 64.9272 964.966 Q64.9272 968.88 63.3994 971.713 Q61.8398 974.514 58.657 976.36 M46.212 956.436 Q39.7508 956.436 36.0905 959.109 Q32.3984 961.751 32.3984 966.398 Q32.3984 971.045 36.0905 973.718 Q39.7508 976.36 46.212 976.36 Q52.6732 976.36 56.3653 973.718 Q60.0256 971.045 60.0256 966.398 Q60.0256 961.751 56.3653 959.109 Q52.6732 956.436 46.212 956.436 Z" fill="#000000" fill-rule="nonzero" fill-opacity="1" /><path clip-path="url(#clip830)" d="M44.7161 910.157 L47.5806 910.157 L47.5806 937.084 Q53.6281 936.702 56.8109 933.455 Q59.9619 930.177 59.9619 924.352 Q59.9619 920.979 59.1344 917.828 Q58.3069 914.645 56.6518 911.525 L62.1899 911.525 Q63.5267 914.676 64.227 917.987 Q64.9272 921.297 64.9272 924.702 Q64.9272 933.233 59.9619 938.23 Q54.9967 943.195 46.5303 943.195 Q37.7774 943.195 32.6531 938.484 Q27.4968 933.742 27.4968 925.721 Q27.4968 918.528 32.1438 914.358 Q36.7589 910.157 44.7161 910.157 M42.9973 916.013 Q38.1912 916.077 35.3266 918.719 Q32.4621 921.329 32.4621 925.657 Q32.4621 930.559 35.2312 933.519 Q38.0002 936.447 43.0292 936.893 L42.9973 916.013 Z" fill="#000000" fill-rule="nonzero" fill-opacity="1" /><path clip-path="url(#clip830)" d="M33.8307 879.888 Q33.2578 880.875 33.0032 882.052 Q32.7167 883.198 32.7167 884.599 Q32.7167 889.564 35.9632 892.237 Q39.1779 894.879 45.2253 894.879 L64.0042 894.879 L64.0042 900.767 L28.3562 900.767 L28.3562 894.879 L33.8944 894.879 Q30.6479 893.033 29.0883 890.073 Q27.4968 887.113 27.4968 882.88 Q27.4968 882.275 27.5923 881.543 Q27.656 880.811 27.8151 879.92 L33.8307 879.888 Z" fill="#000000" fill-rule="nonzero" fill-opacity="1" /><path clip-path="url(#clip830)" d="M42.4881 823.392 L64.0042 823.392 L64.0042 829.249 L42.679 829.249 Q37.6183 829.249 35.1038 831.222 Q32.5894 833.195 32.5894 837.142 Q32.5894 841.885 35.6131 844.622 Q38.6368 847.359 43.8567 847.359 L64.0042 847.359 L64.0042 853.247 L28.3562 853.247 L28.3562 847.359 L33.8944 847.359 Q30.6797 845.258 29.0883 842.426 Q27.4968 839.561 27.4968 835.837 Q27.4968 829.694 31.3163 826.543 Q35.1038 823.392 42.4881 823.392 Z" fill="#000000" fill-rule="nonzero" fill-opacity="1" /><path clip-path="url(#clip830)" d="M44.7161 781.219 L47.5806 781.219 L47.5806 808.146 Q53.6281 807.764 56.8109 804.518 Q59.9619 801.24 59.9619 795.415 Q59.9619 792.041 59.1344 788.89 Q58.3069 785.707 56.6518 782.588 L62.1899 782.588 Q63.5267 785.739 64.227 789.049 Q64.9272 792.359 64.9272 795.765 Q64.9272 804.295 59.9619 809.292 Q54.9967 814.257 46.5303 814.257 Q37.7774 814.257 32.6531 809.547 Q27.4968 804.804 27.4968 796.784 Q27.4968 789.59 32.1438 785.421 Q36.7589 781.219 44.7161 781.219 M42.9973 787.076 Q38.1912 787.14 35.3266 789.781 Q32.4621 792.391 32.4621 796.72 Q32.4621 801.622 35.2312 804.582 Q38.0002 807.51 43.0292 807.955 L42.9973 787.076 Z" fill="#000000" fill-rule="nonzero" fill-opacity="1" /><path clip-path="url(#clip830)" d="M49.9359 772.212 L28.3562 772.212 L28.3562 766.356 L49.7131 766.356 Q54.7739 766.356 57.3202 764.382 Q59.8346 762.409 59.8346 758.462 Q59.8346 753.72 56.8109 750.982 Q53.7872 748.213 48.5673 748.213 L28.3562 748.213 L28.3562 742.357 L64.0042 742.357 L64.0042 748.213 L58.5296 748.213 Q61.7762 750.346 63.3676 753.179 Q64.9272 755.979 64.9272 759.703 Q64.9272 765.846 61.1078 769.029 Q57.2883 772.212 49.9359 772.212 M27.4968 757.475 L27.4968 757.475 Z" fill="#000000" fill-rule="nonzero" fill-opacity="1" /><path clip-path="url(#clip830)" d="M18.2347 724.501 L28.3562 724.501 L28.3562 712.438 L32.9077 712.438 L32.9077 724.501 L52.2594 724.501 Q56.6199 724.501 57.8613 723.323 Q59.1026 722.114 59.1026 718.454 L59.1026 712.438 L64.0042 712.438 L64.0042 718.454 Q64.0042 725.233 61.4897 727.811 Q58.9434 730.389 52.2594 730.389 L32.9077 730.389 L32.9077 734.686 L28.3562 734.686 L28.3562 730.389 L18.2347 730.389 L18.2347 724.501 Z" fill="#000000" fill-rule="nonzero" fill-opacity="1" /><path clip-path="url(#clip830)" d="M33.8307 684.079 Q33.2578 685.065 33.0032 686.243 Q32.7167 687.389 32.7167 688.789 Q32.7167 693.755 35.9632 696.428 Q39.1779 699.07 45.2253 699.07 L64.0042 699.07 L64.0042 704.958 L28.3562 704.958 L28.3562 699.07 L33.8944 699.07 Q30.6479 697.224 29.0883 694.264 Q27.4968 691.304 27.4968 687.071 Q27.4968 686.466 27.5923 685.734 Q27.656 685.002 27.8151 684.111 L33.8307 684.079 Z" fill="#000000" fill-rule="nonzero" fill-opacity="1" /><path clip-path="url(#clip830)" d="M32.4621 665.555 Q32.4621 670.265 36.1542 673.002 Q39.8145 675.74 46.212 675.74 Q52.6095 675.74 56.3017 673.034 Q59.9619 670.297 59.9619 665.555 Q59.9619 660.876 56.2698 658.139 Q52.5777 655.401 46.212 655.401 Q39.8781 655.401 36.186 658.139 Q32.4621 660.876 32.4621 665.555 M27.4968 665.555 Q27.4968 657.916 32.4621 653.555 Q37.4273 649.195 46.212 649.195 Q54.9649 649.195 59.9619 653.555 Q64.9272 657.916 64.9272 665.555 Q64.9272 673.225 59.9619 677.586 Q54.9649 681.914 46.212 681.914 Q37.4273 681.914 32.4621 677.586 Q27.4968 673.225 27.4968 665.555 Z" fill="#000000" fill-rule="nonzero" fill-opacity="1" /><path clip-path="url(#clip830)" d="M42.4881 609.855 L64.0042 609.855 L64.0042 615.711 L42.679 615.711 Q37.6183 615.711 35.1038 617.684 Q32.5894 619.658 32.5894 623.605 Q32.5894 628.347 35.6131 631.084 Q38.6368 633.822 43.8567 633.822 L64.0042 633.822 L64.0042 639.71 L28.3562 639.71 L28.3562 633.822 L33.8944 633.822 Q30.6797 631.721 29.0883 628.888 Q27.4968 626.024 27.4968 622.3 Q27.4968 616.157 31.3163 613.006 Q35.1038 609.855 42.4881 609.855 Z" fill="#000000" fill-rule="nonzero" fill-opacity="1" /><path clip-path="url(#clip830)" d="M14.479 559.406 L19.3487 559.406 L19.3487 565.008 Q19.3487 568.159 20.6219 569.401 Q21.895 570.61 25.2052 570.61 L28.3562 570.61 L28.3562 560.966 L32.9077 560.966 L32.9077 570.61 L64.0042 570.61 L64.0042 576.498 L32.9077 576.498 L32.9077 582.1 L28.3562 582.1 L28.3562 576.498 L25.8736 576.498 Q19.9216 576.498 17.2162 573.729 Q14.479 570.96 14.479 564.945 L14.479 559.406 Z" fill="#000000" fill-rule="nonzero" fill-opacity="1" /><path clip-path="url(#clip830)" d="M14.479 554.505 L14.479 548.648 L64.0042 548.648 L64.0042 554.505 L14.479 554.505 Z" fill="#000000" fill-rule="nonzero" fill-opacity="1" /><path clip-path="url(#clip830)" d="M49.9359 536.999 L28.3562 536.999 L28.3562 531.143 L49.7131 531.143 Q54.7739 531.143 57.3202 529.169 Q59.8346 527.196 59.8346 523.249 Q59.8346 518.507 56.8109 515.769 Q53.7872 513 48.5673 513 L28.3562 513 L28.3562 507.144 L64.0042 507.144 L64.0042 513 L58.5296 513 Q61.7762 515.133 63.3676 517.966 Q64.9272 520.767 64.9272 524.491 Q64.9272 530.633 61.1078 533.816 Q57.2883 536.999 49.9359 536.999 M27.4968 522.263 L27.4968 522.263 Z" fill="#000000" fill-rule="nonzero" fill-opacity="1" /><path clip-path="url(#clip830)" d="M28.3562 465.449 L45.7028 478.339 L64.0042 464.78 L64.0042 471.687 L49.9996 482.063 L64.0042 492.439 L64.0042 499.346 L45.3526 485.501 L28.3562 498.168 L28.3562 491.262 L41.0558 481.808 L28.3562 472.355 L28.3562 465.449 Z" fill="#000000" fill-rule="nonzero" fill-opacity="1" /><path clip-path="url(#clip830)" d="M14.5426 421.716 Q21.8632 425.981 29.0246 428.05 Q36.186 430.119 43.5384 430.119 Q50.8908 430.119 58.1159 428.05 Q65.3091 425.949 72.5979 421.716 L72.5979 426.809 Q65.1182 431.583 57.8931 433.97 Q50.668 436.325 43.5384 436.325 Q36.4406 436.325 29.2474 433.97 Q22.0542 431.615 14.5426 426.809 L14.5426 421.716 Z" fill="#000000" fill-rule="nonzero" fill-opacity="1" /><path clip-path="url(#clip830)" d="M29.7248 384.7 L35.1993 384.7 Q33.8307 387.182 33.1623 389.697 Q32.4621 392.179 32.4621 394.726 Q32.4621 400.423 36.0905 403.574 Q39.6872 406.725 46.212 406.725 Q52.7369 406.725 56.3653 403.574 Q59.9619 400.423 59.9619 394.726 Q59.9619 392.179 59.2935 389.697 Q58.5933 387.182 57.2247 384.7 L62.6355 384.7 Q63.7814 387.15 64.3543 389.792 Q64.9272 392.402 64.9272 395.362 Q64.9272 403.415 59.8664 408.157 Q54.8057 412.9 46.212 412.9 Q37.491 412.9 32.4939 408.125 Q27.4968 403.319 27.4968 394.98 Q27.4968 392.275 28.0697 389.697 Q28.6108 387.119 29.7248 384.7 Z" fill="#000000" fill-rule="nonzero" fill-opacity="1" /><path clip-path="url(#clip830)" d="M35.1993 346.76 Q31.2526 344.564 29.3747 341.508 Q27.4968 338.453 27.4968 334.315 Q27.4968 328.745 31.4117 325.721 Q35.2948 322.698 42.4881 322.698 L64.0042 322.698 L64.0042 328.586 L42.679 328.586 Q37.5546 328.586 35.072 330.4 Q32.5894 332.214 32.5894 335.938 Q32.5894 340.49 35.6131 343.132 Q38.6368 345.773 43.8567 345.773 L64.0042 345.773 L64.0042 351.662 L42.679 351.662 Q37.5228 351.662 35.072 353.476 Q32.5894 355.29 32.5894 359.078 Q32.5894 363.565 35.6449 366.207 Q38.6686 368.849 43.8567 368.849 L64.0042 368.849 L64.0042 374.737 L28.3562 374.737 L28.3562 368.849 L33.8944 368.849 Q30.616 366.844 29.0564 364.043 Q27.4968 361.242 27.4968 357.391 Q27.4968 353.508 29.4702 350.802 Q31.4436 348.065 35.1993 346.76 Z" fill="#000000" fill-rule="nonzero" fill-opacity="1" /><path clip-path="url(#clip830)" d="M39.1142 308.629 L39.1142 295.134 L42.7427 295.134 L42.7427 314.168 L39.2416 314.168 Q38.2549 313.085 36.4725 311.08 Q26.7648 300.131 23.7729 300.131 Q21.6722 300.131 20.3991 301.786 Q19.0941 303.441 19.0941 306.147 Q19.0941 307.802 19.667 309.743 Q20.2081 311.685 21.3221 313.977 L17.4072 313.977 Q16.516 311.526 16.0704 309.425 Q15.6248 307.293 15.6248 305.478 Q15.6248 300.863 17.7255 298.094 Q19.8262 295.325 23.2636 295.325 Q27.6878 295.325 36.7271 305.86 Q38.2549 307.643 39.1142 308.629 Z" fill="#000000" fill-rule="nonzero" fill-opacity="1" /><path clip-path="url(#clip830)" d="M14.5426 285.808 L14.5426 280.716 Q22.0542 275.941 29.2474 273.586 Q36.4406 271.199 43.5384 271.199 Q50.668 271.199 57.8931 273.586 Q65.1182 275.941 72.5979 280.716 L72.5979 285.808 Q65.3091 281.575 58.1159 279.506 Q50.8908 277.406 43.5384 277.406 Q36.186 277.406 29.0246 279.506 Q21.8632 281.575 14.5426 285.808 Z" fill="#000000" fill-rule="nonzero" fill-opacity="1" /><path clip-path="url(#clip830)" d="M1180.61 12.096 L1218.85 12.096 L1218.85 18.9825 L1188.8 18.9825 L1188.8 36.8875 L1217.6 36.8875 L1217.6 43.7741 L1188.8 43.7741 L1188.8 65.6895 L1219.58 65.6895 L1219.58 72.576 L1180.61 72.576 L1180.61 12.096 Z" fill="#000000" fill-rule="nonzero" fill-opacity="1" /><path clip-path="url(#clip830)" d="M1255.68 9.54393 L1255.68 15.7418 L1248.55 15.7418 Q1244.54 15.7418 1242.96 17.3622 Q1241.42 18.9825 1241.42 23.1955 L1241.42 27.2059 L1253.69 27.2059 L1253.69 32.9987 L1241.42 32.9987 L1241.42 72.576 L1233.92 72.576 L1233.92 32.9987 L1226.79 32.9987 L1226.79 27.2059 L1233.92 27.2059 L1233.92 24.0462 Q1233.92 16.471 1237.45 13.0277 Q1240.97 9.54393 1248.63 9.54393 L1255.68 9.54393 Z" fill="#000000" fill-rule="nonzero" fill-opacity="1" /><path clip-path="url(#clip830)" d="M1284.88 9.54393 L1284.88 15.7418 L1277.75 15.7418 Q1273.74 15.7418 1272.16 17.3622 Q1270.62 18.9825 1270.62 23.1955 L1270.62 27.2059 L1282.9 27.2059 L1282.9 32.9987 L1270.62 32.9987 L1270.62 72.576 L1263.13 72.576 L1263.13 32.9987 L1256 32.9987 L1256 27.2059 L1263.13 27.2059 L1263.13 24.0462 Q1263.13 16.471 1266.65 13.0277 Q1270.18 9.54393 1277.84 9.54393 L1284.88 9.54393 Z" fill="#000000" fill-rule="nonzero" fill-opacity="1" /><path clip-path="url(#clip830)" d="M1291.12 27.2059 L1298.58 27.2059 L1298.58 72.576 L1291.12 72.576 L1291.12 27.2059 M1291.12 9.54393 L1298.58 9.54393 L1298.58 18.9825 L1291.12 18.9825 L1291.12 9.54393 Z" fill="#000000" fill-rule="nonzero" fill-opacity="1" /><path clip-path="url(#clip830)" d="M1346.82 28.9478 L1346.82 35.9153 Q1343.66 34.1734 1340.46 33.3227 Q1337.3 32.4315 1334.06 32.4315 Q1326.81 32.4315 1322.8 37.0496 Q1318.79 41.6271 1318.79 49.9314 Q1318.79 58.2358 1322.8 62.8538 Q1326.81 67.4314 1334.06 67.4314 Q1337.3 67.4314 1340.46 66.5807 Q1343.66 65.6895 1346.82 63.9476 L1346.82 70.8341 Q1343.7 72.2924 1340.34 73.0216 Q1337.02 73.7508 1333.25 73.7508 Q1323 73.7508 1316.97 67.3098 Q1310.93 60.8689 1310.93 49.9314 Q1310.93 38.832 1317.01 32.472 Q1323.12 26.1121 1333.74 26.1121 Q1337.18 26.1121 1340.46 26.8413 Q1343.74 27.5299 1346.82 28.9478 Z" fill="#000000" fill-rule="nonzero" fill-opacity="1" /><path clip-path="url(#clip830)" d="M1359.79 27.2059 L1367.24 27.2059 L1367.24 72.576 L1359.79 72.576 L1359.79 27.2059 M1359.79 9.54393 L1367.24 9.54393 L1367.24 18.9825 L1359.79 18.9825 L1359.79 9.54393 Z" fill="#000000" fill-rule="nonzero" fill-opacity="1" /><path clip-path="url(#clip830)" d="M1421.64 48.0275 L1421.64 51.6733 L1387.37 51.6733 Q1387.86 59.3701 1391.99 63.421 Q1396.16 67.4314 1403.58 67.4314 Q1407.87 67.4314 1411.88 66.3781 Q1415.93 65.3249 1419.9 63.2184 L1419.9 70.267 Q1415.89 71.9684 1411.68 72.8596 Q1407.46 73.7508 1403.13 73.7508 Q1392.27 73.7508 1385.91 67.4314 Q1379.59 61.1119 1379.59 50.3365 Q1379.59 39.1965 1385.59 32.6746 Q1391.63 26.1121 1401.83 26.1121 Q1410.99 26.1121 1416.3 32.0264 Q1421.64 37.9003 1421.64 48.0275 M1414.19 45.84 Q1414.11 39.7232 1410.75 36.0774 Q1407.42 32.4315 1401.91 32.4315 Q1395.68 32.4315 1391.91 35.9558 Q1388.18 39.4801 1387.61 45.8805 L1414.19 45.84 Z" fill="#000000" fill-rule="nonzero" fill-opacity="1" /><path clip-path="url(#clip830)" d="M1471.59 45.1919 L1471.59 72.576 L1464.14 72.576 L1464.14 45.4349 Q1464.14 38.994 1461.62 35.7938 Q1459.11 32.5936 1454.09 32.5936 Q1448.05 32.5936 1444.57 36.4419 Q1441.09 40.2903 1441.09 46.9338 L1441.09 72.576 L1433.59 72.576 L1433.59 27.2059 L1441.09 27.2059 L1441.09 34.2544 Q1443.76 30.163 1447.37 28.1376 Q1451.01 26.1121 1455.75 26.1121 Q1463.57 26.1121 1467.58 30.9732 Q1471.59 35.7938 1471.59 45.1919 Z" fill="#000000" fill-rule="nonzero" fill-opacity="1" /><path clip-path="url(#clip830)" d="M1519.11 28.9478 L1519.11 35.9153 Q1515.95 34.1734 1512.75 33.3227 Q1509.59 32.4315 1506.35 32.4315 Q1499.1 32.4315 1495.09 37.0496 Q1491.07 41.6271 1491.07 49.9314 Q1491.07 58.2358 1495.09 62.8538 Q1499.1 67.4314 1506.35 67.4314 Q1509.59 67.4314 1512.75 66.5807 Q1515.95 65.6895 1519.11 63.9476 L1519.11 70.8341 Q1515.99 72.2924 1512.63 73.0216 Q1509.3 73.7508 1505.54 73.7508 Q1495.29 73.7508 1489.25 67.3098 Q1483.22 60.8689 1483.22 49.9314 Q1483.22 38.832 1489.29 32.472 Q1495.41 26.1121 1506.02 26.1121 Q1509.47 26.1121 1512.75 26.8413 Q1516.03 27.5299 1519.11 28.9478 Z" fill="#000000" fill-rule="nonzero" fill-opacity="1" /><path clip-path="url(#clip830)" d="M1550.95 76.7889 Q1547.79 84.8907 1544.79 87.3618 Q1541.79 89.8329 1536.77 89.8329 L1530.81 89.8329 L1530.81 83.5945 L1535.19 83.5945 Q1538.27 83.5945 1539.97 82.1361 Q1541.67 80.6778 1543.74 75.2496 L1545.07 71.8468 L1526.72 27.2059 L1534.62 27.2059 L1548.8 62.6918 L1562.98 27.2059 L1570.88 27.2059 L1550.95 76.7889 Z" fill="#000000" fill-rule="nonzero" fill-opacity="1" /><polyline clip-path="url(#clip832)" style="stroke:#009af9; stroke-linecap:round; stroke-linejoin:round; stroke-width:4; stroke-opacity:1; fill:none" points="454.038,160.256 1375.75,601.254 2297.45,1386.4 "/>
<polyline clip-path="url(#clip832)" style="stroke:#e26f46; stroke-linecap:round; stroke-linejoin:round; stroke-width:4; stroke-opacity:1; fill:none" points="454.038,160.256 1375.75,601.254 2297.45,1386.4 "/>
<polyline clip-path="url(#clip832)" style="stroke:#3da44d; stroke-linecap:round; stroke-linejoin:round; stroke-width:4; stroke-opacity:1; fill:none" points="454.038,160.256 1375.75,601.254 2297.45,1386.4 "/>
<path clip-path="url(#clip830)" d="M2039.21 374.156 L2287.62 374.156 L2287.62 166.796 L2039.21 166.796  Z" fill="#ffffff" fill-rule="evenodd" fill-opacity="1"/>
<polyline clip-path="url(#clip830)" style="stroke:#000000; stroke-linecap:round; stroke-linejoin:round; stroke-width:4; stroke-opacity:1; fill:none" points="2039.21,374.156 2287.62,374.156 2287.62,166.796 2039.21,166.796 2039.21,374.156 "/>
<polyline clip-path="url(#clip830)" style="stroke:#009af9; stroke-linecap:round; stroke-linejoin:round; stroke-width:4; stroke-opacity:1; fill:none" points="2060.92,218.636 2191.19,218.636 "/>
<path clip-path="url(#clip830)" d="M2226.74 238.323 Q2224.94 242.953 2223.23 244.365 Q2221.51 245.777 2218.64 245.777 L2215.24 245.777 L2215.24 242.212 L2217.74 242.212 Q2219.5 242.212 2220.47 241.379 Q2221.44 240.545 2222.62 237.443 L2223.39 235.499 L2212.9 209.99 L2217.42 209.99 L2225.52 230.268 L2233.62 209.99 L2238.13 209.99 L2226.74 238.323 Z" fill="#000000" fill-rule="nonzero" fill-opacity="1" /><path clip-path="url(#clip830)" d="M2245.42 231.981 L2253.06 231.981 L2253.06 205.615 L2244.75 207.282 L2244.75 203.022 L2253.02 201.356 L2257.69 201.356 L2257.69 231.981 L2265.33 231.981 L2265.33 235.916 L2245.42 235.916 L2245.42 231.981 Z" fill="#000000" fill-rule="nonzero" fill-opacity="1" /><polyline clip-path="url(#clip830)" style="stroke:#e26f46; stroke-linecap:round; stroke-linejoin:round; stroke-width:4; stroke-opacity:1; fill:none" points="2060.92,270.476 2191.19,270.476 "/>
<path clip-path="url(#clip830)" d="M2226.74 290.163 Q2224.94 294.793 2223.23 296.205 Q2221.51 297.617 2218.64 297.617 L2215.24 297.617 L2215.24 294.052 L2217.74 294.052 Q2219.5 294.052 2220.47 293.219 Q2221.44 292.385 2222.62 289.283 L2223.39 287.339 L2212.9 261.83 L2217.42 261.83 L2225.52 282.108 L2233.62 261.83 L2238.13 261.83 L2226.74 290.163 Z" fill="#000000" fill-rule="nonzero" fill-opacity="1" /><path clip-path="url(#clip830)" d="M2248.64 283.821 L2264.96 283.821 L2264.96 287.756 L2243.02 287.756 L2243.02 283.821 Q2245.68 281.066 2250.26 276.436 Q2254.87 271.784 2256.05 270.441 Q2258.29 267.918 2259.17 266.182 Q2260.08 264.423 2260.08 262.733 Q2260.08 259.978 2258.13 258.242 Q2256.21 256.506 2253.11 256.506 Q2250.91 256.506 2248.46 257.27 Q2246.03 258.034 2243.25 259.585 L2243.25 254.862 Q2246.07 253.728 2248.53 253.149 Q2250.98 252.571 2253.02 252.571 Q2258.39 252.571 2261.58 255.256 Q2264.78 257.941 2264.78 262.432 Q2264.78 264.561 2263.97 266.483 Q2263.18 268.381 2261.07 270.973 Q2260.49 271.645 2257.39 274.862 Q2254.29 278.057 2248.64 283.821 Z" fill="#000000" fill-rule="nonzero" fill-opacity="1" /><polyline clip-path="url(#clip830)" style="stroke:#3da44d; stroke-linecap:round; stroke-linejoin:round; stroke-width:4; stroke-opacity:1; fill:none" points="2060.92,322.316 2191.19,322.316 "/>
<path clip-path="url(#clip830)" d="M2226.74 342.003 Q2224.94 346.633 2223.23 348.045 Q2221.51 349.457 2218.64 349.457 L2215.24 349.457 L2215.24 345.892 L2217.74 345.892 Q2219.5 345.892 2220.47 345.059 Q2221.44 344.225 2222.62 341.123 L2223.39 339.179 L2212.9 313.67 L2217.42 313.67 L2225.52 333.948 L2233.62 313.67 L2238.13 313.67 L2226.74 342.003 Z" fill="#000000" fill-rule="nonzero" fill-opacity="1" /><path clip-path="url(#clip830)" d="M2258.78 320.962 Q2262.14 321.679 2264.01 323.948 Q2265.91 326.216 2265.91 329.549 Q2265.91 334.665 2262.39 337.466 Q2258.87 340.267 2252.39 340.267 Q2250.22 340.267 2247.9 339.827 Q2245.61 339.411 2243.16 338.554 L2243.16 334.04 Q2245.1 335.174 2247.42 335.753 Q2249.73 336.332 2252.25 336.332 Q2256.65 336.332 2258.94 334.596 Q2261.26 332.86 2261.26 329.549 Q2261.26 326.494 2259.11 324.781 Q2256.98 323.045 2253.16 323.045 L2249.13 323.045 L2249.13 319.202 L2253.34 319.202 Q2256.79 319.202 2258.62 317.837 Q2260.45 316.448 2260.45 313.855 Q2260.45 311.193 2258.55 309.781 Q2256.67 308.346 2253.16 308.346 Q2251.23 308.346 2249.04 308.763 Q2246.84 309.179 2244.2 310.059 L2244.2 305.892 Q2246.86 305.151 2249.17 304.781 Q2251.51 304.411 2253.57 304.411 Q2258.9 304.411 2262 306.841 Q2265.1 309.249 2265.1 313.369 Q2265.1 316.239 2263.46 318.23 Q2261.81 320.198 2258.78 320.962 Z" fill="#000000" fill-rule="nonzero" fill-opacity="1" /></svg>
