<?xml version="1.0" encoding="utf-8"?>
<svg xmlns="http://www.w3.org/2000/svg" xmlns:xlink="http://www.w3.org/1999/xlink" width="600" height="400" viewBox="0 0 2400 1600">
<defs>
  <clipPath id="clip490">
    <rect x="0" y="0" width="2400" height="1600"/>
  </clipPath>
</defs>
<path clip-path="url(#clip490)" d="M0 1600 L2400 1600 L2400 0 L0 0  Z" fill="#ffffff" fill-rule="evenodd" fill-opacity="1"/>
<defs>
  <clipPath id="clip491">
    <rect x="480" y="0" width="1681" height="1600"/>
  </clipPath>
</defs>
<path clip-path="url(#clip490)" d="M340.028 1423.18 L2352.76 1423.18 L2352.76 123.472 L340.028 123.472  Z" fill="#ffffff" fill-rule="evenodd" fill-opacity="1"/>
<defs>
  <clipPath id="clip492">
    <rect x="340" y="123" width="2014" height="1301"/>
  </clipPath>
</defs>
<polyline clip-path="url(#clip492)" style="stroke:#000000; stroke-linecap:round; stroke-linejoin:round; stroke-width:2; stroke-opacity:0.1; fill:none" points="396.992,1423.18 396.992,123.472 "/>
<polyline clip-path="url(#clip492)" style="stroke:#000000; stroke-linecap:round; stroke-linejoin:round; stroke-width:2; stroke-opacity:0.1; fill:none" points="871.692,1423.18 871.692,123.472 "/>
<polyline clip-path="url(#clip492)" style="stroke:#000000; stroke-linecap:round; stroke-linejoin:round; stroke-width:2; stroke-opacity:0.1; fill:none" points="1346.39,1423.18 1346.39,123.472 "/>
<polyline clip-path="url(#clip492)" style="stroke:#000000; stroke-linecap:round; stroke-linejoin:round; stroke-width:2; stroke-opacity:0.1; fill:none" points="1821.09,1423.18 1821.09,123.472 "/>
<polyline clip-path="url(#clip492)" style="stroke:#000000; stroke-linecap:round; stroke-linejoin:round; stroke-width:2; stroke-opacity:0.1; fill:none" points="2295.79,1423.18 2295.79,123.472 "/>
<polyline clip-path="url(#clip492)" style="stroke:#000000; stroke-linecap:round; stroke-linejoin:round; stroke-width:2; stroke-opacity:0.1; fill:none" points="340.028,1299.33 2352.76,1299.33 "/>
<polyline clip-path="url(#clip492)" style="stroke:#000000; stroke-linecap:round; stroke-linejoin:round; stroke-width:2; stroke-opacity:0.1; fill:none" points="340.028,936.569 2352.76,936.569 "/>
<polyline clip-path="url(#clip492)" style="stroke:#000000; stroke-linecap:round; stroke-linejoin:round; stroke-width:2; stroke-opacity:0.1; fill:none" points="340.028,573.806 2352.76,573.806 "/>
<polyline clip-path="url(#clip492)" style="stroke:#000000; stroke-linecap:round; stroke-linejoin:round; stroke-width:2; stroke-opacity:0.1; fill:none" points="340.028,211.043 2352.76,211.043 "/>
<polyline clip-path="url(#clip490)" style="stroke:#000000; stroke-linecap:round; stroke-linejoin:round; stroke-width:4; stroke-opacity:1; fill:none" points="340.028,1423.18 2352.76,1423.18 "/>
<polyline clip-path="url(#clip490)" style="stroke:#000000; stroke-linecap:round; stroke-linejoin:round; stroke-width:4; stroke-opacity:1; fill:none" points="396.992,1423.18 396.992,1404.28 "/>
<polyline clip-path="url(#clip490)" style="stroke:#000000; stroke-linecap:round; stroke-linejoin:round; stroke-width:4; stroke-opacity:1; fill:none" points="871.692,1423.18 871.692,1404.28 "/>
<polyline clip-path="url(#clip490)" style="stroke:#000000; stroke-linecap:round; stroke-linejoin:round; stroke-width:4; stroke-opacity:1; fill:none" points="1346.39,1423.18 1346.39,1404.28 "/>
<polyline clip-path="url(#clip490)" style="stroke:#000000; stroke-linecap:round; stroke-linejoin:round; stroke-width:4; stroke-opacity:1; fill:none" points="1821.09,1423.18 1821.09,1404.28 "/>
<polyline clip-path="url(#clip490)" style="stroke:#000000; stroke-linecap:round; stroke-linejoin:round; stroke-width:4; stroke-opacity:1; fill:none" points="2295.79,1423.18 2295.79,1404.28 "/>
<path clip-path="url(#clip490)" d="M364.145 1481.64 L371.783 1481.64 L371.783 1455.28 L363.473 1456.95 L363.473 1452.69 L371.737 1451.02 L376.413 1451.02 L376.413 1481.64 L384.052 1481.64 L384.052 1485.58 L364.145 1485.58 L364.145 1481.64 Z" fill="#000000" fill-rule="nonzero" fill-opacity="1" /><path clip-path="url(#clip490)" d="M393.496 1479.7 L398.381 1479.7 L398.381 1485.58 L393.496 1485.58 L393.496 1479.7 Z" fill="#000000" fill-rule="nonzero" fill-opacity="1" /><path clip-path="url(#clip490)" d="M418.566 1454.1 Q414.955 1454.1 413.126 1457.66 Q411.32 1461.2 411.32 1468.33 Q411.32 1475.44 413.126 1479.01 Q414.955 1482.55 418.566 1482.55 Q422.2 1482.55 424.005 1479.01 Q425.834 1475.44 425.834 1468.33 Q425.834 1461.2 424.005 1457.66 Q422.2 1454.1 418.566 1454.1 M418.566 1450.39 Q424.376 1450.39 427.431 1455 Q430.51 1459.58 430.51 1468.33 Q430.51 1477.06 427.431 1481.67 Q424.376 1486.25 418.566 1486.25 Q412.755 1486.25 409.677 1481.67 Q406.621 1477.06 406.621 1468.33 Q406.621 1459.58 409.677 1455 Q412.755 1450.39 418.566 1450.39 Z" fill="#000000" fill-rule="nonzero" fill-opacity="1" /><path clip-path="url(#clip490)" d="M839.342 1481.64 L846.981 1481.64 L846.981 1455.28 L838.671 1456.95 L838.671 1452.69 L846.935 1451.02 L851.611 1451.02 L851.611 1481.64 L859.25 1481.64 L859.25 1485.58 L839.342 1485.58 L839.342 1481.64 Z" fill="#000000" fill-rule="nonzero" fill-opacity="1" /><path clip-path="url(#clip490)" d="M868.694 1479.7 L873.578 1479.7 L873.578 1485.58 L868.694 1485.58 L868.694 1479.7 Z" fill="#000000" fill-rule="nonzero" fill-opacity="1" /><path clip-path="url(#clip490)" d="M883.81 1451.02 L902.166 1451.02 L902.166 1454.96 L888.092 1454.96 L888.092 1463.43 Q889.111 1463.08 890.129 1462.92 Q891.148 1462.73 892.166 1462.73 Q897.953 1462.73 901.333 1465.9 Q904.712 1469.08 904.712 1474.49 Q904.712 1480.07 901.24 1483.17 Q897.768 1486.25 891.449 1486.25 Q889.273 1486.25 887.004 1485.88 Q884.759 1485.51 882.351 1484.77 L882.351 1480.07 Q884.435 1481.2 886.657 1481.76 Q888.879 1482.32 891.356 1482.32 Q895.361 1482.32 897.699 1480.21 Q900.036 1478.1 900.036 1474.49 Q900.036 1470.88 897.699 1468.77 Q895.361 1466.67 891.356 1466.67 Q889.481 1466.67 887.606 1467.08 Q885.754 1467.5 883.81 1468.38 L883.81 1451.02 Z" fill="#000000" fill-rule="nonzero" fill-opacity="1" /><path clip-path="url(#clip490)" d="M1317.63 1481.64 L1333.95 1481.64 L1333.95 1485.58 L1312.01 1485.58 L1312.01 1481.64 Q1314.67 1478.89 1319.25 1474.26 Q1323.86 1469.61 1325.04 1468.27 Q1327.28 1465.74 1328.16 1464.01 Q1329.07 1462.25 1329.07 1460.56 Q1329.07 1457.8 1327.12 1456.07 Q1325.2 1454.33 1322.1 1454.33 Q1319.9 1454.33 1317.45 1455.09 Q1315.01 1455.86 1312.24 1457.41 L1312.24 1452.69 Q1315.06 1451.55 1317.51 1450.97 Q1319.97 1450.39 1322.01 1450.39 Q1327.38 1450.39 1330.57 1453.08 Q1333.76 1455.77 1333.76 1460.26 Q1333.76 1462.39 1332.95 1464.31 Q1332.17 1466.2 1330.06 1468.8 Q1329.48 1469.47 1326.38 1472.69 Q1323.28 1475.88 1317.63 1481.64 Z" fill="#000000" fill-rule="nonzero" fill-opacity="1" /><path clip-path="url(#clip490)" d="M1343.76 1479.7 L1348.65 1479.7 L1348.65 1485.58 L1343.76 1485.58 L1343.76 1479.7 Z" fill="#000000" fill-rule="nonzero" fill-opacity="1" /><path clip-path="url(#clip490)" d="M1368.83 1454.1 Q1365.22 1454.1 1363.39 1457.66 Q1361.59 1461.2 1361.59 1468.33 Q1361.59 1475.44 1363.39 1479.01 Q1365.22 1482.55 1368.83 1482.55 Q1372.47 1482.55 1374.27 1479.01 Q1376.1 1475.44 1376.1 1468.33 Q1376.1 1461.2 1374.27 1457.66 Q1372.47 1454.1 1368.83 1454.1 M1368.83 1450.39 Q1374.64 1450.39 1377.7 1455 Q1380.78 1459.58 1380.78 1468.33 Q1380.78 1477.06 1377.7 1481.67 Q1374.64 1486.25 1368.83 1486.25 Q1363.02 1486.25 1359.94 1481.67 Q1356.89 1477.06 1356.89 1468.33 Q1356.89 1459.58 1359.94 1455 Q1363.02 1450.39 1368.83 1450.39 Z" fill="#000000" fill-rule="nonzero" fill-opacity="1" /><path clip-path="url(#clip490)" d="M1792.83 1481.64 L1809.15 1481.64 L1809.15 1485.58 L1787.2 1485.58 L1787.2 1481.64 Q1789.87 1478.89 1794.45 1474.26 Q1799.05 1469.61 1800.24 1468.27 Q1802.48 1465.74 1803.36 1464.01 Q1804.26 1462.25 1804.26 1460.56 Q1804.26 1457.8 1802.32 1456.07 Q1800.4 1454.33 1797.3 1454.33 Q1795.1 1454.33 1792.64 1455.09 Q1790.21 1455.86 1787.43 1457.41 L1787.43 1452.69 Q1790.26 1451.55 1792.71 1450.97 Q1795.17 1450.39 1797.2 1450.39 Q1802.57 1450.39 1805.77 1453.08 Q1808.96 1455.77 1808.96 1460.26 Q1808.96 1462.39 1808.15 1464.31 Q1807.37 1466.2 1805.26 1468.8 Q1804.68 1469.47 1801.58 1472.69 Q1798.48 1475.88 1792.83 1481.64 Z" fill="#000000" fill-rule="nonzero" fill-opacity="1" /><path clip-path="url(#clip490)" d="M1818.96 1479.7 L1823.85 1479.7 L1823.85 1485.58 L1818.96 1485.58 L1818.96 1479.7 Z" fill="#000000" fill-rule="nonzero" fill-opacity="1" /><path clip-path="url(#clip490)" d="M1834.08 1451.02 L1852.43 1451.02 L1852.43 1454.96 L1838.36 1454.96 L1838.36 1463.43 Q1839.38 1463.08 1840.4 1462.92 Q1841.42 1462.73 1842.43 1462.73 Q1848.22 1462.73 1851.6 1465.9 Q1854.98 1469.08 1854.98 1474.49 Q1854.98 1480.07 1851.51 1483.17 Q1848.04 1486.25 1841.72 1486.25 Q1839.54 1486.25 1837.27 1485.88 Q1835.03 1485.51 1832.62 1484.77 L1832.62 1480.07 Q1834.7 1481.2 1836.93 1481.76 Q1839.15 1482.32 1841.62 1482.32 Q1845.63 1482.32 1847.97 1480.21 Q1850.3 1478.1 1850.3 1474.49 Q1850.3 1470.88 1847.97 1468.77 Q1845.63 1466.67 1841.62 1466.67 Q1839.75 1466.67 1837.87 1467.08 Q1836.02 1467.5 1834.08 1468.38 L1834.08 1451.02 Z" fill="#000000" fill-rule="nonzero" fill-opacity="1" /><path clip-path="url(#clip490)" d="M2277.1 1466.95 Q2280.46 1467.66 2282.33 1469.93 Q2284.23 1472.2 2284.23 1475.53 Q2284.23 1480.65 2280.71 1483.45 Q2277.19 1486.25 2270.71 1486.25 Q2268.54 1486.25 2266.22 1485.81 Q2263.93 1485.39 2261.47 1484.54 L2261.47 1480.02 Q2263.42 1481.16 2265.73 1481.74 Q2268.05 1482.32 2270.57 1482.32 Q2274.97 1482.32 2277.26 1480.58 Q2279.58 1478.84 2279.58 1475.53 Q2279.58 1472.48 2277.42 1470.77 Q2275.29 1469.03 2271.47 1469.03 L2267.45 1469.03 L2267.45 1465.19 L2271.66 1465.19 Q2275.11 1465.19 2276.94 1463.82 Q2278.77 1462.43 2278.77 1459.84 Q2278.77 1457.18 2276.87 1455.77 Q2274.99 1454.33 2271.47 1454.33 Q2269.55 1454.33 2267.35 1454.75 Q2265.16 1455.16 2262.52 1456.04 L2262.52 1451.88 Q2265.18 1451.14 2267.49 1450.77 Q2269.83 1450.39 2271.89 1450.39 Q2277.22 1450.39 2280.32 1452.83 Q2283.42 1455.23 2283.42 1459.35 Q2283.42 1462.22 2281.78 1464.21 Q2280.13 1466.18 2277.1 1466.95 Z" fill="#000000" fill-rule="nonzero" fill-opacity="1" /><path clip-path="url(#clip490)" d="M2293.1 1479.7 L2297.98 1479.7 L2297.98 1485.58 L2293.1 1485.58 L2293.1 1479.7 Z" fill="#000000" fill-rule="nonzero" fill-opacity="1" /><path clip-path="url(#clip490)" d="M2318.16 1454.1 Q2314.55 1454.1 2312.72 1457.66 Q2310.92 1461.2 2310.92 1468.33 Q2310.92 1475.44 2312.72 1479.01 Q2314.55 1482.55 2318.16 1482.55 Q2321.8 1482.55 2323.6 1479.01 Q2325.43 1475.44 2325.43 1468.33 Q2325.43 1461.2 2323.6 1457.66 Q2321.8 1454.1 2318.16 1454.1 M2318.16 1450.39 Q2323.97 1450.39 2327.03 1455 Q2330.11 1459.58 2330.11 1468.33 Q2330.11 1477.06 2327.03 1481.67 Q2323.97 1486.25 2318.16 1486.25 Q2312.35 1486.25 2309.28 1481.67 Q2306.22 1477.06 2306.22 1468.33 Q2306.22 1459.58 2309.28 1455 Q2312.35 1450.39 2318.16 1450.39 Z" fill="#000000" fill-rule="nonzero" fill-opacity="1" /><path clip-path="url(#clip490)" d="M1115.91 1522.08 L1115.91 1528.35 Q1112.25 1526.6 1109 1525.74 Q1105.75 1524.88 1102.73 1524.88 Q1097.48 1524.88 1094.61 1526.92 Q1091.78 1528.96 1091.78 1532.71 Q1091.78 1535.87 1093.66 1537.49 Q1095.57 1539.08 1100.85 1540.07 L1104.73 1540.86 Q1111.93 1542.23 1115.33 1545.7 Q1118.77 1549.14 1118.77 1554.93 Q1118.77 1561.84 1114.12 1565.4 Q1109.51 1568.97 1100.56 1568.97 Q1097.19 1568.97 1093.37 1568.2 Q1089.58 1567.44 1085.51 1565.94 L1085.51 1559.32 Q1089.42 1561.52 1093.18 1562.63 Q1096.94 1563.75 1100.56 1563.75 Q1106.07 1563.75 1109.06 1561.58 Q1112.05 1559.42 1112.05 1555.41 Q1112.05 1551.91 1109.89 1549.93 Q1107.76 1547.96 1102.86 1546.97 L1098.94 1546.21 Q1091.75 1544.78 1088.53 1541.72 Q1085.32 1538.67 1085.32 1533.22 Q1085.32 1526.92 1089.74 1523.29 Q1094.2 1519.66 1102 1519.66 Q1105.34 1519.66 1108.81 1520.27 Q1112.28 1520.87 1115.91 1522.08 Z" fill="#000000" fill-rule="nonzero" fill-opacity="1" /><path clip-path="url(#clip490)" d="M1154.2 1533.76 L1154.2 1539.24 Q1151.71 1537.87 1149.2 1537.2 Q1146.72 1536.5 1144.17 1536.5 Q1138.47 1536.5 1135.32 1540.13 Q1132.17 1543.73 1132.17 1550.25 Q1132.17 1556.78 1135.32 1560.4 Q1138.47 1564 1144.17 1564 Q1146.72 1564 1149.2 1563.33 Q1151.71 1562.63 1154.2 1561.26 L1154.2 1566.68 Q1151.74 1567.82 1149.1 1568.39 Q1146.49 1568.97 1143.53 1568.97 Q1135.48 1568.97 1130.74 1563.91 Q1126 1558.85 1126 1550.25 Q1126 1541.53 1130.77 1536.53 Q1135.58 1531.54 1143.91 1531.54 Q1146.62 1531.54 1149.2 1532.11 Q1151.78 1532.65 1154.2 1533.76 Z" fill="#000000" fill-rule="nonzero" fill-opacity="1" /><path clip-path="url(#clip490)" d="M1164.38 1532.4 L1170.24 1532.4 L1170.24 1568.04 L1164.38 1568.04 L1164.38 1532.4 M1164.38 1518.52 L1170.24 1518.52 L1170.24 1525.93 L1164.38 1525.93 L1164.38 1518.52 Z" fill="#000000" fill-rule="nonzero" fill-opacity="1" /><path clip-path="url(#clip490)" d="M1212.12 1546.53 L1212.12 1568.04 L1206.27 1568.04 L1206.27 1546.72 Q1206.27 1541.66 1204.29 1539.14 Q1202.32 1536.63 1198.37 1536.63 Q1193.63 1536.63 1190.89 1539.65 Q1188.16 1542.68 1188.16 1547.9 L1188.16 1568.04 L1182.27 1568.04 L1182.27 1532.4 L1188.16 1532.4 L1188.16 1537.93 Q1190.26 1534.72 1193.09 1533.13 Q1195.95 1531.54 1199.68 1531.54 Q1205.82 1531.54 1208.97 1535.36 Q1212.12 1539.14 1212.12 1546.53 Z" fill="#000000" fill-rule="nonzero" fill-opacity="1" /><path clip-path="url(#clip490)" d="M1229.6 1522.27 L1229.6 1532.4 L1241.66 1532.4 L1241.66 1536.95 L1229.6 1536.95 L1229.6 1556.3 Q1229.6 1560.66 1230.77 1561.9 Q1231.98 1563.14 1235.64 1563.14 L1241.66 1563.14 L1241.66 1568.04 L1235.64 1568.04 Q1228.86 1568.04 1226.29 1565.53 Q1223.71 1562.98 1223.71 1556.3 L1223.71 1536.95 L1219.41 1536.95 L1219.41 1532.4 L1223.71 1532.4 L1223.71 1522.27 L1229.6 1522.27 Z" fill="#000000" fill-rule="nonzero" fill-opacity="1" /><path clip-path="url(#clip490)" d="M1249.36 1532.4 L1255.22 1532.4 L1255.22 1568.04 L1249.36 1568.04 L1249.36 1532.4 M1249.36 1518.52 L1255.22 1518.52 L1255.22 1525.93 L1249.36 1525.93 L1249.36 1518.52 Z" fill="#000000" fill-rule="nonzero" fill-opacity="1" /><path clip-path="url(#clip490)" d="M1267.47 1518.52 L1273.33 1518.52 L1273.33 1568.04 L1267.47 1568.04 L1267.47 1518.52 Z" fill="#000000" fill-rule="nonzero" fill-opacity="1" /><path clip-path="url(#clip490)" d="M1285.58 1518.52 L1291.44 1518.52 L1291.44 1568.04 L1285.58 1568.04 L1285.58 1518.52 Z" fill="#000000" fill-rule="nonzero" fill-opacity="1" /><path clip-path="url(#clip490)" d="M1319.89 1550.12 Q1312.8 1550.12 1310.06 1551.75 Q1307.32 1553.37 1307.32 1557.29 Q1307.32 1560.4 1309.36 1562.25 Q1311.43 1564.07 1314.96 1564.07 Q1319.83 1564.07 1322.76 1560.63 Q1325.72 1557.16 1325.72 1551.43 L1325.72 1550.12 L1319.89 1550.12 M1331.58 1547.71 L1331.58 1568.04 L1325.72 1568.04 L1325.72 1562.63 Q1323.71 1565.88 1320.72 1567.44 Q1317.73 1568.97 1313.4 1568.97 Q1307.93 1568.97 1304.68 1565.91 Q1301.47 1562.82 1301.47 1557.67 Q1301.47 1551.65 1305.48 1548.6 Q1309.52 1545.54 1317.51 1545.54 L1325.72 1545.54 L1325.72 1544.97 Q1325.72 1540.93 1323.05 1538.73 Q1320.4 1536.5 1315.6 1536.5 Q1312.54 1536.5 1309.65 1537.23 Q1306.75 1537.97 1304.08 1539.43 L1304.08 1534.02 Q1307.29 1532.78 1310.31 1532.17 Q1313.34 1531.54 1316.2 1531.54 Q1323.94 1531.54 1327.76 1535.55 Q1331.58 1539.56 1331.58 1547.71 Z" fill="#000000" fill-rule="nonzero" fill-opacity="1" /><path clip-path="url(#clip490)" d="M1349.43 1522.27 L1349.43 1532.4 L1361.49 1532.4 L1361.49 1536.95 L1349.43 1536.95 L1349.43 1556.3 Q1349.43 1560.66 1350.61 1561.9 Q1351.82 1563.14 1355.48 1563.14 L1361.49 1563.14 L1361.49 1568.04 L1355.48 1568.04 Q1348.7 1568.04 1346.12 1565.53 Q1343.54 1562.98 1343.54 1556.3 L1343.54 1536.95 L1339.25 1536.95 L1339.25 1532.4 L1343.54 1532.4 L1343.54 1522.27 L1349.43 1522.27 Z" fill="#000000" fill-rule="nonzero" fill-opacity="1" /><path clip-path="url(#clip490)" d="M1383.01 1536.5 Q1378.3 1536.5 1375.56 1540.19 Q1372.83 1543.85 1372.83 1550.25 Q1372.83 1556.65 1375.53 1560.34 Q1378.27 1564 1383.01 1564 Q1387.69 1564 1390.43 1560.31 Q1393.16 1556.62 1393.16 1550.25 Q1393.16 1543.92 1390.43 1540.23 Q1387.69 1536.5 1383.01 1536.5 M1383.01 1531.54 Q1390.65 1531.54 1395.01 1536.5 Q1399.37 1541.47 1399.37 1550.25 Q1399.37 1559 1395.01 1564 Q1390.65 1568.97 1383.01 1568.97 Q1375.34 1568.97 1370.98 1564 Q1366.65 1559 1366.65 1550.25 Q1366.65 1541.47 1370.98 1536.5 Q1375.34 1531.54 1383.01 1531.54 Z" fill="#000000" fill-rule="nonzero" fill-opacity="1" /><path clip-path="url(#clip490)" d="M1429.73 1537.87 Q1428.75 1537.3 1427.57 1537.04 Q1426.42 1536.76 1425.02 1536.76 Q1420.06 1536.76 1417.39 1540 Q1414.74 1543.22 1414.74 1549.27 L1414.74 1568.04 L1408.86 1568.04 L1408.86 1532.4 L1414.74 1532.4 L1414.74 1537.93 Q1416.59 1534.69 1419.55 1533.13 Q1422.51 1531.54 1426.74 1531.54 Q1427.35 1531.54 1428.08 1531.63 Q1428.81 1531.7 1429.7 1531.85 L1429.73 1537.87 Z" fill="#000000" fill-rule="nonzero" fill-opacity="1" /><path clip-path="url(#clip490)" d="M1462.26 1562.7 L1462.26 1581.6 L1456.38 1581.6 L1456.38 1532.4 L1462.26 1532.4 L1462.26 1537.81 Q1464.11 1534.62 1466.91 1533.1 Q1469.74 1531.54 1473.66 1531.54 Q1480.15 1531.54 1484.19 1536.69 Q1488.27 1541.85 1488.27 1550.25 Q1488.27 1558.65 1484.19 1563.81 Q1480.15 1568.97 1473.66 1568.97 Q1469.74 1568.97 1466.91 1567.44 Q1464.11 1565.88 1462.26 1562.7 M1482.19 1550.25 Q1482.19 1543.79 1479.51 1540.13 Q1476.87 1536.44 1472.23 1536.44 Q1467.58 1536.44 1464.91 1540.13 Q1462.26 1543.79 1462.26 1550.25 Q1462.26 1556.71 1464.91 1560.4 Q1467.58 1564.07 1472.23 1564.07 Q1476.87 1564.07 1479.51 1560.4 Q1482.19 1556.71 1482.19 1550.25 Z" fill="#000000" fill-rule="nonzero" fill-opacity="1" /><path clip-path="url(#clip490)" d="M1514.18 1550.12 Q1507.08 1550.12 1504.34 1551.75 Q1501.6 1553.37 1501.6 1557.29 Q1501.6 1560.4 1503.64 1562.25 Q1505.71 1564.07 1509.24 1564.07 Q1514.11 1564.07 1517.04 1560.63 Q1520 1557.16 1520 1551.43 L1520 1550.12 L1514.18 1550.12 M1525.86 1547.71 L1525.86 1568.04 L1520 1568.04 L1520 1562.63 Q1518 1565.88 1515 1567.44 Q1512.01 1568.97 1507.68 1568.97 Q1502.21 1568.97 1498.96 1565.91 Q1495.75 1562.82 1495.75 1557.67 Q1495.75 1551.65 1499.76 1548.6 Q1503.8 1545.54 1511.79 1545.54 L1520 1545.54 L1520 1544.97 Q1520 1540.93 1517.33 1538.73 Q1514.69 1536.5 1509.88 1536.5 Q1506.82 1536.5 1503.93 1537.23 Q1501.03 1537.97 1498.36 1539.43 L1498.36 1534.02 Q1501.57 1532.78 1504.6 1532.17 Q1507.62 1531.54 1510.48 1531.54 Q1518.22 1531.54 1522.04 1535.55 Q1525.86 1539.56 1525.86 1547.71 Z" fill="#000000" fill-rule="nonzero" fill-opacity="1" /><path clip-path="url(#clip490)" d="M1537.92 1532.4 L1543.78 1532.4 L1543.78 1568.04 L1537.92 1568.04 L1537.92 1532.4 M1537.92 1518.52 L1543.78 1518.52 L1543.78 1525.93 L1537.92 1525.93 L1537.92 1518.52 Z" fill="#000000" fill-rule="nonzero" fill-opacity="1" /><path clip-path="url(#clip490)" d="M1576.69 1537.87 Q1575.7 1537.3 1574.52 1537.04 Q1573.38 1536.76 1571.98 1536.76 Q1567.01 1536.76 1564.34 1540 Q1561.7 1543.22 1561.7 1549.27 L1561.7 1568.04 L1555.81 1568.04 L1555.81 1532.4 L1561.7 1532.4 L1561.7 1537.93 Q1563.54 1534.69 1566.5 1533.13 Q1569.46 1531.54 1573.7 1531.54 Q1574.3 1531.54 1575.03 1531.63 Q1575.76 1531.7 1576.66 1531.85 L1576.69 1537.87 Z" fill="#000000" fill-rule="nonzero" fill-opacity="1" /><path clip-path="url(#clip490)" d="M1605.56 1533.45 L1605.56 1538.98 Q1603.07 1537.71 1600.4 1537.07 Q1597.73 1536.44 1594.86 1536.44 Q1590.5 1536.44 1588.3 1537.77 Q1586.14 1539.11 1586.14 1541.79 Q1586.14 1543.82 1587.7 1545 Q1589.26 1546.15 1593.97 1547.2 L1595.98 1547.64 Q1602.21 1548.98 1604.82 1551.43 Q1607.47 1553.85 1607.47 1558.21 Q1607.47 1563.17 1603.52 1566.07 Q1599.6 1568.97 1592.73 1568.97 Q1589.86 1568.97 1586.74 1568.39 Q1583.66 1567.85 1580.22 1566.74 L1580.22 1560.69 Q1583.47 1562.38 1586.62 1563.24 Q1589.77 1564.07 1592.86 1564.07 Q1596.99 1564.07 1599.22 1562.66 Q1601.45 1561.23 1601.45 1558.65 Q1601.45 1556.27 1599.83 1554.99 Q1598.24 1553.72 1592.79 1552.54 L1590.76 1552.07 Q1585.31 1550.92 1582.89 1548.56 Q1580.47 1546.18 1580.47 1542.04 Q1580.47 1537.01 1584.04 1534.27 Q1587.6 1531.54 1594.16 1531.54 Q1597.41 1531.54 1600.27 1532.01 Q1603.14 1532.49 1605.56 1533.45 Z" fill="#000000" fill-rule="nonzero" fill-opacity="1" /><polyline clip-path="url(#clip490)" style="stroke:#000000; stroke-linecap:round; stroke-linejoin:round; stroke-width:4; stroke-opacity:1; fill:none" points="340.028,1423.18 340.028,123.472 "/>
<polyline clip-path="url(#clip490)" style="stroke:#000000; stroke-linecap:round; stroke-linejoin:round; stroke-width:4; stroke-opacity:1; fill:none" points="340.028,1299.33 358.925,1299.33 "/>
<polyline clip-path="url(#clip490)" style="stroke:#000000; stroke-linecap:round; stroke-linejoin:round; stroke-width:4; stroke-opacity:1; fill:none" points="340.028,936.569 358.925,936.569 "/>
<polyline clip-path="url(#clip490)" style="stroke:#000000; stroke-linecap:round; stroke-linejoin:round; stroke-width:4; stroke-opacity:1; fill:none" points="340.028,573.806 358.925,573.806 "/>
<polyline clip-path="url(#clip490)" style="stroke:#000000; stroke-linecap:round; stroke-linejoin:round; stroke-width:4; stroke-opacity:1; fill:none" points="340.028,211.043 358.925,211.043 "/>
<path clip-path="url(#clip490)" d="M127.2 1285.13 Q123.589 1285.13 121.76 1288.7 Q119.955 1292.24 119.955 1299.37 Q119.955 1306.47 121.76 1310.04 Q123.589 1313.58 127.2 1313.58 Q130.834 1313.58 132.64 1310.04 Q134.468 1306.47 134.468 1299.37 Q134.468 1292.24 132.64 1288.7 Q130.834 1285.13 127.2 1285.13 M127.2 1281.43 Q133.01 1281.43 136.066 1286.03 Q139.144 1290.62 139.144 1299.37 Q139.144 1308.09 136.066 1312.7 Q133.01 1317.28 127.2 1317.28 Q121.39 1317.28 118.311 1312.7 Q115.256 1308.09 115.256 1299.37 Q115.256 1290.62 118.311 1286.03 Q121.39 1281.43 127.2 1281.43 Z" fill="#000000" fill-rule="nonzero" fill-opacity="1" /><path clip-path="url(#clip490)" d="M147.362 1310.73 L152.246 1310.73 L152.246 1316.61 L147.362 1316.61 L147.362 1310.73 Z" fill="#000000" fill-rule="nonzero" fill-opacity="1" /><path clip-path="url(#clip490)" d="M172.431 1285.13 Q168.82 1285.13 166.991 1288.7 Q165.186 1292.24 165.186 1299.37 Q165.186 1306.47 166.991 1310.04 Q168.82 1313.58 172.431 1313.58 Q176.065 1313.58 177.871 1310.04 Q179.7 1306.47 179.7 1299.37 Q179.7 1292.24 177.871 1288.7 Q176.065 1285.13 172.431 1285.13 M172.431 1281.43 Q178.241 1281.43 181.297 1286.03 Q184.376 1290.62 184.376 1299.37 Q184.376 1308.09 181.297 1312.7 Q178.241 1317.28 172.431 1317.28 Q166.621 1317.28 163.542 1312.7 Q160.487 1308.09 160.487 1299.37 Q160.487 1290.62 163.542 1286.03 Q166.621 1281.43 172.431 1281.43 Z" fill="#000000" fill-rule="nonzero" fill-opacity="1" /><path clip-path="url(#clip490)" d="M202.593 1285.13 Q198.982 1285.13 197.153 1288.7 Q195.348 1292.24 195.348 1299.37 Q195.348 1306.47 197.153 1310.04 Q198.982 1313.58 202.593 1313.58 Q206.227 1313.58 208.033 1310.04 Q209.861 1306.47 209.861 1299.37 Q209.861 1292.24 208.033 1288.7 Q206.227 1285.13 202.593 1285.13 M202.593 1281.43 Q208.403 1281.43 211.459 1286.03 Q214.537 1290.62 214.537 1299.37 Q214.537 1308.09 211.459 1312.7 Q208.403 1317.28 202.593 1317.28 Q196.783 1317.28 193.704 1312.7 Q190.649 1308.09 190.649 1299.37 Q190.649 1290.62 193.704 1286.03 Q196.783 1281.43 202.593 1281.43 Z" fill="#000000" fill-rule="nonzero" fill-opacity="1" /><path clip-path="url(#clip490)" d="M232.755 1285.13 Q229.144 1285.13 227.315 1288.7 Q225.51 1292.24 225.51 1299.37 Q225.51 1306.47 227.315 1310.04 Q229.144 1313.58 232.755 1313.58 Q236.389 1313.58 238.195 1310.04 Q240.023 1306.47 240.023 1299.37 Q240.023 1292.24 238.195 1288.7 Q236.389 1285.13 232.755 1285.13 M232.755 1281.43 Q238.565 1281.43 241.621 1286.03 Q244.699 1290.62 244.699 1299.37 Q244.699 1308.09 241.621 1312.7 Q238.565 1317.28 232.755 1317.28 Q226.945 1317.28 223.866 1312.7 Q220.811 1308.09 220.811 1299.37 Q220.811 1290.62 223.866 1286.03 Q226.945 1281.43 232.755 1281.43 Z" fill="#000000" fill-rule="nonzero" fill-opacity="1" /><path clip-path="url(#clip490)" d="M267.083 1297.98 Q270.44 1298.7 272.315 1300.96 Q274.213 1303.23 274.213 1306.57 Q274.213 1311.68 270.695 1314.48 Q267.176 1317.28 260.695 1317.28 Q258.519 1317.28 256.204 1316.84 Q253.912 1316.43 251.458 1315.57 L251.458 1311.06 Q253.403 1312.19 255.718 1312.77 Q258.033 1313.35 260.556 1313.35 Q264.954 1313.35 267.245 1311.61 Q269.56 1309.88 269.56 1306.57 Q269.56 1303.51 267.407 1301.8 Q265.278 1300.06 261.458 1300.06 L257.431 1300.06 L257.431 1296.22 L261.644 1296.22 Q265.093 1296.22 266.921 1294.85 Q268.75 1293.46 268.75 1290.87 Q268.75 1288.21 266.852 1286.8 Q264.977 1285.36 261.458 1285.36 Q259.537 1285.36 257.338 1285.78 Q255.139 1286.2 252.5 1287.08 L252.5 1282.91 Q255.162 1282.17 257.477 1281.8 Q259.815 1281.43 261.875 1281.43 Q267.199 1281.43 270.301 1283.86 Q273.403 1286.27 273.403 1290.39 Q273.403 1293.26 271.759 1295.25 Q270.116 1297.21 267.083 1297.98 Z" fill="#000000" fill-rule="nonzero" fill-opacity="1" /><path clip-path="url(#clip490)" d="M283.125 1282.05 L301.481 1282.05 L301.481 1285.99 L287.407 1285.99 L287.407 1294.46 Q288.426 1294.11 289.444 1293.95 Q290.463 1293.77 291.481 1293.77 Q297.268 1293.77 300.648 1296.94 Q304.028 1300.11 304.028 1305.52 Q304.028 1311.1 300.555 1314.21 Q297.083 1317.28 290.764 1317.28 Q288.588 1317.28 286.319 1316.91 Q284.074 1316.54 281.667 1315.8 L281.667 1311.1 Q283.75 1312.24 285.972 1312.79 Q288.194 1313.35 290.671 1313.35 Q294.676 1313.35 297.014 1311.24 Q299.352 1309.14 299.352 1305.52 Q299.352 1301.91 297.014 1299.81 Q294.676 1297.7 290.671 1297.7 Q288.796 1297.7 286.921 1298.12 Q285.069 1298.53 283.125 1299.41 L283.125 1282.05 Z" fill="#000000" fill-rule="nonzero" fill-opacity="1" /><path clip-path="url(#clip490)" d="M126.205 922.368 Q122.593 922.368 120.765 925.933 Q118.959 929.475 118.959 936.604 Q118.959 943.711 120.765 947.275 Q122.593 950.817 126.205 950.817 Q129.839 950.817 131.644 947.275 Q133.473 943.711 133.473 936.604 Q133.473 929.475 131.644 925.933 Q129.839 922.368 126.205 922.368 M126.205 918.664 Q132.015 918.664 135.07 923.271 Q138.149 927.854 138.149 936.604 Q138.149 945.331 135.07 949.937 Q132.015 954.521 126.205 954.521 Q120.394 954.521 117.316 949.937 Q114.26 945.331 114.26 936.604 Q114.26 927.854 117.316 923.271 Q120.394 918.664 126.205 918.664 Z" fill="#000000" fill-rule="nonzero" fill-opacity="1" /><path clip-path="url(#clip490)" d="M146.366 947.97 L151.251 947.97 L151.251 953.849 L146.366 953.849 L146.366 947.97 Z" fill="#000000" fill-rule="nonzero" fill-opacity="1" /><path clip-path="url(#clip490)" d="M171.436 922.368 Q167.825 922.368 165.996 925.933 Q164.19 929.475 164.19 936.604 Q164.19 943.711 165.996 947.275 Q167.825 950.817 171.436 950.817 Q175.07 950.817 176.876 947.275 Q178.704 943.711 178.704 936.604 Q178.704 929.475 176.876 925.933 Q175.07 922.368 171.436 922.368 M171.436 918.664 Q177.246 918.664 180.301 923.271 Q183.38 927.854 183.38 936.604 Q183.38 945.331 180.301 949.937 Q177.246 954.521 171.436 954.521 Q165.626 954.521 162.547 949.937 Q159.491 945.331 159.491 936.604 Q159.491 927.854 162.547 923.271 Q165.626 918.664 171.436 918.664 Z" fill="#000000" fill-rule="nonzero" fill-opacity="1" /><path clip-path="url(#clip490)" d="M201.598 922.368 Q197.987 922.368 196.158 925.933 Q194.352 929.475 194.352 936.604 Q194.352 943.711 196.158 947.275 Q197.987 950.817 201.598 950.817 Q205.232 950.817 207.037 947.275 Q208.866 943.711 208.866 936.604 Q208.866 929.475 207.037 925.933 Q205.232 922.368 201.598 922.368 M201.598 918.664 Q207.408 918.664 210.463 923.271 Q213.542 927.854 213.542 936.604 Q213.542 945.331 210.463 949.937 Q207.408 954.521 201.598 954.521 Q195.787 954.521 192.709 949.937 Q189.653 945.331 189.653 936.604 Q189.653 927.854 192.709 923.271 Q195.787 918.664 201.598 918.664 Z" fill="#000000" fill-rule="nonzero" fill-opacity="1" /><path clip-path="url(#clip490)" d="M231.76 922.368 Q228.148 922.368 226.32 925.933 Q224.514 929.475 224.514 936.604 Q224.514 943.711 226.32 947.275 Q228.148 950.817 231.76 950.817 Q235.394 950.817 237.199 947.275 Q239.028 943.711 239.028 936.604 Q239.028 929.475 237.199 925.933 Q235.394 922.368 231.76 922.368 M231.76 918.664 Q237.57 918.664 240.625 923.271 Q243.704 927.854 243.704 936.604 Q243.704 945.331 240.625 949.937 Q237.57 954.521 231.76 954.521 Q225.949 954.521 222.871 949.937 Q219.815 945.331 219.815 936.604 Q219.815 927.854 222.871 923.271 Q225.949 918.664 231.76 918.664 Z" fill="#000000" fill-rule="nonzero" fill-opacity="1" /><path clip-path="url(#clip490)" d="M264.769 923.363 L252.963 941.812 L264.769 941.812 L264.769 923.363 M263.542 919.289 L269.421 919.289 L269.421 941.812 L274.352 941.812 L274.352 945.701 L269.421 945.701 L269.421 953.849 L264.769 953.849 L264.769 945.701 L249.167 945.701 L249.167 941.187 L263.542 919.289 Z" fill="#000000" fill-rule="nonzero" fill-opacity="1" /><path clip-path="url(#clip490)" d="M292.083 922.368 Q288.472 922.368 286.643 925.933 Q284.838 929.475 284.838 936.604 Q284.838 943.711 286.643 947.275 Q288.472 950.817 292.083 950.817 Q295.718 950.817 297.523 947.275 Q299.352 943.711 299.352 936.604 Q299.352 929.475 297.523 925.933 Q295.718 922.368 292.083 922.368 M292.083 918.664 Q297.893 918.664 300.949 923.271 Q304.028 927.854 304.028 936.604 Q304.028 945.331 300.949 949.937 Q297.893 954.521 292.083 954.521 Q286.273 954.521 283.194 949.937 Q280.139 945.331 280.139 936.604 Q280.139 927.854 283.194 923.271 Q286.273 918.664 292.083 918.664 Z" fill="#000000" fill-rule="nonzero" fill-opacity="1" /><path clip-path="url(#clip490)" d="M127.2 559.605 Q123.589 559.605 121.76 563.17 Q119.955 566.711 119.955 573.841 Q119.955 580.947 121.76 584.512 Q123.589 588.054 127.2 588.054 Q130.834 588.054 132.64 584.512 Q134.468 580.947 134.468 573.841 Q134.468 566.711 132.64 563.17 Q130.834 559.605 127.2 559.605 M127.2 555.901 Q133.01 555.901 136.066 560.508 Q139.144 565.091 139.144 573.841 Q139.144 582.568 136.066 587.174 Q133.01 591.758 127.2 591.758 Q121.39 591.758 118.311 587.174 Q115.256 582.568 115.256 573.841 Q115.256 565.091 118.311 560.508 Q121.39 555.901 127.2 555.901 Z" fill="#000000" fill-rule="nonzero" fill-opacity="1" /><path clip-path="url(#clip490)" d="M147.362 585.207 L152.246 585.207 L152.246 591.086 L147.362 591.086 L147.362 585.207 Z" fill="#000000" fill-rule="nonzero" fill-opacity="1" /><path clip-path="url(#clip490)" d="M172.431 559.605 Q168.82 559.605 166.991 563.17 Q165.186 566.711 165.186 573.841 Q165.186 580.947 166.991 584.512 Q168.82 588.054 172.431 588.054 Q176.065 588.054 177.871 584.512 Q179.7 580.947 179.7 573.841 Q179.7 566.711 177.871 563.17 Q176.065 559.605 172.431 559.605 M172.431 555.901 Q178.241 555.901 181.297 560.508 Q184.376 565.091 184.376 573.841 Q184.376 582.568 181.297 587.174 Q178.241 591.758 172.431 591.758 Q166.621 591.758 163.542 587.174 Q160.487 582.568 160.487 573.841 Q160.487 565.091 163.542 560.508 Q166.621 555.901 172.431 555.901 Z" fill="#000000" fill-rule="nonzero" fill-opacity="1" /><path clip-path="url(#clip490)" d="M202.593 559.605 Q198.982 559.605 197.153 563.17 Q195.348 566.711 195.348 573.841 Q195.348 580.947 197.153 584.512 Q198.982 588.054 202.593 588.054 Q206.227 588.054 208.033 584.512 Q209.861 580.947 209.861 573.841 Q209.861 566.711 208.033 563.17 Q206.227 559.605 202.593 559.605 M202.593 555.901 Q208.403 555.901 211.459 560.508 Q214.537 565.091 214.537 573.841 Q214.537 582.568 211.459 587.174 Q208.403 591.758 202.593 591.758 Q196.783 591.758 193.704 587.174 Q190.649 582.568 190.649 573.841 Q190.649 565.091 193.704 560.508 Q196.783 555.901 202.593 555.901 Z" fill="#000000" fill-rule="nonzero" fill-opacity="1" /><path clip-path="url(#clip490)" d="M232.755 559.605 Q229.144 559.605 227.315 563.17 Q225.51 566.711 225.51 573.841 Q225.51 580.947 227.315 584.512 Q229.144 588.054 232.755 588.054 Q236.389 588.054 238.195 584.512 Q240.023 580.947 240.023 573.841 Q240.023 566.711 238.195 563.17 Q236.389 559.605 232.755 559.605 M232.755 555.901 Q238.565 555.901 241.621 560.508 Q244.699 565.091 244.699 573.841 Q244.699 582.568 241.621 587.174 Q238.565 591.758 232.755 591.758 Q226.945 591.758 223.866 587.174 Q220.811 582.568 220.811 573.841 Q220.811 565.091 223.866 560.508 Q226.945 555.901 232.755 555.901 Z" fill="#000000" fill-rule="nonzero" fill-opacity="1" /><path clip-path="url(#clip490)" d="M265.764 560.6 L253.958 579.049 L265.764 579.049 L265.764 560.6 M264.537 556.526 L270.417 556.526 L270.417 579.049 L275.347 579.049 L275.347 582.938 L270.417 582.938 L270.417 591.086 L265.764 591.086 L265.764 582.938 L250.162 582.938 L250.162 578.424 L264.537 556.526 Z" fill="#000000" fill-rule="nonzero" fill-opacity="1" /><path clip-path="url(#clip490)" d="M283.125 556.526 L301.481 556.526 L301.481 560.461 L287.407 560.461 L287.407 568.934 Q288.426 568.586 289.444 568.424 Q290.463 568.239 291.481 568.239 Q297.268 568.239 300.648 571.41 Q304.028 574.582 304.028 579.998 Q304.028 585.577 300.555 588.679 Q297.083 591.758 290.764 591.758 Q288.588 591.758 286.319 591.387 Q284.074 591.017 281.667 590.276 L281.667 585.577 Q283.75 586.711 285.972 587.267 Q288.194 587.822 290.671 587.822 Q294.676 587.822 297.014 585.716 Q299.352 583.609 299.352 579.998 Q299.352 576.387 297.014 574.281 Q294.676 572.174 290.671 572.174 Q288.796 572.174 286.921 572.591 Q285.069 573.008 283.125 573.887 L283.125 556.526 Z" fill="#000000" fill-rule="nonzero" fill-opacity="1" /><path clip-path="url(#clip490)" d="M126.205 196.842 Q122.593 196.842 120.765 200.407 Q118.959 203.948 118.959 211.078 Q118.959 218.184 120.765 221.749 Q122.593 225.291 126.205 225.291 Q129.839 225.291 131.644 221.749 Q133.473 218.184 133.473 211.078 Q133.473 203.948 131.644 200.407 Q129.839 196.842 126.205 196.842 M126.205 193.138 Q132.015 193.138 135.07 197.745 Q138.149 202.328 138.149 211.078 Q138.149 219.805 135.07 224.411 Q132.015 228.994 126.205 228.994 Q120.394 228.994 117.316 224.411 Q114.26 219.805 114.26 211.078 Q114.26 202.328 117.316 197.745 Q120.394 193.138 126.205 193.138 Z" fill="#000000" fill-rule="nonzero" fill-opacity="1" /><path clip-path="url(#clip490)" d="M146.366 222.444 L151.251 222.444 L151.251 228.323 L146.366 228.323 L146.366 222.444 Z" fill="#000000" fill-rule="nonzero" fill-opacity="1" /><path clip-path="url(#clip490)" d="M171.436 196.842 Q167.825 196.842 165.996 200.407 Q164.19 203.948 164.19 211.078 Q164.19 218.184 165.996 221.749 Q167.825 225.291 171.436 225.291 Q175.07 225.291 176.876 221.749 Q178.704 218.184 178.704 211.078 Q178.704 203.948 176.876 200.407 Q175.07 196.842 171.436 196.842 M171.436 193.138 Q177.246 193.138 180.301 197.745 Q183.38 202.328 183.38 211.078 Q183.38 219.805 180.301 224.411 Q177.246 228.994 171.436 228.994 Q165.626 228.994 162.547 224.411 Q159.491 219.805 159.491 211.078 Q159.491 202.328 162.547 197.745 Q165.626 193.138 171.436 193.138 Z" fill="#000000" fill-rule="nonzero" fill-opacity="1" /><path clip-path="url(#clip490)" d="M201.598 196.842 Q197.987 196.842 196.158 200.407 Q194.352 203.948 194.352 211.078 Q194.352 218.184 196.158 221.749 Q197.987 225.291 201.598 225.291 Q205.232 225.291 207.037 221.749 Q208.866 218.184 208.866 211.078 Q208.866 203.948 207.037 200.407 Q205.232 196.842 201.598 196.842 M201.598 193.138 Q207.408 193.138 210.463 197.745 Q213.542 202.328 213.542 211.078 Q213.542 219.805 210.463 224.411 Q207.408 228.994 201.598 228.994 Q195.787 228.994 192.709 224.411 Q189.653 219.805 189.653 211.078 Q189.653 202.328 192.709 197.745 Q195.787 193.138 201.598 193.138 Z" fill="#000000" fill-rule="nonzero" fill-opacity="1" /><path clip-path="url(#clip490)" d="M231.76 196.842 Q228.148 196.842 226.32 200.407 Q224.514 203.948 224.514 211.078 Q224.514 218.184 226.32 221.749 Q228.148 225.291 231.76 225.291 Q235.394 225.291 237.199 221.749 Q239.028 218.184 239.028 211.078 Q239.028 203.948 237.199 200.407 Q235.394 196.842 231.76 196.842 M231.76 193.138 Q237.57 193.138 240.625 197.745 Q243.704 202.328 243.704 211.078 Q243.704 219.805 240.625 224.411 Q237.57 228.994 231.76 228.994 Q225.949 228.994 222.871 224.411 Q219.815 219.805 219.815 211.078 Q219.815 202.328 222.871 197.745 Q225.949 193.138 231.76 193.138 Z" fill="#000000" fill-rule="nonzero" fill-opacity="1" /><path clip-path="url(#clip490)" d="M251.968 193.763 L270.324 193.763 L270.324 197.698 L256.25 197.698 L256.25 206.17 Q257.269 205.823 258.287 205.661 Q259.306 205.476 260.324 205.476 Q266.111 205.476 269.491 208.647 Q272.87 211.819 272.87 217.235 Q272.87 222.814 269.398 225.916 Q265.926 228.994 259.607 228.994 Q257.431 228.994 255.162 228.624 Q252.917 228.254 250.509 227.513 L250.509 222.814 Q252.593 223.948 254.815 224.504 Q257.037 225.059 259.514 225.059 Q263.519 225.059 265.857 222.953 Q268.195 220.846 268.195 217.235 Q268.195 213.624 265.857 211.518 Q263.519 209.411 259.514 209.411 Q257.639 209.411 255.764 209.828 Q253.912 210.245 251.968 211.124 L251.968 193.763 Z" fill="#000000" fill-rule="nonzero" fill-opacity="1" /><path clip-path="url(#clip490)" d="M292.083 196.842 Q288.472 196.842 286.643 200.407 Q284.838 203.948 284.838 211.078 Q284.838 218.184 286.643 221.749 Q288.472 225.291 292.083 225.291 Q295.718 225.291 297.523 221.749 Q299.352 218.184 299.352 211.078 Q299.352 203.948 297.523 200.407 Q295.718 196.842 292.083 196.842 M292.083 193.138 Q297.893 193.138 300.949 197.745 Q304.028 202.328 304.028 211.078 Q304.028 219.805 300.949 224.411 Q297.893 228.994 292.083 228.994 Q286.273 228.994 283.194 224.411 Q280.139 219.805 280.139 211.078 Q280.139 202.328 283.194 197.745 Q286.273 193.138 292.083 193.138 Z" fill="#000000" fill-rule="nonzero" fill-opacity="1" /><path clip-path="url(#clip490)" d="M16.4842 1427.88 L16.4842 1418.3 L48.8219 1406.17 L16.4842 1393.98 L16.4842 1384.4 L64.0042 1384.4 L64.0042 1390.67 L22.277 1390.67 L54.8694 1402.93 L54.8694 1409.39 L22.277 1421.64 L64.0042 1421.64 L64.0042 1427.88 L16.4842 1427.88 Z" fill="#000000" fill-rule="nonzero" fill-opacity="1" /><path clip-path="url(#clip490)" d="M46.0847 1355.69 Q46.0847 1362.79 47.7079 1365.53 Q49.3312 1368.26 53.2461 1368.26 Q56.3653 1368.26 58.2114 1366.23 Q60.0256 1364.16 60.0256 1360.63 Q60.0256 1355.76 56.5881 1352.83 Q53.1188 1349.87 47.3897 1349.87 L46.0847 1349.87 L46.0847 1355.69 M43.6657 1344.01 L64.0042 1344.01 L64.0042 1349.87 L58.5933 1349.87 Q61.8398 1351.87 63.3994 1354.87 Q64.9272 1357.86 64.9272 1362.19 Q64.9272 1367.66 61.8716 1370.91 Q58.7843 1374.12 53.6281 1374.12 Q47.6125 1374.12 44.5569 1370.11 Q41.5014 1366.07 41.5014 1358.08 L41.5014 1349.87 L40.9285 1349.87 Q36.8862 1349.87 34.6901 1352.54 Q32.4621 1355.18 32.4621 1359.99 Q32.4621 1363.05 33.1941 1365.94 Q33.9262 1368.84 35.3903 1371.51 L29.9795 1371.51 Q28.7381 1368.3 28.1334 1365.27 Q27.4968 1362.25 27.4968 1359.38 Q27.4968 1351.65 31.5072 1347.83 Q35.5176 1344.01 43.6657 1344.01 Z" fill="#000000" fill-rule="nonzero" fill-opacity="1" /><path clip-path="url(#clip490)" d="M18.2347 1326.16 L28.3562 1326.16 L28.3562 1314.09 L32.9077 1314.09 L32.9077 1326.16 L52.2594 1326.16 Q56.6199 1326.16 57.8613 1324.98 Q59.1026 1323.77 59.1026 1320.11 L59.1026 1314.09 L64.0042 1314.09 L64.0042 1320.11 Q64.0042 1326.89 61.4897 1329.47 Q58.9434 1332.04 52.2594 1332.04 L32.9077 1332.04 L32.9077 1336.34 L28.3562 1336.34 L28.3562 1332.04 L18.2347 1332.04 L18.2347 1326.16 Z" fill="#000000" fill-rule="nonzero" fill-opacity="1" /><path clip-path="url(#clip490)" d="M29.7248 1280.74 L35.1993 1280.74 Q33.8307 1283.22 33.1623 1285.73 Q32.4621 1288.22 32.4621 1290.76 Q32.4621 1296.46 36.0905 1299.61 Q39.6872 1302.76 46.212 1302.76 Q52.7369 1302.76 56.3653 1299.61 Q59.9619 1296.46 59.9619 1290.76 Q59.9619 1288.22 59.2935 1285.73 Q58.5933 1283.22 57.2247 1280.74 L62.6355 1280.74 Q63.7814 1283.19 64.3543 1285.83 Q64.9272 1288.44 64.9272 1291.4 Q64.9272 1299.45 59.8664 1304.19 Q54.8057 1308.94 46.212 1308.94 Q37.491 1308.94 32.4939 1304.16 Q27.4968 1299.36 27.4968 1291.02 Q27.4968 1288.31 28.0697 1285.73 Q28.6108 1283.16 29.7248 1280.74 Z" fill="#000000" fill-rule="nonzero" fill-opacity="1" /><path clip-path="url(#clip490)" d="M42.4881 1240.92 L64.0042 1240.92 L64.0042 1246.78 L42.679 1246.78 Q37.6183 1246.78 35.1038 1248.75 Q32.5894 1250.72 32.5894 1254.67 Q32.5894 1259.41 35.6131 1262.15 Q38.6368 1264.89 43.8567 1264.89 L64.0042 1264.89 L64.0042 1270.77 L14.479 1270.77 L14.479 1264.89 L33.8944 1264.89 Q30.6797 1262.79 29.0883 1259.95 Q27.4968 1257.09 27.4968 1253.36 Q27.4968 1247.22 31.3163 1244.07 Q35.1038 1240.92 42.4881 1240.92 Z" fill="#000000" fill-rule="nonzero" fill-opacity="1" /><path clip-path="url(#clip490)" d="M44.7161 1198.75 L47.5806 1198.75 L47.5806 1225.67 Q53.6281 1225.29 56.8109 1222.04 Q59.9619 1218.77 59.9619 1212.94 Q59.9619 1209.57 59.1344 1206.42 Q58.3069 1203.23 56.6518 1200.11 L62.1899 1200.11 Q63.5267 1203.27 64.227 1206.58 Q64.9272 1209.89 64.9272 1213.29 Q64.9272 1221.82 59.9619 1226.82 Q54.9967 1231.78 46.5303 1231.78 Q37.7774 1231.78 32.6531 1227.07 Q27.4968 1222.33 27.4968 1214.31 Q27.4968 1207.12 32.1438 1202.95 Q36.7589 1198.75 44.7161 1198.75 M42.9973 1204.6 Q38.1912 1204.67 35.3266 1207.31 Q32.4621 1209.92 32.4621 1214.25 Q32.4621 1219.15 35.2312 1222.11 Q38.0002 1225.04 43.0292 1225.48 L42.9973 1204.6 Z" fill="#000000" fill-rule="nonzero" fill-opacity="1" /><path clip-path="url(#clip490)" d="M29.4065 1166.41 L34.9447 1166.41 Q33.6716 1168.89 33.035 1171.56 Q32.3984 1174.24 32.3984 1177.1 Q32.3984 1181.46 33.7352 1183.66 Q35.072 1185.82 37.7456 1185.82 Q39.7826 1185.82 40.9603 1184.26 Q42.1061 1182.7 43.1565 1177.99 L43.6021 1175.99 Q44.9389 1169.75 47.3897 1167.14 Q49.8086 1164.5 54.1691 1164.5 Q59.1344 1164.5 62.0308 1168.45 Q64.9272 1172.36 64.9272 1179.24 Q64.9272 1182.1 64.3543 1185.22 Q63.8132 1188.31 62.6992 1191.74 L56.6518 1191.74 Q58.3387 1188.5 59.198 1185.35 Q60.0256 1182.2 60.0256 1179.11 Q60.0256 1174.97 58.6251 1172.74 Q57.1929 1170.51 54.6147 1170.51 Q52.2276 1170.51 50.9545 1172.14 Q49.6813 1173.73 48.5037 1179.17 L48.0262 1181.21 Q46.8804 1186.65 44.5251 1189.07 Q42.138 1191.49 38.0002 1191.49 Q32.9713 1191.49 30.2341 1187.92 Q27.4968 1184.36 27.4968 1177.8 Q27.4968 1174.56 27.9743 1171.69 Q28.4517 1168.83 29.4065 1166.41 Z" fill="#000000" fill-rule="nonzero" fill-opacity="1" /><path clip-path="url(#clip490)" d="M58.657 1128.79 L77.5631 1128.79 L77.5631 1134.68 L28.3562 1134.68 L28.3562 1128.79 L33.7671 1128.79 Q30.5842 1126.94 29.0564 1124.14 Q27.4968 1121.31 27.4968 1117.39 Q27.4968 1110.9 32.6531 1106.86 Q37.8093 1102.78 46.212 1102.78 Q54.6147 1102.78 59.771 1106.86 Q64.9272 1110.9 64.9272 1117.39 Q64.9272 1121.31 63.3994 1124.14 Q61.8398 1126.94 58.657 1128.79 M46.212 1108.86 Q39.7508 1108.86 36.0905 1111.54 Q32.3984 1114.18 32.3984 1118.82 Q32.3984 1123.47 36.0905 1126.15 Q39.7508 1128.79 46.212 1128.79 Q52.6732 1128.79 56.3653 1126.15 Q60.0256 1123.47 60.0256 1118.82 Q60.0256 1114.18 56.3653 1111.54 Q52.6732 1108.86 46.212 1108.86 Z" fill="#000000" fill-rule="nonzero" fill-opacity="1" /><path clip-path="url(#clip490)" d="M44.7161 1062.58 L47.5806 1062.58 L47.5806 1089.51 Q53.6281 1089.13 56.8109 1085.88 Q59.9619 1082.6 59.9619 1076.78 Q59.9619 1073.41 59.1344 1070.25 Q58.3069 1067.07 56.6518 1063.95 L62.1899 1063.95 Q63.5267 1067.1 64.227 1070.41 Q64.9272 1073.72 64.9272 1077.13 Q64.9272 1085.66 59.9619 1090.66 Q54.9967 1095.62 46.5303 1095.62 Q37.7774 1095.62 32.6531 1090.91 Q27.4968 1086.17 27.4968 1078.15 Q27.4968 1070.95 32.1438 1066.79 Q36.7589 1062.58 44.7161 1062.58 M42.9973 1068.44 Q38.1912 1068.5 35.3266 1071.15 Q32.4621 1073.76 32.4621 1078.08 Q32.4621 1082.99 35.2312 1085.95 Q38.0002 1088.87 43.0292 1089.32 L42.9973 1068.44 Z" fill="#000000" fill-rule="nonzero" fill-opacity="1" /><path clip-path="url(#clip490)" d="M33.8307 1032.31 Q33.2578 1033.3 33.0032 1034.48 Q32.7167 1035.62 32.7167 1037.03 Q32.7167 1041.99 35.9632 1044.66 Q39.1779 1047.31 45.2253 1047.31 L64.0042 1047.31 L64.0042 1053.19 L28.3562 1053.19 L28.3562 1047.31 L33.8944 1047.31 Q30.6479 1045.46 29.0883 1042.5 Q27.4968 1039.54 27.4968 1035.31 Q27.4968 1034.7 27.5923 1033.97 Q27.656 1033.24 27.8151 1032.35 L33.8307 1032.31 Z" fill="#000000" fill-rule="nonzero" fill-opacity="1" /><path clip-path="url(#clip490)" d="M42.4881 975.819 L64.0042 975.819 L64.0042 981.676 L42.679 981.676 Q37.6183 981.676 35.1038 983.649 Q32.5894 985.622 32.5894 989.569 Q32.5894 994.311 35.6131 997.049 Q38.6368 999.786 43.8567 999.786 L64.0042 999.786 L64.0042 1005.67 L28.3562 1005.67 L28.3562 999.786 L33.8944 999.786 Q30.6797 997.685 29.0883 994.853 Q27.4968 991.988 27.4968 988.264 Q27.4968 982.121 31.3163 978.97 Q35.1038 975.819 42.4881 975.819 Z" fill="#000000" fill-rule="nonzero" fill-opacity="1" /><path clip-path="url(#clip490)" d="M44.7161 933.646 L47.5806 933.646 L47.5806 960.573 Q53.6281 960.191 56.8109 956.945 Q59.9619 953.666 59.9619 947.842 Q59.9619 944.468 59.1344 941.317 Q58.3069 938.134 56.6518 935.015 L62.1899 935.015 Q63.5267 938.166 64.227 941.476 Q64.9272 944.786 64.9272 948.192 Q64.9272 956.722 59.9619 961.719 Q54.9967 966.684 46.5303 966.684 Q37.7774 966.684 32.6531 961.974 Q27.4968 957.231 27.4968 949.21 Q27.4968 942.017 32.1438 937.848 Q36.7589 933.646 44.7161 933.646 M42.9973 939.503 Q38.1912 939.566 35.3266 942.208 Q32.4621 944.818 32.4621 949.147 Q32.4621 954.048 35.2312 957.008 Q38.0002 959.937 43.0292 960.382 L42.9973 939.503 Z" fill="#000000" fill-rule="nonzero" fill-opacity="1" /><path clip-path="url(#clip490)" d="M49.9359 924.639 L28.3562 924.639 L28.3562 918.782 L49.7131 918.782 Q54.7739 918.782 57.3202 916.809 Q59.8346 914.836 59.8346 910.889 Q59.8346 906.146 56.8109 903.409 Q53.7872 900.64 48.5673 900.64 L28.3562 900.64 L28.3562 894.784 L64.0042 894.784 L64.0042 900.64 L58.5296 900.64 Q61.7762 902.773 63.3676 905.605 Q64.9272 908.406 64.9272 912.13 Q64.9272 918.273 61.1078 921.456 Q57.2883 924.639 49.9359 924.639 M27.4968 909.902 L27.4968 909.902 Z" fill="#000000" fill-rule="nonzero" fill-opacity="1" /><path clip-path="url(#clip490)" d="M18.2347 876.928 L28.3562 876.928 L28.3562 864.865 L32.9077 864.865 L32.9077 876.928 L52.2594 876.928 Q56.6199 876.928 57.8613 875.75 Q59.1026 874.541 59.1026 870.88 L59.1026 864.865 L64.0042 864.865 L64.0042 870.88 Q64.0042 877.66 61.4897 880.238 Q58.9434 882.816 52.2594 882.816 L32.9077 882.816 L32.9077 887.113 L28.3562 887.113 L28.3562 882.816 L18.2347 882.816 L18.2347 876.928 Z" fill="#000000" fill-rule="nonzero" fill-opacity="1" /><path clip-path="url(#clip490)" d="M33.8307 836.506 Q33.2578 837.492 33.0032 838.67 Q32.7167 839.816 32.7167 841.216 Q32.7167 846.181 35.9632 848.855 Q39.1779 851.497 45.2253 851.497 L64.0042 851.497 L64.0042 857.385 L28.3562 857.385 L28.3562 851.497 L33.8944 851.497 Q30.6479 849.651 29.0883 846.691 Q27.4968 843.731 27.4968 839.498 Q27.4968 838.893 27.5923 838.161 Q27.656 837.429 27.8151 836.537 L33.8307 836.506 Z" fill="#000000" fill-rule="nonzero" fill-opacity="1" /><path clip-path="url(#clip490)" d="M32.4621 817.981 Q32.4621 822.692 36.1542 825.429 Q39.8145 828.167 46.212 828.167 Q52.6095 828.167 56.3017 825.461 Q59.9619 822.724 59.9619 817.981 Q59.9619 813.303 56.2698 810.565 Q52.5777 807.828 46.212 807.828 Q39.8781 807.828 36.186 810.565 Q32.4621 813.303 32.4621 817.981 M27.4968 817.981 Q27.4968 810.343 32.4621 805.982 Q37.4273 801.622 46.212 801.622 Q54.9649 801.622 59.9619 805.982 Q64.9272 810.343 64.9272 817.981 Q64.9272 825.652 59.9619 830.013 Q54.9649 834.341 46.212 834.341 Q37.4273 834.341 32.4621 830.013 Q27.4968 825.652 27.4968 817.981 Z" fill="#000000" fill-rule="nonzero" fill-opacity="1" /><path clip-path="url(#clip490)" d="M42.4881 762.281 L64.0042 762.281 L64.0042 768.138 L42.679 768.138 Q37.6183 768.138 35.1038 770.111 Q32.5894 772.085 32.5894 776.031 Q32.5894 780.774 35.6131 783.511 Q38.6368 786.248 43.8567 786.248 L64.0042 786.248 L64.0042 792.137 L28.3562 792.137 L28.3562 786.248 L33.8944 786.248 Q30.6797 784.148 29.0883 781.315 Q27.4968 778.45 27.4968 774.726 Q27.4968 768.584 31.3163 765.433 Q35.1038 762.281 42.4881 762.281 Z" fill="#000000" fill-rule="nonzero" fill-opacity="1" /><path clip-path="url(#clip490)" d="M58.657 724.215 L77.5631 724.215 L77.5631 730.103 L28.3562 730.103 L28.3562 724.215 L33.7671 724.215 Q30.5842 722.369 29.0564 719.568 Q27.4968 716.735 27.4968 712.82 Q27.4968 706.327 32.6531 702.285 Q37.8093 698.211 46.212 698.211 Q54.6147 698.211 59.771 702.285 Q64.9272 706.327 64.9272 712.82 Q64.9272 716.735 63.3994 719.568 Q61.8398 722.369 58.657 724.215 M46.212 704.29 Q39.7508 704.29 36.0905 706.963 Q32.3984 709.605 32.3984 714.252 Q32.3984 718.899 36.0905 721.573 Q39.7508 724.215 46.212 724.215 Q52.6732 724.215 56.3653 721.573 Q60.0256 718.899 60.0256 714.252 Q60.0256 709.605 56.3653 706.963 Q52.6732 704.29 46.212 704.29 Z" fill="#000000" fill-rule="nonzero" fill-opacity="1" /><path clip-path="url(#clip490)" d="M44.7161 658.011 L47.5806 658.011 L47.5806 684.938 Q53.6281 684.556 56.8109 681.31 Q59.9619 678.031 59.9619 672.207 Q59.9619 668.833 59.1344 665.682 Q58.3069 662.499 56.6518 659.38 L62.1899 659.38 Q63.5267 662.531 64.227 665.841 Q64.9272 669.151 64.9272 672.557 Q64.9272 681.087 59.9619 686.084 Q54.9967 691.049 46.5303 691.049 Q37.7774 691.049 32.6531 686.339 Q27.4968 681.596 27.4968 673.575 Q27.4968 666.382 32.1438 662.213 Q36.7589 658.011 44.7161 658.011 M42.9973 663.868 Q38.1912 663.931 35.3266 666.573 Q32.4621 669.183 32.4621 673.512 Q32.4621 678.413 35.2312 681.373 Q38.0002 684.302 43.0292 684.747 L42.9973 663.868 Z" fill="#000000" fill-rule="nonzero" fill-opacity="1" /><path clip-path="url(#clip490)" d="M33.8307 627.742 Q33.2578 628.729 33.0032 629.907 Q32.7167 631.052 32.7167 632.453 Q32.7167 637.418 35.9632 640.092 Q39.1779 642.734 45.2253 642.734 L64.0042 642.734 L64.0042 648.622 L28.3562 648.622 L28.3562 642.734 L33.8944 642.734 Q30.6479 640.887 29.0883 637.927 Q27.4968 634.967 27.4968 630.734 Q27.4968 630.129 27.5923 629.397 Q27.656 628.665 27.8151 627.774 L33.8307 627.742 Z" fill="#000000" fill-rule="nonzero" fill-opacity="1" /><path clip-path="url(#clip490)" d="M29.4065 578.153 L34.9447 578.153 Q33.6716 580.636 33.035 583.31 Q32.3984 585.983 32.3984 588.848 Q32.3984 593.208 33.7352 595.404 Q35.072 597.569 37.7456 597.569 Q39.7826 597.569 40.9603 596.009 Q42.1061 594.45 43.1565 589.739 L43.6021 587.734 Q44.9389 581.495 47.3897 578.885 Q49.8086 576.244 54.1691 576.244 Q59.1344 576.244 62.0308 580.19 Q64.9272 584.105 64.9272 590.98 Q64.9272 593.845 64.3543 596.964 Q63.8132 600.051 62.6992 603.489 L56.6518 603.489 Q58.3387 600.242 59.198 597.091 Q60.0256 593.94 60.0256 590.853 Q60.0256 586.715 58.6251 584.487 Q57.1929 582.259 54.6147 582.259 Q52.2276 582.259 50.9545 583.883 Q49.6813 585.474 48.5037 590.917 L48.0262 592.954 Q46.8804 598.396 44.5251 600.815 Q42.138 603.234 38.0002 603.234 Q32.9713 603.234 30.2341 599.67 Q27.4968 596.105 27.4968 589.548 Q27.4968 586.302 27.9743 583.437 Q28.4517 580.572 29.4065 578.153 Z" fill="#000000" fill-rule="nonzero" fill-opacity="1" /><path clip-path="url(#clip490)" d="M29.7248 541.264 L35.1993 541.264 Q33.8307 543.747 33.1623 546.261 Q32.4621 548.744 32.4621 551.29 Q32.4621 556.987 36.0905 560.138 Q39.6872 563.289 46.212 563.289 Q52.7369 563.289 56.3653 560.138 Q59.9619 556.987 59.9619 551.29 Q59.9619 548.744 59.2935 546.261 Q58.5933 543.747 57.2247 541.264 L62.6355 541.264 Q63.7814 543.715 64.3543 546.357 Q64.9272 548.967 64.9272 551.927 Q64.9272 559.979 59.8664 564.722 Q54.8057 569.464 46.212 569.464 Q37.491 569.464 32.4939 564.69 Q27.4968 559.884 27.4968 551.545 Q27.4968 548.839 28.0697 546.261 Q28.6108 543.683 29.7248 541.264 Z" fill="#000000" fill-rule="nonzero" fill-opacity="1" /><path clip-path="url(#clip490)" d="M28.3562 531.079 L28.3562 525.223 L64.0042 525.223 L64.0042 531.079 L28.3562 531.079 M14.479 531.079 L14.479 525.223 L21.895 525.223 L21.895 531.079 L14.479 531.079 Z" fill="#000000" fill-rule="nonzero" fill-opacity="1" /><path clip-path="url(#clip490)" d="M42.4881 483.336 L64.0042 483.336 L64.0042 489.193 L42.679 489.193 Q37.6183 489.193 35.1038 491.166 Q32.5894 493.139 32.5894 497.086 Q32.5894 501.829 35.6131 504.566 Q38.6368 507.303 43.8567 507.303 L64.0042 507.303 L64.0042 513.191 L28.3562 513.191 L28.3562 507.303 L33.8944 507.303 Q30.6797 505.202 29.0883 502.37 Q27.4968 499.505 27.4968 495.781 Q27.4968 489.638 31.3163 486.487 Q35.1038 483.336 42.4881 483.336 Z" fill="#000000" fill-rule="nonzero" fill-opacity="1" /><path clip-path="url(#clip490)" d="M18.2347 465.862 L28.3562 465.862 L28.3562 453.799 L32.9077 453.799 L32.9077 465.862 L52.2594 465.862 Q56.6199 465.862 57.8613 464.685 Q59.1026 463.475 59.1026 459.815 L59.1026 453.799 L64.0042 453.799 L64.0042 459.815 Q64.0042 466.594 61.4897 469.173 Q58.9434 471.751 52.2594 471.751 L32.9077 471.751 L32.9077 476.047 L28.3562 476.047 L28.3562 471.751 L18.2347 471.751 L18.2347 465.862 Z" fill="#000000" fill-rule="nonzero" fill-opacity="1" /><path clip-path="url(#clip490)" d="M28.3562 446.097 L28.3562 440.24 L64.0042 440.24 L64.0042 446.097 L28.3562 446.097 M14.479 446.097 L14.479 440.24 L21.895 440.24 L21.895 446.097 L14.479 446.097 Z" fill="#000000" fill-rule="nonzero" fill-opacity="1" /><path clip-path="url(#clip490)" d="M14.479 427.986 L14.479 422.13 L64.0042 422.13 L64.0042 427.986 L14.479 427.986 Z" fill="#000000" fill-rule="nonzero" fill-opacity="1" /><path clip-path="url(#clip490)" d="M14.479 409.876 L14.479 404.02 L64.0042 404.02 L64.0042 409.876 L14.479 409.876 Z" fill="#000000" fill-rule="nonzero" fill-opacity="1" /><path clip-path="url(#clip490)" d="M46.0847 375.565 Q46.0847 382.663 47.7079 385.4 Q49.3312 388.137 53.2461 388.137 Q56.3653 388.137 58.2114 386.1 Q60.0256 384.031 60.0256 380.498 Q60.0256 375.628 56.5881 372.7 Q53.1188 369.74 47.3897 369.74 L46.0847 369.74 L46.0847 375.565 M43.6657 363.884 L64.0042 363.884 L64.0042 369.74 L58.5933 369.74 Q61.8398 371.745 63.3994 374.737 Q64.9272 377.729 64.9272 382.058 Q64.9272 387.532 61.8716 390.779 Q58.7843 393.994 53.6281 393.994 Q47.6125 393.994 44.5569 389.983 Q41.5014 385.941 41.5014 377.952 L41.5014 369.74 L40.9285 369.74 Q36.8862 369.74 34.6901 372.414 Q32.4621 375.056 32.4621 379.862 Q32.4621 382.917 33.1941 385.814 Q33.9262 388.71 35.3903 391.384 L29.9795 391.384 Q28.7381 388.169 28.1334 385.145 Q27.4968 382.121 27.4968 379.257 Q27.4968 371.523 31.5072 367.703 Q35.5176 363.884 43.6657 363.884 Z" fill="#000000" fill-rule="nonzero" fill-opacity="1" /><path clip-path="url(#clip490)" d="M18.2347 346.028 L28.3562 346.028 L28.3562 333.965 L32.9077 333.965 L32.9077 346.028 L52.2594 346.028 Q56.6199 346.028 57.8613 344.85 Q59.1026 343.641 59.1026 339.981 L59.1026 333.965 L64.0042 333.965 L64.0042 339.981 Q64.0042 346.76 61.4897 349.338 Q58.9434 351.916 52.2594 351.916 L32.9077 351.916 L32.9077 356.213 L28.3562 356.213 L28.3562 351.916 L18.2347 351.916 L18.2347 346.028 Z" fill="#000000" fill-rule="nonzero" fill-opacity="1" /><path clip-path="url(#clip490)" d="M32.4621 312.449 Q32.4621 317.159 36.1542 319.897 Q39.8145 322.634 46.212 322.634 Q52.6095 322.634 56.3017 319.929 Q59.9619 317.191 59.9619 312.449 Q59.9619 307.77 56.2698 305.033 Q52.5777 302.296 46.212 302.296 Q39.8781 302.296 36.186 305.033 Q32.4621 307.77 32.4621 312.449 M27.4968 312.449 Q27.4968 304.81 32.4621 300.449 Q37.4273 296.089 46.212 296.089 Q54.9649 296.089 59.9619 300.449 Q64.9272 304.81 64.9272 312.449 Q64.9272 320.12 59.9619 324.48 Q54.9649 328.809 46.212 328.809 Q37.4273 328.809 32.4621 324.48 Q27.4968 320.12 27.4968 312.449 Z" fill="#000000" fill-rule="nonzero" fill-opacity="1" /><path clip-path="url(#clip490)" d="M33.8307 265.725 Q33.2578 266.711 33.0032 267.889 Q32.7167 269.035 32.7167 270.435 Q32.7167 275.4 35.9632 278.074 Q39.1779 280.716 45.2253 280.716 L64.0042 280.716 L64.0042 286.604 L28.3562 286.604 L28.3562 280.716 L33.8944 280.716 Q30.6479 278.87 29.0883 275.91 Q27.4968 272.95 27.4968 268.716 Q27.4968 268.112 27.5923 267.38 Q27.656 266.648 27.8151 265.756 L33.8307 265.725 Z" fill="#000000" fill-rule="nonzero" fill-opacity="1" /><path clip-path="url(#clip490)" d="M58.657 233.196 L77.5631 233.196 L77.5631 239.084 L28.3562 239.084 L28.3562 233.196 L33.7671 233.196 Q30.5842 231.35 29.0564 228.549 Q27.4968 225.716 27.4968 221.801 Q27.4968 215.308 32.6531 211.266 Q37.8093 207.192 46.212 207.192 Q54.6147 207.192 59.771 211.266 Q64.9272 215.308 64.9272 221.801 Q64.9272 225.716 63.3994 228.549 Q61.8398 231.35 58.657 233.196 M46.212 213.271 Q39.7508 213.271 36.0905 215.945 Q32.3984 218.586 32.3984 223.233 Q32.3984 227.88 36.0905 230.554 Q39.7508 233.196 46.212 233.196 Q52.6732 233.196 56.3653 230.554 Q60.0256 227.88 60.0256 223.233 Q60.0256 218.586 56.3653 215.945 Q52.6732 213.271 46.212 213.271 Z" fill="#000000" fill-rule="nonzero" fill-opacity="1" /><path clip-path="url(#clip490)" d="M46.0847 181.283 Q46.0847 188.381 47.7079 191.118 Q49.3312 193.856 53.2461 193.856 Q56.3653 193.856 58.2114 191.819 Q60.0256 189.75 60.0256 186.217 Q60.0256 181.347 56.5881 178.419 Q53.1188 175.459 47.3897 175.459 L46.0847 175.459 L46.0847 181.283 M43.6657 169.602 L64.0042 169.602 L64.0042 175.459 L58.5933 175.459 Q61.8398 177.464 63.3994 180.456 Q64.9272 183.448 64.9272 187.776 Q64.9272 193.251 61.8716 196.497 Q58.7843 199.712 53.6281 199.712 Q47.6125 199.712 44.5569 195.702 Q41.5014 191.66 41.5014 183.671 L41.5014 175.459 L40.9285 175.459 Q36.8862 175.459 34.6901 178.132 Q32.4621 180.774 32.4621 185.58 Q32.4621 188.636 33.1941 191.532 Q33.9262 194.429 35.3903 197.102 L29.9795 197.102 Q28.7381 193.888 28.1334 190.864 Q27.4968 187.84 27.4968 184.976 Q27.4968 177.241 31.5072 173.422 Q35.5176 169.602 43.6657 169.602 Z" fill="#000000" fill-rule="nonzero" fill-opacity="1" /><path clip-path="url(#clip490)" d="M28.3562 157.539 L28.3562 151.683 L64.0042 151.683 L64.0042 157.539 L28.3562 157.539 M14.479 157.539 L14.479 151.683 L21.895 151.683 L21.895 157.539 L14.479 157.539 Z" fill="#000000" fill-rule="nonzero" fill-opacity="1" /><path clip-path="url(#clip490)" d="M33.8307 118.772 Q33.2578 119.759 33.0032 120.937 Q32.7167 122.082 32.7167 123.483 Q32.7167 128.448 35.9632 131.122 Q39.1779 133.763 45.2253 133.763 L64.0042 133.763 L64.0042 139.652 L28.3562 139.652 L28.3562 133.763 L33.8944 133.763 Q30.6479 131.917 29.0883 128.957 Q27.4968 125.997 27.4968 121.764 Q27.4968 121.159 27.5923 120.427 Q27.656 119.695 27.8151 118.804 L33.8307 118.772 Z" fill="#000000" fill-rule="nonzero" fill-opacity="1" /><path clip-path="url(#clip490)" d="M837.558 12.096 L875.798 12.096 L875.798 18.9825 L845.741 18.9825 L845.741 36.8875 L874.542 36.8875 L874.542 43.7741 L845.741 43.7741 L845.741 65.6895 L876.527 65.6895 L876.527 72.576 L837.558 72.576 L837.558 12.096 Z" fill="#000000" fill-rule="nonzero" fill-opacity="1" /><path clip-path="url(#clip490)" d="M912.621 9.54393 L912.621 15.7418 L905.491 15.7418 Q901.481 15.7418 899.901 17.3622 Q898.362 18.9825 898.362 23.1955 L898.362 27.2059 L910.636 27.2059 L910.636 32.9987 L898.362 32.9987 L898.362 72.576 L890.868 72.576 L890.868 32.9987 L883.738 32.9987 L883.738 27.2059 L890.868 27.2059 L890.868 24.0462 Q890.868 16.471 894.392 13.0277 Q897.916 9.54393 905.572 9.54393 L912.621 9.54393 Z" fill="#000000" fill-rule="nonzero" fill-opacity="1" /><path clip-path="url(#clip490)" d="M941.828 9.54393 L941.828 15.7418 L934.698 15.7418 Q930.688 15.7418 929.108 17.3622 Q927.569 18.9825 927.569 23.1955 L927.569 27.2059 L939.843 27.2059 L939.843 32.9987 L927.569 32.9987 L927.569 72.576 L920.075 72.576 L920.075 32.9987 L912.945 32.9987 L912.945 27.2059 L920.075 27.2059 L920.075 24.0462 Q920.075 16.471 923.599 13.0277 Q927.123 9.54393 934.779 9.54393 L941.828 9.54393 Z" fill="#000000" fill-rule="nonzero" fill-opacity="1" /><path clip-path="url(#clip490)" d="M948.066 27.2059 L955.52 27.2059 L955.52 72.576 L948.066 72.576 L948.066 27.2059 M948.066 9.54393 L955.52 9.54393 L955.52 18.9825 L948.066 18.9825 L948.066 9.54393 Z" fill="#000000" fill-rule="nonzero" fill-opacity="1" /><path clip-path="url(#clip490)" d="M1003.77 28.9478 L1003.77 35.9153 Q1000.61 34.1734 997.406 33.3227 Q994.247 32.4315 991.006 32.4315 Q983.755 32.4315 979.744 37.0496 Q975.734 41.6271 975.734 49.9314 Q975.734 58.2358 979.744 62.8538 Q983.755 67.4314 991.006 67.4314 Q994.247 67.4314 997.406 66.5807 Q1000.61 65.6895 1003.77 63.9476 L1003.77 70.8341 Q1000.65 72.2924 997.285 73.0216 Q993.963 73.7508 990.196 73.7508 Q979.947 73.7508 973.911 67.3098 Q967.875 60.8689 967.875 49.9314 Q967.875 38.832 973.952 32.472 Q980.069 26.1121 990.682 26.1121 Q994.125 26.1121 997.406 26.8413 Q1000.69 27.5299 1003.77 28.9478 Z" fill="#000000" fill-rule="nonzero" fill-opacity="1" /><path clip-path="url(#clip490)" d="M1016.73 27.2059 L1024.18 27.2059 L1024.18 72.576 L1016.73 72.576 L1016.73 27.2059 M1016.73 9.54393 L1024.18 9.54393 L1024.18 18.9825 L1016.73 18.9825 L1016.73 9.54393 Z" fill="#000000" fill-rule="nonzero" fill-opacity="1" /><path clip-path="url(#clip490)" d="M1078.59 48.0275 L1078.59 51.6733 L1044.32 51.6733 Q1044.8 59.3701 1048.93 63.421 Q1053.11 67.4314 1060.52 67.4314 Q1064.81 67.4314 1068.82 66.3781 Q1072.87 65.3249 1076.84 63.2184 L1076.84 70.267 Q1072.83 71.9684 1068.62 72.8596 Q1064.41 73.7508 1060.07 73.7508 Q1049.22 73.7508 1042.86 67.4314 Q1036.54 61.1119 1036.54 50.3365 Q1036.54 39.1965 1042.53 32.6746 Q1048.57 26.1121 1058.78 26.1121 Q1067.93 26.1121 1073.24 32.0264 Q1078.59 37.9003 1078.59 48.0275 M1071.13 45.84 Q1071.05 39.7232 1067.69 36.0774 Q1064.37 32.4315 1058.86 32.4315 Q1052.62 32.4315 1048.85 35.9558 Q1045.13 39.4801 1044.56 45.8805 L1071.13 45.84 Z" fill="#000000" fill-rule="nonzero" fill-opacity="1" /><path clip-path="url(#clip490)" d="M1128.53 45.1919 L1128.53 72.576 L1121.08 72.576 L1121.08 45.4349 Q1121.08 38.994 1118.57 35.7938 Q1116.06 32.5936 1111.03 32.5936 Q1105 32.5936 1101.51 36.4419 Q1098.03 40.2903 1098.03 46.9338 L1098.03 72.576 L1090.54 72.576 L1090.54 27.2059 L1098.03 27.2059 L1098.03 34.2544 Q1100.7 30.163 1104.31 28.1376 Q1107.96 26.1121 1112.7 26.1121 Q1120.51 26.1121 1124.52 30.9732 Q1128.53 35.7938 1128.53 45.1919 Z" fill="#000000" fill-rule="nonzero" fill-opacity="1" /><path clip-path="url(#clip490)" d="M1176.05 28.9478 L1176.05 35.9153 Q1172.89 34.1734 1169.69 33.3227 Q1166.53 32.4315 1163.29 32.4315 Q1156.04 32.4315 1152.03 37.0496 Q1148.02 41.6271 1148.02 49.9314 Q1148.02 58.2358 1152.03 62.8538 Q1156.04 67.4314 1163.29 67.4314 Q1166.53 67.4314 1169.69 66.5807 Q1172.89 65.6895 1176.05 63.9476 L1176.05 70.8341 Q1172.93 72.2924 1169.57 73.0216 Q1166.25 73.7508 1162.48 73.7508 Q1152.23 73.7508 1146.2 67.3098 Q1140.16 60.8689 1140.16 49.9314 Q1140.16 38.832 1146.24 32.472 Q1152.35 26.1121 1162.97 26.1121 Q1166.41 26.1121 1169.69 26.8413 Q1172.97 27.5299 1176.05 28.9478 Z" fill="#000000" fill-rule="nonzero" fill-opacity="1" /><path clip-path="url(#clip490)" d="M1207.89 76.7889 Q1204.73 84.8907 1201.73 87.3618 Q1198.74 89.8329 1193.71 89.8329 L1187.76 89.8329 L1187.76 83.5945 L1192.13 83.5945 Q1195.21 83.5945 1196.91 82.1361 Q1198.61 80.6778 1200.68 75.2496 L1202.02 71.8468 L1183.67 27.2059 L1191.57 27.2059 L1205.74 62.6918 L1219.92 27.2059 L1227.82 27.2059 L1207.89 76.7889 Z" fill="#000000" fill-rule="nonzero" fill-opacity="1" /><path clip-path="url(#clip490)" d="M1271.69 65.7705 L1271.69 89.8329 L1264.2 89.8329 L1264.2 27.2059 L1271.69 27.2059 L1271.69 34.0924 Q1274.04 30.0415 1277.61 28.0971 Q1281.21 26.1121 1286.2 26.1121 Q1294.46 26.1121 1299.6 32.6746 Q1304.79 39.2371 1304.79 49.9314 Q1304.79 60.6258 1299.6 67.1883 Q1294.46 73.7508 1286.2 73.7508 Q1281.21 73.7508 1277.61 71.8063 Q1274.04 69.8214 1271.69 65.7705 M1297.05 49.9314 Q1297.05 41.7081 1293.65 37.0496 Q1290.29 32.3505 1284.37 32.3505 Q1278.46 32.3505 1275.06 37.0496 Q1271.69 41.7081 1271.69 49.9314 Q1271.69 58.1548 1275.06 62.8538 Q1278.46 67.5124 1284.37 67.5124 Q1290.29 67.5124 1293.65 62.8538 Q1297.05 58.1548 1297.05 49.9314 Z" fill="#000000" fill-rule="nonzero" fill-opacity="1" /><path clip-path="url(#clip490)" d="M1355.95 48.0275 L1355.95 51.6733 L1321.68 51.6733 Q1322.17 59.3701 1326.3 63.421 Q1330.47 67.4314 1337.88 67.4314 Q1342.18 67.4314 1346.19 66.3781 Q1350.24 65.3249 1354.21 63.2184 L1354.21 70.267 Q1350.2 71.9684 1345.99 72.8596 Q1341.77 73.7508 1337.44 73.7508 Q1326.58 73.7508 1320.22 67.4314 Q1313.9 61.1119 1313.9 50.3365 Q1313.9 39.1965 1319.9 32.6746 Q1325.93 26.1121 1336.14 26.1121 Q1345.3 26.1121 1350.6 32.0264 Q1355.95 37.9003 1355.95 48.0275 M1348.5 45.84 Q1348.42 39.7232 1345.05 36.0774 Q1341.73 32.4315 1336.22 32.4315 Q1329.99 32.4315 1326.22 35.9558 Q1322.49 39.4801 1321.92 45.8805 L1348.5 45.84 Z" fill="#000000" fill-rule="nonzero" fill-opacity="1" /><path clip-path="url(#clip490)" d="M1394.48 34.1734 Q1393.22 33.4443 1391.72 33.1202 Q1390.26 32.7556 1388.48 32.7556 Q1382.16 32.7556 1378.76 36.8875 Q1375.4 40.9789 1375.4 48.6757 L1375.4 72.576 L1367.9 72.576 L1367.9 27.2059 L1375.4 27.2059 L1375.4 34.2544 Q1377.75 30.1225 1381.51 28.1376 Q1385.28 26.1121 1390.67 26.1121 Q1391.44 26.1121 1392.37 26.2337 Q1393.3 26.3147 1394.44 26.5172 L1394.48 34.1734 Z" fill="#000000" fill-rule="nonzero" fill-opacity="1" /><path clip-path="url(#clip490)" d="M1457.59 28.5427 L1457.59 35.5912 Q1454.43 33.9709 1451.03 33.1607 Q1447.62 32.3505 1443.98 32.3505 Q1438.43 32.3505 1435.63 34.0519 Q1432.88 35.7533 1432.88 39.156 Q1432.88 41.7486 1434.86 43.2475 Q1436.85 44.7058 1442.84 46.0426 L1445.4 46.6097 Q1453.34 48.3111 1456.66 51.4303 Q1460.02 54.509 1460.02 60.0587 Q1460.02 66.3781 1455 70.0644 Q1450.01 73.7508 1441.26 73.7508 Q1437.62 73.7508 1433.65 73.0216 Q1429.72 72.3329 1425.34 70.9151 L1425.34 63.2184 Q1429.48 65.3654 1433.49 66.4591 Q1437.5 67.5124 1441.43 67.5124 Q1446.69 67.5124 1449.53 65.73 Q1452.36 63.9071 1452.36 60.6258 Q1452.36 57.5877 1450.3 55.9673 Q1448.27 54.3469 1441.34 52.8481 L1438.75 52.2405 Q1431.83 50.7821 1428.75 47.7845 Q1425.67 44.7463 1425.67 39.4801 Q1425.67 33.0797 1430.2 29.5959 Q1434.74 26.1121 1443.09 26.1121 Q1447.22 26.1121 1450.86 26.7198 Q1454.51 27.3274 1457.59 28.5427 Z" fill="#000000" fill-rule="nonzero" fill-opacity="1" /><path clip-path="url(#clip490)" d="M1504.54 28.9478 L1504.54 35.9153 Q1501.38 34.1734 1498.18 33.3227 Q1495.02 32.4315 1491.78 32.4315 Q1484.53 32.4315 1480.52 37.0496 Q1476.51 41.6271 1476.51 49.9314 Q1476.51 58.2358 1480.52 62.8538 Q1484.53 67.4314 1491.78 67.4314 Q1495.02 67.4314 1498.18 66.5807 Q1501.38 65.6895 1504.54 63.9476 L1504.54 70.8341 Q1501.42 72.2924 1498.06 73.0216 Q1494.74 73.7508 1490.97 73.7508 Q1480.72 73.7508 1474.68 67.3098 Q1468.65 60.8689 1468.65 49.9314 Q1468.65 38.832 1474.72 32.472 Q1480.84 26.1121 1491.45 26.1121 Q1494.9 26.1121 1498.18 26.8413 Q1501.46 27.5299 1504.54 28.9478 Z" fill="#000000" fill-rule="nonzero" fill-opacity="1" /><path clip-path="url(#clip490)" d="M1517.5 27.2059 L1524.96 27.2059 L1524.96 72.576 L1517.5 72.576 L1517.5 27.2059 M1517.5 9.54393 L1524.96 9.54393 L1524.96 18.9825 L1517.5 18.9825 L1517.5 9.54393 Z" fill="#000000" fill-rule="nonzero" fill-opacity="1" /><path clip-path="url(#clip490)" d="M1578.27 45.1919 L1578.27 72.576 L1570.81 72.576 L1570.81 45.4349 Q1570.81 38.994 1568.3 35.7938 Q1565.79 32.5936 1560.77 32.5936 Q1554.73 32.5936 1551.25 36.4419 Q1547.76 40.2903 1547.76 46.9338 L1547.76 72.576 L1540.27 72.576 L1540.27 27.2059 L1547.76 27.2059 L1547.76 34.2544 Q1550.44 30.163 1554.04 28.1376 Q1557.69 26.1121 1562.43 26.1121 Q1570.24 26.1121 1574.26 30.9732 Q1578.27 35.7938 1578.27 45.1919 Z" fill="#000000" fill-rule="nonzero" fill-opacity="1" /><path clip-path="url(#clip490)" d="M1600.51 14.324 L1600.51 27.2059 L1615.86 27.2059 L1615.86 32.9987 L1600.51 32.9987 L1600.51 57.6282 Q1600.51 63.1779 1602 64.7578 Q1603.54 66.3376 1608.2 66.3376 L1615.86 66.3376 L1615.86 72.576 L1608.2 72.576 Q1599.57 72.576 1596.29 69.3758 Q1593.01 66.1351 1593.01 57.6282 L1593.01 32.9987 L1587.54 32.9987 L1587.54 27.2059 L1593.01 27.2059 L1593.01 14.324 L1600.51 14.324 Z" fill="#000000" fill-rule="nonzero" fill-opacity="1" /><path clip-path="url(#clip490)" d="M1625.66 27.2059 L1633.11 27.2059 L1633.11 72.576 L1625.66 72.576 L1625.66 27.2059 M1625.66 9.54393 L1633.11 9.54393 L1633.11 18.9825 L1625.66 18.9825 L1625.66 9.54393 Z" fill="#000000" fill-rule="nonzero" fill-opacity="1" /><path clip-path="url(#clip490)" d="M1648.71 9.54393 L1656.16 9.54393 L1656.16 72.576 L1648.71 72.576 L1648.71 9.54393 Z" fill="#000000" fill-rule="nonzero" fill-opacity="1" /><path clip-path="url(#clip490)" d="M1671.76 9.54393 L1679.21 9.54393 L1679.21 72.576 L1671.76 72.576 L1671.76 9.54393 Z" fill="#000000" fill-rule="nonzero" fill-opacity="1" /><path clip-path="url(#clip490)" d="M1715.43 49.7694 Q1706.4 49.7694 1702.91 51.8354 Q1699.43 53.9013 1699.43 58.8839 Q1699.43 62.8538 1702.02 65.2034 Q1704.65 67.5124 1709.15 67.5124 Q1715.35 67.5124 1719.07 63.1374 Q1722.84 58.7219 1722.84 51.4303 L1722.84 49.7694 L1715.43 49.7694 M1730.3 46.6907 L1730.3 72.576 L1722.84 72.576 L1722.84 65.6895 Q1720.29 69.8214 1716.48 71.8063 Q1712.67 73.7508 1707.17 73.7508 Q1700.2 73.7508 1696.07 69.8619 Q1691.97 65.9325 1691.97 59.3701 Q1691.97 51.7138 1697.08 47.825 Q1702.22 43.9361 1712.39 43.9361 L1722.84 43.9361 L1722.84 43.2069 Q1722.84 38.0623 1719.44 35.2672 Q1716.08 32.4315 1709.96 32.4315 Q1706.07 32.4315 1702.39 33.3632 Q1698.7 34.295 1695.3 36.1584 L1695.3 29.2718 Q1699.39 27.692 1703.24 26.9223 Q1707.08 26.1121 1710.73 26.1121 Q1720.57 26.1121 1725.43 31.2163 Q1730.3 36.3204 1730.3 46.6907 Z" fill="#000000" fill-rule="nonzero" fill-opacity="1" /><path clip-path="url(#clip490)" d="M1753.02 14.324 L1753.02 27.2059 L1768.37 27.2059 L1768.37 32.9987 L1753.02 32.9987 L1753.02 57.6282 Q1753.02 63.1779 1754.52 64.7578 Q1756.06 66.3376 1760.72 66.3376 L1768.37 66.3376 L1768.37 72.576 L1760.72 72.576 Q1752.09 72.576 1748.81 69.3758 Q1745.53 66.1351 1745.53 57.6282 L1745.53 32.9987 L1740.06 32.9987 L1740.06 27.2059 L1745.53 27.2059 L1745.53 14.324 L1753.02 14.324 Z" fill="#000000" fill-rule="nonzero" fill-opacity="1" /><path clip-path="url(#clip490)" d="M1795.76 32.4315 Q1789.76 32.4315 1786.28 37.1306 Q1782.8 41.7891 1782.8 49.9314 Q1782.8 58.0738 1786.24 62.7728 Q1789.72 67.4314 1795.76 67.4314 Q1801.71 67.4314 1805.2 62.7323 Q1808.68 58.0333 1808.68 49.9314 Q1808.68 41.8701 1805.2 37.1711 Q1801.71 32.4315 1795.76 32.4315 M1795.76 26.1121 Q1805.48 26.1121 1811.03 32.4315 Q1816.58 38.7509 1816.58 49.9314 Q1816.58 61.0714 1811.03 67.4314 Q1805.48 73.7508 1795.76 73.7508 Q1786 73.7508 1780.45 67.4314 Q1774.94 61.0714 1774.94 49.9314 Q1774.94 38.7509 1780.45 32.4315 Q1786 26.1121 1795.76 26.1121 Z" fill="#000000" fill-rule="nonzero" fill-opacity="1" /><path clip-path="url(#clip490)" d="M1855.23 34.1734 Q1853.97 33.4443 1852.47 33.1202 Q1851.01 32.7556 1849.23 32.7556 Q1842.91 32.7556 1839.51 36.8875 Q1836.15 40.9789 1836.15 48.6757 L1836.15 72.576 L1828.65 72.576 L1828.65 27.2059 L1836.15 27.2059 L1836.15 34.2544 Q1838.5 30.1225 1842.26 28.1376 Q1846.03 26.1121 1851.42 26.1121 Q1852.19 26.1121 1853.12 26.2337 Q1854.05 26.3147 1855.19 26.5172 L1855.23 34.1734 Z" fill="#000000" fill-rule="nonzero" fill-opacity="1" /><polyline clip-path="url(#clip492)" style="stroke:#009af9; stroke-linecap:round; stroke-linejoin:round; stroke-width:4; stroke-opacity:1; fill:none" points="396.992,1386.4 1346.39,1386.4 2295.79,160.256 "/>
<path clip-path="url(#clip490)" d="M407.119 270.476 L660.822 270.476 L660.822 166.796 L407.119 166.796  Z" fill="#ffffff" fill-rule="evenodd" fill-opacity="1"/>
<polyline clip-path="url(#clip490)" style="stroke:#000000; stroke-linecap:round; stroke-linejoin:round; stroke-width:4; stroke-opacity:1; fill:none" points="407.119,270.476 660.822,270.476 660.822,166.796 407.119,166.796 407.119,270.476 "/>
<polyline clip-path="url(#clip490)" style="stroke:#009af9; stroke-linecap:round; stroke-linejoin:round; stroke-width:4; stroke-opacity:1; fill:none" points="429.482,218.636 563.664,218.636 "/>
<path clip-path="url(#clip490)" d="M599.87 238.323 Q598.065 242.953 596.352 244.365 Q594.639 245.777 591.768 245.777 L588.366 245.777 L588.366 242.212 L590.866 242.212 Q592.625 242.212 593.597 241.379 Q594.569 240.545 595.75 237.443 L596.514 235.499 L586.028 209.99 L590.542 209.99 L598.643 230.268 L606.745 209.99 L611.259 209.99 L599.87 238.323 Z" fill="#000000" fill-rule="nonzero" fill-opacity="1" /><path clip-path="url(#clip490)" d="M618.551 231.981 L626.19 231.981 L626.19 205.615 L617.879 207.282 L617.879 203.022 L626.143 201.356 L630.819 201.356 L630.819 231.981 L638.458 231.981 L638.458 235.916 L618.551 235.916 L618.551 231.981 Z" fill="#000000" fill-rule="nonzero" fill-opacity="1" /></svg>
