<?xml version="1.0" encoding="utf-8"?>
<svg xmlns="http://www.w3.org/2000/svg" xmlns:xlink="http://www.w3.org/1999/xlink" width="600" height="400" viewBox="0 0 2400 1600">
<defs>
  <clipPath id="clip050">
    <rect x="0" y="0" width="2400" height="1600"/>
  </clipPath>
</defs>
<path clip-path="url(#clip050)" d="M0 1600 L2400 1600 L2400 0 L0 0  Z" fill="#ffffff" fill-rule="evenodd" fill-opacity="1"/>
<defs>
  <clipPath id="clip051">
    <rect x="480" y="0" width="1681" height="1600"/>
  </clipPath>
</defs>
<path clip-path="url(#clip050)" d="M280.19 1423.18 L2352.76 1423.18 L2352.76 123.472 L280.19 123.472  Z" fill="#ffffff" fill-rule="evenodd" fill-opacity="1"/>
<defs>
  <clipPath id="clip052">
    <rect x="280" y="123" width="2074" height="1301"/>
  </clipPath>
</defs>
<polyline clip-path="url(#clip052)" style="stroke:#000000; stroke-linecap:round; stroke-linejoin:round; stroke-width:2; stroke-opacity:0.1; fill:none" points="556.098,1423.18 556.098,123.472 "/>
<polyline clip-path="url(#clip052)" style="stroke:#000000; stroke-linecap:round; stroke-linejoin:round; stroke-width:2; stroke-opacity:0.1; fill:none" points="990.598,1423.18 990.598,123.472 "/>
<polyline clip-path="url(#clip052)" style="stroke:#000000; stroke-linecap:round; stroke-linejoin:round; stroke-width:2; stroke-opacity:0.1; fill:none" points="1425.1,1423.18 1425.1,123.472 "/>
<polyline clip-path="url(#clip052)" style="stroke:#000000; stroke-linecap:round; stroke-linejoin:round; stroke-width:2; stroke-opacity:0.1; fill:none" points="1859.6,1423.18 1859.6,123.472 "/>
<polyline clip-path="url(#clip052)" style="stroke:#000000; stroke-linecap:round; stroke-linejoin:round; stroke-width:2; stroke-opacity:0.1; fill:none" points="2294.1,1423.18 2294.1,123.472 "/>
<polyline clip-path="url(#clip052)" style="stroke:#000000; stroke-linecap:round; stroke-linejoin:round; stroke-width:2; stroke-opacity:0.1; fill:none" points="280.19,1285.64 2352.76,1285.64 "/>
<polyline clip-path="url(#clip052)" style="stroke:#000000; stroke-linecap:round; stroke-linejoin:round; stroke-width:2; stroke-opacity:0.1; fill:none" points="280.19,1081.28 2352.76,1081.28 "/>
<polyline clip-path="url(#clip052)" style="stroke:#000000; stroke-linecap:round; stroke-linejoin:round; stroke-width:2; stroke-opacity:0.1; fill:none" points="280.19,876.909 2352.76,876.909 "/>
<polyline clip-path="url(#clip052)" style="stroke:#000000; stroke-linecap:round; stroke-linejoin:round; stroke-width:2; stroke-opacity:0.1; fill:none" points="280.19,672.543 2352.76,672.543 "/>
<polyline clip-path="url(#clip052)" style="stroke:#000000; stroke-linecap:round; stroke-linejoin:round; stroke-width:2; stroke-opacity:0.1; fill:none" points="280.19,468.176 2352.76,468.176 "/>
<polyline clip-path="url(#clip052)" style="stroke:#000000; stroke-linecap:round; stroke-linejoin:round; stroke-width:2; stroke-opacity:0.1; fill:none" points="280.19,263.809 2352.76,263.809 "/>
<polyline clip-path="url(#clip050)" style="stroke:#000000; stroke-linecap:round; stroke-linejoin:round; stroke-width:4; stroke-opacity:1; fill:none" points="280.19,1423.18 2352.76,1423.18 "/>
<polyline clip-path="url(#clip050)" style="stroke:#000000; stroke-linecap:round; stroke-linejoin:round; stroke-width:4; stroke-opacity:1; fill:none" points="556.098,1423.18 556.098,1404.28 "/>
<polyline clip-path="url(#clip050)" style="stroke:#000000; stroke-linecap:round; stroke-linejoin:round; stroke-width:4; stroke-opacity:1; fill:none" points="990.598,1423.18 990.598,1404.28 "/>
<polyline clip-path="url(#clip050)" style="stroke:#000000; stroke-linecap:round; stroke-linejoin:round; stroke-width:4; stroke-opacity:1; fill:none" points="1425.1,1423.18 1425.1,1404.28 "/>
<polyline clip-path="url(#clip050)" style="stroke:#000000; stroke-linecap:round; stroke-linejoin:round; stroke-width:4; stroke-opacity:1; fill:none" points="1859.6,1423.18 1859.6,1404.28 "/>
<polyline clip-path="url(#clip050)" style="stroke:#000000; stroke-linecap:round; stroke-linejoin:round; stroke-width:4; stroke-opacity:1; fill:none" points="2294.1,1423.18 2294.1,1404.28 "/>
<path clip-path="url(#clip050)" d="M550.75 1481.64 L567.07 1481.64 L567.07 1485.58 L545.125 1485.58 L545.125 1481.64 Q547.787 1478.89 552.371 1474.26 Q556.977 1469.61 558.158 1468.27 Q560.403 1465.74 561.283 1464.01 Q562.186 1462.25 562.186 1460.56 Q562.186 1457.8 560.241 1456.07 Q558.32 1454.33 555.218 1454.33 Q553.019 1454.33 550.565 1455.09 Q548.135 1455.86 545.357 1457.41 L545.357 1452.69 Q548.181 1451.55 550.635 1450.97 Q553.088 1450.39 555.125 1450.39 Q560.496 1450.39 563.69 1453.08 Q566.885 1455.77 566.885 1460.26 Q566.885 1462.39 566.074 1464.31 Q565.287 1466.2 563.181 1468.8 Q562.602 1469.47 559.5 1472.69 Q556.399 1475.88 550.75 1481.64 Z" fill="#000000" fill-rule="nonzero" fill-opacity="1" /><path clip-path="url(#clip050)" d="M993.607 1455.09 L981.802 1473.54 L993.607 1473.54 L993.607 1455.09 M992.38 1451.02 L998.26 1451.02 L998.26 1473.54 L1003.19 1473.54 L1003.19 1477.43 L998.26 1477.43 L998.26 1485.58 L993.607 1485.58 L993.607 1477.43 L978.005 1477.43 L978.005 1472.92 L992.38 1451.02 Z" fill="#000000" fill-rule="nonzero" fill-opacity="1" /><path clip-path="url(#clip050)" d="M1425.5 1466.44 Q1422.35 1466.44 1420.5 1468.59 Q1418.67 1470.74 1418.67 1474.49 Q1418.67 1478.22 1420.5 1480.39 Q1422.35 1482.55 1425.5 1482.55 Q1428.65 1482.55 1430.48 1480.39 Q1432.33 1478.22 1432.33 1474.49 Q1432.33 1470.74 1430.48 1468.59 Q1428.65 1466.44 1425.5 1466.44 M1434.79 1451.78 L1434.79 1456.04 Q1433.03 1455.21 1431.22 1454.77 Q1429.44 1454.33 1427.68 1454.33 Q1423.05 1454.33 1420.6 1457.45 Q1418.17 1460.58 1417.82 1466.9 Q1419.18 1464.89 1421.24 1463.82 Q1423.3 1462.73 1425.78 1462.73 Q1430.99 1462.73 1434 1465.9 Q1437.03 1469.05 1437.03 1474.49 Q1437.03 1479.82 1433.88 1483.03 Q1430.73 1486.25 1425.5 1486.25 Q1419.51 1486.25 1416.34 1481.67 Q1413.17 1477.06 1413.17 1468.33 Q1413.17 1460.14 1417.05 1455.28 Q1420.94 1450.39 1427.49 1450.39 Q1429.25 1450.39 1431.04 1450.74 Q1432.84 1451.09 1434.79 1451.78 Z" fill="#000000" fill-rule="nonzero" fill-opacity="1" /><path clip-path="url(#clip050)" d="M1859.6 1469.17 Q1856.26 1469.17 1854.34 1470.95 Q1852.45 1472.73 1852.45 1475.86 Q1852.45 1478.98 1854.34 1480.77 Q1856.26 1482.55 1859.6 1482.55 Q1862.93 1482.55 1864.85 1480.77 Q1866.77 1478.96 1866.77 1475.86 Q1866.77 1472.73 1864.85 1470.95 Q1862.95 1469.17 1859.6 1469.17 M1854.92 1467.18 Q1851.91 1466.44 1850.22 1464.38 Q1848.56 1462.32 1848.56 1459.35 Q1848.56 1455.21 1851.5 1452.8 Q1854.46 1450.39 1859.6 1450.39 Q1864.76 1450.39 1867.7 1452.8 Q1870.64 1455.21 1870.64 1459.35 Q1870.64 1462.32 1868.95 1464.38 Q1867.28 1466.44 1864.3 1467.18 Q1867.68 1467.96 1869.55 1470.26 Q1871.45 1472.55 1871.45 1475.86 Q1871.45 1480.88 1868.37 1483.57 Q1865.32 1486.25 1859.6 1486.25 Q1853.88 1486.25 1850.8 1483.57 Q1847.75 1480.88 1847.75 1475.86 Q1847.75 1472.55 1849.64 1470.26 Q1851.54 1467.96 1854.92 1467.18 M1853.21 1459.79 Q1853.21 1462.48 1854.88 1463.98 Q1856.57 1465.49 1859.6 1465.49 Q1862.61 1465.49 1864.3 1463.98 Q1866.01 1462.48 1866.01 1459.79 Q1866.01 1457.11 1864.3 1455.6 Q1862.61 1454.1 1859.6 1454.1 Q1856.57 1454.1 1854.88 1455.6 Q1853.21 1457.11 1853.21 1459.79 Z" fill="#000000" fill-rule="nonzero" fill-opacity="1" /><path clip-path="url(#clip050)" d="M2268.79 1481.64 L2276.42 1481.64 L2276.42 1455.28 L2268.11 1456.95 L2268.11 1452.69 L2276.38 1451.02 L2281.05 1451.02 L2281.05 1481.64 L2288.69 1481.64 L2288.69 1485.58 L2268.79 1485.58 L2268.79 1481.64 Z" fill="#000000" fill-rule="nonzero" fill-opacity="1" /><path clip-path="url(#clip050)" d="M2308.14 1454.1 Q2304.53 1454.1 2302.7 1457.66 Q2300.89 1461.2 2300.89 1468.33 Q2300.89 1475.44 2302.7 1479.01 Q2304.53 1482.55 2308.14 1482.55 Q2311.77 1482.55 2313.58 1479.01 Q2315.41 1475.44 2315.41 1468.33 Q2315.41 1461.2 2313.58 1457.66 Q2311.77 1454.1 2308.14 1454.1 M2308.14 1450.39 Q2313.95 1450.39 2317 1455 Q2320.08 1459.58 2320.08 1468.33 Q2320.08 1477.06 2317 1481.67 Q2313.95 1486.25 2308.14 1486.25 Q2302.33 1486.25 2299.25 1481.67 Q2296.19 1477.06 2296.19 1468.33 Q2296.19 1459.58 2299.25 1455 Q2302.33 1450.39 2308.14 1450.39 Z" fill="#000000" fill-rule="nonzero" fill-opacity="1" /><path clip-path="url(#clip050)" d="M1085.99 1522.08 L1085.99 1528.35 Q1082.33 1526.6 1079.08 1525.74 Q1075.83 1524.88 1072.81 1524.88 Q1067.56 1524.88 1064.69 1526.92 Q1061.86 1528.96 1061.86 1532.71 Q1061.86 1535.87 1063.74 1537.49 Q1065.65 1539.08 1070.93 1540.07 L1074.81 1540.86 Q1082.01 1542.23 1085.41 1545.7 Q1088.85 1549.14 1088.85 1554.93 Q1088.85 1561.84 1084.2 1565.4 Q1079.59 1568.97 1070.65 1568.97 Q1067.27 1568.97 1063.45 1568.2 Q1059.66 1567.44 1055.59 1565.94 L1055.59 1559.32 Q1059.51 1561.52 1063.26 1562.63 Q1067.02 1563.75 1070.65 1563.75 Q1076.15 1563.75 1079.14 1561.58 Q1082.14 1559.42 1082.14 1555.41 Q1082.14 1551.91 1079.97 1549.93 Q1077.84 1547.96 1072.94 1546.97 L1069.02 1546.21 Q1061.83 1544.78 1058.61 1541.72 Q1055.4 1538.67 1055.4 1533.22 Q1055.4 1526.92 1059.82 1523.29 Q1064.28 1519.66 1072.08 1519.66 Q1075.42 1519.66 1078.89 1520.27 Q1082.36 1520.87 1085.99 1522.08 Z" fill="#000000" fill-rule="nonzero" fill-opacity="1" /><path clip-path="url(#clip050)" d="M1124.28 1533.76 L1124.28 1539.24 Q1121.79 1537.87 1119.28 1537.2 Q1116.8 1536.5 1114.25 1536.5 Q1108.55 1536.5 1105.4 1540.13 Q1102.25 1543.73 1102.25 1550.25 Q1102.25 1556.78 1105.4 1560.4 Q1108.55 1564 1114.25 1564 Q1116.8 1564 1119.28 1563.33 Q1121.79 1562.63 1124.28 1561.26 L1124.28 1566.68 Q1121.83 1567.82 1119.18 1568.39 Q1116.57 1568.97 1113.61 1568.97 Q1105.56 1568.97 1100.82 1563.91 Q1096.08 1558.85 1096.08 1550.25 Q1096.08 1541.53 1100.85 1536.53 Q1105.66 1531.54 1114 1531.54 Q1116.7 1531.54 1119.28 1532.11 Q1121.86 1532.65 1124.28 1533.76 Z" fill="#000000" fill-rule="nonzero" fill-opacity="1" /><path clip-path="url(#clip050)" d="M1134.46 1532.4 L1140.32 1532.4 L1140.32 1568.04 L1134.46 1568.04 L1134.46 1532.4 M1134.46 1518.52 L1140.32 1518.52 L1140.32 1525.93 L1134.46 1525.93 L1134.46 1518.52 Z" fill="#000000" fill-rule="nonzero" fill-opacity="1" /><path clip-path="url(#clip050)" d="M1182.2 1546.53 L1182.2 1568.04 L1176.35 1568.04 L1176.35 1546.72 Q1176.35 1541.66 1174.37 1539.14 Q1172.4 1536.63 1168.45 1536.63 Q1163.71 1536.63 1160.97 1539.65 Q1158.24 1542.68 1158.24 1547.9 L1158.24 1568.04 L1152.35 1568.04 L1152.35 1532.4 L1158.24 1532.4 L1158.24 1537.93 Q1160.34 1534.72 1163.17 1533.13 Q1166.04 1531.54 1169.76 1531.54 Q1175.9 1531.54 1179.05 1535.36 Q1182.2 1539.14 1182.2 1546.53 Z" fill="#000000" fill-rule="nonzero" fill-opacity="1" /><path clip-path="url(#clip050)" d="M1199.68 1522.27 L1199.68 1532.4 L1211.74 1532.4 L1211.74 1536.95 L1199.68 1536.95 L1199.68 1556.3 Q1199.68 1560.66 1200.86 1561.9 Q1202.07 1563.14 1205.73 1563.14 L1211.74 1563.14 L1211.74 1568.04 L1205.73 1568.04 Q1198.95 1568.04 1196.37 1565.53 Q1193.79 1562.98 1193.79 1556.3 L1193.79 1536.95 L1189.49 1536.95 L1189.49 1532.4 L1193.79 1532.4 L1193.79 1522.27 L1199.68 1522.27 Z" fill="#000000" fill-rule="nonzero" fill-opacity="1" /><path clip-path="url(#clip050)" d="M1219.44 1532.4 L1225.3 1532.4 L1225.3 1568.04 L1219.44 1568.04 L1219.44 1532.4 M1219.44 1518.52 L1225.3 1518.52 L1225.3 1525.93 L1219.44 1525.93 L1219.44 1518.52 Z" fill="#000000" fill-rule="nonzero" fill-opacity="1" /><path clip-path="url(#clip050)" d="M1237.55 1518.52 L1243.41 1518.52 L1243.41 1568.04 L1237.55 1568.04 L1237.55 1518.52 Z" fill="#000000" fill-rule="nonzero" fill-opacity="1" /><path clip-path="url(#clip050)" d="M1255.66 1518.52 L1261.52 1518.52 L1261.52 1568.04 L1255.66 1568.04 L1255.66 1518.52 Z" fill="#000000" fill-rule="nonzero" fill-opacity="1" /><path clip-path="url(#clip050)" d="M1289.98 1550.12 Q1282.88 1550.12 1280.14 1551.75 Q1277.4 1553.37 1277.4 1557.29 Q1277.4 1560.4 1279.44 1562.25 Q1281.51 1564.07 1285.04 1564.07 Q1289.91 1564.07 1292.84 1560.63 Q1295.8 1557.16 1295.8 1551.43 L1295.8 1550.12 L1289.98 1550.12 M1301.66 1547.71 L1301.66 1568.04 L1295.8 1568.04 L1295.8 1562.63 Q1293.8 1565.88 1290.8 1567.44 Q1287.81 1568.97 1283.48 1568.97 Q1278.01 1568.97 1274.76 1565.91 Q1271.55 1562.82 1271.55 1557.67 Q1271.55 1551.65 1275.56 1548.6 Q1279.6 1545.54 1287.59 1545.54 L1295.8 1545.54 L1295.8 1544.97 Q1295.8 1540.93 1293.13 1538.73 Q1290.48 1536.5 1285.68 1536.5 Q1282.62 1536.5 1279.73 1537.23 Q1276.83 1537.97 1274.16 1539.43 L1274.16 1534.02 Q1277.37 1532.78 1280.4 1532.17 Q1283.42 1531.54 1286.28 1531.54 Q1294.02 1531.54 1297.84 1535.55 Q1301.66 1539.56 1301.66 1547.71 Z" fill="#000000" fill-rule="nonzero" fill-opacity="1" /><path clip-path="url(#clip050)" d="M1319.51 1522.27 L1319.51 1532.4 L1331.58 1532.4 L1331.58 1536.95 L1319.51 1536.95 L1319.51 1556.3 Q1319.51 1560.66 1320.69 1561.9 Q1321.9 1563.14 1325.56 1563.14 L1331.58 1563.14 L1331.58 1568.04 L1325.56 1568.04 Q1318.78 1568.04 1316.2 1565.53 Q1313.62 1562.98 1313.62 1556.3 L1313.62 1536.95 L1309.33 1536.95 L1309.33 1532.4 L1313.62 1532.4 L1313.62 1522.27 L1319.51 1522.27 Z" fill="#000000" fill-rule="nonzero" fill-opacity="1" /><path clip-path="url(#clip050)" d="M1353.09 1536.5 Q1348.38 1536.5 1345.64 1540.19 Q1342.91 1543.85 1342.91 1550.25 Q1342.91 1556.65 1345.61 1560.34 Q1348.35 1564 1353.09 1564 Q1357.77 1564 1360.51 1560.31 Q1363.24 1556.62 1363.24 1550.25 Q1363.24 1543.92 1360.51 1540.23 Q1357.77 1536.5 1353.09 1536.5 M1353.09 1531.54 Q1360.73 1531.54 1365.09 1536.5 Q1369.45 1541.47 1369.45 1550.25 Q1369.45 1559 1365.09 1564 Q1360.73 1568.97 1353.09 1568.97 Q1345.42 1568.97 1341.06 1564 Q1336.73 1559 1336.73 1550.25 Q1336.73 1541.47 1341.06 1536.5 Q1345.42 1531.54 1353.09 1531.54 Z" fill="#000000" fill-rule="nonzero" fill-opacity="1" /><path clip-path="url(#clip050)" d="M1399.82 1537.87 Q1398.83 1537.3 1397.65 1537.04 Q1396.51 1536.76 1395.11 1536.76 Q1390.14 1536.76 1387.47 1540 Q1384.82 1543.22 1384.82 1549.27 L1384.82 1568.04 L1378.94 1568.04 L1378.94 1532.4 L1384.82 1532.4 L1384.82 1537.93 Q1386.67 1534.69 1389.63 1533.13 Q1392.59 1531.54 1396.82 1531.54 Q1397.43 1531.54 1398.16 1531.63 Q1398.89 1531.7 1399.78 1531.85 L1399.82 1537.87 Z" fill="#000000" fill-rule="nonzero" fill-opacity="1" /><path clip-path="url(#clip050)" d="M1432.34 1562.7 L1432.34 1581.6 L1426.46 1581.6 L1426.46 1532.4 L1432.34 1532.4 L1432.34 1537.81 Q1434.19 1534.62 1436.99 1533.1 Q1439.82 1531.54 1443.74 1531.54 Q1450.23 1531.54 1454.27 1536.69 Q1458.35 1541.85 1458.35 1550.25 Q1458.35 1558.65 1454.27 1563.81 Q1450.23 1568.97 1443.74 1568.97 Q1439.82 1568.97 1436.99 1567.44 Q1434.19 1565.88 1432.34 1562.7 M1452.27 1550.25 Q1452.27 1543.79 1449.6 1540.13 Q1446.95 1536.44 1442.31 1536.44 Q1437.66 1536.44 1434.99 1540.13 Q1432.34 1543.79 1432.34 1550.25 Q1432.34 1556.71 1434.99 1560.4 Q1437.66 1564.07 1442.31 1564.07 Q1446.95 1564.07 1449.6 1560.4 Q1452.27 1556.71 1452.27 1550.25 Z" fill="#000000" fill-rule="nonzero" fill-opacity="1" /><path clip-path="url(#clip050)" d="M1484.26 1550.12 Q1477.16 1550.12 1474.42 1551.75 Q1471.68 1553.37 1471.68 1557.29 Q1471.68 1560.4 1473.72 1562.25 Q1475.79 1564.07 1479.32 1564.07 Q1484.19 1564.07 1487.12 1560.63 Q1490.08 1557.16 1490.08 1551.43 L1490.08 1550.12 L1484.26 1550.12 M1495.94 1547.71 L1495.94 1568.04 L1490.08 1568.04 L1490.08 1562.63 Q1488.08 1565.88 1485.08 1567.44 Q1482.09 1568.97 1477.76 1568.97 Q1472.29 1568.97 1469.04 1565.91 Q1465.83 1562.82 1465.83 1557.67 Q1465.83 1551.65 1469.84 1548.6 Q1473.88 1545.54 1481.87 1545.54 L1490.08 1545.54 L1490.08 1544.97 Q1490.08 1540.93 1487.41 1538.73 Q1484.77 1536.5 1479.96 1536.5 Q1476.9 1536.5 1474.01 1537.23 Q1471.11 1537.97 1468.44 1539.43 L1468.44 1534.02 Q1471.65 1532.78 1474.68 1532.17 Q1477.7 1531.54 1480.56 1531.54 Q1488.3 1531.54 1492.12 1535.55 Q1495.94 1539.56 1495.94 1547.71 Z" fill="#000000" fill-rule="nonzero" fill-opacity="1" /><path clip-path="url(#clip050)" d="M1508 1532.4 L1513.86 1532.4 L1513.86 1568.04 L1508 1568.04 L1508 1532.4 M1508 1518.52 L1513.86 1518.52 L1513.86 1525.93 L1508 1525.93 L1508 1518.52 Z" fill="#000000" fill-rule="nonzero" fill-opacity="1" /><path clip-path="url(#clip050)" d="M1546.77 1537.87 Q1545.78 1537.3 1544.6 1537.04 Q1543.46 1536.76 1542.06 1536.76 Q1537.09 1536.76 1534.42 1540 Q1531.78 1543.22 1531.78 1549.27 L1531.78 1568.04 L1525.89 1568.04 L1525.89 1532.4 L1531.78 1532.4 L1531.78 1537.93 Q1533.62 1534.69 1536.58 1533.13 Q1539.54 1531.54 1543.78 1531.54 Q1544.38 1531.54 1545.11 1531.63 Q1545.85 1531.7 1546.74 1531.85 L1546.77 1537.87 Z" fill="#000000" fill-rule="nonzero" fill-opacity="1" /><path clip-path="url(#clip050)" d="M1575.64 1533.45 L1575.64 1538.98 Q1573.15 1537.71 1570.48 1537.07 Q1567.81 1536.44 1564.94 1536.44 Q1560.58 1536.44 1558.39 1537.77 Q1556.22 1539.11 1556.22 1541.79 Q1556.22 1543.82 1557.78 1545 Q1559.34 1546.15 1564.05 1547.2 L1566.06 1547.64 Q1572.29 1548.98 1574.9 1551.43 Q1577.55 1553.85 1577.55 1558.21 Q1577.55 1563.17 1573.6 1566.07 Q1569.68 1568.97 1562.81 1568.97 Q1559.95 1568.97 1556.83 1568.39 Q1553.74 1567.85 1550.3 1566.74 L1550.3 1560.69 Q1553.55 1562.38 1556.7 1563.24 Q1559.85 1564.07 1562.94 1564.07 Q1567.07 1564.07 1569.3 1562.66 Q1571.53 1561.23 1571.53 1558.65 Q1571.53 1556.27 1569.91 1554.99 Q1568.32 1553.72 1562.87 1552.54 L1560.84 1552.07 Q1555.39 1550.92 1552.97 1548.56 Q1550.56 1546.18 1550.56 1542.04 Q1550.56 1537.01 1554.12 1534.27 Q1557.69 1531.54 1564.24 1531.54 Q1567.49 1531.54 1570.35 1532.01 Q1573.22 1532.49 1575.64 1533.45 Z" fill="#000000" fill-rule="nonzero" fill-opacity="1" /><polyline clip-path="url(#clip050)" style="stroke:#000000; stroke-linecap:round; stroke-linejoin:round; stroke-width:4; stroke-opacity:1; fill:none" points="280.19,1423.18 280.19,123.472 "/>
<polyline clip-path="url(#clip050)" style="stroke:#000000; stroke-linecap:round; stroke-linejoin:round; stroke-width:4; stroke-opacity:1; fill:none" points="280.19,1285.64 299.088,1285.64 "/>
<polyline clip-path="url(#clip050)" style="stroke:#000000; stroke-linecap:round; stroke-linejoin:round; stroke-width:4; stroke-opacity:1; fill:none" points="280.19,1081.28 299.088,1081.28 "/>
<polyline clip-path="url(#clip050)" style="stroke:#000000; stroke-linecap:round; stroke-linejoin:round; stroke-width:4; stroke-opacity:1; fill:none" points="280.19,876.909 299.088,876.909 "/>
<polyline clip-path="url(#clip050)" style="stroke:#000000; stroke-linecap:round; stroke-linejoin:round; stroke-width:4; stroke-opacity:1; fill:none" points="280.19,672.543 299.088,672.543 "/>
<polyline clip-path="url(#clip050)" style="stroke:#000000; stroke-linecap:round; stroke-linejoin:round; stroke-width:4; stroke-opacity:1; fill:none" points="280.19,468.176 299.088,468.176 "/>
<polyline clip-path="url(#clip050)" style="stroke:#000000; stroke-linecap:round; stroke-linejoin:round; stroke-width:4; stroke-opacity:1; fill:none" points="280.19,263.809 299.088,263.809 "/>
<path clip-path="url(#clip050)" d="M127.917 1271.44 Q124.306 1271.44 122.478 1275.01 Q120.672 1278.55 120.672 1285.68 Q120.672 1292.78 122.478 1296.35 Q124.306 1299.89 127.917 1299.89 Q131.552 1299.89 133.357 1296.35 Q135.186 1292.78 135.186 1285.68 Q135.186 1278.55 133.357 1275.01 Q131.552 1271.44 127.917 1271.44 M127.917 1267.74 Q133.728 1267.74 136.783 1272.34 Q139.862 1276.93 139.862 1285.68 Q139.862 1294.4 136.783 1299.01 Q133.728 1303.59 127.917 1303.59 Q122.107 1303.59 119.029 1299.01 Q115.973 1294.4 115.973 1285.68 Q115.973 1276.93 119.029 1272.34 Q122.107 1267.74 127.917 1267.74 Z" fill="#000000" fill-rule="nonzero" fill-opacity="1" /><path clip-path="url(#clip050)" d="M148.079 1297.04 L152.964 1297.04 L152.964 1302.92 L148.079 1302.92 L148.079 1297.04 Z" fill="#000000" fill-rule="nonzero" fill-opacity="1" /><path clip-path="url(#clip050)" d="M173.149 1271.44 Q169.538 1271.44 167.709 1275.01 Q165.903 1278.55 165.903 1285.68 Q165.903 1292.78 167.709 1296.35 Q169.538 1299.89 173.149 1299.89 Q176.783 1299.89 178.589 1296.35 Q180.417 1292.78 180.417 1285.68 Q180.417 1278.55 178.589 1275.01 Q176.783 1271.44 173.149 1271.44 M173.149 1267.74 Q178.959 1267.74 182.014 1272.34 Q185.093 1276.93 185.093 1285.68 Q185.093 1294.4 182.014 1299.01 Q178.959 1303.59 173.149 1303.59 Q167.339 1303.59 164.26 1299.01 Q161.204 1294.4 161.204 1285.68 Q161.204 1276.93 164.26 1272.34 Q167.339 1267.74 173.149 1267.74 Z" fill="#000000" fill-rule="nonzero" fill-opacity="1" /><path clip-path="url(#clip050)" d="M203.311 1271.44 Q199.7 1271.44 197.871 1275.01 Q196.065 1278.55 196.065 1285.68 Q196.065 1292.78 197.871 1296.35 Q199.7 1299.89 203.311 1299.89 Q206.945 1299.89 208.75 1296.35 Q210.579 1292.78 210.579 1285.68 Q210.579 1278.55 208.75 1275.01 Q206.945 1271.44 203.311 1271.44 M203.311 1267.74 Q209.121 1267.74 212.176 1272.34 Q215.255 1276.93 215.255 1285.68 Q215.255 1294.4 212.176 1299.01 Q209.121 1303.59 203.311 1303.59 Q197.5 1303.59 194.422 1299.01 Q191.366 1294.4 191.366 1285.68 Q191.366 1276.93 194.422 1272.34 Q197.5 1267.74 203.311 1267.74 Z" fill="#000000" fill-rule="nonzero" fill-opacity="1" /><path clip-path="url(#clip050)" d="M224.283 1298.99 L231.922 1298.99 L231.922 1272.62 L223.611 1274.29 L223.611 1270.03 L231.875 1268.36 L236.551 1268.36 L236.551 1298.99 L244.19 1298.99 L244.19 1302.92 L224.283 1302.92 L224.283 1298.99 Z" fill="#000000" fill-rule="nonzero" fill-opacity="1" /><path clip-path="url(#clip050)" d="M128.288 1067.07 Q124.677 1067.07 122.848 1070.64 Q121.043 1074.18 121.043 1081.31 Q121.043 1088.42 122.848 1091.98 Q124.677 1095.52 128.288 1095.52 Q131.922 1095.52 133.728 1091.98 Q135.556 1088.42 135.556 1081.31 Q135.556 1074.18 133.728 1070.64 Q131.922 1067.07 128.288 1067.07 M128.288 1063.37 Q134.098 1063.37 137.154 1067.98 Q140.232 1072.56 140.232 1081.31 Q140.232 1090.04 137.154 1094.64 Q134.098 1099.23 128.288 1099.23 Q122.478 1099.23 119.399 1094.64 Q116.343 1090.04 116.343 1081.31 Q116.343 1072.56 119.399 1067.98 Q122.478 1063.37 128.288 1063.37 Z" fill="#000000" fill-rule="nonzero" fill-opacity="1" /><path clip-path="url(#clip050)" d="M148.45 1092.68 L153.334 1092.68 L153.334 1098.56 L148.45 1098.56 L148.45 1092.68 Z" fill="#000000" fill-rule="nonzero" fill-opacity="1" /><path clip-path="url(#clip050)" d="M173.519 1067.07 Q169.908 1067.07 168.079 1070.64 Q166.274 1074.18 166.274 1081.31 Q166.274 1088.42 168.079 1091.98 Q169.908 1095.52 173.519 1095.52 Q177.153 1095.52 178.959 1091.98 Q180.788 1088.42 180.788 1081.31 Q180.788 1074.18 178.959 1070.64 Q177.153 1067.07 173.519 1067.07 M173.519 1063.37 Q179.329 1063.37 182.385 1067.98 Q185.463 1072.56 185.463 1081.31 Q185.463 1090.04 182.385 1094.64 Q179.329 1099.23 173.519 1099.23 Q167.709 1099.23 164.63 1094.64 Q161.575 1090.04 161.575 1081.31 Q161.575 1072.56 164.63 1067.98 Q167.709 1063.37 173.519 1063.37 Z" fill="#000000" fill-rule="nonzero" fill-opacity="1" /><path clip-path="url(#clip050)" d="M203.681 1067.07 Q200.07 1067.07 198.241 1070.64 Q196.436 1074.18 196.436 1081.31 Q196.436 1088.42 198.241 1091.98 Q200.07 1095.52 203.681 1095.52 Q207.315 1095.52 209.121 1091.98 Q210.949 1088.42 210.949 1081.31 Q210.949 1074.18 209.121 1070.64 Q207.315 1067.07 203.681 1067.07 M203.681 1063.37 Q209.491 1063.37 212.547 1067.98 Q215.625 1072.56 215.625 1081.31 Q215.625 1090.04 212.547 1094.64 Q209.491 1099.23 203.681 1099.23 Q197.871 1099.23 194.792 1094.64 Q191.737 1090.04 191.737 1081.31 Q191.737 1072.56 194.792 1067.98 Q197.871 1063.37 203.681 1063.37 Z" fill="#000000" fill-rule="nonzero" fill-opacity="1" /><path clip-path="url(#clip050)" d="M227.871 1094.62 L244.19 1094.62 L244.19 1098.56 L222.246 1098.56 L222.246 1094.62 Q224.908 1091.87 229.491 1087.24 Q234.097 1082.58 235.278 1081.24 Q237.523 1078.72 238.403 1076.98 Q239.306 1075.22 239.306 1073.53 Q239.306 1070.78 237.361 1069.04 Q235.44 1067.31 232.338 1067.31 Q230.139 1067.31 227.685 1068.07 Q225.255 1068.83 222.477 1070.38 L222.477 1065.66 Q225.301 1064.53 227.755 1063.95 Q230.209 1063.37 232.246 1063.37 Q237.616 1063.37 240.81 1066.06 Q244.005 1068.74 244.005 1073.23 Q244.005 1075.36 243.195 1077.28 Q242.408 1079.18 240.301 1081.77 Q239.722 1082.45 236.621 1085.66 Q233.519 1088.86 227.871 1094.62 Z" fill="#000000" fill-rule="nonzero" fill-opacity="1" /><path clip-path="url(#clip050)" d="M127.339 862.708 Q123.728 862.708 121.899 866.273 Q120.093 869.814 120.093 876.944 Q120.093 884.05 121.899 887.615 Q123.728 891.157 127.339 891.157 Q130.973 891.157 132.779 887.615 Q134.607 884.05 134.607 876.944 Q134.607 869.814 132.779 866.273 Q130.973 862.708 127.339 862.708 M127.339 859.004 Q133.149 859.004 136.204 863.611 Q139.283 868.194 139.283 876.944 Q139.283 885.671 136.204 890.277 Q133.149 894.861 127.339 894.861 Q121.529 894.861 118.45 890.277 Q115.394 885.671 115.394 876.944 Q115.394 868.194 118.45 863.611 Q121.529 859.004 127.339 859.004 Z" fill="#000000" fill-rule="nonzero" fill-opacity="1" /><path clip-path="url(#clip050)" d="M147.501 888.31 L152.385 888.31 L152.385 894.189 L147.501 894.189 L147.501 888.31 Z" fill="#000000" fill-rule="nonzero" fill-opacity="1" /><path clip-path="url(#clip050)" d="M172.57 862.708 Q168.959 862.708 167.13 866.273 Q165.325 869.814 165.325 876.944 Q165.325 884.05 167.13 887.615 Q168.959 891.157 172.57 891.157 Q176.204 891.157 178.01 887.615 Q179.839 884.05 179.839 876.944 Q179.839 869.814 178.01 866.273 Q176.204 862.708 172.57 862.708 M172.57 859.004 Q178.38 859.004 181.436 863.611 Q184.514 868.194 184.514 876.944 Q184.514 885.671 181.436 890.277 Q178.38 894.861 172.57 894.861 Q166.76 894.861 163.681 890.277 Q160.626 885.671 160.626 876.944 Q160.626 868.194 163.681 863.611 Q166.76 859.004 172.57 859.004 Z" fill="#000000" fill-rule="nonzero" fill-opacity="1" /><path clip-path="url(#clip050)" d="M202.732 862.708 Q199.121 862.708 197.292 866.273 Q195.487 869.814 195.487 876.944 Q195.487 884.05 197.292 887.615 Q199.121 891.157 202.732 891.157 Q206.366 891.157 208.172 887.615 Q210 884.05 210 876.944 Q210 869.814 208.172 866.273 Q206.366 862.708 202.732 862.708 M202.732 859.004 Q208.542 859.004 211.598 863.611 Q214.676 868.194 214.676 876.944 Q214.676 885.671 211.598 890.277 Q208.542 894.861 202.732 894.861 Q196.922 894.861 193.843 890.277 Q190.788 885.671 190.788 876.944 Q190.788 868.194 193.843 863.611 Q196.922 859.004 202.732 859.004 Z" fill="#000000" fill-rule="nonzero" fill-opacity="1" /><path clip-path="url(#clip050)" d="M237.06 875.555 Q240.417 876.273 242.292 878.541 Q244.19 880.81 244.19 884.143 Q244.19 889.259 240.672 892.06 Q237.153 894.861 230.672 894.861 Q228.496 894.861 226.181 894.421 Q223.889 894.004 221.436 893.148 L221.436 888.634 Q223.38 889.768 225.695 890.347 Q228.01 890.925 230.533 890.925 Q234.931 890.925 237.222 889.189 Q239.537 887.453 239.537 884.143 Q239.537 881.088 237.384 879.375 Q235.255 877.638 231.435 877.638 L227.408 877.638 L227.408 873.796 L231.621 873.796 Q235.07 873.796 236.898 872.43 Q238.727 871.041 238.727 868.449 Q238.727 865.787 236.829 864.375 Q234.954 862.939 231.435 862.939 Q229.514 862.939 227.315 863.356 Q225.116 863.773 222.477 864.652 L222.477 860.486 Q225.139 859.745 227.454 859.375 Q229.792 859.004 231.852 859.004 Q237.176 859.004 240.278 861.435 Q243.38 863.842 243.38 867.963 Q243.38 870.833 241.736 872.824 Q240.093 874.791 237.06 875.555 Z" fill="#000000" fill-rule="nonzero" fill-opacity="1" /><path clip-path="url(#clip050)" d="M126.205 658.341 Q122.593 658.341 120.765 661.906 Q118.959 665.448 118.959 672.577 Q118.959 679.684 120.765 683.248 Q122.593 686.79 126.205 686.79 Q129.839 686.79 131.644 683.248 Q133.473 679.684 133.473 672.577 Q133.473 665.448 131.644 661.906 Q129.839 658.341 126.205 658.341 M126.205 654.638 Q132.015 654.638 135.07 659.244 Q138.149 663.827 138.149 672.577 Q138.149 681.304 135.07 685.91 Q132.015 690.494 126.205 690.494 Q120.394 690.494 117.316 685.91 Q114.26 681.304 114.26 672.577 Q114.26 663.827 117.316 659.244 Q120.394 654.638 126.205 654.638 Z" fill="#000000" fill-rule="nonzero" fill-opacity="1" /><path clip-path="url(#clip050)" d="M146.366 683.943 L151.251 683.943 L151.251 689.823 L146.366 689.823 L146.366 683.943 Z" fill="#000000" fill-rule="nonzero" fill-opacity="1" /><path clip-path="url(#clip050)" d="M171.436 658.341 Q167.825 658.341 165.996 661.906 Q164.19 665.448 164.19 672.577 Q164.19 679.684 165.996 683.248 Q167.825 686.79 171.436 686.79 Q175.07 686.79 176.876 683.248 Q178.704 679.684 178.704 672.577 Q178.704 665.448 176.876 661.906 Q175.07 658.341 171.436 658.341 M171.436 654.638 Q177.246 654.638 180.301 659.244 Q183.38 663.827 183.38 672.577 Q183.38 681.304 180.301 685.91 Q177.246 690.494 171.436 690.494 Q165.626 690.494 162.547 685.91 Q159.491 681.304 159.491 672.577 Q159.491 663.827 162.547 659.244 Q165.626 654.638 171.436 654.638 Z" fill="#000000" fill-rule="nonzero" fill-opacity="1" /><path clip-path="url(#clip050)" d="M201.598 658.341 Q197.987 658.341 196.158 661.906 Q194.352 665.448 194.352 672.577 Q194.352 679.684 196.158 683.248 Q197.987 686.79 201.598 686.79 Q205.232 686.79 207.037 683.248 Q208.866 679.684 208.866 672.577 Q208.866 665.448 207.037 661.906 Q205.232 658.341 201.598 658.341 M201.598 654.638 Q207.408 654.638 210.463 659.244 Q213.542 663.827 213.542 672.577 Q213.542 681.304 210.463 685.91 Q207.408 690.494 201.598 690.494 Q195.787 690.494 192.709 685.91 Q189.653 681.304 189.653 672.577 Q189.653 663.827 192.709 659.244 Q195.787 654.638 201.598 654.638 Z" fill="#000000" fill-rule="nonzero" fill-opacity="1" /><path clip-path="url(#clip050)" d="M234.607 659.337 L222.801 677.786 L234.607 677.786 L234.607 659.337 M233.38 655.263 L239.259 655.263 L239.259 677.786 L244.19 677.786 L244.19 681.674 L239.259 681.674 L239.259 689.823 L234.607 689.823 L234.607 681.674 L219.005 681.674 L219.005 677.161 L233.38 655.263 Z" fill="#000000" fill-rule="nonzero" fill-opacity="1" /><path clip-path="url(#clip050)" d="M127.686 453.974 Q124.075 453.974 122.246 457.539 Q120.441 461.081 120.441 468.21 Q120.441 475.317 122.246 478.882 Q124.075 482.423 127.686 482.423 Q131.32 482.423 133.126 478.882 Q134.954 475.317 134.954 468.21 Q134.954 461.081 133.126 457.539 Q131.32 453.974 127.686 453.974 M127.686 450.271 Q133.496 450.271 136.552 454.877 Q139.63 459.46 139.63 468.21 Q139.63 476.937 136.552 481.544 Q133.496 486.127 127.686 486.127 Q121.876 486.127 118.797 481.544 Q115.742 476.937 115.742 468.21 Q115.742 459.46 118.797 454.877 Q121.876 450.271 127.686 450.271 Z" fill="#000000" fill-rule="nonzero" fill-opacity="1" /><path clip-path="url(#clip050)" d="M147.848 479.576 L152.732 479.576 L152.732 485.456 L147.848 485.456 L147.848 479.576 Z" fill="#000000" fill-rule="nonzero" fill-opacity="1" /><path clip-path="url(#clip050)" d="M172.917 453.974 Q169.306 453.974 167.477 457.539 Q165.672 461.081 165.672 468.21 Q165.672 475.317 167.477 478.882 Q169.306 482.423 172.917 482.423 Q176.551 482.423 178.357 478.882 Q180.186 475.317 180.186 468.21 Q180.186 461.081 178.357 457.539 Q176.551 453.974 172.917 453.974 M172.917 450.271 Q178.727 450.271 181.783 454.877 Q184.862 459.46 184.862 468.21 Q184.862 476.937 181.783 481.544 Q178.727 486.127 172.917 486.127 Q167.107 486.127 164.028 481.544 Q160.973 476.937 160.973 468.21 Q160.973 459.46 164.028 454.877 Q167.107 450.271 172.917 450.271 Z" fill="#000000" fill-rule="nonzero" fill-opacity="1" /><path clip-path="url(#clip050)" d="M203.079 453.974 Q199.468 453.974 197.639 457.539 Q195.834 461.081 195.834 468.21 Q195.834 475.317 197.639 478.882 Q199.468 482.423 203.079 482.423 Q206.713 482.423 208.519 478.882 Q210.348 475.317 210.348 468.21 Q210.348 461.081 208.519 457.539 Q206.713 453.974 203.079 453.974 M203.079 450.271 Q208.889 450.271 211.945 454.877 Q215.024 459.46 215.024 468.21 Q215.024 476.937 211.945 481.544 Q208.889 486.127 203.079 486.127 Q197.269 486.127 194.19 481.544 Q191.135 476.937 191.135 468.21 Q191.135 459.46 194.19 454.877 Q197.269 450.271 203.079 450.271 Z" fill="#000000" fill-rule="nonzero" fill-opacity="1" /><path clip-path="url(#clip050)" d="M223.287 450.896 L241.644 450.896 L241.644 454.831 L227.57 454.831 L227.57 463.303 Q228.588 462.956 229.607 462.794 Q230.625 462.609 231.644 462.609 Q237.431 462.609 240.81 465.78 Q244.19 468.951 244.19 474.368 Q244.19 479.947 240.718 483.048 Q237.246 486.127 230.926 486.127 Q228.75 486.127 226.482 485.757 Q224.236 485.386 221.829 484.646 L221.829 479.947 Q223.912 481.081 226.135 481.636 Q228.357 482.192 230.834 482.192 Q234.838 482.192 237.176 480.085 Q239.514 477.979 239.514 474.368 Q239.514 470.757 237.176 468.65 Q234.838 466.544 230.834 466.544 Q228.959 466.544 227.084 466.96 Q225.232 467.377 223.287 468.257 L223.287 450.896 Z" fill="#000000" fill-rule="nonzero" fill-opacity="1" /><path clip-path="url(#clip050)" d="M126.529 249.608 Q122.918 249.608 121.089 253.172 Q119.283 256.714 119.283 263.844 Q119.283 270.95 121.089 274.515 Q122.918 278.057 126.529 278.057 Q130.163 278.057 131.968 274.515 Q133.797 270.95 133.797 263.844 Q133.797 256.714 131.968 253.172 Q130.163 249.608 126.529 249.608 M126.529 245.904 Q132.339 245.904 135.394 250.51 Q138.473 255.094 138.473 263.844 Q138.473 272.57 135.394 277.177 Q132.339 281.76 126.529 281.76 Q120.718 281.76 117.64 277.177 Q114.584 272.57 114.584 263.844 Q114.584 255.094 117.64 250.51 Q120.718 245.904 126.529 245.904 Z" fill="#000000" fill-rule="nonzero" fill-opacity="1" /><path clip-path="url(#clip050)" d="M146.691 275.209 L151.575 275.209 L151.575 281.089 L146.691 281.089 L146.691 275.209 Z" fill="#000000" fill-rule="nonzero" fill-opacity="1" /><path clip-path="url(#clip050)" d="M171.76 249.608 Q168.149 249.608 166.32 253.172 Q164.515 256.714 164.515 263.844 Q164.515 270.95 166.32 274.515 Q168.149 278.057 171.76 278.057 Q175.394 278.057 177.2 274.515 Q179.028 270.95 179.028 263.844 Q179.028 256.714 177.2 253.172 Q175.394 249.608 171.76 249.608 M171.76 245.904 Q177.57 245.904 180.626 250.51 Q183.704 255.094 183.704 263.844 Q183.704 272.57 180.626 277.177 Q177.57 281.76 171.76 281.76 Q165.95 281.76 162.871 277.177 Q159.815 272.57 159.815 263.844 Q159.815 255.094 162.871 250.51 Q165.95 245.904 171.76 245.904 Z" fill="#000000" fill-rule="nonzero" fill-opacity="1" /><path clip-path="url(#clip050)" d="M201.922 249.608 Q198.311 249.608 196.482 253.172 Q194.676 256.714 194.676 263.844 Q194.676 270.95 196.482 274.515 Q198.311 278.057 201.922 278.057 Q205.556 278.057 207.362 274.515 Q209.19 270.95 209.19 263.844 Q209.19 256.714 207.362 253.172 Q205.556 249.608 201.922 249.608 M201.922 245.904 Q207.732 245.904 210.787 250.51 Q213.866 255.094 213.866 263.844 Q213.866 272.57 210.787 277.177 Q207.732 281.76 201.922 281.76 Q196.112 281.76 193.033 277.177 Q189.977 272.57 189.977 263.844 Q189.977 255.094 193.033 250.51 Q196.112 245.904 201.922 245.904 Z" fill="#000000" fill-rule="nonzero" fill-opacity="1" /><path clip-path="url(#clip050)" d="M232.662 261.946 Q229.514 261.946 227.662 264.098 Q225.834 266.251 225.834 270.001 Q225.834 273.728 227.662 275.904 Q229.514 278.057 232.662 278.057 Q235.81 278.057 237.639 275.904 Q239.491 273.728 239.491 270.001 Q239.491 266.251 237.639 264.098 Q235.81 261.946 232.662 261.946 M241.945 247.293 L241.945 251.552 Q240.185 250.719 238.38 250.279 Q236.597 249.839 234.838 249.839 Q230.209 249.839 227.755 252.964 Q225.324 256.089 224.977 262.408 Q226.343 260.395 228.403 259.33 Q230.463 258.242 232.94 258.242 Q238.148 258.242 241.158 261.413 Q244.19 264.561 244.19 270.001 Q244.19 275.325 241.042 278.543 Q237.894 281.76 232.662 281.76 Q226.667 281.76 223.496 277.177 Q220.324 272.57 220.324 263.844 Q220.324 255.649 224.213 250.788 Q228.102 245.904 234.653 245.904 Q236.412 245.904 238.195 246.251 Q240 246.598 241.945 247.293 Z" fill="#000000" fill-rule="nonzero" fill-opacity="1" /><path clip-path="url(#clip050)" d="M16.4842 1427.88 L16.4842 1418.3 L48.8219 1406.17 L16.4842 1393.98 L16.4842 1384.4 L64.0042 1384.4 L64.0042 1390.67 L22.277 1390.67 L54.8694 1402.93 L54.8694 1409.39 L22.277 1421.64 L64.0042 1421.64 L64.0042 1427.88 L16.4842 1427.88 Z" fill="#000000" fill-rule="nonzero" fill-opacity="1" /><path clip-path="url(#clip050)" d="M46.0847 1355.69 Q46.0847 1362.79 47.7079 1365.53 Q49.3312 1368.26 53.2461 1368.26 Q56.3653 1368.26 58.2114 1366.23 Q60.0256 1364.16 60.0256 1360.63 Q60.0256 1355.76 56.5881 1352.83 Q53.1188 1349.87 47.3897 1349.87 L46.0847 1349.87 L46.0847 1355.69 M43.6657 1344.01 L64.0042 1344.01 L64.0042 1349.87 L58.5933 1349.87 Q61.8398 1351.87 63.3994 1354.87 Q64.9272 1357.86 64.9272 1362.19 Q64.9272 1367.66 61.8716 1370.91 Q58.7843 1374.12 53.6281 1374.12 Q47.6125 1374.12 44.5569 1370.11 Q41.5014 1366.07 41.5014 1358.08 L41.5014 1349.87 L40.9285 1349.87 Q36.8862 1349.87 34.6901 1352.54 Q32.4621 1355.18 32.4621 1359.99 Q32.4621 1363.05 33.1941 1365.94 Q33.9262 1368.84 35.3903 1371.51 L29.9795 1371.51 Q28.7381 1368.3 28.1334 1365.27 Q27.4968 1362.25 27.4968 1359.38 Q27.4968 1351.65 31.5072 1347.83 Q35.5176 1344.01 43.6657 1344.01 Z" fill="#000000" fill-rule="nonzero" fill-opacity="1" /><path clip-path="url(#clip050)" d="M18.2347 1326.16 L28.3562 1326.16 L28.3562 1314.09 L32.9077 1314.09 L32.9077 1326.16 L52.2594 1326.16 Q56.6199 1326.16 57.8613 1324.98 Q59.1026 1323.77 59.1026 1320.11 L59.1026 1314.09 L64.0042 1314.09 L64.0042 1320.11 Q64.0042 1326.89 61.4897 1329.47 Q58.9434 1332.04 52.2594 1332.04 L32.9077 1332.04 L32.9077 1336.34 L28.3562 1336.34 L28.3562 1332.04 L18.2347 1332.04 L18.2347 1326.16 Z" fill="#000000" fill-rule="nonzero" fill-opacity="1" /><path clip-path="url(#clip050)" d="M29.7248 1280.74 L35.1993 1280.74 Q33.8307 1283.22 33.1623 1285.73 Q32.4621 1288.22 32.4621 1290.76 Q32.4621 1296.46 36.0905 1299.61 Q39.6872 1302.76 46.212 1302.76 Q52.7369 1302.76 56.3653 1299.61 Q59.9619 1296.46 59.9619 1290.76 Q59.9619 1288.22 59.2935 1285.73 Q58.5933 1283.22 57.2247 1280.74 L62.6355 1280.74 Q63.7814 1283.19 64.3543 1285.83 Q64.9272 1288.44 64.9272 1291.4 Q64.9272 1299.45 59.8664 1304.19 Q54.8057 1308.94 46.212 1308.94 Q37.491 1308.94 32.4939 1304.16 Q27.4968 1299.36 27.4968 1291.02 Q27.4968 1288.31 28.0697 1285.73 Q28.6108 1283.16 29.7248 1280.74 Z" fill="#000000" fill-rule="nonzero" fill-opacity="1" /><path clip-path="url(#clip050)" d="M42.4881 1240.92 L64.0042 1240.92 L64.0042 1246.78 L42.679 1246.78 Q37.6183 1246.78 35.1038 1248.75 Q32.5894 1250.72 32.5894 1254.67 Q32.5894 1259.41 35.6131 1262.15 Q38.6368 1264.89 43.8567 1264.89 L64.0042 1264.89 L64.0042 1270.77 L14.479 1270.77 L14.479 1264.89 L33.8944 1264.89 Q30.6797 1262.79 29.0883 1259.95 Q27.4968 1257.09 27.4968 1253.36 Q27.4968 1247.22 31.3163 1244.07 Q35.1038 1240.92 42.4881 1240.92 Z" fill="#000000" fill-rule="nonzero" fill-opacity="1" /><path clip-path="url(#clip050)" d="M44.7161 1198.75 L47.5806 1198.75 L47.5806 1225.67 Q53.6281 1225.29 56.8109 1222.04 Q59.9619 1218.77 59.9619 1212.94 Q59.9619 1209.57 59.1344 1206.42 Q58.3069 1203.23 56.6518 1200.11 L62.1899 1200.11 Q63.5267 1203.27 64.227 1206.58 Q64.9272 1209.89 64.9272 1213.29 Q64.9272 1221.82 59.9619 1226.82 Q54.9967 1231.78 46.5303 1231.78 Q37.7774 1231.78 32.6531 1227.07 Q27.4968 1222.33 27.4968 1214.31 Q27.4968 1207.12 32.1438 1202.95 Q36.7589 1198.75 44.7161 1198.75 M42.9973 1204.6 Q38.1912 1204.67 35.3266 1207.31 Q32.4621 1209.92 32.4621 1214.25 Q32.4621 1219.15 35.2312 1222.11 Q38.0002 1225.04 43.0292 1225.48 L42.9973 1204.6 Z" fill="#000000" fill-rule="nonzero" fill-opacity="1" /><path clip-path="url(#clip050)" d="M29.4065 1166.41 L34.9447 1166.41 Q33.6716 1168.89 33.035 1171.56 Q32.3984 1174.24 32.3984 1177.1 Q32.3984 1181.46 33.7352 1183.66 Q35.072 1185.82 37.7456 1185.82 Q39.7826 1185.82 40.9603 1184.26 Q42.1061 1182.7 43.1565 1177.99 L43.6021 1175.99 Q44.9389 1169.75 47.3897 1167.14 Q49.8086 1164.5 54.1691 1164.5 Q59.1344 1164.5 62.0308 1168.45 Q64.9272 1172.36 64.9272 1179.24 Q64.9272 1182.1 64.3543 1185.22 Q63.8132 1188.31 62.6992 1191.74 L56.6518 1191.74 Q58.3387 1188.5 59.198 1185.35 Q60.0256 1182.2 60.0256 1179.11 Q60.0256 1174.97 58.6251 1172.74 Q57.1929 1170.51 54.6147 1170.51 Q52.2276 1170.51 50.9545 1172.14 Q49.6813 1173.73 48.5037 1179.17 L48.0262 1181.21 Q46.8804 1186.65 44.5251 1189.07 Q42.138 1191.49 38.0002 1191.49 Q32.9713 1191.49 30.2341 1187.92 Q27.4968 1184.36 27.4968 1177.8 Q27.4968 1174.56 27.9743 1171.69 Q28.4517 1168.83 29.4065 1166.41 Z" fill="#000000" fill-rule="nonzero" fill-opacity="1" /><path clip-path="url(#clip050)" d="M58.657 1128.79 L77.5631 1128.79 L77.5631 1134.68 L28.3562 1134.68 L28.3562 1128.79 L33.7671 1128.79 Q30.5842 1126.94 29.0564 1124.14 Q27.4968 1121.31 27.4968 1117.39 Q27.4968 1110.9 32.6531 1106.86 Q37.8093 1102.78 46.212 1102.78 Q54.6147 1102.78 59.771 1106.86 Q64.9272 1110.9 64.9272 1117.39 Q64.9272 1121.31 63.3994 1124.14 Q61.8398 1126.94 58.657 1128.79 M46.212 1108.86 Q39.7508 1108.86 36.0905 1111.54 Q32.3984 1114.18 32.3984 1118.82 Q32.3984 1123.47 36.0905 1126.15 Q39.7508 1128.79 46.212 1128.79 Q52.6732 1128.79 56.3653 1126.15 Q60.0256 1123.47 60.0256 1118.82 Q60.0256 1114.18 56.3653 1111.54 Q52.6732 1108.86 46.212 1108.86 Z" fill="#000000" fill-rule="nonzero" fill-opacity="1" /><path clip-path="url(#clip050)" d="M44.7161 1062.58 L47.5806 1062.58 L47.5806 1089.51 Q53.6281 1089.13 56.8109 1085.88 Q59.9619 1082.6 59.9619 1076.78 Q59.9619 1073.41 59.1344 1070.25 Q58.3069 1067.07 56.6518 1063.95 L62.1899 1063.95 Q63.5267 1067.1 64.227 1070.41 Q64.9272 1073.72 64.9272 1077.13 Q64.9272 1085.66 59.9619 1090.66 Q54.9967 1095.62 46.5303 1095.62 Q37.7774 1095.62 32.6531 1090.91 Q27.4968 1086.17 27.4968 1078.15 Q27.4968 1070.95 32.1438 1066.79 Q36.7589 1062.58 44.7161 1062.58 M42.9973 1068.44 Q38.1912 1068.5 35.3266 1071.15 Q32.4621 1073.76 32.4621 1078.08 Q32.4621 1082.99 35.2312 1085.95 Q38.0002 1088.87 43.0292 1089.32 L42.9973 1068.44 Z" fill="#000000" fill-rule="nonzero" fill-opacity="1" /><path clip-path="url(#clip050)" d="M33.8307 1032.31 Q33.2578 1033.3 33.0032 1034.48 Q32.7167 1035.62 32.7167 1037.03 Q32.7167 1041.99 35.9632 1044.66 Q39.1779 1047.31 45.2253 1047.31 L64.0042 1047.31 L64.0042 1053.19 L28.3562 1053.19 L28.3562 1047.31 L33.8944 1047.31 Q30.6479 1045.46 29.0883 1042.5 Q27.4968 1039.54 27.4968 1035.31 Q27.4968 1034.7 27.5923 1033.97 Q27.656 1033.24 27.8151 1032.35 L33.8307 1032.31 Z" fill="#000000" fill-rule="nonzero" fill-opacity="1" /><path clip-path="url(#clip050)" d="M42.4881 975.819 L64.0042 975.819 L64.0042 981.676 L42.679 981.676 Q37.6183 981.676 35.1038 983.649 Q32.5894 985.622 32.5894 989.569 Q32.5894 994.311 35.6131 997.049 Q38.6368 999.786 43.8567 999.786 L64.0042 999.786 L64.0042 1005.67 L28.3562 1005.67 L28.3562 999.786 L33.8944 999.786 Q30.6797 997.685 29.0883 994.853 Q27.4968 991.988 27.4968 988.264 Q27.4968 982.121 31.3163 978.97 Q35.1038 975.819 42.4881 975.819 Z" fill="#000000" fill-rule="nonzero" fill-opacity="1" /><path clip-path="url(#clip050)" d="M44.7161 933.646 L47.5806 933.646 L47.5806 960.573 Q53.6281 960.191 56.8109 956.945 Q59.9619 953.666 59.9619 947.842 Q59.9619 944.468 59.1344 941.317 Q58.3069 938.134 56.6518 935.015 L62.1899 935.015 Q63.5267 938.166 64.227 941.476 Q64.9272 944.786 64.9272 948.192 Q64.9272 956.722 59.9619 961.719 Q54.9967 966.684 46.5303 966.684 Q37.7774 966.684 32.6531 961.974 Q27.4968 957.231 27.4968 949.21 Q27.4968 942.017 32.1438 937.848 Q36.7589 933.646 44.7161 933.646 M42.9973 939.503 Q38.1912 939.566 35.3266 942.208 Q32.4621 944.818 32.4621 949.147 Q32.4621 954.048 35.2312 957.008 Q38.0002 959.937 43.0292 960.382 L42.9973 939.503 Z" fill="#000000" fill-rule="nonzero" fill-opacity="1" /><path clip-path="url(#clip050)" d="M49.9359 924.639 L28.3562 924.639 L28.3562 918.782 L49.7131 918.782 Q54.7739 918.782 57.3202 916.809 Q59.8346 914.836 59.8346 910.889 Q59.8346 906.146 56.8109 903.409 Q53.7872 900.64 48.5673 900.64 L28.3562 900.64 L28.3562 894.784 L64.0042 894.784 L64.0042 900.64 L58.5296 900.64 Q61.7762 902.773 63.3676 905.605 Q64.9272 908.406 64.9272 912.13 Q64.9272 918.273 61.1078 921.456 Q57.2883 924.639 49.9359 924.639 M27.4968 909.902 L27.4968 909.902 Z" fill="#000000" fill-rule="nonzero" fill-opacity="1" /><path clip-path="url(#clip050)" d="M18.2347 876.928 L28.3562 876.928 L28.3562 864.865 L32.9077 864.865 L32.9077 876.928 L52.2594 876.928 Q56.6199 876.928 57.8613 875.75 Q59.1026 874.541 59.1026 870.88 L59.1026 864.865 L64.0042 864.865 L64.0042 870.88 Q64.0042 877.66 61.4897 880.238 Q58.9434 882.816 52.2594 882.816 L32.9077 882.816 L32.9077 887.113 L28.3562 887.113 L28.3562 882.816 L18.2347 882.816 L18.2347 876.928 Z" fill="#000000" fill-rule="nonzero" fill-opacity="1" /><path clip-path="url(#clip050)" d="M33.8307 836.506 Q33.2578 837.492 33.0032 838.67 Q32.7167 839.816 32.7167 841.216 Q32.7167 846.181 35.9632 848.855 Q39.1779 851.497 45.2253 851.497 L64.0042 851.497 L64.0042 857.385 L28.3562 857.385 L28.3562 851.497 L33.8944 851.497 Q30.6479 849.651 29.0883 846.691 Q27.4968 843.731 27.4968 839.498 Q27.4968 838.893 27.5923 838.161 Q27.656 837.429 27.8151 836.537 L33.8307 836.506 Z" fill="#000000" fill-rule="nonzero" fill-opacity="1" /><path clip-path="url(#clip050)" d="M32.4621 817.981 Q32.4621 822.692 36.1542 825.429 Q39.8145 828.167 46.212 828.167 Q52.6095 828.167 56.3017 825.461 Q59.9619 822.724 59.9619 817.981 Q59.9619 813.303 56.2698 810.565 Q52.5777 807.828 46.212 807.828 Q39.8781 807.828 36.186 810.565 Q32.4621 813.303 32.4621 817.981 M27.4968 817.981 Q27.4968 810.343 32.4621 805.982 Q37.4273 801.622 46.212 801.622 Q54.9649 801.622 59.9619 805.982 Q64.9272 810.343 64.9272 817.981 Q64.9272 825.652 59.9619 830.013 Q54.9649 834.341 46.212 834.341 Q37.4273 834.341 32.4621 830.013 Q27.4968 825.652 27.4968 817.981 Z" fill="#000000" fill-rule="nonzero" fill-opacity="1" /><path clip-path="url(#clip050)" d="M42.4881 762.281 L64.0042 762.281 L64.0042 768.138 L42.679 768.138 Q37.6183 768.138 35.1038 770.111 Q32.5894 772.085 32.5894 776.031 Q32.5894 780.774 35.6131 783.511 Q38.6368 786.248 43.8567 786.248 L64.0042 786.248 L64.0042 792.137 L28.3562 792.137 L28.3562 786.248 L33.8944 786.248 Q30.6797 784.148 29.0883 781.315 Q27.4968 778.45 27.4968 774.726 Q27.4968 768.584 31.3163 765.433 Q35.1038 762.281 42.4881 762.281 Z" fill="#000000" fill-rule="nonzero" fill-opacity="1" /><path clip-path="url(#clip050)" d="M58.657 724.215 L77.5631 724.215 L77.5631 730.103 L28.3562 730.103 L28.3562 724.215 L33.7671 724.215 Q30.5842 722.369 29.0564 719.568 Q27.4968 716.735 27.4968 712.82 Q27.4968 706.327 32.6531 702.285 Q37.8093 698.211 46.212 698.211 Q54.6147 698.211 59.771 702.285 Q64.9272 706.327 64.9272 712.82 Q64.9272 716.735 63.3994 719.568 Q61.8398 722.369 58.657 724.215 M46.212 704.29 Q39.7508 704.29 36.0905 706.963 Q32.3984 709.605 32.3984 714.252 Q32.3984 718.899 36.0905 721.573 Q39.7508 724.215 46.212 724.215 Q52.6732 724.215 56.3653 721.573 Q60.0256 718.899 60.0256 714.252 Q60.0256 709.605 56.3653 706.963 Q52.6732 704.29 46.212 704.29 Z" fill="#000000" fill-rule="nonzero" fill-opacity="1" /><path clip-path="url(#clip050)" d="M44.7161 658.011 L47.5806 658.011 L47.5806 684.938 Q53.6281 684.556 56.8109 681.31 Q59.9619 678.031 59.9619 672.207 Q59.9619 668.833 59.1344 665.682 Q58.3069 662.499 56.6518 659.38 L62.1899 659.38 Q63.5267 662.531 64.227 665.841 Q64.9272 669.151 64.9272 672.557 Q64.9272 681.087 59.9619 686.084 Q54.9967 691.049 46.5303 691.049 Q37.7774 691.049 32.6531 686.339 Q27.4968 681.596 27.4968 673.575 Q27.4968 666.382 32.1438 662.213 Q36.7589 658.011 44.7161 658.011 M42.9973 663.868 Q38.1912 663.931 35.3266 666.573 Q32.4621 669.183 32.4621 673.512 Q32.4621 678.413 35.2312 681.373 Q38.0002 684.302 43.0292 684.747 L42.9973 663.868 Z" fill="#000000" fill-rule="nonzero" fill-opacity="1" /><path clip-path="url(#clip050)" d="M33.8307 627.742 Q33.2578 628.729 33.0032 629.907 Q32.7167 631.052 32.7167 632.453 Q32.7167 637.418 35.9632 640.092 Q39.1779 642.734 45.2253 642.734 L64.0042 642.734 L64.0042 648.622 L28.3562 648.622 L28.3562 642.734 L33.8944 642.734 Q30.6479 640.887 29.0883 637.927 Q27.4968 634.967 27.4968 630.734 Q27.4968 630.129 27.5923 629.397 Q27.656 628.665 27.8151 627.774 L33.8307 627.742 Z" fill="#000000" fill-rule="nonzero" fill-opacity="1" /><path clip-path="url(#clip050)" d="M29.4065 578.153 L34.9447 578.153 Q33.6716 580.636 33.035 583.31 Q32.3984 585.983 32.3984 588.848 Q32.3984 593.208 33.7352 595.404 Q35.072 597.569 37.7456 597.569 Q39.7826 597.569 40.9603 596.009 Q42.1061 594.45 43.1565 589.739 L43.6021 587.734 Q44.9389 581.495 47.3897 578.885 Q49.8086 576.244 54.1691 576.244 Q59.1344 576.244 62.0308 580.19 Q64.9272 584.105 64.9272 590.98 Q64.9272 593.845 64.3543 596.964 Q63.8132 600.051 62.6992 603.489 L56.6518 603.489 Q58.3387 600.242 59.198 597.091 Q60.0256 593.94 60.0256 590.853 Q60.0256 586.715 58.6251 584.487 Q57.1929 582.259 54.6147 582.259 Q52.2276 582.259 50.9545 583.883 Q49.6813 585.474 48.5037 590.917 L48.0262 592.954 Q46.8804 598.396 44.5251 600.815 Q42.138 603.234 38.0002 603.234 Q32.9713 603.234 30.2341 599.67 Q27.4968 596.105 27.4968 589.548 Q27.4968 586.302 27.9743 583.437 Q28.4517 580.572 29.4065 578.153 Z" fill="#000000" fill-rule="nonzero" fill-opacity="1" /><path clip-path="url(#clip050)" d="M29.7248 541.264 L35.1993 541.264 Q33.8307 543.747 33.1623 546.261 Q32.4621 548.744 32.4621 551.29 Q32.4621 556.987 36.0905 560.138 Q39.6872 563.289 46.212 563.289 Q52.7369 563.289 56.3653 560.138 Q59.9619 556.987 59.9619 551.29 Q59.9619 548.744 59.2935 546.261 Q58.5933 543.747 57.2247 541.264 L62.6355 541.264 Q63.7814 543.715 64.3543 546.357 Q64.9272 548.967 64.9272 551.927 Q64.9272 559.979 59.8664 564.722 Q54.8057 569.464 46.212 569.464 Q37.491 569.464 32.4939 564.69 Q27.4968 559.884 27.4968 551.545 Q27.4968 548.839 28.0697 546.261 Q28.6108 543.683 29.7248 541.264 Z" fill="#000000" fill-rule="nonzero" fill-opacity="1" /><path clip-path="url(#clip050)" d="M28.3562 531.079 L28.3562 525.223 L64.0042 525.223 L64.0042 531.079 L28.3562 531.079 M14.479 531.079 L14.479 525.223 L21.895 525.223 L21.895 531.079 L14.479 531.079 Z" fill="#000000" fill-rule="nonzero" fill-opacity="1" /><path clip-path="url(#clip050)" d="M42.4881 483.336 L64.0042 483.336 L64.0042 489.193 L42.679 489.193 Q37.6183 489.193 35.1038 491.166 Q32.5894 493.139 32.5894 497.086 Q32.5894 501.829 35.6131 504.566 Q38.6368 507.303 43.8567 507.303 L64.0042 507.303 L64.0042 513.191 L28.3562 513.191 L28.3562 507.303 L33.8944 507.303 Q30.6797 505.202 29.0883 502.37 Q27.4968 499.505 27.4968 495.781 Q27.4968 489.638 31.3163 486.487 Q35.1038 483.336 42.4881 483.336 Z" fill="#000000" fill-rule="nonzero" fill-opacity="1" /><path clip-path="url(#clip050)" d="M18.2347 465.862 L28.3562 465.862 L28.3562 453.799 L32.9077 453.799 L32.9077 465.862 L52.2594 465.862 Q56.6199 465.862 57.8613 464.685 Q59.1026 463.475 59.1026 459.815 L59.1026 453.799 L64.0042 453.799 L64.0042 459.815 Q64.0042 466.594 61.4897 469.173 Q58.9434 471.751 52.2594 471.751 L32.9077 471.751 L32.9077 476.047 L28.3562 476.047 L28.3562 471.751 L18.2347 471.751 L18.2347 465.862 Z" fill="#000000" fill-rule="nonzero" fill-opacity="1" /><path clip-path="url(#clip050)" d="M28.3562 446.097 L28.3562 440.24 L64.0042 440.24 L64.0042 446.097 L28.3562 446.097 M14.479 446.097 L14.479 440.24 L21.895 440.24 L21.895 446.097 L14.479 446.097 Z" fill="#000000" fill-rule="nonzero" fill-opacity="1" /><path clip-path="url(#clip050)" d="M14.479 427.986 L14.479 422.13 L64.0042 422.13 L64.0042 427.986 L14.479 427.986 Z" fill="#000000" fill-rule="nonzero" fill-opacity="1" /><path clip-path="url(#clip050)" d="M14.479 409.876 L14.479 404.02 L64.0042 404.02 L64.0042 409.876 L14.479 409.876 Z" fill="#000000" fill-rule="nonzero" fill-opacity="1" /><path clip-path="url(#clip050)" d="M46.0847 375.565 Q46.0847 382.663 47.7079 385.4 Q49.3312 388.137 53.2461 388.137 Q56.3653 388.137 58.2114 386.1 Q60.0256 384.031 60.0256 380.498 Q60.0256 375.628 56.5881 372.7 Q53.1188 369.74 47.3897 369.74 L46.0847 369.74 L46.0847 375.565 M43.6657 363.884 L64.0042 363.884 L64.0042 369.74 L58.5933 369.74 Q61.8398 371.745 63.3994 374.737 Q64.9272 377.729 64.9272 382.058 Q64.9272 387.532 61.8716 390.779 Q58.7843 393.994 53.6281 393.994 Q47.6125 393.994 44.5569 389.983 Q41.5014 385.941 41.5014 377.952 L41.5014 369.74 L40.9285 369.74 Q36.8862 369.74 34.6901 372.414 Q32.4621 375.056 32.4621 379.862 Q32.4621 382.917 33.1941 385.814 Q33.9262 388.71 35.3903 391.384 L29.9795 391.384 Q28.7381 388.169 28.1334 385.145 Q27.4968 382.121 27.4968 379.257 Q27.4968 371.523 31.5072 367.703 Q35.5176 363.884 43.6657 363.884 Z" fill="#000000" fill-rule="nonzero" fill-opacity="1" /><path clip-path="url(#clip050)" d="M18.2347 346.028 L28.3562 346.028 L28.3562 333.965 L32.9077 333.965 L32.9077 346.028 L52.2594 346.028 Q56.6199 346.028 57.8613 344.85 Q59.1026 343.641 59.1026 339.981 L59.1026 333.965 L64.0042 333.965 L64.0042 339.981 Q64.0042 346.76 61.4897 349.338 Q58.9434 351.916 52.2594 351.916 L32.9077 351.916 L32.9077 356.213 L28.3562 356.213 L28.3562 351.916 L18.2347 351.916 L18.2347 346.028 Z" fill="#000000" fill-rule="nonzero" fill-opacity="1" /><path clip-path="url(#clip050)" d="M32.4621 312.449 Q32.4621 317.159 36.1542 319.897 Q39.8145 322.634 46.212 322.634 Q52.6095 322.634 56.3017 319.929 Q59.9619 317.191 59.9619 312.449 Q59.9619 307.77 56.2698 305.033 Q52.5777 302.296 46.212 302.296 Q39.8781 302.296 36.186 305.033 Q32.4621 307.77 32.4621 312.449 M27.4968 312.449 Q27.4968 304.81 32.4621 300.449 Q37.4273 296.089 46.212 296.089 Q54.9649 296.089 59.9619 300.449 Q64.9272 304.81 64.9272 312.449 Q64.9272 320.12 59.9619 324.48 Q54.9649 328.809 46.212 328.809 Q37.4273 328.809 32.4621 324.48 Q27.4968 320.12 27.4968 312.449 Z" fill="#000000" fill-rule="nonzero" fill-opacity="1" /><path clip-path="url(#clip050)" d="M33.8307 265.725 Q33.2578 266.711 33.0032 267.889 Q32.7167 269.035 32.7167 270.435 Q32.7167 275.4 35.9632 278.074 Q39.1779 280.716 45.2253 280.716 L64.0042 280.716 L64.0042 286.604 L28.3562 286.604 L28.3562 280.716 L33.8944 280.716 Q30.6479 278.87 29.0883 275.91 Q27.4968 272.95 27.4968 268.716 Q27.4968 268.112 27.5923 267.38 Q27.656 266.648 27.8151 265.756 L33.8307 265.725 Z" fill="#000000" fill-rule="nonzero" fill-opacity="1" /><path clip-path="url(#clip050)" d="M58.657 233.196 L77.5631 233.196 L77.5631 239.084 L28.3562 239.084 L28.3562 233.196 L33.7671 233.196 Q30.5842 231.35 29.0564 228.549 Q27.4968 225.716 27.4968 221.801 Q27.4968 215.308 32.6531 211.266 Q37.8093 207.192 46.212 207.192 Q54.6147 207.192 59.771 211.266 Q64.9272 215.308 64.9272 221.801 Q64.9272 225.716 63.3994 228.549 Q61.8398 231.35 58.657 233.196 M46.212 213.271 Q39.7508 213.271 36.0905 215.945 Q32.3984 218.586 32.3984 223.233 Q32.3984 227.88 36.0905 230.554 Q39.7508 233.196 46.212 233.196 Q52.6732 233.196 56.3653 230.554 Q60.0256 227.88 60.0256 223.233 Q60.0256 218.586 56.3653 215.945 Q52.6732 213.271 46.212 213.271 Z" fill="#000000" fill-rule="nonzero" fill-opacity="1" /><path clip-path="url(#clip050)" d="M46.0847 181.283 Q46.0847 188.381 47.7079 191.118 Q49.3312 193.856 53.2461 193.856 Q56.3653 193.856 58.2114 191.819 Q60.0256 189.75 60.0256 186.217 Q60.0256 181.347 56.5881 178.419 Q53.1188 175.459 47.3897 175.459 L46.0847 175.459 L46.0847 181.283 M43.6657 169.602 L64.0042 169.602 L64.0042 175.459 L58.5933 175.459 Q61.8398 177.464 63.3994 180.456 Q64.9272 183.448 64.9272 187.776 Q64.9272 193.251 61.8716 196.497 Q58.7843 199.712 53.6281 199.712 Q47.6125 199.712 44.5569 195.702 Q41.5014 191.66 41.5014 183.671 L41.5014 175.459 L40.9285 175.459 Q36.8862 175.459 34.6901 178.132 Q32.4621 180.774 32.4621 185.58 Q32.4621 188.636 33.1941 191.532 Q33.9262 194.429 35.3903 197.102 L29.9795 197.102 Q28.7381 193.888 28.1334 190.864 Q27.4968 187.84 27.4968 184.976 Q27.4968 177.241 31.5072 173.422 Q35.5176 169.602 43.6657 169.602 Z" fill="#000000" fill-rule="nonzero" fill-opacity="1" /><path clip-path="url(#clip050)" d="M28.3562 157.539 L28.3562 151.683 L64.0042 151.683 L64.0042 157.539 L28.3562 157.539 M14.479 157.539 L14.479 151.683 L21.895 151.683 L21.895 157.539 L14.479 157.539 Z" fill="#000000" fill-rule="nonzero" fill-opacity="1" /><path clip-path="url(#clip050)" d="M33.8307 118.772 Q33.2578 119.759 33.0032 120.937 Q32.7167 122.082 32.7167 123.483 Q32.7167 128.448 35.9632 131.122 Q39.1779 133.763 45.2253 133.763 L64.0042 133.763 L64.0042 139.652 L28.3562 139.652 L28.3562 133.763 L33.8944 133.763 Q30.6479 131.917 29.0883 128.957 Q27.4968 125.997 27.4968 121.764 Q27.4968 121.159 27.5923 120.427 Q27.656 119.695 27.8151 118.804 L33.8307 118.772 Z" fill="#000000" fill-rule="nonzero" fill-opacity="1" /><path clip-path="url(#clip050)" d="M807.639 12.096 L845.879 12.096 L845.879 18.9825 L815.822 18.9825 L815.822 36.8875 L844.624 36.8875 L844.624 43.7741 L815.822 43.7741 L815.822 65.6895 L846.609 65.6895 L846.609 72.576 L807.639 72.576 L807.639 12.096 Z" fill="#000000" fill-rule="nonzero" fill-opacity="1" /><path clip-path="url(#clip050)" d="M882.702 9.54393 L882.702 15.7418 L875.573 15.7418 Q871.562 15.7418 869.982 17.3622 Q868.443 18.9825 868.443 23.1955 L868.443 27.2059 L880.717 27.2059 L880.717 32.9987 L868.443 32.9987 L868.443 72.576 L860.949 72.576 L860.949 32.9987 L853.819 32.9987 L853.819 27.2059 L860.949 27.2059 L860.949 24.0462 Q860.949 16.471 864.473 13.0277 Q867.997 9.54393 875.654 9.54393 L882.702 9.54393 Z" fill="#000000" fill-rule="nonzero" fill-opacity="1" /><path clip-path="url(#clip050)" d="M911.909 9.54393 L911.909 15.7418 L904.78 15.7418 Q900.769 15.7418 899.189 17.3622 Q897.65 18.9825 897.65 23.1955 L897.65 27.2059 L909.924 27.2059 L909.924 32.9987 L897.65 32.9987 L897.65 72.576 L890.156 72.576 L890.156 32.9987 L883.026 32.9987 L883.026 27.2059 L890.156 27.2059 L890.156 24.0462 Q890.156 16.471 893.68 13.0277 Q897.204 9.54393 904.861 9.54393 L911.909 9.54393 Z" fill="#000000" fill-rule="nonzero" fill-opacity="1" /><path clip-path="url(#clip050)" d="M918.148 27.2059 L925.601 27.2059 L925.601 72.576 L918.148 72.576 L918.148 27.2059 M918.148 9.54393 L925.601 9.54393 L925.601 18.9825 L918.148 18.9825 L918.148 9.54393 Z" fill="#000000" fill-rule="nonzero" fill-opacity="1" /><path clip-path="url(#clip050)" d="M973.847 28.9478 L973.847 35.9153 Q970.688 34.1734 967.488 33.3227 Q964.328 32.4315 961.087 32.4315 Q953.836 32.4315 949.826 37.0496 Q945.815 41.6271 945.815 49.9314 Q945.815 58.2358 949.826 62.8538 Q953.836 67.4314 961.087 67.4314 Q964.328 67.4314 967.488 66.5807 Q970.688 65.6895 973.847 63.9476 L973.847 70.8341 Q970.728 72.2924 967.366 73.0216 Q964.044 73.7508 960.277 73.7508 Q950.028 73.7508 943.992 67.3098 Q937.956 60.8689 937.956 49.9314 Q937.956 38.832 944.033 32.472 Q950.15 26.1121 960.763 26.1121 Q964.206 26.1121 967.488 26.8413 Q970.769 27.5299 973.847 28.9478 Z" fill="#000000" fill-rule="nonzero" fill-opacity="1" /><path clip-path="url(#clip050)" d="M986.81 27.2059 L994.264 27.2059 L994.264 72.576 L986.81 72.576 L986.81 27.2059 M986.81 9.54393 L994.264 9.54393 L994.264 18.9825 L986.81 18.9825 L986.81 9.54393 Z" fill="#000000" fill-rule="nonzero" fill-opacity="1" /><path clip-path="url(#clip050)" d="M1048.67 48.0275 L1048.67 51.6733 L1014.4 51.6733 Q1014.88 59.3701 1019.02 63.421 Q1023.19 67.4314 1030.6 67.4314 Q1034.89 67.4314 1038.91 66.3781 Q1042.96 65.3249 1046.93 63.2184 L1046.93 70.267 Q1042.92 71.9684 1038.7 72.8596 Q1034.49 73.7508 1030.16 73.7508 Q1019.3 73.7508 1012.94 67.4314 Q1006.62 61.1119 1006.62 50.3365 Q1006.62 39.1965 1012.61 32.6746 Q1018.65 26.1121 1028.86 26.1121 Q1038.01 26.1121 1043.32 32.0264 Q1048.67 37.9003 1048.67 48.0275 M1041.21 45.84 Q1041.13 39.7232 1037.77 36.0774 Q1034.45 32.4315 1028.94 32.4315 Q1022.7 32.4315 1018.93 35.9558 Q1015.21 39.4801 1014.64 45.8805 L1041.21 45.84 Z" fill="#000000" fill-rule="nonzero" fill-opacity="1" /><path clip-path="url(#clip050)" d="M1098.62 45.1919 L1098.62 72.576 L1091.16 72.576 L1091.16 45.4349 Q1091.16 38.994 1088.65 35.7938 Q1086.14 32.5936 1081.12 32.5936 Q1075.08 32.5936 1071.6 36.4419 Q1068.11 40.2903 1068.11 46.9338 L1068.11 72.576 L1060.62 72.576 L1060.62 27.2059 L1068.11 27.2059 L1068.11 34.2544 Q1070.79 30.163 1074.39 28.1376 Q1078.04 26.1121 1082.78 26.1121 Q1090.59 26.1121 1094.6 30.9732 Q1098.62 35.7938 1098.62 45.1919 Z" fill="#000000" fill-rule="nonzero" fill-opacity="1" /><path clip-path="url(#clip050)" d="M1146.13 28.9478 L1146.13 35.9153 Q1142.97 34.1734 1139.77 33.3227 Q1136.61 32.4315 1133.37 32.4315 Q1126.12 32.4315 1122.11 37.0496 Q1118.1 41.6271 1118.1 49.9314 Q1118.1 58.2358 1122.11 62.8538 Q1126.12 67.4314 1133.37 67.4314 Q1136.61 67.4314 1139.77 66.5807 Q1142.97 65.6895 1146.13 63.9476 L1146.13 70.8341 Q1143.01 72.2924 1139.65 73.0216 Q1136.33 73.7508 1132.56 73.7508 Q1122.31 73.7508 1116.28 67.3098 Q1110.24 60.8689 1110.24 49.9314 Q1110.24 38.832 1116.32 32.472 Q1122.43 26.1121 1133.05 26.1121 Q1136.49 26.1121 1139.77 26.8413 Q1143.05 27.5299 1146.13 28.9478 Z" fill="#000000" fill-rule="nonzero" fill-opacity="1" /><path clip-path="url(#clip050)" d="M1177.97 76.7889 Q1174.81 84.8907 1171.82 87.3618 Q1168.82 89.8329 1163.79 89.8329 L1157.84 89.8329 L1157.84 83.5945 L1162.21 83.5945 Q1165.29 83.5945 1166.99 82.1361 Q1168.7 80.6778 1170.76 75.2496 L1172.1 71.8468 L1153.75 27.2059 L1161.65 27.2059 L1175.83 62.6918 L1190 27.2059 L1197.9 27.2059 L1177.97 76.7889 Z" fill="#000000" fill-rule="nonzero" fill-opacity="1" /><path clip-path="url(#clip050)" d="M1241.77 65.7705 L1241.77 89.8329 L1234.28 89.8329 L1234.28 27.2059 L1241.77 27.2059 L1241.77 34.0924 Q1244.12 30.0415 1247.69 28.0971 Q1251.29 26.1121 1256.28 26.1121 Q1264.54 26.1121 1269.69 32.6746 Q1274.87 39.2371 1274.87 49.9314 Q1274.87 60.6258 1269.69 67.1883 Q1264.54 73.7508 1256.28 73.7508 Q1251.29 73.7508 1247.69 71.8063 Q1244.12 69.8214 1241.77 65.7705 M1267.13 49.9314 Q1267.13 41.7081 1263.73 37.0496 Q1260.37 32.3505 1254.45 32.3505 Q1248.54 32.3505 1245.14 37.0496 Q1241.77 41.7081 1241.77 49.9314 Q1241.77 58.1548 1245.14 62.8538 Q1248.54 67.5124 1254.45 67.5124 Q1260.37 67.5124 1263.73 62.8538 Q1267.13 58.1548 1267.13 49.9314 Z" fill="#000000" fill-rule="nonzero" fill-opacity="1" /><path clip-path="url(#clip050)" d="M1326.03 48.0275 L1326.03 51.6733 L1291.76 51.6733 Q1292.25 59.3701 1296.38 63.421 Q1300.55 67.4314 1307.97 67.4314 Q1312.26 67.4314 1316.27 66.3781 Q1320.32 65.3249 1324.29 63.2184 L1324.29 70.267 Q1320.28 71.9684 1316.07 72.8596 Q1311.85 73.7508 1307.52 73.7508 Q1296.66 73.7508 1290.3 67.4314 Q1283.98 61.1119 1283.98 50.3365 Q1283.98 39.1965 1289.98 32.6746 Q1296.02 26.1121 1306.22 26.1121 Q1315.38 26.1121 1320.69 32.0264 Q1326.03 37.9003 1326.03 48.0275 M1318.58 45.84 Q1318.5 39.7232 1315.14 36.0774 Q1311.81 32.4315 1306.31 32.4315 Q1300.07 32.4315 1296.3 35.9558 Q1292.57 39.4801 1292.01 45.8805 L1318.58 45.84 Z" fill="#000000" fill-rule="nonzero" fill-opacity="1" /><path clip-path="url(#clip050)" d="M1364.56 34.1734 Q1363.3 33.4443 1361.8 33.1202 Q1360.34 32.7556 1358.56 32.7556 Q1352.24 32.7556 1348.84 36.8875 Q1345.48 40.9789 1345.48 48.6757 L1345.48 72.576 L1337.98 72.576 L1337.98 27.2059 L1345.48 27.2059 L1345.48 34.2544 Q1347.83 30.1225 1351.59 28.1376 Q1355.36 26.1121 1360.75 26.1121 Q1361.52 26.1121 1362.45 26.2337 Q1363.38 26.3147 1364.52 26.5172 L1364.56 34.1734 Z" fill="#000000" fill-rule="nonzero" fill-opacity="1" /><path clip-path="url(#clip050)" d="M1427.67 28.5427 L1427.67 35.5912 Q1424.51 33.9709 1421.11 33.1607 Q1417.71 32.3505 1414.06 32.3505 Q1408.51 32.3505 1405.71 34.0519 Q1402.96 35.7533 1402.96 39.156 Q1402.96 41.7486 1404.94 43.2475 Q1406.93 44.7058 1412.92 46.0426 L1415.48 46.6097 Q1423.42 48.3111 1426.74 51.4303 Q1430.1 54.509 1430.1 60.0587 Q1430.1 66.3781 1425.08 70.0644 Q1420.1 73.7508 1411.35 73.7508 Q1407.7 73.7508 1403.73 73.0216 Q1399.8 72.3329 1395.43 70.9151 L1395.43 63.2184 Q1399.56 65.3654 1403.57 66.4591 Q1407.58 67.5124 1411.51 67.5124 Q1416.77 67.5124 1419.61 65.73 Q1422.44 63.9071 1422.44 60.6258 Q1422.44 57.5877 1420.38 55.9673 Q1418.35 54.3469 1411.43 52.8481 L1408.83 52.2405 Q1401.91 50.7821 1398.83 47.7845 Q1395.75 44.7463 1395.75 39.4801 Q1395.75 33.0797 1400.29 29.5959 Q1404.82 26.1121 1413.17 26.1121 Q1417.3 26.1121 1420.95 26.7198 Q1424.59 27.3274 1427.67 28.5427 Z" fill="#000000" fill-rule="nonzero" fill-opacity="1" /><path clip-path="url(#clip050)" d="M1474.62 28.9478 L1474.62 35.9153 Q1471.46 34.1734 1468.26 33.3227 Q1465.1 32.4315 1461.86 32.4315 Q1454.61 32.4315 1450.6 37.0496 Q1446.59 41.6271 1446.59 49.9314 Q1446.59 58.2358 1450.6 62.8538 Q1454.61 67.4314 1461.86 67.4314 Q1465.1 67.4314 1468.26 66.5807 Q1471.46 65.6895 1474.62 63.9476 L1474.62 70.8341 Q1471.5 72.2924 1468.14 73.0216 Q1464.82 73.7508 1461.05 73.7508 Q1450.8 73.7508 1444.77 67.3098 Q1438.73 60.8689 1438.73 49.9314 Q1438.73 38.832 1444.81 32.472 Q1450.92 26.1121 1461.54 26.1121 Q1464.98 26.1121 1468.26 26.8413 Q1471.54 27.5299 1474.62 28.9478 Z" fill="#000000" fill-rule="nonzero" fill-opacity="1" /><path clip-path="url(#clip050)" d="M1487.58 27.2059 L1495.04 27.2059 L1495.04 72.576 L1487.58 72.576 L1487.58 27.2059 M1487.58 9.54393 L1495.04 9.54393 L1495.04 18.9825 L1487.58 18.9825 L1487.58 9.54393 Z" fill="#000000" fill-rule="nonzero" fill-opacity="1" /><path clip-path="url(#clip050)" d="M1548.35 45.1919 L1548.35 72.576 L1540.89 72.576 L1540.89 45.4349 Q1540.89 38.994 1538.38 35.7938 Q1535.87 32.5936 1530.85 32.5936 Q1524.81 32.5936 1521.33 36.4419 Q1517.84 40.2903 1517.84 46.9338 L1517.84 72.576 L1510.35 72.576 L1510.35 27.2059 L1517.84 27.2059 L1517.84 34.2544 Q1520.52 30.163 1524.12 28.1376 Q1527.77 26.1121 1532.51 26.1121 Q1540.33 26.1121 1544.34 30.9732 Q1548.35 35.7938 1548.35 45.1919 Z" fill="#000000" fill-rule="nonzero" fill-opacity="1" /><path clip-path="url(#clip050)" d="M1570.59 14.324 L1570.59 27.2059 L1585.94 27.2059 L1585.94 32.9987 L1570.59 32.9987 L1570.59 57.6282 Q1570.59 63.1779 1572.09 64.7578 Q1573.62 66.3376 1578.28 66.3376 L1585.94 66.3376 L1585.94 72.576 L1578.28 72.576 Q1569.65 72.576 1566.37 69.3758 Q1563.09 66.1351 1563.09 57.6282 L1563.09 32.9987 L1557.62 32.9987 L1557.62 27.2059 L1563.09 27.2059 L1563.09 14.324 L1570.59 14.324 Z" fill="#000000" fill-rule="nonzero" fill-opacity="1" /><path clip-path="url(#clip050)" d="M1595.74 27.2059 L1603.2 27.2059 L1603.2 72.576 L1595.74 72.576 L1595.74 27.2059 M1595.74 9.54393 L1603.2 9.54393 L1603.2 18.9825 L1595.74 18.9825 L1595.74 9.54393 Z" fill="#000000" fill-rule="nonzero" fill-opacity="1" /><path clip-path="url(#clip050)" d="M1618.79 9.54393 L1626.25 9.54393 L1626.25 72.576 L1618.79 72.576 L1618.79 9.54393 Z" fill="#000000" fill-rule="nonzero" fill-opacity="1" /><path clip-path="url(#clip050)" d="M1641.84 9.54393 L1649.3 9.54393 L1649.3 72.576 L1641.84 72.576 L1641.84 9.54393 Z" fill="#000000" fill-rule="nonzero" fill-opacity="1" /><path clip-path="url(#clip050)" d="M1685.51 49.7694 Q1676.48 49.7694 1672.99 51.8354 Q1669.51 53.9013 1669.51 58.8839 Q1669.51 62.8538 1672.1 65.2034 Q1674.73 67.5124 1679.23 67.5124 Q1685.43 67.5124 1689.16 63.1374 Q1692.92 58.7219 1692.92 51.4303 L1692.92 49.7694 L1685.51 49.7694 M1700.38 46.6907 L1700.38 72.576 L1692.92 72.576 L1692.92 65.6895 Q1690.37 69.8214 1686.56 71.8063 Q1682.76 73.7508 1677.25 73.7508 Q1670.28 73.7508 1666.15 69.8619 Q1662.06 65.9325 1662.06 59.3701 Q1662.06 51.7138 1667.16 47.825 Q1672.3 43.9361 1682.47 43.9361 L1692.92 43.9361 L1692.92 43.2069 Q1692.92 38.0623 1689.52 35.2672 Q1686.16 32.4315 1680.04 32.4315 Q1676.15 32.4315 1672.47 33.3632 Q1668.78 34.295 1665.38 36.1584 L1665.38 29.2718 Q1669.47 27.692 1673.32 26.9223 Q1677.17 26.1121 1680.81 26.1121 Q1690.65 26.1121 1695.52 31.2163 Q1700.38 36.3204 1700.38 46.6907 Z" fill="#000000" fill-rule="nonzero" fill-opacity="1" /><path clip-path="url(#clip050)" d="M1723.1 14.324 L1723.1 27.2059 L1738.46 27.2059 L1738.46 32.9987 L1723.1 32.9987 L1723.1 57.6282 Q1723.1 63.1779 1724.6 64.7578 Q1726.14 66.3376 1730.8 66.3376 L1738.46 66.3376 L1738.46 72.576 L1730.8 72.576 Q1722.17 72.576 1718.89 69.3758 Q1715.61 66.1351 1715.61 57.6282 L1715.61 32.9987 L1710.14 32.9987 L1710.14 27.2059 L1715.61 27.2059 L1715.61 14.324 L1723.1 14.324 Z" fill="#000000" fill-rule="nonzero" fill-opacity="1" /><path clip-path="url(#clip050)" d="M1765.84 32.4315 Q1759.84 32.4315 1756.36 37.1306 Q1752.88 41.7891 1752.88 49.9314 Q1752.88 58.0738 1756.32 62.7728 Q1759.8 67.4314 1765.84 67.4314 Q1771.79 67.4314 1775.28 62.7323 Q1778.76 58.0333 1778.76 49.9314 Q1778.76 41.8701 1775.28 37.1711 Q1771.79 32.4315 1765.84 32.4315 M1765.84 26.1121 Q1775.56 26.1121 1781.11 32.4315 Q1786.66 38.7509 1786.66 49.9314 Q1786.66 61.0714 1781.11 67.4314 Q1775.56 73.7508 1765.84 73.7508 Q1756.08 73.7508 1750.53 67.4314 Q1745.02 61.0714 1745.02 49.9314 Q1745.02 38.7509 1750.53 32.4315 Q1756.08 26.1121 1765.84 26.1121 Z" fill="#000000" fill-rule="nonzero" fill-opacity="1" /><path clip-path="url(#clip050)" d="M1825.31 34.1734 Q1824.05 33.4443 1822.55 33.1202 Q1821.09 32.7556 1819.31 32.7556 Q1812.99 32.7556 1809.59 36.8875 Q1806.23 40.9789 1806.23 48.6757 L1806.23 72.576 L1798.73 72.576 L1798.73 27.2059 L1806.23 27.2059 L1806.23 34.2544 Q1808.58 30.1225 1812.34 28.1376 Q1816.11 26.1121 1821.5 26.1121 Q1822.27 26.1121 1823.2 26.2337 Q1824.13 26.3147 1825.27 26.5172 L1825.31 34.1734 Z" fill="#000000" fill-rule="nonzero" fill-opacity="1" /><polyline clip-path="url(#clip052)" style="stroke:#009af9; stroke-linecap:round; stroke-linejoin:round; stroke-width:4; stroke-opacity:1; fill:none" points="338.848,1386.4 556.098,1265.51 773.348,1121.6 990.598,989.209 1207.85,798.105 1425.1,715.221 1642.35,702.351 1859.6,422.423 2076.85,432.934 2294.1,160.256 "/>
<path clip-path="url(#clip050)" d="M349.276 270.476 L608.962 270.476 L608.962 166.796 L349.276 166.796  Z" fill="#ffffff" fill-rule="evenodd" fill-opacity="1"/>
<polyline clip-path="url(#clip050)" style="stroke:#000000; stroke-linecap:round; stroke-linejoin:round; stroke-width:4; stroke-opacity:1; fill:none" points="349.276,270.476 608.962,270.476 608.962,166.796 349.276,166.796 349.276,270.476 "/>
<polyline clip-path="url(#clip050)" style="stroke:#009af9; stroke-linecap:round; stroke-linejoin:round; stroke-width:4; stroke-opacity:1; fill:none" points="372.304,218.636 510.475,218.636 "/>
<path clip-path="url(#clip050)" d="M547.346 238.323 Q545.541 242.953 543.828 244.365 Q542.115 245.777 539.244 245.777 L535.842 245.777 L535.842 242.212 L538.342 242.212 Q540.101 242.212 541.073 241.379 Q542.045 240.545 543.226 237.443 L543.99 235.499 L533.504 209.99 L538.017 209.99 L546.119 230.268 L554.221 209.99 L558.735 209.99 L547.346 238.323 Z" fill="#000000" fill-rule="nonzero" fill-opacity="1" /><path clip-path="url(#clip050)" d="M566.027 231.981 L573.665 231.981 L573.665 205.615 L565.355 207.282 L565.355 203.022 L573.619 201.356 L578.295 201.356 L578.295 231.981 L585.934 231.981 L585.934 235.916 L566.027 235.916 L566.027 231.981 Z" fill="#000000" fill-rule="nonzero" fill-opacity="1" /></svg>
