<?xml version="1.0" encoding="utf-8"?>
<svg xmlns="http://www.w3.org/2000/svg" xmlns:xlink="http://www.w3.org/1999/xlink" width="600" height="400" viewBox="0 0 2400 1600">
<defs>
  <clipPath id="clip760">
    <rect x="0" y="0" width="2400" height="1600"/>
  </clipPath>
</defs>
<path clip-path="url(#clip760)" d="M0 1600 L2400 1600 L2400 0 L0 0  Z" fill="#ffffff" fill-rule="evenodd" fill-opacity="1"/>
<defs>
  <clipPath id="clip761">
    <rect x="480" y="0" width="1681" height="1600"/>
  </clipPath>
</defs>
<path clip-path="url(#clip760)" d="M369.569 1423.18 L2352.76 1423.18 L2352.76 123.472 L369.569 123.472  Z" fill="#ffffff" fill-rule="evenodd" fill-opacity="1"/>
<defs>
  <clipPath id="clip762">
    <rect x="369" y="123" width="1984" height="1301"/>
  </clipPath>
</defs>
<polyline clip-path="url(#clip762)" style="stroke:#000000; stroke-linecap:round; stroke-linejoin:round; stroke-width:2; stroke-opacity:0.1; fill:none" points="667.107,1423.18 667.107,123.472 "/>
<polyline clip-path="url(#clip762)" style="stroke:#000000; stroke-linecap:round; stroke-linejoin:round; stroke-width:2; stroke-opacity:0.1; fill:none" points="968.87,1423.18 968.87,123.472 "/>
<polyline clip-path="url(#clip762)" style="stroke:#000000; stroke-linecap:round; stroke-linejoin:round; stroke-width:2; stroke-opacity:0.1; fill:none" points="1270.63,1423.18 1270.63,123.472 "/>
<polyline clip-path="url(#clip762)" style="stroke:#000000; stroke-linecap:round; stroke-linejoin:round; stroke-width:2; stroke-opacity:0.1; fill:none" points="1572.4,1423.18 1572.4,123.472 "/>
<polyline clip-path="url(#clip762)" style="stroke:#000000; stroke-linecap:round; stroke-linejoin:round; stroke-width:2; stroke-opacity:0.1; fill:none" points="1874.16,1423.18 1874.16,123.472 "/>
<polyline clip-path="url(#clip762)" style="stroke:#000000; stroke-linecap:round; stroke-linejoin:round; stroke-width:2; stroke-opacity:0.1; fill:none" points="2175.92,1423.18 2175.92,123.472 "/>
<polyline clip-path="url(#clip762)" style="stroke:#000000; stroke-linecap:round; stroke-linejoin:round; stroke-width:2; stroke-opacity:0.1; fill:none" points="369.569,1387.9 2352.76,1387.9 "/>
<polyline clip-path="url(#clip762)" style="stroke:#000000; stroke-linecap:round; stroke-linejoin:round; stroke-width:2; stroke-opacity:0.1; fill:none" points="369.569,1031.89 2352.76,1031.89 "/>
<polyline clip-path="url(#clip762)" style="stroke:#000000; stroke-linecap:round; stroke-linejoin:round; stroke-width:2; stroke-opacity:0.1; fill:none" points="369.569,675.889 2352.76,675.889 "/>
<polyline clip-path="url(#clip762)" style="stroke:#000000; stroke-linecap:round; stroke-linejoin:round; stroke-width:2; stroke-opacity:0.1; fill:none" points="369.569,319.884 2352.76,319.884 "/>
<polyline clip-path="url(#clip760)" style="stroke:#000000; stroke-linecap:round; stroke-linejoin:round; stroke-width:4; stroke-opacity:1; fill:none" points="369.569,1423.18 2352.76,1423.18 "/>
<polyline clip-path="url(#clip760)" style="stroke:#000000; stroke-linecap:round; stroke-linejoin:round; stroke-width:4; stroke-opacity:1; fill:none" points="667.107,1423.18 667.107,1404.28 "/>
<polyline clip-path="url(#clip760)" style="stroke:#000000; stroke-linecap:round; stroke-linejoin:round; stroke-width:4; stroke-opacity:1; fill:none" points="968.87,1423.18 968.87,1404.28 "/>
<polyline clip-path="url(#clip760)" style="stroke:#000000; stroke-linecap:round; stroke-linejoin:round; stroke-width:4; stroke-opacity:1; fill:none" points="1270.63,1423.18 1270.63,1404.28 "/>
<polyline clip-path="url(#clip760)" style="stroke:#000000; stroke-linecap:round; stroke-linejoin:round; stroke-width:4; stroke-opacity:1; fill:none" points="1572.4,1423.18 1572.4,1404.28 "/>
<polyline clip-path="url(#clip760)" style="stroke:#000000; stroke-linecap:round; stroke-linejoin:round; stroke-width:4; stroke-opacity:1; fill:none" points="1874.16,1423.18 1874.16,1404.28 "/>
<polyline clip-path="url(#clip760)" style="stroke:#000000; stroke-linecap:round; stroke-linejoin:round; stroke-width:4; stroke-opacity:1; fill:none" points="2175.92,1423.18 2175.92,1404.28 "/>
<path clip-path="url(#clip760)" d="M657.385 1451.02 L675.741 1451.02 L675.741 1454.96 L661.667 1454.96 L661.667 1463.43 Q662.686 1463.08 663.705 1462.92 Q664.723 1462.73 665.742 1462.73 Q671.529 1462.73 674.908 1465.9 Q678.288 1469.08 678.288 1474.49 Q678.288 1480.07 674.816 1483.17 Q671.343 1486.25 665.024 1486.25 Q662.848 1486.25 660.58 1485.88 Q658.334 1485.51 655.927 1484.77 L655.927 1480.07 Q658.01 1481.2 660.232 1481.76 Q662.455 1482.32 664.931 1482.32 Q668.936 1482.32 671.274 1480.21 Q673.612 1478.1 673.612 1474.49 Q673.612 1470.88 671.274 1468.77 Q668.936 1466.67 664.931 1466.67 Q663.056 1466.67 661.181 1467.08 Q659.33 1467.5 657.385 1468.38 L657.385 1451.02 Z" fill="#000000" fill-rule="nonzero" fill-opacity="1" /><path clip-path="url(#clip760)" d="M943.558 1481.64 L951.197 1481.64 L951.197 1455.28 L942.887 1456.95 L942.887 1452.69 L951.151 1451.02 L955.826 1451.02 L955.826 1481.64 L963.465 1481.64 L963.465 1485.58 L943.558 1485.58 L943.558 1481.64 Z" fill="#000000" fill-rule="nonzero" fill-opacity="1" /><path clip-path="url(#clip760)" d="M982.91 1454.1 Q979.299 1454.1 977.47 1457.66 Q975.664 1461.2 975.664 1468.33 Q975.664 1475.44 977.47 1479.01 Q979.299 1482.55 982.91 1482.55 Q986.544 1482.55 988.349 1479.01 Q990.178 1475.44 990.178 1468.33 Q990.178 1461.2 988.349 1457.66 Q986.544 1454.1 982.91 1454.1 M982.91 1450.39 Q988.72 1450.39 991.775 1455 Q994.854 1459.58 994.854 1468.33 Q994.854 1477.06 991.775 1481.67 Q988.72 1486.25 982.91 1486.25 Q977.099 1486.25 974.021 1481.67 Q970.965 1477.06 970.965 1468.33 Q970.965 1459.58 974.021 1455 Q977.099 1450.39 982.91 1450.39 Z" fill="#000000" fill-rule="nonzero" fill-opacity="1" /><path clip-path="url(#clip760)" d="M1245.82 1481.64 L1253.46 1481.64 L1253.46 1455.28 L1245.15 1456.95 L1245.15 1452.69 L1253.41 1451.02 L1258.09 1451.02 L1258.09 1481.64 L1265.73 1481.64 L1265.73 1485.58 L1245.82 1485.58 L1245.82 1481.64 Z" fill="#000000" fill-rule="nonzero" fill-opacity="1" /><path clip-path="url(#clip760)" d="M1275.22 1451.02 L1293.57 1451.02 L1293.57 1454.96 L1279.5 1454.96 L1279.5 1463.43 Q1280.52 1463.08 1281.54 1462.92 Q1282.55 1462.73 1283.57 1462.73 Q1289.36 1462.73 1292.74 1465.9 Q1296.12 1469.08 1296.12 1474.49 Q1296.12 1480.07 1292.65 1483.17 Q1289.18 1486.25 1282.86 1486.25 Q1280.68 1486.25 1278.41 1485.88 Q1276.17 1485.51 1273.76 1484.77 L1273.76 1480.07 Q1275.84 1481.2 1278.06 1481.76 Q1280.29 1482.32 1282.76 1482.32 Q1286.77 1482.32 1289.11 1480.21 Q1291.44 1478.1 1291.44 1474.49 Q1291.44 1470.88 1289.11 1468.77 Q1286.77 1466.67 1282.76 1466.67 Q1280.89 1466.67 1279.01 1467.08 Q1277.16 1467.5 1275.22 1468.38 L1275.22 1451.02 Z" fill="#000000" fill-rule="nonzero" fill-opacity="1" /><path clip-path="url(#clip760)" d="M1551.17 1481.64 L1567.49 1481.64 L1567.49 1485.58 L1545.54 1485.58 L1545.54 1481.64 Q1548.21 1478.89 1552.79 1474.26 Q1557.4 1469.61 1558.58 1468.27 Q1560.82 1465.74 1561.7 1464.01 Q1562.6 1462.25 1562.6 1460.56 Q1562.6 1457.8 1560.66 1456.07 Q1558.74 1454.33 1555.64 1454.33 Q1553.44 1454.33 1550.98 1455.09 Q1548.55 1455.86 1545.78 1457.41 L1545.78 1452.69 Q1548.6 1451.55 1551.05 1450.97 Q1553.51 1450.39 1555.54 1450.39 Q1560.92 1450.39 1564.11 1453.08 Q1567.3 1455.77 1567.3 1460.26 Q1567.3 1462.39 1566.49 1464.31 Q1565.71 1466.2 1563.6 1468.8 Q1563.02 1469.47 1559.92 1472.69 Q1556.82 1475.88 1551.17 1481.64 Z" fill="#000000" fill-rule="nonzero" fill-opacity="1" /><path clip-path="url(#clip760)" d="M1587.3 1454.1 Q1583.69 1454.1 1581.86 1457.66 Q1580.06 1461.2 1580.06 1468.33 Q1580.06 1475.44 1581.86 1479.01 Q1583.69 1482.55 1587.3 1482.55 Q1590.94 1482.55 1592.74 1479.01 Q1594.57 1475.44 1594.57 1468.33 Q1594.57 1461.2 1592.74 1457.66 Q1590.94 1454.1 1587.3 1454.1 M1587.3 1450.39 Q1593.11 1450.39 1596.17 1455 Q1599.25 1459.58 1599.25 1468.33 Q1599.25 1477.06 1596.17 1481.67 Q1593.11 1486.25 1587.3 1486.25 Q1581.49 1486.25 1578.42 1481.67 Q1575.36 1477.06 1575.36 1468.33 Q1575.36 1459.58 1578.42 1455 Q1581.49 1450.39 1587.3 1450.39 Z" fill="#000000" fill-rule="nonzero" fill-opacity="1" /><path clip-path="url(#clip760)" d="M1853.43 1481.64 L1869.75 1481.64 L1869.75 1485.58 L1847.81 1485.58 L1847.81 1481.64 Q1850.47 1478.89 1855.05 1474.26 Q1859.66 1469.61 1860.84 1468.27 Q1863.08 1465.74 1863.96 1464.01 Q1864.87 1462.25 1864.87 1460.56 Q1864.87 1457.8 1862.92 1456.07 Q1861 1454.33 1857.9 1454.33 Q1855.7 1454.33 1853.25 1455.09 Q1850.81 1455.86 1848.04 1457.41 L1848.04 1452.69 Q1850.86 1451.55 1853.31 1450.97 Q1855.77 1450.39 1857.81 1450.39 Q1863.18 1450.39 1866.37 1453.08 Q1869.56 1455.77 1869.56 1460.26 Q1869.56 1462.39 1868.75 1464.31 Q1867.97 1466.2 1865.86 1468.8 Q1865.28 1469.47 1862.18 1472.69 Q1859.08 1475.88 1853.43 1481.64 Z" fill="#000000" fill-rule="nonzero" fill-opacity="1" /><path clip-path="url(#clip760)" d="M1879.61 1451.02 L1897.97 1451.02 L1897.97 1454.96 L1883.89 1454.96 L1883.89 1463.43 Q1884.91 1463.08 1885.93 1462.92 Q1886.95 1462.73 1887.97 1462.73 Q1893.75 1462.73 1897.13 1465.9 Q1900.51 1469.08 1900.51 1474.49 Q1900.51 1480.07 1897.04 1483.17 Q1893.57 1486.25 1887.25 1486.25 Q1885.07 1486.25 1882.81 1485.88 Q1880.56 1485.51 1878.15 1484.77 L1878.15 1480.07 Q1880.24 1481.2 1882.46 1481.76 Q1884.68 1482.32 1887.16 1482.32 Q1891.16 1482.32 1893.5 1480.21 Q1895.84 1478.1 1895.84 1474.49 Q1895.84 1470.88 1893.5 1468.77 Q1891.16 1466.67 1887.16 1466.67 Q1885.28 1466.67 1883.41 1467.08 Q1881.56 1467.5 1879.61 1468.38 L1879.61 1451.02 Z" fill="#000000" fill-rule="nonzero" fill-opacity="1" /><path clip-path="url(#clip760)" d="M2164.77 1466.95 Q2168.12 1467.66 2170 1469.93 Q2171.89 1472.2 2171.89 1475.53 Q2171.89 1480.65 2168.38 1483.45 Q2164.86 1486.25 2158.38 1486.25 Q2156.2 1486.25 2153.89 1485.81 Q2151.59 1485.39 2149.14 1484.54 L2149.14 1480.02 Q2151.08 1481.16 2153.4 1481.74 Q2155.71 1482.32 2158.24 1482.32 Q2162.64 1482.32 2164.93 1480.58 Q2167.24 1478.84 2167.24 1475.53 Q2167.24 1472.48 2165.09 1470.77 Q2162.96 1469.03 2159.14 1469.03 L2155.11 1469.03 L2155.11 1465.19 L2159.33 1465.19 Q2162.77 1465.19 2164.6 1463.82 Q2166.43 1462.43 2166.43 1459.84 Q2166.43 1457.18 2164.53 1455.77 Q2162.66 1454.33 2159.14 1454.33 Q2157.22 1454.33 2155.02 1454.75 Q2152.82 1455.16 2150.18 1456.04 L2150.18 1451.88 Q2152.84 1451.14 2155.16 1450.77 Q2157.5 1450.39 2159.56 1450.39 Q2164.88 1450.39 2167.98 1452.83 Q2171.08 1455.23 2171.08 1459.35 Q2171.08 1462.22 2169.44 1464.21 Q2167.8 1466.18 2164.77 1466.95 Z" fill="#000000" fill-rule="nonzero" fill-opacity="1" /><path clip-path="url(#clip760)" d="M2190.76 1454.1 Q2187.15 1454.1 2185.32 1457.66 Q2183.52 1461.2 2183.52 1468.33 Q2183.52 1475.44 2185.32 1479.01 Q2187.15 1482.55 2190.76 1482.55 Q2194.39 1482.55 2196.2 1479.01 Q2198.03 1475.44 2198.03 1468.33 Q2198.03 1461.2 2196.2 1457.66 Q2194.39 1454.1 2190.76 1454.1 M2190.76 1450.39 Q2196.57 1450.39 2199.63 1455 Q2202.7 1459.58 2202.7 1468.33 Q2202.7 1477.06 2199.63 1481.67 Q2196.57 1486.25 2190.76 1486.25 Q2184.95 1486.25 2181.87 1481.67 Q2178.82 1477.06 2178.82 1468.33 Q2178.82 1459.58 2181.87 1455 Q2184.95 1450.39 2190.76 1450.39 Z" fill="#000000" fill-rule="nonzero" fill-opacity="1" /><path clip-path="url(#clip760)" d="M1130.68 1522.08 L1130.68 1528.35 Q1127.02 1526.6 1123.77 1525.74 Q1120.52 1524.88 1117.5 1524.88 Q1112.25 1524.88 1109.38 1526.92 Q1106.55 1528.96 1106.55 1532.71 Q1106.55 1535.87 1108.43 1537.49 Q1110.34 1539.08 1115.62 1540.07 L1119.5 1540.86 Q1126.7 1542.23 1130.1 1545.7 Q1133.54 1549.14 1133.54 1554.93 Q1133.54 1561.84 1128.89 1565.4 Q1124.28 1568.97 1115.33 1568.97 Q1111.96 1568.97 1108.14 1568.2 Q1104.35 1567.44 1100.28 1565.94 L1100.28 1559.32 Q1104.19 1561.52 1107.95 1562.63 Q1111.71 1563.75 1115.33 1563.75 Q1120.84 1563.75 1123.83 1561.58 Q1126.82 1559.42 1126.82 1555.41 Q1126.82 1551.91 1124.66 1549.93 Q1122.53 1547.96 1117.63 1546.97 L1113.71 1546.21 Q1106.52 1544.78 1103.3 1541.72 Q1100.09 1538.67 1100.09 1533.22 Q1100.09 1526.92 1104.51 1523.29 Q1108.97 1519.66 1116.77 1519.66 Q1120.11 1519.66 1123.58 1520.27 Q1127.05 1520.87 1130.68 1522.08 Z" fill="#000000" fill-rule="nonzero" fill-opacity="1" /><path clip-path="url(#clip760)" d="M1168.97 1533.76 L1168.97 1539.24 Q1166.48 1537.87 1163.97 1537.2 Q1161.49 1536.5 1158.94 1536.5 Q1153.24 1536.5 1150.09 1540.13 Q1146.94 1543.73 1146.94 1550.25 Q1146.94 1556.78 1150.09 1560.4 Q1153.24 1564 1158.94 1564 Q1161.49 1564 1163.97 1563.33 Q1166.48 1562.63 1168.97 1561.26 L1168.97 1566.68 Q1166.51 1567.82 1163.87 1568.39 Q1161.26 1568.97 1158.3 1568.97 Q1150.25 1568.97 1145.51 1563.91 Q1140.77 1558.85 1140.77 1550.25 Q1140.77 1541.53 1145.54 1536.53 Q1150.35 1531.54 1158.69 1531.54 Q1161.39 1531.54 1163.97 1532.11 Q1166.55 1532.65 1168.97 1533.76 Z" fill="#000000" fill-rule="nonzero" fill-opacity="1" /><path clip-path="url(#clip760)" d="M1179.15 1532.4 L1185.01 1532.4 L1185.01 1568.04 L1179.15 1568.04 L1179.15 1532.4 M1179.15 1518.52 L1185.01 1518.52 L1185.01 1525.93 L1179.15 1525.93 L1179.15 1518.52 Z" fill="#000000" fill-rule="nonzero" fill-opacity="1" /><path clip-path="url(#clip760)" d="M1226.89 1546.53 L1226.89 1568.04 L1221.04 1568.04 L1221.04 1546.72 Q1221.04 1541.66 1219.06 1539.14 Q1217.09 1536.63 1213.14 1536.63 Q1208.4 1536.63 1205.66 1539.65 Q1202.93 1542.68 1202.93 1547.9 L1202.93 1568.04 L1197.04 1568.04 L1197.04 1532.4 L1202.93 1532.4 L1202.93 1537.93 Q1205.03 1534.72 1207.86 1533.13 Q1210.72 1531.54 1214.45 1531.54 Q1220.59 1531.54 1223.74 1535.36 Q1226.89 1539.14 1226.89 1546.53 Z" fill="#000000" fill-rule="nonzero" fill-opacity="1" /><path clip-path="url(#clip760)" d="M1244.37 1522.27 L1244.37 1532.4 L1256.43 1532.4 L1256.43 1536.95 L1244.37 1536.95 L1244.37 1556.3 Q1244.37 1560.66 1245.55 1561.9 Q1246.75 1563.14 1250.42 1563.14 L1256.43 1563.14 L1256.43 1568.04 L1250.42 1568.04 Q1243.64 1568.04 1241.06 1565.53 Q1238.48 1562.98 1238.48 1556.3 L1238.48 1536.95 L1234.18 1536.95 L1234.18 1532.4 L1238.48 1532.4 L1238.48 1522.27 L1244.37 1522.27 Z" fill="#000000" fill-rule="nonzero" fill-opacity="1" /><path clip-path="url(#clip760)" d="M1264.13 1532.4 L1269.99 1532.4 L1269.99 1568.04 L1264.13 1568.04 L1264.13 1532.4 M1264.13 1518.52 L1269.99 1518.52 L1269.99 1525.93 L1264.13 1525.93 L1264.13 1518.52 Z" fill="#000000" fill-rule="nonzero" fill-opacity="1" /><path clip-path="url(#clip760)" d="M1282.24 1518.52 L1288.1 1518.52 L1288.1 1568.04 L1282.24 1568.04 L1282.24 1518.52 Z" fill="#000000" fill-rule="nonzero" fill-opacity="1" /><path clip-path="url(#clip760)" d="M1300.35 1518.52 L1306.21 1518.52 L1306.21 1568.04 L1300.35 1568.04 L1300.35 1518.52 Z" fill="#000000" fill-rule="nonzero" fill-opacity="1" /><path clip-path="url(#clip760)" d="M1334.67 1550.12 Q1327.57 1550.12 1324.83 1551.75 Q1322.09 1553.37 1322.09 1557.29 Q1322.09 1560.4 1324.13 1562.25 Q1326.2 1564.07 1329.73 1564.07 Q1334.6 1564.07 1337.53 1560.63 Q1340.49 1557.16 1340.49 1551.43 L1340.49 1550.12 L1334.67 1550.12 M1346.35 1547.71 L1346.35 1568.04 L1340.49 1568.04 L1340.49 1562.63 Q1338.48 1565.88 1335.49 1567.44 Q1332.5 1568.97 1328.17 1568.97 Q1322.7 1568.97 1319.45 1565.91 Q1316.24 1562.82 1316.24 1557.67 Q1316.24 1551.65 1320.25 1548.6 Q1324.29 1545.54 1332.28 1545.54 L1340.49 1545.54 L1340.49 1544.97 Q1340.49 1540.93 1337.82 1538.73 Q1335.17 1536.5 1330.37 1536.5 Q1327.31 1536.5 1324.42 1537.23 Q1321.52 1537.97 1318.85 1539.43 L1318.85 1534.02 Q1322.06 1532.78 1325.08 1532.17 Q1328.11 1531.54 1330.97 1531.54 Q1338.71 1531.54 1342.53 1535.55 Q1346.35 1539.56 1346.35 1547.71 Z" fill="#000000" fill-rule="nonzero" fill-opacity="1" /><path clip-path="url(#clip760)" d="M1364.2 1522.27 L1364.2 1532.4 L1376.27 1532.4 L1376.27 1536.95 L1364.2 1536.95 L1364.2 1556.3 Q1364.2 1560.66 1365.38 1561.9 Q1366.59 1563.14 1370.25 1563.14 L1376.27 1563.14 L1376.27 1568.04 L1370.25 1568.04 Q1363.47 1568.04 1360.89 1565.53 Q1358.31 1562.98 1358.31 1556.3 L1358.31 1536.95 L1354.02 1536.95 L1354.02 1532.4 L1358.31 1532.4 L1358.31 1522.27 L1364.2 1522.27 Z" fill="#000000" fill-rule="nonzero" fill-opacity="1" /><path clip-path="url(#clip760)" d="M1397.78 1536.5 Q1393.07 1536.5 1390.33 1540.19 Q1387.6 1543.85 1387.6 1550.25 Q1387.6 1556.65 1390.3 1560.34 Q1393.04 1564 1397.78 1564 Q1402.46 1564 1405.2 1560.31 Q1407.93 1556.62 1407.93 1550.25 Q1407.93 1543.92 1405.2 1540.23 Q1402.46 1536.5 1397.78 1536.5 M1397.78 1531.54 Q1405.42 1531.54 1409.78 1536.5 Q1414.14 1541.47 1414.14 1550.25 Q1414.14 1559 1409.78 1564 Q1405.42 1568.97 1397.78 1568.97 Q1390.11 1568.97 1385.75 1564 Q1381.42 1559 1381.42 1550.25 Q1381.42 1541.47 1385.75 1536.5 Q1390.11 1531.54 1397.78 1531.54 Z" fill="#000000" fill-rule="nonzero" fill-opacity="1" /><path clip-path="url(#clip760)" d="M1444.51 1537.87 Q1443.52 1537.3 1442.34 1537.04 Q1441.2 1536.76 1439.79 1536.76 Q1434.83 1536.76 1432.16 1540 Q1429.51 1543.22 1429.51 1549.27 L1429.51 1568.04 L1423.63 1568.04 L1423.63 1532.4 L1429.51 1532.4 L1429.51 1537.93 Q1431.36 1534.69 1434.32 1533.13 Q1437.28 1531.54 1441.51 1531.54 Q1442.12 1531.54 1442.85 1531.63 Q1443.58 1531.7 1444.47 1531.85 L1444.51 1537.87 Z" fill="#000000" fill-rule="nonzero" fill-opacity="1" /><path clip-path="url(#clip760)" d="M1477.03 1562.7 L1477.03 1581.6 L1471.15 1581.6 L1471.15 1532.4 L1477.03 1532.4 L1477.03 1537.81 Q1478.88 1534.62 1481.68 1533.1 Q1484.51 1531.54 1488.43 1531.54 Q1494.92 1531.54 1498.96 1536.69 Q1503.04 1541.85 1503.04 1550.25 Q1503.04 1558.65 1498.96 1563.81 Q1494.92 1568.97 1488.43 1568.97 Q1484.51 1568.97 1481.68 1567.44 Q1478.88 1565.88 1477.03 1562.7 M1496.96 1550.25 Q1496.96 1543.79 1494.29 1540.13 Q1491.64 1536.44 1487 1536.44 Q1482.35 1536.44 1479.68 1540.13 Q1477.03 1543.79 1477.03 1550.25 Q1477.03 1556.71 1479.68 1560.4 Q1482.35 1564.07 1487 1564.07 Q1491.64 1564.07 1494.29 1560.4 Q1496.96 1556.71 1496.96 1550.25 Z" fill="#000000" fill-rule="nonzero" fill-opacity="1" /><path clip-path="url(#clip760)" d="M1528.95 1550.12 Q1521.85 1550.12 1519.11 1551.75 Q1516.37 1553.37 1516.37 1557.29 Q1516.37 1560.4 1518.41 1562.25 Q1520.48 1564.07 1524.01 1564.07 Q1528.88 1564.07 1531.81 1560.63 Q1534.77 1557.16 1534.77 1551.43 L1534.77 1550.12 L1528.95 1550.12 M1540.63 1547.71 L1540.63 1568.04 L1534.77 1568.04 L1534.77 1562.63 Q1532.77 1565.88 1529.77 1567.44 Q1526.78 1568.97 1522.45 1568.97 Q1516.98 1568.97 1513.73 1565.91 Q1510.52 1562.82 1510.52 1557.67 Q1510.52 1551.65 1514.53 1548.6 Q1518.57 1545.54 1526.56 1545.54 L1534.77 1545.54 L1534.77 1544.97 Q1534.77 1540.93 1532.1 1538.73 Q1529.46 1536.5 1524.65 1536.5 Q1521.59 1536.5 1518.7 1537.23 Q1515.8 1537.97 1513.13 1539.43 L1513.13 1534.02 Q1516.34 1532.78 1519.37 1532.17 Q1522.39 1531.54 1525.25 1531.54 Q1532.99 1531.54 1536.81 1535.55 Q1540.63 1539.56 1540.63 1547.71 Z" fill="#000000" fill-rule="nonzero" fill-opacity="1" /><path clip-path="url(#clip760)" d="M1552.69 1532.4 L1558.55 1532.4 L1558.55 1568.04 L1552.69 1568.04 L1552.69 1532.4 M1552.69 1518.52 L1558.55 1518.52 L1558.55 1525.93 L1552.69 1525.93 L1552.69 1518.52 Z" fill="#000000" fill-rule="nonzero" fill-opacity="1" /><path clip-path="url(#clip760)" d="M1591.46 1537.87 Q1590.47 1537.3 1589.29 1537.04 Q1588.15 1536.76 1586.75 1536.76 Q1581.78 1536.76 1579.11 1540 Q1576.47 1543.22 1576.47 1549.27 L1576.47 1568.04 L1570.58 1568.04 L1570.58 1532.4 L1576.47 1532.4 L1576.47 1537.93 Q1578.31 1534.69 1581.27 1533.13 Q1584.23 1531.54 1588.47 1531.54 Q1589.07 1531.54 1589.8 1531.63 Q1590.53 1531.7 1591.43 1531.85 L1591.46 1537.87 Z" fill="#000000" fill-rule="nonzero" fill-opacity="1" /><path clip-path="url(#clip760)" d="M1620.33 1533.45 L1620.33 1538.98 Q1617.84 1537.71 1615.17 1537.07 Q1612.5 1536.44 1609.63 1536.44 Q1605.27 1536.44 1603.08 1537.77 Q1600.91 1539.11 1600.91 1541.79 Q1600.91 1543.82 1602.47 1545 Q1604.03 1546.15 1608.74 1547.2 L1610.75 1547.64 Q1616.98 1548.98 1619.59 1551.43 Q1622.24 1553.85 1622.24 1558.21 Q1622.24 1563.17 1618.29 1566.07 Q1614.37 1568.97 1607.5 1568.97 Q1604.63 1568.97 1601.52 1568.39 Q1598.43 1567.85 1594.99 1566.74 L1594.99 1560.69 Q1598.24 1562.38 1601.39 1563.24 Q1604.54 1564.07 1607.63 1564.07 Q1611.76 1564.07 1613.99 1562.66 Q1616.22 1561.23 1616.22 1558.65 Q1616.22 1556.27 1614.6 1554.99 Q1613.01 1553.72 1607.56 1552.54 L1605.53 1552.07 Q1600.08 1550.92 1597.66 1548.56 Q1595.25 1546.18 1595.25 1542.04 Q1595.25 1537.01 1598.81 1534.27 Q1602.37 1531.54 1608.93 1531.54 Q1612.18 1531.54 1615.04 1532.01 Q1617.91 1532.49 1620.33 1533.45 Z" fill="#000000" fill-rule="nonzero" fill-opacity="1" /><polyline clip-path="url(#clip760)" style="stroke:#000000; stroke-linecap:round; stroke-linejoin:round; stroke-width:4; stroke-opacity:1; fill:none" points="369.569,1423.18 369.569,123.472 "/>
<polyline clip-path="url(#clip760)" style="stroke:#000000; stroke-linecap:round; stroke-linejoin:round; stroke-width:4; stroke-opacity:1; fill:none" points="369.569,1387.9 388.467,1387.9 "/>
<polyline clip-path="url(#clip760)" style="stroke:#000000; stroke-linecap:round; stroke-linejoin:round; stroke-width:4; stroke-opacity:1; fill:none" points="369.569,1031.89 388.467,1031.89 "/>
<polyline clip-path="url(#clip760)" style="stroke:#000000; stroke-linecap:round; stroke-linejoin:round; stroke-width:4; stroke-opacity:1; fill:none" points="369.569,675.889 388.467,675.889 "/>
<polyline clip-path="url(#clip760)" style="stroke:#000000; stroke-linecap:round; stroke-linejoin:round; stroke-width:4; stroke-opacity:1; fill:none" points="369.569,319.884 388.467,319.884 "/>
<path clip-path="url(#clip760)" d="M321.624 1373.7 Q318.013 1373.7 316.185 1377.26 Q314.379 1380.8 314.379 1387.93 Q314.379 1395.04 316.185 1398.61 Q318.013 1402.15 321.624 1402.15 Q325.259 1402.15 327.064 1398.61 Q328.893 1395.04 328.893 1387.93 Q328.893 1380.8 327.064 1377.26 Q325.259 1373.7 321.624 1373.7 M321.624 1369.99 Q327.435 1369.99 330.49 1374.6 Q333.569 1379.18 333.569 1387.93 Q333.569 1396.66 330.49 1401.27 Q327.435 1405.85 321.624 1405.85 Q315.814 1405.85 312.736 1401.27 Q309.68 1396.66 309.68 1387.93 Q309.68 1379.18 312.736 1374.6 Q315.814 1369.99 321.624 1369.99 Z" fill="#000000" fill-rule="nonzero" fill-opacity="1" /><path clip-path="url(#clip760)" d="M121.043 1051.69 L137.362 1051.69 L137.362 1055.62 L115.418 1055.62 L115.418 1051.69 Q118.08 1048.93 122.663 1044.3 Q127.269 1039.65 128.45 1038.31 Q130.695 1035.78 131.575 1034.05 Q132.478 1032.29 132.478 1030.6 Q132.478 1027.84 130.533 1026.11 Q128.612 1024.37 125.51 1024.37 Q123.311 1024.37 120.857 1025.14 Q118.427 1025.9 115.649 1027.45 L115.649 1022.73 Q118.473 1021.59 120.927 1021.02 Q123.38 1020.44 125.418 1020.44 Q130.788 1020.44 133.982 1023.12 Q137.177 1025.81 137.177 1030.3 Q137.177 1032.43 136.367 1034.35 Q135.579 1036.25 133.473 1038.84 Q132.894 1039.51 129.792 1042.73 Q126.691 1045.92 121.043 1051.69 Z" fill="#000000" fill-rule="nonzero" fill-opacity="1" /><path clip-path="url(#clip760)" d="M147.177 1049.74 L152.061 1049.74 L152.061 1055.62 L147.177 1055.62 L147.177 1049.74 Z" fill="#000000" fill-rule="nonzero" fill-opacity="1" /><path clip-path="url(#clip760)" d="M172.246 1024.14 Q168.635 1024.14 166.806 1027.71 Q165.001 1031.25 165.001 1038.38 Q165.001 1045.48 166.806 1049.05 Q168.635 1052.59 172.246 1052.59 Q175.88 1052.59 177.686 1049.05 Q179.514 1045.48 179.514 1038.38 Q179.514 1031.25 177.686 1027.71 Q175.88 1024.14 172.246 1024.14 M172.246 1020.44 Q178.056 1020.44 181.112 1025.04 Q184.19 1029.63 184.19 1038.38 Q184.19 1047.1 181.112 1051.71 Q178.056 1056.29 172.246 1056.29 Q166.436 1056.29 163.357 1051.71 Q160.302 1047.1 160.302 1038.38 Q160.302 1029.63 163.357 1025.04 Q166.436 1020.44 172.246 1020.44 Z" fill="#000000" fill-rule="nonzero" fill-opacity="1" /><path clip-path="url(#clip760)" d="M220.579 1030.16 L210 1040.78 L220.579 1051.36 L217.824 1054.16 L207.199 1043.54 L196.575 1054.16 L193.843 1051.36 L204.399 1040.78 L193.843 1030.16 L196.575 1027.36 L207.199 1037.98 L217.824 1027.36 L220.579 1030.16 Z" fill="#000000" fill-rule="nonzero" fill-opacity="1" /><path clip-path="url(#clip760)" d="M232.94 1051.69 L240.579 1051.69 L240.579 1025.32 L232.269 1026.99 L232.269 1022.73 L240.533 1021.06 L245.209 1021.06 L245.209 1051.69 L252.847 1051.69 L252.847 1055.62 L232.94 1055.62 L232.94 1051.69 Z" fill="#000000" fill-rule="nonzero" fill-opacity="1" /><path clip-path="url(#clip760)" d="M272.292 1024.14 Q268.681 1024.14 266.852 1027.71 Q265.046 1031.25 265.046 1038.38 Q265.046 1045.48 266.852 1049.05 Q268.681 1052.59 272.292 1052.59 Q275.926 1052.59 277.732 1049.05 Q279.56 1045.48 279.56 1038.38 Q279.56 1031.25 277.732 1027.71 Q275.926 1024.14 272.292 1024.14 M272.292 1020.44 Q278.102 1020.44 281.157 1025.04 Q284.236 1029.63 284.236 1038.38 Q284.236 1047.1 281.157 1051.71 Q278.102 1056.29 272.292 1056.29 Q266.482 1056.29 263.403 1051.71 Q260.347 1047.1 260.347 1038.38 Q260.347 1029.63 263.403 1025.04 Q266.482 1020.44 272.292 1020.44 Z" fill="#000000" fill-rule="nonzero" fill-opacity="1" /><path clip-path="url(#clip760)" d="M284.236 1014.54 L308.348 1014.54 L308.348 1017.74 L284.236 1017.74 L284.236 1014.54 Z" fill="#000000" fill-rule="nonzero" fill-opacity="1" /><path clip-path="url(#clip760)" d="M316.585 1000.13 L331.5 1000.13 L331.5 1003.33 L320.065 1003.33 L320.065 1010.21 Q320.892 1009.93 321.72 1009.8 Q322.548 1009.65 323.375 1009.65 Q328.077 1009.65 330.823 1012.23 Q333.569 1014.8 333.569 1019.2 Q333.569 1023.74 330.748 1026.26 Q327.927 1028.76 322.792 1028.76 Q321.024 1028.76 319.181 1028.46 Q317.357 1028.16 315.401 1027.55 L315.401 1023.74 Q317.093 1024.66 318.899 1025.11 Q320.704 1025.56 322.717 1025.56 Q325.971 1025.56 327.87 1023.85 Q329.77 1022.14 329.77 1019.2 Q329.77 1016.27 327.87 1014.56 Q325.971 1012.85 322.717 1012.85 Q321.193 1012.85 319.67 1013.18 Q318.165 1013.52 316.585 1014.24 L316.585 1000.13 Z" fill="#000000" fill-rule="nonzero" fill-opacity="1" /><path clip-path="url(#clip760)" d="M129.862 669.131 L118.056 687.58 L129.862 687.58 L129.862 669.131 M128.635 665.057 L134.515 665.057 L134.515 687.58 L139.445 687.58 L139.445 691.469 L134.515 691.469 L134.515 699.617 L129.862 699.617 L129.862 691.469 L114.26 691.469 L114.26 686.955 L128.635 665.057 Z" fill="#000000" fill-rule="nonzero" fill-opacity="1" /><path clip-path="url(#clip760)" d="M147.177 693.737 L152.061 693.737 L152.061 699.617 L147.177 699.617 L147.177 693.737 Z" fill="#000000" fill-rule="nonzero" fill-opacity="1" /><path clip-path="url(#clip760)" d="M172.246 668.135 Q168.635 668.135 166.806 671.7 Q165.001 675.242 165.001 682.371 Q165.001 689.478 166.806 693.043 Q168.635 696.584 172.246 696.584 Q175.88 696.584 177.686 693.043 Q179.514 689.478 179.514 682.371 Q179.514 675.242 177.686 671.7 Q175.88 668.135 172.246 668.135 M172.246 664.432 Q178.056 664.432 181.112 669.038 Q184.19 673.621 184.19 682.371 Q184.19 691.098 181.112 695.705 Q178.056 700.288 172.246 700.288 Q166.436 700.288 163.357 695.705 Q160.302 691.098 160.302 682.371 Q160.302 673.621 163.357 669.038 Q166.436 664.432 172.246 664.432 Z" fill="#000000" fill-rule="nonzero" fill-opacity="1" /><path clip-path="url(#clip760)" d="M220.579 674.154 L210 684.779 L220.579 695.357 L217.824 698.158 L207.199 687.533 L196.575 698.158 L193.843 695.357 L204.399 684.779 L193.843 674.154 L196.575 671.353 L207.199 681.978 L217.824 671.353 L220.579 674.154 Z" fill="#000000" fill-rule="nonzero" fill-opacity="1" /><path clip-path="url(#clip760)" d="M232.94 695.682 L240.579 695.682 L240.579 669.316 L232.269 670.983 L232.269 666.723 L240.533 665.057 L245.209 665.057 L245.209 695.682 L252.847 695.682 L252.847 699.617 L232.94 699.617 L232.94 695.682 Z" fill="#000000" fill-rule="nonzero" fill-opacity="1" /><path clip-path="url(#clip760)" d="M272.292 668.135 Q268.681 668.135 266.852 671.7 Q265.046 675.242 265.046 682.371 Q265.046 689.478 266.852 693.043 Q268.681 696.584 272.292 696.584 Q275.926 696.584 277.732 693.043 Q279.56 689.478 279.56 682.371 Q279.56 675.242 277.732 671.7 Q275.926 668.135 272.292 668.135 M272.292 664.432 Q278.102 664.432 281.157 669.038 Q284.236 673.621 284.236 682.371 Q284.236 691.098 281.157 695.705 Q278.102 700.288 272.292 700.288 Q266.482 700.288 263.403 695.705 Q260.347 691.098 260.347 682.371 Q260.347 673.621 263.403 669.038 Q266.482 664.432 272.292 664.432 Z" fill="#000000" fill-rule="nonzero" fill-opacity="1" /><path clip-path="url(#clip760)" d="M284.236 658.533 L308.348 658.533 L308.348 661.73 L284.236 661.73 L284.236 658.533 Z" fill="#000000" fill-rule="nonzero" fill-opacity="1" /><path clip-path="url(#clip760)" d="M316.585 644.126 L331.5 644.126 L331.5 647.324 L320.065 647.324 L320.065 654.207 Q320.892 653.925 321.72 653.793 Q322.548 653.643 323.375 653.643 Q328.077 653.643 330.823 656.22 Q333.569 658.796 333.569 663.197 Q333.569 667.73 330.748 670.25 Q327.927 672.752 322.792 672.752 Q321.024 672.752 319.181 672.451 Q317.357 672.15 315.401 671.548 L315.401 667.73 Q317.093 668.652 318.899 669.103 Q320.704 669.554 322.717 669.554 Q325.971 669.554 327.87 667.843 Q329.77 666.131 329.77 663.197 Q329.77 660.263 327.87 658.552 Q325.971 656.84 322.717 656.84 Q321.193 656.84 319.67 657.179 Q318.165 657.517 316.585 658.232 L316.585 644.126 Z" fill="#000000" fill-rule="nonzero" fill-opacity="1" /><path clip-path="url(#clip760)" d="M127.593 324.468 Q124.445 324.468 122.593 326.621 Q120.765 328.773 120.765 332.523 Q120.765 336.25 122.593 338.426 Q124.445 340.579 127.593 340.579 Q130.742 340.579 132.57 338.426 Q134.422 336.25 134.422 332.523 Q134.422 328.773 132.57 326.621 Q130.742 324.468 127.593 324.468 M136.876 309.815 L136.876 314.074 Q135.117 313.241 133.311 312.801 Q131.529 312.362 129.769 312.362 Q125.14 312.362 122.686 315.487 Q120.255 318.611 119.908 324.931 Q121.274 322.917 123.334 321.852 Q125.394 320.764 127.871 320.764 Q133.08 320.764 136.089 323.936 Q139.121 327.084 139.121 332.523 Q139.121 337.848 135.973 341.065 Q132.825 344.283 127.593 344.283 Q121.598 344.283 118.427 339.699 Q115.256 335.093 115.256 326.366 Q115.256 318.172 119.144 313.311 Q123.033 308.426 129.584 308.426 Q131.343 308.426 133.126 308.774 Q134.931 309.121 136.876 309.815 Z" fill="#000000" fill-rule="nonzero" fill-opacity="1" /><path clip-path="url(#clip760)" d="M147.177 337.732 L152.061 337.732 L152.061 343.611 L147.177 343.611 L147.177 337.732 Z" fill="#000000" fill-rule="nonzero" fill-opacity="1" /><path clip-path="url(#clip760)" d="M172.246 312.13 Q168.635 312.13 166.806 315.695 Q165.001 319.236 165.001 326.366 Q165.001 333.473 166.806 337.037 Q168.635 340.579 172.246 340.579 Q175.88 340.579 177.686 337.037 Q179.514 333.473 179.514 326.366 Q179.514 319.236 177.686 315.695 Q175.88 312.13 172.246 312.13 M172.246 308.426 Q178.056 308.426 181.112 313.033 Q184.19 317.616 184.19 326.366 Q184.19 335.093 181.112 339.699 Q178.056 344.283 172.246 344.283 Q166.436 344.283 163.357 339.699 Q160.302 335.093 160.302 326.366 Q160.302 317.616 163.357 313.033 Q166.436 308.426 172.246 308.426 Z" fill="#000000" fill-rule="nonzero" fill-opacity="1" /><path clip-path="url(#clip760)" d="M220.579 318.149 L210 328.773 L220.579 339.352 L217.824 342.153 L207.199 331.528 L196.575 342.153 L193.843 339.352 L204.399 328.773 L193.843 318.149 L196.575 315.348 L207.199 325.973 L217.824 315.348 L220.579 318.149 Z" fill="#000000" fill-rule="nonzero" fill-opacity="1" /><path clip-path="url(#clip760)" d="M232.94 339.676 L240.579 339.676 L240.579 313.311 L232.269 314.977 L232.269 310.718 L240.533 309.051 L245.209 309.051 L245.209 339.676 L252.847 339.676 L252.847 343.611 L232.94 343.611 L232.94 339.676 Z" fill="#000000" fill-rule="nonzero" fill-opacity="1" /><path clip-path="url(#clip760)" d="M272.292 312.13 Q268.681 312.13 266.852 315.695 Q265.046 319.236 265.046 326.366 Q265.046 333.473 266.852 337.037 Q268.681 340.579 272.292 340.579 Q275.926 340.579 277.732 337.037 Q279.56 333.473 279.56 326.366 Q279.56 319.236 277.732 315.695 Q275.926 312.13 272.292 312.13 M272.292 308.426 Q278.102 308.426 281.157 313.033 Q284.236 317.616 284.236 326.366 Q284.236 335.093 281.157 339.699 Q278.102 344.283 272.292 344.283 Q266.482 344.283 263.403 339.699 Q260.347 335.093 260.347 326.366 Q260.347 317.616 263.403 313.033 Q266.482 308.426 272.292 308.426 Z" fill="#000000" fill-rule="nonzero" fill-opacity="1" /><path clip-path="url(#clip760)" d="M284.236 302.528 L308.348 302.528 L308.348 305.725 L284.236 305.725 L284.236 302.528 Z" fill="#000000" fill-rule="nonzero" fill-opacity="1" /><path clip-path="url(#clip760)" d="M316.585 288.121 L331.5 288.121 L331.5 291.318 L320.065 291.318 L320.065 298.202 Q320.892 297.92 321.72 297.788 Q322.548 297.638 323.375 297.638 Q328.077 297.638 330.823 300.214 Q333.569 302.791 333.569 307.192 Q333.569 311.725 330.748 314.245 Q327.927 316.746 322.792 316.746 Q321.024 316.746 319.181 316.445 Q317.357 316.145 315.401 315.543 L315.401 311.725 Q317.093 312.646 318.899 313.098 Q320.704 313.549 322.717 313.549 Q325.971 313.549 327.87 311.838 Q329.77 310.126 329.77 307.192 Q329.77 304.258 327.87 302.547 Q325.971 300.835 322.717 300.835 Q321.193 300.835 319.67 301.174 Q318.165 301.512 316.585 302.227 L316.585 288.121 Z" fill="#000000" fill-rule="nonzero" fill-opacity="1" /><path clip-path="url(#clip760)" d="M16.4842 1388.89 L16.4842 1379.31 L48.8219 1367.18 L16.4842 1354.99 L16.4842 1345.41 L64.0042 1345.41 L64.0042 1351.68 L22.277 1351.68 L54.8694 1363.94 L54.8694 1370.4 L22.277 1382.65 L64.0042 1382.65 L64.0042 1388.89 L16.4842 1388.89 Z" fill="#000000" fill-rule="nonzero" fill-opacity="1" /><path clip-path="url(#clip760)" d="M46.0847 1316.7 Q46.0847 1323.8 47.7079 1326.54 Q49.3312 1329.27 53.2461 1329.27 Q56.3653 1329.27 58.2114 1327.24 Q60.0256 1325.17 60.0256 1321.64 Q60.0256 1316.77 56.5881 1313.84 Q53.1188 1310.88 47.3897 1310.88 L46.0847 1310.88 L46.0847 1316.7 M43.6657 1305.02 L64.0042 1305.02 L64.0042 1310.88 L58.5933 1310.88 Q61.8398 1312.88 63.3994 1315.88 Q64.9272 1318.87 64.9272 1323.2 Q64.9272 1328.67 61.8716 1331.92 Q58.7843 1335.13 53.6281 1335.13 Q47.6125 1335.13 44.5569 1331.12 Q41.5014 1327.08 41.5014 1319.09 L41.5014 1310.88 L40.9285 1310.88 Q36.8862 1310.88 34.6901 1313.55 Q32.4621 1316.19 32.4621 1321 Q32.4621 1324.06 33.1941 1326.95 Q33.9262 1329.85 35.3903 1332.52 L29.9795 1332.52 Q28.7381 1329.31 28.1334 1326.28 Q27.4968 1323.26 27.4968 1320.39 Q27.4968 1312.66 31.5072 1308.84 Q35.5176 1305.02 43.6657 1305.02 Z" fill="#000000" fill-rule="nonzero" fill-opacity="1" /><path clip-path="url(#clip760)" d="M18.2347 1287.17 L28.3562 1287.17 L28.3562 1275.1 L32.9077 1275.1 L32.9077 1287.17 L52.2594 1287.17 Q56.6199 1287.17 57.8613 1285.99 Q59.1026 1284.78 59.1026 1281.12 L59.1026 1275.1 L64.0042 1275.1 L64.0042 1281.12 Q64.0042 1287.9 61.4897 1290.48 Q58.9434 1293.05 52.2594 1293.05 L32.9077 1293.05 L32.9077 1297.35 L28.3562 1297.35 L28.3562 1293.05 L18.2347 1293.05 L18.2347 1287.17 Z" fill="#000000" fill-rule="nonzero" fill-opacity="1" /><path clip-path="url(#clip760)" d="M29.7248 1241.75 L35.1993 1241.75 Q33.8307 1244.23 33.1623 1246.74 Q32.4621 1249.23 32.4621 1251.77 Q32.4621 1257.47 36.0905 1260.62 Q39.6872 1263.77 46.212 1263.77 Q52.7369 1263.77 56.3653 1260.62 Q59.9619 1257.47 59.9619 1251.77 Q59.9619 1249.23 59.2935 1246.74 Q58.5933 1244.23 57.2247 1241.75 L62.6355 1241.75 Q63.7814 1244.2 64.3543 1246.84 Q64.9272 1249.45 64.9272 1252.41 Q64.9272 1260.46 59.8664 1265.2 Q54.8057 1269.95 46.212 1269.95 Q37.491 1269.95 32.4939 1265.17 Q27.4968 1260.37 27.4968 1252.03 Q27.4968 1249.32 28.0697 1246.74 Q28.6108 1244.17 29.7248 1241.75 Z" fill="#000000" fill-rule="nonzero" fill-opacity="1" /><path clip-path="url(#clip760)" d="M42.4881 1201.93 L64.0042 1201.93 L64.0042 1207.79 L42.679 1207.79 Q37.6183 1207.79 35.1038 1209.76 Q32.5894 1211.73 32.5894 1215.68 Q32.5894 1220.42 35.6131 1223.16 Q38.6368 1225.9 43.8567 1225.9 L64.0042 1225.9 L64.0042 1231.78 L14.479 1231.78 L14.479 1225.9 L33.8944 1225.9 Q30.6797 1223.8 29.0883 1220.96 Q27.4968 1218.1 27.4968 1214.37 Q27.4968 1208.23 31.3163 1205.08 Q35.1038 1201.93 42.4881 1201.93 Z" fill="#000000" fill-rule="nonzero" fill-opacity="1" /><path clip-path="url(#clip760)" d="M44.7161 1159.76 L47.5806 1159.76 L47.5806 1186.68 Q53.6281 1186.3 56.8109 1183.05 Q59.9619 1179.78 59.9619 1173.95 Q59.9619 1170.58 59.1344 1167.43 Q58.3069 1164.24 56.6518 1161.12 L62.1899 1161.12 Q63.5267 1164.28 64.227 1167.59 Q64.9272 1170.9 64.9272 1174.3 Q64.9272 1182.83 59.9619 1187.83 Q54.9967 1192.79 46.5303 1192.79 Q37.7774 1192.79 32.6531 1188.08 Q27.4968 1183.34 27.4968 1175.32 Q27.4968 1168.13 32.1438 1163.96 Q36.7589 1159.76 44.7161 1159.76 M42.9973 1165.61 Q38.1912 1165.68 35.3266 1168.32 Q32.4621 1170.93 32.4621 1175.26 Q32.4621 1180.16 35.2312 1183.12 Q38.0002 1186.05 43.0292 1186.49 L42.9973 1165.61 Z" fill="#000000" fill-rule="nonzero" fill-opacity="1" /><path clip-path="url(#clip760)" d="M29.4065 1127.42 L34.9447 1127.42 Q33.6716 1129.9 33.035 1132.57 Q32.3984 1135.25 32.3984 1138.11 Q32.3984 1142.47 33.7352 1144.67 Q35.072 1146.83 37.7456 1146.83 Q39.7826 1146.83 40.9603 1145.27 Q42.1061 1143.71 43.1565 1139 L43.6021 1137 Q44.9389 1130.76 47.3897 1128.15 Q49.8086 1125.51 54.1691 1125.51 Q59.1344 1125.51 62.0308 1129.46 Q64.9272 1133.37 64.9272 1140.25 Q64.9272 1143.11 64.3543 1146.23 Q63.8132 1149.32 62.6992 1152.75 L56.6518 1152.75 Q58.3387 1149.51 59.198 1146.36 Q60.0256 1143.21 60.0256 1140.12 Q60.0256 1135.98 58.6251 1133.75 Q57.1929 1131.52 54.6147 1131.52 Q52.2276 1131.52 50.9545 1133.15 Q49.6813 1134.74 48.5037 1140.18 L48.0262 1142.22 Q46.8804 1147.66 44.5251 1150.08 Q42.138 1152.5 38.0002 1152.5 Q32.9713 1152.5 30.2341 1148.93 Q27.4968 1145.37 27.4968 1138.81 Q27.4968 1135.57 27.9743 1132.7 Q28.4517 1129.84 29.4065 1127.42 Z" fill="#000000" fill-rule="nonzero" fill-opacity="1" /><path clip-path="url(#clip760)" d="M58.657 1089.8 L77.5631 1089.8 L77.5631 1095.69 L28.3562 1095.69 L28.3562 1089.8 L33.7671 1089.8 Q30.5842 1087.95 29.0564 1085.15 Q27.4968 1082.32 27.4968 1078.4 Q27.4968 1071.91 32.6531 1067.87 Q37.8093 1063.79 46.212 1063.79 Q54.6147 1063.79 59.771 1067.87 Q64.9272 1071.91 64.9272 1078.4 Q64.9272 1082.32 63.3994 1085.15 Q61.8398 1087.95 58.657 1089.8 M46.212 1069.87 Q39.7508 1069.87 36.0905 1072.55 Q32.3984 1075.19 32.3984 1079.83 Q32.3984 1084.48 36.0905 1087.16 Q39.7508 1089.8 46.212 1089.8 Q52.6732 1089.8 56.3653 1087.16 Q60.0256 1084.48 60.0256 1079.83 Q60.0256 1075.19 56.3653 1072.55 Q52.6732 1069.87 46.212 1069.87 Z" fill="#000000" fill-rule="nonzero" fill-opacity="1" /><path clip-path="url(#clip760)" d="M44.7161 1023.59 L47.5806 1023.59 L47.5806 1050.52 Q53.6281 1050.14 56.8109 1046.89 Q59.9619 1043.61 59.9619 1037.79 Q59.9619 1034.42 59.1344 1031.26 Q58.3069 1028.08 56.6518 1024.96 L62.1899 1024.96 Q63.5267 1028.11 64.227 1031.42 Q64.9272 1034.73 64.9272 1038.14 Q64.9272 1046.67 59.9619 1051.67 Q54.9967 1056.63 46.5303 1056.63 Q37.7774 1056.63 32.6531 1051.92 Q27.4968 1047.18 27.4968 1039.16 Q27.4968 1031.96 32.1438 1027.8 Q36.7589 1023.59 44.7161 1023.59 M42.9973 1029.45 Q38.1912 1029.51 35.3266 1032.16 Q32.4621 1034.77 32.4621 1039.09 Q32.4621 1044 35.2312 1046.96 Q38.0002 1049.88 43.0292 1050.33 L42.9973 1029.45 Z" fill="#000000" fill-rule="nonzero" fill-opacity="1" /><path clip-path="url(#clip760)" d="M33.8307 993.325 Q33.2578 994.311 33.0032 995.489 Q32.7167 996.635 32.7167 998.035 Q32.7167 1003 35.9632 1005.67 Q39.1779 1008.32 45.2253 1008.32 L64.0042 1008.32 L64.0042 1014.2 L28.3562 1014.2 L28.3562 1008.32 L33.8944 1008.32 Q30.6479 1006.47 29.0883 1003.51 Q27.4968 1000.55 27.4968 996.317 Q27.4968 995.712 27.5923 994.98 Q27.656 994.248 27.8151 993.357 L33.8307 993.325 Z" fill="#000000" fill-rule="nonzero" fill-opacity="1" /><path clip-path="url(#clip760)" d="M42.4881 936.829 L64.0042 936.829 L64.0042 942.686 L42.679 942.686 Q37.6183 942.686 35.1038 944.659 Q32.5894 946.632 32.5894 950.579 Q32.5894 955.322 35.6131 958.059 Q38.6368 960.796 43.8567 960.796 L64.0042 960.796 L64.0042 966.684 L28.3562 966.684 L28.3562 960.796 L33.8944 960.796 Q30.6797 958.695 29.0883 955.863 Q27.4968 952.998 27.4968 949.274 Q27.4968 943.131 31.3163 939.98 Q35.1038 936.829 42.4881 936.829 Z" fill="#000000" fill-rule="nonzero" fill-opacity="1" /><path clip-path="url(#clip760)" d="M44.7161 894.656 L47.5806 894.656 L47.5806 921.583 Q53.6281 921.201 56.8109 917.955 Q59.9619 914.676 59.9619 908.852 Q59.9619 905.478 59.1344 902.327 Q58.3069 899.144 56.6518 896.025 L62.1899 896.025 Q63.5267 899.176 64.227 902.486 Q64.9272 905.796 64.9272 909.202 Q64.9272 917.732 59.9619 922.729 Q54.9967 927.694 46.5303 927.694 Q37.7774 927.694 32.6531 922.984 Q27.4968 918.241 27.4968 910.221 Q27.4968 903.027 32.1438 898.858 Q36.7589 894.656 44.7161 894.656 M42.9973 900.513 Q38.1912 900.576 35.3266 903.218 Q32.4621 905.828 32.4621 910.157 Q32.4621 915.058 35.2312 918.018 Q38.0002 920.947 43.0292 921.392 L42.9973 900.513 Z" fill="#000000" fill-rule="nonzero" fill-opacity="1" /><path clip-path="url(#clip760)" d="M49.9359 885.649 L28.3562 885.649 L28.3562 879.792 L49.7131 879.792 Q54.7739 879.792 57.3202 877.819 Q59.8346 875.846 59.8346 871.899 Q59.8346 867.156 56.8109 864.419 Q53.7872 861.65 48.5673 861.65 L28.3562 861.65 L28.3562 855.794 L64.0042 855.794 L64.0042 861.65 L58.5296 861.65 Q61.7762 863.783 63.3676 866.615 Q64.9272 869.416 64.9272 873.14 Q64.9272 879.283 61.1078 882.466 Q57.2883 885.649 49.9359 885.649 M27.4968 870.912 L27.4968 870.912 Z" fill="#000000" fill-rule="nonzero" fill-opacity="1" /><path clip-path="url(#clip760)" d="M18.2347 837.938 L28.3562 837.938 L28.3562 825.875 L32.9077 825.875 L32.9077 837.938 L52.2594 837.938 Q56.6199 837.938 57.8613 836.76 Q59.1026 835.551 59.1026 831.89 L59.1026 825.875 L64.0042 825.875 L64.0042 831.89 Q64.0042 838.67 61.4897 841.248 Q58.9434 843.826 52.2594 843.826 L32.9077 843.826 L32.9077 848.123 L28.3562 848.123 L28.3562 843.826 L18.2347 843.826 L18.2347 837.938 Z" fill="#000000" fill-rule="nonzero" fill-opacity="1" /><path clip-path="url(#clip760)" d="M33.8307 797.516 Q33.2578 798.502 33.0032 799.68 Q32.7167 800.826 32.7167 802.226 Q32.7167 807.192 35.9632 809.865 Q39.1779 812.507 45.2253 812.507 L64.0042 812.507 L64.0042 818.395 L28.3562 818.395 L28.3562 812.507 L33.8944 812.507 Q30.6479 810.661 29.0883 807.701 Q27.4968 804.741 27.4968 800.508 Q27.4968 799.903 27.5923 799.171 Q27.656 798.439 27.8151 797.547 L33.8307 797.516 Z" fill="#000000" fill-rule="nonzero" fill-opacity="1" /><path clip-path="url(#clip760)" d="M32.4621 778.991 Q32.4621 783.702 36.1542 786.439 Q39.8145 789.177 46.212 789.177 Q52.6095 789.177 56.3017 786.471 Q59.9619 783.734 59.9619 778.991 Q59.9619 774.313 56.2698 771.575 Q52.5777 768.838 46.212 768.838 Q39.8781 768.838 36.186 771.575 Q32.4621 774.313 32.4621 778.991 M27.4968 778.991 Q27.4968 771.353 32.4621 766.992 Q37.4273 762.632 46.212 762.632 Q54.9649 762.632 59.9619 766.992 Q64.9272 771.353 64.9272 778.991 Q64.9272 786.662 59.9619 791.023 Q54.9649 795.351 46.212 795.351 Q37.4273 795.351 32.4621 791.023 Q27.4968 786.662 27.4968 778.991 Z" fill="#000000" fill-rule="nonzero" fill-opacity="1" /><path clip-path="url(#clip760)" d="M42.4881 723.292 L64.0042 723.292 L64.0042 729.148 L42.679 729.148 Q37.6183 729.148 35.1038 731.121 Q32.5894 733.095 32.5894 737.041 Q32.5894 741.784 35.6131 744.521 Q38.6368 747.258 43.8567 747.258 L64.0042 747.258 L64.0042 753.147 L28.3562 753.147 L28.3562 747.258 L33.8944 747.258 Q30.6797 745.158 29.0883 742.325 Q27.4968 739.46 27.4968 735.736 Q27.4968 729.594 31.3163 726.443 Q35.1038 723.292 42.4881 723.292 Z" fill="#000000" fill-rule="nonzero" fill-opacity="1" /><path clip-path="url(#clip760)" d="M14.479 672.843 L19.3487 672.843 L19.3487 678.445 Q19.3487 681.596 20.6219 682.837 Q21.895 684.047 25.2052 684.047 L28.3562 684.047 L28.3562 674.403 L32.9077 674.403 L32.9077 684.047 L64.0042 684.047 L64.0042 689.935 L32.9077 689.935 L32.9077 695.537 L28.3562 695.537 L28.3562 689.935 L25.8736 689.935 Q19.9216 689.935 17.2162 687.166 Q14.479 684.397 14.479 678.381 L14.479 672.843 Z" fill="#000000" fill-rule="nonzero" fill-opacity="1" /><path clip-path="url(#clip760)" d="M14.479 667.942 L14.479 662.085 L64.0042 662.085 L64.0042 667.942 L14.479 667.942 Z" fill="#000000" fill-rule="nonzero" fill-opacity="1" /><path clip-path="url(#clip760)" d="M49.9359 650.436 L28.3562 650.436 L28.3562 644.58 L49.7131 644.58 Q54.7739 644.58 57.3202 642.606 Q59.8346 640.633 59.8346 636.686 Q59.8346 631.944 56.8109 629.206 Q53.7872 626.437 48.5673 626.437 L28.3562 626.437 L28.3562 620.581 L64.0042 620.581 L64.0042 626.437 L58.5296 626.437 Q61.7762 628.57 63.3676 631.403 Q64.9272 634.203 64.9272 637.927 Q64.9272 644.07 61.1078 647.253 Q57.2883 650.436 49.9359 650.436 M27.4968 635.699 L27.4968 635.699 Z" fill="#000000" fill-rule="nonzero" fill-opacity="1" /><path clip-path="url(#clip760)" d="M28.3562 578.885 L45.7028 591.776 L64.0042 578.217 L64.0042 585.124 L49.9996 595.5 L64.0042 605.876 L64.0042 612.783 L45.3526 598.937 L28.3562 611.605 L28.3562 604.698 L41.0558 595.245 L28.3562 585.792 L28.3562 578.885 Z" fill="#000000" fill-rule="nonzero" fill-opacity="1" /><path clip-path="url(#clip760)" d="M14.5426 535.153 Q21.8632 539.418 29.0246 541.487 Q36.186 543.556 43.5384 543.556 Q50.8908 543.556 58.1159 541.487 Q65.3091 539.386 72.5979 535.153 L72.5979 540.246 Q65.1182 545.02 57.8931 547.407 Q50.668 549.762 43.5384 549.762 Q36.4406 549.762 29.2474 547.407 Q22.0542 545.052 14.5426 540.246 L14.5426 535.153 Z" fill="#000000" fill-rule="nonzero" fill-opacity="1" /><path clip-path="url(#clip760)" d="M35.1993 496.036 Q31.2526 493.84 29.3747 490.784 Q27.4968 487.729 27.4968 483.591 Q27.4968 478.021 31.4117 474.997 Q35.2948 471.973 42.4881 471.973 L64.0042 471.973 L64.0042 477.862 L42.679 477.862 Q37.5546 477.862 35.072 479.676 Q32.5894 481.49 32.5894 485.214 Q32.5894 489.766 35.6131 492.407 Q38.6368 495.049 43.8567 495.049 L64.0042 495.049 L64.0042 500.937 L42.679 500.937 Q37.5228 500.937 35.072 502.752 Q32.5894 504.566 32.5894 508.353 Q32.5894 512.841 35.6449 515.483 Q38.6686 518.125 43.8567 518.125 L64.0042 518.125 L64.0042 524.013 L28.3562 524.013 L28.3562 518.125 L33.8944 518.125 Q30.616 516.12 29.0564 513.319 Q27.4968 510.518 27.4968 506.667 Q27.4968 502.783 29.4702 500.078 Q31.4436 497.341 35.1993 496.036 Z" fill="#000000" fill-rule="nonzero" fill-opacity="1" /><path clip-path="url(#clip760)" d="M46.0847 444.092 Q46.0847 451.189 47.7079 453.927 Q49.3312 456.664 53.2461 456.664 Q56.3653 456.664 58.2114 454.627 Q60.0256 452.558 60.0256 449.025 Q60.0256 444.155 56.5881 441.227 Q53.1188 438.267 47.3897 438.267 L46.0847 438.267 L46.0847 444.092 M43.6657 432.411 L64.0042 432.411 L64.0042 438.267 L58.5933 438.267 Q61.8398 440.272 63.3994 443.264 Q64.9272 446.256 64.9272 450.585 Q64.9272 456.059 61.8716 459.306 Q58.7843 462.52 53.6281 462.52 Q47.6125 462.52 44.5569 458.51 Q41.5014 454.468 41.5014 446.479 L41.5014 438.267 L40.9285 438.267 Q36.8862 438.267 34.6901 440.941 Q32.4621 443.582 32.4621 448.388 Q32.4621 451.444 33.1941 454.34 Q33.9262 457.237 35.3903 459.91 L29.9795 459.91 Q28.7381 456.696 28.1334 453.672 Q27.4968 450.648 27.4968 447.784 Q27.4968 440.049 31.5072 436.23 Q35.5176 432.411 43.6657 432.411 Z" fill="#000000" fill-rule="nonzero" fill-opacity="1" /><path clip-path="url(#clip760)" d="M18.2347 414.555 L28.3562 414.555 L28.3562 402.492 L32.9077 402.492 L32.9077 414.555 L52.2594 414.555 Q56.6199 414.555 57.8613 413.377 Q59.1026 412.168 59.1026 408.507 L59.1026 402.492 L64.0042 402.492 L64.0042 408.507 Q64.0042 415.287 61.4897 417.865 Q58.9434 420.443 52.2594 420.443 L32.9077 420.443 L32.9077 424.74 L28.3562 424.74 L28.3562 420.443 L18.2347 420.443 L18.2347 414.555 Z" fill="#000000" fill-rule="nonzero" fill-opacity="1" /><path clip-path="url(#clip760)" d="M29.7248 369.135 L35.1993 369.135 Q33.8307 371.618 33.1623 374.133 Q32.4621 376.615 32.4621 379.161 Q32.4621 384.859 36.0905 388.01 Q39.6872 391.161 46.212 391.161 Q52.7369 391.161 56.3653 388.01 Q59.9619 384.859 59.9619 379.161 Q59.9619 376.615 59.2935 374.133 Q58.5933 371.618 57.2247 369.135 L62.6355 369.135 Q63.7814 371.586 64.3543 374.228 Q64.9272 376.838 64.9272 379.798 Q64.9272 387.851 59.8664 392.593 Q54.8057 397.336 46.212 397.336 Q37.491 397.336 32.4939 392.561 Q27.4968 387.755 27.4968 379.416 Q27.4968 376.711 28.0697 374.133 Q28.6108 371.554 29.7248 369.135 Z" fill="#000000" fill-rule="nonzero" fill-opacity="1" /><path clip-path="url(#clip760)" d="M42.4881 329.318 L64.0042 329.318 L64.0042 335.174 L42.679 335.174 Q37.6183 335.174 35.1038 337.148 Q32.5894 339.121 32.5894 343.068 Q32.5894 347.81 35.6131 350.548 Q38.6368 353.285 43.8567 353.285 L64.0042 353.285 L64.0042 359.173 L14.479 359.173 L14.479 353.285 L33.8944 353.285 Q30.6797 351.184 29.0883 348.351 Q27.4968 345.487 27.4968 341.763 Q27.4968 335.62 31.3163 332.469 Q35.1038 329.318 42.4881 329.318 Z" fill="#000000" fill-rule="nonzero" fill-opacity="1" /><path clip-path="url(#clip760)" d="M29.7248 271.263 L35.1993 271.263 Q33.8307 273.745 33.1623 276.26 Q32.4621 278.742 32.4621 281.289 Q32.4621 286.986 36.0905 290.137 Q39.6872 293.288 46.212 293.288 Q52.7369 293.288 56.3653 290.137 Q59.9619 286.986 59.9619 281.289 Q59.9619 278.742 59.2935 276.26 Q58.5933 273.745 57.2247 271.263 L62.6355 271.263 Q63.7814 273.713 64.3543 276.355 Q64.9272 278.965 64.9272 281.925 Q64.9272 289.978 59.8664 294.72 Q54.8057 299.463 46.212 299.463 Q37.491 299.463 32.4939 294.689 Q27.4968 289.882 27.4968 281.543 Q27.4968 278.838 28.0697 276.26 Q28.6108 273.682 29.7248 271.263 Z" fill="#000000" fill-rule="nonzero" fill-opacity="1" /><path clip-path="url(#clip760)" d="M35.1993 233.323 Q31.2526 231.127 29.3747 228.071 Q27.4968 225.016 27.4968 220.878 Q27.4968 215.308 31.4117 212.284 Q35.2948 209.261 42.4881 209.261 L64.0042 209.261 L64.0042 215.149 L42.679 215.149 Q37.5546 215.149 35.072 216.963 Q32.5894 218.777 32.5894 222.501 Q32.5894 227.053 35.6131 229.695 Q38.6368 232.336 43.8567 232.336 L64.0042 232.336 L64.0042 238.225 L42.679 238.225 Q37.5228 238.225 35.072 240.039 Q32.5894 241.853 32.5894 245.641 Q32.5894 250.129 35.6449 252.77 Q38.6686 255.412 43.8567 255.412 L64.0042 255.412 L64.0042 261.3 L28.3562 261.3 L28.3562 255.412 L33.8944 255.412 Q30.616 253.407 29.0564 250.606 Q27.4968 247.805 27.4968 243.954 Q27.4968 240.071 29.4702 237.365 Q31.4436 234.628 35.1993 233.323 Z" fill="#000000" fill-rule="nonzero" fill-opacity="1" /><path clip-path="url(#clip760)" d="M39.1142 195.193 L39.1142 181.697 L42.7427 181.697 L42.7427 200.731 L39.2416 200.731 Q38.2549 199.649 36.4725 197.643 Q26.7648 186.694 23.7729 186.694 Q21.6722 186.694 20.3991 188.349 Q19.0941 190.004 19.0941 192.71 Q19.0941 194.365 19.667 196.307 Q20.2081 198.248 21.3221 200.54 L17.4072 200.54 Q16.516 198.089 16.0704 195.988 Q15.6248 193.856 15.6248 192.041 Q15.6248 187.426 17.7255 184.657 Q19.8262 181.888 23.2636 181.888 Q27.6878 181.888 36.7271 192.423 Q38.2549 194.206 39.1142 195.193 Z" fill="#000000" fill-rule="nonzero" fill-opacity="1" /><path clip-path="url(#clip760)" d="M14.5426 172.371 L14.5426 167.279 Q22.0542 162.505 29.2474 160.149 Q36.4406 157.762 43.5384 157.762 Q50.668 157.762 57.8931 160.149 Q65.1182 162.505 72.5979 167.279 L72.5979 172.371 Q65.3091 168.138 58.1159 166.069 Q50.8908 163.969 43.5384 163.969 Q36.186 163.969 29.0246 166.069 Q21.8632 168.138 14.5426 172.371 Z" fill="#000000" fill-rule="nonzero" fill-opacity="1" /><path clip-path="url(#clip760)" d="M1166.03 12.096 L1204.27 12.096 L1204.27 18.9825 L1174.21 18.9825 L1174.21 36.8875 L1203.02 36.8875 L1203.02 43.7741 L1174.21 43.7741 L1174.21 65.6895 L1205 65.6895 L1205 72.576 L1166.03 72.576 L1166.03 12.096 Z" fill="#000000" fill-rule="nonzero" fill-opacity="1" /><path clip-path="url(#clip760)" d="M1241.09 9.54393 L1241.09 15.7418 L1233.96 15.7418 Q1229.95 15.7418 1228.37 17.3622 Q1226.83 18.9825 1226.83 23.1955 L1226.83 27.2059 L1239.11 27.2059 L1239.11 32.9987 L1226.83 32.9987 L1226.83 72.576 L1219.34 72.576 L1219.34 32.9987 L1212.21 32.9987 L1212.21 27.2059 L1219.34 27.2059 L1219.34 24.0462 Q1219.34 16.471 1222.86 13.0277 Q1226.39 9.54393 1234.05 9.54393 L1241.09 9.54393 Z" fill="#000000" fill-rule="nonzero" fill-opacity="1" /><path clip-path="url(#clip760)" d="M1270.3 9.54393 L1270.3 15.7418 L1263.17 15.7418 Q1259.16 15.7418 1257.58 17.3622 Q1256.04 18.9825 1256.04 23.1955 L1256.04 27.2059 L1268.32 27.2059 L1268.32 32.9987 L1256.04 32.9987 L1256.04 72.576 L1248.55 72.576 L1248.55 32.9987 L1241.42 32.9987 L1241.42 27.2059 L1248.55 27.2059 L1248.55 24.0462 Q1248.55 16.471 1252.07 13.0277 Q1255.6 9.54393 1263.25 9.54393 L1270.3 9.54393 Z" fill="#000000" fill-rule="nonzero" fill-opacity="1" /><path clip-path="url(#clip760)" d="M1276.54 27.2059 L1283.99 27.2059 L1283.99 72.576 L1276.54 72.576 L1276.54 27.2059 M1276.54 9.54393 L1283.99 9.54393 L1283.99 18.9825 L1276.54 18.9825 L1276.54 9.54393 Z" fill="#000000" fill-rule="nonzero" fill-opacity="1" /><path clip-path="url(#clip760)" d="M1332.24 28.9478 L1332.24 35.9153 Q1329.08 34.1734 1325.88 33.3227 Q1322.72 32.4315 1319.48 32.4315 Q1312.23 32.4315 1308.22 37.0496 Q1304.21 41.6271 1304.21 49.9314 Q1304.21 58.2358 1308.22 62.8538 Q1312.23 67.4314 1319.48 67.4314 Q1322.72 67.4314 1325.88 66.5807 Q1329.08 65.6895 1332.24 63.9476 L1332.24 70.8341 Q1329.12 72.2924 1325.76 73.0216 Q1322.44 73.7508 1318.67 73.7508 Q1308.42 73.7508 1302.38 67.3098 Q1296.35 60.8689 1296.35 49.9314 Q1296.35 38.832 1302.42 32.472 Q1308.54 26.1121 1319.15 26.1121 Q1322.6 26.1121 1325.88 26.8413 Q1329.16 27.5299 1332.24 28.9478 Z" fill="#000000" fill-rule="nonzero" fill-opacity="1" /><path clip-path="url(#clip760)" d="M1345.2 27.2059 L1352.66 27.2059 L1352.66 72.576 L1345.2 72.576 L1345.2 27.2059 M1345.2 9.54393 L1352.66 9.54393 L1352.66 18.9825 L1345.2 18.9825 L1345.2 9.54393 Z" fill="#000000" fill-rule="nonzero" fill-opacity="1" /><path clip-path="url(#clip760)" d="M1407.06 48.0275 L1407.06 51.6733 L1372.79 51.6733 Q1373.27 59.3701 1377.41 63.421 Q1381.58 67.4314 1388.99 67.4314 Q1393.29 67.4314 1397.3 66.3781 Q1401.35 65.3249 1405.32 63.2184 L1405.32 70.267 Q1401.31 71.9684 1397.09 72.8596 Q1392.88 73.7508 1388.55 73.7508 Q1377.69 73.7508 1371.33 67.4314 Q1365.01 61.1119 1365.01 50.3365 Q1365.01 39.1965 1371.01 32.6746 Q1377.04 26.1121 1387.25 26.1121 Q1396.41 26.1121 1401.71 32.0264 Q1407.06 37.9003 1407.06 48.0275 M1399.61 45.84 Q1399.52 39.7232 1396.16 36.0774 Q1392.84 32.4315 1387.33 32.4315 Q1381.09 32.4315 1377.33 35.9558 Q1373.6 39.4801 1373.03 45.8805 L1399.61 45.84 Z" fill="#000000" fill-rule="nonzero" fill-opacity="1" /><path clip-path="url(#clip760)" d="M1457.01 45.1919 L1457.01 72.576 L1449.55 72.576 L1449.55 45.4349 Q1449.55 38.994 1447.04 35.7938 Q1444.53 32.5936 1439.51 32.5936 Q1433.47 32.5936 1429.99 36.4419 Q1426.5 40.2903 1426.5 46.9338 L1426.5 72.576 L1419.01 72.576 L1419.01 27.2059 L1426.5 27.2059 L1426.5 34.2544 Q1429.18 30.163 1432.78 28.1376 Q1436.43 26.1121 1441.17 26.1121 Q1448.99 26.1121 1453 30.9732 Q1457.01 35.7938 1457.01 45.1919 Z" fill="#000000" fill-rule="nonzero" fill-opacity="1" /><path clip-path="url(#clip760)" d="M1504.52 28.9478 L1504.52 35.9153 Q1501.36 34.1734 1498.16 33.3227 Q1495 32.4315 1491.76 32.4315 Q1484.51 32.4315 1480.5 37.0496 Q1476.49 41.6271 1476.49 49.9314 Q1476.49 58.2358 1480.5 62.8538 Q1484.51 67.4314 1491.76 67.4314 Q1495 67.4314 1498.16 66.5807 Q1501.36 65.6895 1504.52 63.9476 L1504.52 70.8341 Q1501.4 72.2924 1498.04 73.0216 Q1494.72 73.7508 1490.95 73.7508 Q1480.7 73.7508 1474.67 67.3098 Q1468.63 60.8689 1468.63 49.9314 Q1468.63 38.832 1474.71 32.472 Q1480.83 26.1121 1491.44 26.1121 Q1494.88 26.1121 1498.16 26.8413 Q1501.45 27.5299 1504.52 28.9478 Z" fill="#000000" fill-rule="nonzero" fill-opacity="1" /><path clip-path="url(#clip760)" d="M1536.36 76.7889 Q1533.2 84.8907 1530.21 87.3618 Q1527.21 89.8329 1522.19 89.8329 L1516.23 89.8329 L1516.23 83.5945 L1520.61 83.5945 Q1523.68 83.5945 1525.39 82.1361 Q1527.09 80.6778 1529.15 75.2496 L1530.49 71.8468 L1512.14 27.2059 L1520.04 27.2059 L1534.22 62.6918 L1548.4 27.2059 L1556.29 27.2059 L1536.36 76.7889 Z" fill="#000000" fill-rule="nonzero" fill-opacity="1" /><polyline clip-path="url(#clip762)" style="stroke:#009af9; stroke-linecap:round; stroke-linejoin:round; stroke-width:4; stroke-opacity:1; fill:none" points="425.697,1386.4 486.049,1381.88 546.402,1378.27 606.755,1371.35 667.107,1363.42 727.46,1347.41 787.813,1337.05 848.165,1331.4 908.518,1304.09 968.87,1275.85 1029.22,1268.31 1089.58,1213.7 1149.93,1194.05 1210.28,1164.98 1270.63,1159.16 1330.99,1093.26 1391.34,1048.67 1451.69,1031.23 1512.04,934.303 1572.4,914.918 1632.75,876.149 1693.1,754.027 1753.45,800.55 1813.81,655.166 1874.16,723.063 1934.51,660.529 1994.86,578.248 2055.22,522.296 2115.57,377.48 2175.92,393.936 2236.28,318.237 2296.63,160.256 "/>
<path clip-path="url(#clip760)" d="M435.675 270.476 L686.424 270.476 L686.424 166.796 L435.675 166.796  Z" fill="#ffffff" fill-rule="evenodd" fill-opacity="1"/>
<polyline clip-path="url(#clip760)" style="stroke:#000000; stroke-linecap:round; stroke-linejoin:round; stroke-width:4; stroke-opacity:1; fill:none" points="435.675,270.476 686.424,270.476 686.424,166.796 435.675,166.796 435.675,270.476 "/>
<polyline clip-path="url(#clip760)" style="stroke:#009af9; stroke-linecap:round; stroke-linejoin:round; stroke-width:4; stroke-opacity:1; fill:none" points="457.711,218.636 589.923,218.636 "/>
<path clip-path="url(#clip760)" d="M625.801 238.323 Q623.995 242.953 622.282 244.365 Q620.569 245.777 617.699 245.777 L614.296 245.777 L614.296 242.212 L616.796 242.212 Q618.556 242.212 619.528 241.379 Q620.5 240.545 621.681 237.443 L622.444 235.499 L611.958 209.99 L616.472 209.99 L624.574 230.268 L632.676 209.99 L637.19 209.99 L625.801 238.323 Z" fill="#000000" fill-rule="nonzero" fill-opacity="1" /><path clip-path="url(#clip760)" d="M644.481 231.981 L652.12 231.981 L652.12 205.615 L643.81 207.282 L643.81 203.022 L652.074 201.356 L656.75 201.356 L656.75 231.981 L664.389 231.981 L664.389 235.916 L644.481 235.916 L644.481 231.981 Z" fill="#000000" fill-rule="nonzero" fill-opacity="1" /></svg>
