<?xml version="1.0" encoding="utf-8"?>
<svg xmlns="http://www.w3.org/2000/svg" xmlns:xlink="http://www.w3.org/1999/xlink" width="600" height="400" viewBox="0 0 2400 1600">
<defs>
  <clipPath id="clip770">
    <rect x="0" y="0" width="2400" height="1600"/>
  </clipPath>
</defs>
<path clip-path="url(#clip770)" d="M0 1600 L2400 1600 L2400 0 L0 0  Z" fill="#ffffff" fill-rule="evenodd" fill-opacity="1"/>
<defs>
  <clipPath id="clip771">
    <rect x="480" y="0" width="1681" height="1600"/>
  </clipPath>
</defs>
<path clip-path="url(#clip770)" d="M370.509 1423.18 L2352.76 1423.18 L2352.76 123.472 L370.509 123.472  Z" fill="#ffffff" fill-rule="evenodd" fill-opacity="1"/>
<defs>
  <clipPath id="clip772">
    <rect x="370" y="123" width="1983" height="1301"/>
  </clipPath>
</defs>
<polyline clip-path="url(#clip772)" style="stroke:#000000; stroke-linecap:round; stroke-linejoin:round; stroke-width:2; stroke-opacity:0.1; fill:none" points="634.393,1423.18 634.393,123.472 "/>
<polyline clip-path="url(#clip772)" style="stroke:#000000; stroke-linecap:round; stroke-linejoin:round; stroke-width:2; stroke-opacity:0.1; fill:none" points="1049.96,1423.18 1049.96,123.472 "/>
<polyline clip-path="url(#clip772)" style="stroke:#000000; stroke-linecap:round; stroke-linejoin:round; stroke-width:2; stroke-opacity:0.1; fill:none" points="1465.52,1423.18 1465.52,123.472 "/>
<polyline clip-path="url(#clip772)" style="stroke:#000000; stroke-linecap:round; stroke-linejoin:round; stroke-width:2; stroke-opacity:0.1; fill:none" points="1881.09,1423.18 1881.09,123.472 "/>
<polyline clip-path="url(#clip772)" style="stroke:#000000; stroke-linecap:round; stroke-linejoin:round; stroke-width:2; stroke-opacity:0.1; fill:none" points="2296.65,1423.18 2296.65,123.472 "/>
<polyline clip-path="url(#clip772)" style="stroke:#000000; stroke-linecap:round; stroke-linejoin:round; stroke-width:2; stroke-opacity:0.1; fill:none" points="370.509,1396.02 2352.76,1396.02 "/>
<polyline clip-path="url(#clip772)" style="stroke:#000000; stroke-linecap:round; stroke-linejoin:round; stroke-width:2; stroke-opacity:0.1; fill:none" points="370.509,1206.1 2352.76,1206.1 "/>
<polyline clip-path="url(#clip772)" style="stroke:#000000; stroke-linecap:round; stroke-linejoin:round; stroke-width:2; stroke-opacity:0.1; fill:none" points="370.509,1016.18 2352.76,1016.18 "/>
<polyline clip-path="url(#clip772)" style="stroke:#000000; stroke-linecap:round; stroke-linejoin:round; stroke-width:2; stroke-opacity:0.1; fill:none" points="370.509,826.257 2352.76,826.257 "/>
<polyline clip-path="url(#clip772)" style="stroke:#000000; stroke-linecap:round; stroke-linejoin:round; stroke-width:2; stroke-opacity:0.1; fill:none" points="370.509,636.335 2352.76,636.335 "/>
<polyline clip-path="url(#clip772)" style="stroke:#000000; stroke-linecap:round; stroke-linejoin:round; stroke-width:2; stroke-opacity:0.1; fill:none" points="370.509,446.412 2352.76,446.412 "/>
<polyline clip-path="url(#clip772)" style="stroke:#000000; stroke-linecap:round; stroke-linejoin:round; stroke-width:2; stroke-opacity:0.1; fill:none" points="370.509,256.49 2352.76,256.49 "/>
<polyline clip-path="url(#clip770)" style="stroke:#000000; stroke-linecap:round; stroke-linejoin:round; stroke-width:4; stroke-opacity:1; fill:none" points="370.509,1423.18 2352.76,1423.18 "/>
<polyline clip-path="url(#clip770)" style="stroke:#000000; stroke-linecap:round; stroke-linejoin:round; stroke-width:4; stroke-opacity:1; fill:none" points="634.393,1423.18 634.393,1404.28 "/>
<polyline clip-path="url(#clip770)" style="stroke:#000000; stroke-linecap:round; stroke-linejoin:round; stroke-width:4; stroke-opacity:1; fill:none" points="1049.96,1423.18 1049.96,1404.28 "/>
<polyline clip-path="url(#clip770)" style="stroke:#000000; stroke-linecap:round; stroke-linejoin:round; stroke-width:4; stroke-opacity:1; fill:none" points="1465.52,1423.18 1465.52,1404.28 "/>
<polyline clip-path="url(#clip770)" style="stroke:#000000; stroke-linecap:round; stroke-linejoin:round; stroke-width:4; stroke-opacity:1; fill:none" points="1881.09,1423.18 1881.09,1404.28 "/>
<polyline clip-path="url(#clip770)" style="stroke:#000000; stroke-linecap:round; stroke-linejoin:round; stroke-width:4; stroke-opacity:1; fill:none" points="2296.65,1423.18 2296.65,1404.28 "/>
<path clip-path="url(#clip770)" d="M629.046 1481.64 L645.365 1481.64 L645.365 1485.58 L623.421 1485.58 L623.421 1481.64 Q626.083 1478.89 630.666 1474.26 Q635.273 1469.61 636.453 1468.27 Q638.699 1465.74 639.578 1464.01 Q640.481 1462.25 640.481 1460.56 Q640.481 1457.8 638.537 1456.07 Q636.615 1454.33 633.514 1454.33 Q631.315 1454.33 628.861 1455.09 Q626.43 1455.86 623.653 1457.41 L623.653 1452.69 Q626.477 1451.55 628.93 1450.97 Q631.384 1450.39 633.421 1450.39 Q638.791 1450.39 641.986 1453.08 Q645.18 1455.77 645.18 1460.26 Q645.18 1462.39 644.37 1464.31 Q643.583 1466.2 641.477 1468.8 Q640.898 1469.47 637.796 1472.69 Q634.694 1475.88 629.046 1481.64 Z" fill="#000000" fill-rule="nonzero" fill-opacity="1" /><path clip-path="url(#clip770)" d="M1052.97 1455.09 L1041.16 1473.54 L1052.97 1473.54 L1052.97 1455.09 M1051.74 1451.02 L1057.62 1451.02 L1057.62 1473.54 L1062.55 1473.54 L1062.55 1477.43 L1057.62 1477.43 L1057.62 1485.58 L1052.97 1485.58 L1052.97 1477.43 L1037.37 1477.43 L1037.37 1472.92 L1051.74 1451.02 Z" fill="#000000" fill-rule="nonzero" fill-opacity="1" /><path clip-path="url(#clip770)" d="M1465.93 1466.44 Q1462.78 1466.44 1460.93 1468.59 Q1459.1 1470.74 1459.1 1474.49 Q1459.1 1478.22 1460.93 1480.39 Q1462.78 1482.55 1465.93 1482.55 Q1469.08 1482.55 1470.91 1480.39 Q1472.76 1478.22 1472.76 1474.49 Q1472.76 1470.74 1470.91 1468.59 Q1469.08 1466.44 1465.93 1466.44 M1475.21 1451.78 L1475.21 1456.04 Q1473.45 1455.21 1471.65 1454.77 Q1469.86 1454.33 1468.1 1454.33 Q1463.48 1454.33 1461.02 1457.45 Q1458.59 1460.58 1458.24 1466.9 Q1459.61 1464.89 1461.67 1463.82 Q1463.73 1462.73 1466.21 1462.73 Q1471.42 1462.73 1474.42 1465.9 Q1477.46 1469.05 1477.46 1474.49 Q1477.46 1479.82 1474.31 1483.03 Q1471.16 1486.25 1465.93 1486.25 Q1459.93 1486.25 1456.76 1481.67 Q1453.59 1477.06 1453.59 1468.33 Q1453.59 1460.14 1457.48 1455.28 Q1461.37 1450.39 1467.92 1450.39 Q1469.68 1450.39 1471.46 1450.74 Q1473.27 1451.09 1475.21 1451.78 Z" fill="#000000" fill-rule="nonzero" fill-opacity="1" /><path clip-path="url(#clip770)" d="M1881.09 1469.17 Q1877.76 1469.17 1875.83 1470.95 Q1873.94 1472.73 1873.94 1475.86 Q1873.94 1478.98 1875.83 1480.77 Q1877.76 1482.55 1881.09 1482.55 Q1884.42 1482.55 1886.34 1480.77 Q1888.27 1478.96 1888.27 1475.86 Q1888.27 1472.73 1886.34 1470.95 Q1884.45 1469.17 1881.09 1469.17 M1876.41 1467.18 Q1873.4 1466.44 1871.71 1464.38 Q1870.05 1462.32 1870.05 1459.35 Q1870.05 1455.21 1872.99 1452.8 Q1875.95 1450.39 1881.09 1450.39 Q1886.25 1450.39 1889.19 1452.8 Q1892.13 1455.21 1892.13 1459.35 Q1892.13 1462.32 1890.44 1464.38 Q1888.77 1466.44 1885.79 1467.18 Q1889.17 1467.96 1891.04 1470.26 Q1892.94 1472.55 1892.94 1475.86 Q1892.94 1480.88 1889.86 1483.57 Q1886.81 1486.25 1881.09 1486.25 Q1875.37 1486.25 1872.29 1483.57 Q1869.24 1480.88 1869.24 1475.86 Q1869.24 1472.55 1871.14 1470.26 Q1873.03 1467.96 1876.41 1467.18 M1874.7 1459.79 Q1874.7 1462.48 1876.37 1463.98 Q1878.06 1465.49 1881.09 1465.49 Q1884.1 1465.49 1885.79 1463.98 Q1887.5 1462.48 1887.5 1459.79 Q1887.5 1457.11 1885.79 1455.6 Q1884.1 1454.1 1881.09 1454.1 Q1878.06 1454.1 1876.37 1455.6 Q1874.7 1457.11 1874.7 1459.79 Z" fill="#000000" fill-rule="nonzero" fill-opacity="1" /><path clip-path="url(#clip770)" d="M2271.34 1481.64 L2278.98 1481.64 L2278.98 1455.28 L2270.67 1456.95 L2270.67 1452.69 L2278.93 1451.02 L2283.61 1451.02 L2283.61 1481.64 L2291.25 1481.64 L2291.25 1485.58 L2271.34 1485.58 L2271.34 1481.64 Z" fill="#000000" fill-rule="nonzero" fill-opacity="1" /><path clip-path="url(#clip770)" d="M2310.69 1454.1 Q2307.08 1454.1 2305.25 1457.66 Q2303.45 1461.2 2303.45 1468.33 Q2303.45 1475.44 2305.25 1479.01 Q2307.08 1482.55 2310.69 1482.55 Q2314.33 1482.55 2316.13 1479.01 Q2317.96 1475.44 2317.96 1468.33 Q2317.96 1461.2 2316.13 1457.66 Q2314.33 1454.1 2310.69 1454.1 M2310.69 1450.39 Q2316.5 1450.39 2319.56 1455 Q2322.64 1459.58 2322.64 1468.33 Q2322.64 1477.06 2319.56 1481.67 Q2316.5 1486.25 2310.69 1486.25 Q2304.88 1486.25 2301.81 1481.67 Q2298.75 1477.06 2298.75 1468.33 Q2298.75 1459.58 2301.81 1455 Q2304.88 1450.39 2310.69 1450.39 Z" fill="#000000" fill-rule="nonzero" fill-opacity="1" /><path clip-path="url(#clip770)" d="M1131.15 1522.08 L1131.15 1528.35 Q1127.49 1526.6 1124.24 1525.74 Q1120.99 1524.88 1117.97 1524.88 Q1112.72 1524.88 1109.85 1526.92 Q1107.02 1528.96 1107.02 1532.71 Q1107.02 1535.87 1108.9 1537.49 Q1110.81 1539.08 1116.09 1540.07 L1119.97 1540.86 Q1127.17 1542.23 1130.57 1545.7 Q1134.01 1549.14 1134.01 1554.93 Q1134.01 1561.84 1129.36 1565.4 Q1124.75 1568.97 1115.8 1568.97 Q1112.43 1568.97 1108.61 1568.2 Q1104.82 1567.44 1100.75 1565.94 L1100.75 1559.32 Q1104.66 1561.52 1108.42 1562.63 Q1112.18 1563.75 1115.8 1563.75 Q1121.31 1563.75 1124.3 1561.58 Q1127.3 1559.42 1127.3 1555.41 Q1127.3 1551.91 1125.13 1549.93 Q1123 1547.96 1118.1 1546.97 L1114.18 1546.21 Q1106.99 1544.78 1103.77 1541.72 Q1100.56 1538.67 1100.56 1533.22 Q1100.56 1526.92 1104.98 1523.29 Q1109.44 1519.66 1117.24 1519.66 Q1120.58 1519.66 1124.05 1520.27 Q1127.52 1520.87 1131.15 1522.08 Z" fill="#000000" fill-rule="nonzero" fill-opacity="1" /><path clip-path="url(#clip770)" d="M1169.44 1533.76 L1169.44 1539.24 Q1166.95 1537.87 1164.44 1537.2 Q1161.96 1536.5 1159.41 1536.5 Q1153.71 1536.5 1150.56 1540.13 Q1147.41 1543.73 1147.41 1550.25 Q1147.41 1556.78 1150.56 1560.4 Q1153.71 1564 1159.41 1564 Q1161.96 1564 1164.44 1563.33 Q1166.95 1562.63 1169.44 1561.26 L1169.44 1566.68 Q1166.99 1567.82 1164.34 1568.39 Q1161.73 1568.97 1158.77 1568.97 Q1150.72 1568.97 1145.98 1563.91 Q1141.24 1558.85 1141.24 1550.25 Q1141.24 1541.53 1146.01 1536.53 Q1150.82 1531.54 1159.16 1531.54 Q1161.86 1531.54 1164.44 1532.11 Q1167.02 1532.65 1169.44 1533.76 Z" fill="#000000" fill-rule="nonzero" fill-opacity="1" /><path clip-path="url(#clip770)" d="M1179.62 1532.4 L1185.48 1532.4 L1185.48 1568.04 L1179.62 1568.04 L1179.62 1532.4 M1179.62 1518.52 L1185.48 1518.52 L1185.48 1525.93 L1179.62 1525.93 L1179.62 1518.52 Z" fill="#000000" fill-rule="nonzero" fill-opacity="1" /><path clip-path="url(#clip770)" d="M1227.36 1546.53 L1227.36 1568.04 L1221.51 1568.04 L1221.51 1546.72 Q1221.51 1541.66 1219.53 1539.14 Q1217.56 1536.63 1213.61 1536.63 Q1208.87 1536.63 1206.13 1539.65 Q1203.4 1542.68 1203.4 1547.9 L1203.4 1568.04 L1197.51 1568.04 L1197.51 1532.4 L1203.4 1532.4 L1203.4 1537.93 Q1205.5 1534.72 1208.33 1533.13 Q1211.2 1531.54 1214.92 1531.54 Q1221.06 1531.54 1224.21 1535.36 Q1227.36 1539.14 1227.36 1546.53 Z" fill="#000000" fill-rule="nonzero" fill-opacity="1" /><path clip-path="url(#clip770)" d="M1244.84 1522.27 L1244.84 1532.4 L1256.9 1532.4 L1256.9 1536.95 L1244.84 1536.95 L1244.84 1556.3 Q1244.84 1560.66 1246.02 1561.9 Q1247.22 1563.14 1250.89 1563.14 L1256.9 1563.14 L1256.9 1568.04 L1250.89 1568.04 Q1244.11 1568.04 1241.53 1565.53 Q1238.95 1562.98 1238.95 1556.3 L1238.95 1536.95 L1234.65 1536.95 L1234.65 1532.4 L1238.95 1532.4 L1238.95 1522.27 L1244.84 1522.27 Z" fill="#000000" fill-rule="nonzero" fill-opacity="1" /><path clip-path="url(#clip770)" d="M1264.6 1532.4 L1270.46 1532.4 L1270.46 1568.04 L1264.6 1568.04 L1264.6 1532.4 M1264.6 1518.52 L1270.46 1518.52 L1270.46 1525.93 L1264.6 1525.93 L1264.6 1518.52 Z" fill="#000000" fill-rule="nonzero" fill-opacity="1" /><path clip-path="url(#clip770)" d="M1282.71 1518.52 L1288.57 1518.52 L1288.57 1568.04 L1282.71 1568.04 L1282.71 1518.52 Z" fill="#000000" fill-rule="nonzero" fill-opacity="1" /><path clip-path="url(#clip770)" d="M1300.82 1518.52 L1306.68 1518.52 L1306.68 1568.04 L1300.82 1568.04 L1300.82 1518.52 Z" fill="#000000" fill-rule="nonzero" fill-opacity="1" /><path clip-path="url(#clip770)" d="M1335.14 1550.12 Q1328.04 1550.12 1325.3 1551.75 Q1322.56 1553.37 1322.56 1557.29 Q1322.56 1560.4 1324.6 1562.25 Q1326.67 1564.07 1330.2 1564.07 Q1335.07 1564.07 1338 1560.63 Q1340.96 1557.16 1340.96 1551.43 L1340.96 1550.12 L1335.14 1550.12 M1346.82 1547.71 L1346.82 1568.04 L1340.96 1568.04 L1340.96 1562.63 Q1338.95 1565.88 1335.96 1567.44 Q1332.97 1568.97 1328.64 1568.97 Q1323.17 1568.97 1319.92 1565.91 Q1316.71 1562.82 1316.71 1557.67 Q1316.71 1551.65 1320.72 1548.6 Q1324.76 1545.54 1332.75 1545.54 L1340.96 1545.54 L1340.96 1544.97 Q1340.96 1540.93 1338.29 1538.73 Q1335.64 1536.5 1330.84 1536.5 Q1327.78 1536.5 1324.89 1537.23 Q1321.99 1537.97 1319.32 1539.43 L1319.32 1534.02 Q1322.53 1532.78 1325.55 1532.17 Q1328.58 1531.54 1331.44 1531.54 Q1339.18 1531.54 1343 1535.55 Q1346.82 1539.56 1346.82 1547.71 Z" fill="#000000" fill-rule="nonzero" fill-opacity="1" /><path clip-path="url(#clip770)" d="M1364.67 1522.27 L1364.67 1532.4 L1376.74 1532.4 L1376.74 1536.95 L1364.67 1536.95 L1364.67 1556.3 Q1364.67 1560.66 1365.85 1561.9 Q1367.06 1563.14 1370.72 1563.14 L1376.74 1563.14 L1376.74 1568.04 L1370.72 1568.04 Q1363.94 1568.04 1361.36 1565.53 Q1358.78 1562.98 1358.78 1556.3 L1358.78 1536.95 L1354.49 1536.95 L1354.49 1532.4 L1358.78 1532.4 L1358.78 1522.27 L1364.67 1522.27 Z" fill="#000000" fill-rule="nonzero" fill-opacity="1" /><path clip-path="url(#clip770)" d="M1398.25 1536.5 Q1393.54 1536.5 1390.8 1540.19 Q1388.07 1543.85 1388.07 1550.25 Q1388.07 1556.65 1390.77 1560.34 Q1393.51 1564 1398.25 1564 Q1402.93 1564 1405.67 1560.31 Q1408.4 1556.62 1408.4 1550.25 Q1408.4 1543.92 1405.67 1540.23 Q1402.93 1536.5 1398.25 1536.5 M1398.25 1531.54 Q1405.89 1531.54 1410.25 1536.5 Q1414.61 1541.47 1414.61 1550.25 Q1414.61 1559 1410.25 1564 Q1405.89 1568.97 1398.25 1568.97 Q1390.58 1568.97 1386.22 1564 Q1381.89 1559 1381.89 1550.25 Q1381.89 1541.47 1386.22 1536.5 Q1390.58 1531.54 1398.25 1531.54 Z" fill="#000000" fill-rule="nonzero" fill-opacity="1" /><path clip-path="url(#clip770)" d="M1444.98 1537.87 Q1443.99 1537.3 1442.81 1537.04 Q1441.67 1536.76 1440.26 1536.76 Q1435.3 1536.76 1432.63 1540 Q1429.98 1543.22 1429.98 1549.27 L1429.98 1568.04 L1424.1 1568.04 L1424.1 1532.4 L1429.98 1532.4 L1429.98 1537.93 Q1431.83 1534.69 1434.79 1533.13 Q1437.75 1531.54 1441.98 1531.54 Q1442.59 1531.54 1443.32 1531.63 Q1444.05 1531.7 1444.94 1531.85 L1444.98 1537.87 Z" fill="#000000" fill-rule="nonzero" fill-opacity="1" /><path clip-path="url(#clip770)" d="M1477.5 1562.7 L1477.5 1581.6 L1471.62 1581.6 L1471.62 1532.4 L1477.5 1532.4 L1477.5 1537.81 Q1479.35 1534.62 1482.15 1533.1 Q1484.98 1531.54 1488.9 1531.54 Q1495.39 1531.54 1499.43 1536.69 Q1503.51 1541.85 1503.51 1550.25 Q1503.51 1558.65 1499.43 1563.81 Q1495.39 1568.97 1488.9 1568.97 Q1484.98 1568.97 1482.15 1567.44 Q1479.35 1565.88 1477.5 1562.7 M1497.43 1550.25 Q1497.43 1543.79 1494.76 1540.13 Q1492.11 1536.44 1487.47 1536.44 Q1482.82 1536.44 1480.15 1540.13 Q1477.5 1543.79 1477.5 1550.25 Q1477.5 1556.71 1480.15 1560.4 Q1482.82 1564.07 1487.47 1564.07 Q1492.11 1564.07 1494.76 1560.4 Q1497.43 1556.71 1497.43 1550.25 Z" fill="#000000" fill-rule="nonzero" fill-opacity="1" /><path clip-path="url(#clip770)" d="M1529.42 1550.12 Q1522.32 1550.12 1519.58 1551.75 Q1516.84 1553.37 1516.84 1557.29 Q1516.84 1560.4 1518.88 1562.25 Q1520.95 1564.07 1524.48 1564.07 Q1529.35 1564.07 1532.28 1560.63 Q1535.24 1557.16 1535.24 1551.43 L1535.24 1550.12 L1529.42 1550.12 M1541.1 1547.71 L1541.1 1568.04 L1535.24 1568.04 L1535.24 1562.63 Q1533.24 1565.88 1530.24 1567.44 Q1527.25 1568.97 1522.92 1568.97 Q1517.45 1568.97 1514.2 1565.91 Q1510.99 1562.82 1510.99 1557.67 Q1510.99 1551.65 1515 1548.6 Q1519.04 1545.54 1527.03 1545.54 L1535.24 1545.54 L1535.24 1544.97 Q1535.24 1540.93 1532.57 1538.73 Q1529.93 1536.5 1525.12 1536.5 Q1522.06 1536.5 1519.17 1537.23 Q1516.27 1537.97 1513.6 1539.43 L1513.6 1534.02 Q1516.81 1532.78 1519.84 1532.17 Q1522.86 1531.54 1525.72 1531.54 Q1533.46 1531.54 1537.28 1535.55 Q1541.1 1539.56 1541.1 1547.71 Z" fill="#000000" fill-rule="nonzero" fill-opacity="1" /><path clip-path="url(#clip770)" d="M1553.16 1532.4 L1559.02 1532.4 L1559.02 1568.04 L1553.16 1568.04 L1553.16 1532.4 M1553.16 1518.52 L1559.02 1518.52 L1559.02 1525.93 L1553.16 1525.93 L1553.16 1518.52 Z" fill="#000000" fill-rule="nonzero" fill-opacity="1" /><path clip-path="url(#clip770)" d="M1591.93 1537.87 Q1590.94 1537.3 1589.76 1537.04 Q1588.62 1536.76 1587.22 1536.76 Q1582.25 1536.76 1579.58 1540 Q1576.94 1543.22 1576.94 1549.27 L1576.94 1568.04 L1571.05 1568.04 L1571.05 1532.4 L1576.94 1532.4 L1576.94 1537.93 Q1578.78 1534.69 1581.74 1533.13 Q1584.7 1531.54 1588.94 1531.54 Q1589.54 1531.54 1590.27 1531.63 Q1591 1531.7 1591.9 1531.85 L1591.93 1537.87 Z" fill="#000000" fill-rule="nonzero" fill-opacity="1" /><path clip-path="url(#clip770)" d="M1620.8 1533.45 L1620.8 1538.98 Q1618.31 1537.71 1615.64 1537.07 Q1612.97 1536.44 1610.1 1536.44 Q1605.74 1536.44 1603.55 1537.77 Q1601.38 1539.11 1601.38 1541.79 Q1601.38 1543.82 1602.94 1545 Q1604.5 1546.15 1609.21 1547.2 L1611.22 1547.64 Q1617.45 1548.98 1620.06 1551.43 Q1622.71 1553.85 1622.71 1558.21 Q1622.71 1563.17 1618.76 1566.07 Q1614.84 1568.97 1607.97 1568.97 Q1605.1 1568.97 1601.99 1568.39 Q1598.9 1567.85 1595.46 1566.74 L1595.46 1560.69 Q1598.71 1562.38 1601.86 1563.24 Q1605.01 1564.07 1608.1 1564.07 Q1612.23 1564.07 1614.46 1562.66 Q1616.69 1561.23 1616.69 1558.65 Q1616.69 1556.27 1615.07 1554.99 Q1613.48 1553.72 1608.03 1552.54 L1606 1552.07 Q1600.55 1550.92 1598.13 1548.56 Q1595.72 1546.18 1595.72 1542.04 Q1595.72 1537.01 1599.28 1534.27 Q1602.85 1531.54 1609.4 1531.54 Q1612.65 1531.54 1615.51 1532.01 Q1618.38 1532.49 1620.8 1533.45 Z" fill="#000000" fill-rule="nonzero" fill-opacity="1" /><polyline clip-path="url(#clip770)" style="stroke:#000000; stroke-linecap:round; stroke-linejoin:round; stroke-width:4; stroke-opacity:1; fill:none" points="370.509,1423.18 370.509,123.472 "/>
<polyline clip-path="url(#clip770)" style="stroke:#000000; stroke-linecap:round; stroke-linejoin:round; stroke-width:4; stroke-opacity:1; fill:none" points="370.509,1396.02 389.407,1396.02 "/>
<polyline clip-path="url(#clip770)" style="stroke:#000000; stroke-linecap:round; stroke-linejoin:round; stroke-width:4; stroke-opacity:1; fill:none" points="370.509,1206.1 389.407,1206.1 "/>
<polyline clip-path="url(#clip770)" style="stroke:#000000; stroke-linecap:round; stroke-linejoin:round; stroke-width:4; stroke-opacity:1; fill:none" points="370.509,1016.18 389.407,1016.18 "/>
<polyline clip-path="url(#clip770)" style="stroke:#000000; stroke-linecap:round; stroke-linejoin:round; stroke-width:4; stroke-opacity:1; fill:none" points="370.509,826.257 389.407,826.257 "/>
<polyline clip-path="url(#clip770)" style="stroke:#000000; stroke-linecap:round; stroke-linejoin:round; stroke-width:4; stroke-opacity:1; fill:none" points="370.509,636.335 389.407,636.335 "/>
<polyline clip-path="url(#clip770)" style="stroke:#000000; stroke-linecap:round; stroke-linejoin:round; stroke-width:4; stroke-opacity:1; fill:none" points="370.509,446.412 389.407,446.412 "/>
<polyline clip-path="url(#clip770)" style="stroke:#000000; stroke-linecap:round; stroke-linejoin:round; stroke-width:4; stroke-opacity:1; fill:none" points="370.509,256.49 389.407,256.49 "/>
<path clip-path="url(#clip770)" d="M322.565 1381.82 Q318.954 1381.82 317.125 1385.39 Q315.32 1388.93 315.32 1396.06 Q315.32 1403.17 317.125 1406.73 Q318.954 1410.27 322.565 1410.27 Q326.199 1410.27 328.005 1406.73 Q329.833 1403.17 329.833 1396.06 Q329.833 1388.93 328.005 1385.39 Q326.199 1381.82 322.565 1381.82 M322.565 1378.12 Q328.375 1378.12 331.431 1382.73 Q334.509 1387.31 334.509 1396.06 Q334.509 1404.79 331.431 1409.39 Q328.375 1413.98 322.565 1413.98 Q316.755 1413.98 313.676 1409.39 Q310.621 1404.79 310.621 1396.06 Q310.621 1387.31 313.676 1382.73 Q316.755 1378.12 322.565 1378.12 Z" fill="#000000" fill-rule="nonzero" fill-opacity="1" /><path clip-path="url(#clip770)" d="M117.825 1225.89 L125.464 1225.89 L125.464 1199.53 L117.154 1201.2 L117.154 1196.94 L125.418 1195.27 L130.093 1195.27 L130.093 1225.89 L137.732 1225.89 L137.732 1229.83 L117.825 1229.83 L117.825 1225.89 Z" fill="#000000" fill-rule="nonzero" fill-opacity="1" /><path clip-path="url(#clip770)" d="M147.177 1223.95 L152.061 1223.95 L152.061 1229.83 L147.177 1229.83 L147.177 1223.95 Z" fill="#000000" fill-rule="nonzero" fill-opacity="1" /><path clip-path="url(#clip770)" d="M172.246 1198.35 Q168.635 1198.35 166.806 1201.91 Q165.001 1205.46 165.001 1212.58 Q165.001 1219.69 166.806 1223.26 Q168.635 1226.8 172.246 1226.8 Q175.88 1226.8 177.686 1223.26 Q179.514 1219.69 179.514 1212.58 Q179.514 1205.46 177.686 1201.91 Q175.88 1198.35 172.246 1198.35 M172.246 1194.64 Q178.056 1194.64 181.112 1199.25 Q184.19 1203.83 184.19 1212.58 Q184.19 1221.31 181.112 1225.92 Q178.056 1230.5 172.246 1230.5 Q166.436 1230.5 163.357 1225.92 Q160.302 1221.31 160.302 1212.58 Q160.302 1203.83 163.357 1199.25 Q166.436 1194.64 172.246 1194.64 Z" fill="#000000" fill-rule="nonzero" fill-opacity="1" /><path clip-path="url(#clip770)" d="M220.579 1204.37 L210 1214.99 L220.579 1225.57 L217.824 1228.37 L207.199 1217.75 L196.575 1228.37 L193.843 1225.57 L204.399 1214.99 L193.843 1204.37 L196.575 1201.57 L207.199 1212.19 L217.824 1201.57 L220.579 1204.37 Z" fill="#000000" fill-rule="nonzero" fill-opacity="1" /><path clip-path="url(#clip770)" d="M232.94 1225.89 L240.579 1225.89 L240.579 1199.53 L232.269 1201.2 L232.269 1196.94 L240.533 1195.27 L245.209 1195.27 L245.209 1225.89 L252.847 1225.89 L252.847 1229.83 L232.94 1229.83 L232.94 1225.89 Z" fill="#000000" fill-rule="nonzero" fill-opacity="1" /><path clip-path="url(#clip770)" d="M272.292 1198.35 Q268.681 1198.35 266.852 1201.91 Q265.046 1205.46 265.046 1212.58 Q265.046 1219.69 266.852 1223.26 Q268.681 1226.8 272.292 1226.8 Q275.926 1226.8 277.732 1223.26 Q279.56 1219.69 279.56 1212.58 Q279.56 1205.46 277.732 1201.91 Q275.926 1198.35 272.292 1198.35 M272.292 1194.64 Q278.102 1194.64 281.157 1199.25 Q284.236 1203.83 284.236 1212.58 Q284.236 1221.31 281.157 1225.92 Q278.102 1230.5 272.292 1230.5 Q266.482 1230.5 263.403 1225.92 Q260.347 1221.31 260.347 1212.58 Q260.347 1203.83 263.403 1199.25 Q266.482 1194.64 272.292 1194.64 Z" fill="#000000" fill-rule="nonzero" fill-opacity="1" /><path clip-path="url(#clip770)" d="M284.236 1188.75 L308.348 1188.75 L308.348 1191.94 L284.236 1191.94 L284.236 1188.75 Z" fill="#000000" fill-rule="nonzero" fill-opacity="1" /><path clip-path="url(#clip770)" d="M325.143 1186.87 Q322.585 1186.87 321.081 1188.61 Q319.595 1190.36 319.595 1193.41 Q319.595 1196.44 321.081 1198.21 Q322.585 1199.96 325.143 1199.96 Q327.701 1199.96 329.187 1198.21 Q330.691 1196.44 330.691 1193.41 Q330.691 1190.36 329.187 1188.61 Q327.701 1186.87 325.143 1186.87 M332.685 1174.96 L332.685 1178.42 Q331.256 1177.74 329.789 1177.39 Q328.34 1177.03 326.911 1177.03 Q323.149 1177.03 321.156 1179.57 Q319.181 1182.11 318.899 1187.24 Q320.008 1185.61 321.682 1184.74 Q323.356 1183.86 325.369 1183.86 Q329.6 1183.86 332.045 1186.43 Q334.509 1188.99 334.509 1193.41 Q334.509 1197.74 331.951 1200.35 Q329.394 1202.96 325.143 1202.96 Q320.272 1202.96 317.695 1199.24 Q315.118 1195.5 315.118 1188.41 Q315.118 1181.75 318.278 1177.8 Q321.438 1173.83 326.76 1173.83 Q328.19 1173.83 329.638 1174.11 Q331.105 1174.4 332.685 1174.96 Z" fill="#000000" fill-rule="nonzero" fill-opacity="1" /><path clip-path="url(#clip770)" d="M121.043 1035.97 L137.362 1035.97 L137.362 1039.91 L115.418 1039.91 L115.418 1035.97 Q118.08 1033.22 122.663 1028.59 Q127.269 1023.94 128.45 1022.59 Q130.695 1020.07 131.575 1018.33 Q132.478 1016.57 132.478 1014.88 Q132.478 1012.13 130.533 1010.39 Q128.612 1008.66 125.51 1008.66 Q123.311 1008.66 120.857 1009.42 Q118.427 1010.19 115.649 1011.74 L115.649 1007.01 Q118.473 1005.88 120.927 1005.3 Q123.38 1004.72 125.418 1004.72 Q130.788 1004.72 133.982 1007.41 Q137.177 1010.09 137.177 1014.58 Q137.177 1016.71 136.367 1018.63 Q135.579 1020.53 133.473 1023.13 Q132.894 1023.8 129.792 1027.01 Q126.691 1030.21 121.043 1035.97 Z" fill="#000000" fill-rule="nonzero" fill-opacity="1" /><path clip-path="url(#clip770)" d="M147.177 1034.03 L152.061 1034.03 L152.061 1039.91 L147.177 1039.91 L147.177 1034.03 Z" fill="#000000" fill-rule="nonzero" fill-opacity="1" /><path clip-path="url(#clip770)" d="M172.246 1008.43 Q168.635 1008.43 166.806 1011.99 Q165.001 1015.53 165.001 1022.66 Q165.001 1029.77 166.806 1033.33 Q168.635 1036.88 172.246 1036.88 Q175.88 1036.88 177.686 1033.33 Q179.514 1029.77 179.514 1022.66 Q179.514 1015.53 177.686 1011.99 Q175.88 1008.43 172.246 1008.43 M172.246 1004.72 Q178.056 1004.72 181.112 1009.33 Q184.19 1013.91 184.19 1022.66 Q184.19 1031.39 181.112 1036 Q178.056 1040.58 172.246 1040.58 Q166.436 1040.58 163.357 1036 Q160.302 1031.39 160.302 1022.66 Q160.302 1013.91 163.357 1009.33 Q166.436 1004.72 172.246 1004.72 Z" fill="#000000" fill-rule="nonzero" fill-opacity="1" /><path clip-path="url(#clip770)" d="M220.579 1014.44 L210 1025.07 L220.579 1035.65 L217.824 1038.45 L207.199 1027.82 L196.575 1038.45 L193.843 1035.65 L204.399 1025.07 L193.843 1014.44 L196.575 1011.64 L207.199 1022.27 L217.824 1011.64 L220.579 1014.44 Z" fill="#000000" fill-rule="nonzero" fill-opacity="1" /><path clip-path="url(#clip770)" d="M232.94 1035.97 L240.579 1035.97 L240.579 1009.61 L232.269 1011.27 L232.269 1007.01 L240.533 1005.35 L245.209 1005.35 L245.209 1035.97 L252.847 1035.97 L252.847 1039.91 L232.94 1039.91 L232.94 1035.97 Z" fill="#000000" fill-rule="nonzero" fill-opacity="1" /><path clip-path="url(#clip770)" d="M272.292 1008.43 Q268.681 1008.43 266.852 1011.99 Q265.046 1015.53 265.046 1022.66 Q265.046 1029.77 266.852 1033.33 Q268.681 1036.88 272.292 1036.88 Q275.926 1036.88 277.732 1033.33 Q279.56 1029.77 279.56 1022.66 Q279.56 1015.53 277.732 1011.99 Q275.926 1008.43 272.292 1008.43 M272.292 1004.72 Q278.102 1004.72 281.157 1009.33 Q284.236 1013.91 284.236 1022.66 Q284.236 1031.39 281.157 1036 Q278.102 1040.58 272.292 1040.58 Q266.482 1040.58 263.403 1036 Q260.347 1031.39 260.347 1022.66 Q260.347 1013.91 263.403 1009.33 Q266.482 1004.72 272.292 1004.72 Z" fill="#000000" fill-rule="nonzero" fill-opacity="1" /><path clip-path="url(#clip770)" d="M284.236 998.824 L308.348 998.824 L308.348 1002.02 L284.236 1002.02 L284.236 998.824 Z" fill="#000000" fill-rule="nonzero" fill-opacity="1" /><path clip-path="url(#clip770)" d="M325.143 996.943 Q322.585 996.943 321.081 998.692 Q319.595 1000.44 319.595 1003.49 Q319.595 1006.52 321.081 1008.28 Q322.585 1010.03 325.143 1010.03 Q327.701 1010.03 329.187 1008.28 Q330.691 1006.52 330.691 1003.49 Q330.691 1000.44 329.187 998.692 Q327.701 996.943 325.143 996.943 M332.685 985.038 L332.685 988.498 Q331.256 987.821 329.789 987.464 Q328.34 987.107 326.911 987.107 Q323.149 987.107 321.156 989.646 Q319.181 992.185 318.899 997.319 Q320.008 995.683 321.682 994.818 Q323.356 993.934 325.369 993.934 Q329.6 993.934 332.045 996.51 Q334.509 999.068 334.509 1003.49 Q334.509 1007.81 331.951 1010.43 Q329.394 1013.04 325.143 1013.04 Q320.272 1013.04 317.695 1009.32 Q315.118 1005.58 315.118 998.485 Q315.118 991.827 318.278 987.878 Q321.438 983.909 326.76 983.909 Q328.19 983.909 329.638 984.191 Q331.105 984.473 332.685 985.038 Z" fill="#000000" fill-rule="nonzero" fill-opacity="1" /><path clip-path="url(#clip770)" d="M131.181 831.351 Q134.538 832.068 136.413 834.337 Q138.311 836.605 138.311 839.939 Q138.311 845.054 134.792 847.855 Q131.274 850.656 124.793 850.656 Q122.617 850.656 120.302 850.216 Q118.01 849.8 115.556 848.943 L115.556 844.429 Q117.501 845.564 119.816 846.142 Q122.13 846.721 124.654 846.721 Q129.052 846.721 131.343 844.985 Q133.658 843.249 133.658 839.939 Q133.658 836.883 131.505 835.17 Q129.376 833.434 125.556 833.434 L121.529 833.434 L121.529 829.592 L125.742 829.592 Q129.191 829.592 131.019 828.226 Q132.848 826.837 132.848 824.244 Q132.848 821.582 130.95 820.17 Q129.075 818.735 125.556 818.735 Q123.635 818.735 121.436 819.152 Q119.237 819.568 116.598 820.448 L116.598 816.281 Q119.26 815.541 121.575 815.17 Q123.913 814.8 125.973 814.8 Q131.297 814.8 134.399 817.231 Q137.501 819.638 137.501 823.758 Q137.501 826.629 135.857 828.619 Q134.214 830.587 131.181 831.351 Z" fill="#000000" fill-rule="nonzero" fill-opacity="1" /><path clip-path="url(#clip770)" d="M147.177 844.105 L152.061 844.105 L152.061 849.985 L147.177 849.985 L147.177 844.105 Z" fill="#000000" fill-rule="nonzero" fill-opacity="1" /><path clip-path="url(#clip770)" d="M172.246 818.504 Q168.635 818.504 166.806 822.068 Q165.001 825.61 165.001 832.74 Q165.001 839.846 166.806 843.411 Q168.635 846.953 172.246 846.953 Q175.88 846.953 177.686 843.411 Q179.514 839.846 179.514 832.74 Q179.514 825.61 177.686 822.068 Q175.88 818.504 172.246 818.504 M172.246 814.8 Q178.056 814.8 181.112 819.406 Q184.19 823.99 184.19 832.74 Q184.19 841.466 181.112 846.073 Q178.056 850.656 172.246 850.656 Q166.436 850.656 163.357 846.073 Q160.302 841.466 160.302 832.74 Q160.302 823.99 163.357 819.406 Q166.436 814.8 172.246 814.8 Z" fill="#000000" fill-rule="nonzero" fill-opacity="1" /><path clip-path="url(#clip770)" d="M220.579 824.522 L210 835.147 L220.579 845.726 L217.824 848.527 L207.199 837.902 L196.575 848.527 L193.843 845.726 L204.399 835.147 L193.843 824.522 L196.575 821.721 L207.199 832.346 L217.824 821.721 L220.579 824.522 Z" fill="#000000" fill-rule="nonzero" fill-opacity="1" /><path clip-path="url(#clip770)" d="M232.94 846.05 L240.579 846.05 L240.579 819.684 L232.269 821.351 L232.269 817.092 L240.533 815.425 L245.209 815.425 L245.209 846.05 L252.847 846.05 L252.847 849.985 L232.94 849.985 L232.94 846.05 Z" fill="#000000" fill-rule="nonzero" fill-opacity="1" /><path clip-path="url(#clip770)" d="M272.292 818.504 Q268.681 818.504 266.852 822.068 Q265.046 825.61 265.046 832.74 Q265.046 839.846 266.852 843.411 Q268.681 846.953 272.292 846.953 Q275.926 846.953 277.732 843.411 Q279.56 839.846 279.56 832.74 Q279.56 825.61 277.732 822.068 Q275.926 818.504 272.292 818.504 M272.292 814.8 Q278.102 814.8 281.157 819.406 Q284.236 823.99 284.236 832.74 Q284.236 841.466 281.157 846.073 Q278.102 850.656 272.292 850.656 Q266.482 850.656 263.403 846.073 Q260.347 841.466 260.347 832.74 Q260.347 823.99 263.403 819.406 Q266.482 814.8 272.292 814.8 Z" fill="#000000" fill-rule="nonzero" fill-opacity="1" /><path clip-path="url(#clip770)" d="M284.236 808.901 L308.348 808.901 L308.348 812.099 L284.236 812.099 L284.236 808.901 Z" fill="#000000" fill-rule="nonzero" fill-opacity="1" /><path clip-path="url(#clip770)" d="M325.143 807.021 Q322.585 807.021 321.081 808.77 Q319.595 810.519 319.595 813.566 Q319.595 816.594 321.081 818.362 Q322.585 820.111 325.143 820.111 Q327.701 820.111 329.187 818.362 Q330.691 816.594 330.691 813.566 Q330.691 810.519 329.187 808.77 Q327.701 807.021 325.143 807.021 M332.685 795.115 L332.685 798.576 Q331.256 797.899 329.789 797.541 Q328.34 797.184 326.911 797.184 Q323.149 797.184 321.156 799.723 Q319.181 802.262 318.899 807.397 Q320.008 805.76 321.682 804.895 Q323.356 804.011 325.369 804.011 Q329.6 804.011 332.045 806.588 Q334.509 809.146 334.509 813.566 Q334.509 817.891 331.951 820.506 Q329.394 823.12 325.143 823.12 Q320.272 823.12 317.695 819.396 Q315.118 815.653 315.118 808.563 Q315.118 801.905 318.278 797.955 Q321.438 793.987 326.76 793.987 Q328.19 793.987 329.638 794.269 Q331.105 794.551 332.685 795.115 Z" fill="#000000" fill-rule="nonzero" fill-opacity="1" /><path clip-path="url(#clip770)" d="M129.862 629.577 L118.056 648.026 L129.862 648.026 L129.862 629.577 M128.635 625.503 L134.515 625.503 L134.515 648.026 L139.445 648.026 L139.445 651.914 L134.515 651.914 L134.515 660.063 L129.862 660.063 L129.862 651.914 L114.26 651.914 L114.26 647.401 L128.635 625.503 Z" fill="#000000" fill-rule="nonzero" fill-opacity="1" /><path clip-path="url(#clip770)" d="M147.177 654.183 L152.061 654.183 L152.061 660.063 L147.177 660.063 L147.177 654.183 Z" fill="#000000" fill-rule="nonzero" fill-opacity="1" /><path clip-path="url(#clip770)" d="M172.246 628.581 Q168.635 628.581 166.806 632.146 Q165.001 635.688 165.001 642.817 Q165.001 649.924 166.806 653.488 Q168.635 657.03 172.246 657.03 Q175.88 657.03 177.686 653.488 Q179.514 649.924 179.514 642.817 Q179.514 635.688 177.686 632.146 Q175.88 628.581 172.246 628.581 M172.246 624.878 Q178.056 624.878 181.112 629.484 Q184.19 634.067 184.19 642.817 Q184.19 651.544 181.112 656.151 Q178.056 660.734 172.246 660.734 Q166.436 660.734 163.357 656.151 Q160.302 651.544 160.302 642.817 Q160.302 634.067 163.357 629.484 Q166.436 624.878 172.246 624.878 Z" fill="#000000" fill-rule="nonzero" fill-opacity="1" /><path clip-path="url(#clip770)" d="M220.579 634.6 L210 645.225 L220.579 655.803 L217.824 658.604 L207.199 647.979 L196.575 658.604 L193.843 655.803 L204.399 645.225 L193.843 634.6 L196.575 631.799 L207.199 642.424 L217.824 631.799 L220.579 634.6 Z" fill="#000000" fill-rule="nonzero" fill-opacity="1" /><path clip-path="url(#clip770)" d="M232.94 656.127 L240.579 656.127 L240.579 629.762 L232.269 631.428 L232.269 627.169 L240.533 625.503 L245.209 625.503 L245.209 656.127 L252.847 656.127 L252.847 660.063 L232.94 660.063 L232.94 656.127 Z" fill="#000000" fill-rule="nonzero" fill-opacity="1" /><path clip-path="url(#clip770)" d="M272.292 628.581 Q268.681 628.581 266.852 632.146 Q265.046 635.688 265.046 642.817 Q265.046 649.924 266.852 653.488 Q268.681 657.03 272.292 657.03 Q275.926 657.03 277.732 653.488 Q279.56 649.924 279.56 642.817 Q279.56 635.688 277.732 632.146 Q275.926 628.581 272.292 628.581 M272.292 624.878 Q278.102 624.878 281.157 629.484 Q284.236 634.067 284.236 642.817 Q284.236 651.544 281.157 656.151 Q278.102 660.734 272.292 660.734 Q266.482 660.734 263.403 656.151 Q260.347 651.544 260.347 642.817 Q260.347 634.067 263.403 629.484 Q266.482 624.878 272.292 624.878 Z" fill="#000000" fill-rule="nonzero" fill-opacity="1" /><path clip-path="url(#clip770)" d="M284.236 618.979 L308.348 618.979 L308.348 622.176 L284.236 622.176 L284.236 618.979 Z" fill="#000000" fill-rule="nonzero" fill-opacity="1" /><path clip-path="url(#clip770)" d="M325.143 617.098 Q322.585 617.098 321.081 618.847 Q319.595 620.596 319.595 623.643 Q319.595 626.671 321.081 628.439 Q322.585 630.188 325.143 630.188 Q327.701 630.188 329.187 628.439 Q330.691 626.671 330.691 623.643 Q330.691 620.596 329.187 618.847 Q327.701 617.098 325.143 617.098 M332.685 605.193 L332.685 608.653 Q331.256 607.976 329.789 607.619 Q328.34 607.262 326.911 607.262 Q323.149 607.262 321.156 609.801 Q319.181 612.34 318.899 617.474 Q320.008 615.838 321.682 614.973 Q323.356 614.089 325.369 614.089 Q329.6 614.089 332.045 616.666 Q334.509 619.223 334.509 623.643 Q334.509 627.969 331.951 630.583 Q329.394 633.198 325.143 633.198 Q320.272 633.198 317.695 629.474 Q315.118 625.731 315.118 618.64 Q315.118 611.982 318.278 608.033 Q321.438 604.064 326.76 604.064 Q328.19 604.064 329.638 604.346 Q331.105 604.629 332.685 605.193 Z" fill="#000000" fill-rule="nonzero" fill-opacity="1" /><path clip-path="url(#clip770)" d="M117.061 435.58 L135.417 435.58 L135.417 439.515 L121.343 439.515 L121.343 447.987 Q122.362 447.64 123.38 447.478 Q124.399 447.293 125.418 447.293 Q131.205 447.293 134.584 450.464 Q137.964 453.636 137.964 459.052 Q137.964 464.631 134.492 467.733 Q131.019 470.811 124.7 470.811 Q122.524 470.811 120.255 470.441 Q118.01 470.071 115.603 469.33 L115.603 464.631 Q117.686 465.765 119.908 466.321 Q122.13 466.876 124.607 466.876 Q128.612 466.876 130.95 464.77 Q133.288 462.663 133.288 459.052 Q133.288 455.441 130.95 453.335 Q128.612 451.228 124.607 451.228 Q122.732 451.228 120.857 451.645 Q119.006 452.061 117.061 452.941 L117.061 435.58 Z" fill="#000000" fill-rule="nonzero" fill-opacity="1" /><path clip-path="url(#clip770)" d="M147.177 464.26 L152.061 464.26 L152.061 470.14 L147.177 470.14 L147.177 464.26 Z" fill="#000000" fill-rule="nonzero" fill-opacity="1" /><path clip-path="url(#clip770)" d="M172.246 438.659 Q168.635 438.659 166.806 442.224 Q165.001 445.765 165.001 452.895 Q165.001 460.001 166.806 463.566 Q168.635 467.108 172.246 467.108 Q175.88 467.108 177.686 463.566 Q179.514 460.001 179.514 452.895 Q179.514 445.765 177.686 442.224 Q175.88 438.659 172.246 438.659 M172.246 434.955 Q178.056 434.955 181.112 439.562 Q184.19 444.145 184.19 452.895 Q184.19 461.622 181.112 466.228 Q178.056 470.811 172.246 470.811 Q166.436 470.811 163.357 466.228 Q160.302 461.622 160.302 452.895 Q160.302 444.145 163.357 439.562 Q166.436 434.955 172.246 434.955 Z" fill="#000000" fill-rule="nonzero" fill-opacity="1" /><path clip-path="url(#clip770)" d="M220.579 444.677 L210 455.302 L220.579 465.881 L217.824 468.682 L207.199 458.057 L196.575 468.682 L193.843 465.881 L204.399 455.302 L193.843 444.677 L196.575 441.876 L207.199 452.501 L217.824 441.876 L220.579 444.677 Z" fill="#000000" fill-rule="nonzero" fill-opacity="1" /><path clip-path="url(#clip770)" d="M232.94 466.205 L240.579 466.205 L240.579 439.839 L232.269 441.506 L232.269 437.247 L240.533 435.58 L245.209 435.58 L245.209 466.205 L252.847 466.205 L252.847 470.14 L232.94 470.14 L232.94 466.205 Z" fill="#000000" fill-rule="nonzero" fill-opacity="1" /><path clip-path="url(#clip770)" d="M272.292 438.659 Q268.681 438.659 266.852 442.224 Q265.046 445.765 265.046 452.895 Q265.046 460.001 266.852 463.566 Q268.681 467.108 272.292 467.108 Q275.926 467.108 277.732 463.566 Q279.56 460.001 279.56 452.895 Q279.56 445.765 277.732 442.224 Q275.926 438.659 272.292 438.659 M272.292 434.955 Q278.102 434.955 281.157 439.562 Q284.236 444.145 284.236 452.895 Q284.236 461.622 281.157 466.228 Q278.102 470.811 272.292 470.811 Q266.482 470.811 263.403 466.228 Q260.347 461.622 260.347 452.895 Q260.347 444.145 263.403 439.562 Q266.482 434.955 272.292 434.955 Z" fill="#000000" fill-rule="nonzero" fill-opacity="1" /><path clip-path="url(#clip770)" d="M284.236 429.056 L308.348 429.056 L308.348 432.254 L284.236 432.254 L284.236 429.056 Z" fill="#000000" fill-rule="nonzero" fill-opacity="1" /><path clip-path="url(#clip770)" d="M325.143 427.176 Q322.585 427.176 321.081 428.925 Q319.595 430.674 319.595 433.721 Q319.595 436.749 321.081 438.517 Q322.585 440.266 325.143 440.266 Q327.701 440.266 329.187 438.517 Q330.691 436.749 330.691 433.721 Q330.691 430.674 329.187 428.925 Q327.701 427.176 325.143 427.176 M332.685 415.27 L332.685 418.731 Q331.256 418.054 329.789 417.697 Q328.34 417.339 326.911 417.339 Q323.149 417.339 321.156 419.878 Q319.181 422.417 318.899 427.552 Q320.008 425.916 321.682 425.05 Q323.356 424.166 325.369 424.166 Q329.6 424.166 332.045 426.743 Q334.509 429.301 334.509 433.721 Q334.509 438.047 331.951 440.661 Q329.394 443.275 325.143 443.275 Q320.272 443.275 317.695 439.551 Q315.118 435.808 315.118 428.718 Q315.118 422.06 318.278 418.11 Q321.438 414.142 326.76 414.142 Q328.19 414.142 329.638 414.424 Q331.105 414.706 332.685 415.27 Z" fill="#000000" fill-rule="nonzero" fill-opacity="1" /><path clip-path="url(#clip770)" d="M127.593 261.074 Q124.445 261.074 122.593 263.227 Q120.765 265.38 120.765 269.13 Q120.765 272.857 122.593 275.032 Q124.445 277.185 127.593 277.185 Q130.742 277.185 132.57 275.032 Q134.422 272.857 134.422 269.13 Q134.422 265.38 132.57 263.227 Q130.742 261.074 127.593 261.074 M136.876 246.421 L136.876 250.681 Q135.117 249.847 133.311 249.408 Q131.529 248.968 129.769 248.968 Q125.14 248.968 122.686 252.093 Q120.255 255.218 119.908 261.537 Q121.274 259.523 123.334 258.458 Q125.394 257.371 127.871 257.371 Q133.08 257.371 136.089 260.542 Q139.121 263.69 139.121 269.13 Q139.121 274.454 135.973 277.671 Q132.825 280.889 127.593 280.889 Q121.598 280.889 118.427 276.306 Q115.256 271.699 115.256 262.972 Q115.256 254.778 119.144 249.917 Q123.033 245.033 129.584 245.033 Q131.343 245.033 133.126 245.38 Q134.931 245.727 136.876 246.421 Z" fill="#000000" fill-rule="nonzero" fill-opacity="1" /><path clip-path="url(#clip770)" d="M147.177 274.338 L152.061 274.338 L152.061 280.218 L147.177 280.218 L147.177 274.338 Z" fill="#000000" fill-rule="nonzero" fill-opacity="1" /><path clip-path="url(#clip770)" d="M172.246 248.736 Q168.635 248.736 166.806 252.301 Q165.001 255.843 165.001 262.972 Q165.001 270.079 166.806 273.644 Q168.635 277.185 172.246 277.185 Q175.88 277.185 177.686 273.644 Q179.514 270.079 179.514 262.972 Q179.514 255.843 177.686 252.301 Q175.88 248.736 172.246 248.736 M172.246 245.033 Q178.056 245.033 181.112 249.639 Q184.19 254.222 184.19 262.972 Q184.19 271.699 181.112 276.306 Q178.056 280.889 172.246 280.889 Q166.436 280.889 163.357 276.306 Q160.302 271.699 160.302 262.972 Q160.302 254.222 163.357 249.639 Q166.436 245.033 172.246 245.033 Z" fill="#000000" fill-rule="nonzero" fill-opacity="1" /><path clip-path="url(#clip770)" d="M220.579 254.755 L210 265.38 L220.579 275.958 L217.824 278.759 L207.199 268.134 L196.575 278.759 L193.843 275.958 L204.399 265.38 L193.843 254.755 L196.575 251.954 L207.199 262.579 L217.824 251.954 L220.579 254.755 Z" fill="#000000" fill-rule="nonzero" fill-opacity="1" /><path clip-path="url(#clip770)" d="M232.94 276.282 L240.579 276.282 L240.579 249.917 L232.269 251.584 L232.269 247.324 L240.533 245.658 L245.209 245.658 L245.209 276.282 L252.847 276.282 L252.847 280.218 L232.94 280.218 L232.94 276.282 Z" fill="#000000" fill-rule="nonzero" fill-opacity="1" /><path clip-path="url(#clip770)" d="M272.292 248.736 Q268.681 248.736 266.852 252.301 Q265.046 255.843 265.046 262.972 Q265.046 270.079 266.852 273.644 Q268.681 277.185 272.292 277.185 Q275.926 277.185 277.732 273.644 Q279.56 270.079 279.56 262.972 Q279.56 255.843 277.732 252.301 Q275.926 248.736 272.292 248.736 M272.292 245.033 Q278.102 245.033 281.157 249.639 Q284.236 254.222 284.236 262.972 Q284.236 271.699 281.157 276.306 Q278.102 280.889 272.292 280.889 Q266.482 280.889 263.403 276.306 Q260.347 271.699 260.347 262.972 Q260.347 254.222 263.403 249.639 Q266.482 245.033 272.292 245.033 Z" fill="#000000" fill-rule="nonzero" fill-opacity="1" /><path clip-path="url(#clip770)" d="M284.236 239.134 L308.348 239.134 L308.348 242.331 L284.236 242.331 L284.236 239.134 Z" fill="#000000" fill-rule="nonzero" fill-opacity="1" /><path clip-path="url(#clip770)" d="M325.143 237.253 Q322.585 237.253 321.081 239.002 Q319.595 240.751 319.595 243.798 Q319.595 246.826 321.081 248.594 Q322.585 250.343 325.143 250.343 Q327.701 250.343 329.187 248.594 Q330.691 246.826 330.691 243.798 Q330.691 240.751 329.187 239.002 Q327.701 237.253 325.143 237.253 M332.685 225.348 L332.685 228.808 Q331.256 228.131 329.789 227.774 Q328.34 227.417 326.911 227.417 Q323.149 227.417 321.156 229.956 Q319.181 232.495 318.899 237.629 Q320.008 235.993 321.682 235.128 Q323.356 234.244 325.369 234.244 Q329.6 234.244 332.045 236.821 Q334.509 239.378 334.509 243.798 Q334.509 248.124 331.951 250.738 Q329.394 253.353 325.143 253.353 Q320.272 253.353 317.695 249.629 Q315.118 245.886 315.118 238.795 Q315.118 232.137 318.278 228.188 Q321.438 224.219 326.76 224.219 Q328.19 224.219 329.638 224.502 Q331.105 224.784 332.685 225.348 Z" fill="#000000" fill-rule="nonzero" fill-opacity="1" /><path clip-path="url(#clip770)" d="M16.4842 1388.89 L16.4842 1379.31 L48.8219 1367.18 L16.4842 1354.99 L16.4842 1345.41 L64.0042 1345.41 L64.0042 1351.68 L22.277 1351.68 L54.8694 1363.94 L54.8694 1370.4 L22.277 1382.65 L64.0042 1382.65 L64.0042 1388.89 L16.4842 1388.89 Z" fill="#000000" fill-rule="nonzero" fill-opacity="1" /><path clip-path="url(#clip770)" d="M46.0847 1316.7 Q46.0847 1323.8 47.7079 1326.54 Q49.3312 1329.27 53.2461 1329.27 Q56.3653 1329.27 58.2114 1327.24 Q60.0256 1325.17 60.0256 1321.64 Q60.0256 1316.77 56.5881 1313.84 Q53.1188 1310.88 47.3897 1310.88 L46.0847 1310.88 L46.0847 1316.7 M43.6657 1305.02 L64.0042 1305.02 L64.0042 1310.88 L58.5933 1310.88 Q61.8398 1312.88 63.3994 1315.88 Q64.9272 1318.87 64.9272 1323.2 Q64.9272 1328.67 61.8716 1331.92 Q58.7843 1335.13 53.6281 1335.13 Q47.6125 1335.13 44.5569 1331.12 Q41.5014 1327.08 41.5014 1319.09 L41.5014 1310.88 L40.9285 1310.88 Q36.8862 1310.88 34.6901 1313.55 Q32.4621 1316.19 32.4621 1321 Q32.4621 1324.06 33.1941 1326.95 Q33.9262 1329.85 35.3903 1332.52 L29.9795 1332.52 Q28.7381 1329.31 28.1334 1326.28 Q27.4968 1323.26 27.4968 1320.39 Q27.4968 1312.66 31.5072 1308.84 Q35.5176 1305.02 43.6657 1305.02 Z" fill="#000000" fill-rule="nonzero" fill-opacity="1" /><path clip-path="url(#clip770)" d="M18.2347 1287.17 L28.3562 1287.17 L28.3562 1275.1 L32.9077 1275.1 L32.9077 1287.17 L52.2594 1287.17 Q56.6199 1287.17 57.8613 1285.99 Q59.1026 1284.78 59.1026 1281.12 L59.1026 1275.1 L64.0042 1275.1 L64.0042 1281.12 Q64.0042 1287.9 61.4897 1290.48 Q58.9434 1293.05 52.2594 1293.05 L32.9077 1293.05 L32.9077 1297.35 L28.3562 1297.35 L28.3562 1293.05 L18.2347 1293.05 L18.2347 1287.17 Z" fill="#000000" fill-rule="nonzero" fill-opacity="1" /><path clip-path="url(#clip770)" d="M29.7248 1241.75 L35.1993 1241.75 Q33.8307 1244.23 33.1623 1246.74 Q32.4621 1249.23 32.4621 1251.77 Q32.4621 1257.47 36.0905 1260.62 Q39.6872 1263.77 46.212 1263.77 Q52.7369 1263.77 56.3653 1260.62 Q59.9619 1257.47 59.9619 1251.77 Q59.9619 1249.23 59.2935 1246.74 Q58.5933 1244.23 57.2247 1241.75 L62.6355 1241.75 Q63.7814 1244.2 64.3543 1246.84 Q64.9272 1249.45 64.9272 1252.41 Q64.9272 1260.46 59.8664 1265.2 Q54.8057 1269.95 46.212 1269.95 Q37.491 1269.95 32.4939 1265.17 Q27.4968 1260.37 27.4968 1252.03 Q27.4968 1249.32 28.0697 1246.74 Q28.6108 1244.17 29.7248 1241.75 Z" fill="#000000" fill-rule="nonzero" fill-opacity="1" /><path clip-path="url(#clip770)" d="M42.4881 1201.93 L64.0042 1201.93 L64.0042 1207.79 L42.679 1207.79 Q37.6183 1207.79 35.1038 1209.76 Q32.5894 1211.73 32.5894 1215.68 Q32.5894 1220.42 35.6131 1223.16 Q38.6368 1225.9 43.8567 1225.9 L64.0042 1225.9 L64.0042 1231.78 L14.479 1231.78 L14.479 1225.9 L33.8944 1225.9 Q30.6797 1223.8 29.0883 1220.96 Q27.4968 1218.1 27.4968 1214.37 Q27.4968 1208.23 31.3163 1205.08 Q35.1038 1201.93 42.4881 1201.93 Z" fill="#000000" fill-rule="nonzero" fill-opacity="1" /><path clip-path="url(#clip770)" d="M44.7161 1159.76 L47.5806 1159.76 L47.5806 1186.68 Q53.6281 1186.3 56.8109 1183.05 Q59.9619 1179.78 59.9619 1173.95 Q59.9619 1170.58 59.1344 1167.43 Q58.3069 1164.24 56.6518 1161.12 L62.1899 1161.12 Q63.5267 1164.28 64.227 1167.59 Q64.9272 1170.9 64.9272 1174.3 Q64.9272 1182.83 59.9619 1187.83 Q54.9967 1192.79 46.5303 1192.79 Q37.7774 1192.79 32.6531 1188.08 Q27.4968 1183.34 27.4968 1175.32 Q27.4968 1168.13 32.1438 1163.96 Q36.7589 1159.76 44.7161 1159.76 M42.9973 1165.61 Q38.1912 1165.68 35.3266 1168.32 Q32.4621 1170.93 32.4621 1175.26 Q32.4621 1180.16 35.2312 1183.12 Q38.0002 1186.05 43.0292 1186.49 L42.9973 1165.61 Z" fill="#000000" fill-rule="nonzero" fill-opacity="1" /><path clip-path="url(#clip770)" d="M29.4065 1127.42 L34.9447 1127.42 Q33.6716 1129.9 33.035 1132.57 Q32.3984 1135.25 32.3984 1138.11 Q32.3984 1142.47 33.7352 1144.67 Q35.072 1146.83 37.7456 1146.83 Q39.7826 1146.83 40.9603 1145.27 Q42.1061 1143.71 43.1565 1139 L43.6021 1137 Q44.9389 1130.76 47.3897 1128.15 Q49.8086 1125.51 54.1691 1125.51 Q59.1344 1125.51 62.0308 1129.46 Q64.9272 1133.37 64.9272 1140.25 Q64.9272 1143.11 64.3543 1146.23 Q63.8132 1149.32 62.6992 1152.75 L56.6518 1152.75 Q58.3387 1149.51 59.198 1146.36 Q60.0256 1143.21 60.0256 1140.12 Q60.0256 1135.98 58.6251 1133.75 Q57.1929 1131.52 54.6147 1131.52 Q52.2276 1131.52 50.9545 1133.15 Q49.6813 1134.74 48.5037 1140.18 L48.0262 1142.22 Q46.8804 1147.66 44.5251 1150.08 Q42.138 1152.5 38.0002 1152.5 Q32.9713 1152.5 30.2341 1148.93 Q27.4968 1145.37 27.4968 1138.81 Q27.4968 1135.57 27.9743 1132.7 Q28.4517 1129.84 29.4065 1127.42 Z" fill="#000000" fill-rule="nonzero" fill-opacity="1" /><path clip-path="url(#clip770)" d="M58.657 1089.8 L77.5631 1089.8 L77.5631 1095.69 L28.3562 1095.69 L28.3562 1089.8 L33.7671 1089.8 Q30.5842 1087.95 29.0564 1085.15 Q27.4968 1082.32 27.4968 1078.4 Q27.4968 1071.91 32.6531 1067.87 Q37.8093 1063.79 46.212 1063.79 Q54.6147 1063.79 59.771 1067.87 Q64.9272 1071.91 64.9272 1078.4 Q64.9272 1082.32 63.3994 1085.15 Q61.8398 1087.95 58.657 1089.8 M46.212 1069.87 Q39.7508 1069.87 36.0905 1072.55 Q32.3984 1075.19 32.3984 1079.83 Q32.3984 1084.48 36.0905 1087.16 Q39.7508 1089.8 46.212 1089.8 Q52.6732 1089.8 56.3653 1087.16 Q60.0256 1084.48 60.0256 1079.83 Q60.0256 1075.19 56.3653 1072.55 Q52.6732 1069.87 46.212 1069.87 Z" fill="#000000" fill-rule="nonzero" fill-opacity="1" /><path clip-path="url(#clip770)" d="M44.7161 1023.59 L47.5806 1023.59 L47.5806 1050.52 Q53.6281 1050.14 56.8109 1046.89 Q59.9619 1043.61 59.9619 1037.79 Q59.9619 1034.42 59.1344 1031.26 Q58.3069 1028.08 56.6518 1024.96 L62.1899 1024.96 Q63.5267 1028.11 64.227 1031.42 Q64.9272 1034.73 64.9272 1038.14 Q64.9272 1046.67 59.9619 1051.67 Q54.9967 1056.63 46.5303 1056.63 Q37.7774 1056.63 32.6531 1051.92 Q27.4968 1047.18 27.4968 1039.16 Q27.4968 1031.96 32.1438 1027.8 Q36.7589 1023.59 44.7161 1023.59 M42.9973 1029.45 Q38.1912 1029.51 35.3266 1032.16 Q32.4621 1034.77 32.4621 1039.09 Q32.4621 1044 35.2312 1046.96 Q38.0002 1049.88 43.0292 1050.33 L42.9973 1029.45 Z" fill="#000000" fill-rule="nonzero" fill-opacity="1" /><path clip-path="url(#clip770)" d="M33.8307 993.325 Q33.2578 994.311 33.0032 995.489 Q32.7167 996.635 32.7167 998.035 Q32.7167 1003 35.9632 1005.67 Q39.1779 1008.32 45.2253 1008.32 L64.0042 1008.32 L64.0042 1014.2 L28.3562 1014.2 L28.3562 1008.32 L33.8944 1008.32 Q30.6479 1006.47 29.0883 1003.51 Q27.4968 1000.55 27.4968 996.317 Q27.4968 995.712 27.5923 994.98 Q27.656 994.248 27.8151 993.357 L33.8307 993.325 Z" fill="#000000" fill-rule="nonzero" fill-opacity="1" /><path clip-path="url(#clip770)" d="M42.4881 936.829 L64.0042 936.829 L64.0042 942.686 L42.679 942.686 Q37.6183 942.686 35.1038 944.659 Q32.5894 946.632 32.5894 950.579 Q32.5894 955.322 35.6131 958.059 Q38.6368 960.796 43.8567 960.796 L64.0042 960.796 L64.0042 966.684 L28.3562 966.684 L28.3562 960.796 L33.8944 960.796 Q30.6797 958.695 29.0883 955.863 Q27.4968 952.998 27.4968 949.274 Q27.4968 943.131 31.3163 939.98 Q35.1038 936.829 42.4881 936.829 Z" fill="#000000" fill-rule="nonzero" fill-opacity="1" /><path clip-path="url(#clip770)" d="M44.7161 894.656 L47.5806 894.656 L47.5806 921.583 Q53.6281 921.201 56.8109 917.955 Q59.9619 914.676 59.9619 908.852 Q59.9619 905.478 59.1344 902.327 Q58.3069 899.144 56.6518 896.025 L62.1899 896.025 Q63.5267 899.176 64.227 902.486 Q64.9272 905.796 64.9272 909.202 Q64.9272 917.732 59.9619 922.729 Q54.9967 927.694 46.5303 927.694 Q37.7774 927.694 32.6531 922.984 Q27.4968 918.241 27.4968 910.221 Q27.4968 903.027 32.1438 898.858 Q36.7589 894.656 44.7161 894.656 M42.9973 900.513 Q38.1912 900.576 35.3266 903.218 Q32.4621 905.828 32.4621 910.157 Q32.4621 915.058 35.2312 918.018 Q38.0002 920.947 43.0292 921.392 L42.9973 900.513 Z" fill="#000000" fill-rule="nonzero" fill-opacity="1" /><path clip-path="url(#clip770)" d="M49.9359 885.649 L28.3562 885.649 L28.3562 879.792 L49.7131 879.792 Q54.7739 879.792 57.3202 877.819 Q59.8346 875.846 59.8346 871.899 Q59.8346 867.156 56.8109 864.419 Q53.7872 861.65 48.5673 861.65 L28.3562 861.65 L28.3562 855.794 L64.0042 855.794 L64.0042 861.65 L58.5296 861.65 Q61.7762 863.783 63.3676 866.615 Q64.9272 869.416 64.9272 873.14 Q64.9272 879.283 61.1078 882.466 Q57.2883 885.649 49.9359 885.649 M27.4968 870.912 L27.4968 870.912 Z" fill="#000000" fill-rule="nonzero" fill-opacity="1" /><path clip-path="url(#clip770)" d="M18.2347 837.938 L28.3562 837.938 L28.3562 825.875 L32.9077 825.875 L32.9077 837.938 L52.2594 837.938 Q56.6199 837.938 57.8613 836.76 Q59.1026 835.551 59.1026 831.89 L59.1026 825.875 L64.0042 825.875 L64.0042 831.89 Q64.0042 838.67 61.4897 841.248 Q58.9434 843.826 52.2594 843.826 L32.9077 843.826 L32.9077 848.123 L28.3562 848.123 L28.3562 843.826 L18.2347 843.826 L18.2347 837.938 Z" fill="#000000" fill-rule="nonzero" fill-opacity="1" /><path clip-path="url(#clip770)" d="M33.8307 797.516 Q33.2578 798.502 33.0032 799.68 Q32.7167 800.826 32.7167 802.226 Q32.7167 807.192 35.9632 809.865 Q39.1779 812.507 45.2253 812.507 L64.0042 812.507 L64.0042 818.395 L28.3562 818.395 L28.3562 812.507 L33.8944 812.507 Q30.6479 810.661 29.0883 807.701 Q27.4968 804.741 27.4968 800.508 Q27.4968 799.903 27.5923 799.171 Q27.656 798.439 27.8151 797.547 L33.8307 797.516 Z" fill="#000000" fill-rule="nonzero" fill-opacity="1" /><path clip-path="url(#clip770)" d="M32.4621 778.991 Q32.4621 783.702 36.1542 786.439 Q39.8145 789.177 46.212 789.177 Q52.6095 789.177 56.3017 786.471 Q59.9619 783.734 59.9619 778.991 Q59.9619 774.313 56.2698 771.575 Q52.5777 768.838 46.212 768.838 Q39.8781 768.838 36.186 771.575 Q32.4621 774.313 32.4621 778.991 M27.4968 778.991 Q27.4968 771.353 32.4621 766.992 Q37.4273 762.632 46.212 762.632 Q54.9649 762.632 59.9619 766.992 Q64.9272 771.353 64.9272 778.991 Q64.9272 786.662 59.9619 791.023 Q54.9649 795.351 46.212 795.351 Q37.4273 795.351 32.4621 791.023 Q27.4968 786.662 27.4968 778.991 Z" fill="#000000" fill-rule="nonzero" fill-opacity="1" /><path clip-path="url(#clip770)" d="M42.4881 723.292 L64.0042 723.292 L64.0042 729.148 L42.679 729.148 Q37.6183 729.148 35.1038 731.121 Q32.5894 733.095 32.5894 737.041 Q32.5894 741.784 35.6131 744.521 Q38.6368 747.258 43.8567 747.258 L64.0042 747.258 L64.0042 753.147 L28.3562 753.147 L28.3562 747.258 L33.8944 747.258 Q30.6797 745.158 29.0883 742.325 Q27.4968 739.46 27.4968 735.736 Q27.4968 729.594 31.3163 726.443 Q35.1038 723.292 42.4881 723.292 Z" fill="#000000" fill-rule="nonzero" fill-opacity="1" /><path clip-path="url(#clip770)" d="M14.479 672.843 L19.3487 672.843 L19.3487 678.445 Q19.3487 681.596 20.6219 682.837 Q21.895 684.047 25.2052 684.047 L28.3562 684.047 L28.3562 674.403 L32.9077 674.403 L32.9077 684.047 L64.0042 684.047 L64.0042 689.935 L32.9077 689.935 L32.9077 695.537 L28.3562 695.537 L28.3562 689.935 L25.8736 689.935 Q19.9216 689.935 17.2162 687.166 Q14.479 684.397 14.479 678.381 L14.479 672.843 Z" fill="#000000" fill-rule="nonzero" fill-opacity="1" /><path clip-path="url(#clip770)" d="M14.479 667.942 L14.479 662.085 L64.0042 662.085 L64.0042 667.942 L14.479 667.942 Z" fill="#000000" fill-rule="nonzero" fill-opacity="1" /><path clip-path="url(#clip770)" d="M49.9359 650.436 L28.3562 650.436 L28.3562 644.58 L49.7131 644.58 Q54.7739 644.58 57.3202 642.606 Q59.8346 640.633 59.8346 636.686 Q59.8346 631.944 56.8109 629.206 Q53.7872 626.437 48.5673 626.437 L28.3562 626.437 L28.3562 620.581 L64.0042 620.581 L64.0042 626.437 L58.5296 626.437 Q61.7762 628.57 63.3676 631.403 Q64.9272 634.203 64.9272 637.927 Q64.9272 644.07 61.1078 647.253 Q57.2883 650.436 49.9359 650.436 M27.4968 635.699 L27.4968 635.699 Z" fill="#000000" fill-rule="nonzero" fill-opacity="1" /><path clip-path="url(#clip770)" d="M28.3562 578.885 L45.7028 591.776 L64.0042 578.217 L64.0042 585.124 L49.9996 595.5 L64.0042 605.876 L64.0042 612.783 L45.3526 598.937 L28.3562 611.605 L28.3562 604.698 L41.0558 595.245 L28.3562 585.792 L28.3562 578.885 Z" fill="#000000" fill-rule="nonzero" fill-opacity="1" /><path clip-path="url(#clip770)" d="M14.5426 535.153 Q21.8632 539.418 29.0246 541.487 Q36.186 543.556 43.5384 543.556 Q50.8908 543.556 58.1159 541.487 Q65.3091 539.386 72.5979 535.153 L72.5979 540.246 Q65.1182 545.02 57.8931 547.407 Q50.668 549.762 43.5384 549.762 Q36.4406 549.762 29.2474 547.407 Q22.0542 545.052 14.5426 540.246 L14.5426 535.153 Z" fill="#000000" fill-rule="nonzero" fill-opacity="1" /><path clip-path="url(#clip770)" d="M35.1993 496.036 Q31.2526 493.84 29.3747 490.784 Q27.4968 487.729 27.4968 483.591 Q27.4968 478.021 31.4117 474.997 Q35.2948 471.973 42.4881 471.973 L64.0042 471.973 L64.0042 477.862 L42.679 477.862 Q37.5546 477.862 35.072 479.676 Q32.5894 481.49 32.5894 485.214 Q32.5894 489.766 35.6131 492.407 Q38.6368 495.049 43.8567 495.049 L64.0042 495.049 L64.0042 500.937 L42.679 500.937 Q37.5228 500.937 35.072 502.752 Q32.5894 504.566 32.5894 508.353 Q32.5894 512.841 35.6449 515.483 Q38.6686 518.125 43.8567 518.125 L64.0042 518.125 L64.0042 524.013 L28.3562 524.013 L28.3562 518.125 L33.8944 518.125 Q30.616 516.12 29.0564 513.319 Q27.4968 510.518 27.4968 506.667 Q27.4968 502.783 29.4702 500.078 Q31.4436 497.341 35.1993 496.036 Z" fill="#000000" fill-rule="nonzero" fill-opacity="1" /><path clip-path="url(#clip770)" d="M46.0847 444.092 Q46.0847 451.189 47.7079 453.927 Q49.3312 456.664 53.2461 456.664 Q56.3653 456.664 58.2114 454.627 Q60.0256 452.558 60.0256 449.025 Q60.0256 444.155 56.5881 441.227 Q53.1188 438.267 47.3897 438.267 L46.0847 438.267 L46.0847 444.092 M43.6657 432.411 L64.0042 432.411 L64.0042 438.267 L58.5933 438.267 Q61.8398 440.272 63.3994 443.264 Q64.9272 446.256 64.9272 450.585 Q64.9272 456.059 61.8716 459.306 Q58.7843 462.52 53.6281 462.52 Q47.6125 462.52 44.5569 458.51 Q41.5014 454.468 41.5014 446.479 L41.5014 438.267 L40.9285 438.267 Q36.8862 438.267 34.6901 440.941 Q32.4621 443.582 32.4621 448.388 Q32.4621 451.444 33.1941 454.34 Q33.9262 457.237 35.3903 459.91 L29.9795 459.91 Q28.7381 456.696 28.1334 453.672 Q27.4968 450.648 27.4968 447.784 Q27.4968 440.049 31.5072 436.23 Q35.5176 432.411 43.6657 432.411 Z" fill="#000000" fill-rule="nonzero" fill-opacity="1" /><path clip-path="url(#clip770)" d="M18.2347 414.555 L28.3562 414.555 L28.3562 402.492 L32.9077 402.492 L32.9077 414.555 L52.2594 414.555 Q56.6199 414.555 57.8613 413.377 Q59.1026 412.168 59.1026 408.507 L59.1026 402.492 L64.0042 402.492 L64.0042 408.507 Q64.0042 415.287 61.4897 417.865 Q58.9434 420.443 52.2594 420.443 L32.9077 420.443 L32.9077 424.74 L28.3562 424.74 L28.3562 420.443 L18.2347 420.443 L18.2347 414.555 Z" fill="#000000" fill-rule="nonzero" fill-opacity="1" /><path clip-path="url(#clip770)" d="M29.7248 369.135 L35.1993 369.135 Q33.8307 371.618 33.1623 374.133 Q32.4621 376.615 32.4621 379.161 Q32.4621 384.859 36.0905 388.01 Q39.6872 391.161 46.212 391.161 Q52.7369 391.161 56.3653 388.01 Q59.9619 384.859 59.9619 379.161 Q59.9619 376.615 59.2935 374.133 Q58.5933 371.618 57.2247 369.135 L62.6355 369.135 Q63.7814 371.586 64.3543 374.228 Q64.9272 376.838 64.9272 379.798 Q64.9272 387.851 59.8664 392.593 Q54.8057 397.336 46.212 397.336 Q37.491 397.336 32.4939 392.561 Q27.4968 387.755 27.4968 379.416 Q27.4968 376.711 28.0697 374.133 Q28.6108 371.554 29.7248 369.135 Z" fill="#000000" fill-rule="nonzero" fill-opacity="1" /><path clip-path="url(#clip770)" d="M42.4881 329.318 L64.0042 329.318 L64.0042 335.174 L42.679 335.174 Q37.6183 335.174 35.1038 337.148 Q32.5894 339.121 32.5894 343.068 Q32.5894 347.81 35.6131 350.548 Q38.6368 353.285 43.8567 353.285 L64.0042 353.285 L64.0042 359.173 L14.479 359.173 L14.479 353.285 L33.8944 353.285 Q30.6797 351.184 29.0883 348.351 Q27.4968 345.487 27.4968 341.763 Q27.4968 335.62 31.3163 332.469 Q35.1038 329.318 42.4881 329.318 Z" fill="#000000" fill-rule="nonzero" fill-opacity="1" /><path clip-path="url(#clip770)" d="M29.7248 271.263 L35.1993 271.263 Q33.8307 273.745 33.1623 276.26 Q32.4621 278.742 32.4621 281.289 Q32.4621 286.986 36.0905 290.137 Q39.6872 293.288 46.212 293.288 Q52.7369 293.288 56.3653 290.137 Q59.9619 286.986 59.9619 281.289 Q59.9619 278.742 59.2935 276.26 Q58.5933 273.745 57.2247 271.263 L62.6355 271.263 Q63.7814 273.713 64.3543 276.355 Q64.9272 278.965 64.9272 281.925 Q64.9272 289.978 59.8664 294.72 Q54.8057 299.463 46.212 299.463 Q37.491 299.463 32.4939 294.689 Q27.4968 289.882 27.4968 281.543 Q27.4968 278.838 28.0697 276.26 Q28.6108 273.682 29.7248 271.263 Z" fill="#000000" fill-rule="nonzero" fill-opacity="1" /><path clip-path="url(#clip770)" d="M35.1993 233.323 Q31.2526 231.127 29.3747 228.071 Q27.4968 225.016 27.4968 220.878 Q27.4968 215.308 31.4117 212.284 Q35.2948 209.261 42.4881 209.261 L64.0042 209.261 L64.0042 215.149 L42.679 215.149 Q37.5546 215.149 35.072 216.963 Q32.5894 218.777 32.5894 222.501 Q32.5894 227.053 35.6131 229.695 Q38.6368 232.336 43.8567 232.336 L64.0042 232.336 L64.0042 238.225 L42.679 238.225 Q37.5228 238.225 35.072 240.039 Q32.5894 241.853 32.5894 245.641 Q32.5894 250.129 35.6449 252.77 Q38.6686 255.412 43.8567 255.412 L64.0042 255.412 L64.0042 261.3 L28.3562 261.3 L28.3562 255.412 L33.8944 255.412 Q30.616 253.407 29.0564 250.606 Q27.4968 247.805 27.4968 243.954 Q27.4968 240.071 29.4702 237.365 Q31.4436 234.628 35.1993 233.323 Z" fill="#000000" fill-rule="nonzero" fill-opacity="1" /><path clip-path="url(#clip770)" d="M39.1142 195.193 L39.1142 181.697 L42.7427 181.697 L42.7427 200.731 L39.2416 200.731 Q38.2549 199.649 36.4725 197.643 Q26.7648 186.694 23.7729 186.694 Q21.6722 186.694 20.3991 188.349 Q19.0941 190.004 19.0941 192.71 Q19.0941 194.365 19.667 196.307 Q20.2081 198.248 21.3221 200.54 L17.4072 200.54 Q16.516 198.089 16.0704 195.988 Q15.6248 193.856 15.6248 192.041 Q15.6248 187.426 17.7255 184.657 Q19.8262 181.888 23.2636 181.888 Q27.6878 181.888 36.7271 192.423 Q38.2549 194.206 39.1142 195.193 Z" fill="#000000" fill-rule="nonzero" fill-opacity="1" /><path clip-path="url(#clip770)" d="M14.5426 172.371 L14.5426 167.279 Q22.0542 162.505 29.2474 160.149 Q36.4406 157.762 43.5384 157.762 Q50.668 157.762 57.8931 160.149 Q65.1182 162.505 72.5979 167.279 L72.5979 172.371 Q65.3091 168.138 58.1159 166.069 Q50.8908 163.969 43.5384 163.969 Q36.186 163.969 29.0246 166.069 Q21.8632 168.138 14.5426 172.371 Z" fill="#000000" fill-rule="nonzero" fill-opacity="1" /><path clip-path="url(#clip770)" d="M1166.5 12.096 L1204.74 12.096 L1204.74 18.9825 L1174.68 18.9825 L1174.68 36.8875 L1203.49 36.8875 L1203.49 43.7741 L1174.68 43.7741 L1174.68 65.6895 L1205.47 65.6895 L1205.47 72.576 L1166.5 72.576 L1166.5 12.096 Z" fill="#000000" fill-rule="nonzero" fill-opacity="1" /><path clip-path="url(#clip770)" d="M1241.56 9.54393 L1241.56 15.7418 L1234.43 15.7418 Q1230.42 15.7418 1228.84 17.3622 Q1227.3 18.9825 1227.3 23.1955 L1227.3 27.2059 L1239.58 27.2059 L1239.58 32.9987 L1227.3 32.9987 L1227.3 72.576 L1219.81 72.576 L1219.81 32.9987 L1212.68 32.9987 L1212.68 27.2059 L1219.81 27.2059 L1219.81 24.0462 Q1219.81 16.471 1223.33 13.0277 Q1226.86 9.54393 1234.52 9.54393 L1241.56 9.54393 Z" fill="#000000" fill-rule="nonzero" fill-opacity="1" /><path clip-path="url(#clip770)" d="M1270.77 9.54393 L1270.77 15.7418 L1263.64 15.7418 Q1259.63 15.7418 1258.05 17.3622 Q1256.51 18.9825 1256.51 23.1955 L1256.51 27.2059 L1268.79 27.2059 L1268.79 32.9987 L1256.51 32.9987 L1256.51 72.576 L1249.02 72.576 L1249.02 32.9987 L1241.89 32.9987 L1241.89 27.2059 L1249.02 27.2059 L1249.02 24.0462 Q1249.02 16.471 1252.54 13.0277 Q1256.07 9.54393 1263.72 9.54393 L1270.77 9.54393 Z" fill="#000000" fill-rule="nonzero" fill-opacity="1" /><path clip-path="url(#clip770)" d="M1277.01 27.2059 L1284.46 27.2059 L1284.46 72.576 L1277.01 72.576 L1277.01 27.2059 M1277.01 9.54393 L1284.46 9.54393 L1284.46 18.9825 L1277.01 18.9825 L1277.01 9.54393 Z" fill="#000000" fill-rule="nonzero" fill-opacity="1" /><path clip-path="url(#clip770)" d="M1332.71 28.9478 L1332.71 35.9153 Q1329.55 34.1734 1326.35 33.3227 Q1323.19 32.4315 1319.95 32.4315 Q1312.7 32.4315 1308.69 37.0496 Q1304.68 41.6271 1304.68 49.9314 Q1304.68 58.2358 1308.69 62.8538 Q1312.7 67.4314 1319.95 67.4314 Q1323.19 67.4314 1326.35 66.5807 Q1329.55 65.6895 1332.71 63.9476 L1332.71 70.8341 Q1329.59 72.2924 1326.23 73.0216 Q1322.91 73.7508 1319.14 73.7508 Q1308.89 73.7508 1302.85 67.3098 Q1296.82 60.8689 1296.82 49.9314 Q1296.82 38.832 1302.89 32.472 Q1309.01 26.1121 1319.62 26.1121 Q1323.07 26.1121 1326.35 26.8413 Q1329.63 27.5299 1332.71 28.9478 Z" fill="#000000" fill-rule="nonzero" fill-opacity="1" /><path clip-path="url(#clip770)" d="M1345.67 27.2059 L1353.13 27.2059 L1353.13 72.576 L1345.67 72.576 L1345.67 27.2059 M1345.67 9.54393 L1353.13 9.54393 L1353.13 18.9825 L1345.67 18.9825 L1345.67 9.54393 Z" fill="#000000" fill-rule="nonzero" fill-opacity="1" /><path clip-path="url(#clip770)" d="M1407.53 48.0275 L1407.53 51.6733 L1373.26 51.6733 Q1373.74 59.3701 1377.88 63.421 Q1382.05 67.4314 1389.46 67.4314 Q1393.76 67.4314 1397.77 66.3781 Q1401.82 65.3249 1405.79 63.2184 L1405.79 70.267 Q1401.78 71.9684 1397.56 72.8596 Q1393.35 73.7508 1389.02 73.7508 Q1378.16 73.7508 1371.8 67.4314 Q1365.48 61.1119 1365.48 50.3365 Q1365.48 39.1965 1371.48 32.6746 Q1377.51 26.1121 1387.72 26.1121 Q1396.88 26.1121 1402.18 32.0264 Q1407.53 37.9003 1407.53 48.0275 M1400.08 45.84 Q1399.99 39.7232 1396.63 36.0774 Q1393.31 32.4315 1387.8 32.4315 Q1381.56 32.4315 1377.8 35.9558 Q1374.07 39.4801 1373.5 45.8805 L1400.08 45.84 Z" fill="#000000" fill-rule="nonzero" fill-opacity="1" /><path clip-path="url(#clip770)" d="M1457.48 45.1919 L1457.48 72.576 L1450.02 72.576 L1450.02 45.4349 Q1450.02 38.994 1447.51 35.7938 Q1445 32.5936 1439.98 32.5936 Q1433.94 32.5936 1430.46 36.4419 Q1426.97 40.2903 1426.97 46.9338 L1426.97 72.576 L1419.48 72.576 L1419.48 27.2059 L1426.97 27.2059 L1426.97 34.2544 Q1429.65 30.163 1433.25 28.1376 Q1436.9 26.1121 1441.64 26.1121 Q1449.46 26.1121 1453.47 30.9732 Q1457.48 35.7938 1457.48 45.1919 Z" fill="#000000" fill-rule="nonzero" fill-opacity="1" /><path clip-path="url(#clip770)" d="M1504.99 28.9478 L1504.99 35.9153 Q1501.83 34.1734 1498.63 33.3227 Q1495.47 32.4315 1492.23 32.4315 Q1484.98 32.4315 1480.97 37.0496 Q1476.96 41.6271 1476.96 49.9314 Q1476.96 58.2358 1480.97 62.8538 Q1484.98 67.4314 1492.23 67.4314 Q1495.47 67.4314 1498.63 66.5807 Q1501.83 65.6895 1504.99 63.9476 L1504.99 70.8341 Q1501.87 72.2924 1498.51 73.0216 Q1495.19 73.7508 1491.42 73.7508 Q1481.17 73.7508 1475.14 67.3098 Q1469.1 60.8689 1469.1 49.9314 Q1469.1 38.832 1475.18 32.472 Q1481.3 26.1121 1491.91 26.1121 Q1495.35 26.1121 1498.63 26.8413 Q1501.92 27.5299 1504.99 28.9478 Z" fill="#000000" fill-rule="nonzero" fill-opacity="1" /><path clip-path="url(#clip770)" d="M1536.83 76.7889 Q1533.67 84.8907 1530.68 87.3618 Q1527.68 89.8329 1522.66 89.8329 L1516.7 89.8329 L1516.7 83.5945 L1521.08 83.5945 Q1524.15 83.5945 1525.86 82.1361 Q1527.56 80.6778 1529.62 75.2496 L1530.96 71.8468 L1512.61 27.2059 L1520.51 27.2059 L1534.69 62.6918 L1548.87 27.2059 L1556.76 27.2059 L1536.83 76.7889 Z" fill="#000000" fill-rule="nonzero" fill-opacity="1" /><polyline clip-path="url(#clip772)" style="stroke:#009af9; stroke-linecap:round; stroke-linejoin:round; stroke-width:4; stroke-opacity:1; fill:none" points="426.611,1386.4 634.393,1354.3 842.176,1293.31 1049.96,1209.86 1257.74,1074.52 1465.52,964.008 1673.31,883.633 1881.09,602.32 2088.87,511.898 2296.65,160.256 "/>
<path clip-path="url(#clip770)" d="M436.584 270.476 L687.239 270.476 L687.239 166.796 L436.584 166.796  Z" fill="#ffffff" fill-rule="evenodd" fill-opacity="1"/>
<polyline clip-path="url(#clip770)" style="stroke:#000000; stroke-linecap:round; stroke-linejoin:round; stroke-width:4; stroke-opacity:1; fill:none" points="436.584,270.476 687.239,270.476 687.239,166.796 436.584,166.796 436.584,270.476 "/>
<polyline clip-path="url(#clip770)" style="stroke:#009af9; stroke-linecap:round; stroke-linejoin:round; stroke-width:4; stroke-opacity:1; fill:none" points="458.609,218.636 590.759,218.636 "/>
<path clip-path="url(#clip770)" d="M626.626 238.323 Q624.821 242.953 623.108 244.365 Q621.395 245.777 618.525 245.777 L615.122 245.777 L615.122 242.212 L617.622 242.212 Q619.381 242.212 620.353 241.379 Q621.325 240.545 622.506 237.443 L623.27 235.499 L612.784 209.99 L617.298 209.99 L625.4 230.268 L633.501 209.99 L638.015 209.99 L626.626 238.323 Z" fill="#000000" fill-rule="nonzero" fill-opacity="1" /><path clip-path="url(#clip770)" d="M645.307 231.981 L652.946 231.981 L652.946 205.615 L644.636 207.282 L644.636 203.022 L652.899 201.356 L657.575 201.356 L657.575 231.981 L665.214 231.981 L665.214 235.916 L645.307 235.916 L645.307 231.981 Z" fill="#000000" fill-rule="nonzero" fill-opacity="1" /></svg>
