<?xml version="1.0" encoding="utf-8"?>
<svg xmlns="http://www.w3.org/2000/svg" xmlns:xlink="http://www.w3.org/1999/xlink" width="600" height="400" viewBox="0 0 2400 1600">
<defs>
  <clipPath id="clip790">
    <rect x="0" y="0" width="2400" height="1600"/>
  </clipPath>
</defs>
<path clip-path="url(#clip790)" d="M0 1600 L2400 1600 L2400 0 L0 0  Z" fill="#ffffff" fill-rule="evenodd" fill-opacity="1"/>
<defs>
  <clipPath id="clip791">
    <rect x="480" y="0" width="1681" height="1600"/>
  </clipPath>
</defs>
<path clip-path="url(#clip790)" d="M370.509 1423.18 L2352.76 1423.18 L2352.76 123.472 L370.509 123.472  Z" fill="#ffffff" fill-rule="evenodd" fill-opacity="1"/>
<defs>
  <clipPath id="clip792">
    <rect x="370" y="123" width="1983" height="1301"/>
  </clipPath>
</defs>
<polyline clip-path="url(#clip792)" style="stroke:#000000; stroke-linecap:round; stroke-linejoin:round; stroke-width:2; stroke-opacity:0.1; fill:none" points="667.907,1423.18 667.907,123.472 "/>
<polyline clip-path="url(#clip792)" style="stroke:#000000; stroke-linecap:round; stroke-linejoin:round; stroke-width:2; stroke-opacity:0.1; fill:none" points="969.527,1423.18 969.527,123.472 "/>
<polyline clip-path="url(#clip792)" style="stroke:#000000; stroke-linecap:round; stroke-linejoin:round; stroke-width:2; stroke-opacity:0.1; fill:none" points="1271.15,1423.18 1271.15,123.472 "/>
<polyline clip-path="url(#clip792)" style="stroke:#000000; stroke-linecap:round; stroke-linejoin:round; stroke-width:2; stroke-opacity:0.1; fill:none" points="1572.77,1423.18 1572.77,123.472 "/>
<polyline clip-path="url(#clip792)" style="stroke:#000000; stroke-linecap:round; stroke-linejoin:round; stroke-width:2; stroke-opacity:0.1; fill:none" points="1874.39,1423.18 1874.39,123.472 "/>
<polyline clip-path="url(#clip792)" style="stroke:#000000; stroke-linecap:round; stroke-linejoin:round; stroke-width:2; stroke-opacity:0.1; fill:none" points="2176.01,1423.18 2176.01,123.472 "/>
<polyline clip-path="url(#clip792)" style="stroke:#000000; stroke-linecap:round; stroke-linejoin:round; stroke-width:2; stroke-opacity:0.1; fill:none" points="370.509,1223.26 2352.76,1223.26 "/>
<polyline clip-path="url(#clip792)" style="stroke:#000000; stroke-linecap:round; stroke-linejoin:round; stroke-width:2; stroke-opacity:0.1; fill:none" points="370.509,1010.1 2352.76,1010.1 "/>
<polyline clip-path="url(#clip792)" style="stroke:#000000; stroke-linecap:round; stroke-linejoin:round; stroke-width:2; stroke-opacity:0.1; fill:none" points="370.509,796.934 2352.76,796.934 "/>
<polyline clip-path="url(#clip792)" style="stroke:#000000; stroke-linecap:round; stroke-linejoin:round; stroke-width:2; stroke-opacity:0.1; fill:none" points="370.509,583.769 2352.76,583.769 "/>
<polyline clip-path="url(#clip792)" style="stroke:#000000; stroke-linecap:round; stroke-linejoin:round; stroke-width:2; stroke-opacity:0.1; fill:none" points="370.509,370.604 2352.76,370.604 "/>
<polyline clip-path="url(#clip792)" style="stroke:#000000; stroke-linecap:round; stroke-linejoin:round; stroke-width:2; stroke-opacity:0.1; fill:none" points="370.509,157.438 2352.76,157.438 "/>
<polyline clip-path="url(#clip790)" style="stroke:#000000; stroke-linecap:round; stroke-linejoin:round; stroke-width:4; stroke-opacity:1; fill:none" points="370.509,1423.18 2352.76,1423.18 "/>
<polyline clip-path="url(#clip790)" style="stroke:#000000; stroke-linecap:round; stroke-linejoin:round; stroke-width:4; stroke-opacity:1; fill:none" points="667.907,1423.18 667.907,1404.28 "/>
<polyline clip-path="url(#clip790)" style="stroke:#000000; stroke-linecap:round; stroke-linejoin:round; stroke-width:4; stroke-opacity:1; fill:none" points="969.527,1423.18 969.527,1404.28 "/>
<polyline clip-path="url(#clip790)" style="stroke:#000000; stroke-linecap:round; stroke-linejoin:round; stroke-width:4; stroke-opacity:1; fill:none" points="1271.15,1423.18 1271.15,1404.28 "/>
<polyline clip-path="url(#clip790)" style="stroke:#000000; stroke-linecap:round; stroke-linejoin:round; stroke-width:4; stroke-opacity:1; fill:none" points="1572.77,1423.18 1572.77,1404.28 "/>
<polyline clip-path="url(#clip790)" style="stroke:#000000; stroke-linecap:round; stroke-linejoin:round; stroke-width:4; stroke-opacity:1; fill:none" points="1874.39,1423.18 1874.39,1404.28 "/>
<polyline clip-path="url(#clip790)" style="stroke:#000000; stroke-linecap:round; stroke-linejoin:round; stroke-width:4; stroke-opacity:1; fill:none" points="2176.01,1423.18 2176.01,1404.28 "/>
<path clip-path="url(#clip790)" d="M658.184 1451.02 L676.541 1451.02 L676.541 1454.96 L662.467 1454.96 L662.467 1463.43 Q663.485 1463.08 664.504 1462.92 Q665.522 1462.73 666.541 1462.73 Q672.328 1462.73 675.707 1465.9 Q679.087 1469.08 679.087 1474.49 Q679.087 1480.07 675.615 1483.17 Q672.143 1486.25 665.823 1486.25 Q663.647 1486.25 661.379 1485.88 Q659.133 1485.51 656.726 1484.77 L656.726 1480.07 Q658.809 1481.2 661.032 1481.76 Q663.254 1482.32 665.731 1482.32 Q669.735 1482.32 672.073 1480.21 Q674.411 1478.1 674.411 1474.49 Q674.411 1470.88 672.073 1468.77 Q669.735 1466.67 665.731 1466.67 Q663.856 1466.67 661.981 1467.08 Q660.129 1467.5 658.184 1468.38 L658.184 1451.02 Z" fill="#000000" fill-rule="nonzero" fill-opacity="1" /><path clip-path="url(#clip790)" d="M944.214 1481.64 L951.853 1481.64 L951.853 1455.28 L943.543 1456.95 L943.543 1452.69 L951.807 1451.02 L956.483 1451.02 L956.483 1481.64 L964.122 1481.64 L964.122 1485.58 L944.214 1485.58 L944.214 1481.64 Z" fill="#000000" fill-rule="nonzero" fill-opacity="1" /><path clip-path="url(#clip790)" d="M983.566 1454.1 Q979.955 1454.1 978.126 1457.66 Q976.321 1461.2 976.321 1468.33 Q976.321 1475.44 978.126 1479.01 Q979.955 1482.55 983.566 1482.55 Q987.2 1482.55 989.006 1479.01 Q990.834 1475.44 990.834 1468.33 Q990.834 1461.2 989.006 1457.66 Q987.2 1454.1 983.566 1454.1 M983.566 1450.39 Q989.376 1450.39 992.432 1455 Q995.51 1459.58 995.51 1468.33 Q995.51 1477.06 992.432 1481.67 Q989.376 1486.25 983.566 1486.25 Q977.756 1486.25 974.677 1481.67 Q971.621 1477.06 971.621 1468.33 Q971.621 1459.58 974.677 1455 Q977.756 1450.39 983.566 1450.39 Z" fill="#000000" fill-rule="nonzero" fill-opacity="1" /><path clip-path="url(#clip790)" d="M1246.33 1481.64 L1253.97 1481.64 L1253.97 1455.28 L1245.66 1456.95 L1245.66 1452.69 L1253.92 1451.02 L1258.6 1451.02 L1258.6 1481.64 L1266.24 1481.64 L1266.24 1485.58 L1246.33 1485.58 L1246.33 1481.64 Z" fill="#000000" fill-rule="nonzero" fill-opacity="1" /><path clip-path="url(#clip790)" d="M1275.73 1451.02 L1294.09 1451.02 L1294.09 1454.96 L1280.01 1454.96 L1280.01 1463.43 Q1281.03 1463.08 1282.05 1462.92 Q1283.07 1462.73 1284.09 1462.73 Q1289.87 1462.73 1293.25 1465.9 Q1296.63 1469.08 1296.63 1474.49 Q1296.63 1480.07 1293.16 1483.17 Q1289.69 1486.25 1283.37 1486.25 Q1281.19 1486.25 1278.92 1485.88 Q1276.68 1485.51 1274.27 1484.77 L1274.27 1480.07 Q1276.35 1481.2 1278.58 1481.76 Q1280.8 1482.32 1283.28 1482.32 Q1287.28 1482.32 1289.62 1480.21 Q1291.96 1478.1 1291.96 1474.49 Q1291.96 1470.88 1289.62 1468.77 Q1287.28 1466.67 1283.28 1466.67 Q1281.4 1466.67 1279.53 1467.08 Q1277.67 1467.5 1275.73 1468.38 L1275.73 1451.02 Z" fill="#000000" fill-rule="nonzero" fill-opacity="1" /><path clip-path="url(#clip790)" d="M1551.54 1481.64 L1567.86 1481.64 L1567.86 1485.58 L1545.91 1485.58 L1545.91 1481.64 Q1548.58 1478.89 1553.16 1474.26 Q1557.77 1469.61 1558.95 1468.27 Q1561.19 1465.74 1562.07 1464.01 Q1562.97 1462.25 1562.97 1460.56 Q1562.97 1457.8 1561.03 1456.07 Q1559.11 1454.33 1556.01 1454.33 Q1553.81 1454.33 1551.35 1455.09 Q1548.92 1455.86 1546.15 1457.41 L1546.15 1452.69 Q1548.97 1451.55 1551.42 1450.97 Q1553.88 1450.39 1555.91 1450.39 Q1561.29 1450.39 1564.48 1453.08 Q1567.67 1455.77 1567.67 1460.26 Q1567.67 1462.39 1566.86 1464.31 Q1566.08 1466.2 1563.97 1468.8 Q1563.39 1469.47 1560.29 1472.69 Q1557.19 1475.88 1551.54 1481.64 Z" fill="#000000" fill-rule="nonzero" fill-opacity="1" /><path clip-path="url(#clip790)" d="M1587.67 1454.1 Q1584.06 1454.1 1582.23 1457.66 Q1580.43 1461.2 1580.43 1468.33 Q1580.43 1475.44 1582.23 1479.01 Q1584.06 1482.55 1587.67 1482.55 Q1591.31 1482.55 1593.11 1479.01 Q1594.94 1475.44 1594.94 1468.33 Q1594.94 1461.2 1593.11 1457.66 Q1591.31 1454.1 1587.67 1454.1 M1587.67 1450.39 Q1593.48 1450.39 1596.54 1455 Q1599.62 1459.58 1599.62 1468.33 Q1599.62 1477.06 1596.54 1481.67 Q1593.48 1486.25 1587.67 1486.25 Q1581.86 1486.25 1578.79 1481.67 Q1575.73 1477.06 1575.73 1468.33 Q1575.73 1459.58 1578.79 1455 Q1581.86 1450.39 1587.67 1450.39 Z" fill="#000000" fill-rule="nonzero" fill-opacity="1" /><path clip-path="url(#clip790)" d="M1853.66 1481.64 L1869.98 1481.64 L1869.98 1485.58 L1848.03 1485.58 L1848.03 1481.64 Q1850.69 1478.89 1855.28 1474.26 Q1859.88 1469.61 1861.06 1468.27 Q1863.31 1465.74 1864.19 1464.01 Q1865.09 1462.25 1865.09 1460.56 Q1865.09 1457.8 1863.15 1456.07 Q1861.23 1454.33 1858.13 1454.33 Q1855.93 1454.33 1853.47 1455.09 Q1851.04 1455.86 1848.26 1457.41 L1848.26 1452.69 Q1851.09 1451.55 1853.54 1450.97 Q1856 1450.39 1858.03 1450.39 Q1863.4 1450.39 1866.6 1453.08 Q1869.79 1455.77 1869.79 1460.26 Q1869.79 1462.39 1868.98 1464.31 Q1868.19 1466.2 1866.09 1468.8 Q1865.51 1469.47 1862.41 1472.69 Q1859.31 1475.88 1853.66 1481.64 Z" fill="#000000" fill-rule="nonzero" fill-opacity="1" /><path clip-path="url(#clip790)" d="M1879.84 1451.02 L1898.19 1451.02 L1898.19 1454.96 L1884.12 1454.96 L1884.12 1463.43 Q1885.14 1463.08 1886.16 1462.92 Q1887.18 1462.73 1888.19 1462.73 Q1893.98 1462.73 1897.36 1465.9 Q1900.74 1469.08 1900.74 1474.49 Q1900.74 1480.07 1897.27 1483.17 Q1893.8 1486.25 1887.48 1486.25 Q1885.3 1486.25 1883.03 1485.88 Q1880.79 1485.51 1878.38 1484.77 L1878.38 1480.07 Q1880.46 1481.2 1882.69 1481.76 Q1884.91 1482.32 1887.38 1482.32 Q1891.39 1482.32 1893.73 1480.21 Q1896.06 1478.1 1896.06 1474.49 Q1896.06 1470.88 1893.73 1468.77 Q1891.39 1466.67 1887.38 1466.67 Q1885.51 1466.67 1883.63 1467.08 Q1881.78 1467.5 1879.84 1468.38 L1879.84 1451.02 Z" fill="#000000" fill-rule="nonzero" fill-opacity="1" /><path clip-path="url(#clip790)" d="M2164.85 1466.95 Q2168.21 1467.66 2170.08 1469.93 Q2171.98 1472.2 2171.98 1475.53 Q2171.98 1480.65 2168.46 1483.45 Q2164.94 1486.25 2158.46 1486.25 Q2156.28 1486.25 2153.97 1485.81 Q2151.68 1485.39 2149.22 1484.54 L2149.22 1480.02 Q2151.17 1481.16 2153.48 1481.74 Q2155.8 1482.32 2158.32 1482.32 Q2162.72 1482.32 2165.01 1480.58 Q2167.33 1478.84 2167.33 1475.53 Q2167.33 1472.48 2165.17 1470.77 Q2163.04 1469.03 2159.22 1469.03 L2155.2 1469.03 L2155.2 1465.19 L2159.41 1465.19 Q2162.86 1465.19 2164.69 1463.82 Q2166.52 1462.43 2166.52 1459.84 Q2166.52 1457.18 2164.62 1455.77 Q2162.74 1454.33 2159.22 1454.33 Q2157.3 1454.33 2155.1 1454.75 Q2152.9 1455.16 2150.27 1456.04 L2150.27 1451.88 Q2152.93 1451.14 2155.24 1450.77 Q2157.58 1450.39 2159.64 1450.39 Q2164.96 1450.39 2168.07 1452.83 Q2171.17 1455.23 2171.17 1459.35 Q2171.17 1462.22 2169.53 1464.21 Q2167.88 1466.18 2164.85 1466.95 Z" fill="#000000" fill-rule="nonzero" fill-opacity="1" /><path clip-path="url(#clip790)" d="M2190.84 1454.1 Q2187.23 1454.1 2185.4 1457.66 Q2183.6 1461.2 2183.6 1468.33 Q2183.6 1475.44 2185.4 1479.01 Q2187.23 1482.55 2190.84 1482.55 Q2194.48 1482.55 2196.28 1479.01 Q2198.11 1475.44 2198.11 1468.33 Q2198.11 1461.2 2196.28 1457.66 Q2194.48 1454.1 2190.84 1454.1 M2190.84 1450.39 Q2196.65 1450.39 2199.71 1455 Q2202.79 1459.58 2202.79 1468.33 Q2202.79 1477.06 2199.71 1481.67 Q2196.65 1486.25 2190.84 1486.25 Q2185.03 1486.25 2181.96 1481.67 Q2178.9 1477.06 2178.9 1468.33 Q2178.9 1459.58 2181.96 1455 Q2185.03 1450.39 2190.84 1450.39 Z" fill="#000000" fill-rule="nonzero" fill-opacity="1" /><path clip-path="url(#clip790)" d="M1131.15 1522.08 L1131.15 1528.35 Q1127.49 1526.6 1124.24 1525.74 Q1120.99 1524.88 1117.97 1524.88 Q1112.72 1524.88 1109.85 1526.92 Q1107.02 1528.96 1107.02 1532.71 Q1107.02 1535.87 1108.9 1537.49 Q1110.81 1539.08 1116.09 1540.07 L1119.97 1540.86 Q1127.17 1542.23 1130.57 1545.7 Q1134.01 1549.14 1134.01 1554.93 Q1134.01 1561.84 1129.36 1565.4 Q1124.75 1568.97 1115.8 1568.97 Q1112.43 1568.97 1108.61 1568.2 Q1104.82 1567.44 1100.75 1565.94 L1100.75 1559.32 Q1104.66 1561.52 1108.42 1562.63 Q1112.18 1563.75 1115.8 1563.75 Q1121.31 1563.75 1124.3 1561.58 Q1127.3 1559.42 1127.3 1555.41 Q1127.3 1551.91 1125.13 1549.93 Q1123 1547.96 1118.1 1546.97 L1114.18 1546.21 Q1106.99 1544.78 1103.77 1541.72 Q1100.56 1538.67 1100.56 1533.22 Q1100.56 1526.92 1104.98 1523.29 Q1109.44 1519.66 1117.24 1519.66 Q1120.58 1519.66 1124.05 1520.27 Q1127.52 1520.87 1131.15 1522.08 Z" fill="#000000" fill-rule="nonzero" fill-opacity="1" /><path clip-path="url(#clip790)" d="M1169.44 1533.76 L1169.44 1539.24 Q1166.95 1537.87 1164.44 1537.2 Q1161.96 1536.5 1159.41 1536.5 Q1153.71 1536.5 1150.56 1540.13 Q1147.41 1543.73 1147.41 1550.25 Q1147.41 1556.78 1150.56 1560.4 Q1153.71 1564 1159.41 1564 Q1161.96 1564 1164.44 1563.33 Q1166.95 1562.63 1169.44 1561.26 L1169.44 1566.68 Q1166.99 1567.82 1164.34 1568.39 Q1161.73 1568.97 1158.77 1568.97 Q1150.72 1568.97 1145.98 1563.91 Q1141.24 1558.85 1141.24 1550.25 Q1141.24 1541.53 1146.01 1536.53 Q1150.82 1531.54 1159.16 1531.54 Q1161.86 1531.54 1164.44 1532.11 Q1167.02 1532.65 1169.44 1533.76 Z" fill="#000000" fill-rule="nonzero" fill-opacity="1" /><path clip-path="url(#clip790)" d="M1179.62 1532.4 L1185.48 1532.4 L1185.48 1568.04 L1179.62 1568.04 L1179.62 1532.4 M1179.62 1518.52 L1185.48 1518.52 L1185.48 1525.93 L1179.62 1525.93 L1179.62 1518.52 Z" fill="#000000" fill-rule="nonzero" fill-opacity="1" /><path clip-path="url(#clip790)" d="M1227.36 1546.53 L1227.36 1568.04 L1221.51 1568.04 L1221.51 1546.72 Q1221.51 1541.66 1219.53 1539.14 Q1217.56 1536.63 1213.61 1536.63 Q1208.87 1536.63 1206.13 1539.65 Q1203.4 1542.68 1203.4 1547.9 L1203.4 1568.04 L1197.51 1568.04 L1197.51 1532.4 L1203.4 1532.4 L1203.4 1537.93 Q1205.5 1534.72 1208.33 1533.13 Q1211.2 1531.54 1214.92 1531.54 Q1221.06 1531.54 1224.21 1535.36 Q1227.36 1539.14 1227.36 1546.53 Z" fill="#000000" fill-rule="nonzero" fill-opacity="1" /><path clip-path="url(#clip790)" d="M1244.84 1522.27 L1244.84 1532.4 L1256.9 1532.4 L1256.9 1536.95 L1244.84 1536.95 L1244.84 1556.3 Q1244.84 1560.66 1246.02 1561.9 Q1247.22 1563.14 1250.89 1563.14 L1256.9 1563.14 L1256.9 1568.04 L1250.89 1568.04 Q1244.11 1568.04 1241.53 1565.53 Q1238.95 1562.98 1238.95 1556.3 L1238.95 1536.95 L1234.65 1536.95 L1234.65 1532.4 L1238.95 1532.4 L1238.95 1522.27 L1244.84 1522.27 Z" fill="#000000" fill-rule="nonzero" fill-opacity="1" /><path clip-path="url(#clip790)" d="M1264.6 1532.4 L1270.46 1532.4 L1270.46 1568.04 L1264.6 1568.04 L1264.6 1532.4 M1264.6 1518.52 L1270.46 1518.52 L1270.46 1525.93 L1264.6 1525.93 L1264.6 1518.52 Z" fill="#000000" fill-rule="nonzero" fill-opacity="1" /><path clip-path="url(#clip790)" d="M1282.71 1518.52 L1288.57 1518.52 L1288.57 1568.04 L1282.71 1568.04 L1282.71 1518.52 Z" fill="#000000" fill-rule="nonzero" fill-opacity="1" /><path clip-path="url(#clip790)" d="M1300.82 1518.52 L1306.68 1518.52 L1306.68 1568.04 L1300.82 1568.04 L1300.82 1518.52 Z" fill="#000000" fill-rule="nonzero" fill-opacity="1" /><path clip-path="url(#clip790)" d="M1335.14 1550.12 Q1328.04 1550.12 1325.3 1551.75 Q1322.56 1553.37 1322.56 1557.29 Q1322.56 1560.4 1324.6 1562.25 Q1326.67 1564.07 1330.2 1564.07 Q1335.07 1564.07 1338 1560.63 Q1340.96 1557.16 1340.96 1551.43 L1340.96 1550.12 L1335.14 1550.12 M1346.82 1547.71 L1346.82 1568.04 L1340.96 1568.04 L1340.96 1562.63 Q1338.95 1565.88 1335.96 1567.44 Q1332.97 1568.97 1328.64 1568.97 Q1323.17 1568.97 1319.92 1565.91 Q1316.71 1562.82 1316.71 1557.67 Q1316.71 1551.65 1320.72 1548.6 Q1324.76 1545.54 1332.75 1545.54 L1340.96 1545.54 L1340.96 1544.97 Q1340.96 1540.93 1338.29 1538.73 Q1335.64 1536.5 1330.84 1536.5 Q1327.78 1536.5 1324.89 1537.23 Q1321.99 1537.97 1319.32 1539.43 L1319.32 1534.02 Q1322.53 1532.78 1325.55 1532.17 Q1328.58 1531.54 1331.44 1531.54 Q1339.18 1531.54 1343 1535.55 Q1346.82 1539.56 1346.82 1547.71 Z" fill="#000000" fill-rule="nonzero" fill-opacity="1" /><path clip-path="url(#clip790)" d="M1364.67 1522.27 L1364.67 1532.4 L1376.74 1532.4 L1376.74 1536.95 L1364.67 1536.95 L1364.67 1556.3 Q1364.67 1560.66 1365.85 1561.9 Q1367.06 1563.14 1370.72 1563.14 L1376.74 1563.14 L1376.74 1568.04 L1370.72 1568.04 Q1363.94 1568.04 1361.36 1565.53 Q1358.78 1562.98 1358.78 1556.3 L1358.78 1536.95 L1354.49 1536.95 L1354.49 1532.4 L1358.78 1532.4 L1358.78 1522.27 L1364.67 1522.27 Z" fill="#000000" fill-rule="nonzero" fill-opacity="1" /><path clip-path="url(#clip790)" d="M1398.25 1536.5 Q1393.54 1536.5 1390.8 1540.19 Q1388.07 1543.85 1388.07 1550.25 Q1388.07 1556.65 1390.77 1560.34 Q1393.51 1564 1398.25 1564 Q1402.93 1564 1405.67 1560.31 Q1408.4 1556.62 1408.4 1550.25 Q1408.4 1543.92 1405.67 1540.23 Q1402.93 1536.5 1398.25 1536.5 M1398.25 1531.54 Q1405.89 1531.54 1410.25 1536.5 Q1414.61 1541.47 1414.61 1550.25 Q1414.61 1559 1410.25 1564 Q1405.89 1568.97 1398.25 1568.97 Q1390.58 1568.97 1386.22 1564 Q1381.89 1559 1381.89 1550.25 Q1381.89 1541.47 1386.22 1536.5 Q1390.58 1531.54 1398.25 1531.54 Z" fill="#000000" fill-rule="nonzero" fill-opacity="1" /><path clip-path="url(#clip790)" d="M1444.98 1537.87 Q1443.99 1537.3 1442.81 1537.04 Q1441.67 1536.76 1440.26 1536.76 Q1435.3 1536.76 1432.63 1540 Q1429.98 1543.22 1429.98 1549.27 L1429.98 1568.04 L1424.1 1568.04 L1424.1 1532.4 L1429.98 1532.4 L1429.98 1537.93 Q1431.83 1534.69 1434.79 1533.13 Q1437.75 1531.54 1441.98 1531.54 Q1442.59 1531.54 1443.32 1531.63 Q1444.05 1531.7 1444.94 1531.85 L1444.98 1537.87 Z" fill="#000000" fill-rule="nonzero" fill-opacity="1" /><path clip-path="url(#clip790)" d="M1477.5 1562.7 L1477.5 1581.6 L1471.62 1581.6 L1471.62 1532.4 L1477.5 1532.4 L1477.5 1537.81 Q1479.35 1534.62 1482.15 1533.1 Q1484.98 1531.54 1488.9 1531.54 Q1495.39 1531.54 1499.43 1536.69 Q1503.51 1541.85 1503.51 1550.25 Q1503.51 1558.65 1499.43 1563.81 Q1495.39 1568.97 1488.9 1568.97 Q1484.98 1568.97 1482.15 1567.44 Q1479.35 1565.88 1477.5 1562.7 M1497.43 1550.25 Q1497.43 1543.79 1494.76 1540.13 Q1492.11 1536.44 1487.47 1536.44 Q1482.82 1536.44 1480.15 1540.13 Q1477.5 1543.79 1477.5 1550.25 Q1477.5 1556.71 1480.15 1560.4 Q1482.82 1564.07 1487.47 1564.07 Q1492.11 1564.07 1494.76 1560.4 Q1497.43 1556.71 1497.43 1550.25 Z" fill="#000000" fill-rule="nonzero" fill-opacity="1" /><path clip-path="url(#clip790)" d="M1529.42 1550.12 Q1522.32 1550.12 1519.58 1551.75 Q1516.84 1553.37 1516.84 1557.29 Q1516.84 1560.4 1518.88 1562.25 Q1520.95 1564.07 1524.48 1564.07 Q1529.35 1564.07 1532.28 1560.63 Q1535.24 1557.16 1535.24 1551.43 L1535.24 1550.12 L1529.42 1550.12 M1541.1 1547.71 L1541.1 1568.04 L1535.24 1568.04 L1535.24 1562.63 Q1533.24 1565.88 1530.24 1567.44 Q1527.25 1568.97 1522.92 1568.97 Q1517.45 1568.97 1514.2 1565.91 Q1510.99 1562.82 1510.99 1557.67 Q1510.99 1551.65 1515 1548.6 Q1519.04 1545.54 1527.03 1545.54 L1535.24 1545.54 L1535.24 1544.97 Q1535.24 1540.93 1532.57 1538.73 Q1529.93 1536.5 1525.12 1536.5 Q1522.06 1536.5 1519.17 1537.23 Q1516.27 1537.97 1513.6 1539.43 L1513.6 1534.02 Q1516.81 1532.78 1519.84 1532.17 Q1522.86 1531.54 1525.72 1531.54 Q1533.46 1531.54 1537.28 1535.55 Q1541.1 1539.56 1541.1 1547.71 Z" fill="#000000" fill-rule="nonzero" fill-opacity="1" /><path clip-path="url(#clip790)" d="M1553.16 1532.4 L1559.02 1532.4 L1559.02 1568.04 L1553.16 1568.04 L1553.16 1532.4 M1553.16 1518.52 L1559.02 1518.52 L1559.02 1525.93 L1553.16 1525.93 L1553.16 1518.52 Z" fill="#000000" fill-rule="nonzero" fill-opacity="1" /><path clip-path="url(#clip790)" d="M1591.93 1537.87 Q1590.94 1537.3 1589.76 1537.04 Q1588.62 1536.76 1587.22 1536.76 Q1582.25 1536.76 1579.58 1540 Q1576.94 1543.22 1576.94 1549.27 L1576.94 1568.04 L1571.05 1568.04 L1571.05 1532.4 L1576.94 1532.4 L1576.94 1537.93 Q1578.78 1534.69 1581.74 1533.13 Q1584.7 1531.54 1588.94 1531.54 Q1589.54 1531.54 1590.27 1531.63 Q1591 1531.7 1591.9 1531.85 L1591.93 1537.87 Z" fill="#000000" fill-rule="nonzero" fill-opacity="1" /><path clip-path="url(#clip790)" d="M1620.8 1533.45 L1620.8 1538.98 Q1618.31 1537.71 1615.64 1537.07 Q1612.97 1536.44 1610.1 1536.44 Q1605.74 1536.44 1603.55 1537.77 Q1601.38 1539.11 1601.38 1541.79 Q1601.38 1543.82 1602.94 1545 Q1604.5 1546.15 1609.21 1547.2 L1611.22 1547.64 Q1617.45 1548.98 1620.06 1551.43 Q1622.71 1553.85 1622.71 1558.21 Q1622.71 1563.17 1618.76 1566.07 Q1614.84 1568.97 1607.97 1568.97 Q1605.1 1568.97 1601.99 1568.39 Q1598.9 1567.85 1595.46 1566.74 L1595.46 1560.69 Q1598.71 1562.38 1601.86 1563.24 Q1605.01 1564.07 1608.1 1564.07 Q1612.23 1564.07 1614.46 1562.66 Q1616.69 1561.23 1616.69 1558.65 Q1616.69 1556.27 1615.07 1554.99 Q1613.48 1553.72 1608.03 1552.54 L1606 1552.07 Q1600.55 1550.92 1598.13 1548.56 Q1595.72 1546.18 1595.72 1542.04 Q1595.72 1537.01 1599.28 1534.27 Q1602.85 1531.54 1609.4 1531.54 Q1612.65 1531.54 1615.51 1532.01 Q1618.38 1532.49 1620.8 1533.45 Z" fill="#000000" fill-rule="nonzero" fill-opacity="1" /><polyline clip-path="url(#clip790)" style="stroke:#000000; stroke-linecap:round; stroke-linejoin:round; stroke-width:4; stroke-opacity:1; fill:none" points="370.509,1423.18 370.509,123.472 "/>
<polyline clip-path="url(#clip790)" style="stroke:#000000; stroke-linecap:round; stroke-linejoin:round; stroke-width:4; stroke-opacity:1; fill:none" points="370.509,1223.26 389.407,1223.26 "/>
<polyline clip-path="url(#clip790)" style="stroke:#000000; stroke-linecap:round; stroke-linejoin:round; stroke-width:4; stroke-opacity:1; fill:none" points="370.509,1010.1 389.407,1010.1 "/>
<polyline clip-path="url(#clip790)" style="stroke:#000000; stroke-linecap:round; stroke-linejoin:round; stroke-width:4; stroke-opacity:1; fill:none" points="370.509,796.934 389.407,796.934 "/>
<polyline clip-path="url(#clip790)" style="stroke:#000000; stroke-linecap:round; stroke-linejoin:round; stroke-width:4; stroke-opacity:1; fill:none" points="370.509,583.769 389.407,583.769 "/>
<polyline clip-path="url(#clip790)" style="stroke:#000000; stroke-linecap:round; stroke-linejoin:round; stroke-width:4; stroke-opacity:1; fill:none" points="370.509,370.604 389.407,370.604 "/>
<polyline clip-path="url(#clip790)" style="stroke:#000000; stroke-linecap:round; stroke-linejoin:round; stroke-width:4; stroke-opacity:1; fill:none" points="370.509,157.438 389.407,157.438 "/>
<path clip-path="url(#clip790)" d="M117.825 1243.06 L125.464 1243.06 L125.464 1216.69 L117.154 1218.36 L117.154 1214.1 L125.418 1212.43 L130.093 1212.43 L130.093 1243.06 L137.732 1243.06 L137.732 1246.99 L117.825 1246.99 L117.825 1243.06 Z" fill="#000000" fill-rule="nonzero" fill-opacity="1" /><path clip-path="url(#clip790)" d="M147.177 1241.11 L152.061 1241.11 L152.061 1246.99 L147.177 1246.99 L147.177 1241.11 Z" fill="#000000" fill-rule="nonzero" fill-opacity="1" /><path clip-path="url(#clip790)" d="M172.246 1215.51 Q168.635 1215.51 166.806 1219.08 Q165.001 1222.62 165.001 1229.75 Q165.001 1236.85 166.806 1240.42 Q168.635 1243.96 172.246 1243.96 Q175.88 1243.96 177.686 1240.42 Q179.514 1236.85 179.514 1229.75 Q179.514 1222.62 177.686 1219.08 Q175.88 1215.51 172.246 1215.51 M172.246 1211.81 Q178.056 1211.81 181.112 1216.41 Q184.19 1221 184.19 1229.75 Q184.19 1238.47 181.112 1243.08 Q178.056 1247.66 172.246 1247.66 Q166.436 1247.66 163.357 1243.08 Q160.302 1238.47 160.302 1229.75 Q160.302 1221 163.357 1216.41 Q166.436 1211.81 172.246 1211.81 Z" fill="#000000" fill-rule="nonzero" fill-opacity="1" /><path clip-path="url(#clip790)" d="M220.579 1221.53 L210 1232.15 L220.579 1242.73 L217.824 1245.53 L207.199 1234.91 L196.575 1245.53 L193.843 1242.73 L204.399 1232.15 L193.843 1221.53 L196.575 1218.73 L207.199 1229.35 L217.824 1218.73 L220.579 1221.53 Z" fill="#000000" fill-rule="nonzero" fill-opacity="1" /><path clip-path="url(#clip790)" d="M232.94 1243.06 L240.579 1243.06 L240.579 1216.69 L232.269 1218.36 L232.269 1214.1 L240.533 1212.43 L245.209 1212.43 L245.209 1243.06 L252.847 1243.06 L252.847 1246.99 L232.94 1246.99 L232.94 1243.06 Z" fill="#000000" fill-rule="nonzero" fill-opacity="1" /><path clip-path="url(#clip790)" d="M272.292 1215.51 Q268.681 1215.51 266.852 1219.08 Q265.046 1222.62 265.046 1229.75 Q265.046 1236.85 266.852 1240.42 Q268.681 1243.96 272.292 1243.96 Q275.926 1243.96 277.732 1240.42 Q279.56 1236.85 279.56 1229.75 Q279.56 1222.62 277.732 1219.08 Q275.926 1215.51 272.292 1215.51 M272.292 1211.81 Q278.102 1211.81 281.157 1216.41 Q284.236 1221 284.236 1229.75 Q284.236 1238.47 281.157 1243.08 Q278.102 1247.66 272.292 1247.66 Q266.482 1247.66 263.403 1243.08 Q260.347 1238.47 260.347 1229.75 Q260.347 1221 263.403 1216.41 Q266.482 1211.81 272.292 1211.81 Z" fill="#000000" fill-rule="nonzero" fill-opacity="1" /><path clip-path="url(#clip790)" d="M284.236 1205.91 L308.348 1205.91 L308.348 1209.11 L284.236 1209.11 L284.236 1205.91 Z" fill="#000000" fill-rule="nonzero" fill-opacity="1" /><path clip-path="url(#clip790)" d="M325.143 1204.03 Q322.585 1204.03 321.081 1205.78 Q319.595 1207.53 319.595 1210.57 Q319.595 1213.6 321.081 1215.37 Q322.585 1217.12 325.143 1217.12 Q327.701 1217.12 329.187 1215.37 Q330.691 1213.6 330.691 1210.57 Q330.691 1207.53 329.187 1205.78 Q327.701 1204.03 325.143 1204.03 M332.685 1192.12 L332.685 1195.58 Q331.256 1194.91 329.789 1194.55 Q328.34 1194.19 326.911 1194.19 Q323.149 1194.19 321.156 1196.73 Q319.181 1199.27 318.899 1204.4 Q320.008 1202.77 321.682 1201.9 Q323.356 1201.02 325.369 1201.02 Q329.6 1201.02 332.045 1203.6 Q334.509 1206.15 334.509 1210.57 Q334.509 1214.9 331.951 1217.51 Q329.394 1220.13 325.143 1220.13 Q320.272 1220.13 317.695 1216.4 Q315.118 1212.66 315.118 1205.57 Q315.118 1198.91 318.278 1194.96 Q321.438 1190.99 326.76 1190.99 Q328.19 1190.99 329.638 1191.28 Q331.105 1191.56 332.685 1192.12 Z" fill="#000000" fill-rule="nonzero" fill-opacity="1" /><path clip-path="url(#clip790)" d="M121.043 1029.89 L137.362 1029.89 L137.362 1033.83 L115.418 1033.83 L115.418 1029.89 Q118.08 1027.14 122.663 1022.51 Q127.269 1017.86 128.45 1016.51 Q130.695 1013.99 131.575 1012.25 Q132.478 1010.49 132.478 1008.8 Q132.478 1006.05 130.533 1004.31 Q128.612 1002.58 125.51 1002.58 Q123.311 1002.58 120.857 1003.34 Q118.427 1004.11 115.649 1005.66 L115.649 1000.93 Q118.473 999.8 120.927 999.221 Q123.38 998.642 125.418 998.642 Q130.788 998.642 133.982 1001.33 Q137.177 1004.01 137.177 1008.5 Q137.177 1010.63 136.367 1012.55 Q135.579 1014.45 133.473 1017.04 Q132.894 1017.72 129.792 1020.93 Q126.691 1024.13 121.043 1029.89 Z" fill="#000000" fill-rule="nonzero" fill-opacity="1" /><path clip-path="url(#clip790)" d="M147.177 1027.95 L152.061 1027.95 L152.061 1033.83 L147.177 1033.83 L147.177 1027.95 Z" fill="#000000" fill-rule="nonzero" fill-opacity="1" /><path clip-path="url(#clip790)" d="M172.246 1002.35 Q168.635 1002.35 166.806 1005.91 Q165.001 1009.45 165.001 1016.58 Q165.001 1023.69 166.806 1027.25 Q168.635 1030.79 172.246 1030.79 Q175.88 1030.79 177.686 1027.25 Q179.514 1023.69 179.514 1016.58 Q179.514 1009.45 177.686 1005.91 Q175.88 1002.35 172.246 1002.35 M172.246 998.642 Q178.056 998.642 181.112 1003.25 Q184.19 1007.83 184.19 1016.58 Q184.19 1025.31 181.112 1029.92 Q178.056 1034.5 172.246 1034.5 Q166.436 1034.5 163.357 1029.92 Q160.302 1025.31 160.302 1016.58 Q160.302 1007.83 163.357 1003.25 Q166.436 998.642 172.246 998.642 Z" fill="#000000" fill-rule="nonzero" fill-opacity="1" /><path clip-path="url(#clip790)" d="M220.579 1008.36 L210 1018.99 L220.579 1029.57 L217.824 1032.37 L207.199 1021.74 L196.575 1032.37 L193.843 1029.57 L204.399 1018.99 L193.843 1008.36 L196.575 1005.56 L207.199 1016.19 L217.824 1005.56 L220.579 1008.36 Z" fill="#000000" fill-rule="nonzero" fill-opacity="1" /><path clip-path="url(#clip790)" d="M232.94 1029.89 L240.579 1029.89 L240.579 1003.53 L232.269 1005.19 L232.269 1000.93 L240.533 999.267 L245.209 999.267 L245.209 1029.89 L252.847 1029.89 L252.847 1033.83 L232.94 1033.83 L232.94 1029.89 Z" fill="#000000" fill-rule="nonzero" fill-opacity="1" /><path clip-path="url(#clip790)" d="M272.292 1002.35 Q268.681 1002.35 266.852 1005.91 Q265.046 1009.45 265.046 1016.58 Q265.046 1023.69 266.852 1027.25 Q268.681 1030.79 272.292 1030.79 Q275.926 1030.79 277.732 1027.25 Q279.56 1023.69 279.56 1016.58 Q279.56 1009.45 277.732 1005.91 Q275.926 1002.35 272.292 1002.35 M272.292 998.642 Q278.102 998.642 281.157 1003.25 Q284.236 1007.83 284.236 1016.58 Q284.236 1025.31 281.157 1029.92 Q278.102 1034.5 272.292 1034.5 Q266.482 1034.5 263.403 1029.92 Q260.347 1025.31 260.347 1016.58 Q260.347 1007.83 263.403 1003.25 Q266.482 998.642 272.292 998.642 Z" fill="#000000" fill-rule="nonzero" fill-opacity="1" /><path clip-path="url(#clip790)" d="M284.236 992.744 L308.348 992.744 L308.348 995.941 L284.236 995.941 L284.236 992.744 Z" fill="#000000" fill-rule="nonzero" fill-opacity="1" /><path clip-path="url(#clip790)" d="M325.143 990.863 Q322.585 990.863 321.081 992.612 Q319.595 994.361 319.595 997.408 Q319.595 1000.44 321.081 1002.2 Q322.585 1003.95 325.143 1003.95 Q327.701 1003.95 329.187 1002.2 Q330.691 1000.44 330.691 997.408 Q330.691 994.361 329.187 992.612 Q327.701 990.863 325.143 990.863 M332.685 978.957 L332.685 982.418 Q331.256 981.741 329.789 981.384 Q328.34 981.026 326.911 981.026 Q323.149 981.026 321.156 983.565 Q319.181 986.104 318.899 991.239 Q320.008 989.603 321.682 988.737 Q323.356 987.854 325.369 987.854 Q329.6 987.854 332.045 990.43 Q334.509 992.988 334.509 997.408 Q334.509 1001.73 331.951 1004.35 Q329.394 1006.96 325.143 1006.96 Q320.272 1006.96 317.695 1003.24 Q315.118 999.496 315.118 992.405 Q315.118 985.747 318.278 981.797 Q321.438 977.829 326.76 977.829 Q328.19 977.829 329.638 978.111 Q331.105 978.393 332.685 978.957 Z" fill="#000000" fill-rule="nonzero" fill-opacity="1" /><path clip-path="url(#clip790)" d="M131.181 802.028 Q134.538 802.745 136.413 805.014 Q138.311 807.282 138.311 810.616 Q138.311 815.731 134.792 818.532 Q131.274 821.333 124.793 821.333 Q122.617 821.333 120.302 820.893 Q118.01 820.477 115.556 819.62 L115.556 815.106 Q117.501 816.241 119.816 816.819 Q122.13 817.398 124.654 817.398 Q129.052 817.398 131.343 815.662 Q133.658 813.926 133.658 810.616 Q133.658 807.56 131.505 805.847 Q129.376 804.111 125.556 804.111 L121.529 804.111 L121.529 800.268 L125.742 800.268 Q129.191 800.268 131.019 798.903 Q132.848 797.514 132.848 794.921 Q132.848 792.259 130.95 790.847 Q129.075 789.412 125.556 789.412 Q123.635 789.412 121.436 789.829 Q119.237 790.245 116.598 791.125 L116.598 786.958 Q119.26 786.218 121.575 785.847 Q123.913 785.477 125.973 785.477 Q131.297 785.477 134.399 787.907 Q137.501 790.315 137.501 794.435 Q137.501 797.305 135.857 799.296 Q134.214 801.264 131.181 802.028 Z" fill="#000000" fill-rule="nonzero" fill-opacity="1" /><path clip-path="url(#clip790)" d="M147.177 814.782 L152.061 814.782 L152.061 820.662 L147.177 820.662 L147.177 814.782 Z" fill="#000000" fill-rule="nonzero" fill-opacity="1" /><path clip-path="url(#clip790)" d="M172.246 789.181 Q168.635 789.181 166.806 792.745 Q165.001 796.287 165.001 803.417 Q165.001 810.523 166.806 814.088 Q168.635 817.629 172.246 817.629 Q175.88 817.629 177.686 814.088 Q179.514 810.523 179.514 803.417 Q179.514 796.287 177.686 792.745 Q175.88 789.181 172.246 789.181 M172.246 785.477 Q178.056 785.477 181.112 790.083 Q184.19 794.667 184.19 803.417 Q184.19 812.143 181.112 816.75 Q178.056 821.333 172.246 821.333 Q166.436 821.333 163.357 816.75 Q160.302 812.143 160.302 803.417 Q160.302 794.667 163.357 790.083 Q166.436 785.477 172.246 785.477 Z" fill="#000000" fill-rule="nonzero" fill-opacity="1" /><path clip-path="url(#clip790)" d="M220.579 795.199 L210 805.824 L220.579 816.403 L217.824 819.204 L207.199 808.579 L196.575 819.204 L193.843 816.403 L204.399 805.824 L193.843 795.199 L196.575 792.398 L207.199 803.023 L217.824 792.398 L220.579 795.199 Z" fill="#000000" fill-rule="nonzero" fill-opacity="1" /><path clip-path="url(#clip790)" d="M232.94 816.727 L240.579 816.727 L240.579 790.361 L232.269 792.028 L232.269 787.768 L240.533 786.102 L245.209 786.102 L245.209 816.727 L252.847 816.727 L252.847 820.662 L232.94 820.662 L232.94 816.727 Z" fill="#000000" fill-rule="nonzero" fill-opacity="1" /><path clip-path="url(#clip790)" d="M272.292 789.181 Q268.681 789.181 266.852 792.745 Q265.046 796.287 265.046 803.417 Q265.046 810.523 266.852 814.088 Q268.681 817.629 272.292 817.629 Q275.926 817.629 277.732 814.088 Q279.56 810.523 279.56 803.417 Q279.56 796.287 277.732 792.745 Q275.926 789.181 272.292 789.181 M272.292 785.477 Q278.102 785.477 281.157 790.083 Q284.236 794.667 284.236 803.417 Q284.236 812.143 281.157 816.75 Q278.102 821.333 272.292 821.333 Q266.482 821.333 263.403 816.75 Q260.347 812.143 260.347 803.417 Q260.347 794.667 263.403 790.083 Q266.482 785.477 272.292 785.477 Z" fill="#000000" fill-rule="nonzero" fill-opacity="1" /><path clip-path="url(#clip790)" d="M284.236 779.578 L308.348 779.578 L308.348 782.776 L284.236 782.776 L284.236 779.578 Z" fill="#000000" fill-rule="nonzero" fill-opacity="1" /><path clip-path="url(#clip790)" d="M325.143 777.697 Q322.585 777.697 321.081 779.447 Q319.595 781.196 319.595 784.243 Q319.595 787.271 321.081 789.038 Q322.585 790.788 325.143 790.788 Q327.701 790.788 329.187 789.038 Q330.691 787.271 330.691 784.243 Q330.691 781.196 329.187 779.447 Q327.701 777.697 325.143 777.697 M332.685 765.792 L332.685 769.253 Q331.256 768.576 329.789 768.218 Q328.34 767.861 326.911 767.861 Q323.149 767.861 321.156 770.4 Q319.181 772.939 318.899 778.074 Q320.008 776.437 321.682 775.572 Q323.356 774.688 325.369 774.688 Q329.6 774.688 332.045 777.265 Q334.509 779.823 334.509 784.243 Q334.509 788.568 331.951 791.183 Q329.394 793.797 325.143 793.797 Q320.272 793.797 317.695 790.073 Q315.118 786.33 315.118 779.24 Q315.118 772.582 318.278 768.632 Q321.438 764.664 326.76 764.664 Q328.19 764.664 329.638 764.946 Q331.105 765.228 332.685 765.792 Z" fill="#000000" fill-rule="nonzero" fill-opacity="1" /><path clip-path="url(#clip790)" d="M129.862 577.011 L118.056 595.46 L129.862 595.46 L129.862 577.011 M128.635 572.936 L134.515 572.936 L134.515 595.46 L139.445 595.46 L139.445 599.348 L134.515 599.348 L134.515 607.496 L129.862 607.496 L129.862 599.348 L114.26 599.348 L114.26 594.835 L128.635 572.936 Z" fill="#000000" fill-rule="nonzero" fill-opacity="1" /><path clip-path="url(#clip790)" d="M147.177 601.617 L152.061 601.617 L152.061 607.496 L147.177 607.496 L147.177 601.617 Z" fill="#000000" fill-rule="nonzero" fill-opacity="1" /><path clip-path="url(#clip790)" d="M172.246 576.015 Q168.635 576.015 166.806 579.58 Q165.001 583.122 165.001 590.251 Q165.001 597.358 166.806 600.922 Q168.635 604.464 172.246 604.464 Q175.88 604.464 177.686 600.922 Q179.514 597.358 179.514 590.251 Q179.514 583.122 177.686 579.58 Q175.88 576.015 172.246 576.015 M172.246 572.311 Q178.056 572.311 181.112 576.918 Q184.19 581.501 184.19 590.251 Q184.19 598.978 181.112 603.584 Q178.056 608.168 172.246 608.168 Q166.436 608.168 163.357 603.584 Q160.302 598.978 160.302 590.251 Q160.302 581.501 163.357 576.918 Q166.436 572.311 172.246 572.311 Z" fill="#000000" fill-rule="nonzero" fill-opacity="1" /><path clip-path="url(#clip790)" d="M220.579 582.034 L210 592.659 L220.579 603.237 L217.824 606.038 L207.199 595.413 L196.575 606.038 L193.843 603.237 L204.399 592.659 L193.843 582.034 L196.575 579.233 L207.199 589.858 L217.824 579.233 L220.579 582.034 Z" fill="#000000" fill-rule="nonzero" fill-opacity="1" /><path clip-path="url(#clip790)" d="M232.94 603.561 L240.579 603.561 L240.579 577.196 L232.269 578.862 L232.269 574.603 L240.533 572.936 L245.209 572.936 L245.209 603.561 L252.847 603.561 L252.847 607.496 L232.94 607.496 L232.94 603.561 Z" fill="#000000" fill-rule="nonzero" fill-opacity="1" /><path clip-path="url(#clip790)" d="M272.292 576.015 Q268.681 576.015 266.852 579.58 Q265.046 583.122 265.046 590.251 Q265.046 597.358 266.852 600.922 Q268.681 604.464 272.292 604.464 Q275.926 604.464 277.732 600.922 Q279.56 597.358 279.56 590.251 Q279.56 583.122 277.732 579.58 Q275.926 576.015 272.292 576.015 M272.292 572.311 Q278.102 572.311 281.157 576.918 Q284.236 581.501 284.236 590.251 Q284.236 598.978 281.157 603.584 Q278.102 608.168 272.292 608.168 Q266.482 608.168 263.403 603.584 Q260.347 598.978 260.347 590.251 Q260.347 581.501 263.403 576.918 Q266.482 572.311 272.292 572.311 Z" fill="#000000" fill-rule="nonzero" fill-opacity="1" /><path clip-path="url(#clip790)" d="M284.236 566.413 L308.348 566.413 L308.348 569.61 L284.236 569.61 L284.236 566.413 Z" fill="#000000" fill-rule="nonzero" fill-opacity="1" /><path clip-path="url(#clip790)" d="M325.143 564.532 Q322.585 564.532 321.081 566.281 Q319.595 568.03 319.595 571.077 Q319.595 574.105 321.081 575.873 Q322.585 577.622 325.143 577.622 Q327.701 577.622 329.187 575.873 Q330.691 574.105 330.691 571.077 Q330.691 568.03 329.187 566.281 Q327.701 564.532 325.143 564.532 M332.685 552.627 L332.685 556.087 Q331.256 555.41 329.789 555.053 Q328.34 554.696 326.911 554.696 Q323.149 554.696 321.156 557.235 Q319.181 559.774 318.899 564.908 Q320.008 563.272 321.682 562.407 Q323.356 561.523 325.369 561.523 Q329.6 561.523 332.045 564.099 Q334.509 566.657 334.509 571.077 Q334.509 575.403 331.951 578.017 Q329.394 580.631 325.143 580.631 Q320.272 580.631 317.695 576.908 Q315.118 573.165 315.118 566.074 Q315.118 559.416 318.278 555.467 Q321.438 551.498 326.76 551.498 Q328.19 551.498 329.638 551.78 Q331.105 552.062 332.685 552.627 Z" fill="#000000" fill-rule="nonzero" fill-opacity="1" /><path clip-path="url(#clip790)" d="M117.061 359.771 L135.417 359.771 L135.417 363.706 L121.343 363.706 L121.343 372.178 Q122.362 371.831 123.38 371.669 Q124.399 371.484 125.418 371.484 Q131.205 371.484 134.584 374.655 Q137.964 377.827 137.964 383.243 Q137.964 388.822 134.492 391.924 Q131.019 395.002 124.7 395.002 Q122.524 395.002 120.255 394.632 Q118.01 394.262 115.603 393.521 L115.603 388.822 Q117.686 389.956 119.908 390.512 Q122.13 391.067 124.607 391.067 Q128.612 391.067 130.95 388.961 Q133.288 386.854 133.288 383.243 Q133.288 379.632 130.95 377.526 Q128.612 375.419 124.607 375.419 Q122.732 375.419 120.857 375.836 Q119.006 376.253 117.061 377.132 L117.061 359.771 Z" fill="#000000" fill-rule="nonzero" fill-opacity="1" /><path clip-path="url(#clip790)" d="M147.177 388.452 L152.061 388.452 L152.061 394.331 L147.177 394.331 L147.177 388.452 Z" fill="#000000" fill-rule="nonzero" fill-opacity="1" /><path clip-path="url(#clip790)" d="M172.246 362.85 Q168.635 362.85 166.806 366.415 Q165.001 369.956 165.001 377.086 Q165.001 384.192 166.806 387.757 Q168.635 391.299 172.246 391.299 Q175.88 391.299 177.686 387.757 Q179.514 384.192 179.514 377.086 Q179.514 369.956 177.686 366.415 Q175.88 362.85 172.246 362.85 M172.246 359.146 Q178.056 359.146 181.112 363.753 Q184.19 368.336 184.19 377.086 Q184.19 385.813 181.112 390.419 Q178.056 395.002 172.246 395.002 Q166.436 395.002 163.357 390.419 Q160.302 385.813 160.302 377.086 Q160.302 368.336 163.357 363.753 Q166.436 359.146 172.246 359.146 Z" fill="#000000" fill-rule="nonzero" fill-opacity="1" /><path clip-path="url(#clip790)" d="M220.579 368.868 L210 379.493 L220.579 390.072 L217.824 392.873 L207.199 382.248 L196.575 392.873 L193.843 390.072 L204.399 379.493 L193.843 368.868 L196.575 366.067 L207.199 376.692 L217.824 366.067 L220.579 368.868 Z" fill="#000000" fill-rule="nonzero" fill-opacity="1" /><path clip-path="url(#clip790)" d="M232.94 390.396 L240.579 390.396 L240.579 364.03 L232.269 365.697 L232.269 361.438 L240.533 359.771 L245.209 359.771 L245.209 390.396 L252.847 390.396 L252.847 394.331 L232.94 394.331 L232.94 390.396 Z" fill="#000000" fill-rule="nonzero" fill-opacity="1" /><path clip-path="url(#clip790)" d="M272.292 362.85 Q268.681 362.85 266.852 366.415 Q265.046 369.956 265.046 377.086 Q265.046 384.192 266.852 387.757 Q268.681 391.299 272.292 391.299 Q275.926 391.299 277.732 387.757 Q279.56 384.192 279.56 377.086 Q279.56 369.956 277.732 366.415 Q275.926 362.85 272.292 362.85 M272.292 359.146 Q278.102 359.146 281.157 363.753 Q284.236 368.336 284.236 377.086 Q284.236 385.813 281.157 390.419 Q278.102 395.002 272.292 395.002 Q266.482 395.002 263.403 390.419 Q260.347 385.813 260.347 377.086 Q260.347 368.336 263.403 363.753 Q266.482 359.146 272.292 359.146 Z" fill="#000000" fill-rule="nonzero" fill-opacity="1" /><path clip-path="url(#clip790)" d="M284.236 353.247 L308.348 353.247 L308.348 356.445 L284.236 356.445 L284.236 353.247 Z" fill="#000000" fill-rule="nonzero" fill-opacity="1" /><path clip-path="url(#clip790)" d="M325.143 351.367 Q322.585 351.367 321.081 353.116 Q319.595 354.865 319.595 357.912 Q319.595 360.94 321.081 362.708 Q322.585 364.457 325.143 364.457 Q327.701 364.457 329.187 362.708 Q330.691 360.94 330.691 357.912 Q330.691 354.865 329.187 353.116 Q327.701 351.367 325.143 351.367 M332.685 339.461 L332.685 342.922 Q331.256 342.245 329.789 341.888 Q328.34 341.53 326.911 341.53 Q323.149 341.53 321.156 344.069 Q319.181 346.608 318.899 351.743 Q320.008 350.107 321.682 349.241 Q323.356 348.357 325.369 348.357 Q329.6 348.357 332.045 350.934 Q334.509 353.492 334.509 357.912 Q334.509 362.238 331.951 364.852 Q329.394 367.466 325.143 367.466 Q320.272 367.466 317.695 363.742 Q315.118 359.999 315.118 352.909 Q315.118 346.251 318.278 342.301 Q321.438 338.333 326.76 338.333 Q328.19 338.333 329.638 338.615 Q331.105 338.897 332.685 339.461 Z" fill="#000000" fill-rule="nonzero" fill-opacity="1" /><path clip-path="url(#clip790)" d="M127.593 162.022 Q124.445 162.022 122.593 164.175 Q120.765 166.328 120.765 170.078 Q120.765 173.805 122.593 175.981 Q124.445 178.133 127.593 178.133 Q130.742 178.133 132.57 175.981 Q134.422 173.805 134.422 170.078 Q134.422 166.328 132.57 164.175 Q130.742 162.022 127.593 162.022 M136.876 147.37 L136.876 151.629 Q135.117 150.796 133.311 150.356 Q131.529 149.916 129.769 149.916 Q125.14 149.916 122.686 153.041 Q120.255 156.166 119.908 162.485 Q121.274 160.471 123.334 159.407 Q125.394 158.319 127.871 158.319 Q133.08 158.319 136.089 161.49 Q139.121 164.638 139.121 170.078 Q139.121 175.402 135.973 178.619 Q132.825 181.837 127.593 181.837 Q121.598 181.837 118.427 177.254 Q115.256 172.647 115.256 163.92 Q115.256 155.726 119.144 150.865 Q123.033 145.981 129.584 145.981 Q131.343 145.981 133.126 146.328 Q134.931 146.675 136.876 147.37 Z" fill="#000000" fill-rule="nonzero" fill-opacity="1" /><path clip-path="url(#clip790)" d="M147.177 175.286 L152.061 175.286 L152.061 181.166 L147.177 181.166 L147.177 175.286 Z" fill="#000000" fill-rule="nonzero" fill-opacity="1" /><path clip-path="url(#clip790)" d="M172.246 149.684 Q168.635 149.684 166.806 153.249 Q165.001 156.791 165.001 163.92 Q165.001 171.027 166.806 174.592 Q168.635 178.133 172.246 178.133 Q175.88 178.133 177.686 174.592 Q179.514 171.027 179.514 163.92 Q179.514 156.791 177.686 153.249 Q175.88 149.684 172.246 149.684 M172.246 145.981 Q178.056 145.981 181.112 150.587 Q184.19 155.171 184.19 163.92 Q184.19 172.647 181.112 177.254 Q178.056 181.837 172.246 181.837 Q166.436 181.837 163.357 177.254 Q160.302 172.647 160.302 163.92 Q160.302 155.171 163.357 150.587 Q166.436 145.981 172.246 145.981 Z" fill="#000000" fill-rule="nonzero" fill-opacity="1" /><path clip-path="url(#clip790)" d="M220.579 155.703 L210 166.328 L220.579 176.907 L217.824 179.707 L207.199 169.082 L196.575 179.707 L193.843 176.907 L204.399 166.328 L193.843 155.703 L196.575 152.902 L207.199 163.527 L217.824 152.902 L220.579 155.703 Z" fill="#000000" fill-rule="nonzero" fill-opacity="1" /><path clip-path="url(#clip790)" d="M232.94 177.231 L240.579 177.231 L240.579 150.865 L232.269 152.532 L232.269 148.272 L240.533 146.606 L245.209 146.606 L245.209 177.231 L252.847 177.231 L252.847 181.166 L232.94 181.166 L232.94 177.231 Z" fill="#000000" fill-rule="nonzero" fill-opacity="1" /><path clip-path="url(#clip790)" d="M272.292 149.684 Q268.681 149.684 266.852 153.249 Q265.046 156.791 265.046 163.92 Q265.046 171.027 266.852 174.592 Q268.681 178.133 272.292 178.133 Q275.926 178.133 277.732 174.592 Q279.56 171.027 279.56 163.92 Q279.56 156.791 277.732 153.249 Q275.926 149.684 272.292 149.684 M272.292 145.981 Q278.102 145.981 281.157 150.587 Q284.236 155.171 284.236 163.92 Q284.236 172.647 281.157 177.254 Q278.102 181.837 272.292 181.837 Q266.482 181.837 263.403 177.254 Q260.347 172.647 260.347 163.92 Q260.347 155.171 263.403 150.587 Q266.482 145.981 272.292 145.981 Z" fill="#000000" fill-rule="nonzero" fill-opacity="1" /><path clip-path="url(#clip790)" d="M284.236 140.082 L308.348 140.082 L308.348 143.279 L284.236 143.279 L284.236 140.082 Z" fill="#000000" fill-rule="nonzero" fill-opacity="1" /><path clip-path="url(#clip790)" d="M325.143 138.201 Q322.585 138.201 321.081 139.95 Q319.595 141.7 319.595 144.746 Q319.595 147.774 321.081 149.542 Q322.585 151.292 325.143 151.292 Q327.701 151.292 329.187 149.542 Q330.691 147.774 330.691 144.746 Q330.691 141.7 329.187 139.95 Q327.701 138.201 325.143 138.201 M332.685 126.296 L332.685 129.757 Q331.256 129.08 329.789 128.722 Q328.34 128.365 326.911 128.365 Q323.149 128.365 321.156 130.904 Q319.181 133.443 318.899 138.577 Q320.008 136.941 321.682 136.076 Q323.356 135.192 325.369 135.192 Q329.6 135.192 332.045 137.769 Q334.509 140.327 334.509 144.746 Q334.509 149.072 331.951 151.687 Q329.394 154.301 325.143 154.301 Q320.272 154.301 317.695 150.577 Q315.118 146.834 315.118 139.744 Q315.118 133.086 318.278 129.136 Q321.438 125.168 326.76 125.168 Q328.19 125.168 329.638 125.45 Q331.105 125.732 332.685 126.296 Z" fill="#000000" fill-rule="nonzero" fill-opacity="1" /><path clip-path="url(#clip790)" d="M22.818 1166.65 L46.4666 1175.37 L46.4666 1157.89 L22.818 1166.65 M16.4842 1170.28 L16.4842 1162.99 L64.0042 1144.88 L64.0042 1151.56 L51.8138 1155.89 L51.8138 1177.31 L64.0042 1181.64 L64.0042 1188.42 L16.4842 1170.28 Z" fill="#000000" fill-rule="nonzero" fill-opacity="1" /><path clip-path="url(#clip790)" d="M33.8307 1117.54 Q33.2578 1118.52 33.0032 1119.7 Q32.7167 1120.85 32.7167 1122.25 Q32.7167 1127.21 35.9632 1129.89 Q39.1779 1132.53 45.2253 1132.53 L64.0042 1132.53 L64.0042 1138.42 L28.3562 1138.42 L28.3562 1132.53 L33.8944 1132.53 Q30.6479 1130.68 29.0883 1127.72 Q27.4968 1124.76 27.4968 1120.53 Q27.4968 1119.92 27.5923 1119.19 Q27.656 1118.46 27.8151 1117.57 L33.8307 1117.54 Z" fill="#000000" fill-rule="nonzero" fill-opacity="1" /><path clip-path="url(#clip790)" d="M44.7161 1082.33 L47.5806 1082.33 L47.5806 1109.26 Q53.6281 1108.88 56.8109 1105.63 Q59.9619 1102.35 59.9619 1096.53 Q59.9619 1093.15 59.1344 1090 Q58.3069 1086.82 56.6518 1083.7 L62.1899 1083.7 Q63.5267 1086.85 64.227 1090.16 Q64.9272 1093.47 64.9272 1096.88 Q64.9272 1105.41 59.9619 1110.41 Q54.9967 1115.37 46.5303 1115.37 Q37.7774 1115.37 32.6531 1110.66 Q27.4968 1105.92 27.4968 1097.9 Q27.4968 1090.7 32.1438 1086.53 Q36.7589 1082.33 44.7161 1082.33 M42.9973 1088.19 Q38.1912 1088.25 35.3266 1090.9 Q32.4621 1093.51 32.4621 1097.83 Q32.4621 1102.74 35.2312 1105.7 Q38.0002 1108.62 43.0292 1109.07 L42.9973 1088.19 Z" fill="#000000" fill-rule="nonzero" fill-opacity="1" /><path clip-path="url(#clip790)" d="M46.0847 1056.52 Q46.0847 1063.62 47.7079 1066.36 Q49.3312 1069.09 53.2461 1069.09 Q56.3653 1069.09 58.2114 1067.06 Q60.0256 1064.99 60.0256 1061.45 Q60.0256 1056.58 56.5881 1053.66 Q53.1188 1050.7 47.3897 1050.7 L46.0847 1050.7 L46.0847 1056.52 M43.6657 1044.84 L64.0042 1044.84 L64.0042 1050.7 L58.5933 1050.7 Q61.8398 1052.7 63.3994 1055.69 Q64.9272 1058.68 64.9272 1063.01 Q64.9272 1068.49 61.8716 1071.73 Q58.7843 1074.95 53.6281 1074.95 Q47.6125 1074.95 44.5569 1070.94 Q41.5014 1066.9 41.5014 1058.91 L41.5014 1050.7 L40.9285 1050.7 Q36.8862 1050.7 34.6901 1053.37 Q32.4621 1056.01 32.4621 1060.82 Q32.4621 1063.87 33.1941 1066.77 Q33.9262 1069.67 35.3903 1072.34 L29.9795 1072.34 Q28.7381 1069.12 28.1334 1066.1 Q27.4968 1063.08 27.4968 1060.21 Q27.4968 1052.48 31.5072 1048.66 Q35.5176 1044.84 43.6657 1044.84 Z" fill="#000000" fill-rule="nonzero" fill-opacity="1" /><path clip-path="url(#clip790)" d="M42.4881 982.424 L64.0042 982.424 L64.0042 988.28 L42.679 988.28 Q37.6183 988.28 35.1038 990.253 Q32.5894 992.227 32.5894 996.173 Q32.5894 1000.92 35.6131 1003.65 Q38.6368 1006.39 43.8567 1006.39 L64.0042 1006.39 L64.0042 1012.28 L28.3562 1012.28 L28.3562 1006.39 L33.8944 1006.39 Q30.6797 1004.29 29.0883 1001.46 Q27.4968 998.592 27.4968 994.868 Q27.4968 988.726 31.3163 985.575 Q35.1038 982.424 42.4881 982.424 Z" fill="#000000" fill-rule="nonzero" fill-opacity="1" /><path clip-path="url(#clip790)" d="M32.4621 956.929 Q32.4621 961.64 36.1542 964.377 Q39.8145 967.114 46.212 967.114 Q52.6095 967.114 56.3017 964.409 Q59.9619 961.671 59.9619 956.929 Q59.9619 952.25 56.2698 949.513 Q52.5777 946.776 46.212 946.776 Q39.8781 946.776 36.186 949.513 Q32.4621 952.25 32.4621 956.929 M27.4968 956.929 Q27.4968 949.29 32.4621 944.93 Q37.4273 940.569 46.212 940.569 Q54.9649 940.569 59.9619 944.93 Q64.9272 949.29 64.9272 956.929 Q64.9272 964.6 59.9619 968.96 Q54.9649 973.289 46.212 973.289 Q37.4273 973.289 32.4621 968.96 Q27.4968 964.6 27.4968 956.929 Z" fill="#000000" fill-rule="nonzero" fill-opacity="1" /><path clip-path="url(#clip790)" d="M33.8307 910.205 Q33.2578 911.191 33.0032 912.369 Q32.7167 913.515 32.7167 914.915 Q32.7167 919.88 35.9632 922.554 Q39.1779 925.196 45.2253 925.196 L64.0042 925.196 L64.0042 931.084 L28.3562 931.084 L28.3562 925.196 L33.8944 925.196 Q30.6479 923.35 29.0883 920.39 Q27.4968 917.43 27.4968 913.196 Q27.4968 912.592 27.5923 911.86 Q27.656 911.128 27.8151 910.236 L33.8307 910.205 Z" fill="#000000" fill-rule="nonzero" fill-opacity="1" /><path clip-path="url(#clip790)" d="M35.1993 877.453 Q31.2526 875.257 29.3747 872.201 Q27.4968 869.146 27.4968 865.008 Q27.4968 859.438 31.4117 856.414 Q35.2948 853.391 42.4881 853.391 L64.0042 853.391 L64.0042 859.279 L42.679 859.279 Q37.5546 859.279 35.072 861.093 Q32.5894 862.907 32.5894 866.631 Q32.5894 871.183 35.6131 873.825 Q38.6368 876.466 43.8567 876.466 L64.0042 876.466 L64.0042 882.355 L42.679 882.355 Q37.5228 882.355 35.072 884.169 Q32.5894 885.983 32.5894 889.771 Q32.5894 894.258 35.6449 896.9 Q38.6686 899.542 43.8567 899.542 L64.0042 899.542 L64.0042 905.43 L28.3562 905.43 L28.3562 899.542 L33.8944 899.542 Q30.616 897.537 29.0564 894.736 Q27.4968 891.935 27.4968 888.084 Q27.4968 884.201 29.4702 881.495 Q31.4436 878.758 35.1993 877.453 Z" fill="#000000" fill-rule="nonzero" fill-opacity="1" /><path clip-path="url(#clip790)" d="M46.0847 825.509 Q46.0847 832.607 47.7079 835.344 Q49.3312 838.081 53.2461 838.081 Q56.3653 838.081 58.2114 836.044 Q60.0256 833.975 60.0256 830.442 Q60.0256 825.573 56.5881 822.644 Q53.1188 819.684 47.3897 819.684 L46.0847 819.684 L46.0847 825.509 M43.6657 813.828 L64.0042 813.828 L64.0042 819.684 L58.5933 819.684 Q61.8398 821.689 63.3994 824.681 Q64.9272 827.673 64.9272 832.002 Q64.9272 837.476 61.8716 840.723 Q58.7843 843.938 53.6281 843.938 Q47.6125 843.938 44.5569 839.927 Q41.5014 835.885 41.5014 827.896 L41.5014 819.684 L40.9285 819.684 Q36.8862 819.684 34.6901 822.358 Q32.4621 825 32.4621 829.806 Q32.4621 832.861 33.1941 835.758 Q33.9262 838.654 35.3903 841.328 L29.9795 841.328 Q28.7381 838.113 28.1334 835.089 Q27.4968 832.066 27.4968 829.201 Q27.4968 821.467 31.5072 817.647 Q35.5176 813.828 43.6657 813.828 Z" fill="#000000" fill-rule="nonzero" fill-opacity="1" /><path clip-path="url(#clip790)" d="M14.479 801.765 L14.479 795.908 L64.0042 795.908 L64.0042 801.765 L14.479 801.765 Z" fill="#000000" fill-rule="nonzero" fill-opacity="1" /><path clip-path="url(#clip790)" d="M28.3562 783.654 L28.3562 777.798 L64.0042 777.798 L64.0042 783.654 L28.3562 783.654 M14.479 783.654 L14.479 777.798 L21.895 777.798 L21.895 783.654 L14.479 783.654 Z" fill="#000000" fill-rule="nonzero" fill-opacity="1" /><path clip-path="url(#clip790)" d="M28.3562 768.09 L28.3562 740.272 L33.7034 740.272 L59.3254 762.297 L59.3254 740.272 L64.0042 740.272 L64.0042 768.886 L58.657 768.886 L33.035 746.861 L33.035 768.09 L28.3562 768.09 Z" fill="#000000" fill-rule="nonzero" fill-opacity="1" /><path clip-path="url(#clip790)" d="M44.7161 700.836 L47.5806 700.836 L47.5806 727.763 Q53.6281 727.381 56.8109 724.135 Q59.9619 720.857 59.9619 715.032 Q59.9619 711.658 59.1344 708.507 Q58.3069 705.324 56.6518 702.205 L62.1899 702.205 Q63.5267 705.356 64.227 708.666 Q64.9272 711.976 64.9272 715.382 Q64.9272 723.912 59.9619 728.909 Q54.9967 733.875 46.5303 733.875 Q37.7774 733.875 32.6531 729.164 Q27.4968 724.421 27.4968 716.401 Q27.4968 709.207 32.1438 705.038 Q36.7589 700.836 44.7161 700.836 M42.9973 706.693 Q38.1912 706.757 35.3266 709.398 Q32.4621 712.008 32.4621 716.337 Q32.4621 721.239 35.2312 724.199 Q38.0002 727.127 43.0292 727.572 L42.9973 706.693 Z" fill="#000000" fill-rule="nonzero" fill-opacity="1" /><path clip-path="url(#clip790)" d="M33.7671 667.767 L14.479 667.767 L14.479 661.91 L64.0042 661.91 L64.0042 667.767 L58.657 667.767 Q61.8398 669.613 63.3994 672.445 Q64.9272 675.246 64.9272 679.193 Q64.9272 685.654 59.771 689.728 Q54.6147 693.771 46.212 693.771 Q37.8093 693.771 32.6531 689.728 Q27.4968 685.654 27.4968 679.193 Q27.4968 675.246 29.0564 672.445 Q30.5842 669.613 33.7671 667.767 M46.212 687.723 Q52.6732 687.723 56.3653 685.081 Q60.0256 682.408 60.0256 677.761 Q60.0256 673.114 56.3653 670.44 Q52.6732 667.767 46.212 667.767 Q39.7508 667.767 36.0905 670.44 Q32.3984 673.114 32.3984 677.761 Q32.3984 682.408 36.0905 685.081 Q39.7508 687.723 46.212 687.723 Z" fill="#000000" fill-rule="nonzero" fill-opacity="1" /><path clip-path="url(#clip790)" d="M35.1993 601.372 Q31.2526 599.176 29.3747 596.121 Q27.4968 593.065 27.4968 588.927 Q27.4968 583.357 31.4117 580.334 Q35.2948 577.31 42.4881 577.31 L64.0042 577.31 L64.0042 583.198 L42.679 583.198 Q37.5546 583.198 35.072 585.012 Q32.5894 586.827 32.5894 590.551 Q32.5894 595.102 35.6131 597.744 Q38.6368 600.386 43.8567 600.386 L64.0042 600.386 L64.0042 606.274 L42.679 606.274 Q37.5228 606.274 35.072 608.088 Q32.5894 609.902 32.5894 613.69 Q32.5894 618.178 35.6449 620.82 Q38.6686 623.461 43.8567 623.461 L64.0042 623.461 L64.0042 629.35 L28.3562 629.35 L28.3562 623.461 L33.8944 623.461 Q30.616 621.456 29.0564 618.655 Q27.4968 615.854 27.4968 612.003 Q27.4968 608.12 29.4702 605.415 Q31.4436 602.677 35.1993 601.372 Z" fill="#000000" fill-rule="nonzero" fill-opacity="1" /><path clip-path="url(#clip790)" d="M46.0847 549.428 Q46.0847 556.526 47.7079 559.263 Q49.3312 562 53.2461 562 Q56.3653 562 58.2114 559.963 Q60.0256 557.895 60.0256 554.362 Q60.0256 549.492 56.5881 546.564 Q53.1188 543.604 47.3897 543.604 L46.0847 543.604 L46.0847 549.428 M43.6657 537.747 L64.0042 537.747 L64.0042 543.604 L58.5933 543.604 Q61.8398 545.609 63.3994 548.601 Q64.9272 551.593 64.9272 555.921 Q64.9272 561.396 61.8716 564.642 Q58.7843 567.857 53.6281 567.857 Q47.6125 567.857 44.5569 563.846 Q41.5014 559.804 41.5014 551.815 L41.5014 543.604 L40.9285 543.604 Q36.8862 543.604 34.6901 546.277 Q32.4621 548.919 32.4621 553.725 Q32.4621 556.781 33.1941 559.677 Q33.9262 562.573 35.3903 565.247 L29.9795 565.247 Q28.7381 562.032 28.1334 559.009 Q27.4968 555.985 27.4968 553.12 Q27.4968 545.386 31.5072 541.567 Q35.5176 537.747 43.6657 537.747 Z" fill="#000000" fill-rule="nonzero" fill-opacity="1" /><path clip-path="url(#clip790)" d="M18.2347 519.891 L28.3562 519.891 L28.3562 507.828 L32.9077 507.828 L32.9077 519.891 L52.2594 519.891 Q56.6199 519.891 57.8613 518.714 Q59.1026 517.504 59.1026 513.844 L59.1026 507.828 L64.0042 507.828 L64.0042 513.844 Q64.0042 520.623 61.4897 523.201 Q58.9434 525.78 52.2594 525.78 L32.9077 525.78 L32.9077 530.076 L28.3562 530.076 L28.3562 525.78 L18.2347 525.78 L18.2347 519.891 Z" fill="#000000" fill-rule="nonzero" fill-opacity="1" /><path clip-path="url(#clip790)" d="M29.7248 474.472 L35.1993 474.472 Q33.8307 476.955 33.1623 479.469 Q32.4621 481.952 32.4621 484.498 Q32.4621 490.195 36.0905 493.346 Q39.6872 496.497 46.212 496.497 Q52.7369 496.497 56.3653 493.346 Q59.9619 490.195 59.9619 484.498 Q59.9619 481.952 59.2935 479.469 Q58.5933 476.955 57.2247 474.472 L62.6355 474.472 Q63.7814 476.923 64.3543 479.565 Q64.9272 482.174 64.9272 485.135 Q64.9272 493.187 59.8664 497.93 Q54.8057 502.672 46.212 502.672 Q37.491 502.672 32.4939 497.898 Q27.4968 493.092 27.4968 484.753 Q27.4968 482.047 28.0697 479.469 Q28.6108 476.891 29.7248 474.472 Z" fill="#000000" fill-rule="nonzero" fill-opacity="1" /><path clip-path="url(#clip790)" d="M42.4881 434.654 L64.0042 434.654 L64.0042 440.511 L42.679 440.511 Q37.6183 440.511 35.1038 442.484 Q32.5894 444.458 32.5894 448.404 Q32.5894 453.147 35.6131 455.884 Q38.6368 458.621 43.8567 458.621 L64.0042 458.621 L64.0042 464.51 L14.479 464.51 L14.479 458.621 L33.8944 458.621 Q30.6797 456.521 29.0883 453.688 Q27.4968 450.823 27.4968 447.099 Q27.4968 440.957 31.3163 437.806 Q35.1038 434.654 42.4881 434.654 Z" fill="#000000" fill-rule="nonzero" fill-opacity="1" /><path clip-path="url(#clip790)" d="M44.7161 392.482 L47.5806 392.482 L47.5806 419.409 Q53.6281 419.027 56.8109 415.78 Q59.9619 412.502 59.9619 406.677 Q59.9619 403.303 59.1344 400.152 Q58.3069 396.969 56.6518 393.85 L62.1899 393.85 Q63.5267 397.001 64.227 400.311 Q64.9272 403.622 64.9272 407.027 Q64.9272 415.557 59.9619 420.554 Q54.9967 425.52 46.5303 425.52 Q37.7774 425.52 32.6531 420.809 Q27.4968 416.067 27.4968 408.046 Q27.4968 400.853 32.1438 396.683 Q36.7589 392.482 44.7161 392.482 M42.9973 398.338 Q38.1912 398.402 35.3266 401.044 Q32.4621 403.653 32.4621 407.982 Q32.4621 412.884 35.2312 415.844 Q38.0002 418.772 43.0292 419.218 L42.9973 398.338 Z" fill="#000000" fill-rule="nonzero" fill-opacity="1" /><path clip-path="url(#clip790)" d="M29.4065 360.144 L34.9447 360.144 Q33.6716 362.627 33.035 365.3 Q32.3984 367.974 32.3984 370.838 Q32.3984 375.199 33.7352 377.395 Q35.072 379.559 37.7456 379.559 Q39.7826 379.559 40.9603 378 Q42.1061 376.44 43.1565 371.729 L43.6021 369.724 Q44.9389 363.486 47.3897 360.876 Q49.8086 358.234 54.1691 358.234 Q59.1344 358.234 62.0308 362.181 Q64.9272 366.096 64.9272 372.971 Q64.9272 375.835 64.3543 378.955 Q63.8132 382.042 62.6992 385.479 L56.6518 385.479 Q58.3387 382.233 59.198 379.082 Q60.0256 375.931 60.0256 372.843 Q60.0256 368.706 58.6251 366.478 Q57.1929 364.25 54.6147 364.25 Q52.2276 364.25 50.9545 365.873 Q49.6813 367.464 48.5037 372.907 L48.0262 374.944 Q46.8804 380.387 44.5251 382.806 Q42.138 385.225 38.0002 385.225 Q32.9713 385.225 30.2341 381.66 Q27.4968 378.095 27.4968 371.538 Q27.4968 368.292 27.9743 365.427 Q28.4517 362.563 29.4065 360.144 Z" fill="#000000" fill-rule="nonzero" fill-opacity="1" /><path clip-path="url(#clip790)" d="M759.283 12.096 L797.524 12.096 L797.524 18.9825 L767.466 18.9825 L767.466 36.8875 L796.268 36.8875 L796.268 43.7741 L767.466 43.7741 L767.466 65.6895 L798.253 65.6895 L798.253 72.576 L759.283 72.576 L759.283 12.096 Z" fill="#000000" fill-rule="nonzero" fill-opacity="1" /><path clip-path="url(#clip790)" d="M834.347 9.54393 L834.347 15.7418 L827.217 15.7418 Q823.207 15.7418 821.627 17.3622 Q820.087 18.9825 820.087 23.1955 L820.087 27.2059 L832.362 27.2059 L832.362 32.9987 L820.087 32.9987 L820.087 72.576 L812.593 72.576 L812.593 32.9987 L805.464 32.9987 L805.464 27.2059 L812.593 27.2059 L812.593 24.0462 Q812.593 16.471 816.118 13.0277 Q819.642 9.54393 827.298 9.54393 L834.347 9.54393 Z" fill="#000000" fill-rule="nonzero" fill-opacity="1" /><path clip-path="url(#clip790)" d="M863.554 9.54393 L863.554 15.7418 L856.424 15.7418 Q852.414 15.7418 850.834 17.3622 Q849.294 18.9825 849.294 23.1955 L849.294 27.2059 L861.569 27.2059 L861.569 32.9987 L849.294 32.9987 L849.294 72.576 L841.8 72.576 L841.8 32.9987 L834.671 32.9987 L834.671 27.2059 L841.8 27.2059 L841.8 24.0462 Q841.8 16.471 845.325 13.0277 Q848.849 9.54393 856.505 9.54393 L863.554 9.54393 Z" fill="#000000" fill-rule="nonzero" fill-opacity="1" /><path clip-path="url(#clip790)" d="M869.792 27.2059 L877.246 27.2059 L877.246 72.576 L869.792 72.576 L869.792 27.2059 M869.792 9.54393 L877.246 9.54393 L877.246 18.9825 L869.792 18.9825 L869.792 9.54393 Z" fill="#000000" fill-rule="nonzero" fill-opacity="1" /><path clip-path="url(#clip790)" d="M925.492 28.9478 L925.492 35.9153 Q922.332 34.1734 919.132 33.3227 Q915.972 32.4315 912.732 32.4315 Q905.481 32.4315 901.47 37.0496 Q897.46 41.6271 897.46 49.9314 Q897.46 58.2358 901.47 62.8538 Q905.481 67.4314 912.732 67.4314 Q915.972 67.4314 919.132 66.5807 Q922.332 65.6895 925.492 63.9476 L925.492 70.8341 Q922.373 72.2924 919.011 73.0216 Q915.689 73.7508 911.921 73.7508 Q901.673 73.7508 895.637 67.3098 Q889.601 60.8689 889.601 49.9314 Q889.601 38.832 895.677 32.472 Q901.794 26.1121 912.408 26.1121 Q915.851 26.1121 919.132 26.8413 Q922.413 27.5299 925.492 28.9478 Z" fill="#000000" fill-rule="nonzero" fill-opacity="1" /><path clip-path="url(#clip790)" d="M938.455 27.2059 L945.909 27.2059 L945.909 72.576 L938.455 72.576 L938.455 27.2059 M938.455 9.54393 L945.909 9.54393 L945.909 18.9825 L938.455 18.9825 L938.455 9.54393 Z" fill="#000000" fill-rule="nonzero" fill-opacity="1" /><path clip-path="url(#clip790)" d="M1000.31 48.0275 L1000.31 51.6733 L966.042 51.6733 Q966.528 59.3701 970.66 63.421 Q974.832 67.4314 982.245 67.4314 Q986.539 67.4314 990.55 66.3781 Q994.6 65.3249 998.57 63.2184 L998.57 70.267 Q994.56 71.9684 990.347 72.8596 Q986.134 73.7508 981.8 73.7508 Q970.943 73.7508 964.583 67.4314 Q958.264 61.1119 958.264 50.3365 Q958.264 39.1965 964.259 32.6746 Q970.295 26.1121 980.503 26.1121 Q989.658 26.1121 994.965 32.0264 Q1000.31 37.9003 1000.31 48.0275 M992.859 45.84 Q992.778 39.7232 989.415 36.0774 Q986.094 32.4315 980.584 32.4315 Q974.346 32.4315 970.579 35.9558 Q966.852 39.4801 966.285 45.8805 L992.859 45.84 Z" fill="#000000" fill-rule="nonzero" fill-opacity="1" /><path clip-path="url(#clip790)" d="M1050.26 45.1919 L1050.26 72.576 L1042.81 72.576 L1042.81 45.4349 Q1042.81 38.994 1040.29 35.7938 Q1037.78 32.5936 1032.76 32.5936 Q1026.72 32.5936 1023.24 36.4419 Q1019.76 40.2903 1019.76 46.9338 L1019.76 72.576 L1012.26 72.576 L1012.26 27.2059 L1019.76 27.2059 L1019.76 34.2544 Q1022.43 30.163 1026.04 28.1376 Q1029.68 26.1121 1034.42 26.1121 Q1042.24 26.1121 1046.25 30.9732 Q1050.26 35.7938 1050.26 45.1919 Z" fill="#000000" fill-rule="nonzero" fill-opacity="1" /><path clip-path="url(#clip790)" d="M1097.78 28.9478 L1097.78 35.9153 Q1094.62 34.1734 1091.42 33.3227 Q1088.26 32.4315 1085.02 32.4315 Q1077.77 32.4315 1073.76 37.0496 Q1069.74 41.6271 1069.74 49.9314 Q1069.74 58.2358 1073.76 62.8538 Q1077.77 67.4314 1085.02 67.4314 Q1088.26 67.4314 1091.42 66.5807 Q1094.62 65.6895 1097.78 63.9476 L1097.78 70.8341 Q1094.66 72.2924 1091.3 73.0216 Q1087.97 73.7508 1084.21 73.7508 Q1073.96 73.7508 1067.92 67.3098 Q1061.89 60.8689 1061.89 49.9314 Q1061.89 38.832 1067.96 32.472 Q1074.08 26.1121 1084.69 26.1121 Q1088.14 26.1121 1091.42 26.8413 Q1094.7 27.5299 1097.78 28.9478 Z" fill="#000000" fill-rule="nonzero" fill-opacity="1" /><path clip-path="url(#clip790)" d="M1129.62 76.7889 Q1126.46 84.8907 1123.46 87.3618 Q1120.46 89.8329 1115.44 89.8329 L1109.48 89.8329 L1109.48 83.5945 L1113.86 83.5945 Q1116.94 83.5945 1118.64 82.1361 Q1120.34 80.6778 1122.41 75.2496 L1123.74 71.8468 L1105.39 27.2059 L1113.29 27.2059 L1127.47 62.6918 L1141.65 27.2059 L1149.55 27.2059 L1129.62 76.7889 Z" fill="#000000" fill-rule="nonzero" fill-opacity="1" /><path clip-path="url(#clip790)" d="M1193.42 65.7705 L1193.42 89.8329 L1185.92 89.8329 L1185.92 27.2059 L1193.42 27.2059 L1193.42 34.0924 Q1195.77 30.0415 1199.33 28.0971 Q1202.94 26.1121 1207.92 26.1121 Q1216.18 26.1121 1221.33 32.6746 Q1226.51 39.2371 1226.51 49.9314 Q1226.51 60.6258 1221.33 67.1883 Q1216.18 73.7508 1207.92 73.7508 Q1202.94 73.7508 1199.33 71.8063 Q1195.77 69.8214 1193.42 65.7705 M1218.78 49.9314 Q1218.78 41.7081 1215.37 37.0496 Q1212.01 32.3505 1206.1 32.3505 Q1200.18 32.3505 1196.78 37.0496 Q1193.42 41.7081 1193.42 49.9314 Q1193.42 58.1548 1196.78 62.8538 Q1200.18 67.5124 1206.1 67.5124 Q1212.01 67.5124 1215.37 62.8538 Q1218.78 58.1548 1218.78 49.9314 Z" fill="#000000" fill-rule="nonzero" fill-opacity="1" /><path clip-path="url(#clip790)" d="M1277.68 48.0275 L1277.68 51.6733 L1243.41 51.6733 Q1243.89 59.3701 1248.02 63.421 Q1252.2 67.4314 1259.61 67.4314 Q1263.9 67.4314 1267.91 66.3781 Q1271.97 65.3249 1275.94 63.2184 L1275.94 70.267 Q1271.93 71.9684 1267.71 72.8596 Q1263.5 73.7508 1259.16 73.7508 Q1248.31 73.7508 1241.95 67.4314 Q1235.63 61.1119 1235.63 50.3365 Q1235.63 39.1965 1241.62 32.6746 Q1247.66 26.1121 1257.87 26.1121 Q1267.02 26.1121 1272.33 32.0264 Q1277.68 37.9003 1277.68 48.0275 M1270.22 45.84 Q1270.14 39.7232 1266.78 36.0774 Q1263.46 32.4315 1257.95 32.4315 Q1251.71 32.4315 1247.94 35.9558 Q1244.22 39.4801 1243.65 45.8805 L1270.22 45.84 Z" fill="#000000" fill-rule="nonzero" fill-opacity="1" /><path clip-path="url(#clip790)" d="M1316.2 34.1734 Q1314.95 33.4443 1313.45 33.1202 Q1311.99 32.7556 1310.21 32.7556 Q1303.89 32.7556 1300.48 36.8875 Q1297.12 40.9789 1297.12 48.6757 L1297.12 72.576 L1289.63 72.576 L1289.63 27.2059 L1297.12 27.2059 L1297.12 34.2544 Q1299.47 30.1225 1303.24 28.1376 Q1307.01 26.1121 1312.39 26.1121 Q1313.16 26.1121 1314.1 26.2337 Q1315.03 26.3147 1316.16 26.5172 L1316.2 34.1734 Z" fill="#000000" fill-rule="nonzero" fill-opacity="1" /><path clip-path="url(#clip790)" d="M1379.31 28.5427 L1379.31 35.5912 Q1376.16 33.9709 1372.75 33.1607 Q1369.35 32.3505 1365.7 32.3505 Q1360.15 32.3505 1357.36 34.0519 Q1354.6 35.7533 1354.6 39.156 Q1354.6 41.7486 1356.59 43.2475 Q1358.57 44.7058 1364.57 46.0426 L1367.12 46.6097 Q1375.06 48.3111 1378.38 51.4303 Q1381.75 54.509 1381.75 60.0587 Q1381.75 66.3781 1376.72 70.0644 Q1371.74 73.7508 1362.99 73.7508 Q1359.34 73.7508 1355.37 73.0216 Q1351.44 72.3329 1347.07 70.9151 L1347.07 63.2184 Q1351.2 65.3654 1355.21 66.4591 Q1359.22 67.5124 1363.15 67.5124 Q1368.42 67.5124 1371.25 65.73 Q1374.09 63.9071 1374.09 60.6258 Q1374.09 57.5877 1372.02 55.9673 Q1370 54.3469 1363.07 52.8481 L1360.48 52.2405 Q1353.55 50.7821 1350.47 47.7845 Q1347.39 44.7463 1347.39 39.4801 Q1347.39 33.0797 1351.93 29.5959 Q1356.47 26.1121 1364.81 26.1121 Q1368.94 26.1121 1372.59 26.7198 Q1376.24 27.3274 1379.31 28.5427 Z" fill="#000000" fill-rule="nonzero" fill-opacity="1" /><path clip-path="url(#clip790)" d="M1426.26 28.9478 L1426.26 35.9153 Q1423.11 34.1734 1419.9 33.3227 Q1416.75 32.4315 1413.5 32.4315 Q1406.25 32.4315 1402.24 37.0496 Q1398.23 41.6271 1398.23 49.9314 Q1398.23 58.2358 1402.24 62.8538 Q1406.25 67.4314 1413.5 67.4314 Q1416.75 67.4314 1419.9 66.5807 Q1423.11 65.6895 1426.26 63.9476 L1426.26 70.8341 Q1423.15 72.2924 1419.78 73.0216 Q1416.46 73.7508 1412.69 73.7508 Q1402.45 73.7508 1396.41 67.3098 Q1390.37 60.8689 1390.37 49.9314 Q1390.37 38.832 1396.45 32.472 Q1402.57 26.1121 1413.18 26.1121 Q1416.62 26.1121 1419.9 26.8413 Q1423.19 27.5299 1426.26 28.9478 Z" fill="#000000" fill-rule="nonzero" fill-opacity="1" /><path clip-path="url(#clip790)" d="M1439.23 27.2059 L1446.68 27.2059 L1446.68 72.576 L1439.23 72.576 L1439.23 27.2059 M1439.23 9.54393 L1446.68 9.54393 L1446.68 18.9825 L1439.23 18.9825 L1439.23 9.54393 Z" fill="#000000" fill-rule="nonzero" fill-opacity="1" /><path clip-path="url(#clip790)" d="M1499.99 45.1919 L1499.99 72.576 L1492.54 72.576 L1492.54 45.4349 Q1492.54 38.994 1490.03 35.7938 Q1487.51 32.5936 1482.49 32.5936 Q1476.46 32.5936 1472.97 36.4419 Q1469.49 40.2903 1469.49 46.9338 L1469.49 72.576 L1461.99 72.576 L1461.99 27.2059 L1469.49 27.2059 L1469.49 34.2544 Q1472.16 30.163 1475.77 28.1376 Q1479.41 26.1121 1484.15 26.1121 Q1491.97 26.1121 1495.98 30.9732 Q1499.99 35.7938 1499.99 45.1919 Z" fill="#000000" fill-rule="nonzero" fill-opacity="1" /><path clip-path="url(#clip790)" d="M1522.23 14.324 L1522.23 27.2059 L1537.58 27.2059 L1537.58 32.9987 L1522.23 32.9987 L1522.23 57.6282 Q1522.23 63.1779 1523.73 64.7578 Q1525.27 66.3376 1529.93 66.3376 L1537.58 66.3376 L1537.58 72.576 L1529.93 72.576 Q1521.3 72.576 1518.02 69.3758 Q1514.74 66.1351 1514.74 57.6282 L1514.74 32.9987 L1509.27 32.9987 L1509.27 27.2059 L1514.74 27.2059 L1514.74 14.324 L1522.23 14.324 Z" fill="#000000" fill-rule="nonzero" fill-opacity="1" /><path clip-path="url(#clip790)" d="M1547.39 27.2059 L1554.84 27.2059 L1554.84 72.576 L1547.39 72.576 L1547.39 27.2059 M1547.39 9.54393 L1554.84 9.54393 L1554.84 18.9825 L1547.39 18.9825 L1547.39 9.54393 Z" fill="#000000" fill-rule="nonzero" fill-opacity="1" /><path clip-path="url(#clip790)" d="M1570.44 9.54393 L1577.89 9.54393 L1577.89 72.576 L1570.44 72.576 L1570.44 9.54393 Z" fill="#000000" fill-rule="nonzero" fill-opacity="1" /><path clip-path="url(#clip790)" d="M1593.49 9.54393 L1600.94 9.54393 L1600.94 72.576 L1593.49 72.576 L1593.49 9.54393 Z" fill="#000000" fill-rule="nonzero" fill-opacity="1" /><path clip-path="url(#clip790)" d="M1637.15 49.7694 Q1628.12 49.7694 1624.64 51.8354 Q1621.15 53.9013 1621.15 58.8839 Q1621.15 62.8538 1623.75 65.2034 Q1626.38 67.5124 1630.88 67.5124 Q1637.07 67.5124 1640.8 63.1374 Q1644.57 58.7219 1644.57 51.4303 L1644.57 49.7694 L1637.15 49.7694 M1652.02 46.6907 L1652.02 72.576 L1644.57 72.576 L1644.57 65.6895 Q1642.02 69.8214 1638.21 71.8063 Q1634.4 73.7508 1628.89 73.7508 Q1621.92 73.7508 1617.79 69.8619 Q1613.7 65.9325 1613.7 59.3701 Q1613.7 51.7138 1618.8 47.825 Q1623.95 43.9361 1634.12 43.9361 L1644.57 43.9361 L1644.57 43.2069 Q1644.57 38.0623 1641.17 35.2672 Q1637.8 32.4315 1631.69 32.4315 Q1627.8 32.4315 1624.11 33.3632 Q1620.42 34.295 1617.02 36.1584 L1617.02 29.2718 Q1621.11 27.692 1624.96 26.9223 Q1628.81 26.1121 1632.46 26.1121 Q1642.3 26.1121 1647.16 31.2163 Q1652.02 36.3204 1652.02 46.6907 Z" fill="#000000" fill-rule="nonzero" fill-opacity="1" /><path clip-path="url(#clip790)" d="M1674.75 14.324 L1674.75 27.2059 L1690.1 27.2059 L1690.1 32.9987 L1674.75 32.9987 L1674.75 57.6282 Q1674.75 63.1779 1676.25 64.7578 Q1677.79 66.3376 1682.44 66.3376 L1690.1 66.3376 L1690.1 72.576 L1682.44 72.576 Q1673.82 72.576 1670.53 69.3758 Q1667.25 66.1351 1667.25 57.6282 L1667.25 32.9987 L1661.78 32.9987 L1661.78 27.2059 L1667.25 27.2059 L1667.25 14.324 L1674.75 14.324 Z" fill="#000000" fill-rule="nonzero" fill-opacity="1" /><path clip-path="url(#clip790)" d="M1717.48 32.4315 Q1711.49 32.4315 1708.01 37.1306 Q1704.52 41.7891 1704.52 49.9314 Q1704.52 58.0738 1707.96 62.7728 Q1711.45 67.4314 1717.48 67.4314 Q1723.44 67.4314 1726.92 62.7323 Q1730.41 58.0333 1730.41 49.9314 Q1730.41 41.8701 1726.92 37.1711 Q1723.44 32.4315 1717.48 32.4315 M1717.48 26.1121 Q1727.21 26.1121 1732.76 32.4315 Q1738.31 38.7509 1738.31 49.9314 Q1738.31 61.0714 1732.76 67.4314 Q1727.21 73.7508 1717.48 73.7508 Q1707.72 73.7508 1702.17 67.4314 Q1696.66 61.0714 1696.66 49.9314 Q1696.66 38.7509 1702.17 32.4315 Q1707.72 26.1121 1717.48 26.1121 Z" fill="#000000" fill-rule="nonzero" fill-opacity="1" /><path clip-path="url(#clip790)" d="M1776.95 34.1734 Q1775.7 33.4443 1774.2 33.1202 Q1772.74 32.7556 1770.96 32.7556 Q1764.64 32.7556 1761.23 36.8875 Q1757.87 40.9789 1757.87 48.6757 L1757.87 72.576 L1750.38 72.576 L1750.38 27.2059 L1757.87 27.2059 L1757.87 34.2544 Q1760.22 30.1225 1763.99 28.1376 Q1767.76 26.1121 1773.14 26.1121 Q1773.91 26.1121 1774.85 26.2337 Q1775.78 26.3147 1776.91 26.5172 L1776.95 34.1734 Z" fill="#000000" fill-rule="nonzero" fill-opacity="1" /><path clip-path="url(#clip790)" d="M1818.35 65.7705 L1818.35 89.8329 L1810.86 89.8329 L1810.86 27.2059 L1818.35 27.2059 L1818.35 34.0924 Q1820.7 30.0415 1824.27 28.0971 Q1827.87 26.1121 1832.85 26.1121 Q1841.12 26.1121 1846.26 32.6746 Q1851.45 39.2371 1851.45 49.9314 Q1851.45 60.6258 1846.26 67.1883 Q1841.12 73.7508 1832.85 73.7508 Q1827.87 73.7508 1824.27 71.8063 Q1820.7 69.8214 1818.35 65.7705 M1843.71 49.9314 Q1843.71 41.7081 1840.31 37.0496 Q1836.95 32.3505 1831.03 32.3505 Q1825.12 32.3505 1821.71 37.0496 Q1818.35 41.7081 1818.35 49.9314 Q1818.35 58.1548 1821.71 62.8538 Q1825.12 67.5124 1831.03 67.5124 Q1836.95 67.5124 1840.31 62.8538 Q1843.71 58.1548 1843.71 49.9314 Z" fill="#000000" fill-rule="nonzero" fill-opacity="1" /><path clip-path="url(#clip790)" d="M1884.42 49.7694 Q1875.39 49.7694 1871.9 51.8354 Q1868.42 53.9013 1868.42 58.8839 Q1868.42 62.8538 1871.01 65.2034 Q1873.65 67.5124 1878.14 67.5124 Q1884.34 67.5124 1888.07 63.1374 Q1891.84 58.7219 1891.84 51.4303 L1891.84 49.7694 L1884.42 49.7694 M1899.29 46.6907 L1899.29 72.576 L1891.84 72.576 L1891.84 65.6895 Q1889.28 69.8214 1885.48 71.8063 Q1881.67 73.7508 1876.16 73.7508 Q1869.19 73.7508 1865.06 69.8619 Q1860.97 65.9325 1860.97 59.3701 Q1860.97 51.7138 1866.07 47.825 Q1871.22 43.9361 1881.38 43.9361 L1891.84 43.9361 L1891.84 43.2069 Q1891.84 38.0623 1888.43 35.2672 Q1885.07 32.4315 1878.95 32.4315 Q1875.06 32.4315 1871.38 33.3632 Q1867.69 34.295 1864.29 36.1584 L1864.29 29.2718 Q1868.38 27.692 1872.23 26.9223 Q1876.08 26.1121 1879.72 26.1121 Q1889.57 26.1121 1894.43 31.2163 Q1899.29 36.3204 1899.29 46.6907 Z" fill="#000000" fill-rule="nonzero" fill-opacity="1" /><path clip-path="url(#clip790)" d="M1914.64 27.2059 L1922.1 27.2059 L1922.1 72.576 L1914.64 72.576 L1914.64 27.2059 M1914.64 9.54393 L1922.1 9.54393 L1922.1 18.9825 L1914.64 18.9825 L1914.64 9.54393 Z" fill="#000000" fill-rule="nonzero" fill-opacity="1" /><path clip-path="url(#clip790)" d="M1963.98 34.1734 Q1962.73 33.4443 1961.23 33.1202 Q1959.77 32.7556 1957.99 32.7556 Q1951.67 32.7556 1948.26 36.8875 Q1944.9 40.9789 1944.9 48.6757 L1944.9 72.576 L1937.41 72.576 L1937.41 27.2059 L1944.9 27.2059 L1944.9 34.2544 Q1947.25 30.1225 1951.02 28.1376 Q1954.79 26.1121 1960.17 26.1121 Q1960.94 26.1121 1961.88 26.2337 Q1962.81 26.3147 1963.94 26.5172 L1963.98 34.1734 Z" fill="#000000" fill-rule="nonzero" fill-opacity="1" /><polyline clip-path="url(#clip792)" style="stroke:#009af9; stroke-linecap:round; stroke-linejoin:round; stroke-width:4; stroke-opacity:1; fill:none" points="426.611,1386.4 486.935,1336.36 547.259,1329.69 607.583,1298.84 667.907,1273.55 728.231,1211.95 788.555,1194.79 848.879,1201.5 909.203,1126.68 969.527,1063.68 1029.85,1074.79 1090.17,953.527 1150.5,940.411 1210.82,906.752 1271.15,929.168 1331.47,823.846 1391.79,772.64 1452.12,777.276 1512.44,642.277 1572.77,649.744 1633.09,625.793 1693.41,477.986 1753.74,586.943 1814.06,420.831 1874.39,551.799 1934.71,505.815 1995.03,438.909 2055.36,408.062 2115.68,277.409 2176.01,334.29 2236.33,288.613 2296.65,160.256 "/>
<path clip-path="url(#clip790)" d="M436.584 270.476 L687.239 270.476 L687.239 166.796 L436.584 166.796  Z" fill="#ffffff" fill-rule="evenodd" fill-opacity="1"/>
<polyline clip-path="url(#clip790)" style="stroke:#000000; stroke-linecap:round; stroke-linejoin:round; stroke-width:4; stroke-opacity:1; fill:none" points="436.584,270.476 687.239,270.476 687.239,166.796 436.584,166.796 436.584,270.476 "/>
<polyline clip-path="url(#clip790)" style="stroke:#009af9; stroke-linecap:round; stroke-linejoin:round; stroke-width:4; stroke-opacity:1; fill:none" points="458.609,218.636 590.759,218.636 "/>
<path clip-path="url(#clip790)" d="M626.626 238.323 Q624.821 242.953 623.108 244.365 Q621.395 245.777 618.525 245.777 L615.122 245.777 L615.122 242.212 L617.622 242.212 Q619.381 242.212 620.353 241.379 Q621.325 240.545 622.506 237.443 L623.27 235.499 L612.784 209.99 L617.298 209.99 L625.4 230.268 L633.501 209.99 L638.015 209.99 L626.626 238.323 Z" fill="#000000" fill-rule="nonzero" fill-opacity="1" /><path clip-path="url(#clip790)" d="M645.307 231.981 L652.946 231.981 L652.946 205.615 L644.636 207.282 L644.636 203.022 L652.899 201.356 L657.575 201.356 L657.575 231.981 L665.214 231.981 L665.214 235.916 L645.307 235.916 L645.307 231.981 Z" fill="#000000" fill-rule="nonzero" fill-opacity="1" /></svg>
