<?xml version="1.0" encoding="utf-8"?>
<svg xmlns="http://www.w3.org/2000/svg" xmlns:xlink="http://www.w3.org/1999/xlink" width="600" height="400" viewBox="0 0 2400 1600">
<defs>
  <clipPath id="clip850">
    <rect x="0" y="0" width="2400" height="1600"/>
  </clipPath>
</defs>
<path clip-path="url(#clip850)" d="M0 1600 L2400 1600 L2400 0 L0 0  Z" fill="#ffffff" fill-rule="evenodd" fill-opacity="1"/>
<defs>
  <clipPath id="clip851">
    <rect x="480" y="0" width="1681" height="1600"/>
  </clipPath>
</defs>
<path clip-path="url(#clip850)" d="M428.81 1423.18 L2352.76 1423.18 L2352.76 123.472 L428.81 123.472  Z" fill="#ffffff" fill-rule="evenodd" fill-opacity="1"/>
<defs>
  <clipPath id="clip852">
    <rect x="428" y="123" width="1925" height="1301"/>
  </clipPath>
</defs>
<polyline clip-path="url(#clip852)" style="stroke:#000000; stroke-linecap:round; stroke-linejoin:round; stroke-width:2; stroke-opacity:0.1; fill:none" points="684.933,1423.18 684.933,123.472 "/>
<polyline clip-path="url(#clip852)" style="stroke:#000000; stroke-linecap:round; stroke-linejoin:round; stroke-width:2; stroke-opacity:0.1; fill:none" points="1088.28,1423.18 1088.28,123.472 "/>
<polyline clip-path="url(#clip852)" style="stroke:#000000; stroke-linecap:round; stroke-linejoin:round; stroke-width:2; stroke-opacity:0.1; fill:none" points="1491.62,1423.18 1491.62,123.472 "/>
<polyline clip-path="url(#clip852)" style="stroke:#000000; stroke-linecap:round; stroke-linejoin:round; stroke-width:2; stroke-opacity:0.1; fill:none" points="1894.96,1423.18 1894.96,123.472 "/>
<polyline clip-path="url(#clip852)" style="stroke:#000000; stroke-linecap:round; stroke-linejoin:round; stroke-width:2; stroke-opacity:0.1; fill:none" points="2298.3,1423.18 2298.3,123.472 "/>
<polyline clip-path="url(#clip852)" style="stroke:#000000; stroke-linecap:round; stroke-linejoin:round; stroke-width:2; stroke-opacity:0.1; fill:none" points="428.81,1306.08 2352.76,1306.08 "/>
<polyline clip-path="url(#clip852)" style="stroke:#000000; stroke-linecap:round; stroke-linejoin:round; stroke-width:2; stroke-opacity:0.1; fill:none" points="428.81,1122.15 2352.76,1122.15 "/>
<polyline clip-path="url(#clip852)" style="stroke:#000000; stroke-linecap:round; stroke-linejoin:round; stroke-width:2; stroke-opacity:0.1; fill:none" points="428.81,938.219 2352.76,938.219 "/>
<polyline clip-path="url(#clip852)" style="stroke:#000000; stroke-linecap:round; stroke-linejoin:round; stroke-width:2; stroke-opacity:0.1; fill:none" points="428.81,754.289 2352.76,754.289 "/>
<polyline clip-path="url(#clip852)" style="stroke:#000000; stroke-linecap:round; stroke-linejoin:round; stroke-width:2; stroke-opacity:0.1; fill:none" points="428.81,570.359 2352.76,570.359 "/>
<polyline clip-path="url(#clip852)" style="stroke:#000000; stroke-linecap:round; stroke-linejoin:round; stroke-width:2; stroke-opacity:0.1; fill:none" points="428.81,386.429 2352.76,386.429 "/>
<polyline clip-path="url(#clip852)" style="stroke:#000000; stroke-linecap:round; stroke-linejoin:round; stroke-width:2; stroke-opacity:0.1; fill:none" points="428.81,202.499 2352.76,202.499 "/>
<polyline clip-path="url(#clip850)" style="stroke:#000000; stroke-linecap:round; stroke-linejoin:round; stroke-width:4; stroke-opacity:1; fill:none" points="428.81,1423.18 2352.76,1423.18 "/>
<polyline clip-path="url(#clip850)" style="stroke:#000000; stroke-linecap:round; stroke-linejoin:round; stroke-width:4; stroke-opacity:1; fill:none" points="684.933,1423.18 684.933,1404.28 "/>
<polyline clip-path="url(#clip850)" style="stroke:#000000; stroke-linecap:round; stroke-linejoin:round; stroke-width:4; stroke-opacity:1; fill:none" points="1088.28,1423.18 1088.28,1404.28 "/>
<polyline clip-path="url(#clip850)" style="stroke:#000000; stroke-linecap:round; stroke-linejoin:round; stroke-width:4; stroke-opacity:1; fill:none" points="1491.62,1423.18 1491.62,1404.28 "/>
<polyline clip-path="url(#clip850)" style="stroke:#000000; stroke-linecap:round; stroke-linejoin:round; stroke-width:4; stroke-opacity:1; fill:none" points="1894.96,1423.18 1894.96,1404.28 "/>
<polyline clip-path="url(#clip850)" style="stroke:#000000; stroke-linecap:round; stroke-linejoin:round; stroke-width:4; stroke-opacity:1; fill:none" points="2298.3,1423.18 2298.3,1404.28 "/>
<path clip-path="url(#clip850)" d="M679.586 1481.64 L695.905 1481.64 L695.905 1485.58 L673.961 1485.58 L673.961 1481.64 Q676.623 1478.89 681.206 1474.26 Q685.813 1469.61 686.993 1468.27 Q689.239 1465.74 690.118 1464.01 Q691.021 1462.25 691.021 1460.56 Q691.021 1457.8 689.077 1456.07 Q687.155 1454.33 684.054 1454.33 Q681.854 1454.33 679.401 1455.09 Q676.97 1455.86 674.192 1457.41 L674.192 1452.69 Q677.017 1451.55 679.47 1450.97 Q681.924 1450.39 683.961 1450.39 Q689.331 1450.39 692.526 1453.08 Q695.72 1455.77 695.72 1460.26 Q695.72 1462.39 694.91 1464.31 Q694.123 1466.2 692.016 1468.8 Q691.438 1469.47 688.336 1472.69 Q685.234 1475.88 679.586 1481.64 Z" fill="#000000" fill-rule="nonzero" fill-opacity="1" /><path clip-path="url(#clip850)" d="M1091.29 1455.09 L1079.48 1473.54 L1091.29 1473.54 L1091.29 1455.09 M1090.06 1451.02 L1095.94 1451.02 L1095.94 1473.54 L1100.87 1473.54 L1100.87 1477.43 L1095.94 1477.43 L1095.94 1485.58 L1091.29 1485.58 L1091.29 1477.43 L1075.68 1477.43 L1075.68 1472.92 L1090.06 1451.02 Z" fill="#000000" fill-rule="nonzero" fill-opacity="1" /><path clip-path="url(#clip850)" d="M1492.02 1466.44 Q1488.88 1466.44 1487.02 1468.59 Q1485.2 1470.74 1485.2 1474.49 Q1485.2 1478.22 1487.02 1480.39 Q1488.88 1482.55 1492.02 1482.55 Q1495.17 1482.55 1497 1480.39 Q1498.85 1478.22 1498.85 1474.49 Q1498.85 1470.74 1497 1468.59 Q1495.17 1466.44 1492.02 1466.44 M1501.31 1451.78 L1501.31 1456.04 Q1499.55 1455.21 1497.74 1454.77 Q1495.96 1454.33 1494.2 1454.33 Q1489.57 1454.33 1487.12 1457.45 Q1484.69 1460.58 1484.34 1466.9 Q1485.7 1464.89 1487.76 1463.82 Q1489.82 1462.73 1492.3 1462.73 Q1497.51 1462.73 1500.52 1465.9 Q1503.55 1469.05 1503.55 1474.49 Q1503.55 1479.82 1500.4 1483.03 Q1497.26 1486.25 1492.02 1486.25 Q1486.03 1486.25 1482.86 1481.67 Q1479.69 1477.06 1479.69 1468.33 Q1479.69 1460.14 1483.57 1455.28 Q1487.46 1450.39 1494.01 1450.39 Q1495.77 1450.39 1497.56 1450.74 Q1499.36 1451.09 1501.31 1451.78 Z" fill="#000000" fill-rule="nonzero" fill-opacity="1" /><path clip-path="url(#clip850)" d="M1894.96 1469.17 Q1891.63 1469.17 1889.71 1470.95 Q1887.81 1472.73 1887.81 1475.86 Q1887.81 1478.98 1889.71 1480.77 Q1891.63 1482.55 1894.96 1482.55 Q1898.3 1482.55 1900.22 1480.77 Q1902.14 1478.96 1902.14 1475.86 Q1902.14 1472.73 1900.22 1470.95 Q1898.32 1469.17 1894.96 1469.17 M1890.29 1467.18 Q1887.28 1466.44 1885.59 1464.38 Q1883.92 1462.32 1883.92 1459.35 Q1883.92 1455.21 1886.86 1452.8 Q1889.82 1450.39 1894.96 1450.39 Q1900.12 1450.39 1903.06 1452.8 Q1906 1455.21 1906 1459.35 Q1906 1462.32 1904.31 1464.38 Q1902.65 1466.44 1899.66 1467.18 Q1903.04 1467.96 1904.92 1470.26 Q1906.81 1472.55 1906.81 1475.86 Q1906.81 1480.88 1903.73 1483.57 Q1900.68 1486.25 1894.96 1486.25 Q1889.24 1486.25 1886.17 1483.57 Q1883.11 1480.88 1883.11 1475.86 Q1883.11 1472.55 1885.01 1470.26 Q1886.91 1467.96 1890.29 1467.18 M1888.57 1459.79 Q1888.57 1462.48 1890.24 1463.98 Q1891.93 1465.49 1894.96 1465.49 Q1897.97 1465.49 1899.66 1463.98 Q1901.37 1462.48 1901.37 1459.79 Q1901.37 1457.11 1899.66 1455.6 Q1897.97 1454.1 1894.96 1454.1 Q1891.93 1454.1 1890.24 1455.6 Q1888.57 1457.11 1888.57 1459.79 Z" fill="#000000" fill-rule="nonzero" fill-opacity="1" /><path clip-path="url(#clip850)" d="M2272.99 1481.64 L2280.63 1481.64 L2280.63 1455.28 L2272.32 1456.95 L2272.32 1452.69 L2280.58 1451.02 L2285.26 1451.02 L2285.26 1481.64 L2292.9 1481.64 L2292.9 1485.58 L2272.99 1485.58 L2272.99 1481.64 Z" fill="#000000" fill-rule="nonzero" fill-opacity="1" /><path clip-path="url(#clip850)" d="M2312.34 1454.1 Q2308.73 1454.1 2306.9 1457.66 Q2305.1 1461.2 2305.1 1468.33 Q2305.1 1475.44 2306.9 1479.01 Q2308.73 1482.55 2312.34 1482.55 Q2315.98 1482.55 2317.78 1479.01 Q2319.61 1475.44 2319.61 1468.33 Q2319.61 1461.2 2317.78 1457.66 Q2315.98 1454.1 2312.34 1454.1 M2312.34 1450.39 Q2318.15 1450.39 2321.21 1455 Q2324.29 1459.58 2324.29 1468.33 Q2324.29 1477.06 2321.21 1481.67 Q2318.15 1486.25 2312.34 1486.25 Q2306.53 1486.25 2303.46 1481.67 Q2300.4 1477.06 2300.4 1468.33 Q2300.4 1459.58 2303.46 1455 Q2306.53 1450.39 2312.34 1450.39 Z" fill="#000000" fill-rule="nonzero" fill-opacity="1" /><path clip-path="url(#clip850)" d="M1160.3 1522.08 L1160.3 1528.35 Q1156.64 1526.6 1153.39 1525.74 Q1150.14 1524.88 1147.12 1524.88 Q1141.87 1524.88 1139 1526.92 Q1136.17 1528.96 1136.17 1532.71 Q1136.17 1535.87 1138.05 1537.49 Q1139.96 1539.08 1145.24 1540.07 L1149.13 1540.86 Q1156.32 1542.23 1159.72 1545.7 Q1163.16 1549.14 1163.16 1554.93 Q1163.16 1561.84 1158.51 1565.4 Q1153.9 1568.97 1144.96 1568.97 Q1141.58 1568.97 1137.76 1568.2 Q1133.97 1567.44 1129.9 1565.94 L1129.9 1559.32 Q1133.82 1561.52 1137.57 1562.63 Q1141.33 1563.75 1144.96 1563.75 Q1150.46 1563.75 1153.45 1561.58 Q1156.45 1559.42 1156.45 1555.41 Q1156.45 1551.91 1154.28 1549.93 Q1152.15 1547.96 1147.25 1546.97 L1143.33 1546.21 Q1136.14 1544.78 1132.92 1541.72 Q1129.71 1538.67 1129.71 1533.22 Q1129.71 1526.92 1134.13 1523.29 Q1138.59 1519.66 1146.39 1519.66 Q1149.73 1519.66 1153.2 1520.27 Q1156.67 1520.87 1160.3 1522.08 Z" fill="#000000" fill-rule="nonzero" fill-opacity="1" /><path clip-path="url(#clip850)" d="M1198.59 1533.76 L1198.59 1539.24 Q1196.1 1537.87 1193.59 1537.2 Q1191.11 1536.5 1188.56 1536.5 Q1182.86 1536.5 1179.71 1540.13 Q1176.56 1543.73 1176.56 1550.25 Q1176.56 1556.78 1179.71 1560.4 Q1182.86 1564 1188.56 1564 Q1191.11 1564 1193.59 1563.33 Q1196.1 1562.63 1198.59 1561.26 L1198.59 1566.68 Q1196.14 1567.82 1193.49 1568.39 Q1190.88 1568.97 1187.92 1568.97 Q1179.87 1568.97 1175.13 1563.91 Q1170.39 1558.85 1170.39 1550.25 Q1170.39 1541.53 1175.16 1536.53 Q1179.97 1531.54 1188.31 1531.54 Q1191.01 1531.54 1193.59 1532.11 Q1196.17 1532.65 1198.59 1533.76 Z" fill="#000000" fill-rule="nonzero" fill-opacity="1" /><path clip-path="url(#clip850)" d="M1208.77 1532.4 L1214.63 1532.4 L1214.63 1568.04 L1208.77 1568.04 L1208.77 1532.4 M1208.77 1518.52 L1214.63 1518.52 L1214.63 1525.93 L1208.77 1525.93 L1208.77 1518.52 Z" fill="#000000" fill-rule="nonzero" fill-opacity="1" /><path clip-path="url(#clip850)" d="M1256.51 1546.53 L1256.51 1568.04 L1250.66 1568.04 L1250.66 1546.72 Q1250.66 1541.66 1248.68 1539.14 Q1246.71 1536.63 1242.76 1536.63 Q1238.02 1536.63 1235.28 1539.65 Q1232.55 1542.68 1232.55 1547.9 L1232.55 1568.04 L1226.66 1568.04 L1226.66 1532.4 L1232.55 1532.4 L1232.55 1537.93 Q1234.65 1534.72 1237.48 1533.13 Q1240.35 1531.54 1244.07 1531.54 Q1250.21 1531.54 1253.36 1535.36 Q1256.51 1539.14 1256.51 1546.53 Z" fill="#000000" fill-rule="nonzero" fill-opacity="1" /><path clip-path="url(#clip850)" d="M1273.99 1522.27 L1273.99 1532.4 L1286.05 1532.4 L1286.05 1536.95 L1273.99 1536.95 L1273.99 1556.3 Q1273.99 1560.66 1275.17 1561.9 Q1276.38 1563.14 1280.04 1563.14 L1286.05 1563.14 L1286.05 1568.04 L1280.04 1568.04 Q1273.26 1568.04 1270.68 1565.53 Q1268.1 1562.98 1268.1 1556.3 L1268.1 1536.95 L1263.8 1536.95 L1263.8 1532.4 L1268.1 1532.4 L1268.1 1522.27 L1273.99 1522.27 Z" fill="#000000" fill-rule="nonzero" fill-opacity="1" /><path clip-path="url(#clip850)" d="M1293.75 1532.4 L1299.61 1532.4 L1299.61 1568.04 L1293.75 1568.04 L1293.75 1532.4 M1293.75 1518.52 L1299.61 1518.52 L1299.61 1525.93 L1293.75 1525.93 L1293.75 1518.52 Z" fill="#000000" fill-rule="nonzero" fill-opacity="1" /><path clip-path="url(#clip850)" d="M1311.86 1518.52 L1317.72 1518.52 L1317.72 1568.04 L1311.86 1568.04 L1311.86 1518.52 Z" fill="#000000" fill-rule="nonzero" fill-opacity="1" /><path clip-path="url(#clip850)" d="M1329.97 1518.52 L1335.83 1518.52 L1335.83 1568.04 L1329.97 1568.04 L1329.97 1518.52 Z" fill="#000000" fill-rule="nonzero" fill-opacity="1" /><path clip-path="url(#clip850)" d="M1364.29 1550.12 Q1357.19 1550.12 1354.45 1551.75 Q1351.71 1553.37 1351.71 1557.29 Q1351.71 1560.4 1353.75 1562.25 Q1355.82 1564.07 1359.35 1564.07 Q1364.22 1564.07 1367.15 1560.63 Q1370.11 1557.16 1370.11 1551.43 L1370.11 1550.12 L1364.29 1550.12 M1375.97 1547.71 L1375.97 1568.04 L1370.11 1568.04 L1370.11 1562.63 Q1368.11 1565.88 1365.11 1567.44 Q1362.12 1568.97 1357.79 1568.97 Q1352.32 1568.97 1349.07 1565.91 Q1345.86 1562.82 1345.86 1557.67 Q1345.86 1551.65 1349.87 1548.6 Q1353.91 1545.54 1361.9 1545.54 L1370.11 1545.54 L1370.11 1544.97 Q1370.11 1540.93 1367.44 1538.73 Q1364.8 1536.5 1359.99 1536.5 Q1356.93 1536.5 1354.04 1537.23 Q1351.14 1537.97 1348.47 1539.43 L1348.47 1534.02 Q1351.68 1532.78 1354.71 1532.17 Q1357.73 1531.54 1360.59 1531.54 Q1368.33 1531.54 1372.15 1535.55 Q1375.97 1539.56 1375.97 1547.71 Z" fill="#000000" fill-rule="nonzero" fill-opacity="1" /><path clip-path="url(#clip850)" d="M1393.82 1522.27 L1393.82 1532.4 L1405.89 1532.4 L1405.89 1536.95 L1393.82 1536.95 L1393.82 1556.3 Q1393.82 1560.66 1395 1561.9 Q1396.21 1563.14 1399.87 1563.14 L1405.89 1563.14 L1405.89 1568.04 L1399.87 1568.04 Q1393.09 1568.04 1390.51 1565.53 Q1387.93 1562.98 1387.93 1556.3 L1387.93 1536.95 L1383.64 1536.95 L1383.64 1532.4 L1387.93 1532.4 L1387.93 1522.27 L1393.82 1522.27 Z" fill="#000000" fill-rule="nonzero" fill-opacity="1" /><path clip-path="url(#clip850)" d="M1427.4 1536.5 Q1422.69 1536.5 1419.95 1540.19 Q1417.22 1543.85 1417.22 1550.25 Q1417.22 1556.65 1419.92 1560.34 Q1422.66 1564 1427.4 1564 Q1432.08 1564 1434.82 1560.31 Q1437.56 1556.62 1437.56 1550.25 Q1437.56 1543.92 1434.82 1540.23 Q1432.08 1536.5 1427.4 1536.5 M1427.4 1531.54 Q1435.04 1531.54 1439.4 1536.5 Q1443.76 1541.47 1443.76 1550.25 Q1443.76 1559 1439.4 1564 Q1435.04 1568.97 1427.4 1568.97 Q1419.73 1568.97 1415.37 1564 Q1411.04 1559 1411.04 1550.25 Q1411.04 1541.47 1415.37 1536.5 Q1419.73 1531.54 1427.4 1531.54 Z" fill="#000000" fill-rule="nonzero" fill-opacity="1" /><path clip-path="url(#clip850)" d="M1474.13 1537.87 Q1473.14 1537.3 1471.96 1537.04 Q1470.82 1536.76 1469.42 1536.76 Q1464.45 1536.76 1461.78 1540 Q1459.13 1543.22 1459.13 1549.27 L1459.13 1568.04 L1453.25 1568.04 L1453.25 1532.4 L1459.13 1532.4 L1459.13 1537.93 Q1460.98 1534.69 1463.94 1533.13 Q1466.9 1531.54 1471.13 1531.54 Q1471.74 1531.54 1472.47 1531.63 Q1473.2 1531.7 1474.09 1531.85 L1474.13 1537.87 Z" fill="#000000" fill-rule="nonzero" fill-opacity="1" /><path clip-path="url(#clip850)" d="M1506.65 1562.7 L1506.65 1581.6 L1500.77 1581.6 L1500.77 1532.4 L1506.65 1532.4 L1506.65 1537.81 Q1508.5 1534.62 1511.3 1533.1 Q1514.13 1531.54 1518.05 1531.54 Q1524.54 1531.54 1528.58 1536.69 Q1532.66 1541.85 1532.66 1550.25 Q1532.66 1558.65 1528.58 1563.81 Q1524.54 1568.97 1518.05 1568.97 Q1514.13 1568.97 1511.3 1567.44 Q1508.5 1565.88 1506.65 1562.7 M1526.58 1550.25 Q1526.58 1543.79 1523.91 1540.13 Q1521.26 1536.44 1516.62 1536.44 Q1511.97 1536.44 1509.3 1540.13 Q1506.65 1543.79 1506.65 1550.25 Q1506.65 1556.71 1509.3 1560.4 Q1511.97 1564.07 1516.62 1564.07 Q1521.26 1564.07 1523.91 1560.4 Q1526.58 1556.71 1526.58 1550.25 Z" fill="#000000" fill-rule="nonzero" fill-opacity="1" /><path clip-path="url(#clip850)" d="M1558.57 1550.12 Q1551.47 1550.12 1548.73 1551.75 Q1546 1553.37 1546 1557.29 Q1546 1560.4 1548.03 1562.25 Q1550.1 1564.07 1553.63 1564.07 Q1558.5 1564.07 1561.43 1560.63 Q1564.39 1557.16 1564.39 1551.43 L1564.39 1550.12 L1558.57 1550.12 M1570.25 1547.71 L1570.25 1568.04 L1564.39 1568.04 L1564.39 1562.63 Q1562.39 1565.88 1559.39 1567.44 Q1556.4 1568.97 1552.07 1568.97 Q1546.6 1568.97 1543.35 1565.91 Q1540.14 1562.82 1540.14 1557.67 Q1540.14 1551.65 1544.15 1548.6 Q1548.19 1545.54 1556.18 1545.54 L1564.39 1545.54 L1564.39 1544.97 Q1564.39 1540.93 1561.72 1538.73 Q1559.08 1536.5 1554.27 1536.5 Q1551.21 1536.5 1548.32 1537.23 Q1545.42 1537.97 1542.75 1539.43 L1542.75 1534.02 Q1545.96 1532.78 1548.99 1532.17 Q1552.01 1531.54 1554.88 1531.54 Q1562.61 1531.54 1566.43 1535.55 Q1570.25 1539.56 1570.25 1547.71 Z" fill="#000000" fill-rule="nonzero" fill-opacity="1" /><path clip-path="url(#clip850)" d="M1582.31 1532.4 L1588.17 1532.4 L1588.17 1568.04 L1582.31 1568.04 L1582.31 1532.4 M1582.31 1518.52 L1588.17 1518.52 L1588.17 1525.93 L1582.31 1525.93 L1582.31 1518.52 Z" fill="#000000" fill-rule="nonzero" fill-opacity="1" /><path clip-path="url(#clip850)" d="M1621.08 1537.87 Q1620.09 1537.3 1618.91 1537.04 Q1617.77 1536.76 1616.37 1536.76 Q1611.4 1536.76 1608.73 1540 Q1606.09 1543.22 1606.09 1549.27 L1606.09 1568.04 L1600.2 1568.04 L1600.2 1532.4 L1606.09 1532.4 L1606.09 1537.93 Q1607.93 1534.69 1610.89 1533.13 Q1613.85 1531.54 1618.09 1531.54 Q1618.69 1531.54 1619.42 1531.63 Q1620.16 1531.7 1621.05 1531.85 L1621.08 1537.87 Z" fill="#000000" fill-rule="nonzero" fill-opacity="1" /><path clip-path="url(#clip850)" d="M1649.95 1533.45 L1649.95 1538.98 Q1647.46 1537.71 1644.79 1537.07 Q1642.12 1536.44 1639.25 1536.44 Q1634.89 1536.44 1632.7 1537.77 Q1630.53 1539.11 1630.53 1541.79 Q1630.53 1543.82 1632.09 1545 Q1633.65 1546.15 1638.36 1547.2 L1640.37 1547.64 Q1646.61 1548.98 1649.21 1551.43 Q1651.86 1553.85 1651.86 1558.21 Q1651.86 1563.17 1647.91 1566.07 Q1644 1568.97 1637.12 1568.97 Q1634.26 1568.97 1631.14 1568.39 Q1628.05 1567.85 1624.61 1566.74 L1624.61 1560.69 Q1627.86 1562.38 1631.01 1563.24 Q1634.16 1564.07 1637.25 1564.07 Q1641.39 1564.07 1643.61 1562.66 Q1645.84 1561.23 1645.84 1558.65 Q1645.84 1556.27 1644.22 1554.99 Q1642.63 1553.72 1637.18 1552.54 L1635.15 1552.07 Q1629.7 1550.92 1627.29 1548.56 Q1624.87 1546.18 1624.87 1542.04 Q1624.87 1537.01 1628.43 1534.27 Q1632 1531.54 1638.55 1531.54 Q1641.8 1531.54 1644.66 1532.01 Q1647.53 1532.49 1649.95 1533.45 Z" fill="#000000" fill-rule="nonzero" fill-opacity="1" /><polyline clip-path="url(#clip850)" style="stroke:#000000; stroke-linecap:round; stroke-linejoin:round; stroke-width:4; stroke-opacity:1; fill:none" points="428.81,1423.18 428.81,123.472 "/>
<polyline clip-path="url(#clip850)" style="stroke:#000000; stroke-linecap:round; stroke-linejoin:round; stroke-width:4; stroke-opacity:1; fill:none" points="428.81,1306.08 447.708,1306.08 "/>
<polyline clip-path="url(#clip850)" style="stroke:#000000; stroke-linecap:round; stroke-linejoin:round; stroke-width:4; stroke-opacity:1; fill:none" points="428.81,1122.15 447.708,1122.15 "/>
<polyline clip-path="url(#clip850)" style="stroke:#000000; stroke-linecap:round; stroke-linejoin:round; stroke-width:4; stroke-opacity:1; fill:none" points="428.81,938.219 447.708,938.219 "/>
<polyline clip-path="url(#clip850)" style="stroke:#000000; stroke-linecap:round; stroke-linejoin:round; stroke-width:4; stroke-opacity:1; fill:none" points="428.81,754.289 447.708,754.289 "/>
<polyline clip-path="url(#clip850)" style="stroke:#000000; stroke-linecap:round; stroke-linejoin:round; stroke-width:4; stroke-opacity:1; fill:none" points="428.81,570.359 447.708,570.359 "/>
<polyline clip-path="url(#clip850)" style="stroke:#000000; stroke-linecap:round; stroke-linejoin:round; stroke-width:4; stroke-opacity:1; fill:none" points="428.81,386.429 447.708,386.429 "/>
<polyline clip-path="url(#clip850)" style="stroke:#000000; stroke-linecap:round; stroke-linejoin:round; stroke-width:4; stroke-opacity:1; fill:none" points="428.81,202.499 447.708,202.499 "/>
<path clip-path="url(#clip850)" d="M119.885 1325.87 L136.204 1325.87 L136.204 1329.81 L114.26 1329.81 L114.26 1325.87 Q116.922 1323.12 121.505 1318.49 Q126.112 1313.83 127.292 1312.49 Q129.538 1309.97 130.417 1308.23 Q131.32 1306.47 131.32 1304.78 Q131.32 1302.03 129.376 1300.29 Q127.455 1298.56 124.353 1298.56 Q122.154 1298.56 119.7 1299.32 Q117.269 1300.09 114.492 1301.64 L114.492 1296.91 Q117.316 1295.78 119.769 1295.2 Q122.223 1294.62 124.26 1294.62 Q129.63 1294.62 132.825 1297.31 Q136.019 1299.99 136.019 1304.48 Q136.019 1306.61 135.209 1308.53 Q134.422 1310.43 132.316 1313.02 Q131.737 1313.7 128.635 1316.91 Q125.533 1320.11 119.885 1325.87 Z" fill="#000000" fill-rule="nonzero" fill-opacity="1" /><path clip-path="url(#clip850)" d="M146.019 1323.93 L150.903 1323.93 L150.903 1329.81 L146.019 1329.81 L146.019 1323.93 Z" fill="#000000" fill-rule="nonzero" fill-opacity="1" /><path clip-path="url(#clip850)" d="M161.135 1295.25 L179.491 1295.25 L179.491 1299.18 L165.417 1299.18 L165.417 1307.65 Q166.436 1307.31 167.454 1307.15 Q168.473 1306.96 169.491 1306.96 Q175.278 1306.96 178.658 1310.13 Q182.038 1313.3 182.038 1318.72 Q182.038 1324.3 178.565 1327.4 Q175.093 1330.48 168.774 1330.48 Q166.598 1330.48 164.329 1330.11 Q162.084 1329.74 159.677 1329 L159.677 1324.3 Q161.76 1325.43 163.982 1325.99 Q166.204 1326.54 168.681 1326.54 Q172.686 1326.54 175.024 1324.44 Q177.362 1322.33 177.362 1318.72 Q177.362 1315.11 175.024 1313 Q172.686 1310.9 168.681 1310.9 Q166.806 1310.9 164.931 1311.31 Q163.079 1311.73 161.135 1312.61 L161.135 1295.25 Z" fill="#000000" fill-rule="nonzero" fill-opacity="1" /><path clip-path="url(#clip850)" d="M201.25 1298.33 Q197.639 1298.33 195.811 1301.89 Q194.005 1305.43 194.005 1312.56 Q194.005 1319.67 195.811 1323.23 Q197.639 1326.77 201.25 1326.77 Q204.885 1326.77 206.69 1323.23 Q208.519 1319.67 208.519 1312.56 Q208.519 1305.43 206.69 1301.89 Q204.885 1298.33 201.25 1298.33 M201.25 1294.62 Q207.061 1294.62 210.116 1299.23 Q213.195 1303.81 213.195 1312.56 Q213.195 1321.29 210.116 1325.9 Q207.061 1330.48 201.25 1330.48 Q195.44 1330.48 192.362 1325.9 Q189.306 1321.29 189.306 1312.56 Q189.306 1303.81 192.362 1299.23 Q195.44 1294.62 201.25 1294.62 Z" fill="#000000" fill-rule="nonzero" fill-opacity="1" /><path clip-path="url(#clip850)" d="M231.412 1298.33 Q227.801 1298.33 225.973 1301.89 Q224.167 1305.43 224.167 1312.56 Q224.167 1319.67 225.973 1323.23 Q227.801 1326.77 231.412 1326.77 Q235.047 1326.77 236.852 1323.23 Q238.681 1319.67 238.681 1312.56 Q238.681 1305.43 236.852 1301.89 Q235.047 1298.33 231.412 1298.33 M231.412 1294.62 Q237.222 1294.62 240.278 1299.23 Q243.357 1303.81 243.357 1312.56 Q243.357 1321.29 240.278 1325.9 Q237.222 1330.48 231.412 1330.48 Q225.602 1330.48 222.523 1325.9 Q219.468 1321.29 219.468 1312.56 Q219.468 1303.81 222.523 1299.23 Q225.602 1294.62 231.412 1294.62 Z" fill="#000000" fill-rule="nonzero" fill-opacity="1" /><path clip-path="url(#clip850)" d="M279.745 1304.34 L269.167 1314.97 L279.745 1325.55 L276.991 1328.35 L266.366 1317.72 L255.741 1328.35 L253.009 1325.55 L263.565 1314.97 L253.009 1304.34 L255.741 1301.54 L266.366 1312.17 L276.991 1301.54 L279.745 1304.34 Z" fill="#000000" fill-rule="nonzero" fill-opacity="1" /><path clip-path="url(#clip850)" d="M292.106 1325.87 L299.745 1325.87 L299.745 1299.51 L291.435 1301.17 L291.435 1296.91 L299.699 1295.25 L304.375 1295.25 L304.375 1325.87 L312.014 1325.87 L312.014 1329.81 L292.106 1329.81 L292.106 1325.87 Z" fill="#000000" fill-rule="nonzero" fill-opacity="1" /><path clip-path="url(#clip850)" d="M331.458 1298.33 Q327.847 1298.33 326.018 1301.89 Q324.213 1305.43 324.213 1312.56 Q324.213 1319.67 326.018 1323.23 Q327.847 1326.77 331.458 1326.77 Q335.092 1326.77 336.898 1323.23 Q338.727 1319.67 338.727 1312.56 Q338.727 1305.43 336.898 1301.89 Q335.092 1298.33 331.458 1298.33 M331.458 1294.62 Q337.268 1294.62 340.324 1299.23 Q343.402 1303.81 343.402 1312.56 Q343.402 1321.29 340.324 1325.9 Q337.268 1330.48 331.458 1330.48 Q325.648 1330.48 322.569 1325.9 Q319.514 1321.29 319.514 1312.56 Q319.514 1303.81 322.569 1299.23 Q325.648 1294.62 331.458 1294.62 Z" fill="#000000" fill-rule="nonzero" fill-opacity="1" /><path clip-path="url(#clip850)" d="M343.402 1288.72 L367.514 1288.72 L367.514 1291.92 L343.402 1291.92 L343.402 1288.72 Z" fill="#000000" fill-rule="nonzero" fill-opacity="1" /><path clip-path="url(#clip850)" d="M374.755 1274.32 L392.81 1274.32 L392.81 1275.93 L382.617 1302.4 L378.648 1302.4 L388.24 1277.51 L374.755 1277.51 L374.755 1274.32 Z" fill="#000000" fill-rule="nonzero" fill-opacity="1" /><path clip-path="url(#clip850)" d="M115.904 1111.32 L134.26 1111.32 L134.26 1115.25 L120.186 1115.25 L120.186 1123.72 Q121.205 1123.38 122.223 1123.22 Q123.242 1123.03 124.26 1123.03 Q130.047 1123.03 133.427 1126.2 Q136.806 1129.37 136.806 1134.79 Q136.806 1140.37 133.334 1143.47 Q129.862 1146.55 123.543 1146.55 Q121.367 1146.55 119.098 1146.18 Q116.853 1145.81 114.445 1145.07 L114.445 1140.37 Q116.529 1141.5 118.751 1142.06 Q120.973 1142.61 123.45 1142.61 Q127.455 1142.61 129.792 1140.51 Q132.13 1138.4 132.13 1134.79 Q132.13 1131.18 129.792 1129.07 Q127.455 1126.97 123.45 1126.97 Q121.575 1126.97 119.7 1127.38 Q117.848 1127.8 115.904 1128.68 L115.904 1111.32 Z" fill="#000000" fill-rule="nonzero" fill-opacity="1" /><path clip-path="url(#clip850)" d="M146.019 1140 L150.903 1140 L150.903 1145.88 L146.019 1145.88 L146.019 1140 Z" fill="#000000" fill-rule="nonzero" fill-opacity="1" /><path clip-path="url(#clip850)" d="M171.089 1114.4 Q167.477 1114.4 165.649 1117.96 Q163.843 1121.5 163.843 1128.63 Q163.843 1135.74 165.649 1139.3 Q167.477 1142.84 171.089 1142.84 Q174.723 1142.84 176.528 1139.3 Q178.357 1135.74 178.357 1128.63 Q178.357 1121.5 176.528 1117.96 Q174.723 1114.4 171.089 1114.4 M171.089 1110.69 Q176.899 1110.69 179.954 1115.3 Q183.033 1119.88 183.033 1128.63 Q183.033 1137.36 179.954 1141.97 Q176.899 1146.55 171.089 1146.55 Q165.278 1146.55 162.2 1141.97 Q159.144 1137.36 159.144 1128.63 Q159.144 1119.88 162.2 1115.3 Q165.278 1110.69 171.089 1110.69 Z" fill="#000000" fill-rule="nonzero" fill-opacity="1" /><path clip-path="url(#clip850)" d="M201.25 1114.4 Q197.639 1114.4 195.811 1117.96 Q194.005 1121.5 194.005 1128.63 Q194.005 1135.74 195.811 1139.3 Q197.639 1142.84 201.25 1142.84 Q204.885 1142.84 206.69 1139.3 Q208.519 1135.74 208.519 1128.63 Q208.519 1121.5 206.69 1117.96 Q204.885 1114.4 201.25 1114.4 M201.25 1110.69 Q207.061 1110.69 210.116 1115.3 Q213.195 1119.88 213.195 1128.63 Q213.195 1137.36 210.116 1141.97 Q207.061 1146.55 201.25 1146.55 Q195.44 1146.55 192.362 1141.97 Q189.306 1137.36 189.306 1128.63 Q189.306 1119.88 192.362 1115.3 Q195.44 1110.69 201.25 1110.69 Z" fill="#000000" fill-rule="nonzero" fill-opacity="1" /><path clip-path="url(#clip850)" d="M231.412 1114.4 Q227.801 1114.4 225.973 1117.96 Q224.167 1121.5 224.167 1128.63 Q224.167 1135.74 225.973 1139.3 Q227.801 1142.84 231.412 1142.84 Q235.047 1142.84 236.852 1139.3 Q238.681 1135.74 238.681 1128.63 Q238.681 1121.5 236.852 1117.96 Q235.047 1114.4 231.412 1114.4 M231.412 1110.69 Q237.222 1110.69 240.278 1115.3 Q243.357 1119.88 243.357 1128.63 Q243.357 1137.36 240.278 1141.97 Q237.222 1146.55 231.412 1146.55 Q225.602 1146.55 222.523 1141.97 Q219.468 1137.36 219.468 1128.63 Q219.468 1119.88 222.523 1115.3 Q225.602 1110.69 231.412 1110.69 Z" fill="#000000" fill-rule="nonzero" fill-opacity="1" /><path clip-path="url(#clip850)" d="M279.745 1120.41 L269.167 1131.04 L279.745 1141.62 L276.991 1144.42 L266.366 1133.79 L255.741 1144.42 L253.009 1141.62 L263.565 1131.04 L253.009 1120.41 L255.741 1117.61 L266.366 1128.24 L276.991 1117.61 L279.745 1120.41 Z" fill="#000000" fill-rule="nonzero" fill-opacity="1" /><path clip-path="url(#clip850)" d="M292.106 1141.94 L299.745 1141.94 L299.745 1115.58 L291.435 1117.24 L291.435 1112.98 L299.699 1111.32 L304.375 1111.32 L304.375 1141.94 L312.014 1141.94 L312.014 1145.88 L292.106 1145.88 L292.106 1141.94 Z" fill="#000000" fill-rule="nonzero" fill-opacity="1" /><path clip-path="url(#clip850)" d="M331.458 1114.4 Q327.847 1114.4 326.018 1117.96 Q324.213 1121.5 324.213 1128.63 Q324.213 1135.74 326.018 1139.3 Q327.847 1142.84 331.458 1142.84 Q335.092 1142.84 336.898 1139.3 Q338.727 1135.74 338.727 1128.63 Q338.727 1121.5 336.898 1117.96 Q335.092 1114.4 331.458 1114.4 M331.458 1110.69 Q337.268 1110.69 340.324 1115.3 Q343.402 1119.88 343.402 1128.63 Q343.402 1137.36 340.324 1141.97 Q337.268 1146.55 331.458 1146.55 Q325.648 1146.55 322.569 1141.97 Q319.514 1137.36 319.514 1128.63 Q319.514 1119.88 322.569 1115.3 Q325.648 1110.69 331.458 1110.69 Z" fill="#000000" fill-rule="nonzero" fill-opacity="1" /><path clip-path="url(#clip850)" d="M343.402 1104.79 L367.514 1104.79 L367.514 1107.99 L343.402 1107.99 L343.402 1104.79 Z" fill="#000000" fill-rule="nonzero" fill-opacity="1" /><path clip-path="url(#clip850)" d="M374.755 1090.39 L392.81 1090.39 L392.81 1092 L382.617 1118.47 L378.648 1118.47 L388.24 1093.58 L374.755 1093.58 L374.755 1090.39 Z" fill="#000000" fill-rule="nonzero" fill-opacity="1" /><path clip-path="url(#clip850)" d="M114.677 927.387 L136.899 927.387 L136.899 929.378 L124.353 961.947 L119.468 961.947 L131.274 931.322 L114.677 931.322 L114.677 927.387 Z" fill="#000000" fill-rule="nonzero" fill-opacity="1" /><path clip-path="url(#clip850)" d="M146.019 956.067 L150.903 956.067 L150.903 961.947 L146.019 961.947 L146.019 956.067 Z" fill="#000000" fill-rule="nonzero" fill-opacity="1" /><path clip-path="url(#clip850)" d="M161.135 927.387 L179.491 927.387 L179.491 931.322 L165.417 931.322 L165.417 939.794 Q166.436 939.447 167.454 939.285 Q168.473 939.1 169.491 939.1 Q175.278 939.1 178.658 942.271 Q182.038 945.442 182.038 950.859 Q182.038 956.438 178.565 959.54 Q175.093 962.618 168.774 962.618 Q166.598 962.618 164.329 962.248 Q162.084 961.877 159.677 961.137 L159.677 956.438 Q161.76 957.572 163.982 958.127 Q166.204 958.683 168.681 958.683 Q172.686 958.683 175.024 956.577 Q177.362 954.47 177.362 950.859 Q177.362 947.248 175.024 945.141 Q172.686 943.035 168.681 943.035 Q166.806 943.035 164.931 943.452 Q163.079 943.868 161.135 944.748 L161.135 927.387 Z" fill="#000000" fill-rule="nonzero" fill-opacity="1" /><path clip-path="url(#clip850)" d="M201.25 930.466 Q197.639 930.466 195.811 934.03 Q194.005 937.572 194.005 944.702 Q194.005 951.808 195.811 955.373 Q197.639 958.915 201.25 958.915 Q204.885 958.915 206.69 955.373 Q208.519 951.808 208.519 944.702 Q208.519 937.572 206.69 934.03 Q204.885 930.466 201.25 930.466 M201.25 926.762 Q207.061 926.762 210.116 931.368 Q213.195 935.952 213.195 944.702 Q213.195 953.428 210.116 958.035 Q207.061 962.618 201.25 962.618 Q195.44 962.618 192.362 958.035 Q189.306 953.428 189.306 944.702 Q189.306 935.952 192.362 931.368 Q195.44 926.762 201.25 926.762 Z" fill="#000000" fill-rule="nonzero" fill-opacity="1" /><path clip-path="url(#clip850)" d="M231.412 930.466 Q227.801 930.466 225.973 934.03 Q224.167 937.572 224.167 944.702 Q224.167 951.808 225.973 955.373 Q227.801 958.915 231.412 958.915 Q235.047 958.915 236.852 955.373 Q238.681 951.808 238.681 944.702 Q238.681 937.572 236.852 934.03 Q235.047 930.466 231.412 930.466 M231.412 926.762 Q237.222 926.762 240.278 931.368 Q243.357 935.952 243.357 944.702 Q243.357 953.428 240.278 958.035 Q237.222 962.618 231.412 962.618 Q225.602 962.618 222.523 958.035 Q219.468 953.428 219.468 944.702 Q219.468 935.952 222.523 931.368 Q225.602 926.762 231.412 926.762 Z" fill="#000000" fill-rule="nonzero" fill-opacity="1" /><path clip-path="url(#clip850)" d="M279.745 936.484 L269.167 947.109 L279.745 957.688 L276.991 960.489 L266.366 949.864 L255.741 960.489 L253.009 957.688 L263.565 947.109 L253.009 936.484 L255.741 933.683 L266.366 944.308 L276.991 933.683 L279.745 936.484 Z" fill="#000000" fill-rule="nonzero" fill-opacity="1" /><path clip-path="url(#clip850)" d="M292.106 958.012 L299.745 958.012 L299.745 931.646 L291.435 933.313 L291.435 929.054 L299.699 927.387 L304.375 927.387 L304.375 958.012 L312.014 958.012 L312.014 961.947 L292.106 961.947 L292.106 958.012 Z" fill="#000000" fill-rule="nonzero" fill-opacity="1" /><path clip-path="url(#clip850)" d="M331.458 930.466 Q327.847 930.466 326.018 934.03 Q324.213 937.572 324.213 944.702 Q324.213 951.808 326.018 955.373 Q327.847 958.915 331.458 958.915 Q335.092 958.915 336.898 955.373 Q338.727 951.808 338.727 944.702 Q338.727 937.572 336.898 934.03 Q335.092 930.466 331.458 930.466 M331.458 926.762 Q337.268 926.762 340.324 931.368 Q343.402 935.952 343.402 944.702 Q343.402 953.428 340.324 958.035 Q337.268 962.618 331.458 962.618 Q325.648 962.618 322.569 958.035 Q319.514 953.428 319.514 944.702 Q319.514 935.952 322.569 931.368 Q325.648 926.762 331.458 926.762 Z" fill="#000000" fill-rule="nonzero" fill-opacity="1" /><path clip-path="url(#clip850)" d="M343.402 920.863 L367.514 920.863 L367.514 924.061 L343.402 924.061 L343.402 920.863 Z" fill="#000000" fill-rule="nonzero" fill-opacity="1" /><path clip-path="url(#clip850)" d="M374.755 906.457 L392.81 906.457 L392.81 908.074 L382.617 934.537 L378.648 934.537 L388.24 909.654 L374.755 909.654 L374.755 906.457 Z" fill="#000000" fill-rule="nonzero" fill-opacity="1" /><path clip-path="url(#clip850)" d="M115.802 774.082 L123.441 774.082 L123.441 747.716 L115.131 749.383 L115.131 745.123 L123.395 743.457 L128.071 743.457 L128.071 774.082 L135.71 774.082 L135.71 778.017 L115.802 778.017 L115.802 774.082 Z" fill="#000000" fill-rule="nonzero" fill-opacity="1" /><path clip-path="url(#clip850)" d="M145.154 772.137 L150.038 772.137 L150.038 778.017 L145.154 778.017 L145.154 772.137 Z" fill="#000000" fill-rule="nonzero" fill-opacity="1" /><path clip-path="url(#clip850)" d="M170.223 746.536 Q166.612 746.536 164.784 750.1 Q162.978 753.642 162.978 760.772 Q162.978 767.878 164.784 771.443 Q166.612 774.984 170.223 774.984 Q173.858 774.984 175.663 771.443 Q177.492 767.878 177.492 760.772 Q177.492 753.642 175.663 750.1 Q173.858 746.536 170.223 746.536 M170.223 742.832 Q176.034 742.832 179.089 747.438 Q182.168 752.022 182.168 760.772 Q182.168 769.498 179.089 774.105 Q176.034 778.688 170.223 778.688 Q164.413 778.688 161.335 774.105 Q158.279 769.498 158.279 760.772 Q158.279 752.022 161.335 747.438 Q164.413 742.832 170.223 742.832 Z" fill="#000000" fill-rule="nonzero" fill-opacity="1" /><path clip-path="url(#clip850)" d="M200.385 746.536 Q196.774 746.536 194.945 750.1 Q193.14 753.642 193.14 760.772 Q193.14 767.878 194.945 771.443 Q196.774 774.984 200.385 774.984 Q204.02 774.984 205.825 771.443 Q207.654 767.878 207.654 760.772 Q207.654 753.642 205.825 750.1 Q204.02 746.536 200.385 746.536 M200.385 742.832 Q206.195 742.832 209.251 747.438 Q212.33 752.022 212.33 760.772 Q212.33 769.498 209.251 774.105 Q206.195 778.688 200.385 778.688 Q194.575 778.688 191.496 774.105 Q188.441 769.498 188.441 760.772 Q188.441 752.022 191.496 747.438 Q194.575 742.832 200.385 742.832 Z" fill="#000000" fill-rule="nonzero" fill-opacity="1" /><path clip-path="url(#clip850)" d="M230.547 746.536 Q226.936 746.536 225.107 750.1 Q223.302 753.642 223.302 760.772 Q223.302 767.878 225.107 771.443 Q226.936 774.984 230.547 774.984 Q234.181 774.984 235.987 771.443 Q237.816 767.878 237.816 760.772 Q237.816 753.642 235.987 750.1 Q234.181 746.536 230.547 746.536 M230.547 742.832 Q236.357 742.832 239.413 747.438 Q242.492 752.022 242.492 760.772 Q242.492 769.498 239.413 774.105 Q236.357 778.688 230.547 778.688 Q224.737 778.688 221.658 774.105 Q218.603 769.498 218.603 760.772 Q218.603 752.022 221.658 747.438 Q224.737 742.832 230.547 742.832 Z" fill="#000000" fill-rule="nonzero" fill-opacity="1" /><path clip-path="url(#clip850)" d="M278.88 752.554 L268.302 763.179 L278.88 773.758 L276.126 776.558 L265.501 765.934 L254.876 776.558 L252.144 773.758 L262.7 763.179 L252.144 752.554 L254.876 749.753 L265.501 760.378 L276.126 749.753 L278.88 752.554 Z" fill="#000000" fill-rule="nonzero" fill-opacity="1" /><path clip-path="url(#clip850)" d="M291.241 774.082 L298.88 774.082 L298.88 747.716 L290.57 749.383 L290.57 745.123 L298.834 743.457 L303.51 743.457 L303.51 774.082 L311.149 774.082 L311.149 778.017 L291.241 778.017 L291.241 774.082 Z" fill="#000000" fill-rule="nonzero" fill-opacity="1" /><path clip-path="url(#clip850)" d="M330.593 746.536 Q326.982 746.536 325.153 750.1 Q323.348 753.642 323.348 760.772 Q323.348 767.878 325.153 771.443 Q326.982 774.984 330.593 774.984 Q334.227 774.984 336.033 771.443 Q337.861 767.878 337.861 760.772 Q337.861 753.642 336.033 750.1 Q334.227 746.536 330.593 746.536 M330.593 742.832 Q336.403 742.832 339.459 747.438 Q342.537 752.022 342.537 760.772 Q342.537 769.498 339.459 774.105 Q336.403 778.688 330.593 778.688 Q324.783 778.688 321.704 774.105 Q318.649 769.498 318.649 760.772 Q318.649 752.022 321.704 747.438 Q324.783 742.832 330.593 742.832 Z" fill="#000000" fill-rule="nonzero" fill-opacity="1" /><path clip-path="url(#clip850)" d="M342.537 736.933 L366.649 736.933 L366.649 740.13 L342.537 740.13 L342.537 736.933 Z" fill="#000000" fill-rule="nonzero" fill-opacity="1" /><path clip-path="url(#clip850)" d="M383.444 735.052 Q380.886 735.052 379.382 736.802 Q377.896 738.551 377.896 741.597 Q377.896 744.626 379.382 746.393 Q380.886 748.143 383.444 748.143 Q386.002 748.143 387.488 746.393 Q388.992 744.626 388.992 741.597 Q388.992 738.551 387.488 736.802 Q386.002 735.052 383.444 735.052 M390.986 723.147 L390.986 726.608 Q389.557 725.931 388.09 725.573 Q386.642 725.216 385.212 725.216 Q381.451 725.216 379.457 727.755 Q377.482 730.294 377.2 735.429 Q378.31 733.792 379.984 732.927 Q381.657 732.043 383.67 732.043 Q387.902 732.043 390.347 734.62 Q392.81 737.178 392.81 741.597 Q392.81 745.923 390.253 748.538 Q387.695 751.152 383.444 751.152 Q378.573 751.152 375.996 747.428 Q373.42 743.685 373.42 736.595 Q373.42 729.937 376.579 725.987 Q379.739 722.019 385.062 722.019 Q386.491 722.019 387.939 722.301 Q389.406 722.583 390.986 723.147 Z" fill="#000000" fill-rule="nonzero" fill-opacity="1" /><path clip-path="url(#clip850)" d="M115.802 590.152 L123.441 590.152 L123.441 563.786 L115.131 565.453 L115.131 561.193 L123.395 559.527 L128.071 559.527 L128.071 590.152 L135.71 590.152 L135.71 594.087 L115.802 594.087 L115.802 590.152 Z" fill="#000000" fill-rule="nonzero" fill-opacity="1" /><path clip-path="url(#clip850)" d="M145.154 588.207 L150.038 588.207 L150.038 594.087 L145.154 594.087 L145.154 588.207 Z" fill="#000000" fill-rule="nonzero" fill-opacity="1" /><path clip-path="url(#clip850)" d="M164.251 590.152 L180.571 590.152 L180.571 594.087 L158.626 594.087 L158.626 590.152 Q161.288 587.397 165.872 582.767 Q170.478 578.115 171.659 576.772 Q173.904 574.249 174.784 572.513 Q175.686 570.754 175.686 569.064 Q175.686 566.309 173.742 564.573 Q171.821 562.837 168.719 562.837 Q166.52 562.837 164.066 563.601 Q161.635 564.365 158.858 565.916 L158.858 561.193 Q161.682 560.059 164.135 559.48 Q166.589 558.902 168.626 558.902 Q173.997 558.902 177.191 561.587 Q180.385 564.272 180.385 568.763 Q180.385 570.892 179.575 572.814 Q178.788 574.712 176.682 577.304 Q176.103 577.976 173.001 581.193 Q169.899 584.388 164.251 590.152 Z" fill="#000000" fill-rule="nonzero" fill-opacity="1" /><path clip-path="url(#clip850)" d="M190.432 559.527 L208.788 559.527 L208.788 563.462 L194.714 563.462 L194.714 571.934 Q195.733 571.587 196.751 571.425 Q197.77 571.24 198.788 571.24 Q204.575 571.24 207.955 574.411 Q211.334 577.582 211.334 582.999 Q211.334 588.577 207.862 591.679 Q204.39 594.758 198.07 594.758 Q195.895 594.758 193.626 594.388 Q191.381 594.017 188.973 593.277 L188.973 588.577 Q191.057 589.712 193.279 590.267 Q195.501 590.823 197.978 590.823 Q201.982 590.823 204.32 588.716 Q206.658 586.61 206.658 582.999 Q206.658 579.388 204.32 577.281 Q201.982 575.175 197.978 575.175 Q196.103 575.175 194.228 575.591 Q192.376 576.008 190.432 576.888 L190.432 559.527 Z" fill="#000000" fill-rule="nonzero" fill-opacity="1" /><path clip-path="url(#clip850)" d="M230.547 562.605 Q226.936 562.605 225.107 566.17 Q223.302 569.712 223.302 576.841 Q223.302 583.948 225.107 587.513 Q226.936 591.054 230.547 591.054 Q234.181 591.054 235.987 587.513 Q237.816 583.948 237.816 576.841 Q237.816 569.712 235.987 566.17 Q234.181 562.605 230.547 562.605 M230.547 558.902 Q236.357 558.902 239.413 563.508 Q242.492 568.091 242.492 576.841 Q242.492 585.568 239.413 590.175 Q236.357 594.758 230.547 594.758 Q224.737 594.758 221.658 590.175 Q218.603 585.568 218.603 576.841 Q218.603 568.091 221.658 563.508 Q224.737 558.902 230.547 558.902 Z" fill="#000000" fill-rule="nonzero" fill-opacity="1" /><path clip-path="url(#clip850)" d="M278.88 568.624 L268.302 579.249 L278.88 589.827 L276.126 592.628 L265.501 582.003 L254.876 592.628 L252.144 589.827 L262.7 579.249 L252.144 568.624 L254.876 565.823 L265.501 576.448 L276.126 565.823 L278.88 568.624 Z" fill="#000000" fill-rule="nonzero" fill-opacity="1" /><path clip-path="url(#clip850)" d="M291.241 590.152 L298.88 590.152 L298.88 563.786 L290.57 565.453 L290.57 561.193 L298.834 559.527 L303.51 559.527 L303.51 590.152 L311.149 590.152 L311.149 594.087 L291.241 594.087 L291.241 590.152 Z" fill="#000000" fill-rule="nonzero" fill-opacity="1" /><path clip-path="url(#clip850)" d="M330.593 562.605 Q326.982 562.605 325.153 566.17 Q323.348 569.712 323.348 576.841 Q323.348 583.948 325.153 587.513 Q326.982 591.054 330.593 591.054 Q334.227 591.054 336.033 587.513 Q337.861 583.948 337.861 576.841 Q337.861 569.712 336.033 566.17 Q334.227 562.605 330.593 562.605 M330.593 558.902 Q336.403 558.902 339.459 563.508 Q342.537 568.091 342.537 576.841 Q342.537 585.568 339.459 590.175 Q336.403 594.758 330.593 594.758 Q324.783 594.758 321.704 590.175 Q318.649 585.568 318.649 576.841 Q318.649 568.091 321.704 563.508 Q324.783 558.902 330.593 558.902 Z" fill="#000000" fill-rule="nonzero" fill-opacity="1" /><path clip-path="url(#clip850)" d="M342.537 553.003 L366.649 553.003 L366.649 556.2 L342.537 556.2 L342.537 553.003 Z" fill="#000000" fill-rule="nonzero" fill-opacity="1" /><path clip-path="url(#clip850)" d="M383.444 551.122 Q380.886 551.122 379.382 552.871 Q377.896 554.621 377.896 557.667 Q377.896 560.695 379.382 562.463 Q380.886 564.213 383.444 564.213 Q386.002 564.213 387.488 562.463 Q388.992 560.695 388.992 557.667 Q388.992 554.621 387.488 552.871 Q386.002 551.122 383.444 551.122 M390.986 539.217 L390.986 542.678 Q389.557 542.001 388.09 541.643 Q386.642 541.286 385.212 541.286 Q381.451 541.286 379.457 543.825 Q377.482 546.364 377.2 551.498 Q378.31 549.862 379.984 548.997 Q381.657 548.113 383.67 548.113 Q387.902 548.113 390.347 550.69 Q392.81 553.248 392.81 557.667 Q392.81 561.993 390.253 564.607 Q387.695 567.222 383.444 567.222 Q378.573 567.222 375.996 563.498 Q373.42 559.755 373.42 552.665 Q373.42 546.007 376.579 542.057 Q379.739 538.089 385.062 538.089 Q386.491 538.089 387.939 538.371 Q389.406 538.653 390.986 539.217 Z" fill="#000000" fill-rule="nonzero" fill-opacity="1" /><path clip-path="url(#clip850)" d="M115.802 406.221 L123.441 406.221 L123.441 379.856 L115.131 381.523 L115.131 377.263 L123.395 375.597 L128.071 375.597 L128.071 406.221 L135.71 406.221 L135.71 410.157 L115.802 410.157 L115.802 406.221 Z" fill="#000000" fill-rule="nonzero" fill-opacity="1" /><path clip-path="url(#clip850)" d="M145.154 404.277 L150.038 404.277 L150.038 410.157 L145.154 410.157 L145.154 404.277 Z" fill="#000000" fill-rule="nonzero" fill-opacity="1" /><path clip-path="url(#clip850)" d="M160.27 375.597 L178.626 375.597 L178.626 379.532 L164.552 379.532 L164.552 388.004 Q165.571 387.657 166.589 387.495 Q167.608 387.31 168.626 387.31 Q174.413 387.31 177.793 390.481 Q181.172 393.652 181.172 399.069 Q181.172 404.647 177.7 407.749 Q174.228 410.828 167.909 410.828 Q165.733 410.828 163.464 410.458 Q161.219 410.087 158.811 409.346 L158.811 404.647 Q160.895 405.782 163.117 406.337 Q165.339 406.893 167.816 406.893 Q171.821 406.893 174.159 404.786 Q176.497 402.68 176.497 399.069 Q176.497 395.458 174.159 393.351 Q171.821 391.245 167.816 391.245 Q165.941 391.245 164.066 391.661 Q162.214 392.078 160.27 392.958 L160.27 375.597 Z" fill="#000000" fill-rule="nonzero" fill-opacity="1" /><path clip-path="url(#clip850)" d="M200.385 378.675 Q196.774 378.675 194.945 382.24 Q193.14 385.782 193.14 392.911 Q193.14 400.018 194.945 403.583 Q196.774 407.124 200.385 407.124 Q204.02 407.124 205.825 403.583 Q207.654 400.018 207.654 392.911 Q207.654 385.782 205.825 382.24 Q204.02 378.675 200.385 378.675 M200.385 374.972 Q206.195 374.972 209.251 379.578 Q212.33 384.161 212.33 392.911 Q212.33 401.638 209.251 406.245 Q206.195 410.828 200.385 410.828 Q194.575 410.828 191.496 406.245 Q188.441 401.638 188.441 392.911 Q188.441 384.161 191.496 379.578 Q194.575 374.972 200.385 374.972 Z" fill="#000000" fill-rule="nonzero" fill-opacity="1" /><path clip-path="url(#clip850)" d="M230.547 378.675 Q226.936 378.675 225.107 382.24 Q223.302 385.782 223.302 392.911 Q223.302 400.018 225.107 403.583 Q226.936 407.124 230.547 407.124 Q234.181 407.124 235.987 403.583 Q237.816 400.018 237.816 392.911 Q237.816 385.782 235.987 382.24 Q234.181 378.675 230.547 378.675 M230.547 374.972 Q236.357 374.972 239.413 379.578 Q242.492 384.161 242.492 392.911 Q242.492 401.638 239.413 406.245 Q236.357 410.828 230.547 410.828 Q224.737 410.828 221.658 406.245 Q218.603 401.638 218.603 392.911 Q218.603 384.161 221.658 379.578 Q224.737 374.972 230.547 374.972 Z" fill="#000000" fill-rule="nonzero" fill-opacity="1" /><path clip-path="url(#clip850)" d="M278.88 384.694 L268.302 395.319 L278.88 405.897 L276.126 408.698 L265.501 398.073 L254.876 408.698 L252.144 405.897 L262.7 395.319 L252.144 384.694 L254.876 381.893 L265.501 392.518 L276.126 381.893 L278.88 384.694 Z" fill="#000000" fill-rule="nonzero" fill-opacity="1" /><path clip-path="url(#clip850)" d="M291.241 406.221 L298.88 406.221 L298.88 379.856 L290.57 381.523 L290.57 377.263 L298.834 375.597 L303.51 375.597 L303.51 406.221 L311.149 406.221 L311.149 410.157 L291.241 410.157 L291.241 406.221 Z" fill="#000000" fill-rule="nonzero" fill-opacity="1" /><path clip-path="url(#clip850)" d="M330.593 378.675 Q326.982 378.675 325.153 382.24 Q323.348 385.782 323.348 392.911 Q323.348 400.018 325.153 403.583 Q326.982 407.124 330.593 407.124 Q334.227 407.124 336.033 403.583 Q337.861 400.018 337.861 392.911 Q337.861 385.782 336.033 382.24 Q334.227 378.675 330.593 378.675 M330.593 374.972 Q336.403 374.972 339.459 379.578 Q342.537 384.161 342.537 392.911 Q342.537 401.638 339.459 406.245 Q336.403 410.828 330.593 410.828 Q324.783 410.828 321.704 406.245 Q318.649 401.638 318.649 392.911 Q318.649 384.161 321.704 379.578 Q324.783 374.972 330.593 374.972 Z" fill="#000000" fill-rule="nonzero" fill-opacity="1" /><path clip-path="url(#clip850)" d="M342.537 369.073 L366.649 369.073 L366.649 372.27 L342.537 372.27 L342.537 369.073 Z" fill="#000000" fill-rule="nonzero" fill-opacity="1" /><path clip-path="url(#clip850)" d="M383.444 367.192 Q380.886 367.192 379.382 368.941 Q377.896 370.69 377.896 373.737 Q377.896 376.765 379.382 378.533 Q380.886 380.282 383.444 380.282 Q386.002 380.282 387.488 378.533 Q388.992 376.765 388.992 373.737 Q388.992 370.69 387.488 368.941 Q386.002 367.192 383.444 367.192 M390.986 355.287 L390.986 358.748 Q389.557 358.07 388.09 357.713 Q386.642 357.356 385.212 357.356 Q381.451 357.356 379.457 359.895 Q377.482 362.434 377.2 367.568 Q378.31 365.932 379.984 365.067 Q381.657 364.183 383.67 364.183 Q387.902 364.183 390.347 366.76 Q392.81 369.317 392.81 373.737 Q392.81 378.063 390.253 380.677 Q387.695 383.292 383.444 383.292 Q378.573 383.292 375.996 379.568 Q373.42 375.825 373.42 368.734 Q373.42 362.076 376.579 358.127 Q379.739 354.158 385.062 354.158 Q386.491 354.158 387.939 354.441 Q389.406 354.723 390.986 355.287 Z" fill="#000000" fill-rule="nonzero" fill-opacity="1" /><path clip-path="url(#clip850)" d="M115.802 222.291 L123.441 222.291 L123.441 195.926 L115.131 197.592 L115.131 193.333 L123.395 191.667 L128.071 191.667 L128.071 222.291 L135.71 222.291 L135.71 226.227 L115.802 226.227 L115.802 222.291 Z" fill="#000000" fill-rule="nonzero" fill-opacity="1" /><path clip-path="url(#clip850)" d="M145.154 220.347 L150.038 220.347 L150.038 226.227 L145.154 226.227 L145.154 220.347 Z" fill="#000000" fill-rule="nonzero" fill-opacity="1" /><path clip-path="url(#clip850)" d="M159.043 191.667 L181.265 191.667 L181.265 193.657 L168.719 226.227 L163.835 226.227 L175.64 195.602 L159.043 195.602 L159.043 191.667 Z" fill="#000000" fill-rule="nonzero" fill-opacity="1" /><path clip-path="url(#clip850)" d="M190.432 191.667 L208.788 191.667 L208.788 195.602 L194.714 195.602 L194.714 204.074 Q195.733 203.727 196.751 203.565 Q197.77 203.379 198.788 203.379 Q204.575 203.379 207.955 206.551 Q211.334 209.722 211.334 215.139 Q211.334 220.717 207.862 223.819 Q204.39 226.898 198.07 226.898 Q195.895 226.898 193.626 226.527 Q191.381 226.157 188.973 225.416 L188.973 220.717 Q191.057 221.852 193.279 222.407 Q195.501 222.963 197.978 222.963 Q201.982 222.963 204.32 220.856 Q206.658 218.75 206.658 215.139 Q206.658 211.528 204.32 209.421 Q201.982 207.315 197.978 207.315 Q196.103 207.315 194.228 207.731 Q192.376 208.148 190.432 209.028 L190.432 191.667 Z" fill="#000000" fill-rule="nonzero" fill-opacity="1" /><path clip-path="url(#clip850)" d="M230.547 194.745 Q226.936 194.745 225.107 198.31 Q223.302 201.852 223.302 208.981 Q223.302 216.088 225.107 219.652 Q226.936 223.194 230.547 223.194 Q234.181 223.194 235.987 219.652 Q237.816 216.088 237.816 208.981 Q237.816 201.852 235.987 198.31 Q234.181 194.745 230.547 194.745 M230.547 191.042 Q236.357 191.042 239.413 195.648 Q242.492 200.231 242.492 208.981 Q242.492 217.708 239.413 222.315 Q236.357 226.898 230.547 226.898 Q224.737 226.898 221.658 222.315 Q218.603 217.708 218.603 208.981 Q218.603 200.231 221.658 195.648 Q224.737 191.042 230.547 191.042 Z" fill="#000000" fill-rule="nonzero" fill-opacity="1" /><path clip-path="url(#clip850)" d="M278.88 200.764 L268.302 211.389 L278.88 221.967 L276.126 224.768 L265.501 214.143 L254.876 224.768 L252.144 221.967 L262.7 211.389 L252.144 200.764 L254.876 197.963 L265.501 208.588 L276.126 197.963 L278.88 200.764 Z" fill="#000000" fill-rule="nonzero" fill-opacity="1" /><path clip-path="url(#clip850)" d="M291.241 222.291 L298.88 222.291 L298.88 195.926 L290.57 197.592 L290.57 193.333 L298.834 191.667 L303.51 191.667 L303.51 222.291 L311.149 222.291 L311.149 226.227 L291.241 226.227 L291.241 222.291 Z" fill="#000000" fill-rule="nonzero" fill-opacity="1" /><path clip-path="url(#clip850)" d="M330.593 194.745 Q326.982 194.745 325.153 198.31 Q323.348 201.852 323.348 208.981 Q323.348 216.088 325.153 219.652 Q326.982 223.194 330.593 223.194 Q334.227 223.194 336.033 219.652 Q337.861 216.088 337.861 208.981 Q337.861 201.852 336.033 198.31 Q334.227 194.745 330.593 194.745 M330.593 191.042 Q336.403 191.042 339.459 195.648 Q342.537 200.231 342.537 208.981 Q342.537 217.708 339.459 222.315 Q336.403 226.898 330.593 226.898 Q324.783 226.898 321.704 222.315 Q318.649 217.708 318.649 208.981 Q318.649 200.231 321.704 195.648 Q324.783 191.042 330.593 191.042 Z" fill="#000000" fill-rule="nonzero" fill-opacity="1" /><path clip-path="url(#clip850)" d="M342.537 185.143 L366.649 185.143 L366.649 188.34 L342.537 188.34 L342.537 185.143 Z" fill="#000000" fill-rule="nonzero" fill-opacity="1" /><path clip-path="url(#clip850)" d="M383.444 183.262 Q380.886 183.262 379.382 185.011 Q377.896 186.76 377.896 189.807 Q377.896 192.835 379.382 194.603 Q380.886 196.352 383.444 196.352 Q386.002 196.352 387.488 194.603 Q388.992 192.835 388.992 189.807 Q388.992 186.76 387.488 185.011 Q386.002 183.262 383.444 183.262 M390.986 171.357 L390.986 174.817 Q389.557 174.14 388.09 173.783 Q386.642 173.426 385.212 173.426 Q381.451 173.426 379.457 175.965 Q377.482 178.504 377.2 183.638 Q378.31 182.002 379.984 181.137 Q381.657 180.253 383.67 180.253 Q387.902 180.253 390.347 182.83 Q392.81 185.387 392.81 189.807 Q392.81 194.133 390.253 196.747 Q387.695 199.362 383.444 199.362 Q378.573 199.362 375.996 195.638 Q373.42 191.895 373.42 184.804 Q373.42 178.146 376.579 174.197 Q379.739 170.228 385.062 170.228 Q386.491 170.228 387.939 170.51 Q389.406 170.793 390.986 171.357 Z" fill="#000000" fill-rule="nonzero" fill-opacity="1" /><path clip-path="url(#clip850)" d="M22.818 1166.65 L46.4666 1175.37 L46.4666 1157.89 L22.818 1166.65 M16.4842 1170.28 L16.4842 1162.99 L64.0042 1144.88 L64.0042 1151.56 L51.8138 1155.89 L51.8138 1177.31 L64.0042 1181.64 L64.0042 1188.42 L16.4842 1170.28 Z" fill="#000000" fill-rule="nonzero" fill-opacity="1" /><path clip-path="url(#clip850)" d="M33.8307 1117.54 Q33.2578 1118.52 33.0032 1119.7 Q32.7167 1120.85 32.7167 1122.25 Q32.7167 1127.21 35.9632 1129.89 Q39.1779 1132.53 45.2253 1132.53 L64.0042 1132.53 L64.0042 1138.42 L28.3562 1138.42 L28.3562 1132.53 L33.8944 1132.53 Q30.6479 1130.68 29.0883 1127.72 Q27.4968 1124.76 27.4968 1120.53 Q27.4968 1119.92 27.5923 1119.19 Q27.656 1118.46 27.8151 1117.57 L33.8307 1117.54 Z" fill="#000000" fill-rule="nonzero" fill-opacity="1" /><path clip-path="url(#clip850)" d="M44.7161 1082.33 L47.5806 1082.33 L47.5806 1109.26 Q53.6281 1108.88 56.8109 1105.63 Q59.9619 1102.35 59.9619 1096.53 Q59.9619 1093.15 59.1344 1090 Q58.3069 1086.82 56.6518 1083.7 L62.1899 1083.7 Q63.5267 1086.85 64.227 1090.16 Q64.9272 1093.47 64.9272 1096.88 Q64.9272 1105.41 59.9619 1110.41 Q54.9967 1115.37 46.5303 1115.37 Q37.7774 1115.37 32.6531 1110.66 Q27.4968 1105.92 27.4968 1097.9 Q27.4968 1090.7 32.1438 1086.53 Q36.7589 1082.33 44.7161 1082.33 M42.9973 1088.19 Q38.1912 1088.25 35.3266 1090.9 Q32.4621 1093.51 32.4621 1097.83 Q32.4621 1102.74 35.2312 1105.7 Q38.0002 1108.62 43.0292 1109.07 L42.9973 1088.19 Z" fill="#000000" fill-rule="nonzero" fill-opacity="1" /><path clip-path="url(#clip850)" d="M46.0847 1056.52 Q46.0847 1063.62 47.7079 1066.36 Q49.3312 1069.09 53.2461 1069.09 Q56.3653 1069.09 58.2114 1067.06 Q60.0256 1064.99 60.0256 1061.45 Q60.0256 1056.58 56.5881 1053.66 Q53.1188 1050.7 47.3897 1050.7 L46.0847 1050.7 L46.0847 1056.52 M43.6657 1044.84 L64.0042 1044.84 L64.0042 1050.7 L58.5933 1050.7 Q61.8398 1052.7 63.3994 1055.69 Q64.9272 1058.68 64.9272 1063.01 Q64.9272 1068.49 61.8716 1071.73 Q58.7843 1074.95 53.6281 1074.95 Q47.6125 1074.95 44.5569 1070.94 Q41.5014 1066.9 41.5014 1058.91 L41.5014 1050.7 L40.9285 1050.7 Q36.8862 1050.7 34.6901 1053.37 Q32.4621 1056.01 32.4621 1060.82 Q32.4621 1063.87 33.1941 1066.77 Q33.9262 1069.67 35.3903 1072.34 L29.9795 1072.34 Q28.7381 1069.12 28.1334 1066.1 Q27.4968 1063.08 27.4968 1060.21 Q27.4968 1052.48 31.5072 1048.66 Q35.5176 1044.84 43.6657 1044.84 Z" fill="#000000" fill-rule="nonzero" fill-opacity="1" /><path clip-path="url(#clip850)" d="M42.4881 982.424 L64.0042 982.424 L64.0042 988.28 L42.679 988.28 Q37.6183 988.28 35.1038 990.253 Q32.5894 992.227 32.5894 996.173 Q32.5894 1000.92 35.6131 1003.65 Q38.6368 1006.39 43.8567 1006.39 L64.0042 1006.39 L64.0042 1012.28 L28.3562 1012.28 L28.3562 1006.39 L33.8944 1006.39 Q30.6797 1004.29 29.0883 1001.46 Q27.4968 998.592 27.4968 994.868 Q27.4968 988.726 31.3163 985.575 Q35.1038 982.424 42.4881 982.424 Z" fill="#000000" fill-rule="nonzero" fill-opacity="1" /><path clip-path="url(#clip850)" d="M32.4621 956.929 Q32.4621 961.64 36.1542 964.377 Q39.8145 967.114 46.212 967.114 Q52.6095 967.114 56.3017 964.409 Q59.9619 961.671 59.9619 956.929 Q59.9619 952.25 56.2698 949.513 Q52.5777 946.776 46.212 946.776 Q39.8781 946.776 36.186 949.513 Q32.4621 952.25 32.4621 956.929 M27.4968 956.929 Q27.4968 949.29 32.4621 944.93 Q37.4273 940.569 46.212 940.569 Q54.9649 940.569 59.9619 944.93 Q64.9272 949.29 64.9272 956.929 Q64.9272 964.6 59.9619 968.96 Q54.9649 973.289 46.212 973.289 Q37.4273 973.289 32.4621 968.96 Q27.4968 964.6 27.4968 956.929 Z" fill="#000000" fill-rule="nonzero" fill-opacity="1" /><path clip-path="url(#clip850)" d="M33.8307 910.205 Q33.2578 911.191 33.0032 912.369 Q32.7167 913.515 32.7167 914.915 Q32.7167 919.88 35.9632 922.554 Q39.1779 925.196 45.2253 925.196 L64.0042 925.196 L64.0042 931.084 L28.3562 931.084 L28.3562 925.196 L33.8944 925.196 Q30.6479 923.35 29.0883 920.39 Q27.4968 917.43 27.4968 913.196 Q27.4968 912.592 27.5923 911.86 Q27.656 911.128 27.8151 910.236 L33.8307 910.205 Z" fill="#000000" fill-rule="nonzero" fill-opacity="1" /><path clip-path="url(#clip850)" d="M35.1993 877.453 Q31.2526 875.257 29.3747 872.201 Q27.4968 869.146 27.4968 865.008 Q27.4968 859.438 31.4117 856.414 Q35.2948 853.391 42.4881 853.391 L64.0042 853.391 L64.0042 859.279 L42.679 859.279 Q37.5546 859.279 35.072 861.093 Q32.5894 862.907 32.5894 866.631 Q32.5894 871.183 35.6131 873.825 Q38.6368 876.466 43.8567 876.466 L64.0042 876.466 L64.0042 882.355 L42.679 882.355 Q37.5228 882.355 35.072 884.169 Q32.5894 885.983 32.5894 889.771 Q32.5894 894.258 35.6449 896.9 Q38.6686 899.542 43.8567 899.542 L64.0042 899.542 L64.0042 905.43 L28.3562 905.43 L28.3562 899.542 L33.8944 899.542 Q30.616 897.537 29.0564 894.736 Q27.4968 891.935 27.4968 888.084 Q27.4968 884.201 29.4702 881.495 Q31.4436 878.758 35.1993 877.453 Z" fill="#000000" fill-rule="nonzero" fill-opacity="1" /><path clip-path="url(#clip850)" d="M46.0847 825.509 Q46.0847 832.607 47.7079 835.344 Q49.3312 838.081 53.2461 838.081 Q56.3653 838.081 58.2114 836.044 Q60.0256 833.975 60.0256 830.442 Q60.0256 825.573 56.5881 822.644 Q53.1188 819.684 47.3897 819.684 L46.0847 819.684 L46.0847 825.509 M43.6657 813.828 L64.0042 813.828 L64.0042 819.684 L58.5933 819.684 Q61.8398 821.689 63.3994 824.681 Q64.9272 827.673 64.9272 832.002 Q64.9272 837.476 61.8716 840.723 Q58.7843 843.938 53.6281 843.938 Q47.6125 843.938 44.5569 839.927 Q41.5014 835.885 41.5014 827.896 L41.5014 819.684 L40.9285 819.684 Q36.8862 819.684 34.6901 822.358 Q32.4621 825 32.4621 829.806 Q32.4621 832.861 33.1941 835.758 Q33.9262 838.654 35.3903 841.328 L29.9795 841.328 Q28.7381 838.113 28.1334 835.089 Q27.4968 832.066 27.4968 829.201 Q27.4968 821.467 31.5072 817.647 Q35.5176 813.828 43.6657 813.828 Z" fill="#000000" fill-rule="nonzero" fill-opacity="1" /><path clip-path="url(#clip850)" d="M14.479 801.765 L14.479 795.908 L64.0042 795.908 L64.0042 801.765 L14.479 801.765 Z" fill="#000000" fill-rule="nonzero" fill-opacity="1" /><path clip-path="url(#clip850)" d="M28.3562 783.654 L28.3562 777.798 L64.0042 777.798 L64.0042 783.654 L28.3562 783.654 M14.479 783.654 L14.479 777.798 L21.895 777.798 L21.895 783.654 L14.479 783.654 Z" fill="#000000" fill-rule="nonzero" fill-opacity="1" /><path clip-path="url(#clip850)" d="M28.3562 768.09 L28.3562 740.272 L33.7034 740.272 L59.3254 762.297 L59.3254 740.272 L64.0042 740.272 L64.0042 768.886 L58.657 768.886 L33.035 746.861 L33.035 768.09 L28.3562 768.09 Z" fill="#000000" fill-rule="nonzero" fill-opacity="1" /><path clip-path="url(#clip850)" d="M44.7161 700.836 L47.5806 700.836 L47.5806 727.763 Q53.6281 727.381 56.8109 724.135 Q59.9619 720.857 59.9619 715.032 Q59.9619 711.658 59.1344 708.507 Q58.3069 705.324 56.6518 702.205 L62.1899 702.205 Q63.5267 705.356 64.227 708.666 Q64.9272 711.976 64.9272 715.382 Q64.9272 723.912 59.9619 728.909 Q54.9967 733.875 46.5303 733.875 Q37.7774 733.875 32.6531 729.164 Q27.4968 724.421 27.4968 716.401 Q27.4968 709.207 32.1438 705.038 Q36.7589 700.836 44.7161 700.836 M42.9973 706.693 Q38.1912 706.757 35.3266 709.398 Q32.4621 712.008 32.4621 716.337 Q32.4621 721.239 35.2312 724.199 Q38.0002 727.127 43.0292 727.572 L42.9973 706.693 Z" fill="#000000" fill-rule="nonzero" fill-opacity="1" /><path clip-path="url(#clip850)" d="M33.7671 667.767 L14.479 667.767 L14.479 661.91 L64.0042 661.91 L64.0042 667.767 L58.657 667.767 Q61.8398 669.613 63.3994 672.445 Q64.9272 675.246 64.9272 679.193 Q64.9272 685.654 59.771 689.728 Q54.6147 693.771 46.212 693.771 Q37.8093 693.771 32.6531 689.728 Q27.4968 685.654 27.4968 679.193 Q27.4968 675.246 29.0564 672.445 Q30.5842 669.613 33.7671 667.767 M46.212 687.723 Q52.6732 687.723 56.3653 685.081 Q60.0256 682.408 60.0256 677.761 Q60.0256 673.114 56.3653 670.44 Q52.6732 667.767 46.212 667.767 Q39.7508 667.767 36.0905 670.44 Q32.3984 673.114 32.3984 677.761 Q32.3984 682.408 36.0905 685.081 Q39.7508 687.723 46.212 687.723 Z" fill="#000000" fill-rule="nonzero" fill-opacity="1" /><path clip-path="url(#clip850)" d="M35.1993 601.372 Q31.2526 599.176 29.3747 596.121 Q27.4968 593.065 27.4968 588.927 Q27.4968 583.357 31.4117 580.334 Q35.2948 577.31 42.4881 577.31 L64.0042 577.31 L64.0042 583.198 L42.679 583.198 Q37.5546 583.198 35.072 585.012 Q32.5894 586.827 32.5894 590.551 Q32.5894 595.102 35.6131 597.744 Q38.6368 600.386 43.8567 600.386 L64.0042 600.386 L64.0042 606.274 L42.679 606.274 Q37.5228 606.274 35.072 608.088 Q32.5894 609.902 32.5894 613.69 Q32.5894 618.178 35.6449 620.82 Q38.6686 623.461 43.8567 623.461 L64.0042 623.461 L64.0042 629.35 L28.3562 629.35 L28.3562 623.461 L33.8944 623.461 Q30.616 621.456 29.0564 618.655 Q27.4968 615.854 27.4968 612.003 Q27.4968 608.12 29.4702 605.415 Q31.4436 602.677 35.1993 601.372 Z" fill="#000000" fill-rule="nonzero" fill-opacity="1" /><path clip-path="url(#clip850)" d="M46.0847 549.428 Q46.0847 556.526 47.7079 559.263 Q49.3312 562 53.2461 562 Q56.3653 562 58.2114 559.963 Q60.0256 557.895 60.0256 554.362 Q60.0256 549.492 56.5881 546.564 Q53.1188 543.604 47.3897 543.604 L46.0847 543.604 L46.0847 549.428 M43.6657 537.747 L64.0042 537.747 L64.0042 543.604 L58.5933 543.604 Q61.8398 545.609 63.3994 548.601 Q64.9272 551.593 64.9272 555.921 Q64.9272 561.396 61.8716 564.642 Q58.7843 567.857 53.6281 567.857 Q47.6125 567.857 44.5569 563.846 Q41.5014 559.804 41.5014 551.815 L41.5014 543.604 L40.9285 543.604 Q36.8862 543.604 34.6901 546.277 Q32.4621 548.919 32.4621 553.725 Q32.4621 556.781 33.1941 559.677 Q33.9262 562.573 35.3903 565.247 L29.9795 565.247 Q28.7381 562.032 28.1334 559.009 Q27.4968 555.985 27.4968 553.12 Q27.4968 545.386 31.5072 541.567 Q35.5176 537.747 43.6657 537.747 Z" fill="#000000" fill-rule="nonzero" fill-opacity="1" /><path clip-path="url(#clip850)" d="M18.2347 519.891 L28.3562 519.891 L28.3562 507.828 L32.9077 507.828 L32.9077 519.891 L52.2594 519.891 Q56.6199 519.891 57.8613 518.714 Q59.1026 517.504 59.1026 513.844 L59.1026 507.828 L64.0042 507.828 L64.0042 513.844 Q64.0042 520.623 61.4897 523.201 Q58.9434 525.78 52.2594 525.78 L32.9077 525.78 L32.9077 530.076 L28.3562 530.076 L28.3562 525.78 L18.2347 525.78 L18.2347 519.891 Z" fill="#000000" fill-rule="nonzero" fill-opacity="1" /><path clip-path="url(#clip850)" d="M29.7248 474.472 L35.1993 474.472 Q33.8307 476.955 33.1623 479.469 Q32.4621 481.952 32.4621 484.498 Q32.4621 490.195 36.0905 493.346 Q39.6872 496.497 46.212 496.497 Q52.7369 496.497 56.3653 493.346 Q59.9619 490.195 59.9619 484.498 Q59.9619 481.952 59.2935 479.469 Q58.5933 476.955 57.2247 474.472 L62.6355 474.472 Q63.7814 476.923 64.3543 479.565 Q64.9272 482.174 64.9272 485.135 Q64.9272 493.187 59.8664 497.93 Q54.8057 502.672 46.212 502.672 Q37.491 502.672 32.4939 497.898 Q27.4968 493.092 27.4968 484.753 Q27.4968 482.047 28.0697 479.469 Q28.6108 476.891 29.7248 474.472 Z" fill="#000000" fill-rule="nonzero" fill-opacity="1" /><path clip-path="url(#clip850)" d="M42.4881 434.654 L64.0042 434.654 L64.0042 440.511 L42.679 440.511 Q37.6183 440.511 35.1038 442.484 Q32.5894 444.458 32.5894 448.404 Q32.5894 453.147 35.6131 455.884 Q38.6368 458.621 43.8567 458.621 L64.0042 458.621 L64.0042 464.51 L14.479 464.51 L14.479 458.621 L33.8944 458.621 Q30.6797 456.521 29.0883 453.688 Q27.4968 450.823 27.4968 447.099 Q27.4968 440.957 31.3163 437.806 Q35.1038 434.654 42.4881 434.654 Z" fill="#000000" fill-rule="nonzero" fill-opacity="1" /><path clip-path="url(#clip850)" d="M44.7161 392.482 L47.5806 392.482 L47.5806 419.409 Q53.6281 419.027 56.8109 415.78 Q59.9619 412.502 59.9619 406.677 Q59.9619 403.303 59.1344 400.152 Q58.3069 396.969 56.6518 393.85 L62.1899 393.85 Q63.5267 397.001 64.227 400.311 Q64.9272 403.622 64.9272 407.027 Q64.9272 415.557 59.9619 420.554 Q54.9967 425.52 46.5303 425.52 Q37.7774 425.52 32.6531 420.809 Q27.4968 416.067 27.4968 408.046 Q27.4968 400.853 32.1438 396.683 Q36.7589 392.482 44.7161 392.482 M42.9973 398.338 Q38.1912 398.402 35.3266 401.044 Q32.4621 403.653 32.4621 407.982 Q32.4621 412.884 35.2312 415.844 Q38.0002 418.772 43.0292 419.218 L42.9973 398.338 Z" fill="#000000" fill-rule="nonzero" fill-opacity="1" /><path clip-path="url(#clip850)" d="M29.4065 360.144 L34.9447 360.144 Q33.6716 362.627 33.035 365.3 Q32.3984 367.974 32.3984 370.838 Q32.3984 375.199 33.7352 377.395 Q35.072 379.559 37.7456 379.559 Q39.7826 379.559 40.9603 378 Q42.1061 376.44 43.1565 371.729 L43.6021 369.724 Q44.9389 363.486 47.3897 360.876 Q49.8086 358.234 54.1691 358.234 Q59.1344 358.234 62.0308 362.181 Q64.9272 366.096 64.9272 372.971 Q64.9272 375.835 64.3543 378.955 Q63.8132 382.042 62.6992 385.479 L56.6518 385.479 Q58.3387 382.233 59.198 379.082 Q60.0256 375.931 60.0256 372.843 Q60.0256 368.706 58.6251 366.478 Q57.1929 364.25 54.6147 364.25 Q52.2276 364.25 50.9545 365.873 Q49.6813 367.464 48.5037 372.907 L48.0262 374.944 Q46.8804 380.387 44.5251 382.806 Q42.138 385.225 38.0002 385.225 Q32.9713 385.225 30.2341 381.66 Q27.4968 378.095 27.4968 371.538 Q27.4968 368.292 27.9743 365.427 Q28.4517 362.563 29.4065 360.144 Z" fill="#000000" fill-rule="nonzero" fill-opacity="1" /><path clip-path="url(#clip850)" d="M788.434 12.096 L826.675 12.096 L826.675 18.9825 L796.617 18.9825 L796.617 36.8875 L825.419 36.8875 L825.419 43.7741 L796.617 43.7741 L796.617 65.6895 L827.404 65.6895 L827.404 72.576 L788.434 72.576 L788.434 12.096 Z" fill="#000000" fill-rule="nonzero" fill-opacity="1" /><path clip-path="url(#clip850)" d="M863.497 9.54393 L863.497 15.7418 L856.368 15.7418 Q852.357 15.7418 850.777 17.3622 Q849.238 18.9825 849.238 23.1955 L849.238 27.2059 L861.512 27.2059 L861.512 32.9987 L849.238 32.9987 L849.238 72.576 L841.744 72.576 L841.744 32.9987 L834.614 32.9987 L834.614 27.2059 L841.744 27.2059 L841.744 24.0462 Q841.744 16.471 845.268 13.0277 Q848.792 9.54393 856.449 9.54393 L863.497 9.54393 Z" fill="#000000" fill-rule="nonzero" fill-opacity="1" /><path clip-path="url(#clip850)" d="M892.704 9.54393 L892.704 15.7418 L885.575 15.7418 Q881.564 15.7418 879.984 17.3622 Q878.445 18.9825 878.445 23.1955 L878.445 27.2059 L890.719 27.2059 L890.719 32.9987 L878.445 32.9987 L878.445 72.576 L870.951 72.576 L870.951 32.9987 L863.821 32.9987 L863.821 27.2059 L870.951 27.2059 L870.951 24.0462 Q870.951 16.471 874.475 13.0277 Q877.999 9.54393 885.656 9.54393 L892.704 9.54393 Z" fill="#000000" fill-rule="nonzero" fill-opacity="1" /><path clip-path="url(#clip850)" d="M898.943 27.2059 L906.396 27.2059 L906.396 72.576 L898.943 72.576 L898.943 27.2059 M898.943 9.54393 L906.396 9.54393 L906.396 18.9825 L898.943 18.9825 L898.943 9.54393 Z" fill="#000000" fill-rule="nonzero" fill-opacity="1" /><path clip-path="url(#clip850)" d="M954.643 28.9478 L954.643 35.9153 Q951.483 34.1734 948.283 33.3227 Q945.123 32.4315 941.882 32.4315 Q934.631 32.4315 930.621 37.0496 Q926.61 41.6271 926.61 49.9314 Q926.61 58.2358 930.621 62.8538 Q934.631 67.4314 941.882 67.4314 Q945.123 67.4314 948.283 66.5807 Q951.483 65.6895 954.643 63.9476 L954.643 70.8341 Q951.523 72.2924 948.161 73.0216 Q944.839 73.7508 941.072 73.7508 Q930.823 73.7508 924.787 67.3098 Q918.752 60.8689 918.752 49.9314 Q918.752 38.832 924.828 32.472 Q930.945 26.1121 941.558 26.1121 Q945.001 26.1121 948.283 26.8413 Q951.564 27.5299 954.643 28.9478 Z" fill="#000000" fill-rule="nonzero" fill-opacity="1" /><path clip-path="url(#clip850)" d="M967.605 27.2059 L975.059 27.2059 L975.059 72.576 L967.605 72.576 L967.605 27.2059 M967.605 9.54393 L975.059 9.54393 L975.059 18.9825 L967.605 18.9825 L967.605 9.54393 Z" fill="#000000" fill-rule="nonzero" fill-opacity="1" /><path clip-path="url(#clip850)" d="M1029.46 48.0275 L1029.46 51.6733 L995.192 51.6733 Q995.678 59.3701 999.81 63.421 Q1003.98 67.4314 1011.4 67.4314 Q1015.69 67.4314 1019.7 66.3781 Q1023.75 65.3249 1027.72 63.2184 L1027.72 70.267 Q1023.71 71.9684 1019.5 72.8596 Q1015.28 73.7508 1010.95 73.7508 Q1000.09 73.7508 993.734 67.4314 Q987.414 61.1119 987.414 50.3365 Q987.414 39.1965 993.41 32.6746 Q999.446 26.1121 1009.65 26.1121 Q1018.81 26.1121 1024.12 32.0264 Q1029.46 37.9003 1029.46 48.0275 M1022.01 45.84 Q1021.93 39.7232 1018.57 36.0774 Q1015.24 32.4315 1009.73 32.4315 Q1003.5 32.4315 999.729 35.9558 Q996.002 39.4801 995.435 45.8805 L1022.01 45.84 Z" fill="#000000" fill-rule="nonzero" fill-opacity="1" /><path clip-path="url(#clip850)" d="M1079.41 45.1919 L1079.41 72.576 L1071.96 72.576 L1071.96 45.4349 Q1071.96 38.994 1069.45 35.7938 Q1066.93 32.5936 1061.91 32.5936 Q1055.87 32.5936 1052.39 36.4419 Q1048.91 40.2903 1048.91 46.9338 L1048.91 72.576 L1041.41 72.576 L1041.41 27.2059 L1048.91 27.2059 L1048.91 34.2544 Q1051.58 30.163 1055.19 28.1376 Q1058.83 26.1121 1063.57 26.1121 Q1071.39 26.1121 1075.4 30.9732 Q1079.41 35.7938 1079.41 45.1919 Z" fill="#000000" fill-rule="nonzero" fill-opacity="1" /><path clip-path="url(#clip850)" d="M1126.93 28.9478 L1126.93 35.9153 Q1123.77 34.1734 1120.57 33.3227 Q1117.41 32.4315 1114.17 32.4315 Q1106.92 32.4315 1102.91 37.0496 Q1098.9 41.6271 1098.9 49.9314 Q1098.9 58.2358 1102.91 62.8538 Q1106.92 67.4314 1114.17 67.4314 Q1117.41 67.4314 1120.57 66.5807 Q1123.77 65.6895 1126.93 63.9476 L1126.93 70.8341 Q1123.81 72.2924 1120.45 73.0216 Q1117.12 73.7508 1113.36 73.7508 Q1103.11 73.7508 1097.07 67.3098 Q1091.04 60.8689 1091.04 49.9314 Q1091.04 38.832 1097.11 32.472 Q1103.23 26.1121 1113.84 26.1121 Q1117.29 26.1121 1120.57 26.8413 Q1123.85 27.5299 1126.93 28.9478 Z" fill="#000000" fill-rule="nonzero" fill-opacity="1" /><path clip-path="url(#clip850)" d="M1158.77 76.7889 Q1155.61 84.8907 1152.61 87.3618 Q1149.61 89.8329 1144.59 89.8329 L1138.63 89.8329 L1138.63 83.5945 L1143.01 83.5945 Q1146.09 83.5945 1147.79 82.1361 Q1149.49 80.6778 1151.56 75.2496 L1152.89 71.8468 L1134.54 27.2059 L1142.44 27.2059 L1156.62 62.6918 L1170.8 27.2059 L1178.7 27.2059 L1158.77 76.7889 Z" fill="#000000" fill-rule="nonzero" fill-opacity="1" /><path clip-path="url(#clip850)" d="M1222.57 65.7705 L1222.57 89.8329 L1215.08 89.8329 L1215.08 27.2059 L1222.57 27.2059 L1222.57 34.0924 Q1224.92 30.0415 1228.48 28.0971 Q1232.09 26.1121 1237.07 26.1121 Q1245.34 26.1121 1250.48 32.6746 Q1255.67 39.2371 1255.67 49.9314 Q1255.67 60.6258 1250.48 67.1883 Q1245.34 73.7508 1237.07 73.7508 Q1232.09 73.7508 1228.48 71.8063 Q1224.92 69.8214 1222.57 65.7705 M1247.93 49.9314 Q1247.93 41.7081 1244.53 37.0496 Q1241.16 32.3505 1235.25 32.3505 Q1229.33 32.3505 1225.93 37.0496 Q1222.57 41.7081 1222.57 49.9314 Q1222.57 58.1548 1225.93 62.8538 Q1229.33 67.5124 1235.25 67.5124 Q1241.16 67.5124 1244.53 62.8538 Q1247.93 58.1548 1247.93 49.9314 Z" fill="#000000" fill-rule="nonzero" fill-opacity="1" /><path clip-path="url(#clip850)" d="M1306.83 48.0275 L1306.83 51.6733 L1272.56 51.6733 Q1273.04 59.3701 1277.18 63.421 Q1281.35 67.4314 1288.76 67.4314 Q1293.06 67.4314 1297.07 66.3781 Q1301.12 65.3249 1305.09 63.2184 L1305.09 70.267 Q1301.08 71.9684 1296.86 72.8596 Q1292.65 73.7508 1288.32 73.7508 Q1277.46 73.7508 1271.1 67.4314 Q1264.78 61.1119 1264.78 50.3365 Q1264.78 39.1965 1270.78 32.6746 Q1276.81 26.1121 1287.02 26.1121 Q1296.17 26.1121 1301.48 32.0264 Q1306.83 37.9003 1306.83 48.0275 M1299.37 45.84 Q1299.29 39.7232 1295.93 36.0774 Q1292.61 32.4315 1287.1 32.4315 Q1280.86 32.4315 1277.09 35.9558 Q1273.37 39.4801 1272.8 45.8805 L1299.37 45.84 Z" fill="#000000" fill-rule="nonzero" fill-opacity="1" /><path clip-path="url(#clip850)" d="M1345.35 34.1734 Q1344.1 33.4443 1342.6 33.1202 Q1341.14 32.7556 1339.36 32.7556 Q1333.04 32.7556 1329.63 36.8875 Q1326.27 40.9789 1326.27 48.6757 L1326.27 72.576 L1318.78 72.576 L1318.78 27.2059 L1326.27 27.2059 L1326.27 34.2544 Q1328.62 30.1225 1332.39 28.1376 Q1336.16 26.1121 1341.54 26.1121 Q1342.31 26.1121 1343.25 26.2337 Q1344.18 26.3147 1345.31 26.5172 L1345.35 34.1734 Z" fill="#000000" fill-rule="nonzero" fill-opacity="1" /><path clip-path="url(#clip850)" d="M1408.47 28.5427 L1408.47 35.5912 Q1405.31 33.9709 1401.9 33.1607 Q1398.5 32.3505 1394.85 32.3505 Q1389.3 32.3505 1386.51 34.0519 Q1383.75 35.7533 1383.75 39.156 Q1383.75 41.7486 1385.74 43.2475 Q1387.72 44.7058 1393.72 46.0426 L1396.27 46.6097 Q1404.21 48.3111 1407.53 51.4303 Q1410.9 54.509 1410.9 60.0587 Q1410.9 66.3781 1405.87 70.0644 Q1400.89 73.7508 1392.14 73.7508 Q1388.49 73.7508 1384.52 73.0216 Q1380.6 72.3329 1376.22 70.9151 L1376.22 63.2184 Q1380.35 65.3654 1384.36 66.4591 Q1388.37 67.5124 1392.3 67.5124 Q1397.57 67.5124 1400.4 65.73 Q1403.24 63.9071 1403.24 60.6258 Q1403.24 57.5877 1401.17 55.9673 Q1399.15 54.3469 1392.22 52.8481 L1389.63 52.2405 Q1382.7 50.7821 1379.62 47.7845 Q1376.54 44.7463 1376.54 39.4801 Q1376.54 33.0797 1381.08 29.5959 Q1385.62 26.1121 1393.96 26.1121 Q1398.1 26.1121 1401.74 26.7198 Q1405.39 27.3274 1408.47 28.5427 Z" fill="#000000" fill-rule="nonzero" fill-opacity="1" /><path clip-path="url(#clip850)" d="M1455.42 28.9478 L1455.42 35.9153 Q1452.26 34.1734 1449.06 33.3227 Q1445.9 32.4315 1442.66 32.4315 Q1435.4 32.4315 1431.39 37.0496 Q1427.38 41.6271 1427.38 49.9314 Q1427.38 58.2358 1431.39 62.8538 Q1435.4 67.4314 1442.66 67.4314 Q1445.9 67.4314 1449.06 66.5807 Q1452.26 65.6895 1455.42 63.9476 L1455.42 70.8341 Q1452.3 72.2924 1448.93 73.0216 Q1445.61 73.7508 1441.84 73.7508 Q1431.6 73.7508 1425.56 67.3098 Q1419.52 60.8689 1419.52 49.9314 Q1419.52 38.832 1425.6 32.472 Q1431.72 26.1121 1442.33 26.1121 Q1445.77 26.1121 1449.06 26.8413 Q1452.34 27.5299 1455.42 28.9478 Z" fill="#000000" fill-rule="nonzero" fill-opacity="1" /><path clip-path="url(#clip850)" d="M1468.38 27.2059 L1475.83 27.2059 L1475.83 72.576 L1468.38 72.576 L1468.38 27.2059 M1468.38 9.54393 L1475.83 9.54393 L1475.83 18.9825 L1468.38 18.9825 L1468.38 9.54393 Z" fill="#000000" fill-rule="nonzero" fill-opacity="1" /><path clip-path="url(#clip850)" d="M1529.14 45.1919 L1529.14 72.576 L1521.69 72.576 L1521.69 45.4349 Q1521.69 38.994 1519.18 35.7938 Q1516.67 32.5936 1511.64 32.5936 Q1505.61 32.5936 1502.12 36.4419 Q1498.64 40.2903 1498.64 46.9338 L1498.64 72.576 L1491.14 72.576 L1491.14 27.2059 L1498.64 27.2059 L1498.64 34.2544 Q1501.31 30.163 1504.92 28.1376 Q1508.56 26.1121 1513.3 26.1121 Q1521.12 26.1121 1525.13 30.9732 Q1529.14 35.7938 1529.14 45.1919 Z" fill="#000000" fill-rule="nonzero" fill-opacity="1" /><path clip-path="url(#clip850)" d="M1551.38 14.324 L1551.38 27.2059 L1566.73 27.2059 L1566.73 32.9987 L1551.38 32.9987 L1551.38 57.6282 Q1551.38 63.1779 1552.88 64.7578 Q1554.42 66.3376 1559.08 66.3376 L1566.73 66.3376 L1566.73 72.576 L1559.08 72.576 Q1550.45 72.576 1547.17 69.3758 Q1543.89 66.1351 1543.89 57.6282 L1543.89 32.9987 L1538.42 32.9987 L1538.42 27.2059 L1543.89 27.2059 L1543.89 14.324 L1551.38 14.324 Z" fill="#000000" fill-rule="nonzero" fill-opacity="1" /><path clip-path="url(#clip850)" d="M1576.54 27.2059 L1583.99 27.2059 L1583.99 72.576 L1576.54 72.576 L1576.54 27.2059 M1576.54 9.54393 L1583.99 9.54393 L1583.99 18.9825 L1576.54 18.9825 L1576.54 9.54393 Z" fill="#000000" fill-rule="nonzero" fill-opacity="1" /><path clip-path="url(#clip850)" d="M1599.59 9.54393 L1607.04 9.54393 L1607.04 72.576 L1599.59 72.576 L1599.59 9.54393 Z" fill="#000000" fill-rule="nonzero" fill-opacity="1" /><path clip-path="url(#clip850)" d="M1622.64 9.54393 L1630.09 9.54393 L1630.09 72.576 L1622.64 72.576 L1622.64 9.54393 Z" fill="#000000" fill-rule="nonzero" fill-opacity="1" /><path clip-path="url(#clip850)" d="M1666.31 49.7694 Q1657.27 49.7694 1653.79 51.8354 Q1650.3 53.9013 1650.3 58.8839 Q1650.3 62.8538 1652.9 65.2034 Q1655.53 67.5124 1660.03 67.5124 Q1666.22 67.5124 1669.95 63.1374 Q1673.72 58.7219 1673.72 51.4303 L1673.72 49.7694 L1666.31 49.7694 M1681.17 46.6907 L1681.17 72.576 L1673.72 72.576 L1673.72 65.6895 Q1671.17 69.8214 1667.36 71.8063 Q1663.55 73.7508 1658.04 73.7508 Q1651.07 73.7508 1646.94 69.8619 Q1642.85 65.9325 1642.85 59.3701 Q1642.85 51.7138 1647.95 47.825 Q1653.1 43.9361 1663.27 43.9361 L1673.72 43.9361 L1673.72 43.2069 Q1673.72 38.0623 1670.32 35.2672 Q1666.95 32.4315 1660.84 32.4315 Q1656.95 32.4315 1653.26 33.3632 Q1649.58 34.295 1646.17 36.1584 L1646.17 29.2718 Q1650.26 27.692 1654.11 26.9223 Q1657.96 26.1121 1661.61 26.1121 Q1671.45 26.1121 1676.31 31.2163 Q1681.17 36.3204 1681.17 46.6907 Z" fill="#000000" fill-rule="nonzero" fill-opacity="1" /><path clip-path="url(#clip850)" d="M1703.9 14.324 L1703.9 27.2059 L1719.25 27.2059 L1719.25 32.9987 L1703.9 32.9987 L1703.9 57.6282 Q1703.9 63.1779 1705.4 64.7578 Q1706.94 66.3376 1711.59 66.3376 L1719.25 66.3376 L1719.25 72.576 L1711.59 72.576 Q1702.97 72.576 1699.68 69.3758 Q1696.4 66.1351 1696.4 57.6282 L1696.4 32.9987 L1690.93 32.9987 L1690.93 27.2059 L1696.4 27.2059 L1696.4 14.324 L1703.9 14.324 Z" fill="#000000" fill-rule="nonzero" fill-opacity="1" /><path clip-path="url(#clip850)" d="M1746.63 32.4315 Q1740.64 32.4315 1737.16 37.1306 Q1733.67 41.7891 1733.67 49.9314 Q1733.67 58.0738 1737.12 62.7728 Q1740.6 67.4314 1746.63 67.4314 Q1752.59 67.4314 1756.07 62.7323 Q1759.56 58.0333 1759.56 49.9314 Q1759.56 41.8701 1756.07 37.1711 Q1752.59 32.4315 1746.63 32.4315 M1746.63 26.1121 Q1756.36 26.1121 1761.91 32.4315 Q1767.46 38.7509 1767.46 49.9314 Q1767.46 61.0714 1761.91 67.4314 Q1756.36 73.7508 1746.63 73.7508 Q1736.87 73.7508 1731.32 67.4314 Q1725.81 61.0714 1725.81 49.9314 Q1725.81 38.7509 1731.32 32.4315 Q1736.87 26.1121 1746.63 26.1121 Z" fill="#000000" fill-rule="nonzero" fill-opacity="1" /><path clip-path="url(#clip850)" d="M1806.1 34.1734 Q1804.85 33.4443 1803.35 33.1202 Q1801.89 32.7556 1800.11 32.7556 Q1793.79 32.7556 1790.38 36.8875 Q1787.02 40.9789 1787.02 48.6757 L1787.02 72.576 L1779.53 72.576 L1779.53 27.2059 L1787.02 27.2059 L1787.02 34.2544 Q1789.37 30.1225 1793.14 28.1376 Q1796.91 26.1121 1802.29 26.1121 Q1803.06 26.1121 1804 26.2337 Q1804.93 26.3147 1806.06 26.5172 L1806.1 34.1734 Z" fill="#000000" fill-rule="nonzero" fill-opacity="1" /><path clip-path="url(#clip850)" d="M1847.5 65.7705 L1847.5 89.8329 L1840.01 89.8329 L1840.01 27.2059 L1847.5 27.2059 L1847.5 34.0924 Q1849.85 30.0415 1853.42 28.0971 Q1857.02 26.1121 1862 26.1121 Q1870.27 26.1121 1875.41 32.6746 Q1880.6 39.2371 1880.6 49.9314 Q1880.6 60.6258 1875.41 67.1883 Q1870.27 73.7508 1862 73.7508 Q1857.02 73.7508 1853.42 71.8063 Q1849.85 69.8214 1847.5 65.7705 M1872.86 49.9314 Q1872.86 41.7081 1869.46 37.0496 Q1866.1 32.3505 1860.18 32.3505 Q1854.27 32.3505 1850.86 37.0496 Q1847.5 41.7081 1847.5 49.9314 Q1847.5 58.1548 1850.86 62.8538 Q1854.27 67.5124 1860.18 67.5124 Q1866.1 67.5124 1869.46 62.8538 Q1872.86 58.1548 1872.86 49.9314 Z" fill="#000000" fill-rule="nonzero" fill-opacity="1" /><path clip-path="url(#clip850)" d="M1913.57 49.7694 Q1904.54 49.7694 1901.06 51.8354 Q1897.57 53.9013 1897.57 58.8839 Q1897.57 62.8538 1900.16 65.2034 Q1902.8 67.5124 1907.29 67.5124 Q1913.49 67.5124 1917.22 63.1374 Q1920.99 58.7219 1920.99 51.4303 L1920.99 49.7694 L1913.57 49.7694 M1928.44 46.6907 L1928.44 72.576 L1920.99 72.576 L1920.99 65.6895 Q1918.43 69.8214 1914.63 71.8063 Q1910.82 73.7508 1905.31 73.7508 Q1898.34 73.7508 1894.21 69.8619 Q1890.12 65.9325 1890.12 59.3701 Q1890.12 51.7138 1895.22 47.825 Q1900.37 43.9361 1910.53 43.9361 L1920.99 43.9361 L1920.99 43.2069 Q1920.99 38.0623 1917.58 35.2672 Q1914.22 32.4315 1908.1 32.4315 Q1904.22 32.4315 1900.53 33.3632 Q1896.84 34.295 1893.44 36.1584 L1893.44 29.2718 Q1897.53 27.692 1901.38 26.9223 Q1905.23 26.1121 1908.87 26.1121 Q1918.72 26.1121 1923.58 31.2163 Q1928.44 36.3204 1928.44 46.6907 Z" fill="#000000" fill-rule="nonzero" fill-opacity="1" /><path clip-path="url(#clip850)" d="M1943.79 27.2059 L1951.25 27.2059 L1951.25 72.576 L1943.79 72.576 L1943.79 27.2059 M1943.79 9.54393 L1951.25 9.54393 L1951.25 18.9825 L1943.79 18.9825 L1943.79 9.54393 Z" fill="#000000" fill-rule="nonzero" fill-opacity="1" /><path clip-path="url(#clip850)" d="M1993.13 34.1734 Q1991.88 33.4443 1990.38 33.1202 Q1988.92 32.7556 1987.14 32.7556 Q1980.82 32.7556 1977.41 36.8875 Q1974.05 40.9789 1974.05 48.6757 L1974.05 72.576 L1966.56 72.576 L1966.56 27.2059 L1974.05 27.2059 L1974.05 34.2544 Q1976.4 30.1225 1980.17 28.1376 Q1983.94 26.1121 1989.32 26.1121 Q1990.09 26.1121 1991.03 26.2337 Q1991.96 26.3147 1993.09 26.5172 L1993.13 34.1734 Z" fill="#000000" fill-rule="nonzero" fill-opacity="1" /><polyline clip-path="url(#clip852)" style="stroke:#009af9; stroke-linecap:round; stroke-linejoin:round; stroke-width:4; stroke-opacity:1; fill:none" points="483.262,1386.4 684.933,1265.51 886.605,1121.6 1088.28,989.209 1289.95,798.105 1491.62,715.221 1693.29,702.351 1894.96,422.423 2096.63,432.934 2298.3,160.256 "/>
<path clip-path="url(#clip850)" d="M492.942 270.476 L737.767 270.476 L737.767 166.796 L492.942 166.796  Z" fill="#ffffff" fill-rule="evenodd" fill-opacity="1"/>
<polyline clip-path="url(#clip850)" style="stroke:#000000; stroke-linecap:round; stroke-linejoin:round; stroke-width:4; stroke-opacity:1; fill:none" points="492.942,270.476 737.767,270.476 737.767,166.796 492.942,166.796 492.942,270.476 "/>
<polyline clip-path="url(#clip850)" style="stroke:#009af9; stroke-linecap:round; stroke-linejoin:round; stroke-width:4; stroke-opacity:1; fill:none" points="514.319,218.636 642.582,218.636 "/>
<path clip-path="url(#clip850)" d="M677.802 238.323 Q675.996 242.953 674.283 244.365 Q672.57 245.777 669.7 245.777 L666.297 245.777 L666.297 242.212 L668.797 242.212 Q670.557 242.212 671.529 241.379 Q672.501 240.545 673.682 237.443 L674.445 235.499 L663.959 209.99 L668.473 209.99 L676.575 230.268 L684.677 209.99 L689.191 209.99 L677.802 238.323 Z" fill="#000000" fill-rule="nonzero" fill-opacity="1" /><path clip-path="url(#clip850)" d="M696.482 231.981 L704.121 231.981 L704.121 205.615 L695.811 207.282 L695.811 203.022 L704.075 201.356 L708.751 201.356 L708.751 231.981 L716.39 231.981 L716.39 235.916 L696.482 235.916 L696.482 231.981 Z" fill="#000000" fill-rule="nonzero" fill-opacity="1" /></svg>
