<?xml version="1.0" encoding="utf-8"?>
<svg xmlns="http://www.w3.org/2000/svg" xmlns:xlink="http://www.w3.org/1999/xlink" width="600" height="400" viewBox="0 0 2400 1600">
<defs>
  <clipPath id="clip210">
    <rect x="0" y="0" width="2400" height="1600"/>
  </clipPath>
</defs>
<path clip-path="url(#clip210)" d="M0 1600 L2400 1600 L2400 0 L0 0  Z" fill="#ffffff" fill-rule="evenodd" fill-opacity="1"/>
<defs>
  <clipPath id="clip211">
    <rect x="480" y="0" width="1681" height="1600"/>
  </clipPath>
</defs>
<path clip-path="url(#clip210)" d="M235.283 1423.18 L2352.76 1423.18 L2352.76 123.472 L235.283 123.472  Z" fill="#ffffff" fill-rule="evenodd" fill-opacity="1"/>
<defs>
  <clipPath id="clip212">
    <rect x="235" y="123" width="2118" height="1301"/>
  </clipPath>
</defs>
<polyline clip-path="url(#clip212)" style="stroke:#000000; stroke-linecap:round; stroke-linejoin:round; stroke-width:2; stroke-opacity:0.1; fill:none" points="351.748,1423.18 351.748,123.472 "/>
<polyline clip-path="url(#clip212)" style="stroke:#000000; stroke-linecap:round; stroke-linejoin:round; stroke-width:2; stroke-opacity:0.1; fill:none" points="770.535,1423.18 770.535,123.472 "/>
<polyline clip-path="url(#clip212)" style="stroke:#000000; stroke-linecap:round; stroke-linejoin:round; stroke-width:2; stroke-opacity:0.1; fill:none" points="1189.32,1423.18 1189.32,123.472 "/>
<polyline clip-path="url(#clip212)" style="stroke:#000000; stroke-linecap:round; stroke-linejoin:round; stroke-width:2; stroke-opacity:0.1; fill:none" points="1608.11,1423.18 1608.11,123.472 "/>
<polyline clip-path="url(#clip212)" style="stroke:#000000; stroke-linecap:round; stroke-linejoin:round; stroke-width:2; stroke-opacity:0.1; fill:none" points="2026.9,1423.18 2026.9,123.472 "/>
<polyline clip-path="url(#clip212)" style="stroke:#000000; stroke-linecap:round; stroke-linejoin:round; stroke-width:2; stroke-opacity:0.1; fill:none" points="235.283,1423.18 2352.76,1423.18 "/>
<polyline clip-path="url(#clip212)" style="stroke:#000000; stroke-linecap:round; stroke-linejoin:round; stroke-width:2; stroke-opacity:0.1; fill:none" points="235.283,1162.72 2352.76,1162.72 "/>
<polyline clip-path="url(#clip212)" style="stroke:#000000; stroke-linecap:round; stroke-linejoin:round; stroke-width:2; stroke-opacity:0.1; fill:none" points="235.283,902.255 2352.76,902.255 "/>
<polyline clip-path="url(#clip212)" style="stroke:#000000; stroke-linecap:round; stroke-linejoin:round; stroke-width:2; stroke-opacity:0.1; fill:none" points="235.283,641.792 2352.76,641.792 "/>
<polyline clip-path="url(#clip212)" style="stroke:#000000; stroke-linecap:round; stroke-linejoin:round; stroke-width:2; stroke-opacity:0.1; fill:none" points="235.283,381.33 2352.76,381.33 "/>
<polyline clip-path="url(#clip210)" style="stroke:#000000; stroke-linecap:round; stroke-linejoin:round; stroke-width:4; stroke-opacity:1; fill:none" points="235.283,1423.18 2352.76,1423.18 "/>
<polyline clip-path="url(#clip210)" style="stroke:#000000; stroke-linecap:round; stroke-linejoin:round; stroke-width:4; stroke-opacity:1; fill:none" points="351.748,1423.18 351.748,1404.28 "/>
<polyline clip-path="url(#clip210)" style="stroke:#000000; stroke-linecap:round; stroke-linejoin:round; stroke-width:4; stroke-opacity:1; fill:none" points="770.535,1423.18 770.535,1404.28 "/>
<polyline clip-path="url(#clip210)" style="stroke:#000000; stroke-linecap:round; stroke-linejoin:round; stroke-width:4; stroke-opacity:1; fill:none" points="1189.32,1423.18 1189.32,1404.28 "/>
<polyline clip-path="url(#clip210)" style="stroke:#000000; stroke-linecap:round; stroke-linejoin:round; stroke-width:4; stroke-opacity:1; fill:none" points="1608.11,1423.18 1608.11,1404.28 "/>
<polyline clip-path="url(#clip210)" style="stroke:#000000; stroke-linecap:round; stroke-linejoin:round; stroke-width:4; stroke-opacity:1; fill:none" points="2026.9,1423.18 2026.9,1404.28 "/>
<path clip-path="url(#clip210)" d="M305.81 1468.75 L335.486 1468.75 L335.486 1472.69 L305.81 1472.69 L305.81 1468.75 Z" fill="#000000" fill-rule="nonzero" fill-opacity="1" /><path clip-path="url(#clip210)" d="M345.625 1451.02 L363.981 1451.02 L363.981 1454.96 L349.907 1454.96 L349.907 1463.43 Q350.926 1463.08 351.944 1462.92 Q352.963 1462.73 353.981 1462.73 Q359.768 1462.73 363.148 1465.9 Q366.528 1469.08 366.528 1474.49 Q366.528 1480.07 363.055 1483.17 Q359.583 1486.25 353.264 1486.25 Q351.088 1486.25 348.819 1485.88 Q346.574 1485.51 344.167 1484.77 L344.167 1480.07 Q346.25 1481.2 348.472 1481.76 Q350.694 1482.32 353.171 1482.32 Q357.176 1482.32 359.514 1480.21 Q361.852 1478.1 361.852 1474.49 Q361.852 1470.88 359.514 1468.77 Q357.176 1466.67 353.171 1466.67 Q351.296 1466.67 349.421 1467.08 Q347.569 1467.5 345.625 1468.38 L345.625 1451.02 Z" fill="#000000" fill-rule="nonzero" fill-opacity="1" /><path clip-path="url(#clip210)" d="M385.741 1454.1 Q382.129 1454.1 380.301 1457.66 Q378.495 1461.2 378.495 1468.33 Q378.495 1475.44 380.301 1479.01 Q382.129 1482.55 385.741 1482.55 Q389.375 1482.55 391.18 1479.01 Q393.009 1475.44 393.009 1468.33 Q393.009 1461.2 391.18 1457.66 Q389.375 1454.1 385.741 1454.1 M385.741 1450.39 Q391.551 1450.39 394.606 1455 Q397.685 1459.58 397.685 1468.33 Q397.685 1477.06 394.606 1481.67 Q391.551 1486.25 385.741 1486.25 Q379.93 1486.25 376.852 1481.67 Q373.796 1477.06 373.796 1468.33 Q373.796 1459.58 376.852 1455 Q379.93 1450.39 385.741 1450.39 Z" fill="#000000" fill-rule="nonzero" fill-opacity="1" /><path clip-path="url(#clip210)" d="M770.535 1454.1 Q766.924 1454.1 765.095 1457.66 Q763.29 1461.2 763.29 1468.33 Q763.29 1475.44 765.095 1479.01 Q766.924 1482.55 770.535 1482.55 Q774.169 1482.55 775.975 1479.01 Q777.804 1475.44 777.804 1468.33 Q777.804 1461.2 775.975 1457.66 Q774.169 1454.1 770.535 1454.1 M770.535 1450.39 Q776.345 1450.39 779.401 1455 Q782.479 1459.58 782.479 1468.33 Q782.479 1477.06 779.401 1481.67 Q776.345 1486.25 770.535 1486.25 Q764.725 1486.25 761.646 1481.67 Q758.591 1477.06 758.591 1468.33 Q758.591 1459.58 761.646 1455 Q764.725 1450.39 770.535 1450.39 Z" fill="#000000" fill-rule="nonzero" fill-opacity="1" /><path clip-path="url(#clip210)" d="M1164.02 1451.02 L1182.38 1451.02 L1182.38 1454.96 L1168.3 1454.96 L1168.3 1463.43 Q1169.32 1463.08 1170.34 1462.92 Q1171.36 1462.73 1172.38 1462.73 Q1178.17 1462.73 1181.54 1465.9 Q1184.92 1469.08 1184.92 1474.49 Q1184.92 1480.07 1181.45 1483.17 Q1177.98 1486.25 1171.66 1486.25 Q1169.48 1486.25 1167.22 1485.88 Q1164.97 1485.51 1162.56 1484.77 L1162.56 1480.07 Q1164.65 1481.2 1166.87 1481.76 Q1169.09 1482.32 1171.57 1482.32 Q1175.57 1482.32 1177.91 1480.21 Q1180.25 1478.1 1180.25 1474.49 Q1180.25 1470.88 1177.91 1468.77 Q1175.57 1466.67 1171.57 1466.67 Q1169.69 1466.67 1167.82 1467.08 Q1165.97 1467.5 1164.02 1468.38 L1164.02 1451.02 Z" fill="#000000" fill-rule="nonzero" fill-opacity="1" /><path clip-path="url(#clip210)" d="M1204.14 1454.1 Q1200.53 1454.1 1198.7 1457.66 Q1196.89 1461.2 1196.89 1468.33 Q1196.89 1475.44 1198.7 1479.01 Q1200.53 1482.55 1204.14 1482.55 Q1207.77 1482.55 1209.58 1479.01 Q1211.41 1475.44 1211.41 1468.33 Q1211.41 1461.2 1209.58 1457.66 Q1207.77 1454.1 1204.14 1454.1 M1204.14 1450.39 Q1209.95 1450.39 1213 1455 Q1216.08 1459.58 1216.08 1468.33 Q1216.08 1477.06 1213 1481.67 Q1209.95 1486.25 1204.14 1486.25 Q1198.33 1486.25 1195.25 1481.67 Q1192.19 1477.06 1192.19 1468.33 Q1192.19 1459.58 1195.25 1455 Q1198.33 1450.39 1204.14 1450.39 Z" fill="#000000" fill-rule="nonzero" fill-opacity="1" /><path clip-path="url(#clip210)" d="M1567.72 1481.64 L1575.36 1481.64 L1575.36 1455.28 L1567.05 1456.95 L1567.05 1452.69 L1575.31 1451.02 L1579.99 1451.02 L1579.99 1481.64 L1587.62 1481.64 L1587.62 1485.58 L1567.72 1485.58 L1567.72 1481.64 Z" fill="#000000" fill-rule="nonzero" fill-opacity="1" /><path clip-path="url(#clip210)" d="M1607.07 1454.1 Q1603.46 1454.1 1601.63 1457.66 Q1599.82 1461.2 1599.82 1468.33 Q1599.82 1475.44 1601.63 1479.01 Q1603.46 1482.55 1607.07 1482.55 Q1610.7 1482.55 1612.51 1479.01 Q1614.34 1475.44 1614.34 1468.33 Q1614.34 1461.2 1612.51 1457.66 Q1610.7 1454.1 1607.07 1454.1 M1607.07 1450.39 Q1612.88 1450.39 1615.93 1455 Q1619.01 1459.58 1619.01 1468.33 Q1619.01 1477.06 1615.93 1481.67 Q1612.88 1486.25 1607.07 1486.25 Q1601.26 1486.25 1598.18 1481.67 Q1595.12 1477.06 1595.12 1468.33 Q1595.12 1459.58 1598.18 1455 Q1601.26 1450.39 1607.07 1450.39 Z" fill="#000000" fill-rule="nonzero" fill-opacity="1" /><path clip-path="url(#clip210)" d="M1637.23 1454.1 Q1633.62 1454.1 1631.79 1457.66 Q1629.98 1461.2 1629.98 1468.33 Q1629.98 1475.44 1631.79 1479.01 Q1633.62 1482.55 1637.23 1482.55 Q1640.86 1482.55 1642.67 1479.01 Q1644.5 1475.44 1644.5 1468.33 Q1644.5 1461.2 1642.67 1457.66 Q1640.86 1454.1 1637.23 1454.1 M1637.23 1450.39 Q1643.04 1450.39 1646.1 1455 Q1649.17 1459.58 1649.17 1468.33 Q1649.17 1477.06 1646.1 1481.67 Q1643.04 1486.25 1637.23 1486.25 Q1631.42 1486.25 1628.34 1481.67 Q1625.29 1477.06 1625.29 1468.33 Q1625.29 1459.58 1628.34 1455 Q1631.42 1450.39 1637.23 1450.39 Z" fill="#000000" fill-rule="nonzero" fill-opacity="1" /><path clip-path="url(#clip210)" d="M1986.5 1481.64 L1994.14 1481.64 L1994.14 1455.28 L1985.83 1456.95 L1985.83 1452.69 L1994.1 1451.02 L1998.77 1451.02 L1998.77 1481.64 L2006.41 1481.64 L2006.41 1485.58 L1986.5 1485.58 L1986.5 1481.64 Z" fill="#000000" fill-rule="nonzero" fill-opacity="1" /><path clip-path="url(#clip210)" d="M2015.9 1451.02 L2034.26 1451.02 L2034.26 1454.96 L2020.18 1454.96 L2020.18 1463.43 Q2021.2 1463.08 2022.22 1462.92 Q2023.24 1462.73 2024.26 1462.73 Q2030.05 1462.73 2033.43 1465.9 Q2036.8 1469.08 2036.8 1474.49 Q2036.8 1480.07 2033.33 1483.17 Q2029.86 1486.25 2023.54 1486.25 Q2021.37 1486.25 2019.1 1485.88 Q2016.85 1485.51 2014.44 1484.77 L2014.44 1480.07 Q2016.53 1481.2 2018.75 1481.76 Q2020.97 1482.32 2023.45 1482.32 Q2027.45 1482.32 2029.79 1480.21 Q2032.13 1478.1 2032.13 1474.49 Q2032.13 1470.88 2029.79 1468.77 Q2027.45 1466.67 2023.45 1466.67 Q2021.57 1466.67 2019.7 1467.08 Q2017.85 1467.5 2015.9 1468.38 L2015.9 1451.02 Z" fill="#000000" fill-rule="nonzero" fill-opacity="1" /><path clip-path="url(#clip210)" d="M2056.02 1454.1 Q2052.41 1454.1 2050.58 1457.66 Q2048.77 1461.2 2048.77 1468.33 Q2048.77 1475.44 2050.58 1479.01 Q2052.41 1482.55 2056.02 1482.55 Q2059.65 1482.55 2061.46 1479.01 Q2063.29 1475.44 2063.29 1468.33 Q2063.29 1461.2 2061.46 1457.66 Q2059.65 1454.1 2056.02 1454.1 M2056.02 1450.39 Q2061.83 1450.39 2064.88 1455 Q2067.96 1459.58 2067.96 1468.33 Q2067.96 1477.06 2064.88 1481.67 Q2061.83 1486.25 2056.02 1486.25 Q2050.21 1486.25 2047.13 1481.67 Q2044.07 1477.06 2044.07 1468.33 Q2044.07 1459.58 2047.13 1455 Q2050.21 1450.39 2056.02 1450.39 Z" fill="#000000" fill-rule="nonzero" fill-opacity="1" /><path clip-path="url(#clip210)" d="M1060.03 1522.08 L1060.03 1528.35 Q1056.37 1526.6 1053.13 1525.74 Q1049.88 1524.88 1046.85 1524.88 Q1041.6 1524.88 1038.74 1526.92 Q1035.91 1528.96 1035.91 1532.71 Q1035.91 1535.87 1037.78 1537.49 Q1039.69 1539.08 1044.98 1540.07 L1048.86 1540.86 Q1056.05 1542.23 1059.46 1545.7 Q1062.9 1549.14 1062.9 1554.93 Q1062.9 1561.84 1058.25 1565.4 Q1053.63 1568.97 1044.69 1568.97 Q1041.32 1568.97 1037.5 1568.2 Q1033.71 1567.44 1029.64 1565.94 L1029.64 1559.32 Q1033.55 1561.52 1037.31 1562.63 Q1041.06 1563.75 1044.69 1563.75 Q1050.2 1563.75 1053.19 1561.58 Q1056.18 1559.42 1056.18 1555.41 Q1056.18 1551.91 1054.02 1549.93 Q1051.88 1547.96 1046.98 1546.97 L1043.07 1546.21 Q1035.87 1544.78 1032.66 1541.72 Q1029.44 1538.67 1029.44 1533.22 Q1029.44 1526.92 1033.87 1523.29 Q1038.32 1519.66 1046.12 1519.66 Q1049.46 1519.66 1052.93 1520.27 Q1056.4 1520.87 1060.03 1522.08 Z" fill="#000000" fill-rule="nonzero" fill-opacity="1" /><path clip-path="url(#clip210)" d="M1072.06 1553.98 L1072.06 1532.4 L1077.92 1532.4 L1077.92 1553.75 Q1077.92 1558.81 1079.89 1561.36 Q1081.87 1563.87 1085.81 1563.87 Q1090.56 1563.87 1093.29 1560.85 Q1096.06 1557.83 1096.06 1552.61 L1096.06 1532.4 L1101.92 1532.4 L1101.92 1568.04 L1096.06 1568.04 L1096.06 1562.57 Q1093.93 1565.82 1091.1 1567.41 Q1088.3 1568.97 1084.57 1568.97 Q1078.43 1568.97 1075.25 1565.15 Q1072.06 1561.33 1072.06 1553.98 M1086.8 1531.54 L1086.8 1531.54 Z" fill="#000000" fill-rule="nonzero" fill-opacity="1" /><path clip-path="url(#clip210)" d="M1141.74 1539.24 Q1143.93 1535.29 1146.99 1533.41 Q1150.04 1531.54 1154.18 1531.54 Q1159.75 1531.54 1162.77 1535.45 Q1165.8 1539.33 1165.8 1546.53 L1165.8 1568.04 L1159.91 1568.04 L1159.91 1546.72 Q1159.91 1541.59 1158.1 1539.11 Q1156.28 1536.63 1152.56 1536.63 Q1148.01 1536.63 1145.36 1539.65 Q1142.72 1542.68 1142.72 1547.9 L1142.72 1568.04 L1136.83 1568.04 L1136.83 1546.72 Q1136.83 1541.56 1135.02 1539.11 Q1133.21 1536.63 1129.42 1536.63 Q1124.93 1536.63 1122.29 1539.68 Q1119.65 1542.71 1119.65 1547.9 L1119.65 1568.04 L1113.76 1568.04 L1113.76 1532.4 L1119.65 1532.4 L1119.65 1537.93 Q1121.65 1534.66 1124.45 1533.1 Q1127.25 1531.54 1131.11 1531.54 Q1134.99 1531.54 1137.69 1533.51 Q1140.43 1535.48 1141.74 1539.24 Z" fill="#000000" fill-rule="nonzero" fill-opacity="1" /><path clip-path="url(#clip210)" d="M1212.27 1518.58 Q1208 1525.9 1205.93 1533.06 Q1203.87 1540.23 1203.87 1547.58 Q1203.87 1554.93 1205.93 1562.16 Q1208.03 1569.35 1212.27 1576.64 L1207.18 1576.64 Q1202.4 1569.16 1200.01 1561.93 Q1197.66 1554.71 1197.66 1547.58 Q1197.66 1540.48 1200.01 1533.29 Q1202.37 1526.09 1207.18 1518.58 L1212.27 1518.58 Z" fill="#000000" fill-rule="nonzero" fill-opacity="1" /><path clip-path="url(#clip210)" d="M1239.77 1526.86 L1231.05 1550.51 L1248.52 1550.51 L1239.77 1526.86 M1236.14 1520.52 L1243.43 1520.52 L1261.54 1568.04 L1254.85 1568.04 L1250.53 1555.85 L1229.11 1555.85 L1224.78 1568.04 L1218 1568.04 L1236.14 1520.52 Z" fill="#000000" fill-rule="nonzero" fill-opacity="1" /><path clip-path="url(#clip210)" d="M1274.91 1525.81 L1274.91 1562.76 L1282.67 1562.76 Q1292.51 1562.76 1297.06 1558.3 Q1301.64 1553.85 1301.64 1544.24 Q1301.64 1534.69 1297.06 1530.26 Q1292.51 1525.81 1282.67 1525.81 L1274.91 1525.81 M1268.48 1520.52 L1281.69 1520.52 Q1295.5 1520.52 1301.96 1526.28 Q1308.42 1532.01 1308.42 1544.24 Q1308.42 1556.52 1301.93 1562.28 Q1295.44 1568.04 1281.69 1568.04 L1268.48 1568.04 L1268.48 1520.52 Z" fill="#000000" fill-rule="nonzero" fill-opacity="1" /><path clip-path="url(#clip210)" d="M1354.25 1524.18 L1354.25 1530.96 Q1351.01 1527.94 1347.32 1526.44 Q1343.66 1524.95 1339.52 1524.95 Q1331.37 1524.95 1327.04 1529.95 Q1322.71 1534.91 1322.71 1544.33 Q1322.71 1553.72 1327.04 1558.72 Q1331.37 1563.68 1339.52 1563.68 Q1343.66 1563.68 1347.32 1562.19 Q1351.01 1560.69 1354.25 1557.67 L1354.25 1564.38 Q1350.88 1566.68 1347.09 1567.82 Q1343.34 1568.97 1339.14 1568.97 Q1328.35 1568.97 1322.14 1562.38 Q1315.93 1555.76 1315.93 1544.33 Q1315.93 1532.87 1322.14 1526.28 Q1328.35 1519.66 1339.14 1519.66 Q1343.4 1519.66 1347.16 1520.81 Q1350.94 1521.92 1354.25 1524.18 Z" fill="#000000" fill-rule="nonzero" fill-opacity="1" /><path clip-path="url(#clip210)" d="M1384.05 1553.98 L1384.05 1532.4 L1389.9 1532.4 L1389.9 1553.75 Q1389.9 1558.81 1391.88 1561.36 Q1393.85 1563.87 1397.8 1563.87 Q1402.54 1563.87 1405.28 1560.85 Q1408.05 1557.83 1408.05 1552.61 L1408.05 1532.4 L1413.9 1532.4 L1413.9 1568.04 L1408.05 1568.04 L1408.05 1562.57 Q1405.91 1565.82 1403.08 1567.41 Q1400.28 1568.97 1396.55 1568.97 Q1390.41 1568.97 1387.23 1565.15 Q1384.05 1561.33 1384.05 1553.98 M1398.78 1531.54 L1398.78 1531.54 Z" fill="#000000" fill-rule="nonzero" fill-opacity="1" /><path clip-path="url(#clip210)" d="M1455.6 1546.53 L1455.6 1568.04 L1449.74 1568.04 L1449.74 1546.72 Q1449.74 1541.66 1447.77 1539.14 Q1445.79 1536.63 1441.85 1536.63 Q1437.1 1536.63 1434.37 1539.65 Q1431.63 1542.68 1431.63 1547.9 L1431.63 1568.04 L1425.74 1568.04 L1425.74 1532.4 L1431.63 1532.4 L1431.63 1537.93 Q1433.73 1534.72 1436.56 1533.13 Q1439.43 1531.54 1443.15 1531.54 Q1449.29 1531.54 1452.45 1535.36 Q1455.6 1539.14 1455.6 1546.53 Z" fill="#000000" fill-rule="nonzero" fill-opacity="1" /><path clip-path="url(#clip210)" d="M1467.28 1532.4 L1473.13 1532.4 L1473.13 1568.04 L1467.28 1568.04 L1467.28 1532.4 M1467.28 1518.52 L1473.13 1518.52 L1473.13 1525.93 L1467.28 1525.93 L1467.28 1518.52 Z" fill="#000000" fill-rule="nonzero" fill-opacity="1" /><path clip-path="url(#clip210)" d="M1491.18 1522.27 L1491.18 1532.4 L1503.24 1532.4 L1503.24 1536.95 L1491.18 1536.95 L1491.18 1556.3 Q1491.18 1560.66 1492.36 1561.9 Q1493.57 1563.14 1497.23 1563.14 L1503.24 1563.14 L1503.24 1568.04 L1497.23 1568.04 Q1490.45 1568.04 1487.87 1565.53 Q1485.29 1562.98 1485.29 1556.3 L1485.29 1536.95 L1481 1536.95 L1481 1532.4 L1485.29 1532.4 L1485.29 1522.27 L1491.18 1522.27 Z" fill="#000000" fill-rule="nonzero" fill-opacity="1" /><path clip-path="url(#clip210)" d="M1533.67 1533.45 L1533.67 1538.98 Q1531.19 1537.71 1528.52 1537.07 Q1525.84 1536.44 1522.98 1536.44 Q1518.62 1536.44 1516.42 1537.77 Q1514.26 1539.11 1514.26 1541.79 Q1514.26 1543.82 1515.82 1545 Q1517.38 1546.15 1522.09 1547.2 L1524.09 1547.64 Q1530.33 1548.98 1532.94 1551.43 Q1535.58 1553.85 1535.58 1558.21 Q1535.58 1563.17 1531.64 1566.07 Q1527.72 1568.97 1520.85 1568.97 Q1517.98 1568.97 1514.86 1568.39 Q1511.77 1567.85 1508.34 1566.74 L1508.34 1560.69 Q1511.58 1562.38 1514.73 1563.24 Q1517.89 1564.07 1520.97 1564.07 Q1525.11 1564.07 1527.34 1562.66 Q1529.57 1561.23 1529.57 1558.65 Q1529.57 1556.27 1527.94 1554.99 Q1526.35 1553.72 1520.91 1552.54 L1518.87 1552.07 Q1513.43 1550.92 1511.01 1548.56 Q1508.59 1546.18 1508.59 1542.04 Q1508.59 1537.01 1512.16 1534.27 Q1515.72 1531.54 1522.28 1531.54 Q1525.52 1531.54 1528.39 1532.01 Q1531.25 1532.49 1533.67 1533.45 Z" fill="#000000" fill-rule="nonzero" fill-opacity="1" /><path clip-path="url(#clip210)" d="M1543.98 1518.58 L1549.08 1518.58 Q1553.85 1526.09 1556.21 1533.29 Q1558.59 1540.48 1558.59 1547.58 Q1558.59 1554.71 1556.21 1561.93 Q1553.85 1569.16 1549.08 1576.64 L1543.98 1576.64 Q1548.22 1569.35 1550.29 1562.16 Q1552.39 1554.93 1552.39 1547.58 Q1552.39 1540.23 1550.29 1533.06 Q1548.22 1525.9 1543.98 1518.58 Z" fill="#000000" fill-rule="nonzero" fill-opacity="1" /><polyline clip-path="url(#clip210)" style="stroke:#000000; stroke-linecap:round; stroke-linejoin:round; stroke-width:4; stroke-opacity:1; fill:none" points="235.283,1423.18 235.283,123.472 "/>
<polyline clip-path="url(#clip210)" style="stroke:#000000; stroke-linecap:round; stroke-linejoin:round; stroke-width:4; stroke-opacity:1; fill:none" points="235.283,1423.18 254.18,1423.18 "/>
<polyline clip-path="url(#clip210)" style="stroke:#000000; stroke-linecap:round; stroke-linejoin:round; stroke-width:4; stroke-opacity:1; fill:none" points="235.283,1162.72 254.18,1162.72 "/>
<polyline clip-path="url(#clip210)" style="stroke:#000000; stroke-linecap:round; stroke-linejoin:round; stroke-width:4; stroke-opacity:1; fill:none" points="235.283,902.255 254.18,902.255 "/>
<polyline clip-path="url(#clip210)" style="stroke:#000000; stroke-linecap:round; stroke-linejoin:round; stroke-width:4; stroke-opacity:1; fill:none" points="235.283,641.792 254.18,641.792 "/>
<polyline clip-path="url(#clip210)" style="stroke:#000000; stroke-linecap:round; stroke-linejoin:round; stroke-width:4; stroke-opacity:1; fill:none" points="235.283,381.33 254.18,381.33 "/>
<path clip-path="url(#clip210)" d="M187.338 1408.98 Q183.727 1408.98 181.899 1412.54 Q180.093 1416.08 180.093 1423.21 Q180.093 1430.32 181.899 1433.89 Q183.727 1437.43 187.338 1437.43 Q190.973 1437.43 192.778 1433.89 Q194.607 1430.32 194.607 1423.21 Q194.607 1416.08 192.778 1412.54 Q190.973 1408.98 187.338 1408.98 M187.338 1405.27 Q193.149 1405.27 196.204 1409.88 Q199.283 1414.46 199.283 1423.21 Q199.283 1431.94 196.204 1436.55 Q193.149 1441.13 187.338 1441.13 Q181.528 1441.13 178.45 1436.55 Q175.394 1431.94 175.394 1423.21 Q175.394 1414.46 178.45 1409.88 Q181.528 1405.27 187.338 1405.27 Z" fill="#000000" fill-rule="nonzero" fill-opacity="1" /><path clip-path="url(#clip210)" d="M121.043 1176.06 L137.362 1176.06 L137.362 1180 L115.418 1180 L115.418 1176.06 Q118.08 1173.31 122.663 1168.68 Q127.269 1164.03 128.45 1162.68 Q130.695 1160.16 131.575 1158.42 Q132.478 1156.66 132.478 1154.97 Q132.478 1152.22 130.533 1150.48 Q128.612 1148.75 125.51 1148.75 Q123.311 1148.75 120.857 1149.51 Q118.427 1150.28 115.649 1151.83 L115.649 1147.1 Q118.473 1145.97 120.927 1145.39 Q123.38 1144.81 125.418 1144.81 Q130.788 1144.81 133.982 1147.5 Q137.177 1150.18 137.177 1154.67 Q137.177 1156.8 136.367 1158.72 Q135.579 1160.62 133.473 1163.22 Q132.894 1163.89 129.792 1167.1 Q126.691 1170.3 121.043 1176.06 Z" fill="#000000" fill-rule="nonzero" fill-opacity="1" /><path clip-path="url(#clip210)" d="M157.177 1148.52 Q153.566 1148.52 151.737 1152.08 Q149.931 1155.62 149.931 1162.75 Q149.931 1169.86 151.737 1173.42 Q153.566 1176.96 157.177 1176.96 Q160.811 1176.96 162.616 1173.42 Q164.445 1169.86 164.445 1162.75 Q164.445 1155.62 162.616 1152.08 Q160.811 1148.52 157.177 1148.52 M157.177 1144.81 Q162.987 1144.81 166.042 1149.42 Q169.121 1154 169.121 1162.75 Q169.121 1171.48 166.042 1176.09 Q162.987 1180.67 157.177 1180.67 Q151.366 1180.67 148.288 1176.09 Q145.232 1171.48 145.232 1162.75 Q145.232 1154 148.288 1149.42 Q151.366 1144.81 157.177 1144.81 Z" fill="#000000" fill-rule="nonzero" fill-opacity="1" /><path clip-path="url(#clip210)" d="M187.338 1148.52 Q183.727 1148.52 181.899 1152.08 Q180.093 1155.62 180.093 1162.75 Q180.093 1169.86 181.899 1173.42 Q183.727 1176.96 187.338 1176.96 Q190.973 1176.96 192.778 1173.42 Q194.607 1169.86 194.607 1162.75 Q194.607 1155.62 192.778 1152.08 Q190.973 1148.52 187.338 1148.52 M187.338 1144.81 Q193.149 1144.81 196.204 1149.42 Q199.283 1154 199.283 1162.75 Q199.283 1171.48 196.204 1176.09 Q193.149 1180.67 187.338 1180.67 Q181.528 1180.67 178.45 1176.09 Q175.394 1171.48 175.394 1162.75 Q175.394 1154 178.45 1149.42 Q181.528 1144.81 187.338 1144.81 Z" fill="#000000" fill-rule="nonzero" fill-opacity="1" /><path clip-path="url(#clip210)" d="M129.862 889.049 L118.056 907.498 L129.862 907.498 L129.862 889.049 M128.635 884.975 L134.515 884.975 L134.515 907.498 L139.445 907.498 L139.445 911.387 L134.515 911.387 L134.515 919.535 L129.862 919.535 L129.862 911.387 L114.26 911.387 L114.26 906.873 L128.635 884.975 Z" fill="#000000" fill-rule="nonzero" fill-opacity="1" /><path clip-path="url(#clip210)" d="M157.177 888.054 Q153.566 888.054 151.737 891.618 Q149.931 895.16 149.931 902.29 Q149.931 909.396 151.737 912.961 Q153.566 916.503 157.177 916.503 Q160.811 916.503 162.616 912.961 Q164.445 909.396 164.445 902.29 Q164.445 895.16 162.616 891.618 Q160.811 888.054 157.177 888.054 M157.177 884.35 Q162.987 884.35 166.042 888.956 Q169.121 893.54 169.121 902.29 Q169.121 911.016 166.042 915.623 Q162.987 920.206 157.177 920.206 Q151.366 920.206 148.288 915.623 Q145.232 911.016 145.232 902.29 Q145.232 893.54 148.288 888.956 Q151.366 884.35 157.177 884.35 Z" fill="#000000" fill-rule="nonzero" fill-opacity="1" /><path clip-path="url(#clip210)" d="M187.338 888.054 Q183.727 888.054 181.899 891.618 Q180.093 895.16 180.093 902.29 Q180.093 909.396 181.899 912.961 Q183.727 916.503 187.338 916.503 Q190.973 916.503 192.778 912.961 Q194.607 909.396 194.607 902.29 Q194.607 895.16 192.778 891.618 Q190.973 888.054 187.338 888.054 M187.338 884.35 Q193.149 884.35 196.204 888.956 Q199.283 893.54 199.283 902.29 Q199.283 911.016 196.204 915.623 Q193.149 920.206 187.338 920.206 Q181.528 920.206 178.45 915.623 Q175.394 911.016 175.394 902.29 Q175.394 893.54 178.45 888.956 Q181.528 884.35 187.338 884.35 Z" fill="#000000" fill-rule="nonzero" fill-opacity="1" /><path clip-path="url(#clip210)" d="M127.593 639.929 Q124.445 639.929 122.593 642.082 Q120.765 644.235 120.765 647.985 Q120.765 651.711 122.593 653.887 Q124.445 656.04 127.593 656.04 Q130.742 656.04 132.57 653.887 Q134.422 651.711 134.422 647.985 Q134.422 644.235 132.57 642.082 Q130.742 639.929 127.593 639.929 M136.876 625.276 L136.876 629.536 Q135.117 628.702 133.311 628.262 Q131.529 627.823 129.769 627.823 Q125.14 627.823 122.686 630.948 Q120.255 634.073 119.908 640.392 Q121.274 638.378 123.334 637.313 Q125.394 636.225 127.871 636.225 Q133.08 636.225 136.089 639.397 Q139.121 642.545 139.121 647.985 Q139.121 653.309 135.973 656.526 Q132.825 659.744 127.593 659.744 Q121.598 659.744 118.427 655.16 Q115.256 650.554 115.256 641.827 Q115.256 633.633 119.144 628.772 Q123.033 623.887 129.584 623.887 Q131.343 623.887 133.126 624.235 Q134.931 624.582 136.876 625.276 Z" fill="#000000" fill-rule="nonzero" fill-opacity="1" /><path clip-path="url(#clip210)" d="M157.177 627.591 Q153.566 627.591 151.737 631.156 Q149.931 634.698 149.931 641.827 Q149.931 648.934 151.737 652.498 Q153.566 656.04 157.177 656.04 Q160.811 656.04 162.616 652.498 Q164.445 648.934 164.445 641.827 Q164.445 634.698 162.616 631.156 Q160.811 627.591 157.177 627.591 M157.177 623.887 Q162.987 623.887 166.042 628.494 Q169.121 633.077 169.121 641.827 Q169.121 650.554 166.042 655.16 Q162.987 659.744 157.177 659.744 Q151.366 659.744 148.288 655.16 Q145.232 650.554 145.232 641.827 Q145.232 633.077 148.288 628.494 Q151.366 623.887 157.177 623.887 Z" fill="#000000" fill-rule="nonzero" fill-opacity="1" /><path clip-path="url(#clip210)" d="M187.338 627.591 Q183.727 627.591 181.899 631.156 Q180.093 634.698 180.093 641.827 Q180.093 648.934 181.899 652.498 Q183.727 656.04 187.338 656.04 Q190.973 656.04 192.778 652.498 Q194.607 648.934 194.607 641.827 Q194.607 634.698 192.778 631.156 Q190.973 627.591 187.338 627.591 M187.338 623.887 Q193.149 623.887 196.204 628.494 Q199.283 633.077 199.283 641.827 Q199.283 650.554 196.204 655.16 Q193.149 659.744 187.338 659.744 Q181.528 659.744 178.45 655.16 Q175.394 650.554 175.394 641.827 Q175.394 633.077 178.45 628.494 Q181.528 623.887 187.338 623.887 Z" fill="#000000" fill-rule="nonzero" fill-opacity="1" /><path clip-path="url(#clip210)" d="M127.015 382.198 Q123.681 382.198 121.76 383.98 Q119.862 385.763 119.862 388.888 Q119.862 392.013 121.76 393.795 Q123.681 395.578 127.015 395.578 Q130.348 395.578 132.269 393.795 Q134.191 391.99 134.191 388.888 Q134.191 385.763 132.269 383.98 Q130.371 382.198 127.015 382.198 M122.339 380.207 Q119.33 379.467 117.64 377.406 Q115.973 375.346 115.973 372.383 Q115.973 368.24 118.913 365.832 Q121.876 363.425 127.015 363.425 Q132.177 363.425 135.117 365.832 Q138.056 368.24 138.056 372.383 Q138.056 375.346 136.367 377.406 Q134.7 379.467 131.714 380.207 Q135.093 380.994 136.968 383.286 Q138.867 385.578 138.867 388.888 Q138.867 393.911 135.788 396.596 Q132.732 399.281 127.015 399.281 Q121.297 399.281 118.218 396.596 Q115.163 393.911 115.163 388.888 Q115.163 385.578 117.061 383.286 Q118.959 380.994 122.339 380.207 M120.626 372.823 Q120.626 375.508 122.293 377.013 Q123.982 378.517 127.015 378.517 Q130.024 378.517 131.714 377.013 Q133.427 375.508 133.427 372.823 Q133.427 370.138 131.714 368.633 Q130.024 367.129 127.015 367.129 Q123.982 367.129 122.293 368.633 Q120.626 370.138 120.626 372.823 Z" fill="#000000" fill-rule="nonzero" fill-opacity="1" /><path clip-path="url(#clip210)" d="M157.177 367.129 Q153.566 367.129 151.737 370.693 Q149.931 374.235 149.931 381.365 Q149.931 388.471 151.737 392.036 Q153.566 395.578 157.177 395.578 Q160.811 395.578 162.616 392.036 Q164.445 388.471 164.445 381.365 Q164.445 374.235 162.616 370.693 Q160.811 367.129 157.177 367.129 M157.177 363.425 Q162.987 363.425 166.042 368.031 Q169.121 372.615 169.121 381.365 Q169.121 390.091 166.042 394.698 Q162.987 399.281 157.177 399.281 Q151.366 399.281 148.288 394.698 Q145.232 390.091 145.232 381.365 Q145.232 372.615 148.288 368.031 Q151.366 363.425 157.177 363.425 Z" fill="#000000" fill-rule="nonzero" fill-opacity="1" /><path clip-path="url(#clip210)" d="M187.338 367.129 Q183.727 367.129 181.899 370.693 Q180.093 374.235 180.093 381.365 Q180.093 388.471 181.899 392.036 Q183.727 395.578 187.338 395.578 Q190.973 395.578 192.778 392.036 Q194.607 388.471 194.607 381.365 Q194.607 374.235 192.778 370.693 Q190.973 367.129 187.338 367.129 M187.338 363.425 Q193.149 363.425 196.204 368.031 Q199.283 372.615 199.283 381.365 Q199.283 390.091 196.204 394.698 Q193.149 399.281 187.338 399.281 Q181.528 399.281 178.45 394.698 Q175.394 390.091 175.394 381.365 Q175.394 372.615 178.45 368.031 Q181.528 363.425 187.338 363.425 Z" fill="#000000" fill-rule="nonzero" fill-opacity="1" /><path clip-path="url(#clip210)" d="M20.1444 845.354 L26.9239 845.354 Q23.9002 848.6 22.4043 852.293 Q20.9083 855.953 20.9083 860.091 Q20.9083 868.239 25.9054 872.567 Q30.8707 876.896 40.2919 876.896 Q49.6813 876.896 54.6784 872.567 Q59.6436 868.239 59.6436 860.091 Q59.6436 855.953 58.1477 852.293 Q56.6518 848.6 53.6281 845.354 L60.3439 845.354 Q62.6355 848.728 63.7814 852.515 Q64.9272 856.271 64.9272 860.473 Q64.9272 871.262 58.3387 877.469 Q51.7183 883.676 40.2919 883.676 Q28.8336 883.676 22.2451 877.469 Q15.6248 871.262 15.6248 860.473 Q15.6248 856.207 16.7706 852.452 Q17.8846 848.664 20.1444 845.354 Z" fill="#000000" fill-rule="nonzero" fill-opacity="1" /><path clip-path="url(#clip210)" d="M32.4621 821.864 Q32.4621 826.575 36.1542 829.312 Q39.8145 832.05 46.212 832.05 Q52.6095 832.05 56.3017 829.344 Q59.9619 826.607 59.9619 821.864 Q59.9619 817.186 56.2698 814.448 Q52.5777 811.711 46.212 811.711 Q39.8781 811.711 36.186 814.448 Q32.4621 817.186 32.4621 821.864 M27.4968 821.864 Q27.4968 814.226 32.4621 809.865 Q37.4273 805.505 46.212 805.505 Q54.9649 805.505 59.9619 809.865 Q64.9272 814.226 64.9272 821.864 Q64.9272 829.535 59.9619 833.896 Q54.9649 838.224 46.212 838.224 Q37.4273 838.224 32.4621 833.896 Q27.4968 829.535 27.4968 821.864 Z" fill="#000000" fill-rule="nonzero" fill-opacity="1" /><path clip-path="url(#clip210)" d="M49.9359 796.402 L28.3562 796.402 L28.3562 790.545 L49.7131 790.545 Q54.7739 790.545 57.3202 788.572 Q59.8346 786.598 59.8346 782.652 Q59.8346 777.909 56.8109 775.172 Q53.7872 772.403 48.5673 772.403 L28.3562 772.403 L28.3562 766.547 L64.0042 766.547 L64.0042 772.403 L58.5296 772.403 Q61.7762 774.535 63.3676 777.368 Q64.9272 780.169 64.9272 783.893 Q64.9272 790.036 61.1078 793.219 Q57.2883 796.402 49.9359 796.402 M27.4968 781.665 L27.4968 781.665 Z" fill="#000000" fill-rule="nonzero" fill-opacity="1" /><path clip-path="url(#clip210)" d="M42.4881 724.851 L64.0042 724.851 L64.0042 730.708 L42.679 730.708 Q37.6183 730.708 35.1038 732.681 Q32.5894 734.654 32.5894 738.601 Q32.5894 743.344 35.6131 746.081 Q38.6368 748.818 43.8567 748.818 L64.0042 748.818 L64.0042 754.706 L28.3562 754.706 L28.3562 748.818 L33.8944 748.818 Q30.6797 746.717 29.0883 743.885 Q27.4968 741.02 27.4968 737.296 Q27.4968 731.153 31.3163 728.002 Q35.1038 724.851 42.4881 724.851 Z" fill="#000000" fill-rule="nonzero" fill-opacity="1" /><path clip-path="url(#clip210)" d="M18.2347 707.377 L28.3562 707.377 L28.3562 695.314 L32.9077 695.314 L32.9077 707.377 L52.2594 707.377 Q56.6199 707.377 57.8613 706.2 Q59.1026 704.99 59.1026 701.33 L59.1026 695.314 L64.0042 695.314 L64.0042 701.33 Q64.0042 708.109 61.4897 710.687 Q58.9434 713.266 52.2594 713.266 L32.9077 713.266 L32.9077 717.562 L28.3562 717.562 L28.3562 713.266 L18.2347 713.266 L18.2347 707.377 Z" fill="#000000" fill-rule="nonzero" fill-opacity="1" /><path clip-path="url(#clip210)" d="M29.4065 664.886 L34.9447 664.886 Q33.6716 667.369 33.035 670.042 Q32.3984 672.716 32.3984 675.581 Q32.3984 679.941 33.7352 682.137 Q35.072 684.302 37.7456 684.302 Q39.7826 684.302 40.9603 682.742 Q42.1061 681.182 43.1565 676.472 L43.6021 674.467 Q44.9389 668.228 47.3897 665.618 Q49.8086 662.976 54.1691 662.976 Q59.1344 662.976 62.0308 666.923 Q64.9272 670.838 64.9272 677.713 Q64.9272 680.578 64.3543 683.697 Q63.8132 686.784 62.6992 690.222 L56.6518 690.222 Q58.3387 686.975 59.198 683.824 Q60.0256 680.673 60.0256 677.586 Q60.0256 673.448 58.6251 671.22 Q57.1929 668.992 54.6147 668.992 Q52.2276 668.992 50.9545 670.615 Q49.6813 672.207 48.5037 677.649 L48.0262 679.686 Q46.8804 685.129 44.5251 687.548 Q42.138 689.967 38.0002 689.967 Q32.9713 689.967 30.2341 686.402 Q27.4968 682.837 27.4968 676.281 Q27.4968 673.034 27.9743 670.17 Q28.4517 667.305 29.4065 664.886 Z" fill="#000000" fill-rule="nonzero" fill-opacity="1" /><path clip-path="url(#clip210)" d="M1075.96 18.8205 L1075.96 41.5461 L1086.25 41.5461 Q1091.96 41.5461 1095.08 38.5889 Q1098.2 35.6318 1098.2 30.163 Q1098.2 24.7348 1095.08 21.7777 Q1091.96 18.8205 1086.25 18.8205 L1075.96 18.8205 M1067.78 12.096 L1086.25 12.096 Q1096.42 12.096 1101.6 16.714 Q1106.83 21.2916 1106.83 30.163 Q1106.83 39.1155 1101.6 43.6931 Q1096.42 48.2706 1086.25 48.2706 L1075.96 48.2706 L1075.96 72.576 L1067.78 72.576 L1067.78 12.096 Z" fill="#000000" fill-rule="nonzero" fill-opacity="1" /><path clip-path="url(#clip210)" d="M1115.25 54.671 L1115.25 27.2059 L1122.71 27.2059 L1122.71 54.3874 Q1122.71 60.8284 1125.22 64.0691 Q1127.73 67.2693 1132.75 67.2693 Q1138.79 67.2693 1142.27 63.421 Q1145.8 59.5726 1145.8 52.9291 L1145.8 27.2059 L1153.25 27.2059 L1153.25 72.576 L1145.8 72.576 L1145.8 65.6084 Q1143.08 69.7404 1139.48 71.7658 Q1135.91 73.7508 1131.17 73.7508 Q1123.35 73.7508 1119.3 68.8897 Q1115.25 64.0286 1115.25 54.671 M1134.01 26.1121 L1134.01 26.1121 Z" fill="#000000" fill-rule="nonzero" fill-opacity="1" /><path clip-path="url(#clip210)" d="M1168.6 9.54393 L1176.06 9.54393 L1176.06 72.576 L1168.6 72.576 L1168.6 9.54393 Z" fill="#000000" fill-rule="nonzero" fill-opacity="1" /><path clip-path="url(#clip210)" d="M1220.58 28.5427 L1220.58 35.5912 Q1217.42 33.9709 1214.01 33.1607 Q1210.61 32.3505 1206.97 32.3505 Q1201.42 32.3505 1198.62 34.0519 Q1195.87 35.7533 1195.87 39.156 Q1195.87 41.7486 1197.85 43.2475 Q1199.84 44.7058 1205.83 46.0426 L1208.38 46.6097 Q1216.32 48.3111 1219.64 51.4303 Q1223.01 54.509 1223.01 60.0587 Q1223.01 66.3781 1217.98 70.0644 Q1213 73.7508 1204.25 73.7508 Q1200.61 73.7508 1196.64 73.0216 Q1192.71 72.3329 1188.33 70.9151 L1188.33 63.2184 Q1192.46 65.3654 1196.47 66.4591 Q1200.48 67.5124 1204.41 67.5124 Q1209.68 67.5124 1212.52 65.73 Q1215.35 63.9071 1215.35 60.6258 Q1215.35 57.5877 1213.28 55.9673 Q1211.26 54.3469 1204.33 52.8481 L1201.74 52.2405 Q1194.81 50.7821 1191.73 47.7845 Q1188.66 44.7463 1188.66 39.4801 Q1188.66 33.0797 1193.19 29.5959 Q1197.73 26.1121 1206.07 26.1121 Q1210.21 26.1121 1213.85 26.7198 Q1217.5 27.3274 1220.58 28.5427 Z" fill="#000000" fill-rule="nonzero" fill-opacity="1" /><path clip-path="url(#clip210)" d="M1273.68 48.0275 L1273.68 51.6733 L1239.41 51.6733 Q1239.9 59.3701 1244.03 63.421 Q1248.2 67.4314 1255.62 67.4314 Q1259.91 67.4314 1263.92 66.3781 Q1267.97 65.3249 1271.94 63.2184 L1271.94 70.267 Q1267.93 71.9684 1263.72 72.8596 Q1259.51 73.7508 1255.17 73.7508 Q1244.31 73.7508 1237.95 67.4314 Q1231.64 61.1119 1231.64 50.3365 Q1231.64 39.1965 1237.63 32.6746 Q1243.67 26.1121 1253.87 26.1121 Q1263.03 26.1121 1268.34 32.0264 Q1273.68 37.9003 1273.68 48.0275 M1266.23 45.84 Q1266.15 39.7232 1262.79 36.0774 Q1259.47 32.4315 1253.96 32.4315 Q1247.72 32.4315 1243.95 35.9558 Q1240.22 39.4801 1239.66 45.8805 L1266.23 45.84 Z" fill="#000000" fill-rule="nonzero" fill-opacity="1" /><path clip-path="url(#clip210)" d="M1341.21 28.5427 L1341.21 35.5912 Q1338.05 33.9709 1334.65 33.1607 Q1331.25 32.3505 1327.6 32.3505 Q1322.05 32.3505 1319.26 34.0519 Q1316.5 35.7533 1316.5 39.156 Q1316.5 41.7486 1318.49 43.2475 Q1320.47 44.7058 1326.47 46.0426 L1329.02 46.6097 Q1336.96 48.3111 1340.28 51.4303 Q1343.64 54.509 1343.64 60.0587 Q1343.64 66.3781 1338.62 70.0644 Q1333.64 73.7508 1324.89 73.7508 Q1321.24 73.7508 1317.27 73.0216 Q1313.34 72.3329 1308.97 70.9151 L1308.97 63.2184 Q1313.1 65.3654 1317.11 66.4591 Q1321.12 67.5124 1325.05 67.5124 Q1330.32 67.5124 1333.15 65.73 Q1335.99 63.9071 1335.99 60.6258 Q1335.99 57.5877 1333.92 55.9673 Q1331.9 54.3469 1324.97 52.8481 L1322.38 52.2405 Q1315.45 50.7821 1312.37 47.7845 Q1309.29 44.7463 1309.29 39.4801 Q1309.29 33.0797 1313.83 29.5959 Q1318.37 26.1121 1326.71 26.1121 Q1330.84 26.1121 1334.49 26.7198 Q1338.13 27.3274 1341.21 28.5427 Z" fill="#000000" fill-rule="nonzero" fill-opacity="1" /><path clip-path="url(#clip210)" d="M1354.74 54.671 L1354.74 27.2059 L1362.2 27.2059 L1362.2 54.3874 Q1362.2 60.8284 1364.71 64.0691 Q1367.22 67.2693 1372.24 67.2693 Q1378.28 67.2693 1381.76 63.421 Q1385.29 59.5726 1385.29 52.9291 L1385.29 27.2059 L1392.74 27.2059 L1392.74 72.576 L1385.29 72.576 L1385.29 65.6084 Q1382.57 69.7404 1378.97 71.7658 Q1375.4 73.7508 1370.66 73.7508 Q1362.84 73.7508 1358.79 68.8897 Q1354.74 64.0286 1354.74 54.671 M1373.5 26.1121 L1373.5 26.1121 Z" fill="#000000" fill-rule="nonzero" fill-opacity="1" /><path clip-path="url(#clip210)" d="M1443.42 35.9153 Q1446.21 30.8922 1450.1 28.5022 Q1453.99 26.1121 1459.26 26.1121 Q1466.34 26.1121 1470.19 31.0947 Q1474.04 36.0368 1474.04 45.1919 L1474.04 72.576 L1466.55 72.576 L1466.55 45.4349 Q1466.55 38.913 1464.24 35.7533 Q1461.93 32.5936 1457.19 32.5936 Q1451.4 32.5936 1448.03 36.4419 Q1444.67 40.2903 1444.67 46.9338 L1444.67 72.576 L1437.18 72.576 L1437.18 45.4349 Q1437.18 38.8725 1434.87 35.7533 Q1432.56 32.5936 1427.74 32.5936 Q1422.03 32.5936 1418.67 36.4824 Q1415.3 40.3308 1415.3 46.9338 L1415.3 72.576 L1407.81 72.576 L1407.81 27.2059 L1415.3 27.2059 L1415.3 34.2544 Q1417.86 30.082 1421.42 28.0971 Q1424.99 26.1121 1429.89 26.1121 Q1434.83 26.1121 1438.27 28.6237 Q1441.76 31.1352 1443.42 35.9153 Z" fill="#000000" fill-rule="nonzero" fill-opacity="1" /><path clip-path="url(#clip210)" d="M1517.83 28.5427 L1517.83 35.5912 Q1514.67 33.9709 1511.27 33.1607 Q1507.87 32.3505 1504.22 32.3505 Q1498.67 32.3505 1495.88 34.0519 Q1493.12 35.7533 1493.12 39.156 Q1493.12 41.7486 1495.11 43.2475 Q1497.09 44.7058 1503.09 46.0426 L1505.64 46.6097 Q1513.58 48.3111 1516.9 51.4303 Q1520.26 54.509 1520.26 60.0587 Q1520.26 66.3781 1515.24 70.0644 Q1510.26 73.7508 1501.51 73.7508 Q1497.86 73.7508 1493.89 73.0216 Q1489.96 72.3329 1485.59 70.9151 L1485.59 63.2184 Q1489.72 65.3654 1493.73 66.4591 Q1497.74 67.5124 1501.67 67.5124 Q1506.93 67.5124 1509.77 65.73 Q1512.61 63.9071 1512.61 60.6258 Q1512.61 57.5877 1510.54 55.9673 Q1508.51 54.3469 1501.59 52.8481 L1499 52.2405 Q1492.07 50.7821 1488.99 47.7845 Q1485.91 44.7463 1485.91 39.4801 Q1485.91 33.0797 1490.45 29.5959 Q1494.98 26.1121 1503.33 26.1121 Q1507.46 26.1121 1511.11 26.7198 Q1514.75 27.3274 1517.83 28.5427 Z" fill="#000000" fill-rule="nonzero" fill-opacity="1" /><path clip-path="url(#clip212)" d="M351.748 1421.88 L351.748 1423.18 L393.626 1423.18 L393.626 1421.88 L351.748 1421.88 L351.748 1421.88  Z" fill="#009af9" fill-rule="evenodd" fill-opacity="1"/>
<polyline clip-path="url(#clip212)" style="stroke:#000000; stroke-linecap:round; stroke-linejoin:round; stroke-width:4; stroke-opacity:1; fill:none" points="351.748,1421.88 351.748,1423.18 393.626,1423.18 393.626,1421.88 351.748,1421.88 "/>
<path clip-path="url(#clip212)" d="M393.626 1417.97 L393.626 1423.18 L435.505 1423.18 L435.505 1417.97 L393.626 1417.97 L393.626 1417.97  Z" fill="#009af9" fill-rule="evenodd" fill-opacity="1"/>
<polyline clip-path="url(#clip212)" style="stroke:#000000; stroke-linecap:round; stroke-linejoin:round; stroke-width:4; stroke-opacity:1; fill:none" points="393.626,1417.97 393.626,1423.18 435.505,1423.18 435.505,1417.97 393.626,1417.97 "/>
<path clip-path="url(#clip212)" d="M435.505 1416.67 L435.505 1423.18 L477.384 1423.18 L477.384 1416.67 L435.505 1416.67 L435.505 1416.67  Z" fill="#009af9" fill-rule="evenodd" fill-opacity="1"/>
<polyline clip-path="url(#clip212)" style="stroke:#000000; stroke-linecap:round; stroke-linejoin:round; stroke-width:4; stroke-opacity:1; fill:none" points="435.505,1416.67 435.505,1423.18 477.384,1423.18 477.384,1416.67 435.505,1416.67 "/>
<path clip-path="url(#clip212)" d="M477.384 1415.37 L477.384 1423.18 L519.263 1423.18 L519.263 1415.37 L477.384 1415.37 L477.384 1415.37  Z" fill="#009af9" fill-rule="evenodd" fill-opacity="1"/>
<polyline clip-path="url(#clip212)" style="stroke:#000000; stroke-linecap:round; stroke-linejoin:round; stroke-width:4; stroke-opacity:1; fill:none" points="477.384,1415.37 477.384,1423.18 519.263,1423.18 519.263,1415.37 477.384,1415.37 "/>
<path clip-path="url(#clip212)" d="M519.263 1415.37 L519.263 1423.18 L561.141 1423.18 L561.141 1415.37 L519.263 1415.37 L519.263 1415.37  Z" fill="#009af9" fill-rule="evenodd" fill-opacity="1"/>
<polyline clip-path="url(#clip212)" style="stroke:#000000; stroke-linecap:round; stroke-linejoin:round; stroke-width:4; stroke-opacity:1; fill:none" points="519.263,1415.37 519.263,1423.18 561.141,1423.18 561.141,1415.37 519.263,1415.37 "/>
<path clip-path="url(#clip212)" d="M561.141 1408.85 L561.141 1423.18 L603.02 1423.18 L603.02 1408.85 L561.141 1408.85 L561.141 1408.85  Z" fill="#009af9" fill-rule="evenodd" fill-opacity="1"/>
<polyline clip-path="url(#clip212)" style="stroke:#000000; stroke-linecap:round; stroke-linejoin:round; stroke-width:4; stroke-opacity:1; fill:none" points="561.141,1408.85 561.141,1423.18 603.02,1423.18 603.02,1408.85 561.141,1408.85 "/>
<path clip-path="url(#clip212)" d="M603.02 1401.04 L603.02 1423.18 L644.899 1423.18 L644.899 1401.04 L603.02 1401.04 L603.02 1401.04  Z" fill="#009af9" fill-rule="evenodd" fill-opacity="1"/>
<polyline clip-path="url(#clip212)" style="stroke:#000000; stroke-linecap:round; stroke-linejoin:round; stroke-width:4; stroke-opacity:1; fill:none" points="603.02,1401.04 603.02,1423.18 644.899,1423.18 644.899,1401.04 603.02,1401.04 "/>
<path clip-path="url(#clip212)" d="M644.899 1394.53 L644.899 1423.18 L686.778 1423.18 L686.778 1394.53 L644.899 1394.53 L644.899 1394.53  Z" fill="#009af9" fill-rule="evenodd" fill-opacity="1"/>
<polyline clip-path="url(#clip212)" style="stroke:#000000; stroke-linecap:round; stroke-linejoin:round; stroke-width:4; stroke-opacity:1; fill:none" points="644.899,1394.53 644.899,1423.18 686.778,1423.18 686.778,1394.53 644.899,1394.53 "/>
<path clip-path="url(#clip212)" d="M686.778 1380.2 L686.778 1423.18 L728.656 1423.18 L728.656 1380.2 L686.778 1380.2 L686.778 1380.2  Z" fill="#009af9" fill-rule="evenodd" fill-opacity="1"/>
<polyline clip-path="url(#clip212)" style="stroke:#000000; stroke-linecap:round; stroke-linejoin:round; stroke-width:4; stroke-opacity:1; fill:none" points="686.778,1380.2 686.778,1423.18 728.656,1423.18 728.656,1380.2 686.778,1380.2 "/>
<path clip-path="url(#clip212)" d="M728.656 1376.3 L728.656 1423.18 L770.535 1423.18 L770.535 1376.3 L728.656 1376.3 L728.656 1376.3  Z" fill="#009af9" fill-rule="evenodd" fill-opacity="1"/>
<polyline clip-path="url(#clip212)" style="stroke:#000000; stroke-linecap:round; stroke-linejoin:round; stroke-width:4; stroke-opacity:1; fill:none" points="728.656,1376.3 728.656,1423.18 770.535,1423.18 770.535,1376.3 728.656,1376.3 "/>
<path clip-path="url(#clip212)" d="M770.535 1363.27 L770.535 1423.18 L812.414 1423.18 L812.414 1363.27 L770.535 1363.27 L770.535 1363.27  Z" fill="#009af9" fill-rule="evenodd" fill-opacity="1"/>
<polyline clip-path="url(#clip212)" style="stroke:#000000; stroke-linecap:round; stroke-linejoin:round; stroke-width:4; stroke-opacity:1; fill:none" points="770.535,1363.27 770.535,1423.18 812.414,1423.18 812.414,1363.27 770.535,1363.27 "/>
<path clip-path="url(#clip212)" d="M812.414 1318.99 L812.414 1423.18 L854.293 1423.18 L854.293 1318.99 L812.414 1318.99 L812.414 1318.99  Z" fill="#009af9" fill-rule="evenodd" fill-opacity="1"/>
<polyline clip-path="url(#clip212)" style="stroke:#000000; stroke-linecap:round; stroke-linejoin:round; stroke-width:4; stroke-opacity:1; fill:none" points="812.414,1318.99 812.414,1423.18 854.293,1423.18 854.293,1318.99 812.414,1318.99 "/>
<path clip-path="url(#clip212)" d="M854.293 1272.11 L854.293 1423.18 L896.171 1423.18 L896.171 1272.11 L854.293 1272.11 L854.293 1272.11  Z" fill="#009af9" fill-rule="evenodd" fill-opacity="1"/>
<polyline clip-path="url(#clip212)" style="stroke:#000000; stroke-linecap:round; stroke-linejoin:round; stroke-width:4; stroke-opacity:1; fill:none" points="854.293,1272.11 854.293,1423.18 896.171,1423.18 896.171,1272.11 854.293,1272.11 "/>
<path clip-path="url(#clip212)" d="M896.171 1118.44 L896.171 1423.18 L938.05 1423.18 L938.05 1118.44 L896.171 1118.44 L896.171 1118.44  Z" fill="#009af9" fill-rule="evenodd" fill-opacity="1"/>
<polyline clip-path="url(#clip212)" style="stroke:#000000; stroke-linecap:round; stroke-linejoin:round; stroke-width:4; stroke-opacity:1; fill:none" points="896.171,1118.44 896.171,1423.18 938.05,1423.18 938.05,1118.44 896.171,1118.44 "/>
<path clip-path="url(#clip212)" d="M938.05 932.208 L938.05 1423.18 L979.929 1423.18 L979.929 932.208 L938.05 932.208 L938.05 932.208  Z" fill="#009af9" fill-rule="evenodd" fill-opacity="1"/>
<polyline clip-path="url(#clip212)" style="stroke:#000000; stroke-linecap:round; stroke-linejoin:round; stroke-width:4; stroke-opacity:1; fill:none" points="938.05,932.208 938.05,1423.18 979.929,1423.18 979.929,932.208 938.05,932.208 "/>
<path clip-path="url(#clip212)" d="M979.929 544.119 L979.929 1423.18 L1021.81 1423.18 L1021.81 544.119 L979.929 544.119 L979.929 544.119  Z" fill="#009af9" fill-rule="evenodd" fill-opacity="1"/>
<polyline clip-path="url(#clip212)" style="stroke:#000000; stroke-linecap:round; stroke-linejoin:round; stroke-width:4; stroke-opacity:1; fill:none" points="979.929,544.119 979.929,1423.18 1021.81,1423.18 1021.81,544.119 979.929,544.119 "/>
<path clip-path="url(#clip212)" d="M1021.81 260.215 L1021.81 1423.18 L1063.69 1423.18 L1063.69 260.215 L1021.81 260.215 L1021.81 260.215  Z" fill="#009af9" fill-rule="evenodd" fill-opacity="1"/>
<polyline clip-path="url(#clip212)" style="stroke:#000000; stroke-linecap:round; stroke-linejoin:round; stroke-width:4; stroke-opacity:1; fill:none" points="1021.81,260.215 1021.81,1423.18 1063.69,1423.18 1063.69,260.215 1021.81,260.215 "/>
<path clip-path="url(#clip212)" d="M1063.69 131.286 L1063.69 1423.18 L1105.57 1423.18 L1105.57 131.286 L1063.69 131.286 L1063.69 131.286  Z" fill="#009af9" fill-rule="evenodd" fill-opacity="1"/>
<polyline clip-path="url(#clip212)" style="stroke:#000000; stroke-linecap:round; stroke-linejoin:round; stroke-width:4; stroke-opacity:1; fill:none" points="1063.69,131.286 1063.69,1423.18 1105.57,1423.18 1105.57,131.286 1063.69,131.286 "/>
<path clip-path="url(#clip212)" d="M1105.57 124.774 L1105.57 1423.18 L1147.44 1423.18 L1147.44 124.774 L1105.57 124.774 L1105.57 124.774  Z" fill="#009af9" fill-rule="evenodd" fill-opacity="1"/>
<polyline clip-path="url(#clip212)" style="stroke:#000000; stroke-linecap:round; stroke-linejoin:round; stroke-width:4; stroke-opacity:1; fill:none" points="1105.57,124.774 1105.57,1423.18 1147.44,1423.18 1147.44,124.774 1105.57,124.774 "/>
<path clip-path="url(#clip212)" d="M1147.44 123.472 L1147.44 1423.18 L1189.32 1423.18 L1189.32 123.472 L1147.44 123.472 L1147.44 123.472  Z" fill="#009af9" fill-rule="evenodd" fill-opacity="1"/>
<polyline clip-path="url(#clip212)" style="stroke:#000000; stroke-linecap:round; stroke-linejoin:round; stroke-width:4; stroke-opacity:1; fill:none" points="1147.44,123.472 1147.44,1423.18 1189.32,1423.18 1189.32,123.472 1147.44,123.472 "/>
<path clip-path="url(#clip212)" d="M1189.32 202.913 L1189.32 1423.18 L1231.2 1423.18 L1231.2 202.913 L1189.32 202.913 L1189.32 202.913  Z" fill="#009af9" fill-rule="evenodd" fill-opacity="1"/>
<polyline clip-path="url(#clip212)" style="stroke:#000000; stroke-linecap:round; stroke-linejoin:round; stroke-width:4; stroke-opacity:1; fill:none" points="1189.32,202.913 1189.32,1423.18 1231.2,1423.18 1231.2,202.913 1189.32,202.913 "/>
<path clip-path="url(#clip212)" d="M1231.2 219.843 L1231.2 1423.18 L1273.08 1423.18 L1273.08 219.843 L1231.2 219.843 L1231.2 219.843  Z" fill="#009af9" fill-rule="evenodd" fill-opacity="1"/>
<polyline clip-path="url(#clip212)" style="stroke:#000000; stroke-linecap:round; stroke-linejoin:round; stroke-width:4; stroke-opacity:1; fill:none" points="1231.2,219.843 1231.2,1423.18 1273.08,1423.18 1273.08,219.843 1231.2,219.843 "/>
<path clip-path="url(#clip212)" d="M1273.08 479.003 L1273.08 1423.18 L1314.96 1423.18 L1314.96 479.003 L1273.08 479.003 L1273.08 479.003  Z" fill="#009af9" fill-rule="evenodd" fill-opacity="1"/>
<polyline clip-path="url(#clip212)" style="stroke:#000000; stroke-linecap:round; stroke-linejoin:round; stroke-width:4; stroke-opacity:1; fill:none" points="1273.08,479.003 1273.08,1423.18 1314.96,1423.18 1314.96,479.003 1273.08,479.003 "/>
<path clip-path="url(#clip212)" d="M1314.96 670.443 L1314.96 1423.18 L1356.84 1423.18 L1356.84 670.443 L1314.96 670.443 L1314.96 670.443  Z" fill="#009af9" fill-rule="evenodd" fill-opacity="1"/>
<polyline clip-path="url(#clip212)" style="stroke:#000000; stroke-linecap:round; stroke-linejoin:round; stroke-width:4; stroke-opacity:1; fill:none" points="1314.96,670.443 1314.96,1423.18 1356.84,1423.18 1356.84,670.443 1314.96,670.443 "/>
<path clip-path="url(#clip212)" d="M1356.84 906.162 L1356.84 1423.18 L1398.72 1423.18 L1398.72 906.162 L1356.84 906.162 L1356.84 906.162  Z" fill="#009af9" fill-rule="evenodd" fill-opacity="1"/>
<polyline clip-path="url(#clip212)" style="stroke:#000000; stroke-linecap:round; stroke-linejoin:round; stroke-width:4; stroke-opacity:1; fill:none" points="1356.84,906.162 1356.84,1423.18 1398.72,1423.18 1398.72,906.162 1356.84,906.162 "/>
<path clip-path="url(#clip212)" d="M1398.72 1132.76 L1398.72 1423.18 L1440.59 1423.18 L1440.59 1132.76 L1398.72 1132.76 L1398.72 1132.76  Z" fill="#009af9" fill-rule="evenodd" fill-opacity="1"/>
<polyline clip-path="url(#clip212)" style="stroke:#000000; stroke-linecap:round; stroke-linejoin:round; stroke-width:4; stroke-opacity:1; fill:none" points="1398.72,1132.76 1398.72,1423.18 1440.59,1423.18 1440.59,1132.76 1398.72,1132.76 "/>
<path clip-path="url(#clip212)" d="M1440.59 1165.32 L1440.59 1423.18 L1482.47 1423.18 L1482.47 1165.32 L1440.59 1165.32 L1440.59 1165.32  Z" fill="#009af9" fill-rule="evenodd" fill-opacity="1"/>
<polyline clip-path="url(#clip212)" style="stroke:#000000; stroke-linecap:round; stroke-linejoin:round; stroke-width:4; stroke-opacity:1; fill:none" points="1440.59,1165.32 1440.59,1423.18 1482.47,1423.18 1482.47,1165.32 1440.59,1165.32 "/>
<path clip-path="url(#clip212)" d="M1482.47 1261.69 L1482.47 1423.18 L1524.35 1423.18 L1524.35 1261.69 L1482.47 1261.69 L1482.47 1261.69  Z" fill="#009af9" fill-rule="evenodd" fill-opacity="1"/>
<polyline clip-path="url(#clip212)" style="stroke:#000000; stroke-linecap:round; stroke-linejoin:round; stroke-width:4; stroke-opacity:1; fill:none" points="1482.47,1261.69 1482.47,1423.18 1524.35,1423.18 1524.35,1261.69 1482.47,1261.69 "/>
<path clip-path="url(#clip212)" d="M1524.35 1305.97 L1524.35 1423.18 L1566.23 1423.18 L1566.23 1305.97 L1524.35 1305.97 L1524.35 1305.97  Z" fill="#009af9" fill-rule="evenodd" fill-opacity="1"/>
<polyline clip-path="url(#clip212)" style="stroke:#000000; stroke-linecap:round; stroke-linejoin:round; stroke-width:4; stroke-opacity:1; fill:none" points="1524.35,1305.97 1524.35,1423.18 1566.23,1423.18 1566.23,1305.97 1524.35,1305.97 "/>
<path clip-path="url(#clip212)" d="M1566.23 1334.62 L1566.23 1423.18 L1608.11 1423.18 L1608.11 1334.62 L1566.23 1334.62 L1566.23 1334.62  Z" fill="#009af9" fill-rule="evenodd" fill-opacity="1"/>
<polyline clip-path="url(#clip212)" style="stroke:#000000; stroke-linecap:round; stroke-linejoin:round; stroke-width:4; stroke-opacity:1; fill:none" points="1566.23,1334.62 1566.23,1423.18 1608.11,1423.18 1608.11,1334.62 1566.23,1334.62 "/>
<path clip-path="url(#clip212)" d="M1608.11 1334.62 L1608.11 1423.18 L1649.99 1423.18 L1649.99 1334.62 L1608.11 1334.62 L1608.11 1334.62  Z" fill="#009af9" fill-rule="evenodd" fill-opacity="1"/>
<polyline clip-path="url(#clip212)" style="stroke:#000000; stroke-linecap:round; stroke-linejoin:round; stroke-width:4; stroke-opacity:1; fill:none" points="1608.11,1334.62 1608.11,1423.18 1649.99,1423.18 1649.99,1334.62 1608.11,1334.62 "/>
<path clip-path="url(#clip212)" d="M1649.99 1378.9 L1649.99 1423.18 L1691.87 1423.18 L1691.87 1378.9 L1649.99 1378.9 L1649.99 1378.9  Z" fill="#009af9" fill-rule="evenodd" fill-opacity="1"/>
<polyline clip-path="url(#clip212)" style="stroke:#000000; stroke-linecap:round; stroke-linejoin:round; stroke-width:4; stroke-opacity:1; fill:none" points="1649.99,1378.9 1649.99,1423.18 1691.87,1423.18 1691.87,1378.9 1649.99,1378.9 "/>
<path clip-path="url(#clip212)" d="M1691.87 1381.51 L1691.87 1423.18 L1733.75 1423.18 L1733.75 1381.51 L1691.87 1381.51 L1691.87 1381.51  Z" fill="#009af9" fill-rule="evenodd" fill-opacity="1"/>
<polyline clip-path="url(#clip212)" style="stroke:#000000; stroke-linecap:round; stroke-linejoin:round; stroke-width:4; stroke-opacity:1; fill:none" points="1691.87,1381.51 1691.87,1423.18 1733.75,1423.18 1733.75,1381.51 1691.87,1381.51 "/>
<path clip-path="url(#clip212)" d="M1733.75 1407.55 L1733.75 1423.18 L1775.62 1423.18 L1775.62 1407.55 L1733.75 1407.55 L1733.75 1407.55  Z" fill="#009af9" fill-rule="evenodd" fill-opacity="1"/>
<polyline clip-path="url(#clip212)" style="stroke:#000000; stroke-linecap:round; stroke-linejoin:round; stroke-width:4; stroke-opacity:1; fill:none" points="1733.75,1407.55 1733.75,1423.18 1775.62,1423.18 1775.62,1407.55 1733.75,1407.55 "/>
<path clip-path="url(#clip212)" d="M1775.62 1410.16 L1775.62 1423.18 L1817.5 1423.18 L1817.5 1410.16 L1775.62 1410.16 L1775.62 1410.16  Z" fill="#009af9" fill-rule="evenodd" fill-opacity="1"/>
<polyline clip-path="url(#clip212)" style="stroke:#000000; stroke-linecap:round; stroke-linejoin:round; stroke-width:4; stroke-opacity:1; fill:none" points="1775.62,1410.16 1775.62,1423.18 1817.5,1423.18 1817.5,1410.16 1775.62,1410.16 "/>
<path clip-path="url(#clip212)" d="M1817.5 1407.55 L1817.5 1423.18 L1859.38 1423.18 L1859.38 1407.55 L1817.5 1407.55 L1817.5 1407.55  Z" fill="#009af9" fill-rule="evenodd" fill-opacity="1"/>
<polyline clip-path="url(#clip212)" style="stroke:#000000; stroke-linecap:round; stroke-linejoin:round; stroke-width:4; stroke-opacity:1; fill:none" points="1817.5,1407.55 1817.5,1423.18 1859.38,1423.18 1859.38,1407.55 1817.5,1407.55 "/>
<path clip-path="url(#clip212)" d="M1859.38 1416.67 L1859.38 1423.18 L1901.26 1423.18 L1901.26 1416.67 L1859.38 1416.67 L1859.38 1416.67  Z" fill="#009af9" fill-rule="evenodd" fill-opacity="1"/>
<polyline clip-path="url(#clip212)" style="stroke:#000000; stroke-linecap:round; stroke-linejoin:round; stroke-width:4; stroke-opacity:1; fill:none" points="1859.38,1416.67 1859.38,1423.18 1901.26,1423.18 1901.26,1416.67 1859.38,1416.67 "/>
<path clip-path="url(#clip212)" d="M1901.26 1417.97 L1901.26 1423.18 L1943.14 1423.18 L1943.14 1417.97 L1901.26 1417.97 L1901.26 1417.97  Z" fill="#009af9" fill-rule="evenodd" fill-opacity="1"/>
<polyline clip-path="url(#clip212)" style="stroke:#000000; stroke-linecap:round; stroke-linejoin:round; stroke-width:4; stroke-opacity:1; fill:none" points="1901.26,1417.97 1901.26,1423.18 1943.14,1423.18 1943.14,1417.97 1901.26,1417.97 "/>
<path clip-path="url(#clip212)" d="M1943.14 1421.88 L1943.14 1423.18 L1985.02 1423.18 L1985.02 1421.88 L1943.14 1421.88 L1943.14 1421.88  Z" fill="#009af9" fill-rule="evenodd" fill-opacity="1"/>
<polyline clip-path="url(#clip212)" style="stroke:#000000; stroke-linecap:round; stroke-linejoin:round; stroke-width:4; stroke-opacity:1; fill:none" points="1943.14,1421.88 1943.14,1423.18 1985.02,1423.18 1985.02,1421.88 1943.14,1421.88 "/>
<path clip-path="url(#clip212)" d="M1985.02 1419.27 L1985.02 1423.18 L2026.9 1423.18 L2026.9 1419.27 L1985.02 1419.27 L1985.02 1419.27  Z" fill="#009af9" fill-rule="evenodd" fill-opacity="1"/>
<polyline clip-path="url(#clip212)" style="stroke:#000000; stroke-linecap:round; stroke-linejoin:round; stroke-width:4; stroke-opacity:1; fill:none" points="1985.02,1419.27 1985.02,1423.18 2026.9,1423.18 2026.9,1419.27 1985.02,1419.27 "/>
<path clip-path="url(#clip212)" d="M2026.9 1419.27 L2026.9 1423.18 L2068.78 1423.18 L2068.78 1419.27 L2026.9 1419.27 L2026.9 1419.27  Z" fill="#009af9" fill-rule="evenodd" fill-opacity="1"/>
<polyline clip-path="url(#clip212)" style="stroke:#000000; stroke-linecap:round; stroke-linejoin:round; stroke-width:4; stroke-opacity:1; fill:none" points="2026.9,1419.27 2026.9,1423.18 2068.78,1423.18 2068.78,1419.27 2026.9,1419.27 "/>
<path clip-path="url(#clip212)" d="M2068.78 1421.88 L2068.78 1423.18 L2110.65 1423.18 L2110.65 1421.88 L2068.78 1421.88 L2068.78 1421.88  Z" fill="#009af9" fill-rule="evenodd" fill-opacity="1"/>
<polyline clip-path="url(#clip212)" style="stroke:#000000; stroke-linecap:round; stroke-linejoin:round; stroke-width:4; stroke-opacity:1; fill:none" points="2068.78,1421.88 2068.78,1423.18 2110.65,1423.18 2110.65,1421.88 2068.78,1421.88 "/>
<path clip-path="url(#clip212)" d="M2110.65 1421.88 L2110.65 1423.18 L2152.53 1423.18 L2152.53 1421.88 L2110.65 1421.88 L2110.65 1421.88  Z" fill="#009af9" fill-rule="evenodd" fill-opacity="1"/>
<polyline clip-path="url(#clip212)" style="stroke:#000000; stroke-linecap:round; stroke-linejoin:round; stroke-width:4; stroke-opacity:1; fill:none" points="2110.65,1421.88 2110.65,1423.18 2152.53,1423.18 2152.53,1421.88 2110.65,1421.88 "/>
<path clip-path="url(#clip212)" d="M2152.53 1423.18 L2152.53 1423.18 L2194.41 1423.18 L2194.41 1423.18 L2152.53 1423.18 L2152.53 1423.18  Z" fill="#009af9" fill-rule="evenodd" fill-opacity="1"/>
<polyline clip-path="url(#clip212)" style="stroke:#000000; stroke-linecap:round; stroke-linejoin:round; stroke-width:4; stroke-opacity:1; fill:none" points="2152.53,1423.18 2152.53,1423.18 2194.41,1423.18 2152.53,1423.18 "/>
<path clip-path="url(#clip212)" d="M2194.41 1421.88 L2194.41 1423.18 L2236.29 1423.18 L2236.29 1421.88 L2194.41 1421.88 L2194.41 1421.88  Z" fill="#009af9" fill-rule="evenodd" fill-opacity="1"/>
<polyline clip-path="url(#clip212)" style="stroke:#000000; stroke-linecap:round; stroke-linejoin:round; stroke-width:4; stroke-opacity:1; fill:none" points="2194.41,1421.88 2194.41,1423.18 2236.29,1423.18 2236.29,1421.88 2194.41,1421.88 "/>
<circle clip-path="url(#clip212)" style="fill:#009af9; stroke:none; fill-opacity:0" cx="372.687" cy="1421.88" r="2"/>
<circle clip-path="url(#clip212)" style="fill:#009af9; stroke:none; fill-opacity:0" cx="414.566" cy="1417.97" r="2"/>
<circle clip-path="url(#clip212)" style="fill:#009af9; stroke:none; fill-opacity:0" cx="456.444" cy="1416.67" r="2"/>
<circle clip-path="url(#clip212)" style="fill:#009af9; stroke:none; fill-opacity:0" cx="498.323" cy="1415.37" r="2"/>
<circle clip-path="url(#clip212)" style="fill:#009af9; stroke:none; fill-opacity:0" cx="540.202" cy="1415.37" r="2"/>
<circle clip-path="url(#clip212)" style="fill:#009af9; stroke:none; fill-opacity:0" cx="582.081" cy="1408.85" r="2"/>
<circle clip-path="url(#clip212)" style="fill:#009af9; stroke:none; fill-opacity:0" cx="623.959" cy="1401.04" r="2"/>
<circle clip-path="url(#clip212)" style="fill:#009af9; stroke:none; fill-opacity:0" cx="665.838" cy="1394.53" r="2"/>
<circle clip-path="url(#clip212)" style="fill:#009af9; stroke:none; fill-opacity:0" cx="707.717" cy="1380.2" r="2"/>
<circle clip-path="url(#clip212)" style="fill:#009af9; stroke:none; fill-opacity:0" cx="749.596" cy="1376.3" r="2"/>
<circle clip-path="url(#clip212)" style="fill:#009af9; stroke:none; fill-opacity:0" cx="791.474" cy="1363.27" r="2"/>
<circle clip-path="url(#clip212)" style="fill:#009af9; stroke:none; fill-opacity:0" cx="833.353" cy="1318.99" r="2"/>
<circle clip-path="url(#clip212)" style="fill:#009af9; stroke:none; fill-opacity:0" cx="875.232" cy="1272.11" r="2"/>
<circle clip-path="url(#clip212)" style="fill:#009af9; stroke:none; fill-opacity:0" cx="917.111" cy="1118.44" r="2"/>
<circle clip-path="url(#clip212)" style="fill:#009af9; stroke:none; fill-opacity:0" cx="958.989" cy="932.208" r="2"/>
<circle clip-path="url(#clip212)" style="fill:#009af9; stroke:none; fill-opacity:0" cx="1000.87" cy="544.119" r="2"/>
<circle clip-path="url(#clip212)" style="fill:#009af9; stroke:none; fill-opacity:0" cx="1042.75" cy="260.215" r="2"/>
<circle clip-path="url(#clip212)" style="fill:#009af9; stroke:none; fill-opacity:0" cx="1084.63" cy="131.286" r="2"/>
<circle clip-path="url(#clip212)" style="fill:#009af9; stroke:none; fill-opacity:0" cx="1126.5" cy="124.774" r="2"/>
<circle clip-path="url(#clip212)" style="fill:#009af9; stroke:none; fill-opacity:0" cx="1168.38" cy="123.472" r="2"/>
<circle clip-path="url(#clip212)" style="fill:#009af9; stroke:none; fill-opacity:0" cx="1210.26" cy="202.913" r="2"/>
<circle clip-path="url(#clip212)" style="fill:#009af9; stroke:none; fill-opacity:0" cx="1252.14" cy="219.843" r="2"/>
<circle clip-path="url(#clip212)" style="fill:#009af9; stroke:none; fill-opacity:0" cx="1294.02" cy="479.003" r="2"/>
<circle clip-path="url(#clip212)" style="fill:#009af9; stroke:none; fill-opacity:0" cx="1335.9" cy="670.443" r="2"/>
<circle clip-path="url(#clip212)" style="fill:#009af9; stroke:none; fill-opacity:0" cx="1377.78" cy="906.162" r="2"/>
<circle clip-path="url(#clip212)" style="fill:#009af9; stroke:none; fill-opacity:0" cx="1419.66" cy="1132.76" r="2"/>
<circle clip-path="url(#clip212)" style="fill:#009af9; stroke:none; fill-opacity:0" cx="1461.53" cy="1165.32" r="2"/>
<circle clip-path="url(#clip212)" style="fill:#009af9; stroke:none; fill-opacity:0" cx="1503.41" cy="1261.69" r="2"/>
<circle clip-path="url(#clip212)" style="fill:#009af9; stroke:none; fill-opacity:0" cx="1545.29" cy="1305.97" r="2"/>
<circle clip-path="url(#clip212)" style="fill:#009af9; stroke:none; fill-opacity:0" cx="1587.17" cy="1334.62" r="2"/>
<circle clip-path="url(#clip212)" style="fill:#009af9; stroke:none; fill-opacity:0" cx="1629.05" cy="1334.62" r="2"/>
<circle clip-path="url(#clip212)" style="fill:#009af9; stroke:none; fill-opacity:0" cx="1670.93" cy="1378.9" r="2"/>
<circle clip-path="url(#clip212)" style="fill:#009af9; stroke:none; fill-opacity:0" cx="1712.81" cy="1381.51" r="2"/>
<circle clip-path="url(#clip212)" style="fill:#009af9; stroke:none; fill-opacity:0" cx="1754.69" cy="1407.55" r="2"/>
<circle clip-path="url(#clip212)" style="fill:#009af9; stroke:none; fill-opacity:0" cx="1796.56" cy="1410.16" r="2"/>
<circle clip-path="url(#clip212)" style="fill:#009af9; stroke:none; fill-opacity:0" cx="1838.44" cy="1407.55" r="2"/>
<circle clip-path="url(#clip212)" style="fill:#009af9; stroke:none; fill-opacity:0" cx="1880.32" cy="1416.67" r="2"/>
<circle clip-path="url(#clip212)" style="fill:#009af9; stroke:none; fill-opacity:0" cx="1922.2" cy="1417.97" r="2"/>
<circle clip-path="url(#clip212)" style="fill:#009af9; stroke:none; fill-opacity:0" cx="1964.08" cy="1421.88" r="2"/>
<circle clip-path="url(#clip212)" style="fill:#009af9; stroke:none; fill-opacity:0" cx="2005.96" cy="1419.27" r="2"/>
<circle clip-path="url(#clip212)" style="fill:#009af9; stroke:none; fill-opacity:0" cx="2047.84" cy="1419.27" r="2"/>
<circle clip-path="url(#clip212)" style="fill:#009af9; stroke:none; fill-opacity:0" cx="2089.72" cy="1421.88" r="2"/>
<circle clip-path="url(#clip212)" style="fill:#009af9; stroke:none; fill-opacity:0" cx="2131.59" cy="1421.88" r="2"/>
<circle clip-path="url(#clip212)" style="fill:#009af9; stroke:none; fill-opacity:0" cx="2173.47" cy="1423.18" r="2"/>
<circle clip-path="url(#clip212)" style="fill:#009af9; stroke:none; fill-opacity:0" cx="2215.35" cy="1421.88" r="2"/>
<path clip-path="url(#clip210)" d="M2018 270.476 L2282.17 270.476 L2282.17 166.796 L2018 166.796  Z" fill="#ffffff" fill-rule="evenodd" fill-opacity="1"/>
<polyline clip-path="url(#clip210)" style="stroke:#000000; stroke-linecap:round; stroke-linejoin:round; stroke-width:4; stroke-opacity:1; fill:none" points="2018,270.476 2282.17,270.476 2282.17,166.796 2018,166.796 2018,270.476 "/>
<path clip-path="url(#clip210)" d="M2041.52 239.372 L2182.69 239.372 L2182.69 197.9 L2041.52 197.9 L2041.52 239.372  Z" fill="#009af9" fill-rule="evenodd" fill-opacity="1"/>
<polyline clip-path="url(#clip210)" style="stroke:#000000; stroke-linecap:round; stroke-linejoin:round; stroke-width:4; stroke-opacity:1; fill:none" points="2041.52,239.372 2182.69,239.372 2182.69,197.9 2041.52,197.9 2041.52,239.372 "/>
<path clip-path="url(#clip210)" d="M2220.06 238.323 Q2218.25 242.953 2216.54 244.365 Q2214.83 245.777 2211.96 245.777 L2208.55 245.777 L2208.55 242.212 L2211.05 242.212 Q2212.81 242.212 2213.79 241.379 Q2214.76 240.545 2215.94 237.443 L2216.7 235.499 L2206.22 209.99 L2210.73 209.99 L2218.83 230.268 L2226.93 209.99 L2231.45 209.99 L2220.06 238.323 Z" fill="#000000" fill-rule="nonzero" fill-opacity="1" /><path clip-path="url(#clip210)" d="M2238.74 231.981 L2246.38 231.981 L2246.38 205.615 L2238.07 207.282 L2238.07 203.022 L2246.33 201.356 L2251.01 201.356 L2251.01 231.981 L2258.65 231.981 L2258.65 235.916 L2238.74 235.916 L2238.74 231.981 Z" fill="#000000" fill-rule="nonzero" fill-opacity="1" /></svg>
