<?xml version="1.0" encoding="utf-8"?>
<svg xmlns="http://www.w3.org/2000/svg" xmlns:xlink="http://www.w3.org/1999/xlink" width="600" height="400" viewBox="0 0 2400 1600">
<defs>
  <clipPath id="clip680">
    <rect x="0" y="0" width="2400" height="1600"/>
  </clipPath>
</defs>
<path clip-path="url(#clip680)" d="M0 1600 L2400 1600 L2400 0 L0 0  Z" fill="#ffffff" fill-rule="evenodd" fill-opacity="1"/>
<defs>
  <clipPath id="clip681">
    <rect x="480" y="0" width="1681" height="1600"/>
  </clipPath>
</defs>
<path clip-path="url(#clip680)" d="M172.015 1486.45 L2352.76 1486.45 L2352.76 47.2441 L172.015 47.2441  Z" fill="#ffffff" fill-rule="evenodd" fill-opacity="1"/>
<defs>
  <clipPath id="clip682">
    <rect x="172" y="47" width="2182" height="1440"/>
  </clipPath>
</defs>
<polyline clip-path="url(#clip682)" style="stroke:#000000; stroke-linecap:round; stroke-linejoin:round; stroke-width:2; stroke-opacity:0.1; fill:none" points="231.675,1486.45 231.675,47.2441 "/>
<polyline clip-path="url(#clip682)" style="stroke:#000000; stroke-linecap:round; stroke-linejoin:round; stroke-width:2; stroke-opacity:0.1; fill:none" points="546.812,1486.45 546.812,47.2441 "/>
<polyline clip-path="url(#clip682)" style="stroke:#000000; stroke-linecap:round; stroke-linejoin:round; stroke-width:2; stroke-opacity:0.1; fill:none" points="861.95,1486.45 861.95,47.2441 "/>
<polyline clip-path="url(#clip682)" style="stroke:#000000; stroke-linecap:round; stroke-linejoin:round; stroke-width:2; stroke-opacity:0.1; fill:none" points="1177.09,1486.45 1177.09,47.2441 "/>
<polyline clip-path="url(#clip682)" style="stroke:#000000; stroke-linecap:round; stroke-linejoin:round; stroke-width:2; stroke-opacity:0.1; fill:none" points="1492.23,1486.45 1492.23,47.2441 "/>
<polyline clip-path="url(#clip682)" style="stroke:#000000; stroke-linecap:round; stroke-linejoin:round; stroke-width:2; stroke-opacity:0.1; fill:none" points="1807.36,1486.45 1807.36,47.2441 "/>
<polyline clip-path="url(#clip682)" style="stroke:#000000; stroke-linecap:round; stroke-linejoin:round; stroke-width:2; stroke-opacity:0.1; fill:none" points="2122.5,1486.45 2122.5,47.2441 "/>
<polyline clip-path="url(#clip682)" style="stroke:#000000; stroke-linecap:round; stroke-linejoin:round; stroke-width:2; stroke-opacity:0.1; fill:none" points="172.015,1445.72 2352.76,1445.72 "/>
<polyline clip-path="url(#clip682)" style="stroke:#000000; stroke-linecap:round; stroke-linejoin:round; stroke-width:2; stroke-opacity:0.1; fill:none" points="172.015,1116.17 2352.76,1116.17 "/>
<polyline clip-path="url(#clip682)" style="stroke:#000000; stroke-linecap:round; stroke-linejoin:round; stroke-width:2; stroke-opacity:0.1; fill:none" points="172.015,786.619 2352.76,786.619 "/>
<polyline clip-path="url(#clip682)" style="stroke:#000000; stroke-linecap:round; stroke-linejoin:round; stroke-width:2; stroke-opacity:0.1; fill:none" points="172.015,457.07 2352.76,457.07 "/>
<polyline clip-path="url(#clip682)" style="stroke:#000000; stroke-linecap:round; stroke-linejoin:round; stroke-width:2; stroke-opacity:0.1; fill:none" points="172.015,127.522 2352.76,127.522 "/>
<polyline clip-path="url(#clip680)" style="stroke:#000000; stroke-linecap:round; stroke-linejoin:round; stroke-width:4; stroke-opacity:1; fill:none" points="172.015,1486.45 2352.76,1486.45 "/>
<polyline clip-path="url(#clip680)" style="stroke:#000000; stroke-linecap:round; stroke-linejoin:round; stroke-width:4; stroke-opacity:1; fill:none" points="231.675,1486.45 231.675,1467.55 "/>
<polyline clip-path="url(#clip680)" style="stroke:#000000; stroke-linecap:round; stroke-linejoin:round; stroke-width:4; stroke-opacity:1; fill:none" points="546.812,1486.45 546.812,1467.55 "/>
<polyline clip-path="url(#clip680)" style="stroke:#000000; stroke-linecap:round; stroke-linejoin:round; stroke-width:4; stroke-opacity:1; fill:none" points="861.95,1486.45 861.95,1467.55 "/>
<polyline clip-path="url(#clip680)" style="stroke:#000000; stroke-linecap:round; stroke-linejoin:round; stroke-width:4; stroke-opacity:1; fill:none" points="1177.09,1486.45 1177.09,1467.55 "/>
<polyline clip-path="url(#clip680)" style="stroke:#000000; stroke-linecap:round; stroke-linejoin:round; stroke-width:4; stroke-opacity:1; fill:none" points="1492.23,1486.45 1492.23,1467.55 "/>
<polyline clip-path="url(#clip680)" style="stroke:#000000; stroke-linecap:round; stroke-linejoin:round; stroke-width:4; stroke-opacity:1; fill:none" points="1807.36,1486.45 1807.36,1467.55 "/>
<polyline clip-path="url(#clip680)" style="stroke:#000000; stroke-linecap:round; stroke-linejoin:round; stroke-width:4; stroke-opacity:1; fill:none" points="2122.5,1486.45 2122.5,1467.55 "/>
<path clip-path="url(#clip680)" d="M231.675 1517.37 Q228.063 1517.37 226.235 1520.93 Q224.429 1524.47 224.429 1531.6 Q224.429 1538.71 226.235 1542.27 Q228.063 1545.82 231.675 1545.82 Q235.309 1545.82 237.114 1542.27 Q238.943 1538.71 238.943 1531.6 Q238.943 1524.47 237.114 1520.93 Q235.309 1517.37 231.675 1517.37 M231.675 1513.66 Q237.485 1513.66 240.54 1518.27 Q243.619 1522.85 243.619 1531.6 Q243.619 1540.33 240.54 1544.94 Q237.485 1549.52 231.675 1549.52 Q225.864 1549.52 222.786 1544.94 Q219.73 1540.33 219.73 1531.6 Q219.73 1522.85 222.786 1518.27 Q225.864 1513.66 231.675 1513.66 Z" fill="#000000" fill-rule="nonzero" fill-opacity="1" /><path clip-path="url(#clip680)" d="M525.586 1544.91 L541.905 1544.91 L541.905 1548.85 L519.961 1548.85 L519.961 1544.91 Q522.623 1542.16 527.206 1537.53 Q531.812 1532.88 532.993 1531.53 Q535.238 1529.01 536.118 1527.27 Q537.021 1525.51 537.021 1523.82 Q537.021 1521.07 535.076 1519.33 Q533.155 1517.6 530.053 1517.6 Q527.854 1517.6 525.4 1518.36 Q522.97 1519.13 520.192 1520.68 L520.192 1515.95 Q523.016 1514.82 525.47 1514.24 Q527.924 1513.66 529.961 1513.66 Q535.331 1513.66 538.525 1516.35 Q541.72 1519.03 541.72 1523.52 Q541.72 1525.65 540.91 1527.57 Q540.123 1529.47 538.016 1532.07 Q537.437 1532.74 534.336 1535.95 Q531.234 1539.15 525.586 1544.91 Z" fill="#000000" fill-rule="nonzero" fill-opacity="1" /><path clip-path="url(#clip680)" d="M561.72 1517.37 Q558.109 1517.37 556.28 1520.93 Q554.474 1524.47 554.474 1531.6 Q554.474 1538.71 556.28 1542.27 Q558.109 1545.82 561.72 1545.82 Q565.354 1545.82 567.159 1542.27 Q568.988 1538.71 568.988 1531.6 Q568.988 1524.47 567.159 1520.93 Q565.354 1517.37 561.72 1517.37 M561.72 1513.66 Q567.53 1513.66 570.585 1518.27 Q573.664 1522.85 573.664 1531.6 Q573.664 1540.33 570.585 1544.94 Q567.53 1549.52 561.72 1549.52 Q555.91 1549.52 552.831 1544.94 Q549.775 1540.33 549.775 1531.6 Q549.775 1522.85 552.831 1518.27 Q555.91 1513.66 561.72 1513.66 Z" fill="#000000" fill-rule="nonzero" fill-opacity="1" /><path clip-path="url(#clip680)" d="M850.122 1518.36 L838.316 1536.81 L850.122 1536.81 L850.122 1518.36 M848.895 1514.29 L854.774 1514.29 L854.774 1536.81 L859.705 1536.81 L859.705 1540.7 L854.774 1540.7 L854.774 1548.85 L850.122 1548.85 L850.122 1540.7 L834.52 1540.7 L834.52 1536.19 L848.895 1514.29 Z" fill="#000000" fill-rule="nonzero" fill-opacity="1" /><path clip-path="url(#clip680)" d="M877.436 1517.37 Q873.825 1517.37 871.996 1520.93 Q870.191 1524.47 870.191 1531.6 Q870.191 1538.71 871.996 1542.27 Q873.825 1545.82 877.436 1545.82 Q881.07 1545.82 882.876 1542.27 Q884.705 1538.71 884.705 1531.6 Q884.705 1524.47 882.876 1520.93 Q881.07 1517.37 877.436 1517.37 M877.436 1513.66 Q883.246 1513.66 886.302 1518.27 Q889.381 1522.85 889.381 1531.6 Q889.381 1540.33 886.302 1544.94 Q883.246 1549.52 877.436 1549.52 Q871.626 1549.52 868.547 1544.94 Q865.492 1540.33 865.492 1531.6 Q865.492 1522.85 868.547 1518.27 Q871.626 1513.66 877.436 1513.66 Z" fill="#000000" fill-rule="nonzero" fill-opacity="1" /><path clip-path="url(#clip680)" d="M1162.49 1529.7 Q1159.35 1529.7 1157.49 1531.86 Q1155.66 1534.01 1155.66 1537.76 Q1155.66 1541.49 1157.49 1543.66 Q1159.35 1545.82 1162.49 1545.82 Q1165.64 1545.82 1167.47 1543.66 Q1169.32 1541.49 1169.32 1537.76 Q1169.32 1534.01 1167.47 1531.86 Q1165.64 1529.7 1162.49 1529.7 M1171.78 1515.05 L1171.78 1519.31 Q1170.02 1518.48 1168.21 1518.04 Q1166.43 1517.6 1164.67 1517.6 Q1160.04 1517.6 1157.59 1520.72 Q1155.16 1523.85 1154.81 1530.17 Q1156.17 1528.15 1158.23 1527.09 Q1160.29 1526 1162.77 1526 Q1167.98 1526 1170.99 1529.17 Q1174.02 1532.32 1174.02 1537.76 Q1174.02 1543.08 1170.87 1546.3 Q1167.72 1549.52 1162.49 1549.52 Q1156.5 1549.52 1153.33 1544.94 Q1150.16 1540.33 1150.16 1531.6 Q1150.16 1523.41 1154.04 1518.55 Q1157.93 1513.66 1164.48 1513.66 Q1166.24 1513.66 1168.03 1514.01 Q1169.83 1514.36 1171.78 1515.05 Z" fill="#000000" fill-rule="nonzero" fill-opacity="1" /><path clip-path="url(#clip680)" d="M1192.08 1517.37 Q1188.47 1517.37 1186.64 1520.93 Q1184.83 1524.47 1184.83 1531.6 Q1184.83 1538.71 1186.64 1542.27 Q1188.47 1545.82 1192.08 1545.82 Q1195.71 1545.82 1197.52 1542.27 Q1199.34 1538.71 1199.34 1531.6 Q1199.34 1524.47 1197.52 1520.93 Q1195.71 1517.37 1192.08 1517.37 M1192.08 1513.66 Q1197.89 1513.66 1200.94 1518.27 Q1204.02 1522.85 1204.02 1531.6 Q1204.02 1540.33 1200.94 1544.94 Q1197.89 1549.52 1192.08 1549.52 Q1186.27 1549.52 1183.19 1544.94 Q1180.13 1540.33 1180.13 1531.6 Q1180.13 1522.85 1183.19 1518.27 Q1186.27 1513.66 1192.08 1513.66 Z" fill="#000000" fill-rule="nonzero" fill-opacity="1" /><path clip-path="url(#clip680)" d="M1477.1 1532.44 Q1473.77 1532.44 1471.84 1534.22 Q1469.95 1536 1469.95 1539.13 Q1469.95 1542.25 1471.84 1544.03 Q1473.77 1545.82 1477.1 1545.82 Q1480.43 1545.82 1482.35 1544.03 Q1484.27 1542.23 1484.27 1539.13 Q1484.27 1536 1482.35 1534.22 Q1480.46 1532.44 1477.1 1532.44 M1472.42 1530.45 Q1469.41 1529.7 1467.72 1527.64 Q1466.06 1525.58 1466.06 1522.62 Q1466.06 1518.48 1469 1516.07 Q1471.96 1513.66 1477.1 1513.66 Q1482.26 1513.66 1485.2 1516.07 Q1488.14 1518.48 1488.14 1522.62 Q1488.14 1525.58 1486.45 1527.64 Q1484.78 1529.7 1481.8 1530.45 Q1485.18 1531.23 1487.05 1533.52 Q1488.95 1535.82 1488.95 1539.13 Q1488.95 1544.15 1485.87 1546.83 Q1482.82 1549.52 1477.1 1549.52 Q1471.38 1549.52 1468.3 1546.83 Q1465.25 1544.15 1465.25 1539.13 Q1465.25 1535.82 1467.15 1533.52 Q1469.04 1531.23 1472.42 1530.45 M1470.71 1523.06 Q1470.71 1525.75 1472.38 1527.25 Q1474.07 1528.76 1477.1 1528.76 Q1480.11 1528.76 1481.8 1527.25 Q1483.51 1525.75 1483.51 1523.06 Q1483.51 1520.38 1481.8 1518.87 Q1480.11 1517.37 1477.1 1517.37 Q1474.07 1517.37 1472.38 1518.87 Q1470.71 1520.38 1470.71 1523.06 Z" fill="#000000" fill-rule="nonzero" fill-opacity="1" /><path clip-path="url(#clip680)" d="M1507.26 1517.37 Q1503.65 1517.37 1501.82 1520.93 Q1500.02 1524.47 1500.02 1531.6 Q1500.02 1538.71 1501.82 1542.27 Q1503.65 1545.82 1507.26 1545.82 Q1510.89 1545.82 1512.7 1542.27 Q1514.53 1538.71 1514.53 1531.6 Q1514.53 1524.47 1512.7 1520.93 Q1510.89 1517.37 1507.26 1517.37 M1507.26 1513.66 Q1513.07 1513.66 1516.13 1518.27 Q1519.2 1522.85 1519.2 1531.6 Q1519.2 1540.33 1516.13 1544.94 Q1513.07 1549.52 1507.26 1549.52 Q1501.45 1549.52 1498.37 1544.94 Q1495.32 1540.33 1495.32 1531.6 Q1495.32 1522.85 1498.37 1518.27 Q1501.45 1513.66 1507.26 1513.66 Z" fill="#000000" fill-rule="nonzero" fill-opacity="1" /><path clip-path="url(#clip680)" d="M1766.97 1544.91 L1774.61 1544.91 L1774.61 1518.55 L1766.3 1520.21 L1766.3 1515.95 L1774.56 1514.29 L1779.24 1514.29 L1779.24 1544.91 L1786.88 1544.91 L1786.88 1548.85 L1766.97 1548.85 L1766.97 1544.91 Z" fill="#000000" fill-rule="nonzero" fill-opacity="1" /><path clip-path="url(#clip680)" d="M1806.32 1517.37 Q1802.71 1517.37 1800.88 1520.93 Q1799.08 1524.47 1799.08 1531.6 Q1799.08 1538.71 1800.88 1542.27 Q1802.71 1545.82 1806.32 1545.82 Q1809.96 1545.82 1811.76 1542.27 Q1813.59 1538.71 1813.59 1531.6 Q1813.59 1524.47 1811.76 1520.93 Q1809.96 1517.37 1806.32 1517.37 M1806.32 1513.66 Q1812.13 1513.66 1815.19 1518.27 Q1818.27 1522.85 1818.27 1531.6 Q1818.27 1540.33 1815.19 1544.94 Q1812.13 1549.52 1806.32 1549.52 Q1800.51 1549.52 1797.43 1544.94 Q1794.38 1540.33 1794.38 1531.6 Q1794.38 1522.85 1797.43 1518.27 Q1800.51 1513.66 1806.32 1513.66 Z" fill="#000000" fill-rule="nonzero" fill-opacity="1" /><path clip-path="url(#clip680)" d="M1836.48 1517.37 Q1832.87 1517.37 1831.04 1520.93 Q1829.24 1524.47 1829.24 1531.6 Q1829.24 1538.71 1831.04 1542.27 Q1832.87 1545.82 1836.48 1545.82 Q1840.12 1545.82 1841.92 1542.27 Q1843.75 1538.71 1843.75 1531.6 Q1843.75 1524.47 1841.92 1520.93 Q1840.12 1517.37 1836.48 1517.37 M1836.48 1513.66 Q1842.29 1513.66 1845.35 1518.27 Q1848.43 1522.85 1848.43 1531.6 Q1848.43 1540.33 1845.35 1544.94 Q1842.29 1549.52 1836.48 1549.52 Q1830.67 1549.52 1827.6 1544.94 Q1824.54 1540.33 1824.54 1531.6 Q1824.54 1522.85 1827.6 1518.27 Q1830.67 1513.66 1836.48 1513.66 Z" fill="#000000" fill-rule="nonzero" fill-opacity="1" /><path clip-path="url(#clip680)" d="M2082.11 1544.91 L2089.75 1544.91 L2089.75 1518.55 L2081.44 1520.21 L2081.44 1515.95 L2089.7 1514.29 L2094.38 1514.29 L2094.38 1544.91 L2102.02 1544.91 L2102.02 1548.85 L2082.11 1548.85 L2082.11 1544.91 Z" fill="#000000" fill-rule="nonzero" fill-opacity="1" /><path clip-path="url(#clip680)" d="M2115.49 1544.91 L2131.81 1544.91 L2131.81 1548.85 L2109.86 1548.85 L2109.86 1544.91 Q2112.52 1542.16 2117.11 1537.53 Q2121.71 1532.88 2122.9 1531.53 Q2125.14 1529.01 2126.02 1527.27 Q2126.92 1525.51 2126.92 1523.82 Q2126.92 1521.07 2124.98 1519.33 Q2123.06 1517.6 2119.96 1517.6 Q2117.76 1517.6 2115.3 1518.36 Q2112.87 1519.13 2110.09 1520.68 L2110.09 1515.95 Q2112.92 1514.82 2115.37 1514.24 Q2117.83 1513.66 2119.86 1513.66 Q2125.23 1513.66 2128.43 1516.35 Q2131.62 1519.03 2131.62 1523.52 Q2131.62 1525.65 2130.81 1527.57 Q2130.02 1529.47 2127.92 1532.07 Q2127.34 1532.74 2124.24 1535.95 Q2121.14 1539.15 2115.49 1544.91 Z" fill="#000000" fill-rule="nonzero" fill-opacity="1" /><path clip-path="url(#clip680)" d="M2151.62 1517.37 Q2148.01 1517.37 2146.18 1520.93 Q2144.38 1524.47 2144.38 1531.6 Q2144.38 1538.71 2146.18 1542.27 Q2148.01 1545.82 2151.62 1545.82 Q2155.26 1545.82 2157.06 1542.27 Q2158.89 1538.71 2158.89 1531.6 Q2158.89 1524.47 2157.06 1520.93 Q2155.26 1517.37 2151.62 1517.37 M2151.62 1513.66 Q2157.43 1513.66 2160.49 1518.27 Q2163.57 1522.85 2163.57 1531.6 Q2163.57 1540.33 2160.49 1544.94 Q2157.43 1549.52 2151.62 1549.52 Q2145.81 1549.52 2142.73 1544.94 Q2139.68 1540.33 2139.68 1531.6 Q2139.68 1522.85 2142.73 1518.27 Q2145.81 1513.66 2151.62 1513.66 Z" fill="#000000" fill-rule="nonzero" fill-opacity="1" /><polyline clip-path="url(#clip680)" style="stroke:#000000; stroke-linecap:round; stroke-linejoin:round; stroke-width:4; stroke-opacity:1; fill:none" points="172.015,1486.45 172.015,47.2441 "/>
<polyline clip-path="url(#clip680)" style="stroke:#000000; stroke-linecap:round; stroke-linejoin:round; stroke-width:4; stroke-opacity:1; fill:none" points="172.015,1445.72 190.912,1445.72 "/>
<polyline clip-path="url(#clip680)" style="stroke:#000000; stroke-linecap:round; stroke-linejoin:round; stroke-width:4; stroke-opacity:1; fill:none" points="172.015,1116.17 190.912,1116.17 "/>
<polyline clip-path="url(#clip680)" style="stroke:#000000; stroke-linecap:round; stroke-linejoin:round; stroke-width:4; stroke-opacity:1; fill:none" points="172.015,786.619 190.912,786.619 "/>
<polyline clip-path="url(#clip680)" style="stroke:#000000; stroke-linecap:round; stroke-linejoin:round; stroke-width:4; stroke-opacity:1; fill:none" points="172.015,457.07 190.912,457.07 "/>
<polyline clip-path="url(#clip680)" style="stroke:#000000; stroke-linecap:round; stroke-linejoin:round; stroke-width:4; stroke-opacity:1; fill:none" points="172.015,127.522 190.912,127.522 "/>
<path clip-path="url(#clip680)" d="M124.07 1431.51 Q120.459 1431.51 118.631 1435.08 Q116.825 1438.62 116.825 1445.75 Q116.825 1452.86 118.631 1456.42 Q120.459 1459.96 124.07 1459.96 Q127.705 1459.96 129.51 1456.42 Q131.339 1452.86 131.339 1445.75 Q131.339 1438.62 129.51 1435.08 Q127.705 1431.51 124.07 1431.51 M124.07 1427.81 Q129.881 1427.81 132.936 1432.42 Q136.015 1437 136.015 1445.75 Q136.015 1454.48 132.936 1459.08 Q129.881 1463.67 124.07 1463.67 Q118.26 1463.67 115.182 1459.08 Q112.126 1454.48 112.126 1445.75 Q112.126 1437 115.182 1432.42 Q118.26 1427.81 124.07 1427.81 Z" fill="#000000" fill-rule="nonzero" fill-opacity="1" /><path clip-path="url(#clip680)" d="M54.5569 1129.51 L62.1958 1129.51 L62.1958 1103.15 L53.8856 1104.81 L53.8856 1100.55 L62.1495 1098.89 L66.8254 1098.89 L66.8254 1129.51 L74.4642 1129.51 L74.4642 1133.45 L54.5569 1133.45 L54.5569 1129.51 Z" fill="#000000" fill-rule="nonzero" fill-opacity="1" /><path clip-path="url(#clip680)" d="M93.9086 1101.97 Q90.2975 1101.97 88.4688 1105.53 Q86.6632 1109.07 86.6632 1116.2 Q86.6632 1123.31 88.4688 1126.87 Q90.2975 1130.41 93.9086 1130.41 Q97.5428 1130.41 99.3483 1126.87 Q101.177 1123.31 101.177 1116.2 Q101.177 1109.07 99.3483 1105.53 Q97.5428 1101.97 93.9086 1101.97 M93.9086 1098.26 Q99.7187 1098.26 102.774 1102.87 Q105.853 1107.45 105.853 1116.2 Q105.853 1124.93 102.774 1129.54 Q99.7187 1134.12 93.9086 1134.12 Q88.0984 1134.12 85.0197 1129.54 Q81.9642 1124.93 81.9642 1116.2 Q81.9642 1107.45 85.0197 1102.87 Q88.0984 1098.26 93.9086 1098.26 Z" fill="#000000" fill-rule="nonzero" fill-opacity="1" /><path clip-path="url(#clip680)" d="M124.07 1101.97 Q120.459 1101.97 118.631 1105.53 Q116.825 1109.07 116.825 1116.2 Q116.825 1123.31 118.631 1126.87 Q120.459 1130.41 124.07 1130.41 Q127.705 1130.41 129.51 1126.87 Q131.339 1123.31 131.339 1116.2 Q131.339 1109.07 129.51 1105.53 Q127.705 1101.97 124.07 1101.97 M124.07 1098.26 Q129.881 1098.26 132.936 1102.87 Q136.015 1107.45 136.015 1116.2 Q136.015 1124.93 132.936 1129.54 Q129.881 1134.12 124.07 1134.12 Q118.26 1134.12 115.182 1129.54 Q112.126 1124.93 112.126 1116.2 Q112.126 1107.45 115.182 1102.87 Q118.26 1098.26 124.07 1098.26 Z" fill="#000000" fill-rule="nonzero" fill-opacity="1" /><path clip-path="url(#clip680)" d="M57.7745 799.964 L74.0939 799.964 L74.0939 803.899 L52.1495 803.899 L52.1495 799.964 Q54.8115 797.209 59.3949 792.58 Q64.0013 787.927 65.1819 786.584 Q67.4272 784.061 68.3068 782.325 Q69.2096 780.566 69.2096 778.876 Q69.2096 776.121 67.2652 774.385 Q65.3439 772.649 62.2421 772.649 Q60.043 772.649 57.5893 773.413 Q55.1588 774.177 52.381 775.728 L52.381 771.006 Q55.2051 769.871 57.6588 769.293 Q60.1124 768.714 62.1495 768.714 Q67.5198 768.714 70.7142 771.399 Q73.9087 774.084 73.9087 778.575 Q73.9087 780.705 73.0985 782.626 Q72.3115 784.524 70.205 787.117 Q69.6263 787.788 66.5245 791.005 Q63.4226 794.2 57.7745 799.964 Z" fill="#000000" fill-rule="nonzero" fill-opacity="1" /><path clip-path="url(#clip680)" d="M93.9086 772.418 Q90.2975 772.418 88.4688 775.982 Q86.6632 779.524 86.6632 786.654 Q86.6632 793.76 88.4688 797.325 Q90.2975 800.866 93.9086 800.866 Q97.5428 800.866 99.3483 797.325 Q101.177 793.76 101.177 786.654 Q101.177 779.524 99.3483 775.982 Q97.5428 772.418 93.9086 772.418 M93.9086 768.714 Q99.7187 768.714 102.774 773.32 Q105.853 777.904 105.853 786.654 Q105.853 795.38 102.774 799.987 Q99.7187 804.57 93.9086 804.57 Q88.0984 804.57 85.0197 799.987 Q81.9642 795.38 81.9642 786.654 Q81.9642 777.904 85.0197 773.32 Q88.0984 768.714 93.9086 768.714 Z" fill="#000000" fill-rule="nonzero" fill-opacity="1" /><path clip-path="url(#clip680)" d="M124.07 772.418 Q120.459 772.418 118.631 775.982 Q116.825 779.524 116.825 786.654 Q116.825 793.76 118.631 797.325 Q120.459 800.866 124.07 800.866 Q127.705 800.866 129.51 797.325 Q131.339 793.76 131.339 786.654 Q131.339 779.524 129.51 775.982 Q127.705 772.418 124.07 772.418 M124.07 768.714 Q129.881 768.714 132.936 773.32 Q136.015 777.904 136.015 786.654 Q136.015 795.38 132.936 799.987 Q129.881 804.57 124.07 804.57 Q118.26 804.57 115.182 799.987 Q112.126 795.38 112.126 786.654 Q112.126 777.904 115.182 773.32 Q118.26 768.714 124.07 768.714 Z" fill="#000000" fill-rule="nonzero" fill-opacity="1" /><path clip-path="url(#clip680)" d="M67.9133 455.716 Q71.2698 456.434 73.1448 458.702 Q75.0429 460.971 75.0429 464.304 Q75.0429 469.42 71.5244 472.221 Q68.0059 475.022 61.5245 475.022 Q59.3486 475.022 57.0338 474.582 Q54.7421 474.165 52.2884 473.309 L52.2884 468.795 Q54.2328 469.929 56.5477 470.508 Q58.8625 471.087 61.3856 471.087 Q65.7837 471.087 68.0754 469.351 Q70.3902 467.614 70.3902 464.304 Q70.3902 461.249 68.2374 459.536 Q66.1078 457.8 62.2884 457.8 L58.2606 457.8 L58.2606 453.957 L62.4735 453.957 Q65.9226 453.957 67.7513 452.591 Q69.58 451.202 69.58 448.61 Q69.58 445.948 67.6819 444.536 Q65.8069 443.101 62.2884 443.101 Q60.3671 443.101 58.168 443.517 Q55.969 443.934 53.3301 444.814 L53.3301 440.647 Q55.9921 439.906 58.3069 439.536 Q60.6449 439.165 62.705 439.165 Q68.0291 439.165 71.1309 441.596 Q74.2327 444.003 74.2327 448.124 Q74.2327 450.994 72.5892 452.985 Q70.9457 454.952 67.9133 455.716 Z" fill="#000000" fill-rule="nonzero" fill-opacity="1" /><path clip-path="url(#clip680)" d="M93.9086 442.869 Q90.2975 442.869 88.4688 446.434 Q86.6632 449.976 86.6632 457.105 Q86.6632 464.212 88.4688 467.776 Q90.2975 471.318 93.9086 471.318 Q97.5428 471.318 99.3483 467.776 Q101.177 464.212 101.177 457.105 Q101.177 449.976 99.3483 446.434 Q97.5428 442.869 93.9086 442.869 M93.9086 439.165 Q99.7187 439.165 102.774 443.772 Q105.853 448.355 105.853 457.105 Q105.853 465.832 102.774 470.438 Q99.7187 475.022 93.9086 475.022 Q88.0984 475.022 85.0197 470.438 Q81.9642 465.832 81.9642 457.105 Q81.9642 448.355 85.0197 443.772 Q88.0984 439.165 93.9086 439.165 Z" fill="#000000" fill-rule="nonzero" fill-opacity="1" /><path clip-path="url(#clip680)" d="M124.07 442.869 Q120.459 442.869 118.631 446.434 Q116.825 449.976 116.825 457.105 Q116.825 464.212 118.631 467.776 Q120.459 471.318 124.07 471.318 Q127.705 471.318 129.51 467.776 Q131.339 464.212 131.339 457.105 Q131.339 449.976 129.51 446.434 Q127.705 442.869 124.07 442.869 M124.07 439.165 Q129.881 439.165 132.936 443.772 Q136.015 448.355 136.015 457.105 Q136.015 465.832 132.936 470.438 Q129.881 475.022 124.07 475.022 Q118.26 475.022 115.182 470.438 Q112.126 465.832 112.126 457.105 Q112.126 448.355 115.182 443.772 Q118.26 439.165 124.07 439.165 Z" fill="#000000" fill-rule="nonzero" fill-opacity="1" /><path clip-path="url(#clip680)" d="M66.5939 114.316 L54.7884 132.765 L66.5939 132.765 L66.5939 114.316 M65.367 110.242 L71.2466 110.242 L71.2466 132.765 L76.1772 132.765 L76.1772 136.654 L71.2466 136.654 L71.2466 144.802 L66.5939 144.802 L66.5939 136.654 L50.9921 136.654 L50.9921 132.14 L65.367 110.242 Z" fill="#000000" fill-rule="nonzero" fill-opacity="1" /><path clip-path="url(#clip680)" d="M93.9086 113.321 Q90.2975 113.321 88.4688 116.886 Q86.6632 120.427 86.6632 127.557 Q86.6632 134.663 88.4688 138.228 Q90.2975 141.77 93.9086 141.77 Q97.5428 141.77 99.3483 138.228 Q101.177 134.663 101.177 127.557 Q101.177 120.427 99.3483 116.886 Q97.5428 113.321 93.9086 113.321 M93.9086 109.617 Q99.7187 109.617 102.774 114.224 Q105.853 118.807 105.853 127.557 Q105.853 136.284 102.774 140.89 Q99.7187 145.473 93.9086 145.473 Q88.0984 145.473 85.0197 140.89 Q81.9642 136.284 81.9642 127.557 Q81.9642 118.807 85.0197 114.224 Q88.0984 109.617 93.9086 109.617 Z" fill="#000000" fill-rule="nonzero" fill-opacity="1" /><path clip-path="url(#clip680)" d="M124.07 113.321 Q120.459 113.321 118.631 116.886 Q116.825 120.427 116.825 127.557 Q116.825 134.663 118.631 138.228 Q120.459 141.77 124.07 141.77 Q127.705 141.77 129.51 138.228 Q131.339 134.663 131.339 127.557 Q131.339 120.427 129.51 116.886 Q127.705 113.321 124.07 113.321 M124.07 109.617 Q129.881 109.617 132.936 114.224 Q136.015 118.807 136.015 127.557 Q136.015 136.284 132.936 140.89 Q129.881 145.473 124.07 145.473 Q118.26 145.473 115.182 140.89 Q112.126 136.284 112.126 127.557 Q112.126 118.807 115.182 114.224 Q118.26 109.617 124.07 109.617 Z" fill="#000000" fill-rule="nonzero" fill-opacity="1" /><polyline clip-path="url(#clip682)" style="stroke:#0000ff; stroke-linecap:round; stroke-linejoin:round; stroke-width:4; stroke-opacity:1; fill:none" points="233.734,1445.72 235.793,1445.72 237.853,1445.72 239.912,1445.72 241.971,1445.72 244.031,1445.72 246.09,1445.72 248.149,1445.72 250.209,1445.72 252.268,1445.72 254.328,1445.72 256.387,1442.42 258.446,1439.12 260.506,1406.17 262.565,1379.81 264.624,1317.19 266.684,1340.26 268.743,1257.87 270.802,1247.99 272.862,1099.69 274.921,934.916 276.981,644.913 279.04,635.027 281.099,529.571 283.159,496.616 285.218,727.3 287.277,618.549 289.337,546.049 291.396,667.981 293.455,724.005 295.515,1000.83 297.574,1149.12 299.633,1264.46 301.693,1343.56 303.752,1366.62 305.812,1419.35 307.871,1416.06 309.93,1435.83 311.99,1439.12 314.049,1442.42 316.108,1435.83 318.168,1435.83 320.227,1425.94 322.286,1396.28 324.346,1320.49 326.405,1152.42 328.465,961.28 330.524,793.21 332.583,733.891 334.643,691.05 336.702,483.434 338.761,318.66 340.821,87.9763 342.88,97.8627 344.939,295.592 346.999,611.958 349.058,888.779 351.118,1010.71 353.177,1099.69 355.236,1208.44 357.296,1274.35 359.355,1386.4 361.414,1425.94 363.474,1432.53 365.533,1442.42 367.592,1445.72 369.652,1442.42 371.711,1442.42 373.771,1422.65 375.83,1412.76 377.889,1366.62 379.949,1323.78 382.008,1254.58 384.067,1155.71 386.127,1030.48 388.186,809.687 390.245,700.936 392.305,592.185 394.364,579.003 396.424,829.46 398.483,806.392 400.542,845.938 402.602,948.098 404.661,961.28 406.72,1070.03 408.78,1261.17 410.839,1330.37 412.898,1363.33 414.958,1416.06 417.017,1435.83 419.077,1439.12 421.136,1435.83 423.195,1442.42 425.255,1439.12 427.314,1425.94 429.373,1432.53 431.433,1425.94 433.492,1383.1 435.551,1307.31 437.611,1053.55 439.67,974.461 441.729,898.665 443.789,862.415 445.848,872.301 447.908,842.642 449.967,562.526 452.026,631.731 454.086,674.572 456.145,872.301 458.204,1102.99 460.264,1172.19 462.323,1304.01 464.382,1307.31 466.442,1336.96 468.501,1409.47 470.561,1422.65 472.62,1442.42 474.679,1445.72 476.739,1445.72 478.798,1442.42 480.857,1435.83 482.917,1432.53 484.976,1386.4 487.035,1360.03 489.095,1313.9 491.154,1267.76 493.214,1287.53 495.273,1195.26 497.332,1037.08 499.392,855.824 501.451,822.869 503.51,888.779 505.57,944.802 507.629,1043.67 509.688,1155.71 511.748,1149.12 513.807,1122.76 515.867,1234.8 517.926,1353.44 519.985,1389.69 522.045,1425.94 524.104,1425.94 526.163,1435.83 528.223,1442.42 530.282,1442.42 532.341,1445.72 534.401,1432.53 536.46,1425.94 538.52,1422.65 540.579,1412.76 542.638,1369.92 544.698,1340.26 546.757,1221.62 548.816,1079.92 550.876,1040.37 552.935,1066.74 554.994,1066.74 557.054,1053.55 559.113,918.438 561.173,981.052 563.232,934.916 565.291,1076.62 567.351,1198.55 569.41,1297.42 571.469,1336.96 573.529,1373.22 575.588,1383.1 577.647,1422.65 579.707,1445.72 581.766,1435.83 583.825,1445.72 585.885,1439.12 587.944,1445.72 590.004,1432.53 592.063,1422.65 594.122,1409.47 596.182,1360.03 598.241,1343.56 600.3,1244.69 602.36,1238.1 604.419,1277.65 606.478,1126.05 608.538,1037.08 610.597,971.166 612.657,1037.08 614.716,1152.42 616.775,1201.85 618.835,1244.69 620.894,1261.17 622.953,1346.85 625.013,1327.08 627.072,1373.22 629.131,1416.06 631.191,1435.83 633.25,1435.83 635.31,1445.72 637.369,1435.83 639.428,1445.72 641.488,1442.42 643.547,1442.42 645.606,1432.53 647.666,1409.47 649.725,1402.87 651.784,1396.28 653.844,1317.19 655.903,1294.12 657.963,1165.6 660.022,1046.96 662.081,1122.76 664.141,1099.69 666.2,1165.6 668.259,1198.55 670.319,1168.9 672.378,1122.76 674.437,1254.58 676.497,1251.28 678.556,1363.33 680.616,1399.58 682.675,1419.35 684.734,1439.12 686.794,1442.42 688.853,1442.42 690.912,1445.72 692.972,1445.72 695.031,1442.42 697.09,1435.83 699.15,1435.83 701.209,1439.12 703.269,1399.58 705.328,1366.62 707.387,1360.03 709.447,1290.83 711.506,1280.94 713.565,1294.12 715.625,1221.62 717.684,1211.74 719.743,1145.83 721.803,1116.17 723.862,1231.51 725.921,1234.8 727.981,1336.96 730.04,1366.62 732.1,1350.15 734.159,1383.1 736.218,1422.65 738.278,1425.94 740.337,1435.83 742.396,1442.42 744.456,1445.72 746.515,1445.72 748.574,1445.72 750.634,1445.72 752.693,1445.72 754.753,1442.42 756.812,1406.17 758.871,1416.06 760.931,1369.92 762.99,1330.37 765.049,1330.37 767.109,1277.65 769.168,1211.74 771.227,1175.49 773.287,1149.12 775.346,1277.65 777.406,1241.4 779.465,1234.8 781.524,1304.01 783.584,1277.65 785.643,1356.74 787.702,1419.35 789.762,1409.47 791.821,1439.12 793.88,1439.12 795.94,1439.12 797.999,1442.42 800.059,1442.42 802.118,1445.72 804.177,1445.72 806.237,1445.72 808.296,1439.12 810.355,1429.24 812.415,1392.99 814.474,1379.81 816.533,1330.37 818.593,1280.94 820.652,1277.65 822.712,1300.71 824.771,1231.51 826.83,1195.26 828.89,1172.19 830.949,1178.78 833.008,1257.87 835.068,1313.9 837.127,1336.96 839.186,1366.62 841.246,1396.28 843.305,1412.76 845.365,1419.35 847.424,1442.42 849.483,1445.72 851.543,1445.72 853.602,1445.72 855.661,1445.72 857.721,1442.42 859.78,1442.42 861.839,1422.65 863.899,1429.24 865.958,1389.69 868.017,1406.17 870.077,1376.51 872.136,1356.74 874.196,1307.31 876.255,1267.76 878.314,1228.21 880.374,1261.17 882.433,1264.46 884.492,1307.31 886.552,1317.19 888.611,1313.9 890.67,1313.9 892.73,1330.37 894.789,1366.62 896.849,1429.24 898.908,1439.12 900.967,1439.12 903.027,1442.42 905.086,1442.42 907.145,1445.72 909.205,1445.72 911.264,1442.42 913.323,1445.72 915.383,1439.12 917.442,1435.83 919.502,1429.24 921.561,1422.65 923.62,1379.81 925.68,1333.67 927.739,1310.6 929.798,1307.31 931.858,1254.58 933.917,1313.9 935.976,1267.76 938.036,1297.42 940.095,1287.53 942.155,1274.35 944.214,1363.33 946.273,1389.69 948.333,1406.17 950.392,1416.06 952.451,1412.76 954.511,1435.83 956.57,1442.42 958.629,1442.42 960.689,1445.72 962.748,1442.42 964.808,1445.72 966.867,1445.72 968.926,1442.42 970.986,1439.12 973.045,1416.06 975.104,1412.76 977.164,1389.69 979.223,1363.33 981.282,1356.74 983.342,1310.6 985.401,1317.19 987.46,1287.53 989.52,1234.8 991.579,1254.58 993.639,1350.15 995.698,1350.15 997.757,1363.33 999.817,1353.44 1001.88,1399.58 1003.94,1389.69 1005.99,1429.24 1008.05,1442.42 1010.11,1445.72 1012.17,1442.42 1014.23,1442.42 1016.29,1445.72 1018.35,1442.42 1020.41,1445.72 1022.47,1445.72 1024.53,1432.53 1026.59,1422.65 1028.65,1429.24 1030.71,1425.94 1032.77,1386.4 1034.83,1356.74 1036.89,1290.83 1038.94,1277.65 1041,1353.44 1043.06,1307.31 1045.12,1320.49 1047.18,1297.42 1049.24,1330.37 1051.3,1327.08 1053.36,1379.81 1055.42,1392.99 1057.48,1432.53 1059.54,1425.94 1061.6,1435.83 1063.66,1425.94 1065.72,1445.72 1067.78,1445.72 1069.83,1445.72 1071.89,1445.72 1073.95,1442.42 1076.01,1445.72 1078.07,1442.42 1080.13,1439.12 1082.19,1435.83 1084.25,1399.58 1086.31,1373.22 1088.37,1350.15 1090.43,1356.74 1092.49,1360.03 1094.55,1330.37 1096.61,1300.71 1098.67,1294.12 1100.73,1304.01 1102.78,1320.49 1104.84,1376.51 1106.9,1379.81 1108.96,1416.06 1111.02,1406.17 1113.08,1409.47 1115.14,1425.94 1117.2,1445.72 1119.26,1445.72 1121.32,1445.72 1123.38,1445.72 1125.44,1442.42 1127.5,1442.42 1129.56,1445.72 1131.62,1445.72 1133.68,1429.24 1135.73,1419.35 1137.79,1432.53 1139.85,1416.06 1141.91,1379.81 1143.97,1346.85 1146.03,1336.96 1148.09,1317.19 1150.15,1310.6 1152.21,1340.26 1154.27,1356.74 1156.33,1333.67 1158.39,1350.15 1160.45,1336.96 1162.51,1373.22 1164.57,1409.47 1166.63,1435.83 1168.68,1422.65 1170.74,1442.42 1172.8,1442.42 1174.86,1439.12 1176.92,1445.72 1178.98,1445.72 1181.04,1442.42 1183.1,1442.42 1185.16,1445.72 1187.22,1435.83 1189.28,1435.83 1191.34,1422.65 1193.4,1419.35 1195.46,1369.92 1197.52,1346.85 1199.57,1373.22 1201.63,1366.62 1203.69,1353.44 1205.75,1327.08 1207.81,1320.49 1209.87,1327.08 1211.93,1353.44 1213.99,1376.51 1216.05,1412.76 1218.11,1409.47 1220.17,1425.94 1222.23,1419.35 1224.29,1429.24 1226.35,1445.72 1228.41,1445.72 1230.47,1445.72 1232.52,1445.72 1234.58,1445.72 1236.64,1445.72 1238.7,1442.42 1240.76,1442.42 1242.82,1416.06 1244.88,1419.35 1246.94,1419.35 1249,1379.81 1251.06,1416.06 1253.12,1356.74 1255.18,1333.67 1257.24,1336.96 1259.3,1340.26 1261.36,1360.03 1263.42,1340.26 1265.47,1392.99 1267.53,1386.4 1269.59,1386.4 1271.65,1439.12 1273.71,1425.94 1275.77,1412.76 1277.83,1439.12 1279.89,1442.42 1281.95,1445.72 1284.01,1445.72 1286.07,1445.72 1288.13,1445.72 1290.19,1439.12 1292.25,1445.72 1294.31,1442.42 1296.36,1445.72 1298.42,1435.83 1300.48,1422.65 1302.54,1399.58 1304.6,1376.51 1306.66,1383.1 1308.72,1356.74 1310.78,1373.22 1312.84,1363.33 1314.9,1350.15 1316.96,1340.26 1319.02,1356.74 1321.08,1383.1 1323.14,1406.17 1325.2,1425.94 1327.26,1435.83 1329.31,1425.94 1331.37,1435.83 1333.43,1439.12 1335.49,1442.42 1337.55,1445.72 1339.61,1445.72 1341.67,1442.42 1343.73,1445.72 1345.79,1445.72 1347.85,1439.12 1349.91,1442.42 1351.97,1432.53 1354.03,1419.35 1356.09,1419.35 1358.15,1409.47 1360.21,1396.28 1362.26,1409.47 1364.32,1366.62 1366.38,1366.62 1368.44,1373.22 1370.5,1369.92 1372.56,1373.22 1374.62,1409.47 1376.68,1406.17 1378.74,1406.17 1380.8,1425.94 1382.86,1435.83 1384.92,1445.72 1386.98,1445.72 1389.04,1442.42 1391.1,1445.72 1393.15,1445.72 1395.21,1445.72 1397.27,1445.72 1399.33,1442.42 1401.39,1435.83 1403.45,1442.42 1405.51,1432.53 1407.57,1435.83 1409.63,1422.65 1411.69,1425.94 1413.75,1406.17 1415.81,1386.4 1417.87,1369.92 1419.93,1350.15 1421.99,1373.22 1424.05,1389.69 1426.1,1399.58 1428.16,1379.81 1430.22,1402.87 1432.28,1399.58 1434.34,1432.53 1436.4,1432.53 1438.46,1435.83 1440.52,1435.83 1442.58,1439.12 1444.64,1445.72 1446.7,1445.72 1448.76,1445.72 1450.82,1445.72 1452.88,1445.72 1454.94,1439.12 1457,1442.42 1459.05,1429.24 1461.11,1435.83 1463.17,1425.94 1465.23,1416.06 1467.29,1432.53 1469.35,1389.69 1471.41,1396.28 1473.47,1369.92 1475.53,1376.51 1477.59,1392.99 1479.65,1369.92 1481.71,1412.76 1483.77,1399.58 1485.83,1439.12 1487.89,1422.65 1489.94,1432.53 1492,1432.53 1494.06,1439.12 1496.12,1442.42 1498.18,1445.72 1500.24,1445.72 1502.3,1445.72 1504.36,1445.72 1506.42,1442.42 1508.48,1445.72 1510.54,1442.42 1512.6,1439.12 1514.66,1432.53 1516.72,1432.53 1518.78,1429.24 1520.84,1396.28 1522.89,1409.47 1524.95,1396.28 1527.01,1396.28 1529.07,1389.69 1531.13,1399.58 1533.19,1392.99 1535.25,1399.58 1537.31,1389.69 1539.37,1419.35 1541.43,1416.06 1543.49,1435.83 1545.55,1435.83 1547.61,1442.42 1549.67,1445.72 1551.73,1442.42 1553.79,1445.72 1555.84,1445.72 1557.9,1445.72 1559.96,1445.72 1562.02,1445.72 1564.08,1445.72 1566.14,1445.72 1568.2,1445.72 1570.26,1435.83 1572.32,1419.35 1574.38,1419.35 1576.44,1412.76 1578.5,1402.87 1580.56,1402.87 1582.62,1386.4 1584.68,1379.81 1586.73,1389.69 1588.79,1383.1 1590.85,1406.17 1592.91,1412.76 1594.97,1422.65 1597.03,1429.24 1599.09,1425.94 1601.15,1442.42 1603.21,1445.72 1605.27,1445.72 1607.33,1439.12 1609.39,1445.72 1611.45,1445.72 1613.51,1445.72 1615.57,1445.72 1617.63,1445.72 1619.68,1445.72 1621.74,1442.42 1623.8,1432.53 1625.86,1425.94 1627.92,1422.65 1629.98,1419.35 1632.04,1406.17 1634.1,1386.4 1636.16,1392.99 1638.22,1402.87 1640.28,1406.17 1642.34,1396.28 1644.4,1422.65 1646.46,1409.47 1648.52,1409.47 1650.58,1435.83 1652.63,1429.24 1654.69,1445.72 1656.75,1445.72 1658.81,1439.12 1660.87,1445.72 1662.93,1445.72 1664.99,1442.42 1667.05,1445.72 1669.11,1445.72 1671.17,1445.72 1673.23,1445.72 1675.29,1442.42 1677.35,1429.24 1679.41,1435.83 1681.47,1425.94 1683.52,1389.69 1685.58,1406.17 1687.64,1406.17 1689.7,1399.58 1691.76,1425.94 1693.82,1396.28 1695.88,1379.81 1697.94,1409.47 1700,1432.53 1702.06,1439.12 1704.12,1432.53 1706.18,1435.83 1708.24,1439.12 1710.3,1442.42 1712.36,1445.72 1714.42,1445.72 1716.47,1445.72 1718.53,1445.72 1720.59,1445.72 1722.65,1445.72 1724.71,1442.42 1726.77,1445.72 1728.83,1435.83 1730.89,1442.42 1732.95,1439.12 1735.01,1429.24 1737.07,1439.12 1739.13,1422.65 1741.19,1402.87 1743.25,1406.17 1745.31,1386.4 1747.37,1412.76 1749.42,1402.87 1751.48,1425.94 1753.54,1409.47 1755.6,1406.17 1757.66,1429.24 1759.72,1419.35 1761.78,1445.72 1763.84,1439.12 1765.9,1445.72 1767.96,1445.72 1770.02,1445.72 1772.08,1445.72 1774.14,1445.72 1776.2,1445.72 1778.26,1445.72 1780.31,1442.42 1782.37,1442.42 1784.43,1442.42 1786.49,1435.83 1788.55,1442.42 1790.61,1435.83 1792.67,1402.87 1794.73,1416.06 1796.79,1419.35 1798.85,1392.99 1800.91,1429.24 1802.97,1409.47 1805.03,1412.76 1807.09,1409.47 1809.15,1419.35 1811.21,1425.94 1813.26,1435.83 1815.32,1445.72 1817.38,1439.12 1819.44,1435.83 1821.5,1445.72 1823.56,1445.72 1825.62,1445.72 1827.68,1445.72 1829.74,1445.72 1831.8,1445.72 1833.86,1445.72 1835.92,1445.72 1837.98,1445.72 1840.04,1442.42 1842.1,1429.24 1844.16,1429.24 1846.21,1425.94 1848.27,1406.17 1850.33,1409.47 1852.39,1422.65 1854.45,1392.99 1856.51,1412.76 1858.57,1412.76 1860.63,1406.17 1862.69,1432.53 1864.75,1432.53 1866.81,1435.83 1868.87,1435.83 1870.93,1435.83 1872.99,1439.12 1875.05,1445.72 1877.11,1445.72 1879.16,1445.72 1881.22,1445.72 1883.28,1442.42 1885.34,1445.72 1887.4,1442.42 1889.46,1445.72 1891.52,1442.42 1893.58,1439.12 1895.64,1439.12 1897.7,1439.12 1899.76,1432.53 1901.82,1416.06 1903.88,1386.4 1905.94,1402.87 1908,1412.76 1910.05,1425.94 1912.11,1416.06 1914.17,1399.58 1916.23,1416.06 1918.29,1435.83 1920.35,1429.24 1922.41,1439.12 1924.47,1442.42 1926.53,1442.42 1928.59,1442.42 1930.65,1442.42 1932.71,1445.72 1934.77,1445.72 1936.83,1445.72 1938.89,1445.72 1940.95,1445.72 1943,1445.72 1945.06,1435.83 1947.12,1445.72 1949.18,1435.83 1951.24,1432.53 1953.3,1432.53 1955.36,1425.94 1957.42,1425.94 1959.48,1422.65 1961.54,1412.76 1963.6,1402.87 1965.66,1419.35 1967.72,1422.65 1969.78,1429.24 1971.84,1429.24 1973.9,1435.83 1975.95,1439.12 1978.01,1442.42 1980.07,1439.12 1982.13,1445.72 1984.19,1445.72 1986.25,1445.72 1988.31,1445.72 1990.37,1445.72 1992.43,1445.72 1994.49,1445.72 1996.55,1445.72 1998.61,1445.72 2000.67,1439.12 2002.73,1445.72 2004.79,1439.12 2006.84,1439.12 2008.9,1429.24 2010.96,1432.53 2013.02,1422.65 2015.08,1416.06 2017.14,1412.76 2019.2,1435.83 2021.26,1422.65 2023.32,1419.35 2025.38,1425.94 2027.44,1429.24 2029.5,1442.42 2031.56,1445.72 2033.62,1445.72 2035.68,1442.42 2037.74,1445.72 2039.79,1445.72 2041.85,1445.72 2043.91,1445.72 2045.97,1445.72 2048.03,1445.72 2050.09,1442.42 2052.15,1439.12 2054.21,1445.72 2056.27,1445.72 2058.33,1439.12 2060.39,1429.24 2062.45,1429.24 2064.51,1425.94 2066.57,1416.06 2068.63,1419.35 2070.69,1439.12 2072.74,1412.76 2074.8,1412.76 2076.86,1425.94 2078.92,1432.53 2080.98,1439.12 2083.04,1442.42 2085.1,1439.12 2087.16,1445.72 2089.22,1439.12 2091.28,1445.72 2093.34,1445.72 2095.4,1445.72 2097.46,1445.72 2099.52,1445.72 2101.58,1445.72 2103.63,1445.72 2105.69,1445.72 2107.75,1445.72 2109.81,1445.72 2111.87,1435.83 2113.93,1425.94 2115.99,1435.83 2118.05,1432.53 2120.11,1435.83 2122.17,1419.35 2124.23,1442.42 2126.29,1419.35 2128.35,1435.83 2130.41,1425.94 2132.47,1432.53 2134.53,1445.72 2136.58,1432.53 2138.64,1445.72 2140.7,1445.72 2142.76,1445.72 2144.82,1445.72 2146.88,1445.72 2148.94,1445.72 2151,1445.72 2153.06,1445.72 2155.12,1445.72 2157.18,1442.42 2159.24,1445.72 2161.3,1442.42 2163.36,1445.72 2165.42,1439.12 2167.48,1442.42 2169.53,1435.83 2171.59,1429.24 2173.65,1435.83 2175.71,1435.83 2177.77,1429.24 2179.83,1439.12 2181.89,1432.53 2183.95,1439.12 2186.01,1432.53 2188.07,1439.12 2190.13,1445.72 2192.19,1445.72 2194.25,1442.42 2196.31,1445.72 2198.37,1445.72 2200.42,1445.72 2202.48,1445.72 2204.54,1445.72 2206.6,1445.72 2208.66,1445.72 2210.72,1445.72 2212.78,1445.72 2214.84,1445.72 2216.9,1442.42 2218.96,1442.42 2221.02,1435.83 2223.08,1439.12 2225.14,1445.72 2227.2,1442.42 2229.26,1439.12 2231.32,1419.35 2233.37,1429.24 2235.43,1435.83 2237.49,1432.53 2239.55,1439.12 2241.61,1435.83 2243.67,1445.72 2245.73,1442.42 2247.79,1435.83 2249.85,1445.72 2251.91,1445.72 2253.97,1445.72 2256.03,1445.72 2258.09,1445.72 2260.15,1445.72 2262.21,1445.72 2264.27,1445.72 2266.32,1445.72 2268.38,1445.72 2270.44,1445.72 2272.5,1445.72 2274.56,1445.72 2276.62,1442.42 2278.68,1445.72 2280.74,1442.42 2282.8,1445.72 2284.86,1442.42 2286.92,1442.42 2288.98,1442.42 2291.04,1445.72 "/>
<circle clip-path="url(#clip682)" cx="283.159" cy="496.616" r="14.4" fill="#ff0000" fill-rule="evenodd" fill-opacity="1" stroke="#000000" stroke-opacity="1" stroke-width="3.2"/>
<circle clip-path="url(#clip682)" cx="340.821" cy="87.9763" r="14.4" fill="#ff0000" fill-rule="evenodd" fill-opacity="1" stroke="#000000" stroke-opacity="1" stroke-width="3.2"/>
<circle clip-path="url(#clip682)" cx="394.364" cy="579.003" r="14.4" fill="#ff0000" fill-rule="evenodd" fill-opacity="1" stroke="#000000" stroke-opacity="1" stroke-width="3.2"/>
<circle clip-path="url(#clip682)" cx="449.967" cy="562.526" r="14.4" fill="#ff0000" fill-rule="evenodd" fill-opacity="1" stroke="#000000" stroke-opacity="1" stroke-width="3.2"/>
<circle clip-path="url(#clip682)" cx="501.451" cy="822.869" r="14.4" fill="#ff0000" fill-rule="evenodd" fill-opacity="1" stroke="#000000" stroke-opacity="1" stroke-width="3.2"/>
<circle clip-path="url(#clip682)" cx="559.113" cy="918.438" r="14.4" fill="#ff0000" fill-rule="evenodd" fill-opacity="1" stroke="#000000" stroke-opacity="1" stroke-width="3.2"/>
<circle clip-path="url(#clip682)" cx="610.597" cy="971.166" r="14.4" fill="#ff0000" fill-rule="evenodd" fill-opacity="1" stroke="#000000" stroke-opacity="1" stroke-width="3.2"/>
<circle clip-path="url(#clip682)" cx="660.022" cy="1046.96" r="14.4" fill="#ff0000" fill-rule="evenodd" fill-opacity="1" stroke="#000000" stroke-opacity="1" stroke-width="3.2"/>
<circle clip-path="url(#clip682)" cx="721.803" cy="1116.17" r="14.4" fill="#ff0000" fill-rule="evenodd" fill-opacity="1" stroke="#000000" stroke-opacity="1" stroke-width="3.2"/>
<circle clip-path="url(#clip682)" cx="773.287" cy="1149.12" r="14.4" fill="#ff0000" fill-rule="evenodd" fill-opacity="1" stroke="#000000" stroke-opacity="1" stroke-width="3.2"/>
<circle clip-path="url(#clip682)" cx="828.89" cy="1172.19" r="14.4" fill="#ff0000" fill-rule="evenodd" fill-opacity="1" stroke="#000000" stroke-opacity="1" stroke-width="3.2"/>
<circle clip-path="url(#clip682)" cx="878.314" cy="1228.21" r="14.4" fill="#ff0000" fill-rule="evenodd" fill-opacity="1" stroke="#000000" stroke-opacity="1" stroke-width="3.2"/>
<circle clip-path="url(#clip682)" cx="931.858" cy="1254.58" r="14.4" fill="#ff0000" fill-rule="evenodd" fill-opacity="1" stroke="#000000" stroke-opacity="1" stroke-width="3.2"/>
<circle clip-path="url(#clip682)" cx="989.52" cy="1234.8" r="14.4" fill="#ff0000" fill-rule="evenodd" fill-opacity="1" stroke="#000000" stroke-opacity="1" stroke-width="3.2"/>
<circle clip-path="url(#clip682)" cx="1038.94" cy="1277.65" r="14.4" fill="#ff0000" fill-rule="evenodd" fill-opacity="1" stroke="#000000" stroke-opacity="1" stroke-width="3.2"/>
<circle clip-path="url(#clip682)" cx="1098.67" cy="1294.12" r="14.4" fill="#ff0000" fill-rule="evenodd" fill-opacity="1" stroke="#000000" stroke-opacity="1" stroke-width="3.2"/>
<circle clip-path="url(#clip682)" cx="1150.15" cy="1310.6" r="14.4" fill="#ff0000" fill-rule="evenodd" fill-opacity="1" stroke="#000000" stroke-opacity="1" stroke-width="3.2"/>
<circle clip-path="url(#clip682)" cx="1207.81" cy="1320.49" r="14.4" fill="#ff0000" fill-rule="evenodd" fill-opacity="1" stroke="#000000" stroke-opacity="1" stroke-width="3.2"/>
<circle clip-path="url(#clip682)" cx="1255.18" cy="1333.67" r="14.4" fill="#ff0000" fill-rule="evenodd" fill-opacity="1" stroke="#000000" stroke-opacity="1" stroke-width="3.2"/>
<circle clip-path="url(#clip682)" cx="1316.96" cy="1340.26" r="14.4" fill="#ff0000" fill-rule="evenodd" fill-opacity="1" stroke="#000000" stroke-opacity="1" stroke-width="3.2"/>
<circle clip-path="url(#clip682)" cx="1419.93" cy="1350.15" r="14.4" fill="#ff0000" fill-rule="evenodd" fill-opacity="1" stroke="#000000" stroke-opacity="1" stroke-width="3.2"/>
<circle clip-path="url(#clip682)" cx="1529.07" cy="1389.69" r="14.4" fill="#ff0000" fill-rule="evenodd" fill-opacity="1" stroke="#000000" stroke-opacity="1" stroke-width="3.2"/>
<circle clip-path="url(#clip682)" cx="1584.68" cy="1379.81" r="14.4" fill="#ff0000" fill-rule="evenodd" fill-opacity="1" stroke="#000000" stroke-opacity="1" stroke-width="3.2"/>
<circle clip-path="url(#clip682)" cx="1634.1" cy="1386.4" r="14.4" fill="#ff0000" fill-rule="evenodd" fill-opacity="1" stroke="#000000" stroke-opacity="1" stroke-width="3.2"/>
<circle clip-path="url(#clip682)" cx="1683.52" cy="1389.69" r="14.4" fill="#ff0000" fill-rule="evenodd" fill-opacity="1" stroke="#000000" stroke-opacity="1" stroke-width="3.2"/>
<circle clip-path="url(#clip682)" cx="1695.88" cy="1379.81" r="14.4" fill="#ff0000" fill-rule="evenodd" fill-opacity="1" stroke="#000000" stroke-opacity="1" stroke-width="3.2"/>
<circle clip-path="url(#clip682)" cx="1745.31" cy="1386.4" r="14.4" fill="#ff0000" fill-rule="evenodd" fill-opacity="1" stroke="#000000" stroke-opacity="1" stroke-width="3.2"/>
<circle clip-path="url(#clip682)" cx="1798.85" cy="1392.99" r="14.4" fill="#ff0000" fill-rule="evenodd" fill-opacity="1" stroke="#000000" stroke-opacity="1" stroke-width="3.2"/>
<circle clip-path="url(#clip682)" cx="1854.45" cy="1392.99" r="14.4" fill="#ff0000" fill-rule="evenodd" fill-opacity="1" stroke="#000000" stroke-opacity="1" stroke-width="3.2"/>
<circle clip-path="url(#clip682)" cx="1903.88" cy="1386.4" r="14.4" fill="#ff0000" fill-rule="evenodd" fill-opacity="1" stroke="#000000" stroke-opacity="1" stroke-width="3.2"/>
<circle clip-path="url(#clip682)" cx="1963.6" cy="1402.87" r="14.4" fill="#ff0000" fill-rule="evenodd" fill-opacity="1" stroke="#000000" stroke-opacity="1" stroke-width="3.2"/>
<circle clip-path="url(#clip682)" cx="2017.14" cy="1412.76" r="14.4" fill="#ff0000" fill-rule="evenodd" fill-opacity="1" stroke="#000000" stroke-opacity="1" stroke-width="3.2"/>
<circle clip-path="url(#clip682)" cx="2231.32" cy="1419.35" r="14.4" fill="#ff0000" fill-rule="evenodd" fill-opacity="1" stroke="#000000" stroke-opacity="1" stroke-width="3.2"/>
<path clip-path="url(#clip680)" d="M2009.56 250.738 L2280.06 250.738 L2280.06 95.2176 L2009.56 95.2176  Z" fill="#ffffff" fill-rule="evenodd" fill-opacity="1"/>
<polyline clip-path="url(#clip680)" style="stroke:#000000; stroke-linecap:round; stroke-linejoin:round; stroke-width:4; stroke-opacity:1; fill:none" points="2009.56,250.738 2280.06,250.738 2280.06,95.2176 2009.56,95.2176 2009.56,250.738 "/>
<polyline clip-path="url(#clip680)" style="stroke:#0000ff; stroke-linecap:round; stroke-linejoin:round; stroke-width:4; stroke-opacity:1; fill:none" points="2033.79,147.058 2179.17,147.058 "/>
<path clip-path="url(#clip680)" d="M2217.25 166.745 Q2215.44 171.375 2213.73 172.787 Q2212.01 174.199 2209.14 174.199 L2205.74 174.199 L2205.74 170.634 L2208.24 170.634 Q2210 170.634 2210.97 169.8 Q2211.95 168.967 2213.13 165.865 L2213.89 163.921 L2203.4 138.412 L2207.92 138.412 L2216.02 158.689 L2224.12 138.412 L2228.64 138.412 L2217.25 166.745 Z" fill="#000000" fill-rule="nonzero" fill-opacity="1" /><path clip-path="url(#clip680)" d="M2235.93 160.402 L2243.57 160.402 L2243.57 134.037 L2235.26 135.703 L2235.26 131.444 L2243.52 129.778 L2248.2 129.778 L2248.2 160.402 L2255.83 160.402 L2255.83 164.338 L2235.93 164.338 L2235.93 160.402 Z" fill="#000000" fill-rule="nonzero" fill-opacity="1" /><circle clip-path="url(#clip680)" cx="2106.48" cy="198.898" r="20.48" fill="#ff0000" fill-rule="evenodd" fill-opacity="1" stroke="#000000" stroke-opacity="1" stroke-width="4.55111"/>
<path clip-path="url(#clip680)" d="M2217.25 218.585 Q2215.44 223.215 2213.73 224.627 Q2212.01 226.039 2209.14 226.039 L2205.74 226.039 L2205.74 222.474 L2208.24 222.474 Q2210 222.474 2210.97 221.64 Q2211.95 220.807 2213.13 217.705 L2213.89 215.761 L2203.4 190.252 L2207.92 190.252 L2216.02 210.529 L2224.12 190.252 L2228.64 190.252 L2217.25 218.585 Z" fill="#000000" fill-rule="nonzero" fill-opacity="1" /><path clip-path="url(#clip680)" d="M2239.14 212.242 L2255.46 212.242 L2255.46 216.178 L2233.52 216.178 L2233.52 212.242 Q2236.18 209.488 2240.76 204.858 Q2245.37 200.205 2246.55 198.863 Q2248.8 196.34 2249.68 194.604 Q2250.58 192.844 2250.58 191.155 Q2250.58 188.4 2248.64 186.664 Q2246.71 184.928 2243.61 184.928 Q2241.41 184.928 2238.96 185.692 Q2236.53 186.455 2233.75 188.006 L2233.75 183.284 Q2236.57 182.15 2239.03 181.571 Q2241.48 180.993 2243.52 180.993 Q2248.89 180.993 2252.08 183.678 Q2255.28 186.363 2255.28 190.854 Q2255.28 192.983 2254.47 194.905 Q2253.68 196.803 2251.57 199.395 Q2251 200.067 2247.89 203.284 Q2244.79 206.479 2239.14 212.242 Z" fill="#000000" fill-rule="nonzero" fill-opacity="1" /></svg>
