<?xml version="1.0" encoding="utf-8"?>
<svg xmlns="http://www.w3.org/2000/svg" xmlns:xlink="http://www.w3.org/1999/xlink" width="600" height="400" viewBox="0 0 2400 1600">
<defs>
  <clipPath id="clip760">
    <rect x="0" y="0" width="2400" height="1600"/>
  </clipPath>
</defs>
<path clip-path="url(#clip760)" d="M0 1600 L2400 1600 L2400 0 L0 0  Z" fill="#ffffff" fill-rule="evenodd" fill-opacity="1"/>
<defs>
  <clipPath id="clip761">
    <rect x="480" y="0" width="1681" height="1600"/>
  </clipPath>
</defs>
<path clip-path="url(#clip760)" d="M110.881 1486.45 L2352.76 1486.45 L2352.76 47.2441 L110.881 47.2441  Z" fill="#ffffff" fill-rule="evenodd" fill-opacity="1"/>
<defs>
  <clipPath id="clip762">
    <rect x="110" y="47" width="2243" height="1440"/>
  </clipPath>
</defs>
<polyline clip-path="url(#clip762)" style="stroke:#000000; stroke-linecap:round; stroke-linejoin:round; stroke-width:2; stroke-opacity:0.1; fill:none" points="113.263,1486.45 113.263,47.2441 "/>
<polyline clip-path="url(#clip762)" style="stroke:#000000; stroke-linecap:round; stroke-linejoin:round; stroke-width:2; stroke-opacity:0.1; fill:none" points="717.888,1486.45 717.888,47.2441 "/>
<polyline clip-path="url(#clip762)" style="stroke:#000000; stroke-linecap:round; stroke-linejoin:round; stroke-width:2; stroke-opacity:0.1; fill:none" points="1322.51,1486.45 1322.51,47.2441 "/>
<polyline clip-path="url(#clip762)" style="stroke:#000000; stroke-linecap:round; stroke-linejoin:round; stroke-width:2; stroke-opacity:0.1; fill:none" points="1927.14,1486.45 1927.14,47.2441 "/>
<polyline clip-path="url(#clip762)" style="stroke:#000000; stroke-linecap:round; stroke-linejoin:round; stroke-width:2; stroke-opacity:0.1; fill:none" points="110.881,1486.45 2352.76,1486.45 "/>
<polyline clip-path="url(#clip762)" style="stroke:#000000; stroke-linecap:round; stroke-linejoin:round; stroke-width:2; stroke-opacity:0.1; fill:none" points="110.881,1006.71 2352.76,1006.71 "/>
<polyline clip-path="url(#clip762)" style="stroke:#000000; stroke-linecap:round; stroke-linejoin:round; stroke-width:2; stroke-opacity:0.1; fill:none" points="110.881,526.979 2352.76,526.979 "/>
<polyline clip-path="url(#clip762)" style="stroke:#000000; stroke-linecap:round; stroke-linejoin:round; stroke-width:2; stroke-opacity:0.1; fill:none" points="110.881,47.2441 2352.76,47.2441 "/>
<polyline clip-path="url(#clip760)" style="stroke:#000000; stroke-linecap:round; stroke-linejoin:round; stroke-width:4; stroke-opacity:1; fill:none" points="110.881,1486.45 2352.76,1486.45 "/>
<polyline clip-path="url(#clip760)" style="stroke:#000000; stroke-linecap:round; stroke-linejoin:round; stroke-width:4; stroke-opacity:1; fill:none" points="113.263,1486.45 113.263,1467.55 "/>
<polyline clip-path="url(#clip760)" style="stroke:#000000; stroke-linecap:round; stroke-linejoin:round; stroke-width:4; stroke-opacity:1; fill:none" points="717.888,1486.45 717.888,1467.55 "/>
<polyline clip-path="url(#clip760)" style="stroke:#000000; stroke-linecap:round; stroke-linejoin:round; stroke-width:4; stroke-opacity:1; fill:none" points="1322.51,1486.45 1322.51,1467.55 "/>
<polyline clip-path="url(#clip760)" style="stroke:#000000; stroke-linecap:round; stroke-linejoin:round; stroke-width:4; stroke-opacity:1; fill:none" points="1927.14,1486.45 1927.14,1467.55 "/>
<path clip-path="url(#clip760)" d="M88.7493 1544.91 L96.3882 1544.91 L96.3882 1518.55 L88.0781 1520.21 L88.0781 1515.95 L96.3419 1514.29 L101.018 1514.29 L101.018 1544.91 L108.657 1544.91 L108.657 1548.85 L88.7493 1548.85 L88.7493 1544.91 Z" fill="#000000" fill-rule="nonzero" fill-opacity="1" /><path clip-path="url(#clip760)" d="M122.129 1544.91 L138.448 1544.91 L138.448 1548.85 L116.504 1548.85 L116.504 1544.91 Q119.166 1542.16 123.749 1537.53 Q128.356 1532.88 129.536 1531.53 Q131.782 1529.01 132.661 1527.27 Q133.564 1525.51 133.564 1523.82 Q133.564 1521.07 131.619 1519.33 Q129.698 1517.6 126.596 1517.6 Q124.397 1517.6 121.944 1518.36 Q119.513 1519.13 116.735 1520.68 L116.735 1515.95 Q119.559 1514.82 122.013 1514.24 Q124.467 1513.66 126.504 1513.66 Q131.874 1513.66 135.069 1516.35 Q138.263 1519.03 138.263 1523.52 Q138.263 1525.65 137.453 1527.57 Q136.666 1529.47 134.559 1532.07 Q133.981 1532.74 130.879 1535.95 Q127.777 1539.15 122.129 1544.91 Z" fill="#000000" fill-rule="nonzero" fill-opacity="1" /><path clip-path="url(#clip760)" d="M692.899 1544.91 L700.538 1544.91 L700.538 1518.55 L692.228 1520.21 L692.228 1515.95 L700.492 1514.29 L705.168 1514.29 L705.168 1544.91 L712.807 1544.91 L712.807 1548.85 L692.899 1548.85 L692.899 1544.91 Z" fill="#000000" fill-rule="nonzero" fill-opacity="1" /><path clip-path="url(#clip760)" d="M736.418 1530.21 Q739.774 1530.93 741.649 1533.2 Q743.547 1535.47 743.547 1538.8 Q743.547 1543.92 740.029 1546.72 Q736.51 1549.52 730.029 1549.52 Q727.853 1549.52 725.538 1549.08 Q723.246 1548.66 720.793 1547.81 L720.793 1543.29 Q722.737 1544.43 725.052 1545.01 Q727.367 1545.58 729.89 1545.58 Q734.288 1545.58 736.58 1543.85 Q738.894 1542.11 738.894 1538.8 Q738.894 1535.75 736.742 1534.03 Q734.612 1532.3 730.793 1532.3 L726.765 1532.3 L726.765 1528.45 L730.978 1528.45 Q734.427 1528.45 736.256 1527.09 Q738.084 1525.7 738.084 1523.11 Q738.084 1520.45 736.186 1519.03 Q734.311 1517.6 730.793 1517.6 Q728.871 1517.6 726.672 1518.01 Q724.473 1518.43 721.834 1519.31 L721.834 1515.14 Q724.496 1514.4 726.811 1514.03 Q729.149 1513.66 731.209 1513.66 Q736.533 1513.66 739.635 1516.09 Q742.737 1518.5 742.737 1522.62 Q742.737 1525.49 741.093 1527.48 Q739.45 1529.45 736.418 1530.21 Z" fill="#000000" fill-rule="nonzero" fill-opacity="1" /><path clip-path="url(#clip760)" d="M1296.96 1544.91 L1304.6 1544.91 L1304.6 1518.55 L1296.29 1520.21 L1296.29 1515.95 L1304.55 1514.29 L1309.23 1514.29 L1309.23 1544.91 L1316.86 1544.91 L1316.86 1548.85 L1296.96 1548.85 L1296.96 1544.91 Z" fill="#000000" fill-rule="nonzero" fill-opacity="1" /><path clip-path="url(#clip760)" d="M1339.16 1518.36 L1327.35 1536.81 L1339.16 1536.81 L1339.16 1518.36 M1337.93 1514.29 L1343.81 1514.29 L1343.81 1536.81 L1348.74 1536.81 L1348.74 1540.7 L1343.81 1540.7 L1343.81 1548.85 L1339.16 1548.85 L1339.16 1540.7 L1323.55 1540.7 L1323.55 1536.19 L1337.93 1514.29 Z" fill="#000000" fill-rule="nonzero" fill-opacity="1" /><path clip-path="url(#clip760)" d="M1902.32 1544.91 L1909.96 1544.91 L1909.96 1518.55 L1901.65 1520.21 L1901.65 1515.95 L1909.91 1514.29 L1914.59 1514.29 L1914.59 1544.91 L1922.23 1544.91 L1922.23 1548.85 L1902.32 1548.85 L1902.32 1544.91 Z" fill="#000000" fill-rule="nonzero" fill-opacity="1" /><path clip-path="url(#clip760)" d="M1931.72 1514.29 L1950.08 1514.29 L1950.08 1518.22 L1936 1518.22 L1936 1526.7 Q1937.02 1526.35 1938.04 1526.19 Q1939.06 1526 1940.08 1526 Q1945.86 1526 1949.24 1529.17 Q1952.62 1532.34 1952.62 1537.76 Q1952.62 1543.34 1949.15 1546.44 Q1945.68 1549.52 1939.36 1549.52 Q1937.18 1549.52 1934.91 1549.15 Q1932.67 1548.78 1930.26 1548.04 L1930.26 1543.34 Q1932.34 1544.47 1934.57 1545.03 Q1936.79 1545.58 1939.27 1545.58 Q1943.27 1545.58 1945.61 1543.48 Q1947.95 1541.37 1947.95 1537.76 Q1947.95 1534.15 1945.61 1532.04 Q1943.27 1529.94 1939.27 1529.94 Q1937.39 1529.94 1935.52 1530.35 Q1933.66 1530.77 1931.72 1531.65 L1931.72 1514.29 Z" fill="#000000" fill-rule="nonzero" fill-opacity="1" /><polyline clip-path="url(#clip760)" style="stroke:#000000; stroke-linecap:round; stroke-linejoin:round; stroke-width:4; stroke-opacity:1; fill:none" points="110.881,1486.45 110.881,47.2441 "/>
<polyline clip-path="url(#clip760)" style="stroke:#000000; stroke-linecap:round; stroke-linejoin:round; stroke-width:4; stroke-opacity:1; fill:none" points="110.881,1486.45 129.779,1486.45 "/>
<polyline clip-path="url(#clip760)" style="stroke:#000000; stroke-linecap:round; stroke-linejoin:round; stroke-width:4; stroke-opacity:1; fill:none" points="110.881,1006.71 129.779,1006.71 "/>
<polyline clip-path="url(#clip760)" style="stroke:#000000; stroke-linecap:round; stroke-linejoin:round; stroke-width:4; stroke-opacity:1; fill:none" points="110.881,526.979 129.779,526.979 "/>
<polyline clip-path="url(#clip760)" style="stroke:#000000; stroke-linecap:round; stroke-linejoin:round; stroke-width:4; stroke-opacity:1; fill:none" points="110.881,47.2441 129.779,47.2441 "/>
<path clip-path="url(#clip760)" d="M62.9365 1472.25 Q59.3254 1472.25 57.4967 1475.81 Q55.6912 1479.35 55.6912 1486.48 Q55.6912 1493.59 57.4967 1497.15 Q59.3254 1500.7 62.9365 1500.7 Q66.5707 1500.7 68.3763 1497.15 Q70.205 1493.59 70.205 1486.48 Q70.205 1479.35 68.3763 1475.81 Q66.5707 1472.25 62.9365 1472.25 M62.9365 1468.54 Q68.7467 1468.54 71.8022 1473.15 Q74.8809 1477.73 74.8809 1486.48 Q74.8809 1495.21 71.8022 1499.82 Q68.7467 1504.4 62.9365 1504.4 Q57.1264 1504.4 54.0477 1499.82 Q50.9921 1495.21 50.9921 1486.48 Q50.9921 1477.73 54.0477 1473.15 Q57.1264 1468.54 62.9365 1468.54 Z" fill="#000000" fill-rule="nonzero" fill-opacity="1" /><path clip-path="url(#clip760)" d="M54.9736 1020.06 L62.6124 1020.06 L62.6124 993.693 L54.3023 995.359 L54.3023 991.1 L62.5661 989.433 L67.242 989.433 L67.242 1020.06 L74.8809 1020.06 L74.8809 1023.99 L54.9736 1023.99 L54.9736 1020.06 Z" fill="#000000" fill-rule="nonzero" fill-opacity="1" /><path clip-path="url(#clip760)" d="M58.5615 540.324 L74.8809 540.324 L74.8809 544.259 L52.9366 544.259 L52.9366 540.324 Q55.5986 537.569 60.1819 532.939 Q64.7883 528.287 65.9689 526.944 Q68.2143 524.421 69.0939 522.685 Q69.9967 520.925 69.9967 519.236 Q69.9967 516.481 68.0522 514.745 Q66.1309 513.009 63.0291 513.009 Q60.83 513.009 58.3763 513.773 Q55.9458 514.537 53.168 516.088 L53.168 511.365 Q55.9921 510.231 58.4458 509.652 Q60.8995 509.074 62.9365 509.074 Q68.3068 509.074 71.5013 511.759 Q74.6957 514.444 74.6957 518.935 Q74.6957 521.064 73.8855 522.986 Q73.0985 524.884 70.992 527.476 Q70.4133 528.148 67.3115 531.365 Q64.2096 534.56 58.5615 540.324 Z" fill="#000000" fill-rule="nonzero" fill-opacity="1" /><path clip-path="url(#clip760)" d="M67.7513 45.8899 Q71.1078 46.6075 72.9827 48.876 Q74.8809 51.1445 74.8809 54.4779 Q74.8809 59.5936 71.3624 62.3945 Q67.8439 65.1954 61.3624 65.1954 Q59.1865 65.1954 56.8717 64.7556 Q54.5801 64.3389 52.1264 63.4824 L52.1264 58.9686 Q54.0708 60.1028 56.3856 60.6815 Q58.7004 61.2602 61.2236 61.2602 Q65.6217 61.2602 67.9133 59.5241 Q70.2281 57.788 70.2281 54.4779 Q70.2281 51.4223 68.0754 49.7094 Q65.9457 47.9733 62.1263 47.9733 L58.0986 47.9733 L58.0986 44.1307 L62.3115 44.1307 Q65.7606 44.1307 67.5893 42.765 Q69.418 41.3761 69.418 38.7835 Q69.418 36.1215 67.5198 34.7094 Q65.6448 33.2743 62.1263 33.2743 Q60.205 33.2743 58.006 33.6909 Q55.8069 34.1076 53.168 34.9872 L53.168 30.8206 Q55.8301 30.0798 58.1449 29.7095 Q60.4828 29.3391 62.543 29.3391 Q67.867 29.3391 70.9689 31.7696 Q74.0707 34.177 74.0707 38.2974 Q74.0707 41.1677 72.4272 43.1585 Q70.7837 45.1261 67.7513 45.8899 Z" fill="#000000" fill-rule="nonzero" fill-opacity="1" /><path clip-path="url(#clip762)" d="M234.188 526.979 L234.188 1486.45 L294.65 1486.45 L294.65 526.979 L234.188 526.979 L234.188 526.979  Z" fill="#009af9" fill-rule="evenodd" fill-opacity="1"/>
<polyline clip-path="url(#clip762)" style="stroke:#000000; stroke-linecap:round; stroke-linejoin:round; stroke-width:4; stroke-opacity:1; fill:none" points="234.188,526.979 234.188,1486.45 294.65,1486.45 294.65,526.979 234.188,526.979 "/>
<path clip-path="url(#clip762)" d="M294.65 1486.45 L294.65 1486.45 L355.113 1486.45 L355.113 1486.45 L294.65 1486.45 L294.65 1486.45  Z" fill="#009af9" fill-rule="evenodd" fill-opacity="1"/>
<polyline clip-path="url(#clip762)" style="stroke:#000000; stroke-linecap:round; stroke-linejoin:round; stroke-width:4; stroke-opacity:1; fill:none" points="294.65,1486.45 294.65,1486.45 355.113,1486.45 294.65,1486.45 "/>
<path clip-path="url(#clip762)" d="M355.113 1006.71 L355.113 1486.45 L415.575 1486.45 L415.575 1006.71 L355.113 1006.71 L355.113 1006.71  Z" fill="#009af9" fill-rule="evenodd" fill-opacity="1"/>
<polyline clip-path="url(#clip762)" style="stroke:#000000; stroke-linecap:round; stroke-linejoin:round; stroke-width:4; stroke-opacity:1; fill:none" points="355.113,1006.71 355.113,1486.45 415.575,1486.45 415.575,1006.71 355.113,1006.71 "/>
<path clip-path="url(#clip762)" d="M415.575 47.2441 L415.575 1486.45 L476.038 1486.45 L476.038 47.2441 L415.575 47.2441 L415.575 47.2441  Z" fill="#009af9" fill-rule="evenodd" fill-opacity="1"/>
<polyline clip-path="url(#clip762)" style="stroke:#000000; stroke-linecap:round; stroke-linejoin:round; stroke-width:4; stroke-opacity:1; fill:none" points="415.575,47.2441 415.575,1486.45 476.038,1486.45 476.038,47.2441 415.575,47.2441 "/>
<path clip-path="url(#clip762)" d="M476.038 1006.71 L476.038 1486.45 L536.5 1486.45 L536.5 1006.71 L476.038 1006.71 L476.038 1006.71  Z" fill="#009af9" fill-rule="evenodd" fill-opacity="1"/>
<polyline clip-path="url(#clip762)" style="stroke:#000000; stroke-linecap:round; stroke-linejoin:round; stroke-width:4; stroke-opacity:1; fill:none" points="476.038,1006.71 476.038,1486.45 536.5,1486.45 536.5,1006.71 476.038,1006.71 "/>
<path clip-path="url(#clip762)" d="M536.5 1006.71 L536.5 1486.45 L596.963 1486.45 L596.963 1006.71 L536.5 1006.71 L536.5 1006.71  Z" fill="#009af9" fill-rule="evenodd" fill-opacity="1"/>
<polyline clip-path="url(#clip762)" style="stroke:#000000; stroke-linecap:round; stroke-linejoin:round; stroke-width:4; stroke-opacity:1; fill:none" points="536.5,1006.71 536.5,1486.45 596.963,1486.45 596.963,1006.71 536.5,1006.71 "/>
<path clip-path="url(#clip762)" d="M596.963 1006.71 L596.963 1486.45 L657.425 1486.45 L657.425 1006.71 L596.963 1006.71 L596.963 1006.71  Z" fill="#009af9" fill-rule="evenodd" fill-opacity="1"/>
<polyline clip-path="url(#clip762)" style="stroke:#000000; stroke-linecap:round; stroke-linejoin:round; stroke-width:4; stroke-opacity:1; fill:none" points="596.963,1006.71 596.963,1486.45 657.425,1486.45 657.425,1006.71 596.963,1006.71 "/>
<path clip-path="url(#clip762)" d="M657.425 526.979 L657.425 1486.45 L717.888 1486.45 L717.888 526.979 L657.425 526.979 L657.425 526.979  Z" fill="#009af9" fill-rule="evenodd" fill-opacity="1"/>
<polyline clip-path="url(#clip762)" style="stroke:#000000; stroke-linecap:round; stroke-linejoin:round; stroke-width:4; stroke-opacity:1; fill:none" points="657.425,526.979 657.425,1486.45 717.888,1486.45 717.888,526.979 657.425,526.979 "/>
<path clip-path="url(#clip762)" d="M717.888 1006.71 L717.888 1486.45 L778.35 1486.45 L778.35 1006.71 L717.888 1006.71 L717.888 1006.71  Z" fill="#009af9" fill-rule="evenodd" fill-opacity="1"/>
<polyline clip-path="url(#clip762)" style="stroke:#000000; stroke-linecap:round; stroke-linejoin:round; stroke-width:4; stroke-opacity:1; fill:none" points="717.888,1006.71 717.888,1486.45 778.35,1486.45 778.35,1006.71 717.888,1006.71 "/>
<path clip-path="url(#clip762)" d="M778.35 1006.71 L778.35 1486.45 L838.812 1486.45 L838.812 1006.71 L778.35 1006.71 L778.35 1006.71  Z" fill="#009af9" fill-rule="evenodd" fill-opacity="1"/>
<polyline clip-path="url(#clip762)" style="stroke:#000000; stroke-linecap:round; stroke-linejoin:round; stroke-width:4; stroke-opacity:1; fill:none" points="778.35,1006.71 778.35,1486.45 838.812,1486.45 838.812,1006.71 778.35,1006.71 "/>
<path clip-path="url(#clip762)" d="M838.812 1486.45 L838.812 1486.45 L899.275 1486.45 L899.275 1486.45 L838.812 1486.45 L838.812 1486.45  Z" fill="#009af9" fill-rule="evenodd" fill-opacity="1"/>
<polyline clip-path="url(#clip762)" style="stroke:#000000; stroke-linecap:round; stroke-linejoin:round; stroke-width:4; stroke-opacity:1; fill:none" points="838.812,1486.45 838.812,1486.45 899.275,1486.45 838.812,1486.45 "/>
<path clip-path="url(#clip762)" d="M899.275 1486.45 L899.275 1486.45 L959.737 1486.45 L959.737 1486.45 L899.275 1486.45 L899.275 1486.45  Z" fill="#009af9" fill-rule="evenodd" fill-opacity="1"/>
<polyline clip-path="url(#clip762)" style="stroke:#000000; stroke-linecap:round; stroke-linejoin:round; stroke-width:4; stroke-opacity:1; fill:none" points="899.275,1486.45 899.275,1486.45 959.737,1486.45 899.275,1486.45 "/>
<path clip-path="url(#clip762)" d="M959.737 1006.71 L959.737 1486.45 L1020.2 1486.45 L1020.2 1006.71 L959.737 1006.71 L959.737 1006.71  Z" fill="#009af9" fill-rule="evenodd" fill-opacity="1"/>
<polyline clip-path="url(#clip762)" style="stroke:#000000; stroke-linecap:round; stroke-linejoin:round; stroke-width:4; stroke-opacity:1; fill:none" points="959.737,1006.71 959.737,1486.45 1020.2,1486.45 1020.2,1006.71 959.737,1006.71 "/>
<path clip-path="url(#clip762)" d="M1020.2 526.979 L1020.2 1486.45 L1080.66 1486.45 L1080.66 526.979 L1020.2 526.979 L1020.2 526.979  Z" fill="#009af9" fill-rule="evenodd" fill-opacity="1"/>
<polyline clip-path="url(#clip762)" style="stroke:#000000; stroke-linecap:round; stroke-linejoin:round; stroke-width:4; stroke-opacity:1; fill:none" points="1020.2,526.979 1020.2,1486.45 1080.66,1486.45 1080.66,526.979 1020.2,526.979 "/>
<path clip-path="url(#clip762)" d="M1080.66 1486.45 L1080.66 1486.45 L1141.12 1486.45 L1141.12 1486.45 L1080.66 1486.45 L1080.66 1486.45  Z" fill="#009af9" fill-rule="evenodd" fill-opacity="1"/>
<polyline clip-path="url(#clip762)" style="stroke:#000000; stroke-linecap:round; stroke-linejoin:round; stroke-width:4; stroke-opacity:1; fill:none" points="1080.66,1486.45 1080.66,1486.45 1141.12,1486.45 1080.66,1486.45 "/>
<path clip-path="url(#clip762)" d="M1141.12 1486.45 L1141.12 1486.45 L1201.59 1486.45 L1201.59 1486.45 L1141.12 1486.45 L1141.12 1486.45  Z" fill="#009af9" fill-rule="evenodd" fill-opacity="1"/>
<polyline clip-path="url(#clip762)" style="stroke:#000000; stroke-linecap:round; stroke-linejoin:round; stroke-width:4; stroke-opacity:1; fill:none" points="1141.12,1486.45 1141.12,1486.45 1201.59,1486.45 1141.12,1486.45 "/>
<path clip-path="url(#clip762)" d="M1201.59 1486.45 L1201.59 1486.45 L1262.05 1486.45 L1262.05 1486.45 L1201.59 1486.45 L1201.59 1486.45  Z" fill="#009af9" fill-rule="evenodd" fill-opacity="1"/>
<polyline clip-path="url(#clip762)" style="stroke:#000000; stroke-linecap:round; stroke-linejoin:round; stroke-width:4; stroke-opacity:1; fill:none" points="1201.59,1486.45 1201.59,1486.45 1262.05,1486.45 1201.59,1486.45 "/>
<path clip-path="url(#clip762)" d="M1262.05 1486.45 L1262.05 1486.45 L1322.51 1486.45 L1322.51 1486.45 L1262.05 1486.45 L1262.05 1486.45  Z" fill="#009af9" fill-rule="evenodd" fill-opacity="1"/>
<polyline clip-path="url(#clip762)" style="stroke:#000000; stroke-linecap:round; stroke-linejoin:round; stroke-width:4; stroke-opacity:1; fill:none" points="1262.05,1486.45 1262.05,1486.45 1322.51,1486.45 1262.05,1486.45 "/>
<path clip-path="url(#clip762)" d="M1322.51 1486.45 L1322.51 1486.45 L1382.97 1486.45 L1382.97 1486.45 L1322.51 1486.45 L1322.51 1486.45  Z" fill="#009af9" fill-rule="evenodd" fill-opacity="1"/>
<polyline clip-path="url(#clip762)" style="stroke:#000000; stroke-linecap:round; stroke-linejoin:round; stroke-width:4; stroke-opacity:1; fill:none" points="1322.51,1486.45 1322.51,1486.45 1382.97,1486.45 1322.51,1486.45 "/>
<path clip-path="url(#clip762)" d="M1382.97 1006.71 L1382.97 1486.45 L1443.44 1486.45 L1443.44 1006.71 L1382.97 1006.71 L1382.97 1006.71  Z" fill="#009af9" fill-rule="evenodd" fill-opacity="1"/>
<polyline clip-path="url(#clip762)" style="stroke:#000000; stroke-linecap:round; stroke-linejoin:round; stroke-width:4; stroke-opacity:1; fill:none" points="1382.97,1006.71 1382.97,1486.45 1443.44,1486.45 1443.44,1006.71 1382.97,1006.71 "/>
<path clip-path="url(#clip762)" d="M1443.44 1006.71 L1443.44 1486.45 L1503.9 1486.45 L1503.9 1006.71 L1443.44 1006.71 L1443.44 1006.71  Z" fill="#009af9" fill-rule="evenodd" fill-opacity="1"/>
<polyline clip-path="url(#clip762)" style="stroke:#000000; stroke-linecap:round; stroke-linejoin:round; stroke-width:4; stroke-opacity:1; fill:none" points="1443.44,1006.71 1443.44,1486.45 1503.9,1486.45 1503.9,1006.71 1443.44,1006.71 "/>
<path clip-path="url(#clip762)" d="M1503.9 1486.45 L1503.9 1486.45 L1564.36 1486.45 L1564.36 1486.45 L1503.9 1486.45 L1503.9 1486.45  Z" fill="#009af9" fill-rule="evenodd" fill-opacity="1"/>
<polyline clip-path="url(#clip762)" style="stroke:#000000; stroke-linecap:round; stroke-linejoin:round; stroke-width:4; stroke-opacity:1; fill:none" points="1503.9,1486.45 1503.9,1486.45 1564.36,1486.45 1503.9,1486.45 "/>
<path clip-path="url(#clip762)" d="M1564.36 1006.71 L1564.36 1486.45 L1624.82 1486.45 L1624.82 1006.71 L1564.36 1006.71 L1564.36 1006.71  Z" fill="#009af9" fill-rule="evenodd" fill-opacity="1"/>
<polyline clip-path="url(#clip762)" style="stroke:#000000; stroke-linecap:round; stroke-linejoin:round; stroke-width:4; stroke-opacity:1; fill:none" points="1564.36,1006.71 1564.36,1486.45 1624.82,1486.45 1624.82,1006.71 1564.36,1006.71 "/>
<path clip-path="url(#clip762)" d="M1624.82 1006.71 L1624.82 1486.45 L1685.29 1486.45 L1685.29 1006.71 L1624.82 1006.71 L1624.82 1006.71  Z" fill="#009af9" fill-rule="evenodd" fill-opacity="1"/>
<polyline clip-path="url(#clip762)" style="stroke:#000000; stroke-linecap:round; stroke-linejoin:round; stroke-width:4; stroke-opacity:1; fill:none" points="1624.82,1006.71 1624.82,1486.45 1685.29,1486.45 1685.29,1006.71 1624.82,1006.71 "/>
<path clip-path="url(#clip762)" d="M1685.29 1486.45 L1685.29 1486.45 L1745.75 1486.45 L1745.75 1486.45 L1685.29 1486.45 L1685.29 1486.45  Z" fill="#009af9" fill-rule="evenodd" fill-opacity="1"/>
<polyline clip-path="url(#clip762)" style="stroke:#000000; stroke-linecap:round; stroke-linejoin:round; stroke-width:4; stroke-opacity:1; fill:none" points="1685.29,1486.45 1685.29,1486.45 1745.75,1486.45 1685.29,1486.45 "/>
<path clip-path="url(#clip762)" d="M1745.75 1006.71 L1745.75 1486.45 L1806.21 1486.45 L1806.21 1006.71 L1745.75 1006.71 L1745.75 1006.71  Z" fill="#009af9" fill-rule="evenodd" fill-opacity="1"/>
<polyline clip-path="url(#clip762)" style="stroke:#000000; stroke-linecap:round; stroke-linejoin:round; stroke-width:4; stroke-opacity:1; fill:none" points="1745.75,1006.71 1745.75,1486.45 1806.21,1486.45 1806.21,1006.71 1745.75,1006.71 "/>
<path clip-path="url(#clip762)" d="M1806.21 526.979 L1806.21 1486.45 L1866.67 1486.45 L1866.67 526.979 L1806.21 526.979 L1806.21 526.979  Z" fill="#009af9" fill-rule="evenodd" fill-opacity="1"/>
<polyline clip-path="url(#clip762)" style="stroke:#000000; stroke-linecap:round; stroke-linejoin:round; stroke-width:4; stroke-opacity:1; fill:none" points="1806.21,526.979 1806.21,1486.45 1866.67,1486.45 1866.67,526.979 1806.21,526.979 "/>
<path clip-path="url(#clip762)" d="M1866.67 1486.45 L1866.67 1486.45 L1927.14 1486.45 L1927.14 1486.45 L1866.67 1486.45 L1866.67 1486.45  Z" fill="#009af9" fill-rule="evenodd" fill-opacity="1"/>
<polyline clip-path="url(#clip762)" style="stroke:#000000; stroke-linecap:round; stroke-linejoin:round; stroke-width:4; stroke-opacity:1; fill:none" points="1866.67,1486.45 1866.67,1486.45 1927.14,1486.45 1866.67,1486.45 "/>
<path clip-path="url(#clip762)" d="M1927.14 526.979 L1927.14 1486.45 L1987.6 1486.45 L1987.6 526.979 L1927.14 526.979 L1927.14 526.979  Z" fill="#009af9" fill-rule="evenodd" fill-opacity="1"/>
<polyline clip-path="url(#clip762)" style="stroke:#000000; stroke-linecap:round; stroke-linejoin:round; stroke-width:4; stroke-opacity:1; fill:none" points="1927.14,526.979 1927.14,1486.45 1987.6,1486.45 1987.6,526.979 1927.14,526.979 "/>
<path clip-path="url(#clip762)" d="M1987.6 1486.45 L1987.6 1486.45 L2048.06 1486.45 L2048.06 1486.45 L1987.6 1486.45 L1987.6 1486.45  Z" fill="#009af9" fill-rule="evenodd" fill-opacity="1"/>
<polyline clip-path="url(#clip762)" style="stroke:#000000; stroke-linecap:round; stroke-linejoin:round; stroke-width:4; stroke-opacity:1; fill:none" points="1987.6,1486.45 1987.6,1486.45 2048.06,1486.45 1987.6,1486.45 "/>
<path clip-path="url(#clip762)" d="M2048.06 1006.71 L2048.06 1486.45 L2108.52 1486.45 L2108.52 1006.71 L2048.06 1006.71 L2048.06 1006.71  Z" fill="#009af9" fill-rule="evenodd" fill-opacity="1"/>
<polyline clip-path="url(#clip762)" style="stroke:#000000; stroke-linecap:round; stroke-linejoin:round; stroke-width:4; stroke-opacity:1; fill:none" points="2048.06,1006.71 2048.06,1486.45 2108.52,1486.45 2108.52,1006.71 2048.06,1006.71 "/>
<path clip-path="url(#clip762)" d="M2108.52 1486.45 L2108.52 1486.45 L2168.99 1486.45 L2168.99 1486.45 L2108.52 1486.45 L2108.52 1486.45  Z" fill="#009af9" fill-rule="evenodd" fill-opacity="1"/>
<polyline clip-path="url(#clip762)" style="stroke:#000000; stroke-linecap:round; stroke-linejoin:round; stroke-width:4; stroke-opacity:1; fill:none" points="2108.52,1486.45 2108.52,1486.45 2168.99,1486.45 2108.52,1486.45 "/>
<path clip-path="url(#clip762)" d="M2168.99 526.979 L2168.99 1486.45 L2229.45 1486.45 L2229.45 526.979 L2168.99 526.979 L2168.99 526.979  Z" fill="#009af9" fill-rule="evenodd" fill-opacity="1"/>
<polyline clip-path="url(#clip762)" style="stroke:#000000; stroke-linecap:round; stroke-linejoin:round; stroke-width:4; stroke-opacity:1; fill:none" points="2168.99,526.979 2168.99,1486.45 2229.45,1486.45 2229.45,526.979 2168.99,526.979 "/>
<circle clip-path="url(#clip762)" style="fill:#009af9; stroke:none; fill-opacity:0" cx="264.419" cy="526.979" r="2"/>
<circle clip-path="url(#clip762)" style="fill:#009af9; stroke:none; fill-opacity:0" cx="324.882" cy="1486.45" r="2"/>
<circle clip-path="url(#clip762)" style="fill:#009af9; stroke:none; fill-opacity:0" cx="385.344" cy="1006.71" r="2"/>
<circle clip-path="url(#clip762)" style="fill:#009af9; stroke:none; fill-opacity:0" cx="445.807" cy="47.2441" r="2"/>
<circle clip-path="url(#clip762)" style="fill:#009af9; stroke:none; fill-opacity:0" cx="506.269" cy="1006.71" r="2"/>
<circle clip-path="url(#clip762)" style="fill:#009af9; stroke:none; fill-opacity:0" cx="566.731" cy="1006.71" r="2"/>
<circle clip-path="url(#clip762)" style="fill:#009af9; stroke:none; fill-opacity:0" cx="627.194" cy="1006.71" r="2"/>
<circle clip-path="url(#clip762)" style="fill:#009af9; stroke:none; fill-opacity:0" cx="687.656" cy="526.979" r="2"/>
<circle clip-path="url(#clip762)" style="fill:#009af9; stroke:none; fill-opacity:0" cx="748.119" cy="1006.71" r="2"/>
<circle clip-path="url(#clip762)" style="fill:#009af9; stroke:none; fill-opacity:0" cx="808.581" cy="1006.71" r="2"/>
<circle clip-path="url(#clip762)" style="fill:#009af9; stroke:none; fill-opacity:0" cx="869.044" cy="1486.45" r="2"/>
<circle clip-path="url(#clip762)" style="fill:#009af9; stroke:none; fill-opacity:0" cx="929.506" cy="1486.45" r="2"/>
<circle clip-path="url(#clip762)" style="fill:#009af9; stroke:none; fill-opacity:0" cx="989.969" cy="1006.71" r="2"/>
<circle clip-path="url(#clip762)" style="fill:#009af9; stroke:none; fill-opacity:0" cx="1050.43" cy="526.979" r="2"/>
<circle clip-path="url(#clip762)" style="fill:#009af9; stroke:none; fill-opacity:0" cx="1110.89" cy="1486.45" r="2"/>
<circle clip-path="url(#clip762)" style="fill:#009af9; stroke:none; fill-opacity:0" cx="1171.36" cy="1486.45" r="2"/>
<circle clip-path="url(#clip762)" style="fill:#009af9; stroke:none; fill-opacity:0" cx="1231.82" cy="1486.45" r="2"/>
<circle clip-path="url(#clip762)" style="fill:#009af9; stroke:none; fill-opacity:0" cx="1292.28" cy="1486.45" r="2"/>
<circle clip-path="url(#clip762)" style="fill:#009af9; stroke:none; fill-opacity:0" cx="1352.74" cy="1486.45" r="2"/>
<circle clip-path="url(#clip762)" style="fill:#009af9; stroke:none; fill-opacity:0" cx="1413.21" cy="1006.71" r="2"/>
<circle clip-path="url(#clip762)" style="fill:#009af9; stroke:none; fill-opacity:0" cx="1473.67" cy="1006.71" r="2"/>
<circle clip-path="url(#clip762)" style="fill:#009af9; stroke:none; fill-opacity:0" cx="1534.13" cy="1486.45" r="2"/>
<circle clip-path="url(#clip762)" style="fill:#009af9; stroke:none; fill-opacity:0" cx="1594.59" cy="1006.71" r="2"/>
<circle clip-path="url(#clip762)" style="fill:#009af9; stroke:none; fill-opacity:0" cx="1655.06" cy="1006.71" r="2"/>
<circle clip-path="url(#clip762)" style="fill:#009af9; stroke:none; fill-opacity:0" cx="1715.52" cy="1486.45" r="2"/>
<circle clip-path="url(#clip762)" style="fill:#009af9; stroke:none; fill-opacity:0" cx="1775.98" cy="1006.71" r="2"/>
<circle clip-path="url(#clip762)" style="fill:#009af9; stroke:none; fill-opacity:0" cx="1836.44" cy="526.979" r="2"/>
<circle clip-path="url(#clip762)" style="fill:#009af9; stroke:none; fill-opacity:0" cx="1896.91" cy="1486.45" r="2"/>
<circle clip-path="url(#clip762)" style="fill:#009af9; stroke:none; fill-opacity:0" cx="1957.37" cy="526.979" r="2"/>
<circle clip-path="url(#clip762)" style="fill:#009af9; stroke:none; fill-opacity:0" cx="2017.83" cy="1486.45" r="2"/>
<circle clip-path="url(#clip762)" style="fill:#009af9; stroke:none; fill-opacity:0" cx="2078.29" cy="1006.71" r="2"/>
<circle clip-path="url(#clip762)" style="fill:#009af9; stroke:none; fill-opacity:0" cx="2138.76" cy="1486.45" r="2"/>
<circle clip-path="url(#clip762)" style="fill:#009af9; stroke:none; fill-opacity:0" cx="2199.22" cy="526.979" r="2"/>
<path clip-path="url(#clip760)" d="M2001.41 198.898 L2278.03 198.898 L2278.03 95.2176 L2001.41 95.2176  Z" fill="#ffffff" fill-rule="evenodd" fill-opacity="1"/>
<polyline clip-path="url(#clip760)" style="stroke:#000000; stroke-linecap:round; stroke-linejoin:round; stroke-width:4; stroke-opacity:1; fill:none" points="2001.41,198.898 2278.03,198.898 2278.03,95.2176 2001.41,95.2176 2001.41,198.898 "/>
<path clip-path="url(#clip760)" d="M2026.32 167.794 L2175.78 167.794 L2175.78 126.322 L2026.32 126.322 L2026.32 167.794  Z" fill="#009af9" fill-rule="evenodd" fill-opacity="1"/>
<polyline clip-path="url(#clip760)" style="stroke:#000000; stroke-linecap:round; stroke-linejoin:round; stroke-width:4; stroke-opacity:1; fill:none" points="2026.32,167.794 2175.78,167.794 2175.78,126.322 2026.32,126.322 2026.32,167.794 "/>
<path clip-path="url(#clip760)" d="M2214.53 166.745 Q2212.72 171.375 2211.01 172.787 Q2209.3 174.199 2206.43 174.199 L2203.02 174.199 L2203.02 170.634 L2205.52 170.634 Q2207.28 170.634 2208.26 169.8 Q2209.23 168.967 2210.41 165.865 L2211.17 163.921 L2200.69 138.412 L2205.2 138.412 L2213.3 158.689 L2221.4 138.412 L2225.92 138.412 L2214.53 166.745 Z" fill="#000000" fill-rule="nonzero" fill-opacity="1" /><path clip-path="url(#clip760)" d="M2233.21 160.402 L2240.85 160.402 L2240.85 134.037 L2232.54 135.703 L2232.54 131.444 L2240.8 129.778 L2245.48 129.778 L2245.48 160.402 L2253.12 160.402 L2253.12 164.338 L2233.21 164.338 L2233.21 160.402 Z" fill="#000000" fill-rule="nonzero" fill-opacity="1" /></svg>
