<?xml version="1.0" encoding="utf-8"?>
<svg xmlns="http://www.w3.org/2000/svg" xmlns:xlink="http://www.w3.org/1999/xlink" width="600" height="400" viewBox="0 0 2400 1600">
<defs>
  <clipPath id="clip050">
    <rect x="0" y="0" width="2400" height="1600"/>
  </clipPath>
</defs>
<path clip-path="url(#clip050)" d="M0 1600 L2400 1600 L2400 0 L0 0  Z" fill="#ffffff" fill-rule="evenodd" fill-opacity="1"/>
<defs>
  <clipPath id="clip051">
    <rect x="480" y="0" width="1681" height="1600"/>
  </clipPath>
</defs>
<path clip-path="url(#clip050)" d="M174.149 1423.18 L2352.76 1423.18 L2352.76 123.472 L174.149 123.472  Z" fill="#ffffff" fill-rule="evenodd" fill-opacity="1"/>
<defs>
  <clipPath id="clip052">
    <rect x="174" y="123" width="2180" height="1301"/>
  </clipPath>
</defs>
<polyline clip-path="url(#clip052)" style="stroke:#000000; stroke-linecap:round; stroke-linejoin:round; stroke-width:2; stroke-opacity:0.1; fill:none" points="176.464,1423.18 176.464,123.472 "/>
<polyline clip-path="url(#clip052)" style="stroke:#000000; stroke-linecap:round; stroke-linejoin:round; stroke-width:2; stroke-opacity:0.1; fill:none" points="764.025,1423.18 764.025,123.472 "/>
<polyline clip-path="url(#clip052)" style="stroke:#000000; stroke-linecap:round; stroke-linejoin:round; stroke-width:2; stroke-opacity:0.1; fill:none" points="1351.59,1423.18 1351.59,123.472 "/>
<polyline clip-path="url(#clip052)" style="stroke:#000000; stroke-linecap:round; stroke-linejoin:round; stroke-width:2; stroke-opacity:0.1; fill:none" points="1939.15,1423.18 1939.15,123.472 "/>
<polyline clip-path="url(#clip052)" style="stroke:#000000; stroke-linecap:round; stroke-linejoin:round; stroke-width:2; stroke-opacity:0.1; fill:none" points="174.149,1423.18 2352.76,1423.18 "/>
<polyline clip-path="url(#clip052)" style="stroke:#000000; stroke-linecap:round; stroke-linejoin:round; stroke-width:2; stroke-opacity:0.1; fill:none" points="174.149,989.944 2352.76,989.944 "/>
<polyline clip-path="url(#clip052)" style="stroke:#000000; stroke-linecap:round; stroke-linejoin:round; stroke-width:2; stroke-opacity:0.1; fill:none" points="174.149,556.708 2352.76,556.708 "/>
<polyline clip-path="url(#clip052)" style="stroke:#000000; stroke-linecap:round; stroke-linejoin:round; stroke-width:2; stroke-opacity:0.1; fill:none" points="174.149,123.472 2352.76,123.472 "/>
<polyline clip-path="url(#clip050)" style="stroke:#000000; stroke-linecap:round; stroke-linejoin:round; stroke-width:4; stroke-opacity:1; fill:none" points="174.149,1423.18 2352.76,1423.18 "/>
<polyline clip-path="url(#clip050)" style="stroke:#000000; stroke-linecap:round; stroke-linejoin:round; stroke-width:4; stroke-opacity:1; fill:none" points="176.464,1423.18 176.464,1404.28 "/>
<polyline clip-path="url(#clip050)" style="stroke:#000000; stroke-linecap:round; stroke-linejoin:round; stroke-width:4; stroke-opacity:1; fill:none" points="764.025,1423.18 764.025,1404.28 "/>
<polyline clip-path="url(#clip050)" style="stroke:#000000; stroke-linecap:round; stroke-linejoin:round; stroke-width:4; stroke-opacity:1; fill:none" points="1351.59,1423.18 1351.59,1404.28 "/>
<polyline clip-path="url(#clip050)" style="stroke:#000000; stroke-linecap:round; stroke-linejoin:round; stroke-width:4; stroke-opacity:1; fill:none" points="1939.15,1423.18 1939.15,1404.28 "/>
<path clip-path="url(#clip050)" d="M151.95 1481.64 L159.589 1481.64 L159.589 1455.28 L151.279 1456.95 L151.279 1452.69 L159.543 1451.02 L164.219 1451.02 L164.219 1481.64 L171.857 1481.64 L171.857 1485.58 L151.95 1485.58 L151.95 1481.64 Z" fill="#000000" fill-rule="nonzero" fill-opacity="1" /><path clip-path="url(#clip050)" d="M185.33 1481.64 L201.649 1481.64 L201.649 1485.58 L179.705 1485.58 L179.705 1481.64 Q182.367 1478.89 186.95 1474.26 Q191.556 1469.61 192.737 1468.27 Q194.982 1465.74 195.862 1464.01 Q196.765 1462.25 196.765 1460.56 Q196.765 1457.8 194.82 1456.07 Q192.899 1454.33 189.797 1454.33 Q187.598 1454.33 185.144 1455.09 Q182.714 1455.86 179.936 1457.41 L179.936 1452.69 Q182.76 1451.55 185.214 1450.97 Q187.668 1450.39 189.705 1450.39 Q195.075 1450.39 198.269 1453.08 Q201.464 1455.77 201.464 1460.26 Q201.464 1462.39 200.654 1464.31 Q199.867 1466.2 197.76 1468.8 Q197.181 1469.47 194.08 1472.69 Q190.978 1475.88 185.33 1481.64 Z" fill="#000000" fill-rule="nonzero" fill-opacity="1" /><path clip-path="url(#clip050)" d="M739.037 1481.64 L746.676 1481.64 L746.676 1455.28 L738.366 1456.95 L738.366 1452.69 L746.63 1451.02 L751.305 1451.02 L751.305 1481.64 L758.944 1481.64 L758.944 1485.58 L739.037 1485.58 L739.037 1481.64 Z" fill="#000000" fill-rule="nonzero" fill-opacity="1" /><path clip-path="url(#clip050)" d="M782.555 1466.95 Q785.912 1467.66 787.787 1469.93 Q789.685 1472.2 789.685 1475.53 Q789.685 1480.65 786.166 1483.45 Q782.648 1486.25 776.166 1486.25 Q773.99 1486.25 771.676 1485.81 Q769.384 1485.39 766.93 1484.54 L766.93 1480.02 Q768.875 1481.16 771.19 1481.74 Q773.504 1482.32 776.028 1482.32 Q780.426 1482.32 782.717 1480.58 Q785.032 1478.84 785.032 1475.53 Q785.032 1472.48 782.879 1470.77 Q780.75 1469.03 776.93 1469.03 L772.903 1469.03 L772.903 1465.19 L777.115 1465.19 Q780.565 1465.19 782.393 1463.82 Q784.222 1462.43 784.222 1459.84 Q784.222 1457.18 782.324 1455.77 Q780.449 1454.33 776.93 1454.33 Q775.009 1454.33 772.81 1454.75 Q770.611 1455.16 767.972 1456.04 L767.972 1451.88 Q770.634 1451.14 772.949 1450.77 Q775.287 1450.39 777.347 1450.39 Q782.671 1450.39 785.773 1452.83 Q788.875 1455.23 788.875 1459.35 Q788.875 1462.22 787.231 1464.21 Q785.588 1466.18 782.555 1466.95 Z" fill="#000000" fill-rule="nonzero" fill-opacity="1" /><path clip-path="url(#clip050)" d="M1326.03 1481.64 L1333.67 1481.64 L1333.67 1455.28 L1325.36 1456.95 L1325.36 1452.69 L1333.62 1451.02 L1338.3 1451.02 L1338.3 1481.64 L1345.94 1481.64 L1345.94 1485.58 L1326.03 1485.58 L1326.03 1481.64 Z" fill="#000000" fill-rule="nonzero" fill-opacity="1" /><path clip-path="url(#clip050)" d="M1368.23 1455.09 L1356.42 1473.54 L1368.23 1473.54 L1368.23 1455.09 M1367 1451.02 L1372.88 1451.02 L1372.88 1473.54 L1377.81 1473.54 L1377.81 1477.43 L1372.88 1477.43 L1372.88 1485.58 L1368.23 1485.58 L1368.23 1477.43 L1352.63 1477.43 L1352.63 1472.92 L1367 1451.02 Z" fill="#000000" fill-rule="nonzero" fill-opacity="1" /><path clip-path="url(#clip050)" d="M1914.33 1481.64 L1921.97 1481.64 L1921.97 1455.28 L1913.66 1456.95 L1913.66 1452.69 L1921.93 1451.02 L1926.6 1451.02 L1926.6 1481.64 L1934.24 1481.64 L1934.24 1485.58 L1914.33 1485.58 L1914.33 1481.64 Z" fill="#000000" fill-rule="nonzero" fill-opacity="1" /><path clip-path="url(#clip050)" d="M1943.73 1451.02 L1962.09 1451.02 L1962.09 1454.96 L1948.01 1454.96 L1948.01 1463.43 Q1949.03 1463.08 1950.05 1462.92 Q1951.07 1462.73 1952.09 1462.73 Q1957.87 1462.73 1961.25 1465.9 Q1964.63 1469.08 1964.63 1474.49 Q1964.63 1480.07 1961.16 1483.17 Q1957.69 1486.25 1951.37 1486.25 Q1949.19 1486.25 1946.93 1485.88 Q1944.68 1485.51 1942.27 1484.77 L1942.27 1480.07 Q1944.36 1481.2 1946.58 1481.76 Q1948.8 1482.32 1951.28 1482.32 Q1955.28 1482.32 1957.62 1480.21 Q1959.96 1478.1 1959.96 1474.49 Q1959.96 1470.88 1957.62 1468.77 Q1955.28 1466.67 1951.28 1466.67 Q1949.4 1466.67 1947.53 1467.08 Q1945.68 1467.5 1943.73 1468.38 L1943.73 1451.02 Z" fill="#000000" fill-rule="nonzero" fill-opacity="1" /><path clip-path="url(#clip050)" d="M882.29 1520.52 L922.489 1520.52 L922.489 1525.93 L905.62 1525.93 L905.62 1568.04 L899.159 1568.04 L899.159 1525.93 L882.29 1525.93 L882.29 1520.52 Z" fill="#000000" fill-rule="nonzero" fill-opacity="1" /><path clip-path="url(#clip050)" d="M926.436 1532.4 L932.292 1532.4 L932.292 1568.04 L926.436 1568.04 L926.436 1532.4 M926.436 1518.52 L932.292 1518.52 L932.292 1525.93 L926.436 1525.93 L926.436 1518.52 Z" fill="#000000" fill-rule="nonzero" fill-opacity="1" /><path clip-path="url(#clip050)" d="M972.301 1539.24 Q974.497 1535.29 977.553 1533.41 Q980.608 1531.54 984.746 1531.54 Q990.316 1531.54 993.34 1535.45 Q996.363 1539.33 996.363 1546.53 L996.363 1568.04 L990.475 1568.04 L990.475 1546.72 Q990.475 1541.59 988.661 1539.11 Q986.847 1536.63 983.123 1536.63 Q978.571 1536.63 975.929 1539.65 Q973.288 1542.68 973.288 1547.9 L973.288 1568.04 L967.399 1568.04 L967.399 1546.72 Q967.399 1541.56 965.585 1539.11 Q963.771 1536.63 959.983 1536.63 Q955.495 1536.63 952.854 1539.68 Q950.212 1542.71 950.212 1547.9 L950.212 1568.04 L944.324 1568.04 L944.324 1532.4 L950.212 1532.4 L950.212 1537.93 Q952.217 1534.66 955.018 1533.1 Q957.819 1531.54 961.67 1531.54 Q965.553 1531.54 968.259 1533.51 Q970.996 1535.48 972.301 1539.24 Z" fill="#000000" fill-rule="nonzero" fill-opacity="1" /><path clip-path="url(#clip050)" d="M1038.54 1548.76 L1038.54 1551.62 L1011.61 1551.62 Q1011.99 1557.67 1015.24 1560.85 Q1018.52 1564 1024.34 1564 Q1027.71 1564 1030.87 1563.17 Q1034.05 1562.35 1037.17 1560.69 L1037.17 1566.23 Q1034.02 1567.57 1030.71 1568.27 Q1027.4 1568.97 1023.99 1568.97 Q1015.46 1568.97 1010.46 1564 Q1005.5 1559.04 1005.5 1550.57 Q1005.5 1541.82 1010.21 1536.69 Q1014.95 1531.54 1022.97 1531.54 Q1030.17 1531.54 1034.33 1536.18 Q1038.54 1540.8 1038.54 1548.76 M1032.68 1547.04 Q1032.62 1542.23 1029.97 1539.37 Q1027.36 1536.5 1023.04 1536.5 Q1018.13 1536.5 1015.17 1539.27 Q1012.25 1542.04 1011.8 1547.07 L1032.68 1547.04 Z" fill="#000000" fill-rule="nonzero" fill-opacity="1" /><path clip-path="url(#clip050)" d="M1094.46 1550.25 Q1094.46 1543.79 1091.79 1540.13 Q1089.14 1536.44 1084.5 1536.44 Q1079.85 1536.44 1077.18 1540.13 Q1074.53 1543.79 1074.53 1550.25 Q1074.53 1556.71 1077.18 1560.4 Q1079.85 1564.07 1084.5 1564.07 Q1089.14 1564.07 1091.79 1560.4 Q1094.46 1556.71 1094.46 1550.25 M1074.53 1537.81 Q1076.38 1534.62 1079.18 1533.1 Q1082.01 1531.54 1085.93 1531.54 Q1092.42 1531.54 1096.46 1536.69 Q1100.54 1541.85 1100.54 1550.25 Q1100.54 1558.65 1096.46 1563.81 Q1092.42 1568.97 1085.93 1568.97 Q1082.01 1568.97 1079.18 1567.44 Q1076.38 1565.88 1074.53 1562.7 L1074.53 1568.04 L1068.65 1568.04 L1068.65 1518.52 L1074.53 1518.52 L1074.53 1537.81 Z" fill="#000000" fill-rule="nonzero" fill-opacity="1" /><path clip-path="url(#clip050)" d="M1140.74 1548.76 L1140.74 1551.62 L1113.81 1551.62 Q1114.19 1557.67 1117.44 1560.85 Q1120.72 1564 1126.54 1564 Q1129.92 1564 1133.07 1563.17 Q1136.25 1562.35 1139.37 1560.69 L1139.37 1566.23 Q1136.22 1567.57 1132.91 1568.27 Q1129.6 1568.97 1126.19 1568.97 Q1117.66 1568.97 1112.66 1564 Q1107.7 1559.04 1107.7 1550.57 Q1107.7 1541.82 1112.41 1536.69 Q1117.15 1531.54 1125.17 1531.54 Q1132.37 1531.54 1136.54 1536.18 Q1140.74 1540.8 1140.74 1548.76 M1134.88 1547.04 Q1134.82 1542.23 1132.18 1539.37 Q1129.57 1536.5 1125.24 1536.5 Q1120.34 1536.5 1117.38 1539.27 Q1114.45 1542.04 1114 1547.07 L1134.88 1547.04 Z" fill="#000000" fill-rule="nonzero" fill-opacity="1" /><path clip-path="url(#clip050)" d="M1156.14 1522.27 L1156.14 1532.4 L1168.21 1532.4 L1168.21 1536.95 L1156.14 1536.95 L1156.14 1556.3 Q1156.14 1560.66 1157.32 1561.9 Q1158.53 1563.14 1162.19 1563.14 L1168.21 1563.14 L1168.21 1568.04 L1162.19 1568.04 Q1155.41 1568.04 1152.83 1565.53 Q1150.25 1562.98 1150.25 1556.3 L1150.25 1536.95 L1145.96 1536.95 L1145.96 1532.4 L1150.25 1532.4 L1150.25 1522.27 L1156.14 1522.27 Z" fill="#000000" fill-rule="nonzero" fill-opacity="1" /><path clip-path="url(#clip050)" d="M1172.5 1532.4 L1178.36 1532.4 L1185.68 1560.21 L1192.97 1532.4 L1199.87 1532.4 L1207.2 1560.21 L1214.48 1532.4 L1220.34 1532.4 L1211.01 1568.04 L1204.11 1568.04 L1196.44 1538.83 L1188.73 1568.04 L1181.83 1568.04 L1172.5 1532.4 Z" fill="#000000" fill-rule="nonzero" fill-opacity="1" /><path clip-path="url(#clip050)" d="M1259.71 1548.76 L1259.71 1551.62 L1232.79 1551.62 Q1233.17 1557.67 1236.41 1560.85 Q1239.69 1564 1245.52 1564 Q1248.89 1564 1252.04 1563.17 Q1255.22 1562.35 1258.34 1560.69 L1258.34 1566.23 Q1255.19 1567.57 1251.88 1568.27 Q1248.57 1568.97 1245.17 1568.97 Q1236.64 1568.97 1231.64 1564 Q1226.67 1559.04 1226.67 1550.57 Q1226.67 1541.82 1231.39 1536.69 Q1236.13 1531.54 1244.15 1531.54 Q1251.34 1531.54 1255.51 1536.18 Q1259.71 1540.8 1259.71 1548.76 M1253.86 1547.04 Q1253.79 1542.23 1251.15 1539.37 Q1248.54 1536.5 1244.21 1536.5 Q1239.31 1536.5 1236.35 1539.27 Q1233.42 1542.04 1232.98 1547.07 L1253.86 1547.04 Z" fill="#000000" fill-rule="nonzero" fill-opacity="1" /><path clip-path="url(#clip050)" d="M1299.82 1548.76 L1299.82 1551.62 L1272.89 1551.62 Q1273.27 1557.67 1276.52 1560.85 Q1279.8 1564 1285.62 1564 Q1288.99 1564 1292.15 1563.17 Q1295.33 1562.35 1298.45 1560.69 L1298.45 1566.23 Q1295.3 1567.57 1291.99 1568.27 Q1288.68 1568.97 1285.27 1568.97 Q1276.74 1568.97 1271.74 1564 Q1266.78 1559.04 1266.78 1550.57 Q1266.78 1541.82 1271.49 1536.69 Q1276.23 1531.54 1284.25 1531.54 Q1291.45 1531.54 1295.62 1536.18 Q1299.82 1540.8 1299.82 1548.76 M1293.96 1547.04 Q1293.9 1542.23 1291.25 1539.37 Q1288.64 1536.5 1284.32 1536.5 Q1279.41 1536.5 1276.45 1539.27 Q1273.53 1542.04 1273.08 1547.07 L1293.96 1547.04 Z" fill="#000000" fill-rule="nonzero" fill-opacity="1" /><path clip-path="url(#clip050)" d="M1339.06 1546.53 L1339.06 1568.04 L1333.2 1568.04 L1333.2 1546.72 Q1333.2 1541.66 1331.23 1539.14 Q1329.26 1536.63 1325.31 1536.63 Q1320.57 1536.63 1317.83 1539.65 Q1315.09 1542.68 1315.09 1547.9 L1315.09 1568.04 L1309.21 1568.04 L1309.21 1532.4 L1315.09 1532.4 L1315.09 1537.93 Q1317.19 1534.72 1320.03 1533.13 Q1322.89 1531.54 1326.62 1531.54 Q1332.76 1531.54 1335.91 1535.36 Q1339.06 1539.14 1339.06 1546.53 Z" fill="#000000" fill-rule="nonzero" fill-opacity="1" /><path clip-path="url(#clip050)" d="M1371.46 1532.4 L1377.32 1532.4 L1377.32 1568.04 L1371.46 1568.04 L1371.46 1532.4 M1371.46 1518.52 L1377.32 1518.52 L1377.32 1525.93 L1371.46 1525.93 L1371.46 1518.52 Z" fill="#000000" fill-rule="nonzero" fill-opacity="1" /><path clip-path="url(#clip050)" d="M1419.21 1546.53 L1419.21 1568.04 L1413.35 1568.04 L1413.35 1546.72 Q1413.35 1541.66 1411.38 1539.14 Q1409.4 1536.63 1405.46 1536.63 Q1400.71 1536.63 1397.98 1539.65 Q1395.24 1542.68 1395.24 1547.9 L1395.24 1568.04 L1389.35 1568.04 L1389.35 1532.4 L1395.24 1532.4 L1395.24 1537.93 Q1397.34 1534.72 1400.17 1533.13 Q1403.04 1531.54 1406.76 1531.54 Q1412.9 1531.54 1416.05 1535.36 Q1419.21 1539.14 1419.21 1546.53 Z" fill="#000000" fill-rule="nonzero" fill-opacity="1" /><path clip-path="url(#clip050)" d="M1436.68 1522.27 L1436.68 1532.4 L1448.74 1532.4 L1448.74 1536.95 L1436.68 1536.95 L1436.68 1556.3 Q1436.68 1560.66 1437.86 1561.9 Q1439.07 1563.14 1442.73 1563.14 L1448.74 1563.14 L1448.74 1568.04 L1442.73 1568.04 Q1435.95 1568.04 1433.37 1565.53 Q1430.79 1562.98 1430.79 1556.3 L1430.79 1536.95 L1426.49 1536.95 L1426.49 1532.4 L1430.79 1532.4 L1430.79 1522.27 L1436.68 1522.27 Z" fill="#000000" fill-rule="nonzero" fill-opacity="1" /><path clip-path="url(#clip050)" d="M1486.94 1548.76 L1486.94 1551.62 L1460.01 1551.62 Q1460.39 1557.67 1463.64 1560.85 Q1466.92 1564 1472.74 1564 Q1476.11 1564 1479.27 1563.17 Q1482.45 1562.35 1485.57 1560.69 L1485.57 1566.23 Q1482.42 1567.57 1479.11 1568.27 Q1475.8 1568.97 1472.39 1568.97 Q1463.86 1568.97 1458.86 1564 Q1453.9 1559.04 1453.9 1550.57 Q1453.9 1541.82 1458.61 1536.69 Q1463.35 1531.54 1471.37 1531.54 Q1478.57 1531.54 1482.74 1536.18 Q1486.94 1540.8 1486.94 1548.76 M1481.08 1547.04 Q1481.02 1542.23 1478.37 1539.37 Q1475.76 1536.5 1471.44 1536.5 Q1466.53 1536.5 1463.57 1539.27 Q1460.65 1542.04 1460.2 1547.07 L1481.08 1547.04 Z" fill="#000000" fill-rule="nonzero" fill-opacity="1" /><path clip-path="url(#clip050)" d="M1517.21 1537.87 Q1516.22 1537.3 1515.04 1537.04 Q1513.9 1536.76 1512.49 1536.76 Q1507.53 1536.76 1504.86 1540 Q1502.21 1543.22 1502.21 1549.27 L1502.21 1568.04 L1496.33 1568.04 L1496.33 1532.4 L1502.21 1532.4 L1502.21 1537.93 Q1504.06 1534.69 1507.02 1533.13 Q1509.98 1531.54 1514.21 1531.54 Q1514.82 1531.54 1515.55 1531.63 Q1516.28 1531.7 1517.17 1531.85 L1517.21 1537.87 Z" fill="#000000" fill-rule="nonzero" fill-opacity="1" /><path clip-path="url(#clip050)" d="M1519.15 1532.4 L1525.35 1532.4 L1536.49 1562.31 L1547.63 1532.4 L1553.84 1532.4 L1540.47 1568.04 L1532.51 1568.04 L1519.15 1532.4 Z" fill="#000000" fill-rule="nonzero" fill-opacity="1" /><path clip-path="url(#clip050)" d="M1578.13 1550.12 Q1571.03 1550.12 1568.29 1551.75 Q1565.55 1553.37 1565.55 1557.29 Q1565.55 1560.4 1567.59 1562.25 Q1569.66 1564.07 1573.19 1564.07 Q1578.06 1564.07 1580.99 1560.63 Q1583.95 1557.16 1583.95 1551.43 L1583.95 1550.12 L1578.13 1550.12 M1589.81 1547.71 L1589.81 1568.04 L1583.95 1568.04 L1583.95 1562.63 Q1581.94 1565.88 1578.95 1567.44 Q1575.96 1568.97 1571.63 1568.97 Q1566.16 1568.97 1562.91 1565.91 Q1559.7 1562.82 1559.7 1557.67 Q1559.7 1551.65 1563.71 1548.6 Q1567.75 1545.54 1575.74 1545.54 L1583.95 1545.54 L1583.95 1544.97 Q1583.95 1540.93 1581.28 1538.73 Q1578.63 1536.5 1573.83 1536.5 Q1570.77 1536.5 1567.88 1537.23 Q1564.98 1537.97 1562.31 1539.43 L1562.31 1534.02 Q1565.52 1532.78 1568.54 1532.17 Q1571.57 1531.54 1574.43 1531.54 Q1582.17 1531.54 1585.99 1535.55 Q1589.81 1539.56 1589.81 1547.71 Z" fill="#000000" fill-rule="nonzero" fill-opacity="1" /><path clip-path="url(#clip050)" d="M1601.87 1518.52 L1607.73 1518.52 L1607.73 1568.04 L1601.87 1568.04 L1601.87 1518.52 Z" fill="#000000" fill-rule="nonzero" fill-opacity="1" /><path clip-path="url(#clip050)" d="M1642.71 1533.45 L1642.71 1538.98 Q1640.22 1537.71 1637.55 1537.07 Q1634.88 1536.44 1632.01 1536.44 Q1627.65 1536.44 1625.45 1537.77 Q1623.29 1539.11 1623.29 1541.79 Q1623.29 1543.82 1624.85 1545 Q1626.41 1546.15 1631.12 1547.2 L1633.12 1547.64 Q1639.36 1548.98 1641.97 1551.43 Q1644.62 1553.85 1644.62 1558.21 Q1644.62 1563.17 1640.67 1566.07 Q1636.75 1568.97 1629.88 1568.97 Q1627.01 1568.97 1623.89 1568.39 Q1620.81 1567.85 1617.37 1566.74 L1617.37 1560.69 Q1620.62 1562.38 1623.77 1563.24 Q1626.92 1564.07 1630.01 1564.07 Q1634.14 1564.07 1636.37 1562.66 Q1638.6 1561.23 1638.6 1558.65 Q1638.6 1556.27 1636.98 1554.99 Q1635.38 1553.72 1629.94 1552.54 L1627.91 1552.07 Q1622.46 1550.92 1620.04 1548.56 Q1617.62 1546.18 1617.62 1542.04 Q1617.62 1537.01 1621.19 1534.27 Q1624.75 1531.54 1631.31 1531.54 Q1634.56 1531.54 1637.42 1532.01 Q1640.29 1532.49 1642.71 1533.45 Z" fill="#000000" fill-rule="nonzero" fill-opacity="1" /><polyline clip-path="url(#clip050)" style="stroke:#000000; stroke-linecap:round; stroke-linejoin:round; stroke-width:4; stroke-opacity:1; fill:none" points="174.149,1423.18 174.149,123.472 "/>
<polyline clip-path="url(#clip050)" style="stroke:#000000; stroke-linecap:round; stroke-linejoin:round; stroke-width:4; stroke-opacity:1; fill:none" points="174.149,1423.18 193.047,1423.18 "/>
<polyline clip-path="url(#clip050)" style="stroke:#000000; stroke-linecap:round; stroke-linejoin:round; stroke-width:4; stroke-opacity:1; fill:none" points="174.149,989.944 193.047,989.944 "/>
<polyline clip-path="url(#clip050)" style="stroke:#000000; stroke-linecap:round; stroke-linejoin:round; stroke-width:4; stroke-opacity:1; fill:none" points="174.149,556.708 193.047,556.708 "/>
<polyline clip-path="url(#clip050)" style="stroke:#000000; stroke-linecap:round; stroke-linejoin:round; stroke-width:4; stroke-opacity:1; fill:none" points="174.149,123.472 193.047,123.472 "/>
<path clip-path="url(#clip050)" d="M126.205 1408.98 Q122.593 1408.98 120.765 1412.54 Q118.959 1416.08 118.959 1423.21 Q118.959 1430.32 120.765 1433.89 Q122.593 1437.43 126.205 1437.43 Q129.839 1437.43 131.644 1433.89 Q133.473 1430.32 133.473 1423.21 Q133.473 1416.08 131.644 1412.54 Q129.839 1408.98 126.205 1408.98 M126.205 1405.27 Q132.015 1405.27 135.07 1409.88 Q138.149 1414.46 138.149 1423.21 Q138.149 1431.94 135.07 1436.55 Q132.015 1441.13 126.205 1441.13 Q120.394 1441.13 117.316 1436.55 Q114.26 1431.94 114.26 1423.21 Q114.26 1414.46 117.316 1409.88 Q120.394 1405.27 126.205 1405.27 Z" fill="#000000" fill-rule="nonzero" fill-opacity="1" /><path clip-path="url(#clip050)" d="M118.242 1003.29 L125.88 1003.29 L125.88 976.923 L117.57 978.59 L117.57 974.331 L125.834 972.664 L130.51 972.664 L130.51 1003.29 L138.149 1003.29 L138.149 1007.22 L118.242 1007.22 L118.242 1003.29 Z" fill="#000000" fill-rule="nonzero" fill-opacity="1" /><path clip-path="url(#clip050)" d="M121.83 570.053 L138.149 570.053 L138.149 573.988 L116.205 573.988 L116.205 570.053 Q118.867 567.298 123.45 562.669 Q128.056 558.016 129.237 556.673 Q131.482 554.15 132.362 552.414 Q133.265 550.655 133.265 548.965 Q133.265 546.21 131.32 544.474 Q129.399 542.738 126.297 542.738 Q124.098 542.738 121.644 543.502 Q119.214 544.266 116.436 545.817 L116.436 541.095 Q119.26 539.96 121.714 539.382 Q124.168 538.803 126.205 538.803 Q131.575 538.803 134.769 541.488 Q137.964 544.173 137.964 548.664 Q137.964 550.794 137.154 552.715 Q136.367 554.613 134.26 557.206 Q133.681 557.877 130.58 561.095 Q127.478 564.289 121.83 570.053 Z" fill="#000000" fill-rule="nonzero" fill-opacity="1" /><path clip-path="url(#clip050)" d="M131.019 122.118 Q134.376 122.836 136.251 125.104 Q138.149 127.373 138.149 130.706 Q138.149 135.822 134.63 138.623 Q131.112 141.423 124.63 141.423 Q122.455 141.423 120.14 140.984 Q117.848 140.567 115.394 139.71 L115.394 135.197 Q117.339 136.331 119.654 136.91 Q121.968 137.488 124.492 137.488 Q128.89 137.488 131.181 135.752 Q133.496 134.016 133.496 130.706 Q133.496 127.65 131.343 125.937 Q129.214 124.201 125.394 124.201 L121.367 124.201 L121.367 120.359 L125.58 120.359 Q129.029 120.359 130.857 118.993 Q132.686 117.604 132.686 115.012 Q132.686 112.35 130.788 110.937 Q128.913 109.502 125.394 109.502 Q123.473 109.502 121.274 109.919 Q119.075 110.336 116.436 111.215 L116.436 107.049 Q119.098 106.308 121.413 105.937 Q123.751 105.567 125.811 105.567 Q131.135 105.567 134.237 107.998 Q137.339 110.405 137.339 114.525 Q137.339 117.396 135.695 119.386 Q134.052 121.354 131.019 122.118 Z" fill="#000000" fill-rule="nonzero" fill-opacity="1" /><path clip-path="url(#clip050)" d="M20.1444 845.354 L26.9239 845.354 Q23.9002 848.6 22.4043 852.293 Q20.9083 855.953 20.9083 860.091 Q20.9083 868.239 25.9054 872.567 Q30.8707 876.896 40.2919 876.896 Q49.6813 876.896 54.6784 872.567 Q59.6436 868.239 59.6436 860.091 Q59.6436 855.953 58.1477 852.293 Q56.6518 848.6 53.6281 845.354 L60.3439 845.354 Q62.6355 848.728 63.7814 852.515 Q64.9272 856.271 64.9272 860.473 Q64.9272 871.262 58.3387 877.469 Q51.7183 883.676 40.2919 883.676 Q28.8336 883.676 22.2451 877.469 Q15.6248 871.262 15.6248 860.473 Q15.6248 856.207 16.7706 852.452 Q17.8846 848.664 20.1444 845.354 Z" fill="#000000" fill-rule="nonzero" fill-opacity="1" /><path clip-path="url(#clip050)" d="M32.4621 821.864 Q32.4621 826.575 36.1542 829.312 Q39.8145 832.05 46.212 832.05 Q52.6095 832.05 56.3017 829.344 Q59.9619 826.607 59.9619 821.864 Q59.9619 817.186 56.2698 814.448 Q52.5777 811.711 46.212 811.711 Q39.8781 811.711 36.186 814.448 Q32.4621 817.186 32.4621 821.864 M27.4968 821.864 Q27.4968 814.226 32.4621 809.865 Q37.4273 805.505 46.212 805.505 Q54.9649 805.505 59.9619 809.865 Q64.9272 814.226 64.9272 821.864 Q64.9272 829.535 59.9619 833.896 Q54.9649 838.224 46.212 838.224 Q37.4273 838.224 32.4621 833.896 Q27.4968 829.535 27.4968 821.864 Z" fill="#000000" fill-rule="nonzero" fill-opacity="1" /><path clip-path="url(#clip050)" d="M49.9359 796.402 L28.3562 796.402 L28.3562 790.545 L49.7131 790.545 Q54.7739 790.545 57.3202 788.572 Q59.8346 786.598 59.8346 782.652 Q59.8346 777.909 56.8109 775.172 Q53.7872 772.403 48.5673 772.403 L28.3562 772.403 L28.3562 766.547 L64.0042 766.547 L64.0042 772.403 L58.5296 772.403 Q61.7762 774.535 63.3676 777.368 Q64.9272 780.169 64.9272 783.893 Q64.9272 790.036 61.1078 793.219 Q57.2883 796.402 49.9359 796.402 M27.4968 781.665 L27.4968 781.665 Z" fill="#000000" fill-rule="nonzero" fill-opacity="1" /><path clip-path="url(#clip050)" d="M42.4881 724.851 L64.0042 724.851 L64.0042 730.708 L42.679 730.708 Q37.6183 730.708 35.1038 732.681 Q32.5894 734.654 32.5894 738.601 Q32.5894 743.344 35.6131 746.081 Q38.6368 748.818 43.8567 748.818 L64.0042 748.818 L64.0042 754.706 L28.3562 754.706 L28.3562 748.818 L33.8944 748.818 Q30.6797 746.717 29.0883 743.885 Q27.4968 741.02 27.4968 737.296 Q27.4968 731.153 31.3163 728.002 Q35.1038 724.851 42.4881 724.851 Z" fill="#000000" fill-rule="nonzero" fill-opacity="1" /><path clip-path="url(#clip050)" d="M18.2347 707.377 L28.3562 707.377 L28.3562 695.314 L32.9077 695.314 L32.9077 707.377 L52.2594 707.377 Q56.6199 707.377 57.8613 706.2 Q59.1026 704.99 59.1026 701.33 L59.1026 695.314 L64.0042 695.314 L64.0042 701.33 Q64.0042 708.109 61.4897 710.687 Q58.9434 713.266 52.2594 713.266 L32.9077 713.266 L32.9077 717.562 L28.3562 717.562 L28.3562 713.266 L18.2347 713.266 L18.2347 707.377 Z" fill="#000000" fill-rule="nonzero" fill-opacity="1" /><path clip-path="url(#clip050)" d="M29.4065 664.886 L34.9447 664.886 Q33.6716 667.369 33.035 670.042 Q32.3984 672.716 32.3984 675.581 Q32.3984 679.941 33.7352 682.137 Q35.072 684.302 37.7456 684.302 Q39.7826 684.302 40.9603 682.742 Q42.1061 681.182 43.1565 676.472 L43.6021 674.467 Q44.9389 668.228 47.3897 665.618 Q49.8086 662.976 54.1691 662.976 Q59.1344 662.976 62.0308 666.923 Q64.9272 670.838 64.9272 677.713 Q64.9272 680.578 64.3543 683.697 Q63.8132 686.784 62.6992 690.222 L56.6518 690.222 Q58.3387 686.975 59.198 683.824 Q60.0256 680.673 60.0256 677.586 Q60.0256 673.448 58.6251 671.22 Q57.1929 668.992 54.6147 668.992 Q52.2276 668.992 50.9545 670.615 Q49.6813 672.207 48.5037 677.649 L48.0262 679.686 Q46.8804 685.129 44.5251 687.548 Q42.138 689.967 38.0002 689.967 Q32.9713 689.967 30.2341 686.402 Q27.4968 682.837 27.4968 676.281 Q27.4968 673.034 27.9743 670.17 Q28.4517 667.305 29.4065 664.886 Z" fill="#000000" fill-rule="nonzero" fill-opacity="1" /><path clip-path="url(#clip050)" d="M975.555 18.8205 L975.555 41.5461 L985.844 41.5461 Q991.556 41.5461 994.675 38.5889 Q997.794 35.6318 997.794 30.163 Q997.794 24.7348 994.675 21.7777 Q991.556 18.8205 985.844 18.8205 L975.555 18.8205 M967.372 12.096 L985.844 12.096 Q996.012 12.096 1001.2 16.714 Q1006.42 21.2916 1006.42 30.163 Q1006.42 39.1155 1001.2 43.6931 Q996.012 48.2706 985.844 48.2706 L975.555 48.2706 L975.555 72.576 L967.372 72.576 L967.372 12.096 Z" fill="#000000" fill-rule="nonzero" fill-opacity="1" /><path clip-path="url(#clip050)" d="M1014.85 54.671 L1014.85 27.2059 L1022.3 27.2059 L1022.3 54.3874 Q1022.3 60.8284 1024.81 64.0691 Q1027.33 67.2693 1032.35 67.2693 Q1038.38 67.2693 1041.87 63.421 Q1045.39 59.5726 1045.39 52.9291 L1045.39 27.2059 L1052.85 27.2059 L1052.85 72.576 L1045.39 72.576 L1045.39 65.6084 Q1042.68 69.7404 1039.07 71.7658 Q1035.51 73.7508 1030.77 73.7508 Q1022.95 73.7508 1018.9 68.8897 Q1014.85 64.0286 1014.85 54.671 M1033.6 26.1121 L1033.6 26.1121 Z" fill="#000000" fill-rule="nonzero" fill-opacity="1" /><path clip-path="url(#clip050)" d="M1068.2 9.54393 L1075.65 9.54393 L1075.65 72.576 L1068.2 72.576 L1068.2 9.54393 Z" fill="#000000" fill-rule="nonzero" fill-opacity="1" /><path clip-path="url(#clip050)" d="M1120.17 28.5427 L1120.17 35.5912 Q1117.01 33.9709 1113.61 33.1607 Q1110.21 32.3505 1106.56 32.3505 Q1101.01 32.3505 1098.22 34.0519 Q1095.46 35.7533 1095.46 39.156 Q1095.46 41.7486 1097.45 43.2475 Q1099.43 44.7058 1105.43 46.0426 L1107.98 46.6097 Q1115.92 48.3111 1119.24 51.4303 Q1122.6 54.509 1122.6 60.0587 Q1122.6 66.3781 1117.58 70.0644 Q1112.6 73.7508 1103.85 73.7508 Q1100.2 73.7508 1096.23 73.0216 Q1092.3 72.3329 1087.93 70.9151 L1087.93 63.2184 Q1092.06 65.3654 1096.07 66.4591 Q1100.08 67.5124 1104.01 67.5124 Q1109.27 67.5124 1112.11 65.73 Q1114.95 63.9071 1114.95 60.6258 Q1114.95 57.5877 1112.88 55.9673 Q1110.85 54.3469 1103.93 52.8481 L1101.34 52.2405 Q1094.41 50.7821 1091.33 47.7845 Q1088.25 44.7463 1088.25 39.4801 Q1088.25 33.0797 1092.79 29.5959 Q1097.32 26.1121 1105.67 26.1121 Q1109.8 26.1121 1113.45 26.7198 Q1117.09 27.3274 1120.17 28.5427 Z" fill="#000000" fill-rule="nonzero" fill-opacity="1" /><path clip-path="url(#clip050)" d="M1173.28 48.0275 L1173.28 51.6733 L1139.01 51.6733 Q1139.49 59.3701 1143.63 63.421 Q1147.8 67.4314 1155.21 67.4314 Q1159.51 67.4314 1163.52 66.3781 Q1167.57 65.3249 1171.54 63.2184 L1171.54 70.267 Q1167.53 71.9684 1163.31 72.8596 Q1159.1 73.7508 1154.77 73.7508 Q1143.91 73.7508 1137.55 67.4314 Q1131.23 61.1119 1131.23 50.3365 Q1131.23 39.1965 1137.23 32.6746 Q1143.26 26.1121 1153.47 26.1121 Q1162.63 26.1121 1167.93 32.0264 Q1173.28 37.9003 1173.28 48.0275 M1165.83 45.84 Q1165.74 39.7232 1162.38 36.0774 Q1159.06 32.4315 1153.55 32.4315 Q1147.31 32.4315 1143.55 35.9558 Q1139.82 39.4801 1139.25 45.8805 L1165.83 45.84 Z" fill="#000000" fill-rule="nonzero" fill-opacity="1" /><path clip-path="url(#clip050)" d="M1211.88 27.2059 L1219.34 27.2059 L1219.34 72.576 L1211.88 72.576 L1211.88 27.2059 M1211.88 9.54393 L1219.34 9.54393 L1219.34 18.9825 L1211.88 18.9825 L1211.88 9.54393 Z" fill="#000000" fill-rule="nonzero" fill-opacity="1" /><path clip-path="url(#clip050)" d="M1272.65 45.1919 L1272.65 72.576 L1265.19 72.576 L1265.19 45.4349 Q1265.19 38.994 1262.68 35.7938 Q1260.17 32.5936 1255.15 32.5936 Q1249.11 32.5936 1245.63 36.4419 Q1242.14 40.2903 1242.14 46.9338 L1242.14 72.576 L1234.65 72.576 L1234.65 27.2059 L1242.14 27.2059 L1242.14 34.2544 Q1244.82 30.163 1248.42 28.1376 Q1252.07 26.1121 1256.81 26.1121 Q1264.63 26.1121 1268.64 30.9732 Q1272.65 35.7938 1272.65 45.1919 Z" fill="#000000" fill-rule="nonzero" fill-opacity="1" /><path clip-path="url(#clip050)" d="M1294.89 14.324 L1294.89 27.2059 L1310.24 27.2059 L1310.24 32.9987 L1294.89 32.9987 L1294.89 57.6282 Q1294.89 63.1779 1296.39 64.7578 Q1297.93 66.3376 1302.58 66.3376 L1310.24 66.3376 L1310.24 72.576 L1302.58 72.576 Q1293.96 72.576 1290.67 69.3758 Q1287.39 66.1351 1287.39 57.6282 L1287.39 32.9987 L1281.92 32.9987 L1281.92 27.2059 L1287.39 27.2059 L1287.39 14.324 L1294.89 14.324 Z" fill="#000000" fill-rule="nonzero" fill-opacity="1" /><path clip-path="url(#clip050)" d="M1358.85 48.0275 L1358.85 51.6733 L1324.58 51.6733 Q1325.07 59.3701 1329.2 63.421 Q1333.37 67.4314 1340.78 67.4314 Q1345.08 67.4314 1349.09 66.3781 Q1353.14 65.3249 1357.11 63.2184 L1357.11 70.267 Q1353.1 71.9684 1348.89 72.8596 Q1344.67 73.7508 1340.34 73.7508 Q1329.48 73.7508 1323.12 67.4314 Q1316.8 61.1119 1316.8 50.3365 Q1316.8 39.1965 1322.8 32.6746 Q1328.83 26.1121 1339.04 26.1121 Q1348.2 26.1121 1353.5 32.0264 Q1358.85 37.9003 1358.85 48.0275 M1351.4 45.84 Q1351.32 39.7232 1347.95 36.0774 Q1344.63 32.4315 1339.12 32.4315 Q1332.88 32.4315 1329.12 35.9558 Q1325.39 39.4801 1324.82 45.8805 L1351.4 45.84 Z" fill="#000000" fill-rule="nonzero" fill-opacity="1" /><path clip-path="url(#clip050)" d="M1397.38 34.1734 Q1396.12 33.4443 1394.62 33.1202 Q1393.16 32.7556 1391.38 32.7556 Q1385.06 32.7556 1381.66 36.8875 Q1378.3 40.9789 1378.3 48.6757 L1378.3 72.576 L1370.8 72.576 L1370.8 27.2059 L1378.3 27.2059 L1378.3 34.2544 Q1380.65 30.1225 1384.41 28.1376 Q1388.18 26.1121 1393.57 26.1121 Q1394.34 26.1121 1395.27 26.2337 Q1396.2 26.3147 1397.33 26.5172 L1397.38 34.1734 Z" fill="#000000" fill-rule="nonzero" fill-opacity="1" /><path clip-path="url(#clip050)" d="M1399.85 27.2059 L1407.75 27.2059 L1421.92 65.2844 L1436.1 27.2059 L1444 27.2059 L1426.99 72.576 L1416.86 72.576 L1399.85 27.2059 Z" fill="#000000" fill-rule="nonzero" fill-opacity="1" /><path clip-path="url(#clip050)" d="M1474.91 49.7694 Q1465.88 49.7694 1462.39 51.8354 Q1458.91 53.9013 1458.91 58.8839 Q1458.91 62.8538 1461.5 65.2034 Q1464.13 67.5124 1468.63 67.5124 Q1474.83 67.5124 1478.56 63.1374 Q1482.32 58.7219 1482.32 51.4303 L1482.32 49.7694 L1474.91 49.7694 M1489.78 46.6907 L1489.78 72.576 L1482.32 72.576 L1482.32 65.6895 Q1479.77 69.8214 1475.96 71.8063 Q1472.15 73.7508 1466.65 73.7508 Q1459.68 73.7508 1455.55 69.8619 Q1451.45 65.9325 1451.45 59.3701 Q1451.45 51.7138 1456.56 47.825 Q1461.7 43.9361 1471.87 43.9361 L1482.32 43.9361 L1482.32 43.2069 Q1482.32 38.0623 1478.92 35.2672 Q1475.56 32.4315 1469.44 32.4315 Q1465.55 32.4315 1461.87 33.3632 Q1458.18 34.295 1454.78 36.1584 L1454.78 29.2718 Q1458.87 27.692 1462.72 26.9223 Q1466.56 26.1121 1470.21 26.1121 Q1480.05 26.1121 1484.92 31.2163 Q1489.78 36.3204 1489.78 46.6907 Z" fill="#000000" fill-rule="nonzero" fill-opacity="1" /><path clip-path="url(#clip050)" d="M1505.13 9.54393 L1512.58 9.54393 L1512.58 72.576 L1505.13 72.576 L1505.13 9.54393 Z" fill="#000000" fill-rule="nonzero" fill-opacity="1" /><path clip-path="url(#clip050)" d="M1557.1 28.5427 L1557.1 35.5912 Q1553.94 33.9709 1550.54 33.1607 Q1547.14 32.3505 1543.49 32.3505 Q1537.94 32.3505 1535.15 34.0519 Q1532.39 35.7533 1532.39 39.156 Q1532.39 41.7486 1534.38 43.2475 Q1536.36 44.7058 1542.36 46.0426 L1544.91 46.6097 Q1552.85 48.3111 1556.17 51.4303 Q1559.53 54.509 1559.53 60.0587 Q1559.53 66.3781 1554.51 70.0644 Q1549.53 73.7508 1540.78 73.7508 Q1537.13 73.7508 1533.16 73.0216 Q1529.23 72.3329 1524.86 70.9151 L1524.86 63.2184 Q1528.99 65.3654 1533 66.4591 Q1537.01 67.5124 1540.94 67.5124 Q1546.21 67.5124 1549.04 65.73 Q1551.88 63.9071 1551.88 60.6258 Q1551.88 57.5877 1549.81 55.9673 Q1547.79 54.3469 1540.86 52.8481 L1538.27 52.2405 Q1531.34 50.7821 1528.26 47.7845 Q1525.18 44.7463 1525.18 39.4801 Q1525.18 33.0797 1529.72 29.5959 Q1534.26 26.1121 1542.6 26.1121 Q1546.73 26.1121 1550.38 26.7198 Q1554.02 27.3274 1557.1 28.5427 Z" fill="#000000" fill-rule="nonzero" fill-opacity="1" /><path clip-path="url(#clip052)" d="M293.976 556.708 L293.976 1423.18 L352.732 1423.18 L352.732 556.708 L293.976 556.708 L293.976 556.708  Z" fill="#009af9" fill-rule="evenodd" fill-opacity="1"/>
<polyline clip-path="url(#clip052)" style="stroke:#000000; stroke-linecap:round; stroke-linejoin:round; stroke-width:4; stroke-opacity:1; fill:none" points="293.976,556.708 293.976,1423.18 352.732,1423.18 352.732,556.708 293.976,556.708 "/>
<path clip-path="url(#clip052)" d="M352.732 1423.18 L352.732 1423.18 L411.488 1423.18 L411.488 1423.18 L352.732 1423.18 L352.732 1423.18  Z" fill="#009af9" fill-rule="evenodd" fill-opacity="1"/>
<polyline clip-path="url(#clip052)" style="stroke:#000000; stroke-linecap:round; stroke-linejoin:round; stroke-width:4; stroke-opacity:1; fill:none" points="352.732,1423.18 352.732,1423.18 411.488,1423.18 352.732,1423.18 "/>
<path clip-path="url(#clip052)" d="M411.488 989.944 L411.488 1423.18 L470.245 1423.18 L470.245 989.944 L411.488 989.944 L411.488 989.944  Z" fill="#009af9" fill-rule="evenodd" fill-opacity="1"/>
<polyline clip-path="url(#clip052)" style="stroke:#000000; stroke-linecap:round; stroke-linejoin:round; stroke-width:4; stroke-opacity:1; fill:none" points="411.488,989.944 411.488,1423.18 470.245,1423.18 470.245,989.944 411.488,989.944 "/>
<path clip-path="url(#clip052)" d="M470.245 123.472 L470.245 1423.18 L529.001 1423.18 L529.001 123.472 L470.245 123.472 L470.245 123.472  Z" fill="#009af9" fill-rule="evenodd" fill-opacity="1"/>
<polyline clip-path="url(#clip052)" style="stroke:#000000; stroke-linecap:round; stroke-linejoin:round; stroke-width:4; stroke-opacity:1; fill:none" points="470.245,123.472 470.245,1423.18 529.001,1423.18 529.001,123.472 470.245,123.472 "/>
<path clip-path="url(#clip052)" d="M529.001 989.944 L529.001 1423.18 L587.757 1423.18 L587.757 989.944 L529.001 989.944 L529.001 989.944  Z" fill="#009af9" fill-rule="evenodd" fill-opacity="1"/>
<polyline clip-path="url(#clip052)" style="stroke:#000000; stroke-linecap:round; stroke-linejoin:round; stroke-width:4; stroke-opacity:1; fill:none" points="529.001,989.944 529.001,1423.18 587.757,1423.18 587.757,989.944 529.001,989.944 "/>
<path clip-path="url(#clip052)" d="M587.757 989.944 L587.757 1423.18 L646.513 1423.18 L646.513 989.944 L587.757 989.944 L587.757 989.944  Z" fill="#009af9" fill-rule="evenodd" fill-opacity="1"/>
<polyline clip-path="url(#clip052)" style="stroke:#000000; stroke-linecap:round; stroke-linejoin:round; stroke-width:4; stroke-opacity:1; fill:none" points="587.757,989.944 587.757,1423.18 646.513,1423.18 646.513,989.944 587.757,989.944 "/>
<path clip-path="url(#clip052)" d="M646.513 989.944 L646.513 1423.18 L705.269 1423.18 L705.269 989.944 L646.513 989.944 L646.513 989.944  Z" fill="#009af9" fill-rule="evenodd" fill-opacity="1"/>
<polyline clip-path="url(#clip052)" style="stroke:#000000; stroke-linecap:round; stroke-linejoin:round; stroke-width:4; stroke-opacity:1; fill:none" points="646.513,989.944 646.513,1423.18 705.269,1423.18 705.269,989.944 646.513,989.944 "/>
<path clip-path="url(#clip052)" d="M705.269 556.708 L705.269 1423.18 L764.025 1423.18 L764.025 556.708 L705.269 556.708 L705.269 556.708  Z" fill="#009af9" fill-rule="evenodd" fill-opacity="1"/>
<polyline clip-path="url(#clip052)" style="stroke:#000000; stroke-linecap:round; stroke-linejoin:round; stroke-width:4; stroke-opacity:1; fill:none" points="705.269,556.708 705.269,1423.18 764.025,1423.18 764.025,556.708 705.269,556.708 "/>
<path clip-path="url(#clip052)" d="M764.025 989.944 L764.025 1423.18 L822.781 1423.18 L822.781 989.944 L764.025 989.944 L764.025 989.944  Z" fill="#009af9" fill-rule="evenodd" fill-opacity="1"/>
<polyline clip-path="url(#clip052)" style="stroke:#000000; stroke-linecap:round; stroke-linejoin:round; stroke-width:4; stroke-opacity:1; fill:none" points="764.025,989.944 764.025,1423.18 822.781,1423.18 822.781,989.944 764.025,989.944 "/>
<path clip-path="url(#clip052)" d="M822.781 989.944 L822.781 1423.18 L881.538 1423.18 L881.538 989.944 L822.781 989.944 L822.781 989.944  Z" fill="#009af9" fill-rule="evenodd" fill-opacity="1"/>
<polyline clip-path="url(#clip052)" style="stroke:#000000; stroke-linecap:round; stroke-linejoin:round; stroke-width:4; stroke-opacity:1; fill:none" points="822.781,989.944 822.781,1423.18 881.538,1423.18 881.538,989.944 822.781,989.944 "/>
<path clip-path="url(#clip052)" d="M881.538 1423.18 L881.538 1423.18 L940.294 1423.18 L940.294 1423.18 L881.538 1423.18 L881.538 1423.18  Z" fill="#009af9" fill-rule="evenodd" fill-opacity="1"/>
<polyline clip-path="url(#clip052)" style="stroke:#000000; stroke-linecap:round; stroke-linejoin:round; stroke-width:4; stroke-opacity:1; fill:none" points="881.538,1423.18 881.538,1423.18 940.294,1423.18 881.538,1423.18 "/>
<path clip-path="url(#clip052)" d="M940.294 1423.18 L940.294 1423.18 L999.05 1423.18 L999.05 1423.18 L940.294 1423.18 L940.294 1423.18  Z" fill="#009af9" fill-rule="evenodd" fill-opacity="1"/>
<polyline clip-path="url(#clip052)" style="stroke:#000000; stroke-linecap:round; stroke-linejoin:round; stroke-width:4; stroke-opacity:1; fill:none" points="940.294,1423.18 940.294,1423.18 999.05,1423.18 940.294,1423.18 "/>
<path clip-path="url(#clip052)" d="M999.05 989.944 L999.05 1423.18 L1057.81 1423.18 L1057.81 989.944 L999.05 989.944 L999.05 989.944  Z" fill="#009af9" fill-rule="evenodd" fill-opacity="1"/>
<polyline clip-path="url(#clip052)" style="stroke:#000000; stroke-linecap:round; stroke-linejoin:round; stroke-width:4; stroke-opacity:1; fill:none" points="999.05,989.944 999.05,1423.18 1057.81,1423.18 1057.81,989.944 999.05,989.944 "/>
<path clip-path="url(#clip052)" d="M1057.81 556.708 L1057.81 1423.18 L1116.56 1423.18 L1116.56 556.708 L1057.81 556.708 L1057.81 556.708  Z" fill="#009af9" fill-rule="evenodd" fill-opacity="1"/>
<polyline clip-path="url(#clip052)" style="stroke:#000000; stroke-linecap:round; stroke-linejoin:round; stroke-width:4; stroke-opacity:1; fill:none" points="1057.81,556.708 1057.81,1423.18 1116.56,1423.18 1116.56,556.708 1057.81,556.708 "/>
<path clip-path="url(#clip052)" d="M1116.56 1423.18 L1116.56 1423.18 L1175.32 1423.18 L1175.32 1423.18 L1116.56 1423.18 L1116.56 1423.18  Z" fill="#009af9" fill-rule="evenodd" fill-opacity="1"/>
<polyline clip-path="url(#clip052)" style="stroke:#000000; stroke-linecap:round; stroke-linejoin:round; stroke-width:4; stroke-opacity:1; fill:none" points="1116.56,1423.18 1116.56,1423.18 1175.32,1423.18 1116.56,1423.18 "/>
<path clip-path="url(#clip052)" d="M1175.32 1423.18 L1175.32 1423.18 L1234.07 1423.18 L1234.07 1423.18 L1175.32 1423.18 L1175.32 1423.18  Z" fill="#009af9" fill-rule="evenodd" fill-opacity="1"/>
<polyline clip-path="url(#clip052)" style="stroke:#000000; stroke-linecap:round; stroke-linejoin:round; stroke-width:4; stroke-opacity:1; fill:none" points="1175.32,1423.18 1175.32,1423.18 1234.07,1423.18 1175.32,1423.18 "/>
<path clip-path="url(#clip052)" d="M1234.07 1423.18 L1234.07 1423.18 L1292.83 1423.18 L1292.83 1423.18 L1234.07 1423.18 L1234.07 1423.18  Z" fill="#009af9" fill-rule="evenodd" fill-opacity="1"/>
<polyline clip-path="url(#clip052)" style="stroke:#000000; stroke-linecap:round; stroke-linejoin:round; stroke-width:4; stroke-opacity:1; fill:none" points="1234.07,1423.18 1234.07,1423.18 1292.83,1423.18 1234.07,1423.18 "/>
<path clip-path="url(#clip052)" d="M1292.83 1423.18 L1292.83 1423.18 L1351.59 1423.18 L1351.59 1423.18 L1292.83 1423.18 L1292.83 1423.18  Z" fill="#009af9" fill-rule="evenodd" fill-opacity="1"/>
<polyline clip-path="url(#clip052)" style="stroke:#000000; stroke-linecap:round; stroke-linejoin:round; stroke-width:4; stroke-opacity:1; fill:none" points="1292.83,1423.18 1292.83,1423.18 1351.59,1423.18 1292.83,1423.18 "/>
<path clip-path="url(#clip052)" d="M1351.59 1423.18 L1351.59 1423.18 L1410.34 1423.18 L1410.34 1423.18 L1351.59 1423.18 L1351.59 1423.18  Z" fill="#009af9" fill-rule="evenodd" fill-opacity="1"/>
<polyline clip-path="url(#clip052)" style="stroke:#000000; stroke-linecap:round; stroke-linejoin:round; stroke-width:4; stroke-opacity:1; fill:none" points="1351.59,1423.18 1351.59,1423.18 1410.34,1423.18 1351.59,1423.18 "/>
<path clip-path="url(#clip052)" d="M1410.34 989.944 L1410.34 1423.18 L1469.1 1423.18 L1469.1 989.944 L1410.34 989.944 L1410.34 989.944  Z" fill="#009af9" fill-rule="evenodd" fill-opacity="1"/>
<polyline clip-path="url(#clip052)" style="stroke:#000000; stroke-linecap:round; stroke-linejoin:round; stroke-width:4; stroke-opacity:1; fill:none" points="1410.34,989.944 1410.34,1423.18 1469.1,1423.18 1469.1,989.944 1410.34,989.944 "/>
<path clip-path="url(#clip052)" d="M1469.1 989.944 L1469.1 1423.18 L1527.86 1423.18 L1527.86 989.944 L1469.1 989.944 L1469.1 989.944  Z" fill="#009af9" fill-rule="evenodd" fill-opacity="1"/>
<polyline clip-path="url(#clip052)" style="stroke:#000000; stroke-linecap:round; stroke-linejoin:round; stroke-width:4; stroke-opacity:1; fill:none" points="1469.1,989.944 1469.1,1423.18 1527.86,1423.18 1527.86,989.944 1469.1,989.944 "/>
<path clip-path="url(#clip052)" d="M1527.86 1423.18 L1527.86 1423.18 L1586.61 1423.18 L1586.61 1423.18 L1527.86 1423.18 L1527.86 1423.18  Z" fill="#009af9" fill-rule="evenodd" fill-opacity="1"/>
<polyline clip-path="url(#clip052)" style="stroke:#000000; stroke-linecap:round; stroke-linejoin:round; stroke-width:4; stroke-opacity:1; fill:none" points="1527.86,1423.18 1527.86,1423.18 1586.61,1423.18 1527.86,1423.18 "/>
<path clip-path="url(#clip052)" d="M1586.61 989.944 L1586.61 1423.18 L1645.37 1423.18 L1645.37 989.944 L1586.61 989.944 L1586.61 989.944  Z" fill="#009af9" fill-rule="evenodd" fill-opacity="1"/>
<polyline clip-path="url(#clip052)" style="stroke:#000000; stroke-linecap:round; stroke-linejoin:round; stroke-width:4; stroke-opacity:1; fill:none" points="1586.61,989.944 1586.61,1423.18 1645.37,1423.18 1645.37,989.944 1586.61,989.944 "/>
<path clip-path="url(#clip052)" d="M1645.37 989.944 L1645.37 1423.18 L1704.12 1423.18 L1704.12 989.944 L1645.37 989.944 L1645.37 989.944  Z" fill="#009af9" fill-rule="evenodd" fill-opacity="1"/>
<polyline clip-path="url(#clip052)" style="stroke:#000000; stroke-linecap:round; stroke-linejoin:round; stroke-width:4; stroke-opacity:1; fill:none" points="1645.37,989.944 1645.37,1423.18 1704.12,1423.18 1704.12,989.944 1645.37,989.944 "/>
<path clip-path="url(#clip052)" d="M1704.12 1423.18 L1704.12 1423.18 L1762.88 1423.18 L1762.88 1423.18 L1704.12 1423.18 L1704.12 1423.18  Z" fill="#009af9" fill-rule="evenodd" fill-opacity="1"/>
<polyline clip-path="url(#clip052)" style="stroke:#000000; stroke-linecap:round; stroke-linejoin:round; stroke-width:4; stroke-opacity:1; fill:none" points="1704.12,1423.18 1704.12,1423.18 1762.88,1423.18 1704.12,1423.18 "/>
<path clip-path="url(#clip052)" d="M1762.88 989.944 L1762.88 1423.18 L1821.64 1423.18 L1821.64 989.944 L1762.88 989.944 L1762.88 989.944  Z" fill="#009af9" fill-rule="evenodd" fill-opacity="1"/>
<polyline clip-path="url(#clip052)" style="stroke:#000000; stroke-linecap:round; stroke-linejoin:round; stroke-width:4; stroke-opacity:1; fill:none" points="1762.88,989.944 1762.88,1423.18 1821.64,1423.18 1821.64,989.944 1762.88,989.944 "/>
<path clip-path="url(#clip052)" d="M1821.64 556.708 L1821.64 1423.18 L1880.39 1423.18 L1880.39 556.708 L1821.64 556.708 L1821.64 556.708  Z" fill="#009af9" fill-rule="evenodd" fill-opacity="1"/>
<polyline clip-path="url(#clip052)" style="stroke:#000000; stroke-linecap:round; stroke-linejoin:round; stroke-width:4; stroke-opacity:1; fill:none" points="1821.64,556.708 1821.64,1423.18 1880.39,1423.18 1880.39,556.708 1821.64,556.708 "/>
<path clip-path="url(#clip052)" d="M1880.39 1423.18 L1880.39 1423.18 L1939.15 1423.18 L1939.15 1423.18 L1880.39 1423.18 L1880.39 1423.18  Z" fill="#009af9" fill-rule="evenodd" fill-opacity="1"/>
<polyline clip-path="url(#clip052)" style="stroke:#000000; stroke-linecap:round; stroke-linejoin:round; stroke-width:4; stroke-opacity:1; fill:none" points="1880.39,1423.18 1880.39,1423.18 1939.15,1423.18 1880.39,1423.18 "/>
<path clip-path="url(#clip052)" d="M1939.15 556.708 L1939.15 1423.18 L1997.9 1423.18 L1997.9 556.708 L1939.15 556.708 L1939.15 556.708  Z" fill="#009af9" fill-rule="evenodd" fill-opacity="1"/>
<polyline clip-path="url(#clip052)" style="stroke:#000000; stroke-linecap:round; stroke-linejoin:round; stroke-width:4; stroke-opacity:1; fill:none" points="1939.15,556.708 1939.15,1423.18 1997.9,1423.18 1997.9,556.708 1939.15,556.708 "/>
<path clip-path="url(#clip052)" d="M1997.9 1423.18 L1997.9 1423.18 L2056.66 1423.18 L2056.66 1423.18 L1997.9 1423.18 L1997.9 1423.18  Z" fill="#009af9" fill-rule="evenodd" fill-opacity="1"/>
<polyline clip-path="url(#clip052)" style="stroke:#000000; stroke-linecap:round; stroke-linejoin:round; stroke-width:4; stroke-opacity:1; fill:none" points="1997.9,1423.18 1997.9,1423.18 2056.66,1423.18 1997.9,1423.18 "/>
<path clip-path="url(#clip052)" d="M2056.66 989.944 L2056.66 1423.18 L2115.42 1423.18 L2115.42 989.944 L2056.66 989.944 L2056.66 989.944  Z" fill="#009af9" fill-rule="evenodd" fill-opacity="1"/>
<polyline clip-path="url(#clip052)" style="stroke:#000000; stroke-linecap:round; stroke-linejoin:round; stroke-width:4; stroke-opacity:1; fill:none" points="2056.66,989.944 2056.66,1423.18 2115.42,1423.18 2115.42,989.944 2056.66,989.944 "/>
<path clip-path="url(#clip052)" d="M2115.42 1423.18 L2115.42 1423.18 L2174.17 1423.18 L2174.17 1423.18 L2115.42 1423.18 L2115.42 1423.18  Z" fill="#009af9" fill-rule="evenodd" fill-opacity="1"/>
<polyline clip-path="url(#clip052)" style="stroke:#000000; stroke-linecap:round; stroke-linejoin:round; stroke-width:4; stroke-opacity:1; fill:none" points="2115.42,1423.18 2115.42,1423.18 2174.17,1423.18 2115.42,1423.18 "/>
<path clip-path="url(#clip052)" d="M2174.17 556.708 L2174.17 1423.18 L2232.93 1423.18 L2232.93 556.708 L2174.17 556.708 L2174.17 556.708  Z" fill="#009af9" fill-rule="evenodd" fill-opacity="1"/>
<polyline clip-path="url(#clip052)" style="stroke:#000000; stroke-linecap:round; stroke-linejoin:round; stroke-width:4; stroke-opacity:1; fill:none" points="2174.17,556.708 2174.17,1423.18 2232.93,1423.18 2232.93,556.708 2174.17,556.708 "/>
<circle clip-path="url(#clip052)" style="fill:#009af9; stroke:none; fill-opacity:0" cx="323.354" cy="556.708" r="2"/>
<circle clip-path="url(#clip052)" style="fill:#009af9; stroke:none; fill-opacity:0" cx="382.11" cy="1423.18" r="2"/>
<circle clip-path="url(#clip052)" style="fill:#009af9; stroke:none; fill-opacity:0" cx="440.867" cy="989.944" r="2"/>
<circle clip-path="url(#clip052)" style="fill:#009af9; stroke:none; fill-opacity:0" cx="499.623" cy="123.472" r="2"/>
<circle clip-path="url(#clip052)" style="fill:#009af9; stroke:none; fill-opacity:0" cx="558.379" cy="989.944" r="2"/>
<circle clip-path="url(#clip052)" style="fill:#009af9; stroke:none; fill-opacity:0" cx="617.135" cy="989.944" r="2"/>
<circle clip-path="url(#clip052)" style="fill:#009af9; stroke:none; fill-opacity:0" cx="675.891" cy="989.944" r="2"/>
<circle clip-path="url(#clip052)" style="fill:#009af9; stroke:none; fill-opacity:0" cx="734.647" cy="556.708" r="2"/>
<circle clip-path="url(#clip052)" style="fill:#009af9; stroke:none; fill-opacity:0" cx="793.403" cy="989.944" r="2"/>
<circle clip-path="url(#clip052)" style="fill:#009af9; stroke:none; fill-opacity:0" cx="852.159" cy="989.944" r="2"/>
<circle clip-path="url(#clip052)" style="fill:#009af9; stroke:none; fill-opacity:0" cx="910.916" cy="1423.18" r="2"/>
<circle clip-path="url(#clip052)" style="fill:#009af9; stroke:none; fill-opacity:0" cx="969.672" cy="1423.18" r="2"/>
<circle clip-path="url(#clip052)" style="fill:#009af9; stroke:none; fill-opacity:0" cx="1028.43" cy="989.944" r="2"/>
<circle clip-path="url(#clip052)" style="fill:#009af9; stroke:none; fill-opacity:0" cx="1087.18" cy="556.708" r="2"/>
<circle clip-path="url(#clip052)" style="fill:#009af9; stroke:none; fill-opacity:0" cx="1145.94" cy="1423.18" r="2"/>
<circle clip-path="url(#clip052)" style="fill:#009af9; stroke:none; fill-opacity:0" cx="1204.7" cy="1423.18" r="2"/>
<circle clip-path="url(#clip052)" style="fill:#009af9; stroke:none; fill-opacity:0" cx="1263.45" cy="1423.18" r="2"/>
<circle clip-path="url(#clip052)" style="fill:#009af9; stroke:none; fill-opacity:0" cx="1322.21" cy="1423.18" r="2"/>
<circle clip-path="url(#clip052)" style="fill:#009af9; stroke:none; fill-opacity:0" cx="1380.96" cy="1423.18" r="2"/>
<circle clip-path="url(#clip052)" style="fill:#009af9; stroke:none; fill-opacity:0" cx="1439.72" cy="989.944" r="2"/>
<circle clip-path="url(#clip052)" style="fill:#009af9; stroke:none; fill-opacity:0" cx="1498.48" cy="989.944" r="2"/>
<circle clip-path="url(#clip052)" style="fill:#009af9; stroke:none; fill-opacity:0" cx="1557.23" cy="1423.18" r="2"/>
<circle clip-path="url(#clip052)" style="fill:#009af9; stroke:none; fill-opacity:0" cx="1615.99" cy="989.944" r="2"/>
<circle clip-path="url(#clip052)" style="fill:#009af9; stroke:none; fill-opacity:0" cx="1674.75" cy="989.944" r="2"/>
<circle clip-path="url(#clip052)" style="fill:#009af9; stroke:none; fill-opacity:0" cx="1733.5" cy="1423.18" r="2"/>
<circle clip-path="url(#clip052)" style="fill:#009af9; stroke:none; fill-opacity:0" cx="1792.26" cy="989.944" r="2"/>
<circle clip-path="url(#clip052)" style="fill:#009af9; stroke:none; fill-opacity:0" cx="1851.01" cy="556.708" r="2"/>
<circle clip-path="url(#clip052)" style="fill:#009af9; stroke:none; fill-opacity:0" cx="1909.77" cy="1423.18" r="2"/>
<circle clip-path="url(#clip052)" style="fill:#009af9; stroke:none; fill-opacity:0" cx="1968.53" cy="556.708" r="2"/>
<circle clip-path="url(#clip052)" style="fill:#009af9; stroke:none; fill-opacity:0" cx="2027.28" cy="1423.18" r="2"/>
<circle clip-path="url(#clip052)" style="fill:#009af9; stroke:none; fill-opacity:0" cx="2086.04" cy="989.944" r="2"/>
<circle clip-path="url(#clip052)" style="fill:#009af9; stroke:none; fill-opacity:0" cx="2144.79" cy="1423.18" r="2"/>
<circle clip-path="url(#clip052)" style="fill:#009af9; stroke:none; fill-opacity:0" cx="2203.55" cy="556.708" r="2"/>
</svg>
