<?xml version="1.0" encoding="utf-8"?>
<svg xmlns="http://www.w3.org/2000/svg" xmlns:xlink="http://www.w3.org/1999/xlink" width="600" height="400" viewBox="0 0 2400 1600">
<defs>
  <clipPath id="clip560">
    <rect x="0" y="0" width="2400" height="1600"/>
  </clipPath>
</defs>
<path clip-path="url(#clip560)" d="M0 1600 L2400 1600 L2400 0 L0 0  Z" fill="#ffffff" fill-rule="evenodd" fill-opacity="1"/>
<defs>
  <clipPath id="clip561">
    <rect x="480" y="0" width="1681" height="1600"/>
  </clipPath>
</defs>
<path clip-path="url(#clip560)" d="M264.287 1423.18 L2352.76 1423.18 L2352.76 123.472 L264.287 123.472  Z" fill="#ffffff" fill-rule="evenodd" fill-opacity="1"/>
<defs>
  <clipPath id="clip562">
    <rect x="264" y="123" width="2089" height="1301"/>
  </clipPath>
</defs>
<polyline clip-path="url(#clip562)" style="stroke:#000000; stroke-linecap:round; stroke-linejoin:round; stroke-width:2; stroke-opacity:0.1; fill:none" points="323.395,1423.18 323.395,123.472 "/>
<polyline clip-path="url(#clip562)" style="stroke:#000000; stroke-linecap:round; stroke-linejoin:round; stroke-width:2; stroke-opacity:0.1; fill:none" points="813.996,1423.18 813.996,123.472 "/>
<polyline clip-path="url(#clip562)" style="stroke:#000000; stroke-linecap:round; stroke-linejoin:round; stroke-width:2; stroke-opacity:0.1; fill:none" points="1304.6,1423.18 1304.6,123.472 "/>
<polyline clip-path="url(#clip562)" style="stroke:#000000; stroke-linecap:round; stroke-linejoin:round; stroke-width:2; stroke-opacity:0.1; fill:none" points="1795.2,1423.18 1795.2,123.472 "/>
<polyline clip-path="url(#clip562)" style="stroke:#000000; stroke-linecap:round; stroke-linejoin:round; stroke-width:2; stroke-opacity:0.1; fill:none" points="2285.8,1423.18 2285.8,123.472 "/>
<polyline clip-path="url(#clip562)" style="stroke:#000000; stroke-linecap:round; stroke-linejoin:round; stroke-width:2; stroke-opacity:0.1; fill:none" points="264.287,1205.32 2352.76,1205.32 "/>
<polyline clip-path="url(#clip562)" style="stroke:#000000; stroke-linecap:round; stroke-linejoin:round; stroke-width:2; stroke-opacity:0.1; fill:none" points="264.287,946.641 2352.76,946.641 "/>
<polyline clip-path="url(#clip562)" style="stroke:#000000; stroke-linecap:round; stroke-linejoin:round; stroke-width:2; stroke-opacity:0.1; fill:none" points="264.287,687.962 2352.76,687.962 "/>
<polyline clip-path="url(#clip562)" style="stroke:#000000; stroke-linecap:round; stroke-linejoin:round; stroke-width:2; stroke-opacity:0.1; fill:none" points="264.287,429.283 2352.76,429.283 "/>
<polyline clip-path="url(#clip562)" style="stroke:#000000; stroke-linecap:round; stroke-linejoin:round; stroke-width:2; stroke-opacity:0.1; fill:none" points="264.287,170.603 2352.76,170.603 "/>
<polyline clip-path="url(#clip560)" style="stroke:#000000; stroke-linecap:round; stroke-linejoin:round; stroke-width:4; stroke-opacity:1; fill:none" points="264.287,1423.18 2352.76,1423.18 "/>
<polyline clip-path="url(#clip560)" style="stroke:#000000; stroke-linecap:round; stroke-linejoin:round; stroke-width:4; stroke-opacity:1; fill:none" points="323.395,1423.18 323.395,1404.28 "/>
<polyline clip-path="url(#clip560)" style="stroke:#000000; stroke-linecap:round; stroke-linejoin:round; stroke-width:4; stroke-opacity:1; fill:none" points="813.996,1423.18 813.996,1404.28 "/>
<polyline clip-path="url(#clip560)" style="stroke:#000000; stroke-linecap:round; stroke-linejoin:round; stroke-width:4; stroke-opacity:1; fill:none" points="1304.6,1423.18 1304.6,1404.28 "/>
<polyline clip-path="url(#clip560)" style="stroke:#000000; stroke-linecap:round; stroke-linejoin:round; stroke-width:4; stroke-opacity:1; fill:none" points="1795.2,1423.18 1795.2,1404.28 "/>
<polyline clip-path="url(#clip560)" style="stroke:#000000; stroke-linecap:round; stroke-linejoin:round; stroke-width:4; stroke-opacity:1; fill:none" points="2285.8,1423.18 2285.8,1404.28 "/>
<path clip-path="url(#clip560)" d="M323.395 1454.1 Q319.784 1454.1 317.955 1457.66 Q316.15 1461.2 316.15 1468.33 Q316.15 1475.44 317.955 1479.01 Q319.784 1482.55 323.395 1482.55 Q327.029 1482.55 328.835 1479.01 Q330.663 1475.44 330.663 1468.33 Q330.663 1461.2 328.835 1457.66 Q327.029 1454.1 323.395 1454.1 M323.395 1450.39 Q329.205 1450.39 332.261 1455 Q335.339 1459.58 335.339 1468.33 Q335.339 1477.06 332.261 1481.67 Q329.205 1486.25 323.395 1486.25 Q317.585 1486.25 314.506 1481.67 Q311.451 1477.06 311.451 1468.33 Q311.451 1459.58 314.506 1455 Q317.585 1450.39 323.395 1450.39 Z" fill="#000000" fill-rule="nonzero" fill-opacity="1" /><path clip-path="url(#clip560)" d="M777.688 1481.64 L794.008 1481.64 L794.008 1485.58 L772.063 1485.58 L772.063 1481.64 Q774.725 1478.89 779.309 1474.26 Q783.915 1469.61 785.096 1468.27 Q787.341 1465.74 788.221 1464.01 Q789.123 1462.25 789.123 1460.56 Q789.123 1457.8 787.179 1456.07 Q785.258 1454.33 782.156 1454.33 Q779.957 1454.33 777.503 1455.09 Q775.072 1455.86 772.295 1457.41 L772.295 1452.69 Q775.119 1451.55 777.572 1450.97 Q780.026 1450.39 782.063 1450.39 Q787.434 1450.39 790.628 1453.08 Q793.822 1455.77 793.822 1460.26 Q793.822 1462.39 793.012 1464.31 Q792.225 1466.2 790.119 1468.8 Q789.54 1469.47 786.438 1472.69 Q783.336 1475.88 777.688 1481.64 Z" fill="#000000" fill-rule="nonzero" fill-opacity="1" /><path clip-path="url(#clip560)" d="M803.869 1451.02 L822.225 1451.02 L822.225 1454.96 L808.151 1454.96 L808.151 1463.43 Q809.17 1463.08 810.188 1462.92 Q811.207 1462.73 812.225 1462.73 Q818.012 1462.73 821.392 1465.9 Q824.771 1469.08 824.771 1474.49 Q824.771 1480.07 821.299 1483.17 Q817.827 1486.25 811.507 1486.25 Q809.332 1486.25 807.063 1485.88 Q804.818 1485.51 802.41 1484.77 L802.41 1480.07 Q804.494 1481.2 806.716 1481.76 Q808.938 1482.32 811.415 1482.32 Q815.419 1482.32 817.757 1480.21 Q820.095 1478.1 820.095 1474.49 Q820.095 1470.88 817.757 1468.77 Q815.419 1466.67 811.415 1466.67 Q809.54 1466.67 807.665 1467.08 Q805.813 1467.5 803.869 1468.38 L803.869 1451.02 Z" fill="#000000" fill-rule="nonzero" fill-opacity="1" /><path clip-path="url(#clip560)" d="M843.984 1454.1 Q840.373 1454.1 838.544 1457.66 Q836.739 1461.2 836.739 1468.33 Q836.739 1475.44 838.544 1479.01 Q840.373 1482.55 843.984 1482.55 Q847.618 1482.55 849.424 1479.01 Q851.253 1475.44 851.253 1468.33 Q851.253 1461.2 849.424 1457.66 Q847.618 1454.1 843.984 1454.1 M843.984 1450.39 Q849.794 1450.39 852.85 1455 Q855.929 1459.58 855.929 1468.33 Q855.929 1477.06 852.85 1481.67 Q849.794 1486.25 843.984 1486.25 Q838.174 1486.25 835.095 1481.67 Q832.04 1477.06 832.04 1468.33 Q832.04 1459.58 835.095 1455 Q838.174 1450.39 843.984 1450.39 Z" fill="#000000" fill-rule="nonzero" fill-opacity="1" /><path clip-path="url(#clip560)" d="M1264.22 1451.02 L1282.57 1451.02 L1282.57 1454.96 L1268.5 1454.96 L1268.5 1463.43 Q1269.52 1463.08 1270.53 1462.92 Q1271.55 1462.73 1272.57 1462.73 Q1278.36 1462.73 1281.74 1465.9 Q1285.12 1469.08 1285.12 1474.49 Q1285.12 1480.07 1281.65 1483.17 Q1278.17 1486.25 1271.85 1486.25 Q1269.68 1486.25 1267.41 1485.88 Q1265.16 1485.51 1262.76 1484.77 L1262.76 1480.07 Q1264.84 1481.2 1267.06 1481.76 Q1269.28 1482.32 1271.76 1482.32 Q1275.77 1482.32 1278.1 1480.21 Q1280.44 1478.1 1280.44 1474.49 Q1280.44 1470.88 1278.1 1468.77 Q1275.77 1466.67 1271.76 1466.67 Q1269.89 1466.67 1268.01 1467.08 Q1266.16 1467.5 1264.22 1468.38 L1264.22 1451.02 Z" fill="#000000" fill-rule="nonzero" fill-opacity="1" /><path clip-path="url(#clip560)" d="M1304.33 1454.1 Q1300.72 1454.1 1298.89 1457.66 Q1297.09 1461.2 1297.09 1468.33 Q1297.09 1475.44 1298.89 1479.01 Q1300.72 1482.55 1304.33 1482.55 Q1307.96 1482.55 1309.77 1479.01 Q1311.6 1475.44 1311.6 1468.33 Q1311.6 1461.2 1309.77 1457.66 Q1307.96 1454.1 1304.33 1454.1 M1304.33 1450.39 Q1310.14 1450.39 1313.2 1455 Q1316.27 1459.58 1316.27 1468.33 Q1316.27 1477.06 1313.2 1481.67 Q1310.14 1486.25 1304.33 1486.25 Q1298.52 1486.25 1295.44 1481.67 Q1292.39 1477.06 1292.39 1468.33 Q1292.39 1459.58 1295.44 1455 Q1298.52 1450.39 1304.33 1450.39 Z" fill="#000000" fill-rule="nonzero" fill-opacity="1" /><path clip-path="url(#clip560)" d="M1334.49 1454.1 Q1330.88 1454.1 1329.05 1457.66 Q1327.25 1461.2 1327.25 1468.33 Q1327.25 1475.44 1329.05 1479.01 Q1330.88 1482.55 1334.49 1482.55 Q1338.13 1482.55 1339.93 1479.01 Q1341.76 1475.44 1341.76 1468.33 Q1341.76 1461.2 1339.93 1457.66 Q1338.13 1454.1 1334.49 1454.1 M1334.49 1450.39 Q1340.3 1450.39 1343.36 1455 Q1346.44 1459.58 1346.44 1468.33 Q1346.44 1477.06 1343.36 1481.67 Q1340.3 1486.25 1334.49 1486.25 Q1328.68 1486.25 1325.6 1481.67 Q1322.55 1477.06 1322.55 1468.33 Q1322.55 1459.58 1325.6 1455 Q1328.68 1450.39 1334.49 1450.39 Z" fill="#000000" fill-rule="nonzero" fill-opacity="1" /><path clip-path="url(#clip560)" d="M1753.47 1451.02 L1775.7 1451.02 L1775.7 1453.01 L1763.15 1485.58 L1758.27 1485.58 L1770.07 1454.96 L1753.47 1454.96 L1753.47 1451.02 Z" fill="#000000" fill-rule="nonzero" fill-opacity="1" /><path clip-path="url(#clip560)" d="M1784.86 1451.02 L1803.22 1451.02 L1803.22 1454.96 L1789.14 1454.96 L1789.14 1463.43 Q1790.16 1463.08 1791.18 1462.92 Q1792.2 1462.73 1793.22 1462.73 Q1799.01 1462.73 1802.39 1465.9 Q1805.76 1469.08 1805.76 1474.49 Q1805.76 1480.07 1802.29 1483.17 Q1798.82 1486.25 1792.5 1486.25 Q1790.33 1486.25 1788.06 1485.88 Q1785.81 1485.51 1783.4 1484.77 L1783.4 1480.07 Q1785.49 1481.2 1787.71 1481.76 Q1789.93 1482.32 1792.41 1482.32 Q1796.41 1482.32 1798.75 1480.21 Q1801.09 1478.1 1801.09 1474.49 Q1801.09 1470.88 1798.75 1468.77 Q1796.41 1466.67 1792.41 1466.67 Q1790.53 1466.67 1788.66 1467.08 Q1786.81 1467.5 1784.86 1468.38 L1784.86 1451.02 Z" fill="#000000" fill-rule="nonzero" fill-opacity="1" /><path clip-path="url(#clip560)" d="M1824.98 1454.1 Q1821.37 1454.1 1819.54 1457.66 Q1817.73 1461.2 1817.73 1468.33 Q1817.73 1475.44 1819.54 1479.01 Q1821.37 1482.55 1824.98 1482.55 Q1828.61 1482.55 1830.42 1479.01 Q1832.25 1475.44 1832.25 1468.33 Q1832.25 1461.2 1830.42 1457.66 Q1828.61 1454.1 1824.98 1454.1 M1824.98 1450.39 Q1830.79 1450.39 1833.84 1455 Q1836.92 1459.58 1836.92 1468.33 Q1836.92 1477.06 1833.84 1481.67 Q1830.79 1486.25 1824.98 1486.25 Q1819.17 1486.25 1816.09 1481.67 Q1813.03 1477.06 1813.03 1468.33 Q1813.03 1459.58 1816.09 1455 Q1819.17 1450.39 1824.98 1450.39 Z" fill="#000000" fill-rule="nonzero" fill-opacity="1" /><path clip-path="url(#clip560)" d="M2230.32 1481.64 L2237.96 1481.64 L2237.96 1455.28 L2229.65 1456.95 L2229.65 1452.69 L2237.92 1451.02 L2242.59 1451.02 L2242.59 1481.64 L2250.23 1481.64 L2250.23 1485.58 L2230.32 1485.58 L2230.32 1481.64 Z" fill="#000000" fill-rule="nonzero" fill-opacity="1" /><path clip-path="url(#clip560)" d="M2269.68 1454.1 Q2266.06 1454.1 2264.24 1457.66 Q2262.43 1461.2 2262.43 1468.33 Q2262.43 1475.44 2264.24 1479.01 Q2266.06 1482.55 2269.68 1482.55 Q2273.31 1482.55 2275.12 1479.01 Q2276.94 1475.44 2276.94 1468.33 Q2276.94 1461.2 2275.12 1457.66 Q2273.31 1454.1 2269.68 1454.1 M2269.68 1450.39 Q2275.49 1450.39 2278.54 1455 Q2281.62 1459.58 2281.62 1468.33 Q2281.62 1477.06 2278.54 1481.67 Q2275.49 1486.25 2269.68 1486.25 Q2263.87 1486.25 2260.79 1481.67 Q2257.73 1477.06 2257.73 1468.33 Q2257.73 1459.58 2260.79 1455 Q2263.87 1450.39 2269.68 1450.39 Z" fill="#000000" fill-rule="nonzero" fill-opacity="1" /><path clip-path="url(#clip560)" d="M2299.84 1454.1 Q2296.23 1454.1 2294.4 1457.66 Q2292.59 1461.2 2292.59 1468.33 Q2292.59 1475.44 2294.4 1479.01 Q2296.23 1482.55 2299.84 1482.55 Q2303.47 1482.55 2305.28 1479.01 Q2307.11 1475.44 2307.11 1468.33 Q2307.11 1461.2 2305.28 1457.66 Q2303.47 1454.1 2299.84 1454.1 M2299.84 1450.39 Q2305.65 1450.39 2308.7 1455 Q2311.78 1459.58 2311.78 1468.33 Q2311.78 1477.06 2308.7 1481.67 Q2305.65 1486.25 2299.84 1486.25 Q2294.03 1486.25 2290.95 1481.67 Q2287.89 1477.06 2287.89 1468.33 Q2287.89 1459.58 2290.95 1455 Q2294.03 1450.39 2299.84 1450.39 Z" fill="#000000" fill-rule="nonzero" fill-opacity="1" /><path clip-path="url(#clip560)" d="M2330 1454.1 Q2326.39 1454.1 2324.56 1457.66 Q2322.75 1461.2 2322.75 1468.33 Q2322.75 1475.44 2324.56 1479.01 Q2326.39 1482.55 2330 1482.55 Q2333.63 1482.55 2335.44 1479.01 Q2337.27 1475.44 2337.27 1468.33 Q2337.27 1461.2 2335.44 1457.66 Q2333.63 1454.1 2330 1454.1 M2330 1450.39 Q2335.81 1450.39 2338.87 1455 Q2341.94 1459.58 2341.94 1468.33 Q2341.94 1477.06 2338.87 1481.67 Q2335.81 1486.25 2330 1486.25 Q2324.19 1486.25 2321.11 1481.67 Q2318.06 1477.06 2318.06 1468.33 Q2318.06 1459.58 2321.11 1455 Q2324.19 1450.39 2330 1450.39 Z" fill="#000000" fill-rule="nonzero" fill-opacity="1" /><path clip-path="url(#clip560)" d="M1158.04 1520.52 L1198.24 1520.52 L1198.24 1525.93 L1181.37 1525.93 L1181.37 1568.04 L1174.91 1568.04 L1174.91 1525.93 L1158.04 1525.93 L1158.04 1520.52 Z" fill="#000000" fill-rule="nonzero" fill-opacity="1" /><path clip-path="url(#clip560)" d="M1202.18 1532.4 L1208.04 1532.4 L1208.04 1568.04 L1202.18 1568.04 L1202.18 1532.4 M1202.18 1518.52 L1208.04 1518.52 L1208.04 1525.93 L1202.18 1525.93 L1202.18 1518.52 Z" fill="#000000" fill-rule="nonzero" fill-opacity="1" /><path clip-path="url(#clip560)" d="M1248.05 1539.24 Q1250.24 1535.29 1253.3 1533.41 Q1256.35 1531.54 1260.49 1531.54 Q1266.06 1531.54 1269.09 1535.45 Q1272.11 1539.33 1272.11 1546.53 L1272.11 1568.04 L1266.22 1568.04 L1266.22 1546.72 Q1266.22 1541.59 1264.41 1539.11 Q1262.59 1536.63 1258.87 1536.63 Q1254.32 1536.63 1251.68 1539.65 Q1249.03 1542.68 1249.03 1547.9 L1249.03 1568.04 L1243.15 1568.04 L1243.15 1546.72 Q1243.15 1541.56 1241.33 1539.11 Q1239.52 1536.63 1235.73 1536.63 Q1231.24 1536.63 1228.6 1539.68 Q1225.96 1542.71 1225.96 1547.9 L1225.96 1568.04 L1220.07 1568.04 L1220.07 1532.4 L1225.96 1532.4 L1225.96 1537.93 Q1227.96 1534.66 1230.76 1533.1 Q1233.57 1531.54 1237.42 1531.54 Q1241.3 1531.54 1244.01 1533.51 Q1246.74 1535.48 1248.05 1539.24 Z" fill="#000000" fill-rule="nonzero" fill-opacity="1" /><path clip-path="url(#clip560)" d="M1314.28 1548.76 L1314.28 1551.62 L1287.36 1551.62 Q1287.74 1557.67 1290.98 1560.85 Q1294.26 1564 1300.09 1564 Q1303.46 1564 1306.61 1563.17 Q1309.79 1562.35 1312.91 1560.69 L1312.91 1566.23 Q1309.76 1567.57 1306.45 1568.27 Q1303.14 1568.97 1299.74 1568.97 Q1291.21 1568.97 1286.21 1564 Q1281.24 1559.04 1281.24 1550.57 Q1281.24 1541.82 1285.96 1536.69 Q1290.7 1531.54 1298.72 1531.54 Q1305.91 1531.54 1310.08 1536.18 Q1314.28 1540.8 1314.28 1548.76 M1308.43 1547.04 Q1308.36 1542.23 1305.72 1539.37 Q1303.11 1536.5 1298.78 1536.5 Q1293.88 1536.5 1290.92 1539.27 Q1287.99 1542.04 1287.55 1547.07 L1308.43 1547.04 Z" fill="#000000" fill-rule="nonzero" fill-opacity="1" /><path clip-path="url(#clip560)" d="M1358.68 1518.58 Q1354.42 1525.9 1352.35 1533.06 Q1350.28 1540.23 1350.28 1547.58 Q1350.28 1554.93 1352.35 1562.16 Q1354.45 1569.35 1358.68 1576.64 L1353.59 1576.64 Q1348.82 1569.16 1346.43 1561.93 Q1344.07 1554.71 1344.07 1547.58 Q1344.07 1540.48 1346.43 1533.29 Q1348.78 1526.09 1353.59 1518.58 L1358.68 1518.58 Z" fill="#000000" fill-rule="nonzero" fill-opacity="1" /><path clip-path="url(#clip560)" d="M1399.68 1546.53 L1399.68 1568.04 L1393.82 1568.04 L1393.82 1546.72 Q1393.82 1541.66 1391.85 1539.14 Q1389.88 1536.63 1385.93 1536.63 Q1381.19 1536.63 1378.45 1539.65 Q1375.71 1542.68 1375.71 1547.9 L1375.71 1568.04 L1369.82 1568.04 L1369.82 1532.4 L1375.71 1532.4 L1375.71 1537.93 Q1377.81 1534.72 1380.65 1533.13 Q1383.51 1531.54 1387.23 1531.54 Q1393.38 1531.54 1396.53 1535.36 Q1399.68 1539.14 1399.68 1546.53 Z" fill="#000000" fill-rule="nonzero" fill-opacity="1" /><path clip-path="url(#clip560)" d="M1434.09 1533.45 L1434.09 1538.98 Q1431.6 1537.71 1428.93 1537.07 Q1426.26 1536.44 1423.39 1536.44 Q1419.03 1536.44 1416.83 1537.77 Q1414.67 1539.11 1414.67 1541.79 Q1414.67 1543.82 1416.23 1545 Q1417.79 1546.15 1422.5 1547.2 L1424.5 1547.64 Q1430.74 1548.98 1433.35 1551.43 Q1435.99 1553.85 1435.99 1558.21 Q1435.99 1563.17 1432.05 1566.07 Q1428.13 1568.97 1421.26 1568.97 Q1418.39 1568.97 1415.27 1568.39 Q1412.19 1567.85 1408.75 1566.74 L1408.75 1560.69 Q1412 1562.38 1415.15 1563.24 Q1418.3 1564.07 1421.39 1564.07 Q1425.52 1564.07 1427.75 1562.66 Q1429.98 1561.23 1429.98 1558.65 Q1429.98 1556.27 1428.36 1554.99 Q1426.76 1553.72 1421.32 1552.54 L1419.28 1552.07 Q1413.84 1550.92 1411.42 1548.56 Q1409 1546.18 1409 1542.04 Q1409 1537.01 1412.57 1534.27 Q1416.13 1531.54 1422.69 1531.54 Q1425.94 1531.54 1428.8 1532.01 Q1431.67 1532.49 1434.09 1533.45 Z" fill="#000000" fill-rule="nonzero" fill-opacity="1" /><path clip-path="url(#clip560)" d="M1444.4 1518.58 L1449.49 1518.58 Q1454.26 1526.09 1456.62 1533.29 Q1459.01 1540.48 1459.01 1547.58 Q1459.01 1554.71 1456.62 1561.93 Q1454.26 1569.16 1449.49 1576.64 L1444.4 1576.64 Q1448.63 1569.35 1450.7 1562.16 Q1452.8 1554.93 1452.8 1547.58 Q1452.8 1540.23 1450.7 1533.06 Q1448.63 1525.9 1444.4 1518.58 Z" fill="#000000" fill-rule="nonzero" fill-opacity="1" /><polyline clip-path="url(#clip560)" style="stroke:#000000; stroke-linecap:round; stroke-linejoin:round; stroke-width:4; stroke-opacity:1; fill:none" points="264.287,1423.18 264.287,123.472 "/>
<polyline clip-path="url(#clip560)" style="stroke:#000000; stroke-linecap:round; stroke-linejoin:round; stroke-width:4; stroke-opacity:1; fill:none" points="264.287,1205.32 283.185,1205.32 "/>
<polyline clip-path="url(#clip560)" style="stroke:#000000; stroke-linecap:round; stroke-linejoin:round; stroke-width:4; stroke-opacity:1; fill:none" points="264.287,946.641 283.185,946.641 "/>
<polyline clip-path="url(#clip560)" style="stroke:#000000; stroke-linecap:round; stroke-linejoin:round; stroke-width:4; stroke-opacity:1; fill:none" points="264.287,687.962 283.185,687.962 "/>
<polyline clip-path="url(#clip560)" style="stroke:#000000; stroke-linecap:round; stroke-linejoin:round; stroke-width:4; stroke-opacity:1; fill:none" points="264.287,429.283 283.185,429.283 "/>
<polyline clip-path="url(#clip560)" style="stroke:#000000; stroke-linecap:round; stroke-linejoin:round; stroke-width:4; stroke-opacity:1; fill:none" points="264.287,170.603 283.185,170.603 "/>
<path clip-path="url(#clip560)" d="M119.885 1218.67 L136.204 1218.67 L136.204 1222.6 L114.26 1222.6 L114.26 1218.67 Q116.922 1215.91 121.505 1211.28 Q126.112 1206.63 127.292 1205.29 Q129.538 1202.76 130.417 1201.03 Q131.32 1199.27 131.32 1197.58 Q131.32 1194.82 129.376 1193.09 Q127.455 1191.35 124.353 1191.35 Q122.154 1191.35 119.7 1192.11 Q117.269 1192.88 114.492 1194.43 L114.492 1189.71 Q117.316 1188.57 119.769 1187.99 Q122.223 1187.42 124.26 1187.42 Q129.63 1187.42 132.825 1190.1 Q136.019 1192.79 136.019 1197.28 Q136.019 1199.41 135.209 1201.33 Q134.422 1203.23 132.316 1205.82 Q131.737 1206.49 128.635 1209.71 Q125.533 1212.9 119.885 1218.67 Z" fill="#000000" fill-rule="nonzero" fill-opacity="1" /><path clip-path="url(#clip560)" d="M150.047 1218.67 L166.366 1218.67 L166.366 1222.6 L144.422 1222.6 L144.422 1218.67 Q147.084 1215.91 151.667 1211.28 Q156.274 1206.63 157.454 1205.29 Q159.7 1202.76 160.579 1201.03 Q161.482 1199.27 161.482 1197.58 Q161.482 1194.82 159.538 1193.09 Q157.616 1191.35 154.515 1191.35 Q152.316 1191.35 149.862 1192.11 Q147.431 1192.88 144.654 1194.43 L144.654 1189.71 Q147.478 1188.57 149.931 1187.99 Q152.385 1187.42 154.422 1187.42 Q159.792 1187.42 162.987 1190.1 Q166.181 1192.79 166.181 1197.28 Q166.181 1199.41 165.371 1201.33 Q164.584 1203.23 162.477 1205.82 Q161.899 1206.49 158.797 1209.71 Q155.695 1212.9 150.047 1218.67 Z" fill="#000000" fill-rule="nonzero" fill-opacity="1" /><path clip-path="url(#clip560)" d="M186.181 1191.12 Q182.57 1191.12 180.741 1194.68 Q178.936 1198.23 178.936 1205.35 Q178.936 1212.46 180.741 1216.03 Q182.57 1219.57 186.181 1219.57 Q189.815 1219.57 191.621 1216.03 Q193.45 1212.46 193.45 1205.35 Q193.45 1198.23 191.621 1194.68 Q189.815 1191.12 186.181 1191.12 M186.181 1187.42 Q191.991 1187.42 195.047 1192.02 Q198.125 1196.6 198.125 1205.35 Q198.125 1214.08 195.047 1218.69 Q191.991 1223.27 186.181 1223.27 Q180.371 1223.27 177.292 1218.69 Q174.237 1214.08 174.237 1205.35 Q174.237 1196.6 177.292 1192.02 Q180.371 1187.42 186.181 1187.42 Z" fill="#000000" fill-rule="nonzero" fill-opacity="1" /><path clip-path="url(#clip560)" d="M216.343 1191.12 Q212.732 1191.12 210.903 1194.68 Q209.098 1198.23 209.098 1205.35 Q209.098 1212.46 210.903 1216.03 Q212.732 1219.57 216.343 1219.57 Q219.977 1219.57 221.783 1216.03 Q223.611 1212.46 223.611 1205.35 Q223.611 1198.23 221.783 1194.68 Q219.977 1191.12 216.343 1191.12 M216.343 1187.42 Q222.153 1187.42 225.209 1192.02 Q228.287 1196.6 228.287 1205.35 Q228.287 1214.08 225.209 1218.69 Q222.153 1223.27 216.343 1223.27 Q210.533 1223.27 207.454 1218.69 Q204.399 1214.08 204.399 1205.35 Q204.399 1196.6 207.454 1192.02 Q210.533 1187.42 216.343 1187.42 Z" fill="#000000" fill-rule="nonzero" fill-opacity="1" /><path clip-path="url(#clip560)" d="M119.885 959.986 L136.204 959.986 L136.204 963.921 L114.26 963.921 L114.26 959.986 Q116.922 957.231 121.505 952.602 Q126.112 947.949 127.292 946.606 Q129.538 944.083 130.417 942.347 Q131.32 940.588 131.32 938.898 Q131.32 936.143 129.376 934.407 Q127.455 932.671 124.353 932.671 Q122.154 932.671 119.7 933.435 Q117.269 934.199 114.492 935.75 L114.492 931.028 Q117.316 929.893 119.769 929.315 Q122.223 928.736 124.26 928.736 Q129.63 928.736 132.825 931.421 Q136.019 934.106 136.019 938.597 Q136.019 940.727 135.209 942.648 Q134.422 944.546 132.316 947.139 Q131.737 947.81 128.635 951.028 Q125.533 954.222 119.885 959.986 Z" fill="#000000" fill-rule="nonzero" fill-opacity="1" /><path clip-path="url(#clip560)" d="M150.047 959.986 L166.366 959.986 L166.366 963.921 L144.422 963.921 L144.422 959.986 Q147.084 957.231 151.667 952.602 Q156.274 947.949 157.454 946.606 Q159.7 944.083 160.579 942.347 Q161.482 940.588 161.482 938.898 Q161.482 936.143 159.538 934.407 Q157.616 932.671 154.515 932.671 Q152.316 932.671 149.862 933.435 Q147.431 934.199 144.654 935.75 L144.654 931.028 Q147.478 929.893 149.931 929.315 Q152.385 928.736 154.422 928.736 Q159.792 928.736 162.987 931.421 Q166.181 934.106 166.181 938.597 Q166.181 940.727 165.371 942.648 Q164.584 944.546 162.477 947.139 Q161.899 947.81 158.797 951.028 Q155.695 954.222 150.047 959.986 Z" fill="#000000" fill-rule="nonzero" fill-opacity="1" /><path clip-path="url(#clip560)" d="M176.227 929.361 L194.584 929.361 L194.584 933.296 L180.51 933.296 L180.51 941.768 Q181.528 941.421 182.547 941.259 Q183.565 941.074 184.584 941.074 Q190.371 941.074 193.75 944.245 Q197.13 947.416 197.13 952.833 Q197.13 958.412 193.658 961.514 Q190.186 964.592 183.866 964.592 Q181.69 964.592 179.422 964.222 Q177.176 963.852 174.769 963.111 L174.769 958.412 Q176.852 959.546 179.075 960.102 Q181.297 960.657 183.774 960.657 Q187.778 960.657 190.116 958.551 Q192.454 956.444 192.454 952.833 Q192.454 949.222 190.116 947.116 Q187.778 945.009 183.774 945.009 Q181.899 945.009 180.024 945.426 Q178.172 945.842 176.227 946.722 L176.227 929.361 Z" fill="#000000" fill-rule="nonzero" fill-opacity="1" /><path clip-path="url(#clip560)" d="M216.343 932.44 Q212.732 932.44 210.903 936.005 Q209.098 939.546 209.098 946.676 Q209.098 953.782 210.903 957.347 Q212.732 960.889 216.343 960.889 Q219.977 960.889 221.783 957.347 Q223.611 953.782 223.611 946.676 Q223.611 939.546 221.783 936.005 Q219.977 932.44 216.343 932.44 M216.343 928.736 Q222.153 928.736 225.209 933.343 Q228.287 937.926 228.287 946.676 Q228.287 955.403 225.209 960.009 Q222.153 964.592 216.343 964.592 Q210.533 964.592 207.454 960.009 Q204.399 955.403 204.399 946.676 Q204.399 937.926 207.454 933.343 Q210.533 928.736 216.343 928.736 Z" fill="#000000" fill-rule="nonzero" fill-opacity="1" /><path clip-path="url(#clip560)" d="M119.885 701.307 L136.204 701.307 L136.204 705.242 L114.26 705.242 L114.26 701.307 Q116.922 698.552 121.505 693.922 Q126.112 689.27 127.292 687.927 Q129.538 685.404 130.417 683.668 Q131.32 681.909 131.32 680.219 Q131.32 677.464 129.376 675.728 Q127.455 673.992 124.353 673.992 Q122.154 673.992 119.7 674.756 Q117.269 675.52 114.492 677.071 L114.492 672.349 Q117.316 671.214 119.769 670.636 Q122.223 670.057 124.26 670.057 Q129.63 670.057 132.825 672.742 Q136.019 675.427 136.019 679.918 Q136.019 682.048 135.209 683.969 Q134.422 685.867 132.316 688.46 Q131.737 689.131 128.635 692.348 Q125.533 695.543 119.885 701.307 Z" fill="#000000" fill-rule="nonzero" fill-opacity="1" /><path clip-path="url(#clip560)" d="M160.186 686.608 Q163.542 687.325 165.417 689.594 Q167.315 691.862 167.315 695.196 Q167.315 700.311 163.797 703.112 Q160.278 705.913 153.797 705.913 Q151.621 705.913 149.306 705.473 Q147.015 705.057 144.561 704.2 L144.561 699.686 Q146.505 700.821 148.82 701.399 Q151.135 701.978 153.658 701.978 Q158.056 701.978 160.348 700.242 Q162.663 698.506 162.663 695.196 Q162.663 692.14 160.51 690.427 Q158.38 688.691 154.561 688.691 L150.533 688.691 L150.533 684.848 L154.746 684.848 Q158.195 684.848 160.024 683.483 Q161.852 682.094 161.852 679.501 Q161.852 676.839 159.954 675.427 Q158.079 673.992 154.561 673.992 Q152.64 673.992 150.441 674.409 Q148.241 674.825 145.603 675.705 L145.603 671.538 Q148.265 670.798 150.579 670.427 Q152.917 670.057 154.978 670.057 Q160.302 670.057 163.403 672.487 Q166.505 674.895 166.505 679.015 Q166.505 681.885 164.862 683.876 Q163.218 685.844 160.186 686.608 Z" fill="#000000" fill-rule="nonzero" fill-opacity="1" /><path clip-path="url(#clip560)" d="M186.181 673.761 Q182.57 673.761 180.741 677.325 Q178.936 680.867 178.936 687.997 Q178.936 695.103 180.741 698.668 Q182.57 702.209 186.181 702.209 Q189.815 702.209 191.621 698.668 Q193.45 695.103 193.45 687.997 Q193.45 680.867 191.621 677.325 Q189.815 673.761 186.181 673.761 M186.181 670.057 Q191.991 670.057 195.047 674.663 Q198.125 679.247 198.125 687.997 Q198.125 696.723 195.047 701.33 Q191.991 705.913 186.181 705.913 Q180.371 705.913 177.292 701.33 Q174.237 696.723 174.237 687.997 Q174.237 679.247 177.292 674.663 Q180.371 670.057 186.181 670.057 Z" fill="#000000" fill-rule="nonzero" fill-opacity="1" /><path clip-path="url(#clip560)" d="M216.343 673.761 Q212.732 673.761 210.903 677.325 Q209.098 680.867 209.098 687.997 Q209.098 695.103 210.903 698.668 Q212.732 702.209 216.343 702.209 Q219.977 702.209 221.783 698.668 Q223.611 695.103 223.611 687.997 Q223.611 680.867 221.783 677.325 Q219.977 673.761 216.343 673.761 M216.343 670.057 Q222.153 670.057 225.209 674.663 Q228.287 679.247 228.287 687.997 Q228.287 696.723 225.209 701.33 Q222.153 705.913 216.343 705.913 Q210.533 705.913 207.454 701.33 Q204.399 696.723 204.399 687.997 Q204.399 679.247 207.454 674.663 Q210.533 670.057 216.343 670.057 Z" fill="#000000" fill-rule="nonzero" fill-opacity="1" /><path clip-path="url(#clip560)" d="M119.885 442.627 L136.204 442.627 L136.204 446.563 L114.26 446.563 L114.26 442.627 Q116.922 439.873 121.505 435.243 Q126.112 430.591 127.292 429.248 Q129.538 426.725 130.417 424.989 Q131.32 423.229 131.32 421.54 Q131.32 418.785 129.376 417.049 Q127.455 415.313 124.353 415.313 Q122.154 415.313 119.7 416.077 Q117.269 416.841 114.492 418.392 L114.492 413.669 Q117.316 412.535 119.769 411.956 Q122.223 411.378 124.26 411.378 Q129.63 411.378 132.825 414.063 Q136.019 416.748 136.019 421.239 Q136.019 423.368 135.209 425.29 Q134.422 427.188 132.316 429.78 Q131.737 430.452 128.635 433.669 Q125.533 436.864 119.885 442.627 Z" fill="#000000" fill-rule="nonzero" fill-opacity="1" /><path clip-path="url(#clip560)" d="M160.186 427.929 Q163.542 428.646 165.417 430.915 Q167.315 433.183 167.315 436.516 Q167.315 441.632 163.797 444.433 Q160.278 447.234 153.797 447.234 Q151.621 447.234 149.306 446.794 Q147.015 446.377 144.561 445.521 L144.561 441.007 Q146.505 442.141 148.82 442.72 Q151.135 443.299 153.658 443.299 Q158.056 443.299 160.348 441.563 Q162.663 439.827 162.663 436.516 Q162.663 433.461 160.51 431.748 Q158.38 430.012 154.561 430.012 L150.533 430.012 L150.533 426.169 L154.746 426.169 Q158.195 426.169 160.024 424.804 Q161.852 423.415 161.852 420.822 Q161.852 418.16 159.954 416.748 Q158.079 415.313 154.561 415.313 Q152.64 415.313 150.441 415.729 Q148.241 416.146 145.603 417.026 L145.603 412.859 Q148.265 412.118 150.579 411.748 Q152.917 411.378 154.978 411.378 Q160.302 411.378 163.403 413.808 Q166.505 416.216 166.505 420.336 Q166.505 423.206 164.862 425.197 Q163.218 427.165 160.186 427.929 Z" fill="#000000" fill-rule="nonzero" fill-opacity="1" /><path clip-path="url(#clip560)" d="M176.227 412.003 L194.584 412.003 L194.584 415.938 L180.51 415.938 L180.51 424.41 Q181.528 424.063 182.547 423.901 Q183.565 423.716 184.584 423.716 Q190.371 423.716 193.75 426.887 Q197.13 430.058 197.13 435.475 Q197.13 441.053 193.658 444.155 Q190.186 447.234 183.866 447.234 Q181.69 447.234 179.422 446.864 Q177.176 446.493 174.769 445.752 L174.769 441.053 Q176.852 442.188 179.075 442.743 Q181.297 443.299 183.774 443.299 Q187.778 443.299 190.116 441.192 Q192.454 439.086 192.454 435.475 Q192.454 431.864 190.116 429.757 Q187.778 427.651 183.774 427.651 Q181.899 427.651 180.024 428.067 Q178.172 428.484 176.227 429.364 L176.227 412.003 Z" fill="#000000" fill-rule="nonzero" fill-opacity="1" /><path clip-path="url(#clip560)" d="M216.343 415.081 Q212.732 415.081 210.903 418.646 Q209.098 422.188 209.098 429.317 Q209.098 436.424 210.903 439.989 Q212.732 443.53 216.343 443.53 Q219.977 443.53 221.783 439.989 Q223.611 436.424 223.611 429.317 Q223.611 422.188 221.783 418.646 Q219.977 415.081 216.343 415.081 M216.343 411.378 Q222.153 411.378 225.209 415.984 Q228.287 420.567 228.287 429.317 Q228.287 438.044 225.209 442.651 Q222.153 447.234 216.343 447.234 Q210.533 447.234 207.454 442.651 Q204.399 438.044 204.399 429.317 Q204.399 420.567 207.454 415.984 Q210.533 411.378 216.343 411.378 Z" fill="#000000" fill-rule="nonzero" fill-opacity="1" /><path clip-path="url(#clip560)" d="M119.885 183.948 L136.204 183.948 L136.204 187.883 L114.26 187.883 L114.26 183.948 Q116.922 181.194 121.505 176.564 Q126.112 171.911 127.292 170.569 Q129.538 168.046 130.417 166.31 Q131.32 164.55 131.32 162.86 Q131.32 160.106 129.376 158.37 Q127.455 156.634 124.353 156.634 Q122.154 156.634 119.7 157.398 Q117.269 158.161 114.492 159.712 L114.492 154.99 Q117.316 153.856 119.769 153.277 Q122.223 152.698 124.26 152.698 Q129.63 152.698 132.825 155.384 Q136.019 158.069 136.019 162.56 Q136.019 164.689 135.209 166.61 Q134.422 168.509 132.316 171.101 Q131.737 171.772 128.635 174.99 Q125.533 178.184 119.885 183.948 Z" fill="#000000" fill-rule="nonzero" fill-opacity="1" /><path clip-path="url(#clip560)" d="M158.866 157.398 L147.061 175.847 L158.866 175.847 L158.866 157.398 M157.64 153.323 L163.519 153.323 L163.519 175.847 L168.45 175.847 L168.45 179.735 L163.519 179.735 L163.519 187.883 L158.866 187.883 L158.866 179.735 L143.265 179.735 L143.265 175.222 L157.64 153.323 Z" fill="#000000" fill-rule="nonzero" fill-opacity="1" /><path clip-path="url(#clip560)" d="M186.181 156.402 Q182.57 156.402 180.741 159.967 Q178.936 163.509 178.936 170.638 Q178.936 177.745 180.741 181.309 Q182.57 184.851 186.181 184.851 Q189.815 184.851 191.621 181.309 Q193.45 177.745 193.45 170.638 Q193.45 163.509 191.621 159.967 Q189.815 156.402 186.181 156.402 M186.181 152.698 Q191.991 152.698 195.047 157.305 Q198.125 161.888 198.125 170.638 Q198.125 179.365 195.047 183.971 Q191.991 188.555 186.181 188.555 Q180.371 188.555 177.292 183.971 Q174.237 179.365 174.237 170.638 Q174.237 161.888 177.292 157.305 Q180.371 152.698 186.181 152.698 Z" fill="#000000" fill-rule="nonzero" fill-opacity="1" /><path clip-path="url(#clip560)" d="M216.343 156.402 Q212.732 156.402 210.903 159.967 Q209.098 163.509 209.098 170.638 Q209.098 177.745 210.903 181.309 Q212.732 184.851 216.343 184.851 Q219.977 184.851 221.783 181.309 Q223.611 177.745 223.611 170.638 Q223.611 163.509 221.783 159.967 Q219.977 156.402 216.343 156.402 M216.343 152.698 Q222.153 152.698 225.209 157.305 Q228.287 161.888 228.287 170.638 Q228.287 179.365 225.209 183.971 Q222.153 188.555 216.343 188.555 Q210.533 188.555 207.454 183.971 Q204.399 179.365 204.399 170.638 Q204.399 161.888 207.454 157.305 Q210.533 152.698 216.343 152.698 Z" fill="#000000" fill-rule="nonzero" fill-opacity="1" /><path clip-path="url(#clip560)" d="M22.818 910.348 L46.4666 919.069 L46.4666 901.595 L22.818 910.348 M16.4842 913.976 L16.4842 906.688 L64.0042 888.577 L64.0042 895.261 L51.8138 899.59 L51.8138 921.01 L64.0042 925.339 L64.0042 932.119 L16.4842 913.976 Z" fill="#000000" fill-rule="nonzero" fill-opacity="1" /><path clip-path="url(#clip560)" d="M21.7677 875.209 L58.7206 875.209 L58.7206 867.443 Q58.7206 857.608 54.2646 853.056 Q49.8086 848.473 40.1964 848.473 Q30.6479 848.473 26.2237 853.056 Q21.7677 857.608 21.7677 867.443 L21.7677 875.209 M16.4842 881.638 L16.4842 868.43 Q16.4842 854.616 22.2451 848.155 Q27.9743 841.694 40.1964 841.694 Q52.4822 841.694 58.2432 848.187 Q64.0042 854.68 64.0042 868.43 L64.0042 881.638 L16.4842 881.638 Z" fill="#000000" fill-rule="nonzero" fill-opacity="1" /><path clip-path="url(#clip560)" d="M20.1444 795.861 L26.9239 795.861 Q23.9002 799.107 22.4043 802.799 Q20.9083 806.459 20.9083 810.597 Q20.9083 818.745 25.9054 823.074 Q30.8707 827.403 40.2919 827.403 Q49.6813 827.403 54.6784 823.074 Q59.6436 818.745 59.6436 810.597 Q59.6436 806.459 58.1477 802.799 Q56.6518 799.107 53.6281 795.861 L60.3439 795.861 Q62.6355 799.234 63.7814 803.022 Q64.9272 806.778 64.9272 810.979 Q64.9272 821.769 58.3387 827.976 Q51.7183 834.182 40.2919 834.182 Q28.8336 834.182 22.2451 827.976 Q15.6248 821.769 15.6248 810.979 Q15.6248 806.714 16.7706 802.958 Q17.8846 799.171 20.1444 795.861 Z" fill="#000000" fill-rule="nonzero" fill-opacity="1" /><path clip-path="url(#clip560)" d="M49.9359 766.069 L28.3562 766.069 L28.3562 760.213 L49.7131 760.213 Q54.7739 760.213 57.3202 758.239 Q59.8346 756.266 59.8346 752.319 Q59.8346 747.577 56.8109 744.839 Q53.7872 742.07 48.5673 742.07 L28.3562 742.07 L28.3562 736.214 L64.0042 736.214 L64.0042 742.07 L58.5296 742.07 Q61.7762 744.203 63.3676 747.036 Q64.9272 749.837 64.9272 753.56 Q64.9272 759.703 61.1078 762.886 Q57.2883 766.069 49.9359 766.069 M27.4968 751.332 L27.4968 751.332 Z" fill="#000000" fill-rule="nonzero" fill-opacity="1" /><path clip-path="url(#clip560)" d="M42.4881 694.519 L64.0042 694.519 L64.0042 700.375 L42.679 700.375 Q37.6183 700.375 35.1038 702.348 Q32.5894 704.322 32.5894 708.268 Q32.5894 713.011 35.6131 715.748 Q38.6368 718.485 43.8567 718.485 L64.0042 718.485 L64.0042 724.374 L28.3562 724.374 L28.3562 718.485 L33.8944 718.485 Q30.6797 716.385 29.0883 713.552 Q27.4968 710.687 27.4968 706.963 Q27.4968 700.821 31.3163 697.67 Q35.1038 694.519 42.4881 694.519 Z" fill="#000000" fill-rule="nonzero" fill-opacity="1" /><path clip-path="url(#clip560)" d="M28.3562 682.837 L28.3562 676.981 L64.0042 676.981 L64.0042 682.837 L28.3562 682.837 M14.479 682.837 L14.479 676.981 L21.895 676.981 L21.895 682.837 L14.479 682.837 Z" fill="#000000" fill-rule="nonzero" fill-opacity="1" /><path clip-path="url(#clip560)" d="M18.2347 658.934 L28.3562 658.934 L28.3562 646.871 L32.9077 646.871 L32.9077 658.934 L52.2594 658.934 Q56.6199 658.934 57.8613 657.757 Q59.1026 656.547 59.1026 652.887 L59.1026 646.871 L64.0042 646.871 L64.0042 652.887 Q64.0042 659.666 61.4897 662.244 Q58.9434 664.823 52.2594 664.823 L32.9077 664.823 L32.9077 669.119 L28.3562 669.119 L28.3562 664.823 L18.2347 664.823 L18.2347 658.934 Z" fill="#000000" fill-rule="nonzero" fill-opacity="1" /><path clip-path="url(#clip560)" d="M29.4065 616.443 L34.9447 616.443 Q33.6716 618.926 33.035 621.599 Q32.3984 624.273 32.3984 627.138 Q32.3984 631.498 33.7352 633.694 Q35.072 635.859 37.7456 635.859 Q39.7826 635.859 40.9603 634.299 Q42.1061 632.739 43.1565 628.029 L43.6021 626.024 Q44.9389 619.785 47.3897 617.175 Q49.8086 614.533 54.1691 614.533 Q59.1344 614.533 62.0308 618.48 Q64.9272 622.395 64.9272 629.27 Q64.9272 632.135 64.3543 635.254 Q63.8132 638.341 62.6992 641.779 L56.6518 641.779 Q58.3387 638.532 59.198 635.381 Q60.0256 632.23 60.0256 629.143 Q60.0256 625.005 58.6251 622.777 Q57.1929 620.549 54.6147 620.549 Q52.2276 620.549 50.9545 622.172 Q49.6813 623.764 48.5037 629.206 L48.0262 631.243 Q46.8804 636.686 44.5251 639.105 Q42.138 641.524 38.0002 641.524 Q32.9713 641.524 30.2341 637.959 Q27.4968 634.394 27.4968 627.838 Q27.4968 624.591 27.9743 621.727 Q28.4517 618.862 29.4065 616.443 Z" fill="#000000" fill-rule="nonzero" fill-opacity="1" /><path clip-path="url(#clip560)" d="M1042.98 18.8205 L1042.98 41.5461 L1053.27 41.5461 Q1058.99 41.5461 1062.11 38.5889 Q1065.22 35.6318 1065.22 30.163 Q1065.22 24.7348 1062.11 21.7777 Q1058.99 18.8205 1053.27 18.8205 L1042.98 18.8205 M1034.8 12.096 L1053.27 12.096 Q1063.44 12.096 1068.63 16.714 Q1073.85 21.2916 1073.85 30.163 Q1073.85 39.1155 1068.63 43.6931 Q1063.44 48.2706 1053.27 48.2706 L1042.98 48.2706 L1042.98 72.576 L1034.8 72.576 L1034.8 12.096 Z" fill="#000000" fill-rule="nonzero" fill-opacity="1" /><path clip-path="url(#clip560)" d="M1109.34 34.1734 Q1108.08 33.4443 1106.58 33.1202 Q1105.13 32.7556 1103.34 32.7556 Q1097.02 32.7556 1093.62 36.8875 Q1090.26 40.9789 1090.26 48.6757 L1090.26 72.576 L1082.76 72.576 L1082.76 27.2059 L1090.26 27.2059 L1090.26 34.2544 Q1092.61 30.1225 1096.38 28.1376 Q1100.14 26.1121 1105.53 26.1121 Q1106.3 26.1121 1107.23 26.2337 Q1108.16 26.3147 1109.3 26.5172 L1109.34 34.1734 Z" fill="#000000" fill-rule="nonzero" fill-opacity="1" /><path clip-path="url(#clip560)" d="M1132.91 32.4315 Q1126.92 32.4315 1123.44 37.1306 Q1119.95 41.7891 1119.95 49.9314 Q1119.95 58.0738 1123.4 62.7728 Q1126.88 67.4314 1132.91 67.4314 Q1138.87 67.4314 1142.35 62.7323 Q1145.84 58.0333 1145.84 49.9314 Q1145.84 41.8701 1142.35 37.1711 Q1138.87 32.4315 1132.91 32.4315 M1132.91 26.1121 Q1142.64 26.1121 1148.19 32.4315 Q1153.74 38.7509 1153.74 49.9314 Q1153.74 61.0714 1148.19 67.4314 Q1142.64 73.7508 1132.91 73.7508 Q1123.15 73.7508 1117.6 67.4314 Q1112.09 61.0714 1112.09 49.9314 Q1112.09 38.7509 1117.6 32.4315 Q1123.15 26.1121 1132.91 26.1121 Z" fill="#000000" fill-rule="nonzero" fill-opacity="1" /><path clip-path="url(#clip560)" d="M1173.46 14.324 L1173.46 27.2059 L1188.82 27.2059 L1188.82 32.9987 L1173.46 32.9987 L1173.46 57.6282 Q1173.46 63.1779 1174.96 64.7578 Q1176.5 66.3376 1181.16 66.3376 L1188.82 66.3376 L1188.82 72.576 L1181.16 72.576 Q1172.53 72.576 1169.25 69.3758 Q1165.97 66.1351 1165.97 57.6282 L1165.97 32.9987 L1160.5 32.9987 L1160.5 27.2059 L1165.97 27.2059 L1165.97 14.324 L1173.46 14.324 Z" fill="#000000" fill-rule="nonzero" fill-opacity="1" /><path clip-path="url(#clip560)" d="M1216.2 32.4315 Q1210.21 32.4315 1206.72 37.1306 Q1203.24 41.7891 1203.24 49.9314 Q1203.24 58.0738 1206.68 62.7728 Q1210.17 67.4314 1216.2 67.4314 Q1222.16 67.4314 1225.64 62.7323 Q1229.12 58.0333 1229.12 49.9314 Q1229.12 41.8701 1225.64 37.1711 Q1222.16 32.4315 1216.2 32.4315 M1216.2 26.1121 Q1225.92 26.1121 1231.47 32.4315 Q1237.02 38.7509 1237.02 49.9314 Q1237.02 61.0714 1231.47 67.4314 Q1225.92 73.7508 1216.2 73.7508 Q1206.44 73.7508 1200.89 67.4314 Q1195.38 61.0714 1195.38 49.9314 Q1195.38 38.7509 1200.89 32.4315 Q1206.44 26.1121 1216.2 26.1121 Z" fill="#000000" fill-rule="nonzero" fill-opacity="1" /><path clip-path="url(#clip560)" d="M1287.09 45.1919 L1287.09 72.576 L1279.64 72.576 L1279.64 45.4349 Q1279.64 38.994 1277.13 35.7938 Q1274.62 32.5936 1269.59 32.5936 Q1263.56 32.5936 1260.07 36.4419 Q1256.59 40.2903 1256.59 46.9338 L1256.59 72.576 L1249.09 72.576 L1249.09 27.2059 L1256.59 27.2059 L1256.59 34.2544 Q1259.26 30.163 1262.87 28.1376 Q1266.51 26.1121 1271.25 26.1121 Q1279.07 26.1121 1283.08 30.9732 Q1287.09 35.7938 1287.09 45.1919 Z" fill="#000000" fill-rule="nonzero" fill-opacity="1" /><path clip-path="url(#clip560)" d="M1335.54 65.7705 L1335.54 89.8329 L1328.05 89.8329 L1328.05 27.2059 L1335.54 27.2059 L1335.54 34.0924 Q1337.89 30.0415 1341.46 28.0971 Q1345.06 26.1121 1350.04 26.1121 Q1358.31 26.1121 1363.45 32.6746 Q1368.64 39.2371 1368.64 49.9314 Q1368.64 60.6258 1363.45 67.1883 Q1358.31 73.7508 1350.04 73.7508 Q1345.06 73.7508 1341.46 71.8063 Q1337.89 69.8214 1335.54 65.7705 M1360.9 49.9314 Q1360.9 41.7081 1357.5 37.0496 Q1354.13 32.3505 1348.22 32.3505 Q1342.31 32.3505 1338.9 37.0496 Q1335.54 41.7081 1335.54 49.9314 Q1335.54 58.1548 1338.9 62.8538 Q1342.31 67.5124 1348.22 67.5124 Q1354.13 67.5124 1357.5 62.8538 Q1360.9 58.1548 1360.9 49.9314 Z" fill="#000000" fill-rule="nonzero" fill-opacity="1" /><path clip-path="url(#clip560)" d="M1380.22 54.671 L1380.22 27.2059 L1387.68 27.2059 L1387.68 54.3874 Q1387.68 60.8284 1390.19 64.0691 Q1392.7 67.2693 1397.72 67.2693 Q1403.76 67.2693 1407.24 63.421 Q1410.77 59.5726 1410.77 52.9291 L1410.77 27.2059 L1418.22 27.2059 L1418.22 72.576 L1410.77 72.576 L1410.77 65.6084 Q1408.05 69.7404 1404.45 71.7658 Q1400.88 73.7508 1396.14 73.7508 Q1388.32 73.7508 1384.27 68.8897 Q1380.22 64.0286 1380.22 54.671 M1398.98 26.1121 L1398.98 26.1121 Z" fill="#000000" fill-rule="nonzero" fill-opacity="1" /><path clip-path="url(#clip560)" d="M1433.57 9.54393 L1441.03 9.54393 L1441.03 72.576 L1433.57 72.576 L1433.57 9.54393 Z" fill="#000000" fill-rule="nonzero" fill-opacity="1" /><path clip-path="url(#clip560)" d="M1485.55 28.5427 L1485.55 35.5912 Q1482.39 33.9709 1478.98 33.1607 Q1475.58 32.3505 1471.94 32.3505 Q1466.39 32.3505 1463.59 34.0519 Q1460.84 35.7533 1460.84 39.156 Q1460.84 41.7486 1462.82 43.2475 Q1464.81 44.7058 1470.8 46.0426 L1473.35 46.6097 Q1481.29 48.3111 1484.61 51.4303 Q1487.98 54.509 1487.98 60.0587 Q1487.98 66.3781 1482.95 70.0644 Q1477.97 73.7508 1469.22 73.7508 Q1465.58 73.7508 1461.61 73.0216 Q1457.68 72.3329 1453.3 70.9151 L1453.3 63.2184 Q1457.43 65.3654 1461.44 66.4591 Q1465.45 67.5124 1469.38 67.5124 Q1474.65 67.5124 1477.48 65.73 Q1480.32 63.9071 1480.32 60.6258 Q1480.32 57.5877 1478.25 55.9673 Q1476.23 54.3469 1469.3 52.8481 L1466.71 52.2405 Q1459.78 50.7821 1456.7 47.7845 Q1453.63 44.7463 1453.63 39.4801 Q1453.63 33.0797 1458.16 29.5959 Q1462.7 26.1121 1471.04 26.1121 Q1475.18 26.1121 1478.82 26.7198 Q1482.47 27.3274 1485.55 28.5427 Z" fill="#000000" fill-rule="nonzero" fill-opacity="1" /><path clip-path="url(#clip560)" d="M1538.65 48.0275 L1538.65 51.6733 L1504.38 51.6733 Q1504.87 59.3701 1509 63.421 Q1513.17 67.4314 1520.59 67.4314 Q1524.88 67.4314 1528.89 66.3781 Q1532.94 65.3249 1536.91 63.2184 L1536.91 70.267 Q1532.9 71.9684 1528.69 72.8596 Q1524.48 73.7508 1520.14 73.7508 Q1509.28 73.7508 1502.92 67.4314 Q1496.61 61.1119 1496.61 50.3365 Q1496.61 39.1965 1502.6 32.6746 Q1508.64 26.1121 1518.84 26.1121 Q1528 26.1121 1533.31 32.0264 Q1538.65 37.9003 1538.65 48.0275 M1531.2 45.84 Q1531.12 39.7232 1527.76 36.0774 Q1524.43 32.4315 1518.93 32.4315 Q1512.69 32.4315 1508.92 35.9558 Q1505.19 39.4801 1504.63 45.8805 L1531.2 45.84 Z" fill="#000000" fill-rule="nonzero" fill-opacity="1" /><path clip-path="url(#clip560)" d="M1579.81 28.5427 L1579.81 35.5912 Q1576.65 33.9709 1573.25 33.1607 Q1569.85 32.3505 1566.2 32.3505 Q1560.65 32.3505 1557.85 34.0519 Q1555.1 35.7533 1555.1 39.156 Q1555.1 41.7486 1557.09 43.2475 Q1559.07 44.7058 1565.07 46.0426 L1567.62 46.6097 Q1575.56 48.3111 1578.88 51.4303 Q1582.24 54.509 1582.24 60.0587 Q1582.24 66.3781 1577.22 70.0644 Q1572.24 73.7508 1563.49 73.7508 Q1559.84 73.7508 1555.87 73.0216 Q1551.94 72.3329 1547.57 70.9151 L1547.57 63.2184 Q1551.7 65.3654 1555.71 66.4591 Q1559.72 67.5124 1563.65 67.5124 Q1568.91 67.5124 1571.75 65.73 Q1574.59 63.9071 1574.59 60.6258 Q1574.59 57.5877 1572.52 55.9673 Q1570.49 54.3469 1563.57 52.8481 L1560.97 52.2405 Q1554.05 50.7821 1550.97 47.7845 Q1547.89 44.7463 1547.89 39.4801 Q1547.89 33.0797 1552.43 29.5959 Q1556.96 26.1121 1565.31 26.1121 Q1569.44 26.1121 1573.09 26.7198 Q1576.73 27.3274 1579.81 28.5427 Z" fill="#000000" fill-rule="nonzero" fill-opacity="1" /><polyline clip-path="url(#clip562)" style="stroke:#0000ff; stroke-linecap:round; stroke-linejoin:round; stroke-width:12; stroke-opacity:1; fill:none" points="323.395,1241.54 331.245,1241.54 339.094,1241.54 346.944,1231.19 354.793,1236.36 362.643,1226.01 370.493,1236.36 378.342,1226.01 386.192,1231.19 394.041,1226.01 401.891,1220.84 409.741,1215.67 417.59,1215.67 425.44,1220.84 433.29,1215.67 441.139,1210.49 448.989,1220.84 456.838,1220.84 464.688,1215.67 472.538,1210.49 480.387,1220.84 488.237,1210.49 496.086,1215.67 503.936,1215.67 511.786,1210.49 519.635,1210.49 527.485,1210.49 535.335,1215.67 543.184,1205.32 551.034,1215.67 558.883,1215.67 566.733,1210.49 574.583,1210.49 582.432,1210.49 590.282,1220.84 598.131,1215.67 605.981,1205.32 613.831,1205.32 621.68,1210.49 629.53,1200.15 637.38,1205.32 645.229,1210.49 653.079,1210.49 660.928,1205.32 668.778,1200.15 676.628,1210.49 684.477,1210.49 692.327,1210.49 700.176,1210.49 708.026,1205.32 715.876,1205.32 723.725,1200.15 731.575,1200.15 739.425,1200.15 747.274,1205.32 755.124,1200.15 762.973,1200.15 770.823,1205.32 778.673,1205.32 786.522,1205.32 794.372,1200.15 802.221,1200.15 810.071,1205.32 817.921,1205.32 825.77,1200.15 833.62,1194.97 841.47,1210.49 849.319,1200.15 857.169,1200.15 865.018,1194.97 872.868,1194.97 880.718,1210.49 888.567,1194.97 896.417,1194.97 904.266,1200.15 912.116,1205.32 919.966,1200.15 927.815,1205.32 935.665,1210.49 943.515,1200.15 951.364,1205.32 959.214,1194.97 967.063,1194.97 974.913,1200.15 982.763,1200.15 990.612,1194.97 998.462,1200.15 1006.31,1189.8 1014.16,1194.97 1022.01,1194.97 1029.86,1194.97 1037.71,1184.63 1045.56,1184.63 1053.41,1189.8 1061.26,1189.8 1069.11,1189.8 1076.96,1189.8 1084.81,1200.15 1092.66,1189.8 1100.51,1200.15 1108.36,1189.8 1116.21,1194.97 1124.06,1194.97 1131.91,1189.8 1139.75,1189.8 1147.6,1194.97 1155.45,1200.15 1163.3,1194.97 1171.15,1189.8 1179,1184.63 1186.85,1189.8 1194.7,1184.63 1202.55,1189.8 1210.4,1184.63 1218.25,1189.8 1226.1,1179.45 1233.95,1179.45 1241.8,1189.8 1249.65,1184.63 1257.5,1184.63 1265.35,1189.8 1273.2,1179.45 1281.05,1184.63 1288.9,1184.63 1296.75,1179.45 1304.6,1179.45 1312.45,1184.63 1320.3,1179.45 1328.15,1184.63 1336,863.864 1343.84,584.49 1351.69,781.086 1359.54,951.815 1367.39,1091.5 1375.24,1153.58 1383.09,1200.15 1390.94,1220.84 1398.79,1231.19 1406.64,1231.19 1414.49,1210.49 1422.34,775.913 1430.19,827.649 1438.04,988.03 1445.89,449.977 1453.74,160.256 1461.59,553.449 1469.44,905.252 1477.29,1127.72 1485.14,1226.01 1492.99,1303.62 1500.84,1355.35 1508.69,1376.05 1516.54,1376.05 1524.39,1386.4 1532.24,1381.22 1540.09,1376.05 1547.93,1370.87 1555.78,1345.01 1563.63,1355.35 1571.48,1324.31 1579.33,1324.31 1587.18,1313.97 1595.03,1313.97 1602.88,1293.27 1610.73,1288.1 1618.58,1282.92 1626.43,1272.58 1634.28,1282.92 1642.13,1267.4 1649.98,1262.23 1657.83,1257.06 1665.68,1251.88 1673.53,1236.36 1681.38,1241.54 1689.23,1236.36 1697.08,1226.01 1704.93,1220.84 1712.78,1215.67 1720.63,1215.67 1728.48,1210.49 1736.33,1163.93 1744.18,791.434 1752.02,848.343 1759.87,988.03 1767.72,739.698 1775.57,765.566 1783.42,941.467 1791.27,1086.33 1799.12,1174.28 1806.97,1220.84 1814.82,1257.06 1822.67,1262.23 1830.52,1272.58 1838.37,1272.58 1846.22,1277.75 1854.07,1272.58 1861.92,1267.4 1869.77,1257.06 1877.62,1251.88 1885.47,1251.88 1893.32,1246.71 1901.17,1241.54 1909.02,1241.54 1916.87,1236.36 1924.72,1220.84 1932.57,1220.84 1940.42,1210.49 1948.27,1215.67 1956.11,1205.32 1963.96,1200.15 1971.81,1200.15 1979.66,1205.32 1987.51,1194.97 1995.36,1194.97 2003.21,1189.8 2011.06,1184.63 2018.91,1174.28 2026.76,1174.28 2034.61,1184.63 2042.46,1189.8 2050.31,1179.45 2058.16,1179.45 2066.01,1179.45 2073.86,1179.45 2081.71,1179.45 2089.56,1169.11 2097.41,1184.63 2105.26,1179.45 2113.11,1174.28 2120.96,1174.28 2128.81,1169.11 2136.66,1158.76 2144.51,1163.93 2152.36,1163.93 2160.2,1169.11 2168.05,1174.28 2175.9,1174.28 2183.75,1179.45 2191.6,1174.28 2199.45,1174.28 2207.3,1158.76 2215.15,1174.28 2223,1169.11 2230.85,786.26 2238.7,724.177 2246.55,884.558 2254.4,1034.59 2262.25,1117.37 2270.1,1163.93 2277.95,1184.63 2285.8,1210.49 2293.65,1210.49 "/>
</svg>
