<?xml version="1.0" encoding="utf-8"?>
<svg xmlns="http://www.w3.org/2000/svg" xmlns:xlink="http://www.w3.org/1999/xlink" width="600" height="400" viewBox="0 0 2400 1600">
<defs>
  <clipPath id="clip790">
    <rect x="0" y="0" width="2400" height="1600"/>
  </clipPath>
</defs>
<path clip-path="url(#clip790)" d="M0 1600 L2400 1600 L2400 0 L0 0  Z" fill="#ffffff" fill-rule="evenodd" fill-opacity="1"/>
<defs>
  <clipPath id="clip791">
    <rect x="480" y="0" width="1681" height="1600"/>
  </clipPath>
</defs>
<path clip-path="url(#clip790)" d="M369.703 1423.18 L2352.76 1423.18 L2352.76 123.472 L369.703 123.472  Z" fill="#ffffff" fill-rule="evenodd" fill-opacity="1"/>
<defs>
  <clipPath id="clip792">
    <rect x="369" y="123" width="1984" height="1301"/>
  </clipPath>
</defs>
<polyline clip-path="url(#clip792)" style="stroke:#000000; stroke-linecap:round; stroke-linejoin:round; stroke-width:2; stroke-opacity:0.1; fill:none" points="425.828,1423.18 425.828,123.472 "/>
<polyline clip-path="url(#clip792)" style="stroke:#000000; stroke-linecap:round; stroke-linejoin:round; stroke-width:2; stroke-opacity:0.1; fill:none" points="841.562,1423.18 841.562,123.472 "/>
<polyline clip-path="url(#clip792)" style="stroke:#000000; stroke-linecap:round; stroke-linejoin:round; stroke-width:2; stroke-opacity:0.1; fill:none" points="1257.3,1423.18 1257.3,123.472 "/>
<polyline clip-path="url(#clip792)" style="stroke:#000000; stroke-linecap:round; stroke-linejoin:round; stroke-width:2; stroke-opacity:0.1; fill:none" points="1673.03,1423.18 1673.03,123.472 "/>
<polyline clip-path="url(#clip792)" style="stroke:#000000; stroke-linecap:round; stroke-linejoin:round; stroke-width:2; stroke-opacity:0.1; fill:none" points="2088.76,1423.18 2088.76,123.472 "/>
<polyline clip-path="url(#clip792)" style="stroke:#000000; stroke-linecap:round; stroke-linejoin:round; stroke-width:2; stroke-opacity:0.1; fill:none" points="369.703,1386.4 2352.76,1386.4 "/>
<polyline clip-path="url(#clip792)" style="stroke:#000000; stroke-linecap:round; stroke-linejoin:round; stroke-width:2; stroke-opacity:0.1; fill:none" points="369.703,1100.88 2352.76,1100.88 "/>
<polyline clip-path="url(#clip792)" style="stroke:#000000; stroke-linecap:round; stroke-linejoin:round; stroke-width:2; stroke-opacity:0.1; fill:none" points="369.703,815.365 2352.76,815.365 "/>
<polyline clip-path="url(#clip792)" style="stroke:#000000; stroke-linecap:round; stroke-linejoin:round; stroke-width:2; stroke-opacity:0.1; fill:none" points="369.703,529.85 2352.76,529.85 "/>
<polyline clip-path="url(#clip792)" style="stroke:#000000; stroke-linecap:round; stroke-linejoin:round; stroke-width:2; stroke-opacity:0.1; fill:none" points="369.703,244.335 2352.76,244.335 "/>
<polyline clip-path="url(#clip790)" style="stroke:#000000; stroke-linecap:round; stroke-linejoin:round; stroke-width:4; stroke-opacity:1; fill:none" points="369.703,1423.18 2352.76,1423.18 "/>
<polyline clip-path="url(#clip790)" style="stroke:#000000; stroke-linecap:round; stroke-linejoin:round; stroke-width:4; stroke-opacity:1; fill:none" points="425.828,1423.18 425.828,1404.28 "/>
<polyline clip-path="url(#clip790)" style="stroke:#000000; stroke-linecap:round; stroke-linejoin:round; stroke-width:4; stroke-opacity:1; fill:none" points="841.562,1423.18 841.562,1404.28 "/>
<polyline clip-path="url(#clip790)" style="stroke:#000000; stroke-linecap:round; stroke-linejoin:round; stroke-width:4; stroke-opacity:1; fill:none" points="1257.3,1423.18 1257.3,1404.28 "/>
<polyline clip-path="url(#clip790)" style="stroke:#000000; stroke-linecap:round; stroke-linejoin:round; stroke-width:4; stroke-opacity:1; fill:none" points="1673.03,1423.18 1673.03,1404.28 "/>
<polyline clip-path="url(#clip790)" style="stroke:#000000; stroke-linecap:round; stroke-linejoin:round; stroke-width:4; stroke-opacity:1; fill:none" points="2088.76,1423.18 2088.76,1404.28 "/>
<path clip-path="url(#clip790)" d="M425.828 1454.1 Q422.216 1454.1 420.388 1457.66 Q418.582 1461.2 418.582 1468.33 Q418.582 1475.44 420.388 1479.01 Q422.216 1482.55 425.828 1482.55 Q429.462 1482.55 431.267 1479.01 Q433.096 1475.44 433.096 1468.33 Q433.096 1461.2 431.267 1457.66 Q429.462 1454.1 425.828 1454.1 M425.828 1450.39 Q431.638 1450.39 434.693 1455 Q437.772 1459.58 437.772 1468.33 Q437.772 1477.06 434.693 1481.67 Q431.638 1486.25 425.828 1486.25 Q420.017 1486.25 416.939 1481.67 Q413.883 1477.06 413.883 1468.33 Q413.883 1459.58 416.939 1455 Q420.017 1450.39 425.828 1450.39 Z" fill="#000000" fill-rule="nonzero" fill-opacity="1" /><path clip-path="url(#clip790)" d="M816.261 1451.02 L834.617 1451.02 L834.617 1454.96 L820.543 1454.96 L820.543 1463.43 Q821.562 1463.08 822.58 1462.92 Q823.599 1462.73 824.617 1462.73 Q830.404 1462.73 833.784 1465.9 Q837.164 1469.08 837.164 1474.49 Q837.164 1480.07 833.691 1483.17 Q830.219 1486.25 823.9 1486.25 Q821.724 1486.25 819.455 1485.88 Q817.21 1485.51 814.803 1484.77 L814.803 1480.07 Q816.886 1481.2 819.108 1481.76 Q821.33 1482.32 823.807 1482.32 Q827.812 1482.32 830.15 1480.21 Q832.488 1478.1 832.488 1474.49 Q832.488 1470.88 830.15 1468.77 Q827.812 1466.67 823.807 1466.67 Q821.932 1466.67 820.057 1467.08 Q818.205 1467.5 816.261 1468.38 L816.261 1451.02 Z" fill="#000000" fill-rule="nonzero" fill-opacity="1" /><path clip-path="url(#clip790)" d="M856.377 1454.1 Q852.765 1454.1 850.937 1457.66 Q849.131 1461.2 849.131 1468.33 Q849.131 1475.44 850.937 1479.01 Q852.765 1482.55 856.377 1482.55 Q860.011 1482.55 861.816 1479.01 Q863.645 1475.44 863.645 1468.33 Q863.645 1461.2 861.816 1457.66 Q860.011 1454.1 856.377 1454.1 M856.377 1450.39 Q862.187 1450.39 865.242 1455 Q868.321 1459.58 868.321 1468.33 Q868.321 1477.06 865.242 1481.67 Q862.187 1486.25 856.377 1486.25 Q850.566 1486.25 847.488 1481.67 Q844.432 1477.06 844.432 1468.33 Q844.432 1459.58 847.488 1455 Q850.566 1450.39 856.377 1450.39 Z" fill="#000000" fill-rule="nonzero" fill-opacity="1" /><path clip-path="url(#clip790)" d="M1216.9 1481.64 L1224.54 1481.64 L1224.54 1455.28 L1216.23 1456.95 L1216.23 1452.69 L1224.5 1451.02 L1229.17 1451.02 L1229.17 1481.64 L1236.81 1481.64 L1236.81 1485.58 L1216.9 1485.58 L1216.9 1481.64 Z" fill="#000000" fill-rule="nonzero" fill-opacity="1" /><path clip-path="url(#clip790)" d="M1256.25 1454.1 Q1252.64 1454.1 1250.81 1457.66 Q1249.01 1461.2 1249.01 1468.33 Q1249.01 1475.44 1250.81 1479.01 Q1252.64 1482.55 1256.25 1482.55 Q1259.89 1482.55 1261.69 1479.01 Q1263.52 1475.44 1263.52 1468.33 Q1263.52 1461.2 1261.69 1457.66 Q1259.89 1454.1 1256.25 1454.1 M1256.25 1450.39 Q1262.06 1450.39 1265.12 1455 Q1268.2 1459.58 1268.2 1468.33 Q1268.2 1477.06 1265.12 1481.67 Q1262.06 1486.25 1256.25 1486.25 Q1250.44 1486.25 1247.37 1481.67 Q1244.31 1477.06 1244.31 1468.33 Q1244.31 1459.58 1247.37 1455 Q1250.44 1450.39 1256.25 1450.39 Z" fill="#000000" fill-rule="nonzero" fill-opacity="1" /><path clip-path="url(#clip790)" d="M1286.42 1454.1 Q1282.81 1454.1 1280.98 1457.66 Q1279.17 1461.2 1279.17 1468.33 Q1279.17 1475.44 1280.98 1479.01 Q1282.81 1482.55 1286.42 1482.55 Q1290.05 1482.55 1291.86 1479.01 Q1293.68 1475.44 1293.68 1468.33 Q1293.68 1461.2 1291.86 1457.66 Q1290.05 1454.1 1286.42 1454.1 M1286.42 1450.39 Q1292.23 1450.39 1295.28 1455 Q1298.36 1459.58 1298.36 1468.33 Q1298.36 1477.06 1295.28 1481.67 Q1292.23 1486.25 1286.42 1486.25 Q1280.61 1486.25 1277.53 1481.67 Q1274.47 1477.06 1274.47 1468.33 Q1274.47 1459.58 1277.53 1455 Q1280.61 1450.39 1286.42 1450.39 Z" fill="#000000" fill-rule="nonzero" fill-opacity="1" /><path clip-path="url(#clip790)" d="M1632.64 1481.64 L1640.28 1481.64 L1640.28 1455.28 L1631.97 1456.95 L1631.97 1452.69 L1640.23 1451.02 L1644.91 1451.02 L1644.91 1481.64 L1652.54 1481.64 L1652.54 1485.58 L1632.64 1485.58 L1632.64 1481.64 Z" fill="#000000" fill-rule="nonzero" fill-opacity="1" /><path clip-path="url(#clip790)" d="M1662.04 1451.02 L1680.39 1451.02 L1680.39 1454.96 L1666.32 1454.96 L1666.32 1463.43 Q1667.34 1463.08 1668.35 1462.92 Q1669.37 1462.73 1670.39 1462.73 Q1676.18 1462.73 1679.56 1465.9 Q1682.94 1469.08 1682.94 1474.49 Q1682.94 1480.07 1679.47 1483.17 Q1675.99 1486.25 1669.67 1486.25 Q1667.5 1486.25 1665.23 1485.88 Q1662.98 1485.51 1660.58 1484.77 L1660.58 1480.07 Q1662.66 1481.2 1664.88 1481.76 Q1667.1 1482.32 1669.58 1482.32 Q1673.59 1482.32 1675.92 1480.21 Q1678.26 1478.1 1678.26 1474.49 Q1678.26 1470.88 1675.92 1468.77 Q1673.59 1466.67 1669.58 1466.67 Q1667.71 1466.67 1665.83 1467.08 Q1663.98 1467.5 1662.04 1468.38 L1662.04 1451.02 Z" fill="#000000" fill-rule="nonzero" fill-opacity="1" /><path clip-path="url(#clip790)" d="M1702.15 1454.1 Q1698.54 1454.1 1696.71 1457.66 Q1694.91 1461.2 1694.91 1468.33 Q1694.91 1475.44 1696.71 1479.01 Q1698.54 1482.55 1702.15 1482.55 Q1705.78 1482.55 1707.59 1479.01 Q1709.42 1475.44 1709.42 1468.33 Q1709.42 1461.2 1707.59 1457.66 Q1705.78 1454.1 1702.15 1454.1 M1702.15 1450.39 Q1707.96 1450.39 1711.02 1455 Q1714.09 1459.58 1714.09 1468.33 Q1714.09 1477.06 1711.02 1481.67 Q1707.96 1486.25 1702.15 1486.25 Q1696.34 1486.25 1693.26 1481.67 Q1690.21 1477.06 1690.21 1468.33 Q1690.21 1459.58 1693.26 1455 Q1696.34 1450.39 1702.15 1450.39 Z" fill="#000000" fill-rule="nonzero" fill-opacity="1" /><path clip-path="url(#clip790)" d="M2052.46 1481.64 L2068.78 1481.64 L2068.78 1485.58 L2046.83 1485.58 L2046.83 1481.64 Q2049.49 1478.89 2054.08 1474.26 Q2058.68 1469.61 2059.86 1468.27 Q2062.11 1465.74 2062.99 1464.01 Q2063.89 1462.25 2063.89 1460.56 Q2063.89 1457.8 2061.95 1456.07 Q2060.03 1454.33 2056.92 1454.33 Q2054.73 1454.33 2052.27 1455.09 Q2049.84 1455.86 2047.06 1457.41 L2047.06 1452.69 Q2049.89 1451.55 2052.34 1450.97 Q2054.79 1450.39 2056.83 1450.39 Q2062.2 1450.39 2065.4 1453.08 Q2068.59 1455.77 2068.59 1460.26 Q2068.59 1462.39 2067.78 1464.31 Q2066.99 1466.2 2064.89 1468.8 Q2064.31 1469.47 2061.21 1472.69 Q2058.11 1475.88 2052.46 1481.64 Z" fill="#000000" fill-rule="nonzero" fill-opacity="1" /><path clip-path="url(#clip790)" d="M2088.59 1454.1 Q2084.98 1454.1 2083.15 1457.66 Q2081.35 1461.2 2081.35 1468.33 Q2081.35 1475.44 2083.15 1479.01 Q2084.98 1482.55 2088.59 1482.55 Q2092.23 1482.55 2094.03 1479.01 Q2095.86 1475.44 2095.86 1468.33 Q2095.86 1461.2 2094.03 1457.66 Q2092.23 1454.1 2088.59 1454.1 M2088.59 1450.39 Q2094.4 1450.39 2097.46 1455 Q2100.54 1459.58 2100.54 1468.33 Q2100.54 1477.06 2097.46 1481.67 Q2094.4 1486.25 2088.59 1486.25 Q2082.78 1486.25 2079.7 1481.67 Q2076.65 1477.06 2076.65 1468.33 Q2076.65 1459.58 2079.7 1455 Q2082.78 1450.39 2088.59 1450.39 Z" fill="#000000" fill-rule="nonzero" fill-opacity="1" /><path clip-path="url(#clip790)" d="M2118.75 1454.1 Q2115.14 1454.1 2113.31 1457.66 Q2111.51 1461.2 2111.51 1468.33 Q2111.51 1475.44 2113.31 1479.01 Q2115.14 1482.55 2118.75 1482.55 Q2122.39 1482.55 2124.19 1479.01 Q2126.02 1475.44 2126.02 1468.33 Q2126.02 1461.2 2124.19 1457.66 Q2122.39 1454.1 2118.75 1454.1 M2118.75 1450.39 Q2124.56 1450.39 2127.62 1455 Q2130.7 1459.58 2130.7 1468.33 Q2130.7 1477.06 2127.62 1481.67 Q2124.56 1486.25 2118.75 1486.25 Q2112.94 1486.25 2109.86 1481.67 Q2106.81 1477.06 2106.81 1468.33 Q2106.81 1459.58 2109.86 1455 Q2112.94 1450.39 2118.75 1450.39 Z" fill="#000000" fill-rule="nonzero" fill-opacity="1" /><path clip-path="url(#clip790)" d="M1146.86 1520.52 L1176.91 1520.52 L1176.91 1525.93 L1153.29 1525.93 L1153.29 1540 L1175.92 1540 L1175.92 1545.41 L1153.29 1545.41 L1153.29 1562.63 L1177.48 1562.63 L1177.48 1568.04 L1146.86 1568.04 L1146.86 1520.52 Z" fill="#000000" fill-rule="nonzero" fill-opacity="1" /><path clip-path="url(#clip790)" d="M1217.43 1546.53 L1217.43 1568.04 L1211.57 1568.04 L1211.57 1546.72 Q1211.57 1541.66 1209.6 1539.14 Q1207.63 1536.63 1203.68 1536.63 Q1198.94 1536.63 1196.2 1539.65 Q1193.46 1542.68 1193.46 1547.9 L1193.46 1568.04 L1187.57 1568.04 L1187.57 1532.4 L1193.46 1532.4 L1193.46 1537.93 Q1195.56 1534.72 1198.39 1533.13 Q1201.26 1531.54 1204.98 1531.54 Q1211.13 1531.54 1214.28 1535.36 Q1217.43 1539.14 1217.43 1546.53 Z" fill="#000000" fill-rule="nonzero" fill-opacity="1" /><path clip-path="url(#clip790)" d="M1259.6 1548.76 L1259.6 1551.62 L1232.67 1551.62 Q1233.06 1557.67 1236.3 1560.85 Q1239.58 1564 1245.41 1564 Q1248.78 1564 1251.93 1563.17 Q1255.11 1562.35 1258.23 1560.69 L1258.23 1566.23 Q1255.08 1567.57 1251.77 1568.27 Q1248.46 1568.97 1245.06 1568.97 Q1236.53 1568.97 1231.53 1564 Q1226.56 1559.04 1226.56 1550.57 Q1226.56 1541.82 1231.27 1536.69 Q1236.02 1531.54 1244.04 1531.54 Q1251.23 1531.54 1255.4 1536.18 Q1259.6 1540.8 1259.6 1548.76 M1253.74 1547.04 Q1253.68 1542.23 1251.04 1539.37 Q1248.43 1536.5 1244.1 1536.5 Q1239.2 1536.5 1236.24 1539.27 Q1233.31 1542.04 1232.87 1547.07 L1253.74 1547.04 Z" fill="#000000" fill-rule="nonzero" fill-opacity="1" /><path clip-path="url(#clip790)" d="M1289.87 1537.87 Q1288.88 1537.3 1287.71 1537.04 Q1286.56 1536.76 1285.16 1536.76 Q1280.19 1536.76 1277.52 1540 Q1274.88 1543.22 1274.88 1549.27 L1274.88 1568.04 L1268.99 1568.04 L1268.99 1532.4 L1274.88 1532.4 L1274.88 1537.93 Q1276.72 1534.69 1279.68 1533.13 Q1282.65 1531.54 1286.88 1531.54 Q1287.48 1531.54 1288.22 1531.63 Q1288.95 1531.7 1289.84 1531.85 L1289.87 1537.87 Z" fill="#000000" fill-rule="nonzero" fill-opacity="1" /><path clip-path="url(#clip790)" d="M1318.32 1549.81 Q1318.32 1543.44 1315.68 1539.94 Q1313.07 1536.44 1308.33 1536.44 Q1303.62 1536.44 1300.98 1539.94 Q1298.37 1543.44 1298.37 1549.81 Q1298.37 1556.14 1300.98 1559.64 Q1303.62 1563.14 1308.33 1563.14 Q1313.07 1563.14 1315.68 1559.64 Q1318.32 1556.14 1318.32 1549.81 M1324.18 1563.62 Q1324.18 1572.72 1320.14 1577.15 Q1316.1 1581.6 1307.76 1581.6 Q1304.67 1581.6 1301.93 1581.13 Q1299.2 1580.68 1296.62 1579.72 L1296.62 1574.03 Q1299.2 1575.43 1301.71 1576.1 Q1304.22 1576.76 1306.83 1576.76 Q1312.6 1576.76 1315.46 1573.74 Q1318.32 1570.75 1318.32 1564.67 L1318.32 1561.77 Q1316.51 1564.92 1313.68 1566.48 Q1310.85 1568.04 1306.9 1568.04 Q1300.34 1568.04 1296.33 1563.05 Q1292.32 1558.05 1292.32 1549.81 Q1292.32 1541.53 1296.33 1536.53 Q1300.34 1531.54 1306.9 1531.54 Q1310.85 1531.54 1313.68 1533.1 Q1316.51 1534.66 1318.32 1537.81 L1318.32 1532.4 L1324.18 1532.4 L1324.18 1563.62 Z" fill="#000000" fill-rule="nonzero" fill-opacity="1" /><path clip-path="url(#clip790)" d="M1351.08 1571.35 Q1348.59 1577.72 1346.24 1579.66 Q1343.88 1581.6 1339.94 1581.6 L1335.26 1581.6 L1335.26 1576.7 L1338.7 1576.7 Q1341.11 1576.7 1342.45 1575.56 Q1343.79 1574.41 1345.41 1570.14 L1346.46 1567.47 L1332.04 1532.4 L1338.25 1532.4 L1349.39 1560.28 L1360.53 1532.4 L1366.74 1532.4 L1351.08 1571.35 Z" fill="#000000" fill-rule="nonzero" fill-opacity="1" /><path clip-path="url(#clip790)" d="M1409.61 1518.58 Q1405.34 1525.9 1403.28 1533.06 Q1401.21 1540.23 1401.21 1547.58 Q1401.21 1554.93 1403.28 1562.16 Q1405.38 1569.35 1409.61 1576.64 L1404.52 1576.64 Q1399.74 1569.16 1397.36 1561.93 Q1395 1554.71 1395 1547.58 Q1395 1540.48 1397.36 1533.29 Q1399.71 1526.09 1404.52 1518.58 L1409.61 1518.58 Z" fill="#000000" fill-rule="nonzero" fill-opacity="1" /><path clip-path="url(#clip790)" d="M1421.23 1520.52 L1430.81 1520.52 L1442.93 1552.86 L1455.12 1520.52 L1464.7 1520.52 L1464.7 1568.04 L1458.43 1568.04 L1458.43 1526.32 L1446.18 1558.91 L1439.72 1558.91 L1427.46 1526.32 L1427.46 1568.04 L1421.23 1568.04 L1421.23 1520.52 Z" fill="#000000" fill-rule="nonzero" fill-opacity="1" /><path clip-path="url(#clip790)" d="M1507.7 1548.76 L1507.7 1551.62 L1480.78 1551.62 Q1481.16 1557.67 1484.41 1560.85 Q1487.68 1564 1493.51 1564 Q1496.88 1564 1500.03 1563.17 Q1503.22 1562.35 1506.34 1560.69 L1506.34 1566.23 Q1503.18 1567.57 1499.87 1568.27 Q1496.56 1568.97 1493.16 1568.97 Q1484.63 1568.97 1479.63 1564 Q1474.67 1559.04 1474.67 1550.57 Q1474.67 1541.82 1479.38 1536.69 Q1484.12 1531.54 1492.14 1531.54 Q1499.33 1531.54 1503.5 1536.18 Q1507.7 1540.8 1507.7 1548.76 M1501.85 1547.04 Q1501.78 1542.23 1499.14 1539.37 Q1496.53 1536.5 1492.2 1536.5 Q1487.3 1536.5 1484.34 1539.27 Q1481.41 1542.04 1480.97 1547.07 L1501.85 1547.04 Z" fill="#000000" fill-rule="nonzero" fill-opacity="1" /><path clip-path="url(#clip790)" d="M1529.83 1568.04 L1511.68 1520.52 L1518.4 1520.52 L1533.45 1560.53 L1548.54 1520.52 L1555.22 1520.52 L1537.11 1568.04 L1529.83 1568.04 Z" fill="#000000" fill-rule="nonzero" fill-opacity="1" /><path clip-path="url(#clip790)" d="M1560.99 1518.58 L1566.08 1518.58 Q1570.85 1526.09 1573.21 1533.29 Q1575.59 1540.48 1575.59 1547.58 Q1575.59 1554.71 1573.21 1561.93 Q1570.85 1569.16 1566.08 1576.64 L1560.99 1576.64 Q1565.22 1569.35 1567.29 1562.16 Q1569.39 1554.93 1569.39 1547.58 Q1569.39 1540.23 1567.29 1533.06 Q1565.22 1525.9 1560.99 1518.58 Z" fill="#000000" fill-rule="nonzero" fill-opacity="1" /><polyline clip-path="url(#clip790)" style="stroke:#000000; stroke-linecap:round; stroke-linejoin:round; stroke-width:4; stroke-opacity:1; fill:none" points="369.703,1423.18 369.703,123.472 "/>
<polyline clip-path="url(#clip790)" style="stroke:#000000; stroke-linecap:round; stroke-linejoin:round; stroke-width:4; stroke-opacity:1; fill:none" points="369.703,1386.4 388.601,1386.4 "/>
<polyline clip-path="url(#clip790)" style="stroke:#000000; stroke-linecap:round; stroke-linejoin:round; stroke-width:4; stroke-opacity:1; fill:none" points="369.703,1100.88 388.601,1100.88 "/>
<polyline clip-path="url(#clip790)" style="stroke:#000000; stroke-linecap:round; stroke-linejoin:round; stroke-width:4; stroke-opacity:1; fill:none" points="369.703,815.365 388.601,815.365 "/>
<polyline clip-path="url(#clip790)" style="stroke:#000000; stroke-linecap:round; stroke-linejoin:round; stroke-width:4; stroke-opacity:1; fill:none" points="369.703,529.85 388.601,529.85 "/>
<polyline clip-path="url(#clip790)" style="stroke:#000000; stroke-linecap:round; stroke-linejoin:round; stroke-width:4; stroke-opacity:1; fill:none" points="369.703,244.335 388.601,244.335 "/>
<path clip-path="url(#clip790)" d="M321.759 1372.19 Q318.148 1372.19 316.319 1375.76 Q314.514 1379.3 314.514 1386.43 Q314.514 1393.54 316.319 1397.1 Q318.148 1400.64 321.759 1400.64 Q325.393 1400.64 327.199 1397.1 Q329.028 1393.54 329.028 1386.43 Q329.028 1379.3 327.199 1375.76 Q325.393 1372.19 321.759 1372.19 M321.759 1368.49 Q327.569 1368.49 330.625 1373.1 Q333.703 1377.68 333.703 1386.43 Q333.703 1395.16 330.625 1399.76 Q327.569 1404.35 321.759 1404.35 Q315.949 1404.35 312.87 1399.76 Q309.815 1395.16 309.815 1386.43 Q309.815 1377.68 312.87 1373.1 Q315.949 1368.49 321.759 1368.49 Z" fill="#000000" fill-rule="nonzero" fill-opacity="1" /><path clip-path="url(#clip790)" d="M119.885 1120.67 L136.204 1120.67 L136.204 1124.61 L114.26 1124.61 L114.26 1120.67 Q116.922 1117.92 121.505 1113.29 Q126.112 1108.64 127.292 1107.29 Q129.538 1104.77 130.417 1103.03 Q131.32 1101.27 131.32 1099.59 Q131.32 1096.83 129.376 1095.09 Q127.455 1093.36 124.353 1093.36 Q122.154 1093.36 119.7 1094.12 Q117.269 1094.89 114.492 1096.44 L114.492 1091.71 Q117.316 1090.58 119.769 1090 Q122.223 1089.42 124.26 1089.42 Q129.63 1089.42 132.825 1092.11 Q136.019 1094.79 136.019 1099.28 Q136.019 1101.41 135.209 1103.34 Q134.422 1105.23 132.316 1107.83 Q131.737 1108.5 128.635 1111.71 Q125.533 1114.91 119.885 1120.67 Z" fill="#000000" fill-rule="nonzero" fill-opacity="1" /><path clip-path="url(#clip790)" d="M146.019 1118.73 L150.903 1118.73 L150.903 1124.61 L146.019 1124.61 L146.019 1118.73 Z" fill="#000000" fill-rule="nonzero" fill-opacity="1" /><path clip-path="url(#clip790)" d="M161.135 1090.05 L179.491 1090.05 L179.491 1093.98 L165.417 1093.98 L165.417 1102.46 Q166.436 1102.11 167.454 1101.95 Q168.473 1101.76 169.491 1101.76 Q175.278 1101.76 178.658 1104.93 Q182.038 1108.1 182.038 1113.52 Q182.038 1119.1 178.565 1122.2 Q175.093 1125.28 168.774 1125.28 Q166.598 1125.28 164.329 1124.91 Q162.084 1124.54 159.677 1123.8 L159.677 1119.1 Q161.76 1120.23 163.982 1120.79 Q166.204 1121.34 168.681 1121.34 Q172.686 1121.34 175.024 1119.24 Q177.362 1117.13 177.362 1113.52 Q177.362 1109.91 175.024 1107.8 Q172.686 1105.7 168.681 1105.7 Q166.806 1105.7 164.931 1106.11 Q163.079 1106.53 161.135 1107.41 L161.135 1090.05 Z" fill="#000000" fill-rule="nonzero" fill-opacity="1" /><path clip-path="url(#clip790)" d="M201.25 1093.13 Q197.639 1093.13 195.811 1096.69 Q194.005 1100.23 194.005 1107.36 Q194.005 1114.47 195.811 1118.03 Q197.639 1121.58 201.25 1121.58 Q204.885 1121.58 206.69 1118.03 Q208.519 1114.47 208.519 1107.36 Q208.519 1100.23 206.69 1096.69 Q204.885 1093.13 201.25 1093.13 M201.25 1089.42 Q207.061 1089.42 210.116 1094.03 Q213.195 1098.61 213.195 1107.36 Q213.195 1116.09 210.116 1120.7 Q207.061 1125.28 201.25 1125.28 Q195.44 1125.28 192.362 1120.7 Q189.306 1116.09 189.306 1107.36 Q189.306 1098.61 192.362 1094.03 Q195.44 1089.42 201.25 1089.42 Z" fill="#000000" fill-rule="nonzero" fill-opacity="1" /><path clip-path="url(#clip790)" d="M249.584 1099.15 L239.005 1109.77 L249.584 1120.35 L246.829 1123.15 L236.204 1112.52 L225.579 1123.15 L222.848 1120.35 L233.403 1109.77 L222.848 1099.15 L225.579 1096.34 L236.204 1106.97 L246.829 1096.34 L249.584 1099.15 Z" fill="#000000" fill-rule="nonzero" fill-opacity="1" /><path clip-path="url(#clip790)" d="M261.945 1120.67 L269.583 1120.67 L269.583 1094.31 L261.273 1095.97 L261.273 1091.71 L269.537 1090.05 L274.213 1090.05 L274.213 1120.67 L281.852 1120.67 L281.852 1124.61 L261.945 1124.61 L261.945 1120.67 Z" fill="#000000" fill-rule="nonzero" fill-opacity="1" /><path clip-path="url(#clip790)" d="M301.296 1093.13 Q297.685 1093.13 295.856 1096.69 Q294.051 1100.23 294.051 1107.36 Q294.051 1114.47 295.856 1118.03 Q297.685 1121.58 301.296 1121.58 Q304.93 1121.58 306.736 1118.03 Q308.565 1114.47 308.565 1107.36 Q308.565 1100.23 306.736 1096.69 Q304.93 1093.13 301.296 1093.13 M301.296 1089.42 Q307.106 1089.42 310.162 1094.03 Q313.241 1098.61 313.241 1107.36 Q313.241 1116.09 310.162 1120.7 Q307.106 1125.28 301.296 1125.28 Q295.486 1125.28 292.407 1120.7 Q289.352 1116.09 289.352 1107.36 Q289.352 1098.61 292.407 1094.03 Q295.486 1089.42 301.296 1089.42 Z" fill="#000000" fill-rule="nonzero" fill-opacity="1" /><path clip-path="url(#clip790)" d="M325.917 1072.43 L316.325 1087.42 L325.917 1087.42 L325.917 1072.43 M324.92 1069.12 L329.697 1069.12 L329.697 1087.42 L333.703 1087.42 L333.703 1090.58 L329.697 1090.58 L329.697 1097.2 L325.917 1097.2 L325.917 1090.58 L313.241 1090.58 L313.241 1086.91 L324.92 1069.12 Z" fill="#000000" fill-rule="nonzero" fill-opacity="1" /><path clip-path="url(#clip790)" d="M115.904 804.533 L134.26 804.533 L134.26 808.468 L120.186 808.468 L120.186 816.94 Q121.205 816.593 122.223 816.431 Q123.242 816.246 124.26 816.246 Q130.047 816.246 133.427 819.417 Q136.806 822.588 136.806 828.005 Q136.806 833.584 133.334 836.685 Q129.862 839.764 123.543 839.764 Q121.367 839.764 119.098 839.394 Q116.853 839.023 114.445 838.283 L114.445 833.584 Q116.529 834.718 118.751 835.273 Q120.973 835.829 123.45 835.829 Q127.455 835.829 129.792 833.723 Q132.13 831.616 132.13 828.005 Q132.13 824.394 129.792 822.287 Q127.455 820.181 123.45 820.181 Q121.575 820.181 119.7 820.598 Q117.848 821.014 115.904 821.894 L115.904 804.533 Z" fill="#000000" fill-rule="nonzero" fill-opacity="1" /><path clip-path="url(#clip790)" d="M146.019 833.213 L150.903 833.213 L150.903 839.093 L146.019 839.093 L146.019 833.213 Z" fill="#000000" fill-rule="nonzero" fill-opacity="1" /><path clip-path="url(#clip790)" d="M171.089 807.612 Q167.477 807.612 165.649 811.176 Q163.843 814.718 163.843 821.848 Q163.843 828.954 165.649 832.519 Q167.477 836.06 171.089 836.06 Q174.723 836.06 176.528 832.519 Q178.357 828.954 178.357 821.848 Q178.357 814.718 176.528 811.176 Q174.723 807.612 171.089 807.612 M171.089 803.908 Q176.899 803.908 179.954 808.514 Q183.033 813.098 183.033 821.848 Q183.033 830.574 179.954 835.181 Q176.899 839.764 171.089 839.764 Q165.278 839.764 162.2 835.181 Q159.144 830.574 159.144 821.848 Q159.144 813.098 162.2 808.514 Q165.278 803.908 171.089 803.908 Z" fill="#000000" fill-rule="nonzero" fill-opacity="1" /><path clip-path="url(#clip790)" d="M201.25 807.612 Q197.639 807.612 195.811 811.176 Q194.005 814.718 194.005 821.848 Q194.005 828.954 195.811 832.519 Q197.639 836.06 201.25 836.06 Q204.885 836.06 206.69 832.519 Q208.519 828.954 208.519 821.848 Q208.519 814.718 206.69 811.176 Q204.885 807.612 201.25 807.612 M201.25 803.908 Q207.061 803.908 210.116 808.514 Q213.195 813.098 213.195 821.848 Q213.195 830.574 210.116 835.181 Q207.061 839.764 201.25 839.764 Q195.44 839.764 192.362 835.181 Q189.306 830.574 189.306 821.848 Q189.306 813.098 192.362 808.514 Q195.44 803.908 201.25 803.908 Z" fill="#000000" fill-rule="nonzero" fill-opacity="1" /><path clip-path="url(#clip790)" d="M249.584 813.63 L239.005 824.255 L249.584 834.834 L246.829 837.635 L236.204 827.01 L225.579 837.635 L222.848 834.834 L233.403 824.255 L222.848 813.63 L225.579 810.829 L236.204 821.454 L246.829 810.829 L249.584 813.63 Z" fill="#000000" fill-rule="nonzero" fill-opacity="1" /><path clip-path="url(#clip790)" d="M261.945 835.158 L269.583 835.158 L269.583 808.792 L261.273 810.459 L261.273 806.2 L269.537 804.533 L274.213 804.533 L274.213 835.158 L281.852 835.158 L281.852 839.093 L261.945 839.093 L261.945 835.158 Z" fill="#000000" fill-rule="nonzero" fill-opacity="1" /><path clip-path="url(#clip790)" d="M301.296 807.612 Q297.685 807.612 295.856 811.176 Q294.051 814.718 294.051 821.848 Q294.051 828.954 295.856 832.519 Q297.685 836.06 301.296 836.06 Q304.93 836.06 306.736 832.519 Q308.565 828.954 308.565 821.848 Q308.565 814.718 306.736 811.176 Q304.93 807.612 301.296 807.612 M301.296 803.908 Q307.106 803.908 310.162 808.514 Q313.241 813.098 313.241 821.848 Q313.241 830.574 310.162 835.181 Q307.106 839.764 301.296 839.764 Q295.486 839.764 292.407 835.181 Q289.352 830.574 289.352 821.848 Q289.352 813.098 292.407 808.514 Q295.486 803.908 301.296 803.908 Z" fill="#000000" fill-rule="nonzero" fill-opacity="1" /><path clip-path="url(#clip790)" d="M325.917 786.913 L316.325 801.902 L325.917 801.902 L325.917 786.913 M324.92 783.602 L329.697 783.602 L329.697 801.902 L333.703 801.902 L333.703 805.062 L329.697 805.062 L329.697 811.682 L325.917 811.682 L325.917 805.062 L313.241 805.062 L313.241 801.395 L324.92 783.602 Z" fill="#000000" fill-rule="nonzero" fill-opacity="1" /><path clip-path="url(#clip790)" d="M114.677 519.018 L136.899 519.018 L136.899 521.008 L124.353 553.578 L119.468 553.578 L131.274 522.953 L114.677 522.953 L114.677 519.018 Z" fill="#000000" fill-rule="nonzero" fill-opacity="1" /><path clip-path="url(#clip790)" d="M146.019 547.698 L150.903 547.698 L150.903 553.578 L146.019 553.578 L146.019 547.698 Z" fill="#000000" fill-rule="nonzero" fill-opacity="1" /><path clip-path="url(#clip790)" d="M161.135 519.018 L179.491 519.018 L179.491 522.953 L165.417 522.953 L165.417 531.425 Q166.436 531.078 167.454 530.916 Q168.473 530.731 169.491 530.731 Q175.278 530.731 178.658 533.902 Q182.038 537.073 182.038 542.49 Q182.038 548.068 178.565 551.17 Q175.093 554.249 168.774 554.249 Q166.598 554.249 164.329 553.879 Q162.084 553.508 159.677 552.767 L159.677 548.068 Q161.76 549.203 163.982 549.758 Q166.204 550.314 168.681 550.314 Q172.686 550.314 175.024 548.207 Q177.362 546.101 177.362 542.49 Q177.362 538.879 175.024 536.772 Q172.686 534.666 168.681 534.666 Q166.806 534.666 164.931 535.082 Q163.079 535.499 161.135 536.379 L161.135 519.018 Z" fill="#000000" fill-rule="nonzero" fill-opacity="1" /><path clip-path="url(#clip790)" d="M201.25 522.096 Q197.639 522.096 195.811 525.661 Q194.005 529.203 194.005 536.332 Q194.005 543.439 195.811 547.004 Q197.639 550.545 201.25 550.545 Q204.885 550.545 206.69 547.004 Q208.519 543.439 208.519 536.332 Q208.519 529.203 206.69 525.661 Q204.885 522.096 201.25 522.096 M201.25 518.393 Q207.061 518.393 210.116 522.999 Q213.195 527.582 213.195 536.332 Q213.195 545.059 210.116 549.666 Q207.061 554.249 201.25 554.249 Q195.44 554.249 192.362 549.666 Q189.306 545.059 189.306 536.332 Q189.306 527.582 192.362 522.999 Q195.44 518.393 201.25 518.393 Z" fill="#000000" fill-rule="nonzero" fill-opacity="1" /><path clip-path="url(#clip790)" d="M249.584 528.115 L239.005 538.74 L249.584 549.318 L246.829 552.119 L236.204 541.494 L225.579 552.119 L222.848 549.318 L233.403 538.74 L222.848 528.115 L225.579 525.314 L236.204 535.939 L246.829 525.314 L249.584 528.115 Z" fill="#000000" fill-rule="nonzero" fill-opacity="1" /><path clip-path="url(#clip790)" d="M261.945 549.642 L269.583 549.642 L269.583 523.277 L261.273 524.944 L261.273 520.684 L269.537 519.018 L274.213 519.018 L274.213 549.642 L281.852 549.642 L281.852 553.578 L261.945 553.578 L261.945 549.642 Z" fill="#000000" fill-rule="nonzero" fill-opacity="1" /><path clip-path="url(#clip790)" d="M301.296 522.096 Q297.685 522.096 295.856 525.661 Q294.051 529.203 294.051 536.332 Q294.051 543.439 295.856 547.004 Q297.685 550.545 301.296 550.545 Q304.93 550.545 306.736 547.004 Q308.565 543.439 308.565 536.332 Q308.565 529.203 306.736 525.661 Q304.93 522.096 301.296 522.096 M301.296 518.393 Q307.106 518.393 310.162 522.999 Q313.241 527.582 313.241 536.332 Q313.241 545.059 310.162 549.666 Q307.106 554.249 301.296 554.249 Q295.486 554.249 292.407 549.666 Q289.352 545.059 289.352 536.332 Q289.352 527.582 292.407 522.999 Q295.486 518.393 301.296 518.393 Z" fill="#000000" fill-rule="nonzero" fill-opacity="1" /><path clip-path="url(#clip790)" d="M325.917 501.397 L316.325 516.387 L325.917 516.387 L325.917 501.397 M324.92 498.087 L329.697 498.087 L329.697 516.387 L333.703 516.387 L333.703 519.547 L329.697 519.547 L329.697 526.167 L325.917 526.167 L325.917 519.547 L313.241 519.547 L313.241 515.879 L324.92 498.087 Z" fill="#000000" fill-rule="nonzero" fill-opacity="1" /><path clip-path="url(#clip790)" d="M118.962 264.127 L126.601 264.127 L126.601 237.762 L118.291 239.428 L118.291 235.169 L126.555 233.502 L131.231 233.502 L131.231 264.127 L138.869 264.127 L138.869 268.062 L118.962 268.062 L118.962 264.127 Z" fill="#000000" fill-rule="nonzero" fill-opacity="1" /><path clip-path="url(#clip790)" d="M148.314 262.183 L153.198 262.183 L153.198 268.062 L148.314 268.062 L148.314 262.183 Z" fill="#000000" fill-rule="nonzero" fill-opacity="1" /><path clip-path="url(#clip790)" d="M173.383 236.581 Q169.772 236.581 167.943 240.146 Q166.138 243.688 166.138 250.817 Q166.138 257.924 167.943 261.488 Q169.772 265.03 173.383 265.03 Q177.017 265.03 178.823 261.488 Q180.652 257.924 180.652 250.817 Q180.652 243.688 178.823 240.146 Q177.017 236.581 173.383 236.581 M173.383 232.877 Q179.193 232.877 182.249 237.484 Q185.327 242.067 185.327 250.817 Q185.327 259.544 182.249 264.15 Q179.193 268.734 173.383 268.734 Q167.573 268.734 164.494 264.15 Q161.439 259.544 161.439 250.817 Q161.439 242.067 164.494 237.484 Q167.573 232.877 173.383 232.877 Z" fill="#000000" fill-rule="nonzero" fill-opacity="1" /><path clip-path="url(#clip790)" d="M203.545 236.581 Q199.934 236.581 198.105 240.146 Q196.3 243.688 196.3 250.817 Q196.3 257.924 198.105 261.488 Q199.934 265.03 203.545 265.03 Q207.179 265.03 208.985 261.488 Q210.813 257.924 210.813 250.817 Q210.813 243.688 208.985 240.146 Q207.179 236.581 203.545 236.581 M203.545 232.877 Q209.355 232.877 212.411 237.484 Q215.489 242.067 215.489 250.817 Q215.489 259.544 212.411 264.15 Q209.355 268.734 203.545 268.734 Q197.735 268.734 194.656 264.15 Q191.601 259.544 191.601 250.817 Q191.601 242.067 194.656 237.484 Q197.735 232.877 203.545 232.877 Z" fill="#000000" fill-rule="nonzero" fill-opacity="1" /><path clip-path="url(#clip790)" d="M251.878 242.6 L241.299 253.225 L251.878 263.803 L249.123 266.604 L238.498 255.979 L227.874 266.604 L225.142 263.803 L235.698 253.225 L225.142 242.6 L227.874 239.799 L238.498 250.424 L249.123 239.799 L251.878 242.6 Z" fill="#000000" fill-rule="nonzero" fill-opacity="1" /><path clip-path="url(#clip790)" d="M264.239 264.127 L271.878 264.127 L271.878 237.762 L263.568 239.428 L263.568 235.169 L271.832 233.502 L276.508 233.502 L276.508 264.127 L284.146 264.127 L284.146 268.062 L264.239 268.062 L264.239 264.127 Z" fill="#000000" fill-rule="nonzero" fill-opacity="1" /><path clip-path="url(#clip790)" d="M303.591 236.581 Q299.98 236.581 298.151 240.146 Q296.345 243.688 296.345 250.817 Q296.345 257.924 298.151 261.488 Q299.98 265.03 303.591 265.03 Q307.225 265.03 309.031 261.488 Q310.859 257.924 310.859 250.817 Q310.859 243.688 309.031 240.146 Q307.225 236.581 303.591 236.581 M303.591 232.877 Q309.401 232.877 312.456 237.484 Q315.535 242.067 315.535 250.817 Q315.535 259.544 312.456 264.15 Q309.401 268.734 303.591 268.734 Q297.781 268.734 294.702 264.15 Q291.646 259.544 291.646 250.817 Q291.646 242.067 294.702 237.484 Q297.781 232.877 303.591 232.877 Z" fill="#000000" fill-rule="nonzero" fill-opacity="1" /><path clip-path="url(#clip790)" d="M316.72 212.572 L331.635 212.572 L331.635 215.769 L320.199 215.769 L320.199 222.653 Q321.027 222.371 321.855 222.239 Q322.682 222.089 323.51 222.089 Q328.212 222.089 330.957 224.665 Q333.703 227.242 333.703 231.643 Q333.703 236.176 330.882 238.696 Q328.061 241.197 322.927 241.197 Q321.159 241.197 319.315 240.897 Q317.491 240.596 315.535 239.994 L315.535 236.176 Q317.228 237.097 319.033 237.549 Q320.839 238 322.851 238 Q326.105 238 328.005 236.289 Q329.904 234.577 329.904 231.643 Q329.904 228.709 328.005 226.998 Q326.105 225.286 322.851 225.286 Q321.328 225.286 319.804 225.625 Q318.3 225.963 316.72 226.678 L316.72 212.572 Z" fill="#000000" fill-rule="nonzero" fill-opacity="1" /><path clip-path="url(#clip790)" d="M20.1444 845.354 L26.9239 845.354 Q23.9002 848.6 22.4043 852.293 Q20.9083 855.953 20.9083 860.091 Q20.9083 868.239 25.9054 872.567 Q30.8707 876.896 40.2919 876.896 Q49.6813 876.896 54.6784 872.567 Q59.6436 868.239 59.6436 860.091 Q59.6436 855.953 58.1477 852.293 Q56.6518 848.6 53.6281 845.354 L60.3439 845.354 Q62.6355 848.728 63.7814 852.515 Q64.9272 856.271 64.9272 860.473 Q64.9272 871.262 58.3387 877.469 Q51.7183 883.676 40.2919 883.676 Q28.8336 883.676 22.2451 877.469 Q15.6248 871.262 15.6248 860.473 Q15.6248 856.207 16.7706 852.452 Q17.8846 848.664 20.1444 845.354 Z" fill="#000000" fill-rule="nonzero" fill-opacity="1" /><path clip-path="url(#clip790)" d="M32.4621 821.864 Q32.4621 826.575 36.1542 829.312 Q39.8145 832.05 46.212 832.05 Q52.6095 832.05 56.3017 829.344 Q59.9619 826.607 59.9619 821.864 Q59.9619 817.186 56.2698 814.448 Q52.5777 811.711 46.212 811.711 Q39.8781 811.711 36.186 814.448 Q32.4621 817.186 32.4621 821.864 M27.4968 821.864 Q27.4968 814.226 32.4621 809.865 Q37.4273 805.505 46.212 805.505 Q54.9649 805.505 59.9619 809.865 Q64.9272 814.226 64.9272 821.864 Q64.9272 829.535 59.9619 833.896 Q54.9649 838.224 46.212 838.224 Q37.4273 838.224 32.4621 833.896 Q27.4968 829.535 27.4968 821.864 Z" fill="#000000" fill-rule="nonzero" fill-opacity="1" /><path clip-path="url(#clip790)" d="M49.9359 796.402 L28.3562 796.402 L28.3562 790.545 L49.7131 790.545 Q54.7739 790.545 57.3202 788.572 Q59.8346 786.598 59.8346 782.652 Q59.8346 777.909 56.8109 775.172 Q53.7872 772.403 48.5673 772.403 L28.3562 772.403 L28.3562 766.547 L64.0042 766.547 L64.0042 772.403 L58.5296 772.403 Q61.7762 774.535 63.3676 777.368 Q64.9272 780.169 64.9272 783.893 Q64.9272 790.036 61.1078 793.219 Q57.2883 796.402 49.9359 796.402 M27.4968 781.665 L27.4968 781.665 Z" fill="#000000" fill-rule="nonzero" fill-opacity="1" /><path clip-path="url(#clip790)" d="M42.4881 724.851 L64.0042 724.851 L64.0042 730.708 L42.679 730.708 Q37.6183 730.708 35.1038 732.681 Q32.5894 734.654 32.5894 738.601 Q32.5894 743.344 35.6131 746.081 Q38.6368 748.818 43.8567 748.818 L64.0042 748.818 L64.0042 754.706 L28.3562 754.706 L28.3562 748.818 L33.8944 748.818 Q30.6797 746.717 29.0883 743.885 Q27.4968 741.02 27.4968 737.296 Q27.4968 731.153 31.3163 728.002 Q35.1038 724.851 42.4881 724.851 Z" fill="#000000" fill-rule="nonzero" fill-opacity="1" /><path clip-path="url(#clip790)" d="M18.2347 707.377 L28.3562 707.377 L28.3562 695.314 L32.9077 695.314 L32.9077 707.377 L52.2594 707.377 Q56.6199 707.377 57.8613 706.2 Q59.1026 704.99 59.1026 701.33 L59.1026 695.314 L64.0042 695.314 L64.0042 701.33 Q64.0042 708.109 61.4897 710.687 Q58.9434 713.266 52.2594 713.266 L32.9077 713.266 L32.9077 717.562 L28.3562 717.562 L28.3562 713.266 L18.2347 713.266 L18.2347 707.377 Z" fill="#000000" fill-rule="nonzero" fill-opacity="1" /><path clip-path="url(#clip790)" d="M29.4065 664.886 L34.9447 664.886 Q33.6716 667.369 33.035 670.042 Q32.3984 672.716 32.3984 675.581 Q32.3984 679.941 33.7352 682.137 Q35.072 684.302 37.7456 684.302 Q39.7826 684.302 40.9603 682.742 Q42.1061 681.182 43.1565 676.472 L43.6021 674.467 Q44.9389 668.228 47.3897 665.618 Q49.8086 662.976 54.1691 662.976 Q59.1344 662.976 62.0308 666.923 Q64.9272 670.838 64.9272 677.713 Q64.9272 680.578 64.3543 683.697 Q63.8132 686.784 62.6992 690.222 L56.6518 690.222 Q58.3387 686.975 59.198 683.824 Q60.0256 680.673 60.0256 677.586 Q60.0256 673.448 58.6251 671.22 Q57.1929 668.992 54.6147 668.992 Q52.2276 668.992 50.9545 670.615 Q49.6813 672.207 48.5037 677.649 L48.0262 679.686 Q46.8804 685.129 44.5251 687.548 Q42.138 689.967 38.0002 689.967 Q32.9713 689.967 30.2341 686.402 Q27.4968 682.837 27.4968 676.281 Q27.4968 673.034 27.9743 670.17 Q28.4517 667.305 29.4065 664.886 Z" fill="#000000" fill-rule="nonzero" fill-opacity="1" /><path clip-path="url(#clip790)" d="M949.82 12.096 L988.06 12.096 L988.06 18.9825 L958.003 18.9825 L958.003 36.8875 L986.805 36.8875 L986.805 43.7741 L958.003 43.7741 L958.003 65.6895 L988.79 65.6895 L988.79 72.576 L949.82 72.576 L949.82 12.096 Z" fill="#000000" fill-rule="nonzero" fill-opacity="1" /><path clip-path="url(#clip790)" d="M1001.91 9.54393 L1009.37 9.54393 L1009.37 72.576 L1001.91 72.576 L1001.91 9.54393 Z" fill="#000000" fill-rule="nonzero" fill-opacity="1" /><path clip-path="url(#clip790)" d="M1045.58 49.7694 Q1036.55 49.7694 1033.07 51.8354 Q1029.58 53.9013 1029.58 58.8839 Q1029.58 62.8538 1032.17 65.2034 Q1034.81 67.5124 1039.3 67.5124 Q1045.5 67.5124 1049.23 63.1374 Q1053 58.7219 1053 51.4303 L1053 49.7694 L1045.58 49.7694 M1060.45 46.6907 L1060.45 72.576 L1053 72.576 L1053 65.6895 Q1050.44 69.8214 1046.64 71.8063 Q1042.83 73.7508 1037.32 73.7508 Q1030.35 73.7508 1026.22 69.8619 Q1022.13 65.9325 1022.13 59.3701 Q1022.13 51.7138 1027.23 47.825 Q1032.38 43.9361 1042.55 43.9361 L1053 43.9361 L1053 43.2069 Q1053 38.0623 1049.59 35.2672 Q1046.23 32.4315 1040.11 32.4315 Q1036.23 32.4315 1032.54 33.3632 Q1028.85 34.295 1025.45 36.1584 L1025.45 29.2718 Q1029.54 27.692 1033.39 26.9223 Q1037.24 26.1121 1040.88 26.1121 Q1050.73 26.1121 1055.59 31.2163 Q1060.45 36.3204 1060.45 46.6907 Z" fill="#000000" fill-rule="nonzero" fill-opacity="1" /><path clip-path="url(#clip790)" d="M1104.73 28.5427 L1104.73 35.5912 Q1101.57 33.9709 1098.16 33.1607 Q1094.76 32.3505 1091.12 32.3505 Q1085.57 32.3505 1082.77 34.0519 Q1080.02 35.7533 1080.02 39.156 Q1080.02 41.7486 1082 43.2475 Q1083.99 44.7058 1089.98 46.0426 L1092.53 46.6097 Q1100.47 48.3111 1103.79 51.4303 Q1107.16 54.509 1107.16 60.0587 Q1107.16 66.3781 1102.13 70.0644 Q1097.15 73.7508 1088.4 73.7508 Q1084.76 73.7508 1080.79 73.0216 Q1076.86 72.3329 1072.48 70.9151 L1072.48 63.2184 Q1076.61 65.3654 1080.62 66.4591 Q1084.63 67.5124 1088.56 67.5124 Q1093.83 67.5124 1096.67 65.73 Q1099.5 63.9071 1099.5 60.6258 Q1099.5 57.5877 1097.43 55.9673 Q1095.41 54.3469 1088.48 52.8481 L1085.89 52.2405 Q1078.96 50.7821 1075.88 47.7845 Q1072.81 44.7463 1072.81 39.4801 Q1072.81 33.0797 1077.34 29.5959 Q1081.88 26.1121 1090.22 26.1121 Q1094.36 26.1121 1098 26.7198 Q1101.65 27.3274 1104.73 28.5427 Z" fill="#000000" fill-rule="nonzero" fill-opacity="1" /><path clip-path="url(#clip790)" d="M1126.4 14.324 L1126.4 27.2059 L1141.75 27.2059 L1141.75 32.9987 L1126.4 32.9987 L1126.4 57.6282 Q1126.4 63.1779 1127.9 64.7578 Q1129.44 66.3376 1134.1 66.3376 L1141.75 66.3376 L1141.75 72.576 L1134.1 72.576 Q1125.47 72.576 1122.19 69.3758 Q1118.9 66.1351 1118.9 57.6282 L1118.9 32.9987 L1113.44 32.9987 L1113.44 27.2059 L1118.9 27.2059 L1118.9 14.324 L1126.4 14.324 Z" fill="#000000" fill-rule="nonzero" fill-opacity="1" /><path clip-path="url(#clip790)" d="M1151.55 27.2059 L1159.01 27.2059 L1159.01 72.576 L1151.55 72.576 L1151.55 27.2059 M1151.55 9.54393 L1159.01 9.54393 L1159.01 18.9825 L1151.55 18.9825 L1151.55 9.54393 Z" fill="#000000" fill-rule="nonzero" fill-opacity="1" /><path clip-path="url(#clip790)" d="M1207.25 28.9478 L1207.25 35.9153 Q1204.1 34.1734 1200.89 33.3227 Q1197.74 32.4315 1194.49 32.4315 Q1187.24 32.4315 1183.23 37.0496 Q1179.22 41.6271 1179.22 49.9314 Q1179.22 58.2358 1183.23 62.8538 Q1187.24 67.4314 1194.49 67.4314 Q1197.74 67.4314 1200.89 66.5807 Q1204.1 65.6895 1207.25 63.9476 L1207.25 70.8341 Q1204.14 72.2924 1200.77 73.0216 Q1197.45 73.7508 1193.68 73.7508 Q1183.44 73.7508 1177.4 67.3098 Q1171.36 60.8689 1171.36 49.9314 Q1171.36 38.832 1177.44 32.472 Q1183.56 26.1121 1194.17 26.1121 Q1197.61 26.1121 1200.89 26.8413 Q1204.18 27.5299 1207.25 28.9478 Z" fill="#000000" fill-rule="nonzero" fill-opacity="1" /><path clip-path="url(#clip790)" d="M1285.4 48.0275 L1285.4 51.6733 L1251.13 51.6733 Q1251.61 59.3701 1255.74 63.421 Q1259.92 67.4314 1267.33 67.4314 Q1271.62 67.4314 1275.63 66.3781 Q1279.68 65.3249 1283.65 63.2184 L1283.65 70.267 Q1279.64 71.9684 1275.43 72.8596 Q1271.22 73.7508 1266.88 73.7508 Q1256.03 73.7508 1249.67 67.4314 Q1243.35 61.1119 1243.35 50.3365 Q1243.35 39.1965 1249.34 32.6746 Q1255.38 26.1121 1265.59 26.1121 Q1274.74 26.1121 1280.05 32.0264 Q1285.4 37.9003 1285.4 48.0275 M1277.94 45.84 Q1277.86 39.7232 1274.5 36.0774 Q1271.18 32.4315 1265.67 32.4315 Q1259.43 32.4315 1255.66 35.9558 Q1251.94 39.4801 1251.37 45.8805 L1277.94 45.84 Z" fill="#000000" fill-rule="nonzero" fill-opacity="1" /><path clip-path="url(#clip790)" d="M1333.89 27.2059 L1317.48 49.2833 L1334.74 72.576 L1325.95 72.576 L1312.74 54.752 L1299.53 72.576 L1290.74 72.576 L1308.37 48.8377 L1292.24 27.2059 L1301.03 27.2059 L1313.06 43.369 L1325.1 27.2059 L1333.89 27.2059 Z" fill="#000000" fill-rule="nonzero" fill-opacity="1" /><path clip-path="url(#clip790)" d="M1345.27 27.2059 L1352.72 27.2059 L1352.72 72.576 L1345.27 72.576 L1345.27 27.2059 M1345.27 9.54393 L1352.72 9.54393 L1352.72 18.9825 L1345.27 18.9825 L1345.27 9.54393 Z" fill="#000000" fill-rule="nonzero" fill-opacity="1" /><path clip-path="url(#clip790)" d="M1375.69 14.324 L1375.69 27.2059 L1391.04 27.2059 L1391.04 32.9987 L1375.69 32.9987 L1375.69 57.6282 Q1375.69 63.1779 1377.19 64.7578 Q1378.73 66.3376 1383.39 66.3376 L1391.04 66.3376 L1391.04 72.576 L1383.39 72.576 Q1374.76 72.576 1371.48 69.3758 Q1368.2 66.1351 1368.2 57.6282 L1368.2 32.9987 L1362.73 32.9987 L1362.73 27.2059 L1368.2 27.2059 L1368.2 14.324 L1375.69 14.324 Z" fill="#000000" fill-rule="nonzero" fill-opacity="1" /><path clip-path="url(#clip790)" d="M1466.03 48.0275 L1466.03 51.6733 L1431.76 51.6733 Q1432.24 59.3701 1436.37 63.421 Q1440.55 67.4314 1447.96 67.4314 Q1452.25 67.4314 1456.26 66.3781 Q1460.31 65.3249 1464.28 63.2184 L1464.28 70.267 Q1460.27 71.9684 1456.06 72.8596 Q1451.85 73.7508 1447.51 73.7508 Q1436.66 73.7508 1430.3 67.4314 Q1423.98 61.1119 1423.98 50.3365 Q1423.98 39.1965 1429.97 32.6746 Q1436.01 26.1121 1446.22 26.1121 Q1455.37 26.1121 1460.68 32.0264 Q1466.03 37.9003 1466.03 48.0275 M1458.57 45.84 Q1458.49 39.7232 1455.13 36.0774 Q1451.81 32.4315 1446.3 32.4315 Q1440.06 32.4315 1436.29 35.9558 Q1432.57 39.4801 1432 45.8805 L1458.57 45.84 Z" fill="#000000" fill-rule="nonzero" fill-opacity="1" /><path clip-path="url(#clip790)" d="M1515.97 45.1919 L1515.97 72.576 L1508.52 72.576 L1508.52 45.4349 Q1508.52 38.994 1506.01 35.7938 Q1503.5 32.5936 1498.47 32.5936 Q1492.44 32.5936 1488.95 36.4419 Q1485.47 40.2903 1485.47 46.9338 L1485.47 72.576 L1477.98 72.576 L1477.98 27.2059 L1485.47 27.2059 L1485.47 34.2544 Q1488.14 30.163 1491.75 28.1376 Q1495.4 26.1121 1500.14 26.1121 Q1507.95 26.1121 1511.96 30.9732 Q1515.97 35.7938 1515.97 45.1919 Z" fill="#000000" fill-rule="nonzero" fill-opacity="1" /><path clip-path="url(#clip790)" d="M1569.65 48.0275 L1569.65 51.6733 L1535.38 51.6733 Q1535.86 59.3701 1540 63.421 Q1544.17 67.4314 1551.58 67.4314 Q1555.88 67.4314 1559.89 66.3781 Q1563.94 65.3249 1567.91 63.2184 L1567.91 70.267 Q1563.9 71.9684 1559.68 72.8596 Q1555.47 73.7508 1551.14 73.7508 Q1540.28 73.7508 1533.92 67.4314 Q1527.6 61.1119 1527.6 50.3365 Q1527.6 39.1965 1533.6 32.6746 Q1539.63 26.1121 1549.84 26.1121 Q1558.99 26.1121 1564.3 32.0264 Q1569.65 37.9003 1569.65 48.0275 M1562.2 45.84 Q1562.11 39.7232 1558.75 36.0774 Q1555.43 32.4315 1549.92 32.4315 Q1543.68 32.4315 1539.92 35.9558 Q1536.19 39.4801 1535.62 45.8805 L1562.2 45.84 Z" fill="#000000" fill-rule="nonzero" fill-opacity="1" /><path clip-path="url(#clip790)" d="M1608.17 34.1734 Q1606.92 33.4443 1605.42 33.1202 Q1603.96 32.7556 1602.18 32.7556 Q1595.86 32.7556 1592.46 36.8875 Q1589.09 40.9789 1589.09 48.6757 L1589.09 72.576 L1581.6 72.576 L1581.6 27.2059 L1589.09 27.2059 L1589.09 34.2544 Q1591.44 30.1225 1595.21 28.1376 Q1598.98 26.1121 1604.36 26.1121 Q1605.13 26.1121 1606.07 26.2337 Q1607 26.3147 1608.13 26.5172 L1608.17 34.1734 Z" fill="#000000" fill-rule="nonzero" fill-opacity="1" /><path clip-path="url(#clip790)" d="M1644.39 49.3643 Q1644.39 41.2625 1641.03 36.8065 Q1637.7 32.3505 1631.67 32.3505 Q1625.67 32.3505 1622.31 36.8065 Q1618.99 41.2625 1618.99 49.3643 Q1618.99 57.4256 1622.31 61.8816 Q1625.67 66.3376 1631.67 66.3376 Q1637.7 66.3376 1641.03 61.8816 Q1644.39 57.4256 1644.39 49.3643 M1651.84 66.9452 Q1651.84 78.5308 1646.7 84.1616 Q1641.55 89.8329 1630.94 89.8329 Q1627.01 89.8329 1623.53 89.2252 Q1620.04 88.6581 1616.76 87.4428 L1616.76 80.1917 Q1620.04 81.9741 1623.24 82.8248 Q1626.44 83.6755 1629.76 83.6755 Q1637.1 83.6755 1640.74 79.8271 Q1644.39 76.0193 1644.39 68.282 L1644.39 64.5957 Q1642.08 68.6061 1638.47 70.5911 Q1634.87 72.576 1629.85 72.576 Q1621.5 72.576 1616.4 66.2161 Q1611.29 59.8562 1611.29 49.3643 Q1611.29 38.832 1616.4 32.472 Q1621.5 26.1121 1629.85 26.1121 Q1634.87 26.1121 1638.47 28.0971 Q1642.08 30.082 1644.39 34.0924 L1644.39 27.2059 L1651.84 27.2059 L1651.84 66.9452 Z" fill="#000000" fill-rule="nonzero" fill-opacity="1" /><path clip-path="url(#clip790)" d="M1667.19 27.2059 L1674.65 27.2059 L1674.65 72.576 L1667.19 72.576 L1667.19 27.2059 M1667.19 9.54393 L1674.65 9.54393 L1674.65 18.9825 L1667.19 18.9825 L1667.19 9.54393 Z" fill="#000000" fill-rule="nonzero" fill-opacity="1" /><path clip-path="url(#clip790)" d="M1729.05 48.0275 L1729.05 51.6733 L1694.78 51.6733 Q1695.27 59.3701 1699.4 63.421 Q1703.57 67.4314 1710.98 67.4314 Q1715.28 67.4314 1719.29 66.3781 Q1723.34 65.3249 1727.31 63.2184 L1727.31 70.267 Q1723.3 71.9684 1719.09 72.8596 Q1714.87 73.7508 1710.54 73.7508 Q1699.68 73.7508 1693.32 67.4314 Q1687 61.1119 1687 50.3365 Q1687 39.1965 1693 32.6746 Q1699.03 26.1121 1709.24 26.1121 Q1718.4 26.1121 1723.7 32.0264 Q1729.05 37.9003 1729.05 48.0275 M1721.6 45.84 Q1721.52 39.7232 1718.15 36.0774 Q1714.83 32.4315 1709.32 32.4315 Q1703.09 32.4315 1699.32 35.9558 Q1695.59 39.4801 1695.02 45.8805 L1721.6 45.84 Z" fill="#000000" fill-rule="nonzero" fill-opacity="1" /><path clip-path="url(#clip790)" d="M1770.21 28.5427 L1770.21 35.5912 Q1767.05 33.9709 1763.65 33.1607 Q1760.24 32.3505 1756.6 32.3505 Q1751.05 32.3505 1748.25 34.0519 Q1745.5 35.7533 1745.5 39.156 Q1745.5 41.7486 1747.48 43.2475 Q1749.47 44.7058 1755.46 46.0426 L1758.02 46.6097 Q1765.96 48.3111 1769.28 51.4303 Q1772.64 54.509 1772.64 60.0587 Q1772.64 66.3781 1767.62 70.0644 Q1762.63 73.7508 1753.88 73.7508 Q1750.24 73.7508 1746.27 73.0216 Q1742.34 72.3329 1737.96 70.9151 L1737.96 63.2184 Q1742.1 65.3654 1746.11 66.4591 Q1750.12 67.5124 1754.05 67.5124 Q1759.31 67.5124 1762.15 65.73 Q1764.98 63.9071 1764.98 60.6258 Q1764.98 57.5877 1762.92 55.9673 Q1760.89 54.3469 1753.96 52.8481 L1751.37 52.2405 Q1744.45 50.7821 1741.37 47.7845 Q1738.29 44.7463 1738.29 39.4801 Q1738.29 33.0797 1742.82 29.5959 Q1747.36 26.1121 1755.71 26.1121 Q1759.84 26.1121 1763.48 26.7198 Q1767.13 27.3274 1770.21 28.5427 Z" fill="#000000" fill-rule="nonzero" fill-opacity="1" /><polyline clip-path="url(#clip792)" style="stroke:#000000; stroke-linecap:round; stroke-linejoin:round; stroke-width:8; stroke-opacity:0.75; fill:none" points="425.828,1386.4 425.828,360.391 467.401,360.391 467.401,160.256 508.974,160.256 508.974,332.228 550.548,332.228 550.548,517.927 592.121,517.927 592.121,665.276 633.695,665.276 633.695,775.347 675.268,775.347 675.268,858.569 716.842,858.569 716.842,912.84 758.415,912.84 758.415,970.96 799.988,970.96 799.988,1012.5 841.562,1012.5 841.562,1050.79 883.135,1050.79 883.135,1077.83 924.709,1077.83 924.709,1101.59 966.282,1101.59 966.282,1124.17 1007.86,1124.17 1007.86,1146.43 1049.43,1146.43 1049.43,1164.13 1091,1164.13 1091,1180.2 1132.58,1180.2 1132.58,1194.97 1174.15,1194.97 1174.15,1204.89 1215.72,1204.89 1215.72,1216.06 1257.3,1216.06 1257.3,1228 1298.87,1228 1298.87,1240.06 1340.44,1240.06 1340.44,1247 1382.02,1247 1382.02,1254.27 1423.59,1254.27 1423.59,1264.3 1465.16,1264.3 1465.16,1269.06 1506.74,1269.06 1506.74,1277.19 1548.31,1277.19 1548.31,1282.78 1589.88,1282.78 1589.88,1289.06 1631.46,1289.06 1631.46,1296.24 1673.03,1296.24 1673.03,1299.74 1714.6,1299.74 1714.6,1302.66 1756.18,1302.66 1756.18,1309.3 1797.75,1309.3 1797.75,1315.18 1839.32,1315.18 1839.32,1321.06 1880.9,1321.06 1880.9,1324.4 1922.47,1324.4 1922.47,1330.24 1964.04,1330.24 1964.04,1336.58 2005.62,1336.58 2005.62,1342.27 2047.19,1342.27 2047.19,1347.83 2088.76,1347.83 2088.76,1354.34 2130.34,1354.34 2130.34,1361.18 2171.91,1361.18 2171.91,1368.04 2213.48,1368.04 2213.48,1375.61 2255.06,1375.61 2255.06,1383.62 2296.63,1383.62 2296.63,1386.4 "/>
<polyline clip-path="url(#clip792)" style="stroke:#0000ff; stroke-linecap:round; stroke-linejoin:round; stroke-width:8; stroke-opacity:0.75; fill:none" points="425.828,1386.4 425.828,777.369 467.401,777.369 467.401,1353.71 508.974,1353.71 508.974,1358.91 550.548,1358.91 550.548,1361.03 592.121,1361.03 592.121,1367.57 633.695,1367.57 633.695,1367.54 675.268,1367.54 675.268,1368.52 716.842,1368.52 716.842,1369.02 758.415,1369.02 758.415,1370.73 799.988,1370.73 799.988,1370.97 841.562,1370.97 841.562,1372.75 883.135,1372.75 883.135,1373.98 924.709,1373.98 924.709,1375.33 966.282,1375.33 966.282,1376.27 1007.86,1376.27 1007.86,1377.36 1049.43,1377.36 1049.43,1377.83 1091,1377.83 1091,1379.17 1132.58,1379.17 1132.58,1379.53 1174.15,1379.53 1174.15,1379.91 1215.72,1379.91 1215.72,1380.11 1257.3,1380.11 1257.3,1381.38 1298.87,1381.38 1298.87,1381.3 1340.44,1381.3 1340.44,1381.88 1382.02,1381.88 1382.02,1381.98 1423.59,1381.98 1423.59,1382.46 1465.16,1382.46 1465.16,1382.74 1506.74,1382.74 1506.74,1383.19 1548.31,1383.19 1548.31,1383.56 1589.88,1383.56 1589.88,1383.38 1631.46,1383.38 1631.46,1383.47 1673.03,1383.47 1673.03,1383.84 1714.6,1383.84 1714.6,1383.67 1756.18,1383.67 1756.18,1383.96 1797.75,1383.96 1797.75,1384.42 1839.32,1384.42 1839.32,1384.16 1880.9,1384.16 1880.9,1384.27 1922.47,1384.27 1922.47,1384.26 1964.04,1384.26 1964.04,1384.44 2005.62,1384.44 2005.62,1384.5 2047.19,1384.5 2088.76,1384.5 2088.76,1384.6 2130.34,1384.6 2130.34,1384.51 2171.91,1384.51 2171.91,1384.59 2213.48,1384.59 2213.48,1384.58 2255.06,1384.58 2255.06,1384.63 2296.63,1384.63 2296.63,1386.4 "/>
<path clip-path="url(#clip790)" d="M1645.48 322.316 L2286.65 322.316 L2286.65 166.796 L1645.48 166.796  Z" fill="#ffffff" fill-rule="evenodd" fill-opacity="1"/>
<polyline clip-path="url(#clip790)" style="stroke:#000000; stroke-linecap:round; stroke-linejoin:round; stroke-width:4; stroke-opacity:1; fill:none" points="1645.48,322.316 2286.65,322.316 2286.65,166.796 1645.48,166.796 1645.48,322.316 "/>
<polyline clip-path="url(#clip790)" style="stroke:#000000; stroke-linecap:round; stroke-linejoin:round; stroke-width:8; stroke-opacity:0.75; fill:none" points="1667.51,218.636 1799.72,218.636 "/>
<path clip-path="url(#clip790)" d="M1821.75 201.356 L1843.6 201.356 L1843.6 205.291 L1826.43 205.291 L1826.43 215.522 L1842.89 215.522 L1842.89 219.457 L1826.43 219.457 L1826.43 231.981 L1844.02 231.981 L1844.02 235.916 L1821.75 235.916 L1821.75 201.356 Z" fill="#000000" fill-rule="nonzero" fill-opacity="1" /><path clip-path="url(#clip790)" d="M1851.52 199.897 L1855.78 199.897 L1855.78 235.916 L1851.52 235.916 L1851.52 199.897 Z" fill="#000000" fill-rule="nonzero" fill-opacity="1" /><path clip-path="url(#clip790)" d="M1876.47 222.883 Q1871.31 222.883 1869.32 224.064 Q1867.33 225.244 1867.33 228.092 Q1867.33 230.36 1868.81 231.703 Q1870.32 233.022 1872.89 233.022 Q1876.43 233.022 1878.56 230.522 Q1880.71 227.999 1880.71 223.832 L1880.71 222.883 L1876.47 222.883 M1884.97 221.124 L1884.97 235.916 L1880.71 235.916 L1880.71 231.981 Q1879.25 234.342 1877.08 235.476 Q1874.9 236.587 1871.75 236.587 Q1867.77 236.587 1865.41 234.365 Q1863.07 232.119 1863.07 228.369 Q1863.07 223.994 1865.99 221.772 Q1868.93 219.55 1874.74 219.55 L1880.71 219.55 L1880.71 219.133 Q1880.71 216.194 1878.77 214.596 Q1876.84 212.976 1873.35 212.976 Q1871.13 212.976 1869.02 213.508 Q1866.91 214.041 1864.97 215.106 L1864.97 211.17 Q1867.31 210.268 1869.51 209.828 Q1871.71 209.365 1873.79 209.365 Q1879.41 209.365 1882.19 212.282 Q1884.97 215.198 1884.97 221.124 Z" fill="#000000" fill-rule="nonzero" fill-opacity="1" /><path clip-path="url(#clip790)" d="M1910.27 210.754 L1910.27 214.782 Q1908.46 213.856 1906.52 213.393 Q1904.58 212.93 1902.49 212.93 Q1899.32 212.93 1897.72 213.902 Q1896.15 214.874 1896.15 216.819 Q1896.15 218.3 1897.28 219.157 Q1898.42 219.99 1901.84 220.754 L1903.3 221.078 Q1907.84 222.05 1909.74 223.832 Q1911.66 225.592 1911.66 228.763 Q1911.66 232.374 1908.79 234.481 Q1905.94 236.587 1900.94 236.587 Q1898.86 236.587 1896.59 236.17 Q1894.34 235.777 1891.84 234.967 L1891.84 230.569 Q1894.21 231.795 1896.5 232.42 Q1898.79 233.022 1901.03 233.022 Q1904.04 233.022 1905.66 232.004 Q1907.28 230.962 1907.28 229.087 Q1907.28 227.351 1906.1 226.425 Q1904.95 225.499 1900.99 224.643 L1899.51 224.295 Q1895.55 223.462 1893.79 221.749 Q1892.03 220.013 1892.03 217.004 Q1892.03 213.346 1894.62 211.356 Q1897.21 209.365 1901.98 209.365 Q1904.34 209.365 1906.43 209.712 Q1908.51 210.059 1910.27 210.754 Z" fill="#000000" fill-rule="nonzero" fill-opacity="1" /><path clip-path="url(#clip790)" d="M1922.65 202.629 L1922.65 209.99 L1931.43 209.99 L1931.43 213.3 L1922.65 213.3 L1922.65 227.374 Q1922.65 230.545 1923.51 231.448 Q1924.39 232.351 1927.05 232.351 L1931.43 232.351 L1931.43 235.916 L1927.05 235.916 Q1922.12 235.916 1920.25 234.087 Q1918.37 232.235 1918.37 227.374 L1918.37 213.3 L1915.25 213.3 L1915.25 209.99 L1918.37 209.99 L1918.37 202.629 L1922.65 202.629 Z" fill="#000000" fill-rule="nonzero" fill-opacity="1" /><path clip-path="url(#clip790)" d="M1937.03 209.99 L1941.29 209.99 L1941.29 235.916 L1937.03 235.916 L1937.03 209.99 M1937.03 199.897 L1941.29 199.897 L1941.29 205.291 L1937.03 205.291 L1937.03 199.897 Z" fill="#000000" fill-rule="nonzero" fill-opacity="1" /><path clip-path="url(#clip790)" d="M1968.86 210.985 L1968.86 214.967 Q1967.05 213.971 1965.22 213.485 Q1963.42 212.976 1961.57 212.976 Q1957.42 212.976 1955.13 215.615 Q1952.84 218.231 1952.84 222.976 Q1952.84 227.721 1955.13 230.36 Q1957.42 232.976 1961.57 232.976 Q1963.42 232.976 1965.22 232.49 Q1967.05 231.981 1968.86 230.985 L1968.86 234.92 Q1967.08 235.754 1965.15 236.17 Q1963.26 236.587 1961.1 236.587 Q1955.25 236.587 1951.8 232.906 Q1948.35 229.226 1948.35 222.976 Q1948.35 216.633 1951.82 212.999 Q1955.32 209.365 1961.38 209.365 Q1963.35 209.365 1965.22 209.782 Q1967.1 210.175 1968.86 210.985 Z" fill="#000000" fill-rule="nonzero" fill-opacity="1" /><path clip-path="url(#clip790)" d="M1995.46 232.027 L1995.46 245.777 L1991.17 245.777 L1991.17 209.99 L1995.46 209.99 L1995.46 213.925 Q1996.8 211.61 1998.83 210.499 Q2000.89 209.365 2003.74 209.365 Q2008.46 209.365 2011.4 213.115 Q2014.37 216.865 2014.37 222.976 Q2014.37 229.087 2011.4 232.837 Q2008.46 236.587 2003.74 236.587 Q2000.89 236.587 1998.83 235.476 Q1996.8 234.342 1995.46 232.027 M2009.95 222.976 Q2009.95 218.277 2008 215.615 Q2006.08 212.93 2002.7 212.93 Q1999.32 212.93 1997.38 215.615 Q1995.46 218.277 1995.46 222.976 Q1995.46 227.675 1997.38 230.36 Q1999.32 233.022 2002.7 233.022 Q2006.08 233.022 2008 230.36 Q2009.95 227.675 2009.95 222.976 Z" fill="#000000" fill-rule="nonzero" fill-opacity="1" /><path clip-path="url(#clip790)" d="M2036.45 213.971 Q2035.73 213.555 2034.88 213.37 Q2034.04 213.161 2033.02 213.161 Q2029.41 213.161 2027.47 215.522 Q2025.55 217.86 2025.55 222.258 L2025.55 235.916 L2021.27 235.916 L2021.27 209.99 L2025.55 209.99 L2025.55 214.018 Q2026.89 211.657 2029.04 210.522 Q2031.2 209.365 2034.27 209.365 Q2034.71 209.365 2035.25 209.434 Q2035.78 209.481 2036.43 209.596 L2036.45 213.971 Z" fill="#000000" fill-rule="nonzero" fill-opacity="1" /><path clip-path="url(#clip790)" d="M2049.92 212.976 Q2046.5 212.976 2044.51 215.661 Q2042.51 218.323 2042.51 222.976 Q2042.51 227.629 2044.48 230.314 Q2046.47 232.976 2049.92 232.976 Q2053.33 232.976 2055.32 230.291 Q2057.31 227.606 2057.31 222.976 Q2057.31 218.37 2055.32 215.684 Q2053.33 212.976 2049.92 212.976 M2049.92 209.365 Q2055.48 209.365 2058.65 212.976 Q2061.82 216.587 2061.82 222.976 Q2061.82 229.342 2058.65 232.976 Q2055.48 236.587 2049.92 236.587 Q2044.34 236.587 2041.17 232.976 Q2038.02 229.342 2038.02 222.976 Q2038.02 216.587 2041.17 212.976 Q2044.34 209.365 2049.92 209.365 Z" fill="#000000" fill-rule="nonzero" fill-opacity="1" /><path clip-path="url(#clip790)" d="M2073.09 202.629 L2073.09 209.99 L2081.87 209.99 L2081.87 213.3 L2073.09 213.3 L2073.09 227.374 Q2073.09 230.545 2073.95 231.448 Q2074.83 232.351 2077.49 232.351 L2081.87 232.351 L2081.87 235.916 L2077.49 235.916 Q2072.56 235.916 2070.69 234.087 Q2068.81 232.235 2068.81 227.374 L2068.81 213.3 L2065.69 213.3 L2065.69 209.99 L2068.81 209.99 L2068.81 202.629 L2073.09 202.629 Z" fill="#000000" fill-rule="nonzero" fill-opacity="1" /><path clip-path="url(#clip790)" d="M2097.51 212.976 Q2094.09 212.976 2092.1 215.661 Q2090.11 218.323 2090.11 222.976 Q2090.11 227.629 2092.07 230.314 Q2094.07 232.976 2097.51 232.976 Q2100.92 232.976 2102.91 230.291 Q2104.9 227.606 2104.9 222.976 Q2104.9 218.37 2102.91 215.684 Q2100.92 212.976 2097.51 212.976 M2097.51 209.365 Q2103.07 209.365 2106.24 212.976 Q2109.41 216.587 2109.41 222.976 Q2109.41 229.342 2106.24 232.976 Q2103.07 236.587 2097.51 236.587 Q2091.94 236.587 2088.76 232.976 Q2085.62 229.342 2085.62 222.976 Q2085.62 216.587 2088.76 212.976 Q2091.94 209.365 2097.51 209.365 Z" fill="#000000" fill-rule="nonzero" fill-opacity="1" /><path clip-path="url(#clip790)" d="M2138.02 220.268 L2138.02 235.916 L2133.76 235.916 L2133.76 220.407 Q2133.76 216.726 2132.33 214.897 Q2130.89 213.069 2128.02 213.069 Q2124.57 213.069 2122.58 215.268 Q2120.59 217.467 2120.59 221.263 L2120.59 235.916 L2116.31 235.916 L2116.31 209.99 L2120.59 209.99 L2120.59 214.018 Q2122.12 211.68 2124.18 210.522 Q2126.26 209.365 2128.97 209.365 Q2133.44 209.365 2135.73 212.143 Q2138.02 214.897 2138.02 220.268 Z" fill="#000000" fill-rule="nonzero" fill-opacity="1" /><path clip-path="url(#clip790)" d="M2163.05 210.754 L2163.05 214.782 Q2161.24 213.856 2159.3 213.393 Q2157.35 212.93 2155.27 212.93 Q2152.1 212.93 2150.5 213.902 Q2148.93 214.874 2148.93 216.819 Q2148.93 218.3 2150.06 219.157 Q2151.19 219.99 2154.62 220.754 L2156.08 221.078 Q2160.62 222.05 2162.51 223.832 Q2164.44 225.592 2164.44 228.763 Q2164.44 232.374 2161.57 234.481 Q2158.72 236.587 2153.72 236.587 Q2151.63 236.587 2149.37 236.17 Q2147.12 235.777 2144.62 234.967 L2144.62 230.569 Q2146.98 231.795 2149.27 232.42 Q2151.57 233.022 2153.81 233.022 Q2156.82 233.022 2158.44 232.004 Q2160.06 230.962 2160.06 229.087 Q2160.06 227.351 2158.88 226.425 Q2157.72 225.499 2153.76 224.643 L2152.28 224.295 Q2148.32 223.462 2146.57 221.749 Q2144.81 220.013 2144.81 217.004 Q2144.81 213.346 2147.4 211.356 Q2149.99 209.365 2154.76 209.365 Q2157.12 209.365 2159.2 209.712 Q2161.29 210.059 2163.05 210.754 Z" fill="#000000" fill-rule="nonzero" fill-opacity="1" /><polyline clip-path="url(#clip790)" style="stroke:#0000ff; stroke-linecap:round; stroke-linejoin:round; stroke-width:8; stroke-opacity:0.75; fill:none" points="1667.51,270.476 1799.72,270.476 "/>
<path clip-path="url(#clip790)" d="M1821.75 253.196 L1828.05 253.196 L1843.37 282.108 L1843.37 253.196 L1847.91 253.196 L1847.91 287.756 L1841.61 287.756 L1826.29 258.844 L1826.29 287.756 L1821.75 287.756 L1821.75 253.196 Z" fill="#000000" fill-rule="nonzero" fill-opacity="1" /><path clip-path="url(#clip790)" d="M1879.21 273.728 L1879.21 275.811 L1859.62 275.811 Q1859.9 280.209 1862.26 282.524 Q1864.65 284.816 1868.88 284.816 Q1871.34 284.816 1873.63 284.214 Q1875.94 283.612 1878.21 282.409 L1878.21 286.436 Q1875.92 287.408 1873.51 287.918 Q1871.1 288.427 1868.63 288.427 Q1862.42 288.427 1858.79 284.816 Q1855.18 281.205 1855.18 275.047 Q1855.18 268.682 1858.6 264.955 Q1862.05 261.205 1867.89 261.205 Q1873.12 261.205 1876.15 264.585 Q1879.21 267.941 1879.21 273.728 M1874.95 272.478 Q1874.9 268.983 1872.98 266.899 Q1871.08 264.816 1867.93 264.816 Q1864.37 264.816 1862.21 266.83 Q1860.09 268.844 1859.76 272.501 L1874.95 272.478 Z" fill="#000000" fill-rule="nonzero" fill-opacity="1" /><path clip-path="url(#clip790)" d="M1885.76 277.524 L1885.76 261.83 L1890.02 261.83 L1890.02 277.362 Q1890.02 281.043 1891.45 282.895 Q1892.89 284.723 1895.76 284.723 Q1899.21 284.723 1901.2 282.524 Q1903.21 280.325 1903.21 276.529 L1903.21 261.83 L1907.47 261.83 L1907.47 287.756 L1903.21 287.756 L1903.21 283.774 Q1901.66 286.135 1899.6 287.293 Q1897.56 288.427 1894.85 288.427 Q1890.39 288.427 1888.07 285.649 Q1885.76 282.871 1885.76 277.524 M1896.47 261.205 L1896.47 261.205 Z" fill="#000000" fill-rule="nonzero" fill-opacity="1" /><path clip-path="url(#clip790)" d="M1920.46 254.469 L1920.46 261.83 L1929.23 261.83 L1929.23 265.14 L1920.46 265.14 L1920.46 279.214 Q1920.46 282.385 1921.31 283.288 Q1922.19 284.191 1924.85 284.191 L1929.23 284.191 L1929.23 287.756 L1924.85 287.756 Q1919.92 287.756 1918.05 285.927 Q1916.17 284.075 1916.17 279.214 L1916.17 265.14 L1913.05 265.14 L1913.05 261.83 L1916.17 261.83 L1916.17 254.469 L1920.46 254.469 Z" fill="#000000" fill-rule="nonzero" fill-opacity="1" /><path clip-path="url(#clip790)" d="M1949.85 265.811 Q1949.14 265.395 1948.28 265.21 Q1947.45 265.001 1946.43 265.001 Q1942.82 265.001 1940.87 267.362 Q1938.95 269.7 1938.95 274.098 L1938.95 287.756 L1934.67 287.756 L1934.67 261.83 L1938.95 261.83 L1938.95 265.858 Q1940.29 263.497 1942.45 262.362 Q1944.6 261.205 1947.68 261.205 Q1948.12 261.205 1948.65 261.274 Q1949.18 261.321 1949.83 261.436 L1949.85 265.811 Z" fill="#000000" fill-rule="nonzero" fill-opacity="1" /><path clip-path="url(#clip790)" d="M1963.33 264.816 Q1959.9 264.816 1957.91 267.501 Q1955.92 270.163 1955.92 274.816 Q1955.92 279.469 1957.89 282.154 Q1959.88 284.816 1963.33 284.816 Q1966.73 284.816 1968.72 282.131 Q1970.71 279.446 1970.71 274.816 Q1970.71 270.21 1968.72 267.524 Q1966.73 264.816 1963.33 264.816 M1963.33 261.205 Q1968.88 261.205 1972.05 264.816 Q1975.22 268.427 1975.22 274.816 Q1975.22 281.182 1972.05 284.816 Q1968.88 288.427 1963.33 288.427 Q1957.75 288.427 1954.58 284.816 Q1951.43 281.182 1951.43 274.816 Q1951.43 268.427 1954.58 264.816 Q1957.75 261.205 1963.33 261.205 Z" fill="#000000" fill-rule="nonzero" fill-opacity="1" /><path clip-path="url(#clip790)" d="M2003.83 272.108 L2003.83 287.756 L1999.58 287.756 L1999.58 272.247 Q1999.58 268.566 1998.14 266.737 Q1996.71 264.909 1993.83 264.909 Q1990.39 264.909 1988.39 267.108 Q1986.4 269.307 1986.4 273.103 L1986.4 287.756 L1982.12 287.756 L1982.12 261.83 L1986.4 261.83 L1986.4 265.858 Q1987.93 263.52 1989.99 262.362 Q1992.08 261.205 1994.78 261.205 Q1999.25 261.205 2001.54 263.983 Q2003.83 266.737 2003.83 272.108 Z" fill="#000000" fill-rule="nonzero" fill-opacity="1" /><path clip-path="url(#clip790)" d="M2040.52 251.737 L2040.52 255.279 L2036.45 255.279 Q2034.16 255.279 2033.26 256.205 Q2032.38 257.131 2032.38 259.538 L2032.38 261.83 L2039.39 261.83 L2039.39 265.14 L2032.38 265.14 L2032.38 287.756 L2028.09 287.756 L2028.09 265.14 L2024.02 265.14 L2024.02 261.83 L2028.09 261.83 L2028.09 260.024 Q2028.09 255.696 2030.11 253.728 Q2032.12 251.737 2036.5 251.737 L2040.52 251.737 Z" fill="#000000" fill-rule="nonzero" fill-opacity="1" /><path clip-path="url(#clip790)" d="M2059.11 265.811 Q2058.39 265.395 2057.54 265.21 Q2056.7 265.001 2055.69 265.001 Q2052.08 265.001 2050.13 267.362 Q2048.21 269.7 2048.21 274.098 L2048.21 287.756 L2043.93 287.756 L2043.93 261.83 L2048.21 261.83 L2048.21 265.858 Q2049.55 263.497 2051.7 262.362 Q2053.86 261.205 2056.94 261.205 Q2057.38 261.205 2057.91 261.274 Q2058.44 261.321 2059.09 261.436 L2059.11 265.811 Z" fill="#000000" fill-rule="nonzero" fill-opacity="1" /><path clip-path="url(#clip790)" d="M2075.36 274.723 Q2070.2 274.723 2068.21 275.904 Q2066.22 277.084 2066.22 279.932 Q2066.22 282.2 2067.7 283.543 Q2069.2 284.862 2071.77 284.862 Q2075.32 284.862 2077.45 282.362 Q2079.6 279.839 2079.6 275.672 L2079.6 274.723 L2075.36 274.723 M2083.86 272.964 L2083.86 287.756 L2079.6 287.756 L2079.6 283.821 Q2078.14 286.182 2075.96 287.316 Q2073.79 288.427 2070.64 288.427 Q2066.66 288.427 2064.3 286.205 Q2061.96 283.959 2061.96 280.209 Q2061.96 275.834 2064.88 273.612 Q2067.82 271.39 2073.63 271.39 L2079.6 271.39 L2079.6 270.973 Q2079.6 268.034 2077.65 266.436 Q2075.73 264.816 2072.24 264.816 Q2070.01 264.816 2067.91 265.348 Q2065.8 265.881 2063.86 266.946 L2063.86 263.01 Q2066.2 262.108 2068.39 261.668 Q2070.59 261.205 2072.68 261.205 Q2078.3 261.205 2081.08 264.122 Q2083.86 267.038 2083.86 272.964 Z" fill="#000000" fill-rule="nonzero" fill-opacity="1" /><path clip-path="url(#clip790)" d="M2109.69 274.492 Q2109.69 269.862 2107.77 267.316 Q2105.87 264.77 2102.42 264.77 Q2099 264.77 2097.07 267.316 Q2095.18 269.862 2095.18 274.492 Q2095.18 279.098 2097.07 281.645 Q2099 284.191 2102.42 284.191 Q2105.87 284.191 2107.77 281.645 Q2109.69 279.098 2109.69 274.492 M2113.95 284.538 Q2113.95 291.158 2111.01 294.376 Q2108.07 297.617 2102.01 297.617 Q2099.76 297.617 2097.77 297.27 Q2095.78 296.945 2093.9 296.251 L2093.9 292.108 Q2095.78 293.126 2097.61 293.612 Q2099.44 294.098 2101.33 294.098 Q2105.52 294.098 2107.61 291.899 Q2109.69 289.723 2109.69 285.302 L2109.69 283.196 Q2108.37 285.487 2106.31 286.621 Q2104.25 287.756 2101.38 287.756 Q2096.61 287.756 2093.7 284.121 Q2090.78 280.487 2090.78 274.492 Q2090.78 268.473 2093.7 264.839 Q2096.61 261.205 2101.38 261.205 Q2104.25 261.205 2106.31 262.339 Q2108.37 263.473 2109.69 265.765 L2109.69 261.83 L2113.95 261.83 L2113.95 284.538 Z" fill="#000000" fill-rule="nonzero" fill-opacity="1" /><path clip-path="url(#clip790)" d="M2142.91 266.807 Q2144.51 263.936 2146.73 262.571 Q2148.95 261.205 2151.96 261.205 Q2156.01 261.205 2158.21 264.052 Q2160.41 266.876 2160.41 272.108 L2160.41 287.756 L2156.13 287.756 L2156.13 272.247 Q2156.13 268.52 2154.81 266.714 Q2153.49 264.909 2150.78 264.909 Q2147.47 264.909 2145.55 267.108 Q2143.63 269.307 2143.63 273.103 L2143.63 287.756 L2139.34 287.756 L2139.34 272.247 Q2139.34 268.497 2138.02 266.714 Q2136.7 264.909 2133.95 264.909 Q2130.69 264.909 2128.76 267.131 Q2126.84 269.33 2126.84 273.103 L2126.84 287.756 L2122.56 287.756 L2122.56 261.83 L2126.84 261.83 L2126.84 265.858 Q2128.3 263.473 2130.34 262.339 Q2132.38 261.205 2135.18 261.205 Q2138 261.205 2139.97 262.64 Q2141.96 264.075 2142.91 266.807 Z" fill="#000000" fill-rule="nonzero" fill-opacity="1" /><path clip-path="url(#clip790)" d="M2191.08 273.728 L2191.08 275.811 L2171.5 275.811 Q2171.77 280.209 2174.13 282.524 Q2176.52 284.816 2180.75 284.816 Q2183.21 284.816 2185.5 284.214 Q2187.82 283.612 2190.08 282.409 L2190.08 286.436 Q2187.79 287.408 2185.38 287.918 Q2182.98 288.427 2180.5 288.427 Q2174.3 288.427 2170.66 284.816 Q2167.05 281.205 2167.05 275.047 Q2167.05 268.682 2170.48 264.955 Q2173.93 261.205 2179.76 261.205 Q2184.99 261.205 2188.02 264.585 Q2191.08 267.941 2191.08 273.728 M2186.82 272.478 Q2186.77 268.983 2184.85 266.899 Q2182.95 264.816 2179.81 264.816 Q2176.24 264.816 2174.09 266.83 Q2171.96 268.844 2171.63 272.501 L2186.82 272.478 Z" fill="#000000" fill-rule="nonzero" fill-opacity="1" /><path clip-path="url(#clip790)" d="M2219.62 272.108 L2219.62 287.756 L2215.36 287.756 L2215.36 272.247 Q2215.36 268.566 2213.93 266.737 Q2212.49 264.909 2209.62 264.909 Q2206.17 264.909 2204.18 267.108 Q2202.19 269.307 2202.19 273.103 L2202.19 287.756 L2197.91 287.756 L2197.91 261.83 L2202.19 261.83 L2202.19 265.858 Q2203.72 263.52 2205.78 262.362 Q2207.86 261.205 2210.57 261.205 Q2215.04 261.205 2217.33 263.983 Q2219.62 266.737 2219.62 272.108 Z" fill="#000000" fill-rule="nonzero" fill-opacity="1" /><path clip-path="url(#clip790)" d="M2232.33 254.469 L2232.33 261.83 L2241.1 261.83 L2241.1 265.14 L2232.33 265.14 L2232.33 279.214 Q2232.33 282.385 2233.19 283.288 Q2234.06 284.191 2236.73 284.191 L2241.1 284.191 L2241.1 287.756 L2236.73 287.756 Q2231.8 287.756 2229.92 285.927 Q2228.05 284.075 2228.05 279.214 L2228.05 265.14 L2224.92 265.14 L2224.92 261.83 L2228.05 261.83 L2228.05 254.469 L2232.33 254.469 Z" fill="#000000" fill-rule="nonzero" fill-opacity="1" /><path clip-path="url(#clip790)" d="M2263.23 262.594 L2263.23 266.622 Q2261.43 265.696 2259.48 265.233 Q2257.54 264.77 2255.45 264.77 Q2252.28 264.77 2250.69 265.742 Q2249.11 266.714 2249.11 268.659 Q2249.11 270.14 2250.25 270.997 Q2251.38 271.83 2254.81 272.594 L2256.26 272.918 Q2260.8 273.89 2262.7 275.672 Q2264.62 277.432 2264.62 280.603 Q2264.62 284.214 2261.75 286.321 Q2258.9 288.427 2253.9 288.427 Q2251.82 288.427 2249.55 288.01 Q2247.31 287.617 2244.81 286.807 L2244.81 282.409 Q2247.17 283.635 2249.46 284.26 Q2251.75 284.862 2254 284.862 Q2257 284.862 2258.62 283.844 Q2260.25 282.802 2260.25 280.927 Q2260.25 279.191 2259.06 278.265 Q2257.91 277.339 2253.95 276.483 L2252.47 276.135 Q2248.51 275.302 2246.75 273.589 Q2244.99 271.853 2244.99 268.844 Q2244.99 265.186 2247.58 263.196 Q2250.18 261.205 2254.94 261.205 Q2257.31 261.205 2259.39 261.552 Q2261.47 261.899 2263.23 262.594 Z" fill="#000000" fill-rule="nonzero" fill-opacity="1" /></svg>
