<?xml version="1.0" encoding="utf-8"?>
<svg xmlns="http://www.w3.org/2000/svg" xmlns:xlink="http://www.w3.org/1999/xlink" width="600" height="400" viewBox="0 0 2400 1600">
<defs>
  <clipPath id="clip600">
    <rect x="0" y="0" width="2400" height="1600"/>
  </clipPath>
</defs>
<path clip-path="url(#clip600)" d="M0 1600 L2400 1600 L2400 0 L0 0  Z" fill="#ffffff" fill-rule="evenodd" fill-opacity="1"/>
<defs>
  <clipPath id="clip601">
    <rect x="480" y="0" width="1681" height="1600"/>
  </clipPath>
</defs>
<path clip-path="url(#clip600)" d="M264.287 1423.18 L2352.76 1423.18 L2352.76 123.472 L264.287 123.472  Z" fill="#ffffff" fill-rule="evenodd" fill-opacity="1"/>
<defs>
  <clipPath id="clip602">
    <rect x="264" y="123" width="2089" height="1301"/>
  </clipPath>
</defs>
<polyline clip-path="url(#clip602)" style="stroke:#000000; stroke-linecap:round; stroke-linejoin:round; stroke-width:2; stroke-opacity:0.1; fill:none" points="323.395,1423.18 323.395,123.472 "/>
<polyline clip-path="url(#clip602)" style="stroke:#000000; stroke-linecap:round; stroke-linejoin:round; stroke-width:2; stroke-opacity:0.1; fill:none" points="971.505,1423.18 971.505,123.472 "/>
<polyline clip-path="url(#clip602)" style="stroke:#000000; stroke-linecap:round; stroke-linejoin:round; stroke-width:2; stroke-opacity:0.1; fill:none" points="1619.61,1423.18 1619.61,123.472 "/>
<polyline clip-path="url(#clip602)" style="stroke:#000000; stroke-linecap:round; stroke-linejoin:round; stroke-width:2; stroke-opacity:0.1; fill:none" points="2267.72,1423.18 2267.72,123.472 "/>
<polyline clip-path="url(#clip602)" style="stroke:#000000; stroke-linecap:round; stroke-linejoin:round; stroke-width:2; stroke-opacity:0.1; fill:none" points="264.287,1386.4 2352.76,1386.4 "/>
<polyline clip-path="url(#clip602)" style="stroke:#000000; stroke-linecap:round; stroke-linejoin:round; stroke-width:2; stroke-opacity:0.1; fill:none" points="264.287,1134.21 2352.76,1134.21 "/>
<polyline clip-path="url(#clip602)" style="stroke:#000000; stroke-linecap:round; stroke-linejoin:round; stroke-width:2; stroke-opacity:0.1; fill:none" points="264.287,882.019 2352.76,882.019 "/>
<polyline clip-path="url(#clip602)" style="stroke:#000000; stroke-linecap:round; stroke-linejoin:round; stroke-width:2; stroke-opacity:0.1; fill:none" points="264.287,629.831 2352.76,629.831 "/>
<polyline clip-path="url(#clip602)" style="stroke:#000000; stroke-linecap:round; stroke-linejoin:round; stroke-width:2; stroke-opacity:0.1; fill:none" points="264.287,377.643 2352.76,377.643 "/>
<polyline clip-path="url(#clip602)" style="stroke:#000000; stroke-linecap:round; stroke-linejoin:round; stroke-width:2; stroke-opacity:0.1; fill:none" points="264.287,125.454 2352.76,125.454 "/>
<polyline clip-path="url(#clip600)" style="stroke:#000000; stroke-linecap:round; stroke-linejoin:round; stroke-width:4; stroke-opacity:1; fill:none" points="264.287,1423.18 2352.76,1423.18 "/>
<polyline clip-path="url(#clip600)" style="stroke:#000000; stroke-linecap:round; stroke-linejoin:round; stroke-width:4; stroke-opacity:1; fill:none" points="323.395,1423.18 323.395,1404.28 "/>
<polyline clip-path="url(#clip600)" style="stroke:#000000; stroke-linecap:round; stroke-linejoin:round; stroke-width:4; stroke-opacity:1; fill:none" points="971.505,1423.18 971.505,1404.28 "/>
<polyline clip-path="url(#clip600)" style="stroke:#000000; stroke-linecap:round; stroke-linejoin:round; stroke-width:4; stroke-opacity:1; fill:none" points="1619.61,1423.18 1619.61,1404.28 "/>
<polyline clip-path="url(#clip600)" style="stroke:#000000; stroke-linecap:round; stroke-linejoin:round; stroke-width:4; stroke-opacity:1; fill:none" points="2267.72,1423.18 2267.72,1404.28 "/>
<path clip-path="url(#clip600)" d="M323.395 1454.1 Q319.784 1454.1 317.955 1457.66 Q316.15 1461.2 316.15 1468.33 Q316.15 1475.44 317.955 1479.01 Q319.784 1482.55 323.395 1482.55 Q327.029 1482.55 328.835 1479.01 Q330.663 1475.44 330.663 1468.33 Q330.663 1461.2 328.835 1457.66 Q327.029 1454.1 323.395 1454.1 M323.395 1450.39 Q329.205 1450.39 332.261 1455 Q335.339 1459.58 335.339 1468.33 Q335.339 1477.06 332.261 1481.67 Q329.205 1486.25 323.395 1486.25 Q317.585 1486.25 314.506 1481.67 Q311.451 1477.06 311.451 1468.33 Q311.451 1459.58 314.506 1455 Q317.585 1450.39 323.395 1450.39 Z" fill="#000000" fill-rule="nonzero" fill-opacity="1" /><path clip-path="url(#clip600)" d="M946.204 1451.02 L964.56 1451.02 L964.56 1454.96 L950.486 1454.96 L950.486 1463.43 Q951.505 1463.08 952.523 1462.92 Q953.542 1462.73 954.56 1462.73 Q960.347 1462.73 963.727 1465.9 Q967.106 1469.08 967.106 1474.49 Q967.106 1480.07 963.634 1483.17 Q960.162 1486.25 953.843 1486.25 Q951.667 1486.25 949.398 1485.88 Q947.153 1485.51 944.745 1484.77 L944.745 1480.07 Q946.829 1481.2 949.051 1481.76 Q951.273 1482.32 953.75 1482.32 Q957.755 1482.32 960.093 1480.21 Q962.431 1478.1 962.431 1474.49 Q962.431 1470.88 960.093 1468.77 Q957.755 1466.67 953.75 1466.67 Q951.875 1466.67 950 1467.08 Q948.148 1467.5 946.204 1468.38 L946.204 1451.02 Z" fill="#000000" fill-rule="nonzero" fill-opacity="1" /><path clip-path="url(#clip600)" d="M986.319 1454.1 Q982.708 1454.1 980.88 1457.66 Q979.074 1461.2 979.074 1468.33 Q979.074 1475.44 980.88 1479.01 Q982.708 1482.55 986.319 1482.55 Q989.954 1482.55 991.759 1479.01 Q993.588 1475.44 993.588 1468.33 Q993.588 1461.2 991.759 1457.66 Q989.954 1454.1 986.319 1454.1 M986.319 1450.39 Q992.129 1450.39 995.185 1455 Q998.264 1459.58 998.264 1468.33 Q998.264 1477.06 995.185 1481.67 Q992.129 1486.25 986.319 1486.25 Q980.509 1486.25 977.43 1481.67 Q974.375 1477.06 974.375 1468.33 Q974.375 1459.58 977.43 1455 Q980.509 1450.39 986.319 1450.39 Z" fill="#000000" fill-rule="nonzero" fill-opacity="1" /><path clip-path="url(#clip600)" d="M1579.22 1481.64 L1586.86 1481.64 L1586.86 1455.28 L1578.55 1456.95 L1578.55 1452.69 L1586.81 1451.02 L1591.49 1451.02 L1591.49 1481.64 L1599.13 1481.64 L1599.13 1485.58 L1579.22 1485.58 L1579.22 1481.64 Z" fill="#000000" fill-rule="nonzero" fill-opacity="1" /><path clip-path="url(#clip600)" d="M1618.57 1454.1 Q1614.96 1454.1 1613.13 1457.66 Q1611.33 1461.2 1611.33 1468.33 Q1611.33 1475.44 1613.13 1479.01 Q1614.96 1482.55 1618.57 1482.55 Q1622.21 1482.55 1624.01 1479.01 Q1625.84 1475.44 1625.84 1468.33 Q1625.84 1461.2 1624.01 1457.66 Q1622.21 1454.1 1618.57 1454.1 M1618.57 1450.39 Q1624.38 1450.39 1627.44 1455 Q1630.52 1459.58 1630.52 1468.33 Q1630.52 1477.06 1627.44 1481.67 Q1624.38 1486.25 1618.57 1486.25 Q1612.76 1486.25 1609.68 1481.67 Q1606.63 1477.06 1606.63 1468.33 Q1606.63 1459.58 1609.68 1455 Q1612.76 1450.39 1618.57 1450.39 Z" fill="#000000" fill-rule="nonzero" fill-opacity="1" /><path clip-path="url(#clip600)" d="M1648.73 1454.1 Q1645.12 1454.1 1643.29 1457.66 Q1641.49 1461.2 1641.49 1468.33 Q1641.49 1475.44 1643.29 1479.01 Q1645.12 1482.55 1648.73 1482.55 Q1652.37 1482.55 1654.17 1479.01 Q1656 1475.44 1656 1468.33 Q1656 1461.2 1654.17 1457.66 Q1652.37 1454.1 1648.73 1454.1 M1648.73 1450.39 Q1654.54 1450.39 1657.6 1455 Q1660.68 1459.58 1660.68 1468.33 Q1660.68 1477.06 1657.6 1481.67 Q1654.54 1486.25 1648.73 1486.25 Q1642.92 1486.25 1639.85 1481.67 Q1636.79 1477.06 1636.79 1468.33 Q1636.79 1459.58 1639.85 1455 Q1642.92 1450.39 1648.73 1450.39 Z" fill="#000000" fill-rule="nonzero" fill-opacity="1" /><path clip-path="url(#clip600)" d="M2227.33 1481.64 L2234.97 1481.64 L2234.97 1455.28 L2226.66 1456.95 L2226.66 1452.69 L2234.92 1451.02 L2239.6 1451.02 L2239.6 1481.64 L2247.24 1481.64 L2247.24 1485.58 L2227.33 1485.58 L2227.33 1481.64 Z" fill="#000000" fill-rule="nonzero" fill-opacity="1" /><path clip-path="url(#clip600)" d="M2256.73 1451.02 L2275.08 1451.02 L2275.08 1454.96 L2261.01 1454.96 L2261.01 1463.43 Q2262.03 1463.08 2263.05 1462.92 Q2264.07 1462.73 2265.09 1462.73 Q2270.87 1462.73 2274.25 1465.9 Q2277.63 1469.08 2277.63 1474.49 Q2277.63 1480.07 2274.16 1483.17 Q2270.69 1486.25 2264.37 1486.25 Q2262.19 1486.25 2259.92 1485.88 Q2257.68 1485.51 2255.27 1484.77 L2255.27 1480.07 Q2257.35 1481.2 2259.58 1481.76 Q2261.8 1482.32 2264.27 1482.32 Q2268.28 1482.32 2270.62 1480.21 Q2272.96 1478.1 2272.96 1474.49 Q2272.96 1470.88 2270.62 1468.77 Q2268.28 1466.67 2264.27 1466.67 Q2262.4 1466.67 2260.52 1467.08 Q2258.67 1467.5 2256.73 1468.38 L2256.73 1451.02 Z" fill="#000000" fill-rule="nonzero" fill-opacity="1" /><path clip-path="url(#clip600)" d="M2296.84 1454.1 Q2293.23 1454.1 2291.4 1457.66 Q2289.6 1461.2 2289.6 1468.33 Q2289.6 1475.44 2291.4 1479.01 Q2293.23 1482.55 2296.84 1482.55 Q2300.48 1482.55 2302.28 1479.01 Q2304.11 1475.44 2304.11 1468.33 Q2304.11 1461.2 2302.28 1457.66 Q2300.48 1454.1 2296.84 1454.1 M2296.84 1450.39 Q2302.65 1450.39 2305.71 1455 Q2308.79 1459.58 2308.79 1468.33 Q2308.79 1477.06 2305.71 1481.67 Q2302.65 1486.25 2296.84 1486.25 Q2291.03 1486.25 2287.96 1481.67 Q2284.9 1477.06 2284.9 1468.33 Q2284.9 1459.58 2287.96 1455 Q2291.03 1450.39 2296.84 1450.39 Z" fill="#000000" fill-rule="nonzero" fill-opacity="1" /><path clip-path="url(#clip600)" d="M1094.16 1520.52 L1124.2 1520.52 L1124.2 1525.93 L1100.59 1525.93 L1100.59 1540 L1123.22 1540 L1123.22 1545.41 L1100.59 1545.41 L1100.59 1562.63 L1124.78 1562.63 L1124.78 1568.04 L1094.16 1568.04 L1094.16 1520.52 Z" fill="#000000" fill-rule="nonzero" fill-opacity="1" /><path clip-path="url(#clip600)" d="M1164.72 1546.53 L1164.72 1568.04 L1158.86 1568.04 L1158.86 1546.72 Q1158.86 1541.66 1156.89 1539.14 Q1154.92 1536.63 1150.97 1536.63 Q1146.23 1536.63 1143.49 1539.65 Q1140.75 1542.68 1140.75 1547.9 L1140.75 1568.04 L1134.87 1568.04 L1134.87 1532.4 L1140.75 1532.4 L1140.75 1537.93 Q1142.85 1534.72 1145.69 1533.13 Q1148.55 1531.54 1152.28 1531.54 Q1158.42 1531.54 1161.57 1535.36 Q1164.72 1539.14 1164.72 1546.53 Z" fill="#000000" fill-rule="nonzero" fill-opacity="1" /><path clip-path="url(#clip600)" d="M1206.89 1548.76 L1206.89 1551.62 L1179.97 1551.62 Q1180.35 1557.67 1183.59 1560.85 Q1186.87 1564 1192.7 1564 Q1196.07 1564 1199.22 1563.17 Q1202.41 1562.35 1205.52 1560.69 L1205.52 1566.23 Q1202.37 1567.57 1199.06 1568.27 Q1195.75 1568.97 1192.35 1568.97 Q1183.82 1568.97 1178.82 1564 Q1173.86 1559.04 1173.86 1550.57 Q1173.86 1541.82 1178.57 1536.69 Q1183.31 1531.54 1191.33 1531.54 Q1198.52 1531.54 1202.69 1536.18 Q1206.89 1540.8 1206.89 1548.76 M1201.04 1547.04 Q1200.97 1542.23 1198.33 1539.37 Q1195.72 1536.5 1191.39 1536.5 Q1186.49 1536.5 1183.53 1539.27 Q1180.6 1542.04 1180.16 1547.07 L1201.04 1547.04 Z" fill="#000000" fill-rule="nonzero" fill-opacity="1" /><path clip-path="url(#clip600)" d="M1237.16 1537.87 Q1236.18 1537.3 1235 1537.04 Q1233.85 1536.76 1232.45 1536.76 Q1227.49 1536.76 1224.81 1540 Q1222.17 1543.22 1222.17 1549.27 L1222.17 1568.04 L1216.28 1568.04 L1216.28 1532.4 L1222.17 1532.4 L1222.17 1537.93 Q1224.02 1534.69 1226.98 1533.13 Q1229.94 1531.54 1234.17 1531.54 Q1234.77 1531.54 1235.51 1531.63 Q1236.24 1531.7 1237.13 1531.85 L1237.16 1537.87 Z" fill="#000000" fill-rule="nonzero" fill-opacity="1" /><path clip-path="url(#clip600)" d="M1265.62 1549.81 Q1265.62 1543.44 1262.97 1539.94 Q1260.37 1536.44 1255.62 1536.44 Q1250.91 1536.44 1248.27 1539.94 Q1245.66 1543.44 1245.66 1549.81 Q1245.66 1556.14 1248.27 1559.64 Q1250.91 1563.14 1255.62 1563.14 Q1260.37 1563.14 1262.97 1559.64 Q1265.62 1556.14 1265.62 1549.81 M1271.47 1563.62 Q1271.47 1572.72 1267.43 1577.15 Q1263.39 1581.6 1255.05 1581.6 Q1251.96 1581.6 1249.23 1581.13 Q1246.49 1580.68 1243.91 1579.72 L1243.91 1574.03 Q1246.49 1575.43 1249 1576.1 Q1251.52 1576.76 1254.13 1576.76 Q1259.89 1576.76 1262.75 1573.74 Q1265.62 1570.75 1265.62 1564.67 L1265.62 1561.77 Q1263.8 1564.92 1260.97 1566.48 Q1258.14 1568.04 1254.19 1568.04 Q1247.63 1568.04 1243.62 1563.05 Q1239.61 1558.05 1239.61 1549.81 Q1239.61 1541.53 1243.62 1536.53 Q1247.63 1531.54 1254.19 1531.54 Q1258.14 1531.54 1260.97 1533.1 Q1263.8 1534.66 1265.62 1537.81 L1265.62 1532.4 L1271.47 1532.4 L1271.47 1563.62 Z" fill="#000000" fill-rule="nonzero" fill-opacity="1" /><path clip-path="url(#clip600)" d="M1298.37 1571.35 Q1295.89 1577.72 1293.53 1579.66 Q1291.18 1581.6 1287.23 1581.6 L1282.55 1581.6 L1282.55 1576.7 L1285.99 1576.7 Q1288.41 1576.7 1289.74 1575.56 Q1291.08 1574.41 1292.7 1570.14 L1293.75 1567.47 L1279.33 1532.4 L1285.54 1532.4 L1296.68 1560.28 L1307.82 1532.4 L1314.03 1532.4 L1298.37 1571.35 Z" fill="#000000" fill-rule="nonzero" fill-opacity="1" /><path clip-path="url(#clip600)" d="M1356.9 1518.58 Q1352.64 1525.9 1350.57 1533.06 Q1348.5 1540.23 1348.5 1547.58 Q1348.5 1554.93 1350.57 1562.16 Q1352.67 1569.35 1356.9 1576.64 L1351.81 1576.64 Q1347.03 1569.16 1344.65 1561.93 Q1342.29 1554.71 1342.29 1547.58 Q1342.29 1540.48 1344.65 1533.29 Q1347 1526.09 1351.81 1518.58 L1356.9 1518.58 Z" fill="#000000" fill-rule="nonzero" fill-opacity="1" /><path clip-path="url(#clip600)" d="M1368.52 1520.52 L1378.1 1520.52 L1390.23 1552.86 L1402.42 1520.52 L1412 1520.52 L1412 1568.04 L1405.73 1568.04 L1405.73 1526.32 L1393.47 1558.91 L1387.01 1558.91 L1374.76 1526.32 L1374.76 1568.04 L1368.52 1568.04 L1368.52 1520.52 Z" fill="#000000" fill-rule="nonzero" fill-opacity="1" /><path clip-path="url(#clip600)" d="M1455 1548.76 L1455 1551.62 L1428.07 1551.62 Q1428.45 1557.67 1431.7 1560.85 Q1434.98 1564 1440.8 1564 Q1444.17 1564 1447.33 1563.17 Q1450.51 1562.35 1453.63 1560.69 L1453.63 1566.23 Q1450.48 1567.57 1447.17 1568.27 Q1443.86 1568.97 1440.45 1568.97 Q1431.92 1568.97 1426.92 1564 Q1421.96 1559.04 1421.96 1550.57 Q1421.96 1541.82 1426.67 1536.69 Q1431.41 1531.54 1439.43 1531.54 Q1446.63 1531.54 1450.8 1536.18 Q1455 1540.8 1455 1548.76 M1449.14 1547.04 Q1449.08 1542.23 1446.43 1539.37 Q1443.82 1536.5 1439.5 1536.5 Q1434.59 1536.5 1431.63 1539.27 Q1428.71 1542.04 1428.26 1547.07 L1449.14 1547.04 Z" fill="#000000" fill-rule="nonzero" fill-opacity="1" /><path clip-path="url(#clip600)" d="M1477.12 1568.04 L1458.98 1520.52 L1465.69 1520.52 L1480.75 1560.53 L1495.83 1520.52 L1502.52 1520.52 L1484.41 1568.04 L1477.12 1568.04 Z" fill="#000000" fill-rule="nonzero" fill-opacity="1" /><path clip-path="url(#clip600)" d="M1508.28 1518.58 L1513.37 1518.58 Q1518.14 1526.09 1520.5 1533.29 Q1522.89 1540.48 1522.89 1547.58 Q1522.89 1554.71 1520.5 1561.93 Q1518.14 1569.16 1513.37 1576.64 L1508.28 1576.64 Q1512.51 1569.35 1514.58 1562.16 Q1516.68 1554.93 1516.68 1547.58 Q1516.68 1540.23 1514.58 1533.06 Q1512.51 1525.9 1508.28 1518.58 Z" fill="#000000" fill-rule="nonzero" fill-opacity="1" /><polyline clip-path="url(#clip600)" style="stroke:#000000; stroke-linecap:round; stroke-linejoin:round; stroke-width:4; stroke-opacity:1; fill:none" points="264.287,1423.18 264.287,123.472 "/>
<polyline clip-path="url(#clip600)" style="stroke:#000000; stroke-linecap:round; stroke-linejoin:round; stroke-width:4; stroke-opacity:1; fill:none" points="264.287,1386.4 283.185,1386.4 "/>
<polyline clip-path="url(#clip600)" style="stroke:#000000; stroke-linecap:round; stroke-linejoin:round; stroke-width:4; stroke-opacity:1; fill:none" points="264.287,1134.21 283.185,1134.21 "/>
<polyline clip-path="url(#clip600)" style="stroke:#000000; stroke-linecap:round; stroke-linejoin:round; stroke-width:4; stroke-opacity:1; fill:none" points="264.287,882.019 283.185,882.019 "/>
<polyline clip-path="url(#clip600)" style="stroke:#000000; stroke-linecap:round; stroke-linejoin:round; stroke-width:4; stroke-opacity:1; fill:none" points="264.287,629.831 283.185,629.831 "/>
<polyline clip-path="url(#clip600)" style="stroke:#000000; stroke-linecap:round; stroke-linejoin:round; stroke-width:4; stroke-opacity:1; fill:none" points="264.287,377.643 283.185,377.643 "/>
<polyline clip-path="url(#clip600)" style="stroke:#000000; stroke-linecap:round; stroke-linejoin:round; stroke-width:4; stroke-opacity:1; fill:none" points="264.287,125.454 283.185,125.454 "/>
<path clip-path="url(#clip600)" d="M216.343 1372.19 Q212.732 1372.19 210.903 1375.76 Q209.098 1379.3 209.098 1386.43 Q209.098 1393.54 210.903 1397.1 Q212.732 1400.64 216.343 1400.64 Q219.977 1400.64 221.783 1397.1 Q223.611 1393.54 223.611 1386.43 Q223.611 1379.3 221.783 1375.76 Q219.977 1372.19 216.343 1372.19 M216.343 1368.49 Q222.153 1368.49 225.209 1373.1 Q228.287 1377.68 228.287 1386.43 Q228.287 1395.16 225.209 1399.76 Q222.153 1404.35 216.343 1404.35 Q210.533 1404.35 207.454 1399.76 Q204.399 1395.16 204.399 1386.43 Q204.399 1377.68 207.454 1373.1 Q210.533 1368.49 216.343 1368.49 Z" fill="#000000" fill-rule="nonzero" fill-opacity="1" /><path clip-path="url(#clip600)" d="M146.066 1116.93 L164.422 1116.93 L164.422 1120.86 L150.348 1120.86 L150.348 1129.33 Q151.366 1128.99 152.385 1128.83 Q153.403 1128.64 154.422 1128.64 Q160.209 1128.64 163.589 1131.81 Q166.968 1134.98 166.968 1140.4 Q166.968 1145.98 163.496 1149.08 Q160.024 1152.16 153.704 1152.16 Q151.528 1152.16 149.26 1151.79 Q147.015 1151.42 144.607 1150.68 L144.607 1145.98 Q146.691 1147.11 148.913 1147.67 Q151.135 1148.22 153.612 1148.22 Q157.616 1148.22 159.954 1146.12 Q162.292 1144.01 162.292 1140.4 Q162.292 1136.79 159.954 1134.68 Q157.616 1132.58 153.612 1132.58 Q151.737 1132.58 149.862 1132.99 Q148.01 1133.41 146.066 1134.29 L146.066 1116.93 Z" fill="#000000" fill-rule="nonzero" fill-opacity="1" /><path clip-path="url(#clip600)" d="M186.181 1120.01 Q182.57 1120.01 180.741 1123.57 Q178.936 1127.11 178.936 1134.24 Q178.936 1141.35 180.741 1144.91 Q182.57 1148.46 186.181 1148.46 Q189.815 1148.46 191.621 1144.91 Q193.45 1141.35 193.45 1134.24 Q193.45 1127.11 191.621 1123.57 Q189.815 1120.01 186.181 1120.01 M186.181 1116.3 Q191.991 1116.3 195.047 1120.91 Q198.125 1125.49 198.125 1134.24 Q198.125 1142.97 195.047 1147.58 Q191.991 1152.16 186.181 1152.16 Q180.371 1152.16 177.292 1147.58 Q174.237 1142.97 174.237 1134.24 Q174.237 1125.49 177.292 1120.91 Q180.371 1116.3 186.181 1116.3 Z" fill="#000000" fill-rule="nonzero" fill-opacity="1" /><path clip-path="url(#clip600)" d="M216.343 1120.01 Q212.732 1120.01 210.903 1123.57 Q209.098 1127.11 209.098 1134.24 Q209.098 1141.35 210.903 1144.91 Q212.732 1148.46 216.343 1148.46 Q219.977 1148.46 221.783 1144.91 Q223.611 1141.35 223.611 1134.24 Q223.611 1127.11 221.783 1123.57 Q219.977 1120.01 216.343 1120.01 M216.343 1116.3 Q222.153 1116.3 225.209 1120.91 Q228.287 1125.49 228.287 1134.24 Q228.287 1142.97 225.209 1147.58 Q222.153 1152.16 216.343 1152.16 Q210.533 1152.16 207.454 1147.58 Q204.399 1142.97 204.399 1134.24 Q204.399 1125.49 207.454 1120.91 Q210.533 1116.3 216.343 1116.3 Z" fill="#000000" fill-rule="nonzero" fill-opacity="1" /><path clip-path="url(#clip600)" d="M116.668 895.364 L124.306 895.364 L124.306 868.998 L115.996 870.665 L115.996 866.406 L124.26 864.739 L128.936 864.739 L128.936 895.364 L136.575 895.364 L136.575 899.299 L116.668 899.299 L116.668 895.364 Z" fill="#000000" fill-rule="nonzero" fill-opacity="1" /><path clip-path="url(#clip600)" d="M156.019 867.818 Q152.408 867.818 150.579 871.383 Q148.774 874.924 148.774 882.054 Q148.774 889.16 150.579 892.725 Q152.408 896.267 156.019 896.267 Q159.653 896.267 161.459 892.725 Q163.288 889.16 163.288 882.054 Q163.288 874.924 161.459 871.383 Q159.653 867.818 156.019 867.818 M156.019 864.114 Q161.829 864.114 164.885 868.721 Q167.964 873.304 167.964 882.054 Q167.964 890.781 164.885 895.387 Q161.829 899.97 156.019 899.97 Q150.209 899.97 147.13 895.387 Q144.075 890.781 144.075 882.054 Q144.075 873.304 147.13 868.721 Q150.209 864.114 156.019 864.114 Z" fill="#000000" fill-rule="nonzero" fill-opacity="1" /><path clip-path="url(#clip600)" d="M186.181 867.818 Q182.57 867.818 180.741 871.383 Q178.936 874.924 178.936 882.054 Q178.936 889.16 180.741 892.725 Q182.57 896.267 186.181 896.267 Q189.815 896.267 191.621 892.725 Q193.45 889.16 193.45 882.054 Q193.45 874.924 191.621 871.383 Q189.815 867.818 186.181 867.818 M186.181 864.114 Q191.991 864.114 195.047 868.721 Q198.125 873.304 198.125 882.054 Q198.125 890.781 195.047 895.387 Q191.991 899.97 186.181 899.97 Q180.371 899.97 177.292 895.387 Q174.237 890.781 174.237 882.054 Q174.237 873.304 177.292 868.721 Q180.371 864.114 186.181 864.114 Z" fill="#000000" fill-rule="nonzero" fill-opacity="1" /><path clip-path="url(#clip600)" d="M216.343 867.818 Q212.732 867.818 210.903 871.383 Q209.098 874.924 209.098 882.054 Q209.098 889.16 210.903 892.725 Q212.732 896.267 216.343 896.267 Q219.977 896.267 221.783 892.725 Q223.611 889.16 223.611 882.054 Q223.611 874.924 221.783 871.383 Q219.977 867.818 216.343 867.818 M216.343 864.114 Q222.153 864.114 225.209 868.721 Q228.287 873.304 228.287 882.054 Q228.287 890.781 225.209 895.387 Q222.153 899.97 216.343 899.97 Q210.533 899.97 207.454 895.387 Q204.399 890.781 204.399 882.054 Q204.399 873.304 207.454 868.721 Q210.533 864.114 216.343 864.114 Z" fill="#000000" fill-rule="nonzero" fill-opacity="1" /><path clip-path="url(#clip600)" d="M116.668 643.176 L124.306 643.176 L124.306 616.81 L115.996 618.477 L115.996 614.218 L124.26 612.551 L128.936 612.551 L128.936 643.176 L136.575 643.176 L136.575 647.111 L116.668 647.111 L116.668 643.176 Z" fill="#000000" fill-rule="nonzero" fill-opacity="1" /><path clip-path="url(#clip600)" d="M146.066 612.551 L164.422 612.551 L164.422 616.486 L150.348 616.486 L150.348 624.958 Q151.366 624.611 152.385 624.449 Q153.403 624.264 154.422 624.264 Q160.209 624.264 163.589 627.435 Q166.968 630.606 166.968 636.023 Q166.968 641.602 163.496 644.703 Q160.024 647.782 153.704 647.782 Q151.528 647.782 149.26 647.412 Q147.015 647.041 144.607 646.301 L144.607 641.602 Q146.691 642.736 148.913 643.291 Q151.135 643.847 153.612 643.847 Q157.616 643.847 159.954 641.741 Q162.292 639.634 162.292 636.023 Q162.292 632.412 159.954 630.305 Q157.616 628.199 153.612 628.199 Q151.737 628.199 149.862 628.616 Q148.01 629.032 146.066 629.912 L146.066 612.551 Z" fill="#000000" fill-rule="nonzero" fill-opacity="1" /><path clip-path="url(#clip600)" d="M186.181 615.63 Q182.57 615.63 180.741 619.194 Q178.936 622.736 178.936 629.866 Q178.936 636.972 180.741 640.537 Q182.57 644.078 186.181 644.078 Q189.815 644.078 191.621 640.537 Q193.45 636.972 193.45 629.866 Q193.45 622.736 191.621 619.194 Q189.815 615.63 186.181 615.63 M186.181 611.926 Q191.991 611.926 195.047 616.532 Q198.125 621.116 198.125 629.866 Q198.125 638.592 195.047 643.199 Q191.991 647.782 186.181 647.782 Q180.371 647.782 177.292 643.199 Q174.237 638.592 174.237 629.866 Q174.237 621.116 177.292 616.532 Q180.371 611.926 186.181 611.926 Z" fill="#000000" fill-rule="nonzero" fill-opacity="1" /><path clip-path="url(#clip600)" d="M216.343 615.63 Q212.732 615.63 210.903 619.194 Q209.098 622.736 209.098 629.866 Q209.098 636.972 210.903 640.537 Q212.732 644.078 216.343 644.078 Q219.977 644.078 221.783 640.537 Q223.611 636.972 223.611 629.866 Q223.611 622.736 221.783 619.194 Q219.977 615.63 216.343 615.63 M216.343 611.926 Q222.153 611.926 225.209 616.532 Q228.287 621.116 228.287 629.866 Q228.287 638.592 225.209 643.199 Q222.153 647.782 216.343 647.782 Q210.533 647.782 207.454 643.199 Q204.399 638.592 204.399 629.866 Q204.399 621.116 207.454 616.532 Q210.533 611.926 216.343 611.926 Z" fill="#000000" fill-rule="nonzero" fill-opacity="1" /><path clip-path="url(#clip600)" d="M119.885 390.987 L136.204 390.987 L136.204 394.923 L114.26 394.923 L114.26 390.987 Q116.922 388.233 121.505 383.603 Q126.112 378.95 127.292 377.608 Q129.538 375.085 130.417 373.349 Q131.32 371.589 131.32 369.9 Q131.32 367.145 129.376 365.409 Q127.455 363.673 124.353 363.673 Q122.154 363.673 119.7 364.437 Q117.269 365.201 114.492 366.751 L114.492 362.029 Q117.316 360.895 119.769 360.316 Q122.223 359.738 124.26 359.738 Q129.63 359.738 132.825 362.423 Q136.019 365.108 136.019 369.599 Q136.019 371.728 135.209 373.65 Q134.422 375.548 132.316 378.14 Q131.737 378.812 128.635 382.029 Q125.533 385.224 119.885 390.987 Z" fill="#000000" fill-rule="nonzero" fill-opacity="1" /><path clip-path="url(#clip600)" d="M156.019 363.441 Q152.408 363.441 150.579 367.006 Q148.774 370.548 148.774 377.677 Q148.774 384.784 150.579 388.349 Q152.408 391.89 156.019 391.89 Q159.653 391.89 161.459 388.349 Q163.288 384.784 163.288 377.677 Q163.288 370.548 161.459 367.006 Q159.653 363.441 156.019 363.441 M156.019 359.738 Q161.829 359.738 164.885 364.344 Q167.964 368.927 167.964 377.677 Q167.964 386.404 164.885 391.011 Q161.829 395.594 156.019 395.594 Q150.209 395.594 147.13 391.011 Q144.075 386.404 144.075 377.677 Q144.075 368.927 147.13 364.344 Q150.209 359.738 156.019 359.738 Z" fill="#000000" fill-rule="nonzero" fill-opacity="1" /><path clip-path="url(#clip600)" d="M186.181 363.441 Q182.57 363.441 180.741 367.006 Q178.936 370.548 178.936 377.677 Q178.936 384.784 180.741 388.349 Q182.57 391.89 186.181 391.89 Q189.815 391.89 191.621 388.349 Q193.45 384.784 193.45 377.677 Q193.45 370.548 191.621 367.006 Q189.815 363.441 186.181 363.441 M186.181 359.738 Q191.991 359.738 195.047 364.344 Q198.125 368.927 198.125 377.677 Q198.125 386.404 195.047 391.011 Q191.991 395.594 186.181 395.594 Q180.371 395.594 177.292 391.011 Q174.237 386.404 174.237 377.677 Q174.237 368.927 177.292 364.344 Q180.371 359.738 186.181 359.738 Z" fill="#000000" fill-rule="nonzero" fill-opacity="1" /><path clip-path="url(#clip600)" d="M216.343 363.441 Q212.732 363.441 210.903 367.006 Q209.098 370.548 209.098 377.677 Q209.098 384.784 210.903 388.349 Q212.732 391.89 216.343 391.89 Q219.977 391.89 221.783 388.349 Q223.611 384.784 223.611 377.677 Q223.611 370.548 221.783 367.006 Q219.977 363.441 216.343 363.441 M216.343 359.738 Q222.153 359.738 225.209 364.344 Q228.287 368.927 228.287 377.677 Q228.287 386.404 225.209 391.011 Q222.153 395.594 216.343 395.594 Q210.533 395.594 207.454 391.011 Q204.399 386.404 204.399 377.677 Q204.399 368.927 207.454 364.344 Q210.533 359.738 216.343 359.738 Z" fill="#000000" fill-rule="nonzero" fill-opacity="1" /><path clip-path="url(#clip600)" d="M119.885 138.799 L136.204 138.799 L136.204 142.734 L114.26 142.734 L114.26 138.799 Q116.922 136.045 121.505 131.415 Q126.112 126.762 127.292 125.42 Q129.538 122.896 130.417 121.16 Q131.32 119.401 131.32 117.711 Q131.32 114.957 129.376 113.221 Q127.455 111.484 124.353 111.484 Q122.154 111.484 119.7 112.248 Q117.269 113.012 114.492 114.563 L114.492 109.841 Q117.316 108.707 119.769 108.128 Q122.223 107.549 124.26 107.549 Q129.63 107.549 132.825 110.234 Q136.019 112.92 136.019 117.41 Q136.019 119.54 135.209 121.461 Q134.422 123.359 132.316 125.952 Q131.737 126.623 128.635 129.841 Q125.533 133.035 119.885 138.799 Z" fill="#000000" fill-rule="nonzero" fill-opacity="1" /><path clip-path="url(#clip600)" d="M146.066 108.174 L164.422 108.174 L164.422 112.109 L150.348 112.109 L150.348 120.582 Q151.366 120.234 152.385 120.072 Q153.403 119.887 154.422 119.887 Q160.209 119.887 163.589 123.059 Q166.968 126.23 166.968 131.646 Q166.968 137.225 163.496 140.327 Q160.024 143.406 153.704 143.406 Q151.528 143.406 149.26 143.035 Q147.015 142.665 144.607 141.924 L144.607 137.225 Q146.691 138.359 148.913 138.915 Q151.135 139.47 153.612 139.47 Q157.616 139.47 159.954 137.364 Q162.292 135.258 162.292 131.646 Q162.292 128.035 159.954 125.929 Q157.616 123.822 153.612 123.822 Q151.737 123.822 149.862 124.239 Q148.01 124.656 146.066 125.535 L146.066 108.174 Z" fill="#000000" fill-rule="nonzero" fill-opacity="1" /><path clip-path="url(#clip600)" d="M186.181 111.253 Q182.57 111.253 180.741 114.818 Q178.936 118.359 178.936 125.489 Q178.936 132.595 180.741 136.16 Q182.57 139.702 186.181 139.702 Q189.815 139.702 191.621 136.16 Q193.45 132.595 193.45 125.489 Q193.45 118.359 191.621 114.818 Q189.815 111.253 186.181 111.253 M186.181 107.549 Q191.991 107.549 195.047 112.156 Q198.125 116.739 198.125 125.489 Q198.125 134.216 195.047 138.822 Q191.991 143.406 186.181 143.406 Q180.371 143.406 177.292 138.822 Q174.237 134.216 174.237 125.489 Q174.237 116.739 177.292 112.156 Q180.371 107.549 186.181 107.549 Z" fill="#000000" fill-rule="nonzero" fill-opacity="1" /><path clip-path="url(#clip600)" d="M216.343 111.253 Q212.732 111.253 210.903 114.818 Q209.098 118.359 209.098 125.489 Q209.098 132.595 210.903 136.16 Q212.732 139.702 216.343 139.702 Q219.977 139.702 221.783 136.16 Q223.611 132.595 223.611 125.489 Q223.611 118.359 221.783 114.818 Q219.977 111.253 216.343 111.253 M216.343 107.549 Q222.153 107.549 225.209 112.156 Q228.287 116.739 228.287 125.489 Q228.287 134.216 225.209 138.822 Q222.153 143.406 216.343 143.406 Q210.533 143.406 207.454 138.822 Q204.399 134.216 204.399 125.489 Q204.399 116.739 207.454 112.156 Q210.533 107.549 216.343 107.549 Z" fill="#000000" fill-rule="nonzero" fill-opacity="1" /><path clip-path="url(#clip600)" d="M20.1444 845.354 L26.9239 845.354 Q23.9002 848.6 22.4043 852.293 Q20.9083 855.953 20.9083 860.091 Q20.9083 868.239 25.9054 872.567 Q30.8707 876.896 40.2919 876.896 Q49.6813 876.896 54.6784 872.567 Q59.6436 868.239 59.6436 860.091 Q59.6436 855.953 58.1477 852.293 Q56.6518 848.6 53.6281 845.354 L60.3439 845.354 Q62.6355 848.728 63.7814 852.515 Q64.9272 856.271 64.9272 860.473 Q64.9272 871.262 58.3387 877.469 Q51.7183 883.676 40.2919 883.676 Q28.8336 883.676 22.2451 877.469 Q15.6248 871.262 15.6248 860.473 Q15.6248 856.207 16.7706 852.452 Q17.8846 848.664 20.1444 845.354 Z" fill="#000000" fill-rule="nonzero" fill-opacity="1" /><path clip-path="url(#clip600)" d="M32.4621 821.864 Q32.4621 826.575 36.1542 829.312 Q39.8145 832.05 46.212 832.05 Q52.6095 832.05 56.3017 829.344 Q59.9619 826.607 59.9619 821.864 Q59.9619 817.186 56.2698 814.448 Q52.5777 811.711 46.212 811.711 Q39.8781 811.711 36.186 814.448 Q32.4621 817.186 32.4621 821.864 M27.4968 821.864 Q27.4968 814.226 32.4621 809.865 Q37.4273 805.505 46.212 805.505 Q54.9649 805.505 59.9619 809.865 Q64.9272 814.226 64.9272 821.864 Q64.9272 829.535 59.9619 833.896 Q54.9649 838.224 46.212 838.224 Q37.4273 838.224 32.4621 833.896 Q27.4968 829.535 27.4968 821.864 Z" fill="#000000" fill-rule="nonzero" fill-opacity="1" /><path clip-path="url(#clip600)" d="M49.9359 796.402 L28.3562 796.402 L28.3562 790.545 L49.7131 790.545 Q54.7739 790.545 57.3202 788.572 Q59.8346 786.598 59.8346 782.652 Q59.8346 777.909 56.8109 775.172 Q53.7872 772.403 48.5673 772.403 L28.3562 772.403 L28.3562 766.547 L64.0042 766.547 L64.0042 772.403 L58.5296 772.403 Q61.7762 774.535 63.3676 777.368 Q64.9272 780.169 64.9272 783.893 Q64.9272 790.036 61.1078 793.219 Q57.2883 796.402 49.9359 796.402 M27.4968 781.665 L27.4968 781.665 Z" fill="#000000" fill-rule="nonzero" fill-opacity="1" /><path clip-path="url(#clip600)" d="M42.4881 724.851 L64.0042 724.851 L64.0042 730.708 L42.679 730.708 Q37.6183 730.708 35.1038 732.681 Q32.5894 734.654 32.5894 738.601 Q32.5894 743.344 35.6131 746.081 Q38.6368 748.818 43.8567 748.818 L64.0042 748.818 L64.0042 754.706 L28.3562 754.706 L28.3562 748.818 L33.8944 748.818 Q30.6797 746.717 29.0883 743.885 Q27.4968 741.02 27.4968 737.296 Q27.4968 731.153 31.3163 728.002 Q35.1038 724.851 42.4881 724.851 Z" fill="#000000" fill-rule="nonzero" fill-opacity="1" /><path clip-path="url(#clip600)" d="M18.2347 707.377 L28.3562 707.377 L28.3562 695.314 L32.9077 695.314 L32.9077 707.377 L52.2594 707.377 Q56.6199 707.377 57.8613 706.2 Q59.1026 704.99 59.1026 701.33 L59.1026 695.314 L64.0042 695.314 L64.0042 701.33 Q64.0042 708.109 61.4897 710.687 Q58.9434 713.266 52.2594 713.266 L32.9077 713.266 L32.9077 717.562 L28.3562 717.562 L28.3562 713.266 L18.2347 713.266 L18.2347 707.377 Z" fill="#000000" fill-rule="nonzero" fill-opacity="1" /><path clip-path="url(#clip600)" d="M29.4065 664.886 L34.9447 664.886 Q33.6716 667.369 33.035 670.042 Q32.3984 672.716 32.3984 675.581 Q32.3984 679.941 33.7352 682.137 Q35.072 684.302 37.7456 684.302 Q39.7826 684.302 40.9603 682.742 Q42.1061 681.182 43.1565 676.472 L43.6021 674.467 Q44.9389 668.228 47.3897 665.618 Q49.8086 662.976 54.1691 662.976 Q59.1344 662.976 62.0308 666.923 Q64.9272 670.838 64.9272 677.713 Q64.9272 680.578 64.3543 683.697 Q63.8132 686.784 62.6992 690.222 L56.6518 690.222 Q58.3387 686.975 59.198 683.824 Q60.0256 680.673 60.0256 677.586 Q60.0256 673.448 58.6251 671.22 Q57.1929 668.992 54.6147 668.992 Q52.2276 668.992 50.9545 670.615 Q49.6813 672.207 48.5037 677.649 L48.0262 679.686 Q46.8804 685.129 44.5251 687.548 Q42.138 689.967 38.0002 689.967 Q32.9713 689.967 30.2341 686.402 Q27.4968 682.837 27.4968 676.281 Q27.4968 673.034 27.9743 670.17 Q28.4517 667.305 29.4065 664.886 Z" fill="#000000" fill-rule="nonzero" fill-opacity="1" /><path clip-path="url(#clip600)" d="M897.112 12.096 L935.352 12.096 L935.352 18.9825 L905.295 18.9825 L905.295 36.8875 L934.097 36.8875 L934.097 43.7741 L905.295 43.7741 L905.295 65.6895 L936.081 65.6895 L936.081 72.576 L897.112 72.576 L897.112 12.096 Z" fill="#000000" fill-rule="nonzero" fill-opacity="1" /><path clip-path="url(#clip600)" d="M949.206 9.54393 L956.66 9.54393 L956.66 72.576 L949.206 72.576 L949.206 9.54393 Z" fill="#000000" fill-rule="nonzero" fill-opacity="1" /><path clip-path="url(#clip600)" d="M992.875 49.7694 Q983.842 49.7694 980.358 51.8354 Q976.874 53.9013 976.874 58.8839 Q976.874 62.8538 979.467 65.2034 Q982.1 67.5124 986.596 67.5124 Q992.794 67.5124 996.521 63.1374 Q1000.29 58.7219 1000.29 51.4303 L1000.29 49.7694 L992.875 49.7694 M1007.74 46.6907 L1007.74 72.576 L1000.29 72.576 L1000.29 65.6895 Q997.736 69.8214 993.928 71.8063 Q990.121 73.7508 984.611 73.7508 Q977.644 73.7508 973.512 69.8619 Q969.42 65.9325 969.42 59.3701 Q969.42 51.7138 974.525 47.825 Q979.669 43.9361 989.837 43.9361 L1000.29 43.9361 L1000.29 43.2069 Q1000.29 38.0623 996.886 35.2672 Q993.523 32.4315 987.406 32.4315 Q983.518 32.4315 979.831 33.3632 Q976.145 34.295 972.742 36.1584 L972.742 29.2718 Q976.834 27.692 980.682 26.9223 Q984.53 26.1121 988.176 26.1121 Q998.02 26.1121 1002.88 31.2163 Q1007.74 36.3204 1007.74 46.6907 Z" fill="#000000" fill-rule="nonzero" fill-opacity="1" /><path clip-path="url(#clip600)" d="M1052.02 28.5427 L1052.02 35.5912 Q1048.86 33.9709 1045.46 33.1607 Q1042.05 32.3505 1038.41 32.3505 Q1032.86 32.3505 1030.06 34.0519 Q1027.31 35.7533 1027.31 39.156 Q1027.31 41.7486 1029.29 43.2475 Q1031.28 44.7058 1037.27 46.0426 L1039.83 46.6097 Q1047.76 48.3111 1051.09 51.4303 Q1054.45 54.509 1054.45 60.0587 Q1054.45 66.3781 1049.43 70.0644 Q1044.44 73.7508 1035.69 73.7508 Q1032.05 73.7508 1028.08 73.0216 Q1024.15 72.3329 1019.77 70.9151 L1019.77 63.2184 Q1023.91 65.3654 1027.92 66.4591 Q1031.93 67.5124 1035.86 67.5124 Q1041.12 67.5124 1043.96 65.73 Q1046.79 63.9071 1046.79 60.6258 Q1046.79 57.5877 1044.73 55.9673 Q1042.7 54.3469 1035.77 52.8481 L1033.18 52.2405 Q1026.25 50.7821 1023.18 47.7845 Q1020.1 44.7463 1020.1 39.4801 Q1020.1 33.0797 1024.63 29.5959 Q1029.17 26.1121 1037.52 26.1121 Q1041.65 26.1121 1045.29 26.7198 Q1048.94 27.3274 1052.02 28.5427 Z" fill="#000000" fill-rule="nonzero" fill-opacity="1" /><path clip-path="url(#clip600)" d="M1073.69 14.324 L1073.69 27.2059 L1089.04 27.2059 L1089.04 32.9987 L1073.69 32.9987 L1073.69 57.6282 Q1073.69 63.1779 1075.19 64.7578 Q1076.73 66.3376 1081.39 66.3376 L1089.04 66.3376 L1089.04 72.576 L1081.39 72.576 Q1072.76 72.576 1069.48 69.3758 Q1066.2 66.1351 1066.2 57.6282 L1066.2 32.9987 L1060.73 32.9987 L1060.73 27.2059 L1066.2 27.2059 L1066.2 14.324 L1073.69 14.324 Z" fill="#000000" fill-rule="nonzero" fill-opacity="1" /><path clip-path="url(#clip600)" d="M1098.85 27.2059 L1106.3 27.2059 L1106.3 72.576 L1098.85 72.576 L1098.85 27.2059 M1098.85 9.54393 L1106.3 9.54393 L1106.3 18.9825 L1098.85 18.9825 L1098.85 9.54393 Z" fill="#000000" fill-rule="nonzero" fill-opacity="1" /><path clip-path="url(#clip600)" d="M1154.55 28.9478 L1154.55 35.9153 Q1151.39 34.1734 1148.19 33.3227 Q1145.03 32.4315 1141.79 32.4315 Q1134.54 32.4315 1130.52 37.0496 Q1126.51 41.6271 1126.51 49.9314 Q1126.51 58.2358 1130.52 62.8538 Q1134.54 67.4314 1141.79 67.4314 Q1145.03 67.4314 1148.19 66.5807 Q1151.39 65.6895 1154.55 63.9476 L1154.55 70.8341 Q1151.43 72.2924 1148.07 73.0216 Q1144.74 73.7508 1140.98 73.7508 Q1130.73 73.7508 1124.69 67.3098 Q1118.66 60.8689 1118.66 49.9314 Q1118.66 38.832 1124.73 32.472 Q1130.85 26.1121 1141.46 26.1121 Q1144.91 26.1121 1148.19 26.8413 Q1151.47 27.5299 1154.55 28.9478 Z" fill="#000000" fill-rule="nonzero" fill-opacity="1" /><path clip-path="url(#clip600)" d="M1232.69 48.0275 L1232.69 51.6733 L1198.42 51.6733 Q1198.9 59.3701 1203.04 63.421 Q1207.21 67.4314 1214.62 67.4314 Q1218.92 67.4314 1222.93 66.3781 Q1226.98 65.3249 1230.95 63.2184 L1230.95 70.267 Q1226.94 71.9684 1222.72 72.8596 Q1218.51 73.7508 1214.18 73.7508 Q1203.32 73.7508 1196.96 67.4314 Q1190.64 61.1119 1190.64 50.3365 Q1190.64 39.1965 1196.64 32.6746 Q1202.67 26.1121 1212.88 26.1121 Q1222.03 26.1121 1227.34 32.0264 Q1232.69 37.9003 1232.69 48.0275 M1225.24 45.84 Q1225.15 39.7232 1221.79 36.0774 Q1218.47 32.4315 1212.96 32.4315 Q1206.72 32.4315 1202.96 35.9558 Q1199.23 39.4801 1198.66 45.8805 L1225.24 45.84 Z" fill="#000000" fill-rule="nonzero" fill-opacity="1" /><path clip-path="url(#clip600)" d="M1281.18 27.2059 L1264.77 49.2833 L1282.03 72.576 L1273.24 72.576 L1260.03 54.752 L1246.83 72.576 L1238.04 72.576 L1255.66 48.8377 L1239.53 27.2059 L1248.33 27.2059 L1260.36 43.369 L1272.39 27.2059 L1281.18 27.2059 Z" fill="#000000" fill-rule="nonzero" fill-opacity="1" /><path clip-path="url(#clip600)" d="M1292.56 27.2059 L1300.01 27.2059 L1300.01 72.576 L1292.56 72.576 L1292.56 27.2059 M1292.56 9.54393 L1300.01 9.54393 L1300.01 18.9825 L1292.56 18.9825 L1292.56 9.54393 Z" fill="#000000" fill-rule="nonzero" fill-opacity="1" /><path clip-path="url(#clip600)" d="M1322.98 14.324 L1322.98 27.2059 L1338.34 27.2059 L1338.34 32.9987 L1322.98 32.9987 L1322.98 57.6282 Q1322.98 63.1779 1324.48 64.7578 Q1326.02 66.3376 1330.68 66.3376 L1338.34 66.3376 L1338.34 72.576 L1330.68 72.576 Q1322.05 72.576 1318.77 69.3758 Q1315.49 66.1351 1315.49 57.6282 L1315.49 32.9987 L1310.02 32.9987 L1310.02 27.2059 L1315.49 27.2059 L1315.49 14.324 L1322.98 14.324 Z" fill="#000000" fill-rule="nonzero" fill-opacity="1" /><path clip-path="url(#clip600)" d="M1413.32 48.0275 L1413.32 51.6733 L1379.05 51.6733 Q1379.53 59.3701 1383.67 63.421 Q1387.84 67.4314 1395.25 67.4314 Q1399.55 67.4314 1403.56 66.3781 Q1407.61 65.3249 1411.58 63.2184 L1411.58 70.267 Q1407.57 71.9684 1403.35 72.8596 Q1399.14 73.7508 1394.81 73.7508 Q1383.95 73.7508 1377.59 67.4314 Q1371.27 61.1119 1371.27 50.3365 Q1371.27 39.1965 1377.27 32.6746 Q1383.3 26.1121 1393.51 26.1121 Q1402.66 26.1121 1407.97 32.0264 Q1413.32 37.9003 1413.32 48.0275 M1405.86 45.84 Q1405.78 39.7232 1402.42 36.0774 Q1399.1 32.4315 1393.59 32.4315 Q1387.35 32.4315 1383.58 35.9558 Q1379.86 39.4801 1379.29 45.8805 L1405.86 45.84 Z" fill="#000000" fill-rule="nonzero" fill-opacity="1" /><path clip-path="url(#clip600)" d="M1463.27 45.1919 L1463.27 72.576 L1455.81 72.576 L1455.81 45.4349 Q1455.81 38.994 1453.3 35.7938 Q1450.79 32.5936 1445.77 32.5936 Q1439.73 32.5936 1436.25 36.4419 Q1432.76 40.2903 1432.76 46.9338 L1432.76 72.576 L1425.27 72.576 L1425.27 27.2059 L1432.76 27.2059 L1432.76 34.2544 Q1435.44 30.163 1439.04 28.1376 Q1442.69 26.1121 1447.43 26.1121 Q1455.25 26.1121 1459.26 30.9732 Q1463.27 35.7938 1463.27 45.1919 Z" fill="#000000" fill-rule="nonzero" fill-opacity="1" /><path clip-path="url(#clip600)" d="M1516.94 48.0275 L1516.94 51.6733 L1482.67 51.6733 Q1483.16 59.3701 1487.29 63.421 Q1491.46 67.4314 1498.87 67.4314 Q1503.17 67.4314 1507.18 66.3781 Q1511.23 65.3249 1515.2 63.2184 L1515.2 70.267 Q1511.19 71.9684 1506.98 72.8596 Q1502.76 73.7508 1498.43 73.7508 Q1487.57 73.7508 1481.21 67.4314 Q1474.89 61.1119 1474.89 50.3365 Q1474.89 39.1965 1480.89 32.6746 Q1486.92 26.1121 1497.13 26.1121 Q1506.29 26.1121 1511.59 32.0264 Q1516.94 37.9003 1516.94 48.0275 M1509.49 45.84 Q1509.41 39.7232 1506.04 36.0774 Q1502.72 32.4315 1497.21 32.4315 Q1490.97 32.4315 1487.21 35.9558 Q1483.48 39.4801 1482.91 45.8805 L1509.49 45.84 Z" fill="#000000" fill-rule="nonzero" fill-opacity="1" /><path clip-path="url(#clip600)" d="M1555.46 34.1734 Q1554.21 33.4443 1552.71 33.1202 Q1551.25 32.7556 1549.47 32.7556 Q1543.15 32.7556 1539.75 36.8875 Q1536.38 40.9789 1536.38 48.6757 L1536.38 72.576 L1528.89 72.576 L1528.89 27.2059 L1536.38 27.2059 L1536.38 34.2544 Q1538.73 30.1225 1542.5 28.1376 Q1546.27 26.1121 1551.66 26.1121 Q1552.43 26.1121 1553.36 26.2337 Q1554.29 26.3147 1555.42 26.5172 L1555.46 34.1734 Z" fill="#000000" fill-rule="nonzero" fill-opacity="1" /><path clip-path="url(#clip600)" d="M1591.68 49.3643 Q1591.68 41.2625 1588.32 36.8065 Q1585 32.3505 1578.96 32.3505 Q1572.96 32.3505 1569.6 36.8065 Q1566.28 41.2625 1566.28 49.3643 Q1566.28 57.4256 1569.6 61.8816 Q1572.96 66.3376 1578.96 66.3376 Q1585 66.3376 1588.32 61.8816 Q1591.68 57.4256 1591.68 49.3643 M1599.13 66.9452 Q1599.13 78.5308 1593.99 84.1616 Q1588.84 89.8329 1578.23 89.8329 Q1574.3 89.8329 1570.82 89.2252 Q1567.33 88.6581 1564.05 87.4428 L1564.05 80.1917 Q1567.33 81.9741 1570.53 82.8248 Q1573.73 83.6755 1577.06 83.6755 Q1584.39 83.6755 1588.03 79.8271 Q1591.68 76.0193 1591.68 68.282 L1591.68 64.5957 Q1589.37 68.6061 1585.77 70.5911 Q1582.16 72.576 1577.14 72.576 Q1568.79 72.576 1563.69 66.2161 Q1558.58 59.8562 1558.58 49.3643 Q1558.58 38.832 1563.69 32.472 Q1568.79 26.1121 1577.14 26.1121 Q1582.16 26.1121 1585.77 28.0971 Q1589.37 30.082 1591.68 34.0924 L1591.68 27.2059 L1599.13 27.2059 L1599.13 66.9452 Z" fill="#000000" fill-rule="nonzero" fill-opacity="1" /><path clip-path="url(#clip600)" d="M1614.49 27.2059 L1621.94 27.2059 L1621.94 72.576 L1614.49 72.576 L1614.49 27.2059 M1614.49 9.54393 L1621.94 9.54393 L1621.94 18.9825 L1614.49 18.9825 L1614.49 9.54393 Z" fill="#000000" fill-rule="nonzero" fill-opacity="1" /><path clip-path="url(#clip600)" d="M1676.34 48.0275 L1676.34 51.6733 L1642.07 51.6733 Q1642.56 59.3701 1646.69 63.421 Q1650.86 67.4314 1658.28 67.4314 Q1662.57 67.4314 1666.58 66.3781 Q1670.63 65.3249 1674.6 63.2184 L1674.6 70.267 Q1670.59 71.9684 1666.38 72.8596 Q1662.17 73.7508 1657.83 73.7508 Q1646.97 73.7508 1640.61 67.4314 Q1634.3 61.1119 1634.3 50.3365 Q1634.3 39.1965 1640.29 32.6746 Q1646.33 26.1121 1656.53 26.1121 Q1665.69 26.1121 1671 32.0264 Q1676.34 37.9003 1676.34 48.0275 M1668.89 45.84 Q1668.81 39.7232 1665.45 36.0774 Q1662.13 32.4315 1656.62 32.4315 Q1650.38 32.4315 1646.61 35.9558 Q1642.88 39.4801 1642.32 45.8805 L1668.89 45.84 Z" fill="#000000" fill-rule="nonzero" fill-opacity="1" /><path clip-path="url(#clip600)" d="M1717.5 28.5427 L1717.5 35.5912 Q1714.34 33.9709 1710.94 33.1607 Q1707.54 32.3505 1703.89 32.3505 Q1698.34 32.3505 1695.55 34.0519 Q1692.79 35.7533 1692.79 39.156 Q1692.79 41.7486 1694.78 43.2475 Q1696.76 44.7058 1702.76 46.0426 L1705.31 46.6097 Q1713.25 48.3111 1716.57 51.4303 Q1719.93 54.509 1719.93 60.0587 Q1719.93 66.3781 1714.91 70.0644 Q1709.93 73.7508 1701.18 73.7508 Q1697.53 73.7508 1693.56 73.0216 Q1689.63 72.3329 1685.26 70.9151 L1685.26 63.2184 Q1689.39 65.3654 1693.4 66.4591 Q1697.41 67.5124 1701.34 67.5124 Q1706.6 67.5124 1709.44 65.73 Q1712.28 63.9071 1712.28 60.6258 Q1712.28 57.5877 1710.21 55.9673 Q1708.18 54.3469 1701.26 52.8481 L1698.66 52.2405 Q1691.74 50.7821 1688.66 47.7845 Q1685.58 44.7463 1685.58 39.4801 Q1685.58 33.0797 1690.12 29.5959 Q1694.65 26.1121 1703 26.1121 Q1707.13 26.1121 1710.78 26.7198 Q1714.42 27.3274 1717.5 28.5427 Z" fill="#000000" fill-rule="nonzero" fill-opacity="1" /><polyline clip-path="url(#clip602)" style="stroke:#000000; stroke-linecap:round; stroke-linejoin:round; stroke-width:8; stroke-opacity:0.75; fill:none" points="323.395,1386.4 323.395,1248.7 349.319,1248.7 349.319,1117.56 375.244,1117.56 375.244,1046.95 401.168,1046.95 401.168,1011.14 427.092,1011.14 427.092,987.434 453.017,987.434 453.017,966.754 478.941,966.754 478.941,970.789 504.866,970.789 504.866,973.816 530.79,973.816 530.79,977.346 556.714,977.346 556.714,975.833 582.639,975.833 582.639,987.434 608.563,987.434 608.563,986.425 634.488,986.425 634.488,1002.06 660.412,1002.06 660.412,1026.78 686.336,1026.78 686.336,1028.79 712.261,1028.79 712.261,1030.31 738.185,1030.31 738.185,1028.29 764.109,1028.29 764.109,1071.16 790.034,1071.16 790.034,1090.83 815.958,1090.83 815.958,1068.13 841.883,1068.13 841.883,1079.23 867.807,1079.23 867.807,1108.99 893.731,1108.99 893.731,1110 919.656,1110 919.656,1116.05 945.58,1116.05 945.58,1098.4 971.505,1098.4 971.505,1135.22 997.429,1135.22 997.429,1129.67 1023.35,1129.67 1023.35,1138.75 1049.28,1138.75 1049.28,1133.7 1075.2,1133.7 1075.2,1129.67 1101.13,1129.67 1101.13,1126.64 1127.05,1126.64 1127.05,1131.18 1152.98,1131.18 1152.98,1148.33 1178.9,1148.33 1178.9,1149.84 1204.82,1149.84 1204.82,1128.15 1230.75,1128.15 1230.75,1143.79 1256.67,1143.79 1256.67,1161.95 1282.6,1161.95 1282.6,1139.25 1308.52,1139.25 1308.52,1131.69 1334.45,1131.69 1334.45,1129.16 1360.37,1129.16 1360.37,1135.72 1386.29,1135.72 1386.29,1118.07 1412.22,1118.07 1412.22,1094.87 1438.14,1094.87 1438.14,1083.27 1464.07,1083.27 1464.07,1092.85 1489.99,1092.85 1489.99,1076.71 1515.92,1076.71 1515.92,1075.7 1541.84,1075.7 1541.84,1056.53 1567.77,1056.53 1567.77,1044.93 1593.69,1044.93 1593.69,1024.76 1619.61,1024.76 1619.61,995.504 1645.54,995.504 1645.54,1001.56 1671.46,1001.56 1671.46,975.329 1697.39,975.329 1697.39,980.877 1723.31,980.877 1723.31,927.917 1749.24,927.917 1749.24,933.97 1775.16,933.97 1775.16,895.133 1801.08,895.133 1801.08,856.296 1827.01,856.296 1827.01,788.709 1852.93,788.709 1852.93,792.24 1878.86,792.24 1878.86,748.864 1904.78,748.864 1904.78,717.088 1930.71,717.088 1930.71,712.044 1956.63,712.044 1956.63,685.817 1982.56,685.817 1982.56,613.186 2008.48,613.186 2008.48,541.565 2034.4,541.565 2034.4,533.999 2060.33,533.999 2060.33,459.352 2086.25,459.352 2086.25,426.063 2112.18,426.063 2112.18,346.876 2138.1,346.876 2138.1,318.631 2164.03,318.631 2164.03,230.869 2189.95,230.869 2189.95,160.256 2215.88,160.256 2215.88,240.957 2241.8,240.957 2241.8,968.772 2267.72,968.772 2267.72,1386.4 "/>
<polyline clip-path="url(#clip602)" style="stroke:#0000ff; stroke-linecap:round; stroke-linejoin:round; stroke-width:8; stroke-opacity:0.75; fill:none" points="323.395,1386.4 323.395,1383.87 349.319,1383.87 349.319,1385.89 375.244,1385.89 375.244,1386.4 401.168,1386.4 427.092,1386.4 453.017,1386.4 478.941,1386.4 504.866,1386.4 530.79,1386.4 556.714,1386.4 582.639,1386.4 608.563,1386.4 634.488,1386.4 660.412,1386.4 686.336,1386.4 712.261,1386.4 738.185,1386.4 764.109,1386.4 790.034,1386.4 815.958,1386.4 841.883,1386.4 867.807,1386.4 893.731,1386.4 893.731,1385.89 919.656,1385.89 919.656,1386.4 945.58,1386.4 971.505,1386.4 997.429,1386.4 1023.35,1386.4 1049.28,1386.4 1075.2,1386.4 1101.13,1386.4 1127.05,1386.4 1152.98,1386.4 1178.9,1386.4 1204.82,1386.4 1230.75,1386.4 1256.67,1386.4 1282.6,1386.4 1308.52,1386.4 1334.45,1386.4 1360.37,1386.4 1386.29,1386.4 1412.22,1386.4 1438.14,1386.4 1464.07,1386.4 1489.99,1386.4 1515.92,1386.4 1541.84,1386.4 1567.77,1386.4 1593.69,1386.4 1619.61,1386.4 1645.54,1386.4 1671.46,1386.4 1697.39,1386.4 1723.31,1386.4 1749.24,1386.4 1775.16,1386.4 1801.08,1386.4 1827.01,1386.4 1852.93,1386.4 1878.86,1386.4 1904.78,1386.4 1930.71,1386.4 1956.63,1386.4 1982.56,1386.4 2008.48,1386.4 2034.4,1386.4 2060.33,1386.4 2086.25,1386.4 2112.18,1386.4 2138.1,1386.4 2164.03,1386.4 2189.95,1386.4 2215.88,1386.4 2241.8,1386.4 2241.8,1085.28 2267.72,1085.28 2267.72,1359.66 2293.65,1359.66 2293.65,1386.4 "/>
<path clip-path="url(#clip600)" d="M333.903 322.316 L985.618 322.316 L985.618 166.796 L333.903 166.796  Z" fill="#ffffff" fill-rule="evenodd" fill-opacity="1"/>
<polyline clip-path="url(#clip600)" style="stroke:#000000; stroke-linecap:round; stroke-linejoin:round; stroke-width:4; stroke-opacity:1; fill:none" points="333.903,322.316 985.618,322.316 985.618,166.796 333.903,166.796 333.903,322.316 "/>
<polyline clip-path="url(#clip600)" style="stroke:#000000; stroke-linecap:round; stroke-linejoin:round; stroke-width:8; stroke-opacity:0.75; fill:none" points="357.108,218.636 496.339,218.636 "/>
<path clip-path="url(#clip600)" d="M519.545 201.356 L541.396 201.356 L541.396 205.291 L524.22 205.291 L524.22 215.522 L540.679 215.522 L540.679 219.457 L524.22 219.457 L524.22 231.981 L541.813 231.981 L541.813 235.916 L519.545 235.916 L519.545 201.356 Z" fill="#000000" fill-rule="nonzero" fill-opacity="1" /><path clip-path="url(#clip600)" d="M549.313 199.897 L553.572 199.897 L553.572 235.916 L549.313 235.916 L549.313 199.897 Z" fill="#000000" fill-rule="nonzero" fill-opacity="1" /><path clip-path="url(#clip600)" d="M574.267 222.883 Q569.105 222.883 567.114 224.064 Q565.123 225.244 565.123 228.092 Q565.123 230.36 566.605 231.703 Q568.109 233.022 570.679 233.022 Q574.22 233.022 576.35 230.522 Q578.503 227.999 578.503 223.832 L578.503 222.883 L574.267 222.883 M582.762 221.124 L582.762 235.916 L578.503 235.916 L578.503 231.981 Q577.044 234.342 574.868 235.476 Q572.692 236.587 569.544 236.587 Q565.563 236.587 563.202 234.365 Q560.864 232.119 560.864 228.369 Q560.864 223.994 563.78 221.772 Q566.72 219.55 572.53 219.55 L578.503 219.55 L578.503 219.133 Q578.503 216.194 576.558 214.596 Q574.637 212.976 571.142 212.976 Q568.919 212.976 566.813 213.508 Q564.706 214.041 562.762 215.106 L562.762 211.17 Q565.1 210.268 567.299 209.828 Q569.498 209.365 571.581 209.365 Q577.206 209.365 579.984 212.282 Q582.762 215.198 582.762 221.124 Z" fill="#000000" fill-rule="nonzero" fill-opacity="1" /><path clip-path="url(#clip600)" d="M608.063 210.754 L608.063 214.782 Q606.257 213.856 604.313 213.393 Q602.368 212.93 600.285 212.93 Q597.114 212.93 595.516 213.902 Q593.942 214.874 593.942 216.819 Q593.942 218.3 595.077 219.157 Q596.211 219.99 599.637 220.754 L601.095 221.078 Q605.632 222.05 607.53 223.832 Q609.452 225.592 609.452 228.763 Q609.452 232.374 606.581 234.481 Q603.734 236.587 598.734 236.587 Q596.651 236.587 594.382 236.17 Q592.137 235.777 589.637 234.967 L589.637 230.569 Q591.998 231.795 594.29 232.42 Q596.581 233.022 598.827 233.022 Q601.836 233.022 603.456 232.004 Q605.077 230.962 605.077 229.087 Q605.077 227.351 603.896 226.425 Q602.739 225.499 598.78 224.643 L597.299 224.295 Q593.34 223.462 591.581 221.749 Q589.822 220.013 589.822 217.004 Q589.822 213.346 592.415 211.356 Q595.007 209.365 599.776 209.365 Q602.137 209.365 604.22 209.712 Q606.303 210.059 608.063 210.754 Z" fill="#000000" fill-rule="nonzero" fill-opacity="1" /><path clip-path="url(#clip600)" d="M620.447 202.629 L620.447 209.99 L629.22 209.99 L629.22 213.3 L620.447 213.3 L620.447 227.374 Q620.447 230.545 621.303 231.448 Q622.183 232.351 624.845 232.351 L629.22 232.351 L629.22 235.916 L624.845 235.916 Q619.914 235.916 618.039 234.087 Q616.164 232.235 616.164 227.374 L616.164 213.3 L613.039 213.3 L613.039 209.99 L616.164 209.99 L616.164 202.629 L620.447 202.629 Z" fill="#000000" fill-rule="nonzero" fill-opacity="1" /><path clip-path="url(#clip600)" d="M634.822 209.99 L639.081 209.99 L639.081 235.916 L634.822 235.916 L634.822 209.99 M634.822 199.897 L639.081 199.897 L639.081 205.291 L634.822 205.291 L634.822 199.897 Z" fill="#000000" fill-rule="nonzero" fill-opacity="1" /><path clip-path="url(#clip600)" d="M666.65 210.985 L666.65 214.967 Q664.845 213.971 663.016 213.485 Q661.211 212.976 659.359 212.976 Q655.215 212.976 652.924 215.615 Q650.632 218.231 650.632 222.976 Q650.632 227.721 652.924 230.36 Q655.215 232.976 659.359 232.976 Q661.211 232.976 663.016 232.49 Q664.845 231.981 666.65 230.985 L666.65 234.92 Q664.868 235.754 662.947 236.17 Q661.048 236.587 658.896 236.587 Q653.039 236.587 649.59 232.906 Q646.141 229.226 646.141 222.976 Q646.141 216.633 649.613 212.999 Q653.109 209.365 659.173 209.365 Q661.141 209.365 663.016 209.782 Q664.891 210.175 666.65 210.985 Z" fill="#000000" fill-rule="nonzero" fill-opacity="1" /><path clip-path="url(#clip600)" d="M693.247 232.027 L693.247 245.777 L688.965 245.777 L688.965 209.99 L693.247 209.99 L693.247 213.925 Q694.59 211.61 696.627 210.499 Q698.687 209.365 701.534 209.365 Q706.257 209.365 709.196 213.115 Q712.159 216.865 712.159 222.976 Q712.159 229.087 709.196 232.837 Q706.257 236.587 701.534 236.587 Q698.687 236.587 696.627 235.476 Q694.59 234.342 693.247 232.027 M707.738 222.976 Q707.738 218.277 705.794 215.615 Q703.872 212.93 700.493 212.93 Q697.113 212.93 695.169 215.615 Q693.247 218.277 693.247 222.976 Q693.247 227.675 695.169 230.36 Q697.113 233.022 700.493 233.022 Q703.872 233.022 705.794 230.36 Q707.738 227.675 707.738 222.976 Z" fill="#000000" fill-rule="nonzero" fill-opacity="1" /><path clip-path="url(#clip600)" d="M734.243 213.971 Q733.525 213.555 732.668 213.37 Q731.835 213.161 730.817 213.161 Q727.206 213.161 725.261 215.522 Q723.34 217.86 723.34 222.258 L723.34 235.916 L719.057 235.916 L719.057 209.99 L723.34 209.99 L723.34 214.018 Q724.682 211.657 726.835 210.522 Q728.988 209.365 732.067 209.365 Q732.506 209.365 733.039 209.434 Q733.571 209.481 734.219 209.596 L734.243 213.971 Z" fill="#000000" fill-rule="nonzero" fill-opacity="1" /><path clip-path="url(#clip600)" d="M747.715 212.976 Q744.289 212.976 742.298 215.661 Q740.307 218.323 740.307 222.976 Q740.307 227.629 742.275 230.314 Q744.266 232.976 747.715 232.976 Q751.117 232.976 753.108 230.291 Q755.099 227.606 755.099 222.976 Q755.099 218.37 753.108 215.684 Q751.117 212.976 747.715 212.976 M747.715 209.365 Q753.27 209.365 756.441 212.976 Q759.613 216.587 759.613 222.976 Q759.613 229.342 756.441 232.976 Q753.27 236.587 747.715 236.587 Q742.136 236.587 738.965 232.976 Q735.817 229.342 735.817 222.976 Q735.817 216.587 738.965 212.976 Q742.136 209.365 747.715 209.365 Z" fill="#000000" fill-rule="nonzero" fill-opacity="1" /><path clip-path="url(#clip600)" d="M770.886 202.629 L770.886 209.99 L779.659 209.99 L779.659 213.3 L770.886 213.3 L770.886 227.374 Q770.886 230.545 771.742 231.448 Q772.622 232.351 775.284 232.351 L779.659 232.351 L779.659 235.916 L775.284 235.916 Q770.353 235.916 768.478 234.087 Q766.603 232.235 766.603 227.374 L766.603 213.3 L763.478 213.3 L763.478 209.99 L766.603 209.99 L766.603 202.629 L770.886 202.629 Z" fill="#000000" fill-rule="nonzero" fill-opacity="1" /><path clip-path="url(#clip600)" d="M795.307 212.976 Q791.881 212.976 789.89 215.661 Q787.9 218.323 787.9 222.976 Q787.9 227.629 789.867 230.314 Q791.858 232.976 795.307 232.976 Q798.71 232.976 800.7 230.291 Q802.691 227.606 802.691 222.976 Q802.691 218.37 800.7 215.684 Q798.71 212.976 795.307 212.976 M795.307 209.365 Q800.863 209.365 804.034 212.976 Q807.205 216.587 807.205 222.976 Q807.205 229.342 804.034 232.976 Q800.863 236.587 795.307 236.587 Q789.728 236.587 786.557 232.976 Q783.409 229.342 783.409 222.976 Q783.409 216.587 786.557 212.976 Q789.728 209.365 795.307 209.365 Z" fill="#000000" fill-rule="nonzero" fill-opacity="1" /><path clip-path="url(#clip600)" d="M835.816 220.268 L835.816 235.916 L831.557 235.916 L831.557 220.407 Q831.557 216.726 830.122 214.897 Q828.686 213.069 825.816 213.069 Q822.367 213.069 820.376 215.268 Q818.386 217.467 818.386 221.263 L818.386 235.916 L814.103 235.916 L814.103 209.99 L818.386 209.99 L818.386 214.018 Q819.913 211.68 821.974 210.522 Q824.057 209.365 826.765 209.365 Q831.233 209.365 833.524 212.143 Q835.816 214.897 835.816 220.268 Z" fill="#000000" fill-rule="nonzero" fill-opacity="1" /><path clip-path="url(#clip600)" d="M860.839 210.754 L860.839 214.782 Q859.034 213.856 857.089 213.393 Q855.145 212.93 853.061 212.93 Q849.89 212.93 848.293 213.902 Q846.719 214.874 846.719 216.819 Q846.719 218.3 847.853 219.157 Q848.987 219.99 852.413 220.754 L853.872 221.078 Q858.409 222.05 860.307 223.832 Q862.228 225.592 862.228 228.763 Q862.228 232.374 859.358 234.481 Q856.51 236.587 851.51 236.587 Q849.427 236.587 847.159 236.17 Q844.913 235.777 842.413 234.967 L842.413 230.569 Q844.774 231.795 847.066 232.42 Q849.358 233.022 851.603 233.022 Q854.612 233.022 856.233 232.004 Q857.853 230.962 857.853 229.087 Q857.853 227.351 856.672 226.425 Q855.515 225.499 851.557 224.643 L850.075 224.295 Q846.117 223.462 844.358 221.749 Q842.598 220.013 842.598 217.004 Q842.598 213.346 845.191 211.356 Q847.784 209.365 852.552 209.365 Q854.913 209.365 856.996 209.712 Q859.08 210.059 860.839 210.754 Z" fill="#000000" fill-rule="nonzero" fill-opacity="1" /><polyline clip-path="url(#clip600)" style="stroke:#0000ff; stroke-linecap:round; stroke-linejoin:round; stroke-width:8; stroke-opacity:0.75; fill:none" points="357.108,270.476 496.339,270.476 "/>
<path clip-path="url(#clip600)" d="M519.545 253.196 L525.841 253.196 L541.165 282.108 L541.165 253.196 L545.702 253.196 L545.702 287.756 L539.406 287.756 L524.082 258.844 L524.082 287.756 L519.545 287.756 L519.545 253.196 Z" fill="#000000" fill-rule="nonzero" fill-opacity="1" /><path clip-path="url(#clip600)" d="M576.998 273.728 L576.998 275.811 L557.415 275.811 Q557.693 280.209 560.054 282.524 Q562.438 284.816 566.674 284.816 Q569.128 284.816 571.419 284.214 Q573.734 283.612 576.003 282.409 L576.003 286.436 Q573.711 287.408 571.304 287.918 Q568.896 288.427 566.419 288.427 Q560.216 288.427 556.581 284.816 Q552.97 281.205 552.97 275.047 Q552.97 268.682 556.396 264.955 Q559.845 261.205 565.679 261.205 Q570.91 261.205 573.942 264.585 Q576.998 267.941 576.998 273.728 M572.739 272.478 Q572.692 268.983 570.771 266.899 Q568.873 264.816 565.725 264.816 Q562.16 264.816 560.007 266.83 Q557.878 268.844 557.554 272.501 L572.739 272.478 Z" fill="#000000" fill-rule="nonzero" fill-opacity="1" /><path clip-path="url(#clip600)" d="M583.549 277.524 L583.549 261.83 L587.808 261.83 L587.808 277.362 Q587.808 281.043 589.243 282.895 Q590.678 284.723 593.549 284.723 Q596.998 284.723 598.989 282.524 Q601.002 280.325 601.002 276.529 L601.002 261.83 L605.262 261.83 L605.262 287.756 L601.002 287.756 L601.002 283.774 Q599.452 286.135 597.391 287.293 Q595.354 288.427 592.646 288.427 Q588.178 288.427 585.864 285.649 Q583.549 282.871 583.549 277.524 M594.266 261.205 L594.266 261.205 Z" fill="#000000" fill-rule="nonzero" fill-opacity="1" /><path clip-path="url(#clip600)" d="M618.248 254.469 L618.248 261.83 L627.021 261.83 L627.021 265.14 L618.248 265.14 L618.248 279.214 Q618.248 282.385 619.104 283.288 Q619.984 284.191 622.646 284.191 L627.021 284.191 L627.021 287.756 L622.646 287.756 Q617.715 287.756 615.84 285.927 Q613.965 284.075 613.965 279.214 L613.965 265.14 L610.84 265.14 L610.84 261.83 L613.965 261.83 L613.965 254.469 L618.248 254.469 Z" fill="#000000" fill-rule="nonzero" fill-opacity="1" /><path clip-path="url(#clip600)" d="M647.646 265.811 Q646.928 265.395 646.072 265.21 Q645.238 265.001 644.22 265.001 Q640.609 265.001 638.664 267.362 Q636.743 269.7 636.743 274.098 L636.743 287.756 L632.461 287.756 L632.461 261.83 L636.743 261.83 L636.743 265.858 Q638.086 263.497 640.238 262.362 Q642.391 261.205 645.47 261.205 Q645.91 261.205 646.442 261.274 Q646.974 261.321 647.623 261.436 L647.646 265.811 Z" fill="#000000" fill-rule="nonzero" fill-opacity="1" /><path clip-path="url(#clip600)" d="M661.118 264.816 Q657.692 264.816 655.701 267.501 Q653.711 270.163 653.711 274.816 Q653.711 279.469 655.678 282.154 Q657.669 284.816 661.118 284.816 Q664.521 284.816 666.511 282.131 Q668.502 279.446 668.502 274.816 Q668.502 270.21 666.511 267.524 Q664.521 264.816 661.118 264.816 M661.118 261.205 Q666.673 261.205 669.845 264.816 Q673.016 268.427 673.016 274.816 Q673.016 281.182 669.845 284.816 Q666.673 288.427 661.118 288.427 Q655.539 288.427 652.368 284.816 Q649.22 281.182 649.22 274.816 Q649.22 268.427 652.368 264.816 Q655.539 261.205 661.118 261.205 Z" fill="#000000" fill-rule="nonzero" fill-opacity="1" /><path clip-path="url(#clip600)" d="M701.627 272.108 L701.627 287.756 L697.368 287.756 L697.368 272.247 Q697.368 268.566 695.933 266.737 Q694.497 264.909 691.627 264.909 Q688.178 264.909 686.187 267.108 Q684.196 269.307 684.196 273.103 L684.196 287.756 L679.914 287.756 L679.914 261.83 L684.196 261.83 L684.196 265.858 Q685.724 263.52 687.784 262.362 Q689.868 261.205 692.576 261.205 Q697.044 261.205 699.335 263.983 Q701.627 266.737 701.627 272.108 Z" fill="#000000" fill-rule="nonzero" fill-opacity="1" /><path clip-path="url(#clip600)" d="M738.317 251.737 L738.317 255.279 L734.243 255.279 Q731.951 255.279 731.048 256.205 Q730.168 257.131 730.168 259.538 L730.168 261.83 L737.182 261.83 L737.182 265.14 L730.168 265.14 L730.168 287.756 L725.886 287.756 L725.886 265.14 L721.812 265.14 L721.812 261.83 L725.886 261.83 L725.886 260.024 Q725.886 255.696 727.9 253.728 Q729.914 251.737 734.289 251.737 L738.317 251.737 Z" fill="#000000" fill-rule="nonzero" fill-opacity="1" /><path clip-path="url(#clip600)" d="M756.904 265.811 Q756.187 265.395 755.33 265.21 Q754.497 265.001 753.479 265.001 Q749.867 265.001 747.923 267.362 Q746.002 269.7 746.002 274.098 L746.002 287.756 L741.719 287.756 L741.719 261.83 L746.002 261.83 L746.002 265.858 Q747.344 263.497 749.497 262.362 Q751.65 261.205 754.729 261.205 Q755.168 261.205 755.701 261.274 Q756.233 261.321 756.881 261.436 L756.904 265.811 Z" fill="#000000" fill-rule="nonzero" fill-opacity="1" /><path clip-path="url(#clip600)" d="M773.154 274.723 Q767.992 274.723 766.002 275.904 Q764.011 277.084 764.011 279.932 Q764.011 282.2 765.492 283.543 Q766.997 284.862 769.566 284.862 Q773.108 284.862 775.238 282.362 Q777.39 279.839 777.39 275.672 L777.39 274.723 L773.154 274.723 M781.65 272.964 L781.65 287.756 L777.39 287.756 L777.39 283.821 Q775.932 286.182 773.756 287.316 Q771.58 288.427 768.432 288.427 Q764.451 288.427 762.09 286.205 Q759.752 283.959 759.752 280.209 Q759.752 275.834 762.668 273.612 Q765.608 271.39 771.418 271.39 L777.39 271.39 L777.39 270.973 Q777.39 268.034 775.446 266.436 Q773.525 264.816 770.029 264.816 Q767.807 264.816 765.701 265.348 Q763.594 265.881 761.65 266.946 L761.65 263.01 Q763.988 262.108 766.187 261.668 Q768.386 261.205 770.469 261.205 Q776.094 261.205 778.872 264.122 Q781.65 267.038 781.65 272.964 Z" fill="#000000" fill-rule="nonzero" fill-opacity="1" /><path clip-path="url(#clip600)" d="M807.483 274.492 Q807.483 269.862 805.562 267.316 Q803.663 264.77 800.214 264.77 Q796.788 264.77 794.867 267.316 Q792.969 269.862 792.969 274.492 Q792.969 279.098 794.867 281.645 Q796.788 284.191 800.214 284.191 Q803.663 284.191 805.562 281.645 Q807.483 279.098 807.483 274.492 M811.742 284.538 Q811.742 291.158 808.802 294.376 Q805.863 297.617 799.798 297.617 Q797.552 297.617 795.562 297.27 Q793.571 296.945 791.696 296.251 L791.696 292.108 Q793.571 293.126 795.4 293.612 Q797.228 294.098 799.126 294.098 Q803.316 294.098 805.4 291.899 Q807.483 289.723 807.483 285.302 L807.483 283.196 Q806.163 285.487 804.103 286.621 Q802.043 287.756 799.173 287.756 Q794.404 287.756 791.488 284.121 Q788.571 280.487 788.571 274.492 Q788.571 268.473 791.488 264.839 Q794.404 261.205 799.173 261.205 Q802.043 261.205 804.103 262.339 Q806.163 263.473 807.483 265.765 L807.483 261.83 L811.742 261.83 L811.742 284.538 Z" fill="#000000" fill-rule="nonzero" fill-opacity="1" /><path clip-path="url(#clip600)" d="M840.7 266.807 Q842.297 263.936 844.52 262.571 Q846.742 261.205 849.751 261.205 Q853.802 261.205 856.001 264.052 Q858.2 266.876 858.2 272.108 L858.2 287.756 L853.918 287.756 L853.918 272.247 Q853.918 268.52 852.598 266.714 Q851.279 264.909 848.571 264.909 Q845.26 264.909 843.339 267.108 Q841.418 269.307 841.418 273.103 L841.418 287.756 L837.135 287.756 L837.135 272.247 Q837.135 268.497 835.816 266.714 Q834.497 264.909 831.742 264.909 Q828.478 264.909 826.557 267.131 Q824.636 269.33 824.636 273.103 L824.636 287.756 L820.353 287.756 L820.353 261.83 L824.636 261.83 L824.636 265.858 Q826.094 263.473 828.131 262.339 Q830.168 261.205 832.969 261.205 Q835.793 261.205 837.76 262.64 Q839.751 264.075 840.7 266.807 Z" fill="#000000" fill-rule="nonzero" fill-opacity="1" /><path clip-path="url(#clip600)" d="M888.871 273.728 L888.871 275.811 L869.288 275.811 Q869.566 280.209 871.927 282.524 Q874.311 284.816 878.547 284.816 Q881.001 284.816 883.293 284.214 Q885.607 283.612 887.876 282.409 L887.876 286.436 Q885.584 287.408 883.177 287.918 Q880.77 288.427 878.293 288.427 Q872.089 288.427 868.455 284.816 Q864.844 281.205 864.844 275.047 Q864.844 268.682 868.27 264.955 Q871.719 261.205 877.552 261.205 Q882.783 261.205 885.816 264.585 Q888.871 267.941 888.871 273.728 M884.612 272.478 Q884.566 268.983 882.645 266.899 Q880.746 264.816 877.598 264.816 Q874.033 264.816 871.881 266.83 Q869.751 268.844 869.427 272.501 L884.612 272.478 Z" fill="#000000" fill-rule="nonzero" fill-opacity="1" /><path clip-path="url(#clip600)" d="M917.413 272.108 L917.413 287.756 L913.154 287.756 L913.154 272.247 Q913.154 268.566 911.718 266.737 Q910.283 264.909 907.413 264.909 Q903.964 264.909 901.973 267.108 Q899.982 269.307 899.982 273.103 L899.982 287.756 L895.7 287.756 L895.7 261.83 L899.982 261.83 L899.982 265.858 Q901.51 263.52 903.57 262.362 Q905.654 261.205 908.362 261.205 Q912.83 261.205 915.121 263.983 Q917.413 266.737 917.413 272.108 Z" fill="#000000" fill-rule="nonzero" fill-opacity="1" /><path clip-path="url(#clip600)" d="M930.121 254.469 L930.121 261.83 L938.894 261.83 L938.894 265.14 L930.121 265.14 L930.121 279.214 Q930.121 282.385 930.978 283.288 Q931.857 284.191 934.519 284.191 L938.894 284.191 L938.894 287.756 L934.519 287.756 Q929.589 287.756 927.714 285.927 Q925.839 284.075 925.839 279.214 L925.839 265.14 L922.714 265.14 L922.714 261.83 L925.839 261.83 L925.839 254.469 L930.121 254.469 Z" fill="#000000" fill-rule="nonzero" fill-opacity="1" /><path clip-path="url(#clip600)" d="M961.024 262.594 L961.024 266.622 Q959.218 265.696 957.274 265.233 Q955.329 264.77 953.246 264.77 Q950.075 264.77 948.477 265.742 Q946.903 266.714 946.903 268.659 Q946.903 270.14 948.038 270.997 Q949.172 271.83 952.598 272.594 L954.056 272.918 Q958.593 273.89 960.491 275.672 Q962.413 277.432 962.413 280.603 Q962.413 284.214 959.542 286.321 Q956.695 288.427 951.695 288.427 Q949.612 288.427 947.343 288.01 Q945.098 287.617 942.598 286.807 L942.598 282.409 Q944.959 283.635 947.251 284.26 Q949.542 284.862 951.788 284.862 Q954.797 284.862 956.417 283.844 Q958.038 282.802 958.038 280.927 Q958.038 279.191 956.857 278.265 Q955.7 277.339 951.741 276.483 L950.26 276.135 Q946.302 275.302 944.542 273.589 Q942.783 271.853 942.783 268.844 Q942.783 265.186 945.376 263.196 Q947.968 261.205 952.737 261.205 Q955.098 261.205 957.181 261.552 Q959.264 261.899 961.024 262.594 Z" fill="#000000" fill-rule="nonzero" fill-opacity="1" /></svg>
