<?xml version="1.0" encoding="utf-8"?>
<svg xmlns="http://www.w3.org/2000/svg" xmlns:xlink="http://www.w3.org/1999/xlink" width="600" height="400" viewBox="0 0 2400 1600">
<defs>
  <clipPath id="clip300">
    <rect x="0" y="0" width="2400" height="1600"/>
  </clipPath>
</defs>
<path clip-path="url(#clip300)" d="M0 1600 L2400 1600 L2400 0 L0 0  Z" fill="#ffffff" fill-rule="evenodd" fill-opacity="1"/>
<defs>
  <clipPath id="clip301">
    <rect x="480" y="0" width="1681" height="1600"/>
  </clipPath>
</defs>
<path clip-path="url(#clip300)" d="M264.287 1423.18 L2352.76 1423.18 L2352.76 123.472 L264.287 123.472  Z" fill="#ffffff" fill-rule="evenodd" fill-opacity="1"/>
<defs>
  <clipPath id="clip302">
    <rect x="264" y="123" width="2089" height="1301"/>
  </clipPath>
</defs>
<polyline clip-path="url(#clip302)" style="stroke:#000000; stroke-linecap:round; stroke-linejoin:round; stroke-width:2; stroke-opacity:0.1; fill:none" points="323.395,1423.18 323.395,123.472 "/>
<polyline clip-path="url(#clip302)" style="stroke:#000000; stroke-linecap:round; stroke-linejoin:round; stroke-width:2; stroke-opacity:0.1; fill:none" points="811.081,1423.18 811.081,123.472 "/>
<polyline clip-path="url(#clip302)" style="stroke:#000000; stroke-linecap:round; stroke-linejoin:round; stroke-width:2; stroke-opacity:0.1; fill:none" points="1298.77,1423.18 1298.77,123.472 "/>
<polyline clip-path="url(#clip302)" style="stroke:#000000; stroke-linecap:round; stroke-linejoin:round; stroke-width:2; stroke-opacity:0.1; fill:none" points="1786.45,1423.18 1786.45,123.472 "/>
<polyline clip-path="url(#clip302)" style="stroke:#000000; stroke-linecap:round; stroke-linejoin:round; stroke-width:2; stroke-opacity:0.1; fill:none" points="2274.14,1423.18 2274.14,123.472 "/>
<polyline clip-path="url(#clip302)" style="stroke:#000000; stroke-linecap:round; stroke-linejoin:round; stroke-width:2; stroke-opacity:0.1; fill:none" points="264.287,1386.4 2352.76,1386.4 "/>
<polyline clip-path="url(#clip302)" style="stroke:#000000; stroke-linecap:round; stroke-linejoin:round; stroke-width:2; stroke-opacity:0.1; fill:none" points="264.287,1124.62 2352.76,1124.62 "/>
<polyline clip-path="url(#clip302)" style="stroke:#000000; stroke-linecap:round; stroke-linejoin:round; stroke-width:2; stroke-opacity:0.1; fill:none" points="264.287,862.852 2352.76,862.852 "/>
<polyline clip-path="url(#clip302)" style="stroke:#000000; stroke-linecap:round; stroke-linejoin:round; stroke-width:2; stroke-opacity:0.1; fill:none" points="264.287,601.08 2352.76,601.08 "/>
<polyline clip-path="url(#clip302)" style="stroke:#000000; stroke-linecap:round; stroke-linejoin:round; stroke-width:2; stroke-opacity:0.1; fill:none" points="264.287,339.308 2352.76,339.308 "/>
<polyline clip-path="url(#clip300)" style="stroke:#000000; stroke-linecap:round; stroke-linejoin:round; stroke-width:4; stroke-opacity:1; fill:none" points="264.287,1423.18 2352.76,1423.18 "/>
<polyline clip-path="url(#clip300)" style="stroke:#000000; stroke-linecap:round; stroke-linejoin:round; stroke-width:4; stroke-opacity:1; fill:none" points="323.395,1423.18 323.395,1404.28 "/>
<polyline clip-path="url(#clip300)" style="stroke:#000000; stroke-linecap:round; stroke-linejoin:round; stroke-width:4; stroke-opacity:1; fill:none" points="811.081,1423.18 811.081,1404.28 "/>
<polyline clip-path="url(#clip300)" style="stroke:#000000; stroke-linecap:round; stroke-linejoin:round; stroke-width:4; stroke-opacity:1; fill:none" points="1298.77,1423.18 1298.77,1404.28 "/>
<polyline clip-path="url(#clip300)" style="stroke:#000000; stroke-linecap:round; stroke-linejoin:round; stroke-width:4; stroke-opacity:1; fill:none" points="1786.45,1423.18 1786.45,1404.28 "/>
<polyline clip-path="url(#clip300)" style="stroke:#000000; stroke-linecap:round; stroke-linejoin:round; stroke-width:4; stroke-opacity:1; fill:none" points="2274.14,1423.18 2274.14,1404.28 "/>
<path clip-path="url(#clip300)" d="M323.395 1454.1 Q319.784 1454.1 317.955 1457.66 Q316.15 1461.2 316.15 1468.33 Q316.15 1475.44 317.955 1479.01 Q319.784 1482.55 323.395 1482.55 Q327.029 1482.55 328.835 1479.01 Q330.663 1475.44 330.663 1468.33 Q330.663 1461.2 328.835 1457.66 Q327.029 1454.1 323.395 1454.1 M323.395 1450.39 Q329.205 1450.39 332.261 1455 Q335.339 1459.58 335.339 1468.33 Q335.339 1477.06 332.261 1481.67 Q329.205 1486.25 323.395 1486.25 Q317.585 1486.25 314.506 1481.67 Q311.451 1477.06 311.451 1468.33 Q311.451 1459.58 314.506 1455 Q317.585 1450.39 323.395 1450.39 Z" fill="#000000" fill-rule="nonzero" fill-opacity="1" /><path clip-path="url(#clip300)" d="M790.352 1481.64 L806.672 1481.64 L806.672 1485.58 L784.727 1485.58 L784.727 1481.64 Q787.389 1478.89 791.973 1474.26 Q796.579 1469.61 797.76 1468.27 Q800.005 1465.74 800.885 1464.01 Q801.787 1462.25 801.787 1460.56 Q801.787 1457.8 799.843 1456.07 Q797.922 1454.33 794.82 1454.33 Q792.621 1454.33 790.167 1455.09 Q787.737 1455.86 784.959 1457.41 L784.959 1452.69 Q787.783 1451.55 790.237 1450.97 Q792.69 1450.39 794.727 1450.39 Q800.098 1450.39 803.292 1453.08 Q806.487 1455.77 806.487 1460.26 Q806.487 1462.39 805.676 1464.31 Q804.889 1466.2 802.783 1468.8 Q802.204 1469.47 799.102 1472.69 Q796 1475.88 790.352 1481.64 Z" fill="#000000" fill-rule="nonzero" fill-opacity="1" /><path clip-path="url(#clip300)" d="M816.533 1451.02 L834.889 1451.02 L834.889 1454.96 L820.815 1454.96 L820.815 1463.43 Q821.834 1463.08 822.852 1462.92 Q823.871 1462.73 824.889 1462.73 Q830.676 1462.73 834.056 1465.9 Q837.435 1469.08 837.435 1474.49 Q837.435 1480.07 833.963 1483.17 Q830.491 1486.25 824.172 1486.25 Q821.996 1486.25 819.727 1485.88 Q817.482 1485.51 815.074 1484.77 L815.074 1480.07 Q817.158 1481.2 819.38 1481.76 Q821.602 1482.32 824.079 1482.32 Q828.084 1482.32 830.422 1480.21 Q832.76 1478.1 832.76 1474.49 Q832.76 1470.88 830.422 1468.77 Q828.084 1466.67 824.079 1466.67 Q822.204 1466.67 820.329 1467.08 Q818.477 1467.5 816.533 1468.38 L816.533 1451.02 Z" fill="#000000" fill-rule="nonzero" fill-opacity="1" /><path clip-path="url(#clip300)" d="M1273.47 1451.02 L1291.82 1451.02 L1291.82 1454.96 L1277.75 1454.96 L1277.75 1463.43 Q1278.77 1463.08 1279.79 1462.92 Q1280.81 1462.73 1281.82 1462.73 Q1287.61 1462.73 1290.99 1465.9 Q1294.37 1469.08 1294.37 1474.49 Q1294.37 1480.07 1290.9 1483.17 Q1287.43 1486.25 1281.11 1486.25 Q1278.93 1486.25 1276.66 1485.88 Q1274.42 1485.51 1272.01 1484.77 L1272.01 1480.07 Q1274.09 1481.2 1276.31 1481.76 Q1278.54 1482.32 1281.01 1482.32 Q1285.02 1482.32 1287.36 1480.21 Q1289.69 1478.1 1289.69 1474.49 Q1289.69 1470.88 1287.36 1468.77 Q1285.02 1466.67 1281.01 1466.67 Q1279.14 1466.67 1277.26 1467.08 Q1275.41 1467.5 1273.47 1468.38 L1273.47 1451.02 Z" fill="#000000" fill-rule="nonzero" fill-opacity="1" /><path clip-path="url(#clip300)" d="M1313.58 1454.1 Q1309.97 1454.1 1308.14 1457.66 Q1306.34 1461.2 1306.34 1468.33 Q1306.34 1475.44 1308.14 1479.01 Q1309.97 1482.55 1313.58 1482.55 Q1317.22 1482.55 1319.02 1479.01 Q1320.85 1475.44 1320.85 1468.33 Q1320.85 1461.2 1319.02 1457.66 Q1317.22 1454.1 1313.58 1454.1 M1313.58 1450.39 Q1319.39 1450.39 1322.45 1455 Q1325.53 1459.58 1325.53 1468.33 Q1325.53 1477.06 1322.45 1481.67 Q1319.39 1486.25 1313.58 1486.25 Q1307.77 1486.25 1304.69 1481.67 Q1301.64 1477.06 1301.64 1468.33 Q1301.64 1459.58 1304.69 1455 Q1307.77 1450.39 1313.58 1450.39 Z" fill="#000000" fill-rule="nonzero" fill-opacity="1" /><path clip-path="url(#clip300)" d="M1760.31 1451.02 L1782.53 1451.02 L1782.53 1453.01 L1769.98 1485.58 L1765.1 1485.58 L1776.91 1454.96 L1760.31 1454.96 L1760.31 1451.02 Z" fill="#000000" fill-rule="nonzero" fill-opacity="1" /><path clip-path="url(#clip300)" d="M1791.7 1451.02 L1810.05 1451.02 L1810.05 1454.96 L1795.98 1454.96 L1795.98 1463.43 Q1797 1463.08 1798.02 1462.92 Q1799.04 1462.73 1800.05 1462.73 Q1805.84 1462.73 1809.22 1465.9 Q1812.6 1469.08 1812.6 1474.49 Q1812.6 1480.07 1809.13 1483.17 Q1805.66 1486.25 1799.34 1486.25 Q1797.16 1486.25 1794.89 1485.88 Q1792.65 1485.51 1790.24 1484.77 L1790.24 1480.07 Q1792.32 1481.2 1794.54 1481.76 Q1796.77 1482.32 1799.24 1482.32 Q1803.25 1482.32 1805.59 1480.21 Q1807.92 1478.1 1807.92 1474.49 Q1807.92 1470.88 1805.59 1468.77 Q1803.25 1466.67 1799.24 1466.67 Q1797.37 1466.67 1795.49 1467.08 Q1793.64 1467.5 1791.7 1468.38 L1791.7 1451.02 Z" fill="#000000" fill-rule="nonzero" fill-opacity="1" /><path clip-path="url(#clip300)" d="M2233.75 1481.64 L2241.39 1481.64 L2241.39 1455.28 L2233.08 1456.95 L2233.08 1452.69 L2241.34 1451.02 L2246.02 1451.02 L2246.02 1481.64 L2253.65 1481.64 L2253.65 1485.58 L2233.75 1485.58 L2233.75 1481.64 Z" fill="#000000" fill-rule="nonzero" fill-opacity="1" /><path clip-path="url(#clip300)" d="M2273.1 1454.1 Q2269.49 1454.1 2267.66 1457.66 Q2265.85 1461.2 2265.85 1468.33 Q2265.85 1475.44 2267.66 1479.01 Q2269.49 1482.55 2273.1 1482.55 Q2276.73 1482.55 2278.54 1479.01 Q2280.37 1475.44 2280.37 1468.33 Q2280.37 1461.2 2278.54 1457.66 Q2276.73 1454.1 2273.1 1454.1 M2273.1 1450.39 Q2278.91 1450.39 2281.96 1455 Q2285.04 1459.58 2285.04 1468.33 Q2285.04 1477.06 2281.96 1481.67 Q2278.91 1486.25 2273.1 1486.25 Q2267.29 1486.25 2264.21 1481.67 Q2261.15 1477.06 2261.15 1468.33 Q2261.15 1459.58 2264.21 1455 Q2267.29 1450.39 2273.1 1450.39 Z" fill="#000000" fill-rule="nonzero" fill-opacity="1" /><path clip-path="url(#clip300)" d="M2303.26 1454.1 Q2299.65 1454.1 2297.82 1457.66 Q2296.02 1461.2 2296.02 1468.33 Q2296.02 1475.44 2297.82 1479.01 Q2299.65 1482.55 2303.26 1482.55 Q2306.9 1482.55 2308.7 1479.01 Q2310.53 1475.44 2310.53 1468.33 Q2310.53 1461.2 2308.7 1457.66 Q2306.9 1454.1 2303.26 1454.1 M2303.26 1450.39 Q2309.07 1450.39 2312.13 1455 Q2315.21 1459.58 2315.21 1468.33 Q2315.21 1477.06 2312.13 1481.67 Q2309.07 1486.25 2303.26 1486.25 Q2297.45 1486.25 2294.37 1481.67 Q2291.32 1477.06 2291.32 1468.33 Q2291.32 1459.58 2294.37 1455 Q2297.45 1450.39 2303.26 1450.39 Z" fill="#000000" fill-rule="nonzero" fill-opacity="1" /><path clip-path="url(#clip300)" d="M1094.16 1520.52 L1124.2 1520.52 L1124.2 1525.93 L1100.59 1525.93 L1100.59 1540 L1123.22 1540 L1123.22 1545.41 L1100.59 1545.41 L1100.59 1562.63 L1124.78 1562.63 L1124.78 1568.04 L1094.16 1568.04 L1094.16 1520.52 Z" fill="#000000" fill-rule="nonzero" fill-opacity="1" /><path clip-path="url(#clip300)" d="M1164.72 1546.53 L1164.72 1568.04 L1158.86 1568.04 L1158.86 1546.72 Q1158.86 1541.66 1156.89 1539.14 Q1154.92 1536.63 1150.97 1536.63 Q1146.23 1536.63 1143.49 1539.65 Q1140.75 1542.68 1140.75 1547.9 L1140.75 1568.04 L1134.87 1568.04 L1134.87 1532.4 L1140.75 1532.4 L1140.75 1537.93 Q1142.85 1534.72 1145.69 1533.13 Q1148.55 1531.54 1152.28 1531.54 Q1158.42 1531.54 1161.57 1535.36 Q1164.72 1539.14 1164.72 1546.53 Z" fill="#000000" fill-rule="nonzero" fill-opacity="1" /><path clip-path="url(#clip300)" d="M1206.89 1548.76 L1206.89 1551.62 L1179.97 1551.62 Q1180.35 1557.67 1183.59 1560.85 Q1186.87 1564 1192.7 1564 Q1196.07 1564 1199.22 1563.17 Q1202.41 1562.35 1205.52 1560.69 L1205.52 1566.23 Q1202.37 1567.57 1199.06 1568.27 Q1195.75 1568.97 1192.35 1568.97 Q1183.82 1568.97 1178.82 1564 Q1173.86 1559.04 1173.86 1550.57 Q1173.86 1541.82 1178.57 1536.69 Q1183.31 1531.54 1191.33 1531.54 Q1198.52 1531.54 1202.69 1536.18 Q1206.89 1540.8 1206.89 1548.76 M1201.04 1547.04 Q1200.97 1542.23 1198.33 1539.37 Q1195.72 1536.5 1191.39 1536.5 Q1186.49 1536.5 1183.53 1539.27 Q1180.6 1542.04 1180.16 1547.07 L1201.04 1547.04 Z" fill="#000000" fill-rule="nonzero" fill-opacity="1" /><path clip-path="url(#clip300)" d="M1237.16 1537.87 Q1236.18 1537.3 1235 1537.04 Q1233.85 1536.76 1232.45 1536.76 Q1227.49 1536.76 1224.81 1540 Q1222.17 1543.22 1222.17 1549.27 L1222.17 1568.04 L1216.28 1568.04 L1216.28 1532.4 L1222.17 1532.4 L1222.17 1537.93 Q1224.02 1534.69 1226.98 1533.13 Q1229.94 1531.54 1234.17 1531.54 Q1234.77 1531.54 1235.51 1531.63 Q1236.24 1531.7 1237.13 1531.85 L1237.16 1537.87 Z" fill="#000000" fill-rule="nonzero" fill-opacity="1" /><path clip-path="url(#clip300)" d="M1265.62 1549.81 Q1265.62 1543.44 1262.97 1539.94 Q1260.37 1536.44 1255.62 1536.44 Q1250.91 1536.44 1248.27 1539.94 Q1245.66 1543.44 1245.66 1549.81 Q1245.66 1556.14 1248.27 1559.64 Q1250.91 1563.14 1255.62 1563.14 Q1260.37 1563.14 1262.97 1559.64 Q1265.62 1556.14 1265.62 1549.81 M1271.47 1563.62 Q1271.47 1572.72 1267.43 1577.15 Q1263.39 1581.6 1255.05 1581.6 Q1251.96 1581.6 1249.23 1581.13 Q1246.49 1580.68 1243.91 1579.72 L1243.91 1574.03 Q1246.49 1575.43 1249 1576.1 Q1251.52 1576.76 1254.13 1576.76 Q1259.89 1576.76 1262.75 1573.74 Q1265.62 1570.75 1265.62 1564.67 L1265.62 1561.77 Q1263.8 1564.92 1260.97 1566.48 Q1258.14 1568.04 1254.19 1568.04 Q1247.63 1568.04 1243.62 1563.05 Q1239.61 1558.05 1239.61 1549.81 Q1239.61 1541.53 1243.62 1536.53 Q1247.63 1531.54 1254.19 1531.54 Q1258.14 1531.54 1260.97 1533.1 Q1263.8 1534.66 1265.62 1537.81 L1265.62 1532.4 L1271.47 1532.4 L1271.47 1563.62 Z" fill="#000000" fill-rule="nonzero" fill-opacity="1" /><path clip-path="url(#clip300)" d="M1298.37 1571.35 Q1295.89 1577.72 1293.53 1579.66 Q1291.18 1581.6 1287.23 1581.6 L1282.55 1581.6 L1282.55 1576.7 L1285.99 1576.7 Q1288.41 1576.7 1289.74 1575.56 Q1291.08 1574.41 1292.7 1570.14 L1293.75 1567.47 L1279.33 1532.4 L1285.54 1532.4 L1296.68 1560.28 L1307.82 1532.4 L1314.03 1532.4 L1298.37 1571.35 Z" fill="#000000" fill-rule="nonzero" fill-opacity="1" /><path clip-path="url(#clip300)" d="M1356.9 1518.58 Q1352.64 1525.9 1350.57 1533.06 Q1348.5 1540.23 1348.5 1547.58 Q1348.5 1554.93 1350.57 1562.16 Q1352.67 1569.35 1356.9 1576.64 L1351.81 1576.64 Q1347.03 1569.16 1344.65 1561.93 Q1342.29 1554.71 1342.29 1547.58 Q1342.29 1540.48 1344.65 1533.29 Q1347 1526.09 1351.81 1518.58 L1356.9 1518.58 Z" fill="#000000" fill-rule="nonzero" fill-opacity="1" /><path clip-path="url(#clip300)" d="M1368.52 1520.52 L1378.1 1520.52 L1390.23 1552.86 L1402.42 1520.52 L1412 1520.52 L1412 1568.04 L1405.73 1568.04 L1405.73 1526.32 L1393.47 1558.91 L1387.01 1558.91 L1374.76 1526.32 L1374.76 1568.04 L1368.52 1568.04 L1368.52 1520.52 Z" fill="#000000" fill-rule="nonzero" fill-opacity="1" /><path clip-path="url(#clip300)" d="M1455 1548.76 L1455 1551.62 L1428.07 1551.62 Q1428.45 1557.67 1431.7 1560.85 Q1434.98 1564 1440.8 1564 Q1444.17 1564 1447.33 1563.17 Q1450.51 1562.35 1453.63 1560.69 L1453.63 1566.23 Q1450.48 1567.57 1447.17 1568.27 Q1443.86 1568.97 1440.45 1568.97 Q1431.92 1568.97 1426.92 1564 Q1421.96 1559.04 1421.96 1550.57 Q1421.96 1541.82 1426.67 1536.69 Q1431.41 1531.54 1439.43 1531.54 Q1446.63 1531.54 1450.8 1536.18 Q1455 1540.8 1455 1548.76 M1449.14 1547.04 Q1449.08 1542.23 1446.43 1539.37 Q1443.82 1536.5 1439.5 1536.5 Q1434.59 1536.5 1431.63 1539.27 Q1428.71 1542.04 1428.26 1547.07 L1449.14 1547.04 Z" fill="#000000" fill-rule="nonzero" fill-opacity="1" /><path clip-path="url(#clip300)" d="M1477.12 1568.04 L1458.98 1520.52 L1465.69 1520.52 L1480.75 1560.53 L1495.83 1520.52 L1502.52 1520.52 L1484.41 1568.04 L1477.12 1568.04 Z" fill="#000000" fill-rule="nonzero" fill-opacity="1" /><path clip-path="url(#clip300)" d="M1508.28 1518.58 L1513.37 1518.58 Q1518.14 1526.09 1520.5 1533.29 Q1522.89 1540.48 1522.89 1547.58 Q1522.89 1554.71 1520.5 1561.93 Q1518.14 1569.16 1513.37 1576.64 L1508.28 1576.64 Q1512.51 1569.35 1514.58 1562.16 Q1516.68 1554.93 1516.68 1547.58 Q1516.68 1540.23 1514.58 1533.06 Q1512.51 1525.9 1508.28 1518.58 Z" fill="#000000" fill-rule="nonzero" fill-opacity="1" /><polyline clip-path="url(#clip300)" style="stroke:#000000; stroke-linecap:round; stroke-linejoin:round; stroke-width:4; stroke-opacity:1; fill:none" points="264.287,1423.18 264.287,123.472 "/>
<polyline clip-path="url(#clip300)" style="stroke:#000000; stroke-linecap:round; stroke-linejoin:round; stroke-width:4; stroke-opacity:1; fill:none" points="264.287,1386.4 283.185,1386.4 "/>
<polyline clip-path="url(#clip300)" style="stroke:#000000; stroke-linecap:round; stroke-linejoin:round; stroke-width:4; stroke-opacity:1; fill:none" points="264.287,1124.62 283.185,1124.62 "/>
<polyline clip-path="url(#clip300)" style="stroke:#000000; stroke-linecap:round; stroke-linejoin:round; stroke-width:4; stroke-opacity:1; fill:none" points="264.287,862.852 283.185,862.852 "/>
<polyline clip-path="url(#clip300)" style="stroke:#000000; stroke-linecap:round; stroke-linejoin:round; stroke-width:4; stroke-opacity:1; fill:none" points="264.287,601.08 283.185,601.08 "/>
<polyline clip-path="url(#clip300)" style="stroke:#000000; stroke-linecap:round; stroke-linejoin:round; stroke-width:4; stroke-opacity:1; fill:none" points="264.287,339.308 283.185,339.308 "/>
<path clip-path="url(#clip300)" d="M216.343 1372.19 Q212.732 1372.19 210.903 1375.76 Q209.098 1379.3 209.098 1386.43 Q209.098 1393.54 210.903 1397.1 Q212.732 1400.64 216.343 1400.64 Q219.977 1400.64 221.783 1397.1 Q223.611 1393.54 223.611 1386.43 Q223.611 1379.3 221.783 1375.76 Q219.977 1372.19 216.343 1372.19 M216.343 1368.49 Q222.153 1368.49 225.209 1373.1 Q228.287 1377.68 228.287 1386.43 Q228.287 1395.16 225.209 1399.76 Q222.153 1404.35 216.343 1404.35 Q210.533 1404.35 207.454 1399.76 Q204.399 1395.16 204.399 1386.43 Q204.399 1377.68 207.454 1373.1 Q210.533 1368.49 216.343 1368.49 Z" fill="#000000" fill-rule="nonzero" fill-opacity="1" /><path clip-path="url(#clip300)" d="M146.066 1107.34 L164.422 1107.34 L164.422 1111.28 L150.348 1111.28 L150.348 1119.75 Q151.366 1119.4 152.385 1119.24 Q153.403 1119.06 154.422 1119.06 Q160.209 1119.06 163.589 1122.23 Q166.968 1125.4 166.968 1130.82 Q166.968 1136.39 163.496 1139.5 Q160.024 1142.58 153.704 1142.58 Q151.528 1142.58 149.26 1142.2 Q147.015 1141.83 144.607 1141.09 L144.607 1136.39 Q146.691 1137.53 148.913 1138.08 Q151.135 1138.64 153.612 1138.64 Q157.616 1138.64 159.954 1136.53 Q162.292 1134.43 162.292 1130.82 Q162.292 1127.2 159.954 1125.1 Q157.616 1122.99 153.612 1122.99 Q151.737 1122.99 149.862 1123.41 Q148.01 1123.83 146.066 1124.7 L146.066 1107.34 Z" fill="#000000" fill-rule="nonzero" fill-opacity="1" /><path clip-path="url(#clip300)" d="M186.181 1110.42 Q182.57 1110.42 180.741 1113.99 Q178.936 1117.53 178.936 1124.66 Q178.936 1131.76 180.741 1135.33 Q182.57 1138.87 186.181 1138.87 Q189.815 1138.87 191.621 1135.33 Q193.45 1131.76 193.45 1124.66 Q193.45 1117.53 191.621 1113.99 Q189.815 1110.42 186.181 1110.42 M186.181 1106.72 Q191.991 1106.72 195.047 1111.33 Q198.125 1115.91 198.125 1124.66 Q198.125 1133.39 195.047 1137.99 Q191.991 1142.58 186.181 1142.58 Q180.371 1142.58 177.292 1137.99 Q174.237 1133.39 174.237 1124.66 Q174.237 1115.91 177.292 1111.33 Q180.371 1106.72 186.181 1106.72 Z" fill="#000000" fill-rule="nonzero" fill-opacity="1" /><path clip-path="url(#clip300)" d="M216.343 1110.42 Q212.732 1110.42 210.903 1113.99 Q209.098 1117.53 209.098 1124.66 Q209.098 1131.76 210.903 1135.33 Q212.732 1138.87 216.343 1138.87 Q219.977 1138.87 221.783 1135.33 Q223.611 1131.76 223.611 1124.66 Q223.611 1117.53 221.783 1113.99 Q219.977 1110.42 216.343 1110.42 M216.343 1106.72 Q222.153 1106.72 225.209 1111.33 Q228.287 1115.91 228.287 1124.66 Q228.287 1133.39 225.209 1137.99 Q222.153 1142.58 216.343 1142.58 Q210.533 1142.58 207.454 1137.99 Q204.399 1133.39 204.399 1124.66 Q204.399 1115.91 207.454 1111.33 Q210.533 1106.72 216.343 1106.72 Z" fill="#000000" fill-rule="nonzero" fill-opacity="1" /><path clip-path="url(#clip300)" d="M116.668 876.197 L124.306 876.197 L124.306 849.831 L115.996 851.498 L115.996 847.239 L124.26 845.572 L128.936 845.572 L128.936 876.197 L136.575 876.197 L136.575 880.132 L116.668 880.132 L116.668 876.197 Z" fill="#000000" fill-rule="nonzero" fill-opacity="1" /><path clip-path="url(#clip300)" d="M156.019 848.651 Q152.408 848.651 150.579 852.215 Q148.774 855.757 148.774 862.887 Q148.774 869.993 150.579 873.558 Q152.408 877.1 156.019 877.1 Q159.653 877.1 161.459 873.558 Q163.288 869.993 163.288 862.887 Q163.288 855.757 161.459 852.215 Q159.653 848.651 156.019 848.651 M156.019 844.947 Q161.829 844.947 164.885 849.553 Q167.964 854.137 167.964 862.887 Q167.964 871.613 164.885 876.22 Q161.829 880.803 156.019 880.803 Q150.209 880.803 147.13 876.22 Q144.075 871.613 144.075 862.887 Q144.075 854.137 147.13 849.553 Q150.209 844.947 156.019 844.947 Z" fill="#000000" fill-rule="nonzero" fill-opacity="1" /><path clip-path="url(#clip300)" d="M186.181 848.651 Q182.57 848.651 180.741 852.215 Q178.936 855.757 178.936 862.887 Q178.936 869.993 180.741 873.558 Q182.57 877.1 186.181 877.1 Q189.815 877.1 191.621 873.558 Q193.45 869.993 193.45 862.887 Q193.45 855.757 191.621 852.215 Q189.815 848.651 186.181 848.651 M186.181 844.947 Q191.991 844.947 195.047 849.553 Q198.125 854.137 198.125 862.887 Q198.125 871.613 195.047 876.22 Q191.991 880.803 186.181 880.803 Q180.371 880.803 177.292 876.22 Q174.237 871.613 174.237 862.887 Q174.237 854.137 177.292 849.553 Q180.371 844.947 186.181 844.947 Z" fill="#000000" fill-rule="nonzero" fill-opacity="1" /><path clip-path="url(#clip300)" d="M216.343 848.651 Q212.732 848.651 210.903 852.215 Q209.098 855.757 209.098 862.887 Q209.098 869.993 210.903 873.558 Q212.732 877.1 216.343 877.1 Q219.977 877.1 221.783 873.558 Q223.611 869.993 223.611 862.887 Q223.611 855.757 221.783 852.215 Q219.977 848.651 216.343 848.651 M216.343 844.947 Q222.153 844.947 225.209 849.553 Q228.287 854.137 228.287 862.887 Q228.287 871.613 225.209 876.22 Q222.153 880.803 216.343 880.803 Q210.533 880.803 207.454 876.22 Q204.399 871.613 204.399 862.887 Q204.399 854.137 207.454 849.553 Q210.533 844.947 216.343 844.947 Z" fill="#000000" fill-rule="nonzero" fill-opacity="1" /><path clip-path="url(#clip300)" d="M116.668 614.425 L124.306 614.425 L124.306 588.059 L115.996 589.726 L115.996 585.467 L124.26 583.8 L128.936 583.8 L128.936 614.425 L136.575 614.425 L136.575 618.36 L116.668 618.36 L116.668 614.425 Z" fill="#000000" fill-rule="nonzero" fill-opacity="1" /><path clip-path="url(#clip300)" d="M146.066 583.8 L164.422 583.8 L164.422 587.735 L150.348 587.735 L150.348 596.207 Q151.366 595.86 152.385 595.698 Q153.403 595.513 154.422 595.513 Q160.209 595.513 163.589 598.684 Q166.968 601.856 166.968 607.272 Q166.968 612.851 163.496 615.953 Q160.024 619.031 153.704 619.031 Q151.528 619.031 149.26 618.661 Q147.015 618.291 144.607 617.55 L144.607 612.851 Q146.691 613.985 148.913 614.541 Q151.135 615.096 153.612 615.096 Q157.616 615.096 159.954 612.99 Q162.292 610.883 162.292 607.272 Q162.292 603.661 159.954 601.555 Q157.616 599.448 153.612 599.448 Q151.737 599.448 149.862 599.865 Q148.01 600.281 146.066 601.161 L146.066 583.8 Z" fill="#000000" fill-rule="nonzero" fill-opacity="1" /><path clip-path="url(#clip300)" d="M186.181 586.879 Q182.57 586.879 180.741 590.444 Q178.936 593.985 178.936 601.115 Q178.936 608.221 180.741 611.786 Q182.57 615.328 186.181 615.328 Q189.815 615.328 191.621 611.786 Q193.45 608.221 193.45 601.115 Q193.45 593.985 191.621 590.444 Q189.815 586.879 186.181 586.879 M186.181 583.175 Q191.991 583.175 195.047 587.782 Q198.125 592.365 198.125 601.115 Q198.125 609.842 195.047 614.448 Q191.991 619.031 186.181 619.031 Q180.371 619.031 177.292 614.448 Q174.237 609.842 174.237 601.115 Q174.237 592.365 177.292 587.782 Q180.371 583.175 186.181 583.175 Z" fill="#000000" fill-rule="nonzero" fill-opacity="1" /><path clip-path="url(#clip300)" d="M216.343 586.879 Q212.732 586.879 210.903 590.444 Q209.098 593.985 209.098 601.115 Q209.098 608.221 210.903 611.786 Q212.732 615.328 216.343 615.328 Q219.977 615.328 221.783 611.786 Q223.611 608.221 223.611 601.115 Q223.611 593.985 221.783 590.444 Q219.977 586.879 216.343 586.879 M216.343 583.175 Q222.153 583.175 225.209 587.782 Q228.287 592.365 228.287 601.115 Q228.287 609.842 225.209 614.448 Q222.153 619.031 216.343 619.031 Q210.533 619.031 207.454 614.448 Q204.399 609.842 204.399 601.115 Q204.399 592.365 207.454 587.782 Q210.533 583.175 216.343 583.175 Z" fill="#000000" fill-rule="nonzero" fill-opacity="1" /><path clip-path="url(#clip300)" d="M119.885 352.653 L136.204 352.653 L136.204 356.588 L114.26 356.588 L114.26 352.653 Q116.922 349.898 121.505 345.269 Q126.112 340.616 127.292 339.274 Q129.538 336.75 130.417 335.014 Q131.32 333.255 131.32 331.565 Q131.32 328.811 129.376 327.075 Q127.455 325.338 124.353 325.338 Q122.154 325.338 119.7 326.102 Q117.269 326.866 114.492 328.417 L114.492 323.695 Q117.316 322.561 119.769 321.982 Q122.223 321.403 124.26 321.403 Q129.63 321.403 132.825 324.088 Q136.019 326.774 136.019 331.264 Q136.019 333.394 135.209 335.315 Q134.422 337.213 132.316 339.806 Q131.737 340.477 128.635 343.695 Q125.533 346.889 119.885 352.653 Z" fill="#000000" fill-rule="nonzero" fill-opacity="1" /><path clip-path="url(#clip300)" d="M156.019 325.107 Q152.408 325.107 150.579 328.672 Q148.774 332.213 148.774 339.343 Q148.774 346.449 150.579 350.014 Q152.408 353.556 156.019 353.556 Q159.653 353.556 161.459 350.014 Q163.288 346.449 163.288 339.343 Q163.288 332.213 161.459 328.672 Q159.653 325.107 156.019 325.107 M156.019 321.403 Q161.829 321.403 164.885 326.01 Q167.964 330.593 167.964 339.343 Q167.964 348.07 164.885 352.676 Q161.829 357.26 156.019 357.26 Q150.209 357.26 147.13 352.676 Q144.075 348.07 144.075 339.343 Q144.075 330.593 147.13 326.01 Q150.209 321.403 156.019 321.403 Z" fill="#000000" fill-rule="nonzero" fill-opacity="1" /><path clip-path="url(#clip300)" d="M186.181 325.107 Q182.57 325.107 180.741 328.672 Q178.936 332.213 178.936 339.343 Q178.936 346.449 180.741 350.014 Q182.57 353.556 186.181 353.556 Q189.815 353.556 191.621 350.014 Q193.45 346.449 193.45 339.343 Q193.45 332.213 191.621 328.672 Q189.815 325.107 186.181 325.107 M186.181 321.403 Q191.991 321.403 195.047 326.01 Q198.125 330.593 198.125 339.343 Q198.125 348.07 195.047 352.676 Q191.991 357.26 186.181 357.26 Q180.371 357.26 177.292 352.676 Q174.237 348.07 174.237 339.343 Q174.237 330.593 177.292 326.01 Q180.371 321.403 186.181 321.403 Z" fill="#000000" fill-rule="nonzero" fill-opacity="1" /><path clip-path="url(#clip300)" d="M216.343 325.107 Q212.732 325.107 210.903 328.672 Q209.098 332.213 209.098 339.343 Q209.098 346.449 210.903 350.014 Q212.732 353.556 216.343 353.556 Q219.977 353.556 221.783 350.014 Q223.611 346.449 223.611 339.343 Q223.611 332.213 221.783 328.672 Q219.977 325.107 216.343 325.107 M216.343 321.403 Q222.153 321.403 225.209 326.01 Q228.287 330.593 228.287 339.343 Q228.287 348.07 225.209 352.676 Q222.153 357.26 216.343 357.26 Q210.533 357.26 207.454 352.676 Q204.399 348.07 204.399 339.343 Q204.399 330.593 207.454 326.01 Q210.533 321.403 216.343 321.403 Z" fill="#000000" fill-rule="nonzero" fill-opacity="1" /><path clip-path="url(#clip300)" d="M20.1444 845.354 L26.9239 845.354 Q23.9002 848.6 22.4043 852.293 Q20.9083 855.953 20.9083 860.091 Q20.9083 868.239 25.9054 872.567 Q30.8707 876.896 40.2919 876.896 Q49.6813 876.896 54.6784 872.567 Q59.6436 868.239 59.6436 860.091 Q59.6436 855.953 58.1477 852.293 Q56.6518 848.6 53.6281 845.354 L60.3439 845.354 Q62.6355 848.728 63.7814 852.515 Q64.9272 856.271 64.9272 860.473 Q64.9272 871.262 58.3387 877.469 Q51.7183 883.676 40.2919 883.676 Q28.8336 883.676 22.2451 877.469 Q15.6248 871.262 15.6248 860.473 Q15.6248 856.207 16.7706 852.452 Q17.8846 848.664 20.1444 845.354 Z" fill="#000000" fill-rule="nonzero" fill-opacity="1" /><path clip-path="url(#clip300)" d="M32.4621 821.864 Q32.4621 826.575 36.1542 829.312 Q39.8145 832.05 46.212 832.05 Q52.6095 832.05 56.3017 829.344 Q59.9619 826.607 59.9619 821.864 Q59.9619 817.186 56.2698 814.448 Q52.5777 811.711 46.212 811.711 Q39.8781 811.711 36.186 814.448 Q32.4621 817.186 32.4621 821.864 M27.4968 821.864 Q27.4968 814.226 32.4621 809.865 Q37.4273 805.505 46.212 805.505 Q54.9649 805.505 59.9619 809.865 Q64.9272 814.226 64.9272 821.864 Q64.9272 829.535 59.9619 833.896 Q54.9649 838.224 46.212 838.224 Q37.4273 838.224 32.4621 833.896 Q27.4968 829.535 27.4968 821.864 Z" fill="#000000" fill-rule="nonzero" fill-opacity="1" /><path clip-path="url(#clip300)" d="M49.9359 796.402 L28.3562 796.402 L28.3562 790.545 L49.7131 790.545 Q54.7739 790.545 57.3202 788.572 Q59.8346 786.598 59.8346 782.652 Q59.8346 777.909 56.8109 775.172 Q53.7872 772.403 48.5673 772.403 L28.3562 772.403 L28.3562 766.547 L64.0042 766.547 L64.0042 772.403 L58.5296 772.403 Q61.7762 774.535 63.3676 777.368 Q64.9272 780.169 64.9272 783.893 Q64.9272 790.036 61.1078 793.219 Q57.2883 796.402 49.9359 796.402 M27.4968 781.665 L27.4968 781.665 Z" fill="#000000" fill-rule="nonzero" fill-opacity="1" /><path clip-path="url(#clip300)" d="M42.4881 724.851 L64.0042 724.851 L64.0042 730.708 L42.679 730.708 Q37.6183 730.708 35.1038 732.681 Q32.5894 734.654 32.5894 738.601 Q32.5894 743.344 35.6131 746.081 Q38.6368 748.818 43.8567 748.818 L64.0042 748.818 L64.0042 754.706 L28.3562 754.706 L28.3562 748.818 L33.8944 748.818 Q30.6797 746.717 29.0883 743.885 Q27.4968 741.02 27.4968 737.296 Q27.4968 731.153 31.3163 728.002 Q35.1038 724.851 42.4881 724.851 Z" fill="#000000" fill-rule="nonzero" fill-opacity="1" /><path clip-path="url(#clip300)" d="M18.2347 707.377 L28.3562 707.377 L28.3562 695.314 L32.9077 695.314 L32.9077 707.377 L52.2594 707.377 Q56.6199 707.377 57.8613 706.2 Q59.1026 704.99 59.1026 701.33 L59.1026 695.314 L64.0042 695.314 L64.0042 701.33 Q64.0042 708.109 61.4897 710.687 Q58.9434 713.266 52.2594 713.266 L32.9077 713.266 L32.9077 717.562 L28.3562 717.562 L28.3562 713.266 L18.2347 713.266 L18.2347 707.377 Z" fill="#000000" fill-rule="nonzero" fill-opacity="1" /><path clip-path="url(#clip300)" d="M29.4065 664.886 L34.9447 664.886 Q33.6716 667.369 33.035 670.042 Q32.3984 672.716 32.3984 675.581 Q32.3984 679.941 33.7352 682.137 Q35.072 684.302 37.7456 684.302 Q39.7826 684.302 40.9603 682.742 Q42.1061 681.182 43.1565 676.472 L43.6021 674.467 Q44.9389 668.228 47.3897 665.618 Q49.8086 662.976 54.1691 662.976 Q59.1344 662.976 62.0308 666.923 Q64.9272 670.838 64.9272 677.713 Q64.9272 680.578 64.3543 683.697 Q63.8132 686.784 62.6992 690.222 L56.6518 690.222 Q58.3387 686.975 59.198 683.824 Q60.0256 680.673 60.0256 677.586 Q60.0256 673.448 58.6251 671.22 Q57.1929 668.992 54.6147 668.992 Q52.2276 668.992 50.9545 670.615 Q49.6813 672.207 48.5037 677.649 L48.0262 679.686 Q46.8804 685.129 44.5251 687.548 Q42.138 689.967 38.0002 689.967 Q32.9713 689.967 30.2341 686.402 Q27.4968 682.837 27.4968 676.281 Q27.4968 673.034 27.9743 670.17 Q28.4517 667.305 29.4065 664.886 Z" fill="#000000" fill-rule="nonzero" fill-opacity="1" /><path clip-path="url(#clip300)" d="M897.112 12.096 L935.352 12.096 L935.352 18.9825 L905.295 18.9825 L905.295 36.8875 L934.097 36.8875 L934.097 43.7741 L905.295 43.7741 L905.295 65.6895 L936.081 65.6895 L936.081 72.576 L897.112 72.576 L897.112 12.096 Z" fill="#000000" fill-rule="nonzero" fill-opacity="1" /><path clip-path="url(#clip300)" d="M949.206 9.54393 L956.66 9.54393 L956.66 72.576 L949.206 72.576 L949.206 9.54393 Z" fill="#000000" fill-rule="nonzero" fill-opacity="1" /><path clip-path="url(#clip300)" d="M992.875 49.7694 Q983.842 49.7694 980.358 51.8354 Q976.874 53.9013 976.874 58.8839 Q976.874 62.8538 979.467 65.2034 Q982.1 67.5124 986.596 67.5124 Q992.794 67.5124 996.521 63.1374 Q1000.29 58.7219 1000.29 51.4303 L1000.29 49.7694 L992.875 49.7694 M1007.74 46.6907 L1007.74 72.576 L1000.29 72.576 L1000.29 65.6895 Q997.736 69.8214 993.928 71.8063 Q990.121 73.7508 984.611 73.7508 Q977.644 73.7508 973.512 69.8619 Q969.42 65.9325 969.42 59.3701 Q969.42 51.7138 974.525 47.825 Q979.669 43.9361 989.837 43.9361 L1000.29 43.9361 L1000.29 43.2069 Q1000.29 38.0623 996.886 35.2672 Q993.523 32.4315 987.406 32.4315 Q983.518 32.4315 979.831 33.3632 Q976.145 34.295 972.742 36.1584 L972.742 29.2718 Q976.834 27.692 980.682 26.9223 Q984.53 26.1121 988.176 26.1121 Q998.02 26.1121 1002.88 31.2163 Q1007.74 36.3204 1007.74 46.6907 Z" fill="#000000" fill-rule="nonzero" fill-opacity="1" /><path clip-path="url(#clip300)" d="M1052.02 28.5427 L1052.02 35.5912 Q1048.86 33.9709 1045.46 33.1607 Q1042.05 32.3505 1038.41 32.3505 Q1032.86 32.3505 1030.06 34.0519 Q1027.31 35.7533 1027.31 39.156 Q1027.31 41.7486 1029.29 43.2475 Q1031.28 44.7058 1037.27 46.0426 L1039.83 46.6097 Q1047.76 48.3111 1051.09 51.4303 Q1054.45 54.509 1054.45 60.0587 Q1054.45 66.3781 1049.43 70.0644 Q1044.44 73.7508 1035.69 73.7508 Q1032.05 73.7508 1028.08 73.0216 Q1024.15 72.3329 1019.77 70.9151 L1019.77 63.2184 Q1023.91 65.3654 1027.92 66.4591 Q1031.93 67.5124 1035.86 67.5124 Q1041.12 67.5124 1043.96 65.73 Q1046.79 63.9071 1046.79 60.6258 Q1046.79 57.5877 1044.73 55.9673 Q1042.7 54.3469 1035.77 52.8481 L1033.18 52.2405 Q1026.25 50.7821 1023.18 47.7845 Q1020.1 44.7463 1020.1 39.4801 Q1020.1 33.0797 1024.63 29.5959 Q1029.17 26.1121 1037.52 26.1121 Q1041.65 26.1121 1045.29 26.7198 Q1048.94 27.3274 1052.02 28.5427 Z" fill="#000000" fill-rule="nonzero" fill-opacity="1" /><path clip-path="url(#clip300)" d="M1073.69 14.324 L1073.69 27.2059 L1089.04 27.2059 L1089.04 32.9987 L1073.69 32.9987 L1073.69 57.6282 Q1073.69 63.1779 1075.19 64.7578 Q1076.73 66.3376 1081.39 66.3376 L1089.04 66.3376 L1089.04 72.576 L1081.39 72.576 Q1072.76 72.576 1069.48 69.3758 Q1066.2 66.1351 1066.2 57.6282 L1066.2 32.9987 L1060.73 32.9987 L1060.73 27.2059 L1066.2 27.2059 L1066.2 14.324 L1073.69 14.324 Z" fill="#000000" fill-rule="nonzero" fill-opacity="1" /><path clip-path="url(#clip300)" d="M1098.85 27.2059 L1106.3 27.2059 L1106.3 72.576 L1098.85 72.576 L1098.85 27.2059 M1098.85 9.54393 L1106.3 9.54393 L1106.3 18.9825 L1098.85 18.9825 L1098.85 9.54393 Z" fill="#000000" fill-rule="nonzero" fill-opacity="1" /><path clip-path="url(#clip300)" d="M1154.55 28.9478 L1154.55 35.9153 Q1151.39 34.1734 1148.19 33.3227 Q1145.03 32.4315 1141.79 32.4315 Q1134.54 32.4315 1130.52 37.0496 Q1126.51 41.6271 1126.51 49.9314 Q1126.51 58.2358 1130.52 62.8538 Q1134.54 67.4314 1141.79 67.4314 Q1145.03 67.4314 1148.19 66.5807 Q1151.39 65.6895 1154.55 63.9476 L1154.55 70.8341 Q1151.43 72.2924 1148.07 73.0216 Q1144.74 73.7508 1140.98 73.7508 Q1130.73 73.7508 1124.69 67.3098 Q1118.66 60.8689 1118.66 49.9314 Q1118.66 38.832 1124.73 32.472 Q1130.85 26.1121 1141.46 26.1121 Q1144.91 26.1121 1148.19 26.8413 Q1151.47 27.5299 1154.55 28.9478 Z" fill="#000000" fill-rule="nonzero" fill-opacity="1" /><path clip-path="url(#clip300)" d="M1232.69 48.0275 L1232.69 51.6733 L1198.42 51.6733 Q1198.9 59.3701 1203.04 63.421 Q1207.21 67.4314 1214.62 67.4314 Q1218.92 67.4314 1222.93 66.3781 Q1226.98 65.3249 1230.95 63.2184 L1230.95 70.267 Q1226.94 71.9684 1222.72 72.8596 Q1218.51 73.7508 1214.18 73.7508 Q1203.32 73.7508 1196.96 67.4314 Q1190.64 61.1119 1190.64 50.3365 Q1190.64 39.1965 1196.64 32.6746 Q1202.67 26.1121 1212.88 26.1121 Q1222.03 26.1121 1227.34 32.0264 Q1232.69 37.9003 1232.69 48.0275 M1225.24 45.84 Q1225.15 39.7232 1221.79 36.0774 Q1218.47 32.4315 1212.96 32.4315 Q1206.72 32.4315 1202.96 35.9558 Q1199.23 39.4801 1198.66 45.8805 L1225.24 45.84 Z" fill="#000000" fill-rule="nonzero" fill-opacity="1" /><path clip-path="url(#clip300)" d="M1281.18 27.2059 L1264.77 49.2833 L1282.03 72.576 L1273.24 72.576 L1260.03 54.752 L1246.83 72.576 L1238.04 72.576 L1255.66 48.8377 L1239.53 27.2059 L1248.33 27.2059 L1260.36 43.369 L1272.39 27.2059 L1281.18 27.2059 Z" fill="#000000" fill-rule="nonzero" fill-opacity="1" /><path clip-path="url(#clip300)" d="M1292.56 27.2059 L1300.01 27.2059 L1300.01 72.576 L1292.56 72.576 L1292.56 27.2059 M1292.56 9.54393 L1300.01 9.54393 L1300.01 18.9825 L1292.56 18.9825 L1292.56 9.54393 Z" fill="#000000" fill-rule="nonzero" fill-opacity="1" /><path clip-path="url(#clip300)" d="M1322.98 14.324 L1322.98 27.2059 L1338.34 27.2059 L1338.34 32.9987 L1322.98 32.9987 L1322.98 57.6282 Q1322.98 63.1779 1324.48 64.7578 Q1326.02 66.3376 1330.68 66.3376 L1338.34 66.3376 L1338.34 72.576 L1330.68 72.576 Q1322.05 72.576 1318.77 69.3758 Q1315.49 66.1351 1315.49 57.6282 L1315.49 32.9987 L1310.02 32.9987 L1310.02 27.2059 L1315.49 27.2059 L1315.49 14.324 L1322.98 14.324 Z" fill="#000000" fill-rule="nonzero" fill-opacity="1" /><path clip-path="url(#clip300)" d="M1413.32 48.0275 L1413.32 51.6733 L1379.05 51.6733 Q1379.53 59.3701 1383.67 63.421 Q1387.84 67.4314 1395.25 67.4314 Q1399.55 67.4314 1403.56 66.3781 Q1407.61 65.3249 1411.58 63.2184 L1411.58 70.267 Q1407.57 71.9684 1403.35 72.8596 Q1399.14 73.7508 1394.81 73.7508 Q1383.95 73.7508 1377.59 67.4314 Q1371.27 61.1119 1371.27 50.3365 Q1371.27 39.1965 1377.27 32.6746 Q1383.3 26.1121 1393.51 26.1121 Q1402.66 26.1121 1407.97 32.0264 Q1413.32 37.9003 1413.32 48.0275 M1405.86 45.84 Q1405.78 39.7232 1402.42 36.0774 Q1399.1 32.4315 1393.59 32.4315 Q1387.35 32.4315 1383.58 35.9558 Q1379.86 39.4801 1379.29 45.8805 L1405.86 45.84 Z" fill="#000000" fill-rule="nonzero" fill-opacity="1" /><path clip-path="url(#clip300)" d="M1463.27 45.1919 L1463.27 72.576 L1455.81 72.576 L1455.81 45.4349 Q1455.81 38.994 1453.3 35.7938 Q1450.79 32.5936 1445.77 32.5936 Q1439.73 32.5936 1436.25 36.4419 Q1432.76 40.2903 1432.76 46.9338 L1432.76 72.576 L1425.27 72.576 L1425.27 27.2059 L1432.76 27.2059 L1432.76 34.2544 Q1435.44 30.163 1439.04 28.1376 Q1442.69 26.1121 1447.43 26.1121 Q1455.25 26.1121 1459.26 30.9732 Q1463.27 35.7938 1463.27 45.1919 Z" fill="#000000" fill-rule="nonzero" fill-opacity="1" /><path clip-path="url(#clip300)" d="M1516.94 48.0275 L1516.94 51.6733 L1482.67 51.6733 Q1483.16 59.3701 1487.29 63.421 Q1491.46 67.4314 1498.87 67.4314 Q1503.17 67.4314 1507.18 66.3781 Q1511.23 65.3249 1515.2 63.2184 L1515.2 70.267 Q1511.19 71.9684 1506.98 72.8596 Q1502.76 73.7508 1498.43 73.7508 Q1487.57 73.7508 1481.21 67.4314 Q1474.89 61.1119 1474.89 50.3365 Q1474.89 39.1965 1480.89 32.6746 Q1486.92 26.1121 1497.13 26.1121 Q1506.29 26.1121 1511.59 32.0264 Q1516.94 37.9003 1516.94 48.0275 M1509.49 45.84 Q1509.41 39.7232 1506.04 36.0774 Q1502.72 32.4315 1497.21 32.4315 Q1490.97 32.4315 1487.21 35.9558 Q1483.48 39.4801 1482.91 45.8805 L1509.49 45.84 Z" fill="#000000" fill-rule="nonzero" fill-opacity="1" /><path clip-path="url(#clip300)" d="M1555.46 34.1734 Q1554.21 33.4443 1552.71 33.1202 Q1551.25 32.7556 1549.47 32.7556 Q1543.15 32.7556 1539.75 36.8875 Q1536.38 40.9789 1536.38 48.6757 L1536.38 72.576 L1528.89 72.576 L1528.89 27.2059 L1536.38 27.2059 L1536.38 34.2544 Q1538.73 30.1225 1542.5 28.1376 Q1546.27 26.1121 1551.66 26.1121 Q1552.43 26.1121 1553.36 26.2337 Q1554.29 26.3147 1555.42 26.5172 L1555.46 34.1734 Z" fill="#000000" fill-rule="nonzero" fill-opacity="1" /><path clip-path="url(#clip300)" d="M1591.68 49.3643 Q1591.68 41.2625 1588.32 36.8065 Q1585 32.3505 1578.96 32.3505 Q1572.96 32.3505 1569.6 36.8065 Q1566.28 41.2625 1566.28 49.3643 Q1566.28 57.4256 1569.6 61.8816 Q1572.96 66.3376 1578.96 66.3376 Q1585 66.3376 1588.32 61.8816 Q1591.68 57.4256 1591.68 49.3643 M1599.13 66.9452 Q1599.13 78.5308 1593.99 84.1616 Q1588.84 89.8329 1578.23 89.8329 Q1574.3 89.8329 1570.82 89.2252 Q1567.33 88.6581 1564.05 87.4428 L1564.05 80.1917 Q1567.33 81.9741 1570.53 82.8248 Q1573.73 83.6755 1577.06 83.6755 Q1584.39 83.6755 1588.03 79.8271 Q1591.68 76.0193 1591.68 68.282 L1591.68 64.5957 Q1589.37 68.6061 1585.77 70.5911 Q1582.16 72.576 1577.14 72.576 Q1568.79 72.576 1563.69 66.2161 Q1558.58 59.8562 1558.58 49.3643 Q1558.58 38.832 1563.69 32.472 Q1568.79 26.1121 1577.14 26.1121 Q1582.16 26.1121 1585.77 28.0971 Q1589.37 30.082 1591.68 34.0924 L1591.68 27.2059 L1599.13 27.2059 L1599.13 66.9452 Z" fill="#000000" fill-rule="nonzero" fill-opacity="1" /><path clip-path="url(#clip300)" d="M1614.49 27.2059 L1621.94 27.2059 L1621.94 72.576 L1614.49 72.576 L1614.49 27.2059 M1614.49 9.54393 L1621.94 9.54393 L1621.94 18.9825 L1614.49 18.9825 L1614.49 9.54393 Z" fill="#000000" fill-rule="nonzero" fill-opacity="1" /><path clip-path="url(#clip300)" d="M1676.34 48.0275 L1676.34 51.6733 L1642.07 51.6733 Q1642.56 59.3701 1646.69 63.421 Q1650.86 67.4314 1658.28 67.4314 Q1662.57 67.4314 1666.58 66.3781 Q1670.63 65.3249 1674.6 63.2184 L1674.6 70.267 Q1670.59 71.9684 1666.38 72.8596 Q1662.17 73.7508 1657.83 73.7508 Q1646.97 73.7508 1640.61 67.4314 Q1634.3 61.1119 1634.3 50.3365 Q1634.3 39.1965 1640.29 32.6746 Q1646.33 26.1121 1656.53 26.1121 Q1665.69 26.1121 1671 32.0264 Q1676.34 37.9003 1676.34 48.0275 M1668.89 45.84 Q1668.81 39.7232 1665.45 36.0774 Q1662.13 32.4315 1656.62 32.4315 Q1650.38 32.4315 1646.61 35.9558 Q1642.88 39.4801 1642.32 45.8805 L1668.89 45.84 Z" fill="#000000" fill-rule="nonzero" fill-opacity="1" /><path clip-path="url(#clip300)" d="M1717.5 28.5427 L1717.5 35.5912 Q1714.34 33.9709 1710.94 33.1607 Q1707.54 32.3505 1703.89 32.3505 Q1698.34 32.3505 1695.55 34.0519 Q1692.79 35.7533 1692.79 39.156 Q1692.79 41.7486 1694.78 43.2475 Q1696.76 44.7058 1702.76 46.0426 L1705.31 46.6097 Q1713.25 48.3111 1716.57 51.4303 Q1719.93 54.509 1719.93 60.0587 Q1719.93 66.3781 1714.91 70.0644 Q1709.93 73.7508 1701.18 73.7508 Q1697.53 73.7508 1693.56 73.0216 Q1689.63 72.3329 1685.26 70.9151 L1685.26 63.2184 Q1689.39 65.3654 1693.4 66.4591 Q1697.41 67.5124 1701.34 67.5124 Q1706.6 67.5124 1709.44 65.73 Q1712.28 63.9071 1712.28 60.6258 Q1712.28 57.5877 1710.21 55.9673 Q1708.18 54.3469 1701.26 52.8481 L1698.66 52.2405 Q1691.74 50.7821 1688.66 47.7845 Q1685.58 44.7463 1685.58 39.4801 Q1685.58 33.0797 1690.12 29.5959 Q1694.65 26.1121 1703 26.1121 Q1707.13 26.1121 1710.78 26.7198 Q1714.42 27.3274 1717.5 28.5427 Z" fill="#000000" fill-rule="nonzero" fill-opacity="1" /><polyline clip-path="url(#clip302)" style="stroke:#000000; stroke-linecap:round; stroke-linejoin:round; stroke-width:8; stroke-opacity:0.75; fill:none" points="323.395,1386.4 323.395,1302.63 342.902,1302.63 342.902,1216.77 362.41,1216.77 362.41,1175.93 381.917,1175.93 381.917,1141.38 401.425,1141.38 401.425,1099.49 420.932,1099.49 420.932,1077.5 440.44,1077.5 440.44,1082.74 459.947,1082.74 459.947,1058.13 479.455,1058.13 479.455,1060.23 498.962,1060.23 498.962,1028.29 518.47,1028.29 518.47,1046.62 537.977,1046.62 557.484,1046.62 557.484,1043.47 576.992,1043.47 576.992,1001.07 596.499,1001.07 596.499,1037.19 616.007,1037.19 616.007,1057.09 635.514,1057.09 635.514,1028.29 655.022,1028.29 655.022,1025.15 674.529,1025.15 674.529,1054.99 694.037,1054.99 694.037,1062.32 713.544,1062.32 713.544,1074.36 733.052,1074.36 733.052,1048.71 752.559,1048.71 752.559,1080.12 772.066,1080.12 772.066,1075.93 791.574,1075.93 791.574,1081.17 811.081,1081.17 811.081,1104.21 830.589,1104.21 830.589,1083.79 850.096,1083.79 850.096,1069.13 869.604,1069.13 869.604,1074.89 889.111,1074.89 889.111,1092.16 908.619,1092.16 908.619,1094.26 928.126,1094.26 928.126,1085.88 947.634,1085.88 947.634,1098.45 967.141,1098.45 967.141,1104.21 986.649,1104.21 986.649,1087.98 1006.16,1087.98 1006.16,1102.63 1025.66,1102.63 1025.66,1106.82 1045.17,1106.82 1045.17,1128.29 1064.68,1128.29 1064.68,1091.12 1084.19,1091.12 1084.19,1093.21 1103.69,1093.21 1103.69,1111.01 1123.2,1111.01 1123.2,1092.69 1142.71,1092.69 1142.71,1094.26 1162.22,1094.26 1162.22,1085.88 1181.72,1085.88 1181.72,1088.5 1201.23,1088.5 1201.23,1072.79 1220.74,1072.79 1220.74,1094.78 1240.25,1094.78 1240.25,1077.5 1259.75,1077.5 1259.75,1097.4 1279.26,1097.4 1279.26,1064.42 1298.77,1064.42 1298.77,1057.09 1318.28,1057.09 1318.28,1040.86 1337.78,1040.86 1337.78,1029.34 1357.29,1029.34 1357.29,1063.37 1376.8,1063.37 1376.8,1040.86 1396.31,1040.86 1396.31,1019.39 1415.81,1019.39 1415.81,1006.3 1435.32,1006.3 1435.32,1003.69 1454.83,1003.69 1454.83,960.755 1474.34,960.755 1474.34,997.926 1493.84,997.926 1493.84,967.037 1513.35,967.037 1513.35,950.807 1532.86,950.807 1532.86,961.802 1552.36,961.802 1552.36,982.743 1571.87,982.743 1571.87,938.766 1591.38,938.766 1591.38,911.542 1610.89,911.542 1610.89,920.442 1630.39,920.442 1630.39,888.506 1649.9,888.506 1649.9,881.7 1669.41,881.7 1669.41,836.151 1688.92,836.151 1688.92,841.91 1708.42,841.91 1708.42,794.268 1727.93,794.268 1727.93,800.55 1747.44,800.55 1747.44,797.409 1766.95,797.409 1766.95,765.473 1786.45,765.473 1786.45,718.354 1805.96,718.354 1805.96,727.778 1825.47,727.778 1825.47,709.977 1844.98,709.977 1844.98,704.742 1864.48,704.742 1864.48,644.011 1883.99,644.011 1883.99,660.241 1903.5,660.241 1903.5,626.21 1923.01,626.21 1923.01,533.019 1942.51,533.019 1942.51,579.091 1962.02,579.091 1962.02,517.837 1981.53,517.837 1981.53,468.1 2001.04,468.1 2001.04,507.366 2020.54,507.366 2020.54,415.222 2040.05,415.222 2040.05,438.258 2059.56,438.258 2059.56,340.879 2079.07,340.879 2079.07,365.485 2098.57,365.485 2098.57,281.718 2118.08,281.718 2118.08,263.394 2137.59,263.394 2137.59,208.946 2157.1,208.946 2157.1,161.303 2176.6,161.303 2176.6,160.256 2196.11,160.256 2196.11,369.15 2215.62,369.15 2215.62,593.227 2235.13,593.227 2235.13,926.201 2254.63,926.201 2254.63,1235.62 2274.14,1235.62 2274.14,1386.4 "/>
<polyline clip-path="url(#clip302)" style="stroke:#0000ff; stroke-linecap:round; stroke-linejoin:round; stroke-width:8; stroke-opacity:0.75; fill:none" points="323.395,1386.4 323.395,1378.54 342.902,1378.54 342.902,1385.87 362.41,1385.87 381.917,1385.87 401.425,1385.87 401.425,1386.4 420.932,1386.4 440.44,1386.4 440.44,1385.87 459.947,1385.87 459.947,1386.4 479.455,1386.4 498.962,1386.4 518.47,1386.4 537.977,1386.4 557.484,1386.4 576.992,1386.4 596.499,1386.4 616.007,1386.4 635.514,1386.4 655.022,1386.4 655.022,1385.87 674.529,1385.87 674.529,1386.4 694.037,1386.4 713.544,1386.4 733.052,1386.4 752.559,1386.4 772.066,1386.4 791.574,1386.4 811.081,1386.4 811.081,1385.87 830.589,1385.87 830.589,1386.4 850.096,1386.4 869.604,1386.4 889.111,1386.4 908.619,1386.4 928.126,1386.4 947.634,1386.4 967.141,1386.4 986.649,1386.4 1006.16,1386.4 1025.66,1386.4 1025.66,1385.87 1045.17,1385.87 1045.17,1386.4 1064.68,1386.4 1084.19,1386.4 1103.69,1386.4 1123.2,1386.4 1142.71,1386.4 1162.22,1386.4 1181.72,1386.4 1201.23,1386.4 1220.74,1386.4 1240.25,1386.4 1259.75,1386.4 1279.26,1386.4 1298.77,1386.4 1318.28,1386.4 1337.78,1386.4 1357.29,1386.4 1376.8,1386.4 1396.31,1386.4 1415.81,1386.4 1435.32,1386.4 1454.83,1386.4 1474.34,1386.4 1493.84,1386.4 1513.35,1386.4 1532.86,1386.4 1552.36,1386.4 1571.87,1386.4 1591.38,1386.4 1610.89,1386.4 1630.39,1386.4 1649.9,1386.4 1669.41,1386.4 1688.92,1386.4 1708.42,1386.4 1727.93,1386.4 1747.44,1386.4 1766.95,1386.4 1786.45,1386.4 1805.96,1386.4 1825.47,1386.4 1844.98,1386.4 1864.48,1386.4 1883.99,1386.4 1903.5,1386.4 1903.5,1385.87 1923.01,1385.87 1923.01,1386.4 1942.51,1386.4 1962.02,1386.4 1981.53,1386.4 2001.04,1386.4 2020.54,1386.4 2040.05,1386.4 2059.56,1386.4 2079.07,1386.4 2098.57,1386.4 2118.08,1386.4 2118.08,1385.87 2137.59,1385.87 2137.59,1386.4 2157.1,1386.4 2176.6,1386.4 2196.11,1386.4 2215.62,1386.4 2235.13,1386.4 2235.13,1385.87 2254.63,1385.87 2254.63,477 2274.14,477 2274.14,1375.92 2293.65,1375.92 2293.65,1386.4 "/>
<path clip-path="url(#clip300)" d="M333.903 322.316 L985.618 322.316 L985.618 166.796 L333.903 166.796  Z" fill="#ffffff" fill-rule="evenodd" fill-opacity="1"/>
<polyline clip-path="url(#clip300)" style="stroke:#000000; stroke-linecap:round; stroke-linejoin:round; stroke-width:4; stroke-opacity:1; fill:none" points="333.903,322.316 985.618,322.316 985.618,166.796 333.903,166.796 333.903,322.316 "/>
<polyline clip-path="url(#clip300)" style="stroke:#000000; stroke-linecap:round; stroke-linejoin:round; stroke-width:8; stroke-opacity:0.75; fill:none" points="357.108,218.636 496.339,218.636 "/>
<path clip-path="url(#clip300)" d="M519.545 201.356 L541.396 201.356 L541.396 205.291 L524.22 205.291 L524.22 215.522 L540.679 215.522 L540.679 219.457 L524.22 219.457 L524.22 231.981 L541.813 231.981 L541.813 235.916 L519.545 235.916 L519.545 201.356 Z" fill="#000000" fill-rule="nonzero" fill-opacity="1" /><path clip-path="url(#clip300)" d="M549.313 199.897 L553.572 199.897 L553.572 235.916 L549.313 235.916 L549.313 199.897 Z" fill="#000000" fill-rule="nonzero" fill-opacity="1" /><path clip-path="url(#clip300)" d="M574.267 222.883 Q569.105 222.883 567.114 224.064 Q565.123 225.244 565.123 228.092 Q565.123 230.36 566.605 231.703 Q568.109 233.022 570.679 233.022 Q574.22 233.022 576.35 230.522 Q578.503 227.999 578.503 223.832 L578.503 222.883 L574.267 222.883 M582.762 221.124 L582.762 235.916 L578.503 235.916 L578.503 231.981 Q577.044 234.342 574.868 235.476 Q572.692 236.587 569.544 236.587 Q565.563 236.587 563.202 234.365 Q560.864 232.119 560.864 228.369 Q560.864 223.994 563.78 221.772 Q566.72 219.55 572.53 219.55 L578.503 219.55 L578.503 219.133 Q578.503 216.194 576.558 214.596 Q574.637 212.976 571.142 212.976 Q568.919 212.976 566.813 213.508 Q564.706 214.041 562.762 215.106 L562.762 211.17 Q565.1 210.268 567.299 209.828 Q569.498 209.365 571.581 209.365 Q577.206 209.365 579.984 212.282 Q582.762 215.198 582.762 221.124 Z" fill="#000000" fill-rule="nonzero" fill-opacity="1" /><path clip-path="url(#clip300)" d="M608.063 210.754 L608.063 214.782 Q606.257 213.856 604.313 213.393 Q602.368 212.93 600.285 212.93 Q597.114 212.93 595.516 213.902 Q593.942 214.874 593.942 216.819 Q593.942 218.3 595.077 219.157 Q596.211 219.99 599.637 220.754 L601.095 221.078 Q605.632 222.05 607.53 223.832 Q609.452 225.592 609.452 228.763 Q609.452 232.374 606.581 234.481 Q603.734 236.587 598.734 236.587 Q596.651 236.587 594.382 236.17 Q592.137 235.777 589.637 234.967 L589.637 230.569 Q591.998 231.795 594.29 232.42 Q596.581 233.022 598.827 233.022 Q601.836 233.022 603.456 232.004 Q605.077 230.962 605.077 229.087 Q605.077 227.351 603.896 226.425 Q602.739 225.499 598.78 224.643 L597.299 224.295 Q593.34 223.462 591.581 221.749 Q589.822 220.013 589.822 217.004 Q589.822 213.346 592.415 211.356 Q595.007 209.365 599.776 209.365 Q602.137 209.365 604.22 209.712 Q606.303 210.059 608.063 210.754 Z" fill="#000000" fill-rule="nonzero" fill-opacity="1" /><path clip-path="url(#clip300)" d="M620.447 202.629 L620.447 209.99 L629.22 209.99 L629.22 213.3 L620.447 213.3 L620.447 227.374 Q620.447 230.545 621.303 231.448 Q622.183 232.351 624.845 232.351 L629.22 232.351 L629.22 235.916 L624.845 235.916 Q619.914 235.916 618.039 234.087 Q616.164 232.235 616.164 227.374 L616.164 213.3 L613.039 213.3 L613.039 209.99 L616.164 209.99 L616.164 202.629 L620.447 202.629 Z" fill="#000000" fill-rule="nonzero" fill-opacity="1" /><path clip-path="url(#clip300)" d="M634.822 209.99 L639.081 209.99 L639.081 235.916 L634.822 235.916 L634.822 209.99 M634.822 199.897 L639.081 199.897 L639.081 205.291 L634.822 205.291 L634.822 199.897 Z" fill="#000000" fill-rule="nonzero" fill-opacity="1" /><path clip-path="url(#clip300)" d="M666.65 210.985 L666.65 214.967 Q664.845 213.971 663.016 213.485 Q661.211 212.976 659.359 212.976 Q655.215 212.976 652.924 215.615 Q650.632 218.231 650.632 222.976 Q650.632 227.721 652.924 230.36 Q655.215 232.976 659.359 232.976 Q661.211 232.976 663.016 232.49 Q664.845 231.981 666.65 230.985 L666.65 234.92 Q664.868 235.754 662.947 236.17 Q661.048 236.587 658.896 236.587 Q653.039 236.587 649.59 232.906 Q646.141 229.226 646.141 222.976 Q646.141 216.633 649.613 212.999 Q653.109 209.365 659.173 209.365 Q661.141 209.365 663.016 209.782 Q664.891 210.175 666.65 210.985 Z" fill="#000000" fill-rule="nonzero" fill-opacity="1" /><path clip-path="url(#clip300)" d="M693.247 232.027 L693.247 245.777 L688.965 245.777 L688.965 209.99 L693.247 209.99 L693.247 213.925 Q694.59 211.61 696.627 210.499 Q698.687 209.365 701.534 209.365 Q706.257 209.365 709.196 213.115 Q712.159 216.865 712.159 222.976 Q712.159 229.087 709.196 232.837 Q706.257 236.587 701.534 236.587 Q698.687 236.587 696.627 235.476 Q694.59 234.342 693.247 232.027 M707.738 222.976 Q707.738 218.277 705.794 215.615 Q703.872 212.93 700.493 212.93 Q697.113 212.93 695.169 215.615 Q693.247 218.277 693.247 222.976 Q693.247 227.675 695.169 230.36 Q697.113 233.022 700.493 233.022 Q703.872 233.022 705.794 230.36 Q707.738 227.675 707.738 222.976 Z" fill="#000000" fill-rule="nonzero" fill-opacity="1" /><path clip-path="url(#clip300)" d="M734.243 213.971 Q733.525 213.555 732.668 213.37 Q731.835 213.161 730.817 213.161 Q727.206 213.161 725.261 215.522 Q723.34 217.86 723.34 222.258 L723.34 235.916 L719.057 235.916 L719.057 209.99 L723.34 209.99 L723.34 214.018 Q724.682 211.657 726.835 210.522 Q728.988 209.365 732.067 209.365 Q732.506 209.365 733.039 209.434 Q733.571 209.481 734.219 209.596 L734.243 213.971 Z" fill="#000000" fill-rule="nonzero" fill-opacity="1" /><path clip-path="url(#clip300)" d="M747.715 212.976 Q744.289 212.976 742.298 215.661 Q740.307 218.323 740.307 222.976 Q740.307 227.629 742.275 230.314 Q744.266 232.976 747.715 232.976 Q751.117 232.976 753.108 230.291 Q755.099 227.606 755.099 222.976 Q755.099 218.37 753.108 215.684 Q751.117 212.976 747.715 212.976 M747.715 209.365 Q753.27 209.365 756.441 212.976 Q759.613 216.587 759.613 222.976 Q759.613 229.342 756.441 232.976 Q753.27 236.587 747.715 236.587 Q742.136 236.587 738.965 232.976 Q735.817 229.342 735.817 222.976 Q735.817 216.587 738.965 212.976 Q742.136 209.365 747.715 209.365 Z" fill="#000000" fill-rule="nonzero" fill-opacity="1" /><path clip-path="url(#clip300)" d="M770.886 202.629 L770.886 209.99 L779.659 209.99 L779.659 213.3 L770.886 213.3 L770.886 227.374 Q770.886 230.545 771.742 231.448 Q772.622 232.351 775.284 232.351 L779.659 232.351 L779.659 235.916 L775.284 235.916 Q770.353 235.916 768.478 234.087 Q766.603 232.235 766.603 227.374 L766.603 213.3 L763.478 213.3 L763.478 209.99 L766.603 209.99 L766.603 202.629 L770.886 202.629 Z" fill="#000000" fill-rule="nonzero" fill-opacity="1" /><path clip-path="url(#clip300)" d="M795.307 212.976 Q791.881 212.976 789.89 215.661 Q787.9 218.323 787.9 222.976 Q787.9 227.629 789.867 230.314 Q791.858 232.976 795.307 232.976 Q798.71 232.976 800.7 230.291 Q802.691 227.606 802.691 222.976 Q802.691 218.37 800.7 215.684 Q798.71 212.976 795.307 212.976 M795.307 209.365 Q800.863 209.365 804.034 212.976 Q807.205 216.587 807.205 222.976 Q807.205 229.342 804.034 232.976 Q800.863 236.587 795.307 236.587 Q789.728 236.587 786.557 232.976 Q783.409 229.342 783.409 222.976 Q783.409 216.587 786.557 212.976 Q789.728 209.365 795.307 209.365 Z" fill="#000000" fill-rule="nonzero" fill-opacity="1" /><path clip-path="url(#clip300)" d="M835.816 220.268 L835.816 235.916 L831.557 235.916 L831.557 220.407 Q831.557 216.726 830.122 214.897 Q828.686 213.069 825.816 213.069 Q822.367 213.069 820.376 215.268 Q818.386 217.467 818.386 221.263 L818.386 235.916 L814.103 235.916 L814.103 209.99 L818.386 209.99 L818.386 214.018 Q819.913 211.68 821.974 210.522 Q824.057 209.365 826.765 209.365 Q831.233 209.365 833.524 212.143 Q835.816 214.897 835.816 220.268 Z" fill="#000000" fill-rule="nonzero" fill-opacity="1" /><path clip-path="url(#clip300)" d="M860.839 210.754 L860.839 214.782 Q859.034 213.856 857.089 213.393 Q855.145 212.93 853.061 212.93 Q849.89 212.93 848.293 213.902 Q846.719 214.874 846.719 216.819 Q846.719 218.3 847.853 219.157 Q848.987 219.99 852.413 220.754 L853.872 221.078 Q858.409 222.05 860.307 223.832 Q862.228 225.592 862.228 228.763 Q862.228 232.374 859.358 234.481 Q856.51 236.587 851.51 236.587 Q849.427 236.587 847.159 236.17 Q844.913 235.777 842.413 234.967 L842.413 230.569 Q844.774 231.795 847.066 232.42 Q849.358 233.022 851.603 233.022 Q854.612 233.022 856.233 232.004 Q857.853 230.962 857.853 229.087 Q857.853 227.351 856.672 226.425 Q855.515 225.499 851.557 224.643 L850.075 224.295 Q846.117 223.462 844.358 221.749 Q842.598 220.013 842.598 217.004 Q842.598 213.346 845.191 211.356 Q847.784 209.365 852.552 209.365 Q854.913 209.365 856.996 209.712 Q859.08 210.059 860.839 210.754 Z" fill="#000000" fill-rule="nonzero" fill-opacity="1" /><polyline clip-path="url(#clip300)" style="stroke:#0000ff; stroke-linecap:round; stroke-linejoin:round; stroke-width:8; stroke-opacity:0.75; fill:none" points="357.108,270.476 496.339,270.476 "/>
<path clip-path="url(#clip300)" d="M519.545 253.196 L525.841 253.196 L541.165 282.108 L541.165 253.196 L545.702 253.196 L545.702 287.756 L539.406 287.756 L524.082 258.844 L524.082 287.756 L519.545 287.756 L519.545 253.196 Z" fill="#000000" fill-rule="nonzero" fill-opacity="1" /><path clip-path="url(#clip300)" d="M576.998 273.728 L576.998 275.811 L557.415 275.811 Q557.693 280.209 560.054 282.524 Q562.438 284.816 566.674 284.816 Q569.128 284.816 571.419 284.214 Q573.734 283.612 576.003 282.409 L576.003 286.436 Q573.711 287.408 571.304 287.918 Q568.896 288.427 566.419 288.427 Q560.216 288.427 556.581 284.816 Q552.97 281.205 552.97 275.047 Q552.97 268.682 556.396 264.955 Q559.845 261.205 565.679 261.205 Q570.91 261.205 573.942 264.585 Q576.998 267.941 576.998 273.728 M572.739 272.478 Q572.692 268.983 570.771 266.899 Q568.873 264.816 565.725 264.816 Q562.16 264.816 560.007 266.83 Q557.878 268.844 557.554 272.501 L572.739 272.478 Z" fill="#000000" fill-rule="nonzero" fill-opacity="1" /><path clip-path="url(#clip300)" d="M583.549 277.524 L583.549 261.83 L587.808 261.83 L587.808 277.362 Q587.808 281.043 589.243 282.895 Q590.678 284.723 593.549 284.723 Q596.998 284.723 598.989 282.524 Q601.002 280.325 601.002 276.529 L601.002 261.83 L605.262 261.83 L605.262 287.756 L601.002 287.756 L601.002 283.774 Q599.452 286.135 597.391 287.293 Q595.354 288.427 592.646 288.427 Q588.178 288.427 585.864 285.649 Q583.549 282.871 583.549 277.524 M594.266 261.205 L594.266 261.205 Z" fill="#000000" fill-rule="nonzero" fill-opacity="1" /><path clip-path="url(#clip300)" d="M618.248 254.469 L618.248 261.83 L627.021 261.83 L627.021 265.14 L618.248 265.14 L618.248 279.214 Q618.248 282.385 619.104 283.288 Q619.984 284.191 622.646 284.191 L627.021 284.191 L627.021 287.756 L622.646 287.756 Q617.715 287.756 615.84 285.927 Q613.965 284.075 613.965 279.214 L613.965 265.14 L610.84 265.14 L610.84 261.83 L613.965 261.83 L613.965 254.469 L618.248 254.469 Z" fill="#000000" fill-rule="nonzero" fill-opacity="1" /><path clip-path="url(#clip300)" d="M647.646 265.811 Q646.928 265.395 646.072 265.21 Q645.238 265.001 644.22 265.001 Q640.609 265.001 638.664 267.362 Q636.743 269.7 636.743 274.098 L636.743 287.756 L632.461 287.756 L632.461 261.83 L636.743 261.83 L636.743 265.858 Q638.086 263.497 640.238 262.362 Q642.391 261.205 645.47 261.205 Q645.91 261.205 646.442 261.274 Q646.974 261.321 647.623 261.436 L647.646 265.811 Z" fill="#000000" fill-rule="nonzero" fill-opacity="1" /><path clip-path="url(#clip300)" d="M661.118 264.816 Q657.692 264.816 655.701 267.501 Q653.711 270.163 653.711 274.816 Q653.711 279.469 655.678 282.154 Q657.669 284.816 661.118 284.816 Q664.521 284.816 666.511 282.131 Q668.502 279.446 668.502 274.816 Q668.502 270.21 666.511 267.524 Q664.521 264.816 661.118 264.816 M661.118 261.205 Q666.673 261.205 669.845 264.816 Q673.016 268.427 673.016 274.816 Q673.016 281.182 669.845 284.816 Q666.673 288.427 661.118 288.427 Q655.539 288.427 652.368 284.816 Q649.22 281.182 649.22 274.816 Q649.22 268.427 652.368 264.816 Q655.539 261.205 661.118 261.205 Z" fill="#000000" fill-rule="nonzero" fill-opacity="1" /><path clip-path="url(#clip300)" d="M701.627 272.108 L701.627 287.756 L697.368 287.756 L697.368 272.247 Q697.368 268.566 695.933 266.737 Q694.497 264.909 691.627 264.909 Q688.178 264.909 686.187 267.108 Q684.196 269.307 684.196 273.103 L684.196 287.756 L679.914 287.756 L679.914 261.83 L684.196 261.83 L684.196 265.858 Q685.724 263.52 687.784 262.362 Q689.868 261.205 692.576 261.205 Q697.044 261.205 699.335 263.983 Q701.627 266.737 701.627 272.108 Z" fill="#000000" fill-rule="nonzero" fill-opacity="1" /><path clip-path="url(#clip300)" d="M738.317 251.737 L738.317 255.279 L734.243 255.279 Q731.951 255.279 731.048 256.205 Q730.168 257.131 730.168 259.538 L730.168 261.83 L737.182 261.83 L737.182 265.14 L730.168 265.14 L730.168 287.756 L725.886 287.756 L725.886 265.14 L721.812 265.14 L721.812 261.83 L725.886 261.83 L725.886 260.024 Q725.886 255.696 727.9 253.728 Q729.914 251.737 734.289 251.737 L738.317 251.737 Z" fill="#000000" fill-rule="nonzero" fill-opacity="1" /><path clip-path="url(#clip300)" d="M756.904 265.811 Q756.187 265.395 755.33 265.21 Q754.497 265.001 753.479 265.001 Q749.867 265.001 747.923 267.362 Q746.002 269.7 746.002 274.098 L746.002 287.756 L741.719 287.756 L741.719 261.83 L746.002 261.83 L746.002 265.858 Q747.344 263.497 749.497 262.362 Q751.65 261.205 754.729 261.205 Q755.168 261.205 755.701 261.274 Q756.233 261.321 756.881 261.436 L756.904 265.811 Z" fill="#000000" fill-rule="nonzero" fill-opacity="1" /><path clip-path="url(#clip300)" d="M773.154 274.723 Q767.992 274.723 766.002 275.904 Q764.011 277.084 764.011 279.932 Q764.011 282.2 765.492 283.543 Q766.997 284.862 769.566 284.862 Q773.108 284.862 775.238 282.362 Q777.39 279.839 777.39 275.672 L777.39 274.723 L773.154 274.723 M781.65 272.964 L781.65 287.756 L777.39 287.756 L777.39 283.821 Q775.932 286.182 773.756 287.316 Q771.58 288.427 768.432 288.427 Q764.451 288.427 762.09 286.205 Q759.752 283.959 759.752 280.209 Q759.752 275.834 762.668 273.612 Q765.608 271.39 771.418 271.39 L777.39 271.39 L777.39 270.973 Q777.39 268.034 775.446 266.436 Q773.525 264.816 770.029 264.816 Q767.807 264.816 765.701 265.348 Q763.594 265.881 761.65 266.946 L761.65 263.01 Q763.988 262.108 766.187 261.668 Q768.386 261.205 770.469 261.205 Q776.094 261.205 778.872 264.122 Q781.65 267.038 781.65 272.964 Z" fill="#000000" fill-rule="nonzero" fill-opacity="1" /><path clip-path="url(#clip300)" d="M807.483 274.492 Q807.483 269.862 805.562 267.316 Q803.663 264.77 800.214 264.77 Q796.788 264.77 794.867 267.316 Q792.969 269.862 792.969 274.492 Q792.969 279.098 794.867 281.645 Q796.788 284.191 800.214 284.191 Q803.663 284.191 805.562 281.645 Q807.483 279.098 807.483 274.492 M811.742 284.538 Q811.742 291.158 808.802 294.376 Q805.863 297.617 799.798 297.617 Q797.552 297.617 795.562 297.27 Q793.571 296.945 791.696 296.251 L791.696 292.108 Q793.571 293.126 795.4 293.612 Q797.228 294.098 799.126 294.098 Q803.316 294.098 805.4 291.899 Q807.483 289.723 807.483 285.302 L807.483 283.196 Q806.163 285.487 804.103 286.621 Q802.043 287.756 799.173 287.756 Q794.404 287.756 791.488 284.121 Q788.571 280.487 788.571 274.492 Q788.571 268.473 791.488 264.839 Q794.404 261.205 799.173 261.205 Q802.043 261.205 804.103 262.339 Q806.163 263.473 807.483 265.765 L807.483 261.83 L811.742 261.83 L811.742 284.538 Z" fill="#000000" fill-rule="nonzero" fill-opacity="1" /><path clip-path="url(#clip300)" d="M840.7 266.807 Q842.297 263.936 844.52 262.571 Q846.742 261.205 849.751 261.205 Q853.802 261.205 856.001 264.052 Q858.2 266.876 858.2 272.108 L858.2 287.756 L853.918 287.756 L853.918 272.247 Q853.918 268.52 852.598 266.714 Q851.279 264.909 848.571 264.909 Q845.26 264.909 843.339 267.108 Q841.418 269.307 841.418 273.103 L841.418 287.756 L837.135 287.756 L837.135 272.247 Q837.135 268.497 835.816 266.714 Q834.497 264.909 831.742 264.909 Q828.478 264.909 826.557 267.131 Q824.636 269.33 824.636 273.103 L824.636 287.756 L820.353 287.756 L820.353 261.83 L824.636 261.83 L824.636 265.858 Q826.094 263.473 828.131 262.339 Q830.168 261.205 832.969 261.205 Q835.793 261.205 837.76 262.64 Q839.751 264.075 840.7 266.807 Z" fill="#000000" fill-rule="nonzero" fill-opacity="1" /><path clip-path="url(#clip300)" d="M888.871 273.728 L888.871 275.811 L869.288 275.811 Q869.566 280.209 871.927 282.524 Q874.311 284.816 878.547 284.816 Q881.001 284.816 883.293 284.214 Q885.607 283.612 887.876 282.409 L887.876 286.436 Q885.584 287.408 883.177 287.918 Q880.77 288.427 878.293 288.427 Q872.089 288.427 868.455 284.816 Q864.844 281.205 864.844 275.047 Q864.844 268.682 868.27 264.955 Q871.719 261.205 877.552 261.205 Q882.783 261.205 885.816 264.585 Q888.871 267.941 888.871 273.728 M884.612 272.478 Q884.566 268.983 882.645 266.899 Q880.746 264.816 877.598 264.816 Q874.033 264.816 871.881 266.83 Q869.751 268.844 869.427 272.501 L884.612 272.478 Z" fill="#000000" fill-rule="nonzero" fill-opacity="1" /><path clip-path="url(#clip300)" d="M917.413 272.108 L917.413 287.756 L913.154 287.756 L913.154 272.247 Q913.154 268.566 911.718 266.737 Q910.283 264.909 907.413 264.909 Q903.964 264.909 901.973 267.108 Q899.982 269.307 899.982 273.103 L899.982 287.756 L895.7 287.756 L895.7 261.83 L899.982 261.83 L899.982 265.858 Q901.51 263.52 903.57 262.362 Q905.654 261.205 908.362 261.205 Q912.83 261.205 915.121 263.983 Q917.413 266.737 917.413 272.108 Z" fill="#000000" fill-rule="nonzero" fill-opacity="1" /><path clip-path="url(#clip300)" d="M930.121 254.469 L930.121 261.83 L938.894 261.83 L938.894 265.14 L930.121 265.14 L930.121 279.214 Q930.121 282.385 930.978 283.288 Q931.857 284.191 934.519 284.191 L938.894 284.191 L938.894 287.756 L934.519 287.756 Q929.589 287.756 927.714 285.927 Q925.839 284.075 925.839 279.214 L925.839 265.14 L922.714 265.14 L922.714 261.83 L925.839 261.83 L925.839 254.469 L930.121 254.469 Z" fill="#000000" fill-rule="nonzero" fill-opacity="1" /><path clip-path="url(#clip300)" d="M961.024 262.594 L961.024 266.622 Q959.218 265.696 957.274 265.233 Q955.329 264.77 953.246 264.77 Q950.075 264.77 948.477 265.742 Q946.903 266.714 946.903 268.659 Q946.903 270.14 948.038 270.997 Q949.172 271.83 952.598 272.594 L954.056 272.918 Q958.593 273.89 960.491 275.672 Q962.413 277.432 962.413 280.603 Q962.413 284.214 959.542 286.321 Q956.695 288.427 951.695 288.427 Q949.612 288.427 947.343 288.01 Q945.098 287.617 942.598 286.807 L942.598 282.409 Q944.959 283.635 947.251 284.26 Q949.542 284.862 951.788 284.862 Q954.797 284.862 956.417 283.844 Q958.038 282.802 958.038 280.927 Q958.038 279.191 956.857 278.265 Q955.7 277.339 951.741 276.483 L950.26 276.135 Q946.302 275.302 944.542 273.589 Q942.783 271.853 942.783 268.844 Q942.783 265.186 945.376 263.196 Q947.968 261.205 952.737 261.205 Q955.098 261.205 957.181 261.552 Q959.264 261.899 961.024 262.594 Z" fill="#000000" fill-rule="nonzero" fill-opacity="1" /></svg>
