<?xml version="1.0" encoding="utf-8"?>
<svg xmlns="http://www.w3.org/2000/svg" xmlns:xlink="http://www.w3.org/1999/xlink" width="600" height="400" viewBox="0 0 2400 1600">
<defs>
  <clipPath id="clip430">
    <rect x="0" y="0" width="2400" height="1600"/>
  </clipPath>
</defs>
<path clip-path="url(#clip430)" d="M0 1600 L2400 1600 L2400 0 L0 0  Z" fill="#ffffff" fill-rule="evenodd" fill-opacity="1"/>
<defs>
  <clipPath id="clip431">
    <rect x="480" y="0" width="1681" height="1600"/>
  </clipPath>
</defs>
<path clip-path="url(#clip430)" d="M262.551 1423.18 L2352.76 1423.18 L2352.76 123.472 L262.551 123.472  Z" fill="#ffffff" fill-rule="evenodd" fill-opacity="1"/>
<defs>
  <clipPath id="clip432">
    <rect x="262" y="123" width="2091" height="1301"/>
  </clipPath>
</defs>
<polyline clip-path="url(#clip432)" style="stroke:#000000; stroke-linecap:round; stroke-linejoin:round; stroke-width:2; stroke-opacity:0.1; fill:none" points="321.708,1423.18 321.708,123.472 "/>
<polyline clip-path="url(#clip432)" style="stroke:#000000; stroke-linecap:round; stroke-linejoin:round; stroke-width:2; stroke-opacity:0.1; fill:none" points="809.8,1423.18 809.8,123.472 "/>
<polyline clip-path="url(#clip432)" style="stroke:#000000; stroke-linecap:round; stroke-linejoin:round; stroke-width:2; stroke-opacity:0.1; fill:none" points="1297.89,1423.18 1297.89,123.472 "/>
<polyline clip-path="url(#clip432)" style="stroke:#000000; stroke-linecap:round; stroke-linejoin:round; stroke-width:2; stroke-opacity:0.1; fill:none" points="1785.98,1423.18 1785.98,123.472 "/>
<polyline clip-path="url(#clip432)" style="stroke:#000000; stroke-linecap:round; stroke-linejoin:round; stroke-width:2; stroke-opacity:0.1; fill:none" points="2274.08,1423.18 2274.08,123.472 "/>
<polyline clip-path="url(#clip432)" style="stroke:#000000; stroke-linecap:round; stroke-linejoin:round; stroke-width:2; stroke-opacity:0.1; fill:none" points="262.551,1386.4 2352.76,1386.4 "/>
<polyline clip-path="url(#clip432)" style="stroke:#000000; stroke-linecap:round; stroke-linejoin:round; stroke-width:2; stroke-opacity:0.1; fill:none" points="262.551,990.611 2352.76,990.611 "/>
<polyline clip-path="url(#clip432)" style="stroke:#000000; stroke-linecap:round; stroke-linejoin:round; stroke-width:2; stroke-opacity:0.1; fill:none" points="262.551,594.827 2352.76,594.827 "/>
<polyline clip-path="url(#clip432)" style="stroke:#000000; stroke-linecap:round; stroke-linejoin:round; stroke-width:2; stroke-opacity:0.1; fill:none" points="262.551,199.043 2352.76,199.043 "/>
<polyline clip-path="url(#clip430)" style="stroke:#000000; stroke-linecap:round; stroke-linejoin:round; stroke-width:4; stroke-opacity:1; fill:none" points="262.551,1423.18 2352.76,1423.18 "/>
<polyline clip-path="url(#clip430)" style="stroke:#000000; stroke-linecap:round; stroke-linejoin:round; stroke-width:4; stroke-opacity:1; fill:none" points="321.708,1423.18 321.708,1404.28 "/>
<polyline clip-path="url(#clip430)" style="stroke:#000000; stroke-linecap:round; stroke-linejoin:round; stroke-width:4; stroke-opacity:1; fill:none" points="809.8,1423.18 809.8,1404.28 "/>
<polyline clip-path="url(#clip430)" style="stroke:#000000; stroke-linecap:round; stroke-linejoin:round; stroke-width:4; stroke-opacity:1; fill:none" points="1297.89,1423.18 1297.89,1404.28 "/>
<polyline clip-path="url(#clip430)" style="stroke:#000000; stroke-linecap:round; stroke-linejoin:round; stroke-width:4; stroke-opacity:1; fill:none" points="1785.98,1423.18 1785.98,1404.28 "/>
<polyline clip-path="url(#clip430)" style="stroke:#000000; stroke-linecap:round; stroke-linejoin:round; stroke-width:4; stroke-opacity:1; fill:none" points="2274.08,1423.18 2274.08,1404.28 "/>
<path clip-path="url(#clip430)" d="M321.708 1454.1 Q318.097 1454.1 316.268 1457.66 Q314.463 1461.2 314.463 1468.33 Q314.463 1475.44 316.268 1479.01 Q318.097 1482.55 321.708 1482.55 Q325.342 1482.55 327.148 1479.01 Q328.976 1475.44 328.976 1468.33 Q328.976 1461.2 327.148 1457.66 Q325.342 1454.1 321.708 1454.1 M321.708 1450.39 Q327.518 1450.39 330.574 1455 Q333.652 1459.58 333.652 1468.33 Q333.652 1477.06 330.574 1481.67 Q327.518 1486.25 321.708 1486.25 Q315.898 1486.25 312.819 1481.67 Q309.764 1477.06 309.764 1468.33 Q309.764 1459.58 312.819 1455 Q315.898 1450.39 321.708 1450.39 Z" fill="#000000" fill-rule="nonzero" fill-opacity="1" /><path clip-path="url(#clip430)" d="M784.499 1451.02 L802.855 1451.02 L802.855 1454.96 L788.781 1454.96 L788.781 1463.43 Q789.8 1463.08 790.818 1462.92 Q791.837 1462.73 792.855 1462.73 Q798.642 1462.73 802.022 1465.9 Q805.402 1469.08 805.402 1474.49 Q805.402 1480.07 801.93 1483.17 Q798.457 1486.25 792.138 1486.25 Q789.962 1486.25 787.693 1485.88 Q785.448 1485.51 783.041 1484.77 L783.041 1480.07 Q785.124 1481.2 787.346 1481.76 Q789.568 1482.32 792.045 1482.32 Q796.05 1482.32 798.388 1480.21 Q800.726 1478.1 800.726 1474.49 Q800.726 1470.88 798.388 1468.77 Q796.05 1466.67 792.045 1466.67 Q790.17 1466.67 788.295 1467.08 Q786.443 1467.5 784.499 1468.38 L784.499 1451.02 Z" fill="#000000" fill-rule="nonzero" fill-opacity="1" /><path clip-path="url(#clip430)" d="M824.615 1454.1 Q821.003 1454.1 819.175 1457.66 Q817.369 1461.2 817.369 1468.33 Q817.369 1475.44 819.175 1479.01 Q821.003 1482.55 824.615 1482.55 Q828.249 1482.55 830.054 1479.01 Q831.883 1475.44 831.883 1468.33 Q831.883 1461.2 830.054 1457.66 Q828.249 1454.1 824.615 1454.1 M824.615 1450.39 Q830.425 1450.39 833.48 1455 Q836.559 1459.58 836.559 1468.33 Q836.559 1477.06 833.48 1481.67 Q830.425 1486.25 824.615 1486.25 Q818.804 1486.25 815.726 1481.67 Q812.67 1477.06 812.67 1468.33 Q812.67 1459.58 815.726 1455 Q818.804 1450.39 824.615 1450.39 Z" fill="#000000" fill-rule="nonzero" fill-opacity="1" /><path clip-path="url(#clip430)" d="M1257.5 1481.64 L1265.14 1481.64 L1265.14 1455.28 L1256.83 1456.95 L1256.83 1452.69 L1265.09 1451.02 L1269.77 1451.02 L1269.77 1481.64 L1277.41 1481.64 L1277.41 1485.58 L1257.5 1485.58 L1257.5 1481.64 Z" fill="#000000" fill-rule="nonzero" fill-opacity="1" /><path clip-path="url(#clip430)" d="M1296.85 1454.1 Q1293.24 1454.1 1291.41 1457.66 Q1289.6 1461.2 1289.6 1468.33 Q1289.6 1475.44 1291.41 1479.01 Q1293.24 1482.55 1296.85 1482.55 Q1300.48 1482.55 1302.29 1479.01 Q1304.12 1475.44 1304.12 1468.33 Q1304.12 1461.2 1302.29 1457.66 Q1300.48 1454.1 1296.85 1454.1 M1296.85 1450.39 Q1302.66 1450.39 1305.72 1455 Q1308.79 1459.58 1308.79 1468.33 Q1308.79 1477.06 1305.72 1481.67 Q1302.66 1486.25 1296.85 1486.25 Q1291.04 1486.25 1287.96 1481.67 Q1284.91 1477.06 1284.91 1468.33 Q1284.91 1459.58 1287.96 1455 Q1291.04 1450.39 1296.85 1450.39 Z" fill="#000000" fill-rule="nonzero" fill-opacity="1" /><path clip-path="url(#clip430)" d="M1327.01 1454.1 Q1323.4 1454.1 1321.57 1457.66 Q1319.77 1461.2 1319.77 1468.33 Q1319.77 1475.44 1321.57 1479.01 Q1323.4 1482.55 1327.01 1482.55 Q1330.65 1482.55 1332.45 1479.01 Q1334.28 1475.44 1334.28 1468.33 Q1334.28 1461.2 1332.45 1457.66 Q1330.65 1454.1 1327.01 1454.1 M1327.01 1450.39 Q1332.82 1450.39 1335.88 1455 Q1338.96 1459.58 1338.96 1468.33 Q1338.96 1477.06 1335.88 1481.67 Q1332.82 1486.25 1327.01 1486.25 Q1321.2 1486.25 1318.12 1481.67 Q1315.07 1477.06 1315.07 1468.33 Q1315.07 1459.58 1318.12 1455 Q1321.2 1450.39 1327.01 1450.39 Z" fill="#000000" fill-rule="nonzero" fill-opacity="1" /><path clip-path="url(#clip430)" d="M1745.59 1481.64 L1753.23 1481.64 L1753.23 1455.28 L1744.92 1456.95 L1744.92 1452.69 L1753.18 1451.02 L1757.86 1451.02 L1757.86 1481.64 L1765.5 1481.64 L1765.5 1485.58 L1745.59 1485.58 L1745.59 1481.64 Z" fill="#000000" fill-rule="nonzero" fill-opacity="1" /><path clip-path="url(#clip430)" d="M1774.99 1451.02 L1793.34 1451.02 L1793.34 1454.96 L1779.27 1454.96 L1779.27 1463.43 Q1780.29 1463.08 1781.31 1462.92 Q1782.33 1462.73 1783.34 1462.73 Q1789.13 1462.73 1792.51 1465.9 Q1795.89 1469.08 1795.89 1474.49 Q1795.89 1480.07 1792.42 1483.17 Q1788.95 1486.25 1782.63 1486.25 Q1780.45 1486.25 1778.18 1485.88 Q1775.94 1485.51 1773.53 1484.77 L1773.53 1480.07 Q1775.61 1481.2 1777.84 1481.76 Q1780.06 1482.32 1782.53 1482.32 Q1786.54 1482.32 1788.88 1480.21 Q1791.22 1478.1 1791.22 1474.49 Q1791.22 1470.88 1788.88 1468.77 Q1786.54 1466.67 1782.53 1466.67 Q1780.66 1466.67 1778.78 1467.08 Q1776.93 1467.5 1774.99 1468.38 L1774.99 1451.02 Z" fill="#000000" fill-rule="nonzero" fill-opacity="1" /><path clip-path="url(#clip430)" d="M1815.1 1454.1 Q1811.49 1454.1 1809.66 1457.66 Q1807.86 1461.2 1807.86 1468.33 Q1807.86 1475.44 1809.66 1479.01 Q1811.49 1482.55 1815.1 1482.55 Q1818.74 1482.55 1820.54 1479.01 Q1822.37 1475.44 1822.37 1468.33 Q1822.37 1461.2 1820.54 1457.66 Q1818.74 1454.1 1815.1 1454.1 M1815.1 1450.39 Q1820.91 1450.39 1823.97 1455 Q1827.05 1459.58 1827.05 1468.33 Q1827.05 1477.06 1823.97 1481.67 Q1820.91 1486.25 1815.1 1486.25 Q1809.29 1486.25 1806.21 1481.67 Q1803.16 1477.06 1803.16 1468.33 Q1803.16 1459.58 1806.21 1455 Q1809.29 1450.39 1815.1 1450.39 Z" fill="#000000" fill-rule="nonzero" fill-opacity="1" /><path clip-path="url(#clip430)" d="M2237.77 1481.64 L2254.09 1481.64 L2254.09 1485.58 L2232.14 1485.58 L2232.14 1481.64 Q2234.8 1478.89 2239.39 1474.26 Q2243.99 1469.61 2245.18 1468.27 Q2247.42 1465.74 2248.3 1464.01 Q2249.2 1462.25 2249.2 1460.56 Q2249.2 1457.8 2247.26 1456.07 Q2245.34 1454.33 2242.24 1454.33 Q2240.04 1454.33 2237.58 1455.09 Q2235.15 1455.86 2232.37 1457.41 L2232.37 1452.69 Q2235.2 1451.55 2237.65 1450.97 Q2240.11 1450.39 2242.14 1450.39 Q2247.51 1450.39 2250.71 1453.08 Q2253.9 1455.77 2253.9 1460.26 Q2253.9 1462.39 2253.09 1464.31 Q2252.3 1466.2 2250.2 1468.8 Q2249.62 1469.47 2246.52 1472.69 Q2243.42 1475.88 2237.77 1481.64 Z" fill="#000000" fill-rule="nonzero" fill-opacity="1" /><path clip-path="url(#clip430)" d="M2273.9 1454.1 Q2270.29 1454.1 2268.46 1457.66 Q2266.66 1461.2 2266.66 1468.33 Q2266.66 1475.44 2268.46 1479.01 Q2270.29 1482.55 2273.9 1482.55 Q2277.54 1482.55 2279.34 1479.01 Q2281.17 1475.44 2281.17 1468.33 Q2281.17 1461.2 2279.34 1457.66 Q2277.54 1454.1 2273.9 1454.1 M2273.9 1450.39 Q2279.71 1450.39 2282.77 1455 Q2285.85 1459.58 2285.85 1468.33 Q2285.85 1477.06 2282.77 1481.67 Q2279.71 1486.25 2273.9 1486.25 Q2268.09 1486.25 2265.01 1481.67 Q2261.96 1477.06 2261.96 1468.33 Q2261.96 1459.58 2265.01 1455 Q2268.09 1450.39 2273.9 1450.39 Z" fill="#000000" fill-rule="nonzero" fill-opacity="1" /><path clip-path="url(#clip430)" d="M2304.06 1454.1 Q2300.45 1454.1 2298.62 1457.66 Q2296.82 1461.2 2296.82 1468.33 Q2296.82 1475.44 2298.62 1479.01 Q2300.45 1482.55 2304.06 1482.55 Q2307.7 1482.55 2309.5 1479.01 Q2311.33 1475.44 2311.33 1468.33 Q2311.33 1461.2 2309.5 1457.66 Q2307.7 1454.1 2304.06 1454.1 M2304.06 1450.39 Q2309.87 1450.39 2312.93 1455 Q2316.01 1459.58 2316.01 1468.33 Q2316.01 1477.06 2312.93 1481.67 Q2309.87 1486.25 2304.06 1486.25 Q2298.25 1486.25 2295.17 1481.67 Q2292.12 1477.06 2292.12 1468.33 Q2292.12 1459.58 2295.17 1455 Q2298.25 1450.39 2304.06 1450.39 Z" fill="#000000" fill-rule="nonzero" fill-opacity="1" /><path clip-path="url(#clip430)" d="M1093.29 1520.52 L1123.33 1520.52 L1123.33 1525.93 L1099.72 1525.93 L1099.72 1540 L1122.35 1540 L1122.35 1545.41 L1099.72 1545.41 L1099.72 1562.63 L1123.91 1562.63 L1123.91 1568.04 L1093.29 1568.04 L1093.29 1520.52 Z" fill="#000000" fill-rule="nonzero" fill-opacity="1" /><path clip-path="url(#clip430)" d="M1163.85 1546.53 L1163.85 1568.04 L1158 1568.04 L1158 1546.72 Q1158 1541.66 1156.02 1539.14 Q1154.05 1536.63 1150.1 1536.63 Q1145.36 1536.63 1142.62 1539.65 Q1139.89 1542.68 1139.89 1547.9 L1139.89 1568.04 L1134 1568.04 L1134 1532.4 L1139.89 1532.4 L1139.89 1537.93 Q1141.99 1534.72 1144.82 1533.13 Q1147.68 1531.54 1151.41 1531.54 Q1157.55 1531.54 1160.7 1535.36 Q1163.85 1539.14 1163.85 1546.53 Z" fill="#000000" fill-rule="nonzero" fill-opacity="1" /><path clip-path="url(#clip430)" d="M1206.03 1548.76 L1206.03 1551.62 L1179.1 1551.62 Q1179.48 1557.67 1182.73 1560.85 Q1186 1564 1191.83 1564 Q1195.2 1564 1198.35 1563.17 Q1201.54 1562.35 1204.66 1560.69 L1204.66 1566.23 Q1201.51 1567.57 1198.2 1568.27 Q1194.89 1568.97 1191.48 1568.97 Q1182.95 1568.97 1177.95 1564 Q1172.99 1559.04 1172.99 1550.57 Q1172.99 1541.82 1177.7 1536.69 Q1182.44 1531.54 1190.46 1531.54 Q1197.65 1531.54 1201.82 1536.18 Q1206.03 1540.8 1206.03 1548.76 M1200.17 1547.04 Q1200.1 1542.23 1197.46 1539.37 Q1194.85 1536.5 1190.52 1536.5 Q1185.62 1536.5 1182.66 1539.27 Q1179.73 1542.04 1179.29 1547.07 L1200.17 1547.04 Z" fill="#000000" fill-rule="nonzero" fill-opacity="1" /><path clip-path="url(#clip430)" d="M1236.29 1537.87 Q1235.31 1537.3 1234.13 1537.04 Q1232.98 1536.76 1231.58 1536.76 Q1226.62 1536.76 1223.94 1540 Q1221.3 1543.22 1221.3 1549.27 L1221.3 1568.04 L1215.41 1568.04 L1215.41 1532.4 L1221.3 1532.4 L1221.3 1537.93 Q1223.15 1534.69 1226.11 1533.13 Q1229.07 1531.54 1233.3 1531.54 Q1233.91 1531.54 1234.64 1531.63 Q1235.37 1531.7 1236.26 1531.85 L1236.29 1537.87 Z" fill="#000000" fill-rule="nonzero" fill-opacity="1" /><path clip-path="url(#clip430)" d="M1264.75 1549.81 Q1264.75 1543.44 1262.11 1539.94 Q1259.5 1536.44 1254.75 1536.44 Q1250.04 1536.44 1247.4 1539.94 Q1244.79 1543.44 1244.79 1549.81 Q1244.79 1556.14 1247.4 1559.64 Q1250.04 1563.14 1254.75 1563.14 Q1259.5 1563.14 1262.11 1559.64 Q1264.75 1556.14 1264.75 1549.81 M1270.61 1563.62 Q1270.61 1572.72 1266.56 1577.15 Q1262.52 1581.6 1254.18 1581.6 Q1251.09 1581.6 1248.36 1581.13 Q1245.62 1580.68 1243.04 1579.72 L1243.04 1574.03 Q1245.62 1575.43 1248.13 1576.1 Q1250.65 1576.76 1253.26 1576.76 Q1259.02 1576.76 1261.88 1573.74 Q1264.75 1570.75 1264.75 1564.67 L1264.75 1561.77 Q1262.93 1564.92 1260.1 1566.48 Q1257.27 1568.04 1253.32 1568.04 Q1246.77 1568.04 1242.76 1563.05 Q1238.74 1558.05 1238.74 1549.81 Q1238.74 1541.53 1242.76 1536.53 Q1246.77 1531.54 1253.32 1531.54 Q1257.27 1531.54 1260.1 1533.1 Q1262.93 1534.66 1264.75 1537.81 L1264.75 1532.4 L1270.61 1532.4 L1270.61 1563.62 Z" fill="#000000" fill-rule="nonzero" fill-opacity="1" /><path clip-path="url(#clip430)" d="M1297.5 1571.35 Q1295.02 1577.72 1292.66 1579.66 Q1290.31 1581.6 1286.36 1581.6 L1281.68 1581.6 L1281.68 1576.7 L1285.12 1576.7 Q1287.54 1576.7 1288.87 1575.56 Q1290.21 1574.41 1291.83 1570.14 L1292.89 1567.47 L1278.47 1532.4 L1284.67 1532.4 L1295.81 1560.28 L1306.95 1532.4 L1313.16 1532.4 L1297.5 1571.35 Z" fill="#000000" fill-rule="nonzero" fill-opacity="1" /><path clip-path="url(#clip430)" d="M1356.03 1518.58 Q1351.77 1525.9 1349.7 1533.06 Q1347.63 1540.23 1347.63 1547.58 Q1347.63 1554.93 1349.7 1562.16 Q1351.8 1569.35 1356.03 1576.64 L1350.94 1576.64 Q1346.17 1569.16 1343.78 1561.93 Q1341.42 1554.71 1341.42 1547.58 Q1341.42 1540.48 1343.78 1533.29 Q1346.13 1526.09 1350.94 1518.58 L1356.03 1518.58 Z" fill="#000000" fill-rule="nonzero" fill-opacity="1" /><path clip-path="url(#clip430)" d="M1367.65 1520.52 L1377.23 1520.52 L1389.36 1552.86 L1401.55 1520.52 L1411.13 1520.52 L1411.13 1568.04 L1404.86 1568.04 L1404.86 1526.32 L1392.6 1558.91 L1386.14 1558.91 L1373.89 1526.32 L1373.89 1568.04 L1367.65 1568.04 L1367.65 1520.52 Z" fill="#000000" fill-rule="nonzero" fill-opacity="1" /><path clip-path="url(#clip430)" d="M1454.13 1548.76 L1454.13 1551.62 L1427.2 1551.62 Q1427.58 1557.67 1430.83 1560.85 Q1434.11 1564 1439.93 1564 Q1443.31 1564 1446.46 1563.17 Q1449.64 1562.35 1452.76 1560.69 L1452.76 1566.23 Q1449.61 1567.57 1446.3 1568.27 Q1442.99 1568.97 1439.58 1568.97 Q1431.05 1568.97 1426.06 1564 Q1421.09 1559.04 1421.09 1550.57 Q1421.09 1541.82 1425.8 1536.69 Q1430.54 1531.54 1438.56 1531.54 Q1445.76 1531.54 1449.93 1536.18 Q1454.13 1540.8 1454.13 1548.76 M1448.27 1547.04 Q1448.21 1542.23 1445.57 1539.37 Q1442.96 1536.5 1438.63 1536.5 Q1433.73 1536.5 1430.77 1539.27 Q1427.84 1542.04 1427.39 1547.07 L1448.27 1547.04 Z" fill="#000000" fill-rule="nonzero" fill-opacity="1" /><path clip-path="url(#clip430)" d="M1476.25 1568.04 L1458.11 1520.52 L1464.82 1520.52 L1479.88 1560.53 L1494.96 1520.52 L1501.65 1520.52 L1483.54 1568.04 L1476.25 1568.04 Z" fill="#000000" fill-rule="nonzero" fill-opacity="1" /><path clip-path="url(#clip430)" d="M1507.41 1518.58 L1512.5 1518.58 Q1517.28 1526.09 1519.63 1533.29 Q1522.02 1540.48 1522.02 1547.58 Q1522.02 1554.71 1519.63 1561.93 Q1517.28 1569.16 1512.5 1576.64 L1507.41 1576.64 Q1511.64 1569.35 1513.71 1562.16 Q1515.81 1554.93 1515.81 1547.58 Q1515.81 1540.23 1513.71 1533.06 Q1511.64 1525.9 1507.41 1518.58 Z" fill="#000000" fill-rule="nonzero" fill-opacity="1" /><polyline clip-path="url(#clip430)" style="stroke:#000000; stroke-linecap:round; stroke-linejoin:round; stroke-width:4; stroke-opacity:1; fill:none" points="262.551,1423.18 262.551,123.472 "/>
<polyline clip-path="url(#clip430)" style="stroke:#000000; stroke-linecap:round; stroke-linejoin:round; stroke-width:4; stroke-opacity:1; fill:none" points="262.551,1386.4 281.449,1386.4 "/>
<polyline clip-path="url(#clip430)" style="stroke:#000000; stroke-linecap:round; stroke-linejoin:round; stroke-width:4; stroke-opacity:1; fill:none" points="262.551,990.611 281.449,990.611 "/>
<polyline clip-path="url(#clip430)" style="stroke:#000000; stroke-linecap:round; stroke-linejoin:round; stroke-width:4; stroke-opacity:1; fill:none" points="262.551,594.827 281.449,594.827 "/>
<polyline clip-path="url(#clip430)" style="stroke:#000000; stroke-linecap:round; stroke-linejoin:round; stroke-width:4; stroke-opacity:1; fill:none" points="262.551,199.043 281.449,199.043 "/>
<path clip-path="url(#clip430)" d="M214.607 1372.19 Q210.996 1372.19 209.167 1375.76 Q207.362 1379.3 207.362 1386.43 Q207.362 1393.54 209.167 1397.1 Q210.996 1400.64 214.607 1400.64 Q218.241 1400.64 220.047 1397.1 Q221.875 1393.54 221.875 1386.43 Q221.875 1379.3 220.047 1375.76 Q218.241 1372.19 214.607 1372.19 M214.607 1368.49 Q220.417 1368.49 223.473 1373.1 Q226.551 1377.68 226.551 1386.43 Q226.551 1395.16 223.473 1399.76 Q220.417 1404.35 214.607 1404.35 Q208.797 1404.35 205.718 1399.76 Q202.662 1395.16 202.662 1386.43 Q202.662 1377.68 205.718 1373.1 Q208.797 1368.49 214.607 1368.49 Z" fill="#000000" fill-rule="nonzero" fill-opacity="1" /><path clip-path="url(#clip430)" d="M144.329 973.331 L162.686 973.331 L162.686 977.267 L148.612 977.267 L148.612 985.739 Q149.63 985.392 150.649 985.23 Q151.667 985.044 152.686 985.044 Q158.473 985.044 161.852 988.216 Q165.232 991.387 165.232 996.804 Q165.232 1002.38 161.76 1005.48 Q158.288 1008.56 151.968 1008.56 Q149.792 1008.56 147.524 1008.19 Q145.279 1007.82 142.871 1007.08 L142.871 1002.38 Q144.954 1003.52 147.177 1004.07 Q149.399 1004.63 151.876 1004.63 Q155.88 1004.63 158.218 1002.52 Q160.556 1000.41 160.556 996.804 Q160.556 993.192 158.218 991.086 Q155.88 988.98 151.876 988.98 Q150.001 988.98 148.126 989.396 Q146.274 989.813 144.329 990.693 L144.329 973.331 Z" fill="#000000" fill-rule="nonzero" fill-opacity="1" /><path clip-path="url(#clip430)" d="M184.445 976.41 Q180.834 976.41 179.005 979.975 Q177.2 983.517 177.2 990.646 Q177.2 997.753 179.005 1001.32 Q180.834 1004.86 184.445 1004.86 Q188.079 1004.86 189.885 1001.32 Q191.713 997.753 191.713 990.646 Q191.713 983.517 189.885 979.975 Q188.079 976.41 184.445 976.41 M184.445 972.706 Q190.255 972.706 193.311 977.313 Q196.389 981.896 196.389 990.646 Q196.389 999.373 193.311 1003.98 Q190.255 1008.56 184.445 1008.56 Q178.635 1008.56 175.556 1003.98 Q172.501 999.373 172.501 990.646 Q172.501 981.896 175.556 977.313 Q178.635 972.706 184.445 972.706 Z" fill="#000000" fill-rule="nonzero" fill-opacity="1" /><path clip-path="url(#clip430)" d="M214.607 976.41 Q210.996 976.41 209.167 979.975 Q207.362 983.517 207.362 990.646 Q207.362 997.753 209.167 1001.32 Q210.996 1004.86 214.607 1004.86 Q218.241 1004.86 220.047 1001.32 Q221.875 997.753 221.875 990.646 Q221.875 983.517 220.047 979.975 Q218.241 976.41 214.607 976.41 M214.607 972.706 Q220.417 972.706 223.473 977.313 Q226.551 981.896 226.551 990.646 Q226.551 999.373 223.473 1003.98 Q220.417 1008.56 214.607 1008.56 Q208.797 1008.56 205.718 1003.98 Q202.662 999.373 202.662 990.646 Q202.662 981.896 205.718 977.313 Q208.797 972.706 214.607 972.706 Z" fill="#000000" fill-rule="nonzero" fill-opacity="1" /><path clip-path="url(#clip430)" d="M114.931 608.172 L122.57 608.172 L122.57 581.807 L114.26 583.473 L114.26 579.214 L122.524 577.547 L127.2 577.547 L127.2 608.172 L134.839 608.172 L134.839 612.107 L114.931 612.107 L114.931 608.172 Z" fill="#000000" fill-rule="nonzero" fill-opacity="1" /><path clip-path="url(#clip430)" d="M154.283 580.626 Q150.672 580.626 148.843 584.191 Q147.038 587.732 147.038 594.862 Q147.038 601.968 148.843 605.533 Q150.672 609.075 154.283 609.075 Q157.917 609.075 159.723 605.533 Q161.552 601.968 161.552 594.862 Q161.552 587.732 159.723 584.191 Q157.917 580.626 154.283 580.626 M154.283 576.922 Q160.093 576.922 163.149 581.529 Q166.227 586.112 166.227 594.862 Q166.227 603.589 163.149 608.195 Q160.093 612.779 154.283 612.779 Q148.473 612.779 145.394 608.195 Q142.339 603.589 142.339 594.862 Q142.339 586.112 145.394 581.529 Q148.473 576.922 154.283 576.922 Z" fill="#000000" fill-rule="nonzero" fill-opacity="1" /><path clip-path="url(#clip430)" d="M184.445 580.626 Q180.834 580.626 179.005 584.191 Q177.2 587.732 177.2 594.862 Q177.2 601.968 179.005 605.533 Q180.834 609.075 184.445 609.075 Q188.079 609.075 189.885 605.533 Q191.713 601.968 191.713 594.862 Q191.713 587.732 189.885 584.191 Q188.079 580.626 184.445 580.626 M184.445 576.922 Q190.255 576.922 193.311 581.529 Q196.389 586.112 196.389 594.862 Q196.389 603.589 193.311 608.195 Q190.255 612.779 184.445 612.779 Q178.635 612.779 175.556 608.195 Q172.501 603.589 172.501 594.862 Q172.501 586.112 175.556 581.529 Q178.635 576.922 184.445 576.922 Z" fill="#000000" fill-rule="nonzero" fill-opacity="1" /><path clip-path="url(#clip430)" d="M214.607 580.626 Q210.996 580.626 209.167 584.191 Q207.362 587.732 207.362 594.862 Q207.362 601.968 209.167 605.533 Q210.996 609.075 214.607 609.075 Q218.241 609.075 220.047 605.533 Q221.875 601.968 221.875 594.862 Q221.875 587.732 220.047 584.191 Q218.241 580.626 214.607 580.626 M214.607 576.922 Q220.417 576.922 223.473 581.529 Q226.551 586.112 226.551 594.862 Q226.551 603.589 223.473 608.195 Q220.417 612.779 214.607 612.779 Q208.797 612.779 205.718 608.195 Q202.662 603.589 202.662 594.862 Q202.662 586.112 205.718 581.529 Q208.797 576.922 214.607 576.922 Z" fill="#000000" fill-rule="nonzero" fill-opacity="1" /><path clip-path="url(#clip430)" d="M114.931 212.388 L122.57 212.388 L122.57 186.022 L114.26 187.689 L114.26 183.43 L122.524 181.763 L127.2 181.763 L127.2 212.388 L134.839 212.388 L134.839 216.323 L114.931 216.323 L114.931 212.388 Z" fill="#000000" fill-rule="nonzero" fill-opacity="1" /><path clip-path="url(#clip430)" d="M144.329 181.763 L162.686 181.763 L162.686 185.698 L148.612 185.698 L148.612 194.17 Q149.63 193.823 150.649 193.661 Q151.667 193.476 152.686 193.476 Q158.473 193.476 161.852 196.647 Q165.232 199.819 165.232 205.235 Q165.232 210.814 161.76 213.916 Q158.288 216.994 151.968 216.994 Q149.792 216.994 147.524 216.624 Q145.279 216.254 142.871 215.513 L142.871 210.814 Q144.954 211.948 147.177 212.504 Q149.399 213.059 151.876 213.059 Q155.88 213.059 158.218 210.953 Q160.556 208.846 160.556 205.235 Q160.556 201.624 158.218 199.518 Q155.88 197.411 151.876 197.411 Q150.001 197.411 148.126 197.828 Q146.274 198.245 144.329 199.124 L144.329 181.763 Z" fill="#000000" fill-rule="nonzero" fill-opacity="1" /><path clip-path="url(#clip430)" d="M184.445 184.842 Q180.834 184.842 179.005 188.407 Q177.2 191.948 177.2 199.078 Q177.2 206.184 179.005 209.749 Q180.834 213.291 184.445 213.291 Q188.079 213.291 189.885 209.749 Q191.713 206.184 191.713 199.078 Q191.713 191.948 189.885 188.407 Q188.079 184.842 184.445 184.842 M184.445 181.138 Q190.255 181.138 193.311 185.745 Q196.389 190.328 196.389 199.078 Q196.389 207.805 193.311 212.411 Q190.255 216.994 184.445 216.994 Q178.635 216.994 175.556 212.411 Q172.501 207.805 172.501 199.078 Q172.501 190.328 175.556 185.745 Q178.635 181.138 184.445 181.138 Z" fill="#000000" fill-rule="nonzero" fill-opacity="1" /><path clip-path="url(#clip430)" d="M214.607 184.842 Q210.996 184.842 209.167 188.407 Q207.362 191.948 207.362 199.078 Q207.362 206.184 209.167 209.749 Q210.996 213.291 214.607 213.291 Q218.241 213.291 220.047 209.749 Q221.875 206.184 221.875 199.078 Q221.875 191.948 220.047 188.407 Q218.241 184.842 214.607 184.842 M214.607 181.138 Q220.417 181.138 223.473 185.745 Q226.551 190.328 226.551 199.078 Q226.551 207.805 223.473 212.411 Q220.417 216.994 214.607 216.994 Q208.797 216.994 205.718 212.411 Q202.662 207.805 202.662 199.078 Q202.662 190.328 205.718 185.745 Q208.797 181.138 214.607 181.138 Z" fill="#000000" fill-rule="nonzero" fill-opacity="1" /><path clip-path="url(#clip430)" d="M20.1444 845.354 L26.9239 845.354 Q23.9002 848.6 22.4043 852.293 Q20.9083 855.953 20.9083 860.091 Q20.9083 868.239 25.9054 872.567 Q30.8707 876.896 40.2919 876.896 Q49.6813 876.896 54.6784 872.567 Q59.6436 868.239 59.6436 860.091 Q59.6436 855.953 58.1477 852.293 Q56.6518 848.6 53.6281 845.354 L60.3439 845.354 Q62.6355 848.728 63.7814 852.515 Q64.9272 856.271 64.9272 860.473 Q64.9272 871.262 58.3387 877.469 Q51.7183 883.676 40.2919 883.676 Q28.8336 883.676 22.2451 877.469 Q15.6248 871.262 15.6248 860.473 Q15.6248 856.207 16.7706 852.452 Q17.8846 848.664 20.1444 845.354 Z" fill="#000000" fill-rule="nonzero" fill-opacity="1" /><path clip-path="url(#clip430)" d="M32.4621 821.864 Q32.4621 826.575 36.1542 829.312 Q39.8145 832.05 46.212 832.05 Q52.6095 832.05 56.3017 829.344 Q59.9619 826.607 59.9619 821.864 Q59.9619 817.186 56.2698 814.448 Q52.5777 811.711 46.212 811.711 Q39.8781 811.711 36.186 814.448 Q32.4621 817.186 32.4621 821.864 M27.4968 821.864 Q27.4968 814.226 32.4621 809.865 Q37.4273 805.505 46.212 805.505 Q54.9649 805.505 59.9619 809.865 Q64.9272 814.226 64.9272 821.864 Q64.9272 829.535 59.9619 833.896 Q54.9649 838.224 46.212 838.224 Q37.4273 838.224 32.4621 833.896 Q27.4968 829.535 27.4968 821.864 Z" fill="#000000" fill-rule="nonzero" fill-opacity="1" /><path clip-path="url(#clip430)" d="M49.9359 796.402 L28.3562 796.402 L28.3562 790.545 L49.7131 790.545 Q54.7739 790.545 57.3202 788.572 Q59.8346 786.598 59.8346 782.652 Q59.8346 777.909 56.8109 775.172 Q53.7872 772.403 48.5673 772.403 L28.3562 772.403 L28.3562 766.547 L64.0042 766.547 L64.0042 772.403 L58.5296 772.403 Q61.7762 774.535 63.3676 777.368 Q64.9272 780.169 64.9272 783.893 Q64.9272 790.036 61.1078 793.219 Q57.2883 796.402 49.9359 796.402 M27.4968 781.665 L27.4968 781.665 Z" fill="#000000" fill-rule="nonzero" fill-opacity="1" /><path clip-path="url(#clip430)" d="M42.4881 724.851 L64.0042 724.851 L64.0042 730.708 L42.679 730.708 Q37.6183 730.708 35.1038 732.681 Q32.5894 734.654 32.5894 738.601 Q32.5894 743.344 35.6131 746.081 Q38.6368 748.818 43.8567 748.818 L64.0042 748.818 L64.0042 754.706 L28.3562 754.706 L28.3562 748.818 L33.8944 748.818 Q30.6797 746.717 29.0883 743.885 Q27.4968 741.02 27.4968 737.296 Q27.4968 731.153 31.3163 728.002 Q35.1038 724.851 42.4881 724.851 Z" fill="#000000" fill-rule="nonzero" fill-opacity="1" /><path clip-path="url(#clip430)" d="M18.2347 707.377 L28.3562 707.377 L28.3562 695.314 L32.9077 695.314 L32.9077 707.377 L52.2594 707.377 Q56.6199 707.377 57.8613 706.2 Q59.1026 704.99 59.1026 701.33 L59.1026 695.314 L64.0042 695.314 L64.0042 701.33 Q64.0042 708.109 61.4897 710.687 Q58.9434 713.266 52.2594 713.266 L32.9077 713.266 L32.9077 717.562 L28.3562 717.562 L28.3562 713.266 L18.2347 713.266 L18.2347 707.377 Z" fill="#000000" fill-rule="nonzero" fill-opacity="1" /><path clip-path="url(#clip430)" d="M29.4065 664.886 L34.9447 664.886 Q33.6716 667.369 33.035 670.042 Q32.3984 672.716 32.3984 675.581 Q32.3984 679.941 33.7352 682.137 Q35.072 684.302 37.7456 684.302 Q39.7826 684.302 40.9603 682.742 Q42.1061 681.182 43.1565 676.472 L43.6021 674.467 Q44.9389 668.228 47.3897 665.618 Q49.8086 662.976 54.1691 662.976 Q59.1344 662.976 62.0308 666.923 Q64.9272 670.838 64.9272 677.713 Q64.9272 680.578 64.3543 683.697 Q63.8132 686.784 62.6992 690.222 L56.6518 690.222 Q58.3387 686.975 59.198 683.824 Q60.0256 680.673 60.0256 677.586 Q60.0256 673.448 58.6251 671.22 Q57.1929 668.992 54.6147 668.992 Q52.2276 668.992 50.9545 670.615 Q49.6813 672.207 48.5037 677.649 L48.0262 679.686 Q46.8804 685.129 44.5251 687.548 Q42.138 689.967 38.0002 689.967 Q32.9713 689.967 30.2341 686.402 Q27.4968 682.837 27.4968 676.281 Q27.4968 673.034 27.9743 670.17 Q28.4517 667.305 29.4065 664.886 Z" fill="#000000" fill-rule="nonzero" fill-opacity="1" /><path clip-path="url(#clip430)" d="M896.244 12.096 L934.484 12.096 L934.484 18.9825 L904.427 18.9825 L904.427 36.8875 L933.228 36.8875 L933.228 43.7741 L904.427 43.7741 L904.427 65.6895 L935.213 65.6895 L935.213 72.576 L896.244 72.576 L896.244 12.096 Z" fill="#000000" fill-rule="nonzero" fill-opacity="1" /><path clip-path="url(#clip430)" d="M948.338 9.54393 L955.792 9.54393 L955.792 72.576 L948.338 72.576 L948.338 9.54393 Z" fill="#000000" fill-rule="nonzero" fill-opacity="1" /><path clip-path="url(#clip430)" d="M992.007 49.7694 Q982.974 49.7694 979.49 51.8354 Q976.006 53.9013 976.006 58.8839 Q976.006 62.8538 978.599 65.2034 Q981.232 67.5124 985.728 67.5124 Q991.926 67.5124 995.653 63.1374 Q999.42 58.7219 999.42 51.4303 L999.42 49.7694 L992.007 49.7694 M1006.87 46.6907 L1006.87 72.576 L999.42 72.576 L999.42 65.6895 Q996.868 69.8214 993.06 71.8063 Q989.252 73.7508 983.743 73.7508 Q976.776 73.7508 972.644 69.8619 Q968.552 65.9325 968.552 59.3701 Q968.552 51.7138 973.657 47.825 Q978.801 43.9361 988.969 43.9361 L999.42 43.9361 L999.42 43.2069 Q999.42 38.0623 996.018 35.2672 Q992.655 32.4315 986.538 32.4315 Q982.65 32.4315 978.963 33.3632 Q975.277 34.295 971.874 36.1584 L971.874 29.2718 Q975.966 27.692 979.814 26.9223 Q983.662 26.1121 987.308 26.1121 Q997.152 26.1121 1002.01 31.2163 Q1006.87 36.3204 1006.87 46.6907 Z" fill="#000000" fill-rule="nonzero" fill-opacity="1" /><path clip-path="url(#clip430)" d="M1051.15 28.5427 L1051.15 35.5912 Q1047.99 33.9709 1044.59 33.1607 Q1041.19 32.3505 1037.54 32.3505 Q1031.99 32.3505 1029.19 34.0519 Q1026.44 35.7533 1026.44 39.156 Q1026.44 41.7486 1028.42 43.2475 Q1030.41 44.7058 1036.41 46.0426 L1038.96 46.6097 Q1046.9 48.3111 1050.22 51.4303 Q1053.58 54.509 1053.58 60.0587 Q1053.58 66.3781 1048.56 70.0644 Q1043.58 73.7508 1034.83 73.7508 Q1031.18 73.7508 1027.21 73.0216 Q1023.28 72.3329 1018.91 70.9151 L1018.91 63.2184 Q1023.04 65.3654 1027.05 66.4591 Q1031.06 67.5124 1034.99 67.5124 Q1040.25 67.5124 1043.09 65.73 Q1045.92 63.9071 1045.92 60.6258 Q1045.92 57.5877 1043.86 55.9673 Q1041.83 54.3469 1034.91 52.8481 L1032.31 52.2405 Q1025.39 50.7821 1022.31 47.7845 Q1019.23 44.7463 1019.23 39.4801 Q1019.23 33.0797 1023.77 29.5959 Q1028.3 26.1121 1036.65 26.1121 Q1040.78 26.1121 1044.43 26.7198 Q1048.07 27.3274 1051.15 28.5427 Z" fill="#000000" fill-rule="nonzero" fill-opacity="1" /><path clip-path="url(#clip430)" d="M1072.82 14.324 L1072.82 27.2059 L1088.18 27.2059 L1088.18 32.9987 L1072.82 32.9987 L1072.82 57.6282 Q1072.82 63.1779 1074.32 64.7578 Q1075.86 66.3376 1080.52 66.3376 L1088.18 66.3376 L1088.18 72.576 L1080.52 72.576 Q1071.89 72.576 1068.61 69.3758 Q1065.33 66.1351 1065.33 57.6282 L1065.33 32.9987 L1059.86 32.9987 L1059.86 27.2059 L1065.33 27.2059 L1065.33 14.324 L1072.82 14.324 Z" fill="#000000" fill-rule="nonzero" fill-opacity="1" /><path clip-path="url(#clip430)" d="M1097.98 27.2059 L1105.43 27.2059 L1105.43 72.576 L1097.98 72.576 L1097.98 27.2059 M1097.98 9.54393 L1105.43 9.54393 L1105.43 18.9825 L1097.98 18.9825 L1097.98 9.54393 Z" fill="#000000" fill-rule="nonzero" fill-opacity="1" /><path clip-path="url(#clip430)" d="M1153.68 28.9478 L1153.68 35.9153 Q1150.52 34.1734 1147.32 33.3227 Q1144.16 32.4315 1140.92 32.4315 Q1133.67 32.4315 1129.66 37.0496 Q1125.65 41.6271 1125.65 49.9314 Q1125.65 58.2358 1129.66 62.8538 Q1133.67 67.4314 1140.92 67.4314 Q1144.16 67.4314 1147.32 66.5807 Q1150.52 65.6895 1153.68 63.9476 L1153.68 70.8341 Q1150.56 72.2924 1147.2 73.0216 Q1143.88 73.7508 1140.11 73.7508 Q1129.86 73.7508 1123.82 67.3098 Q1117.79 60.8689 1117.79 49.9314 Q1117.79 38.832 1123.86 32.472 Q1129.98 26.1121 1140.59 26.1121 Q1144.04 26.1121 1147.32 26.8413 Q1150.6 27.5299 1153.68 28.9478 Z" fill="#000000" fill-rule="nonzero" fill-opacity="1" /><path clip-path="url(#clip430)" d="M1231.82 48.0275 L1231.82 51.6733 L1197.55 51.6733 Q1198.04 59.3701 1202.17 63.421 Q1206.34 67.4314 1213.75 67.4314 Q1218.05 67.4314 1222.06 66.3781 Q1226.11 65.3249 1230.08 63.2184 L1230.08 70.267 Q1226.07 71.9684 1221.86 72.8596 Q1217.64 73.7508 1213.31 73.7508 Q1202.45 73.7508 1196.09 67.4314 Q1189.77 61.1119 1189.77 50.3365 Q1189.77 39.1965 1195.77 32.6746 Q1201.8 26.1121 1212.01 26.1121 Q1221.17 26.1121 1226.47 32.0264 Q1231.82 37.9003 1231.82 48.0275 M1224.37 45.84 Q1224.29 39.7232 1220.92 36.0774 Q1217.6 32.4315 1212.09 32.4315 Q1205.85 32.4315 1202.09 35.9558 Q1198.36 39.4801 1197.79 45.8805 L1224.37 45.84 Z" fill="#000000" fill-rule="nonzero" fill-opacity="1" /><path clip-path="url(#clip430)" d="M1280.31 27.2059 L1263.9 49.2833 L1281.16 72.576 L1272.37 72.576 L1259.16 54.752 L1245.96 72.576 L1237.17 72.576 L1254.79 48.8377 L1238.67 27.2059 L1247.46 27.2059 L1259.49 43.369 L1271.52 27.2059 L1280.31 27.2059 Z" fill="#000000" fill-rule="nonzero" fill-opacity="1" /><path clip-path="url(#clip430)" d="M1291.69 27.2059 L1299.15 27.2059 L1299.15 72.576 L1291.69 72.576 L1291.69 27.2059 M1291.69 9.54393 L1299.15 9.54393 L1299.15 18.9825 L1291.69 18.9825 L1291.69 9.54393 Z" fill="#000000" fill-rule="nonzero" fill-opacity="1" /><path clip-path="url(#clip430)" d="M1322.12 14.324 L1322.12 27.2059 L1337.47 27.2059 L1337.47 32.9987 L1322.12 32.9987 L1322.12 57.6282 Q1322.12 63.1779 1323.61 64.7578 Q1325.15 66.3376 1329.81 66.3376 L1337.47 66.3376 L1337.47 72.576 L1329.81 72.576 Q1321.18 72.576 1317.9 69.3758 Q1314.62 66.1351 1314.62 57.6282 L1314.62 32.9987 L1309.15 32.9987 L1309.15 27.2059 L1314.62 27.2059 L1314.62 14.324 L1322.12 14.324 Z" fill="#000000" fill-rule="nonzero" fill-opacity="1" /><path clip-path="url(#clip430)" d="M1412.45 48.0275 L1412.45 51.6733 L1378.18 51.6733 Q1378.67 59.3701 1382.8 63.421 Q1386.97 67.4314 1394.38 67.4314 Q1398.68 67.4314 1402.69 66.3781 Q1406.74 65.3249 1410.71 63.2184 L1410.71 70.267 Q1406.7 71.9684 1402.49 72.8596 Q1398.27 73.7508 1393.94 73.7508 Q1383.08 73.7508 1376.72 67.4314 Q1370.4 61.1119 1370.4 50.3365 Q1370.4 39.1965 1376.4 32.6746 Q1382.43 26.1121 1392.64 26.1121 Q1401.8 26.1121 1407.1 32.0264 Q1412.45 37.9003 1412.45 48.0275 M1405 45.84 Q1404.92 39.7232 1401.55 36.0774 Q1398.23 32.4315 1392.72 32.4315 Q1386.48 32.4315 1382.72 35.9558 Q1378.99 39.4801 1378.42 45.8805 L1405 45.84 Z" fill="#000000" fill-rule="nonzero" fill-opacity="1" /><path clip-path="url(#clip430)" d="M1462.4 45.1919 L1462.4 72.576 L1454.94 72.576 L1454.94 45.4349 Q1454.94 38.994 1452.43 35.7938 Q1449.92 32.5936 1444.9 32.5936 Q1438.86 32.5936 1435.38 36.4419 Q1431.89 40.2903 1431.89 46.9338 L1431.89 72.576 L1424.4 72.576 L1424.4 27.2059 L1431.89 27.2059 L1431.89 34.2544 Q1434.57 30.163 1438.17 28.1376 Q1441.82 26.1121 1446.56 26.1121 Q1454.38 26.1121 1458.39 30.9732 Q1462.4 35.7938 1462.4 45.1919 Z" fill="#000000" fill-rule="nonzero" fill-opacity="1" /><path clip-path="url(#clip430)" d="M1516.07 48.0275 L1516.07 51.6733 L1481.8 51.6733 Q1482.29 59.3701 1486.42 63.421 Q1490.59 67.4314 1498.01 67.4314 Q1502.3 67.4314 1506.31 66.3781 Q1510.36 65.3249 1514.33 63.2184 L1514.33 70.267 Q1510.32 71.9684 1506.11 72.8596 Q1501.89 73.7508 1497.56 73.7508 Q1486.7 73.7508 1480.34 67.4314 Q1474.02 61.1119 1474.02 50.3365 Q1474.02 39.1965 1480.02 32.6746 Q1486.06 26.1121 1496.26 26.1121 Q1505.42 26.1121 1510.73 32.0264 Q1516.07 37.9003 1516.07 48.0275 M1508.62 45.84 Q1508.54 39.7232 1505.18 36.0774 Q1501.85 32.4315 1496.34 32.4315 Q1490.11 32.4315 1486.34 35.9558 Q1482.61 39.4801 1482.04 45.8805 L1508.62 45.84 Z" fill="#000000" fill-rule="nonzero" fill-opacity="1" /><path clip-path="url(#clip430)" d="M1554.6 34.1734 Q1553.34 33.4443 1551.84 33.1202 Q1550.38 32.7556 1548.6 32.7556 Q1542.28 32.7556 1538.88 36.8875 Q1535.52 40.9789 1535.52 48.6757 L1535.52 72.576 L1528.02 72.576 L1528.02 27.2059 L1535.52 27.2059 L1535.52 34.2544 Q1537.87 30.1225 1541.63 28.1376 Q1545.4 26.1121 1550.79 26.1121 Q1551.56 26.1121 1552.49 26.2337 Q1553.42 26.3147 1554.56 26.5172 L1554.6 34.1734 Z" fill="#000000" fill-rule="nonzero" fill-opacity="1" /><path clip-path="url(#clip430)" d="M1590.81 49.3643 Q1590.81 41.2625 1587.45 36.8065 Q1584.13 32.3505 1578.09 32.3505 Q1572.1 32.3505 1568.73 36.8065 Q1565.41 41.2625 1565.41 49.3643 Q1565.41 57.4256 1568.73 61.8816 Q1572.1 66.3376 1578.09 66.3376 Q1584.13 66.3376 1587.45 61.8816 Q1590.81 57.4256 1590.81 49.3643 M1598.27 66.9452 Q1598.27 78.5308 1593.12 84.1616 Q1587.98 89.8329 1577.36 89.8329 Q1573.43 89.8329 1569.95 89.2252 Q1566.47 88.6581 1563.18 87.4428 L1563.18 80.1917 Q1566.47 81.9741 1569.67 82.8248 Q1572.87 83.6755 1576.19 83.6755 Q1583.52 83.6755 1587.17 79.8271 Q1590.81 76.0193 1590.81 68.282 L1590.81 64.5957 Q1588.5 68.6061 1584.9 70.5911 Q1581.29 72.576 1576.27 72.576 Q1567.92 72.576 1562.82 66.2161 Q1557.72 59.8562 1557.72 49.3643 Q1557.72 38.832 1562.82 32.472 Q1567.92 26.1121 1576.27 26.1121 Q1581.29 26.1121 1584.9 28.0971 Q1588.5 30.082 1590.81 34.0924 L1590.81 27.2059 L1598.27 27.2059 L1598.27 66.9452 Z" fill="#000000" fill-rule="nonzero" fill-opacity="1" /><path clip-path="url(#clip430)" d="M1613.62 27.2059 L1621.07 27.2059 L1621.07 72.576 L1613.62 72.576 L1613.62 27.2059 M1613.62 9.54393 L1621.07 9.54393 L1621.07 18.9825 L1613.62 18.9825 L1613.62 9.54393 Z" fill="#000000" fill-rule="nonzero" fill-opacity="1" /><path clip-path="url(#clip430)" d="M1675.48 48.0275 L1675.48 51.6733 L1641.21 51.6733 Q1641.69 59.3701 1645.82 63.421 Q1650 67.4314 1657.41 67.4314 Q1661.7 67.4314 1665.71 66.3781 Q1669.76 65.3249 1673.73 63.2184 L1673.73 70.267 Q1669.72 71.9684 1665.51 72.8596 Q1661.3 73.7508 1656.96 73.7508 Q1646.11 73.7508 1639.75 67.4314 Q1633.43 61.1119 1633.43 50.3365 Q1633.43 39.1965 1639.42 32.6746 Q1645.46 26.1121 1655.67 26.1121 Q1664.82 26.1121 1670.13 32.0264 Q1675.48 37.9003 1675.48 48.0275 M1668.02 45.84 Q1667.94 39.7232 1664.58 36.0774 Q1661.26 32.4315 1655.75 32.4315 Q1649.51 32.4315 1645.74 35.9558 Q1642.02 39.4801 1641.45 45.8805 L1668.02 45.84 Z" fill="#000000" fill-rule="nonzero" fill-opacity="1" /><path clip-path="url(#clip430)" d="M1716.63 28.5427 L1716.63 35.5912 Q1713.47 33.9709 1710.07 33.1607 Q1706.67 32.3505 1703.02 32.3505 Q1697.47 32.3505 1694.68 34.0519 Q1691.92 35.7533 1691.92 39.156 Q1691.92 41.7486 1693.91 43.2475 Q1695.89 44.7058 1701.89 46.0426 L1704.44 46.6097 Q1712.38 48.3111 1715.7 51.4303 Q1719.06 54.509 1719.06 60.0587 Q1719.06 66.3781 1714.04 70.0644 Q1709.06 73.7508 1700.31 73.7508 Q1696.66 73.7508 1692.69 73.0216 Q1688.76 72.3329 1684.39 70.9151 L1684.39 63.2184 Q1688.52 65.3654 1692.53 66.4591 Q1696.54 67.5124 1700.47 67.5124 Q1705.74 67.5124 1708.57 65.73 Q1711.41 63.9071 1711.41 60.6258 Q1711.41 57.5877 1709.34 55.9673 Q1707.32 54.3469 1700.39 52.8481 L1697.8 52.2405 Q1690.87 50.7821 1687.79 47.7845 Q1684.71 44.7463 1684.71 39.4801 Q1684.71 33.0797 1689.25 29.5959 Q1693.79 26.1121 1702.13 26.1121 Q1706.26 26.1121 1709.91 26.7198 Q1713.55 27.3274 1716.63 28.5427 Z" fill="#000000" fill-rule="nonzero" fill-opacity="1" /><polyline clip-path="url(#clip432)" style="stroke:#000000; stroke-linecap:round; stroke-linejoin:round; stroke-width:8; stroke-opacity:0.75; fill:none" points="321.708,1386.4 321.708,1193.25 341.232,1193.25 341.232,1079.27 360.755,1079.27 360.755,1009.61 380.279,1009.61 380.279,949.45 399.803,949.45 399.803,924.12 419.326,924.12 419.326,916.204 438.85,916.204 438.85,905.914 458.374,905.914 458.374,896.415 477.897,896.415 477.897,881.375 497.421,881.375 497.421,900.373 516.945,900.373 516.945,918.579 536.468,918.579 536.468,926.494 555.992,926.494 555.992,932.035 575.516,932.035 575.516,942.326 595.039,942.326 595.039,924.12 614.563,924.12 614.563,923.328 634.087,923.328 634.087,924.12 653.61,924.12 653.61,949.45 673.134,949.45 673.134,959.74 692.658,959.74 692.658,982.696 712.181,982.696 712.181,966.864 731.705,966.864 731.705,981.904 751.229,981.904 751.229,999.319 770.752,999.319 770.752,1036.52 790.276,1036.52 790.276,998.527 809.8,998.527 809.8,1020.69 829.324,1020.69 829.324,1048.4 848.847,1048.4 848.847,1056.31 868.371,1056.31 868.371,1061.85 887.895,1061.85 887.895,1056.31 907.418,1056.31 907.418,1072.93 926.942,1072.93 926.942,1061.85 946.466,1061.85 946.466,1082.43 965.989,1082.43 965.989,1070.56 985.513,1070.56 985.513,1094.31 1005.04,1094.31 1005.04,1090.35 1024.56,1090.35 1024.56,1116.47 1044.08,1116.47 1044.08,1126.76 1063.61,1126.76 1063.61,1116.47 1083.13,1116.47 1083.13,1102.22 1102.65,1102.22 1102.65,1118.05 1122.18,1118.05 1122.18,1119.64 1141.7,1119.64 1141.7,1115.68 1161.23,1115.68 1161.23,1133.89 1180.75,1133.89 1180.75,1137.84 1200.27,1137.84 1200.27,1119.64 1219.8,1119.64 1219.8,1120.43 1239.32,1120.43 1239.32,1125.97 1258.84,1125.97 1258.84,1122.8 1278.37,1122.8 1278.37,1107.76 1297.89,1107.76 1297.89,1145.76 1317.42,1145.76 1317.42,1134.68 1336.94,1134.68 1336.94,1140.22 1356.46,1140.22 1356.46,1155.26 1375.99,1155.26 1375.99,1146.55 1395.51,1146.55 1395.51,1138.63 1415.03,1138.63 1415.03,1120.43 1434.56,1120.43 1434.56,1133.09 1454.08,1133.09 1454.08,1147.34 1473.6,1147.34 1473.6,1106.18 1493.13,1106.18 1493.13,1119.64 1512.65,1119.64 1512.65,1095.1 1532.18,1095.1 1532.18,1090.35 1551.7,1090.35 1551.7,1087.18 1571.22,1087.18 1571.22,1076.1 1590.75,1076.1 1590.75,1053.94 1610.27,1053.94 1610.27,1072.14 1629.79,1072.14 1629.79,1067.39 1649.32,1067.39 1649.32,1042.86 1668.84,1042.86 1668.84,1028.61 1688.37,1028.61 1688.37,1007.23 1707.89,1007.23 1707.89,1023.07 1727.41,1023.07 1727.41,1002.49 1746.94,1002.49 1746.94,985.862 1766.46,985.862 1766.46,963.698 1785.98,963.698 1785.98,953.408 1805.51,953.408 1805.51,958.157 1825.03,958.157 1825.03,941.534 1844.55,941.534 1844.55,917.787 1864.08,917.787 1864.08,870.293 1883.6,870.293 1883.6,842.588 1903.13,842.588 1903.13,760.265 1922.65,760.265 1922.65,822.007 1942.17,822.007 1942.17,776.888 1961.7,776.888 1961.7,746.808 1981.22,746.808 1981.22,652.612 2000.74,652.612 2000.74,692.982 2020.27,692.982 2020.27,658.153 2039.79,658.153 2039.79,637.572 2059.32,637.572 2059.32,567.914 2078.84,567.914 2078.84,532.293 2098.36,532.293 2098.36,506.963 2117.89,506.963 2117.89,496.673 2137.41,496.673 2137.41,351.024 2156.93,351.024 2156.93,358.148 2176.46,358.148 2176.46,290.865 2195.98,290.865 2195.98,211.708 2215.5,211.708 2215.5,184.795 2235.03,184.795 2235.03,160.256 2254.55,160.256 2254.55,882.167 2274.08,882.167 2274.08,1386.4 "/>
<polyline clip-path="url(#clip432)" style="stroke:#0000ff; stroke-linecap:round; stroke-linejoin:round; stroke-width:8; stroke-opacity:0.75; fill:none" points="321.708,1386.4 321.708,1382.44 341.232,1382.44 341.232,1386.4 360.755,1386.4 360.755,1385.6 380.279,1385.6 380.279,1386.4 399.803,1386.4 419.326,1386.4 438.85,1386.4 458.374,1386.4 477.897,1386.4 497.421,1386.4 516.945,1386.4 536.468,1386.4 555.992,1386.4 575.516,1386.4 595.039,1386.4 614.563,1386.4 634.087,1386.4 653.61,1386.4 673.134,1386.4 692.658,1386.4 712.181,1386.4 731.705,1386.4 751.229,1386.4 770.752,1386.4 790.276,1386.4 809.8,1386.4 809.8,1385.6 829.324,1385.6 829.324,1386.4 848.847,1386.4 868.371,1386.4 887.895,1386.4 907.418,1386.4 926.942,1386.4 946.466,1386.4 965.989,1386.4 985.513,1386.4 1005.04,1386.4 1024.56,1386.4 1044.08,1386.4 1063.61,1386.4 1083.13,1386.4 1102.65,1386.4 1122.18,1386.4 1141.7,1386.4 1161.23,1386.4 1180.75,1386.4 1200.27,1386.4 1219.8,1386.4 1239.32,1386.4 1258.84,1386.4 1278.37,1386.4 1297.89,1386.4 1317.42,1386.4 1336.94,1386.4 1356.46,1386.4 1375.99,1386.4 1395.51,1386.4 1415.03,1386.4 1434.56,1386.4 1454.08,1386.4 1473.6,1386.4 1493.13,1386.4 1512.65,1386.4 1532.18,1386.4 1551.7,1386.4 1571.22,1386.4 1590.75,1386.4 1610.27,1386.4 1629.79,1386.4 1649.32,1386.4 1668.84,1386.4 1688.37,1386.4 1707.89,1386.4 1727.41,1386.4 1746.94,1386.4 1766.46,1386.4 1785.98,1386.4 1805.51,1386.4 1825.03,1386.4 1844.55,1386.4 1864.08,1386.4 1883.6,1386.4 1903.13,1386.4 1922.65,1386.4 1942.17,1386.4 1961.7,1386.4 1981.22,1386.4 2000.74,1386.4 2020.27,1386.4 2039.79,1386.4 2059.32,1386.4 2078.84,1386.4 2098.36,1386.4 2117.89,1386.4 2137.41,1386.4 2156.93,1386.4 2176.46,1386.4 2195.98,1386.4 2215.5,1386.4 2235.03,1386.4 2254.55,1386.4 2254.55,1110.93 2274.08,1110.93 2274.08,1362.65 2293.6,1362.65 2293.6,1386.4 "/>
<path clip-path="url(#clip430)" d="M332.225 322.316 L984.113 322.316 L984.113 166.796 L332.225 166.796  Z" fill="#ffffff" fill-rule="evenodd" fill-opacity="1"/>
<polyline clip-path="url(#clip430)" style="stroke:#000000; stroke-linecap:round; stroke-linejoin:round; stroke-width:4; stroke-opacity:1; fill:none" points="332.225,322.316 984.113,322.316 984.113,166.796 332.225,166.796 332.225,322.316 "/>
<polyline clip-path="url(#clip430)" style="stroke:#000000; stroke-linecap:round; stroke-linejoin:round; stroke-width:8; stroke-opacity:0.75; fill:none" points="355.449,218.636 494.796,218.636 "/>
<path clip-path="url(#clip430)" d="M518.021 201.356 L539.872 201.356 L539.872 205.291 L522.697 205.291 L522.697 215.522 L539.155 215.522 L539.155 219.457 L522.697 219.457 L522.697 231.981 L540.289 231.981 L540.289 235.916 L518.021 235.916 L518.021 201.356 Z" fill="#000000" fill-rule="nonzero" fill-opacity="1" /><path clip-path="url(#clip430)" d="M547.789 199.897 L552.048 199.897 L552.048 235.916 L547.789 235.916 L547.789 199.897 Z" fill="#000000" fill-rule="nonzero" fill-opacity="1" /><path clip-path="url(#clip430)" d="M572.743 222.883 Q567.581 222.883 565.59 224.064 Q563.599 225.244 563.599 228.092 Q563.599 230.36 565.081 231.703 Q566.585 233.022 569.155 233.022 Q572.696 233.022 574.826 230.522 Q576.979 227.999 576.979 223.832 L576.979 222.883 L572.743 222.883 M581.238 221.124 L581.238 235.916 L576.979 235.916 L576.979 231.981 Q575.52 234.342 573.344 235.476 Q571.169 236.587 568.02 236.587 Q564.039 236.587 561.678 234.365 Q559.34 232.119 559.34 228.369 Q559.34 223.994 562.257 221.772 Q565.196 219.55 571.007 219.55 L576.979 219.55 L576.979 219.133 Q576.979 216.194 575.034 214.596 Q573.113 212.976 569.618 212.976 Q567.395 212.976 565.289 213.508 Q563.182 214.041 561.238 215.106 L561.238 211.17 Q563.576 210.268 565.775 209.828 Q567.974 209.365 570.057 209.365 Q575.682 209.365 578.46 212.282 Q581.238 215.198 581.238 221.124 Z" fill="#000000" fill-rule="nonzero" fill-opacity="1" /><path clip-path="url(#clip430)" d="M606.539 210.754 L606.539 214.782 Q604.733 213.856 602.789 213.393 Q600.844 212.93 598.761 212.93 Q595.59 212.93 593.992 213.902 Q592.418 214.874 592.418 216.819 Q592.418 218.3 593.553 219.157 Q594.687 219.99 598.113 220.754 L599.571 221.078 Q604.108 222.05 606.006 223.832 Q607.928 225.592 607.928 228.763 Q607.928 232.374 605.057 234.481 Q602.21 236.587 597.21 236.587 Q595.127 236.587 592.858 236.17 Q590.613 235.777 588.113 234.967 L588.113 230.569 Q590.474 231.795 592.766 232.42 Q595.057 233.022 597.303 233.022 Q600.312 233.022 601.932 232.004 Q603.553 230.962 603.553 229.087 Q603.553 227.351 602.372 226.425 Q601.215 225.499 597.256 224.643 L595.775 224.295 Q591.817 223.462 590.057 221.749 Q588.298 220.013 588.298 217.004 Q588.298 213.346 590.891 211.356 Q593.483 209.365 598.252 209.365 Q600.613 209.365 602.696 209.712 Q604.779 210.059 606.539 210.754 Z" fill="#000000" fill-rule="nonzero" fill-opacity="1" /><path clip-path="url(#clip430)" d="M618.923 202.629 L618.923 209.99 L627.696 209.99 L627.696 213.3 L618.923 213.3 L618.923 227.374 Q618.923 230.545 619.779 231.448 Q620.659 232.351 623.321 232.351 L627.696 232.351 L627.696 235.916 L623.321 235.916 Q618.391 235.916 616.516 234.087 Q614.641 232.235 614.641 227.374 L614.641 213.3 L611.516 213.3 L611.516 209.99 L614.641 209.99 L614.641 202.629 L618.923 202.629 Z" fill="#000000" fill-rule="nonzero" fill-opacity="1" /><path clip-path="url(#clip430)" d="M633.298 209.99 L637.557 209.99 L637.557 235.916 L633.298 235.916 L633.298 209.99 M633.298 199.897 L637.557 199.897 L637.557 205.291 L633.298 205.291 L633.298 199.897 Z" fill="#000000" fill-rule="nonzero" fill-opacity="1" /><path clip-path="url(#clip430)" d="M665.126 210.985 L665.126 214.967 Q663.321 213.971 661.492 213.485 Q659.687 212.976 657.835 212.976 Q653.691 212.976 651.4 215.615 Q649.108 218.231 649.108 222.976 Q649.108 227.721 651.4 230.36 Q653.691 232.976 657.835 232.976 Q659.687 232.976 661.492 232.49 Q663.321 231.981 665.126 230.985 L665.126 234.92 Q663.344 235.754 661.423 236.17 Q659.525 236.587 657.372 236.587 Q651.515 236.587 648.066 232.906 Q644.617 229.226 644.617 222.976 Q644.617 216.633 648.089 212.999 Q651.585 209.365 657.65 209.365 Q659.617 209.365 661.492 209.782 Q663.367 210.175 665.126 210.985 Z" fill="#000000" fill-rule="nonzero" fill-opacity="1" /><path clip-path="url(#clip430)" d="M691.723 232.027 L691.723 245.777 L687.441 245.777 L687.441 209.99 L691.723 209.99 L691.723 213.925 Q693.066 211.61 695.103 210.499 Q697.163 209.365 700.01 209.365 Q704.733 209.365 707.672 213.115 Q710.635 216.865 710.635 222.976 Q710.635 229.087 707.672 232.837 Q704.733 236.587 700.01 236.587 Q697.163 236.587 695.103 235.476 Q693.066 234.342 691.723 232.027 M706.214 222.976 Q706.214 218.277 704.27 215.615 Q702.348 212.93 698.969 212.93 Q695.589 212.93 693.645 215.615 Q691.723 218.277 691.723 222.976 Q691.723 227.675 693.645 230.36 Q695.589 233.022 698.969 233.022 Q702.348 233.022 704.27 230.36 Q706.214 227.675 706.214 222.976 Z" fill="#000000" fill-rule="nonzero" fill-opacity="1" /><path clip-path="url(#clip430)" d="M732.719 213.971 Q732.001 213.555 731.145 213.37 Q730.311 213.161 729.293 213.161 Q725.682 213.161 723.737 215.522 Q721.816 217.86 721.816 222.258 L721.816 235.916 L717.534 235.916 L717.534 209.99 L721.816 209.99 L721.816 214.018 Q723.158 211.657 725.311 210.522 Q727.464 209.365 730.543 209.365 Q730.983 209.365 731.515 209.434 Q732.047 209.481 732.695 209.596 L732.719 213.971 Z" fill="#000000" fill-rule="nonzero" fill-opacity="1" /><path clip-path="url(#clip430)" d="M746.191 212.976 Q742.765 212.976 740.774 215.661 Q738.783 218.323 738.783 222.976 Q738.783 227.629 740.751 230.314 Q742.742 232.976 746.191 232.976 Q749.594 232.976 751.584 230.291 Q753.575 227.606 753.575 222.976 Q753.575 218.37 751.584 215.684 Q749.594 212.976 746.191 212.976 M746.191 209.365 Q751.746 209.365 754.918 212.976 Q758.089 216.587 758.089 222.976 Q758.089 229.342 754.918 232.976 Q751.746 236.587 746.191 236.587 Q740.612 236.587 737.441 232.976 Q734.293 229.342 734.293 222.976 Q734.293 216.587 737.441 212.976 Q740.612 209.365 746.191 209.365 Z" fill="#000000" fill-rule="nonzero" fill-opacity="1" /><path clip-path="url(#clip430)" d="M769.362 202.629 L769.362 209.99 L778.135 209.99 L778.135 213.3 L769.362 213.3 L769.362 227.374 Q769.362 230.545 770.218 231.448 Q771.098 232.351 773.76 232.351 L778.135 232.351 L778.135 235.916 L773.76 235.916 Q768.83 235.916 766.955 234.087 Q765.08 232.235 765.08 227.374 L765.08 213.3 L761.955 213.3 L761.955 209.99 L765.08 209.99 L765.08 202.629 L769.362 202.629 Z" fill="#000000" fill-rule="nonzero" fill-opacity="1" /><path clip-path="url(#clip430)" d="M793.783 212.976 Q790.357 212.976 788.366 215.661 Q786.376 218.323 786.376 222.976 Q786.376 227.629 788.343 230.314 Q790.334 232.976 793.783 232.976 Q797.186 232.976 799.177 230.291 Q801.167 227.606 801.167 222.976 Q801.167 218.37 799.177 215.684 Q797.186 212.976 793.783 212.976 M793.783 209.365 Q799.339 209.365 802.51 212.976 Q805.681 216.587 805.681 222.976 Q805.681 229.342 802.51 232.976 Q799.339 236.587 793.783 236.587 Q788.204 236.587 785.033 232.976 Q781.885 229.342 781.885 222.976 Q781.885 216.587 785.033 212.976 Q788.204 209.365 793.783 209.365 Z" fill="#000000" fill-rule="nonzero" fill-opacity="1" /><path clip-path="url(#clip430)" d="M834.292 220.268 L834.292 235.916 L830.033 235.916 L830.033 220.407 Q830.033 216.726 828.598 214.897 Q827.163 213.069 824.292 213.069 Q820.843 213.069 818.852 215.268 Q816.862 217.467 816.862 221.263 L816.862 235.916 L812.579 235.916 L812.579 209.99 L816.862 209.99 L816.862 214.018 Q818.389 211.68 820.45 210.522 Q822.533 209.365 825.241 209.365 Q829.709 209.365 832 212.143 Q834.292 214.897 834.292 220.268 Z" fill="#000000" fill-rule="nonzero" fill-opacity="1" /><path clip-path="url(#clip430)" d="M859.315 210.754 L859.315 214.782 Q857.51 213.856 855.565 213.393 Q853.621 212.93 851.537 212.93 Q848.366 212.93 846.769 213.902 Q845.195 214.874 845.195 216.819 Q845.195 218.3 846.329 219.157 Q847.463 219.99 850.889 220.754 L852.348 221.078 Q856.885 222.05 858.783 223.832 Q860.704 225.592 860.704 228.763 Q860.704 232.374 857.834 234.481 Q854.986 236.587 849.986 236.587 Q847.903 236.587 845.635 236.17 Q843.389 235.777 840.889 234.967 L840.889 230.569 Q843.25 231.795 845.542 232.42 Q847.834 233.022 850.079 233.022 Q853.088 233.022 854.709 232.004 Q856.329 230.962 856.329 229.087 Q856.329 227.351 855.149 226.425 Q853.991 225.499 850.033 224.643 L848.551 224.295 Q844.593 223.462 842.834 221.749 Q841.075 220.013 841.075 217.004 Q841.075 213.346 843.667 211.356 Q846.26 209.365 851.028 209.365 Q853.389 209.365 855.473 209.712 Q857.556 210.059 859.315 210.754 Z" fill="#000000" fill-rule="nonzero" fill-opacity="1" /><polyline clip-path="url(#clip430)" style="stroke:#0000ff; stroke-linecap:round; stroke-linejoin:round; stroke-width:8; stroke-opacity:0.75; fill:none" points="355.449,270.476 494.796,270.476 "/>
<path clip-path="url(#clip430)" d="M518.021 253.196 L524.317 253.196 L539.641 282.108 L539.641 253.196 L544.178 253.196 L544.178 287.756 L537.882 287.756 L522.558 258.844 L522.558 287.756 L518.021 287.756 L518.021 253.196 Z" fill="#000000" fill-rule="nonzero" fill-opacity="1" /><path clip-path="url(#clip430)" d="M575.474 273.728 L575.474 275.811 L555.891 275.811 Q556.169 280.209 558.53 282.524 Q560.914 284.816 565.15 284.816 Q567.604 284.816 569.895 284.214 Q572.21 283.612 574.479 282.409 L574.479 286.436 Q572.187 287.408 569.78 287.918 Q567.372 288.427 564.895 288.427 Q558.692 288.427 555.058 284.816 Q551.446 281.205 551.446 275.047 Q551.446 268.682 554.872 264.955 Q558.321 261.205 564.155 261.205 Q569.386 261.205 572.419 264.585 Q575.474 267.941 575.474 273.728 M571.215 272.478 Q571.169 268.983 569.247 266.899 Q567.349 264.816 564.201 264.816 Q560.636 264.816 558.483 266.83 Q556.354 268.844 556.03 272.501 L571.215 272.478 Z" fill="#000000" fill-rule="nonzero" fill-opacity="1" /><path clip-path="url(#clip430)" d="M582.025 277.524 L582.025 261.83 L586.284 261.83 L586.284 277.362 Q586.284 281.043 587.719 282.895 Q589.155 284.723 592.025 284.723 Q595.474 284.723 597.465 282.524 Q599.479 280.325 599.479 276.529 L599.479 261.83 L603.738 261.83 L603.738 287.756 L599.479 287.756 L599.479 283.774 Q597.928 286.135 595.867 287.293 Q593.83 288.427 591.122 288.427 Q586.655 288.427 584.34 285.649 Q582.025 282.871 582.025 277.524 M592.743 261.205 L592.743 261.205 Z" fill="#000000" fill-rule="nonzero" fill-opacity="1" /><path clip-path="url(#clip430)" d="M616.724 254.469 L616.724 261.83 L625.497 261.83 L625.497 265.14 L616.724 265.14 L616.724 279.214 Q616.724 282.385 617.58 283.288 Q618.46 284.191 621.122 284.191 L625.497 284.191 L625.497 287.756 L621.122 287.756 Q616.191 287.756 614.316 285.927 Q612.441 284.075 612.441 279.214 L612.441 265.14 L609.316 265.14 L609.316 261.83 L612.441 261.83 L612.441 254.469 L616.724 254.469 Z" fill="#000000" fill-rule="nonzero" fill-opacity="1" /><path clip-path="url(#clip430)" d="M646.122 265.811 Q645.404 265.395 644.548 265.21 Q643.714 265.001 642.696 265.001 Q639.085 265.001 637.14 267.362 Q635.219 269.7 635.219 274.098 L635.219 287.756 L630.937 287.756 L630.937 261.83 L635.219 261.83 L635.219 265.858 Q636.562 263.497 638.714 262.362 Q640.867 261.205 643.946 261.205 Q644.386 261.205 644.918 261.274 Q645.451 261.321 646.099 261.436 L646.122 265.811 Z" fill="#000000" fill-rule="nonzero" fill-opacity="1" /><path clip-path="url(#clip430)" d="M659.594 264.816 Q656.168 264.816 654.177 267.501 Q652.187 270.163 652.187 274.816 Q652.187 279.469 654.154 282.154 Q656.145 284.816 659.594 284.816 Q662.997 284.816 664.987 282.131 Q666.978 279.446 666.978 274.816 Q666.978 270.21 664.987 267.524 Q662.997 264.816 659.594 264.816 M659.594 261.205 Q665.15 261.205 668.321 264.816 Q671.492 268.427 671.492 274.816 Q671.492 281.182 668.321 284.816 Q665.15 288.427 659.594 288.427 Q654.015 288.427 650.844 284.816 Q647.696 281.182 647.696 274.816 Q647.696 268.427 650.844 264.816 Q654.015 261.205 659.594 261.205 Z" fill="#000000" fill-rule="nonzero" fill-opacity="1" /><path clip-path="url(#clip430)" d="M700.103 272.108 L700.103 287.756 L695.844 287.756 L695.844 272.247 Q695.844 268.566 694.409 266.737 Q692.973 264.909 690.103 264.909 Q686.654 264.909 684.663 267.108 Q682.673 269.307 682.673 273.103 L682.673 287.756 L678.39 287.756 L678.39 261.83 L682.673 261.83 L682.673 265.858 Q684.2 263.52 686.261 262.362 Q688.344 261.205 691.052 261.205 Q695.52 261.205 697.811 263.983 Q700.103 266.737 700.103 272.108 Z" fill="#000000" fill-rule="nonzero" fill-opacity="1" /><path clip-path="url(#clip430)" d="M736.793 251.737 L736.793 255.279 L732.719 255.279 Q730.427 255.279 729.524 256.205 Q728.645 257.131 728.645 259.538 L728.645 261.83 L735.658 261.83 L735.658 265.14 L728.645 265.14 L728.645 287.756 L724.362 287.756 L724.362 265.14 L720.288 265.14 L720.288 261.83 L724.362 261.83 L724.362 260.024 Q724.362 255.696 726.376 253.728 Q728.39 251.737 732.765 251.737 L736.793 251.737 Z" fill="#000000" fill-rule="nonzero" fill-opacity="1" /><path clip-path="url(#clip430)" d="M755.381 265.811 Q754.663 265.395 753.806 265.21 Q752.973 265.001 751.955 265.001 Q748.344 265.001 746.399 267.362 Q744.478 269.7 744.478 274.098 L744.478 287.756 L740.195 287.756 L740.195 261.83 L744.478 261.83 L744.478 265.858 Q745.82 263.497 747.973 262.362 Q750.126 261.205 753.205 261.205 Q753.644 261.205 754.177 261.274 Q754.709 261.321 755.357 261.436 L755.381 265.811 Z" fill="#000000" fill-rule="nonzero" fill-opacity="1" /><path clip-path="url(#clip430)" d="M771.63 274.723 Q766.468 274.723 764.478 275.904 Q762.487 277.084 762.487 279.932 Q762.487 282.2 763.968 283.543 Q765.473 284.862 768.042 284.862 Q771.584 284.862 773.714 282.362 Q775.867 279.839 775.867 275.672 L775.867 274.723 L771.63 274.723 M780.126 272.964 L780.126 287.756 L775.867 287.756 L775.867 283.821 Q774.408 286.182 772.232 287.316 Q770.056 288.427 766.908 288.427 Q762.927 288.427 760.566 286.205 Q758.228 283.959 758.228 280.209 Q758.228 275.834 761.144 273.612 Q764.084 271.39 769.894 271.39 L775.867 271.39 L775.867 270.973 Q775.867 268.034 773.922 266.436 Q772.001 264.816 768.505 264.816 Q766.283 264.816 764.177 265.348 Q762.07 265.881 760.126 266.946 L760.126 263.01 Q762.464 262.108 764.663 261.668 Q766.862 261.205 768.945 261.205 Q774.57 261.205 777.348 264.122 Q780.126 267.038 780.126 272.964 Z" fill="#000000" fill-rule="nonzero" fill-opacity="1" /><path clip-path="url(#clip430)" d="M805.959 274.492 Q805.959 269.862 804.038 267.316 Q802.14 264.77 798.69 264.77 Q795.265 264.77 793.343 267.316 Q791.445 269.862 791.445 274.492 Q791.445 279.098 793.343 281.645 Q795.265 284.191 798.69 284.191 Q802.14 284.191 804.038 281.645 Q805.959 279.098 805.959 274.492 M810.218 284.538 Q810.218 291.158 807.278 294.376 Q804.339 297.617 798.274 297.617 Q796.028 297.617 794.038 297.27 Q792.047 296.945 790.172 296.251 L790.172 292.108 Q792.047 293.126 793.876 293.612 Q795.704 294.098 797.603 294.098 Q801.792 294.098 803.876 291.899 Q805.959 289.723 805.959 285.302 L805.959 283.196 Q804.64 285.487 802.579 286.621 Q800.519 287.756 797.649 287.756 Q792.88 287.756 789.964 284.121 Q787.047 280.487 787.047 274.492 Q787.047 268.473 789.964 264.839 Q792.88 261.205 797.649 261.205 Q800.519 261.205 802.579 262.339 Q804.64 263.473 805.959 265.765 L805.959 261.83 L810.218 261.83 L810.218 284.538 Z" fill="#000000" fill-rule="nonzero" fill-opacity="1" /><path clip-path="url(#clip430)" d="M839.176 266.807 Q840.774 263.936 842.996 262.571 Q845.218 261.205 848.227 261.205 Q852.278 261.205 854.477 264.052 Q856.676 266.876 856.676 272.108 L856.676 287.756 L852.394 287.756 L852.394 272.247 Q852.394 268.52 851.074 266.714 Q849.755 264.909 847.047 264.909 Q843.737 264.909 841.815 267.108 Q839.894 269.307 839.894 273.103 L839.894 287.756 L835.612 287.756 L835.612 272.247 Q835.612 268.497 834.292 266.714 Q832.973 264.909 830.218 264.909 Q826.954 264.909 825.033 267.131 Q823.112 269.33 823.112 273.103 L823.112 287.756 L818.829 287.756 L818.829 261.83 L823.112 261.83 L823.112 265.858 Q824.57 263.473 826.607 262.339 Q828.644 261.205 831.445 261.205 Q834.269 261.205 836.237 262.64 Q838.227 264.075 839.176 266.807 Z" fill="#000000" fill-rule="nonzero" fill-opacity="1" /><path clip-path="url(#clip430)" d="M887.347 273.728 L887.347 275.811 L867.764 275.811 Q868.042 280.209 870.403 282.524 Q872.787 284.816 877.023 284.816 Q879.477 284.816 881.769 284.214 Q884.084 283.612 886.352 282.409 L886.352 286.436 Q884.06 287.408 881.653 287.918 Q879.246 288.427 876.769 288.427 Q870.565 288.427 866.931 284.816 Q863.32 281.205 863.32 275.047 Q863.32 268.682 866.746 264.955 Q870.195 261.205 876.028 261.205 Q881.259 261.205 884.292 264.585 Q887.347 267.941 887.347 273.728 M883.088 272.478 Q883.042 268.983 881.121 266.899 Q879.222 264.816 876.074 264.816 Q872.51 264.816 870.357 266.83 Q868.227 268.844 867.903 272.501 L883.088 272.478 Z" fill="#000000" fill-rule="nonzero" fill-opacity="1" /><path clip-path="url(#clip430)" d="M915.889 272.108 L915.889 287.756 L911.63 287.756 L911.63 272.247 Q911.63 268.566 910.195 266.737 Q908.759 264.909 905.889 264.909 Q902.44 264.909 900.449 267.108 Q898.458 269.307 898.458 273.103 L898.458 287.756 L894.176 287.756 L894.176 261.83 L898.458 261.83 L898.458 265.858 Q899.986 263.52 902.046 262.362 Q904.13 261.205 906.838 261.205 Q911.306 261.205 913.597 263.983 Q915.889 266.737 915.889 272.108 Z" fill="#000000" fill-rule="nonzero" fill-opacity="1" /><path clip-path="url(#clip430)" d="M928.597 254.469 L928.597 261.83 L937.37 261.83 L937.37 265.14 L928.597 265.14 L928.597 279.214 Q928.597 282.385 929.454 283.288 Q930.333 284.191 932.995 284.191 L937.37 284.191 L937.37 287.756 L932.995 287.756 Q928.065 287.756 926.19 285.927 Q924.315 284.075 924.315 279.214 L924.315 265.14 L921.19 265.14 L921.19 261.83 L924.315 261.83 L924.315 254.469 L928.597 254.469 Z" fill="#000000" fill-rule="nonzero" fill-opacity="1" /><path clip-path="url(#clip430)" d="M959.5 262.594 L959.5 266.622 Q957.694 265.696 955.75 265.233 Q953.805 264.77 951.722 264.77 Q948.551 264.77 946.954 265.742 Q945.38 266.714 945.38 268.659 Q945.38 270.14 946.514 270.997 Q947.648 271.83 951.074 272.594 L952.532 272.918 Q957.069 273.89 958.967 275.672 Q960.889 277.432 960.889 280.603 Q960.889 284.214 958.018 286.321 Q955.171 288.427 950.171 288.427 Q948.088 288.427 945.819 288.01 Q943.574 287.617 941.074 286.807 L941.074 282.409 Q943.435 283.635 945.727 284.26 Q948.018 284.862 950.264 284.862 Q953.273 284.862 954.893 283.844 Q956.514 282.802 956.514 280.927 Q956.514 279.191 955.333 278.265 Q954.176 277.339 950.217 276.483 L948.736 276.135 Q944.778 275.302 943.018 273.589 Q941.259 271.853 941.259 268.844 Q941.259 265.186 943.852 263.196 Q946.444 261.205 951.213 261.205 Q953.574 261.205 955.657 261.552 Q957.741 261.899 959.5 262.594 Z" fill="#000000" fill-rule="nonzero" fill-opacity="1" /></svg>
