<?xml version="1.0" encoding="utf-8"?>
<svg xmlns="http://www.w3.org/2000/svg" xmlns:xlink="http://www.w3.org/1999/xlink" width="600" height="400" viewBox="0 0 2400 1600">
<defs>
  <clipPath id="clip860">
    <rect x="0" y="0" width="2400" height="1600"/>
  </clipPath>
</defs>
<path clip-path="url(#clip860)" d="M0 1600 L2400 1600 L2400 0 L0 0  Z" fill="#ffffff" fill-rule="evenodd" fill-opacity="1"/>
<defs>
  <clipPath id="clip861">
    <rect x="480" y="0" width="1681" height="1600"/>
  </clipPath>
</defs>
<path clip-path="url(#clip860)" d="M203.964 1423.18 L2352.76 1423.18 L2352.76 123.472 L203.964 123.472  Z" fill="#ffffff" fill-rule="evenodd" fill-opacity="1"/>
<defs>
  <clipPath id="clip862">
    <rect x="203" y="123" width="2150" height="1301"/>
  </clipPath>
</defs>
<polyline clip-path="url(#clip862)" style="stroke:#000000; stroke-linecap:round; stroke-linejoin:round; stroke-width:2; stroke-opacity:0.1; fill:none" points="490.019,1423.18 490.019,123.472 "/>
<polyline clip-path="url(#clip862)" style="stroke:#000000; stroke-linecap:round; stroke-linejoin:round; stroke-width:2; stroke-opacity:0.1; fill:none" points="940.499,1423.18 940.499,123.472 "/>
<polyline clip-path="url(#clip862)" style="stroke:#000000; stroke-linecap:round; stroke-linejoin:round; stroke-width:2; stroke-opacity:0.1; fill:none" points="1390.98,1423.18 1390.98,123.472 "/>
<polyline clip-path="url(#clip862)" style="stroke:#000000; stroke-linecap:round; stroke-linejoin:round; stroke-width:2; stroke-opacity:0.1; fill:none" points="1841.46,1423.18 1841.46,123.472 "/>
<polyline clip-path="url(#clip862)" style="stroke:#000000; stroke-linecap:round; stroke-linejoin:round; stroke-width:2; stroke-opacity:0.1; fill:none" points="2291.94,1423.18 2291.94,123.472 "/>
<polyline clip-path="url(#clip862)" style="stroke:#000000; stroke-linecap:round; stroke-linejoin:round; stroke-width:2; stroke-opacity:0.1; fill:none" points="203.964,1404.16 2352.76,1404.16 "/>
<polyline clip-path="url(#clip862)" style="stroke:#000000; stroke-linecap:round; stroke-linejoin:round; stroke-width:2; stroke-opacity:0.1; fill:none" points="203.964,999.038 2352.76,999.038 "/>
<polyline clip-path="url(#clip862)" style="stroke:#000000; stroke-linecap:round; stroke-linejoin:round; stroke-width:2; stroke-opacity:0.1; fill:none" points="203.964,593.919 2352.76,593.919 "/>
<polyline clip-path="url(#clip862)" style="stroke:#000000; stroke-linecap:round; stroke-linejoin:round; stroke-width:2; stroke-opacity:0.1; fill:none" points="203.964,188.8 2352.76,188.8 "/>
<polyline clip-path="url(#clip860)" style="stroke:#000000; stroke-linecap:round; stroke-linejoin:round; stroke-width:4; stroke-opacity:1; fill:none" points="203.964,1423.18 2352.76,1423.18 "/>
<polyline clip-path="url(#clip860)" style="stroke:#000000; stroke-linecap:round; stroke-linejoin:round; stroke-width:4; stroke-opacity:1; fill:none" points="490.019,1423.18 490.019,1404.28 "/>
<polyline clip-path="url(#clip860)" style="stroke:#000000; stroke-linecap:round; stroke-linejoin:round; stroke-width:4; stroke-opacity:1; fill:none" points="940.499,1423.18 940.499,1404.28 "/>
<polyline clip-path="url(#clip860)" style="stroke:#000000; stroke-linecap:round; stroke-linejoin:round; stroke-width:4; stroke-opacity:1; fill:none" points="1390.98,1423.18 1390.98,1404.28 "/>
<polyline clip-path="url(#clip860)" style="stroke:#000000; stroke-linecap:round; stroke-linejoin:round; stroke-width:4; stroke-opacity:1; fill:none" points="1841.46,1423.18 1841.46,1404.28 "/>
<polyline clip-path="url(#clip860)" style="stroke:#000000; stroke-linecap:round; stroke-linejoin:round; stroke-width:4; stroke-opacity:1; fill:none" points="2291.94,1423.18 2291.94,1404.28 "/>
<path clip-path="url(#clip860)" d="M464.718 1451.02 L483.074 1451.02 L483.074 1454.96 L469 1454.96 L469 1463.43 Q470.019 1463.08 471.037 1462.92 Q472.056 1462.73 473.074 1462.73 Q478.861 1462.73 482.241 1465.9 Q485.621 1469.08 485.621 1474.49 Q485.621 1480.07 482.148 1483.17 Q478.676 1486.25 472.357 1486.25 Q470.181 1486.25 467.912 1485.88 Q465.667 1485.51 463.26 1484.77 L463.26 1480.07 Q465.343 1481.2 467.565 1481.76 Q469.787 1482.32 472.264 1482.32 Q476.269 1482.32 478.607 1480.21 Q480.945 1478.1 480.945 1474.49 Q480.945 1470.88 478.607 1468.77 Q476.269 1466.67 472.264 1466.67 Q470.389 1466.67 468.514 1467.08 Q466.662 1467.5 464.718 1468.38 L464.718 1451.02 Z" fill="#000000" fill-rule="nonzero" fill-opacity="1" /><path clip-path="url(#clip860)" d="M504.833 1454.1 Q501.222 1454.1 499.394 1457.66 Q497.588 1461.2 497.588 1468.33 Q497.588 1475.44 499.394 1479.01 Q501.222 1482.55 504.833 1482.55 Q508.468 1482.55 510.273 1479.01 Q512.102 1475.44 512.102 1468.33 Q512.102 1461.2 510.273 1457.66 Q508.468 1454.1 504.833 1454.1 M504.833 1450.39 Q510.644 1450.39 513.699 1455 Q516.778 1459.58 516.778 1468.33 Q516.778 1477.06 513.699 1481.67 Q510.644 1486.25 504.833 1486.25 Q499.023 1486.25 495.945 1481.67 Q492.889 1477.06 492.889 1468.33 Q492.889 1459.58 495.945 1455 Q499.023 1450.39 504.833 1450.39 Z" fill="#000000" fill-rule="nonzero" fill-opacity="1" /><path clip-path="url(#clip860)" d="M900.106 1481.64 L907.745 1481.64 L907.745 1455.28 L899.435 1456.95 L899.435 1452.69 L907.699 1451.02 L912.374 1451.02 L912.374 1481.64 L920.013 1481.64 L920.013 1485.58 L900.106 1485.58 L900.106 1481.64 Z" fill="#000000" fill-rule="nonzero" fill-opacity="1" /><path clip-path="url(#clip860)" d="M939.458 1454.1 Q935.847 1454.1 934.018 1457.66 Q932.212 1461.2 932.212 1468.33 Q932.212 1475.44 934.018 1479.01 Q935.847 1482.55 939.458 1482.55 Q943.092 1482.55 944.897 1479.01 Q946.726 1475.44 946.726 1468.33 Q946.726 1461.2 944.897 1457.66 Q943.092 1454.1 939.458 1454.1 M939.458 1450.39 Q945.268 1450.39 948.323 1455 Q951.402 1459.58 951.402 1468.33 Q951.402 1477.06 948.323 1481.67 Q945.268 1486.25 939.458 1486.25 Q933.647 1486.25 930.569 1481.67 Q927.513 1477.06 927.513 1468.33 Q927.513 1459.58 930.569 1455 Q933.647 1450.39 939.458 1450.39 Z" fill="#000000" fill-rule="nonzero" fill-opacity="1" /><path clip-path="url(#clip860)" d="M969.62 1454.1 Q966.008 1454.1 964.18 1457.66 Q962.374 1461.2 962.374 1468.33 Q962.374 1475.44 964.18 1479.01 Q966.008 1482.55 969.62 1482.55 Q973.254 1482.55 975.059 1479.01 Q976.888 1475.44 976.888 1468.33 Q976.888 1461.2 975.059 1457.66 Q973.254 1454.1 969.62 1454.1 M969.62 1450.39 Q975.43 1450.39 978.485 1455 Q981.564 1459.58 981.564 1468.33 Q981.564 1477.06 978.485 1481.67 Q975.43 1486.25 969.62 1486.25 Q963.809 1486.25 960.731 1481.67 Q957.675 1477.06 957.675 1468.33 Q957.675 1459.58 960.731 1455 Q963.809 1450.39 969.62 1450.39 Z" fill="#000000" fill-rule="nonzero" fill-opacity="1" /><path clip-path="url(#clip860)" d="M1350.59 1481.64 L1358.23 1481.64 L1358.23 1455.28 L1349.92 1456.95 L1349.92 1452.69 L1358.18 1451.02 L1362.86 1451.02 L1362.86 1481.64 L1370.49 1481.64 L1370.49 1485.58 L1350.59 1485.58 L1350.59 1481.64 Z" fill="#000000" fill-rule="nonzero" fill-opacity="1" /><path clip-path="url(#clip860)" d="M1379.98 1451.02 L1398.34 1451.02 L1398.34 1454.96 L1384.27 1454.96 L1384.27 1463.43 Q1385.29 1463.08 1386.3 1462.92 Q1387.32 1462.73 1388.34 1462.73 Q1394.13 1462.73 1397.51 1465.9 Q1400.89 1469.08 1400.89 1474.49 Q1400.89 1480.07 1397.42 1483.17 Q1393.94 1486.25 1387.62 1486.25 Q1385.45 1486.25 1383.18 1485.88 Q1380.93 1485.51 1378.53 1484.77 L1378.53 1480.07 Q1380.61 1481.2 1382.83 1481.76 Q1385.05 1482.32 1387.53 1482.32 Q1391.54 1482.32 1393.87 1480.21 Q1396.21 1478.1 1396.21 1474.49 Q1396.21 1470.88 1393.87 1468.77 Q1391.54 1466.67 1387.53 1466.67 Q1385.66 1466.67 1383.78 1467.08 Q1381.93 1467.5 1379.98 1468.38 L1379.98 1451.02 Z" fill="#000000" fill-rule="nonzero" fill-opacity="1" /><path clip-path="url(#clip860)" d="M1420.1 1454.1 Q1416.49 1454.1 1414.66 1457.66 Q1412.85 1461.2 1412.85 1468.33 Q1412.85 1475.44 1414.66 1479.01 Q1416.49 1482.55 1420.1 1482.55 Q1423.73 1482.55 1425.54 1479.01 Q1427.37 1475.44 1427.37 1468.33 Q1427.37 1461.2 1425.54 1457.66 Q1423.73 1454.1 1420.1 1454.1 M1420.1 1450.39 Q1425.91 1450.39 1428.97 1455 Q1432.04 1459.58 1432.04 1468.33 Q1432.04 1477.06 1428.97 1481.67 Q1425.91 1486.25 1420.1 1486.25 Q1414.29 1486.25 1411.21 1481.67 Q1408.16 1477.06 1408.16 1468.33 Q1408.16 1459.58 1411.21 1455 Q1414.29 1450.39 1420.1 1450.39 Z" fill="#000000" fill-rule="nonzero" fill-opacity="1" /><path clip-path="url(#clip860)" d="M1805.15 1481.64 L1821.47 1481.64 L1821.47 1485.58 L1799.53 1485.58 L1799.53 1481.64 Q1802.19 1478.89 1806.77 1474.26 Q1811.38 1469.61 1812.56 1468.27 Q1814.81 1465.74 1815.69 1464.01 Q1816.59 1462.25 1816.59 1460.56 Q1816.59 1457.8 1814.64 1456.07 Q1812.72 1454.33 1809.62 1454.33 Q1807.42 1454.33 1804.97 1455.09 Q1802.54 1455.86 1799.76 1457.41 L1799.76 1452.69 Q1802.58 1451.55 1805.04 1450.97 Q1807.49 1450.39 1809.53 1450.39 Q1814.9 1450.39 1818.09 1453.08 Q1821.29 1455.77 1821.29 1460.26 Q1821.29 1462.39 1820.48 1464.31 Q1819.69 1466.2 1817.58 1468.8 Q1817 1469.47 1813.9 1472.69 Q1810.8 1475.88 1805.15 1481.64 Z" fill="#000000" fill-rule="nonzero" fill-opacity="1" /><path clip-path="url(#clip860)" d="M1841.29 1454.1 Q1837.68 1454.1 1835.85 1457.66 Q1834.04 1461.2 1834.04 1468.33 Q1834.04 1475.44 1835.85 1479.01 Q1837.68 1482.55 1841.29 1482.55 Q1844.92 1482.55 1846.73 1479.01 Q1848.56 1475.44 1848.56 1468.33 Q1848.56 1461.2 1846.73 1457.66 Q1844.92 1454.1 1841.29 1454.1 M1841.29 1450.39 Q1847.1 1450.39 1850.15 1455 Q1853.23 1459.58 1853.23 1468.33 Q1853.23 1477.06 1850.15 1481.67 Q1847.1 1486.25 1841.29 1486.25 Q1835.48 1486.25 1832.4 1481.67 Q1829.34 1477.06 1829.34 1468.33 Q1829.34 1459.58 1832.4 1455 Q1835.48 1450.39 1841.29 1450.39 Z" fill="#000000" fill-rule="nonzero" fill-opacity="1" /><path clip-path="url(#clip860)" d="M1871.45 1454.1 Q1867.84 1454.1 1866.01 1457.66 Q1864.2 1461.2 1864.2 1468.33 Q1864.2 1475.44 1866.01 1479.01 Q1867.84 1482.55 1871.45 1482.55 Q1875.08 1482.55 1876.89 1479.01 Q1878.72 1475.44 1878.72 1468.33 Q1878.72 1461.2 1876.89 1457.66 Q1875.08 1454.1 1871.45 1454.1 M1871.45 1450.39 Q1877.26 1450.39 1880.31 1455 Q1883.39 1459.58 1883.39 1468.33 Q1883.39 1477.06 1880.31 1481.67 Q1877.26 1486.25 1871.45 1486.25 Q1865.64 1486.25 1862.56 1481.67 Q1859.5 1477.06 1859.5 1468.33 Q1859.5 1459.58 1862.56 1455 Q1865.64 1450.39 1871.45 1450.39 Z" fill="#000000" fill-rule="nonzero" fill-opacity="1" /><path clip-path="url(#clip860)" d="M2255.63 1481.64 L2271.95 1481.64 L2271.95 1485.58 L2250.01 1485.58 L2250.01 1481.64 Q2252.67 1478.89 2257.25 1474.26 Q2261.86 1469.61 2263.04 1468.27 Q2265.29 1465.74 2266.17 1464.01 Q2267.07 1462.25 2267.07 1460.56 Q2267.07 1457.8 2265.12 1456.07 Q2263.2 1454.33 2260.1 1454.33 Q2257.9 1454.33 2255.45 1455.09 Q2253.02 1455.86 2250.24 1457.41 L2250.24 1452.69 Q2253.06 1451.55 2255.52 1450.97 Q2257.97 1450.39 2260.01 1450.39 Q2265.38 1450.39 2268.57 1453.08 Q2271.77 1455.77 2271.77 1460.26 Q2271.77 1462.39 2270.96 1464.31 Q2270.17 1466.2 2268.06 1468.8 Q2267.49 1469.47 2264.38 1472.69 Q2261.28 1475.88 2255.63 1481.64 Z" fill="#000000" fill-rule="nonzero" fill-opacity="1" /><path clip-path="url(#clip860)" d="M2281.81 1451.02 L2300.17 1451.02 L2300.17 1454.96 L2286.1 1454.96 L2286.1 1463.43 Q2287.11 1463.08 2288.13 1462.92 Q2289.15 1462.73 2290.17 1462.73 Q2295.96 1462.73 2299.34 1465.9 Q2302.72 1469.08 2302.72 1474.49 Q2302.72 1480.07 2299.24 1483.17 Q2295.77 1486.25 2289.45 1486.25 Q2287.28 1486.25 2285.01 1485.88 Q2282.76 1485.51 2280.36 1484.77 L2280.36 1480.07 Q2282.44 1481.2 2284.66 1481.76 Q2286.88 1482.32 2289.36 1482.32 Q2293.36 1482.32 2295.7 1480.21 Q2298.04 1478.1 2298.04 1474.49 Q2298.04 1470.88 2295.7 1468.77 Q2293.36 1466.67 2289.36 1466.67 Q2287.49 1466.67 2285.61 1467.08 Q2283.76 1467.5 2281.81 1468.38 L2281.81 1451.02 Z" fill="#000000" fill-rule="nonzero" fill-opacity="1" /><path clip-path="url(#clip860)" d="M2321.93 1454.1 Q2318.32 1454.1 2316.49 1457.66 Q2314.68 1461.2 2314.68 1468.33 Q2314.68 1475.44 2316.49 1479.01 Q2318.32 1482.55 2321.93 1482.55 Q2325.56 1482.55 2327.37 1479.01 Q2329.2 1475.44 2329.2 1468.33 Q2329.2 1461.2 2327.37 1457.66 Q2325.56 1454.1 2321.93 1454.1 M2321.93 1450.39 Q2327.74 1450.39 2330.79 1455 Q2333.87 1459.58 2333.87 1468.33 Q2333.87 1477.06 2330.79 1481.67 Q2327.74 1486.25 2321.93 1486.25 Q2316.12 1486.25 2313.04 1481.67 Q2309.98 1477.06 2309.98 1468.33 Q2309.98 1459.58 2313.04 1455 Q2316.12 1450.39 2321.93 1450.39 Z" fill="#000000" fill-rule="nonzero" fill-opacity="1" /><path clip-path="url(#clip860)" d="M743.211 1520.52 L773.257 1520.52 L773.257 1525.93 L749.64 1525.93 L749.64 1540 L772.27 1540 L772.27 1545.41 L749.64 1545.41 L749.64 1562.63 L773.83 1562.63 L773.83 1568.04 L743.211 1568.04 L743.211 1520.52 Z" fill="#000000" fill-rule="nonzero" fill-opacity="1" /><path clip-path="url(#clip860)" d="M813.775 1546.53 L813.775 1568.04 L807.918 1568.04 L807.918 1546.72 Q807.918 1541.66 805.945 1539.14 Q803.971 1536.63 800.025 1536.63 Q795.282 1536.63 792.545 1539.65 Q789.808 1542.68 789.808 1547.9 L789.808 1568.04 L783.919 1568.04 L783.919 1532.4 L789.808 1532.4 L789.808 1537.93 Q791.908 1534.72 794.741 1533.13 Q797.606 1531.54 801.33 1531.54 Q807.473 1531.54 810.624 1535.36 Q813.775 1539.14 813.775 1546.53 Z" fill="#000000" fill-rule="nonzero" fill-opacity="1" /><path clip-path="url(#clip860)" d="M855.947 1548.76 L855.947 1551.62 L829.02 1551.62 Q829.402 1557.67 832.649 1560.85 Q835.927 1564 841.752 1564 Q845.126 1564 848.277 1563.17 Q851.46 1562.35 854.579 1560.69 L854.579 1566.23 Q851.428 1567.57 848.118 1568.27 Q844.807 1568.97 841.402 1568.97 Q832.872 1568.97 827.875 1564 Q822.909 1559.04 822.909 1550.57 Q822.909 1541.82 827.62 1536.69 Q832.362 1531.54 840.383 1531.54 Q847.576 1531.54 851.746 1536.18 Q855.947 1540.8 855.947 1548.76 M850.091 1547.04 Q850.027 1542.23 847.385 1539.37 Q844.776 1536.5 840.447 1536.5 Q835.545 1536.5 832.585 1539.27 Q829.657 1542.04 829.211 1547.07 L850.091 1547.04 Z" fill="#000000" fill-rule="nonzero" fill-opacity="1" /><path clip-path="url(#clip860)" d="M886.216 1537.87 Q885.23 1537.3 884.052 1537.04 Q882.906 1536.76 881.506 1536.76 Q876.54 1536.76 873.867 1540 Q871.225 1543.22 871.225 1549.27 L871.225 1568.04 L865.337 1568.04 L865.337 1532.4 L871.225 1532.4 L871.225 1537.93 Q873.071 1534.69 876.031 1533.13 Q878.991 1531.54 883.224 1531.54 Q883.829 1531.54 884.561 1531.63 Q885.293 1531.7 886.184 1531.85 L886.216 1537.87 Z" fill="#000000" fill-rule="nonzero" fill-opacity="1" /><path clip-path="url(#clip860)" d="M914.671 1549.81 Q914.671 1543.44 912.029 1539.94 Q909.419 1536.44 904.677 1536.44 Q899.966 1536.44 897.324 1539.94 Q894.715 1543.44 894.715 1549.81 Q894.715 1556.14 897.324 1559.64 Q899.966 1563.14 904.677 1563.14 Q909.419 1563.14 912.029 1559.64 Q914.671 1556.14 914.671 1549.81 M920.527 1563.62 Q920.527 1572.72 916.485 1577.15 Q912.443 1581.6 904.104 1581.6 Q901.017 1581.6 898.279 1581.13 Q895.542 1580.68 892.964 1579.72 L892.964 1574.03 Q895.542 1575.43 898.057 1576.1 Q900.571 1576.76 903.181 1576.76 Q908.942 1576.76 911.806 1573.74 Q914.671 1570.75 914.671 1564.67 L914.671 1561.77 Q912.857 1564.92 910.024 1566.48 Q907.191 1568.04 903.245 1568.04 Q896.688 1568.04 892.677 1563.05 Q888.667 1558.05 888.667 1549.81 Q888.667 1541.53 892.677 1536.53 Q896.688 1531.54 903.245 1531.54 Q907.191 1531.54 910.024 1533.1 Q912.857 1534.66 914.671 1537.81 L914.671 1532.4 L920.527 1532.4 L920.527 1563.62 Z" fill="#000000" fill-rule="nonzero" fill-opacity="1" /><path clip-path="url(#clip860)" d="M947.423 1571.35 Q944.94 1577.72 942.585 1579.66 Q940.229 1581.6 936.283 1581.6 L931.604 1581.6 L931.604 1576.7 L935.041 1576.7 Q937.46 1576.7 938.797 1575.56 Q940.134 1574.41 941.757 1570.14 L942.807 1567.47 L928.389 1532.4 L934.596 1532.4 L945.736 1560.28 L956.876 1532.4 L963.082 1532.4 L947.423 1571.35 Z" fill="#000000" fill-rule="nonzero" fill-opacity="1" /><path clip-path="url(#clip860)" d="M1005.7 1536.5 Q1000.99 1536.5 998.253 1540.19 Q995.515 1543.85 995.515 1550.25 Q995.515 1556.65 998.221 1560.34 Q1000.96 1564 1005.7 1564 Q1010.38 1564 1013.12 1560.31 Q1015.85 1556.62 1015.85 1550.25 Q1015.85 1543.92 1013.12 1540.23 Q1010.38 1536.5 1005.7 1536.5 M1005.7 1531.54 Q1013.34 1531.54 1017.7 1536.5 Q1022.06 1541.47 1022.06 1550.25 Q1022.06 1559 1017.7 1564 Q1013.34 1568.97 1005.7 1568.97 Q998.03 1568.97 993.669 1564 Q989.341 1559 989.341 1550.25 Q989.341 1541.47 993.669 1536.5 Q998.03 1531.54 1005.7 1531.54 Z" fill="#000000" fill-rule="nonzero" fill-opacity="1" /><path clip-path="url(#clip860)" d="M1049.81 1518.52 L1049.81 1523.39 L1044.21 1523.39 Q1041.06 1523.39 1039.82 1524.66 Q1038.61 1525.93 1038.61 1529.24 L1038.61 1532.4 L1048.26 1532.4 L1048.26 1536.95 L1038.61 1536.95 L1038.61 1568.04 L1032.72 1568.04 L1032.72 1536.95 L1027.12 1536.95 L1027.12 1532.4 L1032.72 1532.4 L1032.72 1529.91 Q1032.72 1523.96 1035.49 1521.26 Q1038.26 1518.52 1044.28 1518.52 L1049.81 1518.52 Z" fill="#000000" fill-rule="nonzero" fill-opacity="1" /><path clip-path="url(#clip860)" d="M1075.44 1532.4 L1081.29 1532.4 L1081.29 1568.04 L1075.44 1568.04 L1075.44 1532.4 M1075.44 1518.52 L1081.29 1518.52 L1081.29 1525.93 L1075.44 1525.93 L1075.44 1518.52 Z" fill="#000000" fill-rule="nonzero" fill-opacity="1" /><path clip-path="url(#clip860)" d="M1123.18 1546.53 L1123.18 1568.04 L1117.32 1568.04 L1117.32 1546.72 Q1117.32 1541.66 1115.35 1539.14 Q1113.38 1536.63 1109.43 1536.63 Q1104.69 1536.63 1101.95 1539.65 Q1099.21 1542.68 1099.21 1547.9 L1099.21 1568.04 L1093.32 1568.04 L1093.32 1532.4 L1099.21 1532.4 L1099.21 1537.93 Q1101.31 1534.72 1104.15 1533.13 Q1107.01 1531.54 1110.73 1531.54 Q1116.88 1531.54 1120.03 1535.36 Q1123.18 1539.14 1123.18 1546.53 Z" fill="#000000" fill-rule="nonzero" fill-opacity="1" /><path clip-path="url(#clip860)" d="M1160.51 1533.76 L1160.51 1539.24 Q1158.03 1537.87 1155.52 1537.2 Q1153.03 1536.5 1150.49 1536.5 Q1144.79 1536.5 1141.64 1540.13 Q1138.49 1543.73 1138.49 1550.25 Q1138.49 1556.78 1141.64 1560.4 Q1144.79 1564 1150.49 1564 Q1153.03 1564 1155.52 1563.33 Q1158.03 1562.63 1160.51 1561.26 L1160.51 1566.68 Q1158.06 1567.82 1155.42 1568.39 Q1152.81 1568.97 1149.85 1568.97 Q1141.8 1568.97 1137.06 1563.91 Q1132.31 1558.85 1132.31 1550.25 Q1132.31 1541.53 1137.09 1536.53 Q1141.89 1531.54 1150.23 1531.54 Q1152.94 1531.54 1155.52 1532.11 Q1158.1 1532.65 1160.51 1533.76 Z" fill="#000000" fill-rule="nonzero" fill-opacity="1" /><path clip-path="url(#clip860)" d="M1170.7 1532.4 L1176.56 1532.4 L1176.56 1568.04 L1170.7 1568.04 L1170.7 1532.4 M1170.7 1518.52 L1176.56 1518.52 L1176.56 1525.93 L1170.7 1525.93 L1170.7 1518.52 Z" fill="#000000" fill-rule="nonzero" fill-opacity="1" /><path clip-path="url(#clip860)" d="M1212.27 1537.81 L1212.27 1518.52 L1218.12 1518.52 L1218.12 1568.04 L1212.27 1568.04 L1212.27 1562.7 Q1210.42 1565.88 1207.59 1567.44 Q1204.79 1568.97 1200.84 1568.97 Q1194.38 1568.97 1190.31 1563.81 Q1186.26 1558.65 1186.26 1550.25 Q1186.26 1541.85 1190.31 1536.69 Q1194.38 1531.54 1200.84 1531.54 Q1204.79 1531.54 1207.59 1533.1 Q1210.42 1534.62 1212.27 1537.81 M1192.31 1550.25 Q1192.31 1556.71 1194.95 1560.4 Q1197.63 1564.07 1202.27 1564.07 Q1206.92 1564.07 1209.59 1560.4 Q1212.27 1556.71 1212.27 1550.25 Q1212.27 1543.79 1209.59 1540.13 Q1206.92 1536.44 1202.27 1536.44 Q1197.63 1536.44 1194.95 1540.13 Q1192.31 1543.79 1192.31 1550.25 Z" fill="#000000" fill-rule="nonzero" fill-opacity="1" /><path clip-path="url(#clip860)" d="M1260.68 1548.76 L1260.68 1551.62 L1233.75 1551.62 Q1234.13 1557.67 1237.38 1560.85 Q1240.66 1564 1246.48 1564 Q1249.86 1564 1253.01 1563.17 Q1256.19 1562.35 1259.31 1560.69 L1259.31 1566.23 Q1256.16 1567.57 1252.85 1568.27 Q1249.54 1568.97 1246.13 1568.97 Q1237.6 1568.97 1232.61 1564 Q1227.64 1559.04 1227.64 1550.57 Q1227.64 1541.82 1232.35 1536.69 Q1237.09 1531.54 1245.11 1531.54 Q1252.31 1531.54 1256.48 1536.18 Q1260.68 1540.8 1260.68 1548.76 M1254.82 1547.04 Q1254.76 1542.23 1252.12 1539.37 Q1249.51 1536.5 1245.18 1536.5 Q1240.28 1536.5 1237.32 1539.27 Q1234.39 1542.04 1233.94 1547.07 L1254.82 1547.04 Z" fill="#000000" fill-rule="nonzero" fill-opacity="1" /><path clip-path="url(#clip860)" d="M1299.92 1546.53 L1299.92 1568.04 L1294.07 1568.04 L1294.07 1546.72 Q1294.07 1541.66 1292.09 1539.14 Q1290.12 1536.63 1286.17 1536.63 Q1281.43 1536.63 1278.69 1539.65 Q1275.96 1542.68 1275.96 1547.9 L1275.96 1568.04 L1270.07 1568.04 L1270.07 1532.4 L1275.96 1532.4 L1275.96 1537.93 Q1278.06 1534.72 1280.89 1533.13 Q1283.75 1531.54 1287.48 1531.54 Q1293.62 1531.54 1296.77 1535.36 Q1299.92 1539.14 1299.92 1546.53 Z" fill="#000000" fill-rule="nonzero" fill-opacity="1" /><path clip-path="url(#clip860)" d="M1317.4 1522.27 L1317.4 1532.4 L1329.46 1532.4 L1329.46 1536.95 L1317.4 1536.95 L1317.4 1556.3 Q1317.4 1560.66 1318.58 1561.9 Q1319.78 1563.14 1323.44 1563.14 L1329.46 1563.14 L1329.46 1568.04 L1323.44 1568.04 Q1316.67 1568.04 1314.09 1565.53 Q1311.51 1562.98 1311.51 1556.3 L1311.51 1536.95 L1307.21 1536.95 L1307.21 1532.4 L1311.51 1532.4 L1311.51 1522.27 L1317.4 1522.27 Z" fill="#000000" fill-rule="nonzero" fill-opacity="1" /><path clip-path="url(#clip860)" d="M1387.52 1546.53 L1387.52 1568.04 L1381.66 1568.04 L1381.66 1546.72 Q1381.66 1541.66 1379.69 1539.14 Q1377.71 1536.63 1373.77 1536.63 Q1369.02 1536.63 1366.29 1539.65 Q1363.55 1542.68 1363.55 1547.9 L1363.55 1568.04 L1357.66 1568.04 L1357.66 1532.4 L1363.55 1532.4 L1363.55 1537.93 Q1365.65 1534.72 1368.48 1533.13 Q1371.35 1531.54 1375.07 1531.54 Q1381.21 1531.54 1384.36 1535.36 Q1387.52 1539.14 1387.52 1546.53 Z" fill="#000000" fill-rule="nonzero" fill-opacity="1" /><path clip-path="url(#clip860)" d="M1429.69 1548.76 L1429.69 1551.62 L1402.76 1551.62 Q1403.14 1557.67 1406.39 1560.85 Q1409.67 1564 1415.49 1564 Q1418.87 1564 1422.02 1563.17 Q1425.2 1562.35 1428.32 1560.69 L1428.32 1566.23 Q1425.17 1567.57 1421.86 1568.27 Q1418.55 1568.97 1415.14 1568.97 Q1406.61 1568.97 1401.62 1564 Q1396.65 1559.04 1396.65 1550.57 Q1396.65 1541.82 1401.36 1536.69 Q1406.1 1531.54 1414.12 1531.54 Q1421.32 1531.54 1425.49 1536.18 Q1429.69 1540.8 1429.69 1548.76 M1423.83 1547.04 Q1423.77 1542.23 1421.13 1539.37 Q1418.52 1536.5 1414.19 1536.5 Q1409.29 1536.5 1406.33 1539.27 Q1403.4 1542.04 1402.95 1547.07 L1423.83 1547.04 Z" fill="#000000" fill-rule="nonzero" fill-opacity="1" /><path clip-path="url(#clip860)" d="M1438.7 1553.98 L1438.7 1532.4 L1444.55 1532.4 L1444.55 1553.75 Q1444.55 1558.81 1446.53 1561.36 Q1448.5 1563.87 1452.45 1563.87 Q1457.19 1563.87 1459.93 1560.85 Q1462.69 1557.83 1462.69 1552.61 L1462.69 1532.4 L1468.55 1532.4 L1468.55 1568.04 L1462.69 1568.04 L1462.69 1562.57 Q1460.56 1565.82 1457.73 1567.41 Q1454.93 1568.97 1451.2 1568.97 Q1445.06 1568.97 1441.88 1565.15 Q1438.7 1561.33 1438.7 1553.98 M1453.43 1531.54 L1453.43 1531.54 Z" fill="#000000" fill-rule="nonzero" fill-opacity="1" /><path clip-path="url(#clip860)" d="M1486.41 1522.27 L1486.41 1532.4 L1498.47 1532.4 L1498.47 1536.95 L1486.41 1536.95 L1486.41 1556.3 Q1486.41 1560.66 1487.58 1561.9 Q1488.79 1563.14 1492.45 1563.14 L1498.47 1563.14 L1498.47 1568.04 L1492.45 1568.04 Q1485.67 1568.04 1483.1 1565.53 Q1480.52 1562.98 1480.52 1556.3 L1480.52 1536.95 L1476.22 1536.95 L1476.22 1532.4 L1480.52 1532.4 L1480.52 1522.27 L1486.41 1522.27 Z" fill="#000000" fill-rule="nonzero" fill-opacity="1" /><path clip-path="url(#clip860)" d="M1526.83 1537.87 Q1525.84 1537.3 1524.66 1537.04 Q1523.52 1536.76 1522.12 1536.76 Q1517.15 1536.76 1514.48 1540 Q1511.84 1543.22 1511.84 1549.27 L1511.84 1568.04 L1505.95 1568.04 L1505.95 1532.4 L1511.84 1532.4 L1511.84 1537.93 Q1513.68 1534.69 1516.64 1533.13 Q1519.6 1531.54 1523.84 1531.54 Q1524.44 1531.54 1525.17 1531.63 Q1525.91 1531.7 1526.8 1531.85 L1526.83 1537.87 Z" fill="#000000" fill-rule="nonzero" fill-opacity="1" /><path clip-path="url(#clip860)" d="M1545.35 1536.5 Q1540.64 1536.5 1537.91 1540.19 Q1535.17 1543.85 1535.17 1550.25 Q1535.17 1556.65 1537.87 1560.34 Q1540.61 1564 1545.35 1564 Q1550.03 1564 1552.77 1560.31 Q1555.51 1556.62 1555.51 1550.25 Q1555.51 1543.92 1552.77 1540.23 Q1550.03 1536.5 1545.35 1536.5 M1545.35 1531.54 Q1552.99 1531.54 1557.35 1536.5 Q1561.71 1541.47 1561.71 1550.25 Q1561.71 1559 1557.35 1564 Q1552.99 1568.97 1545.35 1568.97 Q1537.68 1568.97 1533.32 1564 Q1528.99 1559 1528.99 1550.25 Q1528.99 1541.47 1533.32 1536.5 Q1537.68 1531.54 1545.35 1531.54 Z" fill="#000000" fill-rule="nonzero" fill-opacity="1" /><path clip-path="url(#clip860)" d="M1601.05 1546.53 L1601.05 1568.04 L1595.2 1568.04 L1595.2 1546.72 Q1595.2 1541.66 1593.22 1539.14 Q1591.25 1536.63 1587.3 1536.63 Q1582.56 1536.63 1579.82 1539.65 Q1577.09 1542.68 1577.09 1547.9 L1577.09 1568.04 L1571.2 1568.04 L1571.2 1532.4 L1577.09 1532.4 L1577.09 1537.93 Q1579.19 1534.72 1582.02 1533.13 Q1584.88 1531.54 1588.61 1531.54 Q1594.75 1531.54 1597.9 1535.36 Q1601.05 1539.14 1601.05 1546.53 Z" fill="#000000" fill-rule="nonzero" fill-opacity="1" /><path clip-path="url(#clip860)" d="M1647.52 1518.58 Q1643.26 1525.9 1641.19 1533.06 Q1639.12 1540.23 1639.12 1547.58 Q1639.12 1554.93 1641.19 1562.16 Q1643.29 1569.35 1647.52 1576.64 L1642.43 1576.64 Q1637.66 1569.16 1635.27 1561.93 Q1632.91 1554.71 1632.91 1547.58 Q1632.91 1540.48 1635.27 1533.29 Q1637.62 1526.09 1642.43 1518.58 L1647.52 1518.58 Z" fill="#000000" fill-rule="nonzero" fill-opacity="1" /><path clip-path="url(#clip860)" d="M1659.14 1520.52 L1668.72 1520.52 L1680.85 1552.86 L1693.04 1520.52 L1702.62 1520.52 L1702.62 1568.04 L1696.35 1568.04 L1696.35 1526.32 L1684.09 1558.91 L1677.63 1558.91 L1665.38 1526.32 L1665.38 1568.04 L1659.14 1568.04 L1659.14 1520.52 Z" fill="#000000" fill-rule="nonzero" fill-opacity="1" /><path clip-path="url(#clip860)" d="M1745.62 1548.76 L1745.62 1551.62 L1718.69 1551.62 Q1719.07 1557.67 1722.32 1560.85 Q1725.6 1564 1731.42 1564 Q1734.8 1564 1737.95 1563.17 Q1741.13 1562.35 1744.25 1560.69 L1744.25 1566.23 Q1741.1 1567.57 1737.79 1568.27 Q1734.48 1568.97 1731.07 1568.97 Q1722.54 1568.97 1717.55 1564 Q1712.58 1559.04 1712.58 1550.57 Q1712.58 1541.82 1717.29 1536.69 Q1722.03 1531.54 1730.05 1531.54 Q1737.25 1531.54 1741.42 1536.18 Q1745.62 1540.8 1745.62 1548.76 M1739.76 1547.04 Q1739.7 1542.23 1737.06 1539.37 Q1734.45 1536.5 1730.12 1536.5 Q1725.22 1536.5 1722.26 1539.27 Q1719.33 1542.04 1718.88 1547.07 L1739.76 1547.04 Z" fill="#000000" fill-rule="nonzero" fill-opacity="1" /><path clip-path="url(#clip860)" d="M1767.74 1568.04 L1749.6 1520.52 L1756.31 1520.52 L1771.37 1560.53 L1786.45 1520.52 L1793.14 1520.52 L1775.03 1568.04 L1767.74 1568.04 Z" fill="#000000" fill-rule="nonzero" fill-opacity="1" /><path clip-path="url(#clip860)" d="M1798.9 1518.58 L1803.99 1518.58 Q1808.77 1526.09 1811.12 1533.29 Q1813.51 1540.48 1813.51 1547.58 Q1813.51 1554.71 1811.12 1561.93 Q1808.77 1569.16 1803.99 1576.64 L1798.9 1576.64 Q1803.13 1569.35 1805.2 1562.16 Q1807.3 1554.93 1807.3 1547.58 Q1807.3 1540.23 1805.2 1533.06 Q1803.13 1525.9 1798.9 1518.58 Z" fill="#000000" fill-rule="nonzero" fill-opacity="1" /><polyline clip-path="url(#clip860)" style="stroke:#000000; stroke-linecap:round; stroke-linejoin:round; stroke-width:4; stroke-opacity:1; fill:none" points="203.964,1423.18 203.964,123.472 "/>
<polyline clip-path="url(#clip860)" style="stroke:#000000; stroke-linecap:round; stroke-linejoin:round; stroke-width:4; stroke-opacity:1; fill:none" points="203.964,1404.16 222.861,1404.16 "/>
<polyline clip-path="url(#clip860)" style="stroke:#000000; stroke-linecap:round; stroke-linejoin:round; stroke-width:4; stroke-opacity:1; fill:none" points="203.964,999.038 222.861,999.038 "/>
<polyline clip-path="url(#clip860)" style="stroke:#000000; stroke-linecap:round; stroke-linejoin:round; stroke-width:4; stroke-opacity:1; fill:none" points="203.964,593.919 222.861,593.919 "/>
<polyline clip-path="url(#clip860)" style="stroke:#000000; stroke-linecap:round; stroke-linejoin:round; stroke-width:4; stroke-opacity:1; fill:none" points="203.964,188.8 222.861,188.8 "/>
<path clip-path="url(#clip860)" d="M156.019 1389.96 Q152.408 1389.96 150.579 1393.52 Q148.774 1397.06 148.774 1404.19 Q148.774 1411.3 150.579 1414.86 Q152.408 1418.4 156.019 1418.4 Q159.653 1418.4 161.459 1414.86 Q163.288 1411.3 163.288 1404.19 Q163.288 1397.06 161.459 1393.52 Q159.653 1389.96 156.019 1389.96 M156.019 1386.25 Q161.829 1386.25 164.885 1390.86 Q167.964 1395.44 167.964 1404.19 Q167.964 1412.92 164.885 1417.52 Q161.829 1422.11 156.019 1422.11 Q150.209 1422.11 147.13 1417.52 Q144.075 1412.92 144.075 1404.19 Q144.075 1395.44 147.13 1390.86 Q150.209 1386.25 156.019 1386.25 Z" fill="#000000" fill-rule="nonzero" fill-opacity="1" /><path clip-path="url(#clip860)" d="M116.668 1012.38 L124.306 1012.38 L124.306 986.017 L115.996 987.684 L115.996 983.425 L124.26 981.758 L128.936 981.758 L128.936 1012.38 L136.575 1012.38 L136.575 1016.32 L116.668 1016.32 L116.668 1012.38 Z" fill="#000000" fill-rule="nonzero" fill-opacity="1" /><path clip-path="url(#clip860)" d="M156.019 984.837 Q152.408 984.837 150.579 988.401 Q148.774 991.943 148.774 999.073 Q148.774 1006.18 150.579 1009.74 Q152.408 1013.29 156.019 1013.29 Q159.653 1013.29 161.459 1009.74 Q163.288 1006.18 163.288 999.073 Q163.288 991.943 161.459 988.401 Q159.653 984.837 156.019 984.837 M156.019 981.133 Q161.829 981.133 164.885 985.739 Q167.964 990.323 167.964 999.073 Q167.964 1007.8 164.885 1012.41 Q161.829 1016.99 156.019 1016.99 Q150.209 1016.99 147.13 1012.41 Q144.075 1007.8 144.075 999.073 Q144.075 990.323 147.13 985.739 Q150.209 981.133 156.019 981.133 Z" fill="#000000" fill-rule="nonzero" fill-opacity="1" /><path clip-path="url(#clip860)" d="M119.885 607.264 L136.204 607.264 L136.204 611.199 L114.26 611.199 L114.26 607.264 Q116.922 604.509 121.505 599.88 Q126.112 595.227 127.292 593.884 Q129.538 591.361 130.417 589.625 Q131.32 587.866 131.32 586.176 Q131.32 583.421 129.376 581.685 Q127.455 579.949 124.353 579.949 Q122.154 579.949 119.7 580.713 Q117.269 581.477 114.492 583.028 L114.492 578.306 Q117.316 577.171 119.769 576.593 Q122.223 576.014 124.26 576.014 Q129.63 576.014 132.825 578.699 Q136.019 581.384 136.019 585.875 Q136.019 588.005 135.209 589.926 Q134.422 591.824 132.316 594.417 Q131.737 595.088 128.635 598.305 Q125.533 601.5 119.885 607.264 Z" fill="#000000" fill-rule="nonzero" fill-opacity="1" /><path clip-path="url(#clip860)" d="M156.019 579.718 Q152.408 579.718 150.579 583.282 Q148.774 586.824 148.774 593.954 Q148.774 601.06 150.579 604.625 Q152.408 608.167 156.019 608.167 Q159.653 608.167 161.459 604.625 Q163.288 601.06 163.288 593.954 Q163.288 586.824 161.459 583.282 Q159.653 579.718 156.019 579.718 M156.019 576.014 Q161.829 576.014 164.885 580.62 Q167.964 585.204 167.964 593.954 Q167.964 602.68 164.885 607.287 Q161.829 611.87 156.019 611.87 Q150.209 611.87 147.13 607.287 Q144.075 602.68 144.075 593.954 Q144.075 585.204 147.13 580.62 Q150.209 576.014 156.019 576.014 Z" fill="#000000" fill-rule="nonzero" fill-opacity="1" /><path clip-path="url(#clip860)" d="M130.024 187.446 Q133.38 188.163 135.255 190.432 Q137.154 192.7 137.154 196.034 Q137.154 201.149 133.635 203.95 Q130.117 206.751 123.635 206.751 Q121.459 206.751 119.144 206.311 Q116.853 205.895 114.399 205.038 L114.399 200.524 Q116.343 201.659 118.658 202.237 Q120.973 202.816 123.496 202.816 Q127.894 202.816 130.186 201.08 Q132.501 199.344 132.501 196.034 Q132.501 192.978 130.348 191.265 Q128.218 189.529 124.399 189.529 L120.371 189.529 L120.371 185.687 L124.584 185.687 Q128.033 185.687 129.862 184.321 Q131.691 182.932 131.691 180.339 Q131.691 177.677 129.792 176.265 Q127.917 174.83 124.399 174.83 Q122.478 174.83 120.279 175.247 Q118.08 175.663 115.441 176.543 L115.441 172.376 Q118.103 171.636 120.418 171.265 Q122.755 170.895 124.816 170.895 Q130.14 170.895 133.242 173.326 Q136.343 175.733 136.343 179.853 Q136.343 182.724 134.7 184.714 Q133.056 186.682 130.024 187.446 Z" fill="#000000" fill-rule="nonzero" fill-opacity="1" /><path clip-path="url(#clip860)" d="M156.019 174.599 Q152.408 174.599 150.579 178.163 Q148.774 181.705 148.774 188.835 Q148.774 195.941 150.579 199.506 Q152.408 203.048 156.019 203.048 Q159.653 203.048 161.459 199.506 Q163.288 195.941 163.288 188.835 Q163.288 181.705 161.459 178.163 Q159.653 174.599 156.019 174.599 M156.019 170.895 Q161.829 170.895 164.885 175.501 Q167.964 180.085 167.964 188.835 Q167.964 197.562 164.885 202.168 Q161.829 206.751 156.019 206.751 Q150.209 206.751 147.13 202.168 Q144.075 197.562 144.075 188.835 Q144.075 180.085 147.13 175.501 Q150.209 170.895 156.019 170.895 Z" fill="#000000" fill-rule="nonzero" fill-opacity="1" /><path clip-path="url(#clip860)" d="M16.4842 1145.77 L16.4842 1115.72 L21.895 1115.72 L21.895 1139.34 L35.9632 1139.34 L35.9632 1116.71 L41.3741 1116.71 L41.3741 1139.34 L58.5933 1139.34 L58.5933 1115.15 L64.0042 1115.15 L64.0042 1145.77 L16.4842 1145.77 Z" fill="#000000" fill-rule="nonzero" fill-opacity="1" /><path clip-path="url(#clip860)" d="M42.4881 1075.2 L64.0042 1075.2 L64.0042 1081.06 L42.679 1081.06 Q37.6183 1081.06 35.1038 1083.03 Q32.5894 1085.01 32.5894 1088.95 Q32.5894 1093.7 35.6131 1096.43 Q38.6368 1099.17 43.8567 1099.17 L64.0042 1099.17 L64.0042 1105.06 L28.3562 1105.06 L28.3562 1099.17 L33.8944 1099.17 Q30.6797 1097.07 29.0883 1094.24 Q27.4968 1091.37 27.4968 1087.65 Q27.4968 1081.51 31.3163 1078.35 Q35.1038 1075.2 42.4881 1075.2 Z" fill="#000000" fill-rule="nonzero" fill-opacity="1" /><path clip-path="url(#clip860)" d="M44.7161 1033.03 L47.5806 1033.03 L47.5806 1059.96 Q53.6281 1059.58 56.8109 1056.33 Q59.9619 1053.05 59.9619 1047.23 Q59.9619 1043.85 59.1344 1040.7 Q58.3069 1037.52 56.6518 1034.4 L62.1899 1034.4 Q63.5267 1037.55 64.227 1040.86 Q64.9272 1044.17 64.9272 1047.58 Q64.9272 1056.11 59.9619 1061.1 Q54.9967 1066.07 46.5303 1066.07 Q37.7774 1066.07 32.6531 1061.36 Q27.4968 1056.62 27.4968 1048.6 Q27.4968 1041.4 32.1438 1037.23 Q36.7589 1033.03 44.7161 1033.03 M42.9973 1038.89 Q38.1912 1038.95 35.3266 1041.59 Q32.4621 1044.2 32.4621 1048.53 Q32.4621 1053.43 35.2312 1056.39 Q38.0002 1059.32 43.0292 1059.77 L42.9973 1038.89 Z" fill="#000000" fill-rule="nonzero" fill-opacity="1" /><path clip-path="url(#clip860)" d="M33.8307 1002.76 Q33.2578 1003.75 33.0032 1004.93 Q32.7167 1006.07 32.7167 1007.47 Q32.7167 1012.44 35.9632 1015.11 Q39.1779 1017.75 45.2253 1017.75 L64.0042 1017.75 L64.0042 1023.64 L28.3562 1023.64 L28.3562 1017.75 L33.8944 1017.75 Q30.6479 1015.91 29.0883 1012.95 Q27.4968 1009.99 27.4968 1005.75 Q27.4968 1005.15 27.5923 1004.42 Q27.656 1003.68 27.8151 1002.79 L33.8307 1002.76 Z" fill="#000000" fill-rule="nonzero" fill-opacity="1" /><path clip-path="url(#clip860)" d="M45.7664 974.307 Q39.4007 974.307 35.8996 976.949 Q32.3984 979.559 32.3984 984.301 Q32.3984 989.012 35.8996 991.654 Q39.4007 994.264 45.7664 994.264 Q52.1003 994.264 55.6014 991.654 Q59.1026 989.012 59.1026 984.301 Q59.1026 979.559 55.6014 976.949 Q52.1003 974.307 45.7664 974.307 M59.58 968.451 Q68.683 968.451 73.1071 972.493 Q77.5631 976.535 77.5631 984.874 Q77.5631 987.962 77.0857 990.699 Q76.6401 993.436 75.6852 996.014 L69.9879 996.014 Q71.3884 993.436 72.0568 990.922 Q72.7252 988.407 72.7252 985.797 Q72.7252 980.036 69.7015 977.172 Q66.7096 974.307 60.6303 974.307 L57.7339 974.307 Q60.885 976.121 62.4446 978.954 Q64.0042 981.787 64.0042 985.734 Q64.0042 992.29 59.0071 996.301 Q54.01 1000.31 45.7664 1000.31 Q37.491 1000.31 32.4939 996.301 Q27.4968 992.29 27.4968 985.734 Q27.4968 981.787 29.0564 978.954 Q30.616 976.121 33.7671 974.307 L28.3562 974.307 L28.3562 968.451 L59.58 968.451 Z" fill="#000000" fill-rule="nonzero" fill-opacity="1" /><path clip-path="url(#clip860)" d="M67.3143 941.556 Q73.68 944.038 75.6216 946.394 Q77.5631 948.749 77.5631 952.696 L77.5631 957.374 L72.6615 957.374 L72.6615 953.937 Q72.6615 951.518 71.5157 950.181 Q70.3699 948.844 66.1048 947.221 L63.4312 946.171 L28.3562 960.589 L28.3562 954.383 L56.238 943.243 L28.3562 932.103 L28.3562 925.896 L67.3143 941.556 Z" fill="#000000" fill-rule="nonzero" fill-opacity="1" /><path clip-path="url(#clip860)" d="M49.9359 897.696 L28.3562 897.696 L28.3562 891.84 L49.7131 891.84 Q54.7739 891.84 57.3202 889.866 Q59.8346 887.893 59.8346 883.946 Q59.8346 879.204 56.8109 876.466 Q53.7872 873.697 48.5673 873.697 L28.3562 873.697 L28.3562 867.841 L64.0042 867.841 L64.0042 873.697 L58.5296 873.697 Q61.7762 875.83 63.3676 878.663 Q64.9272 881.463 64.9272 885.187 Q64.9272 891.33 61.1078 894.513 Q57.2883 897.696 49.9359 897.696 M27.4968 882.959 L27.4968 882.959 Z" fill="#000000" fill-rule="nonzero" fill-opacity="1" /><path clip-path="url(#clip860)" d="M42.4881 826.145 L64.0042 826.145 L64.0042 832.002 L42.679 832.002 Q37.6183 832.002 35.1038 833.975 Q32.5894 835.949 32.5894 839.895 Q32.5894 844.638 35.6131 847.375 Q38.6368 850.112 43.8567 850.112 L64.0042 850.112 L64.0042 856.001 L28.3562 856.001 L28.3562 850.112 L33.8944 850.112 Q30.6797 848.012 29.0883 845.179 Q27.4968 842.314 27.4968 838.59 Q27.4968 832.447 31.3163 829.296 Q35.1038 826.145 42.4881 826.145 Z" fill="#000000" fill-rule="nonzero" fill-opacity="1" /><path clip-path="url(#clip860)" d="M29.7248 788.811 L35.1993 788.811 Q33.8307 791.293 33.1623 793.808 Q32.4621 796.29 32.4621 798.837 Q32.4621 804.534 36.0905 807.685 Q39.6872 810.836 46.212 810.836 Q52.7369 810.836 56.3653 807.685 Q59.9619 804.534 59.9619 798.837 Q59.9619 796.29 59.2935 793.808 Q58.5933 791.293 57.2247 788.811 L62.6355 788.811 Q63.7814 791.261 64.3543 793.903 Q64.9272 796.513 64.9272 799.473 Q64.9272 807.526 59.8664 812.268 Q54.8057 817.011 46.212 817.011 Q37.491 817.011 32.4939 812.236 Q27.4968 807.43 27.4968 799.091 Q27.4968 796.386 28.0697 793.808 Q28.6108 791.23 29.7248 788.811 Z" fill="#000000" fill-rule="nonzero" fill-opacity="1" /><path clip-path="url(#clip860)" d="M44.7161 748.134 L47.5806 748.134 L47.5806 775.061 Q53.6281 774.679 56.8109 771.432 Q59.9619 768.154 59.9619 762.329 Q59.9619 758.955 59.1344 755.804 Q58.3069 752.622 56.6518 749.502 L62.1899 749.502 Q63.5267 752.653 64.227 755.964 Q64.9272 759.274 64.9272 762.679 Q64.9272 771.209 59.9619 776.206 Q54.9967 781.172 46.5303 781.172 Q37.7774 781.172 32.6531 776.461 Q27.4968 771.719 27.4968 763.698 Q27.4968 756.505 32.1438 752.335 Q36.7589 748.134 44.7161 748.134 M42.9973 753.99 Q38.1912 754.054 35.3266 756.696 Q32.4621 759.306 32.4621 763.634 Q32.4621 768.536 35.2312 771.496 Q38.0002 774.424 43.0292 774.87 L42.9973 753.99 Z" fill="#000000" fill-rule="nonzero" fill-opacity="1" /><path clip-path="url(#clip860)" d="M33.8307 717.865 Q33.2578 718.851 33.0032 720.029 Q32.7167 721.175 32.7167 722.575 Q32.7167 727.541 35.9632 730.214 Q39.1779 732.856 45.2253 732.856 L64.0042 732.856 L64.0042 738.744 L28.3562 738.744 L28.3562 732.856 L33.8944 732.856 Q30.6479 731.01 29.0883 728.05 Q27.4968 725.09 27.4968 720.857 Q27.4968 720.252 27.5923 719.52 Q27.656 718.788 27.8151 717.897 L33.8307 717.865 Z" fill="#000000" fill-rule="nonzero" fill-opacity="1" /><path clip-path="url(#clip860)" d="M18.2347 705.929 L28.3562 705.929 L28.3562 693.866 L32.9077 693.866 L32.9077 705.929 L52.2594 705.929 Q56.6199 705.929 57.8613 704.751 Q59.1026 703.542 59.1026 699.882 L59.1026 693.866 L64.0042 693.866 L64.0042 699.882 Q64.0042 706.661 61.4897 709.239 Q58.9434 711.817 52.2594 711.817 L32.9077 711.817 L32.9077 716.114 L28.3562 716.114 L28.3562 711.817 L18.2347 711.817 L18.2347 705.929 Z" fill="#000000" fill-rule="nonzero" fill-opacity="1" /><path clip-path="url(#clip860)" d="M46.0847 669.963 Q46.0847 677.061 47.7079 679.798 Q49.3312 682.535 53.2461 682.535 Q56.3653 682.535 58.2114 680.498 Q60.0256 678.429 60.0256 674.896 Q60.0256 670.026 56.5881 667.098 Q53.1188 664.138 47.3897 664.138 L46.0847 664.138 L46.0847 669.963 M43.6657 658.282 L64.0042 658.282 L64.0042 664.138 L58.5933 664.138 Q61.8398 666.143 63.3994 669.135 Q64.9272 672.127 64.9272 676.456 Q64.9272 681.93 61.8716 685.177 Q58.7843 688.392 53.6281 688.392 Q47.6125 688.392 44.5569 684.381 Q41.5014 680.339 41.5014 672.35 L41.5014 664.138 L40.9285 664.138 Q36.8862 664.138 34.6901 666.812 Q32.4621 669.454 32.4621 674.26 Q32.4621 677.315 33.1941 680.212 Q33.9262 683.108 35.3903 685.782 L29.9795 685.782 Q28.7381 682.567 28.1334 679.543 Q27.4968 676.52 27.4968 673.655 Q27.4968 665.921 31.5072 662.101 Q35.5176 658.282 43.6657 658.282 Z" fill="#000000" fill-rule="nonzero" fill-opacity="1" /><path clip-path="url(#clip860)" d="M28.3562 646.219 L28.3562 640.362 L64.0042 640.362 L64.0042 646.219 L28.3562 646.219 M14.479 646.219 L14.479 640.362 L21.895 640.362 L21.895 646.219 L14.479 646.219 Z" fill="#000000" fill-rule="nonzero" fill-opacity="1" /><path clip-path="url(#clip860)" d="M42.4881 598.476 L64.0042 598.476 L64.0042 604.332 L42.679 604.332 Q37.6183 604.332 35.1038 606.306 Q32.5894 608.279 32.5894 612.226 Q32.5894 616.968 35.6131 619.706 Q38.6368 622.443 43.8567 622.443 L64.0042 622.443 L64.0042 628.331 L28.3562 628.331 L28.3562 622.443 L33.8944 622.443 Q30.6797 620.342 29.0883 617.509 Q27.4968 614.645 27.4968 610.921 Q27.4968 604.778 31.3163 601.627 Q35.1038 598.476 42.4881 598.476 Z" fill="#000000" fill-rule="nonzero" fill-opacity="1" /><path clip-path="url(#clip860)" d="M18.2347 581.002 L28.3562 581.002 L28.3562 568.939 L32.9077 568.939 L32.9077 581.002 L52.2594 581.002 Q56.6199 581.002 57.8613 579.824 Q59.1026 578.615 59.1026 574.955 L59.1026 568.939 L64.0042 568.939 L64.0042 574.955 Q64.0042 581.734 61.4897 584.312 Q58.9434 586.89 52.2594 586.89 L32.9077 586.89 L32.9077 591.187 L28.3562 591.187 L28.3562 586.89 L18.2347 586.89 L18.2347 581.002 Z" fill="#000000" fill-rule="nonzero" fill-opacity="1" /><path clip-path="url(#clip860)" d="M67.3143 546.404 Q73.68 548.887 75.6216 551.242 Q77.5631 553.598 77.5631 557.544 L77.5631 562.223 L72.6615 562.223 L72.6615 558.786 Q72.6615 556.367 71.5157 555.03 Q70.3699 553.693 66.1048 552.07 L63.4312 551.02 L28.3562 565.438 L28.3562 559.231 L56.238 548.091 L28.3562 536.951 L28.3562 530.745 L67.3143 546.404 Z" fill="#000000" fill-rule="nonzero" fill-opacity="1" /><path clip-path="url(#clip860)" d="M14.5426 487.872 Q21.8632 492.137 29.0246 494.206 Q36.186 496.275 43.5384 496.275 Q50.8908 496.275 58.1159 494.206 Q65.3091 492.105 72.5979 487.872 L72.5979 492.964 Q65.1182 497.739 57.8931 500.126 Q50.668 502.481 43.5384 502.481 Q36.4406 502.481 29.2474 500.126 Q22.0542 497.77 14.5426 492.964 L14.5426 487.872 Z" fill="#000000" fill-rule="nonzero" fill-opacity="1" /><path clip-path="url(#clip860)" d="M43.0928 435.259 Q43.0928 438.028 45.4481 439.62 Q47.8034 441.179 52.0048 441.179 Q56.1425 441.179 58.5296 439.62 Q60.885 438.028 60.885 435.259 Q60.885 432.554 58.5296 430.994 Q56.1425 429.403 52.0048 429.403 Q47.8353 429.403 45.48 430.994 Q43.0928 432.554 43.0928 435.259 M39.0506 435.259 Q39.0506 430.23 42.5517 427.27 Q46.0529 424.31 52.0048 424.31 Q57.9567 424.31 61.4579 427.302 Q64.9272 430.262 64.9272 435.259 Q64.9272 440.352 61.4579 443.312 Q57.9567 446.272 52.0048 446.272 Q46.021 446.272 42.5517 443.312 Q39.0506 440.32 39.0506 435.259 M19.667 468.106 Q19.667 470.844 22.0542 472.435 Q24.4095 473.995 28.5472 473.995 Q32.7485 473.995 35.1038 472.435 Q37.4592 470.875 37.4592 468.106 Q37.4592 465.337 35.1038 463.778 Q32.7485 462.186 28.5472 462.186 Q24.4413 462.186 22.0542 463.778 Q19.667 465.369 19.667 468.106 M15.6248 439.365 L15.6248 434.273 L64.9272 464 L64.9272 469.093 L15.6248 439.365 M15.6248 468.106 Q15.6248 463.077 19.1259 460.085 Q22.5952 457.094 28.5472 457.094 Q34.5628 457.094 38.0321 460.085 Q41.5014 463.046 41.5014 468.106 Q41.5014 473.167 38.0321 476.127 Q34.5309 479.055 28.5472 479.055 Q22.6271 479.055 19.1259 476.095 Q15.6248 473.135 15.6248 468.106 Z" fill="#000000" fill-rule="nonzero" fill-opacity="1" /><path clip-path="url(#clip860)" d="M14.5426 415.494 L14.5426 410.401 Q22.0542 405.627 29.2474 403.272 Q36.4406 400.884 43.5384 400.884 Q50.668 400.884 57.8931 403.272 Q65.1182 405.627 72.5979 410.401 L72.5979 415.494 Q65.3091 411.261 58.1159 409.192 Q50.8908 407.091 43.5384 407.091 Q36.186 407.091 29.0246 409.192 Q21.8632 411.261 14.5426 415.494 Z" fill="#000000" fill-rule="nonzero" fill-opacity="1" /><path clip-path="url(#clip860)" d="M593.818 12.096 L602.041 12.096 L602.041 48.8377 Q602.041 58.5599 605.565 62.8538 Q609.09 67.1073 616.989 67.1073 Q624.848 67.1073 628.372 62.8538 Q631.896 58.5599 631.896 48.8377 L631.896 12.096 L640.12 12.096 L640.12 49.8504 Q640.12 61.6791 634.246 67.7149 Q628.412 73.7508 616.989 73.7508 Q605.525 73.7508 599.651 67.7149 Q593.818 61.6791 593.818 49.8504 L593.818 12.096 Z" fill="#000000" fill-rule="nonzero" fill-opacity="1" /><path clip-path="url(#clip860)" d="M692.862 45.1919 L692.862 72.576 L685.409 72.576 L685.409 45.4349 Q685.409 38.994 682.897 35.7938 Q680.386 32.5936 675.362 32.5936 Q669.327 32.5936 665.843 36.4419 Q662.359 40.2903 662.359 46.9338 L662.359 72.576 L654.865 72.576 L654.865 27.2059 L662.359 27.2059 L662.359 34.2544 Q665.033 30.163 668.638 28.1376 Q672.284 26.1121 677.023 26.1121 Q684.842 26.1121 688.852 30.9732 Q692.862 35.7938 692.862 45.1919 Z" fill="#000000" fill-rule="nonzero" fill-opacity="1" /><path clip-path="url(#clip860)" d="M740.379 28.9478 L740.379 35.9153 Q737.22 34.1734 734.019 33.3227 Q730.86 32.4315 727.619 32.4315 Q720.368 32.4315 716.358 37.0496 Q712.347 41.6271 712.347 49.9314 Q712.347 58.2358 716.358 62.8538 Q720.368 67.4314 727.619 67.4314 Q730.86 67.4314 734.019 66.5807 Q737.22 65.6895 740.379 63.9476 L740.379 70.8341 Q737.26 72.2924 733.898 73.0216 Q730.576 73.7508 726.809 73.7508 Q716.56 73.7508 710.524 67.3098 Q704.488 60.8689 704.488 49.9314 Q704.488 38.832 710.565 32.472 Q716.682 26.1121 727.295 26.1121 Q730.738 26.1121 734.019 26.8413 Q737.301 27.5299 740.379 28.9478 Z" fill="#000000" fill-rule="nonzero" fill-opacity="1" /><path clip-path="url(#clip860)" d="M792.15 48.0275 L792.15 51.6733 L757.879 51.6733 Q758.365 59.3701 762.497 63.421 Q766.67 67.4314 774.083 67.4314 Q778.377 67.4314 782.387 66.3781 Q786.438 65.3249 790.408 63.2184 L790.408 70.267 Q786.398 71.9684 782.185 72.8596 Q777.972 73.7508 773.637 73.7508 Q762.781 73.7508 756.421 67.4314 Q750.102 61.1119 750.102 50.3365 Q750.102 39.1965 756.097 32.6746 Q762.133 26.1121 772.341 26.1121 Q781.496 26.1121 786.803 32.0264 Q792.15 37.9003 792.15 48.0275 M784.696 45.84 Q784.615 39.7232 781.253 36.0774 Q777.931 32.4315 772.422 32.4315 Q766.184 32.4315 762.416 35.9558 Q758.689 39.4801 758.122 45.8805 L784.696 45.84 Z" fill="#000000" fill-rule="nonzero" fill-opacity="1" /><path clip-path="url(#clip860)" d="M830.674 34.1734 Q829.418 33.4443 827.919 33.1202 Q826.461 32.7556 824.679 32.7556 Q818.359 32.7556 814.957 36.8875 Q811.594 40.9789 811.594 48.6757 L811.594 72.576 L804.1 72.576 L804.1 27.2059 L811.594 27.2059 L811.594 34.2544 Q813.944 30.1225 817.711 28.1376 Q821.479 26.1121 826.866 26.1121 Q827.636 26.1121 828.568 26.2337 Q829.499 26.3147 830.634 26.5172 L830.674 34.1734 Z" fill="#000000" fill-rule="nonzero" fill-opacity="1" /><path clip-path="url(#clip860)" d="M845.865 14.324 L845.865 27.2059 L861.218 27.2059 L861.218 32.9987 L845.865 32.9987 L845.865 57.6282 Q845.865 63.1779 847.364 64.7578 Q848.903 66.3376 853.562 66.3376 L861.218 66.3376 L861.218 72.576 L853.562 72.576 Q844.933 72.576 841.652 69.3758 Q838.371 66.1351 838.371 57.6282 L838.371 32.9987 L832.902 32.9987 L832.902 27.2059 L838.371 27.2059 L838.371 14.324 L845.865 14.324 Z" fill="#000000" fill-rule="nonzero" fill-opacity="1" /><path clip-path="url(#clip860)" d="M891.64 49.7694 Q882.607 49.7694 879.123 51.8354 Q875.639 53.9013 875.639 58.8839 Q875.639 62.8538 878.232 65.2034 Q880.865 67.5124 885.361 67.5124 Q891.559 67.5124 895.286 63.1374 Q899.053 58.7219 899.053 51.4303 L899.053 49.7694 L891.64 49.7694 M906.507 46.6907 L906.507 72.576 L899.053 72.576 L899.053 65.6895 Q896.501 69.8214 892.693 71.8063 Q888.886 73.7508 883.376 73.7508 Q876.409 73.7508 872.277 69.8619 Q868.185 65.9325 868.185 59.3701 Q868.185 51.7138 873.29 47.825 Q878.434 43.9361 888.602 43.9361 L899.053 43.9361 L899.053 43.2069 Q899.053 38.0623 895.651 35.2672 Q892.288 32.4315 886.171 32.4315 Q882.283 32.4315 878.596 33.3632 Q874.91 34.295 871.507 36.1584 L871.507 29.2718 Q875.599 27.692 879.447 26.9223 Q883.295 26.1121 886.941 26.1121 Q896.785 26.1121 901.646 31.2163 Q906.507 36.3204 906.507 46.6907 Z" fill="#000000" fill-rule="nonzero" fill-opacity="1" /><path clip-path="url(#clip860)" d="M921.86 27.2059 L929.314 27.2059 L929.314 72.576 L921.86 72.576 L921.86 27.2059 M921.86 9.54393 L929.314 9.54393 L929.314 18.9825 L921.86 18.9825 L921.86 9.54393 Z" fill="#000000" fill-rule="nonzero" fill-opacity="1" /><path clip-path="url(#clip860)" d="M982.623 45.1919 L982.623 72.576 L975.17 72.576 L975.17 45.4349 Q975.17 38.994 972.658 35.7938 Q970.147 32.5936 965.124 32.5936 Q959.088 32.5936 955.604 36.4419 Q952.12 40.2903 952.12 46.9338 L952.12 72.576 L944.626 72.576 L944.626 27.2059 L952.12 27.2059 L952.12 34.2544 Q954.794 30.163 958.399 28.1376 Q962.045 26.1121 966.784 26.1121 Q974.603 26.1121 978.613 30.9732 Q982.623 35.7938 982.623 45.1919 Z" fill="#000000" fill-rule="nonzero" fill-opacity="1" /><path clip-path="url(#clip860)" d="M1004.86 14.324 L1004.86 27.2059 L1020.22 27.2059 L1020.22 32.9987 L1004.86 32.9987 L1004.86 57.6282 Q1004.86 63.1779 1006.36 64.7578 Q1007.9 66.3376 1012.56 66.3376 L1020.22 66.3376 L1020.22 72.576 L1012.56 72.576 Q1003.93 72.576 1000.65 69.3758 Q997.369 66.1351 997.369 57.6282 L997.369 32.9987 L991.9 32.9987 L991.9 27.2059 L997.369 27.2059 L997.369 14.324 L1004.86 14.324 Z" fill="#000000" fill-rule="nonzero" fill-opacity="1" /><path clip-path="url(#clip860)" d="M1048.9 76.7889 Q1045.74 84.8907 1042.74 87.3618 Q1039.74 89.8329 1034.72 89.8329 L1028.76 89.8329 L1028.76 83.5945 L1033.14 83.5945 Q1036.22 83.5945 1037.92 82.1361 Q1039.62 80.6778 1041.69 75.2496 L1043.02 71.8468 L1024.67 27.2059 L1032.57 27.2059 L1046.75 62.6918 L1060.93 27.2059 L1068.83 27.2059 L1048.9 76.7889 Z" fill="#000000" fill-rule="nonzero" fill-opacity="1" /><path clip-path="url(#clip860)" d="M1123.07 32.4315 Q1117.07 32.4315 1113.59 37.1306 Q1110.11 41.7891 1110.11 49.9314 Q1110.11 58.0738 1113.55 62.7728 Q1117.03 67.4314 1123.07 67.4314 Q1129.02 67.4314 1132.51 62.7323 Q1135.99 58.0333 1135.99 49.9314 Q1135.99 41.8701 1132.51 37.1711 Q1129.02 32.4315 1123.07 32.4315 M1123.07 26.1121 Q1132.79 26.1121 1138.34 32.4315 Q1143.89 38.7509 1143.89 49.9314 Q1143.89 61.0714 1138.34 67.4314 Q1132.79 73.7508 1123.07 73.7508 Q1113.31 73.7508 1107.76 67.4314 Q1102.25 61.0714 1102.25 49.9314 Q1102.25 38.7509 1107.76 32.4315 Q1113.31 26.1121 1123.07 26.1121 Z" fill="#000000" fill-rule="nonzero" fill-opacity="1" /><path clip-path="url(#clip860)" d="M1179.21 9.54393 L1179.21 15.7418 L1172.08 15.7418 Q1168.07 15.7418 1166.49 17.3622 Q1164.95 18.9825 1164.95 23.1955 L1164.95 27.2059 L1177.23 27.2059 L1177.23 32.9987 L1164.95 32.9987 L1164.95 72.576 L1157.46 72.576 L1157.46 32.9987 L1150.33 32.9987 L1150.33 27.2059 L1157.46 27.2059 L1157.46 24.0462 Q1157.46 16.471 1160.98 13.0277 Q1164.51 9.54393 1172.17 9.54393 L1179.21 9.54393 Z" fill="#000000" fill-rule="nonzero" fill-opacity="1" /><path clip-path="url(#clip860)" d="M1250.63 48.0275 L1250.63 51.6733 L1216.36 51.6733 Q1216.85 59.3701 1220.98 63.421 Q1225.15 67.4314 1232.56 67.4314 Q1236.86 67.4314 1240.87 66.3781 Q1244.92 65.3249 1248.89 63.2184 L1248.89 70.267 Q1244.88 71.9684 1240.67 72.8596 Q1236.45 73.7508 1232.12 73.7508 Q1221.26 73.7508 1214.9 67.4314 Q1208.58 61.1119 1208.58 50.3365 Q1208.58 39.1965 1214.58 32.6746 Q1220.61 26.1121 1230.82 26.1121 Q1239.98 26.1121 1245.28 32.0264 Q1250.63 37.9003 1250.63 48.0275 M1243.18 45.84 Q1243.1 39.7232 1239.73 36.0774 Q1236.41 32.4315 1230.9 32.4315 Q1224.67 32.4315 1220.9 35.9558 Q1217.17 39.4801 1216.6 45.8805 L1243.18 45.84 Z" fill="#000000" fill-rule="nonzero" fill-opacity="1" /><path clip-path="url(#clip860)" d="M1300.58 45.1919 L1300.58 72.576 L1293.13 72.576 L1293.13 45.4349 Q1293.13 38.994 1290.61 35.7938 Q1288.1 32.5936 1283.08 32.5936 Q1277.04 32.5936 1273.56 36.4419 Q1270.08 40.2903 1270.08 46.9338 L1270.08 72.576 L1262.58 72.576 L1262.58 27.2059 L1270.08 27.2059 L1270.08 34.2544 Q1272.75 30.163 1276.35 28.1376 Q1280 26.1121 1284.74 26.1121 Q1292.56 26.1121 1296.57 30.9732 Q1300.58 35.7938 1300.58 45.1919 Z" fill="#000000" fill-rule="nonzero" fill-opacity="1" /><path clip-path="url(#clip860)" d="M1354.25 48.0275 L1354.25 51.6733 L1319.98 51.6733 Q1320.47 59.3701 1324.6 63.421 Q1328.77 67.4314 1336.19 67.4314 Q1340.48 67.4314 1344.49 66.3781 Q1348.54 65.3249 1352.51 63.2184 L1352.51 70.267 Q1348.5 71.9684 1344.29 72.8596 Q1340.08 73.7508 1335.74 73.7508 Q1324.88 73.7508 1318.52 67.4314 Q1312.21 61.1119 1312.21 50.3365 Q1312.21 39.1965 1318.2 32.6746 Q1324.24 26.1121 1334.44 26.1121 Q1343.6 26.1121 1348.91 32.0264 Q1354.25 37.9003 1354.25 48.0275 M1346.8 45.84 Q1346.72 39.7232 1343.36 36.0774 Q1340.03 32.4315 1334.53 32.4315 Q1328.29 32.4315 1324.52 35.9558 Q1320.79 39.4801 1320.23 45.8805 L1346.8 45.84 Z" fill="#000000" fill-rule="nonzero" fill-opacity="1" /><path clip-path="url(#clip860)" d="M1392.78 34.1734 Q1391.52 33.4443 1390.02 33.1202 Q1388.56 32.7556 1386.78 32.7556 Q1380.46 32.7556 1377.06 36.8875 Q1373.7 40.9789 1373.7 48.6757 L1373.7 72.576 L1366.2 72.576 L1366.2 27.2059 L1373.7 27.2059 L1373.7 34.2544 Q1376.05 30.1225 1379.81 28.1376 Q1383.58 26.1121 1388.97 26.1121 Q1389.74 26.1121 1390.67 26.2337 Q1391.6 26.3147 1392.74 26.5172 L1392.78 34.1734 Z" fill="#000000" fill-rule="nonzero" fill-opacity="1" /><path clip-path="url(#clip860)" d="M1428.99 49.3643 Q1428.99 41.2625 1425.63 36.8065 Q1422.31 32.3505 1416.27 32.3505 Q1410.28 32.3505 1406.92 36.8065 Q1403.59 41.2625 1403.59 49.3643 Q1403.59 57.4256 1406.92 61.8816 Q1410.28 66.3376 1416.27 66.3376 Q1422.31 66.3376 1425.63 61.8816 Q1428.99 57.4256 1428.99 49.3643 M1436.45 66.9452 Q1436.45 78.5308 1431.3 84.1616 Q1426.16 89.8329 1415.54 89.8329 Q1411.61 89.8329 1408.13 89.2252 Q1404.65 88.6581 1401.37 87.4428 L1401.37 80.1917 Q1404.65 81.9741 1407.85 82.8248 Q1411.05 83.6755 1414.37 83.6755 Q1421.7 83.6755 1425.35 79.8271 Q1428.99 76.0193 1428.99 68.282 L1428.99 64.5957 Q1426.68 68.6061 1423.08 70.5911 Q1419.47 72.576 1414.45 72.576 Q1406.11 72.576 1401 66.2161 Q1395.9 59.8562 1395.9 49.3643 Q1395.9 38.832 1401 32.472 Q1406.11 26.1121 1414.45 26.1121 Q1419.47 26.1121 1423.08 28.0971 Q1426.68 30.082 1428.99 34.0924 L1428.99 27.2059 L1436.45 27.2059 L1436.45 66.9452 Z" fill="#000000" fill-rule="nonzero" fill-opacity="1" /><path clip-path="url(#clip860)" d="M1470.68 76.7889 Q1467.52 84.8907 1464.52 87.3618 Q1461.52 89.8329 1456.5 89.8329 L1450.54 89.8329 L1450.54 83.5945 L1454.92 83.5945 Q1458 83.5945 1459.7 82.1361 Q1461.4 80.6778 1463.47 75.2496 L1464.8 71.8468 L1446.45 27.2059 L1454.35 27.2059 L1468.53 62.6918 L1482.71 27.2059 L1490.61 27.2059 L1470.68 76.7889 Z" fill="#000000" fill-rule="nonzero" fill-opacity="1" /><path clip-path="url(#clip860)" d="M1559.92 28.9478 L1559.92 35.9153 Q1556.76 34.1734 1553.56 33.3227 Q1550.4 32.4315 1547.16 32.4315 Q1539.91 32.4315 1535.9 37.0496 Q1531.89 41.6271 1531.89 49.9314 Q1531.89 58.2358 1535.9 62.8538 Q1539.91 67.4314 1547.16 67.4314 Q1550.4 67.4314 1553.56 66.5807 Q1556.76 65.6895 1559.92 63.9476 L1559.92 70.8341 Q1556.8 72.2924 1553.44 73.0216 Q1550.11 73.7508 1546.35 73.7508 Q1536.1 73.7508 1530.06 67.3098 Q1524.03 60.8689 1524.03 49.9314 Q1524.03 38.832 1530.1 32.472 Q1536.22 26.1121 1546.83 26.1121 Q1550.28 26.1121 1553.56 26.8413 Q1556.84 27.5299 1559.92 28.9478 Z" fill="#000000" fill-rule="nonzero" fill-opacity="1" /><path clip-path="url(#clip860)" d="M1593.5 49.7694 Q1584.47 49.7694 1580.98 51.8354 Q1577.5 53.9013 1577.5 58.8839 Q1577.5 62.8538 1580.09 65.2034 Q1582.72 67.5124 1587.22 67.5124 Q1593.42 67.5124 1597.15 63.1374 Q1600.91 58.7219 1600.91 51.4303 L1600.91 49.7694 L1593.5 49.7694 M1608.37 46.6907 L1608.37 72.576 L1600.91 72.576 L1600.91 65.6895 Q1598.36 69.8214 1594.55 71.8063 Q1590.75 73.7508 1585.24 73.7508 Q1578.27 73.7508 1574.14 69.8619 Q1570.05 65.9325 1570.05 59.3701 Q1570.05 51.7138 1575.15 47.825 Q1580.29 43.9361 1590.46 43.9361 L1600.91 43.9361 L1600.91 43.2069 Q1600.91 38.0623 1597.51 35.2672 Q1594.15 32.4315 1588.03 32.4315 Q1584.14 32.4315 1580.46 33.3632 Q1576.77 34.295 1573.37 36.1584 L1573.37 29.2718 Q1577.46 27.692 1581.31 26.9223 Q1585.15 26.1121 1588.8 26.1121 Q1598.64 26.1121 1603.51 31.2163 Q1608.37 36.3204 1608.37 46.6907 Z" fill="#000000" fill-rule="nonzero" fill-opacity="1" /><path clip-path="url(#clip860)" d="M1623.72 9.54393 L1631.17 9.54393 L1631.17 72.576 L1623.72 72.576 L1623.72 9.54393 Z" fill="#000000" fill-rule="nonzero" fill-opacity="1" /><path clip-path="url(#clip860)" d="M1679.42 28.9478 L1679.42 35.9153 Q1676.26 34.1734 1673.06 33.3227 Q1669.9 32.4315 1666.66 32.4315 Q1659.41 32.4315 1655.4 37.0496 Q1651.39 41.6271 1651.39 49.9314 Q1651.39 58.2358 1655.4 62.8538 Q1659.41 67.4314 1666.66 67.4314 Q1669.9 67.4314 1673.06 66.5807 Q1676.26 65.6895 1679.42 63.9476 L1679.42 70.8341 Q1676.3 72.2924 1672.94 73.0216 Q1669.62 73.7508 1665.85 73.7508 Q1655.6 73.7508 1649.56 67.3098 Q1643.53 60.8689 1643.53 49.9314 Q1643.53 38.832 1649.6 32.472 Q1655.72 26.1121 1666.34 26.1121 Q1669.78 26.1121 1673.06 26.8413 Q1676.34 27.5299 1679.42 28.9478 Z" fill="#000000" fill-rule="nonzero" fill-opacity="1" /><path clip-path="url(#clip860)" d="M1691.61 54.671 L1691.61 27.2059 L1699.07 27.2059 L1699.07 54.3874 Q1699.07 60.8284 1701.58 64.0691 Q1704.09 67.2693 1709.11 67.2693 Q1715.15 67.2693 1718.63 63.421 Q1722.16 59.5726 1722.16 52.9291 L1722.16 27.2059 L1729.61 27.2059 L1729.61 72.576 L1722.16 72.576 L1722.16 65.6084 Q1719.44 69.7404 1715.84 71.7658 Q1712.27 73.7508 1707.53 73.7508 Q1699.71 73.7508 1695.66 68.8897 Q1691.61 64.0286 1691.61 54.671 M1710.37 26.1121 L1710.37 26.1121 Z" fill="#000000" fill-rule="nonzero" fill-opacity="1" /><path clip-path="url(#clip860)" d="M1744.96 9.54393 L1752.42 9.54393 L1752.42 72.576 L1744.96 72.576 L1744.96 9.54393 Z" fill="#000000" fill-rule="nonzero" fill-opacity="1" /><path clip-path="url(#clip860)" d="M1788.63 49.7694 Q1779.6 49.7694 1776.11 51.8354 Q1772.63 53.9013 1772.63 58.8839 Q1772.63 62.8538 1775.22 65.2034 Q1777.86 67.5124 1782.35 67.5124 Q1788.55 67.5124 1792.28 63.1374 Q1796.05 58.7219 1796.05 51.4303 L1796.05 49.7694 L1788.63 49.7694 M1803.5 46.6907 L1803.5 72.576 L1796.05 72.576 L1796.05 65.6895 Q1793.49 69.8214 1789.69 71.8063 Q1785.88 73.7508 1780.37 73.7508 Q1773.4 73.7508 1769.27 69.8619 Q1765.18 65.9325 1765.18 59.3701 Q1765.18 51.7138 1770.28 47.825 Q1775.43 43.9361 1785.59 43.9361 L1796.05 43.9361 L1796.05 43.2069 Q1796.05 38.0623 1792.64 35.2672 Q1789.28 32.4315 1783.16 32.4315 Q1779.27 32.4315 1775.59 33.3632 Q1771.9 34.295 1768.5 36.1584 L1768.5 29.2718 Q1772.59 27.692 1776.44 26.9223 Q1780.29 26.1121 1783.93 26.1121 Q1793.78 26.1121 1798.64 31.2163 Q1803.5 36.3204 1803.5 46.6907 Z" fill="#000000" fill-rule="nonzero" fill-opacity="1" /><path clip-path="url(#clip860)" d="M1826.22 14.324 L1826.22 27.2059 L1841.58 27.2059 L1841.58 32.9987 L1826.22 32.9987 L1826.22 57.6282 Q1826.22 63.1779 1827.72 64.7578 Q1829.26 66.3376 1833.92 66.3376 L1841.58 66.3376 L1841.58 72.576 L1833.92 72.576 Q1825.29 72.576 1822.01 69.3758 Q1818.73 66.1351 1818.73 57.6282 L1818.73 32.9987 L1813.26 32.9987 L1813.26 27.2059 L1818.73 27.2059 L1818.73 14.324 L1826.22 14.324 Z" fill="#000000" fill-rule="nonzero" fill-opacity="1" /><path clip-path="url(#clip860)" d="M1851.38 27.2059 L1858.83 27.2059 L1858.83 72.576 L1851.38 72.576 L1851.38 27.2059 M1851.38 9.54393 L1858.83 9.54393 L1858.83 18.9825 L1851.38 18.9825 L1851.38 9.54393 Z" fill="#000000" fill-rule="nonzero" fill-opacity="1" /><path clip-path="url(#clip860)" d="M1892.01 32.4315 Q1886.02 32.4315 1882.53 37.1306 Q1879.05 41.7891 1879.05 49.9314 Q1879.05 58.0738 1882.49 62.7728 Q1885.98 67.4314 1892.01 67.4314 Q1897.97 67.4314 1901.45 62.7323 Q1904.93 58.0333 1904.93 49.9314 Q1904.93 41.8701 1901.45 37.1711 Q1897.97 32.4315 1892.01 32.4315 M1892.01 26.1121 Q1901.73 26.1121 1907.28 32.4315 Q1912.83 38.7509 1912.83 49.9314 Q1912.83 61.0714 1907.28 67.4314 Q1901.73 73.7508 1892.01 73.7508 Q1882.25 73.7508 1876.7 67.4314 Q1871.19 61.0714 1871.19 49.9314 Q1871.19 38.7509 1876.7 32.4315 Q1882.25 26.1121 1892.01 26.1121 Z" fill="#000000" fill-rule="nonzero" fill-opacity="1" /><path clip-path="url(#clip860)" d="M1962.9 45.1919 L1962.9 72.576 L1955.45 72.576 L1955.45 45.4349 Q1955.45 38.994 1952.94 35.7938 Q1950.43 32.5936 1945.4 32.5936 Q1939.37 32.5936 1935.88 36.4419 Q1932.4 40.2903 1932.4 46.9338 L1932.4 72.576 L1924.9 72.576 L1924.9 27.2059 L1932.4 27.2059 L1932.4 34.2544 Q1935.07 30.163 1938.68 28.1376 Q1942.32 26.1121 1947.06 26.1121 Q1954.88 26.1121 1958.89 30.9732 Q1962.9 35.7938 1962.9 45.1919 Z" fill="#000000" fill-rule="nonzero" fill-opacity="1" /><polyline clip-path="url(#clip862)" style="stroke:#000000; stroke-linecap:round; stroke-linejoin:round; stroke-width:4; stroke-opacity:1; fill:none" points="264.778,1300.65 490.019,1385.13 715.259,1382.74 940.499,1376.3 1165.74,1373.68 1390.98,1381.83 1616.22,1370.27 1841.46,1363.43 2066.7,1351.27 2291.94,1352.63 "/>
<polyline clip-path="url(#clip862)" style="stroke:#000000; stroke-linecap:round; stroke-linejoin:round; stroke-width:4; stroke-opacity:1; fill:none" points="264.778,1309.77 264.778,1291.54 "/>
<polyline clip-path="url(#clip862)" style="stroke:#000000; stroke-linecap:round; stroke-linejoin:round; stroke-width:4; stroke-opacity:1; fill:none" points="490.019,1386.4 490.019,1383.86 "/>
<polyline clip-path="url(#clip862)" style="stroke:#000000; stroke-linecap:round; stroke-linejoin:round; stroke-width:4; stroke-opacity:1; fill:none" points="715.259,1384.31 715.259,1381.17 "/>
<polyline clip-path="url(#clip862)" style="stroke:#000000; stroke-linecap:round; stroke-linejoin:round; stroke-width:4; stroke-opacity:1; fill:none" points="940.499,1378.13 940.499,1374.46 "/>
<polyline clip-path="url(#clip862)" style="stroke:#000000; stroke-linecap:round; stroke-linejoin:round; stroke-width:4; stroke-opacity:1; fill:none" points="1165.74,1376.32 1165.74,1371.05 "/>
<polyline clip-path="url(#clip862)" style="stroke:#000000; stroke-linecap:round; stroke-linejoin:round; stroke-width:4; stroke-opacity:1; fill:none" points="1390.98,1384.05 1390.98,1379.6 "/>
<polyline clip-path="url(#clip862)" style="stroke:#000000; stroke-linecap:round; stroke-linejoin:round; stroke-width:4; stroke-opacity:1; fill:none" points="1616.22,1373.78 1616.22,1366.76 "/>
<polyline clip-path="url(#clip862)" style="stroke:#000000; stroke-linecap:round; stroke-linejoin:round; stroke-width:4; stroke-opacity:1; fill:none" points="1841.46,1367.29 1841.46,1359.58 "/>
<polyline clip-path="url(#clip862)" style="stroke:#000000; stroke-linecap:round; stroke-linejoin:round; stroke-width:4; stroke-opacity:1; fill:none" points="2066.7,1355.68 2066.7,1346.85 "/>
<polyline clip-path="url(#clip862)" style="stroke:#000000; stroke-linecap:round; stroke-linejoin:round; stroke-width:4; stroke-opacity:1; fill:none" points="2291.94,1358 2291.94,1347.26 "/>
<line clip-path="url(#clip862)" x1="280.778" y1="1309.77" x2="248.778" y2="1309.77" style="stroke:#000000; stroke-width:4; stroke-opacity:1"/>
<line clip-path="url(#clip862)" x1="280.778" y1="1291.54" x2="248.778" y2="1291.54" style="stroke:#000000; stroke-width:4; stroke-opacity:1"/>
<line clip-path="url(#clip862)" x1="506.019" y1="1386.4" x2="474.019" y2="1386.4" style="stroke:#000000; stroke-width:4; stroke-opacity:1"/>
<line clip-path="url(#clip862)" x1="506.019" y1="1383.86" x2="474.019" y2="1383.86" style="stroke:#000000; stroke-width:4; stroke-opacity:1"/>
<line clip-path="url(#clip862)" x1="731.259" y1="1384.31" x2="699.259" y2="1384.31" style="stroke:#000000; stroke-width:4; stroke-opacity:1"/>
<line clip-path="url(#clip862)" x1="731.259" y1="1381.17" x2="699.259" y2="1381.17" style="stroke:#000000; stroke-width:4; stroke-opacity:1"/>
<line clip-path="url(#clip862)" x1="956.499" y1="1378.13" x2="924.499" y2="1378.13" style="stroke:#000000; stroke-width:4; stroke-opacity:1"/>
<line clip-path="url(#clip862)" x1="956.499" y1="1374.46" x2="924.499" y2="1374.46" style="stroke:#000000; stroke-width:4; stroke-opacity:1"/>
<line clip-path="url(#clip862)" x1="1181.74" y1="1376.32" x2="1149.74" y2="1376.32" style="stroke:#000000; stroke-width:4; stroke-opacity:1"/>
<line clip-path="url(#clip862)" x1="1181.74" y1="1371.05" x2="1149.74" y2="1371.05" style="stroke:#000000; stroke-width:4; stroke-opacity:1"/>
<line clip-path="url(#clip862)" x1="1406.98" y1="1384.05" x2="1374.98" y2="1384.05" style="stroke:#000000; stroke-width:4; stroke-opacity:1"/>
<line clip-path="url(#clip862)" x1="1406.98" y1="1379.6" x2="1374.98" y2="1379.6" style="stroke:#000000; stroke-width:4; stroke-opacity:1"/>
<line clip-path="url(#clip862)" x1="1632.22" y1="1373.78" x2="1600.22" y2="1373.78" style="stroke:#000000; stroke-width:4; stroke-opacity:1"/>
<line clip-path="url(#clip862)" x1="1632.22" y1="1366.76" x2="1600.22" y2="1366.76" style="stroke:#000000; stroke-width:4; stroke-opacity:1"/>
<line clip-path="url(#clip862)" x1="1857.46" y1="1367.29" x2="1825.46" y2="1367.29" style="stroke:#000000; stroke-width:4; stroke-opacity:1"/>
<line clip-path="url(#clip862)" x1="1857.46" y1="1359.58" x2="1825.46" y2="1359.58" style="stroke:#000000; stroke-width:4; stroke-opacity:1"/>
<line clip-path="url(#clip862)" x1="2082.7" y1="1355.68" x2="2050.7" y2="1355.68" style="stroke:#000000; stroke-width:4; stroke-opacity:1"/>
<line clip-path="url(#clip862)" x1="2082.7" y1="1346.85" x2="2050.7" y2="1346.85" style="stroke:#000000; stroke-width:4; stroke-opacity:1"/>
<line clip-path="url(#clip862)" x1="2307.94" y1="1358" x2="2275.94" y2="1358" style="stroke:#000000; stroke-width:4; stroke-opacity:1"/>
<line clip-path="url(#clip862)" x1="2307.94" y1="1347.26" x2="2275.94" y2="1347.26" style="stroke:#000000; stroke-width:4; stroke-opacity:1"/>
<polyline clip-path="url(#clip862)" style="stroke:#008000; stroke-linecap:round; stroke-linejoin:round; stroke-width:4; stroke-opacity:1; fill:none" points="264.778,1298.58 490.019,1361.17 715.259,1361.42 940.499,1360.24 1165.74,1328.87 1390.98,1344.02 1616.22,1326.01 1841.46,1289.85 2066.7,1307.52 2291.94,1264.21 "/>
<polyline clip-path="url(#clip862)" style="stroke:#008000; stroke-linecap:round; stroke-linejoin:round; stroke-width:4; stroke-opacity:1; fill:none" points="264.778,1307.95 264.778,1289.2 "/>
<polyline clip-path="url(#clip862)" style="stroke:#008000; stroke-linecap:round; stroke-linejoin:round; stroke-width:4; stroke-opacity:1; fill:none" points="490.019,1364.19 490.019,1358.16 "/>
<polyline clip-path="url(#clip862)" style="stroke:#008000; stroke-linecap:round; stroke-linejoin:round; stroke-width:4; stroke-opacity:1; fill:none" points="715.259,1364.69 715.259,1358.15 "/>
<polyline clip-path="url(#clip862)" style="stroke:#008000; stroke-linecap:round; stroke-linejoin:round; stroke-width:4; stroke-opacity:1; fill:none" points="940.499,1363.62 940.499,1356.85 "/>
<polyline clip-path="url(#clip862)" style="stroke:#008000; stroke-linecap:round; stroke-linejoin:round; stroke-width:4; stroke-opacity:1; fill:none" points="1165.74,1334.42 1165.74,1323.32 "/>
<polyline clip-path="url(#clip862)" style="stroke:#008000; stroke-linecap:round; stroke-linejoin:round; stroke-width:4; stroke-opacity:1; fill:none" points="1390.98,1350.24 1390.98,1337.79 "/>
<polyline clip-path="url(#clip862)" style="stroke:#008000; stroke-linecap:round; stroke-linejoin:round; stroke-width:4; stroke-opacity:1; fill:none" points="1616.22,1331.87 1616.22,1320.14 "/>
<polyline clip-path="url(#clip862)" style="stroke:#008000; stroke-linecap:round; stroke-linejoin:round; stroke-width:4; stroke-opacity:1; fill:none" points="1841.46,1300.51 1841.46,1279.19 "/>
<polyline clip-path="url(#clip862)" style="stroke:#008000; stroke-linecap:round; stroke-linejoin:round; stroke-width:4; stroke-opacity:1; fill:none" points="2066.7,1316.62 2066.7,1298.42 "/>
<polyline clip-path="url(#clip862)" style="stroke:#008000; stroke-linecap:round; stroke-linejoin:round; stroke-width:4; stroke-opacity:1; fill:none" points="2291.94,1279.56 2291.94,1248.87 "/>
<line clip-path="url(#clip862)" x1="280.778" y1="1307.95" x2="248.778" y2="1307.95" style="stroke:#008000; stroke-width:4; stroke-opacity:1"/>
<line clip-path="url(#clip862)" x1="280.778" y1="1289.2" x2="248.778" y2="1289.2" style="stroke:#008000; stroke-width:4; stroke-opacity:1"/>
<line clip-path="url(#clip862)" x1="506.019" y1="1364.19" x2="474.019" y2="1364.19" style="stroke:#008000; stroke-width:4; stroke-opacity:1"/>
<line clip-path="url(#clip862)" x1="506.019" y1="1358.16" x2="474.019" y2="1358.16" style="stroke:#008000; stroke-width:4; stroke-opacity:1"/>
<line clip-path="url(#clip862)" x1="731.259" y1="1364.69" x2="699.259" y2="1364.69" style="stroke:#008000; stroke-width:4; stroke-opacity:1"/>
<line clip-path="url(#clip862)" x1="731.259" y1="1358.15" x2="699.259" y2="1358.15" style="stroke:#008000; stroke-width:4; stroke-opacity:1"/>
<line clip-path="url(#clip862)" x1="956.499" y1="1363.62" x2="924.499" y2="1363.62" style="stroke:#008000; stroke-width:4; stroke-opacity:1"/>
<line clip-path="url(#clip862)" x1="956.499" y1="1356.85" x2="924.499" y2="1356.85" style="stroke:#008000; stroke-width:4; stroke-opacity:1"/>
<line clip-path="url(#clip862)" x1="1181.74" y1="1334.42" x2="1149.74" y2="1334.42" style="stroke:#008000; stroke-width:4; stroke-opacity:1"/>
<line clip-path="url(#clip862)" x1="1181.74" y1="1323.32" x2="1149.74" y2="1323.32" style="stroke:#008000; stroke-width:4; stroke-opacity:1"/>
<line clip-path="url(#clip862)" x1="1406.98" y1="1350.24" x2="1374.98" y2="1350.24" style="stroke:#008000; stroke-width:4; stroke-opacity:1"/>
<line clip-path="url(#clip862)" x1="1406.98" y1="1337.79" x2="1374.98" y2="1337.79" style="stroke:#008000; stroke-width:4; stroke-opacity:1"/>
<line clip-path="url(#clip862)" x1="1632.22" y1="1331.87" x2="1600.22" y2="1331.87" style="stroke:#008000; stroke-width:4; stroke-opacity:1"/>
<line clip-path="url(#clip862)" x1="1632.22" y1="1320.14" x2="1600.22" y2="1320.14" style="stroke:#008000; stroke-width:4; stroke-opacity:1"/>
<line clip-path="url(#clip862)" x1="1857.46" y1="1300.51" x2="1825.46" y2="1300.51" style="stroke:#008000; stroke-width:4; stroke-opacity:1"/>
<line clip-path="url(#clip862)" x1="1857.46" y1="1279.19" x2="1825.46" y2="1279.19" style="stroke:#008000; stroke-width:4; stroke-opacity:1"/>
<line clip-path="url(#clip862)" x1="2082.7" y1="1316.62" x2="2050.7" y2="1316.62" style="stroke:#008000; stroke-width:4; stroke-opacity:1"/>
<line clip-path="url(#clip862)" x1="2082.7" y1="1298.42" x2="2050.7" y2="1298.42" style="stroke:#008000; stroke-width:4; stroke-opacity:1"/>
<line clip-path="url(#clip862)" x1="2307.94" y1="1279.56" x2="2275.94" y2="1279.56" style="stroke:#008000; stroke-width:4; stroke-opacity:1"/>
<line clip-path="url(#clip862)" x1="2307.94" y1="1248.87" x2="2275.94" y2="1248.87" style="stroke:#008000; stroke-width:4; stroke-opacity:1"/>
<polyline clip-path="url(#clip862)" style="stroke:#0000ff; stroke-linecap:round; stroke-linejoin:round; stroke-width:4; stroke-opacity:1; fill:none" points="264.778,1295.56 490.019,1355.22 715.259,1341.32 940.499,1347.42 1165.74,1292.65 1390.98,1303.29 1616.22,1284.31 1841.46,1274.95 2066.7,1248.87 2291.94,1219.44 "/>
<polyline clip-path="url(#clip862)" style="stroke:#0000ff; stroke-linecap:round; stroke-linejoin:round; stroke-width:4; stroke-opacity:1; fill:none" points="264.778,1304.76 264.778,1286.35 "/>
<polyline clip-path="url(#clip862)" style="stroke:#0000ff; stroke-linecap:round; stroke-linejoin:round; stroke-width:4; stroke-opacity:1; fill:none" points="490.019,1359.48 490.019,1350.97 "/>
<polyline clip-path="url(#clip862)" style="stroke:#0000ff; stroke-linecap:round; stroke-linejoin:round; stroke-width:4; stroke-opacity:1; fill:none" points="715.259,1346.51 715.259,1336.12 "/>
<polyline clip-path="url(#clip862)" style="stroke:#0000ff; stroke-linecap:round; stroke-linejoin:round; stroke-width:4; stroke-opacity:1; fill:none" points="940.499,1352.38 940.499,1342.46 "/>
<polyline clip-path="url(#clip862)" style="stroke:#0000ff; stroke-linecap:round; stroke-linejoin:round; stroke-width:4; stroke-opacity:1; fill:none" points="1165.74,1303.29 1165.74,1282.01 "/>
<polyline clip-path="url(#clip862)" style="stroke:#0000ff; stroke-linecap:round; stroke-linejoin:round; stroke-width:4; stroke-opacity:1; fill:none" points="1390.98,1315.09 1390.98,1291.49 "/>
<polyline clip-path="url(#clip862)" style="stroke:#0000ff; stroke-linecap:round; stroke-linejoin:round; stroke-width:4; stroke-opacity:1; fill:none" points="1616.22,1293.28 1616.22,1275.33 "/>
<polyline clip-path="url(#clip862)" style="stroke:#0000ff; stroke-linecap:round; stroke-linejoin:round; stroke-width:4; stroke-opacity:1; fill:none" points="1841.46,1287.51 1841.46,1262.4 "/>
<polyline clip-path="url(#clip862)" style="stroke:#0000ff; stroke-linecap:round; stroke-linejoin:round; stroke-width:4; stroke-opacity:1; fill:none" points="2066.7,1264.51 2066.7,1233.22 "/>
<polyline clip-path="url(#clip862)" style="stroke:#0000ff; stroke-linecap:round; stroke-linejoin:round; stroke-width:4; stroke-opacity:1; fill:none" points="2291.94,1235.8 2291.94,1203.09 "/>
<line clip-path="url(#clip862)" x1="280.778" y1="1304.76" x2="248.778" y2="1304.76" style="stroke:#0000ff; stroke-width:4; stroke-opacity:1"/>
<line clip-path="url(#clip862)" x1="280.778" y1="1286.35" x2="248.778" y2="1286.35" style="stroke:#0000ff; stroke-width:4; stroke-opacity:1"/>
<line clip-path="url(#clip862)" x1="506.019" y1="1359.48" x2="474.019" y2="1359.48" style="stroke:#0000ff; stroke-width:4; stroke-opacity:1"/>
<line clip-path="url(#clip862)" x1="506.019" y1="1350.97" x2="474.019" y2="1350.97" style="stroke:#0000ff; stroke-width:4; stroke-opacity:1"/>
<line clip-path="url(#clip862)" x1="731.259" y1="1346.51" x2="699.259" y2="1346.51" style="stroke:#0000ff; stroke-width:4; stroke-opacity:1"/>
<line clip-path="url(#clip862)" x1="731.259" y1="1336.12" x2="699.259" y2="1336.12" style="stroke:#0000ff; stroke-width:4; stroke-opacity:1"/>
<line clip-path="url(#clip862)" x1="956.499" y1="1352.38" x2="924.499" y2="1352.38" style="stroke:#0000ff; stroke-width:4; stroke-opacity:1"/>
<line clip-path="url(#clip862)" x1="956.499" y1="1342.46" x2="924.499" y2="1342.46" style="stroke:#0000ff; stroke-width:4; stroke-opacity:1"/>
<line clip-path="url(#clip862)" x1="1181.74" y1="1303.29" x2="1149.74" y2="1303.29" style="stroke:#0000ff; stroke-width:4; stroke-opacity:1"/>
<line clip-path="url(#clip862)" x1="1181.74" y1="1282.01" x2="1149.74" y2="1282.01" style="stroke:#0000ff; stroke-width:4; stroke-opacity:1"/>
<line clip-path="url(#clip862)" x1="1406.98" y1="1315.09" x2="1374.98" y2="1315.09" style="stroke:#0000ff; stroke-width:4; stroke-opacity:1"/>
<line clip-path="url(#clip862)" x1="1406.98" y1="1291.49" x2="1374.98" y2="1291.49" style="stroke:#0000ff; stroke-width:4; stroke-opacity:1"/>
<line clip-path="url(#clip862)" x1="1632.22" y1="1293.28" x2="1600.22" y2="1293.28" style="stroke:#0000ff; stroke-width:4; stroke-opacity:1"/>
<line clip-path="url(#clip862)" x1="1632.22" y1="1275.33" x2="1600.22" y2="1275.33" style="stroke:#0000ff; stroke-width:4; stroke-opacity:1"/>
<line clip-path="url(#clip862)" x1="1857.46" y1="1287.51" x2="1825.46" y2="1287.51" style="stroke:#0000ff; stroke-width:4; stroke-opacity:1"/>
<line clip-path="url(#clip862)" x1="1857.46" y1="1262.4" x2="1825.46" y2="1262.4" style="stroke:#0000ff; stroke-width:4; stroke-opacity:1"/>
<line clip-path="url(#clip862)" x1="2082.7" y1="1264.51" x2="2050.7" y2="1264.51" style="stroke:#0000ff; stroke-width:4; stroke-opacity:1"/>
<line clip-path="url(#clip862)" x1="2082.7" y1="1233.22" x2="2050.7" y2="1233.22" style="stroke:#0000ff; stroke-width:4; stroke-opacity:1"/>
<line clip-path="url(#clip862)" x1="2307.94" y1="1235.8" x2="2275.94" y2="1235.8" style="stroke:#0000ff; stroke-width:4; stroke-opacity:1"/>
<line clip-path="url(#clip862)" x1="2307.94" y1="1203.09" x2="2275.94" y2="1203.09" style="stroke:#0000ff; stroke-width:4; stroke-opacity:1"/>
<polyline clip-path="url(#clip862)" style="stroke:#ff0000; stroke-linecap:round; stroke-linejoin:round; stroke-width:4; stroke-opacity:1; fill:none" points="264.778,1268.73 490.019,211.147 715.259,1267.89 940.499,1271.11 1165.74,1177.47 1390.98,1145.98 1616.22,1205.94 1841.46,1077.88 2066.7,856.281 2291.94,1192.81 "/>
<polyline clip-path="url(#clip862)" style="stroke:#ff0000; stroke-linecap:round; stroke-linejoin:round; stroke-width:4; stroke-opacity:1; fill:none" points="264.778,1277.92 264.778,1259.55 "/>
<polyline clip-path="url(#clip862)" style="stroke:#ff0000; stroke-linecap:round; stroke-linejoin:round; stroke-width:4; stroke-opacity:1; fill:none" points="490.019,262.038 490.019,160.256 "/>
<polyline clip-path="url(#clip862)" style="stroke:#ff0000; stroke-linecap:round; stroke-linejoin:round; stroke-width:4; stroke-opacity:1; fill:none" points="715.259,1278.98 715.259,1256.8 "/>
<polyline clip-path="url(#clip862)" style="stroke:#ff0000; stroke-linecap:round; stroke-linejoin:round; stroke-width:4; stroke-opacity:1; fill:none" points="940.499,1282.48 940.499,1259.75 "/>
<polyline clip-path="url(#clip862)" style="stroke:#ff0000; stroke-linecap:round; stroke-linejoin:round; stroke-width:4; stroke-opacity:1; fill:none" points="1165.74,1195.88 1165.74,1159.05 "/>
<polyline clip-path="url(#clip862)" style="stroke:#ff0000; stroke-linecap:round; stroke-linejoin:round; stroke-width:4; stroke-opacity:1; fill:none" points="1390.98,1165.65 1390.98,1126.3 "/>
<polyline clip-path="url(#clip862)" style="stroke:#ff0000; stroke-linecap:round; stroke-linejoin:round; stroke-width:4; stroke-opacity:1; fill:none" points="1616.22,1223.83 1616.22,1188.05 "/>
<polyline clip-path="url(#clip862)" style="stroke:#ff0000; stroke-linecap:round; stroke-linejoin:round; stroke-width:4; stroke-opacity:1; fill:none" points="1841.46,1115.36 1841.46,1040.4 "/>
<polyline clip-path="url(#clip862)" style="stroke:#ff0000; stroke-linecap:round; stroke-linejoin:round; stroke-width:4; stroke-opacity:1; fill:none" points="2066.7,900.131 2066.7,812.431 "/>
<polyline clip-path="url(#clip862)" style="stroke:#ff0000; stroke-linecap:round; stroke-linejoin:round; stroke-width:4; stroke-opacity:1; fill:none" points="2291.94,1221.01 2291.94,1164.61 "/>
<line clip-path="url(#clip862)" x1="280.778" y1="1277.92" x2="248.778" y2="1277.92" style="stroke:#ff0000; stroke-width:4; stroke-opacity:1"/>
<line clip-path="url(#clip862)" x1="280.778" y1="1259.55" x2="248.778" y2="1259.55" style="stroke:#ff0000; stroke-width:4; stroke-opacity:1"/>
<line clip-path="url(#clip862)" x1="506.019" y1="262.038" x2="474.019" y2="262.038" style="stroke:#ff0000; stroke-width:4; stroke-opacity:1"/>
<line clip-path="url(#clip862)" x1="506.019" y1="160.256" x2="474.019" y2="160.256" style="stroke:#ff0000; stroke-width:4; stroke-opacity:1"/>
<line clip-path="url(#clip862)" x1="731.259" y1="1278.98" x2="699.259" y2="1278.98" style="stroke:#ff0000; stroke-width:4; stroke-opacity:1"/>
<line clip-path="url(#clip862)" x1="731.259" y1="1256.8" x2="699.259" y2="1256.8" style="stroke:#ff0000; stroke-width:4; stroke-opacity:1"/>
<line clip-path="url(#clip862)" x1="956.499" y1="1282.48" x2="924.499" y2="1282.48" style="stroke:#ff0000; stroke-width:4; stroke-opacity:1"/>
<line clip-path="url(#clip862)" x1="956.499" y1="1259.75" x2="924.499" y2="1259.75" style="stroke:#ff0000; stroke-width:4; stroke-opacity:1"/>
<line clip-path="url(#clip862)" x1="1181.74" y1="1195.88" x2="1149.74" y2="1195.88" style="stroke:#ff0000; stroke-width:4; stroke-opacity:1"/>
<line clip-path="url(#clip862)" x1="1181.74" y1="1159.05" x2="1149.74" y2="1159.05" style="stroke:#ff0000; stroke-width:4; stroke-opacity:1"/>
<line clip-path="url(#clip862)" x1="1406.98" y1="1165.65" x2="1374.98" y2="1165.65" style="stroke:#ff0000; stroke-width:4; stroke-opacity:1"/>
<line clip-path="url(#clip862)" x1="1406.98" y1="1126.3" x2="1374.98" y2="1126.3" style="stroke:#ff0000; stroke-width:4; stroke-opacity:1"/>
<line clip-path="url(#clip862)" x1="1632.22" y1="1223.83" x2="1600.22" y2="1223.83" style="stroke:#ff0000; stroke-width:4; stroke-opacity:1"/>
<line clip-path="url(#clip862)" x1="1632.22" y1="1188.05" x2="1600.22" y2="1188.05" style="stroke:#ff0000; stroke-width:4; stroke-opacity:1"/>
<line clip-path="url(#clip862)" x1="1857.46" y1="1115.36" x2="1825.46" y2="1115.36" style="stroke:#ff0000; stroke-width:4; stroke-opacity:1"/>
<line clip-path="url(#clip862)" x1="1857.46" y1="1040.4" x2="1825.46" y2="1040.4" style="stroke:#ff0000; stroke-width:4; stroke-opacity:1"/>
<line clip-path="url(#clip862)" x1="2082.7" y1="900.131" x2="2050.7" y2="900.131" style="stroke:#ff0000; stroke-width:4; stroke-opacity:1"/>
<line clip-path="url(#clip862)" x1="2082.7" y1="812.431" x2="2050.7" y2="812.431" style="stroke:#ff0000; stroke-width:4; stroke-opacity:1"/>
<line clip-path="url(#clip862)" x1="2307.94" y1="1221.01" x2="2275.94" y2="1221.01" style="stroke:#ff0000; stroke-width:4; stroke-opacity:1"/>
<line clip-path="url(#clip862)" x1="2307.94" y1="1164.61" x2="2275.94" y2="1164.61" style="stroke:#ff0000; stroke-width:4; stroke-opacity:1"/>
<path clip-path="url(#clip860)" d="M1928.5 425.996 L2281.13 425.996 L2281.13 166.796 L1928.5 166.796  Z" fill="#ffffff" fill-rule="evenodd" fill-opacity="1"/>
<polyline clip-path="url(#clip860)" style="stroke:#000000; stroke-linecap:round; stroke-linejoin:round; stroke-width:4; stroke-opacity:1; fill:none" points="1928.5,425.996 2281.13,425.996 2281.13,166.796 1928.5,166.796 1928.5,425.996 "/>
<polyline clip-path="url(#clip860)" style="stroke:#000000; stroke-linecap:round; stroke-linejoin:round; stroke-width:4; stroke-opacity:1; fill:none" points="1952.37,218.636 2095.62,218.636 "/>
<path clip-path="url(#clip860)" d="M2119.5 201.356 L2124.18 201.356 L2124.18 235.916 L2119.5 235.916 L2119.5 201.356 Z" fill="#000000" fill-rule="nonzero" fill-opacity="1" /><path clip-path="url(#clip860)" d="M2150.36 213.925 L2150.36 199.897 L2154.62 199.897 L2154.62 235.916 L2150.36 235.916 L2150.36 232.027 Q2149.01 234.342 2146.95 235.476 Q2144.92 236.587 2142.05 236.587 Q2137.35 236.587 2134.38 232.837 Q2131.44 229.087 2131.44 222.976 Q2131.44 216.865 2134.38 213.115 Q2137.35 209.365 2142.05 209.365 Q2144.92 209.365 2146.95 210.499 Q2149.01 211.61 2150.36 213.925 M2135.84 222.976 Q2135.84 227.675 2137.76 230.36 Q2139.71 233.022 2143.09 233.022 Q2146.47 233.022 2148.41 230.36 Q2150.36 227.675 2150.36 222.976 Q2150.36 218.277 2148.41 215.615 Q2146.47 212.93 2143.09 212.93 Q2139.71 212.93 2137.76 215.615 Q2135.84 218.277 2135.84 222.976 Z" fill="#000000" fill-rule="nonzero" fill-opacity="1" /><path clip-path="url(#clip860)" d="M2185.56 221.888 L2185.56 223.971 L2165.98 223.971 Q2166.26 228.369 2168.62 230.684 Q2171 232.976 2175.24 232.976 Q2177.69 232.976 2179.99 232.374 Q2182.3 231.772 2184.57 230.569 L2184.57 234.596 Q2182.28 235.568 2179.87 236.078 Q2177.46 236.587 2174.99 236.587 Q2168.78 236.587 2165.15 232.976 Q2161.54 229.365 2161.54 223.207 Q2161.54 216.842 2164.96 213.115 Q2168.41 209.365 2174.25 209.365 Q2179.48 209.365 2182.51 212.745 Q2185.56 216.101 2185.56 221.888 M2181.31 220.638 Q2181.26 217.143 2179.34 215.059 Q2177.44 212.976 2174.29 212.976 Q2170.73 212.976 2168.57 214.99 Q2166.44 217.004 2166.12 220.661 L2181.31 220.638 Z" fill="#000000" fill-rule="nonzero" fill-opacity="1" /><path clip-path="url(#clip860)" d="M2204.34 222.883 Q2199.18 222.883 2197.18 224.064 Q2195.19 225.244 2195.19 228.092 Q2195.19 230.36 2196.68 231.703 Q2198.18 233.022 2200.75 233.022 Q2204.29 233.022 2206.42 230.522 Q2208.57 227.999 2208.57 223.832 L2208.57 222.883 L2204.34 222.883 M2212.83 221.124 L2212.83 235.916 L2208.57 235.916 L2208.57 231.981 Q2207.12 234.342 2204.94 235.476 Q2202.76 236.587 2199.62 236.587 Q2195.63 236.587 2193.27 234.365 Q2190.93 232.119 2190.93 228.369 Q2190.93 223.994 2193.85 221.772 Q2196.79 219.55 2202.6 219.55 L2208.57 219.55 L2208.57 219.133 Q2208.57 216.194 2206.63 214.596 Q2204.71 212.976 2201.21 212.976 Q2198.99 212.976 2196.88 213.508 Q2194.78 214.041 2192.83 215.106 L2192.83 211.17 Q2195.17 210.268 2197.37 209.828 Q2199.57 209.365 2201.65 209.365 Q2207.28 209.365 2210.06 212.282 Q2212.83 215.198 2212.83 221.124 Z" fill="#000000" fill-rule="nonzero" fill-opacity="1" /><path clip-path="url(#clip860)" d="M2221.61 199.897 L2225.87 199.897 L2225.87 235.916 L2221.61 235.916 L2221.61 199.897 Z" fill="#000000" fill-rule="nonzero" fill-opacity="1" /><polyline clip-path="url(#clip860)" style="stroke:#008000; stroke-linecap:round; stroke-linejoin:round; stroke-width:4; stroke-opacity:1; fill:none" points="1952.37,270.476 2095.62,270.476 "/>
<path clip-path="url(#clip860)" d="M2135.13 269.122 Q2138.48 269.839 2140.36 272.108 Q2142.25 274.376 2142.25 277.709 Q2142.25 282.825 2138.74 285.626 Q2135.22 288.427 2128.74 288.427 Q2126.56 288.427 2124.25 287.987 Q2121.95 287.571 2119.5 286.714 L2119.5 282.2 Q2121.44 283.334 2123.76 283.913 Q2126.07 284.492 2128.6 284.492 Q2133 284.492 2135.29 282.756 Q2137.6 281.02 2137.6 277.709 Q2137.6 274.654 2135.45 272.941 Q2133.32 271.205 2129.5 271.205 L2125.47 271.205 L2125.47 267.362 L2129.69 267.362 Q2133.13 267.362 2134.96 265.997 Q2136.79 264.608 2136.79 262.015 Q2136.79 259.353 2134.89 257.941 Q2133.02 256.506 2129.5 256.506 Q2127.58 256.506 2125.38 256.923 Q2123.18 257.339 2120.54 258.219 L2120.54 254.052 Q2123.2 253.311 2125.52 252.941 Q2127.86 252.571 2129.92 252.571 Q2135.24 252.571 2138.34 255.001 Q2141.44 257.409 2141.44 261.529 Q2141.44 264.399 2139.8 266.39 Q2138.16 268.358 2135.13 269.122 Z" fill="#000000" fill-rule="nonzero" fill-opacity="1" /><path clip-path="url(#clip860)" d="M2161.12 256.274 Q2157.51 256.274 2155.68 259.839 Q2153.87 263.381 2153.87 270.51 Q2153.87 277.617 2155.68 281.182 Q2157.51 284.723 2161.12 284.723 Q2164.75 284.723 2166.56 281.182 Q2168.39 277.617 2168.39 270.51 Q2168.39 263.381 2166.56 259.839 Q2164.75 256.274 2161.12 256.274 M2161.12 252.571 Q2166.93 252.571 2169.99 257.177 Q2173.06 261.76 2173.06 270.51 Q2173.06 279.237 2169.99 283.844 Q2166.93 288.427 2161.12 288.427 Q2155.31 288.427 2152.23 283.844 Q2149.18 279.237 2149.18 270.51 Q2149.18 261.76 2152.23 257.177 Q2155.31 252.571 2161.12 252.571 Z" fill="#000000" fill-rule="nonzero" fill-opacity="1" /><path clip-path="url(#clip860)" d="M2184.8 283.867 L2184.8 297.617 L2180.52 297.617 L2180.52 261.83 L2184.8 261.83 L2184.8 265.765 Q2186.14 263.45 2188.18 262.339 Q2190.24 261.205 2193.09 261.205 Q2197.81 261.205 2200.75 264.955 Q2203.71 268.705 2203.71 274.816 Q2203.71 280.927 2200.75 284.677 Q2197.81 288.427 2193.09 288.427 Q2190.24 288.427 2188.18 287.316 Q2186.14 286.182 2184.8 283.867 M2199.29 274.816 Q2199.29 270.117 2197.35 267.455 Q2195.43 264.77 2192.05 264.77 Q2188.67 264.77 2186.72 267.455 Q2184.8 270.117 2184.8 274.816 Q2184.8 279.515 2186.72 282.2 Q2188.67 284.862 2192.05 284.862 Q2195.43 284.862 2197.35 282.2 Q2199.29 279.515 2199.29 274.816 Z" fill="#000000" fill-rule="nonzero" fill-opacity="1" /><path clip-path="url(#clip860)" d="M2227.3 262.594 L2227.3 266.622 Q2225.49 265.696 2223.55 265.233 Q2221.61 264.77 2219.52 264.77 Q2216.35 264.77 2214.75 265.742 Q2213.18 266.714 2213.18 268.659 Q2213.18 270.14 2214.31 270.997 Q2215.45 271.83 2218.87 272.594 L2220.33 272.918 Q2224.87 273.89 2226.77 275.672 Q2228.69 277.432 2228.69 280.603 Q2228.69 284.214 2225.82 286.321 Q2222.97 288.427 2217.97 288.427 Q2215.89 288.427 2213.62 288.01 Q2211.37 287.617 2208.87 286.807 L2208.87 282.409 Q2211.24 283.635 2213.53 284.26 Q2215.82 284.862 2218.06 284.862 Q2221.07 284.862 2222.69 283.844 Q2224.31 282.802 2224.31 280.927 Q2224.31 279.191 2223.13 278.265 Q2221.98 277.339 2218.02 276.483 L2216.54 276.135 Q2212.58 275.302 2210.82 273.589 Q2209.06 271.853 2209.06 268.844 Q2209.06 265.186 2211.65 263.196 Q2214.24 261.205 2219.01 261.205 Q2221.37 261.205 2223.46 261.552 Q2225.54 261.899 2227.3 262.594 Z" fill="#000000" fill-rule="nonzero" fill-opacity="1" /><polyline clip-path="url(#clip860)" style="stroke:#0000ff; stroke-linecap:round; stroke-linejoin:round; stroke-width:4; stroke-opacity:1; fill:none" points="1952.37,322.316 2095.62,322.316 "/>
<path clip-path="url(#clip860)" d="M2120.96 305.036 L2139.31 305.036 L2139.31 308.971 L2125.24 308.971 L2125.24 317.443 Q2126.26 317.096 2127.28 316.934 Q2128.3 316.749 2129.31 316.749 Q2135.1 316.749 2138.48 319.92 Q2141.86 323.091 2141.86 328.508 Q2141.86 334.086 2138.39 337.188 Q2134.92 340.267 2128.6 340.267 Q2126.42 340.267 2124.15 339.897 Q2121.91 339.526 2119.5 338.786 L2119.5 334.086 Q2121.58 335.221 2123.81 335.776 Q2126.03 336.332 2128.5 336.332 Q2132.51 336.332 2134.85 334.225 Q2137.19 332.119 2137.19 328.508 Q2137.19 324.897 2134.85 322.79 Q2132.51 320.684 2128.5 320.684 Q2126.63 320.684 2124.75 321.1 Q2122.9 321.517 2120.96 322.397 L2120.96 305.036 Z" fill="#000000" fill-rule="nonzero" fill-opacity="1" /><path clip-path="url(#clip860)" d="M2161.07 308.114 Q2157.46 308.114 2155.63 311.679 Q2153.83 315.221 2153.83 322.35 Q2153.83 329.457 2155.63 333.022 Q2157.46 336.563 2161.07 336.563 Q2164.71 336.563 2166.51 333.022 Q2168.34 329.457 2168.34 322.35 Q2168.34 315.221 2166.51 311.679 Q2164.71 308.114 2161.07 308.114 M2161.07 304.411 Q2166.88 304.411 2169.94 309.017 Q2173.02 313.6 2173.02 322.35 Q2173.02 331.077 2169.94 335.684 Q2166.88 340.267 2161.07 340.267 Q2155.26 340.267 2152.19 335.684 Q2149.13 331.077 2149.13 322.35 Q2149.13 313.6 2152.19 309.017 Q2155.26 304.411 2161.07 304.411 Z" fill="#000000" fill-rule="nonzero" fill-opacity="1" /><path clip-path="url(#clip860)" d="M2184.75 335.707 L2184.75 349.457 L2180.47 349.457 L2180.47 313.67 L2184.75 313.67 L2184.75 317.605 Q2186.1 315.29 2188.13 314.179 Q2190.19 313.045 2193.04 313.045 Q2197.76 313.045 2200.7 316.795 Q2203.67 320.545 2203.67 326.656 Q2203.67 332.767 2200.7 336.517 Q2197.76 340.267 2193.04 340.267 Q2190.19 340.267 2188.13 339.156 Q2186.1 338.022 2184.75 335.707 M2199.25 326.656 Q2199.25 321.957 2197.3 319.295 Q2195.38 316.61 2192 316.61 Q2188.62 316.61 2186.68 319.295 Q2184.75 321.957 2184.75 326.656 Q2184.75 331.355 2186.68 334.04 Q2188.62 336.702 2192 336.702 Q2195.38 336.702 2197.3 334.04 Q2199.25 331.355 2199.25 326.656 Z" fill="#000000" fill-rule="nonzero" fill-opacity="1" /><path clip-path="url(#clip860)" d="M2227.25 314.434 L2227.25 318.462 Q2225.45 317.536 2223.5 317.073 Q2221.56 316.61 2219.48 316.61 Q2216.31 316.61 2214.71 317.582 Q2213.13 318.554 2213.13 320.499 Q2213.13 321.98 2214.27 322.837 Q2215.4 323.67 2218.83 324.434 L2220.29 324.758 Q2224.82 325.73 2226.72 327.512 Q2228.64 329.272 2228.64 332.443 Q2228.64 336.054 2225.77 338.161 Q2222.93 340.267 2217.93 340.267 Q2215.84 340.267 2213.57 339.85 Q2211.33 339.457 2208.83 338.647 L2208.83 334.249 Q2211.19 335.475 2213.48 336.1 Q2215.77 336.702 2218.02 336.702 Q2221.03 336.702 2222.65 335.684 Q2224.27 334.642 2224.27 332.767 Q2224.27 331.031 2223.09 330.105 Q2221.93 329.179 2217.97 328.323 L2216.49 327.975 Q2212.53 327.142 2210.77 325.429 Q2209.01 323.693 2209.01 320.684 Q2209.01 317.026 2211.61 315.036 Q2214.2 313.045 2218.97 313.045 Q2221.33 313.045 2223.41 313.392 Q2225.49 313.739 2227.25 314.434 Z" fill="#000000" fill-rule="nonzero" fill-opacity="1" /><polyline clip-path="url(#clip860)" style="stroke:#ff0000; stroke-linecap:round; stroke-linejoin:round; stroke-width:4; stroke-opacity:1; fill:none" points="1952.37,374.156 2095.62,374.156 "/>
<path clip-path="url(#clip860)" d="M2120.17 387.501 L2127.81 387.501 L2127.81 361.135 L2119.5 362.802 L2119.5 358.542 L2127.76 356.876 L2132.44 356.876 L2132.44 387.501 L2140.08 387.501 L2140.08 391.436 L2120.17 391.436 L2120.17 387.501 Z" fill="#000000" fill-rule="nonzero" fill-opacity="1" /><path clip-path="url(#clip860)" d="M2159.52 359.954 Q2155.91 359.954 2154.08 363.519 Q2152.28 367.061 2152.28 374.19 Q2152.28 381.297 2154.08 384.862 Q2155.91 388.403 2159.52 388.403 Q2163.16 388.403 2164.96 384.862 Q2166.79 381.297 2166.79 374.19 Q2166.79 367.061 2164.96 363.519 Q2163.16 359.954 2159.52 359.954 M2159.52 356.251 Q2165.33 356.251 2168.39 360.857 Q2171.47 365.44 2171.47 374.19 Q2171.47 382.917 2168.39 387.524 Q2165.33 392.107 2159.52 392.107 Q2153.71 392.107 2150.63 387.524 Q2147.58 382.917 2147.58 374.19 Q2147.58 365.44 2150.63 360.857 Q2153.71 356.251 2159.52 356.251 Z" fill="#000000" fill-rule="nonzero" fill-opacity="1" /><path clip-path="url(#clip860)" d="M2189.68 359.954 Q2186.07 359.954 2184.25 363.519 Q2182.44 367.061 2182.44 374.19 Q2182.44 381.297 2184.25 384.862 Q2186.07 388.403 2189.68 388.403 Q2193.32 388.403 2195.12 384.862 Q2196.95 381.297 2196.95 374.19 Q2196.95 367.061 2195.12 363.519 Q2193.32 359.954 2189.68 359.954 M2189.68 356.251 Q2195.5 356.251 2198.55 360.857 Q2201.63 365.44 2201.63 374.19 Q2201.63 382.917 2198.55 387.524 Q2195.5 392.107 2189.68 392.107 Q2183.87 392.107 2180.8 387.524 Q2177.74 382.917 2177.74 374.19 Q2177.74 365.44 2180.8 360.857 Q2183.87 356.251 2189.68 356.251 Z" fill="#000000" fill-rule="nonzero" fill-opacity="1" /><path clip-path="url(#clip860)" d="M2213.37 387.547 L2213.37 401.297 L2209.08 401.297 L2209.08 365.51 L2213.37 365.51 L2213.37 369.445 Q2214.71 367.13 2216.74 366.019 Q2218.81 364.885 2221.65 364.885 Q2226.37 364.885 2229.31 368.635 Q2232.28 372.385 2232.28 378.496 Q2232.28 384.607 2229.31 388.357 Q2226.37 392.107 2221.65 392.107 Q2218.81 392.107 2216.74 390.996 Q2214.71 389.862 2213.37 387.547 M2227.86 378.496 Q2227.86 373.797 2225.91 371.135 Q2223.99 368.45 2220.61 368.45 Q2217.23 368.45 2215.29 371.135 Q2213.37 373.797 2213.37 378.496 Q2213.37 383.195 2215.29 385.88 Q2217.23 388.542 2220.61 388.542 Q2223.99 388.542 2225.91 385.88 Q2227.86 383.195 2227.86 378.496 Z" fill="#000000" fill-rule="nonzero" fill-opacity="1" /><path clip-path="url(#clip860)" d="M2255.87 366.274 L2255.87 370.302 Q2254.06 369.376 2252.12 368.913 Q2250.17 368.45 2248.09 368.45 Q2244.92 368.45 2243.32 369.422 Q2241.74 370.394 2241.74 372.339 Q2241.74 373.82 2242.88 374.677 Q2244.01 375.51 2247.44 376.274 L2248.9 376.598 Q2253.43 377.57 2255.33 379.352 Q2257.25 381.112 2257.25 384.283 Q2257.25 387.894 2254.38 390.001 Q2251.54 392.107 2246.54 392.107 Q2244.45 392.107 2242.18 391.69 Q2239.94 391.297 2237.44 390.487 L2237.44 386.089 Q2239.8 387.315 2242.09 387.94 Q2244.38 388.542 2246.63 388.542 Q2249.64 388.542 2251.26 387.524 Q2252.88 386.482 2252.88 384.607 Q2252.88 382.871 2251.7 381.945 Q2250.54 381.019 2246.58 380.163 L2245.1 379.815 Q2241.14 378.982 2239.38 377.269 Q2237.62 375.533 2237.62 372.524 Q2237.62 368.866 2240.22 366.876 Q2242.81 364.885 2247.58 364.885 Q2249.94 364.885 2252.02 365.232 Q2254.11 365.579 2255.87 366.274 Z" fill="#000000" fill-rule="nonzero" fill-opacity="1" /></svg>
