<?xml version="1.0" encoding="utf-8"?>
<svg xmlns="http://www.w3.org/2000/svg" xmlns:xlink="http://www.w3.org/1999/xlink" width="600" height="400" viewBox="0 0 2400 1600">
<defs>
  <clipPath id="clip980">
    <rect x="0" y="0" width="2400" height="1600"/>
  </clipPath>
</defs>
<path clip-path="url(#clip980)" d="M0 1600 L2400 1600 L2400 0 L0 0  Z" fill="#ffffff" fill-rule="evenodd" fill-opacity="1"/>
<defs>
  <clipPath id="clip981">
    <rect x="480" y="0" width="1681" height="1600"/>
  </clipPath>
</defs>
<path clip-path="url(#clip980)" d="M202.227 1423.18 L2352.76 1423.18 L2352.76 123.472 L202.227 123.472  Z" fill="#ffffff" fill-rule="evenodd" fill-opacity="1"/>
<defs>
  <clipPath id="clip982">
    <rect x="202" y="123" width="2152" height="1301"/>
  </clipPath>
</defs>
<polyline clip-path="url(#clip982)" style="stroke:#000000; stroke-linecap:round; stroke-linejoin:round; stroke-width:2; stroke-opacity:0.1; fill:none" points="263.091,1423.18 263.091,123.472 "/>
<polyline clip-path="url(#clip982)" style="stroke:#000000; stroke-linecap:round; stroke-linejoin:round; stroke-width:2; stroke-opacity:0.1; fill:none" points="668.852,1423.18 668.852,123.472 "/>
<polyline clip-path="url(#clip982)" style="stroke:#000000; stroke-linecap:round; stroke-linejoin:round; stroke-width:2; stroke-opacity:0.1; fill:none" points="1074.61,1423.18 1074.61,123.472 "/>
<polyline clip-path="url(#clip982)" style="stroke:#000000; stroke-linecap:round; stroke-linejoin:round; stroke-width:2; stroke-opacity:0.1; fill:none" points="1480.37,1423.18 1480.37,123.472 "/>
<polyline clip-path="url(#clip982)" style="stroke:#000000; stroke-linecap:round; stroke-linejoin:round; stroke-width:2; stroke-opacity:0.1; fill:none" points="1886.13,1423.18 1886.13,123.472 "/>
<polyline clip-path="url(#clip982)" style="stroke:#000000; stroke-linecap:round; stroke-linejoin:round; stroke-width:2; stroke-opacity:0.1; fill:none" points="2291.89,1423.18 2291.89,123.472 "/>
<polyline clip-path="url(#clip982)" style="stroke:#000000; stroke-linecap:round; stroke-linejoin:round; stroke-width:2; stroke-opacity:0.1; fill:none" points="202.227,1195.87 2352.76,1195.87 "/>
<polyline clip-path="url(#clip982)" style="stroke:#000000; stroke-linecap:round; stroke-linejoin:round; stroke-width:2; stroke-opacity:0.1; fill:none" points="202.227,962.452 2352.76,962.452 "/>
<polyline clip-path="url(#clip982)" style="stroke:#000000; stroke-linecap:round; stroke-linejoin:round; stroke-width:2; stroke-opacity:0.1; fill:none" points="202.227,729.036 2352.76,729.036 "/>
<polyline clip-path="url(#clip982)" style="stroke:#000000; stroke-linecap:round; stroke-linejoin:round; stroke-width:2; stroke-opacity:0.1; fill:none" points="202.227,495.62 2352.76,495.62 "/>
<polyline clip-path="url(#clip982)" style="stroke:#000000; stroke-linecap:round; stroke-linejoin:round; stroke-width:2; stroke-opacity:0.1; fill:none" points="202.227,262.204 2352.76,262.204 "/>
<polyline clip-path="url(#clip980)" style="stroke:#000000; stroke-linecap:round; stroke-linejoin:round; stroke-width:4; stroke-opacity:1; fill:none" points="202.227,1423.18 2352.76,1423.18 "/>
<polyline clip-path="url(#clip980)" style="stroke:#000000; stroke-linecap:round; stroke-linejoin:round; stroke-width:4; stroke-opacity:1; fill:none" points="263.091,1423.18 263.091,1404.28 "/>
<polyline clip-path="url(#clip980)" style="stroke:#000000; stroke-linecap:round; stroke-linejoin:round; stroke-width:4; stroke-opacity:1; fill:none" points="668.852,1423.18 668.852,1404.28 "/>
<polyline clip-path="url(#clip980)" style="stroke:#000000; stroke-linecap:round; stroke-linejoin:round; stroke-width:4; stroke-opacity:1; fill:none" points="1074.61,1423.18 1074.61,1404.28 "/>
<polyline clip-path="url(#clip980)" style="stroke:#000000; stroke-linecap:round; stroke-linejoin:round; stroke-width:4; stroke-opacity:1; fill:none" points="1480.37,1423.18 1480.37,1404.28 "/>
<polyline clip-path="url(#clip980)" style="stroke:#000000; stroke-linecap:round; stroke-linejoin:round; stroke-width:4; stroke-opacity:1; fill:none" points="1886.13,1423.18 1886.13,1404.28 "/>
<polyline clip-path="url(#clip980)" style="stroke:#000000; stroke-linecap:round; stroke-linejoin:round; stroke-width:4; stroke-opacity:1; fill:none" points="2291.89,1423.18 2291.89,1404.28 "/>
<path clip-path="url(#clip980)" d="M222.698 1481.64 L230.337 1481.64 L230.337 1455.28 L222.027 1456.95 L222.027 1452.69 L230.291 1451.02 L234.967 1451.02 L234.967 1481.64 L242.605 1481.64 L242.605 1485.58 L222.698 1485.58 L222.698 1481.64 Z" fill="#000000" fill-rule="nonzero" fill-opacity="1" /><path clip-path="url(#clip980)" d="M262.05 1454.1 Q258.439 1454.1 256.61 1457.66 Q254.804 1461.2 254.804 1468.33 Q254.804 1475.44 256.61 1479.01 Q258.439 1482.55 262.05 1482.55 Q265.684 1482.55 267.49 1479.01 Q269.318 1475.44 269.318 1468.33 Q269.318 1461.2 267.49 1457.66 Q265.684 1454.1 262.05 1454.1 M262.05 1450.39 Q267.86 1450.39 270.916 1455 Q273.994 1459.58 273.994 1468.33 Q273.994 1477.06 270.916 1481.67 Q267.86 1486.25 262.05 1486.25 Q256.24 1486.25 253.161 1481.67 Q250.105 1477.06 250.105 1468.33 Q250.105 1459.58 253.161 1455 Q256.24 1450.39 262.05 1450.39 Z" fill="#000000" fill-rule="nonzero" fill-opacity="1" /><path clip-path="url(#clip980)" d="M292.212 1454.1 Q288.601 1454.1 286.772 1457.66 Q284.966 1461.2 284.966 1468.33 Q284.966 1475.44 286.772 1479.01 Q288.601 1482.55 292.212 1482.55 Q295.846 1482.55 297.651 1479.01 Q299.48 1475.44 299.48 1468.33 Q299.48 1461.2 297.651 1457.66 Q295.846 1454.1 292.212 1454.1 M292.212 1450.39 Q298.022 1450.39 301.077 1455 Q304.156 1459.58 304.156 1468.33 Q304.156 1477.06 301.077 1481.67 Q298.022 1486.25 292.212 1486.25 Q286.402 1486.25 283.323 1481.67 Q280.267 1477.06 280.267 1468.33 Q280.267 1459.58 283.323 1455 Q286.402 1450.39 292.212 1450.39 Z" fill="#000000" fill-rule="nonzero" fill-opacity="1" /><path clip-path="url(#clip980)" d="M628.458 1481.64 L636.097 1481.64 L636.097 1455.28 L627.787 1456.95 L627.787 1452.69 L636.051 1451.02 L640.727 1451.02 L640.727 1481.64 L648.366 1481.64 L648.366 1485.58 L628.458 1485.58 L628.458 1481.64 Z" fill="#000000" fill-rule="nonzero" fill-opacity="1" /><path clip-path="url(#clip980)" d="M658.62 1481.64 L666.259 1481.64 L666.259 1455.28 L657.949 1456.95 L657.949 1452.69 L666.213 1451.02 L670.889 1451.02 L670.889 1481.64 L678.527 1481.64 L678.527 1485.58 L658.62 1485.58 L658.62 1481.64 Z" fill="#000000" fill-rule="nonzero" fill-opacity="1" /><path clip-path="url(#clip980)" d="M697.972 1454.1 Q694.361 1454.1 692.532 1457.66 Q690.726 1461.2 690.726 1468.33 Q690.726 1475.44 692.532 1479.01 Q694.361 1482.55 697.972 1482.55 Q701.606 1482.55 703.412 1479.01 Q705.24 1475.44 705.24 1468.33 Q705.24 1461.2 703.412 1457.66 Q701.606 1454.1 697.972 1454.1 M697.972 1450.39 Q703.782 1450.39 706.837 1455 Q709.916 1459.58 709.916 1468.33 Q709.916 1477.06 706.837 1481.67 Q703.782 1486.25 697.972 1486.25 Q692.162 1486.25 689.083 1481.67 Q686.027 1477.06 686.027 1468.33 Q686.027 1459.58 689.083 1455 Q692.162 1450.39 697.972 1450.39 Z" fill="#000000" fill-rule="nonzero" fill-opacity="1" /><path clip-path="url(#clip980)" d="M1034.22 1481.64 L1041.86 1481.64 L1041.86 1455.28 L1033.55 1456.95 L1033.55 1452.69 L1041.81 1451.02 L1046.49 1451.02 L1046.49 1481.64 L1054.13 1481.64 L1054.13 1485.58 L1034.22 1485.58 L1034.22 1481.64 Z" fill="#000000" fill-rule="nonzero" fill-opacity="1" /><path clip-path="url(#clip980)" d="M1067.6 1481.64 L1083.92 1481.64 L1083.92 1485.58 L1061.97 1485.58 L1061.97 1481.64 Q1064.63 1478.89 1069.22 1474.26 Q1073.82 1469.61 1075.01 1468.27 Q1077.25 1465.74 1078.13 1464.01 Q1079.03 1462.25 1079.03 1460.56 Q1079.03 1457.8 1077.09 1456.07 Q1075.17 1454.33 1072.07 1454.33 Q1069.87 1454.33 1067.41 1455.09 Q1064.98 1455.86 1062.2 1457.41 L1062.2 1452.69 Q1065.03 1451.55 1067.48 1450.97 Q1069.94 1450.39 1071.97 1450.39 Q1077.34 1450.39 1080.54 1453.08 Q1083.73 1455.77 1083.73 1460.26 Q1083.73 1462.39 1082.92 1464.31 Q1082.13 1466.2 1080.03 1468.8 Q1079.45 1469.47 1076.35 1472.69 Q1073.25 1475.88 1067.6 1481.64 Z" fill="#000000" fill-rule="nonzero" fill-opacity="1" /><path clip-path="url(#clip980)" d="M1103.73 1454.1 Q1100.12 1454.1 1098.29 1457.66 Q1096.49 1461.2 1096.49 1468.33 Q1096.49 1475.44 1098.29 1479.01 Q1100.12 1482.55 1103.73 1482.55 Q1107.37 1482.55 1109.17 1479.01 Q1111 1475.44 1111 1468.33 Q1111 1461.2 1109.17 1457.66 Q1107.37 1454.1 1103.73 1454.1 M1103.73 1450.39 Q1109.54 1450.39 1112.6 1455 Q1115.68 1459.58 1115.68 1468.33 Q1115.68 1477.06 1112.6 1481.67 Q1109.54 1486.25 1103.73 1486.25 Q1097.92 1486.25 1094.84 1481.67 Q1091.79 1477.06 1091.79 1468.33 Q1091.79 1459.58 1094.84 1455 Q1097.92 1450.39 1103.73 1450.39 Z" fill="#000000" fill-rule="nonzero" fill-opacity="1" /><path clip-path="url(#clip980)" d="M1439.98 1481.64 L1447.62 1481.64 L1447.62 1455.28 L1439.31 1456.95 L1439.31 1452.69 L1447.57 1451.02 L1452.25 1451.02 L1452.25 1481.64 L1459.89 1481.64 L1459.89 1485.58 L1439.98 1485.58 L1439.98 1481.64 Z" fill="#000000" fill-rule="nonzero" fill-opacity="1" /><path clip-path="url(#clip980)" d="M1483.5 1466.95 Q1486.85 1467.66 1488.73 1469.93 Q1490.63 1472.2 1490.63 1475.53 Q1490.63 1480.65 1487.11 1483.45 Q1483.59 1486.25 1477.11 1486.25 Q1474.93 1486.25 1472.62 1485.81 Q1470.33 1485.39 1467.87 1484.54 L1467.87 1480.02 Q1469.82 1481.16 1472.13 1481.74 Q1474.45 1482.32 1476.97 1482.32 Q1481.37 1482.32 1483.66 1480.58 Q1485.97 1478.84 1485.97 1475.53 Q1485.97 1472.48 1483.82 1470.77 Q1481.69 1469.03 1477.87 1469.03 L1473.84 1469.03 L1473.84 1465.19 L1478.06 1465.19 Q1481.51 1465.19 1483.33 1463.82 Q1485.16 1462.43 1485.16 1459.84 Q1485.16 1457.18 1483.27 1455.77 Q1481.39 1454.33 1477.87 1454.33 Q1475.95 1454.33 1473.75 1454.75 Q1471.55 1455.16 1468.91 1456.04 L1468.91 1451.88 Q1471.58 1451.14 1473.89 1450.77 Q1476.23 1450.39 1478.29 1450.39 Q1483.61 1450.39 1486.71 1452.83 Q1489.82 1455.23 1489.82 1459.35 Q1489.82 1462.22 1488.17 1464.21 Q1486.53 1466.18 1483.5 1466.95 Z" fill="#000000" fill-rule="nonzero" fill-opacity="1" /><path clip-path="url(#clip980)" d="M1509.49 1454.1 Q1505.88 1454.1 1504.05 1457.66 Q1502.25 1461.2 1502.25 1468.33 Q1502.25 1475.44 1504.05 1479.01 Q1505.88 1482.55 1509.49 1482.55 Q1513.13 1482.55 1514.93 1479.01 Q1516.76 1475.44 1516.76 1468.33 Q1516.76 1461.2 1514.93 1457.66 Q1513.13 1454.1 1509.49 1454.1 M1509.49 1450.39 Q1515.3 1450.39 1518.36 1455 Q1521.44 1459.58 1521.44 1468.33 Q1521.44 1477.06 1518.36 1481.67 Q1515.3 1486.25 1509.49 1486.25 Q1503.68 1486.25 1500.6 1481.67 Q1497.55 1477.06 1497.55 1468.33 Q1497.55 1459.58 1500.6 1455 Q1503.68 1450.39 1509.49 1450.39 Z" fill="#000000" fill-rule="nonzero" fill-opacity="1" /><path clip-path="url(#clip980)" d="M1845.74 1481.64 L1853.38 1481.64 L1853.38 1455.28 L1845.07 1456.95 L1845.07 1452.69 L1853.33 1451.02 L1858.01 1451.02 L1858.01 1481.64 L1865.65 1481.64 L1865.65 1485.58 L1845.74 1485.58 L1845.74 1481.64 Z" fill="#000000" fill-rule="nonzero" fill-opacity="1" /><path clip-path="url(#clip980)" d="M1887.94 1455.09 L1876.13 1473.54 L1887.94 1473.54 L1887.94 1455.09 M1886.71 1451.02 L1892.59 1451.02 L1892.59 1473.54 L1897.52 1473.54 L1897.52 1477.43 L1892.59 1477.43 L1892.59 1485.58 L1887.94 1485.58 L1887.94 1477.43 L1872.34 1477.43 L1872.34 1472.92 L1886.71 1451.02 Z" fill="#000000" fill-rule="nonzero" fill-opacity="1" /><path clip-path="url(#clip980)" d="M1915.25 1454.1 Q1911.64 1454.1 1909.81 1457.66 Q1908.01 1461.2 1908.01 1468.33 Q1908.01 1475.44 1909.81 1479.01 Q1911.64 1482.55 1915.25 1482.55 Q1918.89 1482.55 1920.69 1479.01 Q1922.52 1475.44 1922.52 1468.33 Q1922.52 1461.2 1920.69 1457.66 Q1918.89 1454.1 1915.25 1454.1 M1915.25 1450.39 Q1921.06 1450.39 1924.12 1455 Q1927.2 1459.58 1927.2 1468.33 Q1927.2 1477.06 1924.12 1481.67 Q1921.06 1486.25 1915.25 1486.25 Q1909.44 1486.25 1906.36 1481.67 Q1903.31 1477.06 1903.31 1468.33 Q1903.31 1459.58 1906.36 1455 Q1909.44 1450.39 1915.25 1450.39 Z" fill="#000000" fill-rule="nonzero" fill-opacity="1" /><path clip-path="url(#clip980)" d="M2251.5 1481.64 L2259.14 1481.64 L2259.14 1455.28 L2250.83 1456.95 L2250.83 1452.69 L2259.09 1451.02 L2263.77 1451.02 L2263.77 1481.64 L2271.41 1481.64 L2271.41 1485.58 L2251.5 1485.58 L2251.5 1481.64 Z" fill="#000000" fill-rule="nonzero" fill-opacity="1" /><path clip-path="url(#clip980)" d="M2280.9 1451.02 L2299.25 1451.02 L2299.25 1454.96 L2285.18 1454.96 L2285.18 1463.43 Q2286.2 1463.08 2287.22 1462.92 Q2288.23 1462.73 2289.25 1462.73 Q2295.04 1462.73 2298.42 1465.9 Q2301.8 1469.08 2301.8 1474.49 Q2301.8 1480.07 2298.33 1483.17 Q2294.85 1486.25 2288.54 1486.25 Q2286.36 1486.25 2284.09 1485.88 Q2281.85 1485.51 2279.44 1484.77 L2279.44 1480.07 Q2281.52 1481.2 2283.74 1481.76 Q2285.97 1482.32 2288.44 1482.32 Q2292.45 1482.32 2294.79 1480.21 Q2297.12 1478.1 2297.12 1474.49 Q2297.12 1470.88 2294.79 1468.77 Q2292.45 1466.67 2288.44 1466.67 Q2286.57 1466.67 2284.69 1467.08 Q2282.84 1467.5 2280.9 1468.38 L2280.9 1451.02 Z" fill="#000000" fill-rule="nonzero" fill-opacity="1" /><path clip-path="url(#clip980)" d="M2321.01 1454.1 Q2317.4 1454.1 2315.57 1457.66 Q2313.77 1461.2 2313.77 1468.33 Q2313.77 1475.44 2315.57 1479.01 Q2317.4 1482.55 2321.01 1482.55 Q2324.65 1482.55 2326.45 1479.01 Q2328.28 1475.44 2328.28 1468.33 Q2328.28 1461.2 2326.45 1457.66 Q2324.65 1454.1 2321.01 1454.1 M2321.01 1450.39 Q2326.82 1450.39 2329.88 1455 Q2332.96 1459.58 2332.96 1468.33 Q2332.96 1477.06 2329.88 1481.67 Q2326.82 1486.25 2321.01 1486.25 Q2315.2 1486.25 2312.12 1481.67 Q2309.07 1477.06 2309.07 1468.33 Q2309.07 1459.58 2312.12 1455 Q2315.2 1450.39 2321.01 1450.39 Z" fill="#000000" fill-rule="nonzero" fill-opacity="1" /><path clip-path="url(#clip980)" d="M742.343 1520.52 L772.389 1520.52 L772.389 1525.93 L748.772 1525.93 L748.772 1540 L771.402 1540 L771.402 1545.41 L748.772 1545.41 L748.772 1562.63 L772.962 1562.63 L772.962 1568.04 L742.343 1568.04 L742.343 1520.52 Z" fill="#000000" fill-rule="nonzero" fill-opacity="1" /><path clip-path="url(#clip980)" d="M812.907 1546.53 L812.907 1568.04 L807.05 1568.04 L807.05 1546.72 Q807.05 1541.66 805.077 1539.14 Q803.103 1536.63 799.157 1536.63 Q794.414 1536.63 791.677 1539.65 Q788.94 1542.68 788.94 1547.9 L788.94 1568.04 L783.051 1568.04 L783.051 1532.4 L788.94 1532.4 L788.94 1537.93 Q791.04 1534.72 793.873 1533.13 Q796.738 1531.54 800.462 1531.54 Q806.604 1531.54 809.755 1535.36 Q812.907 1539.14 812.907 1546.53 Z" fill="#000000" fill-rule="nonzero" fill-opacity="1" /><path clip-path="url(#clip980)" d="M855.079 1548.76 L855.079 1551.62 L828.152 1551.62 Q828.534 1557.67 831.781 1560.85 Q835.059 1564 840.884 1564 Q844.258 1564 847.409 1563.17 Q850.591 1562.35 853.711 1560.69 L853.711 1566.23 Q850.56 1567.57 847.249 1568.27 Q843.939 1568.97 840.534 1568.97 Q832.004 1568.97 827.007 1564 Q822.041 1559.04 822.041 1550.57 Q822.041 1541.82 826.752 1536.69 Q831.494 1531.54 839.515 1531.54 Q846.708 1531.54 850.878 1536.18 Q855.079 1540.8 855.079 1548.76 M849.223 1547.04 Q849.159 1542.23 846.517 1539.37 Q843.907 1536.5 839.579 1536.5 Q834.677 1536.5 831.717 1539.27 Q828.789 1542.04 828.343 1547.07 L849.223 1547.04 Z" fill="#000000" fill-rule="nonzero" fill-opacity="1" /><path clip-path="url(#clip980)" d="M885.348 1537.87 Q884.362 1537.3 883.184 1537.04 Q882.038 1536.76 880.638 1536.76 Q875.672 1536.76 872.999 1540 Q870.357 1543.22 870.357 1549.27 L870.357 1568.04 L864.469 1568.04 L864.469 1532.4 L870.357 1532.4 L870.357 1537.93 Q872.203 1534.69 875.163 1533.13 Q878.123 1531.54 882.356 1531.54 Q882.961 1531.54 883.693 1531.63 Q884.425 1531.7 885.316 1531.85 L885.348 1537.87 Z" fill="#000000" fill-rule="nonzero" fill-opacity="1" /><path clip-path="url(#clip980)" d="M913.803 1549.81 Q913.803 1543.44 911.161 1539.94 Q908.551 1536.44 903.809 1536.44 Q899.098 1536.44 896.456 1539.94 Q893.846 1543.44 893.846 1549.81 Q893.846 1556.14 896.456 1559.64 Q899.098 1563.14 903.809 1563.14 Q908.551 1563.14 911.161 1559.64 Q913.803 1556.14 913.803 1549.81 M919.659 1563.62 Q919.659 1572.72 915.617 1577.15 Q911.575 1581.6 903.236 1581.6 Q900.149 1581.6 897.411 1581.13 Q894.674 1580.68 892.096 1579.72 L892.096 1574.03 Q894.674 1575.43 897.188 1576.1 Q899.703 1576.76 902.313 1576.76 Q908.074 1576.76 910.938 1573.74 Q913.803 1570.75 913.803 1564.67 L913.803 1561.77 Q911.989 1564.92 909.156 1566.48 Q906.323 1568.04 902.377 1568.04 Q895.82 1568.04 891.809 1563.05 Q887.799 1558.05 887.799 1549.81 Q887.799 1541.53 891.809 1536.53 Q895.82 1531.54 902.377 1531.54 Q906.323 1531.54 909.156 1533.1 Q911.989 1534.66 913.803 1537.81 L913.803 1532.4 L919.659 1532.4 L919.659 1563.62 Z" fill="#000000" fill-rule="nonzero" fill-opacity="1" /><path clip-path="url(#clip980)" d="M946.555 1571.35 Q944.072 1577.72 941.717 1579.66 Q939.361 1581.6 935.415 1581.6 L930.736 1581.6 L930.736 1576.7 L934.173 1576.7 Q936.592 1576.7 937.929 1575.56 Q939.266 1574.41 940.889 1570.14 L941.939 1567.47 L927.521 1532.4 L933.728 1532.4 L944.868 1560.28 L956.008 1532.4 L962.214 1532.4 L946.555 1571.35 Z" fill="#000000" fill-rule="nonzero" fill-opacity="1" /><path clip-path="url(#clip980)" d="M1004.83 1536.5 Q1000.12 1536.5 997.385 1540.19 Q994.647 1543.85 994.647 1550.25 Q994.647 1556.65 997.353 1560.34 Q1000.09 1564 1004.83 1564 Q1009.51 1564 1012.25 1560.31 Q1014.99 1556.62 1014.99 1550.25 Q1014.99 1543.92 1012.25 1540.23 Q1009.51 1536.5 1004.83 1536.5 M1004.83 1531.54 Q1012.47 1531.54 1016.83 1536.5 Q1021.19 1541.47 1021.19 1550.25 Q1021.19 1559 1016.83 1564 Q1012.47 1568.97 1004.83 1568.97 Q997.162 1568.97 992.801 1564 Q988.473 1559 988.473 1550.25 Q988.473 1541.47 992.801 1536.5 Q997.162 1531.54 1004.83 1531.54 Z" fill="#000000" fill-rule="nonzero" fill-opacity="1" /><path clip-path="url(#clip980)" d="M1048.95 1518.52 L1048.95 1523.39 L1043.35 1523.39 Q1040.19 1523.39 1038.95 1524.66 Q1037.74 1525.93 1037.74 1529.24 L1037.74 1532.4 L1047.39 1532.4 L1047.39 1536.95 L1037.74 1536.95 L1037.74 1568.04 L1031.85 1568.04 L1031.85 1536.95 L1026.25 1536.95 L1026.25 1532.4 L1031.85 1532.4 L1031.85 1529.91 Q1031.85 1523.96 1034.62 1521.26 Q1037.39 1518.52 1043.41 1518.52 L1048.95 1518.52 Z" fill="#000000" fill-rule="nonzero" fill-opacity="1" /><path clip-path="url(#clip980)" d="M1074.57 1532.4 L1080.43 1532.4 L1080.43 1568.04 L1074.57 1568.04 L1074.57 1532.4 M1074.57 1518.52 L1080.43 1518.52 L1080.43 1525.93 L1074.57 1525.93 L1074.57 1518.52 Z" fill="#000000" fill-rule="nonzero" fill-opacity="1" /><path clip-path="url(#clip980)" d="M1122.31 1546.53 L1122.31 1568.04 L1116.46 1568.04 L1116.46 1546.72 Q1116.46 1541.66 1114.48 1539.14 Q1112.51 1536.63 1108.56 1536.63 Q1103.82 1536.63 1101.08 1539.65 Q1098.34 1542.68 1098.34 1547.9 L1098.34 1568.04 L1092.46 1568.04 L1092.46 1532.4 L1098.34 1532.4 L1098.34 1537.93 Q1100.45 1534.72 1103.28 1533.13 Q1106.14 1531.54 1109.87 1531.54 Q1116.01 1531.54 1119.16 1535.36 Q1122.31 1539.14 1122.31 1546.53 Z" fill="#000000" fill-rule="nonzero" fill-opacity="1" /><path clip-path="url(#clip980)" d="M1159.65 1533.76 L1159.65 1539.24 Q1157.16 1537.87 1154.65 1537.2 Q1152.17 1536.5 1149.62 1536.5 Q1143.92 1536.5 1140.77 1540.13 Q1137.62 1543.73 1137.62 1550.25 Q1137.62 1556.78 1140.77 1560.4 Q1143.92 1564 1149.62 1564 Q1152.17 1564 1154.65 1563.33 Q1157.16 1562.63 1159.65 1561.26 L1159.65 1566.68 Q1157.2 1567.82 1154.55 1568.39 Q1151.94 1568.97 1148.98 1568.97 Q1140.93 1568.97 1136.19 1563.91 Q1131.45 1558.85 1131.45 1550.25 Q1131.45 1541.53 1136.22 1536.53 Q1141.03 1531.54 1149.37 1531.54 Q1152.07 1531.54 1154.65 1532.11 Q1157.23 1532.65 1159.65 1533.76 Z" fill="#000000" fill-rule="nonzero" fill-opacity="1" /><path clip-path="url(#clip980)" d="M1169.83 1532.4 L1175.69 1532.4 L1175.69 1568.04 L1169.83 1568.04 L1169.83 1532.4 M1169.83 1518.52 L1175.69 1518.52 L1175.69 1525.93 L1169.83 1525.93 L1169.83 1518.52 Z" fill="#000000" fill-rule="nonzero" fill-opacity="1" /><path clip-path="url(#clip980)" d="M1211.4 1537.81 L1211.4 1518.52 L1217.26 1518.52 L1217.26 1568.04 L1211.4 1568.04 L1211.4 1562.7 Q1209.55 1565.88 1206.72 1567.44 Q1203.92 1568.97 1199.97 1568.97 Q1193.51 1568.97 1189.44 1563.81 Q1185.4 1558.65 1185.4 1550.25 Q1185.4 1541.85 1189.44 1536.69 Q1193.51 1531.54 1199.97 1531.54 Q1203.92 1531.54 1206.72 1533.1 Q1209.55 1534.62 1211.4 1537.81 M1191.44 1550.25 Q1191.44 1556.71 1194.09 1560.4 Q1196.76 1564.07 1201.41 1564.07 Q1206.05 1564.07 1208.73 1560.4 Q1211.4 1556.71 1211.4 1550.25 Q1211.4 1543.79 1208.73 1540.13 Q1206.05 1536.44 1201.41 1536.44 Q1196.76 1536.44 1194.09 1540.13 Q1191.44 1543.79 1191.44 1550.25 Z" fill="#000000" fill-rule="nonzero" fill-opacity="1" /><path clip-path="url(#clip980)" d="M1259.81 1548.76 L1259.81 1551.62 L1232.88 1551.62 Q1233.27 1557.67 1236.51 1560.85 Q1239.79 1564 1245.62 1564 Q1248.99 1564 1252.14 1563.17 Q1255.32 1562.35 1258.44 1560.69 L1258.44 1566.23 Q1255.29 1567.57 1251.98 1568.27 Q1248.67 1568.97 1245.27 1568.97 Q1236.74 1568.97 1231.74 1564 Q1226.77 1559.04 1226.77 1550.57 Q1226.77 1541.82 1231.48 1536.69 Q1236.23 1531.54 1244.25 1531.54 Q1251.44 1531.54 1255.61 1536.18 Q1259.81 1540.8 1259.81 1548.76 M1253.95 1547.04 Q1253.89 1542.23 1251.25 1539.37 Q1248.64 1536.5 1244.31 1536.5 Q1239.41 1536.5 1236.45 1539.27 Q1233.52 1542.04 1233.07 1547.07 L1253.95 1547.04 Z" fill="#000000" fill-rule="nonzero" fill-opacity="1" /><path clip-path="url(#clip980)" d="M1299.06 1546.53 L1299.06 1568.04 L1293.2 1568.04 L1293.2 1546.72 Q1293.2 1541.66 1291.23 1539.14 Q1289.25 1536.63 1285.31 1536.63 Q1280.56 1536.63 1277.83 1539.65 Q1275.09 1542.68 1275.09 1547.9 L1275.09 1568.04 L1269.2 1568.04 L1269.2 1532.4 L1275.09 1532.4 L1275.09 1537.93 Q1277.19 1534.72 1280.02 1533.13 Q1282.89 1531.54 1286.61 1531.54 Q1292.75 1531.54 1295.9 1535.36 Q1299.06 1539.14 1299.06 1546.53 Z" fill="#000000" fill-rule="nonzero" fill-opacity="1" /><path clip-path="url(#clip980)" d="M1316.53 1522.27 L1316.53 1532.4 L1328.59 1532.4 L1328.59 1536.95 L1316.53 1536.95 L1316.53 1556.3 Q1316.53 1560.66 1317.71 1561.9 Q1318.92 1563.14 1322.58 1563.14 L1328.59 1563.14 L1328.59 1568.04 L1322.58 1568.04 Q1315.8 1568.04 1313.22 1565.53 Q1310.64 1562.98 1310.64 1556.3 L1310.64 1536.95 L1306.34 1536.95 L1306.34 1532.4 L1310.64 1532.4 L1310.64 1522.27 L1316.53 1522.27 Z" fill="#000000" fill-rule="nonzero" fill-opacity="1" /><path clip-path="url(#clip980)" d="M1386.65 1546.53 L1386.65 1568.04 L1380.79 1568.04 L1380.79 1546.72 Q1380.79 1541.66 1378.82 1539.14 Q1376.84 1536.63 1372.9 1536.63 Q1368.16 1536.63 1365.42 1539.65 Q1362.68 1542.68 1362.68 1547.9 L1362.68 1568.04 L1356.79 1568.04 L1356.79 1532.4 L1362.68 1532.4 L1362.68 1537.93 Q1364.78 1534.72 1367.61 1533.13 Q1370.48 1531.54 1374.2 1531.54 Q1380.35 1531.54 1383.5 1535.36 Q1386.65 1539.14 1386.65 1546.53 Z" fill="#000000" fill-rule="nonzero" fill-opacity="1" /><path clip-path="url(#clip980)" d="M1428.82 1548.76 L1428.82 1551.62 L1401.89 1551.62 Q1402.28 1557.67 1405.52 1560.85 Q1408.8 1564 1414.62 1564 Q1418 1564 1421.15 1563.17 Q1424.33 1562.35 1427.45 1560.69 L1427.45 1566.23 Q1424.3 1567.57 1420.99 1568.27 Q1417.68 1568.97 1414.27 1568.97 Q1405.74 1568.97 1400.75 1564 Q1395.78 1559.04 1395.78 1550.57 Q1395.78 1541.82 1400.49 1536.69 Q1405.24 1531.54 1413.26 1531.54 Q1420.45 1531.54 1424.62 1536.18 Q1428.82 1540.8 1428.82 1548.76 M1422.96 1547.04 Q1422.9 1542.23 1420.26 1539.37 Q1417.65 1536.5 1413.32 1536.5 Q1408.42 1536.5 1405.46 1539.27 Q1402.53 1542.04 1402.08 1547.07 L1422.96 1547.04 Z" fill="#000000" fill-rule="nonzero" fill-opacity="1" /><path clip-path="url(#clip980)" d="M1437.83 1553.98 L1437.83 1532.4 L1443.68 1532.4 L1443.68 1553.75 Q1443.68 1558.81 1445.66 1561.36 Q1447.63 1563.87 1451.58 1563.87 Q1456.32 1563.87 1459.06 1560.85 Q1461.83 1557.83 1461.83 1552.61 L1461.83 1532.4 L1467.68 1532.4 L1467.68 1568.04 L1461.83 1568.04 L1461.83 1562.57 Q1459.69 1565.82 1456.86 1567.41 Q1454.06 1568.97 1450.34 1568.97 Q1444.19 1568.97 1441.01 1565.15 Q1437.83 1561.33 1437.83 1553.98 M1452.56 1531.54 L1452.56 1531.54 Z" fill="#000000" fill-rule="nonzero" fill-opacity="1" /><path clip-path="url(#clip980)" d="M1485.54 1522.27 L1485.54 1532.4 L1497.6 1532.4 L1497.6 1536.95 L1485.54 1536.95 L1485.54 1556.3 Q1485.54 1560.66 1486.72 1561.9 Q1487.93 1563.14 1491.59 1563.14 L1497.6 1563.14 L1497.6 1568.04 L1491.59 1568.04 Q1484.81 1568.04 1482.23 1565.53 Q1479.65 1562.98 1479.65 1556.3 L1479.65 1536.95 L1475.35 1536.95 L1475.35 1532.4 L1479.65 1532.4 L1479.65 1522.27 L1485.54 1522.27 Z" fill="#000000" fill-rule="nonzero" fill-opacity="1" /><path clip-path="url(#clip980)" d="M1525.96 1537.87 Q1524.97 1537.3 1523.8 1537.04 Q1522.65 1536.76 1521.25 1536.76 Q1516.29 1536.76 1513.61 1540 Q1510.97 1543.22 1510.97 1549.27 L1510.97 1568.04 L1505.08 1568.04 L1505.08 1532.4 L1510.97 1532.4 L1510.97 1537.93 Q1512.82 1534.69 1515.78 1533.13 Q1518.74 1531.54 1522.97 1531.54 Q1523.57 1531.54 1524.31 1531.63 Q1525.04 1531.7 1525.93 1531.85 L1525.96 1537.87 Z" fill="#000000" fill-rule="nonzero" fill-opacity="1" /><path clip-path="url(#clip980)" d="M1544.49 1536.5 Q1539.77 1536.5 1537.04 1540.19 Q1534.3 1543.85 1534.3 1550.25 Q1534.3 1556.65 1537.01 1560.34 Q1539.74 1564 1544.49 1564 Q1549.16 1564 1551.9 1560.31 Q1554.64 1556.62 1554.64 1550.25 Q1554.64 1543.92 1551.9 1540.23 Q1549.16 1536.5 1544.49 1536.5 M1544.49 1531.54 Q1552.12 1531.54 1556.48 1536.5 Q1560.85 1541.47 1560.85 1550.25 Q1560.85 1559 1556.48 1564 Q1552.12 1568.97 1544.49 1568.97 Q1536.81 1568.97 1532.45 1564 Q1528.13 1559 1528.13 1550.25 Q1528.13 1541.47 1532.45 1536.5 Q1536.81 1531.54 1544.49 1531.54 Z" fill="#000000" fill-rule="nonzero" fill-opacity="1" /><path clip-path="url(#clip980)" d="M1600.19 1546.53 L1600.19 1568.04 L1594.33 1568.04 L1594.33 1546.72 Q1594.33 1541.66 1592.36 1539.14 Q1590.38 1536.63 1586.44 1536.63 Q1581.69 1536.63 1578.96 1539.65 Q1576.22 1542.68 1576.22 1547.9 L1576.22 1568.04 L1570.33 1568.04 L1570.33 1532.4 L1576.22 1532.4 L1576.22 1537.93 Q1578.32 1534.72 1581.15 1533.13 Q1584.02 1531.54 1587.74 1531.54 Q1593.88 1531.54 1597.03 1535.36 Q1600.19 1539.14 1600.19 1546.53 Z" fill="#000000" fill-rule="nonzero" fill-opacity="1" /><path clip-path="url(#clip980)" d="M1646.65 1518.58 Q1642.39 1525.9 1640.32 1533.06 Q1638.25 1540.23 1638.25 1547.58 Q1638.25 1554.93 1640.32 1562.16 Q1642.42 1569.35 1646.65 1576.64 L1641.56 1576.64 Q1636.79 1569.16 1634.4 1561.93 Q1632.05 1554.71 1632.05 1547.58 Q1632.05 1540.48 1634.4 1533.29 Q1636.76 1526.09 1641.56 1518.58 L1646.65 1518.58 Z" fill="#000000" fill-rule="nonzero" fill-opacity="1" /><path clip-path="url(#clip980)" d="M1658.27 1520.52 L1667.85 1520.52 L1679.98 1552.86 L1692.17 1520.52 L1701.75 1520.52 L1701.75 1568.04 L1695.48 1568.04 L1695.48 1526.32 L1683.23 1558.91 L1676.76 1558.91 L1664.51 1526.32 L1664.51 1568.04 L1658.27 1568.04 L1658.27 1520.52 Z" fill="#000000" fill-rule="nonzero" fill-opacity="1" /><path clip-path="url(#clip980)" d="M1744.75 1548.76 L1744.75 1551.62 L1717.82 1551.62 Q1718.21 1557.67 1721.45 1560.85 Q1724.73 1564 1730.55 1564 Q1733.93 1564 1737.08 1563.17 Q1740.26 1562.35 1743.38 1560.69 L1743.38 1566.23 Q1740.23 1567.57 1736.92 1568.27 Q1733.61 1568.97 1730.2 1568.97 Q1721.67 1568.97 1716.68 1564 Q1711.71 1559.04 1711.71 1550.57 Q1711.71 1541.82 1716.42 1536.69 Q1721.17 1531.54 1729.19 1531.54 Q1736.38 1531.54 1740.55 1536.18 Q1744.75 1540.8 1744.75 1548.76 M1738.89 1547.04 Q1738.83 1542.23 1736.19 1539.37 Q1733.58 1536.5 1729.25 1536.5 Q1724.35 1536.5 1721.39 1539.27 Q1718.46 1542.04 1718.01 1547.07 L1738.89 1547.04 Z" fill="#000000" fill-rule="nonzero" fill-opacity="1" /><path clip-path="url(#clip980)" d="M1766.87 1568.04 L1748.73 1520.52 L1755.44 1520.52 L1770.5 1560.53 L1785.59 1520.52 L1792.27 1520.52 L1774.16 1568.04 L1766.87 1568.04 Z" fill="#000000" fill-rule="nonzero" fill-opacity="1" /><path clip-path="url(#clip980)" d="M1798.03 1518.58 L1803.12 1518.58 Q1807.9 1526.09 1810.25 1533.29 Q1812.64 1540.48 1812.64 1547.58 Q1812.64 1554.71 1810.25 1561.93 Q1807.9 1569.16 1803.12 1576.64 L1798.03 1576.64 Q1802.26 1569.35 1804.33 1562.16 Q1806.43 1554.93 1806.43 1547.58 Q1806.43 1540.23 1804.33 1533.06 Q1802.26 1525.9 1798.03 1518.58 Z" fill="#000000" fill-rule="nonzero" fill-opacity="1" /><polyline clip-path="url(#clip980)" style="stroke:#000000; stroke-linecap:round; stroke-linejoin:round; stroke-width:4; stroke-opacity:1; fill:none" points="202.227,1423.18 202.227,123.472 "/>
<polyline clip-path="url(#clip980)" style="stroke:#000000; stroke-linecap:round; stroke-linejoin:round; stroke-width:4; stroke-opacity:1; fill:none" points="202.227,1195.87 221.125,1195.87 "/>
<polyline clip-path="url(#clip980)" style="stroke:#000000; stroke-linecap:round; stroke-linejoin:round; stroke-width:4; stroke-opacity:1; fill:none" points="202.227,962.452 221.125,962.452 "/>
<polyline clip-path="url(#clip980)" style="stroke:#000000; stroke-linecap:round; stroke-linejoin:round; stroke-width:4; stroke-opacity:1; fill:none" points="202.227,729.036 221.125,729.036 "/>
<polyline clip-path="url(#clip980)" style="stroke:#000000; stroke-linecap:round; stroke-linejoin:round; stroke-width:4; stroke-opacity:1; fill:none" points="202.227,495.62 221.125,495.62 "/>
<polyline clip-path="url(#clip980)" style="stroke:#000000; stroke-linecap:round; stroke-linejoin:round; stroke-width:4; stroke-opacity:1; fill:none" points="202.227,262.204 221.125,262.204 "/>
<path clip-path="url(#clip980)" d="M149.908 1209.21 L166.227 1209.21 L166.227 1213.15 L144.283 1213.15 L144.283 1209.21 Q146.945 1206.46 151.528 1201.83 Q156.135 1197.18 157.315 1195.83 Q159.561 1193.31 160.44 1191.57 Q161.343 1189.82 161.343 1188.13 Q161.343 1185.37 159.399 1183.63 Q157.478 1181.9 154.376 1181.9 Q152.177 1181.9 149.723 1182.66 Q147.292 1183.43 144.515 1184.98 L144.515 1180.26 Q147.339 1179.12 149.792 1178.54 Q152.246 1177.96 154.283 1177.96 Q159.653 1177.96 162.848 1180.65 Q166.042 1183.33 166.042 1187.82 Q166.042 1189.95 165.232 1191.88 Q164.445 1193.77 162.339 1196.37 Q161.76 1197.04 158.658 1200.26 Q155.556 1203.45 149.908 1209.21 Z" fill="#000000" fill-rule="nonzero" fill-opacity="1" /><path clip-path="url(#clip980)" d="M156.644 949.246 L144.839 967.695 L156.644 967.695 L156.644 949.246 M155.417 945.172 L161.297 945.172 L161.297 967.695 L166.227 967.695 L166.227 971.584 L161.297 971.584 L161.297 979.732 L156.644 979.732 L156.644 971.584 L141.042 971.584 L141.042 967.07 L155.417 945.172 Z" fill="#000000" fill-rule="nonzero" fill-opacity="1" /><path clip-path="url(#clip980)" d="M154.7 727.173 Q151.552 727.173 149.7 729.325 Q147.871 731.478 147.871 735.228 Q147.871 738.955 149.7 741.131 Q151.552 743.284 154.7 743.284 Q157.848 743.284 159.677 741.131 Q161.528 738.955 161.528 735.228 Q161.528 731.478 159.677 729.325 Q157.848 727.173 154.7 727.173 M163.982 712.52 L163.982 716.779 Q162.223 715.946 160.417 715.506 Q158.635 715.066 156.876 715.066 Q152.246 715.066 149.792 718.191 Q147.362 721.316 147.015 727.636 Q148.38 725.622 150.441 724.557 Q152.501 723.469 154.978 723.469 Q160.186 723.469 163.195 726.64 Q166.227 729.788 166.227 735.228 Q166.227 740.552 163.079 743.77 Q159.931 746.987 154.7 746.987 Q148.704 746.987 145.533 742.404 Q142.362 737.798 142.362 729.071 Q142.362 720.876 146.251 716.015 Q150.14 711.131 156.69 711.131 Q158.45 711.131 160.232 711.478 Q162.038 711.826 163.982 712.52 Z" fill="#000000" fill-rule="nonzero" fill-opacity="1" /><path clip-path="url(#clip980)" d="M154.376 496.488 Q151.042 496.488 149.121 498.27 Q147.223 500.053 147.223 503.178 Q147.223 506.303 149.121 508.085 Q151.042 509.868 154.376 509.868 Q157.709 509.868 159.63 508.085 Q161.552 506.28 161.552 503.178 Q161.552 500.053 159.63 498.27 Q157.732 496.488 154.376 496.488 M149.7 494.497 Q146.691 493.757 145.001 491.696 Q143.334 489.636 143.334 486.673 Q143.334 482.53 146.274 480.122 Q149.237 477.715 154.376 477.715 Q159.538 477.715 162.477 480.122 Q165.417 482.53 165.417 486.673 Q165.417 489.636 163.727 491.696 Q162.061 493.757 159.075 494.497 Q162.454 495.284 164.329 497.576 Q166.227 499.868 166.227 503.178 Q166.227 508.201 163.149 510.886 Q160.093 513.571 154.376 513.571 Q148.658 513.571 145.579 510.886 Q142.524 508.201 142.524 503.178 Q142.524 499.868 144.422 497.576 Q146.32 495.284 149.7 494.497 M147.987 487.113 Q147.987 489.798 149.653 491.303 Q151.343 492.807 154.376 492.807 Q157.385 492.807 159.075 491.303 Q160.788 489.798 160.788 487.113 Q160.788 484.428 159.075 482.923 Q157.385 481.419 154.376 481.419 Q151.343 481.419 149.653 482.923 Q147.987 484.428 147.987 487.113 Z" fill="#000000" fill-rule="nonzero" fill-opacity="1" /><path clip-path="url(#clip980)" d="M114.931 275.549 L122.57 275.549 L122.57 249.183 L114.26 250.85 L114.26 246.59 L122.524 244.924 L127.2 244.924 L127.2 275.549 L134.839 275.549 L134.839 279.484 L114.931 279.484 L114.931 275.549 Z" fill="#000000" fill-rule="nonzero" fill-opacity="1" /><path clip-path="url(#clip980)" d="M154.283 248.002 Q150.672 248.002 148.843 251.567 Q147.038 255.109 147.038 262.238 Q147.038 269.345 148.843 272.91 Q150.672 276.451 154.283 276.451 Q157.917 276.451 159.723 272.91 Q161.552 269.345 161.552 262.238 Q161.552 255.109 159.723 251.567 Q157.917 248.002 154.283 248.002 M154.283 244.299 Q160.093 244.299 163.149 248.905 Q166.227 253.488 166.227 262.238 Q166.227 270.965 163.149 275.572 Q160.093 280.155 154.283 280.155 Q148.473 280.155 145.394 275.572 Q142.339 270.965 142.339 262.238 Q142.339 253.488 145.394 248.905 Q148.473 244.299 154.283 244.299 Z" fill="#000000" fill-rule="nonzero" fill-opacity="1" /><path clip-path="url(#clip980)" d="M16.4842 1145.77 L16.4842 1115.72 L21.895 1115.72 L21.895 1139.34 L35.9632 1139.34 L35.9632 1116.71 L41.3741 1116.71 L41.3741 1139.34 L58.5933 1139.34 L58.5933 1115.15 L64.0042 1115.15 L64.0042 1145.77 L16.4842 1145.77 Z" fill="#000000" fill-rule="nonzero" fill-opacity="1" /><path clip-path="url(#clip980)" d="M42.4881 1075.2 L64.0042 1075.2 L64.0042 1081.06 L42.679 1081.06 Q37.6183 1081.06 35.1038 1083.03 Q32.5894 1085.01 32.5894 1088.95 Q32.5894 1093.7 35.6131 1096.43 Q38.6368 1099.17 43.8567 1099.17 L64.0042 1099.17 L64.0042 1105.06 L28.3562 1105.06 L28.3562 1099.17 L33.8944 1099.17 Q30.6797 1097.07 29.0883 1094.24 Q27.4968 1091.37 27.4968 1087.65 Q27.4968 1081.51 31.3163 1078.35 Q35.1038 1075.2 42.4881 1075.2 Z" fill="#000000" fill-rule="nonzero" fill-opacity="1" /><path clip-path="url(#clip980)" d="M44.7161 1033.03 L47.5806 1033.03 L47.5806 1059.96 Q53.6281 1059.58 56.8109 1056.33 Q59.9619 1053.05 59.9619 1047.23 Q59.9619 1043.85 59.1344 1040.7 Q58.3069 1037.52 56.6518 1034.4 L62.1899 1034.4 Q63.5267 1037.55 64.227 1040.86 Q64.9272 1044.17 64.9272 1047.58 Q64.9272 1056.11 59.9619 1061.1 Q54.9967 1066.07 46.5303 1066.07 Q37.7774 1066.07 32.6531 1061.36 Q27.4968 1056.62 27.4968 1048.6 Q27.4968 1041.4 32.1438 1037.23 Q36.7589 1033.03 44.7161 1033.03 M42.9973 1038.89 Q38.1912 1038.95 35.3266 1041.59 Q32.4621 1044.2 32.4621 1048.53 Q32.4621 1053.43 35.2312 1056.39 Q38.0002 1059.32 43.0292 1059.77 L42.9973 1038.89 Z" fill="#000000" fill-rule="nonzero" fill-opacity="1" /><path clip-path="url(#clip980)" d="M33.8307 1002.76 Q33.2578 1003.75 33.0032 1004.93 Q32.7167 1006.07 32.7167 1007.47 Q32.7167 1012.44 35.9632 1015.11 Q39.1779 1017.75 45.2253 1017.75 L64.0042 1017.75 L64.0042 1023.64 L28.3562 1023.64 L28.3562 1017.75 L33.8944 1017.75 Q30.6479 1015.91 29.0883 1012.95 Q27.4968 1009.99 27.4968 1005.75 Q27.4968 1005.15 27.5923 1004.42 Q27.656 1003.68 27.8151 1002.79 L33.8307 1002.76 Z" fill="#000000" fill-rule="nonzero" fill-opacity="1" /><path clip-path="url(#clip980)" d="M45.7664 974.307 Q39.4007 974.307 35.8996 976.949 Q32.3984 979.559 32.3984 984.301 Q32.3984 989.012 35.8996 991.654 Q39.4007 994.264 45.7664 994.264 Q52.1003 994.264 55.6014 991.654 Q59.1026 989.012 59.1026 984.301 Q59.1026 979.559 55.6014 976.949 Q52.1003 974.307 45.7664 974.307 M59.58 968.451 Q68.683 968.451 73.1071 972.493 Q77.5631 976.535 77.5631 984.874 Q77.5631 987.962 77.0857 990.699 Q76.6401 993.436 75.6852 996.014 L69.9879 996.014 Q71.3884 993.436 72.0568 990.922 Q72.7252 988.407 72.7252 985.797 Q72.7252 980.036 69.7015 977.172 Q66.7096 974.307 60.6303 974.307 L57.7339 974.307 Q60.885 976.121 62.4446 978.954 Q64.0042 981.787 64.0042 985.734 Q64.0042 992.29 59.0071 996.301 Q54.01 1000.31 45.7664 1000.31 Q37.491 1000.31 32.4939 996.301 Q27.4968 992.29 27.4968 985.734 Q27.4968 981.787 29.0564 978.954 Q30.616 976.121 33.7671 974.307 L28.3562 974.307 L28.3562 968.451 L59.58 968.451 Z" fill="#000000" fill-rule="nonzero" fill-opacity="1" /><path clip-path="url(#clip980)" d="M67.3143 941.556 Q73.68 944.038 75.6216 946.394 Q77.5631 948.749 77.5631 952.696 L77.5631 957.374 L72.6615 957.374 L72.6615 953.937 Q72.6615 951.518 71.5157 950.181 Q70.3699 948.844 66.1048 947.221 L63.4312 946.171 L28.3562 960.589 L28.3562 954.383 L56.238 943.243 L28.3562 932.103 L28.3562 925.896 L67.3143 941.556 Z" fill="#000000" fill-rule="nonzero" fill-opacity="1" /><path clip-path="url(#clip980)" d="M49.9359 897.696 L28.3562 897.696 L28.3562 891.84 L49.7131 891.84 Q54.7739 891.84 57.3202 889.866 Q59.8346 887.893 59.8346 883.946 Q59.8346 879.204 56.8109 876.466 Q53.7872 873.697 48.5673 873.697 L28.3562 873.697 L28.3562 867.841 L64.0042 867.841 L64.0042 873.697 L58.5296 873.697 Q61.7762 875.83 63.3676 878.663 Q64.9272 881.463 64.9272 885.187 Q64.9272 891.33 61.1078 894.513 Q57.2883 897.696 49.9359 897.696 M27.4968 882.959 L27.4968 882.959 Z" fill="#000000" fill-rule="nonzero" fill-opacity="1" /><path clip-path="url(#clip980)" d="M42.4881 826.145 L64.0042 826.145 L64.0042 832.002 L42.679 832.002 Q37.6183 832.002 35.1038 833.975 Q32.5894 835.949 32.5894 839.895 Q32.5894 844.638 35.6131 847.375 Q38.6368 850.112 43.8567 850.112 L64.0042 850.112 L64.0042 856.001 L28.3562 856.001 L28.3562 850.112 L33.8944 850.112 Q30.6797 848.012 29.0883 845.179 Q27.4968 842.314 27.4968 838.59 Q27.4968 832.447 31.3163 829.296 Q35.1038 826.145 42.4881 826.145 Z" fill="#000000" fill-rule="nonzero" fill-opacity="1" /><path clip-path="url(#clip980)" d="M29.7248 788.811 L35.1993 788.811 Q33.8307 791.293 33.1623 793.808 Q32.4621 796.29 32.4621 798.837 Q32.4621 804.534 36.0905 807.685 Q39.6872 810.836 46.212 810.836 Q52.7369 810.836 56.3653 807.685 Q59.9619 804.534 59.9619 798.837 Q59.9619 796.29 59.2935 793.808 Q58.5933 791.293 57.2247 788.811 L62.6355 788.811 Q63.7814 791.261 64.3543 793.903 Q64.9272 796.513 64.9272 799.473 Q64.9272 807.526 59.8664 812.268 Q54.8057 817.011 46.212 817.011 Q37.491 817.011 32.4939 812.236 Q27.4968 807.43 27.4968 799.091 Q27.4968 796.386 28.0697 793.808 Q28.6108 791.23 29.7248 788.811 Z" fill="#000000" fill-rule="nonzero" fill-opacity="1" /><path clip-path="url(#clip980)" d="M44.7161 748.134 L47.5806 748.134 L47.5806 775.061 Q53.6281 774.679 56.8109 771.432 Q59.9619 768.154 59.9619 762.329 Q59.9619 758.955 59.1344 755.804 Q58.3069 752.622 56.6518 749.502 L62.1899 749.502 Q63.5267 752.653 64.227 755.964 Q64.9272 759.274 64.9272 762.679 Q64.9272 771.209 59.9619 776.206 Q54.9967 781.172 46.5303 781.172 Q37.7774 781.172 32.6531 776.461 Q27.4968 771.719 27.4968 763.698 Q27.4968 756.505 32.1438 752.335 Q36.7589 748.134 44.7161 748.134 M42.9973 753.99 Q38.1912 754.054 35.3266 756.696 Q32.4621 759.306 32.4621 763.634 Q32.4621 768.536 35.2312 771.496 Q38.0002 774.424 43.0292 774.87 L42.9973 753.99 Z" fill="#000000" fill-rule="nonzero" fill-opacity="1" /><path clip-path="url(#clip980)" d="M33.8307 717.865 Q33.2578 718.851 33.0032 720.029 Q32.7167 721.175 32.7167 722.575 Q32.7167 727.541 35.9632 730.214 Q39.1779 732.856 45.2253 732.856 L64.0042 732.856 L64.0042 738.744 L28.3562 738.744 L28.3562 732.856 L33.8944 732.856 Q30.6479 731.01 29.0883 728.05 Q27.4968 725.09 27.4968 720.857 Q27.4968 720.252 27.5923 719.52 Q27.656 718.788 27.8151 717.897 L33.8307 717.865 Z" fill="#000000" fill-rule="nonzero" fill-opacity="1" /><path clip-path="url(#clip980)" d="M18.2347 705.929 L28.3562 705.929 L28.3562 693.866 L32.9077 693.866 L32.9077 705.929 L52.2594 705.929 Q56.6199 705.929 57.8613 704.751 Q59.1026 703.542 59.1026 699.882 L59.1026 693.866 L64.0042 693.866 L64.0042 699.882 Q64.0042 706.661 61.4897 709.239 Q58.9434 711.817 52.2594 711.817 L32.9077 711.817 L32.9077 716.114 L28.3562 716.114 L28.3562 711.817 L18.2347 711.817 L18.2347 705.929 Z" fill="#000000" fill-rule="nonzero" fill-opacity="1" /><path clip-path="url(#clip980)" d="M46.0847 669.963 Q46.0847 677.061 47.7079 679.798 Q49.3312 682.535 53.2461 682.535 Q56.3653 682.535 58.2114 680.498 Q60.0256 678.429 60.0256 674.896 Q60.0256 670.026 56.5881 667.098 Q53.1188 664.138 47.3897 664.138 L46.0847 664.138 L46.0847 669.963 M43.6657 658.282 L64.0042 658.282 L64.0042 664.138 L58.5933 664.138 Q61.8398 666.143 63.3994 669.135 Q64.9272 672.127 64.9272 676.456 Q64.9272 681.93 61.8716 685.177 Q58.7843 688.392 53.6281 688.392 Q47.6125 688.392 44.5569 684.381 Q41.5014 680.339 41.5014 672.35 L41.5014 664.138 L40.9285 664.138 Q36.8862 664.138 34.6901 666.812 Q32.4621 669.454 32.4621 674.26 Q32.4621 677.315 33.1941 680.212 Q33.9262 683.108 35.3903 685.782 L29.9795 685.782 Q28.7381 682.567 28.1334 679.543 Q27.4968 676.52 27.4968 673.655 Q27.4968 665.921 31.5072 662.101 Q35.5176 658.282 43.6657 658.282 Z" fill="#000000" fill-rule="nonzero" fill-opacity="1" /><path clip-path="url(#clip980)" d="M28.3562 646.219 L28.3562 640.362 L64.0042 640.362 L64.0042 646.219 L28.3562 646.219 M14.479 646.219 L14.479 640.362 L21.895 640.362 L21.895 646.219 L14.479 646.219 Z" fill="#000000" fill-rule="nonzero" fill-opacity="1" /><path clip-path="url(#clip980)" d="M42.4881 598.476 L64.0042 598.476 L64.0042 604.332 L42.679 604.332 Q37.6183 604.332 35.1038 606.306 Q32.5894 608.279 32.5894 612.226 Q32.5894 616.968 35.6131 619.706 Q38.6368 622.443 43.8567 622.443 L64.0042 622.443 L64.0042 628.331 L28.3562 628.331 L28.3562 622.443 L33.8944 622.443 Q30.6797 620.342 29.0883 617.509 Q27.4968 614.645 27.4968 610.921 Q27.4968 604.778 31.3163 601.627 Q35.1038 598.476 42.4881 598.476 Z" fill="#000000" fill-rule="nonzero" fill-opacity="1" /><path clip-path="url(#clip980)" d="M18.2347 581.002 L28.3562 581.002 L28.3562 568.939 L32.9077 568.939 L32.9077 581.002 L52.2594 581.002 Q56.6199 581.002 57.8613 579.824 Q59.1026 578.615 59.1026 574.955 L59.1026 568.939 L64.0042 568.939 L64.0042 574.955 Q64.0042 581.734 61.4897 584.312 Q58.9434 586.89 52.2594 586.89 L32.9077 586.89 L32.9077 591.187 L28.3562 591.187 L28.3562 586.89 L18.2347 586.89 L18.2347 581.002 Z" fill="#000000" fill-rule="nonzero" fill-opacity="1" /><path clip-path="url(#clip980)" d="M67.3143 546.404 Q73.68 548.887 75.6216 551.242 Q77.5631 553.598 77.5631 557.544 L77.5631 562.223 L72.6615 562.223 L72.6615 558.786 Q72.6615 556.367 71.5157 555.03 Q70.3699 553.693 66.1048 552.07 L63.4312 551.02 L28.3562 565.438 L28.3562 559.231 L56.238 548.091 L28.3562 536.951 L28.3562 530.745 L67.3143 546.404 Z" fill="#000000" fill-rule="nonzero" fill-opacity="1" /><path clip-path="url(#clip980)" d="M14.5426 487.872 Q21.8632 492.137 29.0246 494.206 Q36.186 496.275 43.5384 496.275 Q50.8908 496.275 58.1159 494.206 Q65.3091 492.105 72.5979 487.872 L72.5979 492.964 Q65.1182 497.739 57.8931 500.126 Q50.668 502.481 43.5384 502.481 Q36.4406 502.481 29.2474 500.126 Q22.0542 497.77 14.5426 492.964 L14.5426 487.872 Z" fill="#000000" fill-rule="nonzero" fill-opacity="1" /><path clip-path="url(#clip980)" d="M43.0928 435.259 Q43.0928 438.028 45.4481 439.62 Q47.8034 441.179 52.0048 441.179 Q56.1425 441.179 58.5296 439.62 Q60.885 438.028 60.885 435.259 Q60.885 432.554 58.5296 430.994 Q56.1425 429.403 52.0048 429.403 Q47.8353 429.403 45.48 430.994 Q43.0928 432.554 43.0928 435.259 M39.0506 435.259 Q39.0506 430.23 42.5517 427.27 Q46.0529 424.31 52.0048 424.31 Q57.9567 424.31 61.4579 427.302 Q64.9272 430.262 64.9272 435.259 Q64.9272 440.352 61.4579 443.312 Q57.9567 446.272 52.0048 446.272 Q46.021 446.272 42.5517 443.312 Q39.0506 440.32 39.0506 435.259 M19.667 468.106 Q19.667 470.844 22.0542 472.435 Q24.4095 473.995 28.5472 473.995 Q32.7485 473.995 35.1038 472.435 Q37.4592 470.875 37.4592 468.106 Q37.4592 465.337 35.1038 463.778 Q32.7485 462.186 28.5472 462.186 Q24.4413 462.186 22.0542 463.778 Q19.667 465.369 19.667 468.106 M15.6248 439.365 L15.6248 434.273 L64.9272 464 L64.9272 469.093 L15.6248 439.365 M15.6248 468.106 Q15.6248 463.077 19.1259 460.085 Q22.5952 457.094 28.5472 457.094 Q34.5628 457.094 38.0321 460.085 Q41.5014 463.046 41.5014 468.106 Q41.5014 473.167 38.0321 476.127 Q34.5309 479.055 28.5472 479.055 Q22.6271 479.055 19.1259 476.095 Q15.6248 473.135 15.6248 468.106 Z" fill="#000000" fill-rule="nonzero" fill-opacity="1" /><path clip-path="url(#clip980)" d="M14.5426 415.494 L14.5426 410.401 Q22.0542 405.627 29.2474 403.272 Q36.4406 400.884 43.5384 400.884 Q50.668 400.884 57.8931 403.272 Q65.1182 405.627 72.5979 410.401 L72.5979 415.494 Q65.3091 411.261 58.1159 409.192 Q50.8908 407.091 43.5384 407.091 Q36.186 407.091 29.0246 409.192 Q21.8632 411.261 14.5426 415.494 Z" fill="#000000" fill-rule="nonzero" fill-opacity="1" /><path clip-path="url(#clip980)" d="M592.95 12.096 L601.173 12.096 L601.173 48.8377 Q601.173 58.5599 604.697 62.8538 Q608.222 67.1073 616.121 67.1073 Q623.98 67.1073 627.504 62.8538 Q631.028 58.5599 631.028 48.8377 L631.028 12.096 L639.251 12.096 L639.251 49.8504 Q639.251 61.6791 633.378 67.7149 Q627.544 73.7508 616.121 73.7508 Q604.657 73.7508 598.783 67.7149 Q592.95 61.6791 592.95 49.8504 L592.95 12.096 Z" fill="#000000" fill-rule="nonzero" fill-opacity="1" /><path clip-path="url(#clip980)" d="M691.994 45.1919 L691.994 72.576 L684.541 72.576 L684.541 45.4349 Q684.541 38.994 682.029 35.7938 Q679.517 32.5936 674.494 32.5936 Q668.458 32.5936 664.975 36.4419 Q661.491 40.2903 661.491 46.9338 L661.491 72.576 L653.997 72.576 L653.997 27.2059 L661.491 27.2059 L661.491 34.2544 Q664.165 30.163 667.77 28.1376 Q671.416 26.1121 676.155 26.1121 Q683.973 26.1121 687.984 30.9732 Q691.994 35.7938 691.994 45.1919 Z" fill="#000000" fill-rule="nonzero" fill-opacity="1" /><path clip-path="url(#clip980)" d="M739.511 28.9478 L739.511 35.9153 Q736.352 34.1734 733.151 33.3227 Q729.992 32.4315 726.751 32.4315 Q719.5 32.4315 715.489 37.0496 Q711.479 41.6271 711.479 49.9314 Q711.479 58.2358 715.489 62.8538 Q719.5 67.4314 726.751 67.4314 Q729.992 67.4314 733.151 66.5807 Q736.352 65.6895 739.511 63.9476 L739.511 70.8341 Q736.392 72.2924 733.03 73.0216 Q729.708 73.7508 725.941 73.7508 Q715.692 73.7508 709.656 67.3098 Q703.62 60.8689 703.62 49.9314 Q703.62 38.832 709.697 32.472 Q715.814 26.1121 726.427 26.1121 Q729.87 26.1121 733.151 26.8413 Q736.433 27.5299 739.511 28.9478 Z" fill="#000000" fill-rule="nonzero" fill-opacity="1" /><path clip-path="url(#clip980)" d="M791.282 48.0275 L791.282 51.6733 L757.011 51.6733 Q757.497 59.3701 761.629 63.421 Q765.802 67.4314 773.215 67.4314 Q777.509 67.4314 781.519 66.3781 Q785.57 65.3249 789.54 63.2184 L789.54 70.267 Q785.53 71.9684 781.317 72.8596 Q777.104 73.7508 772.769 73.7508 Q761.913 73.7508 755.553 67.4314 Q749.234 61.1119 749.234 50.3365 Q749.234 39.1965 755.229 32.6746 Q761.265 26.1121 771.473 26.1121 Q780.628 26.1121 785.935 32.0264 Q791.282 37.9003 791.282 48.0275 M783.828 45.84 Q783.747 39.7232 780.385 36.0774 Q777.063 32.4315 771.554 32.4315 Q765.316 32.4315 761.548 35.9558 Q757.821 39.4801 757.254 45.8805 L783.828 45.84 Z" fill="#000000" fill-rule="nonzero" fill-opacity="1" /><path clip-path="url(#clip980)" d="M829.806 34.1734 Q828.55 33.4443 827.051 33.1202 Q825.593 32.7556 823.811 32.7556 Q817.491 32.7556 814.089 36.8875 Q810.726 40.9789 810.726 48.6757 L810.726 72.576 L803.232 72.576 L803.232 27.2059 L810.726 27.2059 L810.726 34.2544 Q813.076 30.1225 816.843 28.1376 Q820.61 26.1121 825.998 26.1121 Q826.768 26.1121 827.7 26.2337 Q828.631 26.3147 829.765 26.5172 L829.806 34.1734 Z" fill="#000000" fill-rule="nonzero" fill-opacity="1" /><path clip-path="url(#clip980)" d="M844.997 14.324 L844.997 27.2059 L860.35 27.2059 L860.35 32.9987 L844.997 32.9987 L844.997 57.6282 Q844.997 63.1779 846.496 64.7578 Q848.035 66.3376 852.694 66.3376 L860.35 66.3376 L860.35 72.576 L852.694 72.576 Q844.065 72.576 840.784 69.3758 Q837.503 66.1351 837.503 57.6282 L837.503 32.9987 L832.034 32.9987 L832.034 27.2059 L837.503 27.2059 L837.503 14.324 L844.997 14.324 Z" fill="#000000" fill-rule="nonzero" fill-opacity="1" /><path clip-path="url(#clip980)" d="M890.772 49.7694 Q881.739 49.7694 878.255 51.8354 Q874.771 53.9013 874.771 58.8839 Q874.771 62.8538 877.364 65.2034 Q879.997 67.5124 884.493 67.5124 Q890.691 67.5124 894.418 63.1374 Q898.185 58.7219 898.185 51.4303 L898.185 49.7694 L890.772 49.7694 M905.639 46.6907 L905.639 72.576 L898.185 72.576 L898.185 65.6895 Q895.633 69.8214 891.825 71.8063 Q888.018 73.7508 882.508 73.7508 Q875.541 73.7508 871.409 69.8619 Q867.317 65.9325 867.317 59.3701 Q867.317 51.7138 872.422 47.825 Q877.566 43.9361 887.734 43.9361 L898.185 43.9361 L898.185 43.2069 Q898.185 38.0623 894.783 35.2672 Q891.42 32.4315 885.303 32.4315 Q881.415 32.4315 877.728 33.3632 Q874.042 34.295 870.639 36.1584 L870.639 29.2718 Q874.731 27.692 878.579 26.9223 Q882.427 26.1121 886.073 26.1121 Q895.917 26.1121 900.778 31.2163 Q905.639 36.3204 905.639 46.6907 Z" fill="#000000" fill-rule="nonzero" fill-opacity="1" /><path clip-path="url(#clip980)" d="M920.992 27.2059 L928.446 27.2059 L928.446 72.576 L920.992 72.576 L920.992 27.2059 M920.992 9.54393 L928.446 9.54393 L928.446 18.9825 L920.992 18.9825 L920.992 9.54393 Z" fill="#000000" fill-rule="nonzero" fill-opacity="1" /><path clip-path="url(#clip980)" d="M981.755 45.1919 L981.755 72.576 L974.302 72.576 L974.302 45.4349 Q974.302 38.994 971.79 35.7938 Q969.279 32.5936 964.256 32.5936 Q958.22 32.5936 954.736 36.4419 Q951.252 40.2903 951.252 46.9338 L951.252 72.576 L943.758 72.576 L943.758 27.2059 L951.252 27.2059 L951.252 34.2544 Q953.926 30.163 957.531 28.1376 Q961.177 26.1121 965.916 26.1121 Q973.735 26.1121 977.745 30.9732 Q981.755 35.7938 981.755 45.1919 Z" fill="#000000" fill-rule="nonzero" fill-opacity="1" /><path clip-path="url(#clip980)" d="M1003.99 14.324 L1003.99 27.2059 L1019.35 27.2059 L1019.35 32.9987 L1003.99 32.9987 L1003.99 57.6282 Q1003.99 63.1779 1005.49 64.7578 Q1007.03 66.3376 1011.69 66.3376 L1019.35 66.3376 L1019.35 72.576 L1011.69 72.576 Q1003.06 72.576 999.782 69.3758 Q996.501 66.1351 996.501 57.6282 L996.501 32.9987 L991.032 32.9987 L991.032 27.2059 L996.501 27.2059 L996.501 14.324 L1003.99 14.324 Z" fill="#000000" fill-rule="nonzero" fill-opacity="1" /><path clip-path="url(#clip980)" d="M1048.03 76.7889 Q1044.87 84.8907 1041.87 87.3618 Q1038.87 89.8329 1033.85 89.8329 L1027.9 89.8329 L1027.9 83.5945 L1032.27 83.5945 Q1035.35 83.5945 1037.05 82.1361 Q1038.75 80.6778 1040.82 75.2496 L1042.15 71.8468 L1023.8 27.2059 L1031.7 27.2059 L1045.88 62.6918 L1060.06 27.2059 L1067.96 27.2059 L1048.03 76.7889 Z" fill="#000000" fill-rule="nonzero" fill-opacity="1" /><path clip-path="url(#clip980)" d="M1122.2 32.4315 Q1116.2 32.4315 1112.72 37.1306 Q1109.24 41.7891 1109.24 49.9314 Q1109.24 58.0738 1112.68 62.7728 Q1116.16 67.4314 1122.2 67.4314 Q1128.16 67.4314 1131.64 62.7323 Q1135.12 58.0333 1135.12 49.9314 Q1135.12 41.8701 1131.64 37.1711 Q1128.16 32.4315 1122.2 32.4315 M1122.2 26.1121 Q1131.92 26.1121 1137.47 32.4315 Q1143.02 38.7509 1143.02 49.9314 Q1143.02 61.0714 1137.47 67.4314 Q1131.92 73.7508 1122.2 73.7508 Q1112.44 73.7508 1106.89 67.4314 Q1101.38 61.0714 1101.38 49.9314 Q1101.38 38.7509 1106.89 32.4315 Q1112.44 26.1121 1122.2 26.1121 Z" fill="#000000" fill-rule="nonzero" fill-opacity="1" /><path clip-path="url(#clip980)" d="M1178.35 9.54393 L1178.35 15.7418 L1171.22 15.7418 Q1167.21 15.7418 1165.63 17.3622 Q1164.09 18.9825 1164.09 23.1955 L1164.09 27.2059 L1176.36 27.2059 L1176.36 32.9987 L1164.09 32.9987 L1164.09 72.576 L1156.59 72.576 L1156.59 32.9987 L1149.46 32.9987 L1149.46 27.2059 L1156.59 27.2059 L1156.59 24.0462 Q1156.59 16.471 1160.12 13.0277 Q1163.64 9.54393 1171.3 9.54393 L1178.35 9.54393 Z" fill="#000000" fill-rule="nonzero" fill-opacity="1" /><path clip-path="url(#clip980)" d="M1249.76 48.0275 L1249.76 51.6733 L1215.49 51.6733 Q1215.98 59.3701 1220.11 63.421 Q1224.28 67.4314 1231.7 67.4314 Q1235.99 67.4314 1240 66.3781 Q1244.05 65.3249 1248.02 63.2184 L1248.02 70.267 Q1244.01 71.9684 1239.8 72.8596 Q1235.59 73.7508 1231.25 73.7508 Q1220.39 73.7508 1214.03 67.4314 Q1207.71 61.1119 1207.71 50.3365 Q1207.71 39.1965 1213.71 32.6746 Q1219.75 26.1121 1229.95 26.1121 Q1239.11 26.1121 1244.42 32.0264 Q1249.76 37.9003 1249.76 48.0275 M1242.31 45.84 Q1242.23 39.7232 1238.87 36.0774 Q1235.54 32.4315 1230.04 32.4315 Q1223.8 32.4315 1220.03 35.9558 Q1216.3 39.4801 1215.74 45.8805 L1242.31 45.84 Z" fill="#000000" fill-rule="nonzero" fill-opacity="1" /><path clip-path="url(#clip980)" d="M1299.71 45.1919 L1299.71 72.576 L1292.26 72.576 L1292.26 45.4349 Q1292.26 38.994 1289.75 35.7938 Q1287.23 32.5936 1282.21 32.5936 Q1276.18 32.5936 1272.69 36.4419 Q1269.21 40.2903 1269.21 46.9338 L1269.21 72.576 L1261.71 72.576 L1261.71 27.2059 L1269.21 27.2059 L1269.21 34.2544 Q1271.88 30.163 1275.49 28.1376 Q1279.13 26.1121 1283.87 26.1121 Q1291.69 26.1121 1295.7 30.9732 Q1299.71 35.7938 1299.71 45.1919 Z" fill="#000000" fill-rule="nonzero" fill-opacity="1" /><path clip-path="url(#clip980)" d="M1353.39 48.0275 L1353.39 51.6733 L1319.11 51.6733 Q1319.6 59.3701 1323.73 63.421 Q1327.91 67.4314 1335.32 67.4314 Q1339.61 67.4314 1343.62 66.3781 Q1347.67 65.3249 1351.64 63.2184 L1351.64 70.267 Q1347.63 71.9684 1343.42 72.8596 Q1339.21 73.7508 1334.87 73.7508 Q1324.02 73.7508 1317.66 67.4314 Q1311.34 61.1119 1311.34 50.3365 Q1311.34 39.1965 1317.33 32.6746 Q1323.37 26.1121 1333.58 26.1121 Q1342.73 26.1121 1348.04 32.0264 Q1353.39 37.9003 1353.39 48.0275 M1345.93 45.84 Q1345.85 39.7232 1342.49 36.0774 Q1339.17 32.4315 1333.66 32.4315 Q1327.42 32.4315 1323.65 35.9558 Q1319.92 39.4801 1319.36 45.8805 L1345.93 45.84 Z" fill="#000000" fill-rule="nonzero" fill-opacity="1" /><path clip-path="url(#clip980)" d="M1391.91 34.1734 Q1390.65 33.4443 1389.15 33.1202 Q1387.7 32.7556 1385.91 32.7556 Q1379.59 32.7556 1376.19 36.8875 Q1372.83 40.9789 1372.83 48.6757 L1372.83 72.576 L1365.34 72.576 L1365.34 27.2059 L1372.83 27.2059 L1372.83 34.2544 Q1375.18 30.1225 1378.95 28.1376 Q1382.71 26.1121 1388.1 26.1121 Q1388.87 26.1121 1389.8 26.2337 Q1390.73 26.3147 1391.87 26.5172 L1391.91 34.1734 Z" fill="#000000" fill-rule="nonzero" fill-opacity="1" /><path clip-path="url(#clip980)" d="M1428.12 49.3643 Q1428.12 41.2625 1424.76 36.8065 Q1421.44 32.3505 1415.4 32.3505 Q1409.41 32.3505 1406.05 36.8065 Q1402.73 41.2625 1402.73 49.3643 Q1402.73 57.4256 1406.05 61.8816 Q1409.41 66.3376 1415.4 66.3376 Q1421.44 66.3376 1424.76 61.8816 Q1428.12 57.4256 1428.12 49.3643 M1435.58 66.9452 Q1435.58 78.5308 1430.43 84.1616 Q1425.29 89.8329 1414.68 89.8329 Q1410.75 89.8329 1407.26 89.2252 Q1403.78 88.6581 1400.5 87.4428 L1400.5 80.1917 Q1403.78 81.9741 1406.98 82.8248 Q1410.18 83.6755 1413.5 83.6755 Q1420.83 83.6755 1424.48 79.8271 Q1428.12 76.0193 1428.12 68.282 L1428.12 64.5957 Q1425.82 68.6061 1422.21 70.5911 Q1418.6 72.576 1413.58 72.576 Q1405.24 72.576 1400.13 66.2161 Q1395.03 59.8562 1395.03 49.3643 Q1395.03 38.832 1400.13 32.472 Q1405.24 26.1121 1413.58 26.1121 Q1418.6 26.1121 1422.21 28.0971 Q1425.82 30.082 1428.12 34.0924 L1428.12 27.2059 L1435.58 27.2059 L1435.58 66.9452 Z" fill="#000000" fill-rule="nonzero" fill-opacity="1" /><path clip-path="url(#clip980)" d="M1469.81 76.7889 Q1466.65 84.8907 1463.65 87.3618 Q1460.65 89.8329 1455.63 89.8329 L1449.68 89.8329 L1449.68 83.5945 L1454.05 83.5945 Q1457.13 83.5945 1458.83 82.1361 Q1460.53 80.6778 1462.6 75.2496 L1463.93 71.8468 L1445.58 27.2059 L1453.48 27.2059 L1467.66 62.6918 L1481.84 27.2059 L1489.74 27.2059 L1469.81 76.7889 Z" fill="#000000" fill-rule="nonzero" fill-opacity="1" /><path clip-path="url(#clip980)" d="M1559.05 28.9478 L1559.05 35.9153 Q1555.89 34.1734 1552.69 33.3227 Q1549.53 32.4315 1546.29 32.4315 Q1539.04 32.4315 1535.03 37.0496 Q1531.02 41.6271 1531.02 49.9314 Q1531.02 58.2358 1535.03 62.8538 Q1539.04 67.4314 1546.29 67.4314 Q1549.53 67.4314 1552.69 66.5807 Q1555.89 65.6895 1559.05 63.9476 L1559.05 70.8341 Q1555.93 72.2924 1552.57 73.0216 Q1549.25 73.7508 1545.48 73.7508 Q1535.23 73.7508 1529.19 67.3098 Q1523.16 60.8689 1523.16 49.9314 Q1523.16 38.832 1529.24 32.472 Q1535.35 26.1121 1545.97 26.1121 Q1549.41 26.1121 1552.69 26.8413 Q1555.97 27.5299 1559.05 28.9478 Z" fill="#000000" fill-rule="nonzero" fill-opacity="1" /><path clip-path="url(#clip980)" d="M1592.63 49.7694 Q1583.6 49.7694 1580.11 51.8354 Q1576.63 53.9013 1576.63 58.8839 Q1576.63 62.8538 1579.22 65.2034 Q1581.86 67.5124 1586.35 67.5124 Q1592.55 67.5124 1596.28 63.1374 Q1600.04 58.7219 1600.04 51.4303 L1600.04 49.7694 L1592.63 49.7694 M1607.5 46.6907 L1607.5 72.576 L1600.04 72.576 L1600.04 65.6895 Q1597.49 69.8214 1593.69 71.8063 Q1589.88 73.7508 1584.37 73.7508 Q1577.4 73.7508 1573.27 69.8619 Q1569.18 65.9325 1569.18 59.3701 Q1569.18 51.7138 1574.28 47.825 Q1579.43 43.9361 1589.59 43.9361 L1600.04 43.9361 L1600.04 43.2069 Q1600.04 38.0623 1596.64 35.2672 Q1593.28 32.4315 1587.16 32.4315 Q1583.27 32.4315 1579.59 33.3632 Q1575.9 34.295 1572.5 36.1584 L1572.5 29.2718 Q1576.59 27.692 1580.44 26.9223 Q1584.29 26.1121 1587.93 26.1121 Q1597.78 26.1121 1602.64 31.2163 Q1607.5 36.3204 1607.5 46.6907 Z" fill="#000000" fill-rule="nonzero" fill-opacity="1" /><path clip-path="url(#clip980)" d="M1622.85 9.54393 L1630.31 9.54393 L1630.31 72.576 L1622.85 72.576 L1622.85 9.54393 Z" fill="#000000" fill-rule="nonzero" fill-opacity="1" /><path clip-path="url(#clip980)" d="M1678.55 28.9478 L1678.55 35.9153 Q1675.39 34.1734 1672.19 33.3227 Q1669.03 32.4315 1665.79 32.4315 Q1658.54 32.4315 1654.53 37.0496 Q1650.52 41.6271 1650.52 49.9314 Q1650.52 58.2358 1654.53 62.8538 Q1658.54 67.4314 1665.79 67.4314 Q1669.03 67.4314 1672.19 66.5807 Q1675.39 65.6895 1678.55 63.9476 L1678.55 70.8341 Q1675.43 72.2924 1672.07 73.0216 Q1668.75 73.7508 1664.98 73.7508 Q1654.73 73.7508 1648.7 67.3098 Q1642.66 60.8689 1642.66 49.9314 Q1642.66 38.832 1648.74 32.472 Q1654.85 26.1121 1665.47 26.1121 Q1668.91 26.1121 1672.19 26.8413 Q1675.47 27.5299 1678.55 28.9478 Z" fill="#000000" fill-rule="nonzero" fill-opacity="1" /><path clip-path="url(#clip980)" d="M1690.74 54.671 L1690.74 27.2059 L1698.2 27.2059 L1698.2 54.3874 Q1698.2 60.8284 1700.71 64.0691 Q1703.22 67.2693 1708.24 67.2693 Q1714.28 67.2693 1717.76 63.421 Q1721.29 59.5726 1721.29 52.9291 L1721.29 27.2059 L1728.74 27.2059 L1728.74 72.576 L1721.29 72.576 L1721.29 65.6084 Q1718.57 69.7404 1714.97 71.7658 Q1711.4 73.7508 1706.66 73.7508 Q1698.85 73.7508 1694.8 68.8897 Q1690.74 64.0286 1690.74 54.671 M1709.5 26.1121 L1709.5 26.1121 Z" fill="#000000" fill-rule="nonzero" fill-opacity="1" /><path clip-path="url(#clip980)" d="M1744.1 9.54393 L1751.55 9.54393 L1751.55 72.576 L1744.1 72.576 L1744.1 9.54393 Z" fill="#000000" fill-rule="nonzero" fill-opacity="1" /><path clip-path="url(#clip980)" d="M1787.76 49.7694 Q1778.73 49.7694 1775.25 51.8354 Q1771.76 53.9013 1771.76 58.8839 Q1771.76 62.8538 1774.36 65.2034 Q1776.99 67.5124 1781.48 67.5124 Q1787.68 67.5124 1791.41 63.1374 Q1795.18 58.7219 1795.18 51.4303 L1795.18 49.7694 L1787.76 49.7694 M1802.63 46.6907 L1802.63 72.576 L1795.18 72.576 L1795.18 65.6895 Q1792.62 69.8214 1788.82 71.8063 Q1785.01 73.7508 1779.5 73.7508 Q1772.53 73.7508 1768.4 69.8619 Q1764.31 65.9325 1764.31 59.3701 Q1764.31 51.7138 1769.41 47.825 Q1774.56 43.9361 1784.73 43.9361 L1795.18 43.9361 L1795.18 43.2069 Q1795.18 38.0623 1791.77 35.2672 Q1788.41 32.4315 1782.3 32.4315 Q1778.41 32.4315 1774.72 33.3632 Q1771.03 34.295 1767.63 36.1584 L1767.63 29.2718 Q1771.72 27.692 1775.57 26.9223 Q1779.42 26.1121 1783.06 26.1121 Q1792.91 26.1121 1797.77 31.2163 Q1802.63 36.3204 1802.63 46.6907 Z" fill="#000000" fill-rule="nonzero" fill-opacity="1" /><path clip-path="url(#clip980)" d="M1825.36 14.324 L1825.36 27.2059 L1840.71 27.2059 L1840.71 32.9987 L1825.36 32.9987 L1825.36 57.6282 Q1825.36 63.1779 1826.86 64.7578 Q1828.39 66.3376 1833.05 66.3376 L1840.71 66.3376 L1840.71 72.576 L1833.05 72.576 Q1824.42 72.576 1821.14 69.3758 Q1817.86 66.1351 1817.86 57.6282 L1817.86 32.9987 L1812.39 32.9987 L1812.39 27.2059 L1817.86 27.2059 L1817.86 14.324 L1825.36 14.324 Z" fill="#000000" fill-rule="nonzero" fill-opacity="1" /><path clip-path="url(#clip980)" d="M1850.51 27.2059 L1857.97 27.2059 L1857.97 72.576 L1850.51 72.576 L1850.51 27.2059 M1850.51 9.54393 L1857.97 9.54393 L1857.97 18.9825 L1850.51 18.9825 L1850.51 9.54393 Z" fill="#000000" fill-rule="nonzero" fill-opacity="1" /><path clip-path="url(#clip980)" d="M1891.14 32.4315 Q1885.15 32.4315 1881.66 37.1306 Q1878.18 41.7891 1878.18 49.9314 Q1878.18 58.0738 1881.62 62.7728 Q1885.11 67.4314 1891.14 67.4314 Q1897.1 67.4314 1900.58 62.7323 Q1904.07 58.0333 1904.07 49.9314 Q1904.07 41.8701 1900.58 37.1711 Q1897.1 32.4315 1891.14 32.4315 M1891.14 26.1121 Q1900.87 26.1121 1906.41 32.4315 Q1911.96 38.7509 1911.96 49.9314 Q1911.96 61.0714 1906.41 67.4314 Q1900.87 73.7508 1891.14 73.7508 Q1881.38 73.7508 1875.83 67.4314 Q1870.32 61.0714 1870.32 49.9314 Q1870.32 38.7509 1875.83 32.4315 Q1881.38 26.1121 1891.14 26.1121 Z" fill="#000000" fill-rule="nonzero" fill-opacity="1" /><path clip-path="url(#clip980)" d="M1962.03 45.1919 L1962.03 72.576 L1954.58 72.576 L1954.58 45.4349 Q1954.58 38.994 1952.07 35.7938 Q1949.56 32.5936 1944.53 32.5936 Q1938.5 32.5936 1935.01 36.4419 Q1931.53 40.2903 1931.53 46.9338 L1931.53 72.576 L1924.04 72.576 L1924.04 27.2059 L1931.53 27.2059 L1931.53 34.2544 Q1934.2 30.163 1937.81 28.1376 Q1941.46 26.1121 1946.19 26.1121 Q1954.01 26.1121 1958.02 30.9732 Q1962.03 35.7938 1962.03 45.1919 Z" fill="#000000" fill-rule="nonzero" fill-opacity="1" /><polyline clip-path="url(#clip982)" style="stroke:#000000; stroke-linecap:round; stroke-linejoin:round; stroke-width:4; stroke-opacity:1; fill:none" points="263.091,1376.07 1277.49,1336.96 2291.89,1355.83 "/>
<polyline clip-path="url(#clip982)" style="stroke:#000000; stroke-linecap:round; stroke-linejoin:round; stroke-width:4; stroke-opacity:1; fill:none" points="263.091,1386.4 263.091,1365.74 "/>
<polyline clip-path="url(#clip982)" style="stroke:#000000; stroke-linecap:round; stroke-linejoin:round; stroke-width:4; stroke-opacity:1; fill:none" points="1277.49,1347.91 1277.49,1326.02 "/>
<polyline clip-path="url(#clip982)" style="stroke:#000000; stroke-linecap:round; stroke-linejoin:round; stroke-width:4; stroke-opacity:1; fill:none" points="2291.89,1366.46 2291.89,1345.2 "/>
<line clip-path="url(#clip982)" x1="279.091" y1="1386.4" x2="247.091" y2="1386.4" style="stroke:#000000; stroke-width:4; stroke-opacity:1"/>
<line clip-path="url(#clip982)" x1="279.091" y1="1365.74" x2="247.091" y2="1365.74" style="stroke:#000000; stroke-width:4; stroke-opacity:1"/>
<line clip-path="url(#clip982)" x1="1293.49" y1="1347.91" x2="1261.49" y2="1347.91" style="stroke:#000000; stroke-width:4; stroke-opacity:1"/>
<line clip-path="url(#clip982)" x1="1293.49" y1="1326.02" x2="1261.49" y2="1326.02" style="stroke:#000000; stroke-width:4; stroke-opacity:1"/>
<line clip-path="url(#clip982)" x1="2307.89" y1="1366.46" x2="2275.89" y2="1366.46" style="stroke:#000000; stroke-width:4; stroke-opacity:1"/>
<line clip-path="url(#clip982)" x1="2307.89" y1="1345.2" x2="2275.89" y2="1345.2" style="stroke:#000000; stroke-width:4; stroke-opacity:1"/>
<polyline clip-path="url(#clip982)" style="stroke:#008000; stroke-linecap:round; stroke-linejoin:round; stroke-width:4; stroke-opacity:1; fill:none" points="263.091,1304.38 1277.49,1265.26 2291.89,1299.45 "/>
<polyline clip-path="url(#clip982)" style="stroke:#008000; stroke-linecap:round; stroke-linejoin:round; stroke-width:4; stroke-opacity:1; fill:none" points="263.091,1327.04 263.091,1281.72 "/>
<polyline clip-path="url(#clip982)" style="stroke:#008000; stroke-linecap:round; stroke-linejoin:round; stroke-width:4; stroke-opacity:1; fill:none" points="1277.49,1298.6 1277.49,1231.92 "/>
<polyline clip-path="url(#clip982)" style="stroke:#008000; stroke-linecap:round; stroke-linejoin:round; stroke-width:4; stroke-opacity:1; fill:none" points="2291.89,1335.64 2291.89,1263.26 "/>
<line clip-path="url(#clip982)" x1="279.091" y1="1327.04" x2="247.091" y2="1327.04" style="stroke:#008000; stroke-width:4; stroke-opacity:1"/>
<line clip-path="url(#clip982)" x1="279.091" y1="1281.72" x2="247.091" y2="1281.72" style="stroke:#008000; stroke-width:4; stroke-opacity:1"/>
<line clip-path="url(#clip982)" x1="1293.49" y1="1298.6" x2="1261.49" y2="1298.6" style="stroke:#008000; stroke-width:4; stroke-opacity:1"/>
<line clip-path="url(#clip982)" x1="1293.49" y1="1231.92" x2="1261.49" y2="1231.92" style="stroke:#008000; stroke-width:4; stroke-opacity:1"/>
<line clip-path="url(#clip982)" x1="2307.89" y1="1335.64" x2="2275.89" y2="1335.64" style="stroke:#008000; stroke-width:4; stroke-opacity:1"/>
<line clip-path="url(#clip982)" x1="2307.89" y1="1263.26" x2="2275.89" y2="1263.26" style="stroke:#008000; stroke-width:4; stroke-opacity:1"/>
<polyline clip-path="url(#clip982)" style="stroke:#0000ff; stroke-linecap:round; stroke-linejoin:round; stroke-width:4; stroke-opacity:1; fill:none" points="263.091,1164.21 1277.49,1156.64 2291.89,699.514 "/>
<polyline clip-path="url(#clip982)" style="stroke:#0000ff; stroke-linecap:round; stroke-linejoin:round; stroke-width:4; stroke-opacity:1; fill:none" points="263.091,1191.85 263.091,1136.57 "/>
<polyline clip-path="url(#clip982)" style="stroke:#0000ff; stroke-linecap:round; stroke-linejoin:round; stroke-width:4; stroke-opacity:1; fill:none" points="1277.49,1195.9 1277.49,1117.39 "/>
<polyline clip-path="url(#clip982)" style="stroke:#0000ff; stroke-linecap:round; stroke-linejoin:round; stroke-width:4; stroke-opacity:1; fill:none" points="2291.89,815.121 2291.89,583.906 "/>
<line clip-path="url(#clip982)" x1="279.091" y1="1191.85" x2="247.091" y2="1191.85" style="stroke:#0000ff; stroke-width:4; stroke-opacity:1"/>
<line clip-path="url(#clip982)" x1="279.091" y1="1136.57" x2="247.091" y2="1136.57" style="stroke:#0000ff; stroke-width:4; stroke-opacity:1"/>
<line clip-path="url(#clip982)" x1="1293.49" y1="1195.9" x2="1261.49" y2="1195.9" style="stroke:#0000ff; stroke-width:4; stroke-opacity:1"/>
<line clip-path="url(#clip982)" x1="1293.49" y1="1117.39" x2="1261.49" y2="1117.39" style="stroke:#0000ff; stroke-width:4; stroke-opacity:1"/>
<line clip-path="url(#clip982)" x1="2307.89" y1="815.121" x2="2275.89" y2="815.121" style="stroke:#0000ff; stroke-width:4; stroke-opacity:1"/>
<line clip-path="url(#clip982)" x1="2307.89" y1="583.906" x2="2275.89" y2="583.906" style="stroke:#0000ff; stroke-width:4; stroke-opacity:1"/>
<polyline clip-path="url(#clip982)" style="stroke:#ff0000; stroke-linecap:round; stroke-linejoin:round; stroke-width:4; stroke-opacity:1; fill:none" points="263.091,377.093 1277.49,932.82 2291.89,774.114 "/>
<polyline clip-path="url(#clip982)" style="stroke:#ff0000; stroke-linecap:round; stroke-linejoin:round; stroke-width:4; stroke-opacity:1; fill:none" points="263.091,593.93 263.091,160.256 "/>
<polyline clip-path="url(#clip982)" style="stroke:#ff0000; stroke-linecap:round; stroke-linejoin:round; stroke-width:4; stroke-opacity:1; fill:none" points="1277.49,1002.68 1277.49,862.961 "/>
<polyline clip-path="url(#clip982)" style="stroke:#ff0000; stroke-linecap:round; stroke-linejoin:round; stroke-width:4; stroke-opacity:1; fill:none" points="2291.89,864.81 2291.89,683.418 "/>
<line clip-path="url(#clip982)" x1="279.091" y1="593.93" x2="247.091" y2="593.93" style="stroke:#ff0000; stroke-width:4; stroke-opacity:1"/>
<line clip-path="url(#clip982)" x1="279.091" y1="160.256" x2="247.091" y2="160.256" style="stroke:#ff0000; stroke-width:4; stroke-opacity:1"/>
<line clip-path="url(#clip982)" x1="1293.49" y1="1002.68" x2="1261.49" y2="1002.68" style="stroke:#ff0000; stroke-width:4; stroke-opacity:1"/>
<line clip-path="url(#clip982)" x1="1293.49" y1="862.961" x2="1261.49" y2="862.961" style="stroke:#ff0000; stroke-width:4; stroke-opacity:1"/>
<line clip-path="url(#clip982)" x1="2307.89" y1="864.81" x2="2275.89" y2="864.81" style="stroke:#ff0000; stroke-width:4; stroke-opacity:1"/>
<line clip-path="url(#clip982)" x1="2307.89" y1="683.418" x2="2275.89" y2="683.418" style="stroke:#ff0000; stroke-width:4; stroke-opacity:1"/>
<path clip-path="url(#clip980)" d="M1928.26 425.996 L2281.07 425.996 L2281.07 166.796 L1928.26 166.796  Z" fill="#ffffff" fill-rule="evenodd" fill-opacity="1"/>
<polyline clip-path="url(#clip980)" style="stroke:#000000; stroke-linecap:round; stroke-linejoin:round; stroke-width:4; stroke-opacity:1; fill:none" points="1928.26,425.996 2281.07,425.996 2281.07,166.796 1928.26,166.796 1928.26,425.996 "/>
<polyline clip-path="url(#clip980)" style="stroke:#000000; stroke-linecap:round; stroke-linejoin:round; stroke-width:4; stroke-opacity:1; fill:none" points="1952.16,218.636 2095.53,218.636 "/>
<path clip-path="url(#clip980)" d="M2119.42 201.356 L2124.1 201.356 L2124.1 235.916 L2119.42 235.916 L2119.42 201.356 Z" fill="#000000" fill-rule="nonzero" fill-opacity="1" /><path clip-path="url(#clip980)" d="M2150.28 213.925 L2150.28 199.897 L2154.54 199.897 L2154.54 235.916 L2150.28 235.916 L2150.28 232.027 Q2148.94 234.342 2146.88 235.476 Q2144.84 236.587 2141.97 236.587 Q2137.27 236.587 2134.31 232.837 Q2131.37 229.087 2131.37 222.976 Q2131.37 216.865 2134.31 213.115 Q2137.27 209.365 2141.97 209.365 Q2144.84 209.365 2146.88 210.499 Q2148.94 211.61 2150.28 213.925 M2135.77 222.976 Q2135.77 227.675 2137.69 230.36 Q2139.63 233.022 2143.01 233.022 Q2146.39 233.022 2148.33 230.36 Q2150.28 227.675 2150.28 222.976 Q2150.28 218.277 2148.33 215.615 Q2146.39 212.93 2143.01 212.93 Q2139.63 212.93 2137.69 215.615 Q2135.77 218.277 2135.77 222.976 Z" fill="#000000" fill-rule="nonzero" fill-opacity="1" /><path clip-path="url(#clip980)" d="M2185.49 221.888 L2185.49 223.971 L2165.9 223.971 Q2166.18 228.369 2168.54 230.684 Q2170.93 232.976 2175.16 232.976 Q2177.62 232.976 2179.91 232.374 Q2182.22 231.772 2184.49 230.569 L2184.49 234.596 Q2182.2 235.568 2179.79 236.078 Q2177.39 236.587 2174.91 236.587 Q2168.71 236.587 2165.07 232.976 Q2161.46 229.365 2161.46 223.207 Q2161.46 216.842 2164.89 213.115 Q2168.33 209.365 2174.17 209.365 Q2179.4 209.365 2182.43 212.745 Q2185.49 216.101 2185.49 221.888 M2181.23 220.638 Q2181.18 217.143 2179.26 215.059 Q2177.36 212.976 2174.21 212.976 Q2170.65 212.976 2168.5 214.99 Q2166.37 217.004 2166.04 220.661 L2181.23 220.638 Z" fill="#000000" fill-rule="nonzero" fill-opacity="1" /><path clip-path="url(#clip980)" d="M2204.26 222.883 Q2199.1 222.883 2197.11 224.064 Q2195.12 225.244 2195.12 228.092 Q2195.12 230.36 2196.6 231.703 Q2198.1 233.022 2200.67 233.022 Q2204.21 233.022 2206.34 230.522 Q2208.5 227.999 2208.5 223.832 L2208.5 222.883 L2204.26 222.883 M2212.76 221.124 L2212.76 235.916 L2208.5 235.916 L2208.5 231.981 Q2207.04 234.342 2204.86 235.476 Q2202.69 236.587 2199.54 236.587 Q2195.56 236.587 2193.2 234.365 Q2190.86 232.119 2190.86 228.369 Q2190.86 223.994 2193.77 221.772 Q2196.71 219.55 2202.52 219.55 L2208.5 219.55 L2208.5 219.133 Q2208.5 216.194 2206.55 214.596 Q2204.63 212.976 2201.14 212.976 Q2198.91 212.976 2196.81 213.508 Q2194.7 214.041 2192.76 215.106 L2192.76 211.17 Q2195.09 210.268 2197.29 209.828 Q2199.49 209.365 2201.58 209.365 Q2207.2 209.365 2209.98 212.282 Q2212.76 215.198 2212.76 221.124 Z" fill="#000000" fill-rule="nonzero" fill-opacity="1" /><path clip-path="url(#clip980)" d="M2221.53 199.897 L2225.79 199.897 L2225.79 235.916 L2221.53 235.916 L2221.53 199.897 Z" fill="#000000" fill-rule="nonzero" fill-opacity="1" /><polyline clip-path="url(#clip980)" style="stroke:#008000; stroke-linecap:round; stroke-linejoin:round; stroke-width:4; stroke-opacity:1; fill:none" points="1952.16,270.476 2095.53,270.476 "/>
<path clip-path="url(#clip980)" d="M2135.05 269.122 Q2138.4 269.839 2140.28 272.108 Q2142.18 274.376 2142.18 277.709 Q2142.18 282.825 2138.66 285.626 Q2135.14 288.427 2128.66 288.427 Q2126.48 288.427 2124.17 287.987 Q2121.88 287.571 2119.42 286.714 L2119.42 282.2 Q2121.37 283.334 2123.68 283.913 Q2126 284.492 2128.52 284.492 Q2132.92 284.492 2135.21 282.756 Q2137.52 281.02 2137.52 277.709 Q2137.52 274.654 2135.37 272.941 Q2133.24 271.205 2129.42 271.205 L2125.4 271.205 L2125.4 267.362 L2129.61 267.362 Q2133.06 267.362 2134.89 265.997 Q2136.71 264.608 2136.71 262.015 Q2136.71 259.353 2134.82 257.941 Q2132.94 256.506 2129.42 256.506 Q2127.5 256.506 2125.3 256.923 Q2123.1 257.339 2120.46 258.219 L2120.46 254.052 Q2123.13 253.311 2125.44 252.941 Q2127.78 252.571 2129.84 252.571 Q2135.16 252.571 2138.27 255.001 Q2141.37 257.409 2141.37 261.529 Q2141.37 264.399 2139.72 266.39 Q2138.08 268.358 2135.05 269.122 Z" fill="#000000" fill-rule="nonzero" fill-opacity="1" /><path clip-path="url(#clip980)" d="M2161.04 256.274 Q2157.43 256.274 2155.6 259.839 Q2153.8 263.381 2153.8 270.51 Q2153.8 277.617 2155.6 281.182 Q2157.43 284.723 2161.04 284.723 Q2164.68 284.723 2166.48 281.182 Q2168.31 277.617 2168.31 270.51 Q2168.31 263.381 2166.48 259.839 Q2164.68 256.274 2161.04 256.274 M2161.04 252.571 Q2166.85 252.571 2169.91 257.177 Q2172.99 261.76 2172.99 270.51 Q2172.99 279.237 2169.91 283.844 Q2166.85 288.427 2161.04 288.427 Q2155.23 288.427 2152.15 283.844 Q2149.1 279.237 2149.1 270.51 Q2149.1 261.76 2152.15 257.177 Q2155.23 252.571 2161.04 252.571 Z" fill="#000000" fill-rule="nonzero" fill-opacity="1" /><path clip-path="url(#clip980)" d="M2184.72 283.867 L2184.72 297.617 L2180.44 297.617 L2180.44 261.83 L2184.72 261.83 L2184.72 265.765 Q2186.07 263.45 2188.1 262.339 Q2190.16 261.205 2193.01 261.205 Q2197.73 261.205 2200.67 264.955 Q2203.64 268.705 2203.64 274.816 Q2203.64 280.927 2200.67 284.677 Q2197.73 288.427 2193.01 288.427 Q2190.16 288.427 2188.1 287.316 Q2186.07 286.182 2184.72 283.867 M2199.21 274.816 Q2199.21 270.117 2197.27 267.455 Q2195.35 264.77 2191.97 264.77 Q2188.59 264.77 2186.64 267.455 Q2184.72 270.117 2184.72 274.816 Q2184.72 279.515 2186.64 282.2 Q2188.59 284.862 2191.97 284.862 Q2195.35 284.862 2197.27 282.2 Q2199.21 279.515 2199.21 274.816 Z" fill="#000000" fill-rule="nonzero" fill-opacity="1" /><path clip-path="url(#clip980)" d="M2227.22 262.594 L2227.22 266.622 Q2225.42 265.696 2223.47 265.233 Q2221.53 264.77 2219.45 264.77 Q2216.27 264.77 2214.68 265.742 Q2213.1 266.714 2213.1 268.659 Q2213.1 270.14 2214.24 270.997 Q2215.37 271.83 2218.8 272.594 L2220.26 272.918 Q2224.79 273.89 2226.69 275.672 Q2228.61 277.432 2228.61 280.603 Q2228.61 284.214 2225.74 286.321 Q2222.89 288.427 2217.89 288.427 Q2215.81 288.427 2213.54 288.01 Q2211.3 287.617 2208.8 286.807 L2208.8 282.409 Q2211.16 283.635 2213.45 284.26 Q2215.74 284.862 2217.99 284.862 Q2221 284.862 2222.62 283.844 Q2224.24 282.802 2224.24 280.927 Q2224.24 279.191 2223.06 278.265 Q2221.9 277.339 2217.94 276.483 L2216.46 276.135 Q2212.5 275.302 2210.74 273.589 Q2208.98 271.853 2208.98 268.844 Q2208.98 265.186 2211.58 263.196 Q2214.17 261.205 2218.94 261.205 Q2221.3 261.205 2223.38 261.552 Q2225.46 261.899 2227.22 262.594 Z" fill="#000000" fill-rule="nonzero" fill-opacity="1" /><polyline clip-path="url(#clip980)" style="stroke:#0000ff; stroke-linecap:round; stroke-linejoin:round; stroke-width:4; stroke-opacity:1; fill:none" points="1952.16,322.316 2095.53,322.316 "/>
<path clip-path="url(#clip980)" d="M2120.88 305.036 L2139.24 305.036 L2139.24 308.971 L2125.16 308.971 L2125.16 317.443 Q2126.18 317.096 2127.2 316.934 Q2128.22 316.749 2129.24 316.749 Q2135.02 316.749 2138.4 319.92 Q2141.78 323.091 2141.78 328.508 Q2141.78 334.086 2138.31 337.188 Q2134.84 340.267 2128.52 340.267 Q2126.34 340.267 2124.08 339.897 Q2121.83 339.526 2119.42 338.786 L2119.42 334.086 Q2121.51 335.221 2123.73 335.776 Q2125.95 336.332 2128.43 336.332 Q2132.43 336.332 2134.77 334.225 Q2137.11 332.119 2137.11 328.508 Q2137.11 324.897 2134.77 322.79 Q2132.43 320.684 2128.43 320.684 Q2126.55 320.684 2124.68 321.1 Q2122.83 321.517 2120.88 322.397 L2120.88 305.036 Z" fill="#000000" fill-rule="nonzero" fill-opacity="1" /><path clip-path="url(#clip980)" d="M2161 308.114 Q2157.39 308.114 2155.56 311.679 Q2153.75 315.221 2153.75 322.35 Q2153.75 329.457 2155.56 333.022 Q2157.39 336.563 2161 336.563 Q2164.63 336.563 2166.44 333.022 Q2168.27 329.457 2168.27 322.35 Q2168.27 315.221 2166.44 311.679 Q2164.63 308.114 2161 308.114 M2161 304.411 Q2166.81 304.411 2169.86 309.017 Q2172.94 313.6 2172.94 322.35 Q2172.94 331.077 2169.86 335.684 Q2166.81 340.267 2161 340.267 Q2155.19 340.267 2152.11 335.684 Q2149.05 331.077 2149.05 322.35 Q2149.05 313.6 2152.11 309.017 Q2155.19 304.411 2161 304.411 Z" fill="#000000" fill-rule="nonzero" fill-opacity="1" /><path clip-path="url(#clip980)" d="M2184.68 335.707 L2184.68 349.457 L2180.39 349.457 L2180.39 313.67 L2184.68 313.67 L2184.68 317.605 Q2186.02 315.29 2188.06 314.179 Q2190.12 313.045 2192.96 313.045 Q2197.69 313.045 2200.63 316.795 Q2203.59 320.545 2203.59 326.656 Q2203.59 332.767 2200.63 336.517 Q2197.69 340.267 2192.96 340.267 Q2190.12 340.267 2188.06 339.156 Q2186.02 338.022 2184.68 335.707 M2199.17 326.656 Q2199.17 321.957 2197.22 319.295 Q2195.3 316.61 2191.92 316.61 Q2188.54 316.61 2186.6 319.295 Q2184.68 321.957 2184.68 326.656 Q2184.68 331.355 2186.6 334.04 Q2188.54 336.702 2191.92 336.702 Q2195.3 336.702 2197.22 334.04 Q2199.17 331.355 2199.17 326.656 Z" fill="#000000" fill-rule="nonzero" fill-opacity="1" /><path clip-path="url(#clip980)" d="M2227.18 314.434 L2227.18 318.462 Q2225.37 317.536 2223.43 317.073 Q2221.48 316.61 2219.4 316.61 Q2216.23 316.61 2214.63 317.582 Q2213.06 318.554 2213.06 320.499 Q2213.06 321.98 2214.19 322.837 Q2215.33 323.67 2218.75 324.434 L2220.21 324.758 Q2224.75 325.73 2226.64 327.512 Q2228.57 329.272 2228.57 332.443 Q2228.57 336.054 2225.7 338.161 Q2222.85 340.267 2217.85 340.267 Q2215.77 340.267 2213.5 339.85 Q2211.25 339.457 2208.75 338.647 L2208.75 334.249 Q2211.11 335.475 2213.4 336.1 Q2215.7 336.702 2217.94 336.702 Q2220.95 336.702 2222.57 335.684 Q2224.19 334.642 2224.19 332.767 Q2224.19 331.031 2223.01 330.105 Q2221.85 329.179 2217.89 328.323 L2216.41 327.975 Q2212.45 327.142 2210.7 325.429 Q2208.94 323.693 2208.94 320.684 Q2208.94 317.026 2211.53 315.036 Q2214.12 313.045 2218.89 313.045 Q2221.25 313.045 2223.33 313.392 Q2225.42 313.739 2227.18 314.434 Z" fill="#000000" fill-rule="nonzero" fill-opacity="1" /><polyline clip-path="url(#clip980)" style="stroke:#ff0000; stroke-linecap:round; stroke-linejoin:round; stroke-width:4; stroke-opacity:1; fill:none" points="1952.16,374.156 2095.53,374.156 "/>
<path clip-path="url(#clip980)" d="M2120.09 387.501 L2127.73 387.501 L2127.73 361.135 L2119.42 362.802 L2119.42 358.542 L2127.69 356.876 L2132.36 356.876 L2132.36 387.501 L2140 387.501 L2140 391.436 L2120.09 391.436 L2120.09 387.501 Z" fill="#000000" fill-rule="nonzero" fill-opacity="1" /><path clip-path="url(#clip980)" d="M2159.45 359.954 Q2155.83 359.954 2154.01 363.519 Q2152.2 367.061 2152.2 374.19 Q2152.2 381.297 2154.01 384.862 Q2155.83 388.403 2159.45 388.403 Q2163.08 388.403 2164.89 384.862 Q2166.71 381.297 2166.71 374.19 Q2166.71 367.061 2164.89 363.519 Q2163.08 359.954 2159.45 359.954 M2159.45 356.251 Q2165.26 356.251 2168.31 360.857 Q2171.39 365.44 2171.39 374.19 Q2171.39 382.917 2168.31 387.524 Q2165.26 392.107 2159.45 392.107 Q2153.64 392.107 2150.56 387.524 Q2147.5 382.917 2147.5 374.19 Q2147.5 365.44 2150.56 360.857 Q2153.64 356.251 2159.45 356.251 Z" fill="#000000" fill-rule="nonzero" fill-opacity="1" /><path clip-path="url(#clip980)" d="M2189.61 359.954 Q2186 359.954 2184.17 363.519 Q2182.36 367.061 2182.36 374.19 Q2182.36 381.297 2184.17 384.862 Q2186 388.403 2189.61 388.403 Q2193.24 388.403 2195.05 384.862 Q2196.88 381.297 2196.88 374.19 Q2196.88 367.061 2195.05 363.519 Q2193.24 359.954 2189.61 359.954 M2189.61 356.251 Q2195.42 356.251 2198.47 360.857 Q2201.55 365.44 2201.55 374.19 Q2201.55 382.917 2198.47 387.524 Q2195.42 392.107 2189.61 392.107 Q2183.8 392.107 2180.72 387.524 Q2177.66 382.917 2177.66 374.19 Q2177.66 365.44 2180.72 360.857 Q2183.8 356.251 2189.61 356.251 Z" fill="#000000" fill-rule="nonzero" fill-opacity="1" /><path clip-path="url(#clip980)" d="M2213.29 387.547 L2213.29 401.297 L2209.01 401.297 L2209.01 365.51 L2213.29 365.51 L2213.29 369.445 Q2214.63 367.13 2216.67 366.019 Q2218.73 364.885 2221.58 364.885 Q2226.3 364.885 2229.24 368.635 Q2232.2 372.385 2232.2 378.496 Q2232.2 384.607 2229.24 388.357 Q2226.3 392.107 2221.58 392.107 Q2218.73 392.107 2216.67 390.996 Q2214.63 389.862 2213.29 387.547 M2227.78 378.496 Q2227.78 373.797 2225.83 371.135 Q2223.91 368.45 2220.53 368.45 Q2217.15 368.45 2215.21 371.135 Q2213.29 373.797 2213.29 378.496 Q2213.29 383.195 2215.21 385.88 Q2217.15 388.542 2220.53 388.542 Q2223.91 388.542 2225.83 385.88 Q2227.78 383.195 2227.78 378.496 Z" fill="#000000" fill-rule="nonzero" fill-opacity="1" /><path clip-path="url(#clip980)" d="M2255.79 366.274 L2255.79 370.302 Q2253.98 369.376 2252.04 368.913 Q2250.09 368.45 2248.01 368.45 Q2244.84 368.45 2243.24 369.422 Q2241.67 370.394 2241.67 372.339 Q2241.67 373.82 2242.8 374.677 Q2243.94 375.51 2247.36 376.274 L2248.82 376.598 Q2253.36 377.57 2255.26 379.352 Q2257.18 381.112 2257.18 384.283 Q2257.18 387.894 2254.31 390.001 Q2251.46 392.107 2246.46 392.107 Q2244.38 392.107 2242.11 391.69 Q2239.86 391.297 2237.36 390.487 L2237.36 386.089 Q2239.72 387.315 2242.01 387.94 Q2244.31 388.542 2246.55 388.542 Q2249.56 388.542 2251.18 387.524 Q2252.8 386.482 2252.8 384.607 Q2252.8 382.871 2251.62 381.945 Q2250.46 381.019 2246.51 380.163 L2245.02 379.815 Q2241.07 378.982 2239.31 377.269 Q2237.55 375.533 2237.55 372.524 Q2237.55 368.866 2240.14 366.876 Q2242.73 364.885 2247.5 364.885 Q2249.86 364.885 2251.95 365.232 Q2254.03 365.579 2255.79 366.274 Z" fill="#000000" fill-rule="nonzero" fill-opacity="1" /></svg>
