<?xml version="1.0" encoding="utf-8"?>
<svg xmlns="http://www.w3.org/2000/svg" xmlns:xlink="http://www.w3.org/1999/xlink" width="600" height="400" viewBox="0 0 2400 1600">
<defs>
  <clipPath id="clip230">
    <rect x="0" y="0" width="2400" height="1600"/>
  </clipPath>
</defs>
<path clip-path="url(#clip230)" d="M0 1600 L2400 1600 L2400 0 L0 0  Z" fill="#ffffff" fill-rule="evenodd" fill-opacity="1"/>
<defs>
  <clipPath id="clip231">
    <rect x="480" y="0" width="1681" height="1600"/>
  </clipPath>
</defs>
<path clip-path="url(#clip230)" d="M175.445 1423.18 L2352.76 1423.18 L2352.76 123.472 L175.445 123.472  Z" fill="#ffffff" fill-rule="evenodd" fill-opacity="1"/>
<defs>
  <clipPath id="clip232">
    <rect x="175" y="123" width="2178" height="1301"/>
  </clipPath>
</defs>
<polyline clip-path="url(#clip232)" style="stroke:#000000; stroke-linecap:round; stroke-linejoin:round; stroke-width:2; stroke-opacity:0.1; fill:none" points="647.881,1423.18 647.881,123.472 "/>
<polyline clip-path="url(#clip232)" style="stroke:#000000; stroke-linecap:round; stroke-linejoin:round; stroke-width:2; stroke-opacity:0.1; fill:none" points="1195.63,1423.18 1195.63,123.472 "/>
<polyline clip-path="url(#clip232)" style="stroke:#000000; stroke-linecap:round; stroke-linejoin:round; stroke-width:2; stroke-opacity:0.1; fill:none" points="1743.38,1423.18 1743.38,123.472 "/>
<polyline clip-path="url(#clip232)" style="stroke:#000000; stroke-linecap:round; stroke-linejoin:round; stroke-width:2; stroke-opacity:0.1; fill:none" points="2291.13,1423.18 2291.13,123.472 "/>
<polyline clip-path="url(#clip232)" style="stroke:#000000; stroke-linecap:round; stroke-linejoin:round; stroke-width:2; stroke-opacity:0.1; fill:none" points="175.445,1289.85 2352.76,1289.85 "/>
<polyline clip-path="url(#clip232)" style="stroke:#000000; stroke-linecap:round; stroke-linejoin:round; stroke-width:2; stroke-opacity:0.1; fill:none" points="175.445,976.516 2352.76,976.516 "/>
<polyline clip-path="url(#clip232)" style="stroke:#000000; stroke-linecap:round; stroke-linejoin:round; stroke-width:2; stroke-opacity:0.1; fill:none" points="175.445,663.177 2352.76,663.177 "/>
<polyline clip-path="url(#clip232)" style="stroke:#000000; stroke-linecap:round; stroke-linejoin:round; stroke-width:2; stroke-opacity:0.1; fill:none" points="175.445,349.839 2352.76,349.839 "/>
<polyline clip-path="url(#clip230)" style="stroke:#000000; stroke-linecap:round; stroke-linejoin:round; stroke-width:4; stroke-opacity:1; fill:none" points="175.445,1423.18 2352.76,1423.18 "/>
<polyline clip-path="url(#clip230)" style="stroke:#000000; stroke-linecap:round; stroke-linejoin:round; stroke-width:4; stroke-opacity:1; fill:none" points="647.881,1423.18 647.881,1404.28 "/>
<polyline clip-path="url(#clip230)" style="stroke:#000000; stroke-linecap:round; stroke-linejoin:round; stroke-width:4; stroke-opacity:1; fill:none" points="1195.63,1423.18 1195.63,1404.28 "/>
<polyline clip-path="url(#clip230)" style="stroke:#000000; stroke-linecap:round; stroke-linejoin:round; stroke-width:4; stroke-opacity:1; fill:none" points="1743.38,1423.18 1743.38,1404.28 "/>
<polyline clip-path="url(#clip230)" style="stroke:#000000; stroke-linecap:round; stroke-linejoin:round; stroke-width:4; stroke-opacity:1; fill:none" points="2291.13,1423.18 2291.13,1404.28 "/>
<path clip-path="url(#clip230)" d="M636.052 1455.09 L624.246 1473.54 L636.052 1473.54 L636.052 1455.09 M634.825 1451.02 L640.705 1451.02 L640.705 1473.54 L645.635 1473.54 L645.635 1477.43 L640.705 1477.43 L640.705 1485.58 L636.052 1485.58 L636.052 1477.43 L620.45 1477.43 L620.45 1472.92 L634.825 1451.02 Z" fill="#000000" fill-rule="nonzero" fill-opacity="1" /><path clip-path="url(#clip230)" d="M663.367 1454.1 Q659.755 1454.1 657.927 1457.66 Q656.121 1461.2 656.121 1468.33 Q656.121 1475.44 657.927 1479.01 Q659.755 1482.55 663.367 1482.55 Q667.001 1482.55 668.806 1479.01 Q670.635 1475.44 670.635 1468.33 Q670.635 1461.2 668.806 1457.66 Q667.001 1454.1 663.367 1454.1 M663.367 1450.39 Q669.177 1450.39 672.232 1455 Q675.311 1459.58 675.311 1468.33 Q675.311 1477.06 672.232 1481.67 Q669.177 1486.25 663.367 1486.25 Q657.556 1486.25 654.478 1481.67 Q651.422 1477.06 651.422 1468.33 Q651.422 1459.58 654.478 1455 Q657.556 1450.39 663.367 1450.39 Z" fill="#000000" fill-rule="nonzero" fill-opacity="1" /><path clip-path="url(#clip230)" d="M1181.04 1466.44 Q1177.89 1466.44 1176.04 1468.59 Q1174.21 1470.74 1174.21 1474.49 Q1174.21 1478.22 1176.04 1480.39 Q1177.89 1482.55 1181.04 1482.55 Q1184.18 1482.55 1186.01 1480.39 Q1187.87 1478.22 1187.87 1474.49 Q1187.87 1470.74 1186.01 1468.59 Q1184.18 1466.44 1181.04 1466.44 M1190.32 1451.78 L1190.32 1456.04 Q1188.56 1455.21 1186.75 1454.77 Q1184.97 1454.33 1183.21 1454.33 Q1178.58 1454.33 1176.13 1457.45 Q1173.7 1460.58 1173.35 1466.9 Q1174.72 1464.89 1176.78 1463.82 Q1178.84 1462.73 1181.31 1462.73 Q1186.52 1462.73 1189.53 1465.9 Q1192.56 1469.05 1192.56 1474.49 Q1192.56 1479.82 1189.42 1483.03 Q1186.27 1486.25 1181.04 1486.25 Q1175.04 1486.25 1171.87 1481.67 Q1168.7 1477.06 1168.7 1468.33 Q1168.7 1460.14 1172.59 1455.28 Q1176.48 1450.39 1183.03 1450.39 Q1184.79 1450.39 1186.57 1450.74 Q1188.37 1451.09 1190.32 1451.78 Z" fill="#000000" fill-rule="nonzero" fill-opacity="1" /><path clip-path="url(#clip230)" d="M1210.62 1454.1 Q1207.01 1454.1 1205.18 1457.66 Q1203.37 1461.2 1203.37 1468.33 Q1203.37 1475.44 1205.18 1479.01 Q1207.01 1482.55 1210.62 1482.55 Q1214.25 1482.55 1216.06 1479.01 Q1217.89 1475.44 1217.89 1468.33 Q1217.89 1461.2 1216.06 1457.66 Q1214.25 1454.1 1210.62 1454.1 M1210.62 1450.39 Q1216.43 1450.39 1219.49 1455 Q1222.56 1459.58 1222.56 1468.33 Q1222.56 1477.06 1219.49 1481.67 Q1216.43 1486.25 1210.62 1486.25 Q1204.81 1486.25 1201.73 1481.67 Q1198.68 1477.06 1198.68 1468.33 Q1198.68 1459.58 1201.73 1455 Q1204.81 1450.39 1210.62 1450.39 Z" fill="#000000" fill-rule="nonzero" fill-opacity="1" /><path clip-path="url(#clip230)" d="M1728.26 1469.17 Q1724.92 1469.17 1723 1470.95 Q1721.1 1472.73 1721.1 1475.86 Q1721.1 1478.98 1723 1480.77 Q1724.92 1482.55 1728.26 1482.55 Q1731.59 1482.55 1733.51 1480.77 Q1735.43 1478.96 1735.43 1475.86 Q1735.43 1472.73 1733.51 1470.95 Q1731.61 1469.17 1728.26 1469.17 M1723.58 1467.18 Q1720.57 1466.44 1718.88 1464.38 Q1717.21 1462.32 1717.21 1459.35 Q1717.21 1455.21 1720.15 1452.8 Q1723.12 1450.39 1728.26 1450.39 Q1733.42 1450.39 1736.36 1452.8 Q1739.3 1455.21 1739.3 1459.35 Q1739.3 1462.32 1737.61 1464.38 Q1735.94 1466.44 1732.95 1467.18 Q1736.33 1467.96 1738.21 1470.26 Q1740.11 1472.55 1740.11 1475.86 Q1740.11 1480.88 1737.03 1483.57 Q1733.97 1486.25 1728.26 1486.25 Q1722.54 1486.25 1719.46 1483.57 Q1716.4 1480.88 1716.4 1475.86 Q1716.4 1472.55 1718.3 1470.26 Q1720.2 1467.96 1723.58 1467.18 M1721.87 1459.79 Q1721.87 1462.48 1723.53 1463.98 Q1725.22 1465.49 1728.26 1465.49 Q1731.26 1465.49 1732.95 1463.98 Q1734.67 1462.48 1734.67 1459.79 Q1734.67 1457.11 1732.95 1455.6 Q1731.26 1454.1 1728.26 1454.1 Q1725.22 1454.1 1723.53 1455.6 Q1721.87 1457.11 1721.87 1459.79 Z" fill="#000000" fill-rule="nonzero" fill-opacity="1" /><path clip-path="url(#clip230)" d="M1758.42 1454.1 Q1754.81 1454.1 1752.98 1457.66 Q1751.17 1461.2 1751.17 1468.33 Q1751.17 1475.44 1752.98 1479.01 Q1754.81 1482.55 1758.42 1482.55 Q1762.05 1482.55 1763.86 1479.01 Q1765.69 1475.44 1765.69 1468.33 Q1765.69 1461.2 1763.86 1457.66 Q1762.05 1454.1 1758.42 1454.1 M1758.42 1450.39 Q1764.23 1450.39 1767.28 1455 Q1770.36 1459.58 1770.36 1468.33 Q1770.36 1477.06 1767.28 1481.67 Q1764.23 1486.25 1758.42 1486.25 Q1752.61 1486.25 1749.53 1481.67 Q1746.47 1477.06 1746.47 1468.33 Q1746.47 1459.58 1749.53 1455 Q1752.61 1450.39 1758.42 1450.39 Z" fill="#000000" fill-rule="nonzero" fill-opacity="1" /><path clip-path="url(#clip230)" d="M2250.74 1481.64 L2258.38 1481.64 L2258.38 1455.28 L2250.07 1456.95 L2250.07 1452.69 L2258.33 1451.02 L2263.01 1451.02 L2263.01 1481.64 L2270.65 1481.64 L2270.65 1485.58 L2250.74 1485.58 L2250.74 1481.64 Z" fill="#000000" fill-rule="nonzero" fill-opacity="1" /><path clip-path="url(#clip230)" d="M2290.09 1454.1 Q2286.48 1454.1 2284.65 1457.66 Q2282.85 1461.2 2282.85 1468.33 Q2282.85 1475.44 2284.65 1479.01 Q2286.48 1482.55 2290.09 1482.55 Q2293.73 1482.55 2295.53 1479.01 Q2297.36 1475.44 2297.36 1468.33 Q2297.36 1461.2 2295.53 1457.66 Q2293.73 1454.1 2290.09 1454.1 M2290.09 1450.39 Q2295.9 1450.39 2298.96 1455 Q2302.04 1459.58 2302.04 1468.33 Q2302.04 1477.06 2298.96 1481.67 Q2295.9 1486.25 2290.09 1486.25 Q2284.28 1486.25 2281.2 1481.67 Q2278.15 1477.06 2278.15 1468.33 Q2278.15 1459.58 2281.2 1455 Q2284.28 1450.39 2290.09 1450.39 Z" fill="#000000" fill-rule="nonzero" fill-opacity="1" /><path clip-path="url(#clip230)" d="M2320.25 1454.1 Q2316.64 1454.1 2314.81 1457.66 Q2313.01 1461.2 2313.01 1468.33 Q2313.01 1475.44 2314.81 1479.01 Q2316.64 1482.55 2320.25 1482.55 Q2323.89 1482.55 2325.69 1479.01 Q2327.52 1475.44 2327.52 1468.33 Q2327.52 1461.2 2325.69 1457.66 Q2323.89 1454.1 2320.25 1454.1 M2320.25 1450.39 Q2326.06 1450.39 2329.12 1455 Q2332.2 1459.58 2332.2 1468.33 Q2332.2 1477.06 2329.12 1481.67 Q2326.06 1486.25 2320.25 1486.25 Q2314.44 1486.25 2311.37 1481.67 Q2308.31 1477.06 2308.31 1468.33 Q2308.31 1459.58 2311.37 1455 Q2314.44 1450.39 2320.25 1450.39 Z" fill="#000000" fill-rule="nonzero" fill-opacity="1" /><path clip-path="url(#clip230)" d="M728.952 1520.52 L758.998 1520.52 L758.998 1525.93 L735.381 1525.93 L735.381 1540 L758.011 1540 L758.011 1545.41 L735.381 1545.41 L735.381 1562.63 L759.571 1562.63 L759.571 1568.04 L728.952 1568.04 L728.952 1520.52 Z" fill="#000000" fill-rule="nonzero" fill-opacity="1" /><path clip-path="url(#clip230)" d="M799.515 1546.53 L799.515 1568.04 L793.659 1568.04 L793.659 1546.72 Q793.659 1541.66 791.686 1539.14 Q789.712 1536.63 785.765 1536.63 Q781.023 1536.63 778.286 1539.65 Q775.548 1542.68 775.548 1547.9 L775.548 1568.04 L769.66 1568.04 L769.66 1532.4 L775.548 1532.4 L775.548 1537.93 Q777.649 1534.72 780.482 1533.13 Q783.346 1531.54 787.07 1531.54 Q793.213 1531.54 796.364 1535.36 Q799.515 1539.14 799.515 1546.53 Z" fill="#000000" fill-rule="nonzero" fill-opacity="1" /><path clip-path="url(#clip230)" d="M841.688 1548.76 L841.688 1551.62 L814.761 1551.62 Q815.143 1557.67 818.39 1560.85 Q821.668 1564 827.493 1564 Q830.866 1564 834.018 1563.17 Q837.2 1562.35 840.32 1560.69 L840.32 1566.23 Q837.169 1567.57 833.858 1568.27 Q830.548 1568.97 827.143 1568.97 Q818.612 1568.97 813.615 1564 Q808.65 1559.04 808.65 1550.57 Q808.65 1541.82 813.361 1536.69 Q818.103 1531.54 826.124 1531.54 Q833.317 1531.54 837.487 1536.18 Q841.688 1540.8 841.688 1548.76 M835.832 1547.04 Q835.768 1542.23 833.126 1539.37 Q830.516 1536.5 826.188 1536.5 Q821.286 1536.5 818.326 1539.27 Q815.398 1542.04 814.952 1547.07 L835.832 1547.04 Z" fill="#000000" fill-rule="nonzero" fill-opacity="1" /><path clip-path="url(#clip230)" d="M871.957 1537.87 Q870.97 1537.3 869.793 1537.04 Q868.647 1536.76 867.246 1536.76 Q862.281 1536.76 859.608 1540 Q856.966 1543.22 856.966 1549.27 L856.966 1568.04 L851.078 1568.04 L851.078 1532.4 L856.966 1532.4 L856.966 1537.93 Q858.812 1534.69 861.772 1533.13 Q864.732 1531.54 868.965 1531.54 Q869.57 1531.54 870.302 1531.63 Q871.034 1531.7 871.925 1531.85 L871.957 1537.87 Z" fill="#000000" fill-rule="nonzero" fill-opacity="1" /><path clip-path="url(#clip230)" d="M900.412 1549.81 Q900.412 1543.44 897.77 1539.94 Q895.16 1536.44 890.418 1536.44 Q885.707 1536.44 883.065 1539.94 Q880.455 1543.44 880.455 1549.81 Q880.455 1556.14 883.065 1559.64 Q885.707 1563.14 890.418 1563.14 Q895.16 1563.14 897.77 1559.64 Q900.412 1556.14 900.412 1549.81 M906.268 1563.62 Q906.268 1572.72 902.226 1577.15 Q898.184 1581.6 889.845 1581.6 Q886.757 1581.6 884.02 1581.13 Q881.283 1580.68 878.705 1579.72 L878.705 1574.03 Q881.283 1575.43 883.797 1576.1 Q886.312 1576.76 888.922 1576.76 Q894.683 1576.76 897.547 1573.74 Q900.412 1570.75 900.412 1564.67 L900.412 1561.77 Q898.598 1564.92 895.765 1566.48 Q892.932 1568.04 888.985 1568.04 Q882.429 1568.04 878.418 1563.05 Q874.408 1558.05 874.408 1549.81 Q874.408 1541.53 878.418 1536.53 Q882.429 1531.54 888.985 1531.54 Q892.932 1531.54 895.765 1533.1 Q898.598 1534.66 900.412 1537.81 L900.412 1532.4 L906.268 1532.4 L906.268 1563.62 Z" fill="#000000" fill-rule="nonzero" fill-opacity="1" /><path clip-path="url(#clip230)" d="M933.163 1571.35 Q930.681 1577.72 928.325 1579.66 Q925.97 1581.6 922.023 1581.6 L917.345 1581.6 L917.345 1576.7 L920.782 1576.7 Q923.201 1576.7 924.538 1575.56 Q925.875 1574.41 927.498 1570.14 L928.548 1567.47 L914.13 1532.4 L920.336 1532.4 L931.476 1560.28 L942.616 1532.4 L948.823 1532.4 L933.163 1571.35 Z" fill="#000000" fill-rule="nonzero" fill-opacity="1" /><path clip-path="url(#clip230)" d="M991.441 1536.5 Q986.731 1536.5 983.994 1540.19 Q981.256 1543.85 981.256 1550.25 Q981.256 1556.65 983.962 1560.34 Q986.699 1564 991.441 1564 Q996.12 1564 998.857 1560.31 Q1001.59 1556.62 1001.59 1550.25 Q1001.59 1543.92 998.857 1540.23 Q996.12 1536.5 991.441 1536.5 M991.441 1531.54 Q999.08 1531.54 1003.44 1536.5 Q1007.8 1541.47 1007.8 1550.25 Q1007.8 1559 1003.44 1564 Q999.08 1568.97 991.441 1568.97 Q983.771 1568.97 979.41 1564 Q975.082 1559 975.082 1550.25 Q975.082 1541.47 979.41 1536.5 Q983.771 1531.54 991.441 1531.54 Z" fill="#000000" fill-rule="nonzero" fill-opacity="1" /><path clip-path="url(#clip230)" d="M1035.56 1518.52 L1035.56 1523.39 L1029.95 1523.39 Q1026.8 1523.39 1025.56 1524.66 Q1024.35 1525.93 1024.35 1529.24 L1024.35 1532.4 L1034 1532.4 L1034 1536.95 L1024.35 1536.95 L1024.35 1568.04 L1018.46 1568.04 L1018.46 1536.95 L1012.86 1536.95 L1012.86 1532.4 L1018.46 1532.4 L1018.46 1529.91 Q1018.46 1523.96 1021.23 1521.26 Q1024 1518.52 1030.02 1518.52 L1035.56 1518.52 Z" fill="#000000" fill-rule="nonzero" fill-opacity="1" /><path clip-path="url(#clip230)" d="M1061.18 1532.4 L1067.03 1532.4 L1067.03 1568.04 L1061.18 1568.04 L1061.18 1532.4 M1061.18 1518.52 L1067.03 1518.52 L1067.03 1525.93 L1061.18 1525.93 L1061.18 1518.52 Z" fill="#000000" fill-rule="nonzero" fill-opacity="1" /><path clip-path="url(#clip230)" d="M1108.92 1546.53 L1108.92 1568.04 L1103.06 1568.04 L1103.06 1546.72 Q1103.06 1541.66 1101.09 1539.14 Q1099.12 1536.63 1095.17 1536.63 Q1090.43 1536.63 1087.69 1539.65 Q1084.95 1542.68 1084.95 1547.9 L1084.95 1568.04 L1079.07 1568.04 L1079.07 1532.4 L1084.95 1532.4 L1084.95 1537.93 Q1087.05 1534.72 1089.89 1533.13 Q1092.75 1531.54 1096.48 1531.54 Q1102.62 1531.54 1105.77 1535.36 Q1108.92 1539.14 1108.92 1546.53 Z" fill="#000000" fill-rule="nonzero" fill-opacity="1" /><path clip-path="url(#clip230)" d="M1146.26 1533.76 L1146.26 1539.24 Q1143.77 1537.87 1141.26 1537.2 Q1138.78 1536.5 1136.23 1536.5 Q1130.53 1536.5 1127.38 1540.13 Q1124.23 1543.73 1124.23 1550.25 Q1124.23 1556.78 1127.38 1560.4 Q1130.53 1564 1136.23 1564 Q1138.78 1564 1141.26 1563.33 Q1143.77 1562.63 1146.26 1561.26 L1146.26 1566.68 Q1143.8 1567.82 1141.16 1568.39 Q1138.55 1568.97 1135.59 1568.97 Q1127.54 1568.97 1122.8 1563.91 Q1118.06 1558.85 1118.06 1550.25 Q1118.06 1541.53 1122.83 1536.53 Q1127.64 1531.54 1135.97 1531.54 Q1138.68 1531.54 1141.26 1532.11 Q1143.84 1532.65 1146.26 1533.76 Z" fill="#000000" fill-rule="nonzero" fill-opacity="1" /><path clip-path="url(#clip230)" d="M1156.44 1532.4 L1162.3 1532.4 L1162.3 1568.04 L1156.44 1568.04 L1156.44 1532.4 M1156.44 1518.52 L1162.3 1518.52 L1162.3 1525.93 L1156.44 1525.93 L1156.44 1518.52 Z" fill="#000000" fill-rule="nonzero" fill-opacity="1" /><path clip-path="url(#clip230)" d="M1198.01 1537.81 L1198.01 1518.52 L1203.87 1518.52 L1203.87 1568.04 L1198.01 1568.04 L1198.01 1562.7 Q1196.16 1565.88 1193.33 1567.44 Q1190.53 1568.97 1186.58 1568.97 Q1180.12 1568.97 1176.05 1563.81 Q1172 1558.65 1172 1550.25 Q1172 1541.85 1176.05 1536.69 Q1180.12 1531.54 1186.58 1531.54 Q1190.53 1531.54 1193.33 1533.1 Q1196.16 1534.62 1198.01 1537.81 M1178.05 1550.25 Q1178.05 1556.71 1180.69 1560.4 Q1183.37 1564.07 1188.01 1564.07 Q1192.66 1564.07 1195.34 1560.4 Q1198.01 1556.71 1198.01 1550.25 Q1198.01 1543.79 1195.34 1540.13 Q1192.66 1536.44 1188.01 1536.44 Q1183.37 1536.44 1180.69 1540.13 Q1178.05 1543.79 1178.05 1550.25 Z" fill="#000000" fill-rule="nonzero" fill-opacity="1" /><path clip-path="url(#clip230)" d="M1246.42 1548.76 L1246.42 1551.62 L1219.49 1551.62 Q1219.87 1557.67 1223.12 1560.85 Q1226.4 1564 1232.22 1564 Q1235.6 1564 1238.75 1563.17 Q1241.93 1562.35 1245.05 1560.69 L1245.05 1566.23 Q1241.9 1567.57 1238.59 1568.27 Q1235.28 1568.97 1231.87 1568.97 Q1223.34 1568.97 1218.35 1564 Q1213.38 1559.04 1213.38 1550.57 Q1213.38 1541.82 1218.09 1536.69 Q1222.83 1531.54 1230.86 1531.54 Q1238.05 1531.54 1242.22 1536.18 Q1246.42 1540.8 1246.42 1548.76 M1240.56 1547.04 Q1240.5 1542.23 1237.86 1539.37 Q1235.25 1536.5 1230.92 1536.5 Q1226.02 1536.5 1223.06 1539.27 Q1220.13 1542.04 1219.68 1547.07 L1240.56 1547.04 Z" fill="#000000" fill-rule="nonzero" fill-opacity="1" /><path clip-path="url(#clip230)" d="M1285.66 1546.53 L1285.66 1568.04 L1279.81 1568.04 L1279.81 1546.72 Q1279.81 1541.66 1277.83 1539.14 Q1275.86 1536.63 1271.91 1536.63 Q1267.17 1536.63 1264.43 1539.65 Q1261.7 1542.68 1261.7 1547.9 L1261.7 1568.04 L1255.81 1568.04 L1255.81 1532.4 L1261.7 1532.4 L1261.7 1537.93 Q1263.8 1534.72 1266.63 1533.13 Q1269.5 1531.54 1273.22 1531.54 Q1279.36 1531.54 1282.51 1535.36 Q1285.66 1539.14 1285.66 1546.53 Z" fill="#000000" fill-rule="nonzero" fill-opacity="1" /><path clip-path="url(#clip230)" d="M1303.14 1522.27 L1303.14 1532.4 L1315.2 1532.4 L1315.2 1536.95 L1303.14 1536.95 L1303.14 1556.3 Q1303.14 1560.66 1304.32 1561.9 Q1305.53 1563.14 1309.19 1563.14 L1315.2 1563.14 L1315.2 1568.04 L1309.19 1568.04 Q1302.41 1568.04 1299.83 1565.53 Q1297.25 1562.98 1297.25 1556.3 L1297.25 1536.95 L1292.95 1536.95 L1292.95 1532.4 L1297.25 1532.4 L1297.25 1522.27 L1303.14 1522.27 Z" fill="#000000" fill-rule="nonzero" fill-opacity="1" /><path clip-path="url(#clip230)" d="M1373.26 1546.53 L1373.26 1568.04 L1367.4 1568.04 L1367.4 1546.72 Q1367.4 1541.66 1365.43 1539.14 Q1363.45 1536.63 1359.51 1536.63 Q1354.76 1536.63 1352.03 1539.65 Q1349.29 1542.68 1349.29 1547.9 L1349.29 1568.04 L1343.4 1568.04 L1343.4 1532.4 L1349.29 1532.4 L1349.29 1537.93 Q1351.39 1534.72 1354.22 1533.13 Q1357.09 1531.54 1360.81 1531.54 Q1366.95 1531.54 1370.11 1535.36 Q1373.26 1539.14 1373.26 1546.53 Z" fill="#000000" fill-rule="nonzero" fill-opacity="1" /><path clip-path="url(#clip230)" d="M1415.43 1548.76 L1415.43 1551.62 L1388.5 1551.62 Q1388.88 1557.67 1392.13 1560.85 Q1395.41 1564 1401.23 1564 Q1404.61 1564 1407.76 1563.17 Q1410.94 1562.35 1414.06 1560.69 L1414.06 1566.23 Q1410.91 1567.57 1407.6 1568.27 Q1404.29 1568.97 1400.88 1568.97 Q1392.35 1568.97 1387.36 1564 Q1382.39 1559.04 1382.39 1550.57 Q1382.39 1541.82 1387.1 1536.69 Q1391.84 1531.54 1399.87 1531.54 Q1407.06 1531.54 1411.23 1536.18 Q1415.43 1540.8 1415.43 1548.76 M1409.57 1547.04 Q1409.51 1542.23 1406.87 1539.37 Q1404.26 1536.5 1399.93 1536.5 Q1395.03 1536.5 1392.07 1539.27 Q1389.14 1542.04 1388.69 1547.07 L1409.57 1547.04 Z" fill="#000000" fill-rule="nonzero" fill-opacity="1" /><path clip-path="url(#clip230)" d="M1424.44 1553.98 L1424.44 1532.4 L1430.29 1532.4 L1430.29 1553.75 Q1430.29 1558.81 1432.27 1561.36 Q1434.24 1563.87 1438.19 1563.87 Q1442.93 1563.87 1445.67 1560.85 Q1448.44 1557.83 1448.44 1552.61 L1448.44 1532.4 L1454.29 1532.4 L1454.29 1568.04 L1448.44 1568.04 L1448.44 1562.57 Q1446.3 1565.82 1443.47 1567.41 Q1440.67 1568.97 1436.95 1568.97 Q1430.8 1568.97 1427.62 1565.15 Q1424.44 1561.33 1424.44 1553.98 M1439.17 1531.54 L1439.17 1531.54 Z" fill="#000000" fill-rule="nonzero" fill-opacity="1" /><path clip-path="url(#clip230)" d="M1472.15 1522.27 L1472.15 1532.4 L1484.21 1532.4 L1484.21 1536.95 L1472.15 1536.95 L1472.15 1556.3 Q1472.15 1560.66 1473.33 1561.9 Q1474.53 1563.14 1478.2 1563.14 L1484.21 1563.14 L1484.21 1568.04 L1478.2 1568.04 Q1471.42 1568.04 1468.84 1565.53 Q1466.26 1562.98 1466.26 1556.3 L1466.26 1536.95 L1461.96 1536.95 L1461.96 1532.4 L1466.26 1532.4 L1466.26 1522.27 L1472.15 1522.27 Z" fill="#000000" fill-rule="nonzero" fill-opacity="1" /><path clip-path="url(#clip230)" d="M1512.57 1537.87 Q1511.58 1537.3 1510.41 1537.04 Q1509.26 1536.76 1507.86 1536.76 Q1502.89 1536.76 1500.22 1540 Q1497.58 1543.22 1497.58 1549.27 L1497.58 1568.04 L1491.69 1568.04 L1491.69 1532.4 L1497.58 1532.4 L1497.58 1537.93 Q1499.42 1534.69 1502.38 1533.13 Q1505.34 1531.54 1509.58 1531.54 Q1510.18 1531.54 1510.91 1531.63 Q1511.65 1531.7 1512.54 1531.85 L1512.57 1537.87 Z" fill="#000000" fill-rule="nonzero" fill-opacity="1" /><path clip-path="url(#clip230)" d="M1531.09 1536.5 Q1526.38 1536.5 1523.65 1540.19 Q1520.91 1543.85 1520.91 1550.25 Q1520.91 1556.65 1523.61 1560.34 Q1526.35 1564 1531.09 1564 Q1535.77 1564 1538.51 1560.31 Q1541.25 1556.62 1541.25 1550.25 Q1541.25 1543.92 1538.51 1540.23 Q1535.77 1536.5 1531.09 1536.5 M1531.09 1531.54 Q1538.73 1531.54 1543.09 1536.5 Q1547.45 1541.47 1547.45 1550.25 Q1547.45 1559 1543.09 1564 Q1538.73 1568.97 1531.09 1568.97 Q1523.42 1568.97 1519.06 1564 Q1514.73 1559 1514.73 1550.25 Q1514.73 1541.47 1519.06 1536.5 Q1523.42 1531.54 1531.09 1531.54 Z" fill="#000000" fill-rule="nonzero" fill-opacity="1" /><path clip-path="url(#clip230)" d="M1586.79 1546.53 L1586.79 1568.04 L1580.94 1568.04 L1580.94 1546.72 Q1580.94 1541.66 1578.96 1539.14 Q1576.99 1536.63 1573.04 1536.63 Q1568.3 1536.63 1565.56 1539.65 Q1562.83 1542.68 1562.83 1547.9 L1562.83 1568.04 L1556.94 1568.04 L1556.94 1532.4 L1562.83 1532.4 L1562.83 1537.93 Q1564.93 1534.72 1567.76 1533.13 Q1570.63 1531.54 1574.35 1531.54 Q1580.49 1531.54 1583.64 1535.36 Q1586.79 1539.14 1586.79 1546.53 Z" fill="#000000" fill-rule="nonzero" fill-opacity="1" /><path clip-path="url(#clip230)" d="M1633.26 1518.58 Q1629 1525.9 1626.93 1533.06 Q1624.86 1540.23 1624.86 1547.58 Q1624.86 1554.93 1626.93 1562.16 Q1629.03 1569.35 1633.26 1576.64 L1628.17 1576.64 Q1623.4 1569.16 1621.01 1561.93 Q1618.65 1554.71 1618.65 1547.58 Q1618.65 1540.48 1621.01 1533.29 Q1623.37 1526.09 1628.17 1518.58 L1633.26 1518.58 Z" fill="#000000" fill-rule="nonzero" fill-opacity="1" /><path clip-path="url(#clip230)" d="M1644.88 1520.52 L1654.46 1520.52 L1666.59 1552.86 L1678.78 1520.52 L1688.36 1520.52 L1688.36 1568.04 L1682.09 1568.04 L1682.09 1526.32 L1669.83 1558.91 L1663.37 1558.91 L1651.12 1526.32 L1651.12 1568.04 L1644.88 1568.04 L1644.88 1520.52 Z" fill="#000000" fill-rule="nonzero" fill-opacity="1" /><path clip-path="url(#clip230)" d="M1731.36 1548.76 L1731.36 1551.62 L1704.43 1551.62 Q1704.81 1557.67 1708.06 1560.85 Q1711.34 1564 1717.16 1564 Q1720.54 1564 1723.69 1563.17 Q1726.87 1562.35 1729.99 1560.69 L1729.99 1566.23 Q1726.84 1567.57 1723.53 1568.27 Q1720.22 1568.97 1716.81 1568.97 Q1708.28 1568.97 1703.29 1564 Q1698.32 1559.04 1698.32 1550.57 Q1698.32 1541.82 1703.03 1536.69 Q1707.77 1531.54 1715.8 1531.54 Q1722.99 1531.54 1727.16 1536.18 Q1731.36 1540.8 1731.36 1548.76 M1725.5 1547.04 Q1725.44 1542.23 1722.8 1539.37 Q1720.19 1536.5 1715.86 1536.5 Q1710.96 1536.5 1708 1539.27 Q1705.07 1542.04 1704.62 1547.07 L1725.5 1547.04 Z" fill="#000000" fill-rule="nonzero" fill-opacity="1" /><path clip-path="url(#clip230)" d="M1753.48 1568.04 L1735.34 1520.52 L1742.05 1520.52 L1757.11 1560.53 L1772.2 1520.52 L1778.88 1520.52 L1760.77 1568.04 L1753.48 1568.04 Z" fill="#000000" fill-rule="nonzero" fill-opacity="1" /><path clip-path="url(#clip230)" d="M1784.64 1518.58 L1789.73 1518.58 Q1794.51 1526.09 1796.86 1533.29 Q1799.25 1540.48 1799.25 1547.58 Q1799.25 1554.71 1796.86 1561.93 Q1794.51 1569.16 1789.73 1576.64 L1784.64 1576.64 Q1788.87 1569.35 1790.94 1562.16 Q1793.04 1554.93 1793.04 1547.58 Q1793.04 1540.23 1790.94 1533.06 Q1788.87 1525.9 1784.64 1518.58 Z" fill="#000000" fill-rule="nonzero" fill-opacity="1" /><polyline clip-path="url(#clip230)" style="stroke:#000000; stroke-linecap:round; stroke-linejoin:round; stroke-width:4; stroke-opacity:1; fill:none" points="175.445,1423.18 175.445,123.472 "/>
<polyline clip-path="url(#clip230)" style="stroke:#000000; stroke-linecap:round; stroke-linejoin:round; stroke-width:4; stroke-opacity:1; fill:none" points="175.445,1289.85 194.343,1289.85 "/>
<polyline clip-path="url(#clip230)" style="stroke:#000000; stroke-linecap:round; stroke-linejoin:round; stroke-width:4; stroke-opacity:1; fill:none" points="175.445,976.516 194.343,976.516 "/>
<polyline clip-path="url(#clip230)" style="stroke:#000000; stroke-linecap:round; stroke-linejoin:round; stroke-width:4; stroke-opacity:1; fill:none" points="175.445,663.177 194.343,663.177 "/>
<polyline clip-path="url(#clip230)" style="stroke:#000000; stroke-linecap:round; stroke-linejoin:round; stroke-width:4; stroke-opacity:1; fill:none" points="175.445,349.839 194.343,349.839 "/>
<path clip-path="url(#clip230)" d="M119.538 1303.2 L127.177 1303.2 L127.177 1276.83 L118.867 1278.5 L118.867 1274.24 L127.13 1272.57 L131.806 1272.57 L131.806 1303.2 L139.445 1303.2 L139.445 1307.13 L119.538 1307.13 L119.538 1303.2 Z" fill="#000000" fill-rule="nonzero" fill-opacity="1" /><path clip-path="url(#clip230)" d="M123.126 989.861 L139.445 989.861 L139.445 993.796 L117.501 993.796 L117.501 989.861 Q120.163 987.106 124.746 982.477 Q129.353 977.824 130.533 976.481 Q132.779 973.958 133.658 972.222 Q134.561 970.463 134.561 968.773 Q134.561 966.018 132.617 964.282 Q130.695 962.546 127.593 962.546 Q125.394 962.546 122.941 963.31 Q120.51 964.074 117.732 965.625 L117.732 960.903 Q120.556 959.768 123.01 959.19 Q125.464 958.611 127.501 958.611 Q132.871 958.611 136.066 961.296 Q139.26 963.981 139.26 968.472 Q139.26 970.602 138.45 972.523 Q137.663 974.421 135.556 977.014 Q134.978 977.685 131.876 980.903 Q128.774 984.097 123.126 989.861 Z" fill="#000000" fill-rule="nonzero" fill-opacity="1" /><path clip-path="url(#clip230)" d="M132.316 661.823 Q135.672 662.541 137.547 664.809 Q139.445 667.078 139.445 670.411 Q139.445 675.527 135.927 678.328 Q132.408 681.129 125.927 681.129 Q123.751 681.129 121.436 680.689 Q119.144 680.272 116.691 679.416 L116.691 674.902 Q118.635 676.036 120.95 676.615 Q123.265 677.193 125.788 677.193 Q130.186 677.193 132.478 675.457 Q134.792 673.721 134.792 670.411 Q134.792 667.355 132.64 665.643 Q130.51 663.906 126.691 663.906 L122.663 663.906 L122.663 660.064 L126.876 660.064 Q130.325 660.064 132.154 658.698 Q133.982 657.309 133.982 654.717 Q133.982 652.055 132.084 650.643 Q130.209 649.207 126.691 649.207 Q124.769 649.207 122.57 649.624 Q120.371 650.041 117.732 650.92 L117.732 646.754 Q120.394 646.013 122.709 645.643 Q125.047 645.272 127.107 645.272 Q132.431 645.272 135.533 647.703 Q138.635 650.11 138.635 654.231 Q138.635 657.101 136.992 659.092 Q135.348 661.059 132.316 661.823 Z" fill="#000000" fill-rule="nonzero" fill-opacity="1" /><path clip-path="url(#clip230)" d="M129.862 336.633 L118.056 355.082 L129.862 355.082 L129.862 336.633 M128.635 332.559 L134.515 332.559 L134.515 355.082 L139.445 355.082 L139.445 358.97 L134.515 358.97 L134.515 367.119 L129.862 367.119 L129.862 358.97 L114.26 358.97 L114.26 354.457 L128.635 332.559 Z" fill="#000000" fill-rule="nonzero" fill-opacity="1" /><path clip-path="url(#clip230)" d="M16.4842 1145.77 L16.4842 1115.72 L21.895 1115.72 L21.895 1139.34 L35.9632 1139.34 L35.9632 1116.71 L41.3741 1116.71 L41.3741 1139.34 L58.5933 1139.34 L58.5933 1115.15 L64.0042 1115.15 L64.0042 1145.77 L16.4842 1145.77 Z" fill="#000000" fill-rule="nonzero" fill-opacity="1" /><path clip-path="url(#clip230)" d="M42.4881 1075.2 L64.0042 1075.2 L64.0042 1081.06 L42.679 1081.06 Q37.6183 1081.06 35.1038 1083.03 Q32.5894 1085.01 32.5894 1088.95 Q32.5894 1093.7 35.6131 1096.43 Q38.6368 1099.17 43.8567 1099.17 L64.0042 1099.17 L64.0042 1105.06 L28.3562 1105.06 L28.3562 1099.17 L33.8944 1099.17 Q30.6797 1097.07 29.0883 1094.24 Q27.4968 1091.37 27.4968 1087.65 Q27.4968 1081.51 31.3163 1078.35 Q35.1038 1075.2 42.4881 1075.2 Z" fill="#000000" fill-rule="nonzero" fill-opacity="1" /><path clip-path="url(#clip230)" d="M44.7161 1033.03 L47.5806 1033.03 L47.5806 1059.96 Q53.6281 1059.58 56.8109 1056.33 Q59.9619 1053.05 59.9619 1047.23 Q59.9619 1043.85 59.1344 1040.7 Q58.3069 1037.52 56.6518 1034.4 L62.1899 1034.4 Q63.5267 1037.55 64.227 1040.86 Q64.9272 1044.17 64.9272 1047.58 Q64.9272 1056.11 59.9619 1061.1 Q54.9967 1066.07 46.5303 1066.07 Q37.7774 1066.07 32.6531 1061.36 Q27.4968 1056.62 27.4968 1048.6 Q27.4968 1041.4 32.1438 1037.23 Q36.7589 1033.03 44.7161 1033.03 M42.9973 1038.89 Q38.1912 1038.95 35.3266 1041.59 Q32.4621 1044.2 32.4621 1048.53 Q32.4621 1053.43 35.2312 1056.39 Q38.0002 1059.32 43.0292 1059.77 L42.9973 1038.89 Z" fill="#000000" fill-rule="nonzero" fill-opacity="1" /><path clip-path="url(#clip230)" d="M33.8307 1002.76 Q33.2578 1003.75 33.0032 1004.93 Q32.7167 1006.07 32.7167 1007.47 Q32.7167 1012.44 35.9632 1015.11 Q39.1779 1017.75 45.2253 1017.75 L64.0042 1017.75 L64.0042 1023.64 L28.3562 1023.64 L28.3562 1017.75 L33.8944 1017.75 Q30.6479 1015.91 29.0883 1012.95 Q27.4968 1009.99 27.4968 1005.75 Q27.4968 1005.15 27.5923 1004.42 Q27.656 1003.68 27.8151 1002.79 L33.8307 1002.76 Z" fill="#000000" fill-rule="nonzero" fill-opacity="1" /><path clip-path="url(#clip230)" d="M45.7664 974.307 Q39.4007 974.307 35.8996 976.949 Q32.3984 979.559 32.3984 984.301 Q32.3984 989.012 35.8996 991.654 Q39.4007 994.264 45.7664 994.264 Q52.1003 994.264 55.6014 991.654 Q59.1026 989.012 59.1026 984.301 Q59.1026 979.559 55.6014 976.949 Q52.1003 974.307 45.7664 974.307 M59.58 968.451 Q68.683 968.451 73.1071 972.493 Q77.5631 976.535 77.5631 984.874 Q77.5631 987.962 77.0857 990.699 Q76.6401 993.436 75.6852 996.014 L69.9879 996.014 Q71.3884 993.436 72.0568 990.922 Q72.7252 988.407 72.7252 985.797 Q72.7252 980.036 69.7015 977.172 Q66.7096 974.307 60.6303 974.307 L57.7339 974.307 Q60.885 976.121 62.4446 978.954 Q64.0042 981.787 64.0042 985.734 Q64.0042 992.29 59.0071 996.301 Q54.01 1000.31 45.7664 1000.31 Q37.491 1000.31 32.4939 996.301 Q27.4968 992.29 27.4968 985.734 Q27.4968 981.787 29.0564 978.954 Q30.616 976.121 33.7671 974.307 L28.3562 974.307 L28.3562 968.451 L59.58 968.451 Z" fill="#000000" fill-rule="nonzero" fill-opacity="1" /><path clip-path="url(#clip230)" d="M67.3143 941.556 Q73.68 944.038 75.6216 946.394 Q77.5631 948.749 77.5631 952.696 L77.5631 957.374 L72.6615 957.374 L72.6615 953.937 Q72.6615 951.518 71.5157 950.181 Q70.3699 948.844 66.1048 947.221 L63.4312 946.171 L28.3562 960.589 L28.3562 954.383 L56.238 943.243 L28.3562 932.103 L28.3562 925.896 L67.3143 941.556 Z" fill="#000000" fill-rule="nonzero" fill-opacity="1" /><path clip-path="url(#clip230)" d="M49.9359 897.696 L28.3562 897.696 L28.3562 891.84 L49.7131 891.84 Q54.7739 891.84 57.3202 889.866 Q59.8346 887.893 59.8346 883.946 Q59.8346 879.204 56.8109 876.466 Q53.7872 873.697 48.5673 873.697 L28.3562 873.697 L28.3562 867.841 L64.0042 867.841 L64.0042 873.697 L58.5296 873.697 Q61.7762 875.83 63.3676 878.663 Q64.9272 881.463 64.9272 885.187 Q64.9272 891.33 61.1078 894.513 Q57.2883 897.696 49.9359 897.696 M27.4968 882.959 L27.4968 882.959 Z" fill="#000000" fill-rule="nonzero" fill-opacity="1" /><path clip-path="url(#clip230)" d="M42.4881 826.145 L64.0042 826.145 L64.0042 832.002 L42.679 832.002 Q37.6183 832.002 35.1038 833.975 Q32.5894 835.949 32.5894 839.895 Q32.5894 844.638 35.6131 847.375 Q38.6368 850.112 43.8567 850.112 L64.0042 850.112 L64.0042 856.001 L28.3562 856.001 L28.3562 850.112 L33.8944 850.112 Q30.6797 848.012 29.0883 845.179 Q27.4968 842.314 27.4968 838.59 Q27.4968 832.447 31.3163 829.296 Q35.1038 826.145 42.4881 826.145 Z" fill="#000000" fill-rule="nonzero" fill-opacity="1" /><path clip-path="url(#clip230)" d="M29.7248 788.811 L35.1993 788.811 Q33.8307 791.293 33.1623 793.808 Q32.4621 796.29 32.4621 798.837 Q32.4621 804.534 36.0905 807.685 Q39.6872 810.836 46.212 810.836 Q52.7369 810.836 56.3653 807.685 Q59.9619 804.534 59.9619 798.837 Q59.9619 796.29 59.2935 793.808 Q58.5933 791.293 57.2247 788.811 L62.6355 788.811 Q63.7814 791.261 64.3543 793.903 Q64.9272 796.513 64.9272 799.473 Q64.9272 807.526 59.8664 812.268 Q54.8057 817.011 46.212 817.011 Q37.491 817.011 32.4939 812.236 Q27.4968 807.43 27.4968 799.091 Q27.4968 796.386 28.0697 793.808 Q28.6108 791.23 29.7248 788.811 Z" fill="#000000" fill-rule="nonzero" fill-opacity="1" /><path clip-path="url(#clip230)" d="M44.7161 748.134 L47.5806 748.134 L47.5806 775.061 Q53.6281 774.679 56.8109 771.432 Q59.9619 768.154 59.9619 762.329 Q59.9619 758.955 59.1344 755.804 Q58.3069 752.622 56.6518 749.502 L62.1899 749.502 Q63.5267 752.653 64.227 755.964 Q64.9272 759.274 64.9272 762.679 Q64.9272 771.209 59.9619 776.206 Q54.9967 781.172 46.5303 781.172 Q37.7774 781.172 32.6531 776.461 Q27.4968 771.719 27.4968 763.698 Q27.4968 756.505 32.1438 752.335 Q36.7589 748.134 44.7161 748.134 M42.9973 753.99 Q38.1912 754.054 35.3266 756.696 Q32.4621 759.306 32.4621 763.634 Q32.4621 768.536 35.2312 771.496 Q38.0002 774.424 43.0292 774.87 L42.9973 753.99 Z" fill="#000000" fill-rule="nonzero" fill-opacity="1" /><path clip-path="url(#clip230)" d="M33.8307 717.865 Q33.2578 718.851 33.0032 720.029 Q32.7167 721.175 32.7167 722.575 Q32.7167 727.541 35.9632 730.214 Q39.1779 732.856 45.2253 732.856 L64.0042 732.856 L64.0042 738.744 L28.3562 738.744 L28.3562 732.856 L33.8944 732.856 Q30.6479 731.01 29.0883 728.05 Q27.4968 725.09 27.4968 720.857 Q27.4968 720.252 27.5923 719.52 Q27.656 718.788 27.8151 717.897 L33.8307 717.865 Z" fill="#000000" fill-rule="nonzero" fill-opacity="1" /><path clip-path="url(#clip230)" d="M18.2347 705.929 L28.3562 705.929 L28.3562 693.866 L32.9077 693.866 L32.9077 705.929 L52.2594 705.929 Q56.6199 705.929 57.8613 704.751 Q59.1026 703.542 59.1026 699.882 L59.1026 693.866 L64.0042 693.866 L64.0042 699.882 Q64.0042 706.661 61.4897 709.239 Q58.9434 711.817 52.2594 711.817 L32.9077 711.817 L32.9077 716.114 L28.3562 716.114 L28.3562 711.817 L18.2347 711.817 L18.2347 705.929 Z" fill="#000000" fill-rule="nonzero" fill-opacity="1" /><path clip-path="url(#clip230)" d="M46.0847 669.963 Q46.0847 677.061 47.7079 679.798 Q49.3312 682.535 53.2461 682.535 Q56.3653 682.535 58.2114 680.498 Q60.0256 678.429 60.0256 674.896 Q60.0256 670.026 56.5881 667.098 Q53.1188 664.138 47.3897 664.138 L46.0847 664.138 L46.0847 669.963 M43.6657 658.282 L64.0042 658.282 L64.0042 664.138 L58.5933 664.138 Q61.8398 666.143 63.3994 669.135 Q64.9272 672.127 64.9272 676.456 Q64.9272 681.93 61.8716 685.177 Q58.7843 688.392 53.6281 688.392 Q47.6125 688.392 44.5569 684.381 Q41.5014 680.339 41.5014 672.35 L41.5014 664.138 L40.9285 664.138 Q36.8862 664.138 34.6901 666.812 Q32.4621 669.454 32.4621 674.26 Q32.4621 677.315 33.1941 680.212 Q33.9262 683.108 35.3903 685.782 L29.9795 685.782 Q28.7381 682.567 28.1334 679.543 Q27.4968 676.52 27.4968 673.655 Q27.4968 665.921 31.5072 662.101 Q35.5176 658.282 43.6657 658.282 Z" fill="#000000" fill-rule="nonzero" fill-opacity="1" /><path clip-path="url(#clip230)" d="M28.3562 646.219 L28.3562 640.362 L64.0042 640.362 L64.0042 646.219 L28.3562 646.219 M14.479 646.219 L14.479 640.362 L21.895 640.362 L21.895 646.219 L14.479 646.219 Z" fill="#000000" fill-rule="nonzero" fill-opacity="1" /><path clip-path="url(#clip230)" d="M42.4881 598.476 L64.0042 598.476 L64.0042 604.332 L42.679 604.332 Q37.6183 604.332 35.1038 606.306 Q32.5894 608.279 32.5894 612.226 Q32.5894 616.968 35.6131 619.706 Q38.6368 622.443 43.8567 622.443 L64.0042 622.443 L64.0042 628.331 L28.3562 628.331 L28.3562 622.443 L33.8944 622.443 Q30.6797 620.342 29.0883 617.509 Q27.4968 614.645 27.4968 610.921 Q27.4968 604.778 31.3163 601.627 Q35.1038 598.476 42.4881 598.476 Z" fill="#000000" fill-rule="nonzero" fill-opacity="1" /><path clip-path="url(#clip230)" d="M18.2347 581.002 L28.3562 581.002 L28.3562 568.939 L32.9077 568.939 L32.9077 581.002 L52.2594 581.002 Q56.6199 581.002 57.8613 579.824 Q59.1026 578.615 59.1026 574.955 L59.1026 568.939 L64.0042 568.939 L64.0042 574.955 Q64.0042 581.734 61.4897 584.312 Q58.9434 586.89 52.2594 586.89 L32.9077 586.89 L32.9077 591.187 L28.3562 591.187 L28.3562 586.89 L18.2347 586.89 L18.2347 581.002 Z" fill="#000000" fill-rule="nonzero" fill-opacity="1" /><path clip-path="url(#clip230)" d="M67.3143 546.404 Q73.68 548.887 75.6216 551.242 Q77.5631 553.598 77.5631 557.544 L77.5631 562.223 L72.6615 562.223 L72.6615 558.786 Q72.6615 556.367 71.5157 555.03 Q70.3699 553.693 66.1048 552.07 L63.4312 551.02 L28.3562 565.438 L28.3562 559.231 L56.238 548.091 L28.3562 536.951 L28.3562 530.745 L67.3143 546.404 Z" fill="#000000" fill-rule="nonzero" fill-opacity="1" /><path clip-path="url(#clip230)" d="M14.5426 487.872 Q21.8632 492.137 29.0246 494.206 Q36.186 496.275 43.5384 496.275 Q50.8908 496.275 58.1159 494.206 Q65.3091 492.105 72.5979 487.872 L72.5979 492.964 Q65.1182 497.739 57.8931 500.126 Q50.668 502.481 43.5384 502.481 Q36.4406 502.481 29.2474 500.126 Q22.0542 497.77 14.5426 492.964 L14.5426 487.872 Z" fill="#000000" fill-rule="nonzero" fill-opacity="1" /><path clip-path="url(#clip230)" d="M43.0928 435.259 Q43.0928 438.028 45.4481 439.62 Q47.8034 441.179 52.0048 441.179 Q56.1425 441.179 58.5296 439.62 Q60.885 438.028 60.885 435.259 Q60.885 432.554 58.5296 430.994 Q56.1425 429.403 52.0048 429.403 Q47.8353 429.403 45.48 430.994 Q43.0928 432.554 43.0928 435.259 M39.0506 435.259 Q39.0506 430.23 42.5517 427.27 Q46.0529 424.31 52.0048 424.31 Q57.9567 424.31 61.4579 427.302 Q64.9272 430.262 64.9272 435.259 Q64.9272 440.352 61.4579 443.312 Q57.9567 446.272 52.0048 446.272 Q46.021 446.272 42.5517 443.312 Q39.0506 440.32 39.0506 435.259 M19.667 468.106 Q19.667 470.844 22.0542 472.435 Q24.4095 473.995 28.5472 473.995 Q32.7485 473.995 35.1038 472.435 Q37.4592 470.875 37.4592 468.106 Q37.4592 465.337 35.1038 463.778 Q32.7485 462.186 28.5472 462.186 Q24.4413 462.186 22.0542 463.778 Q19.667 465.369 19.667 468.106 M15.6248 439.365 L15.6248 434.273 L64.9272 464 L64.9272 469.093 L15.6248 439.365 M15.6248 468.106 Q15.6248 463.077 19.1259 460.085 Q22.5952 457.094 28.5472 457.094 Q34.5628 457.094 38.0321 460.085 Q41.5014 463.046 41.5014 468.106 Q41.5014 473.167 38.0321 476.127 Q34.5309 479.055 28.5472 479.055 Q22.6271 479.055 19.1259 476.095 Q15.6248 473.135 15.6248 468.106 Z" fill="#000000" fill-rule="nonzero" fill-opacity="1" /><path clip-path="url(#clip230)" d="M14.5426 415.494 L14.5426 410.401 Q22.0542 405.627 29.2474 403.272 Q36.4406 400.884 43.5384 400.884 Q50.668 400.884 57.8931 403.272 Q65.1182 405.627 72.5979 410.401 L72.5979 415.494 Q65.3091 411.261 58.1159 409.192 Q50.8908 407.091 43.5384 407.091 Q36.186 407.091 29.0246 409.192 Q21.8632 411.261 14.5426 415.494 Z" fill="#000000" fill-rule="nonzero" fill-opacity="1" /><path clip-path="url(#clip230)" d="M579.559 12.096 L587.782 12.096 L587.782 48.8377 Q587.782 58.5599 591.306 62.8538 Q594.83 67.1073 602.73 67.1073 Q610.588 67.1073 614.113 62.8538 Q617.637 58.5599 617.637 48.8377 L617.637 12.096 L625.86 12.096 L625.86 49.8504 Q625.86 61.6791 619.987 67.7149 Q614.153 73.7508 602.73 73.7508 Q591.266 73.7508 585.392 67.7149 Q579.559 61.6791 579.559 49.8504 L579.559 12.096 Z" fill="#000000" fill-rule="nonzero" fill-opacity="1" /><path clip-path="url(#clip230)" d="M678.603 45.1919 L678.603 72.576 L671.149 72.576 L671.149 45.4349 Q671.149 38.994 668.638 35.7938 Q666.126 32.5936 661.103 32.5936 Q655.067 32.5936 651.584 36.4419 Q648.1 40.2903 648.1 46.9338 L648.1 72.576 L640.606 72.576 L640.606 27.2059 L648.1 27.2059 L648.1 34.2544 Q650.773 30.163 654.379 28.1376 Q658.025 26.1121 662.764 26.1121 Q670.582 26.1121 674.593 30.9732 Q678.603 35.7938 678.603 45.1919 Z" fill="#000000" fill-rule="nonzero" fill-opacity="1" /><path clip-path="url(#clip230)" d="M726.12 28.9478 L726.12 35.9153 Q722.961 34.1734 719.76 33.3227 Q716.601 32.4315 713.36 32.4315 Q706.109 32.4315 702.098 37.0496 Q698.088 41.6271 698.088 49.9314 Q698.088 58.2358 702.098 62.8538 Q706.109 67.4314 713.36 67.4314 Q716.601 67.4314 719.76 66.5807 Q722.961 65.6895 726.12 63.9476 L726.12 70.8341 Q723.001 72.2924 719.639 73.0216 Q716.317 73.7508 712.55 73.7508 Q702.301 73.7508 696.265 67.3098 Q690.229 60.8689 690.229 49.9314 Q690.229 38.832 696.306 32.472 Q702.422 26.1121 713.036 26.1121 Q716.479 26.1121 719.76 26.8413 Q723.042 27.5299 726.12 28.9478 Z" fill="#000000" fill-rule="nonzero" fill-opacity="1" /><path clip-path="url(#clip230)" d="M777.891 48.0275 L777.891 51.6733 L743.62 51.6733 Q744.106 59.3701 748.238 63.421 Q752.411 67.4314 759.824 67.4314 Q764.118 67.4314 768.128 66.3781 Q772.179 65.3249 776.149 63.2184 L776.149 70.267 Q772.138 71.9684 767.926 72.8596 Q763.713 73.7508 759.378 73.7508 Q748.522 73.7508 742.162 67.4314 Q735.842 61.1119 735.842 50.3365 Q735.842 39.1965 741.838 32.6746 Q747.874 26.1121 758.082 26.1121 Q767.237 26.1121 772.544 32.0264 Q777.891 37.9003 777.891 48.0275 M770.437 45.84 Q770.356 39.7232 766.994 36.0774 Q763.672 32.4315 758.163 32.4315 Q751.924 32.4315 748.157 35.9558 Q744.43 39.4801 743.863 45.8805 L770.437 45.84 Z" fill="#000000" fill-rule="nonzero" fill-opacity="1" /><path clip-path="url(#clip230)" d="M816.415 34.1734 Q815.159 33.4443 813.66 33.1202 Q812.202 32.7556 810.42 32.7556 Q804.1 32.7556 800.697 36.8875 Q797.335 40.9789 797.335 48.6757 L797.335 72.576 L789.841 72.576 L789.841 27.2059 L797.335 27.2059 L797.335 34.2544 Q799.685 30.1225 803.452 28.1376 Q807.219 26.1121 812.607 26.1121 Q813.377 26.1121 814.308 26.2337 Q815.24 26.3147 816.374 26.5172 L816.415 34.1734 Z" fill="#000000" fill-rule="nonzero" fill-opacity="1" /><path clip-path="url(#clip230)" d="M831.606 14.324 L831.606 27.2059 L846.959 27.2059 L846.959 32.9987 L831.606 32.9987 L831.606 57.6282 Q831.606 63.1779 833.105 64.7578 Q834.644 66.3376 839.302 66.3376 L846.959 66.3376 L846.959 72.576 L839.302 72.576 Q830.674 72.576 827.393 69.3758 Q824.112 66.1351 824.112 57.6282 L824.112 32.9987 L818.643 32.9987 L818.643 27.2059 L824.112 27.2059 L824.112 14.324 L831.606 14.324 Z" fill="#000000" fill-rule="nonzero" fill-opacity="1" /><path clip-path="url(#clip230)" d="M877.381 49.7694 Q868.347 49.7694 864.864 51.8354 Q861.38 53.9013 861.38 58.8839 Q861.38 62.8538 863.972 65.2034 Q866.606 67.5124 871.102 67.5124 Q877.3 67.5124 881.027 63.1374 Q884.794 58.7219 884.794 51.4303 L884.794 49.7694 L877.381 49.7694 M892.248 46.6907 L892.248 72.576 L884.794 72.576 L884.794 65.6895 Q882.242 69.8214 878.434 71.8063 Q874.626 73.7508 869.117 73.7508 Q862.15 73.7508 858.018 69.8619 Q853.926 65.9325 853.926 59.3701 Q853.926 51.7138 859.03 47.825 Q864.175 43.9361 874.343 43.9361 L884.794 43.9361 L884.794 43.2069 Q884.794 38.0623 881.391 35.2672 Q878.029 32.4315 871.912 32.4315 Q868.023 32.4315 864.337 33.3632 Q860.651 34.295 857.248 36.1584 L857.248 29.2718 Q861.339 27.692 865.188 26.9223 Q869.036 26.1121 872.682 26.1121 Q882.526 26.1121 887.387 31.2163 Q892.248 36.3204 892.248 46.6907 Z" fill="#000000" fill-rule="nonzero" fill-opacity="1" /><path clip-path="url(#clip230)" d="M907.601 27.2059 L915.054 27.2059 L915.054 72.576 L907.601 72.576 L907.601 27.2059 M907.601 9.54393 L915.054 9.54393 L915.054 18.9825 L907.601 18.9825 L907.601 9.54393 Z" fill="#000000" fill-rule="nonzero" fill-opacity="1" /><path clip-path="url(#clip230)" d="M968.364 45.1919 L968.364 72.576 L960.911 72.576 L960.911 45.4349 Q960.911 38.994 958.399 35.7938 Q955.888 32.5936 950.864 32.5936 Q944.829 32.5936 941.345 36.4419 Q937.861 40.2903 937.861 46.9338 L937.861 72.576 L930.367 72.576 L930.367 27.2059 L937.861 27.2059 L937.861 34.2544 Q940.535 30.163 944.14 28.1376 Q947.786 26.1121 952.525 26.1121 Q960.344 26.1121 964.354 30.9732 Q968.364 35.7938 968.364 45.1919 Z" fill="#000000" fill-rule="nonzero" fill-opacity="1" /><path clip-path="url(#clip230)" d="M990.604 14.324 L990.604 27.2059 L1005.96 27.2059 L1005.96 32.9987 L990.604 32.9987 L990.604 57.6282 Q990.604 63.1779 992.103 64.7578 Q993.642 66.3376 998.3 66.3376 L1005.96 66.3376 L1005.96 72.576 L998.3 72.576 Q989.672 72.576 986.391 69.3758 Q983.11 66.1351 983.11 57.6282 L983.11 32.9987 L977.641 32.9987 L977.641 27.2059 L983.11 27.2059 L983.11 14.324 L990.604 14.324 Z" fill="#000000" fill-rule="nonzero" fill-opacity="1" /><path clip-path="url(#clip230)" d="M1034.64 76.7889 Q1031.48 84.8907 1028.48 87.3618 Q1025.48 89.8329 1020.46 89.8329 L1014.5 89.8329 L1014.5 83.5945 L1018.88 83.5945 Q1021.96 83.5945 1023.66 82.1361 Q1025.36 80.6778 1027.43 75.2496 L1028.76 71.8468 L1010.41 27.2059 L1018.31 27.2059 L1032.49 62.6918 L1046.67 27.2059 L1054.57 27.2059 L1034.64 76.7889 Z" fill="#000000" fill-rule="nonzero" fill-opacity="1" /><path clip-path="url(#clip230)" d="M1108.81 32.4315 Q1102.81 32.4315 1099.33 37.1306 Q1095.85 41.7891 1095.85 49.9314 Q1095.85 58.0738 1099.29 62.7728 Q1102.77 67.4314 1108.81 67.4314 Q1114.76 67.4314 1118.25 62.7323 Q1121.73 58.0333 1121.73 49.9314 Q1121.73 41.8701 1118.25 37.1711 Q1114.76 32.4315 1108.81 32.4315 M1108.81 26.1121 Q1118.53 26.1121 1124.08 32.4315 Q1129.63 38.7509 1129.63 49.9314 Q1129.63 61.0714 1124.08 67.4314 Q1118.53 73.7508 1108.81 73.7508 Q1099.05 73.7508 1093.5 67.4314 Q1087.99 61.0714 1087.99 49.9314 Q1087.99 38.7509 1093.5 32.4315 Q1099.05 26.1121 1108.81 26.1121 Z" fill="#000000" fill-rule="nonzero" fill-opacity="1" /><path clip-path="url(#clip230)" d="M1164.95 9.54393 L1164.95 15.7418 L1157.83 15.7418 Q1153.81 15.7418 1152.23 17.3622 Q1150.7 18.9825 1150.7 23.1955 L1150.7 27.2059 L1162.97 27.2059 L1162.97 32.9987 L1150.7 32.9987 L1150.7 72.576 L1143.2 72.576 L1143.2 32.9987 L1136.07 32.9987 L1136.07 27.2059 L1143.2 27.2059 L1143.2 24.0462 Q1143.2 16.471 1146.73 13.0277 Q1150.25 9.54393 1157.91 9.54393 L1164.95 9.54393 Z" fill="#000000" fill-rule="nonzero" fill-opacity="1" /><path clip-path="url(#clip230)" d="M1236.37 48.0275 L1236.37 51.6733 L1202.1 51.6733 Q1202.59 59.3701 1206.72 63.421 Q1210.89 67.4314 1218.31 67.4314 Q1222.6 67.4314 1226.61 66.3781 Q1230.66 65.3249 1234.63 63.2184 L1234.63 70.267 Q1230.62 71.9684 1226.41 72.8596 Q1222.19 73.7508 1217.86 73.7508 Q1207 73.7508 1200.64 67.4314 Q1194.32 61.1119 1194.32 50.3365 Q1194.32 39.1965 1200.32 32.6746 Q1206.35 26.1121 1216.56 26.1121 Q1225.72 26.1121 1231.02 32.0264 Q1236.37 37.9003 1236.37 48.0275 M1228.92 45.84 Q1228.84 39.7232 1225.48 36.0774 Q1222.15 32.4315 1216.64 32.4315 Q1210.41 32.4315 1206.64 35.9558 Q1202.91 39.4801 1202.34 45.8805 L1228.92 45.84 Z" fill="#000000" fill-rule="nonzero" fill-opacity="1" /><path clip-path="url(#clip230)" d="M1286.32 45.1919 L1286.32 72.576 L1278.87 72.576 L1278.87 45.4349 Q1278.87 38.994 1276.35 35.7938 Q1273.84 32.5936 1268.82 32.5936 Q1262.78 32.5936 1259.3 36.4419 Q1255.82 40.2903 1255.82 46.9338 L1255.82 72.576 L1248.32 72.576 L1248.32 27.2059 L1255.82 27.2059 L1255.82 34.2544 Q1258.49 30.163 1262.1 28.1376 Q1265.74 26.1121 1270.48 26.1121 Q1278.3 26.1121 1282.31 30.9732 Q1286.32 35.7938 1286.32 45.1919 Z" fill="#000000" fill-rule="nonzero" fill-opacity="1" /><path clip-path="url(#clip230)" d="M1339.99 48.0275 L1339.99 51.6733 L1305.72 51.6733 Q1306.21 59.3701 1310.34 63.421 Q1314.51 67.4314 1321.93 67.4314 Q1326.22 67.4314 1330.23 66.3781 Q1334.28 65.3249 1338.25 63.2184 L1338.25 70.267 Q1334.24 71.9684 1330.03 72.8596 Q1325.82 73.7508 1321.48 73.7508 Q1310.63 73.7508 1304.27 67.4314 Q1297.95 61.1119 1297.95 50.3365 Q1297.95 39.1965 1303.94 32.6746 Q1309.98 26.1121 1320.19 26.1121 Q1329.34 26.1121 1334.65 32.0264 Q1339.99 37.9003 1339.99 48.0275 M1332.54 45.84 Q1332.46 39.7232 1329.1 36.0774 Q1325.78 32.4315 1320.27 32.4315 Q1314.03 32.4315 1310.26 35.9558 Q1306.53 39.4801 1305.97 45.8805 L1332.54 45.84 Z" fill="#000000" fill-rule="nonzero" fill-opacity="1" /><path clip-path="url(#clip230)" d="M1378.52 34.1734 Q1377.26 33.4443 1375.76 33.1202 Q1374.31 32.7556 1372.52 32.7556 Q1366.2 32.7556 1362.8 36.8875 Q1359.44 40.9789 1359.44 48.6757 L1359.44 72.576 L1351.94 72.576 L1351.94 27.2059 L1359.44 27.2059 L1359.44 34.2544 Q1361.79 30.1225 1365.56 28.1376 Q1369.32 26.1121 1374.71 26.1121 Q1375.48 26.1121 1376.41 26.2337 Q1377.34 26.3147 1378.48 26.5172 L1378.52 34.1734 Z" fill="#000000" fill-rule="nonzero" fill-opacity="1" /><path clip-path="url(#clip230)" d="M1414.73 49.3643 Q1414.73 41.2625 1411.37 36.8065 Q1408.05 32.3505 1402.01 32.3505 Q1396.02 32.3505 1392.66 36.8065 Q1389.33 41.2625 1389.33 49.3643 Q1389.33 57.4256 1392.66 61.8816 Q1396.02 66.3376 1402.01 66.3376 Q1408.05 66.3376 1411.37 61.8816 Q1414.73 57.4256 1414.73 49.3643 M1422.19 66.9452 Q1422.19 78.5308 1417.04 84.1616 Q1411.9 89.8329 1401.28 89.8329 Q1397.36 89.8329 1393.87 89.2252 Q1390.39 88.6581 1387.11 87.4428 L1387.11 80.1917 Q1390.39 81.9741 1393.59 82.8248 Q1396.79 83.6755 1400.11 83.6755 Q1407.44 83.6755 1411.09 79.8271 Q1414.73 76.0193 1414.73 68.282 L1414.73 64.5957 Q1412.42 68.6061 1408.82 70.5911 Q1405.21 72.576 1400.19 72.576 Q1391.85 72.576 1386.74 66.2161 Q1381.64 59.8562 1381.64 49.3643 Q1381.64 38.832 1386.74 32.472 Q1391.85 26.1121 1400.19 26.1121 Q1405.21 26.1121 1408.82 28.0971 Q1412.42 30.082 1414.73 34.0924 L1414.73 27.2059 L1422.19 27.2059 L1422.19 66.9452 Z" fill="#000000" fill-rule="nonzero" fill-opacity="1" /><path clip-path="url(#clip230)" d="M1456.42 76.7889 Q1453.26 84.8907 1450.26 87.3618 Q1447.26 89.8329 1442.24 89.8329 L1436.28 89.8329 L1436.28 83.5945 L1440.66 83.5945 Q1443.74 83.5945 1445.44 82.1361 Q1447.14 80.6778 1449.21 75.2496 L1450.54 71.8468 L1432.19 27.2059 L1440.09 27.2059 L1454.27 62.6918 L1468.45 27.2059 L1476.35 27.2059 L1456.42 76.7889 Z" fill="#000000" fill-rule="nonzero" fill-opacity="1" /><path clip-path="url(#clip230)" d="M1545.66 28.9478 L1545.66 35.9153 Q1542.5 34.1734 1539.3 33.3227 Q1536.14 32.4315 1532.9 32.4315 Q1525.65 32.4315 1521.64 37.0496 Q1517.63 41.6271 1517.63 49.9314 Q1517.63 58.2358 1521.64 62.8538 Q1525.65 67.4314 1532.9 67.4314 Q1536.14 67.4314 1539.3 66.5807 Q1542.5 65.6895 1545.66 63.9476 L1545.66 70.8341 Q1542.54 72.2924 1539.18 73.0216 Q1535.86 73.7508 1532.09 73.7508 Q1521.84 73.7508 1515.8 67.3098 Q1509.77 60.8689 1509.77 49.9314 Q1509.77 38.832 1515.84 32.472 Q1521.96 26.1121 1532.57 26.1121 Q1536.02 26.1121 1539.3 26.8413 Q1542.58 27.5299 1545.66 28.9478 Z" fill="#000000" fill-rule="nonzero" fill-opacity="1" /><path clip-path="url(#clip230)" d="M1579.24 49.7694 Q1570.21 49.7694 1566.72 51.8354 Q1563.24 53.9013 1563.24 58.8839 Q1563.24 62.8538 1565.83 65.2034 Q1568.47 67.5124 1572.96 67.5124 Q1579.16 67.5124 1582.89 63.1374 Q1586.65 58.7219 1586.65 51.4303 L1586.65 49.7694 L1579.24 49.7694 M1594.11 46.6907 L1594.11 72.576 L1586.65 72.576 L1586.65 65.6895 Q1584.1 69.8214 1580.29 71.8063 Q1576.49 73.7508 1570.98 73.7508 Q1564.01 73.7508 1559.88 69.8619 Q1555.79 65.9325 1555.79 59.3701 Q1555.79 51.7138 1560.89 47.825 Q1566.03 43.9361 1576.2 43.9361 L1586.65 43.9361 L1586.65 43.2069 Q1586.65 38.0623 1583.25 35.2672 Q1579.89 32.4315 1573.77 32.4315 Q1569.88 32.4315 1566.2 33.3632 Q1562.51 34.295 1559.11 36.1584 L1559.11 29.2718 Q1563.2 27.692 1567.05 26.9223 Q1570.9 26.1121 1574.54 26.1121 Q1584.39 26.1121 1589.25 31.2163 Q1594.11 36.3204 1594.11 46.6907 Z" fill="#000000" fill-rule="nonzero" fill-opacity="1" /><path clip-path="url(#clip230)" d="M1609.46 9.54393 L1616.91 9.54393 L1616.91 72.576 L1609.46 72.576 L1609.46 9.54393 Z" fill="#000000" fill-rule="nonzero" fill-opacity="1" /><path clip-path="url(#clip230)" d="M1665.16 28.9478 L1665.16 35.9153 Q1662 34.1734 1658.8 33.3227 Q1655.64 32.4315 1652.4 32.4315 Q1645.15 32.4315 1641.14 37.0496 Q1637.13 41.6271 1637.13 49.9314 Q1637.13 58.2358 1641.14 62.8538 Q1645.15 67.4314 1652.4 67.4314 Q1655.64 67.4314 1658.8 66.5807 Q1662 65.6895 1665.16 63.9476 L1665.16 70.8341 Q1662.04 72.2924 1658.68 73.0216 Q1655.36 73.7508 1651.59 73.7508 Q1641.34 73.7508 1635.31 67.3098 Q1629.27 60.8689 1629.27 49.9314 Q1629.27 38.832 1635.35 32.472 Q1641.46 26.1121 1652.08 26.1121 Q1655.52 26.1121 1658.8 26.8413 Q1662.08 27.5299 1665.16 28.9478 Z" fill="#000000" fill-rule="nonzero" fill-opacity="1" /><path clip-path="url(#clip230)" d="M1677.35 54.671 L1677.35 27.2059 L1684.81 27.2059 L1684.81 54.3874 Q1684.81 60.8284 1687.32 64.0691 Q1689.83 67.2693 1694.85 67.2693 Q1700.89 67.2693 1704.37 63.421 Q1707.9 59.5726 1707.9 52.9291 L1707.9 27.2059 L1715.35 27.2059 L1715.35 72.576 L1707.9 72.576 L1707.9 65.6084 Q1705.18 69.7404 1701.58 71.7658 Q1698.01 73.7508 1693.27 73.7508 Q1685.46 73.7508 1681.4 68.8897 Q1677.35 64.0286 1677.35 54.671 M1696.11 26.1121 L1696.11 26.1121 Z" fill="#000000" fill-rule="nonzero" fill-opacity="1" /><path clip-path="url(#clip230)" d="M1730.7 9.54393 L1738.16 9.54393 L1738.16 72.576 L1730.7 72.576 L1730.7 9.54393 Z" fill="#000000" fill-rule="nonzero" fill-opacity="1" /><path clip-path="url(#clip230)" d="M1774.37 49.7694 Q1765.34 49.7694 1761.86 51.8354 Q1758.37 53.9013 1758.37 58.8839 Q1758.37 62.8538 1760.96 65.2034 Q1763.6 67.5124 1768.09 67.5124 Q1774.29 67.5124 1778.02 63.1374 Q1781.79 58.7219 1781.79 51.4303 L1781.79 49.7694 L1774.37 49.7694 M1789.24 46.6907 L1789.24 72.576 L1781.79 72.576 L1781.79 65.6895 Q1779.23 69.8214 1775.43 71.8063 Q1771.62 73.7508 1766.11 73.7508 Q1759.14 73.7508 1755.01 69.8619 Q1750.92 65.9325 1750.92 59.3701 Q1750.92 51.7138 1756.02 47.825 Q1761.17 43.9361 1771.33 43.9361 L1781.79 43.9361 L1781.79 43.2069 Q1781.79 38.0623 1778.38 35.2672 Q1775.02 32.4315 1768.9 32.4315 Q1765.02 32.4315 1761.33 33.3632 Q1757.64 34.295 1754.24 36.1584 L1754.24 29.2718 Q1758.33 27.692 1762.18 26.9223 Q1766.03 26.1121 1769.67 26.1121 Q1779.52 26.1121 1784.38 31.2163 Q1789.24 36.3204 1789.24 46.6907 Z" fill="#000000" fill-rule="nonzero" fill-opacity="1" /><path clip-path="url(#clip230)" d="M1811.97 14.324 L1811.97 27.2059 L1827.32 27.2059 L1827.32 32.9987 L1811.97 32.9987 L1811.97 57.6282 Q1811.97 63.1779 1813.46 64.7578 Q1815 66.3376 1819.66 66.3376 L1827.32 66.3376 L1827.32 72.576 L1819.66 72.576 Q1811.03 72.576 1807.75 69.3758 Q1804.47 66.1351 1804.47 57.6282 L1804.47 32.9987 L1799 32.9987 L1799 27.2059 L1804.47 27.2059 L1804.47 14.324 L1811.97 14.324 Z" fill="#000000" fill-rule="nonzero" fill-opacity="1" /><path clip-path="url(#clip230)" d="M1837.12 27.2059 L1844.57 27.2059 L1844.57 72.576 L1837.12 72.576 L1837.12 27.2059 M1837.12 9.54393 L1844.57 9.54393 L1844.57 18.9825 L1837.12 18.9825 L1837.12 9.54393 Z" fill="#000000" fill-rule="nonzero" fill-opacity="1" /><path clip-path="url(#clip230)" d="M1877.75 32.4315 Q1871.76 32.4315 1868.27 37.1306 Q1864.79 41.7891 1864.79 49.9314 Q1864.79 58.0738 1868.23 62.7728 Q1871.72 67.4314 1877.75 67.4314 Q1883.71 67.4314 1887.19 62.7323 Q1890.67 58.0333 1890.67 49.9314 Q1890.67 41.8701 1887.19 37.1711 Q1883.71 32.4315 1877.75 32.4315 M1877.75 26.1121 Q1887.47 26.1121 1893.02 32.4315 Q1898.57 38.7509 1898.57 49.9314 Q1898.57 61.0714 1893.02 67.4314 Q1887.47 73.7508 1877.75 73.7508 Q1867.99 73.7508 1862.44 67.4314 Q1856.93 61.0714 1856.93 49.9314 Q1856.93 38.7509 1862.44 32.4315 Q1867.99 26.1121 1877.75 26.1121 Z" fill="#000000" fill-rule="nonzero" fill-opacity="1" /><path clip-path="url(#clip230)" d="M1948.64 45.1919 L1948.64 72.576 L1941.19 72.576 L1941.19 45.4349 Q1941.19 38.994 1938.68 35.7938 Q1936.17 32.5936 1931.14 32.5936 Q1925.11 32.5936 1921.62 36.4419 Q1918.14 40.2903 1918.14 46.9338 L1918.14 72.576 L1910.65 72.576 L1910.65 27.2059 L1918.14 27.2059 L1918.14 34.2544 Q1920.81 30.163 1924.42 28.1376 Q1928.06 26.1121 1932.8 26.1121 Q1940.62 26.1121 1944.63 30.9732 Q1948.64 35.7938 1948.64 45.1919 Z" fill="#000000" fill-rule="nonzero" fill-opacity="1" /><polyline clip-path="url(#clip232)" style="stroke:#000000; stroke-linecap:round; stroke-linejoin:round; stroke-width:4; stroke-opacity:1; fill:none" points="237.067,1118.19 921.756,1373.06 1606.45,1363.2 2291.13,1313.63 "/>
<polyline clip-path="url(#clip232)" style="stroke:#000000; stroke-linecap:round; stroke-linejoin:round; stroke-width:4; stroke-opacity:1; fill:none" points="237.067,1142.11 237.067,1094.26 "/>
<polyline clip-path="url(#clip232)" style="stroke:#000000; stroke-linecap:round; stroke-linejoin:round; stroke-width:4; stroke-opacity:1; fill:none" points="921.756,1386.4 921.756,1359.72 "/>
<polyline clip-path="url(#clip232)" style="stroke:#000000; stroke-linecap:round; stroke-linejoin:round; stroke-width:4; stroke-opacity:1; fill:none" points="1606.45,1380.28 1606.45,1346.12 "/>
<polyline clip-path="url(#clip232)" style="stroke:#000000; stroke-linecap:round; stroke-linejoin:round; stroke-width:4; stroke-opacity:1; fill:none" points="2291.13,1333.38 2291.13,1293.87 "/>
<line clip-path="url(#clip232)" x1="253.067" y1="1142.11" x2="221.067" y2="1142.11" style="stroke:#000000; stroke-width:4; stroke-opacity:1"/>
<line clip-path="url(#clip232)" x1="253.067" y1="1094.26" x2="221.067" y2="1094.26" style="stroke:#000000; stroke-width:4; stroke-opacity:1"/>
<line clip-path="url(#clip232)" x1="937.756" y1="1386.4" x2="905.756" y2="1386.4" style="stroke:#000000; stroke-width:4; stroke-opacity:1"/>
<line clip-path="url(#clip232)" x1="937.756" y1="1359.72" x2="905.756" y2="1359.72" style="stroke:#000000; stroke-width:4; stroke-opacity:1"/>
<line clip-path="url(#clip232)" x1="1622.45" y1="1380.28" x2="1590.45" y2="1380.28" style="stroke:#000000; stroke-width:4; stroke-opacity:1"/>
<line clip-path="url(#clip232)" x1="1622.45" y1="1346.12" x2="1590.45" y2="1346.12" style="stroke:#000000; stroke-width:4; stroke-opacity:1"/>
<line clip-path="url(#clip232)" x1="2307.13" y1="1333.38" x2="2275.13" y2="1333.38" style="stroke:#000000; stroke-width:4; stroke-opacity:1"/>
<line clip-path="url(#clip232)" x1="2307.13" y1="1293.87" x2="2275.13" y2="1293.87" style="stroke:#000000; stroke-width:4; stroke-opacity:1"/>
<polyline clip-path="url(#clip232)" style="stroke:#008000; stroke-linecap:round; stroke-linejoin:round; stroke-width:4; stroke-opacity:1; fill:none" points="237.067,1072.26 921.756,1072.94 1606.45,1008.66 2291.13,846.058 "/>
<polyline clip-path="url(#clip232)" style="stroke:#008000; stroke-linecap:round; stroke-linejoin:round; stroke-width:4; stroke-opacity:1; fill:none" points="237.067,1097.56 237.067,1046.97 "/>
<polyline clip-path="url(#clip232)" style="stroke:#008000; stroke-linecap:round; stroke-linejoin:round; stroke-width:4; stroke-opacity:1; fill:none" points="921.756,1102.47 921.756,1043.41 "/>
<polyline clip-path="url(#clip232)" style="stroke:#008000; stroke-linecap:round; stroke-linejoin:round; stroke-width:4; stroke-opacity:1; fill:none" points="1606.45,1051.62 1606.45,965.695 "/>
<polyline clip-path="url(#clip232)" style="stroke:#008000; stroke-linecap:round; stroke-linejoin:round; stroke-width:4; stroke-opacity:1; fill:none" points="2291.13,910.135 2291.13,781.98 "/>
<line clip-path="url(#clip232)" x1="253.067" y1="1097.56" x2="221.067" y2="1097.56" style="stroke:#008000; stroke-width:4; stroke-opacity:1"/>
<line clip-path="url(#clip232)" x1="253.067" y1="1046.97" x2="221.067" y2="1046.97" style="stroke:#008000; stroke-width:4; stroke-opacity:1"/>
<line clip-path="url(#clip232)" x1="937.756" y1="1102.47" x2="905.756" y2="1102.47" style="stroke:#008000; stroke-width:4; stroke-opacity:1"/>
<line clip-path="url(#clip232)" x1="937.756" y1="1043.41" x2="905.756" y2="1043.41" style="stroke:#008000; stroke-width:4; stroke-opacity:1"/>
<line clip-path="url(#clip232)" x1="1622.45" y1="1051.62" x2="1590.45" y2="1051.62" style="stroke:#008000; stroke-width:4; stroke-opacity:1"/>
<line clip-path="url(#clip232)" x1="1622.45" y1="965.695" x2="1590.45" y2="965.695" style="stroke:#008000; stroke-width:4; stroke-opacity:1"/>
<line clip-path="url(#clip232)" x1="2307.13" y1="910.135" x2="2275.13" y2="910.135" style="stroke:#008000; stroke-width:4; stroke-opacity:1"/>
<line clip-path="url(#clip232)" x1="2307.13" y1="781.98" x2="2275.13" y2="781.98" style="stroke:#008000; stroke-width:4; stroke-opacity:1"/>
<polyline clip-path="url(#clip232)" style="stroke:#0000ff; stroke-linecap:round; stroke-linejoin:round; stroke-width:4; stroke-opacity:1; fill:none" points="237.067,1003.89 921.756,739.197 1606.45,679.332 2291.13,417.193 "/>
<polyline clip-path="url(#clip232)" style="stroke:#0000ff; stroke-linecap:round; stroke-linejoin:round; stroke-width:4; stroke-opacity:1; fill:none" points="237.067,1031.79 237.067,975.997 "/>
<polyline clip-path="url(#clip232)" style="stroke:#0000ff; stroke-linecap:round; stroke-linejoin:round; stroke-width:4; stroke-opacity:1; fill:none" points="921.756,789.485 921.756,688.909 "/>
<polyline clip-path="url(#clip232)" style="stroke:#0000ff; stroke-linecap:round; stroke-linejoin:round; stroke-width:4; stroke-opacity:1; fill:none" points="1606.45,743.523 1606.45,615.141 "/>
<polyline clip-path="url(#clip232)" style="stroke:#0000ff; stroke-linecap:round; stroke-linejoin:round; stroke-width:4; stroke-opacity:1; fill:none" points="2291.13,537.958 2291.13,296.427 "/>
<line clip-path="url(#clip232)" x1="253.067" y1="1031.79" x2="221.067" y2="1031.79" style="stroke:#0000ff; stroke-width:4; stroke-opacity:1"/>
<line clip-path="url(#clip232)" x1="253.067" y1="975.997" x2="221.067" y2="975.997" style="stroke:#0000ff; stroke-width:4; stroke-opacity:1"/>
<line clip-path="url(#clip232)" x1="937.756" y1="789.485" x2="905.756" y2="789.485" style="stroke:#0000ff; stroke-width:4; stroke-opacity:1"/>
<line clip-path="url(#clip232)" x1="937.756" y1="688.909" x2="905.756" y2="688.909" style="stroke:#0000ff; stroke-width:4; stroke-opacity:1"/>
<line clip-path="url(#clip232)" x1="1622.45" y1="743.523" x2="1590.45" y2="743.523" style="stroke:#0000ff; stroke-width:4; stroke-opacity:1"/>
<line clip-path="url(#clip232)" x1="1622.45" y1="615.141" x2="1590.45" y2="615.141" style="stroke:#0000ff; stroke-width:4; stroke-opacity:1"/>
<line clip-path="url(#clip232)" x1="2307.13" y1="537.958" x2="2275.13" y2="537.958" style="stroke:#0000ff; stroke-width:4; stroke-opacity:1"/>
<line clip-path="url(#clip232)" x1="2307.13" y1="296.427" x2="2275.13" y2="296.427" style="stroke:#0000ff; stroke-width:4; stroke-opacity:1"/>
<polyline clip-path="url(#clip232)" style="stroke:#ff0000; stroke-linecap:round; stroke-linejoin:round; stroke-width:4; stroke-opacity:1; fill:none" points="237.067,780.003 921.756,238.58 1606.45,423.533 2291.13,604.196 "/>
<polyline clip-path="url(#clip232)" style="stroke:#ff0000; stroke-linecap:round; stroke-linejoin:round; stroke-width:4; stroke-opacity:1; fill:none" points="237.067,818.17 237.067,741.836 "/>
<polyline clip-path="url(#clip232)" style="stroke:#ff0000; stroke-linecap:round; stroke-linejoin:round; stroke-width:4; stroke-opacity:1; fill:none" points="921.756,316.904 921.756,160.256 "/>
<polyline clip-path="url(#clip232)" style="stroke:#ff0000; stroke-linecap:round; stroke-linejoin:round; stroke-width:4; stroke-opacity:1; fill:none" points="1606.45,514.984 1606.45,332.081 "/>
<polyline clip-path="url(#clip232)" style="stroke:#ff0000; stroke-linecap:round; stroke-linejoin:round; stroke-width:4; stroke-opacity:1; fill:none" points="2291.13,753.454 2291.13,454.938 "/>
<line clip-path="url(#clip232)" x1="253.067" y1="818.17" x2="221.067" y2="818.17" style="stroke:#ff0000; stroke-width:4; stroke-opacity:1"/>
<line clip-path="url(#clip232)" x1="253.067" y1="741.836" x2="221.067" y2="741.836" style="stroke:#ff0000; stroke-width:4; stroke-opacity:1"/>
<line clip-path="url(#clip232)" x1="937.756" y1="316.904" x2="905.756" y2="316.904" style="stroke:#ff0000; stroke-width:4; stroke-opacity:1"/>
<line clip-path="url(#clip232)" x1="937.756" y1="160.256" x2="905.756" y2="160.256" style="stroke:#ff0000; stroke-width:4; stroke-opacity:1"/>
<line clip-path="url(#clip232)" x1="1622.45" y1="514.984" x2="1590.45" y2="514.984" style="stroke:#ff0000; stroke-width:4; stroke-opacity:1"/>
<line clip-path="url(#clip232)" x1="1622.45" y1="332.081" x2="1590.45" y2="332.081" style="stroke:#ff0000; stroke-width:4; stroke-opacity:1"/>
<line clip-path="url(#clip232)" x1="2307.13" y1="753.454" x2="2275.13" y2="753.454" style="stroke:#ff0000; stroke-width:4; stroke-opacity:1"/>
<line clip-path="url(#clip232)" x1="2307.13" y1="454.938" x2="2275.13" y2="454.938" style="stroke:#ff0000; stroke-width:4; stroke-opacity:1"/>
<path clip-path="url(#clip230)" d="M248.022 425.996 L603.507 425.996 L603.507 166.796 L248.022 166.796  Z" fill="#ffffff" fill-rule="evenodd" fill-opacity="1"/>
<polyline clip-path="url(#clip230)" style="stroke:#000000; stroke-linecap:round; stroke-linejoin:round; stroke-width:4; stroke-opacity:1; fill:none" points="248.022,425.996 603.507,425.996 603.507,166.796 248.022,166.796 248.022,425.996 "/>
<polyline clip-path="url(#clip230)" style="stroke:#000000; stroke-linecap:round; stroke-linejoin:round; stroke-width:4; stroke-opacity:1; fill:none" points="272.215,218.636 417.369,218.636 "/>
<path clip-path="url(#clip230)" d="M441.561 201.356 L446.237 201.356 L446.237 235.916 L441.561 235.916 L441.561 201.356 Z" fill="#000000" fill-rule="nonzero" fill-opacity="1" /><path clip-path="url(#clip230)" d="M472.417 213.925 L472.417 199.897 L476.677 199.897 L476.677 235.916 L472.417 235.916 L472.417 232.027 Q471.075 234.342 469.015 235.476 Q466.977 236.587 464.107 236.587 Q459.408 236.587 456.445 232.837 Q453.505 229.087 453.505 222.976 Q453.505 216.865 456.445 213.115 Q459.408 209.365 464.107 209.365 Q466.977 209.365 469.015 210.499 Q471.075 211.61 472.417 213.925 M457.903 222.976 Q457.903 227.675 459.825 230.36 Q461.769 233.022 465.149 233.022 Q468.528 233.022 470.473 230.36 Q472.417 227.675 472.417 222.976 Q472.417 218.277 470.473 215.615 Q468.528 212.93 465.149 212.93 Q461.769 212.93 459.825 215.615 Q457.903 218.277 457.903 222.976 Z" fill="#000000" fill-rule="nonzero" fill-opacity="1" /><path clip-path="url(#clip230)" d="M507.625 221.888 L507.625 223.971 L488.042 223.971 Q488.32 228.369 490.681 230.684 Q493.065 232.976 497.301 232.976 Q499.755 232.976 502.047 232.374 Q504.362 231.772 506.63 230.569 L506.63 234.596 Q504.338 235.568 501.931 236.078 Q499.524 236.587 497.047 236.587 Q490.843 236.587 487.209 232.976 Q483.598 229.365 483.598 223.207 Q483.598 216.842 487.024 213.115 Q490.473 209.365 496.306 209.365 Q501.537 209.365 504.57 212.745 Q507.625 216.101 507.625 221.888 M503.366 220.638 Q503.32 217.143 501.399 215.059 Q499.5 212.976 496.352 212.976 Q492.788 212.976 490.635 214.99 Q488.505 217.004 488.181 220.661 L503.366 220.638 Z" fill="#000000" fill-rule="nonzero" fill-opacity="1" /><path clip-path="url(#clip230)" d="M526.398 222.883 Q521.236 222.883 519.246 224.064 Q517.255 225.244 517.255 228.092 Q517.255 230.36 518.736 231.703 Q520.241 233.022 522.811 233.022 Q526.352 233.022 528.482 230.522 Q530.635 227.999 530.635 223.832 L530.635 222.883 L526.398 222.883 M534.894 221.124 L534.894 235.916 L530.635 235.916 L530.635 231.981 Q529.176 234.342 527 235.476 Q524.824 236.587 521.676 236.587 Q517.695 236.587 515.334 234.365 Q512.996 232.119 512.996 228.369 Q512.996 223.994 515.912 221.772 Q518.852 219.55 524.662 219.55 L530.635 219.55 L530.635 219.133 Q530.635 216.194 528.69 214.596 Q526.769 212.976 523.273 212.976 Q521.051 212.976 518.945 213.508 Q516.838 214.041 514.894 215.106 L514.894 211.17 Q517.232 210.268 519.431 209.828 Q521.63 209.365 523.713 209.365 Q529.338 209.365 532.116 212.282 Q534.894 215.198 534.894 221.124 Z" fill="#000000" fill-rule="nonzero" fill-opacity="1" /><path clip-path="url(#clip230)" d="M543.667 199.897 L547.926 199.897 L547.926 235.916 L543.667 235.916 L543.667 199.897 Z" fill="#000000" fill-rule="nonzero" fill-opacity="1" /><polyline clip-path="url(#clip230)" style="stroke:#008000; stroke-linecap:round; stroke-linejoin:round; stroke-width:4; stroke-opacity:1; fill:none" points="272.215,270.476 417.369,270.476 "/>
<path clip-path="url(#clip230)" d="M457.186 269.122 Q460.542 269.839 462.417 272.108 Q464.315 274.376 464.315 277.709 Q464.315 282.825 460.797 285.626 Q457.278 288.427 450.797 288.427 Q448.621 288.427 446.306 287.987 Q444.015 287.571 441.561 286.714 L441.561 282.2 Q443.505 283.334 445.82 283.913 Q448.135 284.492 450.658 284.492 Q455.056 284.492 457.348 282.756 Q459.663 281.02 459.663 277.709 Q459.663 274.654 457.51 272.941 Q455.38 271.205 451.561 271.205 L447.533 271.205 L447.533 267.362 L451.746 267.362 Q455.195 267.362 457.024 265.997 Q458.853 264.608 458.853 262.015 Q458.853 259.353 456.954 257.941 Q455.079 256.506 451.561 256.506 Q449.64 256.506 447.441 256.923 Q445.241 257.339 442.603 258.219 L442.603 254.052 Q445.265 253.311 447.579 252.941 Q449.917 252.571 451.978 252.571 Q457.302 252.571 460.403 255.001 Q463.505 257.409 463.505 261.529 Q463.505 264.399 461.862 266.39 Q460.218 268.358 457.186 269.122 Z" fill="#000000" fill-rule="nonzero" fill-opacity="1" /><path clip-path="url(#clip230)" d="M483.181 256.274 Q479.57 256.274 477.741 259.839 Q475.936 263.381 475.936 270.51 Q475.936 277.617 477.741 281.182 Q479.57 284.723 483.181 284.723 Q486.815 284.723 488.621 281.182 Q490.45 277.617 490.45 270.51 Q490.45 263.381 488.621 259.839 Q486.815 256.274 483.181 256.274 M483.181 252.571 Q488.991 252.571 492.047 257.177 Q495.125 261.76 495.125 270.51 Q495.125 279.237 492.047 283.844 Q488.991 288.427 483.181 288.427 Q477.371 288.427 474.292 283.844 Q471.237 279.237 471.237 270.51 Q471.237 261.76 474.292 257.177 Q477.371 252.571 483.181 252.571 Z" fill="#000000" fill-rule="nonzero" fill-opacity="1" /><path clip-path="url(#clip230)" d="M506.862 283.867 L506.862 297.617 L502.579 297.617 L502.579 261.83 L506.862 261.83 L506.862 265.765 Q508.204 263.45 510.241 262.339 Q512.301 261.205 515.149 261.205 Q519.871 261.205 522.811 264.955 Q525.773 268.705 525.773 274.816 Q525.773 280.927 522.811 284.677 Q519.871 288.427 515.149 288.427 Q512.301 288.427 510.241 287.316 Q508.204 286.182 506.862 283.867 M521.352 274.816 Q521.352 270.117 519.408 267.455 Q517.486 264.77 514.107 264.77 Q510.727 264.77 508.783 267.455 Q506.862 270.117 506.862 274.816 Q506.862 279.515 508.783 282.2 Q510.727 284.862 514.107 284.862 Q517.486 284.862 519.408 282.2 Q521.352 279.515 521.352 274.816 Z" fill="#000000" fill-rule="nonzero" fill-opacity="1" /><path clip-path="url(#clip230)" d="M549.361 262.594 L549.361 266.622 Q547.556 265.696 545.611 265.233 Q543.667 264.77 541.584 264.77 Q538.412 264.77 536.815 265.742 Q535.241 266.714 535.241 268.659 Q535.241 270.14 536.375 270.997 Q537.51 271.83 540.935 272.594 L542.394 272.918 Q546.931 273.89 548.829 275.672 Q550.75 277.432 550.75 280.603 Q550.75 284.214 547.88 286.321 Q545.033 288.427 540.033 288.427 Q537.949 288.427 535.681 288.01 Q533.435 287.617 530.935 286.807 L530.935 282.409 Q533.297 283.635 535.588 284.26 Q537.88 284.862 540.125 284.862 Q543.134 284.862 544.755 283.844 Q546.375 282.802 546.375 280.927 Q546.375 279.191 545.195 278.265 Q544.037 277.339 540.079 276.483 L538.597 276.135 Q534.639 275.302 532.88 273.589 Q531.121 271.853 531.121 268.844 Q531.121 265.186 533.713 263.196 Q536.306 261.205 541.074 261.205 Q543.435 261.205 545.519 261.552 Q547.602 261.899 549.361 262.594 Z" fill="#000000" fill-rule="nonzero" fill-opacity="1" /><polyline clip-path="url(#clip230)" style="stroke:#0000ff; stroke-linecap:round; stroke-linejoin:round; stroke-width:4; stroke-opacity:1; fill:none" points="272.215,322.316 417.369,322.316 "/>
<path clip-path="url(#clip230)" d="M443.019 305.036 L461.376 305.036 L461.376 308.971 L447.302 308.971 L447.302 317.443 Q448.32 317.096 449.339 316.934 Q450.357 316.749 451.376 316.749 Q457.163 316.749 460.542 319.92 Q463.922 323.091 463.922 328.508 Q463.922 334.086 460.45 337.188 Q456.978 340.267 450.658 340.267 Q448.482 340.267 446.214 339.897 Q443.968 339.526 441.561 338.786 L441.561 334.086 Q443.644 335.221 445.866 335.776 Q448.089 336.332 450.566 336.332 Q454.57 336.332 456.908 334.225 Q459.246 332.119 459.246 328.508 Q459.246 324.897 456.908 322.79 Q454.57 320.684 450.566 320.684 Q448.691 320.684 446.816 321.1 Q444.964 321.517 443.019 322.397 L443.019 305.036 Z" fill="#000000" fill-rule="nonzero" fill-opacity="1" /><path clip-path="url(#clip230)" d="M483.135 308.114 Q479.524 308.114 477.695 311.679 Q475.889 315.221 475.889 322.35 Q475.889 329.457 477.695 333.022 Q479.524 336.563 483.135 336.563 Q486.769 336.563 488.575 333.022 Q490.403 329.457 490.403 322.35 Q490.403 315.221 488.575 311.679 Q486.769 308.114 483.135 308.114 M483.135 304.411 Q488.945 304.411 492.001 309.017 Q495.079 313.6 495.079 322.35 Q495.079 331.077 492.001 335.684 Q488.945 340.267 483.135 340.267 Q477.325 340.267 474.246 335.684 Q471.19 331.077 471.19 322.35 Q471.19 313.6 474.246 309.017 Q477.325 304.411 483.135 304.411 Z" fill="#000000" fill-rule="nonzero" fill-opacity="1" /><path clip-path="url(#clip230)" d="M506.815 335.707 L506.815 349.457 L502.533 349.457 L502.533 313.67 L506.815 313.67 L506.815 317.605 Q508.158 315.29 510.195 314.179 Q512.255 313.045 515.102 313.045 Q519.824 313.045 522.764 316.795 Q525.727 320.545 525.727 326.656 Q525.727 332.767 522.764 336.517 Q519.824 340.267 515.102 340.267 Q512.255 340.267 510.195 339.156 Q508.158 338.022 506.815 335.707 M521.306 326.656 Q521.306 321.957 519.361 319.295 Q517.44 316.61 514.061 316.61 Q510.681 316.61 508.737 319.295 Q506.815 321.957 506.815 326.656 Q506.815 331.355 508.737 334.04 Q510.681 336.702 514.061 336.702 Q517.44 336.702 519.361 334.04 Q521.306 331.355 521.306 326.656 Z" fill="#000000" fill-rule="nonzero" fill-opacity="1" /><path clip-path="url(#clip230)" d="M549.315 314.434 L549.315 318.462 Q547.509 317.536 545.565 317.073 Q543.621 316.61 541.537 316.61 Q538.366 316.61 536.769 317.582 Q535.195 318.554 535.195 320.499 Q535.195 321.98 536.329 322.837 Q537.463 323.67 540.889 324.434 L542.347 324.758 Q546.884 325.73 548.783 327.512 Q550.704 329.272 550.704 332.443 Q550.704 336.054 547.834 338.161 Q544.986 340.267 539.986 340.267 Q537.903 340.267 535.635 339.85 Q533.389 339.457 530.889 338.647 L530.889 334.249 Q533.25 335.475 535.542 336.1 Q537.834 336.702 540.079 336.702 Q543.088 336.702 544.709 335.684 Q546.329 334.642 546.329 332.767 Q546.329 331.031 545.148 330.105 Q543.991 329.179 540.033 328.323 L538.551 327.975 Q534.593 327.142 532.834 325.429 Q531.074 323.693 531.074 320.684 Q531.074 317.026 533.667 315.036 Q536.26 313.045 541.028 313.045 Q543.389 313.045 545.472 313.392 Q547.556 313.739 549.315 314.434 Z" fill="#000000" fill-rule="nonzero" fill-opacity="1" /><polyline clip-path="url(#clip230)" style="stroke:#ff0000; stroke-linecap:round; stroke-linejoin:round; stroke-width:4; stroke-opacity:1; fill:none" points="272.215,374.156 417.369,374.156 "/>
<path clip-path="url(#clip230)" d="M442.232 387.501 L449.871 387.501 L449.871 361.135 L441.561 362.802 L441.561 358.542 L449.825 356.876 L454.501 356.876 L454.501 387.501 L462.14 387.501 L462.14 391.436 L442.232 391.436 L442.232 387.501 Z" fill="#000000" fill-rule="nonzero" fill-opacity="1" /><path clip-path="url(#clip230)" d="M481.584 359.954 Q477.973 359.954 476.144 363.519 Q474.339 367.061 474.339 374.19 Q474.339 381.297 476.144 384.862 Q477.973 388.403 481.584 388.403 Q485.218 388.403 487.024 384.862 Q488.852 381.297 488.852 374.19 Q488.852 367.061 487.024 363.519 Q485.218 359.954 481.584 359.954 M481.584 356.251 Q487.394 356.251 490.45 360.857 Q493.528 365.44 493.528 374.19 Q493.528 382.917 490.45 387.524 Q487.394 392.107 481.584 392.107 Q475.774 392.107 472.695 387.524 Q469.64 382.917 469.64 374.19 Q469.64 365.44 472.695 360.857 Q475.774 356.251 481.584 356.251 Z" fill="#000000" fill-rule="nonzero" fill-opacity="1" /><path clip-path="url(#clip230)" d="M511.746 359.954 Q508.135 359.954 506.306 363.519 Q504.5 367.061 504.5 374.19 Q504.5 381.297 506.306 384.862 Q508.135 388.403 511.746 388.403 Q515.38 388.403 517.186 384.862 Q519.014 381.297 519.014 374.19 Q519.014 367.061 517.186 363.519 Q515.38 359.954 511.746 359.954 M511.746 356.251 Q517.556 356.251 520.611 360.857 Q523.69 365.44 523.69 374.19 Q523.69 382.917 520.611 387.524 Q517.556 392.107 511.746 392.107 Q505.936 392.107 502.857 387.524 Q499.801 382.917 499.801 374.19 Q499.801 365.44 502.857 360.857 Q505.936 356.251 511.746 356.251 Z" fill="#000000" fill-rule="nonzero" fill-opacity="1" /><path clip-path="url(#clip230)" d="M535.426 387.547 L535.426 401.297 L531.144 401.297 L531.144 365.51 L535.426 365.51 L535.426 369.445 Q536.769 367.13 538.806 366.019 Q540.866 364.885 543.713 364.885 Q548.435 364.885 551.375 368.635 Q554.338 372.385 554.338 378.496 Q554.338 384.607 551.375 388.357 Q548.435 392.107 543.713 392.107 Q540.866 392.107 538.806 390.996 Q536.769 389.862 535.426 387.547 M549.917 378.496 Q549.917 373.797 547.972 371.135 Q546.051 368.45 542.672 368.45 Q539.292 368.45 537.347 371.135 Q535.426 373.797 535.426 378.496 Q535.426 383.195 537.347 385.88 Q539.292 388.542 542.672 388.542 Q546.051 388.542 547.972 385.88 Q549.917 383.195 549.917 378.496 Z" fill="#000000" fill-rule="nonzero" fill-opacity="1" /><path clip-path="url(#clip230)" d="M577.926 366.274 L577.926 370.302 Q576.12 369.376 574.176 368.913 Q572.232 368.45 570.148 368.45 Q566.977 368.45 565.38 369.422 Q563.806 370.394 563.806 372.339 Q563.806 373.82 564.94 374.677 Q566.074 375.51 569.5 376.274 L570.958 376.598 Q575.495 377.57 577.394 379.352 Q579.315 381.112 579.315 384.283 Q579.315 387.894 576.444 390.001 Q573.597 392.107 568.597 392.107 Q566.514 392.107 564.245 391.69 Q562 391.297 559.5 390.487 L559.5 386.089 Q561.861 387.315 564.153 387.94 Q566.445 388.542 568.69 388.542 Q571.699 388.542 573.32 387.524 Q574.94 386.482 574.94 384.607 Q574.94 382.871 573.759 381.945 Q572.602 381.019 568.644 380.163 L567.162 379.815 Q563.204 378.982 561.445 377.269 Q559.685 375.533 559.685 372.524 Q559.685 368.866 562.278 366.876 Q564.87 364.885 569.639 364.885 Q572 364.885 574.083 365.232 Q576.167 365.579 577.926 366.274 Z" fill="#000000" fill-rule="nonzero" fill-opacity="1" /></svg>
