<?xml version="1.0" encoding="utf-8"?>
<svg xmlns="http://www.w3.org/2000/svg" xmlns:xlink="http://www.w3.org/1999/xlink" width="600" height="400" viewBox="0 0 2400 1600">
<defs>
  <clipPath id="clip170">
    <rect x="0" y="0" width="2400" height="1600"/>
  </clipPath>
</defs>
<path clip-path="url(#clip170)" d="M0 1600 L2400 1600 L2400 0 L0 0  Z" fill="#ffffff" fill-rule="evenodd" fill-opacity="1"/>
<defs>
  <clipPath id="clip171">
    <rect x="480" y="0" width="1681" height="1600"/>
  </clipPath>
</defs>
<path clip-path="url(#clip170)" d="M205.121 1423.18 L2352.76 1423.18 L2352.76 123.472 L205.121 123.472  Z" fill="#ffffff" fill-rule="evenodd" fill-opacity="1"/>
<defs>
  <clipPath id="clip172">
    <rect x="205" y="123" width="2149" height="1301"/>
  </clipPath>
</defs>
<polyline clip-path="url(#clip172)" style="stroke:#000000; stroke-linecap:round; stroke-linejoin:round; stroke-width:2; stroke-opacity:0.1; fill:none" points="491.022,1423.18 491.022,123.472 "/>
<polyline clip-path="url(#clip172)" style="stroke:#000000; stroke-linecap:round; stroke-linejoin:round; stroke-width:2; stroke-opacity:0.1; fill:none" points="941.26,1423.18 941.26,123.472 "/>
<polyline clip-path="url(#clip172)" style="stroke:#000000; stroke-linecap:round; stroke-linejoin:round; stroke-width:2; stroke-opacity:0.1; fill:none" points="1391.5,1423.18 1391.5,123.472 "/>
<polyline clip-path="url(#clip172)" style="stroke:#000000; stroke-linecap:round; stroke-linejoin:round; stroke-width:2; stroke-opacity:0.1; fill:none" points="1841.74,1423.18 1841.74,123.472 "/>
<polyline clip-path="url(#clip172)" style="stroke:#000000; stroke-linecap:round; stroke-linejoin:round; stroke-width:2; stroke-opacity:0.1; fill:none" points="2291.97,1423.18 2291.97,123.472 "/>
<polyline clip-path="url(#clip172)" style="stroke:#000000; stroke-linecap:round; stroke-linejoin:round; stroke-width:2; stroke-opacity:0.1; fill:none" points="205.121,1414.86 2352.76,1414.86 "/>
<polyline clip-path="url(#clip172)" style="stroke:#000000; stroke-linecap:round; stroke-linejoin:round; stroke-width:2; stroke-opacity:0.1; fill:none" points="205.121,1111.13 2352.76,1111.13 "/>
<polyline clip-path="url(#clip172)" style="stroke:#000000; stroke-linecap:round; stroke-linejoin:round; stroke-width:2; stroke-opacity:0.1; fill:none" points="205.121,807.39 2352.76,807.39 "/>
<polyline clip-path="url(#clip172)" style="stroke:#000000; stroke-linecap:round; stroke-linejoin:round; stroke-width:2; stroke-opacity:0.1; fill:none" points="205.121,503.653 2352.76,503.653 "/>
<polyline clip-path="url(#clip172)" style="stroke:#000000; stroke-linecap:round; stroke-linejoin:round; stroke-width:2; stroke-opacity:0.1; fill:none" points="205.121,199.916 2352.76,199.916 "/>
<polyline clip-path="url(#clip170)" style="stroke:#000000; stroke-linecap:round; stroke-linejoin:round; stroke-width:4; stroke-opacity:1; fill:none" points="205.121,1423.18 2352.76,1423.18 "/>
<polyline clip-path="url(#clip170)" style="stroke:#000000; stroke-linecap:round; stroke-linejoin:round; stroke-width:4; stroke-opacity:1; fill:none" points="491.022,1423.18 491.022,1404.28 "/>
<polyline clip-path="url(#clip170)" style="stroke:#000000; stroke-linecap:round; stroke-linejoin:round; stroke-width:4; stroke-opacity:1; fill:none" points="941.26,1423.18 941.26,1404.28 "/>
<polyline clip-path="url(#clip170)" style="stroke:#000000; stroke-linecap:round; stroke-linejoin:round; stroke-width:4; stroke-opacity:1; fill:none" points="1391.5,1423.18 1391.5,1404.28 "/>
<polyline clip-path="url(#clip170)" style="stroke:#000000; stroke-linecap:round; stroke-linejoin:round; stroke-width:4; stroke-opacity:1; fill:none" points="1841.74,1423.18 1841.74,1404.28 "/>
<polyline clip-path="url(#clip170)" style="stroke:#000000; stroke-linecap:round; stroke-linejoin:round; stroke-width:4; stroke-opacity:1; fill:none" points="2291.97,1423.18 2291.97,1404.28 "/>
<path clip-path="url(#clip170)" d="M465.721 1451.02 L484.078 1451.02 L484.078 1454.96 L470.004 1454.96 L470.004 1463.43 Q471.022 1463.08 472.041 1462.92 Q473.059 1462.73 474.078 1462.73 Q479.865 1462.73 483.244 1465.9 Q486.624 1469.08 486.624 1474.49 Q486.624 1480.07 483.152 1483.17 Q479.68 1486.25 473.36 1486.25 Q471.184 1486.25 468.916 1485.88 Q466.67 1485.51 464.263 1484.77 L464.263 1480.07 Q466.346 1481.2 468.568 1481.76 Q470.791 1482.32 473.268 1482.32 Q477.272 1482.32 479.61 1480.21 Q481.948 1478.1 481.948 1474.49 Q481.948 1470.88 479.61 1468.77 Q477.272 1466.67 473.268 1466.67 Q471.393 1466.67 469.518 1467.08 Q467.666 1467.5 465.721 1468.38 L465.721 1451.02 Z" fill="#000000" fill-rule="nonzero" fill-opacity="1" /><path clip-path="url(#clip170)" d="M505.837 1454.1 Q502.226 1454.1 500.397 1457.66 Q498.591 1461.2 498.591 1468.33 Q498.591 1475.44 500.397 1479.01 Q502.226 1482.55 505.837 1482.55 Q509.471 1482.55 511.277 1479.01 Q513.105 1475.44 513.105 1468.33 Q513.105 1461.2 511.277 1457.66 Q509.471 1454.1 505.837 1454.1 M505.837 1450.39 Q511.647 1450.39 514.702 1455 Q517.781 1459.58 517.781 1468.33 Q517.781 1477.06 514.702 1481.67 Q511.647 1486.25 505.837 1486.25 Q500.027 1486.25 496.948 1481.67 Q493.892 1477.06 493.892 1468.33 Q493.892 1459.58 496.948 1455 Q500.027 1450.39 505.837 1450.39 Z" fill="#000000" fill-rule="nonzero" fill-opacity="1" /><path clip-path="url(#clip170)" d="M900.867 1481.64 L908.506 1481.64 L908.506 1455.28 L900.195 1456.95 L900.195 1452.69 L908.459 1451.02 L913.135 1451.02 L913.135 1481.64 L920.774 1481.64 L920.774 1485.58 L900.867 1485.58 L900.867 1481.64 Z" fill="#000000" fill-rule="nonzero" fill-opacity="1" /><path clip-path="url(#clip170)" d="M940.218 1454.1 Q936.607 1454.1 934.779 1457.66 Q932.973 1461.2 932.973 1468.33 Q932.973 1475.44 934.779 1479.01 Q936.607 1482.55 940.218 1482.55 Q943.853 1482.55 945.658 1479.01 Q947.487 1475.44 947.487 1468.33 Q947.487 1461.2 945.658 1457.66 Q943.853 1454.1 940.218 1454.1 M940.218 1450.39 Q946.028 1450.39 949.084 1455 Q952.163 1459.58 952.163 1468.33 Q952.163 1477.06 949.084 1481.67 Q946.028 1486.25 940.218 1486.25 Q934.408 1486.25 931.329 1481.67 Q928.274 1477.06 928.274 1468.33 Q928.274 1459.58 931.329 1455 Q934.408 1450.39 940.218 1450.39 Z" fill="#000000" fill-rule="nonzero" fill-opacity="1" /><path clip-path="url(#clip170)" d="M970.38 1454.1 Q966.769 1454.1 964.94 1457.66 Q963.135 1461.2 963.135 1468.33 Q963.135 1475.44 964.94 1479.01 Q966.769 1482.55 970.38 1482.55 Q974.014 1482.55 975.82 1479.01 Q977.649 1475.44 977.649 1468.33 Q977.649 1461.2 975.82 1457.66 Q974.014 1454.1 970.38 1454.1 M970.38 1450.39 Q976.19 1450.39 979.246 1455 Q982.325 1459.58 982.325 1468.33 Q982.325 1477.06 979.246 1481.67 Q976.19 1486.25 970.38 1486.25 Q964.57 1486.25 961.491 1481.67 Q958.436 1477.06 958.436 1468.33 Q958.436 1459.58 961.491 1455 Q964.57 1450.39 970.38 1450.39 Z" fill="#000000" fill-rule="nonzero" fill-opacity="1" /><path clip-path="url(#clip170)" d="M1351.1 1481.64 L1358.74 1481.64 L1358.74 1455.28 L1350.43 1456.95 L1350.43 1452.69 L1358.7 1451.02 L1363.37 1451.02 L1363.37 1481.64 L1371.01 1481.64 L1371.01 1485.58 L1351.1 1485.58 L1351.1 1481.64 Z" fill="#000000" fill-rule="nonzero" fill-opacity="1" /><path clip-path="url(#clip170)" d="M1380.5 1451.02 L1398.86 1451.02 L1398.86 1454.96 L1384.78 1454.96 L1384.78 1463.43 Q1385.8 1463.08 1386.82 1462.92 Q1387.84 1462.73 1388.86 1462.73 Q1394.65 1462.73 1398.03 1465.9 Q1401.41 1469.08 1401.41 1474.49 Q1401.41 1480.07 1397.93 1483.17 Q1394.46 1486.25 1388.14 1486.25 Q1385.97 1486.25 1383.7 1485.88 Q1381.45 1485.51 1379.04 1484.77 L1379.04 1480.07 Q1381.13 1481.2 1383.35 1481.76 Q1385.57 1482.32 1388.05 1482.32 Q1392.05 1482.32 1394.39 1480.21 Q1396.73 1478.1 1396.73 1474.49 Q1396.73 1470.88 1394.39 1468.77 Q1392.05 1466.67 1388.05 1466.67 Q1386.17 1466.67 1384.3 1467.08 Q1382.45 1467.5 1380.5 1468.38 L1380.5 1451.02 Z" fill="#000000" fill-rule="nonzero" fill-opacity="1" /><path clip-path="url(#clip170)" d="M1420.62 1454.1 Q1417.01 1454.1 1415.18 1457.66 Q1413.37 1461.2 1413.37 1468.33 Q1413.37 1475.44 1415.18 1479.01 Q1417.01 1482.55 1420.62 1482.55 Q1424.25 1482.55 1426.06 1479.01 Q1427.89 1475.44 1427.89 1468.33 Q1427.89 1461.2 1426.06 1457.66 Q1424.25 1454.1 1420.62 1454.1 M1420.62 1450.39 Q1426.43 1450.39 1429.48 1455 Q1432.56 1459.58 1432.56 1468.33 Q1432.56 1477.06 1429.48 1481.67 Q1426.43 1486.25 1420.62 1486.25 Q1414.81 1486.25 1411.73 1481.67 Q1408.67 1477.06 1408.67 1468.33 Q1408.67 1459.58 1411.73 1455 Q1414.81 1450.39 1420.62 1450.39 Z" fill="#000000" fill-rule="nonzero" fill-opacity="1" /><path clip-path="url(#clip170)" d="M1805.43 1481.64 L1821.75 1481.64 L1821.75 1485.58 L1799.8 1485.58 L1799.8 1481.64 Q1802.47 1478.89 1807.05 1474.26 Q1811.65 1469.61 1812.84 1468.27 Q1815.08 1465.74 1815.96 1464.01 Q1816.86 1462.25 1816.86 1460.56 Q1816.86 1457.8 1814.92 1456.07 Q1813 1454.33 1809.9 1454.33 Q1807.7 1454.33 1805.24 1455.09 Q1802.81 1455.86 1800.03 1457.41 L1800.03 1452.69 Q1802.86 1451.55 1805.31 1450.97 Q1807.77 1450.39 1809.8 1450.39 Q1815.17 1450.39 1818.37 1453.08 Q1821.56 1455.77 1821.56 1460.26 Q1821.56 1462.39 1820.75 1464.31 Q1819.97 1466.2 1817.86 1468.8 Q1817.28 1469.47 1814.18 1472.69 Q1811.08 1475.88 1805.43 1481.64 Z" fill="#000000" fill-rule="nonzero" fill-opacity="1" /><path clip-path="url(#clip170)" d="M1841.56 1454.1 Q1837.95 1454.1 1836.12 1457.66 Q1834.32 1461.2 1834.32 1468.33 Q1834.32 1475.44 1836.12 1479.01 Q1837.95 1482.55 1841.56 1482.55 Q1845.2 1482.55 1847 1479.01 Q1848.83 1475.44 1848.83 1468.33 Q1848.83 1461.2 1847 1457.66 Q1845.2 1454.1 1841.56 1454.1 M1841.56 1450.39 Q1847.37 1450.39 1850.43 1455 Q1853.51 1459.58 1853.51 1468.33 Q1853.51 1477.06 1850.43 1481.67 Q1847.37 1486.25 1841.56 1486.25 Q1835.75 1486.25 1832.67 1481.67 Q1829.62 1477.06 1829.62 1468.33 Q1829.62 1459.58 1832.67 1455 Q1835.75 1450.39 1841.56 1450.39 Z" fill="#000000" fill-rule="nonzero" fill-opacity="1" /><path clip-path="url(#clip170)" d="M1871.72 1454.1 Q1868.11 1454.1 1866.28 1457.66 Q1864.48 1461.2 1864.48 1468.33 Q1864.48 1475.44 1866.28 1479.01 Q1868.11 1482.55 1871.72 1482.55 Q1875.36 1482.55 1877.16 1479.01 Q1878.99 1475.44 1878.99 1468.33 Q1878.99 1461.2 1877.16 1457.66 Q1875.36 1454.1 1871.72 1454.1 M1871.72 1450.39 Q1877.53 1450.39 1880.59 1455 Q1883.67 1459.58 1883.67 1468.33 Q1883.67 1477.06 1880.59 1481.67 Q1877.53 1486.25 1871.72 1486.25 Q1865.91 1486.25 1862.84 1481.67 Q1859.78 1477.06 1859.78 1468.33 Q1859.78 1459.58 1862.84 1455 Q1865.91 1450.39 1871.72 1450.39 Z" fill="#000000" fill-rule="nonzero" fill-opacity="1" /><path clip-path="url(#clip170)" d="M2255.67 1481.64 L2271.99 1481.64 L2271.99 1485.58 L2250.04 1485.58 L2250.04 1481.64 Q2252.7 1478.89 2257.29 1474.26 Q2261.89 1469.61 2263.07 1468.27 Q2265.32 1465.74 2266.2 1464.01 Q2267.1 1462.25 2267.1 1460.56 Q2267.1 1457.8 2265.16 1456.07 Q2263.24 1454.33 2260.13 1454.33 Q2257.93 1454.33 2255.48 1455.09 Q2253.05 1455.86 2250.27 1457.41 L2250.27 1452.69 Q2253.1 1451.55 2255.55 1450.97 Q2258 1450.39 2260.04 1450.39 Q2265.41 1450.39 2268.61 1453.08 Q2271.8 1455.77 2271.8 1460.26 Q2271.8 1462.39 2270.99 1464.31 Q2270.2 1466.2 2268.1 1468.8 Q2267.52 1469.47 2264.42 1472.69 Q2261.31 1475.88 2255.67 1481.64 Z" fill="#000000" fill-rule="nonzero" fill-opacity="1" /><path clip-path="url(#clip170)" d="M2281.85 1451.02 L2300.2 1451.02 L2300.2 1454.96 L2286.13 1454.96 L2286.13 1463.43 Q2287.15 1463.08 2288.17 1462.92 Q2289.18 1462.73 2290.2 1462.73 Q2295.99 1462.73 2299.37 1465.9 Q2302.75 1469.08 2302.75 1474.49 Q2302.75 1480.07 2299.28 1483.17 Q2295.8 1486.25 2289.49 1486.25 Q2287.31 1486.25 2285.04 1485.88 Q2282.8 1485.51 2280.39 1484.77 L2280.39 1480.07 Q2282.47 1481.2 2284.69 1481.76 Q2286.92 1482.32 2289.39 1482.32 Q2293.4 1482.32 2295.74 1480.21 Q2298.07 1478.1 2298.07 1474.49 Q2298.07 1470.88 2295.74 1468.77 Q2293.4 1466.67 2289.39 1466.67 Q2287.52 1466.67 2285.64 1467.08 Q2283.79 1467.5 2281.85 1468.38 L2281.85 1451.02 Z" fill="#000000" fill-rule="nonzero" fill-opacity="1" /><path clip-path="url(#clip170)" d="M2321.96 1454.1 Q2318.35 1454.1 2316.52 1457.66 Q2314.72 1461.2 2314.72 1468.33 Q2314.72 1475.44 2316.52 1479.01 Q2318.35 1482.55 2321.96 1482.55 Q2325.6 1482.55 2327.4 1479.01 Q2329.23 1475.44 2329.23 1468.33 Q2329.23 1461.2 2327.4 1457.66 Q2325.6 1454.1 2321.96 1454.1 M2321.96 1450.39 Q2327.77 1450.39 2330.83 1455 Q2333.91 1459.58 2333.91 1468.33 Q2333.91 1477.06 2330.83 1481.67 Q2327.77 1486.25 2321.96 1486.25 Q2316.15 1486.25 2313.07 1481.67 Q2310.02 1477.06 2310.02 1468.33 Q2310.02 1459.58 2313.07 1455 Q2316.15 1450.39 2321.96 1450.39 Z" fill="#000000" fill-rule="nonzero" fill-opacity="1" /><path clip-path="url(#clip170)" d="M743.789 1520.52 L773.836 1520.52 L773.836 1525.93 L750.219 1525.93 L750.219 1540 L772.849 1540 L772.849 1545.41 L750.219 1545.41 L750.219 1562.63 L774.408 1562.63 L774.408 1568.04 L743.789 1568.04 L743.789 1520.52 Z" fill="#000000" fill-rule="nonzero" fill-opacity="1" /><path clip-path="url(#clip170)" d="M814.353 1546.53 L814.353 1568.04 L808.497 1568.04 L808.497 1546.72 Q808.497 1541.66 806.523 1539.14 Q804.55 1536.63 800.603 1536.63 Q795.861 1536.63 793.124 1539.65 Q790.386 1542.68 790.386 1547.9 L790.386 1568.04 L784.498 1568.04 L784.498 1532.4 L790.386 1532.4 L790.386 1537.93 Q792.487 1534.72 795.32 1533.13 Q798.184 1531.54 801.908 1531.54 Q808.051 1531.54 811.202 1535.36 Q814.353 1539.14 814.353 1546.53 Z" fill="#000000" fill-rule="nonzero" fill-opacity="1" /><path clip-path="url(#clip170)" d="M856.526 1548.76 L856.526 1551.62 L829.599 1551.62 Q829.981 1557.67 833.228 1560.85 Q836.506 1564 842.331 1564 Q845.704 1564 848.855 1563.17 Q852.038 1562.35 855.157 1560.69 L855.157 1566.23 Q852.006 1567.57 848.696 1568.27 Q845.386 1568.97 841.98 1568.97 Q833.45 1568.97 828.453 1564 Q823.488 1559.04 823.488 1550.57 Q823.488 1541.82 828.199 1536.69 Q832.941 1531.54 840.962 1531.54 Q848.155 1531.54 852.325 1536.18 Q856.526 1540.8 856.526 1548.76 M850.67 1547.04 Q850.606 1542.23 847.964 1539.37 Q845.354 1536.5 841.026 1536.5 Q836.124 1536.5 833.164 1539.27 Q830.236 1542.04 829.79 1547.07 L850.67 1547.04 Z" fill="#000000" fill-rule="nonzero" fill-opacity="1" /><path clip-path="url(#clip170)" d="M886.795 1537.87 Q885.808 1537.3 884.631 1537.04 Q883.485 1536.76 882.084 1536.76 Q877.119 1536.76 874.446 1540 Q871.804 1543.22 871.804 1549.27 L871.804 1568.04 L865.915 1568.04 L865.915 1532.4 L871.804 1532.4 L871.804 1537.93 Q873.65 1534.69 876.61 1533.13 Q879.57 1531.54 883.803 1531.54 Q884.408 1531.54 885.14 1531.63 Q885.872 1531.7 886.763 1531.85 L886.795 1537.87 Z" fill="#000000" fill-rule="nonzero" fill-opacity="1" /><path clip-path="url(#clip170)" d="M915.25 1549.81 Q915.25 1543.44 912.608 1539.94 Q909.998 1536.44 905.256 1536.44 Q900.545 1536.44 897.903 1539.94 Q895.293 1543.44 895.293 1549.81 Q895.293 1556.14 897.903 1559.64 Q900.545 1563.14 905.256 1563.14 Q909.998 1563.14 912.608 1559.64 Q915.25 1556.14 915.25 1549.81 M921.106 1563.62 Q921.106 1572.72 917.064 1577.15 Q913.022 1581.6 904.683 1581.6 Q901.595 1581.6 898.858 1581.13 Q896.121 1580.68 893.543 1579.72 L893.543 1574.03 Q896.121 1575.43 898.635 1576.1 Q901.15 1576.76 903.76 1576.76 Q909.521 1576.76 912.385 1573.74 Q915.25 1570.75 915.25 1564.67 L915.25 1561.77 Q913.435 1564.92 910.603 1566.48 Q907.77 1568.04 903.823 1568.04 Q897.267 1568.04 893.256 1563.05 Q889.246 1558.05 889.246 1549.81 Q889.246 1541.53 893.256 1536.53 Q897.267 1531.54 903.823 1531.54 Q907.77 1531.54 910.603 1533.1 Q913.435 1534.66 915.25 1537.81 L915.25 1532.4 L921.106 1532.4 L921.106 1563.62 Z" fill="#000000" fill-rule="nonzero" fill-opacity="1" /><path clip-path="url(#clip170)" d="M948.001 1571.35 Q945.519 1577.72 943.163 1579.66 Q940.808 1581.6 936.861 1581.6 L932.182 1581.6 L932.182 1576.7 L935.62 1576.7 Q938.039 1576.7 939.376 1575.56 Q940.713 1574.41 942.336 1570.14 L943.386 1567.47 L928.968 1532.4 L935.174 1532.4 L946.314 1560.28 L957.454 1532.4 L963.661 1532.4 L948.001 1571.35 Z" fill="#000000" fill-rule="nonzero" fill-opacity="1" /><path clip-path="url(#clip170)" d="M1006.28 1536.5 Q1001.57 1536.5 998.831 1540.19 Q996.094 1543.85 996.094 1550.25 Q996.094 1556.65 998.8 1560.34 Q1001.54 1564 1006.28 1564 Q1010.96 1564 1013.7 1560.31 Q1016.43 1556.62 1016.43 1550.25 Q1016.43 1543.92 1013.7 1540.23 Q1010.96 1536.5 1006.28 1536.5 M1006.28 1531.54 Q1013.92 1531.54 1018.28 1536.5 Q1022.64 1541.47 1022.64 1550.25 Q1022.64 1559 1018.28 1564 Q1013.92 1568.97 1006.28 1568.97 Q998.609 1568.97 994.248 1564 Q989.919 1559 989.919 1550.25 Q989.919 1541.47 994.248 1536.5 Q998.609 1531.54 1006.28 1531.54 Z" fill="#000000" fill-rule="nonzero" fill-opacity="1" /><path clip-path="url(#clip170)" d="M1050.39 1518.52 L1050.39 1523.39 L1044.79 1523.39 Q1041.64 1523.39 1040.4 1524.66 Q1039.19 1525.93 1039.19 1529.24 L1039.19 1532.4 L1048.83 1532.4 L1048.83 1536.95 L1039.19 1536.95 L1039.19 1568.04 L1033.3 1568.04 L1033.3 1536.95 L1027.7 1536.95 L1027.7 1532.4 L1033.3 1532.4 L1033.3 1529.91 Q1033.3 1523.96 1036.07 1521.26 Q1038.84 1518.52 1044.86 1518.52 L1050.39 1518.52 Z" fill="#000000" fill-rule="nonzero" fill-opacity="1" /><path clip-path="url(#clip170)" d="M1076.02 1532.4 L1081.87 1532.4 L1081.87 1568.04 L1076.02 1568.04 L1076.02 1532.4 M1076.02 1518.52 L1081.87 1518.52 L1081.87 1525.93 L1076.02 1525.93 L1076.02 1518.52 Z" fill="#000000" fill-rule="nonzero" fill-opacity="1" /><path clip-path="url(#clip170)" d="M1123.76 1546.53 L1123.76 1568.04 L1117.9 1568.04 L1117.9 1546.72 Q1117.9 1541.66 1115.93 1539.14 Q1113.96 1536.63 1110.01 1536.63 Q1105.27 1536.63 1102.53 1539.65 Q1099.79 1542.68 1099.79 1547.9 L1099.79 1568.04 L1093.9 1568.04 L1093.9 1532.4 L1099.79 1532.4 L1099.79 1537.93 Q1101.89 1534.72 1104.72 1533.13 Q1107.59 1531.54 1111.31 1531.54 Q1117.46 1531.54 1120.61 1535.36 Q1123.76 1539.14 1123.76 1546.53 Z" fill="#000000" fill-rule="nonzero" fill-opacity="1" /><path clip-path="url(#clip170)" d="M1161.09 1533.76 L1161.09 1539.24 Q1158.61 1537.87 1156.1 1537.2 Q1153.61 1536.5 1151.07 1536.5 Q1145.37 1536.5 1142.22 1540.13 Q1139.07 1543.73 1139.07 1550.25 Q1139.07 1556.78 1142.22 1560.4 Q1145.37 1564 1151.07 1564 Q1153.61 1564 1156.1 1563.33 Q1158.61 1562.63 1161.09 1561.26 L1161.09 1566.68 Q1158.64 1567.82 1156 1568.39 Q1153.39 1568.97 1150.43 1568.97 Q1142.38 1568.97 1137.64 1563.91 Q1132.89 1558.85 1132.89 1550.25 Q1132.89 1541.53 1137.67 1536.53 Q1142.47 1531.54 1150.81 1531.54 Q1153.52 1531.54 1156.1 1532.11 Q1158.67 1532.65 1161.09 1533.76 Z" fill="#000000" fill-rule="nonzero" fill-opacity="1" /><path clip-path="url(#clip170)" d="M1171.28 1532.4 L1177.13 1532.4 L1177.13 1568.04 L1171.28 1568.04 L1171.28 1532.4 M1171.28 1518.52 L1177.13 1518.52 L1177.13 1525.93 L1171.28 1525.93 L1171.28 1518.52 Z" fill="#000000" fill-rule="nonzero" fill-opacity="1" /><path clip-path="url(#clip170)" d="M1212.85 1537.81 L1212.85 1518.52 L1218.7 1518.52 L1218.7 1568.04 L1212.85 1568.04 L1212.85 1562.7 Q1211 1565.88 1208.17 1567.44 Q1205.37 1568.97 1201.42 1568.97 Q1194.96 1568.97 1190.88 1563.81 Q1186.84 1558.65 1186.84 1550.25 Q1186.84 1541.85 1190.88 1536.69 Q1194.96 1531.54 1201.42 1531.54 Q1205.37 1531.54 1208.17 1533.1 Q1211 1534.62 1212.85 1537.81 M1192.89 1550.25 Q1192.89 1556.71 1195.53 1560.4 Q1198.21 1564.07 1202.85 1564.07 Q1207.5 1564.07 1210.17 1560.4 Q1212.85 1556.71 1212.85 1550.25 Q1212.85 1543.79 1210.17 1540.13 Q1207.5 1536.44 1202.85 1536.44 Q1198.21 1536.44 1195.53 1540.13 Q1192.89 1543.79 1192.89 1550.25 Z" fill="#000000" fill-rule="nonzero" fill-opacity="1" /><path clip-path="url(#clip170)" d="M1261.26 1548.76 L1261.26 1551.62 L1234.33 1551.62 Q1234.71 1557.67 1237.96 1560.85 Q1241.24 1564 1247.06 1564 Q1250.44 1564 1253.59 1563.17 Q1256.77 1562.35 1259.89 1560.69 L1259.89 1566.23 Q1256.74 1567.57 1253.43 1568.27 Q1250.12 1568.97 1246.71 1568.97 Q1238.18 1568.97 1233.18 1564 Q1228.22 1559.04 1228.22 1550.57 Q1228.22 1541.82 1232.93 1536.69 Q1237.67 1531.54 1245.69 1531.54 Q1252.89 1531.54 1257.06 1536.18 Q1261.26 1540.8 1261.26 1548.76 M1255.4 1547.04 Q1255.34 1542.23 1252.7 1539.37 Q1250.09 1536.5 1245.76 1536.5 Q1240.86 1536.5 1237.9 1539.27 Q1234.97 1542.04 1234.52 1547.07 L1255.4 1547.04 Z" fill="#000000" fill-rule="nonzero" fill-opacity="1" /><path clip-path="url(#clip170)" d="M1300.5 1546.53 L1300.5 1568.04 L1294.65 1568.04 L1294.65 1546.72 Q1294.65 1541.66 1292.67 1539.14 Q1290.7 1536.63 1286.75 1536.63 Q1282.01 1536.63 1279.27 1539.65 Q1276.54 1542.68 1276.54 1547.9 L1276.54 1568.04 L1270.65 1568.04 L1270.65 1532.4 L1276.54 1532.4 L1276.54 1537.93 Q1278.64 1534.72 1281.47 1533.13 Q1284.33 1531.54 1288.06 1531.54 Q1294.2 1531.54 1297.35 1535.36 Q1300.5 1539.14 1300.5 1546.53 Z" fill="#000000" fill-rule="nonzero" fill-opacity="1" /><path clip-path="url(#clip170)" d="M1317.98 1522.27 L1317.98 1532.4 L1330.04 1532.4 L1330.04 1536.95 L1317.98 1536.95 L1317.98 1556.3 Q1317.98 1560.66 1319.15 1561.9 Q1320.36 1563.14 1324.02 1563.14 L1330.04 1563.14 L1330.04 1568.04 L1324.02 1568.04 Q1317.24 1568.04 1314.67 1565.53 Q1312.09 1562.98 1312.09 1556.3 L1312.09 1536.95 L1307.79 1536.95 L1307.79 1532.4 L1312.09 1532.4 L1312.09 1522.27 L1317.98 1522.27 Z" fill="#000000" fill-rule="nonzero" fill-opacity="1" /><path clip-path="url(#clip170)" d="M1388.09 1546.53 L1388.09 1568.04 L1382.24 1568.04 L1382.24 1546.72 Q1382.24 1541.66 1380.26 1539.14 Q1378.29 1536.63 1374.34 1536.63 Q1369.6 1536.63 1366.86 1539.65 Q1364.13 1542.68 1364.13 1547.9 L1364.13 1568.04 L1358.24 1568.04 L1358.24 1532.4 L1364.13 1532.4 L1364.13 1537.93 Q1366.23 1534.72 1369.06 1533.13 Q1371.93 1531.54 1375.65 1531.54 Q1381.79 1531.54 1384.94 1535.36 Q1388.09 1539.14 1388.09 1546.53 Z" fill="#000000" fill-rule="nonzero" fill-opacity="1" /><path clip-path="url(#clip170)" d="M1430.27 1548.76 L1430.27 1551.62 L1403.34 1551.62 Q1403.72 1557.67 1406.97 1560.85 Q1410.25 1564 1416.07 1564 Q1419.45 1564 1422.6 1563.17 Q1425.78 1562.35 1428.9 1560.69 L1428.9 1566.23 Q1425.75 1567.57 1422.44 1568.27 Q1419.13 1568.97 1415.72 1568.97 Q1407.19 1568.97 1402.19 1564 Q1397.23 1559.04 1397.23 1550.57 Q1397.23 1541.82 1401.94 1536.69 Q1406.68 1531.54 1414.7 1531.54 Q1421.9 1531.54 1426.07 1536.18 Q1430.27 1540.8 1430.27 1548.76 M1424.41 1547.04 Q1424.35 1542.23 1421.71 1539.37 Q1419.1 1536.5 1414.77 1536.5 Q1409.87 1536.5 1406.91 1539.27 Q1403.98 1542.04 1403.53 1547.07 L1424.41 1547.04 Z" fill="#000000" fill-rule="nonzero" fill-opacity="1" /><path clip-path="url(#clip170)" d="M1439.27 1553.98 L1439.27 1532.4 L1445.13 1532.4 L1445.13 1553.75 Q1445.13 1558.81 1447.1 1561.36 Q1449.08 1563.87 1453.02 1563.87 Q1457.77 1563.87 1460.5 1560.85 Q1463.27 1557.83 1463.27 1552.61 L1463.27 1532.4 L1469.13 1532.4 L1469.13 1568.04 L1463.27 1568.04 L1463.27 1562.57 Q1461.14 1565.82 1458.31 1567.41 Q1455.51 1568.97 1451.78 1568.97 Q1445.64 1568.97 1442.46 1565.15 Q1439.27 1561.33 1439.27 1553.98 M1454.01 1531.54 L1454.01 1531.54 Z" fill="#000000" fill-rule="nonzero" fill-opacity="1" /><path clip-path="url(#clip170)" d="M1486.99 1522.27 L1486.99 1532.4 L1499.05 1532.4 L1499.05 1536.95 L1486.99 1536.95 L1486.99 1556.3 Q1486.99 1560.66 1488.16 1561.9 Q1489.37 1563.14 1493.03 1563.14 L1499.05 1563.14 L1499.05 1568.04 L1493.03 1568.04 Q1486.25 1568.04 1483.68 1565.53 Q1481.1 1562.98 1481.1 1556.3 L1481.1 1536.95 L1476.8 1536.95 L1476.8 1532.4 L1481.1 1532.4 L1481.1 1522.27 L1486.99 1522.27 Z" fill="#000000" fill-rule="nonzero" fill-opacity="1" /><path clip-path="url(#clip170)" d="M1527.41 1537.87 Q1526.42 1537.3 1525.24 1537.04 Q1524.1 1536.76 1522.7 1536.76 Q1517.73 1536.76 1515.06 1540 Q1512.42 1543.22 1512.42 1549.27 L1512.42 1568.04 L1506.53 1568.04 L1506.53 1532.4 L1512.42 1532.4 L1512.42 1537.93 Q1514.26 1534.69 1517.22 1533.13 Q1520.18 1531.54 1524.42 1531.54 Q1525.02 1531.54 1525.75 1531.63 Q1526.48 1531.7 1527.38 1531.85 L1527.41 1537.87 Z" fill="#000000" fill-rule="nonzero" fill-opacity="1" /><path clip-path="url(#clip170)" d="M1545.93 1536.5 Q1541.22 1536.5 1538.48 1540.19 Q1535.75 1543.85 1535.75 1550.25 Q1535.75 1556.65 1538.45 1560.34 Q1541.19 1564 1545.93 1564 Q1550.61 1564 1553.35 1560.31 Q1556.09 1556.62 1556.09 1550.25 Q1556.09 1543.92 1553.35 1540.23 Q1550.61 1536.5 1545.93 1536.5 M1545.93 1531.54 Q1553.57 1531.54 1557.93 1536.5 Q1562.29 1541.47 1562.29 1550.25 Q1562.29 1559 1557.93 1564 Q1553.57 1568.97 1545.93 1568.97 Q1538.26 1568.97 1533.9 1564 Q1529.57 1559 1529.57 1550.25 Q1529.57 1541.47 1533.9 1536.5 Q1538.26 1531.54 1545.93 1531.54 Z" fill="#000000" fill-rule="nonzero" fill-opacity="1" /><path clip-path="url(#clip170)" d="M1601.63 1546.53 L1601.63 1568.04 L1595.78 1568.04 L1595.78 1546.72 Q1595.78 1541.66 1593.8 1539.14 Q1591.83 1536.63 1587.88 1536.63 Q1583.14 1536.63 1580.4 1539.65 Q1577.67 1542.68 1577.67 1547.9 L1577.67 1568.04 L1571.78 1568.04 L1571.78 1532.4 L1577.67 1532.4 L1577.67 1537.93 Q1579.77 1534.72 1582.6 1533.13 Q1585.46 1531.54 1589.19 1531.54 Q1595.33 1531.54 1598.48 1535.36 Q1601.63 1539.14 1601.63 1546.53 Z" fill="#000000" fill-rule="nonzero" fill-opacity="1" /><path clip-path="url(#clip170)" d="M1648.1 1518.58 Q1643.84 1525.9 1641.77 1533.06 Q1639.7 1540.23 1639.7 1547.58 Q1639.7 1554.93 1641.77 1562.16 Q1643.87 1569.35 1648.1 1576.64 L1643.01 1576.64 Q1638.23 1569.16 1635.85 1561.93 Q1633.49 1554.71 1633.49 1547.58 Q1633.49 1540.48 1635.85 1533.29 Q1638.2 1526.09 1643.01 1518.58 L1648.1 1518.58 Z" fill="#000000" fill-rule="nonzero" fill-opacity="1" /><path clip-path="url(#clip170)" d="M1659.72 1520.52 L1669.3 1520.52 L1681.43 1552.86 L1693.62 1520.52 L1703.2 1520.52 L1703.2 1568.04 L1696.93 1568.04 L1696.93 1526.32 L1684.67 1558.91 L1678.21 1558.91 L1665.96 1526.32 L1665.96 1568.04 L1659.72 1568.04 L1659.72 1520.52 Z" fill="#000000" fill-rule="nonzero" fill-opacity="1" /><path clip-path="url(#clip170)" d="M1746.2 1548.76 L1746.2 1551.62 L1719.27 1551.62 Q1719.65 1557.67 1722.9 1560.85 Q1726.18 1564 1732 1564 Q1735.38 1564 1738.53 1563.17 Q1741.71 1562.35 1744.83 1560.69 L1744.83 1566.23 Q1741.68 1567.57 1738.37 1568.27 Q1735.06 1568.97 1731.65 1568.97 Q1723.12 1568.97 1718.12 1564 Q1713.16 1559.04 1713.16 1550.57 Q1713.16 1541.82 1717.87 1536.69 Q1722.61 1531.54 1730.63 1531.54 Q1737.83 1531.54 1742 1536.18 Q1746.2 1540.8 1746.2 1548.76 M1740.34 1547.04 Q1740.28 1542.23 1737.64 1539.37 Q1735.03 1536.5 1730.7 1536.5 Q1725.8 1536.5 1722.84 1539.27 Q1719.91 1542.04 1719.46 1547.07 L1740.34 1547.04 Z" fill="#000000" fill-rule="nonzero" fill-opacity="1" /><path clip-path="url(#clip170)" d="M1768.32 1568.04 L1750.18 1520.52 L1756.89 1520.52 L1771.95 1560.53 L1787.03 1520.52 L1793.72 1520.52 L1775.61 1568.04 L1768.32 1568.04 Z" fill="#000000" fill-rule="nonzero" fill-opacity="1" /><path clip-path="url(#clip170)" d="M1799.48 1518.58 L1804.57 1518.58 Q1809.35 1526.09 1811.7 1533.29 Q1814.09 1540.48 1814.09 1547.58 Q1814.09 1554.71 1811.7 1561.93 Q1809.35 1569.16 1804.57 1576.64 L1799.48 1576.64 Q1803.71 1569.35 1805.78 1562.16 Q1807.88 1554.93 1807.88 1547.58 Q1807.88 1540.23 1805.78 1533.06 Q1803.71 1525.9 1799.48 1518.58 Z" fill="#000000" fill-rule="nonzero" fill-opacity="1" /><polyline clip-path="url(#clip170)" style="stroke:#000000; stroke-linecap:round; stroke-linejoin:round; stroke-width:4; stroke-opacity:1; fill:none" points="205.121,1423.18 205.121,123.472 "/>
<polyline clip-path="url(#clip170)" style="stroke:#000000; stroke-linecap:round; stroke-linejoin:round; stroke-width:4; stroke-opacity:1; fill:none" points="205.121,1414.86 224.019,1414.86 "/>
<polyline clip-path="url(#clip170)" style="stroke:#000000; stroke-linecap:round; stroke-linejoin:round; stroke-width:4; stroke-opacity:1; fill:none" points="205.121,1111.13 224.019,1111.13 "/>
<polyline clip-path="url(#clip170)" style="stroke:#000000; stroke-linecap:round; stroke-linejoin:round; stroke-width:4; stroke-opacity:1; fill:none" points="205.121,807.39 224.019,807.39 "/>
<polyline clip-path="url(#clip170)" style="stroke:#000000; stroke-linecap:round; stroke-linejoin:round; stroke-width:4; stroke-opacity:1; fill:none" points="205.121,503.653 224.019,503.653 "/>
<polyline clip-path="url(#clip170)" style="stroke:#000000; stroke-linecap:round; stroke-linejoin:round; stroke-width:4; stroke-opacity:1; fill:none" points="205.121,199.916 224.019,199.916 "/>
<path clip-path="url(#clip170)" d="M157.177 1400.66 Q153.566 1400.66 151.737 1404.23 Q149.931 1407.77 149.931 1414.9 Q149.931 1422 151.737 1425.57 Q153.566 1429.11 157.177 1429.11 Q160.811 1429.11 162.616 1425.57 Q164.445 1422 164.445 1414.9 Q164.445 1407.77 162.616 1404.23 Q160.811 1400.66 157.177 1400.66 M157.177 1396.96 Q162.987 1396.96 166.042 1401.56 Q169.121 1406.15 169.121 1414.9 Q169.121 1423.62 166.042 1428.23 Q162.987 1432.81 157.177 1432.81 Q151.366 1432.81 148.288 1428.23 Q145.232 1423.62 145.232 1414.9 Q145.232 1406.15 148.288 1401.56 Q151.366 1396.96 157.177 1396.96 Z" fill="#000000" fill-rule="nonzero" fill-opacity="1" /><path clip-path="url(#clip170)" d="M117.825 1124.47 L125.464 1124.47 L125.464 1098.11 L117.154 1099.77 L117.154 1095.51 L125.418 1093.85 L130.093 1093.85 L130.093 1124.47 L137.732 1124.47 L137.732 1128.41 L117.825 1128.41 L117.825 1124.47 Z" fill="#000000" fill-rule="nonzero" fill-opacity="1" /><path clip-path="url(#clip170)" d="M157.177 1096.93 Q153.566 1096.93 151.737 1100.49 Q149.931 1104.03 149.931 1111.16 Q149.931 1118.27 151.737 1121.83 Q153.566 1125.37 157.177 1125.37 Q160.811 1125.37 162.616 1121.83 Q164.445 1118.27 164.445 1111.16 Q164.445 1104.03 162.616 1100.49 Q160.811 1096.93 157.177 1096.93 M157.177 1093.22 Q162.987 1093.22 166.042 1097.83 Q169.121 1102.41 169.121 1111.16 Q169.121 1119.89 166.042 1124.49 Q162.987 1129.08 157.177 1129.08 Q151.366 1129.08 148.288 1124.49 Q145.232 1119.89 145.232 1111.16 Q145.232 1102.41 148.288 1097.83 Q151.366 1093.22 157.177 1093.22 Z" fill="#000000" fill-rule="nonzero" fill-opacity="1" /><path clip-path="url(#clip170)" d="M121.043 820.734 L137.362 820.734 L137.362 824.67 L115.418 824.67 L115.418 820.734 Q118.08 817.98 122.663 813.35 Q127.269 808.697 128.45 807.355 Q130.695 804.832 131.575 803.096 Q132.478 801.336 132.478 799.647 Q132.478 796.892 130.533 795.156 Q128.612 793.42 125.51 793.42 Q123.311 793.42 120.857 794.184 Q118.427 794.948 115.649 796.498 L115.649 791.776 Q118.473 790.642 120.927 790.063 Q123.38 789.485 125.418 789.485 Q130.788 789.485 133.982 792.17 Q137.177 794.855 137.177 799.346 Q137.177 801.475 136.367 803.397 Q135.579 805.295 133.473 807.887 Q132.894 808.559 129.792 811.776 Q126.691 814.971 121.043 820.734 Z" fill="#000000" fill-rule="nonzero" fill-opacity="1" /><path clip-path="url(#clip170)" d="M157.177 793.188 Q153.566 793.188 151.737 796.753 Q149.931 800.295 149.931 807.424 Q149.931 814.531 151.737 818.096 Q153.566 821.637 157.177 821.637 Q160.811 821.637 162.616 818.096 Q164.445 814.531 164.445 807.424 Q164.445 800.295 162.616 796.753 Q160.811 793.188 157.177 793.188 M157.177 789.485 Q162.987 789.485 166.042 794.091 Q169.121 798.674 169.121 807.424 Q169.121 816.151 166.042 820.758 Q162.987 825.341 157.177 825.341 Q151.366 825.341 148.288 820.758 Q145.232 816.151 145.232 807.424 Q145.232 798.674 148.288 794.091 Q151.366 789.485 157.177 789.485 Z" fill="#000000" fill-rule="nonzero" fill-opacity="1" /><path clip-path="url(#clip170)" d="M131.181 502.299 Q134.538 503.016 136.413 505.285 Q138.311 507.553 138.311 510.887 Q138.311 516.002 134.792 518.803 Q131.274 521.604 124.793 521.604 Q122.617 521.604 120.302 521.164 Q118.01 520.748 115.556 519.891 L115.556 515.377 Q117.501 516.512 119.816 517.09 Q122.13 517.669 124.654 517.669 Q129.052 517.669 131.343 515.933 Q133.658 514.197 133.658 510.887 Q133.658 507.831 131.505 506.118 Q129.376 504.382 125.556 504.382 L121.529 504.382 L121.529 500.539 L125.742 500.539 Q129.191 500.539 131.019 499.174 Q132.848 497.785 132.848 495.192 Q132.848 492.53 130.95 491.118 Q129.075 489.683 125.556 489.683 Q123.635 489.683 121.436 490.1 Q119.237 490.516 116.598 491.396 L116.598 487.229 Q119.26 486.489 121.575 486.118 Q123.913 485.748 125.973 485.748 Q131.297 485.748 134.399 488.178 Q137.501 490.586 137.501 494.706 Q137.501 497.576 135.857 499.567 Q134.214 501.535 131.181 502.299 Z" fill="#000000" fill-rule="nonzero" fill-opacity="1" /><path clip-path="url(#clip170)" d="M157.177 489.451 Q153.566 489.451 151.737 493.016 Q149.931 496.558 149.931 503.688 Q149.931 510.794 151.737 514.359 Q153.566 517.9 157.177 517.9 Q160.811 517.9 162.616 514.359 Q164.445 510.794 164.445 503.688 Q164.445 496.558 162.616 493.016 Q160.811 489.451 157.177 489.451 M157.177 485.748 Q162.987 485.748 166.042 490.354 Q169.121 494.938 169.121 503.688 Q169.121 512.414 166.042 517.021 Q162.987 521.604 157.177 521.604 Q151.366 521.604 148.288 517.021 Q145.232 512.414 145.232 503.688 Q145.232 494.938 148.288 490.354 Q151.366 485.748 157.177 485.748 Z" fill="#000000" fill-rule="nonzero" fill-opacity="1" /><path clip-path="url(#clip170)" d="M129.862 186.71 L118.056 205.159 L129.862 205.159 L129.862 186.71 M128.635 182.636 L134.515 182.636 L134.515 205.159 L139.445 205.159 L139.445 209.048 L134.515 209.048 L134.515 217.196 L129.862 217.196 L129.862 209.048 L114.26 209.048 L114.26 204.534 L128.635 182.636 Z" fill="#000000" fill-rule="nonzero" fill-opacity="1" /><path clip-path="url(#clip170)" d="M157.177 185.715 Q153.566 185.715 151.737 189.28 Q149.931 192.821 149.931 199.951 Q149.931 207.057 151.737 210.622 Q153.566 214.164 157.177 214.164 Q160.811 214.164 162.616 210.622 Q164.445 207.057 164.445 199.951 Q164.445 192.821 162.616 189.28 Q160.811 185.715 157.177 185.715 M157.177 182.011 Q162.987 182.011 166.042 186.618 Q169.121 191.201 169.121 199.951 Q169.121 208.678 166.042 213.284 Q162.987 217.867 157.177 217.867 Q151.366 217.867 148.288 213.284 Q145.232 208.678 145.232 199.951 Q145.232 191.201 148.288 186.618 Q151.366 182.011 157.177 182.011 Z" fill="#000000" fill-rule="nonzero" fill-opacity="1" /><path clip-path="url(#clip170)" d="M16.4842 1145.77 L16.4842 1115.72 L21.895 1115.72 L21.895 1139.34 L35.9632 1139.34 L35.9632 1116.71 L41.3741 1116.71 L41.3741 1139.34 L58.5933 1139.34 L58.5933 1115.15 L64.0042 1115.15 L64.0042 1145.77 L16.4842 1145.77 Z" fill="#000000" fill-rule="nonzero" fill-opacity="1" /><path clip-path="url(#clip170)" d="M42.4881 1075.2 L64.0042 1075.2 L64.0042 1081.06 L42.679 1081.06 Q37.6183 1081.06 35.1038 1083.03 Q32.5894 1085.01 32.5894 1088.95 Q32.5894 1093.7 35.6131 1096.43 Q38.6368 1099.17 43.8567 1099.17 L64.0042 1099.17 L64.0042 1105.06 L28.3562 1105.06 L28.3562 1099.17 L33.8944 1099.17 Q30.6797 1097.07 29.0883 1094.24 Q27.4968 1091.37 27.4968 1087.65 Q27.4968 1081.51 31.3163 1078.35 Q35.1038 1075.2 42.4881 1075.2 Z" fill="#000000" fill-rule="nonzero" fill-opacity="1" /><path clip-path="url(#clip170)" d="M44.7161 1033.03 L47.5806 1033.03 L47.5806 1059.96 Q53.6281 1059.58 56.8109 1056.33 Q59.9619 1053.05 59.9619 1047.23 Q59.9619 1043.85 59.1344 1040.7 Q58.3069 1037.52 56.6518 1034.4 L62.1899 1034.4 Q63.5267 1037.55 64.227 1040.86 Q64.9272 1044.17 64.9272 1047.58 Q64.9272 1056.11 59.9619 1061.1 Q54.9967 1066.07 46.5303 1066.07 Q37.7774 1066.07 32.6531 1061.36 Q27.4968 1056.62 27.4968 1048.6 Q27.4968 1041.4 32.1438 1037.23 Q36.7589 1033.03 44.7161 1033.03 M42.9973 1038.89 Q38.1912 1038.95 35.3266 1041.59 Q32.4621 1044.2 32.4621 1048.53 Q32.4621 1053.43 35.2312 1056.39 Q38.0002 1059.32 43.0292 1059.77 L42.9973 1038.89 Z" fill="#000000" fill-rule="nonzero" fill-opacity="1" /><path clip-path="url(#clip170)" d="M33.8307 1002.76 Q33.2578 1003.75 33.0032 1004.93 Q32.7167 1006.07 32.7167 1007.47 Q32.7167 1012.44 35.9632 1015.11 Q39.1779 1017.75 45.2253 1017.75 L64.0042 1017.75 L64.0042 1023.64 L28.3562 1023.64 L28.3562 1017.75 L33.8944 1017.75 Q30.6479 1015.91 29.0883 1012.95 Q27.4968 1009.99 27.4968 1005.75 Q27.4968 1005.15 27.5923 1004.42 Q27.656 1003.68 27.8151 1002.79 L33.8307 1002.76 Z" fill="#000000" fill-rule="nonzero" fill-opacity="1" /><path clip-path="url(#clip170)" d="M45.7664 974.307 Q39.4007 974.307 35.8996 976.949 Q32.3984 979.559 32.3984 984.301 Q32.3984 989.012 35.8996 991.654 Q39.4007 994.264 45.7664 994.264 Q52.1003 994.264 55.6014 991.654 Q59.1026 989.012 59.1026 984.301 Q59.1026 979.559 55.6014 976.949 Q52.1003 974.307 45.7664 974.307 M59.58 968.451 Q68.683 968.451 73.1071 972.493 Q77.5631 976.535 77.5631 984.874 Q77.5631 987.962 77.0857 990.699 Q76.6401 993.436 75.6852 996.014 L69.9879 996.014 Q71.3884 993.436 72.0568 990.922 Q72.7252 988.407 72.7252 985.797 Q72.7252 980.036 69.7015 977.172 Q66.7096 974.307 60.6303 974.307 L57.7339 974.307 Q60.885 976.121 62.4446 978.954 Q64.0042 981.787 64.0042 985.734 Q64.0042 992.29 59.0071 996.301 Q54.01 1000.31 45.7664 1000.31 Q37.491 1000.31 32.4939 996.301 Q27.4968 992.29 27.4968 985.734 Q27.4968 981.787 29.0564 978.954 Q30.616 976.121 33.7671 974.307 L28.3562 974.307 L28.3562 968.451 L59.58 968.451 Z" fill="#000000" fill-rule="nonzero" fill-opacity="1" /><path clip-path="url(#clip170)" d="M67.3143 941.556 Q73.68 944.038 75.6216 946.394 Q77.5631 948.749 77.5631 952.696 L77.5631 957.374 L72.6615 957.374 L72.6615 953.937 Q72.6615 951.518 71.5157 950.181 Q70.3699 948.844 66.1048 947.221 L63.4312 946.171 L28.3562 960.589 L28.3562 954.383 L56.238 943.243 L28.3562 932.103 L28.3562 925.896 L67.3143 941.556 Z" fill="#000000" fill-rule="nonzero" fill-opacity="1" /><path clip-path="url(#clip170)" d="M49.9359 897.696 L28.3562 897.696 L28.3562 891.84 L49.7131 891.84 Q54.7739 891.84 57.3202 889.866 Q59.8346 887.893 59.8346 883.946 Q59.8346 879.204 56.8109 876.466 Q53.7872 873.697 48.5673 873.697 L28.3562 873.697 L28.3562 867.841 L64.0042 867.841 L64.0042 873.697 L58.5296 873.697 Q61.7762 875.83 63.3676 878.663 Q64.9272 881.463 64.9272 885.187 Q64.9272 891.33 61.1078 894.513 Q57.2883 897.696 49.9359 897.696 M27.4968 882.959 L27.4968 882.959 Z" fill="#000000" fill-rule="nonzero" fill-opacity="1" /><path clip-path="url(#clip170)" d="M42.4881 826.145 L64.0042 826.145 L64.0042 832.002 L42.679 832.002 Q37.6183 832.002 35.1038 833.975 Q32.5894 835.949 32.5894 839.895 Q32.5894 844.638 35.6131 847.375 Q38.6368 850.112 43.8567 850.112 L64.0042 850.112 L64.0042 856.001 L28.3562 856.001 L28.3562 850.112 L33.8944 850.112 Q30.6797 848.012 29.0883 845.179 Q27.4968 842.314 27.4968 838.59 Q27.4968 832.447 31.3163 829.296 Q35.1038 826.145 42.4881 826.145 Z" fill="#000000" fill-rule="nonzero" fill-opacity="1" /><path clip-path="url(#clip170)" d="M29.7248 788.811 L35.1993 788.811 Q33.8307 791.293 33.1623 793.808 Q32.4621 796.29 32.4621 798.837 Q32.4621 804.534 36.0905 807.685 Q39.6872 810.836 46.212 810.836 Q52.7369 810.836 56.3653 807.685 Q59.9619 804.534 59.9619 798.837 Q59.9619 796.29 59.2935 793.808 Q58.5933 791.293 57.2247 788.811 L62.6355 788.811 Q63.7814 791.261 64.3543 793.903 Q64.9272 796.513 64.9272 799.473 Q64.9272 807.526 59.8664 812.268 Q54.8057 817.011 46.212 817.011 Q37.491 817.011 32.4939 812.236 Q27.4968 807.43 27.4968 799.091 Q27.4968 796.386 28.0697 793.808 Q28.6108 791.23 29.7248 788.811 Z" fill="#000000" fill-rule="nonzero" fill-opacity="1" /><path clip-path="url(#clip170)" d="M44.7161 748.134 L47.5806 748.134 L47.5806 775.061 Q53.6281 774.679 56.8109 771.432 Q59.9619 768.154 59.9619 762.329 Q59.9619 758.955 59.1344 755.804 Q58.3069 752.622 56.6518 749.502 L62.1899 749.502 Q63.5267 752.653 64.227 755.964 Q64.9272 759.274 64.9272 762.679 Q64.9272 771.209 59.9619 776.206 Q54.9967 781.172 46.5303 781.172 Q37.7774 781.172 32.6531 776.461 Q27.4968 771.719 27.4968 763.698 Q27.4968 756.505 32.1438 752.335 Q36.7589 748.134 44.7161 748.134 M42.9973 753.99 Q38.1912 754.054 35.3266 756.696 Q32.4621 759.306 32.4621 763.634 Q32.4621 768.536 35.2312 771.496 Q38.0002 774.424 43.0292 774.87 L42.9973 753.99 Z" fill="#000000" fill-rule="nonzero" fill-opacity="1" /><path clip-path="url(#clip170)" d="M33.8307 717.865 Q33.2578 718.851 33.0032 720.029 Q32.7167 721.175 32.7167 722.575 Q32.7167 727.541 35.9632 730.214 Q39.1779 732.856 45.2253 732.856 L64.0042 732.856 L64.0042 738.744 L28.3562 738.744 L28.3562 732.856 L33.8944 732.856 Q30.6479 731.01 29.0883 728.05 Q27.4968 725.09 27.4968 720.857 Q27.4968 720.252 27.5923 719.52 Q27.656 718.788 27.8151 717.897 L33.8307 717.865 Z" fill="#000000" fill-rule="nonzero" fill-opacity="1" /><path clip-path="url(#clip170)" d="M18.2347 705.929 L28.3562 705.929 L28.3562 693.866 L32.9077 693.866 L32.9077 705.929 L52.2594 705.929 Q56.6199 705.929 57.8613 704.751 Q59.1026 703.542 59.1026 699.882 L59.1026 693.866 L64.0042 693.866 L64.0042 699.882 Q64.0042 706.661 61.4897 709.239 Q58.9434 711.817 52.2594 711.817 L32.9077 711.817 L32.9077 716.114 L28.3562 716.114 L28.3562 711.817 L18.2347 711.817 L18.2347 705.929 Z" fill="#000000" fill-rule="nonzero" fill-opacity="1" /><path clip-path="url(#clip170)" d="M46.0847 669.963 Q46.0847 677.061 47.7079 679.798 Q49.3312 682.535 53.2461 682.535 Q56.3653 682.535 58.2114 680.498 Q60.0256 678.429 60.0256 674.896 Q60.0256 670.026 56.5881 667.098 Q53.1188 664.138 47.3897 664.138 L46.0847 664.138 L46.0847 669.963 M43.6657 658.282 L64.0042 658.282 L64.0042 664.138 L58.5933 664.138 Q61.8398 666.143 63.3994 669.135 Q64.9272 672.127 64.9272 676.456 Q64.9272 681.93 61.8716 685.177 Q58.7843 688.392 53.6281 688.392 Q47.6125 688.392 44.5569 684.381 Q41.5014 680.339 41.5014 672.35 L41.5014 664.138 L40.9285 664.138 Q36.8862 664.138 34.6901 666.812 Q32.4621 669.454 32.4621 674.26 Q32.4621 677.315 33.1941 680.212 Q33.9262 683.108 35.3903 685.782 L29.9795 685.782 Q28.7381 682.567 28.1334 679.543 Q27.4968 676.52 27.4968 673.655 Q27.4968 665.921 31.5072 662.101 Q35.5176 658.282 43.6657 658.282 Z" fill="#000000" fill-rule="nonzero" fill-opacity="1" /><path clip-path="url(#clip170)" d="M28.3562 646.219 L28.3562 640.362 L64.0042 640.362 L64.0042 646.219 L28.3562 646.219 M14.479 646.219 L14.479 640.362 L21.895 640.362 L21.895 646.219 L14.479 646.219 Z" fill="#000000" fill-rule="nonzero" fill-opacity="1" /><path clip-path="url(#clip170)" d="M42.4881 598.476 L64.0042 598.476 L64.0042 604.332 L42.679 604.332 Q37.6183 604.332 35.1038 606.306 Q32.5894 608.279 32.5894 612.226 Q32.5894 616.968 35.6131 619.706 Q38.6368 622.443 43.8567 622.443 L64.0042 622.443 L64.0042 628.331 L28.3562 628.331 L28.3562 622.443 L33.8944 622.443 Q30.6797 620.342 29.0883 617.509 Q27.4968 614.645 27.4968 610.921 Q27.4968 604.778 31.3163 601.627 Q35.1038 598.476 42.4881 598.476 Z" fill="#000000" fill-rule="nonzero" fill-opacity="1" /><path clip-path="url(#clip170)" d="M18.2347 581.002 L28.3562 581.002 L28.3562 568.939 L32.9077 568.939 L32.9077 581.002 L52.2594 581.002 Q56.6199 581.002 57.8613 579.824 Q59.1026 578.615 59.1026 574.955 L59.1026 568.939 L64.0042 568.939 L64.0042 574.955 Q64.0042 581.734 61.4897 584.312 Q58.9434 586.89 52.2594 586.89 L32.9077 586.89 L32.9077 591.187 L28.3562 591.187 L28.3562 586.89 L18.2347 586.89 L18.2347 581.002 Z" fill="#000000" fill-rule="nonzero" fill-opacity="1" /><path clip-path="url(#clip170)" d="M67.3143 546.404 Q73.68 548.887 75.6216 551.242 Q77.5631 553.598 77.5631 557.544 L77.5631 562.223 L72.6615 562.223 L72.6615 558.786 Q72.6615 556.367 71.5157 555.03 Q70.3699 553.693 66.1048 552.07 L63.4312 551.02 L28.3562 565.438 L28.3562 559.231 L56.238 548.091 L28.3562 536.951 L28.3562 530.745 L67.3143 546.404 Z" fill="#000000" fill-rule="nonzero" fill-opacity="1" /><path clip-path="url(#clip170)" d="M14.5426 487.872 Q21.8632 492.137 29.0246 494.206 Q36.186 496.275 43.5384 496.275 Q50.8908 496.275 58.1159 494.206 Q65.3091 492.105 72.5979 487.872 L72.5979 492.964 Q65.1182 497.739 57.8931 500.126 Q50.668 502.481 43.5384 502.481 Q36.4406 502.481 29.2474 500.126 Q22.0542 497.77 14.5426 492.964 L14.5426 487.872 Z" fill="#000000" fill-rule="nonzero" fill-opacity="1" /><path clip-path="url(#clip170)" d="M43.0928 435.259 Q43.0928 438.028 45.4481 439.62 Q47.8034 441.179 52.0048 441.179 Q56.1425 441.179 58.5296 439.62 Q60.885 438.028 60.885 435.259 Q60.885 432.554 58.5296 430.994 Q56.1425 429.403 52.0048 429.403 Q47.8353 429.403 45.48 430.994 Q43.0928 432.554 43.0928 435.259 M39.0506 435.259 Q39.0506 430.23 42.5517 427.27 Q46.0529 424.31 52.0048 424.31 Q57.9567 424.31 61.4579 427.302 Q64.9272 430.262 64.9272 435.259 Q64.9272 440.352 61.4579 443.312 Q57.9567 446.272 52.0048 446.272 Q46.021 446.272 42.5517 443.312 Q39.0506 440.32 39.0506 435.259 M19.667 468.106 Q19.667 470.844 22.0542 472.435 Q24.4095 473.995 28.5472 473.995 Q32.7485 473.995 35.1038 472.435 Q37.4592 470.875 37.4592 468.106 Q37.4592 465.337 35.1038 463.778 Q32.7485 462.186 28.5472 462.186 Q24.4413 462.186 22.0542 463.778 Q19.667 465.369 19.667 468.106 M15.6248 439.365 L15.6248 434.273 L64.9272 464 L64.9272 469.093 L15.6248 439.365 M15.6248 468.106 Q15.6248 463.077 19.1259 460.085 Q22.5952 457.094 28.5472 457.094 Q34.5628 457.094 38.0321 460.085 Q41.5014 463.046 41.5014 468.106 Q41.5014 473.167 38.0321 476.127 Q34.5309 479.055 28.5472 479.055 Q22.6271 479.055 19.1259 476.095 Q15.6248 473.135 15.6248 468.106 Z" fill="#000000" fill-rule="nonzero" fill-opacity="1" /><path clip-path="url(#clip170)" d="M14.5426 415.494 L14.5426 410.401 Q22.0542 405.627 29.2474 403.272 Q36.4406 400.884 43.5384 400.884 Q50.668 400.884 57.8931 403.272 Q65.1182 405.627 72.5979 410.401 L72.5979 415.494 Q65.3091 411.261 58.1159 409.192 Q50.8908 407.091 43.5384 407.091 Q36.186 407.091 29.0246 409.192 Q21.8632 411.261 14.5426 415.494 Z" fill="#000000" fill-rule="nonzero" fill-opacity="1" /><path clip-path="url(#clip170)" d="M594.396 12.096 L602.62 12.096 L602.62 48.8377 Q602.62 58.5599 606.144 62.8538 Q609.668 67.1073 617.568 67.1073 Q625.426 67.1073 628.951 62.8538 Q632.475 58.5599 632.475 48.8377 L632.475 12.096 L640.698 12.096 L640.698 49.8504 Q640.698 61.6791 634.824 67.7149 Q628.991 73.7508 617.568 73.7508 Q606.104 73.7508 600.23 67.7149 Q594.396 61.6791 594.396 49.8504 L594.396 12.096 Z" fill="#000000" fill-rule="nonzero" fill-opacity="1" /><path clip-path="url(#clip170)" d="M693.441 45.1919 L693.441 72.576 L685.987 72.576 L685.987 45.4349 Q685.987 38.994 683.476 35.7938 Q680.964 32.5936 675.941 32.5936 Q669.905 32.5936 666.421 36.4419 Q662.938 40.2903 662.938 46.9338 L662.938 72.576 L655.444 72.576 L655.444 27.2059 L662.938 27.2059 L662.938 34.2544 Q665.611 30.163 669.217 28.1376 Q672.862 26.1121 677.602 26.1121 Q685.42 26.1121 689.431 30.9732 Q693.441 35.7938 693.441 45.1919 Z" fill="#000000" fill-rule="nonzero" fill-opacity="1" /><path clip-path="url(#clip170)" d="M740.958 28.9478 L740.958 35.9153 Q737.798 34.1734 734.598 33.3227 Q731.438 32.4315 728.198 32.4315 Q720.947 32.4315 716.936 37.0496 Q712.926 41.6271 712.926 49.9314 Q712.926 58.2358 716.936 62.8538 Q720.947 67.4314 728.198 67.4314 Q731.438 67.4314 734.598 66.5807 Q737.798 65.6895 740.958 63.9476 L740.958 70.8341 Q737.839 72.2924 734.477 73.0216 Q731.155 73.7508 727.388 73.7508 Q717.139 73.7508 711.103 67.3098 Q705.067 60.8689 705.067 49.9314 Q705.067 38.832 711.143 32.472 Q717.26 26.1121 727.874 26.1121 Q731.317 26.1121 734.598 26.8413 Q737.879 27.5299 740.958 28.9478 Z" fill="#000000" fill-rule="nonzero" fill-opacity="1" /><path clip-path="url(#clip170)" d="M792.729 48.0275 L792.729 51.6733 L758.458 51.6733 Q758.944 59.3701 763.076 63.421 Q767.248 67.4314 774.662 67.4314 Q778.956 67.4314 782.966 66.3781 Q787.017 65.3249 790.987 63.2184 L790.987 70.267 Q786.976 71.9684 782.763 72.8596 Q778.55 73.7508 774.216 73.7508 Q763.36 73.7508 757 67.4314 Q750.68 61.1119 750.68 50.3365 Q750.68 39.1965 756.676 32.6746 Q762.711 26.1121 772.92 26.1121 Q782.075 26.1121 787.381 32.0264 Q792.729 37.9003 792.729 48.0275 M785.275 45.84 Q785.194 39.7232 781.832 36.0774 Q778.51 32.4315 773.001 32.4315 Q766.762 32.4315 762.995 35.9558 Q759.268 39.4801 758.701 45.8805 L785.275 45.84 Z" fill="#000000" fill-rule="nonzero" fill-opacity="1" /><path clip-path="url(#clip170)" d="M831.253 34.1734 Q829.997 33.4443 828.498 33.1202 Q827.04 32.7556 825.257 32.7556 Q818.938 32.7556 815.535 36.8875 Q812.173 40.9789 812.173 48.6757 L812.173 72.576 L804.679 72.576 L804.679 27.2059 L812.173 27.2059 L812.173 34.2544 Q814.523 30.1225 818.29 28.1376 Q822.057 26.1121 827.445 26.1121 Q828.215 26.1121 829.146 26.2337 Q830.078 26.3147 831.212 26.5172 L831.253 34.1734 Z" fill="#000000" fill-rule="nonzero" fill-opacity="1" /><path clip-path="url(#clip170)" d="M846.444 14.324 L846.444 27.2059 L861.797 27.2059 L861.797 32.9987 L846.444 32.9987 L846.444 57.6282 Q846.444 63.1779 847.942 64.7578 Q849.482 66.3376 854.14 66.3376 L861.797 66.3376 L861.797 72.576 L854.14 72.576 Q845.512 72.576 842.231 69.3758 Q838.949 66.1351 838.949 57.6282 L838.949 32.9987 L833.481 32.9987 L833.481 27.2059 L838.949 27.2059 L838.949 14.324 L846.444 14.324 Z" fill="#000000" fill-rule="nonzero" fill-opacity="1" /><path clip-path="url(#clip170)" d="M892.219 49.7694 Q883.185 49.7694 879.702 51.8354 Q876.218 53.9013 876.218 58.8839 Q876.218 62.8538 878.81 65.2034 Q881.443 67.5124 885.94 67.5124 Q892.138 67.5124 895.865 63.1374 Q899.632 58.7219 899.632 51.4303 L899.632 49.7694 L892.219 49.7694 M907.086 46.6907 L907.086 72.576 L899.632 72.576 L899.632 65.6895 Q897.08 69.8214 893.272 71.8063 Q889.464 73.7508 883.955 73.7508 Q876.987 73.7508 872.856 69.8619 Q868.764 65.9325 868.764 59.3701 Q868.764 51.7138 873.868 47.825 Q879.013 43.9361 889.181 43.9361 L899.632 43.9361 L899.632 43.2069 Q899.632 38.0623 896.229 35.2672 Q892.867 32.4315 886.75 32.4315 Q882.861 32.4315 879.175 33.3632 Q875.489 34.295 872.086 36.1584 L872.086 29.2718 Q876.177 27.692 880.026 26.9223 Q883.874 26.1121 887.52 26.1121 Q897.364 26.1121 902.225 31.2163 Q907.086 36.3204 907.086 46.6907 Z" fill="#000000" fill-rule="nonzero" fill-opacity="1" /><path clip-path="url(#clip170)" d="M922.439 27.2059 L929.892 27.2059 L929.892 72.576 L922.439 72.576 L922.439 27.2059 M922.439 9.54393 L929.892 9.54393 L929.892 18.9825 L922.439 18.9825 L922.439 9.54393 Z" fill="#000000" fill-rule="nonzero" fill-opacity="1" /><path clip-path="url(#clip170)" d="M983.202 45.1919 L983.202 72.576 L975.749 72.576 L975.749 45.4349 Q975.749 38.994 973.237 35.7938 Q970.725 32.5936 965.702 32.5936 Q959.666 32.5936 956.183 36.4419 Q952.699 40.2903 952.699 46.9338 L952.699 72.576 L945.205 72.576 L945.205 27.2059 L952.699 27.2059 L952.699 34.2544 Q955.372 30.163 958.978 28.1376 Q962.624 26.1121 967.363 26.1121 Q975.181 26.1121 979.192 30.9732 Q983.202 35.7938 983.202 45.1919 Z" fill="#000000" fill-rule="nonzero" fill-opacity="1" /><path clip-path="url(#clip170)" d="M1005.44 14.324 L1005.44 27.2059 L1020.79 27.2059 L1020.79 32.9987 L1005.44 32.9987 L1005.44 57.6282 Q1005.44 63.1779 1006.94 64.7578 Q1008.48 66.3376 1013.14 66.3376 L1020.79 66.3376 L1020.79 72.576 L1013.14 72.576 Q1004.51 72.576 1001.23 69.3758 Q997.947 66.1351 997.947 57.6282 L997.947 32.9987 L992.479 32.9987 L992.479 27.2059 L997.947 27.2059 L997.947 14.324 L1005.44 14.324 Z" fill="#000000" fill-rule="nonzero" fill-opacity="1" /><path clip-path="url(#clip170)" d="M1049.47 76.7889 Q1046.32 84.8907 1043.32 87.3618 Q1040.32 89.8329 1035.3 89.8329 L1029.34 89.8329 L1029.34 83.5945 L1033.72 83.5945 Q1036.8 83.5945 1038.5 82.1361 Q1040.2 80.6778 1042.26 75.2496 L1043.6 71.8468 L1025.25 27.2059 L1033.15 27.2059 L1047.33 62.6918 L1061.51 27.2059 L1069.41 27.2059 L1049.47 76.7889 Z" fill="#000000" fill-rule="nonzero" fill-opacity="1" /><path clip-path="url(#clip170)" d="M1123.65 32.4315 Q1117.65 32.4315 1114.17 37.1306 Q1110.68 41.7891 1110.68 49.9314 Q1110.68 58.0738 1114.13 62.7728 Q1117.61 67.4314 1123.65 67.4314 Q1129.6 67.4314 1133.09 62.7323 Q1136.57 58.0333 1136.57 49.9314 Q1136.57 41.8701 1133.09 37.1711 Q1129.6 32.4315 1123.65 32.4315 M1123.65 26.1121 Q1133.37 26.1121 1138.92 32.4315 Q1144.47 38.7509 1144.47 49.9314 Q1144.47 61.0714 1138.92 67.4314 Q1133.37 73.7508 1123.65 73.7508 Q1113.88 73.7508 1108.33 67.4314 Q1102.83 61.0714 1102.83 49.9314 Q1102.83 38.7509 1108.33 32.4315 Q1113.88 26.1121 1123.65 26.1121 Z" fill="#000000" fill-rule="nonzero" fill-opacity="1" /><path clip-path="url(#clip170)" d="M1179.79 9.54393 L1179.79 15.7418 L1172.66 15.7418 Q1168.65 15.7418 1167.07 17.3622 Q1165.53 18.9825 1165.53 23.1955 L1165.53 27.2059 L1177.81 27.2059 L1177.81 32.9987 L1165.53 32.9987 L1165.53 72.576 L1158.04 72.576 L1158.04 32.9987 L1150.91 32.9987 L1150.91 27.2059 L1158.04 27.2059 L1158.04 24.0462 Q1158.04 16.471 1161.56 13.0277 Q1165.09 9.54393 1172.74 9.54393 L1179.79 9.54393 Z" fill="#000000" fill-rule="nonzero" fill-opacity="1" /><path clip-path="url(#clip170)" d="M1251.21 48.0275 L1251.21 51.6733 L1216.94 51.6733 Q1217.43 59.3701 1221.56 63.421 Q1225.73 67.4314 1233.14 67.4314 Q1237.44 67.4314 1241.45 66.3781 Q1245.5 65.3249 1249.47 63.2184 L1249.47 70.267 Q1245.46 71.9684 1241.24 72.8596 Q1237.03 73.7508 1232.7 73.7508 Q1221.84 73.7508 1215.48 67.4314 Q1209.16 61.1119 1209.16 50.3365 Q1209.16 39.1965 1215.16 32.6746 Q1221.19 26.1121 1231.4 26.1121 Q1240.56 26.1121 1245.86 32.0264 Q1251.21 37.9003 1251.21 48.0275 M1243.76 45.84 Q1243.68 39.7232 1240.31 36.0774 Q1236.99 32.4315 1231.48 32.4315 Q1225.24 32.4315 1221.48 35.9558 Q1217.75 39.4801 1217.18 45.8805 L1243.76 45.84 Z" fill="#000000" fill-rule="nonzero" fill-opacity="1" /><path clip-path="url(#clip170)" d="M1301.16 45.1919 L1301.16 72.576 L1293.7 72.576 L1293.7 45.4349 Q1293.7 38.994 1291.19 35.7938 Q1288.68 32.5936 1283.66 32.5936 Q1277.62 32.5936 1274.14 36.4419 Q1270.65 40.2903 1270.65 46.9338 L1270.65 72.576 L1263.16 72.576 L1263.16 27.2059 L1270.65 27.2059 L1270.65 34.2544 Q1273.33 30.163 1276.93 28.1376 Q1280.58 26.1121 1285.32 26.1121 Q1293.14 26.1121 1297.15 30.9732 Q1301.16 35.7938 1301.16 45.1919 Z" fill="#000000" fill-rule="nonzero" fill-opacity="1" /><path clip-path="url(#clip170)" d="M1354.83 48.0275 L1354.83 51.6733 L1320.56 51.6733 Q1321.05 59.3701 1325.18 63.421 Q1329.35 67.4314 1336.77 67.4314 Q1341.06 67.4314 1345.07 66.3781 Q1349.12 65.3249 1353.09 63.2184 L1353.09 70.267 Q1349.08 71.9684 1344.87 72.8596 Q1340.65 73.7508 1336.32 73.7508 Q1325.46 73.7508 1319.1 67.4314 Q1312.78 61.1119 1312.78 50.3365 Q1312.78 39.1965 1318.78 32.6746 Q1324.81 26.1121 1335.02 26.1121 Q1344.18 26.1121 1349.48 32.0264 Q1354.83 37.9003 1354.83 48.0275 M1347.38 45.84 Q1347.3 39.7232 1343.94 36.0774 Q1340.61 32.4315 1335.1 32.4315 Q1328.87 32.4315 1325.1 35.9558 Q1321.37 39.4801 1320.8 45.8805 L1347.38 45.84 Z" fill="#000000" fill-rule="nonzero" fill-opacity="1" /><path clip-path="url(#clip170)" d="M1393.36 34.1734 Q1392.1 33.4443 1390.6 33.1202 Q1389.14 32.7556 1387.36 32.7556 Q1381.04 32.7556 1377.64 36.8875 Q1374.28 40.9789 1374.28 48.6757 L1374.28 72.576 L1366.78 72.576 L1366.78 27.2059 L1374.28 27.2059 L1374.28 34.2544 Q1376.63 30.1225 1380.39 28.1376 Q1384.16 26.1121 1389.55 26.1121 Q1390.32 26.1121 1391.25 26.2337 Q1392.18 26.3147 1393.32 26.5172 L1393.36 34.1734 Z" fill="#000000" fill-rule="nonzero" fill-opacity="1" /><path clip-path="url(#clip170)" d="M1429.57 49.3643 Q1429.57 41.2625 1426.21 36.8065 Q1422.89 32.3505 1416.85 32.3505 Q1410.86 32.3505 1407.49 36.8065 Q1404.17 41.2625 1404.17 49.3643 Q1404.17 57.4256 1407.49 61.8816 Q1410.86 66.3376 1416.85 66.3376 Q1422.89 66.3376 1426.21 61.8816 Q1429.57 57.4256 1429.57 49.3643 M1437.02 66.9452 Q1437.02 78.5308 1431.88 84.1616 Q1426.74 89.8329 1416.12 89.8329 Q1412.19 89.8329 1408.71 89.2252 Q1405.23 88.6581 1401.94 87.4428 L1401.94 80.1917 Q1405.23 81.9741 1408.43 82.8248 Q1411.63 83.6755 1414.95 83.6755 Q1422.28 83.6755 1425.93 79.8271 Q1429.57 76.0193 1429.57 68.282 L1429.57 64.5957 Q1427.26 68.6061 1423.66 70.5911 Q1420.05 72.576 1415.03 72.576 Q1406.68 72.576 1401.58 66.2161 Q1396.48 59.8562 1396.48 49.3643 Q1396.48 38.832 1401.58 32.472 Q1406.68 26.1121 1415.03 26.1121 Q1420.05 26.1121 1423.66 28.0971 Q1427.26 30.082 1429.57 34.0924 L1429.57 27.2059 L1437.02 27.2059 L1437.02 66.9452 Z" fill="#000000" fill-rule="nonzero" fill-opacity="1" /><path clip-path="url(#clip170)" d="M1471.26 76.7889 Q1468.1 84.8907 1465.1 87.3618 Q1462.1 89.8329 1457.08 89.8329 L1451.12 89.8329 L1451.12 83.5945 L1455.5 83.5945 Q1458.58 83.5945 1460.28 82.1361 Q1461.98 80.6778 1464.04 75.2496 L1465.38 71.8468 L1447.03 27.2059 L1454.93 27.2059 L1469.11 62.6918 L1483.29 27.2059 L1491.19 27.2059 L1471.26 76.7889 Z" fill="#000000" fill-rule="nonzero" fill-opacity="1" /><path clip-path="url(#clip170)" d="M1560.5 28.9478 L1560.5 35.9153 Q1557.34 34.1734 1554.14 33.3227 Q1550.98 32.4315 1547.74 32.4315 Q1540.49 32.4315 1536.47 37.0496 Q1532.46 41.6271 1532.46 49.9314 Q1532.46 58.2358 1536.47 62.8538 Q1540.49 67.4314 1547.74 67.4314 Q1550.98 67.4314 1554.14 66.5807 Q1557.34 65.6895 1560.5 63.9476 L1560.5 70.8341 Q1557.38 72.2924 1554.02 73.0216 Q1550.69 73.7508 1546.93 73.7508 Q1536.68 73.7508 1530.64 67.3098 Q1524.61 60.8689 1524.61 49.9314 Q1524.61 38.832 1530.68 32.472 Q1536.8 26.1121 1547.41 26.1121 Q1550.86 26.1121 1554.14 26.8413 Q1557.42 27.5299 1560.5 28.9478 Z" fill="#000000" fill-rule="nonzero" fill-opacity="1" /><path clip-path="url(#clip170)" d="M1594.08 49.7694 Q1585.05 49.7694 1581.56 51.8354 Q1578.08 53.9013 1578.08 58.8839 Q1578.08 62.8538 1580.67 65.2034 Q1583.3 67.5124 1587.8 67.5124 Q1594 67.5124 1597.72 63.1374 Q1601.49 58.7219 1601.49 51.4303 L1601.49 49.7694 L1594.08 49.7694 M1608.95 46.6907 L1608.95 72.576 L1601.49 72.576 L1601.49 65.6895 Q1598.94 69.8214 1595.13 71.8063 Q1591.32 73.7508 1585.81 73.7508 Q1578.85 73.7508 1574.72 69.8619 Q1570.62 65.9325 1570.62 59.3701 Q1570.62 51.7138 1575.73 47.825 Q1580.87 43.9361 1591.04 43.9361 L1601.49 43.9361 L1601.49 43.2069 Q1601.49 38.0623 1598.09 35.2672 Q1594.73 32.4315 1588.61 32.4315 Q1584.72 32.4315 1581.03 33.3632 Q1577.35 34.295 1573.95 36.1584 L1573.95 29.2718 Q1578.04 27.692 1581.89 26.9223 Q1585.73 26.1121 1589.38 26.1121 Q1599.22 26.1121 1604.08 31.2163 Q1608.95 36.3204 1608.95 46.6907 Z" fill="#000000" fill-rule="nonzero" fill-opacity="1" /><path clip-path="url(#clip170)" d="M1624.3 9.54393 L1631.75 9.54393 L1631.75 72.576 L1624.3 72.576 L1624.3 9.54393 Z" fill="#000000" fill-rule="nonzero" fill-opacity="1" /><path clip-path="url(#clip170)" d="M1680 28.9478 L1680 35.9153 Q1676.84 34.1734 1673.64 33.3227 Q1670.48 32.4315 1667.24 32.4315 Q1659.99 32.4315 1655.98 37.0496 Q1651.97 41.6271 1651.97 49.9314 Q1651.97 58.2358 1655.98 62.8538 Q1659.99 67.4314 1667.24 67.4314 Q1670.48 67.4314 1673.64 66.5807 Q1676.84 65.6895 1680 63.9476 L1680 70.8341 Q1676.88 72.2924 1673.52 73.0216 Q1670.2 73.7508 1666.43 73.7508 Q1656.18 73.7508 1650.14 67.3098 Q1644.11 60.8689 1644.11 49.9314 Q1644.11 38.832 1650.18 32.472 Q1656.3 26.1121 1666.91 26.1121 Q1670.36 26.1121 1673.64 26.8413 Q1676.92 27.5299 1680 28.9478 Z" fill="#000000" fill-rule="nonzero" fill-opacity="1" /><path clip-path="url(#clip170)" d="M1692.19 54.671 L1692.19 27.2059 L1699.65 27.2059 L1699.65 54.3874 Q1699.65 60.8284 1702.16 64.0691 Q1704.67 67.2693 1709.69 67.2693 Q1715.73 67.2693 1719.21 63.421 Q1722.74 59.5726 1722.74 52.9291 L1722.74 27.2059 L1730.19 27.2059 L1730.19 72.576 L1722.74 72.576 L1722.74 65.6084 Q1720.02 69.7404 1716.42 71.7658 Q1712.85 73.7508 1708.11 73.7508 Q1700.29 73.7508 1696.24 68.8897 Q1692.19 64.0286 1692.19 54.671 M1710.95 26.1121 L1710.95 26.1121 Z" fill="#000000" fill-rule="nonzero" fill-opacity="1" /><path clip-path="url(#clip170)" d="M1745.54 9.54393 L1753 9.54393 L1753 72.576 L1745.54 72.576 L1745.54 9.54393 Z" fill="#000000" fill-rule="nonzero" fill-opacity="1" /><path clip-path="url(#clip170)" d="M1789.21 49.7694 Q1780.18 49.7694 1776.69 51.8354 Q1773.21 53.9013 1773.21 58.8839 Q1773.21 62.8538 1775.8 65.2034 Q1778.44 67.5124 1782.93 67.5124 Q1789.13 67.5124 1792.86 63.1374 Q1796.62 58.7219 1796.62 51.4303 L1796.62 49.7694 L1789.21 49.7694 M1804.08 46.6907 L1804.08 72.576 L1796.62 72.576 L1796.62 65.6895 Q1794.07 69.8214 1790.26 71.8063 Q1786.46 73.7508 1780.95 73.7508 Q1773.98 73.7508 1769.85 69.8619 Q1765.76 65.9325 1765.76 59.3701 Q1765.76 51.7138 1770.86 47.825 Q1776 43.9361 1786.17 43.9361 L1796.62 43.9361 L1796.62 43.2069 Q1796.62 38.0623 1793.22 35.2672 Q1789.86 32.4315 1783.74 32.4315 Q1779.85 32.4315 1776.17 33.3632 Q1772.48 34.295 1769.08 36.1584 L1769.08 29.2718 Q1773.17 27.692 1777.02 26.9223 Q1780.87 26.1121 1784.51 26.1121 Q1794.36 26.1121 1799.22 31.2163 Q1804.08 36.3204 1804.08 46.6907 Z" fill="#000000" fill-rule="nonzero" fill-opacity="1" /><path clip-path="url(#clip170)" d="M1826.8 14.324 L1826.8 27.2059 L1842.16 27.2059 L1842.16 32.9987 L1826.8 32.9987 L1826.8 57.6282 Q1826.8 63.1779 1828.3 64.7578 Q1829.84 66.3376 1834.5 66.3376 L1842.16 66.3376 L1842.16 72.576 L1834.5 72.576 Q1825.87 72.576 1822.59 69.3758 Q1819.31 66.1351 1819.31 57.6282 L1819.31 32.9987 L1813.84 32.9987 L1813.84 27.2059 L1819.31 27.2059 L1819.31 14.324 L1826.8 14.324 Z" fill="#000000" fill-rule="nonzero" fill-opacity="1" /><path clip-path="url(#clip170)" d="M1851.96 27.2059 L1859.41 27.2059 L1859.41 72.576 L1851.96 72.576 L1851.96 27.2059 M1851.96 9.54393 L1859.41 9.54393 L1859.41 18.9825 L1851.96 18.9825 L1851.96 9.54393 Z" fill="#000000" fill-rule="nonzero" fill-opacity="1" /><path clip-path="url(#clip170)" d="M1892.59 32.4315 Q1886.59 32.4315 1883.11 37.1306 Q1879.63 41.7891 1879.63 49.9314 Q1879.63 58.0738 1883.07 62.7728 Q1886.55 67.4314 1892.59 67.4314 Q1898.54 67.4314 1902.03 62.7323 Q1905.51 58.0333 1905.51 49.9314 Q1905.51 41.8701 1902.03 37.1711 Q1898.54 32.4315 1892.59 32.4315 M1892.59 26.1121 Q1902.31 26.1121 1907.86 32.4315 Q1913.41 38.7509 1913.41 49.9314 Q1913.41 61.0714 1907.86 67.4314 Q1902.31 73.7508 1892.59 73.7508 Q1882.83 73.7508 1877.28 67.4314 Q1871.77 61.0714 1871.77 49.9314 Q1871.77 38.7509 1877.28 32.4315 Q1882.83 26.1121 1892.59 26.1121 Z" fill="#000000" fill-rule="nonzero" fill-opacity="1" /><path clip-path="url(#clip170)" d="M1963.48 45.1919 L1963.48 72.576 L1956.03 72.576 L1956.03 45.4349 Q1956.03 38.994 1953.52 35.7938 Q1951 32.5936 1945.98 32.5936 Q1939.94 32.5936 1936.46 36.4419 Q1932.98 40.2903 1932.98 46.9338 L1932.98 72.576 L1925.48 72.576 L1925.48 27.2059 L1932.98 27.2059 L1932.98 34.2544 Q1935.65 30.163 1939.26 28.1376 Q1942.9 26.1121 1947.64 26.1121 Q1955.46 26.1121 1959.47 30.9732 Q1963.48 35.7938 1963.48 45.1919 Z" fill="#000000" fill-rule="nonzero" fill-opacity="1" /><polyline clip-path="url(#clip172)" style="stroke:#000000; stroke-linecap:round; stroke-linejoin:round; stroke-width:4; stroke-opacity:1; fill:none" points="265.903,863.683 491.022,173.252 716.141,961.185 941.26,1385.62 1166.38,1383.5 1391.5,1379.51 1616.62,1372.58 1841.74,1374.73 2066.85,1373.88 2291.97,1345.46 "/>
<polyline clip-path="url(#clip172)" style="stroke:#000000; stroke-linecap:round; stroke-linejoin:round; stroke-width:4; stroke-opacity:1; fill:none" points="265.903,871.956 265.903,855.41 "/>
<polyline clip-path="url(#clip172)" style="stroke:#000000; stroke-linecap:round; stroke-linejoin:round; stroke-width:4; stroke-opacity:1; fill:none" points="491.022,186.249 491.022,160.256 "/>
<polyline clip-path="url(#clip172)" style="stroke:#000000; stroke-linecap:round; stroke-linejoin:round; stroke-width:4; stroke-opacity:1; fill:none" points="716.141,976.759 716.141,945.611 "/>
<polyline clip-path="url(#clip172)" style="stroke:#000000; stroke-linecap:round; stroke-linejoin:round; stroke-width:4; stroke-opacity:1; fill:none" points="941.26,1386.4 941.26,1384.84 "/>
<polyline clip-path="url(#clip172)" style="stroke:#000000; stroke-linecap:round; stroke-linejoin:round; stroke-width:4; stroke-opacity:1; fill:none" points="1166.38,1384.44 1166.38,1382.55 "/>
<polyline clip-path="url(#clip172)" style="stroke:#000000; stroke-linecap:round; stroke-linejoin:round; stroke-width:4; stroke-opacity:1; fill:none" points="1391.5,1380.53 1391.5,1378.5 "/>
<polyline clip-path="url(#clip172)" style="stroke:#000000; stroke-linecap:round; stroke-linejoin:round; stroke-width:4; stroke-opacity:1; fill:none" points="1616.62,1375.73 1616.62,1369.42 "/>
<polyline clip-path="url(#clip172)" style="stroke:#000000; stroke-linecap:round; stroke-linejoin:round; stroke-width:4; stroke-opacity:1; fill:none" points="1841.74,1376.04 1841.74,1373.42 "/>
<polyline clip-path="url(#clip172)" style="stroke:#000000; stroke-linecap:round; stroke-linejoin:round; stroke-width:4; stroke-opacity:1; fill:none" points="2066.85,1375.26 2066.85,1372.49 "/>
<polyline clip-path="url(#clip172)" style="stroke:#000000; stroke-linecap:round; stroke-linejoin:round; stroke-width:4; stroke-opacity:1; fill:none" points="2291.97,1349.55 2291.97,1341.37 "/>
<line clip-path="url(#clip172)" x1="281.903" y1="871.956" x2="249.903" y2="871.956" style="stroke:#000000; stroke-width:4; stroke-opacity:1"/>
<line clip-path="url(#clip172)" x1="281.903" y1="855.41" x2="249.903" y2="855.41" style="stroke:#000000; stroke-width:4; stroke-opacity:1"/>
<line clip-path="url(#clip172)" x1="507.022" y1="186.249" x2="475.022" y2="186.249" style="stroke:#000000; stroke-width:4; stroke-opacity:1"/>
<line clip-path="url(#clip172)" x1="507.022" y1="160.256" x2="475.022" y2="160.256" style="stroke:#000000; stroke-width:4; stroke-opacity:1"/>
<line clip-path="url(#clip172)" x1="732.141" y1="976.759" x2="700.141" y2="976.759" style="stroke:#000000; stroke-width:4; stroke-opacity:1"/>
<line clip-path="url(#clip172)" x1="732.141" y1="945.611" x2="700.141" y2="945.611" style="stroke:#000000; stroke-width:4; stroke-opacity:1"/>
<line clip-path="url(#clip172)" x1="957.26" y1="1386.4" x2="925.26" y2="1386.4" style="stroke:#000000; stroke-width:4; stroke-opacity:1"/>
<line clip-path="url(#clip172)" x1="957.26" y1="1384.84" x2="925.26" y2="1384.84" style="stroke:#000000; stroke-width:4; stroke-opacity:1"/>
<line clip-path="url(#clip172)" x1="1182.38" y1="1384.44" x2="1150.38" y2="1384.44" style="stroke:#000000; stroke-width:4; stroke-opacity:1"/>
<line clip-path="url(#clip172)" x1="1182.38" y1="1382.55" x2="1150.38" y2="1382.55" style="stroke:#000000; stroke-width:4; stroke-opacity:1"/>
<line clip-path="url(#clip172)" x1="1407.5" y1="1380.53" x2="1375.5" y2="1380.53" style="stroke:#000000; stroke-width:4; stroke-opacity:1"/>
<line clip-path="url(#clip172)" x1="1407.5" y1="1378.5" x2="1375.5" y2="1378.5" style="stroke:#000000; stroke-width:4; stroke-opacity:1"/>
<line clip-path="url(#clip172)" x1="1632.62" y1="1375.73" x2="1600.62" y2="1375.73" style="stroke:#000000; stroke-width:4; stroke-opacity:1"/>
<line clip-path="url(#clip172)" x1="1632.62" y1="1369.42" x2="1600.62" y2="1369.42" style="stroke:#000000; stroke-width:4; stroke-opacity:1"/>
<line clip-path="url(#clip172)" x1="1857.74" y1="1376.04" x2="1825.74" y2="1376.04" style="stroke:#000000; stroke-width:4; stroke-opacity:1"/>
<line clip-path="url(#clip172)" x1="1857.74" y1="1373.42" x2="1825.74" y2="1373.42" style="stroke:#000000; stroke-width:4; stroke-opacity:1"/>
<line clip-path="url(#clip172)" x1="2082.85" y1="1375.26" x2="2050.85" y2="1375.26" style="stroke:#000000; stroke-width:4; stroke-opacity:1"/>
<line clip-path="url(#clip172)" x1="2082.85" y1="1372.49" x2="2050.85" y2="1372.49" style="stroke:#000000; stroke-width:4; stroke-opacity:1"/>
<line clip-path="url(#clip172)" x1="2307.97" y1="1349.55" x2="2275.97" y2="1349.55" style="stroke:#000000; stroke-width:4; stroke-opacity:1"/>
<line clip-path="url(#clip172)" x1="2307.97" y1="1341.37" x2="2275.97" y2="1341.37" style="stroke:#000000; stroke-width:4; stroke-opacity:1"/>
<polyline clip-path="url(#clip172)" style="stroke:#008000; stroke-linecap:round; stroke-linejoin:round; stroke-width:4; stroke-opacity:1; fill:none" points="265.903,862.161 491.022,182.507 716.141,944.271 941.26,1360.89 1166.38,1333.82 1391.5,1331.29 1616.62,1295.81 1841.74,1299.78 2066.85,1318.6 2291.97,1281.12 "/>
<polyline clip-path="url(#clip172)" style="stroke:#008000; stroke-linecap:round; stroke-linejoin:round; stroke-width:4; stroke-opacity:1; fill:none" points="265.903,870.333 265.903,853.989 "/>
<polyline clip-path="url(#clip172)" style="stroke:#008000; stroke-linecap:round; stroke-linejoin:round; stroke-width:4; stroke-opacity:1; fill:none" points="491.022,190.14 491.022,174.873 "/>
<polyline clip-path="url(#clip172)" style="stroke:#008000; stroke-linecap:round; stroke-linejoin:round; stroke-width:4; stroke-opacity:1; fill:none" points="716.141,959.802 716.141,928.741 "/>
<polyline clip-path="url(#clip172)" style="stroke:#008000; stroke-linecap:round; stroke-linejoin:round; stroke-width:4; stroke-opacity:1; fill:none" points="941.26,1362.17 941.26,1359.6 "/>
<polyline clip-path="url(#clip172)" style="stroke:#008000; stroke-linecap:round; stroke-linejoin:round; stroke-width:4; stroke-opacity:1; fill:none" points="1166.38,1336.12 1166.38,1331.52 "/>
<polyline clip-path="url(#clip172)" style="stroke:#008000; stroke-linecap:round; stroke-linejoin:round; stroke-width:4; stroke-opacity:1; fill:none" points="1391.5,1333.36 1391.5,1329.23 "/>
<polyline clip-path="url(#clip172)" style="stroke:#008000; stroke-linecap:round; stroke-linejoin:round; stroke-width:4; stroke-opacity:1; fill:none" points="1616.62,1299.77 1616.62,1291.86 "/>
<polyline clip-path="url(#clip172)" style="stroke:#008000; stroke-linecap:round; stroke-linejoin:round; stroke-width:4; stroke-opacity:1; fill:none" points="1841.74,1303.61 1841.74,1295.94 "/>
<polyline clip-path="url(#clip172)" style="stroke:#008000; stroke-linecap:round; stroke-linejoin:round; stroke-width:4; stroke-opacity:1; fill:none" points="2066.85,1321.29 2066.85,1315.9 "/>
<polyline clip-path="url(#clip172)" style="stroke:#008000; stroke-linecap:round; stroke-linejoin:round; stroke-width:4; stroke-opacity:1; fill:none" points="2291.97,1284.8 2291.97,1277.43 "/>
<line clip-path="url(#clip172)" x1="281.903" y1="870.333" x2="249.903" y2="870.333" style="stroke:#008000; stroke-width:4; stroke-opacity:1"/>
<line clip-path="url(#clip172)" x1="281.903" y1="853.989" x2="249.903" y2="853.989" style="stroke:#008000; stroke-width:4; stroke-opacity:1"/>
<line clip-path="url(#clip172)" x1="507.022" y1="190.14" x2="475.022" y2="190.14" style="stroke:#008000; stroke-width:4; stroke-opacity:1"/>
<line clip-path="url(#clip172)" x1="507.022" y1="174.873" x2="475.022" y2="174.873" style="stroke:#008000; stroke-width:4; stroke-opacity:1"/>
<line clip-path="url(#clip172)" x1="732.141" y1="959.802" x2="700.141" y2="959.802" style="stroke:#008000; stroke-width:4; stroke-opacity:1"/>
<line clip-path="url(#clip172)" x1="732.141" y1="928.741" x2="700.141" y2="928.741" style="stroke:#008000; stroke-width:4; stroke-opacity:1"/>
<line clip-path="url(#clip172)" x1="957.26" y1="1362.17" x2="925.26" y2="1362.17" style="stroke:#008000; stroke-width:4; stroke-opacity:1"/>
<line clip-path="url(#clip172)" x1="957.26" y1="1359.6" x2="925.26" y2="1359.6" style="stroke:#008000; stroke-width:4; stroke-opacity:1"/>
<line clip-path="url(#clip172)" x1="1182.38" y1="1336.12" x2="1150.38" y2="1336.12" style="stroke:#008000; stroke-width:4; stroke-opacity:1"/>
<line clip-path="url(#clip172)" x1="1182.38" y1="1331.52" x2="1150.38" y2="1331.52" style="stroke:#008000; stroke-width:4; stroke-opacity:1"/>
<line clip-path="url(#clip172)" x1="1407.5" y1="1333.36" x2="1375.5" y2="1333.36" style="stroke:#008000; stroke-width:4; stroke-opacity:1"/>
<line clip-path="url(#clip172)" x1="1407.5" y1="1329.23" x2="1375.5" y2="1329.23" style="stroke:#008000; stroke-width:4; stroke-opacity:1"/>
<line clip-path="url(#clip172)" x1="1632.62" y1="1299.77" x2="1600.62" y2="1299.77" style="stroke:#008000; stroke-width:4; stroke-opacity:1"/>
<line clip-path="url(#clip172)" x1="1632.62" y1="1291.86" x2="1600.62" y2="1291.86" style="stroke:#008000; stroke-width:4; stroke-opacity:1"/>
<line clip-path="url(#clip172)" x1="1857.74" y1="1303.61" x2="1825.74" y2="1303.61" style="stroke:#008000; stroke-width:4; stroke-opacity:1"/>
<line clip-path="url(#clip172)" x1="1857.74" y1="1295.94" x2="1825.74" y2="1295.94" style="stroke:#008000; stroke-width:4; stroke-opacity:1"/>
<line clip-path="url(#clip172)" x1="2082.85" y1="1321.29" x2="2050.85" y2="1321.29" style="stroke:#008000; stroke-width:4; stroke-opacity:1"/>
<line clip-path="url(#clip172)" x1="2082.85" y1="1315.9" x2="2050.85" y2="1315.9" style="stroke:#008000; stroke-width:4; stroke-opacity:1"/>
<line clip-path="url(#clip172)" x1="2307.97" y1="1284.8" x2="2275.97" y2="1284.8" style="stroke:#008000; stroke-width:4; stroke-opacity:1"/>
<line clip-path="url(#clip172)" x1="2307.97" y1="1277.43" x2="2275.97" y2="1277.43" style="stroke:#008000; stroke-width:4; stroke-opacity:1"/>
<polyline clip-path="url(#clip172)" style="stroke:#0000ff; stroke-linecap:round; stroke-linejoin:round; stroke-width:4; stroke-opacity:1; fill:none" points="265.903,870.162 491.022,182.605 716.141,1107.41 941.26,1340.41 1166.38,1312.6 1391.5,1328.95 1616.62,1255.32 1841.74,1275.92 2066.85,1272.47 2291.97,1256.27 "/>
<polyline clip-path="url(#clip172)" style="stroke:#0000ff; stroke-linecap:round; stroke-linejoin:round; stroke-width:4; stroke-opacity:1; fill:none" points="265.903,878.377 265.903,861.947 "/>
<polyline clip-path="url(#clip172)" style="stroke:#0000ff; stroke-linecap:round; stroke-linejoin:round; stroke-width:4; stroke-opacity:1; fill:none" points="491.022,190.14 491.022,175.07 "/>
<polyline clip-path="url(#clip172)" style="stroke:#0000ff; stroke-linecap:round; stroke-linejoin:round; stroke-width:4; stroke-opacity:1; fill:none" points="716.141,1121.87 716.141,1092.94 "/>
<polyline clip-path="url(#clip172)" style="stroke:#0000ff; stroke-linecap:round; stroke-linejoin:round; stroke-width:4; stroke-opacity:1; fill:none" points="941.26,1342.17 941.26,1338.65 "/>
<polyline clip-path="url(#clip172)" style="stroke:#0000ff; stroke-linecap:round; stroke-linejoin:round; stroke-width:4; stroke-opacity:1; fill:none" points="1166.38,1315.24 1166.38,1309.96 "/>
<polyline clip-path="url(#clip172)" style="stroke:#0000ff; stroke-linecap:round; stroke-linejoin:round; stroke-width:4; stroke-opacity:1; fill:none" points="1391.5,1331.27 1391.5,1326.62 "/>
<polyline clip-path="url(#clip172)" style="stroke:#0000ff; stroke-linecap:round; stroke-linejoin:round; stroke-width:4; stroke-opacity:1; fill:none" points="1616.62,1259.8 1616.62,1250.84 "/>
<polyline clip-path="url(#clip172)" style="stroke:#0000ff; stroke-linecap:round; stroke-linejoin:round; stroke-width:4; stroke-opacity:1; fill:none" points="1841.74,1280.08 1841.74,1271.75 "/>
<polyline clip-path="url(#clip172)" style="stroke:#0000ff; stroke-linecap:round; stroke-linejoin:round; stroke-width:4; stroke-opacity:1; fill:none" points="2066.85,1276.02 2066.85,1268.93 "/>
<polyline clip-path="url(#clip172)" style="stroke:#0000ff; stroke-linecap:round; stroke-linejoin:round; stroke-width:4; stroke-opacity:1; fill:none" points="2291.97,1260.77 2291.97,1251.77 "/>
<line clip-path="url(#clip172)" x1="281.903" y1="878.377" x2="249.903" y2="878.377" style="stroke:#0000ff; stroke-width:4; stroke-opacity:1"/>
<line clip-path="url(#clip172)" x1="281.903" y1="861.947" x2="249.903" y2="861.947" style="stroke:#0000ff; stroke-width:4; stroke-opacity:1"/>
<line clip-path="url(#clip172)" x1="507.022" y1="190.14" x2="475.022" y2="190.14" style="stroke:#0000ff; stroke-width:4; stroke-opacity:1"/>
<line clip-path="url(#clip172)" x1="507.022" y1="175.07" x2="475.022" y2="175.07" style="stroke:#0000ff; stroke-width:4; stroke-opacity:1"/>
<line clip-path="url(#clip172)" x1="732.141" y1="1121.87" x2="700.141" y2="1121.87" style="stroke:#0000ff; stroke-width:4; stroke-opacity:1"/>
<line clip-path="url(#clip172)" x1="732.141" y1="1092.94" x2="700.141" y2="1092.94" style="stroke:#0000ff; stroke-width:4; stroke-opacity:1"/>
<line clip-path="url(#clip172)" x1="957.26" y1="1342.17" x2="925.26" y2="1342.17" style="stroke:#0000ff; stroke-width:4; stroke-opacity:1"/>
<line clip-path="url(#clip172)" x1="957.26" y1="1338.65" x2="925.26" y2="1338.65" style="stroke:#0000ff; stroke-width:4; stroke-opacity:1"/>
<line clip-path="url(#clip172)" x1="1182.38" y1="1315.24" x2="1150.38" y2="1315.24" style="stroke:#0000ff; stroke-width:4; stroke-opacity:1"/>
<line clip-path="url(#clip172)" x1="1182.38" y1="1309.96" x2="1150.38" y2="1309.96" style="stroke:#0000ff; stroke-width:4; stroke-opacity:1"/>
<line clip-path="url(#clip172)" x1="1407.5" y1="1331.27" x2="1375.5" y2="1331.27" style="stroke:#0000ff; stroke-width:4; stroke-opacity:1"/>
<line clip-path="url(#clip172)" x1="1407.5" y1="1326.62" x2="1375.5" y2="1326.62" style="stroke:#0000ff; stroke-width:4; stroke-opacity:1"/>
<line clip-path="url(#clip172)" x1="1632.62" y1="1259.8" x2="1600.62" y2="1259.8" style="stroke:#0000ff; stroke-width:4; stroke-opacity:1"/>
<line clip-path="url(#clip172)" x1="1632.62" y1="1250.84" x2="1600.62" y2="1250.84" style="stroke:#0000ff; stroke-width:4; stroke-opacity:1"/>
<line clip-path="url(#clip172)" x1="1857.74" y1="1280.08" x2="1825.74" y2="1280.08" style="stroke:#0000ff; stroke-width:4; stroke-opacity:1"/>
<line clip-path="url(#clip172)" x1="1857.74" y1="1271.75" x2="1825.74" y2="1271.75" style="stroke:#0000ff; stroke-width:4; stroke-opacity:1"/>
<line clip-path="url(#clip172)" x1="2082.85" y1="1276.02" x2="2050.85" y2="1276.02" style="stroke:#0000ff; stroke-width:4; stroke-opacity:1"/>
<line clip-path="url(#clip172)" x1="2082.85" y1="1268.93" x2="2050.85" y2="1268.93" style="stroke:#0000ff; stroke-width:4; stroke-opacity:1"/>
<line clip-path="url(#clip172)" x1="2307.97" y1="1260.77" x2="2275.97" y2="1260.77" style="stroke:#0000ff; stroke-width:4; stroke-opacity:1"/>
<line clip-path="url(#clip172)" x1="2307.97" y1="1251.77" x2="2275.97" y2="1251.77" style="stroke:#0000ff; stroke-width:4; stroke-opacity:1"/>
<polyline clip-path="url(#clip172)" style="stroke:#ff0000; stroke-linecap:round; stroke-linejoin:round; stroke-width:4; stroke-opacity:1; fill:none" points="265.903,847.994 491.022,1245.17 716.141,649.963 941.26,1276.93 1166.38,1250.74 1391.5,1236.27 1616.62,1154.84 1841.74,1192.29 2066.85,1188.58 2291.97,1177.94 "/>
<polyline clip-path="url(#clip172)" style="stroke:#ff0000; stroke-linecap:round; stroke-linejoin:round; stroke-width:4; stroke-opacity:1; fill:none" points="265.903,856.484 265.903,839.504 "/>
<polyline clip-path="url(#clip172)" style="stroke:#ff0000; stroke-linecap:round; stroke-linejoin:round; stroke-width:4; stroke-opacity:1; fill:none" points="491.022,1249.54 491.022,1240.8 "/>
<polyline clip-path="url(#clip172)" style="stroke:#ff0000; stroke-linecap:round; stroke-linejoin:round; stroke-width:4; stroke-opacity:1; fill:none" points="716.141,664.443 716.141,635.483 "/>
<polyline clip-path="url(#clip172)" style="stroke:#ff0000; stroke-linecap:round; stroke-linejoin:round; stroke-width:4; stroke-opacity:1; fill:none" points="941.26,1280.49 941.26,1273.37 "/>
<polyline clip-path="url(#clip172)" style="stroke:#ff0000; stroke-linecap:round; stroke-linejoin:round; stroke-width:4; stroke-opacity:1; fill:none" points="1166.38,1254.88 1166.38,1246.61 "/>
<polyline clip-path="url(#clip172)" style="stroke:#ff0000; stroke-linecap:round; stroke-linejoin:round; stroke-width:4; stroke-opacity:1; fill:none" points="1391.5,1240.85 1391.5,1231.69 "/>
<polyline clip-path="url(#clip172)" style="stroke:#ff0000; stroke-linecap:round; stroke-linejoin:round; stroke-width:4; stroke-opacity:1; fill:none" points="1616.62,1162.57 1616.62,1147.1 "/>
<polyline clip-path="url(#clip172)" style="stroke:#ff0000; stroke-linecap:round; stroke-linejoin:round; stroke-width:4; stroke-opacity:1; fill:none" points="1841.74,1198.95 1841.74,1185.63 "/>
<polyline clip-path="url(#clip172)" style="stroke:#ff0000; stroke-linecap:round; stroke-linejoin:round; stroke-width:4; stroke-opacity:1; fill:none" points="2066.85,1195.48 2066.85,1181.67 "/>
<polyline clip-path="url(#clip172)" style="stroke:#ff0000; stroke-linecap:round; stroke-linejoin:round; stroke-width:4; stroke-opacity:1; fill:none" points="2291.97,1184.2 2291.97,1171.68 "/>
<line clip-path="url(#clip172)" x1="281.903" y1="856.484" x2="249.903" y2="856.484" style="stroke:#ff0000; stroke-width:4; stroke-opacity:1"/>
<line clip-path="url(#clip172)" x1="281.903" y1="839.504" x2="249.903" y2="839.504" style="stroke:#ff0000; stroke-width:4; stroke-opacity:1"/>
<line clip-path="url(#clip172)" x1="507.022" y1="1249.54" x2="475.022" y2="1249.54" style="stroke:#ff0000; stroke-width:4; stroke-opacity:1"/>
<line clip-path="url(#clip172)" x1="507.022" y1="1240.8" x2="475.022" y2="1240.8" style="stroke:#ff0000; stroke-width:4; stroke-opacity:1"/>
<line clip-path="url(#clip172)" x1="732.141" y1="664.443" x2="700.141" y2="664.443" style="stroke:#ff0000; stroke-width:4; stroke-opacity:1"/>
<line clip-path="url(#clip172)" x1="732.141" y1="635.483" x2="700.141" y2="635.483" style="stroke:#ff0000; stroke-width:4; stroke-opacity:1"/>
<line clip-path="url(#clip172)" x1="957.26" y1="1280.49" x2="925.26" y2="1280.49" style="stroke:#ff0000; stroke-width:4; stroke-opacity:1"/>
<line clip-path="url(#clip172)" x1="957.26" y1="1273.37" x2="925.26" y2="1273.37" style="stroke:#ff0000; stroke-width:4; stroke-opacity:1"/>
<line clip-path="url(#clip172)" x1="1182.38" y1="1254.88" x2="1150.38" y2="1254.88" style="stroke:#ff0000; stroke-width:4; stroke-opacity:1"/>
<line clip-path="url(#clip172)" x1="1182.38" y1="1246.61" x2="1150.38" y2="1246.61" style="stroke:#ff0000; stroke-width:4; stroke-opacity:1"/>
<line clip-path="url(#clip172)" x1="1407.5" y1="1240.85" x2="1375.5" y2="1240.85" style="stroke:#ff0000; stroke-width:4; stroke-opacity:1"/>
<line clip-path="url(#clip172)" x1="1407.5" y1="1231.69" x2="1375.5" y2="1231.69" style="stroke:#ff0000; stroke-width:4; stroke-opacity:1"/>
<line clip-path="url(#clip172)" x1="1632.62" y1="1162.57" x2="1600.62" y2="1162.57" style="stroke:#ff0000; stroke-width:4; stroke-opacity:1"/>
<line clip-path="url(#clip172)" x1="1632.62" y1="1147.1" x2="1600.62" y2="1147.1" style="stroke:#ff0000; stroke-width:4; stroke-opacity:1"/>
<line clip-path="url(#clip172)" x1="1857.74" y1="1198.95" x2="1825.74" y2="1198.95" style="stroke:#ff0000; stroke-width:4; stroke-opacity:1"/>
<line clip-path="url(#clip172)" x1="1857.74" y1="1185.63" x2="1825.74" y2="1185.63" style="stroke:#ff0000; stroke-width:4; stroke-opacity:1"/>
<line clip-path="url(#clip172)" x1="2082.85" y1="1195.48" x2="2050.85" y2="1195.48" style="stroke:#ff0000; stroke-width:4; stroke-opacity:1"/>
<line clip-path="url(#clip172)" x1="2082.85" y1="1181.67" x2="2050.85" y2="1181.67" style="stroke:#ff0000; stroke-width:4; stroke-opacity:1"/>
<line clip-path="url(#clip172)" x1="2307.97" y1="1184.2" x2="2275.97" y2="1184.2" style="stroke:#ff0000; stroke-width:4; stroke-opacity:1"/>
<line clip-path="url(#clip172)" x1="2307.97" y1="1171.68" x2="2275.97" y2="1171.68" style="stroke:#ff0000; stroke-width:4; stroke-opacity:1"/>
<path clip-path="url(#clip170)" d="M1928.65 425.996 L2281.17 425.996 L2281.17 166.796 L1928.65 166.796  Z" fill="#ffffff" fill-rule="evenodd" fill-opacity="1"/>
<polyline clip-path="url(#clip170)" style="stroke:#000000; stroke-linecap:round; stroke-linejoin:round; stroke-width:4; stroke-opacity:1; fill:none" points="1928.65,425.996 2281.17,425.996 2281.17,166.796 1928.65,166.796 1928.65,425.996 "/>
<polyline clip-path="url(#clip170)" style="stroke:#000000; stroke-linecap:round; stroke-linejoin:round; stroke-width:4; stroke-opacity:1; fill:none" points="1952.51,218.636 2095.69,218.636 "/>
<path clip-path="url(#clip170)" d="M2119.55 201.356 L2124.23 201.356 L2124.23 235.916 L2119.55 235.916 L2119.55 201.356 Z" fill="#000000" fill-rule="nonzero" fill-opacity="1" /><path clip-path="url(#clip170)" d="M2150.41 213.925 L2150.41 199.897 L2154.67 199.897 L2154.67 235.916 L2150.41 235.916 L2150.41 232.027 Q2149.07 234.342 2147.01 235.476 Q2144.97 236.587 2142.1 236.587 Q2137.4 236.587 2134.44 232.837 Q2131.5 229.087 2131.5 222.976 Q2131.5 216.865 2134.44 213.115 Q2137.4 209.365 2142.1 209.365 Q2144.97 209.365 2147.01 210.499 Q2149.07 211.61 2150.41 213.925 M2135.89 222.976 Q2135.89 227.675 2137.82 230.36 Q2139.76 233.022 2143.14 233.022 Q2146.52 233.022 2148.46 230.36 Q2150.41 227.675 2150.41 222.976 Q2150.41 218.277 2148.46 215.615 Q2146.52 212.93 2143.14 212.93 Q2139.76 212.93 2137.82 215.615 Q2135.89 218.277 2135.89 222.976 Z" fill="#000000" fill-rule="nonzero" fill-opacity="1" /><path clip-path="url(#clip170)" d="M2185.62 221.888 L2185.62 223.971 L2166.03 223.971 Q2166.31 228.369 2168.67 230.684 Q2171.06 232.976 2175.29 232.976 Q2177.75 232.976 2180.04 232.374 Q2182.35 231.772 2184.62 230.569 L2184.62 234.596 Q2182.33 235.568 2179.92 236.078 Q2177.51 236.587 2175.04 236.587 Q2168.83 236.587 2165.2 232.976 Q2161.59 229.365 2161.59 223.207 Q2161.59 216.842 2165.01 213.115 Q2168.46 209.365 2174.3 209.365 Q2179.53 209.365 2182.56 212.745 Q2185.62 216.101 2185.62 221.888 M2181.36 220.638 Q2181.31 217.143 2179.39 215.059 Q2177.49 212.976 2174.34 212.976 Q2170.78 212.976 2168.63 214.99 Q2166.5 217.004 2166.17 220.661 L2181.36 220.638 Z" fill="#000000" fill-rule="nonzero" fill-opacity="1" /><path clip-path="url(#clip170)" d="M2204.39 222.883 Q2199.23 222.883 2197.24 224.064 Q2195.25 225.244 2195.25 228.092 Q2195.25 230.36 2196.73 231.703 Q2198.23 233.022 2200.8 233.022 Q2204.34 233.022 2206.47 230.522 Q2208.63 227.999 2208.63 223.832 L2208.63 222.883 L2204.39 222.883 M2212.88 221.124 L2212.88 235.916 L2208.63 235.916 L2208.63 231.981 Q2207.17 234.342 2204.99 235.476 Q2202.82 236.587 2199.67 236.587 Q2195.69 236.587 2193.32 234.365 Q2190.99 232.119 2190.99 228.369 Q2190.99 223.994 2193.9 221.772 Q2196.84 219.55 2202.65 219.55 L2208.63 219.55 L2208.63 219.133 Q2208.63 216.194 2206.68 214.596 Q2204.76 212.976 2201.26 212.976 Q2199.04 212.976 2196.94 213.508 Q2194.83 214.041 2192.88 215.106 L2192.88 211.17 Q2195.22 210.268 2197.42 209.828 Q2199.62 209.365 2201.7 209.365 Q2207.33 209.365 2210.11 212.282 Q2212.88 215.198 2212.88 221.124 Z" fill="#000000" fill-rule="nonzero" fill-opacity="1" /><path clip-path="url(#clip170)" d="M2221.66 199.897 L2225.92 199.897 L2225.92 235.916 L2221.66 235.916 L2221.66 199.897 Z" fill="#000000" fill-rule="nonzero" fill-opacity="1" /><polyline clip-path="url(#clip170)" style="stroke:#008000; stroke-linecap:round; stroke-linejoin:round; stroke-width:4; stroke-opacity:1; fill:none" points="1952.51,270.476 2095.69,270.476 "/>
<path clip-path="url(#clip170)" d="M2135.18 269.122 Q2138.53 269.839 2140.41 272.108 Q2142.31 274.376 2142.31 277.709 Q2142.31 282.825 2138.79 285.626 Q2135.27 288.427 2128.79 288.427 Q2126.61 288.427 2124.3 287.987 Q2122.01 287.571 2119.55 286.714 L2119.55 282.2 Q2121.5 283.334 2123.81 283.913 Q2126.13 284.492 2128.65 284.492 Q2133.05 284.492 2135.34 282.756 Q2137.65 281.02 2137.65 277.709 Q2137.65 274.654 2135.5 272.941 Q2133.37 271.205 2129.55 271.205 L2125.52 271.205 L2125.52 267.362 L2129.74 267.362 Q2133.19 267.362 2135.01 265.997 Q2136.84 264.608 2136.84 262.015 Q2136.84 259.353 2134.95 257.941 Q2133.07 256.506 2129.55 256.506 Q2127.63 256.506 2125.43 256.923 Q2123.23 257.339 2120.59 258.219 L2120.59 254.052 Q2123.26 253.311 2125.57 252.941 Q2127.91 252.571 2129.97 252.571 Q2135.29 252.571 2138.39 255.001 Q2141.5 257.409 2141.5 261.529 Q2141.5 264.399 2139.85 266.39 Q2138.21 268.358 2135.18 269.122 Z" fill="#000000" fill-rule="nonzero" fill-opacity="1" /><path clip-path="url(#clip170)" d="M2161.17 256.274 Q2157.56 256.274 2155.73 259.839 Q2153.93 263.381 2153.93 270.51 Q2153.93 277.617 2155.73 281.182 Q2157.56 284.723 2161.17 284.723 Q2164.81 284.723 2166.61 281.182 Q2168.44 277.617 2168.44 270.51 Q2168.44 263.381 2166.61 259.839 Q2164.81 256.274 2161.17 256.274 M2161.17 252.571 Q2166.98 252.571 2170.04 257.177 Q2173.12 261.76 2173.12 270.51 Q2173.12 279.237 2170.04 283.844 Q2166.98 288.427 2161.17 288.427 Q2155.36 288.427 2152.28 283.844 Q2149.23 279.237 2149.23 270.51 Q2149.23 261.76 2152.28 257.177 Q2155.36 252.571 2161.17 252.571 Z" fill="#000000" fill-rule="nonzero" fill-opacity="1" /><path clip-path="url(#clip170)" d="M2184.85 283.867 L2184.85 297.617 L2180.57 297.617 L2180.57 261.83 L2184.85 261.83 L2184.85 265.765 Q2186.19 263.45 2188.23 262.339 Q2190.29 261.205 2193.14 261.205 Q2197.86 261.205 2200.8 264.955 Q2203.76 268.705 2203.76 274.816 Q2203.76 280.927 2200.8 284.677 Q2197.86 288.427 2193.14 288.427 Q2190.29 288.427 2188.23 287.316 Q2186.19 286.182 2184.85 283.867 M2199.34 274.816 Q2199.34 270.117 2197.4 267.455 Q2195.48 264.77 2192.1 264.77 Q2188.72 264.77 2186.77 267.455 Q2184.85 270.117 2184.85 274.816 Q2184.85 279.515 2186.77 282.2 Q2188.72 284.862 2192.1 284.862 Q2195.48 284.862 2197.4 282.2 Q2199.34 279.515 2199.34 274.816 Z" fill="#000000" fill-rule="nonzero" fill-opacity="1" /><path clip-path="url(#clip170)" d="M2227.35 262.594 L2227.35 266.622 Q2225.55 265.696 2223.6 265.233 Q2221.66 264.77 2219.57 264.77 Q2216.4 264.77 2214.81 265.742 Q2213.23 266.714 2213.23 268.659 Q2213.23 270.14 2214.37 270.997 Q2215.5 271.83 2218.93 272.594 L2220.38 272.918 Q2224.92 273.89 2226.82 275.672 Q2228.74 277.432 2228.74 280.603 Q2228.74 284.214 2225.87 286.321 Q2223.02 288.427 2218.02 288.427 Q2215.94 288.427 2213.67 288.01 Q2211.43 287.617 2208.93 286.807 L2208.93 282.409 Q2211.29 283.635 2213.58 284.26 Q2215.87 284.862 2218.12 284.862 Q2221.13 284.862 2222.75 283.844 Q2224.37 282.802 2224.37 280.927 Q2224.37 279.191 2223.19 278.265 Q2222.03 277.339 2218.07 276.483 L2216.59 276.135 Q2212.63 275.302 2210.87 273.589 Q2209.11 271.853 2209.11 268.844 Q2209.11 265.186 2211.7 263.196 Q2214.3 261.205 2219.06 261.205 Q2221.43 261.205 2223.51 261.552 Q2225.59 261.899 2227.35 262.594 Z" fill="#000000" fill-rule="nonzero" fill-opacity="1" /><polyline clip-path="url(#clip170)" style="stroke:#0000ff; stroke-linecap:round; stroke-linejoin:round; stroke-width:4; stroke-opacity:1; fill:none" points="1952.51,322.316 2095.69,322.316 "/>
<path clip-path="url(#clip170)" d="M2121.01 305.036 L2139.37 305.036 L2139.37 308.971 L2125.29 308.971 L2125.29 317.443 Q2126.31 317.096 2127.33 316.934 Q2128.35 316.749 2129.37 316.749 Q2135.15 316.749 2138.53 319.92 Q2141.91 323.091 2141.91 328.508 Q2141.91 334.086 2138.44 337.188 Q2134.97 340.267 2128.65 340.267 Q2126.47 340.267 2124.2 339.897 Q2121.96 339.526 2119.55 338.786 L2119.55 334.086 Q2121.63 335.221 2123.86 335.776 Q2126.08 336.332 2128.56 336.332 Q2132.56 336.332 2134.9 334.225 Q2137.24 332.119 2137.24 328.508 Q2137.24 324.897 2134.9 322.79 Q2132.56 320.684 2128.56 320.684 Q2126.68 320.684 2124.81 321.1 Q2122.95 321.517 2121.01 322.397 L2121.01 305.036 Z" fill="#000000" fill-rule="nonzero" fill-opacity="1" /><path clip-path="url(#clip170)" d="M2161.13 308.114 Q2157.51 308.114 2155.69 311.679 Q2153.88 315.221 2153.88 322.35 Q2153.88 329.457 2155.69 333.022 Q2157.51 336.563 2161.13 336.563 Q2164.76 336.563 2166.57 333.022 Q2168.39 329.457 2168.39 322.35 Q2168.39 315.221 2166.57 311.679 Q2164.76 308.114 2161.13 308.114 M2161.13 304.411 Q2166.94 304.411 2169.99 309.017 Q2173.07 313.6 2173.07 322.35 Q2173.07 331.077 2169.99 335.684 Q2166.94 340.267 2161.13 340.267 Q2155.32 340.267 2152.24 335.684 Q2149.18 331.077 2149.18 322.35 Q2149.18 313.6 2152.24 309.017 Q2155.32 304.411 2161.13 304.411 Z" fill="#000000" fill-rule="nonzero" fill-opacity="1" /><path clip-path="url(#clip170)" d="M2184.81 335.707 L2184.81 349.457 L2180.52 349.457 L2180.52 313.67 L2184.81 313.67 L2184.81 317.605 Q2186.15 315.29 2188.19 314.179 Q2190.25 313.045 2193.09 313.045 Q2197.82 313.045 2200.75 316.795 Q2203.72 320.545 2203.72 326.656 Q2203.72 332.767 2200.75 336.517 Q2197.82 340.267 2193.09 340.267 Q2190.25 340.267 2188.19 339.156 Q2186.15 338.022 2184.81 335.707 M2199.3 326.656 Q2199.3 321.957 2197.35 319.295 Q2195.43 316.61 2192.05 316.61 Q2188.67 316.61 2186.73 319.295 Q2184.81 321.957 2184.81 326.656 Q2184.81 331.355 2186.73 334.04 Q2188.67 336.702 2192.05 336.702 Q2195.43 336.702 2197.35 334.04 Q2199.3 331.355 2199.3 326.656 Z" fill="#000000" fill-rule="nonzero" fill-opacity="1" /><path clip-path="url(#clip170)" d="M2227.31 314.434 L2227.31 318.462 Q2225.5 317.536 2223.56 317.073 Q2221.61 316.61 2219.53 316.61 Q2216.36 316.61 2214.76 317.582 Q2213.19 318.554 2213.19 320.499 Q2213.19 321.98 2214.32 322.837 Q2215.45 323.67 2218.88 324.434 L2220.34 324.758 Q2224.88 325.73 2226.77 327.512 Q2228.69 329.272 2228.69 332.443 Q2228.69 336.054 2225.82 338.161 Q2222.98 340.267 2217.98 340.267 Q2215.89 340.267 2213.63 339.85 Q2211.38 339.457 2208.88 338.647 L2208.88 334.249 Q2211.24 335.475 2213.53 336.1 Q2215.82 336.702 2218.07 336.702 Q2221.08 336.702 2222.7 335.684 Q2224.32 334.642 2224.32 332.767 Q2224.32 331.031 2223.14 330.105 Q2221.98 329.179 2218.02 328.323 L2216.54 327.975 Q2212.58 327.142 2210.82 325.429 Q2209.06 323.693 2209.06 320.684 Q2209.06 317.026 2211.66 315.036 Q2214.25 313.045 2219.02 313.045 Q2221.38 313.045 2223.46 313.392 Q2225.55 313.739 2227.31 314.434 Z" fill="#000000" fill-rule="nonzero" fill-opacity="1" /><polyline clip-path="url(#clip170)" style="stroke:#ff0000; stroke-linecap:round; stroke-linejoin:round; stroke-width:4; stroke-opacity:1; fill:none" points="1952.51,374.156 2095.69,374.156 "/>
<path clip-path="url(#clip170)" d="M2120.22 387.501 L2127.86 387.501 L2127.86 361.135 L2119.55 362.802 L2119.55 358.542 L2127.82 356.876 L2132.49 356.876 L2132.49 387.501 L2140.13 387.501 L2140.13 391.436 L2120.22 391.436 L2120.22 387.501 Z" fill="#000000" fill-rule="nonzero" fill-opacity="1" /><path clip-path="url(#clip170)" d="M2159.57 359.954 Q2155.96 359.954 2154.13 363.519 Q2152.33 367.061 2152.33 374.19 Q2152.33 381.297 2154.13 384.862 Q2155.96 388.403 2159.57 388.403 Q2163.21 388.403 2165.01 384.862 Q2166.84 381.297 2166.84 374.19 Q2166.84 367.061 2165.01 363.519 Q2163.21 359.954 2159.57 359.954 M2159.57 356.251 Q2165.38 356.251 2168.44 360.857 Q2171.52 365.44 2171.52 374.19 Q2171.52 382.917 2168.44 387.524 Q2165.38 392.107 2159.57 392.107 Q2153.76 392.107 2150.69 387.524 Q2147.63 382.917 2147.63 374.19 Q2147.63 365.44 2150.69 360.857 Q2153.76 356.251 2159.57 356.251 Z" fill="#000000" fill-rule="nonzero" fill-opacity="1" /><path clip-path="url(#clip170)" d="M2189.74 359.954 Q2186.13 359.954 2184.3 363.519 Q2182.49 367.061 2182.49 374.19 Q2182.49 381.297 2184.3 384.862 Q2186.13 388.403 2189.74 388.403 Q2193.37 388.403 2195.18 384.862 Q2197 381.297 2197 374.19 Q2197 367.061 2195.18 363.519 Q2193.37 359.954 2189.74 359.954 M2189.74 356.251 Q2195.55 356.251 2198.6 360.857 Q2201.68 365.44 2201.68 374.19 Q2201.68 382.917 2198.6 387.524 Q2195.55 392.107 2189.74 392.107 Q2183.93 392.107 2180.85 387.524 Q2177.79 382.917 2177.79 374.19 Q2177.79 365.44 2180.85 360.857 Q2183.93 356.251 2189.74 356.251 Z" fill="#000000" fill-rule="nonzero" fill-opacity="1" /><path clip-path="url(#clip170)" d="M2213.42 387.547 L2213.42 401.297 L2209.13 401.297 L2209.13 365.51 L2213.42 365.51 L2213.42 369.445 Q2214.76 367.13 2216.8 366.019 Q2218.86 364.885 2221.7 364.885 Q2226.43 364.885 2229.37 368.635 Q2232.33 372.385 2232.33 378.496 Q2232.33 384.607 2229.37 388.357 Q2226.43 392.107 2221.7 392.107 Q2218.86 392.107 2216.8 390.996 Q2214.76 389.862 2213.42 387.547 M2227.91 378.496 Q2227.91 373.797 2225.96 371.135 Q2224.04 368.45 2220.66 368.45 Q2217.28 368.45 2215.34 371.135 Q2213.42 373.797 2213.42 378.496 Q2213.42 383.195 2215.34 385.88 Q2217.28 388.542 2220.66 388.542 Q2224.04 388.542 2225.96 385.88 Q2227.91 383.195 2227.91 378.496 Z" fill="#000000" fill-rule="nonzero" fill-opacity="1" /><path clip-path="url(#clip170)" d="M2255.92 366.274 L2255.92 370.302 Q2254.11 369.376 2252.17 368.913 Q2250.22 368.45 2248.14 368.45 Q2244.97 368.45 2243.37 369.422 Q2241.8 370.394 2241.8 372.339 Q2241.8 373.82 2242.93 374.677 Q2244.06 375.51 2247.49 376.274 L2248.95 376.598 Q2253.49 377.57 2255.38 379.352 Q2257.31 381.112 2257.31 384.283 Q2257.31 387.894 2254.44 390.001 Q2251.59 392.107 2246.59 392.107 Q2244.5 392.107 2242.24 391.69 Q2239.99 391.297 2237.49 390.487 L2237.49 386.089 Q2239.85 387.315 2242.14 387.94 Q2244.44 388.542 2246.68 388.542 Q2249.69 388.542 2251.31 387.524 Q2252.93 386.482 2252.93 384.607 Q2252.93 382.871 2251.75 381.945 Q2250.59 381.019 2246.63 380.163 L2245.15 379.815 Q2241.19 378.982 2239.44 377.269 Q2237.68 375.533 2237.68 372.524 Q2237.68 368.866 2240.27 366.876 Q2242.86 364.885 2247.63 364.885 Q2249.99 364.885 2252.07 365.232 Q2254.16 365.579 2255.92 366.274 Z" fill="#000000" fill-rule="nonzero" fill-opacity="1" /></svg>
