<?xml version="1.0" encoding="utf-8"?>
<svg xmlns="http://www.w3.org/2000/svg" xmlns:xlink="http://www.w3.org/1999/xlink" width="600" height="400" viewBox="0 0 2400 1600">
<defs>
  <clipPath id="clip550">
    <rect x="0" y="0" width="2400" height="1600"/>
  </clipPath>
</defs>
<path clip-path="url(#clip550)" d="M0 1600 L2400 1600 L2400 0 L0 0  Z" fill="#ffffff" fill-rule="evenodd" fill-opacity="1"/>
<defs>
  <clipPath id="clip551">
    <rect x="480" y="0" width="1681" height="1600"/>
  </clipPath>
</defs>
<path clip-path="url(#clip550)" d="M247.459 1423.18 L2352.76 1423.18 L2352.76 123.472 L247.459 123.472  Z" fill="#ffffff" fill-rule="evenodd" fill-opacity="1"/>
<defs>
  <clipPath id="clip552">
    <rect x="247" y="123" width="2106" height="1301"/>
  </clipPath>
</defs>
<polyline clip-path="url(#clip552)" style="stroke:#000000; stroke-linecap:round; stroke-linejoin:round; stroke-width:2; stroke-opacity:0.1; fill:none" points="307.043,1423.18 307.043,123.472 "/>
<polyline clip-path="url(#clip552)" style="stroke:#000000; stroke-linecap:round; stroke-linejoin:round; stroke-width:2; stroke-opacity:0.1; fill:none" points="803.575,1423.18 803.575,123.472 "/>
<polyline clip-path="url(#clip552)" style="stroke:#000000; stroke-linecap:round; stroke-linejoin:round; stroke-width:2; stroke-opacity:0.1; fill:none" points="1300.11,1423.18 1300.11,123.472 "/>
<polyline clip-path="url(#clip552)" style="stroke:#000000; stroke-linecap:round; stroke-linejoin:round; stroke-width:2; stroke-opacity:0.1; fill:none" points="1796.64,1423.18 1796.64,123.472 "/>
<polyline clip-path="url(#clip552)" style="stroke:#000000; stroke-linecap:round; stroke-linejoin:round; stroke-width:2; stroke-opacity:0.1; fill:none" points="2293.17,1423.18 2293.17,123.472 "/>
<polyline clip-path="url(#clip552)" style="stroke:#000000; stroke-linecap:round; stroke-linejoin:round; stroke-width:2; stroke-opacity:0.1; fill:none" points="247.459,1394.22 2352.76,1394.22 "/>
<polyline clip-path="url(#clip552)" style="stroke:#000000; stroke-linecap:round; stroke-linejoin:round; stroke-width:2; stroke-opacity:0.1; fill:none" points="247.459,1136.42 2352.76,1136.42 "/>
<polyline clip-path="url(#clip552)" style="stroke:#000000; stroke-linecap:round; stroke-linejoin:round; stroke-width:2; stroke-opacity:0.1; fill:none" points="247.459,878.632 2352.76,878.632 "/>
<polyline clip-path="url(#clip552)" style="stroke:#000000; stroke-linecap:round; stroke-linejoin:round; stroke-width:2; stroke-opacity:0.1; fill:none" points="247.459,620.84 2352.76,620.84 "/>
<polyline clip-path="url(#clip552)" style="stroke:#000000; stroke-linecap:round; stroke-linejoin:round; stroke-width:2; stroke-opacity:0.1; fill:none" points="247.459,363.047 2352.76,363.047 "/>
<polyline clip-path="url(#clip550)" style="stroke:#000000; stroke-linecap:round; stroke-linejoin:round; stroke-width:4; stroke-opacity:1; fill:none" points="247.459,1423.18 2352.76,1423.18 "/>
<polyline clip-path="url(#clip550)" style="stroke:#000000; stroke-linecap:round; stroke-linejoin:round; stroke-width:4; stroke-opacity:1; fill:none" points="307.043,1423.18 307.043,1404.28 "/>
<polyline clip-path="url(#clip550)" style="stroke:#000000; stroke-linecap:round; stroke-linejoin:round; stroke-width:4; stroke-opacity:1; fill:none" points="803.575,1423.18 803.575,1404.28 "/>
<polyline clip-path="url(#clip550)" style="stroke:#000000; stroke-linecap:round; stroke-linejoin:round; stroke-width:4; stroke-opacity:1; fill:none" points="1300.11,1423.18 1300.11,1404.28 "/>
<polyline clip-path="url(#clip550)" style="stroke:#000000; stroke-linecap:round; stroke-linejoin:round; stroke-width:4; stroke-opacity:1; fill:none" points="1796.64,1423.18 1796.64,1404.28 "/>
<polyline clip-path="url(#clip550)" style="stroke:#000000; stroke-linecap:round; stroke-linejoin:round; stroke-width:4; stroke-opacity:1; fill:none" points="2293.17,1423.18 2293.17,1404.28 "/>
<path clip-path="url(#clip550)" d="M228.953 1481.64 L236.592 1481.64 L236.592 1455.28 L228.281 1456.95 L228.281 1452.69 L236.545 1451.02 L241.221 1451.02 L241.221 1481.64 L248.86 1481.64 L248.86 1485.58 L228.953 1485.58 L228.953 1481.64 Z" fill="#000000" fill-rule="nonzero" fill-opacity="1" /><path clip-path="url(#clip550)" d="M268.304 1454.1 Q264.693 1454.1 262.865 1457.66 Q261.059 1461.2 261.059 1468.33 Q261.059 1475.44 262.865 1479.01 Q264.693 1482.55 268.304 1482.55 Q271.939 1482.55 273.744 1479.01 Q275.573 1475.44 275.573 1468.33 Q275.573 1461.2 273.744 1457.66 Q271.939 1454.1 268.304 1454.1 M268.304 1450.39 Q274.115 1450.39 277.17 1455 Q280.249 1459.58 280.249 1468.33 Q280.249 1477.06 277.17 1481.67 Q274.115 1486.25 268.304 1486.25 Q262.494 1486.25 259.416 1481.67 Q256.36 1477.06 256.36 1468.33 Q256.36 1459.58 259.416 1455 Q262.494 1450.39 268.304 1450.39 Z" fill="#000000" fill-rule="nonzero" fill-opacity="1" /><path clip-path="url(#clip550)" d="M298.466 1454.1 Q294.855 1454.1 293.026 1457.66 Q291.221 1461.2 291.221 1468.33 Q291.221 1475.44 293.026 1479.01 Q294.855 1482.55 298.466 1482.55 Q302.1 1482.55 303.906 1479.01 Q305.735 1475.44 305.735 1468.33 Q305.735 1461.2 303.906 1457.66 Q302.1 1454.1 298.466 1454.1 M298.466 1450.39 Q304.276 1450.39 307.332 1455 Q310.411 1459.58 310.411 1468.33 Q310.411 1477.06 307.332 1481.67 Q304.276 1486.25 298.466 1486.25 Q292.656 1486.25 289.577 1481.67 Q286.522 1477.06 286.522 1468.33 Q286.522 1459.58 289.577 1455 Q292.656 1450.39 298.466 1450.39 Z" fill="#000000" fill-rule="nonzero" fill-opacity="1" /><path clip-path="url(#clip550)" d="M318.628 1479.7 L323.512 1479.7 L323.512 1485.58 L318.628 1485.58 L318.628 1479.7 Z" fill="#000000" fill-rule="nonzero" fill-opacity="1" /><path clip-path="url(#clip550)" d="M343.697 1454.1 Q340.086 1454.1 338.258 1457.66 Q336.452 1461.2 336.452 1468.33 Q336.452 1475.44 338.258 1479.01 Q340.086 1482.55 343.697 1482.55 Q347.332 1482.55 349.137 1479.01 Q350.966 1475.44 350.966 1468.33 Q350.966 1461.2 349.137 1457.66 Q347.332 1454.1 343.697 1454.1 M343.697 1450.39 Q349.508 1450.39 352.563 1455 Q355.642 1459.58 355.642 1468.33 Q355.642 1477.06 352.563 1481.67 Q349.508 1486.25 343.697 1486.25 Q337.887 1486.25 334.809 1481.67 Q331.753 1477.06 331.753 1468.33 Q331.753 1459.58 334.809 1455 Q337.887 1450.39 343.697 1450.39 Z" fill="#000000" fill-rule="nonzero" fill-opacity="1" /><path clip-path="url(#clip550)" d="M373.859 1454.1 Q370.248 1454.1 368.42 1457.66 Q366.614 1461.2 366.614 1468.33 Q366.614 1475.44 368.42 1479.01 Q370.248 1482.55 373.859 1482.55 Q377.494 1482.55 379.299 1479.01 Q381.128 1475.44 381.128 1468.33 Q381.128 1461.2 379.299 1457.66 Q377.494 1454.1 373.859 1454.1 M373.859 1450.39 Q379.67 1450.39 382.725 1455 Q385.804 1459.58 385.804 1468.33 Q385.804 1477.06 382.725 1481.67 Q379.67 1486.25 373.859 1486.25 Q368.049 1486.25 364.971 1481.67 Q361.915 1477.06 361.915 1468.33 Q361.915 1459.58 364.971 1455 Q368.049 1450.39 373.859 1450.39 Z" fill="#000000" fill-rule="nonzero" fill-opacity="1" /><path clip-path="url(#clip550)" d="M725.983 1481.64 L733.622 1481.64 L733.622 1455.28 L725.311 1456.95 L725.311 1452.69 L733.575 1451.02 L738.251 1451.02 L738.251 1481.64 L745.89 1481.64 L745.89 1485.58 L725.983 1485.58 L725.983 1481.64 Z" fill="#000000" fill-rule="nonzero" fill-opacity="1" /><path clip-path="url(#clip550)" d="M765.334 1454.1 Q761.723 1454.1 759.895 1457.66 Q758.089 1461.2 758.089 1468.33 Q758.089 1475.44 759.895 1479.01 Q761.723 1482.55 765.334 1482.55 Q768.969 1482.55 770.774 1479.01 Q772.603 1475.44 772.603 1468.33 Q772.603 1461.2 770.774 1457.66 Q768.969 1454.1 765.334 1454.1 M765.334 1450.39 Q771.145 1450.39 774.2 1455 Q777.279 1459.58 777.279 1468.33 Q777.279 1477.06 774.2 1481.67 Q771.145 1486.25 765.334 1486.25 Q759.524 1486.25 756.446 1481.67 Q753.39 1477.06 753.39 1468.33 Q753.39 1459.58 756.446 1455 Q759.524 1450.39 765.334 1450.39 Z" fill="#000000" fill-rule="nonzero" fill-opacity="1" /><path clip-path="url(#clip550)" d="M795.496 1454.1 Q791.885 1454.1 790.057 1457.66 Q788.251 1461.2 788.251 1468.33 Q788.251 1475.44 790.057 1479.01 Q791.885 1482.55 795.496 1482.55 Q799.131 1482.55 800.936 1479.01 Q802.765 1475.44 802.765 1468.33 Q802.765 1461.2 800.936 1457.66 Q799.131 1454.1 795.496 1454.1 M795.496 1450.39 Q801.306 1450.39 804.362 1455 Q807.441 1459.58 807.441 1468.33 Q807.441 1477.06 804.362 1481.67 Q801.306 1486.25 795.496 1486.25 Q789.686 1486.25 786.607 1481.67 Q783.552 1477.06 783.552 1468.33 Q783.552 1459.58 786.607 1455 Q789.686 1450.39 795.496 1450.39 Z" fill="#000000" fill-rule="nonzero" fill-opacity="1" /><path clip-path="url(#clip550)" d="M815.658 1479.7 L820.542 1479.7 L820.542 1485.58 L815.658 1485.58 L815.658 1479.7 Z" fill="#000000" fill-rule="nonzero" fill-opacity="1" /><path clip-path="url(#clip550)" d="M834.755 1481.64 L851.075 1481.64 L851.075 1485.58 L829.13 1485.58 L829.13 1481.64 Q831.792 1478.89 836.376 1474.26 Q840.982 1469.61 842.163 1468.27 Q844.408 1465.74 845.288 1464.01 Q846.19 1462.25 846.19 1460.56 Q846.19 1457.8 844.246 1456.07 Q842.325 1454.33 839.223 1454.33 Q837.024 1454.33 834.57 1455.09 Q832.14 1455.86 829.362 1457.41 L829.362 1452.69 Q832.186 1451.55 834.64 1450.97 Q837.093 1450.39 839.13 1450.39 Q844.501 1450.39 847.695 1453.08 Q850.89 1455.77 850.89 1460.26 Q850.89 1462.39 850.079 1464.31 Q849.292 1466.2 847.186 1468.8 Q846.607 1469.47 843.505 1472.69 Q840.403 1475.88 834.755 1481.64 Z" fill="#000000" fill-rule="nonzero" fill-opacity="1" /><path clip-path="url(#clip550)" d="M860.936 1451.02 L879.292 1451.02 L879.292 1454.96 L865.218 1454.96 L865.218 1463.43 Q866.237 1463.08 867.255 1462.92 Q868.274 1462.73 869.292 1462.73 Q875.079 1462.73 878.459 1465.9 Q881.838 1469.08 881.838 1474.49 Q881.838 1480.07 878.366 1483.17 Q874.894 1486.25 868.575 1486.25 Q866.399 1486.25 864.13 1485.88 Q861.885 1485.51 859.477 1484.77 L859.477 1480.07 Q861.561 1481.2 863.783 1481.76 Q866.005 1482.32 868.482 1482.32 Q872.487 1482.32 874.825 1480.21 Q877.163 1478.1 877.163 1474.49 Q877.163 1470.88 874.825 1468.77 Q872.487 1466.67 868.482 1466.67 Q866.607 1466.67 864.732 1467.08 Q862.88 1467.5 860.936 1468.38 L860.936 1451.02 Z" fill="#000000" fill-rule="nonzero" fill-opacity="1" /><path clip-path="url(#clip550)" d="M1222.02 1481.64 L1229.66 1481.64 L1229.66 1455.28 L1221.35 1456.95 L1221.35 1452.69 L1229.61 1451.02 L1234.29 1451.02 L1234.29 1481.64 L1241.92 1481.64 L1241.92 1485.58 L1222.02 1485.58 L1222.02 1481.64 Z" fill="#000000" fill-rule="nonzero" fill-opacity="1" /><path clip-path="url(#clip550)" d="M1261.37 1454.1 Q1257.76 1454.1 1255.93 1457.66 Q1254.12 1461.2 1254.12 1468.33 Q1254.12 1475.44 1255.93 1479.01 Q1257.76 1482.55 1261.37 1482.55 Q1265 1482.55 1266.81 1479.01 Q1268.64 1475.44 1268.64 1468.33 Q1268.64 1461.2 1266.81 1457.66 Q1265 1454.1 1261.37 1454.1 M1261.37 1450.39 Q1267.18 1450.39 1270.23 1455 Q1273.31 1459.58 1273.31 1468.33 Q1273.31 1477.06 1270.23 1481.67 Q1267.18 1486.25 1261.37 1486.25 Q1255.56 1486.25 1252.48 1481.67 Q1249.42 1477.06 1249.42 1468.33 Q1249.42 1459.58 1252.48 1455 Q1255.56 1450.39 1261.37 1450.39 Z" fill="#000000" fill-rule="nonzero" fill-opacity="1" /><path clip-path="url(#clip550)" d="M1291.53 1454.1 Q1287.92 1454.1 1286.09 1457.66 Q1284.29 1461.2 1284.29 1468.33 Q1284.29 1475.44 1286.09 1479.01 Q1287.92 1482.55 1291.53 1482.55 Q1295.17 1482.55 1296.97 1479.01 Q1298.8 1475.44 1298.8 1468.33 Q1298.8 1461.2 1296.97 1457.66 Q1295.17 1454.1 1291.53 1454.1 M1291.53 1450.39 Q1297.34 1450.39 1300.4 1455 Q1303.48 1459.58 1303.48 1468.33 Q1303.48 1477.06 1300.4 1481.67 Q1297.34 1486.25 1291.53 1486.25 Q1285.72 1486.25 1282.64 1481.67 Q1279.59 1477.06 1279.59 1468.33 Q1279.59 1459.58 1282.64 1455 Q1285.72 1450.39 1291.53 1450.39 Z" fill="#000000" fill-rule="nonzero" fill-opacity="1" /><path clip-path="url(#clip550)" d="M1311.69 1479.7 L1316.58 1479.7 L1316.58 1485.58 L1311.69 1485.58 L1311.69 1479.7 Z" fill="#000000" fill-rule="nonzero" fill-opacity="1" /><path clip-path="url(#clip550)" d="M1326.81 1451.02 L1345.16 1451.02 L1345.16 1454.96 L1331.09 1454.96 L1331.09 1463.43 Q1332.11 1463.08 1333.13 1462.92 Q1334.15 1462.73 1335.16 1462.73 Q1340.95 1462.73 1344.33 1465.9 Q1347.71 1469.08 1347.71 1474.49 Q1347.71 1480.07 1344.24 1483.17 Q1340.77 1486.25 1334.45 1486.25 Q1332.27 1486.25 1330 1485.88 Q1327.76 1485.51 1325.35 1484.77 L1325.35 1480.07 Q1327.43 1481.2 1329.66 1481.76 Q1331.88 1482.32 1334.35 1482.32 Q1338.36 1482.32 1340.7 1480.21 Q1343.04 1478.1 1343.04 1474.49 Q1343.04 1470.88 1340.7 1468.77 Q1338.36 1466.67 1334.35 1466.67 Q1332.48 1466.67 1330.6 1467.08 Q1328.75 1467.5 1326.81 1468.38 L1326.81 1451.02 Z" fill="#000000" fill-rule="nonzero" fill-opacity="1" /><path clip-path="url(#clip550)" d="M1366.92 1454.1 Q1363.31 1454.1 1361.48 1457.66 Q1359.68 1461.2 1359.68 1468.33 Q1359.68 1475.44 1361.48 1479.01 Q1363.31 1482.55 1366.92 1482.55 Q1370.56 1482.55 1372.36 1479.01 Q1374.19 1475.44 1374.19 1468.33 Q1374.19 1461.2 1372.36 1457.66 Q1370.56 1454.1 1366.92 1454.1 M1366.92 1450.39 Q1372.73 1450.39 1375.79 1455 Q1378.87 1459.58 1378.87 1468.33 Q1378.87 1477.06 1375.79 1481.67 Q1372.73 1486.25 1366.92 1486.25 Q1361.11 1486.25 1358.04 1481.67 Q1354.98 1477.06 1354.98 1468.33 Q1354.98 1459.58 1358.04 1455 Q1361.11 1450.39 1366.92 1450.39 Z" fill="#000000" fill-rule="nonzero" fill-opacity="1" /><path clip-path="url(#clip550)" d="M1719.05 1481.64 L1726.69 1481.64 L1726.69 1455.28 L1718.38 1456.95 L1718.38 1452.69 L1726.64 1451.02 L1731.32 1451.02 L1731.32 1481.64 L1738.95 1481.64 L1738.95 1485.58 L1719.05 1485.58 L1719.05 1481.64 Z" fill="#000000" fill-rule="nonzero" fill-opacity="1" /><path clip-path="url(#clip550)" d="M1758.4 1454.1 Q1754.79 1454.1 1752.96 1457.66 Q1751.15 1461.2 1751.15 1468.33 Q1751.15 1475.44 1752.96 1479.01 Q1754.79 1482.55 1758.4 1482.55 Q1762.03 1482.55 1763.84 1479.01 Q1765.67 1475.44 1765.67 1468.33 Q1765.67 1461.2 1763.84 1457.66 Q1762.03 1454.1 1758.4 1454.1 M1758.4 1450.39 Q1764.21 1450.39 1767.26 1455 Q1770.34 1459.58 1770.34 1468.33 Q1770.34 1477.06 1767.26 1481.67 Q1764.21 1486.25 1758.4 1486.25 Q1752.59 1486.25 1749.51 1481.67 Q1746.45 1477.06 1746.45 1468.33 Q1746.45 1459.58 1749.51 1455 Q1752.59 1450.39 1758.4 1450.39 Z" fill="#000000" fill-rule="nonzero" fill-opacity="1" /><path clip-path="url(#clip550)" d="M1788.56 1454.1 Q1784.95 1454.1 1783.12 1457.66 Q1781.32 1461.2 1781.32 1468.33 Q1781.32 1475.44 1783.12 1479.01 Q1784.95 1482.55 1788.56 1482.55 Q1792.2 1482.55 1794 1479.01 Q1795.83 1475.44 1795.83 1468.33 Q1795.83 1461.2 1794 1457.66 Q1792.2 1454.1 1788.56 1454.1 M1788.56 1450.39 Q1794.37 1450.39 1797.43 1455 Q1800.51 1459.58 1800.51 1468.33 Q1800.51 1477.06 1797.43 1481.67 Q1794.37 1486.25 1788.56 1486.25 Q1782.75 1486.25 1779.67 1481.67 Q1776.62 1477.06 1776.62 1468.33 Q1776.62 1459.58 1779.67 1455 Q1782.75 1450.39 1788.56 1450.39 Z" fill="#000000" fill-rule="nonzero" fill-opacity="1" /><path clip-path="url(#clip550)" d="M1808.72 1479.7 L1813.61 1479.7 L1813.61 1485.58 L1808.72 1485.58 L1808.72 1479.7 Z" fill="#000000" fill-rule="nonzero" fill-opacity="1" /><path clip-path="url(#clip550)" d="M1822.61 1451.02 L1844.83 1451.02 L1844.83 1453.01 L1832.29 1485.58 L1827.4 1485.58 L1839.21 1454.96 L1822.61 1454.96 L1822.61 1451.02 Z" fill="#000000" fill-rule="nonzero" fill-opacity="1" /><path clip-path="url(#clip550)" d="M1854 1451.02 L1872.36 1451.02 L1872.36 1454.96 L1858.28 1454.96 L1858.28 1463.43 Q1859.3 1463.08 1860.32 1462.92 Q1861.34 1462.73 1862.36 1462.73 Q1868.14 1462.73 1871.52 1465.9 Q1874.9 1469.08 1874.9 1474.49 Q1874.9 1480.07 1871.43 1483.17 Q1867.96 1486.25 1861.64 1486.25 Q1859.46 1486.25 1857.19 1485.88 Q1854.95 1485.51 1852.54 1484.77 L1852.54 1480.07 Q1854.63 1481.2 1856.85 1481.76 Q1859.07 1482.32 1861.55 1482.32 Q1865.55 1482.32 1867.89 1480.21 Q1870.23 1478.1 1870.23 1474.49 Q1870.23 1470.88 1867.89 1468.77 Q1865.55 1466.67 1861.55 1466.67 Q1859.67 1466.67 1857.8 1467.08 Q1855.94 1467.5 1854 1468.38 L1854 1451.02 Z" fill="#000000" fill-rule="nonzero" fill-opacity="1" /><path clip-path="url(#clip550)" d="M2215.08 1481.64 L2222.72 1481.64 L2222.72 1455.28 L2214.41 1456.95 L2214.41 1452.69 L2222.67 1451.02 L2227.35 1451.02 L2227.35 1481.64 L2234.99 1481.64 L2234.99 1485.58 L2215.08 1485.58 L2215.08 1481.64 Z" fill="#000000" fill-rule="nonzero" fill-opacity="1" /><path clip-path="url(#clip550)" d="M2254.43 1454.1 Q2250.82 1454.1 2248.99 1457.66 Q2247.19 1461.2 2247.19 1468.33 Q2247.19 1475.44 2248.99 1479.01 Q2250.82 1482.55 2254.43 1482.55 Q2258.07 1482.55 2259.87 1479.01 Q2261.7 1475.44 2261.7 1468.33 Q2261.7 1461.2 2259.87 1457.66 Q2258.07 1454.1 2254.43 1454.1 M2254.43 1450.39 Q2260.24 1450.39 2263.3 1455 Q2266.38 1459.58 2266.38 1468.33 Q2266.38 1477.06 2263.3 1481.67 Q2260.24 1486.25 2254.43 1486.25 Q2248.62 1486.25 2245.54 1481.67 Q2242.49 1477.06 2242.49 1468.33 Q2242.49 1459.58 2245.54 1455 Q2248.62 1450.39 2254.43 1450.39 Z" fill="#000000" fill-rule="nonzero" fill-opacity="1" /><path clip-path="url(#clip550)" d="M2275.41 1481.64 L2283.04 1481.64 L2283.04 1455.28 L2274.73 1456.95 L2274.73 1452.69 L2283 1451.02 L2287.67 1451.02 L2287.67 1481.64 L2295.31 1481.64 L2295.31 1485.58 L2275.41 1485.58 L2275.41 1481.64 Z" fill="#000000" fill-rule="nonzero" fill-opacity="1" /><path clip-path="url(#clip550)" d="M2304.76 1479.7 L2309.64 1479.7 L2309.64 1485.58 L2304.76 1485.58 L2304.76 1479.7 Z" fill="#000000" fill-rule="nonzero" fill-opacity="1" /><path clip-path="url(#clip550)" d="M2329.83 1454.1 Q2326.22 1454.1 2324.39 1457.66 Q2322.58 1461.2 2322.58 1468.33 Q2322.58 1475.44 2324.39 1479.01 Q2326.22 1482.55 2329.83 1482.55 Q2333.46 1482.55 2335.27 1479.01 Q2337.1 1475.44 2337.1 1468.33 Q2337.1 1461.2 2335.27 1457.66 Q2333.46 1454.1 2329.83 1454.1 M2329.83 1450.39 Q2335.64 1450.39 2338.69 1455 Q2341.77 1459.58 2341.77 1468.33 Q2341.77 1477.06 2338.69 1481.67 Q2335.64 1486.25 2329.83 1486.25 Q2324.02 1486.25 2320.94 1481.67 Q2317.88 1477.06 2317.88 1468.33 Q2317.88 1459.58 2320.94 1455 Q2324.02 1450.39 2329.83 1450.39 Z" fill="#000000" fill-rule="nonzero" fill-opacity="1" /><path clip-path="url(#clip550)" d="M2359.99 1454.1 Q2356.38 1454.1 2354.55 1457.66 Q2352.74 1461.2 2352.74 1468.33 Q2352.74 1475.44 2354.55 1479.01 Q2356.38 1482.55 2359.99 1482.55 Q2363.62 1482.55 2365.43 1479.01 Q2367.26 1475.44 2367.26 1468.33 Q2367.26 1461.2 2365.43 1457.66 Q2363.62 1454.1 2359.99 1454.1 M2359.99 1450.39 Q2365.8 1450.39 2368.85 1455 Q2371.93 1459.58 2371.93 1468.33 Q2371.93 1477.06 2368.85 1481.67 Q2365.8 1486.25 2359.99 1486.25 Q2354.18 1486.25 2351.1 1481.67 Q2348.04 1477.06 2348.04 1468.33 Q2348.04 1459.58 2351.1 1455 Q2354.18 1450.39 2359.99 1450.39 Z" fill="#000000" fill-rule="nonzero" fill-opacity="1" /><path clip-path="url(#clip550)" d="M764.958 1520.52 L795.004 1520.52 L795.004 1525.93 L771.388 1525.93 L771.388 1540 L794.018 1540 L794.018 1545.41 L771.388 1545.41 L771.388 1562.63 L795.577 1562.63 L795.577 1568.04 L764.958 1568.04 L764.958 1520.52 Z" fill="#000000" fill-rule="nonzero" fill-opacity="1" /><path clip-path="url(#clip550)" d="M835.522 1546.53 L835.522 1568.04 L829.666 1568.04 L829.666 1546.72 Q829.666 1541.66 827.692 1539.14 Q825.719 1536.63 821.772 1536.63 Q817.03 1536.63 814.292 1539.65 Q811.555 1542.68 811.555 1547.9 L811.555 1568.04 L805.667 1568.04 L805.667 1532.4 L811.555 1532.4 L811.555 1537.93 Q813.656 1534.72 816.489 1533.13 Q819.353 1531.54 823.077 1531.54 Q829.22 1531.54 832.371 1535.36 Q835.522 1539.14 835.522 1546.53 Z" fill="#000000" fill-rule="nonzero" fill-opacity="1" /><path clip-path="url(#clip550)" d="M877.695 1548.76 L877.695 1551.62 L850.768 1551.62 Q851.15 1557.67 854.396 1560.85 Q857.675 1564 863.499 1564 Q866.873 1564 870.024 1563.17 Q873.207 1562.35 876.326 1560.69 L876.326 1566.23 Q873.175 1567.57 869.865 1568.27 Q866.555 1568.97 863.149 1568.97 Q854.619 1568.97 849.622 1564 Q844.657 1559.04 844.657 1550.57 Q844.657 1541.82 849.368 1536.69 Q854.11 1531.54 862.131 1531.54 Q869.324 1531.54 873.494 1536.18 Q877.695 1540.8 877.695 1548.76 M871.838 1547.04 Q871.775 1542.23 869.133 1539.37 Q866.523 1536.5 862.194 1536.5 Q857.293 1536.5 854.333 1539.27 Q851.405 1542.04 850.959 1547.07 L871.838 1547.04 Z" fill="#000000" fill-rule="nonzero" fill-opacity="1" /><path clip-path="url(#clip550)" d="M907.964 1537.87 Q906.977 1537.3 905.8 1537.04 Q904.654 1536.76 903.253 1536.76 Q898.288 1536.76 895.614 1540 Q892.973 1543.22 892.973 1549.27 L892.973 1568.04 L887.084 1568.04 L887.084 1532.4 L892.973 1532.4 L892.973 1537.93 Q894.819 1534.69 897.779 1533.13 Q900.739 1531.54 904.972 1531.54 Q905.577 1531.54 906.309 1531.63 Q907.041 1531.7 907.932 1531.85 L907.964 1537.87 Z" fill="#000000" fill-rule="nonzero" fill-opacity="1" /><path clip-path="url(#clip550)" d="M936.419 1549.81 Q936.419 1543.44 933.777 1539.94 Q931.167 1536.44 926.424 1536.44 Q921.714 1536.44 919.072 1539.94 Q916.462 1543.44 916.462 1549.81 Q916.462 1556.14 919.072 1559.64 Q921.714 1563.14 926.424 1563.14 Q931.167 1563.14 933.777 1559.64 Q936.419 1556.14 936.419 1549.81 M942.275 1563.62 Q942.275 1572.72 938.233 1577.15 Q934.191 1581.6 925.852 1581.6 Q922.764 1581.6 920.027 1581.13 Q917.29 1580.68 914.712 1579.72 L914.712 1574.03 Q917.29 1575.43 919.804 1576.1 Q922.319 1576.76 924.928 1576.76 Q930.689 1576.76 933.554 1573.74 Q936.419 1570.75 936.419 1564.67 L936.419 1561.77 Q934.604 1564.92 931.772 1566.48 Q928.939 1568.04 924.992 1568.04 Q918.435 1568.04 914.425 1563.05 Q910.415 1558.05 910.415 1549.81 Q910.415 1541.53 914.425 1536.53 Q918.435 1531.54 924.992 1531.54 Q928.939 1531.54 931.772 1533.1 Q934.604 1534.66 936.419 1537.81 L936.419 1532.4 L942.275 1532.4 L942.275 1563.62 Z" fill="#000000" fill-rule="nonzero" fill-opacity="1" /><path clip-path="url(#clip550)" d="M969.17 1571.35 Q966.688 1577.72 964.332 1579.66 Q961.977 1581.6 958.03 1581.6 L953.351 1581.6 L953.351 1576.7 L956.789 1576.7 Q959.208 1576.7 960.545 1575.56 Q961.881 1574.41 963.505 1570.14 L964.555 1567.47 L950.137 1532.4 L956.343 1532.4 L967.483 1560.28 L978.623 1532.4 L984.83 1532.4 L969.17 1571.35 Z" fill="#000000" fill-rule="nonzero" fill-opacity="1" /><path clip-path="url(#clip550)" d="M1027.45 1536.5 Q1022.74 1536.5 1020 1540.19 Q1017.26 1543.85 1017.26 1550.25 Q1017.26 1556.65 1019.97 1560.34 Q1022.71 1564 1027.45 1564 Q1032.13 1564 1034.86 1560.31 Q1037.6 1556.62 1037.6 1550.25 Q1037.6 1543.92 1034.86 1540.23 Q1032.13 1536.5 1027.45 1536.5 M1027.45 1531.54 Q1035.09 1531.54 1039.45 1536.5 Q1043.81 1541.47 1043.81 1550.25 Q1043.81 1559 1039.45 1564 Q1035.09 1568.97 1027.45 1568.97 Q1019.78 1568.97 1015.42 1564 Q1011.09 1559 1011.09 1550.25 Q1011.09 1541.47 1015.42 1536.5 Q1019.78 1531.54 1027.45 1531.54 Z" fill="#000000" fill-rule="nonzero" fill-opacity="1" /><path clip-path="url(#clip550)" d="M1071.56 1518.52 L1071.56 1523.39 L1065.96 1523.39 Q1062.81 1523.39 1061.57 1524.66 Q1060.36 1525.93 1060.36 1529.24 L1060.36 1532.4 L1070 1532.4 L1070 1536.95 L1060.36 1536.95 L1060.36 1568.04 L1054.47 1568.04 L1054.47 1536.95 L1048.87 1536.95 L1048.87 1532.4 L1054.47 1532.4 L1054.47 1529.91 Q1054.47 1523.96 1057.24 1521.26 Q1060.01 1518.52 1066.02 1518.52 L1071.56 1518.52 Z" fill="#000000" fill-rule="nonzero" fill-opacity="1" /><path clip-path="url(#clip550)" d="M1097.18 1532.4 L1103.04 1532.4 L1103.04 1568.04 L1097.18 1568.04 L1097.18 1532.4 M1097.18 1518.52 L1103.04 1518.52 L1103.04 1525.93 L1097.18 1525.93 L1097.18 1518.52 Z" fill="#000000" fill-rule="nonzero" fill-opacity="1" /><path clip-path="url(#clip550)" d="M1144.93 1546.53 L1144.93 1568.04 L1139.07 1568.04 L1139.07 1546.72 Q1139.07 1541.66 1137.1 1539.14 Q1135.12 1536.63 1131.18 1536.63 Q1126.43 1536.63 1123.7 1539.65 Q1120.96 1542.68 1120.96 1547.9 L1120.96 1568.04 L1115.07 1568.04 L1115.07 1532.4 L1120.96 1532.4 L1120.96 1537.93 Q1123.06 1534.72 1125.89 1533.13 Q1128.76 1531.54 1132.48 1531.54 Q1138.63 1531.54 1141.78 1535.36 Q1144.93 1539.14 1144.93 1546.53 Z" fill="#000000" fill-rule="nonzero" fill-opacity="1" /><path clip-path="url(#clip550)" d="M1182.26 1533.76 L1182.26 1539.24 Q1179.78 1537.87 1177.27 1537.2 Q1174.78 1536.5 1172.24 1536.5 Q1166.54 1536.5 1163.39 1540.13 Q1160.24 1543.73 1160.24 1550.25 Q1160.24 1556.78 1163.39 1560.4 Q1166.54 1564 1172.24 1564 Q1174.78 1564 1177.27 1563.33 Q1179.78 1562.63 1182.26 1561.26 L1182.26 1566.68 Q1179.81 1567.82 1177.17 1568.39 Q1174.56 1568.97 1171.6 1568.97 Q1163.55 1568.97 1158.8 1563.91 Q1154.06 1558.85 1154.06 1550.25 Q1154.06 1541.53 1158.84 1536.53 Q1163.64 1531.54 1171.98 1531.54 Q1174.69 1531.54 1177.27 1532.11 Q1179.84 1532.65 1182.26 1533.76 Z" fill="#000000" fill-rule="nonzero" fill-opacity="1" /><path clip-path="url(#clip550)" d="M1192.45 1532.4 L1198.3 1532.4 L1198.3 1568.04 L1192.45 1568.04 L1192.45 1532.4 M1192.45 1518.52 L1198.3 1518.52 L1198.3 1525.93 L1192.45 1525.93 L1192.45 1518.52 Z" fill="#000000" fill-rule="nonzero" fill-opacity="1" /><path clip-path="url(#clip550)" d="M1234.02 1537.81 L1234.02 1518.52 L1239.87 1518.52 L1239.87 1568.04 L1234.02 1568.04 L1234.02 1562.7 Q1232.17 1565.88 1229.34 1567.44 Q1226.54 1568.97 1222.59 1568.97 Q1216.13 1568.97 1212.05 1563.81 Q1208.01 1558.65 1208.01 1550.25 Q1208.01 1541.85 1212.05 1536.69 Q1216.13 1531.54 1222.59 1531.54 Q1226.54 1531.54 1229.34 1533.1 Q1232.17 1534.62 1234.02 1537.81 M1214.06 1550.25 Q1214.06 1556.71 1216.7 1560.4 Q1219.37 1564.07 1224.02 1564.07 Q1228.67 1564.07 1231.34 1560.4 Q1234.02 1556.71 1234.02 1550.25 Q1234.02 1543.79 1231.34 1540.13 Q1228.67 1536.44 1224.02 1536.44 Q1219.37 1536.44 1216.7 1540.13 Q1214.06 1543.79 1214.06 1550.25 Z" fill="#000000" fill-rule="nonzero" fill-opacity="1" /><path clip-path="url(#clip550)" d="M1282.43 1548.76 L1282.43 1551.62 L1255.5 1551.62 Q1255.88 1557.67 1259.13 1560.85 Q1262.41 1564 1268.23 1564 Q1271.6 1564 1274.76 1563.17 Q1277.94 1562.35 1281.06 1560.69 L1281.06 1566.23 Q1277.91 1567.57 1274.6 1568.27 Q1271.29 1568.97 1267.88 1568.97 Q1259.35 1568.97 1254.35 1564 Q1249.39 1559.04 1249.39 1550.57 Q1249.39 1541.82 1254.1 1536.69 Q1258.84 1531.54 1266.86 1531.54 Q1274.06 1531.54 1278.23 1536.18 Q1282.43 1540.8 1282.43 1548.76 M1276.57 1547.04 Q1276.51 1542.23 1273.86 1539.37 Q1271.25 1536.5 1266.93 1536.5 Q1262.02 1536.5 1259.06 1539.27 Q1256.14 1542.04 1255.69 1547.07 L1276.57 1547.04 Z" fill="#000000" fill-rule="nonzero" fill-opacity="1" /><path clip-path="url(#clip550)" d="M1321.67 1546.53 L1321.67 1568.04 L1315.81 1568.04 L1315.81 1546.72 Q1315.81 1541.66 1313.84 1539.14 Q1311.87 1536.63 1307.92 1536.63 Q1303.18 1536.63 1300.44 1539.65 Q1297.7 1542.68 1297.7 1547.9 L1297.7 1568.04 L1291.82 1568.04 L1291.82 1532.4 L1297.7 1532.4 L1297.7 1537.93 Q1299.8 1534.72 1302.64 1533.13 Q1305.5 1531.54 1309.23 1531.54 Q1315.37 1531.54 1318.52 1535.36 Q1321.67 1539.14 1321.67 1546.53 Z" fill="#000000" fill-rule="nonzero" fill-opacity="1" /><path clip-path="url(#clip550)" d="M1339.15 1522.27 L1339.15 1532.4 L1351.21 1532.4 L1351.21 1536.95 L1339.15 1536.95 L1339.15 1556.3 Q1339.15 1560.66 1340.32 1561.9 Q1341.53 1563.14 1345.19 1563.14 L1351.21 1563.14 L1351.21 1568.04 L1345.19 1568.04 Q1338.41 1568.04 1335.83 1565.53 Q1333.26 1562.98 1333.26 1556.3 L1333.26 1536.95 L1328.96 1536.95 L1328.96 1532.4 L1333.26 1532.4 L1333.26 1522.27 L1339.15 1522.27 Z" fill="#000000" fill-rule="nonzero" fill-opacity="1" /><path clip-path="url(#clip550)" d="M1409.26 1546.53 L1409.26 1568.04 L1403.41 1568.04 L1403.41 1546.72 Q1403.41 1541.66 1401.43 1539.14 Q1399.46 1536.63 1395.51 1536.63 Q1390.77 1536.63 1388.03 1539.65 Q1385.3 1542.68 1385.3 1547.9 L1385.3 1568.04 L1379.41 1568.04 L1379.41 1532.4 L1385.3 1532.4 L1385.3 1537.93 Q1387.4 1534.72 1390.23 1533.13 Q1393.09 1531.54 1396.82 1531.54 Q1402.96 1531.54 1406.11 1535.36 Q1409.26 1539.14 1409.26 1546.53 Z" fill="#000000" fill-rule="nonzero" fill-opacity="1" /><path clip-path="url(#clip550)" d="M1451.44 1548.76 L1451.44 1551.62 L1424.51 1551.62 Q1424.89 1557.67 1428.14 1560.85 Q1431.42 1564 1437.24 1564 Q1440.61 1564 1443.77 1563.17 Q1446.95 1562.35 1450.07 1560.69 L1450.07 1566.23 Q1446.92 1567.57 1443.61 1568.27 Q1440.3 1568.97 1436.89 1568.97 Q1428.36 1568.97 1423.36 1564 Q1418.4 1559.04 1418.4 1550.57 Q1418.4 1541.82 1423.11 1536.69 Q1427.85 1531.54 1435.87 1531.54 Q1443.07 1531.54 1447.23 1536.18 Q1451.44 1540.8 1451.44 1548.76 M1445.58 1547.04 Q1445.52 1542.23 1442.87 1539.37 Q1440.26 1536.5 1435.94 1536.5 Q1431.03 1536.5 1428.07 1539.27 Q1425.15 1542.04 1424.7 1547.07 L1445.58 1547.04 Z" fill="#000000" fill-rule="nonzero" fill-opacity="1" /><path clip-path="url(#clip550)" d="M1460.44 1553.98 L1460.44 1532.4 L1466.3 1532.4 L1466.3 1553.75 Q1466.3 1558.81 1468.27 1561.36 Q1470.25 1563.87 1474.19 1563.87 Q1478.94 1563.87 1481.67 1560.85 Q1484.44 1557.83 1484.44 1552.61 L1484.44 1532.4 L1490.3 1532.4 L1490.3 1568.04 L1484.44 1568.04 L1484.44 1562.57 Q1482.31 1565.82 1479.48 1567.41 Q1476.68 1568.97 1472.95 1568.97 Q1466.81 1568.97 1463.63 1565.15 Q1460.44 1561.33 1460.44 1553.98 M1475.18 1531.54 L1475.18 1531.54 Z" fill="#000000" fill-rule="nonzero" fill-opacity="1" /><path clip-path="url(#clip550)" d="M1508.15 1522.27 L1508.15 1532.4 L1520.22 1532.4 L1520.22 1536.95 L1508.15 1536.95 L1508.15 1556.3 Q1508.15 1560.66 1509.33 1561.9 Q1510.54 1563.14 1514.2 1563.14 L1520.22 1563.14 L1520.22 1568.04 L1514.2 1568.04 Q1507.42 1568.04 1504.84 1565.53 Q1502.27 1562.98 1502.27 1556.3 L1502.27 1536.95 L1497.97 1536.95 L1497.97 1532.4 L1502.27 1532.4 L1502.27 1522.27 L1508.15 1522.27 Z" fill="#000000" fill-rule="nonzero" fill-opacity="1" /><path clip-path="url(#clip550)" d="M1548.58 1537.87 Q1547.59 1537.3 1546.41 1537.04 Q1545.27 1536.76 1543.87 1536.76 Q1538.9 1536.76 1536.23 1540 Q1533.59 1543.22 1533.59 1549.27 L1533.59 1568.04 L1527.7 1568.04 L1527.7 1532.4 L1533.59 1532.4 L1533.59 1537.93 Q1535.43 1534.69 1538.39 1533.13 Q1541.35 1531.54 1545.58 1531.54 Q1546.19 1531.54 1546.92 1531.63 Q1547.65 1531.7 1548.54 1531.85 L1548.58 1537.87 Z" fill="#000000" fill-rule="nonzero" fill-opacity="1" /><path clip-path="url(#clip550)" d="M1567.1 1536.5 Q1562.39 1536.5 1559.65 1540.19 Q1556.92 1543.85 1556.92 1550.25 Q1556.92 1556.65 1559.62 1560.34 Q1562.36 1564 1567.1 1564 Q1571.78 1564 1574.52 1560.31 Q1577.25 1556.62 1577.25 1550.25 Q1577.25 1543.92 1574.52 1540.23 Q1571.78 1536.5 1567.1 1536.5 M1567.1 1531.54 Q1574.74 1531.54 1579.1 1536.5 Q1583.46 1541.47 1583.46 1550.25 Q1583.46 1559 1579.1 1564 Q1574.74 1568.97 1567.1 1568.97 Q1559.43 1568.97 1555.07 1564 Q1550.74 1559 1550.74 1550.25 Q1550.74 1541.47 1555.07 1536.5 Q1559.43 1531.54 1567.1 1531.54 Z" fill="#000000" fill-rule="nonzero" fill-opacity="1" /><path clip-path="url(#clip550)" d="M1622.8 1546.53 L1622.8 1568.04 L1616.94 1568.04 L1616.94 1546.72 Q1616.94 1541.66 1614.97 1539.14 Q1613 1536.63 1609.05 1536.63 Q1604.31 1536.63 1601.57 1539.65 Q1598.83 1542.68 1598.83 1547.9 L1598.83 1568.04 L1592.95 1568.04 L1592.95 1532.4 L1598.83 1532.4 L1598.83 1537.93 Q1600.93 1534.72 1603.77 1533.13 Q1606.63 1531.54 1610.36 1531.54 Q1616.5 1531.54 1619.65 1535.36 Q1622.8 1539.14 1622.8 1546.53 Z" fill="#000000" fill-rule="nonzero" fill-opacity="1" /><path clip-path="url(#clip550)" d="M1669.27 1518.58 Q1665.01 1525.9 1662.94 1533.06 Q1660.87 1540.23 1660.87 1547.58 Q1660.87 1554.93 1662.94 1562.16 Q1665.04 1569.35 1669.27 1576.64 L1664.18 1576.64 Q1659.4 1569.16 1657.02 1561.93 Q1654.66 1554.71 1654.66 1547.58 Q1654.66 1540.48 1657.02 1533.29 Q1659.37 1526.09 1664.18 1518.58 L1669.27 1518.58 Z" fill="#000000" fill-rule="nonzero" fill-opacity="1" /><path clip-path="url(#clip550)" d="M1680.89 1520.52 L1690.47 1520.52 L1702.6 1552.86 L1714.79 1520.52 L1724.37 1520.52 L1724.37 1568.04 L1718.1 1568.04 L1718.1 1526.32 L1705.84 1558.91 L1699.38 1558.91 L1687.13 1526.32 L1687.13 1568.04 L1680.89 1568.04 L1680.89 1520.52 Z" fill="#000000" fill-rule="nonzero" fill-opacity="1" /><path clip-path="url(#clip550)" d="M1767.37 1548.76 L1767.37 1551.62 L1740.44 1551.62 Q1740.82 1557.67 1744.07 1560.85 Q1747.35 1564 1753.17 1564 Q1756.54 1564 1759.7 1563.17 Q1762.88 1562.35 1766 1560.69 L1766 1566.23 Q1762.85 1567.57 1759.54 1568.27 Q1756.23 1568.97 1752.82 1568.97 Q1744.29 1568.97 1739.29 1564 Q1734.33 1559.04 1734.33 1550.57 Q1734.33 1541.82 1739.04 1536.69 Q1743.78 1531.54 1751.8 1531.54 Q1759 1531.54 1763.16 1536.18 Q1767.37 1540.8 1767.37 1548.76 M1761.51 1547.04 Q1761.45 1542.23 1758.8 1539.37 Q1756.19 1536.5 1751.87 1536.5 Q1746.96 1536.5 1744 1539.27 Q1741.08 1542.04 1740.63 1547.07 L1761.51 1547.04 Z" fill="#000000" fill-rule="nonzero" fill-opacity="1" /><path clip-path="url(#clip550)" d="M1789.49 1568.04 L1771.34 1520.52 L1778.06 1520.52 L1793.12 1560.53 L1808.2 1520.52 L1814.89 1520.52 L1796.78 1568.04 L1789.49 1568.04 Z" fill="#000000" fill-rule="nonzero" fill-opacity="1" /><path clip-path="url(#clip550)" d="M1820.65 1518.58 L1825.74 1518.58 Q1830.51 1526.09 1832.87 1533.29 Q1835.26 1540.48 1835.26 1547.58 Q1835.26 1554.71 1832.87 1561.93 Q1830.51 1569.16 1825.74 1576.64 L1820.65 1576.64 Q1824.88 1569.35 1826.95 1562.16 Q1829.05 1554.93 1829.05 1547.58 Q1829.05 1540.23 1826.95 1533.06 Q1824.88 1525.9 1820.65 1518.58 Z" fill="#000000" fill-rule="nonzero" fill-opacity="1" /><polyline clip-path="url(#clip550)" style="stroke:#000000; stroke-linecap:round; stroke-linejoin:round; stroke-width:4; stroke-opacity:1; fill:none" points="247.459,1423.18 247.459,123.472 "/>
<polyline clip-path="url(#clip550)" style="stroke:#000000; stroke-linecap:round; stroke-linejoin:round; stroke-width:4; stroke-opacity:1; fill:none" points="247.459,1394.22 266.356,1394.22 "/>
<polyline clip-path="url(#clip550)" style="stroke:#000000; stroke-linecap:round; stroke-linejoin:round; stroke-width:4; stroke-opacity:1; fill:none" points="247.459,1136.42 266.356,1136.42 "/>
<polyline clip-path="url(#clip550)" style="stroke:#000000; stroke-linecap:round; stroke-linejoin:round; stroke-width:4; stroke-opacity:1; fill:none" points="247.459,878.632 266.356,878.632 "/>
<polyline clip-path="url(#clip550)" style="stroke:#000000; stroke-linecap:round; stroke-linejoin:round; stroke-width:4; stroke-opacity:1; fill:none" points="247.459,620.84 266.356,620.84 "/>
<polyline clip-path="url(#clip550)" style="stroke:#000000; stroke-linecap:round; stroke-linejoin:round; stroke-width:4; stroke-opacity:1; fill:none" points="247.459,363.047 266.356,363.047 "/>
<path clip-path="url(#clip550)" d="M154.283 1380.02 Q150.672 1380.02 148.843 1383.58 Q147.038 1387.12 147.038 1394.25 Q147.038 1401.36 148.843 1404.92 Q150.672 1408.46 154.283 1408.46 Q157.917 1408.46 159.723 1404.92 Q161.552 1401.36 161.552 1394.25 Q161.552 1387.12 159.723 1383.58 Q157.917 1380.02 154.283 1380.02 M154.283 1376.31 Q160.093 1376.31 163.149 1380.92 Q166.227 1385.5 166.227 1394.25 Q166.227 1402.98 163.149 1407.58 Q160.093 1412.17 154.283 1412.17 Q148.473 1412.17 145.394 1407.58 Q142.339 1402.98 142.339 1394.25 Q142.339 1385.5 145.394 1380.92 Q148.473 1376.31 154.283 1376.31 Z" fill="#000000" fill-rule="nonzero" fill-opacity="1" /><path clip-path="url(#clip550)" d="M174.445 1405.62 L179.329 1405.62 L179.329 1411.5 L174.445 1411.5 L174.445 1405.62 Z" fill="#000000" fill-rule="nonzero" fill-opacity="1" /><path clip-path="url(#clip550)" d="M199.514 1380.02 Q195.903 1380.02 194.075 1383.58 Q192.269 1387.12 192.269 1394.25 Q192.269 1401.36 194.075 1404.92 Q195.903 1408.46 199.514 1408.46 Q203.149 1408.46 204.954 1404.92 Q206.783 1401.36 206.783 1394.25 Q206.783 1387.12 204.954 1383.58 Q203.149 1380.02 199.514 1380.02 M199.514 1376.31 Q205.324 1376.31 208.38 1380.92 Q211.459 1385.5 211.459 1394.25 Q211.459 1402.98 208.38 1407.58 Q205.324 1412.17 199.514 1412.17 Q193.704 1412.17 190.625 1407.58 Q187.57 1402.98 187.57 1394.25 Q187.57 1385.5 190.625 1380.92 Q193.704 1376.31 199.514 1376.31 Z" fill="#000000" fill-rule="nonzero" fill-opacity="1" /><path clip-path="url(#clip550)" d="M149.306 1149.77 L165.626 1149.77 L165.626 1153.7 L143.681 1153.7 L143.681 1149.77 Q146.343 1147.01 150.927 1142.39 Q155.533 1137.73 156.714 1136.39 Q158.959 1133.87 159.839 1132.13 Q160.741 1130.37 160.741 1128.68 Q160.741 1125.93 158.797 1124.19 Q156.876 1122.45 153.774 1122.45 Q151.575 1122.45 149.121 1123.22 Q146.691 1123.98 143.913 1125.53 L143.913 1120.81 Q146.737 1119.68 149.191 1119.1 Q151.644 1118.52 153.681 1118.52 Q159.052 1118.52 162.246 1121.2 Q165.44 1123.89 165.44 1128.38 Q165.44 1130.51 164.63 1132.43 Q163.843 1134.33 161.737 1136.92 Q161.158 1137.59 158.056 1140.81 Q154.954 1144.01 149.306 1149.77 Z" fill="#000000" fill-rule="nonzero" fill-opacity="1" /><path clip-path="url(#clip550)" d="M175.44 1147.82 L180.325 1147.82 L180.325 1153.7 L175.44 1153.7 L175.44 1147.82 Z" fill="#000000" fill-rule="nonzero" fill-opacity="1" /><path clip-path="url(#clip550)" d="M190.556 1119.14 L208.912 1119.14 L208.912 1123.08 L194.838 1123.08 L194.838 1131.55 Q195.857 1131.2 196.875 1131.04 Q197.894 1130.86 198.912 1130.86 Q204.699 1130.86 208.079 1134.03 Q211.459 1137.2 211.459 1142.62 Q211.459 1148.2 207.987 1151.3 Q204.514 1154.38 198.195 1154.38 Q196.019 1154.38 193.75 1154.01 Q191.505 1153.64 189.098 1152.89 L189.098 1148.2 Q191.181 1149.33 193.403 1149.89 Q195.625 1150.44 198.102 1150.44 Q202.107 1150.44 204.445 1148.33 Q206.783 1146.23 206.783 1142.62 Q206.783 1139.01 204.445 1136.9 Q202.107 1134.79 198.102 1134.79 Q196.227 1134.79 194.352 1135.21 Q192.5 1135.63 190.556 1136.51 L190.556 1119.14 Z" fill="#000000" fill-rule="nonzero" fill-opacity="1" /><path clip-path="url(#clip550)" d="M144.329 861.352 L162.686 861.352 L162.686 865.287 L148.612 865.287 L148.612 873.759 Q149.63 873.412 150.649 873.25 Q151.667 873.065 152.686 873.065 Q158.473 873.065 161.852 876.236 Q165.232 879.408 165.232 884.824 Q165.232 890.403 161.76 893.505 Q158.288 896.583 151.968 896.583 Q149.792 896.583 147.524 896.213 Q145.279 895.843 142.871 895.102 L142.871 890.403 Q144.954 891.537 147.177 892.093 Q149.399 892.648 151.876 892.648 Q155.88 892.648 158.218 890.542 Q160.556 888.435 160.556 884.824 Q160.556 881.213 158.218 879.107 Q155.88 877 151.876 877 Q150.001 877 148.126 877.417 Q146.274 877.833 144.329 878.713 L144.329 861.352 Z" fill="#000000" fill-rule="nonzero" fill-opacity="1" /><path clip-path="url(#clip550)" d="M174.445 890.032 L179.329 890.032 L179.329 895.912 L174.445 895.912 L174.445 890.032 Z" fill="#000000" fill-rule="nonzero" fill-opacity="1" /><path clip-path="url(#clip550)" d="M199.514 864.431 Q195.903 864.431 194.075 867.996 Q192.269 871.537 192.269 878.667 Q192.269 885.773 194.075 889.338 Q195.903 892.88 199.514 892.88 Q203.149 892.88 204.954 889.338 Q206.783 885.773 206.783 878.667 Q206.783 871.537 204.954 867.996 Q203.149 864.431 199.514 864.431 M199.514 860.727 Q205.324 860.727 208.38 865.334 Q211.459 869.917 211.459 878.667 Q211.459 887.394 208.38 892 Q205.324 896.583 199.514 896.583 Q193.704 896.583 190.625 892 Q187.57 887.394 187.57 878.667 Q187.57 869.917 190.625 865.334 Q193.704 860.727 199.514 860.727 Z" fill="#000000" fill-rule="nonzero" fill-opacity="1" /><path clip-path="url(#clip550)" d="M144.098 603.56 L166.32 603.56 L166.32 605.55 L153.774 638.12 L148.89 638.12 L160.695 607.495 L144.098 607.495 L144.098 603.56 Z" fill="#000000" fill-rule="nonzero" fill-opacity="1" /><path clip-path="url(#clip550)" d="M175.44 632.24 L180.325 632.24 L180.325 638.12 L175.44 638.12 L175.44 632.24 Z" fill="#000000" fill-rule="nonzero" fill-opacity="1" /><path clip-path="url(#clip550)" d="M190.556 603.56 L208.912 603.56 L208.912 607.495 L194.838 607.495 L194.838 615.967 Q195.857 615.62 196.875 615.458 Q197.894 615.273 198.912 615.273 Q204.699 615.273 208.079 618.444 Q211.459 621.615 211.459 627.032 Q211.459 632.61 207.987 635.712 Q204.514 638.791 198.195 638.791 Q196.019 638.791 193.75 638.421 Q191.505 638.05 189.098 637.31 L189.098 632.61 Q191.181 633.745 193.403 634.3 Q195.625 634.856 198.102 634.856 Q202.107 634.856 204.445 632.749 Q206.783 630.643 206.783 627.032 Q206.783 623.421 204.445 621.314 Q202.107 619.208 198.102 619.208 Q196.227 619.208 194.352 619.624 Q192.5 620.041 190.556 620.921 L190.556 603.56 Z" fill="#000000" fill-rule="nonzero" fill-opacity="1" /><path clip-path="url(#clip550)" d="M114.931 376.392 L122.57 376.392 L122.57 350.027 L114.26 351.693 L114.26 347.434 L122.524 345.767 L127.2 345.767 L127.2 376.392 L134.839 376.392 L134.839 380.327 L114.931 380.327 L114.931 376.392 Z" fill="#000000" fill-rule="nonzero" fill-opacity="1" /><path clip-path="url(#clip550)" d="M154.283 348.846 Q150.672 348.846 148.843 352.411 Q147.038 355.952 147.038 363.082 Q147.038 370.188 148.843 373.753 Q150.672 377.295 154.283 377.295 Q157.917 377.295 159.723 373.753 Q161.552 370.188 161.552 363.082 Q161.552 355.952 159.723 352.411 Q157.917 348.846 154.283 348.846 M154.283 345.142 Q160.093 345.142 163.149 349.749 Q166.227 354.332 166.227 363.082 Q166.227 371.809 163.149 376.415 Q160.093 380.999 154.283 380.999 Q148.473 380.999 145.394 376.415 Q142.339 371.809 142.339 363.082 Q142.339 354.332 145.394 349.749 Q148.473 345.142 154.283 345.142 Z" fill="#000000" fill-rule="nonzero" fill-opacity="1" /><path clip-path="url(#clip550)" d="M174.445 374.448 L179.329 374.448 L179.329 380.327 L174.445 380.327 L174.445 374.448 Z" fill="#000000" fill-rule="nonzero" fill-opacity="1" /><path clip-path="url(#clip550)" d="M199.514 348.846 Q195.903 348.846 194.075 352.411 Q192.269 355.952 192.269 363.082 Q192.269 370.188 194.075 373.753 Q195.903 377.295 199.514 377.295 Q203.149 377.295 204.954 373.753 Q206.783 370.188 206.783 363.082 Q206.783 355.952 204.954 352.411 Q203.149 348.846 199.514 348.846 M199.514 345.142 Q205.324 345.142 208.38 349.749 Q211.459 354.332 211.459 363.082 Q211.459 371.809 208.38 376.415 Q205.324 380.999 199.514 380.999 Q193.704 380.999 190.625 376.415 Q187.57 371.809 187.57 363.082 Q187.57 354.332 190.625 349.749 Q193.704 345.142 199.514 345.142 Z" fill="#000000" fill-rule="nonzero" fill-opacity="1" /><path clip-path="url(#clip550)" d="M16.4842 1145.77 L16.4842 1115.72 L21.895 1115.72 L21.895 1139.34 L35.9632 1139.34 L35.9632 1116.71 L41.3741 1116.71 L41.3741 1139.34 L58.5933 1139.34 L58.5933 1115.15 L64.0042 1115.15 L64.0042 1145.77 L16.4842 1145.77 Z" fill="#000000" fill-rule="nonzero" fill-opacity="1" /><path clip-path="url(#clip550)" d="M42.4881 1075.2 L64.0042 1075.2 L64.0042 1081.06 L42.679 1081.06 Q37.6183 1081.06 35.1038 1083.03 Q32.5894 1085.01 32.5894 1088.95 Q32.5894 1093.7 35.6131 1096.43 Q38.6368 1099.17 43.8567 1099.17 L64.0042 1099.17 L64.0042 1105.06 L28.3562 1105.06 L28.3562 1099.17 L33.8944 1099.17 Q30.6797 1097.07 29.0883 1094.24 Q27.4968 1091.37 27.4968 1087.65 Q27.4968 1081.51 31.3163 1078.35 Q35.1038 1075.2 42.4881 1075.2 Z" fill="#000000" fill-rule="nonzero" fill-opacity="1" /><path clip-path="url(#clip550)" d="M44.7161 1033.03 L47.5806 1033.03 L47.5806 1059.96 Q53.6281 1059.58 56.8109 1056.33 Q59.9619 1053.05 59.9619 1047.23 Q59.9619 1043.85 59.1344 1040.7 Q58.3069 1037.52 56.6518 1034.4 L62.1899 1034.4 Q63.5267 1037.55 64.227 1040.86 Q64.9272 1044.17 64.9272 1047.58 Q64.9272 1056.11 59.9619 1061.1 Q54.9967 1066.07 46.5303 1066.07 Q37.7774 1066.07 32.6531 1061.36 Q27.4968 1056.62 27.4968 1048.6 Q27.4968 1041.4 32.1438 1037.23 Q36.7589 1033.03 44.7161 1033.03 M42.9973 1038.89 Q38.1912 1038.95 35.3266 1041.59 Q32.4621 1044.2 32.4621 1048.53 Q32.4621 1053.43 35.2312 1056.39 Q38.0002 1059.32 43.0292 1059.77 L42.9973 1038.89 Z" fill="#000000" fill-rule="nonzero" fill-opacity="1" /><path clip-path="url(#clip550)" d="M33.8307 1002.76 Q33.2578 1003.75 33.0032 1004.93 Q32.7167 1006.07 32.7167 1007.47 Q32.7167 1012.44 35.9632 1015.11 Q39.1779 1017.75 45.2253 1017.75 L64.0042 1017.75 L64.0042 1023.64 L28.3562 1023.64 L28.3562 1017.75 L33.8944 1017.75 Q30.6479 1015.91 29.0883 1012.95 Q27.4968 1009.99 27.4968 1005.75 Q27.4968 1005.15 27.5923 1004.42 Q27.656 1003.68 27.8151 1002.79 L33.8307 1002.76 Z" fill="#000000" fill-rule="nonzero" fill-opacity="1" /><path clip-path="url(#clip550)" d="M45.7664 974.307 Q39.4007 974.307 35.8996 976.949 Q32.3984 979.559 32.3984 984.301 Q32.3984 989.012 35.8996 991.654 Q39.4007 994.264 45.7664 994.264 Q52.1003 994.264 55.6014 991.654 Q59.1026 989.012 59.1026 984.301 Q59.1026 979.559 55.6014 976.949 Q52.1003 974.307 45.7664 974.307 M59.58 968.451 Q68.683 968.451 73.1071 972.493 Q77.5631 976.535 77.5631 984.874 Q77.5631 987.962 77.0857 990.699 Q76.6401 993.436 75.6852 996.014 L69.9879 996.014 Q71.3884 993.436 72.0568 990.922 Q72.7252 988.407 72.7252 985.797 Q72.7252 980.036 69.7015 977.172 Q66.7096 974.307 60.6303 974.307 L57.7339 974.307 Q60.885 976.121 62.4446 978.954 Q64.0042 981.787 64.0042 985.734 Q64.0042 992.29 59.0071 996.301 Q54.01 1000.31 45.7664 1000.31 Q37.491 1000.31 32.4939 996.301 Q27.4968 992.29 27.4968 985.734 Q27.4968 981.787 29.0564 978.954 Q30.616 976.121 33.7671 974.307 L28.3562 974.307 L28.3562 968.451 L59.58 968.451 Z" fill="#000000" fill-rule="nonzero" fill-opacity="1" /><path clip-path="url(#clip550)" d="M67.3143 941.556 Q73.68 944.038 75.6216 946.394 Q77.5631 948.749 77.5631 952.696 L77.5631 957.374 L72.6615 957.374 L72.6615 953.937 Q72.6615 951.518 71.5157 950.181 Q70.3699 948.844 66.1048 947.221 L63.4312 946.171 L28.3562 960.589 L28.3562 954.383 L56.238 943.243 L28.3562 932.103 L28.3562 925.896 L67.3143 941.556 Z" fill="#000000" fill-rule="nonzero" fill-opacity="1" /><path clip-path="url(#clip550)" d="M49.9359 897.696 L28.3562 897.696 L28.3562 891.84 L49.7131 891.84 Q54.7739 891.84 57.3202 889.866 Q59.8346 887.893 59.8346 883.946 Q59.8346 879.204 56.8109 876.466 Q53.7872 873.697 48.5673 873.697 L28.3562 873.697 L28.3562 867.841 L64.0042 867.841 L64.0042 873.697 L58.5296 873.697 Q61.7762 875.83 63.3676 878.663 Q64.9272 881.463 64.9272 885.187 Q64.9272 891.33 61.1078 894.513 Q57.2883 897.696 49.9359 897.696 M27.4968 882.959 L27.4968 882.959 Z" fill="#000000" fill-rule="nonzero" fill-opacity="1" /><path clip-path="url(#clip550)" d="M42.4881 826.145 L64.0042 826.145 L64.0042 832.002 L42.679 832.002 Q37.6183 832.002 35.1038 833.975 Q32.5894 835.949 32.5894 839.895 Q32.5894 844.638 35.6131 847.375 Q38.6368 850.112 43.8567 850.112 L64.0042 850.112 L64.0042 856.001 L28.3562 856.001 L28.3562 850.112 L33.8944 850.112 Q30.6797 848.012 29.0883 845.179 Q27.4968 842.314 27.4968 838.59 Q27.4968 832.447 31.3163 829.296 Q35.1038 826.145 42.4881 826.145 Z" fill="#000000" fill-rule="nonzero" fill-opacity="1" /><path clip-path="url(#clip550)" d="M29.7248 788.811 L35.1993 788.811 Q33.8307 791.293 33.1623 793.808 Q32.4621 796.29 32.4621 798.837 Q32.4621 804.534 36.0905 807.685 Q39.6872 810.836 46.212 810.836 Q52.7369 810.836 56.3653 807.685 Q59.9619 804.534 59.9619 798.837 Q59.9619 796.29 59.2935 793.808 Q58.5933 791.293 57.2247 788.811 L62.6355 788.811 Q63.7814 791.261 64.3543 793.903 Q64.9272 796.513 64.9272 799.473 Q64.9272 807.526 59.8664 812.268 Q54.8057 817.011 46.212 817.011 Q37.491 817.011 32.4939 812.236 Q27.4968 807.43 27.4968 799.091 Q27.4968 796.386 28.0697 793.808 Q28.6108 791.23 29.7248 788.811 Z" fill="#000000" fill-rule="nonzero" fill-opacity="1" /><path clip-path="url(#clip550)" d="M44.7161 748.134 L47.5806 748.134 L47.5806 775.061 Q53.6281 774.679 56.8109 771.432 Q59.9619 768.154 59.9619 762.329 Q59.9619 758.955 59.1344 755.804 Q58.3069 752.622 56.6518 749.502 L62.1899 749.502 Q63.5267 752.653 64.227 755.964 Q64.9272 759.274 64.9272 762.679 Q64.9272 771.209 59.9619 776.206 Q54.9967 781.172 46.5303 781.172 Q37.7774 781.172 32.6531 776.461 Q27.4968 771.719 27.4968 763.698 Q27.4968 756.505 32.1438 752.335 Q36.7589 748.134 44.7161 748.134 M42.9973 753.99 Q38.1912 754.054 35.3266 756.696 Q32.4621 759.306 32.4621 763.634 Q32.4621 768.536 35.2312 771.496 Q38.0002 774.424 43.0292 774.87 L42.9973 753.99 Z" fill="#000000" fill-rule="nonzero" fill-opacity="1" /><path clip-path="url(#clip550)" d="M33.8307 717.865 Q33.2578 718.851 33.0032 720.029 Q32.7167 721.175 32.7167 722.575 Q32.7167 727.541 35.9632 730.214 Q39.1779 732.856 45.2253 732.856 L64.0042 732.856 L64.0042 738.744 L28.3562 738.744 L28.3562 732.856 L33.8944 732.856 Q30.6479 731.01 29.0883 728.05 Q27.4968 725.09 27.4968 720.857 Q27.4968 720.252 27.5923 719.52 Q27.656 718.788 27.8151 717.897 L33.8307 717.865 Z" fill="#000000" fill-rule="nonzero" fill-opacity="1" /><path clip-path="url(#clip550)" d="M18.2347 705.929 L28.3562 705.929 L28.3562 693.866 L32.9077 693.866 L32.9077 705.929 L52.2594 705.929 Q56.6199 705.929 57.8613 704.751 Q59.1026 703.542 59.1026 699.882 L59.1026 693.866 L64.0042 693.866 L64.0042 699.882 Q64.0042 706.661 61.4897 709.239 Q58.9434 711.817 52.2594 711.817 L32.9077 711.817 L32.9077 716.114 L28.3562 716.114 L28.3562 711.817 L18.2347 711.817 L18.2347 705.929 Z" fill="#000000" fill-rule="nonzero" fill-opacity="1" /><path clip-path="url(#clip550)" d="M46.0847 669.963 Q46.0847 677.061 47.7079 679.798 Q49.3312 682.535 53.2461 682.535 Q56.3653 682.535 58.2114 680.498 Q60.0256 678.429 60.0256 674.896 Q60.0256 670.026 56.5881 667.098 Q53.1188 664.138 47.3897 664.138 L46.0847 664.138 L46.0847 669.963 M43.6657 658.282 L64.0042 658.282 L64.0042 664.138 L58.5933 664.138 Q61.8398 666.143 63.3994 669.135 Q64.9272 672.127 64.9272 676.456 Q64.9272 681.93 61.8716 685.177 Q58.7843 688.392 53.6281 688.392 Q47.6125 688.392 44.5569 684.381 Q41.5014 680.339 41.5014 672.35 L41.5014 664.138 L40.9285 664.138 Q36.8862 664.138 34.6901 666.812 Q32.4621 669.454 32.4621 674.26 Q32.4621 677.315 33.1941 680.212 Q33.9262 683.108 35.3903 685.782 L29.9795 685.782 Q28.7381 682.567 28.1334 679.543 Q27.4968 676.52 27.4968 673.655 Q27.4968 665.921 31.5072 662.101 Q35.5176 658.282 43.6657 658.282 Z" fill="#000000" fill-rule="nonzero" fill-opacity="1" /><path clip-path="url(#clip550)" d="M28.3562 646.219 L28.3562 640.362 L64.0042 640.362 L64.0042 646.219 L28.3562 646.219 M14.479 646.219 L14.479 640.362 L21.895 640.362 L21.895 646.219 L14.479 646.219 Z" fill="#000000" fill-rule="nonzero" fill-opacity="1" /><path clip-path="url(#clip550)" d="M42.4881 598.476 L64.0042 598.476 L64.0042 604.332 L42.679 604.332 Q37.6183 604.332 35.1038 606.306 Q32.5894 608.279 32.5894 612.226 Q32.5894 616.968 35.6131 619.706 Q38.6368 622.443 43.8567 622.443 L64.0042 622.443 L64.0042 628.331 L28.3562 628.331 L28.3562 622.443 L33.8944 622.443 Q30.6797 620.342 29.0883 617.509 Q27.4968 614.645 27.4968 610.921 Q27.4968 604.778 31.3163 601.627 Q35.1038 598.476 42.4881 598.476 Z" fill="#000000" fill-rule="nonzero" fill-opacity="1" /><path clip-path="url(#clip550)" d="M18.2347 581.002 L28.3562 581.002 L28.3562 568.939 L32.9077 568.939 L32.9077 581.002 L52.2594 581.002 Q56.6199 581.002 57.8613 579.824 Q59.1026 578.615 59.1026 574.955 L59.1026 568.939 L64.0042 568.939 L64.0042 574.955 Q64.0042 581.734 61.4897 584.312 Q58.9434 586.89 52.2594 586.89 L32.9077 586.89 L32.9077 591.187 L28.3562 591.187 L28.3562 586.89 L18.2347 586.89 L18.2347 581.002 Z" fill="#000000" fill-rule="nonzero" fill-opacity="1" /><path clip-path="url(#clip550)" d="M67.3143 546.404 Q73.68 548.887 75.6216 551.242 Q77.5631 553.598 77.5631 557.544 L77.5631 562.223 L72.6615 562.223 L72.6615 558.786 Q72.6615 556.367 71.5157 555.03 Q70.3699 553.693 66.1048 552.07 L63.4312 551.02 L28.3562 565.438 L28.3562 559.231 L56.238 548.091 L28.3562 536.951 L28.3562 530.745 L67.3143 546.404 Z" fill="#000000" fill-rule="nonzero" fill-opacity="1" /><path clip-path="url(#clip550)" d="M14.5426 487.872 Q21.8632 492.137 29.0246 494.206 Q36.186 496.275 43.5384 496.275 Q50.8908 496.275 58.1159 494.206 Q65.3091 492.105 72.5979 487.872 L72.5979 492.964 Q65.1182 497.739 57.8931 500.126 Q50.668 502.481 43.5384 502.481 Q36.4406 502.481 29.2474 500.126 Q22.0542 497.77 14.5426 492.964 L14.5426 487.872 Z" fill="#000000" fill-rule="nonzero" fill-opacity="1" /><path clip-path="url(#clip550)" d="M43.0928 435.259 Q43.0928 438.028 45.4481 439.62 Q47.8034 441.179 52.0048 441.179 Q56.1425 441.179 58.5296 439.62 Q60.885 438.028 60.885 435.259 Q60.885 432.554 58.5296 430.994 Q56.1425 429.403 52.0048 429.403 Q47.8353 429.403 45.48 430.994 Q43.0928 432.554 43.0928 435.259 M39.0506 435.259 Q39.0506 430.23 42.5517 427.27 Q46.0529 424.31 52.0048 424.31 Q57.9567 424.31 61.4579 427.302 Q64.9272 430.262 64.9272 435.259 Q64.9272 440.352 61.4579 443.312 Q57.9567 446.272 52.0048 446.272 Q46.021 446.272 42.5517 443.312 Q39.0506 440.32 39.0506 435.259 M19.667 468.106 Q19.667 470.844 22.0542 472.435 Q24.4095 473.995 28.5472 473.995 Q32.7485 473.995 35.1038 472.435 Q37.4592 470.875 37.4592 468.106 Q37.4592 465.337 35.1038 463.778 Q32.7485 462.186 28.5472 462.186 Q24.4413 462.186 22.0542 463.778 Q19.667 465.369 19.667 468.106 M15.6248 439.365 L15.6248 434.273 L64.9272 464 L64.9272 469.093 L15.6248 439.365 M15.6248 468.106 Q15.6248 463.077 19.1259 460.085 Q22.5952 457.094 28.5472 457.094 Q34.5628 457.094 38.0321 460.085 Q41.5014 463.046 41.5014 468.106 Q41.5014 473.167 38.0321 476.127 Q34.5309 479.055 28.5472 479.055 Q22.6271 479.055 19.1259 476.095 Q15.6248 473.135 15.6248 468.106 Z" fill="#000000" fill-rule="nonzero" fill-opacity="1" /><path clip-path="url(#clip550)" d="M14.5426 415.494 L14.5426 410.401 Q22.0542 405.627 29.2474 403.272 Q36.4406 400.884 43.5384 400.884 Q50.668 400.884 57.8931 403.272 Q65.1182 405.627 72.5979 410.401 L72.5979 415.494 Q65.3091 411.261 58.1159 409.192 Q50.8908 407.091 43.5384 407.091 Q36.186 407.091 29.0246 409.192 Q21.8632 411.261 14.5426 415.494 Z" fill="#000000" fill-rule="nonzero" fill-opacity="1" /><path clip-path="url(#clip550)" d="M615.565 12.096 L623.789 12.096 L623.789 48.8377 Q623.789 58.5599 627.313 62.8538 Q630.837 67.1073 638.736 67.1073 Q646.595 67.1073 650.119 62.8538 Q653.644 58.5599 653.644 48.8377 L653.644 12.096 L661.867 12.096 L661.867 49.8504 Q661.867 61.6791 655.993 67.7149 Q650.16 73.7508 638.736 73.7508 Q627.272 73.7508 621.399 67.7149 Q615.565 61.6791 615.565 49.8504 L615.565 12.096 Z" fill="#000000" fill-rule="nonzero" fill-opacity="1" /><path clip-path="url(#clip550)" d="M714.61 45.1919 L714.61 72.576 L707.156 72.576 L707.156 45.4349 Q707.156 38.994 704.645 35.7938 Q702.133 32.5936 697.11 32.5936 Q691.074 32.5936 687.59 36.4419 Q684.107 40.2903 684.107 46.9338 L684.107 72.576 L676.612 72.576 L676.612 27.2059 L684.107 27.2059 L684.107 34.2544 Q686.78 30.163 690.385 28.1376 Q694.031 26.1121 698.771 26.1121 Q706.589 26.1121 710.599 30.9732 Q714.61 35.7938 714.61 45.1919 Z" fill="#000000" fill-rule="nonzero" fill-opacity="1" /><path clip-path="url(#clip550)" d="M762.127 28.9478 L762.127 35.9153 Q758.967 34.1734 755.767 33.3227 Q752.607 32.4315 749.367 32.4315 Q742.116 32.4315 738.105 37.0496 Q734.095 41.6271 734.095 49.9314 Q734.095 58.2358 738.105 62.8538 Q742.116 67.4314 749.367 67.4314 Q752.607 67.4314 755.767 66.5807 Q758.967 65.6895 762.127 63.9476 L762.127 70.8341 Q759.008 72.2924 755.646 73.0216 Q752.324 73.7508 748.556 73.7508 Q738.308 73.7508 732.272 67.3098 Q726.236 60.8689 726.236 49.9314 Q726.236 38.832 732.312 32.472 Q738.429 26.1121 749.043 26.1121 Q752.486 26.1121 755.767 26.8413 Q759.048 27.5299 762.127 28.9478 Z" fill="#000000" fill-rule="nonzero" fill-opacity="1" /><path clip-path="url(#clip550)" d="M813.898 48.0275 L813.898 51.6733 L779.627 51.6733 Q780.113 59.3701 784.245 63.421 Q788.417 67.4314 795.83 67.4314 Q800.124 67.4314 804.135 66.3781 Q808.186 65.3249 812.156 63.2184 L812.156 70.267 Q808.145 71.9684 803.932 72.8596 Q799.719 73.7508 795.385 73.7508 Q784.528 73.7508 778.169 67.4314 Q771.849 61.1119 771.849 50.3365 Q771.849 39.1965 777.844 32.6746 Q783.88 26.1121 794.089 26.1121 Q803.244 26.1121 808.55 32.0264 Q813.898 37.9003 813.898 48.0275 M806.444 45.84 Q806.363 39.7232 803.001 36.0774 Q799.679 32.4315 794.17 32.4315 Q787.931 32.4315 784.164 35.9558 Q780.437 39.4801 779.87 45.8805 L806.444 45.84 Z" fill="#000000" fill-rule="nonzero" fill-opacity="1" /><path clip-path="url(#clip550)" d="M852.422 34.1734 Q851.166 33.4443 849.667 33.1202 Q848.209 32.7556 846.426 32.7556 Q840.107 32.7556 836.704 36.8875 Q833.342 40.9789 833.342 48.6757 L833.342 72.576 L825.848 72.576 L825.848 27.2059 L833.342 27.2059 L833.342 34.2544 Q835.691 30.1225 839.459 28.1376 Q843.226 26.1121 848.614 26.1121 Q849.383 26.1121 850.315 26.2337 Q851.247 26.3147 852.381 26.5172 L852.422 34.1734 Z" fill="#000000" fill-rule="nonzero" fill-opacity="1" /><path clip-path="url(#clip550)" d="M867.613 14.324 L867.613 27.2059 L882.965 27.2059 L882.965 32.9987 L867.613 32.9987 L867.613 57.6282 Q867.613 63.1779 869.111 64.7578 Q870.651 66.3376 875.309 66.3376 L882.965 66.3376 L882.965 72.576 L875.309 72.576 Q866.681 72.576 863.4 69.3758 Q860.118 66.1351 860.118 57.6282 L860.118 32.9987 L854.65 32.9987 L854.65 27.2059 L860.118 27.2059 L860.118 14.324 L867.613 14.324 Z" fill="#000000" fill-rule="nonzero" fill-opacity="1" /><path clip-path="url(#clip550)" d="M913.388 49.7694 Q904.354 49.7694 900.87 51.8354 Q897.387 53.9013 897.387 58.8839 Q897.387 62.8538 899.979 65.2034 Q902.612 67.5124 907.109 67.5124 Q913.307 67.5124 917.034 63.1374 Q920.801 58.7219 920.801 51.4303 L920.801 49.7694 L913.388 49.7694 M928.255 46.6907 L928.255 72.576 L920.801 72.576 L920.801 65.6895 Q918.249 69.8214 914.441 71.8063 Q910.633 73.7508 905.124 73.7508 Q898.156 73.7508 894.024 69.8619 Q889.933 65.9325 889.933 59.3701 Q889.933 51.7138 895.037 47.825 Q900.182 43.9361 910.35 43.9361 L920.801 43.9361 L920.801 43.2069 Q920.801 38.0623 917.398 35.2672 Q914.036 32.4315 907.919 32.4315 Q904.03 32.4315 900.344 33.3632 Q896.658 34.295 893.255 36.1584 L893.255 29.2718 Q897.346 27.692 901.195 26.9223 Q905.043 26.1121 908.689 26.1121 Q918.532 26.1121 923.393 31.2163 Q928.255 36.3204 928.255 46.6907 Z" fill="#000000" fill-rule="nonzero" fill-opacity="1" /><path clip-path="url(#clip550)" d="M943.607 27.2059 L951.061 27.2059 L951.061 72.576 L943.607 72.576 L943.607 27.2059 M943.607 9.54393 L951.061 9.54393 L951.061 18.9825 L943.607 18.9825 L943.607 9.54393 Z" fill="#000000" fill-rule="nonzero" fill-opacity="1" /><path clip-path="url(#clip550)" d="M1004.37 45.1919 L1004.37 72.576 L996.917 72.576 L996.917 45.4349 Q996.917 38.994 994.406 35.7938 Q991.894 32.5936 986.871 32.5936 Q980.835 32.5936 977.352 36.4419 Q973.868 40.2903 973.868 46.9338 L973.868 72.576 L966.374 72.576 L966.374 27.2059 L973.868 27.2059 L973.868 34.2544 Q976.541 30.163 980.147 28.1376 Q983.792 26.1121 988.532 26.1121 Q996.35 26.1121 1000.36 30.9732 Q1004.37 35.7938 1004.37 45.1919 Z" fill="#000000" fill-rule="nonzero" fill-opacity="1" /><path clip-path="url(#clip550)" d="M1026.61 14.324 L1026.61 27.2059 L1041.96 27.2059 L1041.96 32.9987 L1026.61 32.9987 L1026.61 57.6282 Q1026.61 63.1779 1028.11 64.7578 Q1029.65 66.3376 1034.31 66.3376 L1041.96 66.3376 L1041.96 72.576 L1034.31 72.576 Q1025.68 72.576 1022.4 69.3758 Q1019.12 66.1351 1019.12 57.6282 L1019.12 32.9987 L1013.65 32.9987 L1013.65 27.2059 L1019.12 27.2059 L1019.12 14.324 L1026.61 14.324 Z" fill="#000000" fill-rule="nonzero" fill-opacity="1" /><path clip-path="url(#clip550)" d="M1070.64 76.7889 Q1067.48 84.8907 1064.49 87.3618 Q1061.49 89.8329 1056.47 89.8329 L1050.51 89.8329 L1050.51 83.5945 L1054.89 83.5945 Q1057.96 83.5945 1059.67 82.1361 Q1061.37 80.6778 1063.43 75.2496 L1064.77 71.8468 L1046.42 27.2059 L1054.32 27.2059 L1068.5 62.6918 L1082.68 27.2059 L1090.57 27.2059 L1070.64 76.7889 Z" fill="#000000" fill-rule="nonzero" fill-opacity="1" /><path clip-path="url(#clip550)" d="M1144.82 32.4315 Q1138.82 32.4315 1135.34 37.1306 Q1131.85 41.7891 1131.85 49.9314 Q1131.85 58.0738 1135.3 62.7728 Q1138.78 67.4314 1144.82 67.4314 Q1150.77 67.4314 1154.25 62.7323 Q1157.74 58.0333 1157.74 49.9314 Q1157.74 41.8701 1154.25 37.1711 Q1150.77 32.4315 1144.82 32.4315 M1144.82 26.1121 Q1154.54 26.1121 1160.09 32.4315 Q1165.64 38.7509 1165.64 49.9314 Q1165.64 61.0714 1160.09 67.4314 Q1154.54 73.7508 1144.82 73.7508 Q1135.05 73.7508 1129.5 67.4314 Q1123.99 61.0714 1123.99 49.9314 Q1123.99 38.7509 1129.5 32.4315 Q1135.05 26.1121 1144.82 26.1121 Z" fill="#000000" fill-rule="nonzero" fill-opacity="1" /><path clip-path="url(#clip550)" d="M1200.96 9.54393 L1200.96 15.7418 L1193.83 15.7418 Q1189.82 15.7418 1188.24 17.3622 Q1186.7 18.9825 1186.7 23.1955 L1186.7 27.2059 L1198.98 27.2059 L1198.98 32.9987 L1186.7 32.9987 L1186.7 72.576 L1179.21 72.576 L1179.21 32.9987 L1172.08 32.9987 L1172.08 27.2059 L1179.21 27.2059 L1179.21 24.0462 Q1179.21 16.471 1182.73 13.0277 Q1186.26 9.54393 1193.91 9.54393 L1200.96 9.54393 Z" fill="#000000" fill-rule="nonzero" fill-opacity="1" /><path clip-path="url(#clip550)" d="M1272.38 48.0275 L1272.38 51.6733 L1238.11 51.6733 Q1238.59 59.3701 1242.73 63.421 Q1246.9 67.4314 1254.31 67.4314 Q1258.61 67.4314 1262.62 66.3781 Q1266.67 65.3249 1270.64 63.2184 L1270.64 70.267 Q1266.63 71.9684 1262.41 72.8596 Q1258.2 73.7508 1253.87 73.7508 Q1243.01 73.7508 1236.65 67.4314 Q1230.33 61.1119 1230.33 50.3365 Q1230.33 39.1965 1236.33 32.6746 Q1242.36 26.1121 1252.57 26.1121 Q1261.72 26.1121 1267.03 32.0264 Q1272.38 37.9003 1272.38 48.0275 M1264.93 45.84 Q1264.84 39.7232 1261.48 36.0774 Q1258.16 32.4315 1252.65 32.4315 Q1246.41 32.4315 1242.65 35.9558 Q1238.92 39.4801 1238.35 45.8805 L1264.93 45.84 Z" fill="#000000" fill-rule="nonzero" fill-opacity="1" /><path clip-path="url(#clip550)" d="M1322.33 45.1919 L1322.33 72.576 L1314.87 72.576 L1314.87 45.4349 Q1314.87 38.994 1312.36 35.7938 Q1309.85 32.5936 1304.83 32.5936 Q1298.79 32.5936 1295.31 36.4419 Q1291.82 40.2903 1291.82 46.9338 L1291.82 72.576 L1284.33 72.576 L1284.33 27.2059 L1291.82 27.2059 L1291.82 34.2544 Q1294.5 30.163 1298.1 28.1376 Q1301.75 26.1121 1306.49 26.1121 Q1314.31 26.1121 1318.32 30.9732 Q1322.33 35.7938 1322.33 45.1919 Z" fill="#000000" fill-rule="nonzero" fill-opacity="1" /><path clip-path="url(#clip550)" d="M1376 48.0275 L1376 51.6733 L1341.73 51.6733 Q1342.22 59.3701 1346.35 63.421 Q1350.52 67.4314 1357.93 67.4314 Q1362.23 67.4314 1366.24 66.3781 Q1370.29 65.3249 1374.26 63.2184 L1374.26 70.267 Q1370.25 71.9684 1366.04 72.8596 Q1361.82 73.7508 1357.49 73.7508 Q1346.63 73.7508 1340.27 67.4314 Q1333.95 61.1119 1333.95 50.3365 Q1333.95 39.1965 1339.95 32.6746 Q1345.98 26.1121 1356.19 26.1121 Q1365.35 26.1121 1370.65 32.0264 Q1376 37.9003 1376 48.0275 M1368.55 45.84 Q1368.47 39.7232 1365.1 36.0774 Q1361.78 32.4315 1356.27 32.4315 Q1350.03 32.4315 1346.27 35.9558 Q1342.54 39.4801 1341.97 45.8805 L1368.55 45.84 Z" fill="#000000" fill-rule="nonzero" fill-opacity="1" /><path clip-path="url(#clip550)" d="M1414.53 34.1734 Q1413.27 33.4443 1411.77 33.1202 Q1410.31 32.7556 1408.53 32.7556 Q1402.21 32.7556 1398.81 36.8875 Q1395.45 40.9789 1395.45 48.6757 L1395.45 72.576 L1387.95 72.576 L1387.95 27.2059 L1395.45 27.2059 L1395.45 34.2544 Q1397.79 30.1225 1401.56 28.1376 Q1405.33 26.1121 1410.72 26.1121 Q1411.49 26.1121 1412.42 26.2337 Q1413.35 26.3147 1414.48 26.5172 L1414.53 34.1734 Z" fill="#000000" fill-rule="nonzero" fill-opacity="1" /><path clip-path="url(#clip550)" d="M1450.74 49.3643 Q1450.74 41.2625 1447.38 36.8065 Q1444.06 32.3505 1438.02 32.3505 Q1432.03 32.3505 1428.66 36.8065 Q1425.34 41.2625 1425.34 49.3643 Q1425.34 57.4256 1428.66 61.8816 Q1432.03 66.3376 1438.02 66.3376 Q1444.06 66.3376 1447.38 61.8816 Q1450.74 57.4256 1450.74 49.3643 M1458.19 66.9452 Q1458.19 78.5308 1453.05 84.1616 Q1447.9 89.8329 1437.29 89.8329 Q1433.36 89.8329 1429.88 89.2252 Q1426.39 88.6581 1423.11 87.4428 L1423.11 80.1917 Q1426.39 81.9741 1429.59 82.8248 Q1432.79 83.6755 1436.12 83.6755 Q1443.45 83.6755 1447.09 79.8271 Q1450.74 76.0193 1450.74 68.282 L1450.74 64.5957 Q1448.43 68.6061 1444.83 70.5911 Q1441.22 72.576 1436.2 72.576 Q1427.85 72.576 1422.75 66.2161 Q1417.64 59.8562 1417.64 49.3643 Q1417.64 38.832 1422.75 32.472 Q1427.85 26.1121 1436.2 26.1121 Q1441.22 26.1121 1444.83 28.0971 Q1448.43 30.082 1450.74 34.0924 L1450.74 27.2059 L1458.19 27.2059 L1458.19 66.9452 Z" fill="#000000" fill-rule="nonzero" fill-opacity="1" /><path clip-path="url(#clip550)" d="M1492.42 76.7889 Q1489.26 84.8907 1486.27 87.3618 Q1483.27 89.8329 1478.25 89.8329 L1472.29 89.8329 L1472.29 83.5945 L1476.67 83.5945 Q1479.74 83.5945 1481.45 82.1361 Q1483.15 80.6778 1485.21 75.2496 L1486.55 71.8468 L1468.2 27.2059 L1476.1 27.2059 L1490.28 62.6918 L1504.46 27.2059 L1512.35 27.2059 L1492.42 76.7889 Z" fill="#000000" fill-rule="nonzero" fill-opacity="1" /><path clip-path="url(#clip550)" d="M1581.67 28.9478 L1581.67 35.9153 Q1578.51 34.1734 1575.31 33.3227 Q1572.15 32.4315 1568.91 32.4315 Q1561.65 32.4315 1557.64 37.0496 Q1553.63 41.6271 1553.63 49.9314 Q1553.63 58.2358 1557.64 62.8538 Q1561.65 67.4314 1568.91 67.4314 Q1572.15 67.4314 1575.31 66.5807 Q1578.51 65.6895 1581.67 63.9476 L1581.67 70.8341 Q1578.55 72.2924 1575.18 73.0216 Q1571.86 73.7508 1568.09 73.7508 Q1557.85 73.7508 1551.81 67.3098 Q1545.77 60.8689 1545.77 49.9314 Q1545.77 38.832 1551.85 32.472 Q1557.97 26.1121 1568.58 26.1121 Q1572.02 26.1121 1575.31 26.8413 Q1578.59 27.5299 1581.67 28.9478 Z" fill="#000000" fill-rule="nonzero" fill-opacity="1" /><path clip-path="url(#clip550)" d="M1615.25 49.7694 Q1606.21 49.7694 1602.73 51.8354 Q1599.25 53.9013 1599.25 58.8839 Q1599.25 62.8538 1601.84 65.2034 Q1604.47 67.5124 1608.97 67.5124 Q1615.17 67.5124 1618.89 63.1374 Q1622.66 58.7219 1622.66 51.4303 L1622.66 49.7694 L1615.25 49.7694 M1630.11 46.6907 L1630.11 72.576 L1622.66 72.576 L1622.66 65.6895 Q1620.11 69.8214 1616.3 71.8063 Q1612.49 73.7508 1606.98 73.7508 Q1600.02 73.7508 1595.88 69.8619 Q1591.79 65.9325 1591.79 59.3701 Q1591.79 51.7138 1596.9 47.825 Q1602.04 43.9361 1612.21 43.9361 L1622.66 43.9361 L1622.66 43.2069 Q1622.66 38.0623 1619.26 35.2672 Q1615.9 32.4315 1609.78 32.4315 Q1605.89 32.4315 1602.2 33.3632 Q1598.52 34.295 1595.11 36.1584 L1595.11 29.2718 Q1599.21 27.692 1603.05 26.9223 Q1606.9 26.1121 1610.55 26.1121 Q1620.39 26.1121 1625.25 31.2163 Q1630.11 36.3204 1630.11 46.6907 Z" fill="#000000" fill-rule="nonzero" fill-opacity="1" /><path clip-path="url(#clip550)" d="M1645.47 9.54393 L1652.92 9.54393 L1652.92 72.576 L1645.47 72.576 L1645.47 9.54393 Z" fill="#000000" fill-rule="nonzero" fill-opacity="1" /><path clip-path="url(#clip550)" d="M1701.17 28.9478 L1701.17 35.9153 Q1698.01 34.1734 1694.81 33.3227 Q1691.65 32.4315 1688.41 32.4315 Q1681.16 32.4315 1677.15 37.0496 Q1673.13 41.6271 1673.13 49.9314 Q1673.13 58.2358 1677.15 62.8538 Q1681.16 67.4314 1688.41 67.4314 Q1691.65 67.4314 1694.81 66.5807 Q1698.01 65.6895 1701.17 63.9476 L1701.17 70.8341 Q1698.05 72.2924 1694.69 73.0216 Q1691.36 73.7508 1687.6 73.7508 Q1677.35 73.7508 1671.31 67.3098 Q1665.28 60.8689 1665.28 49.9314 Q1665.28 38.832 1671.35 32.472 Q1677.47 26.1121 1688.08 26.1121 Q1691.53 26.1121 1694.81 26.8413 Q1698.09 27.5299 1701.17 28.9478 Z" fill="#000000" fill-rule="nonzero" fill-opacity="1" /><path clip-path="url(#clip550)" d="M1713.36 54.671 L1713.36 27.2059 L1720.81 27.2059 L1720.81 54.3874 Q1720.81 60.8284 1723.33 64.0691 Q1725.84 67.2693 1730.86 67.2693 Q1736.9 67.2693 1740.38 63.421 Q1743.9 59.5726 1743.9 52.9291 L1743.9 27.2059 L1751.36 27.2059 L1751.36 72.576 L1743.9 72.576 L1743.9 65.6084 Q1741.19 69.7404 1737.58 71.7658 Q1734.02 73.7508 1729.28 73.7508 Q1721.46 73.7508 1717.41 68.8897 Q1713.36 64.0286 1713.36 54.671 M1732.12 26.1121 L1732.12 26.1121 Z" fill="#000000" fill-rule="nonzero" fill-opacity="1" /><path clip-path="url(#clip550)" d="M1766.71 9.54393 L1774.16 9.54393 L1774.16 72.576 L1766.71 72.576 L1766.71 9.54393 Z" fill="#000000" fill-rule="nonzero" fill-opacity="1" /><path clip-path="url(#clip550)" d="M1810.38 49.7694 Q1801.35 49.7694 1797.86 51.8354 Q1794.38 53.9013 1794.38 58.8839 Q1794.38 62.8538 1796.97 65.2034 Q1799.6 67.5124 1804.1 67.5124 Q1810.3 67.5124 1814.03 63.1374 Q1817.79 58.7219 1817.79 51.4303 L1817.79 49.7694 L1810.38 49.7694 M1825.25 46.6907 L1825.25 72.576 L1817.79 72.576 L1817.79 65.6895 Q1815.24 69.8214 1811.43 71.8063 Q1807.62 73.7508 1802.12 73.7508 Q1795.15 73.7508 1791.02 69.8619 Q1786.92 65.9325 1786.92 59.3701 Q1786.92 51.7138 1792.03 47.825 Q1797.17 43.9361 1807.34 43.9361 L1817.79 43.9361 L1817.79 43.2069 Q1817.79 38.0623 1814.39 35.2672 Q1811.03 32.4315 1804.91 32.4315 Q1801.02 32.4315 1797.34 33.3632 Q1793.65 34.295 1790.25 36.1584 L1790.25 29.2718 Q1794.34 27.692 1798.19 26.9223 Q1802.03 26.1121 1805.68 26.1121 Q1815.52 26.1121 1820.39 31.2163 Q1825.25 36.3204 1825.25 46.6907 Z" fill="#000000" fill-rule="nonzero" fill-opacity="1" /><path clip-path="url(#clip550)" d="M1847.97 14.324 L1847.97 27.2059 L1863.32 27.2059 L1863.32 32.9987 L1847.97 32.9987 L1847.97 57.6282 Q1847.97 63.1779 1849.47 64.7578 Q1851.01 66.3376 1855.67 66.3376 L1863.32 66.3376 L1863.32 72.576 L1855.67 72.576 Q1847.04 72.576 1843.76 69.3758 Q1840.48 66.1351 1840.48 57.6282 L1840.48 32.9987 L1835.01 32.9987 L1835.01 27.2059 L1840.48 27.2059 L1840.48 14.324 L1847.97 14.324 Z" fill="#000000" fill-rule="nonzero" fill-opacity="1" /><path clip-path="url(#clip550)" d="M1873.13 27.2059 L1880.58 27.2059 L1880.58 72.576 L1873.13 72.576 L1873.13 27.2059 M1873.13 9.54393 L1880.58 9.54393 L1880.58 18.9825 L1873.13 18.9825 L1873.13 9.54393 Z" fill="#000000" fill-rule="nonzero" fill-opacity="1" /><path clip-path="url(#clip550)" d="M1913.76 32.4315 Q1907.76 32.4315 1904.28 37.1306 Q1900.8 41.7891 1900.8 49.9314 Q1900.8 58.0738 1904.24 62.7728 Q1907.72 67.4314 1913.76 67.4314 Q1919.71 67.4314 1923.2 62.7323 Q1926.68 58.0333 1926.68 49.9314 Q1926.68 41.8701 1923.2 37.1711 Q1919.71 32.4315 1913.76 32.4315 M1913.76 26.1121 Q1923.48 26.1121 1929.03 32.4315 Q1934.58 38.7509 1934.58 49.9314 Q1934.58 61.0714 1929.03 67.4314 Q1923.48 73.7508 1913.76 73.7508 Q1904 73.7508 1898.45 67.4314 Q1892.94 61.0714 1892.94 49.9314 Q1892.94 38.7509 1898.45 32.4315 Q1904 26.1121 1913.76 26.1121 Z" fill="#000000" fill-rule="nonzero" fill-opacity="1" /><path clip-path="url(#clip550)" d="M1984.65 45.1919 L1984.65 72.576 L1977.2 72.576 L1977.2 45.4349 Q1977.2 38.994 1974.68 35.7938 Q1972.17 32.5936 1967.15 32.5936 Q1961.11 32.5936 1957.63 36.4419 Q1954.15 40.2903 1954.15 46.9338 L1954.15 72.576 L1946.65 72.576 L1946.65 27.2059 L1954.15 27.2059 L1954.15 34.2544 Q1956.82 30.163 1960.42 28.1376 Q1964.07 26.1121 1968.81 26.1121 Q1976.63 26.1121 1980.64 30.9732 Q1984.65 35.7938 1984.65 45.1919 Z" fill="#000000" fill-rule="nonzero" fill-opacity="1" /><polyline clip-path="url(#clip552)" style="stroke:#000000; stroke-linecap:round; stroke-linejoin:round; stroke-width:4; stroke-opacity:1; fill:none" points="307.043,1386.4 307.043,1356.89 "/>
<line clip-path="url(#clip552)" x1="323.043" y1="1386.4" x2="291.043" y2="1386.4" style="stroke:#000000; stroke-width:4; stroke-opacity:1"/>
<line clip-path="url(#clip552)" x1="323.043" y1="1356.89" x2="291.043" y2="1356.89" style="stroke:#000000; stroke-width:4; stroke-opacity:1"/>
<polyline clip-path="url(#clip552)" style="stroke:#008000; stroke-linecap:round; stroke-linejoin:round; stroke-width:4; stroke-opacity:1; fill:none" points="307.043,1344.25 307.043,1245.04 "/>
<line clip-path="url(#clip552)" x1="323.043" y1="1344.25" x2="291.043" y2="1344.25" style="stroke:#008000; stroke-width:4; stroke-opacity:1"/>
<line clip-path="url(#clip552)" x1="323.043" y1="1245.04" x2="291.043" y2="1245.04" style="stroke:#008000; stroke-width:4; stroke-opacity:1"/>
<polyline clip-path="url(#clip552)" style="stroke:#0000ff; stroke-linecap:round; stroke-linejoin:round; stroke-width:4; stroke-opacity:1; fill:none" points="307.043,809.799 307.043,160.256 "/>
<line clip-path="url(#clip552)" x1="323.043" y1="809.799" x2="291.043" y2="809.799" style="stroke:#0000ff; stroke-width:4; stroke-opacity:1"/>
<line clip-path="url(#clip552)" x1="323.043" y1="160.256" x2="291.043" y2="160.256" style="stroke:#0000ff; stroke-width:4; stroke-opacity:1"/>
<polyline clip-path="url(#clip552)" style="stroke:#ff0000; stroke-linecap:round; stroke-linejoin:round; stroke-width:4; stroke-opacity:1; fill:none" points="307.043,1143.68 307.043,853.459 "/>
<line clip-path="url(#clip552)" x1="323.043" y1="1143.68" x2="291.043" y2="1143.68" style="stroke:#ff0000; stroke-width:4; stroke-opacity:1"/>
<line clip-path="url(#clip552)" x1="323.043" y1="853.459" x2="291.043" y2="853.459" style="stroke:#ff0000; stroke-width:4; stroke-opacity:1"/>
<path clip-path="url(#clip550)" d="M1934.3 425.996 L2282.58 425.996 L2282.58 166.796 L1934.3 166.796  Z" fill="#ffffff" fill-rule="evenodd" fill-opacity="1"/>
<polyline clip-path="url(#clip550)" style="stroke:#000000; stroke-linecap:round; stroke-linejoin:round; stroke-width:4; stroke-opacity:1; fill:none" points="1934.3,425.996 2282.58,425.996 2282.58,166.796 1934.3,166.796 1934.3,425.996 "/>
<polyline clip-path="url(#clip550)" style="stroke:#000000; stroke-linecap:round; stroke-linejoin:round; stroke-width:4; stroke-opacity:1; fill:none" points="1957.69,218.636 2098.04,218.636 "/>
<path clip-path="url(#clip550)" d="M2121.43 201.356 L2126.11 201.356 L2126.11 235.916 L2121.43 235.916 L2121.43 201.356 Z" fill="#000000" fill-rule="nonzero" fill-opacity="1" /><path clip-path="url(#clip550)" d="M2152.29 213.925 L2152.29 199.897 L2156.55 199.897 L2156.55 235.916 L2152.29 235.916 L2152.29 232.027 Q2150.95 234.342 2148.89 235.476 Q2146.85 236.587 2143.98 236.587 Q2139.28 236.587 2136.32 232.837 Q2133.38 229.087 2133.38 222.976 Q2133.38 216.865 2136.32 213.115 Q2139.28 209.365 2143.98 209.365 Q2146.85 209.365 2148.89 210.499 Q2150.95 211.61 2152.29 213.925 M2137.78 222.976 Q2137.78 227.675 2139.7 230.36 Q2141.64 233.022 2145.02 233.022 Q2148.4 233.022 2150.35 230.36 Q2152.29 227.675 2152.29 222.976 Q2152.29 218.277 2150.35 215.615 Q2148.4 212.93 2145.02 212.93 Q2141.64 212.93 2139.7 215.615 Q2137.78 218.277 2137.78 222.976 Z" fill="#000000" fill-rule="nonzero" fill-opacity="1" /><path clip-path="url(#clip550)" d="M2187.5 221.888 L2187.5 223.971 L2167.91 223.971 Q2168.19 228.369 2170.55 230.684 Q2172.94 232.976 2177.17 232.976 Q2179.63 232.976 2181.92 232.374 Q2184.23 231.772 2186.5 230.569 L2186.5 234.596 Q2184.21 235.568 2181.8 236.078 Q2179.4 236.587 2176.92 236.587 Q2170.72 236.587 2167.08 232.976 Q2163.47 229.365 2163.47 223.207 Q2163.47 216.842 2166.9 213.115 Q2170.35 209.365 2176.18 209.365 Q2181.41 209.365 2184.44 212.745 Q2187.5 216.101 2187.5 221.888 M2183.24 220.638 Q2183.19 217.143 2181.27 215.059 Q2179.37 212.976 2176.22 212.976 Q2172.66 212.976 2170.51 214.99 Q2168.38 217.004 2168.05 220.661 L2183.24 220.638 Z" fill="#000000" fill-rule="nonzero" fill-opacity="1" /><path clip-path="url(#clip550)" d="M2206.27 222.883 Q2201.11 222.883 2199.12 224.064 Q2197.13 225.244 2197.13 228.092 Q2197.13 230.36 2198.61 231.703 Q2200.11 233.022 2202.68 233.022 Q2206.22 233.022 2208.35 230.522 Q2210.51 227.999 2210.51 223.832 L2210.51 222.883 L2206.27 222.883 M2214.77 221.124 L2214.77 235.916 L2210.51 235.916 L2210.51 231.981 Q2209.05 234.342 2206.87 235.476 Q2204.7 236.587 2201.55 236.587 Q2197.57 236.587 2195.21 234.365 Q2192.87 232.119 2192.87 228.369 Q2192.87 223.994 2195.78 221.772 Q2198.72 219.55 2204.53 219.55 L2210.51 219.55 L2210.51 219.133 Q2210.51 216.194 2208.56 214.596 Q2206.64 212.976 2203.15 212.976 Q2200.92 212.976 2198.82 213.508 Q2196.71 214.041 2194.77 215.106 L2194.77 211.17 Q2197.1 210.268 2199.3 209.828 Q2201.5 209.365 2203.59 209.365 Q2209.21 209.365 2211.99 212.282 Q2214.77 215.198 2214.77 221.124 Z" fill="#000000" fill-rule="nonzero" fill-opacity="1" /><path clip-path="url(#clip550)" d="M2223.54 199.897 L2227.8 199.897 L2227.8 235.916 L2223.54 235.916 L2223.54 199.897 Z" fill="#000000" fill-rule="nonzero" fill-opacity="1" /><polyline clip-path="url(#clip550)" style="stroke:#008000; stroke-linecap:round; stroke-linejoin:round; stroke-width:4; stroke-opacity:1; fill:none" points="1957.69,270.476 2098.04,270.476 "/>
<path clip-path="url(#clip550)" d="M2137.06 269.122 Q2140.41 269.839 2142.29 272.108 Q2144.19 274.376 2144.19 277.709 Q2144.19 282.825 2140.67 285.626 Q2137.15 288.427 2130.67 288.427 Q2128.49 288.427 2126.18 287.987 Q2123.89 287.571 2121.43 286.714 L2121.43 282.2 Q2123.38 283.334 2125.69 283.913 Q2128.01 284.492 2130.53 284.492 Q2134.93 284.492 2137.22 282.756 Q2139.54 281.02 2139.54 277.709 Q2139.54 274.654 2137.38 272.941 Q2135.25 271.205 2131.43 271.205 L2127.41 271.205 L2127.41 267.362 L2131.62 267.362 Q2135.07 267.362 2136.9 265.997 Q2138.72 264.608 2138.72 262.015 Q2138.72 259.353 2136.83 257.941 Q2134.95 256.506 2131.43 256.506 Q2129.51 256.506 2127.31 256.923 Q2125.11 257.339 2122.47 258.219 L2122.47 254.052 Q2125.14 253.311 2127.45 252.941 Q2129.79 252.571 2131.85 252.571 Q2137.17 252.571 2140.28 255.001 Q2143.38 257.409 2143.38 261.529 Q2143.38 264.399 2141.73 266.39 Q2140.09 268.358 2137.06 269.122 Z" fill="#000000" fill-rule="nonzero" fill-opacity="1" /><path clip-path="url(#clip550)" d="M2163.05 256.274 Q2159.44 256.274 2157.61 259.839 Q2155.81 263.381 2155.81 270.51 Q2155.81 277.617 2157.61 281.182 Q2159.44 284.723 2163.05 284.723 Q2166.69 284.723 2168.49 281.182 Q2170.32 277.617 2170.32 270.51 Q2170.32 263.381 2168.49 259.839 Q2166.69 256.274 2163.05 256.274 M2163.05 252.571 Q2168.86 252.571 2171.92 257.177 Q2175 261.76 2175 270.51 Q2175 279.237 2171.92 283.844 Q2168.86 288.427 2163.05 288.427 Q2157.24 288.427 2154.16 283.844 Q2151.11 279.237 2151.11 270.51 Q2151.11 261.76 2154.16 257.177 Q2157.24 252.571 2163.05 252.571 Z" fill="#000000" fill-rule="nonzero" fill-opacity="1" /><path clip-path="url(#clip550)" d="M2186.73 283.867 L2186.73 297.617 L2182.45 297.617 L2182.45 261.83 L2186.73 261.83 L2186.73 265.765 Q2188.08 263.45 2190.11 262.339 Q2192.17 261.205 2195.02 261.205 Q2199.74 261.205 2202.68 264.955 Q2205.65 268.705 2205.65 274.816 Q2205.65 280.927 2202.68 284.677 Q2199.74 288.427 2195.02 288.427 Q2192.17 288.427 2190.11 287.316 Q2188.08 286.182 2186.73 283.867 M2201.22 274.816 Q2201.22 270.117 2199.28 267.455 Q2197.36 264.77 2193.98 264.77 Q2190.6 264.77 2188.66 267.455 Q2186.73 270.117 2186.73 274.816 Q2186.73 279.515 2188.66 282.2 Q2190.6 284.862 2193.98 284.862 Q2197.36 284.862 2199.28 282.2 Q2201.22 279.515 2201.22 274.816 Z" fill="#000000" fill-rule="nonzero" fill-opacity="1" /><path clip-path="url(#clip550)" d="M2229.23 262.594 L2229.23 266.622 Q2227.43 265.696 2225.48 265.233 Q2223.54 264.77 2221.46 264.77 Q2218.28 264.77 2216.69 265.742 Q2215.11 266.714 2215.11 268.659 Q2215.11 270.14 2216.25 270.997 Q2217.38 271.83 2220.81 272.594 L2222.27 272.918 Q2226.8 273.89 2228.7 275.672 Q2230.62 277.432 2230.62 280.603 Q2230.62 284.214 2227.75 286.321 Q2224.9 288.427 2219.9 288.427 Q2217.82 288.427 2215.55 288.01 Q2213.31 287.617 2210.81 286.807 L2210.81 282.409 Q2213.17 283.635 2215.46 284.26 Q2217.75 284.862 2220 284.862 Q2223.01 284.862 2224.63 283.844 Q2226.25 282.802 2226.25 280.927 Q2226.25 279.191 2225.07 278.265 Q2223.91 277.339 2219.95 276.483 L2218.47 276.135 Q2214.51 275.302 2212.75 273.589 Q2210.99 271.853 2210.99 268.844 Q2210.99 265.186 2213.59 263.196 Q2216.18 261.205 2220.95 261.205 Q2223.31 261.205 2225.39 261.552 Q2227.47 261.899 2229.23 262.594 Z" fill="#000000" fill-rule="nonzero" fill-opacity="1" /><polyline clip-path="url(#clip550)" style="stroke:#0000ff; stroke-linecap:round; stroke-linejoin:round; stroke-width:4; stroke-opacity:1; fill:none" points="1957.69,322.316 2098.04,322.316 "/>
<path clip-path="url(#clip550)" d="M2122.89 305.036 L2141.25 305.036 L2141.25 308.971 L2127.17 308.971 L2127.17 317.443 Q2128.19 317.096 2129.21 316.934 Q2130.23 316.749 2131.25 316.749 Q2137.04 316.749 2140.41 319.92 Q2143.79 323.091 2143.79 328.508 Q2143.79 334.086 2140.32 337.188 Q2136.85 340.267 2130.53 340.267 Q2128.35 340.267 2126.09 339.897 Q2123.84 339.526 2121.43 338.786 L2121.43 334.086 Q2123.52 335.221 2125.74 335.776 Q2127.96 336.332 2130.44 336.332 Q2134.44 336.332 2136.78 334.225 Q2139.12 332.119 2139.12 328.508 Q2139.12 324.897 2136.78 322.79 Q2134.44 320.684 2130.44 320.684 Q2128.56 320.684 2126.69 321.1 Q2124.84 321.517 2122.89 322.397 L2122.89 305.036 Z" fill="#000000" fill-rule="nonzero" fill-opacity="1" /><path clip-path="url(#clip550)" d="M2163.01 308.114 Q2159.4 308.114 2157.57 311.679 Q2155.76 315.221 2155.76 322.35 Q2155.76 329.457 2157.57 333.022 Q2159.4 336.563 2163.01 336.563 Q2166.64 336.563 2168.45 333.022 Q2170.28 329.457 2170.28 322.35 Q2170.28 315.221 2168.45 311.679 Q2166.64 308.114 2163.01 308.114 M2163.01 304.411 Q2168.82 304.411 2171.87 309.017 Q2174.95 313.6 2174.95 322.35 Q2174.95 331.077 2171.87 335.684 Q2168.82 340.267 2163.01 340.267 Q2157.2 340.267 2154.12 335.684 Q2151.06 331.077 2151.06 322.35 Q2151.06 313.6 2154.12 309.017 Q2157.2 304.411 2163.01 304.411 Z" fill="#000000" fill-rule="nonzero" fill-opacity="1" /><path clip-path="url(#clip550)" d="M2186.69 335.707 L2186.69 349.457 L2182.41 349.457 L2182.41 313.67 L2186.69 313.67 L2186.69 317.605 Q2188.03 315.29 2190.07 314.179 Q2192.13 313.045 2194.97 313.045 Q2199.7 313.045 2202.64 316.795 Q2205.6 320.545 2205.6 326.656 Q2205.6 332.767 2202.64 336.517 Q2199.7 340.267 2194.97 340.267 Q2192.13 340.267 2190.07 339.156 Q2188.03 338.022 2186.69 335.707 M2201.18 326.656 Q2201.18 321.957 2199.23 319.295 Q2197.31 316.61 2193.93 316.61 Q2190.55 316.61 2188.61 319.295 Q2186.69 321.957 2186.69 326.656 Q2186.69 331.355 2188.61 334.04 Q2190.55 336.702 2193.93 336.702 Q2197.31 336.702 2199.23 334.04 Q2201.18 331.355 2201.18 326.656 Z" fill="#000000" fill-rule="nonzero" fill-opacity="1" /><path clip-path="url(#clip550)" d="M2229.19 314.434 L2229.19 318.462 Q2227.38 317.536 2225.44 317.073 Q2223.49 316.61 2221.41 316.61 Q2218.24 316.61 2216.64 317.582 Q2215.07 318.554 2215.07 320.499 Q2215.07 321.98 2216.2 322.837 Q2217.34 323.67 2220.76 324.434 L2222.22 324.758 Q2226.76 325.73 2228.65 327.512 Q2230.58 329.272 2230.58 332.443 Q2230.58 336.054 2227.71 338.161 Q2224.86 340.267 2219.86 340.267 Q2217.78 340.267 2215.51 339.85 Q2213.26 339.457 2210.76 338.647 L2210.76 334.249 Q2213.12 335.475 2215.41 336.1 Q2217.71 336.702 2219.95 336.702 Q2222.96 336.702 2224.58 335.684 Q2226.2 334.642 2226.2 332.767 Q2226.2 331.031 2225.02 330.105 Q2223.86 329.179 2219.9 328.323 L2218.42 327.975 Q2214.47 327.142 2212.71 325.429 Q2210.95 323.693 2210.95 320.684 Q2210.95 317.026 2213.54 315.036 Q2216.13 313.045 2220.9 313.045 Q2223.26 313.045 2225.34 313.392 Q2227.43 313.739 2229.19 314.434 Z" fill="#000000" fill-rule="nonzero" fill-opacity="1" /><polyline clip-path="url(#clip550)" style="stroke:#ff0000; stroke-linecap:round; stroke-linejoin:round; stroke-width:4; stroke-opacity:1; fill:none" points="1957.69,374.156 2098.04,374.156 "/>
<path clip-path="url(#clip550)" d="M2122.1 387.501 L2129.74 387.501 L2129.74 361.135 L2121.43 362.802 L2121.43 358.542 L2129.7 356.876 L2134.37 356.876 L2134.37 387.501 L2142.01 387.501 L2142.01 391.436 L2122.1 391.436 L2122.1 387.501 Z" fill="#000000" fill-rule="nonzero" fill-opacity="1" /><path clip-path="url(#clip550)" d="M2161.46 359.954 Q2157.85 359.954 2156.02 363.519 Q2154.21 367.061 2154.21 374.19 Q2154.21 381.297 2156.02 384.862 Q2157.85 388.403 2161.46 388.403 Q2165.09 388.403 2166.9 384.862 Q2168.72 381.297 2168.72 374.19 Q2168.72 367.061 2166.9 363.519 Q2165.09 359.954 2161.46 359.954 M2161.46 356.251 Q2167.27 356.251 2170.32 360.857 Q2173.4 365.44 2173.4 374.19 Q2173.4 382.917 2170.32 387.524 Q2167.27 392.107 2161.46 392.107 Q2155.65 392.107 2152.57 387.524 Q2149.51 382.917 2149.51 374.19 Q2149.51 365.44 2152.57 360.857 Q2155.65 356.251 2161.46 356.251 Z" fill="#000000" fill-rule="nonzero" fill-opacity="1" /><path clip-path="url(#clip550)" d="M2191.62 359.954 Q2188.01 359.954 2186.18 363.519 Q2184.37 367.061 2184.37 374.19 Q2184.37 381.297 2186.18 384.862 Q2188.01 388.403 2191.62 388.403 Q2195.25 388.403 2197.06 384.862 Q2198.89 381.297 2198.89 374.19 Q2198.89 367.061 2197.06 363.519 Q2195.25 359.954 2191.62 359.954 M2191.62 356.251 Q2197.43 356.251 2200.48 360.857 Q2203.56 365.44 2203.56 374.19 Q2203.56 382.917 2200.48 387.524 Q2197.43 392.107 2191.62 392.107 Q2185.81 392.107 2182.73 387.524 Q2179.67 382.917 2179.67 374.19 Q2179.67 365.44 2182.73 360.857 Q2185.81 356.251 2191.62 356.251 Z" fill="#000000" fill-rule="nonzero" fill-opacity="1" /><path clip-path="url(#clip550)" d="M2215.3 387.547 L2215.3 401.297 L2211.02 401.297 L2211.02 365.51 L2215.3 365.51 L2215.3 369.445 Q2216.64 367.13 2218.68 366.019 Q2220.74 364.885 2223.59 364.885 Q2228.31 364.885 2231.25 368.635 Q2234.21 372.385 2234.21 378.496 Q2234.21 384.607 2231.25 388.357 Q2228.31 392.107 2223.59 392.107 Q2220.74 392.107 2218.68 390.996 Q2216.64 389.862 2215.3 387.547 M2229.79 378.496 Q2229.79 373.797 2227.84 371.135 Q2225.92 368.45 2222.54 368.45 Q2219.16 368.45 2217.22 371.135 Q2215.3 373.797 2215.3 378.496 Q2215.3 383.195 2217.22 385.88 Q2219.16 388.542 2222.54 388.542 Q2225.92 388.542 2227.84 385.88 Q2229.79 383.195 2229.79 378.496 Z" fill="#000000" fill-rule="nonzero" fill-opacity="1" /><path clip-path="url(#clip550)" d="M2257.8 366.274 L2257.8 370.302 Q2255.99 369.376 2254.05 368.913 Q2252.1 368.45 2250.02 368.45 Q2246.85 368.45 2245.25 369.422 Q2243.68 370.394 2243.68 372.339 Q2243.68 373.82 2244.81 374.677 Q2245.95 375.51 2249.37 376.274 L2250.83 376.598 Q2255.37 377.57 2257.27 379.352 Q2259.19 381.112 2259.19 384.283 Q2259.19 387.894 2256.32 390.001 Q2253.47 392.107 2248.47 392.107 Q2246.39 392.107 2244.12 391.69 Q2241.87 391.297 2239.37 390.487 L2239.37 386.089 Q2241.73 387.315 2244.03 387.94 Q2246.32 388.542 2248.56 388.542 Q2251.57 388.542 2253.19 387.524 Q2254.81 386.482 2254.81 384.607 Q2254.81 382.871 2253.63 381.945 Q2252.47 381.019 2248.52 380.163 L2247.03 379.815 Q2243.08 378.982 2241.32 377.269 Q2239.56 375.533 2239.56 372.524 Q2239.56 368.866 2242.15 366.876 Q2244.74 364.885 2249.51 364.885 Q2251.87 364.885 2253.96 365.232 Q2256.04 365.579 2257.8 366.274 Z" fill="#000000" fill-rule="nonzero" fill-opacity="1" /></svg>
