<?xml version="1.0" encoding="utf-8"?>
<svg xmlns="http://www.w3.org/2000/svg" xmlns:xlink="http://www.w3.org/1999/xlink" width="600" height="400" viewBox="0 0 2400 1600">
<defs>
  <clipPath id="clip750">
    <rect x="0" y="0" width="2400" height="1600"/>
  </clipPath>
</defs>
<path clip-path="url(#clip750)" d="M0 1600 L2400 1600 L2400 0 L0 0  Z" fill="#ffffff" fill-rule="evenodd" fill-opacity="1"/>
<defs>
  <clipPath id="clip751">
    <rect x="480" y="0" width="1681" height="1600"/>
  </clipPath>
</defs>
<path clip-path="url(#clip750)" d="M257.366 1423.18 L2352.76 1423.18 L2352.76 123.472 L257.366 123.472  Z" fill="#ffffff" fill-rule="evenodd" fill-opacity="1"/>
<defs>
  <clipPath id="clip752">
    <rect x="257" y="123" width="2096" height="1301"/>
  </clipPath>
</defs>
<polyline clip-path="url(#clip752)" style="stroke:#000000; stroke-linecap:round; stroke-linejoin:round; stroke-width:2; stroke-opacity:0.1; fill:none" points="316.67,1423.18 316.67,123.472 "/>
<polyline clip-path="url(#clip752)" style="stroke:#000000; stroke-linecap:round; stroke-linejoin:round; stroke-width:2; stroke-opacity:0.1; fill:none" points="810.865,1423.18 810.865,123.472 "/>
<polyline clip-path="url(#clip752)" style="stroke:#000000; stroke-linecap:round; stroke-linejoin:round; stroke-width:2; stroke-opacity:0.1; fill:none" points="1305.06,1423.18 1305.06,123.472 "/>
<polyline clip-path="url(#clip752)" style="stroke:#000000; stroke-linecap:round; stroke-linejoin:round; stroke-width:2; stroke-opacity:0.1; fill:none" points="1799.26,1423.18 1799.26,123.472 "/>
<polyline clip-path="url(#clip752)" style="stroke:#000000; stroke-linecap:round; stroke-linejoin:round; stroke-width:2; stroke-opacity:0.1; fill:none" points="2293.45,1423.18 2293.45,123.472 "/>
<polyline clip-path="url(#clip752)" style="stroke:#000000; stroke-linecap:round; stroke-linejoin:round; stroke-width:2; stroke-opacity:0.1; fill:none" points="257.366,1396.79 2352.76,1396.79 "/>
<polyline clip-path="url(#clip752)" style="stroke:#000000; stroke-linecap:round; stroke-linejoin:round; stroke-width:2; stroke-opacity:0.1; fill:none" points="257.366,1196.49 2352.76,1196.49 "/>
<polyline clip-path="url(#clip752)" style="stroke:#000000; stroke-linecap:round; stroke-linejoin:round; stroke-width:2; stroke-opacity:0.1; fill:none" points="257.366,996.194 2352.76,996.194 "/>
<polyline clip-path="url(#clip752)" style="stroke:#000000; stroke-linecap:round; stroke-linejoin:round; stroke-width:2; stroke-opacity:0.1; fill:none" points="257.366,795.898 2352.76,795.898 "/>
<polyline clip-path="url(#clip752)" style="stroke:#000000; stroke-linecap:round; stroke-linejoin:round; stroke-width:2; stroke-opacity:0.1; fill:none" points="257.366,595.602 2352.76,595.602 "/>
<polyline clip-path="url(#clip752)" style="stroke:#000000; stroke-linecap:round; stroke-linejoin:round; stroke-width:2; stroke-opacity:0.1; fill:none" points="257.366,395.305 2352.76,395.305 "/>
<polyline clip-path="url(#clip752)" style="stroke:#000000; stroke-linecap:round; stroke-linejoin:round; stroke-width:2; stroke-opacity:0.1; fill:none" points="257.366,195.009 2352.76,195.009 "/>
<polyline clip-path="url(#clip750)" style="stroke:#000000; stroke-linecap:round; stroke-linejoin:round; stroke-width:4; stroke-opacity:1; fill:none" points="257.366,1423.18 2352.76,1423.18 "/>
<polyline clip-path="url(#clip750)" style="stroke:#000000; stroke-linecap:round; stroke-linejoin:round; stroke-width:4; stroke-opacity:1; fill:none" points="316.67,1423.18 316.67,1404.28 "/>
<polyline clip-path="url(#clip750)" style="stroke:#000000; stroke-linecap:round; stroke-linejoin:round; stroke-width:4; stroke-opacity:1; fill:none" points="810.865,1423.18 810.865,1404.28 "/>
<polyline clip-path="url(#clip750)" style="stroke:#000000; stroke-linecap:round; stroke-linejoin:round; stroke-width:4; stroke-opacity:1; fill:none" points="1305.06,1423.18 1305.06,1404.28 "/>
<polyline clip-path="url(#clip750)" style="stroke:#000000; stroke-linecap:round; stroke-linejoin:round; stroke-width:4; stroke-opacity:1; fill:none" points="1799.26,1423.18 1799.26,1404.28 "/>
<polyline clip-path="url(#clip750)" style="stroke:#000000; stroke-linecap:round; stroke-linejoin:round; stroke-width:4; stroke-opacity:1; fill:none" points="2293.45,1423.18 2293.45,1404.28 "/>
<path clip-path="url(#clip750)" d="M291.369 1451.02 L309.725 1451.02 L309.725 1454.96 L295.651 1454.96 L295.651 1463.43 Q296.67 1463.08 297.688 1462.92 Q298.707 1462.73 299.725 1462.73 Q305.512 1462.73 308.892 1465.9 Q312.271 1469.08 312.271 1474.49 Q312.271 1480.07 308.799 1483.17 Q305.327 1486.25 299.008 1486.25 Q296.832 1486.25 294.563 1485.88 Q292.318 1485.51 289.91 1484.77 L289.91 1480.07 Q291.994 1481.2 294.216 1481.76 Q296.438 1482.32 298.915 1482.32 Q302.92 1482.32 305.258 1480.21 Q307.596 1478.1 307.596 1474.49 Q307.596 1470.88 305.258 1468.77 Q302.92 1466.67 298.915 1466.67 Q297.04 1466.67 295.165 1467.08 Q293.313 1467.5 291.369 1468.38 L291.369 1451.02 Z" fill="#000000" fill-rule="nonzero" fill-opacity="1" /><path clip-path="url(#clip750)" d="M331.484 1454.1 Q327.873 1454.1 326.045 1457.66 Q324.239 1461.2 324.239 1468.33 Q324.239 1475.44 326.045 1479.01 Q327.873 1482.55 331.484 1482.55 Q335.119 1482.55 336.924 1479.01 Q338.753 1475.44 338.753 1468.33 Q338.753 1461.2 336.924 1457.66 Q335.119 1454.1 331.484 1454.1 M331.484 1450.39 Q337.294 1450.39 340.35 1455 Q343.429 1459.58 343.429 1468.33 Q343.429 1477.06 340.35 1481.67 Q337.294 1486.25 331.484 1486.25 Q325.674 1486.25 322.595 1481.67 Q319.54 1477.06 319.54 1468.33 Q319.54 1459.58 322.595 1455 Q325.674 1450.39 331.484 1450.39 Z" fill="#000000" fill-rule="nonzero" fill-opacity="1" /><path clip-path="url(#clip750)" d="M770.472 1481.64 L778.111 1481.64 L778.111 1455.28 L769.801 1456.95 L769.801 1452.69 L778.065 1451.02 L782.74 1451.02 L782.74 1481.64 L790.379 1481.64 L790.379 1485.58 L770.472 1485.58 L770.472 1481.64 Z" fill="#000000" fill-rule="nonzero" fill-opacity="1" /><path clip-path="url(#clip750)" d="M809.824 1454.1 Q806.213 1454.1 804.384 1457.66 Q802.578 1461.2 802.578 1468.33 Q802.578 1475.44 804.384 1479.01 Q806.213 1482.55 809.824 1482.55 Q813.458 1482.55 815.263 1479.01 Q817.092 1475.44 817.092 1468.33 Q817.092 1461.2 815.263 1457.66 Q813.458 1454.1 809.824 1454.1 M809.824 1450.39 Q815.634 1450.39 818.689 1455 Q821.768 1459.58 821.768 1468.33 Q821.768 1477.06 818.689 1481.67 Q815.634 1486.25 809.824 1486.25 Q804.013 1486.25 800.935 1481.67 Q797.879 1477.06 797.879 1468.33 Q797.879 1459.58 800.935 1455 Q804.013 1450.39 809.824 1450.39 Z" fill="#000000" fill-rule="nonzero" fill-opacity="1" /><path clip-path="url(#clip750)" d="M839.985 1454.1 Q836.374 1454.1 834.546 1457.66 Q832.74 1461.2 832.74 1468.33 Q832.74 1475.44 834.546 1479.01 Q836.374 1482.55 839.985 1482.55 Q843.62 1482.55 845.425 1479.01 Q847.254 1475.44 847.254 1468.33 Q847.254 1461.2 845.425 1457.66 Q843.62 1454.1 839.985 1454.1 M839.985 1450.39 Q845.796 1450.39 848.851 1455 Q851.93 1459.58 851.93 1468.33 Q851.93 1477.06 848.851 1481.67 Q845.796 1486.25 839.985 1486.25 Q834.175 1486.25 831.097 1481.67 Q828.041 1477.06 828.041 1468.33 Q828.041 1459.58 831.097 1455 Q834.175 1450.39 839.985 1450.39 Z" fill="#000000" fill-rule="nonzero" fill-opacity="1" /><path clip-path="url(#clip750)" d="M1264.67 1481.64 L1272.31 1481.64 L1272.31 1455.28 L1264 1456.95 L1264 1452.69 L1272.26 1451.02 L1276.94 1451.02 L1276.94 1481.64 L1284.57 1481.64 L1284.57 1485.58 L1264.67 1485.58 L1264.67 1481.64 Z" fill="#000000" fill-rule="nonzero" fill-opacity="1" /><path clip-path="url(#clip750)" d="M1294.07 1451.02 L1312.42 1451.02 L1312.42 1454.96 L1298.35 1454.96 L1298.35 1463.43 Q1299.37 1463.08 1300.39 1462.92 Q1301.4 1462.73 1302.42 1462.73 Q1308.21 1462.73 1311.59 1465.9 Q1314.97 1469.08 1314.97 1474.49 Q1314.97 1480.07 1311.5 1483.17 Q1308.02 1486.25 1301.7 1486.25 Q1299.53 1486.25 1297.26 1485.88 Q1295.01 1485.51 1292.61 1484.77 L1292.61 1480.07 Q1294.69 1481.2 1296.91 1481.76 Q1299.14 1482.32 1301.61 1482.32 Q1305.62 1482.32 1307.95 1480.21 Q1310.29 1478.1 1310.29 1474.49 Q1310.29 1470.88 1307.95 1468.77 Q1305.62 1466.67 1301.61 1466.67 Q1299.74 1466.67 1297.86 1467.08 Q1296.01 1467.5 1294.07 1468.38 L1294.07 1451.02 Z" fill="#000000" fill-rule="nonzero" fill-opacity="1" /><path clip-path="url(#clip750)" d="M1334.18 1454.1 Q1330.57 1454.1 1328.74 1457.66 Q1326.94 1461.2 1326.94 1468.33 Q1326.94 1475.44 1328.74 1479.01 Q1330.57 1482.55 1334.18 1482.55 Q1337.82 1482.55 1339.62 1479.01 Q1341.45 1475.44 1341.45 1468.33 Q1341.45 1461.2 1339.62 1457.66 Q1337.82 1454.1 1334.18 1454.1 M1334.18 1450.39 Q1339.99 1450.39 1343.05 1455 Q1346.13 1459.58 1346.13 1468.33 Q1346.13 1477.06 1343.05 1481.67 Q1339.99 1486.25 1334.18 1486.25 Q1328.37 1486.25 1325.29 1481.67 Q1322.24 1477.06 1322.24 1468.33 Q1322.24 1459.58 1325.29 1455 Q1328.37 1450.39 1334.18 1450.39 Z" fill="#000000" fill-rule="nonzero" fill-opacity="1" /><path clip-path="url(#clip750)" d="M1762.95 1481.64 L1779.27 1481.64 L1779.27 1485.58 L1757.32 1485.58 L1757.32 1481.64 Q1759.99 1478.89 1764.57 1474.26 Q1769.18 1469.61 1770.36 1468.27 Q1772.6 1465.74 1773.48 1464.01 Q1774.38 1462.25 1774.38 1460.56 Q1774.38 1457.8 1772.44 1456.07 Q1770.52 1454.33 1767.42 1454.33 Q1765.22 1454.33 1762.76 1455.09 Q1760.33 1455.86 1757.56 1457.41 L1757.56 1452.69 Q1760.38 1451.55 1762.83 1450.97 Q1765.29 1450.39 1767.32 1450.39 Q1772.69 1450.39 1775.89 1453.08 Q1779.08 1455.77 1779.08 1460.26 Q1779.08 1462.39 1778.27 1464.31 Q1777.49 1466.2 1775.38 1468.8 Q1774.8 1469.47 1771.7 1472.69 Q1768.6 1475.88 1762.95 1481.64 Z" fill="#000000" fill-rule="nonzero" fill-opacity="1" /><path clip-path="url(#clip750)" d="M1799.08 1454.1 Q1795.47 1454.1 1793.64 1457.66 Q1791.84 1461.2 1791.84 1468.33 Q1791.84 1475.44 1793.64 1479.01 Q1795.47 1482.55 1799.08 1482.55 Q1802.72 1482.55 1804.52 1479.01 Q1806.35 1475.44 1806.35 1468.33 Q1806.35 1461.2 1804.52 1457.66 Q1802.72 1454.1 1799.08 1454.1 M1799.08 1450.39 Q1804.89 1450.39 1807.95 1455 Q1811.03 1459.58 1811.03 1468.33 Q1811.03 1477.06 1807.95 1481.67 Q1804.89 1486.25 1799.08 1486.25 Q1793.27 1486.25 1790.19 1481.67 Q1787.14 1477.06 1787.14 1468.33 Q1787.14 1459.58 1790.19 1455 Q1793.27 1450.39 1799.08 1450.39 Z" fill="#000000" fill-rule="nonzero" fill-opacity="1" /><path clip-path="url(#clip750)" d="M1829.24 1454.1 Q1825.63 1454.1 1823.81 1457.66 Q1822 1461.2 1822 1468.33 Q1822 1475.44 1823.81 1479.01 Q1825.63 1482.55 1829.24 1482.55 Q1832.88 1482.55 1834.68 1479.01 Q1836.51 1475.44 1836.51 1468.33 Q1836.51 1461.2 1834.68 1457.66 Q1832.88 1454.1 1829.24 1454.1 M1829.24 1450.39 Q1835.06 1450.39 1838.11 1455 Q1841.19 1459.58 1841.19 1468.33 Q1841.19 1477.06 1838.11 1481.67 Q1835.06 1486.25 1829.24 1486.25 Q1823.43 1486.25 1820.36 1481.67 Q1817.3 1477.06 1817.3 1468.33 Q1817.3 1459.58 1820.36 1455 Q1823.43 1450.39 1829.24 1450.39 Z" fill="#000000" fill-rule="nonzero" fill-opacity="1" /><path clip-path="url(#clip750)" d="M2257.14 1481.64 L2273.46 1481.64 L2273.46 1485.58 L2251.52 1485.58 L2251.52 1481.64 Q2254.18 1478.89 2258.77 1474.26 Q2263.37 1469.61 2264.55 1468.27 Q2266.8 1465.74 2267.68 1464.01 Q2268.58 1462.25 2268.58 1460.56 Q2268.58 1457.8 2266.64 1456.07 Q2264.71 1454.33 2261.61 1454.33 Q2259.41 1454.33 2256.96 1455.09 Q2254.53 1455.86 2251.75 1457.41 L2251.75 1452.69 Q2254.58 1451.55 2257.03 1450.97 Q2259.48 1450.39 2261.52 1450.39 Q2266.89 1450.39 2270.08 1453.08 Q2273.28 1455.77 2273.28 1460.26 Q2273.28 1462.39 2272.47 1464.31 Q2271.68 1466.2 2269.58 1468.8 Q2269 1469.47 2265.89 1472.69 Q2262.79 1475.88 2257.14 1481.64 Z" fill="#000000" fill-rule="nonzero" fill-opacity="1" /><path clip-path="url(#clip750)" d="M2283.33 1451.02 L2301.68 1451.02 L2301.68 1454.96 L2287.61 1454.96 L2287.61 1463.43 Q2288.63 1463.08 2289.64 1462.92 Q2290.66 1462.73 2291.68 1462.73 Q2297.47 1462.73 2300.85 1465.9 Q2304.23 1469.08 2304.23 1474.49 Q2304.23 1480.07 2300.76 1483.17 Q2297.28 1486.25 2290.96 1486.25 Q2288.79 1486.25 2286.52 1485.88 Q2284.27 1485.51 2281.87 1484.77 L2281.87 1480.07 Q2283.95 1481.2 2286.17 1481.76 Q2288.39 1482.32 2290.87 1482.32 Q2294.88 1482.32 2297.21 1480.21 Q2299.55 1478.1 2299.55 1474.49 Q2299.55 1470.88 2297.21 1468.77 Q2294.88 1466.67 2290.87 1466.67 Q2289 1466.67 2287.12 1467.08 Q2285.27 1467.5 2283.33 1468.38 L2283.33 1451.02 Z" fill="#000000" fill-rule="nonzero" fill-opacity="1" /><path clip-path="url(#clip750)" d="M2323.44 1454.1 Q2319.83 1454.1 2318 1457.66 Q2316.2 1461.2 2316.2 1468.33 Q2316.2 1475.44 2318 1479.01 Q2319.83 1482.55 2323.44 1482.55 Q2327.07 1482.55 2328.88 1479.01 Q2330.71 1475.44 2330.71 1468.33 Q2330.71 1461.2 2328.88 1457.66 Q2327.07 1454.1 2323.44 1454.1 M2323.44 1450.39 Q2329.25 1450.39 2332.31 1455 Q2335.39 1459.58 2335.39 1468.33 Q2335.39 1477.06 2332.31 1481.67 Q2329.25 1486.25 2323.44 1486.25 Q2317.63 1486.25 2314.55 1481.67 Q2311.5 1477.06 2311.5 1468.33 Q2311.5 1459.58 2314.55 1455 Q2317.63 1450.39 2323.44 1450.39 Z" fill="#000000" fill-rule="nonzero" fill-opacity="1" /><path clip-path="url(#clip750)" d="M752.931 1520.52 L782.978 1520.52 L782.978 1525.93 L759.361 1525.93 L759.361 1540 L781.991 1540 L781.991 1545.41 L759.361 1545.41 L759.361 1562.63 L783.55 1562.63 L783.55 1568.04 L752.931 1568.04 L752.931 1520.52 Z" fill="#000000" fill-rule="nonzero" fill-opacity="1" /><path clip-path="url(#clip750)" d="M823.495 1546.53 L823.495 1568.04 L817.639 1568.04 L817.639 1546.72 Q817.639 1541.66 815.665 1539.14 Q813.692 1536.63 809.745 1536.63 Q805.003 1536.63 802.266 1539.65 Q799.528 1542.68 799.528 1547.9 L799.528 1568.04 L793.64 1568.04 L793.64 1532.4 L799.528 1532.4 L799.528 1537.93 Q801.629 1534.72 804.462 1533.13 Q807.326 1531.54 811.05 1531.54 Q817.193 1531.54 820.344 1535.36 Q823.495 1539.14 823.495 1546.53 Z" fill="#000000" fill-rule="nonzero" fill-opacity="1" /><path clip-path="url(#clip750)" d="M865.668 1548.76 L865.668 1551.62 L838.741 1551.62 Q839.123 1557.67 842.37 1560.85 Q845.648 1564 851.473 1564 Q854.846 1564 857.997 1563.17 Q861.18 1562.35 864.299 1560.69 L864.299 1566.23 Q861.148 1567.57 857.838 1568.27 Q854.528 1568.97 851.122 1568.97 Q842.592 1568.97 837.595 1564 Q832.63 1559.04 832.63 1550.57 Q832.63 1541.82 837.341 1536.69 Q842.083 1531.54 850.104 1531.54 Q857.297 1531.54 861.467 1536.18 Q865.668 1540.8 865.668 1548.76 M859.812 1547.04 Q859.748 1542.23 857.106 1539.37 Q854.496 1536.5 850.168 1536.5 Q845.266 1536.5 842.306 1539.27 Q839.378 1542.04 838.932 1547.07 L859.812 1547.04 Z" fill="#000000" fill-rule="nonzero" fill-opacity="1" /><path clip-path="url(#clip750)" d="M895.937 1537.87 Q894.95 1537.3 893.773 1537.04 Q892.627 1536.76 891.226 1536.76 Q886.261 1536.76 883.588 1540 Q880.946 1543.22 880.946 1549.27 L880.946 1568.04 L875.058 1568.04 L875.058 1532.4 L880.946 1532.4 L880.946 1537.93 Q882.792 1534.69 885.752 1533.13 Q888.712 1531.54 892.945 1531.54 Q893.55 1531.54 894.282 1531.63 Q895.014 1531.7 895.905 1531.85 L895.937 1537.87 Z" fill="#000000" fill-rule="nonzero" fill-opacity="1" /><path clip-path="url(#clip750)" d="M924.392 1549.81 Q924.392 1543.44 921.75 1539.94 Q919.14 1536.44 914.398 1536.44 Q909.687 1536.44 907.045 1539.94 Q904.435 1543.44 904.435 1549.81 Q904.435 1556.14 907.045 1559.64 Q909.687 1563.14 914.398 1563.14 Q919.14 1563.14 921.75 1559.64 Q924.392 1556.14 924.392 1549.81 M930.248 1563.62 Q930.248 1572.72 926.206 1577.15 Q922.164 1581.6 913.825 1581.6 Q910.737 1581.6 908 1581.13 Q905.263 1580.68 902.685 1579.72 L902.685 1574.03 Q905.263 1575.43 907.777 1576.1 Q910.292 1576.76 912.902 1576.76 Q918.663 1576.76 921.527 1573.74 Q924.392 1570.75 924.392 1564.67 L924.392 1561.77 Q922.578 1564.92 919.745 1566.48 Q916.912 1568.04 912.965 1568.04 Q906.409 1568.04 902.398 1563.05 Q898.388 1558.05 898.388 1549.81 Q898.388 1541.53 902.398 1536.53 Q906.409 1531.54 912.965 1531.54 Q916.912 1531.54 919.745 1533.1 Q922.578 1534.66 924.392 1537.81 L924.392 1532.4 L930.248 1532.4 L930.248 1563.62 Z" fill="#000000" fill-rule="nonzero" fill-opacity="1" /><path clip-path="url(#clip750)" d="M957.143 1571.35 Q954.661 1577.72 952.305 1579.66 Q949.95 1581.6 946.003 1581.6 L941.325 1581.6 L941.325 1576.7 L944.762 1576.7 Q947.181 1576.7 948.518 1575.56 Q949.855 1574.41 951.478 1570.14 L952.528 1567.47 L938.11 1532.4 L944.316 1532.4 L955.456 1560.28 L966.596 1532.4 L972.803 1532.4 L957.143 1571.35 Z" fill="#000000" fill-rule="nonzero" fill-opacity="1" /><path clip-path="url(#clip750)" d="M1015.42 1536.5 Q1010.71 1536.5 1007.97 1540.19 Q1005.24 1543.85 1005.24 1550.25 Q1005.24 1556.65 1007.94 1560.34 Q1010.68 1564 1015.42 1564 Q1020.1 1564 1022.84 1560.31 Q1025.57 1556.62 1025.57 1550.25 Q1025.57 1543.92 1022.84 1540.23 Q1020.1 1536.5 1015.42 1536.5 M1015.42 1531.54 Q1023.06 1531.54 1027.42 1536.5 Q1031.78 1541.47 1031.78 1550.25 Q1031.78 1559 1027.42 1564 Q1023.06 1568.97 1015.42 1568.97 Q1007.75 1568.97 1003.39 1564 Q999.061 1559 999.061 1550.25 Q999.061 1541.47 1003.39 1536.5 Q1007.75 1531.54 1015.42 1531.54 Z" fill="#000000" fill-rule="nonzero" fill-opacity="1" /><path clip-path="url(#clip750)" d="M1059.54 1518.52 L1059.54 1523.39 L1053.93 1523.39 Q1050.78 1523.39 1049.54 1524.66 Q1048.33 1525.93 1048.33 1529.24 L1048.33 1532.4 L1057.98 1532.4 L1057.98 1536.95 L1048.33 1536.95 L1048.33 1568.04 L1042.44 1568.04 L1042.44 1536.95 L1036.84 1536.95 L1036.84 1532.4 L1042.44 1532.4 L1042.44 1529.91 Q1042.44 1523.96 1045.21 1521.26 Q1047.98 1518.52 1054 1518.52 L1059.54 1518.52 Z" fill="#000000" fill-rule="nonzero" fill-opacity="1" /><path clip-path="url(#clip750)" d="M1085.16 1532.4 L1091.01 1532.4 L1091.01 1568.04 L1085.16 1568.04 L1085.16 1532.4 M1085.16 1518.52 L1091.01 1518.52 L1091.01 1525.93 L1085.16 1525.93 L1085.16 1518.52 Z" fill="#000000" fill-rule="nonzero" fill-opacity="1" /><path clip-path="url(#clip750)" d="M1132.9 1546.53 L1132.9 1568.04 L1127.04 1568.04 L1127.04 1546.72 Q1127.04 1541.66 1125.07 1539.14 Q1123.1 1536.63 1119.15 1536.63 Q1114.41 1536.63 1111.67 1539.65 Q1108.93 1542.68 1108.93 1547.9 L1108.93 1568.04 L1103.05 1568.04 L1103.05 1532.4 L1108.93 1532.4 L1108.93 1537.93 Q1111.03 1534.72 1113.87 1533.13 Q1116.73 1531.54 1120.46 1531.54 Q1126.6 1531.54 1129.75 1535.36 Q1132.9 1539.14 1132.9 1546.53 Z" fill="#000000" fill-rule="nonzero" fill-opacity="1" /><path clip-path="url(#clip750)" d="M1170.24 1533.76 L1170.24 1539.24 Q1167.75 1537.87 1165.24 1537.2 Q1162.76 1536.5 1160.21 1536.5 Q1154.51 1536.5 1151.36 1540.13 Q1148.21 1543.73 1148.21 1550.25 Q1148.21 1556.78 1151.36 1560.4 Q1154.51 1564 1160.21 1564 Q1162.76 1564 1165.24 1563.33 Q1167.75 1562.63 1170.24 1561.26 L1170.24 1566.68 Q1167.78 1567.82 1165.14 1568.39 Q1162.53 1568.97 1159.57 1568.97 Q1151.52 1568.97 1146.78 1563.91 Q1142.04 1558.85 1142.04 1550.25 Q1142.04 1541.53 1146.81 1536.53 Q1151.62 1531.54 1159.95 1531.54 Q1162.66 1531.54 1165.24 1532.11 Q1167.82 1532.65 1170.24 1533.76 Z" fill="#000000" fill-rule="nonzero" fill-opacity="1" /><path clip-path="url(#clip750)" d="M1180.42 1532.4 L1186.28 1532.4 L1186.28 1568.04 L1180.42 1568.04 L1180.42 1532.4 M1180.42 1518.52 L1186.28 1518.52 L1186.28 1525.93 L1180.42 1525.93 L1180.42 1518.52 Z" fill="#000000" fill-rule="nonzero" fill-opacity="1" /><path clip-path="url(#clip750)" d="M1221.99 1537.81 L1221.99 1518.52 L1227.84 1518.52 L1227.84 1568.04 L1221.99 1568.04 L1221.99 1562.7 Q1220.14 1565.88 1217.31 1567.44 Q1214.51 1568.97 1210.56 1568.97 Q1204.1 1568.97 1200.03 1563.81 Q1195.98 1558.65 1195.98 1550.25 Q1195.98 1541.85 1200.03 1536.69 Q1204.1 1531.54 1210.56 1531.54 Q1214.51 1531.54 1217.31 1533.1 Q1220.14 1534.62 1221.99 1537.81 M1202.03 1550.25 Q1202.03 1556.71 1204.67 1560.4 Q1207.35 1564.07 1211.99 1564.07 Q1216.64 1564.07 1219.31 1560.4 Q1221.99 1556.71 1221.99 1550.25 Q1221.99 1543.79 1219.31 1540.13 Q1216.64 1536.44 1211.99 1536.44 Q1207.35 1536.44 1204.67 1540.13 Q1202.03 1543.79 1202.03 1550.25 Z" fill="#000000" fill-rule="nonzero" fill-opacity="1" /><path clip-path="url(#clip750)" d="M1270.4 1548.76 L1270.4 1551.62 L1243.47 1551.62 Q1243.85 1557.67 1247.1 1560.85 Q1250.38 1564 1256.2 1564 Q1259.58 1564 1262.73 1563.17 Q1265.91 1562.35 1269.03 1560.69 L1269.03 1566.23 Q1265.88 1567.57 1262.57 1568.27 Q1259.26 1568.97 1255.85 1568.97 Q1247.32 1568.97 1242.33 1564 Q1237.36 1559.04 1237.36 1550.57 Q1237.36 1541.82 1242.07 1536.69 Q1246.81 1531.54 1254.84 1531.54 Q1262.03 1531.54 1266.2 1536.18 Q1270.4 1540.8 1270.4 1548.76 M1264.54 1547.04 Q1264.48 1542.23 1261.84 1539.37 Q1259.23 1536.5 1254.9 1536.5 Q1250 1536.5 1247.04 1539.27 Q1244.11 1542.04 1243.66 1547.07 L1264.54 1547.04 Z" fill="#000000" fill-rule="nonzero" fill-opacity="1" /><path clip-path="url(#clip750)" d="M1309.64 1546.53 L1309.64 1568.04 L1303.79 1568.04 L1303.79 1546.72 Q1303.79 1541.66 1301.81 1539.14 Q1299.84 1536.63 1295.89 1536.63 Q1291.15 1536.63 1288.41 1539.65 Q1285.68 1542.68 1285.68 1547.9 L1285.68 1568.04 L1279.79 1568.04 L1279.79 1532.4 L1285.68 1532.4 L1285.68 1537.93 Q1287.78 1534.72 1290.61 1533.13 Q1293.48 1531.54 1297.2 1531.54 Q1303.34 1531.54 1306.49 1535.36 Q1309.64 1539.14 1309.64 1546.53 Z" fill="#000000" fill-rule="nonzero" fill-opacity="1" /><path clip-path="url(#clip750)" d="M1327.12 1522.27 L1327.12 1532.4 L1339.18 1532.4 L1339.18 1536.95 L1327.12 1536.95 L1327.12 1556.3 Q1327.12 1560.66 1328.3 1561.9 Q1329.51 1563.14 1333.17 1563.14 L1339.18 1563.14 L1339.18 1568.04 L1333.17 1568.04 Q1326.39 1568.04 1323.81 1565.53 Q1321.23 1562.98 1321.23 1556.3 L1321.23 1536.95 L1316.93 1536.95 L1316.93 1532.4 L1321.23 1532.4 L1321.23 1522.27 L1327.12 1522.27 Z" fill="#000000" fill-rule="nonzero" fill-opacity="1" /><path clip-path="url(#clip750)" d="M1397.24 1546.53 L1397.24 1568.04 L1391.38 1568.04 L1391.38 1546.72 Q1391.38 1541.66 1389.41 1539.14 Q1387.43 1536.63 1383.49 1536.63 Q1378.74 1536.63 1376.01 1539.65 Q1373.27 1542.68 1373.27 1547.9 L1373.27 1568.04 L1367.38 1568.04 L1367.38 1532.4 L1373.27 1532.4 L1373.27 1537.93 Q1375.37 1534.72 1378.2 1533.13 Q1381.07 1531.54 1384.79 1531.54 Q1390.93 1531.54 1394.09 1535.36 Q1397.24 1539.14 1397.24 1546.53 Z" fill="#000000" fill-rule="nonzero" fill-opacity="1" /><path clip-path="url(#clip750)" d="M1439.41 1548.76 L1439.41 1551.62 L1412.48 1551.62 Q1412.86 1557.67 1416.11 1560.85 Q1419.39 1564 1425.21 1564 Q1428.59 1564 1431.74 1563.17 Q1434.92 1562.35 1438.04 1560.69 L1438.04 1566.23 Q1434.89 1567.57 1431.58 1568.27 Q1428.27 1568.97 1424.86 1568.97 Q1416.33 1568.97 1411.34 1564 Q1406.37 1559.04 1406.37 1550.57 Q1406.37 1541.82 1411.08 1536.69 Q1415.82 1531.54 1423.85 1531.54 Q1431.04 1531.54 1435.21 1536.18 Q1439.41 1540.8 1439.41 1548.76 M1433.55 1547.04 Q1433.49 1542.23 1430.85 1539.37 Q1428.24 1536.5 1423.91 1536.5 Q1419.01 1536.5 1416.05 1539.27 Q1413.12 1542.04 1412.67 1547.07 L1433.55 1547.04 Z" fill="#000000" fill-rule="nonzero" fill-opacity="1" /><path clip-path="url(#clip750)" d="M1448.42 1553.98 L1448.42 1532.4 L1454.27 1532.4 L1454.27 1553.75 Q1454.27 1558.81 1456.25 1561.36 Q1458.22 1563.87 1462.17 1563.87 Q1466.91 1563.87 1469.65 1560.85 Q1472.42 1557.83 1472.42 1552.61 L1472.42 1532.4 L1478.27 1532.4 L1478.27 1568.04 L1472.42 1568.04 L1472.42 1562.57 Q1470.28 1565.82 1467.45 1567.41 Q1464.65 1568.97 1460.93 1568.97 Q1454.78 1568.97 1451.6 1565.15 Q1448.42 1561.33 1448.42 1553.98 M1463.15 1531.54 L1463.15 1531.54 Z" fill="#000000" fill-rule="nonzero" fill-opacity="1" /><path clip-path="url(#clip750)" d="M1496.13 1522.27 L1496.13 1532.4 L1508.19 1532.4 L1508.19 1536.95 L1496.13 1536.95 L1496.13 1556.3 Q1496.13 1560.66 1497.31 1561.9 Q1498.51 1563.14 1502.18 1563.14 L1508.19 1563.14 L1508.19 1568.04 L1502.18 1568.04 Q1495.4 1568.04 1492.82 1565.53 Q1490.24 1562.98 1490.24 1556.3 L1490.24 1536.95 L1485.94 1536.95 L1485.94 1532.4 L1490.24 1532.4 L1490.24 1522.27 L1496.13 1522.27 Z" fill="#000000" fill-rule="nonzero" fill-opacity="1" /><path clip-path="url(#clip750)" d="M1536.55 1537.87 Q1535.56 1537.3 1534.39 1537.04 Q1533.24 1536.76 1531.84 1536.76 Q1526.87 1536.76 1524.2 1540 Q1521.56 1543.22 1521.56 1549.27 L1521.56 1568.04 L1515.67 1568.04 L1515.67 1532.4 L1521.56 1532.4 L1521.56 1537.93 Q1523.4 1534.69 1526.36 1533.13 Q1529.32 1531.54 1533.56 1531.54 Q1534.16 1531.54 1534.89 1531.63 Q1535.63 1531.7 1536.52 1531.85 L1536.55 1537.87 Z" fill="#000000" fill-rule="nonzero" fill-opacity="1" /><path clip-path="url(#clip750)" d="M1555.07 1536.5 Q1550.36 1536.5 1547.63 1540.19 Q1544.89 1543.85 1544.89 1550.25 Q1544.89 1556.65 1547.59 1560.34 Q1550.33 1564 1555.07 1564 Q1559.75 1564 1562.49 1560.31 Q1565.23 1556.62 1565.23 1550.25 Q1565.23 1543.92 1562.49 1540.23 Q1559.75 1536.5 1555.07 1536.5 M1555.07 1531.54 Q1562.71 1531.54 1567.07 1536.5 Q1571.43 1541.47 1571.43 1550.25 Q1571.43 1559 1567.07 1564 Q1562.71 1568.97 1555.07 1568.97 Q1547.4 1568.97 1543.04 1564 Q1538.71 1559 1538.71 1550.25 Q1538.71 1541.47 1543.04 1536.5 Q1547.4 1531.54 1555.07 1531.54 Z" fill="#000000" fill-rule="nonzero" fill-opacity="1" /><path clip-path="url(#clip750)" d="M1610.77 1546.53 L1610.77 1568.04 L1604.92 1568.04 L1604.92 1546.72 Q1604.92 1541.66 1602.94 1539.14 Q1600.97 1536.63 1597.02 1536.63 Q1592.28 1536.63 1589.54 1539.65 Q1586.81 1542.68 1586.81 1547.9 L1586.81 1568.04 L1580.92 1568.04 L1580.92 1532.4 L1586.81 1532.4 L1586.81 1537.93 Q1588.91 1534.72 1591.74 1533.13 Q1594.61 1531.54 1598.33 1531.54 Q1604.47 1531.54 1607.62 1535.36 Q1610.77 1539.14 1610.77 1546.53 Z" fill="#000000" fill-rule="nonzero" fill-opacity="1" /><path clip-path="url(#clip750)" d="M1645.18 1533.45 L1645.18 1538.98 Q1642.7 1537.71 1640.02 1537.07 Q1637.35 1536.44 1634.49 1536.44 Q1630.13 1536.44 1627.93 1537.77 Q1625.77 1539.11 1625.77 1541.79 Q1625.77 1543.82 1627.32 1545 Q1628.88 1546.15 1633.6 1547.2 L1635.6 1547.64 Q1641.84 1548.98 1644.45 1551.43 Q1647.09 1553.85 1647.09 1558.21 Q1647.09 1563.17 1643.14 1566.07 Q1639.23 1568.97 1632.35 1568.97 Q1629.49 1568.97 1626.37 1568.39 Q1623.28 1567.85 1619.85 1566.74 L1619.85 1560.69 Q1623.09 1562.38 1626.24 1563.24 Q1629.39 1564.07 1632.48 1564.07 Q1636.62 1564.07 1638.85 1562.66 Q1641.07 1561.23 1641.07 1558.65 Q1641.07 1556.27 1639.45 1554.99 Q1637.86 1553.72 1632.42 1552.54 L1630.38 1552.07 Q1624.94 1550.92 1622.52 1548.56 Q1620.1 1546.18 1620.1 1542.04 Q1620.1 1537.01 1623.66 1534.27 Q1627.23 1531.54 1633.79 1531.54 Q1637.03 1531.54 1639.9 1532.01 Q1642.76 1532.49 1645.18 1533.45 Z" fill="#000000" fill-rule="nonzero" fill-opacity="1" /><path clip-path="url(#clip750)" d="M1691.2 1518.58 Q1686.94 1525.9 1684.87 1533.06 Q1682.8 1540.23 1682.8 1547.58 Q1682.8 1554.93 1684.87 1562.16 Q1686.97 1569.35 1691.2 1576.64 L1686.11 1576.64 Q1681.34 1569.16 1678.95 1561.93 Q1676.6 1554.71 1676.6 1547.58 Q1676.6 1540.48 1678.95 1533.29 Q1681.31 1526.09 1686.11 1518.58 L1691.2 1518.58 Z" fill="#000000" fill-rule="nonzero" fill-opacity="1" /><path clip-path="url(#clip750)" d="M1702.82 1520.52 L1712.4 1520.52 L1724.53 1552.86 L1736.72 1520.52 L1746.3 1520.52 L1746.3 1568.04 L1740.03 1568.04 L1740.03 1526.32 L1727.78 1558.91 L1721.31 1558.91 L1709.06 1526.32 L1709.06 1568.04 L1702.82 1568.04 L1702.82 1520.52 Z" fill="#000000" fill-rule="nonzero" fill-opacity="1" /><path clip-path="url(#clip750)" d="M1789.3 1548.76 L1789.3 1551.62 L1762.37 1551.62 Q1762.76 1557.67 1766 1560.85 Q1769.28 1564 1775.1 1564 Q1778.48 1564 1781.63 1563.17 Q1784.81 1562.35 1787.93 1560.69 L1787.93 1566.23 Q1784.78 1567.57 1781.47 1568.27 Q1778.16 1568.97 1774.75 1568.97 Q1766.22 1568.97 1761.23 1564 Q1756.26 1559.04 1756.26 1550.57 Q1756.26 1541.82 1760.97 1536.69 Q1765.72 1531.54 1773.74 1531.54 Q1780.93 1531.54 1785.1 1536.18 Q1789.3 1540.8 1789.3 1548.76 M1783.44 1547.04 Q1783.38 1542.23 1780.74 1539.37 Q1778.13 1536.5 1773.8 1536.5 Q1768.9 1536.5 1765.94 1539.27 Q1763.01 1542.04 1762.56 1547.07 L1783.44 1547.04 Z" fill="#000000" fill-rule="nonzero" fill-opacity="1" /><path clip-path="url(#clip750)" d="M1811.42 1568.04 L1793.28 1520.52 L1799.99 1520.52 L1815.05 1560.53 L1830.14 1520.52 L1836.82 1520.52 L1818.71 1568.04 L1811.42 1568.04 Z" fill="#000000" fill-rule="nonzero" fill-opacity="1" /><path clip-path="url(#clip750)" d="M1842.58 1518.58 L1847.67 1518.58 Q1852.45 1526.09 1854.8 1533.29 Q1857.19 1540.48 1857.19 1547.58 Q1857.19 1554.71 1854.8 1561.93 Q1852.45 1569.16 1847.67 1576.64 L1842.58 1576.64 Q1846.81 1569.35 1848.88 1562.16 Q1850.98 1554.93 1850.98 1547.58 Q1850.98 1540.23 1848.88 1533.06 Q1846.81 1525.9 1842.58 1518.58 Z" fill="#000000" fill-rule="nonzero" fill-opacity="1" /><polyline clip-path="url(#clip750)" style="stroke:#000000; stroke-linecap:round; stroke-linejoin:round; stroke-width:4; stroke-opacity:1; fill:none" points="257.366,1423.18 257.366,123.472 "/>
<polyline clip-path="url(#clip750)" style="stroke:#000000; stroke-linecap:round; stroke-linejoin:round; stroke-width:4; stroke-opacity:1; fill:none" points="257.366,1396.79 276.264,1396.79 "/>
<polyline clip-path="url(#clip750)" style="stroke:#000000; stroke-linecap:round; stroke-linejoin:round; stroke-width:4; stroke-opacity:1; fill:none" points="257.366,1196.49 276.264,1196.49 "/>
<polyline clip-path="url(#clip750)" style="stroke:#000000; stroke-linecap:round; stroke-linejoin:round; stroke-width:4; stroke-opacity:1; fill:none" points="257.366,996.194 276.264,996.194 "/>
<polyline clip-path="url(#clip750)" style="stroke:#000000; stroke-linecap:round; stroke-linejoin:round; stroke-width:4; stroke-opacity:1; fill:none" points="257.366,795.898 276.264,795.898 "/>
<polyline clip-path="url(#clip750)" style="stroke:#000000; stroke-linecap:round; stroke-linejoin:round; stroke-width:4; stroke-opacity:1; fill:none" points="257.366,595.602 276.264,595.602 "/>
<polyline clip-path="url(#clip750)" style="stroke:#000000; stroke-linecap:round; stroke-linejoin:round; stroke-width:4; stroke-opacity:1; fill:none" points="257.366,395.305 276.264,395.305 "/>
<polyline clip-path="url(#clip750)" style="stroke:#000000; stroke-linecap:round; stroke-linejoin:round; stroke-width:4; stroke-opacity:1; fill:none" points="257.366,195.009 276.264,195.009 "/>
<path clip-path="url(#clip750)" d="M116.019 1397.24 L145.695 1397.24 L145.695 1401.17 L116.019 1401.17 L116.019 1397.24 Z" fill="#000000" fill-rule="nonzero" fill-opacity="1" /><path clip-path="url(#clip750)" d="M156.598 1410.13 L164.237 1410.13 L164.237 1383.77 L155.927 1385.43 L155.927 1381.17 L164.19 1379.51 L168.866 1379.51 L168.866 1410.13 L176.505 1410.13 L176.505 1414.07 L156.598 1414.07 L156.598 1410.13 Z" fill="#000000" fill-rule="nonzero" fill-opacity="1" /><path clip-path="url(#clip750)" d="M185.95 1408.19 L190.834 1408.19 L190.834 1414.07 L185.95 1414.07 L185.95 1408.19 Z" fill="#000000" fill-rule="nonzero" fill-opacity="1" /><path clip-path="url(#clip750)" d="M205.047 1410.13 L221.366 1410.13 L221.366 1414.07 L199.422 1414.07 L199.422 1410.13 Q202.084 1407.38 206.667 1402.75 Q211.274 1398.1 212.454 1396.75 Q214.699 1394.23 215.579 1392.49 Q216.482 1390.73 216.482 1389.04 Q216.482 1386.29 214.537 1384.55 Q212.616 1382.82 209.514 1382.82 Q207.315 1382.82 204.862 1383.58 Q202.431 1384.35 199.653 1385.9 L199.653 1381.17 Q202.477 1380.04 204.931 1379.46 Q207.385 1378.88 209.422 1378.88 Q214.792 1378.88 217.986 1381.57 Q221.181 1384.25 221.181 1388.74 Q221.181 1390.87 220.371 1392.79 Q219.584 1394.69 217.477 1397.28 Q216.898 1397.96 213.797 1401.17 Q210.695 1404.37 205.047 1410.13 Z" fill="#000000" fill-rule="nonzero" fill-opacity="1" /><path clip-path="url(#clip750)" d="M115.649 1196.94 L145.325 1196.94 L145.325 1200.88 L115.649 1200.88 L115.649 1196.94 Z" fill="#000000" fill-rule="nonzero" fill-opacity="1" /><path clip-path="url(#clip750)" d="M156.228 1209.84 L163.866 1209.84 L163.866 1183.47 L155.556 1185.14 L155.556 1180.88 L163.82 1179.21 L168.496 1179.21 L168.496 1209.84 L176.135 1209.84 L176.135 1213.77 L156.228 1213.77 L156.228 1209.84 Z" fill="#000000" fill-rule="nonzero" fill-opacity="1" /><path clip-path="url(#clip750)" d="M185.579 1207.89 L190.463 1207.89 L190.463 1213.77 L185.579 1213.77 L185.579 1207.89 Z" fill="#000000" fill-rule="nonzero" fill-opacity="1" /><path clip-path="url(#clip750)" d="M201.459 1209.84 L209.098 1209.84 L209.098 1183.47 L200.787 1185.14 L200.787 1180.88 L209.051 1179.21 L213.727 1179.21 L213.727 1209.84 L221.366 1209.84 L221.366 1213.77 L201.459 1213.77 L201.459 1209.84 Z" fill="#000000" fill-rule="nonzero" fill-opacity="1" /><path clip-path="url(#clip750)" d="M114.422 996.646 L144.098 996.646 L144.098 1000.58 L114.422 1000.58 L114.422 996.646 Z" fill="#000000" fill-rule="nonzero" fill-opacity="1" /><path clip-path="url(#clip750)" d="M155.001 1009.54 L162.64 1009.54 L162.64 983.174 L154.329 984.84 L154.329 980.581 L162.593 978.914 L167.269 978.914 L167.269 1009.54 L174.908 1009.54 L174.908 1013.47 L155.001 1013.47 L155.001 1009.54 Z" fill="#000000" fill-rule="nonzero" fill-opacity="1" /><path clip-path="url(#clip750)" d="M184.352 1007.59 L189.237 1007.59 L189.237 1013.47 L184.352 1013.47 L184.352 1007.59 Z" fill="#000000" fill-rule="nonzero" fill-opacity="1" /><path clip-path="url(#clip750)" d="M209.422 981.993 Q205.811 981.993 203.982 985.558 Q202.176 989.1 202.176 996.229 Q202.176 1003.34 203.982 1006.9 Q205.811 1010.44 209.422 1010.44 Q213.056 1010.44 214.861 1006.9 Q216.69 1003.34 216.69 996.229 Q216.69 989.1 214.861 985.558 Q213.056 981.993 209.422 981.993 M209.422 978.289 Q215.232 978.289 218.287 982.896 Q221.366 987.479 221.366 996.229 Q221.366 1004.96 218.287 1009.56 Q215.232 1014.15 209.422 1014.15 Q203.612 1014.15 200.533 1009.56 Q197.477 1004.96 197.477 996.229 Q197.477 987.479 200.533 982.896 Q203.612 978.289 209.422 978.289 Z" fill="#000000" fill-rule="nonzero" fill-opacity="1" /><path clip-path="url(#clip750)" d="M114.607 796.349 L144.283 796.349 L144.283 800.285 L114.607 800.285 L114.607 796.349 Z" fill="#000000" fill-rule="nonzero" fill-opacity="1" /><path clip-path="url(#clip750)" d="M164.376 781.697 Q160.765 781.697 158.936 785.262 Q157.13 788.803 157.13 795.933 Q157.13 803.039 158.936 806.604 Q160.765 810.146 164.376 810.146 Q168.01 810.146 169.815 806.604 Q171.644 803.039 171.644 795.933 Q171.644 788.803 169.815 785.262 Q168.01 781.697 164.376 781.697 M164.376 777.993 Q170.186 777.993 173.241 782.6 Q176.32 787.183 176.32 795.933 Q176.32 804.66 173.241 809.266 Q170.186 813.849 164.376 813.849 Q158.565 813.849 155.487 809.266 Q152.431 804.66 152.431 795.933 Q152.431 787.183 155.487 782.6 Q158.565 777.993 164.376 777.993 Z" fill="#000000" fill-rule="nonzero" fill-opacity="1" /><path clip-path="url(#clip750)" d="M184.538 807.298 L189.422 807.298 L189.422 813.178 L184.538 813.178 L184.538 807.298 Z" fill="#000000" fill-rule="nonzero" fill-opacity="1" /><path clip-path="url(#clip750)" d="M199.746 812.46 L199.746 808.201 Q201.505 809.035 203.311 809.474 Q205.116 809.914 206.852 809.914 Q211.482 809.914 213.912 806.812 Q216.366 803.687 216.713 797.345 Q215.371 799.336 213.311 800.4 Q211.25 801.465 208.75 801.465 Q203.565 801.465 200.533 798.34 Q197.524 795.192 197.524 789.752 Q197.524 784.428 200.672 781.211 Q203.82 777.993 209.051 777.993 Q215.047 777.993 218.195 782.6 Q221.366 787.183 221.366 795.933 Q221.366 804.104 217.477 808.988 Q213.611 813.849 207.061 813.849 Q205.301 813.849 203.496 813.502 Q201.69 813.155 199.746 812.46 M209.051 797.808 Q212.199 797.808 214.028 795.655 Q215.88 793.502 215.88 789.752 Q215.88 786.025 214.028 783.873 Q212.199 781.697 209.051 781.697 Q205.903 781.697 204.051 783.873 Q202.223 786.025 202.223 789.752 Q202.223 793.502 204.051 795.655 Q205.903 797.808 209.051 797.808 Z" fill="#000000" fill-rule="nonzero" fill-opacity="1" /><path clip-path="url(#clip750)" d="M114.515 596.053 L144.191 596.053 L144.191 599.988 L114.515 599.988 L114.515 596.053 Z" fill="#000000" fill-rule="nonzero" fill-opacity="1" /><path clip-path="url(#clip750)" d="M164.283 581.4 Q160.672 581.4 158.843 584.965 Q157.038 588.507 157.038 595.636 Q157.038 602.743 158.843 606.308 Q160.672 609.849 164.283 609.849 Q167.917 609.849 169.723 606.308 Q171.552 602.743 171.552 595.636 Q171.552 588.507 169.723 584.965 Q167.917 581.4 164.283 581.4 M164.283 577.697 Q170.093 577.697 173.149 582.303 Q176.227 586.886 176.227 595.636 Q176.227 604.363 173.149 608.97 Q170.093 613.553 164.283 613.553 Q158.473 613.553 155.394 608.97 Q152.339 604.363 152.339 595.636 Q152.339 586.886 155.394 582.303 Q158.473 577.697 164.283 577.697 Z" fill="#000000" fill-rule="nonzero" fill-opacity="1" /><path clip-path="url(#clip750)" d="M184.445 607.002 L189.329 607.002 L189.329 612.882 L184.445 612.882 L184.445 607.002 Z" fill="#000000" fill-rule="nonzero" fill-opacity="1" /><path clip-path="url(#clip750)" d="M209.514 596.47 Q206.181 596.47 204.26 598.252 Q202.362 600.035 202.362 603.159 Q202.362 606.284 204.26 608.067 Q206.181 609.849 209.514 609.849 Q212.848 609.849 214.769 608.067 Q216.69 606.261 216.69 603.159 Q216.69 600.035 214.769 598.252 Q212.871 596.47 209.514 596.47 M204.838 594.479 Q201.829 593.738 200.139 591.678 Q198.473 589.618 198.473 586.655 Q198.473 582.511 201.412 580.104 Q204.375 577.697 209.514 577.697 Q214.676 577.697 217.616 580.104 Q220.556 582.511 220.556 586.655 Q220.556 589.618 218.866 591.678 Q217.199 593.738 214.213 594.479 Q217.593 595.266 219.468 597.558 Q221.366 599.849 221.366 603.159 Q221.366 608.183 218.287 610.868 Q215.232 613.553 209.514 613.553 Q203.797 613.553 200.718 610.868 Q197.662 608.183 197.662 603.159 Q197.662 599.849 199.561 597.558 Q201.459 595.266 204.838 594.479 M203.125 587.095 Q203.125 589.78 204.792 591.285 Q206.482 592.789 209.514 592.789 Q212.524 592.789 214.213 591.285 Q215.926 589.78 215.926 587.095 Q215.926 584.41 214.213 582.905 Q212.524 581.4 209.514 581.4 Q206.482 581.4 204.792 582.905 Q203.125 584.41 203.125 587.095 Z" fill="#000000" fill-rule="nonzero" fill-opacity="1" /><path clip-path="url(#clip750)" d="M115.325 395.757 L145.001 395.757 L145.001 399.692 L115.325 399.692 L115.325 395.757 Z" fill="#000000" fill-rule="nonzero" fill-opacity="1" /><path clip-path="url(#clip750)" d="M165.093 381.104 Q161.482 381.104 159.653 384.669 Q157.848 388.21 157.848 395.34 Q157.848 402.446 159.653 406.011 Q161.482 409.553 165.093 409.553 Q168.727 409.553 170.533 406.011 Q172.362 402.446 172.362 395.34 Q172.362 388.21 170.533 384.669 Q168.727 381.104 165.093 381.104 M165.093 377.4 Q170.903 377.4 173.959 382.007 Q177.038 386.59 177.038 395.34 Q177.038 404.067 173.959 408.673 Q170.903 413.257 165.093 413.257 Q159.283 413.257 156.204 408.673 Q153.149 404.067 153.149 395.34 Q153.149 386.59 156.204 382.007 Q159.283 377.4 165.093 377.4 Z" fill="#000000" fill-rule="nonzero" fill-opacity="1" /><path clip-path="url(#clip750)" d="M185.255 406.706 L190.139 406.706 L190.139 412.585 L185.255 412.585 L185.255 406.706 Z" fill="#000000" fill-rule="nonzero" fill-opacity="1" /><path clip-path="url(#clip750)" d="M199.144 378.025 L221.366 378.025 L221.366 380.016 L208.82 412.585 L203.936 412.585 L215.741 381.96 L199.144 381.96 L199.144 378.025 Z" fill="#000000" fill-rule="nonzero" fill-opacity="1" /><path clip-path="url(#clip750)" d="M114.26 195.46 L143.936 195.46 L143.936 199.395 L114.26 199.395 L114.26 195.46 Z" fill="#000000" fill-rule="nonzero" fill-opacity="1" /><path clip-path="url(#clip750)" d="M164.028 180.808 Q160.417 180.808 158.589 184.372 Q156.783 187.914 156.783 195.044 Q156.783 202.15 158.589 205.715 Q160.417 209.257 164.028 209.257 Q167.663 209.257 169.468 205.715 Q171.297 202.15 171.297 195.044 Q171.297 187.914 169.468 184.372 Q167.663 180.808 164.028 180.808 M164.028 177.104 Q169.839 177.104 172.894 181.71 Q175.973 186.294 175.973 195.044 Q175.973 203.77 172.894 208.377 Q169.839 212.96 164.028 212.96 Q158.218 212.96 155.14 208.377 Q152.084 203.77 152.084 195.044 Q152.084 186.294 155.14 181.71 Q158.218 177.104 164.028 177.104 Z" fill="#000000" fill-rule="nonzero" fill-opacity="1" /><path clip-path="url(#clip750)" d="M184.19 206.409 L189.075 206.409 L189.075 212.289 L184.19 212.289 L184.19 206.409 Z" fill="#000000" fill-rule="nonzero" fill-opacity="1" /><path clip-path="url(#clip750)" d="M209.838 193.145 Q206.69 193.145 204.838 195.298 Q203.01 197.451 203.01 201.201 Q203.01 204.928 204.838 207.104 Q206.69 209.257 209.838 209.257 Q212.986 209.257 214.815 207.104 Q216.667 204.928 216.667 201.201 Q216.667 197.451 214.815 195.298 Q212.986 193.145 209.838 193.145 M219.121 178.493 L219.121 182.752 Q217.361 181.919 215.556 181.479 Q213.774 181.039 212.014 181.039 Q207.385 181.039 204.931 184.164 Q202.5 187.289 202.153 193.608 Q203.519 191.595 205.579 190.53 Q207.639 189.442 210.116 189.442 Q215.324 189.442 218.334 192.613 Q221.366 195.761 221.366 201.201 Q221.366 206.525 218.218 209.743 Q215.07 212.96 209.838 212.96 Q203.843 212.96 200.672 208.377 Q197.5 203.77 197.5 195.044 Q197.5 186.849 201.389 181.988 Q205.278 177.104 211.829 177.104 Q213.588 177.104 215.371 177.451 Q217.176 177.798 219.121 178.493 Z" fill="#000000" fill-rule="nonzero" fill-opacity="1" /><path clip-path="url(#clip750)" d="M41.3104 1298.48 L58.7206 1298.48 L58.7206 1288.17 Q58.7206 1282.98 56.5881 1280.5 Q54.4238 1277.98 49.9996 1277.98 Q45.5436 1277.98 43.4429 1280.5 Q41.3104 1282.98 41.3104 1288.17 L41.3104 1298.48 M21.7677 1298.48 L36.0905 1298.48 L36.0905 1288.96 Q36.0905 1284.25 34.34 1281.96 Q32.5576 1279.64 28.9291 1279.64 Q25.3325 1279.64 23.5501 1281.96 Q21.7677 1284.25 21.7677 1288.96 L21.7677 1298.48 M16.4842 1304.91 L16.4842 1288.49 Q16.4842 1281.13 19.5397 1277.16 Q22.5952 1273.18 28.2289 1273.18 Q32.5894 1273.18 35.1675 1275.21 Q37.7456 1277.25 38.3822 1281.2 Q39.4007 1276.46 42.6472 1273.85 Q45.8619 1271.2 50.6998 1271.2 Q57.0655 1271.2 60.5348 1275.53 Q64.0042 1279.86 64.0042 1287.85 L64.0042 1304.91 L16.4842 1304.91 Z" fill="#000000" fill-rule="nonzero" fill-opacity="1" /><path clip-path="url(#clip750)" d="M28.3562 1260.45 L28.3562 1254.59 L64.0042 1254.59 L64.0042 1260.45 L28.3562 1260.45 M14.479 1260.45 L14.479 1254.59 L21.895 1254.59 L21.895 1260.45 L14.479 1260.45 Z" fill="#000000" fill-rule="nonzero" fill-opacity="1" /><path clip-path="url(#clip750)" d="M46.0847 1226.13 Q46.0847 1233.23 47.7079 1235.97 Q49.3312 1238.71 53.2461 1238.71 Q56.3653 1238.71 58.2114 1236.67 Q60.0256 1234.6 60.0256 1231.07 Q60.0256 1226.2 56.5881 1223.27 Q53.1188 1220.31 47.3897 1220.31 L46.0847 1220.31 L46.0847 1226.13 M43.6657 1214.45 L64.0042 1214.45 L64.0042 1220.31 L58.5933 1220.31 Q61.8398 1222.32 63.3994 1225.31 Q64.9272 1228.3 64.9272 1232.63 Q64.9272 1238.1 61.8716 1241.35 Q58.7843 1244.56 53.6281 1244.56 Q47.6125 1244.56 44.5569 1240.55 Q41.5014 1236.51 41.5014 1228.52 L41.5014 1220.31 L40.9285 1220.31 Q36.8862 1220.31 34.6901 1222.98 Q32.4621 1225.63 32.4621 1230.43 Q32.4621 1233.49 33.1941 1236.38 Q33.9262 1239.28 35.3903 1241.95 L29.9795 1241.95 Q28.7381 1238.74 28.1334 1235.71 Q27.4968 1232.69 27.4968 1229.83 Q27.4968 1222.09 31.5072 1218.27 Q35.5176 1214.45 43.6657 1214.45 Z" fill="#000000" fill-rule="nonzero" fill-opacity="1" /><path clip-path="url(#clip750)" d="M29.4065 1179.66 L34.9447 1179.66 Q33.6716 1182.15 33.035 1184.82 Q32.3984 1187.49 32.3984 1190.36 Q32.3984 1194.72 33.7352 1196.92 Q35.072 1199.08 37.7456 1199.08 Q39.7826 1199.08 40.9603 1197.52 Q42.1061 1195.96 43.1565 1191.25 L43.6021 1189.25 Q44.9389 1183.01 47.3897 1180.4 Q49.8086 1177.76 54.1691 1177.76 Q59.1344 1177.76 62.0308 1181.7 Q64.9272 1185.62 64.9272 1192.49 Q64.9272 1195.36 64.3543 1198.48 Q63.8132 1201.56 62.6992 1205 L56.6518 1205 Q58.3387 1201.75 59.198 1198.6 Q60.0256 1195.45 60.0256 1192.36 Q60.0256 1188.23 58.6251 1186 Q57.1929 1183.77 54.6147 1183.77 Q52.2276 1183.77 50.9545 1185.39 Q49.6813 1186.99 48.5037 1192.43 L48.0262 1194.47 Q46.8804 1199.91 44.5251 1202.33 Q42.138 1204.75 38.0002 1204.75 Q32.9713 1204.75 30.2341 1201.18 Q27.4968 1197.62 27.4968 1191.06 Q27.4968 1187.81 27.9743 1184.95 Q28.4517 1182.08 29.4065 1179.66 Z" fill="#000000" fill-rule="nonzero" fill-opacity="1" /><path clip-path="url(#clip750)" d="M28.3562 1147.71 L28.3562 1141.85 L64.0042 1141.85 L64.0042 1147.71 L28.3562 1147.71 M14.479 1147.71 L14.479 1141.85 L21.895 1141.85 L21.895 1147.71 L14.479 1147.71 Z" fill="#000000" fill-rule="nonzero" fill-opacity="1" /><path clip-path="url(#clip750)" d="M42.4881 1099.97 L64.0042 1099.97 L64.0042 1105.82 L42.679 1105.82 Q37.6183 1105.82 35.1038 1107.8 Q32.5894 1109.77 32.5894 1113.72 Q32.5894 1118.46 35.6131 1121.2 Q38.6368 1123.93 43.8567 1123.93 L64.0042 1123.93 L64.0042 1129.82 L28.3562 1129.82 L28.3562 1123.93 L33.8944 1123.93 Q30.6797 1121.83 29.0883 1119 Q27.4968 1116.14 27.4968 1112.41 Q27.4968 1106.27 31.3163 1103.12 Q35.1038 1099.97 42.4881 1099.97 Z" fill="#000000" fill-rule="nonzero" fill-opacity="1" /><path clip-path="url(#clip750)" d="M33.7671 1044.11 L14.479 1044.11 L14.479 1038.25 L64.0042 1038.25 L64.0042 1044.11 L58.657 1044.11 Q61.8398 1045.95 63.3994 1048.79 Q64.9272 1051.59 64.9272 1055.53 Q64.9272 1061.99 59.771 1066.07 Q54.6147 1070.11 46.212 1070.11 Q37.8093 1070.11 32.6531 1066.07 Q27.4968 1061.99 27.4968 1055.53 Q27.4968 1051.59 29.0564 1048.79 Q30.5842 1045.95 33.7671 1044.11 M46.212 1064.06 Q52.6732 1064.06 56.3653 1061.42 Q60.0256 1058.75 60.0256 1054.1 Q60.0256 1049.45 56.3653 1046.78 Q52.6732 1044.11 46.212 1044.11 Q39.7508 1044.11 36.0905 1046.78 Q32.3984 1049.45 32.3984 1054.1 Q32.3984 1058.75 36.0905 1061.42 Q39.7508 1064.06 46.212 1064.06 Z" fill="#000000" fill-rule="nonzero" fill-opacity="1" /><path clip-path="url(#clip750)" d="M44.7161 995.696 L47.5806 995.696 L47.5806 1022.62 Q53.6281 1022.24 56.8109 1018.99 Q59.9619 1015.72 59.9619 1009.89 Q59.9619 1006.52 59.1344 1003.37 Q58.3069 1000.18 56.6518 997.065 L62.1899 997.065 Q63.5267 1000.22 64.227 1003.53 Q64.9272 1006.84 64.9272 1010.24 Q64.9272 1018.77 59.9619 1023.77 Q54.9967 1028.73 46.5303 1028.73 Q37.7774 1028.73 32.6531 1024.02 Q27.4968 1019.28 27.4968 1011.26 Q27.4968 1004.07 32.1438 999.897 Q36.7589 995.696 44.7161 995.696 M42.9973 1001.55 Q38.1912 1001.62 35.3266 1004.26 Q32.4621 1006.87 32.4621 1011.2 Q32.4621 1016.1 35.2312 1019.06 Q38.0002 1021.99 43.0292 1022.43 L42.9973 1001.55 Z" fill="#000000" fill-rule="nonzero" fill-opacity="1" /><path clip-path="url(#clip750)" d="M18.2347 980.291 L28.3562 980.291 L28.3562 968.228 L32.9077 968.228 L32.9077 980.291 L52.2594 980.291 Q56.6199 980.291 57.8613 979.113 Q59.1026 977.904 59.1026 974.244 L59.1026 968.228 L64.0042 968.228 L64.0042 974.244 Q64.0042 981.023 61.4897 983.601 Q58.9434 986.179 52.2594 986.179 L32.9077 986.179 L32.9077 990.476 L28.3562 990.476 L28.3562 986.179 L18.2347 986.179 L18.2347 980.291 Z" fill="#000000" fill-rule="nonzero" fill-opacity="1" /><path clip-path="url(#clip750)" d="M44.7161 930.034 L47.5806 930.034 L47.5806 956.961 Q53.6281 956.579 56.8109 953.332 Q59.9619 950.054 59.9619 944.229 Q59.9619 940.855 59.1344 937.704 Q58.3069 934.522 56.6518 931.402 L62.1899 931.402 Q63.5267 934.553 64.227 937.864 Q64.9272 941.174 64.9272 944.579 Q64.9272 953.109 59.9619 958.107 Q54.9967 963.072 46.5303 963.072 Q37.7774 963.072 32.6531 958.361 Q27.4968 953.619 27.4968 945.598 Q27.4968 938.405 32.1438 934.235 Q36.7589 930.034 44.7161 930.034 M42.9973 935.89 Q38.1912 935.954 35.3266 938.596 Q32.4621 941.206 32.4621 945.534 Q32.4621 950.436 35.2312 953.396 Q38.0002 956.324 43.0292 956.77 L42.9973 935.89 Z" fill="#000000" fill-rule="nonzero" fill-opacity="1" /><path clip-path="url(#clip750)" d="M33.8307 899.765 Q33.2578 900.752 33.0032 901.929 Q32.7167 903.075 32.7167 904.475 Q32.7167 909.441 35.9632 912.114 Q39.1779 914.756 45.2253 914.756 L64.0042 914.756 L64.0042 920.644 L28.3562 920.644 L28.3562 914.756 L33.8944 914.756 Q30.6479 912.91 29.0883 909.95 Q27.4968 906.99 27.4968 902.757 Q27.4968 902.152 27.5923 901.42 Q27.656 900.688 27.8151 899.797 L33.8307 899.765 Z" fill="#000000" fill-rule="nonzero" fill-opacity="1" /><path clip-path="url(#clip750)" d="M35.1993 867.013 Q31.2526 864.817 29.3747 861.762 Q27.4968 858.706 27.4968 854.568 Q27.4968 848.998 31.4117 845.975 Q35.2948 842.951 42.4881 842.951 L64.0042 842.951 L64.0042 848.839 L42.679 848.839 Q37.5546 848.839 35.072 850.653 Q32.5894 852.468 32.5894 856.192 Q32.5894 860.743 35.6131 863.385 Q38.6368 866.027 43.8567 866.027 L64.0042 866.027 L64.0042 871.915 L42.679 871.915 Q37.5228 871.915 35.072 873.729 Q32.5894 875.543 32.5894 879.331 Q32.5894 883.819 35.6449 886.461 Q38.6686 889.102 43.8567 889.102 L64.0042 889.102 L64.0042 894.991 L28.3562 894.991 L28.3562 889.102 L33.8944 889.102 Q30.616 887.097 29.0564 884.296 Q27.4968 881.495 27.4968 877.644 Q27.4968 873.761 29.4702 871.055 Q31.4436 868.318 35.1993 867.013 Z" fill="#000000" fill-rule="nonzero" fill-opacity="1" /><path clip-path="url(#clip750)" d="M28.3562 831.27 L28.3562 825.413 L64.0042 825.413 L64.0042 831.27 L28.3562 831.27 M14.479 831.27 L14.479 825.413 L21.895 825.413 L21.895 831.27 L14.479 831.27 Z" fill="#000000" fill-rule="nonzero" fill-opacity="1" /><path clip-path="url(#clip750)" d="M42.4881 783.527 L64.0042 783.527 L64.0042 789.383 L42.679 789.383 Q37.6183 789.383 35.1038 791.357 Q32.5894 793.33 32.5894 797.277 Q32.5894 802.019 35.6131 804.757 Q38.6368 807.494 43.8567 807.494 L64.0042 807.494 L64.0042 813.382 L28.3562 813.382 L28.3562 807.494 L33.8944 807.494 Q30.6797 805.393 29.0883 802.56 Q27.4968 799.696 27.4968 795.972 Q27.4968 789.829 31.3163 786.678 Q35.1038 783.527 42.4881 783.527 Z" fill="#000000" fill-rule="nonzero" fill-opacity="1" /><path clip-path="url(#clip750)" d="M44.7161 741.354 L47.5806 741.354 L47.5806 768.281 Q53.6281 767.899 56.8109 764.653 Q59.9619 761.374 59.9619 755.55 Q59.9619 752.176 59.1344 749.025 Q58.3069 745.842 56.6518 742.723 L62.1899 742.723 Q63.5267 745.874 64.227 749.184 Q64.9272 752.494 64.9272 755.9 Q64.9272 764.43 59.9619 769.427 Q54.9967 774.392 46.5303 774.392 Q37.7774 774.392 32.6531 769.682 Q27.4968 764.939 27.4968 756.918 Q27.4968 749.725 32.1438 745.556 Q36.7589 741.354 44.7161 741.354 M42.9973 747.211 Q38.1912 747.274 35.3266 749.916 Q32.4621 752.526 32.4621 756.855 Q32.4621 761.756 35.2312 764.716 Q38.0002 767.645 43.0292 768.09 L42.9973 747.211 Z" fill="#000000" fill-rule="nonzero" fill-opacity="1" /><path clip-path="url(#clip750)" d="M33.7671 708.284 L14.479 708.284 L14.479 702.428 L64.0042 702.428 L64.0042 708.284 L58.657 708.284 Q61.8398 710.13 63.3994 712.963 Q64.9272 715.764 64.9272 719.711 Q64.9272 726.172 59.771 730.246 Q54.6147 734.288 46.212 734.288 Q37.8093 734.288 32.6531 730.246 Q27.4968 726.172 27.4968 719.711 Q27.4968 715.764 29.0564 712.963 Q30.5842 710.13 33.7671 708.284 M46.212 728.241 Q52.6732 728.241 56.3653 725.599 Q60.0256 722.926 60.0256 718.279 Q60.0256 713.632 56.3653 710.958 Q52.6732 708.284 46.212 708.284 Q39.7508 708.284 36.0905 710.958 Q32.3984 713.632 32.3984 718.279 Q32.3984 722.926 36.0905 725.599 Q39.7508 728.241 46.212 728.241 Z" fill="#000000" fill-rule="nonzero" fill-opacity="1" /><path clip-path="url(#clip750)" d="M44.7161 639.153 L47.5806 639.153 L47.5806 666.08 Q53.6281 665.698 56.8109 662.451 Q59.9619 659.173 59.9619 653.348 Q59.9619 649.975 59.1344 646.823 Q58.3069 643.641 56.6518 640.521 L62.1899 640.521 Q63.5267 643.672 64.227 646.983 Q64.9272 650.293 64.9272 653.698 Q64.9272 662.228 59.9619 667.226 Q54.9967 672.191 46.5303 672.191 Q37.7774 672.191 32.6531 667.48 Q27.4968 662.738 27.4968 654.717 Q27.4968 647.524 32.1438 643.354 Q36.7589 639.153 44.7161 639.153 M42.9973 645.009 Q38.1912 645.073 35.3266 647.715 Q32.4621 650.325 32.4621 654.653 Q32.4621 659.555 35.2312 662.515 Q38.0002 665.443 43.0292 665.889 L42.9973 645.009 Z" fill="#000000" fill-rule="nonzero" fill-opacity="1" /><path clip-path="url(#clip750)" d="M42.4881 599.908 L64.0042 599.908 L64.0042 605.765 L42.679 605.765 Q37.6183 605.765 35.1038 607.738 Q32.5894 609.711 32.5894 613.658 Q32.5894 618.401 35.6131 621.138 Q38.6368 623.875 43.8567 623.875 L64.0042 623.875 L64.0042 629.763 L28.3562 629.763 L28.3562 623.875 L33.8944 623.875 Q30.6797 621.774 29.0883 618.942 Q27.4968 616.077 27.4968 612.353 Q27.4968 606.21 31.3163 603.059 Q35.1038 599.908 42.4881 599.908 Z" fill="#000000" fill-rule="nonzero" fill-opacity="1" /><path clip-path="url(#clip750)" d="M44.7161 557.735 L47.5806 557.735 L47.5806 584.662 Q53.6281 584.28 56.8109 581.034 Q59.9619 577.756 59.9619 571.931 Q59.9619 568.557 59.1344 565.406 Q58.3069 562.223 56.6518 559.104 L62.1899 559.104 Q63.5267 562.255 64.227 565.565 Q64.9272 568.875 64.9272 572.281 Q64.9272 580.811 59.9619 585.808 Q54.9967 590.773 46.5303 590.773 Q37.7774 590.773 32.6531 586.063 Q27.4968 581.32 27.4968 573.3 Q27.4968 566.106 32.1438 561.937 Q36.7589 557.735 44.7161 557.735 M42.9973 563.592 Q38.1912 563.656 35.3266 566.297 Q32.4621 568.907 32.4621 573.236 Q32.4621 578.138 35.2312 581.098 Q38.0002 584.026 43.0292 584.471 L42.9973 563.592 Z" fill="#000000" fill-rule="nonzero" fill-opacity="1" /><path clip-path="url(#clip750)" d="M33.8307 527.466 Q33.2578 528.453 33.0032 529.631 Q32.7167 530.777 32.7167 532.177 Q32.7167 537.142 35.9632 539.816 Q39.1779 542.458 45.2253 542.458 L64.0042 542.458 L64.0042 548.346 L28.3562 548.346 L28.3562 542.458 L33.8944 542.458 Q30.6479 540.612 29.0883 537.652 Q27.4968 534.692 27.4968 530.458 Q27.4968 529.854 27.5923 529.122 Q27.656 528.39 27.8151 527.498 L33.8307 527.466 Z" fill="#000000" fill-rule="nonzero" fill-opacity="1" /><path clip-path="url(#clip750)" d="M45.7664 499.012 Q39.4007 499.012 35.8996 501.654 Q32.3984 504.263 32.3984 509.006 Q32.3984 513.717 35.8996 516.358 Q39.4007 518.968 45.7664 518.968 Q52.1003 518.968 55.6014 516.358 Q59.1026 513.717 59.1026 509.006 Q59.1026 504.263 55.6014 501.654 Q52.1003 499.012 45.7664 499.012 M59.58 493.155 Q68.683 493.155 73.1071 497.198 Q77.5631 501.24 77.5631 509.579 Q77.5631 512.666 77.0857 515.403 Q76.6401 518.141 75.6852 520.719 L69.9879 520.719 Q71.3884 518.141 72.0568 515.626 Q72.7252 513.112 72.7252 510.502 Q72.7252 504.741 69.7015 501.876 Q66.7096 499.012 60.6303 499.012 L57.7339 499.012 Q60.885 500.826 62.4446 503.659 Q64.0042 506.491 64.0042 510.438 Q64.0042 516.995 59.0071 521.005 Q54.01 525.016 45.7664 525.016 Q37.491 525.016 32.4939 521.005 Q27.4968 516.995 27.4968 510.438 Q27.4968 506.491 29.0564 503.659 Q30.616 500.826 33.7671 499.012 L28.3562 499.012 L28.3562 493.155 L59.58 493.155 Z" fill="#000000" fill-rule="nonzero" fill-opacity="1" /><path clip-path="url(#clip750)" d="M67.3143 466.26 Q73.68 468.743 75.6216 471.098 Q77.5631 473.453 77.5631 477.4 L77.5631 482.079 L72.6615 482.079 L72.6615 478.642 Q72.6615 476.223 71.5157 474.886 Q70.3699 473.549 66.1048 471.926 L63.4312 470.875 L28.3562 485.294 L28.3562 479.087 L56.238 467.947 L28.3562 456.807 L28.3562 450.601 L67.3143 466.26 Z" fill="#000000" fill-rule="nonzero" fill-opacity="1" /><path clip-path="url(#clip750)" d="M14.5426 407.728 Q21.8632 411.993 29.0246 414.061 Q36.186 416.13 43.5384 416.13 Q50.8908 416.13 58.1159 414.061 Q65.3091 411.961 72.5979 407.728 L72.5979 412.82 Q65.1182 417.594 57.8931 419.982 Q50.668 422.337 43.5384 422.337 Q36.4406 422.337 29.2474 419.982 Q22.0542 417.626 14.5426 412.82 L14.5426 407.728 Z" fill="#000000" fill-rule="nonzero" fill-opacity="1" /><path clip-path="url(#clip750)" d="M16.4842 396.11 L16.4842 386.53 L48.8219 374.403 L16.4842 362.213 L16.4842 352.632 L64.0042 352.632 L64.0042 358.903 L22.277 358.903 L54.8694 371.157 L54.8694 377.618 L22.277 389.872 L64.0042 389.872 L64.0042 396.11 L16.4842 396.11 Z" fill="#000000" fill-rule="nonzero" fill-opacity="1" /><path clip-path="url(#clip750)" d="M44.7161 309.632 L47.5806 309.632 L47.5806 336.559 Q53.6281 336.177 56.8109 332.93 Q59.9619 329.652 59.9619 323.828 Q59.9619 320.454 59.1344 317.303 Q58.3069 314.12 56.6518 311.001 L62.1899 311.001 Q63.5267 314.152 64.227 317.462 Q64.9272 320.772 64.9272 324.178 Q64.9272 332.708 59.9619 337.705 Q54.9967 342.67 46.5303 342.67 Q37.7774 342.67 32.6531 337.959 Q27.4968 333.217 27.4968 325.196 Q27.4968 318.003 32.1438 313.833 Q36.7589 309.632 44.7161 309.632 M42.9973 315.488 Q38.1912 315.552 35.3266 318.194 Q32.4621 320.804 32.4621 325.132 Q32.4621 330.034 35.2312 332.994 Q38.0002 335.922 43.0292 336.368 L42.9973 315.488 Z" fill="#000000" fill-rule="nonzero" fill-opacity="1" /><path clip-path="url(#clip750)" d="M64.0042 287.511 L16.4842 305.653 L16.4842 298.938 L56.4926 283.883 L16.4842 268.796 L16.4842 262.112 L64.0042 280.222 L64.0042 287.511 Z" fill="#000000" fill-rule="nonzero" fill-opacity="1" /><path clip-path="url(#clip750)" d="M14.5426 256.351 L14.5426 251.258 Q22.0542 246.484 29.2474 244.129 Q36.4406 241.742 43.5384 241.742 Q50.668 241.742 57.8931 244.129 Q65.1182 246.484 72.5979 251.258 L72.5979 256.351 Q65.3091 252.118 58.1159 250.049 Q50.8908 247.948 43.5384 247.948 Q36.186 247.948 29.0246 250.049 Q21.8632 252.118 14.5426 256.351 Z" fill="#000000" fill-rule="nonzero" fill-opacity="1" /><path clip-path="url(#clip750)" d="M1067.86 12.096 L1106.1 12.096 L1106.1 18.9825 L1076.04 18.9825 L1076.04 36.8875 L1104.85 36.8875 L1104.85 43.7741 L1076.04 43.7741 L1076.04 65.6895 L1106.83 65.6895 L1106.83 72.576 L1067.86 72.576 L1067.86 12.096 Z" fill="#000000" fill-rule="nonzero" fill-opacity="1" /><path clip-path="url(#clip750)" d="M1157.67 45.1919 L1157.67 72.576 L1150.22 72.576 L1150.22 45.4349 Q1150.22 38.994 1147.7 35.7938 Q1145.19 32.5936 1140.17 32.5936 Q1134.13 32.5936 1130.65 36.4419 Q1127.17 40.2903 1127.17 46.9338 L1127.17 72.576 L1119.67 72.576 L1119.67 27.2059 L1127.17 27.2059 L1127.17 34.2544 Q1129.84 30.163 1133.44 28.1376 Q1137.09 26.1121 1141.83 26.1121 Q1149.65 26.1121 1153.66 30.9732 Q1157.67 35.7938 1157.67 45.1919 Z" fill="#000000" fill-rule="nonzero" fill-opacity="1" /><path clip-path="url(#clip750)" d="M1211.34 48.0275 L1211.34 51.6733 L1177.07 51.6733 Q1177.56 59.3701 1181.69 63.421 Q1185.86 67.4314 1193.28 67.4314 Q1197.57 67.4314 1201.58 66.3781 Q1205.63 65.3249 1209.6 63.2184 L1209.6 70.267 Q1205.59 71.9684 1201.38 72.8596 Q1197.17 73.7508 1192.83 73.7508 Q1181.97 73.7508 1175.61 67.4314 Q1169.29 61.1119 1169.29 50.3365 Q1169.29 39.1965 1175.29 32.6746 Q1181.33 26.1121 1191.53 26.1121 Q1200.69 26.1121 1206 32.0264 Q1211.34 37.9003 1211.34 48.0275 M1203.89 45.84 Q1203.81 39.7232 1200.45 36.0774 Q1197.12 32.4315 1191.62 32.4315 Q1185.38 32.4315 1181.61 35.9558 Q1177.88 39.4801 1177.32 45.8805 L1203.89 45.84 Z" fill="#000000" fill-rule="nonzero" fill-opacity="1" /><path clip-path="url(#clip750)" d="M1249.87 34.1734 Q1248.61 33.4443 1247.11 33.1202 Q1245.65 32.7556 1243.87 32.7556 Q1237.55 32.7556 1234.15 36.8875 Q1230.79 40.9789 1230.79 48.6757 L1230.79 72.576 L1223.29 72.576 L1223.29 27.2059 L1230.79 27.2059 L1230.79 34.2544 Q1233.14 30.1225 1236.9 28.1376 Q1240.67 26.1121 1246.06 26.1121 Q1246.83 26.1121 1247.76 26.2337 Q1248.69 26.3147 1249.83 26.5172 L1249.87 34.1734 Z" fill="#000000" fill-rule="nonzero" fill-opacity="1" /><path clip-path="url(#clip750)" d="M1286.08 49.3643 Q1286.08 41.2625 1282.72 36.8065 Q1279.4 32.3505 1273.36 32.3505 Q1267.37 32.3505 1264.01 36.8065 Q1260.68 41.2625 1260.68 49.3643 Q1260.68 57.4256 1264.01 61.8816 Q1267.37 66.3376 1273.36 66.3376 Q1279.4 66.3376 1282.72 61.8816 Q1286.08 57.4256 1286.08 49.3643 M1293.54 66.9452 Q1293.54 78.5308 1288.39 84.1616 Q1283.25 89.8329 1272.63 89.8329 Q1268.7 89.8329 1265.22 89.2252 Q1261.74 88.6581 1258.46 87.4428 L1258.46 80.1917 Q1261.74 81.9741 1264.94 82.8248 Q1268.14 83.6755 1271.46 83.6755 Q1278.79 83.6755 1282.44 79.8271 Q1286.08 76.0193 1286.08 68.282 L1286.08 64.5957 Q1283.77 68.6061 1280.17 70.5911 Q1276.56 72.576 1271.54 72.576 Q1263.19 72.576 1258.09 66.2161 Q1252.99 59.8562 1252.99 49.3643 Q1252.99 38.832 1258.09 32.472 Q1263.19 26.1121 1271.54 26.1121 Q1276.56 26.1121 1280.17 28.0971 Q1283.77 30.082 1286.08 34.0924 L1286.08 27.2059 L1293.54 27.2059 L1293.54 66.9452 Z" fill="#000000" fill-rule="nonzero" fill-opacity="1" /><path clip-path="url(#clip750)" d="M1327.77 76.7889 Q1324.61 84.8907 1321.61 87.3618 Q1318.61 89.8329 1313.59 89.8329 L1307.63 89.8329 L1307.63 83.5945 L1312.01 83.5945 Q1315.09 83.5945 1316.79 82.1361 Q1318.49 80.6778 1320.56 75.2496 L1321.89 71.8468 L1303.54 27.2059 L1311.44 27.2059 L1325.62 62.6918 L1339.8 27.2059 L1347.7 27.2059 L1327.77 76.7889 Z" fill="#000000" fill-rule="nonzero" fill-opacity="1" /><path clip-path="url(#clip750)" d="M1416.93 49.9314 Q1416.93 41.7081 1413.52 37.0496 Q1410.16 32.3505 1404.25 32.3505 Q1398.33 32.3505 1394.93 37.0496 Q1391.57 41.7081 1391.57 49.9314 Q1391.57 58.1548 1394.93 62.8538 Q1398.33 67.5124 1404.25 67.5124 Q1410.16 67.5124 1413.52 62.8538 Q1416.93 58.1548 1416.93 49.9314 M1391.57 34.0924 Q1393.92 30.0415 1397.48 28.0971 Q1401.09 26.1121 1406.07 26.1121 Q1414.33 26.1121 1419.48 32.6746 Q1424.66 39.2371 1424.66 49.9314 Q1424.66 60.6258 1419.48 67.1883 Q1414.33 73.7508 1406.07 73.7508 Q1401.09 73.7508 1397.48 71.8063 Q1393.92 69.8214 1391.57 65.7705 L1391.57 72.576 L1384.07 72.576 L1384.07 9.54393 L1391.57 9.54393 L1391.57 34.0924 Z" fill="#000000" fill-rule="nonzero" fill-opacity="1" /><path clip-path="url(#clip750)" d="M1437.02 27.2059 L1444.47 27.2059 L1444.47 72.576 L1437.02 72.576 L1437.02 27.2059 M1437.02 9.54393 L1444.47 9.54393 L1444.47 18.9825 L1437.02 18.9825 L1437.02 9.54393 Z" fill="#000000" fill-rule="nonzero" fill-opacity="1" /><path clip-path="url(#clip750)" d="M1480.69 49.7694 Q1471.65 49.7694 1468.17 51.8354 Q1464.69 53.9013 1464.69 58.8839 Q1464.69 62.8538 1467.28 65.2034 Q1469.91 67.5124 1474.41 67.5124 Q1480.61 67.5124 1484.33 63.1374 Q1488.1 58.7219 1488.1 51.4303 L1488.1 49.7694 L1480.69 49.7694 M1495.55 46.6907 L1495.55 72.576 L1488.1 72.576 L1488.1 65.6895 Q1485.55 69.8214 1481.74 71.8063 Q1477.93 73.7508 1472.42 73.7508 Q1465.46 73.7508 1461.32 69.8619 Q1457.23 65.9325 1457.23 59.3701 Q1457.23 51.7138 1462.34 47.825 Q1467.48 43.9361 1477.65 43.9361 L1488.1 43.9361 L1488.1 43.2069 Q1488.1 38.0623 1484.7 35.2672 Q1481.34 32.4315 1475.22 32.4315 Q1471.33 32.4315 1467.64 33.3632 Q1463.96 34.295 1460.55 36.1584 L1460.55 29.2718 Q1464.65 27.692 1468.49 26.9223 Q1472.34 26.1121 1475.99 26.1121 Q1485.83 26.1121 1490.69 31.2163 Q1495.55 36.3204 1495.55 46.6907 Z" fill="#000000" fill-rule="nonzero" fill-opacity="1" /><path clip-path="url(#clip750)" d="M1539.83 28.5427 L1539.83 35.5912 Q1536.67 33.9709 1533.27 33.1607 Q1529.87 32.3505 1526.22 32.3505 Q1520.67 32.3505 1517.88 34.0519 Q1515.12 35.7533 1515.12 39.156 Q1515.12 41.7486 1517.11 43.2475 Q1519.09 44.7058 1525.09 46.0426 L1527.64 46.6097 Q1535.58 48.3111 1538.9 51.4303 Q1542.26 54.509 1542.26 60.0587 Q1542.26 66.3781 1537.24 70.0644 Q1532.26 73.7508 1523.51 73.7508 Q1519.86 73.7508 1515.89 73.0216 Q1511.96 72.3329 1507.59 70.9151 L1507.59 63.2184 Q1511.72 65.3654 1515.73 66.4591 Q1519.74 67.5124 1523.67 67.5124 Q1528.93 67.5124 1531.77 65.73 Q1534.61 63.9071 1534.61 60.6258 Q1534.61 57.5877 1532.54 55.9673 Q1530.51 54.3469 1523.59 52.8481 L1520.99 52.2405 Q1514.07 50.7821 1510.99 47.7845 Q1507.91 44.7463 1507.91 39.4801 Q1507.91 33.0797 1512.45 29.5959 Q1516.98 26.1121 1525.33 26.1121 Q1529.46 26.1121 1533.11 26.7198 Q1536.75 27.3274 1539.83 28.5427 Z" fill="#000000" fill-rule="nonzero" fill-opacity="1" /><polyline clip-path="url(#clip752)" style="stroke:#000000; stroke-linecap:round; stroke-linejoin:round; stroke-width:4; stroke-opacity:1; fill:none" points="316.67,192.187 316.67,160.256 "/>
<polyline clip-path="url(#clip752)" style="stroke:#000000; stroke-linecap:round; stroke-linejoin:round; stroke-width:4; stroke-opacity:1; fill:none" points="810.865,646.539 810.865,600.126 "/>
<polyline clip-path="url(#clip752)" style="stroke:#000000; stroke-linecap:round; stroke-linejoin:round; stroke-width:4; stroke-opacity:1; fill:none" points="1305.06,1179 1305.06,1138.78 "/>
<polyline clip-path="url(#clip752)" style="stroke:#000000; stroke-linecap:round; stroke-linejoin:round; stroke-width:4; stroke-opacity:1; fill:none" points="1799.26,1386.4 1799.26,1080.89 "/>
<polyline clip-path="url(#clip752)" style="stroke:#000000; stroke-linecap:round; stroke-linejoin:round; stroke-width:4; stroke-opacity:1; fill:none" points="2293.45,722.215 2293.45,256.509 "/>
<line clip-path="url(#clip752)" x1="332.67" y1="192.187" x2="300.67" y2="192.187" style="stroke:#000000; stroke-width:4; stroke-opacity:1"/>
<line clip-path="url(#clip752)" x1="332.67" y1="160.256" x2="300.67" y2="160.256" style="stroke:#000000; stroke-width:4; stroke-opacity:1"/>
<line clip-path="url(#clip752)" x1="826.865" y1="646.539" x2="794.865" y2="646.539" style="stroke:#000000; stroke-width:4; stroke-opacity:1"/>
<line clip-path="url(#clip752)" x1="826.865" y1="600.126" x2="794.865" y2="600.126" style="stroke:#000000; stroke-width:4; stroke-opacity:1"/>
<line clip-path="url(#clip752)" x1="1321.06" y1="1179" x2="1289.06" y2="1179" style="stroke:#000000; stroke-width:4; stroke-opacity:1"/>
<line clip-path="url(#clip752)" x1="1321.06" y1="1138.78" x2="1289.06" y2="1138.78" style="stroke:#000000; stroke-width:4; stroke-opacity:1"/>
<line clip-path="url(#clip752)" x1="1815.26" y1="1386.4" x2="1783.26" y2="1386.4" style="stroke:#000000; stroke-width:4; stroke-opacity:1"/>
<line clip-path="url(#clip752)" x1="1815.26" y1="1080.89" x2="1783.26" y2="1080.89" style="stroke:#000000; stroke-width:4; stroke-opacity:1"/>
<line clip-path="url(#clip752)" x1="2309.45" y1="722.215" x2="2277.45" y2="722.215" style="stroke:#000000; stroke-width:4; stroke-opacity:1"/>
<line clip-path="url(#clip752)" x1="2309.45" y1="256.509" x2="2277.45" y2="256.509" style="stroke:#000000; stroke-width:4; stroke-opacity:1"/>
<circle clip-path="url(#clip752)" cx="316.67" cy="176.222" r="14.4" fill="#009af9" fill-rule="evenodd" fill-opacity="1" stroke="#000000" stroke-opacity="1" stroke-width="3.2"/>
<circle clip-path="url(#clip752)" cx="810.865" cy="623.332" r="14.4" fill="#009af9" fill-rule="evenodd" fill-opacity="1" stroke="#000000" stroke-opacity="1" stroke-width="3.2"/>
<circle clip-path="url(#clip752)" cx="1305.06" cy="1158.89" r="14.4" fill="#009af9" fill-rule="evenodd" fill-opacity="1" stroke="#000000" stroke-opacity="1" stroke-width="3.2"/>
<circle clip-path="url(#clip752)" cx="1799.26" cy="1233.64" r="14.4" fill="#009af9" fill-rule="evenodd" fill-opacity="1" stroke="#000000" stroke-opacity="1" stroke-width="3.2"/>
<circle clip-path="url(#clip752)" cx="2293.45" cy="489.362" r="14.4" fill="#009af9" fill-rule="evenodd" fill-opacity="1" stroke="#000000" stroke-opacity="1" stroke-width="3.2"/>
<path clip-path="url(#clip752)" d="M316.67 192.187 L810.865 646.539 L1305.06 1179 L1799.26 1386.4 L2293.45 722.215 L2293.45 256.509 L1799.26 1080.89 L1305.06 1138.78 L810.865 600.126 L316.67 160.256  Z" fill="#009af9" fill-rule="evenodd" fill-opacity="0.15"/>
<polyline clip-path="url(#clip752)" style="stroke:#009af9; stroke-linecap:round; stroke-linejoin:round; stroke-width:0; stroke-opacity:1; fill:none" points="316.67,176.222 810.865,623.332 1305.06,1158.89 1799.26,1233.64 2293.45,489.362 "/>
<path clip-path="url(#clip750)" d="M1679.44 1379.86 L2282.91 1379.86 L2282.91 1224.34 L1679.44 1224.34  Z" fill="#ffffff" fill-rule="evenodd" fill-opacity="1"/>
<polyline clip-path="url(#clip750)" style="stroke:#000000; stroke-linecap:round; stroke-linejoin:round; stroke-width:4; stroke-opacity:1; fill:none" points="1679.44,1379.86 2282.91,1379.86 2282.91,1224.34 1679.44,1224.34 1679.44,1379.86 "/>
<circle clip-path="url(#clip750)" cx="1772.57" cy="1276.18" r="20.48" fill="#009af9" fill-rule="evenodd" fill-opacity="1" stroke="#000000" stroke-opacity="1" stroke-width="4.55111"/>
<path clip-path="url(#clip750)" d="M1887.94 1260.03 L1887.94 1264.59 Q1885.28 1263.32 1882.92 1262.69 Q1880.56 1262.07 1878.36 1262.07 Q1874.54 1262.07 1872.45 1263.55 Q1870.39 1265.03 1870.39 1267.76 Q1870.39 1270.05 1871.76 1271.23 Q1873.15 1272.39 1876.99 1273.11 L1879.81 1273.69 Q1885.05 1274.68 1887.52 1277.21 Q1890.02 1279.71 1890.02 1283.92 Q1890.02 1288.94 1886.64 1291.53 Q1883.29 1294.13 1876.78 1294.13 Q1874.33 1294.13 1871.55 1293.57 Q1868.8 1293.02 1865.83 1291.93 L1865.83 1287.11 Q1868.68 1288.71 1871.41 1289.52 Q1874.14 1290.33 1876.78 1290.33 Q1880.79 1290.33 1882.96 1288.76 Q1885.14 1287.18 1885.14 1284.27 Q1885.14 1281.72 1883.56 1280.29 Q1882.01 1278.85 1878.45 1278.13 L1875.6 1277.58 Q1870.37 1276.54 1868.03 1274.31 Q1865.69 1272.09 1865.69 1268.13 Q1865.69 1263.55 1868.91 1260.91 Q1872.15 1258.27 1877.82 1258.27 Q1880.25 1258.27 1882.78 1258.71 Q1885.3 1259.15 1887.94 1260.03 Z" fill="#000000" fill-rule="nonzero" fill-opacity="1" /><path clip-path="url(#clip750)" d="M1897.13 1267.53 L1901.39 1267.53 L1901.39 1293.46 L1897.13 1293.46 L1897.13 1267.53 M1897.13 1257.44 L1901.39 1257.44 L1901.39 1262.83 L1897.13 1262.83 L1897.13 1257.44 Z" fill="#000000" fill-rule="nonzero" fill-opacity="1" /><path clip-path="url(#clip750)" d="M1930.49 1272.51 Q1932.08 1269.64 1934.31 1268.27 Q1936.53 1266.91 1939.54 1266.91 Q1943.59 1266.91 1945.79 1269.75 Q1947.99 1272.58 1947.99 1277.81 L1947.99 1293.46 L1943.7 1293.46 L1943.7 1277.95 Q1943.7 1274.22 1942.38 1272.41 Q1941.06 1270.61 1938.36 1270.61 Q1935.05 1270.61 1933.12 1272.81 Q1931.2 1275.01 1931.2 1278.8 L1931.2 1293.46 L1926.92 1293.46 L1926.92 1277.95 Q1926.92 1274.2 1925.6 1272.41 Q1924.28 1270.61 1921.53 1270.61 Q1918.26 1270.61 1916.34 1272.83 Q1914.42 1275.03 1914.42 1278.8 L1914.42 1293.46 L1910.14 1293.46 L1910.14 1267.53 L1914.42 1267.53 L1914.42 1271.56 Q1915.88 1269.17 1917.92 1268.04 Q1919.95 1266.91 1922.75 1266.91 Q1925.58 1266.91 1927.55 1268.34 Q1929.54 1269.78 1930.49 1272.51 Z" fill="#000000" fill-rule="nonzero" fill-opacity="1" /><path clip-path="url(#clip750)" d="M1956.04 1283.22 L1956.04 1267.53 L1960.3 1267.53 L1960.3 1283.06 Q1960.3 1286.74 1961.74 1288.6 Q1963.17 1290.42 1966.04 1290.42 Q1969.49 1290.42 1971.48 1288.22 Q1973.49 1286.03 1973.49 1282.23 L1973.49 1267.53 L1977.75 1267.53 L1977.75 1293.46 L1973.49 1293.46 L1973.49 1289.47 Q1971.94 1291.84 1969.88 1292.99 Q1967.85 1294.13 1965.14 1294.13 Q1960.67 1294.13 1958.36 1291.35 Q1956.04 1288.57 1956.04 1283.22 M1966.76 1266.91 L1966.76 1266.91 Z" fill="#000000" fill-rule="nonzero" fill-opacity="1" /><path clip-path="url(#clip750)" d="M1986.53 1257.44 L1990.79 1257.44 L1990.79 1293.46 L1986.53 1293.46 L1986.53 1257.44 Z" fill="#000000" fill-rule="nonzero" fill-opacity="1" /><path clip-path="url(#clip750)" d="M2011.48 1280.42 Q2006.32 1280.42 2004.33 1281.6 Q2002.34 1282.79 2002.34 1285.63 Q2002.34 1287.9 2003.82 1289.24 Q2005.32 1290.56 2007.89 1290.56 Q2011.43 1290.56 2013.56 1288.06 Q2015.72 1285.54 2015.72 1281.37 L2015.72 1280.42 L2011.48 1280.42 M2019.98 1278.66 L2019.98 1293.46 L2015.72 1293.46 L2015.72 1289.52 Q2014.26 1291.88 2012.08 1293.02 Q2009.91 1294.13 2006.76 1294.13 Q2002.78 1294.13 2000.42 1291.91 Q1998.08 1289.66 1998.08 1285.91 Q1998.08 1281.54 2000.99 1279.31 Q2003.93 1277.09 2009.74 1277.09 L2015.72 1277.09 L2015.72 1276.67 Q2015.72 1273.73 2013.77 1272.14 Q2011.85 1270.52 2008.36 1270.52 Q2006.13 1270.52 2004.03 1271.05 Q2001.92 1271.58 1999.98 1272.65 L1999.98 1268.71 Q2002.31 1267.81 2004.51 1267.37 Q2006.71 1266.91 2008.8 1266.91 Q2014.42 1266.91 2017.2 1269.82 Q2019.98 1272.74 2019.98 1278.66 Z" fill="#000000" fill-rule="nonzero" fill-opacity="1" /><path clip-path="url(#clip750)" d="M2032.96 1260.17 L2032.96 1267.53 L2041.74 1267.53 L2041.74 1270.84 L2032.96 1270.84 L2032.96 1284.91 Q2032.96 1288.09 2033.82 1288.99 Q2034.7 1289.89 2037.36 1289.89 L2041.74 1289.89 L2041.74 1293.46 L2037.36 1293.46 Q2032.43 1293.46 2030.55 1291.63 Q2028.68 1289.78 2028.68 1284.91 L2028.68 1270.84 L2025.55 1270.84 L2025.55 1267.53 L2028.68 1267.53 L2028.68 1260.17 L2032.96 1260.17 Z" fill="#000000" fill-rule="nonzero" fill-opacity="1" /><path clip-path="url(#clip750)" d="M2047.34 1267.53 L2051.6 1267.53 L2051.6 1293.46 L2047.34 1293.46 L2047.34 1267.53 M2047.34 1257.44 L2051.6 1257.44 L2051.6 1262.83 L2047.34 1262.83 L2047.34 1257.44 Z" fill="#000000" fill-rule="nonzero" fill-opacity="1" /><path clip-path="url(#clip750)" d="M2070.55 1270.52 Q2067.13 1270.52 2065.14 1273.2 Q2063.15 1275.86 2063.15 1280.52 Q2063.15 1285.17 2065.11 1287.85 Q2067.11 1290.52 2070.55 1290.52 Q2073.96 1290.52 2075.95 1287.83 Q2077.94 1285.15 2077.94 1280.52 Q2077.94 1275.91 2075.95 1273.22 Q2073.96 1270.52 2070.55 1270.52 M2070.55 1266.91 Q2076.11 1266.91 2079.28 1270.52 Q2082.45 1274.13 2082.45 1280.52 Q2082.45 1286.88 2079.28 1290.52 Q2076.11 1294.13 2070.55 1294.13 Q2064.98 1294.13 2061.8 1290.52 Q2058.66 1286.88 2058.66 1280.52 Q2058.66 1274.13 2061.8 1270.52 Q2064.98 1266.91 2070.55 1266.91 Z" fill="#000000" fill-rule="nonzero" fill-opacity="1" /><path clip-path="url(#clip750)" d="M2111.06 1277.81 L2111.06 1293.46 L2106.8 1293.46 L2106.8 1277.95 Q2106.8 1274.27 2105.37 1272.44 Q2103.93 1270.61 2101.06 1270.61 Q2097.61 1270.61 2095.62 1272.81 Q2093.63 1275.01 2093.63 1278.8 L2093.63 1293.46 L2089.35 1293.46 L2089.35 1267.53 L2093.63 1267.53 L2093.63 1271.56 Q2095.16 1269.22 2097.22 1268.06 Q2099.3 1266.91 2102.01 1266.91 Q2106.48 1266.91 2108.77 1269.68 Q2111.06 1272.44 2111.06 1277.81 Z" fill="#000000" fill-rule="nonzero" fill-opacity="1" /><polyline clip-path="url(#clip750)" style="stroke:#009af9; stroke-linecap:round; stroke-linejoin:round; stroke-width:0.8; stroke-opacity:1; fill:none" points="1702.72,1328.02 1842.41,1328.02 "/>
<path clip-path="url(#clip750)" d="M1893.56 1313.4 L1893.56 1318.33 Q1891.2 1316.13 1888.52 1315.04 Q1885.86 1313.95 1882.85 1313.95 Q1876.92 1313.95 1873.77 1317.59 Q1870.62 1321.2 1870.62 1328.05 Q1870.62 1334.88 1873.77 1338.51 Q1876.92 1342.12 1882.85 1342.12 Q1885.86 1342.12 1888.52 1341.04 Q1891.2 1339.95 1893.56 1337.75 L1893.56 1342.63 Q1891.11 1344.3 1888.36 1345.13 Q1885.62 1345.97 1882.57 1345.97 Q1874.72 1345.97 1870.21 1341.18 Q1865.69 1336.36 1865.69 1328.05 Q1865.69 1319.72 1870.21 1314.93 Q1874.72 1310.11 1882.57 1310.11 Q1885.67 1310.11 1888.4 1310.94 Q1891.16 1311.75 1893.56 1313.4 Z" fill="#000000" fill-rule="nonzero" fill-opacity="1" /><path clip-path="url(#clip750)" d="M1910.65 1322.36 Q1907.22 1322.36 1905.23 1325.04 Q1903.24 1327.7 1903.24 1332.36 Q1903.24 1337.01 1905.21 1339.69 Q1907.2 1342.36 1910.65 1342.36 Q1914.05 1342.36 1916.04 1339.67 Q1918.03 1336.99 1918.03 1332.36 Q1918.03 1327.75 1916.04 1325.06 Q1914.05 1322.36 1910.65 1322.36 M1910.65 1318.75 Q1916.2 1318.75 1919.37 1322.36 Q1922.55 1325.97 1922.55 1332.36 Q1922.55 1338.72 1919.37 1342.36 Q1916.2 1345.97 1910.65 1345.97 Q1905.07 1345.97 1901.9 1342.36 Q1898.75 1338.72 1898.75 1332.36 Q1898.75 1325.97 1901.9 1322.36 Q1905.07 1318.75 1910.65 1318.75 Z" fill="#000000" fill-rule="nonzero" fill-opacity="1" /><path clip-path="url(#clip750)" d="M1951.16 1329.65 L1951.16 1345.3 L1946.9 1345.3 L1946.9 1329.79 Q1946.9 1326.11 1945.46 1324.28 Q1944.03 1322.45 1941.16 1322.45 Q1937.71 1322.45 1935.72 1324.65 Q1933.73 1326.85 1933.73 1330.64 L1933.73 1345.3 L1929.44 1345.3 L1929.44 1319.37 L1933.73 1319.37 L1933.73 1323.4 Q1935.25 1321.06 1937.31 1319.9 Q1939.4 1318.75 1942.11 1318.75 Q1946.57 1318.75 1948.87 1321.52 Q1951.16 1324.28 1951.16 1329.65 Z" fill="#000000" fill-rule="nonzero" fill-opacity="1" /><path clip-path="url(#clip750)" d="M1972.78 1309.28 L1972.78 1312.82 L1968.7 1312.82 Q1966.41 1312.82 1965.51 1313.75 Q1964.63 1314.67 1964.63 1317.08 L1964.63 1319.37 L1971.64 1319.37 L1971.64 1322.68 L1964.63 1322.68 L1964.63 1345.3 L1960.35 1345.3 L1960.35 1322.68 L1956.27 1322.68 L1956.27 1319.37 L1960.35 1319.37 L1960.35 1317.56 Q1960.35 1313.24 1962.36 1311.27 Q1964.37 1309.28 1968.75 1309.28 L1972.78 1309.28 Z" fill="#000000" fill-rule="nonzero" fill-opacity="1" /><path clip-path="url(#clip750)" d="M1976.34 1319.37 L1980.6 1319.37 L1980.6 1345.3 L1976.34 1345.3 L1976.34 1319.37 M1976.34 1309.28 L1980.6 1309.28 L1980.6 1314.67 L1976.34 1314.67 L1976.34 1309.28 Z" fill="#000000" fill-rule="nonzero" fill-opacity="1" /><path clip-path="url(#clip750)" d="M2006.57 1323.31 L2006.57 1309.28 L2010.83 1309.28 L2010.83 1345.3 L2006.57 1345.3 L2006.57 1341.41 Q2005.23 1343.72 2003.17 1344.86 Q2001.13 1345.97 1998.26 1345.97 Q1993.56 1345.97 1990.6 1342.22 Q1987.66 1338.47 1987.66 1332.36 Q1987.66 1326.25 1990.6 1322.5 Q1993.56 1318.75 1998.26 1318.75 Q2001.13 1318.75 2003.17 1319.88 Q2005.23 1320.99 2006.57 1323.31 M1992.06 1332.36 Q1992.06 1337.06 1993.98 1339.74 Q1995.93 1342.4 1999.3 1342.4 Q2002.68 1342.4 2004.63 1339.74 Q2006.57 1337.06 2006.57 1332.36 Q2006.57 1327.66 2004.63 1325 Q2002.68 1322.31 1999.3 1322.31 Q1995.93 1322.31 1993.98 1325 Q1992.06 1327.66 1992.06 1332.36 Z" fill="#000000" fill-rule="nonzero" fill-opacity="1" /><path clip-path="url(#clip750)" d="M2041.78 1331.27 L2041.78 1333.35 L2022.2 1333.35 Q2022.48 1337.75 2024.84 1340.06 Q2027.22 1342.36 2031.46 1342.36 Q2033.91 1342.36 2036.2 1341.75 Q2038.52 1341.15 2040.79 1339.95 L2040.79 1343.98 Q2038.49 1344.95 2036.09 1345.46 Q2033.68 1345.97 2031.2 1345.97 Q2025 1345.97 2021.36 1342.36 Q2017.75 1338.75 2017.75 1332.59 Q2017.75 1326.22 2021.18 1322.5 Q2024.63 1318.75 2030.46 1318.75 Q2035.69 1318.75 2038.73 1322.13 Q2041.78 1325.48 2041.78 1331.27 M2037.52 1330.02 Q2037.48 1326.52 2035.55 1324.44 Q2033.66 1322.36 2030.51 1322.36 Q2026.94 1322.36 2024.79 1324.37 Q2022.66 1326.38 2022.34 1330.04 L2037.52 1330.02 Z" fill="#000000" fill-rule="nonzero" fill-opacity="1" /><path clip-path="url(#clip750)" d="M2070.32 1329.65 L2070.32 1345.3 L2066.06 1345.3 L2066.06 1329.79 Q2066.06 1326.11 2064.63 1324.28 Q2063.19 1322.45 2060.32 1322.45 Q2056.87 1322.45 2054.88 1324.65 Q2052.89 1326.85 2052.89 1330.64 L2052.89 1345.3 L2048.61 1345.3 L2048.61 1319.37 L2052.89 1319.37 L2052.89 1323.4 Q2054.42 1321.06 2056.48 1319.9 Q2058.56 1318.75 2061.27 1318.75 Q2065.74 1318.75 2068.03 1321.52 Q2070.32 1324.28 2070.32 1329.65 Z" fill="#000000" fill-rule="nonzero" fill-opacity="1" /><path clip-path="url(#clip750)" d="M2097.48 1320.37 L2097.48 1324.35 Q2095.67 1323.35 2093.84 1322.87 Q2092.04 1322.36 2090.18 1322.36 Q2086.04 1322.36 2083.75 1325 Q2081.46 1327.61 2081.46 1332.36 Q2081.46 1337.1 2083.75 1339.74 Q2086.04 1342.36 2090.18 1342.36 Q2092.04 1342.36 2093.84 1341.87 Q2095.67 1341.36 2097.48 1340.37 L2097.48 1344.3 Q2095.69 1345.13 2093.77 1345.55 Q2091.87 1345.97 2089.72 1345.97 Q2083.86 1345.97 2080.42 1342.29 Q2076.97 1338.61 2076.97 1332.36 Q2076.97 1326.01 2080.44 1322.38 Q2083.93 1318.75 2090 1318.75 Q2091.97 1318.75 2093.84 1319.16 Q2095.72 1319.56 2097.48 1320.37 Z" fill="#000000" fill-rule="nonzero" fill-opacity="1" /><path clip-path="url(#clip750)" d="M2127.06 1331.27 L2127.06 1333.35 L2107.48 1333.35 Q2107.75 1337.75 2110.11 1340.06 Q2112.5 1342.36 2116.73 1342.36 Q2119.19 1342.36 2121.48 1341.75 Q2123.79 1341.15 2126.06 1339.95 L2126.06 1343.98 Q2123.77 1344.95 2121.36 1345.46 Q2118.96 1345.97 2116.48 1345.97 Q2110.28 1345.97 2106.64 1342.36 Q2103.03 1338.75 2103.03 1332.59 Q2103.03 1326.22 2106.46 1322.5 Q2109.91 1318.75 2115.74 1318.75 Q2120.97 1318.75 2124 1322.13 Q2127.06 1325.48 2127.06 1331.27 M2122.8 1330.02 Q2122.75 1326.52 2120.83 1324.44 Q2118.93 1322.36 2115.79 1322.36 Q2112.22 1322.36 2110.07 1324.37 Q2107.94 1326.38 2107.61 1330.04 L2122.8 1330.02 Z" fill="#000000" fill-rule="nonzero" fill-opacity="1" /><path clip-path="url(#clip750)" d="M2167.73 1332.36 Q2167.73 1327.66 2165.79 1325 Q2163.86 1322.31 2160.48 1322.31 Q2157.1 1322.31 2155.16 1325 Q2153.24 1327.66 2153.24 1332.36 Q2153.24 1337.06 2155.16 1339.74 Q2157.1 1342.4 2160.48 1342.4 Q2163.86 1342.4 2165.79 1339.74 Q2167.73 1337.06 2167.73 1332.36 M2153.24 1323.31 Q2154.58 1320.99 2156.62 1319.88 Q2158.68 1318.75 2161.53 1318.75 Q2166.25 1318.75 2169.19 1322.5 Q2172.15 1326.25 2172.15 1332.36 Q2172.15 1338.47 2169.19 1342.22 Q2166.25 1345.97 2161.53 1345.97 Q2158.68 1345.97 2156.62 1344.86 Q2154.58 1343.72 2153.24 1341.41 L2153.24 1345.3 L2148.96 1345.3 L2148.96 1309.28 L2153.24 1309.28 L2153.24 1323.31 Z" fill="#000000" fill-rule="nonzero" fill-opacity="1" /><path clip-path="url(#clip750)" d="M2190.99 1332.26 Q2185.83 1332.26 2183.84 1333.44 Q2181.85 1334.63 2181.85 1337.47 Q2181.85 1339.74 2183.33 1341.08 Q2184.84 1342.4 2187.41 1342.4 Q2190.95 1342.4 2193.08 1339.9 Q2195.23 1337.38 2195.23 1333.21 L2195.23 1332.26 L2190.99 1332.26 M2199.49 1330.5 L2199.49 1345.3 L2195.23 1345.3 L2195.23 1341.36 Q2193.77 1343.72 2191.6 1344.86 Q2189.42 1345.97 2186.27 1345.97 Q2182.29 1345.97 2179.93 1343.75 Q2177.59 1341.5 2177.59 1337.75 Q2177.59 1333.38 2180.51 1331.15 Q2183.45 1328.93 2189.26 1328.93 L2195.23 1328.93 L2195.23 1328.51 Q2195.23 1325.57 2193.29 1323.98 Q2191.36 1322.36 2187.87 1322.36 Q2185.65 1322.36 2183.54 1322.89 Q2181.43 1323.42 2179.49 1324.49 L2179.49 1320.55 Q2181.83 1319.65 2184.03 1319.21 Q2186.23 1318.75 2188.31 1318.75 Q2193.93 1318.75 2196.71 1321.66 Q2199.49 1324.58 2199.49 1330.5 Z" fill="#000000" fill-rule="nonzero" fill-opacity="1" /><path clip-path="url(#clip750)" d="M2229.81 1329.65 L2229.81 1345.3 L2225.55 1345.3 L2225.55 1329.79 Q2225.55 1326.11 2224.12 1324.28 Q2222.68 1322.45 2219.81 1322.45 Q2216.36 1322.45 2214.37 1324.65 Q2212.38 1326.85 2212.38 1330.64 L2212.38 1345.3 L2208.1 1345.3 L2208.1 1319.37 L2212.38 1319.37 L2212.38 1323.4 Q2213.91 1321.06 2215.97 1319.9 Q2218.05 1318.75 2220.76 1318.75 Q2225.23 1318.75 2227.52 1321.52 Q2229.81 1324.28 2229.81 1329.65 Z" fill="#000000" fill-rule="nonzero" fill-opacity="1" /><path clip-path="url(#clip750)" d="M2255.37 1323.31 L2255.37 1309.28 L2259.63 1309.28 L2259.63 1345.3 L2255.37 1345.3 L2255.37 1341.41 Q2254.03 1343.72 2251.97 1344.86 Q2249.93 1345.97 2247.06 1345.97 Q2242.36 1345.97 2239.4 1342.22 Q2236.46 1338.47 2236.46 1332.36 Q2236.46 1326.25 2239.4 1322.5 Q2242.36 1318.75 2247.06 1318.75 Q2249.93 1318.75 2251.97 1319.88 Q2254.03 1320.99 2255.37 1323.31 M2240.85 1332.36 Q2240.85 1337.06 2242.78 1339.74 Q2244.72 1342.4 2248.1 1342.4 Q2251.48 1342.4 2253.42 1339.74 Q2255.37 1337.06 2255.37 1332.36 Q2255.37 1327.66 2253.42 1325 Q2251.48 1322.31 2248.1 1322.31 Q2244.72 1322.31 2242.78 1325 Q2240.85 1327.66 2240.85 1332.36 Z" fill="#000000" fill-rule="nonzero" fill-opacity="1" /></svg>
