<?xml version="1.0" encoding="utf-8"?>
<svg xmlns="http://www.w3.org/2000/svg" xmlns:xlink="http://www.w3.org/1999/xlink" width="600" height="400" viewBox="0 0 2400 1600">
<defs>
  <clipPath id="clip780">
    <rect x="0" y="0" width="2400" height="1600"/>
  </clipPath>
</defs>
<path clip-path="url(#clip780)" d="M0 1600 L2400 1600 L2400 0 L0 0  Z" fill="#ffffff" fill-rule="evenodd" fill-opacity="1"/>
<defs>
  <clipPath id="clip781">
    <rect x="480" y="0" width="1681" height="1600"/>
  </clipPath>
</defs>
<path clip-path="url(#clip780)" d="M175.445 1423.18 L2352.76 1423.18 L2352.76 123.472 L175.445 123.472  Z" fill="#ffffff" fill-rule="evenodd" fill-opacity="1"/>
<defs>
  <clipPath id="clip782">
    <rect x="175" y="123" width="2178" height="1301"/>
  </clipPath>
</defs>
<polyline clip-path="url(#clip782)" style="stroke:#000000; stroke-linecap:round; stroke-linejoin:round; stroke-width:2; stroke-opacity:0.1; fill:none" points="237.067,1423.18 237.067,123.472 "/>
<polyline clip-path="url(#clip782)" style="stroke:#000000; stroke-linecap:round; stroke-linejoin:round; stroke-width:2; stroke-opacity:0.1; fill:none" points="750.584,1423.18 750.584,123.472 "/>
<polyline clip-path="url(#clip782)" style="stroke:#000000; stroke-linecap:round; stroke-linejoin:round; stroke-width:2; stroke-opacity:0.1; fill:none" points="1264.1,1423.18 1264.1,123.472 "/>
<polyline clip-path="url(#clip782)" style="stroke:#000000; stroke-linecap:round; stroke-linejoin:round; stroke-width:2; stroke-opacity:0.1; fill:none" points="1777.62,1423.18 1777.62,123.472 "/>
<polyline clip-path="url(#clip782)" style="stroke:#000000; stroke-linecap:round; stroke-linejoin:round; stroke-width:2; stroke-opacity:0.1; fill:none" points="2291.13,1423.18 2291.13,123.472 "/>
<polyline clip-path="url(#clip782)" style="stroke:#000000; stroke-linecap:round; stroke-linejoin:round; stroke-width:2; stroke-opacity:0.1; fill:none" points="175.445,1324.02 2352.76,1324.02 "/>
<polyline clip-path="url(#clip782)" style="stroke:#000000; stroke-linecap:round; stroke-linejoin:round; stroke-width:2; stroke-opacity:0.1; fill:none" points="175.445,1092.2 2352.76,1092.2 "/>
<polyline clip-path="url(#clip782)" style="stroke:#000000; stroke-linecap:round; stroke-linejoin:round; stroke-width:2; stroke-opacity:0.1; fill:none" points="175.445,860.391 2352.76,860.391 "/>
<polyline clip-path="url(#clip782)" style="stroke:#000000; stroke-linecap:round; stroke-linejoin:round; stroke-width:2; stroke-opacity:0.1; fill:none" points="175.445,628.578 2352.76,628.578 "/>
<polyline clip-path="url(#clip782)" style="stroke:#000000; stroke-linecap:round; stroke-linejoin:round; stroke-width:2; stroke-opacity:0.1; fill:none" points="175.445,396.766 2352.76,396.766 "/>
<polyline clip-path="url(#clip782)" style="stroke:#000000; stroke-linecap:round; stroke-linejoin:round; stroke-width:2; stroke-opacity:0.1; fill:none" points="175.445,164.953 2352.76,164.953 "/>
<polyline clip-path="url(#clip780)" style="stroke:#000000; stroke-linecap:round; stroke-linejoin:round; stroke-width:4; stroke-opacity:1; fill:none" points="175.445,1423.18 2352.76,1423.18 "/>
<polyline clip-path="url(#clip780)" style="stroke:#000000; stroke-linecap:round; stroke-linejoin:round; stroke-width:4; stroke-opacity:1; fill:none" points="237.067,1423.18 237.067,1404.28 "/>
<polyline clip-path="url(#clip780)" style="stroke:#000000; stroke-linecap:round; stroke-linejoin:round; stroke-width:4; stroke-opacity:1; fill:none" points="750.584,1423.18 750.584,1404.28 "/>
<polyline clip-path="url(#clip780)" style="stroke:#000000; stroke-linecap:round; stroke-linejoin:round; stroke-width:4; stroke-opacity:1; fill:none" points="1264.1,1423.18 1264.1,1404.28 "/>
<polyline clip-path="url(#clip780)" style="stroke:#000000; stroke-linecap:round; stroke-linejoin:round; stroke-width:4; stroke-opacity:1; fill:none" points="1777.62,1423.18 1777.62,1404.28 "/>
<polyline clip-path="url(#clip780)" style="stroke:#000000; stroke-linecap:round; stroke-linejoin:round; stroke-width:4; stroke-opacity:1; fill:none" points="2291.13,1423.18 2291.13,1404.28 "/>
<path clip-path="url(#clip780)" d="M211.766 1451.02 L230.123 1451.02 L230.123 1454.96 L216.049 1454.96 L216.049 1463.43 Q217.067 1463.08 218.086 1462.92 Q219.104 1462.73 220.123 1462.73 Q225.91 1462.73 229.289 1465.9 Q232.669 1469.08 232.669 1474.49 Q232.669 1480.07 229.197 1483.17 Q225.725 1486.25 219.405 1486.25 Q217.229 1486.25 214.961 1485.88 Q212.715 1485.51 210.308 1484.77 L210.308 1480.07 Q212.391 1481.2 214.614 1481.76 Q216.836 1482.32 219.313 1482.32 Q223.317 1482.32 225.655 1480.21 Q227.993 1478.1 227.993 1474.49 Q227.993 1470.88 225.655 1468.77 Q223.317 1466.67 219.313 1466.67 Q217.438 1466.67 215.563 1467.08 Q213.711 1467.5 211.766 1468.38 L211.766 1451.02 Z" fill="#000000" fill-rule="nonzero" fill-opacity="1" /><path clip-path="url(#clip780)" d="M251.882 1454.1 Q248.271 1454.1 246.442 1457.66 Q244.637 1461.2 244.637 1468.33 Q244.637 1475.44 246.442 1479.01 Q248.271 1482.55 251.882 1482.55 Q255.516 1482.55 257.322 1479.01 Q259.15 1475.44 259.15 1468.33 Q259.15 1461.2 257.322 1457.66 Q255.516 1454.1 251.882 1454.1 M251.882 1450.39 Q257.692 1450.39 260.748 1455 Q263.826 1459.58 263.826 1468.33 Q263.826 1477.06 260.748 1481.67 Q257.692 1486.25 251.882 1486.25 Q246.072 1486.25 242.993 1481.67 Q239.938 1477.06 239.938 1468.33 Q239.938 1459.58 242.993 1455 Q246.072 1450.39 251.882 1450.39 Z" fill="#000000" fill-rule="nonzero" fill-opacity="1" /><path clip-path="url(#clip780)" d="M710.191 1481.64 L717.829 1481.64 L717.829 1455.28 L709.519 1456.95 L709.519 1452.69 L717.783 1451.02 L722.459 1451.02 L722.459 1481.64 L730.098 1481.64 L730.098 1485.58 L710.191 1485.58 L710.191 1481.64 Z" fill="#000000" fill-rule="nonzero" fill-opacity="1" /><path clip-path="url(#clip780)" d="M749.542 1454.1 Q745.931 1454.1 744.102 1457.66 Q742.297 1461.2 742.297 1468.33 Q742.297 1475.44 744.102 1479.01 Q745.931 1482.55 749.542 1482.55 Q753.176 1482.55 754.982 1479.01 Q756.811 1475.44 756.811 1468.33 Q756.811 1461.2 754.982 1457.66 Q753.176 1454.1 749.542 1454.1 M749.542 1450.39 Q755.352 1450.39 758.408 1455 Q761.487 1459.58 761.487 1468.33 Q761.487 1477.06 758.408 1481.67 Q755.352 1486.25 749.542 1486.25 Q743.732 1486.25 740.653 1481.67 Q737.598 1477.06 737.598 1468.33 Q737.598 1459.58 740.653 1455 Q743.732 1450.39 749.542 1450.39 Z" fill="#000000" fill-rule="nonzero" fill-opacity="1" /><path clip-path="url(#clip780)" d="M779.704 1454.1 Q776.093 1454.1 774.264 1457.66 Q772.459 1461.2 772.459 1468.33 Q772.459 1475.44 774.264 1479.01 Q776.093 1482.55 779.704 1482.55 Q783.338 1482.55 785.144 1479.01 Q786.973 1475.44 786.973 1468.33 Q786.973 1461.2 785.144 1457.66 Q783.338 1454.1 779.704 1454.1 M779.704 1450.39 Q785.514 1450.39 788.57 1455 Q791.648 1459.58 791.648 1468.33 Q791.648 1477.06 788.57 1481.67 Q785.514 1486.25 779.704 1486.25 Q773.894 1486.25 770.815 1481.67 Q767.76 1477.06 767.76 1468.33 Q767.76 1459.58 770.815 1455 Q773.894 1450.39 779.704 1450.39 Z" fill="#000000" fill-rule="nonzero" fill-opacity="1" /><path clip-path="url(#clip780)" d="M1223.71 1481.64 L1231.35 1481.64 L1231.35 1455.28 L1223.04 1456.95 L1223.04 1452.69 L1231.3 1451.02 L1235.98 1451.02 L1235.98 1481.64 L1243.61 1481.64 L1243.61 1485.58 L1223.71 1485.58 L1223.71 1481.64 Z" fill="#000000" fill-rule="nonzero" fill-opacity="1" /><path clip-path="url(#clip780)" d="M1253.11 1451.02 L1271.46 1451.02 L1271.46 1454.96 L1257.39 1454.96 L1257.39 1463.43 Q1258.41 1463.08 1259.42 1462.92 Q1260.44 1462.73 1261.46 1462.73 Q1267.25 1462.73 1270.63 1465.9 Q1274.01 1469.08 1274.01 1474.49 Q1274.01 1480.07 1270.54 1483.17 Q1267.06 1486.25 1260.74 1486.25 Q1258.57 1486.25 1256.3 1485.88 Q1254.05 1485.51 1251.65 1484.77 L1251.65 1480.07 Q1253.73 1481.2 1255.95 1481.76 Q1258.17 1482.32 1260.65 1482.32 Q1264.66 1482.32 1266.99 1480.21 Q1269.33 1478.1 1269.33 1474.49 Q1269.33 1470.88 1266.99 1468.77 Q1264.66 1466.67 1260.65 1466.67 Q1258.78 1466.67 1256.9 1467.08 Q1255.05 1467.5 1253.11 1468.38 L1253.11 1451.02 Z" fill="#000000" fill-rule="nonzero" fill-opacity="1" /><path clip-path="url(#clip780)" d="M1293.22 1454.1 Q1289.61 1454.1 1287.78 1457.66 Q1285.98 1461.2 1285.98 1468.33 Q1285.98 1475.44 1287.78 1479.01 Q1289.61 1482.55 1293.22 1482.55 Q1296.86 1482.55 1298.66 1479.01 Q1300.49 1475.44 1300.49 1468.33 Q1300.49 1461.2 1298.66 1457.66 Q1296.86 1454.1 1293.22 1454.1 M1293.22 1450.39 Q1299.03 1450.39 1302.09 1455 Q1305.17 1459.58 1305.17 1468.33 Q1305.17 1477.06 1302.09 1481.67 Q1299.03 1486.25 1293.22 1486.25 Q1287.41 1486.25 1284.33 1481.67 Q1281.28 1477.06 1281.28 1468.33 Q1281.28 1459.58 1284.33 1455 Q1287.41 1450.39 1293.22 1450.39 Z" fill="#000000" fill-rule="nonzero" fill-opacity="1" /><path clip-path="url(#clip780)" d="M1741.31 1481.64 L1757.63 1481.64 L1757.63 1485.58 L1735.68 1485.58 L1735.68 1481.64 Q1738.35 1478.89 1742.93 1474.26 Q1747.54 1469.61 1748.72 1468.27 Q1750.96 1465.74 1751.84 1464.01 Q1752.74 1462.25 1752.74 1460.56 Q1752.74 1457.8 1750.8 1456.07 Q1748.88 1454.33 1745.78 1454.33 Q1743.58 1454.33 1741.12 1455.09 Q1738.69 1455.86 1735.92 1457.41 L1735.92 1452.69 Q1738.74 1451.55 1741.19 1450.97 Q1743.65 1450.39 1745.68 1450.39 Q1751.05 1450.39 1754.25 1453.08 Q1757.44 1455.77 1757.44 1460.26 Q1757.44 1462.39 1756.63 1464.31 Q1755.85 1466.2 1753.74 1468.8 Q1753.16 1469.47 1750.06 1472.69 Q1746.96 1475.88 1741.31 1481.64 Z" fill="#000000" fill-rule="nonzero" fill-opacity="1" /><path clip-path="url(#clip780)" d="M1777.44 1454.1 Q1773.83 1454.1 1772 1457.66 Q1770.2 1461.2 1770.2 1468.33 Q1770.2 1475.44 1772 1479.01 Q1773.83 1482.55 1777.44 1482.55 Q1781.08 1482.55 1782.88 1479.01 Q1784.71 1475.44 1784.71 1468.33 Q1784.71 1461.2 1782.88 1457.66 Q1781.08 1454.1 1777.44 1454.1 M1777.44 1450.39 Q1783.25 1450.39 1786.31 1455 Q1789.39 1459.58 1789.39 1468.33 Q1789.39 1477.06 1786.31 1481.67 Q1783.25 1486.25 1777.44 1486.25 Q1771.63 1486.25 1768.55 1481.67 Q1765.5 1477.06 1765.5 1468.33 Q1765.5 1459.58 1768.55 1455 Q1771.63 1450.39 1777.44 1450.39 Z" fill="#000000" fill-rule="nonzero" fill-opacity="1" /><path clip-path="url(#clip780)" d="M1807.61 1454.1 Q1803.99 1454.1 1802.17 1457.66 Q1800.36 1461.2 1800.36 1468.33 Q1800.36 1475.44 1802.17 1479.01 Q1803.99 1482.55 1807.61 1482.55 Q1811.24 1482.55 1813.05 1479.01 Q1814.87 1475.44 1814.87 1468.33 Q1814.87 1461.2 1813.05 1457.66 Q1811.24 1454.1 1807.61 1454.1 M1807.61 1450.39 Q1813.42 1450.39 1816.47 1455 Q1819.55 1459.58 1819.55 1468.33 Q1819.55 1477.06 1816.47 1481.67 Q1813.42 1486.25 1807.61 1486.25 Q1801.8 1486.25 1798.72 1481.67 Q1795.66 1477.06 1795.66 1468.33 Q1795.66 1459.58 1798.72 1455 Q1801.8 1450.39 1807.61 1450.39 Z" fill="#000000" fill-rule="nonzero" fill-opacity="1" /><path clip-path="url(#clip780)" d="M2254.83 1481.64 L2271.15 1481.64 L2271.15 1485.58 L2249.2 1485.58 L2249.2 1481.64 Q2251.86 1478.89 2256.45 1474.26 Q2261.05 1469.61 2262.23 1468.27 Q2264.48 1465.74 2265.36 1464.01 Q2266.26 1462.25 2266.26 1460.56 Q2266.26 1457.8 2264.32 1456.07 Q2262.4 1454.33 2259.29 1454.33 Q2257.09 1454.33 2254.64 1455.09 Q2252.21 1455.86 2249.43 1457.41 L2249.43 1452.69 Q2252.26 1451.55 2254.71 1450.97 Q2257.16 1450.39 2259.2 1450.39 Q2264.57 1450.39 2267.77 1453.08 Q2270.96 1455.77 2270.96 1460.26 Q2270.96 1462.39 2270.15 1464.31 Q2269.36 1466.2 2267.26 1468.8 Q2266.68 1469.47 2263.58 1472.69 Q2260.47 1475.88 2254.83 1481.64 Z" fill="#000000" fill-rule="nonzero" fill-opacity="1" /><path clip-path="url(#clip780)" d="M2281.01 1451.02 L2299.36 1451.02 L2299.36 1454.96 L2285.29 1454.96 L2285.29 1463.43 Q2286.31 1463.08 2287.33 1462.92 Q2288.34 1462.73 2289.36 1462.73 Q2295.15 1462.73 2298.53 1465.9 Q2301.91 1469.08 2301.91 1474.49 Q2301.91 1480.07 2298.44 1483.17 Q2294.96 1486.25 2288.65 1486.25 Q2286.47 1486.25 2284.2 1485.88 Q2281.96 1485.51 2279.55 1484.77 L2279.55 1480.07 Q2281.63 1481.2 2283.85 1481.76 Q2286.08 1482.32 2288.55 1482.32 Q2292.56 1482.32 2294.9 1480.21 Q2297.23 1478.1 2297.23 1474.49 Q2297.23 1470.88 2294.9 1468.77 Q2292.56 1466.67 2288.55 1466.67 Q2286.68 1466.67 2284.8 1467.08 Q2282.95 1467.5 2281.01 1468.38 L2281.01 1451.02 Z" fill="#000000" fill-rule="nonzero" fill-opacity="1" /><path clip-path="url(#clip780)" d="M2321.12 1454.1 Q2317.51 1454.1 2315.68 1457.66 Q2313.88 1461.2 2313.88 1468.33 Q2313.88 1475.44 2315.68 1479.01 Q2317.51 1482.55 2321.12 1482.55 Q2324.76 1482.55 2326.56 1479.01 Q2328.39 1475.44 2328.39 1468.33 Q2328.39 1461.2 2326.56 1457.66 Q2324.76 1454.1 2321.12 1454.1 M2321.12 1450.39 Q2326.93 1450.39 2329.99 1455 Q2333.07 1459.58 2333.07 1468.33 Q2333.07 1477.06 2329.99 1481.67 Q2326.93 1486.25 2321.12 1486.25 Q2315.31 1486.25 2312.23 1481.67 Q2309.18 1477.06 2309.18 1468.33 Q2309.18 1459.58 2312.23 1455 Q2315.31 1450.39 2321.12 1450.39 Z" fill="#000000" fill-rule="nonzero" fill-opacity="1" /><path clip-path="url(#clip780)" d="M711.971 1520.52 L742.017 1520.52 L742.017 1525.93 L718.4 1525.93 L718.4 1540 L741.03 1540 L741.03 1545.41 L718.4 1545.41 L718.4 1562.63 L742.59 1562.63 L742.59 1568.04 L711.971 1568.04 L711.971 1520.52 Z" fill="#000000" fill-rule="nonzero" fill-opacity="1" /><path clip-path="url(#clip780)" d="M782.535 1546.53 L782.535 1568.04 L776.678 1568.04 L776.678 1546.72 Q776.678 1541.66 774.705 1539.14 Q772.732 1536.63 768.785 1536.63 Q764.042 1536.63 761.305 1539.65 Q758.568 1542.68 758.568 1547.9 L758.568 1568.04 L752.68 1568.04 L752.68 1532.4 L758.568 1532.4 L758.568 1537.93 Q760.669 1534.72 763.501 1533.13 Q766.366 1531.54 770.09 1531.54 Q776.233 1531.54 779.384 1535.36 Q782.535 1539.14 782.535 1546.53 Z" fill="#000000" fill-rule="nonzero" fill-opacity="1" /><path clip-path="url(#clip780)" d="M824.708 1548.76 L824.708 1551.62 L797.781 1551.62 Q798.163 1557.67 801.409 1560.85 Q804.688 1564 810.512 1564 Q813.886 1564 817.037 1563.17 Q820.22 1562.35 823.339 1560.69 L823.339 1566.23 Q820.188 1567.57 816.878 1568.27 Q813.568 1568.97 810.162 1568.97 Q801.632 1568.97 796.635 1564 Q791.67 1559.04 791.67 1550.57 Q791.67 1541.82 796.38 1536.69 Q801.123 1531.54 809.144 1531.54 Q816.337 1531.54 820.506 1536.18 Q824.708 1540.8 824.708 1548.76 M818.851 1547.04 Q818.788 1542.23 816.146 1539.37 Q813.536 1536.5 809.207 1536.5 Q804.306 1536.5 801.346 1539.27 Q798.417 1542.04 797.972 1547.07 L818.851 1547.04 Z" fill="#000000" fill-rule="nonzero" fill-opacity="1" /><path clip-path="url(#clip780)" d="M854.977 1537.87 Q853.99 1537.3 852.812 1537.04 Q851.666 1536.76 850.266 1536.76 Q845.301 1536.76 842.627 1540 Q839.985 1543.22 839.985 1549.27 L839.985 1568.04 L834.097 1568.04 L834.097 1532.4 L839.985 1532.4 L839.985 1537.93 Q841.831 1534.69 844.791 1533.13 Q847.752 1531.54 851.985 1531.54 Q852.589 1531.54 853.322 1531.63 Q854.054 1531.7 854.945 1531.85 L854.977 1537.87 Z" fill="#000000" fill-rule="nonzero" fill-opacity="1" /><path clip-path="url(#clip780)" d="M883.431 1549.81 Q883.431 1543.44 880.79 1539.94 Q878.18 1536.44 873.437 1536.44 Q868.727 1536.44 866.085 1539.94 Q863.475 1543.44 863.475 1549.81 Q863.475 1556.14 866.085 1559.64 Q868.727 1563.14 873.437 1563.14 Q878.18 1563.14 880.79 1559.64 Q883.431 1556.14 883.431 1549.81 M889.288 1563.62 Q889.288 1572.72 885.246 1577.15 Q881.203 1581.6 872.864 1581.6 Q869.777 1581.6 867.04 1581.13 Q864.302 1580.68 861.724 1579.72 L861.724 1574.03 Q864.302 1575.43 866.817 1576.1 Q869.331 1576.76 871.941 1576.76 Q877.702 1576.76 880.567 1573.74 Q883.431 1570.75 883.431 1564.67 L883.431 1561.77 Q881.617 1564.92 878.784 1566.48 Q875.952 1568.04 872.005 1568.04 Q865.448 1568.04 861.438 1563.05 Q857.427 1558.05 857.427 1549.81 Q857.427 1541.53 861.438 1536.53 Q865.448 1531.54 872.005 1531.54 Q875.952 1531.54 878.784 1533.1 Q881.617 1534.66 883.431 1537.81 L883.431 1532.4 L889.288 1532.4 L889.288 1563.62 Z" fill="#000000" fill-rule="nonzero" fill-opacity="1" /><path clip-path="url(#clip780)" d="M916.183 1571.35 Q913.7 1577.72 911.345 1579.66 Q908.99 1581.6 905.043 1581.6 L900.364 1581.6 L900.364 1576.7 L903.802 1576.7 Q906.221 1576.7 907.557 1575.56 Q908.894 1574.41 910.517 1570.14 L911.568 1567.47 L897.149 1532.4 L903.356 1532.4 L914.496 1560.28 L925.636 1532.4 L931.842 1532.4 L916.183 1571.35 Z" fill="#000000" fill-rule="nonzero" fill-opacity="1" /><path clip-path="url(#clip780)" d="M974.461 1536.5 Q969.75 1536.5 967.013 1540.19 Q964.276 1543.85 964.276 1550.25 Q964.276 1556.65 966.981 1560.34 Q969.718 1564 974.461 1564 Q979.14 1564 981.877 1560.31 Q984.614 1556.62 984.614 1550.25 Q984.614 1543.92 981.877 1540.23 Q979.14 1536.5 974.461 1536.5 M974.461 1531.54 Q982.1 1531.54 986.46 1536.5 Q990.821 1541.47 990.821 1550.25 Q990.821 1559 986.46 1564 Q982.1 1568.97 974.461 1568.97 Q966.79 1568.97 962.43 1564 Q958.101 1559 958.101 1550.25 Q958.101 1541.47 962.43 1536.5 Q966.79 1531.54 974.461 1531.54 Z" fill="#000000" fill-rule="nonzero" fill-opacity="1" /><path clip-path="url(#clip780)" d="M1018.58 1518.52 L1018.58 1523.39 L1012.97 1523.39 Q1009.82 1523.39 1008.58 1524.66 Q1007.37 1525.93 1007.37 1529.24 L1007.37 1532.4 L1017.02 1532.4 L1017.02 1536.95 L1007.37 1536.95 L1007.37 1568.04 L1001.48 1568.04 L1001.48 1536.95 L995.882 1536.95 L995.882 1532.4 L1001.48 1532.4 L1001.48 1529.91 Q1001.48 1523.96 1004.25 1521.26 Q1007.02 1518.52 1013.04 1518.52 L1018.58 1518.52 Z" fill="#000000" fill-rule="nonzero" fill-opacity="1" /><path clip-path="url(#clip780)" d="M1044.2 1532.4 L1050.05 1532.4 L1050.05 1568.04 L1044.2 1568.04 L1044.2 1532.4 M1044.2 1518.52 L1050.05 1518.52 L1050.05 1525.93 L1044.2 1525.93 L1044.2 1518.52 Z" fill="#000000" fill-rule="nonzero" fill-opacity="1" /><path clip-path="url(#clip780)" d="M1091.94 1546.53 L1091.94 1568.04 L1086.08 1568.04 L1086.08 1546.72 Q1086.08 1541.66 1084.11 1539.14 Q1082.14 1536.63 1078.19 1536.63 Q1073.45 1536.63 1070.71 1539.65 Q1067.97 1542.68 1067.97 1547.9 L1067.97 1568.04 L1062.08 1568.04 L1062.08 1532.4 L1067.97 1532.4 L1067.97 1537.93 Q1070.07 1534.72 1072.91 1533.13 Q1075.77 1531.54 1079.5 1531.54 Q1085.64 1531.54 1088.79 1535.36 Q1091.94 1539.14 1091.94 1546.53 Z" fill="#000000" fill-rule="nonzero" fill-opacity="1" /><path clip-path="url(#clip780)" d="M1129.27 1533.76 L1129.27 1539.24 Q1126.79 1537.87 1124.28 1537.2 Q1121.8 1536.5 1119.25 1536.5 Q1113.55 1536.5 1110.4 1540.13 Q1107.25 1543.73 1107.25 1550.25 Q1107.25 1556.78 1110.4 1560.4 Q1113.55 1564 1119.25 1564 Q1121.8 1564 1124.28 1563.33 Q1126.79 1562.63 1129.27 1561.26 L1129.27 1566.68 Q1126.82 1567.82 1124.18 1568.39 Q1121.57 1568.97 1118.61 1568.97 Q1110.56 1568.97 1105.82 1563.91 Q1101.07 1558.85 1101.07 1550.25 Q1101.07 1541.53 1105.85 1536.53 Q1110.66 1531.54 1118.99 1531.54 Q1121.7 1531.54 1124.28 1532.11 Q1126.86 1532.65 1129.27 1533.76 Z" fill="#000000" fill-rule="nonzero" fill-opacity="1" /><path clip-path="url(#clip780)" d="M1139.46 1532.4 L1145.32 1532.4 L1145.32 1568.04 L1139.46 1568.04 L1139.46 1532.4 M1139.46 1518.52 L1145.32 1518.52 L1145.32 1525.93 L1139.46 1525.93 L1139.46 1518.52 Z" fill="#000000" fill-rule="nonzero" fill-opacity="1" /><path clip-path="url(#clip780)" d="M1181.03 1537.81 L1181.03 1518.52 L1186.88 1518.52 L1186.88 1568.04 L1181.03 1568.04 L1181.03 1562.7 Q1179.18 1565.88 1176.35 1567.44 Q1173.55 1568.97 1169.6 1568.97 Q1163.14 1568.97 1159.07 1563.81 Q1155.02 1558.65 1155.02 1550.25 Q1155.02 1541.85 1159.07 1536.69 Q1163.14 1531.54 1169.6 1531.54 Q1173.55 1531.54 1176.35 1533.1 Q1179.18 1534.62 1181.03 1537.81 M1161.07 1550.25 Q1161.07 1556.71 1163.71 1560.4 Q1166.39 1564.07 1171.03 1564.07 Q1175.68 1564.07 1178.35 1560.4 Q1181.03 1556.71 1181.03 1550.25 Q1181.03 1543.79 1178.35 1540.13 Q1175.68 1536.44 1171.03 1536.44 Q1166.39 1536.44 1163.71 1540.13 Q1161.07 1543.79 1161.07 1550.25 Z" fill="#000000" fill-rule="nonzero" fill-opacity="1" /><path clip-path="url(#clip780)" d="M1229.44 1548.76 L1229.44 1551.62 L1202.51 1551.62 Q1202.89 1557.67 1206.14 1560.85 Q1209.42 1564 1215.24 1564 Q1218.62 1564 1221.77 1563.17 Q1224.95 1562.35 1228.07 1560.69 L1228.07 1566.23 Q1224.92 1567.57 1221.61 1568.27 Q1218.3 1568.97 1214.89 1568.97 Q1206.36 1568.97 1201.37 1564 Q1196.4 1559.04 1196.4 1550.57 Q1196.4 1541.82 1201.11 1536.69 Q1205.85 1531.54 1213.88 1531.54 Q1221.07 1531.54 1225.24 1536.18 Q1229.44 1540.8 1229.44 1548.76 M1223.58 1547.04 Q1223.52 1542.23 1220.88 1539.37 Q1218.27 1536.5 1213.94 1536.5 Q1209.04 1536.5 1206.08 1539.27 Q1203.15 1542.04 1202.7 1547.07 L1223.58 1547.04 Z" fill="#000000" fill-rule="nonzero" fill-opacity="1" /><path clip-path="url(#clip780)" d="M1268.68 1546.53 L1268.68 1568.04 L1262.83 1568.04 L1262.83 1546.72 Q1262.83 1541.66 1260.85 1539.14 Q1258.88 1536.63 1254.93 1536.63 Q1250.19 1536.63 1247.45 1539.65 Q1244.72 1542.68 1244.72 1547.9 L1244.72 1568.04 L1238.83 1568.04 L1238.83 1532.4 L1244.72 1532.4 L1244.72 1537.93 Q1246.82 1534.72 1249.65 1533.13 Q1252.51 1531.54 1256.24 1531.54 Q1262.38 1531.54 1265.53 1535.36 Q1268.68 1539.14 1268.68 1546.53 Z" fill="#000000" fill-rule="nonzero" fill-opacity="1" /><path clip-path="url(#clip780)" d="M1286.16 1522.27 L1286.16 1532.4 L1298.22 1532.4 L1298.22 1536.95 L1286.16 1536.95 L1286.16 1556.3 Q1286.16 1560.66 1287.34 1561.9 Q1288.54 1563.14 1292.21 1563.14 L1298.22 1563.14 L1298.22 1568.04 L1292.21 1568.04 Q1285.43 1568.04 1282.85 1565.53 Q1280.27 1562.98 1280.27 1556.3 L1280.27 1536.95 L1275.97 1536.95 L1275.97 1532.4 L1280.27 1532.4 L1280.27 1522.27 L1286.16 1522.27 Z" fill="#000000" fill-rule="nonzero" fill-opacity="1" /><path clip-path="url(#clip780)" d="M1356.28 1546.53 L1356.28 1568.04 L1350.42 1568.04 L1350.42 1546.72 Q1350.42 1541.66 1348.45 1539.14 Q1346.47 1536.63 1342.53 1536.63 Q1337.78 1536.63 1335.05 1539.65 Q1332.31 1542.68 1332.31 1547.9 L1332.31 1568.04 L1326.42 1568.04 L1326.42 1532.4 L1332.31 1532.4 L1332.31 1537.93 Q1334.41 1534.72 1337.24 1533.13 Q1340.11 1531.54 1343.83 1531.54 Q1349.97 1531.54 1353.12 1535.36 Q1356.28 1539.14 1356.28 1546.53 Z" fill="#000000" fill-rule="nonzero" fill-opacity="1" /><path clip-path="url(#clip780)" d="M1398.45 1548.76 L1398.45 1551.62 L1371.52 1551.62 Q1371.9 1557.67 1375.15 1560.85 Q1378.43 1564 1384.25 1564 Q1387.63 1564 1390.78 1563.17 Q1393.96 1562.35 1397.08 1560.69 L1397.08 1566.23 Q1393.93 1567.57 1390.62 1568.27 Q1387.31 1568.97 1383.9 1568.97 Q1375.37 1568.97 1370.38 1564 Q1365.41 1559.04 1365.41 1550.57 Q1365.41 1541.82 1370.12 1536.69 Q1374.86 1531.54 1382.88 1531.54 Q1390.08 1531.54 1394.25 1536.18 Q1398.45 1540.8 1398.45 1548.76 M1392.59 1547.04 Q1392.53 1542.23 1389.89 1539.37 Q1387.28 1536.5 1382.95 1536.5 Q1378.05 1536.5 1375.09 1539.27 Q1372.16 1542.04 1371.71 1547.07 L1392.59 1547.04 Z" fill="#000000" fill-rule="nonzero" fill-opacity="1" /><path clip-path="url(#clip780)" d="M1407.46 1553.98 L1407.46 1532.4 L1413.31 1532.4 L1413.31 1553.75 Q1413.31 1558.81 1415.29 1561.36 Q1417.26 1563.87 1421.21 1563.87 Q1425.95 1563.87 1428.69 1560.85 Q1431.45 1557.83 1431.45 1552.61 L1431.45 1532.4 L1437.31 1532.4 L1437.31 1568.04 L1431.45 1568.04 L1431.45 1562.57 Q1429.32 1565.82 1426.49 1567.41 Q1423.69 1568.97 1419.96 1568.97 Q1413.82 1568.97 1410.64 1565.15 Q1407.46 1561.33 1407.46 1553.98 M1422.19 1531.54 L1422.19 1531.54 Z" fill="#000000" fill-rule="nonzero" fill-opacity="1" /><path clip-path="url(#clip780)" d="M1455.17 1522.27 L1455.17 1532.4 L1467.23 1532.4 L1467.23 1536.95 L1455.17 1536.95 L1455.17 1556.3 Q1455.17 1560.66 1456.34 1561.9 Q1457.55 1563.14 1461.21 1563.14 L1467.23 1563.14 L1467.23 1568.04 L1461.21 1568.04 Q1454.44 1568.04 1451.86 1565.53 Q1449.28 1562.98 1449.28 1556.3 L1449.28 1536.95 L1444.98 1536.95 L1444.98 1532.4 L1449.28 1532.4 L1449.28 1522.27 L1455.17 1522.27 Z" fill="#000000" fill-rule="nonzero" fill-opacity="1" /><path clip-path="url(#clip780)" d="M1495.59 1537.87 Q1494.6 1537.3 1493.43 1537.04 Q1492.28 1536.76 1490.88 1536.76 Q1485.91 1536.76 1483.24 1540 Q1480.6 1543.22 1480.6 1549.27 L1480.6 1568.04 L1474.71 1568.04 L1474.71 1532.4 L1480.6 1532.4 L1480.6 1537.93 Q1482.44 1534.69 1485.4 1533.13 Q1488.36 1531.54 1492.6 1531.54 Q1493.2 1531.54 1493.93 1531.63 Q1494.67 1531.7 1495.56 1531.85 L1495.59 1537.87 Z" fill="#000000" fill-rule="nonzero" fill-opacity="1" /><path clip-path="url(#clip780)" d="M1514.11 1536.5 Q1509.4 1536.5 1506.67 1540.19 Q1503.93 1543.85 1503.93 1550.25 Q1503.93 1556.65 1506.63 1560.34 Q1509.37 1564 1514.11 1564 Q1518.79 1564 1521.53 1560.31 Q1524.27 1556.62 1524.27 1550.25 Q1524.27 1543.92 1521.53 1540.23 Q1518.79 1536.5 1514.11 1536.5 M1514.11 1531.54 Q1521.75 1531.54 1526.11 1536.5 Q1530.47 1541.47 1530.47 1550.25 Q1530.47 1559 1526.11 1564 Q1521.75 1568.97 1514.11 1568.97 Q1506.44 1568.97 1502.08 1564 Q1497.75 1559 1497.75 1550.25 Q1497.75 1541.47 1502.08 1536.5 Q1506.44 1531.54 1514.11 1531.54 Z" fill="#000000" fill-rule="nonzero" fill-opacity="1" /><path clip-path="url(#clip780)" d="M1569.81 1546.53 L1569.81 1568.04 L1563.96 1568.04 L1563.96 1546.72 Q1563.96 1541.66 1561.98 1539.14 Q1560.01 1536.63 1556.06 1536.63 Q1551.32 1536.63 1548.58 1539.65 Q1545.85 1542.68 1545.85 1547.9 L1545.85 1568.04 L1539.96 1568.04 L1539.96 1532.4 L1545.85 1532.4 L1545.85 1537.93 Q1547.95 1534.72 1550.78 1533.13 Q1553.64 1531.54 1557.37 1531.54 Q1563.51 1531.54 1566.66 1535.36 Q1569.81 1539.14 1569.81 1546.53 Z" fill="#000000" fill-rule="nonzero" fill-opacity="1" /><path clip-path="url(#clip780)" d="M1604.22 1533.45 L1604.22 1538.98 Q1601.74 1537.71 1599.06 1537.07 Q1596.39 1536.44 1593.53 1536.44 Q1589.17 1536.44 1586.97 1537.77 Q1584.8 1539.11 1584.8 1541.79 Q1584.8 1543.82 1586.36 1545 Q1587.92 1546.15 1592.63 1547.2 L1594.64 1547.64 Q1600.88 1548.98 1603.49 1551.43 Q1606.13 1553.85 1606.13 1558.21 Q1606.13 1563.17 1602.18 1566.07 Q1598.27 1568.97 1591.39 1568.97 Q1588.53 1568.97 1585.41 1568.39 Q1582.32 1567.85 1578.88 1566.74 L1578.88 1560.69 Q1582.13 1562.38 1585.28 1563.24 Q1588.43 1564.07 1591.52 1564.07 Q1595.66 1564.07 1597.89 1562.66 Q1600.11 1561.23 1600.11 1558.65 Q1600.11 1556.27 1598.49 1554.99 Q1596.9 1553.72 1591.46 1552.54 L1589.42 1552.07 Q1583.98 1550.92 1581.56 1548.56 Q1579.14 1546.18 1579.14 1542.04 Q1579.14 1537.01 1582.7 1534.27 Q1586.27 1531.54 1592.83 1531.54 Q1596.07 1531.54 1598.94 1532.01 Q1601.8 1532.49 1604.22 1533.45 Z" fill="#000000" fill-rule="nonzero" fill-opacity="1" /><path clip-path="url(#clip780)" d="M1650.24 1518.58 Q1645.98 1525.9 1643.91 1533.06 Q1641.84 1540.23 1641.84 1547.58 Q1641.84 1554.93 1643.91 1562.16 Q1646.01 1569.35 1650.24 1576.64 L1645.15 1576.64 Q1640.38 1569.16 1637.99 1561.93 Q1635.64 1554.71 1635.64 1547.58 Q1635.64 1540.48 1637.99 1533.29 Q1640.35 1526.09 1645.15 1518.58 L1650.24 1518.58 Z" fill="#000000" fill-rule="nonzero" fill-opacity="1" /><path clip-path="url(#clip780)" d="M1661.86 1520.52 L1671.44 1520.52 L1683.57 1552.86 L1695.76 1520.52 L1705.34 1520.52 L1705.34 1568.04 L1699.07 1568.04 L1699.07 1526.32 L1686.82 1558.91 L1680.35 1558.91 L1668.1 1526.32 L1668.1 1568.04 L1661.86 1568.04 L1661.86 1520.52 Z" fill="#000000" fill-rule="nonzero" fill-opacity="1" /><path clip-path="url(#clip780)" d="M1748.34 1548.76 L1748.34 1551.62 L1721.41 1551.62 Q1721.79 1557.67 1725.04 1560.85 Q1728.32 1564 1734.14 1564 Q1737.52 1564 1740.67 1563.17 Q1743.85 1562.35 1746.97 1560.69 L1746.97 1566.23 Q1743.82 1567.57 1740.51 1568.27 Q1737.2 1568.97 1733.79 1568.97 Q1725.26 1568.97 1720.27 1564 Q1715.3 1559.04 1715.3 1550.57 Q1715.3 1541.82 1720.01 1536.69 Q1724.75 1531.54 1732.78 1531.54 Q1739.97 1531.54 1744.14 1536.18 Q1748.34 1540.8 1748.34 1548.76 M1742.48 1547.04 Q1742.42 1542.23 1739.78 1539.37 Q1737.17 1536.5 1732.84 1536.5 Q1727.94 1536.5 1724.98 1539.27 Q1722.05 1542.04 1721.6 1547.07 L1742.48 1547.04 Z" fill="#000000" fill-rule="nonzero" fill-opacity="1" /><path clip-path="url(#clip780)" d="M1770.46 1568.04 L1752.32 1520.52 L1759.03 1520.52 L1774.09 1560.53 L1789.18 1520.52 L1795.86 1520.52 L1777.75 1568.04 L1770.46 1568.04 Z" fill="#000000" fill-rule="nonzero" fill-opacity="1" /><path clip-path="url(#clip780)" d="M1801.62 1518.58 L1806.71 1518.58 Q1811.49 1526.09 1813.84 1533.29 Q1816.23 1540.48 1816.23 1547.58 Q1816.23 1554.71 1813.84 1561.93 Q1811.49 1569.16 1806.71 1576.64 L1801.62 1576.64 Q1805.85 1569.35 1807.92 1562.16 Q1810.02 1554.93 1810.02 1547.58 Q1810.02 1540.23 1807.92 1533.06 Q1805.85 1525.9 1801.62 1518.58 Z" fill="#000000" fill-rule="nonzero" fill-opacity="1" /><polyline clip-path="url(#clip780)" style="stroke:#000000; stroke-linecap:round; stroke-linejoin:round; stroke-width:4; stroke-opacity:1; fill:none" points="175.445,1423.18 175.445,123.472 "/>
<polyline clip-path="url(#clip780)" style="stroke:#000000; stroke-linecap:round; stroke-linejoin:round; stroke-width:4; stroke-opacity:1; fill:none" points="175.445,1324.02 194.343,1324.02 "/>
<polyline clip-path="url(#clip780)" style="stroke:#000000; stroke-linecap:round; stroke-linejoin:round; stroke-width:4; stroke-opacity:1; fill:none" points="175.445,1092.2 194.343,1092.2 "/>
<polyline clip-path="url(#clip780)" style="stroke:#000000; stroke-linecap:round; stroke-linejoin:round; stroke-width:4; stroke-opacity:1; fill:none" points="175.445,860.391 194.343,860.391 "/>
<polyline clip-path="url(#clip780)" style="stroke:#000000; stroke-linecap:round; stroke-linejoin:round; stroke-width:4; stroke-opacity:1; fill:none" points="175.445,628.578 194.343,628.578 "/>
<polyline clip-path="url(#clip780)" style="stroke:#000000; stroke-linecap:round; stroke-linejoin:round; stroke-width:4; stroke-opacity:1; fill:none" points="175.445,396.766 194.343,396.766 "/>
<polyline clip-path="url(#clip780)" style="stroke:#000000; stroke-linecap:round; stroke-linejoin:round; stroke-width:4; stroke-opacity:1; fill:none" points="175.445,164.953 194.343,164.953 "/>
<path clip-path="url(#clip780)" d="M119.538 1337.36 L127.177 1337.36 L127.177 1311 L118.867 1312.66 L118.867 1308.4 L127.13 1306.74 L131.806 1306.74 L131.806 1337.36 L139.445 1337.36 L139.445 1341.3 L119.538 1341.3 L119.538 1337.36 Z" fill="#000000" fill-rule="nonzero" fill-opacity="1" /><path clip-path="url(#clip780)" d="M123.126 1105.55 L139.445 1105.55 L139.445 1109.48 L117.501 1109.48 L117.501 1105.55 Q120.163 1102.79 124.746 1098.16 Q129.353 1093.51 130.533 1092.17 Q132.779 1089.65 133.658 1087.91 Q134.561 1086.15 134.561 1084.46 Q134.561 1081.71 132.617 1079.97 Q130.695 1078.23 127.593 1078.23 Q125.394 1078.23 122.941 1079 Q120.51 1079.76 117.732 1081.31 L117.732 1076.59 Q120.556 1075.46 123.01 1074.88 Q125.464 1074.3 127.501 1074.3 Q132.871 1074.3 136.066 1076.98 Q139.26 1079.67 139.26 1084.16 Q139.26 1086.29 138.45 1088.21 Q137.663 1090.11 135.556 1092.7 Q134.978 1093.37 131.876 1096.59 Q128.774 1099.78 123.126 1105.55 Z" fill="#000000" fill-rule="nonzero" fill-opacity="1" /><path clip-path="url(#clip780)" d="M132.316 859.037 Q135.672 859.754 137.547 862.023 Q139.445 864.291 139.445 867.625 Q139.445 872.74 135.927 875.541 Q132.408 878.342 125.927 878.342 Q123.751 878.342 121.436 877.902 Q119.144 877.486 116.691 876.629 L116.691 872.115 Q118.635 873.25 120.95 873.828 Q123.265 874.407 125.788 874.407 Q130.186 874.407 132.478 872.671 Q134.792 870.935 134.792 867.625 Q134.792 864.569 132.64 862.856 Q130.51 861.12 126.691 861.12 L122.663 861.12 L122.663 857.278 L126.876 857.278 Q130.325 857.278 132.154 855.912 Q133.982 854.523 133.982 851.93 Q133.982 849.268 132.084 847.856 Q130.209 846.421 126.691 846.421 Q124.769 846.421 122.57 846.838 Q120.371 847.255 117.732 848.134 L117.732 843.967 Q120.394 843.227 122.709 842.856 Q125.047 842.486 127.107 842.486 Q132.431 842.486 135.533 844.917 Q138.635 847.324 138.635 851.444 Q138.635 854.315 136.992 856.305 Q135.348 858.273 132.316 859.037 Z" fill="#000000" fill-rule="nonzero" fill-opacity="1" /><path clip-path="url(#clip780)" d="M129.862 615.373 L118.056 633.822 L129.862 633.822 L129.862 615.373 M128.635 611.298 L134.515 611.298 L134.515 633.822 L139.445 633.822 L139.445 637.71 L134.515 637.71 L134.515 645.858 L129.862 645.858 L129.862 637.71 L114.26 637.71 L114.26 633.197 L128.635 611.298 Z" fill="#000000" fill-rule="nonzero" fill-opacity="1" /><path clip-path="url(#clip780)" d="M118.543 379.486 L136.899 379.486 L136.899 383.421 L122.825 383.421 L122.825 391.893 Q123.843 391.546 124.862 391.384 Q125.88 391.199 126.899 391.199 Q132.686 391.199 136.066 394.37 Q139.445 397.541 139.445 402.958 Q139.445 408.537 135.973 411.639 Q132.501 414.717 126.181 414.717 Q124.005 414.717 121.737 414.347 Q119.492 413.977 117.084 413.236 L117.084 408.537 Q119.168 409.671 121.39 410.227 Q123.612 410.782 126.089 410.782 Q130.093 410.782 132.431 408.676 Q134.769 406.569 134.769 402.958 Q134.769 399.347 132.431 397.241 Q130.093 395.134 126.089 395.134 Q124.214 395.134 122.339 395.551 Q120.487 395.967 118.543 396.847 L118.543 379.486 Z" fill="#000000" fill-rule="nonzero" fill-opacity="1" /><path clip-path="url(#clip780)" d="M127.917 163.09 Q124.769 163.09 122.918 165.243 Q121.089 167.396 121.089 171.146 Q121.089 174.872 122.918 177.048 Q124.769 179.201 127.917 179.201 Q131.066 179.201 132.894 177.048 Q134.746 174.872 134.746 171.146 Q134.746 167.396 132.894 165.243 Q131.066 163.09 127.917 163.09 M137.2 148.437 L137.2 152.697 Q135.441 151.863 133.635 151.423 Q131.853 150.984 130.093 150.984 Q125.464 150.984 123.01 154.109 Q120.58 157.234 120.232 163.553 Q121.598 161.539 123.658 160.474 Q125.718 159.386 128.195 159.386 Q133.404 159.386 136.413 162.558 Q139.445 165.706 139.445 171.146 Q139.445 176.47 136.297 179.687 Q133.149 182.905 127.917 182.905 Q121.922 182.905 118.751 178.321 Q115.58 173.715 115.58 164.988 Q115.58 156.794 119.468 151.933 Q123.357 147.048 129.908 147.048 Q131.667 147.048 133.45 147.396 Q135.255 147.743 137.2 148.437 Z" fill="#000000" fill-rule="nonzero" fill-opacity="1" /><path clip-path="url(#clip780)" d="M16.4842 1427.32 L16.4842 1420.86 L45.3526 1420.86 Q52.9915 1420.86 56.3653 1418.09 Q59.7073 1415.32 59.7073 1409.12 Q59.7073 1402.94 56.3653 1400.17 Q52.9915 1397.4 45.3526 1397.4 L16.4842 1397.4 L16.4842 1390.94 L46.1484 1390.94 Q55.4423 1390.94 60.1847 1395.56 Q64.9272 1400.14 64.9272 1409.12 Q64.9272 1418.12 60.1847 1422.74 Q55.4423 1427.32 46.1484 1427.32 L16.4842 1427.32 Z" fill="#000000" fill-rule="nonzero" fill-opacity="1" /><path clip-path="url(#clip780)" d="M42.4881 1349.5 L64.0042 1349.5 L64.0042 1355.36 L42.679 1355.36 Q37.6183 1355.36 35.1038 1357.33 Q32.5894 1359.31 32.5894 1363.25 Q32.5894 1367.99 35.6131 1370.73 Q38.6368 1373.47 43.8567 1373.47 L64.0042 1373.47 L64.0042 1379.36 L28.3562 1379.36 L28.3562 1373.47 L33.8944 1373.47 Q30.6797 1371.37 29.0883 1368.54 Q27.4968 1365.67 27.4968 1361.95 Q27.4968 1355.8 31.3163 1352.65 Q35.1038 1349.5 42.4881 1349.5 Z" fill="#000000" fill-rule="nonzero" fill-opacity="1" /><path clip-path="url(#clip780)" d="M29.7248 1312.17 L35.1993 1312.17 Q33.8307 1314.65 33.1623 1317.16 Q32.4621 1319.65 32.4621 1322.19 Q32.4621 1327.89 36.0905 1331.04 Q39.6872 1334.19 46.212 1334.19 Q52.7369 1334.19 56.3653 1331.04 Q59.9619 1327.89 59.9619 1322.19 Q59.9619 1319.65 59.2935 1317.16 Q58.5933 1314.65 57.2247 1312.17 L62.6355 1312.17 Q63.7814 1314.62 64.3543 1317.26 Q64.9272 1319.87 64.9272 1322.83 Q64.9272 1330.88 59.8664 1335.62 Q54.8057 1340.37 46.212 1340.37 Q37.491 1340.37 32.4939 1335.59 Q27.4968 1330.79 27.4968 1322.45 Q27.4968 1319.74 28.0697 1317.16 Q28.6108 1314.59 29.7248 1312.17 Z" fill="#000000" fill-rule="nonzero" fill-opacity="1" /><path clip-path="url(#clip780)" d="M44.7161 1271.49 L47.5806 1271.49 L47.5806 1298.42 Q53.6281 1298.04 56.8109 1294.79 Q59.9619 1291.51 59.9619 1285.69 Q59.9619 1282.31 59.1344 1279.16 Q58.3069 1275.98 56.6518 1272.86 L62.1899 1272.86 Q63.5267 1276.01 64.227 1279.32 Q64.9272 1282.63 64.9272 1286.04 Q64.9272 1294.57 59.9619 1299.56 Q54.9967 1304.53 46.5303 1304.53 Q37.7774 1304.53 32.6531 1299.82 Q27.4968 1295.08 27.4968 1287.05 Q27.4968 1279.86 32.1438 1275.69 Q36.7589 1271.49 44.7161 1271.49 M42.9973 1277.35 Q38.1912 1277.41 35.3266 1280.05 Q32.4621 1282.66 32.4621 1286.99 Q32.4621 1291.89 35.2312 1294.85 Q38.0002 1297.78 43.0292 1298.23 L42.9973 1277.35 Z" fill="#000000" fill-rule="nonzero" fill-opacity="1" /><path clip-path="url(#clip780)" d="M33.8307 1241.22 Q33.2578 1242.21 33.0032 1243.39 Q32.7167 1244.53 32.7167 1245.93 Q32.7167 1250.9 35.9632 1253.57 Q39.1779 1256.21 45.2253 1256.21 L64.0042 1256.21 L64.0042 1262.1 L28.3562 1262.1 L28.3562 1256.21 L33.8944 1256.21 Q30.6479 1254.37 29.0883 1251.41 Q27.4968 1248.45 27.4968 1244.21 Q27.4968 1243.61 27.5923 1242.88 Q27.656 1242.14 27.8151 1241.25 L33.8307 1241.22 Z" fill="#000000" fill-rule="nonzero" fill-opacity="1" /><path clip-path="url(#clip780)" d="M18.2347 1229.29 L28.3562 1229.29 L28.3562 1217.22 L32.9077 1217.22 L32.9077 1229.29 L52.2594 1229.29 Q56.6199 1229.29 57.8613 1228.11 Q59.1026 1226.9 59.1026 1223.24 L59.1026 1217.22 L64.0042 1217.22 L64.0042 1223.24 Q64.0042 1230.02 61.4897 1232.6 Q58.9434 1235.17 52.2594 1235.17 L32.9077 1235.17 L32.9077 1239.47 L28.3562 1239.47 L28.3562 1235.17 L18.2347 1235.17 L18.2347 1229.29 Z" fill="#000000" fill-rule="nonzero" fill-opacity="1" /><path clip-path="url(#clip780)" d="M46.0847 1193.32 Q46.0847 1200.42 47.7079 1203.15 Q49.3312 1205.89 53.2461 1205.89 Q56.3653 1205.89 58.2114 1203.85 Q60.0256 1201.79 60.0256 1198.25 Q60.0256 1193.38 56.5881 1190.45 Q53.1188 1187.49 47.3897 1187.49 L46.0847 1187.49 L46.0847 1193.32 M43.6657 1181.64 L64.0042 1181.64 L64.0042 1187.49 L58.5933 1187.49 Q61.8398 1189.5 63.3994 1192.49 Q64.9272 1195.48 64.9272 1199.81 Q64.9272 1205.29 61.8716 1208.53 Q58.7843 1211.75 53.6281 1211.75 Q47.6125 1211.75 44.5569 1207.74 Q41.5014 1203.7 41.5014 1195.71 L41.5014 1187.49 L40.9285 1187.49 Q36.8862 1187.49 34.6901 1190.17 Q32.4621 1192.81 32.4621 1197.62 Q32.4621 1200.67 33.1941 1203.57 Q33.9262 1206.46 35.3903 1209.14 L29.9795 1209.14 Q28.7381 1205.92 28.1334 1202.9 Q27.4968 1199.88 27.4968 1197.01 Q27.4968 1189.28 31.5072 1185.46 Q35.5176 1181.64 43.6657 1181.64 Z" fill="#000000" fill-rule="nonzero" fill-opacity="1" /><path clip-path="url(#clip780)" d="M28.3562 1169.58 L28.3562 1163.72 L64.0042 1163.72 L64.0042 1169.58 L28.3562 1169.58 M14.479 1169.58 L14.479 1163.72 L21.895 1163.72 L21.895 1169.58 L14.479 1169.58 Z" fill="#000000" fill-rule="nonzero" fill-opacity="1" /><path clip-path="url(#clip780)" d="M42.4881 1121.83 L64.0042 1121.83 L64.0042 1127.69 L42.679 1127.69 Q37.6183 1127.69 35.1038 1129.66 Q32.5894 1131.64 32.5894 1135.58 Q32.5894 1140.32 35.6131 1143.06 Q38.6368 1145.8 43.8567 1145.8 L64.0042 1145.8 L64.0042 1151.69 L28.3562 1151.69 L28.3562 1145.8 L33.8944 1145.8 Q30.6797 1143.7 29.0883 1140.87 Q27.4968 1138 27.4968 1134.28 Q27.4968 1128.13 31.3163 1124.98 Q35.1038 1121.83 42.4881 1121.83 Z" fill="#000000" fill-rule="nonzero" fill-opacity="1" /><path clip-path="url(#clip780)" d="M18.2347 1104.36 L28.3562 1104.36 L28.3562 1092.3 L32.9077 1092.3 L32.9077 1104.36 L52.2594 1104.36 Q56.6199 1104.36 57.8613 1103.18 Q59.1026 1101.97 59.1026 1098.31 L59.1026 1092.3 L64.0042 1092.3 L64.0042 1098.31 Q64.0042 1105.09 61.4897 1107.67 Q58.9434 1110.25 52.2594 1110.25 L32.9077 1110.25 L32.9077 1114.54 L28.3562 1114.54 L28.3562 1110.25 L18.2347 1110.25 L18.2347 1104.36 Z" fill="#000000" fill-rule="nonzero" fill-opacity="1" /><path clip-path="url(#clip780)" d="M67.3143 1069.76 Q73.68 1072.24 75.6216 1074.6 Q77.5631 1076.95 77.5631 1080.9 L77.5631 1085.58 L72.6615 1085.58 L72.6615 1082.14 Q72.6615 1079.72 71.5157 1078.39 Q70.3699 1077.05 66.1048 1075.43 L63.4312 1074.38 L28.3562 1088.79 L28.3562 1082.59 L56.238 1071.45 L28.3562 1060.31 L28.3562 1054.1 L67.3143 1069.76 Z" fill="#000000" fill-rule="nonzero" fill-opacity="1" /><path clip-path="url(#clip780)" d="M28.3562 1025.3 L28.3562 1019.44 L64.0042 1019.44 L64.0042 1025.3 L28.3562 1025.3 M14.479 1025.3 L14.479 1019.44 L21.895 1019.44 L21.895 1025.3 L14.479 1025.3 Z" fill="#000000" fill-rule="nonzero" fill-opacity="1" /><path clip-path="url(#clip780)" d="M42.4881 977.554 L64.0042 977.554 L64.0042 983.41 L42.679 983.41 Q37.6183 983.41 35.1038 985.384 Q32.5894 987.357 32.5894 991.304 Q32.5894 996.046 35.6131 998.783 Q38.6368 1001.52 43.8567 1001.52 L64.0042 1001.52 L64.0042 1007.41 L28.3562 1007.41 L28.3562 1001.52 L33.8944 1001.52 Q30.6797 999.42 29.0883 996.587 Q27.4968 993.723 27.4968 989.999 Q27.4968 983.856 31.3163 980.705 Q35.1038 977.554 42.4881 977.554 Z" fill="#000000" fill-rule="nonzero" fill-opacity="1" /><path clip-path="url(#clip780)" d="M33.7671 921.695 L14.479 921.695 L14.479 915.838 L64.0042 915.838 L64.0042 921.695 L58.657 921.695 Q61.8398 923.541 63.3994 926.373 Q64.9272 929.174 64.9272 933.121 Q64.9272 939.582 59.771 943.656 Q54.6147 947.699 46.212 947.699 Q37.8093 947.699 32.6531 943.656 Q27.4968 939.582 27.4968 933.121 Q27.4968 929.174 29.0564 926.373 Q30.5842 923.541 33.7671 921.695 M46.212 941.651 Q52.6732 941.651 56.3653 939.009 Q60.0256 936.336 60.0256 931.689 Q60.0256 927.042 56.3653 924.368 Q52.6732 921.695 46.212 921.695 Q39.7508 921.695 36.0905 924.368 Q32.3984 927.042 32.3984 931.689 Q32.3984 936.336 36.0905 939.009 Q39.7508 941.651 46.212 941.651 Z" fill="#000000" fill-rule="nonzero" fill-opacity="1" /><path clip-path="url(#clip780)" d="M44.7161 873.283 L47.5806 873.283 L47.5806 900.21 Q53.6281 899.828 56.8109 896.582 Q59.9619 893.304 59.9619 887.479 Q59.9619 884.105 59.1344 880.954 Q58.3069 877.771 56.6518 874.652 L62.1899 874.652 Q63.5267 877.803 64.227 881.113 Q64.9272 884.423 64.9272 887.829 Q64.9272 896.359 59.9619 901.356 Q54.9967 906.322 46.5303 906.322 Q37.7774 906.322 32.6531 901.611 Q27.4968 896.868 27.4968 888.848 Q27.4968 881.654 32.1438 877.485 Q36.7589 873.283 44.7161 873.283 M42.9973 879.14 Q38.1912 879.204 35.3266 881.845 Q32.4621 884.455 32.4621 888.784 Q32.4621 893.686 35.2312 896.646 Q38.0002 899.574 43.0292 900.019 L42.9973 879.14 Z" fill="#000000" fill-rule="nonzero" fill-opacity="1" /><path clip-path="url(#clip780)" d="M18.2347 857.878 L28.3562 857.878 L28.3562 845.815 L32.9077 845.815 L32.9077 857.878 L52.2594 857.878 Q56.6199 857.878 57.8613 856.701 Q59.1026 855.491 59.1026 851.831 L59.1026 845.815 L64.0042 845.815 L64.0042 851.831 Q64.0042 858.611 61.4897 861.189 Q58.9434 863.767 52.2594 863.767 L32.9077 863.767 L32.9077 868.064 L28.3562 868.064 L28.3562 863.767 L18.2347 863.767 L18.2347 857.878 Z" fill="#000000" fill-rule="nonzero" fill-opacity="1" /><path clip-path="url(#clip780)" d="M44.7161 807.621 L47.5806 807.621 L47.5806 834.548 Q53.6281 834.166 56.8109 830.92 Q59.9619 827.641 59.9619 821.817 Q59.9619 818.443 59.1344 815.292 Q58.3069 812.109 56.6518 808.99 L62.1899 808.99 Q63.5267 812.141 64.227 815.451 Q64.9272 818.761 64.9272 822.167 Q64.9272 830.697 59.9619 835.694 Q54.9967 840.659 46.5303 840.659 Q37.7774 840.659 32.6531 835.949 Q27.4968 831.206 27.4968 823.185 Q27.4968 815.992 32.1438 811.823 Q36.7589 807.621 44.7161 807.621 M42.9973 813.478 Q38.1912 813.541 35.3266 816.183 Q32.4621 818.793 32.4621 823.122 Q32.4621 828.023 35.2312 830.983 Q38.0002 833.912 43.0292 834.357 L42.9973 813.478 Z" fill="#000000" fill-rule="nonzero" fill-opacity="1" /><path clip-path="url(#clip780)" d="M33.8307 777.352 Q33.2578 778.339 33.0032 779.517 Q32.7167 780.662 32.7167 782.063 Q32.7167 787.028 35.9632 789.702 Q39.1779 792.344 45.2253 792.344 L64.0042 792.344 L64.0042 798.232 L28.3562 798.232 L28.3562 792.344 L33.8944 792.344 Q30.6479 790.497 29.0883 787.537 Q27.4968 784.577 27.4968 780.344 Q27.4968 779.739 27.5923 779.007 Q27.656 778.275 27.8151 777.384 L33.8307 777.352 Z" fill="#000000" fill-rule="nonzero" fill-opacity="1" /><path clip-path="url(#clip780)" d="M35.1993 744.601 Q31.2526 742.405 29.3747 739.349 Q27.4968 736.293 27.4968 732.156 Q27.4968 726.586 31.4117 723.562 Q35.2948 720.538 42.4881 720.538 L64.0042 720.538 L64.0042 726.427 L42.679 726.427 Q37.5546 726.427 35.072 728.241 Q32.5894 730.055 32.5894 733.779 Q32.5894 738.331 35.6131 740.972 Q38.6368 743.614 43.8567 743.614 L64.0042 743.614 L64.0042 749.502 L42.679 749.502 Q37.5228 749.502 35.072 751.317 Q32.5894 753.131 32.5894 756.918 Q32.5894 761.406 35.6449 764.048 Q38.6686 766.69 43.8567 766.69 L64.0042 766.69 L64.0042 772.578 L28.3562 772.578 L28.3562 766.69 L33.8944 766.69 Q30.616 764.685 29.0564 761.884 Q27.4968 759.083 27.4968 755.231 Q27.4968 751.348 29.4702 748.643 Q31.4436 745.906 35.1993 744.601 Z" fill="#000000" fill-rule="nonzero" fill-opacity="1" /><path clip-path="url(#clip780)" d="M28.3562 708.857 L28.3562 703.001 L64.0042 703.001 L64.0042 708.857 L28.3562 708.857 M14.479 708.857 L14.479 703.001 L21.895 703.001 L21.895 708.857 L14.479 708.857 Z" fill="#000000" fill-rule="nonzero" fill-opacity="1" /><path clip-path="url(#clip780)" d="M42.4881 661.114 L64.0042 661.114 L64.0042 666.971 L42.679 666.971 Q37.6183 666.971 35.1038 668.944 Q32.5894 670.918 32.5894 674.864 Q32.5894 679.607 35.6131 682.344 Q38.6368 685.081 43.8567 685.081 L64.0042 685.081 L64.0042 690.97 L28.3562 690.97 L28.3562 685.081 L33.8944 685.081 Q30.6797 682.981 29.0883 680.148 Q27.4968 677.283 27.4968 673.559 Q27.4968 667.417 31.3163 664.266 Q35.1038 661.114 42.4881 661.114 Z" fill="#000000" fill-rule="nonzero" fill-opacity="1" /><path clip-path="url(#clip780)" d="M44.7161 618.942 L47.5806 618.942 L47.5806 645.869 Q53.6281 645.487 56.8109 642.24 Q59.9619 638.962 59.9619 633.137 Q59.9619 629.763 59.1344 626.612 Q58.3069 623.43 56.6518 620.31 L62.1899 620.31 Q63.5267 623.461 64.227 626.772 Q64.9272 630.082 64.9272 633.487 Q64.9272 642.017 59.9619 647.014 Q54.9967 651.98 46.5303 651.98 Q37.7774 651.98 32.6531 647.269 Q27.4968 642.527 27.4968 634.506 Q27.4968 627.313 32.1438 623.143 Q36.7589 618.942 44.7161 618.942 M42.9973 624.798 Q38.1912 624.862 35.3266 627.504 Q32.4621 630.113 32.4621 634.442 Q32.4621 639.344 35.2312 642.304 Q38.0002 645.232 43.0292 645.678 L42.9973 624.798 Z" fill="#000000" fill-rule="nonzero" fill-opacity="1" /><path clip-path="url(#clip780)" d="M33.7671 585.872 L14.479 585.872 L14.479 580.015 L64.0042 580.015 L64.0042 585.872 L58.657 585.872 Q61.8398 587.718 63.3994 590.551 Q64.9272 593.352 64.9272 597.298 Q64.9272 603.759 59.771 607.834 Q54.6147 611.876 46.212 611.876 Q37.8093 611.876 32.6531 607.834 Q27.4968 603.759 27.4968 597.298 Q27.4968 593.352 29.0564 590.551 Q30.5842 587.718 33.7671 585.872 M46.212 605.828 Q52.6732 605.828 56.3653 603.187 Q60.0256 600.513 60.0256 595.866 Q60.0256 591.219 56.3653 588.545 Q52.6732 585.872 46.212 585.872 Q39.7508 585.872 36.0905 588.545 Q32.3984 591.219 32.3984 595.866 Q32.3984 600.513 36.0905 603.187 Q39.7508 605.828 46.212 605.828 Z" fill="#000000" fill-rule="nonzero" fill-opacity="1" /><path clip-path="url(#clip780)" d="M44.7161 516.74 L47.5806 516.74 L47.5806 543.667 Q53.6281 543.285 56.8109 540.039 Q59.9619 536.76 59.9619 530.936 Q59.9619 527.562 59.1344 524.411 Q58.3069 521.228 56.6518 518.109 L62.1899 518.109 Q63.5267 521.26 64.227 524.57 Q64.9272 527.88 64.9272 531.286 Q64.9272 539.816 59.9619 544.813 Q54.9967 549.778 46.5303 549.778 Q37.7774 549.778 32.6531 545.068 Q27.4968 540.325 27.4968 532.304 Q27.4968 525.111 32.1438 520.942 Q36.7589 516.74 44.7161 516.74 M42.9973 522.597 Q38.1912 522.66 35.3266 525.302 Q32.4621 527.912 32.4621 532.241 Q32.4621 537.142 35.2312 540.102 Q38.0002 543.031 43.0292 543.476 L42.9973 522.597 Z" fill="#000000" fill-rule="nonzero" fill-opacity="1" /><path clip-path="url(#clip780)" d="M42.4881 477.496 L64.0042 477.496 L64.0042 483.352 L42.679 483.352 Q37.6183 483.352 35.1038 485.326 Q32.5894 487.299 32.5894 491.246 Q32.5894 495.988 35.6131 498.725 Q38.6368 501.463 43.8567 501.463 L64.0042 501.463 L64.0042 507.351 L28.3562 507.351 L28.3562 501.463 L33.8944 501.463 Q30.6797 499.362 29.0883 496.529 Q27.4968 493.665 27.4968 489.941 Q27.4968 483.798 31.3163 480.647 Q35.1038 477.496 42.4881 477.496 Z" fill="#000000" fill-rule="nonzero" fill-opacity="1" /><path clip-path="url(#clip780)" d="M44.7161 435.323 L47.5806 435.323 L47.5806 462.25 Q53.6281 461.868 56.8109 458.621 Q59.9619 455.343 59.9619 449.518 Q59.9619 446.145 59.1344 442.994 Q58.3069 439.811 56.6518 436.692 L62.1899 436.692 Q63.5267 439.843 64.227 443.153 Q64.9272 446.463 64.9272 449.869 Q64.9272 458.399 59.9619 463.396 Q54.9967 468.361 46.5303 468.361 Q37.7774 468.361 32.6531 463.65 Q27.4968 458.908 27.4968 450.887 Q27.4968 443.694 32.1438 439.524 Q36.7589 435.323 44.7161 435.323 M42.9973 441.179 Q38.1912 441.243 35.3266 443.885 Q32.4621 446.495 32.4621 450.823 Q32.4621 455.725 35.2312 458.685 Q38.0002 461.613 43.0292 462.059 L42.9973 441.179 Z" fill="#000000" fill-rule="nonzero" fill-opacity="1" /><path clip-path="url(#clip780)" d="M33.8307 405.054 Q33.2578 406.041 33.0032 407.218 Q32.7167 408.364 32.7167 409.765 Q32.7167 414.73 35.9632 417.403 Q39.1779 420.045 45.2253 420.045 L64.0042 420.045 L64.0042 425.933 L28.3562 425.933 L28.3562 420.045 L33.8944 420.045 Q30.6479 418.199 29.0883 415.239 Q27.4968 412.279 27.4968 408.046 Q27.4968 407.441 27.5923 406.709 Q27.656 405.977 27.8151 405.086 L33.8307 405.054 Z" fill="#000000" fill-rule="nonzero" fill-opacity="1" /><path clip-path="url(#clip780)" d="M45.7664 376.599 Q39.4007 376.599 35.8996 379.241 Q32.3984 381.851 32.3984 386.593 Q32.3984 391.304 35.8996 393.946 Q39.4007 396.556 45.7664 396.556 Q52.1003 396.556 55.6014 393.946 Q59.1026 391.304 59.1026 386.593 Q59.1026 381.851 55.6014 379.241 Q52.1003 376.599 45.7664 376.599 M59.58 370.743 Q68.683 370.743 73.1071 374.785 Q77.5631 378.827 77.5631 387.166 Q77.5631 390.254 77.0857 392.991 Q76.6401 395.728 75.6852 398.306 L69.9879 398.306 Q71.3884 395.728 72.0568 393.214 Q72.7252 390.699 72.7252 388.089 Q72.7252 382.328 69.7015 379.464 Q66.7096 376.599 60.6303 376.599 L57.7339 376.599 Q60.885 378.413 62.4446 381.246 Q64.0042 384.079 64.0042 388.026 Q64.0042 394.582 59.0071 398.593 Q54.01 402.603 45.7664 402.603 Q37.491 402.603 32.4939 398.593 Q27.4968 394.582 27.4968 388.026 Q27.4968 384.079 29.0564 381.246 Q30.616 378.413 33.7671 376.599 L28.3562 376.599 L28.3562 370.743 L59.58 370.743 Z" fill="#000000" fill-rule="nonzero" fill-opacity="1" /><path clip-path="url(#clip780)" d="M67.3143 343.848 Q73.68 346.33 75.6216 348.686 Q77.5631 351.041 77.5631 354.988 L77.5631 359.666 L72.6615 359.666 L72.6615 356.229 Q72.6615 353.81 71.5157 352.473 Q70.3699 351.136 66.1048 349.513 L63.4312 348.463 L28.3562 362.881 L28.3562 356.675 L56.238 345.535 L28.3562 334.395 L28.3562 328.188 L67.3143 343.848 Z" fill="#000000" fill-rule="nonzero" fill-opacity="1" /><path clip-path="url(#clip780)" d="M14.5426 285.315 Q21.8632 289.58 29.0246 291.649 Q36.186 293.718 43.5384 293.718 Q50.8908 293.718 58.1159 291.649 Q65.3091 289.548 72.5979 285.315 L72.5979 290.408 Q65.1182 295.182 57.8931 297.569 Q50.668 299.924 43.5384 299.924 Q36.4406 299.924 29.2474 297.569 Q22.0542 295.214 14.5426 290.408 L14.5426 285.315 Z" fill="#000000" fill-rule="nonzero" fill-opacity="1" /><path clip-path="url(#clip780)" d="M16.4842 273.698 L16.4842 264.117 L48.8219 251.991 L16.4842 239.8 L16.4842 230.22 L64.0042 230.22 L64.0042 236.49 L22.277 236.49 L54.8694 248.744 L54.8694 255.205 L22.277 267.459 L64.0042 267.459 L64.0042 273.698 L16.4842 273.698 Z" fill="#000000" fill-rule="nonzero" fill-opacity="1" /><path clip-path="url(#clip780)" d="M44.7161 187.219 L47.5806 187.219 L47.5806 214.146 Q53.6281 213.764 56.8109 210.518 Q59.9619 207.24 59.9619 201.415 Q59.9619 198.041 59.1344 194.89 Q58.3069 191.707 56.6518 188.588 L62.1899 188.588 Q63.5267 191.739 64.227 195.049 Q64.9272 198.359 64.9272 201.765 Q64.9272 210.295 59.9619 215.292 Q54.9967 220.257 46.5303 220.257 Q37.7774 220.257 32.6531 215.547 Q27.4968 210.804 27.4968 202.784 Q27.4968 195.59 32.1438 191.421 Q36.7589 187.219 44.7161 187.219 M42.9973 193.076 Q38.1912 193.14 35.3266 195.781 Q32.4621 198.391 32.4621 202.72 Q32.4621 207.622 35.2312 210.582 Q38.0002 213.51 43.0292 213.955 L42.9973 193.076 Z" fill="#000000" fill-rule="nonzero" fill-opacity="1" /><path clip-path="url(#clip780)" d="M64.0042 165.099 L16.4842 183.241 L16.4842 176.525 L56.4926 161.47 L16.4842 146.383 L16.4842 139.699 L64.0042 157.81 L64.0042 165.099 Z" fill="#000000" fill-rule="nonzero" fill-opacity="1" /><path clip-path="url(#clip780)" d="M14.5426 133.938 L14.5426 128.846 Q22.0542 124.072 29.2474 121.716 Q36.4406 119.329 43.5384 119.329 Q50.668 119.329 57.8931 121.716 Q65.1182 124.072 72.5979 128.846 L72.5979 133.938 Q65.3091 129.705 58.1159 127.636 Q50.8908 125.536 43.5384 125.536 Q36.186 125.536 29.0246 127.636 Q21.8632 129.705 14.5426 133.938 Z" fill="#000000" fill-rule="nonzero" fill-opacity="1" /><path clip-path="url(#clip780)" d="M872.722 12.096 L910.963 12.096 L910.963 18.9825 L880.905 18.9825 L880.905 36.8875 L909.707 36.8875 L909.707 43.7741 L880.905 43.7741 L880.905 65.6895 L911.692 65.6895 L911.692 72.576 L872.722 72.576 L872.722 12.096 Z" fill="#000000" fill-rule="nonzero" fill-opacity="1" /><path clip-path="url(#clip780)" d="M962.531 45.1919 L962.531 72.576 L955.077 72.576 L955.077 45.4349 Q955.077 38.994 952.566 35.7938 Q950.054 32.5936 945.031 32.5936 Q938.995 32.5936 935.511 36.4419 Q932.028 40.2903 932.028 46.9338 L932.028 72.576 L924.534 72.576 L924.534 27.2059 L932.028 27.2059 L932.028 34.2544 Q934.701 30.163 938.307 28.1376 Q941.952 26.1121 946.692 26.1121 Q954.51 26.1121 958.521 30.9732 Q962.531 35.7938 962.531 45.1919 Z" fill="#000000" fill-rule="nonzero" fill-opacity="1" /><path clip-path="url(#clip780)" d="M1016.21 48.0275 L1016.21 51.6733 L981.935 51.6733 Q982.421 59.3701 986.553 63.421 Q990.725 67.4314 998.138 67.4314 Q1002.43 67.4314 1006.44 66.3781 Q1010.49 65.3249 1014.46 63.2184 L1014.46 70.267 Q1010.45 71.9684 1006.24 72.8596 Q1002.03 73.7508 997.693 73.7508 Q986.836 73.7508 980.476 67.4314 Q974.157 61.1119 974.157 50.3365 Q974.157 39.1965 980.152 32.6746 Q986.188 26.1121 996.397 26.1121 Q1005.55 26.1121 1010.86 32.0264 Q1016.21 37.9003 1016.21 48.0275 M1008.75 45.84 Q1008.67 39.7232 1005.31 36.0774 Q1001.99 32.4315 996.478 32.4315 Q990.239 32.4315 986.472 35.9558 Q982.745 39.4801 982.178 45.8805 L1008.75 45.84 Z" fill="#000000" fill-rule="nonzero" fill-opacity="1" /><path clip-path="url(#clip780)" d="M1054.73 34.1734 Q1053.47 33.4443 1051.97 33.1202 Q1050.52 32.7556 1048.73 32.7556 Q1042.41 32.7556 1039.01 36.8875 Q1035.65 40.9789 1035.65 48.6757 L1035.65 72.576 L1028.16 72.576 L1028.16 27.2059 L1035.65 27.2059 L1035.65 34.2544 Q1038 30.1225 1041.77 28.1376 Q1045.53 26.1121 1050.92 26.1121 Q1051.69 26.1121 1052.62 26.2337 Q1053.55 26.3147 1054.69 26.5172 L1054.73 34.1734 Z" fill="#000000" fill-rule="nonzero" fill-opacity="1" /><path clip-path="url(#clip780)" d="M1090.94 49.3643 Q1090.94 41.2625 1087.58 36.8065 Q1084.26 32.3505 1078.22 32.3505 Q1072.23 32.3505 1068.87 36.8065 Q1065.55 41.2625 1065.55 49.3643 Q1065.55 57.4256 1068.87 61.8816 Q1072.23 66.3376 1078.22 66.3376 Q1084.26 66.3376 1087.58 61.8816 Q1090.94 57.4256 1090.94 49.3643 M1098.4 66.9452 Q1098.4 78.5308 1093.25 84.1616 Q1088.11 89.8329 1077.5 89.8329 Q1073.57 89.8329 1070.08 89.2252 Q1066.6 88.6581 1063.32 87.4428 L1063.32 80.1917 Q1066.6 81.9741 1069.8 82.8248 Q1073 83.6755 1076.32 83.6755 Q1083.65 83.6755 1087.3 79.8271 Q1090.94 76.0193 1090.94 68.282 L1090.94 64.5957 Q1088.64 68.6061 1085.03 70.5911 Q1081.43 72.576 1076.4 72.576 Q1068.06 72.576 1062.95 66.2161 Q1057.85 59.8562 1057.85 49.3643 Q1057.85 38.832 1062.95 32.472 Q1068.06 26.1121 1076.4 26.1121 Q1081.43 26.1121 1085.03 28.0971 Q1088.64 30.082 1090.94 34.0924 L1090.94 27.2059 L1098.4 27.2059 L1098.4 66.9452 Z" fill="#000000" fill-rule="nonzero" fill-opacity="1" /><path clip-path="url(#clip780)" d="M1132.63 76.7889 Q1129.47 84.8907 1126.47 87.3618 Q1123.47 89.8329 1118.45 89.8329 L1112.5 89.8329 L1112.5 83.5945 L1116.87 83.5945 Q1119.95 83.5945 1121.65 82.1361 Q1123.35 80.6778 1125.42 75.2496 L1126.75 71.8468 L1108.4 27.2059 L1116.3 27.2059 L1130.48 62.6918 L1144.66 27.2059 L1152.56 27.2059 L1132.63 76.7889 Z" fill="#000000" fill-rule="nonzero" fill-opacity="1" /><path clip-path="url(#clip780)" d="M1188.45 54.671 L1188.45 27.2059 L1195.9 27.2059 L1195.9 54.3874 Q1195.9 60.8284 1198.42 64.0691 Q1200.93 67.2693 1205.95 67.2693 Q1211.99 67.2693 1215.47 63.421 Q1218.99 59.5726 1218.99 52.9291 L1218.99 27.2059 L1226.45 27.2059 L1226.45 72.576 L1218.99 72.576 L1218.99 65.6084 Q1216.28 69.7404 1212.67 71.7658 Q1209.11 73.7508 1204.37 73.7508 Q1196.55 73.7508 1192.5 68.8897 Q1188.45 64.0286 1188.45 54.671 M1207.21 26.1121 L1207.21 26.1121 Z" fill="#000000" fill-rule="nonzero" fill-opacity="1" /><path clip-path="url(#clip780)" d="M1279.51 45.1919 L1279.51 72.576 L1272.06 72.576 L1272.06 45.4349 Q1272.06 38.994 1269.55 35.7938 Q1267.04 32.5936 1262.01 32.5936 Q1255.98 32.5936 1252.49 36.4419 Q1249.01 40.2903 1249.01 46.9338 L1249.01 72.576 L1241.52 72.576 L1241.52 27.2059 L1249.01 27.2059 L1249.01 34.2544 Q1251.68 30.163 1255.29 28.1376 Q1258.94 26.1121 1263.68 26.1121 Q1271.49 26.1121 1275.5 30.9732 Q1279.51 35.7938 1279.51 45.1919 Z" fill="#000000" fill-rule="nonzero" fill-opacity="1" /><path clip-path="url(#clip780)" d="M1327.03 28.9478 L1327.03 35.9153 Q1323.87 34.1734 1320.67 33.3227 Q1317.51 32.4315 1314.27 32.4315 Q1307.02 32.4315 1303.01 37.0496 Q1299 41.6271 1299 49.9314 Q1299 58.2358 1303.01 62.8538 Q1307.02 67.4314 1314.27 67.4314 Q1317.51 67.4314 1320.67 66.5807 Q1323.87 65.6895 1327.03 63.9476 L1327.03 70.8341 Q1323.91 72.2924 1320.55 73.0216 Q1317.23 73.7508 1313.46 73.7508 Q1303.21 73.7508 1297.18 67.3098 Q1291.14 60.8689 1291.14 49.9314 Q1291.14 38.832 1297.22 32.472 Q1303.33 26.1121 1313.95 26.1121 Q1317.39 26.1121 1320.67 26.8413 Q1323.95 27.5299 1327.03 28.9478 Z" fill="#000000" fill-rule="nonzero" fill-opacity="1" /><path clip-path="url(#clip780)" d="M1378.8 48.0275 L1378.8 51.6733 L1344.53 51.6733 Q1345.02 59.3701 1349.15 63.421 Q1353.32 67.4314 1360.73 67.4314 Q1365.03 67.4314 1369.04 66.3781 Q1373.09 65.3249 1377.06 63.2184 L1377.06 70.267 Q1373.05 71.9684 1368.84 72.8596 Q1364.62 73.7508 1360.29 73.7508 Q1349.43 73.7508 1343.07 67.4314 Q1336.75 61.1119 1336.75 50.3365 Q1336.75 39.1965 1342.75 32.6746 Q1348.78 26.1121 1358.99 26.1121 Q1368.15 26.1121 1373.45 32.0264 Q1378.8 37.9003 1378.8 48.0275 M1371.35 45.84 Q1371.27 39.7232 1367.9 36.0774 Q1364.58 32.4315 1359.07 32.4315 Q1352.84 32.4315 1349.07 35.9558 Q1345.34 39.4801 1344.77 45.8805 L1371.35 45.84 Z" fill="#000000" fill-rule="nonzero" fill-opacity="1" /><path clip-path="url(#clip780)" d="M1417.33 34.1734 Q1416.07 33.4443 1414.57 33.1202 Q1413.11 32.7556 1411.33 32.7556 Q1405.01 32.7556 1401.61 36.8875 Q1398.25 40.9789 1398.25 48.6757 L1398.25 72.576 L1390.75 72.576 L1390.75 27.2059 L1398.25 27.2059 L1398.25 34.2544 Q1400.6 30.1225 1404.36 28.1376 Q1408.13 26.1121 1413.52 26.1121 Q1414.29 26.1121 1415.22 26.2337 Q1416.15 26.3147 1417.29 26.5172 L1417.33 34.1734 Z" fill="#000000" fill-rule="nonzero" fill-opacity="1" /><path clip-path="url(#clip780)" d="M1432.52 14.324 L1432.52 27.2059 L1447.87 27.2059 L1447.87 32.9987 L1432.52 32.9987 L1432.52 57.6282 Q1432.52 63.1779 1434.02 64.7578 Q1435.56 66.3376 1440.21 66.3376 L1447.87 66.3376 L1447.87 72.576 L1440.21 72.576 Q1431.59 72.576 1428.3 69.3758 Q1425.02 66.1351 1425.02 57.6282 L1425.02 32.9987 L1419.55 32.9987 L1419.55 27.2059 L1425.02 27.2059 L1425.02 14.324 L1432.52 14.324 Z" fill="#000000" fill-rule="nonzero" fill-opacity="1" /><path clip-path="url(#clip780)" d="M1478.29 49.7694 Q1469.26 49.7694 1465.77 51.8354 Q1462.29 53.9013 1462.29 58.8839 Q1462.29 62.8538 1464.88 65.2034 Q1467.52 67.5124 1472.01 67.5124 Q1478.21 67.5124 1481.94 63.1374 Q1485.71 58.7219 1485.71 51.4303 L1485.71 49.7694 L1478.29 49.7694 M1493.16 46.6907 L1493.16 72.576 L1485.71 72.576 L1485.71 65.6895 Q1483.15 69.8214 1479.35 71.8063 Q1475.54 73.7508 1470.03 73.7508 Q1463.06 73.7508 1458.93 69.8619 Q1454.84 65.9325 1454.84 59.3701 Q1454.84 51.7138 1459.94 47.825 Q1465.09 43.9361 1475.25 43.9361 L1485.71 43.9361 L1485.71 43.2069 Q1485.71 38.0623 1482.3 35.2672 Q1478.94 32.4315 1472.82 32.4315 Q1468.93 32.4315 1465.25 33.3632 Q1461.56 34.295 1458.16 36.1584 L1458.16 29.2718 Q1462.25 27.692 1466.1 26.9223 Q1469.95 26.1121 1473.59 26.1121 Q1483.44 26.1121 1488.3 31.2163 Q1493.16 36.3204 1493.16 46.6907 Z" fill="#000000" fill-rule="nonzero" fill-opacity="1" /><path clip-path="url(#clip780)" d="M1508.51 27.2059 L1515.97 27.2059 L1515.97 72.576 L1508.51 72.576 L1508.51 27.2059 M1508.51 9.54393 L1515.97 9.54393 L1515.97 18.9825 L1508.51 18.9825 L1508.51 9.54393 Z" fill="#000000" fill-rule="nonzero" fill-opacity="1" /><path clip-path="url(#clip780)" d="M1569.28 45.1919 L1569.28 72.576 L1561.82 72.576 L1561.82 45.4349 Q1561.82 38.994 1559.31 35.7938 Q1556.8 32.5936 1551.78 32.5936 Q1545.74 32.5936 1542.26 36.4419 Q1538.77 40.2903 1538.77 46.9338 L1538.77 72.576 L1531.28 72.576 L1531.28 27.2059 L1538.77 27.2059 L1538.77 34.2544 Q1541.45 30.163 1545.05 28.1376 Q1548.7 26.1121 1553.44 26.1121 Q1561.25 26.1121 1565.27 30.9732 Q1569.28 35.7938 1569.28 45.1919 Z" fill="#000000" fill-rule="nonzero" fill-opacity="1" /><path clip-path="url(#clip780)" d="M1591.51 14.324 L1591.51 27.2059 L1606.87 27.2059 L1606.87 32.9987 L1591.51 32.9987 L1591.51 57.6282 Q1591.51 63.1779 1593.01 64.7578 Q1594.55 66.3376 1599.21 66.3376 L1606.87 66.3376 L1606.87 72.576 L1599.21 72.576 Q1590.58 72.576 1587.3 69.3758 Q1584.02 66.1351 1584.02 57.6282 L1584.02 32.9987 L1578.55 32.9987 L1578.55 27.2059 L1584.02 27.2059 L1584.02 14.324 L1591.51 14.324 Z" fill="#000000" fill-rule="nonzero" fill-opacity="1" /><path clip-path="url(#clip780)" d="M1635.55 76.7889 Q1632.39 84.8907 1629.39 87.3618 Q1626.39 89.8329 1621.37 89.8329 L1615.42 89.8329 L1615.42 83.5945 L1619.79 83.5945 Q1622.87 83.5945 1624.57 82.1361 Q1626.27 80.6778 1628.34 75.2496 L1629.67 71.8468 L1611.32 27.2059 L1619.22 27.2059 L1633.4 62.6918 L1647.58 27.2059 L1655.48 27.2059 L1635.55 76.7889 Z" fill="#000000" fill-rule="nonzero" fill-opacity="1" /><polyline clip-path="url(#clip782)" style="stroke:#000000; stroke-linecap:round; stroke-linejoin:round; stroke-width:4; stroke-opacity:1; fill:none" points="237.067,1386.4 237.067,1383.09 "/>
<polyline clip-path="url(#clip782)" style="stroke:#000000; stroke-linecap:round; stroke-linejoin:round; stroke-width:4; stroke-opacity:1; fill:none" points="750.584,1183.25 750.584,1173.21 "/>
<polyline clip-path="url(#clip782)" style="stroke:#000000; stroke-linecap:round; stroke-linejoin:round; stroke-width:4; stroke-opacity:1; fill:none" points="1264.1,959.005 1264.1,942.241 "/>
<polyline clip-path="url(#clip782)" style="stroke:#000000; stroke-linecap:round; stroke-linejoin:round; stroke-width:4; stroke-opacity:1; fill:none" points="1777.62,649.307 1777.62,634.612 "/>
<polyline clip-path="url(#clip782)" style="stroke:#000000; stroke-linecap:round; stroke-linejoin:round; stroke-width:4; stroke-opacity:1; fill:none" points="2291.13,230.476 2291.13,160.256 "/>
<line clip-path="url(#clip782)" x1="253.067" y1="1386.4" x2="221.067" y2="1386.4" style="stroke:#000000; stroke-width:4; stroke-opacity:1"/>
<line clip-path="url(#clip782)" x1="253.067" y1="1383.09" x2="221.067" y2="1383.09" style="stroke:#000000; stroke-width:4; stroke-opacity:1"/>
<line clip-path="url(#clip782)" x1="766.584" y1="1183.25" x2="734.584" y2="1183.25" style="stroke:#000000; stroke-width:4; stroke-opacity:1"/>
<line clip-path="url(#clip782)" x1="766.584" y1="1173.21" x2="734.584" y2="1173.21" style="stroke:#000000; stroke-width:4; stroke-opacity:1"/>
<line clip-path="url(#clip782)" x1="1280.1" y1="959.005" x2="1248.1" y2="959.005" style="stroke:#000000; stroke-width:4; stroke-opacity:1"/>
<line clip-path="url(#clip782)" x1="1280.1" y1="942.241" x2="1248.1" y2="942.241" style="stroke:#000000; stroke-width:4; stroke-opacity:1"/>
<line clip-path="url(#clip782)" x1="1793.62" y1="649.307" x2="1761.62" y2="649.307" style="stroke:#000000; stroke-width:4; stroke-opacity:1"/>
<line clip-path="url(#clip782)" x1="1793.62" y1="634.612" x2="1761.62" y2="634.612" style="stroke:#000000; stroke-width:4; stroke-opacity:1"/>
<line clip-path="url(#clip782)" x1="2307.13" y1="230.476" x2="2275.13" y2="230.476" style="stroke:#000000; stroke-width:4; stroke-opacity:1"/>
<line clip-path="url(#clip782)" x1="2307.13" y1="160.256" x2="2275.13" y2="160.256" style="stroke:#000000; stroke-width:4; stroke-opacity:1"/>
<circle clip-path="url(#clip782)" cx="237.067" cy="1384.74" r="14.4" fill="#009af9" fill-rule="evenodd" fill-opacity="1" stroke="#000000" stroke-opacity="1" stroke-width="3.2"/>
<circle clip-path="url(#clip782)" cx="750.584" cy="1178.23" r="14.4" fill="#009af9" fill-rule="evenodd" fill-opacity="1" stroke="#000000" stroke-opacity="1" stroke-width="3.2"/>
<circle clip-path="url(#clip782)" cx="1264.1" cy="950.623" r="14.4" fill="#009af9" fill-rule="evenodd" fill-opacity="1" stroke="#000000" stroke-opacity="1" stroke-width="3.2"/>
<circle clip-path="url(#clip782)" cx="1777.62" cy="641.96" r="14.4" fill="#009af9" fill-rule="evenodd" fill-opacity="1" stroke="#000000" stroke-opacity="1" stroke-width="3.2"/>
<circle clip-path="url(#clip782)" cx="2291.13" cy="195.366" r="14.4" fill="#009af9" fill-rule="evenodd" fill-opacity="1" stroke="#000000" stroke-opacity="1" stroke-width="3.2"/>
<path clip-path="url(#clip782)" d="M237.067 1386.4 L750.584 1183.25 L1264.1 959.005 L1777.62 649.307 L2291.13 230.476 L2291.13 160.256 L1777.62 634.612 L1264.1 942.241 L750.584 1173.21 L237.067 1383.09  Z" fill="#009af9" fill-rule="evenodd" fill-opacity="0.15"/>
<polyline clip-path="url(#clip782)" style="stroke:#009af9; stroke-linecap:round; stroke-linejoin:round; stroke-width:0; stroke-opacity:1; fill:none" points="237.067,1384.74 750.584,1178.23 1264.1,950.623 1777.62,641.96 2291.13,195.366 "/>
<path clip-path="url(#clip780)" d="M248.022 322.316 L859.686 322.316 L859.686 166.796 L248.022 166.796  Z" fill="#ffffff" fill-rule="evenodd" fill-opacity="1"/>
<polyline clip-path="url(#clip780)" style="stroke:#000000; stroke-linecap:round; stroke-linejoin:round; stroke-width:4; stroke-opacity:1; fill:none" points="248.022,322.316 859.686,322.316 859.686,166.796 248.022,166.796 248.022,322.316 "/>
<circle clip-path="url(#clip780)" cx="344.792" cy="218.636" r="20.48" fill="#009af9" fill-rule="evenodd" fill-opacity="1" stroke="#000000" stroke-opacity="1" stroke-width="4.55111"/>
<path clip-path="url(#clip780)" d="M463.806 202.49 L463.806 207.05 Q461.144 205.777 458.783 205.152 Q456.422 204.527 454.223 204.527 Q450.404 204.527 448.32 206.008 Q446.26 207.49 446.26 210.221 Q446.26 212.513 447.626 213.694 Q449.015 214.851 452.857 215.569 L455.681 216.147 Q460.913 217.143 463.39 219.666 Q465.89 222.166 465.89 226.379 Q465.89 231.402 462.51 233.994 Q459.153 236.587 452.649 236.587 Q450.195 236.587 447.417 236.031 Q444.663 235.476 441.7 234.388 L441.7 229.573 Q444.547 231.17 447.279 231.981 Q450.01 232.791 452.649 232.791 Q456.653 232.791 458.829 231.217 Q461.005 229.643 461.005 226.726 Q461.005 224.18 459.431 222.744 Q457.88 221.309 454.316 220.592 L451.468 220.036 Q446.237 218.995 443.899 216.772 Q441.561 214.55 441.561 210.592 Q441.561 206.008 444.779 203.37 Q448.019 200.731 453.691 200.731 Q456.121 200.731 458.644 201.171 Q461.167 201.61 463.806 202.49 Z" fill="#000000" fill-rule="nonzero" fill-opacity="1" /><path clip-path="url(#clip780)" d="M472.996 209.99 L477.255 209.99 L477.255 235.916 L472.996 235.916 L472.996 209.99 M472.996 199.897 L477.255 199.897 L477.255 205.291 L472.996 205.291 L472.996 199.897 Z" fill="#000000" fill-rule="nonzero" fill-opacity="1" /><path clip-path="url(#clip780)" d="M506.352 214.967 Q507.949 212.096 510.172 210.731 Q512.394 209.365 515.403 209.365 Q519.454 209.365 521.653 212.212 Q523.852 215.036 523.852 220.268 L523.852 235.916 L519.57 235.916 L519.57 220.407 Q519.57 216.68 518.25 214.874 Q516.931 213.069 514.223 213.069 Q510.912 213.069 508.991 215.268 Q507.07 217.467 507.07 221.263 L507.07 235.916 L502.787 235.916 L502.787 220.407 Q502.787 216.657 501.468 214.874 Q500.149 213.069 497.394 213.069 Q494.13 213.069 492.209 215.291 Q490.288 217.49 490.288 221.263 L490.288 235.916 L486.005 235.916 L486.005 209.99 L490.288 209.99 L490.288 214.018 Q491.746 211.633 493.783 210.499 Q495.82 209.365 498.621 209.365 Q501.445 209.365 503.412 210.8 Q505.403 212.235 506.352 214.967 Z" fill="#000000" fill-rule="nonzero" fill-opacity="1" /><path clip-path="url(#clip780)" d="M531.908 225.684 L531.908 209.99 L536.167 209.99 L536.167 225.522 Q536.167 229.203 537.602 231.055 Q539.037 232.883 541.908 232.883 Q545.357 232.883 547.347 230.684 Q549.361 228.485 549.361 224.689 L549.361 209.99 L553.621 209.99 L553.621 235.916 L549.361 235.916 L549.361 231.934 Q547.81 234.295 545.75 235.453 Q543.713 236.587 541.005 236.587 Q536.537 236.587 534.223 233.809 Q531.908 231.031 531.908 225.684 M542.625 209.365 L542.625 209.365 Z" fill="#000000" fill-rule="nonzero" fill-opacity="1" /><path clip-path="url(#clip780)" d="M562.394 199.897 L566.653 199.897 L566.653 235.916 L562.394 235.916 L562.394 199.897 Z" fill="#000000" fill-rule="nonzero" fill-opacity="1" /><path clip-path="url(#clip780)" d="M587.347 222.883 Q582.185 222.883 580.194 224.064 Q578.204 225.244 578.204 228.092 Q578.204 230.36 579.685 231.703 Q581.19 233.022 583.759 233.022 Q587.301 233.022 589.431 230.522 Q591.583 227.999 591.583 223.832 L591.583 222.883 L587.347 222.883 M595.843 221.124 L595.843 235.916 L591.583 235.916 L591.583 231.981 Q590.125 234.342 587.949 235.476 Q585.773 236.587 582.625 236.587 Q578.644 236.587 576.282 234.365 Q573.945 232.119 573.945 228.369 Q573.945 223.994 576.861 221.772 Q579.801 219.55 585.611 219.55 L591.583 219.55 L591.583 219.133 Q591.583 216.194 589.639 214.596 Q587.718 212.976 584.222 212.976 Q582 212.976 579.894 213.508 Q577.787 214.041 575.843 215.106 L575.843 211.17 Q578.181 210.268 580.38 209.828 Q582.579 209.365 584.662 209.365 Q590.287 209.365 593.065 212.282 Q595.843 215.198 595.843 221.124 Z" fill="#000000" fill-rule="nonzero" fill-opacity="1" /><path clip-path="url(#clip780)" d="M608.829 202.629 L608.829 209.99 L617.602 209.99 L617.602 213.3 L608.829 213.3 L608.829 227.374 Q608.829 230.545 609.685 231.448 Q610.565 232.351 613.227 232.351 L617.602 232.351 L617.602 235.916 L613.227 235.916 Q608.296 235.916 606.421 234.087 Q604.546 232.235 604.546 227.374 L604.546 213.3 L601.421 213.3 L601.421 209.99 L604.546 209.99 L604.546 202.629 L608.829 202.629 Z" fill="#000000" fill-rule="nonzero" fill-opacity="1" /><path clip-path="url(#clip780)" d="M623.204 209.99 L627.463 209.99 L627.463 235.916 L623.204 235.916 L623.204 209.99 M623.204 199.897 L627.463 199.897 L627.463 205.291 L623.204 205.291 L623.204 199.897 Z" fill="#000000" fill-rule="nonzero" fill-opacity="1" /><path clip-path="url(#clip780)" d="M646.421 212.976 Q642.995 212.976 641.004 215.661 Q639.014 218.323 639.014 222.976 Q639.014 227.629 640.981 230.314 Q642.972 232.976 646.421 232.976 Q649.824 232.976 651.814 230.291 Q653.805 227.606 653.805 222.976 Q653.805 218.37 651.814 215.684 Q649.824 212.976 646.421 212.976 M646.421 209.365 Q651.976 209.365 655.148 212.976 Q658.319 216.587 658.319 222.976 Q658.319 229.342 655.148 232.976 Q651.976 236.587 646.421 236.587 Q640.842 236.587 637.671 232.976 Q634.523 229.342 634.523 222.976 Q634.523 216.587 637.671 212.976 Q640.842 209.365 646.421 209.365 Z" fill="#000000" fill-rule="nonzero" fill-opacity="1" /><path clip-path="url(#clip780)" d="M686.93 220.268 L686.93 235.916 L682.671 235.916 L682.671 220.407 Q682.671 216.726 681.236 214.897 Q679.8 213.069 676.93 213.069 Q673.481 213.069 671.49 215.268 Q669.5 217.467 669.5 221.263 L669.5 235.916 L665.217 235.916 L665.217 209.99 L669.5 209.99 L669.5 214.018 Q671.027 211.68 673.087 210.522 Q675.171 209.365 677.879 209.365 Q682.347 209.365 684.638 212.143 Q686.93 214.897 686.93 220.268 Z" fill="#000000" fill-rule="nonzero" fill-opacity="1" /><polyline clip-path="url(#clip780)" style="stroke:#009af9; stroke-linecap:round; stroke-linejoin:round; stroke-width:0.8; stroke-opacity:1; fill:none" points="272.215,270.476 417.369,270.476 "/>
<path clip-path="url(#clip780)" d="M469.431 255.858 L469.431 260.788 Q467.07 258.589 464.385 257.501 Q461.723 256.413 458.714 256.413 Q452.788 256.413 449.64 260.048 Q446.491 263.659 446.491 270.51 Q446.491 277.339 449.64 280.973 Q452.788 284.584 458.714 284.584 Q461.723 284.584 464.385 283.496 Q467.07 282.409 469.431 280.209 L469.431 285.094 Q466.977 286.76 464.223 287.594 Q461.491 288.427 458.436 288.427 Q450.589 288.427 446.075 283.635 Q441.561 278.821 441.561 270.51 Q441.561 262.177 446.075 257.386 Q450.589 252.571 458.436 252.571 Q461.538 252.571 464.269 253.404 Q467.024 254.214 469.431 255.858 Z" fill="#000000" fill-rule="nonzero" fill-opacity="1" /><path clip-path="url(#clip780)" d="M486.514 264.816 Q483.089 264.816 481.098 267.501 Q479.107 270.163 479.107 274.816 Q479.107 279.469 481.075 282.154 Q483.065 284.816 486.514 284.816 Q489.917 284.816 491.908 282.131 Q493.899 279.446 493.899 274.816 Q493.899 270.21 491.908 267.524 Q489.917 264.816 486.514 264.816 M486.514 261.205 Q492.07 261.205 495.241 264.816 Q498.413 268.427 498.413 274.816 Q498.413 281.182 495.241 284.816 Q492.07 288.427 486.514 288.427 Q480.936 288.427 477.764 284.816 Q474.616 281.182 474.616 274.816 Q474.616 268.427 477.764 264.816 Q480.936 261.205 486.514 261.205 Z" fill="#000000" fill-rule="nonzero" fill-opacity="1" /><path clip-path="url(#clip780)" d="M527.023 272.108 L527.023 287.756 L522.764 287.756 L522.764 272.247 Q522.764 268.566 521.329 266.737 Q519.894 264.909 517.024 264.909 Q513.574 264.909 511.584 267.108 Q509.593 269.307 509.593 273.103 L509.593 287.756 L505.311 287.756 L505.311 261.83 L509.593 261.83 L509.593 265.858 Q511.121 263.52 513.181 262.362 Q515.264 261.205 517.973 261.205 Q522.44 261.205 524.732 263.983 Q527.023 266.737 527.023 272.108 Z" fill="#000000" fill-rule="nonzero" fill-opacity="1" /><path clip-path="url(#clip780)" d="M548.644 251.737 L548.644 255.279 L544.57 255.279 Q542.278 255.279 541.375 256.205 Q540.496 257.131 540.496 259.538 L540.496 261.83 L547.509 261.83 L547.509 265.14 L540.496 265.14 L540.496 287.756 L536.213 287.756 L536.213 265.14 L532.139 265.14 L532.139 261.83 L536.213 261.83 L536.213 260.024 Q536.213 255.696 538.227 253.728 Q540.241 251.737 544.616 251.737 L548.644 251.737 Z" fill="#000000" fill-rule="nonzero" fill-opacity="1" /><path clip-path="url(#clip780)" d="M552.209 261.83 L556.468 261.83 L556.468 287.756 L552.209 287.756 L552.209 261.83 M552.209 251.737 L556.468 251.737 L556.468 257.131 L552.209 257.131 L552.209 251.737 Z" fill="#000000" fill-rule="nonzero" fill-opacity="1" /><path clip-path="url(#clip780)" d="M582.44 265.765 L582.44 251.737 L586.699 251.737 L586.699 287.756 L582.44 287.756 L582.44 283.867 Q581.097 286.182 579.037 287.316 Q577 288.427 574.13 288.427 Q569.431 288.427 566.468 284.677 Q563.528 280.927 563.528 274.816 Q563.528 268.705 566.468 264.955 Q569.431 261.205 574.13 261.205 Q577 261.205 579.037 262.339 Q581.097 263.45 582.44 265.765 M567.926 274.816 Q567.926 279.515 569.847 282.2 Q571.792 284.862 575.171 284.862 Q578.551 284.862 580.495 282.2 Q582.44 279.515 582.44 274.816 Q582.44 270.117 580.495 267.455 Q578.551 264.77 575.171 264.77 Q571.792 264.77 569.847 267.455 Q567.926 270.117 567.926 274.816 Z" fill="#000000" fill-rule="nonzero" fill-opacity="1" /><path clip-path="url(#clip780)" d="M617.648 273.728 L617.648 275.811 L598.065 275.811 Q598.343 280.209 600.704 282.524 Q603.088 284.816 607.324 284.816 Q609.778 284.816 612.069 284.214 Q614.384 283.612 616.653 282.409 L616.653 286.436 Q614.361 287.408 611.954 287.918 Q609.546 288.427 607.069 288.427 Q600.866 288.427 597.231 284.816 Q593.62 281.205 593.62 275.047 Q593.62 268.682 597.046 264.955 Q600.495 261.205 606.329 261.205 Q611.56 261.205 614.592 264.585 Q617.648 267.941 617.648 273.728 M613.389 272.478 Q613.342 268.983 611.421 266.899 Q609.523 264.816 606.375 264.816 Q602.81 264.816 600.657 266.83 Q598.528 268.844 598.204 272.501 L613.389 272.478 Z" fill="#000000" fill-rule="nonzero" fill-opacity="1" /><path clip-path="url(#clip780)" d="M646.189 272.108 L646.189 287.756 L641.93 287.756 L641.93 272.247 Q641.93 268.566 640.495 266.737 Q639.06 264.909 636.19 264.909 Q632.74 264.909 630.75 267.108 Q628.759 269.307 628.759 273.103 L628.759 287.756 L624.477 287.756 L624.477 261.83 L628.759 261.83 L628.759 265.858 Q630.287 263.52 632.347 262.362 Q634.43 261.205 637.139 261.205 Q641.606 261.205 643.898 263.983 Q646.189 266.737 646.189 272.108 Z" fill="#000000" fill-rule="nonzero" fill-opacity="1" /><path clip-path="url(#clip780)" d="M673.342 262.825 L673.342 266.807 Q671.537 265.811 669.708 265.325 Q667.902 264.816 666.05 264.816 Q661.907 264.816 659.615 267.455 Q657.324 270.071 657.324 274.816 Q657.324 279.561 659.615 282.2 Q661.907 284.816 666.05 284.816 Q667.902 284.816 669.708 284.33 Q671.537 283.821 673.342 282.825 L673.342 286.76 Q671.56 287.594 669.638 288.01 Q667.74 288.427 665.588 288.427 Q659.731 288.427 656.282 284.746 Q652.833 281.066 652.833 274.816 Q652.833 268.473 656.305 264.839 Q659.801 261.205 665.865 261.205 Q667.833 261.205 669.708 261.622 Q671.583 262.015 673.342 262.825 Z" fill="#000000" fill-rule="nonzero" fill-opacity="1" /><path clip-path="url(#clip780)" d="M702.925 273.728 L702.925 275.811 L683.342 275.811 Q683.62 280.209 685.981 282.524 Q688.365 284.816 692.601 284.816 Q695.055 284.816 697.347 284.214 Q699.661 283.612 701.93 282.409 L701.93 286.436 Q699.638 287.408 697.231 287.918 Q694.823 288.427 692.347 288.427 Q686.143 288.427 682.509 284.816 Q678.898 281.205 678.898 275.047 Q678.898 268.682 682.324 264.955 Q685.773 261.205 691.606 261.205 Q696.837 261.205 699.87 264.585 Q702.925 267.941 702.925 273.728 M698.666 272.478 Q698.62 268.983 696.698 266.899 Q694.8 264.816 691.652 264.816 Q688.087 264.816 685.935 266.83 Q683.805 268.844 683.481 272.501 L698.666 272.478 Z" fill="#000000" fill-rule="nonzero" fill-opacity="1" /><path clip-path="url(#clip780)" d="M743.596 274.816 Q743.596 270.117 741.652 267.455 Q739.731 264.77 736.351 264.77 Q732.971 264.77 731.027 267.455 Q729.106 270.117 729.106 274.816 Q729.106 279.515 731.027 282.2 Q732.971 284.862 736.351 284.862 Q739.731 284.862 741.652 282.2 Q743.596 279.515 743.596 274.816 M729.106 265.765 Q730.448 263.45 732.485 262.339 Q734.546 261.205 737.393 261.205 Q742.115 261.205 745.055 264.955 Q748.018 268.705 748.018 274.816 Q748.018 280.927 745.055 284.677 Q742.115 288.427 737.393 288.427 Q734.546 288.427 732.485 287.316 Q730.448 286.182 729.106 283.867 L729.106 287.756 L724.823 287.756 L724.823 251.737 L729.106 251.737 L729.106 265.765 Z" fill="#000000" fill-rule="nonzero" fill-opacity="1" /><path clip-path="url(#clip780)" d="M766.86 274.723 Q761.698 274.723 759.707 275.904 Q757.717 277.084 757.717 279.932 Q757.717 282.2 759.198 283.543 Q760.703 284.862 763.272 284.862 Q766.814 284.862 768.943 282.362 Q771.096 279.839 771.096 275.672 L771.096 274.723 L766.86 274.723 M775.355 272.964 L775.355 287.756 L771.096 287.756 L771.096 283.821 Q769.638 286.182 767.462 287.316 Q765.286 288.427 762.138 288.427 Q758.156 288.427 755.795 286.205 Q753.457 283.959 753.457 280.209 Q753.457 275.834 756.374 273.612 Q759.314 271.39 765.124 271.39 L771.096 271.39 L771.096 270.973 Q771.096 268.034 769.152 266.436 Q767.231 264.816 763.735 264.816 Q761.513 264.816 759.406 265.348 Q757.3 265.881 755.356 266.946 L755.356 263.01 Q757.694 262.108 759.893 261.668 Q762.092 261.205 764.175 261.205 Q769.8 261.205 772.578 264.122 Q775.355 267.038 775.355 272.964 Z" fill="#000000" fill-rule="nonzero" fill-opacity="1" /><path clip-path="url(#clip780)" d="M805.679 272.108 L805.679 287.756 L801.42 287.756 L801.42 272.247 Q801.42 268.566 799.985 266.737 Q798.55 264.909 795.679 264.909 Q792.23 264.909 790.24 267.108 Q788.249 269.307 788.249 273.103 L788.249 287.756 L783.967 287.756 L783.967 261.83 L788.249 261.83 L788.249 265.858 Q789.777 263.52 791.837 262.362 Q793.92 261.205 796.629 261.205 Q801.096 261.205 803.388 263.983 Q805.679 266.737 805.679 272.108 Z" fill="#000000" fill-rule="nonzero" fill-opacity="1" /><path clip-path="url(#clip780)" d="M831.235 265.765 L831.235 251.737 L835.494 251.737 L835.494 287.756 L831.235 287.756 L831.235 283.867 Q829.892 286.182 827.832 287.316 Q825.795 288.427 822.925 288.427 Q818.226 288.427 815.263 284.677 Q812.323 280.927 812.323 274.816 Q812.323 268.705 815.263 264.955 Q818.226 261.205 822.925 261.205 Q825.795 261.205 827.832 262.339 Q829.892 263.45 831.235 265.765 M816.721 274.816 Q816.721 279.515 818.642 282.2 Q820.587 284.862 823.966 284.862 Q827.346 284.862 829.29 282.2 Q831.235 279.515 831.235 274.816 Q831.235 270.117 829.29 267.455 Q827.346 264.77 823.966 264.77 Q820.587 264.77 818.642 267.455 Q816.721 270.117 816.721 274.816 Z" fill="#000000" fill-rule="nonzero" fill-opacity="1" /></svg>
