<?xml version="1.0" encoding="utf-8"?>
<svg xmlns="http://www.w3.org/2000/svg" xmlns:xlink="http://www.w3.org/1999/xlink" width="500" height="300" viewBox="0 0 2000 1200">
<defs>
  <clipPath id="clip800">
    <rect x="0" y="0" width="2000" height="1200"/>
  </clipPath>
</defs>
<path clip-path="url(#clip800)" d="M0 1200 L2000 1200 L2000 0 L0 0  Z" fill="#ffffff" fill-rule="evenodd" fill-opacity="1"/>
<defs>
  <clipPath id="clip801">
    <rect x="400" y="0" width="1401" height="1200"/>
  </clipPath>
</defs>
<path clip-path="url(#clip800)" d="M195.212 1035.39 L1952.76 1035.39 L1952.76 117.424 L195.212 117.424  Z" fill="#ffffff" fill-rule="evenodd" fill-opacity="1"/>
<defs>
  <clipPath id="clip802">
    <rect x="195" y="117" width="1759" height="919"/>
  </clipPath>
</defs>
<polyline clip-path="url(#clip802)" style="stroke:#000000; stroke-linecap:round; stroke-linejoin:round; stroke-width:2; stroke-opacity:0.1; fill:none" points="244.953,1035.39 244.953,117.424 "/>
<polyline clip-path="url(#clip802)" style="stroke:#000000; stroke-linecap:round; stroke-linejoin:round; stroke-width:2; stroke-opacity:0.1; fill:none" points="632.351,1035.39 632.351,117.424 "/>
<polyline clip-path="url(#clip802)" style="stroke:#000000; stroke-linecap:round; stroke-linejoin:round; stroke-width:2; stroke-opacity:0.1; fill:none" points="1019.75,1035.39 1019.75,117.424 "/>
<polyline clip-path="url(#clip802)" style="stroke:#000000; stroke-linecap:round; stroke-linejoin:round; stroke-width:2; stroke-opacity:0.1; fill:none" points="1407.15,1035.39 1407.15,117.424 "/>
<polyline clip-path="url(#clip802)" style="stroke:#000000; stroke-linecap:round; stroke-linejoin:round; stroke-width:2; stroke-opacity:0.1; fill:none" points="1794.54,1035.39 1794.54,117.424 "/>
<polyline clip-path="url(#clip802)" style="stroke:#000000; stroke-linecap:round; stroke-linejoin:round; stroke-width:2; stroke-opacity:0.1; fill:none" points="195.212,1009.41 1952.76,1009.41 "/>
<polyline clip-path="url(#clip802)" style="stroke:#000000; stroke-linecap:round; stroke-linejoin:round; stroke-width:2; stroke-opacity:0.1; fill:none" points="195.212,730.052 1952.76,730.052 "/>
<polyline clip-path="url(#clip802)" style="stroke:#000000; stroke-linecap:round; stroke-linejoin:round; stroke-width:2; stroke-opacity:0.1; fill:none" points="195.212,450.696 1952.76,450.696 "/>
<polyline clip-path="url(#clip802)" style="stroke:#000000; stroke-linecap:round; stroke-linejoin:round; stroke-width:2; stroke-opacity:0.1; fill:none" points="195.212,171.34 1952.76,171.34 "/>
<polyline clip-path="url(#clip800)" style="stroke:#000000; stroke-linecap:round; stroke-linejoin:round; stroke-width:4; stroke-opacity:1; fill:none" points="195.212,1035.39 1952.76,1035.39 "/>
<polyline clip-path="url(#clip800)" style="stroke:#000000; stroke-linecap:round; stroke-linejoin:round; stroke-width:4; stroke-opacity:1; fill:none" points="244.953,1035.39 244.953,1016.49 "/>
<polyline clip-path="url(#clip800)" style="stroke:#000000; stroke-linecap:round; stroke-linejoin:round; stroke-width:4; stroke-opacity:1; fill:none" points="632.351,1035.39 632.351,1016.49 "/>
<polyline clip-path="url(#clip800)" style="stroke:#000000; stroke-linecap:round; stroke-linejoin:round; stroke-width:4; stroke-opacity:1; fill:none" points="1019.75,1035.39 1019.75,1016.49 "/>
<polyline clip-path="url(#clip800)" style="stroke:#000000; stroke-linecap:round; stroke-linejoin:round; stroke-width:4; stroke-opacity:1; fill:none" points="1407.15,1035.39 1407.15,1016.49 "/>
<polyline clip-path="url(#clip800)" style="stroke:#000000; stroke-linecap:round; stroke-linejoin:round; stroke-width:4; stroke-opacity:1; fill:none" points="1794.54,1035.39 1794.54,1016.49 "/>
<path clip-path="url(#clip800)" d="M244.953 1063.11 Q241.342 1063.11 239.514 1066.67 Q237.708 1070.21 237.708 1077.34 Q237.708 1084.45 239.514 1088.01 Q241.342 1091.56 244.953 1091.56 Q248.588 1091.56 250.393 1088.01 Q252.222 1084.45 252.222 1077.34 Q252.222 1070.21 250.393 1066.67 Q248.588 1063.11 244.953 1063.11 M244.953 1059.4 Q250.764 1059.4 253.819 1064.01 Q256.898 1068.59 256.898 1077.34 Q256.898 1086.07 253.819 1090.68 Q250.764 1095.26 244.953 1095.26 Q239.143 1095.26 236.065 1090.68 Q233.009 1086.07 233.009 1077.34 Q233.009 1068.59 236.065 1064.01 Q239.143 1059.4 244.953 1059.4 Z" fill="#000000" fill-rule="nonzero" fill-opacity="1" /><path clip-path="url(#clip800)" d="M611.622 1090.65 L627.941 1090.65 L627.941 1094.59 L605.997 1094.59 L605.997 1090.65 Q608.659 1087.9 613.242 1083.27 Q617.849 1078.62 619.029 1077.27 Q621.274 1074.75 622.154 1073.01 Q623.057 1071.25 623.057 1069.56 Q623.057 1066.81 621.112 1065.07 Q619.191 1063.34 616.089 1063.34 Q613.89 1063.34 611.437 1064.1 Q609.006 1064.87 606.228 1066.42 L606.228 1061.69 Q609.052 1060.56 611.506 1059.98 Q613.96 1059.4 615.997 1059.4 Q621.367 1059.4 624.561 1062.09 Q627.756 1064.77 627.756 1069.26 Q627.756 1071.39 626.946 1073.31 Q626.159 1075.21 624.052 1077.81 Q623.473 1078.48 620.372 1081.69 Q617.27 1084.89 611.622 1090.65 Z" fill="#000000" fill-rule="nonzero" fill-opacity="1" /><path clip-path="url(#clip800)" d="M637.802 1060.03 L656.158 1060.03 L656.158 1063.96 L642.084 1063.96 L642.084 1072.44 Q643.103 1072.09 644.122 1071.93 Q645.14 1071.74 646.159 1071.74 Q651.946 1071.74 655.325 1074.91 Q658.705 1078.08 658.705 1083.5 Q658.705 1089.08 655.233 1092.18 Q651.76 1095.26 645.441 1095.26 Q643.265 1095.26 640.997 1094.89 Q638.751 1094.52 636.344 1093.78 L636.344 1089.08 Q638.427 1090.21 640.649 1090.77 Q642.872 1091.32 645.348 1091.32 Q649.353 1091.32 651.691 1089.22 Q654.029 1087.11 654.029 1083.5 Q654.029 1079.89 651.691 1077.78 Q649.353 1075.68 645.348 1075.68 Q643.473 1075.68 641.598 1076.09 Q639.747 1076.51 637.802 1077.39 L637.802 1060.03 Z" fill="#000000" fill-rule="nonzero" fill-opacity="1" /><path clip-path="url(#clip800)" d="M994.447 1060.03 L1012.8 1060.03 L1012.8 1063.96 L998.73 1063.96 L998.73 1072.44 Q999.748 1072.09 1000.77 1071.93 Q1001.79 1071.74 1002.8 1071.74 Q1008.59 1071.74 1011.97 1074.91 Q1015.35 1078.08 1015.35 1083.5 Q1015.35 1089.08 1011.88 1092.18 Q1008.41 1095.26 1002.09 1095.26 Q999.91 1095.26 997.642 1094.89 Q995.396 1094.52 992.989 1093.78 L992.989 1089.08 Q995.072 1090.21 997.295 1090.77 Q999.517 1091.32 1001.99 1091.32 Q1006 1091.32 1008.34 1089.22 Q1010.67 1087.11 1010.67 1083.5 Q1010.67 1079.89 1008.34 1077.78 Q1006 1075.68 1001.99 1075.68 Q1000.12 1075.68 998.244 1076.09 Q996.392 1076.51 994.447 1077.39 L994.447 1060.03 Z" fill="#000000" fill-rule="nonzero" fill-opacity="1" /><path clip-path="url(#clip800)" d="M1034.56 1063.11 Q1030.95 1063.11 1029.12 1066.67 Q1027.32 1070.21 1027.32 1077.34 Q1027.32 1084.45 1029.12 1088.01 Q1030.95 1091.56 1034.56 1091.56 Q1038.2 1091.56 1040 1088.01 Q1041.83 1084.45 1041.83 1077.34 Q1041.83 1070.21 1040 1066.67 Q1038.2 1063.11 1034.56 1063.11 M1034.56 1059.4 Q1040.37 1059.4 1043.43 1064.01 Q1046.51 1068.59 1046.51 1077.34 Q1046.51 1086.07 1043.43 1090.68 Q1040.37 1095.26 1034.56 1095.26 Q1028.75 1095.26 1025.67 1090.68 Q1022.62 1086.07 1022.62 1077.34 Q1022.62 1068.59 1025.67 1064.01 Q1028.75 1059.4 1034.56 1059.4 Z" fill="#000000" fill-rule="nonzero" fill-opacity="1" /><path clip-path="url(#clip800)" d="M1381 1060.03 L1403.22 1060.03 L1403.22 1062.02 L1390.68 1094.59 L1385.79 1094.59 L1397.6 1063.96 L1381 1063.96 L1381 1060.03 Z" fill="#000000" fill-rule="nonzero" fill-opacity="1" /><path clip-path="url(#clip800)" d="M1412.39 1060.03 L1430.74 1060.03 L1430.74 1063.96 L1416.67 1063.96 L1416.67 1072.44 Q1417.69 1072.09 1418.71 1071.93 Q1419.73 1071.74 1420.74 1071.74 Q1426.53 1071.74 1429.91 1074.91 Q1433.29 1078.08 1433.29 1083.5 Q1433.29 1089.08 1429.82 1092.18 Q1426.35 1095.26 1420.03 1095.26 Q1417.85 1095.26 1415.58 1094.89 Q1413.34 1094.52 1410.93 1093.78 L1410.93 1089.08 Q1413.01 1090.21 1415.24 1090.77 Q1417.46 1091.32 1419.93 1091.32 Q1423.94 1091.32 1426.28 1089.22 Q1428.62 1087.11 1428.62 1083.5 Q1428.62 1079.89 1426.28 1077.78 Q1423.94 1075.68 1419.93 1075.68 Q1418.06 1075.68 1416.18 1076.09 Q1414.33 1076.51 1412.39 1077.39 L1412.39 1060.03 Z" fill="#000000" fill-rule="nonzero" fill-opacity="1" /><path clip-path="url(#clip800)" d="M1754.15 1090.65 L1761.79 1090.65 L1761.79 1064.29 L1753.48 1065.95 L1753.48 1061.69 L1761.74 1060.03 L1766.42 1060.03 L1766.42 1090.65 L1774.06 1090.65 L1774.06 1094.59 L1754.15 1094.59 L1754.15 1090.65 Z" fill="#000000" fill-rule="nonzero" fill-opacity="1" /><path clip-path="url(#clip800)" d="M1793.5 1063.11 Q1789.89 1063.11 1788.06 1066.67 Q1786.26 1070.21 1786.26 1077.34 Q1786.26 1084.45 1788.06 1088.01 Q1789.89 1091.56 1793.5 1091.56 Q1797.14 1091.56 1798.94 1088.01 Q1800.77 1084.45 1800.77 1077.34 Q1800.77 1070.21 1798.94 1066.67 Q1797.14 1063.11 1793.5 1063.11 M1793.5 1059.4 Q1799.31 1059.4 1802.37 1064.01 Q1805.45 1068.59 1805.45 1077.34 Q1805.45 1086.07 1802.37 1090.68 Q1799.31 1095.26 1793.5 1095.26 Q1787.69 1095.26 1784.61 1090.68 Q1781.56 1086.07 1781.56 1077.34 Q1781.56 1068.59 1784.61 1064.01 Q1787.69 1059.4 1793.5 1059.4 Z" fill="#000000" fill-rule="nonzero" fill-opacity="1" /><path clip-path="url(#clip800)" d="M1823.66 1063.11 Q1820.05 1063.11 1818.22 1066.67 Q1816.42 1070.21 1816.42 1077.34 Q1816.42 1084.45 1818.22 1088.01 Q1820.05 1091.56 1823.66 1091.56 Q1827.3 1091.56 1829.1 1088.01 Q1830.93 1084.45 1830.93 1077.34 Q1830.93 1070.21 1829.1 1066.67 Q1827.3 1063.11 1823.66 1063.11 M1823.66 1059.4 Q1829.47 1059.4 1832.53 1064.01 Q1835.61 1068.59 1835.61 1077.34 Q1835.61 1086.07 1832.53 1090.68 Q1829.47 1095.26 1823.66 1095.26 Q1817.85 1095.26 1814.77 1090.68 Q1811.72 1086.07 1811.72 1077.34 Q1811.72 1068.59 1814.77 1064.01 Q1817.85 1059.4 1823.66 1059.4 Z" fill="#000000" fill-rule="nonzero" fill-opacity="1" /><path clip-path="url(#clip800)" d="M859.619 1126.73 L889.665 1126.73 L889.665 1132.14 L866.048 1132.14 L866.048 1146.21 L888.678 1146.21 L888.678 1151.62 L866.048 1151.62 L866.048 1168.84 L890.238 1168.84 L890.238 1174.25 L859.619 1174.25 L859.619 1126.73 Z" fill="#000000" fill-rule="nonzero" fill-opacity="1" /><path clip-path="url(#clip800)" d="M930.182 1152.74 L930.182 1174.25 L924.326 1174.25 L924.326 1152.93 Q924.326 1147.87 922.353 1145.35 Q920.379 1142.84 916.433 1142.84 Q911.69 1142.84 908.953 1145.86 Q906.216 1148.88 906.216 1154.1 L906.216 1174.25 L900.327 1174.25 L900.327 1138.6 L906.216 1138.6 L906.216 1144.14 Q908.316 1140.93 911.149 1139.34 Q914.014 1137.74 917.737 1137.74 Q923.88 1137.74 927.031 1141.56 Q930.182 1145.35 930.182 1152.74 Z" fill="#000000" fill-rule="nonzero" fill-opacity="1" /><path clip-path="url(#clip800)" d="M972.355 1154.96 L972.355 1157.83 L945.428 1157.83 Q945.81 1163.88 949.057 1167.06 Q952.335 1170.21 958.16 1170.21 Q961.534 1170.21 964.685 1169.38 Q967.867 1168.55 970.987 1166.9 L970.987 1172.44 Q967.836 1173.77 964.525 1174.47 Q961.215 1175.17 957.81 1175.17 Q949.28 1175.17 944.282 1170.21 Q939.317 1165.24 939.317 1156.78 Q939.317 1148.03 944.028 1142.9 Q948.77 1137.74 956.791 1137.74 Q963.984 1137.74 968.154 1142.39 Q972.355 1147.01 972.355 1154.96 M966.499 1153.25 Q966.435 1148.44 963.793 1145.57 Q961.183 1142.71 956.855 1142.71 Q951.953 1142.71 948.993 1145.48 Q946.065 1148.25 945.619 1153.28 L966.499 1153.25 Z" fill="#000000" fill-rule="nonzero" fill-opacity="1" /><path clip-path="url(#clip800)" d="M1002.62 1144.08 Q1001.64 1143.51 1000.46 1143.25 Q999.314 1142.96 997.914 1142.96 Q992.948 1142.96 990.275 1146.21 Q987.633 1149.43 987.633 1155.47 L987.633 1174.25 L981.745 1174.25 L981.745 1138.6 L987.633 1138.6 L987.633 1144.14 Q989.479 1140.9 992.439 1139.34 Q995.399 1137.74 999.632 1137.74 Q1000.24 1137.74 1000.97 1137.84 Q1001.7 1137.9 1002.59 1138.06 L1002.62 1144.08 Z" fill="#000000" fill-rule="nonzero" fill-opacity="1" /><path clip-path="url(#clip800)" d="M1031.08 1156.01 Q1031.08 1149.65 1028.44 1146.15 Q1025.83 1142.65 1021.08 1142.65 Q1016.37 1142.65 1013.73 1146.15 Q1011.12 1149.65 1011.12 1156.01 Q1011.12 1162.35 1013.73 1165.85 Q1016.37 1169.35 1021.08 1169.35 Q1025.83 1169.35 1028.44 1165.85 Q1031.08 1162.35 1031.08 1156.01 M1036.94 1169.83 Q1036.94 1178.93 1032.89 1183.35 Q1028.85 1187.81 1020.51 1187.81 Q1017.42 1187.81 1014.69 1187.33 Q1011.95 1186.89 1009.37 1185.93 L1009.37 1180.24 Q1011.95 1181.64 1014.46 1182.3 Q1016.98 1182.97 1019.59 1182.97 Q1025.35 1182.97 1028.21 1179.95 Q1031.08 1176.96 1031.08 1170.88 L1031.08 1167.98 Q1029.26 1171.13 1026.43 1172.69 Q1023.6 1174.25 1019.65 1174.25 Q1013.1 1174.25 1009.09 1169.25 Q1005.07 1164.26 1005.07 1156.01 Q1005.07 1147.74 1009.09 1142.74 Q1013.1 1137.74 1019.65 1137.74 Q1023.6 1137.74 1026.43 1139.3 Q1029.26 1140.86 1031.08 1144.01 L1031.08 1138.6 L1036.94 1138.6 L1036.94 1169.83 Z" fill="#000000" fill-rule="nonzero" fill-opacity="1" /><path clip-path="url(#clip800)" d="M1063.83 1177.56 Q1061.35 1183.93 1058.99 1185.87 Q1056.64 1187.81 1052.69 1187.81 L1048.01 1187.81 L1048.01 1182.91 L1051.45 1182.91 Q1053.87 1182.91 1055.2 1181.76 Q1056.54 1180.62 1058.16 1176.35 L1059.22 1173.68 L1044.8 1138.6 L1051 1138.6 L1062.14 1166.49 L1073.28 1138.6 L1079.49 1138.6 L1063.83 1177.56 Z" fill="#000000" fill-rule="nonzero" fill-opacity="1" /><path clip-path="url(#clip800)" d="M1122.36 1124.79 Q1118.1 1132.11 1116.03 1139.27 Q1113.96 1146.43 1113.96 1153.79 Q1113.96 1161.14 1116.03 1168.36 Q1118.13 1175.56 1122.36 1182.85 L1117.27 1182.85 Q1112.5 1175.37 1110.11 1168.14 Q1107.75 1160.92 1107.75 1153.79 Q1107.75 1146.69 1110.11 1139.5 Q1112.46 1132.3 1117.27 1124.79 L1122.36 1124.79 Z" fill="#000000" fill-rule="nonzero" fill-opacity="1" /><path clip-path="url(#clip800)" d="M1133.98 1126.73 L1143.56 1126.73 L1155.69 1159.07 L1167.88 1126.73 L1177.46 1126.73 L1177.46 1174.25 L1171.19 1174.25 L1171.19 1132.52 L1158.93 1165.12 L1152.47 1165.12 L1140.22 1132.52 L1140.22 1174.25 L1133.98 1174.25 L1133.98 1126.73 Z" fill="#000000" fill-rule="nonzero" fill-opacity="1" /><path clip-path="url(#clip800)" d="M1220.46 1154.96 L1220.46 1157.83 L1193.53 1157.83 Q1193.91 1163.88 1197.16 1167.06 Q1200.44 1170.21 1206.26 1170.21 Q1209.64 1170.21 1212.79 1169.38 Q1215.97 1168.55 1219.09 1166.9 L1219.09 1172.44 Q1215.94 1173.77 1212.63 1174.47 Q1209.32 1175.17 1205.91 1175.17 Q1197.38 1175.17 1192.39 1170.21 Q1187.42 1165.24 1187.42 1156.78 Q1187.42 1148.03 1192.13 1142.9 Q1196.87 1137.74 1204.89 1137.74 Q1212.09 1137.74 1216.26 1142.39 Q1220.46 1147.01 1220.46 1154.96 M1214.6 1153.25 Q1214.54 1148.44 1211.9 1145.57 Q1209.29 1142.71 1204.96 1142.71 Q1200.06 1142.71 1197.1 1145.48 Q1194.17 1148.25 1193.72 1153.28 L1214.6 1153.25 Z" fill="#000000" fill-rule="nonzero" fill-opacity="1" /><path clip-path="url(#clip800)" d="M1242.58 1174.25 L1224.44 1126.73 L1231.15 1126.73 L1246.21 1166.74 L1261.29 1126.73 L1267.98 1126.73 L1249.87 1174.25 L1242.58 1174.25 Z" fill="#000000" fill-rule="nonzero" fill-opacity="1" /><path clip-path="url(#clip800)" d="M1273.74 1124.79 L1278.83 1124.79 Q1283.61 1132.3 1285.96 1139.5 Q1288.35 1146.69 1288.35 1153.79 Q1288.35 1160.92 1285.96 1168.14 Q1283.61 1175.37 1278.83 1182.85 L1273.74 1182.85 Q1277.97 1175.56 1280.04 1168.36 Q1282.14 1161.14 1282.14 1153.79 Q1282.14 1146.43 1280.04 1139.27 Q1277.97 1132.11 1273.74 1124.79 Z" fill="#000000" fill-rule="nonzero" fill-opacity="1" /><polyline clip-path="url(#clip800)" style="stroke:#000000; stroke-linecap:round; stroke-linejoin:round; stroke-width:4; stroke-opacity:1; fill:none" points="195.212,1035.39 195.212,117.424 "/>
<polyline clip-path="url(#clip800)" style="stroke:#000000; stroke-linecap:round; stroke-linejoin:round; stroke-width:4; stroke-opacity:1; fill:none" points="195.212,1009.41 214.109,1009.41 "/>
<polyline clip-path="url(#clip800)" style="stroke:#000000; stroke-linecap:round; stroke-linejoin:round; stroke-width:4; stroke-opacity:1; fill:none" points="195.212,730.052 214.109,730.052 "/>
<polyline clip-path="url(#clip800)" style="stroke:#000000; stroke-linecap:round; stroke-linejoin:round; stroke-width:4; stroke-opacity:1; fill:none" points="195.212,450.696 214.109,450.696 "/>
<polyline clip-path="url(#clip800)" style="stroke:#000000; stroke-linecap:round; stroke-linejoin:round; stroke-width:4; stroke-opacity:1; fill:none" points="195.212,171.34 214.109,171.34 "/>
<path clip-path="url(#clip800)" d="M153.267 995.206 Q149.656 995.206 147.827 998.771 Q146.022 1002.31 146.022 1009.44 Q146.022 1016.55 147.827 1020.11 Q149.656 1023.66 153.267 1023.66 Q156.901 1023.66 158.707 1020.11 Q160.536 1016.55 160.536 1009.44 Q160.536 1002.31 158.707 998.771 Q156.901 995.206 153.267 995.206 M153.267 991.503 Q159.077 991.503 162.133 996.109 Q165.212 1000.69 165.212 1009.44 Q165.212 1018.17 162.133 1022.78 Q159.077 1027.36 153.267 1027.36 Q147.457 1027.36 144.378 1022.78 Q141.323 1018.17 141.323 1009.44 Q141.323 1000.69 144.378 996.109 Q147.457 991.503 153.267 991.503 Z" fill="#000000" fill-rule="nonzero" fill-opacity="1" /><path clip-path="url(#clip800)" d="M113.916 743.397 L121.554 743.397 L121.554 717.031 L113.244 718.698 L113.244 714.438 L121.508 712.772 L126.184 712.772 L126.184 743.397 L133.823 743.397 L133.823 747.332 L113.916 747.332 L113.916 743.397 Z" fill="#000000" fill-rule="nonzero" fill-opacity="1" /><path clip-path="url(#clip800)" d="M153.267 715.85 Q149.656 715.85 147.827 719.415 Q146.022 722.957 146.022 730.086 Q146.022 737.193 147.827 740.758 Q149.656 744.299 153.267 744.299 Q156.901 744.299 158.707 740.758 Q160.536 737.193 160.536 730.086 Q160.536 722.957 158.707 719.415 Q156.901 715.85 153.267 715.85 M153.267 712.147 Q159.077 712.147 162.133 716.753 Q165.212 721.337 165.212 730.086 Q165.212 738.813 162.133 743.42 Q159.077 748.003 153.267 748.003 Q147.457 748.003 144.378 743.42 Q141.323 738.813 141.323 730.086 Q141.323 721.337 144.378 716.753 Q147.457 712.147 153.267 712.147 Z" fill="#000000" fill-rule="nonzero" fill-opacity="1" /><path clip-path="url(#clip800)" d="M117.133 464.041 L133.452 464.041 L133.452 467.976 L111.508 467.976 L111.508 464.041 Q114.17 461.286 118.753 456.656 Q123.36 452.004 124.54 450.661 Q126.786 448.138 127.665 446.402 Q128.568 444.643 128.568 442.953 Q128.568 440.198 126.624 438.462 Q124.703 436.726 121.601 436.726 Q119.402 436.726 116.948 437.49 Q114.517 438.254 111.74 439.805 L111.74 435.082 Q114.564 433.948 117.017 433.37 Q119.471 432.791 121.508 432.791 Q126.878 432.791 130.073 435.476 Q133.267 438.161 133.267 442.652 Q133.267 444.781 132.457 446.703 Q131.67 448.601 129.564 451.193 Q128.985 451.865 125.883 455.082 Q122.781 458.277 117.133 464.041 Z" fill="#000000" fill-rule="nonzero" fill-opacity="1" /><path clip-path="url(#clip800)" d="M153.267 436.494 Q149.656 436.494 147.827 440.059 Q146.022 443.601 146.022 450.731 Q146.022 457.837 147.827 461.402 Q149.656 464.943 153.267 464.943 Q156.901 464.943 158.707 461.402 Q160.536 457.837 160.536 450.731 Q160.536 443.601 158.707 440.059 Q156.901 436.494 153.267 436.494 M153.267 432.791 Q159.077 432.791 162.133 437.397 Q165.212 441.981 165.212 450.731 Q165.212 459.457 162.133 464.064 Q159.077 468.647 153.267 468.647 Q147.457 468.647 144.378 464.064 Q141.323 459.457 141.323 450.731 Q141.323 441.981 144.378 437.397 Q147.457 432.791 153.267 432.791 Z" fill="#000000" fill-rule="nonzero" fill-opacity="1" /><path clip-path="url(#clip800)" d="M127.272 169.986 Q130.628 170.703 132.503 172.972 Q134.402 175.24 134.402 178.574 Q134.402 183.689 130.883 186.49 Q127.365 189.291 120.883 189.291 Q118.707 189.291 116.392 188.851 Q114.101 188.435 111.647 187.578 L111.647 183.064 Q113.591 184.199 115.906 184.777 Q118.221 185.356 120.744 185.356 Q125.142 185.356 127.434 183.62 Q129.749 181.884 129.749 178.574 Q129.749 175.518 127.596 173.805 Q125.466 172.069 121.647 172.069 L117.619 172.069 L117.619 168.226 L121.832 168.226 Q125.281 168.226 127.11 166.861 Q128.939 165.472 128.939 162.879 Q128.939 160.217 127.04 158.805 Q125.165 157.37 121.647 157.37 Q119.726 157.37 117.527 157.787 Q115.328 158.203 112.689 159.083 L112.689 154.916 Q115.351 154.176 117.666 153.805 Q120.003 153.435 122.064 153.435 Q127.388 153.435 130.49 155.865 Q133.591 158.273 133.591 162.393 Q133.591 165.263 131.948 167.254 Q130.304 169.222 127.272 169.986 Z" fill="#000000" fill-rule="nonzero" fill-opacity="1" /><path clip-path="url(#clip800)" d="M153.267 157.139 Q149.656 157.139 147.827 160.703 Q146.022 164.245 146.022 171.375 Q146.022 178.481 147.827 182.046 Q149.656 185.587 153.267 185.587 Q156.901 185.587 158.707 182.046 Q160.536 178.481 160.536 171.375 Q160.536 164.245 158.707 160.703 Q156.901 157.139 153.267 157.139 M153.267 153.435 Q159.077 153.435 162.133 158.041 Q165.212 162.625 165.212 171.375 Q165.212 180.101 162.133 184.708 Q159.077 189.291 153.267 189.291 Q147.457 189.291 144.378 184.708 Q141.323 180.101 141.323 171.375 Q141.323 162.625 144.378 158.041 Q147.457 153.435 153.267 153.435 Z" fill="#000000" fill-rule="nonzero" fill-opacity="1" /><path clip-path="url(#clip800)" d="M23.3924 648.434 L30.1719 648.434 Q27.1482 651.68 25.6523 655.373 Q24.1563 659.033 24.1563 663.171 Q24.1563 671.319 29.1534 675.647 Q34.1187 679.976 43.5399 679.976 Q52.9293 679.976 57.9264 675.647 Q62.8916 671.319 62.8916 663.171 Q62.8916 659.033 61.3957 655.373 Q59.8998 651.68 56.8761 648.434 L63.5919 648.434 Q65.8835 651.808 67.0294 655.595 Q68.1752 659.351 68.1752 663.553 Q68.1752 674.342 61.5867 680.549 Q54.9663 686.756 43.5399 686.756 Q32.0816 686.756 25.4931 680.549 Q18.8728 674.342 18.8728 663.553 Q18.8728 659.287 20.0186 655.532 Q21.1326 651.744 23.3924 648.434 Z" fill="#000000" fill-rule="nonzero" fill-opacity="1" /><path clip-path="url(#clip800)" d="M35.7101 624.944 Q35.7101 629.655 39.4022 632.392 Q43.0625 635.13 49.46 635.13 Q55.8575 635.13 59.5497 632.424 Q63.2099 629.687 63.2099 624.944 Q63.2099 620.266 59.5178 617.528 Q55.8257 614.791 49.46 614.791 Q43.1261 614.791 39.434 617.528 Q35.7101 620.266 35.7101 624.944 M30.7448 624.944 Q30.7448 617.306 35.7101 612.945 Q40.6753 608.585 49.46 608.585 Q58.2129 608.585 63.2099 612.945 Q68.1752 617.306 68.1752 624.944 Q68.1752 632.615 63.2099 636.976 Q58.2129 641.304 49.46 641.304 Q40.6753 641.304 35.7101 636.976 Q30.7448 632.615 30.7448 624.944 Z" fill="#000000" fill-rule="nonzero" fill-opacity="1" /><path clip-path="url(#clip800)" d="M53.1839 599.482 L31.6042 599.482 L31.6042 593.625 L52.9611 593.625 Q58.0219 593.625 60.5682 591.652 Q63.0826 589.678 63.0826 585.732 Q63.0826 580.989 60.0589 578.252 Q57.0352 575.483 51.8153 575.483 L31.6042 575.483 L31.6042 569.627 L67.2522 569.627 L67.2522 575.483 L61.7776 575.483 Q65.0242 577.615 66.6156 580.448 Q68.1752 583.249 68.1752 586.973 Q68.1752 593.116 64.3558 596.299 Q60.5363 599.482 53.1839 599.482 M30.7448 584.745 L30.7448 584.745 Z" fill="#000000" fill-rule="nonzero" fill-opacity="1" /><path clip-path="url(#clip800)" d="M45.7361 527.931 L67.2522 527.931 L67.2522 533.788 L45.927 533.788 Q40.8663 533.788 38.3518 535.761 Q35.8374 537.734 35.8374 541.681 Q35.8374 546.424 38.8611 549.161 Q41.8848 551.898 47.1047 551.898 L67.2522 551.898 L67.2522 557.786 L31.6042 557.786 L31.6042 551.898 L37.1424 551.898 Q33.9277 549.797 32.3363 546.965 Q30.7448 544.1 30.7448 540.376 Q30.7448 534.233 34.5643 531.082 Q38.3518 527.931 45.7361 527.931 Z" fill="#000000" fill-rule="nonzero" fill-opacity="1" /><path clip-path="url(#clip800)" d="M21.4827 510.457 L31.6042 510.457 L31.6042 498.394 L36.1557 498.394 L36.1557 510.457 L55.5074 510.457 Q59.8679 510.457 61.1093 509.28 Q62.3506 508.07 62.3506 504.41 L62.3506 498.394 L67.2522 498.394 L67.2522 504.41 Q67.2522 511.189 64.7377 513.767 Q62.1914 516.346 55.5074 516.346 L36.1557 516.346 L36.1557 520.642 L31.6042 520.642 L31.6042 516.346 L21.4827 516.346 L21.4827 510.457 Z" fill="#000000" fill-rule="nonzero" fill-opacity="1" /><path clip-path="url(#clip800)" d="M32.6545 467.966 L38.1927 467.966 Q36.9196 470.449 36.283 473.122 Q35.6464 475.796 35.6464 478.661 Q35.6464 483.021 36.9832 485.217 Q38.32 487.382 40.9936 487.382 Q43.0306 487.382 44.2083 485.822 Q45.3541 484.262 46.4045 479.552 L46.8501 477.547 Q48.1869 471.308 50.6377 468.698 Q53.0566 466.056 57.4171 466.056 Q62.3824 466.056 65.2788 470.003 Q68.1752 473.918 68.1752 480.793 Q68.1752 483.658 67.6023 486.777 Q67.0612 489.864 65.9472 493.302 L59.8998 493.302 Q61.5867 490.055 62.446 486.904 Q63.2736 483.753 63.2736 480.666 Q63.2736 476.528 61.8731 474.3 Q60.4409 472.072 57.8627 472.072 Q55.4756 472.072 54.2025 473.695 Q52.9293 475.287 51.7517 480.729 L51.2742 482.766 Q50.1284 488.209 47.7731 490.628 Q45.386 493.047 41.2482 493.047 Q36.2193 493.047 33.4821 489.482 Q30.7448 485.917 30.7448 479.361 Q30.7448 476.114 31.2223 473.25 Q31.6997 470.385 32.6545 467.966 Z" fill="#000000" fill-rule="nonzero" fill-opacity="1" /><path clip-path="url(#clip800)" d="M378.342 12.096 L390.535 12.096 L405.969 53.2532 L421.484 12.096 L433.678 12.096 L433.678 72.576 L425.697 72.576 L425.697 19.4686 L410.101 60.9499 L401.878 60.9499 L386.282 19.4686 L386.282 72.576 L378.342 72.576 L378.342 12.096 Z" fill="#000000" fill-rule="nonzero" fill-opacity="1" /><path clip-path="url(#clip800)" d="M467.179 32.4315 Q461.183 32.4315 457.699 37.1306 Q454.216 41.7891 454.216 49.9314 Q454.216 58.0738 457.659 62.7728 Q461.143 67.4314 467.179 67.4314 Q473.133 67.4314 476.617 62.7323 Q480.101 58.0333 480.101 49.9314 Q480.101 41.8701 476.617 37.1711 Q473.133 32.4315 467.179 32.4315 M467.179 26.1121 Q476.901 26.1121 482.45 32.4315 Q488 38.7509 488 49.9314 Q488 61.0714 482.45 67.4314 Q476.901 73.7508 467.179 73.7508 Q457.416 73.7508 451.866 67.4314 Q446.357 61.0714 446.357 49.9314 Q446.357 38.7509 451.866 32.4315 Q457.416 26.1121 467.179 26.1121 Z" fill="#000000" fill-rule="nonzero" fill-opacity="1" /><path clip-path="url(#clip800)" d="M538.069 45.1919 L538.069 72.576 L530.616 72.576 L530.616 45.4349 Q530.616 38.994 528.104 35.7938 Q525.593 32.5936 520.569 32.5936 Q514.534 32.5936 511.05 36.4419 Q507.566 40.2903 507.566 46.9338 L507.566 72.576 L500.072 72.576 L500.072 27.2059 L507.566 27.2059 L507.566 34.2544 Q510.24 30.163 513.845 28.1376 Q517.491 26.1121 522.23 26.1121 Q530.049 26.1121 534.059 30.9732 Q538.069 35.7938 538.069 45.1919 Z" fill="#000000" fill-rule="nonzero" fill-opacity="1" /><path clip-path="url(#clip800)" d="M570.517 32.4315 Q564.522 32.4315 561.038 37.1306 Q557.554 41.7891 557.554 49.9314 Q557.554 58.0738 560.997 62.7728 Q564.481 67.4314 570.517 67.4314 Q576.472 67.4314 579.956 62.7323 Q583.439 58.0333 583.439 49.9314 Q583.439 41.8701 579.956 37.1711 Q576.472 32.4315 570.517 32.4315 M570.517 26.1121 Q580.239 26.1121 585.789 32.4315 Q591.339 38.7509 591.339 49.9314 Q591.339 61.0714 585.789 67.4314 Q580.239 73.7508 570.517 73.7508 Q560.754 73.7508 555.205 67.4314 Q549.695 61.0714 549.695 49.9314 Q549.695 38.7509 555.205 32.4315 Q560.754 26.1121 570.517 26.1121 Z" fill="#000000" fill-rule="nonzero" fill-opacity="1" /><path clip-path="url(#clip800)" d="M642.502 48.0275 L642.502 51.6733 L608.231 51.6733 Q608.717 59.3701 612.849 63.421 Q617.021 67.4314 624.435 67.4314 Q628.729 67.4314 632.739 66.3781 Q636.79 65.3249 640.76 63.2184 L640.76 70.267 Q636.749 71.9684 632.536 72.8596 Q628.324 73.7508 623.989 73.7508 Q613.133 73.7508 606.773 67.4314 Q600.453 61.1119 600.453 50.3365 Q600.453 39.1965 606.449 32.6746 Q612.484 26.1121 622.693 26.1121 Q631.848 26.1121 637.154 32.0264 Q642.502 37.9003 642.502 48.0275 M635.048 45.84 Q634.967 39.7232 631.605 36.0774 Q628.283 32.4315 622.774 32.4315 Q616.535 32.4315 612.768 35.9558 Q609.041 39.4801 608.474 45.8805 L635.048 45.84 Z" fill="#000000" fill-rule="nonzero" fill-opacity="1" /><path clip-path="url(#clip800)" d="M692.449 45.1919 L692.449 72.576 L684.996 72.576 L684.996 45.4349 Q684.996 38.994 682.484 35.7938 Q679.973 32.5936 674.949 32.5936 Q668.914 32.5936 665.43 36.4419 Q661.946 40.2903 661.946 46.9338 L661.946 72.576 L654.452 72.576 L654.452 27.2059 L661.946 27.2059 L661.946 34.2544 Q664.62 30.163 668.225 28.1376 Q671.871 26.1121 676.61 26.1121 Q684.429 26.1121 688.439 30.9732 Q692.449 35.7938 692.449 45.1919 Z" fill="#000000" fill-rule="nonzero" fill-opacity="1" /><path clip-path="url(#clip800)" d="M746.124 48.0275 L746.124 51.6733 L711.853 51.6733 Q712.339 59.3701 716.471 63.421 Q720.644 67.4314 728.057 67.4314 Q732.351 67.4314 736.361 66.3781 Q740.412 65.3249 744.382 63.2184 L744.382 70.267 Q740.372 71.9684 736.159 72.8596 Q731.946 73.7508 727.611 73.7508 Q716.755 73.7508 710.395 67.4314 Q704.075 61.1119 704.075 50.3365 Q704.075 39.1965 710.071 32.6746 Q716.107 26.1121 726.315 26.1121 Q735.47 26.1121 740.777 32.0264 Q746.124 37.9003 746.124 48.0275 M738.67 45.84 Q738.589 39.7232 735.227 36.0774 Q731.905 32.4315 726.396 32.4315 Q720.158 32.4315 716.39 35.9558 Q712.663 39.4801 712.096 45.8805 L738.67 45.84 Z" fill="#000000" fill-rule="nonzero" fill-opacity="1" /><path clip-path="url(#clip800)" d="M784.648 34.1734 Q783.392 33.4443 781.893 33.1202 Q780.435 32.7556 778.653 32.7556 Q772.333 32.7556 768.93 36.8875 Q765.568 40.9789 765.568 48.6757 L765.568 72.576 L758.074 72.576 L758.074 27.2059 L765.568 27.2059 L765.568 34.2544 Q767.918 30.1225 771.685 28.1376 Q775.452 26.1121 780.84 26.1121 Q781.61 26.1121 782.541 26.2337 Q783.473 26.3147 784.607 26.5172 L784.648 34.1734 Z" fill="#000000" fill-rule="nonzero" fill-opacity="1" /><path clip-path="url(#clip800)" d="M820.863 49.3643 Q820.863 41.2625 817.501 36.8065 Q814.179 32.3505 808.143 32.3505 Q802.148 32.3505 798.786 36.8065 Q795.464 41.2625 795.464 49.3643 Q795.464 57.4256 798.786 61.8816 Q802.148 66.3376 808.143 66.3376 Q814.179 66.3376 817.501 61.8816 Q820.863 57.4256 820.863 49.3643 M828.317 66.9452 Q828.317 78.5308 823.172 84.1616 Q818.027 89.8329 807.414 89.8329 Q803.485 89.8329 800.001 89.2252 Q796.517 88.6581 793.236 87.4428 L793.236 80.1917 Q796.517 81.9741 799.717 82.8248 Q802.917 83.6755 806.239 83.6755 Q813.571 83.6755 817.217 79.8271 Q820.863 76.0193 820.863 68.282 L820.863 64.5957 Q818.554 68.6061 814.949 70.5911 Q811.343 72.576 806.32 72.576 Q797.975 72.576 792.871 66.2161 Q787.767 59.8562 787.767 49.3643 Q787.767 38.832 792.871 32.472 Q797.975 26.1121 806.32 26.1121 Q811.343 26.1121 814.949 28.0971 Q818.554 30.082 820.863 34.0924 L820.863 27.2059 L828.317 27.2059 L828.317 66.9452 Z" fill="#000000" fill-rule="nonzero" fill-opacity="1" /><path clip-path="url(#clip800)" d="M882.477 48.0275 L882.477 51.6733 L848.207 51.6733 Q848.693 59.3701 852.825 63.421 Q856.997 67.4314 864.41 67.4314 Q868.704 67.4314 872.715 66.3781 Q876.765 65.3249 880.735 63.2184 L880.735 70.267 Q876.725 71.9684 872.512 72.8596 Q868.299 73.7508 863.965 73.7508 Q853.108 73.7508 846.748 67.4314 Q840.429 61.1119 840.429 50.3365 Q840.429 39.1965 846.424 32.6746 Q852.46 26.1121 862.668 26.1121 Q871.823 26.1121 877.13 32.0264 Q882.477 37.9003 882.477 48.0275 M875.024 45.84 Q874.943 39.7232 871.58 36.0774 Q868.259 32.4315 862.749 32.4315 Q856.511 32.4315 852.744 35.9558 Q849.017 39.4801 848.45 45.8805 L875.024 45.84 Z" fill="#000000" fill-rule="nonzero" fill-opacity="1" /><path clip-path="url(#clip800)" d="M902.084 14.324 L902.084 27.2059 L917.437 27.2059 L917.437 32.9987 L902.084 32.9987 L902.084 57.6282 Q902.084 63.1779 903.582 64.7578 Q905.122 66.3376 909.78 66.3376 L917.437 66.3376 L917.437 72.576 L909.78 72.576 Q901.152 72.576 897.871 69.3758 Q894.589 66.1351 894.589 57.6282 L894.589 32.9987 L889.121 32.9987 L889.121 27.2059 L894.589 27.2059 L894.589 14.324 L902.084 14.324 Z" fill="#000000" fill-rule="nonzero" fill-opacity="1" /><path clip-path="url(#clip800)" d="M927.24 27.2059 L934.693 27.2059 L934.693 72.576 L927.24 72.576 L927.24 27.2059 M927.24 9.54393 L934.693 9.54393 L934.693 18.9825 L927.24 18.9825 L927.24 9.54393 Z" fill="#000000" fill-rule="nonzero" fill-opacity="1" /><path clip-path="url(#clip800)" d="M982.94 28.9478 L982.94 35.9153 Q979.78 34.1734 976.58 33.3227 Q973.42 32.4315 970.179 32.4315 Q962.928 32.4315 958.918 37.0496 Q954.907 41.6271 954.907 49.9314 Q954.907 58.2358 958.918 62.8538 Q962.928 67.4314 970.179 67.4314 Q973.42 67.4314 976.58 66.5807 Q979.78 65.6895 982.94 63.9476 L982.94 70.8341 Q979.82 72.2924 976.458 73.0216 Q973.136 73.7508 969.369 73.7508 Q959.12 73.7508 953.085 67.3098 Q947.049 60.8689 947.049 49.9314 Q947.049 38.832 953.125 32.472 Q959.242 26.1121 969.855 26.1121 Q973.299 26.1121 976.58 26.8413 Q979.861 27.5299 982.94 28.9478 Z" fill="#000000" fill-rule="nonzero" fill-opacity="1" /><path clip-path="url(#clip800)" d="M1022.6 12.096 L1033.62 12.096 L1060.43 62.6918 L1060.43 12.096 L1068.37 12.096 L1068.37 72.576 L1057.35 72.576 L1030.54 21.9802 L1030.54 72.576 L1022.6 72.576 L1022.6 12.096 Z" fill="#000000" fill-rule="nonzero" fill-opacity="1" /><path clip-path="url(#clip800)" d="M1123.14 48.0275 L1123.14 51.6733 L1088.87 51.6733 Q1089.36 59.3701 1093.49 63.421 Q1097.66 67.4314 1105.07 67.4314 Q1109.37 67.4314 1113.38 66.3781 Q1117.43 65.3249 1121.4 63.2184 L1121.4 70.267 Q1117.39 71.9684 1113.18 72.8596 Q1108.96 73.7508 1104.63 73.7508 Q1093.77 73.7508 1087.41 67.4314 Q1081.09 61.1119 1081.09 50.3365 Q1081.09 39.1965 1087.09 32.6746 Q1093.12 26.1121 1103.33 26.1121 Q1112.49 26.1121 1117.79 32.0264 Q1123.14 37.9003 1123.14 48.0275 M1115.69 45.84 Q1115.61 39.7232 1112.24 36.0774 Q1108.92 32.4315 1103.41 32.4315 Q1097.18 32.4315 1093.41 35.9558 Q1089.68 39.4801 1089.11 45.8805 L1115.69 45.84 Z" fill="#000000" fill-rule="nonzero" fill-opacity="1" /><path clip-path="url(#clip800)" d="M1134.61 54.671 L1134.61 27.2059 L1142.06 27.2059 L1142.06 54.3874 Q1142.06 60.8284 1144.57 64.0691 Q1147.08 67.2693 1152.11 67.2693 Q1158.14 67.2693 1161.63 63.421 Q1165.15 59.5726 1165.15 52.9291 L1165.15 27.2059 L1172.6 27.2059 L1172.6 72.576 L1165.15 72.576 L1165.15 65.6084 Q1162.44 69.7404 1158.83 71.7658 Q1155.27 73.7508 1150.53 73.7508 Q1142.71 73.7508 1138.66 68.8897 Q1134.61 64.0286 1134.61 54.671 M1153.36 26.1121 L1153.36 26.1121 Z" fill="#000000" fill-rule="nonzero" fill-opacity="1" /><path clip-path="url(#clip800)" d="M1195.33 14.324 L1195.33 27.2059 L1210.68 27.2059 L1210.68 32.9987 L1195.33 32.9987 L1195.33 57.6282 Q1195.33 63.1779 1196.83 64.7578 Q1198.37 66.3376 1203.03 66.3376 L1210.68 66.3376 L1210.68 72.576 L1203.03 72.576 Q1194.4 72.576 1191.12 69.3758 Q1187.83 66.1351 1187.83 57.6282 L1187.83 32.9987 L1182.37 32.9987 L1182.37 27.2059 L1187.83 27.2059 L1187.83 14.324 L1195.33 14.324 Z" fill="#000000" fill-rule="nonzero" fill-opacity="1" /><path clip-path="url(#clip800)" d="M1246.78 34.1734 Q1245.52 33.4443 1244.02 33.1202 Q1242.56 32.7556 1240.78 32.7556 Q1234.46 32.7556 1231.06 36.8875 Q1227.7 40.9789 1227.7 48.6757 L1227.7 72.576 L1220.2 72.576 L1220.2 27.2059 L1227.7 27.2059 L1227.7 34.2544 Q1230.04 30.1225 1233.81 28.1376 Q1237.58 26.1121 1242.97 26.1121 Q1243.74 26.1121 1244.67 26.2337 Q1245.6 26.3147 1246.73 26.5172 L1246.78 34.1734 Z" fill="#000000" fill-rule="nonzero" fill-opacity="1" /><path clip-path="url(#clip800)" d="M1270.35 32.4315 Q1264.36 32.4315 1260.87 37.1306 Q1257.39 41.7891 1257.39 49.9314 Q1257.39 58.0738 1260.83 62.7728 Q1264.32 67.4314 1270.35 67.4314 Q1276.31 67.4314 1279.79 62.7323 Q1283.27 58.0333 1283.27 49.9314 Q1283.27 41.8701 1279.79 37.1711 Q1276.31 32.4315 1270.35 32.4315 M1270.35 26.1121 Q1280.07 26.1121 1285.62 32.4315 Q1291.17 38.7509 1291.17 49.9314 Q1291.17 61.0714 1285.62 67.4314 Q1280.07 73.7508 1270.35 73.7508 Q1260.59 73.7508 1255.04 67.4314 Q1249.53 61.0714 1249.53 49.9314 Q1249.53 38.7509 1255.04 32.4315 Q1260.59 26.1121 1270.35 26.1121 Z" fill="#000000" fill-rule="nonzero" fill-opacity="1" /><path clip-path="url(#clip800)" d="M1341.24 45.1919 L1341.24 72.576 L1333.79 72.576 L1333.79 45.4349 Q1333.79 38.994 1331.28 35.7938 Q1328.77 32.5936 1323.74 32.5936 Q1317.71 32.5936 1314.22 36.4419 Q1310.74 40.2903 1310.74 46.9338 L1310.74 72.576 L1303.24 72.576 L1303.24 27.2059 L1310.74 27.2059 L1310.74 34.2544 Q1313.41 30.163 1317.02 28.1376 Q1320.66 26.1121 1325.4 26.1121 Q1333.22 26.1121 1337.23 30.9732 Q1341.24 35.7938 1341.24 45.1919 Z" fill="#000000" fill-rule="nonzero" fill-opacity="1" /><path clip-path="url(#clip800)" d="M1419.06 14.0809 L1419.06 22.0612 Q1414.4 19.8332 1410.27 18.7395 Q1406.14 17.6457 1402.29 17.6457 Q1395.61 17.6457 1391.96 20.2383 Q1388.35 22.8309 1388.35 27.611 Q1388.35 31.6214 1390.74 33.6873 Q1393.17 35.7128 1399.9 36.9686 L1404.84 37.9813 Q1414 39.7232 1418.33 44.1387 Q1422.71 48.5136 1422.71 55.8863 Q1422.71 64.6767 1416.79 69.2137 Q1410.92 73.7508 1399.53 73.7508 Q1395.24 73.7508 1390.38 72.7785 Q1385.56 71.8063 1380.37 69.9024 L1380.37 61.4765 Q1385.36 64.2716 1390.14 65.6895 Q1394.92 67.1073 1399.53 67.1073 Q1406.54 67.1073 1410.35 64.3527 Q1414.16 61.598 1414.16 56.4939 Q1414.16 52.0379 1411.4 49.5264 Q1408.69 47.0148 1402.45 45.759 L1397.47 44.7868 Q1388.31 42.9639 1384.22 39.075 Q1380.13 35.1862 1380.13 28.2591 Q1380.13 20.2383 1385.76 15.6203 Q1391.43 11.0023 1401.36 11.0023 Q1405.61 11.0023 1410.03 11.7719 Q1414.44 12.5416 1419.06 14.0809 Z" fill="#000000" fill-rule="nonzero" fill-opacity="1" /><path clip-path="url(#clip800)" d="M1442.35 65.7705 L1442.35 89.8329 L1434.86 89.8329 L1434.86 27.2059 L1442.35 27.2059 L1442.35 34.0924 Q1444.7 30.0415 1448.27 28.0971 Q1451.87 26.1121 1456.85 26.1121 Q1465.12 26.1121 1470.26 32.6746 Q1475.45 39.2371 1475.45 49.9314 Q1475.45 60.6258 1470.26 67.1883 Q1465.12 73.7508 1456.85 73.7508 Q1451.87 73.7508 1448.27 71.8063 Q1444.7 69.8214 1442.35 65.7705 M1467.71 49.9314 Q1467.71 41.7081 1464.31 37.0496 Q1460.95 32.3505 1455.03 32.3505 Q1449.12 32.3505 1445.71 37.0496 Q1442.35 41.7081 1442.35 49.9314 Q1442.35 58.1548 1445.71 62.8538 Q1449.12 67.5124 1455.03 67.5124 Q1460.95 67.5124 1464.31 62.8538 Q1467.71 58.1548 1467.71 49.9314 Z" fill="#000000" fill-rule="nonzero" fill-opacity="1" /><path clip-path="url(#clip800)" d="M1526.61 48.0275 L1526.61 51.6733 L1492.34 51.6733 Q1492.83 59.3701 1496.96 63.421 Q1501.13 67.4314 1508.54 67.4314 Q1512.84 67.4314 1516.85 66.3781 Q1520.9 65.3249 1524.87 63.2184 L1524.87 70.267 Q1520.86 71.9684 1516.65 72.8596 Q1512.43 73.7508 1508.1 73.7508 Q1497.24 73.7508 1490.88 67.4314 Q1484.56 61.1119 1484.56 50.3365 Q1484.56 39.1965 1490.56 32.6746 Q1496.59 26.1121 1506.8 26.1121 Q1515.96 26.1121 1521.26 32.0264 Q1526.61 37.9003 1526.61 48.0275 M1519.16 45.84 Q1519.08 39.7232 1515.71 36.0774 Q1512.39 32.4315 1506.88 32.4315 Q1500.65 32.4315 1496.88 35.9558 Q1493.15 39.4801 1492.58 45.8805 L1519.16 45.84 Z" fill="#000000" fill-rule="nonzero" fill-opacity="1" /><path clip-path="url(#clip800)" d="M1571.5 28.9478 L1571.5 35.9153 Q1568.34 34.1734 1565.14 33.3227 Q1561.98 32.4315 1558.74 32.4315 Q1551.48 32.4315 1547.47 37.0496 Q1543.46 41.6271 1543.46 49.9314 Q1543.46 58.2358 1547.47 62.8538 Q1551.48 67.4314 1558.74 67.4314 Q1561.98 67.4314 1565.14 66.5807 Q1568.34 65.6895 1571.5 63.9476 L1571.5 70.8341 Q1568.38 72.2924 1565.01 73.0216 Q1561.69 73.7508 1557.93 73.7508 Q1547.68 73.7508 1541.64 67.3098 Q1535.6 60.8689 1535.6 49.9314 Q1535.6 38.832 1541.68 32.472 Q1547.8 26.1121 1558.41 26.1121 Q1561.85 26.1121 1565.14 26.8413 Q1568.42 27.5299 1571.5 28.9478 Z" fill="#000000" fill-rule="nonzero" fill-opacity="1" /><path clip-path="url(#clip800)" d="M1591.83 14.324 L1591.83 27.2059 L1607.18 27.2059 L1607.18 32.9987 L1591.83 32.9987 L1591.83 57.6282 Q1591.83 63.1779 1593.33 64.7578 Q1594.87 66.3376 1599.53 66.3376 L1607.18 66.3376 L1607.18 72.576 L1599.53 72.576 Q1590.9 72.576 1587.62 69.3758 Q1584.34 66.1351 1584.34 57.6282 L1584.34 32.9987 L1578.87 32.9987 L1578.87 27.2059 L1584.34 27.2059 L1584.34 14.324 L1591.83 14.324 Z" fill="#000000" fill-rule="nonzero" fill-opacity="1" /><path clip-path="url(#clip800)" d="M1643.28 34.1734 Q1642.02 33.4443 1640.52 33.1202 Q1639.06 32.7556 1637.28 32.7556 Q1630.96 32.7556 1627.56 36.8875 Q1624.2 40.9789 1624.2 48.6757 L1624.2 72.576 L1616.7 72.576 L1616.7 27.2059 L1624.2 27.2059 L1624.2 34.2544 Q1626.55 30.1225 1630.31 28.1376 Q1634.08 26.1121 1639.47 26.1121 Q1640.24 26.1121 1641.17 26.2337 Q1642.1 26.3147 1643.24 26.5172 L1643.28 34.1734 Z" fill="#000000" fill-rule="nonzero" fill-opacity="1" /><path clip-path="url(#clip800)" d="M1650.33 54.671 L1650.33 27.2059 L1657.78 27.2059 L1657.78 54.3874 Q1657.78 60.8284 1660.29 64.0691 Q1662.8 67.2693 1667.83 67.2693 Q1673.86 67.2693 1677.35 63.421 Q1680.87 59.5726 1680.87 52.9291 L1680.87 27.2059 L1688.32 27.2059 L1688.32 72.576 L1680.87 72.576 L1680.87 65.6084 Q1678.16 69.7404 1674.55 71.7658 Q1670.99 73.7508 1666.25 73.7508 Q1658.43 73.7508 1654.38 68.8897 Q1650.33 64.0286 1650.33 54.671 M1669.08 26.1121 L1669.08 26.1121 Z" fill="#000000" fill-rule="nonzero" fill-opacity="1" /><path clip-path="url(#clip800)" d="M1739 35.9153 Q1741.8 30.8922 1745.68 28.5022 Q1749.57 26.1121 1754.84 26.1121 Q1761.93 26.1121 1765.78 31.0947 Q1769.63 36.0368 1769.63 45.1919 L1769.63 72.576 L1762.13 72.576 L1762.13 45.4349 Q1762.13 38.913 1759.82 35.7533 Q1757.51 32.5936 1752.77 32.5936 Q1746.98 32.5936 1743.62 36.4419 Q1740.26 40.2903 1740.26 46.9338 L1740.26 72.576 L1732.76 72.576 L1732.76 45.4349 Q1732.76 38.8725 1730.45 35.7533 Q1728.14 32.5936 1723.32 32.5936 Q1717.61 32.5936 1714.25 36.4824 Q1710.89 40.3308 1710.89 46.9338 L1710.89 72.576 L1703.39 72.576 L1703.39 27.2059 L1710.89 27.2059 L1710.89 34.2544 Q1713.44 30.082 1717 28.0971 Q1720.57 26.1121 1725.47 26.1121 Q1730.41 26.1121 1733.86 28.6237 Q1737.34 31.1352 1739 35.9153 Z" fill="#000000" fill-rule="nonzero" fill-opacity="1" /><polyline clip-path="url(#clip802)" style="stroke:#000000; stroke-linecap:round; stroke-linejoin:round; stroke-width:4; stroke-opacity:1; fill:none" points="244.953,1009.41 244.953,1009.41 260.449,1009.41 260.449,953.537 275.945,953.537 275.945,925.601 291.441,925.601 291.441,953.537 306.937,953.537 322.433,953.537 337.929,953.537 353.425,953.537 353.425,1009.41 368.921,1009.41 384.416,1009.41 384.416,981.472 399.912,981.472 399.912,1009.41 415.408,1009.41 430.904,1009.41 430.904,981.472 446.4,981.472 446.4,953.537 461.896,953.537 461.896,1009.41 477.392,1009.41 477.392,953.537 492.888,953.537 492.888,1009.41 508.384,1009.41 508.384,953.537 523.879,953.537 523.879,1009.41 539.375,1009.41 554.871,1009.41 554.871,981.472 570.367,981.472 570.367,1009.41 585.863,1009.41 585.863,981.472 601.359,981.472 601.359,953.537 616.855,953.537 616.855,897.665 632.351,897.665 632.351,1009.41 647.847,1009.41 647.847,953.537 663.343,953.537 663.343,1009.41 678.838,1009.41 678.838,953.537 694.334,953.537 709.83,953.537 709.83,981.472 725.326,981.472 740.822,981.472 740.822,897.665 756.318,897.665 756.318,981.472 771.814,981.472 771.814,1009.41 787.31,1009.41 787.31,953.537 802.806,953.537 802.806,981.472 818.301,981.472 818.301,1009.41 833.797,1009.41 833.797,897.665 849.293,897.665 849.293,953.537 864.789,953.537 864.789,981.472 880.285,981.472 880.285,897.665 895.781,897.665 895.781,1009.41 911.277,1009.41 911.277,925.601 926.773,925.601 926.773,981.472 942.269,981.472 942.269,897.665 957.765,897.665 957.765,981.472 973.26,981.472 973.26,925.601 988.756,925.601 988.756,953.537 1004.25,953.537 1004.25,925.601 1019.75,925.601 1019.75,981.472 1035.24,981.472 1035.24,953.537 1050.74,953.537 1050.74,925.601 1066.24,925.601 1066.24,1009.41 1081.73,1009.41 1081.73,981.472 1097.23,981.472 1112.72,981.472 1128.22,981.472 1128.22,953.537 1143.72,953.537 1159.21,953.537 1174.71,953.537 1174.71,981.472 1190.2,981.472 1205.7,981.472 1205.7,953.537 1221.19,953.537 1221.19,1009.41 1236.69,1009.41 1236.69,953.537 1252.19,953.537 1252.19,981.472 1267.68,981.472 1267.68,953.537 1283.18,953.537 1283.18,981.472 1298.67,981.472 1314.17,981.472 1314.17,1009.41 1329.67,1009.41 1345.16,1009.41 1360.66,1009.41 1376.15,1009.41 1391.65,1009.41 1407.15,1009.41 1407.15,981.472 1422.64,981.472 1438.14,981.472 1438.14,1009.41 1453.63,1009.41 1453.63,981.472 1469.13,981.472 1469.13,925.601 1484.62,925.601 1484.62,1009.41 1500.12,1009.41 1515.62,1009.41 1515.62,981.472 1531.11,981.472 1531.11,1009.41 1546.61,1009.41 1562.1,1009.41 1577.6,1009.41 1593.1,1009.41 1608.59,1009.41 1624.09,1009.41 1639.58,1009.41 1639.58,981.472 1655.08,981.472 1670.58,981.472 1686.07,981.472 1701.57,981.472 1701.57,1009.41 1717.06,1009.41 1732.56,1009.41 1732.56,981.472 1748.06,981.472 1748.06,953.537 1763.55,953.537 1763.55,506.567 1779.05,506.567 1779.05,143.404 1794.54,143.404 1794.54,199.275 1810.04,199.275 1810.04,422.76 1825.53,422.76 1825.53,981.472 1841.03,981.472 1841.03,1009.41 1856.53,1009.41 1856.53,981.472 1872.02,981.472 1872.02,1009.41 1887.52,1009.41 1903.01,1009.41 "/>
<path clip-path="url(#clip800)" d="M253.796 251.703 L577.999 251.703 L577.999 148.023 L253.796 148.023  Z" fill="#ffffff" fill-rule="evenodd" fill-opacity="1"/>
<polyline clip-path="url(#clip800)" style="stroke:#000000; stroke-linecap:round; stroke-linejoin:round; stroke-width:4; stroke-opacity:1; fill:none" points="253.796,251.703 577.999,251.703 577.999,148.023 253.796,148.023 253.796,251.703 "/>
<polyline clip-path="url(#clip800)" style="stroke:#000000; stroke-linecap:round; stroke-linejoin:round; stroke-width:4; stroke-opacity:1; fill:none" points="273.325,199.863 390.494,199.863 "/>
<path clip-path="url(#clip800)" d="M410.023 182.583 L416.319 182.583 L431.643 211.495 L431.643 182.583 L436.18 182.583 L436.18 217.143 L429.884 217.143 L414.56 188.231 L414.56 217.143 L410.023 217.143 L410.023 182.583 Z" fill="#000000" fill-rule="nonzero" fill-opacity="1" /><path clip-path="url(#clip800)" d="M455.346 194.203 Q451.92 194.203 449.93 196.888 Q447.939 199.55 447.939 204.203 Q447.939 208.856 449.907 211.541 Q451.897 214.203 455.346 214.203 Q458.749 214.203 460.74 211.518 Q462.731 208.833 462.731 204.203 Q462.731 199.597 460.74 196.912 Q458.749 194.203 455.346 194.203 M455.346 190.592 Q460.902 190.592 464.073 194.203 Q467.244 197.814 467.244 204.203 Q467.244 210.569 464.073 214.203 Q460.902 217.814 455.346 217.814 Q449.768 217.814 446.596 214.203 Q443.448 210.569 443.448 204.203 Q443.448 197.814 446.596 194.203 Q449.768 190.592 455.346 190.592 Z" fill="#000000" fill-rule="nonzero" fill-opacity="1" /><path clip-path="url(#clip800)" d="M508.031 192.212 L508.031 196.194 Q506.226 195.199 504.397 194.712 Q502.591 194.203 500.74 194.203 Q496.596 194.203 494.305 196.842 Q492.013 199.458 492.013 204.203 Q492.013 208.949 494.305 211.587 Q496.596 214.203 500.74 214.203 Q502.591 214.203 504.397 213.717 Q506.226 213.208 508.031 212.212 L508.031 216.148 Q506.249 216.981 504.328 217.398 Q502.429 217.814 500.277 217.814 Q494.42 217.814 490.971 214.134 Q487.522 210.453 487.522 204.203 Q487.522 197.861 490.994 194.226 Q494.49 190.592 500.554 190.592 Q502.522 190.592 504.397 191.009 Q506.272 191.402 508.031 192.212 Z" fill="#000000" fill-rule="nonzero" fill-opacity="1" /><path clip-path="url(#clip800)" d="M514.999 206.911 L514.999 191.217 L519.258 191.217 L519.258 206.749 Q519.258 210.43 520.693 212.282 Q522.128 214.111 524.999 214.111 Q528.448 214.111 530.439 211.911 Q532.452 209.712 532.452 205.916 L532.452 191.217 L536.712 191.217 L536.712 217.143 L532.452 217.143 L532.452 213.161 Q530.902 215.523 528.841 216.68 Q526.804 217.814 524.096 217.814 Q519.628 217.814 517.314 215.036 Q514.999 212.259 514.999 206.911 M525.716 190.592 L525.716 190.592 Z" fill="#000000" fill-rule="nonzero" fill-opacity="1" /><path clip-path="url(#clip800)" d="M549.698 183.856 L549.698 191.217 L558.471 191.217 L558.471 194.527 L549.698 194.527 L549.698 208.601 Q549.698 211.773 550.554 212.675 Q551.434 213.578 554.096 213.578 L558.471 213.578 L558.471 217.143 L554.096 217.143 Q549.165 217.143 547.29 215.314 Q545.415 213.462 545.415 208.601 L545.415 194.527 L542.29 194.527 L542.29 191.217 L545.415 191.217 L545.415 183.856 L549.698 183.856 Z" fill="#000000" fill-rule="nonzero" fill-opacity="1" /></svg>
