<?xml version="1.0" encoding="utf-8"?>
<svg xmlns="http://www.w3.org/2000/svg" xmlns:xlink="http://www.w3.org/1999/xlink" width="500" height="300" viewBox="0 0 2000 1200">
<defs>
  <clipPath id="clip590">
    <rect x="0" y="0" width="2000" height="1200"/>
  </clipPath>
</defs>
<path clip-path="url(#clip590)" d="M0 1200 L2000 1200 L2000 0 L0 0  Z" fill="#ffffff" fill-rule="evenodd" fill-opacity="1"/>
<defs>
  <clipPath id="clip591">
    <rect x="400" y="0" width="1401" height="1200"/>
  </clipPath>
</defs>
<path clip-path="url(#clip590)" d="M226.531 1035.39 L1952.76 1035.39 L1952.76 117.424 L226.531 117.424  Z" fill="#ffffff" fill-rule="evenodd" fill-opacity="1"/>
<defs>
  <clipPath id="clip592">
    <rect x="226" y="117" width="1727" height="919"/>
  </clipPath>
</defs>
<polyline clip-path="url(#clip592)" style="stroke:#000000; stroke-linecap:round; stroke-linejoin:round; stroke-width:2; stroke-opacity:0.1; fill:none" points="275.386,1035.39 275.386,117.424 "/>
<polyline clip-path="url(#clip592)" style="stroke:#000000; stroke-linecap:round; stroke-linejoin:round; stroke-width:2; stroke-opacity:0.1; fill:none" points="542.356,1035.39 542.356,117.424 "/>
<polyline clip-path="url(#clip592)" style="stroke:#000000; stroke-linecap:round; stroke-linejoin:round; stroke-width:2; stroke-opacity:0.1; fill:none" points="809.325,1035.39 809.325,117.424 "/>
<polyline clip-path="url(#clip592)" style="stroke:#000000; stroke-linecap:round; stroke-linejoin:round; stroke-width:2; stroke-opacity:0.1; fill:none" points="1076.29,1035.39 1076.29,117.424 "/>
<polyline clip-path="url(#clip592)" style="stroke:#000000; stroke-linecap:round; stroke-linejoin:round; stroke-width:2; stroke-opacity:0.1; fill:none" points="1343.26,1035.39 1343.26,117.424 "/>
<polyline clip-path="url(#clip592)" style="stroke:#000000; stroke-linecap:round; stroke-linejoin:round; stroke-width:2; stroke-opacity:0.1; fill:none" points="1610.23,1035.39 1610.23,117.424 "/>
<polyline clip-path="url(#clip592)" style="stroke:#000000; stroke-linecap:round; stroke-linejoin:round; stroke-width:2; stroke-opacity:0.1; fill:none" points="1877.2,1035.39 1877.2,117.424 "/>
<polyline clip-path="url(#clip592)" style="stroke:#000000; stroke-linecap:round; stroke-linejoin:round; stroke-width:2; stroke-opacity:0.1; fill:none" points="226.531,1009.41 1952.76,1009.41 "/>
<polyline clip-path="url(#clip592)" style="stroke:#000000; stroke-linecap:round; stroke-linejoin:round; stroke-width:2; stroke-opacity:0.1; fill:none" points="226.531,777.856 1952.76,777.856 "/>
<polyline clip-path="url(#clip592)" style="stroke:#000000; stroke-linecap:round; stroke-linejoin:round; stroke-width:2; stroke-opacity:0.1; fill:none" points="226.531,546.304 1952.76,546.304 "/>
<polyline clip-path="url(#clip592)" style="stroke:#000000; stroke-linecap:round; stroke-linejoin:round; stroke-width:2; stroke-opacity:0.1; fill:none" points="226.531,314.753 1952.76,314.753 "/>
<polyline clip-path="url(#clip590)" style="stroke:#000000; stroke-linecap:round; stroke-linejoin:round; stroke-width:4; stroke-opacity:1; fill:none" points="226.531,1035.39 1952.76,1035.39 "/>
<polyline clip-path="url(#clip590)" style="stroke:#000000; stroke-linecap:round; stroke-linejoin:round; stroke-width:4; stroke-opacity:1; fill:none" points="275.386,1035.39 275.386,1016.49 "/>
<polyline clip-path="url(#clip590)" style="stroke:#000000; stroke-linecap:round; stroke-linejoin:round; stroke-width:4; stroke-opacity:1; fill:none" points="542.356,1035.39 542.356,1016.49 "/>
<polyline clip-path="url(#clip590)" style="stroke:#000000; stroke-linecap:round; stroke-linejoin:round; stroke-width:4; stroke-opacity:1; fill:none" points="809.325,1035.39 809.325,1016.49 "/>
<polyline clip-path="url(#clip590)" style="stroke:#000000; stroke-linecap:round; stroke-linejoin:round; stroke-width:4; stroke-opacity:1; fill:none" points="1076.29,1035.39 1076.29,1016.49 "/>
<polyline clip-path="url(#clip590)" style="stroke:#000000; stroke-linecap:round; stroke-linejoin:round; stroke-width:4; stroke-opacity:1; fill:none" points="1343.26,1035.39 1343.26,1016.49 "/>
<polyline clip-path="url(#clip590)" style="stroke:#000000; stroke-linecap:round; stroke-linejoin:round; stroke-width:4; stroke-opacity:1; fill:none" points="1610.23,1035.39 1610.23,1016.49 "/>
<polyline clip-path="url(#clip590)" style="stroke:#000000; stroke-linecap:round; stroke-linejoin:round; stroke-width:4; stroke-opacity:1; fill:none" points="1877.2,1035.39 1877.2,1016.49 "/>
<path clip-path="url(#clip590)" d="M275.386 1063.11 Q271.775 1063.11 269.946 1066.67 Q268.141 1070.21 268.141 1077.34 Q268.141 1084.45 269.946 1088.01 Q271.775 1091.56 275.386 1091.56 Q279.021 1091.56 280.826 1088.01 Q282.655 1084.45 282.655 1077.34 Q282.655 1070.21 280.826 1066.67 Q279.021 1063.11 275.386 1063.11 M275.386 1059.4 Q281.196 1059.4 284.252 1064.01 Q287.331 1068.59 287.331 1077.34 Q287.331 1086.07 284.252 1090.68 Q281.196 1095.26 275.386 1095.26 Q269.576 1095.26 266.497 1090.68 Q263.442 1086.07 263.442 1077.34 Q263.442 1068.59 266.497 1064.01 Q269.576 1059.4 275.386 1059.4 Z" fill="#000000" fill-rule="nonzero" fill-opacity="1" /><path clip-path="url(#clip590)" d="M521.129 1090.65 L537.448 1090.65 L537.448 1094.59 L515.504 1094.59 L515.504 1090.65 Q518.166 1087.9 522.749 1083.27 Q527.356 1078.62 528.536 1077.27 Q530.782 1074.75 531.661 1073.01 Q532.564 1071.25 532.564 1069.56 Q532.564 1066.81 530.62 1065.07 Q528.698 1063.34 525.597 1063.34 Q523.398 1063.34 520.944 1064.1 Q518.513 1064.87 515.736 1066.42 L515.736 1061.69 Q518.56 1060.56 521.013 1059.98 Q523.467 1059.4 525.504 1059.4 Q530.874 1059.4 534.069 1062.09 Q537.263 1064.77 537.263 1069.26 Q537.263 1071.39 536.453 1073.31 Q535.666 1075.21 533.56 1077.81 Q532.981 1078.48 529.879 1081.69 Q526.777 1084.89 521.129 1090.65 Z" fill="#000000" fill-rule="nonzero" fill-opacity="1" /><path clip-path="url(#clip590)" d="M557.263 1063.11 Q553.652 1063.11 551.823 1066.67 Q550.018 1070.21 550.018 1077.34 Q550.018 1084.45 551.823 1088.01 Q553.652 1091.56 557.263 1091.56 Q560.897 1091.56 562.703 1088.01 Q564.532 1084.45 564.532 1077.34 Q564.532 1070.21 562.703 1066.67 Q560.897 1063.11 557.263 1063.11 M557.263 1059.4 Q563.073 1059.4 566.129 1064.01 Q569.208 1068.59 569.208 1077.34 Q569.208 1086.07 566.129 1090.68 Q563.073 1095.26 557.263 1095.26 Q551.453 1095.26 548.374 1090.68 Q545.319 1086.07 545.319 1077.34 Q545.319 1068.59 548.374 1064.01 Q551.453 1059.4 557.263 1059.4 Z" fill="#000000" fill-rule="nonzero" fill-opacity="1" /><path clip-path="url(#clip590)" d="M797.497 1064.1 L785.691 1082.55 L797.497 1082.55 L797.497 1064.1 M796.27 1060.03 L802.149 1060.03 L802.149 1082.55 L807.08 1082.55 L807.08 1086.44 L802.149 1086.44 L802.149 1094.59 L797.497 1094.59 L797.497 1086.44 L781.895 1086.44 L781.895 1081.93 L796.27 1060.03 Z" fill="#000000" fill-rule="nonzero" fill-opacity="1" /><path clip-path="url(#clip590)" d="M824.811 1063.11 Q821.2 1063.11 819.372 1066.67 Q817.566 1070.21 817.566 1077.34 Q817.566 1084.45 819.372 1088.01 Q821.2 1091.56 824.811 1091.56 Q828.446 1091.56 830.251 1088.01 Q832.08 1084.45 832.08 1077.34 Q832.08 1070.21 830.251 1066.67 Q828.446 1063.11 824.811 1063.11 M824.811 1059.4 Q830.622 1059.4 833.677 1064.01 Q836.756 1068.59 836.756 1077.34 Q836.756 1086.07 833.677 1090.68 Q830.622 1095.26 824.811 1095.26 Q819.001 1095.26 815.923 1090.68 Q812.867 1086.07 812.867 1077.34 Q812.867 1068.59 815.923 1064.01 Q819.001 1059.4 824.811 1059.4 Z" fill="#000000" fill-rule="nonzero" fill-opacity="1" /><path clip-path="url(#clip590)" d="M1061.7 1075.44 Q1058.55 1075.44 1056.7 1077.6 Q1054.87 1079.75 1054.87 1083.5 Q1054.87 1087.23 1056.7 1089.4 Q1058.55 1091.56 1061.7 1091.56 Q1064.85 1091.56 1066.68 1089.4 Q1068.53 1087.23 1068.53 1083.5 Q1068.53 1079.75 1066.68 1077.6 Q1064.85 1075.44 1061.7 1075.44 M1070.98 1060.79 L1070.98 1065.05 Q1069.22 1064.22 1067.42 1063.78 Q1065.64 1063.34 1063.88 1063.34 Q1059.25 1063.34 1056.79 1066.46 Q1054.36 1069.59 1054.01 1075.91 Q1055.38 1073.89 1057.44 1072.83 Q1059.5 1071.74 1061.98 1071.74 Q1067.19 1071.74 1070.2 1074.91 Q1073.23 1078.06 1073.23 1083.5 Q1073.23 1088.82 1070.08 1092.04 Q1066.93 1095.26 1061.7 1095.26 Q1055.7 1095.26 1052.53 1090.68 Q1049.36 1086.07 1049.36 1077.34 Q1049.36 1069.15 1053.25 1064.29 Q1057.14 1059.4 1063.69 1059.4 Q1065.45 1059.4 1067.23 1059.75 Q1069.04 1060.1 1070.98 1060.79 Z" fill="#000000" fill-rule="nonzero" fill-opacity="1" /><path clip-path="url(#clip590)" d="M1091.28 1063.11 Q1087.67 1063.11 1085.84 1066.67 Q1084.04 1070.21 1084.04 1077.34 Q1084.04 1084.45 1085.84 1088.01 Q1087.67 1091.56 1091.28 1091.56 Q1094.92 1091.56 1096.72 1088.01 Q1098.55 1084.45 1098.55 1077.34 Q1098.55 1070.21 1096.72 1066.67 Q1094.92 1063.11 1091.28 1063.11 M1091.28 1059.4 Q1097.09 1059.4 1100.15 1064.01 Q1103.23 1068.59 1103.23 1077.34 Q1103.23 1086.07 1100.15 1090.68 Q1097.09 1095.26 1091.28 1095.26 Q1085.47 1095.26 1082.39 1090.68 Q1079.34 1086.07 1079.34 1077.34 Q1079.34 1068.59 1082.39 1064.01 Q1085.47 1059.4 1091.28 1059.4 Z" fill="#000000" fill-rule="nonzero" fill-opacity="1" /><path clip-path="url(#clip590)" d="M1328.14 1078.18 Q1324.8 1078.18 1322.88 1079.96 Q1320.98 1081.74 1320.98 1084.87 Q1320.98 1087.99 1322.88 1089.77 Q1324.8 1091.56 1328.14 1091.56 Q1331.47 1091.56 1333.39 1089.77 Q1335.31 1087.97 1335.31 1084.87 Q1335.31 1081.74 1333.39 1079.96 Q1331.49 1078.18 1328.14 1078.18 M1323.46 1076.19 Q1320.45 1075.44 1318.76 1073.38 Q1317.1 1071.32 1317.1 1068.36 Q1317.1 1064.22 1320.04 1061.81 Q1323 1059.4 1328.14 1059.4 Q1333.3 1059.4 1336.24 1061.81 Q1339.18 1064.22 1339.18 1068.36 Q1339.18 1071.32 1337.49 1073.38 Q1335.82 1075.44 1332.84 1076.19 Q1336.22 1076.97 1338.09 1079.26 Q1339.99 1081.56 1339.99 1084.87 Q1339.99 1089.89 1336.91 1092.57 Q1333.85 1095.26 1328.14 1095.26 Q1322.42 1095.26 1319.34 1092.57 Q1316.29 1089.89 1316.29 1084.87 Q1316.29 1081.56 1318.18 1079.26 Q1320.08 1076.97 1323.46 1076.19 M1321.75 1068.8 Q1321.75 1071.49 1323.42 1072.99 Q1325.1 1074.5 1328.14 1074.5 Q1331.15 1074.5 1332.84 1072.99 Q1334.55 1071.49 1334.55 1068.8 Q1334.55 1066.12 1332.84 1064.61 Q1331.15 1063.11 1328.14 1063.11 Q1325.1 1063.11 1323.42 1064.61 Q1321.75 1066.12 1321.75 1068.8 Z" fill="#000000" fill-rule="nonzero" fill-opacity="1" /><path clip-path="url(#clip590)" d="M1358.3 1063.11 Q1354.69 1063.11 1352.86 1066.67 Q1351.05 1070.21 1351.05 1077.34 Q1351.05 1084.45 1352.86 1088.01 Q1354.69 1091.56 1358.3 1091.56 Q1361.93 1091.56 1363.74 1088.01 Q1365.57 1084.45 1365.57 1077.34 Q1365.57 1070.21 1363.74 1066.67 Q1361.93 1063.11 1358.3 1063.11 M1358.3 1059.4 Q1364.11 1059.4 1367.16 1064.01 Q1370.24 1068.59 1370.24 1077.34 Q1370.24 1086.07 1367.16 1090.68 Q1364.11 1095.26 1358.3 1095.26 Q1352.49 1095.26 1349.41 1090.68 Q1346.35 1086.07 1346.35 1077.34 Q1346.35 1068.59 1349.41 1064.01 Q1352.49 1059.4 1358.3 1059.4 Z" fill="#000000" fill-rule="nonzero" fill-opacity="1" /><path clip-path="url(#clip590)" d="M1569.84 1090.65 L1577.48 1090.65 L1577.48 1064.29 L1569.17 1065.95 L1569.17 1061.69 L1577.43 1060.03 L1582.11 1060.03 L1582.11 1090.65 L1589.75 1090.65 L1589.75 1094.59 L1569.84 1094.59 L1569.84 1090.65 Z" fill="#000000" fill-rule="nonzero" fill-opacity="1" /><path clip-path="url(#clip590)" d="M1609.19 1063.11 Q1605.58 1063.11 1603.75 1066.67 Q1601.95 1070.21 1601.95 1077.34 Q1601.95 1084.45 1603.75 1088.01 Q1605.58 1091.56 1609.19 1091.56 Q1612.83 1091.56 1614.63 1088.01 Q1616.46 1084.45 1616.46 1077.34 Q1616.46 1070.21 1614.63 1066.67 Q1612.83 1063.11 1609.19 1063.11 M1609.19 1059.4 Q1615 1059.4 1618.06 1064.01 Q1621.14 1068.59 1621.14 1077.34 Q1621.14 1086.07 1618.06 1090.68 Q1615 1095.26 1609.19 1095.26 Q1603.38 1095.26 1600.3 1090.68 Q1597.25 1086.07 1597.25 1077.34 Q1597.25 1068.59 1600.3 1064.01 Q1603.38 1059.4 1609.19 1059.4 Z" fill="#000000" fill-rule="nonzero" fill-opacity="1" /><path clip-path="url(#clip590)" d="M1639.35 1063.11 Q1635.74 1063.11 1633.91 1066.67 Q1632.11 1070.21 1632.11 1077.34 Q1632.11 1084.45 1633.91 1088.01 Q1635.74 1091.56 1639.35 1091.56 Q1642.99 1091.56 1644.79 1088.01 Q1646.62 1084.45 1646.62 1077.34 Q1646.62 1070.21 1644.79 1066.67 Q1642.99 1063.11 1639.35 1063.11 M1639.35 1059.4 Q1645.16 1059.4 1648.22 1064.01 Q1651.3 1068.59 1651.3 1077.34 Q1651.3 1086.07 1648.22 1090.68 Q1645.16 1095.26 1639.35 1095.26 Q1633.54 1095.26 1630.47 1090.68 Q1627.41 1086.07 1627.41 1077.34 Q1627.41 1068.59 1630.47 1064.01 Q1633.54 1059.4 1639.35 1059.4 Z" fill="#000000" fill-rule="nonzero" fill-opacity="1" /><path clip-path="url(#clip590)" d="M1836.81 1090.65 L1844.45 1090.65 L1844.45 1064.29 L1836.14 1065.95 L1836.14 1061.69 L1844.4 1060.03 L1849.08 1060.03 L1849.08 1090.65 L1856.72 1090.65 L1856.72 1094.59 L1836.81 1094.59 L1836.81 1090.65 Z" fill="#000000" fill-rule="nonzero" fill-opacity="1" /><path clip-path="url(#clip590)" d="M1870.19 1090.65 L1886.51 1090.65 L1886.51 1094.59 L1864.56 1094.59 L1864.56 1090.65 Q1867.23 1087.9 1871.81 1083.27 Q1876.42 1078.62 1877.6 1077.27 Q1879.84 1074.75 1880.72 1073.01 Q1881.62 1071.25 1881.62 1069.56 Q1881.62 1066.81 1879.68 1065.07 Q1877.76 1063.34 1874.66 1063.34 Q1872.46 1063.34 1870 1064.1 Q1867.57 1064.87 1864.8 1066.42 L1864.8 1061.69 Q1867.62 1060.56 1870.07 1059.98 Q1872.53 1059.4 1874.56 1059.4 Q1879.93 1059.4 1883.13 1062.09 Q1886.32 1064.77 1886.32 1069.26 Q1886.32 1071.39 1885.51 1073.31 Q1884.73 1075.21 1882.62 1077.81 Q1882.04 1078.48 1878.94 1081.69 Q1875.84 1084.89 1870.19 1090.65 Z" fill="#000000" fill-rule="nonzero" fill-opacity="1" /><path clip-path="url(#clip590)" d="M1906.32 1063.11 Q1902.71 1063.11 1900.88 1066.67 Q1899.08 1070.21 1899.08 1077.34 Q1899.08 1084.45 1900.88 1088.01 Q1902.71 1091.56 1906.32 1091.56 Q1909.96 1091.56 1911.76 1088.01 Q1913.59 1084.45 1913.59 1077.34 Q1913.59 1070.21 1911.76 1066.67 Q1909.96 1063.11 1906.32 1063.11 M1906.32 1059.4 Q1912.13 1059.4 1915.19 1064.01 Q1918.27 1068.59 1918.27 1077.34 Q1918.27 1086.07 1915.19 1090.68 Q1912.13 1095.26 1906.32 1095.26 Q1900.51 1095.26 1897.43 1090.68 Q1894.38 1086.07 1894.38 1077.34 Q1894.38 1068.59 1897.43 1064.01 Q1900.51 1059.4 1906.32 1059.4 Z" fill="#000000" fill-rule="nonzero" fill-opacity="1" /><path clip-path="url(#clip590)" d="M875.278 1126.73 L905.324 1126.73 L905.324 1132.14 L881.708 1132.14 L881.708 1146.21 L904.338 1146.21 L904.338 1151.62 L881.708 1151.62 L881.708 1168.84 L905.897 1168.84 L905.897 1174.25 L875.278 1174.25 L875.278 1126.73 Z" fill="#000000" fill-rule="nonzero" fill-opacity="1" /><path clip-path="url(#clip590)" d="M945.842 1152.74 L945.842 1174.25 L939.986 1174.25 L939.986 1152.93 Q939.986 1147.87 938.012 1145.35 Q936.039 1142.84 932.092 1142.84 Q927.35 1142.84 924.612 1145.86 Q921.875 1148.88 921.875 1154.1 L921.875 1174.25 L915.987 1174.25 L915.987 1138.6 L921.875 1138.6 L921.875 1144.14 Q923.976 1140.93 926.809 1139.34 Q929.673 1137.74 933.397 1137.74 Q939.54 1137.74 942.691 1141.56 Q945.842 1145.35 945.842 1152.74 Z" fill="#000000" fill-rule="nonzero" fill-opacity="1" /><path clip-path="url(#clip590)" d="M988.015 1154.96 L988.015 1157.83 L961.088 1157.83 Q961.47 1163.88 964.716 1167.06 Q967.995 1170.21 973.819 1170.21 Q977.193 1170.21 980.344 1169.38 Q983.527 1168.55 986.646 1166.9 L986.646 1172.44 Q983.495 1173.77 980.185 1174.47 Q976.875 1175.17 973.469 1175.17 Q964.939 1175.17 959.942 1170.21 Q954.977 1165.24 954.977 1156.78 Q954.977 1148.03 959.687 1142.9 Q964.43 1137.74 972.451 1137.74 Q979.644 1137.74 983.814 1142.39 Q988.015 1147.01 988.015 1154.96 M982.158 1153.25 Q982.095 1148.44 979.453 1145.57 Q976.843 1142.71 972.514 1142.71 Q967.613 1142.71 964.653 1145.48 Q961.725 1148.25 961.279 1153.28 L982.158 1153.25 Z" fill="#000000" fill-rule="nonzero" fill-opacity="1" /><path clip-path="url(#clip590)" d="M1018.28 1144.08 Q1017.3 1143.51 1016.12 1143.25 Q1014.97 1142.96 1013.57 1142.96 Q1008.61 1142.96 1005.93 1146.21 Q1003.29 1149.43 1003.29 1155.47 L1003.29 1174.25 L997.404 1174.25 L997.404 1138.6 L1003.29 1138.6 L1003.29 1144.14 Q1005.14 1140.9 1008.1 1139.34 Q1011.06 1137.74 1015.29 1137.74 Q1015.9 1137.74 1016.63 1137.84 Q1017.36 1137.9 1018.25 1138.06 L1018.28 1144.08 Z" fill="#000000" fill-rule="nonzero" fill-opacity="1" /><path clip-path="url(#clip590)" d="M1046.74 1156.01 Q1046.74 1149.65 1044.1 1146.15 Q1041.49 1142.65 1036.74 1142.65 Q1032.03 1142.65 1029.39 1146.15 Q1026.78 1149.65 1026.78 1156.01 Q1026.78 1162.35 1029.39 1165.85 Q1032.03 1169.35 1036.74 1169.35 Q1041.49 1169.35 1044.1 1165.85 Q1046.74 1162.35 1046.74 1156.01 M1052.59 1169.83 Q1052.59 1178.93 1048.55 1183.35 Q1044.51 1187.81 1036.17 1187.81 Q1033.08 1187.81 1030.35 1187.33 Q1027.61 1186.89 1025.03 1185.93 L1025.03 1180.24 Q1027.61 1181.64 1030.12 1182.3 Q1032.64 1182.97 1035.25 1182.97 Q1041.01 1182.97 1043.87 1179.95 Q1046.74 1176.96 1046.74 1170.88 L1046.74 1167.98 Q1044.92 1171.13 1042.09 1172.69 Q1039.26 1174.25 1035.31 1174.25 Q1028.76 1174.25 1024.74 1169.25 Q1020.73 1164.26 1020.73 1156.01 Q1020.73 1147.74 1024.74 1142.74 Q1028.76 1137.74 1035.31 1137.74 Q1039.26 1137.74 1042.09 1139.3 Q1044.92 1140.86 1046.74 1144.01 L1046.74 1138.6 L1052.59 1138.6 L1052.59 1169.83 Z" fill="#000000" fill-rule="nonzero" fill-opacity="1" /><path clip-path="url(#clip590)" d="M1079.49 1177.56 Q1077.01 1183.93 1074.65 1185.87 Q1072.3 1187.81 1068.35 1187.81 L1063.67 1187.81 L1063.67 1182.91 L1067.11 1182.91 Q1069.53 1182.91 1070.86 1181.76 Q1072.2 1180.62 1073.82 1176.35 L1074.87 1173.68 L1060.46 1138.6 L1066.66 1138.6 L1077.8 1166.49 L1088.94 1138.6 L1095.15 1138.6 L1079.49 1177.56 Z" fill="#000000" fill-rule="nonzero" fill-opacity="1" /><path clip-path="url(#clip590)" d="M1138.02 1124.79 Q1133.76 1132.11 1131.69 1139.27 Q1129.62 1146.43 1129.62 1153.79 Q1129.62 1161.14 1131.69 1168.36 Q1133.79 1175.56 1138.02 1182.85 L1132.93 1182.85 Q1128.16 1175.37 1125.77 1168.14 Q1123.41 1160.92 1123.41 1153.79 Q1123.41 1146.69 1125.77 1139.5 Q1128.12 1132.3 1132.93 1124.79 L1138.02 1124.79 Z" fill="#000000" fill-rule="nonzero" fill-opacity="1" /><path clip-path="url(#clip590)" d="M1149.64 1126.73 L1159.22 1126.73 L1171.35 1159.07 L1183.54 1126.73 L1193.12 1126.73 L1193.12 1174.25 L1186.85 1174.25 L1186.85 1132.52 L1174.59 1165.12 L1168.13 1165.12 L1155.88 1132.52 L1155.88 1174.25 L1149.64 1174.25 L1149.64 1126.73 Z" fill="#000000" fill-rule="nonzero" fill-opacity="1" /><path clip-path="url(#clip590)" d="M1236.12 1154.96 L1236.12 1157.83 L1209.19 1157.83 Q1209.57 1163.88 1212.82 1167.06 Q1216.1 1170.21 1221.92 1170.21 Q1225.3 1170.21 1228.45 1169.38 Q1231.63 1168.55 1234.75 1166.9 L1234.75 1172.44 Q1231.6 1173.77 1228.29 1174.47 Q1224.98 1175.17 1221.57 1175.17 Q1213.04 1175.17 1208.05 1170.21 Q1203.08 1165.24 1203.08 1156.78 Q1203.08 1148.03 1207.79 1142.9 Q1212.53 1137.74 1220.55 1137.74 Q1227.75 1137.74 1231.92 1142.39 Q1236.12 1147.01 1236.12 1154.96 M1230.26 1153.25 Q1230.2 1148.44 1227.56 1145.57 Q1224.95 1142.71 1220.62 1142.71 Q1215.72 1142.71 1212.76 1145.48 Q1209.83 1148.25 1209.38 1153.28 L1230.26 1153.25 Z" fill="#000000" fill-rule="nonzero" fill-opacity="1" /><path clip-path="url(#clip590)" d="M1258.24 1174.25 L1240.1 1126.73 L1246.81 1126.73 L1261.87 1166.74 L1276.95 1126.73 L1283.64 1126.73 L1265.53 1174.25 L1258.24 1174.25 Z" fill="#000000" fill-rule="nonzero" fill-opacity="1" /><path clip-path="url(#clip590)" d="M1289.4 1124.79 L1294.49 1124.79 Q1299.27 1132.3 1301.62 1139.5 Q1304.01 1146.69 1304.01 1153.79 Q1304.01 1160.92 1301.62 1168.14 Q1299.27 1175.37 1294.49 1182.85 L1289.4 1182.85 Q1293.63 1175.56 1295.7 1168.36 Q1297.8 1161.14 1297.8 1153.79 Q1297.8 1146.43 1295.7 1139.27 Q1293.63 1132.11 1289.4 1124.79 Z" fill="#000000" fill-rule="nonzero" fill-opacity="1" /><polyline clip-path="url(#clip590)" style="stroke:#000000; stroke-linecap:round; stroke-linejoin:round; stroke-width:4; stroke-opacity:1; fill:none" points="226.531,1035.39 226.531,117.424 "/>
<polyline clip-path="url(#clip590)" style="stroke:#000000; stroke-linecap:round; stroke-linejoin:round; stroke-width:4; stroke-opacity:1; fill:none" points="226.531,1009.41 245.428,1009.41 "/>
<polyline clip-path="url(#clip590)" style="stroke:#000000; stroke-linecap:round; stroke-linejoin:round; stroke-width:4; stroke-opacity:1; fill:none" points="226.531,777.856 245.428,777.856 "/>
<polyline clip-path="url(#clip590)" style="stroke:#000000; stroke-linecap:round; stroke-linejoin:round; stroke-width:4; stroke-opacity:1; fill:none" points="226.531,546.304 245.428,546.304 "/>
<polyline clip-path="url(#clip590)" style="stroke:#000000; stroke-linecap:round; stroke-linejoin:round; stroke-width:4; stroke-opacity:1; fill:none" points="226.531,314.753 245.428,314.753 "/>
<path clip-path="url(#clip590)" d="M184.586 995.206 Q180.975 995.206 179.147 998.771 Q177.341 1002.31 177.341 1009.44 Q177.341 1016.55 179.147 1020.11 Q180.975 1023.66 184.586 1023.66 Q188.221 1023.66 190.026 1020.11 Q191.855 1016.55 191.855 1009.44 Q191.855 1002.31 190.026 998.771 Q188.221 995.206 184.586 995.206 M184.586 991.503 Q190.397 991.503 193.452 996.109 Q196.531 1000.69 196.531 1009.44 Q196.531 1018.17 193.452 1022.78 Q190.397 1027.36 184.586 1027.36 Q178.776 1027.36 175.698 1022.78 Q172.642 1018.17 172.642 1009.44 Q172.642 1000.69 175.698 996.109 Q178.776 991.503 184.586 991.503 Z" fill="#000000" fill-rule="nonzero" fill-opacity="1" /><path clip-path="url(#clip590)" d="M118.291 791.201 L134.61 791.201 L134.61 795.136 L112.666 795.136 L112.666 791.201 Q115.328 788.446 119.911 783.817 Q124.517 779.164 125.698 777.821 Q127.943 775.298 128.823 773.562 Q129.726 771.803 129.726 770.113 Q129.726 767.358 127.781 765.622 Q125.86 763.886 122.758 763.886 Q120.559 763.886 118.105 764.65 Q115.675 765.414 112.897 766.965 L112.897 762.243 Q115.721 761.108 118.175 760.53 Q120.628 759.951 122.666 759.951 Q128.036 759.951 131.23 762.636 Q134.425 765.321 134.425 769.812 Q134.425 771.942 133.615 773.863 Q132.827 775.761 130.721 778.354 Q130.142 779.025 127.04 782.243 Q123.939 785.437 118.291 791.201 Z" fill="#000000" fill-rule="nonzero" fill-opacity="1" /><path clip-path="url(#clip590)" d="M154.425 763.655 Q150.814 763.655 148.985 767.219 Q147.179 770.761 147.179 777.891 Q147.179 784.997 148.985 788.562 Q150.814 792.104 154.425 792.104 Q158.059 792.104 159.864 788.562 Q161.693 784.997 161.693 777.891 Q161.693 770.761 159.864 767.219 Q158.059 763.655 154.425 763.655 M154.425 759.951 Q160.235 759.951 163.29 764.557 Q166.369 769.141 166.369 777.891 Q166.369 786.618 163.29 791.224 Q160.235 795.807 154.425 795.807 Q148.614 795.807 145.536 791.224 Q142.48 786.618 142.48 777.891 Q142.48 769.141 145.536 764.557 Q148.614 759.951 154.425 759.951 Z" fill="#000000" fill-rule="nonzero" fill-opacity="1" /><path clip-path="url(#clip590)" d="M184.586 763.655 Q180.975 763.655 179.147 767.219 Q177.341 770.761 177.341 777.891 Q177.341 784.997 179.147 788.562 Q180.975 792.104 184.586 792.104 Q188.221 792.104 190.026 788.562 Q191.855 784.997 191.855 777.891 Q191.855 770.761 190.026 767.219 Q188.221 763.655 184.586 763.655 M184.586 759.951 Q190.397 759.951 193.452 764.557 Q196.531 769.141 196.531 777.891 Q196.531 786.618 193.452 791.224 Q190.397 795.807 184.586 795.807 Q178.776 795.807 175.698 791.224 Q172.642 786.618 172.642 777.891 Q172.642 769.141 175.698 764.557 Q178.776 759.951 184.586 759.951 Z" fill="#000000" fill-rule="nonzero" fill-opacity="1" /><path clip-path="url(#clip590)" d="M127.11 533.098 L115.304 551.547 L127.11 551.547 L127.11 533.098 M125.883 529.024 L131.763 529.024 L131.763 551.547 L136.693 551.547 L136.693 555.436 L131.763 555.436 L131.763 563.584 L127.11 563.584 L127.11 555.436 L111.508 555.436 L111.508 550.922 L125.883 529.024 Z" fill="#000000" fill-rule="nonzero" fill-opacity="1" /><path clip-path="url(#clip590)" d="M154.425 532.103 Q150.814 532.103 148.985 535.668 Q147.179 539.209 147.179 546.339 Q147.179 553.445 148.985 557.01 Q150.814 560.552 154.425 560.552 Q158.059 560.552 159.864 557.01 Q161.693 553.445 161.693 546.339 Q161.693 539.209 159.864 535.668 Q158.059 532.103 154.425 532.103 M154.425 528.399 Q160.235 528.399 163.29 533.006 Q166.369 537.589 166.369 546.339 Q166.369 555.066 163.29 559.672 Q160.235 564.256 154.425 564.256 Q148.614 564.256 145.536 559.672 Q142.48 555.066 142.48 546.339 Q142.48 537.589 145.536 533.006 Q148.614 528.399 154.425 528.399 Z" fill="#000000" fill-rule="nonzero" fill-opacity="1" /><path clip-path="url(#clip590)" d="M184.586 532.103 Q180.975 532.103 179.147 535.668 Q177.341 539.209 177.341 546.339 Q177.341 553.445 179.147 557.01 Q180.975 560.552 184.586 560.552 Q188.221 560.552 190.026 557.01 Q191.855 553.445 191.855 546.339 Q191.855 539.209 190.026 535.668 Q188.221 532.103 184.586 532.103 M184.586 528.399 Q190.397 528.399 193.452 533.006 Q196.531 537.589 196.531 546.339 Q196.531 555.066 193.452 559.672 Q190.397 564.256 184.586 564.256 Q178.776 564.256 175.698 559.672 Q172.642 555.066 172.642 546.339 Q172.642 537.589 175.698 533.006 Q178.776 528.399 184.586 528.399 Z" fill="#000000" fill-rule="nonzero" fill-opacity="1" /><path clip-path="url(#clip590)" d="M124.841 312.889 Q121.693 312.889 119.841 315.042 Q118.013 317.195 118.013 320.945 Q118.013 324.671 119.841 326.847 Q121.693 329 124.841 329 Q127.99 329 129.818 326.847 Q131.67 324.671 131.67 320.945 Q131.67 317.195 129.818 315.042 Q127.99 312.889 124.841 312.889 M134.124 298.236 L134.124 302.496 Q132.365 301.662 130.559 301.222 Q128.777 300.783 127.017 300.783 Q122.388 300.783 119.934 303.908 Q117.503 307.033 117.156 313.352 Q118.522 311.338 120.582 310.273 Q122.642 309.185 125.119 309.185 Q130.328 309.185 133.337 312.357 Q136.369 315.505 136.369 320.945 Q136.369 326.269 133.221 329.486 Q130.073 332.704 124.841 332.704 Q118.846 332.704 115.675 328.121 Q112.504 323.514 112.504 314.787 Q112.504 306.593 116.392 301.732 Q120.281 296.848 126.832 296.848 Q128.591 296.848 130.374 297.195 Q132.179 297.542 134.124 298.236 Z" fill="#000000" fill-rule="nonzero" fill-opacity="1" /><path clip-path="url(#clip590)" d="M154.425 300.551 Q150.814 300.551 148.985 304.116 Q147.179 307.658 147.179 314.787 Q147.179 321.894 148.985 325.458 Q150.814 329 154.425 329 Q158.059 329 159.864 325.458 Q161.693 321.894 161.693 314.787 Q161.693 307.658 159.864 304.116 Q158.059 300.551 154.425 300.551 M154.425 296.848 Q160.235 296.848 163.29 301.454 Q166.369 306.037 166.369 314.787 Q166.369 323.514 163.29 328.121 Q160.235 332.704 154.425 332.704 Q148.614 332.704 145.536 328.121 Q142.48 323.514 142.48 314.787 Q142.48 306.037 145.536 301.454 Q148.614 296.848 154.425 296.848 Z" fill="#000000" fill-rule="nonzero" fill-opacity="1" /><path clip-path="url(#clip590)" d="M184.586 300.551 Q180.975 300.551 179.147 304.116 Q177.341 307.658 177.341 314.787 Q177.341 321.894 179.147 325.458 Q180.975 329 184.586 329 Q188.221 329 190.026 325.458 Q191.855 321.894 191.855 314.787 Q191.855 307.658 190.026 304.116 Q188.221 300.551 184.586 300.551 M184.586 296.848 Q190.397 296.848 193.452 301.454 Q196.531 306.037 196.531 314.787 Q196.531 323.514 193.452 328.121 Q190.397 332.704 184.586 332.704 Q178.776 332.704 175.698 328.121 Q172.642 323.514 172.642 314.787 Q172.642 306.037 175.698 301.454 Q178.776 296.848 184.586 296.848 Z" fill="#000000" fill-rule="nonzero" fill-opacity="1" /><path clip-path="url(#clip590)" d="M23.3924 648.434 L30.1719 648.434 Q27.1482 651.68 25.6523 655.373 Q24.1563 659.033 24.1563 663.171 Q24.1563 671.319 29.1534 675.647 Q34.1187 679.976 43.5399 679.976 Q52.9293 679.976 57.9264 675.647 Q62.8916 671.319 62.8916 663.171 Q62.8916 659.033 61.3957 655.373 Q59.8998 651.68 56.8761 648.434 L63.5919 648.434 Q65.8835 651.808 67.0294 655.595 Q68.1752 659.351 68.1752 663.553 Q68.1752 674.342 61.5867 680.549 Q54.9663 686.756 43.5399 686.756 Q32.0816 686.756 25.4931 680.549 Q18.8728 674.342 18.8728 663.553 Q18.8728 659.287 20.0186 655.532 Q21.1326 651.744 23.3924 648.434 Z" fill="#000000" fill-rule="nonzero" fill-opacity="1" /><path clip-path="url(#clip590)" d="M35.7101 624.944 Q35.7101 629.655 39.4022 632.392 Q43.0625 635.13 49.46 635.13 Q55.8575 635.13 59.5497 632.424 Q63.2099 629.687 63.2099 624.944 Q63.2099 620.266 59.5178 617.528 Q55.8257 614.791 49.46 614.791 Q43.1261 614.791 39.434 617.528 Q35.7101 620.266 35.7101 624.944 M30.7448 624.944 Q30.7448 617.306 35.7101 612.945 Q40.6753 608.585 49.46 608.585 Q58.2129 608.585 63.2099 612.945 Q68.1752 617.306 68.1752 624.944 Q68.1752 632.615 63.2099 636.976 Q58.2129 641.304 49.46 641.304 Q40.6753 641.304 35.7101 636.976 Q30.7448 632.615 30.7448 624.944 Z" fill="#000000" fill-rule="nonzero" fill-opacity="1" /><path clip-path="url(#clip590)" d="M53.1839 599.482 L31.6042 599.482 L31.6042 593.625 L52.9611 593.625 Q58.0219 593.625 60.5682 591.652 Q63.0826 589.678 63.0826 585.732 Q63.0826 580.989 60.0589 578.252 Q57.0352 575.483 51.8153 575.483 L31.6042 575.483 L31.6042 569.627 L67.2522 569.627 L67.2522 575.483 L61.7776 575.483 Q65.0242 577.615 66.6156 580.448 Q68.1752 583.249 68.1752 586.973 Q68.1752 593.116 64.3558 596.299 Q60.5363 599.482 53.1839 599.482 M30.7448 584.745 L30.7448 584.745 Z" fill="#000000" fill-rule="nonzero" fill-opacity="1" /><path clip-path="url(#clip590)" d="M45.7361 527.931 L67.2522 527.931 L67.2522 533.788 L45.927 533.788 Q40.8663 533.788 38.3518 535.761 Q35.8374 537.734 35.8374 541.681 Q35.8374 546.424 38.8611 549.161 Q41.8848 551.898 47.1047 551.898 L67.2522 551.898 L67.2522 557.786 L31.6042 557.786 L31.6042 551.898 L37.1424 551.898 Q33.9277 549.797 32.3363 546.965 Q30.7448 544.1 30.7448 540.376 Q30.7448 534.233 34.5643 531.082 Q38.3518 527.931 45.7361 527.931 Z" fill="#000000" fill-rule="nonzero" fill-opacity="1" /><path clip-path="url(#clip590)" d="M21.4827 510.457 L31.6042 510.457 L31.6042 498.394 L36.1557 498.394 L36.1557 510.457 L55.5074 510.457 Q59.8679 510.457 61.1093 509.28 Q62.3506 508.07 62.3506 504.41 L62.3506 498.394 L67.2522 498.394 L67.2522 504.41 Q67.2522 511.189 64.7377 513.767 Q62.1914 516.346 55.5074 516.346 L36.1557 516.346 L36.1557 520.642 L31.6042 520.642 L31.6042 516.346 L21.4827 516.346 L21.4827 510.457 Z" fill="#000000" fill-rule="nonzero" fill-opacity="1" /><path clip-path="url(#clip590)" d="M32.6545 467.966 L38.1927 467.966 Q36.9196 470.449 36.283 473.122 Q35.6464 475.796 35.6464 478.661 Q35.6464 483.021 36.9832 485.217 Q38.32 487.382 40.9936 487.382 Q43.0306 487.382 44.2083 485.822 Q45.3541 484.262 46.4045 479.552 L46.8501 477.547 Q48.1869 471.308 50.6377 468.698 Q53.0566 466.056 57.4171 466.056 Q62.3824 466.056 65.2788 470.003 Q68.1752 473.918 68.1752 480.793 Q68.1752 483.658 67.6023 486.777 Q67.0612 489.864 65.9472 493.302 L59.8998 493.302 Q61.5867 490.055 62.446 486.904 Q63.2736 483.753 63.2736 480.666 Q63.2736 476.528 61.8731 474.3 Q60.4409 472.072 57.8627 472.072 Q55.4756 472.072 54.2025 473.695 Q52.9293 475.287 51.7517 480.729 L51.2742 482.766 Q50.1284 488.209 47.7731 490.628 Q45.386 493.047 41.2482 493.047 Q36.2193 493.047 33.4821 489.482 Q30.7448 485.917 30.7448 479.361 Q30.7448 476.114 31.2223 473.25 Q31.6997 470.385 32.6545 467.966 Z" fill="#000000" fill-rule="nonzero" fill-opacity="1" /><path clip-path="url(#clip590)" d="M394.002 12.096 L406.195 12.096 L421.629 53.2532 L437.144 12.096 L449.337 12.096 L449.337 72.576 L441.357 72.576 L441.357 19.4686 L425.761 60.9499 L417.538 60.9499 L401.942 19.4686 L401.942 72.576 L394.002 72.576 L394.002 12.096 Z" fill="#000000" fill-rule="nonzero" fill-opacity="1" /><path clip-path="url(#clip590)" d="M482.838 32.4315 Q476.843 32.4315 473.359 37.1306 Q469.875 41.7891 469.875 49.9314 Q469.875 58.0738 473.319 62.7728 Q476.802 67.4314 482.838 67.4314 Q488.793 67.4314 492.277 62.7323 Q495.761 58.0333 495.761 49.9314 Q495.761 41.8701 492.277 37.1711 Q488.793 32.4315 482.838 32.4315 M482.838 26.1121 Q492.56 26.1121 498.11 32.4315 Q503.66 38.7509 503.66 49.9314 Q503.66 61.0714 498.11 67.4314 Q492.56 73.7508 482.838 73.7508 Q473.076 73.7508 467.526 67.4314 Q462.017 61.0714 462.017 49.9314 Q462.017 38.7509 467.526 32.4315 Q473.076 26.1121 482.838 26.1121 Z" fill="#000000" fill-rule="nonzero" fill-opacity="1" /><path clip-path="url(#clip590)" d="M553.729 45.1919 L553.729 72.576 L546.275 72.576 L546.275 45.4349 Q546.275 38.994 543.764 35.7938 Q541.252 32.5936 536.229 32.5936 Q530.193 32.5936 526.709 36.4419 Q523.226 40.2903 523.226 46.9338 L523.226 72.576 L515.732 72.576 L515.732 27.2059 L523.226 27.2059 L523.226 34.2544 Q525.899 30.163 529.505 28.1376 Q533.15 26.1121 537.89 26.1121 Q545.708 26.1121 549.719 30.9732 Q553.729 35.7938 553.729 45.1919 Z" fill="#000000" fill-rule="nonzero" fill-opacity="1" /><path clip-path="url(#clip590)" d="M586.177 32.4315 Q580.181 32.4315 576.698 37.1306 Q573.214 41.7891 573.214 49.9314 Q573.214 58.0738 576.657 62.7728 Q580.141 67.4314 586.177 67.4314 Q592.132 67.4314 595.615 62.7323 Q599.099 58.0333 599.099 49.9314 Q599.099 41.8701 595.615 37.1711 Q592.132 32.4315 586.177 32.4315 M586.177 26.1121 Q595.899 26.1121 601.449 32.4315 Q606.998 38.7509 606.998 49.9314 Q606.998 61.0714 601.449 67.4314 Q595.899 73.7508 586.177 73.7508 Q576.414 73.7508 570.864 67.4314 Q565.355 61.0714 565.355 49.9314 Q565.355 38.7509 570.864 32.4315 Q576.414 26.1121 586.177 26.1121 Z" fill="#000000" fill-rule="nonzero" fill-opacity="1" /><path clip-path="url(#clip590)" d="M658.161 48.0275 L658.161 51.6733 L623.891 51.6733 Q624.377 59.3701 628.509 63.421 Q632.681 67.4314 640.094 67.4314 Q644.388 67.4314 648.399 66.3781 Q652.45 65.3249 656.419 63.2184 L656.419 70.267 Q652.409 71.9684 648.196 72.8596 Q643.983 73.7508 639.649 73.7508 Q628.792 73.7508 622.432 67.4314 Q616.113 61.1119 616.113 50.3365 Q616.113 39.1965 622.108 32.6746 Q628.144 26.1121 638.352 26.1121 Q647.507 26.1121 652.814 32.0264 Q658.161 37.9003 658.161 48.0275 M650.708 45.84 Q650.627 39.7232 647.264 36.0774 Q643.943 32.4315 638.433 32.4315 Q632.195 32.4315 628.428 35.9558 Q624.701 39.4801 624.134 45.8805 L650.708 45.84 Z" fill="#000000" fill-rule="nonzero" fill-opacity="1" /><path clip-path="url(#clip590)" d="M708.109 45.1919 L708.109 72.576 L700.655 72.576 L700.655 45.4349 Q700.655 38.994 698.144 35.7938 Q695.632 32.5936 690.609 32.5936 Q684.573 32.5936 681.089 36.4419 Q677.606 40.2903 677.606 46.9338 L677.606 72.576 L670.111 72.576 L670.111 27.2059 L677.606 27.2059 L677.606 34.2544 Q680.279 30.163 683.885 28.1376 Q687.53 26.1121 692.27 26.1121 Q700.088 26.1121 704.099 30.9732 Q708.109 35.7938 708.109 45.1919 Z" fill="#000000" fill-rule="nonzero" fill-opacity="1" /><path clip-path="url(#clip590)" d="M761.783 48.0275 L761.783 51.6733 L727.513 51.6733 Q727.999 59.3701 732.131 63.421 Q736.303 67.4314 743.716 67.4314 Q748.01 67.4314 752.021 66.3781 Q756.072 65.3249 760.042 63.2184 L760.042 70.267 Q756.031 71.9684 751.818 72.8596 Q747.605 73.7508 743.271 73.7508 Q732.414 73.7508 726.054 67.4314 Q719.735 61.1119 719.735 50.3365 Q719.735 39.1965 725.73 32.6746 Q731.766 26.1121 741.975 26.1121 Q751.13 26.1121 756.436 32.0264 Q761.783 37.9003 761.783 48.0275 M754.33 45.84 Q754.249 39.7232 750.887 36.0774 Q747.565 32.4315 742.056 32.4315 Q735.817 32.4315 732.05 35.9558 Q728.323 39.4801 727.756 45.8805 L754.33 45.84 Z" fill="#000000" fill-rule="nonzero" fill-opacity="1" /><path clip-path="url(#clip590)" d="M800.308 34.1734 Q799.052 33.4443 797.553 33.1202 Q796.095 32.7556 794.312 32.7556 Q787.993 32.7556 784.59 36.8875 Q781.228 40.9789 781.228 48.6757 L781.228 72.576 L773.734 72.576 L773.734 27.2059 L781.228 27.2059 L781.228 34.2544 Q783.577 30.1225 787.345 28.1376 Q791.112 26.1121 796.5 26.1121 Q797.269 26.1121 798.201 26.2337 Q799.133 26.3147 800.267 26.5172 L800.308 34.1734 Z" fill="#000000" fill-rule="nonzero" fill-opacity="1" /><path clip-path="url(#clip590)" d="M836.523 49.3643 Q836.523 41.2625 833.16 36.8065 Q829.839 32.3505 823.803 32.3505 Q817.807 32.3505 814.445 36.8065 Q811.123 41.2625 811.123 49.3643 Q811.123 57.4256 814.445 61.8816 Q817.807 66.3376 823.803 66.3376 Q829.839 66.3376 833.16 61.8816 Q836.523 57.4256 836.523 49.3643 M843.976 66.9452 Q843.976 78.5308 838.832 84.1616 Q833.687 89.8329 823.074 89.8329 Q819.144 89.8329 815.66 89.2252 Q812.177 88.6581 808.895 87.4428 L808.895 80.1917 Q812.177 81.9741 815.377 82.8248 Q818.577 83.6755 821.899 83.6755 Q829.231 83.6755 832.877 79.8271 Q836.523 76.0193 836.523 68.282 L836.523 64.5957 Q834.214 68.6061 830.608 70.5911 Q827.003 72.576 821.98 72.576 Q813.635 72.576 808.531 66.2161 Q803.427 59.8562 803.427 49.3643 Q803.427 38.832 808.531 32.472 Q813.635 26.1121 821.98 26.1121 Q827.003 26.1121 830.608 28.0971 Q834.214 30.082 836.523 34.0924 L836.523 27.2059 L843.976 27.2059 L843.976 66.9452 Z" fill="#000000" fill-rule="nonzero" fill-opacity="1" /><path clip-path="url(#clip590)" d="M898.137 48.0275 L898.137 51.6733 L863.866 51.6733 Q864.352 59.3701 868.484 63.421 Q872.657 67.4314 880.07 67.4314 Q884.364 67.4314 888.374 66.3781 Q892.425 65.3249 896.395 63.2184 L896.395 70.267 Q892.385 71.9684 888.172 72.8596 Q883.959 73.7508 879.624 73.7508 Q868.768 73.7508 862.408 67.4314 Q856.088 61.1119 856.088 50.3365 Q856.088 39.1965 862.084 32.6746 Q868.12 26.1121 878.328 26.1121 Q887.483 26.1121 892.79 32.0264 Q898.137 37.9003 898.137 48.0275 M890.683 45.84 Q890.602 39.7232 887.24 36.0774 Q883.918 32.4315 878.409 32.4315 Q872.171 32.4315 868.403 35.9558 Q864.676 39.4801 864.109 45.8805 L890.683 45.84 Z" fill="#000000" fill-rule="nonzero" fill-opacity="1" /><path clip-path="url(#clip590)" d="M917.743 14.324 L917.743 27.2059 L933.096 27.2059 L933.096 32.9987 L917.743 32.9987 L917.743 57.6282 Q917.743 63.1779 919.242 64.7578 Q920.781 66.3376 925.44 66.3376 L933.096 66.3376 L933.096 72.576 L925.44 72.576 Q916.812 72.576 913.53 69.3758 Q910.249 66.1351 910.249 57.6282 L910.249 32.9987 L904.78 32.9987 L904.78 27.2059 L910.249 27.2059 L910.249 14.324 L917.743 14.324 Z" fill="#000000" fill-rule="nonzero" fill-opacity="1" /><path clip-path="url(#clip590)" d="M942.899 27.2059 L950.353 27.2059 L950.353 72.576 L942.899 72.576 L942.899 27.2059 M942.899 9.54393 L950.353 9.54393 L950.353 18.9825 L942.899 18.9825 L942.899 9.54393 Z" fill="#000000" fill-rule="nonzero" fill-opacity="1" /><path clip-path="url(#clip590)" d="M998.599 28.9478 L998.599 35.9153 Q995.44 34.1734 992.239 33.3227 Q989.08 32.4315 985.839 32.4315 Q978.588 32.4315 974.577 37.0496 Q970.567 41.6271 970.567 49.9314 Q970.567 58.2358 974.577 62.8538 Q978.588 67.4314 985.839 67.4314 Q989.08 67.4314 992.239 66.5807 Q995.44 65.6895 998.599 63.9476 L998.599 70.8341 Q995.48 72.2924 992.118 73.0216 Q988.796 73.7508 985.029 73.7508 Q974.78 73.7508 968.744 67.3098 Q962.708 60.8689 962.708 49.9314 Q962.708 38.832 968.785 32.472 Q974.902 26.1121 985.515 26.1121 Q988.958 26.1121 992.239 26.8413 Q995.521 27.5299 998.599 28.9478 Z" fill="#000000" fill-rule="nonzero" fill-opacity="1" /><path clip-path="url(#clip590)" d="M1038.26 12.096 L1049.28 12.096 L1076.09 62.6918 L1076.09 12.096 L1084.03 12.096 L1084.03 72.576 L1073.01 72.576 L1046.2 21.9802 L1046.2 72.576 L1038.26 72.576 L1038.26 12.096 Z" fill="#000000" fill-rule="nonzero" fill-opacity="1" /><path clip-path="url(#clip590)" d="M1138.8 48.0275 L1138.8 51.6733 L1104.53 51.6733 Q1105.02 59.3701 1109.15 63.421 Q1113.32 67.4314 1120.73 67.4314 Q1125.03 67.4314 1129.04 66.3781 Q1133.09 65.3249 1137.06 63.2184 L1137.06 70.267 Q1133.05 71.9684 1128.84 72.8596 Q1124.62 73.7508 1120.29 73.7508 Q1109.43 73.7508 1103.07 67.4314 Q1096.75 61.1119 1096.75 50.3365 Q1096.75 39.1965 1102.75 32.6746 Q1108.78 26.1121 1118.99 26.1121 Q1128.15 26.1121 1133.45 32.0264 Q1138.8 37.9003 1138.8 48.0275 M1131.35 45.84 Q1131.27 39.7232 1127.9 36.0774 Q1124.58 32.4315 1119.07 32.4315 Q1112.83 32.4315 1109.07 35.9558 Q1105.34 39.4801 1104.77 45.8805 L1131.35 45.84 Z" fill="#000000" fill-rule="nonzero" fill-opacity="1" /><path clip-path="url(#clip590)" d="M1150.27 54.671 L1150.27 27.2059 L1157.72 27.2059 L1157.72 54.3874 Q1157.72 60.8284 1160.23 64.0691 Q1162.74 67.2693 1167.77 67.2693 Q1173.8 67.2693 1177.28 63.421 Q1180.81 59.5726 1180.81 52.9291 L1180.81 27.2059 L1188.26 27.2059 L1188.26 72.576 L1180.81 72.576 L1180.81 65.6084 Q1178.09 69.7404 1174.49 71.7658 Q1170.92 73.7508 1166.19 73.7508 Q1158.37 73.7508 1154.32 68.8897 Q1150.27 64.0286 1150.27 54.671 M1169.02 26.1121 L1169.02 26.1121 Z" fill="#000000" fill-rule="nonzero" fill-opacity="1" /><path clip-path="url(#clip590)" d="M1210.99 14.324 L1210.99 27.2059 L1226.34 27.2059 L1226.34 32.9987 L1210.99 32.9987 L1210.99 57.6282 Q1210.99 63.1779 1212.49 64.7578 Q1214.03 66.3376 1218.68 66.3376 L1226.34 66.3376 L1226.34 72.576 L1218.68 72.576 Q1210.06 72.576 1206.78 69.3758 Q1203.49 66.1351 1203.49 57.6282 L1203.49 32.9987 L1198.03 32.9987 L1198.03 27.2059 L1203.49 27.2059 L1203.49 14.324 L1210.99 14.324 Z" fill="#000000" fill-rule="nonzero" fill-opacity="1" /><path clip-path="url(#clip590)" d="M1262.43 34.1734 Q1261.18 33.4443 1259.68 33.1202 Q1258.22 32.7556 1256.44 32.7556 Q1250.12 32.7556 1246.72 36.8875 Q1243.35 40.9789 1243.35 48.6757 L1243.35 72.576 L1235.86 72.576 L1235.86 27.2059 L1243.35 27.2059 L1243.35 34.2544 Q1245.7 30.1225 1249.47 28.1376 Q1253.24 26.1121 1258.63 26.1121 Q1259.4 26.1121 1260.33 26.2337 Q1261.26 26.3147 1262.39 26.5172 L1262.43 34.1734 Z" fill="#000000" fill-rule="nonzero" fill-opacity="1" /><path clip-path="url(#clip590)" d="M1286.01 32.4315 Q1280.02 32.4315 1276.53 37.1306 Q1273.05 41.7891 1273.05 49.9314 Q1273.05 58.0738 1276.49 62.7728 Q1279.98 67.4314 1286.01 67.4314 Q1291.97 67.4314 1295.45 62.7323 Q1298.93 58.0333 1298.93 49.9314 Q1298.93 41.8701 1295.45 37.1711 Q1291.97 32.4315 1286.01 32.4315 M1286.01 26.1121 Q1295.73 26.1121 1301.28 32.4315 Q1306.83 38.7509 1306.83 49.9314 Q1306.83 61.0714 1301.28 67.4314 Q1295.73 73.7508 1286.01 73.7508 Q1276.25 73.7508 1270.7 67.4314 Q1265.19 61.0714 1265.19 49.9314 Q1265.19 38.7509 1270.7 32.4315 Q1276.25 26.1121 1286.01 26.1121 Z" fill="#000000" fill-rule="nonzero" fill-opacity="1" /><path clip-path="url(#clip590)" d="M1356.9 45.1919 L1356.9 72.576 L1349.45 72.576 L1349.45 45.4349 Q1349.45 38.994 1346.94 35.7938 Q1344.42 32.5936 1339.4 32.5936 Q1333.37 32.5936 1329.88 36.4419 Q1326.4 40.2903 1326.4 46.9338 L1326.4 72.576 L1318.9 72.576 L1318.9 27.2059 L1326.4 27.2059 L1326.4 34.2544 Q1329.07 30.163 1332.68 28.1376 Q1336.32 26.1121 1341.06 26.1121 Q1348.88 26.1121 1352.89 30.9732 Q1356.9 35.7938 1356.9 45.1919 Z" fill="#000000" fill-rule="nonzero" fill-opacity="1" /><path clip-path="url(#clip590)" d="M1434.72 14.0809 L1434.72 22.0612 Q1430.06 19.8332 1425.93 18.7395 Q1421.8 17.6457 1417.95 17.6457 Q1411.26 17.6457 1407.62 20.2383 Q1404.01 22.8309 1404.01 27.611 Q1404.01 31.6214 1406.4 33.6873 Q1408.83 35.7128 1415.56 36.9686 L1420.5 37.9813 Q1429.66 39.7232 1433.99 44.1387 Q1438.37 48.5136 1438.37 55.8863 Q1438.37 64.6767 1432.45 69.2137 Q1426.58 73.7508 1415.19 73.7508 Q1410.9 73.7508 1406.04 72.7785 Q1401.22 71.8063 1396.03 69.9024 L1396.03 61.4765 Q1401.02 64.2716 1405.8 65.6895 Q1410.58 67.1073 1415.19 67.1073 Q1422.2 67.1073 1426.01 64.3527 Q1429.82 61.598 1429.82 56.4939 Q1429.82 52.0379 1427.06 49.5264 Q1424.35 47.0148 1418.11 45.759 L1413.13 44.7868 Q1403.97 42.9639 1399.88 39.075 Q1395.79 35.1862 1395.79 28.2591 Q1395.79 20.2383 1401.42 15.6203 Q1407.09 11.0023 1417.02 11.0023 Q1421.27 11.0023 1425.69 11.7719 Q1430.1 12.5416 1434.72 14.0809 Z" fill="#000000" fill-rule="nonzero" fill-opacity="1" /><path clip-path="url(#clip590)" d="M1458.01 65.7705 L1458.01 89.8329 L1450.52 89.8329 L1450.52 27.2059 L1458.01 27.2059 L1458.01 34.0924 Q1460.36 30.0415 1463.93 28.0971 Q1467.53 26.1121 1472.51 26.1121 Q1480.78 26.1121 1485.92 32.6746 Q1491.11 39.2371 1491.11 49.9314 Q1491.11 60.6258 1485.92 67.1883 Q1480.78 73.7508 1472.51 73.7508 Q1467.53 73.7508 1463.93 71.8063 Q1460.36 69.8214 1458.01 65.7705 M1483.37 49.9314 Q1483.37 41.7081 1479.97 37.0496 Q1476.61 32.3505 1470.69 32.3505 Q1464.78 32.3505 1461.37 37.0496 Q1458.01 41.7081 1458.01 49.9314 Q1458.01 58.1548 1461.37 62.8538 Q1464.78 67.5124 1470.69 67.5124 Q1476.61 67.5124 1479.97 62.8538 Q1483.37 58.1548 1483.37 49.9314 Z" fill="#000000" fill-rule="nonzero" fill-opacity="1" /><path clip-path="url(#clip590)" d="M1542.27 48.0275 L1542.27 51.6733 L1508 51.6733 Q1508.49 59.3701 1512.62 63.421 Q1516.79 67.4314 1524.2 67.4314 Q1528.5 67.4314 1532.51 66.3781 Q1536.56 65.3249 1540.53 63.2184 L1540.53 70.267 Q1536.52 71.9684 1532.31 72.8596 Q1528.09 73.7508 1523.76 73.7508 Q1512.9 73.7508 1506.54 67.4314 Q1500.22 61.1119 1500.22 50.3365 Q1500.22 39.1965 1506.22 32.6746 Q1512.25 26.1121 1522.46 26.1121 Q1531.62 26.1121 1536.92 32.0264 Q1542.27 37.9003 1542.27 48.0275 M1534.82 45.84 Q1534.74 39.7232 1531.37 36.0774 Q1528.05 32.4315 1522.54 32.4315 Q1516.3 32.4315 1512.54 35.9558 Q1508.81 39.4801 1508.24 45.8805 L1534.82 45.84 Z" fill="#000000" fill-rule="nonzero" fill-opacity="1" /><path clip-path="url(#clip590)" d="M1587.16 28.9478 L1587.16 35.9153 Q1584 34.1734 1580.8 33.3227 Q1577.64 32.4315 1574.39 32.4315 Q1567.14 32.4315 1563.13 37.0496 Q1559.12 41.6271 1559.12 49.9314 Q1559.12 58.2358 1563.13 62.8538 Q1567.14 67.4314 1574.39 67.4314 Q1577.64 67.4314 1580.8 66.5807 Q1584 65.6895 1587.16 63.9476 L1587.16 70.8341 Q1584.04 72.2924 1580.67 73.0216 Q1577.35 73.7508 1573.58 73.7508 Q1563.34 73.7508 1557.3 67.3098 Q1551.26 60.8689 1551.26 49.9314 Q1551.26 38.832 1557.34 32.472 Q1563.46 26.1121 1574.07 26.1121 Q1577.51 26.1121 1580.8 26.8413 Q1584.08 27.5299 1587.16 28.9478 Z" fill="#000000" fill-rule="nonzero" fill-opacity="1" /><path clip-path="url(#clip590)" d="M1607.49 14.324 L1607.49 27.2059 L1622.84 27.2059 L1622.84 32.9987 L1607.49 32.9987 L1607.49 57.6282 Q1607.49 63.1779 1608.99 64.7578 Q1610.53 66.3376 1615.19 66.3376 L1622.84 66.3376 L1622.84 72.576 L1615.19 72.576 Q1606.56 72.576 1603.28 69.3758 Q1600 66.1351 1600 57.6282 L1600 32.9987 L1594.53 32.9987 L1594.53 27.2059 L1600 27.2059 L1600 14.324 L1607.49 14.324 Z" fill="#000000" fill-rule="nonzero" fill-opacity="1" /><path clip-path="url(#clip590)" d="M1658.94 34.1734 Q1657.68 33.4443 1656.18 33.1202 Q1654.72 32.7556 1652.94 32.7556 Q1646.62 32.7556 1643.22 36.8875 Q1639.86 40.9789 1639.86 48.6757 L1639.86 72.576 L1632.36 72.576 L1632.36 27.2059 L1639.86 27.2059 L1639.86 34.2544 Q1642.21 30.1225 1645.97 28.1376 Q1649.74 26.1121 1655.13 26.1121 Q1655.9 26.1121 1656.83 26.2337 Q1657.76 26.3147 1658.9 26.5172 L1658.94 34.1734 Z" fill="#000000" fill-rule="nonzero" fill-opacity="1" /><path clip-path="url(#clip590)" d="M1665.99 54.671 L1665.99 27.2059 L1673.44 27.2059 L1673.44 54.3874 Q1673.44 60.8284 1675.95 64.0691 Q1678.46 67.2693 1683.49 67.2693 Q1689.52 67.2693 1693.01 63.421 Q1696.53 59.5726 1696.53 52.9291 L1696.53 27.2059 L1703.98 27.2059 L1703.98 72.576 L1696.53 72.576 L1696.53 65.6084 Q1693.82 69.7404 1690.21 71.7658 Q1686.65 73.7508 1681.91 73.7508 Q1674.09 73.7508 1670.04 68.8897 Q1665.99 64.0286 1665.99 54.671 M1684.74 26.1121 L1684.74 26.1121 Z" fill="#000000" fill-rule="nonzero" fill-opacity="1" /><path clip-path="url(#clip590)" d="M1754.66 35.9153 Q1757.46 30.8922 1761.34 28.5022 Q1765.23 26.1121 1770.5 26.1121 Q1777.59 26.1121 1781.44 31.0947 Q1785.28 36.0368 1785.28 45.1919 L1785.28 72.576 L1777.79 72.576 L1777.79 45.4349 Q1777.79 38.913 1775.48 35.7533 Q1773.17 32.5936 1768.43 32.5936 Q1762.64 32.5936 1759.28 36.4419 Q1755.92 40.2903 1755.92 46.9338 L1755.92 72.576 L1748.42 72.576 L1748.42 45.4349 Q1748.42 38.8725 1746.11 35.7533 Q1743.8 32.5936 1738.98 32.5936 Q1733.27 32.5936 1729.91 36.4824 Q1726.55 40.3308 1726.55 46.9338 L1726.55 72.576 L1719.05 72.576 L1719.05 27.2059 L1726.55 27.2059 L1726.55 34.2544 Q1729.1 30.082 1732.66 28.0971 Q1736.23 26.1121 1741.13 26.1121 Q1746.07 26.1121 1749.52 28.6237 Q1753 31.1352 1754.66 35.9153 Z" fill="#000000" fill-rule="nonzero" fill-opacity="1" /><polyline clip-path="url(#clip592)" style="stroke:#000000; stroke-linecap:round; stroke-linejoin:round; stroke-width:4; stroke-opacity:1; fill:none" points="275.386,1009.41 275.386,1009.41 288.735,1009.41 288.735,921.418 302.083,921.418 302.083,922.576 315.432,922.576 315.432,954.993 328.78,954.993 328.78,966.571 342.129,966.571 342.129,978.148 355.477,978.148 355.477,968.886 368.826,968.886 368.826,973.517 382.174,973.517 382.174,978.148 395.523,978.148 395.523,985.095 408.871,985.095 408.871,988.568 422.22,988.568 422.22,986.253 435.568,986.253 435.568,973.517 448.916,973.517 448.916,986.253 462.265,986.253 462.265,988.568 475.613,988.568 475.613,989.726 488.962,989.726 502.31,989.726 502.31,985.095 515.659,985.095 529.007,985.095 529.007,987.41 542.356,987.41 542.356,992.041 555.704,992.041 555.704,979.306 569.053,979.306 569.053,976.99 582.401,976.99 582.401,975.833 595.75,975.833 595.75,978.148 609.098,978.148 609.098,975.833 622.447,975.833 622.447,981.622 635.795,981.622 635.795,971.202 649.144,971.202 662.492,971.202 662.492,974.675 675.841,974.675 675.841,976.99 689.189,976.99 689.189,974.675 702.538,974.675 702.538,960.782 715.886,960.782 715.886,967.728 729.234,967.728 729.234,975.833 742.583,975.833 742.583,968.886 755.931,968.886 755.931,973.517 769.28,973.517 769.28,953.835 782.628,953.835 782.628,972.359 795.977,972.359 795.977,961.94 809.325,961.94 809.325,950.362 822.674,950.362 822.674,960.782 836.022,960.782 836.022,963.097 849.371,963.097 849.371,952.678 862.719,952.678 862.719,956.151 876.068,956.151 876.068,968.886 889.416,968.886 889.416,956.151 902.765,956.151 902.765,957.309 916.113,957.309 916.113,959.624 929.462,959.624 929.462,949.204 942.81,949.204 942.81,944.573 956.159,944.573 956.159,967.728 969.507,967.728 969.507,968.886 982.856,968.886 982.856,956.151 996.204,956.151 996.204,961.94 1009.55,961.94 1009.55,980.464 1022.9,980.464 1022.9,954.993 1036.25,954.993 1036.25,965.413 1049.6,965.413 1049.6,952.678 1062.95,952.678 1062.95,960.782 1076.29,960.782 1076.29,957.309 1089.64,957.309 1089.64,956.151 1102.99,956.151 1102.99,965.413 1116.34,965.413 1116.34,961.94 1129.69,961.94 1129.69,968.886 1143.04,968.886 1143.04,957.309 1156.39,957.309 1156.39,971.202 1169.73,971.202 1169.73,967.728 1183.08,967.728 1183.08,960.782 1196.43,960.782 1196.43,966.571 1209.78,966.571 1209.78,980.464 1223.13,980.464 1223.13,974.675 1236.48,974.675 1236.48,988.568 1249.83,988.568 1249.83,981.622 1263.17,981.622 1263.17,979.306 1276.52,979.306 1276.52,980.464 1289.87,980.464 1303.22,980.464 1303.22,988.568 1316.57,988.568 1316.57,994.357 1329.92,994.357 1329.92,985.095 1343.26,985.095 1343.26,979.306 1356.61,979.306 1356.61,990.884 1369.96,990.884 1383.31,990.884 1383.31,996.672 1396.66,996.672 1396.66,1003.62 1410.01,1003.62 1410.01,1000.15 1423.36,1000.15 1423.36,1003.62 1436.7,1003.62 1436.7,1002.46 1450.05,1002.46 1450.05,998.988 1463.4,998.988 1463.4,1005.93 1476.75,1005.93 1476.75,993.199 1490.1,993.199 1490.1,996.672 1503.45,996.672 1516.79,996.672 1516.79,988.568 1530.14,988.568 1530.14,992.041 1543.49,992.041 1556.84,992.041 1556.84,972.359 1570.19,972.359 1570.19,870.477 1583.54,870.477 1583.54,631.978 1596.89,631.978 1596.89,198.977 1610.23,198.977 1610.23,143.404 1623.58,143.404 1623.58,358.747 1636.93,358.747 1636.93,982.779 1650.28,982.779 1650.28,1004.78 1663.63,1004.78 1663.63,1001.3 1676.98,1001.3 1676.98,1003.62 1690.32,1003.62 1690.32,1007.09 1703.67,1007.09 1717.02,1007.09 1730.37,1007.09 1730.37,1009.41 1743.72,1009.41 1743.72,1007.09 1757.07,1007.09 1757.07,1004.78 1770.42,1004.78 1770.42,1009.41 1783.76,1009.41 1797.11,1009.41 1797.11,1008.25 1810.46,1008.25 1810.46,1004.78 1823.81,1004.78 1823.81,1007.09 1837.16,1007.09 1837.16,1008.25 1850.51,1008.25 1863.86,1008.25 1877.2,1008.25 1890.55,1008.25 1890.55,1009.41 1903.9,1009.41 "/>
<path clip-path="url(#clip590)" d="M284.072 251.703 L605.142 251.703 L605.142 148.023 L284.072 148.023  Z" fill="#ffffff" fill-rule="evenodd" fill-opacity="1"/>
<polyline clip-path="url(#clip590)" style="stroke:#000000; stroke-linecap:round; stroke-linejoin:round; stroke-width:4; stroke-opacity:1; fill:none" points="284.072,251.703 605.142,251.703 605.142,148.023 284.072,148.023 284.072,251.703 "/>
<polyline clip-path="url(#clip590)" style="stroke:#000000; stroke-linecap:round; stroke-linejoin:round; stroke-width:4; stroke-opacity:1; fill:none" points="303.252,199.863 418.334,199.863 "/>
<path clip-path="url(#clip590)" d="M437.514 182.583 L443.81 182.583 L459.134 211.495 L459.134 182.583 L463.671 182.583 L463.671 217.143 L457.375 217.143 L442.051 188.231 L442.051 217.143 L437.514 217.143 L437.514 182.583 Z" fill="#000000" fill-rule="nonzero" fill-opacity="1" /><path clip-path="url(#clip590)" d="M482.838 194.203 Q479.412 194.203 477.421 196.888 Q475.43 199.55 475.43 204.203 Q475.43 208.856 477.398 211.541 Q479.389 214.203 482.838 214.203 Q486.241 214.203 488.231 211.518 Q490.222 208.833 490.222 204.203 Q490.222 199.597 488.231 196.912 Q486.241 194.203 482.838 194.203 M482.838 190.592 Q488.393 190.592 491.565 194.203 Q494.736 197.814 494.736 204.203 Q494.736 210.569 491.565 214.203 Q488.393 217.814 482.838 217.814 Q477.259 217.814 474.088 214.203 Q470.94 210.569 470.94 204.203 Q470.94 197.814 474.088 194.203 Q477.259 190.592 482.838 190.592 Z" fill="#000000" fill-rule="nonzero" fill-opacity="1" /><path clip-path="url(#clip590)" d="M535.523 192.212 L535.523 196.194 Q533.717 195.199 531.888 194.712 Q530.083 194.203 528.231 194.203 Q524.088 194.203 521.796 196.842 Q519.504 199.458 519.504 204.203 Q519.504 208.949 521.796 211.587 Q524.088 214.203 528.231 214.203 Q530.083 214.203 531.888 213.717 Q533.717 213.208 535.523 212.212 L535.523 216.148 Q533.74 216.981 531.819 217.398 Q529.921 217.814 527.768 217.814 Q521.912 217.814 518.463 214.134 Q515.013 210.453 515.013 204.203 Q515.013 197.861 518.486 194.226 Q521.981 190.592 528.046 190.592 Q530.013 190.592 531.888 191.009 Q533.763 191.402 535.523 192.212 Z" fill="#000000" fill-rule="nonzero" fill-opacity="1" /><path clip-path="url(#clip590)" d="M542.49 206.911 L542.49 191.217 L546.749 191.217 L546.749 206.749 Q546.749 210.43 548.185 212.282 Q549.62 214.111 552.49 214.111 Q555.939 214.111 557.93 211.911 Q559.944 209.712 559.944 205.916 L559.944 191.217 L564.203 191.217 L564.203 217.143 L559.944 217.143 L559.944 213.161 Q558.393 215.523 556.333 216.68 Q554.296 217.814 551.587 217.814 Q547.12 217.814 544.805 215.036 Q542.49 212.259 542.49 206.911 M553.208 190.592 L553.208 190.592 Z" fill="#000000" fill-rule="nonzero" fill-opacity="1" /><path clip-path="url(#clip590)" d="M577.189 183.856 L577.189 191.217 L585.962 191.217 L585.962 194.527 L577.189 194.527 L577.189 208.601 Q577.189 211.773 578.046 212.675 Q578.925 213.578 581.587 213.578 L585.962 213.578 L585.962 217.143 L581.587 217.143 Q576.657 217.143 574.782 215.314 Q572.907 213.462 572.907 208.601 L572.907 194.527 L569.782 194.527 L569.782 191.217 L572.907 191.217 L572.907 183.856 L577.189 183.856 Z" fill="#000000" fill-rule="nonzero" fill-opacity="1" /></svg>
