<?xml version="1.0" encoding="utf-8"?>
<svg xmlns="http://www.w3.org/2000/svg" xmlns:xlink="http://www.w3.org/1999/xlink" width="500" height="300" viewBox="0 0 2000 1200">
<defs>
  <clipPath id="clip760">
    <rect x="0" y="0" width="2000" height="1200"/>
  </clipPath>
</defs>
<path clip-path="url(#clip760)" d="M0 1200 L2000 1200 L2000 0 L0 0  Z" fill="#ffffff" fill-rule="evenodd" fill-opacity="1"/>
<defs>
  <clipPath id="clip761">
    <rect x="400" y="0" width="1401" height="1200"/>
  </clipPath>
</defs>
<path clip-path="url(#clip760)" d="M225.373 1035.39 L1952.76 1035.39 L1952.76 117.424 L225.373 117.424  Z" fill="#ffffff" fill-rule="evenodd" fill-opacity="1"/>
<defs>
  <clipPath id="clip762">
    <rect x="225" y="117" width="1728" height="919"/>
  </clipPath>
</defs>
<polyline clip-path="url(#clip762)" style="stroke:#000000; stroke-linecap:round; stroke-linejoin:round; stroke-width:2; stroke-opacity:0.1; fill:none" points="320.383,1035.39 320.383,117.424 "/>
<polyline clip-path="url(#clip762)" style="stroke:#000000; stroke-linecap:round; stroke-linejoin:round; stroke-width:2; stroke-opacity:0.1; fill:none" points="747.428,1035.39 747.428,117.424 "/>
<polyline clip-path="url(#clip762)" style="stroke:#000000; stroke-linecap:round; stroke-linejoin:round; stroke-width:2; stroke-opacity:0.1; fill:none" points="1174.47,1035.39 1174.47,117.424 "/>
<polyline clip-path="url(#clip762)" style="stroke:#000000; stroke-linecap:round; stroke-linejoin:round; stroke-width:2; stroke-opacity:0.1; fill:none" points="1601.52,1035.39 1601.52,117.424 "/>
<polyline clip-path="url(#clip762)" style="stroke:#000000; stroke-linecap:round; stroke-linejoin:round; stroke-width:2; stroke-opacity:0.1; fill:none" points="225.373,1035.39 1952.76,1035.39 "/>
<polyline clip-path="url(#clip762)" style="stroke:#000000; stroke-linecap:round; stroke-linejoin:round; stroke-width:2; stroke-opacity:0.1; fill:none" points="225.373,904.25 1952.76,904.25 "/>
<polyline clip-path="url(#clip762)" style="stroke:#000000; stroke-linecap:round; stroke-linejoin:round; stroke-width:2; stroke-opacity:0.1; fill:none" points="225.373,773.112 1952.76,773.112 "/>
<polyline clip-path="url(#clip762)" style="stroke:#000000; stroke-linecap:round; stroke-linejoin:round; stroke-width:2; stroke-opacity:0.1; fill:none" points="225.373,641.975 1952.76,641.975 "/>
<polyline clip-path="url(#clip762)" style="stroke:#000000; stroke-linecap:round; stroke-linejoin:round; stroke-width:2; stroke-opacity:0.1; fill:none" points="225.373,510.837 1952.76,510.837 "/>
<polyline clip-path="url(#clip762)" style="stroke:#000000; stroke-linecap:round; stroke-linejoin:round; stroke-width:2; stroke-opacity:0.1; fill:none" points="225.373,379.699 1952.76,379.699 "/>
<polyline clip-path="url(#clip762)" style="stroke:#000000; stroke-linecap:round; stroke-linejoin:round; stroke-width:2; stroke-opacity:0.1; fill:none" points="225.373,248.562 1952.76,248.562 "/>
<polyline clip-path="url(#clip762)" style="stroke:#000000; stroke-linecap:round; stroke-linejoin:round; stroke-width:2; stroke-opacity:0.1; fill:none" points="225.373,117.424 1952.76,117.424 "/>
<polyline clip-path="url(#clip760)" style="stroke:#000000; stroke-linecap:round; stroke-linejoin:round; stroke-width:4; stroke-opacity:1; fill:none" points="225.373,1035.39 1952.76,1035.39 "/>
<polyline clip-path="url(#clip760)" style="stroke:#000000; stroke-linecap:round; stroke-linejoin:round; stroke-width:4; stroke-opacity:1; fill:none" points="320.383,1035.39 320.383,1016.49 "/>
<polyline clip-path="url(#clip760)" style="stroke:#000000; stroke-linecap:round; stroke-linejoin:round; stroke-width:4; stroke-opacity:1; fill:none" points="747.428,1035.39 747.428,1016.49 "/>
<polyline clip-path="url(#clip760)" style="stroke:#000000; stroke-linecap:round; stroke-linejoin:round; stroke-width:4; stroke-opacity:1; fill:none" points="1174.47,1035.39 1174.47,1016.49 "/>
<polyline clip-path="url(#clip760)" style="stroke:#000000; stroke-linecap:round; stroke-linejoin:round; stroke-width:4; stroke-opacity:1; fill:none" points="1601.52,1035.39 1601.52,1016.49 "/>
<path clip-path="url(#clip760)" d="M320.383 1063.11 Q316.771 1063.11 314.943 1066.67 Q313.137 1070.21 313.137 1077.34 Q313.137 1084.45 314.943 1088.01 Q316.771 1091.56 320.383 1091.56 Q324.017 1091.56 325.822 1088.01 Q327.651 1084.45 327.651 1077.34 Q327.651 1070.21 325.822 1066.67 Q324.017 1063.11 320.383 1063.11 M320.383 1059.4 Q326.193 1059.4 329.248 1064.01 Q332.327 1068.59 332.327 1077.34 Q332.327 1086.07 329.248 1090.68 Q326.193 1095.26 320.383 1095.26 Q314.572 1095.26 311.494 1090.68 Q308.438 1086.07 308.438 1077.34 Q308.438 1068.59 311.494 1064.01 Q314.572 1059.4 320.383 1059.4 Z" fill="#000000" fill-rule="nonzero" fill-opacity="1" /><path clip-path="url(#clip760)" d="M722.127 1060.03 L740.484 1060.03 L740.484 1063.96 L726.41 1063.96 L726.41 1072.44 Q727.428 1072.09 728.447 1071.93 Q729.465 1071.74 730.484 1071.74 Q736.271 1071.74 739.65 1074.91 Q743.03 1078.08 743.03 1083.5 Q743.03 1089.08 739.558 1092.18 Q736.086 1095.26 729.766 1095.26 Q727.59 1095.26 725.322 1094.89 Q723.076 1094.52 720.669 1093.78 L720.669 1089.08 Q722.752 1090.21 724.975 1090.77 Q727.197 1091.32 729.674 1091.32 Q733.678 1091.32 736.016 1089.22 Q738.354 1087.11 738.354 1083.5 Q738.354 1079.89 736.016 1077.78 Q733.678 1075.68 729.674 1075.68 Q727.799 1075.68 725.924 1076.09 Q724.072 1076.51 722.127 1077.39 L722.127 1060.03 Z" fill="#000000" fill-rule="nonzero" fill-opacity="1" /><path clip-path="url(#clip760)" d="M762.243 1063.11 Q758.632 1063.11 756.803 1066.67 Q754.998 1070.21 754.998 1077.34 Q754.998 1084.45 756.803 1088.01 Q758.632 1091.56 762.243 1091.56 Q765.877 1091.56 767.683 1088.01 Q769.511 1084.45 769.511 1077.34 Q769.511 1070.21 767.683 1066.67 Q765.877 1063.11 762.243 1063.11 M762.243 1059.4 Q768.053 1059.4 771.109 1064.01 Q774.187 1068.59 774.187 1077.34 Q774.187 1086.07 771.109 1090.68 Q768.053 1095.26 762.243 1095.26 Q756.433 1095.26 753.354 1090.68 Q750.299 1086.07 750.299 1077.34 Q750.299 1068.59 753.354 1064.01 Q756.433 1059.4 762.243 1059.4 Z" fill="#000000" fill-rule="nonzero" fill-opacity="1" /><path clip-path="url(#clip760)" d="M1134.08 1090.65 L1141.72 1090.65 L1141.72 1064.29 L1133.41 1065.95 L1133.41 1061.69 L1141.67 1060.03 L1146.35 1060.03 L1146.35 1090.65 L1153.99 1090.65 L1153.99 1094.59 L1134.08 1094.59 L1134.08 1090.65 Z" fill="#000000" fill-rule="nonzero" fill-opacity="1" /><path clip-path="url(#clip760)" d="M1173.43 1063.11 Q1169.82 1063.11 1167.99 1066.67 Q1166.19 1070.21 1166.19 1077.34 Q1166.19 1084.45 1167.99 1088.01 Q1169.82 1091.56 1173.43 1091.56 Q1177.07 1091.56 1178.87 1088.01 Q1180.7 1084.45 1180.7 1077.34 Q1180.7 1070.21 1178.87 1066.67 Q1177.07 1063.11 1173.43 1063.11 M1173.43 1059.4 Q1179.24 1059.4 1182.3 1064.01 Q1185.38 1068.59 1185.38 1077.34 Q1185.38 1086.07 1182.3 1090.68 Q1179.24 1095.26 1173.43 1095.26 Q1167.62 1095.26 1164.54 1090.68 Q1161.49 1086.07 1161.49 1077.34 Q1161.49 1068.59 1164.54 1064.01 Q1167.62 1059.4 1173.43 1059.4 Z" fill="#000000" fill-rule="nonzero" fill-opacity="1" /><path clip-path="url(#clip760)" d="M1203.59 1063.11 Q1199.98 1063.11 1198.15 1066.67 Q1196.35 1070.21 1196.35 1077.34 Q1196.35 1084.45 1198.15 1088.01 Q1199.98 1091.56 1203.59 1091.56 Q1207.23 1091.56 1209.03 1088.01 Q1210.86 1084.45 1210.86 1077.34 Q1210.86 1070.21 1209.03 1066.67 Q1207.23 1063.11 1203.59 1063.11 M1203.59 1059.4 Q1209.4 1059.4 1212.46 1064.01 Q1215.54 1068.59 1215.54 1077.34 Q1215.54 1086.07 1212.46 1090.68 Q1209.4 1095.26 1203.59 1095.26 Q1197.78 1095.26 1194.71 1090.68 Q1191.65 1086.07 1191.65 1077.34 Q1191.65 1068.59 1194.71 1064.01 Q1197.78 1059.4 1203.59 1059.4 Z" fill="#000000" fill-rule="nonzero" fill-opacity="1" /><path clip-path="url(#clip760)" d="M1561.13 1090.65 L1568.76 1090.65 L1568.76 1064.29 L1560.45 1065.95 L1560.45 1061.69 L1568.72 1060.03 L1573.39 1060.03 L1573.39 1090.65 L1581.03 1090.65 L1581.03 1094.59 L1561.13 1094.59 L1561.13 1090.65 Z" fill="#000000" fill-rule="nonzero" fill-opacity="1" /><path clip-path="url(#clip760)" d="M1590.52 1060.03 L1608.88 1060.03 L1608.88 1063.96 L1594.81 1063.96 L1594.81 1072.44 Q1595.83 1072.09 1596.84 1071.93 Q1597.86 1071.74 1598.88 1071.74 Q1604.67 1071.74 1608.05 1074.91 Q1611.43 1078.08 1611.43 1083.5 Q1611.43 1089.08 1607.95 1092.18 Q1604.48 1095.26 1598.16 1095.26 Q1595.99 1095.26 1593.72 1094.89 Q1591.47 1094.52 1589.07 1093.78 L1589.07 1089.08 Q1591.15 1090.21 1593.37 1090.77 Q1595.59 1091.32 1598.07 1091.32 Q1602.07 1091.32 1604.41 1089.22 Q1606.75 1087.11 1606.75 1083.5 Q1606.75 1079.89 1604.41 1077.78 Q1602.07 1075.68 1598.07 1075.68 Q1596.2 1075.68 1594.32 1076.09 Q1592.47 1076.51 1590.52 1077.39 L1590.52 1060.03 Z" fill="#000000" fill-rule="nonzero" fill-opacity="1" /><path clip-path="url(#clip760)" d="M1630.64 1063.11 Q1627.03 1063.11 1625.2 1066.67 Q1623.39 1070.21 1623.39 1077.34 Q1623.39 1084.45 1625.2 1088.01 Q1627.03 1091.56 1630.64 1091.56 Q1634.27 1091.56 1636.08 1088.01 Q1637.91 1084.45 1637.91 1077.34 Q1637.91 1070.21 1636.08 1066.67 Q1634.27 1063.11 1630.64 1063.11 M1630.64 1059.4 Q1636.45 1059.4 1639.51 1064.01 Q1642.58 1068.59 1642.58 1077.34 Q1642.58 1086.07 1639.51 1090.68 Q1636.45 1095.26 1630.64 1095.26 Q1624.83 1095.26 1621.75 1090.68 Q1618.7 1086.07 1618.7 1077.34 Q1618.7 1068.59 1621.75 1064.01 Q1624.83 1059.4 1630.64 1059.4 Z" fill="#000000" fill-rule="nonzero" fill-opacity="1" /><path clip-path="url(#clip760)" d="M874.7 1126.73 L904.746 1126.73 L904.746 1132.14 L881.129 1132.14 L881.129 1146.21 L903.759 1146.21 L903.759 1151.62 L881.129 1151.62 L881.129 1168.84 L905.319 1168.84 L905.319 1174.25 L874.7 1174.25 L874.7 1126.73 Z" fill="#000000" fill-rule="nonzero" fill-opacity="1" /><path clip-path="url(#clip760)" d="M945.263 1152.74 L945.263 1174.25 L939.407 1174.25 L939.407 1152.93 Q939.407 1147.87 937.434 1145.35 Q935.46 1142.84 931.513 1142.84 Q926.771 1142.84 924.034 1145.86 Q921.296 1148.88 921.296 1154.1 L921.296 1174.25 L915.408 1174.25 L915.408 1138.6 L921.296 1138.6 L921.296 1144.14 Q923.397 1140.93 926.23 1139.34 Q929.094 1137.74 932.818 1137.74 Q938.961 1137.74 942.112 1141.56 Q945.263 1145.35 945.263 1152.74 Z" fill="#000000" fill-rule="nonzero" fill-opacity="1" /><path clip-path="url(#clip760)" d="M987.436 1154.96 L987.436 1157.83 L960.509 1157.83 Q960.891 1163.88 964.138 1167.06 Q967.416 1170.21 973.241 1170.21 Q976.614 1170.21 979.765 1169.38 Q982.948 1168.55 986.068 1166.9 L986.068 1172.44 Q982.917 1173.77 979.606 1174.47 Q976.296 1175.17 972.891 1175.17 Q964.36 1175.17 959.363 1170.21 Q954.398 1165.24 954.398 1156.78 Q954.398 1148.03 959.109 1142.9 Q963.851 1137.74 971.872 1137.74 Q979.065 1137.74 983.235 1142.39 Q987.436 1147.01 987.436 1154.96 M981.58 1153.25 Q981.516 1148.44 978.874 1145.57 Q976.264 1142.71 971.936 1142.71 Q967.034 1142.71 964.074 1145.48 Q961.146 1148.25 960.7 1153.28 L981.58 1153.25 Z" fill="#000000" fill-rule="nonzero" fill-opacity="1" /><path clip-path="url(#clip760)" d="M1017.71 1144.08 Q1016.72 1143.51 1015.54 1143.25 Q1014.39 1142.96 1012.99 1142.96 Q1008.03 1142.96 1005.36 1146.21 Q1002.71 1149.43 1002.71 1155.47 L1002.71 1174.25 L996.826 1174.25 L996.826 1138.6 L1002.71 1138.6 L1002.71 1144.14 Q1004.56 1140.9 1007.52 1139.34 Q1010.48 1137.74 1014.71 1137.74 Q1015.32 1137.74 1016.05 1137.84 Q1016.78 1137.9 1017.67 1138.06 L1017.71 1144.08 Z" fill="#000000" fill-rule="nonzero" fill-opacity="1" /><path clip-path="url(#clip760)" d="M1046.16 1156.01 Q1046.16 1149.65 1043.52 1146.15 Q1040.91 1142.65 1036.17 1142.65 Q1031.46 1142.65 1028.81 1146.15 Q1026.2 1149.65 1026.2 1156.01 Q1026.2 1162.35 1028.81 1165.85 Q1031.46 1169.35 1036.17 1169.35 Q1040.91 1169.35 1043.52 1165.85 Q1046.16 1162.35 1046.16 1156.01 M1052.02 1169.83 Q1052.02 1178.93 1047.97 1183.35 Q1043.93 1187.81 1035.59 1187.81 Q1032.51 1187.81 1029.77 1187.33 Q1027.03 1186.89 1024.45 1185.93 L1024.45 1180.24 Q1027.03 1181.64 1029.55 1182.3 Q1032.06 1182.97 1034.67 1182.97 Q1040.43 1182.97 1043.3 1179.95 Q1046.16 1176.96 1046.16 1170.88 L1046.16 1167.98 Q1044.35 1171.13 1041.51 1172.69 Q1038.68 1174.25 1034.73 1174.25 Q1028.18 1174.25 1024.17 1169.25 Q1020.16 1164.26 1020.16 1156.01 Q1020.16 1147.74 1024.17 1142.74 Q1028.18 1137.74 1034.73 1137.74 Q1038.68 1137.74 1041.51 1139.3 Q1044.35 1140.86 1046.16 1144.01 L1046.16 1138.6 L1052.02 1138.6 L1052.02 1169.83 Z" fill="#000000" fill-rule="nonzero" fill-opacity="1" /><path clip-path="url(#clip760)" d="M1078.91 1177.56 Q1076.43 1183.93 1074.07 1185.87 Q1071.72 1187.81 1067.77 1187.81 L1063.09 1187.81 L1063.09 1182.91 L1066.53 1182.91 Q1068.95 1182.91 1070.29 1181.76 Q1071.62 1180.62 1073.25 1176.35 L1074.3 1173.68 L1059.88 1138.6 L1066.08 1138.6 L1077.22 1166.49 L1088.36 1138.6 L1094.57 1138.6 L1078.91 1177.56 Z" fill="#000000" fill-rule="nonzero" fill-opacity="1" /><path clip-path="url(#clip760)" d="M1137.44 1124.79 Q1133.18 1132.11 1131.11 1139.27 Q1129.04 1146.43 1129.04 1153.79 Q1129.04 1161.14 1131.11 1168.36 Q1133.21 1175.56 1137.44 1182.85 L1132.35 1182.85 Q1127.58 1175.37 1125.19 1168.14 Q1122.83 1160.92 1122.83 1153.79 Q1122.83 1146.69 1125.19 1139.5 Q1127.55 1132.3 1132.35 1124.79 L1137.44 1124.79 Z" fill="#000000" fill-rule="nonzero" fill-opacity="1" /><path clip-path="url(#clip760)" d="M1149.06 1126.73 L1158.64 1126.73 L1170.77 1159.07 L1182.96 1126.73 L1192.54 1126.73 L1192.54 1174.25 L1186.27 1174.25 L1186.27 1132.52 L1174.02 1165.12 L1167.55 1165.12 L1155.3 1132.52 L1155.3 1174.25 L1149.06 1174.25 L1149.06 1126.73 Z" fill="#000000" fill-rule="nonzero" fill-opacity="1" /><path clip-path="url(#clip760)" d="M1235.54 1154.96 L1235.54 1157.83 L1208.61 1157.83 Q1208.99 1163.88 1212.24 1167.06 Q1215.52 1170.21 1221.34 1170.21 Q1224.72 1170.21 1227.87 1169.38 Q1231.05 1168.55 1234.17 1166.9 L1234.17 1172.44 Q1231.02 1173.77 1227.71 1174.47 Q1224.4 1175.17 1220.99 1175.17 Q1212.46 1175.17 1207.47 1170.21 Q1202.5 1165.24 1202.5 1156.78 Q1202.5 1148.03 1207.21 1142.9 Q1211.95 1137.74 1219.98 1137.74 Q1227.17 1137.74 1231.34 1142.39 Q1235.54 1147.01 1235.54 1154.96 M1229.68 1153.25 Q1229.62 1148.44 1226.98 1145.57 Q1224.37 1142.71 1220.04 1142.71 Q1215.14 1142.71 1212.18 1145.48 Q1209.25 1148.25 1208.8 1153.28 L1229.68 1153.25 Z" fill="#000000" fill-rule="nonzero" fill-opacity="1" /><path clip-path="url(#clip760)" d="M1257.66 1174.25 L1239.52 1126.73 L1246.23 1126.73 L1261.29 1166.74 L1276.38 1126.73 L1283.06 1126.73 L1264.95 1174.25 L1257.66 1174.25 Z" fill="#000000" fill-rule="nonzero" fill-opacity="1" /><path clip-path="url(#clip760)" d="M1288.82 1124.79 L1293.91 1124.79 Q1298.69 1132.3 1301.04 1139.5 Q1303.43 1146.69 1303.43 1153.79 Q1303.43 1160.92 1301.04 1168.14 Q1298.69 1175.37 1293.91 1182.85 L1288.82 1182.85 Q1293.05 1175.56 1295.12 1168.36 Q1297.22 1161.14 1297.22 1153.79 Q1297.22 1146.43 1295.12 1139.27 Q1293.05 1132.11 1288.82 1124.79 Z" fill="#000000" fill-rule="nonzero" fill-opacity="1" /><polyline clip-path="url(#clip760)" style="stroke:#000000; stroke-linecap:round; stroke-linejoin:round; stroke-width:4; stroke-opacity:1; fill:none" points="225.373,1035.39 225.373,117.424 "/>
<polyline clip-path="url(#clip760)" style="stroke:#000000; stroke-linecap:round; stroke-linejoin:round; stroke-width:4; stroke-opacity:1; fill:none" points="225.373,1035.39 244.271,1035.39 "/>
<polyline clip-path="url(#clip760)" style="stroke:#000000; stroke-linecap:round; stroke-linejoin:round; stroke-width:4; stroke-opacity:1; fill:none" points="225.373,904.25 244.271,904.25 "/>
<polyline clip-path="url(#clip760)" style="stroke:#000000; stroke-linecap:round; stroke-linejoin:round; stroke-width:4; stroke-opacity:1; fill:none" points="225.373,773.112 244.271,773.112 "/>
<polyline clip-path="url(#clip760)" style="stroke:#000000; stroke-linecap:round; stroke-linejoin:round; stroke-width:4; stroke-opacity:1; fill:none" points="225.373,641.975 244.271,641.975 "/>
<polyline clip-path="url(#clip760)" style="stroke:#000000; stroke-linecap:round; stroke-linejoin:round; stroke-width:4; stroke-opacity:1; fill:none" points="225.373,510.837 244.271,510.837 "/>
<polyline clip-path="url(#clip760)" style="stroke:#000000; stroke-linecap:round; stroke-linejoin:round; stroke-width:4; stroke-opacity:1; fill:none" points="225.373,379.699 244.271,379.699 "/>
<polyline clip-path="url(#clip760)" style="stroke:#000000; stroke-linecap:round; stroke-linejoin:round; stroke-width:4; stroke-opacity:1; fill:none" points="225.373,248.562 244.271,248.562 "/>
<polyline clip-path="url(#clip760)" style="stroke:#000000; stroke-linecap:round; stroke-linejoin:round; stroke-width:4; stroke-opacity:1; fill:none" points="225.373,117.424 244.271,117.424 "/>
<path clip-path="url(#clip760)" d="M183.429 1021.19 Q179.818 1021.19 177.989 1024.75 Q176.184 1028.29 176.184 1035.42 Q176.184 1042.53 177.989 1046.09 Q179.818 1049.64 183.429 1049.64 Q187.063 1049.64 188.869 1046.09 Q190.698 1042.53 190.698 1035.42 Q190.698 1028.29 188.869 1024.75 Q187.063 1021.19 183.429 1021.19 M183.429 1017.48 Q189.239 1017.48 192.295 1022.09 Q195.373 1026.67 195.373 1035.42 Q195.373 1044.15 192.295 1048.76 Q189.239 1053.34 183.429 1053.34 Q177.619 1053.34 174.54 1048.76 Q171.485 1044.15 171.485 1035.42 Q171.485 1026.67 174.54 1022.09 Q177.619 1017.48 183.429 1017.48 Z" fill="#000000" fill-rule="nonzero" fill-opacity="1" /><path clip-path="url(#clip760)" d="M157.434 902.896 Q160.79 903.614 162.665 905.882 Q164.563 908.151 164.563 911.484 Q164.563 916.6 161.045 919.401 Q157.526 922.201 151.045 922.201 Q148.869 922.201 146.554 921.762 Q144.263 921.345 141.809 920.489 L141.809 915.975 Q143.753 917.109 146.068 917.688 Q148.383 918.266 150.906 918.266 Q155.304 918.266 157.596 916.53 Q159.911 914.794 159.911 911.484 Q159.911 908.428 157.758 906.715 Q155.628 904.979 151.809 904.979 L147.781 904.979 L147.781 901.137 L151.994 901.137 Q155.443 901.137 157.272 899.771 Q159.1 898.382 159.1 895.79 Q159.1 893.128 157.202 891.716 Q155.327 890.28 151.809 890.28 Q149.888 890.28 147.689 890.697 Q145.489 891.114 142.851 891.993 L142.851 887.827 Q145.513 887.086 147.827 886.716 Q150.165 886.345 152.226 886.345 Q157.55 886.345 160.651 888.776 Q163.753 891.183 163.753 895.303 Q163.753 898.174 162.11 900.165 Q160.466 902.132 157.434 902.896 Z" fill="#000000" fill-rule="nonzero" fill-opacity="1" /><path clip-path="url(#clip760)" d="M183.429 890.049 Q179.818 890.049 177.989 893.614 Q176.184 897.155 176.184 904.285 Q176.184 911.391 177.989 914.956 Q179.818 918.498 183.429 918.498 Q187.063 918.498 188.869 914.956 Q190.698 911.391 190.698 904.285 Q190.698 897.155 188.869 893.614 Q187.063 890.049 183.429 890.049 M183.429 886.345 Q189.239 886.345 192.295 890.952 Q195.373 895.535 195.373 904.285 Q195.373 913.012 192.295 917.618 Q189.239 922.201 183.429 922.201 Q177.619 922.201 174.54 917.618 Q171.485 913.012 171.485 904.285 Q171.485 895.535 174.54 890.952 Q177.619 886.345 183.429 886.345 Z" fill="#000000" fill-rule="nonzero" fill-opacity="1" /><path clip-path="url(#clip760)" d="M153.846 771.249 Q150.698 771.249 148.846 773.402 Q147.017 775.555 147.017 779.305 Q147.017 783.031 148.846 785.207 Q150.698 787.36 153.846 787.36 Q156.994 787.36 158.823 785.207 Q160.675 783.031 160.675 779.305 Q160.675 775.555 158.823 773.402 Q156.994 771.249 153.846 771.249 M163.128 756.596 L163.128 760.856 Q161.369 760.022 159.563 759.582 Q157.781 759.143 156.022 759.143 Q151.392 759.143 148.939 762.268 Q146.508 765.393 146.161 771.712 Q147.526 769.698 149.587 768.633 Q151.647 767.545 154.124 767.545 Q159.332 767.545 162.341 770.717 Q165.374 773.865 165.374 779.305 Q165.374 784.629 162.225 787.846 Q159.077 791.064 153.846 791.064 Q147.851 791.064 144.679 786.48 Q141.508 781.874 141.508 773.147 Q141.508 764.953 145.397 760.092 Q149.286 755.207 155.837 755.207 Q157.596 755.207 159.378 755.555 Q161.184 755.902 163.128 756.596 Z" fill="#000000" fill-rule="nonzero" fill-opacity="1" /><path clip-path="url(#clip760)" d="M183.429 758.911 Q179.818 758.911 177.989 762.476 Q176.184 766.018 176.184 773.147 Q176.184 780.254 177.989 783.818 Q179.818 787.36 183.429 787.36 Q187.063 787.36 188.869 783.818 Q190.698 780.254 190.698 773.147 Q190.698 766.018 188.869 762.476 Q187.063 758.911 183.429 758.911 M183.429 755.207 Q189.239 755.207 192.295 759.814 Q195.373 764.397 195.373 773.147 Q195.373 781.874 192.295 786.48 Q189.239 791.064 183.429 791.064 Q177.619 791.064 174.54 786.48 Q171.485 781.874 171.485 773.147 Q171.485 764.397 174.54 759.814 Q177.619 755.207 183.429 755.207 Z" fill="#000000" fill-rule="nonzero" fill-opacity="1" /><path clip-path="url(#clip760)" d="M143.406 658.537 L143.406 654.278 Q145.165 655.111 146.971 655.551 Q148.776 655.991 150.513 655.991 Q155.142 655.991 157.573 652.889 Q160.026 649.764 160.374 643.422 Q159.031 645.412 156.971 646.477 Q154.911 647.542 152.411 647.542 Q147.226 647.542 144.193 644.417 Q141.184 641.269 141.184 635.829 Q141.184 630.505 144.332 627.287 Q147.48 624.07 152.712 624.07 Q158.707 624.07 161.855 628.676 Q165.026 633.26 165.026 642.01 Q165.026 650.181 161.138 655.065 Q157.272 659.926 150.721 659.926 Q148.962 659.926 147.156 659.579 Q145.351 659.232 143.406 658.537 M152.712 643.885 Q155.86 643.885 157.688 641.732 Q159.54 639.579 159.54 635.829 Q159.54 632.102 157.688 629.949 Q155.86 627.774 152.712 627.774 Q149.564 627.774 147.712 629.949 Q145.883 632.102 145.883 635.829 Q145.883 639.579 147.712 641.732 Q149.564 643.885 152.712 643.885 Z" fill="#000000" fill-rule="nonzero" fill-opacity="1" /><path clip-path="url(#clip760)" d="M183.429 627.774 Q179.818 627.774 177.989 631.338 Q176.184 634.88 176.184 642.01 Q176.184 649.116 177.989 652.681 Q179.818 656.222 183.429 656.222 Q187.063 656.222 188.869 652.681 Q190.698 649.116 190.698 642.01 Q190.698 634.88 188.869 631.338 Q187.063 627.774 183.429 627.774 M183.429 624.07 Q189.239 624.07 192.295 628.676 Q195.373 633.26 195.373 642.01 Q195.373 650.736 192.295 655.343 Q189.239 659.926 183.429 659.926 Q177.619 659.926 174.54 655.343 Q171.485 650.736 171.485 642.01 Q171.485 633.26 174.54 628.676 Q177.619 624.07 183.429 624.07 Z" fill="#000000" fill-rule="nonzero" fill-opacity="1" /><path clip-path="url(#clip760)" d="M113.916 524.182 L121.554 524.182 L121.554 497.816 L113.244 499.483 L113.244 495.224 L121.508 493.557 L126.184 493.557 L126.184 524.182 L133.823 524.182 L133.823 528.117 L113.916 528.117 L113.916 524.182 Z" fill="#000000" fill-rule="nonzero" fill-opacity="1" /><path clip-path="url(#clip760)" d="M147.295 524.182 L163.614 524.182 L163.614 528.117 L141.67 528.117 L141.67 524.182 Q144.332 521.427 148.915 516.798 Q153.522 512.145 154.702 510.802 Q156.948 508.279 157.827 506.543 Q158.73 504.784 158.73 503.094 Q158.73 500.34 156.786 498.603 Q154.864 496.867 151.763 496.867 Q149.564 496.867 147.11 497.631 Q144.679 498.395 141.902 499.946 L141.902 495.224 Q144.726 494.09 147.179 493.511 Q149.633 492.932 151.67 492.932 Q157.04 492.932 160.235 495.617 Q163.429 498.302 163.429 502.793 Q163.429 504.923 162.619 506.844 Q161.832 508.742 159.725 511.335 Q159.147 512.006 156.045 515.224 Q152.943 518.418 147.295 524.182 Z" fill="#000000" fill-rule="nonzero" fill-opacity="1" /><path clip-path="url(#clip760)" d="M183.429 496.636 Q179.818 496.636 177.989 500.201 Q176.184 503.742 176.184 510.872 Q176.184 517.978 177.989 521.543 Q179.818 525.085 183.429 525.085 Q187.063 525.085 188.869 521.543 Q190.698 517.978 190.698 510.872 Q190.698 503.742 188.869 500.201 Q187.063 496.636 183.429 496.636 M183.429 492.932 Q189.239 492.932 192.295 497.539 Q195.373 502.122 195.373 510.872 Q195.373 519.599 192.295 524.205 Q189.239 528.788 183.429 528.788 Q177.619 528.788 174.54 524.205 Q171.485 519.599 171.485 510.872 Q171.485 502.122 174.54 497.539 Q177.619 492.932 183.429 492.932 Z" fill="#000000" fill-rule="nonzero" fill-opacity="1" /><path clip-path="url(#clip760)" d="M113.916 393.044 L121.554 393.044 L121.554 366.679 L113.244 368.345 L113.244 364.086 L121.508 362.419 L126.184 362.419 L126.184 393.044 L133.823 393.044 L133.823 396.979 L113.916 396.979 L113.916 393.044 Z" fill="#000000" fill-rule="nonzero" fill-opacity="1" /><path clip-path="url(#clip760)" d="M143.314 362.419 L161.67 362.419 L161.67 366.355 L147.596 366.355 L147.596 374.827 Q148.614 374.48 149.633 374.318 Q150.651 374.132 151.67 374.132 Q157.457 374.132 160.837 377.304 Q164.216 380.475 164.216 385.892 Q164.216 391.47 160.744 394.572 Q157.272 397.651 150.952 397.651 Q148.776 397.651 146.508 397.28 Q144.263 396.91 141.855 396.169 L141.855 391.47 Q143.939 392.604 146.161 393.16 Q148.383 393.716 150.86 393.716 Q154.864 393.716 157.202 391.609 Q159.54 389.503 159.54 385.892 Q159.54 382.28 157.202 380.174 Q154.864 378.068 150.86 378.068 Q148.985 378.068 147.11 378.484 Q145.258 378.901 143.314 379.78 L143.314 362.419 Z" fill="#000000" fill-rule="nonzero" fill-opacity="1" /><path clip-path="url(#clip760)" d="M183.429 365.498 Q179.818 365.498 177.989 369.063 Q176.184 372.605 176.184 379.734 Q176.184 386.841 177.989 390.405 Q179.818 393.947 183.429 393.947 Q187.063 393.947 188.869 390.405 Q190.698 386.841 190.698 379.734 Q190.698 372.605 188.869 369.063 Q187.063 365.498 183.429 365.498 M183.429 361.794 Q189.239 361.794 192.295 366.401 Q195.373 370.984 195.373 379.734 Q195.373 388.461 192.295 393.067 Q189.239 397.651 183.429 397.651 Q177.619 397.651 174.54 393.067 Q171.485 388.461 171.485 379.734 Q171.485 370.984 174.54 366.401 Q177.619 361.794 183.429 361.794 Z" fill="#000000" fill-rule="nonzero" fill-opacity="1" /><path clip-path="url(#clip760)" d="M113.916 261.907 L121.554 261.907 L121.554 235.541 L113.244 237.208 L113.244 232.948 L121.508 231.282 L126.184 231.282 L126.184 261.907 L133.823 261.907 L133.823 265.842 L113.916 265.842 L113.916 261.907 Z" fill="#000000" fill-rule="nonzero" fill-opacity="1" /><path clip-path="url(#clip760)" d="M153.267 249.43 Q149.934 249.43 148.013 251.212 Q146.114 252.995 146.114 256.12 Q146.114 259.245 148.013 261.027 Q149.934 262.809 153.267 262.809 Q156.601 262.809 158.522 261.027 Q160.443 259.221 160.443 256.12 Q160.443 252.995 158.522 251.212 Q156.624 249.43 153.267 249.43 M148.591 247.439 Q145.582 246.698 143.892 244.638 Q142.226 242.578 142.226 239.615 Q142.226 235.472 145.165 233.064 Q148.128 230.657 153.267 230.657 Q158.429 230.657 161.369 233.064 Q164.309 235.472 164.309 239.615 Q164.309 242.578 162.619 244.638 Q160.952 246.698 157.966 247.439 Q161.346 248.226 163.221 250.518 Q165.119 252.809 165.119 256.12 Q165.119 261.143 162.04 263.828 Q158.985 266.513 153.267 266.513 Q147.55 266.513 144.471 263.828 Q141.415 261.143 141.415 256.12 Q141.415 252.809 143.314 250.518 Q145.212 248.226 148.591 247.439 M146.878 240.055 Q146.878 242.74 148.545 244.245 Q150.235 245.749 153.267 245.749 Q156.276 245.749 157.966 244.245 Q159.679 242.74 159.679 240.055 Q159.679 237.37 157.966 235.865 Q156.276 234.36 153.267 234.36 Q150.235 234.36 148.545 235.865 Q146.878 237.37 146.878 240.055 Z" fill="#000000" fill-rule="nonzero" fill-opacity="1" /><path clip-path="url(#clip760)" d="M183.429 234.36 Q179.818 234.36 177.989 237.925 Q176.184 241.467 176.184 248.597 Q176.184 255.703 177.989 259.268 Q179.818 262.809 183.429 262.809 Q187.063 262.809 188.869 259.268 Q190.698 255.703 190.698 248.597 Q190.698 241.467 188.869 237.925 Q187.063 234.36 183.429 234.36 M183.429 230.657 Q189.239 230.657 192.295 235.263 Q195.373 239.847 195.373 248.597 Q195.373 257.323 192.295 261.93 Q189.239 266.513 183.429 266.513 Q177.619 266.513 174.54 261.93 Q171.485 257.323 171.485 248.597 Q171.485 239.847 174.54 235.263 Q177.619 230.657 183.429 230.657 Z" fill="#000000" fill-rule="nonzero" fill-opacity="1" /><path clip-path="url(#clip760)" d="M117.133 130.769 L133.452 130.769 L133.452 134.704 L111.508 134.704 L111.508 130.769 Q114.17 128.014 118.753 123.385 Q123.36 118.732 124.54 117.389 Q126.786 114.866 127.665 113.13 Q128.568 111.371 128.568 109.681 Q128.568 106.926 126.624 105.19 Q124.703 103.454 121.601 103.454 Q119.402 103.454 116.948 104.218 Q114.517 104.982 111.74 106.533 L111.74 101.811 Q114.564 100.677 117.017 100.098 Q119.471 99.5191 121.508 99.5191 Q126.878 99.5191 130.073 102.204 Q133.267 104.889 133.267 109.38 Q133.267 111.51 132.457 113.431 Q131.67 115.329 129.564 117.922 Q128.985 118.593 125.883 121.811 Q122.781 125.005 117.133 130.769 Z" fill="#000000" fill-rule="nonzero" fill-opacity="1" /><path clip-path="url(#clip760)" d="M144.077 130.769 L151.716 130.769 L151.716 104.403 L143.406 106.07 L143.406 101.811 L151.67 100.144 L156.346 100.144 L156.346 130.769 L163.985 130.769 L163.985 134.704 L144.077 134.704 L144.077 130.769 Z" fill="#000000" fill-rule="nonzero" fill-opacity="1" /><path clip-path="url(#clip760)" d="M183.429 103.223 Q179.818 103.223 177.989 106.788 Q176.184 110.329 176.184 117.459 Q176.184 124.565 177.989 128.13 Q179.818 131.672 183.429 131.672 Q187.063 131.672 188.869 128.13 Q190.698 124.565 190.698 117.459 Q190.698 110.329 188.869 106.788 Q187.063 103.223 183.429 103.223 M183.429 99.5191 Q189.239 99.5191 192.295 104.126 Q195.373 108.709 195.373 117.459 Q195.373 126.186 192.295 130.792 Q189.239 135.375 183.429 135.375 Q177.619 135.375 174.54 130.792 Q171.485 126.186 171.485 117.459 Q171.485 108.709 174.54 104.126 Q177.619 99.5191 183.429 99.5191 Z" fill="#000000" fill-rule="nonzero" fill-opacity="1" /><path clip-path="url(#clip760)" d="M23.3924 648.434 L30.1719 648.434 Q27.1482 651.68 25.6523 655.373 Q24.1563 659.033 24.1563 663.171 Q24.1563 671.319 29.1534 675.647 Q34.1187 679.976 43.5399 679.976 Q52.9293 679.976 57.9264 675.647 Q62.8916 671.319 62.8916 663.171 Q62.8916 659.033 61.3957 655.373 Q59.8998 651.68 56.8761 648.434 L63.5919 648.434 Q65.8835 651.808 67.0294 655.595 Q68.1752 659.351 68.1752 663.553 Q68.1752 674.342 61.5867 680.549 Q54.9663 686.756 43.5399 686.756 Q32.0816 686.756 25.4931 680.549 Q18.8728 674.342 18.8728 663.553 Q18.8728 659.287 20.0186 655.532 Q21.1326 651.744 23.3924 648.434 Z" fill="#000000" fill-rule="nonzero" fill-opacity="1" /><path clip-path="url(#clip760)" d="M35.7101 624.944 Q35.7101 629.655 39.4022 632.392 Q43.0625 635.13 49.46 635.13 Q55.8575 635.13 59.5497 632.424 Q63.2099 629.687 63.2099 624.944 Q63.2099 620.266 59.5178 617.528 Q55.8257 614.791 49.46 614.791 Q43.1261 614.791 39.434 617.528 Q35.7101 620.266 35.7101 624.944 M30.7448 624.944 Q30.7448 617.306 35.7101 612.945 Q40.6753 608.585 49.46 608.585 Q58.2129 608.585 63.2099 612.945 Q68.1752 617.306 68.1752 624.944 Q68.1752 632.615 63.2099 636.976 Q58.2129 641.304 49.46 641.304 Q40.6753 641.304 35.7101 636.976 Q30.7448 632.615 30.7448 624.944 Z" fill="#000000" fill-rule="nonzero" fill-opacity="1" /><path clip-path="url(#clip760)" d="M53.1839 599.482 L31.6042 599.482 L31.6042 593.625 L52.9611 593.625 Q58.0219 593.625 60.5682 591.652 Q63.0826 589.678 63.0826 585.732 Q63.0826 580.989 60.0589 578.252 Q57.0352 575.483 51.8153 575.483 L31.6042 575.483 L31.6042 569.627 L67.2522 569.627 L67.2522 575.483 L61.7776 575.483 Q65.0242 577.615 66.6156 580.448 Q68.1752 583.249 68.1752 586.973 Q68.1752 593.116 64.3558 596.299 Q60.5363 599.482 53.1839 599.482 M30.7448 584.745 L30.7448 584.745 Z" fill="#000000" fill-rule="nonzero" fill-opacity="1" /><path clip-path="url(#clip760)" d="M45.7361 527.931 L67.2522 527.931 L67.2522 533.788 L45.927 533.788 Q40.8663 533.788 38.3518 535.761 Q35.8374 537.734 35.8374 541.681 Q35.8374 546.424 38.8611 549.161 Q41.8848 551.898 47.1047 551.898 L67.2522 551.898 L67.2522 557.786 L31.6042 557.786 L31.6042 551.898 L37.1424 551.898 Q33.9277 549.797 32.3363 546.965 Q30.7448 544.1 30.7448 540.376 Q30.7448 534.233 34.5643 531.082 Q38.3518 527.931 45.7361 527.931 Z" fill="#000000" fill-rule="nonzero" fill-opacity="1" /><path clip-path="url(#clip760)" d="M21.4827 510.457 L31.6042 510.457 L31.6042 498.394 L36.1557 498.394 L36.1557 510.457 L55.5074 510.457 Q59.8679 510.457 61.1093 509.28 Q62.3506 508.07 62.3506 504.41 L62.3506 498.394 L67.2522 498.394 L67.2522 504.41 Q67.2522 511.189 64.7377 513.767 Q62.1914 516.346 55.5074 516.346 L36.1557 516.346 L36.1557 520.642 L31.6042 520.642 L31.6042 516.346 L21.4827 516.346 L21.4827 510.457 Z" fill="#000000" fill-rule="nonzero" fill-opacity="1" /><path clip-path="url(#clip760)" d="M32.6545 467.966 L38.1927 467.966 Q36.9196 470.449 36.283 473.122 Q35.6464 475.796 35.6464 478.661 Q35.6464 483.021 36.9832 485.217 Q38.32 487.382 40.9936 487.382 Q43.0306 487.382 44.2083 485.822 Q45.3541 484.262 46.4045 479.552 L46.8501 477.547 Q48.1869 471.308 50.6377 468.698 Q53.0566 466.056 57.4171 466.056 Q62.3824 466.056 65.2788 470.003 Q68.1752 473.918 68.1752 480.793 Q68.1752 483.658 67.6023 486.777 Q67.0612 489.864 65.9472 493.302 L59.8998 493.302 Q61.5867 490.055 62.446 486.904 Q63.2736 483.753 63.2736 480.666 Q63.2736 476.528 61.8731 474.3 Q60.4409 472.072 57.8627 472.072 Q55.4756 472.072 54.2025 473.695 Q52.9293 475.287 51.7517 480.729 L51.2742 482.766 Q50.1284 488.209 47.7731 490.628 Q45.386 493.047 41.2482 493.047 Q36.2193 493.047 33.4821 489.482 Q30.7448 485.917 30.7448 479.361 Q30.7448 476.114 31.2223 473.25 Q31.6997 470.385 32.6545 467.966 Z" fill="#000000" fill-rule="nonzero" fill-opacity="1" /><path clip-path="url(#clip760)" d="M393.423 12.096 L405.616 12.096 L421.05 53.2532 L436.565 12.096 L448.759 12.096 L448.759 72.576 L440.778 72.576 L440.778 19.4686 L425.182 60.9499 L416.959 60.9499 L401.363 19.4686 L401.363 72.576 L393.423 72.576 L393.423 12.096 Z" fill="#000000" fill-rule="nonzero" fill-opacity="1" /><path clip-path="url(#clip760)" d="M482.259 32.4315 Q476.264 32.4315 472.78 37.1306 Q469.297 41.7891 469.297 49.9314 Q469.297 58.0738 472.74 62.7728 Q476.224 67.4314 482.259 67.4314 Q488.214 67.4314 491.698 62.7323 Q495.182 58.0333 495.182 49.9314 Q495.182 41.8701 491.698 37.1711 Q488.214 32.4315 482.259 32.4315 M482.259 26.1121 Q491.982 26.1121 497.531 32.4315 Q503.081 38.7509 503.081 49.9314 Q503.081 61.0714 497.531 67.4314 Q491.982 73.7508 482.259 73.7508 Q472.497 73.7508 466.947 67.4314 Q461.438 61.0714 461.438 49.9314 Q461.438 38.7509 466.947 32.4315 Q472.497 26.1121 482.259 26.1121 Z" fill="#000000" fill-rule="nonzero" fill-opacity="1" /><path clip-path="url(#clip760)" d="M553.15 45.1919 L553.15 72.576 L545.697 72.576 L545.697 45.4349 Q545.697 38.994 543.185 35.7938 Q540.674 32.5936 535.65 32.5936 Q529.615 32.5936 526.131 36.4419 Q522.647 40.2903 522.647 46.9338 L522.647 72.576 L515.153 72.576 L515.153 27.2059 L522.647 27.2059 L522.647 34.2544 Q525.321 30.163 528.926 28.1376 Q532.572 26.1121 537.311 26.1121 Q545.13 26.1121 549.14 30.9732 Q553.15 35.7938 553.15 45.1919 Z" fill="#000000" fill-rule="nonzero" fill-opacity="1" /><path clip-path="url(#clip760)" d="M585.598 32.4315 Q579.603 32.4315 576.119 37.1306 Q572.635 41.7891 572.635 49.9314 Q572.635 58.0738 576.078 62.7728 Q579.562 67.4314 585.598 67.4314 Q591.553 67.4314 595.037 62.7323 Q598.52 58.0333 598.52 49.9314 Q598.52 41.8701 595.037 37.1711 Q591.553 32.4315 585.598 32.4315 M585.598 26.1121 Q595.32 26.1121 600.87 32.4315 Q606.42 38.7509 606.42 49.9314 Q606.42 61.0714 600.87 67.4314 Q595.32 73.7508 585.598 73.7508 Q575.835 73.7508 570.286 67.4314 Q564.776 61.0714 564.776 49.9314 Q564.776 38.7509 570.286 32.4315 Q575.835 26.1121 585.598 26.1121 Z" fill="#000000" fill-rule="nonzero" fill-opacity="1" /><path clip-path="url(#clip760)" d="M657.583 48.0275 L657.583 51.6733 L623.312 51.6733 Q623.798 59.3701 627.93 63.421 Q632.102 67.4314 639.516 67.4314 Q643.81 67.4314 647.82 66.3781 Q651.871 65.3249 655.841 63.2184 L655.841 70.267 Q651.83 71.9684 647.617 72.8596 Q643.404 73.7508 639.07 73.7508 Q628.214 73.7508 621.854 67.4314 Q615.534 61.1119 615.534 50.3365 Q615.534 39.1965 621.53 32.6746 Q627.565 26.1121 637.774 26.1121 Q646.929 26.1121 652.235 32.0264 Q657.583 37.9003 657.583 48.0275 M650.129 45.84 Q650.048 39.7232 646.686 36.0774 Q643.364 32.4315 637.855 32.4315 Q631.616 32.4315 627.849 35.9558 Q624.122 39.4801 623.555 45.8805 L650.129 45.84 Z" fill="#000000" fill-rule="nonzero" fill-opacity="1" /><path clip-path="url(#clip760)" d="M707.53 45.1919 L707.53 72.576 L700.077 72.576 L700.077 45.4349 Q700.077 38.994 697.565 35.7938 Q695.053 32.5936 690.03 32.5936 Q683.995 32.5936 680.511 36.4419 Q677.027 40.2903 677.027 46.9338 L677.027 72.576 L669.533 72.576 L669.533 27.2059 L677.027 27.2059 L677.027 34.2544 Q679.701 30.163 683.306 28.1376 Q686.952 26.1121 691.691 26.1121 Q699.509 26.1121 703.52 30.9732 Q707.53 35.7938 707.53 45.1919 Z" fill="#000000" fill-rule="nonzero" fill-opacity="1" /><path clip-path="url(#clip760)" d="M761.205 48.0275 L761.205 51.6733 L726.934 51.6733 Q727.42 59.3701 731.552 63.421 Q735.725 67.4314 743.138 67.4314 Q747.432 67.4314 751.442 66.3781 Q755.493 65.3249 759.463 63.2184 L759.463 70.267 Q755.452 71.9684 751.24 72.8596 Q747.027 73.7508 742.692 73.7508 Q731.836 73.7508 725.476 67.4314 Q719.156 61.1119 719.156 50.3365 Q719.156 39.1965 725.152 32.6746 Q731.188 26.1121 741.396 26.1121 Q750.551 26.1121 755.858 32.0264 Q761.205 37.9003 761.205 48.0275 M753.751 45.84 Q753.67 39.7232 750.308 36.0774 Q746.986 32.4315 741.477 32.4315 Q735.238 32.4315 731.471 35.9558 Q727.744 39.4801 727.177 45.8805 L753.751 45.84 Z" fill="#000000" fill-rule="nonzero" fill-opacity="1" /><path clip-path="url(#clip760)" d="M799.729 34.1734 Q798.473 33.4443 796.974 33.1202 Q795.516 32.7556 793.734 32.7556 Q787.414 32.7556 784.011 36.8875 Q780.649 40.9789 780.649 48.6757 L780.649 72.576 L773.155 72.576 L773.155 27.2059 L780.649 27.2059 L780.649 34.2544 Q782.999 30.1225 786.766 28.1376 Q790.533 26.1121 795.921 26.1121 Q796.691 26.1121 797.622 26.2337 Q798.554 26.3147 799.688 26.5172 L799.729 34.1734 Z" fill="#000000" fill-rule="nonzero" fill-opacity="1" /><path clip-path="url(#clip760)" d="M835.944 49.3643 Q835.944 41.2625 832.582 36.8065 Q829.26 32.3505 823.224 32.3505 Q817.229 32.3505 813.866 36.8065 Q810.545 41.2625 810.545 49.3643 Q810.545 57.4256 813.866 61.8816 Q817.229 66.3376 823.224 66.3376 Q829.26 66.3376 832.582 61.8816 Q835.944 57.4256 835.944 49.3643 M843.398 66.9452 Q843.398 78.5308 838.253 84.1616 Q833.108 89.8329 822.495 89.8329 Q818.566 89.8329 815.082 89.2252 Q811.598 88.6581 808.317 87.4428 L808.317 80.1917 Q811.598 81.9741 814.798 82.8248 Q817.998 83.6755 821.32 83.6755 Q828.652 83.6755 832.298 79.8271 Q835.944 76.0193 835.944 68.282 L835.944 64.5957 Q833.635 68.6061 830.03 70.5911 Q826.424 72.576 821.401 72.576 Q813.056 72.576 807.952 66.2161 Q802.848 59.8562 802.848 49.3643 Q802.848 38.832 807.952 32.472 Q813.056 26.1121 821.401 26.1121 Q826.424 26.1121 830.03 28.0971 Q833.635 30.082 835.944 34.0924 L835.944 27.2059 L843.398 27.2059 L843.398 66.9452 Z" fill="#000000" fill-rule="nonzero" fill-opacity="1" /><path clip-path="url(#clip760)" d="M897.558 48.0275 L897.558 51.6733 L863.288 51.6733 Q863.774 59.3701 867.906 63.421 Q872.078 67.4314 879.491 67.4314 Q883.785 67.4314 887.796 66.3781 Q891.846 65.3249 895.816 63.2184 L895.816 70.267 Q891.806 71.9684 887.593 72.8596 Q883.38 73.7508 879.046 73.7508 Q868.189 73.7508 861.829 67.4314 Q855.51 61.1119 855.51 50.3365 Q855.51 39.1965 861.505 32.6746 Q867.541 26.1121 877.749 26.1121 Q886.904 26.1121 892.211 32.0264 Q897.558 37.9003 897.558 48.0275 M890.105 45.84 Q890.023 39.7232 886.661 36.0774 Q883.34 32.4315 877.83 32.4315 Q871.592 32.4315 867.825 35.9558 Q864.098 39.4801 863.531 45.8805 L890.105 45.84 Z" fill="#000000" fill-rule="nonzero" fill-opacity="1" /><path clip-path="url(#clip760)" d="M917.165 14.324 L917.165 27.2059 L932.517 27.2059 L932.517 32.9987 L917.165 32.9987 L917.165 57.6282 Q917.165 63.1779 918.663 64.7578 Q920.203 66.3376 924.861 66.3376 L932.517 66.3376 L932.517 72.576 L924.861 72.576 Q916.233 72.576 912.952 69.3758 Q909.67 66.1351 909.67 57.6282 L909.67 32.9987 L904.202 32.9987 L904.202 27.2059 L909.67 27.2059 L909.67 14.324 L917.165 14.324 Z" fill="#000000" fill-rule="nonzero" fill-opacity="1" /><path clip-path="url(#clip760)" d="M942.321 27.2059 L949.774 27.2059 L949.774 72.576 L942.321 72.576 L942.321 27.2059 M942.321 9.54393 L949.774 9.54393 L949.774 18.9825 L942.321 18.9825 L942.321 9.54393 Z" fill="#000000" fill-rule="nonzero" fill-opacity="1" /><path clip-path="url(#clip760)" d="M998.021 28.9478 L998.021 35.9153 Q994.861 34.1734 991.661 33.3227 Q988.501 32.4315 985.26 32.4315 Q978.009 32.4315 973.999 37.0496 Q969.988 41.6271 969.988 49.9314 Q969.988 58.2358 973.999 62.8538 Q978.009 67.4314 985.26 67.4314 Q988.501 67.4314 991.661 66.5807 Q994.861 65.6895 998.021 63.9476 L998.021 70.8341 Q994.901 72.2924 991.539 73.0216 Q988.217 73.7508 984.45 73.7508 Q974.201 73.7508 968.165 67.3098 Q962.13 60.8689 962.13 49.9314 Q962.13 38.832 968.206 32.472 Q974.323 26.1121 984.936 26.1121 Q988.379 26.1121 991.661 26.8413 Q994.942 27.5299 998.021 28.9478 Z" fill="#000000" fill-rule="nonzero" fill-opacity="1" /><path clip-path="url(#clip760)" d="M1037.68 12.096 L1048.7 12.096 L1075.51 62.6918 L1075.51 12.096 L1083.45 12.096 L1083.45 72.576 L1072.44 72.576 L1045.62 21.9802 L1045.62 72.576 L1037.68 72.576 L1037.68 12.096 Z" fill="#000000" fill-rule="nonzero" fill-opacity="1" /><path clip-path="url(#clip760)" d="M1138.22 48.0275 L1138.22 51.6733 L1103.95 51.6733 Q1104.44 59.3701 1108.57 63.421 Q1112.74 67.4314 1120.16 67.4314 Q1124.45 67.4314 1128.46 66.3781 Q1132.51 65.3249 1136.48 63.2184 L1136.48 70.267 Q1132.47 71.9684 1128.26 72.8596 Q1124.04 73.7508 1119.71 73.7508 Q1108.85 73.7508 1102.49 67.4314 Q1096.17 61.1119 1096.17 50.3365 Q1096.17 39.1965 1102.17 32.6746 Q1108.21 26.1121 1118.41 26.1121 Q1127.57 26.1121 1132.88 32.0264 Q1138.22 37.9003 1138.22 48.0275 M1130.77 45.84 Q1130.69 39.7232 1127.33 36.0774 Q1124 32.4315 1118.49 32.4315 Q1112.26 32.4315 1108.49 35.9558 Q1104.76 39.4801 1104.19 45.8805 L1130.77 45.84 Z" fill="#000000" fill-rule="nonzero" fill-opacity="1" /><path clip-path="url(#clip760)" d="M1149.69 54.671 L1149.69 27.2059 L1157.14 27.2059 L1157.14 54.3874 Q1157.14 60.8284 1159.65 64.0691 Q1162.16 67.2693 1167.19 67.2693 Q1173.22 67.2693 1176.71 63.421 Q1180.23 59.5726 1180.23 52.9291 L1180.23 27.2059 L1187.68 27.2059 L1187.68 72.576 L1180.23 72.576 L1180.23 65.6084 Q1177.52 69.7404 1173.91 71.7658 Q1170.35 73.7508 1165.61 73.7508 Q1157.79 73.7508 1153.74 68.8897 Q1149.69 64.0286 1149.69 54.671 M1168.44 26.1121 L1168.44 26.1121 Z" fill="#000000" fill-rule="nonzero" fill-opacity="1" /><path clip-path="url(#clip760)" d="M1210.41 14.324 L1210.41 27.2059 L1225.76 27.2059 L1225.76 32.9987 L1210.41 32.9987 L1210.41 57.6282 Q1210.41 63.1779 1211.91 64.7578 Q1213.45 66.3376 1218.11 66.3376 L1225.76 66.3376 L1225.76 72.576 L1218.11 72.576 Q1209.48 72.576 1206.2 69.3758 Q1202.92 66.1351 1202.92 57.6282 L1202.92 32.9987 L1197.45 32.9987 L1197.45 27.2059 L1202.92 27.2059 L1202.92 14.324 L1210.41 14.324 Z" fill="#000000" fill-rule="nonzero" fill-opacity="1" /><path clip-path="url(#clip760)" d="M1261.86 34.1734 Q1260.6 33.4443 1259.1 33.1202 Q1257.64 32.7556 1255.86 32.7556 Q1249.54 32.7556 1246.14 36.8875 Q1242.78 40.9789 1242.78 48.6757 L1242.78 72.576 L1235.28 72.576 L1235.28 27.2059 L1242.78 27.2059 L1242.78 34.2544 Q1245.13 30.1225 1248.89 28.1376 Q1252.66 26.1121 1258.05 26.1121 Q1258.82 26.1121 1259.75 26.2337 Q1260.68 26.3147 1261.82 26.5172 L1261.86 34.1734 Z" fill="#000000" fill-rule="nonzero" fill-opacity="1" /><path clip-path="url(#clip760)" d="M1285.43 32.4315 Q1279.44 32.4315 1275.95 37.1306 Q1272.47 41.7891 1272.47 49.9314 Q1272.47 58.0738 1275.91 62.7728 Q1279.4 67.4314 1285.43 67.4314 Q1291.39 67.4314 1294.87 62.7323 Q1298.35 58.0333 1298.35 49.9314 Q1298.35 41.8701 1294.87 37.1711 Q1291.39 32.4315 1285.43 32.4315 M1285.43 26.1121 Q1295.15 26.1121 1300.7 32.4315 Q1306.25 38.7509 1306.25 49.9314 Q1306.25 61.0714 1300.7 67.4314 Q1295.15 73.7508 1285.43 73.7508 Q1275.67 73.7508 1270.12 67.4314 Q1264.61 61.0714 1264.61 49.9314 Q1264.61 38.7509 1270.12 32.4315 Q1275.67 26.1121 1285.43 26.1121 Z" fill="#000000" fill-rule="nonzero" fill-opacity="1" /><path clip-path="url(#clip760)" d="M1356.32 45.1919 L1356.32 72.576 L1348.87 72.576 L1348.87 45.4349 Q1348.87 38.994 1346.36 35.7938 Q1343.85 32.5936 1338.82 32.5936 Q1332.79 32.5936 1329.3 36.4419 Q1325.82 40.2903 1325.82 46.9338 L1325.82 72.576 L1318.33 72.576 L1318.33 27.2059 L1325.82 27.2059 L1325.82 34.2544 Q1328.49 30.163 1332.1 28.1376 Q1335.74 26.1121 1340.48 26.1121 Q1348.3 26.1121 1352.31 30.9732 Q1356.32 35.7938 1356.32 45.1919 Z" fill="#000000" fill-rule="nonzero" fill-opacity="1" /><path clip-path="url(#clip760)" d="M1434.14 14.0809 L1434.14 22.0612 Q1429.48 19.8332 1425.35 18.7395 Q1421.22 17.6457 1417.37 17.6457 Q1410.69 17.6457 1407.04 20.2383 Q1403.44 22.8309 1403.44 27.611 Q1403.44 31.6214 1405.83 33.6873 Q1408.26 35.7128 1414.98 36.9686 L1419.92 37.9813 Q1429.08 39.7232 1433.41 44.1387 Q1437.79 48.5136 1437.79 55.8863 Q1437.79 64.6767 1431.87 69.2137 Q1426 73.7508 1414.62 73.7508 Q1410.32 73.7508 1405.46 72.7785 Q1400.64 71.8063 1395.45 69.9024 L1395.45 61.4765 Q1400.44 64.2716 1405.22 65.6895 Q1410 67.1073 1414.62 67.1073 Q1421.62 67.1073 1425.43 64.3527 Q1429.24 61.598 1429.24 56.4939 Q1429.24 52.0379 1426.48 49.5264 Q1423.77 47.0148 1417.53 45.759 L1412.55 44.7868 Q1403.39 42.9639 1399.3 39.075 Q1395.21 35.1862 1395.21 28.2591 Q1395.21 20.2383 1400.84 15.6203 Q1406.51 11.0023 1416.44 11.0023 Q1420.69 11.0023 1425.11 11.7719 Q1429.52 12.5416 1434.14 14.0809 Z" fill="#000000" fill-rule="nonzero" fill-opacity="1" /><path clip-path="url(#clip760)" d="M1457.43 65.7705 L1457.43 89.8329 L1449.94 89.8329 L1449.94 27.2059 L1457.43 27.2059 L1457.43 34.0924 Q1459.78 30.0415 1463.35 28.0971 Q1466.95 26.1121 1471.94 26.1121 Q1480.2 26.1121 1485.34 32.6746 Q1490.53 39.2371 1490.53 49.9314 Q1490.53 60.6258 1485.34 67.1883 Q1480.2 73.7508 1471.94 73.7508 Q1466.95 73.7508 1463.35 71.8063 Q1459.78 69.8214 1457.43 65.7705 M1482.79 49.9314 Q1482.79 41.7081 1479.39 37.0496 Q1476.03 32.3505 1470.11 32.3505 Q1464.2 32.3505 1460.8 37.0496 Q1457.43 41.7081 1457.43 49.9314 Q1457.43 58.1548 1460.8 62.8538 Q1464.2 67.5124 1470.11 67.5124 Q1476.03 67.5124 1479.39 62.8538 Q1482.79 58.1548 1482.79 49.9314 Z" fill="#000000" fill-rule="nonzero" fill-opacity="1" /><path clip-path="url(#clip760)" d="M1541.69 48.0275 L1541.69 51.6733 L1507.42 51.6733 Q1507.91 59.3701 1512.04 63.421 Q1516.21 67.4314 1523.63 67.4314 Q1527.92 67.4314 1531.93 66.3781 Q1535.98 65.3249 1539.95 63.2184 L1539.95 70.267 Q1535.94 71.9684 1531.73 72.8596 Q1527.51 73.7508 1523.18 73.7508 Q1512.32 73.7508 1505.96 67.4314 Q1499.64 61.1119 1499.64 50.3365 Q1499.64 39.1965 1505.64 32.6746 Q1511.68 26.1121 1521.88 26.1121 Q1531.04 26.1121 1536.35 32.0264 Q1541.69 37.9003 1541.69 48.0275 M1534.24 45.84 Q1534.16 39.7232 1530.8 36.0774 Q1527.47 32.4315 1521.96 32.4315 Q1515.73 32.4315 1511.96 35.9558 Q1508.23 39.4801 1507.66 45.8805 L1534.24 45.84 Z" fill="#000000" fill-rule="nonzero" fill-opacity="1" /><path clip-path="url(#clip760)" d="M1586.58 28.9478 L1586.58 35.9153 Q1583.42 34.1734 1580.22 33.3227 Q1577.06 32.4315 1573.82 32.4315 Q1566.57 32.4315 1562.55 37.0496 Q1558.54 41.6271 1558.54 49.9314 Q1558.54 58.2358 1562.55 62.8538 Q1566.57 67.4314 1573.82 67.4314 Q1577.06 67.4314 1580.22 66.5807 Q1583.42 65.6895 1586.58 63.9476 L1586.58 70.8341 Q1583.46 72.2924 1580.1 73.0216 Q1576.77 73.7508 1573.01 73.7508 Q1562.76 73.7508 1556.72 67.3098 Q1550.69 60.8689 1550.69 49.9314 Q1550.69 38.832 1556.76 32.472 Q1562.88 26.1121 1573.49 26.1121 Q1576.94 26.1121 1580.22 26.8413 Q1583.5 27.5299 1586.58 28.9478 Z" fill="#000000" fill-rule="nonzero" fill-opacity="1" /><path clip-path="url(#clip760)" d="M1606.91 14.324 L1606.91 27.2059 L1622.26 27.2059 L1622.26 32.9987 L1606.91 32.9987 L1606.91 57.6282 Q1606.91 63.1779 1608.41 64.7578 Q1609.95 66.3376 1614.61 66.3376 L1622.26 66.3376 L1622.26 72.576 L1614.61 72.576 Q1605.98 72.576 1602.7 69.3758 Q1599.42 66.1351 1599.42 57.6282 L1599.42 32.9987 L1593.95 32.9987 L1593.95 27.2059 L1599.42 27.2059 L1599.42 14.324 L1606.91 14.324 Z" fill="#000000" fill-rule="nonzero" fill-opacity="1" /><path clip-path="url(#clip760)" d="M1658.36 34.1734 Q1657.1 33.4443 1655.6 33.1202 Q1654.15 32.7556 1652.36 32.7556 Q1646.04 32.7556 1642.64 36.8875 Q1639.28 40.9789 1639.28 48.6757 L1639.28 72.576 L1631.78 72.576 L1631.78 27.2059 L1639.28 27.2059 L1639.28 34.2544 Q1641.63 30.1225 1645.4 28.1376 Q1649.16 26.1121 1654.55 26.1121 Q1655.32 26.1121 1656.25 26.2337 Q1657.18 26.3147 1658.32 26.5172 L1658.36 34.1734 Z" fill="#000000" fill-rule="nonzero" fill-opacity="1" /><path clip-path="url(#clip760)" d="M1665.41 54.671 L1665.41 27.2059 L1672.86 27.2059 L1672.86 54.3874 Q1672.86 60.8284 1675.37 64.0691 Q1677.88 67.2693 1682.91 67.2693 Q1688.94 67.2693 1692.43 63.421 Q1695.95 59.5726 1695.95 52.9291 L1695.95 27.2059 L1703.4 27.2059 L1703.4 72.576 L1695.95 72.576 L1695.95 65.6084 Q1693.24 69.7404 1689.63 71.7658 Q1686.07 73.7508 1681.33 73.7508 Q1673.51 73.7508 1669.46 68.8897 Q1665.41 64.0286 1665.41 54.671 M1684.16 26.1121 L1684.16 26.1121 Z" fill="#000000" fill-rule="nonzero" fill-opacity="1" /><path clip-path="url(#clip760)" d="M1754.08 35.9153 Q1756.88 30.8922 1760.77 28.5022 Q1764.65 26.1121 1769.92 26.1121 Q1777.01 26.1121 1780.86 31.0947 Q1784.71 36.0368 1784.71 45.1919 L1784.71 72.576 L1777.21 72.576 L1777.21 45.4349 Q1777.21 38.913 1774.9 35.7533 Q1772.59 32.5936 1767.85 32.5936 Q1762.06 32.5936 1758.7 36.4419 Q1755.34 40.2903 1755.34 46.9338 L1755.34 72.576 L1747.84 72.576 L1747.84 45.4349 Q1747.84 38.8725 1745.53 35.7533 Q1743.22 32.5936 1738.4 32.5936 Q1732.69 32.5936 1729.33 36.4824 Q1725.97 40.3308 1725.97 46.9338 L1725.97 72.576 L1718.47 72.576 L1718.47 27.2059 L1725.97 27.2059 L1725.97 34.2544 Q1728.52 30.082 1732.08 28.0971 Q1735.65 26.1121 1740.55 26.1121 Q1745.49 26.1121 1748.94 28.6237 Q1752.42 31.1352 1754.08 35.9153 Z" fill="#000000" fill-rule="nonzero" fill-opacity="1" /><path clip-path="url(#clip762)" d="M320.383 1022.27 L320.383 1035.39 L405.792 1035.39 L405.792 1022.27 L320.383 1022.27 L320.383 1022.27  Z" fill="#000000" fill-rule="evenodd" fill-opacity="1"/>
<polyline clip-path="url(#clip762)" style="stroke:#000000; stroke-linecap:round; stroke-linejoin:round; stroke-width:4; stroke-opacity:1; fill:none" points="320.383,1022.27 320.383,1035.39 405.792,1035.39 405.792,1022.27 320.383,1022.27 "/>
<path clip-path="url(#clip762)" d="M405.792 982.933 L405.792 1035.39 L491.201 1035.39 L491.201 982.933 L405.792 982.933 L405.792 982.933  Z" fill="#000000" fill-rule="evenodd" fill-opacity="1"/>
<polyline clip-path="url(#clip762)" style="stroke:#000000; stroke-linecap:round; stroke-linejoin:round; stroke-width:4; stroke-opacity:1; fill:none" points="405.792,982.933 405.792,1035.39 491.201,1035.39 491.201,982.933 405.792,982.933 "/>
<path clip-path="url(#clip762)" d="M491.201 943.591 L491.201 1035.39 L576.61 1035.39 L576.61 943.591 L491.201 943.591 L491.201 943.591  Z" fill="#000000" fill-rule="evenodd" fill-opacity="1"/>
<polyline clip-path="url(#clip762)" style="stroke:#000000; stroke-linecap:round; stroke-linejoin:round; stroke-width:4; stroke-opacity:1; fill:none" points="491.201,943.591 491.201,1035.39 576.61,1035.39 576.61,943.591 491.201,943.591 "/>
<path clip-path="url(#clip762)" d="M576.61 812.454 L576.61 1035.39 L662.019 1035.39 L662.019 812.454 L576.61 812.454 L576.61 812.454  Z" fill="#000000" fill-rule="evenodd" fill-opacity="1"/>
<polyline clip-path="url(#clip762)" style="stroke:#000000; stroke-linecap:round; stroke-linejoin:round; stroke-width:4; stroke-opacity:1; fill:none" points="576.61,812.454 576.61,1035.39 662.019,1035.39 662.019,812.454 576.61,812.454 "/>
<path clip-path="url(#clip762)" d="M662.019 746.885 L662.019 1035.39 L747.428 1035.39 L747.428 746.885 L662.019 746.885 L662.019 746.885  Z" fill="#000000" fill-rule="evenodd" fill-opacity="1"/>
<polyline clip-path="url(#clip762)" style="stroke:#000000; stroke-linecap:round; stroke-linejoin:round; stroke-width:4; stroke-opacity:1; fill:none" points="662.019,746.885 662.019,1035.39 747.428,1035.39 747.428,746.885 662.019,746.885 "/>
<path clip-path="url(#clip762)" d="M747.428 799.34 L747.428 1035.39 L832.837 1035.39 L832.837 799.34 L747.428 799.34 L747.428 799.34  Z" fill="#000000" fill-rule="evenodd" fill-opacity="1"/>
<polyline clip-path="url(#clip762)" style="stroke:#000000; stroke-linecap:round; stroke-linejoin:round; stroke-width:4; stroke-opacity:1; fill:none" points="747.428,799.34 747.428,1035.39 832.837,1035.39 832.837,799.34 747.428,799.34 "/>
<path clip-path="url(#clip762)" d="M832.837 729.4 L832.837 1035.39 L918.246 1035.39 L918.246 729.4 L832.837 729.4 L832.837 729.4  Z" fill="#000000" fill-rule="evenodd" fill-opacity="1"/>
<polyline clip-path="url(#clip762)" style="stroke:#000000; stroke-linecap:round; stroke-linejoin:round; stroke-width:4; stroke-opacity:1; fill:none" points="832.837,729.4 832.837,1035.39 918.246,1035.39 918.246,729.4 832.837,729.4 "/>
<path clip-path="url(#clip762)" d="M918.246 891.136 L918.246 1035.39 L1003.66 1035.39 L1003.66 891.136 L918.246 891.136 L918.246 891.136  Z" fill="#000000" fill-rule="evenodd" fill-opacity="1"/>
<polyline clip-path="url(#clip762)" style="stroke:#000000; stroke-linecap:round; stroke-linejoin:round; stroke-width:4; stroke-opacity:1; fill:none" points="918.246,891.136 918.246,1035.39 1003.66,1035.39 1003.66,891.136 918.246,891.136 "/>
<path clip-path="url(#clip762)" d="M1003.66 969.819 L1003.66 1035.39 L1089.06 1035.39 L1089.06 969.819 L1003.66 969.819 L1003.66 969.819  Z" fill="#000000" fill-rule="evenodd" fill-opacity="1"/>
<polyline clip-path="url(#clip762)" style="stroke:#000000; stroke-linecap:round; stroke-linejoin:round; stroke-width:4; stroke-opacity:1; fill:none" points="1003.66,969.819 1003.66,1035.39 1089.06,1035.39 1089.06,969.819 1003.66,969.819 "/>
<path clip-path="url(#clip762)" d="M1089.06 270.418 L1089.06 1035.39 L1174.47 1035.39 L1174.47 270.418 L1089.06 270.418 L1089.06 270.418  Z" fill="#000000" fill-rule="evenodd" fill-opacity="1"/>
<polyline clip-path="url(#clip762)" style="stroke:#000000; stroke-linecap:round; stroke-linejoin:round; stroke-width:4; stroke-opacity:1; fill:none" points="1089.06,270.418 1089.06,1035.39 1174.47,1035.39 1174.47,270.418 1089.06,270.418 "/>
<path clip-path="url(#clip762)" d="M1174.47 117.424 L1174.47 1035.39 L1259.88 1035.39 L1259.88 117.424 L1174.47 117.424 L1174.47 117.424  Z" fill="#000000" fill-rule="evenodd" fill-opacity="1"/>
<polyline clip-path="url(#clip762)" style="stroke:#000000; stroke-linecap:round; stroke-linejoin:round; stroke-width:4; stroke-opacity:1; fill:none" points="1174.47,117.424 1174.47,1035.39 1259.88,1035.39 1259.88,117.424 1174.47,117.424 "/>
<path clip-path="url(#clip762)" d="M1259.88 1031.02 L1259.88 1035.39 L1345.29 1035.39 L1345.29 1031.02 L1259.88 1031.02 L1259.88 1031.02  Z" fill="#000000" fill-rule="evenodd" fill-opacity="1"/>
<polyline clip-path="url(#clip762)" style="stroke:#000000; stroke-linecap:round; stroke-linejoin:round; stroke-width:4; stroke-opacity:1; fill:none" points="1259.88,1031.02 1259.88,1035.39 1345.29,1035.39 1345.29,1031.02 1259.88,1031.02 "/>
<path clip-path="url(#clip762)" d="M1345.29 1035.39 L1345.29 1035.39 L1430.7 1035.39 L1430.7 1035.39 L1345.29 1035.39 L1345.29 1035.39  Z" fill="#000000" fill-rule="evenodd" fill-opacity="1"/>
<polyline clip-path="url(#clip762)" style="stroke:#000000; stroke-linecap:round; stroke-linejoin:round; stroke-width:4; stroke-opacity:1; fill:none" points="1345.29,1035.39 1345.29,1035.39 1430.7,1035.39 1345.29,1035.39 "/>
<path clip-path="url(#clip762)" d="M1430.7 1035.39 L1430.7 1035.39 L1516.11 1035.39 L1516.11 1035.39 L1430.7 1035.39 L1430.7 1035.39  Z" fill="#000000" fill-rule="evenodd" fill-opacity="1"/>
<polyline clip-path="url(#clip762)" style="stroke:#000000; stroke-linecap:round; stroke-linejoin:round; stroke-width:4; stroke-opacity:1; fill:none" points="1430.7,1035.39 1430.7,1035.39 1516.11,1035.39 1430.7,1035.39 "/>
<path clip-path="url(#clip762)" d="M1516.11 1035.39 L1516.11 1035.39 L1601.52 1035.39 L1601.52 1035.39 L1516.11 1035.39 L1516.11 1035.39  Z" fill="#000000" fill-rule="evenodd" fill-opacity="1"/>
<polyline clip-path="url(#clip762)" style="stroke:#000000; stroke-linecap:round; stroke-linejoin:round; stroke-width:4; stroke-opacity:1; fill:none" points="1516.11,1035.39 1516.11,1035.39 1601.52,1035.39 1516.11,1035.39 "/>
<path clip-path="url(#clip762)" d="M1601.52 1035.39 L1601.52 1035.39 L1686.93 1035.39 L1686.93 1035.39 L1601.52 1035.39 L1601.52 1035.39  Z" fill="#000000" fill-rule="evenodd" fill-opacity="1"/>
<polyline clip-path="url(#clip762)" style="stroke:#000000; stroke-linecap:round; stroke-linejoin:round; stroke-width:4; stroke-opacity:1; fill:none" points="1601.52,1035.39 1601.52,1035.39 1686.93,1035.39 1601.52,1035.39 "/>
<path clip-path="url(#clip762)" d="M1686.93 1031.02 L1686.93 1035.39 L1772.34 1035.39 L1772.34 1031.02 L1686.93 1031.02 L1686.93 1031.02  Z" fill="#000000" fill-rule="evenodd" fill-opacity="1"/>
<polyline clip-path="url(#clip762)" style="stroke:#000000; stroke-linecap:round; stroke-linejoin:round; stroke-width:4; stroke-opacity:1; fill:none" points="1686.93,1031.02 1686.93,1035.39 1772.34,1035.39 1772.34,1031.02 1686.93,1031.02 "/>
<path clip-path="url(#clip762)" d="M1772.34 1031.02 L1772.34 1035.39 L1857.75 1035.39 L1857.75 1031.02 L1772.34 1031.02 L1772.34 1031.02  Z" fill="#000000" fill-rule="evenodd" fill-opacity="1"/>
<polyline clip-path="url(#clip762)" style="stroke:#000000; stroke-linecap:round; stroke-linejoin:round; stroke-width:4; stroke-opacity:1; fill:none" points="1772.34,1031.02 1772.34,1035.39 1857.75,1035.39 1857.75,1031.02 1772.34,1031.02 "/>
<circle clip-path="url(#clip762)" style="fill:#000000; stroke:none; fill-opacity:0" cx="363.087" cy="1022.27" r="2"/>
<circle clip-path="url(#clip762)" style="fill:#000000; stroke:none; fill-opacity:0" cx="448.496" cy="982.933" r="2"/>
<circle clip-path="url(#clip762)" style="fill:#000000; stroke:none; fill-opacity:0" cx="533.905" cy="943.591" r="2"/>
<circle clip-path="url(#clip762)" style="fill:#000000; stroke:none; fill-opacity:0" cx="619.314" cy="812.454" r="2"/>
<circle clip-path="url(#clip762)" style="fill:#000000; stroke:none; fill-opacity:0" cx="704.724" cy="746.885" r="2"/>
<circle clip-path="url(#clip762)" style="fill:#000000; stroke:none; fill-opacity:0" cx="790.133" cy="799.34" r="2"/>
<circle clip-path="url(#clip762)" style="fill:#000000; stroke:none; fill-opacity:0" cx="875.542" cy="729.4" r="2"/>
<circle clip-path="url(#clip762)" style="fill:#000000; stroke:none; fill-opacity:0" cx="960.951" cy="891.136" r="2"/>
<circle clip-path="url(#clip762)" style="fill:#000000; stroke:none; fill-opacity:0" cx="1046.36" cy="969.819" r="2"/>
<circle clip-path="url(#clip762)" style="fill:#000000; stroke:none; fill-opacity:0" cx="1131.77" cy="270.418" r="2"/>
<circle clip-path="url(#clip762)" style="fill:#000000; stroke:none; fill-opacity:0" cx="1217.18" cy="117.424" r="2"/>
<circle clip-path="url(#clip762)" style="fill:#000000; stroke:none; fill-opacity:0" cx="1302.59" cy="1031.02" r="2"/>
<circle clip-path="url(#clip762)" style="fill:#000000; stroke:none; fill-opacity:0" cx="1388" cy="1035.39" r="2"/>
<circle clip-path="url(#clip762)" style="fill:#000000; stroke:none; fill-opacity:0" cx="1473.41" cy="1035.39" r="2"/>
<circle clip-path="url(#clip762)" style="fill:#000000; stroke:none; fill-opacity:0" cx="1558.81" cy="1035.39" r="2"/>
<circle clip-path="url(#clip762)" style="fill:#000000; stroke:none; fill-opacity:0" cx="1644.22" cy="1035.39" r="2"/>
<circle clip-path="url(#clip762)" style="fill:#000000; stroke:none; fill-opacity:0" cx="1729.63" cy="1031.02" r="2"/>
<circle clip-path="url(#clip762)" style="fill:#000000; stroke:none; fill-opacity:0" cx="1815.04" cy="1031.02" r="2"/>
<path clip-path="url(#clip760)" d="M1573.99 251.703 L1895.18 251.703 L1895.18 148.023 L1573.99 148.023  Z" fill="#ffffff" fill-rule="evenodd" fill-opacity="1"/>
<polyline clip-path="url(#clip760)" style="stroke:#000000; stroke-linecap:round; stroke-linejoin:round; stroke-width:4; stroke-opacity:1; fill:none" points="1573.99,251.703 1895.18,251.703 1895.18,148.023 1573.99,148.023 1573.99,251.703 "/>
<path clip-path="url(#clip760)" d="M1593.18 220.599 L1708.34 220.599 L1708.34 179.127 L1593.18 179.127 L1593.18 220.599  Z" fill="#000000" fill-rule="evenodd" fill-opacity="1"/>
<polyline clip-path="url(#clip760)" style="stroke:#000000; stroke-linecap:round; stroke-linejoin:round; stroke-width:4; stroke-opacity:1; fill:none" points="1593.18,220.599 1708.34,220.599 1708.34,179.127 1593.18,179.127 1593.18,220.599 "/>
<path clip-path="url(#clip760)" d="M1727.54 182.583 L1733.83 182.583 L1749.16 211.495 L1749.16 182.583 L1753.69 182.583 L1753.69 217.143 L1747.4 217.143 L1732.07 188.231 L1732.07 217.143 L1727.54 217.143 L1727.54 182.583 Z" fill="#000000" fill-rule="nonzero" fill-opacity="1" /><path clip-path="url(#clip760)" d="M1772.86 194.203 Q1769.43 194.203 1767.44 196.888 Q1765.45 199.55 1765.45 204.203 Q1765.45 208.856 1767.42 211.541 Q1769.41 214.203 1772.86 214.203 Q1776.26 214.203 1778.25 211.518 Q1780.24 208.833 1780.24 204.203 Q1780.24 199.597 1778.25 196.912 Q1776.26 194.203 1772.86 194.203 M1772.86 190.592 Q1778.41 190.592 1781.59 194.203 Q1784.76 197.814 1784.76 204.203 Q1784.76 210.569 1781.59 214.203 Q1778.41 217.814 1772.86 217.814 Q1767.28 217.814 1764.11 214.203 Q1760.96 210.569 1760.96 204.203 Q1760.96 197.814 1764.11 194.203 Q1767.28 190.592 1772.86 190.592 Z" fill="#000000" fill-rule="nonzero" fill-opacity="1" /><path clip-path="url(#clip760)" d="M1825.54 192.212 L1825.54 196.194 Q1823.74 195.199 1821.91 194.712 Q1820.1 194.203 1818.25 194.203 Q1814.11 194.203 1811.82 196.842 Q1809.53 199.458 1809.53 204.203 Q1809.53 208.949 1811.82 211.587 Q1814.11 214.203 1818.25 214.203 Q1820.1 214.203 1821.91 213.717 Q1823.74 213.208 1825.54 212.212 L1825.54 216.148 Q1823.76 216.981 1821.84 217.398 Q1819.94 217.814 1817.79 217.814 Q1811.93 217.814 1808.48 214.134 Q1805.03 210.453 1805.03 204.203 Q1805.03 197.861 1808.51 194.226 Q1812 190.592 1818.07 190.592 Q1820.03 190.592 1821.91 191.009 Q1823.78 191.402 1825.54 192.212 Z" fill="#000000" fill-rule="nonzero" fill-opacity="1" /><path clip-path="url(#clip760)" d="M1832.51 206.911 L1832.51 191.217 L1836.77 191.217 L1836.77 206.749 Q1836.77 210.43 1838.21 212.282 Q1839.64 214.111 1842.51 214.111 Q1845.96 214.111 1847.95 211.911 Q1849.96 209.712 1849.96 205.916 L1849.96 191.217 L1854.22 191.217 L1854.22 217.143 L1849.96 217.143 L1849.96 213.161 Q1848.41 215.523 1846.35 216.68 Q1844.32 217.814 1841.61 217.814 Q1837.14 217.814 1834.83 215.036 Q1832.51 212.259 1832.51 206.911 M1843.23 190.592 L1843.23 190.592 Z" fill="#000000" fill-rule="nonzero" fill-opacity="1" /><path clip-path="url(#clip760)" d="M1867.21 183.856 L1867.21 191.217 L1875.98 191.217 L1875.98 194.527 L1867.21 194.527 L1867.21 208.601 Q1867.21 211.773 1868.07 212.675 Q1868.95 213.578 1871.61 213.578 L1875.98 213.578 L1875.98 217.143 L1871.61 217.143 Q1866.68 217.143 1864.8 215.314 Q1862.93 213.462 1862.93 208.601 L1862.93 194.527 L1859.8 194.527 L1859.8 191.217 L1862.93 191.217 L1862.93 183.856 L1867.21 183.856 Z" fill="#000000" fill-rule="nonzero" fill-opacity="1" /></svg>
