<?xml version="1.0" encoding="utf-8"?>
<svg xmlns="http://www.w3.org/2000/svg" xmlns:xlink="http://www.w3.org/1999/xlink" width="600" height="400" viewBox="0 0 2400 1600">
<defs>
  <clipPath id="clip490">
    <rect x="0" y="0" width="2400" height="1600"/>
  </clipPath>
</defs>
<path clip-path="url(#clip490)" d="M0 1600 L2400 1600 L2400 0 L0 0  Z" fill="#ffffff" fill-rule="evenodd" fill-opacity="1"/>
<defs>
  <clipPath id="clip491">
    <rect x="480" y="0" width="1681" height="1600"/>
  </clipPath>
</defs>
<path clip-path="url(#clip490)" d="M340.699 1423.18 L2352.76 1423.18 L2352.76 123.472 L340.699 123.472  Z" fill="#ffffff" fill-rule="evenodd" fill-opacity="1"/>
<defs>
  <clipPath id="clip492">
    <rect x="340" y="123" width="2013" height="1301"/>
  </clipPath>
</defs>
<polyline clip-path="url(#clip492)" style="stroke:#000000; stroke-linecap:round; stroke-linejoin:round; stroke-width:2; stroke-opacity:0.1; fill:none" points="397.644,1423.18 397.644,123.472 "/>
<polyline clip-path="url(#clip492)" style="stroke:#000000; stroke-linecap:round; stroke-linejoin:round; stroke-width:2; stroke-opacity:0.1; fill:none" points="789.827,1423.18 789.827,123.472 "/>
<polyline clip-path="url(#clip492)" style="stroke:#000000; stroke-linecap:round; stroke-linejoin:round; stroke-width:2; stroke-opacity:0.1; fill:none" points="1182.01,1423.18 1182.01,123.472 "/>
<polyline clip-path="url(#clip492)" style="stroke:#000000; stroke-linecap:round; stroke-linejoin:round; stroke-width:2; stroke-opacity:0.1; fill:none" points="1574.19,1423.18 1574.19,123.472 "/>
<polyline clip-path="url(#clip492)" style="stroke:#000000; stroke-linecap:round; stroke-linejoin:round; stroke-width:2; stroke-opacity:0.1; fill:none" points="1966.38,1423.18 1966.38,123.472 "/>
<polyline clip-path="url(#clip492)" style="stroke:#000000; stroke-linecap:round; stroke-linejoin:round; stroke-width:2; stroke-opacity:0.1; fill:none" points="340.699,1386.4 2352.76,1386.4 "/>
<polyline clip-path="url(#clip492)" style="stroke:#000000; stroke-linecap:round; stroke-linejoin:round; stroke-width:2; stroke-opacity:0.1; fill:none" points="340.699,1191.9 2352.76,1191.9 "/>
<polyline clip-path="url(#clip492)" style="stroke:#000000; stroke-linecap:round; stroke-linejoin:round; stroke-width:2; stroke-opacity:0.1; fill:none" points="340.699,997.404 2352.76,997.404 "/>
<polyline clip-path="url(#clip492)" style="stroke:#000000; stroke-linecap:round; stroke-linejoin:round; stroke-width:2; stroke-opacity:0.1; fill:none" points="340.699,802.909 2352.76,802.909 "/>
<polyline clip-path="url(#clip492)" style="stroke:#000000; stroke-linecap:round; stroke-linejoin:round; stroke-width:2; stroke-opacity:0.1; fill:none" points="340.699,608.413 2352.76,608.413 "/>
<polyline clip-path="url(#clip492)" style="stroke:#000000; stroke-linecap:round; stroke-linejoin:round; stroke-width:2; stroke-opacity:0.1; fill:none" points="340.699,413.918 2352.76,413.918 "/>
<polyline clip-path="url(#clip492)" style="stroke:#000000; stroke-linecap:round; stroke-linejoin:round; stroke-width:2; stroke-opacity:0.1; fill:none" points="340.699,219.422 2352.76,219.422 "/>
<polyline clip-path="url(#clip490)" style="stroke:#000000; stroke-linecap:round; stroke-linejoin:round; stroke-width:4; stroke-opacity:1; fill:none" points="340.699,1423.18 2352.76,1423.18 "/>
<polyline clip-path="url(#clip490)" style="stroke:#000000; stroke-linecap:round; stroke-linejoin:round; stroke-width:4; stroke-opacity:1; fill:none" points="397.644,1423.18 397.644,1404.28 "/>
<polyline clip-path="url(#clip490)" style="stroke:#000000; stroke-linecap:round; stroke-linejoin:round; stroke-width:4; stroke-opacity:1; fill:none" points="789.827,1423.18 789.827,1404.28 "/>
<polyline clip-path="url(#clip490)" style="stroke:#000000; stroke-linecap:round; stroke-linejoin:round; stroke-width:4; stroke-opacity:1; fill:none" points="1182.01,1423.18 1182.01,1404.28 "/>
<polyline clip-path="url(#clip490)" style="stroke:#000000; stroke-linecap:round; stroke-linejoin:round; stroke-width:4; stroke-opacity:1; fill:none" points="1574.19,1423.18 1574.19,1404.28 "/>
<polyline clip-path="url(#clip490)" style="stroke:#000000; stroke-linecap:round; stroke-linejoin:round; stroke-width:4; stroke-opacity:1; fill:none" points="1966.38,1423.18 1966.38,1404.28 "/>
<path clip-path="url(#clip490)" d="M397.644 1454.1 Q394.033 1454.1 392.204 1457.66 Q390.399 1461.2 390.399 1468.33 Q390.399 1475.44 392.204 1479.01 Q394.033 1482.55 397.644 1482.55 Q401.278 1482.55 403.084 1479.01 Q404.912 1475.44 404.912 1468.33 Q404.912 1461.2 403.084 1457.66 Q401.278 1454.1 397.644 1454.1 M397.644 1450.39 Q403.454 1450.39 406.51 1455 Q409.588 1459.58 409.588 1468.33 Q409.588 1477.06 406.51 1481.67 Q403.454 1486.25 397.644 1486.25 Q391.834 1486.25 388.755 1481.67 Q385.7 1477.06 385.7 1468.33 Q385.7 1459.58 388.755 1455 Q391.834 1450.39 397.644 1450.39 Z" fill="#000000" fill-rule="nonzero" fill-opacity="1" /><path clip-path="url(#clip490)" d="M764.526 1451.02 L782.883 1451.02 L782.883 1454.96 L768.809 1454.96 L768.809 1463.43 Q769.827 1463.08 770.846 1462.92 Q771.864 1462.73 772.883 1462.73 Q778.67 1462.73 782.049 1465.9 Q785.429 1469.08 785.429 1474.49 Q785.429 1480.07 781.957 1483.17 Q778.485 1486.25 772.165 1486.25 Q769.989 1486.25 767.721 1485.88 Q765.475 1485.51 763.068 1484.77 L763.068 1480.07 Q765.151 1481.2 767.374 1481.76 Q769.596 1482.32 772.073 1482.32 Q776.077 1482.32 778.415 1480.21 Q780.753 1478.1 780.753 1474.49 Q780.753 1470.88 778.415 1468.77 Q776.077 1466.67 772.073 1466.67 Q770.198 1466.67 768.323 1467.08 Q766.471 1467.5 764.526 1468.38 L764.526 1451.02 Z" fill="#000000" fill-rule="nonzero" fill-opacity="1" /><path clip-path="url(#clip490)" d="M804.642 1454.1 Q801.031 1454.1 799.202 1457.66 Q797.397 1461.2 797.397 1468.33 Q797.397 1475.44 799.202 1479.01 Q801.031 1482.55 804.642 1482.55 Q808.276 1482.55 810.082 1479.01 Q811.91 1475.44 811.91 1468.33 Q811.91 1461.2 810.082 1457.66 Q808.276 1454.1 804.642 1454.1 M804.642 1450.39 Q810.452 1450.39 813.508 1455 Q816.586 1459.58 816.586 1468.33 Q816.586 1477.06 813.508 1481.67 Q810.452 1486.25 804.642 1486.25 Q798.832 1486.25 795.753 1481.67 Q792.698 1477.06 792.698 1468.33 Q792.698 1459.58 795.753 1455 Q798.832 1450.39 804.642 1450.39 Z" fill="#000000" fill-rule="nonzero" fill-opacity="1" /><path clip-path="url(#clip490)" d="M1141.62 1481.64 L1149.26 1481.64 L1149.26 1455.28 L1140.95 1456.95 L1140.95 1452.69 L1149.21 1451.02 L1153.89 1451.02 L1153.89 1481.64 L1161.52 1481.64 L1161.52 1485.58 L1141.62 1485.58 L1141.62 1481.64 Z" fill="#000000" fill-rule="nonzero" fill-opacity="1" /><path clip-path="url(#clip490)" d="M1180.97 1454.1 Q1177.36 1454.1 1175.53 1457.66 Q1173.72 1461.2 1173.72 1468.33 Q1173.72 1475.44 1175.53 1479.01 Q1177.36 1482.55 1180.97 1482.55 Q1184.6 1482.55 1186.41 1479.01 Q1188.24 1475.44 1188.24 1468.33 Q1188.24 1461.2 1186.41 1457.66 Q1184.6 1454.1 1180.97 1454.1 M1180.97 1450.39 Q1186.78 1450.39 1189.83 1455 Q1192.91 1459.58 1192.91 1468.33 Q1192.91 1477.06 1189.83 1481.67 Q1186.78 1486.25 1180.97 1486.25 Q1175.16 1486.25 1172.08 1481.67 Q1169.02 1477.06 1169.02 1468.33 Q1169.02 1459.58 1172.08 1455 Q1175.16 1450.39 1180.97 1450.39 Z" fill="#000000" fill-rule="nonzero" fill-opacity="1" /><path clip-path="url(#clip490)" d="M1211.13 1454.1 Q1207.52 1454.1 1205.69 1457.66 Q1203.89 1461.2 1203.89 1468.33 Q1203.89 1475.44 1205.69 1479.01 Q1207.52 1482.55 1211.13 1482.55 Q1214.76 1482.55 1216.57 1479.01 Q1218.4 1475.44 1218.4 1468.33 Q1218.4 1461.2 1216.57 1457.66 Q1214.76 1454.1 1211.13 1454.1 M1211.13 1450.39 Q1216.94 1450.39 1220 1455 Q1223.08 1459.58 1223.08 1468.33 Q1223.08 1477.06 1220 1481.67 Q1216.94 1486.25 1211.13 1486.25 Q1205.32 1486.25 1202.24 1481.67 Q1199.19 1477.06 1199.19 1468.33 Q1199.19 1459.58 1202.24 1455 Q1205.32 1450.39 1211.13 1450.39 Z" fill="#000000" fill-rule="nonzero" fill-opacity="1" /><path clip-path="url(#clip490)" d="M1533.8 1481.64 L1541.44 1481.64 L1541.44 1455.28 L1533.13 1456.95 L1533.13 1452.69 L1541.39 1451.02 L1546.07 1451.02 L1546.07 1481.64 L1553.71 1481.64 L1553.71 1485.58 L1533.8 1485.58 L1533.8 1481.64 Z" fill="#000000" fill-rule="nonzero" fill-opacity="1" /><path clip-path="url(#clip490)" d="M1563.2 1451.02 L1581.55 1451.02 L1581.55 1454.96 L1567.48 1454.96 L1567.48 1463.43 Q1568.5 1463.08 1569.52 1462.92 Q1570.54 1462.73 1571.55 1462.73 Q1577.34 1462.73 1580.72 1465.9 Q1584.1 1469.08 1584.1 1474.49 Q1584.1 1480.07 1580.63 1483.17 Q1577.16 1486.25 1570.84 1486.25 Q1568.66 1486.25 1566.39 1485.88 Q1564.15 1485.51 1561.74 1484.77 L1561.74 1480.07 Q1563.82 1481.2 1566.05 1481.76 Q1568.27 1482.32 1570.74 1482.32 Q1574.75 1482.32 1577.09 1480.21 Q1579.43 1478.1 1579.43 1474.49 Q1579.43 1470.88 1577.09 1468.77 Q1574.75 1466.67 1570.74 1466.67 Q1568.87 1466.67 1566.99 1467.08 Q1565.14 1467.5 1563.2 1468.38 L1563.2 1451.02 Z" fill="#000000" fill-rule="nonzero" fill-opacity="1" /><path clip-path="url(#clip490)" d="M1603.31 1454.1 Q1599.7 1454.1 1597.87 1457.66 Q1596.07 1461.2 1596.07 1468.33 Q1596.07 1475.44 1597.87 1479.01 Q1599.7 1482.55 1603.31 1482.55 Q1606.95 1482.55 1608.75 1479.01 Q1610.58 1475.44 1610.58 1468.33 Q1610.58 1461.2 1608.75 1457.66 Q1606.95 1454.1 1603.31 1454.1 M1603.31 1450.39 Q1609.12 1450.39 1612.18 1455 Q1615.26 1459.58 1615.26 1468.33 Q1615.26 1477.06 1612.18 1481.67 Q1609.12 1486.25 1603.31 1486.25 Q1597.5 1486.25 1594.43 1481.67 Q1591.37 1477.06 1591.37 1468.33 Q1591.37 1459.58 1594.43 1455 Q1597.5 1450.39 1603.31 1450.39 Z" fill="#000000" fill-rule="nonzero" fill-opacity="1" /><path clip-path="url(#clip490)" d="M1930.07 1481.64 L1946.39 1481.64 L1946.39 1485.58 L1924.44 1485.58 L1924.44 1481.64 Q1927.11 1478.89 1931.69 1474.26 Q1936.3 1469.61 1937.48 1468.27 Q1939.72 1465.74 1940.6 1464.01 Q1941.5 1462.25 1941.5 1460.56 Q1941.5 1457.8 1939.56 1456.07 Q1937.64 1454.33 1934.54 1454.33 Q1932.34 1454.33 1929.88 1455.09 Q1927.45 1455.86 1924.68 1457.41 L1924.68 1452.69 Q1927.5 1451.55 1929.95 1450.97 Q1932.41 1450.39 1934.44 1450.39 Q1939.81 1450.39 1943.01 1453.08 Q1946.2 1455.77 1946.2 1460.26 Q1946.2 1462.39 1945.39 1464.31 Q1944.61 1466.2 1942.5 1468.8 Q1941.92 1469.47 1938.82 1472.69 Q1935.72 1475.88 1930.07 1481.64 Z" fill="#000000" fill-rule="nonzero" fill-opacity="1" /><path clip-path="url(#clip490)" d="M1966.2 1454.1 Q1962.59 1454.1 1960.76 1457.66 Q1958.96 1461.2 1958.96 1468.33 Q1958.96 1475.44 1960.76 1479.01 Q1962.59 1482.55 1966.2 1482.55 Q1969.84 1482.55 1971.64 1479.01 Q1973.47 1475.44 1973.47 1468.33 Q1973.47 1461.2 1971.64 1457.66 Q1969.84 1454.1 1966.2 1454.1 M1966.2 1450.39 Q1972.01 1450.39 1975.07 1455 Q1978.15 1459.58 1978.15 1468.33 Q1978.15 1477.06 1975.07 1481.67 Q1972.01 1486.25 1966.2 1486.25 Q1960.39 1486.25 1957.31 1481.67 Q1954.26 1477.06 1954.26 1468.33 Q1954.26 1459.58 1957.31 1455 Q1960.39 1450.39 1966.2 1450.39 Z" fill="#000000" fill-rule="nonzero" fill-opacity="1" /><path clip-path="url(#clip490)" d="M1996.37 1454.1 Q1992.75 1454.1 1990.93 1457.66 Q1989.12 1461.2 1989.12 1468.33 Q1989.12 1475.44 1990.93 1479.01 Q1992.75 1482.55 1996.37 1482.55 Q2000 1482.55 2001.81 1479.01 Q2003.63 1475.44 2003.63 1468.33 Q2003.63 1461.2 2001.81 1457.66 Q2000 1454.1 1996.37 1454.1 M1996.37 1450.39 Q2002.18 1450.39 2005.23 1455 Q2008.31 1459.58 2008.31 1468.33 Q2008.31 1477.06 2005.23 1481.67 Q2002.18 1486.25 1996.37 1486.25 Q1990.56 1486.25 1987.48 1481.67 Q1984.42 1477.06 1984.42 1468.33 Q1984.42 1459.58 1987.48 1455 Q1990.56 1450.39 1996.37 1450.39 Z" fill="#000000" fill-rule="nonzero" fill-opacity="1" /><path clip-path="url(#clip490)" d="M848.802 1524.18 L848.802 1530.96 Q845.555 1527.94 841.863 1526.44 Q838.203 1524.95 834.065 1524.95 Q825.917 1524.95 821.588 1529.95 Q817.26 1534.91 817.26 1544.33 Q817.26 1553.72 821.588 1558.72 Q825.917 1563.68 834.065 1563.68 Q838.203 1563.68 841.863 1562.19 Q845.555 1560.69 848.802 1557.67 L848.802 1564.38 Q845.428 1566.68 841.64 1567.82 Q837.885 1568.97 833.683 1568.97 Q822.893 1568.97 816.687 1562.38 Q810.48 1555.76 810.48 1544.33 Q810.48 1532.87 816.687 1526.28 Q822.893 1519.66 833.683 1519.66 Q837.948 1519.66 841.704 1520.81 Q845.492 1521.92 848.802 1524.18 Z" fill="#000000" fill-rule="nonzero" fill-opacity="1" /><path clip-path="url(#clip490)" d="M874.678 1550.12 Q867.581 1550.12 864.843 1551.75 Q862.106 1553.37 862.106 1557.29 Q862.106 1560.4 864.143 1562.25 Q866.212 1564.07 869.745 1564.07 Q874.615 1564.07 877.543 1560.63 Q880.503 1557.16 880.503 1551.43 L880.503 1550.12 L874.678 1550.12 M886.36 1547.71 L886.36 1568.04 L880.503 1568.04 L880.503 1562.63 Q878.498 1565.88 875.506 1567.44 Q872.514 1568.97 868.185 1568.97 Q862.711 1568.97 859.464 1565.91 Q856.25 1562.82 856.25 1557.67 Q856.25 1551.65 860.26 1548.6 Q864.302 1545.54 872.291 1545.54 L880.503 1545.54 L880.503 1544.97 Q880.503 1540.93 877.829 1538.73 Q875.188 1536.5 870.382 1536.5 Q867.326 1536.5 864.43 1537.23 Q861.533 1537.97 858.86 1539.43 L858.86 1534.02 Q862.074 1532.78 865.098 1532.17 Q868.122 1531.54 870.986 1531.54 Q878.721 1531.54 882.54 1535.55 Q886.36 1539.56 886.36 1547.71 Z" fill="#000000" fill-rule="nonzero" fill-opacity="1" /><path clip-path="url(#clip490)" d="M898.423 1518.52 L904.279 1518.52 L904.279 1568.04 L898.423 1568.04 L898.423 1518.52 Z" fill="#000000" fill-rule="nonzero" fill-opacity="1" /><path clip-path="url(#clip490)" d="M942.187 1533.76 L942.187 1539.24 Q939.704 1537.87 937.19 1537.2 Q934.707 1536.5 932.161 1536.5 Q926.463 1536.5 923.312 1540.13 Q920.161 1543.73 920.161 1550.25 Q920.161 1556.78 923.312 1560.4 Q926.463 1564 932.161 1564 Q934.707 1564 937.19 1563.33 Q939.704 1562.63 942.187 1561.26 L942.187 1566.68 Q939.736 1567.82 937.094 1568.39 Q934.484 1568.97 931.524 1568.97 Q923.472 1568.97 918.729 1563.91 Q913.987 1558.85 913.987 1550.25 Q913.987 1541.53 918.761 1536.53 Q923.567 1531.54 931.906 1531.54 Q934.612 1531.54 937.19 1532.11 Q939.768 1532.65 942.187 1533.76 Z" fill="#000000" fill-rule="nonzero" fill-opacity="1" /><path clip-path="url(#clip490)" d="M951.767 1553.98 L951.767 1532.4 L957.624 1532.4 L957.624 1553.75 Q957.624 1558.81 959.597 1561.36 Q961.57 1563.87 965.517 1563.87 Q970.26 1563.87 972.997 1560.85 Q975.766 1557.83 975.766 1552.61 L975.766 1532.4 L981.622 1532.4 L981.622 1568.04 L975.766 1568.04 L975.766 1562.57 Q973.633 1565.82 970.801 1567.41 Q968 1568.97 964.276 1568.97 Q958.133 1568.97 954.95 1565.15 Q951.767 1561.33 951.767 1553.98 M966.504 1531.54 L966.504 1531.54 Z" fill="#000000" fill-rule="nonzero" fill-opacity="1" /><path clip-path="url(#clip490)" d="M993.685 1518.52 L999.542 1518.52 L999.542 1568.04 L993.685 1568.04 L993.685 1518.52 Z" fill="#000000" fill-rule="nonzero" fill-opacity="1" /><path clip-path="url(#clip490)" d="M1028 1550.12 Q1020.9 1550.12 1018.16 1551.75 Q1015.42 1553.37 1015.42 1557.29 Q1015.42 1560.4 1017.46 1562.25 Q1019.53 1564.07 1023.06 1564.07 Q1027.93 1564.07 1030.86 1560.63 Q1033.82 1557.16 1033.82 1551.43 L1033.82 1550.12 L1028 1550.12 M1039.68 1547.71 L1039.68 1568.04 L1033.82 1568.04 L1033.82 1562.63 Q1031.82 1565.88 1028.82 1567.44 Q1025.83 1568.97 1021.5 1568.97 Q1016.03 1568.97 1012.78 1565.91 Q1009.57 1562.82 1009.57 1557.67 Q1009.57 1551.65 1013.58 1548.6 Q1017.62 1545.54 1025.61 1545.54 L1033.82 1545.54 L1033.82 1544.97 Q1033.82 1540.93 1031.15 1538.73 Q1028.51 1536.5 1023.7 1536.5 Q1020.64 1536.5 1017.75 1537.23 Q1014.85 1537.97 1012.18 1539.43 L1012.18 1534.02 Q1015.39 1532.78 1018.42 1532.17 Q1021.44 1531.54 1024.3 1531.54 Q1032.04 1531.54 1035.86 1535.55 Q1039.68 1539.56 1039.68 1547.71 Z" fill="#000000" fill-rule="nonzero" fill-opacity="1" /><path clip-path="url(#clip490)" d="M1057.53 1522.27 L1057.53 1532.4 L1069.6 1532.4 L1069.6 1536.95 L1057.53 1536.95 L1057.53 1556.3 Q1057.53 1560.66 1058.71 1561.9 Q1059.92 1563.14 1063.58 1563.14 L1069.6 1563.14 L1069.6 1568.04 L1063.58 1568.04 Q1056.8 1568.04 1054.22 1565.53 Q1051.65 1562.98 1051.65 1556.3 L1051.65 1536.95 L1047.35 1536.95 L1047.35 1532.4 L1051.65 1532.4 L1051.65 1522.27 L1057.53 1522.27 Z" fill="#000000" fill-rule="nonzero" fill-opacity="1" /><path clip-path="url(#clip490)" d="M1107.79 1548.76 L1107.79 1551.62 L1080.86 1551.62 Q1081.25 1557.67 1084.49 1560.85 Q1087.77 1564 1093.6 1564 Q1096.97 1564 1100.12 1563.17 Q1103.3 1562.35 1106.42 1560.69 L1106.42 1566.23 Q1103.27 1567.57 1099.96 1568.27 Q1096.65 1568.97 1093.24 1568.97 Q1084.71 1568.97 1079.72 1564 Q1074.75 1559.04 1074.75 1550.57 Q1074.75 1541.82 1079.46 1536.69 Q1084.21 1531.54 1092.23 1531.54 Q1099.42 1531.54 1103.59 1536.18 Q1107.79 1540.8 1107.79 1548.76 M1101.93 1547.04 Q1101.87 1542.23 1099.23 1539.37 Q1096.62 1536.5 1092.29 1536.5 Q1087.39 1536.5 1084.43 1539.27 Q1081.5 1542.04 1081.05 1547.07 L1101.93 1547.04 Z" fill="#000000" fill-rule="nonzero" fill-opacity="1" /><path clip-path="url(#clip490)" d="M1140.86 1537.81 L1140.86 1518.52 L1146.72 1518.52 L1146.72 1568.04 L1140.86 1568.04 L1140.86 1562.7 Q1139.01 1565.88 1136.18 1567.44 Q1133.38 1568.97 1129.43 1568.97 Q1122.97 1568.97 1118.9 1563.81 Q1114.86 1558.65 1114.86 1550.25 Q1114.86 1541.85 1118.9 1536.69 Q1122.97 1531.54 1129.43 1531.54 Q1133.38 1531.54 1136.18 1533.1 Q1139.01 1534.62 1140.86 1537.81 M1120.9 1550.25 Q1120.9 1556.71 1123.55 1560.4 Q1126.22 1564.07 1130.87 1564.07 Q1135.51 1564.07 1138.19 1560.4 Q1140.86 1556.71 1140.86 1550.25 Q1140.86 1543.79 1138.19 1540.13 Q1135.51 1536.44 1130.87 1536.44 Q1126.22 1536.44 1123.55 1540.13 Q1120.9 1543.79 1120.9 1550.25 Z" fill="#000000" fill-rule="nonzero" fill-opacity="1" /><path clip-path="url(#clip490)" d="M1209.13 1546.53 L1209.13 1568.04 L1203.28 1568.04 L1203.28 1546.72 Q1203.28 1541.66 1201.3 1539.14 Q1199.33 1536.63 1195.38 1536.63 Q1190.64 1536.63 1187.9 1539.65 Q1185.17 1542.68 1185.17 1547.9 L1185.17 1568.04 L1179.28 1568.04 L1179.28 1532.4 L1185.17 1532.4 L1185.17 1537.93 Q1187.27 1534.72 1190.1 1533.13 Q1192.96 1531.54 1196.69 1531.54 Q1202.83 1531.54 1205.98 1535.36 Q1209.13 1539.14 1209.13 1546.53 Z" fill="#000000" fill-rule="nonzero" fill-opacity="1" /><path clip-path="url(#clip490)" d="M1251.31 1548.76 L1251.31 1551.62 L1224.38 1551.62 Q1224.76 1557.67 1228.01 1560.85 Q1231.29 1564 1237.11 1564 Q1240.48 1564 1243.63 1563.17 Q1246.82 1562.35 1249.94 1560.69 L1249.94 1566.23 Q1246.79 1567.57 1243.48 1568.27 Q1240.17 1568.97 1236.76 1568.97 Q1228.23 1568.97 1223.23 1564 Q1218.27 1559.04 1218.27 1550.57 Q1218.27 1541.82 1222.98 1536.69 Q1227.72 1531.54 1235.74 1531.54 Q1242.93 1531.54 1247.1 1536.18 Q1251.31 1540.8 1251.31 1548.76 M1245.45 1547.04 Q1245.39 1542.23 1242.74 1539.37 Q1240.13 1536.5 1235.8 1536.5 Q1230.9 1536.5 1227.94 1539.27 Q1225.02 1542.04 1224.57 1547.07 L1245.45 1547.04 Z" fill="#000000" fill-rule="nonzero" fill-opacity="1" /><path clip-path="url(#clip490)" d="M1260.31 1553.98 L1260.31 1532.4 L1266.17 1532.4 L1266.17 1553.75 Q1266.17 1558.81 1268.14 1561.36 Q1270.12 1563.87 1274.06 1563.87 Q1278.81 1563.87 1281.54 1560.85 Q1284.31 1557.83 1284.31 1552.61 L1284.31 1532.4 L1290.17 1532.4 L1290.17 1568.04 L1284.31 1568.04 L1284.31 1562.57 Q1282.18 1565.82 1279.35 1567.41 Q1276.55 1568.97 1272.82 1568.97 Q1266.68 1568.97 1263.5 1565.15 Q1260.31 1561.33 1260.31 1553.98 M1275.05 1531.54 L1275.05 1531.54 Z" fill="#000000" fill-rule="nonzero" fill-opacity="1" /><path clip-path="url(#clip490)" d="M1308.02 1522.27 L1308.02 1532.4 L1320.09 1532.4 L1320.09 1536.95 L1308.02 1536.95 L1308.02 1556.3 Q1308.02 1560.66 1309.2 1561.9 Q1310.41 1563.14 1314.07 1563.14 L1320.09 1563.14 L1320.09 1568.04 L1314.07 1568.04 Q1307.29 1568.04 1304.71 1565.53 Q1302.14 1562.98 1302.14 1556.3 L1302.14 1536.95 L1297.84 1536.95 L1297.84 1532.4 L1302.14 1532.4 L1302.14 1522.27 L1308.02 1522.27 Z" fill="#000000" fill-rule="nonzero" fill-opacity="1" /><path clip-path="url(#clip490)" d="M1348.45 1537.87 Q1347.46 1537.3 1346.28 1537.04 Q1345.14 1536.76 1343.74 1536.76 Q1338.77 1536.76 1336.1 1540 Q1333.45 1543.22 1333.45 1549.27 L1333.45 1568.04 L1327.57 1568.04 L1327.57 1532.4 L1333.45 1532.4 L1333.45 1537.93 Q1335.3 1534.69 1338.26 1533.13 Q1341.22 1531.54 1345.45 1531.54 Q1346.06 1531.54 1346.79 1531.63 Q1347.52 1531.7 1348.41 1531.85 L1348.45 1537.87 Z" fill="#000000" fill-rule="nonzero" fill-opacity="1" /><path clip-path="url(#clip490)" d="M1366.97 1536.5 Q1362.26 1536.5 1359.52 1540.19 Q1356.79 1543.85 1356.79 1550.25 Q1356.79 1556.65 1359.49 1560.34 Q1362.23 1564 1366.97 1564 Q1371.65 1564 1374.39 1560.31 Q1377.12 1556.62 1377.12 1550.25 Q1377.12 1543.92 1374.39 1540.23 Q1371.65 1536.5 1366.97 1536.5 M1366.97 1531.54 Q1374.61 1531.54 1378.97 1536.5 Q1383.33 1541.47 1383.33 1550.25 Q1383.33 1559 1378.97 1564 Q1374.61 1568.97 1366.97 1568.97 Q1359.3 1568.97 1354.94 1564 Q1350.61 1559 1350.61 1550.25 Q1350.61 1541.47 1354.94 1536.5 Q1359.3 1531.54 1366.97 1531.54 Z" fill="#000000" fill-rule="nonzero" fill-opacity="1" /><path clip-path="url(#clip490)" d="M1422.67 1546.53 L1422.67 1568.04 L1416.81 1568.04 L1416.81 1546.72 Q1416.81 1541.66 1414.84 1539.14 Q1412.87 1536.63 1408.92 1536.63 Q1404.18 1536.63 1401.44 1539.65 Q1398.7 1542.68 1398.7 1547.9 L1398.7 1568.04 L1392.82 1568.04 L1392.82 1532.4 L1398.7 1532.4 L1398.7 1537.93 Q1400.8 1534.72 1403.64 1533.13 Q1406.5 1531.54 1410.23 1531.54 Q1416.37 1531.54 1419.52 1535.36 Q1422.67 1539.14 1422.67 1546.53 Z" fill="#000000" fill-rule="nonzero" fill-opacity="1" /><path clip-path="url(#clip490)" d="M1485.56 1548.76 L1485.56 1551.62 L1458.64 1551.62 Q1459.02 1557.67 1462.27 1560.85 Q1465.54 1564 1471.37 1564 Q1474.74 1564 1477.89 1563.17 Q1481.08 1562.35 1484.19 1560.69 L1484.19 1566.23 Q1481.04 1567.57 1477.73 1568.27 Q1474.42 1568.97 1471.02 1568.97 Q1462.49 1568.97 1457.49 1564 Q1452.53 1559.04 1452.53 1550.57 Q1452.53 1541.82 1457.24 1536.69 Q1461.98 1531.54 1470 1531.54 Q1477.19 1531.54 1481.36 1536.18 Q1485.56 1540.8 1485.56 1548.76 M1479.71 1547.04 Q1479.64 1542.23 1477 1539.37 Q1474.39 1536.5 1470.06 1536.5 Q1465.16 1536.5 1462.2 1539.27 Q1459.27 1542.04 1458.83 1547.07 L1479.71 1547.04 Z" fill="#000000" fill-rule="nonzero" fill-opacity="1" /><path clip-path="url(#clip490)" d="M1524.81 1546.53 L1524.81 1568.04 L1518.95 1568.04 L1518.95 1546.72 Q1518.95 1541.66 1516.98 1539.14 Q1515 1536.63 1511.06 1536.63 Q1506.32 1536.63 1503.58 1539.65 Q1500.84 1542.68 1500.84 1547.9 L1500.84 1568.04 L1494.95 1568.04 L1494.95 1532.4 L1500.84 1532.4 L1500.84 1537.93 Q1502.94 1534.72 1505.77 1533.13 Q1508.64 1531.54 1512.36 1531.54 Q1518.51 1531.54 1521.66 1535.36 Q1524.81 1539.14 1524.81 1546.53 Z" fill="#000000" fill-rule="nonzero" fill-opacity="1" /><path clip-path="url(#clip490)" d="M1566.98 1548.76 L1566.98 1551.62 L1540.05 1551.62 Q1540.44 1557.67 1543.68 1560.85 Q1546.96 1564 1552.79 1564 Q1556.16 1564 1559.31 1563.17 Q1562.49 1562.35 1565.61 1560.69 L1565.61 1566.23 Q1562.46 1567.57 1559.15 1568.27 Q1555.84 1568.97 1552.44 1568.97 Q1543.91 1568.97 1538.91 1564 Q1533.94 1559.04 1533.94 1550.57 Q1533.94 1541.82 1538.65 1536.69 Q1543.4 1531.54 1551.42 1531.54 Q1558.61 1531.54 1562.78 1536.18 Q1566.98 1540.8 1566.98 1548.76 M1561.12 1547.04 Q1561.06 1542.23 1558.42 1539.37 Q1555.81 1536.5 1551.48 1536.5 Q1546.58 1536.5 1543.62 1539.27 Q1540.69 1542.04 1540.24 1547.07 L1561.12 1547.04 Z" fill="#000000" fill-rule="nonzero" fill-opacity="1" /><path clip-path="url(#clip490)" d="M1597.25 1537.87 Q1596.26 1537.3 1595.09 1537.04 Q1593.94 1536.76 1592.54 1536.76 Q1587.57 1536.76 1584.9 1540 Q1582.26 1543.22 1582.26 1549.27 L1582.26 1568.04 L1576.37 1568.04 L1576.37 1532.4 L1582.26 1532.4 L1582.26 1537.93 Q1584.1 1534.69 1587.06 1533.13 Q1590.02 1531.54 1594.26 1531.54 Q1594.86 1531.54 1595.59 1531.63 Q1596.33 1531.7 1597.22 1531.85 L1597.25 1537.87 Z" fill="#000000" fill-rule="nonzero" fill-opacity="1" /><path clip-path="url(#clip490)" d="M1625.7 1549.81 Q1625.7 1543.44 1623.06 1539.94 Q1620.45 1536.44 1615.71 1536.44 Q1611 1536.44 1608.36 1539.94 Q1605.75 1543.44 1605.75 1549.81 Q1605.75 1556.14 1608.36 1559.64 Q1611 1563.14 1615.71 1563.14 Q1620.45 1563.14 1623.06 1559.64 Q1625.7 1556.14 1625.7 1549.81 M1631.56 1563.62 Q1631.56 1572.72 1627.52 1577.15 Q1623.48 1581.6 1615.14 1581.6 Q1612.05 1581.6 1609.31 1581.13 Q1606.58 1580.68 1604 1579.72 L1604 1574.03 Q1606.58 1575.43 1609.09 1576.1 Q1611.6 1576.76 1614.21 1576.76 Q1619.98 1576.76 1622.84 1573.74 Q1625.7 1570.75 1625.7 1564.67 L1625.7 1561.77 Q1623.89 1564.92 1621.06 1566.48 Q1618.22 1568.04 1614.28 1568.04 Q1607.72 1568.04 1603.71 1563.05 Q1599.7 1558.05 1599.7 1549.81 Q1599.7 1541.53 1603.71 1536.53 Q1607.72 1531.54 1614.28 1531.54 Q1618.22 1531.54 1621.06 1533.1 Q1623.89 1534.66 1625.7 1537.81 L1625.7 1532.4 L1631.56 1532.4 L1631.56 1563.62 Z" fill="#000000" fill-rule="nonzero" fill-opacity="1" /><path clip-path="url(#clip490)" d="M1658.46 1571.35 Q1655.97 1577.72 1653.62 1579.66 Q1651.26 1581.6 1647.32 1581.6 L1642.64 1581.6 L1642.64 1576.7 L1646.07 1576.7 Q1648.49 1576.7 1649.83 1575.56 Q1651.17 1574.41 1652.79 1570.14 L1653.84 1567.47 L1639.42 1532.4 L1645.63 1532.4 L1656.77 1560.28 L1667.91 1532.4 L1674.12 1532.4 L1658.46 1571.35 Z" fill="#000000" fill-rule="nonzero" fill-opacity="1" /><path clip-path="url(#clip490)" d="M1716.99 1518.58 Q1712.72 1525.9 1710.65 1533.06 Q1708.59 1540.23 1708.59 1547.58 Q1708.59 1554.93 1710.65 1562.16 Q1712.76 1569.35 1716.99 1576.64 L1711.9 1576.64 Q1707.12 1569.16 1704.73 1561.93 Q1702.38 1554.71 1702.38 1547.58 Q1702.38 1540.48 1704.73 1533.29 Q1707.09 1526.09 1711.9 1518.58 L1716.99 1518.58 Z" fill="#000000" fill-rule="nonzero" fill-opacity="1" /><path clip-path="url(#clip490)" d="M1728.61 1520.52 L1738.19 1520.52 L1750.31 1552.86 L1762.5 1520.52 L1772.08 1520.52 L1772.08 1568.04 L1765.81 1568.04 L1765.81 1526.32 L1753.56 1558.91 L1747.1 1558.91 L1734.84 1526.32 L1734.84 1568.04 L1728.61 1568.04 L1728.61 1520.52 Z" fill="#000000" fill-rule="nonzero" fill-opacity="1" /><path clip-path="url(#clip490)" d="M1815.08 1548.76 L1815.08 1551.62 L1788.16 1551.62 Q1788.54 1557.67 1791.79 1560.85 Q1795.06 1564 1800.89 1564 Q1804.26 1564 1807.41 1563.17 Q1810.6 1562.35 1813.72 1560.69 L1813.72 1566.23 Q1810.56 1567.57 1807.25 1568.27 Q1803.94 1568.97 1800.54 1568.97 Q1792.01 1568.97 1787.01 1564 Q1782.05 1559.04 1782.05 1550.57 Q1782.05 1541.82 1786.76 1536.69 Q1791.5 1531.54 1799.52 1531.54 Q1806.71 1531.54 1810.88 1536.18 Q1815.08 1540.8 1815.08 1548.76 M1809.23 1547.04 Q1809.16 1542.23 1806.52 1539.37 Q1803.91 1536.5 1799.58 1536.5 Q1794.68 1536.5 1791.72 1539.27 Q1788.79 1542.04 1788.35 1547.07 L1809.23 1547.04 Z" fill="#000000" fill-rule="nonzero" fill-opacity="1" /><path clip-path="url(#clip490)" d="M1837.21 1568.04 L1819.06 1520.52 L1825.78 1520.52 L1840.83 1560.53 L1855.92 1520.52 L1862.6 1520.52 L1844.49 1568.04 L1837.21 1568.04 Z" fill="#000000" fill-rule="nonzero" fill-opacity="1" /><path clip-path="url(#clip490)" d="M1868.37 1518.58 L1873.46 1518.58 Q1878.23 1526.09 1880.59 1533.29 Q1882.97 1540.48 1882.97 1547.58 Q1882.97 1554.71 1880.59 1561.93 Q1878.23 1569.16 1873.46 1576.64 L1868.37 1576.64 Q1872.6 1569.35 1874.67 1562.16 Q1876.77 1554.93 1876.77 1547.58 Q1876.77 1540.23 1874.67 1533.06 Q1872.6 1525.9 1868.37 1518.58 Z" fill="#000000" fill-rule="nonzero" fill-opacity="1" /><polyline clip-path="url(#clip490)" style="stroke:#000000; stroke-linecap:round; stroke-linejoin:round; stroke-width:4; stroke-opacity:1; fill:none" points="340.699,1423.18 340.699,123.472 "/>
<polyline clip-path="url(#clip490)" style="stroke:#000000; stroke-linecap:round; stroke-linejoin:round; stroke-width:4; stroke-opacity:1; fill:none" points="340.699,1386.4 359.597,1386.4 "/>
<polyline clip-path="url(#clip490)" style="stroke:#000000; stroke-linecap:round; stroke-linejoin:round; stroke-width:4; stroke-opacity:1; fill:none" points="340.699,1191.9 359.597,1191.9 "/>
<polyline clip-path="url(#clip490)" style="stroke:#000000; stroke-linecap:round; stroke-linejoin:round; stroke-width:4; stroke-opacity:1; fill:none" points="340.699,997.404 359.597,997.404 "/>
<polyline clip-path="url(#clip490)" style="stroke:#000000; stroke-linecap:round; stroke-linejoin:round; stroke-width:4; stroke-opacity:1; fill:none" points="340.699,802.909 359.597,802.909 "/>
<polyline clip-path="url(#clip490)" style="stroke:#000000; stroke-linecap:round; stroke-linejoin:round; stroke-width:4; stroke-opacity:1; fill:none" points="340.699,608.413 359.597,608.413 "/>
<polyline clip-path="url(#clip490)" style="stroke:#000000; stroke-linecap:round; stroke-linejoin:round; stroke-width:4; stroke-opacity:1; fill:none" points="340.699,413.918 359.597,413.918 "/>
<polyline clip-path="url(#clip490)" style="stroke:#000000; stroke-linecap:round; stroke-linejoin:round; stroke-width:4; stroke-opacity:1; fill:none" points="340.699,219.422 359.597,219.422 "/>
<path clip-path="url(#clip490)" d="M292.755 1372.19 Q289.143 1372.19 287.315 1375.76 Q285.509 1379.3 285.509 1386.43 Q285.509 1393.54 287.315 1397.1 Q289.143 1400.64 292.755 1400.64 Q296.389 1400.64 298.194 1397.1 Q300.023 1393.54 300.023 1386.43 Q300.023 1379.3 298.194 1375.76 Q296.389 1372.19 292.755 1372.19 M292.755 1368.49 Q298.565 1368.49 301.62 1373.1 Q304.699 1377.68 304.699 1386.43 Q304.699 1395.16 301.62 1399.76 Q298.565 1404.35 292.755 1404.35 Q286.944 1404.35 283.866 1399.76 Q280.81 1395.16 280.81 1386.43 Q280.81 1377.68 283.866 1373.1 Q286.944 1368.49 292.755 1368.49 Z" fill="#000000" fill-rule="nonzero" fill-opacity="1" /><path clip-path="url(#clip490)" d="M117.825 1211.69 L125.464 1211.69 L125.464 1185.33 L117.154 1186.99 L117.154 1182.73 L125.418 1181.07 L130.093 1181.07 L130.093 1211.69 L137.732 1211.69 L137.732 1215.63 L117.825 1215.63 L117.825 1211.69 Z" fill="#000000" fill-rule="nonzero" fill-opacity="1" /><path clip-path="url(#clip490)" d="M147.177 1209.75 L152.061 1209.75 L152.061 1215.63 L147.177 1215.63 L147.177 1209.75 Z" fill="#000000" fill-rule="nonzero" fill-opacity="1" /><path clip-path="url(#clip490)" d="M172.246 1184.15 Q168.635 1184.15 166.806 1187.71 Q165.001 1191.25 165.001 1198.38 Q165.001 1205.49 166.806 1209.05 Q168.635 1212.6 172.246 1212.6 Q175.88 1212.6 177.686 1209.05 Q179.514 1205.49 179.514 1198.38 Q179.514 1191.25 177.686 1187.71 Q175.88 1184.15 172.246 1184.15 M172.246 1180.44 Q178.056 1180.44 181.112 1185.05 Q184.19 1189.63 184.19 1198.38 Q184.19 1207.11 181.112 1211.72 Q178.056 1216.3 172.246 1216.3 Q166.436 1216.3 163.357 1211.72 Q160.302 1207.11 160.302 1198.38 Q160.302 1189.63 163.357 1185.05 Q166.436 1180.44 172.246 1180.44 Z" fill="#000000" fill-rule="nonzero" fill-opacity="1" /><path clip-path="url(#clip490)" d="M220.579 1190.16 L210 1200.79 L220.579 1211.37 L217.824 1214.17 L207.199 1203.54 L196.575 1214.17 L193.843 1211.37 L204.399 1200.79 L193.843 1190.16 L196.575 1187.36 L207.199 1197.99 L217.824 1187.36 L220.579 1190.16 Z" fill="#000000" fill-rule="nonzero" fill-opacity="1" /><path clip-path="url(#clip490)" d="M232.94 1211.69 L240.579 1211.69 L240.579 1185.33 L232.269 1186.99 L232.269 1182.73 L240.533 1181.07 L245.209 1181.07 L245.209 1211.69 L252.847 1211.69 L252.847 1215.63 L232.94 1215.63 L232.94 1211.69 Z" fill="#000000" fill-rule="nonzero" fill-opacity="1" /><path clip-path="url(#clip490)" d="M272.292 1184.15 Q268.681 1184.15 266.852 1187.71 Q265.046 1191.25 265.046 1198.38 Q265.046 1205.49 266.852 1209.05 Q268.681 1212.6 272.292 1212.6 Q275.926 1212.6 277.732 1209.05 Q279.56 1205.49 279.56 1198.38 Q279.56 1191.25 277.732 1187.71 Q275.926 1184.15 272.292 1184.15 M272.292 1180.44 Q278.102 1180.44 281.157 1185.05 Q284.236 1189.63 284.236 1198.38 Q284.236 1207.11 281.157 1211.72 Q278.102 1216.3 272.292 1216.3 Q266.482 1216.3 263.403 1211.72 Q260.347 1207.11 260.347 1198.38 Q260.347 1189.63 263.403 1185.05 Q266.482 1180.44 272.292 1180.44 Z" fill="#000000" fill-rule="nonzero" fill-opacity="1" /><path clip-path="url(#clip490)" d="M296.913 1163.45 L287.321 1178.44 L296.913 1178.44 L296.913 1163.45 M295.916 1160.14 L300.693 1160.14 L300.693 1178.44 L304.699 1178.44 L304.699 1181.6 L300.693 1181.6 L300.693 1188.22 L296.913 1188.22 L296.913 1181.6 L284.236 1181.6 L284.236 1177.93 L295.916 1160.14 Z" fill="#000000" fill-rule="nonzero" fill-opacity="1" /><path clip-path="url(#clip490)" d="M121.043 1017.2 L137.362 1017.2 L137.362 1021.13 L115.418 1021.13 L115.418 1017.2 Q118.08 1014.44 122.663 1009.81 Q127.269 1005.16 128.45 1003.82 Q130.695 1001.29 131.575 999.558 Q132.478 997.799 132.478 996.109 Q132.478 993.354 130.533 991.618 Q128.612 989.882 125.51 989.882 Q123.311 989.882 120.857 990.646 Q118.427 991.41 115.649 992.961 L115.649 988.239 Q118.473 987.104 120.927 986.526 Q123.38 985.947 125.418 985.947 Q130.788 985.947 133.982 988.632 Q137.177 991.317 137.177 995.808 Q137.177 997.938 136.367 999.859 Q135.579 1001.76 133.473 1004.35 Q132.894 1005.02 129.792 1008.24 Q126.691 1011.43 121.043 1017.2 Z" fill="#000000" fill-rule="nonzero" fill-opacity="1" /><path clip-path="url(#clip490)" d="M147.177 1015.25 L152.061 1015.25 L152.061 1021.13 L147.177 1021.13 L147.177 1015.25 Z" fill="#000000" fill-rule="nonzero" fill-opacity="1" /><path clip-path="url(#clip490)" d="M172.246 989.651 Q168.635 989.651 166.806 993.215 Q165.001 996.757 165.001 1003.89 Q165.001 1010.99 166.806 1014.56 Q168.635 1018.1 172.246 1018.1 Q175.88 1018.1 177.686 1014.56 Q179.514 1010.99 179.514 1003.89 Q179.514 996.757 177.686 993.215 Q175.88 989.651 172.246 989.651 M172.246 985.947 Q178.056 985.947 181.112 990.553 Q184.19 995.137 184.19 1003.89 Q184.19 1012.61 181.112 1017.22 Q178.056 1021.8 172.246 1021.8 Q166.436 1021.8 163.357 1017.22 Q160.302 1012.61 160.302 1003.89 Q160.302 995.137 163.357 990.553 Q166.436 985.947 172.246 985.947 Z" fill="#000000" fill-rule="nonzero" fill-opacity="1" /><path clip-path="url(#clip490)" d="M220.579 995.669 L210 1006.29 L220.579 1016.87 L217.824 1019.67 L207.199 1009.05 L196.575 1019.67 L193.843 1016.87 L204.399 1006.29 L193.843 995.669 L196.575 992.868 L207.199 1003.49 L217.824 992.868 L220.579 995.669 Z" fill="#000000" fill-rule="nonzero" fill-opacity="1" /><path clip-path="url(#clip490)" d="M232.94 1017.2 L240.579 1017.2 L240.579 990.831 L232.269 992.498 L232.269 988.239 L240.533 986.572 L245.209 986.572 L245.209 1017.2 L252.847 1017.2 L252.847 1021.13 L232.94 1021.13 L232.94 1017.2 Z" fill="#000000" fill-rule="nonzero" fill-opacity="1" /><path clip-path="url(#clip490)" d="M272.292 989.651 Q268.681 989.651 266.852 993.215 Q265.046 996.757 265.046 1003.89 Q265.046 1010.99 266.852 1014.56 Q268.681 1018.1 272.292 1018.1 Q275.926 1018.1 277.732 1014.56 Q279.56 1010.99 279.56 1003.89 Q279.56 996.757 277.732 993.215 Q275.926 989.651 272.292 989.651 M272.292 985.947 Q278.102 985.947 281.157 990.553 Q284.236 995.137 284.236 1003.89 Q284.236 1012.61 281.157 1017.22 Q278.102 1021.8 272.292 1021.8 Q266.482 1021.8 263.403 1017.22 Q260.347 1012.61 260.347 1003.89 Q260.347 995.137 263.403 990.553 Q266.482 985.947 272.292 985.947 Z" fill="#000000" fill-rule="nonzero" fill-opacity="1" /><path clip-path="url(#clip490)" d="M296.913 968.952 L287.321 983.942 L296.913 983.942 L296.913 968.952 M295.916 965.642 L300.693 965.642 L300.693 983.942 L304.699 983.942 L304.699 987.101 L300.693 987.101 L300.693 993.722 L296.913 993.722 L296.913 987.101 L284.236 987.101 L284.236 983.434 L295.916 965.642 Z" fill="#000000" fill-rule="nonzero" fill-opacity="1" /><path clip-path="url(#clip490)" d="M131.181 808.002 Q134.538 808.72 136.413 810.988 Q138.311 813.257 138.311 816.59 Q138.311 821.706 134.792 824.507 Q131.274 827.308 124.793 827.308 Q122.617 827.308 120.302 826.868 Q118.01 826.451 115.556 825.595 L115.556 821.081 Q117.501 822.215 119.816 822.794 Q122.13 823.372 124.654 823.372 Q129.052 823.372 131.343 821.636 Q133.658 819.9 133.658 816.59 Q133.658 813.535 131.505 811.822 Q129.376 810.086 125.556 810.086 L121.529 810.086 L121.529 806.243 L125.742 806.243 Q129.191 806.243 131.019 804.877 Q132.848 803.488 132.848 800.896 Q132.848 798.234 130.95 796.822 Q129.075 795.387 125.556 795.387 Q123.635 795.387 121.436 795.803 Q119.237 796.22 116.598 797.099 L116.598 792.933 Q119.26 792.192 121.575 791.822 Q123.913 791.451 125.973 791.451 Q131.297 791.451 134.399 793.882 Q137.501 796.289 137.501 800.41 Q137.501 803.28 135.857 805.271 Q134.214 807.238 131.181 808.002 Z" fill="#000000" fill-rule="nonzero" fill-opacity="1" /><path clip-path="url(#clip490)" d="M147.177 820.757 L152.061 820.757 L152.061 826.636 L147.177 826.636 L147.177 820.757 Z" fill="#000000" fill-rule="nonzero" fill-opacity="1" /><path clip-path="url(#clip490)" d="M172.246 795.155 Q168.635 795.155 166.806 798.72 Q165.001 802.262 165.001 809.391 Q165.001 816.498 166.806 820.062 Q168.635 823.604 172.246 823.604 Q175.88 823.604 177.686 820.062 Q179.514 816.498 179.514 809.391 Q179.514 802.262 177.686 798.72 Q175.88 795.155 172.246 795.155 M172.246 791.451 Q178.056 791.451 181.112 796.058 Q184.19 800.641 184.19 809.391 Q184.19 818.118 181.112 822.724 Q178.056 827.308 172.246 827.308 Q166.436 827.308 163.357 822.724 Q160.302 818.118 160.302 809.391 Q160.302 800.641 163.357 796.058 Q166.436 791.451 172.246 791.451 Z" fill="#000000" fill-rule="nonzero" fill-opacity="1" /><path clip-path="url(#clip490)" d="M220.579 801.174 L210 811.798 L220.579 822.377 L217.824 825.178 L207.199 814.553 L196.575 825.178 L193.843 822.377 L204.399 811.798 L193.843 801.174 L196.575 798.373 L207.199 808.998 L217.824 798.373 L220.579 801.174 Z" fill="#000000" fill-rule="nonzero" fill-opacity="1" /><path clip-path="url(#clip490)" d="M232.94 822.701 L240.579 822.701 L240.579 796.336 L232.269 798.002 L232.269 793.743 L240.533 792.076 L245.209 792.076 L245.209 822.701 L252.847 822.701 L252.847 826.636 L232.94 826.636 L232.94 822.701 Z" fill="#000000" fill-rule="nonzero" fill-opacity="1" /><path clip-path="url(#clip490)" d="M272.292 795.155 Q268.681 795.155 266.852 798.72 Q265.046 802.262 265.046 809.391 Q265.046 816.498 266.852 820.062 Q268.681 823.604 272.292 823.604 Q275.926 823.604 277.732 820.062 Q279.56 816.498 279.56 809.391 Q279.56 802.262 277.732 798.72 Q275.926 795.155 272.292 795.155 M272.292 791.451 Q278.102 791.451 281.157 796.058 Q284.236 800.641 284.236 809.391 Q284.236 818.118 281.157 822.724 Q278.102 827.308 272.292 827.308 Q266.482 827.308 263.403 822.724 Q260.347 818.118 260.347 809.391 Q260.347 800.641 263.403 796.058 Q266.482 791.451 272.292 791.451 Z" fill="#000000" fill-rule="nonzero" fill-opacity="1" /><path clip-path="url(#clip490)" d="M296.913 774.456 L287.321 789.446 L296.913 789.446 L296.913 774.456 M295.916 771.146 L300.693 771.146 L300.693 789.446 L304.699 789.446 L304.699 792.606 L300.693 792.606 L300.693 799.226 L296.913 799.226 L296.913 792.606 L284.236 792.606 L284.236 788.938 L295.916 771.146 Z" fill="#000000" fill-rule="nonzero" fill-opacity="1" /><path clip-path="url(#clip490)" d="M129.862 601.655 L118.056 620.104 L129.862 620.104 L129.862 601.655 M128.635 597.581 L134.515 597.581 L134.515 620.104 L139.445 620.104 L139.445 623.993 L134.515 623.993 L134.515 632.141 L129.862 632.141 L129.862 623.993 L114.26 623.993 L114.26 619.479 L128.635 597.581 Z" fill="#000000" fill-rule="nonzero" fill-opacity="1" /><path clip-path="url(#clip490)" d="M147.177 626.261 L152.061 626.261 L152.061 632.141 L147.177 632.141 L147.177 626.261 Z" fill="#000000" fill-rule="nonzero" fill-opacity="1" /><path clip-path="url(#clip490)" d="M172.246 600.659 Q168.635 600.659 166.806 604.224 Q165.001 607.766 165.001 614.895 Q165.001 622.002 166.806 625.567 Q168.635 629.108 172.246 629.108 Q175.88 629.108 177.686 625.567 Q179.514 622.002 179.514 614.895 Q179.514 607.766 177.686 604.224 Q175.88 600.659 172.246 600.659 M172.246 596.956 Q178.056 596.956 181.112 601.562 Q184.19 606.146 184.19 614.895 Q184.19 623.622 181.112 628.229 Q178.056 632.812 172.246 632.812 Q166.436 632.812 163.357 628.229 Q160.302 623.622 160.302 614.895 Q160.302 606.146 163.357 601.562 Q166.436 596.956 172.246 596.956 Z" fill="#000000" fill-rule="nonzero" fill-opacity="1" /><path clip-path="url(#clip490)" d="M220.579 606.678 L210 617.303 L220.579 627.882 L217.824 630.682 L207.199 620.057 L196.575 630.682 L193.843 627.882 L204.399 617.303 L193.843 606.678 L196.575 603.877 L207.199 614.502 L217.824 603.877 L220.579 606.678 Z" fill="#000000" fill-rule="nonzero" fill-opacity="1" /><path clip-path="url(#clip490)" d="M232.94 628.206 L240.579 628.206 L240.579 601.84 L232.269 603.507 L232.269 599.247 L240.533 597.581 L245.209 597.581 L245.209 628.206 L252.847 628.206 L252.847 632.141 L232.94 632.141 L232.94 628.206 Z" fill="#000000" fill-rule="nonzero" fill-opacity="1" /><path clip-path="url(#clip490)" d="M272.292 600.659 Q268.681 600.659 266.852 604.224 Q265.046 607.766 265.046 614.895 Q265.046 622.002 266.852 625.567 Q268.681 629.108 272.292 629.108 Q275.926 629.108 277.732 625.567 Q279.56 622.002 279.56 614.895 Q279.56 607.766 277.732 604.224 Q275.926 600.659 272.292 600.659 M272.292 596.956 Q278.102 596.956 281.157 601.562 Q284.236 606.146 284.236 614.895 Q284.236 623.622 281.157 628.229 Q278.102 632.812 272.292 632.812 Q266.482 632.812 263.403 628.229 Q260.347 623.622 260.347 614.895 Q260.347 606.146 263.403 601.562 Q266.482 596.956 272.292 596.956 Z" fill="#000000" fill-rule="nonzero" fill-opacity="1" /><path clip-path="url(#clip490)" d="M296.913 579.961 L287.321 594.95 L296.913 594.95 L296.913 579.961 M295.916 576.65 L300.693 576.65 L300.693 594.95 L304.699 594.95 L304.699 598.11 L300.693 598.11 L300.693 604.73 L296.913 604.73 L296.913 598.11 L284.236 598.11 L284.236 594.442 L295.916 576.65 Z" fill="#000000" fill-rule="nonzero" fill-opacity="1" /><path clip-path="url(#clip490)" d="M117.061 403.085 L135.417 403.085 L135.417 407.02 L121.343 407.02 L121.343 415.492 Q122.362 415.145 123.38 414.983 Q124.399 414.798 125.418 414.798 Q131.205 414.798 134.584 417.969 Q137.964 421.141 137.964 426.557 Q137.964 432.136 134.492 435.238 Q131.019 438.316 124.7 438.316 Q122.524 438.316 120.255 437.946 Q118.01 437.576 115.603 436.835 L115.603 432.136 Q117.686 433.27 119.908 433.826 Q122.13 434.381 124.607 434.381 Q128.612 434.381 130.95 432.275 Q133.288 430.168 133.288 426.557 Q133.288 422.946 130.95 420.84 Q128.612 418.733 124.607 418.733 Q122.732 418.733 120.857 419.15 Q119.006 419.567 117.061 420.446 L117.061 403.085 Z" fill="#000000" fill-rule="nonzero" fill-opacity="1" /><path clip-path="url(#clip490)" d="M147.177 431.766 L152.061 431.766 L152.061 437.645 L147.177 437.645 L147.177 431.766 Z" fill="#000000" fill-rule="nonzero" fill-opacity="1" /><path clip-path="url(#clip490)" d="M172.246 406.164 Q168.635 406.164 166.806 409.729 Q165.001 413.27 165.001 420.4 Q165.001 427.506 166.806 431.071 Q168.635 434.613 172.246 434.613 Q175.88 434.613 177.686 431.071 Q179.514 427.506 179.514 420.4 Q179.514 413.27 177.686 409.729 Q175.88 406.164 172.246 406.164 M172.246 402.46 Q178.056 402.46 181.112 407.067 Q184.19 411.65 184.19 420.4 Q184.19 429.127 181.112 433.733 Q178.056 438.316 172.246 438.316 Q166.436 438.316 163.357 433.733 Q160.302 429.127 160.302 420.4 Q160.302 411.65 163.357 407.067 Q166.436 402.46 172.246 402.46 Z" fill="#000000" fill-rule="nonzero" fill-opacity="1" /><path clip-path="url(#clip490)" d="M220.579 412.182 L210 422.807 L220.579 433.386 L217.824 436.187 L207.199 425.562 L196.575 436.187 L193.843 433.386 L204.399 422.807 L193.843 412.182 L196.575 409.381 L207.199 420.006 L217.824 409.381 L220.579 412.182 Z" fill="#000000" fill-rule="nonzero" fill-opacity="1" /><path clip-path="url(#clip490)" d="M232.94 433.71 L240.579 433.71 L240.579 407.344 L232.269 409.011 L232.269 404.752 L240.533 403.085 L245.209 403.085 L245.209 433.71 L252.847 433.71 L252.847 437.645 L232.94 437.645 L232.94 433.71 Z" fill="#000000" fill-rule="nonzero" fill-opacity="1" /><path clip-path="url(#clip490)" d="M272.292 406.164 Q268.681 406.164 266.852 409.729 Q265.046 413.27 265.046 420.4 Q265.046 427.506 266.852 431.071 Q268.681 434.613 272.292 434.613 Q275.926 434.613 277.732 431.071 Q279.56 427.506 279.56 420.4 Q279.56 413.27 277.732 409.729 Q275.926 406.164 272.292 406.164 M272.292 402.46 Q278.102 402.46 281.157 407.067 Q284.236 411.65 284.236 420.4 Q284.236 429.127 281.157 433.733 Q278.102 438.316 272.292 438.316 Q266.482 438.316 263.403 433.733 Q260.347 429.127 260.347 420.4 Q260.347 411.65 263.403 407.067 Q266.482 402.46 272.292 402.46 Z" fill="#000000" fill-rule="nonzero" fill-opacity="1" /><path clip-path="url(#clip490)" d="M296.913 385.465 L287.321 400.455 L296.913 400.455 L296.913 385.465 M295.916 382.155 L300.693 382.155 L300.693 400.455 L304.699 400.455 L304.699 403.614 L300.693 403.614 L300.693 410.235 L296.913 410.235 L296.913 403.614 L284.236 403.614 L284.236 399.947 L295.916 382.155 Z" fill="#000000" fill-rule="nonzero" fill-opacity="1" /><path clip-path="url(#clip490)" d="M127.593 224.006 Q124.445 224.006 122.593 226.159 Q120.765 228.312 120.765 232.062 Q120.765 235.788 122.593 237.964 Q124.445 240.117 127.593 240.117 Q130.742 240.117 132.57 237.964 Q134.422 235.788 134.422 232.062 Q134.422 228.312 132.57 226.159 Q130.742 224.006 127.593 224.006 M136.876 209.353 L136.876 213.613 Q135.117 212.779 133.311 212.339 Q131.529 211.9 129.769 211.9 Q125.14 211.9 122.686 215.025 Q120.255 218.15 119.908 224.469 Q121.274 222.455 123.334 221.39 Q125.394 220.302 127.871 220.302 Q133.08 220.302 136.089 223.474 Q139.121 226.622 139.121 232.062 Q139.121 237.386 135.973 240.603 Q132.825 243.821 127.593 243.821 Q121.598 243.821 118.427 239.237 Q115.256 234.631 115.256 225.904 Q115.256 217.71 119.144 212.849 Q123.033 207.964 129.584 207.964 Q131.343 207.964 133.126 208.312 Q134.931 208.659 136.876 209.353 Z" fill="#000000" fill-rule="nonzero" fill-opacity="1" /><path clip-path="url(#clip490)" d="M147.177 237.27 L152.061 237.27 L152.061 243.149 L147.177 243.149 L147.177 237.27 Z" fill="#000000" fill-rule="nonzero" fill-opacity="1" /><path clip-path="url(#clip490)" d="M172.246 211.668 Q168.635 211.668 166.806 215.233 Q165.001 218.775 165.001 225.904 Q165.001 233.011 166.806 236.575 Q168.635 240.117 172.246 240.117 Q175.88 240.117 177.686 236.575 Q179.514 233.011 179.514 225.904 Q179.514 218.775 177.686 215.233 Q175.88 211.668 172.246 211.668 M172.246 207.964 Q178.056 207.964 181.112 212.571 Q184.19 217.154 184.19 225.904 Q184.19 234.631 181.112 239.237 Q178.056 243.821 172.246 243.821 Q166.436 243.821 163.357 239.237 Q160.302 234.631 160.302 225.904 Q160.302 217.154 163.357 212.571 Q166.436 207.964 172.246 207.964 Z" fill="#000000" fill-rule="nonzero" fill-opacity="1" /><path clip-path="url(#clip490)" d="M220.579 217.687 L210 228.312 L220.579 238.89 L217.824 241.691 L207.199 231.066 L196.575 241.691 L193.843 238.89 L204.399 228.312 L193.843 217.687 L196.575 214.886 L207.199 225.511 L217.824 214.886 L220.579 217.687 Z" fill="#000000" fill-rule="nonzero" fill-opacity="1" /><path clip-path="url(#clip490)" d="M232.94 239.214 L240.579 239.214 L240.579 212.849 L232.269 214.515 L232.269 210.256 L240.533 208.589 L245.209 208.589 L245.209 239.214 L252.847 239.214 L252.847 243.149 L232.94 243.149 L232.94 239.214 Z" fill="#000000" fill-rule="nonzero" fill-opacity="1" /><path clip-path="url(#clip490)" d="M272.292 211.668 Q268.681 211.668 266.852 215.233 Q265.046 218.775 265.046 225.904 Q265.046 233.011 266.852 236.575 Q268.681 240.117 272.292 240.117 Q275.926 240.117 277.732 236.575 Q279.56 233.011 279.56 225.904 Q279.56 218.775 277.732 215.233 Q275.926 211.668 272.292 211.668 M272.292 207.964 Q278.102 207.964 281.157 212.571 Q284.236 217.154 284.236 225.904 Q284.236 234.631 281.157 239.237 Q278.102 243.821 272.292 243.821 Q266.482 243.821 263.403 239.237 Q260.347 234.631 260.347 225.904 Q260.347 217.154 263.403 212.571 Q266.482 207.964 272.292 207.964 Z" fill="#000000" fill-rule="nonzero" fill-opacity="1" /><path clip-path="url(#clip490)" d="M296.913 190.969 L287.321 205.959 L296.913 205.959 L296.913 190.969 M295.916 187.659 L300.693 187.659 L300.693 205.959 L304.699 205.959 L304.699 209.119 L300.693 209.119 L300.693 215.739 L296.913 215.739 L296.913 209.119 L284.236 209.119 L284.236 205.451 L295.916 187.659 Z" fill="#000000" fill-rule="nonzero" fill-opacity="1" /><path clip-path="url(#clip490)" d="M20.1444 845.354 L26.9239 845.354 Q23.9002 848.6 22.4043 852.293 Q20.9083 855.953 20.9083 860.091 Q20.9083 868.239 25.9054 872.567 Q30.8707 876.896 40.2919 876.896 Q49.6813 876.896 54.6784 872.567 Q59.6436 868.239 59.6436 860.091 Q59.6436 855.953 58.1477 852.293 Q56.6518 848.6 53.6281 845.354 L60.3439 845.354 Q62.6355 848.728 63.7814 852.515 Q64.9272 856.271 64.9272 860.473 Q64.9272 871.262 58.3387 877.469 Q51.7183 883.676 40.2919 883.676 Q28.8336 883.676 22.2451 877.469 Q15.6248 871.262 15.6248 860.473 Q15.6248 856.207 16.7706 852.452 Q17.8846 848.664 20.1444 845.354 Z" fill="#000000" fill-rule="nonzero" fill-opacity="1" /><path clip-path="url(#clip490)" d="M32.4621 821.864 Q32.4621 826.575 36.1542 829.312 Q39.8145 832.05 46.212 832.05 Q52.6095 832.05 56.3017 829.344 Q59.9619 826.607 59.9619 821.864 Q59.9619 817.186 56.2698 814.448 Q52.5777 811.711 46.212 811.711 Q39.8781 811.711 36.186 814.448 Q32.4621 817.186 32.4621 821.864 M27.4968 821.864 Q27.4968 814.226 32.4621 809.865 Q37.4273 805.505 46.212 805.505 Q54.9649 805.505 59.9619 809.865 Q64.9272 814.226 64.9272 821.864 Q64.9272 829.535 59.9619 833.896 Q54.9649 838.224 46.212 838.224 Q37.4273 838.224 32.4621 833.896 Q27.4968 829.535 27.4968 821.864 Z" fill="#000000" fill-rule="nonzero" fill-opacity="1" /><path clip-path="url(#clip490)" d="M49.9359 796.402 L28.3562 796.402 L28.3562 790.545 L49.7131 790.545 Q54.7739 790.545 57.3202 788.572 Q59.8346 786.598 59.8346 782.652 Q59.8346 777.909 56.8109 775.172 Q53.7872 772.403 48.5673 772.403 L28.3562 772.403 L28.3562 766.547 L64.0042 766.547 L64.0042 772.403 L58.5296 772.403 Q61.7762 774.535 63.3676 777.368 Q64.9272 780.169 64.9272 783.893 Q64.9272 790.036 61.1078 793.219 Q57.2883 796.402 49.9359 796.402 M27.4968 781.665 L27.4968 781.665 Z" fill="#000000" fill-rule="nonzero" fill-opacity="1" /><path clip-path="url(#clip490)" d="M42.4881 724.851 L64.0042 724.851 L64.0042 730.708 L42.679 730.708 Q37.6183 730.708 35.1038 732.681 Q32.5894 734.654 32.5894 738.601 Q32.5894 743.344 35.6131 746.081 Q38.6368 748.818 43.8567 748.818 L64.0042 748.818 L64.0042 754.706 L28.3562 754.706 L28.3562 748.818 L33.8944 748.818 Q30.6797 746.717 29.0883 743.885 Q27.4968 741.02 27.4968 737.296 Q27.4968 731.153 31.3163 728.002 Q35.1038 724.851 42.4881 724.851 Z" fill="#000000" fill-rule="nonzero" fill-opacity="1" /><path clip-path="url(#clip490)" d="M18.2347 707.377 L28.3562 707.377 L28.3562 695.314 L32.9077 695.314 L32.9077 707.377 L52.2594 707.377 Q56.6199 707.377 57.8613 706.2 Q59.1026 704.99 59.1026 701.33 L59.1026 695.314 L64.0042 695.314 L64.0042 701.33 Q64.0042 708.109 61.4897 710.687 Q58.9434 713.266 52.2594 713.266 L32.9077 713.266 L32.9077 717.562 L28.3562 717.562 L28.3562 713.266 L18.2347 713.266 L18.2347 707.377 Z" fill="#000000" fill-rule="nonzero" fill-opacity="1" /><path clip-path="url(#clip490)" d="M29.4065 664.886 L34.9447 664.886 Q33.6716 667.369 33.035 670.042 Q32.3984 672.716 32.3984 675.581 Q32.3984 679.941 33.7352 682.137 Q35.072 684.302 37.7456 684.302 Q39.7826 684.302 40.9603 682.742 Q42.1061 681.182 43.1565 676.472 L43.6021 674.467 Q44.9389 668.228 47.3897 665.618 Q49.8086 662.976 54.1691 662.976 Q59.1344 662.976 62.0308 666.923 Q64.9272 670.838 64.9272 677.713 Q64.9272 680.578 64.3543 683.697 Q63.8132 686.784 62.6992 690.222 L56.6518 690.222 Q58.3387 686.975 59.198 683.824 Q60.0256 680.673 60.0256 677.586 Q60.0256 673.448 58.6251 671.22 Q57.1929 668.992 54.6147 668.992 Q52.2276 668.992 50.9545 670.615 Q49.6813 672.207 48.5037 677.649 L48.0262 679.686 Q46.8804 685.129 44.5251 687.548 Q42.138 689.967 38.0002 689.967 Q32.9713 689.967 30.2341 686.402 Q27.4968 682.837 27.4968 676.281 Q27.4968 673.034 27.9743 670.17 Q28.4517 667.305 29.4065 664.886 Z" fill="#000000" fill-rule="nonzero" fill-opacity="1" /><path clip-path="url(#clip490)" d="M826.348 71.3202 L826.348 63.8666 Q829.427 65.3249 832.587 66.0946 Q835.746 66.8642 838.785 66.8642 Q846.886 66.8642 851.14 61.436 Q855.434 55.9673 856.041 44.8678 Q853.692 48.3516 850.087 50.215 Q846.481 52.0784 842.106 52.0784 Q833.032 52.0784 827.726 46.6097 Q822.459 41.1005 822.459 31.5808 Q822.459 22.2638 827.969 16.633 Q833.478 11.0023 842.633 11.0023 Q853.125 11.0023 858.634 19.0636 Q864.184 27.0843 864.184 42.3968 Q864.184 56.6965 857.378 65.2439 Q850.613 73.7508 839.149 73.7508 Q836.07 73.7508 832.911 73.1431 Q829.751 72.5355 826.348 71.3202 M842.633 45.678 Q848.142 45.678 851.342 41.9107 Q854.583 38.1433 854.583 31.5808 Q854.583 25.0589 851.342 21.2916 Q848.142 17.4837 842.633 17.4837 Q837.124 17.4837 833.883 21.2916 Q830.683 25.0589 830.683 31.5808 Q830.683 38.1433 833.883 41.9107 Q837.124 45.678 842.633 45.678 Z" fill="#000000" fill-rule="nonzero" fill-opacity="1" /><path clip-path="url(#clip490)" d="M878.889 62.2867 L887.436 62.2867 L887.436 72.576 L878.889 72.576 L878.889 62.2867 Z" fill="#000000" fill-rule="nonzero" fill-opacity="1" /><path clip-path="url(#clip490)" d="M906.678 65.6895 L920.046 65.6895 L920.046 19.5497 L905.503 22.4663 L905.503 15.0127 L919.965 12.096 L928.147 12.096 L928.147 65.6895 L941.515 65.6895 L941.515 72.576 L906.678 72.576 L906.678 65.6895 Z" fill="#000000" fill-rule="nonzero" fill-opacity="1" /><path clip-path="url(#clip490)" d="M975.543 43.8551 Q969.71 43.8551 966.348 46.9743 Q963.026 50.0935 963.026 55.5622 Q963.026 61.0309 966.348 64.1501 Q969.71 67.2693 975.543 67.2693 Q981.376 67.2693 984.739 64.1501 Q988.101 60.9904 988.101 55.5622 Q988.101 50.0935 984.739 46.9743 Q981.417 43.8551 975.543 43.8551 M967.36 40.3713 Q962.094 39.075 959.137 35.4697 Q956.22 31.8644 956.22 26.6793 Q956.22 19.4281 961.365 15.2152 Q966.55 11.0023 975.543 11.0023 Q984.577 11.0023 989.721 15.2152 Q994.866 19.4281 994.866 26.6793 Q994.866 31.8644 991.909 35.4697 Q988.992 39.075 983.766 40.3713 Q989.681 41.7486 992.962 45.759 Q996.284 49.7694 996.284 55.5622 Q996.284 64.3527 990.896 69.0517 Q985.549 73.7508 975.543 73.7508 Q965.537 73.7508 960.15 69.0517 Q954.802 64.3527 954.802 55.5622 Q954.802 49.7694 958.124 45.759 Q961.446 41.7486 967.36 40.3713 M964.363 27.4489 Q964.363 32.148 967.279 34.7811 Q970.236 37.4142 975.543 37.4142 Q980.809 37.4142 983.766 34.7811 Q986.764 32.148 986.764 27.4489 Q986.764 22.7499 983.766 20.1168 Q980.809 17.4837 975.543 17.4837 Q970.236 17.4837 967.279 20.1168 Q964.363 22.7499 964.363 27.4489 Z" fill="#000000" fill-rule="nonzero" fill-opacity="1" /><path clip-path="url(#clip490)" d="M1048.58 48.0275 L1048.58 51.6733 L1014.31 51.6733 Q1014.8 59.3701 1018.93 63.421 Q1023.1 67.4314 1030.51 67.4314 Q1034.81 67.4314 1038.82 66.3781 Q1042.87 65.3249 1046.84 63.2184 L1046.84 70.267 Q1042.83 71.9684 1038.62 72.8596 Q1034.4 73.7508 1030.07 73.7508 Q1019.21 73.7508 1012.85 67.4314 Q1006.53 61.1119 1006.53 50.3365 Q1006.53 39.1965 1012.53 32.6746 Q1018.56 26.1121 1028.77 26.1121 Q1037.93 26.1121 1043.23 32.0264 Q1048.58 37.9003 1048.58 48.0275 M1041.13 45.84 Q1041.05 39.7232 1037.68 36.0774 Q1034.36 32.4315 1028.85 32.4315 Q1022.61 32.4315 1018.85 35.9558 Q1015.12 39.4801 1014.55 45.8805 L1041.13 45.84 Z" fill="#000000" fill-rule="nonzero" fill-opacity="1" /><path clip-path="url(#clip490)" d="M1079.37 43.8551 Q1073.53 43.8551 1070.17 46.9743 Q1066.85 50.0935 1066.85 55.5622 Q1066.85 61.0309 1070.17 64.1501 Q1073.53 67.2693 1079.37 67.2693 Q1085.2 67.2693 1088.56 64.1501 Q1091.93 60.9904 1091.93 55.5622 Q1091.93 50.0935 1088.56 46.9743 Q1085.24 43.8551 1079.37 43.8551 M1071.18 40.3713 Q1065.92 39.075 1062.96 35.4697 Q1060.04 31.8644 1060.04 26.6793 Q1060.04 19.4281 1065.19 15.2152 Q1070.37 11.0023 1079.37 11.0023 Q1088.4 11.0023 1093.55 15.2152 Q1098.69 19.4281 1098.69 26.6793 Q1098.69 31.8644 1095.73 35.4697 Q1092.82 39.075 1087.59 40.3713 Q1093.51 41.7486 1096.79 45.759 Q1100.11 49.7694 1100.11 55.5622 Q1100.11 64.3527 1094.72 69.0517 Q1089.37 73.7508 1079.37 73.7508 Q1069.36 73.7508 1063.97 69.0517 Q1058.63 64.3527 1058.63 55.5622 Q1058.63 49.7694 1061.95 45.759 Q1065.27 41.7486 1071.18 40.3713 M1068.19 27.4489 Q1068.19 32.148 1071.1 34.7811 Q1074.06 37.4142 1079.37 37.4142 Q1084.63 37.4142 1087.59 34.7811 Q1090.59 32.148 1090.59 27.4489 Q1090.59 22.7499 1087.59 20.1168 Q1084.63 17.4837 1079.37 17.4837 Q1074.06 17.4837 1071.1 20.1168 Q1068.19 22.7499 1068.19 27.4489 Z" fill="#000000" fill-rule="nonzero" fill-opacity="1" /><path clip-path="url(#clip490)" d="M1177.68 45.1919 L1177.68 72.576 L1170.23 72.576 L1170.23 45.4349 Q1170.23 38.994 1167.72 35.7938 Q1165.21 32.5936 1160.18 32.5936 Q1154.15 32.5936 1150.66 36.4419 Q1147.18 40.2903 1147.18 46.9338 L1147.18 72.576 L1139.69 72.576 L1139.69 27.2059 L1147.18 27.2059 L1147.18 34.2544 Q1149.85 30.163 1153.46 28.1376 Q1157.1 26.1121 1161.84 26.1121 Q1169.66 26.1121 1173.67 30.9732 Q1177.68 35.7938 1177.68 45.1919 Z" fill="#000000" fill-rule="nonzero" fill-opacity="1" /><path clip-path="url(#clip490)" d="M1231.36 48.0275 L1231.36 51.6733 L1197.09 51.6733 Q1197.57 59.3701 1201.71 63.421 Q1205.88 67.4314 1213.29 67.4314 Q1217.58 67.4314 1221.59 66.3781 Q1225.65 65.3249 1229.62 63.2184 L1229.62 70.267 Q1225.61 71.9684 1221.39 72.8596 Q1217.18 73.7508 1212.85 73.7508 Q1201.99 73.7508 1195.63 67.4314 Q1189.31 61.1119 1189.31 50.3365 Q1189.31 39.1965 1195.3 32.6746 Q1201.34 26.1121 1211.55 26.1121 Q1220.7 26.1121 1226.01 32.0264 Q1231.36 37.9003 1231.36 48.0275 M1223.9 45.84 Q1223.82 39.7232 1220.46 36.0774 Q1217.14 32.4315 1211.63 32.4315 Q1205.39 32.4315 1201.62 35.9558 Q1197.9 39.4801 1197.33 45.8805 L1223.9 45.84 Z" fill="#000000" fill-rule="nonzero" fill-opacity="1" /><path clip-path="url(#clip490)" d="M1242.82 54.671 L1242.82 27.2059 L1250.28 27.2059 L1250.28 54.3874 Q1250.28 60.8284 1252.79 64.0691 Q1255.3 67.2693 1260.32 67.2693 Q1266.36 67.2693 1269.84 63.421 Q1273.37 59.5726 1273.37 52.9291 L1273.37 27.2059 L1280.82 27.2059 L1280.82 72.576 L1273.37 72.576 L1273.37 65.6084 Q1270.65 69.7404 1267.05 71.7658 Q1263.48 73.7508 1258.74 73.7508 Q1250.92 73.7508 1246.87 68.8897 Q1242.82 64.0286 1242.82 54.671 M1261.58 26.1121 L1261.58 26.1121 Z" fill="#000000" fill-rule="nonzero" fill-opacity="1" /><path clip-path="url(#clip490)" d="M1303.54 14.324 L1303.54 27.2059 L1318.9 27.2059 L1318.9 32.9987 L1303.54 32.9987 L1303.54 57.6282 Q1303.54 63.1779 1305.04 64.7578 Q1306.58 66.3376 1311.24 66.3376 L1318.9 66.3376 L1318.9 72.576 L1311.24 72.576 Q1302.61 72.576 1299.33 69.3758 Q1296.05 66.1351 1296.05 57.6282 L1296.05 32.9987 L1290.58 32.9987 L1290.58 27.2059 L1296.05 27.2059 L1296.05 14.324 L1303.54 14.324 Z" fill="#000000" fill-rule="nonzero" fill-opacity="1" /><path clip-path="url(#clip490)" d="M1354.99 34.1734 Q1353.74 33.4443 1352.24 33.1202 Q1350.78 32.7556 1349 32.7556 Q1342.68 32.7556 1339.27 36.8875 Q1335.91 40.9789 1335.91 48.6757 L1335.91 72.576 L1328.42 72.576 L1328.42 27.2059 L1335.91 27.2059 L1335.91 34.2544 Q1338.26 30.1225 1342.03 28.1376 Q1345.8 26.1121 1351.18 26.1121 Q1351.95 26.1121 1352.88 26.2337 Q1353.82 26.3147 1354.95 26.5172 L1354.99 34.1734 Z" fill="#000000" fill-rule="nonzero" fill-opacity="1" /><path clip-path="url(#clip490)" d="M1378.57 32.4315 Q1372.57 32.4315 1369.09 37.1306 Q1365.6 41.7891 1365.6 49.9314 Q1365.6 58.0738 1369.05 62.7728 Q1372.53 67.4314 1378.57 67.4314 Q1384.52 67.4314 1388.01 62.7323 Q1391.49 58.0333 1391.49 49.9314 Q1391.49 41.8701 1388.01 37.1711 Q1384.52 32.4315 1378.57 32.4315 M1378.57 26.1121 Q1388.29 26.1121 1393.84 32.4315 Q1399.39 38.7509 1399.39 49.9314 Q1399.39 61.0714 1393.84 67.4314 Q1388.29 73.7508 1378.57 73.7508 Q1368.8 73.7508 1363.26 67.4314 Q1357.75 61.0714 1357.75 49.9314 Q1357.75 38.7509 1363.26 32.4315 Q1368.8 26.1121 1378.57 26.1121 Z" fill="#000000" fill-rule="nonzero" fill-opacity="1" /><path clip-path="url(#clip490)" d="M1449.46 45.1919 L1449.46 72.576 L1442 72.576 L1442 45.4349 Q1442 38.994 1439.49 35.7938 Q1436.98 32.5936 1431.96 32.5936 Q1425.92 32.5936 1422.44 36.4419 Q1418.96 40.2903 1418.96 46.9338 L1418.96 72.576 L1411.46 72.576 L1411.46 27.2059 L1418.96 27.2059 L1418.96 34.2544 Q1421.63 30.163 1425.23 28.1376 Q1428.88 26.1121 1433.62 26.1121 Q1441.44 26.1121 1445.45 30.9732 Q1449.46 35.7938 1449.46 45.1919 Z" fill="#000000" fill-rule="nonzero" fill-opacity="1" /><path clip-path="url(#clip490)" d="M1493.25 28.5427 L1493.25 35.5912 Q1490.09 33.9709 1486.69 33.1607 Q1483.28 32.3505 1479.64 32.3505 Q1474.09 32.3505 1471.29 34.0519 Q1468.54 35.7533 1468.54 39.156 Q1468.54 41.7486 1470.52 43.2475 Q1472.51 44.7058 1478.5 46.0426 L1481.06 46.6097 Q1489 48.3111 1492.32 51.4303 Q1495.68 54.509 1495.68 60.0587 Q1495.68 66.3781 1490.66 70.0644 Q1485.67 73.7508 1476.92 73.7508 Q1473.28 73.7508 1469.31 73.0216 Q1465.38 72.3329 1461 70.9151 L1461 63.2184 Q1465.14 65.3654 1469.15 66.4591 Q1473.16 67.5124 1477.09 67.5124 Q1482.35 67.5124 1485.19 65.73 Q1488.02 63.9071 1488.02 60.6258 Q1488.02 57.5877 1485.96 55.9673 Q1483.93 54.3469 1477 52.8481 L1474.41 52.2405 Q1467.48 50.7821 1464.41 47.7845 Q1461.33 44.7463 1461.33 39.4801 Q1461.33 33.0797 1465.86 29.5959 Q1470.4 26.1121 1478.75 26.1121 Q1482.88 26.1121 1486.52 26.7198 Q1490.17 27.3274 1493.25 28.5427 Z" fill="#000000" fill-rule="nonzero" fill-opacity="1" /><path clip-path="url(#clip490)" d="M1562.84 28.5427 L1562.84 35.5912 Q1559.68 33.9709 1556.28 33.1607 Q1552.88 32.3505 1549.23 32.3505 Q1543.68 32.3505 1540.89 34.0519 Q1538.13 35.7533 1538.13 39.156 Q1538.13 41.7486 1540.12 43.2475 Q1542.1 44.7058 1548.1 46.0426 L1550.65 46.6097 Q1558.59 48.3111 1561.91 51.4303 Q1565.27 54.509 1565.27 60.0587 Q1565.27 66.3781 1560.25 70.0644 Q1555.27 73.7508 1546.52 73.7508 Q1542.87 73.7508 1538.9 73.0216 Q1534.97 72.3329 1530.6 70.9151 L1530.6 63.2184 Q1534.73 65.3654 1538.74 66.4591 Q1542.75 67.5124 1546.68 67.5124 Q1551.95 67.5124 1554.78 65.73 Q1557.62 63.9071 1557.62 60.6258 Q1557.62 57.5877 1555.55 55.9673 Q1553.53 54.3469 1546.6 52.8481 L1544.01 52.2405 Q1537.08 50.7821 1534 47.7845 Q1530.92 44.7463 1530.92 39.4801 Q1530.92 33.0797 1535.46 29.5959 Q1540 26.1121 1548.34 26.1121 Q1552.47 26.1121 1556.12 26.7198 Q1559.76 27.3274 1562.84 28.5427 Z" fill="#000000" fill-rule="nonzero" fill-opacity="1" /><path clip-path="url(#clip490)" d="M1574.87 29.0288 L1607.57 29.0288 L1607.57 32.8771 L1574.87 32.8771 L1574.87 29.0288 Z" fill="#000000" fill-rule="nonzero" fill-opacity="1" /><path clip-path="url(#clip490)" d="M1619.43 41.06 L1627.7 41.06 L1627.7 16.3089 L1618.66 17.9698 L1618.66 13.2708 L1627.98 11.6909 L1633.53 11.6909 L1633.53 41.06 L1641.84 41.06 L1641.84 45.516 L1619.43 45.516 L1619.43 41.06 Z" fill="#000000" fill-rule="nonzero" fill-opacity="1" /><path clip-path="url(#clip490)" d="M1713.21 28.9478 L1713.21 35.9153 Q1710.05 34.1734 1706.85 33.3227 Q1703.69 32.4315 1700.45 32.4315 Q1693.2 32.4315 1689.19 37.0496 Q1685.18 41.6271 1685.18 49.9314 Q1685.18 58.2358 1689.19 62.8538 Q1693.2 67.4314 1700.45 67.4314 Q1703.69 67.4314 1706.85 66.5807 Q1710.05 65.6895 1713.21 63.9476 L1713.21 70.8341 Q1710.09 72.2924 1706.73 73.0216 Q1703.41 73.7508 1699.64 73.7508 Q1689.39 73.7508 1683.36 67.3098 Q1677.32 60.8689 1677.32 49.9314 Q1677.32 38.832 1683.4 32.472 Q1689.51 26.1121 1700.13 26.1121 Q1703.57 26.1121 1706.85 26.8413 Q1710.13 27.5299 1713.21 28.9478 Z" fill="#000000" fill-rule="nonzero" fill-opacity="1" /><path clip-path="url(#clip490)" d="M1761.5 35.9153 Q1764.29 30.8922 1768.18 28.5022 Q1772.07 26.1121 1777.34 26.1121 Q1784.43 26.1121 1788.28 31.0947 Q1792.12 36.0368 1792.12 45.1919 L1792.12 72.576 L1784.63 72.576 L1784.63 45.4349 Q1784.63 38.913 1782.32 35.7533 Q1780.01 32.5936 1775.27 32.5936 Q1769.48 32.5936 1766.12 36.4419 Q1762.76 40.2903 1762.76 46.9338 L1762.76 72.576 L1755.26 72.576 L1755.26 45.4349 Q1755.26 38.8725 1752.95 35.7533 Q1750.64 32.5936 1745.82 32.5936 Q1740.11 32.5936 1736.75 36.4824 Q1733.39 40.3308 1733.39 46.9338 L1733.39 72.576 L1725.89 72.576 L1725.89 27.2059 L1733.39 27.2059 L1733.39 34.2544 Q1735.94 30.082 1739.5 28.0971 Q1743.07 26.1121 1747.97 26.1121 Q1752.91 26.1121 1756.35 28.6237 Q1759.84 31.1352 1761.5 35.9153 Z" fill="#000000" fill-rule="nonzero" fill-opacity="1" /><path clip-path="url(#clip490)" d="M1804.72 29.0288 L1837.41 29.0288 L1837.41 32.8771 L1804.72 32.8771 L1804.72 29.0288 Z" fill="#000000" fill-rule="nonzero" fill-opacity="1" /><path clip-path="url(#clip490)" d="M1853.82 40.8979 L1871 40.8979 L1871 45.516 L1846.77 45.516 L1846.77 41.06 Q1848.15 39.8042 1850.7 37.5357 Q1864.64 25.1804 1864.64 21.3726 Q1864.64 18.699 1862.53 17.0786 Q1860.42 15.4177 1856.98 15.4177 Q1854.87 15.4177 1852.4 16.1469 Q1849.93 16.8356 1847.01 18.2534 L1847.01 13.2708 Q1850.13 12.1365 1852.81 11.5694 Q1855.52 11.0023 1857.83 11.0023 Q1863.7 11.0023 1867.23 13.6759 Q1870.75 16.3494 1870.75 20.7244 Q1870.75 26.3552 1857.34 37.8598 Q1855.08 39.8042 1853.82 40.8979 Z" fill="#000000" fill-rule="nonzero" fill-opacity="1" /><polyline clip-path="url(#clip492)" style="stroke:#000000; stroke-linecap:round; stroke-linejoin:round; stroke-width:4; stroke-opacity:1; fill:none" points="397.644,1386.4 397.644,1386.4 405.488,1386.4 405.488,1386.36 413.331,1386.36 413.331,1386.26 421.175,1386.26 421.175,1386.38 429.019,1386.38 429.019,1386.34 436.862,1386.34 436.862,1386.38 444.706,1386.38 452.55,1386.38 452.55,1386.36 460.393,1386.36 468.237,1386.36 468.237,1386.4 476.081,1386.4 483.924,1386.4 491.768,1386.4 491.768,1386.38 499.612,1386.38 507.455,1386.38 507.455,1386.36 515.299,1386.36 515.299,1386.34 523.143,1386.34 523.143,1386.38 530.986,1386.38 530.986,1386.32 538.83,1386.32 538.83,1386.34 546.674,1386.34 546.674,1386.36 554.517,1386.36 562.361,1386.36 562.361,1386.26 570.205,1386.26 570.205,1386.38 578.048,1386.38 578.048,1386.32 585.892,1386.32 585.892,1386.38 593.736,1386.38 593.736,1386.36 601.579,1386.36 601.579,1386.28 609.423,1386.28 609.423,1386.36 617.267,1386.36 617.267,1386.4 625.11,1386.4 625.11,1386.38 632.954,1386.38 640.798,1386.38 640.798,1386.4 648.641,1386.4 648.641,1386.38 656.485,1386.38 656.485,1386.36 664.329,1386.36 672.172,1386.36 672.172,1386.38 680.016,1386.38 687.86,1386.38 687.86,1386.4 695.703,1386.4 703.547,1386.4 711.391,1386.4 711.391,1386.38 719.234,1386.38 727.078,1386.38 727.078,1386.4 734.922,1386.4 734.922,1386.36 742.765,1386.36 742.765,1386.38 750.609,1386.38 750.609,1386.36 758.453,1386.36 758.453,1386.38 766.296,1386.38 766.296,1386.36 774.14,1386.36 774.14,1386.4 781.984,1386.4 781.984,1386.38 789.827,1386.38 789.827,1386.3 797.671,1386.3 797.671,1386.36 805.515,1386.36 805.515,1386.38 813.358,1386.38 813.358,1386.36 821.202,1386.36 821.202,1386.4 829.046,1386.4 829.046,1386.38 836.889,1386.38 836.889,1386.4 844.733,1386.4 844.733,1386.38 852.577,1386.38 860.42,1386.38 860.42,1386.4 868.264,1386.4 868.264,1386.38 876.108,1386.38 876.108,1386.4 883.951,1386.4 883.951,1386.38 891.795,1386.38 891.795,1386.4 899.639,1386.4 899.639,1386.38 907.482,1386.38 915.326,1386.38 915.326,1386.4 923.17,1386.4 923.17,1386.36 931.013,1386.36 931.013,1386.38 938.857,1386.38 938.857,1386.36 946.701,1386.36 946.701,1386.38 954.544,1386.38 954.544,1386.4 962.388,1386.4 970.232,1386.4 978.075,1386.4 978.075,1386.38 985.919,1386.38 985.919,1386.4 993.763,1386.4 993.763,1386.38 1001.61,1386.38 1001.61,1386.36 1009.45,1386.36 1009.45,1386.4 1017.29,1386.4 1017.29,1386.38 1025.14,1386.38 1025.14,1386.4 1032.98,1386.4 1040.82,1386.4 1048.67,1386.4 1048.67,1386.38 1056.51,1386.38 1056.51,1386.4 1064.36,1386.4 1064.36,1386.38 1072.2,1386.38 1072.2,1386.4 1080.04,1386.4 1087.89,1386.4 1087.89,1386.38 1095.73,1386.38 1103.57,1386.38 1103.57,1386.4 1111.42,1386.4 1111.42,1386.38 1119.26,1386.38 1119.26,1386.4 1127.1,1386.4 1134.95,1386.4 1142.79,1386.4 1142.79,1386.38 1150.64,1386.38 1150.64,1386.4 1158.48,1386.4 1158.48,1386.38 1166.32,1386.38 1166.32,1386.4 1174.17,1386.4 1182.01,1386.4 1182.01,1386.36 1189.85,1386.36 1189.85,1386.4 1197.7,1386.4 1197.7,1386.38 1205.54,1386.38 1213.39,1386.38 1213.39,1386.4 1221.23,1386.4 1221.23,1386.36 1229.07,1386.36 1236.92,1386.36 1236.92,1386.4 1244.76,1386.4 1252.6,1386.4 1252.6,1386.38 1260.45,1386.38 1268.29,1386.38 1268.29,1386.4 1276.13,1386.4 1283.98,1386.4 1291.82,1386.4 1291.82,1386.38 1299.67,1386.38 1299.67,1386.4 1307.51,1386.4 1315.35,1386.4 1315.35,1386.38 1323.2,1386.38 1331.04,1386.38 1331.04,1386.4 1338.88,1386.4 1338.88,1386.38 1346.73,1386.38 1346.73,1386.4 1354.57,1386.4 1362.41,1386.4 1370.26,1386.4 1370.26,1386.38 1378.1,1386.38 1378.1,1386.36 1385.95,1386.36 1385.95,1386.38 1393.79,1386.38 1401.63,1386.38 1409.48,1386.38 1409.48,1386.4 1417.32,1386.4 1425.16,1386.4 1425.16,1386.38 1433.01,1386.38 1433.01,1386.4 1440.85,1386.4 1440.85,1386.36 1448.7,1386.36 1448.7,1386.38 1456.54,1386.38 1456.54,1386.4 1464.38,1386.4 1472.23,1386.4 1472.23,1386.38 1480.07,1386.38 1480.07,1386.4 1487.91,1386.4 1487.91,1386.38 1495.76,1386.38 1503.6,1386.38 1503.6,1386.4 1511.44,1386.4 1519.29,1386.4 1527.13,1386.4 1534.98,1386.4 1542.82,1386.4 1542.82,1386.38 1550.66,1386.38 1550.66,1386.4 1558.51,1386.4 1566.35,1386.4 1574.19,1386.4 1582.04,1386.4 1589.88,1386.4 1597.72,1386.4 1605.57,1386.4 1613.41,1386.4 1621.26,1386.4 1629.1,1386.4 1636.94,1386.4 1636.94,1386.36 1644.79,1386.36 1644.79,1386.4 1652.63,1386.4 1652.63,1386.36 1660.47,1386.36 1660.47,1386.4 1668.32,1386.4 1676.16,1386.4 1684.01,1386.4 1691.85,1386.4 1691.85,1386.38 1699.69,1386.38 1699.69,1386.4 1707.54,1386.4 1715.38,1386.4 1723.22,1386.4 1731.07,1386.4 1731.07,1386.38 1738.91,1386.38 1738.91,1386.4 1746.75,1386.4 1746.75,1386.38 1754.6,1386.38 1762.44,1386.38 1762.44,1386.4 1770.29,1386.4 1770.29,1386.38 1778.13,1386.38 1785.97,1386.38 1785.97,1386.4 1793.82,1386.4 1801.66,1386.4 1809.5,1386.4 1809.5,1386.38 1817.35,1386.38 1817.35,1386.4 1825.19,1386.4 1833.03,1386.4 1833.03,1386.36 1840.88,1386.36 1840.88,1386.38 1848.72,1386.38 1848.72,1386.36 1856.57,1386.36 1856.57,1386.4 1864.41,1386.4 1872.25,1386.4 1880.1,1386.4 1887.94,1386.4 1895.78,1386.4 1895.78,1386.38 1903.63,1386.38 1903.63,1386.4 1911.47,1386.4 1919.31,1386.4 1927.16,1386.4 1935,1386.4 1942.85,1386.4 1950.69,1386.4 1958.53,1386.4 1966.38,1386.4 1966.38,1386.38 1974.22,1386.38 1974.22,1386.4 1982.06,1386.4 1989.91,1386.4 1997.75,1386.4 1997.75,1386.38 2005.6,1386.38 2005.6,1386.4 2013.44,1386.4 2021.28,1386.4 2029.13,1386.4 2029.13,1386.38 2036.97,1386.38 2036.97,1386.4 2044.81,1386.4 2052.66,1386.4 2060.5,1386.4 2060.5,1386.38 2068.34,1386.38 2068.34,1386.4 2076.19,1386.4 2084.03,1386.4 2091.88,1386.4 2099.72,1386.4 2107.56,1386.4 2115.41,1386.4 2123.25,1386.4 2131.09,1386.4 2138.94,1386.4 2146.78,1386.4 2146.78,1386.36 2154.62,1386.36 2154.62,1386.4 2162.47,1386.4 2170.31,1386.4 2178.16,1386.4 2186,1386.4 2186,1386.38 2193.84,1386.38 2193.84,1386.4 2201.69,1386.4 2201.69,1386.36 2209.53,1386.36 2209.53,1386.4 2217.37,1386.4 2217.37,1386.38 2225.22,1386.38 2225.22,1386.4 2233.06,1386.4 2240.91,1386.4 2248.75,1386.4 2248.75,1386.38 2256.59,1386.38 2264.44,1386.38 2264.44,1386.4 2272.28,1386.4 2280.12,1386.4 2287.97,1386.4 2295.81,1386.4 "/>
<polyline clip-path="url(#clip492)" style="stroke:#ff0000; stroke-linecap:round; stroke-linejoin:round; stroke-width:4; stroke-opacity:1; fill:none" points="397.644,1386.4 397.644,1386.36 405.488,1386.36 405.488,225.548 413.331,225.548 413.331,160.256 421.175,160.256 421.175,493.058 429.019,493.058 429.019,688.954 436.862,688.954 436.862,819.655 444.706,819.655 444.706,899.845 452.55,899.845 452.55,959.361 460.393,959.361 460.393,1008.7 468.237,1008.7 468.237,1036.93 476.081,1036.93 476.081,1073.74 483.924,1073.74 483.924,1089.21 491.768,1089.21 491.768,1106.87 499.612,1106.87 499.612,1127.13 507.455,1127.13 507.455,1142.5 515.299,1142.5 515.299,1158.87 523.143,1158.87 523.143,1170.54 530.986,1170.54 530.986,1187.72 538.83,1187.72 538.83,1197.46 546.674,1197.46 546.674,1212.22 554.517,1212.22 554.517,1223.41 562.361,1223.41 562.361,1235.27 570.205,1235.27 570.205,1243.23 578.048,1243.23 578.048,1251.75 585.892,1251.75 585.892,1263.09 593.736,1263.09 593.736,1316.9 601.579,1316.9 601.579,1324.16 609.423,1324.16 609.423,1337.17 617.267,1337.17 617.267,1352.24 625.11,1352.24 625.11,1359.15 632.954,1359.15 632.954,1362.88 640.798,1362.88 640.798,1365.86 648.641,1365.86 648.641,1369.03 656.485,1369.03 656.485,1371.67 664.329,1371.67 664.329,1371.48 672.172,1371.48 672.172,1372.88 680.016,1372.88 680.016,1374.38 687.86,1374.38 687.86,1375.64 695.703,1375.64 695.703,1376.77 703.547,1376.77 703.547,1376.92 711.391,1376.92 711.391,1377.94 719.234,1377.94 719.234,1378.11 727.078,1378.11 727.078,1378.32 734.922,1378.32 734.922,1379.72 742.765,1379.72 742.765,1379.86 750.609,1379.86 750.609,1380.19 758.453,1380.19 758.453,1379.84 766.296,1379.84 766.296,1381.22 774.14,1381.22 774.14,1381.24 781.984,1381.24 781.984,1381.3 789.827,1381.3 789.827,1381.88 797.671,1381.88 797.671,1382.04 805.515,1382.04 805.515,1382.19 813.358,1382.19 813.358,1382.1 821.202,1382.1 821.202,1382.39 829.046,1382.39 829.046,1382.47 836.889,1382.47 836.889,1382.23 844.733,1382.23 844.733,1382.62 852.577,1382.62 852.577,1382.89 860.42,1382.89 860.42,1383.58 868.264,1383.58 868.264,1383.46 876.108,1383.46 876.108,1383.44 883.951,1383.44 883.951,1383.83 891.795,1383.83 891.795,1383.61 899.639,1383.61 899.639,1383.77 907.482,1383.77 907.482,1384.02 915.326,1384.02 915.326,1384.41 923.17,1384.41 923.17,1384.18 931.013,1384.18 931.013,1384.26 938.857,1384.26 938.857,1383.93 946.701,1383.93 946.701,1384.59 954.544,1384.59 954.544,1384.51 962.388,1384.51 962.388,1384.63 970.232,1384.63 970.232,1384.3 978.075,1384.3 978.075,1384.35 985.919,1384.35 985.919,1384.57 993.763,1384.57 993.763,1384.68 1001.61,1384.68 1001.61,1385.11 1009.45,1385.11 1009.45,1384.78 1017.29,1384.78 1017.29,1385 1025.14,1385 1025.14,1385.01 1032.98,1385.01 1032.98,1384.88 1040.82,1384.88 1040.82,1384.9 1048.67,1384.9 1048.67,1384.98 1056.51,1384.98 1056.51,1385.05 1064.36,1385.05 1064.36,1385.15 1072.2,1385.15 1072.2,1385.36 1080.04,1385.36 1080.04,1385.44 1087.89,1385.44 1087.89,1385.15 1095.73,1385.15 1095.73,1385.19 1103.57,1385.19 1111.42,1385.19 1111.42,1385.44 1119.26,1385.44 1119.26,1385.36 1127.1,1385.36 1127.1,1385.68 1134.95,1385.68 1134.95,1385.46 1142.79,1385.46 1142.79,1385.66 1150.64,1385.66 1150.64,1385.4 1158.48,1385.4 1158.48,1385.29 1166.32,1385.29 1166.32,1385.33 1174.17,1385.33 1174.17,1385.27 1182.01,1385.27 1182.01,1385.33 1189.85,1385.33 1189.85,1385.44 1197.7,1385.44 1197.7,1385.31 1205.54,1385.31 1205.54,1385.54 1213.39,1385.54 1213.39,1385.83 1221.23,1385.83 1221.23,1385.52 1229.07,1385.52 1229.07,1385.31 1236.92,1385.31 1236.92,1385.71 1244.76,1385.71 1244.76,1385.68 1252.6,1385.68 1260.45,1385.68 1260.45,1385.58 1268.29,1385.58 1268.29,1385.7 1276.13,1385.7 1276.13,1385.68 1283.98,1385.68 1283.98,1385.5 1291.82,1385.5 1291.82,1385.56 1299.67,1385.56 1299.67,1385.87 1307.51,1385.87 1307.51,1385.56 1315.35,1385.56 1315.35,1385.85 1323.2,1385.85 1323.2,1385.7 1331.04,1385.7 1331.04,1385.83 1338.88,1385.83 1338.88,1385.73 1346.73,1385.73 1346.73,1385.89 1354.57,1385.89 1354.57,1385.95 1362.41,1385.95 1362.41,1385.89 1370.26,1385.89 1370.26,1385.81 1378.1,1385.81 1378.1,1385.68 1385.95,1385.68 1385.95,1385.85 1393.79,1385.85 1393.79,1385.93 1401.63,1385.93 1401.63,1385.95 1409.48,1385.95 1409.48,1385.79 1417.32,1385.79 1417.32,1385.99 1425.16,1385.99 1425.16,1385.71 1433.01,1385.71 1433.01,1385.75 1440.85,1385.75 1440.85,1385.89 1448.7,1385.89 1448.7,1385.93 1456.54,1385.93 1456.54,1385.81 1464.38,1385.81 1464.38,1385.91 1472.23,1385.91 1480.07,1385.91 1480.07,1385.99 1487.91,1385.99 1487.91,1385.95 1495.76,1385.95 1495.76,1386.14 1503.6,1386.14 1503.6,1385.95 1511.44,1385.95 1511.44,1386.07 1519.29,1386.07 1519.29,1385.87 1527.13,1385.87 1527.13,1385.93 1534.98,1385.93 1534.98,1385.89 1542.82,1385.89 1542.82,1386.07 1550.66,1386.07 1550.66,1385.99 1558.51,1385.99 1558.51,1386.03 1566.35,1386.03 1574.19,1386.03 1574.19,1385.89 1582.04,1385.89 1582.04,1386.07 1589.88,1386.07 1589.88,1385.95 1597.72,1385.95 1597.72,1385.99 1605.57,1385.99 1605.57,1386.1 1613.41,1386.1 1613.41,1386.03 1621.26,1386.03 1621.26,1386.18 1629.1,1386.18 1629.1,1386.05 1636.94,1386.05 1636.94,1386.03 1644.79,1386.03 1644.79,1386.08 1652.63,1386.08 1660.47,1386.08 1660.47,1386.07 1668.32,1386.07 1668.32,1386.14 1676.16,1386.14 1676.16,1386.05 1684.01,1386.05 1684.01,1386.03 1691.85,1386.03 1691.85,1386.05 1699.69,1386.05 1699.69,1385.97 1707.54,1385.97 1707.54,1386.2 1715.38,1386.2 1715.38,1385.97 1723.22,1385.97 1723.22,1386.22 1731.07,1386.22 1731.07,1386.16 1738.91,1386.16 1738.91,1386.08 1746.75,1386.08 1746.75,1386.12 1754.6,1386.12 1762.44,1386.12 1762.44,1386.05 1770.29,1386.05 1770.29,1386.08 1778.13,1386.08 1778.13,1386.1 1785.97,1386.1 1785.97,1386.12 1793.82,1386.12 1793.82,1386.16 1801.66,1386.16 1801.66,1386.22 1809.5,1386.22 1809.5,1386.16 1817.35,1386.16 1817.35,1386.01 1825.19,1386.01 1825.19,1386.08 1833.03,1386.08 1840.88,1386.08 1840.88,1386.16 1848.72,1386.16 1848.72,1386.01 1856.57,1386.01 1856.57,1386.07 1864.41,1386.07 1864.41,1386.08 1872.25,1386.08 1872.25,1386.16 1880.1,1386.16 1887.94,1386.16 1887.94,1386.08 1895.78,1386.08 1895.78,1386.3 1903.63,1386.3 1903.63,1386.22 1911.47,1386.22 1911.47,1386.05 1919.31,1386.05 1919.31,1386.1 1927.16,1386.1 1927.16,1386.16 1935,1386.16 1935,1386.26 1942.85,1386.26 1942.85,1386.1 1950.69,1386.1 1950.69,1386.18 1958.53,1386.18 1958.53,1386.1 1966.38,1386.1 1966.38,1386.18 1974.22,1386.18 1974.22,1386.1 1982.06,1386.1 1982.06,1386.12 1989.91,1386.12 1989.91,1386.24 1997.75,1386.24 2005.6,1386.24 2005.6,1386.2 2013.44,1386.2 2013.44,1386.28 2021.28,1386.28 2029.13,1386.28 2029.13,1386.2 2036.97,1386.2 2036.97,1386.28 2044.81,1386.28 2044.81,1386.14 2052.66,1386.14 2052.66,1386.18 2060.5,1386.18 2060.5,1386.14 2068.34,1386.14 2068.34,1386.2 2076.19,1386.2 2084.03,1386.2 2084.03,1386.16 2091.88,1386.16 2091.88,1386.18 2099.72,1386.18 2099.72,1386.14 2107.56,1386.14 2107.56,1386.24 2115.41,1386.24 2115.41,1386.2 2123.25,1386.2 2131.09,1386.2 2138.94,1386.2 2146.78,1386.2 2146.78,1386.14 2154.62,1386.14 2154.62,1386.24 2162.47,1386.24 2162.47,1386.16 2170.31,1386.16 2170.31,1386.32 2178.16,1386.32 2186,1386.32 2186,1386.22 2193.84,1386.22 2201.69,1386.22 2201.69,1386.24 2209.53,1386.24 2209.53,1386.14 2217.37,1386.14 2217.37,1386.24 2225.22,1386.24 2225.22,1386.16 2233.06,1386.16 2233.06,1386.26 2240.91,1386.26 2240.91,1386.22 2248.75,1386.22 2256.59,1386.22 2256.59,1386.26 2264.44,1386.26 2264.44,1386.3 2272.28,1386.3 2280.12,1386.3 2280.12,1386.18 2287.97,1386.18 2287.97,1386.22 2295.81,1386.22 2295.81,1386.4 "/>
<path clip-path="url(#clip490)" d="M1669.76 322.316 L2285.69 322.316 L2285.69 166.796 L1669.76 166.796  Z" fill="#ffffff" fill-rule="evenodd" fill-opacity="1"/>
<polyline clip-path="url(#clip490)" style="stroke:#000000; stroke-linecap:round; stroke-linejoin:round; stroke-width:4; stroke-opacity:1; fill:none" points="1669.76,322.316 2285.69,322.316 2285.69,166.796 1669.76,166.796 1669.76,322.316 "/>
<polyline clip-path="url(#clip490)" style="stroke:#000000; stroke-linecap:round; stroke-linejoin:round; stroke-width:4; stroke-opacity:1; fill:none" points="1692.12,218.636 1826.25,218.636 "/>
<path clip-path="url(#clip490)" d="M1876.48 204.018 L1876.48 208.948 Q1874.12 206.749 1871.44 205.661 Q1868.77 204.573 1865.76 204.573 Q1859.84 204.573 1856.69 208.208 Q1853.54 211.819 1853.54 218.67 Q1853.54 225.499 1856.69 229.133 Q1859.84 232.744 1865.76 232.744 Q1868.77 232.744 1871.44 231.656 Q1874.12 230.569 1876.48 228.369 L1876.48 233.254 Q1874.03 234.92 1871.27 235.754 Q1868.54 236.587 1865.49 236.587 Q1857.64 236.587 1853.13 231.795 Q1848.61 226.981 1848.61 218.67 Q1848.61 210.337 1853.13 205.546 Q1857.64 200.731 1865.49 200.731 Q1868.59 200.731 1871.32 201.564 Q1874.07 202.374 1876.48 204.018 Z" fill="#000000" fill-rule="nonzero" fill-opacity="1" /><path clip-path="url(#clip490)" d="M1893.56 212.976 Q1890.14 212.976 1888.15 215.661 Q1886.16 218.323 1886.16 222.976 Q1886.16 227.629 1888.12 230.314 Q1890.12 232.976 1893.56 232.976 Q1896.97 232.976 1898.96 230.291 Q1900.95 227.606 1900.95 222.976 Q1900.95 218.37 1898.96 215.684 Q1896.97 212.976 1893.56 212.976 M1893.56 209.365 Q1899.12 209.365 1902.29 212.976 Q1905.46 216.587 1905.46 222.976 Q1905.46 229.342 1902.29 232.976 Q1899.12 236.587 1893.56 236.587 Q1887.99 236.587 1884.81 232.976 Q1881.67 229.342 1881.67 222.976 Q1881.67 216.587 1884.81 212.976 Q1887.99 209.365 1893.56 209.365 Z" fill="#000000" fill-rule="nonzero" fill-opacity="1" /><path clip-path="url(#clip490)" d="M1927.55 213.971 Q1926.83 213.555 1925.97 213.37 Q1925.14 213.161 1924.12 213.161 Q1920.51 213.161 1918.56 215.522 Q1916.64 217.86 1916.64 222.258 L1916.64 235.916 L1912.36 235.916 L1912.36 209.99 L1916.64 209.99 L1916.64 214.018 Q1917.99 211.657 1920.14 210.522 Q1922.29 209.365 1925.37 209.365 Q1925.81 209.365 1926.34 209.434 Q1926.87 209.481 1927.52 209.596 L1927.55 213.971 Z" fill="#000000" fill-rule="nonzero" fill-opacity="1" /><path clip-path="url(#clip490)" d="M1946.2 213.971 Q1945.49 213.555 1944.63 213.37 Q1943.8 213.161 1942.78 213.161 Q1939.17 213.161 1937.22 215.522 Q1935.3 217.86 1935.3 222.258 L1935.3 235.916 L1931.02 235.916 L1931.02 209.99 L1935.3 209.99 L1935.3 214.018 Q1936.64 211.657 1938.8 210.522 Q1940.95 209.365 1944.03 209.365 Q1944.47 209.365 1945 209.434 Q1945.53 209.481 1946.18 209.596 L1946.2 213.971 Z" fill="#000000" fill-rule="nonzero" fill-opacity="1" /><path clip-path="url(#clip490)" d="M1971.8 221.888 L1971.8 223.971 L1952.22 223.971 Q1952.5 228.369 1954.86 230.684 Q1957.24 232.976 1961.48 232.976 Q1963.93 232.976 1966.23 232.374 Q1968.54 231.772 1970.81 230.569 L1970.81 234.596 Q1968.52 235.568 1966.11 236.078 Q1963.7 236.587 1961.23 236.587 Q1955.02 236.587 1951.39 232.976 Q1947.78 229.365 1947.78 223.207 Q1947.78 216.842 1951.2 213.115 Q1954.65 209.365 1960.49 209.365 Q1965.72 209.365 1968.75 212.745 Q1971.8 216.101 1971.8 221.888 M1967.55 220.638 Q1967.5 217.143 1965.58 215.059 Q1963.68 212.976 1960.53 212.976 Q1956.97 212.976 1954.81 214.99 Q1952.68 217.004 1952.36 220.661 L1967.55 220.638 Z" fill="#000000" fill-rule="nonzero" fill-opacity="1" /><path clip-path="url(#clip490)" d="M1997.45 210.985 L1997.45 214.967 Q1995.65 213.971 1993.82 213.485 Q1992.01 212.976 1990.16 212.976 Q1986.02 212.976 1983.73 215.615 Q1981.43 218.231 1981.43 222.976 Q1981.43 227.721 1983.73 230.36 Q1986.02 232.976 1990.16 232.976 Q1992.01 232.976 1993.82 232.49 Q1995.65 231.981 1997.45 230.985 L1997.45 234.92 Q1995.67 235.754 1993.75 236.17 Q1991.85 236.587 1989.7 236.587 Q1983.84 236.587 1980.39 232.906 Q1976.94 229.226 1976.94 222.976 Q1976.94 216.633 1980.42 212.999 Q1983.91 209.365 1989.98 209.365 Q1991.94 209.365 1993.82 209.782 Q1995.69 210.175 1997.45 210.985 Z" fill="#000000" fill-rule="nonzero" fill-opacity="1" /><path clip-path="url(#clip490)" d="M2009.07 202.629 L2009.07 209.99 L2017.85 209.99 L2017.85 213.3 L2009.07 213.3 L2009.07 227.374 Q2009.07 230.545 2009.93 231.448 Q2010.81 232.351 2013.47 232.351 L2017.85 232.351 L2017.85 235.916 L2013.47 235.916 Q2008.54 235.916 2006.67 234.087 Q2004.79 232.235 2004.79 227.374 L2004.79 213.3 L2001.67 213.3 L2001.67 209.99 L2004.79 209.99 L2004.79 202.629 L2009.07 202.629 Z" fill="#000000" fill-rule="nonzero" fill-opacity="1" /><path clip-path="url(#clip490)" d="M2060.69 221.888 L2060.69 223.971 L2041.11 223.971 Q2041.39 228.369 2043.75 230.684 Q2046.13 232.976 2050.37 232.976 Q2052.82 232.976 2055.11 232.374 Q2057.43 231.772 2059.7 230.569 L2059.7 234.596 Q2057.41 235.568 2055 236.078 Q2052.59 236.587 2050.11 236.587 Q2043.91 236.587 2040.28 232.976 Q2036.67 229.365 2036.67 223.207 Q2036.67 216.842 2040.09 213.115 Q2043.54 209.365 2049.37 209.365 Q2054.61 209.365 2057.64 212.745 Q2060.69 216.101 2060.69 221.888 M2056.43 220.638 Q2056.39 217.143 2054.47 215.059 Q2052.57 212.976 2049.42 212.976 Q2045.86 212.976 2043.7 214.99 Q2041.57 217.004 2041.25 220.661 L2056.43 220.638 Z" fill="#000000" fill-rule="nonzero" fill-opacity="1" /><path clip-path="url(#clip490)" d="M2064.63 209.99 L2069.14 209.99 L2077.24 231.749 L2085.35 209.99 L2089.86 209.99 L2080.14 235.916 L2074.35 235.916 L2064.63 209.99 Z" fill="#000000" fill-rule="nonzero" fill-opacity="1" /><path clip-path="url(#clip490)" d="M2117.92 221.888 L2117.92 223.971 L2098.33 223.971 Q2098.61 228.369 2100.97 230.684 Q2103.36 232.976 2107.59 232.976 Q2110.04 232.976 2112.34 232.374 Q2114.65 231.772 2116.92 230.569 L2116.92 234.596 Q2114.63 235.568 2112.22 236.078 Q2109.81 236.587 2107.34 236.587 Q2101.13 236.587 2097.5 232.976 Q2093.89 229.365 2093.89 223.207 Q2093.89 216.842 2097.31 213.115 Q2100.76 209.365 2106.6 209.365 Q2111.83 209.365 2114.86 212.745 Q2117.92 216.101 2117.92 221.888 M2113.66 220.638 Q2113.61 217.143 2111.69 215.059 Q2109.79 212.976 2106.64 212.976 Q2103.08 212.976 2100.92 214.99 Q2098.79 217.004 2098.47 220.661 L2113.66 220.638 Z" fill="#000000" fill-rule="nonzero" fill-opacity="1" /><path clip-path="url(#clip490)" d="M2146.46 220.268 L2146.46 235.916 L2142.2 235.916 L2142.2 220.407 Q2142.2 216.726 2140.76 214.897 Q2139.33 213.069 2136.46 213.069 Q2133.01 213.069 2131.02 215.268 Q2129.03 217.467 2129.03 221.263 L2129.03 235.916 L2124.74 235.916 L2124.74 209.99 L2129.03 209.99 L2129.03 214.018 Q2130.55 211.68 2132.61 210.522 Q2134.7 209.365 2137.41 209.365 Q2141.87 209.365 2144.17 212.143 Q2146.46 214.897 2146.46 220.268 Z" fill="#000000" fill-rule="nonzero" fill-opacity="1" /><path clip-path="url(#clip490)" d="M2159.17 202.629 L2159.17 209.99 L2167.94 209.99 L2167.94 213.3 L2159.17 213.3 L2159.17 227.374 Q2159.17 230.545 2160.02 231.448 Q2160.9 232.351 2163.56 232.351 L2167.94 232.351 L2167.94 235.916 L2163.56 235.916 Q2158.63 235.916 2156.76 234.087 Q2154.88 232.235 2154.88 227.374 L2154.88 213.3 L2151.76 213.3 L2151.76 209.99 L2154.88 209.99 L2154.88 202.629 L2159.17 202.629 Z" fill="#000000" fill-rule="nonzero" fill-opacity="1" /><path clip-path="url(#clip490)" d="M2190.07 210.754 L2190.07 214.782 Q2188.26 213.856 2186.32 213.393 Q2184.37 212.93 2182.29 212.93 Q2179.12 212.93 2177.52 213.902 Q2175.95 214.874 2175.95 216.819 Q2175.95 218.3 2177.08 219.157 Q2178.22 219.99 2181.64 220.754 L2183.1 221.078 Q2187.64 222.05 2189.54 223.832 Q2191.46 225.592 2191.46 228.763 Q2191.46 232.374 2188.59 234.481 Q2185.74 236.587 2180.74 236.587 Q2178.66 236.587 2176.39 236.17 Q2174.14 235.777 2171.64 234.967 L2171.64 230.569 Q2174 231.795 2176.29 232.42 Q2178.59 233.022 2180.83 233.022 Q2183.84 233.022 2185.46 232.004 Q2187.08 230.962 2187.08 229.087 Q2187.08 227.351 2185.9 226.425 Q2184.74 225.499 2180.79 224.643 L2179.3 224.295 Q2175.35 223.462 2173.59 221.749 Q2171.83 220.013 2171.83 217.004 Q2171.83 213.346 2174.42 211.356 Q2177.01 209.365 2181.78 209.365 Q2184.14 209.365 2186.23 209.712 Q2188.31 210.059 2190.07 210.754 Z" fill="#000000" fill-rule="nonzero" fill-opacity="1" /><polyline clip-path="url(#clip490)" style="stroke:#ff0000; stroke-linecap:round; stroke-linejoin:round; stroke-width:4; stroke-opacity:1; fill:none" points="1692.12,270.476 1826.25,270.476 "/>
<path clip-path="url(#clip490)" d="M1870.86 254.33 L1870.86 258.89 Q1868.19 257.617 1865.83 256.992 Q1863.47 256.367 1861.27 256.367 Q1857.45 256.367 1855.37 257.848 Q1853.31 259.33 1853.31 262.061 Q1853.31 264.353 1854.68 265.534 Q1856.06 266.691 1859.91 267.409 L1862.73 267.987 Q1867.96 268.983 1870.44 271.506 Q1872.94 274.006 1872.94 278.219 Q1872.94 283.242 1869.56 285.834 Q1866.2 288.427 1859.7 288.427 Q1857.25 288.427 1854.47 287.871 Q1851.71 287.316 1848.75 286.228 L1848.75 281.413 Q1851.6 283.01 1854.33 283.821 Q1857.06 284.631 1859.7 284.631 Q1863.7 284.631 1865.88 283.057 Q1868.06 281.483 1868.06 278.566 Q1868.06 276.02 1866.48 274.584 Q1864.93 273.149 1861.37 272.432 L1858.52 271.876 Q1853.29 270.835 1850.95 268.612 Q1848.61 266.39 1848.61 262.432 Q1848.61 257.848 1851.83 255.21 Q1855.07 252.571 1860.74 252.571 Q1863.17 252.571 1865.69 253.011 Q1868.22 253.45 1870.86 254.33 Z" fill="#000000" fill-rule="nonzero" fill-opacity="1" /><path clip-path="url(#clip490)" d="M1884.26 254.469 L1884.26 261.83 L1893.03 261.83 L1893.03 265.14 L1884.26 265.14 L1884.26 279.214 Q1884.26 282.385 1885.12 283.288 Q1886 284.191 1888.66 284.191 L1893.03 284.191 L1893.03 287.756 L1888.66 287.756 Q1883.73 287.756 1881.85 285.927 Q1879.98 284.075 1879.98 279.214 L1879.98 265.14 L1876.85 265.14 L1876.85 261.83 L1879.98 261.83 L1879.98 254.469 L1884.26 254.469 Z" fill="#000000" fill-rule="nonzero" fill-opacity="1" /><path clip-path="url(#clip490)" d="M1908.68 264.816 Q1905.25 264.816 1903.26 267.501 Q1901.27 270.163 1901.27 274.816 Q1901.27 279.469 1903.24 282.154 Q1905.23 284.816 1908.68 284.816 Q1912.08 284.816 1914.07 282.131 Q1916.06 279.446 1916.06 274.816 Q1916.06 270.21 1914.07 267.524 Q1912.08 264.816 1908.68 264.816 M1908.68 261.205 Q1914.24 261.205 1917.41 264.816 Q1920.58 268.427 1920.58 274.816 Q1920.58 281.182 1917.41 284.816 Q1914.24 288.427 1908.68 288.427 Q1903.1 288.427 1899.93 284.816 Q1896.78 281.182 1896.78 274.816 Q1896.78 268.427 1899.93 264.816 Q1903.1 261.205 1908.68 261.205 Z" fill="#000000" fill-rule="nonzero" fill-opacity="1" /><path clip-path="url(#clip490)" d="M1946.3 262.825 L1946.3 266.807 Q1944.49 265.811 1942.66 265.325 Q1940.86 264.816 1939 264.816 Q1934.86 264.816 1932.57 267.455 Q1930.28 270.071 1930.28 274.816 Q1930.28 279.561 1932.57 282.2 Q1934.86 284.816 1939 284.816 Q1940.86 284.816 1942.66 284.33 Q1944.49 283.821 1946.3 282.825 L1946.3 286.76 Q1944.51 287.594 1942.59 288.01 Q1940.69 288.427 1938.54 288.427 Q1932.68 288.427 1929.24 284.746 Q1925.79 281.066 1925.79 274.816 Q1925.79 268.473 1929.26 264.839 Q1932.75 261.205 1938.82 261.205 Q1940.79 261.205 1942.66 261.622 Q1944.54 262.015 1946.3 262.825 Z" fill="#000000" fill-rule="nonzero" fill-opacity="1" /><path clip-path="url(#clip490)" d="M1975.25 272.108 L1975.25 287.756 L1970.99 287.756 L1970.99 272.247 Q1970.99 268.566 1969.56 266.737 Q1968.12 264.909 1965.25 264.909 Q1961.8 264.909 1959.81 267.108 Q1957.82 269.307 1957.82 273.103 L1957.82 287.756 L1953.54 287.756 L1953.54 251.737 L1957.82 251.737 L1957.82 265.858 Q1959.35 263.52 1961.41 262.362 Q1963.49 261.205 1966.2 261.205 Q1970.67 261.205 1972.96 263.983 Q1975.25 266.737 1975.25 272.108 Z" fill="#000000" fill-rule="nonzero" fill-opacity="1" /><path clip-path="url(#clip490)" d="M1995.53 274.723 Q1990.37 274.723 1988.38 275.904 Q1986.39 277.084 1986.39 279.932 Q1986.39 282.2 1987.87 283.543 Q1989.37 284.862 1991.94 284.862 Q1995.49 284.862 1997.61 282.362 Q1999.77 279.839 1999.77 275.672 L1999.77 274.723 L1995.53 274.723 M2004.03 272.964 L2004.03 287.756 L1999.77 287.756 L1999.77 283.821 Q1998.31 286.182 1996.13 287.316 Q1993.96 288.427 1990.81 288.427 Q1986.83 288.427 1984.47 286.205 Q1982.13 283.959 1982.13 280.209 Q1982.13 275.834 1985.05 273.612 Q1987.99 271.39 1993.8 271.39 L1999.77 271.39 L1999.77 270.973 Q1999.77 268.034 1997.82 266.436 Q1995.9 264.816 1992.41 264.816 Q1990.18 264.816 1988.08 265.348 Q1985.97 265.881 1984.03 266.946 L1984.03 263.01 Q1986.37 262.108 1988.56 261.668 Q1990.76 261.205 1992.85 261.205 Q1998.47 261.205 2001.25 264.122 Q2004.03 267.038 2004.03 272.964 Z" fill="#000000" fill-rule="nonzero" fill-opacity="1" /><path clip-path="url(#clip490)" d="M2029.33 262.594 L2029.33 266.622 Q2027.52 265.696 2025.58 265.233 Q2023.63 264.77 2021.55 264.77 Q2018.38 264.77 2016.78 265.742 Q2015.21 266.714 2015.21 268.659 Q2015.21 270.14 2016.34 270.997 Q2017.48 271.83 2020.9 272.594 L2022.36 272.918 Q2026.9 273.89 2028.8 275.672 Q2030.72 277.432 2030.72 280.603 Q2030.72 284.214 2027.85 286.321 Q2025 288.427 2020 288.427 Q2017.92 288.427 2015.65 288.01 Q2013.4 287.617 2010.9 286.807 L2010.9 282.409 Q2013.26 283.635 2015.55 284.26 Q2017.85 284.862 2020.09 284.862 Q2023.1 284.862 2024.72 283.844 Q2026.34 282.802 2026.34 280.927 Q2026.34 279.191 2025.16 278.265 Q2024 277.339 2020.05 276.483 L2018.56 276.135 Q2014.61 275.302 2012.85 273.589 Q2011.09 271.853 2011.09 268.844 Q2011.09 265.186 2013.68 263.196 Q2016.27 261.205 2021.04 261.205 Q2023.4 261.205 2025.49 261.552 Q2027.57 261.899 2029.33 262.594 Z" fill="#000000" fill-rule="nonzero" fill-opacity="1" /><path clip-path="url(#clip490)" d="M2041.71 254.469 L2041.71 261.83 L2050.49 261.83 L2050.49 265.14 L2041.71 265.14 L2041.71 279.214 Q2041.71 282.385 2042.57 283.288 Q2043.45 284.191 2046.11 284.191 L2050.49 284.191 L2050.49 287.756 L2046.11 287.756 Q2041.18 287.756 2039.3 285.927 Q2037.43 284.075 2037.43 279.214 L2037.43 265.14 L2034.3 265.14 L2034.3 261.83 L2037.43 261.83 L2037.43 254.469 L2041.71 254.469 Z" fill="#000000" fill-rule="nonzero" fill-opacity="1" /><path clip-path="url(#clip490)" d="M2056.09 261.83 L2060.35 261.83 L2060.35 287.756 L2056.09 287.756 L2056.09 261.83 M2056.09 251.737 L2060.35 251.737 L2060.35 257.131 L2056.09 257.131 L2056.09 251.737 Z" fill="#000000" fill-rule="nonzero" fill-opacity="1" /><path clip-path="url(#clip490)" d="M2087.92 262.825 L2087.92 266.807 Q2086.11 265.811 2084.28 265.325 Q2082.48 264.816 2080.62 264.816 Q2076.48 264.816 2074.19 267.455 Q2071.9 270.071 2071.9 274.816 Q2071.9 279.561 2074.19 282.2 Q2076.48 284.816 2080.62 284.816 Q2082.48 284.816 2084.28 284.33 Q2086.11 283.821 2087.92 282.825 L2087.92 286.76 Q2086.13 287.594 2084.21 288.01 Q2082.31 288.427 2080.16 288.427 Q2074.3 288.427 2070.86 284.746 Q2067.41 281.066 2067.41 274.816 Q2067.41 268.473 2070.88 264.839 Q2074.37 261.205 2080.44 261.205 Q2082.41 261.205 2084.28 261.622 Q2086.16 262.015 2087.92 262.825 Z" fill="#000000" fill-rule="nonzero" fill-opacity="1" /><path clip-path="url(#clip490)" d="M2132.57 273.728 L2132.57 275.811 L2112.98 275.811 Q2113.26 280.209 2115.62 282.524 Q2118.01 284.816 2122.24 284.816 Q2124.7 284.816 2126.99 284.214 Q2129.3 283.612 2131.57 282.409 L2131.57 286.436 Q2129.28 287.408 2126.87 287.918 Q2124.47 288.427 2121.99 288.427 Q2115.79 288.427 2112.15 284.816 Q2108.54 281.205 2108.54 275.047 Q2108.54 268.682 2111.97 264.955 Q2115.42 261.205 2121.25 261.205 Q2126.48 261.205 2129.51 264.585 Q2132.57 267.941 2132.57 273.728 M2128.31 272.478 Q2128.26 268.983 2126.34 266.899 Q2124.44 264.816 2121.29 264.816 Q2117.73 264.816 2115.58 266.83 Q2113.45 268.844 2113.12 272.501 L2128.31 272.478 Z" fill="#000000" fill-rule="nonzero" fill-opacity="1" /><path clip-path="url(#clip490)" d="M2136.5 261.83 L2141.02 261.83 L2149.12 283.589 L2157.22 261.83 L2161.73 261.83 L2152.01 287.756 L2146.23 287.756 L2136.5 261.83 Z" fill="#000000" fill-rule="nonzero" fill-opacity="1" /><path clip-path="url(#clip490)" d="M2189.79 273.728 L2189.79 275.811 L2170.21 275.811 Q2170.48 280.209 2172.85 282.524 Q2175.23 284.816 2179.47 284.816 Q2181.92 284.816 2184.21 284.214 Q2186.53 283.612 2188.79 282.409 L2188.79 286.436 Q2186.5 287.408 2184.1 287.918 Q2181.69 288.427 2179.21 288.427 Q2173.01 288.427 2169.37 284.816 Q2165.76 281.205 2165.76 275.047 Q2165.76 268.682 2169.19 264.955 Q2172.64 261.205 2178.47 261.205 Q2183.7 261.205 2186.73 264.585 Q2189.79 267.941 2189.79 273.728 M2185.53 272.478 Q2185.48 268.983 2183.56 266.899 Q2181.66 264.816 2178.52 264.816 Q2174.95 264.816 2172.8 266.83 Q2170.67 268.844 2170.35 272.501 L2185.53 272.478 Z" fill="#000000" fill-rule="nonzero" fill-opacity="1" /><path clip-path="url(#clip490)" d="M2218.33 272.108 L2218.33 287.756 L2214.07 287.756 L2214.07 272.247 Q2214.07 268.566 2212.64 266.737 Q2211.2 264.909 2208.33 264.909 Q2204.88 264.909 2202.89 267.108 Q2200.9 269.307 2200.9 273.103 L2200.9 287.756 L2196.62 287.756 L2196.62 261.83 L2200.9 261.83 L2200.9 265.858 Q2202.43 263.52 2204.49 262.362 Q2206.57 261.205 2209.28 261.205 Q2213.75 261.205 2216.04 263.983 Q2218.33 266.737 2218.33 272.108 Z" fill="#000000" fill-rule="nonzero" fill-opacity="1" /><path clip-path="url(#clip490)" d="M2231.04 254.469 L2231.04 261.83 L2239.81 261.83 L2239.81 265.14 L2231.04 265.14 L2231.04 279.214 Q2231.04 282.385 2231.9 283.288 Q2232.78 284.191 2235.44 284.191 L2239.81 284.191 L2239.81 287.756 L2235.44 287.756 Q2230.51 287.756 2228.63 285.927 Q2226.76 284.075 2226.76 279.214 L2226.76 265.14 L2223.63 265.14 L2223.63 261.83 L2226.76 261.83 L2226.76 254.469 L2231.04 254.469 Z" fill="#000000" fill-rule="nonzero" fill-opacity="1" /><path clip-path="url(#clip490)" d="M2261.94 262.594 L2261.94 266.622 Q2260.14 265.696 2258.19 265.233 Q2256.25 264.77 2254.16 264.77 Q2250.99 264.77 2249.4 265.742 Q2247.82 266.714 2247.82 268.659 Q2247.82 270.14 2248.96 270.997 Q2250.09 271.83 2253.52 272.594 L2254.97 272.918 Q2259.51 273.89 2261.41 275.672 Q2263.33 277.432 2263.33 280.603 Q2263.33 284.214 2260.46 286.321 Q2257.61 288.427 2252.61 288.427 Q2250.53 288.427 2248.26 288.01 Q2246.02 287.617 2243.52 286.807 L2243.52 282.409 Q2245.88 283.635 2248.17 284.26 Q2250.46 284.862 2252.71 284.862 Q2255.72 284.862 2257.34 283.844 Q2258.96 282.802 2258.96 280.927 Q2258.96 279.191 2257.78 278.265 Q2256.62 277.339 2252.66 276.483 L2251.18 276.135 Q2247.22 275.302 2245.46 273.589 Q2243.7 271.853 2243.7 268.844 Q2243.7 265.186 2246.29 263.196 Q2248.89 261.205 2253.66 261.205 Q2256.02 261.205 2258.1 261.552 Q2260.18 261.899 2261.94 262.594 Z" fill="#000000" fill-rule="nonzero" fill-opacity="1" /></svg>
