<?xml version="1.0" encoding="utf-8"?>
<svg xmlns="http://www.w3.org/2000/svg" xmlns:xlink="http://www.w3.org/1999/xlink" width="600" height="400" viewBox="0 0 2400 1600">
<defs>
  <clipPath id="clip610">
    <rect x="0" y="0" width="2400" height="1600"/>
  </clipPath>
</defs>
<path clip-path="url(#clip610)" d="M0 1600 L2400 1600 L2400 0 L0 0  Z" fill="#ffffff" fill-rule="evenodd" fill-opacity="1"/>
<defs>
  <clipPath id="clip611">
    <rect x="480" y="0" width="1681" height="1600"/>
  </clipPath>
</defs>
<path clip-path="url(#clip610)" d="M175.445 1423.18 L2352.76 1423.18 L2352.76 123.472 L175.445 123.472  Z" fill="#ffffff" fill-rule="evenodd" fill-opacity="1"/>
<defs>
  <clipPath id="clip612">
    <rect x="175" y="123" width="2178" height="1301"/>
  </clipPath>
</defs>
<polyline clip-path="url(#clip612)" style="stroke:#000000; stroke-linecap:round; stroke-linejoin:round; stroke-width:2; stroke-opacity:0.1; fill:none" points="237.067,1423.18 237.067,123.472 "/>
<polyline clip-path="url(#clip612)" style="stroke:#000000; stroke-linecap:round; stroke-linejoin:round; stroke-width:2; stroke-opacity:0.1; fill:none" points="661.461,1423.18 661.461,123.472 "/>
<polyline clip-path="url(#clip612)" style="stroke:#000000; stroke-linecap:round; stroke-linejoin:round; stroke-width:2; stroke-opacity:0.1; fill:none" points="1085.86,1423.18 1085.86,123.472 "/>
<polyline clip-path="url(#clip612)" style="stroke:#000000; stroke-linecap:round; stroke-linejoin:round; stroke-width:2; stroke-opacity:0.1; fill:none" points="1510.25,1423.18 1510.25,123.472 "/>
<polyline clip-path="url(#clip612)" style="stroke:#000000; stroke-linecap:round; stroke-linejoin:round; stroke-width:2; stroke-opacity:0.1; fill:none" points="1934.64,1423.18 1934.64,123.472 "/>
<polyline clip-path="url(#clip612)" style="stroke:#000000; stroke-linecap:round; stroke-linejoin:round; stroke-width:2; stroke-opacity:0.1; fill:none" points="175.445,1386.4 2352.76,1386.4 "/>
<polyline clip-path="url(#clip612)" style="stroke:#000000; stroke-linecap:round; stroke-linejoin:round; stroke-width:2; stroke-opacity:0.1; fill:none" points="175.445,1182.04 2352.76,1182.04 "/>
<polyline clip-path="url(#clip612)" style="stroke:#000000; stroke-linecap:round; stroke-linejoin:round; stroke-width:2; stroke-opacity:0.1; fill:none" points="175.445,977.683 2352.76,977.683 "/>
<polyline clip-path="url(#clip612)" style="stroke:#000000; stroke-linecap:round; stroke-linejoin:round; stroke-width:2; stroke-opacity:0.1; fill:none" points="175.445,773.326 2352.76,773.326 "/>
<polyline clip-path="url(#clip612)" style="stroke:#000000; stroke-linecap:round; stroke-linejoin:round; stroke-width:2; stroke-opacity:0.1; fill:none" points="175.445,568.969 2352.76,568.969 "/>
<polyline clip-path="url(#clip612)" style="stroke:#000000; stroke-linecap:round; stroke-linejoin:round; stroke-width:2; stroke-opacity:0.1; fill:none" points="175.445,364.613 2352.76,364.613 "/>
<polyline clip-path="url(#clip612)" style="stroke:#000000; stroke-linecap:round; stroke-linejoin:round; stroke-width:2; stroke-opacity:0.1; fill:none" points="175.445,160.256 2352.76,160.256 "/>
<polyline clip-path="url(#clip610)" style="stroke:#000000; stroke-linecap:round; stroke-linejoin:round; stroke-width:4; stroke-opacity:1; fill:none" points="175.445,1423.18 2352.76,1423.18 "/>
<polyline clip-path="url(#clip610)" style="stroke:#000000; stroke-linecap:round; stroke-linejoin:round; stroke-width:4; stroke-opacity:1; fill:none" points="237.067,1423.18 237.067,1404.28 "/>
<polyline clip-path="url(#clip610)" style="stroke:#000000; stroke-linecap:round; stroke-linejoin:round; stroke-width:4; stroke-opacity:1; fill:none" points="661.461,1423.18 661.461,1404.28 "/>
<polyline clip-path="url(#clip610)" style="stroke:#000000; stroke-linecap:round; stroke-linejoin:round; stroke-width:4; stroke-opacity:1; fill:none" points="1085.86,1423.18 1085.86,1404.28 "/>
<polyline clip-path="url(#clip610)" style="stroke:#000000; stroke-linecap:round; stroke-linejoin:round; stroke-width:4; stroke-opacity:1; fill:none" points="1510.25,1423.18 1510.25,1404.28 "/>
<polyline clip-path="url(#clip610)" style="stroke:#000000; stroke-linecap:round; stroke-linejoin:round; stroke-width:4; stroke-opacity:1; fill:none" points="1934.64,1423.18 1934.64,1404.28 "/>
<path clip-path="url(#clip610)" d="M237.067 1454.1 Q233.456 1454.1 231.627 1457.66 Q229.822 1461.2 229.822 1468.33 Q229.822 1475.44 231.627 1479.01 Q233.456 1482.55 237.067 1482.55 Q240.701 1482.55 242.507 1479.01 Q244.336 1475.44 244.336 1468.33 Q244.336 1461.2 242.507 1457.66 Q240.701 1454.1 237.067 1454.1 M237.067 1450.39 Q242.877 1450.39 245.933 1455 Q249.012 1459.58 249.012 1468.33 Q249.012 1477.06 245.933 1481.67 Q242.877 1486.25 237.067 1486.25 Q231.257 1486.25 228.178 1481.67 Q225.123 1477.06 225.123 1468.33 Q225.123 1459.58 228.178 1455 Q231.257 1450.39 237.067 1450.39 Z" fill="#000000" fill-rule="nonzero" fill-opacity="1" /><path clip-path="url(#clip610)" d="M636.16 1451.02 L654.517 1451.02 L654.517 1454.96 L640.443 1454.96 L640.443 1463.43 Q641.461 1463.08 642.48 1462.92 Q643.498 1462.73 644.517 1462.73 Q650.304 1462.73 653.683 1465.9 Q657.063 1469.08 657.063 1474.49 Q657.063 1480.07 653.591 1483.17 Q650.119 1486.25 643.799 1486.25 Q641.623 1486.25 639.355 1485.88 Q637.109 1485.51 634.702 1484.77 L634.702 1480.07 Q636.785 1481.2 639.008 1481.76 Q641.23 1482.32 643.707 1482.32 Q647.711 1482.32 650.049 1480.21 Q652.387 1478.1 652.387 1474.49 Q652.387 1470.88 650.049 1468.77 Q647.711 1466.67 643.707 1466.67 Q641.832 1466.67 639.957 1467.08 Q638.105 1467.5 636.16 1468.38 L636.16 1451.02 Z" fill="#000000" fill-rule="nonzero" fill-opacity="1" /><path clip-path="url(#clip610)" d="M676.276 1454.1 Q672.665 1454.1 670.836 1457.66 Q669.031 1461.2 669.031 1468.33 Q669.031 1475.44 670.836 1479.01 Q672.665 1482.55 676.276 1482.55 Q679.91 1482.55 681.716 1479.01 Q683.544 1475.44 683.544 1468.33 Q683.544 1461.2 681.716 1457.66 Q679.91 1454.1 676.276 1454.1 M676.276 1450.39 Q682.086 1450.39 685.142 1455 Q688.22 1459.58 688.22 1468.33 Q688.22 1477.06 685.142 1481.67 Q682.086 1486.25 676.276 1486.25 Q670.466 1486.25 667.387 1481.67 Q664.332 1477.06 664.332 1468.33 Q664.332 1459.58 667.387 1455 Q670.466 1450.39 676.276 1450.39 Z" fill="#000000" fill-rule="nonzero" fill-opacity="1" /><path clip-path="url(#clip610)" d="M1045.46 1481.64 L1053.1 1481.64 L1053.1 1455.28 L1044.79 1456.95 L1044.79 1452.69 L1053.05 1451.02 L1057.73 1451.02 L1057.73 1481.64 L1065.37 1481.64 L1065.37 1485.58 L1045.46 1485.58 L1045.46 1481.64 Z" fill="#000000" fill-rule="nonzero" fill-opacity="1" /><path clip-path="url(#clip610)" d="M1084.81 1454.1 Q1081.2 1454.1 1079.37 1457.66 Q1077.57 1461.2 1077.57 1468.33 Q1077.57 1475.44 1079.37 1479.01 Q1081.2 1482.55 1084.81 1482.55 Q1088.45 1482.55 1090.25 1479.01 Q1092.08 1475.44 1092.08 1468.33 Q1092.08 1461.2 1090.25 1457.66 Q1088.45 1454.1 1084.81 1454.1 M1084.81 1450.39 Q1090.62 1450.39 1093.68 1455 Q1096.76 1459.58 1096.76 1468.33 Q1096.76 1477.06 1093.68 1481.67 Q1090.62 1486.25 1084.81 1486.25 Q1079 1486.25 1075.92 1481.67 Q1072.87 1477.06 1072.87 1468.33 Q1072.87 1459.58 1075.92 1455 Q1079 1450.39 1084.81 1450.39 Z" fill="#000000" fill-rule="nonzero" fill-opacity="1" /><path clip-path="url(#clip610)" d="M1114.98 1454.1 Q1111.36 1454.1 1109.54 1457.66 Q1107.73 1461.2 1107.73 1468.33 Q1107.73 1475.44 1109.54 1479.01 Q1111.36 1482.55 1114.98 1482.55 Q1118.61 1482.55 1120.42 1479.01 Q1122.24 1475.44 1122.24 1468.33 Q1122.24 1461.2 1120.42 1457.66 Q1118.61 1454.1 1114.98 1454.1 M1114.98 1450.39 Q1120.79 1450.39 1123.84 1455 Q1126.92 1459.58 1126.92 1468.33 Q1126.92 1477.06 1123.84 1481.67 Q1120.79 1486.25 1114.98 1486.25 Q1109.17 1486.25 1106.09 1481.67 Q1103.03 1477.06 1103.03 1468.33 Q1103.03 1459.58 1106.09 1455 Q1109.17 1450.39 1114.98 1450.39 Z" fill="#000000" fill-rule="nonzero" fill-opacity="1" /><path clip-path="url(#clip610)" d="M1469.86 1481.64 L1477.49 1481.64 L1477.49 1455.28 L1469.18 1456.95 L1469.18 1452.69 L1477.45 1451.02 L1482.12 1451.02 L1482.12 1481.64 L1489.76 1481.64 L1489.76 1485.58 L1469.86 1485.58 L1469.86 1481.64 Z" fill="#000000" fill-rule="nonzero" fill-opacity="1" /><path clip-path="url(#clip610)" d="M1499.25 1451.02 L1517.61 1451.02 L1517.61 1454.96 L1503.54 1454.96 L1503.54 1463.43 Q1504.55 1463.08 1505.57 1462.92 Q1506.59 1462.73 1507.61 1462.73 Q1513.4 1462.73 1516.78 1465.9 Q1520.16 1469.08 1520.16 1474.49 Q1520.16 1480.07 1516.68 1483.17 Q1513.21 1486.25 1506.89 1486.25 Q1504.72 1486.25 1502.45 1485.88 Q1500.2 1485.51 1497.8 1484.77 L1497.8 1480.07 Q1499.88 1481.2 1502.1 1481.76 Q1504.32 1482.32 1506.8 1482.32 Q1510.8 1482.32 1513.14 1480.21 Q1515.48 1478.1 1515.48 1474.49 Q1515.48 1470.88 1513.14 1468.77 Q1510.8 1466.67 1506.8 1466.67 Q1504.92 1466.67 1503.05 1467.08 Q1501.2 1467.5 1499.25 1468.38 L1499.25 1451.02 Z" fill="#000000" fill-rule="nonzero" fill-opacity="1" /><path clip-path="url(#clip610)" d="M1539.37 1454.1 Q1535.76 1454.1 1533.93 1457.66 Q1532.12 1461.2 1532.12 1468.33 Q1532.12 1475.44 1533.93 1479.01 Q1535.76 1482.55 1539.37 1482.55 Q1543 1482.55 1544.81 1479.01 Q1546.64 1475.44 1546.64 1468.33 Q1546.64 1461.2 1544.81 1457.66 Q1543 1454.1 1539.37 1454.1 M1539.37 1450.39 Q1545.18 1450.39 1548.23 1455 Q1551.31 1459.58 1551.31 1468.33 Q1551.31 1477.06 1548.23 1481.67 Q1545.18 1486.25 1539.37 1486.25 Q1533.56 1486.25 1530.48 1481.67 Q1527.42 1477.06 1527.42 1468.33 Q1527.42 1459.58 1530.48 1455 Q1533.56 1450.39 1539.37 1450.39 Z" fill="#000000" fill-rule="nonzero" fill-opacity="1" /><path clip-path="url(#clip610)" d="M1898.34 1481.64 L1914.65 1481.64 L1914.65 1485.58 L1892.71 1485.58 L1892.71 1481.64 Q1895.37 1478.89 1899.96 1474.26 Q1904.56 1469.61 1905.74 1468.27 Q1907.99 1465.74 1908.87 1464.01 Q1909.77 1462.25 1909.77 1460.56 Q1909.77 1457.8 1907.83 1456.07 Q1905.9 1454.33 1902.8 1454.33 Q1900.6 1454.33 1898.15 1455.09 Q1895.72 1455.86 1892.94 1457.41 L1892.94 1452.69 Q1895.77 1451.55 1898.22 1450.97 Q1900.67 1450.39 1902.71 1450.39 Q1908.08 1450.39 1911.28 1453.08 Q1914.47 1455.77 1914.47 1460.26 Q1914.47 1462.39 1913.66 1464.31 Q1912.87 1466.2 1910.77 1468.8 Q1910.19 1469.47 1907.09 1472.69 Q1903.98 1475.88 1898.34 1481.64 Z" fill="#000000" fill-rule="nonzero" fill-opacity="1" /><path clip-path="url(#clip610)" d="M1934.47 1454.1 Q1930.86 1454.1 1929.03 1457.66 Q1927.22 1461.2 1927.22 1468.33 Q1927.22 1475.44 1929.03 1479.01 Q1930.86 1482.55 1934.47 1482.55 Q1938.1 1482.55 1939.91 1479.01 Q1941.74 1475.44 1941.74 1468.33 Q1941.74 1461.2 1939.91 1457.66 Q1938.1 1454.1 1934.47 1454.1 M1934.47 1450.39 Q1940.28 1450.39 1943.34 1455 Q1946.41 1459.58 1946.41 1468.33 Q1946.41 1477.06 1943.34 1481.67 Q1940.28 1486.25 1934.47 1486.25 Q1928.66 1486.25 1925.58 1481.67 Q1922.52 1477.06 1922.52 1468.33 Q1922.52 1459.58 1925.58 1455 Q1928.66 1450.39 1934.47 1450.39 Z" fill="#000000" fill-rule="nonzero" fill-opacity="1" /><path clip-path="url(#clip610)" d="M1964.63 1454.1 Q1961.02 1454.1 1959.19 1457.66 Q1957.39 1461.2 1957.39 1468.33 Q1957.39 1475.44 1959.19 1479.01 Q1961.02 1482.55 1964.63 1482.55 Q1968.27 1482.55 1970.07 1479.01 Q1971.9 1475.44 1971.9 1468.33 Q1971.9 1461.2 1970.07 1457.66 Q1968.27 1454.1 1964.63 1454.1 M1964.63 1450.39 Q1970.44 1450.39 1973.5 1455 Q1976.58 1459.58 1976.58 1468.33 Q1976.58 1477.06 1973.5 1481.67 Q1970.44 1486.25 1964.63 1486.25 Q1958.82 1486.25 1955.74 1481.67 Q1952.69 1477.06 1952.69 1468.33 Q1952.69 1459.58 1955.74 1455 Q1958.82 1450.39 1964.63 1450.39 Z" fill="#000000" fill-rule="nonzero" fill-opacity="1" /><path clip-path="url(#clip610)" d="M766.175 1524.18 L766.175 1530.96 Q762.928 1527.94 759.236 1526.44 Q755.576 1524.95 751.438 1524.95 Q743.29 1524.95 738.962 1529.95 Q734.633 1534.91 734.633 1544.33 Q734.633 1553.72 738.962 1558.72 Q743.29 1563.68 751.438 1563.68 Q755.576 1563.68 759.236 1562.19 Q762.928 1560.69 766.175 1557.67 L766.175 1564.38 Q762.801 1566.68 759.014 1567.82 Q755.258 1568.97 751.056 1568.97 Q740.267 1568.97 734.06 1562.38 Q727.853 1555.76 727.853 1544.33 Q727.853 1532.87 734.06 1526.28 Q740.267 1519.66 751.056 1519.66 Q755.321 1519.66 759.077 1520.81 Q762.865 1521.92 766.175 1524.18 Z" fill="#000000" fill-rule="nonzero" fill-opacity="1" /><path clip-path="url(#clip610)" d="M792.052 1550.12 Q784.954 1550.12 782.217 1551.75 Q779.479 1553.37 779.479 1557.29 Q779.479 1560.4 781.516 1562.25 Q783.585 1564.07 787.118 1564.07 Q791.988 1564.07 794.916 1560.63 Q797.876 1557.16 797.876 1551.43 L797.876 1550.12 L792.052 1550.12 M803.733 1547.71 L803.733 1568.04 L797.876 1568.04 L797.876 1562.63 Q795.871 1565.88 792.879 1567.44 Q789.887 1568.97 785.559 1568.97 Q780.084 1568.97 776.838 1565.91 Q773.623 1562.82 773.623 1557.67 Q773.623 1551.65 777.633 1548.6 Q781.675 1545.54 789.664 1545.54 L797.876 1545.54 L797.876 1544.97 Q797.876 1540.93 795.203 1538.73 Q792.561 1536.5 787.755 1536.5 Q784.699 1536.5 781.803 1537.23 Q778.906 1537.97 776.233 1539.43 L776.233 1534.02 Q779.447 1532.78 782.471 1532.17 Q785.495 1531.54 788.359 1531.54 Q796.094 1531.54 799.913 1535.55 Q803.733 1539.56 803.733 1547.71 Z" fill="#000000" fill-rule="nonzero" fill-opacity="1" /><path clip-path="url(#clip610)" d="M815.796 1518.52 L821.652 1518.52 L821.652 1568.04 L815.796 1568.04 L815.796 1518.52 Z" fill="#000000" fill-rule="nonzero" fill-opacity="1" /><path clip-path="url(#clip610)" d="M859.56 1533.76 L859.56 1539.24 Q857.077 1537.87 854.563 1537.2 Q852.08 1536.5 849.534 1536.5 Q843.837 1536.5 840.686 1540.13 Q837.535 1543.73 837.535 1550.25 Q837.535 1556.78 840.686 1560.4 Q843.837 1564 849.534 1564 Q852.08 1564 854.563 1563.33 Q857.077 1562.63 859.56 1561.26 L859.56 1566.68 Q857.109 1567.82 854.467 1568.39 Q851.857 1568.97 848.897 1568.97 Q840.845 1568.97 836.102 1563.91 Q831.36 1558.85 831.36 1550.25 Q831.36 1541.53 836.134 1536.53 Q840.94 1531.54 849.279 1531.54 Q851.985 1531.54 854.563 1532.11 Q857.141 1532.65 859.56 1533.76 Z" fill="#000000" fill-rule="nonzero" fill-opacity="1" /><path clip-path="url(#clip610)" d="M869.14 1553.98 L869.14 1532.4 L874.997 1532.4 L874.997 1553.75 Q874.997 1558.81 876.97 1561.36 Q878.943 1563.87 882.89 1563.87 Q887.633 1563.87 890.37 1560.85 Q893.139 1557.83 893.139 1552.61 L893.139 1532.4 L898.995 1532.4 L898.995 1568.04 L893.139 1568.04 L893.139 1562.57 Q891.006 1565.82 888.174 1567.41 Q885.373 1568.97 881.649 1568.97 Q875.506 1568.97 872.323 1565.15 Q869.14 1561.33 869.14 1553.98 M883.877 1531.54 L883.877 1531.54 Z" fill="#000000" fill-rule="nonzero" fill-opacity="1" /><path clip-path="url(#clip610)" d="M911.058 1518.52 L916.915 1518.52 L916.915 1568.04 L911.058 1568.04 L911.058 1518.52 Z" fill="#000000" fill-rule="nonzero" fill-opacity="1" /><path clip-path="url(#clip610)" d="M945.37 1550.12 Q938.272 1550.12 935.535 1551.75 Q932.797 1553.37 932.797 1557.29 Q932.797 1560.4 934.834 1562.25 Q936.903 1564.07 940.436 1564.07 Q945.306 1564.07 948.234 1560.63 Q951.194 1557.16 951.194 1551.43 L951.194 1550.12 L945.37 1550.12 M957.051 1547.71 L957.051 1568.04 L951.194 1568.04 L951.194 1562.63 Q949.189 1565.88 946.197 1567.44 Q943.205 1568.97 938.877 1568.97 Q933.402 1568.97 930.156 1565.91 Q926.941 1562.82 926.941 1557.67 Q926.941 1551.65 930.951 1548.6 Q934.994 1545.54 942.982 1545.54 L951.194 1545.54 L951.194 1544.97 Q951.194 1540.93 948.521 1538.73 Q945.879 1536.5 941.073 1536.5 Q938.017 1536.5 935.121 1537.23 Q932.224 1537.97 929.551 1539.43 L929.551 1534.02 Q932.766 1532.78 935.789 1532.17 Q938.813 1531.54 941.678 1531.54 Q949.412 1531.54 953.231 1535.55 Q957.051 1539.56 957.051 1547.71 Z" fill="#000000" fill-rule="nonzero" fill-opacity="1" /><path clip-path="url(#clip610)" d="M974.907 1522.27 L974.907 1532.4 L986.97 1532.4 L986.97 1536.95 L974.907 1536.95 L974.907 1556.3 Q974.907 1560.66 976.084 1561.9 Q977.294 1563.14 980.954 1563.14 L986.97 1563.14 L986.97 1568.04 L980.954 1568.04 Q974.174 1568.04 971.596 1565.53 Q969.018 1562.98 969.018 1556.3 L969.018 1536.95 L964.721 1536.95 L964.721 1532.4 L969.018 1532.4 L969.018 1522.27 L974.907 1522.27 Z" fill="#000000" fill-rule="nonzero" fill-opacity="1" /><path clip-path="url(#clip610)" d="M1025.16 1548.76 L1025.16 1551.62 L998.237 1551.62 Q998.619 1557.67 1001.87 1560.85 Q1005.14 1564 1010.97 1564 Q1014.34 1564 1017.49 1563.17 Q1020.68 1562.35 1023.8 1560.69 L1023.8 1566.23 Q1020.64 1567.57 1017.33 1568.27 Q1014.02 1568.97 1010.62 1568.97 Q1002.09 1568.97 997.091 1564 Q992.126 1559.04 992.126 1550.57 Q992.126 1541.82 996.836 1536.69 Q1001.58 1531.54 1009.6 1531.54 Q1016.79 1531.54 1020.96 1536.18 Q1025.16 1540.8 1025.16 1548.76 M1019.31 1547.04 Q1019.24 1542.23 1016.6 1539.37 Q1013.99 1536.5 1009.66 1536.5 Q1004.76 1536.5 1001.8 1539.27 Q998.873 1542.04 998.428 1547.07 L1019.31 1547.04 Z" fill="#000000" fill-rule="nonzero" fill-opacity="1" /><path clip-path="url(#clip610)" d="M1058.23 1537.81 L1058.23 1518.52 L1064.09 1518.52 L1064.09 1568.04 L1058.23 1568.04 L1058.23 1562.7 Q1056.39 1565.88 1053.55 1567.44 Q1050.75 1568.97 1046.81 1568.97 Q1040.35 1568.97 1036.27 1563.81 Q1032.23 1558.65 1032.23 1550.25 Q1032.23 1541.85 1036.27 1536.69 Q1040.35 1531.54 1046.81 1531.54 Q1050.75 1531.54 1053.55 1533.1 Q1056.39 1534.62 1058.23 1537.81 M1038.28 1550.25 Q1038.28 1556.71 1040.92 1560.4 Q1043.59 1564.07 1048.24 1564.07 Q1052.89 1564.07 1055.56 1560.4 Q1058.23 1556.71 1058.23 1550.25 Q1058.23 1543.79 1055.56 1540.13 Q1052.89 1536.44 1048.24 1536.44 Q1043.59 1536.44 1040.92 1540.13 Q1038.28 1543.79 1038.28 1550.25 Z" fill="#000000" fill-rule="nonzero" fill-opacity="1" /><path clip-path="url(#clip610)" d="M1126.51 1546.53 L1126.51 1568.04 L1120.65 1568.04 L1120.65 1546.72 Q1120.65 1541.66 1118.68 1539.14 Q1116.7 1536.63 1112.76 1536.63 Q1108.01 1536.63 1105.28 1539.65 Q1102.54 1542.68 1102.54 1547.9 L1102.54 1568.04 L1096.65 1568.04 L1096.65 1532.4 L1102.54 1532.4 L1102.54 1537.93 Q1104.64 1534.72 1107.47 1533.13 Q1110.34 1531.54 1114.06 1531.54 Q1120.2 1531.54 1123.35 1535.36 Q1126.51 1539.14 1126.51 1546.53 Z" fill="#000000" fill-rule="nonzero" fill-opacity="1" /><path clip-path="url(#clip610)" d="M1168.68 1548.76 L1168.68 1551.62 L1141.75 1551.62 Q1142.13 1557.67 1145.38 1560.85 Q1148.66 1564 1154.48 1564 Q1157.86 1564 1161.01 1563.17 Q1164.19 1562.35 1167.31 1560.69 L1167.31 1566.23 Q1164.16 1567.57 1160.85 1568.27 Q1157.54 1568.97 1154.13 1568.97 Q1145.6 1568.97 1140.61 1564 Q1135.64 1559.04 1135.64 1550.57 Q1135.64 1541.82 1140.35 1536.69 Q1145.09 1531.54 1153.11 1531.54 Q1160.31 1531.54 1164.48 1536.18 Q1168.68 1540.8 1168.68 1548.76 M1162.82 1547.04 Q1162.76 1542.23 1160.12 1539.37 Q1157.51 1536.5 1153.18 1536.5 Q1148.28 1536.5 1145.32 1539.27 Q1142.39 1542.04 1141.94 1547.07 L1162.82 1547.04 Z" fill="#000000" fill-rule="nonzero" fill-opacity="1" /><path clip-path="url(#clip610)" d="M1177.69 1553.98 L1177.69 1532.4 L1183.54 1532.4 L1183.54 1553.75 Q1183.54 1558.81 1185.52 1561.36 Q1187.49 1563.87 1191.44 1563.87 Q1196.18 1563.87 1198.92 1560.85 Q1201.68 1557.83 1201.68 1552.61 L1201.68 1532.4 L1207.54 1532.4 L1207.54 1568.04 L1201.68 1568.04 L1201.68 1562.57 Q1199.55 1565.82 1196.72 1567.41 Q1193.92 1568.97 1190.19 1568.97 Q1184.05 1568.97 1180.87 1565.15 Q1177.69 1561.33 1177.69 1553.98 M1192.42 1531.54 L1192.42 1531.54 Z" fill="#000000" fill-rule="nonzero" fill-opacity="1" /><path clip-path="url(#clip610)" d="M1225.4 1522.27 L1225.4 1532.4 L1237.46 1532.4 L1237.46 1536.95 L1225.4 1536.95 L1225.4 1556.3 Q1225.4 1560.66 1226.57 1561.9 Q1227.78 1563.14 1231.44 1563.14 L1237.46 1563.14 L1237.46 1568.04 L1231.44 1568.04 Q1224.67 1568.04 1222.09 1565.53 Q1219.51 1562.98 1219.51 1556.3 L1219.51 1536.95 L1215.21 1536.95 L1215.21 1532.4 L1219.51 1532.4 L1219.51 1522.27 L1225.4 1522.27 Z" fill="#000000" fill-rule="nonzero" fill-opacity="1" /><path clip-path="url(#clip610)" d="M1265.82 1537.87 Q1264.83 1537.3 1263.65 1537.04 Q1262.51 1536.76 1261.11 1536.76 Q1256.14 1536.76 1253.47 1540 Q1250.83 1543.22 1250.83 1549.27 L1250.83 1568.04 L1244.94 1568.04 L1244.94 1532.4 L1250.83 1532.4 L1250.83 1537.93 Q1252.67 1534.69 1255.63 1533.13 Q1258.59 1531.54 1262.83 1531.54 Q1263.43 1531.54 1264.16 1531.63 Q1264.9 1531.7 1265.79 1531.85 L1265.82 1537.87 Z" fill="#000000" fill-rule="nonzero" fill-opacity="1" /><path clip-path="url(#clip610)" d="M1284.34 1536.5 Q1279.63 1536.5 1276.9 1540.19 Q1274.16 1543.85 1274.16 1550.25 Q1274.16 1556.65 1276.86 1560.34 Q1279.6 1564 1284.34 1564 Q1289.02 1564 1291.76 1560.31 Q1294.5 1556.62 1294.5 1550.25 Q1294.5 1543.92 1291.76 1540.23 Q1289.02 1536.5 1284.34 1536.5 M1284.34 1531.54 Q1291.98 1531.54 1296.34 1536.5 Q1300.7 1541.47 1300.7 1550.25 Q1300.7 1559 1296.34 1564 Q1291.98 1568.97 1284.34 1568.97 Q1276.67 1568.97 1272.31 1564 Q1267.98 1559 1267.98 1550.25 Q1267.98 1541.47 1272.31 1536.5 Q1276.67 1531.54 1284.34 1531.54 Z" fill="#000000" fill-rule="nonzero" fill-opacity="1" /><path clip-path="url(#clip610)" d="M1340.04 1546.53 L1340.04 1568.04 L1334.19 1568.04 L1334.19 1546.72 Q1334.19 1541.66 1332.21 1539.14 Q1330.24 1536.63 1326.29 1536.63 Q1321.55 1536.63 1318.81 1539.65 Q1316.08 1542.68 1316.08 1547.9 L1316.08 1568.04 L1310.19 1568.04 L1310.19 1532.4 L1316.08 1532.4 L1316.08 1537.93 Q1318.18 1534.72 1321.01 1533.13 Q1323.87 1531.54 1327.6 1531.54 Q1333.74 1531.54 1336.89 1535.36 Q1340.04 1539.14 1340.04 1546.53 Z" fill="#000000" fill-rule="nonzero" fill-opacity="1" /><path clip-path="url(#clip610)" d="M1402.94 1548.76 L1402.94 1551.62 L1376.01 1551.62 Q1376.39 1557.67 1379.64 1560.85 Q1382.92 1564 1388.74 1564 Q1392.11 1564 1395.27 1563.17 Q1398.45 1562.35 1401.57 1560.69 L1401.57 1566.23 Q1398.42 1567.57 1395.11 1568.27 Q1391.8 1568.97 1388.39 1568.97 Q1379.86 1568.97 1374.86 1564 Q1369.9 1559.04 1369.9 1550.57 Q1369.9 1541.82 1374.61 1536.69 Q1379.35 1531.54 1387.37 1531.54 Q1394.57 1531.54 1398.74 1536.18 Q1402.94 1540.8 1402.94 1548.76 M1397.08 1547.04 Q1397.02 1542.23 1394.37 1539.37 Q1391.76 1536.5 1387.44 1536.5 Q1382.53 1536.5 1379.57 1539.27 Q1376.65 1542.04 1376.2 1547.07 L1397.08 1547.04 Z" fill="#000000" fill-rule="nonzero" fill-opacity="1" /><path clip-path="url(#clip610)" d="M1442.18 1546.53 L1442.18 1568.04 L1436.32 1568.04 L1436.32 1546.72 Q1436.32 1541.66 1434.35 1539.14 Q1432.38 1536.63 1428.43 1536.63 Q1423.69 1536.63 1420.95 1539.65 Q1418.21 1542.68 1418.21 1547.9 L1418.21 1568.04 L1412.33 1568.04 L1412.33 1532.4 L1418.21 1532.4 L1418.21 1537.93 Q1420.31 1534.72 1423.15 1533.13 Q1426.01 1531.54 1429.74 1531.54 Q1435.88 1531.54 1439.03 1535.36 Q1442.18 1539.14 1442.18 1546.53 Z" fill="#000000" fill-rule="nonzero" fill-opacity="1" /><path clip-path="url(#clip610)" d="M1484.35 1548.76 L1484.35 1551.62 L1457.43 1551.62 Q1457.81 1557.67 1461.06 1560.85 Q1464.33 1564 1470.16 1564 Q1473.53 1564 1476.68 1563.17 Q1479.87 1562.35 1482.99 1560.69 L1482.99 1566.23 Q1479.83 1567.57 1476.52 1568.27 Q1473.21 1568.97 1469.81 1568.97 Q1461.28 1568.97 1456.28 1564 Q1451.32 1559.04 1451.32 1550.57 Q1451.32 1541.82 1456.03 1536.69 Q1460.77 1531.54 1468.79 1531.54 Q1475.98 1531.54 1480.15 1536.18 Q1484.35 1540.8 1484.35 1548.76 M1478.5 1547.04 Q1478.43 1542.23 1475.79 1539.37 Q1473.18 1536.5 1468.85 1536.5 Q1463.95 1536.5 1460.99 1539.27 Q1458.06 1542.04 1457.62 1547.07 L1478.5 1547.04 Z" fill="#000000" fill-rule="nonzero" fill-opacity="1" /><path clip-path="url(#clip610)" d="M1514.62 1537.87 Q1513.64 1537.3 1512.46 1537.04 Q1511.31 1536.76 1509.91 1536.76 Q1504.95 1536.76 1502.27 1540 Q1499.63 1543.22 1499.63 1549.27 L1499.63 1568.04 L1493.74 1568.04 L1493.74 1532.4 L1499.63 1532.4 L1499.63 1537.93 Q1501.48 1534.69 1504.44 1533.13 Q1507.4 1531.54 1511.63 1531.54 Q1512.24 1531.54 1512.97 1531.63 Q1513.7 1531.7 1514.59 1531.85 L1514.62 1537.87 Z" fill="#000000" fill-rule="nonzero" fill-opacity="1" /><path clip-path="url(#clip610)" d="M1543.08 1549.81 Q1543.08 1543.44 1540.44 1539.94 Q1537.83 1536.44 1533.08 1536.44 Q1528.37 1536.44 1525.73 1539.94 Q1523.12 1543.44 1523.12 1549.81 Q1523.12 1556.14 1525.73 1559.64 Q1528.37 1563.14 1533.08 1563.14 Q1537.83 1563.14 1540.44 1559.64 Q1543.08 1556.14 1543.08 1549.81 M1548.93 1563.62 Q1548.93 1572.72 1544.89 1577.15 Q1540.85 1581.6 1532.51 1581.6 Q1529.42 1581.6 1526.69 1581.13 Q1523.95 1580.68 1521.37 1579.72 L1521.37 1574.03 Q1523.95 1575.43 1526.46 1576.1 Q1528.98 1576.76 1531.59 1576.76 Q1537.35 1576.76 1540.21 1573.74 Q1543.08 1570.75 1543.08 1564.67 L1543.08 1561.77 Q1541.26 1564.92 1538.43 1566.48 Q1535.6 1568.04 1531.65 1568.04 Q1525.09 1568.04 1521.08 1563.05 Q1517.07 1558.05 1517.07 1549.81 Q1517.07 1541.53 1521.08 1536.53 Q1525.09 1531.54 1531.65 1531.54 Q1535.6 1531.54 1538.43 1533.1 Q1541.26 1534.66 1543.08 1537.81 L1543.08 1532.4 L1548.93 1532.4 L1548.93 1563.62 Z" fill="#000000" fill-rule="nonzero" fill-opacity="1" /><path clip-path="url(#clip610)" d="M1575.83 1571.35 Q1573.35 1577.72 1570.99 1579.66 Q1568.64 1581.6 1564.69 1581.6 L1560.01 1581.6 L1560.01 1576.7 L1563.45 1576.7 Q1565.87 1576.7 1567.2 1575.56 Q1568.54 1574.41 1570.16 1570.14 L1571.21 1567.47 L1556.8 1532.4 L1563 1532.4 L1574.14 1560.28 L1585.28 1532.4 L1591.49 1532.4 L1575.83 1571.35 Z" fill="#000000" fill-rule="nonzero" fill-opacity="1" /><path clip-path="url(#clip610)" d="M1634.36 1518.58 Q1630.1 1525.9 1628.03 1533.06 Q1625.96 1540.23 1625.96 1547.58 Q1625.96 1554.93 1628.03 1562.16 Q1630.13 1569.35 1634.36 1576.64 L1629.27 1576.64 Q1624.5 1569.16 1622.11 1561.93 Q1619.75 1554.71 1619.75 1547.58 Q1619.75 1540.48 1622.11 1533.29 Q1624.46 1526.09 1629.27 1518.58 L1634.36 1518.58 Z" fill="#000000" fill-rule="nonzero" fill-opacity="1" /><path clip-path="url(#clip610)" d="M1645.98 1520.52 L1655.56 1520.52 L1667.69 1552.86 L1679.88 1520.52 L1689.46 1520.52 L1689.46 1568.04 L1683.19 1568.04 L1683.19 1526.32 L1670.93 1558.91 L1664.47 1558.91 L1652.22 1526.32 L1652.22 1568.04 L1645.98 1568.04 L1645.98 1520.52 Z" fill="#000000" fill-rule="nonzero" fill-opacity="1" /><path clip-path="url(#clip610)" d="M1732.46 1548.76 L1732.46 1551.62 L1705.53 1551.62 Q1705.91 1557.67 1709.16 1560.85 Q1712.44 1564 1718.26 1564 Q1721.64 1564 1724.79 1563.17 Q1727.97 1562.35 1731.09 1560.69 L1731.09 1566.23 Q1727.94 1567.57 1724.63 1568.27 Q1721.32 1568.97 1717.91 1568.97 Q1709.38 1568.97 1704.38 1564 Q1699.42 1559.04 1699.42 1550.57 Q1699.42 1541.82 1704.13 1536.69 Q1708.87 1531.54 1716.89 1531.54 Q1724.09 1531.54 1728.26 1536.18 Q1732.46 1540.8 1732.46 1548.76 M1726.6 1547.04 Q1726.54 1542.23 1723.9 1539.37 Q1721.29 1536.5 1716.96 1536.5 Q1712.06 1536.5 1709.1 1539.27 Q1706.17 1542.04 1705.72 1547.07 L1726.6 1547.04 Z" fill="#000000" fill-rule="nonzero" fill-opacity="1" /><path clip-path="url(#clip610)" d="M1754.58 1568.04 L1736.44 1520.52 L1743.15 1520.52 L1758.21 1560.53 L1773.29 1520.52 L1779.98 1520.52 L1761.87 1568.04 L1754.58 1568.04 Z" fill="#000000" fill-rule="nonzero" fill-opacity="1" /><path clip-path="url(#clip610)" d="M1785.74 1518.58 L1790.83 1518.58 Q1795.61 1526.09 1797.96 1533.29 Q1800.35 1540.48 1800.35 1547.58 Q1800.35 1554.71 1797.96 1561.93 Q1795.61 1569.16 1790.83 1576.64 L1785.74 1576.64 Q1789.97 1569.35 1792.04 1562.16 Q1794.14 1554.93 1794.14 1547.58 Q1794.14 1540.23 1792.04 1533.06 Q1789.97 1525.9 1785.74 1518.58 Z" fill="#000000" fill-rule="nonzero" fill-opacity="1" /><polyline clip-path="url(#clip610)" style="stroke:#000000; stroke-linecap:round; stroke-linejoin:round; stroke-width:4; stroke-opacity:1; fill:none" points="175.445,1423.18 175.445,123.472 "/>
<polyline clip-path="url(#clip610)" style="stroke:#000000; stroke-linecap:round; stroke-linejoin:round; stroke-width:4; stroke-opacity:1; fill:none" points="175.445,1386.4 194.343,1386.4 "/>
<polyline clip-path="url(#clip610)" style="stroke:#000000; stroke-linecap:round; stroke-linejoin:round; stroke-width:4; stroke-opacity:1; fill:none" points="175.445,1182.04 194.343,1182.04 "/>
<polyline clip-path="url(#clip610)" style="stroke:#000000; stroke-linecap:round; stroke-linejoin:round; stroke-width:4; stroke-opacity:1; fill:none" points="175.445,977.683 194.343,977.683 "/>
<polyline clip-path="url(#clip610)" style="stroke:#000000; stroke-linecap:round; stroke-linejoin:round; stroke-width:4; stroke-opacity:1; fill:none" points="175.445,773.326 194.343,773.326 "/>
<polyline clip-path="url(#clip610)" style="stroke:#000000; stroke-linecap:round; stroke-linejoin:round; stroke-width:4; stroke-opacity:1; fill:none" points="175.445,568.969 194.343,568.969 "/>
<polyline clip-path="url(#clip610)" style="stroke:#000000; stroke-linecap:round; stroke-linejoin:round; stroke-width:4; stroke-opacity:1; fill:none" points="175.445,364.613 194.343,364.613 "/>
<polyline clip-path="url(#clip610)" style="stroke:#000000; stroke-linecap:round; stroke-linejoin:round; stroke-width:4; stroke-opacity:1; fill:none" points="175.445,160.256 194.343,160.256 "/>
<path clip-path="url(#clip610)" d="M127.501 1372.19 Q123.89 1372.19 122.061 1375.76 Q120.255 1379.3 120.255 1386.43 Q120.255 1393.54 122.061 1397.1 Q123.89 1400.64 127.501 1400.64 Q131.135 1400.64 132.941 1397.1 Q134.769 1393.54 134.769 1386.43 Q134.769 1379.3 132.941 1375.76 Q131.135 1372.19 127.501 1372.19 M127.501 1368.49 Q133.311 1368.49 136.367 1373.1 Q139.445 1377.68 139.445 1386.43 Q139.445 1395.16 136.367 1399.76 Q133.311 1404.35 127.501 1404.35 Q121.691 1404.35 118.612 1399.76 Q115.556 1395.16 115.556 1386.43 Q115.556 1377.68 118.612 1373.1 Q121.691 1368.49 127.501 1368.49 Z" fill="#000000" fill-rule="nonzero" fill-opacity="1" /><path clip-path="url(#clip610)" d="M119.538 1195.38 L127.177 1195.38 L127.177 1169.02 L118.867 1170.68 L118.867 1166.43 L127.13 1164.76 L131.806 1164.76 L131.806 1195.38 L139.445 1195.38 L139.445 1199.32 L119.538 1199.32 L119.538 1195.38 Z" fill="#000000" fill-rule="nonzero" fill-opacity="1" /><path clip-path="url(#clip610)" d="M123.126 991.027 L139.445 991.027 L139.445 994.963 L117.501 994.963 L117.501 991.027 Q120.163 988.273 124.746 983.643 Q129.353 978.99 130.533 977.648 Q132.779 975.125 133.658 973.389 Q134.561 971.629 134.561 969.94 Q134.561 967.185 132.617 965.449 Q130.695 963.713 127.593 963.713 Q125.394 963.713 122.941 964.477 Q120.51 965.24 117.732 966.791 L117.732 962.069 Q120.556 960.935 123.01 960.356 Q125.464 959.778 127.501 959.778 Q132.871 959.778 136.066 962.463 Q139.26 965.148 139.26 969.639 Q139.26 971.768 138.45 973.69 Q137.663 975.588 135.556 978.18 Q134.978 978.852 131.876 982.069 Q128.774 985.264 123.126 991.027 Z" fill="#000000" fill-rule="nonzero" fill-opacity="1" /><path clip-path="url(#clip610)" d="M132.316 771.972 Q135.672 772.689 137.547 774.958 Q139.445 777.226 139.445 780.56 Q139.445 785.675 135.927 788.476 Q132.408 791.277 125.927 791.277 Q123.751 791.277 121.436 790.837 Q119.144 790.421 116.691 789.564 L116.691 785.05 Q118.635 786.185 120.95 786.763 Q123.265 787.342 125.788 787.342 Q130.186 787.342 132.478 785.606 Q134.792 783.87 134.792 780.56 Q134.792 777.504 132.64 775.791 Q130.51 774.055 126.691 774.055 L122.663 774.055 L122.663 770.213 L126.876 770.213 Q130.325 770.213 132.154 768.847 Q133.982 767.458 133.982 764.865 Q133.982 762.203 132.084 760.791 Q130.209 759.356 126.691 759.356 Q124.769 759.356 122.57 759.773 Q120.371 760.189 117.732 761.069 L117.732 756.902 Q120.394 756.162 122.709 755.791 Q125.047 755.421 127.107 755.421 Q132.431 755.421 135.533 757.852 Q138.635 760.259 138.635 764.379 Q138.635 767.25 136.992 769.24 Q135.348 771.208 132.316 771.972 Z" fill="#000000" fill-rule="nonzero" fill-opacity="1" /><path clip-path="url(#clip610)" d="M129.862 555.763 L118.056 574.212 L129.862 574.212 L129.862 555.763 M128.635 551.689 L134.515 551.689 L134.515 574.212 L139.445 574.212 L139.445 578.101 L134.515 578.101 L134.515 586.249 L129.862 586.249 L129.862 578.101 L114.26 578.101 L114.26 573.587 L128.635 551.689 Z" fill="#000000" fill-rule="nonzero" fill-opacity="1" /><path clip-path="url(#clip610)" d="M118.543 347.333 L136.899 347.333 L136.899 351.268 L122.825 351.268 L122.825 359.74 Q123.843 359.393 124.862 359.231 Q125.88 359.046 126.899 359.046 Q132.686 359.046 136.066 362.217 Q139.445 365.388 139.445 370.805 Q139.445 376.384 135.973 379.485 Q132.501 382.564 126.181 382.564 Q124.005 382.564 121.737 382.194 Q119.492 381.823 117.084 381.083 L117.084 376.384 Q119.168 377.518 121.39 378.073 Q123.612 378.629 126.089 378.629 Q130.093 378.629 132.431 376.523 Q134.769 374.416 134.769 370.805 Q134.769 367.194 132.431 365.087 Q130.093 362.981 126.089 362.981 Q124.214 362.981 122.339 363.398 Q120.487 363.814 118.543 364.694 L118.543 347.333 Z" fill="#000000" fill-rule="nonzero" fill-opacity="1" /><path clip-path="url(#clip610)" d="M127.917 158.393 Q124.769 158.393 122.918 160.546 Q121.089 162.698 121.089 166.448 Q121.089 170.175 122.918 172.351 Q124.769 174.504 127.917 174.504 Q131.066 174.504 132.894 172.351 Q134.746 170.175 134.746 166.448 Q134.746 162.698 132.894 160.546 Q131.066 158.393 127.917 158.393 M137.2 143.74 L137.2 147.999 Q135.441 147.166 133.635 146.726 Q131.853 146.286 130.093 146.286 Q125.464 146.286 123.01 149.411 Q120.58 152.536 120.232 158.856 Q121.598 156.842 123.658 155.777 Q125.718 154.689 128.195 154.689 Q133.404 154.689 136.413 157.86 Q139.445 161.009 139.445 166.448 Q139.445 171.772 136.297 174.99 Q133.149 178.208 127.917 178.208 Q121.922 178.208 118.751 173.624 Q115.58 169.018 115.58 160.291 Q115.58 152.097 119.468 147.236 Q123.357 142.351 129.908 142.351 Q131.667 142.351 133.45 142.699 Q135.255 143.046 137.2 143.74 Z" fill="#000000" fill-rule="nonzero" fill-opacity="1" /><path clip-path="url(#clip610)" d="M20.1444 845.354 L26.9239 845.354 Q23.9002 848.6 22.4043 852.293 Q20.9083 855.953 20.9083 860.091 Q20.9083 868.239 25.9054 872.567 Q30.8707 876.896 40.2919 876.896 Q49.6813 876.896 54.6784 872.567 Q59.6436 868.239 59.6436 860.091 Q59.6436 855.953 58.1477 852.293 Q56.6518 848.6 53.6281 845.354 L60.3439 845.354 Q62.6355 848.728 63.7814 852.515 Q64.9272 856.271 64.9272 860.473 Q64.9272 871.262 58.3387 877.469 Q51.7183 883.676 40.2919 883.676 Q28.8336 883.676 22.2451 877.469 Q15.6248 871.262 15.6248 860.473 Q15.6248 856.207 16.7706 852.452 Q17.8846 848.664 20.1444 845.354 Z" fill="#000000" fill-rule="nonzero" fill-opacity="1" /><path clip-path="url(#clip610)" d="M32.4621 821.864 Q32.4621 826.575 36.1542 829.312 Q39.8145 832.05 46.212 832.05 Q52.6095 832.05 56.3017 829.344 Q59.9619 826.607 59.9619 821.864 Q59.9619 817.186 56.2698 814.448 Q52.5777 811.711 46.212 811.711 Q39.8781 811.711 36.186 814.448 Q32.4621 817.186 32.4621 821.864 M27.4968 821.864 Q27.4968 814.226 32.4621 809.865 Q37.4273 805.505 46.212 805.505 Q54.9649 805.505 59.9619 809.865 Q64.9272 814.226 64.9272 821.864 Q64.9272 829.535 59.9619 833.896 Q54.9649 838.224 46.212 838.224 Q37.4273 838.224 32.4621 833.896 Q27.4968 829.535 27.4968 821.864 Z" fill="#000000" fill-rule="nonzero" fill-opacity="1" /><path clip-path="url(#clip610)" d="M49.9359 796.402 L28.3562 796.402 L28.3562 790.545 L49.7131 790.545 Q54.7739 790.545 57.3202 788.572 Q59.8346 786.598 59.8346 782.652 Q59.8346 777.909 56.8109 775.172 Q53.7872 772.403 48.5673 772.403 L28.3562 772.403 L28.3562 766.547 L64.0042 766.547 L64.0042 772.403 L58.5296 772.403 Q61.7762 774.535 63.3676 777.368 Q64.9272 780.169 64.9272 783.893 Q64.9272 790.036 61.1078 793.219 Q57.2883 796.402 49.9359 796.402 M27.4968 781.665 L27.4968 781.665 Z" fill="#000000" fill-rule="nonzero" fill-opacity="1" /><path clip-path="url(#clip610)" d="M42.4881 724.851 L64.0042 724.851 L64.0042 730.708 L42.679 730.708 Q37.6183 730.708 35.1038 732.681 Q32.5894 734.654 32.5894 738.601 Q32.5894 743.344 35.6131 746.081 Q38.6368 748.818 43.8567 748.818 L64.0042 748.818 L64.0042 754.706 L28.3562 754.706 L28.3562 748.818 L33.8944 748.818 Q30.6797 746.717 29.0883 743.885 Q27.4968 741.02 27.4968 737.296 Q27.4968 731.153 31.3163 728.002 Q35.1038 724.851 42.4881 724.851 Z" fill="#000000" fill-rule="nonzero" fill-opacity="1" /><path clip-path="url(#clip610)" d="M18.2347 707.377 L28.3562 707.377 L28.3562 695.314 L32.9077 695.314 L32.9077 707.377 L52.2594 707.377 Q56.6199 707.377 57.8613 706.2 Q59.1026 704.99 59.1026 701.33 L59.1026 695.314 L64.0042 695.314 L64.0042 701.33 Q64.0042 708.109 61.4897 710.687 Q58.9434 713.266 52.2594 713.266 L32.9077 713.266 L32.9077 717.562 L28.3562 717.562 L28.3562 713.266 L18.2347 713.266 L18.2347 707.377 Z" fill="#000000" fill-rule="nonzero" fill-opacity="1" /><path clip-path="url(#clip610)" d="M29.4065 664.886 L34.9447 664.886 Q33.6716 667.369 33.035 670.042 Q32.3984 672.716 32.3984 675.581 Q32.3984 679.941 33.7352 682.137 Q35.072 684.302 37.7456 684.302 Q39.7826 684.302 40.9603 682.742 Q42.1061 681.182 43.1565 676.472 L43.6021 674.467 Q44.9389 668.228 47.3897 665.618 Q49.8086 662.976 54.1691 662.976 Q59.1344 662.976 62.0308 666.923 Q64.9272 670.838 64.9272 677.713 Q64.9272 680.578 64.3543 683.697 Q63.8132 686.784 62.6992 690.222 L56.6518 690.222 Q58.3387 686.975 59.198 683.824 Q60.0256 680.673 60.0256 677.586 Q60.0256 673.448 58.6251 671.22 Q57.1929 668.992 54.6147 668.992 Q52.2276 668.992 50.9545 670.615 Q49.6813 672.207 48.5037 677.649 L48.0262 679.686 Q46.8804 685.129 44.5251 687.548 Q42.138 689.967 38.0002 689.967 Q32.9713 689.967 30.2341 686.402 Q27.4968 682.837 27.4968 676.281 Q27.4968 673.034 27.9743 670.17 Q28.4517 667.305 29.4065 664.886 Z" fill="#000000" fill-rule="nonzero" fill-opacity="1" /><path clip-path="url(#clip610)" d="M716.459 71.3202 L716.459 63.8666 Q719.538 65.3249 722.697 66.0946 Q725.857 66.8642 728.895 66.8642 Q736.997 66.8642 741.25 61.436 Q745.544 55.9673 746.152 44.8678 Q743.802 48.3516 740.197 50.215 Q736.592 52.0784 732.217 52.0784 Q723.143 52.0784 717.836 46.6097 Q712.57 41.1005 712.57 31.5808 Q712.57 22.2638 718.079 16.633 Q723.588 11.0023 732.743 11.0023 Q743.235 11.0023 748.745 19.0636 Q754.294 27.0843 754.294 42.3968 Q754.294 56.6965 747.489 65.2439 Q740.724 73.7508 729.26 73.7508 Q726.181 73.7508 723.021 73.1431 Q719.862 72.5355 716.459 71.3202 M732.743 45.678 Q738.253 45.678 741.453 41.9107 Q744.694 38.1433 744.694 31.5808 Q744.694 25.0589 741.453 21.2916 Q738.253 17.4837 732.743 17.4837 Q727.234 17.4837 723.993 21.2916 Q720.793 25.0589 720.793 31.5808 Q720.793 38.1433 723.993 41.9107 Q727.234 45.678 732.743 45.678 Z" fill="#000000" fill-rule="nonzero" fill-opacity="1" /><path clip-path="url(#clip610)" d="M770.417 65.6895 L783.785 65.6895 L783.785 19.5497 L769.242 22.4663 L769.242 15.0127 L783.704 12.096 L791.887 12.096 L791.887 65.6895 L805.255 65.6895 L805.255 72.576 L770.417 72.576 L770.417 65.6895 Z" fill="#000000" fill-rule="nonzero" fill-opacity="1" /><path clip-path="url(#clip610)" d="M839.282 43.8551 Q833.449 43.8551 830.087 46.9743 Q826.765 50.0935 826.765 55.5622 Q826.765 61.0309 830.087 64.1501 Q833.449 67.2693 839.282 67.2693 Q845.116 67.2693 848.478 64.1501 Q851.84 60.9904 851.84 55.5622 Q851.84 50.0935 848.478 46.9743 Q845.156 43.8551 839.282 43.8551 M831.099 40.3713 Q825.833 39.075 822.876 35.4697 Q819.959 31.8644 819.959 26.6793 Q819.959 19.4281 825.104 15.2152 Q830.289 11.0023 839.282 11.0023 Q848.316 11.0023 853.46 15.2152 Q858.605 19.4281 858.605 26.6793 Q858.605 31.8644 855.648 35.4697 Q852.731 39.075 847.506 40.3713 Q853.42 41.7486 856.701 45.759 Q860.023 49.7694 860.023 55.5622 Q860.023 64.3527 854.635 69.0517 Q849.288 73.7508 839.282 73.7508 Q829.276 73.7508 823.889 69.0517 Q818.542 64.3527 818.542 55.5622 Q818.542 49.7694 821.863 45.759 Q825.185 41.7486 831.099 40.3713 M828.102 27.4489 Q828.102 32.148 831.018 34.7811 Q833.976 37.4142 839.282 37.4142 Q844.548 37.4142 847.506 34.7811 Q850.503 32.148 850.503 27.4489 Q850.503 22.7499 847.506 20.1168 Q844.548 17.4837 839.282 17.4837 Q833.976 17.4837 831.018 20.1168 Q828.102 22.7499 828.102 27.4489 Z" fill="#000000" fill-rule="nonzero" fill-opacity="1" /><path clip-path="url(#clip610)" d="M892.066 17.4837 Q885.746 17.4837 882.546 23.7221 Q879.386 29.92 879.386 42.3968 Q879.386 54.833 882.546 61.0714 Q885.746 67.2693 892.066 67.2693 Q898.425 67.2693 901.585 61.0714 Q904.785 54.833 904.785 42.3968 Q904.785 29.92 901.585 23.7221 Q898.425 17.4837 892.066 17.4837 M892.066 11.0023 Q902.233 11.0023 907.58 19.0636 Q912.968 27.0843 912.968 42.3968 Q912.968 57.6687 907.58 65.73 Q902.233 73.7508 892.066 73.7508 Q881.898 73.7508 876.51 65.73 Q871.163 57.6687 871.163 42.3968 Q871.163 27.0843 876.51 19.0636 Q881.898 11.0023 892.066 11.0023 Z" fill="#000000" fill-rule="nonzero" fill-opacity="1" /><path clip-path="url(#clip610)" d="M944.849 17.4837 Q938.529 17.4837 935.329 23.7221 Q932.169 29.92 932.169 42.3968 Q932.169 54.833 935.329 61.0714 Q938.529 67.2693 944.849 67.2693 Q951.209 67.2693 954.368 61.0714 Q957.569 54.833 957.569 42.3968 Q957.569 29.92 954.368 23.7221 Q951.209 17.4837 944.849 17.4837 M944.849 11.0023 Q955.017 11.0023 960.364 19.0636 Q965.751 27.0843 965.751 42.3968 Q965.751 57.6687 960.364 65.73 Q955.017 73.7508 944.849 73.7508 Q934.681 73.7508 929.293 65.73 Q923.946 57.6687 923.946 42.3968 Q923.946 27.0843 929.293 19.0636 Q934.681 11.0023 944.849 11.0023 Z" fill="#000000" fill-rule="nonzero" fill-opacity="1" /><path clip-path="url(#clip610)" d="M980.132 62.2867 L988.68 62.2867 L988.68 72.576 L980.132 72.576 L980.132 62.2867 Z" fill="#000000" fill-rule="nonzero" fill-opacity="1" /><path clip-path="url(#clip610)" d="M1024 17.4837 Q1017.68 17.4837 1014.48 23.7221 Q1011.32 29.92 1011.32 42.3968 Q1011.32 54.833 1014.48 61.0714 Q1017.68 67.2693 1024 67.2693 Q1030.36 67.2693 1033.52 61.0714 Q1036.72 54.833 1036.72 42.3968 Q1036.72 29.92 1033.52 23.7221 Q1030.36 17.4837 1024 17.4837 M1024 11.0023 Q1034.17 11.0023 1039.52 19.0636 Q1044.91 27.0843 1044.91 42.3968 Q1044.91 57.6687 1039.52 65.73 Q1034.17 73.7508 1024 73.7508 Q1013.84 73.7508 1008.45 65.73 Q1003.1 57.6687 1003.1 42.3968 Q1003.1 27.0843 1008.45 19.0636 Q1013.84 11.0023 1024 11.0023 Z" fill="#000000" fill-rule="nonzero" fill-opacity="1" /><path clip-path="url(#clip610)" d="M1122.32 45.1919 L1122.32 72.576 L1114.87 72.576 L1114.87 45.4349 Q1114.87 38.994 1112.35 35.7938 Q1109.84 32.5936 1104.82 32.5936 Q1098.78 32.5936 1095.3 36.4419 Q1091.82 40.2903 1091.82 46.9338 L1091.82 72.576 L1084.32 72.576 L1084.32 27.2059 L1091.82 27.2059 L1091.82 34.2544 Q1094.49 30.163 1098.09 28.1376 Q1101.74 26.1121 1106.48 26.1121 Q1114.3 26.1121 1118.31 30.9732 Q1122.32 35.7938 1122.32 45.1919 Z" fill="#000000" fill-rule="nonzero" fill-opacity="1" /><path clip-path="url(#clip610)" d="M1175.99 48.0275 L1175.99 51.6733 L1141.72 51.6733 Q1142.21 59.3701 1146.34 63.421 Q1150.51 67.4314 1157.93 67.4314 Q1162.22 67.4314 1166.23 66.3781 Q1170.28 65.3249 1174.25 63.2184 L1174.25 70.267 Q1170.24 71.9684 1166.03 72.8596 Q1161.82 73.7508 1157.48 73.7508 Q1146.62 73.7508 1140.26 67.4314 Q1133.95 61.1119 1133.95 50.3365 Q1133.95 39.1965 1139.94 32.6746 Q1145.98 26.1121 1156.18 26.1121 Q1165.34 26.1121 1170.65 32.0264 Q1175.99 37.9003 1175.99 48.0275 M1168.54 45.84 Q1168.46 39.7232 1165.1 36.0774 Q1161.77 32.4315 1156.27 32.4315 Q1150.03 32.4315 1146.26 35.9558 Q1142.53 39.4801 1141.97 45.8805 L1168.54 45.84 Z" fill="#000000" fill-rule="nonzero" fill-opacity="1" /><path clip-path="url(#clip610)" d="M1187.46 54.671 L1187.46 27.2059 L1194.91 27.2059 L1194.91 54.3874 Q1194.91 60.8284 1197.42 64.0691 Q1199.93 67.2693 1204.96 67.2693 Q1210.99 67.2693 1214.48 63.421 Q1218 59.5726 1218 52.9291 L1218 27.2059 L1225.45 27.2059 L1225.45 72.576 L1218 72.576 L1218 65.6084 Q1215.29 69.7404 1211.68 71.7658 Q1208.12 73.7508 1203.38 73.7508 Q1195.56 73.7508 1191.51 68.8897 Q1187.46 64.0286 1187.46 54.671 M1206.21 26.1121 L1206.21 26.1121 Z" fill="#000000" fill-rule="nonzero" fill-opacity="1" /><path clip-path="url(#clip610)" d="M1248.18 14.324 L1248.18 27.2059 L1263.53 27.2059 L1263.53 32.9987 L1248.18 32.9987 L1248.18 57.6282 Q1248.18 63.1779 1249.68 64.7578 Q1251.22 66.3376 1255.88 66.3376 L1263.53 66.3376 L1263.53 72.576 L1255.88 72.576 Q1247.25 72.576 1243.97 69.3758 Q1240.69 66.1351 1240.69 57.6282 L1240.69 32.9987 L1235.22 32.9987 L1235.22 27.2059 L1240.69 27.2059 L1240.69 14.324 L1248.18 14.324 Z" fill="#000000" fill-rule="nonzero" fill-opacity="1" /><path clip-path="url(#clip610)" d="M1299.63 34.1734 Q1298.37 33.4443 1296.87 33.1202 Q1295.41 32.7556 1293.63 32.7556 Q1287.31 32.7556 1283.91 36.8875 Q1280.55 40.9789 1280.55 48.6757 L1280.55 72.576 L1273.05 72.576 L1273.05 27.2059 L1280.55 27.2059 L1280.55 34.2544 Q1282.9 30.1225 1286.66 28.1376 Q1290.43 26.1121 1295.82 26.1121 Q1296.59 26.1121 1297.52 26.2337 Q1298.45 26.3147 1299.59 26.5172 L1299.63 34.1734 Z" fill="#000000" fill-rule="nonzero" fill-opacity="1" /><path clip-path="url(#clip610)" d="M1323.2 32.4315 Q1317.21 32.4315 1313.72 37.1306 Q1310.24 41.7891 1310.24 49.9314 Q1310.24 58.0738 1313.68 62.7728 Q1317.17 67.4314 1323.2 67.4314 Q1329.16 67.4314 1332.64 62.7323 Q1336.13 58.0333 1336.13 49.9314 Q1336.13 41.8701 1332.64 37.1711 Q1329.16 32.4315 1323.2 32.4315 M1323.2 26.1121 Q1332.93 26.1121 1338.48 32.4315 Q1344.02 38.7509 1344.02 49.9314 Q1344.02 61.0714 1338.48 67.4314 Q1332.93 73.7508 1323.2 73.7508 Q1313.44 73.7508 1307.89 67.4314 Q1302.38 61.0714 1302.38 49.9314 Q1302.38 38.7509 1307.89 32.4315 Q1313.44 26.1121 1323.2 26.1121 Z" fill="#000000" fill-rule="nonzero" fill-opacity="1" /><path clip-path="url(#clip610)" d="M1394.09 45.1919 L1394.09 72.576 L1386.64 72.576 L1386.64 45.4349 Q1386.64 38.994 1384.13 35.7938 Q1381.62 32.5936 1376.59 32.5936 Q1370.56 32.5936 1367.07 36.4419 Q1363.59 40.2903 1363.59 46.9338 L1363.59 72.576 L1356.1 72.576 L1356.1 27.2059 L1363.59 27.2059 L1363.59 34.2544 Q1366.26 30.163 1369.87 28.1376 Q1373.52 26.1121 1378.26 26.1121 Q1386.07 26.1121 1390.08 30.9732 Q1394.09 35.7938 1394.09 45.1919 Z" fill="#000000" fill-rule="nonzero" fill-opacity="1" /><path clip-path="url(#clip610)" d="M1437.88 28.5427 L1437.88 35.5912 Q1434.72 33.9709 1431.32 33.1607 Q1427.92 32.3505 1424.27 32.3505 Q1418.72 32.3505 1415.93 34.0519 Q1413.17 35.7533 1413.17 39.156 Q1413.17 41.7486 1415.16 43.2475 Q1417.14 44.7058 1423.14 46.0426 L1425.69 46.6097 Q1433.63 48.3111 1436.95 51.4303 Q1440.31 54.509 1440.31 60.0587 Q1440.31 66.3781 1435.29 70.0644 Q1430.31 73.7508 1421.56 73.7508 Q1417.91 73.7508 1413.94 73.0216 Q1410.01 72.3329 1405.64 70.9151 L1405.64 63.2184 Q1409.77 65.3654 1413.78 66.4591 Q1417.79 67.5124 1421.72 67.5124 Q1426.99 67.5124 1429.82 65.73 Q1432.66 63.9071 1432.66 60.6258 Q1432.66 57.5877 1430.59 55.9673 Q1428.57 54.3469 1421.64 52.8481 L1419.05 52.2405 Q1412.12 50.7821 1409.04 47.7845 Q1405.96 44.7463 1405.96 39.4801 Q1405.96 33.0797 1410.5 29.5959 Q1415.04 26.1121 1423.38 26.1121 Q1427.51 26.1121 1431.16 26.7198 Q1434.81 27.3274 1437.88 28.5427 Z" fill="#000000" fill-rule="nonzero" fill-opacity="1" /><path clip-path="url(#clip610)" d="M1507.48 28.5427 L1507.48 35.5912 Q1504.32 33.9709 1500.92 33.1607 Q1497.51 32.3505 1493.87 32.3505 Q1488.32 32.3505 1485.52 34.0519 Q1482.77 35.7533 1482.77 39.156 Q1482.77 41.7486 1484.75 43.2475 Q1486.74 44.7058 1492.73 46.0426 L1495.29 46.6097 Q1503.23 48.3111 1506.55 51.4303 Q1509.91 54.509 1509.91 60.0587 Q1509.91 66.3781 1504.89 70.0644 Q1499.9 73.7508 1491.15 73.7508 Q1487.51 73.7508 1483.54 73.0216 Q1479.61 72.3329 1475.23 70.9151 L1475.23 63.2184 Q1479.37 65.3654 1483.38 66.4591 Q1487.39 67.5124 1491.32 67.5124 Q1496.58 67.5124 1499.42 65.73 Q1502.25 63.9071 1502.25 60.6258 Q1502.25 57.5877 1500.19 55.9673 Q1498.16 54.3469 1491.23 52.8481 L1488.64 52.2405 Q1481.72 50.7821 1478.64 47.7845 Q1475.56 44.7463 1475.56 39.4801 Q1475.56 33.0797 1480.09 29.5959 Q1484.63 26.1121 1492.98 26.1121 Q1497.11 26.1121 1500.75 26.7198 Q1504.4 27.3274 1507.48 28.5427 Z" fill="#000000" fill-rule="nonzero" fill-opacity="1" /><path clip-path="url(#clip610)" d="M1519.51 29.0288 L1552.2 29.0288 L1552.2 32.8771 L1519.51 32.8771 L1519.51 29.0288 Z" fill="#000000" fill-rule="nonzero" fill-opacity="1" /><path clip-path="url(#clip610)" d="M1564.07 41.06 L1572.33 41.06 L1572.33 16.3089 L1563.3 17.9698 L1563.3 13.2708 L1572.62 11.6909 L1578.17 11.6909 L1578.17 41.06 L1586.47 41.06 L1586.47 45.516 L1564.07 45.516 L1564.07 41.06 Z" fill="#000000" fill-rule="nonzero" fill-opacity="1" /><path clip-path="url(#clip610)" d="M1657.85 28.9478 L1657.85 35.9153 Q1654.69 34.1734 1651.49 33.3227 Q1648.33 32.4315 1645.09 32.4315 Q1637.84 32.4315 1633.83 37.0496 Q1629.82 41.6271 1629.82 49.9314 Q1629.82 58.2358 1633.83 62.8538 Q1637.84 67.4314 1645.09 67.4314 Q1648.33 67.4314 1651.49 66.5807 Q1654.69 65.6895 1657.85 63.9476 L1657.85 70.8341 Q1654.73 72.2924 1651.37 73.0216 Q1648.05 73.7508 1644.28 73.7508 Q1634.03 73.7508 1627.99 67.3098 Q1621.96 60.8689 1621.96 49.9314 Q1621.96 38.832 1628.03 32.472 Q1634.15 26.1121 1644.76 26.1121 Q1648.21 26.1121 1651.49 26.8413 Q1654.77 27.5299 1657.85 28.9478 Z" fill="#000000" fill-rule="nonzero" fill-opacity="1" /><path clip-path="url(#clip610)" d="M1706.14 35.9153 Q1708.93 30.8922 1712.82 28.5022 Q1716.71 26.1121 1721.97 26.1121 Q1729.06 26.1121 1732.91 31.0947 Q1736.76 36.0368 1736.76 45.1919 L1736.76 72.576 L1729.27 72.576 L1729.27 45.4349 Q1729.27 38.913 1726.96 35.7533 Q1724.65 32.5936 1719.91 32.5936 Q1714.12 32.5936 1710.75 36.4419 Q1707.39 40.2903 1707.39 46.9338 L1707.39 72.576 L1699.9 72.576 L1699.9 45.4349 Q1699.9 38.8725 1697.59 35.7533 Q1695.28 32.5936 1690.46 32.5936 Q1684.75 32.5936 1681.38 36.4824 Q1678.02 40.3308 1678.02 46.9338 L1678.02 72.576 L1670.53 72.576 L1670.53 27.2059 L1678.02 27.2059 L1678.02 34.2544 Q1680.57 30.082 1684.14 28.0971 Q1687.7 26.1121 1692.61 26.1121 Q1697.55 26.1121 1700.99 28.6237 Q1704.47 31.1352 1706.14 35.9153 Z" fill="#000000" fill-rule="nonzero" fill-opacity="1" /><path clip-path="url(#clip610)" d="M1749.36 29.0288 L1782.05 29.0288 L1782.05 32.8771 L1749.36 32.8771 L1749.36 29.0288 Z" fill="#000000" fill-rule="nonzero" fill-opacity="1" /><path clip-path="url(#clip610)" d="M1798.46 40.8979 L1815.63 40.8979 L1815.63 45.516 L1791.41 45.516 L1791.41 41.06 Q1792.78 39.8042 1795.34 37.5357 Q1809.27 25.1804 1809.27 21.3726 Q1809.27 18.699 1807.16 17.0786 Q1805.06 15.4177 1801.62 15.4177 Q1799.51 15.4177 1797.04 16.1469 Q1794.57 16.8356 1791.65 18.2534 L1791.65 13.2708 Q1794.77 12.1365 1797.44 11.5694 Q1800.16 11.0023 1802.47 11.0023 Q1808.34 11.0023 1811.86 13.6759 Q1815.39 16.3494 1815.39 20.7244 Q1815.39 26.3552 1801.98 37.8598 Q1799.71 39.8042 1798.46 40.8979 Z" fill="#000000" fill-rule="nonzero" fill-opacity="1" /><polyline clip-path="url(#clip612)" style="stroke:#000000; stroke-linecap:round; stroke-linejoin:round; stroke-width:4; stroke-opacity:1; fill:none" points="237.067,1386.4 237.067,1386.4 245.555,1386.4 245.555,977.683 254.043,977.683 254.043,773.326 262.531,773.326 262.531,1182.04 271.019,1182.04 271.019,977.683 279.507,977.683 279.507,1182.04 287.994,1182.04 287.994,1386.4 296.482,1386.4 296.482,1182.04 304.97,1182.04 304.97,977.683 313.458,977.683 313.458,1386.4 321.946,1386.4 321.946,1182.04 330.434,1182.04 330.434,1386.4 338.922,1386.4 338.922,1182.04 347.41,1182.04 355.898,1182.04 364.385,1182.04 364.385,977.683 372.873,977.683 372.873,1182.04 381.361,1182.04 381.361,568.969 389.849,568.969 398.337,568.969 398.337,977.683 406.825,977.683 415.313,977.683 415.313,160.256 423.801,160.256 423.801,1182.04 432.288,1182.04 432.288,568.969 440.776,568.969 440.776,1182.04 449.264,1182.04 449.264,977.683 457.752,977.683 457.752,160.256 466.24,160.256 466.24,977.683 474.728,977.683 474.728,1386.4 483.216,1386.4 483.216,1182.04 491.704,1182.04 500.191,1182.04 500.191,1386.4 508.679,1386.4 508.679,1182.04 517.167,1182.04 517.167,977.683 525.655,977.683 534.143,977.683 534.143,1182.04 542.631,1182.04 551.119,1182.04 551.119,1386.4 559.607,1386.4 568.094,1386.4 576.582,1386.4 576.582,1182.04 585.07,1182.04 593.558,1182.04 593.558,1386.4 602.046,1386.4 602.046,977.683 610.534,977.683 610.534,1182.04 619.022,1182.04 619.022,977.683 627.51,977.683 627.51,1182.04 635.998,1182.04 635.998,977.683 644.485,977.683 644.485,1386.4 652.973,1386.4 652.973,1182.04 661.461,1182.04 661.461,160.256 669.949,160.256 669.949,977.683 678.437,977.683 678.437,1182.04 686.925,1182.04 686.925,977.683 695.413,977.683 695.413,1386.4 703.901,1386.4 703.901,1182.04 712.388,1182.04 712.388,1386.4 720.876,1386.4 720.876,1182.04 729.364,1182.04 737.852,1182.04 737.852,1386.4 746.34,1386.4 746.34,1182.04 754.828,1182.04 754.828,1386.4 763.316,1386.4 763.316,1182.04 771.804,1182.04 771.804,1386.4 780.291,1386.4 780.291,1182.04 788.779,1182.04 797.267,1182.04 797.267,1386.4 805.755,1386.4 805.755,977.683 814.243,977.683 814.243,1182.04 822.731,1182.04 822.731,977.683 831.219,977.683 831.219,1182.04 839.707,1182.04 839.707,1386.4 848.194,1386.4 856.682,1386.4 865.17,1386.4 865.17,1182.04 873.658,1182.04 873.658,1386.4 882.146,1386.4 882.146,1182.04 890.634,1182.04 890.634,977.683 899.122,977.683 899.122,1386.4 907.61,1386.4 907.61,1182.04 916.098,1182.04 916.098,1386.4 924.585,1386.4 933.073,1386.4 941.561,1386.4 941.561,1182.04 950.049,1182.04 950.049,1386.4 958.537,1386.4 958.537,1182.04 967.025,1182.04 967.025,1386.4 975.513,1386.4 984.001,1386.4 984.001,1182.04 992.488,1182.04 1000.98,1182.04 1000.98,1386.4 1009.46,1386.4 1009.46,1182.04 1017.95,1182.04 1017.95,1386.4 1026.44,1386.4 1034.93,1386.4 1043.42,1386.4 1043.42,1182.04 1051.9,1182.04 1051.9,1386.4 1060.39,1386.4 1060.39,1182.04 1068.88,1182.04 1068.88,1386.4 1077.37,1386.4 1085.86,1386.4 1085.86,977.683 1094.34,977.683 1094.34,1386.4 1102.83,1386.4 1102.83,1182.04 1111.32,1182.04 1119.81,1182.04 1119.81,1386.4 1128.29,1386.4 1128.29,977.683 1136.78,977.683 1145.27,977.683 1145.27,1386.4 1153.76,1386.4 1162.25,1386.4 1162.25,1182.04 1170.73,1182.04 1179.22,1182.04 1179.22,1386.4 1187.71,1386.4 1196.2,1386.4 1204.69,1386.4 1204.69,1182.04 1213.17,1182.04 1213.17,1386.4 1221.66,1386.4 1230.15,1386.4 1230.15,1182.04 1238.64,1182.04 1247.12,1182.04 1247.12,1386.4 1255.61,1386.4 1255.61,1182.04 1264.1,1182.04 1264.1,1386.4 1272.59,1386.4 1281.08,1386.4 1289.56,1386.4 1289.56,1182.04 1298.05,1182.04 1298.05,977.683 1306.54,977.683 1306.54,1182.04 1315.03,1182.04 1323.52,1182.04 1332,1182.04 1332,1386.4 1340.49,1386.4 1348.98,1386.4 1348.98,1182.04 1357.47,1182.04 1357.47,1386.4 1365.96,1386.4 1365.96,977.683 1374.44,977.683 1374.44,1182.04 1382.93,1182.04 1382.93,1386.4 1391.42,1386.4 1399.91,1386.4 1399.91,1182.04 1408.39,1182.04 1408.39,1386.4 1416.88,1386.4 1416.88,1182.04 1425.37,1182.04 1433.86,1182.04 1433.86,1386.4 1442.35,1386.4 1450.83,1386.4 1459.32,1386.4 1467.81,1386.4 1476.3,1386.4 1476.3,1182.04 1484.79,1182.04 1484.79,1386.4 1493.27,1386.4 1501.76,1386.4 1510.25,1386.4 1518.74,1386.4 1527.22,1386.4 1535.71,1386.4 1544.2,1386.4 1552.69,1386.4 1561.18,1386.4 1569.66,1386.4 1578.15,1386.4 1578.15,977.683 1586.64,977.683 1586.64,1386.4 1595.13,1386.4 1595.13,977.683 1603.62,977.683 1603.62,1386.4 1612.1,1386.4 1620.59,1386.4 1629.08,1386.4 1637.57,1386.4 1637.57,1182.04 1646.06,1182.04 1646.06,1386.4 1654.54,1386.4 1663.03,1386.4 1671.52,1386.4 1680.01,1386.4 1680.01,1182.04 1688.49,1182.04 1688.49,1386.4 1696.98,1386.4 1696.98,1182.04 1705.47,1182.04 1713.96,1182.04 1713.96,1386.4 1722.45,1386.4 1722.45,1182.04 1730.93,1182.04 1739.42,1182.04 1739.42,1386.4 1747.91,1386.4 1756.4,1386.4 1764.89,1386.4 1764.89,1182.04 1773.37,1182.04 1773.37,1386.4 1781.86,1386.4 1790.35,1386.4 1790.35,977.683 1798.84,977.683 1798.84,1182.04 1807.32,1182.04 1807.32,977.683 1815.81,977.683 1815.81,1386.4 1824.3,1386.4 1832.79,1386.4 1841.28,1386.4 1849.76,1386.4 1858.25,1386.4 1858.25,1182.04 1866.74,1182.04 1866.74,1386.4 1875.23,1386.4 1883.72,1386.4 1892.2,1386.4 1900.69,1386.4 1909.18,1386.4 1917.67,1386.4 1926.16,1386.4 1934.64,1386.4 1934.64,1182.04 1943.13,1182.04 1943.13,1386.4 1951.62,1386.4 1960.11,1386.4 1968.59,1386.4 1968.59,1182.04 1977.08,1182.04 1977.08,1386.4 1985.57,1386.4 1994.06,1386.4 2002.55,1386.4 2002.55,1182.04 2011.03,1182.04 2011.03,1386.4 2019.52,1386.4 2028.01,1386.4 2036.5,1386.4 2036.5,1182.04 2044.99,1182.04 2044.99,1386.4 2053.47,1386.4 2061.96,1386.4 2070.45,1386.4 2070.45,1182.04 2078.94,1182.04 2078.94,1386.4 2087.42,1386.4 2095.91,1386.4 2104.4,1386.4 2112.89,1386.4 2121.38,1386.4 2121.38,1182.04 2129.86,1182.04 2129.86,977.683 2138.35,977.683 2138.35,1386.4 2146.84,1386.4 2155.33,1386.4 2163.82,1386.4 2172.3,1386.4 2172.3,1182.04 2180.79,1182.04 2180.79,1386.4 2189.28,1386.4 2189.28,977.683 2197.77,977.683 2197.77,1386.4 2206.26,1386.4 2206.26,1182.04 2214.74,1182.04 2214.74,1386.4 2223.23,1386.4 2231.72,1386.4 2240.21,1386.4 2248.69,1386.4 2248.69,1182.04 2257.18,1182.04 2257.18,1386.4 2265.67,1386.4 2274.16,1386.4 2282.65,1386.4 2291.13,1386.4 "/>
<polyline clip-path="url(#clip612)" style="stroke:#ff0000; stroke-linecap:round; stroke-linejoin:round; stroke-width:4; stroke-opacity:1; fill:none" points="237.067,1386.4 237.067,1386.4 245.555,1386.4 245.555,364.613 254.043,364.613 262.531,364.613 271.019,364.613 271.019,568.969 279.507,568.969 279.507,977.683 287.994,977.683 296.482,977.683 296.482,773.326 304.97,773.326 304.97,977.683 313.458,977.683 313.458,1182.04 321.946,1182.04 330.434,1182.04 338.922,1182.04 338.922,977.683 347.41,977.683 355.898,977.683 355.898,1386.4 364.385,1386.4 364.385,1182.04 372.873,1182.04 372.873,1386.4 381.361,1386.4 381.361,977.683 389.849,977.683 389.849,1182.04 398.337,1182.04 398.337,773.326 406.825,773.326 406.825,977.683 415.313,977.683 415.313,1182.04 423.801,1182.04 423.801,1386.4 432.288,1386.4 440.776,1386.4 449.264,1386.4 457.752,1386.4 466.24,1386.4 474.728,1386.4 483.216,1386.4 491.704,1386.4 500.191,1386.4 508.679,1386.4 517.167,1386.4 525.655,1386.4 534.143,1386.4 534.143,1182.04 542.631,1182.04 542.631,1386.4 551.119,1386.4 559.607,1386.4 568.094,1386.4 576.582,1386.4 585.07,1386.4 593.558,1386.4 602.046,1386.4 610.534,1386.4 619.022,1386.4 627.51,1386.4 635.998,1386.4 644.485,1386.4 652.973,1386.4 661.461,1386.4 669.949,1386.4 678.437,1386.4 686.925,1386.4 695.413,1386.4 703.901,1386.4 712.388,1386.4 720.876,1386.4 729.364,1386.4 737.852,1386.4 746.34,1386.4 754.828,1386.4 763.316,1386.4 771.804,1386.4 780.291,1386.4 788.779,1386.4 797.267,1386.4 805.755,1386.4 814.243,1386.4 822.731,1386.4 831.219,1386.4 839.707,1386.4 848.194,1386.4 856.682,1386.4 865.17,1386.4 873.658,1386.4 882.146,1386.4 890.634,1386.4 899.122,1386.4 907.61,1386.4 916.098,1386.4 924.585,1386.4 933.073,1386.4 941.561,1386.4 950.049,1386.4 958.537,1386.4 967.025,1386.4 975.513,1386.4 984.001,1386.4 992.488,1386.4 1000.98,1386.4 1009.46,1386.4 1017.95,1386.4 1026.44,1386.4 1034.93,1386.4 1043.42,1386.4 1051.9,1386.4 1060.39,1386.4 1068.88,1386.4 1077.37,1386.4 1085.86,1386.4 1094.34,1386.4 1102.83,1386.4 1111.32,1386.4 1119.81,1386.4 1128.29,1386.4 1136.78,1386.4 1145.27,1386.4 1153.76,1386.4 1162.25,1386.4 1170.73,1386.4 1179.22,1386.4 1187.71,1386.4 1196.2,1386.4 1204.69,1386.4 1213.17,1386.4 1221.66,1386.4 1230.15,1386.4 1238.64,1386.4 1247.12,1386.4 1255.61,1386.4 1264.1,1386.4 1272.59,1386.4 1281.08,1386.4 1289.56,1386.4 1298.05,1386.4 1306.54,1386.4 1315.03,1386.4 1323.52,1386.4 1332,1386.4 1340.49,1386.4 1348.98,1386.4 1357.47,1386.4 1365.96,1386.4 1374.44,1386.4 1382.93,1386.4 1391.42,1386.4 1399.91,1386.4 1408.39,1386.4 1416.88,1386.4 1425.37,1386.4 1433.86,1386.4 1442.35,1386.4 1450.83,1386.4 1459.32,1386.4 1467.81,1386.4 1476.3,1386.4 1484.79,1386.4 1493.27,1386.4 1501.76,1386.4 1510.25,1386.4 1518.74,1386.4 1527.22,1386.4 1535.71,1386.4 1544.2,1386.4 1552.69,1386.4 1561.18,1386.4 1569.66,1386.4 1578.15,1386.4 1586.64,1386.4 1595.13,1386.4 1603.62,1386.4 1612.1,1386.4 1620.59,1386.4 1629.08,1386.4 1637.57,1386.4 1646.06,1386.4 1654.54,1386.4 1663.03,1386.4 1671.52,1386.4 1680.01,1386.4 1688.49,1386.4 1696.98,1386.4 1705.47,1386.4 1713.96,1386.4 1722.45,1386.4 1730.93,1386.4 1739.42,1386.4 1747.91,1386.4 1756.4,1386.4 1764.89,1386.4 1773.37,1386.4 1781.86,1386.4 1790.35,1386.4 1798.84,1386.4 1807.32,1386.4 1815.81,1386.4 1824.3,1386.4 1832.79,1386.4 1841.28,1386.4 1849.76,1386.4 1858.25,1386.4 1866.74,1386.4 1875.23,1386.4 1883.72,1386.4 1892.2,1386.4 1900.69,1386.4 1909.18,1386.4 1917.67,1386.4 1926.16,1386.4 1934.64,1386.4 1943.13,1386.4 1951.62,1386.4 1960.11,1386.4 1968.59,1386.4 1977.08,1386.4 1985.57,1386.4 1994.06,1386.4 2002.55,1386.4 2011.03,1386.4 2019.52,1386.4 2028.01,1386.4 2036.5,1386.4 2044.99,1386.4 2053.47,1386.4 2061.96,1386.4 2070.45,1386.4 2078.94,1386.4 2087.42,1386.4 2095.91,1386.4 2104.4,1386.4 2112.89,1386.4 2121.38,1386.4 2129.86,1386.4 2138.35,1386.4 2146.84,1386.4 2155.33,1386.4 2163.82,1386.4 2172.3,1386.4 2180.79,1386.4 2189.28,1386.4 2197.77,1386.4 2206.26,1386.4 2214.74,1386.4 2223.23,1386.4 2231.72,1386.4 2240.21,1386.4 2248.69,1386.4 2257.18,1386.4 2265.67,1386.4 2274.16,1386.4 2282.65,1386.4 2291.13,1386.4 "/>
<path clip-path="url(#clip610)" d="M1647.73 322.316 L2280.18 322.316 L2280.18 166.796 L1647.73 166.796  Z" fill="#ffffff" fill-rule="evenodd" fill-opacity="1"/>
<polyline clip-path="url(#clip610)" style="stroke:#000000; stroke-linecap:round; stroke-linejoin:round; stroke-width:4; stroke-opacity:1; fill:none" points="1647.73,322.316 2280.18,322.316 2280.18,166.796 1647.73,166.796 1647.73,322.316 "/>
<polyline clip-path="url(#clip610)" style="stroke:#000000; stroke-linecap:round; stroke-linejoin:round; stroke-width:4; stroke-opacity:1; fill:none" points="1671.92,218.636 1817.07,218.636 "/>
<path clip-path="url(#clip610)" d="M1869.14 204.018 L1869.14 208.948 Q1866.78 206.749 1864.09 205.661 Q1861.43 204.573 1858.42 204.573 Q1852.49 204.573 1849.35 208.208 Q1846.2 211.819 1846.2 218.67 Q1846.2 225.499 1849.35 229.133 Q1852.49 232.744 1858.42 232.744 Q1861.43 232.744 1864.09 231.656 Q1866.78 230.569 1869.14 228.369 L1869.14 233.254 Q1866.68 234.92 1863.93 235.754 Q1861.2 236.587 1858.14 236.587 Q1850.29 236.587 1845.78 231.795 Q1841.27 226.981 1841.27 218.67 Q1841.27 210.337 1845.78 205.546 Q1850.29 200.731 1858.14 200.731 Q1861.24 200.731 1863.97 201.564 Q1866.73 202.374 1869.14 204.018 Z" fill="#000000" fill-rule="nonzero" fill-opacity="1" /><path clip-path="url(#clip610)" d="M1886.22 212.976 Q1882.79 212.976 1880.8 215.661 Q1878.81 218.323 1878.81 222.976 Q1878.81 227.629 1880.78 230.314 Q1882.77 232.976 1886.22 232.976 Q1889.62 232.976 1891.61 230.291 Q1893.6 227.606 1893.6 222.976 Q1893.6 218.37 1891.61 215.684 Q1889.62 212.976 1886.22 212.976 M1886.22 209.365 Q1891.78 209.365 1894.95 212.976 Q1898.12 216.587 1898.12 222.976 Q1898.12 229.342 1894.95 232.976 Q1891.78 236.587 1886.22 236.587 Q1880.64 236.587 1877.47 232.976 Q1874.32 229.342 1874.32 222.976 Q1874.32 216.587 1877.47 212.976 Q1880.64 209.365 1886.22 209.365 Z" fill="#000000" fill-rule="nonzero" fill-opacity="1" /><path clip-path="url(#clip610)" d="M1920.2 213.971 Q1919.48 213.555 1918.63 213.37 Q1917.79 213.161 1916.78 213.161 Q1913.16 213.161 1911.22 215.522 Q1909.3 217.86 1909.3 222.258 L1909.3 235.916 L1905.02 235.916 L1905.02 209.99 L1909.3 209.99 L1909.3 214.018 Q1910.64 211.657 1912.79 210.522 Q1914.95 209.365 1918.03 209.365 Q1918.47 209.365 1919 209.434 Q1919.53 209.481 1920.18 209.596 L1920.2 213.971 Z" fill="#000000" fill-rule="nonzero" fill-opacity="1" /><path clip-path="url(#clip610)" d="M1938.86 213.971 Q1938.14 213.555 1937.28 213.37 Q1936.45 213.161 1935.43 213.161 Q1931.82 213.161 1929.88 215.522 Q1927.96 217.86 1927.96 222.258 L1927.96 235.916 L1923.67 235.916 L1923.67 209.99 L1927.96 209.99 L1927.96 214.018 Q1929.3 211.657 1931.45 210.522 Q1933.6 209.365 1936.68 209.365 Q1937.12 209.365 1937.65 209.434 Q1938.19 209.481 1938.84 209.596 L1938.86 213.971 Z" fill="#000000" fill-rule="nonzero" fill-opacity="1" /><path clip-path="url(#clip610)" d="M1964.46 221.888 L1964.46 223.971 L1944.88 223.971 Q1945.15 228.369 1947.52 230.684 Q1949.9 232.976 1954.14 232.976 Q1956.59 232.976 1958.88 232.374 Q1961.2 231.772 1963.46 230.569 L1963.46 234.596 Q1961.17 235.568 1958.77 236.078 Q1956.36 236.587 1953.88 236.587 Q1947.68 236.587 1944.04 232.976 Q1940.43 229.365 1940.43 223.207 Q1940.43 216.842 1943.86 213.115 Q1947.31 209.365 1953.14 209.365 Q1958.37 209.365 1961.4 212.745 Q1964.46 216.101 1964.46 221.888 M1960.2 220.638 Q1960.15 217.143 1958.23 215.059 Q1956.34 212.976 1953.19 212.976 Q1949.62 212.976 1947.47 214.99 Q1945.34 217.004 1945.02 220.661 L1960.2 220.638 Z" fill="#000000" fill-rule="nonzero" fill-opacity="1" /><path clip-path="url(#clip610)" d="M1990.11 210.985 L1990.11 214.967 Q1988.3 213.971 1986.47 213.485 Q1984.67 212.976 1982.82 212.976 Q1978.67 212.976 1976.38 215.615 Q1974.09 218.231 1974.09 222.976 Q1974.09 227.721 1976.38 230.36 Q1978.67 232.976 1982.82 232.976 Q1984.67 232.976 1986.47 232.49 Q1988.3 231.981 1990.11 230.985 L1990.11 234.92 Q1988.33 235.754 1986.4 236.17 Q1984.51 236.587 1982.35 236.587 Q1976.5 236.587 1973.05 232.906 Q1969.6 229.226 1969.6 222.976 Q1969.6 216.633 1973.07 212.999 Q1976.57 209.365 1982.63 209.365 Q1984.6 209.365 1986.47 209.782 Q1988.35 210.175 1990.11 210.985 Z" fill="#000000" fill-rule="nonzero" fill-opacity="1" /><path clip-path="url(#clip610)" d="M2001.73 202.629 L2001.73 209.99 L2010.5 209.99 L2010.5 213.3 L2001.73 213.3 L2001.73 227.374 Q2001.73 230.545 2002.59 231.448 Q2003.46 232.351 2006.13 232.351 L2010.5 232.351 L2010.5 235.916 L2006.13 235.916 Q2001.2 235.916 1999.32 234.087 Q1997.45 232.235 1997.45 227.374 L1997.45 213.3 L1994.32 213.3 L1994.32 209.99 L1997.45 209.99 L1997.45 202.629 L2001.73 202.629 Z" fill="#000000" fill-rule="nonzero" fill-opacity="1" /><path clip-path="url(#clip610)" d="M2053.35 221.888 L2053.35 223.971 L2033.77 223.971 Q2034.04 228.369 2036.4 230.684 Q2038.79 232.976 2043.02 232.976 Q2045.48 232.976 2047.77 232.374 Q2050.08 231.772 2052.35 230.569 L2052.35 234.596 Q2050.06 235.568 2047.65 236.078 Q2045.25 236.587 2042.77 236.587 Q2036.57 236.587 2032.93 232.976 Q2029.32 229.365 2029.32 223.207 Q2029.32 216.842 2032.75 213.115 Q2036.2 209.365 2042.03 209.365 Q2047.26 209.365 2050.29 212.745 Q2053.35 216.101 2053.35 221.888 M2049.09 220.638 Q2049.04 217.143 2047.12 215.059 Q2045.22 212.976 2042.08 212.976 Q2038.51 212.976 2036.36 214.99 Q2034.23 217.004 2033.9 220.661 L2049.09 220.638 Z" fill="#000000" fill-rule="nonzero" fill-opacity="1" /><path clip-path="url(#clip610)" d="M2057.28 209.99 L2061.8 209.99 L2069.9 231.749 L2078 209.99 L2082.52 209.99 L2072.79 235.916 L2067.01 235.916 L2057.28 209.99 Z" fill="#000000" fill-rule="nonzero" fill-opacity="1" /><path clip-path="url(#clip610)" d="M2110.57 221.888 L2110.57 223.971 L2090.99 223.971 Q2091.27 228.369 2093.63 230.684 Q2096.01 232.976 2100.25 232.976 Q2102.7 232.976 2104.99 232.374 Q2107.31 231.772 2109.58 230.569 L2109.58 234.596 Q2107.28 235.568 2104.88 236.078 Q2102.47 236.587 2099.99 236.587 Q2093.79 236.587 2090.15 232.976 Q2086.54 229.365 2086.54 223.207 Q2086.54 216.842 2089.97 213.115 Q2093.42 209.365 2099.25 209.365 Q2104.48 209.365 2107.52 212.745 Q2110.57 216.101 2110.57 221.888 M2106.31 220.638 Q2106.27 217.143 2104.34 215.059 Q2102.45 212.976 2099.3 212.976 Q2095.73 212.976 2093.58 214.99 Q2091.45 217.004 2091.13 220.661 L2106.31 220.638 Z" fill="#000000" fill-rule="nonzero" fill-opacity="1" /><path clip-path="url(#clip610)" d="M2139.11 220.268 L2139.11 235.916 L2134.85 235.916 L2134.85 220.407 Q2134.85 216.726 2133.42 214.897 Q2131.98 213.069 2129.11 213.069 Q2125.66 213.069 2123.67 215.268 Q2121.68 217.467 2121.68 221.263 L2121.68 235.916 L2117.4 235.916 L2117.4 209.99 L2121.68 209.99 L2121.68 214.018 Q2123.21 211.68 2125.27 210.522 Q2127.35 209.365 2130.06 209.365 Q2134.53 209.365 2136.82 212.143 Q2139.11 214.897 2139.11 220.268 Z" fill="#000000" fill-rule="nonzero" fill-opacity="1" /><path clip-path="url(#clip610)" d="M2151.82 202.629 L2151.82 209.99 L2160.59 209.99 L2160.59 213.3 L2151.82 213.3 L2151.82 227.374 Q2151.82 230.545 2152.68 231.448 Q2153.56 232.351 2156.22 232.351 L2160.59 232.351 L2160.59 235.916 L2156.22 235.916 Q2151.29 235.916 2149.41 234.087 Q2147.54 232.235 2147.54 227.374 L2147.54 213.3 L2144.41 213.3 L2144.41 209.99 L2147.54 209.99 L2147.54 202.629 L2151.82 202.629 Z" fill="#000000" fill-rule="nonzero" fill-opacity="1" /><path clip-path="url(#clip610)" d="M2182.72 210.754 L2182.72 214.782 Q2180.92 213.856 2178.97 213.393 Q2177.03 212.93 2174.95 212.93 Q2171.77 212.93 2170.18 213.902 Q2168.6 214.874 2168.6 216.819 Q2168.6 218.3 2169.74 219.157 Q2170.87 219.99 2174.3 220.754 L2175.76 221.078 Q2180.29 222.05 2182.19 223.832 Q2184.11 225.592 2184.11 228.763 Q2184.11 232.374 2181.24 234.481 Q2178.39 236.587 2173.39 236.587 Q2171.31 236.587 2169.04 236.17 Q2166.8 235.777 2164.3 234.967 L2164.3 230.569 Q2166.66 231.795 2168.95 232.42 Q2171.24 233.022 2173.49 233.022 Q2176.5 233.022 2178.12 232.004 Q2179.74 230.962 2179.74 229.087 Q2179.74 227.351 2178.56 226.425 Q2177.4 225.499 2173.44 224.643 L2171.96 224.295 Q2168 223.462 2166.24 221.749 Q2164.48 220.013 2164.48 217.004 Q2164.48 213.346 2167.07 211.356 Q2169.67 209.365 2174.44 209.365 Q2176.8 209.365 2178.88 209.712 Q2180.96 210.059 2182.72 210.754 Z" fill="#000000" fill-rule="nonzero" fill-opacity="1" /><polyline clip-path="url(#clip610)" style="stroke:#ff0000; stroke-linecap:round; stroke-linejoin:round; stroke-width:4; stroke-opacity:1; fill:none" points="1671.92,270.476 1817.07,270.476 "/>
<path clip-path="url(#clip610)" d="M1863.51 254.33 L1863.51 258.89 Q1860.85 257.617 1858.49 256.992 Q1856.13 256.367 1853.93 256.367 Q1850.11 256.367 1848.03 257.848 Q1845.97 259.33 1845.97 262.061 Q1845.97 264.353 1847.33 265.534 Q1848.72 266.691 1852.56 267.409 L1855.39 267.987 Q1860.62 268.983 1863.1 271.506 Q1865.6 274.006 1865.6 278.219 Q1865.6 283.242 1862.22 285.834 Q1858.86 288.427 1852.35 288.427 Q1849.9 288.427 1847.12 287.871 Q1844.37 287.316 1841.41 286.228 L1841.41 281.413 Q1844.25 283.01 1846.98 283.821 Q1849.72 284.631 1852.35 284.631 Q1856.36 284.631 1858.53 283.057 Q1860.71 281.483 1860.71 278.566 Q1860.71 276.02 1859.14 274.584 Q1857.59 273.149 1854.02 272.432 L1851.17 271.876 Q1845.94 270.835 1843.6 268.612 Q1841.27 266.39 1841.27 262.432 Q1841.27 257.848 1844.48 255.21 Q1847.72 252.571 1853.4 252.571 Q1855.83 252.571 1858.35 253.011 Q1860.87 253.45 1863.51 254.33 Z" fill="#000000" fill-rule="nonzero" fill-opacity="1" /><path clip-path="url(#clip610)" d="M1876.91 254.469 L1876.91 261.83 L1885.69 261.83 L1885.69 265.14 L1876.91 265.14 L1876.91 279.214 Q1876.91 282.385 1877.77 283.288 Q1878.65 284.191 1881.31 284.191 L1885.69 284.191 L1885.69 287.756 L1881.31 287.756 Q1876.38 287.756 1874.51 285.927 Q1872.63 284.075 1872.63 279.214 L1872.63 265.14 L1869.51 265.14 L1869.51 261.83 L1872.63 261.83 L1872.63 254.469 L1876.91 254.469 Z" fill="#000000" fill-rule="nonzero" fill-opacity="1" /><path clip-path="url(#clip610)" d="M1901.34 264.816 Q1897.91 264.816 1895.92 267.501 Q1893.93 270.163 1893.93 274.816 Q1893.93 279.469 1895.9 282.154 Q1897.89 284.816 1901.34 284.816 Q1904.74 284.816 1906.73 282.131 Q1908.72 279.446 1908.72 274.816 Q1908.72 270.21 1906.73 267.524 Q1904.74 264.816 1901.34 264.816 M1901.34 261.205 Q1906.89 261.205 1910.06 264.816 Q1913.23 268.427 1913.23 274.816 Q1913.23 281.182 1910.06 284.816 Q1906.89 288.427 1901.34 288.427 Q1895.76 288.427 1892.59 284.816 Q1889.44 281.182 1889.44 274.816 Q1889.44 268.427 1892.59 264.816 Q1895.76 261.205 1901.34 261.205 Z" fill="#000000" fill-rule="nonzero" fill-opacity="1" /><path clip-path="url(#clip610)" d="M1938.95 262.825 L1938.95 266.807 Q1937.15 265.811 1935.32 265.325 Q1933.51 264.816 1931.66 264.816 Q1927.52 264.816 1925.22 267.455 Q1922.93 270.071 1922.93 274.816 Q1922.93 279.561 1925.22 282.2 Q1927.52 284.816 1931.66 284.816 Q1933.51 284.816 1935.32 284.33 Q1937.15 283.821 1938.95 282.825 L1938.95 286.76 Q1937.17 287.594 1935.25 288.01 Q1933.35 288.427 1931.2 288.427 Q1925.34 288.427 1921.89 284.746 Q1918.44 281.066 1918.44 274.816 Q1918.44 268.473 1921.91 264.839 Q1925.41 261.205 1931.47 261.205 Q1933.44 261.205 1935.32 261.622 Q1937.19 262.015 1938.95 262.825 Z" fill="#000000" fill-rule="nonzero" fill-opacity="1" /><path clip-path="url(#clip610)" d="M1967.91 272.108 L1967.91 287.756 L1963.65 287.756 L1963.65 272.247 Q1963.65 268.566 1962.21 266.737 Q1960.78 264.909 1957.91 264.909 Q1954.46 264.909 1952.47 267.108 Q1950.48 269.307 1950.48 273.103 L1950.48 287.756 L1946.2 287.756 L1946.2 251.737 L1950.48 251.737 L1950.48 265.858 Q1952.01 263.52 1954.07 262.362 Q1956.15 261.205 1958.86 261.205 Q1963.33 261.205 1965.62 263.983 Q1967.91 266.737 1967.91 272.108 Z" fill="#000000" fill-rule="nonzero" fill-opacity="1" /><path clip-path="url(#clip610)" d="M1988.19 274.723 Q1983.03 274.723 1981.03 275.904 Q1979.04 277.084 1979.04 279.932 Q1979.04 282.2 1980.53 283.543 Q1982.03 284.862 1984.6 284.862 Q1988.14 284.862 1990.27 282.362 Q1992.42 279.839 1992.42 275.672 L1992.42 274.723 L1988.19 274.723 M1996.68 272.964 L1996.68 287.756 L1992.42 287.756 L1992.42 283.821 Q1990.96 286.182 1988.79 287.316 Q1986.61 288.427 1983.46 288.427 Q1979.48 288.427 1977.12 286.205 Q1974.78 283.959 1974.78 280.209 Q1974.78 275.834 1977.7 273.612 Q1980.64 271.39 1986.45 271.39 L1992.42 271.39 L1992.42 270.973 Q1992.42 268.034 1990.48 266.436 Q1988.56 264.816 1985.06 264.816 Q1982.84 264.816 1980.73 265.348 Q1978.63 265.881 1976.68 266.946 L1976.68 263.01 Q1979.02 262.108 1981.22 261.668 Q1983.42 261.205 1985.5 261.205 Q1991.13 261.205 1993.9 264.122 Q1996.68 267.038 1996.68 272.964 Z" fill="#000000" fill-rule="nonzero" fill-opacity="1" /><path clip-path="url(#clip610)" d="M2021.98 262.594 L2021.98 266.622 Q2020.18 265.696 2018.23 265.233 Q2016.29 264.77 2014.21 264.77 Q2011.03 264.77 2009.44 265.742 Q2007.86 266.714 2007.86 268.659 Q2007.86 270.14 2009 270.997 Q2010.13 271.83 2013.56 272.594 L2015.02 272.918 Q2019.55 273.89 2021.45 275.672 Q2023.37 277.432 2023.37 280.603 Q2023.37 284.214 2020.5 286.321 Q2017.65 288.427 2012.65 288.427 Q2010.57 288.427 2008.3 288.01 Q2006.06 287.617 2003.56 286.807 L2003.56 282.409 Q2005.92 283.635 2008.21 284.26 Q2010.5 284.862 2012.75 284.862 Q2015.76 284.862 2017.38 283.844 Q2019 282.802 2019 280.927 Q2019 279.191 2017.82 278.265 Q2016.66 277.339 2012.7 276.483 L2011.22 276.135 Q2007.26 275.302 2005.5 273.589 Q2003.74 271.853 2003.74 268.844 Q2003.74 265.186 2006.34 263.196 Q2008.93 261.205 2013.7 261.205 Q2016.06 261.205 2018.14 261.552 Q2020.22 261.899 2021.98 262.594 Z" fill="#000000" fill-rule="nonzero" fill-opacity="1" /><path clip-path="url(#clip610)" d="M2034.37 254.469 L2034.37 261.83 L2043.14 261.83 L2043.14 265.14 L2034.37 265.14 L2034.37 279.214 Q2034.37 282.385 2035.22 283.288 Q2036.1 284.191 2038.77 284.191 L2043.14 284.191 L2043.14 287.756 L2038.77 287.756 Q2033.83 287.756 2031.96 285.927 Q2030.08 284.075 2030.08 279.214 L2030.08 265.14 L2026.96 265.14 L2026.96 261.83 L2030.08 261.83 L2030.08 254.469 L2034.37 254.469 Z" fill="#000000" fill-rule="nonzero" fill-opacity="1" /><path clip-path="url(#clip610)" d="M2048.74 261.83 L2053 261.83 L2053 287.756 L2048.74 287.756 L2048.74 261.83 M2048.74 251.737 L2053 251.737 L2053 257.131 L2048.74 257.131 L2048.74 251.737 Z" fill="#000000" fill-rule="nonzero" fill-opacity="1" /><path clip-path="url(#clip610)" d="M2080.57 262.825 L2080.57 266.807 Q2078.77 265.811 2076.94 265.325 Q2075.13 264.816 2073.28 264.816 Q2069.14 264.816 2066.84 267.455 Q2064.55 270.071 2064.55 274.816 Q2064.55 279.561 2066.84 282.2 Q2069.14 284.816 2073.28 284.816 Q2075.13 284.816 2076.94 284.33 Q2078.77 283.821 2080.57 282.825 L2080.57 286.76 Q2078.79 287.594 2076.87 288.01 Q2074.97 288.427 2072.82 288.427 Q2066.96 288.427 2063.51 284.746 Q2060.06 281.066 2060.06 274.816 Q2060.06 268.473 2063.53 264.839 Q2067.03 261.205 2073.09 261.205 Q2075.06 261.205 2076.94 261.622 Q2078.81 262.015 2080.57 262.825 Z" fill="#000000" fill-rule="nonzero" fill-opacity="1" /><path clip-path="url(#clip610)" d="M2125.22 273.728 L2125.22 275.811 L2105.64 275.811 Q2105.92 280.209 2108.28 282.524 Q2110.66 284.816 2114.9 284.816 Q2117.35 284.816 2119.64 284.214 Q2121.96 283.612 2124.23 282.409 L2124.23 286.436 Q2121.94 287.408 2119.53 287.918 Q2117.12 288.427 2114.64 288.427 Q2108.44 288.427 2104.81 284.816 Q2101.2 281.205 2101.2 275.047 Q2101.2 268.682 2104.62 264.955 Q2108.07 261.205 2113.9 261.205 Q2119.14 261.205 2122.17 264.585 Q2125.22 267.941 2125.22 273.728 M2120.96 272.478 Q2120.92 268.983 2119 266.899 Q2117.1 264.816 2113.95 264.816 Q2110.39 264.816 2108.23 266.83 Q2106.1 268.844 2105.78 272.501 L2120.96 272.478 Z" fill="#000000" fill-rule="nonzero" fill-opacity="1" /><path clip-path="url(#clip610)" d="M2129.16 261.83 L2133.67 261.83 L2141.77 283.589 L2149.88 261.83 L2154.39 261.83 L2144.67 287.756 L2138.88 287.756 L2129.16 261.83 Z" fill="#000000" fill-rule="nonzero" fill-opacity="1" /><path clip-path="url(#clip610)" d="M2182.45 273.728 L2182.45 275.811 L2162.86 275.811 Q2163.14 280.209 2165.5 282.524 Q2167.89 284.816 2172.12 284.816 Q2174.57 284.816 2176.87 284.214 Q2179.18 283.612 2181.45 282.409 L2181.45 286.436 Q2179.16 287.408 2176.75 287.918 Q2174.34 288.427 2171.87 288.427 Q2165.66 288.427 2162.03 284.816 Q2158.42 281.205 2158.42 275.047 Q2158.42 268.682 2161.84 264.955 Q2165.29 261.205 2171.13 261.205 Q2176.36 261.205 2179.39 264.585 Q2182.45 267.941 2182.45 273.728 M2178.19 272.478 Q2178.14 268.983 2176.22 266.899 Q2174.32 264.816 2171.17 264.816 Q2167.61 264.816 2165.45 266.83 Q2163.33 268.844 2163 272.501 L2178.19 272.478 Z" fill="#000000" fill-rule="nonzero" fill-opacity="1" /><path clip-path="url(#clip610)" d="M2210.99 272.108 L2210.99 287.756 L2206.73 287.756 L2206.73 272.247 Q2206.73 268.566 2205.29 266.737 Q2203.86 264.909 2200.99 264.909 Q2197.54 264.909 2195.55 267.108 Q2193.56 269.307 2193.56 273.103 L2193.56 287.756 L2189.27 287.756 L2189.27 261.83 L2193.56 261.83 L2193.56 265.858 Q2195.08 263.52 2197.14 262.362 Q2199.23 261.205 2201.94 261.205 Q2206.4 261.205 2208.7 263.983 Q2210.99 266.737 2210.99 272.108 Z" fill="#000000" fill-rule="nonzero" fill-opacity="1" /><path clip-path="url(#clip610)" d="M2223.7 254.469 L2223.7 261.83 L2232.47 261.83 L2232.47 265.14 L2223.7 265.14 L2223.7 279.214 Q2223.7 282.385 2224.55 283.288 Q2225.43 284.191 2228.09 284.191 L2232.47 284.191 L2232.47 287.756 L2228.09 287.756 Q2223.16 287.756 2221.29 285.927 Q2219.41 284.075 2219.41 279.214 L2219.41 265.14 L2216.29 265.14 L2216.29 261.83 L2219.41 261.83 L2219.41 254.469 L2223.7 254.469 Z" fill="#000000" fill-rule="nonzero" fill-opacity="1" /><path clip-path="url(#clip610)" d="M2254.6 262.594 L2254.6 266.622 Q2252.79 265.696 2250.85 265.233 Q2248.9 264.77 2246.82 264.77 Q2243.65 264.77 2242.05 265.742 Q2240.48 266.714 2240.48 268.659 Q2240.48 270.14 2241.61 270.997 Q2242.75 271.83 2246.17 272.594 L2247.63 272.918 Q2252.17 273.89 2254.07 275.672 Q2255.99 277.432 2255.99 280.603 Q2255.99 284.214 2253.12 286.321 Q2250.27 288.427 2245.27 288.427 Q2243.19 288.427 2240.92 288.01 Q2238.67 287.617 2236.17 286.807 L2236.17 282.409 Q2238.53 283.635 2240.82 284.26 Q2243.12 284.862 2245.36 284.862 Q2248.37 284.862 2249.99 283.844 Q2251.61 282.802 2251.61 280.927 Q2251.61 279.191 2250.43 278.265 Q2249.27 277.339 2245.32 276.483 L2243.83 276.135 Q2239.88 275.302 2238.12 273.589 Q2236.36 271.853 2236.36 268.844 Q2236.36 265.186 2238.95 263.196 Q2241.54 261.205 2246.31 261.205 Q2248.67 261.205 2250.76 261.552 Q2252.84 261.899 2254.6 262.594 Z" fill="#000000" fill-rule="nonzero" fill-opacity="1" /></svg>
