<?xml version="1.0" encoding="utf-8"?>
<svg xmlns="http://www.w3.org/2000/svg" xmlns:xlink="http://www.w3.org/1999/xlink" width="600" height="400" viewBox="0 0 2400 1600">
<defs>
  <clipPath id="clip520">
    <rect x="0" y="0" width="2400" height="1600"/>
  </clipPath>
</defs>
<path clip-path="url(#clip520)" d="M0 1600 L2400 1600 L2400 0 L0 0  Z" fill="#ffffff" fill-rule="evenodd" fill-opacity="1"/>
<defs>
  <clipPath id="clip521">
    <rect x="480" y="0" width="1681" height="1600"/>
  </clipPath>
</defs>
<path clip-path="url(#clip520)" d="M265.445 1423.18 L2352.76 1423.18 L2352.76 123.472 L265.445 123.472  Z" fill="#ffffff" fill-rule="evenodd" fill-opacity="1"/>
<defs>
  <clipPath id="clip522">
    <rect x="265" y="123" width="2088" height="1301"/>
  </clipPath>
</defs>
<polyline clip-path="url(#clip522)" style="stroke:#000000; stroke-linecap:round; stroke-linejoin:round; stroke-width:2; stroke-opacity:0.1; fill:none" points="324.52,1423.18 324.52,123.472 "/>
<polyline clip-path="url(#clip522)" style="stroke:#000000; stroke-linecap:round; stroke-linejoin:round; stroke-width:2; stroke-opacity:0.1; fill:none" points="731.371,1423.18 731.371,123.472 "/>
<polyline clip-path="url(#clip522)" style="stroke:#000000; stroke-linecap:round; stroke-linejoin:round; stroke-width:2; stroke-opacity:0.1; fill:none" points="1138.22,1423.18 1138.22,123.472 "/>
<polyline clip-path="url(#clip522)" style="stroke:#000000; stroke-linecap:round; stroke-linejoin:round; stroke-width:2; stroke-opacity:0.1; fill:none" points="1545.07,1423.18 1545.07,123.472 "/>
<polyline clip-path="url(#clip522)" style="stroke:#000000; stroke-linecap:round; stroke-linejoin:round; stroke-width:2; stroke-opacity:0.1; fill:none" points="1951.93,1423.18 1951.93,123.472 "/>
<polyline clip-path="url(#clip522)" style="stroke:#000000; stroke-linecap:round; stroke-linejoin:round; stroke-width:2; stroke-opacity:0.1; fill:none" points="265.445,1386.4 2352.76,1386.4 "/>
<polyline clip-path="url(#clip522)" style="stroke:#000000; stroke-linecap:round; stroke-linejoin:round; stroke-width:2; stroke-opacity:0.1; fill:none" points="265.445,1190.24 2352.76,1190.24 "/>
<polyline clip-path="url(#clip522)" style="stroke:#000000; stroke-linecap:round; stroke-linejoin:round; stroke-width:2; stroke-opacity:0.1; fill:none" points="265.445,994.094 2352.76,994.094 "/>
<polyline clip-path="url(#clip522)" style="stroke:#000000; stroke-linecap:round; stroke-linejoin:round; stroke-width:2; stroke-opacity:0.1; fill:none" points="265.445,797.943 2352.76,797.943 "/>
<polyline clip-path="url(#clip522)" style="stroke:#000000; stroke-linecap:round; stroke-linejoin:round; stroke-width:2; stroke-opacity:0.1; fill:none" points="265.445,601.792 2352.76,601.792 "/>
<polyline clip-path="url(#clip522)" style="stroke:#000000; stroke-linecap:round; stroke-linejoin:round; stroke-width:2; stroke-opacity:0.1; fill:none" points="265.445,405.641 2352.76,405.641 "/>
<polyline clip-path="url(#clip522)" style="stroke:#000000; stroke-linecap:round; stroke-linejoin:round; stroke-width:2; stroke-opacity:0.1; fill:none" points="265.445,209.49 2352.76,209.49 "/>
<polyline clip-path="url(#clip520)" style="stroke:#000000; stroke-linecap:round; stroke-linejoin:round; stroke-width:4; stroke-opacity:1; fill:none" points="265.445,1423.18 2352.76,1423.18 "/>
<polyline clip-path="url(#clip520)" style="stroke:#000000; stroke-linecap:round; stroke-linejoin:round; stroke-width:4; stroke-opacity:1; fill:none" points="324.52,1423.18 324.52,1404.28 "/>
<polyline clip-path="url(#clip520)" style="stroke:#000000; stroke-linecap:round; stroke-linejoin:round; stroke-width:4; stroke-opacity:1; fill:none" points="731.371,1423.18 731.371,1404.28 "/>
<polyline clip-path="url(#clip520)" style="stroke:#000000; stroke-linecap:round; stroke-linejoin:round; stroke-width:4; stroke-opacity:1; fill:none" points="1138.22,1423.18 1138.22,1404.28 "/>
<polyline clip-path="url(#clip520)" style="stroke:#000000; stroke-linecap:round; stroke-linejoin:round; stroke-width:4; stroke-opacity:1; fill:none" points="1545.07,1423.18 1545.07,1404.28 "/>
<polyline clip-path="url(#clip520)" style="stroke:#000000; stroke-linecap:round; stroke-linejoin:round; stroke-width:4; stroke-opacity:1; fill:none" points="1951.93,1423.18 1951.93,1404.28 "/>
<path clip-path="url(#clip520)" d="M324.52 1454.1 Q320.908 1454.1 319.08 1457.66 Q317.274 1461.2 317.274 1468.33 Q317.274 1475.44 319.08 1479.01 Q320.908 1482.55 324.52 1482.55 Q328.154 1482.55 329.959 1479.01 Q331.788 1475.44 331.788 1468.33 Q331.788 1461.2 329.959 1457.66 Q328.154 1454.1 324.52 1454.1 M324.52 1450.39 Q330.33 1450.39 333.385 1455 Q336.464 1459.58 336.464 1468.33 Q336.464 1477.06 333.385 1481.67 Q330.33 1486.25 324.52 1486.25 Q318.709 1486.25 315.631 1481.67 Q312.575 1477.06 312.575 1468.33 Q312.575 1459.58 315.631 1455 Q318.709 1450.39 324.52 1450.39 Z" fill="#000000" fill-rule="nonzero" fill-opacity="1" /><path clip-path="url(#clip520)" d="M706.07 1451.02 L724.427 1451.02 L724.427 1454.96 L710.353 1454.96 L710.353 1463.43 Q711.371 1463.08 712.39 1462.92 Q713.408 1462.73 714.427 1462.73 Q720.214 1462.73 723.593 1465.9 Q726.973 1469.08 726.973 1474.49 Q726.973 1480.07 723.501 1483.17 Q720.029 1486.25 713.709 1486.25 Q711.533 1486.25 709.265 1485.88 Q707.019 1485.51 704.612 1484.77 L704.612 1480.07 Q706.695 1481.2 708.918 1481.76 Q711.14 1482.32 713.617 1482.32 Q717.621 1482.32 719.959 1480.21 Q722.297 1478.1 722.297 1474.49 Q722.297 1470.88 719.959 1468.77 Q717.621 1466.67 713.617 1466.67 Q711.742 1466.67 709.867 1467.08 Q708.015 1467.5 706.07 1468.38 L706.07 1451.02 Z" fill="#000000" fill-rule="nonzero" fill-opacity="1" /><path clip-path="url(#clip520)" d="M746.186 1454.1 Q742.575 1454.1 740.746 1457.66 Q738.941 1461.2 738.941 1468.33 Q738.941 1475.44 740.746 1479.01 Q742.575 1482.55 746.186 1482.55 Q749.82 1482.55 751.626 1479.01 Q753.454 1475.44 753.454 1468.33 Q753.454 1461.2 751.626 1457.66 Q749.82 1454.1 746.186 1454.1 M746.186 1450.39 Q751.996 1450.39 755.052 1455 Q758.13 1459.58 758.13 1468.33 Q758.13 1477.06 755.052 1481.67 Q751.996 1486.25 746.186 1486.25 Q740.376 1486.25 737.297 1481.67 Q734.241 1477.06 734.241 1468.33 Q734.241 1459.58 737.297 1455 Q740.376 1450.39 746.186 1450.39 Z" fill="#000000" fill-rule="nonzero" fill-opacity="1" /><path clip-path="url(#clip520)" d="M1097.83 1481.64 L1105.47 1481.64 L1105.47 1455.28 L1097.16 1456.95 L1097.16 1452.69 L1105.42 1451.02 L1110.1 1451.02 L1110.1 1481.64 L1117.74 1481.64 L1117.74 1485.58 L1097.83 1485.58 L1097.83 1481.64 Z" fill="#000000" fill-rule="nonzero" fill-opacity="1" /><path clip-path="url(#clip520)" d="M1137.18 1454.1 Q1133.57 1454.1 1131.74 1457.66 Q1129.94 1461.2 1129.94 1468.33 Q1129.94 1475.44 1131.74 1479.01 Q1133.57 1482.55 1137.18 1482.55 Q1140.82 1482.55 1142.62 1479.01 Q1144.45 1475.44 1144.45 1468.33 Q1144.45 1461.2 1142.62 1457.66 Q1140.82 1454.1 1137.18 1454.1 M1137.18 1450.39 Q1142.99 1450.39 1146.05 1455 Q1149.13 1459.58 1149.13 1468.33 Q1149.13 1477.06 1146.05 1481.67 Q1142.99 1486.25 1137.18 1486.25 Q1131.37 1486.25 1128.29 1481.67 Q1125.24 1477.06 1125.24 1468.33 Q1125.24 1459.58 1128.29 1455 Q1131.37 1450.39 1137.18 1450.39 Z" fill="#000000" fill-rule="nonzero" fill-opacity="1" /><path clip-path="url(#clip520)" d="M1167.34 1454.1 Q1163.73 1454.1 1161.9 1457.66 Q1160.1 1461.2 1160.1 1468.33 Q1160.1 1475.44 1161.9 1479.01 Q1163.73 1482.55 1167.34 1482.55 Q1170.98 1482.55 1172.78 1479.01 Q1174.61 1475.44 1174.61 1468.33 Q1174.61 1461.2 1172.78 1457.66 Q1170.98 1454.1 1167.34 1454.1 M1167.34 1450.39 Q1173.15 1450.39 1176.21 1455 Q1179.29 1459.58 1179.29 1468.33 Q1179.29 1477.06 1176.21 1481.67 Q1173.15 1486.25 1167.34 1486.25 Q1161.53 1486.25 1158.45 1481.67 Q1155.4 1477.06 1155.4 1468.33 Q1155.4 1459.58 1158.45 1455 Q1161.53 1450.39 1167.34 1450.39 Z" fill="#000000" fill-rule="nonzero" fill-opacity="1" /><path clip-path="url(#clip520)" d="M1504.68 1481.64 L1512.32 1481.64 L1512.32 1455.28 L1504.01 1456.95 L1504.01 1452.69 L1512.27 1451.02 L1516.95 1451.02 L1516.95 1481.64 L1524.59 1481.64 L1524.59 1485.58 L1504.68 1485.58 L1504.68 1481.64 Z" fill="#000000" fill-rule="nonzero" fill-opacity="1" /><path clip-path="url(#clip520)" d="M1534.08 1451.02 L1552.44 1451.02 L1552.44 1454.96 L1538.36 1454.96 L1538.36 1463.43 Q1539.38 1463.08 1540.4 1462.92 Q1541.42 1462.73 1542.44 1462.73 Q1548.22 1462.73 1551.6 1465.9 Q1554.98 1469.08 1554.98 1474.49 Q1554.98 1480.07 1551.51 1483.17 Q1548.04 1486.25 1541.72 1486.25 Q1539.54 1486.25 1537.27 1485.88 Q1535.03 1485.51 1532.62 1484.77 L1532.62 1480.07 Q1534.7 1481.2 1536.93 1481.76 Q1539.15 1482.32 1541.63 1482.32 Q1545.63 1482.32 1547.97 1480.21 Q1550.31 1478.1 1550.31 1474.49 Q1550.31 1470.88 1547.97 1468.77 Q1545.63 1466.67 1541.63 1466.67 Q1539.75 1466.67 1537.88 1467.08 Q1536.02 1467.5 1534.08 1468.38 L1534.08 1451.02 Z" fill="#000000" fill-rule="nonzero" fill-opacity="1" /><path clip-path="url(#clip520)" d="M1574.19 1454.1 Q1570.58 1454.1 1568.75 1457.66 Q1566.95 1461.2 1566.95 1468.33 Q1566.95 1475.44 1568.75 1479.01 Q1570.58 1482.55 1574.19 1482.55 Q1577.83 1482.55 1579.63 1479.01 Q1581.46 1475.44 1581.46 1468.33 Q1581.46 1461.2 1579.63 1457.66 Q1577.83 1454.1 1574.19 1454.1 M1574.19 1450.39 Q1580 1450.39 1583.06 1455 Q1586.14 1459.58 1586.14 1468.33 Q1586.14 1477.06 1583.06 1481.67 Q1580 1486.25 1574.19 1486.25 Q1568.38 1486.25 1565.31 1481.67 Q1562.25 1477.06 1562.25 1468.33 Q1562.25 1459.58 1565.31 1455 Q1568.38 1450.39 1574.19 1450.39 Z" fill="#000000" fill-rule="nonzero" fill-opacity="1" /><path clip-path="url(#clip520)" d="M1915.62 1481.64 L1931.94 1481.64 L1931.94 1485.58 L1909.99 1485.58 L1909.99 1481.64 Q1912.66 1478.89 1917.24 1474.26 Q1921.84 1469.61 1923.03 1468.27 Q1925.27 1465.74 1926.15 1464.01 Q1927.05 1462.25 1927.05 1460.56 Q1927.05 1457.8 1925.11 1456.07 Q1923.19 1454.33 1920.09 1454.33 Q1917.89 1454.33 1915.43 1455.09 Q1913 1455.86 1910.22 1457.41 L1910.22 1452.69 Q1913.05 1451.55 1915.5 1450.97 Q1917.96 1450.39 1919.99 1450.39 Q1925.36 1450.39 1928.56 1453.08 Q1931.75 1455.77 1931.75 1460.26 Q1931.75 1462.39 1930.94 1464.31 Q1930.16 1466.2 1928.05 1468.8 Q1927.47 1469.47 1924.37 1472.69 Q1921.27 1475.88 1915.62 1481.64 Z" fill="#000000" fill-rule="nonzero" fill-opacity="1" /><path clip-path="url(#clip520)" d="M1951.75 1454.1 Q1948.14 1454.1 1946.31 1457.66 Q1944.51 1461.2 1944.51 1468.33 Q1944.51 1475.44 1946.31 1479.01 Q1948.14 1482.55 1951.75 1482.55 Q1955.39 1482.55 1957.19 1479.01 Q1959.02 1475.44 1959.02 1468.33 Q1959.02 1461.2 1957.19 1457.66 Q1955.39 1454.1 1951.75 1454.1 M1951.75 1450.39 Q1957.56 1450.39 1960.62 1455 Q1963.7 1459.58 1963.7 1468.33 Q1963.7 1477.06 1960.62 1481.67 Q1957.56 1486.25 1951.75 1486.25 Q1945.94 1486.25 1942.86 1481.67 Q1939.81 1477.06 1939.81 1468.33 Q1939.81 1459.58 1942.86 1455 Q1945.94 1450.39 1951.75 1450.39 Z" fill="#000000" fill-rule="nonzero" fill-opacity="1" /><path clip-path="url(#clip520)" d="M1981.91 1454.1 Q1978.3 1454.1 1976.47 1457.66 Q1974.67 1461.2 1974.67 1468.33 Q1974.67 1475.44 1976.47 1479.01 Q1978.3 1482.55 1981.91 1482.55 Q1985.55 1482.55 1987.35 1479.01 Q1989.18 1475.44 1989.18 1468.33 Q1989.18 1461.2 1987.35 1457.66 Q1985.55 1454.1 1981.91 1454.1 M1981.91 1450.39 Q1987.72 1450.39 1990.78 1455 Q1993.86 1459.58 1993.86 1468.33 Q1993.86 1477.06 1990.78 1481.67 Q1987.72 1486.25 1981.91 1486.25 Q1976.1 1486.25 1973.03 1481.67 Q1969.97 1477.06 1969.97 1468.33 Q1969.97 1459.58 1973.03 1455 Q1976.1 1450.39 1981.91 1450.39 Z" fill="#000000" fill-rule="nonzero" fill-opacity="1" /><path clip-path="url(#clip520)" d="M811.175 1524.18 L811.175 1530.96 Q807.928 1527.94 804.236 1526.44 Q800.576 1524.95 796.438 1524.95 Q788.29 1524.95 783.961 1529.95 Q779.633 1534.91 779.633 1544.33 Q779.633 1553.72 783.961 1558.72 Q788.29 1563.68 796.438 1563.68 Q800.576 1563.68 804.236 1562.19 Q807.928 1560.69 811.175 1557.67 L811.175 1564.38 Q807.801 1566.68 804.013 1567.82 Q800.258 1568.97 796.056 1568.97 Q785.266 1568.97 779.06 1562.38 Q772.853 1555.76 772.853 1544.33 Q772.853 1532.87 779.06 1526.28 Q785.266 1519.66 796.056 1519.66 Q800.321 1519.66 804.077 1520.81 Q807.865 1521.92 811.175 1524.18 Z" fill="#000000" fill-rule="nonzero" fill-opacity="1" /><path clip-path="url(#clip520)" d="M837.051 1550.12 Q829.954 1550.12 827.216 1551.75 Q824.479 1553.37 824.479 1557.29 Q824.479 1560.4 826.516 1562.25 Q828.585 1564.07 832.118 1564.07 Q836.988 1564.07 839.916 1560.63 Q842.876 1557.16 842.876 1551.43 L842.876 1550.12 L837.051 1550.12 M848.732 1547.71 L848.732 1568.04 L842.876 1568.04 L842.876 1562.63 Q840.871 1565.88 837.879 1567.44 Q834.887 1568.97 830.558 1568.97 Q825.084 1568.97 821.837 1565.91 Q818.623 1562.82 818.623 1557.67 Q818.623 1551.65 822.633 1548.6 Q826.675 1545.54 834.664 1545.54 L842.876 1545.54 L842.876 1544.97 Q842.876 1540.93 840.202 1538.73 Q837.561 1536.5 832.754 1536.5 Q829.699 1536.5 826.803 1537.23 Q823.906 1537.97 821.233 1539.43 L821.233 1534.02 Q824.447 1532.78 827.471 1532.17 Q830.495 1531.54 833.359 1531.54 Q841.094 1531.54 844.913 1535.55 Q848.732 1539.56 848.732 1547.71 Z" fill="#000000" fill-rule="nonzero" fill-opacity="1" /><path clip-path="url(#clip520)" d="M860.795 1518.52 L866.652 1518.52 L866.652 1568.04 L860.795 1568.04 L860.795 1518.52 Z" fill="#000000" fill-rule="nonzero" fill-opacity="1" /><path clip-path="url(#clip520)" d="M904.56 1533.76 L904.56 1539.24 Q902.077 1537.87 899.563 1537.2 Q897.08 1536.5 894.534 1536.5 Q888.836 1536.5 885.685 1540.13 Q882.534 1543.73 882.534 1550.25 Q882.534 1556.78 885.685 1560.4 Q888.836 1564 894.534 1564 Q897.08 1564 899.563 1563.33 Q902.077 1562.63 904.56 1561.26 L904.56 1566.68 Q902.109 1567.82 899.467 1568.39 Q896.857 1568.97 893.897 1568.97 Q885.844 1568.97 881.102 1563.91 Q876.36 1558.85 876.36 1550.25 Q876.36 1541.53 881.134 1536.53 Q885.94 1531.54 894.279 1531.54 Q896.984 1531.54 899.563 1532.11 Q902.141 1532.65 904.56 1533.76 Z" fill="#000000" fill-rule="nonzero" fill-opacity="1" /><path clip-path="url(#clip520)" d="M914.14 1553.98 L914.14 1532.4 L919.996 1532.4 L919.996 1553.75 Q919.996 1558.81 921.97 1561.36 Q923.943 1563.87 927.89 1563.87 Q932.632 1563.87 935.37 1560.85 Q938.139 1557.83 938.139 1552.61 L938.139 1532.4 L943.995 1532.4 L943.995 1568.04 L938.139 1568.04 L938.139 1562.57 Q936.006 1565.82 933.174 1567.41 Q930.373 1568.97 926.649 1568.97 Q920.506 1568.97 917.323 1565.15 Q914.14 1561.33 914.14 1553.98 M928.877 1531.54 L928.877 1531.54 Z" fill="#000000" fill-rule="nonzero" fill-opacity="1" /><path clip-path="url(#clip520)" d="M956.058 1518.52 L961.915 1518.52 L961.915 1568.04 L956.058 1568.04 L956.058 1518.52 Z" fill="#000000" fill-rule="nonzero" fill-opacity="1" /><path clip-path="url(#clip520)" d="M990.369 1550.12 Q983.272 1550.12 980.534 1551.75 Q977.797 1553.37 977.797 1557.29 Q977.797 1560.4 979.834 1562.25 Q981.903 1564.07 985.436 1564.07 Q990.306 1564.07 993.234 1560.63 Q996.194 1557.16 996.194 1551.43 L996.194 1550.12 L990.369 1550.12 M1002.05 1547.71 L1002.05 1568.04 L996.194 1568.04 L996.194 1562.63 Q994.189 1565.88 991.197 1567.44 Q988.205 1568.97 983.876 1568.97 Q978.402 1568.97 975.155 1565.91 Q971.941 1562.82 971.941 1557.67 Q971.941 1551.65 975.951 1548.6 Q979.993 1545.54 987.982 1545.54 L996.194 1545.54 L996.194 1544.97 Q996.194 1540.93 993.52 1538.73 Q990.879 1536.5 986.073 1536.5 Q983.017 1536.5 980.121 1537.23 Q977.224 1537.97 974.551 1539.43 L974.551 1534.02 Q977.765 1532.78 980.789 1532.17 Q983.813 1531.54 986.677 1531.54 Q994.412 1531.54 998.231 1535.55 Q1002.05 1539.56 1002.05 1547.71 Z" fill="#000000" fill-rule="nonzero" fill-opacity="1" /><path clip-path="url(#clip520)" d="M1019.91 1522.27 L1019.91 1532.4 L1031.97 1532.4 L1031.97 1536.95 L1019.91 1536.95 L1019.91 1556.3 Q1019.91 1560.66 1021.08 1561.9 Q1022.29 1563.14 1025.95 1563.14 L1031.97 1563.14 L1031.97 1568.04 L1025.95 1568.04 Q1019.17 1568.04 1016.6 1565.53 Q1014.02 1562.98 1014.02 1556.3 L1014.02 1536.95 L1009.72 1536.95 L1009.72 1532.4 L1014.02 1532.4 L1014.02 1522.27 L1019.91 1522.27 Z" fill="#000000" fill-rule="nonzero" fill-opacity="1" /><path clip-path="url(#clip520)" d="M1070.16 1548.76 L1070.16 1551.62 L1043.24 1551.62 Q1043.62 1557.67 1046.87 1560.85 Q1050.14 1564 1055.97 1564 Q1059.34 1564 1062.49 1563.17 Q1065.68 1562.35 1068.79 1560.69 L1068.79 1566.23 Q1065.64 1567.57 1062.33 1568.27 Q1059.02 1568.97 1055.62 1568.97 Q1047.09 1568.97 1042.09 1564 Q1037.13 1559.04 1037.13 1550.57 Q1037.13 1541.82 1041.84 1536.69 Q1046.58 1531.54 1054.6 1531.54 Q1061.79 1531.54 1065.96 1536.18 Q1070.16 1540.8 1070.16 1548.76 M1064.31 1547.04 Q1064.24 1542.23 1061.6 1539.37 Q1058.99 1536.5 1054.66 1536.5 Q1049.76 1536.5 1046.8 1539.27 Q1043.87 1542.04 1043.43 1547.07 L1064.31 1547.04 Z" fill="#000000" fill-rule="nonzero" fill-opacity="1" /><path clip-path="url(#clip520)" d="M1103.23 1537.81 L1103.23 1518.52 L1109.09 1518.52 L1109.09 1568.04 L1103.23 1568.04 L1103.23 1562.7 Q1101.39 1565.88 1098.55 1567.44 Q1095.75 1568.97 1091.81 1568.97 Q1085.35 1568.97 1081.27 1563.81 Q1077.23 1558.65 1077.23 1550.25 Q1077.23 1541.85 1081.27 1536.69 Q1085.35 1531.54 1091.81 1531.54 Q1095.75 1531.54 1098.55 1533.1 Q1101.39 1534.62 1103.23 1537.81 M1083.28 1550.25 Q1083.28 1556.71 1085.92 1560.4 Q1088.59 1564.07 1093.24 1564.07 Q1097.89 1564.07 1100.56 1560.4 Q1103.23 1556.71 1103.23 1550.25 Q1103.23 1543.79 1100.56 1540.13 Q1097.89 1536.44 1093.24 1536.44 Q1088.59 1536.44 1085.92 1540.13 Q1083.28 1543.79 1083.28 1550.25 Z" fill="#000000" fill-rule="nonzero" fill-opacity="1" /><path clip-path="url(#clip520)" d="M1171.51 1546.53 L1171.51 1568.04 L1165.65 1568.04 L1165.65 1546.72 Q1165.65 1541.66 1163.68 1539.14 Q1161.7 1536.63 1157.76 1536.63 Q1153.01 1536.63 1150.28 1539.65 Q1147.54 1542.68 1147.54 1547.9 L1147.54 1568.04 L1141.65 1568.04 L1141.65 1532.4 L1147.54 1532.4 L1147.54 1537.93 Q1149.64 1534.72 1152.47 1533.13 Q1155.34 1531.54 1159.06 1531.54 Q1165.2 1531.54 1168.35 1535.36 Q1171.51 1539.14 1171.51 1546.53 Z" fill="#000000" fill-rule="nonzero" fill-opacity="1" /><path clip-path="url(#clip520)" d="M1213.68 1548.76 L1213.68 1551.62 L1186.75 1551.62 Q1187.13 1557.67 1190.38 1560.85 Q1193.66 1564 1199.48 1564 Q1202.86 1564 1206.01 1563.17 Q1209.19 1562.35 1212.31 1560.69 L1212.31 1566.23 Q1209.16 1567.57 1205.85 1568.27 Q1202.54 1568.97 1199.13 1568.97 Q1190.6 1568.97 1185.61 1564 Q1180.64 1559.04 1180.64 1550.57 Q1180.64 1541.82 1185.35 1536.69 Q1190.09 1531.54 1198.11 1531.54 Q1205.31 1531.54 1209.48 1536.18 Q1213.68 1540.8 1213.68 1548.76 M1207.82 1547.04 Q1207.76 1542.23 1205.12 1539.37 Q1202.51 1536.5 1198.18 1536.5 Q1193.28 1536.5 1190.32 1539.27 Q1187.39 1542.04 1186.94 1547.07 L1207.82 1547.04 Z" fill="#000000" fill-rule="nonzero" fill-opacity="1" /><path clip-path="url(#clip520)" d="M1222.69 1553.98 L1222.69 1532.4 L1228.54 1532.4 L1228.54 1553.75 Q1228.54 1558.81 1230.52 1561.36 Q1232.49 1563.87 1236.44 1563.87 Q1241.18 1563.87 1243.92 1560.85 Q1246.68 1557.83 1246.68 1552.61 L1246.68 1532.4 L1252.54 1532.4 L1252.54 1568.04 L1246.68 1568.04 L1246.68 1562.57 Q1244.55 1565.82 1241.72 1567.41 Q1238.92 1568.97 1235.19 1568.97 Q1229.05 1568.97 1225.87 1565.15 Q1222.69 1561.33 1222.69 1553.98 M1237.42 1531.54 L1237.42 1531.54 Z" fill="#000000" fill-rule="nonzero" fill-opacity="1" /><path clip-path="url(#clip520)" d="M1270.4 1522.27 L1270.4 1532.4 L1282.46 1532.4 L1282.46 1536.95 L1270.4 1536.95 L1270.4 1556.3 Q1270.4 1560.66 1271.57 1561.9 Q1272.78 1563.14 1276.44 1563.14 L1282.46 1563.14 L1282.46 1568.04 L1276.44 1568.04 Q1269.66 1568.04 1267.09 1565.53 Q1264.51 1562.98 1264.51 1556.3 L1264.51 1536.95 L1260.21 1536.95 L1260.21 1532.4 L1264.51 1532.4 L1264.51 1522.27 L1270.4 1522.27 Z" fill="#000000" fill-rule="nonzero" fill-opacity="1" /><path clip-path="url(#clip520)" d="M1310.82 1537.87 Q1309.83 1537.3 1308.65 1537.04 Q1307.51 1536.76 1306.11 1536.76 Q1301.14 1536.76 1298.47 1540 Q1295.83 1543.22 1295.83 1549.27 L1295.83 1568.04 L1289.94 1568.04 L1289.94 1532.4 L1295.83 1532.4 L1295.83 1537.93 Q1297.67 1534.69 1300.63 1533.13 Q1303.59 1531.54 1307.83 1531.54 Q1308.43 1531.54 1309.16 1531.63 Q1309.9 1531.7 1310.79 1531.85 L1310.82 1537.87 Z" fill="#000000" fill-rule="nonzero" fill-opacity="1" /><path clip-path="url(#clip520)" d="M1329.34 1536.5 Q1324.63 1536.5 1321.9 1540.19 Q1319.16 1543.85 1319.16 1550.25 Q1319.16 1556.65 1321.86 1560.34 Q1324.6 1564 1329.34 1564 Q1334.02 1564 1336.76 1560.31 Q1339.5 1556.62 1339.5 1550.25 Q1339.5 1543.92 1336.76 1540.23 Q1334.02 1536.5 1329.34 1536.5 M1329.34 1531.54 Q1336.98 1531.54 1341.34 1536.5 Q1345.7 1541.47 1345.7 1550.25 Q1345.7 1559 1341.34 1564 Q1336.98 1568.97 1329.34 1568.97 Q1321.67 1568.97 1317.31 1564 Q1312.98 1559 1312.98 1550.25 Q1312.98 1541.47 1317.31 1536.5 Q1321.67 1531.54 1329.34 1531.54 Z" fill="#000000" fill-rule="nonzero" fill-opacity="1" /><path clip-path="url(#clip520)" d="M1385.04 1546.53 L1385.04 1568.04 L1379.19 1568.04 L1379.19 1546.72 Q1379.19 1541.66 1377.21 1539.14 Q1375.24 1536.63 1371.29 1536.63 Q1366.55 1536.63 1363.81 1539.65 Q1361.08 1542.68 1361.08 1547.9 L1361.08 1568.04 L1355.19 1568.04 L1355.19 1532.4 L1361.08 1532.4 L1361.08 1537.93 Q1363.18 1534.72 1366.01 1533.13 Q1368.87 1531.54 1372.6 1531.54 Q1378.74 1531.54 1381.89 1535.36 Q1385.04 1539.14 1385.04 1546.53 Z" fill="#000000" fill-rule="nonzero" fill-opacity="1" /><path clip-path="url(#clip520)" d="M1447.94 1548.76 L1447.94 1551.62 L1421.01 1551.62 Q1421.39 1557.67 1424.64 1560.85 Q1427.92 1564 1433.74 1564 Q1437.11 1564 1440.27 1563.17 Q1443.45 1562.35 1446.57 1560.69 L1446.57 1566.23 Q1443.42 1567.57 1440.11 1568.27 Q1436.8 1568.97 1433.39 1568.97 Q1424.86 1568.97 1419.86 1564 Q1414.9 1559.04 1414.9 1550.57 Q1414.9 1541.82 1419.61 1536.69 Q1424.35 1531.54 1432.37 1531.54 Q1439.57 1531.54 1443.74 1536.18 Q1447.94 1540.8 1447.94 1548.76 M1442.08 1547.04 Q1442.02 1542.23 1439.37 1539.37 Q1436.76 1536.5 1432.44 1536.5 Q1427.53 1536.5 1424.57 1539.27 Q1421.65 1542.04 1421.2 1547.07 L1442.08 1547.04 Z" fill="#000000" fill-rule="nonzero" fill-opacity="1" /><path clip-path="url(#clip520)" d="M1487.18 1546.53 L1487.18 1568.04 L1481.32 1568.04 L1481.32 1546.72 Q1481.32 1541.66 1479.35 1539.14 Q1477.38 1536.63 1473.43 1536.63 Q1468.69 1536.63 1465.95 1539.65 Q1463.21 1542.68 1463.21 1547.9 L1463.21 1568.04 L1457.33 1568.04 L1457.33 1532.4 L1463.21 1532.4 L1463.21 1537.93 Q1465.31 1534.72 1468.15 1533.13 Q1471.01 1531.54 1474.74 1531.54 Q1480.88 1531.54 1484.03 1535.36 Q1487.18 1539.14 1487.18 1546.53 Z" fill="#000000" fill-rule="nonzero" fill-opacity="1" /><path clip-path="url(#clip520)" d="M1529.35 1548.76 L1529.35 1551.62 L1502.43 1551.62 Q1502.81 1557.67 1506.06 1560.85 Q1509.33 1564 1515.16 1564 Q1518.53 1564 1521.68 1563.17 Q1524.87 1562.35 1527.99 1560.69 L1527.99 1566.23 Q1524.83 1567.57 1521.52 1568.27 Q1518.21 1568.97 1514.81 1568.97 Q1506.28 1568.97 1501.28 1564 Q1496.32 1559.04 1496.32 1550.57 Q1496.32 1541.82 1501.03 1536.69 Q1505.77 1531.54 1513.79 1531.54 Q1520.98 1531.54 1525.15 1536.18 Q1529.35 1540.8 1529.35 1548.76 M1523.5 1547.04 Q1523.43 1542.23 1520.79 1539.37 Q1518.18 1536.5 1513.85 1536.5 Q1508.95 1536.5 1505.99 1539.27 Q1503.06 1542.04 1502.62 1547.07 L1523.5 1547.04 Z" fill="#000000" fill-rule="nonzero" fill-opacity="1" /><path clip-path="url(#clip520)" d="M1559.62 1537.87 Q1558.64 1537.3 1557.46 1537.04 Q1556.31 1536.76 1554.91 1536.76 Q1549.95 1536.76 1547.27 1540 Q1544.63 1543.22 1544.63 1549.27 L1544.63 1568.04 L1538.74 1568.04 L1538.74 1532.4 L1544.63 1532.4 L1544.63 1537.93 Q1546.48 1534.69 1549.44 1533.13 Q1552.4 1531.54 1556.63 1531.54 Q1557.24 1531.54 1557.97 1531.63 Q1558.7 1531.7 1559.59 1531.85 L1559.62 1537.87 Z" fill="#000000" fill-rule="nonzero" fill-opacity="1" /><path clip-path="url(#clip520)" d="M1588.08 1549.81 Q1588.08 1543.44 1585.44 1539.94 Q1582.83 1536.44 1578.08 1536.44 Q1573.37 1536.44 1570.73 1539.94 Q1568.12 1543.44 1568.12 1549.81 Q1568.12 1556.14 1570.73 1559.64 Q1573.37 1563.14 1578.08 1563.14 Q1582.83 1563.14 1585.44 1559.64 Q1588.08 1556.14 1588.08 1549.81 M1593.93 1563.62 Q1593.93 1572.72 1589.89 1577.15 Q1585.85 1581.6 1577.51 1581.6 Q1574.42 1581.6 1571.69 1581.13 Q1568.95 1580.68 1566.37 1579.72 L1566.37 1574.03 Q1568.95 1575.43 1571.46 1576.1 Q1573.98 1576.76 1576.59 1576.76 Q1582.35 1576.76 1585.21 1573.74 Q1588.08 1570.75 1588.08 1564.67 L1588.08 1561.77 Q1586.26 1564.92 1583.43 1566.48 Q1580.6 1568.04 1576.65 1568.04 Q1570.09 1568.04 1566.08 1563.05 Q1562.07 1558.05 1562.07 1549.81 Q1562.07 1541.53 1566.08 1536.53 Q1570.09 1531.54 1576.65 1531.54 Q1580.6 1531.54 1583.43 1533.1 Q1586.26 1534.66 1588.08 1537.81 L1588.08 1532.4 L1593.93 1532.4 L1593.93 1563.62 Z" fill="#000000" fill-rule="nonzero" fill-opacity="1" /><path clip-path="url(#clip520)" d="M1620.83 1571.35 Q1618.35 1577.72 1615.99 1579.66 Q1613.64 1581.6 1609.69 1581.6 L1605.01 1581.6 L1605.01 1576.7 L1608.45 1576.7 Q1610.87 1576.7 1612.2 1575.56 Q1613.54 1574.41 1615.16 1570.14 L1616.21 1567.47 L1601.8 1532.4 L1608 1532.4 L1619.14 1560.28 L1630.28 1532.4 L1636.49 1532.4 L1620.83 1571.35 Z" fill="#000000" fill-rule="nonzero" fill-opacity="1" /><path clip-path="url(#clip520)" d="M1679.36 1518.58 Q1675.1 1525.9 1673.03 1533.06 Q1670.96 1540.23 1670.96 1547.58 Q1670.96 1554.93 1673.03 1562.16 Q1675.13 1569.35 1679.36 1576.64 L1674.27 1576.64 Q1669.49 1569.16 1667.11 1561.93 Q1664.75 1554.71 1664.75 1547.58 Q1664.75 1540.48 1667.11 1533.29 Q1669.46 1526.09 1674.27 1518.58 L1679.36 1518.58 Z" fill="#000000" fill-rule="nonzero" fill-opacity="1" /><path clip-path="url(#clip520)" d="M1690.98 1520.52 L1700.56 1520.52 L1712.69 1552.86 L1724.88 1520.52 L1734.46 1520.52 L1734.46 1568.04 L1728.19 1568.04 L1728.19 1526.32 L1715.93 1558.91 L1709.47 1558.91 L1697.22 1526.32 L1697.22 1568.04 L1690.98 1568.04 L1690.98 1520.52 Z" fill="#000000" fill-rule="nonzero" fill-opacity="1" /><path clip-path="url(#clip520)" d="M1777.46 1548.76 L1777.46 1551.62 L1750.53 1551.62 Q1750.91 1557.67 1754.16 1560.85 Q1757.44 1564 1763.26 1564 Q1766.64 1564 1769.79 1563.17 Q1772.97 1562.35 1776.09 1560.69 L1776.09 1566.23 Q1772.94 1567.57 1769.63 1568.27 Q1766.32 1568.97 1762.91 1568.97 Q1754.38 1568.97 1749.38 1564 Q1744.42 1559.04 1744.42 1550.57 Q1744.42 1541.82 1749.13 1536.69 Q1753.87 1531.54 1761.89 1531.54 Q1769.09 1531.54 1773.26 1536.18 Q1777.46 1540.8 1777.46 1548.76 M1771.6 1547.04 Q1771.54 1542.23 1768.9 1539.37 Q1766.29 1536.5 1761.96 1536.5 Q1757.06 1536.5 1754.1 1539.27 Q1751.17 1542.04 1750.72 1547.07 L1771.6 1547.04 Z" fill="#000000" fill-rule="nonzero" fill-opacity="1" /><path clip-path="url(#clip520)" d="M1799.58 1568.04 L1781.44 1520.52 L1788.15 1520.52 L1803.21 1560.53 L1818.29 1520.52 L1824.98 1520.52 L1806.87 1568.04 L1799.58 1568.04 Z" fill="#000000" fill-rule="nonzero" fill-opacity="1" /><path clip-path="url(#clip520)" d="M1830.74 1518.58 L1835.83 1518.58 Q1840.6 1526.09 1842.96 1533.29 Q1845.35 1540.48 1845.35 1547.58 Q1845.35 1554.71 1842.96 1561.93 Q1840.6 1569.16 1835.83 1576.64 L1830.74 1576.64 Q1834.97 1569.35 1837.04 1562.16 Q1839.14 1554.93 1839.14 1547.58 Q1839.14 1540.23 1837.04 1533.06 Q1834.97 1525.9 1830.74 1518.58 Z" fill="#000000" fill-rule="nonzero" fill-opacity="1" /><polyline clip-path="url(#clip520)" style="stroke:#000000; stroke-linecap:round; stroke-linejoin:round; stroke-width:4; stroke-opacity:1; fill:none" points="265.445,1423.18 265.445,123.472 "/>
<polyline clip-path="url(#clip520)" style="stroke:#000000; stroke-linecap:round; stroke-linejoin:round; stroke-width:4; stroke-opacity:1; fill:none" points="265.445,1386.4 284.342,1386.4 "/>
<polyline clip-path="url(#clip520)" style="stroke:#000000; stroke-linecap:round; stroke-linejoin:round; stroke-width:4; stroke-opacity:1; fill:none" points="265.445,1190.24 284.342,1190.24 "/>
<polyline clip-path="url(#clip520)" style="stroke:#000000; stroke-linecap:round; stroke-linejoin:round; stroke-width:4; stroke-opacity:1; fill:none" points="265.445,994.094 284.342,994.094 "/>
<polyline clip-path="url(#clip520)" style="stroke:#000000; stroke-linecap:round; stroke-linejoin:round; stroke-width:4; stroke-opacity:1; fill:none" points="265.445,797.943 284.342,797.943 "/>
<polyline clip-path="url(#clip520)" style="stroke:#000000; stroke-linecap:round; stroke-linejoin:round; stroke-width:4; stroke-opacity:1; fill:none" points="265.445,601.792 284.342,601.792 "/>
<polyline clip-path="url(#clip520)" style="stroke:#000000; stroke-linecap:round; stroke-linejoin:round; stroke-width:4; stroke-opacity:1; fill:none" points="265.445,405.641 284.342,405.641 "/>
<polyline clip-path="url(#clip520)" style="stroke:#000000; stroke-linecap:round; stroke-linejoin:round; stroke-width:4; stroke-opacity:1; fill:none" points="265.445,209.49 284.342,209.49 "/>
<path clip-path="url(#clip520)" d="M217.5 1372.19 Q213.889 1372.19 212.061 1375.76 Q210.255 1379.3 210.255 1386.43 Q210.255 1393.54 212.061 1397.1 Q213.889 1400.64 217.5 1400.64 Q221.135 1400.64 222.94 1397.1 Q224.769 1393.54 224.769 1386.43 Q224.769 1379.3 222.94 1375.76 Q221.135 1372.19 217.5 1372.19 M217.5 1368.49 Q223.31 1368.49 226.366 1373.1 Q229.445 1377.68 229.445 1386.43 Q229.445 1395.16 226.366 1399.76 Q223.31 1404.35 217.5 1404.35 Q211.69 1404.35 208.612 1399.76 Q205.556 1395.16 205.556 1386.43 Q205.556 1377.68 208.612 1373.1 Q211.69 1368.49 217.5 1368.49 Z" fill="#000000" fill-rule="nonzero" fill-opacity="1" /><path clip-path="url(#clip520)" d="M117.825 1203.59 L125.464 1203.59 L125.464 1177.22 L117.154 1178.89 L117.154 1174.63 L125.418 1172.96 L130.093 1172.96 L130.093 1203.59 L137.732 1203.59 L137.732 1207.52 L117.825 1207.52 L117.825 1203.59 Z" fill="#000000" fill-rule="nonzero" fill-opacity="1" /><path clip-path="url(#clip520)" d="M157.177 1176.04 Q153.566 1176.04 151.737 1179.61 Q149.931 1183.15 149.931 1190.28 Q149.931 1197.39 151.737 1200.95 Q153.566 1204.49 157.177 1204.49 Q160.811 1204.49 162.616 1200.95 Q164.445 1197.39 164.445 1190.28 Q164.445 1183.15 162.616 1179.61 Q160.811 1176.04 157.177 1176.04 M157.177 1172.34 Q162.987 1172.34 166.042 1176.95 Q169.121 1181.53 169.121 1190.28 Q169.121 1199.01 166.042 1203.61 Q162.987 1208.2 157.177 1208.2 Q151.366 1208.2 148.288 1203.61 Q145.232 1199.01 145.232 1190.28 Q145.232 1181.53 148.288 1176.95 Q151.366 1172.34 157.177 1172.34 Z" fill="#000000" fill-rule="nonzero" fill-opacity="1" /><path clip-path="url(#clip520)" d="M187.338 1176.04 Q183.727 1176.04 181.899 1179.61 Q180.093 1183.15 180.093 1190.28 Q180.093 1197.39 181.899 1200.95 Q183.727 1204.49 187.338 1204.49 Q190.973 1204.49 192.778 1200.95 Q194.607 1197.39 194.607 1190.28 Q194.607 1183.15 192.778 1179.61 Q190.973 1176.04 187.338 1176.04 M187.338 1172.34 Q193.149 1172.34 196.204 1176.95 Q199.283 1181.53 199.283 1190.28 Q199.283 1199.01 196.204 1203.61 Q193.149 1208.2 187.338 1208.2 Q181.528 1208.2 178.45 1203.61 Q175.394 1199.01 175.394 1190.28 Q175.394 1181.53 178.45 1176.95 Q181.528 1172.34 187.338 1172.34 Z" fill="#000000" fill-rule="nonzero" fill-opacity="1" /><path clip-path="url(#clip520)" d="M217.5 1176.04 Q213.889 1176.04 212.061 1179.61 Q210.255 1183.15 210.255 1190.28 Q210.255 1197.39 212.061 1200.95 Q213.889 1204.49 217.5 1204.49 Q221.135 1204.49 222.94 1200.95 Q224.769 1197.39 224.769 1190.28 Q224.769 1183.15 222.94 1179.61 Q221.135 1176.04 217.5 1176.04 M217.5 1172.34 Q223.31 1172.34 226.366 1176.95 Q229.445 1181.53 229.445 1190.28 Q229.445 1199.01 226.366 1203.61 Q223.31 1208.2 217.5 1208.2 Q211.69 1208.2 208.612 1203.61 Q205.556 1199.01 205.556 1190.28 Q205.556 1181.53 208.612 1176.95 Q211.69 1172.34 217.5 1172.34 Z" fill="#000000" fill-rule="nonzero" fill-opacity="1" /><path clip-path="url(#clip520)" d="M121.043 1007.44 L137.362 1007.44 L137.362 1011.37 L115.418 1011.37 L115.418 1007.44 Q118.08 1004.68 122.663 1000.05 Q127.269 995.402 128.45 994.059 Q130.695 991.536 131.575 989.8 Q132.478 988.041 132.478 986.351 Q132.478 983.596 130.533 981.86 Q128.612 980.124 125.51 980.124 Q123.311 980.124 120.857 980.888 Q118.427 981.652 115.649 983.203 L115.649 978.48 Q118.473 977.346 120.927 976.768 Q123.38 976.189 125.418 976.189 Q130.788 976.189 133.982 978.874 Q137.177 981.559 137.177 986.05 Q137.177 988.18 136.367 990.101 Q135.579 991.999 133.473 994.592 Q132.894 995.263 129.792 998.48 Q126.691 1001.67 121.043 1007.44 Z" fill="#000000" fill-rule="nonzero" fill-opacity="1" /><path clip-path="url(#clip520)" d="M157.177 979.893 Q153.566 979.893 151.737 983.457 Q149.931 986.999 149.931 994.129 Q149.931 1001.24 151.737 1004.8 Q153.566 1008.34 157.177 1008.34 Q160.811 1008.34 162.616 1004.8 Q164.445 1001.24 164.445 994.129 Q164.445 986.999 162.616 983.457 Q160.811 979.893 157.177 979.893 M157.177 976.189 Q162.987 976.189 166.042 980.795 Q169.121 985.379 169.121 994.129 Q169.121 1002.86 166.042 1007.46 Q162.987 1012.05 157.177 1012.05 Q151.366 1012.05 148.288 1007.46 Q145.232 1002.86 145.232 994.129 Q145.232 985.379 148.288 980.795 Q151.366 976.189 157.177 976.189 Z" fill="#000000" fill-rule="nonzero" fill-opacity="1" /><path clip-path="url(#clip520)" d="M187.338 979.893 Q183.727 979.893 181.899 983.457 Q180.093 986.999 180.093 994.129 Q180.093 1001.24 181.899 1004.8 Q183.727 1008.34 187.338 1008.34 Q190.973 1008.34 192.778 1004.8 Q194.607 1001.24 194.607 994.129 Q194.607 986.999 192.778 983.457 Q190.973 979.893 187.338 979.893 M187.338 976.189 Q193.149 976.189 196.204 980.795 Q199.283 985.379 199.283 994.129 Q199.283 1002.86 196.204 1007.46 Q193.149 1012.05 187.338 1012.05 Q181.528 1012.05 178.45 1007.46 Q175.394 1002.86 175.394 994.129 Q175.394 985.379 178.45 980.795 Q181.528 976.189 187.338 976.189 Z" fill="#000000" fill-rule="nonzero" fill-opacity="1" /><path clip-path="url(#clip520)" d="M217.5 979.893 Q213.889 979.893 212.061 983.457 Q210.255 986.999 210.255 994.129 Q210.255 1001.24 212.061 1004.8 Q213.889 1008.34 217.5 1008.34 Q221.135 1008.34 222.94 1004.8 Q224.769 1001.24 224.769 994.129 Q224.769 986.999 222.94 983.457 Q221.135 979.893 217.5 979.893 M217.5 976.189 Q223.31 976.189 226.366 980.795 Q229.445 985.379 229.445 994.129 Q229.445 1002.86 226.366 1007.46 Q223.31 1012.05 217.5 1012.05 Q211.69 1012.05 208.612 1007.46 Q205.556 1002.86 205.556 994.129 Q205.556 985.379 208.612 980.795 Q211.69 976.189 217.5 976.189 Z" fill="#000000" fill-rule="nonzero" fill-opacity="1" /><path clip-path="url(#clip520)" d="M131.181 796.589 Q134.538 797.306 136.413 799.575 Q138.311 801.843 138.311 805.177 Q138.311 810.292 134.792 813.093 Q131.274 815.894 124.793 815.894 Q122.617 815.894 120.302 815.454 Q118.01 815.038 115.556 814.181 L115.556 809.667 Q117.501 810.802 119.816 811.38 Q122.13 811.959 124.654 811.959 Q129.052 811.959 131.343 810.223 Q133.658 808.487 133.658 805.177 Q133.658 802.121 131.505 800.408 Q129.376 798.672 125.556 798.672 L121.529 798.672 L121.529 794.83 L125.742 794.83 Q129.191 794.83 131.019 793.464 Q132.848 792.075 132.848 789.482 Q132.848 786.82 130.95 785.408 Q129.075 783.973 125.556 783.973 Q123.635 783.973 121.436 784.39 Q119.237 784.806 116.598 785.686 L116.598 781.519 Q119.26 780.779 121.575 780.408 Q123.913 780.038 125.973 780.038 Q131.297 780.038 134.399 782.468 Q137.501 784.876 137.501 788.996 Q137.501 791.867 135.857 793.857 Q134.214 795.825 131.181 796.589 Z" fill="#000000" fill-rule="nonzero" fill-opacity="1" /><path clip-path="url(#clip520)" d="M157.177 783.742 Q153.566 783.742 151.737 787.306 Q149.931 790.848 149.931 797.978 Q149.931 805.084 151.737 808.649 Q153.566 812.191 157.177 812.191 Q160.811 812.191 162.616 808.649 Q164.445 805.084 164.445 797.978 Q164.445 790.848 162.616 787.306 Q160.811 783.742 157.177 783.742 M157.177 780.038 Q162.987 780.038 166.042 784.644 Q169.121 789.228 169.121 797.978 Q169.121 806.704 166.042 811.311 Q162.987 815.894 157.177 815.894 Q151.366 815.894 148.288 811.311 Q145.232 806.704 145.232 797.978 Q145.232 789.228 148.288 784.644 Q151.366 780.038 157.177 780.038 Z" fill="#000000" fill-rule="nonzero" fill-opacity="1" /><path clip-path="url(#clip520)" d="M187.338 783.742 Q183.727 783.742 181.899 787.306 Q180.093 790.848 180.093 797.978 Q180.093 805.084 181.899 808.649 Q183.727 812.191 187.338 812.191 Q190.973 812.191 192.778 808.649 Q194.607 805.084 194.607 797.978 Q194.607 790.848 192.778 787.306 Q190.973 783.742 187.338 783.742 M187.338 780.038 Q193.149 780.038 196.204 784.644 Q199.283 789.228 199.283 797.978 Q199.283 806.704 196.204 811.311 Q193.149 815.894 187.338 815.894 Q181.528 815.894 178.45 811.311 Q175.394 806.704 175.394 797.978 Q175.394 789.228 178.45 784.644 Q181.528 780.038 187.338 780.038 Z" fill="#000000" fill-rule="nonzero" fill-opacity="1" /><path clip-path="url(#clip520)" d="M217.5 783.742 Q213.889 783.742 212.061 787.306 Q210.255 790.848 210.255 797.978 Q210.255 805.084 212.061 808.649 Q213.889 812.191 217.5 812.191 Q221.135 812.191 222.94 808.649 Q224.769 805.084 224.769 797.978 Q224.769 790.848 222.94 787.306 Q221.135 783.742 217.5 783.742 M217.5 780.038 Q223.31 780.038 226.366 784.644 Q229.445 789.228 229.445 797.978 Q229.445 806.704 226.366 811.311 Q223.31 815.894 217.5 815.894 Q211.69 815.894 208.612 811.311 Q205.556 806.704 205.556 797.978 Q205.556 789.228 208.612 784.644 Q211.69 780.038 217.5 780.038 Z" fill="#000000" fill-rule="nonzero" fill-opacity="1" /><path clip-path="url(#clip520)" d="M129.862 588.586 L118.056 607.035 L129.862 607.035 L129.862 588.586 M128.635 584.512 L134.515 584.512 L134.515 607.035 L139.445 607.035 L139.445 610.924 L134.515 610.924 L134.515 619.072 L129.862 619.072 L129.862 610.924 L114.26 610.924 L114.26 606.41 L128.635 584.512 Z" fill="#000000" fill-rule="nonzero" fill-opacity="1" /><path clip-path="url(#clip520)" d="M157.177 587.591 Q153.566 587.591 151.737 591.155 Q149.931 594.697 149.931 601.827 Q149.931 608.933 151.737 612.498 Q153.566 616.04 157.177 616.04 Q160.811 616.04 162.616 612.498 Q164.445 608.933 164.445 601.827 Q164.445 594.697 162.616 591.155 Q160.811 587.591 157.177 587.591 M157.177 583.887 Q162.987 583.887 166.042 588.493 Q169.121 593.077 169.121 601.827 Q169.121 610.554 166.042 615.16 Q162.987 619.743 157.177 619.743 Q151.366 619.743 148.288 615.16 Q145.232 610.554 145.232 601.827 Q145.232 593.077 148.288 588.493 Q151.366 583.887 157.177 583.887 Z" fill="#000000" fill-rule="nonzero" fill-opacity="1" /><path clip-path="url(#clip520)" d="M187.338 587.591 Q183.727 587.591 181.899 591.155 Q180.093 594.697 180.093 601.827 Q180.093 608.933 181.899 612.498 Q183.727 616.04 187.338 616.04 Q190.973 616.04 192.778 612.498 Q194.607 608.933 194.607 601.827 Q194.607 594.697 192.778 591.155 Q190.973 587.591 187.338 587.591 M187.338 583.887 Q193.149 583.887 196.204 588.493 Q199.283 593.077 199.283 601.827 Q199.283 610.554 196.204 615.16 Q193.149 619.743 187.338 619.743 Q181.528 619.743 178.45 615.16 Q175.394 610.554 175.394 601.827 Q175.394 593.077 178.45 588.493 Q181.528 583.887 187.338 583.887 Z" fill="#000000" fill-rule="nonzero" fill-opacity="1" /><path clip-path="url(#clip520)" d="M217.5 587.591 Q213.889 587.591 212.061 591.155 Q210.255 594.697 210.255 601.827 Q210.255 608.933 212.061 612.498 Q213.889 616.04 217.5 616.04 Q221.135 616.04 222.94 612.498 Q224.769 608.933 224.769 601.827 Q224.769 594.697 222.94 591.155 Q221.135 587.591 217.5 587.591 M217.5 583.887 Q223.31 583.887 226.366 588.493 Q229.445 593.077 229.445 601.827 Q229.445 610.554 226.366 615.16 Q223.31 619.743 217.5 619.743 Q211.69 619.743 208.612 615.16 Q205.556 610.554 205.556 601.827 Q205.556 593.077 208.612 588.493 Q211.69 583.887 217.5 583.887 Z" fill="#000000" fill-rule="nonzero" fill-opacity="1" /><path clip-path="url(#clip520)" d="M117.061 388.361 L135.417 388.361 L135.417 392.296 L121.343 392.296 L121.343 400.768 Q122.362 400.421 123.38 400.259 Q124.399 400.074 125.418 400.074 Q131.205 400.074 134.584 403.245 Q137.964 406.417 137.964 411.833 Q137.964 417.412 134.492 420.514 Q131.019 423.592 124.7 423.592 Q122.524 423.592 120.255 423.222 Q118.01 422.852 115.603 422.111 L115.603 417.412 Q117.686 418.546 119.908 419.102 Q122.13 419.657 124.607 419.657 Q128.612 419.657 130.95 417.551 Q133.288 415.444 133.288 411.833 Q133.288 408.222 130.95 406.116 Q128.612 404.009 124.607 404.009 Q122.732 404.009 120.857 404.426 Q119.006 404.842 117.061 405.722 L117.061 388.361 Z" fill="#000000" fill-rule="nonzero" fill-opacity="1" /><path clip-path="url(#clip520)" d="M157.177 391.44 Q153.566 391.44 151.737 395.005 Q149.931 398.546 149.931 405.676 Q149.931 412.782 151.737 416.347 Q153.566 419.889 157.177 419.889 Q160.811 419.889 162.616 416.347 Q164.445 412.782 164.445 405.676 Q164.445 398.546 162.616 395.005 Q160.811 391.44 157.177 391.44 M157.177 387.736 Q162.987 387.736 166.042 392.343 Q169.121 396.926 169.121 405.676 Q169.121 414.403 166.042 419.009 Q162.987 423.592 157.177 423.592 Q151.366 423.592 148.288 419.009 Q145.232 414.403 145.232 405.676 Q145.232 396.926 148.288 392.343 Q151.366 387.736 157.177 387.736 Z" fill="#000000" fill-rule="nonzero" fill-opacity="1" /><path clip-path="url(#clip520)" d="M187.338 391.44 Q183.727 391.44 181.899 395.005 Q180.093 398.546 180.093 405.676 Q180.093 412.782 181.899 416.347 Q183.727 419.889 187.338 419.889 Q190.973 419.889 192.778 416.347 Q194.607 412.782 194.607 405.676 Q194.607 398.546 192.778 395.005 Q190.973 391.44 187.338 391.44 M187.338 387.736 Q193.149 387.736 196.204 392.343 Q199.283 396.926 199.283 405.676 Q199.283 414.403 196.204 419.009 Q193.149 423.592 187.338 423.592 Q181.528 423.592 178.45 419.009 Q175.394 414.403 175.394 405.676 Q175.394 396.926 178.45 392.343 Q181.528 387.736 187.338 387.736 Z" fill="#000000" fill-rule="nonzero" fill-opacity="1" /><path clip-path="url(#clip520)" d="M217.5 391.44 Q213.889 391.44 212.061 395.005 Q210.255 398.546 210.255 405.676 Q210.255 412.782 212.061 416.347 Q213.889 419.889 217.5 419.889 Q221.135 419.889 222.94 416.347 Q224.769 412.782 224.769 405.676 Q224.769 398.546 222.94 395.005 Q221.135 391.44 217.5 391.44 M217.5 387.736 Q223.31 387.736 226.366 392.343 Q229.445 396.926 229.445 405.676 Q229.445 414.403 226.366 419.009 Q223.31 423.592 217.5 423.592 Q211.69 423.592 208.612 419.009 Q205.556 414.403 205.556 405.676 Q205.556 396.926 208.612 392.343 Q211.69 387.736 217.5 387.736 Z" fill="#000000" fill-rule="nonzero" fill-opacity="1" /><path clip-path="url(#clip520)" d="M127.593 207.627 Q124.445 207.627 122.593 209.78 Q120.765 211.932 120.765 215.682 Q120.765 219.409 122.593 221.585 Q124.445 223.738 127.593 223.738 Q130.742 223.738 132.57 221.585 Q134.422 219.409 134.422 215.682 Q134.422 211.932 132.57 209.78 Q130.742 207.627 127.593 207.627 M136.876 192.974 L136.876 197.233 Q135.117 196.4 133.311 195.96 Q131.529 195.52 129.769 195.52 Q125.14 195.52 122.686 198.645 Q120.255 201.77 119.908 208.09 Q121.274 206.076 123.334 205.011 Q125.394 203.923 127.871 203.923 Q133.08 203.923 136.089 207.094 Q139.121 210.242 139.121 215.682 Q139.121 221.006 135.973 224.224 Q132.825 227.441 127.593 227.441 Q121.598 227.441 118.427 222.858 Q115.256 218.252 115.256 209.525 Q115.256 201.331 119.144 196.469 Q123.033 191.585 129.584 191.585 Q131.343 191.585 133.126 191.932 Q134.931 192.28 136.876 192.974 Z" fill="#000000" fill-rule="nonzero" fill-opacity="1" /><path clip-path="url(#clip520)" d="M157.177 195.289 Q153.566 195.289 151.737 198.854 Q149.931 202.395 149.931 209.525 Q149.931 216.631 151.737 220.196 Q153.566 223.738 157.177 223.738 Q160.811 223.738 162.616 220.196 Q164.445 216.631 164.445 209.525 Q164.445 202.395 162.616 198.854 Q160.811 195.289 157.177 195.289 M157.177 191.585 Q162.987 191.585 166.042 196.192 Q169.121 200.775 169.121 209.525 Q169.121 218.252 166.042 222.858 Q162.987 227.441 157.177 227.441 Q151.366 227.441 148.288 222.858 Q145.232 218.252 145.232 209.525 Q145.232 200.775 148.288 196.192 Q151.366 191.585 157.177 191.585 Z" fill="#000000" fill-rule="nonzero" fill-opacity="1" /><path clip-path="url(#clip520)" d="M187.338 195.289 Q183.727 195.289 181.899 198.854 Q180.093 202.395 180.093 209.525 Q180.093 216.631 181.899 220.196 Q183.727 223.738 187.338 223.738 Q190.973 223.738 192.778 220.196 Q194.607 216.631 194.607 209.525 Q194.607 202.395 192.778 198.854 Q190.973 195.289 187.338 195.289 M187.338 191.585 Q193.149 191.585 196.204 196.192 Q199.283 200.775 199.283 209.525 Q199.283 218.252 196.204 222.858 Q193.149 227.441 187.338 227.441 Q181.528 227.441 178.45 222.858 Q175.394 218.252 175.394 209.525 Q175.394 200.775 178.45 196.192 Q181.528 191.585 187.338 191.585 Z" fill="#000000" fill-rule="nonzero" fill-opacity="1" /><path clip-path="url(#clip520)" d="M217.5 195.289 Q213.889 195.289 212.061 198.854 Q210.255 202.395 210.255 209.525 Q210.255 216.631 212.061 220.196 Q213.889 223.738 217.5 223.738 Q221.135 223.738 222.94 220.196 Q224.769 216.631 224.769 209.525 Q224.769 202.395 222.94 198.854 Q221.135 195.289 217.5 195.289 M217.5 191.585 Q223.31 191.585 226.366 196.192 Q229.445 200.775 229.445 209.525 Q229.445 218.252 226.366 222.858 Q223.31 227.441 217.5 227.441 Q211.69 227.441 208.612 222.858 Q205.556 218.252 205.556 209.525 Q205.556 200.775 208.612 196.192 Q211.69 191.585 217.5 191.585 Z" fill="#000000" fill-rule="nonzero" fill-opacity="1" /><path clip-path="url(#clip520)" d="M20.1444 845.354 L26.9239 845.354 Q23.9002 848.6 22.4043 852.293 Q20.9083 855.953 20.9083 860.091 Q20.9083 868.239 25.9054 872.567 Q30.8707 876.896 40.2919 876.896 Q49.6813 876.896 54.6784 872.567 Q59.6436 868.239 59.6436 860.091 Q59.6436 855.953 58.1477 852.293 Q56.6518 848.6 53.6281 845.354 L60.3439 845.354 Q62.6355 848.728 63.7814 852.515 Q64.9272 856.271 64.9272 860.473 Q64.9272 871.262 58.3387 877.469 Q51.7183 883.676 40.2919 883.676 Q28.8336 883.676 22.2451 877.469 Q15.6248 871.262 15.6248 860.473 Q15.6248 856.207 16.7706 852.452 Q17.8846 848.664 20.1444 845.354 Z" fill="#000000" fill-rule="nonzero" fill-opacity="1" /><path clip-path="url(#clip520)" d="M32.4621 821.864 Q32.4621 826.575 36.1542 829.312 Q39.8145 832.05 46.212 832.05 Q52.6095 832.05 56.3017 829.344 Q59.9619 826.607 59.9619 821.864 Q59.9619 817.186 56.2698 814.448 Q52.5777 811.711 46.212 811.711 Q39.8781 811.711 36.186 814.448 Q32.4621 817.186 32.4621 821.864 M27.4968 821.864 Q27.4968 814.226 32.4621 809.865 Q37.4273 805.505 46.212 805.505 Q54.9649 805.505 59.9619 809.865 Q64.9272 814.226 64.9272 821.864 Q64.9272 829.535 59.9619 833.896 Q54.9649 838.224 46.212 838.224 Q37.4273 838.224 32.4621 833.896 Q27.4968 829.535 27.4968 821.864 Z" fill="#000000" fill-rule="nonzero" fill-opacity="1" /><path clip-path="url(#clip520)" d="M49.9359 796.402 L28.3562 796.402 L28.3562 790.545 L49.7131 790.545 Q54.7739 790.545 57.3202 788.572 Q59.8346 786.598 59.8346 782.652 Q59.8346 777.909 56.8109 775.172 Q53.7872 772.403 48.5673 772.403 L28.3562 772.403 L28.3562 766.547 L64.0042 766.547 L64.0042 772.403 L58.5296 772.403 Q61.7762 774.535 63.3676 777.368 Q64.9272 780.169 64.9272 783.893 Q64.9272 790.036 61.1078 793.219 Q57.2883 796.402 49.9359 796.402 M27.4968 781.665 L27.4968 781.665 Z" fill="#000000" fill-rule="nonzero" fill-opacity="1" /><path clip-path="url(#clip520)" d="M42.4881 724.851 L64.0042 724.851 L64.0042 730.708 L42.679 730.708 Q37.6183 730.708 35.1038 732.681 Q32.5894 734.654 32.5894 738.601 Q32.5894 743.344 35.6131 746.081 Q38.6368 748.818 43.8567 748.818 L64.0042 748.818 L64.0042 754.706 L28.3562 754.706 L28.3562 748.818 L33.8944 748.818 Q30.6797 746.717 29.0883 743.885 Q27.4968 741.02 27.4968 737.296 Q27.4968 731.153 31.3163 728.002 Q35.1038 724.851 42.4881 724.851 Z" fill="#000000" fill-rule="nonzero" fill-opacity="1" /><path clip-path="url(#clip520)" d="M18.2347 707.377 L28.3562 707.377 L28.3562 695.314 L32.9077 695.314 L32.9077 707.377 L52.2594 707.377 Q56.6199 707.377 57.8613 706.2 Q59.1026 704.99 59.1026 701.33 L59.1026 695.314 L64.0042 695.314 L64.0042 701.33 Q64.0042 708.109 61.4897 710.687 Q58.9434 713.266 52.2594 713.266 L32.9077 713.266 L32.9077 717.562 L28.3562 717.562 L28.3562 713.266 L18.2347 713.266 L18.2347 707.377 Z" fill="#000000" fill-rule="nonzero" fill-opacity="1" /><path clip-path="url(#clip520)" d="M29.4065 664.886 L34.9447 664.886 Q33.6716 667.369 33.035 670.042 Q32.3984 672.716 32.3984 675.581 Q32.3984 679.941 33.7352 682.137 Q35.072 684.302 37.7456 684.302 Q39.7826 684.302 40.9603 682.742 Q42.1061 681.182 43.1565 676.472 L43.6021 674.467 Q44.9389 668.228 47.3897 665.618 Q49.8086 662.976 54.1691 662.976 Q59.1344 662.976 62.0308 666.923 Q64.9272 670.838 64.9272 677.713 Q64.9272 680.578 64.3543 683.697 Q63.8132 686.784 62.6992 690.222 L56.6518 690.222 Q58.3387 686.975 59.198 683.824 Q60.0256 680.673 60.0256 677.586 Q60.0256 673.448 58.6251 671.22 Q57.1929 668.992 54.6147 668.992 Q52.2276 668.992 50.9545 670.615 Q49.6813 672.207 48.5037 677.649 L48.0262 679.686 Q46.8804 685.129 44.5251 687.548 Q42.138 689.967 38.0002 689.967 Q32.9713 689.967 30.2341 686.402 Q27.4968 682.837 27.4968 676.281 Q27.4968 673.034 27.9743 670.17 Q28.4517 667.305 29.4065 664.886 Z" fill="#000000" fill-rule="nonzero" fill-opacity="1" /><path clip-path="url(#clip520)" d="M788.721 71.3202 L788.721 63.8666 Q791.8 65.3249 794.96 66.0946 Q798.119 66.8642 801.157 66.8642 Q809.259 66.8642 813.513 61.436 Q817.807 55.9673 818.414 44.8678 Q816.065 48.3516 812.459 50.215 Q808.854 52.0784 804.479 52.0784 Q795.405 52.0784 790.098 46.6097 Q784.832 41.1005 784.832 31.5808 Q784.832 22.2638 790.342 16.633 Q795.851 11.0023 805.006 11.0023 Q815.498 11.0023 821.007 19.0636 Q826.557 27.0843 826.557 42.3968 Q826.557 56.6965 819.751 65.2439 Q812.986 73.7508 801.522 73.7508 Q798.443 73.7508 795.284 73.1431 Q792.124 72.5355 788.721 71.3202 M805.006 45.678 Q810.515 45.678 813.715 41.9107 Q816.956 38.1433 816.956 31.5808 Q816.956 25.0589 813.715 21.2916 Q810.515 17.4837 805.006 17.4837 Q799.497 17.4837 796.256 21.2916 Q793.056 25.0589 793.056 31.5808 Q793.056 38.1433 796.256 41.9107 Q799.497 45.678 805.006 45.678 Z" fill="#000000" fill-rule="nonzero" fill-opacity="1" /><path clip-path="url(#clip520)" d="M841.261 62.2867 L849.809 62.2867 L849.809 72.576 L841.261 72.576 L841.261 62.2867 Z" fill="#000000" fill-rule="nonzero" fill-opacity="1" /><path clip-path="url(#clip520)" d="M869.051 65.6895 L882.419 65.6895 L882.419 19.5497 L867.876 22.4663 L867.876 15.0127 L882.338 12.096 L890.52 12.096 L890.52 65.6895 L903.888 65.6895 L903.888 72.576 L869.051 72.576 L869.051 65.6895 Z" fill="#000000" fill-rule="nonzero" fill-opacity="1" /><path clip-path="url(#clip520)" d="M937.916 43.8551 Q932.083 43.8551 928.72 46.9743 Q925.399 50.0935 925.399 55.5622 Q925.399 61.0309 928.72 64.1501 Q932.083 67.2693 937.916 67.2693 Q943.749 67.2693 947.112 64.1501 Q950.474 60.9904 950.474 55.5622 Q950.474 50.0935 947.112 46.9743 Q943.79 43.8551 937.916 43.8551 M929.733 40.3713 Q924.467 39.075 921.51 35.4697 Q918.593 31.8644 918.593 26.6793 Q918.593 19.4281 923.738 15.2152 Q928.923 11.0023 937.916 11.0023 Q946.949 11.0023 952.094 15.2152 Q957.239 19.4281 957.239 26.6793 Q957.239 31.8644 954.282 35.4697 Q951.365 39.075 946.139 40.3713 Q952.054 41.7486 955.335 45.759 Q958.657 49.7694 958.657 55.5622 Q958.657 64.3527 953.269 69.0517 Q947.922 73.7508 937.916 73.7508 Q927.91 73.7508 922.523 69.0517 Q917.175 64.3527 917.175 55.5622 Q917.175 49.7694 920.497 45.759 Q923.819 41.7486 929.733 40.3713 M926.735 27.4489 Q926.735 32.148 929.652 34.7811 Q932.609 37.4142 937.916 37.4142 Q943.182 37.4142 946.139 34.7811 Q949.137 32.148 949.137 27.4489 Q949.137 22.7499 946.139 20.1168 Q943.182 17.4837 937.916 17.4837 Q932.609 17.4837 929.652 20.1168 Q926.735 22.7499 926.735 27.4489 Z" fill="#000000" fill-rule="nonzero" fill-opacity="1" /><path clip-path="url(#clip520)" d="M1010.95 48.0275 L1010.95 51.6733 L976.683 51.6733 Q977.169 59.3701 981.301 63.421 Q985.474 67.4314 992.887 67.4314 Q997.181 67.4314 1001.19 66.3781 Q1005.24 65.3249 1009.21 63.2184 L1009.21 70.267 Q1005.2 71.9684 1000.99 72.8596 Q996.776 73.7508 992.441 73.7508 Q981.585 73.7508 975.225 67.4314 Q968.905 61.1119 968.905 50.3365 Q968.905 39.1965 974.901 32.6746 Q980.937 26.1121 991.145 26.1121 Q1000.3 26.1121 1005.61 32.0264 Q1010.95 37.9003 1010.95 48.0275 M1003.5 45.84 Q1003.42 39.7232 1000.06 36.0774 Q996.735 32.4315 991.226 32.4315 Q984.987 32.4315 981.22 35.9558 Q977.493 39.4801 976.926 45.8805 L1003.5 45.84 Z" fill="#000000" fill-rule="nonzero" fill-opacity="1" /><path clip-path="url(#clip520)" d="M1022.17 12.096 L1061.06 12.096 L1061.06 15.5798 L1039.11 72.576 L1030.56 72.576 L1051.22 18.9825 L1022.17 18.9825 L1022.17 12.096 Z" fill="#000000" fill-rule="nonzero" fill-opacity="1" /><path clip-path="url(#clip520)" d="M1140.06 45.1919 L1140.06 72.576 L1132.6 72.576 L1132.6 45.4349 Q1132.6 38.994 1130.09 35.7938 Q1127.58 32.5936 1122.56 32.5936 Q1116.52 32.5936 1113.04 36.4419 Q1109.55 40.2903 1109.55 46.9338 L1109.55 72.576 L1102.06 72.576 L1102.06 27.2059 L1109.55 27.2059 L1109.55 34.2544 Q1112.23 30.163 1115.83 28.1376 Q1119.48 26.1121 1124.22 26.1121 Q1132.04 26.1121 1136.05 30.9732 Q1140.06 35.7938 1140.06 45.1919 Z" fill="#000000" fill-rule="nonzero" fill-opacity="1" /><path clip-path="url(#clip520)" d="M1193.73 48.0275 L1193.73 51.6733 L1159.46 51.6733 Q1159.95 59.3701 1164.08 63.421 Q1168.25 67.4314 1175.66 67.4314 Q1179.96 67.4314 1183.97 66.3781 Q1188.02 65.3249 1191.99 63.2184 L1191.99 70.267 Q1187.98 71.9684 1183.77 72.8596 Q1179.55 73.7508 1175.22 73.7508 Q1164.36 73.7508 1158 67.4314 Q1151.68 61.1119 1151.68 50.3365 Q1151.68 39.1965 1157.68 32.6746 Q1163.71 26.1121 1173.92 26.1121 Q1183.08 26.1121 1188.38 32.0264 Q1193.73 37.9003 1193.73 48.0275 M1186.28 45.84 Q1186.2 39.7232 1182.83 36.0774 Q1179.51 32.4315 1174 32.4315 Q1167.76 32.4315 1164 35.9558 Q1160.27 39.4801 1159.7 45.8805 L1186.28 45.84 Z" fill="#000000" fill-rule="nonzero" fill-opacity="1" /><path clip-path="url(#clip520)" d="M1205.19 54.671 L1205.19 27.2059 L1212.65 27.2059 L1212.65 54.3874 Q1212.65 60.8284 1215.16 64.0691 Q1217.67 67.2693 1222.69 67.2693 Q1228.73 67.2693 1232.21 63.421 Q1235.74 59.5726 1235.74 52.9291 L1235.74 27.2059 L1243.19 27.2059 L1243.19 72.576 L1235.74 72.576 L1235.74 65.6084 Q1233.02 69.7404 1229.42 71.7658 Q1225.85 73.7508 1221.11 73.7508 Q1213.3 73.7508 1209.25 68.8897 Q1205.19 64.0286 1205.19 54.671 M1223.95 26.1121 L1223.95 26.1121 Z" fill="#000000" fill-rule="nonzero" fill-opacity="1" /><path clip-path="url(#clip520)" d="M1265.92 14.324 L1265.92 27.2059 L1281.27 27.2059 L1281.27 32.9987 L1265.92 32.9987 L1265.92 57.6282 Q1265.92 63.1779 1267.42 64.7578 Q1268.96 66.3376 1273.61 66.3376 L1281.27 66.3376 L1281.27 72.576 L1273.61 72.576 Q1264.99 72.576 1261.7 69.3758 Q1258.42 66.1351 1258.42 57.6282 L1258.42 32.9987 L1252.95 32.9987 L1252.95 27.2059 L1258.42 27.2059 L1258.42 14.324 L1265.92 14.324 Z" fill="#000000" fill-rule="nonzero" fill-opacity="1" /><path clip-path="url(#clip520)" d="M1317.36 34.1734 Q1316.11 33.4443 1314.61 33.1202 Q1313.15 32.7556 1311.37 32.7556 Q1305.05 32.7556 1301.65 36.8875 Q1298.28 40.9789 1298.28 48.6757 L1298.28 72.576 L1290.79 72.576 L1290.79 27.2059 L1298.28 27.2059 L1298.28 34.2544 Q1300.63 30.1225 1304.4 28.1376 Q1308.17 26.1121 1313.56 26.1121 Q1314.33 26.1121 1315.26 26.2337 Q1316.19 26.3147 1317.32 26.5172 L1317.36 34.1734 Z" fill="#000000" fill-rule="nonzero" fill-opacity="1" /><path clip-path="url(#clip520)" d="M1340.94 32.4315 Q1334.95 32.4315 1331.46 37.1306 Q1327.98 41.7891 1327.98 49.9314 Q1327.98 58.0738 1331.42 62.7728 Q1334.9 67.4314 1340.94 67.4314 Q1346.9 67.4314 1350.38 62.7323 Q1353.86 58.0333 1353.86 49.9314 Q1353.86 41.8701 1350.38 37.1711 Q1346.9 32.4315 1340.94 32.4315 M1340.94 26.1121 Q1350.66 26.1121 1356.21 32.4315 Q1361.76 38.7509 1361.76 49.9314 Q1361.76 61.0714 1356.21 67.4314 Q1350.66 73.7508 1340.94 73.7508 Q1331.18 73.7508 1325.63 67.4314 Q1320.12 61.0714 1320.12 49.9314 Q1320.12 38.7509 1325.63 32.4315 Q1331.18 26.1121 1340.94 26.1121 Z" fill="#000000" fill-rule="nonzero" fill-opacity="1" /><path clip-path="url(#clip520)" d="M1411.83 45.1919 L1411.83 72.576 L1404.38 72.576 L1404.38 45.4349 Q1404.38 38.994 1401.87 35.7938 Q1399.35 32.5936 1394.33 32.5936 Q1388.3 32.5936 1384.81 36.4419 Q1381.33 40.2903 1381.33 46.9338 L1381.33 72.576 L1373.83 72.576 L1373.83 27.2059 L1381.33 27.2059 L1381.33 34.2544 Q1384 30.163 1387.61 28.1376 Q1391.25 26.1121 1395.99 26.1121 Q1403.81 26.1121 1407.82 30.9732 Q1411.83 35.7938 1411.83 45.1919 Z" fill="#000000" fill-rule="nonzero" fill-opacity="1" /><path clip-path="url(#clip520)" d="M1455.62 28.5427 L1455.62 35.5912 Q1452.46 33.9709 1449.06 33.1607 Q1445.66 32.3505 1442.01 32.3505 Q1436.46 32.3505 1433.67 34.0519 Q1430.91 35.7533 1430.91 39.156 Q1430.91 41.7486 1432.9 43.2475 Q1434.88 44.7058 1440.88 46.0426 L1443.43 46.6097 Q1451.37 48.3111 1454.69 51.4303 Q1458.05 54.509 1458.05 60.0587 Q1458.05 66.3781 1453.03 70.0644 Q1448.05 73.7508 1439.3 73.7508 Q1435.65 73.7508 1431.68 73.0216 Q1427.75 72.3329 1423.38 70.9151 L1423.38 63.2184 Q1427.51 65.3654 1431.52 66.4591 Q1435.53 67.5124 1439.46 67.5124 Q1444.72 67.5124 1447.56 65.73 Q1450.4 63.9071 1450.4 60.6258 Q1450.4 57.5877 1448.33 55.9673 Q1446.3 54.3469 1439.38 52.8481 L1436.78 52.2405 Q1429.86 50.7821 1426.78 47.7845 Q1423.7 44.7463 1423.7 39.4801 Q1423.7 33.0797 1428.24 29.5959 Q1432.77 26.1121 1441.12 26.1121 Q1445.25 26.1121 1448.9 26.7198 Q1452.54 27.3274 1455.62 28.5427 Z" fill="#000000" fill-rule="nonzero" fill-opacity="1" /><path clip-path="url(#clip520)" d="M1525.22 28.5427 L1525.22 35.5912 Q1522.06 33.9709 1518.65 33.1607 Q1515.25 32.3505 1511.61 32.3505 Q1506.06 32.3505 1503.26 34.0519 Q1500.51 35.7533 1500.51 39.156 Q1500.51 41.7486 1502.49 43.2475 Q1504.48 44.7058 1510.47 46.0426 L1513.02 46.6097 Q1520.96 48.3111 1524.28 51.4303 Q1527.65 54.509 1527.65 60.0587 Q1527.65 66.3781 1522.62 70.0644 Q1517.64 73.7508 1508.89 73.7508 Q1505.25 73.7508 1501.28 73.0216 Q1497.35 72.3329 1492.97 70.9151 L1492.97 63.2184 Q1497.1 65.3654 1501.11 66.4591 Q1505.12 67.5124 1509.05 67.5124 Q1514.32 67.5124 1517.15 65.73 Q1519.99 63.9071 1519.99 60.6258 Q1519.99 57.5877 1517.92 55.9673 Q1515.9 54.3469 1508.97 52.8481 L1506.38 52.2405 Q1499.45 50.7821 1496.37 47.7845 Q1493.29 44.7463 1493.29 39.4801 Q1493.29 33.0797 1497.83 29.5959 Q1502.37 26.1121 1510.71 26.1121 Q1514.85 26.1121 1518.49 26.7198 Q1522.14 27.3274 1525.22 28.5427 Z" fill="#000000" fill-rule="nonzero" fill-opacity="1" /><path clip-path="url(#clip520)" d="M1537.25 29.0288 L1569.94 29.0288 L1569.94 32.8771 L1537.25 32.8771 L1537.25 29.0288 Z" fill="#000000" fill-rule="nonzero" fill-opacity="1" /><path clip-path="url(#clip520)" d="M1581.81 41.06 L1590.07 41.06 L1590.07 16.3089 L1581.04 17.9698 L1581.04 13.2708 L1590.35 11.6909 L1595.9 11.6909 L1595.9 41.06 L1604.21 41.06 L1604.21 45.516 L1581.81 45.516 L1581.81 41.06 Z" fill="#000000" fill-rule="nonzero" fill-opacity="1" /><path clip-path="url(#clip520)" d="M1675.59 28.9478 L1675.59 35.9153 Q1672.43 34.1734 1669.23 33.3227 Q1666.07 32.4315 1662.83 32.4315 Q1655.57 32.4315 1651.56 37.0496 Q1647.55 41.6271 1647.55 49.9314 Q1647.55 58.2358 1651.56 62.8538 Q1655.57 67.4314 1662.83 67.4314 Q1666.07 67.4314 1669.23 66.5807 Q1672.43 65.6895 1675.59 63.9476 L1675.59 70.8341 Q1672.47 72.2924 1669.1 73.0216 Q1665.78 73.7508 1662.02 73.7508 Q1651.77 73.7508 1645.73 67.3098 Q1639.69 60.8689 1639.69 49.9314 Q1639.69 38.832 1645.77 32.472 Q1651.89 26.1121 1662.5 26.1121 Q1665.94 26.1121 1669.23 26.8413 Q1672.51 27.5299 1675.59 28.9478 Z" fill="#000000" fill-rule="nonzero" fill-opacity="1" /><path clip-path="url(#clip520)" d="M1723.87 35.9153 Q1726.67 30.8922 1730.56 28.5022 Q1734.45 26.1121 1739.71 26.1121 Q1746.8 26.1121 1750.65 31.0947 Q1754.5 36.0368 1754.5 45.1919 L1754.5 72.576 L1747 72.576 L1747 45.4349 Q1747 38.913 1744.69 35.7533 Q1742.39 32.5936 1737.65 32.5936 Q1731.85 32.5936 1728.49 36.4419 Q1725.13 40.2903 1725.13 46.9338 L1725.13 72.576 L1717.63 72.576 L1717.63 45.4349 Q1717.63 38.8725 1715.32 35.7533 Q1713.02 32.5936 1708.2 32.5936 Q1702.48 32.5936 1699.12 36.4824 Q1695.76 40.3308 1695.76 46.9338 L1695.76 72.576 L1688.26 72.576 L1688.26 27.2059 L1695.76 27.2059 L1695.76 34.2544 Q1698.31 30.082 1701.88 28.0971 Q1705.44 26.1121 1710.34 26.1121 Q1715.28 26.1121 1718.73 28.6237 Q1722.21 31.1352 1723.87 35.9153 Z" fill="#000000" fill-rule="nonzero" fill-opacity="1" /><path clip-path="url(#clip520)" d="M1767.1 29.0288 L1799.79 29.0288 L1799.79 32.8771 L1767.1 32.8771 L1767.1 29.0288 Z" fill="#000000" fill-rule="nonzero" fill-opacity="1" /><path clip-path="url(#clip520)" d="M1816.19 40.8979 L1833.37 40.8979 L1833.37 45.516 L1809.14 45.516 L1809.14 41.06 Q1810.52 39.8042 1813.07 37.5357 Q1827.01 25.1804 1827.01 21.3726 Q1827.01 18.699 1824.9 17.0786 Q1822.8 15.4177 1819.35 15.4177 Q1817.25 15.4177 1814.77 16.1469 Q1812.3 16.8356 1809.39 18.2534 L1809.39 13.2708 Q1812.51 12.1365 1815.18 11.5694 Q1817.89 11.0023 1820.2 11.0023 Q1826.08 11.0023 1829.6 13.6759 Q1833.13 16.3494 1833.13 20.7244 Q1833.13 26.3552 1819.72 37.8598 Q1817.45 39.8042 1816.19 40.8979 Z" fill="#000000" fill-rule="nonzero" fill-opacity="1" /><polyline clip-path="url(#clip522)" style="stroke:#000000; stroke-linecap:round; stroke-linejoin:round; stroke-width:4; stroke-opacity:1; fill:none" points="324.52,1386.4 324.52,1386.4 332.657,1386.4 332.657,1386 340.794,1386 340.794,1385.81 348.931,1385.81 348.931,1386.2 357.068,1386.2 357.068,1386 365.205,1386 365.205,1386.2 373.342,1386.2 373.342,1386.4 381.479,1386.4 381.479,1386.2 389.616,1386.2 389.616,1386 397.753,1386 397.753,1386.4 405.89,1386.4 414.027,1386.4 414.027,1386.2 422.164,1386.2 430.301,1386.2 438.438,1386.2 446.575,1386.2 446.575,1386 454.712,1386 454.712,1386.2 462.849,1386.2 462.849,1385.61 470.986,1385.61 479.123,1385.61 479.123,1386 487.26,1386 495.397,1386 495.397,1385.22 503.534,1385.22 503.534,1386.2 511.671,1386.2 511.671,1385.61 519.808,1385.61 519.808,1386.2 527.945,1386.2 527.945,1386 536.082,1386 536.082,1385.22 544.219,1385.22 544.219,1386 552.356,1386 552.356,1386.4 560.493,1386.4 560.493,1386.2 568.63,1386.2 576.768,1386.2 576.768,1386.4 584.905,1386.4 584.905,1386.2 593.042,1386.2 593.042,1386 601.179,1386 609.316,1386 609.316,1386.2 617.453,1386.2 625.59,1386.2 625.59,1386.4 633.727,1386.4 641.864,1386.4 650.001,1386.4 650.001,1386.2 658.138,1386.2 666.275,1386.2 666.275,1386.4 674.412,1386.4 674.412,1386 682.549,1386 682.549,1386.2 690.686,1386.2 690.686,1386 698.823,1386 698.823,1386.2 706.96,1386.2 706.96,1386 715.097,1386 715.097,1386.4 723.234,1386.4 723.234,1386.2 731.371,1386.2 731.371,1385.22 739.508,1385.22 739.508,1386 747.645,1386 747.645,1386.2 755.782,1386.2 755.782,1386 763.919,1386 763.919,1386.4 772.056,1386.4 772.056,1386.2 780.193,1386.2 780.193,1386.4 788.33,1386.4 788.33,1386.2 796.467,1386.2 804.604,1386.2 804.604,1386.4 812.741,1386.4 812.741,1386.2 820.878,1386.2 820.878,1386.4 829.015,1386.4 829.015,1386.2 837.153,1386.2 837.153,1386.4 845.29,1386.4 845.29,1386.2 853.427,1386.2 861.564,1386.2 861.564,1386.4 869.701,1386.4 869.701,1386 877.838,1386 877.838,1386.2 885.975,1386.2 885.975,1386 894.112,1386 894.112,1386.2 902.249,1386.2 902.249,1386.4 910.386,1386.4 918.523,1386.4 926.66,1386.4 926.66,1386.2 934.797,1386.2 934.797,1386.4 942.934,1386.4 942.934,1386.2 951.071,1386.2 951.071,1386 959.208,1386 959.208,1386.4 967.345,1386.4 967.345,1386.2 975.482,1386.2 975.482,1386.4 983.619,1386.4 991.756,1386.4 999.893,1386.4 999.893,1386.2 1008.03,1386.2 1008.03,1386.4 1016.17,1386.4 1016.17,1386.2 1024.3,1386.2 1024.3,1386.4 1032.44,1386.4 1040.58,1386.4 1040.58,1386.2 1048.72,1386.2 1056.85,1386.2 1056.85,1386.4 1064.99,1386.4 1064.99,1386.2 1073.13,1386.2 1073.13,1386.4 1081.26,1386.4 1089.4,1386.4 1097.54,1386.4 1097.54,1386.2 1105.67,1386.2 1105.67,1386.4 1113.81,1386.4 1113.81,1386.2 1121.95,1386.2 1121.95,1386.4 1130.09,1386.4 1138.22,1386.4 1138.22,1386 1146.36,1386 1146.36,1386.4 1154.5,1386.4 1154.5,1386.2 1162.63,1386.2 1170.77,1386.2 1170.77,1386.4 1178.91,1386.4 1178.91,1386 1187.04,1386 1195.18,1386 1195.18,1386.4 1203.32,1386.4 1211.46,1386.4 1211.46,1386.2 1219.59,1386.2 1227.73,1386.2 1227.73,1386.4 1235.87,1386.4 1244,1386.4 1252.14,1386.4 1252.14,1386.2 1260.28,1386.2 1260.28,1386.4 1268.42,1386.4 1276.55,1386.4 1276.55,1386.2 1284.69,1386.2 1292.83,1386.2 1292.83,1386.4 1300.96,1386.4 1300.96,1386.2 1309.1,1386.2 1309.1,1386.4 1317.24,1386.4 1325.37,1386.4 1333.51,1386.4 1333.51,1386.2 1341.65,1386.2 1341.65,1386 1349.79,1386 1349.79,1386.2 1357.92,1386.2 1366.06,1386.2 1374.2,1386.2 1374.2,1386.4 1382.33,1386.4 1390.47,1386.4 1390.47,1386.2 1398.61,1386.2 1398.61,1386.4 1406.74,1386.4 1406.74,1386 1414.88,1386 1414.88,1386.2 1423.02,1386.2 1423.02,1386.4 1431.16,1386.4 1439.29,1386.4 1439.29,1386.2 1447.43,1386.2 1447.43,1386.4 1455.57,1386.4 1455.57,1386.2 1463.7,1386.2 1471.84,1386.2 1471.84,1386.4 1479.98,1386.4 1488.11,1386.4 1496.25,1386.4 1504.39,1386.4 1512.53,1386.4 1512.53,1386.2 1520.66,1386.2 1520.66,1386.4 1528.8,1386.4 1536.94,1386.4 1545.07,1386.4 1553.21,1386.4 1561.35,1386.4 1569.49,1386.4 1577.62,1386.4 1585.76,1386.4 1593.9,1386.4 1602.03,1386.4 1610.17,1386.4 1610.17,1386 1618.31,1386 1618.31,1386.4 1626.44,1386.4 1626.44,1386 1634.58,1386 1634.58,1386.4 1642.72,1386.4 1650.86,1386.4 1658.99,1386.4 1667.13,1386.4 1667.13,1386.2 1675.27,1386.2 1675.27,1386.4 1683.4,1386.4 1691.54,1386.4 1699.68,1386.4 1707.81,1386.4 1707.81,1386.2 1715.95,1386.2 1715.95,1386.4 1724.09,1386.4 1724.09,1386.2 1732.23,1386.2 1740.36,1386.2 1740.36,1386.4 1748.5,1386.4 1748.5,1386.2 1756.64,1386.2 1764.77,1386.2 1764.77,1386.4 1772.91,1386.4 1781.05,1386.4 1789.19,1386.4 1789.19,1386.2 1797.32,1386.2 1797.32,1386.4 1805.46,1386.4 1813.6,1386.4 1813.6,1386 1821.73,1386 1821.73,1386.2 1829.87,1386.2 1829.87,1386 1838.01,1386 1838.01,1386.4 1846.14,1386.4 1854.28,1386.4 1862.42,1386.4 1870.56,1386.4 1878.69,1386.4 1878.69,1386.2 1886.83,1386.2 1886.83,1386.4 1894.97,1386.4 1903.1,1386.4 1911.24,1386.4 1919.38,1386.4 1927.51,1386.4 1935.65,1386.4 1943.79,1386.4 1951.93,1386.4 1951.93,1386.2 1960.06,1386.2 1960.06,1386.4 1968.2,1386.4 1976.34,1386.4 1984.47,1386.4 1984.47,1386.2 1992.61,1386.2 1992.61,1386.4 2000.75,1386.4 2008.88,1386.4 2017.02,1386.4 2017.02,1386.2 2025.16,1386.2 2025.16,1386.4 2033.3,1386.4 2041.43,1386.4 2049.57,1386.4 2049.57,1386.2 2057.71,1386.2 2057.71,1386.4 2065.84,1386.4 2073.98,1386.4 2082.12,1386.4 2082.12,1386.2 2090.26,1386.2 2090.26,1386.4 2098.39,1386.4 2106.53,1386.4 2114.67,1386.4 2122.8,1386.4 2130.94,1386.4 2130.94,1386.2 2139.08,1386.2 2139.08,1386 2147.21,1386 2147.21,1386.4 2155.35,1386.4 2163.49,1386.4 2171.63,1386.4 2179.76,1386.4 2179.76,1386.2 2187.9,1386.2 2187.9,1386.4 2196.04,1386.4 2196.04,1386 2204.17,1386 2204.17,1386.4 2212.31,1386.4 2212.31,1386.2 2220.45,1386.2 2220.45,1386.4 2228.58,1386.4 2236.72,1386.4 2244.86,1386.4 2253,1386.4 2253,1386.2 2261.13,1386.2 2261.13,1386.4 2269.27,1386.4 2277.41,1386.4 2285.54,1386.4 2293.68,1386.4 "/>
<polyline clip-path="url(#clip522)" style="stroke:#ff0000; stroke-linecap:round; stroke-linejoin:round; stroke-width:4; stroke-opacity:1; fill:none" points="324.52,1386.4 324.52,1386.4 332.657,1386.4 332.657,210.079 340.794,210.079 340.794,160.256 348.931,160.256 348.931,484.886 357.068,484.886 357.068,679.272 365.205,679.272 365.205,800.101 373.342,800.101 373.342,908.768 381.479,908.768 381.479,951.921 389.616,951.921 389.616,1007.04 397.753,1007.04 397.753,1048.04 405.89,1048.04 405.89,1066.87 414.027,1066.87 414.027,1091.19 422.164,1091.19 422.164,1102.37 430.301,1102.37 430.301,1133.16 438.438,1133.16 438.438,1143.36 446.575,1143.36 446.575,1163.96 454.712,1163.96 454.712,1167.69 462.849,1167.69 462.849,1192.01 470.986,1192.01 470.986,1206.53 479.123,1206.53 479.123,1215.16 487.26,1215.16 487.26,1220.65 495.397,1220.65 495.397,1244.97 503.534,1244.97 503.534,1249.48 511.671,1249.48 511.671,1260.86 519.808,1260.86 519.808,1263.02 527.945,1263.02 527.945,1315.59 536.082,1315.59 536.082,1320.69 544.219,1320.69 544.219,1346.38 552.356,1346.38 552.356,1350.5 560.493,1350.5 560.493,1359.92 568.63,1359.92 568.63,1361.48 576.768,1361.48 576.768,1368.15 584.905,1368.15 584.905,1373.25 593.042,1373.25 593.042,1374.04 601.179,1374.04 601.179,1372.27 609.316,1372.27 609.316,1374.82 617.453,1374.82 617.453,1377.96 625.59,1377.96 625.59,1377.18 633.727,1377.18 641.864,1377.18 641.864,1378.94 650.001,1378.94 650.001,1377.77 658.138,1377.77 658.138,1378.35 666.275,1378.35 666.275,1378.94 674.412,1378.94 674.412,1381.1 682.549,1381.1 682.549,1382.47 690.686,1382.47 690.686,1378.94 698.823,1378.94 698.823,1380.9 706.96,1380.9 706.96,1382.47 715.097,1382.47 715.097,1381.3 723.234,1381.3 723.234,1382.47 731.371,1382.47 731.371,1381.69 739.508,1381.69 739.508,1382.86 747.645,1382.86 747.645,1383.45 755.782,1383.45 755.782,1383.26 763.919,1383.26 763.919,1381.88 772.056,1381.88 772.056,1382.47 780.193,1382.47 780.193,1383.85 788.33,1383.85 788.33,1382.08 796.467,1382.08 796.467,1382.28 804.604,1382.28 804.604,1383.45 812.741,1383.45 812.741,1384.24 820.878,1384.24 820.878,1384.83 829.015,1384.83 837.153,1384.83 837.153,1385.02 845.29,1385.02 845.29,1384.24 853.427,1384.24 861.564,1384.24 861.564,1384.43 869.701,1384.43 869.701,1384.63 877.838,1384.63 877.838,1383.85 885.975,1383.85 885.975,1385.61 894.112,1385.61 894.112,1384.83 902.249,1384.83 902.249,1385.61 910.386,1385.61 910.386,1384.24 918.523,1384.24 918.523,1385.41 926.66,1385.41 926.66,1383.65 934.797,1383.65 934.797,1385.02 942.934,1385.02 942.934,1384.63 951.071,1384.63 951.071,1384.83 959.208,1384.83 959.208,1384.63 967.345,1384.63 967.345,1384.83 975.482,1384.83 983.619,1384.83 983.619,1385.61 991.756,1385.61 991.756,1384.63 999.893,1384.63 999.893,1385.22 1008.03,1385.22 1008.03,1385.61 1016.17,1385.61 1016.17,1385.81 1024.3,1385.81 1024.3,1385.41 1032.44,1385.41 1040.58,1385.41 1040.58,1384.83 1048.72,1384.83 1048.72,1385.41 1056.85,1385.41 1056.85,1384.43 1064.99,1384.43 1064.99,1385.61 1073.13,1385.61 1073.13,1385.22 1081.26,1385.22 1081.26,1384.83 1089.4,1384.83 1089.4,1385.41 1097.54,1385.41 1097.54,1386 1105.67,1386 1105.67,1385.41 1113.81,1385.41 1113.81,1385.81 1121.95,1385.81 1121.95,1385.61 1130.09,1385.61 1130.09,1385.81 1138.22,1385.81 1138.22,1385.22 1146.36,1385.22 1146.36,1385.81 1154.5,1385.81 1154.5,1385.22 1162.63,1385.22 1162.63,1385.61 1170.77,1385.61 1170.77,1386 1178.91,1386 1178.91,1385.22 1187.04,1385.22 1187.04,1386 1195.18,1386 1195.18,1385.61 1203.32,1385.61 1203.32,1385.02 1211.46,1385.02 1211.46,1385.81 1219.59,1385.81 1219.59,1385.22 1227.73,1385.22 1227.73,1386.2 1235.87,1386.2 1235.87,1385.61 1244,1385.61 1244,1385.02 1252.14,1385.02 1252.14,1386.4 1260.28,1386.4 1260.28,1385.02 1268.42,1385.02 1268.42,1385.61 1276.55,1385.61 1276.55,1385.81 1284.69,1385.81 1284.69,1385.22 1292.83,1385.22 1292.83,1385.81 1300.96,1385.81 1300.96,1385.61 1309.1,1385.61 1309.1,1386 1317.24,1386 1317.24,1386.2 1325.37,1386.2 1325.37,1385.41 1333.51,1385.41 1333.51,1385.81 1341.65,1385.81 1341.65,1386.2 1349.79,1386.2 1357.92,1386.2 1366.06,1386.2 1366.06,1385.81 1374.2,1385.81 1382.33,1385.81 1382.33,1386.2 1390.47,1386.2 1390.47,1385.81 1398.61,1385.81 1398.61,1386 1406.74,1386 1406.74,1385.81 1414.88,1385.81 1414.88,1386 1423.02,1386 1423.02,1386.2 1431.16,1386.2 1431.16,1386 1439.29,1386 1439.29,1385.81 1447.43,1385.81 1447.43,1386.4 1455.57,1386.4 1455.57,1385.81 1463.7,1385.81 1463.7,1386.2 1471.84,1386.2 1471.84,1386.4 1479.98,1386.4 1479.98,1385.81 1488.11,1385.81 1488.11,1386.4 1496.25,1386.4 1496.25,1386.2 1504.39,1386.2 1512.53,1386.2 1512.53,1385.81 1520.66,1385.81 1528.8,1385.81 1528.8,1386.2 1536.94,1386.2 1536.94,1386.4 1545.07,1386.4 1553.21,1386.4 1561.35,1386.4 1561.35,1386.2 1569.49,1386.2 1569.49,1386.4 1577.62,1386.4 1577.62,1386.2 1585.76,1386.2 1585.76,1385.61 1593.9,1385.61 1593.9,1385.81 1602.03,1385.81 1602.03,1385.41 1610.17,1385.41 1610.17,1386.4 1618.31,1386.4 1626.44,1386.4 1634.58,1386.4 1634.58,1386 1642.72,1386 1642.72,1386.4 1650.86,1386.4 1650.86,1386.2 1658.99,1386.2 1658.99,1385.61 1667.13,1385.61 1675.27,1385.61 1675.27,1386.2 1683.4,1386.2 1683.4,1386 1691.54,1386 1691.54,1386.2 1699.68,1386.2 1707.81,1386.2 1707.81,1386 1715.95,1386 1715.95,1386.4 1724.09,1386.4 1724.09,1386 1732.23,1386 1732.23,1386.2 1740.36,1386.2 1740.36,1386.4 1748.5,1386.4 1748.5,1385.61 1756.64,1385.61 1764.77,1385.61 1764.77,1386.4 1772.91,1386.4 1781.05,1386.4 1789.19,1386.4 1789.19,1385.81 1797.32,1385.81 1805.46,1385.81 1805.46,1386.2 1813.6,1386.2 1821.73,1386.2 1829.87,1386.2 1838.01,1386.2 1838.01,1386.4 1846.14,1386.4 1846.14,1386.2 1854.28,1386.2 1854.28,1386 1862.42,1386 1870.56,1386 1870.56,1386.2 1878.69,1386.2 1878.69,1386.4 1886.83,1386.4 1894.97,1386.4 1903.1,1386.4 1911.24,1386.4 1911.24,1386 1919.38,1386 1919.38,1385.81 1927.51,1385.81 1927.51,1386.2 1935.65,1386.2 1935.65,1386.4 1943.79,1386.4 1943.79,1386 1951.93,1386 1951.93,1386.2 1960.06,1386.2 1960.06,1386 1968.2,1386 1968.2,1386.2 1976.34,1386.2 1976.34,1386.4 1984.47,1386.4 1992.61,1386.4 2000.75,1386.4 2008.88,1386.4 2017.02,1386.4 2017.02,1386.2 2025.16,1386.2 2025.16,1386.4 2033.3,1386.4 2041.43,1386.4 2049.57,1386.4 2057.71,1386.4 2057.71,1385.81 2065.84,1385.81 2065.84,1386 2073.98,1386 2073.98,1386.4 2082.12,1386.4 2082.12,1386.2 2090.26,1386.2 2098.39,1386.2 2098.39,1386.4 2106.53,1386.4 2114.67,1386.4 2114.67,1386.2 2122.8,1386.2 2122.8,1386.4 2130.94,1386.4 2130.94,1386.2 2139.08,1386.2 2139.08,1386.4 2147.21,1386.4 2147.21,1386.2 2155.35,1386.2 2163.49,1386.2 2163.49,1386.4 2171.63,1386.4 2179.76,1386.4 2179.76,1386.2 2187.9,1386.2 2187.9,1386.4 2196.04,1386.4 2204.17,1386.4 2204.17,1386.2 2212.31,1386.2 2212.31,1386 2220.45,1386 2228.58,1386 2228.58,1386.4 2236.72,1386.4 2236.72,1386.2 2244.86,1386.2 2244.86,1386.4 2253,1386.4 2261.13,1386.4 2269.27,1386.4 2277.41,1386.4 2277.41,1386.2 2285.54,1386.2 2285.54,1386 2293.68,1386 2293.68,1386.4 "/>
<path clip-path="url(#clip520)" d="M1659.73 322.316 L2283.18 322.316 L2283.18 166.796 L1659.73 166.796  Z" fill="#ffffff" fill-rule="evenodd" fill-opacity="1"/>
<polyline clip-path="url(#clip520)" style="stroke:#000000; stroke-linecap:round; stroke-linejoin:round; stroke-width:4; stroke-opacity:1; fill:none" points="1659.73,322.316 2283.18,322.316 2283.18,166.796 1659.73,166.796 1659.73,322.316 "/>
<polyline clip-path="url(#clip520)" style="stroke:#000000; stroke-linecap:round; stroke-linejoin:round; stroke-width:4; stroke-opacity:1; fill:none" points="1682.92,218.636 1822.07,218.636 "/>
<path clip-path="url(#clip520)" d="M1873.14 204.018 L1873.14 208.948 Q1870.78 206.749 1868.09 205.661 Q1865.43 204.573 1862.42 204.573 Q1856.49 204.573 1853.35 208.208 Q1850.2 211.819 1850.2 218.67 Q1850.2 225.499 1853.35 229.133 Q1856.49 232.744 1862.42 232.744 Q1865.43 232.744 1868.09 231.656 Q1870.78 230.569 1873.14 228.369 L1873.14 233.254 Q1870.68 234.92 1867.93 235.754 Q1865.2 236.587 1862.14 236.587 Q1854.29 236.587 1849.78 231.795 Q1845.27 226.981 1845.27 218.67 Q1845.27 210.337 1849.78 205.546 Q1854.29 200.731 1862.14 200.731 Q1865.24 200.731 1867.97 201.564 Q1870.73 202.374 1873.14 204.018 Z" fill="#000000" fill-rule="nonzero" fill-opacity="1" /><path clip-path="url(#clip520)" d="M1890.22 212.976 Q1886.79 212.976 1884.8 215.661 Q1882.81 218.323 1882.81 222.976 Q1882.81 227.629 1884.78 230.314 Q1886.77 232.976 1890.22 232.976 Q1893.62 232.976 1895.61 230.291 Q1897.6 227.606 1897.6 222.976 Q1897.6 218.37 1895.61 215.684 Q1893.62 212.976 1890.22 212.976 M1890.22 209.365 Q1895.78 209.365 1898.95 212.976 Q1902.12 216.587 1902.12 222.976 Q1902.12 229.342 1898.95 232.976 Q1895.78 236.587 1890.22 236.587 Q1884.64 236.587 1881.47 232.976 Q1878.32 229.342 1878.32 222.976 Q1878.32 216.587 1881.47 212.976 Q1884.64 209.365 1890.22 209.365 Z" fill="#000000" fill-rule="nonzero" fill-opacity="1" /><path clip-path="url(#clip520)" d="M1924.2 213.971 Q1923.48 213.555 1922.63 213.37 Q1921.79 213.161 1920.78 213.161 Q1917.16 213.161 1915.22 215.522 Q1913.3 217.86 1913.3 222.258 L1913.3 235.916 L1909.02 235.916 L1909.02 209.99 L1913.3 209.99 L1913.3 214.018 Q1914.64 211.657 1916.79 210.522 Q1918.95 209.365 1922.03 209.365 Q1922.47 209.365 1923 209.434 Q1923.53 209.481 1924.18 209.596 L1924.2 213.971 Z" fill="#000000" fill-rule="nonzero" fill-opacity="1" /><path clip-path="url(#clip520)" d="M1942.86 213.971 Q1942.14 213.555 1941.28 213.37 Q1940.45 213.161 1939.43 213.161 Q1935.82 213.161 1933.88 215.522 Q1931.96 217.86 1931.96 222.258 L1931.96 235.916 L1927.67 235.916 L1927.67 209.99 L1931.96 209.99 L1931.96 214.018 Q1933.3 211.657 1935.45 210.522 Q1937.6 209.365 1940.68 209.365 Q1941.12 209.365 1941.65 209.434 Q1942.19 209.481 1942.84 209.596 L1942.86 213.971 Z" fill="#000000" fill-rule="nonzero" fill-opacity="1" /><path clip-path="url(#clip520)" d="M1968.46 221.888 L1968.46 223.971 L1948.88 223.971 Q1949.15 228.369 1951.52 230.684 Q1953.9 232.976 1958.14 232.976 Q1960.59 232.976 1962.88 232.374 Q1965.2 231.772 1967.46 230.569 L1967.46 234.596 Q1965.17 235.568 1962.77 236.078 Q1960.36 236.587 1957.88 236.587 Q1951.68 236.587 1948.04 232.976 Q1944.43 229.365 1944.43 223.207 Q1944.43 216.842 1947.86 213.115 Q1951.31 209.365 1957.14 209.365 Q1962.37 209.365 1965.4 212.745 Q1968.46 216.101 1968.46 221.888 M1964.2 220.638 Q1964.15 217.143 1962.23 215.059 Q1960.34 212.976 1957.19 212.976 Q1953.62 212.976 1951.47 214.99 Q1949.34 217.004 1949.02 220.661 L1964.2 220.638 Z" fill="#000000" fill-rule="nonzero" fill-opacity="1" /><path clip-path="url(#clip520)" d="M1994.11 210.985 L1994.11 214.967 Q1992.3 213.971 1990.47 213.485 Q1988.67 212.976 1986.82 212.976 Q1982.67 212.976 1980.38 215.615 Q1978.09 218.231 1978.09 222.976 Q1978.09 227.721 1980.38 230.36 Q1982.67 232.976 1986.82 232.976 Q1988.67 232.976 1990.47 232.49 Q1992.3 231.981 1994.11 230.985 L1994.11 234.92 Q1992.33 235.754 1990.4 236.17 Q1988.51 236.587 1986.35 236.587 Q1980.5 236.587 1977.05 232.906 Q1973.6 229.226 1973.6 222.976 Q1973.6 216.633 1977.07 212.999 Q1980.57 209.365 1986.63 209.365 Q1988.6 209.365 1990.47 209.782 Q1992.35 210.175 1994.11 210.985 Z" fill="#000000" fill-rule="nonzero" fill-opacity="1" /><path clip-path="url(#clip520)" d="M2005.73 202.629 L2005.73 209.99 L2014.5 209.99 L2014.5 213.3 L2005.73 213.3 L2005.73 227.374 Q2005.73 230.545 2006.59 231.448 Q2007.46 232.351 2010.13 232.351 L2014.5 232.351 L2014.5 235.916 L2010.13 235.916 Q2005.2 235.916 2003.32 234.087 Q2001.45 232.235 2001.45 227.374 L2001.45 213.3 L1998.32 213.3 L1998.32 209.99 L2001.45 209.99 L2001.45 202.629 L2005.73 202.629 Z" fill="#000000" fill-rule="nonzero" fill-opacity="1" /><path clip-path="url(#clip520)" d="M2057.35 221.888 L2057.35 223.971 L2037.77 223.971 Q2038.04 228.369 2040.4 230.684 Q2042.79 232.976 2047.02 232.976 Q2049.48 232.976 2051.77 232.374 Q2054.08 231.772 2056.35 230.569 L2056.35 234.596 Q2054.06 235.568 2051.65 236.078 Q2049.25 236.587 2046.77 236.587 Q2040.57 236.587 2036.93 232.976 Q2033.32 229.365 2033.32 223.207 Q2033.32 216.842 2036.75 213.115 Q2040.2 209.365 2046.03 209.365 Q2051.26 209.365 2054.29 212.745 Q2057.35 216.101 2057.35 221.888 M2053.09 220.638 Q2053.04 217.143 2051.12 215.059 Q2049.22 212.976 2046.08 212.976 Q2042.51 212.976 2040.36 214.99 Q2038.23 217.004 2037.9 220.661 L2053.09 220.638 Z" fill="#000000" fill-rule="nonzero" fill-opacity="1" /><path clip-path="url(#clip520)" d="M2061.28 209.99 L2065.8 209.99 L2073.9 231.749 L2082 209.99 L2086.52 209.99 L2076.79 235.916 L2071.01 235.916 L2061.28 209.99 Z" fill="#000000" fill-rule="nonzero" fill-opacity="1" /><path clip-path="url(#clip520)" d="M2114.57 221.888 L2114.57 223.971 L2094.99 223.971 Q2095.27 228.369 2097.63 230.684 Q2100.01 232.976 2104.25 232.976 Q2106.7 232.976 2108.99 232.374 Q2111.31 231.772 2113.58 230.569 L2113.58 234.596 Q2111.28 235.568 2108.88 236.078 Q2106.47 236.587 2103.99 236.587 Q2097.79 236.587 2094.15 232.976 Q2090.54 229.365 2090.54 223.207 Q2090.54 216.842 2093.97 213.115 Q2097.42 209.365 2103.25 209.365 Q2108.48 209.365 2111.52 212.745 Q2114.57 216.101 2114.57 221.888 M2110.31 220.638 Q2110.27 217.143 2108.34 215.059 Q2106.45 212.976 2103.3 212.976 Q2099.73 212.976 2097.58 214.99 Q2095.45 217.004 2095.13 220.661 L2110.31 220.638 Z" fill="#000000" fill-rule="nonzero" fill-opacity="1" /><path clip-path="url(#clip520)" d="M2143.11 220.268 L2143.11 235.916 L2138.85 235.916 L2138.85 220.407 Q2138.85 216.726 2137.42 214.897 Q2135.98 213.069 2133.11 213.069 Q2129.66 213.069 2127.67 215.268 Q2125.68 217.467 2125.68 221.263 L2125.68 235.916 L2121.4 235.916 L2121.4 209.99 L2125.68 209.99 L2125.68 214.018 Q2127.21 211.68 2129.27 210.522 Q2131.35 209.365 2134.06 209.365 Q2138.53 209.365 2140.82 212.143 Q2143.11 214.897 2143.11 220.268 Z" fill="#000000" fill-rule="nonzero" fill-opacity="1" /><path clip-path="url(#clip520)" d="M2155.82 202.629 L2155.82 209.99 L2164.59 209.99 L2164.59 213.3 L2155.82 213.3 L2155.82 227.374 Q2155.82 230.545 2156.68 231.448 Q2157.56 232.351 2160.22 232.351 L2164.59 232.351 L2164.59 235.916 L2160.22 235.916 Q2155.29 235.916 2153.41 234.087 Q2151.54 232.235 2151.54 227.374 L2151.54 213.3 L2148.41 213.3 L2148.41 209.99 L2151.54 209.99 L2151.54 202.629 L2155.82 202.629 Z" fill="#000000" fill-rule="nonzero" fill-opacity="1" /><path clip-path="url(#clip520)" d="M2186.72 210.754 L2186.72 214.782 Q2184.92 213.856 2182.97 213.393 Q2181.03 212.93 2178.95 212.93 Q2175.77 212.93 2174.18 213.902 Q2172.6 214.874 2172.6 216.819 Q2172.6 218.3 2173.74 219.157 Q2174.87 219.99 2178.3 220.754 L2179.76 221.078 Q2184.29 222.05 2186.19 223.832 Q2188.11 225.592 2188.11 228.763 Q2188.11 232.374 2185.24 234.481 Q2182.39 236.587 2177.39 236.587 Q2175.31 236.587 2173.04 236.17 Q2170.8 235.777 2168.3 234.967 L2168.3 230.569 Q2170.66 231.795 2172.95 232.42 Q2175.24 233.022 2177.49 233.022 Q2180.5 233.022 2182.12 232.004 Q2183.74 230.962 2183.74 229.087 Q2183.74 227.351 2182.56 226.425 Q2181.4 225.499 2177.44 224.643 L2175.96 224.295 Q2172 223.462 2170.24 221.749 Q2168.48 220.013 2168.48 217.004 Q2168.48 213.346 2171.07 211.356 Q2173.67 209.365 2178.44 209.365 Q2180.8 209.365 2182.88 209.712 Q2184.96 210.059 2186.72 210.754 Z" fill="#000000" fill-rule="nonzero" fill-opacity="1" /><polyline clip-path="url(#clip520)" style="stroke:#ff0000; stroke-linecap:round; stroke-linejoin:round; stroke-width:4; stroke-opacity:1; fill:none" points="1682.92,270.476 1822.07,270.476 "/>
<path clip-path="url(#clip520)" d="M1867.51 254.33 L1867.51 258.89 Q1864.85 257.617 1862.49 256.992 Q1860.13 256.367 1857.93 256.367 Q1854.11 256.367 1852.03 257.848 Q1849.97 259.33 1849.97 262.061 Q1849.97 264.353 1851.33 265.534 Q1852.72 266.691 1856.56 267.409 L1859.39 267.987 Q1864.62 268.983 1867.1 271.506 Q1869.6 274.006 1869.6 278.219 Q1869.6 283.242 1866.22 285.834 Q1862.86 288.427 1856.35 288.427 Q1853.9 288.427 1851.12 287.871 Q1848.37 287.316 1845.41 286.228 L1845.41 281.413 Q1848.25 283.01 1850.98 283.821 Q1853.72 284.631 1856.35 284.631 Q1860.36 284.631 1862.53 283.057 Q1864.71 281.483 1864.71 278.566 Q1864.71 276.02 1863.14 274.584 Q1861.59 273.149 1858.02 272.432 L1855.17 271.876 Q1849.94 270.835 1847.6 268.612 Q1845.27 266.39 1845.27 262.432 Q1845.27 257.848 1848.48 255.21 Q1851.72 252.571 1857.4 252.571 Q1859.83 252.571 1862.35 253.011 Q1864.87 253.45 1867.51 254.33 Z" fill="#000000" fill-rule="nonzero" fill-opacity="1" /><path clip-path="url(#clip520)" d="M1880.91 254.469 L1880.91 261.83 L1889.69 261.83 L1889.69 265.14 L1880.91 265.14 L1880.91 279.214 Q1880.91 282.385 1881.77 283.288 Q1882.65 284.191 1885.31 284.191 L1889.69 284.191 L1889.69 287.756 L1885.31 287.756 Q1880.38 287.756 1878.51 285.927 Q1876.63 284.075 1876.63 279.214 L1876.63 265.14 L1873.51 265.14 L1873.51 261.83 L1876.63 261.83 L1876.63 254.469 L1880.91 254.469 Z" fill="#000000" fill-rule="nonzero" fill-opacity="1" /><path clip-path="url(#clip520)" d="M1905.34 264.816 Q1901.91 264.816 1899.92 267.501 Q1897.93 270.163 1897.93 274.816 Q1897.93 279.469 1899.9 282.154 Q1901.89 284.816 1905.34 284.816 Q1908.74 284.816 1910.73 282.131 Q1912.72 279.446 1912.72 274.816 Q1912.72 270.21 1910.73 267.524 Q1908.74 264.816 1905.34 264.816 M1905.34 261.205 Q1910.89 261.205 1914.06 264.816 Q1917.23 268.427 1917.23 274.816 Q1917.23 281.182 1914.06 284.816 Q1910.89 288.427 1905.34 288.427 Q1899.76 288.427 1896.59 284.816 Q1893.44 281.182 1893.44 274.816 Q1893.44 268.427 1896.59 264.816 Q1899.76 261.205 1905.34 261.205 Z" fill="#000000" fill-rule="nonzero" fill-opacity="1" /><path clip-path="url(#clip520)" d="M1942.95 262.825 L1942.95 266.807 Q1941.15 265.811 1939.32 265.325 Q1937.51 264.816 1935.66 264.816 Q1931.52 264.816 1929.22 267.455 Q1926.93 270.071 1926.93 274.816 Q1926.93 279.561 1929.22 282.2 Q1931.52 284.816 1935.66 284.816 Q1937.51 284.816 1939.32 284.33 Q1941.15 283.821 1942.95 282.825 L1942.95 286.76 Q1941.17 287.594 1939.25 288.01 Q1937.35 288.427 1935.2 288.427 Q1929.34 288.427 1925.89 284.746 Q1922.44 281.066 1922.44 274.816 Q1922.44 268.473 1925.91 264.839 Q1929.41 261.205 1935.47 261.205 Q1937.44 261.205 1939.32 261.622 Q1941.19 262.015 1942.95 262.825 Z" fill="#000000" fill-rule="nonzero" fill-opacity="1" /><path clip-path="url(#clip520)" d="M1971.91 272.108 L1971.91 287.756 L1967.65 287.756 L1967.65 272.247 Q1967.65 268.566 1966.21 266.737 Q1964.78 264.909 1961.91 264.909 Q1958.46 264.909 1956.47 267.108 Q1954.48 269.307 1954.48 273.103 L1954.48 287.756 L1950.2 287.756 L1950.2 251.737 L1954.48 251.737 L1954.48 265.858 Q1956.01 263.52 1958.07 262.362 Q1960.15 261.205 1962.86 261.205 Q1967.33 261.205 1969.62 263.983 Q1971.91 266.737 1971.91 272.108 Z" fill="#000000" fill-rule="nonzero" fill-opacity="1" /><path clip-path="url(#clip520)" d="M1992.19 274.723 Q1987.03 274.723 1985.03 275.904 Q1983.04 277.084 1983.04 279.932 Q1983.04 282.2 1984.53 283.543 Q1986.03 284.862 1988.6 284.862 Q1992.14 284.862 1994.27 282.362 Q1996.42 279.839 1996.42 275.672 L1996.42 274.723 L1992.19 274.723 M2000.68 272.964 L2000.68 287.756 L1996.42 287.756 L1996.42 283.821 Q1994.96 286.182 1992.79 287.316 Q1990.61 288.427 1987.46 288.427 Q1983.48 288.427 1981.12 286.205 Q1978.78 283.959 1978.78 280.209 Q1978.78 275.834 1981.7 273.612 Q1984.64 271.39 1990.45 271.39 L1996.42 271.39 L1996.42 270.973 Q1996.42 268.034 1994.48 266.436 Q1992.56 264.816 1989.06 264.816 Q1986.84 264.816 1984.73 265.348 Q1982.63 265.881 1980.68 266.946 L1980.68 263.01 Q1983.02 262.108 1985.22 261.668 Q1987.42 261.205 1989.5 261.205 Q1995.13 261.205 1997.9 264.122 Q2000.68 267.038 2000.68 272.964 Z" fill="#000000" fill-rule="nonzero" fill-opacity="1" /><path clip-path="url(#clip520)" d="M2025.98 262.594 L2025.98 266.622 Q2024.18 265.696 2022.23 265.233 Q2020.29 264.77 2018.21 264.77 Q2015.03 264.77 2013.44 265.742 Q2011.86 266.714 2011.86 268.659 Q2011.86 270.14 2013 270.997 Q2014.13 271.83 2017.56 272.594 L2019.02 272.918 Q2023.55 273.89 2025.45 275.672 Q2027.37 277.432 2027.37 280.603 Q2027.37 284.214 2024.5 286.321 Q2021.65 288.427 2016.65 288.427 Q2014.57 288.427 2012.3 288.01 Q2010.06 287.617 2007.56 286.807 L2007.56 282.409 Q2009.92 283.635 2012.21 284.26 Q2014.5 284.862 2016.75 284.862 Q2019.76 284.862 2021.38 283.844 Q2023 282.802 2023 280.927 Q2023 279.191 2021.82 278.265 Q2020.66 277.339 2016.7 276.483 L2015.22 276.135 Q2011.26 275.302 2009.5 273.589 Q2007.74 271.853 2007.74 268.844 Q2007.74 265.186 2010.34 263.196 Q2012.93 261.205 2017.7 261.205 Q2020.06 261.205 2022.14 261.552 Q2024.22 261.899 2025.98 262.594 Z" fill="#000000" fill-rule="nonzero" fill-opacity="1" /><path clip-path="url(#clip520)" d="M2038.37 254.469 L2038.37 261.83 L2047.14 261.83 L2047.14 265.14 L2038.37 265.14 L2038.37 279.214 Q2038.37 282.385 2039.22 283.288 Q2040.1 284.191 2042.77 284.191 L2047.14 284.191 L2047.14 287.756 L2042.77 287.756 Q2037.83 287.756 2035.96 285.927 Q2034.08 284.075 2034.08 279.214 L2034.08 265.14 L2030.96 265.14 L2030.96 261.83 L2034.08 261.83 L2034.08 254.469 L2038.37 254.469 Z" fill="#000000" fill-rule="nonzero" fill-opacity="1" /><path clip-path="url(#clip520)" d="M2052.74 261.83 L2057 261.83 L2057 287.756 L2052.74 287.756 L2052.74 261.83 M2052.74 251.737 L2057 251.737 L2057 257.131 L2052.74 257.131 L2052.74 251.737 Z" fill="#000000" fill-rule="nonzero" fill-opacity="1" /><path clip-path="url(#clip520)" d="M2084.57 262.825 L2084.57 266.807 Q2082.77 265.811 2080.94 265.325 Q2079.13 264.816 2077.28 264.816 Q2073.14 264.816 2070.84 267.455 Q2068.55 270.071 2068.55 274.816 Q2068.55 279.561 2070.84 282.2 Q2073.14 284.816 2077.28 284.816 Q2079.13 284.816 2080.94 284.33 Q2082.77 283.821 2084.57 282.825 L2084.57 286.76 Q2082.79 287.594 2080.87 288.01 Q2078.97 288.427 2076.82 288.427 Q2070.96 288.427 2067.51 284.746 Q2064.06 281.066 2064.06 274.816 Q2064.06 268.473 2067.53 264.839 Q2071.03 261.205 2077.09 261.205 Q2079.06 261.205 2080.94 261.622 Q2082.81 262.015 2084.57 262.825 Z" fill="#000000" fill-rule="nonzero" fill-opacity="1" /><path clip-path="url(#clip520)" d="M2129.22 273.728 L2129.22 275.811 L2109.64 275.811 Q2109.92 280.209 2112.28 282.524 Q2114.66 284.816 2118.9 284.816 Q2121.35 284.816 2123.64 284.214 Q2125.96 283.612 2128.23 282.409 L2128.23 286.436 Q2125.94 287.408 2123.53 287.918 Q2121.12 288.427 2118.64 288.427 Q2112.44 288.427 2108.81 284.816 Q2105.2 281.205 2105.2 275.047 Q2105.2 268.682 2108.62 264.955 Q2112.07 261.205 2117.9 261.205 Q2123.14 261.205 2126.17 264.585 Q2129.22 267.941 2129.22 273.728 M2124.96 272.478 Q2124.92 268.983 2123 266.899 Q2121.1 264.816 2117.95 264.816 Q2114.39 264.816 2112.23 266.83 Q2110.1 268.844 2109.78 272.501 L2124.96 272.478 Z" fill="#000000" fill-rule="nonzero" fill-opacity="1" /><path clip-path="url(#clip520)" d="M2133.16 261.83 L2137.67 261.83 L2145.77 283.589 L2153.88 261.83 L2158.39 261.83 L2148.67 287.756 L2142.88 287.756 L2133.16 261.83 Z" fill="#000000" fill-rule="nonzero" fill-opacity="1" /><path clip-path="url(#clip520)" d="M2186.45 273.728 L2186.45 275.811 L2166.86 275.811 Q2167.14 280.209 2169.5 282.524 Q2171.89 284.816 2176.12 284.816 Q2178.57 284.816 2180.87 284.214 Q2183.18 283.612 2185.45 282.409 L2185.45 286.436 Q2183.16 287.408 2180.75 287.918 Q2178.34 288.427 2175.87 288.427 Q2169.66 288.427 2166.03 284.816 Q2162.42 281.205 2162.42 275.047 Q2162.42 268.682 2165.84 264.955 Q2169.29 261.205 2175.13 261.205 Q2180.36 261.205 2183.39 264.585 Q2186.45 267.941 2186.45 273.728 M2182.19 272.478 Q2182.14 268.983 2180.22 266.899 Q2178.32 264.816 2175.17 264.816 Q2171.61 264.816 2169.45 266.83 Q2167.32 268.844 2167 272.501 L2182.19 272.478 Z" fill="#000000" fill-rule="nonzero" fill-opacity="1" /><path clip-path="url(#clip520)" d="M2214.99 272.108 L2214.99 287.756 L2210.73 287.756 L2210.73 272.247 Q2210.73 268.566 2209.29 266.737 Q2207.86 264.909 2204.99 264.909 Q2201.54 264.909 2199.55 267.108 Q2197.56 269.307 2197.56 273.103 L2197.56 287.756 L2193.27 287.756 L2193.27 261.83 L2197.56 261.83 L2197.56 265.858 Q2199.08 263.52 2201.14 262.362 Q2203.23 261.205 2205.94 261.205 Q2210.4 261.205 2212.7 263.983 Q2214.99 266.737 2214.99 272.108 Z" fill="#000000" fill-rule="nonzero" fill-opacity="1" /><path clip-path="url(#clip520)" d="M2227.7 254.469 L2227.7 261.83 L2236.47 261.83 L2236.47 265.14 L2227.7 265.14 L2227.7 279.214 Q2227.7 282.385 2228.55 283.288 Q2229.43 284.191 2232.09 284.191 L2236.47 284.191 L2236.47 287.756 L2232.09 287.756 Q2227.16 287.756 2225.29 285.927 Q2223.41 284.075 2223.41 279.214 L2223.41 265.14 L2220.29 265.14 L2220.29 261.83 L2223.41 261.83 L2223.41 254.469 L2227.7 254.469 Z" fill="#000000" fill-rule="nonzero" fill-opacity="1" /><path clip-path="url(#clip520)" d="M2258.6 262.594 L2258.6 266.622 Q2256.79 265.696 2254.85 265.233 Q2252.9 264.77 2250.82 264.77 Q2247.65 264.77 2246.05 265.742 Q2244.48 266.714 2244.48 268.659 Q2244.48 270.14 2245.61 270.997 Q2246.75 271.83 2250.17 272.594 L2251.63 272.918 Q2256.17 273.89 2258.07 275.672 Q2259.99 277.432 2259.99 280.603 Q2259.99 284.214 2257.12 286.321 Q2254.27 288.427 2249.27 288.427 Q2247.19 288.427 2244.92 288.01 Q2242.67 287.617 2240.17 286.807 L2240.17 282.409 Q2242.53 283.635 2244.82 284.26 Q2247.12 284.862 2249.36 284.862 Q2252.37 284.862 2253.99 283.844 Q2255.61 282.802 2255.61 280.927 Q2255.61 279.191 2254.43 278.265 Q2253.27 277.339 2249.32 276.483 L2247.83 276.135 Q2243.88 275.302 2242.12 273.589 Q2240.36 271.853 2240.36 268.844 Q2240.36 265.186 2242.95 263.196 Q2245.54 261.205 2250.31 261.205 Q2252.67 261.205 2254.76 261.552 Q2256.84 261.899 2258.6 262.594 Z" fill="#000000" fill-rule="nonzero" fill-opacity="1" /></svg>
