<?xml version="1.0" encoding="utf-8"?>
<svg xmlns="http://www.w3.org/2000/svg" xmlns:xlink="http://www.w3.org/1999/xlink" width="600" height="400" viewBox="0 0 2400 1600">
<defs>
  <clipPath id="clip550">
    <rect x="0" y="0" width="2400" height="1600"/>
  </clipPath>
</defs>
<path clip-path="url(#clip550)" d="M0 1600 L2400 1600 L2400 0 L0 0  Z" fill="#ffffff" fill-rule="evenodd" fill-opacity="1"/>
<defs>
  <clipPath id="clip551">
    <rect x="480" y="0" width="1681" height="1600"/>
  </clipPath>
</defs>
<path clip-path="url(#clip550)" d="M235.283 1423.18 L2352.76 1423.18 L2352.76 123.472 L235.283 123.472  Z" fill="#ffffff" fill-rule="evenodd" fill-opacity="1"/>
<defs>
  <clipPath id="clip552">
    <rect x="235" y="123" width="2118" height="1301"/>
  </clipPath>
</defs>
<polyline clip-path="url(#clip552)" style="stroke:#000000; stroke-linecap:round; stroke-linejoin:round; stroke-width:2; stroke-opacity:0.1; fill:none" points="295.211,1423.18 295.211,123.472 "/>
<polyline clip-path="url(#clip552)" style="stroke:#000000; stroke-linecap:round; stroke-linejoin:round; stroke-width:2; stroke-opacity:0.1; fill:none" points="707.942,1423.18 707.942,123.472 "/>
<polyline clip-path="url(#clip552)" style="stroke:#000000; stroke-linecap:round; stroke-linejoin:round; stroke-width:2; stroke-opacity:0.1; fill:none" points="1120.67,1423.18 1120.67,123.472 "/>
<polyline clip-path="url(#clip552)" style="stroke:#000000; stroke-linecap:round; stroke-linejoin:round; stroke-width:2; stroke-opacity:0.1; fill:none" points="1533.4,1423.18 1533.4,123.472 "/>
<polyline clip-path="url(#clip552)" style="stroke:#000000; stroke-linecap:round; stroke-linejoin:round; stroke-width:2; stroke-opacity:0.1; fill:none" points="1946.13,1423.18 1946.13,123.472 "/>
<polyline clip-path="url(#clip552)" style="stroke:#000000; stroke-linecap:round; stroke-linejoin:round; stroke-width:2; stroke-opacity:0.1; fill:none" points="235.283,1386.4 2352.76,1386.4 "/>
<polyline clip-path="url(#clip552)" style="stroke:#000000; stroke-linecap:round; stroke-linejoin:round; stroke-width:2; stroke-opacity:0.1; fill:none" points="235.283,1167.44 2352.76,1167.44 "/>
<polyline clip-path="url(#clip552)" style="stroke:#000000; stroke-linecap:round; stroke-linejoin:round; stroke-width:2; stroke-opacity:0.1; fill:none" points="235.283,948.489 2352.76,948.489 "/>
<polyline clip-path="url(#clip552)" style="stroke:#000000; stroke-linecap:round; stroke-linejoin:round; stroke-width:2; stroke-opacity:0.1; fill:none" points="235.283,729.535 2352.76,729.535 "/>
<polyline clip-path="url(#clip552)" style="stroke:#000000; stroke-linecap:round; stroke-linejoin:round; stroke-width:2; stroke-opacity:0.1; fill:none" points="235.283,510.582 2352.76,510.582 "/>
<polyline clip-path="url(#clip552)" style="stroke:#000000; stroke-linecap:round; stroke-linejoin:round; stroke-width:2; stroke-opacity:0.1; fill:none" points="235.283,291.628 2352.76,291.628 "/>
<polyline clip-path="url(#clip550)" style="stroke:#000000; stroke-linecap:round; stroke-linejoin:round; stroke-width:4; stroke-opacity:1; fill:none" points="235.283,1423.18 2352.76,1423.18 "/>
<polyline clip-path="url(#clip550)" style="stroke:#000000; stroke-linecap:round; stroke-linejoin:round; stroke-width:4; stroke-opacity:1; fill:none" points="295.211,1423.18 295.211,1404.28 "/>
<polyline clip-path="url(#clip550)" style="stroke:#000000; stroke-linecap:round; stroke-linejoin:round; stroke-width:4; stroke-opacity:1; fill:none" points="707.942,1423.18 707.942,1404.28 "/>
<polyline clip-path="url(#clip550)" style="stroke:#000000; stroke-linecap:round; stroke-linejoin:round; stroke-width:4; stroke-opacity:1; fill:none" points="1120.67,1423.18 1120.67,1404.28 "/>
<polyline clip-path="url(#clip550)" style="stroke:#000000; stroke-linecap:round; stroke-linejoin:round; stroke-width:4; stroke-opacity:1; fill:none" points="1533.4,1423.18 1533.4,1404.28 "/>
<polyline clip-path="url(#clip550)" style="stroke:#000000; stroke-linecap:round; stroke-linejoin:round; stroke-width:4; stroke-opacity:1; fill:none" points="1946.13,1423.18 1946.13,1404.28 "/>
<path clip-path="url(#clip550)" d="M295.211 1454.1 Q291.6 1454.1 289.772 1457.66 Q287.966 1461.2 287.966 1468.33 Q287.966 1475.44 289.772 1479.01 Q291.6 1482.55 295.211 1482.55 Q298.846 1482.55 300.651 1479.01 Q302.48 1475.44 302.48 1468.33 Q302.48 1461.2 300.651 1457.66 Q298.846 1454.1 295.211 1454.1 M295.211 1450.39 Q301.021 1450.39 304.077 1455 Q307.156 1459.58 307.156 1468.33 Q307.156 1477.06 304.077 1481.67 Q301.021 1486.25 295.211 1486.25 Q289.401 1486.25 286.322 1481.67 Q283.267 1477.06 283.267 1468.33 Q283.267 1459.58 286.322 1455 Q289.401 1450.39 295.211 1450.39 Z" fill="#000000" fill-rule="nonzero" fill-opacity="1" /><path clip-path="url(#clip550)" d="M682.641 1451.02 L700.998 1451.02 L700.998 1454.96 L686.924 1454.96 L686.924 1463.43 Q687.942 1463.08 688.961 1462.92 Q689.979 1462.73 690.998 1462.73 Q696.785 1462.73 700.164 1465.9 Q703.544 1469.08 703.544 1474.49 Q703.544 1480.07 700.072 1483.17 Q696.599 1486.25 690.28 1486.25 Q688.104 1486.25 685.836 1485.88 Q683.59 1485.51 681.183 1484.77 L681.183 1480.07 Q683.266 1481.2 685.488 1481.76 Q687.711 1482.32 690.187 1482.32 Q694.192 1482.32 696.53 1480.21 Q698.868 1478.1 698.868 1474.49 Q698.868 1470.88 696.53 1468.77 Q694.192 1466.67 690.187 1466.67 Q688.312 1466.67 686.437 1467.08 Q684.586 1467.5 682.641 1468.38 L682.641 1451.02 Z" fill="#000000" fill-rule="nonzero" fill-opacity="1" /><path clip-path="url(#clip550)" d="M722.757 1454.1 Q719.146 1454.1 717.317 1457.66 Q715.511 1461.2 715.511 1468.33 Q715.511 1475.44 717.317 1479.01 Q719.146 1482.55 722.757 1482.55 Q726.391 1482.55 728.196 1479.01 Q730.025 1475.44 730.025 1468.33 Q730.025 1461.2 728.196 1457.66 Q726.391 1454.1 722.757 1454.1 M722.757 1450.39 Q728.567 1450.39 731.622 1455 Q734.701 1459.58 734.701 1468.33 Q734.701 1477.06 731.622 1481.67 Q728.567 1486.25 722.757 1486.25 Q716.947 1486.25 713.868 1481.67 Q710.812 1477.06 710.812 1468.33 Q710.812 1459.58 713.868 1455 Q716.947 1450.39 722.757 1450.39 Z" fill="#000000" fill-rule="nonzero" fill-opacity="1" /><path clip-path="url(#clip550)" d="M1080.28 1481.64 L1087.92 1481.64 L1087.92 1455.28 L1079.61 1456.95 L1079.61 1452.69 L1087.87 1451.02 L1092.55 1451.02 L1092.55 1481.64 L1100.19 1481.64 L1100.19 1485.58 L1080.28 1485.58 L1080.28 1481.64 Z" fill="#000000" fill-rule="nonzero" fill-opacity="1" /><path clip-path="url(#clip550)" d="M1119.63 1454.1 Q1116.02 1454.1 1114.19 1457.66 Q1112.39 1461.2 1112.39 1468.33 Q1112.39 1475.44 1114.19 1479.01 Q1116.02 1482.55 1119.63 1482.55 Q1123.27 1482.55 1125.07 1479.01 Q1126.9 1475.44 1126.9 1468.33 Q1126.9 1461.2 1125.07 1457.66 Q1123.27 1454.1 1119.63 1454.1 M1119.63 1450.39 Q1125.44 1450.39 1128.5 1455 Q1131.58 1459.58 1131.58 1468.33 Q1131.58 1477.06 1128.5 1481.67 Q1125.44 1486.25 1119.63 1486.25 Q1113.82 1486.25 1110.74 1481.67 Q1107.69 1477.06 1107.69 1468.33 Q1107.69 1459.58 1110.74 1455 Q1113.82 1450.39 1119.63 1450.39 Z" fill="#000000" fill-rule="nonzero" fill-opacity="1" /><path clip-path="url(#clip550)" d="M1149.79 1454.1 Q1146.18 1454.1 1144.35 1457.66 Q1142.55 1461.2 1142.55 1468.33 Q1142.55 1475.44 1144.35 1479.01 Q1146.18 1482.55 1149.79 1482.55 Q1153.43 1482.55 1155.23 1479.01 Q1157.06 1475.44 1157.06 1468.33 Q1157.06 1461.2 1155.23 1457.66 Q1153.43 1454.1 1149.79 1454.1 M1149.79 1450.39 Q1155.6 1450.39 1158.66 1455 Q1161.74 1459.58 1161.74 1468.33 Q1161.74 1477.06 1158.66 1481.67 Q1155.6 1486.25 1149.79 1486.25 Q1143.98 1486.25 1140.9 1481.67 Q1137.85 1477.06 1137.85 1468.33 Q1137.85 1459.58 1140.9 1455 Q1143.98 1450.39 1149.79 1450.39 Z" fill="#000000" fill-rule="nonzero" fill-opacity="1" /><path clip-path="url(#clip550)" d="M1493.01 1481.64 L1500.65 1481.64 L1500.65 1455.28 L1492.34 1456.95 L1492.34 1452.69 L1500.6 1451.02 L1505.28 1451.02 L1505.28 1481.64 L1512.92 1481.64 L1512.92 1485.58 L1493.01 1485.58 L1493.01 1481.64 Z" fill="#000000" fill-rule="nonzero" fill-opacity="1" /><path clip-path="url(#clip550)" d="M1522.41 1451.02 L1540.76 1451.02 L1540.76 1454.96 L1526.69 1454.96 L1526.69 1463.43 Q1527.71 1463.08 1528.73 1462.92 Q1529.75 1462.73 1530.76 1462.73 Q1536.55 1462.73 1539.93 1465.9 Q1543.31 1469.08 1543.31 1474.49 Q1543.31 1480.07 1539.84 1483.17 Q1536.37 1486.25 1530.05 1486.25 Q1527.87 1486.25 1525.6 1485.88 Q1523.36 1485.51 1520.95 1484.77 L1520.95 1480.07 Q1523.03 1481.2 1525.26 1481.76 Q1527.48 1482.32 1529.95 1482.32 Q1533.96 1482.32 1536.3 1480.21 Q1538.63 1478.1 1538.63 1474.49 Q1538.63 1470.88 1536.3 1468.77 Q1533.96 1466.67 1529.95 1466.67 Q1528.08 1466.67 1526.2 1467.08 Q1524.35 1467.5 1522.41 1468.38 L1522.41 1451.02 Z" fill="#000000" fill-rule="nonzero" fill-opacity="1" /><path clip-path="url(#clip550)" d="M1562.52 1454.1 Q1558.91 1454.1 1557.08 1457.66 Q1555.28 1461.2 1555.28 1468.33 Q1555.28 1475.44 1557.08 1479.01 Q1558.91 1482.55 1562.52 1482.55 Q1566.16 1482.55 1567.96 1479.01 Q1569.79 1475.44 1569.79 1468.33 Q1569.79 1461.2 1567.96 1457.66 Q1566.16 1454.1 1562.52 1454.1 M1562.52 1450.39 Q1568.33 1450.39 1571.39 1455 Q1574.47 1459.58 1574.47 1468.33 Q1574.47 1477.06 1571.39 1481.67 Q1568.33 1486.25 1562.52 1486.25 Q1556.71 1486.25 1553.63 1481.67 Q1550.58 1477.06 1550.58 1468.33 Q1550.58 1459.58 1553.63 1455 Q1556.71 1450.39 1562.52 1450.39 Z" fill="#000000" fill-rule="nonzero" fill-opacity="1" /><path clip-path="url(#clip550)" d="M1909.83 1481.64 L1926.15 1481.64 L1926.15 1485.58 L1904.2 1485.58 L1904.2 1481.64 Q1906.86 1478.89 1911.45 1474.26 Q1916.05 1469.61 1917.23 1468.27 Q1919.48 1465.74 1920.36 1464.01 Q1921.26 1462.25 1921.26 1460.56 Q1921.26 1457.8 1919.32 1456.07 Q1917.4 1454.33 1914.29 1454.33 Q1912.09 1454.33 1909.64 1455.09 Q1907.21 1455.86 1904.43 1457.41 L1904.43 1452.69 Q1907.26 1451.55 1909.71 1450.97 Q1912.16 1450.39 1914.2 1450.39 Q1919.57 1450.39 1922.77 1453.08 Q1925.96 1455.77 1925.96 1460.26 Q1925.96 1462.39 1925.15 1464.31 Q1924.36 1466.2 1922.26 1468.8 Q1921.68 1469.47 1918.58 1472.69 Q1915.47 1475.88 1909.83 1481.64 Z" fill="#000000" fill-rule="nonzero" fill-opacity="1" /><path clip-path="url(#clip550)" d="M1945.96 1454.1 Q1942.35 1454.1 1940.52 1457.66 Q1938.71 1461.2 1938.71 1468.33 Q1938.71 1475.44 1940.52 1479.01 Q1942.35 1482.55 1945.96 1482.55 Q1949.59 1482.55 1951.4 1479.01 Q1953.23 1475.44 1953.23 1468.33 Q1953.23 1461.2 1951.4 1457.66 Q1949.59 1454.1 1945.96 1454.1 M1945.96 1450.39 Q1951.77 1450.39 1954.83 1455 Q1957.9 1459.58 1957.9 1468.33 Q1957.9 1477.06 1954.83 1481.67 Q1951.77 1486.25 1945.96 1486.25 Q1940.15 1486.25 1937.07 1481.67 Q1934.02 1477.06 1934.02 1468.33 Q1934.02 1459.58 1937.07 1455 Q1940.15 1450.39 1945.96 1450.39 Z" fill="#000000" fill-rule="nonzero" fill-opacity="1" /><path clip-path="url(#clip550)" d="M1976.12 1454.1 Q1972.51 1454.1 1970.68 1457.66 Q1968.88 1461.2 1968.88 1468.33 Q1968.88 1475.44 1970.68 1479.01 Q1972.51 1482.55 1976.12 1482.55 Q1979.76 1482.55 1981.56 1479.01 Q1983.39 1475.44 1983.39 1468.33 Q1983.39 1461.2 1981.56 1457.66 Q1979.76 1454.1 1976.12 1454.1 M1976.12 1450.39 Q1981.93 1450.39 1984.99 1455 Q1988.07 1459.58 1988.07 1468.33 Q1988.07 1477.06 1984.99 1481.67 Q1981.93 1486.25 1976.12 1486.25 Q1970.31 1486.25 1967.23 1481.67 Q1964.18 1477.06 1964.18 1468.33 Q1964.18 1459.58 1967.23 1455 Q1970.31 1450.39 1976.12 1450.39 Z" fill="#000000" fill-rule="nonzero" fill-opacity="1" /><path clip-path="url(#clip550)" d="M796.094 1524.18 L796.094 1530.96 Q792.847 1527.94 789.155 1526.44 Q785.495 1524.95 781.357 1524.95 Q773.209 1524.95 768.88 1529.95 Q764.552 1534.91 764.552 1544.33 Q764.552 1553.72 768.88 1558.72 Q773.209 1563.68 781.357 1563.68 Q785.495 1563.68 789.155 1562.19 Q792.847 1560.69 796.094 1557.67 L796.094 1564.38 Q792.72 1566.68 788.932 1567.82 Q785.177 1568.97 780.975 1568.97 Q770.185 1568.97 763.979 1562.38 Q757.772 1555.76 757.772 1544.33 Q757.772 1532.87 763.979 1526.28 Q770.185 1519.66 780.975 1519.66 Q785.24 1519.66 788.996 1520.81 Q792.784 1521.92 796.094 1524.18 Z" fill="#000000" fill-rule="nonzero" fill-opacity="1" /><path clip-path="url(#clip550)" d="M821.97 1550.12 Q814.873 1550.12 812.135 1551.75 Q809.398 1553.37 809.398 1557.29 Q809.398 1560.4 811.435 1562.25 Q813.504 1564.07 817.037 1564.07 Q821.907 1564.07 824.835 1560.63 Q827.795 1557.16 827.795 1551.43 L827.795 1550.12 L821.97 1550.12 M833.651 1547.71 L833.651 1568.04 L827.795 1568.04 L827.795 1562.63 Q825.79 1565.88 822.798 1567.44 Q819.806 1568.97 815.477 1568.97 Q810.003 1568.97 806.756 1565.91 Q803.542 1562.82 803.542 1557.67 Q803.542 1551.65 807.552 1548.6 Q811.594 1545.54 819.583 1545.54 L827.795 1545.54 L827.795 1544.97 Q827.795 1540.93 825.121 1538.73 Q822.48 1536.5 817.674 1536.5 Q814.618 1536.5 811.722 1537.23 Q808.825 1537.97 806.152 1539.43 L806.152 1534.02 Q809.366 1532.78 812.39 1532.17 Q815.414 1531.54 818.278 1531.54 Q826.013 1531.54 829.832 1535.55 Q833.651 1539.56 833.651 1547.71 Z" fill="#000000" fill-rule="nonzero" fill-opacity="1" /><path clip-path="url(#clip550)" d="M845.714 1518.52 L851.571 1518.52 L851.571 1568.04 L845.714 1568.04 L845.714 1518.52 Z" fill="#000000" fill-rule="nonzero" fill-opacity="1" /><path clip-path="url(#clip550)" d="M889.479 1533.76 L889.479 1539.24 Q886.996 1537.87 884.482 1537.2 Q881.999 1536.5 879.453 1536.5 Q873.755 1536.5 870.604 1540.13 Q867.453 1543.73 867.453 1550.25 Q867.453 1556.78 870.604 1560.4 Q873.755 1564 879.453 1564 Q881.999 1564 884.482 1563.33 Q886.996 1562.63 889.479 1561.26 L889.479 1566.68 Q887.028 1567.82 884.386 1568.39 Q881.776 1568.97 878.816 1568.97 Q870.764 1568.97 866.021 1563.91 Q861.279 1558.85 861.279 1550.25 Q861.279 1541.53 866.053 1536.53 Q870.859 1531.54 879.198 1531.54 Q881.904 1531.54 884.482 1532.11 Q887.06 1532.65 889.479 1533.76 Z" fill="#000000" fill-rule="nonzero" fill-opacity="1" /><path clip-path="url(#clip550)" d="M899.059 1553.98 L899.059 1532.4 L904.916 1532.4 L904.916 1553.75 Q904.916 1558.81 906.889 1561.36 Q908.862 1563.87 912.809 1563.87 Q917.551 1563.87 920.289 1560.85 Q923.058 1557.83 923.058 1552.61 L923.058 1532.4 L928.914 1532.4 L928.914 1568.04 L923.058 1568.04 L923.058 1562.57 Q920.925 1565.82 918.093 1567.41 Q915.292 1568.97 911.568 1568.97 Q905.425 1568.97 902.242 1565.15 Q899.059 1561.33 899.059 1553.98 M913.796 1531.54 L913.796 1531.54 Z" fill="#000000" fill-rule="nonzero" fill-opacity="1" /><path clip-path="url(#clip550)" d="M940.977 1518.52 L946.834 1518.52 L946.834 1568.04 L940.977 1568.04 L940.977 1518.52 Z" fill="#000000" fill-rule="nonzero" fill-opacity="1" /><path clip-path="url(#clip550)" d="M975.288 1550.12 Q968.191 1550.12 965.453 1551.75 Q962.716 1553.37 962.716 1557.29 Q962.716 1560.4 964.753 1562.25 Q966.822 1564.07 970.355 1564.07 Q975.225 1564.07 978.153 1560.63 Q981.113 1557.16 981.113 1551.43 L981.113 1550.12 L975.288 1550.12 M986.97 1547.71 L986.97 1568.04 L981.113 1568.04 L981.113 1562.63 Q979.108 1565.88 976.116 1567.44 Q973.124 1568.97 968.795 1568.97 Q963.321 1568.97 960.074 1565.91 Q956.86 1562.82 956.86 1557.67 Q956.86 1551.65 960.87 1548.6 Q964.912 1545.54 972.901 1545.54 L981.113 1545.54 L981.113 1544.97 Q981.113 1540.93 978.439 1538.73 Q975.798 1536.5 970.992 1536.5 Q967.936 1536.5 965.04 1537.23 Q962.143 1537.97 959.47 1539.43 L959.47 1534.02 Q962.684 1532.78 965.708 1532.17 Q968.732 1531.54 971.596 1531.54 Q979.331 1531.54 983.15 1535.55 Q986.97 1539.56 986.97 1547.71 Z" fill="#000000" fill-rule="nonzero" fill-opacity="1" /><path clip-path="url(#clip550)" d="M1004.83 1522.27 L1004.83 1532.4 L1016.89 1532.4 L1016.89 1536.95 L1004.83 1536.95 L1004.83 1556.3 Q1004.83 1560.66 1006 1561.9 Q1007.21 1563.14 1010.87 1563.14 L1016.89 1563.14 L1016.89 1568.04 L1010.87 1568.04 Q1004.09 1568.04 1001.52 1565.53 Q998.937 1562.98 998.937 1556.3 L998.937 1536.95 L994.64 1536.95 L994.64 1532.4 L998.937 1532.4 L998.937 1522.27 L1004.83 1522.27 Z" fill="#000000" fill-rule="nonzero" fill-opacity="1" /><path clip-path="url(#clip550)" d="M1055.08 1548.76 L1055.08 1551.62 L1028.16 1551.62 Q1028.54 1557.67 1031.78 1560.85 Q1035.06 1564 1040.89 1564 Q1044.26 1564 1047.41 1563.17 Q1050.59 1562.35 1053.71 1560.69 L1053.71 1566.23 Q1050.56 1567.57 1047.25 1568.27 Q1043.94 1568.97 1040.54 1568.97 Q1032.01 1568.97 1027.01 1564 Q1022.04 1559.04 1022.04 1550.57 Q1022.04 1541.82 1026.76 1536.69 Q1031.5 1531.54 1039.52 1531.54 Q1046.71 1531.54 1050.88 1536.18 Q1055.08 1540.8 1055.08 1548.76 M1049.23 1547.04 Q1049.16 1542.23 1046.52 1539.37 Q1043.91 1536.5 1039.58 1536.5 Q1034.68 1536.5 1031.72 1539.27 Q1028.79 1542.04 1028.35 1547.07 L1049.23 1547.04 Z" fill="#000000" fill-rule="nonzero" fill-opacity="1" /><path clip-path="url(#clip550)" d="M1088.15 1537.81 L1088.15 1518.52 L1094.01 1518.52 L1094.01 1568.04 L1088.15 1568.04 L1088.15 1562.7 Q1086.31 1565.88 1083.47 1567.44 Q1080.67 1568.97 1076.73 1568.97 Q1070.26 1568.97 1066.19 1563.81 Q1062.15 1558.65 1062.15 1550.25 Q1062.15 1541.85 1066.19 1536.69 Q1070.26 1531.54 1076.73 1531.54 Q1080.67 1531.54 1083.47 1533.1 Q1086.31 1534.62 1088.15 1537.81 M1068.2 1550.25 Q1068.2 1556.71 1070.84 1560.4 Q1073.51 1564.07 1078.16 1564.07 Q1082.81 1564.07 1085.48 1560.4 Q1088.15 1556.71 1088.15 1550.25 Q1088.15 1543.79 1085.48 1540.13 Q1082.81 1536.44 1078.16 1536.44 Q1073.51 1536.44 1070.84 1540.13 Q1068.2 1543.79 1068.2 1550.25 Z" fill="#000000" fill-rule="nonzero" fill-opacity="1" /><path clip-path="url(#clip550)" d="M1156.42 1546.53 L1156.42 1568.04 L1150.57 1568.04 L1150.57 1546.72 Q1150.57 1541.66 1148.59 1539.14 Q1146.62 1536.63 1142.67 1536.63 Q1137.93 1536.63 1135.19 1539.65 Q1132.46 1542.68 1132.46 1547.9 L1132.46 1568.04 L1126.57 1568.04 L1126.57 1532.4 L1132.46 1532.4 L1132.46 1537.93 Q1134.56 1534.72 1137.39 1533.13 Q1140.26 1531.54 1143.98 1531.54 Q1150.12 1531.54 1153.27 1535.36 Q1156.42 1539.14 1156.42 1546.53 Z" fill="#000000" fill-rule="nonzero" fill-opacity="1" /><path clip-path="url(#clip550)" d="M1198.6 1548.76 L1198.6 1551.62 L1171.67 1551.62 Q1172.05 1557.67 1175.3 1560.85 Q1178.58 1564 1184.4 1564 Q1187.78 1564 1190.93 1563.17 Q1194.11 1562.35 1197.23 1560.69 L1197.23 1566.23 Q1194.08 1567.57 1190.77 1568.27 Q1187.46 1568.97 1184.05 1568.97 Q1175.52 1568.97 1170.52 1564 Q1165.56 1559.04 1165.56 1550.57 Q1165.56 1541.82 1170.27 1536.69 Q1175.01 1531.54 1183.03 1531.54 Q1190.23 1531.54 1194.4 1536.18 Q1198.6 1540.8 1198.6 1548.76 M1192.74 1547.04 Q1192.68 1542.23 1190.04 1539.37 Q1187.43 1536.5 1183.1 1536.5 Q1178.2 1536.5 1175.24 1539.27 Q1172.31 1542.04 1171.86 1547.07 L1192.74 1547.04 Z" fill="#000000" fill-rule="nonzero" fill-opacity="1" /><path clip-path="url(#clip550)" d="M1207.6 1553.98 L1207.6 1532.4 L1213.46 1532.4 L1213.46 1553.75 Q1213.46 1558.81 1215.43 1561.36 Q1217.41 1563.87 1221.35 1563.87 Q1226.1 1563.87 1228.83 1560.85 Q1231.6 1557.83 1231.6 1552.61 L1231.6 1532.4 L1237.46 1532.4 L1237.46 1568.04 L1231.6 1568.04 L1231.6 1562.57 Q1229.47 1565.82 1226.64 1567.41 Q1223.84 1568.97 1220.11 1568.97 Q1213.97 1568.97 1210.79 1565.15 Q1207.6 1561.33 1207.6 1553.98 M1222.34 1531.54 L1222.34 1531.54 Z" fill="#000000" fill-rule="nonzero" fill-opacity="1" /><path clip-path="url(#clip550)" d="M1255.32 1522.27 L1255.32 1532.4 L1267.38 1532.4 L1267.38 1536.95 L1255.32 1536.95 L1255.32 1556.3 Q1255.32 1560.66 1256.49 1561.9 Q1257.7 1563.14 1261.36 1563.14 L1267.38 1563.14 L1267.38 1568.04 L1261.36 1568.04 Q1254.58 1568.04 1252.01 1565.53 Q1249.43 1562.98 1249.43 1556.3 L1249.43 1536.95 L1245.13 1536.95 L1245.13 1532.4 L1249.43 1532.4 L1249.43 1522.27 L1255.32 1522.27 Z" fill="#000000" fill-rule="nonzero" fill-opacity="1" /><path clip-path="url(#clip550)" d="M1295.74 1537.87 Q1294.75 1537.3 1293.57 1537.04 Q1292.43 1536.76 1291.03 1536.76 Q1286.06 1536.76 1283.39 1540 Q1280.75 1543.22 1280.75 1549.27 L1280.75 1568.04 L1274.86 1568.04 L1274.86 1532.4 L1280.75 1532.4 L1280.75 1537.93 Q1282.59 1534.69 1285.55 1533.13 Q1288.51 1531.54 1292.75 1531.54 Q1293.35 1531.54 1294.08 1531.63 Q1294.82 1531.7 1295.71 1531.85 L1295.74 1537.87 Z" fill="#000000" fill-rule="nonzero" fill-opacity="1" /><path clip-path="url(#clip550)" d="M1314.26 1536.5 Q1309.55 1536.5 1306.81 1540.19 Q1304.08 1543.85 1304.08 1550.25 Q1304.08 1556.65 1306.78 1560.34 Q1309.52 1564 1314.26 1564 Q1318.94 1564 1321.68 1560.31 Q1324.42 1556.62 1324.42 1550.25 Q1324.42 1543.92 1321.68 1540.23 Q1318.94 1536.5 1314.26 1536.5 M1314.26 1531.54 Q1321.9 1531.54 1326.26 1536.5 Q1330.62 1541.47 1330.62 1550.25 Q1330.62 1559 1326.26 1564 Q1321.9 1568.97 1314.26 1568.97 Q1306.59 1568.97 1302.23 1564 Q1297.9 1559 1297.9 1550.25 Q1297.9 1541.47 1302.23 1536.5 Q1306.59 1531.54 1314.26 1531.54 Z" fill="#000000" fill-rule="nonzero" fill-opacity="1" /><path clip-path="url(#clip550)" d="M1369.96 1546.53 L1369.96 1568.04 L1364.11 1568.04 L1364.11 1546.72 Q1364.11 1541.66 1362.13 1539.14 Q1360.16 1536.63 1356.21 1536.63 Q1351.47 1536.63 1348.73 1539.65 Q1346 1542.68 1346 1547.9 L1346 1568.04 L1340.11 1568.04 L1340.11 1532.4 L1346 1532.4 L1346 1537.93 Q1348.1 1534.72 1350.93 1533.13 Q1353.79 1531.54 1357.52 1531.54 Q1363.66 1531.54 1366.81 1535.36 Q1369.96 1539.14 1369.96 1546.53 Z" fill="#000000" fill-rule="nonzero" fill-opacity="1" /><path clip-path="url(#clip550)" d="M1432.86 1548.76 L1432.86 1551.62 L1405.93 1551.62 Q1406.31 1557.67 1409.56 1560.85 Q1412.84 1564 1418.66 1564 Q1422.03 1564 1425.18 1563.17 Q1428.37 1562.35 1431.49 1560.69 L1431.49 1566.23 Q1428.34 1567.57 1425.03 1568.27 Q1421.72 1568.97 1418.31 1568.97 Q1409.78 1568.97 1404.78 1564 Q1399.82 1559.04 1399.82 1550.57 Q1399.82 1541.82 1404.53 1536.69 Q1409.27 1531.54 1417.29 1531.54 Q1424.48 1531.54 1428.65 1536.18 Q1432.86 1540.8 1432.86 1548.76 M1427 1547.04 Q1426.94 1542.23 1424.29 1539.37 Q1421.68 1536.5 1417.35 1536.5 Q1412.45 1536.5 1409.49 1539.27 Q1406.57 1542.04 1406.12 1547.07 L1427 1547.04 Z" fill="#000000" fill-rule="nonzero" fill-opacity="1" /><path clip-path="url(#clip550)" d="M1472.1 1546.53 L1472.1 1568.04 L1466.24 1568.04 L1466.24 1546.72 Q1466.24 1541.66 1464.27 1539.14 Q1462.3 1536.63 1458.35 1536.63 Q1453.61 1536.63 1450.87 1539.65 Q1448.13 1542.68 1448.13 1547.9 L1448.13 1568.04 L1442.24 1568.04 L1442.24 1532.4 L1448.13 1532.4 L1448.13 1537.93 Q1450.23 1534.72 1453.07 1533.13 Q1455.93 1531.54 1459.66 1531.54 Q1465.8 1531.54 1468.95 1535.36 Q1472.1 1539.14 1472.1 1546.53 Z" fill="#000000" fill-rule="nonzero" fill-opacity="1" /><path clip-path="url(#clip550)" d="M1514.27 1548.76 L1514.27 1551.62 L1487.35 1551.62 Q1487.73 1557.67 1490.97 1560.85 Q1494.25 1564 1500.08 1564 Q1503.45 1564 1506.6 1563.17 Q1509.79 1562.35 1512.9 1560.69 L1512.9 1566.23 Q1509.75 1567.57 1506.44 1568.27 Q1503.13 1568.97 1499.73 1568.97 Q1491.2 1568.97 1486.2 1564 Q1481.23 1559.04 1481.23 1550.57 Q1481.23 1541.82 1485.95 1536.69 Q1490.69 1531.54 1498.71 1531.54 Q1505.9 1531.54 1510.07 1536.18 Q1514.27 1540.8 1514.27 1548.76 M1508.42 1547.04 Q1508.35 1542.23 1505.71 1539.37 Q1503.1 1536.5 1498.77 1536.5 Q1493.87 1536.5 1490.91 1539.27 Q1487.98 1542.04 1487.54 1547.07 L1508.42 1547.04 Z" fill="#000000" fill-rule="nonzero" fill-opacity="1" /><path clip-path="url(#clip550)" d="M1544.54 1537.87 Q1543.56 1537.3 1542.38 1537.04 Q1541.23 1536.76 1539.83 1536.76 Q1534.87 1536.76 1532.19 1540 Q1529.55 1543.22 1529.55 1549.27 L1529.55 1568.04 L1523.66 1568.04 L1523.66 1532.4 L1529.55 1532.4 L1529.55 1537.93 Q1531.4 1534.69 1534.36 1533.13 Q1537.32 1531.54 1541.55 1531.54 Q1542.15 1531.54 1542.89 1531.63 Q1543.62 1531.7 1544.51 1531.85 L1544.54 1537.87 Z" fill="#000000" fill-rule="nonzero" fill-opacity="1" /><path clip-path="url(#clip550)" d="M1573 1549.81 Q1573 1543.44 1570.35 1539.94 Q1567.74 1536.44 1563 1536.44 Q1558.29 1536.44 1555.65 1539.94 Q1553.04 1543.44 1553.04 1549.81 Q1553.04 1556.14 1555.65 1559.64 Q1558.29 1563.14 1563 1563.14 Q1567.74 1563.14 1570.35 1559.64 Q1573 1556.14 1573 1549.81 M1578.85 1563.62 Q1578.85 1572.72 1574.81 1577.15 Q1570.77 1581.6 1562.43 1581.6 Q1559.34 1581.6 1556.6 1581.13 Q1553.87 1580.68 1551.29 1579.72 L1551.29 1574.03 Q1553.87 1575.43 1556.38 1576.1 Q1558.9 1576.76 1561.51 1576.76 Q1567.27 1576.76 1570.13 1573.74 Q1573 1570.75 1573 1564.67 L1573 1561.77 Q1571.18 1564.92 1568.35 1566.48 Q1565.52 1568.04 1561.57 1568.04 Q1555.01 1568.04 1551 1563.05 Q1546.99 1558.05 1546.99 1549.81 Q1546.99 1541.53 1551 1536.53 Q1555.01 1531.54 1561.57 1531.54 Q1565.52 1531.54 1568.35 1533.1 Q1571.18 1534.66 1573 1537.81 L1573 1532.4 L1578.85 1532.4 L1578.85 1563.62 Z" fill="#000000" fill-rule="nonzero" fill-opacity="1" /><path clip-path="url(#clip550)" d="M1605.75 1571.35 Q1603.27 1577.72 1600.91 1579.66 Q1598.55 1581.6 1594.61 1581.6 L1589.93 1581.6 L1589.93 1576.7 L1593.37 1576.7 Q1595.79 1576.7 1597.12 1575.56 Q1598.46 1574.41 1600.08 1570.14 L1601.13 1567.47 L1586.71 1532.4 L1592.92 1532.4 L1604.06 1560.28 L1615.2 1532.4 L1621.41 1532.4 L1605.75 1571.35 Z" fill="#000000" fill-rule="nonzero" fill-opacity="1" /><path clip-path="url(#clip550)" d="M1664.28 1518.58 Q1660.02 1525.9 1657.95 1533.06 Q1655.88 1540.23 1655.88 1547.58 Q1655.88 1554.93 1657.95 1562.16 Q1660.05 1569.35 1664.28 1576.64 L1659.19 1576.64 Q1654.41 1569.16 1652.03 1561.93 Q1649.67 1554.71 1649.67 1547.58 Q1649.67 1540.48 1652.03 1533.29 Q1654.38 1526.09 1659.19 1518.58 L1664.28 1518.58 Z" fill="#000000" fill-rule="nonzero" fill-opacity="1" /><path clip-path="url(#clip550)" d="M1675.9 1520.52 L1685.48 1520.52 L1697.61 1552.86 L1709.8 1520.52 L1719.38 1520.52 L1719.38 1568.04 L1713.11 1568.04 L1713.11 1526.32 L1700.85 1558.91 L1694.39 1558.91 L1682.14 1526.32 L1682.14 1568.04 L1675.9 1568.04 L1675.9 1520.52 Z" fill="#000000" fill-rule="nonzero" fill-opacity="1" /><path clip-path="url(#clip550)" d="M1762.38 1548.76 L1762.38 1551.62 L1735.45 1551.62 Q1735.83 1557.67 1739.08 1560.85 Q1742.36 1564 1748.18 1564 Q1751.55 1564 1754.71 1563.17 Q1757.89 1562.35 1761.01 1560.69 L1761.01 1566.23 Q1757.86 1567.57 1754.55 1568.27 Q1751.24 1568.97 1747.83 1568.97 Q1739.3 1568.97 1734.3 1564 Q1729.34 1559.04 1729.34 1550.57 Q1729.34 1541.82 1734.05 1536.69 Q1738.79 1531.54 1746.81 1531.54 Q1754.01 1531.54 1758.17 1536.18 Q1762.38 1540.8 1762.38 1548.76 M1756.52 1547.04 Q1756.46 1542.23 1753.81 1539.37 Q1751.2 1536.5 1746.88 1536.5 Q1741.97 1536.5 1739.01 1539.27 Q1736.09 1542.04 1735.64 1547.07 L1756.52 1547.04 Z" fill="#000000" fill-rule="nonzero" fill-opacity="1" /><path clip-path="url(#clip550)" d="M1784.5 1568.04 L1766.35 1520.52 L1773.07 1520.52 L1788.13 1560.53 L1803.21 1520.52 L1809.9 1520.52 L1791.79 1568.04 L1784.5 1568.04 Z" fill="#000000" fill-rule="nonzero" fill-opacity="1" /><path clip-path="url(#clip550)" d="M1815.66 1518.58 L1820.75 1518.58 Q1825.52 1526.09 1827.88 1533.29 Q1830.27 1540.48 1830.27 1547.58 Q1830.27 1554.71 1827.88 1561.93 Q1825.52 1569.16 1820.75 1576.64 L1815.66 1576.64 Q1819.89 1569.35 1821.96 1562.16 Q1824.06 1554.93 1824.06 1547.58 Q1824.06 1540.23 1821.96 1533.06 Q1819.89 1525.9 1815.66 1518.58 Z" fill="#000000" fill-rule="nonzero" fill-opacity="1" /><polyline clip-path="url(#clip550)" style="stroke:#000000; stroke-linecap:round; stroke-linejoin:round; stroke-width:4; stroke-opacity:1; fill:none" points="235.283,1423.18 235.283,123.472 "/>
<polyline clip-path="url(#clip550)" style="stroke:#000000; stroke-linecap:round; stroke-linejoin:round; stroke-width:4; stroke-opacity:1; fill:none" points="235.283,1386.4 254.18,1386.4 "/>
<polyline clip-path="url(#clip550)" style="stroke:#000000; stroke-linecap:round; stroke-linejoin:round; stroke-width:4; stroke-opacity:1; fill:none" points="235.283,1167.44 254.18,1167.44 "/>
<polyline clip-path="url(#clip550)" style="stroke:#000000; stroke-linecap:round; stroke-linejoin:round; stroke-width:4; stroke-opacity:1; fill:none" points="235.283,948.489 254.18,948.489 "/>
<polyline clip-path="url(#clip550)" style="stroke:#000000; stroke-linecap:round; stroke-linejoin:round; stroke-width:4; stroke-opacity:1; fill:none" points="235.283,729.535 254.18,729.535 "/>
<polyline clip-path="url(#clip550)" style="stroke:#000000; stroke-linecap:round; stroke-linejoin:round; stroke-width:4; stroke-opacity:1; fill:none" points="235.283,510.582 254.18,510.582 "/>
<polyline clip-path="url(#clip550)" style="stroke:#000000; stroke-linecap:round; stroke-linejoin:round; stroke-width:4; stroke-opacity:1; fill:none" points="235.283,291.628 254.18,291.628 "/>
<path clip-path="url(#clip550)" d="M187.338 1372.19 Q183.727 1372.19 181.899 1375.76 Q180.093 1379.3 180.093 1386.43 Q180.093 1393.54 181.899 1397.1 Q183.727 1400.64 187.338 1400.64 Q190.973 1400.64 192.778 1397.1 Q194.607 1393.54 194.607 1386.43 Q194.607 1379.3 192.778 1375.76 Q190.973 1372.19 187.338 1372.19 M187.338 1368.49 Q193.149 1368.49 196.204 1373.1 Q199.283 1377.68 199.283 1386.43 Q199.283 1395.16 196.204 1399.76 Q193.149 1404.35 187.338 1404.35 Q181.528 1404.35 178.45 1399.76 Q175.394 1395.16 175.394 1386.43 Q175.394 1377.68 178.45 1373.1 Q181.528 1368.49 187.338 1368.49 Z" fill="#000000" fill-rule="nonzero" fill-opacity="1" /><path clip-path="url(#clip550)" d="M117.825 1180.79 L125.464 1180.79 L125.464 1154.42 L117.154 1156.09 L117.154 1151.83 L125.418 1150.16 L130.093 1150.16 L130.093 1180.79 L137.732 1180.79 L137.732 1184.72 L117.825 1184.72 L117.825 1180.79 Z" fill="#000000" fill-rule="nonzero" fill-opacity="1" /><path clip-path="url(#clip550)" d="M157.177 1153.24 Q153.566 1153.24 151.737 1156.81 Q149.931 1160.35 149.931 1167.48 Q149.931 1174.58 151.737 1178.15 Q153.566 1181.69 157.177 1181.69 Q160.811 1181.69 162.616 1178.15 Q164.445 1174.58 164.445 1167.48 Q164.445 1160.35 162.616 1156.81 Q160.811 1153.24 157.177 1153.24 M157.177 1149.54 Q162.987 1149.54 166.042 1154.14 Q169.121 1158.73 169.121 1167.48 Q169.121 1176.2 166.042 1180.81 Q162.987 1185.39 157.177 1185.39 Q151.366 1185.39 148.288 1180.81 Q145.232 1176.2 145.232 1167.48 Q145.232 1158.73 148.288 1154.14 Q151.366 1149.54 157.177 1149.54 Z" fill="#000000" fill-rule="nonzero" fill-opacity="1" /><path clip-path="url(#clip550)" d="M187.338 1153.24 Q183.727 1153.24 181.899 1156.81 Q180.093 1160.35 180.093 1167.48 Q180.093 1174.58 181.899 1178.15 Q183.727 1181.69 187.338 1181.69 Q190.973 1181.69 192.778 1178.15 Q194.607 1174.58 194.607 1167.48 Q194.607 1160.35 192.778 1156.81 Q190.973 1153.24 187.338 1153.24 M187.338 1149.54 Q193.149 1149.54 196.204 1154.14 Q199.283 1158.73 199.283 1167.48 Q199.283 1176.2 196.204 1180.81 Q193.149 1185.39 187.338 1185.39 Q181.528 1185.39 178.45 1180.81 Q175.394 1176.2 175.394 1167.48 Q175.394 1158.73 178.45 1154.14 Q181.528 1149.54 187.338 1149.54 Z" fill="#000000" fill-rule="nonzero" fill-opacity="1" /><path clip-path="url(#clip550)" d="M121.043 961.834 L137.362 961.834 L137.362 965.769 L115.418 965.769 L115.418 961.834 Q118.08 959.079 122.663 954.449 Q127.269 949.797 128.45 948.454 Q130.695 945.931 131.575 944.195 Q132.478 942.436 132.478 940.746 Q132.478 937.991 130.533 936.255 Q128.612 934.519 125.51 934.519 Q123.311 934.519 120.857 935.283 Q118.427 936.047 115.649 937.598 L115.649 932.875 Q118.473 931.741 120.927 931.162 Q123.38 930.584 125.418 930.584 Q130.788 930.584 133.982 933.269 Q137.177 935.954 137.177 940.445 Q137.177 942.574 136.367 944.496 Q135.579 946.394 133.473 948.986 Q132.894 949.658 129.792 952.875 Q126.691 956.07 121.043 961.834 Z" fill="#000000" fill-rule="nonzero" fill-opacity="1" /><path clip-path="url(#clip550)" d="M157.177 934.287 Q153.566 934.287 151.737 937.852 Q149.931 941.394 149.931 948.523 Q149.931 955.63 151.737 959.195 Q153.566 962.736 157.177 962.736 Q160.811 962.736 162.616 959.195 Q164.445 955.63 164.445 948.523 Q164.445 941.394 162.616 937.852 Q160.811 934.287 157.177 934.287 M157.177 930.584 Q162.987 930.584 166.042 935.19 Q169.121 939.774 169.121 948.523 Q169.121 957.25 166.042 961.857 Q162.987 966.44 157.177 966.44 Q151.366 966.44 148.288 961.857 Q145.232 957.25 145.232 948.523 Q145.232 939.774 148.288 935.19 Q151.366 930.584 157.177 930.584 Z" fill="#000000" fill-rule="nonzero" fill-opacity="1" /><path clip-path="url(#clip550)" d="M187.338 934.287 Q183.727 934.287 181.899 937.852 Q180.093 941.394 180.093 948.523 Q180.093 955.63 181.899 959.195 Q183.727 962.736 187.338 962.736 Q190.973 962.736 192.778 959.195 Q194.607 955.63 194.607 948.523 Q194.607 941.394 192.778 937.852 Q190.973 934.287 187.338 934.287 M187.338 930.584 Q193.149 930.584 196.204 935.19 Q199.283 939.774 199.283 948.523 Q199.283 957.25 196.204 961.857 Q193.149 966.44 187.338 966.44 Q181.528 966.44 178.45 961.857 Q175.394 957.25 175.394 948.523 Q175.394 939.774 178.45 935.19 Q181.528 930.584 187.338 930.584 Z" fill="#000000" fill-rule="nonzero" fill-opacity="1" /><path clip-path="url(#clip550)" d="M131.181 728.181 Q134.538 728.899 136.413 731.167 Q138.311 733.436 138.311 736.769 Q138.311 741.885 134.792 744.686 Q131.274 747.487 124.793 747.487 Q122.617 747.487 120.302 747.047 Q118.01 746.63 115.556 745.774 L115.556 741.26 Q117.501 742.394 119.816 742.973 Q122.13 743.551 124.654 743.551 Q129.052 743.551 131.343 741.815 Q133.658 740.079 133.658 736.769 Q133.658 733.714 131.505 732.001 Q129.376 730.264 125.556 730.264 L121.529 730.264 L121.529 726.422 L125.742 726.422 Q129.191 726.422 131.019 725.056 Q132.848 723.667 132.848 721.075 Q132.848 718.413 130.95 717.001 Q129.075 715.565 125.556 715.565 Q123.635 715.565 121.436 715.982 Q119.237 716.399 116.598 717.278 L116.598 713.112 Q119.26 712.371 121.575 712.001 Q123.913 711.63 125.973 711.63 Q131.297 711.63 134.399 714.061 Q137.501 716.468 137.501 720.589 Q137.501 723.459 135.857 725.45 Q134.214 727.417 131.181 728.181 Z" fill="#000000" fill-rule="nonzero" fill-opacity="1" /><path clip-path="url(#clip550)" d="M157.177 715.334 Q153.566 715.334 151.737 718.899 Q149.931 722.44 149.931 729.57 Q149.931 736.676 151.737 740.241 Q153.566 743.783 157.177 743.783 Q160.811 743.783 162.616 740.241 Q164.445 736.676 164.445 729.57 Q164.445 722.44 162.616 718.899 Q160.811 715.334 157.177 715.334 M157.177 711.63 Q162.987 711.63 166.042 716.237 Q169.121 720.82 169.121 729.57 Q169.121 738.297 166.042 742.903 Q162.987 747.487 157.177 747.487 Q151.366 747.487 148.288 742.903 Q145.232 738.297 145.232 729.57 Q145.232 720.82 148.288 716.237 Q151.366 711.63 157.177 711.63 Z" fill="#000000" fill-rule="nonzero" fill-opacity="1" /><path clip-path="url(#clip550)" d="M187.338 715.334 Q183.727 715.334 181.899 718.899 Q180.093 722.44 180.093 729.57 Q180.093 736.676 181.899 740.241 Q183.727 743.783 187.338 743.783 Q190.973 743.783 192.778 740.241 Q194.607 736.676 194.607 729.57 Q194.607 722.44 192.778 718.899 Q190.973 715.334 187.338 715.334 M187.338 711.63 Q193.149 711.63 196.204 716.237 Q199.283 720.82 199.283 729.57 Q199.283 738.297 196.204 742.903 Q193.149 747.487 187.338 747.487 Q181.528 747.487 178.45 742.903 Q175.394 738.297 175.394 729.57 Q175.394 720.82 178.45 716.237 Q181.528 711.63 187.338 711.63 Z" fill="#000000" fill-rule="nonzero" fill-opacity="1" /><path clip-path="url(#clip550)" d="M129.862 497.376 L118.056 515.825 L129.862 515.825 L129.862 497.376 M128.635 493.302 L134.515 493.302 L134.515 515.825 L139.445 515.825 L139.445 519.714 L134.515 519.714 L134.515 527.862 L129.862 527.862 L129.862 519.714 L114.26 519.714 L114.26 515.2 L128.635 493.302 Z" fill="#000000" fill-rule="nonzero" fill-opacity="1" /><path clip-path="url(#clip550)" d="M157.177 496.381 Q153.566 496.381 151.737 499.945 Q149.931 503.487 149.931 510.617 Q149.931 517.723 151.737 521.288 Q153.566 524.829 157.177 524.829 Q160.811 524.829 162.616 521.288 Q164.445 517.723 164.445 510.617 Q164.445 503.487 162.616 499.945 Q160.811 496.381 157.177 496.381 M157.177 492.677 Q162.987 492.677 166.042 497.283 Q169.121 501.867 169.121 510.617 Q169.121 519.343 166.042 523.95 Q162.987 528.533 157.177 528.533 Q151.366 528.533 148.288 523.95 Q145.232 519.343 145.232 510.617 Q145.232 501.867 148.288 497.283 Q151.366 492.677 157.177 492.677 Z" fill="#000000" fill-rule="nonzero" fill-opacity="1" /><path clip-path="url(#clip550)" d="M187.338 496.381 Q183.727 496.381 181.899 499.945 Q180.093 503.487 180.093 510.617 Q180.093 517.723 181.899 521.288 Q183.727 524.829 187.338 524.829 Q190.973 524.829 192.778 521.288 Q194.607 517.723 194.607 510.617 Q194.607 503.487 192.778 499.945 Q190.973 496.381 187.338 496.381 M187.338 492.677 Q193.149 492.677 196.204 497.283 Q199.283 501.867 199.283 510.617 Q199.283 519.343 196.204 523.95 Q193.149 528.533 187.338 528.533 Q181.528 528.533 178.45 523.95 Q175.394 519.343 175.394 510.617 Q175.394 501.867 178.45 497.283 Q181.528 492.677 187.338 492.677 Z" fill="#000000" fill-rule="nonzero" fill-opacity="1" /><path clip-path="url(#clip550)" d="M117.061 274.348 L135.417 274.348 L135.417 278.284 L121.343 278.284 L121.343 286.756 Q122.362 286.409 123.38 286.246 Q124.399 286.061 125.418 286.061 Q131.205 286.061 134.584 289.233 Q137.964 292.404 137.964 297.82 Q137.964 303.399 134.492 306.501 Q131.019 309.58 124.7 309.58 Q122.524 309.58 120.255 309.209 Q118.01 308.839 115.603 308.098 L115.603 303.399 Q117.686 304.533 119.908 305.089 Q122.13 305.645 124.607 305.645 Q128.612 305.645 130.95 303.538 Q133.288 301.432 133.288 297.82 Q133.288 294.209 130.95 292.103 Q128.612 289.996 124.607 289.996 Q122.732 289.996 120.857 290.413 Q119.006 290.83 117.061 291.709 L117.061 274.348 Z" fill="#000000" fill-rule="nonzero" fill-opacity="1" /><path clip-path="url(#clip550)" d="M157.177 277.427 Q153.566 277.427 151.737 280.992 Q149.931 284.534 149.931 291.663 Q149.931 298.77 151.737 302.334 Q153.566 305.876 157.177 305.876 Q160.811 305.876 162.616 302.334 Q164.445 298.77 164.445 291.663 Q164.445 284.534 162.616 280.992 Q160.811 277.427 157.177 277.427 M157.177 273.723 Q162.987 273.723 166.042 278.33 Q169.121 282.913 169.121 291.663 Q169.121 300.39 166.042 304.996 Q162.987 309.58 157.177 309.58 Q151.366 309.58 148.288 304.996 Q145.232 300.39 145.232 291.663 Q145.232 282.913 148.288 278.33 Q151.366 273.723 157.177 273.723 Z" fill="#000000" fill-rule="nonzero" fill-opacity="1" /><path clip-path="url(#clip550)" d="M187.338 277.427 Q183.727 277.427 181.899 280.992 Q180.093 284.534 180.093 291.663 Q180.093 298.77 181.899 302.334 Q183.727 305.876 187.338 305.876 Q190.973 305.876 192.778 302.334 Q194.607 298.77 194.607 291.663 Q194.607 284.534 192.778 280.992 Q190.973 277.427 187.338 277.427 M187.338 273.723 Q193.149 273.723 196.204 278.33 Q199.283 282.913 199.283 291.663 Q199.283 300.39 196.204 304.996 Q193.149 309.58 187.338 309.58 Q181.528 309.58 178.45 304.996 Q175.394 300.39 175.394 291.663 Q175.394 282.913 178.45 278.33 Q181.528 273.723 187.338 273.723 Z" fill="#000000" fill-rule="nonzero" fill-opacity="1" /><path clip-path="url(#clip550)" d="M20.1444 845.354 L26.9239 845.354 Q23.9002 848.6 22.4043 852.293 Q20.9083 855.953 20.9083 860.091 Q20.9083 868.239 25.9054 872.567 Q30.8707 876.896 40.2919 876.896 Q49.6813 876.896 54.6784 872.567 Q59.6436 868.239 59.6436 860.091 Q59.6436 855.953 58.1477 852.293 Q56.6518 848.6 53.6281 845.354 L60.3439 845.354 Q62.6355 848.728 63.7814 852.515 Q64.9272 856.271 64.9272 860.473 Q64.9272 871.262 58.3387 877.469 Q51.7183 883.676 40.2919 883.676 Q28.8336 883.676 22.2451 877.469 Q15.6248 871.262 15.6248 860.473 Q15.6248 856.207 16.7706 852.452 Q17.8846 848.664 20.1444 845.354 Z" fill="#000000" fill-rule="nonzero" fill-opacity="1" /><path clip-path="url(#clip550)" d="M32.4621 821.864 Q32.4621 826.575 36.1542 829.312 Q39.8145 832.05 46.212 832.05 Q52.6095 832.05 56.3017 829.344 Q59.9619 826.607 59.9619 821.864 Q59.9619 817.186 56.2698 814.448 Q52.5777 811.711 46.212 811.711 Q39.8781 811.711 36.186 814.448 Q32.4621 817.186 32.4621 821.864 M27.4968 821.864 Q27.4968 814.226 32.4621 809.865 Q37.4273 805.505 46.212 805.505 Q54.9649 805.505 59.9619 809.865 Q64.9272 814.226 64.9272 821.864 Q64.9272 829.535 59.9619 833.896 Q54.9649 838.224 46.212 838.224 Q37.4273 838.224 32.4621 833.896 Q27.4968 829.535 27.4968 821.864 Z" fill="#000000" fill-rule="nonzero" fill-opacity="1" /><path clip-path="url(#clip550)" d="M49.9359 796.402 L28.3562 796.402 L28.3562 790.545 L49.7131 790.545 Q54.7739 790.545 57.3202 788.572 Q59.8346 786.598 59.8346 782.652 Q59.8346 777.909 56.8109 775.172 Q53.7872 772.403 48.5673 772.403 L28.3562 772.403 L28.3562 766.547 L64.0042 766.547 L64.0042 772.403 L58.5296 772.403 Q61.7762 774.535 63.3676 777.368 Q64.9272 780.169 64.9272 783.893 Q64.9272 790.036 61.1078 793.219 Q57.2883 796.402 49.9359 796.402 M27.4968 781.665 L27.4968 781.665 Z" fill="#000000" fill-rule="nonzero" fill-opacity="1" /><path clip-path="url(#clip550)" d="M42.4881 724.851 L64.0042 724.851 L64.0042 730.708 L42.679 730.708 Q37.6183 730.708 35.1038 732.681 Q32.5894 734.654 32.5894 738.601 Q32.5894 743.344 35.6131 746.081 Q38.6368 748.818 43.8567 748.818 L64.0042 748.818 L64.0042 754.706 L28.3562 754.706 L28.3562 748.818 L33.8944 748.818 Q30.6797 746.717 29.0883 743.885 Q27.4968 741.02 27.4968 737.296 Q27.4968 731.153 31.3163 728.002 Q35.1038 724.851 42.4881 724.851 Z" fill="#000000" fill-rule="nonzero" fill-opacity="1" /><path clip-path="url(#clip550)" d="M18.2347 707.377 L28.3562 707.377 L28.3562 695.314 L32.9077 695.314 L32.9077 707.377 L52.2594 707.377 Q56.6199 707.377 57.8613 706.2 Q59.1026 704.99 59.1026 701.33 L59.1026 695.314 L64.0042 695.314 L64.0042 701.33 Q64.0042 708.109 61.4897 710.687 Q58.9434 713.266 52.2594 713.266 L32.9077 713.266 L32.9077 717.562 L28.3562 717.562 L28.3562 713.266 L18.2347 713.266 L18.2347 707.377 Z" fill="#000000" fill-rule="nonzero" fill-opacity="1" /><path clip-path="url(#clip550)" d="M29.4065 664.886 L34.9447 664.886 Q33.6716 667.369 33.035 670.042 Q32.3984 672.716 32.3984 675.581 Q32.3984 679.941 33.7352 682.137 Q35.072 684.302 37.7456 684.302 Q39.7826 684.302 40.9603 682.742 Q42.1061 681.182 43.1565 676.472 L43.6021 674.467 Q44.9389 668.228 47.3897 665.618 Q49.8086 662.976 54.1691 662.976 Q59.1344 662.976 62.0308 666.923 Q64.9272 670.838 64.9272 677.713 Q64.9272 680.578 64.3543 683.697 Q63.8132 686.784 62.6992 690.222 L56.6518 690.222 Q58.3387 686.975 59.198 683.824 Q60.0256 680.673 60.0256 677.586 Q60.0256 673.448 58.6251 671.22 Q57.1929 668.992 54.6147 668.992 Q52.2276 668.992 50.9545 670.615 Q49.6813 672.207 48.5037 677.649 L48.0262 679.686 Q46.8804 685.129 44.5251 687.548 Q42.138 689.967 38.0002 689.967 Q32.9713 689.967 30.2341 686.402 Q27.4968 682.837 27.4968 676.281 Q27.4968 673.034 27.9743 670.17 Q28.4517 667.305 29.4065 664.886 Z" fill="#000000" fill-rule="nonzero" fill-opacity="1" /><path clip-path="url(#clip550)" d="M773.64 71.3202 L773.64 63.8666 Q776.719 65.3249 779.879 66.0946 Q783.038 66.8642 786.076 66.8642 Q794.178 66.8642 798.432 61.436 Q802.726 55.9673 803.333 44.8678 Q800.984 48.3516 797.379 50.215 Q793.773 52.0784 789.398 52.0784 Q780.324 52.0784 775.018 46.6097 Q769.751 41.1005 769.751 31.5808 Q769.751 22.2638 775.261 16.633 Q780.77 11.0023 789.925 11.0023 Q800.417 11.0023 805.926 19.0636 Q811.476 27.0843 811.476 42.3968 Q811.476 56.6965 804.67 65.2439 Q797.905 73.7508 786.441 73.7508 Q783.362 73.7508 780.203 73.1431 Q777.043 72.5355 773.64 71.3202 M789.925 45.678 Q795.434 45.678 798.634 41.9107 Q801.875 38.1433 801.875 31.5808 Q801.875 25.0589 798.634 21.2916 Q795.434 17.4837 789.925 17.4837 Q784.416 17.4837 781.175 21.2916 Q777.975 25.0589 777.975 31.5808 Q777.975 38.1433 781.175 41.9107 Q784.416 45.678 789.925 45.678 Z" fill="#000000" fill-rule="nonzero" fill-opacity="1" /><path clip-path="url(#clip550)" d="M826.18 62.2867 L834.728 62.2867 L834.728 72.576 L826.18 72.576 L826.18 62.2867 Z" fill="#000000" fill-rule="nonzero" fill-opacity="1" /><path clip-path="url(#clip550)" d="M853.97 65.6895 L867.338 65.6895 L867.338 19.5497 L852.795 22.4663 L852.795 15.0127 L867.257 12.096 L875.439 12.096 L875.439 65.6895 L888.807 65.6895 L888.807 72.576 L853.97 72.576 L853.97 65.6895 Z" fill="#000000" fill-rule="nonzero" fill-opacity="1" /><path clip-path="url(#clip550)" d="M922.835 43.8551 Q917.002 43.8551 913.639 46.9743 Q910.318 50.0935 910.318 55.5622 Q910.318 61.0309 913.639 64.1501 Q917.002 67.2693 922.835 67.2693 Q928.668 67.2693 932.031 64.1501 Q935.393 60.9904 935.393 55.5622 Q935.393 50.0935 932.031 46.9743 Q928.709 43.8551 922.835 43.8551 M914.652 40.3713 Q909.386 39.075 906.429 35.4697 Q903.512 31.8644 903.512 26.6793 Q903.512 19.4281 908.657 15.2152 Q913.842 11.0023 922.835 11.0023 Q931.869 11.0023 937.013 15.2152 Q942.158 19.4281 942.158 26.6793 Q942.158 31.8644 939.201 35.4697 Q936.284 39.075 931.058 40.3713 Q936.973 41.7486 940.254 45.759 Q943.576 49.7694 943.576 55.5622 Q943.576 64.3527 938.188 69.0517 Q932.841 73.7508 922.835 73.7508 Q912.829 73.7508 907.442 69.0517 Q902.094 64.3527 902.094 55.5622 Q902.094 49.7694 905.416 45.759 Q908.738 41.7486 914.652 40.3713 M911.655 27.4489 Q911.655 32.148 914.571 34.7811 Q917.528 37.4142 922.835 37.4142 Q928.101 37.4142 931.058 34.7811 Q934.056 32.148 934.056 27.4489 Q934.056 22.7499 931.058 20.1168 Q928.101 17.4837 922.835 17.4837 Q917.528 17.4837 914.571 20.1168 Q911.655 22.7499 911.655 27.4489 Z" fill="#000000" fill-rule="nonzero" fill-opacity="1" /><path clip-path="url(#clip550)" d="M995.873 48.0275 L995.873 51.6733 L961.602 51.6733 Q962.088 59.3701 966.22 63.421 Q970.393 67.4314 977.806 67.4314 Q982.1 67.4314 986.11 66.3781 Q990.161 65.3249 994.131 63.2184 L994.131 70.267 Q990.121 71.9684 985.908 72.8596 Q981.695 73.7508 977.36 73.7508 Q966.504 73.7508 960.144 67.4314 Q953.824 61.1119 953.824 50.3365 Q953.824 39.1965 959.82 32.6746 Q965.856 26.1121 976.064 26.1121 Q985.219 26.1121 990.526 32.0264 Q995.873 37.9003 995.873 48.0275 M988.419 45.84 Q988.338 39.7232 984.976 36.0774 Q981.654 32.4315 976.145 32.4315 Q969.907 32.4315 966.139 35.9558 Q962.412 39.4801 961.845 45.8805 L988.419 45.84 Z" fill="#000000" fill-rule="nonzero" fill-opacity="1" /><path clip-path="url(#clip550)" d="M1027.67 39.075 Q1022.16 39.075 1018.92 42.8424 Q1015.72 46.6097 1015.72 53.1722 Q1015.72 59.6941 1018.92 63.502 Q1022.16 67.2693 1027.67 67.2693 Q1033.18 67.2693 1036.38 63.502 Q1039.62 59.6941 1039.62 53.1722 Q1039.62 46.6097 1036.38 42.8424 Q1033.18 39.075 1027.67 39.075 M1043.92 13.4328 L1043.92 20.8865 Q1040.84 19.4281 1037.68 18.6585 Q1034.56 17.8888 1031.48 17.8888 Q1023.38 17.8888 1019.08 23.3575 Q1014.83 28.8262 1014.22 39.8852 Q1016.61 36.3609 1020.22 34.4975 Q1023.82 32.5936 1028.16 32.5936 Q1037.27 32.5936 1042.54 38.1433 Q1047.85 43.6525 1047.85 53.1722 Q1047.85 62.4892 1042.34 68.12 Q1036.83 73.7508 1027.67 73.7508 Q1017.18 73.7508 1011.63 65.73 Q1006.08 57.6687 1006.08 42.3968 Q1006.08 28.0566 1012.89 19.5497 Q1019.69 11.0023 1031.16 11.0023 Q1034.23 11.0023 1037.35 11.6099 Q1040.51 12.2175 1043.92 13.4328 Z" fill="#000000" fill-rule="nonzero" fill-opacity="1" /><path clip-path="url(#clip550)" d="M1124.98 45.1919 L1124.98 72.576 L1117.52 72.576 L1117.52 45.4349 Q1117.52 38.994 1115.01 35.7938 Q1112.5 32.5936 1107.48 32.5936 Q1101.44 32.5936 1097.96 36.4419 Q1094.47 40.2903 1094.47 46.9338 L1094.47 72.576 L1086.98 72.576 L1086.98 27.2059 L1094.47 27.2059 L1094.47 34.2544 Q1097.15 30.163 1100.75 28.1376 Q1104.4 26.1121 1109.14 26.1121 Q1116.95 26.1121 1120.96 30.9732 Q1124.98 35.7938 1124.98 45.1919 Z" fill="#000000" fill-rule="nonzero" fill-opacity="1" /><path clip-path="url(#clip550)" d="M1178.65 48.0275 L1178.65 51.6733 L1144.38 51.6733 Q1144.87 59.3701 1149 63.421 Q1153.17 67.4314 1160.58 67.4314 Q1164.88 67.4314 1168.89 66.3781 Q1172.94 65.3249 1176.91 63.2184 L1176.91 70.267 Q1172.9 71.9684 1168.68 72.8596 Q1164.47 73.7508 1160.14 73.7508 Q1149.28 73.7508 1142.92 67.4314 Q1136.6 61.1119 1136.6 50.3365 Q1136.6 39.1965 1142.6 32.6746 Q1148.63 26.1121 1158.84 26.1121 Q1168 26.1121 1173.3 32.0264 Q1178.65 37.9003 1178.65 48.0275 M1171.2 45.84 Q1171.11 39.7232 1167.75 36.0774 Q1164.43 32.4315 1158.92 32.4315 Q1152.68 32.4315 1148.92 35.9558 Q1145.19 39.4801 1144.62 45.8805 L1171.2 45.84 Z" fill="#000000" fill-rule="nonzero" fill-opacity="1" /><path clip-path="url(#clip550)" d="M1190.11 54.671 L1190.11 27.2059 L1197.57 27.2059 L1197.57 54.3874 Q1197.57 60.8284 1200.08 64.0691 Q1202.59 67.2693 1207.61 67.2693 Q1213.65 67.2693 1217.13 63.421 Q1220.66 59.5726 1220.66 52.9291 L1220.66 27.2059 L1228.11 27.2059 L1228.11 72.576 L1220.66 72.576 L1220.66 65.6084 Q1217.94 69.7404 1214.34 71.7658 Q1210.77 73.7508 1206.03 73.7508 Q1198.22 73.7508 1194.16 68.8897 Q1190.11 64.0286 1190.11 54.671 M1208.87 26.1121 L1208.87 26.1121 Z" fill="#000000" fill-rule="nonzero" fill-opacity="1" /><path clip-path="url(#clip550)" d="M1250.84 14.324 L1250.84 27.2059 L1266.19 27.2059 L1266.19 32.9987 L1250.84 32.9987 L1250.84 57.6282 Q1250.84 63.1779 1252.34 64.7578 Q1253.87 66.3376 1258.53 66.3376 L1266.19 66.3376 L1266.19 72.576 L1258.53 72.576 Q1249.91 72.576 1246.62 69.3758 Q1243.34 66.1351 1243.34 57.6282 L1243.34 32.9987 L1237.87 32.9987 L1237.87 27.2059 L1243.34 27.2059 L1243.34 14.324 L1250.84 14.324 Z" fill="#000000" fill-rule="nonzero" fill-opacity="1" /><path clip-path="url(#clip550)" d="M1302.28 34.1734 Q1301.03 33.4443 1299.53 33.1202 Q1298.07 32.7556 1296.29 32.7556 Q1289.97 32.7556 1286.57 36.8875 Q1283.2 40.9789 1283.2 48.6757 L1283.2 72.576 L1275.71 72.576 L1275.71 27.2059 L1283.2 27.2059 L1283.2 34.2544 Q1285.55 30.1225 1289.32 28.1376 Q1293.09 26.1121 1298.48 26.1121 Q1299.25 26.1121 1300.18 26.2337 Q1301.11 26.3147 1302.24 26.5172 L1302.28 34.1734 Z" fill="#000000" fill-rule="nonzero" fill-opacity="1" /><path clip-path="url(#clip550)" d="M1325.86 32.4315 Q1319.86 32.4315 1316.38 37.1306 Q1312.9 41.7891 1312.9 49.9314 Q1312.9 58.0738 1316.34 62.7728 Q1319.82 67.4314 1325.86 67.4314 Q1331.81 67.4314 1335.3 62.7323 Q1338.78 58.0333 1338.78 49.9314 Q1338.78 41.8701 1335.3 37.1711 Q1331.81 32.4315 1325.86 32.4315 M1325.86 26.1121 Q1335.58 26.1121 1341.13 32.4315 Q1346.68 38.7509 1346.68 49.9314 Q1346.68 61.0714 1341.13 67.4314 Q1335.58 73.7508 1325.86 73.7508 Q1316.1 73.7508 1310.55 67.4314 Q1305.04 61.0714 1305.04 49.9314 Q1305.04 38.7509 1310.55 32.4315 Q1316.1 26.1121 1325.86 26.1121 Z" fill="#000000" fill-rule="nonzero" fill-opacity="1" /><path clip-path="url(#clip550)" d="M1396.75 45.1919 L1396.75 72.576 L1389.3 72.576 L1389.3 45.4349 Q1389.3 38.994 1386.79 35.7938 Q1384.27 32.5936 1379.25 32.5936 Q1373.21 32.5936 1369.73 36.4419 Q1366.25 40.2903 1366.25 46.9338 L1366.25 72.576 L1358.75 72.576 L1358.75 27.2059 L1366.25 27.2059 L1366.25 34.2544 Q1368.92 30.163 1372.53 28.1376 Q1376.17 26.1121 1380.91 26.1121 Q1388.73 26.1121 1392.74 30.9732 Q1396.75 35.7938 1396.75 45.1919 Z" fill="#000000" fill-rule="nonzero" fill-opacity="1" /><path clip-path="url(#clip550)" d="M1440.54 28.5427 L1440.54 35.5912 Q1437.38 33.9709 1433.98 33.1607 Q1430.58 32.3505 1426.93 32.3505 Q1421.38 32.3505 1418.58 34.0519 Q1415.83 35.7533 1415.83 39.156 Q1415.83 41.7486 1417.82 43.2475 Q1419.8 44.7058 1425.8 46.0426 L1428.35 46.6097 Q1436.29 48.3111 1439.61 51.4303 Q1442.97 54.509 1442.97 60.0587 Q1442.97 66.3781 1437.95 70.0644 Q1432.97 73.7508 1424.22 73.7508 Q1420.57 73.7508 1416.6 73.0216 Q1412.67 72.3329 1408.3 70.9151 L1408.3 63.2184 Q1412.43 65.3654 1416.44 66.4591 Q1420.45 67.5124 1424.38 67.5124 Q1429.64 67.5124 1432.48 65.73 Q1435.31 63.9071 1435.31 60.6258 Q1435.31 57.5877 1433.25 55.9673 Q1431.22 54.3469 1424.3 52.8481 L1421.7 52.2405 Q1414.78 50.7821 1411.7 47.7845 Q1408.62 44.7463 1408.62 39.4801 Q1408.62 33.0797 1413.16 29.5959 Q1417.69 26.1121 1426.04 26.1121 Q1430.17 26.1121 1433.82 26.7198 Q1437.46 27.3274 1440.54 28.5427 Z" fill="#000000" fill-rule="nonzero" fill-opacity="1" /><path clip-path="url(#clip550)" d="M1510.14 28.5427 L1510.14 35.5912 Q1506.98 33.9709 1503.57 33.1607 Q1500.17 32.3505 1496.52 32.3505 Q1490.97 32.3505 1488.18 34.0519 Q1485.42 35.7533 1485.42 39.156 Q1485.42 41.7486 1487.41 43.2475 Q1489.39 44.7058 1495.39 46.0426 L1497.94 46.6097 Q1505.88 48.3111 1509.2 51.4303 Q1512.57 54.509 1512.57 60.0587 Q1512.57 66.3781 1507.54 70.0644 Q1502.56 73.7508 1493.81 73.7508 Q1490.16 73.7508 1486.19 73.0216 Q1482.26 72.3329 1477.89 70.9151 L1477.89 63.2184 Q1482.02 65.3654 1486.03 66.4591 Q1490.04 67.5124 1493.97 67.5124 Q1499.24 67.5124 1502.07 65.73 Q1504.91 63.9071 1504.91 60.6258 Q1504.91 57.5877 1502.84 55.9673 Q1500.82 54.3469 1493.89 52.8481 L1491.3 52.2405 Q1484.37 50.7821 1481.29 47.7845 Q1478.21 44.7463 1478.21 39.4801 Q1478.21 33.0797 1482.75 29.5959 Q1487.29 26.1121 1495.63 26.1121 Q1499.76 26.1121 1503.41 26.7198 Q1507.06 27.3274 1510.14 28.5427 Z" fill="#000000" fill-rule="nonzero" fill-opacity="1" /><path clip-path="url(#clip550)" d="M1522.17 29.0288 L1554.86 29.0288 L1554.86 32.8771 L1522.17 32.8771 L1522.17 29.0288 Z" fill="#000000" fill-rule="nonzero" fill-opacity="1" /><path clip-path="url(#clip550)" d="M1566.73 41.06 L1574.99 41.06 L1574.99 16.3089 L1565.96 17.9698 L1565.96 13.2708 L1575.27 11.6909 L1580.82 11.6909 L1580.82 41.06 L1589.13 41.06 L1589.13 45.516 L1566.73 45.516 L1566.73 41.06 Z" fill="#000000" fill-rule="nonzero" fill-opacity="1" /><path clip-path="url(#clip550)" d="M1660.5 28.9478 L1660.5 35.9153 Q1657.34 34.1734 1654.14 33.3227 Q1650.99 32.4315 1647.74 32.4315 Q1640.49 32.4315 1636.48 37.0496 Q1632.47 41.6271 1632.47 49.9314 Q1632.47 58.2358 1636.48 62.8538 Q1640.49 67.4314 1647.74 67.4314 Q1650.99 67.4314 1654.14 66.5807 Q1657.34 65.6895 1660.5 63.9476 L1660.5 70.8341 Q1657.39 72.2924 1654.02 73.0216 Q1650.7 73.7508 1646.93 73.7508 Q1636.69 73.7508 1630.65 67.3098 Q1624.61 60.8689 1624.61 49.9314 Q1624.61 38.832 1630.69 32.472 Q1636.81 26.1121 1647.42 26.1121 Q1650.86 26.1121 1654.14 26.8413 Q1657.43 27.5299 1660.5 28.9478 Z" fill="#000000" fill-rule="nonzero" fill-opacity="1" /><path clip-path="url(#clip550)" d="M1708.79 35.9153 Q1711.59 30.8922 1715.48 28.5022 Q1719.36 26.1121 1724.63 26.1121 Q1731.72 26.1121 1735.57 31.0947 Q1739.42 36.0368 1739.42 45.1919 L1739.42 72.576 L1731.92 72.576 L1731.92 45.4349 Q1731.92 38.913 1729.61 35.7533 Q1727.3 32.5936 1722.56 32.5936 Q1716.77 32.5936 1713.41 36.4419 Q1710.05 40.2903 1710.05 46.9338 L1710.05 72.576 L1702.55 72.576 L1702.55 45.4349 Q1702.55 38.8725 1700.24 35.7533 Q1697.94 32.5936 1693.11 32.5936 Q1687.4 32.5936 1684.04 36.4824 Q1680.68 40.3308 1680.68 46.9338 L1680.68 72.576 L1673.18 72.576 L1673.18 27.2059 L1680.68 27.2059 L1680.68 34.2544 Q1683.23 30.082 1686.8 28.0971 Q1690.36 26.1121 1695.26 26.1121 Q1700.2 26.1121 1703.65 28.6237 Q1707.13 31.1352 1708.79 35.9153 Z" fill="#000000" fill-rule="nonzero" fill-opacity="1" /><path clip-path="url(#clip550)" d="M1752.01 29.0288 L1784.71 29.0288 L1784.71 32.8771 L1752.01 32.8771 L1752.01 29.0288 Z" fill="#000000" fill-rule="nonzero" fill-opacity="1" /><path clip-path="url(#clip550)" d="M1801.11 40.8979 L1818.29 40.8979 L1818.29 45.516 L1794.06 45.516 L1794.06 41.06 Q1795.44 39.8042 1797.99 37.5357 Q1811.93 25.1804 1811.93 21.3726 Q1811.93 18.699 1809.82 17.0786 Q1807.71 15.4177 1804.27 15.4177 Q1802.16 15.4177 1799.69 16.1469 Q1797.22 16.8356 1794.31 18.2534 L1794.31 13.2708 Q1797.43 12.1365 1800.1 11.5694 Q1802.81 11.0023 1805.12 11.0023 Q1811 11.0023 1814.52 13.6759 Q1818.04 16.3494 1818.04 20.7244 Q1818.04 26.3552 1804.64 37.8598 Q1802.37 39.8042 1801.11 40.8979 Z" fill="#000000" fill-rule="nonzero" fill-opacity="1" /><polyline clip-path="url(#clip552)" style="stroke:#000000; stroke-linecap:round; stroke-linejoin:round; stroke-width:4; stroke-opacity:1; fill:none" points="295.211,1386.4 295.211,1386.4 303.466,1386.4 303.466,1382.02 311.721,1382.02 311.721,1379.83 319.975,1379.83 319.975,1384.21 328.23,1384.21 328.23,1382.02 336.484,1382.02 336.484,1384.21 344.739,1384.21 344.739,1386.4 352.994,1386.4 352.994,1384.21 361.248,1384.21 361.248,1382.02 369.503,1382.02 369.503,1386.4 377.757,1386.4 377.757,1384.21 386.012,1384.21 386.012,1386.4 394.267,1386.4 394.267,1384.21 402.521,1384.21 410.776,1384.21 419.031,1384.21 419.031,1382.02 427.285,1382.02 427.285,1384.21 435.54,1384.21 435.54,1377.64 443.794,1377.64 452.049,1377.64 452.049,1382.02 460.304,1382.02 468.558,1382.02 468.558,1373.26 476.813,1373.26 476.813,1384.21 485.067,1384.21 485.067,1377.64 493.322,1377.64 493.322,1384.21 501.577,1384.21 501.577,1382.02 509.831,1382.02 509.831,1373.26 518.086,1373.26 518.086,1382.02 526.34,1382.02 526.34,1386.4 534.595,1386.4 534.595,1384.21 542.85,1384.21 551.104,1384.21 551.104,1386.4 559.359,1386.4 559.359,1384.21 567.614,1384.21 567.614,1382.02 575.868,1382.02 584.123,1382.02 584.123,1384.21 592.377,1384.21 600.632,1384.21 600.632,1386.4 608.887,1386.4 617.141,1386.4 625.396,1386.4 625.396,1384.21 633.65,1384.21 641.905,1384.21 641.905,1386.4 650.16,1386.4 650.16,1382.02 658.414,1382.02 658.414,1384.21 666.669,1384.21 666.669,1382.02 674.923,1382.02 674.923,1384.21 683.178,1384.21 683.178,1382.02 691.433,1382.02 691.433,1386.4 699.687,1386.4 699.687,1384.21 707.942,1384.21 707.942,1373.26 716.197,1373.26 716.197,1382.02 724.451,1382.02 724.451,1384.21 732.706,1384.21 732.706,1382.02 740.96,1382.02 740.96,1386.4 749.215,1386.4 749.215,1384.21 757.47,1384.21 757.47,1386.4 765.724,1386.4 765.724,1384.21 773.979,1384.21 782.233,1384.21 782.233,1386.4 790.488,1386.4 790.488,1384.21 798.743,1384.21 798.743,1386.4 806.997,1386.4 806.997,1384.21 815.252,1384.21 815.252,1386.4 823.506,1386.4 823.506,1384.21 831.761,1384.21 840.016,1384.21 840.016,1386.4 848.27,1386.4 848.27,1382.02 856.525,1382.02 856.525,1384.21 864.78,1384.21 864.78,1382.02 873.034,1382.02 873.034,1384.21 881.289,1384.21 881.289,1386.4 889.543,1386.4 897.798,1386.4 906.053,1386.4 906.053,1384.21 914.307,1384.21 914.307,1386.4 922.562,1386.4 922.562,1384.21 930.816,1384.21 930.816,1382.02 939.071,1382.02 939.071,1386.4 947.326,1386.4 947.326,1384.21 955.58,1384.21 955.58,1386.4 963.835,1386.4 972.09,1386.4 980.344,1386.4 980.344,1384.21 988.599,1384.21 988.599,1386.4 996.853,1386.4 996.853,1384.21 1005.11,1384.21 1005.11,1386.4 1013.36,1386.4 1021.62,1386.4 1021.62,1384.21 1029.87,1384.21 1038.13,1384.21 1038.13,1386.4 1046.38,1386.4 1046.38,1384.21 1054.64,1384.21 1054.64,1386.4 1062.89,1386.4 1071.14,1386.4 1079.4,1386.4 1079.4,1384.21 1087.65,1384.21 1087.65,1386.4 1095.91,1386.4 1095.91,1384.21 1104.16,1384.21 1104.16,1386.4 1112.42,1386.4 1120.67,1386.4 1120.67,1382.02 1128.93,1382.02 1128.93,1386.4 1137.18,1386.4 1137.18,1384.21 1145.44,1384.21 1153.69,1384.21 1153.69,1386.4 1161.95,1386.4 1161.95,1382.02 1170.2,1382.02 1178.45,1382.02 1178.45,1386.4 1186.71,1386.4 1194.96,1386.4 1194.96,1384.21 1203.22,1384.21 1211.47,1384.21 1211.47,1386.4 1219.73,1386.4 1227.98,1386.4 1236.24,1386.4 1236.24,1384.21 1244.49,1384.21 1244.49,1386.4 1252.75,1386.4 1261,1386.4 1261,1384.21 1269.26,1384.21 1277.51,1384.21 1277.51,1386.4 1285.76,1386.4 1285.76,1384.21 1294.02,1384.21 1294.02,1386.4 1302.27,1386.4 1310.53,1386.4 1318.78,1386.4 1318.78,1384.21 1327.04,1384.21 1327.04,1382.02 1335.29,1382.02 1335.29,1384.21 1343.55,1384.21 1351.8,1384.21 1360.06,1384.21 1360.06,1386.4 1368.31,1386.4 1376.57,1386.4 1376.57,1384.21 1384.82,1384.21 1384.82,1386.4 1393.07,1386.4 1393.07,1382.02 1401.33,1382.02 1401.33,1384.21 1409.58,1384.21 1409.58,1386.4 1417.84,1386.4 1426.09,1386.4 1426.09,1384.21 1434.35,1384.21 1434.35,1386.4 1442.6,1386.4 1442.6,1384.21 1450.86,1384.21 1459.11,1384.21 1459.11,1386.4 1467.37,1386.4 1475.62,1386.4 1483.88,1386.4 1492.13,1386.4 1500.38,1386.4 1500.38,1384.21 1508.64,1384.21 1508.64,1386.4 1516.89,1386.4 1525.15,1386.4 1533.4,1386.4 1541.66,1386.4 1549.91,1386.4 1558.17,1386.4 1566.42,1386.4 1574.68,1386.4 1582.93,1386.4 1591.19,1386.4 1599.44,1386.4 1599.44,1382.02 1607.69,1382.02 1607.69,1386.4 1615.95,1386.4 1615.95,1384.21 1624.2,1384.21 1624.2,1386.4 1632.46,1386.4 1640.71,1386.4 1648.97,1386.4 1657.22,1386.4 1657.22,1384.21 1665.48,1384.21 1665.48,1386.4 1673.73,1386.4 1681.99,1386.4 1690.24,1386.4 1698.5,1386.4 1698.5,1384.21 1706.75,1384.21 1706.75,1386.4 1715,1386.4 1715,1384.21 1723.26,1384.21 1731.51,1384.21 1731.51,1386.4 1739.77,1386.4 1739.77,1384.21 1748.02,1384.21 1756.28,1384.21 1756.28,1386.4 1764.53,1386.4 1772.79,1386.4 1781.04,1386.4 1781.04,1384.21 1789.3,1384.21 1789.3,1386.4 1797.55,1386.4 1805.81,1386.4 1805.81,1382.02 1814.06,1382.02 1814.06,1384.21 1822.31,1384.21 1822.31,1382.02 1830.57,1382.02 1830.57,1386.4 1838.82,1386.4 1847.08,1386.4 1855.33,1386.4 1863.59,1386.4 1871.84,1386.4 1871.84,1384.21 1880.1,1384.21 1880.1,1386.4 1888.35,1386.4 1896.61,1386.4 1904.86,1386.4 1913.12,1386.4 1921.37,1386.4 1929.62,1386.4 1937.88,1386.4 1946.13,1386.4 1946.13,1384.21 1954.39,1384.21 1954.39,1386.4 1962.64,1386.4 1970.9,1386.4 1979.15,1386.4 1979.15,1384.21 1987.41,1384.21 1987.41,1386.4 1995.66,1386.4 2003.92,1386.4 2012.17,1386.4 2012.17,1384.21 2020.43,1384.21 2020.43,1386.4 2028.68,1386.4 2036.93,1386.4 2045.19,1386.4 2045.19,1384.21 2053.44,1384.21 2053.44,1386.4 2061.7,1386.4 2069.95,1386.4 2078.21,1386.4 2078.21,1384.21 2086.46,1384.21 2086.46,1386.4 2094.72,1386.4 2102.97,1386.4 2111.23,1386.4 2119.48,1386.4 2127.74,1386.4 2127.74,1384.21 2135.99,1384.21 2135.99,1382.02 2144.24,1382.02 2144.24,1386.4 2152.5,1386.4 2160.75,1386.4 2169.01,1386.4 2177.26,1386.4 2177.26,1384.21 2185.52,1384.21 2185.52,1386.4 2193.77,1386.4 2193.77,1382.02 2202.03,1382.02 2202.03,1386.4 2210.28,1386.4 2210.28,1384.21 2218.54,1384.21 2218.54,1386.4 2226.79,1386.4 2235.05,1386.4 2243.3,1386.4 2251.55,1386.4 2251.55,1384.21 2259.81,1384.21 2259.81,1386.4 2268.06,1386.4 2276.32,1386.4 2284.57,1386.4 2292.83,1386.4 "/>
<polyline clip-path="url(#clip552)" style="stroke:#ff0000; stroke-linecap:round; stroke-linejoin:round; stroke-width:4; stroke-opacity:1; fill:none" points="295.211,1386.4 295.211,1386.4 303.466,1386.4 303.466,160.256 311.721,160.256 311.721,162.446 319.975,162.446 319.975,530.288 328.23,530.288 328.23,722.967 336.484,722.967 336.484,867.476 344.739,867.476 344.739,946.299 352.994,946.299 352.994,1003.23 361.248,1003.23 361.248,1022.93 369.503,1022.93 369.503,1093 377.757,1093 377.757,1106.14 386.012,1106.14 386.012,1141.17 394.267,1141.17 394.267,1178.39 402.521,1178.39 402.521,1149.93 410.776,1149.93 410.776,1156.49 419.031,1156.49 419.031,1200.29 427.285,1200.29 427.285,1149.93 435.54,1149.93 435.54,1202.47 443.794,1202.47 443.794,1222.18 452.049,1222.18 452.049,1261.59 460.304,1261.59 460.304,1237.51 468.558,1237.51 468.558,1257.21 476.813,1257.21 476.813,1270.35 485.067,1270.35 485.067,1281.3 493.322,1281.3 493.322,1298.81 501.577,1298.81 501.577,1318.52 509.831,1318.52 509.831,1325.09 518.086,1325.09 518.086,1329.47 526.34,1329.47 526.34,1353.55 534.595,1353.55 534.595,1375.45 542.85,1375.45 542.85,1366.69 551.104,1366.69 551.104,1360.12 559.359,1360.12 559.359,1373.26 567.614,1373.26 567.614,1362.31 575.868,1362.31 575.868,1377.64 584.123,1377.64 584.123,1371.07 592.377,1371.07 592.377,1375.45 600.632,1375.45 608.887,1375.45 608.887,1368.88 617.141,1368.88 617.141,1379.83 625.396,1379.83 625.396,1384.21 633.65,1384.21 633.65,1386.4 641.905,1386.4 641.905,1377.64 650.16,1377.64 650.16,1379.83 658.414,1379.83 658.414,1382.02 666.669,1382.02 674.923,1382.02 674.923,1375.45 683.178,1375.45 683.178,1384.21 691.433,1384.21 699.687,1384.21 699.687,1379.83 707.942,1379.83 707.942,1384.21 716.197,1384.21 724.451,1384.21 724.451,1379.83 732.706,1379.83 732.706,1384.21 740.96,1384.21 749.215,1384.21 749.215,1382.02 757.47,1382.02 757.47,1384.21 765.724,1384.21 765.724,1382.02 773.979,1382.02 782.233,1382.02 782.233,1384.21 790.488,1384.21 798.743,1384.21 798.743,1386.4 806.997,1386.4 806.997,1384.21 815.252,1384.21 823.506,1384.21 823.506,1386.4 831.761,1386.4 840.016,1386.4 840.016,1382.02 848.27,1382.02 856.525,1382.02 864.78,1382.02 864.78,1386.4 873.034,1386.4 881.289,1386.4 881.289,1382.02 889.543,1382.02 889.543,1386.4 897.798,1386.4 897.798,1382.02 906.053,1382.02 906.053,1384.21 914.307,1384.21 914.307,1379.83 922.562,1379.83 922.562,1386.4 930.816,1386.4 939.071,1386.4 939.071,1379.83 947.326,1379.83 947.326,1386.4 955.58,1386.4 955.58,1384.21 963.835,1384.21 963.835,1386.4 972.09,1386.4 980.344,1386.4 988.599,1386.4 996.853,1386.4 996.853,1384.21 1005.11,1384.21 1005.11,1386.4 1013.36,1386.4 1021.62,1386.4 1029.87,1386.4 1038.13,1386.4 1046.38,1386.4 1054.64,1386.4 1062.89,1386.4 1071.14,1386.4 1079.4,1386.4 1079.4,1382.02 1087.65,1382.02 1095.91,1382.02 1095.91,1386.4 1104.16,1386.4 1112.42,1386.4 1120.67,1386.4 1128.93,1386.4 1128.93,1384.21 1137.18,1384.21 1137.18,1386.4 1145.44,1386.4 1153.69,1386.4 1161.95,1386.4 1170.2,1386.4 1178.45,1386.4 1186.71,1386.4 1194.96,1386.4 1194.96,1384.21 1203.22,1384.21 1211.47,1384.21 1211.47,1386.4 1219.73,1386.4 1227.98,1386.4 1236.24,1386.4 1244.49,1386.4 1252.75,1386.4 1261,1386.4 1269.26,1386.4 1277.51,1386.4 1285.76,1386.4 1294.02,1386.4 1302.27,1386.4 1310.53,1386.4 1318.78,1386.4 1327.04,1386.4 1335.29,1386.4 1343.55,1386.4 1351.8,1386.4 1360.06,1386.4 1368.31,1386.4 1376.57,1386.4 1384.82,1386.4 1393.07,1386.4 1401.33,1386.4 1409.58,1386.4 1417.84,1386.4 1426.09,1386.4 1434.35,1386.4 1442.6,1386.4 1442.6,1384.21 1450.86,1384.21 1450.86,1386.4 1459.11,1386.4 1467.37,1386.4 1475.62,1386.4 1483.88,1386.4 1492.13,1386.4 1500.38,1386.4 1508.64,1386.4 1516.89,1386.4 1525.15,1386.4 1533.4,1386.4 1541.66,1386.4 1549.91,1386.4 1558.17,1386.4 1566.42,1386.4 1574.68,1386.4 1582.93,1386.4 1591.19,1386.4 1591.19,1384.21 1599.44,1384.21 1599.44,1386.4 1607.69,1386.4 1615.95,1386.4 1615.95,1384.21 1624.2,1384.21 1624.2,1386.4 1632.46,1386.4 1640.71,1386.4 1648.97,1386.4 1657.22,1386.4 1665.48,1386.4 1673.73,1386.4 1681.99,1386.4 1690.24,1386.4 1690.24,1384.21 1698.5,1384.21 1698.5,1386.4 1706.75,1386.4 1715,1386.4 1723.26,1386.4 1723.26,1384.21 1731.51,1384.21 1731.51,1386.4 1739.77,1386.4 1748.02,1386.4 1756.28,1386.4 1764.53,1386.4 1772.79,1386.4 1781.04,1386.4 1781.04,1384.21 1789.3,1384.21 1789.3,1386.4 1797.55,1386.4 1805.81,1386.4 1814.06,1386.4 1822.31,1386.4 1830.57,1386.4 1838.82,1386.4 1847.08,1386.4 1855.33,1386.4 1863.59,1386.4 1871.84,1386.4 1880.1,1386.4 1880.1,1384.21 1888.35,1384.21 1888.35,1386.4 1896.61,1386.4 1904.86,1386.4 1913.12,1386.4 1921.37,1386.4 1921.37,1384.21 1929.62,1384.21 1929.62,1386.4 1937.88,1386.4 1946.13,1386.4 1954.39,1386.4 1962.64,1386.4 1970.9,1386.4 1979.15,1386.4 1987.41,1386.4 1995.66,1386.4 2003.92,1386.4 2012.17,1386.4 2020.43,1386.4 2028.68,1386.4 2036.93,1386.4 2045.19,1386.4 2053.44,1386.4 2061.7,1386.4 2069.95,1386.4 2078.21,1386.4 2086.46,1386.4 2094.72,1386.4 2102.97,1386.4 2111.23,1386.4 2119.48,1386.4 2127.74,1386.4 2135.99,1386.4 2144.24,1386.4 2152.5,1386.4 2160.75,1386.4 2169.01,1386.4 2177.26,1386.4 2185.52,1386.4 2193.77,1386.4 2202.03,1386.4 2210.28,1386.4 2218.54,1386.4 2226.79,1386.4 2235.05,1386.4 2243.3,1386.4 2251.55,1386.4 2251.55,1384.21 2259.81,1384.21 2259.81,1386.4 2268.06,1386.4 2276.32,1386.4 2284.57,1386.4 2292.83,1386.4 "/>
<path clip-path="url(#clip550)" d="M1655.71 322.316 L2282.17 322.316 L2282.17 166.796 L1655.71 166.796  Z" fill="#ffffff" fill-rule="evenodd" fill-opacity="1"/>
<polyline clip-path="url(#clip550)" style="stroke:#000000; stroke-linecap:round; stroke-linejoin:round; stroke-width:4; stroke-opacity:1; fill:none" points="1655.71,322.316 2282.17,322.316 2282.17,166.796 1655.71,166.796 1655.71,322.316 "/>
<polyline clip-path="url(#clip550)" style="stroke:#000000; stroke-linecap:round; stroke-linejoin:round; stroke-width:4; stroke-opacity:1; fill:none" points="1679.23,218.636 1820.4,218.636 "/>
<path clip-path="url(#clip550)" d="M1871.8 204.018 L1871.8 208.948 Q1869.44 206.749 1866.75 205.661 Q1864.09 204.573 1861.08 204.573 Q1855.15 204.573 1852 208.208 Q1848.86 211.819 1848.86 218.67 Q1848.86 225.499 1852 229.133 Q1855.15 232.744 1861.08 232.744 Q1864.09 232.744 1866.75 231.656 Q1869.44 230.569 1871.8 228.369 L1871.8 233.254 Q1869.34 234.92 1866.59 235.754 Q1863.86 236.587 1860.8 236.587 Q1852.95 236.587 1848.44 231.795 Q1843.93 226.981 1843.93 218.67 Q1843.93 210.337 1848.44 205.546 Q1852.95 200.731 1860.8 200.731 Q1863.9 200.731 1866.63 201.564 Q1869.39 202.374 1871.8 204.018 Z" fill="#000000" fill-rule="nonzero" fill-opacity="1" /><path clip-path="url(#clip550)" d="M1888.88 212.976 Q1885.45 212.976 1883.46 215.661 Q1881.47 218.323 1881.47 222.976 Q1881.47 227.629 1883.44 230.314 Q1885.43 232.976 1888.88 232.976 Q1892.28 232.976 1894.27 230.291 Q1896.26 227.606 1896.26 222.976 Q1896.26 218.37 1894.27 215.684 Q1892.28 212.976 1888.88 212.976 M1888.88 209.365 Q1894.43 209.365 1897.61 212.976 Q1900.78 216.587 1900.78 222.976 Q1900.78 229.342 1897.61 232.976 Q1894.43 236.587 1888.88 236.587 Q1883.3 236.587 1880.13 232.976 Q1876.98 229.342 1876.98 222.976 Q1876.98 216.587 1880.13 212.976 Q1883.3 209.365 1888.88 209.365 Z" fill="#000000" fill-rule="nonzero" fill-opacity="1" /><path clip-path="url(#clip550)" d="M1922.86 213.971 Q1922.14 213.555 1921.29 213.37 Q1920.45 213.161 1919.43 213.161 Q1915.82 213.161 1913.88 215.522 Q1911.96 217.86 1911.96 222.258 L1911.96 235.916 L1907.68 235.916 L1907.68 209.99 L1911.96 209.99 L1911.96 214.018 Q1913.3 211.657 1915.45 210.522 Q1917.61 209.365 1920.68 209.365 Q1921.12 209.365 1921.66 209.434 Q1922.19 209.481 1922.84 209.596 L1922.86 213.971 Z" fill="#000000" fill-rule="nonzero" fill-opacity="1" /><path clip-path="url(#clip550)" d="M1941.52 213.971 Q1940.8 213.555 1939.94 213.37 Q1939.11 213.161 1938.09 213.161 Q1934.48 213.161 1932.54 215.522 Q1930.62 217.86 1930.62 222.258 L1930.62 235.916 L1926.33 235.916 L1926.33 209.99 L1930.62 209.99 L1930.62 214.018 Q1931.96 211.657 1934.11 210.522 Q1936.26 209.365 1939.34 209.365 Q1939.78 209.365 1940.31 209.434 Q1940.85 209.481 1941.49 209.596 L1941.52 213.971 Z" fill="#000000" fill-rule="nonzero" fill-opacity="1" /><path clip-path="url(#clip550)" d="M1967.12 221.888 L1967.12 223.971 L1947.54 223.971 Q1947.81 228.369 1950.18 230.684 Q1952.56 232.976 1956.8 232.976 Q1959.25 232.976 1961.54 232.374 Q1963.86 231.772 1966.12 230.569 L1966.12 234.596 Q1963.83 235.568 1961.43 236.078 Q1959.02 236.587 1956.54 236.587 Q1950.34 236.587 1946.7 232.976 Q1943.09 229.365 1943.09 223.207 Q1943.09 216.842 1946.52 213.115 Q1949.97 209.365 1955.8 209.365 Q1961.03 209.365 1964.06 212.745 Q1967.12 216.101 1967.12 221.888 M1962.86 220.638 Q1962.81 217.143 1960.89 215.059 Q1958.99 212.976 1955.85 212.976 Q1952.28 212.976 1950.13 214.99 Q1948 217.004 1947.68 220.661 L1962.86 220.638 Z" fill="#000000" fill-rule="nonzero" fill-opacity="1" /><path clip-path="url(#clip550)" d="M1992.77 210.985 L1992.77 214.967 Q1990.96 213.971 1989.13 213.485 Q1987.33 212.976 1985.48 212.976 Q1981.33 212.976 1979.04 215.615 Q1976.75 218.231 1976.75 222.976 Q1976.75 227.721 1979.04 230.36 Q1981.33 232.976 1985.48 232.976 Q1987.33 232.976 1989.13 232.49 Q1990.96 231.981 1992.77 230.985 L1992.77 234.92 Q1990.99 235.754 1989.06 236.17 Q1987.17 236.587 1985.01 236.587 Q1979.16 236.587 1975.71 232.906 Q1972.26 229.226 1972.26 222.976 Q1972.26 216.633 1975.73 212.999 Q1979.23 209.365 1985.29 209.365 Q1987.26 209.365 1989.13 209.782 Q1991.01 210.175 1992.77 210.985 Z" fill="#000000" fill-rule="nonzero" fill-opacity="1" /><path clip-path="url(#clip550)" d="M2004.39 202.629 L2004.39 209.99 L2013.16 209.99 L2013.16 213.3 L2004.39 213.3 L2004.39 227.374 Q2004.39 230.545 2005.24 231.448 Q2006.12 232.351 2008.79 232.351 L2013.16 232.351 L2013.16 235.916 L2008.79 235.916 Q2003.86 235.916 2001.98 234.087 Q2000.11 232.235 2000.11 227.374 L2000.11 213.3 L1996.98 213.3 L1996.98 209.99 L2000.11 209.99 L2000.11 202.629 L2004.39 202.629 Z" fill="#000000" fill-rule="nonzero" fill-opacity="1" /><path clip-path="url(#clip550)" d="M2056.01 221.888 L2056.01 223.971 L2036.42 223.971 Q2036.7 228.369 2039.06 230.684 Q2041.45 232.976 2045.68 232.976 Q2048.14 232.976 2050.43 232.374 Q2052.74 231.772 2055.01 230.569 L2055.01 234.596 Q2052.72 235.568 2050.31 236.078 Q2047.91 236.587 2045.43 236.587 Q2039.23 236.587 2035.59 232.976 Q2031.98 229.365 2031.98 223.207 Q2031.98 216.842 2035.41 213.115 Q2038.86 209.365 2044.69 209.365 Q2049.92 209.365 2052.95 212.745 Q2056.01 216.101 2056.01 221.888 M2051.75 220.638 Q2051.7 217.143 2049.78 215.059 Q2047.88 212.976 2044.74 212.976 Q2041.17 212.976 2039.02 214.99 Q2036.89 217.004 2036.56 220.661 L2051.75 220.638 Z" fill="#000000" fill-rule="nonzero" fill-opacity="1" /><path clip-path="url(#clip550)" d="M2059.94 209.99 L2064.46 209.99 L2072.56 231.749 L2080.66 209.99 L2085.17 209.99 L2075.45 235.916 L2069.67 235.916 L2059.94 209.99 Z" fill="#000000" fill-rule="nonzero" fill-opacity="1" /><path clip-path="url(#clip550)" d="M2113.23 221.888 L2113.23 223.971 L2093.65 223.971 Q2093.92 228.369 2096.29 230.684 Q2098.67 232.976 2102.91 232.976 Q2105.36 232.976 2107.65 232.374 Q2109.97 231.772 2112.23 230.569 L2112.23 234.596 Q2109.94 235.568 2107.54 236.078 Q2105.13 236.587 2102.65 236.587 Q2096.45 236.587 2092.81 232.976 Q2089.2 229.365 2089.2 223.207 Q2089.2 216.842 2092.63 213.115 Q2096.08 209.365 2101.91 209.365 Q2107.14 209.365 2110.17 212.745 Q2113.23 216.101 2113.23 221.888 M2108.97 220.638 Q2108.92 217.143 2107 215.059 Q2105.11 212.976 2101.96 212.976 Q2098.39 212.976 2096.24 214.99 Q2094.11 217.004 2093.79 220.661 L2108.97 220.638 Z" fill="#000000" fill-rule="nonzero" fill-opacity="1" /><path clip-path="url(#clip550)" d="M2141.77 220.268 L2141.77 235.916 L2137.51 235.916 L2137.51 220.407 Q2137.51 216.726 2136.08 214.897 Q2134.64 213.069 2131.77 213.069 Q2128.32 213.069 2126.33 215.268 Q2124.34 217.467 2124.34 221.263 L2124.34 235.916 L2120.06 235.916 L2120.06 209.99 L2124.34 209.99 L2124.34 214.018 Q2125.87 211.68 2127.93 210.522 Q2130.01 209.365 2132.72 209.365 Q2137.19 209.365 2139.48 212.143 Q2141.77 214.897 2141.77 220.268 Z" fill="#000000" fill-rule="nonzero" fill-opacity="1" /><path clip-path="url(#clip550)" d="M2154.48 202.629 L2154.48 209.99 L2163.25 209.99 L2163.25 213.3 L2154.48 213.3 L2154.48 227.374 Q2154.48 230.545 2155.34 231.448 Q2156.22 232.351 2158.88 232.351 L2163.25 232.351 L2163.25 235.916 L2158.88 235.916 Q2153.95 235.916 2152.07 234.087 Q2150.2 232.235 2150.2 227.374 L2150.2 213.3 L2147.07 213.3 L2147.07 209.99 L2150.2 209.99 L2150.2 202.629 L2154.48 202.629 Z" fill="#000000" fill-rule="nonzero" fill-opacity="1" /><path clip-path="url(#clip550)" d="M2185.38 210.754 L2185.38 214.782 Q2183.58 213.856 2181.63 213.393 Q2179.69 212.93 2177.6 212.93 Q2174.43 212.93 2172.84 213.902 Q2171.26 214.874 2171.26 216.819 Q2171.26 218.3 2172.4 219.157 Q2173.53 219.99 2176.96 220.754 L2178.41 221.078 Q2182.95 222.05 2184.85 223.832 Q2186.77 225.592 2186.77 228.763 Q2186.77 232.374 2183.9 234.481 Q2181.05 236.587 2176.05 236.587 Q2173.97 236.587 2171.7 236.17 Q2169.46 235.777 2166.96 234.967 L2166.96 230.569 Q2169.32 231.795 2171.61 232.42 Q2173.9 233.022 2176.15 233.022 Q2179.16 233.022 2180.78 232.004 Q2182.4 230.962 2182.4 229.087 Q2182.4 227.351 2181.22 226.425 Q2180.06 225.499 2176.1 224.643 L2174.62 224.295 Q2170.66 223.462 2168.9 221.749 Q2167.14 220.013 2167.14 217.004 Q2167.14 213.346 2169.73 211.356 Q2172.33 209.365 2177.1 209.365 Q2179.46 209.365 2181.54 209.712 Q2183.62 210.059 2185.38 210.754 Z" fill="#000000" fill-rule="nonzero" fill-opacity="1" /><polyline clip-path="url(#clip550)" style="stroke:#ff0000; stroke-linecap:round; stroke-linejoin:round; stroke-width:4; stroke-opacity:1; fill:none" points="1679.23,270.476 1820.4,270.476 "/>
<path clip-path="url(#clip550)" d="M1866.17 254.33 L1866.17 258.89 Q1863.51 257.617 1861.15 256.992 Q1858.79 256.367 1856.59 256.367 Q1852.77 256.367 1850.69 257.848 Q1848.63 259.33 1848.63 262.061 Q1848.63 264.353 1849.99 265.534 Q1851.38 266.691 1855.22 267.409 L1858.05 267.987 Q1863.28 268.983 1865.75 271.506 Q1868.25 274.006 1868.25 278.219 Q1868.25 283.242 1864.87 285.834 Q1861.52 288.427 1855.01 288.427 Q1852.56 288.427 1849.78 287.871 Q1847.03 287.316 1844.06 286.228 L1844.06 281.413 Q1846.91 283.01 1849.64 283.821 Q1852.38 284.631 1855.01 284.631 Q1859.02 284.631 1861.19 283.057 Q1863.37 281.483 1863.37 278.566 Q1863.37 276.02 1861.8 274.584 Q1860.25 273.149 1856.68 272.432 L1853.83 271.876 Q1848.6 270.835 1846.26 268.612 Q1843.93 266.39 1843.93 262.432 Q1843.93 257.848 1847.14 255.21 Q1850.38 252.571 1856.06 252.571 Q1858.49 252.571 1861.01 253.011 Q1863.53 253.45 1866.17 254.33 Z" fill="#000000" fill-rule="nonzero" fill-opacity="1" /><path clip-path="url(#clip550)" d="M1879.57 254.469 L1879.57 261.83 L1888.35 261.83 L1888.35 265.14 L1879.57 265.14 L1879.57 279.214 Q1879.57 282.385 1880.43 283.288 Q1881.31 284.191 1883.97 284.191 L1888.35 284.191 L1888.35 287.756 L1883.97 287.756 Q1879.04 287.756 1877.17 285.927 Q1875.29 284.075 1875.29 279.214 L1875.29 265.14 L1872.17 265.14 L1872.17 261.83 L1875.29 261.83 L1875.29 254.469 L1879.57 254.469 Z" fill="#000000" fill-rule="nonzero" fill-opacity="1" /><path clip-path="url(#clip550)" d="M1904 264.816 Q1900.57 264.816 1898.58 267.501 Q1896.59 270.163 1896.59 274.816 Q1896.59 279.469 1898.56 282.154 Q1900.55 284.816 1904 284.816 Q1907.4 284.816 1909.39 282.131 Q1911.38 279.446 1911.38 274.816 Q1911.38 270.21 1909.39 267.524 Q1907.4 264.816 1904 264.816 M1904 261.205 Q1909.55 261.205 1912.72 264.816 Q1915.89 268.427 1915.89 274.816 Q1915.89 281.182 1912.72 284.816 Q1909.55 288.427 1904 288.427 Q1898.42 288.427 1895.25 284.816 Q1892.1 281.182 1892.1 274.816 Q1892.1 268.427 1895.25 264.816 Q1898.42 261.205 1904 261.205 Z" fill="#000000" fill-rule="nonzero" fill-opacity="1" /><path clip-path="url(#clip550)" d="M1941.61 262.825 L1941.61 266.807 Q1939.81 265.811 1937.98 265.325 Q1936.17 264.816 1934.32 264.816 Q1930.18 264.816 1927.88 267.455 Q1925.59 270.071 1925.59 274.816 Q1925.59 279.561 1927.88 282.2 Q1930.18 284.816 1934.32 284.816 Q1936.17 284.816 1937.98 284.33 Q1939.81 283.821 1941.61 282.825 L1941.61 286.76 Q1939.83 287.594 1937.91 288.01 Q1936.01 288.427 1933.86 288.427 Q1928 288.427 1924.55 284.746 Q1921.1 281.066 1921.1 274.816 Q1921.1 268.473 1924.57 264.839 Q1928.07 261.205 1934.13 261.205 Q1936.1 261.205 1937.98 261.622 Q1939.85 262.015 1941.61 262.825 Z" fill="#000000" fill-rule="nonzero" fill-opacity="1" /><path clip-path="url(#clip550)" d="M1970.57 272.108 L1970.57 287.756 L1966.31 287.756 L1966.31 272.247 Q1966.31 268.566 1964.87 266.737 Q1963.44 264.909 1960.57 264.909 Q1957.12 264.909 1955.13 267.108 Q1953.14 269.307 1953.14 273.103 L1953.14 287.756 L1948.86 287.756 L1948.86 251.737 L1953.14 251.737 L1953.14 265.858 Q1954.67 263.52 1956.73 262.362 Q1958.81 261.205 1961.52 261.205 Q1965.99 261.205 1968.28 263.983 Q1970.57 266.737 1970.57 272.108 Z" fill="#000000" fill-rule="nonzero" fill-opacity="1" /><path clip-path="url(#clip550)" d="M1990.85 274.723 Q1985.68 274.723 1983.69 275.904 Q1981.7 277.084 1981.7 279.932 Q1981.7 282.2 1983.18 283.543 Q1984.69 284.862 1987.26 284.862 Q1990.8 284.862 1992.93 282.362 Q1995.08 279.839 1995.08 275.672 L1995.08 274.723 L1990.85 274.723 M1999.34 272.964 L1999.34 287.756 L1995.08 287.756 L1995.08 283.821 Q1993.62 286.182 1991.45 287.316 Q1989.27 288.427 1986.12 288.427 Q1982.14 288.427 1979.78 286.205 Q1977.44 283.959 1977.44 280.209 Q1977.44 275.834 1980.36 273.612 Q1983.3 271.39 1989.11 271.39 L1995.08 271.39 L1995.08 270.973 Q1995.08 268.034 1993.14 266.436 Q1991.22 264.816 1987.72 264.816 Q1985.5 264.816 1983.39 265.348 Q1981.29 265.881 1979.34 266.946 L1979.34 263.01 Q1981.68 262.108 1983.88 261.668 Q1986.08 261.205 1988.16 261.205 Q1993.79 261.205 1996.56 264.122 Q1999.34 267.038 1999.34 272.964 Z" fill="#000000" fill-rule="nonzero" fill-opacity="1" /><path clip-path="url(#clip550)" d="M2024.64 262.594 L2024.64 266.622 Q2022.84 265.696 2020.89 265.233 Q2018.95 264.77 2016.86 264.77 Q2013.69 264.77 2012.1 265.742 Q2010.52 266.714 2010.52 268.659 Q2010.52 270.14 2011.66 270.997 Q2012.79 271.83 2016.22 272.594 L2017.68 272.918 Q2022.21 273.89 2024.11 275.672 Q2026.03 277.432 2026.03 280.603 Q2026.03 284.214 2023.16 286.321 Q2020.31 288.427 2015.31 288.427 Q2013.23 288.427 2010.96 288.01 Q2008.72 287.617 2006.22 286.807 L2006.22 282.409 Q2008.58 283.635 2010.87 284.26 Q2013.16 284.862 2015.41 284.862 Q2018.42 284.862 2020.04 283.844 Q2021.66 282.802 2021.66 280.927 Q2021.66 279.191 2020.48 278.265 Q2019.32 277.339 2015.36 276.483 L2013.88 276.135 Q2009.92 275.302 2008.16 273.589 Q2006.4 271.853 2006.4 268.844 Q2006.4 265.186 2008.99 263.196 Q2011.59 261.205 2016.36 261.205 Q2018.72 261.205 2020.8 261.552 Q2022.88 261.899 2024.64 262.594 Z" fill="#000000" fill-rule="nonzero" fill-opacity="1" /><path clip-path="url(#clip550)" d="M2037.03 254.469 L2037.03 261.83 L2045.8 261.83 L2045.8 265.14 L2037.03 265.14 L2037.03 279.214 Q2037.03 282.385 2037.88 283.288 Q2038.76 284.191 2041.42 284.191 L2045.8 284.191 L2045.8 287.756 L2041.42 287.756 Q2036.49 287.756 2034.62 285.927 Q2032.74 284.075 2032.74 279.214 L2032.74 265.14 L2029.62 265.14 L2029.62 261.83 L2032.74 261.83 L2032.74 254.469 L2037.03 254.469 Z" fill="#000000" fill-rule="nonzero" fill-opacity="1" /><path clip-path="url(#clip550)" d="M2051.4 261.83 L2055.66 261.83 L2055.66 287.756 L2051.4 287.756 L2051.4 261.83 M2051.4 251.737 L2055.66 251.737 L2055.66 257.131 L2051.4 257.131 L2051.4 251.737 Z" fill="#000000" fill-rule="nonzero" fill-opacity="1" /><path clip-path="url(#clip550)" d="M2083.23 262.825 L2083.23 266.807 Q2081.42 265.811 2079.6 265.325 Q2077.79 264.816 2075.94 264.816 Q2071.8 264.816 2069.5 267.455 Q2067.21 270.071 2067.21 274.816 Q2067.21 279.561 2069.5 282.2 Q2071.8 284.816 2075.94 284.816 Q2077.79 284.816 2079.6 284.33 Q2081.42 283.821 2083.23 282.825 L2083.23 286.76 Q2081.45 287.594 2079.53 288.01 Q2077.63 288.427 2075.48 288.427 Q2069.62 288.427 2066.17 284.746 Q2062.72 281.066 2062.72 274.816 Q2062.72 268.473 2066.19 264.839 Q2069.69 261.205 2075.75 261.205 Q2077.72 261.205 2079.6 261.622 Q2081.47 262.015 2083.23 262.825 Z" fill="#000000" fill-rule="nonzero" fill-opacity="1" /><path clip-path="url(#clip550)" d="M2127.88 273.728 L2127.88 275.811 L2108.3 275.811 Q2108.58 280.209 2110.94 282.524 Q2113.32 284.816 2117.56 284.816 Q2120.01 284.816 2122.3 284.214 Q2124.62 283.612 2126.89 282.409 L2126.89 286.436 Q2124.6 287.408 2122.19 287.918 Q2119.78 288.427 2117.3 288.427 Q2111.1 288.427 2107.47 284.816 Q2103.86 281.205 2103.86 275.047 Q2103.86 268.682 2107.28 264.955 Q2110.73 261.205 2116.56 261.205 Q2121.79 261.205 2124.83 264.585 Q2127.88 267.941 2127.88 273.728 M2123.62 272.478 Q2123.58 268.983 2121.66 266.899 Q2119.76 264.816 2116.61 264.816 Q2113.04 264.816 2110.89 266.83 Q2108.76 268.844 2108.44 272.501 L2123.62 272.478 Z" fill="#000000" fill-rule="nonzero" fill-opacity="1" /><path clip-path="url(#clip550)" d="M2131.82 261.83 L2136.33 261.83 L2144.43 283.589 L2152.54 261.83 L2157.05 261.83 L2147.33 287.756 L2141.54 287.756 L2131.82 261.83 Z" fill="#000000" fill-rule="nonzero" fill-opacity="1" /><path clip-path="url(#clip550)" d="M2185.1 273.728 L2185.1 275.811 L2165.52 275.811 Q2165.8 280.209 2168.16 282.524 Q2170.54 284.816 2174.78 284.816 Q2177.23 284.816 2179.53 284.214 Q2181.84 283.612 2184.11 282.409 L2184.11 286.436 Q2181.82 287.408 2179.41 287.918 Q2177 288.427 2174.53 288.427 Q2168.32 288.427 2164.69 284.816 Q2161.08 281.205 2161.08 275.047 Q2161.08 268.682 2164.5 264.955 Q2167.95 261.205 2173.79 261.205 Q2179.02 261.205 2182.05 264.585 Q2185.1 267.941 2185.1 273.728 M2180.85 272.478 Q2180.8 268.983 2178.88 266.899 Q2176.98 264.816 2173.83 264.816 Q2170.27 264.816 2168.11 266.83 Q2165.98 268.844 2165.66 272.501 L2180.85 272.478 Z" fill="#000000" fill-rule="nonzero" fill-opacity="1" /><path clip-path="url(#clip550)" d="M2213.65 272.108 L2213.65 287.756 L2209.39 287.756 L2209.39 272.247 Q2209.39 268.566 2207.95 266.737 Q2206.52 264.909 2203.65 264.909 Q2200.2 264.909 2198.21 267.108 Q2196.22 269.307 2196.22 273.103 L2196.22 287.756 L2191.93 287.756 L2191.93 261.83 L2196.22 261.83 L2196.22 265.858 Q2197.74 263.52 2199.8 262.362 Q2201.89 261.205 2204.6 261.205 Q2209.06 261.205 2211.35 263.983 Q2213.65 266.737 2213.65 272.108 Z" fill="#000000" fill-rule="nonzero" fill-opacity="1" /><path clip-path="url(#clip550)" d="M2226.35 254.469 L2226.35 261.83 L2235.13 261.83 L2235.13 265.14 L2226.35 265.14 L2226.35 279.214 Q2226.35 282.385 2227.21 283.288 Q2228.09 284.191 2230.75 284.191 L2235.13 284.191 L2235.13 287.756 L2230.75 287.756 Q2225.82 287.756 2223.95 285.927 Q2222.07 284.075 2222.07 279.214 L2222.07 265.14 L2218.95 265.14 L2218.95 261.83 L2222.07 261.83 L2222.07 254.469 L2226.35 254.469 Z" fill="#000000" fill-rule="nonzero" fill-opacity="1" /><path clip-path="url(#clip550)" d="M2257.26 262.594 L2257.26 266.622 Q2255.45 265.696 2253.51 265.233 Q2251.56 264.77 2249.48 264.77 Q2246.31 264.77 2244.71 265.742 Q2243.14 266.714 2243.14 268.659 Q2243.14 270.14 2244.27 270.997 Q2245.41 271.83 2248.83 272.594 L2250.29 272.918 Q2254.83 273.89 2256.72 275.672 Q2258.65 277.432 2258.65 280.603 Q2258.65 284.214 2255.78 286.321 Q2252.93 288.427 2247.93 288.427 Q2245.85 288.427 2243.58 288.01 Q2241.33 287.617 2238.83 286.807 L2238.83 282.409 Q2241.19 283.635 2243.48 284.26 Q2245.78 284.862 2248.02 284.862 Q2251.03 284.862 2252.65 283.844 Q2254.27 282.802 2254.27 280.927 Q2254.27 279.191 2253.09 278.265 Q2251.93 277.339 2247.97 276.483 L2246.49 276.135 Q2242.53 275.302 2240.78 273.589 Q2239.02 271.853 2239.02 268.844 Q2239.02 265.186 2241.61 263.196 Q2244.2 261.205 2248.97 261.205 Q2251.33 261.205 2253.41 261.552 Q2255.5 261.899 2257.26 262.594 Z" fill="#000000" fill-rule="nonzero" fill-opacity="1" /></svg>
