<?xml version="1.0" encoding="utf-8"?>
<svg xmlns="http://www.w3.org/2000/svg" xmlns:xlink="http://www.w3.org/1999/xlink" width="600" height="400" viewBox="0 0 2400 1600">
<defs>
  <clipPath id="clip580">
    <rect x="0" y="0" width="2400" height="1600"/>
  </clipPath>
</defs>
<path clip-path="url(#clip580)" d="M0 1600 L2400 1600 L2400 0 L0 0  Z" fill="#ffffff" fill-rule="evenodd" fill-opacity="1"/>
<defs>
  <clipPath id="clip581">
    <rect x="480" y="0" width="1681" height="1600"/>
  </clipPath>
</defs>
<path clip-path="url(#clip580)" d="M205.121 1423.18 L2352.76 1423.18 L2352.76 123.472 L205.121 123.472  Z" fill="#ffffff" fill-rule="evenodd" fill-opacity="1"/>
<defs>
  <clipPath id="clip582">
    <rect x="205" y="123" width="2149" height="1301"/>
  </clipPath>
</defs>
<polyline clip-path="url(#clip582)" style="stroke:#000000; stroke-linecap:round; stroke-linejoin:round; stroke-width:2; stroke-opacity:0.1; fill:none" points="265.903,1423.18 265.903,123.472 "/>
<polyline clip-path="url(#clip582)" style="stroke:#000000; stroke-linecap:round; stroke-linejoin:round; stroke-width:2; stroke-opacity:0.1; fill:none" points="684.513,1423.18 684.513,123.472 "/>
<polyline clip-path="url(#clip582)" style="stroke:#000000; stroke-linecap:round; stroke-linejoin:round; stroke-width:2; stroke-opacity:0.1; fill:none" points="1103.12,1423.18 1103.12,123.472 "/>
<polyline clip-path="url(#clip582)" style="stroke:#000000; stroke-linecap:round; stroke-linejoin:round; stroke-width:2; stroke-opacity:0.1; fill:none" points="1521.73,1423.18 1521.73,123.472 "/>
<polyline clip-path="url(#clip582)" style="stroke:#000000; stroke-linecap:round; stroke-linejoin:round; stroke-width:2; stroke-opacity:0.1; fill:none" points="1940.34,1423.18 1940.34,123.472 "/>
<polyline clip-path="url(#clip582)" style="stroke:#000000; stroke-linecap:round; stroke-linejoin:round; stroke-width:2; stroke-opacity:0.1; fill:none" points="205.121,1386.4 2352.76,1386.4 "/>
<polyline clip-path="url(#clip582)" style="stroke:#000000; stroke-linecap:round; stroke-linejoin:round; stroke-width:2; stroke-opacity:0.1; fill:none" points="205.121,1155.05 2352.76,1155.05 "/>
<polyline clip-path="url(#clip582)" style="stroke:#000000; stroke-linecap:round; stroke-linejoin:round; stroke-width:2; stroke-opacity:0.1; fill:none" points="205.121,923.702 2352.76,923.702 "/>
<polyline clip-path="url(#clip582)" style="stroke:#000000; stroke-linecap:round; stroke-linejoin:round; stroke-width:2; stroke-opacity:0.1; fill:none" points="205.121,692.355 2352.76,692.355 "/>
<polyline clip-path="url(#clip582)" style="stroke:#000000; stroke-linecap:round; stroke-linejoin:round; stroke-width:2; stroke-opacity:0.1; fill:none" points="205.121,461.007 2352.76,461.007 "/>
<polyline clip-path="url(#clip582)" style="stroke:#000000; stroke-linecap:round; stroke-linejoin:round; stroke-width:2; stroke-opacity:0.1; fill:none" points="205.121,229.66 2352.76,229.66 "/>
<polyline clip-path="url(#clip580)" style="stroke:#000000; stroke-linecap:round; stroke-linejoin:round; stroke-width:4; stroke-opacity:1; fill:none" points="205.121,1423.18 2352.76,1423.18 "/>
<polyline clip-path="url(#clip580)" style="stroke:#000000; stroke-linecap:round; stroke-linejoin:round; stroke-width:4; stroke-opacity:1; fill:none" points="265.903,1423.18 265.903,1404.28 "/>
<polyline clip-path="url(#clip580)" style="stroke:#000000; stroke-linecap:round; stroke-linejoin:round; stroke-width:4; stroke-opacity:1; fill:none" points="684.513,1423.18 684.513,1404.28 "/>
<polyline clip-path="url(#clip580)" style="stroke:#000000; stroke-linecap:round; stroke-linejoin:round; stroke-width:4; stroke-opacity:1; fill:none" points="1103.12,1423.18 1103.12,1404.28 "/>
<polyline clip-path="url(#clip580)" style="stroke:#000000; stroke-linecap:round; stroke-linejoin:round; stroke-width:4; stroke-opacity:1; fill:none" points="1521.73,1423.18 1521.73,1404.28 "/>
<polyline clip-path="url(#clip580)" style="stroke:#000000; stroke-linecap:round; stroke-linejoin:round; stroke-width:4; stroke-opacity:1; fill:none" points="1940.34,1423.18 1940.34,1404.28 "/>
<path clip-path="url(#clip580)" d="M265.903 1454.1 Q262.292 1454.1 260.463 1457.66 Q258.658 1461.2 258.658 1468.33 Q258.658 1475.44 260.463 1479.01 Q262.292 1482.55 265.903 1482.55 Q269.537 1482.55 271.343 1479.01 Q273.172 1475.44 273.172 1468.33 Q273.172 1461.2 271.343 1457.66 Q269.537 1454.1 265.903 1454.1 M265.903 1450.39 Q271.713 1450.39 274.769 1455 Q277.847 1459.58 277.847 1468.33 Q277.847 1477.06 274.769 1481.67 Q271.713 1486.25 265.903 1486.25 Q260.093 1486.25 257.014 1481.67 Q253.959 1477.06 253.959 1468.33 Q253.959 1459.58 257.014 1455 Q260.093 1450.39 265.903 1450.39 Z" fill="#000000" fill-rule="nonzero" fill-opacity="1" /><path clip-path="url(#clip580)" d="M659.212 1451.02 L677.568 1451.02 L677.568 1454.96 L663.494 1454.96 L663.494 1463.43 Q664.513 1463.08 665.531 1462.92 Q666.55 1462.73 667.568 1462.73 Q673.355 1462.73 676.735 1465.9 Q680.115 1469.08 680.115 1474.49 Q680.115 1480.07 676.642 1483.17 Q673.17 1486.25 666.851 1486.25 Q664.675 1486.25 662.406 1485.88 Q660.161 1485.51 657.754 1484.77 L657.754 1480.07 Q659.837 1481.2 662.059 1481.76 Q664.281 1482.32 666.758 1482.32 Q670.763 1482.32 673.101 1480.21 Q675.439 1478.1 675.439 1474.49 Q675.439 1470.88 673.101 1468.77 Q670.763 1466.67 666.758 1466.67 Q664.883 1466.67 663.008 1467.08 Q661.156 1467.5 659.212 1468.38 L659.212 1451.02 Z" fill="#000000" fill-rule="nonzero" fill-opacity="1" /><path clip-path="url(#clip580)" d="M699.327 1454.1 Q695.716 1454.1 693.888 1457.66 Q692.082 1461.2 692.082 1468.33 Q692.082 1475.44 693.888 1479.01 Q695.716 1482.55 699.327 1482.55 Q702.962 1482.55 704.767 1479.01 Q706.596 1475.44 706.596 1468.33 Q706.596 1461.2 704.767 1457.66 Q702.962 1454.1 699.327 1454.1 M699.327 1450.39 Q705.138 1450.39 708.193 1455 Q711.272 1459.58 711.272 1468.33 Q711.272 1477.06 708.193 1481.67 Q705.138 1486.25 699.327 1486.25 Q693.517 1486.25 690.439 1481.67 Q687.383 1477.06 687.383 1468.33 Q687.383 1459.58 690.439 1455 Q693.517 1450.39 699.327 1450.39 Z" fill="#000000" fill-rule="nonzero" fill-opacity="1" /><path clip-path="url(#clip580)" d="M1062.73 1481.64 L1070.37 1481.64 L1070.37 1455.28 L1062.06 1456.95 L1062.06 1452.69 L1070.32 1451.02 L1075 1451.02 L1075 1481.64 L1082.64 1481.64 L1082.64 1485.58 L1062.73 1485.58 L1062.73 1481.64 Z" fill="#000000" fill-rule="nonzero" fill-opacity="1" /><path clip-path="url(#clip580)" d="M1102.08 1454.1 Q1098.47 1454.1 1096.64 1457.66 Q1094.84 1461.2 1094.84 1468.33 Q1094.84 1475.44 1096.64 1479.01 Q1098.47 1482.55 1102.08 1482.55 Q1105.71 1482.55 1107.52 1479.01 Q1109.35 1475.44 1109.35 1468.33 Q1109.35 1461.2 1107.52 1457.66 Q1105.71 1454.1 1102.08 1454.1 M1102.08 1450.39 Q1107.89 1450.39 1110.95 1455 Q1114.03 1459.58 1114.03 1468.33 Q1114.03 1477.06 1110.95 1481.67 Q1107.89 1486.25 1102.08 1486.25 Q1096.27 1486.25 1093.19 1481.67 Q1090.14 1477.06 1090.14 1468.33 Q1090.14 1459.58 1093.19 1455 Q1096.27 1450.39 1102.08 1450.39 Z" fill="#000000" fill-rule="nonzero" fill-opacity="1" /><path clip-path="url(#clip580)" d="M1132.24 1454.1 Q1128.63 1454.1 1126.8 1457.66 Q1125 1461.2 1125 1468.33 Q1125 1475.44 1126.8 1479.01 Q1128.63 1482.55 1132.24 1482.55 Q1135.88 1482.55 1137.68 1479.01 Q1139.51 1475.44 1139.51 1468.33 Q1139.51 1461.2 1137.68 1457.66 Q1135.88 1454.1 1132.24 1454.1 M1132.24 1450.39 Q1138.05 1450.39 1141.11 1455 Q1144.19 1459.58 1144.19 1468.33 Q1144.19 1477.06 1141.11 1481.67 Q1138.05 1486.25 1132.24 1486.25 Q1126.43 1486.25 1123.35 1481.67 Q1120.3 1477.06 1120.3 1468.33 Q1120.3 1459.58 1123.35 1455 Q1126.43 1450.39 1132.24 1450.39 Z" fill="#000000" fill-rule="nonzero" fill-opacity="1" /><path clip-path="url(#clip580)" d="M1481.34 1481.64 L1488.98 1481.64 L1488.98 1455.28 L1480.67 1456.95 L1480.67 1452.69 L1488.93 1451.02 L1493.61 1451.02 L1493.61 1481.64 L1501.25 1481.64 L1501.25 1485.58 L1481.34 1485.58 L1481.34 1481.64 Z" fill="#000000" fill-rule="nonzero" fill-opacity="1" /><path clip-path="url(#clip580)" d="M1510.74 1451.02 L1529.09 1451.02 L1529.09 1454.96 L1515.02 1454.96 L1515.02 1463.43 Q1516.04 1463.08 1517.06 1462.92 Q1518.07 1462.73 1519.09 1462.73 Q1524.88 1462.73 1528.26 1465.9 Q1531.64 1469.08 1531.64 1474.49 Q1531.64 1480.07 1528.17 1483.17 Q1524.69 1486.25 1518.38 1486.25 Q1516.2 1486.25 1513.93 1485.88 Q1511.69 1485.51 1509.28 1484.77 L1509.28 1480.07 Q1511.36 1481.2 1513.58 1481.76 Q1515.81 1482.32 1518.28 1482.32 Q1522.29 1482.32 1524.63 1480.21 Q1526.96 1478.1 1526.96 1474.49 Q1526.96 1470.88 1524.63 1468.77 Q1522.29 1466.67 1518.28 1466.67 Q1516.41 1466.67 1514.53 1467.08 Q1512.68 1467.5 1510.74 1468.38 L1510.74 1451.02 Z" fill="#000000" fill-rule="nonzero" fill-opacity="1" /><path clip-path="url(#clip580)" d="M1550.85 1454.1 Q1547.24 1454.1 1545.41 1457.66 Q1543.61 1461.2 1543.61 1468.33 Q1543.61 1475.44 1545.41 1479.01 Q1547.24 1482.55 1550.85 1482.55 Q1554.49 1482.55 1556.29 1479.01 Q1558.12 1475.44 1558.12 1468.33 Q1558.12 1461.2 1556.29 1457.66 Q1554.49 1454.1 1550.85 1454.1 M1550.85 1450.39 Q1556.66 1450.39 1559.72 1455 Q1562.8 1459.58 1562.8 1468.33 Q1562.8 1477.06 1559.72 1481.67 Q1556.66 1486.25 1550.85 1486.25 Q1545.04 1486.25 1541.96 1481.67 Q1538.91 1477.06 1538.91 1468.33 Q1538.91 1459.58 1541.96 1455 Q1545.04 1450.39 1550.85 1450.39 Z" fill="#000000" fill-rule="nonzero" fill-opacity="1" /><path clip-path="url(#clip580)" d="M1904.03 1481.64 L1920.35 1481.64 L1920.35 1485.58 L1898.41 1485.58 L1898.41 1481.64 Q1901.07 1478.89 1905.65 1474.26 Q1910.26 1469.61 1911.44 1468.27 Q1913.69 1465.74 1914.57 1464.01 Q1915.47 1462.25 1915.47 1460.56 Q1915.47 1457.8 1913.52 1456.07 Q1911.6 1454.33 1908.5 1454.33 Q1906.3 1454.33 1903.85 1455.09 Q1901.42 1455.86 1898.64 1457.41 L1898.64 1452.69 Q1901.46 1451.55 1903.92 1450.97 Q1906.37 1450.39 1908.41 1450.39 Q1913.78 1450.39 1916.97 1453.08 Q1920.17 1455.77 1920.17 1460.26 Q1920.17 1462.39 1919.36 1464.31 Q1918.57 1466.2 1916.46 1468.8 Q1915.89 1469.47 1912.78 1472.69 Q1909.68 1475.88 1904.03 1481.64 Z" fill="#000000" fill-rule="nonzero" fill-opacity="1" /><path clip-path="url(#clip580)" d="M1940.17 1454.1 Q1936.56 1454.1 1934.73 1457.66 Q1932.92 1461.2 1932.92 1468.33 Q1932.92 1475.44 1934.73 1479.01 Q1936.56 1482.55 1940.17 1482.55 Q1943.8 1482.55 1945.61 1479.01 Q1947.44 1475.44 1947.44 1468.33 Q1947.44 1461.2 1945.61 1457.66 Q1943.8 1454.1 1940.17 1454.1 M1940.17 1450.39 Q1945.98 1450.39 1949.03 1455 Q1952.11 1459.58 1952.11 1468.33 Q1952.11 1477.06 1949.03 1481.67 Q1945.98 1486.25 1940.17 1486.25 Q1934.36 1486.25 1931.28 1481.67 Q1928.22 1477.06 1928.22 1468.33 Q1928.22 1459.58 1931.28 1455 Q1934.36 1450.39 1940.17 1450.39 Z" fill="#000000" fill-rule="nonzero" fill-opacity="1" /><path clip-path="url(#clip580)" d="M1970.33 1454.1 Q1966.72 1454.1 1964.89 1457.66 Q1963.08 1461.2 1963.08 1468.33 Q1963.08 1475.44 1964.89 1479.01 Q1966.72 1482.55 1970.33 1482.55 Q1973.96 1482.55 1975.77 1479.01 Q1977.6 1475.44 1977.6 1468.33 Q1977.6 1461.2 1975.77 1457.66 Q1973.96 1454.1 1970.33 1454.1 M1970.33 1450.39 Q1976.14 1450.39 1979.2 1455 Q1982.27 1459.58 1982.27 1468.33 Q1982.27 1477.06 1979.2 1481.67 Q1976.14 1486.25 1970.33 1486.25 Q1964.52 1486.25 1961.44 1481.67 Q1958.39 1477.06 1958.39 1468.33 Q1958.39 1459.58 1961.44 1455 Q1964.52 1450.39 1970.33 1450.39 Z" fill="#000000" fill-rule="nonzero" fill-opacity="1" /><path clip-path="url(#clip580)" d="M781.013 1524.18 L781.013 1530.96 Q777.766 1527.94 774.074 1526.44 Q770.414 1524.95 766.276 1524.95 Q758.128 1524.95 753.799 1529.95 Q749.471 1534.91 749.471 1544.33 Q749.471 1553.72 753.799 1558.72 Q758.128 1563.68 766.276 1563.68 Q770.414 1563.68 774.074 1562.19 Q777.766 1560.69 781.013 1557.67 L781.013 1564.38 Q777.639 1566.68 773.851 1567.82 Q770.096 1568.97 765.894 1568.97 Q755.104 1568.97 748.898 1562.38 Q742.691 1555.76 742.691 1544.33 Q742.691 1532.87 748.898 1526.28 Q755.104 1519.66 765.894 1519.66 Q770.159 1519.66 773.915 1520.81 Q777.703 1521.92 781.013 1524.18 Z" fill="#000000" fill-rule="nonzero" fill-opacity="1" /><path clip-path="url(#clip580)" d="M806.889 1550.12 Q799.792 1550.12 797.054 1551.75 Q794.317 1553.37 794.317 1557.29 Q794.317 1560.4 796.354 1562.25 Q798.423 1564.07 801.956 1564.07 Q806.826 1564.07 809.754 1560.63 Q812.714 1557.16 812.714 1551.43 L812.714 1550.12 L806.889 1550.12 M818.571 1547.71 L818.571 1568.04 L812.714 1568.04 L812.714 1562.63 Q810.709 1565.88 807.717 1567.44 Q804.725 1568.97 800.396 1568.97 Q794.922 1568.97 791.675 1565.91 Q788.461 1562.82 788.461 1557.67 Q788.461 1551.65 792.471 1548.6 Q796.513 1545.54 804.502 1545.54 L812.714 1545.54 L812.714 1544.97 Q812.714 1540.93 810.04 1538.73 Q807.399 1536.5 802.593 1536.5 Q799.537 1536.5 796.641 1537.23 Q793.744 1537.97 791.071 1539.43 L791.071 1534.02 Q794.285 1532.78 797.309 1532.17 Q800.333 1531.54 803.197 1531.54 Q810.932 1531.54 814.751 1535.55 Q818.571 1539.56 818.571 1547.71 Z" fill="#000000" fill-rule="nonzero" fill-opacity="1" /><path clip-path="url(#clip580)" d="M830.634 1518.52 L836.49 1518.52 L836.49 1568.04 L830.634 1568.04 L830.634 1518.52 Z" fill="#000000" fill-rule="nonzero" fill-opacity="1" /><path clip-path="url(#clip580)" d="M874.398 1533.76 L874.398 1539.24 Q871.915 1537.87 869.401 1537.2 Q866.918 1536.5 864.372 1536.5 Q858.674 1536.5 855.523 1540.13 Q852.372 1543.73 852.372 1550.25 Q852.372 1556.78 855.523 1560.4 Q858.674 1564 864.372 1564 Q866.918 1564 869.401 1563.33 Q871.915 1562.63 874.398 1561.26 L874.398 1566.68 Q871.947 1567.82 869.305 1568.39 Q866.695 1568.97 863.735 1568.97 Q855.683 1568.97 850.94 1563.91 Q846.198 1558.85 846.198 1550.25 Q846.198 1541.53 850.972 1536.53 Q855.778 1531.54 864.117 1531.54 Q866.823 1531.54 869.401 1532.11 Q871.979 1532.65 874.398 1533.76 Z" fill="#000000" fill-rule="nonzero" fill-opacity="1" /><path clip-path="url(#clip580)" d="M883.978 1553.98 L883.978 1532.4 L889.835 1532.4 L889.835 1553.75 Q889.835 1558.81 891.808 1561.36 Q893.781 1563.87 897.728 1563.87 Q902.471 1563.87 905.208 1560.85 Q907.977 1557.83 907.977 1552.61 L907.977 1532.4 L913.833 1532.4 L913.833 1568.04 L907.977 1568.04 L907.977 1562.57 Q905.844 1565.82 903.012 1567.41 Q900.211 1568.97 896.487 1568.97 Q890.344 1568.97 887.161 1565.15 Q883.978 1561.33 883.978 1553.98 M898.715 1531.54 L898.715 1531.54 Z" fill="#000000" fill-rule="nonzero" fill-opacity="1" /><path clip-path="url(#clip580)" d="M925.896 1518.52 L931.753 1518.52 L931.753 1568.04 L925.896 1568.04 L925.896 1518.52 Z" fill="#000000" fill-rule="nonzero" fill-opacity="1" /><path clip-path="url(#clip580)" d="M960.208 1550.12 Q953.11 1550.12 950.372 1551.75 Q947.635 1553.37 947.635 1557.29 Q947.635 1560.4 949.672 1562.25 Q951.741 1564.07 955.274 1564.07 Q960.144 1564.07 963.072 1560.63 Q966.032 1557.16 966.032 1551.43 L966.032 1550.12 L960.208 1550.12 M971.889 1547.71 L971.889 1568.04 L966.032 1568.04 L966.032 1562.63 Q964.027 1565.88 961.035 1567.44 Q958.043 1568.97 953.714 1568.97 Q948.24 1568.97 944.993 1565.91 Q941.779 1562.82 941.779 1557.67 Q941.779 1551.65 945.789 1548.6 Q949.831 1545.54 957.82 1545.54 L966.032 1545.54 L966.032 1544.97 Q966.032 1540.93 963.359 1538.73 Q960.717 1536.5 955.911 1536.5 Q952.855 1536.5 949.959 1537.23 Q947.062 1537.97 944.389 1539.43 L944.389 1534.02 Q947.603 1532.78 950.627 1532.17 Q953.651 1531.54 956.515 1531.54 Q964.25 1531.54 968.069 1535.55 Q971.889 1539.56 971.889 1547.71 Z" fill="#000000" fill-rule="nonzero" fill-opacity="1" /><path clip-path="url(#clip580)" d="M989.744 1522.27 L989.744 1532.4 L1001.81 1532.4 L1001.81 1536.95 L989.744 1536.95 L989.744 1556.3 Q989.744 1560.66 990.922 1561.9 Q992.132 1563.14 995.792 1563.14 L1001.81 1563.14 L1001.81 1568.04 L995.792 1568.04 Q989.012 1568.04 986.434 1565.53 Q983.856 1562.98 983.856 1556.3 L983.856 1536.95 L979.559 1536.95 L979.559 1532.4 L983.856 1532.4 L983.856 1522.27 L989.744 1522.27 Z" fill="#000000" fill-rule="nonzero" fill-opacity="1" /><path clip-path="url(#clip580)" d="M1040 1548.76 L1040 1551.62 L1013.07 1551.62 Q1013.46 1557.67 1016.7 1560.85 Q1019.98 1564 1025.81 1564 Q1029.18 1564 1032.33 1563.17 Q1035.51 1562.35 1038.63 1560.69 L1038.63 1566.23 Q1035.48 1567.57 1032.17 1568.27 Q1028.86 1568.97 1025.46 1568.97 Q1016.93 1568.97 1011.93 1564 Q1006.96 1559.04 1006.96 1550.57 Q1006.96 1541.82 1011.67 1536.69 Q1016.42 1531.54 1024.44 1531.54 Q1031.63 1531.54 1035.8 1536.18 Q1040 1540.8 1040 1548.76 M1034.15 1547.04 Q1034.08 1542.23 1031.44 1539.37 Q1028.83 1536.5 1024.5 1536.5 Q1019.6 1536.5 1016.64 1539.27 Q1013.71 1542.04 1013.27 1547.07 L1034.15 1547.04 Z" fill="#000000" fill-rule="nonzero" fill-opacity="1" /><path clip-path="url(#clip580)" d="M1073.07 1537.81 L1073.07 1518.52 L1078.93 1518.52 L1078.93 1568.04 L1073.07 1568.04 L1073.07 1562.7 Q1071.23 1565.88 1068.39 1567.44 Q1065.59 1568.97 1061.65 1568.97 Q1055.18 1568.97 1051.11 1563.81 Q1047.07 1558.65 1047.07 1550.25 Q1047.07 1541.85 1051.11 1536.69 Q1055.18 1531.54 1061.65 1531.54 Q1065.59 1531.54 1068.39 1533.1 Q1071.23 1534.62 1073.07 1537.81 M1053.11 1550.25 Q1053.11 1556.71 1055.76 1560.4 Q1058.43 1564.07 1063.08 1564.07 Q1067.72 1564.07 1070.4 1560.4 Q1073.07 1556.71 1073.07 1550.25 Q1073.07 1543.79 1070.4 1540.13 Q1067.72 1536.44 1063.08 1536.44 Q1058.43 1536.44 1055.76 1540.13 Q1053.11 1543.79 1053.11 1550.25 Z" fill="#000000" fill-rule="nonzero" fill-opacity="1" /><path clip-path="url(#clip580)" d="M1141.34 1546.53 L1141.34 1568.04 L1135.49 1568.04 L1135.49 1546.72 Q1135.49 1541.66 1133.51 1539.14 Q1131.54 1536.63 1127.59 1536.63 Q1122.85 1536.63 1120.11 1539.65 Q1117.38 1542.68 1117.38 1547.9 L1117.38 1568.04 L1111.49 1568.04 L1111.49 1532.4 L1117.38 1532.4 L1117.38 1537.93 Q1119.48 1534.72 1122.31 1533.13 Q1125.17 1531.54 1128.9 1531.54 Q1135.04 1531.54 1138.19 1535.36 Q1141.34 1539.14 1141.34 1546.53 Z" fill="#000000" fill-rule="nonzero" fill-opacity="1" /><path clip-path="url(#clip580)" d="M1183.52 1548.76 L1183.52 1551.62 L1156.59 1551.62 Q1156.97 1557.67 1160.22 1560.85 Q1163.5 1564 1169.32 1564 Q1172.69 1564 1175.85 1563.17 Q1179.03 1562.35 1182.15 1560.69 L1182.15 1566.23 Q1179 1567.57 1175.69 1568.27 Q1172.38 1568.97 1168.97 1568.97 Q1160.44 1568.97 1155.44 1564 Q1150.48 1559.04 1150.48 1550.57 Q1150.48 1541.82 1155.19 1536.69 Q1159.93 1531.54 1167.95 1531.54 Q1175.15 1531.54 1179.32 1536.18 Q1183.52 1540.8 1183.52 1548.76 M1177.66 1547.04 Q1177.6 1542.23 1174.95 1539.37 Q1172.34 1536.5 1168.02 1536.5 Q1163.11 1536.5 1160.15 1539.27 Q1157.23 1542.04 1156.78 1547.07 L1177.66 1547.04 Z" fill="#000000" fill-rule="nonzero" fill-opacity="1" /><path clip-path="url(#clip580)" d="M1192.52 1553.98 L1192.52 1532.4 L1198.38 1532.4 L1198.38 1553.75 Q1198.38 1558.81 1200.35 1561.36 Q1202.33 1563.87 1206.27 1563.87 Q1211.02 1563.87 1213.75 1560.85 Q1216.52 1557.83 1216.52 1552.61 L1216.52 1532.4 L1222.38 1532.4 L1222.38 1568.04 L1216.52 1568.04 L1216.52 1562.57 Q1214.39 1565.82 1211.56 1567.41 Q1208.76 1568.97 1205.03 1568.97 Q1198.89 1568.97 1195.71 1565.15 Q1192.52 1561.33 1192.52 1553.98 M1207.26 1531.54 L1207.26 1531.54 Z" fill="#000000" fill-rule="nonzero" fill-opacity="1" /><path clip-path="url(#clip580)" d="M1240.23 1522.27 L1240.23 1532.4 L1252.3 1532.4 L1252.3 1536.95 L1240.23 1536.95 L1240.23 1556.3 Q1240.23 1560.66 1241.41 1561.9 Q1242.62 1563.14 1246.28 1563.14 L1252.3 1563.14 L1252.3 1568.04 L1246.28 1568.04 Q1239.5 1568.04 1236.92 1565.53 Q1234.35 1562.98 1234.35 1556.3 L1234.35 1536.95 L1230.05 1536.95 L1230.05 1532.4 L1234.35 1532.4 L1234.35 1522.27 L1240.23 1522.27 Z" fill="#000000" fill-rule="nonzero" fill-opacity="1" /><path clip-path="url(#clip580)" d="M1280.66 1537.87 Q1279.67 1537.3 1278.49 1537.04 Q1277.35 1536.76 1275.95 1536.76 Q1270.98 1536.76 1268.31 1540 Q1265.67 1543.22 1265.67 1549.27 L1265.67 1568.04 L1259.78 1568.04 L1259.78 1532.4 L1265.67 1532.4 L1265.67 1537.93 Q1267.51 1534.69 1270.47 1533.13 Q1273.43 1531.54 1277.67 1531.54 Q1278.27 1531.54 1279 1531.63 Q1279.73 1531.7 1280.63 1531.85 L1280.66 1537.87 Z" fill="#000000" fill-rule="nonzero" fill-opacity="1" /><path clip-path="url(#clip580)" d="M1299.18 1536.5 Q1294.47 1536.5 1291.73 1540.19 Q1289 1543.85 1289 1550.25 Q1289 1556.65 1291.7 1560.34 Q1294.44 1564 1299.18 1564 Q1303.86 1564 1306.6 1560.31 Q1309.33 1556.62 1309.33 1550.25 Q1309.33 1543.92 1306.6 1540.23 Q1303.86 1536.5 1299.18 1536.5 M1299.18 1531.54 Q1306.82 1531.54 1311.18 1536.5 Q1315.54 1541.47 1315.54 1550.25 Q1315.54 1559 1311.18 1564 Q1306.82 1568.97 1299.18 1568.97 Q1291.51 1568.97 1287.15 1564 Q1282.82 1559 1282.82 1550.25 Q1282.82 1541.47 1287.15 1536.5 Q1291.51 1531.54 1299.18 1531.54 Z" fill="#000000" fill-rule="nonzero" fill-opacity="1" /><path clip-path="url(#clip580)" d="M1354.88 1546.53 L1354.88 1568.04 L1349.02 1568.04 L1349.02 1546.72 Q1349.02 1541.66 1347.05 1539.14 Q1345.08 1536.63 1341.13 1536.63 Q1336.39 1536.63 1333.65 1539.65 Q1330.91 1542.68 1330.91 1547.9 L1330.91 1568.04 L1325.03 1568.04 L1325.03 1532.4 L1330.91 1532.4 L1330.91 1537.93 Q1333.02 1534.72 1335.85 1533.13 Q1338.71 1531.54 1342.44 1531.54 Q1348.58 1531.54 1351.73 1535.36 Q1354.88 1539.14 1354.88 1546.53 Z" fill="#000000" fill-rule="nonzero" fill-opacity="1" /><path clip-path="url(#clip580)" d="M1417.77 1548.76 L1417.77 1551.62 L1390.85 1551.62 Q1391.23 1557.67 1394.48 1560.85 Q1397.75 1564 1403.58 1564 Q1406.95 1564 1410.1 1563.17 Q1413.29 1562.35 1416.41 1560.69 L1416.41 1566.23 Q1413.25 1567.57 1409.94 1568.27 Q1406.63 1568.97 1403.23 1568.97 Q1394.7 1568.97 1389.7 1564 Q1384.74 1559.04 1384.74 1550.57 Q1384.74 1541.82 1389.45 1536.69 Q1394.19 1531.54 1402.21 1531.54 Q1409.4 1531.54 1413.57 1536.18 Q1417.77 1540.8 1417.77 1548.76 M1411.92 1547.04 Q1411.85 1542.23 1409.21 1539.37 Q1406.6 1536.5 1402.27 1536.5 Q1397.37 1536.5 1394.41 1539.27 Q1391.48 1542.04 1391.04 1547.07 L1411.92 1547.04 Z" fill="#000000" fill-rule="nonzero" fill-opacity="1" /><path clip-path="url(#clip580)" d="M1457.02 1546.53 L1457.02 1568.04 L1451.16 1568.04 L1451.16 1546.72 Q1451.16 1541.66 1449.19 1539.14 Q1447.22 1536.63 1443.27 1536.63 Q1438.53 1536.63 1435.79 1539.65 Q1433.05 1542.68 1433.05 1547.9 L1433.05 1568.04 L1427.16 1568.04 L1427.16 1532.4 L1433.05 1532.4 L1433.05 1537.93 Q1435.15 1534.72 1437.99 1533.13 Q1440.85 1531.54 1444.57 1531.54 Q1450.72 1531.54 1453.87 1535.36 Q1457.02 1539.14 1457.02 1546.53 Z" fill="#000000" fill-rule="nonzero" fill-opacity="1" /><path clip-path="url(#clip580)" d="M1499.19 1548.76 L1499.19 1551.62 L1472.26 1551.62 Q1472.65 1557.67 1475.89 1560.85 Q1479.17 1564 1485 1564 Q1488.37 1564 1491.52 1563.17 Q1494.7 1562.35 1497.82 1560.69 L1497.82 1566.23 Q1494.67 1567.57 1491.36 1568.27 Q1488.05 1568.97 1484.65 1568.97 Q1476.12 1568.97 1471.12 1564 Q1466.15 1559.04 1466.15 1550.57 Q1466.15 1541.82 1470.86 1536.69 Q1475.61 1531.54 1483.63 1531.54 Q1490.82 1531.54 1494.99 1536.18 Q1499.19 1540.8 1499.19 1548.76 M1493.34 1547.04 Q1493.27 1542.23 1490.63 1539.37 Q1488.02 1536.5 1483.69 1536.5 Q1478.79 1536.5 1475.83 1539.27 Q1472.9 1542.04 1472.46 1547.07 L1493.34 1547.04 Z" fill="#000000" fill-rule="nonzero" fill-opacity="1" /><path clip-path="url(#clip580)" d="M1529.46 1537.87 Q1528.47 1537.3 1527.3 1537.04 Q1526.15 1536.76 1524.75 1536.76 Q1519.78 1536.76 1517.11 1540 Q1514.47 1543.22 1514.47 1549.27 L1514.47 1568.04 L1508.58 1568.04 L1508.58 1532.4 L1514.47 1532.4 L1514.47 1537.93 Q1516.32 1534.69 1519.28 1533.13 Q1522.24 1531.54 1526.47 1531.54 Q1527.07 1531.54 1527.81 1531.63 Q1528.54 1531.7 1529.43 1531.85 L1529.46 1537.87 Z" fill="#000000" fill-rule="nonzero" fill-opacity="1" /><path clip-path="url(#clip580)" d="M1557.92 1549.81 Q1557.92 1543.44 1555.27 1539.94 Q1552.66 1536.44 1547.92 1536.44 Q1543.21 1536.44 1540.57 1539.94 Q1537.96 1543.44 1537.96 1549.81 Q1537.96 1556.14 1540.57 1559.64 Q1543.21 1563.14 1547.92 1563.14 Q1552.66 1563.14 1555.27 1559.64 Q1557.92 1556.14 1557.92 1549.81 M1563.77 1563.62 Q1563.77 1572.72 1559.73 1577.15 Q1555.69 1581.6 1547.35 1581.6 Q1544.26 1581.6 1541.52 1581.13 Q1538.79 1580.68 1536.21 1579.72 L1536.21 1574.03 Q1538.79 1575.43 1541.3 1576.1 Q1543.82 1576.76 1546.43 1576.76 Q1552.19 1576.76 1555.05 1573.74 Q1557.92 1570.75 1557.92 1564.67 L1557.92 1561.77 Q1556.1 1564.92 1553.27 1566.48 Q1550.44 1568.04 1546.49 1568.04 Q1539.93 1568.04 1535.92 1563.05 Q1531.91 1558.05 1531.91 1549.81 Q1531.91 1541.53 1535.92 1536.53 Q1539.93 1531.54 1546.49 1531.54 Q1550.44 1531.54 1553.27 1533.1 Q1556.1 1534.66 1557.92 1537.81 L1557.92 1532.4 L1563.77 1532.4 L1563.77 1563.62 Z" fill="#000000" fill-rule="nonzero" fill-opacity="1" /><path clip-path="url(#clip580)" d="M1590.67 1571.35 Q1588.18 1577.72 1585.83 1579.66 Q1583.47 1581.6 1579.53 1581.6 L1574.85 1581.6 L1574.85 1576.7 L1578.29 1576.7 Q1580.7 1576.7 1582.04 1575.56 Q1583.38 1574.41 1585 1570.14 L1586.05 1567.47 L1571.63 1532.4 L1577.84 1532.4 L1588.98 1560.28 L1600.12 1532.4 L1606.33 1532.4 L1590.67 1571.35 Z" fill="#000000" fill-rule="nonzero" fill-opacity="1" /><path clip-path="url(#clip580)" d="M1649.2 1518.58 Q1644.93 1525.9 1642.87 1533.06 Q1640.8 1540.23 1640.8 1547.58 Q1640.8 1554.93 1642.87 1562.16 Q1644.97 1569.35 1649.2 1576.64 L1644.11 1576.64 Q1639.33 1569.16 1636.95 1561.93 Q1634.59 1554.71 1634.59 1547.58 Q1634.59 1540.48 1636.95 1533.29 Q1639.3 1526.09 1644.11 1518.58 L1649.2 1518.58 Z" fill="#000000" fill-rule="nonzero" fill-opacity="1" /><path clip-path="url(#clip580)" d="M1660.82 1520.52 L1670.4 1520.52 L1682.52 1552.86 L1694.71 1520.52 L1704.29 1520.52 L1704.29 1568.04 L1698.02 1568.04 L1698.02 1526.32 L1685.77 1558.91 L1679.31 1558.91 L1667.06 1526.32 L1667.06 1568.04 L1660.82 1568.04 L1660.82 1520.52 Z" fill="#000000" fill-rule="nonzero" fill-opacity="1" /><path clip-path="url(#clip580)" d="M1747.3 1548.76 L1747.3 1551.62 L1720.37 1551.62 Q1720.75 1557.67 1724 1560.85 Q1727.28 1564 1733.1 1564 Q1736.47 1564 1739.62 1563.17 Q1742.81 1562.35 1745.93 1560.69 L1745.93 1566.23 Q1742.78 1567.57 1739.47 1568.27 Q1736.16 1568.97 1732.75 1568.97 Q1724.22 1568.97 1719.22 1564 Q1714.26 1559.04 1714.26 1550.57 Q1714.26 1541.82 1718.97 1536.69 Q1723.71 1531.54 1731.73 1531.54 Q1738.92 1531.54 1743.09 1536.18 Q1747.3 1540.8 1747.3 1548.76 M1741.44 1547.04 Q1741.38 1542.23 1738.73 1539.37 Q1736.12 1536.5 1731.79 1536.5 Q1726.89 1536.5 1723.93 1539.27 Q1721 1542.04 1720.56 1547.07 L1741.44 1547.04 Z" fill="#000000" fill-rule="nonzero" fill-opacity="1" /><path clip-path="url(#clip580)" d="M1769.42 1568.04 L1751.27 1520.52 L1757.99 1520.52 L1773.04 1560.53 L1788.13 1520.52 L1794.82 1520.52 L1776.7 1568.04 L1769.42 1568.04 Z" fill="#000000" fill-rule="nonzero" fill-opacity="1" /><path clip-path="url(#clip580)" d="M1800.58 1518.58 L1805.67 1518.58 Q1810.44 1526.09 1812.8 1533.29 Q1815.19 1540.48 1815.19 1547.58 Q1815.19 1554.71 1812.8 1561.93 Q1810.44 1569.16 1805.67 1576.64 L1800.58 1576.64 Q1804.81 1569.35 1806.88 1562.16 Q1808.98 1554.93 1808.98 1547.58 Q1808.98 1540.23 1806.88 1533.06 Q1804.81 1525.9 1800.58 1518.58 Z" fill="#000000" fill-rule="nonzero" fill-opacity="1" /><polyline clip-path="url(#clip580)" style="stroke:#000000; stroke-linecap:round; stroke-linejoin:round; stroke-width:4; stroke-opacity:1; fill:none" points="205.121,1423.18 205.121,123.472 "/>
<polyline clip-path="url(#clip580)" style="stroke:#000000; stroke-linecap:round; stroke-linejoin:round; stroke-width:4; stroke-opacity:1; fill:none" points="205.121,1386.4 224.019,1386.4 "/>
<polyline clip-path="url(#clip580)" style="stroke:#000000; stroke-linecap:round; stroke-linejoin:round; stroke-width:4; stroke-opacity:1; fill:none" points="205.121,1155.05 224.019,1155.05 "/>
<polyline clip-path="url(#clip580)" style="stroke:#000000; stroke-linecap:round; stroke-linejoin:round; stroke-width:4; stroke-opacity:1; fill:none" points="205.121,923.702 224.019,923.702 "/>
<polyline clip-path="url(#clip580)" style="stroke:#000000; stroke-linecap:round; stroke-linejoin:round; stroke-width:4; stroke-opacity:1; fill:none" points="205.121,692.355 224.019,692.355 "/>
<polyline clip-path="url(#clip580)" style="stroke:#000000; stroke-linecap:round; stroke-linejoin:round; stroke-width:4; stroke-opacity:1; fill:none" points="205.121,461.007 224.019,461.007 "/>
<polyline clip-path="url(#clip580)" style="stroke:#000000; stroke-linecap:round; stroke-linejoin:round; stroke-width:4; stroke-opacity:1; fill:none" points="205.121,229.66 224.019,229.66 "/>
<path clip-path="url(#clip580)" d="M157.177 1372.19 Q153.566 1372.19 151.737 1375.76 Q149.931 1379.3 149.931 1386.43 Q149.931 1393.54 151.737 1397.1 Q153.566 1400.64 157.177 1400.64 Q160.811 1400.64 162.616 1397.1 Q164.445 1393.54 164.445 1386.43 Q164.445 1379.3 162.616 1375.76 Q160.811 1372.19 157.177 1372.19 M157.177 1368.49 Q162.987 1368.49 166.042 1373.1 Q169.121 1377.68 169.121 1386.43 Q169.121 1395.16 166.042 1399.76 Q162.987 1404.35 157.177 1404.35 Q151.366 1404.35 148.288 1399.76 Q145.232 1395.16 145.232 1386.43 Q145.232 1377.68 148.288 1373.1 Q151.366 1368.49 157.177 1368.49 Z" fill="#000000" fill-rule="nonzero" fill-opacity="1" /><path clip-path="url(#clip580)" d="M117.825 1168.39 L125.464 1168.39 L125.464 1142.03 L117.154 1143.69 L117.154 1139.44 L125.418 1137.77 L130.093 1137.77 L130.093 1168.39 L137.732 1168.39 L137.732 1172.33 L117.825 1172.33 L117.825 1168.39 Z" fill="#000000" fill-rule="nonzero" fill-opacity="1" /><path clip-path="url(#clip580)" d="M157.177 1140.85 Q153.566 1140.85 151.737 1144.41 Q149.931 1147.95 149.931 1155.08 Q149.931 1162.19 151.737 1165.75 Q153.566 1169.3 157.177 1169.3 Q160.811 1169.3 162.616 1165.75 Q164.445 1162.19 164.445 1155.08 Q164.445 1147.95 162.616 1144.41 Q160.811 1140.85 157.177 1140.85 M157.177 1137.14 Q162.987 1137.14 166.042 1141.75 Q169.121 1146.33 169.121 1155.08 Q169.121 1163.81 166.042 1168.42 Q162.987 1173 157.177 1173 Q151.366 1173 148.288 1168.42 Q145.232 1163.81 145.232 1155.08 Q145.232 1146.33 148.288 1141.75 Q151.366 1137.14 157.177 1137.14 Z" fill="#000000" fill-rule="nonzero" fill-opacity="1" /><path clip-path="url(#clip580)" d="M121.043 937.046 L137.362 937.046 L137.362 940.982 L115.418 940.982 L115.418 937.046 Q118.08 934.292 122.663 929.662 Q127.269 925.009 128.45 923.667 Q130.695 921.144 131.575 919.408 Q132.478 917.648 132.478 915.959 Q132.478 913.204 130.533 911.468 Q128.612 909.732 125.51 909.732 Q123.311 909.732 120.857 910.496 Q118.427 911.26 115.649 912.81 L115.649 908.088 Q118.473 906.954 120.927 906.375 Q123.38 905.797 125.418 905.797 Q130.788 905.797 133.982 908.482 Q137.177 911.167 137.177 915.658 Q137.177 917.787 136.367 919.709 Q135.579 921.607 133.473 924.199 Q132.894 924.871 129.792 928.088 Q126.691 931.283 121.043 937.046 Z" fill="#000000" fill-rule="nonzero" fill-opacity="1" /><path clip-path="url(#clip580)" d="M157.177 909.5 Q153.566 909.5 151.737 913.065 Q149.931 916.607 149.931 923.736 Q149.931 930.843 151.737 934.408 Q153.566 937.949 157.177 937.949 Q160.811 937.949 162.616 934.408 Q164.445 930.843 164.445 923.736 Q164.445 916.607 162.616 913.065 Q160.811 909.5 157.177 909.5 M157.177 905.797 Q162.987 905.797 166.042 910.403 Q169.121 914.986 169.121 923.736 Q169.121 932.463 166.042 937.07 Q162.987 941.653 157.177 941.653 Q151.366 941.653 148.288 937.07 Q145.232 932.463 145.232 923.736 Q145.232 914.986 148.288 910.403 Q151.366 905.797 157.177 905.797 Z" fill="#000000" fill-rule="nonzero" fill-opacity="1" /><path clip-path="url(#clip580)" d="M131.181 691 Q134.538 691.718 136.413 693.986 Q138.311 696.255 138.311 699.588 Q138.311 704.704 134.792 707.505 Q131.274 710.306 124.793 710.306 Q122.617 710.306 120.302 709.866 Q118.01 709.449 115.556 708.593 L115.556 704.079 Q117.501 705.213 119.816 705.792 Q122.13 706.371 124.654 706.371 Q129.052 706.371 131.343 704.635 Q133.658 702.898 133.658 699.588 Q133.658 696.533 131.505 694.82 Q129.376 693.084 125.556 693.084 L121.529 693.084 L121.529 689.241 L125.742 689.241 Q129.191 689.241 131.019 687.875 Q132.848 686.486 132.848 683.894 Q132.848 681.232 130.95 679.82 Q129.075 678.385 125.556 678.385 Q123.635 678.385 121.436 678.801 Q119.237 679.218 116.598 680.098 L116.598 675.931 Q119.26 675.19 121.575 674.82 Q123.913 674.45 125.973 674.45 Q131.297 674.45 134.399 676.88 Q137.501 679.287 137.501 683.408 Q137.501 686.278 135.857 688.269 Q134.214 690.236 131.181 691 Z" fill="#000000" fill-rule="nonzero" fill-opacity="1" /><path clip-path="url(#clip580)" d="M157.177 678.153 Q153.566 678.153 151.737 681.718 Q149.931 685.26 149.931 692.389 Q149.931 699.496 151.737 703.06 Q153.566 706.602 157.177 706.602 Q160.811 706.602 162.616 703.06 Q164.445 699.496 164.445 692.389 Q164.445 685.26 162.616 681.718 Q160.811 678.153 157.177 678.153 M157.177 674.45 Q162.987 674.45 166.042 679.056 Q169.121 683.639 169.121 692.389 Q169.121 701.116 166.042 705.723 Q162.987 710.306 157.177 710.306 Q151.366 710.306 148.288 705.723 Q145.232 701.116 145.232 692.389 Q145.232 683.639 148.288 679.056 Q151.366 674.45 157.177 674.45 Z" fill="#000000" fill-rule="nonzero" fill-opacity="1" /><path clip-path="url(#clip580)" d="M129.862 447.802 L118.056 466.25 L129.862 466.25 L129.862 447.802 M128.635 443.727 L134.515 443.727 L134.515 466.25 L139.445 466.25 L139.445 470.139 L134.515 470.139 L134.515 478.287 L129.862 478.287 L129.862 470.139 L114.26 470.139 L114.26 465.626 L128.635 443.727 Z" fill="#000000" fill-rule="nonzero" fill-opacity="1" /><path clip-path="url(#clip580)" d="M157.177 446.806 Q153.566 446.806 151.737 450.371 Q149.931 453.913 149.931 461.042 Q149.931 468.149 151.737 471.713 Q153.566 475.255 157.177 475.255 Q160.811 475.255 162.616 471.713 Q164.445 468.149 164.445 461.042 Q164.445 453.913 162.616 450.371 Q160.811 446.806 157.177 446.806 M157.177 443.102 Q162.987 443.102 166.042 447.709 Q169.121 452.292 169.121 461.042 Q169.121 469.769 166.042 474.375 Q162.987 478.959 157.177 478.959 Q151.366 478.959 148.288 474.375 Q145.232 469.769 145.232 461.042 Q145.232 452.292 148.288 447.709 Q151.366 443.102 157.177 443.102 Z" fill="#000000" fill-rule="nonzero" fill-opacity="1" /><path clip-path="url(#clip580)" d="M117.061 212.38 L135.417 212.38 L135.417 216.316 L121.343 216.316 L121.343 224.788 Q122.362 224.441 123.38 224.279 Q124.399 224.093 125.418 224.093 Q131.205 224.093 134.584 227.265 Q137.964 230.436 137.964 235.853 Q137.964 241.431 134.492 244.533 Q131.019 247.612 124.7 247.612 Q122.524 247.612 120.255 247.241 Q118.01 246.871 115.603 246.13 L115.603 241.431 Q117.686 242.565 119.908 243.121 Q122.13 243.677 124.607 243.677 Q128.612 243.677 130.95 241.57 Q133.288 239.464 133.288 235.853 Q133.288 232.241 130.95 230.135 Q128.612 228.028 124.607 228.028 Q122.732 228.028 120.857 228.445 Q119.006 228.862 117.061 229.741 L117.061 212.38 Z" fill="#000000" fill-rule="nonzero" fill-opacity="1" /><path clip-path="url(#clip580)" d="M157.177 215.459 Q153.566 215.459 151.737 219.024 Q149.931 222.566 149.931 229.695 Q149.931 236.802 151.737 240.366 Q153.566 243.908 157.177 243.908 Q160.811 243.908 162.616 240.366 Q164.445 236.802 164.445 229.695 Q164.445 222.566 162.616 219.024 Q160.811 215.459 157.177 215.459 M157.177 211.755 Q162.987 211.755 166.042 216.362 Q169.121 220.945 169.121 229.695 Q169.121 238.422 166.042 243.028 Q162.987 247.612 157.177 247.612 Q151.366 247.612 148.288 243.028 Q145.232 238.422 145.232 229.695 Q145.232 220.945 148.288 216.362 Q151.366 211.755 157.177 211.755 Z" fill="#000000" fill-rule="nonzero" fill-opacity="1" /><path clip-path="url(#clip580)" d="M20.1444 845.354 L26.9239 845.354 Q23.9002 848.6 22.4043 852.293 Q20.9083 855.953 20.9083 860.091 Q20.9083 868.239 25.9054 872.567 Q30.8707 876.896 40.2919 876.896 Q49.6813 876.896 54.6784 872.567 Q59.6436 868.239 59.6436 860.091 Q59.6436 855.953 58.1477 852.293 Q56.6518 848.6 53.6281 845.354 L60.3439 845.354 Q62.6355 848.728 63.7814 852.515 Q64.9272 856.271 64.9272 860.473 Q64.9272 871.262 58.3387 877.469 Q51.7183 883.676 40.2919 883.676 Q28.8336 883.676 22.2451 877.469 Q15.6248 871.262 15.6248 860.473 Q15.6248 856.207 16.7706 852.452 Q17.8846 848.664 20.1444 845.354 Z" fill="#000000" fill-rule="nonzero" fill-opacity="1" /><path clip-path="url(#clip580)" d="M32.4621 821.864 Q32.4621 826.575 36.1542 829.312 Q39.8145 832.05 46.212 832.05 Q52.6095 832.05 56.3017 829.344 Q59.9619 826.607 59.9619 821.864 Q59.9619 817.186 56.2698 814.448 Q52.5777 811.711 46.212 811.711 Q39.8781 811.711 36.186 814.448 Q32.4621 817.186 32.4621 821.864 M27.4968 821.864 Q27.4968 814.226 32.4621 809.865 Q37.4273 805.505 46.212 805.505 Q54.9649 805.505 59.9619 809.865 Q64.9272 814.226 64.9272 821.864 Q64.9272 829.535 59.9619 833.896 Q54.9649 838.224 46.212 838.224 Q37.4273 838.224 32.4621 833.896 Q27.4968 829.535 27.4968 821.864 Z" fill="#000000" fill-rule="nonzero" fill-opacity="1" /><path clip-path="url(#clip580)" d="M49.9359 796.402 L28.3562 796.402 L28.3562 790.545 L49.7131 790.545 Q54.7739 790.545 57.3202 788.572 Q59.8346 786.598 59.8346 782.652 Q59.8346 777.909 56.8109 775.172 Q53.7872 772.403 48.5673 772.403 L28.3562 772.403 L28.3562 766.547 L64.0042 766.547 L64.0042 772.403 L58.5296 772.403 Q61.7762 774.535 63.3676 777.368 Q64.9272 780.169 64.9272 783.893 Q64.9272 790.036 61.1078 793.219 Q57.2883 796.402 49.9359 796.402 M27.4968 781.665 L27.4968 781.665 Z" fill="#000000" fill-rule="nonzero" fill-opacity="1" /><path clip-path="url(#clip580)" d="M42.4881 724.851 L64.0042 724.851 L64.0042 730.708 L42.679 730.708 Q37.6183 730.708 35.1038 732.681 Q32.5894 734.654 32.5894 738.601 Q32.5894 743.344 35.6131 746.081 Q38.6368 748.818 43.8567 748.818 L64.0042 748.818 L64.0042 754.706 L28.3562 754.706 L28.3562 748.818 L33.8944 748.818 Q30.6797 746.717 29.0883 743.885 Q27.4968 741.02 27.4968 737.296 Q27.4968 731.153 31.3163 728.002 Q35.1038 724.851 42.4881 724.851 Z" fill="#000000" fill-rule="nonzero" fill-opacity="1" /><path clip-path="url(#clip580)" d="M18.2347 707.377 L28.3562 707.377 L28.3562 695.314 L32.9077 695.314 L32.9077 707.377 L52.2594 707.377 Q56.6199 707.377 57.8613 706.2 Q59.1026 704.99 59.1026 701.33 L59.1026 695.314 L64.0042 695.314 L64.0042 701.33 Q64.0042 708.109 61.4897 710.687 Q58.9434 713.266 52.2594 713.266 L32.9077 713.266 L32.9077 717.562 L28.3562 717.562 L28.3562 713.266 L18.2347 713.266 L18.2347 707.377 Z" fill="#000000" fill-rule="nonzero" fill-opacity="1" /><path clip-path="url(#clip580)" d="M29.4065 664.886 L34.9447 664.886 Q33.6716 667.369 33.035 670.042 Q32.3984 672.716 32.3984 675.581 Q32.3984 679.941 33.7352 682.137 Q35.072 684.302 37.7456 684.302 Q39.7826 684.302 40.9603 682.742 Q42.1061 681.182 43.1565 676.472 L43.6021 674.467 Q44.9389 668.228 47.3897 665.618 Q49.8086 662.976 54.1691 662.976 Q59.1344 662.976 62.0308 666.923 Q64.9272 670.838 64.9272 677.713 Q64.9272 680.578 64.3543 683.697 Q63.8132 686.784 62.6992 690.222 L56.6518 690.222 Q58.3387 686.975 59.198 683.824 Q60.0256 680.673 60.0256 677.586 Q60.0256 673.448 58.6251 671.22 Q57.1929 668.992 54.6147 668.992 Q52.2276 668.992 50.9545 670.615 Q49.6813 672.207 48.5037 677.649 L48.0262 679.686 Q46.8804 685.129 44.5251 687.548 Q42.138 689.967 38.0002 689.967 Q32.9713 689.967 30.2341 686.402 Q27.4968 682.837 27.4968 676.281 Q27.4968 673.034 27.9743 670.17 Q28.4517 667.305 29.4065 664.886 Z" fill="#000000" fill-rule="nonzero" fill-opacity="1" /><path clip-path="url(#clip580)" d="M704.905 71.3202 L704.905 63.8666 Q707.984 65.3249 711.143 66.0946 Q714.303 66.8642 717.341 66.8642 Q725.443 66.8642 729.697 61.436 Q733.991 55.9673 734.598 44.8678 Q732.249 48.3516 728.643 50.215 Q725.038 52.0784 720.663 52.0784 Q711.589 52.0784 706.282 46.6097 Q701.016 41.1005 701.016 31.5808 Q701.016 22.2638 706.525 16.633 Q712.035 11.0023 721.19 11.0023 Q731.682 11.0023 737.191 19.0636 Q742.741 27.0843 742.741 42.3968 Q742.741 56.6965 735.935 65.2439 Q729.17 73.7508 717.706 73.7508 Q714.627 73.7508 711.468 73.1431 Q708.308 72.5355 704.905 71.3202 M721.19 45.678 Q726.699 45.678 729.899 41.9107 Q733.14 38.1433 733.14 31.5808 Q733.14 25.0589 729.899 21.2916 Q726.699 17.4837 721.19 17.4837 Q715.68 17.4837 712.44 21.2916 Q709.24 25.0589 709.24 31.5808 Q709.24 38.1433 712.44 41.9107 Q715.68 45.678 721.19 45.678 Z" fill="#000000" fill-rule="nonzero" fill-opacity="1" /><path clip-path="url(#clip580)" d="M758.863 65.6895 L772.231 65.6895 L772.231 19.5497 L757.688 22.4663 L757.688 15.0127 L772.15 12.096 L780.333 12.096 L780.333 65.6895 L793.701 65.6895 L793.701 72.576 L758.863 72.576 L758.863 65.6895 Z" fill="#000000" fill-rule="nonzero" fill-opacity="1" /><path clip-path="url(#clip580)" d="M827.728 43.8551 Q821.895 43.8551 818.533 46.9743 Q815.211 50.0935 815.211 55.5622 Q815.211 61.0309 818.533 64.1501 Q821.895 67.2693 827.728 67.2693 Q833.562 67.2693 836.924 64.1501 Q840.286 60.9904 840.286 55.5622 Q840.286 50.0935 836.924 46.9743 Q833.602 43.8551 827.728 43.8551 M819.546 40.3713 Q814.279 39.075 811.322 35.4697 Q808.406 31.8644 808.406 26.6793 Q808.406 19.4281 813.55 15.2152 Q818.735 11.0023 827.728 11.0023 Q836.762 11.0023 841.907 15.2152 Q847.051 19.4281 847.051 26.6793 Q847.051 31.8644 844.094 35.4697 Q841.177 39.075 835.952 40.3713 Q841.866 41.7486 845.147 45.759 Q848.469 49.7694 848.469 55.5622 Q848.469 64.3527 843.081 69.0517 Q837.734 73.7508 827.728 73.7508 Q817.723 73.7508 812.335 69.0517 Q806.988 64.3527 806.988 55.5622 Q806.988 49.7694 810.31 45.759 Q813.631 41.7486 819.546 40.3713 M816.548 27.4489 Q816.548 32.148 819.465 34.7811 Q822.422 37.4142 827.728 37.4142 Q832.995 37.4142 835.952 34.7811 Q838.949 32.148 838.949 27.4489 Q838.949 22.7499 835.952 20.1168 Q832.995 17.4837 827.728 17.4837 Q822.422 17.4837 819.465 20.1168 Q816.548 22.7499 816.548 27.4489 Z" fill="#000000" fill-rule="nonzero" fill-opacity="1" /><path clip-path="url(#clip580)" d="M880.512 17.4837 Q874.192 17.4837 870.992 23.7221 Q867.832 29.92 867.832 42.3968 Q867.832 54.833 870.992 61.0714 Q874.192 67.2693 880.512 67.2693 Q886.872 67.2693 890.031 61.0714 Q893.232 54.833 893.232 42.3968 Q893.232 29.92 890.031 23.7221 Q886.872 17.4837 880.512 17.4837 M880.512 11.0023 Q890.68 11.0023 896.027 19.0636 Q901.414 27.0843 901.414 42.3968 Q901.414 57.6687 896.027 65.73 Q890.68 73.7508 880.512 73.7508 Q870.344 73.7508 864.956 65.73 Q859.609 57.6687 859.609 42.3968 Q859.609 27.0843 864.956 19.0636 Q870.344 11.0023 880.512 11.0023 Z" fill="#000000" fill-rule="nonzero" fill-opacity="1" /><path clip-path="url(#clip580)" d="M933.295 17.4837 Q926.976 17.4837 923.775 23.7221 Q920.616 29.92 920.616 42.3968 Q920.616 54.833 923.775 61.0714 Q926.976 67.2693 933.295 67.2693 Q939.655 67.2693 942.815 61.0714 Q946.015 54.833 946.015 42.3968 Q946.015 29.92 942.815 23.7221 Q939.655 17.4837 933.295 17.4837 M933.295 11.0023 Q943.463 11.0023 948.81 19.0636 Q954.198 27.0843 954.198 42.3968 Q954.198 57.6687 948.81 65.73 Q943.463 73.7508 933.295 73.7508 Q923.127 73.7508 917.74 65.73 Q912.392 57.6687 912.392 42.3968 Q912.392 27.0843 917.74 19.0636 Q923.127 11.0023 933.295 11.0023 Z" fill="#000000" fill-rule="nonzero" fill-opacity="1" /><path clip-path="url(#clip580)" d="M986.078 17.4837 Q979.759 17.4837 976.559 23.7221 Q973.399 29.92 973.399 42.3968 Q973.399 54.833 976.559 61.0714 Q979.759 67.2693 986.078 67.2693 Q992.438 67.2693 995.598 61.0714 Q998.798 54.833 998.798 42.3968 Q998.798 29.92 995.598 23.7221 Q992.438 17.4837 986.078 17.4837 M986.078 11.0023 Q996.246 11.0023 1001.59 19.0636 Q1006.98 27.0843 1006.98 42.3968 Q1006.98 57.6687 1001.59 65.73 Q996.246 73.7508 986.078 73.7508 Q975.911 73.7508 970.523 65.73 Q965.176 57.6687 965.176 42.3968 Q965.176 27.0843 970.523 19.0636 Q975.911 11.0023 986.078 11.0023 Z" fill="#000000" fill-rule="nonzero" fill-opacity="1" /><path clip-path="url(#clip580)" d="M1021.36 62.2867 L1029.91 62.2867 L1029.91 72.576 L1021.36 72.576 L1021.36 62.2867 Z" fill="#000000" fill-rule="nonzero" fill-opacity="1" /><path clip-path="url(#clip580)" d="M1065.23 17.4837 Q1058.91 17.4837 1055.71 23.7221 Q1052.55 29.92 1052.55 42.3968 Q1052.55 54.833 1055.71 61.0714 Q1058.91 67.2693 1065.23 67.2693 Q1071.59 67.2693 1074.75 61.0714 Q1077.95 54.833 1077.95 42.3968 Q1077.95 29.92 1074.75 23.7221 Q1071.59 17.4837 1065.23 17.4837 M1065.23 11.0023 Q1075.4 11.0023 1080.75 19.0636 Q1086.14 27.0843 1086.14 42.3968 Q1086.14 57.6687 1080.75 65.73 Q1075.4 73.7508 1065.23 73.7508 Q1055.07 73.7508 1049.68 65.73 Q1044.33 57.6687 1044.33 42.3968 Q1044.33 27.0843 1049.68 19.0636 Q1055.07 11.0023 1065.23 11.0023 Z" fill="#000000" fill-rule="nonzero" fill-opacity="1" /><path clip-path="url(#clip580)" d="M1163.55 45.1919 L1163.55 72.576 L1156.09 72.576 L1156.09 45.4349 Q1156.09 38.994 1153.58 35.7938 Q1151.07 32.5936 1146.05 32.5936 Q1140.01 32.5936 1136.53 36.4419 Q1133.05 40.2903 1133.05 46.9338 L1133.05 72.576 L1125.55 72.576 L1125.55 27.2059 L1133.05 27.2059 L1133.05 34.2544 Q1135.72 30.163 1139.32 28.1376 Q1142.97 26.1121 1147.71 26.1121 Q1155.53 26.1121 1159.54 30.9732 Q1163.55 35.7938 1163.55 45.1919 Z" fill="#000000" fill-rule="nonzero" fill-opacity="1" /><path clip-path="url(#clip580)" d="M1217.22 48.0275 L1217.22 51.6733 L1182.95 51.6733 Q1183.44 59.3701 1187.57 63.421 Q1191.74 67.4314 1199.16 67.4314 Q1203.45 67.4314 1207.46 66.3781 Q1211.51 65.3249 1215.48 63.2184 L1215.48 70.267 Q1211.47 71.9684 1207.26 72.8596 Q1203.04 73.7508 1198.71 73.7508 Q1187.85 73.7508 1181.49 67.4314 Q1175.17 61.1119 1175.17 50.3365 Q1175.17 39.1965 1181.17 32.6746 Q1187.21 26.1121 1197.41 26.1121 Q1206.57 26.1121 1211.88 32.0264 Q1217.22 37.9003 1217.22 48.0275 M1209.77 45.84 Q1209.69 39.7232 1206.33 36.0774 Q1203 32.4315 1197.5 32.4315 Q1191.26 32.4315 1187.49 35.9558 Q1183.76 39.4801 1183.2 45.8805 L1209.77 45.84 Z" fill="#000000" fill-rule="nonzero" fill-opacity="1" /><path clip-path="url(#clip580)" d="M1228.69 54.671 L1228.69 27.2059 L1236.14 27.2059 L1236.14 54.3874 Q1236.14 60.8284 1238.65 64.0691 Q1241.16 67.2693 1246.19 67.2693 Q1252.22 67.2693 1255.71 63.421 Q1259.23 59.5726 1259.23 52.9291 L1259.23 27.2059 L1266.68 27.2059 L1266.68 72.576 L1259.23 72.576 L1259.23 65.6084 Q1256.52 69.7404 1252.91 71.7658 Q1249.35 73.7508 1244.61 73.7508 Q1236.79 73.7508 1232.74 68.8897 Q1228.69 64.0286 1228.69 54.671 M1247.44 26.1121 L1247.44 26.1121 Z" fill="#000000" fill-rule="nonzero" fill-opacity="1" /><path clip-path="url(#clip580)" d="M1289.41 14.324 L1289.41 27.2059 L1304.76 27.2059 L1304.76 32.9987 L1289.41 32.9987 L1289.41 57.6282 Q1289.41 63.1779 1290.91 64.7578 Q1292.45 66.3376 1297.11 66.3376 L1304.76 66.3376 L1304.76 72.576 L1297.11 72.576 Q1288.48 72.576 1285.2 69.3758 Q1281.92 66.1351 1281.92 57.6282 L1281.92 32.9987 L1276.45 32.9987 L1276.45 27.2059 L1281.92 27.2059 L1281.92 14.324 L1289.41 14.324 Z" fill="#000000" fill-rule="nonzero" fill-opacity="1" /><path clip-path="url(#clip580)" d="M1340.86 34.1734 Q1339.6 33.4443 1338.1 33.1202 Q1336.64 32.7556 1334.86 32.7556 Q1328.54 32.7556 1325.14 36.8875 Q1321.78 40.9789 1321.78 48.6757 L1321.78 72.576 L1314.28 72.576 L1314.28 27.2059 L1321.78 27.2059 L1321.78 34.2544 Q1324.13 30.1225 1327.89 28.1376 Q1331.66 26.1121 1337.05 26.1121 Q1337.82 26.1121 1338.75 26.2337 Q1339.68 26.3147 1340.82 26.5172 L1340.86 34.1734 Z" fill="#000000" fill-rule="nonzero" fill-opacity="1" /><path clip-path="url(#clip580)" d="M1364.43 32.4315 Q1358.44 32.4315 1354.95 37.1306 Q1351.47 41.7891 1351.47 49.9314 Q1351.47 58.0738 1354.91 62.7728 Q1358.4 67.4314 1364.43 67.4314 Q1370.39 67.4314 1373.87 62.7323 Q1377.36 58.0333 1377.36 49.9314 Q1377.36 41.8701 1373.87 37.1711 Q1370.39 32.4315 1364.43 32.4315 M1364.43 26.1121 Q1374.15 26.1121 1379.7 32.4315 Q1385.25 38.7509 1385.25 49.9314 Q1385.25 61.0714 1379.7 67.4314 Q1374.15 73.7508 1364.43 73.7508 Q1354.67 73.7508 1349.12 67.4314 Q1343.61 61.0714 1343.61 49.9314 Q1343.61 38.7509 1349.12 32.4315 Q1354.67 26.1121 1364.43 26.1121 Z" fill="#000000" fill-rule="nonzero" fill-opacity="1" /><path clip-path="url(#clip580)" d="M1435.32 45.1919 L1435.32 72.576 L1427.87 72.576 L1427.87 45.4349 Q1427.87 38.994 1425.36 35.7938 Q1422.85 32.5936 1417.82 32.5936 Q1411.79 32.5936 1408.3 36.4419 Q1404.82 40.2903 1404.82 46.9338 L1404.82 72.576 L1397.33 72.576 L1397.33 27.2059 L1404.82 27.2059 L1404.82 34.2544 Q1407.49 30.163 1411.1 28.1376 Q1414.75 26.1121 1419.48 26.1121 Q1427.3 26.1121 1431.31 30.9732 Q1435.32 35.7938 1435.32 45.1919 Z" fill="#000000" fill-rule="nonzero" fill-opacity="1" /><path clip-path="url(#clip580)" d="M1479.11 28.5427 L1479.11 35.5912 Q1475.95 33.9709 1472.55 33.1607 Q1469.15 32.3505 1465.5 32.3505 Q1459.95 32.3505 1457.16 34.0519 Q1454.4 35.7533 1454.4 39.156 Q1454.4 41.7486 1456.39 43.2475 Q1458.37 44.7058 1464.37 46.0426 L1466.92 46.6097 Q1474.86 48.3111 1478.18 51.4303 Q1481.54 54.509 1481.54 60.0587 Q1481.54 66.3781 1476.52 70.0644 Q1471.54 73.7508 1462.79 73.7508 Q1459.14 73.7508 1455.17 73.0216 Q1451.24 72.3329 1446.87 70.9151 L1446.87 63.2184 Q1451 65.3654 1455.01 66.4591 Q1459.02 67.5124 1462.95 67.5124 Q1468.22 67.5124 1471.05 65.73 Q1473.89 63.9071 1473.89 60.6258 Q1473.89 57.5877 1471.82 55.9673 Q1469.8 54.3469 1462.87 52.8481 L1460.28 52.2405 Q1453.35 50.7821 1450.27 47.7845 Q1447.19 44.7463 1447.19 39.4801 Q1447.19 33.0797 1451.73 29.5959 Q1456.27 26.1121 1464.61 26.1121 Q1468.74 26.1121 1472.39 26.7198 Q1476.04 27.3274 1479.11 28.5427 Z" fill="#000000" fill-rule="nonzero" fill-opacity="1" /><path clip-path="url(#clip580)" d="M1548.71 28.5427 L1548.71 35.5912 Q1545.55 33.9709 1542.15 33.1607 Q1538.74 32.3505 1535.1 32.3505 Q1529.55 32.3505 1526.75 34.0519 Q1524 35.7533 1524 39.156 Q1524 41.7486 1525.98 43.2475 Q1527.97 44.7058 1533.96 46.0426 L1536.52 46.6097 Q1544.45 48.3111 1547.78 51.4303 Q1551.14 54.509 1551.14 60.0587 Q1551.14 66.3781 1546.12 70.0644 Q1541.13 73.7508 1532.38 73.7508 Q1528.74 73.7508 1524.77 73.0216 Q1520.84 72.3329 1516.46 70.9151 L1516.46 63.2184 Q1520.6 65.3654 1524.61 66.4591 Q1528.62 67.5124 1532.55 67.5124 Q1537.81 67.5124 1540.65 65.73 Q1543.48 63.9071 1543.48 60.6258 Q1543.48 57.5877 1541.42 55.9673 Q1539.39 54.3469 1532.46 52.8481 L1529.87 52.2405 Q1522.94 50.7821 1519.87 47.7845 Q1516.79 44.7463 1516.79 39.4801 Q1516.79 33.0797 1521.32 29.5959 Q1525.86 26.1121 1534.21 26.1121 Q1538.34 26.1121 1541.98 26.7198 Q1545.63 27.3274 1548.71 28.5427 Z" fill="#000000" fill-rule="nonzero" fill-opacity="1" /><path clip-path="url(#clip580)" d="M1560.74 29.0288 L1593.43 29.0288 L1593.43 32.8771 L1560.74 32.8771 L1560.74 29.0288 Z" fill="#000000" fill-rule="nonzero" fill-opacity="1" /><path clip-path="url(#clip580)" d="M1605.3 41.06 L1613.56 41.06 L1613.56 16.3089 L1604.53 17.9698 L1604.53 13.2708 L1613.85 11.6909 L1619.4 11.6909 L1619.4 41.06 L1627.7 41.06 L1627.7 45.516 L1605.3 45.516 L1605.3 41.06 Z" fill="#000000" fill-rule="nonzero" fill-opacity="1" /><path clip-path="url(#clip580)" d="M1699.08 28.9478 L1699.08 35.9153 Q1695.92 34.1734 1692.72 33.3227 Q1689.56 32.4315 1686.32 32.4315 Q1679.07 32.4315 1675.06 37.0496 Q1671.05 41.6271 1671.05 49.9314 Q1671.05 58.2358 1675.06 62.8538 Q1679.07 67.4314 1686.32 67.4314 Q1689.56 67.4314 1692.72 66.5807 Q1695.92 65.6895 1699.08 63.9476 L1699.08 70.8341 Q1695.96 72.2924 1692.6 73.0216 Q1689.27 73.7508 1685.51 73.7508 Q1675.26 73.7508 1669.22 67.3098 Q1663.19 60.8689 1663.19 49.9314 Q1663.19 38.832 1669.26 32.472 Q1675.38 26.1121 1685.99 26.1121 Q1689.44 26.1121 1692.72 26.8413 Q1696 27.5299 1699.08 28.9478 Z" fill="#000000" fill-rule="nonzero" fill-opacity="1" /><path clip-path="url(#clip580)" d="M1747.36 35.9153 Q1750.16 30.8922 1754.05 28.5022 Q1757.94 26.1121 1763.2 26.1121 Q1770.29 26.1121 1774.14 31.0947 Q1777.99 36.0368 1777.99 45.1919 L1777.99 72.576 L1770.5 72.576 L1770.5 45.4349 Q1770.5 38.913 1768.19 35.7533 Q1765.88 32.5936 1761.14 32.5936 Q1755.35 32.5936 1751.98 36.4419 Q1748.62 40.2903 1748.62 46.9338 L1748.62 72.576 L1741.13 72.576 L1741.13 45.4349 Q1741.13 38.8725 1738.82 35.7533 Q1736.51 32.5936 1731.69 32.5936 Q1725.98 32.5936 1722.61 36.4824 Q1719.25 40.3308 1719.25 46.9338 L1719.25 72.576 L1711.76 72.576 L1711.76 27.2059 L1719.25 27.2059 L1719.25 34.2544 Q1721.8 30.082 1725.37 28.0971 Q1728.93 26.1121 1733.83 26.1121 Q1738.78 26.1121 1742.22 28.6237 Q1745.7 31.1352 1747.36 35.9153 Z" fill="#000000" fill-rule="nonzero" fill-opacity="1" /><path clip-path="url(#clip580)" d="M1790.59 29.0288 L1823.28 29.0288 L1823.28 32.8771 L1790.59 32.8771 L1790.59 29.0288 Z" fill="#000000" fill-rule="nonzero" fill-opacity="1" /><path clip-path="url(#clip580)" d="M1839.68 40.8979 L1856.86 40.8979 L1856.86 45.516 L1832.64 45.516 L1832.64 41.06 Q1834.01 39.8042 1836.57 37.5357 Q1850.5 25.1804 1850.5 21.3726 Q1850.5 18.699 1848.39 17.0786 Q1846.29 15.4177 1842.84 15.4177 Q1840.74 15.4177 1838.27 16.1469 Q1835.8 16.8356 1832.88 18.2534 L1832.88 13.2708 Q1836 12.1365 1838.67 11.5694 Q1841.39 11.0023 1843.7 11.0023 Q1849.57 11.0023 1853.09 13.6759 Q1856.62 16.3494 1856.62 20.7244 Q1856.62 26.3552 1843.21 37.8598 Q1840.94 39.8042 1839.68 40.8979 Z" fill="#000000" fill-rule="nonzero" fill-opacity="1" /><polyline clip-path="url(#clip582)" style="stroke:#000000; stroke-linecap:round; stroke-linejoin:round; stroke-width:4; stroke-opacity:1; fill:none" points="265.903,1386.4 265.903,1386.4 274.275,1386.4 274.275,1340.13 282.647,1340.13 282.647,1316.99 291.02,1316.99 291.02,1363.26 299.392,1363.26 299.392,1340.13 307.764,1340.13 307.764,1363.26 316.136,1363.26 316.136,1386.4 324.508,1386.4 324.508,1363.26 332.881,1363.26 332.881,1340.13 341.253,1340.13 341.253,1386.4 349.625,1386.4 349.625,1363.26 357.997,1363.26 357.997,1386.4 366.369,1386.4 366.369,1363.26 374.742,1363.26 383.114,1363.26 391.486,1363.26 391.486,1340.13 399.858,1340.13 399.858,1363.26 408.23,1363.26 408.23,1293.86 416.603,1293.86 424.975,1293.86 424.975,1340.13 433.347,1340.13 441.719,1340.13 441.719,1247.59 450.091,1247.59 450.091,1363.26 458.464,1363.26 458.464,1293.86 466.836,1293.86 466.836,1363.26 475.208,1363.26 475.208,1340.13 483.58,1340.13 483.58,1247.59 491.952,1247.59 491.952,1340.13 500.324,1340.13 500.324,1386.4 508.697,1386.4 508.697,1363.26 517.069,1363.26 525.441,1363.26 525.441,1386.4 533.813,1386.4 533.813,1363.26 542.185,1363.26 542.185,1340.13 550.558,1340.13 558.93,1340.13 558.93,1363.26 567.302,1363.26 575.674,1363.26 575.674,1386.4 584.046,1386.4 592.419,1386.4 600.791,1386.4 600.791,1363.26 609.163,1363.26 617.535,1363.26 617.535,1386.4 625.907,1386.4 625.907,1340.13 634.28,1340.13 634.28,1363.26 642.652,1363.26 642.652,1340.13 651.024,1340.13 651.024,1363.26 659.396,1363.26 659.396,1340.13 667.768,1340.13 667.768,1386.4 676.141,1386.4 676.141,1363.26 684.513,1363.26 684.513,1247.59 692.885,1247.59 692.885,1340.13 701.257,1340.13 701.257,1363.26 709.629,1363.26 709.629,1340.13 718.002,1340.13 718.002,1386.4 726.374,1386.4 726.374,1363.26 734.746,1363.26 734.746,1386.4 743.118,1386.4 743.118,1363.26 751.49,1363.26 759.862,1363.26 759.862,1386.4 768.235,1386.4 768.235,1363.26 776.607,1363.26 776.607,1386.4 784.979,1386.4 784.979,1363.26 793.351,1363.26 793.351,1386.4 801.723,1386.4 801.723,1363.26 810.096,1363.26 818.468,1363.26 818.468,1386.4 826.84,1386.4 826.84,1340.13 835.212,1340.13 835.212,1363.26 843.584,1363.26 843.584,1340.13 851.957,1340.13 851.957,1363.26 860.329,1363.26 860.329,1386.4 868.701,1386.4 877.073,1386.4 885.445,1386.4 885.445,1363.26 893.818,1363.26 893.818,1386.4 902.19,1386.4 902.19,1363.26 910.562,1363.26 910.562,1340.13 918.934,1340.13 918.934,1386.4 927.306,1386.4 927.306,1363.26 935.679,1363.26 935.679,1386.4 944.051,1386.4 952.423,1386.4 960.795,1386.4 960.795,1363.26 969.167,1363.26 969.167,1386.4 977.539,1386.4 977.539,1363.26 985.912,1363.26 985.912,1386.4 994.284,1386.4 1002.66,1386.4 1002.66,1363.26 1011.03,1363.26 1019.4,1363.26 1019.4,1386.4 1027.77,1386.4 1027.77,1363.26 1036.14,1363.26 1036.14,1386.4 1044.52,1386.4 1052.89,1386.4 1061.26,1386.4 1061.26,1363.26 1069.63,1363.26 1069.63,1386.4 1078.01,1386.4 1078.01,1363.26 1086.38,1363.26 1086.38,1386.4 1094.75,1386.4 1103.12,1386.4 1103.12,1340.13 1111.49,1340.13 1111.49,1386.4 1119.87,1386.4 1119.87,1363.26 1128.24,1363.26 1136.61,1363.26 1136.61,1386.4 1144.98,1386.4 1144.98,1340.13 1153.36,1340.13 1161.73,1340.13 1161.73,1386.4 1170.1,1386.4 1178.47,1386.4 1178.47,1363.26 1186.84,1363.26 1195.22,1363.26 1195.22,1386.4 1203.59,1386.4 1211.96,1386.4 1220.33,1386.4 1220.33,1363.26 1228.71,1363.26 1228.71,1386.4 1237.08,1386.4 1245.45,1386.4 1245.45,1363.26 1253.82,1363.26 1262.19,1363.26 1262.19,1386.4 1270.57,1386.4 1270.57,1363.26 1278.94,1363.26 1278.94,1386.4 1287.31,1386.4 1295.68,1386.4 1304.06,1386.4 1304.06,1363.26 1312.43,1363.26 1312.43,1340.13 1320.8,1340.13 1320.8,1363.26 1329.17,1363.26 1337.54,1363.26 1345.92,1363.26 1345.92,1386.4 1354.29,1386.4 1362.66,1386.4 1362.66,1363.26 1371.03,1363.26 1371.03,1386.4 1379.4,1386.4 1379.4,1340.13 1387.78,1340.13 1387.78,1363.26 1396.15,1363.26 1396.15,1386.4 1404.52,1386.4 1412.89,1386.4 1412.89,1363.26 1421.27,1363.26 1421.27,1386.4 1429.64,1386.4 1429.64,1363.26 1438.01,1363.26 1446.38,1363.26 1446.38,1386.4 1454.75,1386.4 1463.13,1386.4 1471.5,1386.4 1479.87,1386.4 1488.24,1386.4 1488.24,1363.26 1496.62,1363.26 1496.62,1386.4 1504.99,1386.4 1513.36,1386.4 1521.73,1386.4 1530.1,1386.4 1538.48,1386.4 1546.85,1386.4 1555.22,1386.4 1563.59,1386.4 1571.97,1386.4 1580.34,1386.4 1588.71,1386.4 1588.71,1340.13 1597.08,1340.13 1597.08,1386.4 1605.45,1386.4 1605.45,1340.13 1613.83,1340.13 1613.83,1386.4 1622.2,1386.4 1630.57,1386.4 1638.94,1386.4 1647.31,1386.4 1647.31,1363.26 1655.69,1363.26 1655.69,1386.4 1664.06,1386.4 1672.43,1386.4 1680.8,1386.4 1689.18,1386.4 1689.18,1363.26 1697.55,1363.26 1697.55,1386.4 1705.92,1386.4 1705.92,1363.26 1714.29,1363.26 1722.66,1363.26 1722.66,1386.4 1731.04,1386.4 1731.04,1363.26 1739.41,1363.26 1747.78,1363.26 1747.78,1386.4 1756.15,1386.4 1764.53,1386.4 1772.9,1386.4 1772.9,1363.26 1781.27,1363.26 1781.27,1386.4 1789.64,1386.4 1798.01,1386.4 1798.01,1340.13 1806.39,1340.13 1806.39,1363.26 1814.76,1363.26 1814.76,1340.13 1823.13,1340.13 1823.13,1386.4 1831.5,1386.4 1839.88,1386.4 1848.25,1386.4 1856.62,1386.4 1864.99,1386.4 1864.99,1363.26 1873.36,1363.26 1873.36,1386.4 1881.74,1386.4 1890.11,1386.4 1898.48,1386.4 1906.85,1386.4 1915.23,1386.4 1923.6,1386.4 1931.97,1386.4 1940.34,1386.4 1940.34,1363.26 1948.71,1363.26 1948.71,1386.4 1957.09,1386.4 1965.46,1386.4 1973.83,1386.4 1973.83,1363.26 1982.2,1363.26 1982.2,1386.4 1990.57,1386.4 1998.95,1386.4 2007.32,1386.4 2007.32,1363.26 2015.69,1363.26 2015.69,1386.4 2024.06,1386.4 2032.44,1386.4 2040.81,1386.4 2040.81,1363.26 2049.18,1363.26 2049.18,1386.4 2057.55,1386.4 2065.92,1386.4 2074.3,1386.4 2074.3,1363.26 2082.67,1363.26 2082.67,1386.4 2091.04,1386.4 2099.41,1386.4 2107.79,1386.4 2116.16,1386.4 2124.53,1386.4 2124.53,1363.26 2132.9,1363.26 2132.9,1340.13 2141.27,1340.13 2141.27,1386.4 2149.65,1386.4 2158.02,1386.4 2166.39,1386.4 2174.76,1386.4 2174.76,1363.26 2183.14,1363.26 2183.14,1386.4 2191.51,1386.4 2191.51,1340.13 2199.88,1340.13 2199.88,1386.4 2208.25,1386.4 2208.25,1363.26 2216.62,1363.26 2216.62,1386.4 2225,1386.4 2233.37,1386.4 2241.74,1386.4 2250.11,1386.4 2250.11,1363.26 2258.49,1363.26 2258.49,1386.4 2266.86,1386.4 2275.23,1386.4 2283.6,1386.4 2291.97,1386.4 "/>
<polyline clip-path="url(#clip582)" style="stroke:#ff0000; stroke-linecap:round; stroke-linejoin:round; stroke-width:4; stroke-opacity:1; fill:none" points="265.903,1386.4 265.903,1386.4 274.275,1386.4 274.275,206.526 282.647,206.526 282.647,160.256 291.02,160.256 291.02,854.297 299.392,854.297 299.392,923.702 307.764,923.702 307.764,854.297 316.136,854.297 316.136,900.567 324.508,900.567 324.508,1062.51 332.881,1062.51 341.253,1062.51 341.253,1178.18 349.625,1178.18 349.625,1039.38 357.997,1039.38 357.997,1062.51 366.369,1062.51 366.369,1224.45 374.742,1224.45 374.742,1085.64 383.114,1085.64 383.114,1247.59 391.486,1247.59 391.486,1340.13 399.858,1340.13 399.858,1293.86 408.23,1293.86 408.23,1247.59 416.603,1247.59 416.603,1178.18 424.975,1178.18 424.975,1224.45 433.347,1224.45 433.347,1247.59 441.719,1247.59 441.719,1201.32 450.091,1201.32 450.091,1340.13 458.464,1340.13 458.464,1178.18 466.836,1178.18 466.836,1201.32 475.208,1201.32 475.208,1293.86 483.58,1293.86 483.58,1316.99 491.952,1316.99 500.324,1316.99 500.324,1386.4 508.697,1386.4 508.697,1363.26 517.069,1363.26 517.069,1386.4 525.441,1386.4 525.441,1363.26 533.813,1363.26 542.185,1363.26 550.558,1363.26 550.558,1340.13 558.93,1340.13 558.93,1363.26 567.302,1363.26 567.302,1386.4 575.674,1386.4 575.674,1340.13 584.046,1340.13 584.046,1386.4 592.419,1386.4 600.791,1386.4 609.163,1386.4 617.535,1386.4 625.907,1386.4 634.28,1386.4 642.652,1386.4 651.024,1386.4 659.396,1386.4 667.768,1386.4 676.141,1386.4 684.513,1386.4 692.885,1386.4 701.257,1386.4 709.629,1386.4 718.002,1386.4 726.374,1386.4 734.746,1386.4 743.118,1386.4 743.118,1363.26 751.49,1363.26 759.862,1363.26 759.862,1386.4 768.235,1386.4 776.607,1386.4 784.979,1386.4 793.351,1386.4 801.723,1386.4 801.723,1363.26 810.096,1363.26 810.096,1386.4 818.468,1386.4 826.84,1386.4 835.212,1386.4 843.584,1386.4 851.957,1386.4 860.329,1386.4 868.701,1386.4 877.073,1386.4 885.445,1386.4 893.818,1386.4 902.19,1386.4 910.562,1386.4 918.934,1386.4 918.934,1363.26 927.306,1363.26 927.306,1386.4 935.679,1386.4 944.051,1386.4 952.423,1386.4 960.795,1386.4 969.167,1386.4 977.539,1386.4 985.912,1386.4 994.284,1386.4 1002.66,1386.4 1011.03,1386.4 1019.4,1386.4 1027.77,1386.4 1036.14,1386.4 1044.52,1386.4 1052.89,1386.4 1061.26,1386.4 1069.63,1386.4 1078.01,1386.4 1086.38,1386.4 1094.75,1386.4 1103.12,1386.4 1111.49,1386.4 1119.87,1386.4 1128.24,1386.4 1136.61,1386.4 1144.98,1386.4 1153.36,1386.4 1153.36,1363.26 1161.73,1363.26 1161.73,1386.4 1170.1,1386.4 1178.47,1386.4 1186.84,1386.4 1195.22,1386.4 1203.59,1386.4 1211.96,1386.4 1220.33,1386.4 1228.71,1386.4 1237.08,1386.4 1245.45,1386.4 1253.82,1386.4 1262.19,1386.4 1270.57,1386.4 1278.94,1386.4 1287.31,1386.4 1295.68,1386.4 1304.06,1386.4 1312.43,1386.4 1320.8,1386.4 1329.17,1386.4 1337.54,1386.4 1345.92,1386.4 1354.29,1386.4 1362.66,1386.4 1371.03,1386.4 1379.4,1386.4 1387.78,1386.4 1396.15,1386.4 1404.52,1386.4 1412.89,1386.4 1421.27,1386.4 1429.64,1386.4 1438.01,1386.4 1438.01,1363.26 1446.38,1363.26 1446.38,1386.4 1454.75,1386.4 1463.13,1386.4 1471.5,1386.4 1479.87,1386.4 1488.24,1386.4 1496.62,1386.4 1504.99,1386.4 1513.36,1386.4 1521.73,1386.4 1530.1,1386.4 1538.48,1386.4 1546.85,1386.4 1555.22,1386.4 1563.59,1386.4 1571.97,1386.4 1580.34,1386.4 1588.71,1386.4 1597.08,1386.4 1605.45,1386.4 1613.83,1386.4 1622.2,1386.4 1630.57,1386.4 1638.94,1386.4 1647.31,1386.4 1655.69,1386.4 1664.06,1386.4 1672.43,1386.4 1680.8,1386.4 1689.18,1386.4 1697.55,1386.4 1705.92,1386.4 1714.29,1386.4 1722.66,1386.4 1731.04,1386.4 1739.41,1386.4 1747.78,1386.4 1756.15,1386.4 1764.53,1386.4 1772.9,1386.4 1781.27,1386.4 1789.64,1386.4 1798.01,1386.4 1806.39,1386.4 1814.76,1386.4 1823.13,1386.4 1831.5,1386.4 1839.88,1386.4 1848.25,1386.4 1856.62,1386.4 1864.99,1386.4 1873.36,1386.4 1881.74,1386.4 1890.11,1386.4 1898.48,1386.4 1906.85,1386.4 1915.23,1386.4 1923.6,1386.4 1931.97,1386.4 1940.34,1386.4 1948.71,1386.4 1957.09,1386.4 1965.46,1386.4 1973.83,1386.4 1982.2,1386.4 1990.57,1386.4 1998.95,1386.4 2007.32,1386.4 2015.69,1386.4 2024.06,1386.4 2032.44,1386.4 2040.81,1386.4 2049.18,1386.4 2057.55,1386.4 2065.92,1386.4 2074.3,1386.4 2082.67,1386.4 2091.04,1386.4 2099.41,1386.4 2107.79,1386.4 2116.16,1386.4 2124.53,1386.4 2132.9,1386.4 2141.27,1386.4 2149.65,1386.4 2158.02,1386.4 2166.39,1386.4 2174.76,1386.4 2183.14,1386.4 2191.51,1386.4 2199.88,1386.4 2208.25,1386.4 2216.62,1386.4 2225,1386.4 2233.37,1386.4 2241.74,1386.4 2250.11,1386.4 2258.49,1386.4 2266.86,1386.4 2275.23,1386.4 2283.6,1386.4 2291.97,1386.4 "/>
<path clip-path="url(#clip580)" d="M1651.68 322.316 L2281.17 322.316 L2281.17 166.796 L1651.68 166.796  Z" fill="#ffffff" fill-rule="evenodd" fill-opacity="1"/>
<polyline clip-path="url(#clip580)" style="stroke:#000000; stroke-linecap:round; stroke-linejoin:round; stroke-width:4; stroke-opacity:1; fill:none" points="1651.68,322.316 2281.17,322.316 2281.17,166.796 1651.68,166.796 1651.68,322.316 "/>
<polyline clip-path="url(#clip580)" style="stroke:#000000; stroke-linecap:round; stroke-linejoin:round; stroke-width:4; stroke-opacity:1; fill:none" points="1675.55,218.636 1818.72,218.636 "/>
<path clip-path="url(#clip580)" d="M1870.46 204.018 L1870.46 208.948 Q1868.09 206.749 1865.41 205.661 Q1862.75 204.573 1859.74 204.573 Q1853.81 204.573 1850.66 208.208 Q1847.52 211.819 1847.52 218.67 Q1847.52 225.499 1850.66 229.133 Q1853.81 232.744 1859.74 232.744 Q1862.75 232.744 1865.41 231.656 Q1868.09 230.569 1870.46 228.369 L1870.46 233.254 Q1868 234.92 1865.25 235.754 Q1862.52 236.587 1859.46 236.587 Q1851.61 236.587 1847.1 231.795 Q1842.59 226.981 1842.59 218.67 Q1842.59 210.337 1847.1 205.546 Q1851.61 200.731 1859.46 200.731 Q1862.56 200.731 1865.29 201.564 Q1868.05 202.374 1870.46 204.018 Z" fill="#000000" fill-rule="nonzero" fill-opacity="1" /><path clip-path="url(#clip580)" d="M1887.54 212.976 Q1884.11 212.976 1882.12 215.661 Q1880.13 218.323 1880.13 222.976 Q1880.13 227.629 1882.1 230.314 Q1884.09 232.976 1887.54 232.976 Q1890.94 232.976 1892.93 230.291 Q1894.92 227.606 1894.92 222.976 Q1894.92 218.37 1892.93 215.684 Q1890.94 212.976 1887.54 212.976 M1887.54 209.365 Q1893.09 209.365 1896.27 212.976 Q1899.44 216.587 1899.44 222.976 Q1899.44 229.342 1896.27 232.976 Q1893.09 236.587 1887.54 236.587 Q1881.96 236.587 1878.79 232.976 Q1875.64 229.342 1875.64 222.976 Q1875.64 216.587 1878.79 212.976 Q1881.96 209.365 1887.54 209.365 Z" fill="#000000" fill-rule="nonzero" fill-opacity="1" /><path clip-path="url(#clip580)" d="M1921.52 213.971 Q1920.8 213.555 1919.95 213.37 Q1919.11 213.161 1918.09 213.161 Q1914.48 213.161 1912.54 215.522 Q1910.62 217.86 1910.62 222.258 L1910.62 235.916 L1906.34 235.916 L1906.34 209.99 L1910.62 209.99 L1910.62 214.018 Q1911.96 211.657 1914.11 210.522 Q1916.27 209.365 1919.34 209.365 Q1919.78 209.365 1920.32 209.434 Q1920.85 209.481 1921.5 209.596 L1921.52 213.971 Z" fill="#000000" fill-rule="nonzero" fill-opacity="1" /><path clip-path="url(#clip580)" d="M1940.18 213.971 Q1939.46 213.555 1938.6 213.37 Q1937.77 213.161 1936.75 213.161 Q1933.14 213.161 1931.2 215.522 Q1929.27 217.86 1929.27 222.258 L1929.27 235.916 L1924.99 235.916 L1924.99 209.99 L1929.27 209.99 L1929.27 214.018 Q1930.62 211.657 1932.77 210.522 Q1934.92 209.365 1938 209.365 Q1938.44 209.365 1938.97 209.434 Q1939.51 209.481 1940.15 209.596 L1940.18 213.971 Z" fill="#000000" fill-rule="nonzero" fill-opacity="1" /><path clip-path="url(#clip580)" d="M1965.78 221.888 L1965.78 223.971 L1946.2 223.971 Q1946.47 228.369 1948.83 230.684 Q1951.22 232.976 1955.46 232.976 Q1957.91 232.976 1960.2 232.374 Q1962.52 231.772 1964.78 230.569 L1964.78 234.596 Q1962.49 235.568 1960.08 236.078 Q1957.68 236.587 1955.2 236.587 Q1949 236.587 1945.36 232.976 Q1941.75 229.365 1941.75 223.207 Q1941.75 216.842 1945.18 213.115 Q1948.63 209.365 1954.46 209.365 Q1959.69 209.365 1962.72 212.745 Q1965.78 216.101 1965.78 221.888 M1961.52 220.638 Q1961.47 217.143 1959.55 215.059 Q1957.65 212.976 1954.51 212.976 Q1950.94 212.976 1948.79 214.99 Q1946.66 217.004 1946.33 220.661 L1961.52 220.638 Z" fill="#000000" fill-rule="nonzero" fill-opacity="1" /><path clip-path="url(#clip580)" d="M1991.43 210.985 L1991.43 214.967 Q1989.62 213.971 1987.79 213.485 Q1985.99 212.976 1984.14 212.976 Q1979.99 212.976 1977.7 215.615 Q1975.41 218.231 1975.41 222.976 Q1975.41 227.721 1977.7 230.36 Q1979.99 232.976 1984.14 232.976 Q1985.99 232.976 1987.79 232.49 Q1989.62 231.981 1991.43 230.985 L1991.43 234.92 Q1989.64 235.754 1987.72 236.17 Q1985.83 236.587 1983.67 236.587 Q1977.82 236.587 1974.37 232.906 Q1970.92 229.226 1970.92 222.976 Q1970.92 216.633 1974.39 212.999 Q1977.89 209.365 1983.95 209.365 Q1985.92 209.365 1987.79 209.782 Q1989.67 210.175 1991.43 210.985 Z" fill="#000000" fill-rule="nonzero" fill-opacity="1" /><path clip-path="url(#clip580)" d="M2003.05 202.629 L2003.05 209.99 L2011.82 209.99 L2011.82 213.3 L2003.05 213.3 L2003.05 227.374 Q2003.05 230.545 2003.9 231.448 Q2004.78 232.351 2007.45 232.351 L2011.82 232.351 L2011.82 235.916 L2007.45 235.916 Q2002.52 235.916 2000.64 234.087 Q1998.77 232.235 1998.77 227.374 L1998.77 213.3 L1995.64 213.3 L1995.64 209.99 L1998.77 209.99 L1998.77 202.629 L2003.05 202.629 Z" fill="#000000" fill-rule="nonzero" fill-opacity="1" /><path clip-path="url(#clip580)" d="M2054.67 221.888 L2054.67 223.971 L2035.08 223.971 Q2035.36 228.369 2037.72 230.684 Q2040.11 232.976 2044.34 232.976 Q2046.8 232.976 2049.09 232.374 Q2051.4 231.772 2053.67 230.569 L2053.67 234.596 Q2051.38 235.568 2048.97 236.078 Q2046.57 236.587 2044.09 236.587 Q2037.89 236.587 2034.25 232.976 Q2030.64 229.365 2030.64 223.207 Q2030.64 216.842 2034.07 213.115 Q2037.51 209.365 2043.35 209.365 Q2048.58 209.365 2051.61 212.745 Q2054.67 216.101 2054.67 221.888 M2050.41 220.638 Q2050.36 217.143 2048.44 215.059 Q2046.54 212.976 2043.39 212.976 Q2039.83 212.976 2037.68 214.99 Q2035.55 217.004 2035.22 220.661 L2050.41 220.638 Z" fill="#000000" fill-rule="nonzero" fill-opacity="1" /><path clip-path="url(#clip580)" d="M2058.6 209.99 L2063.12 209.99 L2071.22 231.749 L2079.32 209.99 L2083.83 209.99 L2074.11 235.916 L2068.32 235.916 L2058.6 209.99 Z" fill="#000000" fill-rule="nonzero" fill-opacity="1" /><path clip-path="url(#clip580)" d="M2111.89 221.888 L2111.89 223.971 L2092.31 223.971 Q2092.58 228.369 2094.95 230.684 Q2097.33 232.976 2101.57 232.976 Q2104.02 232.976 2106.31 232.374 Q2108.63 231.772 2110.89 230.569 L2110.89 234.596 Q2108.6 235.568 2106.2 236.078 Q2103.79 236.587 2101.31 236.587 Q2095.11 236.587 2091.47 232.976 Q2087.86 229.365 2087.86 223.207 Q2087.86 216.842 2091.29 213.115 Q2094.74 209.365 2100.57 209.365 Q2105.8 209.365 2108.83 212.745 Q2111.89 216.101 2111.89 221.888 M2107.63 220.638 Q2107.58 217.143 2105.66 215.059 Q2103.76 212.976 2100.62 212.976 Q2097.05 212.976 2094.9 214.99 Q2092.77 217.004 2092.45 220.661 L2107.63 220.638 Z" fill="#000000" fill-rule="nonzero" fill-opacity="1" /><path clip-path="url(#clip580)" d="M2140.43 220.268 L2140.43 235.916 L2136.17 235.916 L2136.17 220.407 Q2136.17 216.726 2134.74 214.897 Q2133.3 213.069 2130.43 213.069 Q2126.98 213.069 2124.99 215.268 Q2123 217.467 2123 221.263 L2123 235.916 L2118.72 235.916 L2118.72 209.99 L2123 209.99 L2123 214.018 Q2124.53 211.68 2126.59 210.522 Q2128.67 209.365 2131.38 209.365 Q2135.85 209.365 2138.14 212.143 Q2140.43 214.897 2140.43 220.268 Z" fill="#000000" fill-rule="nonzero" fill-opacity="1" /><path clip-path="url(#clip580)" d="M2153.14 202.629 L2153.14 209.99 L2161.91 209.99 L2161.91 213.3 L2153.14 213.3 L2153.14 227.374 Q2153.14 230.545 2154 231.448 Q2154.88 232.351 2157.54 232.351 L2161.91 232.351 L2161.91 235.916 L2157.54 235.916 Q2152.61 235.916 2150.73 234.087 Q2148.86 232.235 2148.86 227.374 L2148.86 213.3 L2145.73 213.3 L2145.73 209.99 L2148.86 209.99 L2148.86 202.629 L2153.14 202.629 Z" fill="#000000" fill-rule="nonzero" fill-opacity="1" /><path clip-path="url(#clip580)" d="M2184.04 210.754 L2184.04 214.782 Q2182.24 213.856 2180.29 213.393 Q2178.35 212.93 2176.26 212.93 Q2173.09 212.93 2171.5 213.902 Q2169.92 214.874 2169.92 216.819 Q2169.92 218.3 2171.06 219.157 Q2172.19 219.99 2175.62 220.754 L2177.07 221.078 Q2181.61 222.05 2183.51 223.832 Q2185.43 225.592 2185.43 228.763 Q2185.43 232.374 2182.56 234.481 Q2179.71 236.587 2174.71 236.587 Q2172.63 236.587 2170.36 236.17 Q2168.12 235.777 2165.62 234.967 L2165.62 230.569 Q2167.98 231.795 2170.27 232.42 Q2172.56 233.022 2174.81 233.022 Q2177.82 233.022 2179.44 232.004 Q2181.06 230.962 2181.06 229.087 Q2181.06 227.351 2179.88 226.425 Q2178.72 225.499 2174.76 224.643 L2173.28 224.295 Q2169.32 223.462 2167.56 221.749 Q2165.8 220.013 2165.8 217.004 Q2165.8 213.346 2168.39 211.356 Q2170.99 209.365 2175.75 209.365 Q2178.12 209.365 2180.2 209.712 Q2182.28 210.059 2184.04 210.754 Z" fill="#000000" fill-rule="nonzero" fill-opacity="1" /><polyline clip-path="url(#clip580)" style="stroke:#ff0000; stroke-linecap:round; stroke-linejoin:round; stroke-width:4; stroke-opacity:1; fill:none" points="1675.55,270.476 1818.72,270.476 "/>
<path clip-path="url(#clip580)" d="M1864.83 254.33 L1864.83 258.89 Q1862.17 257.617 1859.81 256.992 Q1857.45 256.367 1855.25 256.367 Q1851.43 256.367 1849.34 257.848 Q1847.28 259.33 1847.28 262.061 Q1847.28 264.353 1848.65 265.534 Q1850.04 266.691 1853.88 267.409 L1856.71 267.987 Q1861.94 268.983 1864.41 271.506 Q1866.91 274.006 1866.91 278.219 Q1866.91 283.242 1863.53 285.834 Q1860.18 288.427 1853.67 288.427 Q1851.22 288.427 1848.44 287.871 Q1845.69 287.316 1842.72 286.228 L1842.72 281.413 Q1845.57 283.01 1848.3 283.821 Q1851.03 284.631 1853.67 284.631 Q1857.68 284.631 1859.85 283.057 Q1862.03 281.483 1862.03 278.566 Q1862.03 276.02 1860.46 274.584 Q1858.9 273.149 1855.34 272.432 L1852.49 271.876 Q1847.26 270.835 1844.92 268.612 Q1842.59 266.39 1842.59 262.432 Q1842.59 257.848 1845.8 255.21 Q1849.04 252.571 1854.72 252.571 Q1857.15 252.571 1859.67 253.011 Q1862.19 253.45 1864.83 254.33 Z" fill="#000000" fill-rule="nonzero" fill-opacity="1" /><path clip-path="url(#clip580)" d="M1878.23 254.469 L1878.23 261.83 L1887.01 261.83 L1887.01 265.14 L1878.23 265.14 L1878.23 279.214 Q1878.23 282.385 1879.09 283.288 Q1879.97 284.191 1882.63 284.191 L1887.01 284.191 L1887.01 287.756 L1882.63 287.756 Q1877.7 287.756 1875.83 285.927 Q1873.95 284.075 1873.95 279.214 L1873.95 265.14 L1870.83 265.14 L1870.83 261.83 L1873.95 261.83 L1873.95 254.469 L1878.23 254.469 Z" fill="#000000" fill-rule="nonzero" fill-opacity="1" /><path clip-path="url(#clip580)" d="M1902.65 264.816 Q1899.23 264.816 1897.24 267.501 Q1895.25 270.163 1895.25 274.816 Q1895.25 279.469 1897.21 282.154 Q1899.21 284.816 1902.65 284.816 Q1906.06 284.816 1908.05 282.131 Q1910.04 279.446 1910.04 274.816 Q1910.04 270.21 1908.05 267.524 Q1906.06 264.816 1902.65 264.816 M1902.65 261.205 Q1908.21 261.205 1911.38 264.816 Q1914.55 268.427 1914.55 274.816 Q1914.55 281.182 1911.38 284.816 Q1908.21 288.427 1902.65 288.427 Q1897.08 288.427 1893.9 284.816 Q1890.76 281.182 1890.76 274.816 Q1890.76 268.427 1893.9 264.816 Q1897.08 261.205 1902.65 261.205 Z" fill="#000000" fill-rule="nonzero" fill-opacity="1" /><path clip-path="url(#clip580)" d="M1940.27 262.825 L1940.27 266.807 Q1938.46 265.811 1936.64 265.325 Q1934.83 264.816 1932.98 264.816 Q1928.84 264.816 1926.54 267.455 Q1924.25 270.071 1924.25 274.816 Q1924.25 279.561 1926.54 282.2 Q1928.84 284.816 1932.98 284.816 Q1934.83 284.816 1936.64 284.33 Q1938.46 283.821 1940.27 282.825 L1940.27 286.76 Q1938.49 287.594 1936.57 288.01 Q1934.67 288.427 1932.52 288.427 Q1926.66 288.427 1923.21 284.746 Q1919.76 281.066 1919.76 274.816 Q1919.76 268.473 1923.23 264.839 Q1926.73 261.205 1932.79 261.205 Q1934.76 261.205 1936.64 261.622 Q1938.51 262.015 1940.27 262.825 Z" fill="#000000" fill-rule="nonzero" fill-opacity="1" /><path clip-path="url(#clip580)" d="M1969.23 272.108 L1969.23 287.756 L1964.97 287.756 L1964.97 272.247 Q1964.97 268.566 1963.53 266.737 Q1962.1 264.909 1959.23 264.909 Q1955.78 264.909 1953.79 267.108 Q1951.8 269.307 1951.8 273.103 L1951.8 287.756 L1947.52 287.756 L1947.52 251.737 L1951.8 251.737 L1951.8 265.858 Q1953.33 263.52 1955.39 262.362 Q1957.47 261.205 1960.18 261.205 Q1964.64 261.205 1966.94 263.983 Q1969.23 266.737 1969.23 272.108 Z" fill="#000000" fill-rule="nonzero" fill-opacity="1" /><path clip-path="url(#clip580)" d="M1989.51 274.723 Q1984.34 274.723 1982.35 275.904 Q1980.36 277.084 1980.36 279.932 Q1980.36 282.2 1981.84 283.543 Q1983.35 284.862 1985.92 284.862 Q1989.46 284.862 1991.59 282.362 Q1993.74 279.839 1993.74 275.672 L1993.74 274.723 L1989.51 274.723 M1998 272.964 L1998 287.756 L1993.74 287.756 L1993.74 283.821 Q1992.28 286.182 1990.11 287.316 Q1987.93 288.427 1984.78 288.427 Q1980.8 288.427 1978.44 286.205 Q1976.1 283.959 1976.1 280.209 Q1976.1 275.834 1979.02 273.612 Q1981.96 271.39 1987.77 271.39 L1993.74 271.39 L1993.74 270.973 Q1993.74 268.034 1991.8 266.436 Q1989.88 264.816 1986.38 264.816 Q1984.16 264.816 1982.05 265.348 Q1979.95 265.881 1978 266.946 L1978 263.01 Q1980.34 262.108 1982.54 261.668 Q1984.74 261.205 1986.82 261.205 Q1992.45 261.205 1995.22 264.122 Q1998 267.038 1998 272.964 Z" fill="#000000" fill-rule="nonzero" fill-opacity="1" /><path clip-path="url(#clip580)" d="M2023.3 262.594 L2023.3 266.622 Q2021.5 265.696 2019.55 265.233 Q2017.61 264.77 2015.52 264.77 Q2012.35 264.77 2010.76 265.742 Q2009.18 266.714 2009.18 268.659 Q2009.18 270.14 2010.32 270.997 Q2011.45 271.83 2014.88 272.594 L2016.33 272.918 Q2020.87 273.89 2022.77 275.672 Q2024.69 277.432 2024.69 280.603 Q2024.69 284.214 2021.82 286.321 Q2018.97 288.427 2013.97 288.427 Q2011.89 288.427 2009.62 288.01 Q2007.38 287.617 2004.88 286.807 L2004.88 282.409 Q2007.24 283.635 2009.53 284.26 Q2011.82 284.862 2014.07 284.862 Q2017.08 284.862 2018.7 283.844 Q2020.32 282.802 2020.32 280.927 Q2020.32 279.191 2019.14 278.265 Q2017.98 277.339 2014.02 276.483 L2012.54 276.135 Q2008.58 275.302 2006.82 273.589 Q2005.06 271.853 2005.06 268.844 Q2005.06 265.186 2007.65 263.196 Q2010.25 261.205 2015.02 261.205 Q2017.38 261.205 2019.46 261.552 Q2021.54 261.899 2023.3 262.594 Z" fill="#000000" fill-rule="nonzero" fill-opacity="1" /><path clip-path="url(#clip580)" d="M2035.69 254.469 L2035.69 261.83 L2044.46 261.83 L2044.46 265.14 L2035.69 265.14 L2035.69 279.214 Q2035.69 282.385 2036.54 283.288 Q2037.42 284.191 2040.08 284.191 L2044.46 284.191 L2044.46 287.756 L2040.08 287.756 Q2035.15 287.756 2033.28 285.927 Q2031.4 284.075 2031.4 279.214 L2031.4 265.14 L2028.28 265.14 L2028.28 261.83 L2031.4 261.83 L2031.4 254.469 L2035.69 254.469 Z" fill="#000000" fill-rule="nonzero" fill-opacity="1" /><path clip-path="url(#clip580)" d="M2050.06 261.83 L2054.32 261.83 L2054.32 287.756 L2050.06 287.756 L2050.06 261.83 M2050.06 251.737 L2054.32 251.737 L2054.32 257.131 L2050.06 257.131 L2050.06 251.737 Z" fill="#000000" fill-rule="nonzero" fill-opacity="1" /><path clip-path="url(#clip580)" d="M2081.89 262.825 L2081.89 266.807 Q2080.08 265.811 2078.26 265.325 Q2076.45 264.816 2074.6 264.816 Q2070.45 264.816 2068.16 267.455 Q2065.87 270.071 2065.87 274.816 Q2065.87 279.561 2068.16 282.2 Q2070.45 284.816 2074.6 284.816 Q2076.45 284.816 2078.26 284.33 Q2080.08 283.821 2081.89 282.825 L2081.89 286.76 Q2080.11 287.594 2078.19 288.01 Q2076.29 288.427 2074.14 288.427 Q2068.28 288.427 2064.83 284.746 Q2061.38 281.066 2061.38 274.816 Q2061.38 268.473 2064.85 264.839 Q2068.35 261.205 2074.41 261.205 Q2076.38 261.205 2078.26 261.622 Q2080.13 262.015 2081.89 262.825 Z" fill="#000000" fill-rule="nonzero" fill-opacity="1" /><path clip-path="url(#clip580)" d="M2126.54 273.728 L2126.54 275.811 L2106.96 275.811 Q2107.24 280.209 2109.6 282.524 Q2111.98 284.816 2116.22 284.816 Q2118.67 284.816 2120.96 284.214 Q2123.28 283.612 2125.55 282.409 L2125.55 286.436 Q2123.26 287.408 2120.85 287.918 Q2118.44 288.427 2115.96 288.427 Q2109.76 288.427 2106.13 284.816 Q2102.51 281.205 2102.51 275.047 Q2102.51 268.682 2105.94 264.955 Q2109.39 261.205 2115.22 261.205 Q2120.45 261.205 2123.49 264.585 Q2126.54 267.941 2126.54 273.728 M2122.28 272.478 Q2122.24 268.983 2120.32 266.899 Q2118.42 264.816 2115.27 264.816 Q2111.7 264.816 2109.55 266.83 Q2107.42 268.844 2107.1 272.501 L2122.28 272.478 Z" fill="#000000" fill-rule="nonzero" fill-opacity="1" /><path clip-path="url(#clip580)" d="M2130.48 261.83 L2134.99 261.83 L2143.09 283.589 L2151.19 261.83 L2155.71 261.83 L2145.99 287.756 L2140.2 287.756 L2130.48 261.83 Z" fill="#000000" fill-rule="nonzero" fill-opacity="1" /><path clip-path="url(#clip580)" d="M2183.76 273.728 L2183.76 275.811 L2164.18 275.811 Q2164.46 280.209 2166.82 282.524 Q2169.2 284.816 2173.44 284.816 Q2175.89 284.816 2178.19 284.214 Q2180.5 283.612 2182.77 282.409 L2182.77 286.436 Q2180.48 287.408 2178.07 287.918 Q2175.66 288.427 2173.19 288.427 Q2166.98 288.427 2163.35 284.816 Q2159.74 281.205 2159.74 275.047 Q2159.74 268.682 2163.16 264.955 Q2166.61 261.205 2172.44 261.205 Q2177.68 261.205 2180.71 264.585 Q2183.76 267.941 2183.76 273.728 M2179.5 272.478 Q2179.46 268.983 2177.54 266.899 Q2175.64 264.816 2172.49 264.816 Q2168.93 264.816 2166.77 266.83 Q2164.64 268.844 2164.32 272.501 L2179.5 272.478 Z" fill="#000000" fill-rule="nonzero" fill-opacity="1" /><path clip-path="url(#clip580)" d="M2212.31 272.108 L2212.31 287.756 L2208.05 287.756 L2208.05 272.247 Q2208.05 268.566 2206.61 266.737 Q2205.18 264.909 2202.31 264.909 Q2198.86 264.909 2196.87 267.108 Q2194.88 269.307 2194.88 273.103 L2194.88 287.756 L2190.59 287.756 L2190.59 261.83 L2194.88 261.83 L2194.88 265.858 Q2196.4 263.52 2198.46 262.362 Q2200.55 261.205 2203.25 261.205 Q2207.72 261.205 2210.01 263.983 Q2212.31 266.737 2212.31 272.108 Z" fill="#000000" fill-rule="nonzero" fill-opacity="1" /><path clip-path="url(#clip580)" d="M2225.01 254.469 L2225.01 261.83 L2233.79 261.83 L2233.79 265.14 L2225.01 265.14 L2225.01 279.214 Q2225.01 282.385 2225.87 283.288 Q2226.75 284.191 2229.41 284.191 L2233.79 284.191 L2233.79 287.756 L2229.41 287.756 Q2224.48 287.756 2222.61 285.927 Q2220.73 284.075 2220.73 279.214 L2220.73 265.14 L2217.61 265.14 L2217.61 261.83 L2220.73 261.83 L2220.73 254.469 L2225.01 254.469 Z" fill="#000000" fill-rule="nonzero" fill-opacity="1" /><path clip-path="url(#clip580)" d="M2255.92 262.594 L2255.92 266.622 Q2254.11 265.696 2252.17 265.233 Q2250.22 264.77 2248.14 264.77 Q2244.97 264.77 2243.37 265.742 Q2241.8 266.714 2241.8 268.659 Q2241.8 270.14 2242.93 270.997 Q2244.06 271.83 2247.49 272.594 L2248.95 272.918 Q2253.49 273.89 2255.38 275.672 Q2257.31 277.432 2257.31 280.603 Q2257.31 284.214 2254.44 286.321 Q2251.59 288.427 2246.59 288.427 Q2244.5 288.427 2242.24 288.01 Q2239.99 287.617 2237.49 286.807 L2237.49 282.409 Q2239.85 283.635 2242.14 284.26 Q2244.44 284.862 2246.68 284.862 Q2249.69 284.862 2251.31 283.844 Q2252.93 282.802 2252.93 280.927 Q2252.93 279.191 2251.75 278.265 Q2250.59 277.339 2246.63 276.483 L2245.15 276.135 Q2241.19 275.302 2239.44 273.589 Q2237.68 271.853 2237.68 268.844 Q2237.68 265.186 2240.27 263.196 Q2242.86 261.205 2247.63 261.205 Q2249.99 261.205 2252.07 261.552 Q2254.16 261.899 2255.92 262.594 Z" fill="#000000" fill-rule="nonzero" fill-opacity="1" /></svg>
