<?xml version="1.0" encoding="utf-8"?>
<svg xmlns="http://www.w3.org/2000/svg" xmlns:xlink="http://www.w3.org/1999/xlink" width="600" height="400" viewBox="0 0 2400 1600">
<defs>
  <clipPath id="clip640">
    <rect x="0" y="0" width="2400" height="1600"/>
  </clipPath>
</defs>
<path clip-path="url(#clip640)" d="M0 1600 L2400 1600 L2400 0 L0 0  Z" fill="#ffffff" fill-rule="evenodd" fill-opacity="1"/>
<defs>
  <clipPath id="clip641">
    <rect x="480" y="0" width="1681" height="1600"/>
  </clipPath>
</defs>
<path clip-path="url(#clip640)" d="M367.967 1423.18 L2352.76 1423.18 L2352.76 123.472 L367.967 123.472  Z" fill="#ffffff" fill-rule="evenodd" fill-opacity="1"/>
<defs>
  <clipPath id="clip642">
    <rect x="367" y="123" width="1986" height="1301"/>
  </clipPath>
</defs>
<polyline clip-path="url(#clip642)" style="stroke:#000000; stroke-linecap:round; stroke-linejoin:round; stroke-width:2; stroke-opacity:0.1; fill:none" points="424.141,1423.18 424.141,123.472 "/>
<polyline clip-path="url(#clip642)" style="stroke:#000000; stroke-linecap:round; stroke-linejoin:round; stroke-width:2; stroke-opacity:0.1; fill:none" points="811.009,1423.18 811.009,123.472 "/>
<polyline clip-path="url(#clip642)" style="stroke:#000000; stroke-linecap:round; stroke-linejoin:round; stroke-width:2; stroke-opacity:0.1; fill:none" points="1197.88,1423.18 1197.88,123.472 "/>
<polyline clip-path="url(#clip642)" style="stroke:#000000; stroke-linecap:round; stroke-linejoin:round; stroke-width:2; stroke-opacity:0.1; fill:none" points="1584.75,1423.18 1584.75,123.472 "/>
<polyline clip-path="url(#clip642)" style="stroke:#000000; stroke-linecap:round; stroke-linejoin:round; stroke-width:2; stroke-opacity:0.1; fill:none" points="1971.61,1423.18 1971.61,123.472 "/>
<polyline clip-path="url(#clip642)" style="stroke:#000000; stroke-linecap:round; stroke-linejoin:round; stroke-width:2; stroke-opacity:0.1; fill:none" points="367.967,1386.4 2352.76,1386.4 "/>
<polyline clip-path="url(#clip642)" style="stroke:#000000; stroke-linecap:round; stroke-linejoin:round; stroke-width:2; stroke-opacity:0.1; fill:none" points="367.967,1060.1 2352.76,1060.1 "/>
<polyline clip-path="url(#clip642)" style="stroke:#000000; stroke-linecap:round; stroke-linejoin:round; stroke-width:2; stroke-opacity:0.1; fill:none" points="367.967,733.812 2352.76,733.812 "/>
<polyline clip-path="url(#clip642)" style="stroke:#000000; stroke-linecap:round; stroke-linejoin:round; stroke-width:2; stroke-opacity:0.1; fill:none" points="367.967,407.52 2352.76,407.52 "/>
<polyline clip-path="url(#clip640)" style="stroke:#000000; stroke-linecap:round; stroke-linejoin:round; stroke-width:4; stroke-opacity:1; fill:none" points="367.967,1423.18 2352.76,1423.18 "/>
<polyline clip-path="url(#clip640)" style="stroke:#000000; stroke-linecap:round; stroke-linejoin:round; stroke-width:4; stroke-opacity:1; fill:none" points="424.141,1423.18 424.141,1404.28 "/>
<polyline clip-path="url(#clip640)" style="stroke:#000000; stroke-linecap:round; stroke-linejoin:round; stroke-width:4; stroke-opacity:1; fill:none" points="811.009,1423.18 811.009,1404.28 "/>
<polyline clip-path="url(#clip640)" style="stroke:#000000; stroke-linecap:round; stroke-linejoin:round; stroke-width:4; stroke-opacity:1; fill:none" points="1197.88,1423.18 1197.88,1404.28 "/>
<polyline clip-path="url(#clip640)" style="stroke:#000000; stroke-linecap:round; stroke-linejoin:round; stroke-width:4; stroke-opacity:1; fill:none" points="1584.75,1423.18 1584.75,1404.28 "/>
<polyline clip-path="url(#clip640)" style="stroke:#000000; stroke-linecap:round; stroke-linejoin:round; stroke-width:4; stroke-opacity:1; fill:none" points="1971.61,1423.18 1971.61,1404.28 "/>
<path clip-path="url(#clip640)" d="M424.141 1454.1 Q420.529 1454.1 418.701 1457.66 Q416.895 1461.2 416.895 1468.33 Q416.895 1475.44 418.701 1479.01 Q420.529 1482.55 424.141 1482.55 Q427.775 1482.55 429.58 1479.01 Q431.409 1475.44 431.409 1468.33 Q431.409 1461.2 429.58 1457.66 Q427.775 1454.1 424.141 1454.1 M424.141 1450.39 Q429.951 1450.39 433.006 1455 Q436.085 1459.58 436.085 1468.33 Q436.085 1477.06 433.006 1481.67 Q429.951 1486.25 424.141 1486.25 Q418.33 1486.25 415.252 1481.67 Q412.196 1477.06 412.196 1468.33 Q412.196 1459.58 415.252 1455 Q418.33 1450.39 424.141 1450.39 Z" fill="#000000" fill-rule="nonzero" fill-opacity="1" /><path clip-path="url(#clip640)" d="M785.708 1451.02 L804.064 1451.02 L804.064 1454.96 L789.99 1454.96 L789.99 1463.43 Q791.009 1463.08 792.027 1462.92 Q793.046 1462.73 794.064 1462.73 Q799.851 1462.73 803.231 1465.9 Q806.611 1469.08 806.611 1474.49 Q806.611 1480.07 803.138 1483.17 Q799.666 1486.25 793.347 1486.25 Q791.171 1486.25 788.902 1485.88 Q786.657 1485.51 784.25 1484.77 L784.25 1480.07 Q786.333 1481.2 788.555 1481.76 Q790.777 1482.32 793.254 1482.32 Q797.259 1482.32 799.597 1480.21 Q801.935 1478.1 801.935 1474.49 Q801.935 1470.88 799.597 1468.77 Q797.259 1466.67 793.254 1466.67 Q791.379 1466.67 789.504 1467.08 Q787.652 1467.5 785.708 1468.38 L785.708 1451.02 Z" fill="#000000" fill-rule="nonzero" fill-opacity="1" /><path clip-path="url(#clip640)" d="M825.824 1454.1 Q822.212 1454.1 820.384 1457.66 Q818.578 1461.2 818.578 1468.33 Q818.578 1475.44 820.384 1479.01 Q822.212 1482.55 825.824 1482.55 Q829.458 1482.55 831.263 1479.01 Q833.092 1475.44 833.092 1468.33 Q833.092 1461.2 831.263 1457.66 Q829.458 1454.1 825.824 1454.1 M825.824 1450.39 Q831.634 1450.39 834.689 1455 Q837.768 1459.58 837.768 1468.33 Q837.768 1477.06 834.689 1481.67 Q831.634 1486.25 825.824 1486.25 Q820.013 1486.25 816.935 1481.67 Q813.879 1477.06 813.879 1468.33 Q813.879 1459.58 816.935 1455 Q820.013 1450.39 825.824 1450.39 Z" fill="#000000" fill-rule="nonzero" fill-opacity="1" /><path clip-path="url(#clip640)" d="M1157.48 1481.64 L1165.12 1481.64 L1165.12 1455.28 L1156.81 1456.95 L1156.81 1452.69 L1165.08 1451.02 L1169.75 1451.02 L1169.75 1481.64 L1177.39 1481.64 L1177.39 1485.58 L1157.48 1485.58 L1157.48 1481.64 Z" fill="#000000" fill-rule="nonzero" fill-opacity="1" /><path clip-path="url(#clip640)" d="M1196.84 1454.1 Q1193.22 1454.1 1191.4 1457.66 Q1189.59 1461.2 1189.59 1468.33 Q1189.59 1475.44 1191.4 1479.01 Q1193.22 1482.55 1196.84 1482.55 Q1200.47 1482.55 1202.28 1479.01 Q1204.1 1475.44 1204.1 1468.33 Q1204.1 1461.2 1202.28 1457.66 Q1200.47 1454.1 1196.84 1454.1 M1196.84 1450.39 Q1202.65 1450.39 1205.7 1455 Q1208.78 1459.58 1208.78 1468.33 Q1208.78 1477.06 1205.7 1481.67 Q1202.65 1486.25 1196.84 1486.25 Q1191.03 1486.25 1187.95 1481.67 Q1184.89 1477.06 1184.89 1468.33 Q1184.89 1459.58 1187.95 1455 Q1191.03 1450.39 1196.84 1450.39 Z" fill="#000000" fill-rule="nonzero" fill-opacity="1" /><path clip-path="url(#clip640)" d="M1227 1454.1 Q1223.39 1454.1 1221.56 1457.66 Q1219.75 1461.2 1219.75 1468.33 Q1219.75 1475.44 1221.56 1479.01 Q1223.39 1482.55 1227 1482.55 Q1230.63 1482.55 1232.44 1479.01 Q1234.27 1475.44 1234.27 1468.33 Q1234.27 1461.2 1232.44 1457.66 Q1230.63 1454.1 1227 1454.1 M1227 1450.39 Q1232.81 1450.39 1235.86 1455 Q1238.94 1459.58 1238.94 1468.33 Q1238.94 1477.06 1235.86 1481.67 Q1232.81 1486.25 1227 1486.25 Q1221.19 1486.25 1218.11 1481.67 Q1215.05 1477.06 1215.05 1468.33 Q1215.05 1459.58 1218.11 1455 Q1221.19 1450.39 1227 1450.39 Z" fill="#000000" fill-rule="nonzero" fill-opacity="1" /><path clip-path="url(#clip640)" d="M1544.35 1481.64 L1551.99 1481.64 L1551.99 1455.28 L1543.68 1456.95 L1543.68 1452.69 L1551.94 1451.02 L1556.62 1451.02 L1556.62 1481.64 L1564.26 1481.64 L1564.26 1485.58 L1544.35 1485.58 L1544.35 1481.64 Z" fill="#000000" fill-rule="nonzero" fill-opacity="1" /><path clip-path="url(#clip640)" d="M1573.75 1451.02 L1592.11 1451.02 L1592.11 1454.96 L1578.03 1454.96 L1578.03 1463.43 Q1579.05 1463.08 1580.07 1462.92 Q1581.09 1462.73 1582.11 1462.73 Q1587.89 1462.73 1591.27 1465.9 Q1594.65 1469.08 1594.65 1474.49 Q1594.65 1480.07 1591.18 1483.17 Q1587.71 1486.25 1581.39 1486.25 Q1579.21 1486.25 1576.94 1485.88 Q1574.7 1485.51 1572.29 1484.77 L1572.29 1480.07 Q1574.37 1481.2 1576.6 1481.76 Q1578.82 1482.32 1581.3 1482.32 Q1585.3 1482.32 1587.64 1480.21 Q1589.98 1478.1 1589.98 1474.49 Q1589.98 1470.88 1587.64 1468.77 Q1585.3 1466.67 1581.3 1466.67 Q1579.42 1466.67 1577.55 1467.08 Q1575.69 1467.5 1573.75 1468.38 L1573.75 1451.02 Z" fill="#000000" fill-rule="nonzero" fill-opacity="1" /><path clip-path="url(#clip640)" d="M1613.87 1454.1 Q1610.25 1454.1 1608.43 1457.66 Q1606.62 1461.2 1606.62 1468.33 Q1606.62 1475.44 1608.43 1479.01 Q1610.25 1482.55 1613.87 1482.55 Q1617.5 1482.55 1619.31 1479.01 Q1621.13 1475.44 1621.13 1468.33 Q1621.13 1461.2 1619.31 1457.66 Q1617.5 1454.1 1613.87 1454.1 M1613.87 1450.39 Q1619.68 1450.39 1622.73 1455 Q1625.81 1459.58 1625.81 1468.33 Q1625.81 1477.06 1622.73 1481.67 Q1619.68 1486.25 1613.87 1486.25 Q1608.06 1486.25 1604.98 1481.67 Q1601.92 1477.06 1601.92 1468.33 Q1601.92 1459.58 1604.98 1455 Q1608.06 1450.39 1613.87 1450.39 Z" fill="#000000" fill-rule="nonzero" fill-opacity="1" /><path clip-path="url(#clip640)" d="M1935.31 1481.64 L1951.63 1481.64 L1951.63 1485.58 L1929.68 1485.58 L1929.68 1481.64 Q1932.34 1478.89 1936.93 1474.26 Q1941.53 1469.61 1942.71 1468.27 Q1944.96 1465.74 1945.84 1464.01 Q1946.74 1462.25 1946.74 1460.56 Q1946.74 1457.8 1944.8 1456.07 Q1942.88 1454.33 1939.77 1454.33 Q1937.57 1454.33 1935.12 1455.09 Q1932.69 1455.86 1929.91 1457.41 L1929.91 1452.69 Q1932.74 1451.55 1935.19 1450.97 Q1937.64 1450.39 1939.68 1450.39 Q1945.05 1450.39 1948.25 1453.08 Q1951.44 1455.77 1951.44 1460.26 Q1951.44 1462.39 1950.63 1464.31 Q1949.84 1466.2 1947.74 1468.8 Q1947.16 1469.47 1944.06 1472.69 Q1940.95 1475.88 1935.31 1481.64 Z" fill="#000000" fill-rule="nonzero" fill-opacity="1" /><path clip-path="url(#clip640)" d="M1971.44 1454.1 Q1967.83 1454.1 1966 1457.66 Q1964.19 1461.2 1964.19 1468.33 Q1964.19 1475.44 1966 1479.01 Q1967.83 1482.55 1971.44 1482.55 Q1975.07 1482.55 1976.88 1479.01 Q1978.71 1475.44 1978.71 1468.33 Q1978.71 1461.2 1976.88 1457.66 Q1975.07 1454.1 1971.44 1454.1 M1971.44 1450.39 Q1977.25 1450.39 1980.31 1455 Q1983.38 1459.58 1983.38 1468.33 Q1983.38 1477.06 1980.31 1481.67 Q1977.25 1486.25 1971.44 1486.25 Q1965.63 1486.25 1962.55 1481.67 Q1959.5 1477.06 1959.5 1468.33 Q1959.5 1459.58 1962.55 1455 Q1965.63 1450.39 1971.44 1450.39 Z" fill="#000000" fill-rule="nonzero" fill-opacity="1" /><path clip-path="url(#clip640)" d="M2001.6 1454.1 Q1997.99 1454.1 1996.16 1457.66 Q1994.36 1461.2 1994.36 1468.33 Q1994.36 1475.44 1996.16 1479.01 Q1997.99 1482.55 2001.6 1482.55 Q2005.24 1482.55 2007.04 1479.01 Q2008.87 1475.44 2008.87 1468.33 Q2008.87 1461.2 2007.04 1457.66 Q2005.24 1454.1 2001.6 1454.1 M2001.6 1450.39 Q2007.41 1450.39 2010.47 1455 Q2013.55 1459.58 2013.55 1468.33 Q2013.55 1477.06 2010.47 1481.67 Q2007.41 1486.25 2001.6 1486.25 Q1995.79 1486.25 1992.71 1481.67 Q1989.66 1477.06 1989.66 1468.33 Q1989.66 1459.58 1992.71 1455 Q1995.79 1450.39 2001.6 1450.39 Z" fill="#000000" fill-rule="nonzero" fill-opacity="1" /><path clip-path="url(#clip640)" d="M862.436 1524.18 L862.436 1530.96 Q859.19 1527.94 855.497 1526.44 Q851.837 1524.95 847.699 1524.95 Q839.551 1524.95 835.223 1529.95 Q830.894 1534.91 830.894 1544.33 Q830.894 1553.72 835.223 1558.72 Q839.551 1563.68 847.699 1563.68 Q851.837 1563.68 855.497 1562.19 Q859.19 1560.69 862.436 1557.67 L862.436 1564.38 Q859.062 1566.68 855.275 1567.82 Q851.519 1568.97 847.317 1568.97 Q836.528 1568.97 830.321 1562.38 Q824.114 1555.76 824.114 1544.33 Q824.114 1532.87 830.321 1526.28 Q836.528 1519.66 847.317 1519.66 Q851.583 1519.66 855.338 1520.81 Q859.126 1521.92 862.436 1524.18 Z" fill="#000000" fill-rule="nonzero" fill-opacity="1" /><path clip-path="url(#clip640)" d="M888.313 1550.12 Q881.215 1550.12 878.478 1551.75 Q875.74 1553.37 875.74 1557.29 Q875.74 1560.4 877.777 1562.25 Q879.846 1564.07 883.379 1564.07 Q888.249 1564.07 891.177 1560.63 Q894.137 1557.16 894.137 1551.43 L894.137 1550.12 L888.313 1550.12 M899.994 1547.71 L899.994 1568.04 L894.137 1568.04 L894.137 1562.63 Q892.132 1565.88 889.14 1567.44 Q886.148 1568.97 881.82 1568.97 Q876.345 1568.97 873.099 1565.91 Q869.884 1562.82 869.884 1557.67 Q869.884 1551.65 873.894 1548.6 Q877.937 1545.54 885.925 1545.54 L894.137 1545.54 L894.137 1544.97 Q894.137 1540.93 891.464 1538.73 Q888.822 1536.5 884.016 1536.5 Q880.96 1536.5 878.064 1537.23 Q875.167 1537.97 872.494 1539.43 L872.494 1534.02 Q875.709 1532.78 878.732 1532.17 Q881.756 1531.54 884.621 1531.54 Q892.355 1531.54 896.174 1535.55 Q899.994 1539.56 899.994 1547.71 Z" fill="#000000" fill-rule="nonzero" fill-opacity="1" /><path clip-path="url(#clip640)" d="M912.057 1518.52 L917.913 1518.52 L917.913 1568.04 L912.057 1568.04 L912.057 1518.52 Z" fill="#000000" fill-rule="nonzero" fill-opacity="1" /><path clip-path="url(#clip640)" d="M955.821 1533.76 L955.821 1539.24 Q953.338 1537.87 950.824 1537.2 Q948.341 1536.5 945.795 1536.5 Q940.098 1536.5 936.947 1540.13 Q933.796 1543.73 933.796 1550.25 Q933.796 1556.78 936.947 1560.4 Q940.098 1564 945.795 1564 Q948.341 1564 950.824 1563.33 Q953.338 1562.63 955.821 1561.26 L955.821 1566.68 Q953.37 1567.82 950.728 1568.39 Q948.118 1568.97 945.158 1568.97 Q937.106 1568.97 932.363 1563.91 Q927.621 1558.85 927.621 1550.25 Q927.621 1541.53 932.395 1536.53 Q937.201 1531.54 945.54 1531.54 Q948.246 1531.54 950.824 1532.11 Q953.402 1532.65 955.821 1533.76 Z" fill="#000000" fill-rule="nonzero" fill-opacity="1" /><path clip-path="url(#clip640)" d="M965.401 1553.98 L965.401 1532.4 L971.258 1532.4 L971.258 1553.75 Q971.258 1558.81 973.231 1561.36 Q975.205 1563.87 979.151 1563.87 Q983.894 1563.87 986.631 1560.85 Q989.4 1557.83 989.4 1552.61 L989.4 1532.4 L995.257 1532.4 L995.257 1568.04 L989.4 1568.04 L989.4 1562.57 Q987.268 1565.82 984.435 1567.41 Q981.634 1568.97 977.91 1568.97 Q971.767 1568.97 968.584 1565.15 Q965.401 1561.33 965.401 1553.98 M980.138 1531.54 L980.138 1531.54 Z" fill="#000000" fill-rule="nonzero" fill-opacity="1" /><path clip-path="url(#clip640)" d="M1007.32 1518.52 L1013.18 1518.52 L1013.18 1568.04 L1007.32 1568.04 L1007.32 1518.52 Z" fill="#000000" fill-rule="nonzero" fill-opacity="1" /><path clip-path="url(#clip640)" d="M1041.63 1550.12 Q1034.53 1550.12 1031.8 1551.75 Q1029.06 1553.37 1029.06 1557.29 Q1029.06 1560.4 1031.1 1562.25 Q1033.16 1564.07 1036.7 1564.07 Q1041.57 1564.07 1044.5 1560.63 Q1047.46 1557.16 1047.46 1551.43 L1047.46 1550.12 L1041.63 1550.12 M1053.31 1547.71 L1053.31 1568.04 L1047.46 1568.04 L1047.46 1562.63 Q1045.45 1565.88 1042.46 1567.44 Q1039.47 1568.97 1035.14 1568.97 Q1029.66 1568.97 1026.42 1565.91 Q1023.2 1562.82 1023.2 1557.67 Q1023.2 1551.65 1027.21 1548.6 Q1031.25 1545.54 1039.24 1545.54 L1047.46 1545.54 L1047.46 1544.97 Q1047.46 1540.93 1044.78 1538.73 Q1042.14 1536.5 1037.33 1536.5 Q1034.28 1536.5 1031.38 1537.23 Q1028.49 1537.97 1025.81 1539.43 L1025.81 1534.02 Q1029.03 1532.78 1032.05 1532.17 Q1035.07 1531.54 1037.94 1531.54 Q1045.67 1531.54 1049.49 1535.55 Q1053.31 1539.56 1053.31 1547.71 Z" fill="#000000" fill-rule="nonzero" fill-opacity="1" /><path clip-path="url(#clip640)" d="M1071.17 1522.27 L1071.17 1532.4 L1083.23 1532.4 L1083.23 1536.95 L1071.17 1536.95 L1071.17 1556.3 Q1071.17 1560.66 1072.35 1561.9 Q1073.55 1563.14 1077.21 1563.14 L1083.23 1563.14 L1083.23 1568.04 L1077.21 1568.04 Q1070.44 1568.04 1067.86 1565.53 Q1065.28 1562.98 1065.28 1556.3 L1065.28 1536.95 L1060.98 1536.95 L1060.98 1532.4 L1065.28 1532.4 L1065.28 1522.27 L1071.17 1522.27 Z" fill="#000000" fill-rule="nonzero" fill-opacity="1" /><path clip-path="url(#clip640)" d="M1121.42 1548.76 L1121.42 1551.62 L1094.5 1551.62 Q1094.88 1557.67 1098.13 1560.85 Q1101.4 1564 1107.23 1564 Q1110.6 1564 1113.75 1563.17 Q1116.94 1562.35 1120.06 1560.69 L1120.06 1566.23 Q1116.91 1567.57 1113.59 1568.27 Q1110.28 1568.97 1106.88 1568.97 Q1098.35 1568.97 1093.35 1564 Q1088.39 1559.04 1088.39 1550.57 Q1088.39 1541.82 1093.1 1536.69 Q1097.84 1531.54 1105.86 1531.54 Q1113.05 1531.54 1117.22 1536.18 Q1121.42 1540.8 1121.42 1548.76 M1115.57 1547.04 Q1115.5 1542.23 1112.86 1539.37 Q1110.25 1536.5 1105.92 1536.5 Q1101.02 1536.5 1098.06 1539.27 Q1095.13 1542.04 1094.69 1547.07 L1115.57 1547.04 Z" fill="#000000" fill-rule="nonzero" fill-opacity="1" /><path clip-path="url(#clip640)" d="M1154.49 1537.81 L1154.49 1518.52 L1160.35 1518.52 L1160.35 1568.04 L1154.49 1568.04 L1154.49 1562.7 Q1152.65 1565.88 1149.82 1567.44 Q1147.01 1568.97 1143.07 1568.97 Q1136.61 1568.97 1132.53 1563.81 Q1128.49 1558.65 1128.49 1550.25 Q1128.49 1541.85 1132.53 1536.69 Q1136.61 1531.54 1143.07 1531.54 Q1147.01 1531.54 1149.82 1533.1 Q1152.65 1534.62 1154.49 1537.81 M1134.54 1550.25 Q1134.54 1556.71 1137.18 1560.4 Q1139.85 1564.07 1144.5 1564.07 Q1149.15 1564.07 1151.82 1560.4 Q1154.49 1556.71 1154.49 1550.25 Q1154.49 1543.79 1151.82 1540.13 Q1149.15 1536.44 1144.5 1536.44 Q1139.85 1536.44 1137.18 1540.13 Q1134.54 1543.79 1134.54 1550.25 Z" fill="#000000" fill-rule="nonzero" fill-opacity="1" /><path clip-path="url(#clip640)" d="M1222.77 1546.53 L1222.77 1568.04 L1216.91 1568.04 L1216.91 1546.72 Q1216.91 1541.66 1214.94 1539.14 Q1212.96 1536.63 1209.02 1536.63 Q1204.27 1536.63 1201.54 1539.65 Q1198.8 1542.68 1198.8 1547.9 L1198.8 1568.04 L1192.91 1568.04 L1192.91 1532.4 L1198.8 1532.4 L1198.8 1537.93 Q1200.9 1534.72 1203.73 1533.13 Q1206.6 1531.54 1210.32 1531.54 Q1216.46 1531.54 1219.62 1535.36 Q1222.77 1539.14 1222.77 1546.53 Z" fill="#000000" fill-rule="nonzero" fill-opacity="1" /><path clip-path="url(#clip640)" d="M1264.94 1548.76 L1264.94 1551.62 L1238.01 1551.62 Q1238.39 1557.67 1241.64 1560.85 Q1244.92 1564 1250.74 1564 Q1254.12 1564 1257.27 1563.17 Q1260.45 1562.35 1263.57 1560.69 L1263.57 1566.23 Q1260.42 1567.57 1257.11 1568.27 Q1253.8 1568.97 1250.39 1568.97 Q1241.86 1568.97 1236.87 1564 Q1231.9 1559.04 1231.9 1550.57 Q1231.9 1541.82 1236.61 1536.69 Q1241.35 1531.54 1249.38 1531.54 Q1256.57 1531.54 1260.74 1536.18 Q1264.94 1540.8 1264.94 1548.76 M1259.08 1547.04 Q1259.02 1542.23 1256.38 1539.37 Q1253.77 1536.5 1249.44 1536.5 Q1244.54 1536.5 1241.58 1539.27 Q1238.65 1542.04 1238.2 1547.07 L1259.08 1547.04 Z" fill="#000000" fill-rule="nonzero" fill-opacity="1" /><path clip-path="url(#clip640)" d="M1273.95 1553.98 L1273.95 1532.4 L1279.8 1532.4 L1279.8 1553.75 Q1279.8 1558.81 1281.78 1561.36 Q1283.75 1563.87 1287.7 1563.87 Q1292.44 1563.87 1295.18 1560.85 Q1297.95 1557.83 1297.95 1552.61 L1297.95 1532.4 L1303.8 1532.4 L1303.8 1568.04 L1297.95 1568.04 L1297.95 1562.57 Q1295.81 1565.82 1292.98 1567.41 Q1290.18 1568.97 1286.46 1568.97 Q1280.31 1568.97 1277.13 1565.15 Q1273.95 1561.33 1273.95 1553.98 M1288.68 1531.54 L1288.68 1531.54 Z" fill="#000000" fill-rule="nonzero" fill-opacity="1" /><path clip-path="url(#clip640)" d="M1321.66 1522.27 L1321.66 1532.4 L1333.72 1532.4 L1333.72 1536.95 L1321.66 1536.95 L1321.66 1556.3 Q1321.66 1560.66 1322.84 1561.9 Q1324.05 1563.14 1327.71 1563.14 L1333.72 1563.14 L1333.72 1568.04 L1327.71 1568.04 Q1320.93 1568.04 1318.35 1565.53 Q1315.77 1562.98 1315.77 1556.3 L1315.77 1536.95 L1311.47 1536.95 L1311.47 1532.4 L1315.77 1532.4 L1315.77 1522.27 L1321.66 1522.27 Z" fill="#000000" fill-rule="nonzero" fill-opacity="1" /><path clip-path="url(#clip640)" d="M1362.08 1537.87 Q1361.09 1537.3 1359.92 1537.04 Q1358.77 1536.76 1357.37 1536.76 Q1352.4 1536.76 1349.73 1540 Q1347.09 1543.22 1347.09 1549.27 L1347.09 1568.04 L1341.2 1568.04 L1341.2 1532.4 L1347.09 1532.4 L1347.09 1537.93 Q1348.94 1534.69 1351.9 1533.13 Q1354.86 1531.54 1359.09 1531.54 Q1359.69 1531.54 1360.43 1531.63 Q1361.16 1531.7 1362.05 1531.85 L1362.08 1537.87 Z" fill="#000000" fill-rule="nonzero" fill-opacity="1" /><path clip-path="url(#clip640)" d="M1380.6 1536.5 Q1375.89 1536.5 1373.16 1540.19 Q1370.42 1543.85 1370.42 1550.25 Q1370.42 1556.65 1373.12 1560.34 Q1375.86 1564 1380.6 1564 Q1385.28 1564 1388.02 1560.31 Q1390.76 1556.62 1390.76 1550.25 Q1390.76 1543.92 1388.02 1540.23 Q1385.28 1536.5 1380.6 1536.5 M1380.6 1531.54 Q1388.24 1531.54 1392.6 1536.5 Q1396.96 1541.47 1396.96 1550.25 Q1396.96 1559 1392.6 1564 Q1388.24 1568.97 1380.6 1568.97 Q1372.93 1568.97 1368.57 1564 Q1364.24 1559 1364.24 1550.25 Q1364.24 1541.47 1368.57 1536.5 Q1372.93 1531.54 1380.6 1531.54 Z" fill="#000000" fill-rule="nonzero" fill-opacity="1" /><path clip-path="url(#clip640)" d="M1436.3 1546.53 L1436.3 1568.04 L1430.45 1568.04 L1430.45 1546.72 Q1430.45 1541.66 1428.47 1539.14 Q1426.5 1536.63 1422.55 1536.63 Q1417.81 1536.63 1415.07 1539.65 Q1412.34 1542.68 1412.34 1547.9 L1412.34 1568.04 L1406.45 1568.04 L1406.45 1532.4 L1412.34 1532.4 L1412.34 1537.93 Q1414.44 1534.72 1417.27 1533.13 Q1420.14 1531.54 1423.86 1531.54 Q1430 1531.54 1433.15 1535.36 Q1436.3 1539.14 1436.3 1546.53 Z" fill="#000000" fill-rule="nonzero" fill-opacity="1" /><path clip-path="url(#clip640)" d="M1499.2 1548.76 L1499.2 1551.62 L1472.27 1551.62 Q1472.65 1557.67 1475.9 1560.85 Q1479.18 1564 1485 1564 Q1488.38 1564 1491.53 1563.17 Q1494.71 1562.35 1497.83 1560.69 L1497.83 1566.23 Q1494.68 1567.57 1491.37 1568.27 Q1488.06 1568.97 1484.65 1568.97 Q1476.12 1568.97 1471.12 1564 Q1466.16 1559.04 1466.16 1550.57 Q1466.16 1541.82 1470.87 1536.69 Q1475.61 1531.54 1483.63 1531.54 Q1490.83 1531.54 1495 1536.18 Q1499.2 1540.8 1499.2 1548.76 M1493.34 1547.04 Q1493.28 1542.23 1490.64 1539.37 Q1488.03 1536.5 1483.7 1536.5 Q1478.8 1536.5 1475.84 1539.27 Q1472.91 1542.04 1472.46 1547.07 L1493.34 1547.04 Z" fill="#000000" fill-rule="nonzero" fill-opacity="1" /><path clip-path="url(#clip640)" d="M1538.44 1546.53 L1538.44 1568.04 L1532.59 1568.04 L1532.59 1546.72 Q1532.59 1541.66 1530.61 1539.14 Q1528.64 1536.63 1524.69 1536.63 Q1519.95 1536.63 1517.21 1539.65 Q1514.48 1542.68 1514.48 1547.9 L1514.48 1568.04 L1508.59 1568.04 L1508.59 1532.4 L1514.48 1532.4 L1514.48 1537.93 Q1516.58 1534.72 1519.41 1533.13 Q1522.27 1531.54 1526 1531.54 Q1532.14 1531.54 1535.29 1535.36 Q1538.44 1539.14 1538.44 1546.53 Z" fill="#000000" fill-rule="nonzero" fill-opacity="1" /><path clip-path="url(#clip640)" d="M1580.62 1548.76 L1580.62 1551.62 L1553.69 1551.62 Q1554.07 1557.67 1557.32 1560.85 Q1560.59 1564 1566.42 1564 Q1569.79 1564 1572.94 1563.17 Q1576.13 1562.35 1579.25 1560.69 L1579.25 1566.23 Q1576.1 1567.57 1572.79 1568.27 Q1569.48 1568.97 1566.07 1568.97 Q1557.54 1568.97 1552.54 1564 Q1547.58 1559.04 1547.58 1550.57 Q1547.58 1541.82 1552.29 1536.69 Q1557.03 1531.54 1565.05 1531.54 Q1572.24 1531.54 1576.41 1536.18 Q1580.62 1540.8 1580.62 1548.76 M1574.76 1547.04 Q1574.69 1542.23 1572.05 1539.37 Q1569.44 1536.5 1565.11 1536.5 Q1560.21 1536.5 1557.25 1539.27 Q1554.32 1542.04 1553.88 1547.07 L1574.76 1547.04 Z" fill="#000000" fill-rule="nonzero" fill-opacity="1" /><path clip-path="url(#clip640)" d="M1610.88 1537.87 Q1609.9 1537.3 1608.72 1537.04 Q1607.57 1536.76 1606.17 1536.76 Q1601.21 1536.76 1598.53 1540 Q1595.89 1543.22 1595.89 1549.27 L1595.89 1568.04 L1590 1568.04 L1590 1532.4 L1595.89 1532.4 L1595.89 1537.93 Q1597.74 1534.69 1600.7 1533.13 Q1603.66 1531.54 1607.89 1531.54 Q1608.5 1531.54 1609.23 1531.63 Q1609.96 1531.7 1610.85 1531.85 L1610.88 1537.87 Z" fill="#000000" fill-rule="nonzero" fill-opacity="1" /><path clip-path="url(#clip640)" d="M1639.34 1549.81 Q1639.34 1543.44 1636.7 1539.94 Q1634.09 1536.44 1629.34 1536.44 Q1624.63 1536.44 1621.99 1539.94 Q1619.38 1543.44 1619.38 1549.81 Q1619.38 1556.14 1621.99 1559.64 Q1624.63 1563.14 1629.34 1563.14 Q1634.09 1563.14 1636.7 1559.64 Q1639.34 1556.14 1639.34 1549.81 M1645.2 1563.62 Q1645.2 1572.72 1641.15 1577.15 Q1637.11 1581.6 1628.77 1581.6 Q1625.68 1581.6 1622.95 1581.13 Q1620.21 1580.68 1617.63 1579.72 L1617.63 1574.03 Q1620.21 1575.43 1622.72 1576.1 Q1625.24 1576.76 1627.85 1576.76 Q1633.61 1576.76 1636.47 1573.74 Q1639.34 1570.75 1639.34 1564.67 L1639.34 1561.77 Q1637.52 1564.92 1634.69 1566.48 Q1631.86 1568.04 1627.91 1568.04 Q1621.36 1568.04 1617.35 1563.05 Q1613.33 1558.05 1613.33 1549.81 Q1613.33 1541.53 1617.35 1536.53 Q1621.36 1531.54 1627.91 1531.54 Q1631.86 1531.54 1634.69 1533.1 Q1637.52 1534.66 1639.34 1537.81 L1639.34 1532.4 L1645.2 1532.4 L1645.2 1563.62 Z" fill="#000000" fill-rule="nonzero" fill-opacity="1" /><path clip-path="url(#clip640)" d="M1672.09 1571.35 Q1669.61 1577.72 1667.25 1579.66 Q1664.9 1581.6 1660.95 1581.6 L1656.27 1581.6 L1656.27 1576.7 L1659.71 1576.7 Q1662.13 1576.7 1663.46 1575.56 Q1664.8 1574.41 1666.42 1570.14 L1667.48 1567.47 L1653.06 1532.4 L1659.26 1532.4 L1670.4 1560.28 L1681.54 1532.4 L1687.75 1532.4 L1672.09 1571.35 Z" fill="#000000" fill-rule="nonzero" fill-opacity="1" /><path clip-path="url(#clip640)" d="M1730.62 1518.58 Q1726.36 1525.9 1724.29 1533.06 Q1722.22 1540.23 1722.22 1547.58 Q1722.22 1554.93 1724.29 1562.16 Q1726.39 1569.35 1730.62 1576.64 L1725.53 1576.64 Q1720.76 1569.16 1718.37 1561.93 Q1716.01 1554.71 1716.01 1547.58 Q1716.01 1540.48 1718.37 1533.29 Q1720.72 1526.09 1725.53 1518.58 L1730.62 1518.58 Z" fill="#000000" fill-rule="nonzero" fill-opacity="1" /><path clip-path="url(#clip640)" d="M1742.24 1520.52 L1751.82 1520.52 L1763.95 1552.86 L1776.14 1520.52 L1785.72 1520.52 L1785.72 1568.04 L1779.45 1568.04 L1779.45 1526.32 L1767.19 1558.91 L1760.73 1558.91 L1748.48 1526.32 L1748.48 1568.04 L1742.24 1568.04 L1742.24 1520.52 Z" fill="#000000" fill-rule="nonzero" fill-opacity="1" /><path clip-path="url(#clip640)" d="M1828.72 1548.76 L1828.72 1551.62 L1801.79 1551.62 Q1802.17 1557.67 1805.42 1560.85 Q1808.7 1564 1814.52 1564 Q1817.9 1564 1821.05 1563.17 Q1824.23 1562.35 1827.35 1560.69 L1827.35 1566.23 Q1824.2 1567.57 1820.89 1568.27 Q1817.58 1568.97 1814.17 1568.97 Q1805.64 1568.97 1800.65 1564 Q1795.68 1559.04 1795.68 1550.57 Q1795.68 1541.82 1800.39 1536.69 Q1805.13 1531.54 1813.15 1531.54 Q1820.35 1531.54 1824.52 1536.18 Q1828.72 1540.8 1828.72 1548.76 M1822.86 1547.04 Q1822.8 1542.23 1820.16 1539.37 Q1817.55 1536.5 1813.22 1536.5 Q1808.32 1536.5 1805.36 1539.27 Q1802.43 1542.04 1801.98 1547.07 L1822.86 1547.04 Z" fill="#000000" fill-rule="nonzero" fill-opacity="1" /><path clip-path="url(#clip640)" d="M1850.84 1568.04 L1832.7 1520.52 L1839.41 1520.52 L1854.47 1560.53 L1869.55 1520.52 L1876.24 1520.52 L1858.13 1568.04 L1850.84 1568.04 Z" fill="#000000" fill-rule="nonzero" fill-opacity="1" /><path clip-path="url(#clip640)" d="M1882 1518.58 L1887.09 1518.58 Q1891.87 1526.09 1894.22 1533.29 Q1896.61 1540.48 1896.61 1547.58 Q1896.61 1554.71 1894.22 1561.93 Q1891.87 1569.16 1887.09 1576.64 L1882 1576.64 Q1886.23 1569.35 1888.3 1562.16 Q1890.4 1554.93 1890.4 1547.58 Q1890.4 1540.23 1888.3 1533.06 Q1886.23 1525.9 1882 1518.58 Z" fill="#000000" fill-rule="nonzero" fill-opacity="1" /><polyline clip-path="url(#clip640)" style="stroke:#000000; stroke-linecap:round; stroke-linejoin:round; stroke-width:4; stroke-opacity:1; fill:none" points="367.967,1423.18 367.967,123.472 "/>
<polyline clip-path="url(#clip640)" style="stroke:#000000; stroke-linecap:round; stroke-linejoin:round; stroke-width:4; stroke-opacity:1; fill:none" points="367.967,1386.4 386.865,1386.4 "/>
<polyline clip-path="url(#clip640)" style="stroke:#000000; stroke-linecap:round; stroke-linejoin:round; stroke-width:4; stroke-opacity:1; fill:none" points="367.967,1060.1 386.865,1060.1 "/>
<polyline clip-path="url(#clip640)" style="stroke:#000000; stroke-linecap:round; stroke-linejoin:round; stroke-width:4; stroke-opacity:1; fill:none" points="367.967,733.812 386.865,733.812 "/>
<polyline clip-path="url(#clip640)" style="stroke:#000000; stroke-linecap:round; stroke-linejoin:round; stroke-width:4; stroke-opacity:1; fill:none" points="367.967,407.52 386.865,407.52 "/>
<path clip-path="url(#clip640)" d="M320.023 1372.19 Q316.412 1372.19 314.583 1375.76 Q312.778 1379.3 312.778 1386.43 Q312.778 1393.54 314.583 1397.1 Q316.412 1400.64 320.023 1400.64 Q323.657 1400.64 325.463 1397.1 Q327.291 1393.54 327.291 1386.43 Q327.291 1379.3 325.463 1375.76 Q323.657 1372.19 320.023 1372.19 M320.023 1368.49 Q325.833 1368.49 328.889 1373.1 Q331.967 1377.68 331.967 1386.43 Q331.967 1395.16 328.889 1399.76 Q325.833 1404.35 320.023 1404.35 Q314.213 1404.35 311.134 1399.76 Q308.079 1395.16 308.079 1386.43 Q308.079 1377.68 311.134 1373.1 Q314.213 1368.49 320.023 1368.49 Z" fill="#000000" fill-rule="nonzero" fill-opacity="1" /><path clip-path="url(#clip640)" d="M116.142 1049.27 L134.499 1049.27 L134.499 1053.21 L120.425 1053.21 L120.425 1061.68 Q121.443 1061.33 122.462 1061.17 Q123.48 1060.98 124.499 1060.98 Q130.286 1060.98 133.665 1064.16 Q137.045 1067.33 137.045 1072.74 Q137.045 1078.32 133.573 1081.42 Q130.101 1084.5 123.781 1084.5 Q121.605 1084.5 119.337 1084.13 Q117.091 1083.76 114.684 1083.02 L114.684 1078.32 Q116.767 1079.46 118.99 1080.01 Q121.212 1080.57 123.689 1080.57 Q127.693 1080.57 130.031 1078.46 Q132.369 1076.35 132.369 1072.74 Q132.369 1069.13 130.031 1067.03 Q127.693 1064.92 123.689 1064.92 Q121.814 1064.92 119.939 1065.34 Q118.087 1065.75 116.142 1066.63 L116.142 1049.27 Z" fill="#000000" fill-rule="nonzero" fill-opacity="1" /><path clip-path="url(#clip640)" d="M146.258 1077.95 L151.142 1077.95 L151.142 1083.83 L146.258 1083.83 L146.258 1077.95 Z" fill="#000000" fill-rule="nonzero" fill-opacity="1" /><path clip-path="url(#clip640)" d="M171.327 1052.35 Q167.716 1052.35 165.887 1055.91 Q164.082 1059.46 164.082 1066.59 Q164.082 1073.69 165.887 1077.26 Q167.716 1080.8 171.327 1080.8 Q174.962 1080.8 176.767 1077.26 Q178.596 1073.69 178.596 1066.59 Q178.596 1059.46 176.767 1055.91 Q174.962 1052.35 171.327 1052.35 M171.327 1048.65 Q177.137 1048.65 180.193 1053.25 Q183.272 1057.84 183.272 1066.59 Q183.272 1075.31 180.193 1079.92 Q177.137 1084.5 171.327 1084.5 Q165.517 1084.5 162.438 1079.92 Q159.383 1075.31 159.383 1066.59 Q159.383 1057.84 162.438 1053.25 Q165.517 1048.65 171.327 1048.65 Z" fill="#000000" fill-rule="nonzero" fill-opacity="1" /><path clip-path="url(#clip640)" d="M201.489 1052.35 Q197.878 1052.35 196.049 1055.91 Q194.244 1059.46 194.244 1066.59 Q194.244 1073.69 196.049 1077.26 Q197.878 1080.8 201.489 1080.8 Q205.123 1080.8 206.929 1077.26 Q208.758 1073.69 208.758 1066.59 Q208.758 1059.46 206.929 1055.91 Q205.123 1052.35 201.489 1052.35 M201.489 1048.65 Q207.299 1048.65 210.355 1053.25 Q213.434 1057.84 213.434 1066.59 Q213.434 1075.31 210.355 1079.92 Q207.299 1084.5 201.489 1084.5 Q195.679 1084.5 192.6 1079.92 Q189.545 1075.31 189.545 1066.59 Q189.545 1057.84 192.6 1053.25 Q195.679 1048.65 201.489 1048.65 Z" fill="#000000" fill-rule="nonzero" fill-opacity="1" /><path clip-path="url(#clip640)" d="M249.822 1058.37 L239.244 1068.99 L249.822 1079.57 L247.068 1082.37 L236.443 1071.75 L225.818 1082.37 L223.086 1079.57 L233.642 1068.99 L223.086 1058.37 L225.818 1055.57 L236.443 1066.19 L247.068 1055.57 L249.822 1058.37 Z" fill="#000000" fill-rule="nonzero" fill-opacity="1" /><path clip-path="url(#clip640)" d="M262.183 1079.9 L269.822 1079.9 L269.822 1053.53 L261.512 1055.2 L261.512 1050.94 L269.776 1049.27 L274.452 1049.27 L274.452 1079.9 L282.091 1079.9 L282.091 1083.83 L262.183 1083.83 L262.183 1079.9 Z" fill="#000000" fill-rule="nonzero" fill-opacity="1" /><path clip-path="url(#clip640)" d="M301.535 1052.35 Q297.924 1052.35 296.095 1055.91 Q294.29 1059.46 294.29 1066.59 Q294.29 1073.69 296.095 1077.26 Q297.924 1080.8 301.535 1080.8 Q305.169 1080.8 306.975 1077.26 Q308.803 1073.69 308.803 1066.59 Q308.803 1059.46 306.975 1055.91 Q305.169 1052.35 301.535 1052.35 M301.535 1048.65 Q307.345 1048.65 310.401 1053.25 Q313.479 1057.84 313.479 1066.59 Q313.479 1075.31 310.401 1079.92 Q307.345 1084.5 301.535 1084.5 Q295.725 1084.5 292.646 1079.92 Q289.591 1075.31 289.591 1066.59 Q289.591 1057.84 292.646 1053.25 Q295.725 1048.65 301.535 1048.65 Z" fill="#000000" fill-rule="nonzero" fill-opacity="1" /><path clip-path="url(#clip640)" d="M326.175 1041.28 Q328.902 1041.86 330.425 1043.71 Q331.967 1045.55 331.967 1048.26 Q331.967 1052.41 329.109 1054.69 Q326.25 1056.97 320.984 1056.97 Q319.216 1056.97 317.335 1056.61 Q315.473 1056.27 313.479 1055.57 L313.479 1051.91 Q315.059 1052.83 316.94 1053.3 Q318.821 1053.77 320.871 1053.77 Q324.444 1053.77 326.306 1052.36 Q328.187 1050.95 328.187 1048.26 Q328.187 1045.78 326.438 1044.38 Q324.708 1042.97 321.604 1042.97 L318.332 1042.97 L318.332 1039.85 L321.755 1039.85 Q324.557 1039.85 326.043 1038.74 Q327.529 1037.61 327.529 1035.51 Q327.529 1033.34 325.986 1032.2 Q324.463 1031.03 321.604 1031.03 Q320.043 1031.03 318.256 1031.37 Q316.47 1031.71 314.326 1032.42 L314.326 1029.04 Q316.489 1028.44 318.369 1028.13 Q320.269 1027.83 321.943 1027.83 Q326.269 1027.83 328.789 1029.81 Q331.309 1031.76 331.309 1035.11 Q331.309 1037.44 329.974 1039.06 Q328.638 1040.66 326.175 1041.28 Z" fill="#000000" fill-rule="nonzero" fill-opacity="1" /><path clip-path="url(#clip640)" d="M114.931 753.604 L122.57 753.604 L122.57 727.239 L114.26 728.906 L114.26 724.646 L122.524 722.98 L127.2 722.98 L127.2 753.604 L134.839 753.604 L134.839 757.54 L114.931 757.54 L114.931 753.604 Z" fill="#000000" fill-rule="nonzero" fill-opacity="1" /><path clip-path="url(#clip640)" d="M144.283 751.66 L149.167 751.66 L149.167 757.54 L144.283 757.54 L144.283 751.66 Z" fill="#000000" fill-rule="nonzero" fill-opacity="1" /><path clip-path="url(#clip640)" d="M169.352 726.058 Q165.741 726.058 163.913 729.623 Q162.107 733.165 162.107 740.294 Q162.107 747.401 163.913 750.966 Q165.741 754.507 169.352 754.507 Q172.987 754.507 174.792 750.966 Q176.621 747.401 176.621 740.294 Q176.621 733.165 174.792 729.623 Q172.987 726.058 169.352 726.058 M169.352 722.355 Q175.163 722.355 178.218 726.961 Q181.297 731.544 181.297 740.294 Q181.297 749.021 178.218 753.628 Q175.163 758.211 169.352 758.211 Q163.542 758.211 160.464 753.628 Q157.408 749.021 157.408 740.294 Q157.408 731.544 160.464 726.961 Q163.542 722.355 169.352 722.355 Z" fill="#000000" fill-rule="nonzero" fill-opacity="1" /><path clip-path="url(#clip640)" d="M199.514 726.058 Q195.903 726.058 194.075 729.623 Q192.269 733.165 192.269 740.294 Q192.269 747.401 194.075 750.966 Q195.903 754.507 199.514 754.507 Q203.149 754.507 204.954 750.966 Q206.783 747.401 206.783 740.294 Q206.783 733.165 204.954 729.623 Q203.149 726.058 199.514 726.058 M199.514 722.355 Q205.324 722.355 208.38 726.961 Q211.459 731.544 211.459 740.294 Q211.459 749.021 208.38 753.628 Q205.324 758.211 199.514 758.211 Q193.704 758.211 190.625 753.628 Q187.57 749.021 187.57 740.294 Q187.57 731.544 190.625 726.961 Q193.704 722.355 199.514 722.355 Z" fill="#000000" fill-rule="nonzero" fill-opacity="1" /><path clip-path="url(#clip640)" d="M247.847 732.077 L237.269 742.702 L247.847 753.28 L245.093 756.081 L234.468 745.456 L223.843 756.081 L221.111 753.28 L231.667 742.702 L221.111 732.077 L223.843 729.276 L234.468 739.901 L245.093 729.276 L247.847 732.077 Z" fill="#000000" fill-rule="nonzero" fill-opacity="1" /><path clip-path="url(#clip640)" d="M260.208 753.604 L267.847 753.604 L267.847 727.239 L259.537 728.906 L259.537 724.646 L267.801 722.98 L272.477 722.98 L272.477 753.604 L280.116 753.604 L280.116 757.54 L260.208 757.54 L260.208 753.604 Z" fill="#000000" fill-rule="nonzero" fill-opacity="1" /><path clip-path="url(#clip640)" d="M299.56 726.058 Q295.949 726.058 294.12 729.623 Q292.315 733.165 292.315 740.294 Q292.315 747.401 294.12 750.966 Q295.949 754.507 299.56 754.507 Q303.194 754.507 305 750.966 Q306.829 747.401 306.829 740.294 Q306.829 733.165 305 729.623 Q303.194 726.058 299.56 726.058 M299.56 722.355 Q305.37 722.355 308.426 726.961 Q311.504 731.544 311.504 740.294 Q311.504 749.021 308.426 753.628 Q305.37 758.211 299.56 758.211 Q293.75 758.211 290.671 753.628 Q287.616 749.021 287.616 740.294 Q287.616 731.544 290.671 726.961 Q293.75 722.355 299.56 722.355 Z" fill="#000000" fill-rule="nonzero" fill-opacity="1" /><path clip-path="url(#clip640)" d="M324.181 705.359 L314.589 720.349 L324.181 720.349 L324.181 705.359 M323.184 702.049 L327.961 702.049 L327.961 720.349 L331.967 720.349 L331.967 723.509 L327.961 723.509 L327.961 730.129 L324.181 730.129 L324.181 723.509 L311.504 723.509 L311.504 719.841 L323.184 702.049 Z" fill="#000000" fill-rule="nonzero" fill-opacity="1" /><path clip-path="url(#clip640)" d="M114.931 427.313 L122.57 427.313 L122.57 400.947 L114.26 402.614 L114.26 398.354 L122.524 396.688 L127.2 396.688 L127.2 427.313 L134.839 427.313 L134.839 431.248 L114.931 431.248 L114.931 427.313 Z" fill="#000000" fill-rule="nonzero" fill-opacity="1" /><path clip-path="url(#clip640)" d="M144.283 425.368 L149.167 425.368 L149.167 431.248 L144.283 431.248 L144.283 425.368 Z" fill="#000000" fill-rule="nonzero" fill-opacity="1" /><path clip-path="url(#clip640)" d="M159.399 396.688 L177.755 396.688 L177.755 400.623 L163.681 400.623 L163.681 409.095 Q164.7 408.748 165.718 408.586 Q166.737 408.401 167.755 408.401 Q173.542 408.401 176.922 411.572 Q180.301 414.743 180.301 420.16 Q180.301 425.739 176.829 428.84 Q173.357 431.919 167.038 431.919 Q164.862 431.919 162.593 431.549 Q160.348 431.178 157.94 430.438 L157.94 425.739 Q160.024 426.873 162.246 427.428 Q164.468 427.984 166.945 427.984 Q170.95 427.984 173.288 425.877 Q175.626 423.771 175.626 420.16 Q175.626 416.549 173.288 414.442 Q170.95 412.336 166.945 412.336 Q165.07 412.336 163.195 412.753 Q161.343 413.169 159.399 414.049 L159.399 396.688 Z" fill="#000000" fill-rule="nonzero" fill-opacity="1" /><path clip-path="url(#clip640)" d="M199.514 399.767 Q195.903 399.767 194.075 403.331 Q192.269 406.873 192.269 414.003 Q192.269 421.109 194.075 424.674 Q195.903 428.215 199.514 428.215 Q203.149 428.215 204.954 424.674 Q206.783 421.109 206.783 414.003 Q206.783 406.873 204.954 403.331 Q203.149 399.767 199.514 399.767 M199.514 396.063 Q205.324 396.063 208.38 400.669 Q211.459 405.253 211.459 414.003 Q211.459 422.729 208.38 427.336 Q205.324 431.919 199.514 431.919 Q193.704 431.919 190.625 427.336 Q187.57 422.729 187.57 414.003 Q187.57 405.253 190.625 400.669 Q193.704 396.063 199.514 396.063 Z" fill="#000000" fill-rule="nonzero" fill-opacity="1" /><path clip-path="url(#clip640)" d="M247.847 405.785 L237.269 416.41 L247.847 426.989 L245.093 429.79 L234.468 419.165 L223.843 429.79 L221.111 426.989 L231.667 416.41 L221.111 405.785 L223.843 402.984 L234.468 413.609 L245.093 402.984 L247.847 405.785 Z" fill="#000000" fill-rule="nonzero" fill-opacity="1" /><path clip-path="url(#clip640)" d="M260.208 427.313 L267.847 427.313 L267.847 400.947 L259.537 402.614 L259.537 398.354 L267.801 396.688 L272.477 396.688 L272.477 427.313 L280.116 427.313 L280.116 431.248 L260.208 431.248 L260.208 427.313 Z" fill="#000000" fill-rule="nonzero" fill-opacity="1" /><path clip-path="url(#clip640)" d="M299.56 399.767 Q295.949 399.767 294.12 403.331 Q292.315 406.873 292.315 414.003 Q292.315 421.109 294.12 424.674 Q295.949 428.215 299.56 428.215 Q303.194 428.215 305 424.674 Q306.829 421.109 306.829 414.003 Q306.829 406.873 305 403.331 Q303.194 399.767 299.56 399.767 M299.56 396.063 Q305.37 396.063 308.426 400.669 Q311.504 405.253 311.504 414.003 Q311.504 422.729 308.426 427.336 Q305.37 431.919 299.56 431.919 Q293.75 431.919 290.671 427.336 Q287.616 422.729 287.616 414.003 Q287.616 405.253 290.671 400.669 Q293.75 396.063 299.56 396.063 Z" fill="#000000" fill-rule="nonzero" fill-opacity="1" /><path clip-path="url(#clip640)" d="M324.181 379.068 L314.589 394.057 L324.181 394.057 L324.181 379.068 M323.184 375.757 L327.961 375.757 L327.961 394.057 L331.967 394.057 L331.967 397.217 L327.961 397.217 L327.961 403.837 L324.181 403.837 L324.181 397.217 L311.504 397.217 L311.504 393.55 L323.184 375.757 Z" fill="#000000" fill-rule="nonzero" fill-opacity="1" /><path clip-path="url(#clip640)" d="M20.1444 845.354 L26.9239 845.354 Q23.9002 848.6 22.4043 852.293 Q20.9083 855.953 20.9083 860.091 Q20.9083 868.239 25.9054 872.567 Q30.8707 876.896 40.2919 876.896 Q49.6813 876.896 54.6784 872.567 Q59.6436 868.239 59.6436 860.091 Q59.6436 855.953 58.1477 852.293 Q56.6518 848.6 53.6281 845.354 L60.3439 845.354 Q62.6355 848.728 63.7814 852.515 Q64.9272 856.271 64.9272 860.473 Q64.9272 871.262 58.3387 877.469 Q51.7183 883.676 40.2919 883.676 Q28.8336 883.676 22.2451 877.469 Q15.6248 871.262 15.6248 860.473 Q15.6248 856.207 16.7706 852.452 Q17.8846 848.664 20.1444 845.354 Z" fill="#000000" fill-rule="nonzero" fill-opacity="1" /><path clip-path="url(#clip640)" d="M32.4621 821.864 Q32.4621 826.575 36.1542 829.312 Q39.8145 832.05 46.212 832.05 Q52.6095 832.05 56.3017 829.344 Q59.9619 826.607 59.9619 821.864 Q59.9619 817.186 56.2698 814.448 Q52.5777 811.711 46.212 811.711 Q39.8781 811.711 36.186 814.448 Q32.4621 817.186 32.4621 821.864 M27.4968 821.864 Q27.4968 814.226 32.4621 809.865 Q37.4273 805.505 46.212 805.505 Q54.9649 805.505 59.9619 809.865 Q64.9272 814.226 64.9272 821.864 Q64.9272 829.535 59.9619 833.896 Q54.9649 838.224 46.212 838.224 Q37.4273 838.224 32.4621 833.896 Q27.4968 829.535 27.4968 821.864 Z" fill="#000000" fill-rule="nonzero" fill-opacity="1" /><path clip-path="url(#clip640)" d="M49.9359 796.402 L28.3562 796.402 L28.3562 790.545 L49.7131 790.545 Q54.7739 790.545 57.3202 788.572 Q59.8346 786.598 59.8346 782.652 Q59.8346 777.909 56.8109 775.172 Q53.7872 772.403 48.5673 772.403 L28.3562 772.403 L28.3562 766.547 L64.0042 766.547 L64.0042 772.403 L58.5296 772.403 Q61.7762 774.535 63.3676 777.368 Q64.9272 780.169 64.9272 783.893 Q64.9272 790.036 61.1078 793.219 Q57.2883 796.402 49.9359 796.402 M27.4968 781.665 L27.4968 781.665 Z" fill="#000000" fill-rule="nonzero" fill-opacity="1" /><path clip-path="url(#clip640)" d="M42.4881 724.851 L64.0042 724.851 L64.0042 730.708 L42.679 730.708 Q37.6183 730.708 35.1038 732.681 Q32.5894 734.654 32.5894 738.601 Q32.5894 743.344 35.6131 746.081 Q38.6368 748.818 43.8567 748.818 L64.0042 748.818 L64.0042 754.706 L28.3562 754.706 L28.3562 748.818 L33.8944 748.818 Q30.6797 746.717 29.0883 743.885 Q27.4968 741.02 27.4968 737.296 Q27.4968 731.153 31.3163 728.002 Q35.1038 724.851 42.4881 724.851 Z" fill="#000000" fill-rule="nonzero" fill-opacity="1" /><path clip-path="url(#clip640)" d="M18.2347 707.377 L28.3562 707.377 L28.3562 695.314 L32.9077 695.314 L32.9077 707.377 L52.2594 707.377 Q56.6199 707.377 57.8613 706.2 Q59.1026 704.99 59.1026 701.33 L59.1026 695.314 L64.0042 695.314 L64.0042 701.33 Q64.0042 708.109 61.4897 710.687 Q58.9434 713.266 52.2594 713.266 L32.9077 713.266 L32.9077 717.562 L28.3562 717.562 L28.3562 713.266 L18.2347 713.266 L18.2347 707.377 Z" fill="#000000" fill-rule="nonzero" fill-opacity="1" /><path clip-path="url(#clip640)" d="M29.4065 664.886 L34.9447 664.886 Q33.6716 667.369 33.035 670.042 Q32.3984 672.716 32.3984 675.581 Q32.3984 679.941 33.7352 682.137 Q35.072 684.302 37.7456 684.302 Q39.7826 684.302 40.9603 682.742 Q42.1061 681.182 43.1565 676.472 L43.6021 674.467 Q44.9389 668.228 47.3897 665.618 Q49.8086 662.976 54.1691 662.976 Q59.1344 662.976 62.0308 666.923 Q64.9272 670.838 64.9272 677.713 Q64.9272 680.578 64.3543 683.697 Q63.8132 686.784 62.6992 690.222 L56.6518 690.222 Q58.3387 686.975 59.198 683.824 Q60.0256 680.673 60.0256 677.586 Q60.0256 673.448 58.6251 671.22 Q57.1929 668.992 54.6147 668.992 Q52.2276 668.992 50.9545 670.615 Q49.6813 672.207 48.5037 677.649 L48.0262 679.686 Q46.8804 685.129 44.5251 687.548 Q42.138 689.967 38.0002 689.967 Q32.9713 689.967 30.2341 686.402 Q27.4968 682.837 27.4968 676.281 Q27.4968 673.034 27.9743 670.17 Q28.4517 667.305 29.4065 664.886 Z" fill="#000000" fill-rule="nonzero" fill-opacity="1" /><path clip-path="url(#clip640)" d="M846.363 65.6895 L874.922 65.6895 L874.922 72.576 L836.519 72.576 L836.519 65.6895 Q841.177 60.8689 849.198 52.7671 Q857.26 44.6248 859.326 42.2752 Q863.255 37.8598 864.794 34.8216 Q866.374 31.7429 866.374 28.7857 Q866.374 23.9651 862.971 20.927 Q859.609 17.8888 854.181 17.8888 Q850.333 17.8888 846.039 19.2256 Q841.785 20.5624 836.924 23.2765 L836.924 15.0127 Q841.866 13.0277 846.16 12.015 Q850.454 11.0023 854.019 11.0023 Q863.417 11.0023 869.007 15.7013 Q874.597 20.4004 874.597 28.2591 Q874.597 31.9859 873.18 35.3482 Q871.802 38.6699 868.116 43.2069 Q867.103 44.3817 861.675 50.0125 Q856.247 55.6027 846.363 65.6895 Z" fill="#000000" fill-rule="nonzero" fill-opacity="1" /><path clip-path="url(#clip640)" d="M892.097 62.2867 L900.645 62.2867 L900.645 72.576 L892.097 72.576 L892.097 62.2867 Z" fill="#000000" fill-rule="nonzero" fill-opacity="1" /><path clip-path="url(#clip640)" d="M916.403 12.096 L955.291 12.096 L955.291 15.5798 L933.336 72.576 L924.788 72.576 L945.448 18.9825 L916.403 18.9825 L916.403 12.096 Z" fill="#000000" fill-rule="nonzero" fill-opacity="1" /><path clip-path="url(#clip640)" d="M989.765 39.075 Q984.255 39.075 981.015 42.8424 Q977.814 46.6097 977.814 53.1722 Q977.814 59.6941 981.015 63.502 Q984.255 67.2693 989.765 67.2693 Q995.274 67.2693 998.474 63.502 Q1001.71 59.6941 1001.71 53.1722 Q1001.71 46.6097 998.474 42.8424 Q995.274 39.075 989.765 39.075 M1006.01 13.4328 L1006.01 20.8865 Q1002.93 19.4281 999.77 18.6585 Q996.651 17.8888 993.572 17.8888 Q985.471 17.8888 981.177 23.3575 Q976.923 28.8262 976.316 39.8852 Q978.706 36.3609 982.311 34.4975 Q985.916 32.5936 990.251 32.5936 Q999.365 32.5936 1004.63 38.1433 Q1009.94 43.6525 1009.94 53.1722 Q1009.94 62.4892 1004.43 68.12 Q998.92 73.7508 989.765 73.7508 Q979.273 73.7508 973.723 65.73 Q968.173 57.6687 968.173 42.3968 Q968.173 28.0566 974.979 19.5497 Q981.784 11.0023 993.248 11.0023 Q996.327 11.0023 999.446 11.6099 Q1002.61 12.2175 1006.01 13.4328 Z" fill="#000000" fill-rule="nonzero" fill-opacity="1" /><path clip-path="url(#clip640)" d="M1061.79 48.0275 L1061.79 51.6733 L1027.52 51.6733 Q1028.01 59.3701 1032.14 63.421 Q1036.31 67.4314 1043.72 67.4314 Q1048.02 67.4314 1052.03 66.3781 Q1056.08 65.3249 1060.05 63.2184 L1060.05 70.267 Q1056.04 71.9684 1051.82 72.8596 Q1047.61 73.7508 1043.28 73.7508 Q1032.42 73.7508 1026.06 67.4314 Q1019.74 61.1119 1019.74 50.3365 Q1019.74 39.1965 1025.74 32.6746 Q1031.77 26.1121 1041.98 26.1121 Q1051.14 26.1121 1056.44 32.0264 Q1061.79 37.9003 1061.79 48.0275 M1054.34 45.84 Q1054.26 39.7232 1050.89 36.0774 Q1047.57 32.4315 1042.06 32.4315 Q1035.82 32.4315 1032.06 35.9558 Q1028.33 39.4801 1027.76 45.8805 L1054.34 45.84 Z" fill="#000000" fill-rule="nonzero" fill-opacity="1" /><path clip-path="url(#clip640)" d="M1092.58 43.8551 Q1086.74 43.8551 1083.38 46.9743 Q1080.06 50.0935 1080.06 55.5622 Q1080.06 61.0309 1083.38 64.1501 Q1086.74 67.2693 1092.58 67.2693 Q1098.41 67.2693 1101.77 64.1501 Q1105.13 60.9904 1105.13 55.5622 Q1105.13 50.0935 1101.77 46.9743 Q1098.45 43.8551 1092.58 43.8551 M1084.39 40.3713 Q1079.13 39.075 1076.17 35.4697 Q1073.25 31.8644 1073.25 26.6793 Q1073.25 19.4281 1078.4 15.2152 Q1083.58 11.0023 1092.58 11.0023 Q1101.61 11.0023 1106.75 15.2152 Q1111.9 19.4281 1111.9 26.6793 Q1111.9 31.8644 1108.94 35.4697 Q1106.03 39.075 1100.8 40.3713 Q1106.71 41.7486 1110 45.759 Q1113.32 49.7694 1113.32 55.5622 Q1113.32 64.3527 1107.93 69.0517 Q1102.58 73.7508 1092.58 73.7508 Q1082.57 73.7508 1077.18 69.0517 Q1071.84 64.3527 1071.84 55.5622 Q1071.84 49.7694 1075.16 45.759 Q1078.48 41.7486 1084.39 40.3713 M1081.4 27.4489 Q1081.4 32.148 1084.31 34.7811 Q1087.27 37.4142 1092.58 37.4142 Q1097.84 37.4142 1100.8 34.7811 Q1103.8 32.148 1103.8 27.4489 Q1103.8 22.7499 1100.8 20.1168 Q1097.84 17.4837 1092.58 17.4837 Q1087.27 17.4837 1084.31 20.1168 Q1081.4 22.7499 1081.4 27.4489 Z" fill="#000000" fill-rule="nonzero" fill-opacity="1" /><path clip-path="url(#clip640)" d="M1190.89 45.1919 L1190.89 72.576 L1183.44 72.576 L1183.44 45.4349 Q1183.44 38.994 1180.93 35.7938 Q1178.42 32.5936 1173.39 32.5936 Q1167.36 32.5936 1163.87 36.4419 Q1160.39 40.2903 1160.39 46.9338 L1160.39 72.576 L1152.89 72.576 L1152.89 27.2059 L1160.39 27.2059 L1160.39 34.2544 Q1163.06 30.163 1166.67 28.1376 Q1170.31 26.1121 1175.05 26.1121 Q1182.87 26.1121 1186.88 30.9732 Q1190.89 35.7938 1190.89 45.1919 Z" fill="#000000" fill-rule="nonzero" fill-opacity="1" /><path clip-path="url(#clip640)" d="M1244.57 48.0275 L1244.57 51.6733 L1210.3 51.6733 Q1210.78 59.3701 1214.91 63.421 Q1219.09 67.4314 1226.5 67.4314 Q1230.79 67.4314 1234.8 66.3781 Q1238.85 65.3249 1242.82 63.2184 L1242.82 70.267 Q1238.81 71.9684 1234.6 72.8596 Q1230.39 73.7508 1226.05 73.7508 Q1215.2 73.7508 1208.84 67.4314 Q1202.52 61.1119 1202.52 50.3365 Q1202.52 39.1965 1208.51 32.6746 Q1214.55 26.1121 1224.76 26.1121 Q1233.91 26.1121 1239.22 32.0264 Q1244.57 37.9003 1244.57 48.0275 M1237.11 45.84 Q1237.03 39.7232 1233.67 36.0774 Q1230.35 32.4315 1224.84 32.4315 Q1218.6 32.4315 1214.83 35.9558 Q1211.11 39.4801 1210.54 45.8805 L1237.11 45.84 Z" fill="#000000" fill-rule="nonzero" fill-opacity="1" /><path clip-path="url(#clip640)" d="M1256.03 54.671 L1256.03 27.2059 L1263.48 27.2059 L1263.48 54.3874 Q1263.48 60.8284 1266 64.0691 Q1268.51 67.2693 1273.53 67.2693 Q1279.57 67.2693 1283.05 63.421 Q1286.57 59.5726 1286.57 52.9291 L1286.57 27.2059 L1294.03 27.2059 L1294.03 72.576 L1286.57 72.576 L1286.57 65.6084 Q1283.86 69.7404 1280.25 71.7658 Q1276.69 73.7508 1271.95 73.7508 Q1264.13 73.7508 1260.08 68.8897 Q1256.03 64.0286 1256.03 54.671 M1274.79 26.1121 L1274.79 26.1121 Z" fill="#000000" fill-rule="nonzero" fill-opacity="1" /><path clip-path="url(#clip640)" d="M1316.75 14.324 L1316.75 27.2059 L1332.11 27.2059 L1332.11 32.9987 L1316.75 32.9987 L1316.75 57.6282 Q1316.75 63.1779 1318.25 64.7578 Q1319.79 66.3376 1324.45 66.3376 L1332.11 66.3376 L1332.11 72.576 L1324.45 72.576 Q1315.82 72.576 1312.54 69.3758 Q1309.26 66.1351 1309.26 57.6282 L1309.26 32.9987 L1303.79 32.9987 L1303.79 27.2059 L1309.26 27.2059 L1309.26 14.324 L1316.75 14.324 Z" fill="#000000" fill-rule="nonzero" fill-opacity="1" /><path clip-path="url(#clip640)" d="M1368.2 34.1734 Q1366.94 33.4443 1365.45 33.1202 Q1363.99 32.7556 1362.2 32.7556 Q1355.89 32.7556 1352.48 36.8875 Q1349.12 40.9789 1349.12 48.6757 L1349.12 72.576 L1341.63 72.576 L1341.63 27.2059 L1349.12 27.2059 L1349.12 34.2544 Q1351.47 30.1225 1355.24 28.1376 Q1359 26.1121 1364.39 26.1121 Q1365.16 26.1121 1366.09 26.2337 Q1367.03 26.3147 1368.16 26.5172 L1368.2 34.1734 Z" fill="#000000" fill-rule="nonzero" fill-opacity="1" /><path clip-path="url(#clip640)" d="M1391.78 32.4315 Q1385.78 32.4315 1382.3 37.1306 Q1378.81 41.7891 1378.81 49.9314 Q1378.81 58.0738 1382.26 62.7728 Q1385.74 67.4314 1391.78 67.4314 Q1397.73 67.4314 1401.21 62.7323 Q1404.7 58.0333 1404.7 49.9314 Q1404.7 41.8701 1401.21 37.1711 Q1397.73 32.4315 1391.78 32.4315 M1391.78 26.1121 Q1401.5 26.1121 1407.05 32.4315 Q1412.6 38.7509 1412.6 49.9314 Q1412.6 61.0714 1407.05 67.4314 Q1401.5 73.7508 1391.78 73.7508 Q1382.01 73.7508 1376.46 67.4314 Q1370.95 61.0714 1370.95 49.9314 Q1370.95 38.7509 1376.46 32.4315 Q1382.01 26.1121 1391.78 26.1121 Z" fill="#000000" fill-rule="nonzero" fill-opacity="1" /><path clip-path="url(#clip640)" d="M1462.67 45.1919 L1462.67 72.576 L1455.21 72.576 L1455.21 45.4349 Q1455.21 38.994 1452.7 35.7938 Q1450.19 32.5936 1445.17 32.5936 Q1439.13 32.5936 1435.65 36.4419 Q1432.16 40.2903 1432.16 46.9338 L1432.16 72.576 L1424.67 72.576 L1424.67 27.2059 L1432.16 27.2059 L1432.16 34.2544 Q1434.84 30.163 1438.44 28.1376 Q1442.09 26.1121 1446.83 26.1121 Q1454.65 26.1121 1458.66 30.9732 Q1462.67 35.7938 1462.67 45.1919 Z" fill="#000000" fill-rule="nonzero" fill-opacity="1" /><path clip-path="url(#clip640)" d="M1506.46 28.5427 L1506.46 35.5912 Q1503.3 33.9709 1499.9 33.1607 Q1496.49 32.3505 1492.85 32.3505 Q1487.3 32.3505 1484.5 34.0519 Q1481.75 35.7533 1481.75 39.156 Q1481.75 41.7486 1483.73 43.2475 Q1485.72 44.7058 1491.71 46.0426 L1494.26 46.6097 Q1502.2 48.3111 1505.53 51.4303 Q1508.89 54.509 1508.89 60.0587 Q1508.89 66.3781 1503.86 70.0644 Q1498.88 73.7508 1490.13 73.7508 Q1486.49 73.7508 1482.52 73.0216 Q1478.59 72.3329 1474.21 70.9151 L1474.21 63.2184 Q1478.34 65.3654 1482.35 66.4591 Q1486.36 67.5124 1490.29 67.5124 Q1495.56 67.5124 1498.4 65.73 Q1501.23 63.9071 1501.23 60.6258 Q1501.23 57.5877 1499.17 55.9673 Q1497.14 54.3469 1490.21 52.8481 L1487.62 52.2405 Q1480.69 50.7821 1477.62 47.7845 Q1474.54 44.7463 1474.54 39.4801 Q1474.54 33.0797 1479.07 29.5959 Q1483.61 26.1121 1491.96 26.1121 Q1496.09 26.1121 1499.73 26.7198 Q1503.38 27.3274 1506.46 28.5427 Z" fill="#000000" fill-rule="nonzero" fill-opacity="1" /><path clip-path="url(#clip640)" d="M1576.05 28.5427 L1576.05 35.5912 Q1572.89 33.9709 1569.49 33.1607 Q1566.09 32.3505 1562.44 32.3505 Q1556.89 32.3505 1554.1 34.0519 Q1551.34 35.7533 1551.34 39.156 Q1551.34 41.7486 1553.33 43.2475 Q1555.31 44.7058 1561.31 46.0426 L1563.86 46.6097 Q1571.8 48.3111 1575.12 51.4303 Q1578.48 54.509 1578.48 60.0587 Q1578.48 66.3781 1573.46 70.0644 Q1568.48 73.7508 1559.73 73.7508 Q1556.08 73.7508 1552.11 73.0216 Q1548.18 72.3329 1543.81 70.9151 L1543.81 63.2184 Q1547.94 65.3654 1551.95 66.4591 Q1555.96 67.5124 1559.89 67.5124 Q1565.16 67.5124 1567.99 65.73 Q1570.83 63.9071 1570.83 60.6258 Q1570.83 57.5877 1568.76 55.9673 Q1566.73 54.3469 1559.81 52.8481 L1557.22 52.2405 Q1550.29 50.7821 1547.21 47.7845 Q1544.13 44.7463 1544.13 39.4801 Q1544.13 33.0797 1548.67 29.5959 Q1553.2 26.1121 1561.55 26.1121 Q1565.68 26.1121 1569.33 26.7198 Q1572.97 27.3274 1576.05 28.5427 Z" fill="#000000" fill-rule="nonzero" fill-opacity="1" /><path clip-path="url(#clip640)" d="M1588.08 29.0288 L1620.77 29.0288 L1620.77 32.8771 L1588.08 32.8771 L1588.08 29.0288 Z" fill="#000000" fill-rule="nonzero" fill-opacity="1" /><path clip-path="url(#clip640)" d="M1632.64 41.06 L1640.91 41.06 L1640.91 16.3089 L1631.87 17.9698 L1631.87 13.2708 L1641.19 11.6909 L1646.74 11.6909 L1646.74 41.06 L1655.04 41.06 L1655.04 45.516 L1632.64 45.516 L1632.64 41.06 Z" fill="#000000" fill-rule="nonzero" fill-opacity="1" /><path clip-path="url(#clip640)" d="M1726.42 28.9478 L1726.42 35.9153 Q1723.26 34.1734 1720.06 33.3227 Q1716.9 32.4315 1713.66 32.4315 Q1706.41 32.4315 1702.4 37.0496 Q1698.39 41.6271 1698.39 49.9314 Q1698.39 58.2358 1702.4 62.8538 Q1706.41 67.4314 1713.66 67.4314 Q1716.9 67.4314 1720.06 66.5807 Q1723.26 65.6895 1726.42 63.9476 L1726.42 70.8341 Q1723.3 72.2924 1719.94 73.0216 Q1716.62 73.7508 1712.85 73.7508 Q1702.6 73.7508 1696.57 67.3098 Q1690.53 60.8689 1690.53 49.9314 Q1690.53 38.832 1696.61 32.472 Q1702.72 26.1121 1713.34 26.1121 Q1716.78 26.1121 1720.06 26.8413 Q1723.34 27.5299 1726.42 28.9478 Z" fill="#000000" fill-rule="nonzero" fill-opacity="1" /><path clip-path="url(#clip640)" d="M1774.71 35.9153 Q1777.5 30.8922 1781.39 28.5022 Q1785.28 26.1121 1790.55 26.1121 Q1797.64 26.1121 1801.48 31.0947 Q1805.33 36.0368 1805.33 45.1919 L1805.33 72.576 L1797.84 72.576 L1797.84 45.4349 Q1797.84 38.913 1795.53 35.7533 Q1793.22 32.5936 1788.48 32.5936 Q1782.69 32.5936 1779.33 36.4419 Q1775.96 40.2903 1775.96 46.9338 L1775.96 72.576 L1768.47 72.576 L1768.47 45.4349 Q1768.47 38.8725 1766.16 35.7533 Q1763.85 32.5936 1759.03 32.5936 Q1753.32 32.5936 1749.96 36.4824 Q1746.6 40.3308 1746.6 46.9338 L1746.6 72.576 L1739.1 72.576 L1739.1 27.2059 L1746.6 27.2059 L1746.6 34.2544 Q1749.15 30.082 1752.71 28.0971 Q1756.28 26.1121 1761.18 26.1121 Q1766.12 26.1121 1769.56 28.6237 Q1773.05 31.1352 1774.71 35.9153 Z" fill="#000000" fill-rule="nonzero" fill-opacity="1" /><path clip-path="url(#clip640)" d="M1817.93 29.0288 L1850.62 29.0288 L1850.62 32.8771 L1817.93 32.8771 L1817.93 29.0288 Z" fill="#000000" fill-rule="nonzero" fill-opacity="1" /><path clip-path="url(#clip640)" d="M1867.03 40.8979 L1884.2 40.8979 L1884.2 45.516 L1859.98 45.516 L1859.98 41.06 Q1861.36 39.8042 1863.91 37.5357 Q1877.84 25.1804 1877.84 21.3726 Q1877.84 18.699 1875.74 17.0786 Q1873.63 15.4177 1870.19 15.4177 Q1868.08 15.4177 1865.61 16.1469 Q1863.14 16.8356 1860.22 18.2534 L1860.22 13.2708 Q1863.34 12.1365 1866.02 11.5694 Q1868.73 11.0023 1871.04 11.0023 Q1876.91 11.0023 1880.44 13.6759 Q1883.96 16.3494 1883.96 20.7244 Q1883.96 26.3552 1870.55 37.8598 Q1868.28 39.8042 1867.03 40.8979 Z" fill="#000000" fill-rule="nonzero" fill-opacity="1" /><polyline clip-path="url(#clip642)" style="stroke:#000000; stroke-linecap:round; stroke-linejoin:round; stroke-width:4; stroke-opacity:1; fill:none" points="424.141,1386.4 424.141,1386.4 431.878,1386.4 431.878,1386.27 439.615,1386.27 439.615,1386.13 447.353,1386.13 447.353,1386.27 455.09,1386.27 462.827,1386.27 462.827,1386.2 470.565,1386.2 470.565,1386.4 478.302,1386.4 478.302,1386.33 486.039,1386.33 486.039,1386.27 493.777,1386.27 493.777,1386.4 501.514,1386.4 509.252,1386.4 516.989,1386.4 516.989,1386.33 524.726,1386.33 532.464,1386.33 540.201,1386.33 540.201,1386.27 547.938,1386.27 547.938,1386.33 555.676,1386.33 555.676,1386.13 563.413,1386.13 571.15,1386.13 571.15,1386.27 578.888,1386.27 586.625,1386.27 586.625,1386 594.363,1386 594.363,1386.33 602.1,1386.33 602.1,1386.2 609.837,1386.2 609.837,1386.33 617.575,1386.33 617.575,1386.27 625.312,1386.27 625.312,1386 633.049,1386 633.049,1386.27 640.787,1386.27 640.787,1386.4 648.524,1386.4 648.524,1386.33 656.262,1386.33 663.999,1386.33 663.999,1386.4 671.736,1386.4 671.736,1386.33 679.474,1386.33 679.474,1386.27 687.211,1386.27 694.948,1386.27 694.948,1386.4 702.686,1386.4 702.686,1386.33 710.423,1386.33 710.423,1386.4 718.16,1386.4 725.898,1386.4 733.635,1386.4 733.635,1386.33 741.373,1386.33 749.11,1386.33 749.11,1386.4 756.847,1386.4 756.847,1386.27 764.585,1386.27 764.585,1386.33 772.322,1386.33 772.322,1386.27 780.059,1386.27 780.059,1386.33 787.797,1386.33 787.797,1386.27 795.534,1386.27 795.534,1386.4 803.271,1386.4 803.271,1386.33 811.009,1386.33 811.009,1386 818.746,1386 818.746,1386.27 826.484,1386.27 826.484,1386.33 834.221,1386.33 834.221,1386.27 841.958,1386.27 841.958,1386.4 849.696,1386.4 849.696,1386.33 857.433,1386.33 857.433,1386.4 865.17,1386.4 865.17,1386.33 872.908,1386.33 880.645,1386.33 880.645,1386.4 888.382,1386.4 888.382,1386.33 896.12,1386.33 896.12,1386.4 903.857,1386.4 903.857,1386.33 911.595,1386.33 911.595,1386.4 919.332,1386.4 919.332,1386.33 927.069,1386.33 934.807,1386.33 934.807,1386.4 942.544,1386.4 942.544,1386.27 950.281,1386.27 950.281,1386.33 958.019,1386.33 958.019,1386.27 965.756,1386.27 965.756,1386.33 973.493,1386.33 973.493,1386.4 981.231,1386.4 988.968,1386.4 996.706,1386.4 996.706,1386.33 1004.44,1386.33 1004.44,1386.4 1012.18,1386.4 1012.18,1386.33 1019.92,1386.33 1019.92,1386.27 1027.65,1386.27 1027.65,1386.4 1035.39,1386.4 1035.39,1386.33 1043.13,1386.33 1043.13,1386.4 1050.87,1386.4 1058.6,1386.4 1066.34,1386.4 1066.34,1386.33 1074.08,1386.33 1074.08,1386.4 1081.82,1386.4 1081.82,1386.33 1089.55,1386.33 1089.55,1386.4 1097.29,1386.4 1105.03,1386.4 1105.03,1386.33 1112.77,1386.33 1120.5,1386.33 1120.5,1386.4 1128.24,1386.4 1128.24,1386.33 1135.98,1386.33 1135.98,1386.4 1143.72,1386.4 1151.45,1386.4 1159.19,1386.4 1159.19,1386.33 1166.93,1386.33 1166.93,1386.4 1174.66,1386.4 1174.66,1386.33 1182.4,1386.33 1182.4,1386.4 1190.14,1386.4 1197.88,1386.4 1197.88,1386.27 1205.61,1386.27 1205.61,1386.4 1213.35,1386.4 1213.35,1386.33 1221.09,1386.33 1228.83,1386.33 1228.83,1386.4 1236.56,1386.4 1236.56,1386.27 1244.3,1386.27 1252.04,1386.27 1252.04,1386.4 1259.78,1386.4 1267.51,1386.4 1267.51,1386.33 1275.25,1386.33 1282.99,1386.33 1282.99,1386.4 1290.73,1386.4 1298.46,1386.4 1306.2,1386.4 1306.2,1386.33 1313.94,1386.33 1313.94,1386.4 1321.67,1386.4 1329.41,1386.4 1329.41,1386.33 1337.15,1386.33 1344.89,1386.33 1344.89,1386.4 1352.62,1386.4 1352.62,1386.33 1360.36,1386.33 1360.36,1386.4 1368.1,1386.4 1375.84,1386.4 1383.57,1386.4 1383.57,1386.33 1391.31,1386.33 1391.31,1386.27 1399.05,1386.27 1399.05,1386.33 1406.79,1386.33 1414.52,1386.33 1422.26,1386.33 1422.26,1386.4 1430,1386.4 1437.74,1386.4 1437.74,1386.33 1445.47,1386.33 1445.47,1386.4 1453.21,1386.4 1453.21,1386.27 1460.95,1386.27 1460.95,1386.33 1468.68,1386.33 1468.68,1386.4 1476.42,1386.4 1484.16,1386.4 1484.16,1386.33 1491.9,1386.33 1491.9,1386.4 1499.63,1386.4 1499.63,1386.33 1507.37,1386.33 1515.11,1386.33 1515.11,1386.4 1522.85,1386.4 1530.58,1386.4 1538.32,1386.4 1546.06,1386.4 1553.8,1386.4 1553.8,1386.33 1561.53,1386.33 1561.53,1386.4 1569.27,1386.4 1577.01,1386.4 1584.75,1386.4 1592.48,1386.4 1600.22,1386.4 1607.96,1386.4 1615.69,1386.4 1623.43,1386.4 1631.17,1386.4 1638.91,1386.4 1646.64,1386.4 1646.64,1386.27 1654.38,1386.27 1654.38,1386.4 1662.12,1386.4 1662.12,1386.27 1669.86,1386.27 1669.86,1386.4 1677.59,1386.4 1685.33,1386.4 1693.07,1386.4 1700.81,1386.4 1700.81,1386.33 1708.54,1386.33 1708.54,1386.4 1716.28,1386.4 1724.02,1386.4 1731.76,1386.4 1739.49,1386.4 1739.49,1386.33 1747.23,1386.33 1747.23,1386.4 1754.97,1386.4 1754.97,1386.33 1762.7,1386.33 1770.44,1386.33 1770.44,1386.4 1778.18,1386.4 1778.18,1386.33 1785.92,1386.33 1793.65,1386.33 1793.65,1386.4 1801.39,1386.4 1809.13,1386.4 1816.87,1386.4 1816.87,1386.33 1824.6,1386.33 1824.6,1386.4 1832.34,1386.4 1840.08,1386.4 1840.08,1386.27 1847.82,1386.27 1847.82,1386.33 1855.55,1386.33 1855.55,1386.27 1863.29,1386.27 1863.29,1386.4 1871.03,1386.4 1878.76,1386.4 1886.5,1386.4 1894.24,1386.4 1901.98,1386.4 1901.98,1386.33 1909.71,1386.33 1909.71,1386.4 1917.45,1386.4 1925.19,1386.4 1932.93,1386.4 1940.66,1386.4 1948.4,1386.4 1956.14,1386.4 1963.88,1386.4 1971.61,1386.4 1971.61,1386.33 1979.35,1386.33 1979.35,1386.4 1987.09,1386.4 1994.83,1386.4 2002.56,1386.4 2002.56,1386.33 2010.3,1386.33 2010.3,1386.4 2018.04,1386.4 2025.77,1386.4 2033.51,1386.4 2033.51,1386.33 2041.25,1386.33 2041.25,1386.4 2048.99,1386.4 2056.72,1386.4 2064.46,1386.4 2064.46,1386.33 2072.2,1386.33 2072.2,1386.4 2079.94,1386.4 2087.67,1386.4 2095.41,1386.4 2095.41,1386.33 2103.15,1386.33 2103.15,1386.4 2110.89,1386.4 2118.62,1386.4 2126.36,1386.4 2134.1,1386.4 2141.84,1386.4 2141.84,1386.33 2149.57,1386.33 2149.57,1386.27 2157.31,1386.27 2157.31,1386.4 2165.05,1386.4 2172.78,1386.4 2180.52,1386.4 2188.26,1386.4 2196,1386.4 2203.73,1386.4 2203.73,1386.27 2211.47,1386.27 2211.47,1386.4 2219.21,1386.4 2219.21,1386.33 2226.95,1386.33 2226.95,1386.4 2234.68,1386.4 2242.42,1386.4 2250.16,1386.4 2257.9,1386.4 2257.9,1386.33 2265.63,1386.33 2265.63,1386.4 2273.37,1386.4 2281.11,1386.4 2288.85,1386.4 2296.58,1386.4 "/>
<polyline clip-path="url(#clip642)" style="stroke:#ff0000; stroke-linecap:round; stroke-linejoin:round; stroke-width:4; stroke-opacity:1; fill:none" points="424.141,1386.4 424.141,1386.4 431.878,1386.4 431.878,190.797 439.615,190.797 439.615,160.256 447.353,160.256 447.353,480.74 455.09,480.74 455.09,685.782 462.827,685.782 462.827,815.45 470.565,815.45 470.565,894.348 478.302,894.348 478.302,952.884 486.039,952.884 486.039,1004.11 493.777,1004.11 493.777,1035.76 501.514,1035.76 501.514,1074.85 509.252,1074.85 509.252,1094.56 516.989,1094.56 516.989,1107.09 524.726,1107.09 524.726,1123.67 532.464,1123.67 532.464,1138.48 540.201,1138.48 540.201,1156.16 547.938,1156.16 547.938,1167 555.676,1167 555.676,1185.4 563.413,1185.4 563.413,1200.21 571.15,1200.21 571.15,1210.72 578.888,1210.72 578.888,1231.41 586.625,1231.41 586.625,1231.99 594.363,1231.99 594.363,1244.13 602.1,1244.13 602.1,1258.95 609.837,1258.95 609.837,1260.19 617.575,1260.19 617.575,1319.31 625.312,1319.31 625.312,1324.53 633.049,1324.53 633.049,1338.23 640.787,1338.23 640.787,1352 648.524,1352 648.524,1360.81 656.262,1360.81 656.262,1363.82 663.999,1363.82 663.999,1365.45 671.736,1365.45 671.736,1369.43 679.474,1369.43 679.474,1370.15 687.211,1370.15 687.211,1371.65 694.948,1371.65 694.948,1374.84 702.686,1374.84 702.686,1374.45 710.423,1374.45 710.423,1376.35 718.16,1376.35 718.16,1375.24 725.898,1375.24 725.898,1377.98 733.635,1377.98 733.635,1377 741.373,1377 741.373,1377.85 749.11,1377.85 749.11,1379.02 756.847,1379.02 756.847,1379.48 764.585,1379.48 764.585,1379.35 772.322,1379.35 772.322,1381.11 780.059,1381.11 780.059,1380.2 787.797,1380.2 787.797,1381.89 795.534,1381.89 795.534,1381.63 803.271,1381.63 803.271,1381.5 811.009,1381.5 811.009,1382.15 818.746,1382.15 818.746,1382.09 826.484,1382.09 826.484,1382.55 834.221,1382.55 834.221,1381.44 841.958,1381.44 841.958,1382.35 849.696,1382.35 849.696,1383.26 857.433,1383.26 857.433,1382.48 865.17,1382.48 865.17,1381.96 872.908,1381.96 872.908,1383.2 880.645,1383.2 880.645,1383.46 888.382,1383.46 888.382,1383.79 896.12,1383.79 896.12,1383.07 903.857,1383.07 903.857,1383.65 911.595,1383.65 911.595,1384.18 919.332,1384.18 919.332,1384.63 927.069,1384.63 927.069,1384.7 934.807,1384.7 934.807,1384.24 942.544,1384.24 942.544,1384.44 950.281,1384.44 950.281,1384.05 958.019,1384.05 958.019,1384.76 965.756,1384.76 965.756,1384.89 973.493,1384.89 973.493,1384.44 981.231,1384.44 981.231,1384.96 988.968,1384.96 988.968,1384.5 996.706,1384.5 996.706,1384.83 1004.44,1384.83 1012.18,1384.83 1012.18,1384.96 1019.92,1384.96 1019.92,1384.57 1027.65,1384.57 1027.65,1384.76 1035.39,1384.76 1035.39,1384.63 1043.13,1384.63 1043.13,1384.83 1050.87,1384.83 1050.87,1385.35 1058.6,1385.35 1058.6,1384.83 1066.34,1384.83 1066.34,1385.22 1074.08,1385.22 1074.08,1384.89 1081.82,1384.89 1081.82,1385.16 1089.55,1385.16 1097.29,1385.16 1097.29,1384.76 1105.03,1384.76 1105.03,1385.22 1112.77,1385.22 1112.77,1385.35 1120.5,1385.35 1120.5,1385.55 1128.24,1385.55 1128.24,1385.42 1135.98,1385.42 1135.98,1385.16 1143.72,1385.16 1143.72,1385.35 1151.45,1385.35 1151.45,1385.61 1159.19,1385.61 1159.19,1385.22 1166.93,1385.22 1166.93,1385.61 1174.66,1385.61 1174.66,1385.48 1182.4,1385.48 1182.4,1385.29 1190.14,1385.29 1190.14,1385.35 1197.88,1385.35 1197.88,1385.81 1205.61,1385.81 1205.61,1385.03 1213.35,1385.03 1213.35,1385.61 1221.09,1385.61 1221.09,1385.42 1228.83,1385.42 1228.83,1384.96 1236.56,1384.96 1236.56,1386 1244.3,1386 1244.3,1385.29 1252.04,1385.29 1252.04,1385.09 1259.78,1385.09 1259.78,1385.48 1267.51,1385.48 1275.25,1385.48 1275.25,1385.16 1282.99,1385.16 1282.99,1385.87 1290.73,1385.87 1290.73,1385.61 1298.46,1385.61 1298.46,1385.09 1306.2,1385.09 1306.2,1385.03 1313.94,1385.03 1313.94,1385.87 1321.67,1385.87 1329.41,1385.87 1329.41,1385.48 1337.15,1385.48 1337.15,1385.61 1344.89,1385.61 1344.89,1385.68 1352.62,1385.68 1352.62,1385.61 1360.36,1385.61 1360.36,1385.87 1368.1,1385.87 1368.1,1385.74 1375.84,1385.74 1375.84,1386.13 1383.57,1386.13 1383.57,1386.07 1391.31,1386.07 1399.05,1386.07 1399.05,1385.35 1406.79,1385.35 1406.79,1385.81 1414.52,1385.81 1414.52,1385.94 1422.26,1385.94 1430,1385.94 1430,1386.13 1437.74,1386.13 1437.74,1386 1445.47,1386 1445.47,1385.48 1453.21,1385.48 1453.21,1385.74 1460.95,1385.74 1460.95,1385.94 1468.68,1385.94 1468.68,1385.81 1476.42,1385.81 1484.16,1385.81 1484.16,1386.07 1491.9,1386.07 1499.63,1386.07 1499.63,1385.87 1507.37,1385.87 1507.37,1385.94 1515.11,1385.94 1515.11,1386 1522.85,1386 1522.85,1386.07 1530.58,1386.07 1530.58,1386.2 1538.32,1386.2 1538.32,1386.27 1546.06,1386.27 1546.06,1385.87 1553.8,1385.87 1553.8,1386.13 1561.53,1386.13 1561.53,1385.87 1569.27,1385.87 1577.01,1385.87 1577.01,1386.07 1584.75,1386.07 1592.48,1386.07 1592.48,1386.2 1600.22,1386.2 1600.22,1386 1607.96,1386 1607.96,1386.2 1615.69,1386.2 1615.69,1386.13 1623.43,1386.13 1623.43,1386.07 1631.17,1386.07 1631.17,1386.2 1638.91,1386.2 1646.64,1386.2 1646.64,1386.07 1654.38,1386.07 1654.38,1385.74 1662.12,1385.74 1662.12,1385.94 1669.86,1385.94 1669.86,1386.13 1677.59,1386.13 1677.59,1386.33 1685.33,1386.33 1685.33,1386 1693.07,1386 1693.07,1386.13 1700.81,1386.13 1700.81,1385.94 1708.54,1385.94 1716.28,1385.94 1724.02,1385.94 1724.02,1386.2 1731.76,1386.2 1731.76,1385.94 1739.49,1385.94 1739.49,1386.33 1747.23,1386.33 1747.23,1386.27 1754.97,1386.27 1754.97,1386.33 1762.7,1386.33 1770.44,1386.33 1770.44,1386 1778.18,1386 1778.18,1385.68 1785.92,1385.68 1785.92,1386 1793.65,1386 1793.65,1386.2 1801.39,1386.2 1809.13,1386.2 1809.13,1386.07 1816.87,1386.07 1816.87,1385.94 1824.6,1385.94 1824.6,1386.27 1832.34,1386.27 1832.34,1386.33 1840.08,1386.33 1840.08,1386.07 1847.82,1386.07 1847.82,1386.2 1855.55,1386.2 1855.55,1386.07 1863.29,1386.07 1863.29,1385.81 1871.03,1385.81 1871.03,1386.13 1878.76,1386.13 1878.76,1386.07 1886.5,1386.07 1886.5,1385.74 1894.24,1385.74 1894.24,1386.27 1901.98,1386.27 1901.98,1386 1909.71,1386 1909.71,1386.2 1917.45,1386.2 1917.45,1386.27 1925.19,1386.27 1925.19,1386.33 1932.93,1386.33 1932.93,1386.13 1940.66,1386.13 1940.66,1386.33 1948.4,1386.33 1948.4,1386.07 1956.14,1386.07 1956.14,1386.2 1963.88,1386.2 1963.88,1386.13 1971.61,1386.13 1971.61,1386.2 1979.35,1386.2 1979.35,1386.13 1987.09,1386.13 1987.09,1386.2 1994.83,1386.2 1994.83,1386.13 2002.56,1386.13 2002.56,1386.2 2010.3,1386.2 2018.04,1386.2 2018.04,1385.94 2025.77,1385.94 2025.77,1386.27 2033.51,1386.27 2033.51,1386.2 2041.25,1386.2 2041.25,1386.27 2048.99,1386.27 2048.99,1386.2 2056.72,1386.2 2056.72,1386.13 2064.46,1386.13 2064.46,1386.27 2072.2,1386.27 2079.94,1386.27 2079.94,1386.13 2087.67,1386.13 2087.67,1386.27 2095.41,1386.27 2095.41,1386.2 2103.15,1386.2 2110.89,1386.2 2110.89,1386.33 2118.62,1386.33 2118.62,1386.13 2126.36,1386.13 2134.1,1386.13 2134.1,1386.27 2141.84,1386.27 2141.84,1385.94 2149.57,1385.94 2149.57,1386.4 2157.31,1386.4 2157.31,1386.27 2165.05,1386.27 2165.05,1386.13 2172.78,1386.13 2172.78,1386.4 2180.52,1386.4 2180.52,1386.33 2188.26,1386.33 2188.26,1386.27 2196,1386.27 2196,1386.2 2203.73,1386.2 2203.73,1386.33 2211.47,1386.33 2211.47,1386.27 2219.21,1386.27 2219.21,1386.2 2226.95,1386.2 2226.95,1386.13 2234.68,1386.13 2234.68,1386.33 2242.42,1386.33 2242.42,1386.27 2250.16,1386.27 2257.9,1386.27 2257.9,1386.07 2265.63,1386.07 2265.63,1386.27 2273.37,1386.27 2281.11,1386.27 2281.11,1386.2 2288.85,1386.2 2288.85,1386.27 2296.58,1386.27 2296.58,1386.4 "/>
<path clip-path="url(#clip640)" d="M1673.4 322.316 L2286.6 322.316 L2286.6 166.796 L1673.4 166.796  Z" fill="#ffffff" fill-rule="evenodd" fill-opacity="1"/>
<polyline clip-path="url(#clip640)" style="stroke:#000000; stroke-linecap:round; stroke-linejoin:round; stroke-width:4; stroke-opacity:1; fill:none" points="1673.4,322.316 2286.6,322.316 2286.6,166.796 1673.4,166.796 1673.4,322.316 "/>
<polyline clip-path="url(#clip640)" style="stroke:#000000; stroke-linecap:round; stroke-linejoin:round; stroke-width:4; stroke-opacity:1; fill:none" points="1695.45,218.636 1827.77,218.636 "/>
<path clip-path="url(#clip640)" d="M1877.69 204.018 L1877.69 208.948 Q1875.33 206.749 1872.65 205.661 Q1869.99 204.573 1866.98 204.573 Q1861.05 204.573 1857.9 208.208 Q1854.75 211.819 1854.75 218.67 Q1854.75 225.499 1857.9 229.133 Q1861.05 232.744 1866.98 232.744 Q1869.99 232.744 1872.65 231.656 Q1875.33 230.569 1877.69 228.369 L1877.69 233.254 Q1875.24 234.92 1872.48 235.754 Q1869.75 236.587 1866.7 236.587 Q1858.85 236.587 1854.34 231.795 Q1849.82 226.981 1849.82 218.67 Q1849.82 210.337 1854.34 205.546 Q1858.85 200.731 1866.7 200.731 Q1869.8 200.731 1872.53 201.564 Q1875.29 202.374 1877.69 204.018 Z" fill="#000000" fill-rule="nonzero" fill-opacity="1" /><path clip-path="url(#clip640)" d="M1894.78 212.976 Q1891.35 212.976 1889.36 215.661 Q1887.37 218.323 1887.37 222.976 Q1887.37 227.629 1889.34 230.314 Q1891.33 232.976 1894.78 232.976 Q1898.18 232.976 1900.17 230.291 Q1902.16 227.606 1902.16 222.976 Q1902.16 218.37 1900.17 215.684 Q1898.18 212.976 1894.78 212.976 M1894.78 209.365 Q1900.33 209.365 1903.5 212.976 Q1906.67 216.587 1906.67 222.976 Q1906.67 229.342 1903.5 232.976 Q1900.33 236.587 1894.78 236.587 Q1889.2 236.587 1886.03 232.976 Q1882.88 229.342 1882.88 222.976 Q1882.88 216.587 1886.03 212.976 Q1889.2 209.365 1894.78 209.365 Z" fill="#000000" fill-rule="nonzero" fill-opacity="1" /><path clip-path="url(#clip640)" d="M1928.76 213.971 Q1928.04 213.555 1927.18 213.37 Q1926.35 213.161 1925.33 213.161 Q1921.72 213.161 1919.78 215.522 Q1917.86 217.86 1917.86 222.258 L1917.86 235.916 L1913.57 235.916 L1913.57 209.99 L1917.86 209.99 L1917.86 214.018 Q1919.2 211.657 1921.35 210.522 Q1923.5 209.365 1926.58 209.365 Q1927.02 209.365 1927.55 209.434 Q1928.09 209.481 1928.73 209.596 L1928.76 213.971 Z" fill="#000000" fill-rule="nonzero" fill-opacity="1" /><path clip-path="url(#clip640)" d="M1947.42 213.971 Q1946.7 213.555 1945.84 213.37 Q1945.01 213.161 1943.99 213.161 Q1940.38 213.161 1938.43 215.522 Q1936.51 217.86 1936.51 222.258 L1936.51 235.916 L1932.23 235.916 L1932.23 209.99 L1936.51 209.99 L1936.51 214.018 Q1937.86 211.657 1940.01 210.522 Q1942.16 209.365 1945.24 209.365 Q1945.68 209.365 1946.21 209.434 Q1946.74 209.481 1947.39 209.596 L1947.42 213.971 Z" fill="#000000" fill-rule="nonzero" fill-opacity="1" /><path clip-path="url(#clip640)" d="M1973.02 221.888 L1973.02 223.971 L1953.43 223.971 Q1953.71 228.369 1956.07 230.684 Q1958.46 232.976 1962.69 232.976 Q1965.15 232.976 1967.44 232.374 Q1969.75 231.772 1972.02 230.569 L1972.02 234.596 Q1969.73 235.568 1967.32 236.078 Q1964.92 236.587 1962.44 236.587 Q1956.23 236.587 1952.6 232.976 Q1948.99 229.365 1948.99 223.207 Q1948.99 216.842 1952.42 213.115 Q1955.86 209.365 1961.7 209.365 Q1966.93 209.365 1969.96 212.745 Q1973.02 216.101 1973.02 221.888 M1968.76 220.638 Q1968.71 217.143 1966.79 215.059 Q1964.89 212.976 1961.74 212.976 Q1958.18 212.976 1956.03 214.99 Q1953.9 217.004 1953.57 220.661 L1968.76 220.638 Z" fill="#000000" fill-rule="nonzero" fill-opacity="1" /><path clip-path="url(#clip640)" d="M1998.66 210.985 L1998.66 214.967 Q1996.86 213.971 1995.03 213.485 Q1993.23 212.976 1991.37 212.976 Q1987.23 212.976 1984.94 215.615 Q1982.65 218.231 1982.65 222.976 Q1982.65 227.721 1984.94 230.36 Q1987.23 232.976 1991.37 232.976 Q1993.23 232.976 1995.03 232.49 Q1996.86 231.981 1998.66 230.985 L1998.66 234.92 Q1996.88 235.754 1994.96 236.17 Q1993.06 236.587 1990.91 236.587 Q1985.05 236.587 1981.6 232.906 Q1978.16 229.226 1978.16 222.976 Q1978.16 216.633 1981.63 212.999 Q1985.12 209.365 1991.19 209.365 Q1993.16 209.365 1995.03 209.782 Q1996.91 210.175 1998.66 210.985 Z" fill="#000000" fill-rule="nonzero" fill-opacity="1" /><path clip-path="url(#clip640)" d="M2010.29 202.629 L2010.29 209.99 L2019.06 209.99 L2019.06 213.3 L2010.29 213.3 L2010.29 227.374 Q2010.29 230.545 2011.14 231.448 Q2012.02 232.351 2014.68 232.351 L2019.06 232.351 L2019.06 235.916 L2014.68 235.916 Q2009.75 235.916 2007.88 234.087 Q2006 232.235 2006 227.374 L2006 213.3 L2002.88 213.3 L2002.88 209.99 L2006 209.99 L2006 202.629 L2010.29 202.629 Z" fill="#000000" fill-rule="nonzero" fill-opacity="1" /><path clip-path="url(#clip640)" d="M2061.91 221.888 L2061.91 223.971 L2042.32 223.971 Q2042.6 228.369 2044.96 230.684 Q2047.35 232.976 2051.58 232.976 Q2054.03 232.976 2056.33 232.374 Q2058.64 231.772 2060.91 230.569 L2060.91 234.596 Q2058.62 235.568 2056.21 236.078 Q2053.8 236.587 2051.33 236.587 Q2045.12 236.587 2041.49 232.976 Q2037.88 229.365 2037.88 223.207 Q2037.88 216.842 2041.3 213.115 Q2044.75 209.365 2050.59 209.365 Q2055.82 209.365 2058.85 212.745 Q2061.91 216.101 2061.91 221.888 M2057.65 220.638 Q2057.6 217.143 2055.68 215.059 Q2053.78 212.976 2050.63 212.976 Q2047.07 212.976 2044.91 214.99 Q2042.79 217.004 2042.46 220.661 L2057.65 220.638 Z" fill="#000000" fill-rule="nonzero" fill-opacity="1" /><path clip-path="url(#clip640)" d="M2065.84 209.99 L2070.35 209.99 L2078.46 231.749 L2086.56 209.99 L2091.07 209.99 L2081.35 235.916 L2075.56 235.916 L2065.84 209.99 Z" fill="#000000" fill-rule="nonzero" fill-opacity="1" /><path clip-path="url(#clip640)" d="M2119.13 221.888 L2119.13 223.971 L2099.54 223.971 Q2099.82 228.369 2102.18 230.684 Q2104.57 232.976 2108.8 232.976 Q2111.26 232.976 2113.55 232.374 Q2115.86 231.772 2118.13 230.569 L2118.13 234.596 Q2115.84 235.568 2113.43 236.078 Q2111.03 236.587 2108.55 236.587 Q2102.34 236.587 2098.71 232.976 Q2095.1 229.365 2095.1 223.207 Q2095.1 216.842 2098.53 213.115 Q2101.97 209.365 2107.81 209.365 Q2113.04 209.365 2116.07 212.745 Q2119.13 216.101 2119.13 221.888 M2114.87 220.638 Q2114.82 217.143 2112.9 215.059 Q2111 212.976 2107.85 212.976 Q2104.29 212.976 2102.14 214.99 Q2100.01 217.004 2099.68 220.661 L2114.87 220.638 Z" fill="#000000" fill-rule="nonzero" fill-opacity="1" /><path clip-path="url(#clip640)" d="M2147.67 220.268 L2147.67 235.916 L2143.41 235.916 L2143.41 220.407 Q2143.41 216.726 2141.97 214.897 Q2140.54 213.069 2137.67 213.069 Q2134.22 213.069 2132.23 215.268 Q2130.24 217.467 2130.24 221.263 L2130.24 235.916 L2125.96 235.916 L2125.96 209.99 L2130.24 209.99 L2130.24 214.018 Q2131.77 211.68 2133.83 210.522 Q2135.91 209.365 2138.62 209.365 Q2143.09 209.365 2145.38 212.143 Q2147.67 214.897 2147.67 220.268 Z" fill="#000000" fill-rule="nonzero" fill-opacity="1" /><path clip-path="url(#clip640)" d="M2160.38 202.629 L2160.38 209.99 L2169.15 209.99 L2169.15 213.3 L2160.38 213.3 L2160.38 227.374 Q2160.38 230.545 2161.23 231.448 Q2162.11 232.351 2164.78 232.351 L2169.15 232.351 L2169.15 235.916 L2164.78 235.916 Q2159.84 235.916 2157.97 234.087 Q2156.09 232.235 2156.09 227.374 L2156.09 213.3 L2152.97 213.3 L2152.97 209.99 L2156.09 209.99 L2156.09 202.629 L2160.38 202.629 Z" fill="#000000" fill-rule="nonzero" fill-opacity="1" /><path clip-path="url(#clip640)" d="M2191.28 210.754 L2191.28 214.782 Q2189.47 213.856 2187.53 213.393 Q2185.59 212.93 2183.5 212.93 Q2180.33 212.93 2178.73 213.902 Q2177.16 214.874 2177.16 216.819 Q2177.16 218.3 2178.29 219.157 Q2179.43 219.99 2182.85 220.754 L2184.31 221.078 Q2188.85 222.05 2190.75 223.832 Q2192.67 225.592 2192.67 228.763 Q2192.67 232.374 2189.8 234.481 Q2186.95 236.587 2181.95 236.587 Q2179.87 236.587 2177.6 236.17 Q2175.35 235.777 2172.85 234.967 L2172.85 230.569 Q2175.21 231.795 2177.51 232.42 Q2179.8 233.022 2182.04 233.022 Q2185.05 233.022 2186.67 232.004 Q2188.29 230.962 2188.29 229.087 Q2188.29 227.351 2187.11 226.425 Q2185.96 225.499 2182 224.643 L2180.52 224.295 Q2176.56 223.462 2174.8 221.749 Q2173.04 220.013 2173.04 217.004 Q2173.04 213.346 2175.63 211.356 Q2178.22 209.365 2182.99 209.365 Q2185.35 209.365 2187.44 209.712 Q2189.52 210.059 2191.28 210.754 Z" fill="#000000" fill-rule="nonzero" fill-opacity="1" /><polyline clip-path="url(#clip640)" style="stroke:#ff0000; stroke-linecap:round; stroke-linejoin:round; stroke-width:4; stroke-opacity:1; fill:none" points="1695.45,270.476 1827.77,270.476 "/>
<path clip-path="url(#clip640)" d="M1872.07 254.33 L1872.07 258.89 Q1869.41 257.617 1867.05 256.992 Q1864.68 256.367 1862.49 256.367 Q1858.67 256.367 1856.58 257.848 Q1854.52 259.33 1854.52 262.061 Q1854.52 264.353 1855.89 265.534 Q1857.28 266.691 1861.12 267.409 L1863.94 267.987 Q1869.17 268.983 1871.65 271.506 Q1874.15 274.006 1874.15 278.219 Q1874.15 283.242 1870.77 285.834 Q1867.42 288.427 1860.91 288.427 Q1858.46 288.427 1855.68 287.871 Q1852.92 287.316 1849.96 286.228 L1849.96 281.413 Q1852.81 283.01 1855.54 283.821 Q1858.27 284.631 1860.91 284.631 Q1864.92 284.631 1867.09 283.057 Q1869.27 281.483 1869.27 278.566 Q1869.27 276.02 1867.69 274.584 Q1866.14 273.149 1862.58 272.432 L1859.73 271.876 Q1854.5 270.835 1852.16 268.612 Q1849.82 266.39 1849.82 262.432 Q1849.82 257.848 1853.04 255.21 Q1856.28 252.571 1861.95 252.571 Q1864.38 252.571 1866.91 253.011 Q1869.43 253.45 1872.07 254.33 Z" fill="#000000" fill-rule="nonzero" fill-opacity="1" /><path clip-path="url(#clip640)" d="M1885.47 254.469 L1885.47 261.83 L1894.24 261.83 L1894.24 265.14 L1885.47 265.14 L1885.47 279.214 Q1885.47 282.385 1886.33 283.288 Q1887.21 284.191 1889.87 284.191 L1894.24 284.191 L1894.24 287.756 L1889.87 287.756 Q1884.94 287.756 1883.06 285.927 Q1881.19 284.075 1881.19 279.214 L1881.19 265.14 L1878.06 265.14 L1878.06 261.83 L1881.19 261.83 L1881.19 254.469 L1885.47 254.469 Z" fill="#000000" fill-rule="nonzero" fill-opacity="1" /><path clip-path="url(#clip640)" d="M1909.89 264.816 Q1906.47 264.816 1904.48 267.501 Q1902.48 270.163 1902.48 274.816 Q1902.48 279.469 1904.45 282.154 Q1906.44 284.816 1909.89 284.816 Q1913.29 284.816 1915.29 282.131 Q1917.28 279.446 1917.28 274.816 Q1917.28 270.21 1915.29 267.524 Q1913.29 264.816 1909.89 264.816 M1909.89 261.205 Q1915.45 261.205 1918.62 264.816 Q1921.79 268.427 1921.79 274.816 Q1921.79 281.182 1918.62 284.816 Q1915.45 288.427 1909.89 288.427 Q1904.31 288.427 1901.14 284.816 Q1897.99 281.182 1897.99 274.816 Q1897.99 268.427 1901.14 264.816 Q1904.31 261.205 1909.89 261.205 Z" fill="#000000" fill-rule="nonzero" fill-opacity="1" /><path clip-path="url(#clip640)" d="M1947.51 262.825 L1947.51 266.807 Q1945.7 265.811 1943.87 265.325 Q1942.07 264.816 1940.22 264.816 Q1936.07 264.816 1933.78 267.455 Q1931.49 270.071 1931.49 274.816 Q1931.49 279.561 1933.78 282.2 Q1936.07 284.816 1940.22 284.816 Q1942.07 284.816 1943.87 284.33 Q1945.7 283.821 1947.51 282.825 L1947.51 286.76 Q1945.73 287.594 1943.8 288.01 Q1941.91 288.427 1939.75 288.427 Q1933.9 288.427 1930.45 284.746 Q1927 281.066 1927 274.816 Q1927 268.473 1930.47 264.839 Q1933.97 261.205 1940.03 261.205 Q1942 261.205 1943.87 261.622 Q1945.75 262.015 1947.51 262.825 Z" fill="#000000" fill-rule="nonzero" fill-opacity="1" /><path clip-path="url(#clip640)" d="M1976.47 272.108 L1976.47 287.756 L1972.21 287.756 L1972.21 272.247 Q1972.21 268.566 1970.77 266.737 Q1969.34 264.909 1966.47 264.909 Q1963.02 264.909 1961.03 267.108 Q1959.04 269.307 1959.04 273.103 L1959.04 287.756 L1954.75 287.756 L1954.75 251.737 L1959.04 251.737 L1959.04 265.858 Q1960.56 263.52 1962.62 262.362 Q1964.71 261.205 1967.42 261.205 Q1971.88 261.205 1974.17 263.983 Q1976.47 266.737 1976.47 272.108 Z" fill="#000000" fill-rule="nonzero" fill-opacity="1" /><path clip-path="url(#clip640)" d="M1996.74 274.723 Q1991.58 274.723 1989.59 275.904 Q1987.6 277.084 1987.6 279.932 Q1987.6 282.2 1989.08 283.543 Q1990.59 284.862 1993.16 284.862 Q1996.7 284.862 1998.83 282.362 Q2000.98 279.839 2000.98 275.672 L2000.98 274.723 L1996.74 274.723 M2005.24 272.964 L2005.24 287.756 L2000.98 287.756 L2000.98 283.821 Q1999.52 286.182 1997.35 287.316 Q1995.17 288.427 1992.02 288.427 Q1988.04 288.427 1985.68 286.205 Q1983.34 283.959 1983.34 280.209 Q1983.34 275.834 1986.26 273.612 Q1989.2 271.39 1995.01 271.39 L2000.98 271.39 L2000.98 270.973 Q2000.98 268.034 1999.04 266.436 Q1997.11 264.816 1993.62 264.816 Q1991.4 264.816 1989.29 265.348 Q1987.18 265.881 1985.24 266.946 L1985.24 263.01 Q1987.58 262.108 1989.78 261.668 Q1991.98 261.205 1994.06 261.205 Q1999.68 261.205 2002.46 264.122 Q2005.24 267.038 2005.24 272.964 Z" fill="#000000" fill-rule="nonzero" fill-opacity="1" /><path clip-path="url(#clip640)" d="M2030.54 262.594 L2030.54 266.622 Q2028.73 265.696 2026.79 265.233 Q2024.85 264.77 2022.76 264.77 Q2019.59 264.77 2017.99 265.742 Q2016.42 266.714 2016.42 268.659 Q2016.42 270.14 2017.55 270.997 Q2018.69 271.83 2022.11 272.594 L2023.57 272.918 Q2028.11 273.89 2030.01 275.672 Q2031.93 277.432 2031.93 280.603 Q2031.93 284.214 2029.06 286.321 Q2026.21 288.427 2021.21 288.427 Q2019.13 288.427 2016.86 288.01 Q2014.61 287.617 2012.11 286.807 L2012.11 282.409 Q2014.47 283.635 2016.77 284.26 Q2019.06 284.862 2021.3 284.862 Q2024.31 284.862 2025.93 283.844 Q2027.55 282.802 2027.55 280.927 Q2027.55 279.191 2026.37 278.265 Q2025.22 277.339 2021.26 276.483 L2019.78 276.135 Q2015.82 275.302 2014.06 273.589 Q2012.3 271.853 2012.3 268.844 Q2012.3 265.186 2014.89 263.196 Q2017.48 261.205 2022.25 261.205 Q2024.61 261.205 2026.7 261.552 Q2028.78 261.899 2030.54 262.594 Z" fill="#000000" fill-rule="nonzero" fill-opacity="1" /><path clip-path="url(#clip640)" d="M2042.92 254.469 L2042.92 261.83 L2051.7 261.83 L2051.7 265.14 L2042.92 265.14 L2042.92 279.214 Q2042.92 282.385 2043.78 283.288 Q2044.66 284.191 2047.32 284.191 L2051.7 284.191 L2051.7 287.756 L2047.32 287.756 Q2042.39 287.756 2040.52 285.927 Q2038.64 284.075 2038.64 279.214 L2038.64 265.14 L2035.52 265.14 L2035.52 261.83 L2038.64 261.83 L2038.64 254.469 L2042.92 254.469 Z" fill="#000000" fill-rule="nonzero" fill-opacity="1" /><path clip-path="url(#clip640)" d="M2057.3 261.83 L2061.56 261.83 L2061.56 287.756 L2057.3 287.756 L2057.3 261.83 M2057.3 251.737 L2061.56 251.737 L2061.56 257.131 L2057.3 257.131 L2057.3 251.737 Z" fill="#000000" fill-rule="nonzero" fill-opacity="1" /><path clip-path="url(#clip640)" d="M2089.13 262.825 L2089.13 266.807 Q2087.32 265.811 2085.49 265.325 Q2083.69 264.816 2081.84 264.816 Q2077.69 264.816 2075.4 267.455 Q2073.11 270.071 2073.11 274.816 Q2073.11 279.561 2075.4 282.2 Q2077.69 284.816 2081.84 284.816 Q2083.69 284.816 2085.49 284.33 Q2087.32 283.821 2089.13 282.825 L2089.13 286.76 Q2087.34 287.594 2085.42 288.01 Q2083.53 288.427 2081.37 288.427 Q2075.52 288.427 2072.07 284.746 Q2068.62 281.066 2068.62 274.816 Q2068.62 268.473 2072.09 264.839 Q2075.59 261.205 2081.65 261.205 Q2083.62 261.205 2085.49 261.622 Q2087.37 262.015 2089.13 262.825 Z" fill="#000000" fill-rule="nonzero" fill-opacity="1" /><path clip-path="url(#clip640)" d="M2133.78 273.728 L2133.78 275.811 L2114.2 275.811 Q2114.47 280.209 2116.84 282.524 Q2119.22 284.816 2123.46 284.816 Q2125.91 284.816 2128.2 284.214 Q2130.52 283.612 2132.78 282.409 L2132.78 286.436 Q2130.49 287.408 2128.09 287.918 Q2125.68 288.427 2123.2 288.427 Q2117 288.427 2113.36 284.816 Q2109.75 281.205 2109.75 275.047 Q2109.75 268.682 2113.18 264.955 Q2116.63 261.205 2122.46 261.205 Q2127.69 261.205 2130.72 264.585 Q2133.78 267.941 2133.78 273.728 M2129.52 272.478 Q2129.47 268.983 2127.55 266.899 Q2125.65 264.816 2122.51 264.816 Q2118.94 264.816 2116.79 266.83 Q2114.66 268.844 2114.34 272.501 L2129.52 272.478 Z" fill="#000000" fill-rule="nonzero" fill-opacity="1" /><path clip-path="url(#clip640)" d="M2137.72 261.83 L2142.23 261.83 L2150.33 283.589 L2158.43 261.83 L2162.95 261.83 L2153.22 287.756 L2147.44 287.756 L2137.72 261.83 Z" fill="#000000" fill-rule="nonzero" fill-opacity="1" /><path clip-path="url(#clip640)" d="M2191 273.728 L2191 275.811 L2171.42 275.811 Q2171.7 280.209 2174.06 282.524 Q2176.44 284.816 2180.68 284.816 Q2183.13 284.816 2185.42 284.214 Q2187.74 283.612 2190.01 282.409 L2190.01 286.436 Q2187.71 287.408 2185.31 287.918 Q2182.9 288.427 2180.42 288.427 Q2174.22 288.427 2170.59 284.816 Q2166.97 281.205 2166.97 275.047 Q2166.97 268.682 2170.4 264.955 Q2173.85 261.205 2179.68 261.205 Q2184.91 261.205 2187.95 264.585 Q2191 267.941 2191 273.728 M2186.74 272.478 Q2186.7 268.983 2184.77 266.899 Q2182.88 264.816 2179.73 264.816 Q2176.16 264.816 2174.01 266.83 Q2171.88 268.844 2171.56 272.501 L2186.74 272.478 Z" fill="#000000" fill-rule="nonzero" fill-opacity="1" /><path clip-path="url(#clip640)" d="M2219.54 272.108 L2219.54 287.756 L2215.28 287.756 L2215.28 272.247 Q2215.28 268.566 2213.85 266.737 Q2212.41 264.909 2209.54 264.909 Q2206.09 264.909 2204.1 267.108 Q2202.11 269.307 2202.11 273.103 L2202.11 287.756 L2197.83 287.756 L2197.83 261.83 L2202.11 261.83 L2202.11 265.858 Q2203.64 263.52 2205.7 262.362 Q2207.78 261.205 2210.49 261.205 Q2214.96 261.205 2217.25 263.983 Q2219.54 266.737 2219.54 272.108 Z" fill="#000000" fill-rule="nonzero" fill-opacity="1" /><path clip-path="url(#clip640)" d="M2232.25 254.469 L2232.25 261.83 L2241.02 261.83 L2241.02 265.14 L2232.25 265.14 L2232.25 279.214 Q2232.25 282.385 2233.11 283.288 Q2233.99 284.191 2236.65 284.191 L2241.02 284.191 L2241.02 287.756 L2236.65 287.756 Q2231.72 287.756 2229.84 285.927 Q2227.97 284.075 2227.97 279.214 L2227.97 265.14 L2224.84 265.14 L2224.84 261.83 L2227.97 261.83 L2227.97 254.469 L2232.25 254.469 Z" fill="#000000" fill-rule="nonzero" fill-opacity="1" /><path clip-path="url(#clip640)" d="M2263.15 262.594 L2263.15 266.622 Q2261.35 265.696 2259.4 265.233 Q2257.46 264.77 2255.38 264.77 Q2252.21 264.77 2250.61 265.742 Q2249.03 266.714 2249.03 268.659 Q2249.03 270.14 2250.17 270.997 Q2251.3 271.83 2254.73 272.594 L2256.19 272.918 Q2260.72 273.89 2262.62 275.672 Q2264.54 277.432 2264.54 280.603 Q2264.54 284.214 2261.67 286.321 Q2258.83 288.427 2253.83 288.427 Q2251.74 288.427 2249.47 288.01 Q2247.23 287.617 2244.73 286.807 L2244.73 282.409 Q2247.09 283.635 2249.38 284.26 Q2251.67 284.862 2253.92 284.862 Q2256.93 284.862 2258.55 283.844 Q2260.17 282.802 2260.17 280.927 Q2260.17 279.191 2258.99 278.265 Q2257.83 277.339 2253.87 276.483 L2252.39 276.135 Q2248.43 275.302 2246.67 273.589 Q2244.91 271.853 2244.91 268.844 Q2244.91 265.186 2247.51 263.196 Q2250.1 261.205 2254.87 261.205 Q2257.23 261.205 2259.31 261.552 Q2261.39 261.899 2263.15 262.594 Z" fill="#000000" fill-rule="nonzero" fill-opacity="1" /></svg>
