<?xml version="1.0" encoding="utf-8"?>
<svg xmlns="http://www.w3.org/2000/svg" xmlns:xlink="http://www.w3.org/1999/xlink" width="600" height="400" viewBox="0 0 2400 1600">
<defs>
  <clipPath id="clip700">
    <rect x="0" y="0" width="2400" height="1600"/>
  </clipPath>
</defs>
<path clip-path="url(#clip700)" d="M0 1600 L2400 1600 L2400 0 L0 0  Z" fill="#ffffff" fill-rule="evenodd" fill-opacity="1"/>
<defs>
  <clipPath id="clip701">
    <rect x="480" y="0" width="1681" height="1600"/>
  </clipPath>
</defs>
<path clip-path="url(#clip700)" d="M232.389 1423.18 L2352.76 1423.18 L2352.76 123.472 L232.389 123.472  Z" fill="#ffffff" fill-rule="evenodd" fill-opacity="1"/>
<defs>
  <clipPath id="clip702">
    <rect x="232" y="123" width="2121" height="1301"/>
  </clipPath>
</defs>
<polyline clip-path="url(#clip702)" style="stroke:#000000; stroke-linecap:round; stroke-linejoin:round; stroke-width:2; stroke-opacity:0.1; fill:none" points="292.4,1423.18 292.4,123.472 "/>
<polyline clip-path="url(#clip702)" style="stroke:#000000; stroke-linecap:round; stroke-linejoin:round; stroke-width:2; stroke-opacity:0.1; fill:none" points="705.694,1423.18 705.694,123.472 "/>
<polyline clip-path="url(#clip702)" style="stroke:#000000; stroke-linecap:round; stroke-linejoin:round; stroke-width:2; stroke-opacity:0.1; fill:none" points="1118.99,1423.18 1118.99,123.472 "/>
<polyline clip-path="url(#clip702)" style="stroke:#000000; stroke-linecap:round; stroke-linejoin:round; stroke-width:2; stroke-opacity:0.1; fill:none" points="1532.28,1423.18 1532.28,123.472 "/>
<polyline clip-path="url(#clip702)" style="stroke:#000000; stroke-linecap:round; stroke-linejoin:round; stroke-width:2; stroke-opacity:0.1; fill:none" points="1945.58,1423.18 1945.58,123.472 "/>
<polyline clip-path="url(#clip702)" style="stroke:#000000; stroke-linecap:round; stroke-linejoin:round; stroke-width:2; stroke-opacity:0.1; fill:none" points="232.389,1386.4 2352.76,1386.4 "/>
<polyline clip-path="url(#clip702)" style="stroke:#000000; stroke-linecap:round; stroke-linejoin:round; stroke-width:2; stroke-opacity:0.1; fill:none" points="232.389,988.298 2352.76,988.298 "/>
<polyline clip-path="url(#clip702)" style="stroke:#000000; stroke-linecap:round; stroke-linejoin:round; stroke-width:2; stroke-opacity:0.1; fill:none" points="232.389,590.201 2352.76,590.201 "/>
<polyline clip-path="url(#clip702)" style="stroke:#000000; stroke-linecap:round; stroke-linejoin:round; stroke-width:2; stroke-opacity:0.1; fill:none" points="232.389,192.104 2352.76,192.104 "/>
<polyline clip-path="url(#clip700)" style="stroke:#000000; stroke-linecap:round; stroke-linejoin:round; stroke-width:4; stroke-opacity:1; fill:none" points="232.389,1423.18 2352.76,1423.18 "/>
<polyline clip-path="url(#clip700)" style="stroke:#000000; stroke-linecap:round; stroke-linejoin:round; stroke-width:4; stroke-opacity:1; fill:none" points="292.4,1423.18 292.4,1404.28 "/>
<polyline clip-path="url(#clip700)" style="stroke:#000000; stroke-linecap:round; stroke-linejoin:round; stroke-width:4; stroke-opacity:1; fill:none" points="705.694,1423.18 705.694,1404.28 "/>
<polyline clip-path="url(#clip700)" style="stroke:#000000; stroke-linecap:round; stroke-linejoin:round; stroke-width:4; stroke-opacity:1; fill:none" points="1118.99,1423.18 1118.99,1404.28 "/>
<polyline clip-path="url(#clip700)" style="stroke:#000000; stroke-linecap:round; stroke-linejoin:round; stroke-width:4; stroke-opacity:1; fill:none" points="1532.28,1423.18 1532.28,1404.28 "/>
<polyline clip-path="url(#clip700)" style="stroke:#000000; stroke-linecap:round; stroke-linejoin:round; stroke-width:4; stroke-opacity:1; fill:none" points="1945.58,1423.18 1945.58,1404.28 "/>
<path clip-path="url(#clip700)" d="M292.4 1454.1 Q288.789 1454.1 286.96 1457.66 Q285.154 1461.2 285.154 1468.33 Q285.154 1475.44 286.96 1479.01 Q288.789 1482.55 292.4 1482.55 Q296.034 1482.55 297.84 1479.01 Q299.668 1475.44 299.668 1468.33 Q299.668 1461.2 297.84 1457.66 Q296.034 1454.1 292.4 1454.1 M292.4 1450.39 Q298.21 1450.39 301.265 1455 Q304.344 1459.58 304.344 1468.33 Q304.344 1477.06 301.265 1481.67 Q298.21 1486.25 292.4 1486.25 Q286.59 1486.25 283.511 1481.67 Q280.455 1477.06 280.455 1468.33 Q280.455 1459.58 283.511 1455 Q286.59 1450.39 292.4 1450.39 Z" fill="#000000" fill-rule="nonzero" fill-opacity="1" /><path clip-path="url(#clip700)" d="M680.394 1451.02 L698.75 1451.02 L698.75 1454.96 L684.676 1454.96 L684.676 1463.43 Q685.694 1463.08 686.713 1462.92 Q687.731 1462.73 688.75 1462.73 Q694.537 1462.73 697.917 1465.9 Q701.296 1469.08 701.296 1474.49 Q701.296 1480.07 697.824 1483.17 Q694.352 1486.25 688.032 1486.25 Q685.856 1486.25 683.588 1485.88 Q681.343 1485.51 678.935 1484.77 L678.935 1480.07 Q681.019 1481.2 683.241 1481.76 Q685.463 1482.32 687.94 1482.32 Q691.944 1482.32 694.282 1480.21 Q696.62 1478.1 696.62 1474.49 Q696.62 1470.88 694.282 1468.77 Q691.944 1466.67 687.94 1466.67 Q686.065 1466.67 684.19 1467.08 Q682.338 1467.5 680.394 1468.38 L680.394 1451.02 Z" fill="#000000" fill-rule="nonzero" fill-opacity="1" /><path clip-path="url(#clip700)" d="M720.509 1454.1 Q716.898 1454.1 715.069 1457.66 Q713.264 1461.2 713.264 1468.33 Q713.264 1475.44 715.069 1479.01 Q716.898 1482.55 720.509 1482.55 Q724.143 1482.55 725.949 1479.01 Q727.778 1475.44 727.778 1468.33 Q727.778 1461.2 725.949 1457.66 Q724.143 1454.1 720.509 1454.1 M720.509 1450.39 Q726.319 1450.39 729.375 1455 Q732.453 1459.58 732.453 1468.33 Q732.453 1477.06 729.375 1481.67 Q726.319 1486.25 720.509 1486.25 Q714.699 1486.25 711.62 1481.67 Q708.565 1477.06 708.565 1468.33 Q708.565 1459.58 711.62 1455 Q714.699 1450.39 720.509 1450.39 Z" fill="#000000" fill-rule="nonzero" fill-opacity="1" /><path clip-path="url(#clip700)" d="M1078.6 1481.64 L1086.23 1481.64 L1086.23 1455.28 L1077.92 1456.95 L1077.92 1452.69 L1086.19 1451.02 L1090.86 1451.02 L1090.86 1481.64 L1098.5 1481.64 L1098.5 1485.58 L1078.6 1485.58 L1078.6 1481.64 Z" fill="#000000" fill-rule="nonzero" fill-opacity="1" /><path clip-path="url(#clip700)" d="M1117.95 1454.1 Q1114.34 1454.1 1112.51 1457.66 Q1110.7 1461.2 1110.7 1468.33 Q1110.7 1475.44 1112.51 1479.01 Q1114.34 1482.55 1117.95 1482.55 Q1121.58 1482.55 1123.39 1479.01 Q1125.22 1475.44 1125.22 1468.33 Q1125.22 1461.2 1123.39 1457.66 Q1121.58 1454.1 1117.95 1454.1 M1117.95 1450.39 Q1123.76 1450.39 1126.81 1455 Q1129.89 1459.58 1129.89 1468.33 Q1129.89 1477.06 1126.81 1481.67 Q1123.76 1486.25 1117.95 1486.25 Q1112.14 1486.25 1109.06 1481.67 Q1106 1477.06 1106 1468.33 Q1106 1459.58 1109.06 1455 Q1112.14 1450.39 1117.95 1450.39 Z" fill="#000000" fill-rule="nonzero" fill-opacity="1" /><path clip-path="url(#clip700)" d="M1148.11 1454.1 Q1144.5 1454.1 1142.67 1457.66 Q1140.86 1461.2 1140.86 1468.33 Q1140.86 1475.44 1142.67 1479.01 Q1144.5 1482.55 1148.11 1482.55 Q1151.74 1482.55 1153.55 1479.01 Q1155.38 1475.44 1155.38 1468.33 Q1155.38 1461.2 1153.55 1457.66 Q1151.74 1454.1 1148.11 1454.1 M1148.11 1450.39 Q1153.92 1450.39 1156.97 1455 Q1160.05 1459.58 1160.05 1468.33 Q1160.05 1477.06 1156.97 1481.67 Q1153.92 1486.25 1148.11 1486.25 Q1142.3 1486.25 1139.22 1481.67 Q1136.16 1477.06 1136.16 1468.33 Q1136.16 1459.58 1139.22 1455 Q1142.3 1450.39 1148.11 1450.39 Z" fill="#000000" fill-rule="nonzero" fill-opacity="1" /><path clip-path="url(#clip700)" d="M1491.89 1481.64 L1499.53 1481.64 L1499.53 1455.28 L1491.22 1456.95 L1491.22 1452.69 L1499.48 1451.02 L1504.16 1451.02 L1504.16 1481.64 L1511.8 1481.64 L1511.8 1485.58 L1491.89 1485.58 L1491.89 1481.64 Z" fill="#000000" fill-rule="nonzero" fill-opacity="1" /><path clip-path="url(#clip700)" d="M1521.29 1451.02 L1539.64 1451.02 L1539.64 1454.96 L1525.57 1454.96 L1525.57 1463.43 Q1526.59 1463.08 1527.61 1462.92 Q1528.63 1462.73 1529.64 1462.73 Q1535.43 1462.73 1538.81 1465.9 Q1542.19 1469.08 1542.19 1474.49 Q1542.19 1480.07 1538.72 1483.17 Q1535.25 1486.25 1528.93 1486.25 Q1526.75 1486.25 1524.48 1485.88 Q1522.24 1485.51 1519.83 1484.77 L1519.83 1480.07 Q1521.91 1481.2 1524.14 1481.76 Q1526.36 1482.32 1528.83 1482.32 Q1532.84 1482.32 1535.18 1480.21 Q1537.51 1478.1 1537.51 1474.49 Q1537.51 1470.88 1535.18 1468.77 Q1532.84 1466.67 1528.83 1466.67 Q1526.96 1466.67 1525.08 1467.08 Q1523.23 1467.5 1521.29 1468.38 L1521.29 1451.02 Z" fill="#000000" fill-rule="nonzero" fill-opacity="1" /><path clip-path="url(#clip700)" d="M1561.4 1454.1 Q1557.79 1454.1 1555.96 1457.66 Q1554.16 1461.2 1554.16 1468.33 Q1554.16 1475.44 1555.96 1479.01 Q1557.79 1482.55 1561.4 1482.55 Q1565.04 1482.55 1566.84 1479.01 Q1568.67 1475.44 1568.67 1468.33 Q1568.67 1461.2 1566.84 1457.66 Q1565.04 1454.1 1561.4 1454.1 M1561.4 1450.39 Q1567.21 1450.39 1570.27 1455 Q1573.35 1459.58 1573.35 1468.33 Q1573.35 1477.06 1570.27 1481.67 Q1567.21 1486.25 1561.4 1486.25 Q1555.59 1486.25 1552.51 1481.67 Q1549.46 1477.06 1549.46 1468.33 Q1549.46 1459.58 1552.51 1455 Q1555.59 1450.39 1561.4 1450.39 Z" fill="#000000" fill-rule="nonzero" fill-opacity="1" /><path clip-path="url(#clip700)" d="M1909.27 1481.64 L1925.59 1481.64 L1925.59 1485.58 L1903.65 1485.58 L1903.65 1481.64 Q1906.31 1478.89 1910.89 1474.26 Q1915.5 1469.61 1916.68 1468.27 Q1918.92 1465.74 1919.8 1464.01 Q1920.71 1462.25 1920.71 1460.56 Q1920.71 1457.8 1918.76 1456.07 Q1916.84 1454.33 1913.74 1454.33 Q1911.54 1454.33 1909.09 1455.09 Q1906.65 1455.86 1903.88 1457.41 L1903.88 1452.69 Q1906.7 1451.55 1909.15 1450.97 Q1911.61 1450.39 1913.65 1450.39 Q1919.02 1450.39 1922.21 1453.08 Q1925.4 1455.77 1925.4 1460.26 Q1925.4 1462.39 1924.59 1464.31 Q1923.81 1466.2 1921.7 1468.8 Q1921.12 1469.47 1918.02 1472.69 Q1914.92 1475.88 1909.27 1481.64 Z" fill="#000000" fill-rule="nonzero" fill-opacity="1" /><path clip-path="url(#clip700)" d="M1945.4 1454.1 Q1941.79 1454.1 1939.96 1457.66 Q1938.16 1461.2 1938.16 1468.33 Q1938.16 1475.44 1939.96 1479.01 Q1941.79 1482.55 1945.4 1482.55 Q1949.04 1482.55 1950.84 1479.01 Q1952.67 1475.44 1952.67 1468.33 Q1952.67 1461.2 1950.84 1457.66 Q1949.04 1454.1 1945.4 1454.1 M1945.4 1450.39 Q1951.21 1450.39 1954.27 1455 Q1957.35 1459.58 1957.35 1468.33 Q1957.35 1477.06 1954.27 1481.67 Q1951.21 1486.25 1945.4 1486.25 Q1939.59 1486.25 1936.52 1481.67 Q1933.46 1477.06 1933.46 1468.33 Q1933.46 1459.58 1936.52 1455 Q1939.59 1450.39 1945.4 1450.39 Z" fill="#000000" fill-rule="nonzero" fill-opacity="1" /><path clip-path="url(#clip700)" d="M1975.57 1454.1 Q1971.96 1454.1 1970.13 1457.66 Q1968.32 1461.2 1968.32 1468.33 Q1968.32 1475.44 1970.13 1479.01 Q1971.96 1482.55 1975.57 1482.55 Q1979.2 1482.55 1981.01 1479.01 Q1982.83 1475.44 1982.83 1468.33 Q1982.83 1461.2 1981.01 1457.66 Q1979.2 1454.1 1975.57 1454.1 M1975.57 1450.39 Q1981.38 1450.39 1984.43 1455 Q1987.51 1459.58 1987.51 1468.33 Q1987.51 1477.06 1984.43 1481.67 Q1981.38 1486.25 1975.57 1486.25 Q1969.76 1486.25 1966.68 1481.67 Q1963.62 1477.06 1963.62 1468.33 Q1963.62 1459.58 1966.68 1455 Q1969.76 1450.39 1975.57 1450.39 Z" fill="#000000" fill-rule="nonzero" fill-opacity="1" /><path clip-path="url(#clip700)" d="M794.647 1524.18 L794.647 1530.96 Q791.401 1527.94 787.708 1526.44 Q784.048 1524.95 779.91 1524.95 Q771.762 1524.95 767.434 1529.95 Q763.105 1534.91 763.105 1544.33 Q763.105 1553.72 767.434 1558.72 Q771.762 1563.68 779.91 1563.68 Q784.048 1563.68 787.708 1562.19 Q791.401 1560.69 794.647 1557.67 L794.647 1564.38 Q791.273 1566.68 787.486 1567.82 Q783.73 1568.97 779.529 1568.97 Q768.739 1568.97 762.532 1562.38 Q756.325 1555.76 756.325 1544.33 Q756.325 1532.87 762.532 1526.28 Q768.739 1519.66 779.529 1519.66 Q783.794 1519.66 787.549 1520.81 Q791.337 1521.92 794.647 1524.18 Z" fill="#000000" fill-rule="nonzero" fill-opacity="1" /><path clip-path="url(#clip700)" d="M820.524 1550.12 Q813.426 1550.12 810.689 1551.75 Q807.951 1553.37 807.951 1557.29 Q807.951 1560.4 809.988 1562.25 Q812.057 1564.07 815.59 1564.07 Q820.46 1564.07 823.388 1560.63 Q826.348 1557.16 826.348 1551.43 L826.348 1550.12 L820.524 1550.12 M832.205 1547.71 L832.205 1568.04 L826.348 1568.04 L826.348 1562.63 Q824.343 1565.88 821.351 1567.44 Q818.359 1568.97 814.031 1568.97 Q808.556 1568.97 805.31 1565.91 Q802.095 1562.82 802.095 1557.67 Q802.095 1551.65 806.105 1548.6 Q810.148 1545.54 818.137 1545.54 L826.348 1545.54 L826.348 1544.97 Q826.348 1540.93 823.675 1538.73 Q821.033 1536.5 816.227 1536.5 Q813.171 1536.5 810.275 1537.23 Q807.378 1537.97 804.705 1539.43 L804.705 1534.02 Q807.92 1532.78 810.943 1532.17 Q813.967 1531.54 816.832 1531.54 Q824.566 1531.54 828.385 1535.55 Q832.205 1539.56 832.205 1547.71 Z" fill="#000000" fill-rule="nonzero" fill-opacity="1" /><path clip-path="url(#clip700)" d="M844.268 1518.52 L850.124 1518.52 L850.124 1568.04 L844.268 1568.04 L844.268 1518.52 Z" fill="#000000" fill-rule="nonzero" fill-opacity="1" /><path clip-path="url(#clip700)" d="M888.032 1533.76 L888.032 1539.24 Q885.549 1537.87 883.035 1537.2 Q880.552 1536.5 878.006 1536.5 Q872.309 1536.5 869.158 1540.13 Q866.007 1543.73 866.007 1550.25 Q866.007 1556.78 869.158 1560.4 Q872.309 1564 878.006 1564 Q880.552 1564 883.035 1563.33 Q885.549 1562.63 888.032 1561.26 L888.032 1566.68 Q885.581 1567.82 882.939 1568.39 Q880.329 1568.97 877.369 1568.97 Q869.317 1568.97 864.574 1563.91 Q859.832 1558.85 859.832 1550.25 Q859.832 1541.53 864.606 1536.53 Q869.412 1531.54 877.751 1531.54 Q880.457 1531.54 883.035 1532.11 Q885.613 1532.65 888.032 1533.76 Z" fill="#000000" fill-rule="nonzero" fill-opacity="1" /><path clip-path="url(#clip700)" d="M897.612 1553.98 L897.612 1532.4 L903.469 1532.4 L903.469 1553.75 Q903.469 1558.81 905.442 1561.36 Q907.416 1563.87 911.362 1563.87 Q916.105 1563.87 918.842 1560.85 Q921.611 1557.83 921.611 1552.61 L921.611 1532.4 L927.468 1532.4 L927.468 1568.04 L921.611 1568.04 L921.611 1562.57 Q919.479 1565.82 916.646 1567.41 Q913.845 1568.97 910.121 1568.97 Q903.978 1568.97 900.795 1565.15 Q897.612 1561.33 897.612 1553.98 M912.349 1531.54 L912.349 1531.54 Z" fill="#000000" fill-rule="nonzero" fill-opacity="1" /><path clip-path="url(#clip700)" d="M939.531 1518.52 L945.387 1518.52 L945.387 1568.04 L939.531 1568.04 L939.531 1518.52 Z" fill="#000000" fill-rule="nonzero" fill-opacity="1" /><path clip-path="url(#clip700)" d="M973.842 1550.12 Q966.744 1550.12 964.007 1551.75 Q961.269 1553.37 961.269 1557.29 Q961.269 1560.4 963.306 1562.25 Q965.375 1564.07 968.908 1564.07 Q973.778 1564.07 976.706 1560.63 Q979.666 1557.16 979.666 1551.43 L979.666 1550.12 L973.842 1550.12 M985.523 1547.71 L985.523 1568.04 L979.666 1568.04 L979.666 1562.63 Q977.661 1565.88 974.669 1567.44 Q971.677 1568.97 967.349 1568.97 Q961.874 1568.97 958.628 1565.91 Q955.413 1562.82 955.413 1557.67 Q955.413 1551.65 959.423 1548.6 Q963.466 1545.54 971.455 1545.54 L979.666 1545.54 L979.666 1544.97 Q979.666 1540.93 976.993 1538.73 Q974.351 1536.5 969.545 1536.5 Q966.489 1536.5 963.593 1537.23 Q960.697 1537.97 958.023 1539.43 L958.023 1534.02 Q961.238 1532.78 964.261 1532.17 Q967.285 1531.54 970.15 1531.54 Q977.884 1531.54 981.703 1535.55 Q985.523 1539.56 985.523 1547.71 Z" fill="#000000" fill-rule="nonzero" fill-opacity="1" /><path clip-path="url(#clip700)" d="M1003.38 1522.27 L1003.38 1532.4 L1015.44 1532.4 L1015.44 1536.95 L1003.38 1536.95 L1003.38 1556.3 Q1003.38 1560.66 1004.56 1561.9 Q1005.77 1563.14 1009.43 1563.14 L1015.44 1563.14 L1015.44 1568.04 L1009.43 1568.04 Q1002.65 1568.04 1000.07 1565.53 Q997.49 1562.98 997.49 1556.3 L997.49 1536.95 L993.193 1536.95 L993.193 1532.4 L997.49 1532.4 L997.49 1522.27 L1003.38 1522.27 Z" fill="#000000" fill-rule="nonzero" fill-opacity="1" /><path clip-path="url(#clip700)" d="M1053.64 1548.76 L1053.64 1551.62 L1026.71 1551.62 Q1027.09 1557.67 1030.34 1560.85 Q1033.62 1564 1039.44 1564 Q1042.81 1564 1045.97 1563.17 Q1049.15 1562.35 1052.27 1560.69 L1052.27 1566.23 Q1049.12 1567.57 1045.81 1568.27 Q1042.5 1568.97 1039.09 1568.97 Q1030.56 1568.97 1025.56 1564 Q1020.6 1559.04 1020.6 1550.57 Q1020.6 1541.82 1025.31 1536.69 Q1030.05 1531.54 1038.07 1531.54 Q1045.26 1531.54 1049.43 1536.18 Q1053.64 1540.8 1053.64 1548.76 M1047.78 1547.04 Q1047.72 1542.23 1045.07 1539.37 Q1042.46 1536.5 1038.14 1536.5 Q1033.23 1536.5 1030.27 1539.27 Q1027.35 1542.04 1026.9 1547.07 L1047.78 1547.04 Z" fill="#000000" fill-rule="nonzero" fill-opacity="1" /><path clip-path="url(#clip700)" d="M1086.71 1537.81 L1086.71 1518.52 L1092.56 1518.52 L1092.56 1568.04 L1086.71 1568.04 L1086.71 1562.7 Q1084.86 1565.88 1082.03 1567.44 Q1079.23 1568.97 1075.28 1568.97 Q1068.82 1568.97 1064.74 1563.81 Q1060.7 1558.65 1060.7 1550.25 Q1060.7 1541.85 1064.74 1536.69 Q1068.82 1531.54 1075.28 1531.54 Q1079.23 1531.54 1082.03 1533.1 Q1084.86 1534.62 1086.71 1537.81 M1066.75 1550.25 Q1066.75 1556.71 1069.39 1560.4 Q1072.06 1564.07 1076.71 1564.07 Q1081.36 1564.07 1084.03 1560.4 Q1086.71 1556.71 1086.71 1550.25 Q1086.71 1543.79 1084.03 1540.13 Q1081.36 1536.44 1076.71 1536.44 Q1072.06 1536.44 1069.39 1540.13 Q1066.75 1543.79 1066.75 1550.25 Z" fill="#000000" fill-rule="nonzero" fill-opacity="1" /><path clip-path="url(#clip700)" d="M1154.98 1546.53 L1154.98 1568.04 L1149.12 1568.04 L1149.12 1546.72 Q1149.12 1541.66 1147.15 1539.14 Q1145.17 1536.63 1141.23 1536.63 Q1136.49 1536.63 1133.75 1539.65 Q1131.01 1542.68 1131.01 1547.9 L1131.01 1568.04 L1125.12 1568.04 L1125.12 1532.4 L1131.01 1532.4 L1131.01 1537.93 Q1133.11 1534.72 1135.94 1533.13 Q1138.81 1531.54 1142.53 1531.54 Q1148.68 1531.54 1151.83 1535.36 Q1154.98 1539.14 1154.98 1546.53 Z" fill="#000000" fill-rule="nonzero" fill-opacity="1" /><path clip-path="url(#clip700)" d="M1197.15 1548.76 L1197.15 1551.62 L1170.22 1551.62 Q1170.61 1557.67 1173.85 1560.85 Q1177.13 1564 1182.96 1564 Q1186.33 1564 1189.48 1563.17 Q1192.66 1562.35 1195.78 1560.69 L1195.78 1566.23 Q1192.63 1567.57 1189.32 1568.27 Q1186.01 1568.97 1182.61 1568.97 Q1174.07 1568.97 1169.08 1564 Q1164.11 1559.04 1164.11 1550.57 Q1164.11 1541.82 1168.82 1536.69 Q1173.57 1531.54 1181.59 1531.54 Q1188.78 1531.54 1192.95 1536.18 Q1197.15 1540.8 1197.15 1548.76 M1191.29 1547.04 Q1191.23 1542.23 1188.59 1539.37 Q1185.98 1536.5 1181.65 1536.5 Q1176.75 1536.5 1173.79 1539.27 Q1170.86 1542.04 1170.41 1547.07 L1191.29 1547.04 Z" fill="#000000" fill-rule="nonzero" fill-opacity="1" /><path clip-path="url(#clip700)" d="M1206.16 1553.98 L1206.16 1532.4 L1212.01 1532.4 L1212.01 1553.75 Q1212.01 1558.81 1213.99 1561.36 Q1215.96 1563.87 1219.91 1563.87 Q1224.65 1563.87 1227.39 1560.85 Q1230.16 1557.83 1230.16 1552.61 L1230.16 1532.4 L1236.01 1532.4 L1236.01 1568.04 L1230.16 1568.04 L1230.16 1562.57 Q1228.02 1565.82 1225.19 1567.41 Q1222.39 1568.97 1218.67 1568.97 Q1212.52 1568.97 1209.34 1565.15 Q1206.16 1561.33 1206.16 1553.98 M1220.89 1531.54 L1220.89 1531.54 Z" fill="#000000" fill-rule="nonzero" fill-opacity="1" /><path clip-path="url(#clip700)" d="M1253.87 1522.27 L1253.87 1532.4 L1265.93 1532.4 L1265.93 1536.95 L1253.87 1536.95 L1253.87 1556.3 Q1253.87 1560.66 1255.05 1561.9 Q1256.26 1563.14 1259.92 1563.14 L1265.93 1563.14 L1265.93 1568.04 L1259.92 1568.04 Q1253.14 1568.04 1250.56 1565.53 Q1247.98 1562.98 1247.98 1556.3 L1247.98 1536.95 L1243.68 1536.95 L1243.68 1532.4 L1247.98 1532.4 L1247.98 1522.27 L1253.87 1522.27 Z" fill="#000000" fill-rule="nonzero" fill-opacity="1" /><path clip-path="url(#clip700)" d="M1294.29 1537.87 Q1293.3 1537.3 1292.13 1537.04 Q1290.98 1536.76 1289.58 1536.76 Q1284.62 1536.76 1281.94 1540 Q1279.3 1543.22 1279.3 1549.27 L1279.3 1568.04 L1273.41 1568.04 L1273.41 1532.4 L1279.3 1532.4 L1279.3 1537.93 Q1281.15 1534.69 1284.11 1533.13 Q1287.07 1531.54 1291.3 1531.54 Q1291.9 1531.54 1292.64 1531.63 Q1293.37 1531.7 1294.26 1531.85 L1294.29 1537.87 Z" fill="#000000" fill-rule="nonzero" fill-opacity="1" /><path clip-path="url(#clip700)" d="M1312.82 1536.5 Q1308.1 1536.5 1305.37 1540.19 Q1302.63 1543.85 1302.63 1550.25 Q1302.63 1556.65 1305.34 1560.34 Q1308.07 1564 1312.82 1564 Q1317.49 1564 1320.23 1560.31 Q1322.97 1556.62 1322.97 1550.25 Q1322.97 1543.92 1320.23 1540.23 Q1317.49 1536.5 1312.82 1536.5 M1312.82 1531.54 Q1320.45 1531.54 1324.81 1536.5 Q1329.18 1541.47 1329.18 1550.25 Q1329.18 1559 1324.81 1564 Q1320.45 1568.97 1312.82 1568.97 Q1305.14 1568.97 1300.78 1564 Q1296.46 1559 1296.46 1550.25 Q1296.46 1541.47 1300.78 1536.5 Q1305.14 1531.54 1312.82 1531.54 Z" fill="#000000" fill-rule="nonzero" fill-opacity="1" /><path clip-path="url(#clip700)" d="M1368.52 1546.53 L1368.52 1568.04 L1362.66 1568.04 L1362.66 1546.72 Q1362.66 1541.66 1360.69 1539.14 Q1358.71 1536.63 1354.77 1536.63 Q1350.02 1536.63 1347.29 1539.65 Q1344.55 1542.68 1344.55 1547.9 L1344.55 1568.04 L1338.66 1568.04 L1338.66 1532.4 L1344.55 1532.4 L1344.55 1537.93 Q1346.65 1534.72 1349.48 1533.13 Q1352.35 1531.54 1356.07 1531.54 Q1362.21 1531.54 1365.36 1535.36 Q1368.52 1539.14 1368.52 1546.53 Z" fill="#000000" fill-rule="nonzero" fill-opacity="1" /><path clip-path="url(#clip700)" d="M1431.41 1548.76 L1431.41 1551.62 L1404.48 1551.62 Q1404.86 1557.67 1408.11 1560.85 Q1411.39 1564 1417.21 1564 Q1420.59 1564 1423.74 1563.17 Q1426.92 1562.35 1430.04 1560.69 L1430.04 1566.23 Q1426.89 1567.57 1423.58 1568.27 Q1420.27 1568.97 1416.86 1568.97 Q1408.33 1568.97 1403.34 1564 Q1398.37 1559.04 1398.37 1550.57 Q1398.37 1541.82 1403.08 1536.69 Q1407.82 1531.54 1415.84 1531.54 Q1423.04 1531.54 1427.21 1536.18 Q1431.41 1540.8 1431.41 1548.76 M1425.55 1547.04 Q1425.49 1542.23 1422.85 1539.37 Q1420.24 1536.5 1415.91 1536.5 Q1411.01 1536.5 1408.05 1539.27 Q1405.12 1542.04 1404.67 1547.07 L1425.55 1547.04 Z" fill="#000000" fill-rule="nonzero" fill-opacity="1" /><path clip-path="url(#clip700)" d="M1470.65 1546.53 L1470.65 1568.04 L1464.8 1568.04 L1464.8 1546.72 Q1464.8 1541.66 1462.82 1539.14 Q1460.85 1536.63 1456.9 1536.63 Q1452.16 1536.63 1449.42 1539.65 Q1446.69 1542.68 1446.69 1547.9 L1446.69 1568.04 L1440.8 1568.04 L1440.8 1532.4 L1446.69 1532.4 L1446.69 1537.93 Q1448.79 1534.72 1451.62 1533.13 Q1454.48 1531.54 1458.21 1531.54 Q1464.35 1531.54 1467.5 1535.36 Q1470.65 1539.14 1470.65 1546.53 Z" fill="#000000" fill-rule="nonzero" fill-opacity="1" /><path clip-path="url(#clip700)" d="M1512.83 1548.76 L1512.83 1551.62 L1485.9 1551.62 Q1486.28 1557.67 1489.53 1560.85 Q1492.81 1564 1498.63 1564 Q1502 1564 1505.16 1563.17 Q1508.34 1562.35 1511.46 1560.69 L1511.46 1566.23 Q1508.31 1567.57 1505 1568.27 Q1501.69 1568.97 1498.28 1568.97 Q1489.75 1568.97 1484.75 1564 Q1479.79 1559.04 1479.79 1550.57 Q1479.79 1541.82 1484.5 1536.69 Q1489.24 1531.54 1497.26 1531.54 Q1504.46 1531.54 1508.62 1536.18 Q1512.83 1540.8 1512.83 1548.76 M1506.97 1547.04 Q1506.91 1542.23 1504.26 1539.37 Q1501.65 1536.5 1497.33 1536.5 Q1492.42 1536.5 1489.46 1539.27 Q1486.54 1542.04 1486.09 1547.07 L1506.97 1547.04 Z" fill="#000000" fill-rule="nonzero" fill-opacity="1" /><path clip-path="url(#clip700)" d="M1543.1 1537.87 Q1542.11 1537.3 1540.93 1537.04 Q1539.78 1536.76 1538.38 1536.76 Q1533.42 1536.76 1530.75 1540 Q1528.1 1543.22 1528.1 1549.27 L1528.1 1568.04 L1522.22 1568.04 L1522.22 1532.4 L1528.1 1532.4 L1528.1 1537.93 Q1529.95 1534.69 1532.91 1533.13 Q1535.87 1531.54 1540.1 1531.54 Q1540.71 1531.54 1541.44 1531.63 Q1542.17 1531.7 1543.06 1531.85 L1543.1 1537.87 Z" fill="#000000" fill-rule="nonzero" fill-opacity="1" /><path clip-path="url(#clip700)" d="M1571.55 1549.81 Q1571.55 1543.44 1568.91 1539.94 Q1566.3 1536.44 1561.56 1536.44 Q1556.84 1536.44 1554.2 1539.94 Q1551.59 1543.44 1551.59 1549.81 Q1551.59 1556.14 1554.2 1559.64 Q1556.84 1563.14 1561.56 1563.14 Q1566.3 1563.14 1568.91 1559.64 Q1571.55 1556.14 1571.55 1549.81 M1577.41 1563.62 Q1577.41 1572.72 1573.36 1577.15 Q1569.32 1581.6 1560.98 1581.6 Q1557.9 1581.6 1555.16 1581.13 Q1552.42 1580.68 1549.84 1579.72 L1549.84 1574.03 Q1552.42 1575.43 1554.94 1576.1 Q1557.45 1576.76 1560.06 1576.76 Q1565.82 1576.76 1568.69 1573.74 Q1571.55 1570.75 1571.55 1564.67 L1571.55 1561.77 Q1569.74 1564.92 1566.9 1566.48 Q1564.07 1568.04 1560.12 1568.04 Q1553.57 1568.04 1549.56 1563.05 Q1545.55 1558.05 1545.55 1549.81 Q1545.55 1541.53 1549.56 1536.53 Q1553.57 1531.54 1560.12 1531.54 Q1564.07 1531.54 1566.9 1533.1 Q1569.74 1534.66 1571.55 1537.81 L1571.55 1532.4 L1577.41 1532.4 L1577.41 1563.62 Z" fill="#000000" fill-rule="nonzero" fill-opacity="1" /><path clip-path="url(#clip700)" d="M1604.3 1571.35 Q1601.82 1577.72 1599.46 1579.66 Q1597.11 1581.6 1593.16 1581.6 L1588.48 1581.6 L1588.48 1576.7 L1591.92 1576.7 Q1594.34 1576.7 1595.68 1575.56 Q1597.01 1574.41 1598.64 1570.14 L1599.69 1567.47 L1585.27 1532.4 L1591.47 1532.4 L1602.61 1560.28 L1613.75 1532.4 L1619.96 1532.4 L1604.3 1571.35 Z" fill="#000000" fill-rule="nonzero" fill-opacity="1" /><path clip-path="url(#clip700)" d="M1662.83 1518.58 Q1658.57 1525.9 1656.5 1533.06 Q1654.43 1540.23 1654.43 1547.58 Q1654.43 1554.93 1656.5 1562.16 Q1658.6 1569.35 1662.83 1576.64 L1657.74 1576.64 Q1652.97 1569.16 1650.58 1561.93 Q1648.22 1554.71 1648.22 1547.58 Q1648.22 1540.48 1650.58 1533.29 Q1652.94 1526.09 1657.74 1518.58 L1662.83 1518.58 Z" fill="#000000" fill-rule="nonzero" fill-opacity="1" /><path clip-path="url(#clip700)" d="M1674.45 1520.52 L1684.03 1520.52 L1696.16 1552.86 L1708.35 1520.52 L1717.93 1520.52 L1717.93 1568.04 L1711.66 1568.04 L1711.66 1526.32 L1699.4 1558.91 L1692.94 1558.91 L1680.69 1526.32 L1680.69 1568.04 L1674.45 1568.04 L1674.45 1520.52 Z" fill="#000000" fill-rule="nonzero" fill-opacity="1" /><path clip-path="url(#clip700)" d="M1760.93 1548.76 L1760.93 1551.62 L1734 1551.62 Q1734.38 1557.67 1737.63 1560.85 Q1740.91 1564 1746.73 1564 Q1750.11 1564 1753.26 1563.17 Q1756.44 1562.35 1759.56 1560.69 L1759.56 1566.23 Q1756.41 1567.57 1753.1 1568.27 Q1749.79 1568.97 1746.38 1568.97 Q1737.85 1568.97 1732.86 1564 Q1727.89 1559.04 1727.89 1550.57 Q1727.89 1541.82 1732.6 1536.69 Q1737.34 1531.54 1745.37 1531.54 Q1752.56 1531.54 1756.73 1536.18 Q1760.93 1540.8 1760.93 1548.76 M1755.07 1547.04 Q1755.01 1542.23 1752.37 1539.37 Q1749.76 1536.5 1745.43 1536.5 Q1740.53 1536.5 1737.57 1539.27 Q1734.64 1542.04 1734.19 1547.07 L1755.07 1547.04 Z" fill="#000000" fill-rule="nonzero" fill-opacity="1" /><path clip-path="url(#clip700)" d="M1783.05 1568.04 L1764.91 1520.52 L1771.62 1520.52 L1786.68 1560.53 L1801.77 1520.52 L1808.45 1520.52 L1790.34 1568.04 L1783.05 1568.04 Z" fill="#000000" fill-rule="nonzero" fill-opacity="1" /><path clip-path="url(#clip700)" d="M1814.21 1518.58 L1819.3 1518.58 Q1824.08 1526.09 1826.43 1533.29 Q1828.82 1540.48 1828.82 1547.58 Q1828.82 1554.71 1826.43 1561.93 Q1824.08 1569.16 1819.3 1576.64 L1814.21 1576.64 Q1818.44 1569.35 1820.51 1562.16 Q1822.61 1554.93 1822.61 1547.58 Q1822.61 1540.23 1820.51 1533.06 Q1818.44 1525.9 1814.21 1518.58 Z" fill="#000000" fill-rule="nonzero" fill-opacity="1" /><polyline clip-path="url(#clip700)" style="stroke:#000000; stroke-linecap:round; stroke-linejoin:round; stroke-width:4; stroke-opacity:1; fill:none" points="232.389,1423.18 232.389,123.472 "/>
<polyline clip-path="url(#clip700)" style="stroke:#000000; stroke-linecap:round; stroke-linejoin:round; stroke-width:4; stroke-opacity:1; fill:none" points="232.389,1386.4 251.287,1386.4 "/>
<polyline clip-path="url(#clip700)" style="stroke:#000000; stroke-linecap:round; stroke-linejoin:round; stroke-width:4; stroke-opacity:1; fill:none" points="232.389,988.298 251.287,988.298 "/>
<polyline clip-path="url(#clip700)" style="stroke:#000000; stroke-linecap:round; stroke-linejoin:round; stroke-width:4; stroke-opacity:1; fill:none" points="232.389,590.201 251.287,590.201 "/>
<polyline clip-path="url(#clip700)" style="stroke:#000000; stroke-linecap:round; stroke-linejoin:round; stroke-width:4; stroke-opacity:1; fill:none" points="232.389,192.104 251.287,192.104 "/>
<path clip-path="url(#clip700)" d="M184.445 1372.19 Q180.834 1372.19 179.005 1375.76 Q177.2 1379.3 177.2 1386.43 Q177.2 1393.54 179.005 1397.1 Q180.834 1400.64 184.445 1400.64 Q188.079 1400.64 189.885 1397.1 Q191.713 1393.54 191.713 1386.43 Q191.713 1379.3 189.885 1375.76 Q188.079 1372.19 184.445 1372.19 M184.445 1368.49 Q190.255 1368.49 193.311 1373.1 Q196.389 1377.68 196.389 1386.43 Q196.389 1395.16 193.311 1399.76 Q190.255 1404.35 184.445 1404.35 Q178.635 1404.35 175.556 1399.76 Q172.501 1395.16 172.501 1386.43 Q172.501 1377.68 175.556 1373.1 Q178.635 1368.49 184.445 1368.49 Z" fill="#000000" fill-rule="nonzero" fill-opacity="1" /><path clip-path="url(#clip700)" d="M144.329 971.018 L162.686 971.018 L162.686 974.954 L148.612 974.954 L148.612 983.426 Q149.63 983.079 150.649 982.917 Q151.667 982.731 152.686 982.731 Q158.473 982.731 161.852 985.903 Q165.232 989.074 165.232 994.491 Q165.232 1000.07 161.76 1003.17 Q158.288 1006.25 151.968 1006.25 Q149.792 1006.25 147.524 1005.88 Q145.279 1005.51 142.871 1004.77 L142.871 1000.07 Q144.954 1001.2 147.177 1001.76 Q149.399 1002.31 151.876 1002.31 Q155.88 1002.31 158.218 1000.21 Q160.556 998.102 160.556 994.491 Q160.556 990.879 158.218 988.773 Q155.88 986.667 151.876 986.667 Q150.001 986.667 148.126 987.083 Q146.274 987.5 144.329 988.379 L144.329 971.018 Z" fill="#000000" fill-rule="nonzero" fill-opacity="1" /><path clip-path="url(#clip700)" d="M184.445 974.097 Q180.834 974.097 179.005 977.662 Q177.2 981.204 177.2 988.333 Q177.2 995.44 179.005 999.004 Q180.834 1002.55 184.445 1002.55 Q188.079 1002.55 189.885 999.004 Q191.713 995.44 191.713 988.333 Q191.713 981.204 189.885 977.662 Q188.079 974.097 184.445 974.097 M184.445 970.393 Q190.255 970.393 193.311 975 Q196.389 979.583 196.389 988.333 Q196.389 997.06 193.311 1001.67 Q190.255 1006.25 184.445 1006.25 Q178.635 1006.25 175.556 1001.67 Q172.501 997.06 172.501 988.333 Q172.501 979.583 175.556 975 Q178.635 970.393 184.445 970.393 Z" fill="#000000" fill-rule="nonzero" fill-opacity="1" /><path clip-path="url(#clip700)" d="M114.931 603.546 L122.57 603.546 L122.57 577.181 L114.26 578.847 L114.26 574.588 L122.524 572.921 L127.2 572.921 L127.2 603.546 L134.839 603.546 L134.839 607.481 L114.931 607.481 L114.931 603.546 Z" fill="#000000" fill-rule="nonzero" fill-opacity="1" /><path clip-path="url(#clip700)" d="M154.283 576 Q150.672 576 148.843 579.565 Q147.038 583.106 147.038 590.236 Q147.038 597.342 148.843 600.907 Q150.672 604.449 154.283 604.449 Q157.917 604.449 159.723 600.907 Q161.552 597.342 161.552 590.236 Q161.552 583.106 159.723 579.565 Q157.917 576 154.283 576 M154.283 572.296 Q160.093 572.296 163.149 576.903 Q166.227 581.486 166.227 590.236 Q166.227 598.963 163.149 603.569 Q160.093 608.153 154.283 608.153 Q148.473 608.153 145.394 603.569 Q142.339 598.963 142.339 590.236 Q142.339 581.486 145.394 576.903 Q148.473 572.296 154.283 572.296 Z" fill="#000000" fill-rule="nonzero" fill-opacity="1" /><path clip-path="url(#clip700)" d="M184.445 576 Q180.834 576 179.005 579.565 Q177.2 583.106 177.2 590.236 Q177.2 597.342 179.005 600.907 Q180.834 604.449 184.445 604.449 Q188.079 604.449 189.885 600.907 Q191.713 597.342 191.713 590.236 Q191.713 583.106 189.885 579.565 Q188.079 576 184.445 576 M184.445 572.296 Q190.255 572.296 193.311 576.903 Q196.389 581.486 196.389 590.236 Q196.389 598.963 193.311 603.569 Q190.255 608.153 184.445 608.153 Q178.635 608.153 175.556 603.569 Q172.501 598.963 172.501 590.236 Q172.501 581.486 175.556 576.903 Q178.635 572.296 184.445 572.296 Z" fill="#000000" fill-rule="nonzero" fill-opacity="1" /><path clip-path="url(#clip700)" d="M114.931 205.449 L122.57 205.449 L122.57 179.083 L114.26 180.75 L114.26 176.491 L122.524 174.824 L127.2 174.824 L127.2 205.449 L134.839 205.449 L134.839 209.384 L114.931 209.384 L114.931 205.449 Z" fill="#000000" fill-rule="nonzero" fill-opacity="1" /><path clip-path="url(#clip700)" d="M144.329 174.824 L162.686 174.824 L162.686 178.759 L148.612 178.759 L148.612 187.231 Q149.63 186.884 150.649 186.722 Q151.667 186.537 152.686 186.537 Q158.473 186.537 161.852 189.708 Q165.232 192.88 165.232 198.296 Q165.232 203.875 161.76 206.977 Q158.288 210.055 151.968 210.055 Q149.792 210.055 147.524 209.685 Q145.279 209.315 142.871 208.574 L142.871 203.875 Q144.954 205.009 147.177 205.565 Q149.399 206.12 151.876 206.12 Q155.88 206.12 158.218 204.014 Q160.556 201.907 160.556 198.296 Q160.556 194.685 158.218 192.579 Q155.88 190.472 151.876 190.472 Q150.001 190.472 148.126 190.889 Q146.274 191.305 144.329 192.185 L144.329 174.824 Z" fill="#000000" fill-rule="nonzero" fill-opacity="1" /><path clip-path="url(#clip700)" d="M184.445 177.903 Q180.834 177.903 179.005 181.468 Q177.2 185.009 177.2 192.139 Q177.2 199.245 179.005 202.81 Q180.834 206.352 184.445 206.352 Q188.079 206.352 189.885 202.81 Q191.713 199.245 191.713 192.139 Q191.713 185.009 189.885 181.468 Q188.079 177.903 184.445 177.903 M184.445 174.199 Q190.255 174.199 193.311 178.806 Q196.389 183.389 196.389 192.139 Q196.389 200.866 193.311 205.472 Q190.255 210.055 184.445 210.055 Q178.635 210.055 175.556 205.472 Q172.501 200.866 172.501 192.139 Q172.501 183.389 175.556 178.806 Q178.635 174.199 184.445 174.199 Z" fill="#000000" fill-rule="nonzero" fill-opacity="1" /><path clip-path="url(#clip700)" d="M20.1444 845.354 L26.9239 845.354 Q23.9002 848.6 22.4043 852.293 Q20.9083 855.953 20.9083 860.091 Q20.9083 868.239 25.9054 872.567 Q30.8707 876.896 40.2919 876.896 Q49.6813 876.896 54.6784 872.567 Q59.6436 868.239 59.6436 860.091 Q59.6436 855.953 58.1477 852.293 Q56.6518 848.6 53.6281 845.354 L60.3439 845.354 Q62.6355 848.728 63.7814 852.515 Q64.9272 856.271 64.9272 860.473 Q64.9272 871.262 58.3387 877.469 Q51.7183 883.676 40.2919 883.676 Q28.8336 883.676 22.2451 877.469 Q15.6248 871.262 15.6248 860.473 Q15.6248 856.207 16.7706 852.452 Q17.8846 848.664 20.1444 845.354 Z" fill="#000000" fill-rule="nonzero" fill-opacity="1" /><path clip-path="url(#clip700)" d="M32.4621 821.864 Q32.4621 826.575 36.1542 829.312 Q39.8145 832.05 46.212 832.05 Q52.6095 832.05 56.3017 829.344 Q59.9619 826.607 59.9619 821.864 Q59.9619 817.186 56.2698 814.448 Q52.5777 811.711 46.212 811.711 Q39.8781 811.711 36.186 814.448 Q32.4621 817.186 32.4621 821.864 M27.4968 821.864 Q27.4968 814.226 32.4621 809.865 Q37.4273 805.505 46.212 805.505 Q54.9649 805.505 59.9619 809.865 Q64.9272 814.226 64.9272 821.864 Q64.9272 829.535 59.9619 833.896 Q54.9649 838.224 46.212 838.224 Q37.4273 838.224 32.4621 833.896 Q27.4968 829.535 27.4968 821.864 Z" fill="#000000" fill-rule="nonzero" fill-opacity="1" /><path clip-path="url(#clip700)" d="M49.9359 796.402 L28.3562 796.402 L28.3562 790.545 L49.7131 790.545 Q54.7739 790.545 57.3202 788.572 Q59.8346 786.598 59.8346 782.652 Q59.8346 777.909 56.8109 775.172 Q53.7872 772.403 48.5673 772.403 L28.3562 772.403 L28.3562 766.547 L64.0042 766.547 L64.0042 772.403 L58.5296 772.403 Q61.7762 774.535 63.3676 777.368 Q64.9272 780.169 64.9272 783.893 Q64.9272 790.036 61.1078 793.219 Q57.2883 796.402 49.9359 796.402 M27.4968 781.665 L27.4968 781.665 Z" fill="#000000" fill-rule="nonzero" fill-opacity="1" /><path clip-path="url(#clip700)" d="M42.4881 724.851 L64.0042 724.851 L64.0042 730.708 L42.679 730.708 Q37.6183 730.708 35.1038 732.681 Q32.5894 734.654 32.5894 738.601 Q32.5894 743.344 35.6131 746.081 Q38.6368 748.818 43.8567 748.818 L64.0042 748.818 L64.0042 754.706 L28.3562 754.706 L28.3562 748.818 L33.8944 748.818 Q30.6797 746.717 29.0883 743.885 Q27.4968 741.02 27.4968 737.296 Q27.4968 731.153 31.3163 728.002 Q35.1038 724.851 42.4881 724.851 Z" fill="#000000" fill-rule="nonzero" fill-opacity="1" /><path clip-path="url(#clip700)" d="M18.2347 707.377 L28.3562 707.377 L28.3562 695.314 L32.9077 695.314 L32.9077 707.377 L52.2594 707.377 Q56.6199 707.377 57.8613 706.2 Q59.1026 704.99 59.1026 701.33 L59.1026 695.314 L64.0042 695.314 L64.0042 701.33 Q64.0042 708.109 61.4897 710.687 Q58.9434 713.266 52.2594 713.266 L32.9077 713.266 L32.9077 717.562 L28.3562 717.562 L28.3562 713.266 L18.2347 713.266 L18.2347 707.377 Z" fill="#000000" fill-rule="nonzero" fill-opacity="1" /><path clip-path="url(#clip700)" d="M29.4065 664.886 L34.9447 664.886 Q33.6716 667.369 33.035 670.042 Q32.3984 672.716 32.3984 675.581 Q32.3984 679.941 33.7352 682.137 Q35.072 684.302 37.7456 684.302 Q39.7826 684.302 40.9603 682.742 Q42.1061 681.182 43.1565 676.472 L43.6021 674.467 Q44.9389 668.228 47.3897 665.618 Q49.8086 662.976 54.1691 662.976 Q59.1344 662.976 62.0308 666.923 Q64.9272 670.838 64.9272 677.713 Q64.9272 680.578 64.3543 683.697 Q63.8132 686.784 62.6992 690.222 L56.6518 690.222 Q58.3387 686.975 59.198 683.824 Q60.0256 680.673 60.0256 677.586 Q60.0256 673.448 58.6251 671.22 Q57.1929 668.992 54.6147 668.992 Q52.2276 668.992 50.9545 670.615 Q49.6813 672.207 48.5037 677.649 L48.0262 679.686 Q46.8804 685.129 44.5251 687.548 Q42.138 689.967 38.0002 689.967 Q32.9713 689.967 30.2341 686.402 Q27.4968 682.837 27.4968 676.281 Q27.4968 673.034 27.9743 670.17 Q28.4517 667.305 29.4065 664.886 Z" fill="#000000" fill-rule="nonzero" fill-opacity="1" /><path clip-path="url(#clip700)" d="M778.574 65.6895 L807.133 65.6895 L807.133 72.576 L768.73 72.576 L768.73 65.6895 Q773.388 60.8689 781.409 52.7671 Q789.471 44.6248 791.537 42.2752 Q795.466 37.8598 797.005 34.8216 Q798.585 31.7429 798.585 28.7857 Q798.585 23.9651 795.182 20.927 Q791.82 17.8888 786.392 17.8888 Q782.544 17.8888 778.25 19.2256 Q773.996 20.5624 769.135 23.2765 L769.135 15.0127 Q774.077 13.0277 778.371 12.015 Q782.665 11.0023 786.23 11.0023 Q795.628 11.0023 801.218 15.7013 Q806.808 20.4004 806.808 28.2591 Q806.808 31.9859 805.391 35.3482 Q804.013 38.6699 800.327 43.2069 Q799.314 44.3817 793.886 50.0125 Q788.458 55.6027 778.574 65.6895 Z" fill="#000000" fill-rule="nonzero" fill-opacity="1" /><path clip-path="url(#clip700)" d="M824.308 62.2867 L832.856 62.2867 L832.856 72.576 L824.308 72.576 L824.308 62.2867 Z" fill="#000000" fill-rule="nonzero" fill-opacity="1" /><path clip-path="url(#clip700)" d="M848.614 12.096 L887.502 12.096 L887.502 15.5798 L865.547 72.576 L856.999 72.576 L877.659 18.9825 L848.614 18.9825 L848.614 12.096 Z" fill="#000000" fill-rule="nonzero" fill-opacity="1" /><path clip-path="url(#clip700)" d="M903.544 12.096 L935.668 12.096 L935.668 18.9825 L911.038 18.9825 L911.038 33.8088 Q912.821 33.2012 914.603 32.9176 Q916.385 32.5936 918.168 32.5936 Q928.295 32.5936 934.209 38.1433 Q940.124 43.6931 940.124 53.1722 Q940.124 62.9348 934.047 68.3631 Q927.971 73.7508 916.912 73.7508 Q913.104 73.7508 909.134 73.1026 Q905.205 72.4545 900.992 71.1582 L900.992 62.9348 Q904.638 64.9198 908.527 65.892 Q912.416 66.8642 916.75 66.8642 Q923.758 66.8642 927.849 63.1779 Q931.941 59.4916 931.941 53.1722 Q931.941 46.8528 927.849 43.1664 Q923.758 39.4801 916.75 39.4801 Q913.469 39.4801 910.188 40.2093 Q906.947 40.9384 903.544 42.4778 L903.544 12.096 Z" fill="#000000" fill-rule="nonzero" fill-opacity="1" /><path clip-path="url(#clip700)" d="M994.001 48.0275 L994.001 51.6733 L959.73 51.6733 Q960.216 59.3701 964.348 63.421 Q968.521 67.4314 975.934 67.4314 Q980.228 67.4314 984.238 66.3781 Q988.289 65.3249 992.259 63.2184 L992.259 70.267 Q988.248 71.9684 984.036 72.8596 Q979.823 73.7508 975.488 73.7508 Q964.632 73.7508 958.272 67.4314 Q951.952 61.1119 951.952 50.3365 Q951.952 39.1965 957.948 32.6746 Q963.984 26.1121 974.192 26.1121 Q983.347 26.1121 988.654 32.0264 Q994.001 37.9003 994.001 48.0275 M986.547 45.84 Q986.466 39.7232 983.104 36.0774 Q979.782 32.4315 974.273 32.4315 Q968.034 32.4315 964.267 35.9558 Q960.54 39.4801 959.973 45.8805 L986.547 45.84 Z" fill="#000000" fill-rule="nonzero" fill-opacity="1" /><path clip-path="url(#clip700)" d="M1025.8 39.075 Q1020.29 39.075 1017.05 42.8424 Q1013.85 46.6097 1013.85 53.1722 Q1013.85 59.6941 1017.05 63.502 Q1020.29 67.2693 1025.8 67.2693 Q1031.31 67.2693 1034.51 63.502 Q1037.75 59.6941 1037.75 53.1722 Q1037.75 46.6097 1034.51 42.8424 Q1031.31 39.075 1025.8 39.075 M1042.04 13.4328 L1042.04 20.8865 Q1038.97 19.4281 1035.81 18.6585 Q1032.69 17.8888 1029.61 17.8888 Q1021.51 17.8888 1017.21 23.3575 Q1012.96 28.8262 1012.35 39.8852 Q1014.74 36.3609 1018.35 34.4975 Q1021.95 32.5936 1026.29 32.5936 Q1035.4 32.5936 1040.67 38.1433 Q1045.97 43.6525 1045.97 53.1722 Q1045.97 62.4892 1040.46 68.12 Q1034.96 73.7508 1025.8 73.7508 Q1015.31 73.7508 1009.76 65.73 Q1004.21 57.6687 1004.21 42.3968 Q1004.21 28.0566 1011.01 19.5497 Q1017.82 11.0023 1029.28 11.0023 Q1032.36 11.0023 1035.48 11.6099 Q1038.64 12.2175 1042.04 13.4328 Z" fill="#000000" fill-rule="nonzero" fill-opacity="1" /><path clip-path="url(#clip700)" d="M1123.1 45.1919 L1123.1 72.576 L1115.65 72.576 L1115.65 45.4349 Q1115.65 38.994 1113.14 35.7938 Q1110.63 32.5936 1105.6 32.5936 Q1099.57 32.5936 1096.08 36.4419 Q1092.6 40.2903 1092.6 46.9338 L1092.6 72.576 L1085.11 72.576 L1085.11 27.2059 L1092.6 27.2059 L1092.6 34.2544 Q1095.27 30.163 1098.88 28.1376 Q1102.52 26.1121 1107.26 26.1121 Q1115.08 26.1121 1119.09 30.9732 Q1123.1 35.7938 1123.1 45.1919 Z" fill="#000000" fill-rule="nonzero" fill-opacity="1" /><path clip-path="url(#clip700)" d="M1176.78 48.0275 L1176.78 51.6733 L1142.51 51.6733 Q1142.99 59.3701 1147.12 63.421 Q1151.3 67.4314 1158.71 67.4314 Q1163 67.4314 1167.01 66.3781 Q1171.07 65.3249 1175.04 63.2184 L1175.04 70.267 Q1171.03 71.9684 1166.81 72.8596 Q1162.6 73.7508 1158.26 73.7508 Q1147.41 73.7508 1141.05 67.4314 Q1134.73 61.1119 1134.73 50.3365 Q1134.73 39.1965 1140.72 32.6746 Q1146.76 26.1121 1156.97 26.1121 Q1166.12 26.1121 1171.43 32.0264 Q1176.78 37.9003 1176.78 48.0275 M1169.32 45.84 Q1169.24 39.7232 1165.88 36.0774 Q1162.56 32.4315 1157.05 32.4315 Q1150.81 32.4315 1147.04 35.9558 Q1143.32 39.4801 1142.75 45.8805 L1169.32 45.84 Z" fill="#000000" fill-rule="nonzero" fill-opacity="1" /><path clip-path="url(#clip700)" d="M1188.24 54.671 L1188.24 27.2059 L1195.7 27.2059 L1195.7 54.3874 Q1195.7 60.8284 1198.21 64.0691 Q1200.72 67.2693 1205.74 67.2693 Q1211.78 67.2693 1215.26 63.421 Q1218.79 59.5726 1218.79 52.9291 L1218.79 27.2059 L1226.24 27.2059 L1226.24 72.576 L1218.79 72.576 L1218.79 65.6084 Q1216.07 69.7404 1212.47 71.7658 Q1208.9 73.7508 1204.16 73.7508 Q1196.34 73.7508 1192.29 68.8897 Q1188.24 64.0286 1188.24 54.671 M1207 26.1121 L1207 26.1121 Z" fill="#000000" fill-rule="nonzero" fill-opacity="1" /><path clip-path="url(#clip700)" d="M1248.96 14.324 L1248.96 27.2059 L1264.32 27.2059 L1264.32 32.9987 L1248.96 32.9987 L1248.96 57.6282 Q1248.96 63.1779 1250.46 64.7578 Q1252 66.3376 1256.66 66.3376 L1264.32 66.3376 L1264.32 72.576 L1256.66 72.576 Q1248.03 72.576 1244.75 69.3758 Q1241.47 66.1351 1241.47 57.6282 L1241.47 32.9987 L1236 32.9987 L1236 27.2059 L1241.47 27.2059 L1241.47 14.324 L1248.96 14.324 Z" fill="#000000" fill-rule="nonzero" fill-opacity="1" /><path clip-path="url(#clip700)" d="M1300.41 34.1734 Q1299.16 33.4443 1297.66 33.1202 Q1296.2 32.7556 1294.42 32.7556 Q1288.1 32.7556 1284.69 36.8875 Q1281.33 40.9789 1281.33 48.6757 L1281.33 72.576 L1273.84 72.576 L1273.84 27.2059 L1281.33 27.2059 L1281.33 34.2544 Q1283.68 30.1225 1287.45 28.1376 Q1291.22 26.1121 1296.6 26.1121 Q1297.37 26.1121 1298.3 26.2337 Q1299.24 26.3147 1300.37 26.5172 L1300.41 34.1734 Z" fill="#000000" fill-rule="nonzero" fill-opacity="1" /><path clip-path="url(#clip700)" d="M1323.99 32.4315 Q1317.99 32.4315 1314.51 37.1306 Q1311.02 41.7891 1311.02 49.9314 Q1311.02 58.0738 1314.47 62.7728 Q1317.95 67.4314 1323.99 67.4314 Q1329.94 67.4314 1333.43 62.7323 Q1336.91 58.0333 1336.91 49.9314 Q1336.91 41.8701 1333.43 37.1711 Q1329.94 32.4315 1323.99 32.4315 M1323.99 26.1121 Q1333.71 26.1121 1339.26 32.4315 Q1344.81 38.7509 1344.81 49.9314 Q1344.81 61.0714 1339.26 67.4314 Q1333.71 73.7508 1323.99 73.7508 Q1314.22 73.7508 1308.67 67.4314 Q1303.17 61.0714 1303.17 49.9314 Q1303.17 38.7509 1308.67 32.4315 Q1314.22 26.1121 1323.99 26.1121 Z" fill="#000000" fill-rule="nonzero" fill-opacity="1" /><path clip-path="url(#clip700)" d="M1394.88 45.1919 L1394.88 72.576 L1387.42 72.576 L1387.42 45.4349 Q1387.42 38.994 1384.91 35.7938 Q1382.4 32.5936 1377.38 32.5936 Q1371.34 32.5936 1367.86 36.4419 Q1364.37 40.2903 1364.37 46.9338 L1364.37 72.576 L1356.88 72.576 L1356.88 27.2059 L1364.37 27.2059 L1364.37 34.2544 Q1367.05 30.163 1370.65 28.1376 Q1374.3 26.1121 1379.04 26.1121 Q1386.86 26.1121 1390.87 30.9732 Q1394.88 35.7938 1394.88 45.1919 Z" fill="#000000" fill-rule="nonzero" fill-opacity="1" /><path clip-path="url(#clip700)" d="M1438.67 28.5427 L1438.67 35.5912 Q1435.51 33.9709 1432.11 33.1607 Q1428.7 32.3505 1425.06 32.3505 Q1419.51 32.3505 1416.71 34.0519 Q1413.96 35.7533 1413.96 39.156 Q1413.96 41.7486 1415.94 43.2475 Q1417.93 44.7058 1423.92 46.0426 L1426.48 46.6097 Q1434.42 48.3111 1437.74 51.4303 Q1441.1 54.509 1441.1 60.0587 Q1441.1 66.3781 1436.08 70.0644 Q1431.09 73.7508 1422.34 73.7508 Q1418.7 73.7508 1414.73 73.0216 Q1410.8 72.3329 1406.42 70.9151 L1406.42 63.2184 Q1410.56 65.3654 1414.57 66.4591 Q1418.58 67.5124 1422.51 67.5124 Q1427.77 67.5124 1430.61 65.73 Q1433.44 63.9071 1433.44 60.6258 Q1433.44 57.5877 1431.38 55.9673 Q1429.35 54.3469 1422.42 52.8481 L1419.83 52.2405 Q1412.9 50.7821 1409.83 47.7845 Q1406.75 44.7463 1406.75 39.4801 Q1406.75 33.0797 1411.28 29.5959 Q1415.82 26.1121 1424.17 26.1121 Q1428.3 26.1121 1431.94 26.7198 Q1435.59 27.3274 1438.67 28.5427 Z" fill="#000000" fill-rule="nonzero" fill-opacity="1" /><path clip-path="url(#clip700)" d="M1508.26 28.5427 L1508.26 35.5912 Q1505.1 33.9709 1501.7 33.1607 Q1498.3 32.3505 1494.65 32.3505 Q1489.1 32.3505 1486.31 34.0519 Q1483.55 35.7533 1483.55 39.156 Q1483.55 41.7486 1485.54 43.2475 Q1487.52 44.7058 1493.52 46.0426 L1496.07 46.6097 Q1504.01 48.3111 1507.33 51.4303 Q1510.69 54.509 1510.69 60.0587 Q1510.69 66.3781 1505.67 70.0644 Q1500.69 73.7508 1491.94 73.7508 Q1488.29 73.7508 1484.32 73.0216 Q1480.39 72.3329 1476.02 70.9151 L1476.02 63.2184 Q1480.15 65.3654 1484.16 66.4591 Q1488.17 67.5124 1492.1 67.5124 Q1497.37 67.5124 1500.2 65.73 Q1503.04 63.9071 1503.04 60.6258 Q1503.04 57.5877 1500.97 55.9673 Q1498.95 54.3469 1492.02 52.8481 L1489.43 52.2405 Q1482.5 50.7821 1479.42 47.7845 Q1476.34 44.7463 1476.34 39.4801 Q1476.34 33.0797 1480.88 29.5959 Q1485.42 26.1121 1493.76 26.1121 Q1497.89 26.1121 1501.54 26.7198 Q1505.18 27.3274 1508.26 28.5427 Z" fill="#000000" fill-rule="nonzero" fill-opacity="1" /><path clip-path="url(#clip700)" d="M1520.29 29.0288 L1552.99 29.0288 L1552.99 32.8771 L1520.29 32.8771 L1520.29 29.0288 Z" fill="#000000" fill-rule="nonzero" fill-opacity="1" /><path clip-path="url(#clip700)" d="M1564.85 41.06 L1573.12 41.06 L1573.12 16.3089 L1564.08 17.9698 L1564.08 13.2708 L1573.4 11.6909 L1578.95 11.6909 L1578.95 41.06 L1587.26 41.06 L1587.26 45.516 L1564.85 45.516 L1564.85 41.06 Z" fill="#000000" fill-rule="nonzero" fill-opacity="1" /><path clip-path="url(#clip700)" d="M1658.63 28.9478 L1658.63 35.9153 Q1655.47 34.1734 1652.27 33.3227 Q1649.11 32.4315 1645.87 32.4315 Q1638.62 32.4315 1634.61 37.0496 Q1630.6 41.6271 1630.6 49.9314 Q1630.6 58.2358 1634.61 62.8538 Q1638.62 67.4314 1645.87 67.4314 Q1649.11 67.4314 1652.27 66.5807 Q1655.47 65.6895 1658.63 63.9476 L1658.63 70.8341 Q1655.51 72.2924 1652.15 73.0216 Q1648.83 73.7508 1645.06 73.7508 Q1634.81 73.7508 1628.78 67.3098 Q1622.74 60.8689 1622.74 49.9314 Q1622.74 38.832 1628.82 32.472 Q1634.93 26.1121 1645.55 26.1121 Q1648.99 26.1121 1652.27 26.8413 Q1655.55 27.5299 1658.63 28.9478 Z" fill="#000000" fill-rule="nonzero" fill-opacity="1" /><path clip-path="url(#clip700)" d="M1706.92 35.9153 Q1709.71 30.8922 1713.6 28.5022 Q1717.49 26.1121 1722.76 26.1121 Q1729.85 26.1121 1733.7 31.0947 Q1737.54 36.0368 1737.54 45.1919 L1737.54 72.576 L1730.05 72.576 L1730.05 45.4349 Q1730.05 38.913 1727.74 35.7533 Q1725.43 32.5936 1720.69 32.5936 Q1714.9 32.5936 1711.54 36.4419 Q1708.18 40.2903 1708.18 46.9338 L1708.18 72.576 L1700.68 72.576 L1700.68 45.4349 Q1700.68 38.8725 1698.37 35.7533 Q1696.06 32.5936 1691.24 32.5936 Q1685.53 32.5936 1682.17 36.4824 Q1678.81 40.3308 1678.81 46.9338 L1678.81 72.576 L1671.31 72.576 L1671.31 27.2059 L1678.81 27.2059 L1678.81 34.2544 Q1681.36 30.082 1684.92 28.0971 Q1688.49 26.1121 1693.39 26.1121 Q1698.33 26.1121 1701.77 28.6237 Q1705.26 31.1352 1706.92 35.9153 Z" fill="#000000" fill-rule="nonzero" fill-opacity="1" /><path clip-path="url(#clip700)" d="M1750.14 29.0288 L1782.83 29.0288 L1782.83 32.8771 L1750.14 32.8771 L1750.14 29.0288 Z" fill="#000000" fill-rule="nonzero" fill-opacity="1" /><path clip-path="url(#clip700)" d="M1799.24 40.8979 L1816.42 40.8979 L1816.42 45.516 L1792.19 45.516 L1792.19 41.06 Q1793.57 39.8042 1796.12 37.5357 Q1810.06 25.1804 1810.06 21.3726 Q1810.06 18.699 1807.95 17.0786 Q1805.84 15.4177 1802.4 15.4177 Q1800.29 15.4177 1797.82 16.1469 Q1795.35 16.8356 1792.43 18.2534 L1792.43 13.2708 Q1795.55 12.1365 1798.23 11.5694 Q1800.94 11.0023 1803.25 11.0023 Q1809.12 11.0023 1812.65 13.6759 Q1816.17 16.3494 1816.17 20.7244 Q1816.17 26.3552 1802.76 37.8598 Q1800.5 39.8042 1799.24 40.8979 Z" fill="#000000" fill-rule="nonzero" fill-opacity="1" /><polyline clip-path="url(#clip702)" style="stroke:#000000; stroke-linecap:round; stroke-linejoin:round; stroke-width:4; stroke-opacity:1; fill:none" points="292.4,1386.4 292.4,1386.4 300.666,1386.4 300.666,1370.47 308.932,1370.47 308.932,1362.51 317.197,1362.51 317.197,1378.43 325.463,1378.43 325.463,1370.47 333.729,1370.47 333.729,1378.43 341.995,1378.43 341.995,1386.4 350.261,1386.4 350.261,1378.43 358.527,1378.43 358.527,1370.47 366.793,1370.47 366.793,1386.4 375.059,1386.4 375.059,1378.43 383.325,1378.43 383.325,1386.4 391.59,1386.4 391.59,1378.43 399.856,1378.43 408.122,1378.43 416.388,1378.43 416.388,1370.47 424.654,1370.47 424.654,1378.43 432.92,1378.43 432.92,1354.55 441.186,1354.55 449.452,1354.55 449.452,1370.47 457.718,1370.47 465.983,1370.47 465.983,1338.62 474.249,1338.62 474.249,1378.43 482.515,1378.43 482.515,1354.55 490.781,1354.55 490.781,1378.43 499.047,1378.43 499.047,1370.47 507.313,1370.47 507.313,1338.62 515.579,1338.62 515.579,1370.47 523.845,1370.47 523.845,1386.4 532.111,1386.4 532.111,1378.43 540.376,1378.43 548.642,1378.43 548.642,1386.4 556.908,1386.4 556.908,1378.43 565.174,1378.43 565.174,1370.47 573.44,1370.47 581.706,1370.47 581.706,1378.43 589.972,1378.43 598.238,1378.43 598.238,1386.4 606.504,1386.4 614.77,1386.4 623.035,1386.4 623.035,1378.43 631.301,1378.43 639.567,1378.43 639.567,1386.4 647.833,1386.4 647.833,1370.47 656.099,1370.47 656.099,1378.43 664.365,1378.43 664.365,1370.47 672.631,1370.47 672.631,1378.43 680.897,1378.43 680.897,1370.47 689.163,1370.47 689.163,1386.4 697.428,1386.4 697.428,1378.43 705.694,1378.43 705.694,1338.62 713.96,1338.62 713.96,1370.47 722.226,1370.47 722.226,1378.43 730.492,1378.43 730.492,1370.47 738.758,1370.47 738.758,1386.4 747.024,1386.4 747.024,1378.43 755.29,1378.43 755.29,1386.4 763.556,1386.4 763.556,1378.43 771.821,1378.43 780.087,1378.43 780.087,1386.4 788.353,1386.4 788.353,1378.43 796.619,1378.43 796.619,1386.4 804.885,1386.4 804.885,1378.43 813.151,1378.43 813.151,1386.4 821.417,1386.4 821.417,1378.43 829.683,1378.43 837.949,1378.43 837.949,1386.4 846.214,1386.4 846.214,1370.47 854.48,1370.47 854.48,1378.43 862.746,1378.43 862.746,1370.47 871.012,1370.47 871.012,1378.43 879.278,1378.43 879.278,1386.4 887.544,1386.4 895.81,1386.4 904.076,1386.4 904.076,1378.43 912.342,1378.43 912.342,1386.4 920.607,1386.4 920.607,1378.43 928.873,1378.43 928.873,1370.47 937.139,1370.47 937.139,1386.4 945.405,1386.4 945.405,1378.43 953.671,1378.43 953.671,1386.4 961.937,1386.4 970.203,1386.4 978.469,1386.4 978.469,1378.43 986.735,1378.43 986.735,1386.4 995.001,1386.4 995.001,1378.43 1003.27,1378.43 1003.27,1386.4 1011.53,1386.4 1019.8,1386.4 1019.8,1378.43 1028.06,1378.43 1036.33,1378.43 1036.33,1386.4 1044.6,1386.4 1044.6,1378.43 1052.86,1378.43 1052.86,1386.4 1061.13,1386.4 1069.39,1386.4 1077.66,1386.4 1077.66,1378.43 1085.93,1378.43 1085.93,1386.4 1094.19,1386.4 1094.19,1378.43 1102.46,1378.43 1102.46,1386.4 1110.72,1386.4 1118.99,1386.4 1118.99,1370.47 1127.25,1370.47 1127.25,1386.4 1135.52,1386.4 1135.52,1378.43 1143.79,1378.43 1152.05,1378.43 1152.05,1386.4 1160.32,1386.4 1160.32,1370.47 1168.58,1370.47 1176.85,1370.47 1176.85,1386.4 1185.12,1386.4 1193.38,1386.4 1193.38,1378.43 1201.65,1378.43 1209.91,1378.43 1209.91,1386.4 1218.18,1386.4 1226.45,1386.4 1234.71,1386.4 1234.71,1378.43 1242.98,1378.43 1242.98,1386.4 1251.24,1386.4 1259.51,1386.4 1259.51,1378.43 1267.77,1378.43 1276.04,1378.43 1276.04,1386.4 1284.31,1386.4 1284.31,1378.43 1292.57,1378.43 1292.57,1386.4 1300.84,1386.4 1309.1,1386.4 1317.37,1386.4 1317.37,1378.43 1325.64,1378.43 1325.64,1370.47 1333.9,1370.47 1333.9,1378.43 1342.17,1378.43 1350.43,1378.43 1358.7,1378.43 1358.7,1386.4 1366.97,1386.4 1375.23,1386.4 1375.23,1378.43 1383.5,1378.43 1383.5,1386.4 1391.76,1386.4 1391.76,1370.47 1400.03,1370.47 1400.03,1378.43 1408.3,1378.43 1408.3,1386.4 1416.56,1386.4 1424.83,1386.4 1424.83,1378.43 1433.09,1378.43 1433.09,1386.4 1441.36,1386.4 1441.36,1378.43 1449.62,1378.43 1457.89,1378.43 1457.89,1386.4 1466.16,1386.4 1474.42,1386.4 1482.69,1386.4 1490.95,1386.4 1499.22,1386.4 1499.22,1378.43 1507.49,1378.43 1507.49,1386.4 1515.75,1386.4 1524.02,1386.4 1532.28,1386.4 1540.55,1386.4 1548.82,1386.4 1557.08,1386.4 1565.35,1386.4 1573.61,1386.4 1581.88,1386.4 1590.14,1386.4 1598.41,1386.4 1598.41,1370.47 1606.68,1370.47 1606.68,1386.4 1614.94,1386.4 1614.94,1370.47 1623.21,1370.47 1623.21,1386.4 1631.47,1386.4 1639.74,1386.4 1648.01,1386.4 1656.27,1386.4 1656.27,1378.43 1664.54,1378.43 1664.54,1386.4 1672.8,1386.4 1681.07,1386.4 1689.34,1386.4 1697.6,1386.4 1697.6,1378.43 1705.87,1378.43 1705.87,1386.4 1714.13,1386.4 1714.13,1378.43 1722.4,1378.43 1730.66,1378.43 1730.66,1386.4 1738.93,1386.4 1738.93,1378.43 1747.2,1378.43 1755.46,1378.43 1755.46,1386.4 1763.73,1386.4 1771.99,1386.4 1780.26,1386.4 1780.26,1378.43 1788.53,1378.43 1788.53,1386.4 1796.79,1386.4 1805.06,1386.4 1805.06,1370.47 1813.32,1370.47 1813.32,1378.43 1821.59,1378.43 1821.59,1370.47 1829.86,1370.47 1829.86,1386.4 1838.12,1386.4 1846.39,1386.4 1854.65,1386.4 1862.92,1386.4 1871.19,1386.4 1871.19,1378.43 1879.45,1378.43 1879.45,1386.4 1887.72,1386.4 1895.98,1386.4 1904.25,1386.4 1912.51,1386.4 1920.78,1386.4 1929.05,1386.4 1937.31,1386.4 1945.58,1386.4 1945.58,1378.43 1953.84,1378.43 1953.84,1386.4 1962.11,1386.4 1970.38,1386.4 1978.64,1386.4 1978.64,1378.43 1986.91,1378.43 1986.91,1386.4 1995.17,1386.4 2003.44,1386.4 2011.71,1386.4 2011.71,1378.43 2019.97,1378.43 2019.97,1386.4 2028.24,1386.4 2036.5,1386.4 2044.77,1386.4 2044.77,1378.43 2053.03,1378.43 2053.03,1386.4 2061.3,1386.4 2069.57,1386.4 2077.83,1386.4 2077.83,1378.43 2086.1,1378.43 2086.1,1386.4 2094.36,1386.4 2102.63,1386.4 2110.9,1386.4 2119.16,1386.4 2127.43,1386.4 2127.43,1378.43 2135.69,1378.43 2135.69,1370.47 2143.96,1370.47 2143.96,1386.4 2152.23,1386.4 2160.49,1386.4 2168.76,1386.4 2177.02,1386.4 2177.02,1378.43 2185.29,1378.43 2185.29,1386.4 2193.55,1386.4 2193.55,1370.47 2201.82,1370.47 2201.82,1386.4 2210.09,1386.4 2210.09,1378.43 2218.35,1378.43 2218.35,1386.4 2226.62,1386.4 2234.88,1386.4 2243.15,1386.4 2251.42,1386.4 2251.42,1378.43 2259.68,1378.43 2259.68,1386.4 2267.95,1386.4 2276.21,1386.4 2284.48,1386.4 2292.75,1386.4 "/>
<polyline clip-path="url(#clip702)" style="stroke:#ff0000; stroke-linecap:round; stroke-linejoin:round; stroke-width:4; stroke-opacity:1; fill:none" points="292.4,1386.4 292.4,1386.4 300.666,1386.4 300.666,160.256 308.932,160.256 308.932,200.066 317.197,200.066 317.197,645.935 325.463,645.935 325.463,837.022 333.729,837.022 341.995,837.022 341.995,956.451 350.261,956.451 350.261,996.26 358.527,996.26 358.527,1004.22 366.793,1004.22 366.793,1091.8 375.059,1091.8 375.059,1131.61 383.325,1131.61 383.325,1147.54 391.59,1147.54 391.59,1123.65 399.856,1123.65 399.856,1211.23 408.122,1211.23 408.122,1139.58 416.388,1139.58 416.388,1195.31 424.654,1195.31 424.654,1274.93 432.92,1274.93 432.92,1195.31 441.186,1195.31 441.186,1139.58 449.452,1139.58 449.452,1179.39 457.718,1179.39 457.718,1227.16 465.983,1227.16 465.983,1266.97 474.249,1266.97 474.249,1227.16 482.515,1227.16 482.515,1306.78 490.781,1306.78 490.781,1274.93 499.047,1274.93 499.047,1338.62 507.313,1338.62 507.313,1306.78 515.579,1306.78 515.579,1346.59 523.845,1346.59 523.845,1370.47 532.111,1370.47 532.111,1354.55 540.376,1354.55 548.642,1354.55 548.642,1346.59 556.908,1346.59 556.908,1378.43 565.174,1378.43 573.44,1378.43 573.44,1370.47 581.706,1370.47 581.706,1378.43 589.972,1378.43 589.972,1370.47 598.238,1370.47 598.238,1378.43 606.504,1378.43 614.77,1378.43 623.035,1378.43 623.035,1370.47 631.301,1370.47 631.301,1378.43 639.567,1378.43 639.567,1386.4 647.833,1386.4 656.099,1386.4 664.365,1386.4 672.631,1386.4 672.631,1370.47 680.897,1370.47 680.897,1386.4 689.163,1386.4 689.163,1378.43 697.428,1378.43 697.428,1386.4 705.694,1386.4 713.96,1386.4 713.96,1378.43 722.226,1378.43 722.226,1386.4 730.492,1386.4 730.492,1378.43 738.758,1378.43 738.758,1386.4 747.024,1386.4 755.29,1386.4 763.556,1386.4 771.821,1386.4 780.087,1386.4 788.353,1386.4 796.619,1386.4 796.619,1378.43 804.885,1378.43 804.885,1386.4 813.151,1386.4 813.151,1378.43 821.417,1378.43 829.683,1378.43 829.683,1386.4 837.949,1386.4 837.949,1378.43 846.214,1378.43 846.214,1386.4 854.48,1386.4 862.746,1386.4 871.012,1386.4 879.278,1386.4 887.544,1386.4 895.81,1386.4 904.076,1386.4 912.342,1386.4 920.607,1386.4 928.873,1386.4 937.139,1386.4 945.405,1386.4 953.671,1386.4 961.937,1386.4 970.203,1386.4 978.469,1386.4 986.735,1386.4 995.001,1386.4 1003.27,1386.4 1011.53,1386.4 1019.8,1386.4 1019.8,1378.43 1028.06,1378.43 1028.06,1386.4 1036.33,1386.4 1044.6,1386.4 1052.86,1386.4 1061.13,1386.4 1069.39,1386.4 1069.39,1378.43 1077.66,1378.43 1077.66,1386.4 1085.93,1386.4 1094.19,1386.4 1102.46,1386.4 1110.72,1386.4 1118.99,1386.4 1127.25,1386.4 1127.25,1378.43 1135.52,1378.43 1135.52,1386.4 1143.79,1386.4 1143.79,1378.43 1152.05,1378.43 1152.05,1386.4 1160.32,1386.4 1168.58,1386.4 1168.58,1370.47 1176.85,1370.47 1176.85,1386.4 1185.12,1386.4 1193.38,1386.4 1201.65,1386.4 1209.91,1386.4 1218.18,1386.4 1226.45,1386.4 1234.71,1386.4 1242.98,1386.4 1251.24,1386.4 1259.51,1386.4 1267.77,1386.4 1276.04,1386.4 1284.31,1386.4 1292.57,1386.4 1300.84,1386.4 1309.1,1386.4 1317.37,1386.4 1325.64,1386.4 1333.9,1386.4 1342.17,1386.4 1350.43,1386.4 1358.7,1386.4 1366.97,1386.4 1375.23,1386.4 1383.5,1386.4 1391.76,1386.4 1400.03,1386.4 1408.3,1386.4 1416.56,1386.4 1424.83,1386.4 1433.09,1386.4 1441.36,1386.4 1441.36,1378.43 1449.62,1378.43 1449.62,1386.4 1457.89,1386.4 1466.16,1386.4 1474.42,1386.4 1482.69,1386.4 1490.95,1386.4 1499.22,1386.4 1507.49,1386.4 1515.75,1386.4 1524.02,1386.4 1532.28,1386.4 1540.55,1386.4 1548.82,1386.4 1557.08,1386.4 1565.35,1386.4 1573.61,1386.4 1581.88,1386.4 1590.14,1386.4 1598.41,1386.4 1606.68,1386.4 1614.94,1386.4 1623.21,1386.4 1631.47,1386.4 1639.74,1386.4 1648.01,1386.4 1656.27,1386.4 1664.54,1386.4 1672.8,1386.4 1681.07,1386.4 1689.34,1386.4 1697.6,1386.4 1705.87,1386.4 1714.13,1386.4 1722.4,1386.4 1730.66,1386.4 1738.93,1386.4 1747.2,1386.4 1755.46,1386.4 1763.73,1386.4 1771.99,1386.4 1780.26,1386.4 1788.53,1386.4 1796.79,1386.4 1805.06,1386.4 1813.32,1386.4 1821.59,1386.4 1829.86,1386.4 1838.12,1386.4 1846.39,1386.4 1854.65,1386.4 1862.92,1386.4 1871.19,1386.4 1879.45,1386.4 1887.72,1386.4 1895.98,1386.4 1904.25,1386.4 1912.51,1386.4 1920.78,1386.4 1929.05,1386.4 1937.31,1386.4 1945.58,1386.4 1953.84,1386.4 1962.11,1386.4 1970.38,1386.4 1978.64,1386.4 1986.91,1386.4 1995.17,1386.4 2003.44,1386.4 2011.71,1386.4 2019.97,1386.4 2028.24,1386.4 2036.5,1386.4 2044.77,1386.4 2053.03,1386.4 2061.3,1386.4 2069.57,1386.4 2077.83,1386.4 2086.1,1386.4 2094.36,1386.4 2102.63,1386.4 2110.9,1386.4 2119.16,1386.4 2127.43,1386.4 2135.69,1386.4 2143.96,1386.4 2152.23,1386.4 2160.49,1386.4 2168.76,1386.4 2177.02,1386.4 2185.29,1386.4 2193.55,1386.4 2201.82,1386.4 2210.09,1386.4 2218.35,1386.4 2226.62,1386.4 2234.88,1386.4 2243.15,1386.4 2251.42,1386.4 2259.68,1386.4 2267.95,1386.4 2276.21,1386.4 2284.48,1386.4 2292.75,1386.4 "/>
<path clip-path="url(#clip700)" d="M1655.32 322.316 L2282.08 322.316 L2282.08 166.796 L1655.32 166.796  Z" fill="#ffffff" fill-rule="evenodd" fill-opacity="1"/>
<polyline clip-path="url(#clip700)" style="stroke:#000000; stroke-linecap:round; stroke-linejoin:round; stroke-width:4; stroke-opacity:1; fill:none" points="1655.32,322.316 2282.08,322.316 2282.08,166.796 1655.32,166.796 1655.32,322.316 "/>
<polyline clip-path="url(#clip700)" style="stroke:#000000; stroke-linecap:round; stroke-linejoin:round; stroke-width:4; stroke-opacity:1; fill:none" points="1678.88,218.636 1820.24,218.636 "/>
<path clip-path="url(#clip700)" d="M1871.67 204.018 L1871.67 208.948 Q1869.31 206.749 1866.62 205.661 Q1863.96 204.573 1860.95 204.573 Q1855.02 204.573 1851.88 208.208 Q1848.73 211.819 1848.73 218.67 Q1848.73 225.499 1851.88 229.133 Q1855.02 232.744 1860.95 232.744 Q1863.96 232.744 1866.62 231.656 Q1869.31 230.569 1871.67 228.369 L1871.67 233.254 Q1869.21 234.92 1866.46 235.754 Q1863.73 236.587 1860.67 236.587 Q1852.83 236.587 1848.31 231.795 Q1843.8 226.981 1843.8 218.67 Q1843.8 210.337 1848.31 205.546 Q1852.83 200.731 1860.67 200.731 Q1863.77 200.731 1866.51 201.564 Q1869.26 202.374 1871.67 204.018 Z" fill="#000000" fill-rule="nonzero" fill-opacity="1" /><path clip-path="url(#clip700)" d="M1888.75 212.976 Q1885.32 212.976 1883.33 215.661 Q1881.34 218.323 1881.34 222.976 Q1881.34 227.629 1883.31 230.314 Q1885.3 232.976 1888.75 232.976 Q1892.15 232.976 1894.14 230.291 Q1896.14 227.606 1896.14 222.976 Q1896.14 218.37 1894.14 215.684 Q1892.15 212.976 1888.75 212.976 M1888.75 209.365 Q1894.31 209.365 1897.48 212.976 Q1900.65 216.587 1900.65 222.976 Q1900.65 229.342 1897.48 232.976 Q1894.31 236.587 1888.75 236.587 Q1883.17 236.587 1880 232.976 Q1876.85 229.342 1876.85 222.976 Q1876.85 216.587 1880 212.976 Q1883.17 209.365 1888.75 209.365 Z" fill="#000000" fill-rule="nonzero" fill-opacity="1" /><path clip-path="url(#clip700)" d="M1922.73 213.971 Q1922.01 213.555 1921.16 213.37 Q1920.32 213.161 1919.31 213.161 Q1915.7 213.161 1913.75 215.522 Q1911.83 217.86 1911.83 222.258 L1911.83 235.916 L1907.55 235.916 L1907.55 209.99 L1911.83 209.99 L1911.83 214.018 Q1913.17 211.657 1915.32 210.522 Q1917.48 209.365 1920.56 209.365 Q1921 209.365 1921.53 209.434 Q1922.06 209.481 1922.71 209.596 L1922.73 213.971 Z" fill="#000000" fill-rule="nonzero" fill-opacity="1" /><path clip-path="url(#clip700)" d="M1941.39 213.971 Q1940.67 213.555 1939.82 213.37 Q1938.98 213.161 1937.96 213.161 Q1934.35 213.161 1932.41 215.522 Q1930.49 217.86 1930.49 222.258 L1930.49 235.916 L1926.2 235.916 L1926.2 209.99 L1930.49 209.99 L1930.49 214.018 Q1931.83 211.657 1933.98 210.522 Q1936.13 209.365 1939.21 209.365 Q1939.65 209.365 1940.19 209.434 Q1940.72 209.481 1941.37 209.596 L1941.39 213.971 Z" fill="#000000" fill-rule="nonzero" fill-opacity="1" /><path clip-path="url(#clip700)" d="M1966.99 221.888 L1966.99 223.971 L1947.41 223.971 Q1947.69 228.369 1950.05 230.684 Q1952.43 232.976 1956.67 232.976 Q1959.12 232.976 1961.41 232.374 Q1963.73 231.772 1966 230.569 L1966 234.596 Q1963.7 235.568 1961.3 236.078 Q1958.89 236.587 1956.41 236.587 Q1950.21 236.587 1946.57 232.976 Q1942.96 229.365 1942.96 223.207 Q1942.96 216.842 1946.39 213.115 Q1949.84 209.365 1955.67 209.365 Q1960.9 209.365 1963.94 212.745 Q1966.99 216.101 1966.99 221.888 M1962.73 220.638 Q1962.69 217.143 1960.76 215.059 Q1958.87 212.976 1955.72 212.976 Q1952.15 212.976 1950 214.99 Q1947.87 217.004 1947.55 220.661 L1962.73 220.638 Z" fill="#000000" fill-rule="nonzero" fill-opacity="1" /><path clip-path="url(#clip700)" d="M1992.64 210.985 L1992.64 214.967 Q1990.83 213.971 1989 213.485 Q1987.2 212.976 1985.35 212.976 Q1981.2 212.976 1978.91 215.615 Q1976.62 218.231 1976.62 222.976 Q1976.62 227.721 1978.91 230.36 Q1981.2 232.976 1985.35 232.976 Q1987.2 232.976 1989 232.49 Q1990.83 231.981 1992.64 230.985 L1992.64 234.92 Q1990.86 235.754 1988.94 236.17 Q1987.04 236.587 1984.88 236.587 Q1979.03 236.587 1975.58 232.906 Q1972.13 229.226 1972.13 222.976 Q1972.13 216.633 1975.6 212.999 Q1979.1 209.365 1985.16 209.365 Q1987.13 209.365 1989 209.782 Q1990.88 210.175 1992.64 210.985 Z" fill="#000000" fill-rule="nonzero" fill-opacity="1" /><path clip-path="url(#clip700)" d="M2004.26 202.629 L2004.26 209.99 L2013.03 209.99 L2013.03 213.3 L2004.26 213.3 L2004.26 227.374 Q2004.26 230.545 2005.12 231.448 Q2006 232.351 2008.66 232.351 L2013.03 232.351 L2013.03 235.916 L2008.66 235.916 Q2003.73 235.916 2001.85 234.087 Q1999.98 232.235 1999.98 227.374 L1999.98 213.3 L1996.85 213.3 L1996.85 209.99 L1999.98 209.99 L1999.98 202.629 L2004.26 202.629 Z" fill="#000000" fill-rule="nonzero" fill-opacity="1" /><path clip-path="url(#clip700)" d="M2055.88 221.888 L2055.88 223.971 L2036.3 223.971 Q2036.57 228.369 2038.94 230.684 Q2041.32 232.976 2045.56 232.976 Q2048.01 232.976 2050.3 232.374 Q2052.62 231.772 2054.88 230.569 L2054.88 234.596 Q2052.59 235.568 2050.19 236.078 Q2047.78 236.587 2045.3 236.587 Q2039.1 236.587 2035.46 232.976 Q2031.85 229.365 2031.85 223.207 Q2031.85 216.842 2035.28 213.115 Q2038.73 209.365 2044.56 209.365 Q2049.79 209.365 2052.82 212.745 Q2055.88 216.101 2055.88 221.888 M2051.62 220.638 Q2051.57 217.143 2049.65 215.059 Q2047.75 212.976 2044.61 212.976 Q2041.04 212.976 2038.89 214.99 Q2036.76 217.004 2036.44 220.661 L2051.62 220.638 Z" fill="#000000" fill-rule="nonzero" fill-opacity="1" /><path clip-path="url(#clip700)" d="M2059.81 209.99 L2064.33 209.99 L2072.43 231.749 L2080.53 209.99 L2085.05 209.99 L2075.32 235.916 L2069.54 235.916 L2059.81 209.99 Z" fill="#000000" fill-rule="nonzero" fill-opacity="1" /><path clip-path="url(#clip700)" d="M2113.1 221.888 L2113.1 223.971 L2093.52 223.971 Q2093.8 228.369 2096.16 230.684 Q2098.54 232.976 2102.78 232.976 Q2105.23 232.976 2107.52 232.374 Q2109.84 231.772 2112.11 230.569 L2112.11 234.596 Q2109.81 235.568 2107.41 236.078 Q2105 236.587 2102.52 236.587 Q2096.32 236.587 2092.68 232.976 Q2089.07 229.365 2089.07 223.207 Q2089.07 216.842 2092.5 213.115 Q2095.95 209.365 2101.78 209.365 Q2107.01 209.365 2110.05 212.745 Q2113.1 216.101 2113.1 221.888 M2108.84 220.638 Q2108.8 217.143 2106.87 215.059 Q2104.98 212.976 2101.83 212.976 Q2098.26 212.976 2096.11 214.99 Q2093.98 217.004 2093.66 220.661 L2108.84 220.638 Z" fill="#000000" fill-rule="nonzero" fill-opacity="1" /><path clip-path="url(#clip700)" d="M2141.64 220.268 L2141.64 235.916 L2137.38 235.916 L2137.38 220.407 Q2137.38 216.726 2135.95 214.897 Q2134.51 213.069 2131.64 213.069 Q2128.19 213.069 2126.2 215.268 Q2124.21 217.467 2124.21 221.263 L2124.21 235.916 L2119.93 235.916 L2119.93 209.99 L2124.21 209.99 L2124.21 214.018 Q2125.74 211.68 2127.8 210.522 Q2129.88 209.365 2132.59 209.365 Q2137.06 209.365 2139.35 212.143 Q2141.64 214.897 2141.64 220.268 Z" fill="#000000" fill-rule="nonzero" fill-opacity="1" /><path clip-path="url(#clip700)" d="M2154.35 202.629 L2154.35 209.99 L2163.12 209.99 L2163.12 213.3 L2154.35 213.3 L2154.35 227.374 Q2154.35 230.545 2155.21 231.448 Q2156.09 232.351 2158.75 232.351 L2163.12 232.351 L2163.12 235.916 L2158.75 235.916 Q2153.82 235.916 2151.94 234.087 Q2150.07 232.235 2150.07 227.374 L2150.07 213.3 L2146.94 213.3 L2146.94 209.99 L2150.07 209.99 L2150.07 202.629 L2154.35 202.629 Z" fill="#000000" fill-rule="nonzero" fill-opacity="1" /><path clip-path="url(#clip700)" d="M2185.25 210.754 L2185.25 214.782 Q2183.45 213.856 2181.5 213.393 Q2179.56 212.93 2177.48 212.93 Q2174.3 212.93 2172.71 213.902 Q2171.13 214.874 2171.13 216.819 Q2171.13 218.3 2172.27 219.157 Q2173.4 219.99 2176.83 220.754 L2178.29 221.078 Q2182.82 222.05 2184.72 223.832 Q2186.64 225.592 2186.64 228.763 Q2186.64 232.374 2183.77 234.481 Q2180.93 236.587 2175.93 236.587 Q2173.84 236.587 2171.57 236.17 Q2169.33 235.777 2166.83 234.967 L2166.83 230.569 Q2169.19 231.795 2171.48 232.42 Q2173.77 233.022 2176.02 233.022 Q2179.03 233.022 2180.65 232.004 Q2182.27 230.962 2182.27 229.087 Q2182.27 227.351 2181.09 226.425 Q2179.93 225.499 2175.97 224.643 L2174.49 224.295 Q2170.53 223.462 2168.77 221.749 Q2167.01 220.013 2167.01 217.004 Q2167.01 213.346 2169.61 211.356 Q2172.2 209.365 2176.97 209.365 Q2179.33 209.365 2181.41 209.712 Q2183.49 210.059 2185.25 210.754 Z" fill="#000000" fill-rule="nonzero" fill-opacity="1" /><polyline clip-path="url(#clip700)" style="stroke:#ff0000; stroke-linecap:round; stroke-linejoin:round; stroke-width:4; stroke-opacity:1; fill:none" points="1678.88,270.476 1820.24,270.476 "/>
<path clip-path="url(#clip700)" d="M1866.04 254.33 L1866.04 258.89 Q1863.38 257.617 1861.02 256.992 Q1858.66 256.367 1856.46 256.367 Q1852.64 256.367 1850.56 257.848 Q1848.5 259.33 1848.5 262.061 Q1848.5 264.353 1849.86 265.534 Q1851.25 266.691 1855.09 267.409 L1857.92 267.987 Q1863.15 268.983 1865.63 271.506 Q1868.13 274.006 1868.13 278.219 Q1868.13 283.242 1864.75 285.834 Q1861.39 288.427 1854.89 288.427 Q1852.43 288.427 1849.65 287.871 Q1846.9 287.316 1843.94 286.228 L1843.94 281.413 Q1846.78 283.01 1849.51 283.821 Q1852.25 284.631 1854.89 284.631 Q1858.89 284.631 1861.07 283.057 Q1863.24 281.483 1863.24 278.566 Q1863.24 276.02 1861.67 274.584 Q1860.12 273.149 1856.55 272.432 L1853.7 271.876 Q1848.47 270.835 1846.14 268.612 Q1843.8 266.39 1843.8 262.432 Q1843.8 257.848 1847.01 255.21 Q1850.26 252.571 1855.93 252.571 Q1858.36 252.571 1860.88 253.011 Q1863.4 253.45 1866.04 254.33 Z" fill="#000000" fill-rule="nonzero" fill-opacity="1" /><path clip-path="url(#clip700)" d="M1879.45 254.469 L1879.45 261.83 L1888.22 261.83 L1888.22 265.14 L1879.45 265.14 L1879.45 279.214 Q1879.45 282.385 1880.3 283.288 Q1881.18 284.191 1883.84 284.191 L1888.22 284.191 L1888.22 287.756 L1883.84 287.756 Q1878.91 287.756 1877.04 285.927 Q1875.16 284.075 1875.16 279.214 L1875.16 265.14 L1872.04 265.14 L1872.04 261.83 L1875.16 261.83 L1875.16 254.469 L1879.45 254.469 Z" fill="#000000" fill-rule="nonzero" fill-opacity="1" /><path clip-path="url(#clip700)" d="M1903.87 264.816 Q1900.44 264.816 1898.45 267.501 Q1896.46 270.163 1896.46 274.816 Q1896.46 279.469 1898.43 282.154 Q1900.42 284.816 1903.87 284.816 Q1907.27 284.816 1909.26 282.131 Q1911.25 279.446 1911.25 274.816 Q1911.25 270.21 1909.26 267.524 Q1907.27 264.816 1903.87 264.816 M1903.87 261.205 Q1909.42 261.205 1912.59 264.816 Q1915.76 268.427 1915.76 274.816 Q1915.76 281.182 1912.59 284.816 Q1909.42 288.427 1903.87 288.427 Q1898.29 288.427 1895.12 284.816 Q1891.97 281.182 1891.97 274.816 Q1891.97 268.427 1895.12 264.816 Q1898.29 261.205 1903.87 261.205 Z" fill="#000000" fill-rule="nonzero" fill-opacity="1" /><path clip-path="url(#clip700)" d="M1941.48 262.825 L1941.48 266.807 Q1939.68 265.811 1937.85 265.325 Q1936.04 264.816 1934.19 264.816 Q1930.05 264.816 1927.76 267.455 Q1925.46 270.071 1925.46 274.816 Q1925.46 279.561 1927.76 282.2 Q1930.05 284.816 1934.19 284.816 Q1936.04 284.816 1937.85 284.33 Q1939.68 283.821 1941.48 282.825 L1941.48 286.76 Q1939.7 287.594 1937.78 288.01 Q1935.88 288.427 1933.73 288.427 Q1927.87 288.427 1924.42 284.746 Q1920.97 281.066 1920.97 274.816 Q1920.97 268.473 1924.45 264.839 Q1927.94 261.205 1934.01 261.205 Q1935.97 261.205 1937.85 261.622 Q1939.72 262.015 1941.48 262.825 Z" fill="#000000" fill-rule="nonzero" fill-opacity="1" /><path clip-path="url(#clip700)" d="M1970.44 272.108 L1970.44 287.756 L1966.18 287.756 L1966.18 272.247 Q1966.18 268.566 1964.75 266.737 Q1963.31 264.909 1960.44 264.909 Q1956.99 264.909 1955 267.108 Q1953.01 269.307 1953.01 273.103 L1953.01 287.756 L1948.73 287.756 L1948.73 251.737 L1953.01 251.737 L1953.01 265.858 Q1954.54 263.52 1956.6 262.362 Q1958.68 261.205 1961.39 261.205 Q1965.86 261.205 1968.15 263.983 Q1970.44 266.737 1970.44 272.108 Z" fill="#000000" fill-rule="nonzero" fill-opacity="1" /><path clip-path="url(#clip700)" d="M1990.72 274.723 Q1985.56 274.723 1983.57 275.904 Q1981.57 277.084 1981.57 279.932 Q1981.57 282.2 1983.06 283.543 Q1984.56 284.862 1987.13 284.862 Q1990.67 284.862 1992.8 282.362 Q1994.95 279.839 1994.95 275.672 L1994.95 274.723 L1990.72 274.723 M1999.21 272.964 L1999.21 287.756 L1994.95 287.756 L1994.95 283.821 Q1993.5 286.182 1991.32 287.316 Q1989.14 288.427 1986 288.427 Q1982.01 288.427 1979.65 286.205 Q1977.32 283.959 1977.32 280.209 Q1977.32 275.834 1980.23 273.612 Q1983.17 271.39 1988.98 271.39 L1994.95 271.39 L1994.95 270.973 Q1994.95 268.034 1993.01 266.436 Q1991.09 264.816 1987.59 264.816 Q1985.37 264.816 1983.26 265.348 Q1981.16 265.881 1979.21 266.946 L1979.21 263.01 Q1981.55 262.108 1983.75 261.668 Q1985.95 261.205 1988.03 261.205 Q1993.66 261.205 1996.44 264.122 Q1999.21 267.038 1999.21 272.964 Z" fill="#000000" fill-rule="nonzero" fill-opacity="1" /><path clip-path="url(#clip700)" d="M2024.51 262.594 L2024.51 266.622 Q2022.71 265.696 2020.76 265.233 Q2018.82 264.77 2016.74 264.77 Q2013.57 264.77 2011.97 265.742 Q2010.39 266.714 2010.39 268.659 Q2010.39 270.14 2011.53 270.997 Q2012.66 271.83 2016.09 272.594 L2017.55 272.918 Q2022.08 273.89 2023.98 275.672 Q2025.9 277.432 2025.9 280.603 Q2025.9 284.214 2023.03 286.321 Q2020.19 288.427 2015.19 288.427 Q2013.1 288.427 2010.83 288.01 Q2008.59 287.617 2006.09 286.807 L2006.09 282.409 Q2008.45 283.635 2010.74 284.26 Q2013.03 284.862 2015.28 284.862 Q2018.29 284.862 2019.91 283.844 Q2021.53 282.802 2021.53 280.927 Q2021.53 279.191 2020.35 278.265 Q2019.19 277.339 2015.23 276.483 L2013.75 276.135 Q2009.79 275.302 2008.03 273.589 Q2006.27 271.853 2006.27 268.844 Q2006.27 265.186 2008.87 263.196 Q2011.46 261.205 2016.23 261.205 Q2018.59 261.205 2020.67 261.552 Q2022.75 261.899 2024.51 262.594 Z" fill="#000000" fill-rule="nonzero" fill-opacity="1" /><path clip-path="url(#clip700)" d="M2036.9 254.469 L2036.9 261.83 L2045.67 261.83 L2045.67 265.14 L2036.9 265.14 L2036.9 279.214 Q2036.9 282.385 2037.75 283.288 Q2038.63 284.191 2041.3 284.191 L2045.67 284.191 L2045.67 287.756 L2041.3 287.756 Q2036.37 287.756 2034.49 285.927 Q2032.62 284.075 2032.62 279.214 L2032.62 265.14 L2029.49 265.14 L2029.49 261.83 L2032.62 261.83 L2032.62 254.469 L2036.9 254.469 Z" fill="#000000" fill-rule="nonzero" fill-opacity="1" /><path clip-path="url(#clip700)" d="M2051.27 261.83 L2055.53 261.83 L2055.53 287.756 L2051.27 287.756 L2051.27 261.83 M2051.27 251.737 L2055.53 251.737 L2055.53 257.131 L2051.27 257.131 L2051.27 251.737 Z" fill="#000000" fill-rule="nonzero" fill-opacity="1" /><path clip-path="url(#clip700)" d="M2083.1 262.825 L2083.1 266.807 Q2081.3 265.811 2079.47 265.325 Q2077.66 264.816 2075.81 264.816 Q2071.67 264.816 2069.37 267.455 Q2067.08 270.071 2067.08 274.816 Q2067.08 279.561 2069.37 282.2 Q2071.67 284.816 2075.81 284.816 Q2077.66 284.816 2079.47 284.33 Q2081.3 283.821 2083.1 282.825 L2083.1 286.76 Q2081.32 287.594 2079.4 288.01 Q2077.5 288.427 2075.35 288.427 Q2069.49 288.427 2066.04 284.746 Q2062.59 281.066 2062.59 274.816 Q2062.59 268.473 2066.06 264.839 Q2069.56 261.205 2075.62 261.205 Q2077.59 261.205 2079.47 261.622 Q2081.34 262.015 2083.1 262.825 Z" fill="#000000" fill-rule="nonzero" fill-opacity="1" /><path clip-path="url(#clip700)" d="M2127.75 273.728 L2127.75 275.811 L2108.17 275.811 Q2108.45 280.209 2110.81 282.524 Q2113.19 284.816 2117.43 284.816 Q2119.88 284.816 2122.18 284.214 Q2124.49 283.612 2126.76 282.409 L2126.76 286.436 Q2124.47 287.408 2122.06 287.918 Q2119.65 288.427 2117.18 288.427 Q2110.97 288.427 2107.34 284.816 Q2103.73 281.205 2103.73 275.047 Q2103.73 268.682 2107.15 264.955 Q2110.6 261.205 2116.43 261.205 Q2121.67 261.205 2124.7 264.585 Q2127.75 267.941 2127.75 273.728 M2123.49 272.478 Q2123.45 268.983 2121.53 266.899 Q2119.63 264.816 2116.48 264.816 Q2112.92 264.816 2110.76 266.83 Q2108.63 268.844 2108.31 272.501 L2123.49 272.478 Z" fill="#000000" fill-rule="nonzero" fill-opacity="1" /><path clip-path="url(#clip700)" d="M2131.69 261.83 L2136.2 261.83 L2144.31 283.589 L2152.41 261.83 L2156.92 261.83 L2147.2 287.756 L2141.41 287.756 L2131.69 261.83 Z" fill="#000000" fill-rule="nonzero" fill-opacity="1" /><path clip-path="url(#clip700)" d="M2184.98 273.728 L2184.98 275.811 L2165.39 275.811 Q2165.67 280.209 2168.03 282.524 Q2170.42 284.816 2174.65 284.816 Q2177.11 284.816 2179.4 284.214 Q2181.71 283.612 2183.98 282.409 L2183.98 286.436 Q2181.69 287.408 2179.28 287.918 Q2176.87 288.427 2174.4 288.427 Q2168.19 288.427 2164.56 284.816 Q2160.95 281.205 2160.95 275.047 Q2160.95 268.682 2164.37 264.955 Q2167.82 261.205 2173.66 261.205 Q2178.89 261.205 2181.92 264.585 Q2184.98 267.941 2184.98 273.728 M2180.72 272.478 Q2180.67 268.983 2178.75 266.899 Q2176.85 264.816 2173.7 264.816 Q2170.14 264.816 2167.99 266.83 Q2165.86 268.844 2165.53 272.501 L2180.72 272.478 Z" fill="#000000" fill-rule="nonzero" fill-opacity="1" /><path clip-path="url(#clip700)" d="M2213.52 272.108 L2213.52 287.756 L2209.26 287.756 L2209.26 272.247 Q2209.26 268.566 2207.82 266.737 Q2206.39 264.909 2203.52 264.909 Q2200.07 264.909 2198.08 267.108 Q2196.09 269.307 2196.09 273.103 L2196.09 287.756 L2191.8 287.756 L2191.8 261.83 L2196.09 261.83 L2196.09 265.858 Q2197.61 263.52 2199.68 262.362 Q2201.76 261.205 2204.47 261.205 Q2208.93 261.205 2211.23 263.983 Q2213.52 266.737 2213.52 272.108 Z" fill="#000000" fill-rule="nonzero" fill-opacity="1" /><path clip-path="url(#clip700)" d="M2226.23 254.469 L2226.23 261.83 L2235 261.83 L2235 265.14 L2226.23 265.14 L2226.23 279.214 Q2226.23 282.385 2227.08 283.288 Q2227.96 284.191 2230.62 284.191 L2235 284.191 L2235 287.756 L2230.62 287.756 Q2225.69 287.756 2223.82 285.927 Q2221.94 284.075 2221.94 279.214 L2221.94 265.14 L2218.82 265.14 L2218.82 261.83 L2221.94 261.83 L2221.94 254.469 L2226.23 254.469 Z" fill="#000000" fill-rule="nonzero" fill-opacity="1" /><path clip-path="url(#clip700)" d="M2257.13 262.594 L2257.13 266.622 Q2255.32 265.696 2253.38 265.233 Q2251.43 264.77 2249.35 264.77 Q2246.18 264.77 2244.58 265.742 Q2243.01 266.714 2243.01 268.659 Q2243.01 270.14 2244.14 270.997 Q2245.28 271.83 2248.7 272.594 L2250.16 272.918 Q2254.7 273.89 2256.6 275.672 Q2258.52 277.432 2258.52 280.603 Q2258.52 284.214 2255.65 286.321 Q2252.8 288.427 2247.8 288.427 Q2245.72 288.427 2243.45 288.01 Q2241.2 287.617 2238.7 286.807 L2238.7 282.409 Q2241.06 283.635 2243.36 284.26 Q2245.65 284.862 2247.89 284.862 Q2250.9 284.862 2252.52 283.844 Q2254.14 282.802 2254.14 280.927 Q2254.14 279.191 2252.96 278.265 Q2251.8 277.339 2247.85 276.483 L2246.36 276.135 Q2242.41 275.302 2240.65 273.589 Q2238.89 271.853 2238.89 268.844 Q2238.89 265.186 2241.48 263.196 Q2244.07 261.205 2248.84 261.205 Q2251.2 261.205 2253.29 261.552 Q2255.37 261.899 2257.13 262.594 Z" fill="#000000" fill-rule="nonzero" fill-opacity="1" /></svg>
