<?xml version="1.0" encoding="utf-8"?>
<svg xmlns="http://www.w3.org/2000/svg" xmlns:xlink="http://www.w3.org/1999/xlink" width="600" height="400" viewBox="0 0 2400 1600">
<defs>
  <clipPath id="clip730">
    <rect x="0" y="0" width="2400" height="1600"/>
  </clipPath>
</defs>
<path clip-path="url(#clip730)" d="M0 1600 L2400 1600 L2400 0 L0 0  Z" fill="#ffffff" fill-rule="evenodd" fill-opacity="1"/>
<defs>
  <clipPath id="clip731">
    <rect x="480" y="0" width="1681" height="1600"/>
  </clipPath>
</defs>
<path clip-path="url(#clip730)" d="M202.227 1423.18 L2352.76 1423.18 L2352.76 123.472 L202.227 123.472  Z" fill="#ffffff" fill-rule="evenodd" fill-opacity="1"/>
<defs>
  <clipPath id="clip732">
    <rect x="202" y="123" width="2152" height="1301"/>
  </clipPath>
</defs>
<polyline clip-path="url(#clip732)" style="stroke:#000000; stroke-linecap:round; stroke-linejoin:round; stroke-width:2; stroke-opacity:0.1; fill:none" points="263.091,1423.18 263.091,123.472 "/>
<polyline clip-path="url(#clip732)" style="stroke:#000000; stroke-linecap:round; stroke-linejoin:round; stroke-width:2; stroke-opacity:0.1; fill:none" points="682.265,1423.18 682.265,123.472 "/>
<polyline clip-path="url(#clip732)" style="stroke:#000000; stroke-linecap:round; stroke-linejoin:round; stroke-width:2; stroke-opacity:0.1; fill:none" points="1101.44,1423.18 1101.44,123.472 "/>
<polyline clip-path="url(#clip732)" style="stroke:#000000; stroke-linecap:round; stroke-linejoin:round; stroke-width:2; stroke-opacity:0.1; fill:none" points="1520.61,1423.18 1520.61,123.472 "/>
<polyline clip-path="url(#clip732)" style="stroke:#000000; stroke-linecap:round; stroke-linejoin:round; stroke-width:2; stroke-opacity:0.1; fill:none" points="1939.79,1423.18 1939.79,123.472 "/>
<polyline clip-path="url(#clip732)" style="stroke:#000000; stroke-linecap:round; stroke-linejoin:round; stroke-width:2; stroke-opacity:0.1; fill:none" points="202.227,1386.4 2352.76,1386.4 "/>
<polyline clip-path="url(#clip732)" style="stroke:#000000; stroke-linecap:round; stroke-linejoin:round; stroke-width:2; stroke-opacity:0.1; fill:none" points="202.227,977.683 2352.76,977.683 "/>
<polyline clip-path="url(#clip732)" style="stroke:#000000; stroke-linecap:round; stroke-linejoin:round; stroke-width:2; stroke-opacity:0.1; fill:none" points="202.227,568.969 2352.76,568.969 "/>
<polyline clip-path="url(#clip732)" style="stroke:#000000; stroke-linecap:round; stroke-linejoin:round; stroke-width:2; stroke-opacity:0.1; fill:none" points="202.227,160.256 2352.76,160.256 "/>
<polyline clip-path="url(#clip730)" style="stroke:#000000; stroke-linecap:round; stroke-linejoin:round; stroke-width:4; stroke-opacity:1; fill:none" points="202.227,1423.18 2352.76,1423.18 "/>
<polyline clip-path="url(#clip730)" style="stroke:#000000; stroke-linecap:round; stroke-linejoin:round; stroke-width:4; stroke-opacity:1; fill:none" points="263.091,1423.18 263.091,1404.28 "/>
<polyline clip-path="url(#clip730)" style="stroke:#000000; stroke-linecap:round; stroke-linejoin:round; stroke-width:4; stroke-opacity:1; fill:none" points="682.265,1423.18 682.265,1404.28 "/>
<polyline clip-path="url(#clip730)" style="stroke:#000000; stroke-linecap:round; stroke-linejoin:round; stroke-width:4; stroke-opacity:1; fill:none" points="1101.44,1423.18 1101.44,1404.28 "/>
<polyline clip-path="url(#clip730)" style="stroke:#000000; stroke-linecap:round; stroke-linejoin:round; stroke-width:4; stroke-opacity:1; fill:none" points="1520.61,1423.18 1520.61,1404.28 "/>
<polyline clip-path="url(#clip730)" style="stroke:#000000; stroke-linecap:round; stroke-linejoin:round; stroke-width:4; stroke-opacity:1; fill:none" points="1939.79,1423.18 1939.79,1404.28 "/>
<path clip-path="url(#clip730)" d="M263.091 1454.1 Q259.48 1454.1 257.652 1457.66 Q255.846 1461.2 255.846 1468.33 Q255.846 1475.44 257.652 1479.01 Q259.48 1482.55 263.091 1482.55 Q266.726 1482.55 268.531 1479.01 Q270.36 1475.44 270.36 1468.33 Q270.36 1461.2 268.531 1457.66 Q266.726 1454.1 263.091 1454.1 M263.091 1450.39 Q268.902 1450.39 271.957 1455 Q275.036 1459.58 275.036 1468.33 Q275.036 1477.06 271.957 1481.67 Q268.902 1486.25 263.091 1486.25 Q257.281 1486.25 254.203 1481.67 Q251.147 1477.06 251.147 1468.33 Q251.147 1459.58 254.203 1455 Q257.281 1450.39 263.091 1450.39 Z" fill="#000000" fill-rule="nonzero" fill-opacity="1" /><path clip-path="url(#clip730)" d="M656.964 1451.02 L675.321 1451.02 L675.321 1454.96 L661.247 1454.96 L661.247 1463.43 Q662.265 1463.08 663.284 1462.92 Q664.302 1462.73 665.321 1462.73 Q671.108 1462.73 674.487 1465.9 Q677.867 1469.08 677.867 1474.49 Q677.867 1480.07 674.395 1483.17 Q670.923 1486.25 664.603 1486.25 Q662.427 1486.25 660.159 1485.88 Q657.913 1485.51 655.506 1484.77 L655.506 1480.07 Q657.589 1481.2 659.812 1481.76 Q662.034 1482.32 664.511 1482.32 Q668.515 1482.32 670.853 1480.21 Q673.191 1478.1 673.191 1474.49 Q673.191 1470.88 670.853 1468.77 Q668.515 1466.67 664.511 1466.67 Q662.636 1466.67 660.761 1467.08 Q658.909 1467.5 656.964 1468.38 L656.964 1451.02 Z" fill="#000000" fill-rule="nonzero" fill-opacity="1" /><path clip-path="url(#clip730)" d="M697.08 1454.1 Q693.469 1454.1 691.64 1457.66 Q689.835 1461.2 689.835 1468.33 Q689.835 1475.44 691.64 1479.01 Q693.469 1482.55 697.08 1482.55 Q700.714 1482.55 702.52 1479.01 Q704.348 1475.44 704.348 1468.33 Q704.348 1461.2 702.52 1457.66 Q700.714 1454.1 697.08 1454.1 M697.08 1450.39 Q702.89 1450.39 705.946 1455 Q709.024 1459.58 709.024 1468.33 Q709.024 1477.06 705.946 1481.67 Q702.89 1486.25 697.08 1486.25 Q691.27 1486.25 688.191 1481.67 Q685.135 1477.06 685.135 1468.33 Q685.135 1459.58 688.191 1455 Q691.27 1450.39 697.08 1450.39 Z" fill="#000000" fill-rule="nonzero" fill-opacity="1" /><path clip-path="url(#clip730)" d="M1061.05 1481.64 L1068.68 1481.64 L1068.68 1455.28 L1060.37 1456.95 L1060.37 1452.69 L1068.64 1451.02 L1073.31 1451.02 L1073.31 1481.64 L1080.95 1481.64 L1080.95 1485.58 L1061.05 1485.58 L1061.05 1481.64 Z" fill="#000000" fill-rule="nonzero" fill-opacity="1" /><path clip-path="url(#clip730)" d="M1100.4 1454.1 Q1096.79 1454.1 1094.96 1457.66 Q1093.15 1461.2 1093.15 1468.33 Q1093.15 1475.44 1094.96 1479.01 Q1096.79 1482.55 1100.4 1482.55 Q1104.03 1482.55 1105.84 1479.01 Q1107.67 1475.44 1107.67 1468.33 Q1107.67 1461.2 1105.84 1457.66 Q1104.03 1454.1 1100.4 1454.1 M1100.4 1450.39 Q1106.21 1450.39 1109.26 1455 Q1112.34 1459.58 1112.34 1468.33 Q1112.34 1477.06 1109.26 1481.67 Q1106.21 1486.25 1100.4 1486.25 Q1094.59 1486.25 1091.51 1481.67 Q1088.45 1477.06 1088.45 1468.33 Q1088.45 1459.58 1091.51 1455 Q1094.59 1450.39 1100.4 1450.39 Z" fill="#000000" fill-rule="nonzero" fill-opacity="1" /><path clip-path="url(#clip730)" d="M1130.56 1454.1 Q1126.95 1454.1 1125.12 1457.66 Q1123.31 1461.2 1123.31 1468.33 Q1123.31 1475.44 1125.12 1479.01 Q1126.95 1482.55 1130.56 1482.55 Q1134.19 1482.55 1136 1479.01 Q1137.83 1475.44 1137.83 1468.33 Q1137.83 1461.2 1136 1457.66 Q1134.19 1454.1 1130.56 1454.1 M1130.56 1450.39 Q1136.37 1450.39 1139.42 1455 Q1142.5 1459.58 1142.5 1468.33 Q1142.5 1477.06 1139.42 1481.67 Q1136.37 1486.25 1130.56 1486.25 Q1124.75 1486.25 1121.67 1481.67 Q1118.61 1477.06 1118.61 1468.33 Q1118.61 1459.58 1121.67 1455 Q1124.75 1450.39 1130.56 1450.39 Z" fill="#000000" fill-rule="nonzero" fill-opacity="1" /><path clip-path="url(#clip730)" d="M1480.22 1481.64 L1487.86 1481.64 L1487.86 1455.28 L1479.55 1456.95 L1479.55 1452.69 L1487.81 1451.02 L1492.49 1451.02 L1492.49 1481.64 L1500.13 1481.64 L1500.13 1485.58 L1480.22 1485.58 L1480.22 1481.64 Z" fill="#000000" fill-rule="nonzero" fill-opacity="1" /><path clip-path="url(#clip730)" d="M1509.62 1451.02 L1527.97 1451.02 L1527.97 1454.96 L1513.9 1454.96 L1513.9 1463.43 Q1514.92 1463.08 1515.94 1462.92 Q1516.96 1462.73 1517.97 1462.73 Q1523.76 1462.73 1527.14 1465.9 Q1530.52 1469.08 1530.52 1474.49 Q1530.52 1480.07 1527.05 1483.17 Q1523.58 1486.25 1517.26 1486.25 Q1515.08 1486.25 1512.81 1485.88 Q1510.57 1485.51 1508.16 1484.77 L1508.16 1480.07 Q1510.24 1481.2 1512.46 1481.76 Q1514.69 1482.32 1517.16 1482.32 Q1521.17 1482.32 1523.51 1480.21 Q1525.84 1478.1 1525.84 1474.49 Q1525.84 1470.88 1523.51 1468.77 Q1521.17 1466.67 1517.16 1466.67 Q1515.29 1466.67 1513.41 1467.08 Q1511.56 1467.5 1509.62 1468.38 L1509.62 1451.02 Z" fill="#000000" fill-rule="nonzero" fill-opacity="1" /><path clip-path="url(#clip730)" d="M1549.73 1454.1 Q1546.12 1454.1 1544.29 1457.66 Q1542.49 1461.2 1542.49 1468.33 Q1542.49 1475.44 1544.29 1479.01 Q1546.12 1482.55 1549.73 1482.55 Q1553.37 1482.55 1555.17 1479.01 Q1557 1475.44 1557 1468.33 Q1557 1461.2 1555.17 1457.66 Q1553.37 1454.1 1549.73 1454.1 M1549.73 1450.39 Q1555.54 1450.39 1558.6 1455 Q1561.68 1459.58 1561.68 1468.33 Q1561.68 1477.06 1558.6 1481.67 Q1555.54 1486.25 1549.73 1486.25 Q1543.92 1486.25 1540.84 1481.67 Q1537.79 1477.06 1537.79 1468.33 Q1537.79 1459.58 1540.84 1455 Q1543.92 1450.39 1549.73 1450.39 Z" fill="#000000" fill-rule="nonzero" fill-opacity="1" /><path clip-path="url(#clip730)" d="M1903.48 1481.64 L1919.8 1481.64 L1919.8 1485.58 L1897.85 1485.58 L1897.85 1481.64 Q1900.52 1478.89 1905.1 1474.26 Q1909.71 1469.61 1910.89 1468.27 Q1913.13 1465.74 1914.01 1464.01 Q1914.91 1462.25 1914.91 1460.56 Q1914.91 1457.8 1912.97 1456.07 Q1911.05 1454.33 1907.95 1454.33 Q1905.75 1454.33 1903.29 1455.09 Q1900.86 1455.86 1898.08 1457.41 L1898.08 1452.69 Q1900.91 1451.55 1903.36 1450.97 Q1905.82 1450.39 1907.85 1450.39 Q1913.22 1450.39 1916.42 1453.08 Q1919.61 1455.77 1919.61 1460.26 Q1919.61 1462.39 1918.8 1464.31 Q1918.02 1466.2 1915.91 1468.8 Q1915.33 1469.47 1912.23 1472.69 Q1909.13 1475.88 1903.48 1481.64 Z" fill="#000000" fill-rule="nonzero" fill-opacity="1" /><path clip-path="url(#clip730)" d="M1939.61 1454.1 Q1936 1454.1 1934.17 1457.66 Q1932.37 1461.2 1932.37 1468.33 Q1932.37 1475.44 1934.17 1479.01 Q1936 1482.55 1939.61 1482.55 Q1943.25 1482.55 1945.05 1479.01 Q1946.88 1475.44 1946.88 1468.33 Q1946.88 1461.2 1945.05 1457.66 Q1943.25 1454.1 1939.61 1454.1 M1939.61 1450.39 Q1945.42 1450.39 1948.48 1455 Q1951.56 1459.58 1951.56 1468.33 Q1951.56 1477.06 1948.48 1481.67 Q1945.42 1486.25 1939.61 1486.25 Q1933.8 1486.25 1930.72 1481.67 Q1927.67 1477.06 1927.67 1468.33 Q1927.67 1459.58 1930.72 1455 Q1933.8 1450.39 1939.61 1450.39 Z" fill="#000000" fill-rule="nonzero" fill-opacity="1" /><path clip-path="url(#clip730)" d="M1969.77 1454.1 Q1966.16 1454.1 1964.33 1457.66 Q1962.53 1461.2 1962.53 1468.33 Q1962.53 1475.44 1964.33 1479.01 Q1966.16 1482.55 1969.77 1482.55 Q1973.41 1482.55 1975.21 1479.01 Q1977.04 1475.44 1977.04 1468.33 Q1977.04 1461.2 1975.21 1457.66 Q1973.41 1454.1 1969.77 1454.1 M1969.77 1450.39 Q1975.58 1450.39 1978.64 1455 Q1981.72 1459.58 1981.72 1468.33 Q1981.72 1477.06 1978.64 1481.67 Q1975.58 1486.25 1969.77 1486.25 Q1963.96 1486.25 1960.89 1481.67 Q1957.83 1477.06 1957.83 1468.33 Q1957.83 1459.58 1960.89 1455 Q1963.96 1450.39 1969.77 1450.39 Z" fill="#000000" fill-rule="nonzero" fill-opacity="1" /><path clip-path="url(#clip730)" d="M779.566 1524.18 L779.566 1530.96 Q776.32 1527.94 772.627 1526.44 Q768.967 1524.95 764.83 1524.95 Q756.681 1524.95 752.353 1529.95 Q748.024 1534.91 748.024 1544.33 Q748.024 1553.72 752.353 1558.72 Q756.681 1563.68 764.83 1563.68 Q768.967 1563.68 772.627 1562.19 Q776.32 1560.69 779.566 1557.67 L779.566 1564.38 Q776.192 1566.68 772.405 1567.82 Q768.649 1568.97 764.448 1568.97 Q753.658 1568.97 747.451 1562.38 Q741.245 1555.76 741.245 1544.33 Q741.245 1532.87 747.451 1526.28 Q753.658 1519.66 764.448 1519.66 Q768.713 1519.66 772.468 1520.81 Q776.256 1521.92 779.566 1524.18 Z" fill="#000000" fill-rule="nonzero" fill-opacity="1" /><path clip-path="url(#clip730)" d="M805.443 1550.12 Q798.345 1550.12 795.608 1551.75 Q792.87 1553.37 792.87 1557.29 Q792.87 1560.4 794.907 1562.25 Q796.976 1564.07 800.509 1564.07 Q805.379 1564.07 808.307 1560.63 Q811.267 1557.16 811.267 1551.43 L811.267 1550.12 L805.443 1550.12 M817.124 1547.71 L817.124 1568.04 L811.267 1568.04 L811.267 1562.63 Q809.262 1565.88 806.27 1567.44 Q803.278 1568.97 798.95 1568.97 Q793.475 1568.97 790.229 1565.91 Q787.014 1562.82 787.014 1557.67 Q787.014 1551.65 791.024 1548.6 Q795.067 1545.54 803.056 1545.54 L811.267 1545.54 L811.267 1544.97 Q811.267 1540.93 808.594 1538.73 Q805.952 1536.5 801.146 1536.5 Q798.09 1536.5 795.194 1537.23 Q792.298 1537.97 789.624 1539.43 L789.624 1534.02 Q792.839 1532.78 795.862 1532.17 Q798.886 1531.54 801.751 1531.54 Q809.485 1531.54 813.304 1535.55 Q817.124 1539.56 817.124 1547.71 Z" fill="#000000" fill-rule="nonzero" fill-opacity="1" /><path clip-path="url(#clip730)" d="M829.187 1518.52 L835.043 1518.52 L835.043 1568.04 L829.187 1568.04 L829.187 1518.52 Z" fill="#000000" fill-rule="nonzero" fill-opacity="1" /><path clip-path="url(#clip730)" d="M872.951 1533.76 L872.951 1539.24 Q870.468 1537.87 867.954 1537.2 Q865.471 1536.5 862.925 1536.5 Q857.228 1536.5 854.077 1540.13 Q850.926 1543.73 850.926 1550.25 Q850.926 1556.78 854.077 1560.4 Q857.228 1564 862.925 1564 Q865.471 1564 867.954 1563.33 Q870.468 1562.63 872.951 1561.26 L872.951 1566.68 Q870.5 1567.82 867.858 1568.39 Q865.249 1568.97 862.288 1568.97 Q854.236 1568.97 849.493 1563.91 Q844.751 1558.85 844.751 1550.25 Q844.751 1541.53 849.525 1536.53 Q854.331 1531.54 862.67 1531.54 Q865.376 1531.54 867.954 1532.11 Q870.532 1532.65 872.951 1533.76 Z" fill="#000000" fill-rule="nonzero" fill-opacity="1" /><path clip-path="url(#clip730)" d="M882.531 1553.98 L882.531 1532.4 L888.388 1532.4 L888.388 1553.75 Q888.388 1558.81 890.361 1561.36 Q892.335 1563.87 896.281 1563.87 Q901.024 1563.87 903.761 1560.85 Q906.53 1557.83 906.53 1552.61 L906.53 1532.4 L912.387 1532.4 L912.387 1568.04 L906.53 1568.04 L906.53 1562.57 Q904.398 1565.82 901.565 1567.41 Q898.764 1568.97 895.04 1568.97 Q888.897 1568.97 885.714 1565.15 Q882.531 1561.33 882.531 1553.98 M897.268 1531.54 L897.268 1531.54 Z" fill="#000000" fill-rule="nonzero" fill-opacity="1" /><path clip-path="url(#clip730)" d="M924.45 1518.52 L930.306 1518.52 L930.306 1568.04 L924.45 1568.04 L924.45 1518.52 Z" fill="#000000" fill-rule="nonzero" fill-opacity="1" /><path clip-path="url(#clip730)" d="M958.761 1550.12 Q951.663 1550.12 948.926 1551.75 Q946.188 1553.37 946.188 1557.29 Q946.188 1560.4 948.226 1562.25 Q950.294 1564.07 953.827 1564.07 Q958.697 1564.07 961.625 1560.63 Q964.585 1557.16 964.585 1551.43 L964.585 1550.12 L958.761 1550.12 M970.442 1547.71 L970.442 1568.04 L964.585 1568.04 L964.585 1562.63 Q962.58 1565.88 959.588 1567.44 Q956.596 1568.97 952.268 1568.97 Q946.793 1568.97 943.547 1565.91 Q940.332 1562.82 940.332 1557.67 Q940.332 1551.65 944.342 1548.6 Q948.385 1545.54 956.374 1545.54 L964.585 1545.54 L964.585 1544.97 Q964.585 1540.93 961.912 1538.73 Q959.27 1536.5 954.464 1536.5 Q951.408 1536.5 948.512 1537.23 Q945.616 1537.97 942.942 1539.43 L942.942 1534.02 Q946.157 1532.78 949.18 1532.17 Q952.204 1531.54 955.069 1531.54 Q962.803 1531.54 966.622 1535.55 Q970.442 1539.56 970.442 1547.71 Z" fill="#000000" fill-rule="nonzero" fill-opacity="1" /><path clip-path="url(#clip730)" d="M988.298 1522.27 L988.298 1532.4 L1000.36 1532.4 L1000.36 1536.95 L988.298 1536.95 L988.298 1556.3 Q988.298 1560.66 989.475 1561.9 Q990.685 1563.14 994.345 1563.14 L1000.36 1563.14 L1000.36 1568.04 L994.345 1568.04 Q987.566 1568.04 984.987 1565.53 Q982.409 1562.98 982.409 1556.3 L982.409 1536.95 L978.113 1536.95 L978.113 1532.4 L982.409 1532.4 L982.409 1522.27 L988.298 1522.27 Z" fill="#000000" fill-rule="nonzero" fill-opacity="1" /><path clip-path="url(#clip730)" d="M1038.55 1548.76 L1038.55 1551.62 L1011.63 1551.62 Q1012.01 1557.67 1015.26 1560.85 Q1018.53 1564 1024.36 1564 Q1027.73 1564 1030.88 1563.17 Q1034.07 1562.35 1037.19 1560.69 L1037.19 1566.23 Q1034.04 1567.57 1030.73 1568.27 Q1027.41 1568.97 1024.01 1568.97 Q1015.48 1568.97 1010.48 1564 Q1005.52 1559.04 1005.52 1550.57 Q1005.52 1541.82 1010.23 1536.69 Q1014.97 1531.54 1022.99 1531.54 Q1030.18 1531.54 1034.35 1536.18 Q1038.55 1540.8 1038.55 1548.76 M1032.7 1547.04 Q1032.63 1542.23 1029.99 1539.37 Q1027.38 1536.5 1023.05 1536.5 Q1018.15 1536.5 1015.19 1539.27 Q1012.26 1542.04 1011.82 1547.07 L1032.7 1547.04 Z" fill="#000000" fill-rule="nonzero" fill-opacity="1" /><path clip-path="url(#clip730)" d="M1071.62 1537.81 L1071.62 1518.52 L1077.48 1518.52 L1077.48 1568.04 L1071.62 1568.04 L1071.62 1562.7 Q1069.78 1565.88 1066.95 1567.44 Q1064.15 1568.97 1060.2 1568.97 Q1053.74 1568.97 1049.66 1563.81 Q1045.62 1558.65 1045.62 1550.25 Q1045.62 1541.85 1049.66 1536.69 Q1053.74 1531.54 1060.2 1531.54 Q1064.15 1531.54 1066.95 1533.1 Q1069.78 1534.62 1071.62 1537.81 M1051.67 1550.25 Q1051.67 1556.71 1054.31 1560.4 Q1056.98 1564.07 1061.63 1564.07 Q1066.28 1564.07 1068.95 1560.4 Q1071.62 1556.71 1071.62 1550.25 Q1071.62 1543.79 1068.95 1540.13 Q1066.28 1536.44 1061.63 1536.44 Q1056.98 1536.44 1054.31 1540.13 Q1051.67 1543.79 1051.67 1550.25 Z" fill="#000000" fill-rule="nonzero" fill-opacity="1" /><path clip-path="url(#clip730)" d="M1139.9 1546.53 L1139.9 1568.04 L1134.04 1568.04 L1134.04 1546.72 Q1134.04 1541.66 1132.07 1539.14 Q1130.09 1536.63 1126.15 1536.63 Q1121.4 1536.63 1118.67 1539.65 Q1115.93 1542.68 1115.93 1547.9 L1115.93 1568.04 L1110.04 1568.04 L1110.04 1532.4 L1115.93 1532.4 L1115.93 1537.93 Q1118.03 1534.72 1120.86 1533.13 Q1123.73 1531.54 1127.45 1531.54 Q1133.59 1531.54 1136.75 1535.36 Q1139.9 1539.14 1139.9 1546.53 Z" fill="#000000" fill-rule="nonzero" fill-opacity="1" /><path clip-path="url(#clip730)" d="M1182.07 1548.76 L1182.07 1551.62 L1155.14 1551.62 Q1155.52 1557.67 1158.77 1560.85 Q1162.05 1564 1167.87 1564 Q1171.25 1564 1174.4 1563.17 Q1177.58 1562.35 1180.7 1560.69 L1180.7 1566.23 Q1177.55 1567.57 1174.24 1568.27 Q1170.93 1568.97 1167.52 1568.97 Q1158.99 1568.97 1154 1564 Q1149.03 1559.04 1149.03 1550.57 Q1149.03 1541.82 1153.74 1536.69 Q1158.48 1531.54 1166.51 1531.54 Q1173.7 1531.54 1177.87 1536.18 Q1182.07 1540.8 1182.07 1548.76 M1176.21 1547.04 Q1176.15 1542.23 1173.51 1539.37 Q1170.9 1536.5 1166.57 1536.5 Q1161.67 1536.5 1158.71 1539.27 Q1155.78 1542.04 1155.33 1547.07 L1176.21 1547.04 Z" fill="#000000" fill-rule="nonzero" fill-opacity="1" /><path clip-path="url(#clip730)" d="M1191.08 1553.98 L1191.08 1532.4 L1196.93 1532.4 L1196.93 1553.75 Q1196.93 1558.81 1198.91 1561.36 Q1200.88 1563.87 1204.83 1563.87 Q1209.57 1563.87 1212.31 1560.85 Q1215.08 1557.83 1215.08 1552.61 L1215.08 1532.4 L1220.93 1532.4 L1220.93 1568.04 L1215.08 1568.04 L1215.08 1562.57 Q1212.94 1565.82 1210.11 1567.41 Q1207.31 1568.97 1203.59 1568.97 Q1197.44 1568.97 1194.26 1565.15 Q1191.08 1561.33 1191.08 1553.98 M1205.81 1531.54 L1205.81 1531.54 Z" fill="#000000" fill-rule="nonzero" fill-opacity="1" /><path clip-path="url(#clip730)" d="M1238.79 1522.27 L1238.79 1532.4 L1250.85 1532.4 L1250.85 1536.95 L1238.79 1536.95 L1238.79 1556.3 Q1238.79 1560.66 1239.97 1561.9 Q1241.18 1563.14 1244.84 1563.14 L1250.85 1563.14 L1250.85 1568.04 L1244.84 1568.04 Q1238.06 1568.04 1235.48 1565.53 Q1232.9 1562.98 1232.9 1556.3 L1232.9 1536.95 L1228.6 1536.95 L1228.6 1532.4 L1232.9 1532.4 L1232.9 1522.27 L1238.79 1522.27 Z" fill="#000000" fill-rule="nonzero" fill-opacity="1" /><path clip-path="url(#clip730)" d="M1279.21 1537.87 Q1278.22 1537.3 1277.05 1537.04 Q1275.9 1536.76 1274.5 1536.76 Q1269.53 1536.76 1266.86 1540 Q1264.22 1543.22 1264.22 1549.27 L1264.22 1568.04 L1258.33 1568.04 L1258.33 1532.4 L1264.22 1532.4 L1264.22 1537.93 Q1266.07 1534.69 1269.03 1533.13 Q1271.99 1531.54 1276.22 1531.54 Q1276.82 1531.54 1277.56 1531.63 Q1278.29 1531.7 1279.18 1531.85 L1279.21 1537.87 Z" fill="#000000" fill-rule="nonzero" fill-opacity="1" /><path clip-path="url(#clip730)" d="M1297.73 1536.5 Q1293.02 1536.5 1290.29 1540.19 Q1287.55 1543.85 1287.55 1550.25 Q1287.55 1556.65 1290.25 1560.34 Q1292.99 1564 1297.73 1564 Q1302.41 1564 1305.15 1560.31 Q1307.89 1556.62 1307.89 1550.25 Q1307.89 1543.92 1305.15 1540.23 Q1302.41 1536.5 1297.73 1536.5 M1297.73 1531.54 Q1305.37 1531.54 1309.73 1536.5 Q1314.09 1541.47 1314.09 1550.25 Q1314.09 1559 1309.73 1564 Q1305.37 1568.97 1297.73 1568.97 Q1290.06 1568.97 1285.7 1564 Q1281.37 1559 1281.37 1550.25 Q1281.37 1541.47 1285.7 1536.5 Q1290.06 1531.54 1297.73 1531.54 Z" fill="#000000" fill-rule="nonzero" fill-opacity="1" /><path clip-path="url(#clip730)" d="M1353.43 1546.53 L1353.43 1568.04 L1347.58 1568.04 L1347.58 1546.72 Q1347.58 1541.66 1345.6 1539.14 Q1343.63 1536.63 1339.68 1536.63 Q1334.94 1536.63 1332.2 1539.65 Q1329.47 1542.68 1329.47 1547.9 L1329.47 1568.04 L1323.58 1568.04 L1323.58 1532.4 L1329.47 1532.4 L1329.47 1537.93 Q1331.57 1534.72 1334.4 1533.13 Q1337.27 1531.54 1340.99 1531.54 Q1347.13 1531.54 1350.28 1535.36 Q1353.43 1539.14 1353.43 1546.53 Z" fill="#000000" fill-rule="nonzero" fill-opacity="1" /><path clip-path="url(#clip730)" d="M1416.33 1548.76 L1416.33 1551.62 L1389.4 1551.62 Q1389.78 1557.67 1393.03 1560.85 Q1396.31 1564 1402.13 1564 Q1405.51 1564 1408.66 1563.17 Q1411.84 1562.35 1414.96 1560.69 L1414.96 1566.23 Q1411.81 1567.57 1408.5 1568.27 Q1405.19 1568.97 1401.78 1568.97 Q1393.25 1568.97 1388.25 1564 Q1383.29 1559.04 1383.29 1550.57 Q1383.29 1541.82 1388 1536.69 Q1392.74 1531.54 1400.76 1531.54 Q1407.96 1531.54 1412.13 1536.18 Q1416.33 1540.8 1416.33 1548.76 M1410.47 1547.04 Q1410.41 1542.23 1407.77 1539.37 Q1405.16 1536.5 1400.83 1536.5 Q1395.93 1536.5 1392.97 1539.27 Q1390.04 1542.04 1389.59 1547.07 L1410.47 1547.04 Z" fill="#000000" fill-rule="nonzero" fill-opacity="1" /><path clip-path="url(#clip730)" d="M1455.57 1546.53 L1455.57 1568.04 L1449.72 1568.04 L1449.72 1546.72 Q1449.72 1541.66 1447.74 1539.14 Q1445.77 1536.63 1441.82 1536.63 Q1437.08 1536.63 1434.34 1539.65 Q1431.61 1542.68 1431.61 1547.9 L1431.61 1568.04 L1425.72 1568.04 L1425.72 1532.4 L1431.61 1532.4 L1431.61 1537.93 Q1433.71 1534.72 1436.54 1533.13 Q1439.4 1531.54 1443.13 1531.54 Q1449.27 1531.54 1452.42 1535.36 Q1455.57 1539.14 1455.57 1546.53 Z" fill="#000000" fill-rule="nonzero" fill-opacity="1" /><path clip-path="url(#clip730)" d="M1497.75 1548.76 L1497.75 1551.62 L1470.82 1551.62 Q1471.2 1557.67 1474.45 1560.85 Q1477.72 1564 1483.55 1564 Q1486.92 1564 1490.07 1563.17 Q1493.26 1562.35 1496.38 1560.69 L1496.38 1566.23 Q1493.23 1567.57 1489.92 1568.27 Q1486.61 1568.97 1483.2 1568.97 Q1474.67 1568.97 1469.67 1564 Q1464.71 1559.04 1464.71 1550.57 Q1464.71 1541.82 1469.42 1536.69 Q1474.16 1531.54 1482.18 1531.54 Q1489.37 1531.54 1493.54 1536.18 Q1497.75 1540.8 1497.75 1548.76 M1491.89 1547.04 Q1491.83 1542.23 1489.18 1539.37 Q1486.57 1536.5 1482.24 1536.5 Q1477.34 1536.5 1474.38 1539.27 Q1471.45 1542.04 1471.01 1547.07 L1491.89 1547.04 Z" fill="#000000" fill-rule="nonzero" fill-opacity="1" /><path clip-path="url(#clip730)" d="M1528.01 1537.87 Q1527.03 1537.3 1525.85 1537.04 Q1524.7 1536.76 1523.3 1536.76 Q1518.34 1536.76 1515.66 1540 Q1513.02 1543.22 1513.02 1549.27 L1513.02 1568.04 L1507.13 1568.04 L1507.13 1532.4 L1513.02 1532.4 L1513.02 1537.93 Q1514.87 1534.69 1517.83 1533.13 Q1520.79 1531.54 1525.02 1531.54 Q1525.63 1531.54 1526.36 1531.63 Q1527.09 1531.7 1527.98 1531.85 L1528.01 1537.87 Z" fill="#000000" fill-rule="nonzero" fill-opacity="1" /><path clip-path="url(#clip730)" d="M1556.47 1549.81 Q1556.47 1543.44 1553.83 1539.94 Q1551.22 1536.44 1546.47 1536.44 Q1541.76 1536.44 1539.12 1539.94 Q1536.51 1543.44 1536.51 1549.81 Q1536.51 1556.14 1539.12 1559.64 Q1541.76 1563.14 1546.47 1563.14 Q1551.22 1563.14 1553.83 1559.64 Q1556.47 1556.14 1556.47 1549.81 M1562.33 1563.62 Q1562.33 1572.72 1558.28 1577.15 Q1554.24 1581.6 1545.9 1581.6 Q1542.81 1581.6 1540.08 1581.13 Q1537.34 1580.68 1534.76 1579.72 L1534.76 1574.03 Q1537.34 1575.43 1539.85 1576.1 Q1542.37 1576.76 1544.98 1576.76 Q1550.74 1576.76 1553.6 1573.74 Q1556.47 1570.75 1556.47 1564.67 L1556.47 1561.77 Q1554.65 1564.92 1551.82 1566.48 Q1548.99 1568.04 1545.04 1568.04 Q1538.49 1568.04 1534.48 1563.05 Q1530.46 1558.05 1530.46 1549.81 Q1530.46 1541.53 1534.48 1536.53 Q1538.49 1531.54 1545.04 1531.54 Q1548.99 1531.54 1551.82 1533.1 Q1554.65 1534.66 1556.47 1537.81 L1556.47 1532.4 L1562.33 1532.4 L1562.33 1563.62 Z" fill="#000000" fill-rule="nonzero" fill-opacity="1" /><path clip-path="url(#clip730)" d="M1589.22 1571.35 Q1586.74 1577.72 1584.38 1579.66 Q1582.03 1581.6 1578.08 1581.6 L1573.4 1581.6 L1573.4 1576.7 L1576.84 1576.7 Q1579.26 1576.7 1580.59 1575.56 Q1581.93 1574.41 1583.55 1570.14 L1584.61 1567.47 L1570.19 1532.4 L1576.39 1532.4 L1587.53 1560.28 L1598.67 1532.4 L1604.88 1532.4 L1589.22 1571.35 Z" fill="#000000" fill-rule="nonzero" fill-opacity="1" /><path clip-path="url(#clip730)" d="M1647.75 1518.58 Q1643.49 1525.9 1641.42 1533.06 Q1639.35 1540.23 1639.35 1547.58 Q1639.35 1554.93 1641.42 1562.16 Q1643.52 1569.35 1647.75 1576.64 L1642.66 1576.64 Q1637.89 1569.16 1635.5 1561.93 Q1633.14 1554.71 1633.14 1547.58 Q1633.14 1540.48 1635.5 1533.29 Q1637.85 1526.09 1642.66 1518.58 L1647.75 1518.58 Z" fill="#000000" fill-rule="nonzero" fill-opacity="1" /><path clip-path="url(#clip730)" d="M1659.37 1520.52 L1668.95 1520.52 L1681.08 1552.86 L1693.27 1520.52 L1702.85 1520.52 L1702.85 1568.04 L1696.58 1568.04 L1696.58 1526.32 L1684.32 1558.91 L1677.86 1558.91 L1665.61 1526.32 L1665.61 1568.04 L1659.37 1568.04 L1659.37 1520.52 Z" fill="#000000" fill-rule="nonzero" fill-opacity="1" /><path clip-path="url(#clip730)" d="M1745.85 1548.76 L1745.85 1551.62 L1718.92 1551.62 Q1719.3 1557.67 1722.55 1560.85 Q1725.83 1564 1731.65 1564 Q1735.03 1564 1738.18 1563.17 Q1741.36 1562.35 1744.48 1560.69 L1744.48 1566.23 Q1741.33 1567.57 1738.02 1568.27 Q1734.71 1568.97 1731.3 1568.97 Q1722.77 1568.97 1717.78 1564 Q1712.81 1559.04 1712.81 1550.57 Q1712.81 1541.82 1717.52 1536.69 Q1722.26 1531.54 1730.28 1531.54 Q1737.48 1531.54 1741.65 1536.18 Q1745.85 1540.8 1745.85 1548.76 M1739.99 1547.04 Q1739.93 1542.23 1737.29 1539.37 Q1734.68 1536.5 1730.35 1536.5 Q1725.45 1536.5 1722.49 1539.27 Q1719.56 1542.04 1719.11 1547.07 L1739.99 1547.04 Z" fill="#000000" fill-rule="nonzero" fill-opacity="1" /><path clip-path="url(#clip730)" d="M1767.97 1568.04 L1749.83 1520.52 L1756.54 1520.52 L1771.6 1560.53 L1786.68 1520.52 L1793.37 1520.52 L1775.26 1568.04 L1767.97 1568.04 Z" fill="#000000" fill-rule="nonzero" fill-opacity="1" /><path clip-path="url(#clip730)" d="M1799.13 1518.58 L1804.22 1518.58 Q1809 1526.09 1811.35 1533.29 Q1813.74 1540.48 1813.74 1547.58 Q1813.74 1554.71 1811.35 1561.93 Q1809 1569.16 1804.22 1576.64 L1799.13 1576.64 Q1803.36 1569.35 1805.43 1562.16 Q1807.53 1554.93 1807.53 1547.58 Q1807.53 1540.23 1805.43 1533.06 Q1803.36 1525.9 1799.13 1518.58 Z" fill="#000000" fill-rule="nonzero" fill-opacity="1" /><polyline clip-path="url(#clip730)" style="stroke:#000000; stroke-linecap:round; stroke-linejoin:round; stroke-width:4; stroke-opacity:1; fill:none" points="202.227,1423.18 202.227,123.472 "/>
<polyline clip-path="url(#clip730)" style="stroke:#000000; stroke-linecap:round; stroke-linejoin:round; stroke-width:4; stroke-opacity:1; fill:none" points="202.227,1386.4 221.125,1386.4 "/>
<polyline clip-path="url(#clip730)" style="stroke:#000000; stroke-linecap:round; stroke-linejoin:round; stroke-width:4; stroke-opacity:1; fill:none" points="202.227,977.683 221.125,977.683 "/>
<polyline clip-path="url(#clip730)" style="stroke:#000000; stroke-linecap:round; stroke-linejoin:round; stroke-width:4; stroke-opacity:1; fill:none" points="202.227,568.969 221.125,568.969 "/>
<polyline clip-path="url(#clip730)" style="stroke:#000000; stroke-linecap:round; stroke-linejoin:round; stroke-width:4; stroke-opacity:1; fill:none" points="202.227,160.256 221.125,160.256 "/>
<path clip-path="url(#clip730)" d="M154.283 1372.19 Q150.672 1372.19 148.843 1375.76 Q147.038 1379.3 147.038 1386.43 Q147.038 1393.54 148.843 1397.1 Q150.672 1400.64 154.283 1400.64 Q157.917 1400.64 159.723 1397.1 Q161.552 1393.54 161.552 1386.43 Q161.552 1379.3 159.723 1375.76 Q157.917 1372.19 154.283 1372.19 M154.283 1368.49 Q160.093 1368.49 163.149 1373.1 Q166.227 1377.68 166.227 1386.43 Q166.227 1395.16 163.149 1399.76 Q160.093 1404.35 154.283 1404.35 Q148.473 1404.35 145.394 1399.76 Q142.339 1395.16 142.339 1386.43 Q142.339 1377.68 145.394 1373.1 Q148.473 1368.49 154.283 1368.49 Z" fill="#000000" fill-rule="nonzero" fill-opacity="1" /><path clip-path="url(#clip730)" d="M145.325 960.403 L163.681 960.403 L163.681 964.338 L149.607 964.338 L149.607 972.81 Q150.626 972.463 151.644 972.301 Q152.663 972.115 153.681 972.115 Q159.468 972.115 162.848 975.287 Q166.227 978.458 166.227 983.875 Q166.227 989.453 162.755 992.555 Q159.283 995.634 152.964 995.634 Q150.788 995.634 148.519 995.263 Q146.274 994.893 143.866 994.152 L143.866 989.453 Q145.95 990.588 148.172 991.143 Q150.394 991.699 152.871 991.699 Q156.876 991.699 159.214 989.592 Q161.552 987.486 161.552 983.875 Q161.552 980.264 159.214 978.157 Q156.876 976.051 152.871 976.051 Q150.996 976.051 149.121 976.467 Q147.269 976.884 145.325 977.764 L145.325 960.403 Z" fill="#000000" fill-rule="nonzero" fill-opacity="1" /><path clip-path="url(#clip730)" d="M114.931 582.314 L122.57 582.314 L122.57 555.949 L114.26 557.615 L114.26 553.356 L122.524 551.689 L127.2 551.689 L127.2 582.314 L134.839 582.314 L134.839 586.249 L114.931 586.249 L114.931 582.314 Z" fill="#000000" fill-rule="nonzero" fill-opacity="1" /><path clip-path="url(#clip730)" d="M154.283 554.768 Q150.672 554.768 148.843 558.333 Q147.038 561.875 147.038 569.004 Q147.038 576.111 148.843 579.675 Q150.672 583.217 154.283 583.217 Q157.917 583.217 159.723 579.675 Q161.552 576.111 161.552 569.004 Q161.552 561.875 159.723 558.333 Q157.917 554.768 154.283 554.768 M154.283 551.064 Q160.093 551.064 163.149 555.671 Q166.227 560.254 166.227 569.004 Q166.227 577.731 163.149 582.337 Q160.093 586.921 154.283 586.921 Q148.473 586.921 145.394 582.337 Q142.339 577.731 142.339 569.004 Q142.339 560.254 145.394 555.671 Q148.473 551.064 154.283 551.064 Z" fill="#000000" fill-rule="nonzero" fill-opacity="1" /><path clip-path="url(#clip730)" d="M115.927 173.601 L123.566 173.601 L123.566 147.236 L115.256 148.902 L115.256 144.643 L123.519 142.976 L128.195 142.976 L128.195 173.601 L135.834 173.601 L135.834 177.536 L115.927 177.536 L115.927 173.601 Z" fill="#000000" fill-rule="nonzero" fill-opacity="1" /><path clip-path="url(#clip730)" d="M145.325 142.976 L163.681 142.976 L163.681 146.911 L149.607 146.911 L149.607 155.384 Q150.626 155.036 151.644 154.874 Q152.663 154.689 153.681 154.689 Q159.468 154.689 162.848 157.86 Q166.227 161.032 166.227 166.448 Q166.227 172.027 162.755 175.129 Q159.283 178.208 152.964 178.208 Q150.788 178.208 148.519 177.837 Q146.274 177.467 143.866 176.726 L143.866 172.027 Q145.95 173.161 148.172 173.717 Q150.394 174.272 152.871 174.272 Q156.876 174.272 159.214 172.166 Q161.552 170.059 161.552 166.448 Q161.552 162.837 159.214 160.731 Q156.876 158.624 152.871 158.624 Q150.996 158.624 149.121 159.041 Q147.269 159.458 145.325 160.337 L145.325 142.976 Z" fill="#000000" fill-rule="nonzero" fill-opacity="1" /><path clip-path="url(#clip730)" d="M20.1444 845.354 L26.9239 845.354 Q23.9002 848.6 22.4043 852.293 Q20.9083 855.953 20.9083 860.091 Q20.9083 868.239 25.9054 872.567 Q30.8707 876.896 40.2919 876.896 Q49.6813 876.896 54.6784 872.567 Q59.6436 868.239 59.6436 860.091 Q59.6436 855.953 58.1477 852.293 Q56.6518 848.6 53.6281 845.354 L60.3439 845.354 Q62.6355 848.728 63.7814 852.515 Q64.9272 856.271 64.9272 860.473 Q64.9272 871.262 58.3387 877.469 Q51.7183 883.676 40.2919 883.676 Q28.8336 883.676 22.2451 877.469 Q15.6248 871.262 15.6248 860.473 Q15.6248 856.207 16.7706 852.452 Q17.8846 848.664 20.1444 845.354 Z" fill="#000000" fill-rule="nonzero" fill-opacity="1" /><path clip-path="url(#clip730)" d="M32.4621 821.864 Q32.4621 826.575 36.1542 829.312 Q39.8145 832.05 46.212 832.05 Q52.6095 832.05 56.3017 829.344 Q59.9619 826.607 59.9619 821.864 Q59.9619 817.186 56.2698 814.448 Q52.5777 811.711 46.212 811.711 Q39.8781 811.711 36.186 814.448 Q32.4621 817.186 32.4621 821.864 M27.4968 821.864 Q27.4968 814.226 32.4621 809.865 Q37.4273 805.505 46.212 805.505 Q54.9649 805.505 59.9619 809.865 Q64.9272 814.226 64.9272 821.864 Q64.9272 829.535 59.9619 833.896 Q54.9649 838.224 46.212 838.224 Q37.4273 838.224 32.4621 833.896 Q27.4968 829.535 27.4968 821.864 Z" fill="#000000" fill-rule="nonzero" fill-opacity="1" /><path clip-path="url(#clip730)" d="M49.9359 796.402 L28.3562 796.402 L28.3562 790.545 L49.7131 790.545 Q54.7739 790.545 57.3202 788.572 Q59.8346 786.598 59.8346 782.652 Q59.8346 777.909 56.8109 775.172 Q53.7872 772.403 48.5673 772.403 L28.3562 772.403 L28.3562 766.547 L64.0042 766.547 L64.0042 772.403 L58.5296 772.403 Q61.7762 774.535 63.3676 777.368 Q64.9272 780.169 64.9272 783.893 Q64.9272 790.036 61.1078 793.219 Q57.2883 796.402 49.9359 796.402 M27.4968 781.665 L27.4968 781.665 Z" fill="#000000" fill-rule="nonzero" fill-opacity="1" /><path clip-path="url(#clip730)" d="M42.4881 724.851 L64.0042 724.851 L64.0042 730.708 L42.679 730.708 Q37.6183 730.708 35.1038 732.681 Q32.5894 734.654 32.5894 738.601 Q32.5894 743.344 35.6131 746.081 Q38.6368 748.818 43.8567 748.818 L64.0042 748.818 L64.0042 754.706 L28.3562 754.706 L28.3562 748.818 L33.8944 748.818 Q30.6797 746.717 29.0883 743.885 Q27.4968 741.02 27.4968 737.296 Q27.4968 731.153 31.3163 728.002 Q35.1038 724.851 42.4881 724.851 Z" fill="#000000" fill-rule="nonzero" fill-opacity="1" /><path clip-path="url(#clip730)" d="M18.2347 707.377 L28.3562 707.377 L28.3562 695.314 L32.9077 695.314 L32.9077 707.377 L52.2594 707.377 Q56.6199 707.377 57.8613 706.2 Q59.1026 704.99 59.1026 701.33 L59.1026 695.314 L64.0042 695.314 L64.0042 701.33 Q64.0042 708.109 61.4897 710.687 Q58.9434 713.266 52.2594 713.266 L32.9077 713.266 L32.9077 717.562 L28.3562 717.562 L28.3562 713.266 L18.2347 713.266 L18.2347 707.377 Z" fill="#000000" fill-rule="nonzero" fill-opacity="1" /><path clip-path="url(#clip730)" d="M29.4065 664.886 L34.9447 664.886 Q33.6716 667.369 33.035 670.042 Q32.3984 672.716 32.3984 675.581 Q32.3984 679.941 33.7352 682.137 Q35.072 684.302 37.7456 684.302 Q39.7826 684.302 40.9603 682.742 Q42.1061 681.182 43.1565 676.472 L43.6021 674.467 Q44.9389 668.228 47.3897 665.618 Q49.8086 662.976 54.1691 662.976 Q59.1344 662.976 62.0308 666.923 Q64.9272 670.838 64.9272 677.713 Q64.9272 680.578 64.3543 683.697 Q63.8132 686.784 62.6992 690.222 L56.6518 690.222 Q58.3387 686.975 59.198 683.824 Q60.0256 680.673 60.0256 677.586 Q60.0256 673.448 58.6251 671.22 Q57.1929 668.992 54.6147 668.992 Q52.2276 668.992 50.9545 670.615 Q49.6813 672.207 48.5037 677.649 L48.0262 679.686 Q46.8804 685.129 44.5251 687.548 Q42.138 689.967 38.0002 689.967 Q32.9713 689.967 30.2341 686.402 Q27.4968 682.837 27.4968 676.281 Q27.4968 673.034 27.9743 670.17 Q28.4517 667.305 29.4065 664.886 Z" fill="#000000" fill-rule="nonzero" fill-opacity="1" /><path clip-path="url(#clip730)" d="M709.838 65.6895 L738.397 65.6895 L738.397 72.576 L699.995 72.576 L699.995 65.6895 Q704.653 60.8689 712.674 52.7671 Q720.735 44.6248 722.801 42.2752 Q726.731 37.8598 728.27 34.8216 Q729.85 31.7429 729.85 28.7857 Q729.85 23.9651 726.447 20.927 Q723.085 17.8888 717.657 17.8888 Q713.808 17.8888 709.514 19.2256 Q705.261 20.5624 700.4 23.2765 L700.4 15.0127 Q705.342 13.0277 709.636 12.015 Q713.93 11.0023 717.495 11.0023 Q726.893 11.0023 732.483 15.7013 Q738.073 20.4004 738.073 28.2591 Q738.073 31.9859 736.655 35.3482 Q735.278 38.6699 731.592 43.2069 Q730.579 44.3817 725.151 50.0125 Q719.723 55.6027 709.838 65.6895 Z" fill="#000000" fill-rule="nonzero" fill-opacity="1" /><path clip-path="url(#clip730)" d="M753.507 12.096 L792.396 12.096 L792.396 15.5798 L770.44 72.576 L761.893 72.576 L782.552 18.9825 L753.507 18.9825 L753.507 12.096 Z" fill="#000000" fill-rule="nonzero" fill-opacity="1" /><path clip-path="url(#clip730)" d="M808.437 12.096 L840.561 12.096 L840.561 18.9825 L815.932 18.9825 L815.932 33.8088 Q817.714 33.2012 819.496 32.9176 Q821.279 32.5936 823.061 32.5936 Q833.189 32.5936 839.103 38.1433 Q845.017 43.6931 845.017 53.1722 Q845.017 62.9348 838.941 68.3631 Q832.864 73.7508 821.805 73.7508 Q817.998 73.7508 814.028 73.1026 Q810.098 72.4545 805.885 71.1582 L805.885 62.9348 Q809.531 64.9198 813.42 65.892 Q817.309 66.8642 821.643 66.8642 Q828.652 66.8642 832.743 63.1779 Q836.834 59.4916 836.834 53.1722 Q836.834 46.8528 832.743 43.1664 Q828.652 39.4801 821.643 39.4801 Q818.362 39.4801 815.081 40.2093 Q811.84 40.9384 808.437 42.4778 L808.437 12.096 Z" fill="#000000" fill-rule="nonzero" fill-opacity="1" /><path clip-path="url(#clip730)" d="M878.64 17.4837 Q872.32 17.4837 869.12 23.7221 Q865.96 29.92 865.96 42.3968 Q865.96 54.833 869.12 61.0714 Q872.32 67.2693 878.64 67.2693 Q885 67.2693 888.159 61.0714 Q891.359 54.833 891.359 42.3968 Q891.359 29.92 888.159 23.7221 Q885 17.4837 878.64 17.4837 M878.64 11.0023 Q888.807 11.0023 894.155 19.0636 Q899.542 27.0843 899.542 42.3968 Q899.542 57.6687 894.155 65.73 Q888.807 73.7508 878.64 73.7508 Q868.472 73.7508 863.084 65.73 Q857.737 57.6687 857.737 42.3968 Q857.737 27.0843 863.084 19.0636 Q868.472 11.0023 878.64 11.0023 Z" fill="#000000" fill-rule="nonzero" fill-opacity="1" /><path clip-path="url(#clip730)" d="M931.423 17.4837 Q925.104 17.4837 921.903 23.7221 Q918.744 29.92 918.744 42.3968 Q918.744 54.833 921.903 61.0714 Q925.104 67.2693 931.423 67.2693 Q937.783 67.2693 940.943 61.0714 Q944.143 54.833 944.143 42.3968 Q944.143 29.92 940.943 23.7221 Q937.783 17.4837 931.423 17.4837 M931.423 11.0023 Q941.591 11.0023 946.938 19.0636 Q952.326 27.0843 952.326 42.3968 Q952.326 57.6687 946.938 65.73 Q941.591 73.7508 931.423 73.7508 Q921.255 73.7508 915.867 65.73 Q910.52 57.6687 910.52 42.3968 Q910.52 27.0843 915.867 19.0636 Q921.255 11.0023 931.423 11.0023 Z" fill="#000000" fill-rule="nonzero" fill-opacity="1" /><path clip-path="url(#clip730)" d="M984.206 17.4837 Q977.887 17.4837 974.687 23.7221 Q971.527 29.92 971.527 42.3968 Q971.527 54.833 974.687 61.0714 Q977.887 67.2693 984.206 67.2693 Q990.566 67.2693 993.726 61.0714 Q996.926 54.833 996.926 42.3968 Q996.926 29.92 993.726 23.7221 Q990.566 17.4837 984.206 17.4837 M984.206 11.0023 Q994.374 11.0023 999.721 19.0636 Q1005.11 27.0843 1005.11 42.3968 Q1005.11 57.6687 999.721 65.73 Q994.374 73.7508 984.206 73.7508 Q974.038 73.7508 968.651 65.73 Q963.304 57.6687 963.304 42.3968 Q963.304 27.0843 968.651 19.0636 Q974.038 11.0023 984.206 11.0023 Z" fill="#000000" fill-rule="nonzero" fill-opacity="1" /><path clip-path="url(#clip730)" d="M1019.49 62.2867 L1028.04 62.2867 L1028.04 72.576 L1019.49 72.576 L1019.49 62.2867 Z" fill="#000000" fill-rule="nonzero" fill-opacity="1" /><path clip-path="url(#clip730)" d="M1063.36 17.4837 Q1057.04 17.4837 1053.84 23.7221 Q1050.68 29.92 1050.68 42.3968 Q1050.68 54.833 1053.84 61.0714 Q1057.04 67.2693 1063.36 67.2693 Q1069.72 67.2693 1072.88 61.0714 Q1076.08 54.833 1076.08 42.3968 Q1076.08 29.92 1072.88 23.7221 Q1069.72 17.4837 1063.36 17.4837 M1063.36 11.0023 Q1073.53 11.0023 1078.88 19.0636 Q1084.26 27.0843 1084.26 42.3968 Q1084.26 57.6687 1078.88 65.73 Q1073.53 73.7508 1063.36 73.7508 Q1053.19 73.7508 1047.81 65.73 Q1042.46 57.6687 1042.46 42.3968 Q1042.46 27.0843 1047.81 19.0636 Q1053.19 11.0023 1063.36 11.0023 Z" fill="#000000" fill-rule="nonzero" fill-opacity="1" /><path clip-path="url(#clip730)" d="M1161.68 45.1919 L1161.68 72.576 L1154.22 72.576 L1154.22 45.4349 Q1154.22 38.994 1151.71 35.7938 Q1149.2 32.5936 1144.18 32.5936 Q1138.14 32.5936 1134.66 36.4419 Q1131.17 40.2903 1131.17 46.9338 L1131.17 72.576 L1123.68 72.576 L1123.68 27.2059 L1131.17 27.2059 L1131.17 34.2544 Q1133.85 30.163 1137.45 28.1376 Q1141.1 26.1121 1145.84 26.1121 Q1153.66 26.1121 1157.67 30.9732 Q1161.68 35.7938 1161.68 45.1919 Z" fill="#000000" fill-rule="nonzero" fill-opacity="1" /><path clip-path="url(#clip730)" d="M1215.35 48.0275 L1215.35 51.6733 L1181.08 51.6733 Q1181.57 59.3701 1185.7 63.421 Q1189.87 67.4314 1197.28 67.4314 Q1201.58 67.4314 1205.59 66.3781 Q1209.64 65.3249 1213.61 63.2184 L1213.61 70.267 Q1209.6 71.9684 1205.39 72.8596 Q1201.17 73.7508 1196.84 73.7508 Q1185.98 73.7508 1179.62 67.4314 Q1173.3 61.1119 1173.3 50.3365 Q1173.3 39.1965 1179.3 32.6746 Q1185.33 26.1121 1195.54 26.1121 Q1204.7 26.1121 1210 32.0264 Q1215.35 37.9003 1215.35 48.0275 M1207.9 45.84 Q1207.82 39.7232 1204.45 36.0774 Q1201.13 32.4315 1195.62 32.4315 Q1189.38 32.4315 1185.62 35.9558 Q1181.89 39.4801 1181.32 45.8805 L1207.9 45.84 Z" fill="#000000" fill-rule="nonzero" fill-opacity="1" /><path clip-path="url(#clip730)" d="M1226.81 54.671 L1226.81 27.2059 L1234.27 27.2059 L1234.27 54.3874 Q1234.27 60.8284 1236.78 64.0691 Q1239.29 67.2693 1244.31 67.2693 Q1250.35 67.2693 1253.83 63.421 Q1257.36 59.5726 1257.36 52.9291 L1257.36 27.2059 L1264.81 27.2059 L1264.81 72.576 L1257.36 72.576 L1257.36 65.6084 Q1254.64 69.7404 1251.04 71.7658 Q1247.47 73.7508 1242.73 73.7508 Q1234.92 73.7508 1230.87 68.8897 Q1226.81 64.0286 1226.81 54.671 M1245.57 26.1121 L1245.57 26.1121 Z" fill="#000000" fill-rule="nonzero" fill-opacity="1" /><path clip-path="url(#clip730)" d="M1287.54 14.324 L1287.54 27.2059 L1302.89 27.2059 L1302.89 32.9987 L1287.54 32.9987 L1287.54 57.6282 Q1287.54 63.1779 1289.04 64.7578 Q1290.58 66.3376 1295.23 66.3376 L1302.89 66.3376 L1302.89 72.576 L1295.23 72.576 Q1286.61 72.576 1283.32 69.3758 Q1280.04 66.1351 1280.04 57.6282 L1280.04 32.9987 L1274.58 32.9987 L1274.58 27.2059 L1280.04 27.2059 L1280.04 14.324 L1287.54 14.324 Z" fill="#000000" fill-rule="nonzero" fill-opacity="1" /><path clip-path="url(#clip730)" d="M1338.98 34.1734 Q1337.73 33.4443 1336.23 33.1202 Q1334.77 32.7556 1332.99 32.7556 Q1326.67 32.7556 1323.27 36.8875 Q1319.9 40.9789 1319.9 48.6757 L1319.9 72.576 L1312.41 72.576 L1312.41 27.2059 L1319.9 27.2059 L1319.9 34.2544 Q1322.25 30.1225 1326.02 28.1376 Q1329.79 26.1121 1335.18 26.1121 Q1335.95 26.1121 1336.88 26.2337 Q1337.81 26.3147 1338.94 26.5172 L1338.98 34.1734 Z" fill="#000000" fill-rule="nonzero" fill-opacity="1" /><path clip-path="url(#clip730)" d="M1362.56 32.4315 Q1356.57 32.4315 1353.08 37.1306 Q1349.6 41.7891 1349.6 49.9314 Q1349.6 58.0738 1353.04 62.7728 Q1356.52 67.4314 1362.56 67.4314 Q1368.52 67.4314 1372 62.7323 Q1375.48 58.0333 1375.48 49.9314 Q1375.48 41.8701 1372 37.1711 Q1368.52 32.4315 1362.56 32.4315 M1362.56 26.1121 Q1372.28 26.1121 1377.83 32.4315 Q1383.38 38.7509 1383.38 49.9314 Q1383.38 61.0714 1377.83 67.4314 Q1372.28 73.7508 1362.56 73.7508 Q1352.8 73.7508 1347.25 67.4314 Q1341.74 61.0714 1341.74 49.9314 Q1341.74 38.7509 1347.25 32.4315 Q1352.8 26.1121 1362.56 26.1121 Z" fill="#000000" fill-rule="nonzero" fill-opacity="1" /><path clip-path="url(#clip730)" d="M1433.45 45.1919 L1433.45 72.576 L1426 72.576 L1426 45.4349 Q1426 38.994 1423.49 35.7938 Q1420.97 32.5936 1415.95 32.5936 Q1409.92 32.5936 1406.43 36.4419 Q1402.95 40.2903 1402.95 46.9338 L1402.95 72.576 L1395.45 72.576 L1395.45 27.2059 L1402.95 27.2059 L1402.95 34.2544 Q1405.62 30.163 1409.23 28.1376 Q1412.87 26.1121 1417.61 26.1121 Q1425.43 26.1121 1429.44 30.9732 Q1433.45 35.7938 1433.45 45.1919 Z" fill="#000000" fill-rule="nonzero" fill-opacity="1" /><path clip-path="url(#clip730)" d="M1477.24 28.5427 L1477.24 35.5912 Q1474.08 33.9709 1470.68 33.1607 Q1467.28 32.3505 1463.63 32.3505 Q1458.08 32.3505 1455.29 34.0519 Q1452.53 35.7533 1452.53 39.156 Q1452.53 41.7486 1454.52 43.2475 Q1456.5 44.7058 1462.5 46.0426 L1465.05 46.6097 Q1472.99 48.3111 1476.31 51.4303 Q1479.67 54.509 1479.67 60.0587 Q1479.67 66.3781 1474.65 70.0644 Q1469.67 73.7508 1460.92 73.7508 Q1457.27 73.7508 1453.3 73.0216 Q1449.37 72.3329 1445 70.9151 L1445 63.2184 Q1449.13 65.3654 1453.14 66.4591 Q1457.15 67.5124 1461.08 67.5124 Q1466.34 67.5124 1469.18 65.73 Q1472.02 63.9071 1472.02 60.6258 Q1472.02 57.5877 1469.95 55.9673 Q1467.92 54.3469 1461 52.8481 L1458.41 52.2405 Q1451.48 50.7821 1448.4 47.7845 Q1445.32 44.7463 1445.32 39.4801 Q1445.32 33.0797 1449.86 29.5959 Q1454.39 26.1121 1462.74 26.1121 Q1466.87 26.1121 1470.52 26.7198 Q1474.16 27.3274 1477.24 28.5427 Z" fill="#000000" fill-rule="nonzero" fill-opacity="1" /><path clip-path="url(#clip730)" d="M1546.84 28.5427 L1546.84 35.5912 Q1543.68 33.9709 1540.27 33.1607 Q1536.87 32.3505 1533.23 32.3505 Q1527.68 32.3505 1524.88 34.0519 Q1522.13 35.7533 1522.13 39.156 Q1522.13 41.7486 1524.11 43.2475 Q1526.1 44.7058 1532.09 46.0426 L1534.64 46.6097 Q1542.58 48.3111 1545.9 51.4303 Q1549.27 54.509 1549.27 60.0587 Q1549.27 66.3781 1544.24 70.0644 Q1539.26 73.7508 1530.51 73.7508 Q1526.87 73.7508 1522.9 73.0216 Q1518.97 72.3329 1514.59 70.9151 L1514.59 63.2184 Q1518.72 65.3654 1522.73 66.4591 Q1526.74 67.5124 1530.67 67.5124 Q1535.94 67.5124 1538.78 65.73 Q1541.61 63.9071 1541.61 60.6258 Q1541.61 57.5877 1539.54 55.9673 Q1537.52 54.3469 1530.59 52.8481 L1528 52.2405 Q1521.07 50.7821 1517.99 47.7845 Q1514.92 44.7463 1514.92 39.4801 Q1514.92 33.0797 1519.45 29.5959 Q1523.99 26.1121 1532.33 26.1121 Q1536.47 26.1121 1540.11 26.7198 Q1543.76 27.3274 1546.84 28.5427 Z" fill="#000000" fill-rule="nonzero" fill-opacity="1" /><path clip-path="url(#clip730)" d="M1558.87 29.0288 L1591.56 29.0288 L1591.56 32.8771 L1558.87 32.8771 L1558.87 29.0288 Z" fill="#000000" fill-rule="nonzero" fill-opacity="1" /><path clip-path="url(#clip730)" d="M1603.43 41.06 L1611.69 41.06 L1611.69 16.3089 L1602.66 17.9698 L1602.66 13.2708 L1611.97 11.6909 L1617.52 11.6909 L1617.52 41.06 L1625.83 41.06 L1625.83 45.516 L1603.43 45.516 L1603.43 41.06 Z" fill="#000000" fill-rule="nonzero" fill-opacity="1" /><path clip-path="url(#clip730)" d="M1697.21 28.9478 L1697.21 35.9153 Q1694.05 34.1734 1690.85 33.3227 Q1687.69 32.4315 1684.45 32.4315 Q1677.19 32.4315 1673.18 37.0496 Q1669.17 41.6271 1669.17 49.9314 Q1669.17 58.2358 1673.18 62.8538 Q1677.19 67.4314 1684.45 67.4314 Q1687.69 67.4314 1690.85 66.5807 Q1694.05 65.6895 1697.21 63.9476 L1697.21 70.8341 Q1694.09 72.2924 1690.72 73.0216 Q1687.4 73.7508 1683.64 73.7508 Q1673.39 73.7508 1667.35 67.3098 Q1661.31 60.8689 1661.31 49.9314 Q1661.31 38.832 1667.39 32.472 Q1673.51 26.1121 1684.12 26.1121 Q1687.56 26.1121 1690.85 26.8413 Q1694.13 27.5299 1697.21 28.9478 Z" fill="#000000" fill-rule="nonzero" fill-opacity="1" /><path clip-path="url(#clip730)" d="M1745.49 35.9153 Q1748.29 30.8922 1752.18 28.5022 Q1756.07 26.1121 1761.33 26.1121 Q1768.42 26.1121 1772.27 31.0947 Q1776.12 36.0368 1776.12 45.1919 L1776.12 72.576 L1768.62 72.576 L1768.62 45.4349 Q1768.62 38.913 1766.31 35.7533 Q1764.01 32.5936 1759.27 32.5936 Q1753.47 32.5936 1750.11 36.4419 Q1746.75 40.2903 1746.75 46.9338 L1746.75 72.576 L1739.25 72.576 L1739.25 45.4349 Q1739.25 38.8725 1736.95 35.7533 Q1734.64 32.5936 1729.82 32.5936 Q1724.1 32.5936 1720.74 36.4824 Q1717.38 40.3308 1717.38 46.9338 L1717.38 72.576 L1709.89 72.576 L1709.89 27.2059 L1717.38 27.2059 L1717.38 34.2544 Q1719.93 30.082 1723.5 28.0971 Q1727.06 26.1121 1731.96 26.1121 Q1736.9 26.1121 1740.35 28.6237 Q1743.83 31.1352 1745.49 35.9153 Z" fill="#000000" fill-rule="nonzero" fill-opacity="1" /><path clip-path="url(#clip730)" d="M1788.72 29.0288 L1821.41 29.0288 L1821.41 32.8771 L1788.72 32.8771 L1788.72 29.0288 Z" fill="#000000" fill-rule="nonzero" fill-opacity="1" /><path clip-path="url(#clip730)" d="M1837.81 40.8979 L1854.99 40.8979 L1854.99 45.516 L1830.76 45.516 L1830.76 41.06 Q1832.14 39.8042 1834.69 37.5357 Q1848.63 25.1804 1848.63 21.3726 Q1848.63 18.699 1846.52 17.0786 Q1844.42 15.4177 1840.97 15.4177 Q1838.87 15.4177 1836.39 16.1469 Q1833.92 16.8356 1831.01 18.2534 L1831.01 13.2708 Q1834.13 12.1365 1836.8 11.5694 Q1839.51 11.0023 1841.82 11.0023 Q1847.7 11.0023 1851.22 13.6759 Q1854.75 16.3494 1854.75 20.7244 Q1854.75 26.3552 1841.34 37.8598 Q1839.07 39.8042 1837.81 40.8979 Z" fill="#000000" fill-rule="nonzero" fill-opacity="1" /><polyline clip-path="url(#clip732)" style="stroke:#000000; stroke-linecap:round; stroke-linejoin:round; stroke-width:4; stroke-opacity:1; fill:none" points="263.091,1386.4 263.091,1386.4 271.475,1386.4 271.475,1222.91 279.858,1222.91 279.858,1141.17 288.242,1141.17 288.242,1304.65 296.625,1304.65 296.625,1222.91 305.009,1222.91 305.009,1304.65 313.392,1304.65 313.392,1386.4 321.776,1386.4 321.776,1304.65 330.159,1304.65 330.159,1222.91 338.543,1222.91 338.543,1386.4 346.926,1386.4 346.926,1304.65 355.31,1304.65 355.31,1386.4 363.693,1386.4 363.693,1304.65 372.077,1304.65 380.46,1304.65 388.844,1304.65 388.844,1222.91 397.227,1222.91 397.227,1304.65 405.611,1304.65 405.611,1059.43 413.994,1059.43 422.377,1059.43 422.377,1222.91 430.761,1222.91 439.144,1222.91 439.144,895.94 447.528,895.94 447.528,1304.65 455.911,1304.65 455.911,1059.43 464.295,1059.43 464.295,1304.65 472.678,1304.65 472.678,1222.91 481.062,1222.91 481.062,895.94 489.445,895.94 489.445,1222.91 497.829,1222.91 497.829,1386.4 506.212,1386.4 506.212,1304.65 514.596,1304.65 522.979,1304.65 522.979,1386.4 531.363,1386.4 531.363,1304.65 539.746,1304.65 539.746,1222.91 548.13,1222.91 556.513,1222.91 556.513,1304.65 564.897,1304.65 573.28,1304.65 573.28,1386.4 581.663,1386.4 590.047,1386.4 598.43,1386.4 598.43,1304.65 606.814,1304.65 615.197,1304.65 615.197,1386.4 623.581,1386.4 623.581,1222.91 631.964,1222.91 631.964,1304.65 640.348,1304.65 640.348,1222.91 648.731,1222.91 648.731,1304.65 657.115,1304.65 657.115,1222.91 665.498,1222.91 665.498,1386.4 673.882,1386.4 673.882,1304.65 682.265,1304.65 682.265,895.94 690.649,895.94 690.649,1222.91 699.032,1222.91 699.032,1304.65 707.416,1304.65 707.416,1222.91 715.799,1222.91 715.799,1386.4 724.182,1386.4 724.182,1304.65 732.566,1304.65 732.566,1386.4 740.949,1386.4 740.949,1304.65 749.333,1304.65 757.716,1304.65 757.716,1386.4 766.1,1386.4 766.1,1304.65 774.483,1304.65 774.483,1386.4 782.867,1386.4 782.867,1304.65 791.25,1304.65 791.25,1386.4 799.634,1386.4 799.634,1304.65 808.017,1304.65 816.401,1304.65 816.401,1386.4 824.784,1386.4 824.784,1222.91 833.168,1222.91 833.168,1304.65 841.551,1304.65 841.551,1222.91 849.935,1222.91 849.935,1304.65 858.318,1304.65 858.318,1386.4 866.702,1386.4 875.085,1386.4 883.468,1386.4 883.468,1304.65 891.852,1304.65 891.852,1386.4 900.235,1386.4 900.235,1304.65 908.619,1304.65 908.619,1222.91 917.002,1222.91 917.002,1386.4 925.386,1386.4 925.386,1304.65 933.769,1304.65 933.769,1386.4 942.153,1386.4 950.536,1386.4 958.92,1386.4 958.92,1304.65 967.303,1304.65 967.303,1386.4 975.687,1386.4 975.687,1304.65 984.07,1304.65 984.07,1386.4 992.454,1386.4 1000.84,1386.4 1000.84,1304.65 1009.22,1304.65 1017.6,1304.65 1017.6,1386.4 1025.99,1386.4 1025.99,1304.65 1034.37,1304.65 1034.37,1386.4 1042.75,1386.4 1051.14,1386.4 1059.52,1386.4 1059.52,1304.65 1067.9,1304.65 1067.9,1386.4 1076.29,1386.4 1076.29,1304.65 1084.67,1304.65 1084.67,1386.4 1093.06,1386.4 1101.44,1386.4 1101.44,1222.91 1109.82,1222.91 1109.82,1386.4 1118.21,1386.4 1118.21,1304.65 1126.59,1304.65 1134.97,1304.65 1134.97,1386.4 1143.36,1386.4 1143.36,1222.91 1151.74,1222.91 1160.12,1222.91 1160.12,1386.4 1168.51,1386.4 1176.89,1386.4 1176.89,1304.65 1185.27,1304.65 1193.66,1304.65 1193.66,1386.4 1202.04,1386.4 1210.42,1386.4 1218.81,1386.4 1218.81,1304.65 1227.19,1304.65 1227.19,1386.4 1235.57,1386.4 1243.96,1386.4 1243.96,1304.65 1252.34,1304.65 1260.72,1304.65 1260.72,1386.4 1269.11,1386.4 1269.11,1304.65 1277.49,1304.65 1277.49,1386.4 1285.88,1386.4 1294.26,1386.4 1302.64,1386.4 1302.64,1304.65 1311.03,1304.65 1311.03,1222.91 1319.41,1222.91 1319.41,1304.65 1327.79,1304.65 1336.18,1304.65 1344.56,1304.65 1344.56,1386.4 1352.94,1386.4 1361.33,1386.4 1361.33,1304.65 1369.71,1304.65 1369.71,1386.4 1378.09,1386.4 1378.09,1222.91 1386.48,1222.91 1386.48,1304.65 1394.86,1304.65 1394.86,1386.4 1403.24,1386.4 1411.63,1386.4 1411.63,1304.65 1420.01,1304.65 1420.01,1386.4 1428.39,1386.4 1428.39,1304.65 1436.78,1304.65 1445.16,1304.65 1445.16,1386.4 1453.54,1386.4 1461.93,1386.4 1470.31,1386.4 1478.7,1386.4 1487.08,1386.4 1487.08,1304.65 1495.46,1304.65 1495.46,1386.4 1503.85,1386.4 1512.23,1386.4 1520.61,1386.4 1529,1386.4 1537.38,1386.4 1545.76,1386.4 1554.15,1386.4 1562.53,1386.4 1570.91,1386.4 1579.3,1386.4 1587.68,1386.4 1587.68,1222.91 1596.06,1222.91 1596.06,1386.4 1604.45,1386.4 1604.45,1222.91 1612.83,1222.91 1612.83,1386.4 1621.21,1386.4 1629.6,1386.4 1637.98,1386.4 1646.36,1386.4 1646.36,1304.65 1654.75,1304.65 1654.75,1386.4 1663.13,1386.4 1671.51,1386.4 1679.9,1386.4 1688.28,1386.4 1688.28,1304.65 1696.67,1304.65 1696.67,1386.4 1705.05,1386.4 1705.05,1304.65 1713.43,1304.65 1721.82,1304.65 1721.82,1386.4 1730.2,1386.4 1730.2,1304.65 1738.58,1304.65 1746.97,1304.65 1746.97,1386.4 1755.35,1386.4 1763.73,1386.4 1772.12,1386.4 1772.12,1304.65 1780.5,1304.65 1780.5,1386.4 1788.88,1386.4 1797.27,1386.4 1797.27,1222.91 1805.65,1222.91 1805.65,1304.65 1814.03,1304.65 1814.03,1222.91 1822.42,1222.91 1822.42,1386.4 1830.8,1386.4 1839.18,1386.4 1847.57,1386.4 1855.95,1386.4 1864.33,1386.4 1864.33,1304.65 1872.72,1304.65 1872.72,1386.4 1881.1,1386.4 1889.49,1386.4 1897.87,1386.4 1906.25,1386.4 1914.64,1386.4 1923.02,1386.4 1931.4,1386.4 1939.79,1386.4 1939.79,1304.65 1948.17,1304.65 1948.17,1386.4 1956.55,1386.4 1964.94,1386.4 1973.32,1386.4 1973.32,1304.65 1981.7,1304.65 1981.7,1386.4 1990.09,1386.4 1998.47,1386.4 2006.85,1386.4 2006.85,1304.65 2015.24,1304.65 2015.24,1386.4 2023.62,1386.4 2032,1386.4 2040.39,1386.4 2040.39,1304.65 2048.77,1304.65 2048.77,1386.4 2057.15,1386.4 2065.54,1386.4 2073.92,1386.4 2073.92,1304.65 2082.31,1304.65 2082.31,1386.4 2090.69,1386.4 2099.07,1386.4 2107.46,1386.4 2115.84,1386.4 2124.22,1386.4 2124.22,1304.65 2132.61,1304.65 2132.61,1222.91 2140.99,1222.91 2140.99,1386.4 2149.37,1386.4 2157.76,1386.4 2166.14,1386.4 2174.52,1386.4 2174.52,1304.65 2182.91,1304.65 2182.91,1386.4 2191.29,1386.4 2191.29,1222.91 2199.67,1222.91 2199.67,1386.4 2208.06,1386.4 2208.06,1304.65 2216.44,1304.65 2216.44,1386.4 2224.82,1386.4 2233.21,1386.4 2241.59,1386.4 2249.97,1386.4 2249.97,1304.65 2258.36,1304.65 2258.36,1386.4 2266.74,1386.4 2275.12,1386.4 2283.51,1386.4 2291.89,1386.4 "/>
<polyline clip-path="url(#clip732)" style="stroke:#ff0000; stroke-linecap:round; stroke-linejoin:round; stroke-width:4; stroke-opacity:1; fill:none" points="263.091,1386.4 263.091,1386.4 271.475,1386.4 271.475,160.256 279.858,160.256 279.858,814.197 288.242,814.197 296.625,814.197 296.625,568.969 305.009,568.969 305.009,1141.17 313.392,1141.17 313.392,1222.91 321.776,1222.91 321.776,732.455 330.159,732.455 338.543,732.455 338.543,1222.91 346.926,1222.91 346.926,1304.65 355.31,1304.65 355.31,1141.17 363.693,1141.17 372.077,1141.17 372.077,1059.43 380.46,1059.43 380.46,895.94 388.844,895.94 388.844,1304.65 397.227,1304.65 397.227,1222.91 405.611,1222.91 405.611,1141.17 413.994,1141.17 413.994,1059.43 422.377,1059.43 422.377,1222.91 430.761,1222.91 430.761,1141.17 439.144,1141.17 439.144,1304.65 447.528,1304.65 447.528,1059.43 455.911,1059.43 455.911,1222.91 464.295,1222.91 464.295,1141.17 472.678,1141.17 472.678,1222.91 481.062,1222.91 481.062,1386.4 489.445,1386.4 497.829,1386.4 497.829,1304.65 506.212,1304.65 506.212,1386.4 514.596,1386.4 522.979,1386.4 531.363,1386.4 531.363,1304.65 539.746,1304.65 539.746,1386.4 548.13,1386.4 548.13,1304.65 556.513,1304.65 556.513,1386.4 564.897,1386.4 573.28,1386.4 581.663,1386.4 590.047,1386.4 598.43,1386.4 606.814,1386.4 615.197,1386.4 623.581,1386.4 631.964,1386.4 640.348,1386.4 648.731,1386.4 657.115,1386.4 665.498,1386.4 673.882,1386.4 682.265,1386.4 690.649,1386.4 699.032,1386.4 707.416,1386.4 715.799,1386.4 724.182,1386.4 732.566,1386.4 740.949,1386.4 749.333,1386.4 757.716,1386.4 766.1,1386.4 774.483,1386.4 782.867,1386.4 791.25,1386.4 799.634,1386.4 808.017,1386.4 816.401,1386.4 824.784,1386.4 833.168,1386.4 841.551,1386.4 849.935,1386.4 858.318,1386.4 866.702,1386.4 875.085,1386.4 883.468,1386.4 891.852,1386.4 900.235,1386.4 908.619,1386.4 917.002,1386.4 925.386,1386.4 933.769,1386.4 942.153,1386.4 950.536,1386.4 958.92,1386.4 967.303,1386.4 975.687,1386.4 984.07,1386.4 992.454,1386.4 1000.84,1386.4 1009.22,1386.4 1017.6,1386.4 1025.99,1386.4 1034.37,1386.4 1042.75,1386.4 1051.14,1386.4 1059.52,1386.4 1067.9,1386.4 1076.29,1386.4 1084.67,1386.4 1093.06,1386.4 1101.44,1386.4 1109.82,1386.4 1118.21,1386.4 1126.59,1386.4 1134.97,1386.4 1143.36,1386.4 1151.74,1386.4 1160.12,1386.4 1168.51,1386.4 1176.89,1386.4 1185.27,1386.4 1193.66,1386.4 1202.04,1386.4 1210.42,1386.4 1218.81,1386.4 1227.19,1386.4 1235.57,1386.4 1243.96,1386.4 1252.34,1386.4 1260.72,1386.4 1269.11,1386.4 1277.49,1386.4 1285.88,1386.4 1294.26,1386.4 1302.64,1386.4 1311.03,1386.4 1319.41,1386.4 1327.79,1386.4 1336.18,1386.4 1344.56,1386.4 1352.94,1386.4 1361.33,1386.4 1369.71,1386.4 1378.09,1386.4 1386.48,1386.4 1394.86,1386.4 1403.24,1386.4 1411.63,1386.4 1420.01,1386.4 1428.39,1386.4 1436.78,1386.4 1445.16,1386.4 1453.54,1386.4 1461.93,1386.4 1470.31,1386.4 1478.7,1386.4 1487.08,1386.4 1495.46,1386.4 1503.85,1386.4 1512.23,1386.4 1520.61,1386.4 1529,1386.4 1537.38,1386.4 1545.76,1386.4 1554.15,1386.4 1562.53,1386.4 1570.91,1386.4 1579.3,1386.4 1587.68,1386.4 1596.06,1386.4 1604.45,1386.4 1612.83,1386.4 1621.21,1386.4 1629.6,1386.4 1637.98,1386.4 1646.36,1386.4 1654.75,1386.4 1663.13,1386.4 1671.51,1386.4 1679.9,1386.4 1688.28,1386.4 1696.67,1386.4 1705.05,1386.4 1713.43,1386.4 1721.82,1386.4 1730.2,1386.4 1738.58,1386.4 1746.97,1386.4 1755.35,1386.4 1763.73,1386.4 1772.12,1386.4 1780.5,1386.4 1788.88,1386.4 1797.27,1386.4 1805.65,1386.4 1814.03,1386.4 1822.42,1386.4 1830.8,1386.4 1839.18,1386.4 1847.57,1386.4 1855.95,1386.4 1864.33,1386.4 1872.72,1386.4 1881.1,1386.4 1889.49,1386.4 1897.87,1386.4 1906.25,1386.4 1914.64,1386.4 1923.02,1386.4 1931.4,1386.4 1939.79,1386.4 1948.17,1386.4 1956.55,1386.4 1964.94,1386.4 1973.32,1386.4 1981.7,1386.4 1990.09,1386.4 1998.47,1386.4 2006.85,1386.4 2015.24,1386.4 2023.62,1386.4 2032,1386.4 2040.39,1386.4 2048.77,1386.4 2057.15,1386.4 2065.54,1386.4 2073.92,1386.4 2082.31,1386.4 2090.69,1386.4 2099.07,1386.4 2107.46,1386.4 2115.84,1386.4 2124.22,1386.4 2132.61,1386.4 2140.99,1386.4 2149.37,1386.4 2157.76,1386.4 2166.14,1386.4 2174.52,1386.4 2182.91,1386.4 2191.29,1386.4 2199.67,1386.4 2208.06,1386.4 2216.44,1386.4 2224.82,1386.4 2233.21,1386.4 2241.59,1386.4 2249.97,1386.4 2258.36,1386.4 2266.74,1386.4 2275.12,1386.4 2283.51,1386.4 2291.89,1386.4 "/>
<path clip-path="url(#clip730)" d="M1651.3 322.316 L2281.07 322.316 L2281.07 166.796 L1651.3 166.796  Z" fill="#ffffff" fill-rule="evenodd" fill-opacity="1"/>
<polyline clip-path="url(#clip730)" style="stroke:#000000; stroke-linecap:round; stroke-linejoin:round; stroke-width:4; stroke-opacity:1; fill:none" points="1651.3,322.316 2281.07,322.316 2281.07,166.796 1651.3,166.796 1651.3,322.316 "/>
<polyline clip-path="url(#clip730)" style="stroke:#000000; stroke-linecap:round; stroke-linejoin:round; stroke-width:4; stroke-opacity:1; fill:none" points="1675.19,218.636 1818.56,218.636 "/>
<path clip-path="url(#clip730)" d="M1870.33 204.018 L1870.33 208.948 Q1867.97 206.749 1865.28 205.661 Q1862.62 204.573 1859.61 204.573 Q1853.68 204.573 1850.54 208.208 Q1847.39 211.819 1847.39 218.67 Q1847.39 225.499 1850.54 229.133 Q1853.68 232.744 1859.61 232.744 Q1862.62 232.744 1865.28 231.656 Q1867.97 230.569 1870.33 228.369 L1870.33 233.254 Q1867.87 234.92 1865.12 235.754 Q1862.39 236.587 1859.33 236.587 Q1851.48 236.587 1846.97 231.795 Q1842.46 226.981 1842.46 218.67 Q1842.46 210.337 1846.97 205.546 Q1851.48 200.731 1859.33 200.731 Q1862.43 200.731 1865.17 201.564 Q1867.92 202.374 1870.33 204.018 Z" fill="#000000" fill-rule="nonzero" fill-opacity="1" /><path clip-path="url(#clip730)" d="M1887.41 212.976 Q1883.98 212.976 1881.99 215.661 Q1880 218.323 1880 222.976 Q1880 227.629 1881.97 230.314 Q1883.96 232.976 1887.41 232.976 Q1890.81 232.976 1892.8 230.291 Q1894.79 227.606 1894.79 222.976 Q1894.79 218.37 1892.8 215.684 Q1890.81 212.976 1887.41 212.976 M1887.41 209.365 Q1892.97 209.365 1896.14 212.976 Q1899.31 216.587 1899.31 222.976 Q1899.31 229.342 1896.14 232.976 Q1892.97 236.587 1887.41 236.587 Q1881.83 236.587 1878.66 232.976 Q1875.51 229.342 1875.51 222.976 Q1875.51 216.587 1878.66 212.976 Q1881.83 209.365 1887.41 209.365 Z" fill="#000000" fill-rule="nonzero" fill-opacity="1" /><path clip-path="url(#clip730)" d="M1921.39 213.971 Q1920.67 213.555 1919.82 213.37 Q1918.98 213.161 1917.97 213.161 Q1914.35 213.161 1912.41 215.522 Q1910.49 217.86 1910.49 222.258 L1910.49 235.916 L1906.21 235.916 L1906.21 209.99 L1910.49 209.99 L1910.49 214.018 Q1911.83 211.657 1913.98 210.522 Q1916.14 209.365 1919.22 209.365 Q1919.66 209.365 1920.19 209.434 Q1920.72 209.481 1921.37 209.596 L1921.39 213.971 Z" fill="#000000" fill-rule="nonzero" fill-opacity="1" /><path clip-path="url(#clip730)" d="M1940.05 213.971 Q1939.33 213.555 1938.47 213.37 Q1937.64 213.161 1936.62 213.161 Q1933.01 213.161 1931.07 215.522 Q1929.15 217.86 1929.15 222.258 L1929.15 235.916 L1924.86 235.916 L1924.86 209.99 L1929.15 209.99 L1929.15 214.018 Q1930.49 211.657 1932.64 210.522 Q1934.79 209.365 1937.87 209.365 Q1938.31 209.365 1938.85 209.434 Q1939.38 209.481 1940.03 209.596 L1940.05 213.971 Z" fill="#000000" fill-rule="nonzero" fill-opacity="1" /><path clip-path="url(#clip730)" d="M1965.65 221.888 L1965.65 223.971 L1946.07 223.971 Q1946.35 228.369 1948.71 230.684 Q1951.09 232.976 1955.33 232.976 Q1957.78 232.976 1960.07 232.374 Q1962.39 231.772 1964.66 230.569 L1964.66 234.596 Q1962.36 235.568 1959.96 236.078 Q1957.55 236.587 1955.07 236.587 Q1948.87 236.587 1945.23 232.976 Q1941.62 229.365 1941.62 223.207 Q1941.62 216.842 1945.05 213.115 Q1948.5 209.365 1954.33 209.365 Q1959.56 209.365 1962.6 212.745 Q1965.65 216.101 1965.65 221.888 M1961.39 220.638 Q1961.35 217.143 1959.42 215.059 Q1957.53 212.976 1954.38 212.976 Q1950.81 212.976 1948.66 214.99 Q1946.53 217.004 1946.21 220.661 L1961.39 220.638 Z" fill="#000000" fill-rule="nonzero" fill-opacity="1" /><path clip-path="url(#clip730)" d="M1991.3 210.985 L1991.3 214.967 Q1989.49 213.971 1987.66 213.485 Q1985.86 212.976 1984.01 212.976 Q1979.86 212.976 1977.57 215.615 Q1975.28 218.231 1975.28 222.976 Q1975.28 227.721 1977.57 230.36 Q1979.86 232.976 1984.01 232.976 Q1985.86 232.976 1987.66 232.49 Q1989.49 231.981 1991.3 230.985 L1991.3 234.92 Q1989.52 235.754 1987.59 236.17 Q1985.7 236.587 1983.54 236.587 Q1977.69 236.587 1974.24 232.906 Q1970.79 229.226 1970.79 222.976 Q1970.79 216.633 1974.26 212.999 Q1977.76 209.365 1983.82 209.365 Q1985.79 209.365 1987.66 209.782 Q1989.54 210.175 1991.3 210.985 Z" fill="#000000" fill-rule="nonzero" fill-opacity="1" /><path clip-path="url(#clip730)" d="M2002.92 202.629 L2002.92 209.99 L2011.69 209.99 L2011.69 213.3 L2002.92 213.3 L2002.92 227.374 Q2002.92 230.545 2003.78 231.448 Q2004.66 232.351 2007.32 232.351 L2011.69 232.351 L2011.69 235.916 L2007.32 235.916 Q2002.39 235.916 2000.51 234.087 Q1998.64 232.235 1998.64 227.374 L1998.64 213.3 L1995.51 213.3 L1995.51 209.99 L1998.64 209.99 L1998.64 202.629 L2002.92 202.629 Z" fill="#000000" fill-rule="nonzero" fill-opacity="1" /><path clip-path="url(#clip730)" d="M2054.54 221.888 L2054.54 223.971 L2034.96 223.971 Q2035.23 228.369 2037.59 230.684 Q2039.98 232.976 2044.22 232.976 Q2046.67 232.976 2048.96 232.374 Q2051.28 231.772 2053.54 230.569 L2053.54 234.596 Q2051.25 235.568 2048.84 236.078 Q2046.44 236.587 2043.96 236.587 Q2037.76 236.587 2034.12 232.976 Q2030.51 229.365 2030.51 223.207 Q2030.51 216.842 2033.94 213.115 Q2037.39 209.365 2043.22 209.365 Q2048.45 209.365 2051.48 212.745 Q2054.54 216.101 2054.54 221.888 M2050.28 220.638 Q2050.23 217.143 2048.31 215.059 Q2046.41 212.976 2043.27 212.976 Q2039.7 212.976 2037.55 214.99 Q2035.42 217.004 2035.09 220.661 L2050.28 220.638 Z" fill="#000000" fill-rule="nonzero" fill-opacity="1" /><path clip-path="url(#clip730)" d="M2058.47 209.99 L2062.99 209.99 L2071.09 231.749 L2079.19 209.99 L2083.71 209.99 L2073.98 235.916 L2068.2 235.916 L2058.47 209.99 Z" fill="#000000" fill-rule="nonzero" fill-opacity="1" /><path clip-path="url(#clip730)" d="M2111.76 221.888 L2111.76 223.971 L2092.18 223.971 Q2092.46 228.369 2094.82 230.684 Q2097.2 232.976 2101.44 232.976 Q2103.89 232.976 2106.18 232.374 Q2108.5 231.772 2110.77 230.569 L2110.77 234.596 Q2108.47 235.568 2106.07 236.078 Q2103.66 236.587 2101.18 236.587 Q2094.98 236.587 2091.34 232.976 Q2087.73 229.365 2087.73 223.207 Q2087.73 216.842 2091.16 213.115 Q2094.61 209.365 2100.44 209.365 Q2105.67 209.365 2108.71 212.745 Q2111.76 216.101 2111.76 221.888 M2107.5 220.638 Q2107.46 217.143 2105.53 215.059 Q2103.64 212.976 2100.49 212.976 Q2096.92 212.976 2094.77 214.99 Q2092.64 217.004 2092.32 220.661 L2107.5 220.638 Z" fill="#000000" fill-rule="nonzero" fill-opacity="1" /><path clip-path="url(#clip730)" d="M2140.3 220.268 L2140.3 235.916 L2136.04 235.916 L2136.04 220.407 Q2136.04 216.726 2134.61 214.897 Q2133.17 213.069 2130.3 213.069 Q2126.85 213.069 2124.86 215.268 Q2122.87 217.467 2122.87 221.263 L2122.87 235.916 L2118.59 235.916 L2118.59 209.99 L2122.87 209.99 L2122.87 214.018 Q2124.4 211.68 2126.46 210.522 Q2128.54 209.365 2131.25 209.365 Q2135.72 209.365 2138.01 212.143 Q2140.3 214.897 2140.3 220.268 Z" fill="#000000" fill-rule="nonzero" fill-opacity="1" /><path clip-path="url(#clip730)" d="M2153.01 202.629 L2153.01 209.99 L2161.78 209.99 L2161.78 213.3 L2153.01 213.3 L2153.01 227.374 Q2153.01 230.545 2153.87 231.448 Q2154.75 232.351 2157.41 232.351 L2161.78 232.351 L2161.78 235.916 L2157.41 235.916 Q2152.48 235.916 2150.6 234.087 Q2148.73 232.235 2148.73 227.374 L2148.73 213.3 L2145.6 213.3 L2145.6 209.99 L2148.73 209.99 L2148.73 202.629 L2153.01 202.629 Z" fill="#000000" fill-rule="nonzero" fill-opacity="1" /><path clip-path="url(#clip730)" d="M2183.91 210.754 L2183.91 214.782 Q2182.11 213.856 2180.16 213.393 Q2178.22 212.93 2176.14 212.93 Q2172.96 212.93 2171.37 213.902 Q2169.79 214.874 2169.79 216.819 Q2169.79 218.3 2170.93 219.157 Q2172.06 219.99 2175.49 220.754 L2176.95 221.078 Q2181.48 222.05 2183.38 223.832 Q2185.3 225.592 2185.3 228.763 Q2185.3 232.374 2182.43 234.481 Q2179.58 236.587 2174.58 236.587 Q2172.5 236.587 2170.23 236.17 Q2167.99 235.777 2165.49 234.967 L2165.49 230.569 Q2167.85 231.795 2170.14 232.42 Q2172.43 233.022 2174.68 233.022 Q2177.69 233.022 2179.31 232.004 Q2180.93 230.962 2180.93 229.087 Q2180.93 227.351 2179.75 226.425 Q2178.59 225.499 2174.63 224.643 L2173.15 224.295 Q2169.19 223.462 2167.43 221.749 Q2165.67 220.013 2165.67 217.004 Q2165.67 213.346 2168.27 211.356 Q2170.86 209.365 2175.63 209.365 Q2177.99 209.365 2180.07 209.712 Q2182.15 210.059 2183.91 210.754 Z" fill="#000000" fill-rule="nonzero" fill-opacity="1" /><polyline clip-path="url(#clip730)" style="stroke:#ff0000; stroke-linecap:round; stroke-linejoin:round; stroke-width:4; stroke-opacity:1; fill:none" points="1675.19,270.476 1818.56,270.476 "/>
<path clip-path="url(#clip730)" d="M1864.7 254.33 L1864.7 258.89 Q1862.04 257.617 1859.68 256.992 Q1857.32 256.367 1855.12 256.367 Q1851.3 256.367 1849.22 257.848 Q1847.16 259.33 1847.16 262.061 Q1847.16 264.353 1848.52 265.534 Q1849.91 266.691 1853.75 267.409 L1856.58 267.987 Q1861.81 268.983 1864.29 271.506 Q1866.79 274.006 1866.79 278.219 Q1866.79 283.242 1863.41 285.834 Q1860.05 288.427 1853.54 288.427 Q1851.09 288.427 1848.31 287.871 Q1845.56 287.316 1842.6 286.228 L1842.6 281.413 Q1845.44 283.01 1848.17 283.821 Q1850.91 284.631 1853.54 284.631 Q1857.55 284.631 1859.73 283.057 Q1861.9 281.483 1861.9 278.566 Q1861.9 276.02 1860.33 274.584 Q1858.78 273.149 1855.21 272.432 L1852.36 271.876 Q1847.13 270.835 1844.79 268.612 Q1842.46 266.39 1842.46 262.432 Q1842.46 257.848 1845.67 255.21 Q1848.92 252.571 1854.59 252.571 Q1857.02 252.571 1859.54 253.011 Q1862.06 253.45 1864.7 254.33 Z" fill="#000000" fill-rule="nonzero" fill-opacity="1" /><path clip-path="url(#clip730)" d="M1878.1 254.469 L1878.1 261.83 L1886.88 261.83 L1886.88 265.14 L1878.1 265.14 L1878.1 279.214 Q1878.1 282.385 1878.96 283.288 Q1879.84 284.191 1882.5 284.191 L1886.88 284.191 L1886.88 287.756 L1882.5 287.756 Q1877.57 287.756 1875.7 285.927 Q1873.82 284.075 1873.82 279.214 L1873.82 265.14 L1870.7 265.14 L1870.7 261.83 L1873.82 261.83 L1873.82 254.469 L1878.1 254.469 Z" fill="#000000" fill-rule="nonzero" fill-opacity="1" /><path clip-path="url(#clip730)" d="M1902.53 264.816 Q1899.1 264.816 1897.11 267.501 Q1895.12 270.163 1895.12 274.816 Q1895.12 279.469 1897.09 282.154 Q1899.08 284.816 1902.53 284.816 Q1905.93 284.816 1907.92 282.131 Q1909.91 279.446 1909.91 274.816 Q1909.91 270.21 1907.92 267.524 Q1905.93 264.816 1902.53 264.816 M1902.53 261.205 Q1908.08 261.205 1911.25 264.816 Q1914.42 268.427 1914.42 274.816 Q1914.42 281.182 1911.25 284.816 Q1908.08 288.427 1902.53 288.427 Q1896.95 288.427 1893.78 284.816 Q1890.63 281.182 1890.63 274.816 Q1890.63 268.427 1893.78 264.816 Q1896.95 261.205 1902.53 261.205 Z" fill="#000000" fill-rule="nonzero" fill-opacity="1" /><path clip-path="url(#clip730)" d="M1940.14 262.825 L1940.14 266.807 Q1938.34 265.811 1936.51 265.325 Q1934.7 264.816 1932.85 264.816 Q1928.71 264.816 1926.41 267.455 Q1924.12 270.071 1924.12 274.816 Q1924.12 279.561 1926.41 282.2 Q1928.71 284.816 1932.85 284.816 Q1934.7 284.816 1936.51 284.33 Q1938.34 283.821 1940.14 282.825 L1940.14 286.76 Q1938.36 287.594 1936.44 288.01 Q1934.54 288.427 1932.39 288.427 Q1926.53 288.427 1923.08 284.746 Q1919.63 281.066 1919.63 274.816 Q1919.63 268.473 1923.1 264.839 Q1926.6 261.205 1932.66 261.205 Q1934.63 261.205 1936.51 261.622 Q1938.38 262.015 1940.14 262.825 Z" fill="#000000" fill-rule="nonzero" fill-opacity="1" /><path clip-path="url(#clip730)" d="M1969.1 272.108 L1969.1 287.756 L1964.84 287.756 L1964.84 272.247 Q1964.84 268.566 1963.41 266.737 Q1961.97 264.909 1959.1 264.909 Q1955.65 264.909 1953.66 267.108 Q1951.67 269.307 1951.67 273.103 L1951.67 287.756 L1947.39 287.756 L1947.39 251.737 L1951.67 251.737 L1951.67 265.858 Q1953.2 263.52 1955.26 262.362 Q1957.34 261.205 1960.05 261.205 Q1964.52 261.205 1966.81 263.983 Q1969.1 266.737 1969.1 272.108 Z" fill="#000000" fill-rule="nonzero" fill-opacity="1" /><path clip-path="url(#clip730)" d="M1989.38 274.723 Q1984.22 274.723 1982.22 275.904 Q1980.23 277.084 1980.23 279.932 Q1980.23 282.2 1981.72 283.543 Q1983.22 284.862 1985.79 284.862 Q1989.33 284.862 1991.46 282.362 Q1993.61 279.839 1993.61 275.672 L1993.61 274.723 L1989.38 274.723 M1997.87 272.964 L1997.87 287.756 L1993.61 287.756 L1993.61 283.821 Q1992.16 286.182 1989.98 287.316 Q1987.8 288.427 1984.66 288.427 Q1980.67 288.427 1978.31 286.205 Q1975.97 283.959 1975.97 280.209 Q1975.97 275.834 1978.89 273.612 Q1981.83 271.39 1987.64 271.39 L1993.61 271.39 L1993.61 270.973 Q1993.61 268.034 1991.67 266.436 Q1989.75 264.816 1986.25 264.816 Q1984.03 264.816 1981.92 265.348 Q1979.82 265.881 1977.87 266.946 L1977.87 263.01 Q1980.21 262.108 1982.41 261.668 Q1984.61 261.205 1986.69 261.205 Q1992.32 261.205 1995.09 264.122 Q1997.87 267.038 1997.87 272.964 Z" fill="#000000" fill-rule="nonzero" fill-opacity="1" /><path clip-path="url(#clip730)" d="M2023.17 262.594 L2023.17 266.622 Q2021.37 265.696 2019.42 265.233 Q2017.48 264.77 2015.4 264.77 Q2012.22 264.77 2010.63 265.742 Q2009.05 266.714 2009.05 268.659 Q2009.05 270.14 2010.19 270.997 Q2011.32 271.83 2014.75 272.594 L2016.21 272.918 Q2020.74 273.89 2022.64 275.672 Q2024.56 277.432 2024.56 280.603 Q2024.56 284.214 2021.69 286.321 Q2018.84 288.427 2013.84 288.427 Q2011.76 288.427 2009.49 288.01 Q2007.25 287.617 2004.75 286.807 L2004.75 282.409 Q2007.11 283.635 2009.4 284.26 Q2011.69 284.862 2013.94 284.862 Q2016.95 284.862 2018.57 283.844 Q2020.19 282.802 2020.19 280.927 Q2020.19 279.191 2019.01 278.265 Q2017.85 277.339 2013.89 276.483 L2012.41 276.135 Q2008.45 275.302 2006.69 273.589 Q2004.93 271.853 2004.93 268.844 Q2004.93 265.186 2007.53 263.196 Q2010.12 261.205 2014.89 261.205 Q2017.25 261.205 2019.33 261.552 Q2021.41 261.899 2023.17 262.594 Z" fill="#000000" fill-rule="nonzero" fill-opacity="1" /><path clip-path="url(#clip730)" d="M2035.56 254.469 L2035.56 261.83 L2044.33 261.83 L2044.33 265.14 L2035.56 265.14 L2035.56 279.214 Q2035.56 282.385 2036.41 283.288 Q2037.29 284.191 2039.96 284.191 L2044.33 284.191 L2044.33 287.756 L2039.96 287.756 Q2035.03 287.756 2033.15 285.927 Q2031.28 284.075 2031.28 279.214 L2031.28 265.14 L2028.15 265.14 L2028.15 261.83 L2031.28 261.83 L2031.28 254.469 L2035.56 254.469 Z" fill="#000000" fill-rule="nonzero" fill-opacity="1" /><path clip-path="url(#clip730)" d="M2049.93 261.83 L2054.19 261.83 L2054.19 287.756 L2049.93 287.756 L2049.93 261.83 M2049.93 251.737 L2054.19 251.737 L2054.19 257.131 L2049.93 257.131 L2049.93 251.737 Z" fill="#000000" fill-rule="nonzero" fill-opacity="1" /><path clip-path="url(#clip730)" d="M2081.76 262.825 L2081.76 266.807 Q2079.96 265.811 2078.13 265.325 Q2076.32 264.816 2074.47 264.816 Q2070.33 264.816 2068.03 267.455 Q2065.74 270.071 2065.74 274.816 Q2065.74 279.561 2068.03 282.2 Q2070.33 284.816 2074.47 284.816 Q2076.32 284.816 2078.13 284.33 Q2079.96 283.821 2081.76 282.825 L2081.76 286.76 Q2079.98 287.594 2078.06 288.01 Q2076.16 288.427 2074.01 288.427 Q2068.15 288.427 2064.7 284.746 Q2061.25 281.066 2061.25 274.816 Q2061.25 268.473 2064.72 264.839 Q2068.22 261.205 2074.28 261.205 Q2076.25 261.205 2078.13 261.622 Q2080 262.015 2081.76 262.825 Z" fill="#000000" fill-rule="nonzero" fill-opacity="1" /><path clip-path="url(#clip730)" d="M2126.41 273.728 L2126.41 275.811 L2106.83 275.811 Q2107.11 280.209 2109.47 282.524 Q2111.85 284.816 2116.09 284.816 Q2118.54 284.816 2120.84 284.214 Q2123.15 283.612 2125.42 282.409 L2125.42 286.436 Q2123.13 287.408 2120.72 287.918 Q2118.31 288.427 2115.84 288.427 Q2109.63 288.427 2106 284.816 Q2102.39 281.205 2102.39 275.047 Q2102.39 268.682 2105.81 264.955 Q2109.26 261.205 2115.09 261.205 Q2120.33 261.205 2123.36 264.585 Q2126.41 267.941 2126.41 273.728 M2122.15 272.478 Q2122.11 268.983 2120.19 266.899 Q2118.29 264.816 2115.14 264.816 Q2111.58 264.816 2109.42 266.83 Q2107.29 268.844 2106.97 272.501 L2122.15 272.478 Z" fill="#000000" fill-rule="nonzero" fill-opacity="1" /><path clip-path="url(#clip730)" d="M2130.35 261.83 L2134.86 261.83 L2142.96 283.589 L2151.07 261.83 L2155.58 261.83 L2145.86 287.756 L2140.07 287.756 L2130.35 261.83 Z" fill="#000000" fill-rule="nonzero" fill-opacity="1" /><path clip-path="url(#clip730)" d="M2183.64 273.728 L2183.64 275.811 L2164.05 275.811 Q2164.33 280.209 2166.69 282.524 Q2169.08 284.816 2173.31 284.816 Q2175.77 284.816 2178.06 284.214 Q2180.37 283.612 2182.64 282.409 L2182.64 286.436 Q2180.35 287.408 2177.94 287.918 Q2175.53 288.427 2173.06 288.427 Q2166.85 288.427 2163.22 284.816 Q2159.61 281.205 2159.61 275.047 Q2159.61 268.682 2163.03 264.955 Q2166.48 261.205 2172.32 261.205 Q2177.55 261.205 2180.58 264.585 Q2183.64 267.941 2183.64 273.728 M2179.38 272.478 Q2179.33 268.983 2177.41 266.899 Q2175.51 264.816 2172.36 264.816 Q2168.8 264.816 2166.64 266.83 Q2164.52 268.844 2164.19 272.501 L2179.38 272.478 Z" fill="#000000" fill-rule="nonzero" fill-opacity="1" /><path clip-path="url(#clip730)" d="M2212.18 272.108 L2212.18 287.756 L2207.92 287.756 L2207.92 272.247 Q2207.92 268.566 2206.48 266.737 Q2205.05 264.909 2202.18 264.909 Q2198.73 264.909 2196.74 267.108 Q2194.75 269.307 2194.75 273.103 L2194.75 287.756 L2190.46 287.756 L2190.46 261.83 L2194.75 261.83 L2194.75 265.858 Q2196.27 263.52 2198.33 262.362 Q2200.42 261.205 2203.13 261.205 Q2207.59 261.205 2209.89 263.983 Q2212.18 266.737 2212.18 272.108 Z" fill="#000000" fill-rule="nonzero" fill-opacity="1" /><path clip-path="url(#clip730)" d="M2224.89 254.469 L2224.89 261.83 L2233.66 261.83 L2233.66 265.14 L2224.89 265.14 L2224.89 279.214 Q2224.89 282.385 2225.74 283.288 Q2226.62 284.191 2229.28 284.191 L2233.66 284.191 L2233.66 287.756 L2229.28 287.756 Q2224.35 287.756 2222.48 285.927 Q2220.6 284.075 2220.6 279.214 L2220.6 265.14 L2217.48 265.14 L2217.48 261.83 L2220.6 261.83 L2220.6 254.469 L2224.89 254.469 Z" fill="#000000" fill-rule="nonzero" fill-opacity="1" /><path clip-path="url(#clip730)" d="M2255.79 262.594 L2255.79 266.622 Q2253.98 265.696 2252.04 265.233 Q2250.09 264.77 2248.01 264.77 Q2244.84 264.77 2243.24 265.742 Q2241.67 266.714 2241.67 268.659 Q2241.67 270.14 2242.8 270.997 Q2243.94 271.83 2247.36 272.594 L2248.82 272.918 Q2253.36 273.89 2255.26 275.672 Q2257.18 277.432 2257.18 280.603 Q2257.18 284.214 2254.31 286.321 Q2251.46 288.427 2246.46 288.427 Q2244.38 288.427 2242.11 288.01 Q2239.86 287.617 2237.36 286.807 L2237.36 282.409 Q2239.72 283.635 2242.01 284.26 Q2244.31 284.862 2246.55 284.862 Q2249.56 284.862 2251.18 283.844 Q2252.8 282.802 2252.8 280.927 Q2252.8 279.191 2251.62 278.265 Q2250.46 277.339 2246.51 276.483 L2245.02 276.135 Q2241.07 275.302 2239.31 273.589 Q2237.55 271.853 2237.55 268.844 Q2237.55 265.186 2240.14 263.196 Q2242.73 261.205 2247.5 261.205 Q2249.86 261.205 2251.95 261.552 Q2254.03 261.899 2255.79 262.594 Z" fill="#000000" fill-rule="nonzero" fill-opacity="1" /></svg>
