<?xml version="1.0" encoding="utf-8"?>
<svg xmlns="http://www.w3.org/2000/svg" xmlns:xlink="http://www.w3.org/1999/xlink" width="600" height="400" viewBox="0 0 2400 1600">
<defs>
  <clipPath id="clip670">
    <rect x="0" y="0" width="2400" height="1600"/>
  </clipPath>
</defs>
<path clip-path="url(#clip670)" d="M0 1600 L2400 1600 L2400 0 L0 0  Z" fill="#ffffff" fill-rule="evenodd" fill-opacity="1"/>
<defs>
  <clipPath id="clip671">
    <rect x="480" y="0" width="1681" height="1600"/>
  </clipPath>
</defs>
<path clip-path="url(#clip670)" d="M262.551 1423.18 L2352.76 1423.18 L2352.76 123.472 L262.551 123.472  Z" fill="#ffffff" fill-rule="evenodd" fill-opacity="1"/>
<defs>
  <clipPath id="clip672">
    <rect x="262" y="123" width="2091" height="1301"/>
  </clipPath>
</defs>
<polyline clip-path="url(#clip672)" style="stroke:#000000; stroke-linecap:round; stroke-linejoin:round; stroke-width:2; stroke-opacity:0.1; fill:none" points="321.708,1423.18 321.708,123.472 "/>
<polyline clip-path="url(#clip672)" style="stroke:#000000; stroke-linecap:round; stroke-linejoin:round; stroke-width:2; stroke-opacity:0.1; fill:none" points="729.123,1423.18 729.123,123.472 "/>
<polyline clip-path="url(#clip672)" style="stroke:#000000; stroke-linecap:round; stroke-linejoin:round; stroke-width:2; stroke-opacity:0.1; fill:none" points="1136.54,1423.18 1136.54,123.472 "/>
<polyline clip-path="url(#clip672)" style="stroke:#000000; stroke-linecap:round; stroke-linejoin:round; stroke-width:2; stroke-opacity:0.1; fill:none" points="1543.95,1423.18 1543.95,123.472 "/>
<polyline clip-path="url(#clip672)" style="stroke:#000000; stroke-linecap:round; stroke-linejoin:round; stroke-width:2; stroke-opacity:0.1; fill:none" points="1951.37,1423.18 1951.37,123.472 "/>
<polyline clip-path="url(#clip672)" style="stroke:#000000; stroke-linecap:round; stroke-linejoin:round; stroke-width:2; stroke-opacity:0.1; fill:none" points="262.551,1386.4 2352.76,1386.4 "/>
<polyline clip-path="url(#clip672)" style="stroke:#000000; stroke-linecap:round; stroke-linejoin:round; stroke-width:2; stroke-opacity:0.1; fill:none" points="262.551,1054.29 2352.76,1054.29 "/>
<polyline clip-path="url(#clip672)" style="stroke:#000000; stroke-linecap:round; stroke-linejoin:round; stroke-width:2; stroke-opacity:0.1; fill:none" points="262.551,722.181 2352.76,722.181 "/>
<polyline clip-path="url(#clip672)" style="stroke:#000000; stroke-linecap:round; stroke-linejoin:round; stroke-width:2; stroke-opacity:0.1; fill:none" points="262.551,390.074 2352.76,390.074 "/>
<polyline clip-path="url(#clip670)" style="stroke:#000000; stroke-linecap:round; stroke-linejoin:round; stroke-width:4; stroke-opacity:1; fill:none" points="262.551,1423.18 2352.76,1423.18 "/>
<polyline clip-path="url(#clip670)" style="stroke:#000000; stroke-linecap:round; stroke-linejoin:round; stroke-width:4; stroke-opacity:1; fill:none" points="321.708,1423.18 321.708,1404.28 "/>
<polyline clip-path="url(#clip670)" style="stroke:#000000; stroke-linecap:round; stroke-linejoin:round; stroke-width:4; stroke-opacity:1; fill:none" points="729.123,1423.18 729.123,1404.28 "/>
<polyline clip-path="url(#clip670)" style="stroke:#000000; stroke-linecap:round; stroke-linejoin:round; stroke-width:4; stroke-opacity:1; fill:none" points="1136.54,1423.18 1136.54,1404.28 "/>
<polyline clip-path="url(#clip670)" style="stroke:#000000; stroke-linecap:round; stroke-linejoin:round; stroke-width:4; stroke-opacity:1; fill:none" points="1543.95,1423.18 1543.95,1404.28 "/>
<polyline clip-path="url(#clip670)" style="stroke:#000000; stroke-linecap:round; stroke-linejoin:round; stroke-width:4; stroke-opacity:1; fill:none" points="1951.37,1423.18 1951.37,1404.28 "/>
<path clip-path="url(#clip670)" d="M321.708 1454.1 Q318.097 1454.1 316.268 1457.66 Q314.463 1461.2 314.463 1468.33 Q314.463 1475.44 316.268 1479.01 Q318.097 1482.55 321.708 1482.55 Q325.342 1482.55 327.148 1479.01 Q328.976 1475.44 328.976 1468.33 Q328.976 1461.2 327.148 1457.66 Q325.342 1454.1 321.708 1454.1 M321.708 1450.39 Q327.518 1450.39 330.574 1455 Q333.652 1459.58 333.652 1468.33 Q333.652 1477.06 330.574 1481.67 Q327.518 1486.25 321.708 1486.25 Q315.898 1486.25 312.819 1481.67 Q309.764 1477.06 309.764 1468.33 Q309.764 1459.58 312.819 1455 Q315.898 1450.39 321.708 1450.39 Z" fill="#000000" fill-rule="nonzero" fill-opacity="1" /><path clip-path="url(#clip670)" d="M703.823 1451.02 L722.179 1451.02 L722.179 1454.96 L708.105 1454.96 L708.105 1463.43 Q709.124 1463.08 710.142 1462.92 Q711.161 1462.73 712.179 1462.73 Q717.966 1462.73 721.346 1465.9 Q724.725 1469.08 724.725 1474.49 Q724.725 1480.07 721.253 1483.17 Q717.781 1486.25 711.462 1486.25 Q709.286 1486.25 707.017 1485.88 Q704.772 1485.51 702.364 1484.77 L702.364 1480.07 Q704.448 1481.2 706.67 1481.76 Q708.892 1482.32 711.369 1482.32 Q715.374 1482.32 717.712 1480.21 Q720.049 1478.1 720.049 1474.49 Q720.049 1470.88 717.712 1468.77 Q715.374 1466.67 711.369 1466.67 Q709.494 1466.67 707.619 1467.08 Q705.767 1467.5 703.823 1468.38 L703.823 1451.02 Z" fill="#000000" fill-rule="nonzero" fill-opacity="1" /><path clip-path="url(#clip670)" d="M743.938 1454.1 Q740.327 1454.1 738.498 1457.66 Q736.693 1461.2 736.693 1468.33 Q736.693 1475.44 738.498 1479.01 Q740.327 1482.55 743.938 1482.55 Q747.572 1482.55 749.378 1479.01 Q751.207 1475.44 751.207 1468.33 Q751.207 1461.2 749.378 1457.66 Q747.572 1454.1 743.938 1454.1 M743.938 1450.39 Q749.748 1450.39 752.804 1455 Q755.883 1459.58 755.883 1468.33 Q755.883 1477.06 752.804 1481.67 Q749.748 1486.25 743.938 1486.25 Q738.128 1486.25 735.049 1481.67 Q731.994 1477.06 731.994 1468.33 Q731.994 1459.58 735.049 1455 Q738.128 1450.39 743.938 1450.39 Z" fill="#000000" fill-rule="nonzero" fill-opacity="1" /><path clip-path="url(#clip670)" d="M1096.15 1481.64 L1103.78 1481.64 L1103.78 1455.28 L1095.47 1456.95 L1095.47 1452.69 L1103.74 1451.02 L1108.41 1451.02 L1108.41 1481.64 L1116.05 1481.64 L1116.05 1485.58 L1096.15 1485.58 L1096.15 1481.64 Z" fill="#000000" fill-rule="nonzero" fill-opacity="1" /><path clip-path="url(#clip670)" d="M1135.5 1454.1 Q1131.89 1454.1 1130.06 1457.66 Q1128.25 1461.2 1128.25 1468.33 Q1128.25 1475.44 1130.06 1479.01 Q1131.89 1482.55 1135.5 1482.55 Q1139.13 1482.55 1140.94 1479.01 Q1142.77 1475.44 1142.77 1468.33 Q1142.77 1461.2 1140.94 1457.66 Q1139.13 1454.1 1135.5 1454.1 M1135.5 1450.39 Q1141.31 1450.39 1144.36 1455 Q1147.44 1459.58 1147.44 1468.33 Q1147.44 1477.06 1144.36 1481.67 Q1141.31 1486.25 1135.5 1486.25 Q1129.69 1486.25 1126.61 1481.67 Q1123.55 1477.06 1123.55 1468.33 Q1123.55 1459.58 1126.61 1455 Q1129.69 1450.39 1135.5 1450.39 Z" fill="#000000" fill-rule="nonzero" fill-opacity="1" /><path clip-path="url(#clip670)" d="M1165.66 1454.1 Q1162.05 1454.1 1160.22 1457.66 Q1158.41 1461.2 1158.41 1468.33 Q1158.41 1475.44 1160.22 1479.01 Q1162.05 1482.55 1165.66 1482.55 Q1169.29 1482.55 1171.1 1479.01 Q1172.93 1475.44 1172.93 1468.33 Q1172.93 1461.2 1171.1 1457.66 Q1169.29 1454.1 1165.66 1454.1 M1165.66 1450.39 Q1171.47 1450.39 1174.52 1455 Q1177.6 1459.58 1177.6 1468.33 Q1177.6 1477.06 1174.52 1481.67 Q1171.47 1486.25 1165.66 1486.25 Q1159.85 1486.25 1156.77 1481.67 Q1153.71 1477.06 1153.71 1468.33 Q1153.71 1459.58 1156.77 1455 Q1159.85 1450.39 1165.66 1450.39 Z" fill="#000000" fill-rule="nonzero" fill-opacity="1" /><path clip-path="url(#clip670)" d="M1503.56 1481.64 L1511.2 1481.64 L1511.2 1455.28 L1502.89 1456.95 L1502.89 1452.69 L1511.15 1451.02 L1515.83 1451.02 L1515.83 1481.64 L1523.47 1481.64 L1523.47 1485.58 L1503.56 1485.58 L1503.56 1481.64 Z" fill="#000000" fill-rule="nonzero" fill-opacity="1" /><path clip-path="url(#clip670)" d="M1532.96 1451.02 L1551.32 1451.02 L1551.32 1454.96 L1537.24 1454.96 L1537.24 1463.43 Q1538.26 1463.08 1539.28 1462.92 Q1540.3 1462.73 1541.32 1462.73 Q1547.1 1462.73 1550.48 1465.9 Q1553.86 1469.08 1553.86 1474.49 Q1553.86 1480.07 1550.39 1483.17 Q1546.92 1486.25 1540.6 1486.25 Q1538.42 1486.25 1536.15 1485.88 Q1533.91 1485.51 1531.5 1484.77 L1531.5 1480.07 Q1533.58 1481.2 1535.81 1481.76 Q1538.03 1482.32 1540.51 1482.32 Q1544.51 1482.32 1546.85 1480.21 Q1549.19 1478.1 1549.19 1474.49 Q1549.19 1470.88 1546.85 1468.77 Q1544.51 1466.67 1540.51 1466.67 Q1538.63 1466.67 1536.76 1467.08 Q1534.9 1467.5 1532.96 1468.38 L1532.96 1451.02 Z" fill="#000000" fill-rule="nonzero" fill-opacity="1" /><path clip-path="url(#clip670)" d="M1573.07 1454.1 Q1569.46 1454.1 1567.64 1457.66 Q1565.83 1461.2 1565.83 1468.33 Q1565.83 1475.44 1567.64 1479.01 Q1569.46 1482.55 1573.07 1482.55 Q1576.71 1482.55 1578.51 1479.01 Q1580.34 1475.44 1580.34 1468.33 Q1580.34 1461.2 1578.51 1457.66 Q1576.71 1454.1 1573.07 1454.1 M1573.07 1450.39 Q1578.88 1450.39 1581.94 1455 Q1585.02 1459.58 1585.02 1468.33 Q1585.02 1477.06 1581.94 1481.67 Q1578.88 1486.25 1573.07 1486.25 Q1567.26 1486.25 1564.19 1481.67 Q1561.13 1477.06 1561.13 1468.33 Q1561.13 1459.58 1564.19 1455 Q1567.26 1450.39 1573.07 1450.39 Z" fill="#000000" fill-rule="nonzero" fill-opacity="1" /><path clip-path="url(#clip670)" d="M1915.06 1481.64 L1931.38 1481.64 L1931.38 1485.58 L1909.44 1485.58 L1909.44 1481.64 Q1912.1 1478.89 1916.68 1474.26 Q1921.29 1469.61 1922.47 1468.27 Q1924.72 1465.74 1925.59 1464.01 Q1926.5 1462.25 1926.5 1460.56 Q1926.5 1457.8 1924.55 1456.07 Q1922.63 1454.33 1919.53 1454.33 Q1917.33 1454.33 1914.88 1455.09 Q1912.45 1455.86 1909.67 1457.41 L1909.67 1452.69 Q1912.49 1451.55 1914.95 1450.97 Q1917.4 1450.39 1919.44 1450.39 Q1924.81 1450.39 1928 1453.08 Q1931.2 1455.77 1931.2 1460.26 Q1931.2 1462.39 1930.39 1464.31 Q1929.6 1466.2 1927.49 1468.8 Q1926.91 1469.47 1923.81 1472.69 Q1920.71 1475.88 1915.06 1481.64 Z" fill="#000000" fill-rule="nonzero" fill-opacity="1" /><path clip-path="url(#clip670)" d="M1951.2 1454.1 Q1947.59 1454.1 1945.76 1457.66 Q1943.95 1461.2 1943.95 1468.33 Q1943.95 1475.44 1945.76 1479.01 Q1947.59 1482.55 1951.2 1482.55 Q1954.83 1482.55 1956.64 1479.01 Q1958.46 1475.44 1958.46 1468.33 Q1958.46 1461.2 1956.64 1457.66 Q1954.83 1454.1 1951.2 1454.1 M1951.2 1450.39 Q1957.01 1450.39 1960.06 1455 Q1963.14 1459.58 1963.14 1468.33 Q1963.14 1477.06 1960.06 1481.67 Q1957.01 1486.25 1951.2 1486.25 Q1945.39 1486.25 1942.31 1481.67 Q1939.25 1477.06 1939.25 1468.33 Q1939.25 1459.58 1942.31 1455 Q1945.39 1450.39 1951.2 1450.39 Z" fill="#000000" fill-rule="nonzero" fill-opacity="1" /><path clip-path="url(#clip670)" d="M1981.36 1454.1 Q1977.75 1454.1 1975.92 1457.66 Q1974.11 1461.2 1974.11 1468.33 Q1974.11 1475.44 1975.92 1479.01 Q1977.75 1482.55 1981.36 1482.55 Q1984.99 1482.55 1986.8 1479.01 Q1988.63 1475.44 1988.63 1468.33 Q1988.63 1461.2 1986.8 1457.66 Q1984.99 1454.1 1981.36 1454.1 M1981.36 1450.39 Q1987.17 1450.39 1990.22 1455 Q1993.3 1459.58 1993.3 1468.33 Q1993.3 1477.06 1990.22 1481.67 Q1987.17 1486.25 1981.36 1486.25 Q1975.55 1486.25 1972.47 1481.67 Q1969.41 1477.06 1969.41 1468.33 Q1969.41 1459.58 1972.47 1455 Q1975.55 1450.39 1981.36 1450.39 Z" fill="#000000" fill-rule="nonzero" fill-opacity="1" /><path clip-path="url(#clip670)" d="M809.728 1524.18 L809.728 1530.96 Q806.481 1527.94 802.789 1526.44 Q799.129 1524.95 794.991 1524.95 Q786.843 1524.95 782.515 1529.95 Q778.186 1534.91 778.186 1544.33 Q778.186 1553.72 782.515 1558.72 Q786.843 1563.68 794.991 1563.68 Q799.129 1563.68 802.789 1562.19 Q806.481 1560.69 809.728 1557.67 L809.728 1564.38 Q806.354 1566.68 802.567 1567.82 Q798.811 1568.97 794.609 1568.97 Q783.82 1568.97 777.613 1562.38 Q771.406 1555.76 771.406 1544.33 Q771.406 1532.87 777.613 1526.28 Q783.82 1519.66 794.609 1519.66 Q798.874 1519.66 802.63 1520.81 Q806.418 1521.92 809.728 1524.18 Z" fill="#000000" fill-rule="nonzero" fill-opacity="1" /><path clip-path="url(#clip670)" d="M835.605 1550.12 Q828.507 1550.12 825.77 1551.75 Q823.032 1553.37 823.032 1557.29 Q823.032 1560.4 825.069 1562.25 Q827.138 1564.07 830.671 1564.07 Q835.541 1564.07 838.469 1560.63 Q841.429 1557.16 841.429 1551.43 L841.429 1550.12 L835.605 1550.12 M847.286 1547.71 L847.286 1568.04 L841.429 1568.04 L841.429 1562.63 Q839.424 1565.88 836.432 1567.44 Q833.44 1568.97 829.112 1568.97 Q823.637 1568.97 820.391 1565.91 Q817.176 1562.82 817.176 1557.67 Q817.176 1551.65 821.186 1548.6 Q825.228 1545.54 833.217 1545.54 L841.429 1545.54 L841.429 1544.97 Q841.429 1540.93 838.756 1538.73 Q836.114 1536.5 831.308 1536.5 Q828.252 1536.5 825.356 1537.23 Q822.459 1537.97 819.786 1539.43 L819.786 1534.02 Q823 1532.78 826.024 1532.17 Q829.048 1531.54 831.912 1531.54 Q839.647 1531.54 843.466 1535.55 Q847.286 1539.56 847.286 1547.71 Z" fill="#000000" fill-rule="nonzero" fill-opacity="1" /><path clip-path="url(#clip670)" d="M859.349 1518.52 L865.205 1518.52 L865.205 1568.04 L859.349 1568.04 L859.349 1518.52 Z" fill="#000000" fill-rule="nonzero" fill-opacity="1" /><path clip-path="url(#clip670)" d="M903.113 1533.76 L903.113 1539.24 Q900.63 1537.87 898.116 1537.2 Q895.633 1536.5 893.087 1536.5 Q887.39 1536.5 884.239 1540.13 Q881.088 1543.73 881.088 1550.25 Q881.088 1556.78 884.239 1560.4 Q887.39 1564 893.087 1564 Q895.633 1564 898.116 1563.33 Q900.63 1562.63 903.113 1561.26 L903.113 1566.68 Q900.662 1567.82 898.02 1568.39 Q895.41 1568.97 892.45 1568.97 Q884.398 1568.97 879.655 1563.91 Q874.913 1558.85 874.913 1550.25 Q874.913 1541.53 879.687 1536.53 Q884.493 1531.54 892.832 1531.54 Q895.538 1531.54 898.116 1532.11 Q900.694 1532.65 903.113 1533.76 Z" fill="#000000" fill-rule="nonzero" fill-opacity="1" /><path clip-path="url(#clip670)" d="M912.693 1553.98 L912.693 1532.4 L918.55 1532.4 L918.55 1553.75 Q918.55 1558.81 920.523 1561.36 Q922.496 1563.87 926.443 1563.87 Q931.186 1563.87 933.923 1560.85 Q936.692 1557.83 936.692 1552.61 L936.692 1532.4 L942.548 1532.4 L942.548 1568.04 L936.692 1568.04 L936.692 1562.57 Q934.559 1565.82 931.727 1567.41 Q928.926 1568.97 925.202 1568.97 Q919.059 1568.97 915.876 1565.15 Q912.693 1561.33 912.693 1553.98 M927.43 1531.54 L927.43 1531.54 Z" fill="#000000" fill-rule="nonzero" fill-opacity="1" /><path clip-path="url(#clip670)" d="M954.611 1518.52 L960.468 1518.52 L960.468 1568.04 L954.611 1568.04 L954.611 1518.52 Z" fill="#000000" fill-rule="nonzero" fill-opacity="1" /><path clip-path="url(#clip670)" d="M988.923 1550.12 Q981.825 1550.12 979.088 1551.75 Q976.35 1553.37 976.35 1557.29 Q976.35 1560.4 978.387 1562.25 Q980.456 1564.07 983.989 1564.07 Q988.859 1564.07 991.787 1560.63 Q994.747 1557.16 994.747 1551.43 L994.747 1550.12 L988.923 1550.12 M1000.6 1547.71 L1000.6 1568.04 L994.747 1568.04 L994.747 1562.63 Q992.742 1565.88 989.75 1567.44 Q986.758 1568.97 982.43 1568.97 Q976.955 1568.97 973.709 1565.91 Q970.494 1562.82 970.494 1557.67 Q970.494 1551.65 974.504 1548.6 Q978.547 1545.54 986.535 1545.54 L994.747 1545.54 L994.747 1544.97 Q994.747 1540.93 992.074 1538.73 Q989.432 1536.5 984.626 1536.5 Q981.57 1536.5 978.674 1537.23 Q975.777 1537.97 973.104 1539.43 L973.104 1534.02 Q976.319 1532.78 979.342 1532.17 Q982.366 1531.54 985.231 1531.54 Q992.965 1531.54 996.784 1535.55 Q1000.6 1539.56 1000.6 1547.71 Z" fill="#000000" fill-rule="nonzero" fill-opacity="1" /><path clip-path="url(#clip670)" d="M1018.46 1522.27 L1018.46 1532.4 L1030.52 1532.4 L1030.52 1536.95 L1018.46 1536.95 L1018.46 1556.3 Q1018.46 1560.66 1019.64 1561.9 Q1020.85 1563.14 1024.51 1563.14 L1030.52 1563.14 L1030.52 1568.04 L1024.51 1568.04 Q1017.73 1568.04 1015.15 1565.53 Q1012.57 1562.98 1012.57 1556.3 L1012.57 1536.95 L1008.27 1536.95 L1008.27 1532.4 L1012.57 1532.4 L1012.57 1522.27 L1018.46 1522.27 Z" fill="#000000" fill-rule="nonzero" fill-opacity="1" /><path clip-path="url(#clip670)" d="M1068.72 1548.76 L1068.72 1551.62 L1041.79 1551.62 Q1042.17 1557.67 1045.42 1560.85 Q1048.7 1564 1054.52 1564 Q1057.9 1564 1061.05 1563.17 Q1064.23 1562.35 1067.35 1560.69 L1067.35 1566.23 Q1064.2 1567.57 1060.89 1568.27 Q1057.58 1568.97 1054.17 1568.97 Q1045.64 1568.97 1040.64 1564 Q1035.68 1559.04 1035.68 1550.57 Q1035.68 1541.82 1040.39 1536.69 Q1045.13 1531.54 1053.15 1531.54 Q1060.35 1531.54 1064.52 1536.18 Q1068.72 1540.8 1068.72 1548.76 M1062.86 1547.04 Q1062.8 1542.23 1060.15 1539.37 Q1057.54 1536.5 1053.22 1536.5 Q1048.31 1536.5 1045.35 1539.27 Q1042.43 1542.04 1041.98 1547.07 L1062.86 1547.04 Z" fill="#000000" fill-rule="nonzero" fill-opacity="1" /><path clip-path="url(#clip670)" d="M1101.79 1537.81 L1101.79 1518.52 L1107.64 1518.52 L1107.64 1568.04 L1101.79 1568.04 L1101.79 1562.7 Q1099.94 1565.88 1097.11 1567.44 Q1094.31 1568.97 1090.36 1568.97 Q1083.9 1568.97 1079.82 1563.81 Q1075.78 1558.65 1075.78 1550.25 Q1075.78 1541.85 1079.82 1536.69 Q1083.9 1531.54 1090.36 1531.54 Q1094.31 1531.54 1097.11 1533.1 Q1099.94 1534.62 1101.79 1537.81 M1081.83 1550.25 Q1081.83 1556.71 1084.47 1560.4 Q1087.15 1564.07 1091.79 1564.07 Q1096.44 1564.07 1099.11 1560.4 Q1101.79 1556.71 1101.79 1550.25 Q1101.79 1543.79 1099.11 1540.13 Q1096.44 1536.44 1091.79 1536.44 Q1087.15 1536.44 1084.47 1540.13 Q1081.83 1543.79 1081.83 1550.25 Z" fill="#000000" fill-rule="nonzero" fill-opacity="1" /><path clip-path="url(#clip670)" d="M1170.06 1546.53 L1170.06 1568.04 L1164.2 1568.04 L1164.2 1546.72 Q1164.2 1541.66 1162.23 1539.14 Q1160.26 1536.63 1156.31 1536.63 Q1151.57 1536.63 1148.83 1539.65 Q1146.09 1542.68 1146.09 1547.9 L1146.09 1568.04 L1140.2 1568.04 L1140.2 1532.4 L1146.09 1532.4 L1146.09 1537.93 Q1148.19 1534.72 1151.03 1533.13 Q1153.89 1531.54 1157.61 1531.54 Q1163.76 1531.54 1166.91 1535.36 Q1170.06 1539.14 1170.06 1546.53 Z" fill="#000000" fill-rule="nonzero" fill-opacity="1" /><path clip-path="url(#clip670)" d="M1212.23 1548.76 L1212.23 1551.62 L1185.3 1551.62 Q1185.69 1557.67 1188.93 1560.85 Q1192.21 1564 1198.04 1564 Q1201.41 1564 1204.56 1563.17 Q1207.74 1562.35 1210.86 1560.69 L1210.86 1566.23 Q1207.71 1567.57 1204.4 1568.27 Q1201.09 1568.97 1197.69 1568.97 Q1189.16 1568.97 1184.16 1564 Q1179.19 1559.04 1179.19 1550.57 Q1179.19 1541.82 1183.9 1536.69 Q1188.65 1531.54 1196.67 1531.54 Q1203.86 1531.54 1208.03 1536.18 Q1212.23 1540.8 1212.23 1548.76 M1206.38 1547.04 Q1206.31 1542.23 1203.67 1539.37 Q1201.06 1536.5 1196.73 1536.5 Q1191.83 1536.5 1188.87 1539.27 Q1185.94 1542.04 1185.5 1547.07 L1206.38 1547.04 Z" fill="#000000" fill-rule="nonzero" fill-opacity="1" /><path clip-path="url(#clip670)" d="M1221.24 1553.98 L1221.24 1532.4 L1227.1 1532.4 L1227.1 1553.75 Q1227.1 1558.81 1229.07 1561.36 Q1231.04 1563.87 1234.99 1563.87 Q1239.73 1563.87 1242.47 1560.85 Q1245.24 1557.83 1245.24 1552.61 L1245.24 1532.4 L1251.09 1532.4 L1251.09 1568.04 L1245.24 1568.04 L1245.24 1562.57 Q1243.11 1565.82 1240.27 1567.41 Q1237.47 1568.97 1233.75 1568.97 Q1227.6 1568.97 1224.42 1565.15 Q1221.24 1561.33 1221.24 1553.98 M1235.98 1531.54 L1235.98 1531.54 Z" fill="#000000" fill-rule="nonzero" fill-opacity="1" /><path clip-path="url(#clip670)" d="M1268.95 1522.27 L1268.95 1532.4 L1281.01 1532.4 L1281.01 1536.95 L1268.95 1536.95 L1268.95 1556.3 Q1268.95 1560.66 1270.13 1561.9 Q1271.34 1563.14 1275 1563.14 L1281.01 1563.14 L1281.01 1568.04 L1275 1568.04 Q1268.22 1568.04 1265.64 1565.53 Q1263.06 1562.98 1263.06 1556.3 L1263.06 1536.95 L1258.76 1536.95 L1258.76 1532.4 L1263.06 1532.4 L1263.06 1522.27 L1268.95 1522.27 Z" fill="#000000" fill-rule="nonzero" fill-opacity="1" /><path clip-path="url(#clip670)" d="M1309.37 1537.87 Q1308.39 1537.3 1307.21 1537.04 Q1306.06 1536.76 1304.66 1536.76 Q1299.7 1536.76 1297.02 1540 Q1294.38 1543.22 1294.38 1549.27 L1294.38 1568.04 L1288.49 1568.04 L1288.49 1532.4 L1294.38 1532.4 L1294.38 1537.93 Q1296.23 1534.69 1299.19 1533.13 Q1302.15 1531.54 1306.38 1531.54 Q1306.99 1531.54 1307.72 1531.63 Q1308.45 1531.7 1309.34 1531.85 L1309.37 1537.87 Z" fill="#000000" fill-rule="nonzero" fill-opacity="1" /><path clip-path="url(#clip670)" d="M1327.9 1536.5 Q1323.19 1536.5 1320.45 1540.19 Q1317.71 1543.85 1317.71 1550.25 Q1317.71 1556.65 1320.42 1560.34 Q1323.15 1564 1327.9 1564 Q1332.58 1564 1335.31 1560.31 Q1338.05 1556.62 1338.05 1550.25 Q1338.05 1543.92 1335.31 1540.23 Q1332.58 1536.5 1327.9 1536.5 M1327.9 1531.54 Q1335.54 1531.54 1339.9 1536.5 Q1344.26 1541.47 1344.26 1550.25 Q1344.26 1559 1339.9 1564 Q1335.54 1568.97 1327.9 1568.97 Q1320.23 1568.97 1315.87 1564 Q1311.54 1559 1311.54 1550.25 Q1311.54 1541.47 1315.87 1536.5 Q1320.23 1531.54 1327.9 1531.54 Z" fill="#000000" fill-rule="nonzero" fill-opacity="1" /><path clip-path="url(#clip670)" d="M1383.6 1546.53 L1383.6 1568.04 L1377.74 1568.04 L1377.74 1546.72 Q1377.74 1541.66 1375.77 1539.14 Q1373.79 1536.63 1369.85 1536.63 Q1365.1 1536.63 1362.37 1539.65 Q1359.63 1542.68 1359.63 1547.9 L1359.63 1568.04 L1353.74 1568.04 L1353.74 1532.4 L1359.63 1532.4 L1359.63 1537.93 Q1361.73 1534.72 1364.56 1533.13 Q1367.43 1531.54 1371.15 1531.54 Q1377.29 1531.54 1380.45 1535.36 Q1383.6 1539.14 1383.6 1546.53 Z" fill="#000000" fill-rule="nonzero" fill-opacity="1" /><path clip-path="url(#clip670)" d="M1446.49 1548.76 L1446.49 1551.62 L1419.56 1551.62 Q1419.94 1557.67 1423.19 1560.85 Q1426.47 1564 1432.29 1564 Q1435.67 1564 1438.82 1563.17 Q1442 1562.35 1445.12 1560.69 L1445.12 1566.23 Q1441.97 1567.57 1438.66 1568.27 Q1435.35 1568.97 1431.94 1568.97 Q1423.41 1568.97 1418.42 1564 Q1413.45 1559.04 1413.45 1550.57 Q1413.45 1541.82 1418.16 1536.69 Q1422.9 1531.54 1430.93 1531.54 Q1438.12 1531.54 1442.29 1536.18 Q1446.49 1540.8 1446.49 1548.76 M1440.63 1547.04 Q1440.57 1542.23 1437.93 1539.37 Q1435.32 1536.5 1430.99 1536.5 Q1426.09 1536.5 1423.13 1539.27 Q1420.2 1542.04 1419.75 1547.07 L1440.63 1547.04 Z" fill="#000000" fill-rule="nonzero" fill-opacity="1" /><path clip-path="url(#clip670)" d="M1485.73 1546.53 L1485.73 1568.04 L1479.88 1568.04 L1479.88 1546.72 Q1479.88 1541.66 1477.9 1539.14 Q1475.93 1536.63 1471.98 1536.63 Q1467.24 1536.63 1464.5 1539.65 Q1461.77 1542.68 1461.77 1547.9 L1461.77 1568.04 L1455.88 1568.04 L1455.88 1532.4 L1461.77 1532.4 L1461.77 1537.93 Q1463.87 1534.72 1466.7 1533.13 Q1469.57 1531.54 1473.29 1531.54 Q1479.43 1531.54 1482.58 1535.36 Q1485.73 1539.14 1485.73 1546.53 Z" fill="#000000" fill-rule="nonzero" fill-opacity="1" /><path clip-path="url(#clip670)" d="M1527.91 1548.76 L1527.91 1551.62 L1500.98 1551.62 Q1501.36 1557.67 1504.61 1560.85 Q1507.89 1564 1513.71 1564 Q1517.09 1564 1520.24 1563.17 Q1523.42 1562.35 1526.54 1560.69 L1526.54 1566.23 Q1523.39 1567.57 1520.08 1568.27 Q1516.77 1568.97 1513.36 1568.97 Q1504.83 1568.97 1499.83 1564 Q1494.87 1559.04 1494.87 1550.57 Q1494.87 1541.82 1499.58 1536.69 Q1504.32 1531.54 1512.34 1531.54 Q1519.54 1531.54 1523.71 1536.18 Q1527.91 1540.8 1527.91 1548.76 M1522.05 1547.04 Q1521.99 1542.23 1519.35 1539.37 Q1516.74 1536.5 1512.41 1536.5 Q1507.5 1536.5 1504.54 1539.27 Q1501.62 1542.04 1501.17 1547.07 L1522.05 1547.04 Z" fill="#000000" fill-rule="nonzero" fill-opacity="1" /><path clip-path="url(#clip670)" d="M1558.18 1537.87 Q1557.19 1537.3 1556.01 1537.04 Q1554.87 1536.76 1553.47 1536.76 Q1548.5 1536.76 1545.83 1540 Q1543.18 1543.22 1543.18 1549.27 L1543.18 1568.04 L1537.3 1568.04 L1537.3 1532.4 L1543.18 1532.4 L1543.18 1537.93 Q1545.03 1534.69 1547.99 1533.13 Q1550.95 1531.54 1555.18 1531.54 Q1555.79 1531.54 1556.52 1531.63 Q1557.25 1531.7 1558.14 1531.85 L1558.18 1537.87 Z" fill="#000000" fill-rule="nonzero" fill-opacity="1" /><path clip-path="url(#clip670)" d="M1586.63 1549.81 Q1586.63 1543.44 1583.99 1539.94 Q1581.38 1536.44 1576.64 1536.44 Q1571.93 1536.44 1569.28 1539.94 Q1566.67 1543.44 1566.67 1549.81 Q1566.67 1556.14 1569.28 1559.64 Q1571.93 1563.14 1576.64 1563.14 Q1581.38 1563.14 1583.99 1559.64 Q1586.63 1556.14 1586.63 1549.81 M1592.49 1563.62 Q1592.49 1572.72 1588.44 1577.15 Q1584.4 1581.6 1576.06 1581.6 Q1572.98 1581.6 1570.24 1581.13 Q1567.5 1580.68 1564.92 1579.72 L1564.92 1574.03 Q1567.5 1575.43 1570.02 1576.1 Q1572.53 1576.76 1575.14 1576.76 Q1580.9 1576.76 1583.77 1573.74 Q1586.63 1570.75 1586.63 1564.67 L1586.63 1561.77 Q1584.82 1564.92 1581.98 1566.48 Q1579.15 1568.04 1575.2 1568.04 Q1568.65 1568.04 1564.64 1563.05 Q1560.63 1558.05 1560.63 1549.81 Q1560.63 1541.53 1564.64 1536.53 Q1568.65 1531.54 1575.2 1531.54 Q1579.15 1531.54 1581.98 1533.1 Q1584.82 1534.66 1586.63 1537.81 L1586.63 1532.4 L1592.49 1532.4 L1592.49 1563.62 Z" fill="#000000" fill-rule="nonzero" fill-opacity="1" /><path clip-path="url(#clip670)" d="M1619.38 1571.35 Q1616.9 1577.72 1614.54 1579.66 Q1612.19 1581.6 1608.24 1581.6 L1603.56 1581.6 L1603.56 1576.7 L1607 1576.7 Q1609.42 1576.7 1610.76 1575.56 Q1612.09 1574.41 1613.72 1570.14 L1614.77 1567.47 L1600.35 1532.4 L1606.56 1532.4 L1617.7 1560.28 L1628.84 1532.4 L1635.04 1532.4 L1619.38 1571.35 Z" fill="#000000" fill-rule="nonzero" fill-opacity="1" /><path clip-path="url(#clip670)" d="M1677.91 1518.58 Q1673.65 1525.9 1671.58 1533.06 Q1669.51 1540.23 1669.51 1547.58 Q1669.51 1554.93 1671.58 1562.16 Q1673.68 1569.35 1677.91 1576.64 L1672.82 1576.64 Q1668.05 1569.16 1665.66 1561.93 Q1663.31 1554.71 1663.31 1547.58 Q1663.31 1540.48 1665.66 1533.29 Q1668.02 1526.09 1672.82 1518.58 L1677.91 1518.58 Z" fill="#000000" fill-rule="nonzero" fill-opacity="1" /><path clip-path="url(#clip670)" d="M1689.53 1520.52 L1699.11 1520.52 L1711.24 1552.86 L1723.43 1520.52 L1733.01 1520.52 L1733.01 1568.04 L1726.74 1568.04 L1726.74 1526.32 L1714.49 1558.91 L1708.02 1558.91 L1695.77 1526.32 L1695.77 1568.04 L1689.53 1568.04 L1689.53 1520.52 Z" fill="#000000" fill-rule="nonzero" fill-opacity="1" /><path clip-path="url(#clip670)" d="M1776.01 1548.76 L1776.01 1551.62 L1749.08 1551.62 Q1749.47 1557.67 1752.71 1560.85 Q1755.99 1564 1761.81 1564 Q1765.19 1564 1768.34 1563.17 Q1771.52 1562.35 1774.64 1560.69 L1774.64 1566.23 Q1771.49 1567.57 1768.18 1568.27 Q1764.87 1568.97 1761.46 1568.97 Q1752.93 1568.97 1747.94 1564 Q1742.97 1559.04 1742.97 1550.57 Q1742.97 1541.82 1747.68 1536.69 Q1752.43 1531.54 1760.45 1531.54 Q1767.64 1531.54 1771.81 1536.18 Q1776.01 1540.8 1776.01 1548.76 M1770.15 1547.04 Q1770.09 1542.23 1767.45 1539.37 Q1764.84 1536.5 1760.51 1536.5 Q1755.61 1536.5 1752.65 1539.27 Q1749.72 1542.04 1749.27 1547.07 L1770.15 1547.04 Z" fill="#000000" fill-rule="nonzero" fill-opacity="1" /><path clip-path="url(#clip670)" d="M1798.13 1568.04 L1779.99 1520.52 L1786.7 1520.52 L1801.76 1560.53 L1816.85 1520.52 L1823.53 1520.52 L1805.42 1568.04 L1798.13 1568.04 Z" fill="#000000" fill-rule="nonzero" fill-opacity="1" /><path clip-path="url(#clip670)" d="M1829.29 1518.58 L1834.38 1518.58 Q1839.16 1526.09 1841.51 1533.29 Q1843.9 1540.48 1843.9 1547.58 Q1843.9 1554.71 1841.51 1561.93 Q1839.16 1569.16 1834.38 1576.64 L1829.29 1576.64 Q1833.52 1569.35 1835.59 1562.16 Q1837.69 1554.93 1837.69 1547.58 Q1837.69 1540.23 1835.59 1533.06 Q1833.52 1525.9 1829.29 1518.58 Z" fill="#000000" fill-rule="nonzero" fill-opacity="1" /><polyline clip-path="url(#clip670)" style="stroke:#000000; stroke-linecap:round; stroke-linejoin:round; stroke-width:4; stroke-opacity:1; fill:none" points="262.551,1423.18 262.551,123.472 "/>
<polyline clip-path="url(#clip670)" style="stroke:#000000; stroke-linecap:round; stroke-linejoin:round; stroke-width:4; stroke-opacity:1; fill:none" points="262.551,1386.4 281.449,1386.4 "/>
<polyline clip-path="url(#clip670)" style="stroke:#000000; stroke-linecap:round; stroke-linejoin:round; stroke-width:4; stroke-opacity:1; fill:none" points="262.551,1054.29 281.449,1054.29 "/>
<polyline clip-path="url(#clip670)" style="stroke:#000000; stroke-linecap:round; stroke-linejoin:round; stroke-width:4; stroke-opacity:1; fill:none" points="262.551,722.181 281.449,722.181 "/>
<polyline clip-path="url(#clip670)" style="stroke:#000000; stroke-linecap:round; stroke-linejoin:round; stroke-width:4; stroke-opacity:1; fill:none" points="262.551,390.074 281.449,390.074 "/>
<path clip-path="url(#clip670)" d="M214.607 1372.19 Q210.996 1372.19 209.167 1375.76 Q207.362 1379.3 207.362 1386.43 Q207.362 1393.54 209.167 1397.1 Q210.996 1400.64 214.607 1400.64 Q218.241 1400.64 220.047 1397.1 Q221.875 1393.54 221.875 1386.43 Q221.875 1379.3 220.047 1375.76 Q218.241 1372.19 214.607 1372.19 M214.607 1368.49 Q220.417 1368.49 223.473 1373.1 Q226.551 1377.68 226.551 1386.43 Q226.551 1395.16 223.473 1399.76 Q220.417 1404.35 214.607 1404.35 Q208.797 1404.35 205.718 1399.76 Q202.662 1395.16 202.662 1386.43 Q202.662 1377.68 205.718 1373.1 Q208.797 1368.49 214.607 1368.49 Z" fill="#000000" fill-rule="nonzero" fill-opacity="1" /><path clip-path="url(#clip670)" d="M144.329 1037.01 L162.686 1037.01 L162.686 1040.94 L148.612 1040.94 L148.612 1049.42 Q149.63 1049.07 150.649 1048.91 Q151.667 1048.72 152.686 1048.72 Q158.473 1048.72 161.852 1051.89 Q165.232 1055.06 165.232 1060.48 Q165.232 1066.06 161.76 1069.16 Q158.288 1072.24 151.968 1072.24 Q149.792 1072.24 147.524 1071.87 Q145.279 1071.5 142.871 1070.76 L142.871 1066.06 Q144.954 1067.19 147.177 1067.75 Q149.399 1068.3 151.876 1068.3 Q155.88 1068.3 158.218 1066.2 Q160.556 1064.09 160.556 1060.48 Q160.556 1056.87 158.218 1054.76 Q155.88 1052.66 151.876 1052.66 Q150.001 1052.66 148.126 1053.07 Q146.274 1053.49 144.329 1054.37 L144.329 1037.01 Z" fill="#000000" fill-rule="nonzero" fill-opacity="1" /><path clip-path="url(#clip670)" d="M184.445 1040.09 Q180.834 1040.09 179.005 1043.65 Q177.2 1047.19 177.2 1054.32 Q177.2 1061.43 179.005 1064.99 Q180.834 1068.54 184.445 1068.54 Q188.079 1068.54 189.885 1064.99 Q191.713 1061.43 191.713 1054.32 Q191.713 1047.19 189.885 1043.65 Q188.079 1040.09 184.445 1040.09 M184.445 1036.38 Q190.255 1036.38 193.311 1040.99 Q196.389 1045.57 196.389 1054.32 Q196.389 1063.05 193.311 1067.66 Q190.255 1072.24 184.445 1072.24 Q178.635 1072.24 175.556 1067.66 Q172.501 1063.05 172.501 1054.32 Q172.501 1045.57 175.556 1040.99 Q178.635 1036.38 184.445 1036.38 Z" fill="#000000" fill-rule="nonzero" fill-opacity="1" /><path clip-path="url(#clip670)" d="M214.607 1040.09 Q210.996 1040.09 209.167 1043.65 Q207.362 1047.19 207.362 1054.32 Q207.362 1061.43 209.167 1064.99 Q210.996 1068.54 214.607 1068.54 Q218.241 1068.54 220.047 1064.99 Q221.875 1061.43 221.875 1054.32 Q221.875 1047.19 220.047 1043.65 Q218.241 1040.09 214.607 1040.09 M214.607 1036.38 Q220.417 1036.38 223.473 1040.99 Q226.551 1045.57 226.551 1054.32 Q226.551 1063.05 223.473 1067.66 Q220.417 1072.24 214.607 1072.24 Q208.797 1072.24 205.718 1067.66 Q202.662 1063.05 202.662 1054.32 Q202.662 1045.57 205.718 1040.99 Q208.797 1036.38 214.607 1036.38 Z" fill="#000000" fill-rule="nonzero" fill-opacity="1" /><path clip-path="url(#clip670)" d="M114.931 735.526 L122.57 735.526 L122.57 709.161 L114.26 710.827 L114.26 706.568 L122.524 704.901 L127.2 704.901 L127.2 735.526 L134.839 735.526 L134.839 739.461 L114.931 739.461 L114.931 735.526 Z" fill="#000000" fill-rule="nonzero" fill-opacity="1" /><path clip-path="url(#clip670)" d="M154.283 707.98 Q150.672 707.98 148.843 711.545 Q147.038 715.087 147.038 722.216 Q147.038 729.323 148.843 732.887 Q150.672 736.429 154.283 736.429 Q157.917 736.429 159.723 732.887 Q161.552 729.323 161.552 722.216 Q161.552 715.087 159.723 711.545 Q157.917 707.98 154.283 707.98 M154.283 704.276 Q160.093 704.276 163.149 708.883 Q166.227 713.466 166.227 722.216 Q166.227 730.943 163.149 735.549 Q160.093 740.133 154.283 740.133 Q148.473 740.133 145.394 735.549 Q142.339 730.943 142.339 722.216 Q142.339 713.466 145.394 708.883 Q148.473 704.276 154.283 704.276 Z" fill="#000000" fill-rule="nonzero" fill-opacity="1" /><path clip-path="url(#clip670)" d="M184.445 707.98 Q180.834 707.98 179.005 711.545 Q177.2 715.087 177.2 722.216 Q177.2 729.323 179.005 732.887 Q180.834 736.429 184.445 736.429 Q188.079 736.429 189.885 732.887 Q191.713 729.323 191.713 722.216 Q191.713 715.087 189.885 711.545 Q188.079 707.98 184.445 707.98 M184.445 704.276 Q190.255 704.276 193.311 708.883 Q196.389 713.466 196.389 722.216 Q196.389 730.943 193.311 735.549 Q190.255 740.133 184.445 740.133 Q178.635 740.133 175.556 735.549 Q172.501 730.943 172.501 722.216 Q172.501 713.466 175.556 708.883 Q178.635 704.276 184.445 704.276 Z" fill="#000000" fill-rule="nonzero" fill-opacity="1" /><path clip-path="url(#clip670)" d="M214.607 707.98 Q210.996 707.98 209.167 711.545 Q207.362 715.087 207.362 722.216 Q207.362 729.323 209.167 732.887 Q210.996 736.429 214.607 736.429 Q218.241 736.429 220.047 732.887 Q221.875 729.323 221.875 722.216 Q221.875 715.087 220.047 711.545 Q218.241 707.98 214.607 707.98 M214.607 704.276 Q220.417 704.276 223.473 708.883 Q226.551 713.466 226.551 722.216 Q226.551 730.943 223.473 735.549 Q220.417 740.133 214.607 740.133 Q208.797 740.133 205.718 735.549 Q202.662 730.943 202.662 722.216 Q202.662 713.466 205.718 708.883 Q208.797 704.276 214.607 704.276 Z" fill="#000000" fill-rule="nonzero" fill-opacity="1" /><path clip-path="url(#clip670)" d="M114.931 403.419 L122.57 403.419 L122.57 377.054 L114.26 378.72 L114.26 374.461 L122.524 372.794 L127.2 372.794 L127.2 403.419 L134.839 403.419 L134.839 407.354 L114.931 407.354 L114.931 403.419 Z" fill="#000000" fill-rule="nonzero" fill-opacity="1" /><path clip-path="url(#clip670)" d="M144.329 372.794 L162.686 372.794 L162.686 376.73 L148.612 376.73 L148.612 385.202 Q149.63 384.855 150.649 384.692 Q151.667 384.507 152.686 384.507 Q158.473 384.507 161.852 387.679 Q165.232 390.85 165.232 396.267 Q165.232 401.845 161.76 404.947 Q158.288 408.026 151.968 408.026 Q149.792 408.026 147.524 407.655 Q145.279 407.285 142.871 406.544 L142.871 401.845 Q144.954 402.979 147.177 403.535 Q149.399 404.091 151.876 404.091 Q155.88 404.091 158.218 401.984 Q160.556 399.878 160.556 396.267 Q160.556 392.655 158.218 390.549 Q155.88 388.442 151.876 388.442 Q150.001 388.442 148.126 388.859 Q146.274 389.276 144.329 390.155 L144.329 372.794 Z" fill="#000000" fill-rule="nonzero" fill-opacity="1" /><path clip-path="url(#clip670)" d="M184.445 375.873 Q180.834 375.873 179.005 379.438 Q177.2 382.98 177.2 390.109 Q177.2 397.216 179.005 400.78 Q180.834 404.322 184.445 404.322 Q188.079 404.322 189.885 400.78 Q191.713 397.216 191.713 390.109 Q191.713 382.98 189.885 379.438 Q188.079 375.873 184.445 375.873 M184.445 372.169 Q190.255 372.169 193.311 376.776 Q196.389 381.359 196.389 390.109 Q196.389 398.836 193.311 403.442 Q190.255 408.026 184.445 408.026 Q178.635 408.026 175.556 403.442 Q172.501 398.836 172.501 390.109 Q172.501 381.359 175.556 376.776 Q178.635 372.169 184.445 372.169 Z" fill="#000000" fill-rule="nonzero" fill-opacity="1" /><path clip-path="url(#clip670)" d="M214.607 375.873 Q210.996 375.873 209.167 379.438 Q207.362 382.98 207.362 390.109 Q207.362 397.216 209.167 400.78 Q210.996 404.322 214.607 404.322 Q218.241 404.322 220.047 400.78 Q221.875 397.216 221.875 390.109 Q221.875 382.98 220.047 379.438 Q218.241 375.873 214.607 375.873 M214.607 372.169 Q220.417 372.169 223.473 376.776 Q226.551 381.359 226.551 390.109 Q226.551 398.836 223.473 403.442 Q220.417 408.026 214.607 408.026 Q208.797 408.026 205.718 403.442 Q202.662 398.836 202.662 390.109 Q202.662 381.359 205.718 376.776 Q208.797 372.169 214.607 372.169 Z" fill="#000000" fill-rule="nonzero" fill-opacity="1" /><path clip-path="url(#clip670)" d="M20.1444 845.354 L26.9239 845.354 Q23.9002 848.6 22.4043 852.293 Q20.9083 855.953 20.9083 860.091 Q20.9083 868.239 25.9054 872.567 Q30.8707 876.896 40.2919 876.896 Q49.6813 876.896 54.6784 872.567 Q59.6436 868.239 59.6436 860.091 Q59.6436 855.953 58.1477 852.293 Q56.6518 848.6 53.6281 845.354 L60.3439 845.354 Q62.6355 848.728 63.7814 852.515 Q64.9272 856.271 64.9272 860.473 Q64.9272 871.262 58.3387 877.469 Q51.7183 883.676 40.2919 883.676 Q28.8336 883.676 22.2451 877.469 Q15.6248 871.262 15.6248 860.473 Q15.6248 856.207 16.7706 852.452 Q17.8846 848.664 20.1444 845.354 Z" fill="#000000" fill-rule="nonzero" fill-opacity="1" /><path clip-path="url(#clip670)" d="M32.4621 821.864 Q32.4621 826.575 36.1542 829.312 Q39.8145 832.05 46.212 832.05 Q52.6095 832.05 56.3017 829.344 Q59.9619 826.607 59.9619 821.864 Q59.9619 817.186 56.2698 814.448 Q52.5777 811.711 46.212 811.711 Q39.8781 811.711 36.186 814.448 Q32.4621 817.186 32.4621 821.864 M27.4968 821.864 Q27.4968 814.226 32.4621 809.865 Q37.4273 805.505 46.212 805.505 Q54.9649 805.505 59.9619 809.865 Q64.9272 814.226 64.9272 821.864 Q64.9272 829.535 59.9619 833.896 Q54.9649 838.224 46.212 838.224 Q37.4273 838.224 32.4621 833.896 Q27.4968 829.535 27.4968 821.864 Z" fill="#000000" fill-rule="nonzero" fill-opacity="1" /><path clip-path="url(#clip670)" d="M49.9359 796.402 L28.3562 796.402 L28.3562 790.545 L49.7131 790.545 Q54.7739 790.545 57.3202 788.572 Q59.8346 786.598 59.8346 782.652 Q59.8346 777.909 56.8109 775.172 Q53.7872 772.403 48.5673 772.403 L28.3562 772.403 L28.3562 766.547 L64.0042 766.547 L64.0042 772.403 L58.5296 772.403 Q61.7762 774.535 63.3676 777.368 Q64.9272 780.169 64.9272 783.893 Q64.9272 790.036 61.1078 793.219 Q57.2883 796.402 49.9359 796.402 M27.4968 781.665 L27.4968 781.665 Z" fill="#000000" fill-rule="nonzero" fill-opacity="1" /><path clip-path="url(#clip670)" d="M42.4881 724.851 L64.0042 724.851 L64.0042 730.708 L42.679 730.708 Q37.6183 730.708 35.1038 732.681 Q32.5894 734.654 32.5894 738.601 Q32.5894 743.344 35.6131 746.081 Q38.6368 748.818 43.8567 748.818 L64.0042 748.818 L64.0042 754.706 L28.3562 754.706 L28.3562 748.818 L33.8944 748.818 Q30.6797 746.717 29.0883 743.885 Q27.4968 741.02 27.4968 737.296 Q27.4968 731.153 31.3163 728.002 Q35.1038 724.851 42.4881 724.851 Z" fill="#000000" fill-rule="nonzero" fill-opacity="1" /><path clip-path="url(#clip670)" d="M18.2347 707.377 L28.3562 707.377 L28.3562 695.314 L32.9077 695.314 L32.9077 707.377 L52.2594 707.377 Q56.6199 707.377 57.8613 706.2 Q59.1026 704.99 59.1026 701.33 L59.1026 695.314 L64.0042 695.314 L64.0042 701.33 Q64.0042 708.109 61.4897 710.687 Q58.9434 713.266 52.2594 713.266 L32.9077 713.266 L32.9077 717.562 L28.3562 717.562 L28.3562 713.266 L18.2347 713.266 L18.2347 707.377 Z" fill="#000000" fill-rule="nonzero" fill-opacity="1" /><path clip-path="url(#clip670)" d="M29.4065 664.886 L34.9447 664.886 Q33.6716 667.369 33.035 670.042 Q32.3984 672.716 32.3984 675.581 Q32.3984 679.941 33.7352 682.137 Q35.072 684.302 37.7456 684.302 Q39.7826 684.302 40.9603 682.742 Q42.1061 681.182 43.1565 676.472 L43.6021 674.467 Q44.9389 668.228 47.3897 665.618 Q49.8086 662.976 54.1691 662.976 Q59.1344 662.976 62.0308 666.923 Q64.9272 670.838 64.9272 677.713 Q64.9272 680.578 64.3543 683.697 Q63.8132 686.784 62.6992 690.222 L56.6518 690.222 Q58.3387 686.975 59.198 683.824 Q60.0256 680.673 60.0256 677.586 Q60.0256 673.448 58.6251 671.22 Q57.1929 668.992 54.6147 668.992 Q52.2276 668.992 50.9545 670.615 Q49.6813 672.207 48.5037 677.649 L48.0262 679.686 Q46.8804 685.129 44.5251 687.548 Q42.138 689.967 38.0002 689.967 Q32.9713 689.967 30.2341 686.402 Q27.4968 682.837 27.4968 676.281 Q27.4968 673.034 27.9743 670.17 Q28.4517 667.305 29.4065 664.886 Z" fill="#000000" fill-rule="nonzero" fill-opacity="1" /><path clip-path="url(#clip670)" d="M793.655 65.6895 L822.213 65.6895 L822.213 72.576 L783.811 72.576 L783.811 65.6895 Q788.469 60.8689 796.49 52.7671 Q804.552 44.6248 806.617 42.2752 Q810.547 37.8598 812.086 34.8216 Q813.666 31.7429 813.666 28.7857 Q813.666 23.9651 810.263 20.927 Q806.901 17.8888 801.473 17.8888 Q797.624 17.8888 793.331 19.2256 Q789.077 20.5624 784.216 23.2765 L784.216 15.0127 Q789.158 13.0277 793.452 12.015 Q797.746 11.0023 801.311 11.0023 Q810.709 11.0023 816.299 15.7013 Q821.889 20.4004 821.889 28.2591 Q821.889 31.9859 820.472 35.3482 Q819.094 38.6699 815.408 43.2069 Q814.395 44.3817 808.967 50.0125 Q803.539 55.6027 793.655 65.6895 Z" fill="#000000" fill-rule="nonzero" fill-opacity="1" /><path clip-path="url(#clip670)" d="M839.389 62.2867 L847.937 62.2867 L847.937 72.576 L839.389 72.576 L839.389 62.2867 Z" fill="#000000" fill-rule="nonzero" fill-opacity="1" /><path clip-path="url(#clip670)" d="M863.695 12.096 L902.583 12.096 L902.583 15.5798 L880.627 72.576 L872.08 72.576 L892.74 18.9825 L863.695 18.9825 L863.695 12.096 Z" fill="#000000" fill-rule="nonzero" fill-opacity="1" /><path clip-path="url(#clip670)" d="M937.057 39.075 Q931.547 39.075 928.307 42.8424 Q925.106 46.6097 925.106 53.1722 Q925.106 59.6941 928.307 63.502 Q931.547 67.2693 937.057 67.2693 Q942.566 67.2693 945.766 63.502 Q949.007 59.6941 949.007 53.1722 Q949.007 46.6097 945.766 42.8424 Q942.566 39.075 937.057 39.075 M953.301 13.4328 L953.301 20.8865 Q950.222 19.4281 947.062 18.6585 Q943.943 17.8888 940.864 17.8888 Q932.763 17.8888 928.469 23.3575 Q924.215 28.8262 923.608 39.8852 Q925.998 36.3609 929.603 34.4975 Q933.208 32.5936 937.543 32.5936 Q946.657 32.5936 951.923 38.1433 Q957.23 43.6525 957.23 53.1722 Q957.23 62.4892 951.721 68.12 Q946.212 73.7508 937.057 73.7508 Q926.565 73.7508 921.015 65.73 Q915.465 57.6687 915.465 42.3968 Q915.465 28.0566 922.271 19.5497 Q929.076 11.0023 940.54 11.0023 Q943.619 11.0023 946.738 11.6099 Q949.898 12.2175 953.301 13.4328 Z" fill="#000000" fill-rule="nonzero" fill-opacity="1" /><path clip-path="url(#clip670)" d="M1009.08 48.0275 L1009.08 51.6733 L974.811 51.6733 Q975.297 59.3701 979.429 63.421 Q983.601 67.4314 991.015 67.4314 Q995.309 67.4314 999.319 66.3781 Q1003.37 65.3249 1007.34 63.2184 L1007.34 70.267 Q1003.33 71.9684 999.116 72.8596 Q994.904 73.7508 990.569 73.7508 Q979.713 73.7508 973.353 67.4314 Q967.033 61.1119 967.033 50.3365 Q967.033 39.1965 973.029 32.6746 Q979.064 26.1121 989.273 26.1121 Q998.428 26.1121 1003.73 32.0264 Q1009.08 37.9003 1009.08 48.0275 M1001.63 45.84 Q1001.55 39.7232 998.185 36.0774 Q994.863 32.4315 989.354 32.4315 Q983.115 32.4315 979.348 35.9558 Q975.621 39.4801 975.054 45.8805 L1001.63 45.84 Z" fill="#000000" fill-rule="nonzero" fill-opacity="1" /><path clip-path="url(#clip670)" d="M1020.3 12.096 L1059.19 12.096 L1059.19 15.5798 L1037.24 72.576 L1028.69 72.576 L1049.35 18.9825 L1020.3 18.9825 L1020.3 12.096 Z" fill="#000000" fill-rule="nonzero" fill-opacity="1" /><path clip-path="url(#clip670)" d="M1138.18 45.1919 L1138.18 72.576 L1130.73 72.576 L1130.73 45.4349 Q1130.73 38.994 1128.22 35.7938 Q1125.71 32.5936 1120.68 32.5936 Q1114.65 32.5936 1111.16 36.4419 Q1107.68 40.2903 1107.68 46.9338 L1107.68 72.576 L1100.19 72.576 L1100.19 27.2059 L1107.68 27.2059 L1107.68 34.2544 Q1110.35 30.163 1113.96 28.1376 Q1117.61 26.1121 1122.34 26.1121 Q1130.16 26.1121 1134.17 30.9732 Q1138.18 35.7938 1138.18 45.1919 Z" fill="#000000" fill-rule="nonzero" fill-opacity="1" /><path clip-path="url(#clip670)" d="M1191.86 48.0275 L1191.86 51.6733 L1157.59 51.6733 Q1158.07 59.3701 1162.21 63.421 Q1166.38 67.4314 1173.79 67.4314 Q1178.09 67.4314 1182.1 66.3781 Q1186.15 65.3249 1190.12 63.2184 L1190.12 70.267 Q1186.11 71.9684 1181.89 72.8596 Q1177.68 73.7508 1173.35 73.7508 Q1162.49 73.7508 1156.13 67.4314 Q1149.81 61.1119 1149.81 50.3365 Q1149.81 39.1965 1155.81 32.6746 Q1161.84 26.1121 1172.05 26.1121 Q1181.2 26.1121 1186.51 32.0264 Q1191.86 37.9003 1191.86 48.0275 M1184.4 45.84 Q1184.32 39.7232 1180.96 36.0774 Q1177.64 32.4315 1172.13 32.4315 Q1165.89 32.4315 1162.12 35.9558 Q1158.4 39.4801 1157.83 45.8805 L1184.4 45.84 Z" fill="#000000" fill-rule="nonzero" fill-opacity="1" /><path clip-path="url(#clip670)" d="M1203.32 54.671 L1203.32 27.2059 L1210.78 27.2059 L1210.78 54.3874 Q1210.78 60.8284 1213.29 64.0691 Q1215.8 67.2693 1220.82 67.2693 Q1226.86 67.2693 1230.34 63.421 Q1233.87 59.5726 1233.87 52.9291 L1233.87 27.2059 L1241.32 27.2059 L1241.32 72.576 L1233.87 72.576 L1233.87 65.6084 Q1231.15 69.7404 1227.55 71.7658 Q1223.98 73.7508 1219.24 73.7508 Q1211.42 73.7508 1207.37 68.8897 Q1203.32 64.0286 1203.32 54.671 M1222.08 26.1121 L1222.08 26.1121 Z" fill="#000000" fill-rule="nonzero" fill-opacity="1" /><path clip-path="url(#clip670)" d="M1264.05 14.324 L1264.05 27.2059 L1279.4 27.2059 L1279.4 32.9987 L1264.05 32.9987 L1264.05 57.6282 Q1264.05 63.1779 1265.54 64.7578 Q1267.08 66.3376 1271.74 66.3376 L1279.4 66.3376 L1279.4 72.576 L1271.74 72.576 Q1263.11 72.576 1259.83 69.3758 Q1256.55 66.1351 1256.55 57.6282 L1256.55 32.9987 L1251.08 32.9987 L1251.08 27.2059 L1256.55 27.2059 L1256.55 14.324 L1264.05 14.324 Z" fill="#000000" fill-rule="nonzero" fill-opacity="1" /><path clip-path="url(#clip670)" d="M1315.49 34.1734 Q1314.24 33.4443 1312.74 33.1202 Q1311.28 32.7556 1309.5 32.7556 Q1303.18 32.7556 1299.77 36.8875 Q1296.41 40.9789 1296.41 48.6757 L1296.41 72.576 L1288.92 72.576 L1288.92 27.2059 L1296.41 27.2059 L1296.41 34.2544 Q1298.76 30.1225 1302.53 28.1376 Q1306.3 26.1121 1311.68 26.1121 Q1312.45 26.1121 1313.39 26.2337 Q1314.32 26.3147 1315.45 26.5172 L1315.49 34.1734 Z" fill="#000000" fill-rule="nonzero" fill-opacity="1" /><path clip-path="url(#clip670)" d="M1339.07 32.4315 Q1333.07 32.4315 1329.59 37.1306 Q1326.11 41.7891 1326.11 49.9314 Q1326.11 58.0738 1329.55 62.7728 Q1333.03 67.4314 1339.07 67.4314 Q1345.02 67.4314 1348.51 62.7323 Q1351.99 58.0333 1351.99 49.9314 Q1351.99 41.8701 1348.51 37.1711 Q1345.02 32.4315 1339.07 32.4315 M1339.07 26.1121 Q1348.79 26.1121 1354.34 32.4315 Q1359.89 38.7509 1359.89 49.9314 Q1359.89 61.0714 1354.34 67.4314 Q1348.79 73.7508 1339.07 73.7508 Q1329.31 73.7508 1323.76 67.4314 Q1318.25 61.0714 1318.25 49.9314 Q1318.25 38.7509 1323.76 32.4315 Q1329.31 26.1121 1339.07 26.1121 Z" fill="#000000" fill-rule="nonzero" fill-opacity="1" /><path clip-path="url(#clip670)" d="M1409.96 45.1919 L1409.96 72.576 L1402.51 72.576 L1402.51 45.4349 Q1402.51 38.994 1399.99 35.7938 Q1397.48 32.5936 1392.46 32.5936 Q1386.42 32.5936 1382.94 36.4419 Q1379.46 40.2903 1379.46 46.9338 L1379.46 72.576 L1371.96 72.576 L1371.96 27.2059 L1379.46 27.2059 L1379.46 34.2544 Q1382.13 30.163 1385.73 28.1376 Q1389.38 26.1121 1394.12 26.1121 Q1401.94 26.1121 1405.95 30.9732 Q1409.96 35.7938 1409.96 45.1919 Z" fill="#000000" fill-rule="nonzero" fill-opacity="1" /><path clip-path="url(#clip670)" d="M1453.75 28.5427 L1453.75 35.5912 Q1450.59 33.9709 1447.19 33.1607 Q1443.78 32.3505 1440.14 32.3505 Q1434.59 32.3505 1431.79 34.0519 Q1429.04 35.7533 1429.04 39.156 Q1429.04 41.7486 1431.02 43.2475 Q1433.01 44.7058 1439 46.0426 L1441.56 46.6097 Q1449.5 48.3111 1452.82 51.4303 Q1456.18 54.509 1456.18 60.0587 Q1456.18 66.3781 1451.16 70.0644 Q1446.17 73.7508 1437.42 73.7508 Q1433.78 73.7508 1429.81 73.0216 Q1425.88 72.3329 1421.5 70.9151 L1421.5 63.2184 Q1425.64 65.3654 1429.65 66.4591 Q1433.66 67.5124 1437.59 67.5124 Q1442.85 67.5124 1445.69 65.73 Q1448.52 63.9071 1448.52 60.6258 Q1448.52 57.5877 1446.46 55.9673 Q1444.43 54.3469 1437.51 52.8481 L1434.91 52.2405 Q1427.99 50.7821 1424.91 47.7845 Q1421.83 44.7463 1421.83 39.4801 Q1421.83 33.0797 1426.37 29.5959 Q1430.9 26.1121 1439.25 26.1121 Q1443.38 26.1121 1447.02 26.7198 Q1450.67 27.3274 1453.75 28.5427 Z" fill="#000000" fill-rule="nonzero" fill-opacity="1" /><path clip-path="url(#clip670)" d="M1523.34 28.5427 L1523.34 35.5912 Q1520.18 33.9709 1516.78 33.1607 Q1513.38 32.3505 1509.73 32.3505 Q1504.18 32.3505 1501.39 34.0519 Q1498.63 35.7533 1498.63 39.156 Q1498.63 41.7486 1500.62 43.2475 Q1502.6 44.7058 1508.6 46.0426 L1511.15 46.6097 Q1519.09 48.3111 1522.41 51.4303 Q1525.77 54.509 1525.77 60.0587 Q1525.77 66.3781 1520.75 70.0644 Q1515.77 73.7508 1507.02 73.7508 Q1503.37 73.7508 1499.4 73.0216 Q1495.47 72.3329 1491.1 70.9151 L1491.1 63.2184 Q1495.23 65.3654 1499.24 66.4591 Q1503.25 67.5124 1507.18 67.5124 Q1512.45 67.5124 1515.28 65.73 Q1518.12 63.9071 1518.12 60.6258 Q1518.12 57.5877 1516.05 55.9673 Q1514.03 54.3469 1507.1 52.8481 L1504.51 52.2405 Q1497.58 50.7821 1494.5 47.7845 Q1491.42 44.7463 1491.42 39.4801 Q1491.42 33.0797 1495.96 29.5959 Q1500.5 26.1121 1508.84 26.1121 Q1512.97 26.1121 1516.62 26.7198 Q1520.27 27.3274 1523.34 28.5427 Z" fill="#000000" fill-rule="nonzero" fill-opacity="1" /><path clip-path="url(#clip670)" d="M1535.38 29.0288 L1568.07 29.0288 L1568.07 32.8771 L1535.38 32.8771 L1535.38 29.0288 Z" fill="#000000" fill-rule="nonzero" fill-opacity="1" /><path clip-path="url(#clip670)" d="M1579.94 41.06 L1588.2 41.06 L1588.2 16.3089 L1579.17 17.9698 L1579.17 13.2708 L1588.48 11.6909 L1594.03 11.6909 L1594.03 41.06 L1602.34 41.06 L1602.34 45.516 L1579.94 45.516 L1579.94 41.06 Z" fill="#000000" fill-rule="nonzero" fill-opacity="1" /><path clip-path="url(#clip670)" d="M1673.71 28.9478 L1673.71 35.9153 Q1670.55 34.1734 1667.35 33.3227 Q1664.19 32.4315 1660.95 32.4315 Q1653.7 32.4315 1649.69 37.0496 Q1645.68 41.6271 1645.68 49.9314 Q1645.68 58.2358 1649.69 62.8538 Q1653.7 67.4314 1660.95 67.4314 Q1664.19 67.4314 1667.35 66.5807 Q1670.55 65.6895 1673.71 63.9476 L1673.71 70.8341 Q1670.59 72.2924 1667.23 73.0216 Q1663.91 73.7508 1660.14 73.7508 Q1649.89 73.7508 1643.86 67.3098 Q1637.82 60.8689 1637.82 49.9314 Q1637.82 38.832 1643.9 32.472 Q1650.02 26.1121 1660.63 26.1121 Q1664.07 26.1121 1667.35 26.8413 Q1670.63 27.5299 1673.71 28.9478 Z" fill="#000000" fill-rule="nonzero" fill-opacity="1" /><path clip-path="url(#clip670)" d="M1722 35.9153 Q1724.8 30.8922 1728.68 28.5022 Q1732.57 26.1121 1737.84 26.1121 Q1744.93 26.1121 1748.78 31.0947 Q1752.63 36.0368 1752.63 45.1919 L1752.63 72.576 L1745.13 72.576 L1745.13 45.4349 Q1745.13 38.913 1742.82 35.7533 Q1740.51 32.5936 1735.77 32.5936 Q1729.98 32.5936 1726.62 36.4419 Q1723.26 40.2903 1723.26 46.9338 L1723.26 72.576 L1715.76 72.576 L1715.76 45.4349 Q1715.76 38.8725 1713.45 35.7533 Q1711.14 32.5936 1706.32 32.5936 Q1700.61 32.5936 1697.25 36.4824 Q1693.89 40.3308 1693.89 46.9338 L1693.89 72.576 L1686.39 72.576 L1686.39 27.2059 L1693.89 27.2059 L1693.89 34.2544 Q1696.44 30.082 1700 28.0971 Q1703.57 26.1121 1708.47 26.1121 Q1713.41 26.1121 1716.86 28.6237 Q1720.34 31.1352 1722 35.9153 Z" fill="#000000" fill-rule="nonzero" fill-opacity="1" /><path clip-path="url(#clip670)" d="M1765.22 29.0288 L1797.91 29.0288 L1797.91 32.8771 L1765.22 32.8771 L1765.22 29.0288 Z" fill="#000000" fill-rule="nonzero" fill-opacity="1" /><path clip-path="url(#clip670)" d="M1814.32 40.8979 L1831.5 40.8979 L1831.5 45.516 L1807.27 45.516 L1807.27 41.06 Q1808.65 39.8042 1811.2 37.5357 Q1825.14 25.1804 1825.14 21.3726 Q1825.14 18.699 1823.03 17.0786 Q1820.92 15.4177 1817.48 15.4177 Q1815.37 15.4177 1812.9 16.1469 Q1810.43 16.8356 1807.51 18.2534 L1807.51 13.2708 Q1810.63 12.1365 1813.31 11.5694 Q1816.02 11.0023 1818.33 11.0023 Q1824.2 11.0023 1827.73 13.6759 Q1831.25 16.3494 1831.25 20.7244 Q1831.25 26.3552 1817.84 37.8598 Q1815.58 39.8042 1814.32 40.8979 Z" fill="#000000" fill-rule="nonzero" fill-opacity="1" /><polyline clip-path="url(#clip672)" style="stroke:#000000; stroke-linecap:round; stroke-linejoin:round; stroke-width:4; stroke-opacity:1; fill:none" points="321.708,1386.4 321.708,1386.4 329.856,1386.4 329.856,1385.07 338.005,1385.07 338.005,1384.4 346.153,1384.4 346.153,1385.73 354.301,1385.73 354.301,1385.07 362.45,1385.07 362.45,1385.73 370.598,1385.73 370.598,1386.4 378.746,1386.4 378.746,1385.73 386.894,1385.73 386.894,1385.07 395.043,1385.07 395.043,1386.4 403.191,1386.4 403.191,1385.73 411.339,1385.73 411.339,1386.4 419.488,1386.4 419.488,1385.73 427.636,1385.73 435.784,1385.73 443.933,1385.73 443.933,1385.07 452.081,1385.07 452.081,1385.73 460.229,1385.73 460.229,1383.74 468.378,1383.74 476.526,1383.74 476.526,1385.07 484.674,1385.07 484.674,1384.4 492.822,1384.4 492.822,1382.41 500.971,1382.41 500.971,1385.73 509.119,1385.73 509.119,1383.74 517.267,1383.74 517.267,1385.73 525.416,1385.73 525.416,1385.07 533.564,1385.07 533.564,1382.41 541.712,1382.41 541.712,1385.07 549.861,1385.07 549.861,1386.4 558.009,1386.4 558.009,1385.73 566.157,1385.73 574.306,1385.73 574.306,1386.4 582.454,1386.4 582.454,1385.73 590.602,1385.73 590.602,1385.07 598.751,1385.07 606.899,1385.07 606.899,1385.73 615.047,1385.73 623.195,1385.73 623.195,1386.4 631.344,1386.4 639.492,1386.4 647.64,1386.4 647.64,1385.73 655.789,1385.73 663.937,1385.73 663.937,1386.4 672.085,1386.4 672.085,1385.07 680.234,1385.07 680.234,1385.73 688.382,1385.73 688.382,1385.07 696.53,1385.07 696.53,1385.73 704.679,1385.73 704.679,1385.07 712.827,1385.07 712.827,1386.4 720.975,1386.4 720.975,1385.73 729.123,1385.73 729.123,1382.41 737.272,1382.41 737.272,1385.07 745.42,1385.07 745.42,1385.73 753.568,1385.73 753.568,1385.07 761.717,1385.07 761.717,1386.4 769.865,1386.4 769.865,1385.73 778.013,1385.73 778.013,1386.4 786.162,1386.4 786.162,1385.73 794.31,1385.73 802.458,1385.73 802.458,1386.4 810.607,1386.4 810.607,1385.73 818.755,1385.73 818.755,1386.4 826.903,1386.4 826.903,1385.73 835.052,1385.73 835.052,1386.4 843.2,1386.4 843.2,1385.73 851.348,1385.73 859.496,1385.73 859.496,1386.4 867.645,1386.4 867.645,1385.07 875.793,1385.07 875.793,1385.73 883.941,1385.73 883.941,1385.07 892.09,1385.07 892.09,1385.73 900.238,1385.73 900.238,1386.4 908.386,1386.4 916.535,1386.4 924.683,1386.4 924.683,1385.73 932.831,1385.73 932.831,1386.4 940.98,1386.4 940.98,1385.73 949.128,1385.73 949.128,1385.07 957.276,1385.07 957.276,1386.4 965.425,1386.4 965.425,1385.73 973.573,1385.73 973.573,1386.4 981.721,1386.4 989.869,1386.4 998.018,1386.4 998.018,1385.73 1006.17,1385.73 1006.17,1386.4 1014.31,1386.4 1014.31,1385.73 1022.46,1385.73 1022.46,1386.4 1030.61,1386.4 1038.76,1386.4 1038.76,1385.73 1046.91,1385.73 1055.06,1385.73 1055.06,1386.4 1063.2,1386.4 1063.2,1385.73 1071.35,1385.73 1071.35,1386.4 1079.5,1386.4 1087.65,1386.4 1095.8,1386.4 1095.8,1385.73 1103.95,1385.73 1103.95,1386.4 1112.09,1386.4 1112.09,1385.73 1120.24,1385.73 1120.24,1386.4 1128.39,1386.4 1136.54,1386.4 1136.54,1385.07 1144.69,1385.07 1144.69,1386.4 1152.84,1386.4 1152.84,1385.73 1160.98,1385.73 1169.13,1385.73 1169.13,1386.4 1177.28,1386.4 1177.28,1385.07 1185.43,1385.07 1193.58,1385.07 1193.58,1386.4 1201.73,1386.4 1209.87,1386.4 1209.87,1385.73 1218.02,1385.73 1226.17,1385.73 1226.17,1386.4 1234.32,1386.4 1242.47,1386.4 1250.62,1386.4 1250.62,1385.73 1258.76,1385.73 1258.76,1386.4 1266.91,1386.4 1275.06,1386.4 1275.06,1385.73 1283.21,1385.73 1291.36,1385.73 1291.36,1386.4 1299.51,1386.4 1299.51,1385.73 1307.65,1385.73 1307.65,1386.4 1315.8,1386.4 1323.95,1386.4 1332.1,1386.4 1332.1,1385.73 1340.25,1385.73 1340.25,1385.07 1348.4,1385.07 1348.4,1385.73 1356.54,1385.73 1364.69,1385.73 1372.84,1385.73 1372.84,1386.4 1380.99,1386.4 1389.14,1386.4 1389.14,1385.73 1397.28,1385.73 1397.28,1386.4 1405.43,1386.4 1405.43,1385.07 1413.58,1385.07 1413.58,1385.73 1421.73,1385.73 1421.73,1386.4 1429.88,1386.4 1438.03,1386.4 1438.03,1385.73 1446.17,1385.73 1446.17,1386.4 1454.32,1386.4 1454.32,1385.73 1462.47,1385.73 1470.62,1385.73 1470.62,1386.4 1478.77,1386.4 1486.92,1386.4 1495.06,1386.4 1503.21,1386.4 1511.36,1386.4 1511.36,1385.73 1519.51,1385.73 1519.51,1386.4 1527.66,1386.4 1535.81,1386.4 1543.95,1386.4 1552.1,1386.4 1560.25,1386.4 1568.4,1386.4 1576.55,1386.4 1584.7,1386.4 1592.84,1386.4 1600.99,1386.4 1609.14,1386.4 1609.14,1385.73 1617.29,1385.73 1617.29,1386.4 1625.44,1386.4 1625.44,1385.07 1633.59,1385.07 1633.59,1386.4 1641.73,1386.4 1649.88,1386.4 1658.03,1386.4 1666.18,1386.4 1666.18,1385.73 1674.33,1385.73 1674.33,1386.4 1682.48,1386.4 1690.62,1386.4 1698.77,1386.4 1706.92,1386.4 1706.92,1385.73 1715.07,1385.73 1715.07,1386.4 1723.22,1386.4 1723.22,1385.73 1731.37,1385.73 1739.51,1385.73 1739.51,1386.4 1747.66,1386.4 1747.66,1385.73 1755.81,1385.73 1763.96,1385.73 1763.96,1386.4 1772.11,1386.4 1780.26,1386.4 1788.4,1386.4 1788.4,1385.73 1796.55,1385.73 1796.55,1386.4 1804.7,1386.4 1812.85,1386.4 1812.85,1385.07 1821,1385.07 1821,1385.73 1829.15,1385.73 1829.15,1385.07 1837.29,1385.07 1837.29,1386.4 1845.44,1386.4 1853.59,1386.4 1861.74,1386.4 1869.89,1386.4 1878.04,1386.4 1878.04,1385.73 1886.18,1385.73 1886.18,1386.4 1894.33,1386.4 1902.48,1386.4 1910.63,1386.4 1918.78,1386.4 1926.93,1386.4 1935.07,1386.4 1943.22,1386.4 1951.37,1386.4 1951.37,1385.73 1959.52,1385.73 1959.52,1386.4 1967.67,1386.4 1975.82,1386.4 1983.96,1386.4 1983.96,1385.73 1992.11,1385.73 1992.11,1386.4 2000.26,1386.4 2008.41,1386.4 2016.56,1386.4 2016.56,1385.73 2024.7,1385.73 2024.7,1386.4 2032.85,1386.4 2041,1386.4 2049.15,1386.4 2049.15,1385.73 2057.3,1385.73 2057.3,1386.4 2065.45,1386.4 2073.59,1386.4 2081.74,1386.4 2081.74,1385.73 2089.89,1385.73 2089.89,1386.4 2098.04,1386.4 2106.19,1386.4 2114.34,1386.4 2122.48,1386.4 2130.63,1386.4 2130.63,1385.73 2138.78,1385.73 2138.78,1385.07 2146.93,1385.07 2146.93,1386.4 2155.08,1386.4 2163.23,1386.4 2171.37,1386.4 2179.52,1386.4 2179.52,1385.73 2187.67,1385.73 2187.67,1386.4 2195.82,1386.4 2195.82,1385.07 2203.97,1385.07 2203.97,1386.4 2212.12,1386.4 2212.12,1385.73 2220.26,1385.73 2220.26,1386.4 2228.41,1386.4 2236.56,1386.4 2244.71,1386.4 2252.86,1386.4 2252.86,1385.73 2261.01,1385.73 2261.01,1386.4 2269.15,1386.4 2277.3,1386.4 2285.45,1386.4 2293.6,1386.4 "/>
<polyline clip-path="url(#clip672)" style="stroke:#ff0000; stroke-linecap:round; stroke-linejoin:round; stroke-width:4; stroke-opacity:1; fill:none" points="321.708,1386.4 321.708,1386.4 329.856,1386.4 329.856,194.795 338.005,194.795 338.005,160.256 346.153,160.256 346.153,471.109 354.301,471.109 354.301,695.613 362.45,695.613 362.45,817.828 370.598,817.828 370.598,917.46 378.746,917.46 378.746,973.254 386.894,973.254 386.894,1020.41 395.043,1020.41 395.043,1060.27 403.191,1060.27 403.191,1101.45 411.339,1101.45 411.339,1109.42 419.488,1109.42 419.488,1101.45 427.636,1101.45 427.636,1140.64 435.784,1140.64 435.784,1168.53 443.933,1168.53 443.933,1176.5 452.081,1176.5 452.081,1204.4 460.229,1204.4 460.229,1208.39 468.378,1208.39 468.378,1207.72 476.526,1207.72 476.526,1209.71 484.674,1209.71 484.674,1236.28 492.822,1236.28 492.822,1245.58 500.971,1245.58 500.971,1264.18 509.119,1264.18 509.119,1275.47 517.267,1275.47 517.267,1266.84 525.416,1266.84 525.416,1316.65 533.564,1316.65 533.564,1338.57 541.712,1338.57 541.712,1348.54 549.861,1348.54 549.861,1353.85 558.009,1353.85 558.009,1363.15 566.157,1363.15 566.157,1371.12 574.306,1371.12 574.306,1367.13 582.454,1367.13 582.454,1371.78 590.602,1371.78 590.602,1373.78 598.751,1373.78 598.751,1376.43 606.899,1376.43 606.899,1375.1 615.047,1375.1 615.047,1373.11 623.195,1373.11 623.195,1381.75 631.344,1381.75 631.344,1376.43 639.492,1376.43 639.492,1377.76 647.64,1377.76 647.64,1380.42 655.789,1380.42 655.789,1378.43 663.937,1378.43 663.937,1381.75 672.085,1381.75 672.085,1381.08 680.234,1381.08 680.234,1381.75 688.382,1381.75 688.382,1381.08 696.53,1381.08 696.53,1380.42 704.679,1380.42 704.679,1381.75 712.827,1381.75 712.827,1384.4 720.975,1384.4 720.975,1382.41 729.123,1382.41 729.123,1385.73 737.272,1385.73 737.272,1382.41 745.42,1382.41 745.42,1381.08 753.568,1381.08 753.568,1383.74 761.717,1383.74 761.717,1381.08 769.865,1381.08 769.865,1383.74 778.013,1383.74 778.013,1385.07 786.162,1385.07 786.162,1384.4 794.31,1384.4 794.31,1383.74 802.458,1383.74 802.458,1383.07 810.607,1383.07 810.607,1385.73 818.755,1385.73 818.755,1384.4 826.903,1384.4 826.903,1383.74 835.052,1383.74 835.052,1383.07 843.2,1383.07 851.348,1383.07 851.348,1386.4 859.496,1386.4 859.496,1384.4 867.645,1384.4 867.645,1383.74 875.793,1383.74 875.793,1385.07 883.941,1385.07 883.941,1381.75 892.09,1381.75 892.09,1385.73 900.238,1385.73 900.238,1381.08 908.386,1381.08 908.386,1385.07 916.535,1385.07 916.535,1383.74 924.683,1383.74 924.683,1384.4 932.831,1384.4 932.831,1383.74 940.98,1383.74 940.98,1384.4 949.128,1384.4 957.276,1384.4 957.276,1385.73 965.425,1385.73 973.573,1385.73 981.721,1385.73 989.869,1385.73 989.869,1384.4 998.018,1384.4 998.018,1385.73 1006.17,1385.73 1014.31,1385.73 1022.46,1385.73 1022.46,1385.07 1030.61,1385.07 1030.61,1385.73 1038.76,1385.73 1038.76,1386.4 1046.91,1386.4 1046.91,1384.4 1055.06,1384.4 1055.06,1385.07 1063.2,1385.07 1071.35,1385.07 1079.5,1385.07 1087.65,1385.07 1087.65,1386.4 1095.8,1386.4 1103.95,1386.4 1103.95,1385.73 1112.09,1385.73 1112.09,1385.07 1120.24,1385.07 1120.24,1385.73 1128.39,1385.73 1128.39,1385.07 1136.54,1385.07 1136.54,1386.4 1144.69,1386.4 1144.69,1385.73 1152.84,1385.73 1160.98,1385.73 1160.98,1386.4 1169.13,1386.4 1169.13,1385.73 1177.28,1385.73 1185.43,1385.73 1185.43,1386.4 1193.58,1386.4 1193.58,1385.73 1201.73,1385.73 1209.87,1385.73 1209.87,1385.07 1218.02,1385.07 1218.02,1385.73 1226.17,1385.73 1226.17,1385.07 1234.32,1385.07 1242.47,1385.07 1242.47,1386.4 1250.62,1386.4 1250.62,1385.73 1258.76,1385.73 1258.76,1386.4 1266.91,1386.4 1275.06,1386.4 1283.21,1386.4 1291.36,1386.4 1291.36,1385.73 1299.51,1385.73 1299.51,1386.4 1307.65,1386.4 1315.8,1386.4 1323.95,1386.4 1323.95,1385.73 1332.1,1385.73 1340.25,1385.73 1348.4,1385.73 1348.4,1386.4 1356.54,1386.4 1356.54,1385.73 1364.69,1385.73 1364.69,1386.4 1372.84,1386.4 1372.84,1385.73 1380.99,1385.73 1380.99,1385.07 1389.14,1385.07 1397.28,1385.07 1397.28,1386.4 1405.43,1386.4 1405.43,1385.73 1413.58,1385.73 1421.73,1385.73 1429.88,1385.73 1438.03,1385.73 1446.17,1385.73 1446.17,1386.4 1454.32,1386.4 1462.47,1386.4 1462.47,1385.73 1470.62,1385.73 1478.77,1385.73 1486.92,1385.73 1495.06,1385.73 1503.21,1385.73 1503.21,1386.4 1511.36,1386.4 1511.36,1385.07 1519.51,1385.07 1519.51,1386.4 1527.66,1386.4 1527.66,1385.73 1535.81,1385.73 1535.81,1386.4 1543.95,1386.4 1552.1,1386.4 1560.25,1386.4 1568.4,1386.4 1568.4,1385.07 1576.55,1385.07 1576.55,1386.4 1584.7,1386.4 1584.7,1385.73 1592.84,1385.73 1600.99,1385.73 1609.14,1385.73 1617.29,1385.73 1617.29,1386.4 1625.44,1386.4 1633.59,1386.4 1633.59,1385.73 1641.73,1385.73 1641.73,1386.4 1649.88,1386.4 1649.88,1385.07 1658.03,1385.07 1658.03,1386.4 1666.18,1386.4 1674.33,1386.4 1682.48,1386.4 1690.62,1386.4 1698.77,1386.4 1698.77,1385.73 1706.92,1385.73 1706.92,1386.4 1715.07,1386.4 1723.22,1386.4 1731.37,1386.4 1739.51,1386.4 1747.66,1386.4 1755.81,1386.4 1763.96,1386.4 1763.96,1385.73 1772.11,1385.73 1772.11,1386.4 1780.26,1386.4 1788.4,1386.4 1788.4,1385.73 1796.55,1385.73 1796.55,1386.4 1804.7,1386.4 1804.7,1385.73 1812.85,1385.73 1821,1385.73 1821,1386.4 1829.15,1386.4 1837.29,1386.4 1845.44,1386.4 1845.44,1385.73 1853.59,1385.73 1853.59,1386.4 1861.74,1386.4 1861.74,1385.07 1869.89,1385.07 1869.89,1385.73 1878.04,1385.73 1878.04,1386.4 1886.18,1386.4 1894.33,1386.4 1902.48,1386.4 1910.63,1386.4 1918.78,1386.4 1926.93,1386.4 1926.93,1385.73 1935.07,1385.73 1943.22,1385.73 1943.22,1386.4 1951.37,1386.4 1959.52,1386.4 1967.67,1386.4 1975.82,1386.4 1975.82,1385.73 1983.96,1385.73 1992.11,1385.73 1992.11,1386.4 2000.26,1386.4 2008.41,1386.4 2016.56,1386.4 2024.7,1386.4 2032.85,1386.4 2041,1386.4 2049.15,1386.4 2057.3,1386.4 2065.45,1386.4 2073.59,1386.4 2081.74,1386.4 2089.89,1386.4 2098.04,1386.4 2106.19,1386.4 2114.34,1386.4 2122.48,1386.4 2130.63,1386.4 2130.63,1385.73 2138.78,1385.73 2138.78,1386.4 2146.93,1386.4 2155.08,1386.4 2163.23,1386.4 2171.37,1386.4 2171.37,1385.73 2179.52,1385.73 2179.52,1386.4 2187.67,1386.4 2195.82,1386.4 2203.97,1386.4 2212.12,1386.4 2212.12,1385.73 2220.26,1385.73 2220.26,1386.4 2228.41,1386.4 2236.56,1386.4 2244.71,1386.4 2252.86,1386.4 2261.01,1386.4 2269.15,1386.4 2277.3,1386.4 2277.3,1385.73 2285.45,1385.73 2285.45,1386.4 2293.6,1386.4 "/>
<path clip-path="url(#clip670)" d="M1659.34 322.316 L2283.08 322.316 L2283.08 166.796 L1659.34 166.796  Z" fill="#ffffff" fill-rule="evenodd" fill-opacity="1"/>
<polyline clip-path="url(#clip670)" style="stroke:#000000; stroke-linecap:round; stroke-linejoin:round; stroke-width:4; stroke-opacity:1; fill:none" points="1659.34,322.316 2283.08,322.316 2283.08,166.796 1659.34,166.796 1659.34,322.316 "/>
<polyline clip-path="url(#clip670)" style="stroke:#000000; stroke-linecap:round; stroke-linejoin:round; stroke-width:4; stroke-opacity:1; fill:none" points="1682.57,218.636 1821.91,218.636 "/>
<path clip-path="url(#clip670)" d="M1873.01 204.018 L1873.01 208.948 Q1870.65 206.749 1867.96 205.661 Q1865.3 204.573 1862.29 204.573 Q1856.36 204.573 1853.22 208.208 Q1850.07 211.819 1850.07 218.67 Q1850.07 225.499 1853.22 229.133 Q1856.36 232.744 1862.29 232.744 Q1865.3 232.744 1867.96 231.656 Q1870.65 230.569 1873.01 228.369 L1873.01 233.254 Q1870.55 234.92 1867.8 235.754 Q1865.07 236.587 1862.01 236.587 Q1854.17 236.587 1849.65 231.795 Q1845.14 226.981 1845.14 218.67 Q1845.14 210.337 1849.65 205.546 Q1854.17 200.731 1862.01 200.731 Q1865.11 200.731 1867.85 201.564 Q1870.6 202.374 1873.01 204.018 Z" fill="#000000" fill-rule="nonzero" fill-opacity="1" /><path clip-path="url(#clip670)" d="M1890.09 212.976 Q1886.67 212.976 1884.67 215.661 Q1882.68 218.323 1882.68 222.976 Q1882.68 227.629 1884.65 230.314 Q1886.64 232.976 1890.09 232.976 Q1893.49 232.976 1895.48 230.291 Q1897.48 227.606 1897.48 222.976 Q1897.48 218.37 1895.48 215.684 Q1893.49 212.976 1890.09 212.976 M1890.09 209.365 Q1895.65 209.365 1898.82 212.976 Q1901.99 216.587 1901.99 222.976 Q1901.99 229.342 1898.82 232.976 Q1895.65 236.587 1890.09 236.587 Q1884.51 236.587 1881.34 232.976 Q1878.19 229.342 1878.19 222.976 Q1878.19 216.587 1881.34 212.976 Q1884.51 209.365 1890.09 209.365 Z" fill="#000000" fill-rule="nonzero" fill-opacity="1" /><path clip-path="url(#clip670)" d="M1924.07 213.971 Q1923.36 213.555 1922.5 213.37 Q1921.67 213.161 1920.65 213.161 Q1917.04 213.161 1915.09 215.522 Q1913.17 217.86 1913.17 222.258 L1913.17 235.916 L1908.89 235.916 L1908.89 209.99 L1913.17 209.99 L1913.17 214.018 Q1914.51 211.657 1916.67 210.522 Q1918.82 209.365 1921.9 209.365 Q1922.34 209.365 1922.87 209.434 Q1923.4 209.481 1924.05 209.596 L1924.07 213.971 Z" fill="#000000" fill-rule="nonzero" fill-opacity="1" /><path clip-path="url(#clip670)" d="M1942.73 213.971 Q1942.01 213.555 1941.16 213.37 Q1940.32 213.161 1939.3 213.161 Q1935.69 213.161 1933.75 215.522 Q1931.83 217.86 1931.83 222.258 L1931.83 235.916 L1927.54 235.916 L1927.54 209.99 L1931.83 209.99 L1931.83 214.018 Q1933.17 211.657 1935.32 210.522 Q1937.48 209.365 1940.55 209.365 Q1940.99 209.365 1941.53 209.434 Q1942.06 209.481 1942.71 209.596 L1942.73 213.971 Z" fill="#000000" fill-rule="nonzero" fill-opacity="1" /><path clip-path="url(#clip670)" d="M1968.33 221.888 L1968.33 223.971 L1948.75 223.971 Q1949.03 228.369 1951.39 230.684 Q1953.77 232.976 1958.01 232.976 Q1960.46 232.976 1962.75 232.374 Q1965.07 231.772 1967.34 230.569 L1967.34 234.596 Q1965.04 235.568 1962.64 236.078 Q1960.23 236.587 1957.75 236.587 Q1951.55 236.587 1947.92 232.976 Q1944.3 229.365 1944.3 223.207 Q1944.3 216.842 1947.73 213.115 Q1951.18 209.365 1957.01 209.365 Q1962.24 209.365 1965.28 212.745 Q1968.33 216.101 1968.33 221.888 M1964.07 220.638 Q1964.03 217.143 1962.1 215.059 Q1960.21 212.976 1957.06 212.976 Q1953.49 212.976 1951.34 214.99 Q1949.21 217.004 1948.89 220.661 L1964.07 220.638 Z" fill="#000000" fill-rule="nonzero" fill-opacity="1" /><path clip-path="url(#clip670)" d="M1993.98 210.985 L1993.98 214.967 Q1992.17 213.971 1990.35 213.485 Q1988.54 212.976 1986.69 212.976 Q1982.54 212.976 1980.25 215.615 Q1977.96 218.231 1977.96 222.976 Q1977.96 227.721 1980.25 230.36 Q1982.54 232.976 1986.69 232.976 Q1988.54 232.976 1990.35 232.49 Q1992.17 231.981 1993.98 230.985 L1993.98 234.92 Q1992.2 235.754 1990.28 236.17 Q1988.38 236.587 1986.23 236.587 Q1980.37 236.587 1976.92 232.906 Q1973.47 229.226 1973.47 222.976 Q1973.47 216.633 1976.94 212.999 Q1980.44 209.365 1986.5 209.365 Q1988.47 209.365 1990.35 209.782 Q1992.22 210.175 1993.98 210.985 Z" fill="#000000" fill-rule="nonzero" fill-opacity="1" /><path clip-path="url(#clip670)" d="M2005.6 202.629 L2005.6 209.99 L2014.37 209.99 L2014.37 213.3 L2005.6 213.3 L2005.6 227.374 Q2005.6 230.545 2006.46 231.448 Q2007.34 232.351 2010 232.351 L2014.37 232.351 L2014.37 235.916 L2010 235.916 Q2005.07 235.916 2003.19 234.087 Q2001.32 232.235 2001.32 227.374 L2001.32 213.3 L1998.19 213.3 L1998.19 209.99 L2001.32 209.99 L2001.32 202.629 L2005.6 202.629 Z" fill="#000000" fill-rule="nonzero" fill-opacity="1" /><path clip-path="url(#clip670)" d="M2057.22 221.888 L2057.22 223.971 L2037.64 223.971 Q2037.91 228.369 2040.28 230.684 Q2042.66 232.976 2046.9 232.976 Q2049.35 232.976 2051.64 232.374 Q2053.96 231.772 2056.22 230.569 L2056.22 234.596 Q2053.93 235.568 2051.53 236.078 Q2049.12 236.587 2046.64 236.587 Q2040.44 236.587 2036.8 232.976 Q2033.19 229.365 2033.19 223.207 Q2033.19 216.842 2036.62 213.115 Q2040.07 209.365 2045.9 209.365 Q2051.13 209.365 2054.16 212.745 Q2057.22 216.101 2057.22 221.888 M2052.96 220.638 Q2052.91 217.143 2050.99 215.059 Q2049.1 212.976 2045.95 212.976 Q2042.38 212.976 2040.23 214.99 Q2038.1 217.004 2037.78 220.661 L2052.96 220.638 Z" fill="#000000" fill-rule="nonzero" fill-opacity="1" /><path clip-path="url(#clip670)" d="M2061.16 209.99 L2065.67 209.99 L2073.77 231.749 L2081.87 209.99 L2086.39 209.99 L2076.66 235.916 L2070.88 235.916 L2061.16 209.99 Z" fill="#000000" fill-rule="nonzero" fill-opacity="1" /><path clip-path="url(#clip670)" d="M2114.44 221.888 L2114.44 223.971 L2094.86 223.971 Q2095.14 228.369 2097.5 230.684 Q2099.88 232.976 2104.12 232.976 Q2106.57 232.976 2108.86 232.374 Q2111.18 231.772 2113.45 230.569 L2113.45 234.596 Q2111.16 235.568 2108.75 236.078 Q2106.34 236.587 2103.86 236.587 Q2097.66 236.587 2094.03 232.976 Q2090.41 229.365 2090.41 223.207 Q2090.41 216.842 2093.84 213.115 Q2097.29 209.365 2103.12 209.365 Q2108.35 209.365 2111.39 212.745 Q2114.44 216.101 2114.44 221.888 M2110.18 220.638 Q2110.14 217.143 2108.22 215.059 Q2106.32 212.976 2103.17 212.976 Q2099.6 212.976 2097.45 214.99 Q2095.32 217.004 2095 220.661 L2110.18 220.638 Z" fill="#000000" fill-rule="nonzero" fill-opacity="1" /><path clip-path="url(#clip670)" d="M2142.98 220.268 L2142.98 235.916 L2138.72 235.916 L2138.72 220.407 Q2138.72 216.726 2137.29 214.897 Q2135.85 213.069 2132.98 213.069 Q2129.53 213.069 2127.54 215.268 Q2125.55 217.467 2125.55 221.263 L2125.55 235.916 L2121.27 235.916 L2121.27 209.99 L2125.55 209.99 L2125.55 214.018 Q2127.08 211.68 2129.14 210.522 Q2131.22 209.365 2133.93 209.365 Q2138.4 209.365 2140.69 212.143 Q2142.98 214.897 2142.98 220.268 Z" fill="#000000" fill-rule="nonzero" fill-opacity="1" /><path clip-path="url(#clip670)" d="M2155.69 202.629 L2155.69 209.99 L2164.46 209.99 L2164.46 213.3 L2155.69 213.3 L2155.69 227.374 Q2155.69 230.545 2156.55 231.448 Q2157.43 232.351 2160.09 232.351 L2164.46 232.351 L2164.46 235.916 L2160.09 235.916 Q2155.16 235.916 2153.28 234.087 Q2151.41 232.235 2151.41 227.374 L2151.41 213.3 L2148.28 213.3 L2148.28 209.99 L2151.41 209.99 L2151.41 202.629 L2155.69 202.629 Z" fill="#000000" fill-rule="nonzero" fill-opacity="1" /><path clip-path="url(#clip670)" d="M2186.59 210.754 L2186.59 214.782 Q2184.79 213.856 2182.84 213.393 Q2180.9 212.93 2178.82 212.93 Q2175.65 212.93 2174.05 213.902 Q2172.47 214.874 2172.47 216.819 Q2172.47 218.3 2173.61 219.157 Q2174.74 219.99 2178.17 220.754 L2179.63 221.078 Q2184.16 222.05 2186.06 223.832 Q2187.98 225.592 2187.98 228.763 Q2187.98 232.374 2185.11 234.481 Q2182.27 236.587 2177.27 236.587 Q2175.18 236.587 2172.91 236.17 Q2170.67 235.777 2168.17 234.967 L2168.17 230.569 Q2170.53 231.795 2172.82 232.42 Q2175.11 233.022 2177.36 233.022 Q2180.37 233.022 2181.99 232.004 Q2183.61 230.962 2183.61 229.087 Q2183.61 227.351 2182.43 226.425 Q2181.27 225.499 2177.31 224.643 L2175.83 224.295 Q2171.87 223.462 2170.11 221.749 Q2168.35 220.013 2168.35 217.004 Q2168.35 213.346 2170.95 211.356 Q2173.54 209.365 2178.31 209.365 Q2180.67 209.365 2182.75 209.712 Q2184.84 210.059 2186.59 210.754 Z" fill="#000000" fill-rule="nonzero" fill-opacity="1" /><polyline clip-path="url(#clip670)" style="stroke:#ff0000; stroke-linecap:round; stroke-linejoin:round; stroke-width:4; stroke-opacity:1; fill:none" points="1682.57,270.476 1821.91,270.476 "/>
<path clip-path="url(#clip670)" d="M1867.38 254.33 L1867.38 258.89 Q1864.72 257.617 1862.36 256.992 Q1860 256.367 1857.8 256.367 Q1853.98 256.367 1851.9 257.848 Q1849.84 259.33 1849.84 262.061 Q1849.84 264.353 1851.2 265.534 Q1852.59 266.691 1856.43 267.409 L1859.26 267.987 Q1864.49 268.983 1866.97 271.506 Q1869.47 274.006 1869.47 278.219 Q1869.47 283.242 1866.09 285.834 Q1862.73 288.427 1856.23 288.427 Q1853.77 288.427 1850.99 287.871 Q1848.24 287.316 1845.28 286.228 L1845.28 281.413 Q1848.12 283.01 1850.86 283.821 Q1853.59 284.631 1856.23 284.631 Q1860.23 284.631 1862.41 283.057 Q1864.58 281.483 1864.58 278.566 Q1864.58 276.02 1863.01 274.584 Q1861.46 273.149 1857.89 272.432 L1855.05 271.876 Q1849.81 270.835 1847.48 268.612 Q1845.14 266.39 1845.14 262.432 Q1845.14 257.848 1848.36 255.21 Q1851.6 252.571 1857.27 252.571 Q1859.7 252.571 1862.22 253.011 Q1864.74 253.45 1867.38 254.33 Z" fill="#000000" fill-rule="nonzero" fill-opacity="1" /><path clip-path="url(#clip670)" d="M1880.79 254.469 L1880.79 261.83 L1889.56 261.83 L1889.56 265.14 L1880.79 265.14 L1880.79 279.214 Q1880.79 282.385 1881.64 283.288 Q1882.52 284.191 1885.18 284.191 L1889.56 284.191 L1889.56 287.756 L1885.18 287.756 Q1880.25 287.756 1878.38 285.927 Q1876.5 284.075 1876.5 279.214 L1876.5 265.14 L1873.38 265.14 L1873.38 261.83 L1876.5 261.83 L1876.5 254.469 L1880.79 254.469 Z" fill="#000000" fill-rule="nonzero" fill-opacity="1" /><path clip-path="url(#clip670)" d="M1905.21 264.816 Q1901.78 264.816 1899.79 267.501 Q1897.8 270.163 1897.8 274.816 Q1897.8 279.469 1899.77 282.154 Q1901.76 284.816 1905.21 284.816 Q1908.61 284.816 1910.6 282.131 Q1912.59 279.446 1912.59 274.816 Q1912.59 270.21 1910.6 267.524 Q1908.61 264.816 1905.21 264.816 M1905.21 261.205 Q1910.76 261.205 1913.93 264.816 Q1917.11 268.427 1917.11 274.816 Q1917.11 281.182 1913.93 284.816 Q1910.76 288.427 1905.21 288.427 Q1899.63 288.427 1896.46 284.816 Q1893.31 281.182 1893.31 274.816 Q1893.31 268.427 1896.46 264.816 Q1899.63 261.205 1905.21 261.205 Z" fill="#000000" fill-rule="nonzero" fill-opacity="1" /><path clip-path="url(#clip670)" d="M1942.82 262.825 L1942.82 266.807 Q1941.02 265.811 1939.19 265.325 Q1937.38 264.816 1935.53 264.816 Q1931.39 264.816 1929.1 267.455 Q1926.8 270.071 1926.8 274.816 Q1926.8 279.561 1929.1 282.2 Q1931.39 284.816 1935.53 284.816 Q1937.38 284.816 1939.19 284.33 Q1941.02 283.821 1942.82 282.825 L1942.82 286.76 Q1941.04 287.594 1939.12 288.01 Q1937.22 288.427 1935.07 288.427 Q1929.21 288.427 1925.76 284.746 Q1922.31 281.066 1922.31 274.816 Q1922.31 268.473 1925.79 264.839 Q1929.28 261.205 1935.35 261.205 Q1937.31 261.205 1939.19 261.622 Q1941.06 262.015 1942.82 262.825 Z" fill="#000000" fill-rule="nonzero" fill-opacity="1" /><path clip-path="url(#clip670)" d="M1971.78 272.108 L1971.78 287.756 L1967.52 287.756 L1967.52 272.247 Q1967.52 268.566 1966.09 266.737 Q1964.65 264.909 1961.78 264.909 Q1958.33 264.909 1956.34 267.108 Q1954.35 269.307 1954.35 273.103 L1954.35 287.756 L1950.07 287.756 L1950.07 251.737 L1954.35 251.737 L1954.35 265.858 Q1955.88 263.52 1957.94 262.362 Q1960.02 261.205 1962.73 261.205 Q1967.2 261.205 1969.49 263.983 Q1971.78 266.737 1971.78 272.108 Z" fill="#000000" fill-rule="nonzero" fill-opacity="1" /><path clip-path="url(#clip670)" d="M1992.06 274.723 Q1986.9 274.723 1984.91 275.904 Q1982.91 277.084 1982.91 279.932 Q1982.91 282.2 1984.4 283.543 Q1985.9 284.862 1988.47 284.862 Q1992.01 284.862 1994.14 282.362 Q1996.29 279.839 1996.29 275.672 L1996.29 274.723 L1992.06 274.723 M2000.55 272.964 L2000.55 287.756 L1996.29 287.756 L1996.29 283.821 Q1994.84 286.182 1992.66 287.316 Q1990.48 288.427 1987.34 288.427 Q1983.35 288.427 1980.99 286.205 Q1978.66 283.959 1978.66 280.209 Q1978.66 275.834 1981.57 273.612 Q1984.51 271.39 1990.32 271.39 L1996.29 271.39 L1996.29 270.973 Q1996.29 268.034 1994.35 266.436 Q1992.43 264.816 1988.93 264.816 Q1986.71 264.816 1984.6 265.348 Q1982.5 265.881 1980.55 266.946 L1980.55 263.01 Q1982.89 262.108 1985.09 261.668 Q1987.29 261.205 1989.37 261.205 Q1995 261.205 1997.78 264.122 Q2000.55 267.038 2000.55 272.964 Z" fill="#000000" fill-rule="nonzero" fill-opacity="1" /><path clip-path="url(#clip670)" d="M2025.85 262.594 L2025.85 266.622 Q2024.05 265.696 2022.1 265.233 Q2020.16 264.77 2018.08 264.77 Q2014.91 264.77 2013.31 265.742 Q2011.73 266.714 2011.73 268.659 Q2011.73 270.14 2012.87 270.997 Q2014 271.83 2017.43 272.594 L2018.89 272.918 Q2023.42 273.89 2025.32 275.672 Q2027.24 277.432 2027.24 280.603 Q2027.24 284.214 2024.37 286.321 Q2021.53 288.427 2016.53 288.427 Q2014.44 288.427 2012.17 288.01 Q2009.93 287.617 2007.43 286.807 L2007.43 282.409 Q2009.79 283.635 2012.08 284.26 Q2014.37 284.862 2016.62 284.862 Q2019.63 284.862 2021.25 283.844 Q2022.87 282.802 2022.87 280.927 Q2022.87 279.191 2021.69 278.265 Q2020.53 277.339 2016.57 276.483 L2015.09 276.135 Q2011.13 275.302 2009.37 273.589 Q2007.61 271.853 2007.61 268.844 Q2007.61 265.186 2010.21 263.196 Q2012.8 261.205 2017.57 261.205 Q2019.93 261.205 2022.01 261.552 Q2024.1 261.899 2025.85 262.594 Z" fill="#000000" fill-rule="nonzero" fill-opacity="1" /><path clip-path="url(#clip670)" d="M2038.24 254.469 L2038.24 261.83 L2047.01 261.83 L2047.01 265.14 L2038.24 265.14 L2038.24 279.214 Q2038.24 282.385 2039.1 283.288 Q2039.97 284.191 2042.64 284.191 L2047.01 284.191 L2047.01 287.756 L2042.64 287.756 Q2037.71 287.756 2035.83 285.927 Q2033.96 284.075 2033.96 279.214 L2033.96 265.14 L2030.83 265.14 L2030.83 261.83 L2033.96 261.83 L2033.96 254.469 L2038.24 254.469 Z" fill="#000000" fill-rule="nonzero" fill-opacity="1" /><path clip-path="url(#clip670)" d="M2052.61 261.83 L2056.87 261.83 L2056.87 287.756 L2052.61 287.756 L2052.61 261.83 M2052.61 251.737 L2056.87 251.737 L2056.87 257.131 L2052.61 257.131 L2052.61 251.737 Z" fill="#000000" fill-rule="nonzero" fill-opacity="1" /><path clip-path="url(#clip670)" d="M2084.44 262.825 L2084.44 266.807 Q2082.64 265.811 2080.81 265.325 Q2079 264.816 2077.15 264.816 Q2073.01 264.816 2070.72 267.455 Q2068.42 270.071 2068.42 274.816 Q2068.42 279.561 2070.72 282.2 Q2073.01 284.816 2077.15 284.816 Q2079 284.816 2080.81 284.33 Q2082.64 283.821 2084.44 282.825 L2084.44 286.76 Q2082.66 287.594 2080.74 288.01 Q2078.84 288.427 2076.69 288.427 Q2070.83 288.427 2067.38 284.746 Q2063.93 281.066 2063.93 274.816 Q2063.93 268.473 2067.41 264.839 Q2070.9 261.205 2076.97 261.205 Q2078.93 261.205 2080.81 261.622 Q2082.68 262.015 2084.44 262.825 Z" fill="#000000" fill-rule="nonzero" fill-opacity="1" /><path clip-path="url(#clip670)" d="M2129.09 273.728 L2129.09 275.811 L2109.51 275.811 Q2109.79 280.209 2112.15 282.524 Q2114.53 284.816 2118.77 284.816 Q2121.22 284.816 2123.52 284.214 Q2125.83 283.612 2128.1 282.409 L2128.1 286.436 Q2125.81 287.408 2123.4 287.918 Q2120.99 288.427 2118.52 288.427 Q2112.31 288.427 2108.68 284.816 Q2105.07 281.205 2105.07 275.047 Q2105.07 268.682 2108.49 264.955 Q2111.94 261.205 2117.78 261.205 Q2123.01 261.205 2126.04 264.585 Q2129.09 267.941 2129.09 273.728 M2124.84 272.478 Q2124.79 268.983 2122.87 266.899 Q2120.97 264.816 2117.82 264.816 Q2114.26 264.816 2112.1 266.83 Q2109.97 268.844 2109.65 272.501 L2124.84 272.478 Z" fill="#000000" fill-rule="nonzero" fill-opacity="1" /><path clip-path="url(#clip670)" d="M2133.03 261.83 L2137.54 261.83 L2145.65 283.589 L2153.75 261.83 L2158.26 261.83 L2148.54 287.756 L2142.75 287.756 L2133.03 261.83 Z" fill="#000000" fill-rule="nonzero" fill-opacity="1" /><path clip-path="url(#clip670)" d="M2186.32 273.728 L2186.32 275.811 L2166.73 275.811 Q2167.01 280.209 2169.37 282.524 Q2171.76 284.816 2175.99 284.816 Q2178.45 284.816 2180.74 284.214 Q2183.05 283.612 2185.32 282.409 L2185.32 286.436 Q2183.03 287.408 2180.62 287.918 Q2178.21 288.427 2175.74 288.427 Q2169.53 288.427 2165.9 284.816 Q2162.29 281.205 2162.29 275.047 Q2162.29 268.682 2165.71 264.955 Q2169.16 261.205 2175 261.205 Q2180.23 261.205 2183.26 264.585 Q2186.32 267.941 2186.32 273.728 M2182.06 272.478 Q2182.01 268.983 2180.09 266.899 Q2178.19 264.816 2175.04 264.816 Q2171.48 264.816 2169.33 266.83 Q2167.2 268.844 2166.87 272.501 L2182.06 272.478 Z" fill="#000000" fill-rule="nonzero" fill-opacity="1" /><path clip-path="url(#clip670)" d="M2214.86 272.108 L2214.86 287.756 L2210.6 287.756 L2210.6 272.247 Q2210.6 268.566 2209.16 266.737 Q2207.73 264.909 2204.86 264.909 Q2201.41 264.909 2199.42 267.108 Q2197.43 269.307 2197.43 273.103 L2197.43 287.756 L2193.15 287.756 L2193.15 261.83 L2197.43 261.83 L2197.43 265.858 Q2198.96 263.52 2201.02 262.362 Q2203.1 261.205 2205.81 261.205 Q2210.27 261.205 2212.57 263.983 Q2214.86 266.737 2214.86 272.108 Z" fill="#000000" fill-rule="nonzero" fill-opacity="1" /><path clip-path="url(#clip670)" d="M2227.57 254.469 L2227.57 261.83 L2236.34 261.83 L2236.34 265.14 L2227.57 265.14 L2227.57 279.214 Q2227.57 282.385 2228.42 283.288 Q2229.3 284.191 2231.96 284.191 L2236.34 284.191 L2236.34 287.756 L2231.96 287.756 Q2227.03 287.756 2225.16 285.927 Q2223.28 284.075 2223.28 279.214 L2223.28 265.14 L2220.16 265.14 L2220.16 261.83 L2223.28 261.83 L2223.28 254.469 L2227.57 254.469 Z" fill="#000000" fill-rule="nonzero" fill-opacity="1" /><path clip-path="url(#clip670)" d="M2258.47 262.594 L2258.47 266.622 Q2256.66 265.696 2254.72 265.233 Q2252.77 264.77 2250.69 264.77 Q2247.52 264.77 2245.92 265.742 Q2244.35 266.714 2244.35 268.659 Q2244.35 270.14 2245.48 270.997 Q2246.62 271.83 2250.04 272.594 L2251.5 272.918 Q2256.04 273.89 2257.94 275.672 Q2259.86 277.432 2259.86 280.603 Q2259.86 284.214 2256.99 286.321 Q2254.14 288.427 2249.14 288.427 Q2247.06 288.427 2244.79 288.01 Q2242.54 287.617 2240.04 286.807 L2240.04 282.409 Q2242.4 283.635 2244.7 284.26 Q2246.99 284.862 2249.23 284.862 Q2252.24 284.862 2253.86 283.844 Q2255.48 282.802 2255.48 280.927 Q2255.48 279.191 2254.3 278.265 Q2253.14 277.339 2249.19 276.483 L2247.71 276.135 Q2243.75 275.302 2241.99 273.589 Q2240.23 271.853 2240.23 268.844 Q2240.23 265.186 2242.82 263.196 Q2245.41 261.205 2250.18 261.205 Q2252.54 261.205 2254.63 261.552 Q2256.71 261.899 2258.47 262.594 Z" fill="#000000" fill-rule="nonzero" fill-opacity="1" /></svg>
