<?xml version="1.0" encoding="utf-8"?>
<svg xmlns="http://www.w3.org/2000/svg" xmlns:xlink="http://www.w3.org/1999/xlink" width="600" height="400" viewBox="0 0 2400 1600">
<defs>
  <clipPath id="clip680">
    <rect x="0" y="0" width="2400" height="1600"/>
  </clipPath>
</defs>
<path clip-path="url(#clip680)" d="M0 1600 L2400 1600 L2400 0 L0 0  Z" fill="#ffffff" fill-rule="evenodd" fill-opacity="1"/>
<defs>
  <clipPath id="clip681">
    <rect x="480" y="0" width="1681" height="1600"/>
  </clipPath>
</defs>
<path clip-path="url(#clip680)" d="M369.569 1423.18 L2352.76 1423.18 L2352.76 123.472 L369.569 123.472  Z" fill="#ffffff" fill-rule="evenodd" fill-opacity="1"/>
<defs>
  <clipPath id="clip682">
    <rect x="369" y="123" width="1984" height="1301"/>
  </clipPath>
</defs>
<polyline clip-path="url(#clip682)" style="stroke:#000000; stroke-linecap:round; stroke-linejoin:round; stroke-width:2; stroke-opacity:0.1; fill:none" points="425.697,1423.18 425.697,123.472 "/>
<polyline clip-path="url(#clip682)" style="stroke:#000000; stroke-linecap:round; stroke-linejoin:round; stroke-width:2; stroke-opacity:0.1; fill:none" points="893.43,1423.18 893.43,123.472 "/>
<polyline clip-path="url(#clip682)" style="stroke:#000000; stroke-linecap:round; stroke-linejoin:round; stroke-width:2; stroke-opacity:0.1; fill:none" points="1361.16,1423.18 1361.16,123.472 "/>
<polyline clip-path="url(#clip682)" style="stroke:#000000; stroke-linecap:round; stroke-linejoin:round; stroke-width:2; stroke-opacity:0.1; fill:none" points="1828.9,1423.18 1828.9,123.472 "/>
<polyline clip-path="url(#clip682)" style="stroke:#000000; stroke-linecap:round; stroke-linejoin:round; stroke-width:2; stroke-opacity:0.1; fill:none" points="2296.63,1423.18 2296.63,123.472 "/>
<polyline clip-path="url(#clip682)" style="stroke:#000000; stroke-linecap:round; stroke-linejoin:round; stroke-width:2; stroke-opacity:0.1; fill:none" points="369.569,1219.83 2352.76,1219.83 "/>
<polyline clip-path="url(#clip682)" style="stroke:#000000; stroke-linecap:round; stroke-linejoin:round; stroke-width:2; stroke-opacity:0.1; fill:none" points="369.569,996.966 2352.76,996.966 "/>
<polyline clip-path="url(#clip682)" style="stroke:#000000; stroke-linecap:round; stroke-linejoin:round; stroke-width:2; stroke-opacity:0.1; fill:none" points="369.569,774.098 2352.76,774.098 "/>
<polyline clip-path="url(#clip682)" style="stroke:#000000; stroke-linecap:round; stroke-linejoin:round; stroke-width:2; stroke-opacity:0.1; fill:none" points="369.569,551.229 2352.76,551.229 "/>
<polyline clip-path="url(#clip682)" style="stroke:#000000; stroke-linecap:round; stroke-linejoin:round; stroke-width:2; stroke-opacity:0.1; fill:none" points="369.569,328.361 2352.76,328.361 "/>
<polyline clip-path="url(#clip680)" style="stroke:#000000; stroke-linecap:round; stroke-linejoin:round; stroke-width:4; stroke-opacity:1; fill:none" points="369.569,1423.18 2352.76,1423.18 "/>
<polyline clip-path="url(#clip680)" style="stroke:#000000; stroke-linecap:round; stroke-linejoin:round; stroke-width:4; stroke-opacity:1; fill:none" points="425.697,1423.18 425.697,1404.28 "/>
<polyline clip-path="url(#clip680)" style="stroke:#000000; stroke-linecap:round; stroke-linejoin:round; stroke-width:4; stroke-opacity:1; fill:none" points="893.43,1423.18 893.43,1404.28 "/>
<polyline clip-path="url(#clip680)" style="stroke:#000000; stroke-linecap:round; stroke-linejoin:round; stroke-width:4; stroke-opacity:1; fill:none" points="1361.16,1423.18 1361.16,1404.28 "/>
<polyline clip-path="url(#clip680)" style="stroke:#000000; stroke-linecap:round; stroke-linejoin:round; stroke-width:4; stroke-opacity:1; fill:none" points="1828.9,1423.18 1828.9,1404.28 "/>
<polyline clip-path="url(#clip680)" style="stroke:#000000; stroke-linecap:round; stroke-linejoin:round; stroke-width:4; stroke-opacity:1; fill:none" points="2296.63,1423.18 2296.63,1404.28 "/>
<path clip-path="url(#clip680)" d="M400.384 1481.64 L408.023 1481.64 L408.023 1455.28 L399.713 1456.95 L399.713 1452.69 L407.977 1451.02 L412.653 1451.02 L412.653 1481.64 L420.292 1481.64 L420.292 1485.58 L400.384 1485.58 L400.384 1481.64 Z" fill="#000000" fill-rule="nonzero" fill-opacity="1" /><path clip-path="url(#clip680)" d="M439.736 1454.1 Q436.125 1454.1 434.296 1457.66 Q432.491 1461.2 432.491 1468.33 Q432.491 1475.44 434.296 1479.01 Q436.125 1482.55 439.736 1482.55 Q443.37 1482.55 445.176 1479.01 Q447.005 1475.44 447.005 1468.33 Q447.005 1461.2 445.176 1457.66 Q443.37 1454.1 439.736 1454.1 M439.736 1450.39 Q445.546 1450.39 448.602 1455 Q451.68 1459.58 451.68 1468.33 Q451.68 1477.06 448.602 1481.67 Q445.546 1486.25 439.736 1486.25 Q433.926 1486.25 430.847 1481.67 Q427.792 1477.06 427.792 1468.33 Q427.792 1459.58 430.847 1455 Q433.926 1450.39 439.736 1450.39 Z" fill="#000000" fill-rule="nonzero" fill-opacity="1" /><path clip-path="url(#clip680)" d="M872.203 1481.64 L888.522 1481.64 L888.522 1485.58 L866.578 1485.58 L866.578 1481.64 Q869.24 1478.89 873.823 1474.26 Q878.43 1469.61 879.61 1468.27 Q881.856 1465.74 882.735 1464.01 Q883.638 1462.25 883.638 1460.56 Q883.638 1457.8 881.694 1456.07 Q879.772 1454.33 876.67 1454.33 Q874.471 1454.33 872.018 1455.09 Q869.587 1455.86 866.809 1457.41 L866.809 1452.69 Q869.633 1451.55 872.087 1450.97 Q874.541 1450.39 876.578 1450.39 Q881.948 1450.39 885.143 1453.08 Q888.337 1455.77 888.337 1460.26 Q888.337 1462.39 887.527 1464.31 Q886.74 1466.2 884.633 1468.8 Q884.055 1469.47 880.953 1472.69 Q877.851 1475.88 872.203 1481.64 Z" fill="#000000" fill-rule="nonzero" fill-opacity="1" /><path clip-path="url(#clip680)" d="M908.337 1454.1 Q904.726 1454.1 902.897 1457.66 Q901.092 1461.2 901.092 1468.33 Q901.092 1475.44 902.897 1479.01 Q904.726 1482.55 908.337 1482.55 Q911.971 1482.55 913.777 1479.01 Q915.605 1475.44 915.605 1468.33 Q915.605 1461.2 913.777 1457.66 Q911.971 1454.1 908.337 1454.1 M908.337 1450.39 Q914.147 1450.39 917.203 1455 Q920.281 1459.58 920.281 1468.33 Q920.281 1477.06 917.203 1481.67 Q914.147 1486.25 908.337 1486.25 Q902.527 1486.25 899.448 1481.67 Q896.393 1477.06 896.393 1468.33 Q896.393 1459.58 899.448 1455 Q902.527 1450.39 908.337 1450.39 Z" fill="#000000" fill-rule="nonzero" fill-opacity="1" /><path clip-path="url(#clip680)" d="M1350.01 1466.95 Q1353.36 1467.66 1355.24 1469.93 Q1357.13 1472.2 1357.13 1475.53 Q1357.13 1480.65 1353.62 1483.45 Q1350.1 1486.25 1343.62 1486.25 Q1341.44 1486.25 1339.13 1485.81 Q1336.83 1485.39 1334.38 1484.54 L1334.38 1480.02 Q1336.32 1481.16 1338.64 1481.74 Q1340.95 1482.32 1343.48 1482.32 Q1347.88 1482.32 1350.17 1480.58 Q1352.48 1478.84 1352.48 1475.53 Q1352.48 1472.48 1350.33 1470.77 Q1348.2 1469.03 1344.38 1469.03 L1340.35 1469.03 L1340.35 1465.19 L1344.57 1465.19 Q1348.01 1465.19 1349.84 1463.82 Q1351.67 1462.43 1351.67 1459.84 Q1351.67 1457.18 1349.77 1455.77 Q1347.9 1454.33 1344.38 1454.33 Q1342.46 1454.33 1340.26 1454.75 Q1338.06 1455.16 1335.42 1456.04 L1335.42 1451.88 Q1338.08 1451.14 1340.4 1450.77 Q1342.74 1450.39 1344.8 1450.39 Q1350.12 1450.39 1353.22 1452.83 Q1356.32 1455.23 1356.32 1459.35 Q1356.32 1462.22 1354.68 1464.21 Q1353.04 1466.18 1350.01 1466.95 Z" fill="#000000" fill-rule="nonzero" fill-opacity="1" /><path clip-path="url(#clip680)" d="M1376 1454.1 Q1372.39 1454.1 1370.56 1457.66 Q1368.75 1461.2 1368.75 1468.33 Q1368.75 1475.44 1370.56 1479.01 Q1372.39 1482.55 1376 1482.55 Q1379.63 1482.55 1381.44 1479.01 Q1383.27 1475.44 1383.27 1468.33 Q1383.27 1461.2 1381.44 1457.66 Q1379.63 1454.1 1376 1454.1 M1376 1450.39 Q1381.81 1450.39 1384.87 1455 Q1387.94 1459.58 1387.94 1468.33 Q1387.94 1477.06 1384.87 1481.67 Q1381.81 1486.25 1376 1486.25 Q1370.19 1486.25 1367.11 1481.67 Q1364.06 1477.06 1364.06 1468.33 Q1364.06 1459.58 1367.11 1455 Q1370.19 1450.39 1376 1450.39 Z" fill="#000000" fill-rule="nonzero" fill-opacity="1" /><path clip-path="url(#clip680)" d="M1817.07 1455.09 L1805.26 1473.54 L1817.07 1473.54 L1817.07 1455.09 M1815.84 1451.02 L1821.72 1451.02 L1821.72 1473.54 L1826.65 1473.54 L1826.65 1477.43 L1821.72 1477.43 L1821.72 1485.58 L1817.07 1485.58 L1817.07 1477.43 L1801.46 1477.43 L1801.46 1472.92 L1815.84 1451.02 Z" fill="#000000" fill-rule="nonzero" fill-opacity="1" /><path clip-path="url(#clip680)" d="M1844.38 1454.1 Q1840.77 1454.1 1838.94 1457.66 Q1837.14 1461.2 1837.14 1468.33 Q1837.14 1475.44 1838.94 1479.01 Q1840.77 1482.55 1844.38 1482.55 Q1848.02 1482.55 1849.82 1479.01 Q1851.65 1475.44 1851.65 1468.33 Q1851.65 1461.2 1849.82 1457.66 Q1848.02 1454.1 1844.38 1454.1 M1844.38 1450.39 Q1850.19 1450.39 1853.25 1455 Q1856.33 1459.58 1856.33 1468.33 Q1856.33 1477.06 1853.25 1481.67 Q1850.19 1486.25 1844.38 1486.25 Q1838.57 1486.25 1835.49 1481.67 Q1832.44 1477.06 1832.44 1468.33 Q1832.44 1459.58 1835.49 1455 Q1838.57 1450.39 1844.38 1450.39 Z" fill="#000000" fill-rule="nonzero" fill-opacity="1" /><path clip-path="url(#clip680)" d="M2271.33 1451.02 L2289.68 1451.02 L2289.68 1454.96 L2275.61 1454.96 L2275.61 1463.43 Q2276.63 1463.08 2277.65 1462.92 Q2278.67 1462.73 2279.68 1462.73 Q2285.47 1462.73 2288.85 1465.9 Q2292.23 1469.08 2292.23 1474.49 Q2292.23 1480.07 2288.76 1483.17 Q2285.29 1486.25 2278.97 1486.25 Q2276.79 1486.25 2274.52 1485.88 Q2272.28 1485.51 2269.87 1484.77 L2269.87 1480.07 Q2271.95 1481.2 2274.17 1481.76 Q2276.4 1482.32 2278.87 1482.32 Q2282.88 1482.32 2285.22 1480.21 Q2287.55 1478.1 2287.55 1474.49 Q2287.55 1470.88 2285.22 1468.77 Q2282.88 1466.67 2278.87 1466.67 Q2277 1466.67 2275.12 1467.08 Q2273.27 1467.5 2271.33 1468.38 L2271.33 1451.02 Z" fill="#000000" fill-rule="nonzero" fill-opacity="1" /><path clip-path="url(#clip680)" d="M2311.44 1454.1 Q2307.83 1454.1 2306 1457.66 Q2304.2 1461.2 2304.2 1468.33 Q2304.2 1475.44 2306 1479.01 Q2307.83 1482.55 2311.44 1482.55 Q2315.08 1482.55 2316.88 1479.01 Q2318.71 1475.44 2318.71 1468.33 Q2318.71 1461.2 2316.88 1457.66 Q2315.08 1454.1 2311.44 1454.1 M2311.44 1450.39 Q2317.25 1450.39 2320.31 1455 Q2323.39 1459.58 2323.39 1468.33 Q2323.39 1477.06 2320.31 1481.67 Q2317.25 1486.25 2311.44 1486.25 Q2305.63 1486.25 2302.55 1481.67 Q2299.5 1477.06 2299.5 1468.33 Q2299.5 1459.58 2302.55 1455 Q2305.63 1450.39 2311.44 1450.39 Z" fill="#000000" fill-rule="nonzero" fill-opacity="1" /><path clip-path="url(#clip680)" d="M881.522 1525.81 L881.522 1562.76 L889.288 1562.76 Q899.123 1562.76 903.675 1558.3 Q908.258 1553.85 908.258 1544.24 Q908.258 1534.69 903.675 1530.26 Q899.123 1525.81 889.288 1525.81 L881.522 1525.81 M875.093 1520.52 L888.302 1520.52 Q902.115 1520.52 908.577 1526.28 Q915.038 1532.01 915.038 1544.24 Q915.038 1556.52 908.545 1562.28 Q902.052 1568.04 888.302 1568.04 L875.093 1568.04 L875.093 1520.52 Z" fill="#000000" fill-rule="nonzero" fill-opacity="1" /><path clip-path="url(#clip680)" d="M925.032 1532.4 L930.888 1532.4 L930.888 1568.04 L925.032 1568.04 L925.032 1532.4 M925.032 1518.52 L930.888 1518.52 L930.888 1525.93 L925.032 1525.93 L925.032 1518.52 Z" fill="#000000" fill-rule="nonzero" fill-opacity="1" /><path clip-path="url(#clip680)" d="M965.868 1533.45 L965.868 1538.98 Q963.385 1537.71 960.712 1537.07 Q958.038 1536.44 955.174 1536.44 Q950.813 1536.44 948.617 1537.77 Q946.453 1539.11 946.453 1541.79 Q946.453 1543.82 948.012 1545 Q949.572 1546.15 954.282 1547.2 L956.288 1547.64 Q962.526 1548.98 965.136 1551.43 Q967.778 1553.85 967.778 1558.21 Q967.778 1563.17 963.831 1566.07 Q959.916 1568.97 953.041 1568.97 Q950.176 1568.97 947.057 1568.39 Q943.97 1567.85 940.532 1566.74 L940.532 1560.69 Q943.779 1562.38 946.93 1563.24 Q950.081 1564.07 953.168 1564.07 Q957.306 1564.07 959.534 1562.66 Q961.762 1561.23 961.762 1558.65 Q961.762 1556.27 960.139 1554.99 Q958.547 1553.72 953.105 1552.54 L951.068 1552.07 Q945.625 1550.92 943.206 1548.56 Q940.787 1546.18 940.787 1542.04 Q940.787 1537.01 944.352 1534.27 Q947.917 1531.54 954.473 1531.54 Q957.72 1531.54 960.584 1532.01 Q963.449 1532.49 965.868 1533.45 Z" fill="#000000" fill-rule="nonzero" fill-opacity="1" /><path clip-path="url(#clip680)" d="M982.896 1522.27 L982.896 1532.4 L994.959 1532.4 L994.959 1536.95 L982.896 1536.95 L982.896 1556.3 Q982.896 1560.66 984.074 1561.9 Q985.283 1563.14 988.944 1563.14 L994.959 1563.14 L994.959 1568.04 L988.944 1568.04 Q982.164 1568.04 979.586 1565.53 Q977.008 1562.98 977.008 1556.3 L977.008 1536.95 L972.711 1536.95 L972.711 1532.4 L977.008 1532.4 L977.008 1522.27 L982.896 1522.27 Z" fill="#000000" fill-rule="nonzero" fill-opacity="1" /><path clip-path="url(#clip680)" d="M1018.86 1550.12 Q1011.76 1550.12 1009.03 1551.75 Q1006.29 1553.37 1006.29 1557.29 Q1006.29 1560.4 1008.33 1562.25 Q1010.4 1564.07 1013.93 1564.07 Q1018.8 1564.07 1021.73 1560.63 Q1024.69 1557.16 1024.69 1551.43 L1024.69 1550.12 L1018.86 1550.12 M1030.54 1547.71 L1030.54 1568.04 L1024.69 1568.04 L1024.69 1562.63 Q1022.68 1565.88 1019.69 1567.44 Q1016.7 1568.97 1012.37 1568.97 Q1006.89 1568.97 1003.65 1565.91 Q1000.43 1562.82 1000.43 1557.67 Q1000.43 1551.65 1004.44 1548.6 Q1008.49 1545.54 1016.48 1545.54 L1024.69 1545.54 L1024.69 1544.97 Q1024.69 1540.93 1022.01 1538.73 Q1019.37 1536.5 1014.57 1536.5 Q1011.51 1536.5 1008.61 1537.23 Q1005.72 1537.97 1003.04 1539.43 L1003.04 1534.02 Q1006.26 1532.78 1009.28 1532.17 Q1012.31 1531.54 1015.17 1531.54 Q1022.9 1531.54 1026.72 1535.55 Q1030.54 1539.56 1030.54 1547.71 Z" fill="#000000" fill-rule="nonzero" fill-opacity="1" /><path clip-path="url(#clip680)" d="M1072.24 1546.53 L1072.24 1568.04 L1066.38 1568.04 L1066.38 1546.72 Q1066.38 1541.66 1064.41 1539.14 Q1062.44 1536.63 1058.49 1536.63 Q1053.75 1536.63 1051.01 1539.65 Q1048.27 1542.68 1048.27 1547.9 L1048.27 1568.04 L1042.38 1568.04 L1042.38 1532.4 L1048.27 1532.4 L1048.27 1537.93 Q1050.37 1534.72 1053.21 1533.13 Q1056.07 1531.54 1059.79 1531.54 Q1065.94 1531.54 1069.09 1535.36 Q1072.24 1539.14 1072.24 1546.53 Z" fill="#000000" fill-rule="nonzero" fill-opacity="1" /><path clip-path="url(#clip680)" d="M1109.57 1533.76 L1109.57 1539.24 Q1107.09 1537.87 1104.58 1537.2 Q1102.09 1536.5 1099.55 1536.5 Q1093.85 1536.5 1090.7 1540.13 Q1087.55 1543.73 1087.55 1550.25 Q1087.55 1556.78 1090.7 1560.4 Q1093.85 1564 1099.55 1564 Q1102.09 1564 1104.58 1563.33 Q1107.09 1562.63 1109.57 1561.26 L1109.57 1566.68 Q1107.12 1567.82 1104.48 1568.39 Q1101.87 1568.97 1098.91 1568.97 Q1090.86 1568.97 1086.12 1563.91 Q1081.37 1558.85 1081.37 1550.25 Q1081.37 1541.53 1086.15 1536.53 Q1090.95 1531.54 1099.29 1531.54 Q1102 1531.54 1104.58 1532.11 Q1107.15 1532.65 1109.57 1533.76 Z" fill="#000000" fill-rule="nonzero" fill-opacity="1" /><path clip-path="url(#clip680)" d="M1150.25 1548.76 L1150.25 1551.62 L1123.32 1551.62 Q1123.71 1557.67 1126.95 1560.85 Q1130.23 1564 1136.06 1564 Q1139.43 1564 1142.58 1563.17 Q1145.76 1562.35 1148.88 1560.69 L1148.88 1566.23 Q1145.73 1567.57 1142.42 1568.27 Q1139.11 1568.97 1135.7 1568.97 Q1127.17 1568.97 1122.18 1564 Q1117.21 1559.04 1117.21 1550.57 Q1117.21 1541.82 1121.92 1536.69 Q1126.67 1531.54 1134.69 1531.54 Q1141.88 1531.54 1146.05 1536.18 Q1150.25 1540.8 1150.25 1548.76 M1144.39 1547.04 Q1144.33 1542.23 1141.69 1539.37 Q1139.08 1536.5 1134.75 1536.5 Q1129.85 1536.5 1126.89 1539.27 Q1123.96 1542.04 1123.51 1547.07 L1144.39 1547.04 Z" fill="#000000" fill-rule="nonzero" fill-opacity="1" /><path clip-path="url(#clip680)" d="M1206.17 1550.25 Q1206.17 1543.79 1203.5 1540.13 Q1200.86 1536.44 1196.21 1536.44 Q1191.56 1536.44 1188.89 1540.13 Q1186.25 1543.79 1186.25 1550.25 Q1186.25 1556.71 1188.89 1560.4 Q1191.56 1564.07 1196.21 1564.07 Q1200.86 1564.07 1203.5 1560.4 Q1206.17 1556.71 1206.17 1550.25 M1186.25 1537.81 Q1188.09 1534.62 1190.9 1533.1 Q1193.73 1531.54 1197.64 1531.54 Q1204.14 1531.54 1208.18 1536.69 Q1212.25 1541.85 1212.25 1550.25 Q1212.25 1558.65 1208.18 1563.81 Q1204.14 1568.97 1197.64 1568.97 Q1193.73 1568.97 1190.9 1567.44 Q1188.09 1565.88 1186.25 1562.7 L1186.25 1568.04 L1180.36 1568.04 L1180.36 1518.52 L1186.25 1518.52 L1186.25 1537.81 Z" fill="#000000" fill-rule="nonzero" fill-opacity="1" /><path clip-path="url(#clip680)" d="M1252.45 1548.76 L1252.45 1551.62 L1225.53 1551.62 Q1225.91 1557.67 1229.15 1560.85 Q1232.43 1564 1238.26 1564 Q1241.63 1564 1244.78 1563.17 Q1247.96 1562.35 1251.08 1560.69 L1251.08 1566.23 Q1247.93 1567.57 1244.62 1568.27 Q1241.31 1568.97 1237.91 1568.97 Q1229.38 1568.97 1224.38 1564 Q1219.41 1559.04 1219.41 1550.57 Q1219.41 1541.82 1224.12 1536.69 Q1228.87 1531.54 1236.89 1531.54 Q1244.08 1531.54 1248.25 1536.18 Q1252.45 1540.8 1252.45 1548.76 M1246.6 1547.04 Q1246.53 1542.23 1243.89 1539.37 Q1241.28 1536.5 1236.95 1536.5 Q1232.05 1536.5 1229.09 1539.27 Q1226.16 1542.04 1225.72 1547.07 L1246.6 1547.04 Z" fill="#000000" fill-rule="nonzero" fill-opacity="1" /><path clip-path="url(#clip680)" d="M1267.86 1522.27 L1267.86 1532.4 L1279.92 1532.4 L1279.92 1536.95 L1267.86 1536.95 L1267.86 1556.3 Q1267.86 1560.66 1269.03 1561.9 Q1270.24 1563.14 1273.9 1563.14 L1279.92 1563.14 L1279.92 1568.04 L1273.9 1568.04 Q1267.12 1568.04 1264.55 1565.53 Q1261.97 1562.98 1261.97 1556.3 L1261.97 1536.95 L1257.67 1536.95 L1257.67 1532.4 L1261.97 1532.4 L1261.97 1522.27 L1267.86 1522.27 Z" fill="#000000" fill-rule="nonzero" fill-opacity="1" /><path clip-path="url(#clip680)" d="M1284.22 1532.4 L1290.07 1532.4 L1297.39 1560.21 L1304.68 1532.4 L1311.59 1532.4 L1318.91 1560.21 L1326.2 1532.4 L1332.06 1532.4 L1322.73 1568.04 L1315.82 1568.04 L1308.15 1538.83 L1300.45 1568.04 L1293.54 1568.04 L1284.22 1532.4 Z" fill="#000000" fill-rule="nonzero" fill-opacity="1" /><path clip-path="url(#clip680)" d="M1371.43 1548.76 L1371.43 1551.62 L1344.5 1551.62 Q1344.88 1557.67 1348.13 1560.85 Q1351.41 1564 1357.23 1564 Q1360.61 1564 1363.76 1563.17 Q1366.94 1562.35 1370.06 1560.69 L1370.06 1566.23 Q1366.91 1567.57 1363.6 1568.27 Q1360.29 1568.97 1356.88 1568.97 Q1348.35 1568.97 1343.35 1564 Q1338.39 1559.04 1338.39 1550.57 Q1338.39 1541.82 1343.1 1536.69 Q1347.84 1531.54 1355.86 1531.54 Q1363.06 1531.54 1367.23 1536.18 Q1371.43 1540.8 1371.43 1548.76 M1365.57 1547.04 Q1365.51 1542.23 1362.87 1539.37 Q1360.26 1536.5 1355.93 1536.5 Q1351.03 1536.5 1348.06 1539.27 Q1345.14 1542.04 1344.69 1547.07 L1365.57 1547.04 Z" fill="#000000" fill-rule="nonzero" fill-opacity="1" /><path clip-path="url(#clip680)" d="M1411.53 1548.76 L1411.53 1551.62 L1384.6 1551.62 Q1384.99 1557.67 1388.23 1560.85 Q1391.51 1564 1397.34 1564 Q1400.71 1564 1403.86 1563.17 Q1407.04 1562.35 1410.16 1560.69 L1410.16 1566.23 Q1407.01 1567.57 1403.7 1568.27 Q1400.39 1568.97 1396.99 1568.97 Q1388.46 1568.97 1383.46 1564 Q1378.49 1559.04 1378.49 1550.57 Q1378.49 1541.82 1383.2 1536.69 Q1387.95 1531.54 1395.97 1531.54 Q1403.16 1531.54 1407.33 1536.18 Q1411.53 1540.8 1411.53 1548.76 M1405.67 1547.04 Q1405.61 1542.23 1402.97 1539.37 Q1400.36 1536.5 1396.03 1536.5 Q1391.13 1536.5 1388.17 1539.27 Q1385.24 1542.04 1384.8 1547.07 L1405.67 1547.04 Z" fill="#000000" fill-rule="nonzero" fill-opacity="1" /><path clip-path="url(#clip680)" d="M1450.78 1546.53 L1450.78 1568.04 L1444.92 1568.04 L1444.92 1546.72 Q1444.92 1541.66 1442.95 1539.14 Q1440.97 1536.63 1437.03 1536.63 Q1432.28 1536.63 1429.55 1539.65 Q1426.81 1542.68 1426.81 1547.9 L1426.81 1568.04 L1420.92 1568.04 L1420.92 1532.4 L1426.81 1532.4 L1426.81 1537.93 Q1428.91 1534.72 1431.74 1533.13 Q1434.61 1531.54 1438.33 1531.54 Q1444.47 1531.54 1447.62 1535.36 Q1450.78 1539.14 1450.78 1546.53 Z" fill="#000000" fill-rule="nonzero" fill-opacity="1" /><path clip-path="url(#clip680)" d="M1499.38 1550.12 Q1492.28 1550.12 1489.54 1551.75 Q1486.81 1553.37 1486.81 1557.29 Q1486.81 1560.4 1488.84 1562.25 Q1490.91 1564.07 1494.44 1564.07 Q1499.31 1564.07 1502.24 1560.63 Q1505.2 1557.16 1505.2 1551.43 L1505.2 1550.12 L1499.38 1550.12 M1511.06 1547.71 L1511.06 1568.04 L1505.2 1568.04 L1505.2 1562.63 Q1503.2 1565.88 1500.21 1567.44 Q1497.21 1568.97 1492.88 1568.97 Q1487.41 1568.97 1484.16 1565.91 Q1480.95 1562.82 1480.95 1557.67 Q1480.95 1551.65 1484.96 1548.6 Q1489 1545.54 1496.99 1545.54 L1505.2 1545.54 L1505.2 1544.97 Q1505.2 1540.93 1502.53 1538.73 Q1499.89 1536.5 1495.08 1536.5 Q1492.03 1536.5 1489.13 1537.23 Q1486.23 1537.97 1483.56 1539.43 L1483.56 1534.02 Q1486.77 1532.78 1489.8 1532.17 Q1492.82 1531.54 1495.69 1531.54 Q1503.42 1531.54 1507.24 1535.55 Q1511.06 1539.56 1511.06 1547.71 Z" fill="#000000" fill-rule="nonzero" fill-opacity="1" /><path clip-path="url(#clip680)" d="M1543.78 1537.87 Q1542.79 1537.3 1541.61 1537.04 Q1540.47 1536.76 1539.07 1536.76 Q1534.1 1536.76 1531.43 1540 Q1528.79 1543.22 1528.79 1549.27 L1528.79 1568.04 L1522.9 1568.04 L1522.9 1532.4 L1528.79 1532.4 L1528.79 1537.93 Q1530.63 1534.69 1533.59 1533.13 Q1536.55 1531.54 1540.79 1531.54 Q1541.39 1531.54 1542.12 1531.63 Q1542.86 1531.7 1543.75 1531.85 L1543.78 1537.87 Z" fill="#000000" fill-rule="nonzero" fill-opacity="1" /><path clip-path="url(#clip680)" d="M1569.43 1537.87 Q1568.45 1537.3 1567.27 1537.04 Q1566.12 1536.76 1564.72 1536.76 Q1559.76 1536.76 1557.08 1540 Q1554.44 1543.22 1554.44 1549.27 L1554.44 1568.04 L1548.55 1568.04 L1548.55 1532.4 L1554.44 1532.4 L1554.44 1537.93 Q1556.29 1534.69 1559.25 1533.13 Q1562.21 1531.54 1566.44 1531.54 Q1567.05 1531.54 1567.78 1531.63 Q1568.51 1531.7 1569.4 1531.85 L1569.43 1537.87 Z" fill="#000000" fill-rule="nonzero" fill-opacity="1" /><path clip-path="url(#clip680)" d="M1591.78 1550.12 Q1584.68 1550.12 1581.94 1551.75 Q1579.2 1553.37 1579.2 1557.29 Q1579.2 1560.4 1581.24 1562.25 Q1583.31 1564.07 1586.84 1564.07 Q1591.71 1564.07 1594.64 1560.63 Q1597.6 1557.16 1597.6 1551.43 L1597.6 1550.12 L1591.78 1550.12 M1603.46 1547.71 L1603.46 1568.04 L1597.6 1568.04 L1597.6 1562.63 Q1595.6 1565.88 1592.6 1567.44 Q1589.61 1568.97 1585.28 1568.97 Q1579.81 1568.97 1576.56 1565.91 Q1573.35 1562.82 1573.35 1557.67 Q1573.35 1551.65 1577.36 1548.6 Q1581.4 1545.54 1589.39 1545.54 L1597.6 1545.54 L1597.6 1544.97 Q1597.6 1540.93 1594.93 1538.73 Q1592.29 1536.5 1587.48 1536.5 Q1584.42 1536.5 1581.53 1537.23 Q1578.63 1537.97 1575.96 1539.43 L1575.96 1534.02 Q1579.17 1532.78 1582.2 1532.17 Q1585.22 1531.54 1588.08 1531.54 Q1595.82 1531.54 1599.64 1535.55 Q1603.46 1539.56 1603.46 1547.71 Z" fill="#000000" fill-rule="nonzero" fill-opacity="1" /><path clip-path="url(#clip680)" d="M1630.35 1571.35 Q1627.87 1577.72 1625.51 1579.66 Q1623.16 1581.6 1619.21 1581.6 L1614.53 1581.6 L1614.53 1576.7 L1617.97 1576.7 Q1620.39 1576.7 1621.73 1575.56 Q1623.06 1574.41 1624.69 1570.14 L1625.74 1567.47 L1611.32 1532.4 L1617.53 1532.4 L1628.67 1560.28 L1639.81 1532.4 L1646.01 1532.4 L1630.35 1571.35 Z" fill="#000000" fill-rule="nonzero" fill-opacity="1" /><path clip-path="url(#clip680)" d="M1676.82 1533.45 L1676.82 1538.98 Q1674.34 1537.71 1671.67 1537.07 Q1668.99 1536.44 1666.13 1536.44 Q1661.77 1536.44 1659.57 1537.77 Q1657.41 1539.11 1657.41 1541.79 Q1657.41 1543.82 1658.97 1545 Q1660.53 1546.15 1665.24 1547.2 L1667.24 1547.64 Q1673.48 1548.98 1676.09 1551.43 Q1678.73 1553.85 1678.73 1558.21 Q1678.73 1563.17 1674.78 1566.07 Q1670.87 1568.97 1663.99 1568.97 Q1661.13 1568.97 1658.01 1568.39 Q1654.92 1567.85 1651.49 1566.74 L1651.49 1560.69 Q1654.73 1562.38 1657.88 1563.24 Q1661.03 1564.07 1664.12 1564.07 Q1668.26 1564.07 1670.49 1562.66 Q1672.72 1561.23 1672.72 1558.65 Q1672.72 1556.27 1671.09 1554.99 Q1669.5 1553.72 1664.06 1552.54 L1662.02 1552.07 Q1656.58 1550.92 1654.16 1548.56 Q1651.74 1546.18 1651.74 1542.04 Q1651.74 1537.01 1655.31 1534.27 Q1658.87 1531.54 1665.43 1531.54 Q1668.67 1531.54 1671.54 1532.01 Q1674.4 1532.49 1676.82 1533.45 Z" fill="#000000" fill-rule="nonzero" fill-opacity="1" /><path clip-path="url(#clip680)" d="M1722.85 1518.58 Q1718.58 1525.9 1716.51 1533.06 Q1714.44 1540.23 1714.44 1547.58 Q1714.44 1554.93 1716.51 1562.16 Q1718.61 1569.35 1722.85 1576.64 L1717.75 1576.64 Q1712.98 1569.16 1710.59 1561.93 Q1708.24 1554.71 1708.24 1547.58 Q1708.24 1540.48 1710.59 1533.29 Q1712.95 1526.09 1717.75 1518.58 L1722.85 1518.58 Z" fill="#000000" fill-rule="nonzero" fill-opacity="1" /><path clip-path="url(#clip680)" d="M1759.86 1533.76 L1759.86 1539.24 Q1757.38 1537.87 1754.87 1537.2 Q1752.38 1536.5 1749.84 1536.5 Q1744.14 1536.5 1740.99 1540.13 Q1737.84 1543.73 1737.84 1550.25 Q1737.84 1556.78 1740.99 1560.4 Q1744.14 1564 1749.84 1564 Q1752.38 1564 1754.87 1563.33 Q1757.38 1562.63 1759.86 1561.26 L1759.86 1566.68 Q1757.41 1567.82 1754.77 1568.39 Q1752.16 1568.97 1749.2 1568.97 Q1741.15 1568.97 1736.4 1563.91 Q1731.66 1558.85 1731.66 1550.25 Q1731.66 1541.53 1736.44 1536.53 Q1741.24 1531.54 1749.58 1531.54 Q1752.29 1531.54 1754.87 1532.11 Q1757.44 1532.65 1759.86 1533.76 Z" fill="#000000" fill-rule="nonzero" fill-opacity="1" /><path clip-path="url(#clip680)" d="M1797.8 1539.24 Q1800 1535.29 1803.05 1533.41 Q1806.11 1531.54 1810.25 1531.54 Q1815.82 1531.54 1818.84 1535.45 Q1821.86 1539.33 1821.86 1546.53 L1821.86 1568.04 L1815.98 1568.04 L1815.98 1546.72 Q1815.98 1541.59 1814.16 1539.11 Q1812.35 1536.63 1808.62 1536.63 Q1804.07 1536.63 1801.43 1539.65 Q1798.79 1542.68 1798.79 1547.9 L1798.79 1568.04 L1792.9 1568.04 L1792.9 1546.72 Q1792.9 1541.56 1791.09 1539.11 Q1789.27 1536.63 1785.48 1536.63 Q1781 1536.63 1778.35 1539.68 Q1775.71 1542.71 1775.71 1547.9 L1775.71 1568.04 L1769.82 1568.04 L1769.82 1532.4 L1775.71 1532.4 L1775.71 1537.93 Q1777.72 1534.66 1780.52 1533.1 Q1783.32 1531.54 1787.17 1531.54 Q1791.05 1531.54 1793.76 1533.51 Q1796.5 1535.48 1797.8 1539.24 Z" fill="#000000" fill-rule="nonzero" fill-opacity="1" /><path clip-path="url(#clip680)" d="M1832.62 1518.58 L1837.72 1518.58 Q1842.49 1526.09 1844.84 1533.29 Q1847.23 1540.48 1847.23 1547.58 Q1847.23 1554.71 1844.84 1561.93 Q1842.49 1569.16 1837.72 1576.64 L1832.62 1576.64 Q1836.86 1569.35 1838.92 1562.16 Q1841.03 1554.93 1841.03 1547.58 Q1841.03 1540.23 1838.92 1533.06 Q1836.86 1525.9 1832.62 1518.58 Z" fill="#000000" fill-rule="nonzero" fill-opacity="1" /><polyline clip-path="url(#clip680)" style="stroke:#000000; stroke-linecap:round; stroke-linejoin:round; stroke-width:4; stroke-opacity:1; fill:none" points="369.569,1423.18 369.569,123.472 "/>
<polyline clip-path="url(#clip680)" style="stroke:#000000; stroke-linecap:round; stroke-linejoin:round; stroke-width:4; stroke-opacity:1; fill:none" points="369.569,1219.83 388.467,1219.83 "/>
<polyline clip-path="url(#clip680)" style="stroke:#000000; stroke-linecap:round; stroke-linejoin:round; stroke-width:4; stroke-opacity:1; fill:none" points="369.569,996.966 388.467,996.966 "/>
<polyline clip-path="url(#clip680)" style="stroke:#000000; stroke-linecap:round; stroke-linejoin:round; stroke-width:4; stroke-opacity:1; fill:none" points="369.569,774.098 388.467,774.098 "/>
<polyline clip-path="url(#clip680)" style="stroke:#000000; stroke-linecap:round; stroke-linejoin:round; stroke-width:4; stroke-opacity:1; fill:none" points="369.569,551.229 388.467,551.229 "/>
<polyline clip-path="url(#clip680)" style="stroke:#000000; stroke-linecap:round; stroke-linejoin:round; stroke-width:4; stroke-opacity:1; fill:none" points="369.569,328.361 388.467,328.361 "/>
<path clip-path="url(#clip680)" d="M121.043 1239.63 L137.362 1239.63 L137.362 1243.56 L115.418 1243.56 L115.418 1239.63 Q118.08 1236.87 122.663 1232.24 Q127.269 1227.59 128.45 1226.25 Q130.695 1223.72 131.575 1221.99 Q132.478 1220.23 132.478 1218.54 Q132.478 1215.78 130.533 1214.05 Q128.612 1212.31 125.51 1212.31 Q123.311 1212.31 120.857 1213.08 Q118.427 1213.84 115.649 1215.39 L115.649 1210.67 Q118.473 1209.53 120.927 1208.96 Q123.38 1208.38 125.418 1208.38 Q130.788 1208.38 133.982 1211.06 Q137.177 1213.75 137.177 1218.24 Q137.177 1220.37 136.367 1222.29 Q135.579 1224.19 133.473 1226.78 Q132.894 1227.45 129.792 1230.67 Q126.691 1233.86 121.043 1239.63 Z" fill="#000000" fill-rule="nonzero" fill-opacity="1" /><path clip-path="url(#clip680)" d="M147.177 1237.68 L152.061 1237.68 L152.061 1243.56 L147.177 1243.56 L147.177 1237.68 Z" fill="#000000" fill-rule="nonzero" fill-opacity="1" /><path clip-path="url(#clip680)" d="M172.246 1212.08 Q168.635 1212.08 166.806 1215.65 Q165.001 1219.19 165.001 1226.32 Q165.001 1233.42 166.806 1236.99 Q168.635 1240.53 172.246 1240.53 Q175.88 1240.53 177.686 1236.99 Q179.514 1233.42 179.514 1226.32 Q179.514 1219.19 177.686 1215.65 Q175.88 1212.08 172.246 1212.08 M172.246 1208.38 Q178.056 1208.38 181.112 1212.98 Q184.19 1217.57 184.19 1226.32 Q184.19 1235.04 181.112 1239.65 Q178.056 1244.23 172.246 1244.23 Q166.436 1244.23 163.357 1239.65 Q160.302 1235.04 160.302 1226.32 Q160.302 1217.57 163.357 1212.98 Q166.436 1208.38 172.246 1208.38 Z" fill="#000000" fill-rule="nonzero" fill-opacity="1" /><path clip-path="url(#clip680)" d="M220.579 1218.1 L210 1228.72 L220.579 1239.3 L217.824 1242.1 L207.199 1231.48 L196.575 1242.1 L193.843 1239.3 L204.399 1228.72 L193.843 1218.1 L196.575 1215.3 L207.199 1225.92 L217.824 1215.3 L220.579 1218.1 Z" fill="#000000" fill-rule="nonzero" fill-opacity="1" /><path clip-path="url(#clip680)" d="M232.94 1239.63 L240.579 1239.63 L240.579 1213.26 L232.269 1214.93 L232.269 1210.67 L240.533 1209 L245.209 1209 L245.209 1239.63 L252.847 1239.63 L252.847 1243.56 L232.94 1243.56 L232.94 1239.63 Z" fill="#000000" fill-rule="nonzero" fill-opacity="1" /><path clip-path="url(#clip680)" d="M272.292 1212.08 Q268.681 1212.08 266.852 1215.65 Q265.046 1219.19 265.046 1226.32 Q265.046 1233.42 266.852 1236.99 Q268.681 1240.53 272.292 1240.53 Q275.926 1240.53 277.732 1236.99 Q279.56 1233.42 279.56 1226.32 Q279.56 1219.19 277.732 1215.65 Q275.926 1212.08 272.292 1212.08 M272.292 1208.38 Q278.102 1208.38 281.157 1212.98 Q284.236 1217.57 284.236 1226.32 Q284.236 1235.04 281.157 1239.65 Q278.102 1244.23 272.292 1244.23 Q266.482 1244.23 263.403 1239.65 Q260.347 1235.04 260.347 1226.32 Q260.347 1217.57 263.403 1212.98 Q266.482 1208.38 272.292 1208.38 Z" fill="#000000" fill-rule="nonzero" fill-opacity="1" /><path clip-path="url(#clip680)" d="M284.236 1202.48 L308.348 1202.48 L308.348 1205.68 L284.236 1205.68 L284.236 1202.48 Z" fill="#000000" fill-rule="nonzero" fill-opacity="1" /><path clip-path="url(#clip680)" d="M316.585 1188.07 L331.5 1188.07 L331.5 1191.27 L320.065 1191.27 L320.065 1198.15 Q320.892 1197.87 321.72 1197.74 Q322.548 1197.59 323.375 1197.59 Q328.077 1197.59 330.823 1200.17 Q333.569 1202.74 333.569 1207.14 Q333.569 1211.68 330.748 1214.2 Q327.927 1216.7 322.792 1216.7 Q321.024 1216.7 319.181 1216.4 Q317.357 1216.1 315.401 1215.49 L315.401 1211.68 Q317.093 1212.6 318.899 1213.05 Q320.704 1213.5 322.717 1213.5 Q325.971 1213.5 327.87 1211.79 Q329.77 1210.08 329.77 1207.14 Q329.77 1204.21 327.87 1202.5 Q325.971 1200.79 322.717 1200.79 Q321.193 1200.79 319.67 1201.12 Q318.165 1201.46 316.585 1202.18 L316.585 1188.07 Z" fill="#000000" fill-rule="nonzero" fill-opacity="1" /><path clip-path="url(#clip680)" d="M129.862 990.208 L118.056 1008.66 L129.862 1008.66 L129.862 990.208 M128.635 986.134 L134.515 986.134 L134.515 1008.66 L139.445 1008.66 L139.445 1012.55 L134.515 1012.55 L134.515 1020.69 L129.862 1020.69 L129.862 1012.55 L114.26 1012.55 L114.26 1008.03 L128.635 986.134 Z" fill="#000000" fill-rule="nonzero" fill-opacity="1" /><path clip-path="url(#clip680)" d="M147.177 1014.81 L152.061 1014.81 L152.061 1020.69 L147.177 1020.69 L147.177 1014.81 Z" fill="#000000" fill-rule="nonzero" fill-opacity="1" /><path clip-path="url(#clip680)" d="M172.246 989.212 Q168.635 989.212 166.806 992.777 Q165.001 996.319 165.001 1003.45 Q165.001 1010.55 166.806 1014.12 Q168.635 1017.66 172.246 1017.66 Q175.88 1017.66 177.686 1014.12 Q179.514 1010.55 179.514 1003.45 Q179.514 996.319 177.686 992.777 Q175.88 989.212 172.246 989.212 M172.246 985.509 Q178.056 985.509 181.112 990.115 Q184.19 994.698 184.19 1003.45 Q184.19 1012.18 181.112 1016.78 Q178.056 1021.36 172.246 1021.36 Q166.436 1021.36 163.357 1016.78 Q160.302 1012.18 160.302 1003.45 Q160.302 994.698 163.357 990.115 Q166.436 985.509 172.246 985.509 Z" fill="#000000" fill-rule="nonzero" fill-opacity="1" /><path clip-path="url(#clip680)" d="M220.579 995.231 L210 1005.86 L220.579 1016.43 L217.824 1019.24 L207.199 1008.61 L196.575 1019.24 L193.843 1016.43 L204.399 1005.86 L193.843 995.231 L196.575 992.43 L207.199 1003.05 L217.824 992.43 L220.579 995.231 Z" fill="#000000" fill-rule="nonzero" fill-opacity="1" /><path clip-path="url(#clip680)" d="M232.94 1016.76 L240.579 1016.76 L240.579 990.393 L232.269 992.06 L232.269 987.8 L240.533 986.134 L245.209 986.134 L245.209 1016.76 L252.847 1016.76 L252.847 1020.69 L232.94 1020.69 L232.94 1016.76 Z" fill="#000000" fill-rule="nonzero" fill-opacity="1" /><path clip-path="url(#clip680)" d="M272.292 989.212 Q268.681 989.212 266.852 992.777 Q265.046 996.319 265.046 1003.45 Q265.046 1010.55 266.852 1014.12 Q268.681 1017.66 272.292 1017.66 Q275.926 1017.66 277.732 1014.12 Q279.56 1010.55 279.56 1003.45 Q279.56 996.319 277.732 992.777 Q275.926 989.212 272.292 989.212 M272.292 985.509 Q278.102 985.509 281.157 990.115 Q284.236 994.698 284.236 1003.45 Q284.236 1012.18 281.157 1016.78 Q278.102 1021.36 272.292 1021.36 Q266.482 1021.36 263.403 1016.78 Q260.347 1012.18 260.347 1003.45 Q260.347 994.698 263.403 990.115 Q266.482 985.509 272.292 985.509 Z" fill="#000000" fill-rule="nonzero" fill-opacity="1" /><path clip-path="url(#clip680)" d="M284.236 979.61 L308.348 979.61 L308.348 982.807 L284.236 982.807 L284.236 979.61 Z" fill="#000000" fill-rule="nonzero" fill-opacity="1" /><path clip-path="url(#clip680)" d="M316.585 965.203 L331.5 965.203 L331.5 968.401 L320.065 968.401 L320.065 975.284 Q320.892 975.002 321.72 974.87 Q322.548 974.72 323.375 974.72 Q328.077 974.72 330.823 977.297 Q333.569 979.873 333.569 984.274 Q333.569 988.807 330.748 991.327 Q327.927 993.829 322.792 993.829 Q321.024 993.829 319.181 993.528 Q317.357 993.227 315.401 992.625 L315.401 988.807 Q317.093 989.729 318.899 990.18 Q320.704 990.631 322.717 990.631 Q325.971 990.631 327.87 988.92 Q329.77 987.208 329.77 984.274 Q329.77 981.34 327.87 979.629 Q325.971 977.917 322.717 977.917 Q321.193 977.917 319.67 978.256 Q318.165 978.594 316.585 979.309 L316.585 965.203 Z" fill="#000000" fill-rule="nonzero" fill-opacity="1" /><path clip-path="url(#clip680)" d="M127.593 778.682 Q124.445 778.682 122.593 780.835 Q120.765 782.987 120.765 786.737 Q120.765 790.464 122.593 792.64 Q124.445 794.793 127.593 794.793 Q130.742 794.793 132.57 792.64 Q134.422 790.464 134.422 786.737 Q134.422 782.987 132.57 780.835 Q130.742 778.682 127.593 778.682 M136.876 764.029 L136.876 768.288 Q135.117 767.455 133.311 767.015 Q131.529 766.575 129.769 766.575 Q125.14 766.575 122.686 769.7 Q120.255 772.825 119.908 779.145 Q121.274 777.131 123.334 776.066 Q125.394 774.978 127.871 774.978 Q133.08 774.978 136.089 778.149 Q139.121 781.297 139.121 786.737 Q139.121 792.061 135.973 795.279 Q132.825 798.496 127.593 798.496 Q121.598 798.496 118.427 793.913 Q115.256 789.307 115.256 780.58 Q115.256 772.385 119.144 767.524 Q123.033 762.64 129.584 762.64 Q131.343 762.64 133.126 762.987 Q134.931 763.335 136.876 764.029 Z" fill="#000000" fill-rule="nonzero" fill-opacity="1" /><path clip-path="url(#clip680)" d="M147.177 791.946 L152.061 791.946 L152.061 797.825 L147.177 797.825 L147.177 791.946 Z" fill="#000000" fill-rule="nonzero" fill-opacity="1" /><path clip-path="url(#clip680)" d="M172.246 766.344 Q168.635 766.344 166.806 769.909 Q165.001 773.45 165.001 780.58 Q165.001 787.686 166.806 791.251 Q168.635 794.793 172.246 794.793 Q175.88 794.793 177.686 791.251 Q179.514 787.686 179.514 780.58 Q179.514 773.45 177.686 769.909 Q175.88 766.344 172.246 766.344 M172.246 762.64 Q178.056 762.64 181.112 767.247 Q184.19 771.83 184.19 780.58 Q184.19 789.307 181.112 793.913 Q178.056 798.496 172.246 798.496 Q166.436 798.496 163.357 793.913 Q160.302 789.307 160.302 780.58 Q160.302 771.83 163.357 767.247 Q166.436 762.64 172.246 762.64 Z" fill="#000000" fill-rule="nonzero" fill-opacity="1" /><path clip-path="url(#clip680)" d="M220.579 772.362 L210 782.987 L220.579 793.566 L217.824 796.367 L207.199 785.742 L196.575 796.367 L193.843 793.566 L204.399 782.987 L193.843 772.362 L196.575 769.561 L207.199 780.186 L217.824 769.561 L220.579 772.362 Z" fill="#000000" fill-rule="nonzero" fill-opacity="1" /><path clip-path="url(#clip680)" d="M232.94 793.89 L240.579 793.89 L240.579 767.524 L232.269 769.191 L232.269 764.932 L240.533 763.265 L245.209 763.265 L245.209 793.89 L252.847 793.89 L252.847 797.825 L232.94 797.825 L232.94 793.89 Z" fill="#000000" fill-rule="nonzero" fill-opacity="1" /><path clip-path="url(#clip680)" d="M272.292 766.344 Q268.681 766.344 266.852 769.909 Q265.046 773.45 265.046 780.58 Q265.046 787.686 266.852 791.251 Q268.681 794.793 272.292 794.793 Q275.926 794.793 277.732 791.251 Q279.56 787.686 279.56 780.58 Q279.56 773.45 277.732 769.909 Q275.926 766.344 272.292 766.344 M272.292 762.64 Q278.102 762.64 281.157 767.247 Q284.236 771.83 284.236 780.58 Q284.236 789.307 281.157 793.913 Q278.102 798.496 272.292 798.496 Q266.482 798.496 263.403 793.913 Q260.347 789.307 260.347 780.58 Q260.347 771.83 263.403 767.247 Q266.482 762.64 272.292 762.64 Z" fill="#000000" fill-rule="nonzero" fill-opacity="1" /><path clip-path="url(#clip680)" d="M284.236 756.742 L308.348 756.742 L308.348 759.939 L284.236 759.939 L284.236 756.742 Z" fill="#000000" fill-rule="nonzero" fill-opacity="1" /><path clip-path="url(#clip680)" d="M316.585 742.335 L331.5 742.335 L331.5 745.532 L320.065 745.532 L320.065 752.416 Q320.892 752.134 321.72 752.002 Q322.548 751.851 323.375 751.851 Q328.077 751.851 330.823 754.428 Q333.569 757.005 333.569 761.406 Q333.569 765.939 330.748 768.459 Q327.927 770.96 322.792 770.96 Q321.024 770.96 319.181 770.659 Q317.357 770.358 315.401 769.756 L315.401 765.939 Q317.093 766.86 318.899 767.311 Q320.704 767.763 322.717 767.763 Q325.971 767.763 327.87 766.051 Q329.77 764.34 329.77 761.406 Q329.77 758.472 327.87 756.76 Q325.971 755.049 322.717 755.049 Q321.193 755.049 319.67 755.387 Q318.165 755.726 316.585 756.441 L316.585 742.335 Z" fill="#000000" fill-rule="nonzero" fill-opacity="1" /><path clip-path="url(#clip680)" d="M127.015 558.545 Q123.681 558.545 121.76 560.327 Q119.862 562.11 119.862 565.235 Q119.862 568.36 121.76 570.142 Q123.681 571.924 127.015 571.924 Q130.348 571.924 132.269 570.142 Q134.191 568.336 134.191 565.235 Q134.191 562.11 132.269 560.327 Q130.371 558.545 127.015 558.545 M122.339 556.554 Q119.33 555.813 117.64 553.753 Q115.973 551.693 115.973 548.73 Q115.973 544.586 118.913 542.179 Q121.876 539.772 127.015 539.772 Q132.177 539.772 135.117 542.179 Q138.056 544.586 138.056 548.73 Q138.056 551.693 136.367 553.753 Q134.7 555.813 131.714 556.554 Q135.093 557.341 136.968 559.633 Q138.867 561.924 138.867 565.235 Q138.867 570.258 135.788 572.943 Q132.732 575.628 127.015 575.628 Q121.297 575.628 118.218 572.943 Q115.163 570.258 115.163 565.235 Q115.163 561.924 117.061 559.633 Q118.959 557.341 122.339 556.554 M120.626 549.17 Q120.626 551.855 122.293 553.36 Q123.982 554.864 127.015 554.864 Q130.024 554.864 131.714 553.36 Q133.427 551.855 133.427 549.17 Q133.427 546.485 131.714 544.98 Q130.024 543.475 127.015 543.475 Q123.982 543.475 122.293 544.98 Q120.626 546.485 120.626 549.17 Z" fill="#000000" fill-rule="nonzero" fill-opacity="1" /><path clip-path="url(#clip680)" d="M147.177 569.077 L152.061 569.077 L152.061 574.957 L147.177 574.957 L147.177 569.077 Z" fill="#000000" fill-rule="nonzero" fill-opacity="1" /><path clip-path="url(#clip680)" d="M172.246 543.475 Q168.635 543.475 166.806 547.04 Q165.001 550.582 165.001 557.711 Q165.001 564.818 166.806 568.383 Q168.635 571.924 172.246 571.924 Q175.88 571.924 177.686 568.383 Q179.514 564.818 179.514 557.711 Q179.514 550.582 177.686 547.04 Q175.88 543.475 172.246 543.475 M172.246 539.772 Q178.056 539.772 181.112 544.378 Q184.19 548.961 184.19 557.711 Q184.19 566.438 181.112 571.045 Q178.056 575.628 172.246 575.628 Q166.436 575.628 163.357 571.045 Q160.302 566.438 160.302 557.711 Q160.302 548.961 163.357 544.378 Q166.436 539.772 172.246 539.772 Z" fill="#000000" fill-rule="nonzero" fill-opacity="1" /><path clip-path="url(#clip680)" d="M220.579 549.494 L210 560.119 L220.579 570.697 L217.824 573.498 L207.199 562.873 L196.575 573.498 L193.843 570.697 L204.399 560.119 L193.843 549.494 L196.575 546.693 L207.199 557.318 L217.824 546.693 L220.579 549.494 Z" fill="#000000" fill-rule="nonzero" fill-opacity="1" /><path clip-path="url(#clip680)" d="M232.94 571.022 L240.579 571.022 L240.579 544.656 L232.269 546.323 L232.269 542.063 L240.533 540.397 L245.209 540.397 L245.209 571.022 L252.847 571.022 L252.847 574.957 L232.94 574.957 L232.94 571.022 Z" fill="#000000" fill-rule="nonzero" fill-opacity="1" /><path clip-path="url(#clip680)" d="M272.292 543.475 Q268.681 543.475 266.852 547.04 Q265.046 550.582 265.046 557.711 Q265.046 564.818 266.852 568.383 Q268.681 571.924 272.292 571.924 Q275.926 571.924 277.732 568.383 Q279.56 564.818 279.56 557.711 Q279.56 550.582 277.732 547.04 Q275.926 543.475 272.292 543.475 M272.292 539.772 Q278.102 539.772 281.157 544.378 Q284.236 548.961 284.236 557.711 Q284.236 566.438 281.157 571.045 Q278.102 575.628 272.292 575.628 Q266.482 575.628 263.403 571.045 Q260.347 566.438 260.347 557.711 Q260.347 548.961 263.403 544.378 Q266.482 539.772 272.292 539.772 Z" fill="#000000" fill-rule="nonzero" fill-opacity="1" /><path clip-path="url(#clip680)" d="M284.236 533.873 L308.348 533.873 L308.348 537.07 L284.236 537.07 L284.236 533.873 Z" fill="#000000" fill-rule="nonzero" fill-opacity="1" /><path clip-path="url(#clip680)" d="M316.585 519.466 L331.5 519.466 L331.5 522.664 L320.065 522.664 L320.065 529.547 Q320.892 529.265 321.72 529.133 Q322.548 528.983 323.375 528.983 Q328.077 528.983 330.823 531.56 Q333.569 534.136 333.569 538.537 Q333.569 543.07 330.748 545.59 Q327.927 548.092 322.792 548.092 Q321.024 548.092 319.181 547.791 Q317.357 547.49 315.401 546.888 L315.401 543.07 Q317.093 543.992 318.899 544.443 Q320.704 544.894 322.717 544.894 Q325.971 544.894 327.87 543.183 Q329.77 541.471 329.77 538.537 Q329.77 535.603 327.87 533.892 Q325.971 532.18 322.717 532.18 Q321.193 532.18 319.67 532.519 Q318.165 532.857 316.585 533.572 L316.585 519.466 Z" fill="#000000" fill-rule="nonzero" fill-opacity="1" /><path clip-path="url(#clip680)" d="M116.621 348.153 L124.26 348.153 L124.26 321.787 L115.95 323.454 L115.95 319.195 L124.214 317.528 L128.89 317.528 L128.89 348.153 L136.529 348.153 L136.529 352.088 L116.621 352.088 L116.621 348.153 Z" fill="#000000" fill-rule="nonzero" fill-opacity="1" /><path clip-path="url(#clip680)" d="M145.973 346.209 L150.857 346.209 L150.857 352.088 L145.973 352.088 L145.973 346.209 Z" fill="#000000" fill-rule="nonzero" fill-opacity="1" /><path clip-path="url(#clip680)" d="M171.042 320.607 Q167.431 320.607 165.602 324.172 Q163.797 327.713 163.797 334.843 Q163.797 341.949 165.602 345.514 Q167.431 349.056 171.042 349.056 Q174.677 349.056 176.482 345.514 Q178.311 341.949 178.311 334.843 Q178.311 327.713 176.482 324.172 Q174.677 320.607 171.042 320.607 M171.042 316.903 Q176.852 316.903 179.908 321.51 Q182.987 326.093 182.987 334.843 Q182.987 343.57 179.908 348.176 Q176.852 352.76 171.042 352.76 Q165.232 352.76 162.153 348.176 Q159.098 343.57 159.098 334.843 Q159.098 326.093 162.153 321.51 Q165.232 316.903 171.042 316.903 Z" fill="#000000" fill-rule="nonzero" fill-opacity="1" /><path clip-path="url(#clip680)" d="M219.375 326.625 L208.797 337.25 L219.375 347.829 L216.621 350.63 L205.996 340.005 L195.371 350.63 L192.639 347.829 L203.195 337.25 L192.639 326.625 L195.371 323.824 L205.996 334.449 L216.621 323.824 L219.375 326.625 Z" fill="#000000" fill-rule="nonzero" fill-opacity="1" /><path clip-path="url(#clip680)" d="M231.736 348.153 L239.375 348.153 L239.375 321.787 L231.065 323.454 L231.065 319.195 L239.329 317.528 L244.005 317.528 L244.005 348.153 L251.644 348.153 L251.644 352.088 L231.736 352.088 L231.736 348.153 Z" fill="#000000" fill-rule="nonzero" fill-opacity="1" /><path clip-path="url(#clip680)" d="M271.088 320.607 Q267.477 320.607 265.648 324.172 Q263.843 327.713 263.843 334.843 Q263.843 341.949 265.648 345.514 Q267.477 349.056 271.088 349.056 Q274.722 349.056 276.528 345.514 Q278.357 341.949 278.357 334.843 Q278.357 327.713 276.528 324.172 Q274.722 320.607 271.088 320.607 M271.088 316.903 Q276.898 316.903 279.954 321.51 Q283.032 326.093 283.032 334.843 Q283.032 343.57 279.954 348.176 Q276.898 352.76 271.088 352.76 Q265.278 352.76 262.199 348.176 Q259.144 343.57 259.144 334.843 Q259.144 326.093 262.199 321.51 Q265.278 316.903 271.088 316.903 Z" fill="#000000" fill-rule="nonzero" fill-opacity="1" /><path clip-path="url(#clip680)" d="M283.032 311.005 L307.144 311.005 L307.144 314.202 L283.032 314.202 L283.032 311.005 Z" fill="#000000" fill-rule="nonzero" fill-opacity="1" /><path clip-path="url(#clip680)" d="M325.782 299.908 L316.19 314.898 L325.782 314.898 L325.782 299.908 M324.786 296.598 L329.563 296.598 L329.563 314.898 L333.569 314.898 L333.569 318.058 L329.563 318.058 L329.563 324.678 L325.782 324.678 L325.782 318.058 L313.106 318.058 L313.106 314.39 L324.786 296.598 Z" fill="#000000" fill-rule="nonzero" fill-opacity="1" /><path clip-path="url(#clip680)" d="M16.4842 1275.45 L16.4842 1265.87 L48.8219 1253.75 L16.4842 1241.56 L16.4842 1231.98 L64.0042 1231.98 L64.0042 1238.25 L22.277 1238.25 L54.8694 1250.5 L54.8694 1256.96 L22.277 1269.21 L64.0042 1269.21 L64.0042 1275.45 L16.4842 1275.45 Z" fill="#000000" fill-rule="nonzero" fill-opacity="1" /><path clip-path="url(#clip680)" d="M46.0847 1203.27 Q46.0847 1210.36 47.7079 1213.1 Q49.3312 1215.84 53.2461 1215.84 Q56.3653 1215.84 58.2114 1213.8 Q60.0256 1211.73 60.0256 1208.2 Q60.0256 1203.33 56.5881 1200.4 Q53.1188 1197.44 47.3897 1197.44 L46.0847 1197.44 L46.0847 1203.27 M43.6657 1191.58 L64.0042 1191.58 L64.0042 1197.44 L58.5933 1197.44 Q61.8398 1199.45 63.3994 1202.44 Q64.9272 1205.43 64.9272 1209.76 Q64.9272 1215.23 61.8716 1218.48 Q58.7843 1221.69 53.6281 1221.69 Q47.6125 1221.69 44.5569 1217.68 Q41.5014 1213.64 41.5014 1205.65 L41.5014 1197.44 L40.9285 1197.44 Q36.8862 1197.44 34.6901 1200.11 Q32.4621 1202.76 32.4621 1207.56 Q32.4621 1210.62 33.1941 1213.51 Q33.9262 1216.41 35.3903 1219.08 L29.9795 1219.08 Q28.7381 1215.87 28.1334 1212.85 Q27.4968 1209.82 27.4968 1206.96 Q27.4968 1199.22 31.5072 1195.4 Q35.5176 1191.58 43.6657 1191.58 Z" fill="#000000" fill-rule="nonzero" fill-opacity="1" /><path clip-path="url(#clip680)" d="M18.2347 1173.73 L28.3562 1173.73 L28.3562 1161.67 L32.9077 1161.67 L32.9077 1173.73 L52.2594 1173.73 Q56.6199 1173.73 57.8613 1172.55 Q59.1026 1171.34 59.1026 1167.68 L59.1026 1161.67 L64.0042 1161.67 L64.0042 1167.68 Q64.0042 1174.46 61.4897 1177.04 Q58.9434 1179.62 52.2594 1179.62 L32.9077 1179.62 L32.9077 1183.91 L28.3562 1183.91 L28.3562 1179.62 L18.2347 1179.62 L18.2347 1173.73 Z" fill="#000000" fill-rule="nonzero" fill-opacity="1" /><path clip-path="url(#clip680)" d="M29.7248 1128.31 L35.1993 1128.31 Q33.8307 1130.79 33.1623 1133.31 Q32.4621 1135.79 32.4621 1138.34 Q32.4621 1144.03 36.0905 1147.18 Q39.6872 1150.33 46.212 1150.33 Q52.7369 1150.33 56.3653 1147.18 Q59.9619 1144.03 59.9619 1138.34 Q59.9619 1135.79 59.2935 1133.31 Q58.5933 1130.79 57.2247 1128.31 L62.6355 1128.31 Q63.7814 1130.76 64.3543 1133.4 Q64.9272 1136.01 64.9272 1138.97 Q64.9272 1147.02 59.8664 1151.77 Q54.8057 1156.51 46.212 1156.51 Q37.491 1156.51 32.4939 1151.74 Q27.4968 1146.93 27.4968 1138.59 Q27.4968 1135.88 28.0697 1133.31 Q28.6108 1130.73 29.7248 1128.31 Z" fill="#000000" fill-rule="nonzero" fill-opacity="1" /><path clip-path="url(#clip680)" d="M42.4881 1088.49 L64.0042 1088.49 L64.0042 1094.35 L42.679 1094.35 Q37.6183 1094.35 35.1038 1096.32 Q32.5894 1098.3 32.5894 1102.24 Q32.5894 1106.98 35.6131 1109.72 Q38.6368 1112.46 43.8567 1112.46 L64.0042 1112.46 L64.0042 1118.35 L14.479 1118.35 L14.479 1112.46 L33.8944 1112.46 Q30.6797 1110.36 29.0883 1107.53 Q27.4968 1104.66 27.4968 1100.94 Q27.4968 1094.79 31.3163 1091.64 Q35.1038 1088.49 42.4881 1088.49 Z" fill="#000000" fill-rule="nonzero" fill-opacity="1" /><path clip-path="url(#clip680)" d="M44.7161 1046.32 L47.5806 1046.32 L47.5806 1073.25 Q53.6281 1072.86 56.8109 1069.62 Q59.9619 1066.34 59.9619 1060.51 Q59.9619 1057.14 59.1344 1053.99 Q58.3069 1050.81 56.6518 1047.69 L62.1899 1047.69 Q63.5267 1050.84 64.227 1054.15 Q64.9272 1057.46 64.9272 1060.86 Q64.9272 1069.39 59.9619 1074.39 Q54.9967 1079.36 46.5303 1079.36 Q37.7774 1079.36 32.6531 1074.65 Q27.4968 1069.9 27.4968 1061.88 Q27.4968 1054.69 32.1438 1050.52 Q36.7589 1046.32 44.7161 1046.32 M42.9973 1052.18 Q38.1912 1052.24 35.3266 1054.88 Q32.4621 1057.49 32.4621 1061.82 Q32.4621 1066.72 35.2312 1069.68 Q38.0002 1072.61 43.0292 1073.06 L42.9973 1052.18 Z" fill="#000000" fill-rule="nonzero" fill-opacity="1" /><path clip-path="url(#clip680)" d="M29.4065 1013.98 L34.9447 1013.98 Q33.6716 1016.46 33.035 1019.14 Q32.3984 1021.81 32.3984 1024.68 Q32.3984 1029.04 33.7352 1031.23 Q35.072 1033.4 37.7456 1033.4 Q39.7826 1033.4 40.9603 1031.84 Q42.1061 1030.28 43.1565 1025.57 L43.6021 1023.56 Q44.9389 1017.32 47.3897 1014.71 Q49.8086 1012.07 54.1691 1012.07 Q59.1344 1012.07 62.0308 1016.02 Q64.9272 1019.93 64.9272 1026.81 Q64.9272 1029.67 64.3543 1032.79 Q63.8132 1035.88 62.6992 1039.32 L56.6518 1039.32 Q58.3387 1036.07 59.198 1032.92 Q60.0256 1029.77 60.0256 1026.68 Q60.0256 1022.54 58.6251 1020.32 Q57.1929 1018.09 54.6147 1018.09 Q52.2276 1018.09 50.9545 1019.71 Q49.6813 1021.3 48.5037 1026.74 L48.0262 1028.78 Q46.8804 1034.22 44.5251 1036.64 Q42.138 1039.06 38.0002 1039.06 Q32.9713 1039.06 30.2341 1035.5 Q27.4968 1031.93 27.4968 1025.38 Q27.4968 1022.13 27.9743 1019.27 Q28.4517 1016.4 29.4065 1013.98 Z" fill="#000000" fill-rule="nonzero" fill-opacity="1" /><path clip-path="url(#clip680)" d="M58.657 976.36 L77.5631 976.36 L77.5631 982.248 L28.3562 982.248 L28.3562 976.36 L33.7671 976.36 Q30.5842 974.514 29.0564 971.713 Q27.4968 968.88 27.4968 964.966 Q27.4968 958.473 32.6531 954.43 Q37.8093 950.356 46.212 950.356 Q54.6147 950.356 59.771 954.43 Q64.9272 958.473 64.9272 964.966 Q64.9272 968.88 63.3994 971.713 Q61.8398 974.514 58.657 976.36 M46.212 956.436 Q39.7508 956.436 36.0905 959.109 Q32.3984 961.751 32.3984 966.398 Q32.3984 971.045 36.0905 973.718 Q39.7508 976.36 46.212 976.36 Q52.6732 976.36 56.3653 973.718 Q60.0256 971.045 60.0256 966.398 Q60.0256 961.751 56.3653 959.109 Q52.6732 956.436 46.212 956.436 Z" fill="#000000" fill-rule="nonzero" fill-opacity="1" /><path clip-path="url(#clip680)" d="M44.7161 910.157 L47.5806 910.157 L47.5806 937.084 Q53.6281 936.702 56.8109 933.455 Q59.9619 930.177 59.9619 924.352 Q59.9619 920.979 59.1344 917.828 Q58.3069 914.645 56.6518 911.525 L62.1899 911.525 Q63.5267 914.676 64.227 917.987 Q64.9272 921.297 64.9272 924.702 Q64.9272 933.233 59.9619 938.23 Q54.9967 943.195 46.5303 943.195 Q37.7774 943.195 32.6531 938.484 Q27.4968 933.742 27.4968 925.721 Q27.4968 918.528 32.1438 914.358 Q36.7589 910.157 44.7161 910.157 M42.9973 916.013 Q38.1912 916.077 35.3266 918.719 Q32.4621 921.329 32.4621 925.657 Q32.4621 930.559 35.2312 933.519 Q38.0002 936.447 43.0292 936.893 L42.9973 916.013 Z" fill="#000000" fill-rule="nonzero" fill-opacity="1" /><path clip-path="url(#clip680)" d="M33.8307 879.888 Q33.2578 880.875 33.0032 882.052 Q32.7167 883.198 32.7167 884.599 Q32.7167 889.564 35.9632 892.237 Q39.1779 894.879 45.2253 894.879 L64.0042 894.879 L64.0042 900.767 L28.3562 900.767 L28.3562 894.879 L33.8944 894.879 Q30.6479 893.033 29.0883 890.073 Q27.4968 887.113 27.4968 882.88 Q27.4968 882.275 27.5923 881.543 Q27.656 880.811 27.8151 879.92 L33.8307 879.888 Z" fill="#000000" fill-rule="nonzero" fill-opacity="1" /><path clip-path="url(#clip680)" d="M42.4881 823.392 L64.0042 823.392 L64.0042 829.249 L42.679 829.249 Q37.6183 829.249 35.1038 831.222 Q32.5894 833.195 32.5894 837.142 Q32.5894 841.885 35.6131 844.622 Q38.6368 847.359 43.8567 847.359 L64.0042 847.359 L64.0042 853.247 L28.3562 853.247 L28.3562 847.359 L33.8944 847.359 Q30.6797 845.258 29.0883 842.426 Q27.4968 839.561 27.4968 835.837 Q27.4968 829.694 31.3163 826.543 Q35.1038 823.392 42.4881 823.392 Z" fill="#000000" fill-rule="nonzero" fill-opacity="1" /><path clip-path="url(#clip680)" d="M44.7161 781.219 L47.5806 781.219 L47.5806 808.146 Q53.6281 807.764 56.8109 804.518 Q59.9619 801.24 59.9619 795.415 Q59.9619 792.041 59.1344 788.89 Q58.3069 785.707 56.6518 782.588 L62.1899 782.588 Q63.5267 785.739 64.227 789.049 Q64.9272 792.359 64.9272 795.765 Q64.9272 804.295 59.9619 809.292 Q54.9967 814.257 46.5303 814.257 Q37.7774 814.257 32.6531 809.547 Q27.4968 804.804 27.4968 796.784 Q27.4968 789.59 32.1438 785.421 Q36.7589 781.219 44.7161 781.219 M42.9973 787.076 Q38.1912 787.14 35.3266 789.781 Q32.4621 792.391 32.4621 796.72 Q32.4621 801.622 35.2312 804.582 Q38.0002 807.51 43.0292 807.955 L42.9973 787.076 Z" fill="#000000" fill-rule="nonzero" fill-opacity="1" /><path clip-path="url(#clip680)" d="M49.9359 772.212 L28.3562 772.212 L28.3562 766.356 L49.7131 766.356 Q54.7739 766.356 57.3202 764.382 Q59.8346 762.409 59.8346 758.462 Q59.8346 753.72 56.8109 750.982 Q53.7872 748.213 48.5673 748.213 L28.3562 748.213 L28.3562 742.357 L64.0042 742.357 L64.0042 748.213 L58.5296 748.213 Q61.7762 750.346 63.3676 753.179 Q64.9272 755.979 64.9272 759.703 Q64.9272 765.846 61.1078 769.029 Q57.2883 772.212 49.9359 772.212 M27.4968 757.475 L27.4968 757.475 Z" fill="#000000" fill-rule="nonzero" fill-opacity="1" /><path clip-path="url(#clip680)" d="M18.2347 724.501 L28.3562 724.501 L28.3562 712.438 L32.9077 712.438 L32.9077 724.501 L52.2594 724.501 Q56.6199 724.501 57.8613 723.323 Q59.1026 722.114 59.1026 718.454 L59.1026 712.438 L64.0042 712.438 L64.0042 718.454 Q64.0042 725.233 61.4897 727.811 Q58.9434 730.389 52.2594 730.389 L32.9077 730.389 L32.9077 734.686 L28.3562 734.686 L28.3562 730.389 L18.2347 730.389 L18.2347 724.501 Z" fill="#000000" fill-rule="nonzero" fill-opacity="1" /><path clip-path="url(#clip680)" d="M33.8307 684.079 Q33.2578 685.065 33.0032 686.243 Q32.7167 687.389 32.7167 688.789 Q32.7167 693.755 35.9632 696.428 Q39.1779 699.07 45.2253 699.07 L64.0042 699.07 L64.0042 704.958 L28.3562 704.958 L28.3562 699.07 L33.8944 699.07 Q30.6479 697.224 29.0883 694.264 Q27.4968 691.304 27.4968 687.071 Q27.4968 686.466 27.5923 685.734 Q27.656 685.002 27.8151 684.111 L33.8307 684.079 Z" fill="#000000" fill-rule="nonzero" fill-opacity="1" /><path clip-path="url(#clip680)" d="M32.4621 665.555 Q32.4621 670.265 36.1542 673.002 Q39.8145 675.74 46.212 675.74 Q52.6095 675.74 56.3017 673.034 Q59.9619 670.297 59.9619 665.555 Q59.9619 660.876 56.2698 658.139 Q52.5777 655.401 46.212 655.401 Q39.8781 655.401 36.186 658.139 Q32.4621 660.876 32.4621 665.555 M27.4968 665.555 Q27.4968 657.916 32.4621 653.555 Q37.4273 649.195 46.212 649.195 Q54.9649 649.195 59.9619 653.555 Q64.9272 657.916 64.9272 665.555 Q64.9272 673.225 59.9619 677.586 Q54.9649 681.914 46.212 681.914 Q37.4273 681.914 32.4621 677.586 Q27.4968 673.225 27.4968 665.555 Z" fill="#000000" fill-rule="nonzero" fill-opacity="1" /><path clip-path="url(#clip680)" d="M42.4881 609.855 L64.0042 609.855 L64.0042 615.711 L42.679 615.711 Q37.6183 615.711 35.1038 617.684 Q32.5894 619.658 32.5894 623.605 Q32.5894 628.347 35.6131 631.084 Q38.6368 633.822 43.8567 633.822 L64.0042 633.822 L64.0042 639.71 L28.3562 639.71 L28.3562 633.822 L33.8944 633.822 Q30.6797 631.721 29.0883 628.888 Q27.4968 626.024 27.4968 622.3 Q27.4968 616.157 31.3163 613.006 Q35.1038 609.855 42.4881 609.855 Z" fill="#000000" fill-rule="nonzero" fill-opacity="1" /><path clip-path="url(#clip680)" d="M14.479 559.406 L19.3487 559.406 L19.3487 565.008 Q19.3487 568.159 20.6219 569.401 Q21.895 570.61 25.2052 570.61 L28.3562 570.61 L28.3562 560.966 L32.9077 560.966 L32.9077 570.61 L64.0042 570.61 L64.0042 576.498 L32.9077 576.498 L32.9077 582.1 L28.3562 582.1 L28.3562 576.498 L25.8736 576.498 Q19.9216 576.498 17.2162 573.729 Q14.479 570.96 14.479 564.945 L14.479 559.406 Z" fill="#000000" fill-rule="nonzero" fill-opacity="1" /><path clip-path="url(#clip680)" d="M14.479 554.505 L14.479 548.648 L64.0042 548.648 L64.0042 554.505 L14.479 554.505 Z" fill="#000000" fill-rule="nonzero" fill-opacity="1" /><path clip-path="url(#clip680)" d="M49.9359 536.999 L28.3562 536.999 L28.3562 531.143 L49.7131 531.143 Q54.7739 531.143 57.3202 529.169 Q59.8346 527.196 59.8346 523.249 Q59.8346 518.507 56.8109 515.769 Q53.7872 513 48.5673 513 L28.3562 513 L28.3562 507.144 L64.0042 507.144 L64.0042 513 L58.5296 513 Q61.7762 515.133 63.3676 517.966 Q64.9272 520.767 64.9272 524.491 Q64.9272 530.633 61.1078 533.816 Q57.2883 536.999 49.9359 536.999 M27.4968 522.263 L27.4968 522.263 Z" fill="#000000" fill-rule="nonzero" fill-opacity="1" /><path clip-path="url(#clip680)" d="M28.3562 465.449 L45.7028 478.339 L64.0042 464.78 L64.0042 471.687 L49.9996 482.063 L64.0042 492.439 L64.0042 499.346 L45.3526 485.501 L28.3562 498.168 L28.3562 491.262 L41.0558 481.808 L28.3562 472.355 L28.3562 465.449 Z" fill="#000000" fill-rule="nonzero" fill-opacity="1" /><path clip-path="url(#clip680)" d="M14.5426 421.716 Q21.8632 425.981 29.0246 428.05 Q36.186 430.119 43.5384 430.119 Q50.8908 430.119 58.1159 428.05 Q65.3091 425.949 72.5979 421.716 L72.5979 426.809 Q65.1182 431.583 57.8931 433.97 Q50.668 436.325 43.5384 436.325 Q36.4406 436.325 29.2474 433.97 Q22.0542 431.615 14.5426 426.809 L14.5426 421.716 Z" fill="#000000" fill-rule="nonzero" fill-opacity="1" /><path clip-path="url(#clip680)" d="M29.7248 384.7 L35.1993 384.7 Q33.8307 387.182 33.1623 389.697 Q32.4621 392.179 32.4621 394.726 Q32.4621 400.423 36.0905 403.574 Q39.6872 406.725 46.212 406.725 Q52.7369 406.725 56.3653 403.574 Q59.9619 400.423 59.9619 394.726 Q59.9619 392.179 59.2935 389.697 Q58.5933 387.182 57.2247 384.7 L62.6355 384.7 Q63.7814 387.15 64.3543 389.792 Q64.9272 392.402 64.9272 395.362 Q64.9272 403.415 59.8664 408.157 Q54.8057 412.9 46.212 412.9 Q37.491 412.9 32.4939 408.125 Q27.4968 403.319 27.4968 394.98 Q27.4968 392.275 28.0697 389.697 Q28.6108 387.119 29.7248 384.7 Z" fill="#000000" fill-rule="nonzero" fill-opacity="1" /><path clip-path="url(#clip680)" d="M35.1993 346.76 Q31.2526 344.564 29.3747 341.508 Q27.4968 338.453 27.4968 334.315 Q27.4968 328.745 31.4117 325.721 Q35.2948 322.698 42.4881 322.698 L64.0042 322.698 L64.0042 328.586 L42.679 328.586 Q37.5546 328.586 35.072 330.4 Q32.5894 332.214 32.5894 335.938 Q32.5894 340.49 35.6131 343.132 Q38.6368 345.773 43.8567 345.773 L64.0042 345.773 L64.0042 351.662 L42.679 351.662 Q37.5228 351.662 35.072 353.476 Q32.5894 355.29 32.5894 359.078 Q32.5894 363.565 35.6449 366.207 Q38.6686 368.849 43.8567 368.849 L64.0042 368.849 L64.0042 374.737 L28.3562 374.737 L28.3562 368.849 L33.8944 368.849 Q30.616 366.844 29.0564 364.043 Q27.4968 361.242 27.4968 357.391 Q27.4968 353.508 29.4702 350.802 Q31.4436 348.065 35.1993 346.76 Z" fill="#000000" fill-rule="nonzero" fill-opacity="1" /><path clip-path="url(#clip680)" d="M39.1142 308.629 L39.1142 295.134 L42.7427 295.134 L42.7427 314.168 L39.2416 314.168 Q38.2549 313.085 36.4725 311.08 Q26.7648 300.131 23.7729 300.131 Q21.6722 300.131 20.3991 301.786 Q19.0941 303.441 19.0941 306.147 Q19.0941 307.802 19.667 309.743 Q20.2081 311.685 21.3221 313.977 L17.4072 313.977 Q16.516 311.526 16.0704 309.425 Q15.6248 307.293 15.6248 305.478 Q15.6248 300.863 17.7255 298.094 Q19.8262 295.325 23.2636 295.325 Q27.6878 295.325 36.7271 305.86 Q38.2549 307.643 39.1142 308.629 Z" fill="#000000" fill-rule="nonzero" fill-opacity="1" /><path clip-path="url(#clip680)" d="M14.5426 285.808 L14.5426 280.716 Q22.0542 275.941 29.2474 273.586 Q36.4406 271.199 43.5384 271.199 Q50.668 271.199 57.8931 273.586 Q65.1182 275.941 72.5979 280.716 L72.5979 285.808 Q65.3091 281.575 58.1159 279.506 Q50.8908 277.406 43.5384 277.406 Q36.186 277.406 29.0246 279.506 Q21.8632 281.575 14.5426 285.808 Z" fill="#000000" fill-rule="nonzero" fill-opacity="1" /><path clip-path="url(#clip680)" d="M1166.03 12.096 L1204.27 12.096 L1204.27 18.9825 L1174.21 18.9825 L1174.21 36.8875 L1203.02 36.8875 L1203.02 43.7741 L1174.21 43.7741 L1174.21 65.6895 L1205 65.6895 L1205 72.576 L1166.03 72.576 L1166.03 12.096 Z" fill="#000000" fill-rule="nonzero" fill-opacity="1" /><path clip-path="url(#clip680)" d="M1241.09 9.54393 L1241.09 15.7418 L1233.96 15.7418 Q1229.95 15.7418 1228.37 17.3622 Q1226.83 18.9825 1226.83 23.1955 L1226.83 27.2059 L1239.11 27.2059 L1239.11 32.9987 L1226.83 32.9987 L1226.83 72.576 L1219.34 72.576 L1219.34 32.9987 L1212.21 32.9987 L1212.21 27.2059 L1219.34 27.2059 L1219.34 24.0462 Q1219.34 16.471 1222.86 13.0277 Q1226.39 9.54393 1234.05 9.54393 L1241.09 9.54393 Z" fill="#000000" fill-rule="nonzero" fill-opacity="1" /><path clip-path="url(#clip680)" d="M1270.3 9.54393 L1270.3 15.7418 L1263.17 15.7418 Q1259.16 15.7418 1257.58 17.3622 Q1256.04 18.9825 1256.04 23.1955 L1256.04 27.2059 L1268.32 27.2059 L1268.32 32.9987 L1256.04 32.9987 L1256.04 72.576 L1248.55 72.576 L1248.55 32.9987 L1241.42 32.9987 L1241.42 27.2059 L1248.55 27.2059 L1248.55 24.0462 Q1248.55 16.471 1252.07 13.0277 Q1255.6 9.54393 1263.25 9.54393 L1270.3 9.54393 Z" fill="#000000" fill-rule="nonzero" fill-opacity="1" /><path clip-path="url(#clip680)" d="M1276.54 27.2059 L1283.99 27.2059 L1283.99 72.576 L1276.54 72.576 L1276.54 27.2059 M1276.54 9.54393 L1283.99 9.54393 L1283.99 18.9825 L1276.54 18.9825 L1276.54 9.54393 Z" fill="#000000" fill-rule="nonzero" fill-opacity="1" /><path clip-path="url(#clip680)" d="M1332.24 28.9478 L1332.24 35.9153 Q1329.08 34.1734 1325.88 33.3227 Q1322.72 32.4315 1319.48 32.4315 Q1312.23 32.4315 1308.22 37.0496 Q1304.21 41.6271 1304.21 49.9314 Q1304.21 58.2358 1308.22 62.8538 Q1312.23 67.4314 1319.48 67.4314 Q1322.72 67.4314 1325.88 66.5807 Q1329.08 65.6895 1332.24 63.9476 L1332.24 70.8341 Q1329.12 72.2924 1325.76 73.0216 Q1322.44 73.7508 1318.67 73.7508 Q1308.42 73.7508 1302.38 67.3098 Q1296.35 60.8689 1296.35 49.9314 Q1296.35 38.832 1302.42 32.472 Q1308.54 26.1121 1319.15 26.1121 Q1322.6 26.1121 1325.88 26.8413 Q1329.16 27.5299 1332.24 28.9478 Z" fill="#000000" fill-rule="nonzero" fill-opacity="1" /><path clip-path="url(#clip680)" d="M1345.2 27.2059 L1352.66 27.2059 L1352.66 72.576 L1345.2 72.576 L1345.2 27.2059 M1345.2 9.54393 L1352.66 9.54393 L1352.66 18.9825 L1345.2 18.9825 L1345.2 9.54393 Z" fill="#000000" fill-rule="nonzero" fill-opacity="1" /><path clip-path="url(#clip680)" d="M1407.06 48.0275 L1407.06 51.6733 L1372.79 51.6733 Q1373.27 59.3701 1377.41 63.421 Q1381.58 67.4314 1388.99 67.4314 Q1393.29 67.4314 1397.3 66.3781 Q1401.35 65.3249 1405.32 63.2184 L1405.32 70.267 Q1401.31 71.9684 1397.09 72.8596 Q1392.88 73.7508 1388.55 73.7508 Q1377.69 73.7508 1371.33 67.4314 Q1365.01 61.1119 1365.01 50.3365 Q1365.01 39.1965 1371.01 32.6746 Q1377.04 26.1121 1387.25 26.1121 Q1396.41 26.1121 1401.71 32.0264 Q1407.06 37.9003 1407.06 48.0275 M1399.61 45.84 Q1399.52 39.7232 1396.16 36.0774 Q1392.84 32.4315 1387.33 32.4315 Q1381.09 32.4315 1377.33 35.9558 Q1373.6 39.4801 1373.03 45.8805 L1399.61 45.84 Z" fill="#000000" fill-rule="nonzero" fill-opacity="1" /><path clip-path="url(#clip680)" d="M1457.01 45.1919 L1457.01 72.576 L1449.55 72.576 L1449.55 45.4349 Q1449.55 38.994 1447.04 35.7938 Q1444.53 32.5936 1439.51 32.5936 Q1433.47 32.5936 1429.99 36.4419 Q1426.5 40.2903 1426.5 46.9338 L1426.5 72.576 L1419.01 72.576 L1419.01 27.2059 L1426.5 27.2059 L1426.5 34.2544 Q1429.18 30.163 1432.78 28.1376 Q1436.43 26.1121 1441.17 26.1121 Q1448.99 26.1121 1453 30.9732 Q1457.01 35.7938 1457.01 45.1919 Z" fill="#000000" fill-rule="nonzero" fill-opacity="1" /><path clip-path="url(#clip680)" d="M1504.52 28.9478 L1504.52 35.9153 Q1501.36 34.1734 1498.16 33.3227 Q1495 32.4315 1491.76 32.4315 Q1484.51 32.4315 1480.5 37.0496 Q1476.49 41.6271 1476.49 49.9314 Q1476.49 58.2358 1480.5 62.8538 Q1484.51 67.4314 1491.76 67.4314 Q1495 67.4314 1498.16 66.5807 Q1501.36 65.6895 1504.52 63.9476 L1504.52 70.8341 Q1501.4 72.2924 1498.04 73.0216 Q1494.72 73.7508 1490.95 73.7508 Q1480.7 73.7508 1474.67 67.3098 Q1468.63 60.8689 1468.63 49.9314 Q1468.63 38.832 1474.71 32.472 Q1480.83 26.1121 1491.44 26.1121 Q1494.88 26.1121 1498.16 26.8413 Q1501.45 27.5299 1504.52 28.9478 Z" fill="#000000" fill-rule="nonzero" fill-opacity="1" /><path clip-path="url(#clip680)" d="M1536.36 76.7889 Q1533.2 84.8907 1530.21 87.3618 Q1527.21 89.8329 1522.19 89.8329 L1516.23 89.8329 L1516.23 83.5945 L1520.61 83.5945 Q1523.68 83.5945 1525.39 82.1361 Q1527.09 80.6778 1529.15 75.2496 L1530.49 71.8468 L1512.14 27.2059 L1520.04 27.2059 L1534.22 62.6918 L1548.4 27.2059 L1556.29 27.2059 L1536.36 76.7889 Z" fill="#000000" fill-rule="nonzero" fill-opacity="1" /><polyline clip-path="url(#clip682)" style="stroke:#009af9; stroke-linecap:round; stroke-linejoin:round; stroke-width:12; stroke-opacity:1; fill:none" points="425.697,160.256 519.243,533.535 612.79,751.968 706.336,916.036 799.883,1029.14 893.43,1085.44 986.976,1157.28 1080.52,1199.51 1174.07,1230.58 1267.62,1270.38 1361.16,1283.97 1454.71,1307.76 1548.26,1322.32 1641.8,1338.34 1735.35,1354.84 1828.9,1360.18 1922.44,1367.95 2015.99,1376.69 2109.53,1385.42 2203.08,1377.66 2296.63,1386.4 "/>
</svg>
